<?xml version="1.0" encoding="UTF-8"?>
<svg data-bbox="34.447 118.055 1730.55 1112.037" xmlns="http://www.w3.org/2000/svg" viewBox="0 0 1800 1109" height="1109" width="1800" data-type="ugc">
    <g>
        <g clip-path="url(#e59f9ba2-b2ac-4334-8b26-761fbdb1c918)">
            <path fill="#E6DCEB" d="M1176.81 1230.03c-82.1 0-198.672-55.66-276.136-98.45-77.527 42.79-194.095 98.45-276.138 98.45a139.644 139.644 0 0 1-81.796-23.5c-54.51-38.15-71.339-114.09-54.696-246.237 5.012-39.699 12.066-77.049 18.129-105.124-22.089-19.417-50.612-45.636-78.826-74.885-94.17-97.703-121.58-168.692-100.79-230.406 20.789-61.714 85.26-100.733 220.761-126.272 40.651-7.668 79.754-12.739 109.453-15.954 12.375-26.219 475.429-26.219 487.809 0 29.69 3.215 68.74 8.286 109.39 15.954 135.5 25.539 197.37 64.496 218.16 126.272 20.79 61.775-4.02 132.703-98.01 230.221-28.21 29.249-56.73 55.653-78.82 74.885 6.19 28.26 13.11 65.61 18.06 105.124 16.71 132.142 0 208.082-54.63 246.232a139.799 139.799 0 0 1-81.92 23.5v.19z"/>
            <path fill="#FBFDFC" d="M1159.86 1186.49c-77.09 0-186.484-54.1-259.185-95.78-72.762 41.68-182.153 95.78-258.937 95.78a127.78 127.78 0 0 1-76.908-22.81c-51.107-37.11-66.946-111-51.292-239.563 4.64-38.587 11.323-74.947 16.953-102.465-20.727-18.551-47.456-44.399-73.938-72.844-88.54-94.797-119.167-163.932-99.429-223.976 19.737-60.044 84.765-98.012 211.914-122.747 38.175-7.482 74.804-12.368 102.708-15.521 11.571-25.539 27.596-58.87 46.467-92.757C781.199 180.459 837.441 130 900.675 130c63.234 0 119.475 50.459 182.405 163.684 18.93 33.949 34.95 67.279 46.46 92.756 27.91 3.092 64.6 8.039 102.71 15.521 127.21 24.735 192.61 62.765 212.16 122.809 19.55 60.045-11.13 129.179-99.36 223.976-26.49 28.445-53.28 53.984-74.25 72.844 5.69 27.518 12.37 63.879 17.01 102.465 15.6 128.565 0 202.455-51.35 239.555a127.687 127.687 0 0 1-76.85 22.82l.25.06z"/>
            <path fill="#C66914" d="M1159.86 1131.77c-80.06 0-220.763-81.38-259.186-104.57-38.485 23.07-179.183 104.57-258.937 104.57a74.303 74.303 0 0 1-44.61-12.37c-32.174-23.37-41.703-85.03-29.08-188.542a1276.368 1276.368 0 0 1 22.954-128.684 1295.074 1295.074 0 0 1-94.541-90.901c-71.278-76.184-99.615-131.714-87.303-169.497 12.313-37.782 67.998-65.918 170.707-85.892a1274.798 1274.798 0 0 1 129.562-17.933 1287.263 1287.263 0 0 1 57.108-117.491c50.365-91.519 94.356-135.609 134.14-135.609 39.784 0 83.714 44.09 134.446 135.486a1296.57 1296.57 0 0 1 57.05 117.491c43.47 3.752 86.71 9.737 129.56 17.933 102.4 19.973 158.15 48.109 170.46 85.892 12.31 37.783-16.27 93.436-87.36 169.62a1295.674 1295.674 0 0 1-94.3 90.592 1269.587 1269.587 0 0 1 23.02 128.684c12.37 103.511 3.03 165.171-29.08 188.541a74.288 74.288 0 0 1-44.61 12.68z"/>
            <path fill="#F09021" d="M900.671 203.154c77.279 0 178.869 252.112 178.869 252.112s271.32 18.551 295.26 92.199c23.95 73.649-184.63 247.969-184.63 247.969s66.08 263.616 3.53 309.186c-62.55 45.58-293.029-98.94-293.029-98.94s-230.476 144.27-293.029 98.94c-62.554-45.33 3.526-309.186 3.526-309.186S402.657 620.928 426.54 547.465c23.883-73.463 295.195-92.199 295.195-92.199S823.33 203.154 900.671 203.154z"/>
            <path fill="#F5AD3B" d="M900.671 203.154c77.279 0 178.879 252.112 178.879 252.112s48.57 3.339 106.42 12.8c6.18.989 18.99 3.216 18.99 3.216-507.541 35.927-621.016 479.797-621.016 479.797a1240.735 1240.735 0 0 1 27.224-155.645S402.657 620.928 426.54 547.465c23.883-73.463 295.195-92.199 295.195-92.199S823.33 203.154 900.671 203.154z"/>
            <path fill="#EFE9F4" d="M584.197 607.817c-61.873 7.483-114.464-8.657-117.558-35.989-3.094-27.332 44.053-55.654 105.802-63.013 61.749-7.358 114.465 8.658 117.559 35.99 3.093 27.332-44.054 55.53-105.803 63.012z"/>
        </g>
        <g clip-path="url(#2b4baa8f-eba5-4bc2-8899-d2cdb3310073)">
            <path fill="#EADBE6" d="M328.39 1108.53c-32.34 0-62.74-15.83-83.4-43.42-16.11-21.52-24.99-48.81-24.99-76.84v-190c0-31.2 10.71-60.77 30.15-83.27 20.63-23.86 48.42-37 78.24-37h1141.8c29.47 0 57 12.88 77.59 36.26 19.86 22.59 30.8 52.42 30.8 84v190c0 31.58-10.94 61.41-30.8 84-20.57 23.38-48.12 36.26-77.59 36.26l-1141.8.01z"/>
            <path fill="#FBFDFC" d="M336.19 1080.92c-32.14 0-62.35-14.76-82.88-40.5a115.224 115.224 0 0 1-24.84-71.67V791.51a114.18 114.18 0 0 1 30-77.65c20.47-22.26 48.08-34.52 77.72-34.52h1134.67c29.29 0 56.67 12 77.11 33.83a114.002 114.002 0 0 1 30.61 78.34v177.24c.17 29.06-10.77 57.09-30.58 78.35-20.44 21.81-47.82 33.82-77.11 33.82H336.19z"/>
            <path fill="#133E83" d="M336.19 1049.78c-22.61 0-43.95-10.49-58.54-28.78a84.007 84.007 0 0 1-18-52.25V791.51a83.075 83.075 0 0 1 21.7-56.51c14.53-15.79 34-24.48 54.84-24.48h1134.67c20.59 0 39.9 8.52 54.39 24a82.988 82.988 0 0 1 22.19 57.05v177.18a82.98 82.98 0 0 1-22.19 57.05c-14.49 15.46-33.81 24-54.39 24l-1134.67-.02z"/>
            <path fill="#16469D" d="M1470.86 1039.4H336.19c-20.2 0-38.28-9.66-50.42-24.88A73.218 73.218 0 0 1 270 968.75V791.51A72.933 72.933 0 0 1 289 742c12-13 28.73-21.13 47.21-21.13h1134.65a63.95 63.95 0 0 1 25.56 5.467 63.987 63.987 0 0 1 21.25 15.233 72.829 72.829 0 0 1 19.39 50v177.18a72.886 72.886 0 0 1-19.39 50 64.066 64.066 0 0 1-21.25 15.21 64.131 64.131 0 0 1-25.56 5.44z"/>
            <path fill="#2163C4" d="M285.77 1014.52A73.218 73.218 0 0 1 270 968.75V791.51A72.933 72.933 0 0 1 289 742c12-13 28.73-21.13 47.21-21.13h1134.65a63.538 63.538 0 0 1 43.09 17c1.28 1.17 3.72 3.68 3.72 3.68-1164.77 52.78-1231.9 272.97-1231.9 272.97z"/>
            <path fill="#EFE9F4" d="M344.702 792.045c19.975-19.975 28.995-43.342 20.145-52.192-8.849-8.849-32.216.171-52.191 20.146-19.976 19.975-28.995 43.342-20.146 52.192 8.85 8.849 32.217-.171 52.192-20.146z"/>
        </g>
        <g clip-path="url(#c131d19e-2033-4d3f-98b7-44de66b977e8)">
            <path fill="#E6DCEB" d="M214.109 624.712c-13.022 2.553-33.241-2.654-46.859-7.035-10.964 9.201-27.721 21.658-40.733 24.209a22.56 22.56 0 0 1-13.704-1.185c-9.833-4.36-14.865-15.887-16.337-37.375-.44-6.456-.484-12.602-.395-17.246-4.108-2.395-9.448-5.668-14.832-9.433-17.976-12.576-24.532-22.989-23.155-33.429 1.377-10.44 10.388-18.637 31.084-26.904 6.209-2.481 12.253-4.501 16.863-5.935 1.147-4.546 74.588-18.946 77.367-15.17 4.81-.413 11.16-.823 17.846-.87 22.285-.161 33.311 4.097 38.53 13.254 5.219 9.157 3.491 21.184-8.381 39.582a207.641 207.641 0 0 1-10.171 14.335 195.373 195.373 0 0 1 6.136 16.121c6.761 20.451 6.475 33.021-1.003 40.775a22.6 22.6 0 0 1-12.262 6.276l.006.03z"/>
            <path fill="#FBFDFC" d="M210.066 618.33c-12.227 2.398-31.26-2.787-44.087-7.14-10.244 8.877-25.91 20.865-38.088 23.253a20.648 20.648 0 0 1-12.908-1.229c-9.26-4.299-14.071-15.533-15.589-36.421-.465-6.268-.536-12.246-.5-16.788-3.864-2.299-8.907-5.57-13.993-9.261-16.992-12.29-24-22.308-22.738-32.451 1.262-10.142 10.394-18.19 29.79-26.069 5.822-2.375 11.479-4.289 15.807-5.657 1.04-4.413 2.545-10.2 4.484-16.165 6.462-19.946 13.813-29.703 23.842-31.669 10.029-1.966 20.519 4.292 34.022 20.303 4.059 4.799 7.638 9.59 10.256 13.275 4.522-.377 10.495-.733 16.772-.731 20.946-.031 32.502 3.97 37.471 12.891 4.969 8.921 2.253 20.846-8.791 38.633a194.041 194.041 0 0 1-9.509 13.869c1.759 4.19 3.95 9.752 5.887 15.731 6.473 19.917 6.299 32.129-.691 39.613a20.635 20.635 0 0 1-11.478 6.011l.041.002z"/>
            <path fill="#C66914" d="M208.363 609.646c-12.698 2.49-37.546-6.049-44.361-8.534-5.386 4.857-25.165 22.166-37.815 24.646a12 12 0 0 1-7.46-.575c-5.83-2.709-9.259-12.196-10.478-29.016a206.39 206.39 0 0 1-.364-21.135 209.398 209.398 0 0 1-17.823-11.485c-13.675-9.874-19.897-17.804-19.12-24.183.777-6.379 8.733-12.576 24.402-18.939a205.844 205.844 0 0 1 19.99-6.875 208.204 208.204 0 0 1 5.402-20.421c5.14-16.09 10.746-24.455 17.056-25.692 6.309-1.237 14.649 4.394 25.539 17.32a210.006 210.006 0 0 1 12.704 16.871 205.264 205.264 0 0 1 21.106-1.184c16.863-.014 26.58 2.717 29.708 8.33 3.129 5.613.327 15.334-8.578 29.634a209.47 209.47 0 0 1-12.136 17.309 205.86 205.86 0 0 1 7.654 19.705c5.184 16.043 5.62 26.117 1.255 30.825a12.008 12.008 0 0 1-6.681 3.399z"/>
            <path fill="#F09021" d="M138.362 470.342c12.256-2.403 36.214 34.445 36.214 34.445s43.608-5.493 49.697 5.45c6.09 10.943-21.567 45.092-21.567 45.092s18.683 39.779 10.18 48.956c-8.503 9.178-49.553-6.588-49.553-6.588s-32.065 30.061-43.397 24.813c-11.331-5.247-9.061-49.175-9.061-49.175s-38.5-21.208-36.998-33.609c1.502-12.401 43.95-23.812 43.95-23.812s8.268-43.167 20.535-45.572z"/>
            <path fill="#F5AD3B" d="M138.362 470.342c12.256-2.403 36.214 34.445 36.214 34.445s7.807-.98 17.277-1.278c1.012-.035 3.113-.08 3.113-.08-79.38 21.485-83.566 95.452-83.566 95.452a200.734 200.734 0 0 1-.525-25.546s-38.5-21.208-36.998-33.609c1.502-12.401 43.95-23.812 43.95-23.812s8.268-43.167 20.535-45.572z"/>
            <path fill="#EFE9F4" d="M100.759 544.401c-9.58 3.112-18.424 2.186-19.765-2.055-1.34-4.242 5.255-10.202 14.82-13.29 9.565-3.088 18.424-2.186 19.765 2.055 1.341 4.242-5.259 10.182-14.82 13.29z"/>
        </g>
        <g clip-path="url(#23b36c76-bba0-47f9-a1cc-e9db55207ca4)">
            <path fill="#E6DCEB" d="M1640.35 645.492c-11.49-6.635-23.31-23.85-30.69-36.102-14.31-.273-35.13-1.898-46.61-8.528a22.624 22.624 0 0 1-9.55-9.901c-4.54-9.749-.76-21.743 12.26-38.905 3.91-5.155 7.92-9.816 11.03-13.258-1.52-4.504-3.39-10.481-4.97-16.857-5.28-21.294-3.38-33.451 4.52-40.413 7.9-6.963 20.08-7.218 41.11.155 6.31 2.211 12.19 4.661 16.61 6.611 3.85-2.672 68.66 34.748 68.28 39.42 3.89 2.85 8.95 6.715 14.02 11.074 16.9 14.527 22.41 24.983 20.32 35.315-2.08 10.331-11.29 18.259-32.33 24.322a207.353 207.353 0 0 1-17.09 4.117 196.347 196.347 0 0 1-5.97 16.183c-8.35 19.857-16.82 29.141-27.56 30.07a22.59 22.59 0 0 1-13.36-3.329l-.02.026z"/>
            <path fill="#FBFDFC" d="M1641.5 638.025c-10.79-6.23-21.73-22.648-28.53-34.36-13.56-.043-33.24-1.305-43.99-7.51a20.654 20.654 0 0 1-8.92-9.41c-4.15-9.327-.4-20.956 12.19-37.695 3.77-5.029 7.64-9.581 10.66-12.98-1.4-4.273-3.05-10.053-4.46-16.177-4.73-20.431-3.43-32.588 4.19-39.403 7.62-6.814 19.79-6.876 39.59-.065 5.95 2.037 11.47 4.313 15.63 6.126 3.68-2.642 8.62-6.014 14-9.235 17.98-10.784 29.94-13.306 38.79-8.196 8.85 5.11 12.64 16.722 12.29 37.663-.09 6.285-.54 12.248-.99 16.746 3.65 2.688 8.39 6.346 13.12 10.474 15.8 13.744 21.88 24.355 19.76 34.344-2.11 9.989-12 17.191-32.01 23.337a194.504 194.504 0 0 1-16.29 4.202c-1.43 4.314-3.43 9.946-5.9 15.725-8.21 19.265-16.37 28.354-26.56 29.4-4.41.374-8.83-.683-12.6-3.014l.03.028z"/>
            <path fill="#C66914" d="M1645.92 630.361c-11.2-6.47-24.32-29.237-27.82-35.59-7.25.121-33.53.165-44.7-6.28a11.983 11.983 0 0 1-5.24-5.337c-2.61-5.874 1.04-15.278 11.17-28.755a206.958 206.958 0 0 1 13.62-16.167 211.715 211.715 0 0 1-5.88-20.371c-3.82-16.429-3.29-26.496 1.48-30.793 4.78-4.296 14.85-3.736 30.84 1.766 6.66 2.316 13.2 4.972 19.59 7.959 5.63-4.24 11.46-8.192 17.49-11.84 14.45-8.747 24.17-11.367 29.74-8.152 5.57 3.215 8.15 12.94 7.87 29.84-.16 7.042-.66 14.073-1.52 21.064a204.534 204.534 0 0 1 16.68 12.982c12.72 11.072 18.25 19.518 16.92 25.804-1.33 6.286-9.83 11.771-25.94 16.695a210.012 210.012 0 0 1-20.53 5.067 206.114 206.114 0 0 1-7.18 19.882c-6.64 15.498-12.93 23.377-19.32 24.055-2.55.182-5.1-.459-7.27-1.829z"/>
            <path fill="#F09021" d="M1684.73 479.364c10.82 6.245 4.65 49.763 4.65 49.763s36.48 24.523 33.88 36.773c-2.61 12.249-45.9 19.807-45.9 19.807s-12.06 42.259-24.5 43.587c-12.44 1.327-33.02-37.537-33.02-37.537s-43.92 1.58-49.01-9.823c-5.09-11.403 25.49-43.017 25.49-43.017s-15.07-41.289-5.79-49.647c9.28-8.359 48.77 10.942 48.77 10.942s34.61-27.098 45.43-20.848z"/>
            <path fill="#F5AD3B" d="M1684.73 479.364c10.82 6.245 4.65 49.763 4.65 49.763s6.53 4.393 13.87 10.393c.78.639 2.39 1.985 2.39 1.985-73.94-35.983-125.71 17.01-125.71 17.01a201.064 201.064 0 0 1 16.39-19.598s-15.07-41.289-5.79-49.647c9.28-8.359 48.77 10.942 48.77 10.942s34.61-27.098 45.43-20.848z"/>
            <path fill="#EFE9F4" d="M1607.71 510.462c-9.26-3.952-15.32-10.462-13.54-14.54 1.78-4.078 10.67-4.234 19.9-.275 9.24 3.96 15.33 10.463 13.55 14.541-1.78 4.078-10.66 4.217-19.91.274z"/>
        </g>
        <g clip-path="url(#5bdf3b7b-1d0a-4e41-be95-b66acf15b3fa)">
            <path fill="#E6DCEB" d="M1390.6 376.927c-16.74-9.243-34.24-33.718-45.21-51.167-20.63.002-50.66-1.768-67.39-11.004a32.459 32.459 0 0 1-14.02-14.001c-6.82-13.919-1.7-31.303 16.58-56.386 5.49-7.533 11.14-14.358 15.54-19.402-2.32-6.448-5.18-15.007-7.64-24.149-8.19-30.531-5.78-48.097 5.41-58.346 11.18-10.248 28.72-10.95 59.22-.906 9.16 3.012 17.7 6.38 24.12 9.067 5.47-3.955 99.87 48.172 99.44 54.913 5.7 3.999 13.08 9.428 20.51 15.569 24.75 20.463 32.97 35.374 30.25 50.316-2.72 14.941-15.77 26.617-45.91 35.929a300.58 300.58 0 0 1-24.51 6.402 281.05 281.05 0 0 1-8.15 23.477c-11.48 28.836-23.44 42.446-38.88 44.078a32.547 32.547 0 0 1-19.34-4.428l-.02.038z"/>
            <path fill="#FBFDFC" d="M1392.04 366.138c-15.71-8.679-31.92-32.03-42.05-48.716-19.53.311-47.92-.966-63.58-9.61a29.732 29.732 0 0 1-13.1-13.312c-6.24-13.322-1.15-30.178 16.52-54.64 5.29-7.349 10.75-14.014 15-18.993-2.14-6.118-4.68-14.399-6.87-23.183-7.37-29.304-5.83-46.854 4.96-56.88 10.78-10.026 28.32-10.451 57.03-1.183 8.62 2.771 16.64 5.898 22.68 8.396 5.24-3.907 12.26-8.902 19.92-13.69 25.61-16.031 42.76-19.993 55.65-12.874 12.89 7.118 18.68 23.742 18.75 53.922.04 9.056-.45 17.659-.97 24.151 5.34 3.772 12.26 8.912 19.19 14.728 23.15 19.366 32.19 34.486 29.42 48.935-2.78 14.449-16.82 25.097-45.49 34.501-8.6 2.822-16.94 5.015-23.34 6.501-1.94 6.254-4.67 14.424-8.07 22.817-11.3 27.979-22.81 41.298-37.45 43.085-6.35.66-12.75-.741-18.24-3.996l.04.041z"/>
            <path fill="#C66914" d="M1398.21 354.975c-16.33-9.013-35.84-41.451-41.07-50.507-10.44.373-48.3 1.16-64.56-7.818a17.232 17.232 0 0 1-7.7-7.545c-3.93-8.39 1.07-22.039 15.3-41.733a299.362 299.362 0 0 1 19.18-23.666c-3.5-9.569-6.52-19.31-9.04-29.185-5.95-23.564-5.47-38.081 1.3-44.402 6.76-6.321 21.28-5.792 44.47 1.696 9.66 3.153 19.15 6.8 28.44 10.927a300.446 300.446 0 0 1 24.87-17.538c20.58-12.999 34.51-17.04 42.62-12.562 8.11 4.479 12.1 18.418 12.15 42.772-.02 10.15-.56 20.292-1.6 30.389a295.362 295.362 0 0 1 24.39 18.242c18.63 15.602 26.82 27.617 25.08 36.71-1.75 9.093-13.84 17.228-36.92 24.765a302.207 302.207 0 0 1-29.42 7.865 298.774 298.774 0 0 1-9.81 28.84c-9.13 22.509-17.98 34.033-27.16 35.186-3.68.333-7.37-.521-10.52-2.436z"/>
            <path fill="#F09021" d="M1449.96 136.376c15.76 8.699 8.07 71.562 8.07 71.562s53.22 34.326 49.81 52.045c-3.41 17.719-65.57 29.798-65.57 29.798s-16.22 61.212-34.11 63.466c-17.88 2.255-48.59-53.169-48.59-53.169s-63.24 3.484-70.88-12.804c-7.65-16.288 35.54-62.672 35.54-62.672s-22.85-59.069-9.71-71.366c13.14-12.297 70.57 14.423 70.57 14.423s49.1-39.99 64.87-31.283z"/>
            <path fill="#F5AD3B" d="M1449.96 136.376c15.76 8.699 8.07 71.562 8.07 71.562s9.53 6.149 20.26 14.591c1.15.899 3.51 2.795 3.51 2.795-107.52-49.806-180.65 27.962-180.65 27.962a288.906 288.906 0 0 1 23.08-28.684s-22.85-59.069-9.71-71.366c13.14-12.297 70.57 14.423 70.57 14.423s49.1-39.99 64.87-31.283z"/>
            <path fill="#EFE9F4" d="M1339.86 183.294c-13.45-5.439-22.36-14.651-19.91-20.575 2.45-5.923 15.25-6.393 28.67-.943 13.41 5.45 22.36 14.651 19.91 20.575-2.45 5.924-15.24 6.368-28.67.943z"/>
        </g>
        <g clip-path="url(#86a98b39-405e-4c59-994b-c32361d200a4)">
            <path fill="#E6DCEB" d="M405.597 376.927c-16.739-9.243-34.234-33.718-45.207-51.167-20.625.002-50.658-1.768-67.384-11.004a32.506 32.506 0 0 1-14.029-14.001c-6.815-13.919-1.693-31.303 16.584-56.386 5.493-7.533 11.138-14.358 15.537-19.402-2.316-6.448-5.178-15.007-7.636-24.149-8.193-30.531-5.785-48.097 5.404-58.346 11.19-10.248 28.728-10.95 59.229-.906 9.151 3.012 17.694 6.38 24.111 9.067 5.476-3.955 99.878 48.172 99.448 54.913 5.692 3.999 13.081 9.428 20.504 15.569 24.748 20.463 32.974 35.374 30.254 50.316-2.72 14.941-15.767 26.617-45.911 35.929a300.31 300.31 0 0 1-24.505 6.402 281.407 281.407 0 0 1-8.158 23.477c-11.478 28.836-23.437 42.446-38.873 44.078a32.567 32.567 0 0 1-19.347-4.428l-.021.038z"/>
            <path fill="#FBFDFC" d="M407.044 366.138c-15.717-8.679-31.924-32.03-42.051-48.716-19.528.311-47.924-.966-63.578-9.61a29.761 29.761 0 0 1-13.109-13.312c-6.24-13.322-1.145-30.178 16.526-54.64 5.293-7.349 10.75-14.014 14.998-18.993-2.136-6.118-4.674-14.399-6.869-23.183-7.373-29.304-5.83-46.854 4.957-56.88 10.787-10.026 28.321-10.451 57.028-1.183 8.626 2.771 16.643 5.898 22.687 8.396 5.236-3.907 12.257-8.902 19.921-13.69 25.608-16.031 42.758-19.993 55.649-12.874 12.891 7.118 18.674 23.742 18.749 53.922.036 9.056-.451 17.659-.975 24.151 5.341 3.772 12.264 8.912 19.191 14.728 23.148 19.366 32.198 34.486 29.42 48.935-2.777 14.449-16.82 25.097-45.485 34.501-8.603 2.822-16.941 5.015-23.341 6.501-1.939 6.254-4.673 14.424-8.073 22.817-11.302 27.979-22.804 41.298-37.452 43.085A29.742 29.742 0 0 1 407 366.097l.044.041z"/>
            <path fill="#C66914" d="M413.207 354.975c-16.322-9.013-35.84-41.451-41.061-50.507-10.444.373-48.308 1.16-64.567-7.818a17.297 17.297 0 0 1-7.702-7.545c-3.926-8.39 1.075-22.039 15.308-41.733a297.502 297.502 0 0 1 19.174-23.666 301.843 301.843 0 0 1-9.035-29.185c-5.95-23.564-5.473-38.081 1.293-44.402 6.766-6.321 21.288-5.792 44.476 1.696a296.646 296.646 0 0 1 28.434 10.927 299.87 299.87 0 0 1 24.876-17.538c20.576-12.999 34.51-17.04 42.621-12.562 8.111 4.479 12.101 18.418 12.15 42.772a303.011 303.011 0 0 1-1.604 30.389 295.915 295.915 0 0 1 24.393 18.242c18.627 15.602 26.823 27.617 25.077 36.71-1.745 9.093-13.842 17.228-36.916 24.765a301.961 301.961 0 0 1-29.427 7.865 296.558 296.558 0 0 1-9.802 28.84c-9.137 22.509-17.986 34.033-27.165 35.186a17.287 17.287 0 0 1-10.523-2.436z"/>
            <path fill="#F09021" d="M464.963 136.376c15.754 8.699 8.07 71.562 8.07 71.562s53.222 34.326 49.808 52.045c-3.414 17.719-65.57 29.798-65.57 29.798s-16.22 61.212-34.106 63.466c-17.886 2.255-48.595-53.169-48.595-53.169s-63.237 3.484-70.884-12.804c-7.647-16.288 35.545-62.672 35.545-62.672s-22.854-59.069-9.71-71.366c13.143-12.297 70.566 14.423 70.566 14.423s49.108-39.99 64.876-31.283z"/>
            <path fill="#F5AD3B" d="M464.963 136.376c15.754 8.699 8.07 71.562 8.07 71.562s9.525 6.149 20.254 14.591c1.15.899 3.51 2.795 3.51 2.795-107.518-49.806-180.648 27.962-180.648 27.962a289.212 289.212 0 0 1 23.082-28.684s-22.854-59.069-9.71-71.366c13.143-12.297 70.566 14.423 70.566 14.423s49.108-39.99 64.876-31.283z"/>
            <path fill="#EFE9F4" d="M354.864 183.294c-13.457-5.439-22.361-14.651-19.913-20.575 2.448-5.923 15.25-6.393 28.667-.943 13.418 5.45 22.361 14.651 19.913 20.575-2.448 5.924-15.236 6.368-28.667.943z"/>
        </g>
        <g clip-path="url(#96451bca-7f5a-4d93-afd4-2fa39d5a4c33)">
            <path fill="#E6DCEB" d="M150.813 914.434c-5.221 7.186-17.507 13.847-26.18 17.905-1.182 9.507-3.721 23.25-8.938 30.431a15.102 15.102 0 0 1-7.259 5.663c-6.807 2.344-14.527-1.015-25.04-10.879a135.706 135.706 0 0 1-8.053-8.275c-3.105.698-7.215 1.526-11.57 2.134-14.544 2.026-22.504-.092-26.586-5.838-4.082-5.746-3.4-13.871 2.98-27.354 1.913-4.046 3.956-7.791 5.563-10.595-1.51-2.751 27.935-43.278 31.018-42.692 2.17-2.395 5.096-5.489 8.352-8.559 10.853-10.234 18.199-13.171 24.93-11.06 6.732 2.111 11.365 8.795 13.929 23.225.767 4.33 1.266 8.506 1.545 11.663a130.83 130.83 0 0 1 10.355 5.107c12.634 6.946 18.222 13.239 18.089 20.448a15.13 15.13 0 0 1-3.152 8.665l.017.011z"/>
            <path fill="#FBFDFC" d="M145.923 913.149c-4.902 6.747-16.596 12.878-24.869 16.589-.977 9.02-3.194 22.036-8.077 28.757a13.83 13.83 0 0 1-6.888 5.279c-6.5 2.112-13.977-1.203-24.24-10.753-3.084-2.861-5.843-5.759-7.895-8.002-2.942.633-6.905 1.328-11.08 1.836-13.932 1.718-21.933 0-25.936-5.548s-3.193-13.654 2.726-26.356c1.772-3.817 3.673-7.334 5.172-9.977-1.501-2.637-3.4-6.16-5.168-9.968-5.921-12.724-6.764-20.857-2.743-26.391 4.021-5.534 12.016-7.246 25.932-5.55 4.177.503 8.115 1.221 11.078 1.835 2.045-2.245 4.81-5.142 7.89-8.001 10.255-9.56 17.743-12.864 24.245-10.755 6.501 2.109 10.604 9.193 13.295 22.946.807 4.128 1.34 8.097 1.658 11.133 2.771 1.253 6.38 2.981 10.054 5.03 12.25 6.815 17.729 12.881 17.713 19.736a13.817 13.817 0 0 1-2.888 8.177l.021-.017z"/>
            <path fill="#C66914" d="M141.129 909.667c-5.091 7.007-21.163 14.143-25.637 16.031-.428 4.835-2.237 22.335-7.308 29.315a8.037 8.037 0 0 1-3.92 3.117c-4.093 1.329-10.097-1.76-18.36-9.451a138.228 138.228 0 0 1-9.809-10.196 140.122 140.122 0 0 1-13.972 2.491c-11.203 1.391-17.868.338-20.394-3.143-2.526-3.482-1.448-10.145 3.333-20.405a137.703 137.703 0 0 1 6.668-12.48 139.436 139.436 0 0 1-6.657-12.474c-4.812-10.23-5.876-16.885-3.346-20.367 2.53-3.482 9.184-4.522 20.414-3.147 4.677.593 9.322 1.422 13.916 2.482a137.664 137.664 0 0 1 9.809-10.198c8.26-7.691 14.269-10.78 18.36-9.454 4.092 1.326 7.148 7.369 9.299 18.438a140.112 140.112 0 0 1 1.937 14.016 137.746 137.746 0 0 1 12.732 6.173c9.852 5.503 14.657 10.243 14.662 14.541a8.035 8.035 0 0 1-1.727 4.711z"/>
            <path fill="#F09021" d="M43.331 873.269c4.914-6.763 33.452.385 33.452.385s18.876-22.565 26.848-19.975c7.972 2.59 9.975 31.935 9.975 31.935s27.286 10.989 27.299 19.363c.014 8.375-27.297 19.351-27.297 19.351s-2.022 29.35-9.968 31.941c-7.947 2.591-26.852-19.98-26.852-19.98s-28.54 7.146-33.454.382c-4.915-6.764 10.697-31.701 10.697-31.701s-15.618-24.932-10.7-31.701z"/>
            <path fill="#F5AD3B" d="M43.331 873.269c4.914-6.763 33.452.385 33.452.385s3.38-4.038 7.888-8.499c.48-.479 1.489-1.458 1.489-1.458-29.127 46.706 2.527 84.877 2.527 84.877a134.277 134.277 0 0 1-11.899-12.285s-28.54 7.146-33.454.382c-4.915-6.764 10.697-31.701 10.697-31.701s-15.618-24.932-10.7-31.701z"/>
            <path fill="#EFE9F4" d="M58.642 926.713c-3.279 5.891-8.036 9.467-10.626 7.999-2.59-1.468-2.073-7.396 1.21-13.269 3.281-5.872 8.036-9.467 10.626-7.999 2.59 1.469 2.062 7.389-1.21 13.269z"/>
        </g>
        <g clip-path="url(#e0b9d402-4497-4ac0-b580-502856cf88ba)">
            <path fill="#E6DCEB" d="M1683.74 962.16c-5.22-7.185-7.76-20.928-8.93-30.431-8.68-4.062-20.97-10.723-26.18-17.904a15.048 15.048 0 0 1-3.15-8.654c-.12-7.198 5.46-13.502 18.09-20.453 3.79-2.087 7.51-3.846 10.36-5.102.29-3.168.77-7.333 1.54-11.663 2.57-14.458 7.04-21.373 13.77-23.48 6.72-2.107 14.24 1.053 25.09 11.287 3.26 3.07 6.19 6.17 8.36 8.564 3.08-.585 32.53 39.942 31.02 42.693 1.61 2.804 3.64 6.543 5.56 10.589 6.38 13.484 6.9 21.377 2.81 27.127s-11.87 8.091-26.39 6.07c-4.36-.608-8.48-1.425-11.57-2.134a129.32 129.32 0 0 1-8.06 8.269c-10.51 9.87-18.22 13.239-25.03 10.885a15.094 15.094 0 0 1-7.27-5.674l-.02.011z"/>
            <path fill="#FBFDFC" d="M1686.48 957.907c-4.9-6.747-7.12-19.764-8.09-28.778-8.28-3.717-19.98-9.848-24.86-16.568a13.799 13.799 0 0 1-2.89-8.183c0-6.833 5.46-12.921 17.72-19.73 3.67-2.049 7.28-3.778 10.05-5.036.3-2.994.87-6.978 1.67-11.105 2.68-13.781 6.78-20.86 13.3-22.953 6.51-2.092 13.97 1.183 24.22 10.738 3.08 2.865 5.84 5.76 7.89 8.001 2.97-.612 6.91-1.33 11.08-1.835 13.93-1.699 21.92.013 25.94 5.548 4.02 5.534 3.18 13.667-2.73 26.377-1.77 3.817-3.67 7.34-5.17 9.969 1.5 2.639 3.4 6.164 5.17 9.976 5.93 12.707 6.75 20.851 2.74 26.382-4.02 5.531-12.02 7.244-25.93 5.553-4.18-.507-8.12-1.227-11.1-1.863-2.05 2.249-4.81 5.147-7.89 8.008-10.27 9.544-17.73 12.881-24.25 10.747a13.807 13.807 0 0 1-6.88-5.274l.01.026z"/>
            <path fill="#C66914" d="M1691.27 954.425c-5.09-7.007-6.91-24.498-7.32-29.337-4.47-1.9-20.55-9.029-25.63-16.009a8.027 8.027 0 0 1-1.75-4.691c0-4.303 4.79-9.059 14.66-14.541a139.78 139.78 0 0 1 12.73-6.178c.41-4.716 1.06-9.408 1.95-14.058 2.14-11.085 5.2-17.098 9.29-18.424 4.09-1.326 10.1 1.757 18.38 9.475 3.44 3.229 6.71 6.633 9.81 10.199 4.59-1.061 9.24-1.888 13.92-2.478 11.21-1.414 17.87-.369 20.4 3.113 2.53 3.481 1.46 10.131-3.31 20.387a140.225 140.225 0 0 1-6.67 12.467 134.68 134.68 0 0 1 6.67 12.481c4.76 10.232 5.85 16.901 3.32 20.383-2.53 3.481-9.22 4.52-20.41 3.146-4.68-.595-9.33-1.426-13.93-2.489a137.567 137.567 0 0 1-9.8 10.201c-8.28 7.669-14.27 10.774-18.36 9.451-1.62-.585-3-1.67-3.95-3.098z"/>
            <path fill="#F09021" d="M1756.11 872.66c4.91 6.763-10.71 31.695-10.71 31.695s15.63 24.925 10.7 31.707c-4.92 6.781-33.45-.382-33.45-.382s-18.88 22.555-26.85 19.98c-7.97-2.575-9.97-31.941-9.97-31.941s-27.29-10.993-27.3-19.351c0-8.359 27.3-19.363 27.3-19.363s2.03-29.351 9.98-31.935c7.95-2.584 26.84 19.969 26.84 19.969s28.54-7.148 33.46-.379z"/>
            <path fill="#F5AD3B" d="M1756.11 872.66c4.91 6.763-10.71 31.695-10.71 31.695s2.8 4.463 5.65 10.128c.31.605.93 1.867.93 1.867-35.42-42.134-81.51-23.825-81.51-23.825 4.96-2.83 10.09-5.342 15.36-7.52 0 0 2.03-29.351 9.98-31.935 7.95-2.584 26.84 19.969 26.84 19.969s28.54-7.148 33.46-.379z"/>
            <path fill="#EFE9F4" d="M1700.55 870.707c-4.59-4.939-6.52-10.568-4.33-12.578 2.2-2.01 7.68.315 12.25 5.251s6.52 10.569 4.32 12.578c-2.19 2.01-7.66-.322-12.24-5.251z"/>
        </g>
        <defs fill="none">
            <clipPath id="e59f9ba2-b2ac-4334-8b26-761fbdb1c918">
                <path transform="translate(320 130)" fill="#ffffff" d="M1159 0v832H0V0h1159z"/>
            </clipPath>
            <clipPath id="2b4baa8f-eba5-4bc2-8899-d2cdb3310073">
                <path transform="translate(220 678)" fill="#ffffff" d="M1358.58 0v430.53H0V0h1358.58z"/>
            </clipPath>
            <clipPath id="c131d19e-2033-4d3f-98b7-44de66b977e8">
                <path transform="rotate(-30 976.31 206.748)" fill="#ffffff" d="M187.32 0v177.89H0V0h187.32z"/>
            </clipPath>
            <clipPath id="23b36c76-bba0-47f9-a1cc-e9db55207ca4">
                <path transform="rotate(30 16.858 3214.223)" fill="#ffffff" d="M187.32 0v177.89H0V0h187.32z"/>
            </clipPath>
            <clipPath id="5bdf3b7b-1d0a-4e41-be95-b66acf15b3fa">
                <path transform="rotate(10 452.106 7210.68)" fill="#ffffff" d="M345.567 0v347.189H0V0h345.567z"/>
            </clipPath>
            <clipPath id="86a98b39-405e-4c59-994b-c32361d200a4">
                <path transform="rotate(10 125.199 1442.405)" fill="#ffffff" d="M397.814 0v394.57H0V0h397.814z"/>
            </clipPath>
            <clipPath id="96451bca-7f5a-4d93-afd4-2fa39d5a4c33">
                <path transform="rotate(-54 902.247 459.718)" fill="#ffffff" d="M125.381 0v119.069H0V0h125.381z"/>
            </clipPath>
            <clipPath id="e0b9d402-4497-4ac0-b580-502856cf88ba">
                <path transform="rotate(53 42.72 2137.495)" fill="#ffffff" d="M125.381 0v119.069H0V0h125.381z"/>
            </clipPath>
        </defs>
    </g>
</svg>
