<?xml version="1.0" encoding="UTF-8"?>
<svg data-bbox="-0.002 -0.001 678.768 385.901" viewBox="0 0 678.76 385.89" xmlns="http://www.w3.org/2000/svg" data-type="color">
    <g>
        <path d="M605.55 2.15c-4.34 7.36-9.45 14.4-13.38 21.93-1.13 3.7 3.21 7.09 6.48 4.98 3.74-3.47 5.66-8.68 8.65-12.82 2.01-3.78 5.21-7.18 6.5-11.24.91-4.65-6.01-7-8.24-2.85Z" fill="#3c87c8" data-color="1"/>
        <path d="M644.79 27.98c-5.69 4.55-11.55 8.91-17.14 13.56-2.65 2.34-1.47 7.3 2.26 7.51 1.66.37 3.22-.69 4.46-1.69 2.83-2.25 5.65-4.51 8.48-6.76 2.7-2.15 5.4-4.31 8.1-6.46.81-.81 1.28-1.94 1.28-3.08.13-3.75-4.87-5.82-7.44-3.08Z" fill="#3c87c8" data-color="1"/>
        <path d="M674.42 67.79c-10.72 2.86-16.33 3.65-26.03 4.65-4.45 1.59-2.98 8.72 1.72 8.55 8.94-.55 18.18-1.69 26.51-5.08 3.81-2.24 2.22-8.16-2.2-8.12Z" fill="#3c87c8" data-color="1"/>
        <path d="M278.78 304.77c-2.46-4.9-5.15-9.68-7.7-14.53-3.74-7.02-7.53-14.01-11.34-20.99-2.31-4-5.11-8.23-9.68-9.79-6.63-2.37-13.71 1.83-16.93 7.66-4.46 9.35-4.98 20.09-7.89 29.98-4.9 20.5-10.45 40.83-16.62 60.98-3.8 13.35-6.45 19.66-11.98 17.21-3.84-1.65-5.71-9.33-8.87-22.23-4.94-18.04-10.74-35.84-17.5-53.29-3.64-9.13-4.23-10.27-6.97-16.79-1.64-3.92-3.58-7.96-6.94-10.69-6.33-5.53-15.69-2.12-19.85 4.41-13.64 24.12-17.81 52.55-22 79.62-1.25 8.68-1.38 10.29-2.75 20.1-.23.78-.1 1.63.31 2.33 1.26 2.26 4.91 1.81 5.53-.72 4.49-29.93 16.72-98.72 31.05-101.07 4.55.7 5.96 6.05 9.39 14.41 5.33 13.9 10.41 27.91 14.8 42.14 3.26 10.5 6.18 21.1 8.87 31.76 1.6 9.42 8.02 20.94 19.15 18.91 12.71-3.34 13.31-18.46 17.58-29.62a917.038 917.038 0 0 0 16.03-60.82c3.65-16.97 5.37-28.26 13.08-26.35.28.15.55.31.82.48.64.55 1.24 1.16 1.76 1.83.5.31 6.02 11.6 8.28 15.62 3.95 7.4 7.89 14.8 11.83 22.19 1.51 2.44 2.82 6.4 6.4 5.7 4.46-.71 4.37-5.35 2.16-8.46Z" fill="#3c87c8" data-color="1"/>
        <path d="M459.45 213.93c-4.65-6.03-7.5-14.58-14.89-17.76-6.79-2.58-14.35 2.4-16.68 8.86-2.8 7.35-1.04 15.4-1.11 23.06.48 17.09.16 34.19-.93 51.25-1.17 18.1-3.6 40.55-6.04 52.15-.27.64-.63 1.24-1.03 1.81l-.04.04c-.07.06-.1.09-.15.13-.13.08-.27.14-.4.21-.14.04-.27.07-.41.1h-.07c-.06 0-.08 0-.13-.01-.11-.03-.23-.05-.45-.09-.11-.04-.13-.05-.21-.08-5.8-2.98-10.88-15.09-17.41-24.68-12.42-20.17-24.84-40.34-37.27-60.52-5.34-10.15-16.66-22.82-27.94-12.23-5.61 6.05-5.75 14.76-6.79 22.5-4.49 32.57-7.74 71.35-12.76 99.6-1.12 2.58-3.46 3.41-4.25 2.39-5.87-7.99-15.41-26.29-23.62-37.54-3.23-2.86-8.29 1.62-5.96 5.23 8.06 12.91 14.27 27.34 23.89 39.12 6.93 6.17 17.17.13 18.93-8 3.74-22.96 5.71-46.23 8.82-69.3 2.56-16.21 2.71-32.76 6.58-45.54 2.16-4.58 6.56-6.36 13.14 4.56 12.49 20.34 25.03 40.65 37.54 60.98 5.81 8.87 10.59 18.49 17.16 26.82 4.51 5.55 13.35 8.25 18.54 2.1 5.52-7.64 4.35-18.07 6.18-26.98 2.88-23.27 4.28-46.71 4.22-70.16.51-17.82-3.7-36.24 4.44-37.55.2-.01.4-.02.6-.02.22.05.45.09.67.16.23.12.46.26.68.4h.02c2.93 2.49 6.06 8.92 10.01 14.36 3.1 4.59 5.91 9.4 9.56 13.58-.53-.62.44.76 1.01 1.11 1.18 1.06 3.08 1.1 4.42.31 6.07-3.85-4.72-14.29-7.86-20.41Z" fill="#3c87c8" data-color="1"/>
        <path d="M582.81 242.73c-.31-.72-2.07-4.14-1.08-1.98-1.9-4.57-4.45-8.84-7.02-13.06-13.36-21.76-28.24-42.58-44.41-62.34-5.22-7.37-15.72-10.78-21.33-1.89-3.09 4.93-2.3 10.97-2.07 16.5 1.11 26.08 2.37 52.16 3.4 78.24.33 12.22 1.85 23.95-1.38 32.59-9.7-13.21-18.91-26.77-27.73-40.58-2.3-2.86-3.66-8.25-6.98-9.73-2.93-.92-5.67 2.62-4.02 5.23 10.76 18.52 25.32 41.62 37.36 55.09 4.09 2.17 6.32-3.18 7.75-6.12 4.02-6.94 3.9-22.85 3.17-33.78-.86-20.95-1.5-41.91-2.25-62.87-.38-16.44-2.39-31.43 1.85-31.28.29.06.57.13.85.23.7.35 1.36.77 1.98 1.24.89.5 9.11 10.73 12.25 14.91 8.2 10.54 23.43 31.9 32.6 47.03 3.05 4.86 5.92 9.85 9.43 14.4-1.37-1.82.72 1.21 1.18 1.94 1.15 2.09 4.21 2.46 5.87.76 1.18-1.15 1.43-3.11.58-4.53Z" fill="#3c87c8" data-color="1"/>
        <path d="M144.71 171.21c-2.24-.13-4.34 1.39-6.32 2.29-7.19 4.09-13.38 9.72-19.5 15.23-4.06 3.82-8.47 7.87-9.97 13.44-.58 2.79-.98 6.63 1.88 8.28 3.05 1.92 7.03-.9 6.66-4.28-.01-.08-.03-.45-.01-1.28.4-3.85 8.47-10.7 15.53-16.71 5.72-4.97 7.33-4.9 14.07-12.22 1.16-1.83-.14-4.6-2.34-4.75Z" fill="#3c87c8" data-color="1"/>
        <path d="M165.78 160.43c-1.6-1.67-4.16-1.34-6.18-.74-1.79.47-3.84.85-4.78 2.64-2.07 3.28 1.34 7.71 5.04 6.56 4.2-.73 9.75-3.8 5.92-8.46Z" fill="#3c87c8" data-color="1"/>
        <path d="M509.3 80.44c-1.26-1.88-3.38-2.85-5.38-3.75-9.96-4.43-21.3-5.48-31.97-3.35-6.66.1-6.65 9.1.04 8.17 7.42-1.59 14.72-1.49 22.95.73 4.77 1.33 5.78 2.09 8.79 3.2 1.52.55 3.44.85 4.76-.29 1.52-1.03 1.7-3.19.81-4.71Z" fill="#3c87c8" data-color="1"/>
        <path d="M88.01 230.5c-4.05 2.43-7.26 6.11-9.46 10.26-.38.64-.48 1.43-.28 2.15.56 2.32 3.96 2.76 5.1.67 2.03-3.94 4.87-6.64 8.02-9.12.73-.49 1.26-1.28 1.24-2.19-.02-2.44-2.9-3.17-4.61-1.76Z" fill="#3c87c8" data-color="1"/>
        <path d="M100.12 236.28c-1.06-.54-2.24.08-2.96.9-4.31 4.5-8.23 9.37-12.28 14.11-1.35 2.04-3.97 3.61-4.34 6.11-.08 2.33 3.03 3.62 4.62 1.91 4.89-5.89 9.87-11.72 14.59-17.75 1.31-1.51 2.95-4.13.36-5.3Z" fill="#3c87c8" data-color="1"/>
        <path d="M117.59 236.23c-1.14-.58-2.3.18-3.09.99-2.99 2.86-5.71 6-8.57 9-4.72 5.04-9.36 10.17-14.04 15.25-.52.52-.82 1.24-.82 1.98-.08 2.4 3.13 3.74 4.78 1.98 7.61-8.65 15.68-16.94 22.83-25.97.69-1.12.16-2.79-1.09-3.23Z" fill="#3c87c8" data-color="1"/>
        <path d="M138.85 238.12c-.35-1.02-1.6-1.73-2.66-1.51-3.28 1.27-5.52 4.59-8.18 6.85-6.32 6.4-12.53 12.91-18.78 19.38-2.92 2.93 1.53 7.41 4.49 4.49 6.51-6.81 13.14-13.51 19.55-20.42 1.64-1.84 3.35-3.65 4.82-5.63.72-.86 1.32-2.05.76-3.15Z" fill="#3c87c8" data-color="1"/>
        <path d="M160.6 342.83c-3.69-15.51-26.02-12.76-25.81 3.13.09 2.53 1.08 4.95 2.62 6.92 2.05 3.13 5.53 5.42 10.29 5.56 8 .35 14.58-7.88 12.9-15.61Z" fill="#3c87c8" data-color="1"/>
        <path d="M266.11 336.99c-3.69-15.51-26.02-12.76-25.81 3.13.09 2.53 1.08 4.95 2.62 6.92 2.05 3.13 5.53 5.42 10.29 5.56 8 .35 14.58-7.88 12.9-15.61Z" fill="#3c87c8" data-color="1"/>
        <path d="M368.42 306.22c-3.69-15.51-26.02-12.76-25.81 3.13.09 2.53 1.08 4.95 2.62 6.92 2.05 3.13 5.53 5.42 10.29 5.56 8 .35 14.58-7.88 12.9-15.61Z" fill="#3c87c8" data-color="1"/>
        <path d="M470.86 272.6c-3.69-15.51-26.02-12.76-25.81 3.13.09 2.53 1.08 4.95 2.62 6.92 2.05 3.13 5.53 5.42 10.29 5.56 8 .35 14.58-7.88 12.9-15.61Z" fill="#3c87c8" data-color="1"/>
        <path d="M555.1 230.36c-3.69-15.51-26.02-12.76-25.81 3.13.09 2.53 1.08 4.95 2.62 6.92 2.05 3.13 5.53 5.42 10.29 5.56 8 .35 14.58-7.88 12.9-15.61Z" fill="#3c87c8" data-color="1"/>
        <path d="M283.8 157.62c-2.43 0-4.9-.36-7.32-1.08-6.5-1.94-11.69-6.13-14.58-11.67-70.55-5.52-197.79-16.64-246.63-23.63C4.1 119.64-.43 113.94.03 109c.43-4.62 5.27-9.42 17.44-8.82 35.51 1.59 100.93 7.78 158.65 13.24 32.68 3.09 63.61 6.02 86.81 7.91 3.32-4.95 8.84-8.59 15.23-9.94 7.38-1.55 14.93.16 20.18 4.58s8.21 11.57 7.93 19.11c-.28 7.54-3.77 14.45-9.34 18.47-3.71 2.68-8.34 4.08-13.14 4.08ZM15.6 108.01c-5.51 0-7.55 1.46-7.77 1.86.2.48 2.52 2.71 8.55 3.57 49.2 7.05 178.5 18.32 248.44 23.76a3.93 3.93 0 0 1 3.37 2.52c1.64 4.32 5.58 7.79 10.53 9.27 4.9 1.46 9.98.77 13.6-1.84 3.61-2.61 5.89-7.24 6.08-12.38.19-5.14-1.73-9.93-5.14-12.8-3.41-2.87-8.45-3.96-13.49-2.89-5.03 1.06-9.21 4.09-11.17 8.09-.71 1.45-2.2 2.29-3.85 2.19-23.51-1.89-55.51-4.92-89.39-8.12-57.63-5.45-122.94-11.63-158.26-13.21-.53-.02-1.04-.03-1.52-.03Z" fill="#3c87c8" data-color="1"/>
        <path d="M132.7 243.58c-5.74 0-11.44-.1-17.1-.3-8.21-.29-16.89-.85-24.86-4.18-9.47-3.96-16.12-11.4-17.79-19.9-2.1-10.68 3.27-21.74 16.39-33.8 25.65-23.55 56.57-42.13 89.4-53.71 2.06-.71 4.3.36 5.02 2.4.72 2.05-.35 4.3-2.4 5.02-31.84 11.23-61.82 29.24-86.69 52.08-10.94 10.05-15.52 18.72-14 26.49 1.36 6.96 7.66 11.87 13.1 14.15 6.76 2.82 14.31 3.3 22.1 3.58 72.86 2.48 151.91-11.53 248.62-44.3 52.06-17.64 111.6-41.19 158.44-81.99 8.75-7.62 18.38-18.92 14.62-29.49-2.53-7.13-10.61-11.97-24.71-14.79-45.44-9.11-97-6.83-153.25 6.77-55.14 13.33-100.28 28.95-150.96 52.25-1.98.91-4.32.04-5.22-1.93a3.928 3.928 0 0 1 1.93-5.22c51.16-23.52 96.74-39.3 152.39-52.75 57.4-13.87 110.1-16.17 156.65-6.84 6.26 1.26 25.33 5.08 30.58 19.87 4.15 11.68-1.69 24.83-16.87 38.06-47.88 41.71-108.3 65.62-161.09 83.52-90.16 30.55-165.19 45.01-234.32 45.01Z" fill="#3c87c8" data-color="1"/>
        <path d="M149.71 273.97c-23.21 0-46.55-2.54-69.35-8.93a3.92 3.92 0 0 1-2.73-2.76c-5.02-18.42-6.59-35.85-4.69-51.78.26-2.16 2.21-3.7 4.37-3.44 2.16.26 3.7 2.22 3.44 4.37-1.71 14.31-.4 29.98 3.9 46.62 59.31 15.96 122.81 5.31 177.23-7.27 124.12-28.7 218.61-69.14 288.79-123.6-1.25-7.98-3.75-15.71-6.39-23.85-1.74-5.38-3.55-10.95-5.1-16.93-.55-2.1.71-4.25 2.82-4.8 2.11-.53 4.25.71 4.8 2.82 1.5 5.75 3.26 11.21 4.97 16.49 2.99 9.25 5.82 17.98 7.02 27.49.17 1.37-.39 2.74-1.48 3.59-71.28 55.89-167.34 97.26-293.66 126.47-35.31 8.16-74.43 15.52-113.94 15.52Z" fill="#3c87c8" data-color="1"/>
        <path d="M173.42 385.89c-20.07 0-40.15-.82-60.24-2.48a3.958 3.958 0 0 1-3.47-2.86c-5.51-19.65-9.85-39.43-14.05-58.56-4.26-19.39-8.66-39.44-14.32-59.62a3.93 3.93 0 0 1 2.73-4.85c2.08-.58 4.27.63 4.85 2.73 5.72 20.4 10.14 40.56 14.42 60.05 3.99 18.16 8.1 36.91 13.2 55.48 163.81 12.91 328.47-30.44 464.31-122.26-6.41-34.6-16.83-72.77-32.7-119.85a3.92 3.92 0 0 1 2.47-4.98c2.06-.7 4.29.41 4.98 2.47 16.39 48.59 27.01 87.83 33.45 123.48.28 1.53-.37 3.08-1.66 3.95-121.86 83.01-266.92 127.31-414 127.31Z" fill="#3c87c8" data-color="1"/>
    </g>
</svg>
