<?xml version="1.0" encoding="UTF-8"?>
<svg data-bbox="0 -0.001 637.545 614.101" viewBox="0 0 637.54 614.09" xmlns="http://www.w3.org/2000/svg" data-type="color">
    <g>
        <path d="M111.17 54.65c-1.54-.82-3.39-.28-5.06-.34-34.01 1.21-72.59 21.01-91.93 52.81a104.52 104.52 0 0 0-6.51 11.71c-.47.8-.59 1.77-.35 2.66.7 2.85 4.88 3.42 6.3.82 17.01-34.42 52.8-58.61 89.56-61.41 2.8-.58 6.27.6 8.63-1.22 1.47-1.4 1.12-4.02-.65-5.02Z" fill="#3c87c8" data-color="1"/>
        <path d="M73.96 91.32c-13.13 6.21-24.76 15.47-34.63 26.07-7.26 8.02-13.53 16.95-18.4 26.61-.94 1.69-2.07 3.89-.54 5.58 1.36 2.01 4.7 1.75 5.85-.36 11.61-23.13 27.67-39.52 49.78-52.14 4.34-1.55 2.25-7.78-2.05-5.76Z" fill="#3c87c8" data-color="1"/>
        <path d="M129.91 77.62c-.55-2.17-2.93-2.5-4.83-2.25-4.61.23-9.2.81-13.73 1.63-7.88 1.46-15.53 3.99-22.79 7.37-1.02.59-1.71 1.86-1.45 3.04.14 2.09 2.78 3.33 4.53 2.23 10.12-5.02 24.15-7.63 36.48-8.34 1.46-.5 2.18-2.22 1.8-3.67Z" fill="#3c87c8" data-color="1"/>
        <path d="M137.6 100c-38.17 2.28-82.61 30.37-99.02 69.49-.66 1.82-2.25 3.79-1.1 5.72 1.14 2.01 4.25 2.04 5.38 0 15.72-36.82 52.63-63.23 88.89-67.28 2.75-.64 6.16.23 8.44-1.65 2.3-2.15.57-6.39-2.6-6.28Z" fill="#3c87c8" data-color="1"/>
        <path d="M565 43.27c-7.15-9.3-15.66-17.52-25.11-24.47-2.42-1.46-5.29-5.14-8.22-2.88-1.92 1.31-1.67 4.49.34 5.58 28.38 19.29 49.54 51.08 54.51 87.7 0-1.68-.06 3.82 1.13 4.54 1.67 1.78 4.96.45 4.88-2.02-2.46-24.81-12.16-48.83-27.53-68.45Z" fill="#3c87c8" data-color="1"/>
        <path d="M519.17 31.06c-1.96-1.42-4.4-4.37-6.9-2.32-1.82 1.23-1.59 4.26.33 5.3 5.56 3.75 14.85 13.43 21.08 20.59 1.49 2.2 5.16 1.5 5.18-1.32-3.53-8.84-12.6-16.06-19.69-22.26Z" fill="#3c87c8" data-color="1"/>
        <path d="M574.57 120.74c-2.42-12.09-6.61-23.8-12.18-34.79-3.37-6.62-7.29-12.97-11.72-18.94-1.42-1.66-2.78-4.96-5.46-3.77-1.79.63-2.26 3.2-.89 4.49 11.67 14.42 20.71 35.33 25.29 55.48 1.71 2.48 5.87.4 4.97-2.47Z" fill="#3c87c8" data-color="1"/>
        <path d="M558.73 128.21c-7.69-18.74-18.77-35.99-32.09-51.21-8.3-9.46-17.59-18.04-27.65-25.6-2.17-1.33-4.68-4.74-7.35-2.68-1.72 1.17-1.5 4.02.31 5.01 25.34 17.27 49.74 48.22 60.96 76.09 1.04 3.77 6.85 2.22 5.82-1.6Z" fill="#3c87c8" data-color="1"/>
        <path d="M105.41 543.27c-.66-1.45-3.23-8.03-4.38-12.54-3.32-11.24-3.11-18.71-3.68-30.9-1.32-3.71-7.28-2.49-7.13 1.44-.61 13 1.27 26.15 5.64 38.41 1.91 3.74 3.45 13.85 9.35 11.39 3.51-3.03.69-5.72.2-7.81Z" fill="#3c87c8" data-color="1"/>
        <path d="M137.32 592.74a90.008 90.008 0 0 1-11.02-10.72c-5.01-5.31-9.18-12.92-13.76-20.79-2.43-2.1-6.15 1.18-4.43 3.89 5.38 11.68 13.16 22.26 22.84 30.72 2.17 1.57 4.48 5.03 7.47 3.41 2.89-1.84 1.4-5.12-1.09-6.51Z" fill="#3c87c8" data-color="1"/>
        <path d="M154.48 581.2c-19.26-20.22-32.72-50.25-35.03-77.52-.46-4.82-.65-9.67-.58-14.52 0-.88-.35-1.72-.97-2.34-1.94-2.06-5.74-.52-5.65 2.34-.61 28.21 7.67 56.44 22.97 80.12 4.21 6.45 8.9 12.62 14.22 18.2.92 1.02 2.08 1.93 3.52 1.88 4.8-.35 4.9-5.63 1.52-8.15Z" fill="#3c87c8" data-color="1"/>
        <path d="M178.11 562.48c-19.52-17.44-31.08-36.08-36.98-61.2-1.53-7.32-1.9-10-2.37-17.3 0-.92-.37-1.81-1.02-2.45-2.03-2.17-6.02-.54-5.92 2.45 1.09 26 11.16 51.27 27.52 71.43 4.36 5.44 9.33 10.45 14.88 14.68 1.12.99 2.63 1.55 4.11 1.11 4.7-1.83 3.29-6.4-.22-8.73Z" fill="#3c87c8" data-color="1"/>
        <path d="M80.81 183.61c-6.37-3.7-10.57-8.71-14.85-14.28-2.83-2.45-7.17 1.38-5.17 4.54 4.79 7.16 11.27 13.34 19 17.22 2 .76 4.67 2.17 6.5.41 2.96-4.21-2.41-5.57-5.49-7.89Z" fill="#3c87c8" data-color="1"/>
        <path d="M105.71 199.51c-1.26-1.33-2.35-3.07-4.01-3.89-3.19-1.56-6.22 2.99-3.63 5.39 2.31 1.84 5.36 6.59 8.53 3.83 1.72-1.69.54-3.92-.89-5.33Z" fill="#3c87c8" data-color="1"/>
        <path d="M477.75 85.85c-4.05 2.43-19.31 20.57-7.56 20.36 2.3-.66 2.76-3.32 4.05-5.04 1.69-3.06 5.87-7.58 8.16-9.29 4.8-3.06-.47-9.91-4.65-6.03Z" fill="#3c87c8" data-color="1"/>
        <path d="M87.83 614.09c-11.63 0-21.73-2.92-29.7-8.65-9.89-7.12-16.34-18.55-18.15-32.19-3.1-23.3 10.81-49.42 37.2-69.89 33.31-25.84 73.75-31.56 109.42-36.61 19.91-2.82 38.72-5.48 52.82-11.44 24.1-10.2 52.68-22.75 81.9-38.56 6.65-3.6 12.84-7.12 18.53-10.35 17.67-10.05 29.31-16.59 37.48-16.34 6.5.28 13.14 3.54 17.34 8.51 3.4 4.03 4.95 8.88 4.35 13.65-1.38 10.97-12.15 16.86-21.37 20.76-4.76 2.01-9.53 4.01-14.3 6.01-39.73 16.63-80.82 33.83-114.93 60.42-13.69 10.67-25.98 25.33-37.86 39.49-9.62 11.47-19.56 23.33-30.24 33.07-22.07 20.12-42.64 33.93-76.97 40.56-5.41 1.05-10.6 1.57-15.51 1.57ZM376.67 397.9c-5.99 0-18.49 7.11-32.93 15.33-5.73 3.26-11.97 6.81-18.68 10.43-29.51 15.96-58.31 28.61-82.58 38.88-15.05 6.36-34.35 9.1-54.79 11.99-34.71 4.91-74.04 10.48-105.7 35.04-9.05 7.02-38.26 32.27-34.22 62.64 1.08 8.11 4.55 19.35 14.95 26.84 9.54 6.86 23.06 8.84 39.12 5.75 28.47-5.51 48.3-15.98 73.16-38.66 10.29-9.38 20.06-21.04 29.51-32.31 12.14-14.48 24.7-29.46 39.05-40.65 34.94-27.23 76.52-44.64 116.73-61.47 4.77-1.99 9.53-3.99 14.28-6 7.28-3.08 15.76-7.51 16.63-14.49.41-3.29-1.16-5.94-2.55-7.59-2.78-3.29-7.36-5.54-11.67-5.73h-.31Zm-53.48 22.3Z" fill="#3c87c8" data-color="1"/>
        <path d="M237.98 400.58c-3.19 0-6.39-.7-9.17-1.99-7.04-3.27-11.84-9.27-16.54-15.64-19.34-26.24-30.75-48.31-45.19-76.27-5.77-11.17-12.31-23.82-20-37.95-8.84-16.25-34.86-41-52.52-49.97-43.96-22.34-69.5-49.31-85.4-90.19C.57 106.49-2 86.45 1.54 69.01c4.5-22.2 19.69-40.12 38.69-45.63 48.64-14.14 88.11 50.36 92.45 57.76 25.58 43.63 29.37 66.73 34.16 95.97 1.59 9.71 3.24 19.75 5.81 31.65 8.05 37.26 28.03 71.12 47.35 103.87 10.74 18.21 21.85 37.05 30.94 56.44 3.37 7.19 6.61 16.44 1.72 24.16-3.24 5.1-8.95 7.35-14.68 7.35ZM53.87 29.31c-3.79 0-7.61.51-11.45 1.63C26.2 35.65 13.18 51.21 9.25 70.58c-3.23 15.93-.8 34.48 7.24 55.14 15.34 39.44 38.99 64.36 81.63 86.03 19.11 9.71 46.26 35.58 55.87 53.23 7.74 14.21 14.3 26.9 20.08 38.11 14.28 27.64 25.57 49.48 44.53 75.21 4.23 5.73 8.16 10.68 13.52 13.18 4.6 2.14 11.28 1.66 13.88-2.44 2.85-4.49.32-11.23-2.19-16.6-8.93-19.06-19.95-37.73-30.59-55.78-19.63-33.29-39.94-67.71-48.26-106.21-2.61-12.09-4.35-22.69-5.88-32.04-4.85-29.55-8.34-50.9-33.18-93.27-12.99-22.15-41.35-55.82-72.02-55.82Z" fill="#3c87c8" data-color="1"/>
        <path d="M285.59 281.67c-4.73 0-8.7-1.56-11.7-4.67-5.16-5.35-5.05-13.57-2.65-19.33 2.29-5.5 6.37-9.73 10.7-13.93a555.573 555.573 0 0 1 86.29-68.43l2.13 3.31-2.13-3.31c35.46-22.79 58.85-53.77 81.46-83.73 18.56-24.59 36.09-47.81 59.33-65.77 16.66-12.88 33.46-21.04 49.92-24.26 20.07-3.93 40.08-.31 54.92 9.92 16.85 11.61 26.14 31.92 23.12 50.52-2.1 12.92-9.8 25.54-23.55 38.6-15.9 15.11-35.1 27.31-55.53 35.29-13.07 5.1-26.79 8.59-40.06 11.96-11.29 2.87-22.96 5.83-34.02 9.75-38.96 13.83-72.46 40.19-104.84 65.67-24.04 18.92-48.89 38.47-76.16 53.21-6.41 3.46-12.24 5.2-17.22 5.2ZM574.78 7.87c-4.71 0-9.51.47-14.33 1.41-15.25 2.98-30.94 10.64-46.62 22.76-22.4 17.31-39.63 40.13-57.86 64.29-23.03 30.51-46.85 62.06-83.49 85.61a547.977 547.977 0 0 0-85.06 67.46c-3.86 3.75-7.19 7.18-8.91 11.3-1.36 3.28-1.62 8.07 1.05 10.85 4.88 5.06 15.28.3 19.51-1.99 26.67-14.41 51.26-33.76 75.03-52.46 32.89-25.88 66.9-52.64 107.08-66.91 11.41-4.05 23.26-7.06 34.72-9.96 13.04-3.31 26.52-6.73 39.13-11.66 19.49-7.61 37.81-19.26 52.98-33.66 12.45-11.83 19.38-23 21.19-34.16 2.55-15.66-5.41-32.85-19.81-42.77-9.6-6.61-21.74-10.08-34.62-10.08Z" fill="#3c87c8" data-color="1"/>
    </g>
</svg>
