<?xml version="1.0" encoding="UTF-8"?>
<svg data-bbox="0.002 0.001 912.585 630.569" viewBox="0 0 912.59 630.57" xmlns="http://www.w3.org/2000/svg" data-type="color">
    <g>
        <path d="M138.7 564.52c40.46-51.39 68.19-112.72 78.06-178.21 3.6.59 7.19 1.18 10.79 1.76-1.05 14.42-.14 28.99 1.91 45.56a731.444 731.444 0 0 1-59.35 140.32c-10.24-1.98-20.48-3.96-31.4-9.43Z" fill="#3c87c8" data-color="1"/>
        <path d="M525.82 618.72c-43.3-61.26-68.03-135.46-70.16-210.44-3.64-1.98-6.11-2.12-8.59-2.27-7.22 76.74-34.36 151.52-81.7 217.64 50.47 4.6 101.39 4.33 160.45-4.93Z" fill="#3c87c8" data-color="1"/>
        <path d="M757.34 561.14c-32.9-56.11-52.28-120.08-56.05-185.01-3.05-3.55-4.82-5.84-6.6-8.12-.35 8.61-5.93 16.79-13.81 20.27.48 24.08-4.22 44.81-10.99 68.75 12.88 36.29 28.66 71.56 48.74 105.12 11.94 1.71 24.17 1.36 38.7-1Z" fill="#3c87c8" data-color="1"/>
        <path d="M230.86 54.44a303.474 303.474 0 0 0-63.87 18.99c21.62 2.5 43.11 6.11 64.36 10.8 1.17-10.43 2.33-20.85-.49-29.79Z" fill="#3c87c8" data-color="1"/>
        <path d="M451.34 4.67c-22.71 12.51-51.04 14.05-71.22 30.32 23.16 6.14 47.23 8.85 71.17 8.02.01-12.52.03-25.05.05-38.34Z" fill="#3c87c8" data-color="1"/>
        <path d="M697.52 50.1c-22.8 7.13-45.84 14.36-66.31 26.67l65.39 2.22c.46-8.84.91-17.67.92-28.89Z" fill="#3c87c8" data-color="1"/>
        <path d="M156.95 242.95c-2.23 1.05-3.31 3.77-4.99 5.53-1.57 2.13-7.12 9.48-6.91 9.16-9.53 12.36-19.58 24.3-30.26 35.68-7.61 8.54-16.39 16.14-24.08 24.48-1.53 3.14 2.95 6.18 5.34 3.6 18.69-17.57 35.89-36.7 51.53-57.01 4.31-5.69 8.67-11.35 12.45-17.4 1.26-2.02-.81-4.73-3.1-4.04Z" fill="#3c87c8" data-color="1"/>
        <path d="M287.76 251.01c-16.41-25.38-33.07-56.92-43.64-82.39-3.22-7.31-5.84-14.94-8.95-22.26-.51-.74-1.27-1.01-2.03-.99-.08-.28-.19-.53-.34-.75-.62-2.43-4.62-3.21-5.51-.09-.18.58-.36 1.17-.55 1.75-.21-.07-.41-.14-.63-.17.3-.58.63-1.14.92-1.72.38-.64.47-1.42.28-2.13-.44-1.71-2.55-2.56-4.07-1.65-1.14.71-1.55 2.1-2.22 3.2-12.94 23.9-27.46 46.95-43.35 68.99-3.55 5.03-7.66 10.02-10.63 14.24-1.21 2.48 2.34 4.89 4.23 2.85 16.45-20.96 31.72-42.89 45.02-65.99.25-.44.49-.87.74-1.31-24.21 59.61-53.97 119.44-89.64 174.96-1.73 2.85 2.83 5.65 4.54 2.65 30.29-48.56 57.55-99.07 80.58-151.49 1.2-2.93 2.45-5.85 3.72-8.78-17.65 56.6-35.44 113.22-53 169.73.22 2.76 4.52 3.1 5.17.35 16.32-53.23 33.35-106.24 50.24-159.3 2.23-6.97 4.42-13.95 6.63-20.92-7.93 63.38-16.64 129.55-23.76 189.73.76 2.93 5.39 2.39 5.32-.72 6.83-55.32 13.73-110.64 20.56-165.97.81-6.52 1.62-13.04 2.44-19.57 3.52 53.92 6.71 107.9 10.46 161.74 1.73 3.32 5.85.94 4.86-2.48-3.21-48.17-6.35-96.35-9.33-144.54-.18-2.89-.37-5.77-.55-8.66 6.71 25.19 14.66 50.05 23.89 74.44 4.76 12.57 9.82 25.02 15.28 37.3 1.61 3.64 3.25 7.27 4.91 10.89.34.58.9 1.01 1.54 1.18 1.32.39 2.83-.47 3.17-1.8.34-2-1.29-3.73-1.88-5.57-16.66-37.2-30.66-76.1-41.31-115.76-1.43-4.89-2.65-9.86-3.83-14.84 12.86 31.53 28.22 62.23 47.21 90.42 3.06 2.19 5.99-2.01 3.5-4.6Z" fill="#3c87c8" data-color="1"/>
        <path d="M306.96 275.56c-2.55-3.21-5.09-6.42-7.64-9.63-2.42-2.5-6.29 1.37-3.8 3.8 2.57 3.19 5.14 6.37 7.71 9.56.72.73 1.95 1.02 2.88.55 1.71-.59 2.15-3.05.85-4.28Z" fill="#3c87c8" data-color="1"/>
        <path d="M99.05 361.09c-17.14 49.76-37.9 95.78-64.04 142.34-.5 2.59 3.37 3.95 4.63 1.6 14.93-26.61 29.17-53.64 41.33-81.63 8.7-19.93 16.63-40.2 23.73-60.75.98-3.62-4.58-5.28-5.65-1.56Z" fill="#3c87c8" data-color="1"/>
        <path d="M136.24 373.5c-16.56 55.29-37.58 105.31-65.49 155.84-1.87 3.74 3.86 5.82 5.16 1.84 16.21-28.82 30.41-58.74 42.8-89.4 8.84-21.84 16.7-44.08 23.42-66.66 1.03-3.77-4.78-5.52-5.9-1.63Z" fill="#3c87c8" data-color="1"/>
        <path d="M180.22 384.29c-1.25-2.27-4.95-1.82-5.57.73-8.74 32.58-21.45 65.06-33.69 93.31-.76 2.52 2.97 4.12 4.25 1.79 14.71-29.05 25.73-59.91 34.67-91.19.36-1.52 1.25-3.16.33-4.64Z" fill="#3c87c8" data-color="1"/>
        <path d="M134 492.85c-8.26 19.15-18.78 37.28-29.43 55.07-.38 3.16 3.86 3.92 5.14 1.17 10.71-17.23 20.7-34.96 28.98-53.5 1.81-2.99-2.95-5.82-4.69-2.74Z" fill="#3c87c8" data-color="1"/>
        <path d="M442.74 110.35c-27.54 61.09-62.3 118.93-103.23 171.98a884.518 884.518 0 0 1-30.62 37.41c-7.64 9.09-16.05 17.63-23.77 26.59-1.2 2.47 2.34 4.97 4.28 2.88 65.39-69.13 119.04-149.34 157.89-236.2 1.72-2.84-2.82-5.66-4.54-2.65Z" fill="#3c87c8" data-color="1"/>
        <path d="M445.68 116.83c-12.21 48.7-29.25 93.28-51.41 137.17-.53 1.6-1.98 3.11-1.66 4.85.46 1.88 3.23 2.27 4.16.54 14.41-25.9 25.97-53.35 36.19-81.15 7.09-19.64 13.14-39.65 18.22-59.89.96-3.52-4.47-5.17-5.51-1.52Z" fill="#3c87c8" data-color="1"/>
        <path d="M384.7 274.59c-14.42 30.18-32.76 58.46-53.8 83.18-2.26 2.98 1.13 6.24 3.88 3.5 12.75-14.86 23.83-30.32 34.5-47.44 7.33-12.16 14.5-24.6 20.19-37.59.51-2.67-3.47-4.08-4.78-1.65Z" fill="#3c87c8" data-color="1"/>
        <path d="M562.55 299.43c-30.75-44.16-58.03-90.74-81.25-139.29-5.41-11.25-11.31-24.33-16.12-35.47-.15-.65-.32-1.29-.47-1.94-.96-2.54-.48-6.06-2.78-7.81-.49-.3-1-.37-1.52-.35-1.16-.7-2.81-.38-3.65.66-1.35-.72-3.25-.43-3.76 1.53-15.12 83.74-38.45 166.02-70.02 245.05-.51 1.49-1.59 3.07-.64 4.59 1.98 2.8 5.17.96 5.71-1.98 24.54-61.97 44.25-125.88 58.97-190.88 2.73-12.1 5.2-24.25 7.57-36.42 3.75 75.33-3.4 148.82-21.73 221.53-.3 2.32-1.95 4.82-.97 7.09.83 1.48 3.02 1.77 4.21.54 1.16-1.45 1.19-3.54 1.79-5.27 15.55-61.1 23.32-124.17 23.24-187.22 0-12.14-.38-24.28-1.03-36.41 7.56 76.17 14.89 152.37 22.89 228.49-.05 1.74 1.77 3.13 3.45 2.63 1.15-.3 2.02-1.44 2-2.63-.79-8.06-1.57-16.11-2.36-24.17-1.56-16.03-3.16-32.06-4.74-48.09-4.56-44.81-9.2-89.61-13.78-134.41 17.36 67.62 38.97 134.22 65.48 198.76 1.53 2.2 5.32.4 4.49-2.24-22.58-57.79-42.33-116.71-58.49-176.63-2.3-8.44-4.52-16.9-6.68-25.38 24.11 52.13 52.66 102.22 85.71 149.19 2.95 5.07 8.43 1.01 4.51-3.48Z" fill="#3c87c8" data-color="1"/>
        <path d="M588.08 342.13c-5.26-7.44-10.22-15.19-15.7-22.43-2.15-1.86-5.44 1.04-3.92 3.44 6.89 9.95 13.75 19.91 20.74 29.78.75 1.18 1.94 2.33 3.45 1.89 5.34-2.11-3.26-9.59-4.56-12.68Z" fill="#3c87c8" data-color="1"/>
        <path d="M284.58 390.3c-16.42 73.22-41.28 142.1-74.97 207.68-1.87 3.19 3.04 6.21 4.99 2.91 26.44-51.64 47.98-105.8 63.75-161.64 4.35-16.07 9.04-32.23 12.06-48.56-.26-3.09-5.08-3.49-5.82-.4Z" fill="#3c87c8" data-color="1"/>
        <path d="M328.25 381.82c-8.72 42.89-20.87 85.12-36.65 125.95-1.93 3.45 3.53 6.05 4.8 2.2 12.63-31.98 23.19-64.79 31.3-98.2 2.21-9.8 4.92-19.64 6.38-29.55-.25-3.13-5.1-3.49-5.83-.4Z" fill="#3c87c8" data-color="1"/>
        <path d="M288.28 531.35c-1.19-2.17-4.73-1.73-5.31.69-7.33 27.57-17.59 50.03-30.61 75.01-.6 3.09 4.01 4.68 5.5 1.9 13.12-23.06 23.08-47.89 30.19-73.44.34-1.36 1.06-2.84.23-4.16Z" fill="#3c87c8" data-color="1"/>
        <path d="M372.46 379.36c-13.6 81.19-39.03 160.33-73.79 232.65-.65 1.66-2.16 3.22-1.66 5.09.48 1.88 2.81 2.83 4.48 1.82 1.32-.77 1.6-2.42 2.3-3.67 27.21-56.7 48.59-117.24 63.27-180.31 4.16-17.92 7.75-35.96 10.76-54.11.93-3.36-4.33-5.07-5.36-1.48Z" fill="#3c87c8" data-color="1"/>
        <path d="M414.59 392.95c-16.6 80.15-43.56 155.63-81.13 226.96-1.83 3.11 2.97 6.08 4.88 2.85 29.48-56.09 52.99-115.34 69.34-176.58 4.6-17.13 8.66-34.4 12.18-51.79.91-3.32-4.27-4.99-5.28-1.46Z" fill="#3c87c8" data-color="1"/>
        <path d="M562.79 609.66c-30.72-52.76-53.14-105.97-69.64-164.73a665.538 665.538 0 0 1-10.93-45.11 678.42 678.42 0 0 1-3.23-16.76c-.3-1.08-1.26-1.99-2.39-2.06-1.94-.37-3.75 1.7-3.16 3.59 14.52 81.13 43.85 159.58 86.18 230.31.99 2.78 4.45 4.21 5.81.79.44-2.29-1.77-4.05-2.63-6.02Z" fill="#3c87c8" data-color="1"/>
        <path d="M563.82 522.55c-15.63-34.76-29.2-76.14-37.36-116.09-2.55-10.5-3.41-21.6-6.07-31.94-1.92-2.77-6.62-.47-5.59 2.79a569.667 569.667 0 0 0 30.37 116.56c3.62 9.6 7.51 19.1 11.63 28.5.93 1.75 1.23 4.29 3.42 4.88 2.64.81 5.09-2.33 3.61-4.7Z" fill="#3c87c8" data-color="1"/>
        <path d="M608.32 607.97c-10.75-20.94-21.8-41.73-32.8-62.53-2.03-3.45-7.35-.39-5.33 3.12 11.3 21.03 21.69 42.77 33.69 63.32 2.44 2.11 6.17-1.19 4.45-3.91Z" fill="#3c87c8" data-color="1"/>
        <path d="M655.25 594.68c-24.71-45.8-44.69-89.59-61.53-137.9-7.18-20.52-13.56-41.31-19.22-62.3-2.12-7.83-4.13-15.68-6.03-23.56-.23-.83-.77-1.52-1.51-1.96-2.39-1.47-5.67.95-4.81 3.7 19.1 80.16 49.16 158.02 90.56 229.33 1.16 2.14 4.65 1.71 5.22-.68.4-2.45-1.78-4.48-2.68-6.63Z" fill="#3c87c8" data-color="1"/>
        <path d="M696.44 580.65c-28.75-51.85-50.74-102.59-68.16-159.07a746.977 746.977 0 0 1-14.87-56.25c-.96-3.52-6.62-2.23-5.61 1.55 17.38 78.45 46.2 155.02 88.28 223.56 1.61 1.41 4.37.04 4.3-2.1-.64-2.76-2.76-5.1-3.95-7.68Z" fill="#3c87c8" data-color="1"/>
        <path d="M834.56 320.33c-36.02-35.21-67.56-74.52-94.69-116.87a649.283 649.283 0 0 1-22.81-38.56c-4.8-8.28-8.61-17.27-13.45-25.44-1.3-1.11-3.07-.37-3.77.91-.1-.1-.18-.21-.3-.3-.9-.55-1.97-.39-2.76.16-.2-.18-.43-.34-.68-.45.39-1 .18-2.21-.59-2.96-1.42-1.49-4.15-.79-4.64 1.23-1.01 2.74-2.4 6.23-3.4 8.57-15.81 37.82-38.45 74.21-64.68 105.43a434.538 434.538 0 0 1-25.4 27.85c-2.55 2.53 1.33 6.62 3.98 3.98 27.78-28.03 51.51-59.99 70.68-94.47 5.2-9.26 10.04-18.71 14.57-28.31-9.08 38.17-21.56 75.8-37.25 111.21-.52 1.44-1.58 2.86-1.46 4.43.17 2.18 3.37 2.83 4.41.89 13.17-29.08 23.79-59.31 32.67-89.97 2.1-7.24 4.04-14.52 5.85-21.84-4.25 60.78-12.88 121.24-26.1 180.73-.25 2.78-2.06 5.75-1.14 8.45 1.05 1.91 4.17 1.54 4.69-.61 12.06-54.54 20.37-109.91 25.75-165.5.79-8.34 1.47-16.7 2.09-25.06 2.97 30.84 7.1 61.56 12.36 92.09 1.72 9.64 3.34 19.31 5.42 28.88.33 1.11.33 2.49 1.47 3.11 2.92 1.32 3.95-1.87 3.15-3.87-7.93-42.01-13.69-80.96-17.54-123.12l-.18-2.09c21.07 64.21 49.36 126.26 84.62 183.83 1.37 1.19 3.7.03 3.64-1.78-.23-1.71-1.56-3.1-2.33-4.62-26.95-45.03-49.72-92.58-68-141.77a893.459 893.459 0 0 1-15.66-45.39c33.38 66.54 78.17 127.43 132.29 178.57 1.34 1.43 4 .37 3.92-1.63-.46-2.46-3.22-3.85-4.75-5.7Z" fill="#3c87c8" data-color="1"/>
        <path d="M646.76 289.53c-1.29-1.13-3.52-.35-3.92 1.3-2.8 7.9-7.1 16.09-12.61 23.59-.1.35-2.1 2.11-2.28 3.66-.33 1.68 1.45 3.17 3.06 2.69.67-.18 1.18-.67 1.64-1.17 2.43-3.14 4.68-6.42 6.73-9.82 3.35-5.57 6.09-11.49 8.28-17.61.26-.94-.07-2.08-.9-2.63Z" fill="#3c87c8" data-color="1"/>
        <path d="M732.96 348.03c-3.95-15.69-7.98-31.36-12.05-47.03-.82-3.16-5.81-1.82-4.89 1.35 3.65 14.29 7.31 28.57 11.07 42.83.89 2.19.59 5.26 2.52 6.81 2.66 1.37 4.56-1.6 3.35-3.97Z" fill="#3c87c8" data-color="1"/>
        <path d="M662.63 367.14c-1.12-2.06-4.47-1.63-5.02.66-1.85 9.87-3.72 19.74-5.53 29.62-.07 2.63-2.25 6.2-.04 8.3 2.08 1.62 4.29-.63 4.31-2.84.94-4.58 1.82-9.16 2.72-13.75 1.28-6.62 2.55-13.25 3.83-19.87.2-.71.09-1.48-.28-2.12Z" fill="#3c87c8" data-color="1"/>
        <path d="M754.56 466.83c-7.84-18.73-13.9-38.19-17.69-58.14-2.38-11.65-3.13-19.99-4.47-31.32.87-1.89-.03-4.63-2.78-4.65-2.53 0-3.49 2.33-2.97 4.17v.04c3.16 32.27 10.28 65.17 24.56 94.33 2.92 1.79 5.13-1.23 3.34-4.42Z" fill="#3c87c8" data-color="1"/>
        <path d="M790.88 548.82c-7.56-14.05-16.68-33.49-21.81-45.66a502.08 502.08 0 0 1-7.02-17.57c-.19-.69-.65-1.29-1.27-1.65-2.02-1.26-4.76.82-4.05 3.11 8.76 22.62 18.32 45.34 31.22 65.89 1.2 1.06 3.29.32 3.66-1.21.25-1.57-.43-1.98-.72-2.91Z" fill="#3c87c8" data-color="1"/>
        <path d="M822.02 539.26c-19.21-39.84-35.25-78.52-47.82-121.7-3.6-12.15-6.93-24.38-9.93-36.7-.93-3.38-6.27-2.08-5.32 1.47 13.61 54.65 32.82 108.09 58.29 158.35 1.03 3.74 6.45 2.33 4.78-1.42Z" fill="#3c87c8" data-color="1"/>
        <path d="M850.87 524.95c-19.48-36.84-35.62-74.93-48.41-114.59a701.1 701.1 0 0 1-10.17-34.17c-.81-3.15-5.87-1.87-4.93 1.36 14.45 52.69 34.19 104.51 60.99 152.13 1.17 1.03 3.22.32 3.58-1.18.32-1.28-.59-2.41-1.05-3.55Z" fill="#3c87c8" data-color="1"/>
        <path d="M879.13 516.71c-18.42-41.45-35.03-85.8-49.21-130.79-3.53-10.6-6.2-21.57-9.78-32.09-1.55-2.24-5.38-.39-4.55 2.26 10.45 38.09 22.84 75.65 37.47 112.34 5.27 13.18 10.75 26.27 16.44 39.27 1.69 3.88 3.45 7.74 5.22 11.59.33.57.89.99 1.52 1.17 2.1.64 4.06-1.86 2.88-3.74Z" fill="#3c87c8" data-color="1"/>
        <path d="M444.24 370.7c-68.98 0-138.42-9.8-205.07-29.4a3.922 3.922 0 0 1-2.75-3.03c-.28-1.44.27-2.92 1.43-3.84 74.62-58.84 136.67-127.4 201.21-222.3a3.946 3.946 0 0 1 5.47-1.04 3.946 3.946 0 0 1 1.04 5.47c-63.28 93.05-124.24 161-196.86 219.29 128.37 36.25 266.74 35.96 391.34-.84-61.8-53.43-140.32-150.03-177.61-219.04a3.936 3.936 0 0 1 1.59-5.33c1.92-1.04 4.3-.32 5.33 1.59 38.01 70.35 119.33 169.69 181.27 221.45a3.92 3.92 0 0 1 1.33 3.8 3.949 3.949 0 0 1-2.7 2.99c-65.56 20.16-135.05 30.24-205.01 30.24Z" fill="#3c87c8" data-color="1"/>
        <path d="M452.65 117.19c-4.62 0-9.29-.36-14-1.07a3.94 3.94 0 0 1-3.07-2.43c-.52-1.3-.31-2.77.55-3.87l13.98-18.01c.46-.6 1.88-2.43 4.35-2.54 2.01-.1 3.67.9 5.05 2.91 3.66 5.38 7.32 10.75 11.93 17.35a3.94 3.94 0 0 1-2.48 6.12 85.817 85.817 0 0 1-16.32 1.54Zm-6-8.09c4.98.36 9.91.28 14.73-.26-2.44-3.54-4.65-6.77-6.81-9.94l-7.92 10.2Z" fill="#3c87c8" data-color="1"/>
        <path d="M453.37 96.5c-2.17 0-3.93-1.76-3.94-3.93-.02-15.4-.04-30.81-.08-46.13-16.68-.93-53.24-3.91-73.9-8.14a3.94 3.94 0 0 1-.77-7.47c13.7-5.94 30.34-12.31 45.03-17.92C432 8.21 443.6 3.77 451.54.32a3.946 3.946 0 0 1 5.5 3.59c.18 29.18.22 58.92.26 88.65a3.94 3.94 0 0 1-3.93 3.94Zm-63.11-63.66c19.97 2.91 45.66 4.95 59.07 5.71-.03-9.62-.07-19.19-.12-28.71-7.5 3.08-16.87 6.66-26.68 10.41-10.36 3.97-21.71 8.31-32.27 12.59Z" fill="#3c87c8" data-color="1"/>
        <path d="M445.3 408.17c-1.72 0-3.46-.22-5.22-.7-7.26-1.98-13.32-8.23-16.24-16.71-.17-.48-.32-.97-.47-1.46-.91 2.04-1.98 4.02-3.24 5.91-4.99 7.5-14.67 14.25-25.04 12.37-9.92-1.79-16.16-10.38-18.69-17.84-1.23-3.62-1.85-7.36-2.14-11.06-1.05 2.1-2.14 4.27-3.42 6.39-5.05 8.35-12.21 13.4-19.67 13.85-10.37.68-18.74-7.63-22.1-15.56-1.78-4.2-2.62-8.59-3.01-12.95-.36.62-.71 1.23-1.06 1.85-1.62 2.83-3.16 5.5-5.08 8.09-5.96 8-14.17 12.19-22.03 11.14-9.5-1.24-15.93-9.73-18.08-17.61a35.89 35.89 0 0 1-1.1-6.19c-1.22 2-2.57 3.97-4.12 5.85-6.04 7.31-16.41 12.87-25.9 8.79-7.38-3.16-12.03-11.43-12.44-22.13-.07-1.91-.19-3.57-.31-5.18-.34-4.73-.66-9.19.27-17.75.23-2.16 2.23-3.71 4.33-3.49 2.16.23 3.72 2.18 3.49 4.33-.85 7.86-.56 11.79-.24 16.34.12 1.69.25 3.44.32 5.44.23 5.86 2.36 12.92 7.68 15.2 5.75 2.45 12.7-1.68 16.73-6.56 3.04-3.69 5.35-8.12 7.57-12.4 1.28-2.47 2.61-5.02 4.04-7.34.97-1.58 2.92-2.25 4.66-1.64 1.75.61 2.83 2.36 2.6 4.2-.86 6.89-1.76 14 .02 20.47 1.41 5.18 5.62 11.11 11.51 11.88 5.85.75 11.43-3.65 14.7-8.04 1.64-2.21 3.06-4.68 4.57-7.3 2.22-3.88 4.74-8.28 8.55-12.71a3.928 3.928 0 0 1 4.37-1.12c1.55.58 2.56 2.07 2.55 3.72-.08 7.53-.16 15.32 2.68 22.05 2.39 5.64 8.07 11.07 14.38 10.78 6.86-.42 11.66-7.18 13.41-10.07 1.12-1.86 2.14-3.88 3.12-5.84 2.19-4.37 4.46-8.9 8.21-12.29a3.917 3.917 0 0 1 4.28-.66c1.43.66 2.33 2.11 2.29 3.68-.2 7.22-.41 14.68 1.85 21.33 2.27 6.69 7.23 11.64 12.63 12.62 6.86 1.26 13.53-3.62 17.09-8.98 3.86-5.81 5.56-12.94 7.36-20.49l.48-2c.46-1.94 2.31-3.25 4.28-2.99 1.98.23 3.47 1.89 3.49 3.89.04 6.41.08 13.04 2.11 18.94 1.59 4.64 5.29 10.14 10.87 11.67 6.85 1.88 14.26-2.95 18.04-8.68 2.45-3.71 4.02-8.03 5.69-12.61 1.39-3.82 2.83-7.77 4.89-11.7.8-1.53 2.5-2.36 4.22-2.04 1.7.32 2.99 1.72 3.18 3.44.75 6.93 1.61 14.79 5.18 20.92 2.99 5.13 9.14 9.62 15.08 8.31 4.77-1.05 8.97-5.8 11.26-12.7 1.18-3.55 1.89-7.42 2.59-11.17.59-3.21 1.2-6.52 2.11-9.71a3.934 3.934 0 0 1 3.57-2.85c1.72-.1 3.23.88 3.86 2.44 1.1 2.69 2.01 5.44 2.89 8.1 1.64 4.95 3.19 9.63 5.79 13.66 3.4 5.26 10.07 9.7 15.74 7.54 3.03-1.15 5.66-4.1 8.05-9 3.76-7.75 5.36-15.99 4.75-24.51a3.931 3.931 0 0 1 3.31-4.17c2.03-.3 3.95.96 4.43 2.95 1.77 7.21 3.6 14.66 7.91 20.43 3.48 4.67 10.06 8.92 16.29 7.19 6.21-1.72 9.81-8.59 11.11-14.44 1.58-7.12 1.03-14.7.6-20.79a3.925 3.925 0 0 1 3.61-4.2c2.21-.15 4.05 1.43 4.23 3.58 1.03 11.65 9.67 21.56 14.21 23.83 5.3 2.64 10.86 2.07 13.86-1.43 3.72-4.34 7.13-15.43 5.57-33.55a3.934 3.934 0 0 1 3.58-4.26c2.2-.23 4.07 1.41 4.26 3.58 1.53 17.71-1.18 32.05-7.43 39.35-5.39 6.29-14.76 7.64-23.35 3.35-3.25-1.62-7.4-5.26-10.96-10.29-.14.85-.3 1.7-.49 2.54-1.8 8.09-7.12 17.67-16.69 20.32-9.83 2.72-19.5-3.09-24.7-10.07-1.31-1.75-2.42-3.6-3.39-5.51-.91 3.24-2.12 6.43-3.63 9.54-3.3 6.79-7.33 11.02-12.33 12.92-9.63 3.68-19.94-2.56-25.14-10.63-2.04-3.15-3.5-6.52-4.75-9.91-.52 2.54-1.13 5.11-1.98 7.65-3.17 9.56-9.53 16.26-17.03 17.92-10.1 2.22-19.28-4.68-23.58-12.03-1.86-3.17-3.1-6.56-3.98-9.98-1.55 4.2-3.25 8.45-5.81 12.34-4.35 6.59-12.49 12.64-21.46 12.64Z" fill="#3c87c8" data-color="1"/>
        <path d="M430.33 630.57c-101.98 0-201.32-14.82-264.26-44.87a3.929 3.929 0 0 1-1.88-5.19c34.68-75.85 60.44-140.34 81.06-202.98.68-2.06 2.91-3.19 4.97-2.51s3.19 2.91 2.51 4.97c-20.39 61.94-45.77 125.66-79.76 200.24 62.71 28.77 162.06 44.08 273.79 42.09 107.65-1.93 209.37-20.03 273.43-48.55-37.7-69.04-65.31-138.78-79.92-201.94-.49-2.12.83-4.23 2.95-4.72a3.94 3.94 0 0 1 4.72 2.95c14.71 63.61 42.78 134.02 81.19 203.64.53.96.63 2.09.29 3.13a3.903 3.903 0 0 1-2.09 2.34c-73.66 34.1-186.87 51.39-297.01 51.39Z" fill="#3c87c8" data-color="1"/>
        <path d="M170.08 576.42c-.25 0-.52-.02-.77-.08C104.3 563.39 44.52 528.73.97 478.76a3.933 3.933 0 0 1-.17-4.96c31.11-41.14 53.99-85.17 69.94-134.58.67-2.06 2.87-3.2 4.95-2.53a3.92 3.92 0 0 1 2.53 4.95C62.33 390.88 39.67 434.86 9 475.98c42.23 47.38 99.58 80.24 161.84 92.65 2.13.42 3.52 2.5 3.09 4.63a3.94 3.94 0 0 1-3.85 3.17Z" fill="#3c87c8" data-color="1"/>
        <path d="M719.56 568.28c-2.08 0-3.81-1.63-3.92-3.72a3.922 3.922 0 0 1 3.71-4.14c71.49-3.89 144.3-35.68 183.65-55.68-30.76-49.23-45.44-122.37-51.52-162.2a3.932 3.932 0 0 1 3.3-4.48c2.16-.34 4.15 1.15 4.48 3.3 6.13 40.2 21.13 114.79 52.68 162.74.61.93.8 2.08.52 3.16a3.923 3.923 0 0 1-2 2.5c-38.87 20.1-115.33 54.43-190.68 58.52h-.22Z" fill="#3c87c8" data-color="1"/>
        <path d="M238.29 364.23h-.05c-65.95-.82-131.5-22.85-184.57-62.02-1.06-.78-1.66-2.04-1.59-3.35s.77-2.51 1.89-3.19c67.76-41 123.59-93.07 165.94-154.77a3.932 3.932 0 1 1 6.48 4.46c-41.92 61.07-96.84 112.85-163.29 153.95 50.89 36.06 112.88 56.27 175.24 57.05 2.17.03 3.91 1.81 3.89 3.99a3.937 3.937 0 0 1-3.94 3.89Z" fill="#3c87c8" data-color="1"/>
        <path d="M327.31 262.57c-.87 0-1.74-.29-2.47-.88-36.54-29.64-74.32-77.02-91.87-115.22-.91-1.97-.04-4.31 1.94-5.22 1.97-.9 4.31-.04 5.22 1.94 17.09 37.21 53.97 83.42 89.67 112.39a3.927 3.927 0 0 1 .58 5.53c-.78.96-1.91 1.46-3.06 1.46Z" fill="#3c87c8" data-color="1"/>
        <path d="M230.19 147.1c-3.86 0-7.71-.97-11.1-2.89a3.932 3.932 0 0 1-1.53-5.28l6.6-12.36c3.22-6.02 7.31-5.65 8.92-5.2 3.67 1.02 4.79 4.69 5.21 6.07 1.29 4.21 2.61 8.56 2.75 14.32.04 1.64-.95 3.14-2.47 3.75-2.67 1.07-5.53 1.6-8.37 1.6Zm-3.63-8.32c2.08.52 4.29.58 6.39.19-.36-3.06-1.13-5.73-1.97-8.47l-4.42 8.29Z" fill="#3c87c8" data-color="1"/>
        <path d="M232.24 127.72h-.08c-2.18-.05-3.9-1.79-3.85-3.97v-.1c.25-11.64.5-23.29.73-34.85-23.79-2.57-47.55-7.1-70.65-13.46a3.932 3.932 0 0 1-2.89-3.83 3.913 3.913 0 0 1 2.97-3.77l74.25-18.87c1.19-.32 2.46-.03 3.41.73.96.76 1.51 1.93 1.49 3.16-.44 23.25-.95 47.16-1.45 71.07-.04 2.14-1.8 3.9-3.94 3.9Zm-56.9-56.16c17.74 4.22 35.79 7.35 53.86 9.33.16-7.76.32-15.49.46-23.14l-54.32 13.81Z" fill="#3c87c8" data-color="1"/>
        <path d="M221.38 391.04c-2.09 0-4.13-.37-6.02-1.12-5.44-2.15-9.65-7.45-11.28-14.16-.05-.18-.09-.37-.13-.55a33.64 33.64 0 0 1-3.62 4.33c-6.05 6.07-14.42 8.63-21.34 6.51-6.38-1.95-11.52-7.66-13.73-15.26-.71-2.46-1.1-4.96-1.3-7.44-2.89 3.2-5.87 5.94-9.37 8.02-7.5 4.47-16.38 4.81-22.64.9-5.18-3.25-8.69-9.5-9.39-16.72a29.3 29.3 0 0 1-.13-2.09 32.25 32.25 0 0 1-4.11 3.7c-4.78 3.6-10.08 5.25-15 4.68-9.38-1.13-15.21-9.87-16.66-17.51-.57-3.03-.65-6.05-.42-9.01-3.1 3.19-6.54 5.99-11.08 7.1-6.76 1.66-14.53-1.28-19.31-7.3-4.85-6.11-5.78-13.58-5.71-18.77.08-6.24 1.54-12.19 2.96-17.94a3.921 3.921 0 0 1 4.76-2.88c2.11.52 3.4 2.65 2.88 4.76-1.31 5.31-2.66 10.81-2.73 16.16-.07 5.53 1.35 10.43 4.01 13.77 2.85 3.6 7.49 5.46 11.28 4.55 3.82-.93 6.86-4.34 10.37-8.29 1.89-2.12 3.84-4.32 6.16-6.44a3.923 3.923 0 0 1 4.65-.49c1.49.88 2.23 2.62 1.83 4.3-1.44 6.03-3.07 12.87-1.91 19.01.96 5.07 4.66 10.53 9.88 11.16 3.85.47 7.49-1.77 9.31-3.15 3.78-2.84 6.77-6.94 11.31-13.97a3.953 3.953 0 0 1 4.8-1.5c1.75.72 2.74 2.59 2.35 4.45-1.04 4.95-2.12 10.07-1.65 14.93.47 4.81 2.62 8.85 5.74 10.81 4.3 2.7 10.34 1.44 14.43-.99 4.83-2.88 8.57-7.48 14.28-14.75a3.952 3.952 0 0 1 4.47-1.26c1.61.6 2.64 2.16 2.56 3.88-.26 5.44-.53 11.07.94 16.11 1.14 3.9 3.96 8.55 8.48 9.94 5.08 1.54 10.41-1.47 13.45-4.53 3.88-3.9 6.34-9.2 9.16-15.71.77-1.76 2.69-2.73 4.57-2.25 1.87.47 3.12 2.22 2.97 4.14-.38 4.63-.77 9.42.28 13.74.79 3.27 2.92 7.27 6.53 8.7 3.18 1.26 7.47.36 10.92-2.28 3.7-2.83 6.31-7.2 8.37-11.11a3.931 3.931 0 0 1 5.32-1.64 3.934 3.934 0 0 1 1.64 5.32c-2.46 4.66-5.64 9.93-10.55 13.67-3.82 2.93-8.3 4.47-12.57 4.47Z" fill="#3c87c8" data-color="1"/>
        <path d="M571.74 263.13c-1.43 0-2.81-.78-3.5-2.14a3.94 3.94 0 0 1 1.71-5.3c47.96-24.6 90.8-67.79 117.52-118.48a3.931 3.931 0 0 1 5.32-1.64 3.931 3.931 0 0 1 1.64 5.32c-27.46 52.09-71.53 96.49-120.9 121.81-.57.3-1.19.43-1.79.43Z" fill="#3c87c8" data-color="1"/>
        <path d="M676.23 360.64c-8.63 0-17.26-.23-25.89-.69a3.936 3.936 0 0 1-3.72-4.14c.12-2.18 1.96-3.8 4.14-3.72 76.25 4.1 153.03-10.3 222.61-41.67-76.33-38.3-138.77-99.76-172.08-169.67-.94-1.96-.1-4.31 1.86-5.24 1.97-.95 4.31-.1 5.24 1.86 33.13 69.54 98.86 132.94 175.84 169.6a3.92 3.92 0 0 1 2.24 3.56c0 1.52-.88 2.9-2.26 3.55-64.9 30.64-136.32 46.57-208 46.57Z" fill="#3c87c8" data-color="1"/>
        <path d="M695.04 142.87c-3.03 0-6.06-.23-9.08-.69-1.31-.2-2.44-1.05-2.99-2.25s-.46-2.61.25-3.74l9.54-15.13a3.933 3.933 0 0 1 5.3-1.31c6.05 3.5 10.33 9.36 12.38 16.96.28 1.05.12 2.16-.45 3.08-.56.92-1.49 1.57-2.55 1.79-4.1.85-8.24 1.28-12.39 1.28Zm-1.75-7.9c2.7.09 5.38-.03 8.04-.35-1.08-2.29-2.47-4.23-4.17-5.8l-3.88 6.15Z" fill="#3c87c8" data-color="1"/>
        <path d="M696.99 126.59h-.11a3.934 3.934 0 0 1-3.83-4.04c.33-12.61.66-25.46.85-38.35l-71.56-4.4a3.937 3.937 0 0 1-3.66-3.42c-.24-1.88.88-3.65 2.68-4.24l75.29-24.7c1.18-.39 2.49-.19 3.51.53 1.02.73 1.63 1.89 1.65 3.14.36 23.93-.27 48.19-.88 71.65a3.936 3.936 0 0 1-3.93 3.83ZM643.33 73.2l50.66 3.12c.06-6.59.07-13.18 0-19.75l-50.67 16.62Z" fill="#3c87c8" data-color="1"/>
        <path d="M676.8 392.54c-.99 0-2-.11-3.02-.33-6.36-1.39-11.48-7.22-13.67-15.61-.56-2.16-.95-4.32-1.31-6.41a41.175 41.175 0 0 1-9.53 10.39c-1.73 1.32-4.19 1-5.52-.73-1.32-1.73-1-4.2.73-5.52 5.51-4.22 9.62-10.21 11.59-16.86.47-1.58 1.86-2.7 3.5-2.81 1.65-.07 3.18.81 3.86 2.31 1.73 3.83 2.42 7.8 3.09 11.64.37 2.11.71 4.09 1.21 6.01 1.1 4.22 3.72 9.04 7.74 9.92 4.46.97 9.25-3.4 11.32-8.19 2.43-5.63 2.72-12.1 2.54-16.53a3.92 3.92 0 0 1 2.49-3.82c1.54-.61 3.34-.17 4.43 1.11 3.17 3.7 4.87 8.03 6.51 12.21.8 2.05 1.56 3.99 2.48 5.81 2.18 4.36 6.43 8.67 10.61 7.79 2.19-.45 4.36-2.31 6.65-5.7 3.81-5.64 6.86-12.93 9.04-21.67a3.929 3.929 0 0 1 3.82-2.98c1.81 0 3.39 1.24 3.82 3 1.3 5.3 2.64 10.77 5.53 15.14 2.82 4.26 7.25 6.84 11.03 6.71 4.99-.22 9.02-4.7 10.81-9.05 1.92-4.69 2.32-10.28 1.37-19.27a3.936 3.936 0 0 1 3.16-4.28c2.02-.39 3.97.81 4.54 2.77 1.64 5.68 3.33 11.55 6.72 16.11 3.33 4.49 8.25 7.03 12.49 6.41 5.08-.72 8.85-5.66 10.33-10.23.89-2.74 1.28-5.74 1.69-8.91.47-3.58.95-7.29 2.18-11.28.5-1.64 2-2.76 3.72-2.78 1.62-.1 3.24 1.06 3.78 2.69 1.59 4.8 3.24 9.76 6.1 13.67 2.84 3.89 6.73 6.24 10.4 6.28h.1c5.69 0 10.36-5.35 12.04-10.66 2.03-6.41 1.17-13.57.33-20.49a3.948 3.948 0 0 1 3.08-4.32c1.99-.44 3.98.73 4.58 2.67 1.42 4.54 2.89 9.23 5.47 12.96 2.56 3.69 6.11 6 9.5 6.19 5.79.32 10.75-5.4 12.16-11.12 1.68-6.8-.03-14.47-1.54-21.23-.48-2.12.86-4.22 2.98-4.7 2.12-.47 4.22.86 4.7 2.98 1.7 7.61 3.62 16.24 1.5 24.83-2.15 8.7-10.03 17.72-20.23 17.09-5.12-.28-10.07-2.95-13.9-7.42-.25 1.65-.62 3.29-1.14 4.93-2.48 7.86-9.7 16.13-19.74 16.16-6.14-.07-12.37-3.63-16.66-9.52-.73-1-1.38-2.03-1.99-3.09-.36 2.48-.82 5-1.63 7.48-2.73 8.42-9.3 14.55-16.71 15.6-7.18 1-14.81-2.62-19.92-9.51-.29-.38-.56-.78-.83-1.17-.35 1.4-.8 2.77-1.35 4.13-3.33 8.13-10.29 13.59-17.73 13.93-6.68.33-13.57-3.62-17.95-10.23a33.753 33.753 0 0 1-2.87-5.4c-1.8 4.48-3.89 8.48-6.25 11.97-3.5 5.17-7.29 8.11-11.58 9-8.29 1.73-15.63-4.78-19.23-11.97-.85-1.69-1.56-3.42-2.24-5.12-.48 1.99-1.11 3.99-1.95 5.94-2.98 6.9-9.6 13.08-17.21 13.08Z" fill="#3c87c8" data-color="1"/>
        <path d="M368.65 627.44a3.9 3.9 0 0 1-2.09-.61 3.936 3.936 0 0 1-1.23-5.43c40.97-64.95 67.6-139.57 77.01-215.78.27-2.16 2.28-3.71 4.38-3.42 2.16.27 3.69 2.23 3.42 4.38-9.55 77.36-36.58 153.09-78.17 219.02a3.934 3.934 0 0 1-3.33 1.84Z" fill="#3c87c8" data-color="1"/>
        <path d="M523.18 624.36c-1.33 0-2.62-.67-3.36-1.88-40.31-65.96-64.61-141.58-70.28-218.67a3.932 3.932 0 0 1 3.64-4.21c2.14-.17 4.05 1.46 4.21 3.64 5.58 75.85 29.49 150.25 69.15 215.14 1.13 1.86.55 4.28-1.31 5.41-.64.39-1.35.58-2.05.58Z" fill="#3c87c8" data-color="1"/>
        <path d="M670.12 457.25c-.45 0-.91-.08-1.36-.24a3.942 3.942 0 0 1-2.33-5.06 242.89 242.89 0 0 0 14.29-64.93c.18-2.16 2.12-3.74 4.24-3.61 2.17.17 3.79 2.07 3.61 4.24a250.86 250.86 0 0 1-14.75 67.03 3.934 3.934 0 0 1-3.69 2.57Z" fill="#3c87c8" data-color="1"/>
        <path d="M757.06 561.52c-1.39 0-2.74-.74-3.45-2.04-31.33-57.07-51.24-121.5-57.58-186.31a3.937 3.937 0 0 1 3.53-4.3c2.18-.18 4.09 1.37 4.3 3.53 6.24 63.76 25.82 127.15 56.65 183.29 1.05 1.91.35 4.3-1.56 5.35-.6.33-1.25.48-1.89.48Z" fill="#3c87c8" data-color="1"/>
        <path d="M140.34 568.62c-.78 0-1.56-.23-2.25-.71a3.931 3.931 0 0 1-.97-5.48c36.13-51.73 62.39-111.65 75.94-173.28.46-2.12 2.57-3.46 4.69-3 2.12.47 3.47 2.57 3 4.69-13.77 62.63-40.46 123.52-77.18 176.09a3.914 3.914 0 0 1-3.23 1.68Z" fill="#3c87c8" data-color="1"/>
        <path d="M229.38 438.58c-2.07 0-3.8-1.61-3.92-3.7-.22-3.74-.5-7.74-.78-11.87-.81-11.97-1.74-25.55-1.68-37.12a3.937 3.937 0 0 1 3.94-3.92h.02c2.18.01 3.93 1.78 3.92 3.95-.06 11.28.86 24.7 1.66 36.54.28 4.16.56 8.18.78 11.95a3.937 3.937 0 0 1-3.7 4.16h-.23Z" fill="#3c87c8" data-color="1"/>
    </g>
</svg>
