<?xml version="1.0" encoding="UTF-8"?>
<svg data-bbox="0 -0.002 315.601 621.212" viewBox="0 0 315.61 621.21" xmlns="http://www.w3.org/2000/svg" data-type="color">
    <g>
        <path d="M120.84 291.08c-1.1-3.21-4.47-1.07-6.28.27-4.66 3.13-9.24 6.4-13.83 9.63-3.08 1.74-.28 6.54 2.76 4.72 5.51-4 11.24-7.73 16.49-12.07.77-.6 1.1-1.6.86-2.54Z" fill="#3c87c8" data-color="1"/>
        <path d="M121.83 300.46c-.97-.85-2.37-.47-3.29.27-6.27 4.55-12.36 9.32-18.47 14.07-2.55 2.48 1.4 6.45 3.89 3.89 5.92-4.71 11.86-9.4 17.62-14.3 1.28-.92 1.65-2.95.25-3.93Z" fill="#3c87c8" data-color="1"/>
        <path d="M90.36 336.09c-3.69-.06-3.69 5.75 0 5.7 3.69.06 3.69-5.75 0-5.7Z" fill="#3c87c8" data-color="1"/>
        <path d="M115.22 321.98c-2.31-.33-4.25 1.59-6.19 2.58-4.97 3.31-10.4 6.13-15.13 9.74-2 2.32 1.13 5.85 3.7 4.22 5.57-3.57 11.21-7.03 16.73-10.69.88-.74 2.08-1.33 2.53-2.43.66-1.32-.23-3.07-1.64-3.42Z" fill="#3c87c8" data-color="1"/>
        <path d="M275.62 261.54c-.16 7.73-.62 15.48-.34 23.21-.04 2.76.17 6.62 3.98 5.85 2.9-.83 2.18-4.38 2.63-6.71.63-7.43.67-14.9.95-22.35-.01-4.71-7.2-4.72-7.23 0Z" fill="#3c87c8" data-color="1"/>
        <path d="M280.17 304.07c-.93-2.58-5.08-1.74-4.98 1-.4 15.83-2.04 29.81-5.89 45.1-1.76 3.66 3.81 6.1 5.1 2.19 3.34-15.81 6.31-32.14 5.76-48.29Z" fill="#3c87c8" data-color="1"/>
        <path d="M262.44 389.35c-.61-2.5-4.28-3-5.52-.72-12.13 25.82-30.65 47.05-53.49 62.35-3.08 1.96-.53 6.73 2.77 4.93 14.21-8.91 26.43-20.94 37-33.9 7.06-8.78 13.12-18.37 18.05-28.5.57-1.33 1.64-2.65 1.18-4.16Z" fill="#3c87c8" data-color="1"/>
        <path d="M68.75 433.37c-4.9-5.16-13.74-18.88-16.61-26.46-1.9-3.28-2.4-9.18-4.9-11.5-2.2-1.38-5.18.9-4.41 3.39 4.33 14.32 11.64 27.8 21.64 38.95 1.86 1.74 3.84 5.33 6.81 4.24 4.31-2.34-.64-6.37-2.52-8.63Z" fill="#3c87c8" data-color="1"/>
        <path d="M151.71 461.94c-4.25.4-8.53.48-12.8.32-9.01-.14-15.28-1.94-24.76-4.02-2.92.22-3.21 4.73-.37 5.4 11.1 3.39 22.84 4.91 34.43 4.14 2.48-.27 7.13.2 6.74-3.49-.12-1.57-1.75-2.57-3.24-2.36Z" fill="#3c87c8" data-color="1"/>
        <path d="M41.53 369.23c-5.34-17.83-7.94-33.39-8.93-51-.79-9.56.21-19.28.08-28.76-.98-2.75-5.42-1.86-5.31 1.07-1.5 21.07.13 42.33 4.59 62.97 1.26 5.77 2.75 11.48 4.44 17.13.18.67.63 1.24 1.22 1.59 1.95 1.22 4.58-.79 3.9-3Z" fill="#3c87c8" data-color="1"/>
        <path d="M35.14 175.3c-1.69-1.8-4.98-.45-4.9 2.03-.79 9.67-1.71 19.32-2.41 28.99-.02 2.23-.54 4.63-.01 6.8.58 1.63 2.89 2.03 4.06.81 1.77-3.52 1.27-8.01 1.94-11.89l2.16-24.71c0-.76-.31-1.5-.84-2.03Z" fill="#3c87c8" data-color="1"/>
        <path d="M31.85 258.6c-.09-9.02-.17-18.04-.26-27.06.06-3.47-5.42-3.49-5.38 0 .06 9.71.11 19.42.17 29.13-.51 2.65 2.62 4.82 4.67 2.79 1.25-1.3.7-3.23.79-4.85Z" fill="#3c87c8" data-color="1"/>
        <path d="M71.19 75.92C60.98 86.2 52.93 98.61 47.55 112.06c-3.57 8.81-5.95 18.09-7.08 27.52-.33 1.66-.43 3.87 1.5 4.53 1.73.86 3.95-.65 3.89-2.56C47.77 120.51 58.74 95.92 75 79.73c2.5-2.42-1.37-6.33-3.82-3.82Z" fill="#3c87c8" data-color="1"/>
        <path d="M153.03 15.58c-13.94 1.81-27.41 7.9-39.33 15.26-8.2 5.29-15.76 11.6-22.29 18.85-.77.77-1.08 2.05-.58 3.04.63 1.8 3.22 2.27 4.51.9 15.51-17.15 34.96-28.36 57.68-33.14 2.44-.59 2.44-4.31 0-4.91Z" fill="#3c87c8" data-color="1"/>
        <path d="M224.58 33.23c-6.82-6.18-15.22-11.69-24.28-13.54-2.99.23-3.28 4.84-.38 5.53 5.28 1.66 9.18 3.48 14.3 6.8 3.52 2.35 5.4 3.92 8.7 6.95 1.14 1.2 3.25.91 4.07-.52 1.25-2.14-1.06-3.85-2.42-5.21Z" fill="#3c87c8" data-color="1"/>
        <path d="M255.84 77.76a185.477 185.477 0 0 0-16.82-25.69c-1.54-1.67-2.96-5.14-5.73-3.92-1.82.64-2.3 3.26-.91 4.57 7.32 8.79 14.48 19.92 20.45 31.01 1.1 2.02 4.36 1.59 4.91-.64.41-1.94-1.16-3.64-1.91-5.32Z" fill="#3c87c8" data-color="1"/>
        <path d="M273.05 143.57c-1.44-6.45-3.05-12.86-4.84-19.22-.2-.73-.69-1.36-1.34-1.75-2.14-1.34-5.05.87-4.3 3.3 8.92 30.34 12.67 58.25 14.21 89.24.95 2.66 5.23 1.8 5.12-1.03-.68-23.72-3.82-47.36-8.85-70.54Z" fill="#3c87c8" data-color="1"/>
        <path d="M244.92 126.35c-.24 0-.48-.02-.72-.07l-16.26-3.03a3.943 3.943 0 0 1-3.21-3.87v-30.3c0-1.79 1.22-3.36 2.96-3.81 22.12-5.71 41.2-6.74 59.64-7.75 2.09-.25 3.92 1.44 4.13 3.54.51 5.05.8 10.94 1.09 16.65.28 5.68.58 11.56 1.08 16.67a3.933 3.933 0 0 1-2.96 4.2c-6.49 1.63-15.85 3.03-24.89 4.38-7.04 1.05-14.32 2.14-20.08 3.31-.26.05-.52.08-.78.08Zm-12.32-10.23 12.29 2.29c5.83-1.15 12.89-2.21 19.73-3.23 7.4-1.11 15-2.24 20.88-3.48-.35-4.37-.58-9.04-.81-13.59-.22-4.4-.44-8.63-.73-12.51-16.05.89-32.68 2.05-51.35 6.57v23.96Z" fill="#3c87c8" data-color="1"/>
        <path d="M264.87 263.07c-.42 0-.85-.07-1.25-.2l-13.97-4.68a3.949 3.949 0 0 1-2.69-3.62l-1.03-35.09a3.943 3.943 0 0 1 3.57-4.04c22.22-2.05 40.97-4.72 59.11-7.29 1.09-.15 2.19.16 3.04.85.85.7 1.37 1.72 1.44 2.82.71 12.01 1.58 24.16 2.44 36.32l.06.86a3.927 3.927 0 0 1-3.05 4.12c-15.51 3.54-31.47 6.76-46.9 9.87-.26.05-.51.08-.78.08Zm-10.11-11.47 10.37 3.47c13.97-2.82 28.35-5.72 42.38-8.87-.71-9.91-1.41-19.82-2.01-29.64-15.92 2.26-32.47 4.54-51.58 6.39l.85 28.66Z" fill="#3c87c8" data-color="1"/>
        <path d="M244.1 124.3h-.07a3.94 3.94 0 0 1-3.87-4l.56-33.82a3.933 3.933 0 0 1 3.94-3.87h.07a3.94 3.94 0 0 1 3.87 4l-.56 33.82a3.933 3.933 0 0 1-3.94 3.87Z" fill="#3c87c8" data-color="1"/>
        <path d="M265.7 258.5a3.94 3.94 0 0 1-3.94-3.9l-.27-35.95a3.933 3.933 0 0 1 3.9-3.97h.03a3.94 3.94 0 0 1 3.94 3.9l.27 35.95a3.933 3.933 0 0 1-3.9 3.97h-.03Z" fill="#3c87c8" data-color="1"/>
        <path d="M256.32 391.55c-3.01 0-5.99-.07-8.88-.21-.73-.04-1.44-.28-2.04-.7-5.31-3.69-8.97-6.12-12.61-8.55a3.935 3.935 0 0 1-1.75-3.25c-.05-9.57.56-18.04 2.04-28.32a3.934 3.934 0 0 1 3.87-3.37c18.27-.1 37.15-.22 57.89-.94 1.1-.1 2.08.35 2.85 1.08.77.73 1.21 1.73 1.23 2.79.22 13.5.04 25.01-.54 35.19a3.951 3.951 0 0 1-3.45 3.69c-8.66 1.05-23.94 2.6-38.6 2.6Zm38.13-6.51Zm-45.49-1.51c14.53.62 31.26-.83 41.73-2.01.38-8.12.51-17.12.41-27.32-18.01.57-34.62.7-50.7.79-1.01 7.75-1.46 14.35-1.5 21.71 2.92 1.95 6 4.02 10.05 6.83Z" fill="#3c87c8" data-color="1"/>
        <path d="M249.19 388.99h-.05a3.933 3.933 0 0 1-3.88-3.99l.43-31.12a3.935 3.935 0 0 1 3.94-3.88h.05c2.18.03 3.91 1.82 3.88 3.99l-.43 31.12a3.935 3.935 0 0 1-3.94 3.88Z" fill="#3c87c8" data-color="1"/>
        <path d="M184.58 485.15c-6.08 0-12.17-.31-18.21-.92-.86-.04-3.08-.47-14.32-4.79a3.922 3.922 0 0 1-2.52-3.67v-23.13a3.93 3.93 0 0 1 3.44-3.9c20.39-2.61 36.36-2.14 51.79-1.68 1.06.03 2.1.49 2.82 1.28.72.78 1.11 1.83 1.05 2.89-.56 9.62-1.01 19.4-1.46 29.19a3.928 3.928 0 0 1-3.52 3.73c-6.32.68-12.7 1.01-19.07 1.01Zm-17.61-8.77h.05c10.77 1.11 21.67 1.19 32.45.25.34-7.31.68-14.61 1.08-21.84-13.05-.37-26.67-.55-43.14 1.33v16.92c4.18 1.57 8.45 3.08 9.57 3.33Z" fill="#3c87c8" data-color="1"/>
        <path d="M165.2 480.98h-.04a3.927 3.927 0 0 1-3.89-3.98l.27-23.65a3.93 3.93 0 0 1 3.94-3.89h.04c2.18.02 3.92 1.81 3.89 3.98l-.27 23.65a3.93 3.93 0 0 1-3.94 3.89Z" fill="#3c87c8" data-color="1"/>
        <path d="M86.68 468.12c-2.07 0-3.8-1.61-3.92-3.7a3.93 3.93 0 0 1 3.69-4.16l20.2-1.21c.79-5.15 1.18-10.36 1.18-15.58l-16.18.98c-2.08.09-4.04-1.52-4.17-3.69a3.938 3.938 0 0 1 3.69-4.17l20.26-1.23c1.11-.04 2.09.3 2.88 1.01.78.71 1.25 1.7 1.29 2.76.33 8.16-.25 16.36-1.73 24.37a3.946 3.946 0 0 1-3.64 3.22l-23.33 1.39h-.24Z" fill="#3c87c8" data-color="1"/>
        <path d="M32.38 400.36c-.29 0-.59-.03-.87-.1-5.1-1.16-8.12-2.91-10.79-4.47a3.902 3.902 0 0 1-1.95-3.18l-1.14-20.54a3.93 3.93 0 0 1 3.65-4.14l38.96-2.78c2.06-.18 3.93 1.36 4.19 3.45.98 8 1.17 16.12.58 24.14a3.936 3.936 0 0 1-3.47 3.62c-9.89 1.16-19.38 2.58-28.56 3.96-.19.03-.39.04-.58.04Zm-5.87-10.33c1.69.93 3.48 1.74 6.05 2.39 7.99-1.2 16.23-2.43 24.79-3.49.24-5.21.13-10.46-.34-15.66l-31.3 2.24.81 14.52Z" fill="#3c87c8" data-color="1"/>
        <path d="M34.39 399.73c-2.07 0-3.8-1.61-3.92-3.7l-1.39-23.38a3.937 3.937 0 0 1 3.7-4.16c2.13-.15 4.03 1.53 4.16 3.7l1.39 23.38a3.937 3.937 0 0 1-3.7 4.16h-.23Z" fill="#3c87c8" data-color="1"/>
        <path d="M15.76 294.52c-1.96 0-5.53-1-13.24-4.62a3.915 3.915 0 0 1-2.26-3.52L0 262.14a3.937 3.937 0 0 1 3.79-3.97l48.29-1.83c1.07-.06 2.09.35 2.86 1.08.77.73 1.21 1.74 1.22 2.81l.32 27.23c.02 2.07-1.56 3.8-3.62 3.97l-35.74 2.89c-.36.13-.8.21-1.36.21Zm-1.9-7.36Zm0 0Zm1.81-.55Zm-7.57-2.82c3.11 1.37 6.09 2.51 7.29 2.77.1-.02.21-.03.32-.04l32.86-2.66-.23-19.51-40.42 1.53.19 17.91Z" fill="#3c87c8" data-color="1"/>
        <path d="M16.83 293.66c-2.18 0-3.94-1.76-3.94-3.94v-27.63c0-2.18 1.76-3.94 3.94-3.94s3.94 1.76 3.94 3.94v27.63c0 2.18-1.76 3.94-3.94 3.94Z" fill="#3c87c8" data-color="1"/>
        <path d="M31.34 175.82c-.2 0-.4-.02-.6-.05-6.87-1.05-10.65-2.13-14.31-3.16a3.94 3.94 0 0 1-2.86-4.03l1.48-23.47a3.937 3.937 0 0 1 3.84-3.69l51.62-1.19c1.15.09 2.15.41 2.91 1.19.76.79 1.16 1.86 1.11 2.95l-1.43 27.47a3.968 3.968 0 0 1-1.31 2.73c-.78.7-1.81 1.05-2.86 1-12.38-.74-24.94-.66-37.32.23-.1 0-.19.01-.28.01Zm-9.71-9.93c2.59.69 5.53 1.36 9.87 2.04 11.27-.8 22.67-.94 33.96-.42l1-19.3-43.77 1.01-1.06 16.67Z" fill="#3c87c8" data-color="1"/>
        <path d="M30.17 174.08c-.12 0-.23 0-.35-.02a3.923 3.923 0 0 1-3.57-4.27l2.09-23.57c.19-2.16 2.15-3.75 4.27-3.57 2.17.19 3.77 2.1 3.57 4.27l-2.09 23.57a3.936 3.936 0 0 1-3.92 3.59Z" fill="#3c87c8" data-color="1"/>
        <path d="M113.72 85.26h-.18l-38.35-1.78c-.72-.03-1.42-.27-2.02-.67-4.62-3.12-6.83-4.28-9.17-5.5a3.932 3.932 0 0 1-2.11-3.56c.15-7.89.91-15.48 1.65-22.83.21-2.05 1.89-3.53 4.03-3.54l47.18 1.37c2.01.06 3.65 1.62 3.81 3.62.78 9.83.47 19.76-.93 29.51a3.937 3.937 0 0 1-3.89 3.37Zm-37.08-9.59 33.63 1.56c.79-6.86 1.01-13.8.65-20.71l-39.93-1.16c-.52 5.28-1 10.67-1.18 16.14 1.73.95 3.79 2.16 6.83 4.18Z" fill="#3c87c8" data-color="1"/>
        <path d="M76.73 80.83h-.18a3.94 3.94 0 0 1-3.76-4.1l1.02-23.52c.1-2.17 1.97-3.9 4.1-3.76 2.17.09 3.85 1.93 3.76 4.1l-1.02 23.53a3.93 3.93 0 0 1-3.93 3.76Z" fill="#3c87c8" data-color="1"/>
        <path d="M164.69 37.52c-.41 0-.82-.07-1.21-.19-5.54-1.79-8.49-4.07-11.08-6.07a3.926 3.926 0 0 1-1.42-4.03c2.14-8.95 2.79-15.4 3.41-21.63a3.935 3.935 0 0 1 3.7-3.54L196.52 0c1.19-.03 2.17.34 2.96 1.11.78.76 1.22 1.82 1.19 2.92l-.68 27.26a3.926 3.926 0 0 1-3.64 3.82l-31.36 2.39c-.1 0-.2.01-.3.01Zm-5.48-10.99c1.59 1.13 3.34 2.15 5.98 3.07l27.02-2.06.49-19.45-30.82 1.65c-.52 4.9-1.2 10.16-2.67 16.79Z" fill="#3c87c8" data-color="1"/>
        <path d="M165.54 34.47h-.21a3.945 3.945 0 0 1-3.73-4.14l1.23-23.53c.12-2.17 1.87-3.91 4.14-3.72 2.17.12 3.84 1.97 3.72 4.14l-1.23 23.53a3.939 3.939 0 0 1-3.93 3.73Z" fill="#3c87c8" data-color="1"/>
        <path d="M74.14 55.42a3.935 3.935 0 0 1-2.88-6.61c22.23-23.99 52.25-40.14 84.53-45.46 2.18-.38 4.17 1.1 4.52 3.24.35 2.14-1.1 4.17-3.24 4.52-30.56 5.04-58.99 20.33-80.04 43.05-.78.84-1.83 1.26-2.89 1.26Z" fill="#3c87c8" data-color="1"/>
        <path d="M28.24 148.11a3.941 3.941 0 0 1-3.89-4.61c6.86-39.52 20-58.6 36.65-82.75l1.23-1.78a3.932 3.932 0 1 1 6.48 4.46l-1.23 1.78c-16.09 23.35-28.81 41.8-35.37 79.62a3.931 3.931 0 0 1-3.87 3.26Z" fill="#3c87c8" data-color="1"/>
        <path d="M112.22 55.64c-1.04 0-2.08-.41-2.86-1.23-1.49-1.58-1.43-4.07.15-5.56 12.77-12.09 29.45-19.66 46.96-21.3 2.12-.21 4.08 1.39 4.28 3.55.2 2.16-1.39 4.08-3.55 4.28-15.76 1.47-30.78 8.28-42.28 19.17a3.92 3.92 0 0 1-2.71 1.08Z" fill="#3c87c8" data-color="1"/>
        <path d="M58.72 144.66c-.3 0-.6-.03-.91-.1a3.94 3.94 0 0 1-2.93-4.73c3.99-16.91 12.21-41.42 28.71-62.2a3.948 3.948 0 0 1 5.53-.63 3.93 3.93 0 0 1 .63 5.53c-15.6 19.63-23.41 42.98-27.21 59.11a3.937 3.937 0 0 1-3.83 3.03Z" fill="#3c87c8" data-color="1"/>
        <path d="M10.77 263.76c-2.12 0-3.87-1.68-3.93-3.82a374.1 374.1 0 0 1 8.29-90.28c.46-2.12 2.56-3.48 4.68-3.01a3.94 3.94 0 0 1 3.01 4.68c-6.28 28.99-9 58.72-8.11 88.37a3.928 3.928 0 0 1-3.82 4.05h-.12Z" fill="#3c87c8" data-color="1"/>
        <path d="M47.65 261.72c-2.13 0-3.87-1.69-3.93-3.84-.75-29.12 1.44-58.44 6.52-87.14.38-2.14 2.42-3.58 4.56-3.19 2.14.38 3.57 2.42 3.19 4.56a429.006 429.006 0 0 0-6.39 85.57 3.949 3.949 0 0 1-3.84 4.04h-.1Z" fill="#3c87c8" data-color="1"/>
        <path d="M21.55 373.42a3.93 3.93 0 0 1-3.85-3.15c-4.72-23.12-7.34-55.29-8.72-78.22a3.93 3.93 0 0 1 3.69-4.16c2.09-.13 4.04 1.52 4.16 3.69 1.36 22.67 3.94 54.45 8.57 77.11a3.934 3.934 0 0 1-3.86 4.72Z" fill="#3c87c8" data-color="1"/>
        <path d="M54.11 372.81c-1.82 0-3.46-1.27-3.85-3.13-4.03-19.22-8.66-48.56-7.9-79.23a3.94 3.94 0 0 1 3.94-3.84h.1c2.17.05 3.89 1.86 3.84 4.04-.75 29.92 3.79 58.62 7.73 77.42.45 2.13-.91 4.21-3.04 4.66-.27.06-.54.08-.81.08Z" fill="#3c87c8" data-color="1"/>
        <path d="M64.36 453.69c-1.04 0-2.08-.41-2.85-1.22-13.67-14.32-31.19-35.7-37.05-56.21-.6-2.09.61-4.27 2.7-4.87 2.09-.57 4.27.61 4.87 2.7 5.71 19.97 24.49 41.74 35.18 52.94a3.933 3.933 0 0 1-.13 5.56 3.91 3.91 0 0 1-2.72 1.09Z" fill="#3c87c8" data-color="1"/>
        <path d="M70.16 420.69a3.93 3.93 0 0 1-3.45-2.03l-11.44-20.67c-1.05-1.9-.37-4.3 1.54-5.35a3.937 3.937 0 0 1 5.35 1.54l11.44 20.67a3.932 3.932 0 0 1-3.44 5.84Z" fill="#3c87c8" data-color="1"/>
        <path d="M54.93 621.21c-1.08 0-2.22-.06-3.43-.18l-26.26-2.64c-3.34-.33-12.21-1.23-14.9-8.37-2.29-6.09 1.93-12.56 7.32-14.79 3.6-1.49 7.34-1.43 10.55-.9 22.69-96.93 48.34-206.38 74.95-313.12.52-2.11 2.66-3.39 4.77-2.87 2.11.53 3.39 2.66 2.87 4.77-26.95 108.08-52.91 218.97-75.81 316.81a3.939 3.939 0 0 1-4.9 2.89c-4.13-1.17-7.12-1.26-9.41-.32-2.07.86-3.54 3.21-2.96 4.75.65 1.73 3.37 2.81 8.32 3.31l26.26 2.64c4.39.45 7.31-.11 7.97-1.5.48-.98-.2-2.74-1.47-3.84-1.3-1.13-3.11-1.87-5.2-2.72-.83-.35-1.68-.69-2.52-1.07a3.928 3.928 0 0 1-2.21-4.45l68.84-307.54a3.94 3.94 0 0 1 4.7-2.98c2.12.47 3.45 2.58 2.98 4.7L57.26 598.13c2.29.95 4.61 1.99 6.68 3.77 4.07 3.52 5.47 8.96 3.41 13.23-1.96 4.04-6.13 6.08-12.42 6.08Z" fill="#3c87c8" data-color="1"/>
        <path d="M239.2 89.09c-1.53 0-2.97-.89-3.62-2.38-9.97-23.08-30.19-41.55-54.08-49.41a3.944 3.944 0 0 1-2.51-4.97 3.94 3.94 0 0 1 4.97-2.51c25.99 8.55 47.99 28.65 58.84 53.77.86 1.99-.06 4.31-2.05 5.17-.51.22-1.04.32-1.56.32Z" fill="#3c87c8" data-color="1"/>
        <path d="M274.55 85.54c-1.61 0-3.13-1-3.7-2.61-11.91-33.19-40.37-59.85-74.26-69.6-2.09-.6-3.29-2.78-2.69-4.87s2.78-3.3 4.87-2.69c36.28 10.43 66.74 38.97 79.5 74.5a3.935 3.935 0 0 1-3.71 5.26Z" fill="#3c87c8" data-color="1"/>
        <path d="M263.82 219.57c-2.07 0-3.8-1.62-3.92-3.71a484.412 484.412 0 0 0-14.23-91.85c-.54-2.11.73-4.25 2.84-4.78a3.91 3.91 0 0 1 4.78 2.84 491.97 491.97 0 0 1 14.46 93.34 3.922 3.922 0 0 1-3.7 4.15h-.23Z" fill="#3c87c8" data-color="1"/>
        <path d="M295.75 215.44a3.95 3.95 0 0 1-3.94-3.85c-.68-30.64-4.19-61.4-10.45-91.43a3.92 3.92 0 0 1 3.05-4.65c2.14-.46 4.21.92 4.65 3.05a510.6 510.6 0 0 1 10.61 92.86 3.934 3.934 0 0 1-3.85 4.02h-.09Z" fill="#3c87c8" data-color="1"/>
        <path d="M250.91 353.99c-.24 0-.48-.02-.73-.07a3.93 3.93 0 0 1-3.14-4.59c5.56-29.64 9.13-59.94 10.6-90.05.1-2.17 1.93-3.9 4.12-3.74 2.17.11 3.84 1.95 3.74 4.12-1.49 30.46-5.1 61.12-10.73 91.11a3.935 3.935 0 0 1-3.86 3.21Z" fill="#3c87c8" data-color="1"/>
        <path d="M289.16 350.15c-.26 0-.53-.03-.8-.08-2.13-.43-3.5-2.52-3.06-4.65 6.32-30.84 9.95-62.44 10.78-93.9.06-2.17 1.93-3.94 4.04-3.83a3.94 3.94 0 0 1 3.83 4.04c-.85 31.92-4.53 63.98-10.94 95.28a3.931 3.931 0 0 1-3.85 3.14Z" fill="#3c87c8" data-color="1"/>
        <path d="M188.54 451.82c-1.23 0-2.45-.58-3.22-1.66a3.94 3.94 0 0 1 .94-5.49c21.5-15.21 38.7-37.07 48.46-61.53a3.93 3.93 0 0 1 5.11-2.2c2.02.8 3.01 3.09 2.2 5.11-10.31 25.86-28.5 48.96-51.22 65.05-.69.49-1.49.72-2.27.72Z" fill="#3c87c8" data-color="1"/>
        <path d="M206.59 471.91c-1.49 0-2.91-.84-3.57-2.28a3.946 3.946 0 0 1 1.91-5.23c31.67-14.7 56.8-43.38 67.23-76.71a3.915 3.915 0 0 1 4.93-2.58c2.07.65 3.23 2.86 2.58 4.93-11.07 35.41-37.77 65.87-71.42 81.49-.53.25-1.1.37-1.65.37Z" fill="#3c87c8" data-color="1"/>
        <path d="M145.37 478.34c-20.13 0-40.09-2.81-59.49-8.39a3.932 3.932 0 0 1-2.69-4.87c.6-2.09 2.78-3.29 4.87-2.69 21.71 6.24 44.15 8.89 66.76 7.87 1.98-.15 4.01 1.58 4.11 3.75.1 2.17-1.58 4.01-3.75 4.11-3.27.15-6.54.22-9.8.22Z" fill="#3c87c8" data-color="1"/>
        <path d="M146.48 458.1c-11.91 0-23.8-1.24-35.42-3.69a3.94 3.94 0 0 1-3.04-4.67 3.937 3.937 0 0 1 4.67-3.04c12.85 2.71 26.06 3.85 39.21 3.44 2.2-.25 3.99 1.62 4.06 3.8a3.933 3.933 0 0 1-3.8 4.06c-1.89.07-3.79.1-5.68.1Z" fill="#3c87c8" data-color="1"/>
        <path d="M124.64 296.49c-1.71 0-3.44-.25-5.16-.78-8.47-2.61-14.16-10.94-16.46-24.08a105.155 105.155 0 0 1-.29-34.64c.95-6.03 2.86-14.87 8.42-21.89 5.86-7.41 14.84-11.08 22.9-9.38 11.7 2.49 14.42 16.94 16.22 26.5l.08.47c1.87 9.92 1.1 19.91.22 28.5-.83 8.16-2.03 16.74-6.75 24.05-3.96 6.12-11.34 11.25-19.17 11.25Zm5.38-83.31c-5.04 0-9.86 3.21-12.71 6.81-3.36 4.25-5.52 10.04-6.81 18.24a97.39 97.39 0 0 0 .27 32.05c1 5.73 3.77 15.68 11.03 17.92 5.8 1.78 12.27-2.38 15.4-7.23 3.77-5.83 4.8-13.36 5.53-20.57 1.01-9.97 1.38-18.25-.12-26.25l-.09-.47c-1.49-7.96-3.55-18.86-10.12-20.25-.8-.17-1.59-.25-2.38-.25Z" fill="#3c87c8" data-color="1"/>
        <path d="M126.57 290.89c-.44 0-.88-.07-1.32-.23a3.936 3.936 0 0 1-2.39-5.03c8.27-23.3 7.61-49.78-1.81-72.64-.83-2.01.13-4.31 2.14-5.14 2-.81 4.31.13 5.14 2.14 10.15 24.63 10.86 53.16 1.95 78.27a3.94 3.94 0 0 1-3.71 2.62Z" fill="#3c87c8" data-color="1"/>
        <path d="M180.11 451.59a3.93 3.93 0 0 1-3.85-3.13l-35.1-167.67c-.45-2.13.92-4.21 3.04-4.66 2.14-.45 4.21.92 4.66 3.04l35.1 167.67c.45 2.13-.92 4.21-3.04 4.66-.27.06-.55.08-.81.08Z" fill="#3c87c8" data-color="1"/>
        <path d="M162.15 449.85c-1.82 0-3.45-1.27-3.85-3.12l-32.66-154c-.45-2.13.91-4.21 3.04-4.67 2.12-.45 4.22.91 4.67 3.04l32.66 154c.45 2.13-.91 4.21-3.04 4.67a3.8 3.8 0 0 1-.82.08Z" fill="#3c87c8" data-color="1"/>
        <path d="M187.62 620.09c-3.9 0-8.2-.5-11.99-2.71-3.57-2.07-6.2-5.9-6.87-9.99-.55-3.37.3-6.53 2.4-8.9.53-.6 1.22-1.02 1.99-1.21l7.17-1.78c-3.09-38.45-9.74-78.67-16.17-117.61a3.937 3.937 0 0 1 3.24-4.52c2.18-.39 4.17 1.1 4.52 3.24 6.65 40.22 13.52 81.81 16.51 121.61a3.941 3.941 0 0 1-2.97 4.12l-8.87 2.21c-.14.46-.16.99-.07 1.59.28 1.74 1.53 3.57 3.04 4.44 3.26 1.89 7.67 1.77 12.68 1.45l14.91-.97c5.15-.33 8.11-1.43 8.8-3.25.64-1.69-1.01-4.09-2.92-5.09-2.78-1.47-6.59-1.48-9.96-1.49-1.94 0-3.59-1.43-3.88-3.35l-17.39-116.5a3.931 3.931 0 0 1 3.31-4.47c2.14-.28 4.15 1.16 4.47 3.31l16.9 113.2c3.29.13 6.91.6 10.21 2.34 5 2.64 8.84 8.91 6.61 14.83-2.83 7.5-12.49 8.12-15.66 8.33l-14.91.97c-1.56.1-3.3.21-5.14.21Z" fill="#3c87c8" data-color="1"/>
        <path d="M46.87 311.79c-1.33 0-2.62-.67-3.36-1.88a3.93 3.93 0 0 1 1.3-5.41l58.15-35.61a3.93 3.93 0 0 1 5.41 1.3c1.14 1.85.55 4.28-1.3 5.41l-58.15 35.61c-.64.39-1.35.58-2.05.58Z" fill="#3c87c8" data-color="1"/>
        <path d="M102.52 230.83c-.49 0-.99-.09-1.47-.28a394.348 394.348 0 0 1-50.71-24.79 3.937 3.937 0 0 1 3.95-6.81A389.22 389.22 0 0 0 104 223.24c2.01.81 2.99 3.11 2.18 5.12a3.935 3.935 0 0 1-3.65 2.46Z" fill="#3c87c8" data-color="1"/>
        <path d="M120.31 214.38c-1.8 0-3.43-1.25-3.84-3.08L88.14 83.9c-.47-2.12.87-4.22 2.99-4.7 2.12-.45 4.22.86 4.7 2.99l28.33 127.4c.47 2.12-.87 4.22-2.99 4.7-.29.06-.57.09-.86.09Z" fill="#3c87c8" data-color="1"/>
        <path d="M135.78 212.48c-.24 0-.49-.02-.74-.07a3.921 3.921 0 0 1-3.13-4.6l33.26-175.23c.4-2.13 2.43-3.53 4.6-3.13 2.14.4 3.54 2.46 3.13 4.6l-33.26 175.23a3.934 3.934 0 0 1-3.86 3.2Z" fill="#3c87c8" data-color="1"/>
        <path d="M147.1 227.72c-1.05 0-2.1-.42-2.87-1.25a3.934 3.934 0 0 1 .19-5.56c33.6-31.39 65.59-65.2 95.08-100.5a3.954 3.954 0 0 1 5.55-.5 3.945 3.945 0 0 1 .5 5.55c-29.7 35.54-61.92 69.59-95.75 101.2-.76.71-1.72 1.06-2.69 1.06Z" fill="#3c87c8" data-color="1"/>
        <path d="M146.94 246.04c-2.06 0-3.8-1.61-3.92-3.69a3.938 3.938 0 0 1 3.69-4.17l100.28-6.14c2.28-.1 4.04 1.52 4.17 3.69a3.938 3.938 0 0 1-3.69 4.17l-100.28 6.14h-.25Z" fill="#3c87c8" data-color="1"/>
        <path d="M235.06 362.39c-.96 0-1.92-.35-2.68-1.05l-90.58-84.12a3.935 3.935 0 0 1 5.36-5.76l90.58 84.12a3.935 3.935 0 0 1 .2 5.56c-.77.83-1.83 1.26-2.88 1.26Z" fill="#3c87c8" data-color="1"/>
        <path d="M60.76 383.46c-.89 0-1.79-.3-2.53-.92-1.66-1.4-1.88-3.89-.48-5.55a371.336 371.336 0 0 0 32.53-45.14 3.915 3.915 0 0 1 5.41-1.3 3.921 3.921 0 0 1 1.3 5.41 380.064 380.064 0 0 1-33.21 46.1c-.78.93-1.89 1.4-3.02 1.4Z" fill="#3c87c8" data-color="1"/>
        <path d="M126.24 450.7h-.06a3.94 3.94 0 0 1-3.88-3.99l2.25-153.22a3.942 3.942 0 0 1 3.94-3.88h.06c2.18.03 3.91 1.82 3.88 3.99l-2.25 153.22a3.942 3.942 0 0 1-3.94 3.88Z" fill="#3c87c8" data-color="1"/>
    </g>
</svg>
