<?xml version="1.0" encoding="UTF-8"?>
<svg data-bbox="-0.002 -0.008 283.639 556.858" viewBox="0 0 283.67 556.84" xmlns="http://www.w3.org/2000/svg" data-type="color">
    <g>
        <path d="M124.71 49.44c-2.1 3.5-4.12 7.11-5.06 11.08-.94 3.97-.67 8.39 1.58 11.79 2.12 3.2 5.71 5.13 9.33 6.43 14.64 5.25 32.11 1.49 43.31-9.3-3.45 1.45-7.03 2.83-10.77 2.95-3.74.11-7.73-1.27-9.83-4.37-2.1-3.1-1.55-7.99 1.23-10.65a50.636 50.636 0 0 0-20.08 10.9c-3.26-5.4-5.74-11.27-9.7-18.82Z" fill="#3c87c8" data-color="1"/>
        <path d="M122.59 282.8c9.02 1.18 18.49-4.4 21.84-12.86.19 2.07.41 4.2 1.37 6.05.97 1.84 2.89 3.35 4.96 3.18s3.85-2.55 2.93-4.42c1.41 5.25 7.34 7.65 12.52 9.3-12.85 3.61-26.71 3.52-43.62-1.25Z" fill="#3c87c8" data-color="1"/>
        <path d="M21.9 240.11c4.53 1.05 9.42.45 13.56-1.67 2 5.18 7.06 9.05 12.58 9.63-4.21.51-8.46 1.01-12.67.49-4.21-.52-8.42-2.17-13.47-8.46Z" fill="#3c87c8" data-color="1"/>
        <path d="M128.82 556.84c-22.65 0-44.96-2.93-66.13-8.77a3.935 3.935 0 0 1-2.79-4.67c5.85-25.63 26.08-44.94 52.01-49.99l8.55-192.79c.1-2.18 2.03-3.94 4.1-3.76a3.94 3.94 0 0 1 3.76 4.1l-8.69 195.97a3.922 3.922 0 0 1-3.36 3.72c-22.94 3.35-41.3 19.2-47.73 40.83 33.71 8.69 70.29 9.84 106.28 3.36-3.2-21.05-22.91-41.53-44.74-45.76a3.93 3.93 0 0 1-3.18-4.02l7.81-192.53c.08-2.17 1.74-3.95 4.09-3.77 2.17.09 3.86 1.92 3.77 4.09l-7.68 189.26c24.9 6.52 46.58 31.25 48.16 55.68a3.933 3.933 0 0 1-3.18 4.12c-16.97 3.3-34.11 4.94-51.05 4.94Z" fill="#3c87c8" data-color="1"/>
        <path d="M140.7 304.54c-5.28 0-10.53-.35-15.74-1.06-14.3-1.94-24.55-6.56-31.33-14.13-4.85-5.41-7.21-12.65-6.32-19.37.62-4.69 3.1-11.4 11.33-16.75a3.94 3.94 0 0 1 4.32.02c1.31.86 1.98 2.42 1.7 3.97-.91 5.12 2.5 10.78 7.46 12.35 4.96 1.58 11.01-1.07 13.22-5.78 1.96-4.18 1.23-9.3.45-14.71-.51-3.55-1.03-7.22-.87-10.95.39-9.1 5.27-17.99 12.74-23.21 7.46-5.23 17.48-6.77 26.17-4.02a3.93 3.93 0 0 1 2.69 3.07c.25 1.44-.32 2.91-1.49 3.8-6.23 4.76-8.48 13.46-10.24 21.96-.74 3.55-1.26 6.49-.71 9.16.41 2 1.8 4.22 3.67 4.57.55.12 1.41-.2 1.94-.73.25-.25.41-.54.38-.69a3.933 3.933 0 0 1 4.49-4.65c5.06.83 9.52 4.37 11.93 9.48.62 1.31 1.07 2.66 1.36 4.02 1.83-2.61 2.94-5.73 3.07-8.92.04-1.11.56-2.16 1.42-2.87.86-.71 1.99-1.01 3.09-.86 9.41 1.4 16.8 10.56 16.84 20.86.03 8.54-4.66 17.18-12.53 23.12-7.61 5.74-16.91 8.2-23.25 9.55-8.61 1.84-17.23 2.76-25.77 2.76Zm-43.08-39.76c-1.36 1.91-2.21 4.01-2.51 6.24-.59 4.47 1.05 9.36 4.38 13.08 5.48 6.11 14.15 9.9 26.53 11.58 12.71 1.73 25.77 1.19 38.81-1.6 5.6-1.2 13.78-3.34 20.14-8.14 5.91-4.46 9.42-10.74 9.4-16.81-.02-4.79-2.71-9.41-6.4-11.7-1.88 7.03-6.91 13.23-13.54 16.28-1.55.71-3.41.35-4.56-.93a3.922 3.922 0 0 1-.48-4.63c1.28-2.19 1.26-5.15-.04-7.92-.69-1.47-1.66-2.69-2.79-3.58-.37.58-.81 1.12-1.31 1.63-2.39 2.41-5.85 3.52-9 2.92-4.8-.92-8.77-5.23-9.89-10.73-.91-4.47 0-8.83.71-12.33 1.45-6.99 3.35-14.63 7.59-20.72-4.44.05-8.88 1.41-12.51 3.95-5.5 3.85-9.1 10.4-9.39 17.11-.13 3 .32 6.15.8 9.49.91 6.32 1.84 12.86-1.11 19.17-3.87 8.24-14.07 12.7-22.73 9.94-5.76-1.83-10.23-6.64-12.11-12.3Z" fill="#3c87c8" data-color="1"/>
        <path d="M233.9 253.51c-2.49 0-4.97-.37-7.34-1.14-11.21-3.66-18.52-16.19-15.97-27.37.78-3.4 2.27-6.36 3.72-9.22.85-1.68 1.65-3.26 2.28-4.87 1.18-3.06 1.77-7.42-.48-9.64-1-.99-1.4-2.43-1.05-3.79a3.956 3.956 0 0 1 2.76-2.81c4.15-1.14 8.71-.3 12.54 2.29 3.84 2.6 6.31 6.53 6.78 10.79.19 1.75.07 3.43-.04 4.91-.07.94-.14 1.88-.11 2.82.05 1.51.58 2.66 1.05 2.89.65.3 2.4-.57 3.68-2.22.57-.74 1.08-1.54 1.59-2.33 1.36-2.11 2.91-4.5 5.43-6.24a3.942 3.942 0 0 1 5.34.82c7.96 10.23 8.86 23.23 2.31 33.14-4.96 7.49-13.81 11.97-22.49 11.97Zm-8.61-50.43c.56 3.64-.14 7.51-1.36 10.68-.76 1.97-1.69 3.8-2.59 5.57-1.29 2.55-2.51 4.96-3.07 7.42-1.66 7.25 3.37 15.73 10.74 18.14 7.37 2.39 16.32-.91 20.81-7.69 3.85-5.82 4-13.26.62-19.91-.17.27-.35.53-.53.81-.63.98-1.26 1.95-1.96 2.86-2.98 3.87-8.44 6.91-13.39 4.48-3.25-1.59-5.28-5.21-5.44-9.67-.05-1.22.04-2.45.13-3.67.09-1.25.18-2.44.06-3.47-.22-1.93-1.48-3.86-3.37-5.14-.21-.15-.43-.28-.65-.4Z" fill="#3c87c8" data-color="1"/>
        <path d="M255.73 171.15h-.4c-6.1-.1-11.65-2.22-15.62-5.98-5.84-5.53-8.14-14.77-6-24.11 1.81-7.88 6.23-14.76 10.13-20.83a3.944 3.944 0 0 1 4.88-1.48c4.14 1.81 6.08 6.68 6.13 10.43v1.31c-.01 1.2-.03 3.02.37 3.42.34.12 1.74-.37 2.33-1.39.95-1.61 1.1-3.92 1.26-6.36.04-.64.08-1.28.14-1.91.69-7.85 3.5-15.38 8.11-21.77a3.935 3.935 0 0 1 5.33-1 3.931 3.931 0 0 1 1.25 5.28c-2.46 4.22-.12 10.18 1.01 12.54.86 1.8 1.86 3.53 2.85 5.27 1.85 3.22 3.76 6.54 4.93 10.35 2.6 8.4.93 17.99-4.34 25.02-5.19 6.93-13.74 11.19-22.39 11.19Zm-8.74-41.14c-2.44 4.09-4.58 8.32-5.61 12.8-1.5 6.53-.03 13.06 3.74 16.64 2.5 2.37 6.26 3.76 10.33 3.82h.29c6.21 0 12.36-3.06 16.09-8.04 3.79-5.05 4.98-11.94 3.12-17.98-.92-2.97-2.53-5.78-4.24-8.75-1.1-1.91-2.19-3.82-3.14-5.8l-.36-.78c-.18 1-.31 2.02-.4 3.04l-.13 1.75c-.21 3.09-.44 6.59-2.32 9.8-1.61 2.76-4.7 4.81-7.86 5.21-2.63.34-5.09-.47-6.87-2.26-2.7-2.73-2.67-6.37-2.64-9.02v-.42Z" fill="#3c87c8" data-color="1"/>
        <path d="M197.8 263.96c-1.6 0-3.11-.98-3.69-2.57-.75-2.04.29-4.3 2.33-5.06 8.03-2.96 15.59-7.6 21.87-13.42a3.926 3.926 0 0 1 5.56.21 3.935 3.935 0 0 1-.21 5.56c-7.04 6.51-15.5 11.71-24.49 15.03-.45.17-.91.24-1.36.24Z" fill="#3c87c8" data-color="1"/>
        <path d="M199.87 279.66c-1.6 0-3.11-.98-3.69-2.57-.75-2.04.29-4.3 2.33-5.06a80.35 80.35 0 0 0 31.97-21.77 3.948 3.948 0 0 1 5.56-.32 3.948 3.948 0 0 1 .32 5.56 88.247 88.247 0 0 1-35.11 23.91c-.45.17-.91.24-1.36.24Z" fill="#3c87c8" data-color="1"/>
        <path d="M236.76 221.85a3.928 3.928 0 0 1-3.25-6.13c9.55-14.19 14.6-31.42 14.21-48.53a3.933 3.933 0 0 1 3.85-4.02h.09c2.13 0 3.89 1.7 3.94 3.85.42 18.72-5.1 37.58-15.56 53.1-.76 1.13-2 1.74-3.27 1.74Z" fill="#3c87c8" data-color="1"/>
        <path d="M255.86 221.43c-.55 0-1.11-.12-1.64-.36a3.94 3.94 0 0 1-1.93-5.22c7.17-15.55 11.05-32.83 11.22-49.96a3.94 3.94 0 0 1 3.94-3.9h.04c2.18.02 3.92 1.8 3.9 3.97-.18 18.24-4.32 36.63-11.94 53.18a3.937 3.937 0 0 1-3.58 2.29Z" fill="#3c87c8" data-color="1"/>
        <path d="M144.54 97.47c-1.28 0-2.59-.03-3.9-.09-10.62-.47-19.15-2.61-26.05-6.52-9.02-5.12-15.15-13.54-16.38-22.53-1.84-13.38 6.68-25.13 13.53-34.56 6.78-9.35 12.72-19.31 10.25-28.85a3.95 3.95 0 0 1 1.09-3.84 3.922 3.922 0 0 1 3.88-.91c9.35 2.89 17.01 12.18 19.06 23.11.77 4.11.83 8.22.48 12.26 3.96-3.32 8.6-5.83 13.59-7.28 1.57-.47 3.26.11 4.25 1.42.98 1.31 1.05 3.1.17 4.48-1.38 2.16-1.63 5.15-.67 7.99.96 2.84 2.96 5.07 5.36 5.95 2.4.89 5.37.5 7.94-1.04 2.57-1.54 4.32-3.97 4.68-6.51a3.95 3.95 0 0 1 2.72-3.21c1.44-.46 3.03-.04 4.07 1.08 12.01 12.95 7.59 34.25-3.9 45.26-9.33 8.95-23.49 13.79-40.15 13.79Zm-14.17-86.55c-.54 9.86-6.32 19.28-12.27 27.47-6.33 8.73-13.51 18.63-12.11 28.87.91 6.58 5.57 12.84 12.47 16.76 5.8 3.29 13.16 5.09 22.51 5.51 9.38.42 26.8-.53 38.26-11.52 7.27-6.97 10.86-19.34 7.07-28.7-1.36 1.76-3.1 3.29-5.15 4.51-4.66 2.79-10.02 3.4-14.71 1.67-4.68-1.73-8.36-5.67-10.09-10.83-.65-1.93-.98-3.89-1-5.81-5.23 3.14-9.49 7.87-11.96 13.48a3.936 3.936 0 0 1-7.44-2.46c1.89-8.33 3.85-16.94 2.31-25.13-1.04-5.52-4.02-10.56-7.91-13.82Z" fill="#3c87c8" data-color="1"/>
        <path d="M31.78 145.49c-5.25 0-10.63-1.38-15.54-4.07C8.6 137.23 3.03 130.39.95 122.64c-4.34-16.21 6.6-34.46 23.9-39.86 1.4-.45 2.93-.06 3.97.98 1.03 1.04 1.4 2.57.95 3.97-1.59 4.97-3.4 10.59-2.71 15.71.55 4.09 3.5 8.57 7.46 8.97 2.44.27 4.38-1.35 5.28-2.32 2.09-2.26 3.11-5.5 2.61-8.27a3.94 3.94 0 0 1 2.21-4.27c1.61-.75 3.54-.32 4.69 1.05 7.12 8.58 10.31 16.84 9.46 24.54-1.04 9.43-8.48 17.9-18.5 21.06-2.73.86-5.6 1.29-8.51 1.29Zm-11.92-51.6c-8.84 6.12-13.88 17.09-11.3 26.7 1.53 5.68 5.71 10.76 11.47 13.92 5.76 3.16 12.29 3.96 17.9 2.18 6.99-2.2 12.35-8.14 13.04-14.42.37-3.39-.46-7.07-2.5-11-.76 1.5-1.72 2.9-2.87 4.15-3.22 3.49-7.55 5.23-11.85 4.82-8.22-.82-13.5-8.54-14.48-15.74-.49-3.66-.13-7.21.59-10.61Z" fill="#3c87c8" data-color="1"/>
        <path d="M45.74 266.99h-.48c-13.53-.16-26.89-7.06-34.86-18-8.69-11.94-9.98-27.27-4.18-49.69.54-2.11 2.69-3.39 4.79-2.83 2.11.54 3.37 2.69 2.83 4.79-1.54 5.98.23 12.74 4.41 16.82 4.27 4.17 11.11 5.46 16.27 3.08 5.17-2.38 8.39-8.65 7.18-13.97-.38-1.68.38-3.42 1.87-4.28 1.49-.87 3.37-.66 4.64.51 6.71 6.19 9.76 15.96 7.78 24.88-.12.53-.26 1.07-.4 1.61-.41 1.63-.81 3.16-.49 4.09.16.47.62.8 1.38.97 1.53.35 3.47-.18 4.47-1.22 2.46-2.54 3.01-6.72 3.43-11.53a3.949 3.949 0 0 1 2.36-3.27 3.96 3.96 0 0 1 4 .52c9.2 7.26 11.14 22.34 4.25 32.93-5.86 9.02-17.05 14.57-29.26 14.57Zm-35.15-45.71c-.32 9.52 1.71 16.96 6.17 23.07 6.53 8.98 17.48 14.63 28.58 14.76h.38c9.45 0 18.32-4.29 22.69-10.99 2.98-4.58 3.59-10.5 2.08-15.42-.81 2.34-2.01 4.62-3.87 6.54-2.89 2.99-7.64 4.36-11.84 3.42-3.46-.78-6.05-3.01-7.11-6.11-1.07-3.15-.3-6.16.32-8.57.12-.47.23-.92.34-1.38.64-2.87.5-5.94-.3-8.82-2.02 4.53-5.6 8.42-10.18 10.53-8.13 3.76-18.43 1.87-25.06-4.59a22.7 22.7 0 0 1-2.16-2.44Z" fill="#3c87c8" data-color="1"/>
        <path d="M88.73 274.88c-.21 0-.42-.02-.64-.05-9.52-1.55-18.31-7.32-23.53-15.43-1.17-1.83-.64-4.27 1.18-5.44 1.83-1.18 4.26-.64 5.44 1.18 4.02 6.27 10.82 10.73 18.17 11.92 2.14.35 3.6 2.37 3.25 4.52a3.943 3.943 0 0 1-3.88 3.3Z" fill="#3c87c8" data-color="1"/>
        <path d="M92.54 288.09h-.24c-16.4-.98-32.46-9.1-42.96-21.73a3.934 3.934 0 0 1 .51-5.54 3.933 3.933 0 0 1 5.54.51c9.14 10.99 23.12 18.05 37.38 18.91a3.93 3.93 0 0 1 3.69 4.16 3.931 3.931 0 0 1-3.92 3.7Z" fill="#3c87c8" data-color="1"/>
        <path d="M36.77 225.44a3.96 3.96 0 0 1-3.62-2.37c-10.92-25.23-11.75-54.5-2.27-80.31a3.936 3.936 0 0 1 7.39 2.71c-8.79 23.93-8.02 51.08 2.11 74.47.86 1.99-.05 4.31-2.05 5.18-.51.22-1.04.32-1.56.32Z" fill="#3c87c8" data-color="1"/>
        <path d="M26.8 229.13c-1.42 0-2.8-.77-3.5-2.12-14-27-16.58-60.32-6.89-89.15a3.95 3.95 0 0 1 4.98-2.48c2.06.7 3.17 2.92 2.48 4.98-9.03 26.84-6.63 57.88 6.41 83.02 1 1.93.25 4.3-1.68 5.31-.58.3-1.2.44-1.81.44Z" fill="#3c87c8" data-color="1"/>
        <path d="M26.55 109.4a3.933 3.933 0 0 1-3.41-5.89c16.6-28.96 45.9-50.86 78.39-58.59a3.936 3.936 0 1 1 1.82 7.66c-30.41 7.23-57.84 27.73-73.38 54.84a3.932 3.932 0 0 1-3.42 1.98Z" fill="#3c87c8" data-color="1"/>
        <path d="M48.14 104.92c-.74 0-1.49-.21-2.16-.65a3.938 3.938 0 0 1-1.13-5.45c12.78-19.46 33.12-33.64 55.78-38.9 2.13-.5 4.23.82 4.72 2.94.49 2.12-.83 4.23-2.94 4.72-20.72 4.81-39.31 17.77-50.99 35.56a3.94 3.94 0 0 1-3.29 1.78Z" fill="#3c87c8" data-color="1"/>
        <path d="M265.32 117.98a3.93 3.93 0 0 1-3.55-2.24c-14.38-30.1-37.65-49.89-71.15-60.52a3.935 3.935 0 0 1-2.56-4.94 3.918 3.918 0 0 1 4.94-2.56c35.19 11.16 60.72 32.9 75.87 64.63a3.932 3.932 0 0 1-3.55 5.63Z" fill="#3c87c8" data-color="1"/>
        <path d="M255.86 139.94c-1.88 0-3.55-1.36-3.87-3.27-5.84-34.26-35.77-59.38-62.31-66.5a3.934 3.934 0 0 1-2.78-4.82 3.93 3.93 0 0 1 4.82-2.78c28.96 7.76 61.63 35.25 68.02 72.77a3.93 3.93 0 0 1-3.22 4.54c-.22.04-.45.06-.66.06Z" fill="#3c87c8" data-color="1"/>
        <path d="M147.49 83.73c-3.85 0-8.06-.42-12.76-1.26-5.7-1.01-12.75-2.92-16.74-8.72-2.91-4.22-3.67-9.98-2.09-15.83 1.3-4.81 3.89-9.02 6.18-12.73.86-1.4 2.5-2.13 4.14-1.79 1.62.33 2.86 1.63 3.11 3.26 1.09 7.15 3.78 12.74 8.19 16.98 4.4-4.44 9.91-7.85 15.86-9.75 1.53-.48 3.22 0 4.23 1.25a3.922 3.922 0 0 1 .4 4.4c-1.71 3.11-2.28 5.17-1.68 6.13.62 1 3.04 1.18 5.4.44.91-.29 1.81-.64 2.7-.99 2.68-1.04 5.73-2.24 9.18-2.03 1.35.08 2.57.84 3.22 2.03.65 1.19.65 2.62 0 3.81-3.72 6.73-10.81 11.73-19.46 13.72-3.07.71-6.33 1.06-9.89 1.06Zm-23.25-25.97c-.29.74-.54 1.48-.74 2.23-.96 3.55-.6 7.03.97 9.31 2.34 3.39 7.45 4.69 11.64 5.43 7.96 1.42 14.15 1.5 19.5.27.73-.17 1.44-.36 2.13-.58-3.14-.24-6.2-1.53-8.09-4.55-.99-1.58-1.38-3.24-1.41-4.87-2.76 1.8-5.23 4.03-7.27 6.58a3.932 3.932 0 0 1-5.41.71c-5.1-3.75-8.88-8.62-11.33-14.53Z" fill="#3c87c8" data-color="1"/>
        <path d="M144.85 291.48c-8.47 0-16.98-1.63-25.12-4.9a3.93 3.93 0 0 1-2.33-4.69 3.95 3.95 0 0 1 4.39-2.85c7.97 1.23 16.61-3.68 19.83-11.07.17-.55.38-1.08.64-1.61.9-1.88 3.12-2.72 5.04-1.94 1.93.79 2.91 2.95 2.23 4.92-.15.42-.3.84-.47 1.25-.37 1.48 0 3.11.93 3.74.17.11.58.18 1.06.07.48-.12.75-.35.83-.45.12-2.16 2.03-3.87 4.11-3.72a3.94 3.94 0 0 1 3.75 4.1v.04c-.08 1.93 2.42 4.02 5.06 4.23 3.35.28 6.95-1.45 10.31-3.35a3.956 3.956 0 0 1 5.35 1.46c1.08 1.87.45 4.26-1.41 5.36-10.59 6.25-22.35 9.42-34.19 9.42Zm-6.8-8.27c5.86.69 11.76.48 17.54-.6-.37-.35-.73-.72-1.05-1.11-2.97 1.3-6.43 1.06-8.95-.64a9.266 9.266 0 0 1-2.08-1.92 27.9 27.9 0 0 1-5.46 4.27Z" fill="#3c87c8" data-color="1"/>
        <path d="M39.87 254.13c-1.44 0-2.89-.13-4.31-.38-8.01-1.43-14.1-6.71-18.63-16.15a3.94 3.94 0 0 1 1.65-5.15c1.83-1 4.12-.41 5.23 1.36.98 1.56 2.9 2.48 4.73 2.57 1.85-.03 3.72-1.12 4.65-2.72.81-1.4 2.39-2.14 4-1.9 1.6.25 2.88 1.45 3.24 3.04.55 2.47 2.19 4.73 4.37 6.02 2.19 1.29 4.96 1.63 7.39.92 1.8-.55 3.72.28 4.6 1.95a3.94 3.94 0 0 1-1.01 4.89c-4.46 3.6-10.18 5.56-15.9 5.56Zm-8.29-10.27c1.98 1.34 3.84 1.87 5.36 2.14.63.11 1.26.19 1.89.23a17.137 17.137 0 0 1-3.57-3.89c-1.15.68-2.39 1.2-3.67 1.52Z" fill="#3c87c8" data-color="1"/>
        <path d="M127 542.24c-19.76 0-39.51-2.82-58.06-8.37a3.928 3.928 0 0 1-2.64-4.9c.62-2.08 2.8-3.27 4.9-2.64 24.26 7.24 50.66 9.65 76.35 6.97 2.23-.23 4.1 1.34 4.32 3.5.23 2.16-1.34 4.1-3.5 4.32-7.09.75-14.23 1.11-21.37 1.11Z" fill="#3c87c8" data-color="1"/>
        <path d="M157.95 539.79c-2.01 0-3.73-1.53-3.92-3.58-.2-2.16 1.4-4.08 3.56-4.28 5.03-.46 9.99-1.53 14.75-3.2 2.06-.71 4.3.37 5.02 2.42.71 2.05-.36 4.3-2.42 5.02a69.468 69.468 0 0 1-16.63 3.61c-.12.01-.24.02-.36.02Z" fill="#3c87c8" data-color="1"/>
    </g>
</svg>
