<?xml version="1.0" encoding="UTF-8"?>
<svg data-bbox="0 0.001 298.11 231.899" viewBox="0 0 298.11 231.9" xmlns:xlink="http://www.w3.org/1999/xlink" xmlns="http://www.w3.org/2000/svg" data-type="ugc">
    <g>
        <defs>
            <linearGradient gradientUnits="userSpaceOnUse" y2="156.26" x2="279.66" y1="215.34" x1="279.66" id="edb126cf-80da-4725-819a-16a87d8a7c09">
                <stop stop-color="#ffb8bd" offset="0"/>
                <stop stop-color="#ffeab8" offset="1"/>
            </linearGradient>
            <linearGradient gradientUnits="userSpaceOnUse" y2="210.58" x2="279.96" y1="210.58" x1="272.51" id="3dd28acc-fe1f-4899-ac57-f85cccb8bdd4">
                <stop stop-color="#ff7566" offset="0"/>
                <stop stop-color="#ff1144" offset=".99"/>
            </linearGradient>
            <linearGradient xlink:href="#3dd28acc-fe1f-4899-ac57-f85cccb8bdd4" y2="187.94" x2="283.81" y1="187.94" x1="272.95" id="670ac8ef-ece4-446c-9a4d-bc2a08e27473"/>
            <linearGradient xlink:href="#3dd28acc-fe1f-4899-ac57-f85cccb8bdd4" y2="164.64" x2="286.82" y1="164.64" x1="273.59" id="c7671252-c241-4ced-bfee-f0efd50d7ba3"/>
            <linearGradient gradientUnits="userSpaceOnUse" y2="50.34" x2="103.17" y1="215.73" x1="103.17" id="9ddbc9d0-7766-45a4-964a-96e58cdd1869">
                <stop stop-color="#ff9d31" offset="0"/>
                <stop stop-color="#ffcc1b" offset="1"/>
            </linearGradient>
            <linearGradient gradientUnits="userSpaceOnUse" y2="160.97" x2="103.24" y1="166.65" x1="103.24" id="f6835676-18e0-4dc4-8909-7982a62a0e3a">
                <stop stop-color="#890050" offset="0"/>
                <stop stop-color="#db6d57" offset="1"/>
            </linearGradient>
            <linearGradient xlink:href="#f6835676-18e0-4dc4-8909-7982a62a0e3a" y2="148.86" x2="103.66" y1="151.84" x1="103.66" id="ed13a4b5-1b15-4253-96ac-d2a217a781de"/>
            <linearGradient gradientUnits="userSpaceOnUse" y2="140.25" x2="216.88" y1="215.73" x1="216.88" id="ddb5c0bf-a77d-4ff9-9f5e-90f871f18524">
                <stop stop-color="#d85239" offset="0"/>
                <stop stop-color="#e25b36" offset="1"/>
            </linearGradient>
            <linearGradient xlink:href="#f6835676-18e0-4dc4-8909-7982a62a0e3a" y2="164.01" x2="261.62" y1="164.01" x1="174.58" id="e57bb533-e061-4716-9fda-92cfe23ad76d"/>
            <linearGradient xlink:href="#edb126cf-80da-4725-819a-16a87d8a7c09" y2="151.89" x2="184.93" y1="215.44" x1="184.93" id="d85e4d4d-c6af-44e1-85b3-08000186b46f"/>
            <linearGradient xlink:href="#3dd28acc-fe1f-4899-ac57-f85cccb8bdd4" y2="200.22" x2="187.91" y1="200.22" x1="177.31" id="0481f329-daa3-4caa-8699-d9bd6496da33"/>
            <linearGradient xlink:href="#3dd28acc-fe1f-4899-ac57-f85cccb8bdd4" y2="173.01" x2="192.18" y1="173.01" x1="177.89" id="d3c6da6c-1403-45d4-a0db-cba62e91f2e4"/>
            <linearGradient xlink:href="#f6835676-18e0-4dc4-8909-7982a62a0e3a" y2="155.55" x2="185.54" y1="214.96" x1="185.54" id="ca13ec47-8364-4d8c-a8d2-d25d8bb0c9d6"/>
            <linearGradient gradientUnits="userSpaceOnUse" y2="17.39" x2="94.38" y1="158.68" x1="94.38" id="1bc5c940-cb7e-4c41-84e3-35c2ace4d822">
                <stop stop-color="#2d60aa" offset="0"/>
                <stop stop-color="#54a7d1" offset="1"/>
            </linearGradient>
            <linearGradient gradientUnits="userSpaceOnUse" y2="17.39" x2="197.92" y1="156.51" x1="197.92" id="9b656496-8605-4a27-95e3-c6021c4eb7cd">
                <stop stop-color="#0041a0" offset="0"/>
                <stop stop-color="#17479d" offset="1"/>
            </linearGradient>
            <linearGradient gradientUnits="userSpaceOnUse" y2="62.72" x2="239.48" y1="62.72" x1="165.81" id="4e195363-1673-43ca-addc-ceb71f201263">
                <stop stop-color="#524f72" offset="0"/>
                <stop stop-color="#ae96a9" offset="1"/>
            </linearGradient>
            <linearGradient gradientUnits="userSpaceOnUse" y2="123.4" x2="154.68" y1="123.4" x1="48.64" id="b05d7af8-6105-4ad5-b1de-1e59df8c0aa5">
                <stop stop-color="#a98940" offset=".02"/>
                <stop stop-color="#704800" offset="1"/>
            </linearGradient>
            <linearGradient xlink:href="#f6835676-18e0-4dc4-8909-7982a62a0e3a" y2="185.8" x2="154.91" y1="187.69" x1="154.91" id="78fc324e-d6d9-47b7-804a-4115ea7de61a"/>
            <linearGradient xlink:href="#f6835676-18e0-4dc4-8909-7982a62a0e3a" y2="205.01" x2="46.64" y1="206.61" x1="46.64" id="81d0cfb9-a36d-4951-8e8c-a12dad5cf3e7"/>
            <linearGradient xlink:href="#f6835676-18e0-4dc4-8909-7982a62a0e3a" y2="120.26" x2="99.63" y1="124.31" x1="99.63" id="fc084377-6492-4e20-a5b2-52a9b2bd510c"/>
            <linearGradient gradientUnits="userSpaceOnUse" y2="36.65" x2="184.93" y1="70.88" x1="184.93" id="860ce63b-1848-488d-840d-6ac6204ceaea">
                <stop stop-color="#ff93aa" offset="0"/>
                <stop stop-color="#bda4b8" offset="1"/>
            </linearGradient>
            <linearGradient gradientUnits="userSpaceOnUse" y2="75.8" x2="99.53" y1="128.83" x1="99.53" id="adb0ea32-d97d-4143-9fff-33300d0df5aa">
                <stop stop-color="#ab4ad4" offset="0"/>
                <stop stop-color="#ff6ff4" offset="1"/>
            </linearGradient>
            <linearGradient xlink:href="#edb126cf-80da-4725-819a-16a87d8a7c09" gradientTransform="rotate(-.7 -24.77 35.046)" y2="36.67" x2="184.72" y1="70.89" x1="184.72" id="53fccbb7-263f-489b-9f41-30984d9f938b"/>
            <linearGradient xlink:href="#edb126cf-80da-4725-819a-16a87d8a7c09" y2="1.34" x2="185.01" y1="60.02" x1="185.01" id="ba5a4ed1-75b3-4898-96f5-1e64a51a6bf0"/>
            <linearGradient gradientUnits="userSpaceOnUse" y2="39.25" x2="195.65" y1="39.25" x1="173.92" id="523f5911-de1e-4abe-b6b0-122e546b686b">
                <stop stop-color="#ff1144" offset=".01"/>
                <stop stop-color="#ff7566" offset="1"/>
            </linearGradient>
            <linearGradient xlink:href="#523f5911-de1e-4abe-b6b0-122e546b686b" y2="14.85" x2="194.83" y1="14.85" x1="174.76" id="7bf00dd4-8fb7-4df3-af7c-c8a988193bed"/>
            <linearGradient gradientUnits="userSpaceOnUse" y2="81.67" x2="100.78" y1="124.16" x1="100.78" id="861fc15c-c182-4686-b0a5-396bff821758">
                <stop stop-color="#ffa7ba" offset="0"/>
                <stop stop-color="#d9a4b8" offset="1"/>
            </linearGradient>
            <linearGradient xlink:href="#edb126cf-80da-4725-819a-16a87d8a7c09" y2="81.67" x2="98.44" y1="124.16" x1="98.44" id="c8ccfac3-97cb-485f-9de2-dbfad5f1740f"/>
            <linearGradient xlink:href="#861fc15c-c182-4686-b0a5-396bff821758" y2="87.4" x2="97.26" y1="118.44" x1="97.26" id="007070b0-efbb-4240-8420-05cb99e61976"/>
            <linearGradient gradientUnits="userSpaceOnUse" y2="87.4" x2="99.61" y1="118.44" x1="99.61" id="4d8a541b-695d-484f-be60-231d9eca4e12">
                <stop stop-color="#db5f66" offset="0"/>
                <stop stop-color="#c01144" offset=".99"/>
            </linearGradient>
            <linearGradient xlink:href="#edb126cf-80da-4725-819a-16a87d8a7c09" y2="151.89" x2="17.72" y1="213.14" x1="17.72" id="524a3f3c-bcea-477a-b018-72649e24f870"/>
            <linearGradient xlink:href="#3dd28acc-fe1f-4899-ac57-f85cccb8bdd4" y2="206.61" x2="24.03" y1="206.61" x1="17.31" id="504c1a4c-291c-4c53-a6f1-15ccadef5747"/>
            <linearGradient xlink:href="#3dd28acc-fe1f-4899-ac57-f85cccb8bdd4" y2="184.75" x2="23.05" y1="184.75" x1="14.69" id="b486e9d3-c275-4099-a2cb-af81f1cec6d5"/>
            <linearGradient xlink:href="#3dd28acc-fe1f-4899-ac57-f85cccb8bdd4" y2="163.95" x2="22.23" y1="163.95" x1="12.36" id="d4572679-cbd9-4e59-8d3b-ac688e113b2e"/>
            <linearGradient xlink:href="#861fc15c-c182-4686-b0a5-396bff821758" y2="1.36" x2="185.45" y1="3.9" x1="185.32" id="10bee022-263f-4a21-b4e9-48c80bdf2ed4"/>
            <linearGradient xlink:href="#edb126cf-80da-4725-819a-16a87d8a7c09" y2="100.66" x2="98.72" y1="104.71" x1="98.72" id="744ed58a-53f5-4a06-aeda-acb6d0379e39"/>
            <linearGradient xlink:href="#f6835676-18e0-4dc4-8909-7982a62a0e3a" y2="51.26" x2="85.26" y1="157.16" x1="85.26" id="f8dfc602-cde0-4404-a6c0-37d7c29ab598"/>
            <linearGradient xlink:href="#4e195363-1673-43ca-addc-ceb71f201263" y2="103.82" x2="218.1" y1="103.82" x1="154.68" id="9221783e-7a32-4456-a344-af6ac355159c"/>
            <linearGradient xlink:href="#4e195363-1673-43ca-addc-ceb71f201263" y2="48.23" x2="149.94" y1="48.23" x1="116.87" id="cf9a5361-dc77-4299-9074-86079982f661"/>
            <linearGradient xlink:href="#4e195363-1673-43ca-addc-ceb71f201263" y2="137.32" x2="271.19" y1="137.32" x1="239.48" id="ca54e871-6c49-4937-a965-f6560e35475b"/>
            <linearGradient xlink:href="#f6835676-18e0-4dc4-8909-7982a62a0e3a" y2="31.97" x2="196.11" y1="31.97" x1="173.92" id="189c50ba-15e1-4bd8-9d68-e9b627f90985"/>
            <linearGradient gradientUnits="userSpaceOnUse" y2="86.95" x2="298.11" y1="86.95" x1="97.74" id="79908365-4233-4ca6-82d5-e6a14a6e0293">
                <stop offset="0"/>
                <stop stop-color="#664d40" offset=".98"/>
            </linearGradient>
            <linearGradient xlink:href="#79908365-4233-4ca6-82d5-e6a14a6e0293" y2="88.04" x2="188.76" y1="88.04" x1="97.74" id="794b7c8a-42df-43a4-8622-08f47f521da0"/>
            <linearGradient xlink:href="#f6835676-18e0-4dc4-8909-7982a62a0e3a" y2="55.11" x2="102.91" y1="55.11" x1="75.26" id="9358e801-4364-4729-8b5a-9d55a99b100b"/>
            <linearGradient xlink:href="#f6835676-18e0-4dc4-8909-7982a62a0e3a" y2="160.04" x2="280.04" y1="215.34" x1="280.04" id="80311eaa-9380-4203-9ade-1f78fba0f42b"/>
            <linearGradient xlink:href="#f6835676-18e0-4dc4-8909-7982a62a0e3a" y2="151.84" x2="17.72" y1="213.14" x1="17.72" id="b125e538-405d-4be9-9e65-3ae91e22ef28"/>
            <linearGradient xlink:href="#79908365-4233-4ca6-82d5-e6a14a6e0293" y2="148.86" x2="149.22" y1="149.88" x1="149.22" id="71dad68a-dd43-424a-8ebe-eef27d8e414c"/>
            <linearGradient xlink:href="#b05d7af8-6105-4ad5-b1de-1e59df8c0aa5" y2="187.08" x2="173.05" y1="187.08" x1="136.7" id="dcaa3b63-bd70-4188-ac1f-0387535a730a"/>
            <linearGradient xlink:href="#b05d7af8-6105-4ad5-b1de-1e59df8c0aa5" y2="162.72" x2="73.98" y1="162.72" x1="32.78" id="3a332809-ad1c-44d4-96c6-161dbd17fee3"/>
            <linearGradient xlink:href="#b05d7af8-6105-4ad5-b1de-1e59df8c0aa5" y2="206.81" x2="58.26" y1="206.81" x1="35.02" id="6c15a6a2-c03d-4b1f-af18-3b5b21c998b8"/>
            <linearGradient xlink:href="#79908365-4233-4ca6-82d5-e6a14a6e0293" y2="165.9" x2="173.73" y1="165.9" x1="131.59" id="6ab88f20-9e0d-47b7-a24a-dc79512e2b20"/>
            <linearGradient xlink:href="#f6835676-18e0-4dc4-8909-7982a62a0e3a" y2="174" x2="149.22" y1="174" x1="110.29" id="f31f9a88-bce3-458b-abd2-8ef06fa3f530"/>
            <linearGradient xlink:href="#861fc15c-c182-4686-b0a5-396bff821758" y2="131.36" x2="104.58" y1="214.96" x1="104.58" id="37f86749-40b1-4331-b33b-0fa5f63a918f"/>
            <linearGradient xlink:href="#edb126cf-80da-4725-819a-16a87d8a7c09" y2="131.36" x2="100.84" y1="214.96" x1="100.84" id="f7262403-8f82-4c2d-ae3d-59b034d3893d"/>
            <linearGradient xlink:href="#861fc15c-c182-4686-b0a5-396bff821758" y2="143.73" x2="99.35" y1="215.73" x1="99.35" id="29e47110-1388-45cf-8c24-4538ca6c1566"/>
            <linearGradient xlink:href="#adb0ea32-d97d-4143-9fff-33300d0df5aa" y2="145.06" x2="101.64" y1="215.73" x1="101.64" id="7403860f-9f5a-4a7a-aba4-00fbce12d8dc"/>
            <linearGradient xlink:href="#f6835676-18e0-4dc4-8909-7982a62a0e3a" y2="179.44" x2="116.87" y1="179.44" x1="76.55" id="6519e288-dacf-4187-bd90-6d70acab07f2"/>
            <linearGradient xlink:href="#861fc15c-c182-4686-b0a5-396bff821758" gradientTransform="translate(7.36 7.42)" y2="172.78" x2="84.7" y1="179.67" x1="84.7" id="2d85c48a-e8ff-40f3-ae3d-d277c892116f"/>
            <linearGradient xlink:href="#edb126cf-80da-4725-819a-16a87d8a7c09" gradientTransform="translate(7.36 7.42)" y2="172.78" x2="84.13" y1="179.67" x1="84.13" id="807047c7-101a-423e-a1ab-999c72d51994"/>
            <linearGradient gradientUnits="userSpaceOnUse" y2="205.2" x2="126.01" y1="205.2" x1="77.14" id="59e7a3dd-5f77-4222-ab4b-5125427044ee">
                <stop stop-color="#f9e5e1" offset="0"/>
                <stop stop-color="#ac4c84" offset="1"/>
            </linearGradient>
            <linearGradient xlink:href="#59e7a3dd-5f77-4222-ab4b-5125427044ee" y2="192.32" x2="99.83" y1="192.32" x1="78.55" id="d1c0ea9e-3d39-4db1-9195-0cadbab89a66"/>
            <linearGradient xlink:href="#59e7a3dd-5f77-4222-ab4b-5125427044ee" y2="178.5" x2="121.7" y1="178.5" x1="81.06" id="0fa83b9b-e4b6-45cd-9c5b-992c0f42f42a"/>
            <linearGradient xlink:href="#59e7a3dd-5f77-4222-ab4b-5125427044ee" y2="168.87" x2="119.18" y1="168.87" x1="83.64" id="eafa8342-417d-4e0a-9dc8-b59f9e19e3d0"/>
            <linearGradient xlink:href="#59e7a3dd-5f77-4222-ab4b-5125427044ee" y2="160.97" x2="116.15" y1="160.97" x1="86.41" id="c4a4c134-4e84-48cb-a095-b7b1f01622bd"/>
            <linearGradient gradientUnits="userSpaceOnUse" y2="205.56" x2="126.01" y1="205.56" x1="77.14" id="926840a9-0a4b-4f8b-8716-b883bd30aa7a">
                <stop offset="0"/>
                <stop stop-color="#a46840" offset=".98"/>
            </linearGradient>
            <linearGradient xlink:href="#926840a9-0a4b-4f8b-8716-b883bd30aa7a" y2="179.11" x2="121.7" y1="179.11" x1="81.06" id="00883dda-77c5-4b57-bea5-7a87f04ec92a"/>
            <linearGradient xlink:href="#926840a9-0a4b-4f8b-8716-b883bd30aa7a" y2="169.37" x2="119.18" y1="169.37" x1="83.64" id="d9b0e167-4e56-4b7b-be12-059f7aefea7d"/>
            <linearGradient xlink:href="#523f5911-de1e-4abe-b6b0-122e546b686b" y2="222.38" x2="204.89" y1="222.38" x1=".53" id="35f74c33-d5ee-4c10-85ca-84802d834984"/>
            <linearGradient gradientUnits="userSpaceOnUse" y2="223.74" x2="296.77" y1="223.74" x1="193.61" id="c922d3a4-2cc5-454e-80a9-5dca22f141e7">
                <stop stop-color="#d2023e" offset="0"/>
                <stop stop-color="#9c0244" offset=".99"/>
            </linearGradient>
            <linearGradient xlink:href="#f6835676-18e0-4dc4-8909-7982a62a0e3a" y2="37.42" x2="129.75" y1="37.42" x1="79.87" id="d992a0f9-abcb-4ea6-8ef9-011dba2bc1f4"/>
            <linearGradient gradientUnits="userSpaceOnUse" y2=".01" x2="95.86" y1="53.66" x1="95.86" id="d6629cab-661a-4a5e-8cc7-89ec547abe25">
                <stop stop-color="#d1a0aa" offset="0"/>
                <stop stop-color="#bda4b8" offset="1"/>
            </linearGradient>
            <linearGradient xlink:href="#860ce63b-1848-488d-840d-6ac6204ceaea" y2="0" x2="97.53" y1="23.73" x1="97.53" id="76c13cd4-ef2f-4cb9-9fe1-442d09393f06"/>
            <linearGradient xlink:href="#860ce63b-1848-488d-840d-6ac6204ceaea" gradientTransform="rotate(90 -173.235 118.275)" y2="-171.72" x2="-265.55" y1="-154.86" x1="-265.55" id="285aa23d-3135-459c-8cb6-74a1b68e61c3"/>
            <linearGradient xlink:href="#860ce63b-1848-488d-840d-6ac6204ceaea" gradientTransform="rotate(32.9 -167.326 110.337)" y2="-127.64" x2="7.56" y1="-105.71" x1="7.56" id="b768d9ab-ae7b-4e9a-8250-eb7d1b0c113c"/>
            <linearGradient xlink:href="#860ce63b-1848-488d-840d-6ac6204ceaea" gradientTransform="rotate(66.61 -161.117 116.935)" y2="-176.73" x2="-144.1" y1="-158.6" x1="-144.1" id="9a58be0b-98f3-4122-b454-c8beb964f747"/>
            <linearGradient xlink:href="#860ce63b-1848-488d-840d-6ac6204ceaea" gradientTransform="matrix(0 1 1 0 -315.78 291.51)" y2="394.5" x2="-265.6" y1="411.49" x1="-265.6" id="c24f4f9c-23ed-43bc-98d0-6d2d816cf5bc"/>
            <linearGradient xlink:href="#860ce63b-1848-488d-840d-6ac6204ceaea" gradientTransform="scale(-1 1) rotate(32.7 17.928 742.068)" y2="180.55" x2="-467.43" y1="202.48" x1="-467.43" id="df1a3303-c1aa-4901-ab4e-f0141fdd6fb9"/>
            <linearGradient xlink:href="#860ce63b-1848-488d-840d-6ac6204ceaea" gradientTransform="matrix(-.4 .92 .92 .4 -380.91 218.39)" y2="342.93" x2="-369.02" y1="361.19" x1="-369.02" id="952157bc-231c-46ae-bc65-73f4a47743aa"/>
            <linearGradient xlink:href="#860ce63b-1848-488d-840d-6ac6204ceaea" gradientTransform="rotate(180 -172.755 125.4)" y2="197.14" x2="-443.39" y1="221.03" x1="-443.39" id="19bfc170-14a8-4c98-b856-df907fe7f661"/>
            <linearGradient xlink:href="#860ce63b-1848-488d-840d-6ac6204ceaea" gradientTransform="rotate(-147.1 -168.34 127.007)" y2="332.14" x2="-338.82" y1="354.23" x1="-338.82" id="8117e719-0195-40b3-9d43-e1d58f1749df"/>
            <linearGradient xlink:href="#860ce63b-1848-488d-840d-6ac6204ceaea" gradientTransform="rotate(-113.39 -167.193 133.046)" y2="397.94" x2="-177.76" y1="416.2" x1="-177.76" id="887a8b87-e33e-4f04-9cec-275a3603348a"/>
            <linearGradient xlink:href="#860ce63b-1848-488d-840d-6ac6204ceaea" gradientTransform="scale(1 -1) rotate(32.7 272.488 27.451)" y2="51.5" x2="93.72" y1="73.59" x1="93.72" id="33bbfea9-8c55-43c0-bbbd-cc6487b5c8d9"/>
            <linearGradient xlink:href="#860ce63b-1848-488d-840d-6ac6204ceaea" gradientTransform="matrix(.4 -.92 -.92 -.4 35.4 32.41)" y2="-75.06" x2="26.87" y1="-56.93" x1="26.87" id="9fd4d74f-b427-4c03-88ac-c0eb9099cf3e"/>
            <linearGradient gradientUnits="userSpaceOnUse" x2="94.17" y1="23.73" x1="94.17" id="39ac2640-18a4-4047-b5a6-2e667589c6c7">
                <stop stop-color="#ffeab8" offset="0"/>
                <stop stop-color="#ffb8bd" offset="1"/>
            </linearGradient>
            <linearGradient xlink:href="#39ac2640-18a4-4047-b5a6-2e667589c6c7" gradientTransform="rotate(90 -173.235 118.275)" y2="-168.36" x2="-265.55" y1="-151.5" x1="-265.55" id="a589cdee-d359-4722-80ea-2c17e4fbd91a"/>
            <linearGradient xlink:href="#39ac2640-18a4-4047-b5a6-2e667589c6c7" gradientTransform="rotate(32.9 -167.326 110.337)" y2="-125.81" x2="4.75" y1="-103.88" x1="4.75" id="1b4ca2dc-3be6-47dd-afd6-b898525cf89d"/>
            <linearGradient xlink:href="#39ac2640-18a4-4047-b5a6-2e667589c6c7" gradientTransform="rotate(66.61 -161.117 116.935)" y2="-173.65" x2="-145.43" y1="-155.51" x1="-145.43" id="79534052-1ad0-4e68-b1b0-1348f5e369d7"/>
            <linearGradient xlink:href="#39ac2640-18a4-4047-b5a6-2e667589c6c7" gradientTransform="matrix(0 1 1 0 -315.78 291.51)" y2="391.14" x2="-265.6" y1="408.13" x1="-265.6" id="722cecc8-8fe2-42f5-8bc1-c9b6ac56d21d"/>
            <linearGradient xlink:href="#39ac2640-18a4-4047-b5a6-2e667589c6c7" gradientTransform="scale(-1 1) rotate(32.7 17.928 742.068)" y2="178.73" x2="-464.62" y1="200.66" x1="-464.62" id="01626534-f230-4632-8b82-8c4fbce2b1bd"/>
            <linearGradient xlink:href="#39ac2640-18a4-4047-b5a6-2e667589c6c7" gradientTransform="matrix(-.4 .92 .92 .4 -380.91 218.39)" y2="339.85" x2="-367.68" y1="358.11" x1="-367.68" id="79586699-37e8-47fa-aa90-cd0fc1a03985"/>
            <linearGradient xlink:href="#39ac2640-18a4-4047-b5a6-2e667589c6c7" gradientTransform="rotate(180 -172.755 125.4)" y2="197.14" x2="-440.03" y1="221.03" x1="-440.03" id="933343a6-3c4c-41ff-8e2a-d038a6bd480e"/>
            <linearGradient xlink:href="#39ac2640-18a4-4047-b5a6-2e667589c6c7" gradientTransform="rotate(-147.1 -168.34 127.007)" y2="330.32" x2="-336" y1="352.4" x1="-336" id="a7a5b6a2-c5c1-4a90-a5a4-0c915bb18104"/>
            <linearGradient xlink:href="#39ac2640-18a4-4047-b5a6-2e667589c6c7" gradientTransform="rotate(-113.39 -167.193 133.046)" y2="394.86" x2="-176.43" y1="413.12" x1="-176.43" id="e59654d3-1928-4932-a87a-eed1c6b5d215"/>
            <linearGradient xlink:href="#39ac2640-18a4-4047-b5a6-2e667589c6c7" gradientTransform="scale(1 -1) rotate(32.7 272.488 27.451)" y2="53.33" x2="90.9" y1="75.41" x1="90.9" id="fedb1952-90a9-4c87-9d2b-47fd1ebbdca1"/>
            <linearGradient xlink:href="#39ac2640-18a4-4047-b5a6-2e667589c6c7" gradientTransform="matrix(.4 -.92 -.92 -.4 35.4 32.41)" y2="-71.98" x2="25.54" y1="-53.84" x1="25.54" id="dde1b349-9847-492c-a9a8-bfcbc10c36d6"/>
            <linearGradient xlink:href="#4d8a541b-695d-484f-be60-231d9eca4e12" y2="18.82" x2="94.28" y1="35.02" x1="94.28" id="6cc039a9-cf5e-4790-b7e6-532aa1c3e1cb"/>
            <linearGradient gradientUnits="userSpaceOnUse" y2="215.13" x2="193.61" y1="215.13" x1="5.16" id="ed102cfb-c451-4970-b5b1-31bdfdcdc571">
                <stop stop-color="#e08940" offset=".02"/>
                <stop offset="1"/>
            </linearGradient>
            <linearGradient xlink:href="#f6835676-18e0-4dc4-8909-7982a62a0e3a" y2="230.44" x2="296.77" y1="230.44" x1=".53" id="8ef0d4f9-4737-44b0-9992-b3e829b79872"/>
        </defs>
        <g>
            <path fill="url(#edb126cf-80da-4725-819a-16a87d8a7c09)" fill-rule="evenodd" d="m286.82 156.26-8.18 59.08h-6.13l1.44-56.66 12.87-2.42z"/>
            <path d="M272.61 211.38a20.73 20.73 0 0 0 7.35-5.57l-1.32 9.53h-6.13z" fill="url(#3dd28acc-fe1f-4899-ac57-f85cccb8bdd4)" fill-rule="evenodd"/>
            <path d="M273 197.9s5.15-1.42 9.25-8.28l1.56-11.62a22.63 22.63 0 0 1-10.58 8.91z" fill="url(#670ac8ef-ece4-446c-9a4d-bc2a08e27473)" fill-rule="evenodd"/>
            <path d="M273.59 173s7.69-1.43 11.9-7.19l1.33-9.56s-5.69 5.59-13 6.67z" fill="url(#c7671252-c241-4ced-bfee-f0efd50d7ba3)" fill-rule="evenodd"/>
            <path fill="url(#9ddbc9d0-7766-45a4-964a-96e58cdd1869)" fill-rule="evenodd" d="m35.49 215.68-3.73-74.31 71.87-91.03 70.95 89.91-2.44 75.48-136.65-.05z"/>
            <path style="mix-blend-mode:multiply" fill="url(#f6835676-18e0-4dc4-8909-7982a62a0e3a)" opacity=".2" fill-rule="evenodd" d="m32.75 160.97 140.98 5.68-140.95-5.02-.03-.66z"/>
            <path style="mix-blend-mode:multiply" fill="url(#ed13a4b5-1b15-4253-96ac-d2a217a781de)" opacity=".2" fill-rule="evenodd" d="m173.73 148.86-140.98 2.98 141.83-1.81-.85-1.17z"/>
            <path fill="url(#ddb5c0bf-a77d-4ff9-9f5e-90f871f18524)" fill-rule="evenodd" d="m174.58 140.25 87.04 9.33v66.15h-89.48l2.44-75.48z"/>
            <path style="mix-blend-mode:multiply" fill="url(#e57bb533-e061-4716-9fda-92cfe23ad76d)" opacity=".5" fill-rule="evenodd" d="m174.58 150.03 13.33 22.98 73.71 4.98v-17.68l-87.04-10.28z"/>
            <path d="m178.66 151.89-1.44 63.45 6.78.1 8.63-58.28s-7.48-4.65-13.97-5.27z" fill="url(#d85e4d4d-c6af-44e1-85b3-08000186b46f)" fill-rule="evenodd"/>
            <path d="M177.31 211.38a31.35 31.35 0 0 0 8.95-11.22l1.65-11.1a37.89 37.89 0 0 1-10.4 13.73z" fill="url(#0481f329-daa3-4caa-8699-d9bd6496da33)" fill-rule="evenodd"/>
            <path d="M177.89 185.8a47 47 0 0 0 12.37-12.64l1.92-12.94s-5.51 9.43-14 12.94z" fill="url(#d3c6da6c-1403-45d4-a0db-cba62e91f2e4)" fill-rule="evenodd"/>
            <path d="M178.44 161.63a13.11 13.11 0 0 1 7.95 8c2.37 6.94-2.32 45.36-2.32 45.36l8.56-56.1-14-3.31z" style="mix-blend-mode:multiply" fill="url(#ca13ec47-8364-4d8c-a8d2-d25d8bb0c9d6)" opacity=".5" fill-rule="evenodd"/>
            <path fill="url(#1bc5c940-cb7e-4c41-84e3-35c2ace4d822)" fill-rule="evenodd" d="M180.86 158.68 96.22 42.05 4.59 156.2 0 153.31 97.74 17.39l91.02 136.71-7.9 4.58z"/>
            <path fill="url(#9b656496-8605-4a27-95e3-c6021c4eb7cd)" fill-rule="evenodd" d="m97.74 17.39 108.07 8.54 92.3 130.58-109.35-2.41L97.74 17.39z"/>
            <path fill="#1c3a66" fill-rule="evenodd" d="m180.86 158.68 105.03 1.54 12.22-3.71-109.35-2.41-7.9 4.58z"/>
            <path fill="#1c3a66" fill-rule="evenodd" d="m4.59 156.2 27.88-.75-.71-14.08 71.15-90.11-6.69-9.21L4.59 156.2z"/>
            <path d="M165.81 48.83s4.8 15.77 22.95 25 20.42-7.94 20.42-7.94l30.3 7.65-11.58-16.35-28.16-8.36z" style="mix-blend-mode:multiply" fill="url(#4e195363-1673-43ca-addc-ceb71f201263)" opacity=".3" fill-rule="evenodd"/>
            <path style="mix-blend-mode:screen" fill="url(#b05d7af8-6105-4ad5-b1de-1e59df8c0aa5)" fill-rule="evenodd" d="m154.03 121.72-105.39 2.44 25.34.92 51.81-2.34 11.3.66 17.59-1.11-.65-.57z"/>
            <path style="mix-blend-mode:screen" fill="#483400" opacity=".3" fill-rule="evenodd" d="m121.7 19.28 17.05 26.85 55.09-.89-11.23-21.15-60.91-4.81z"/>
            <path style="mix-blend-mode:multiply" fill="url(#78fc324e-d6d9-47b7-804a-4115ea7de61a)" opacity=".2" fill-rule="evenodd" d="m173.11 185.8-36.41.59 36.35 1.3.06-1.89z"/>
            <path style="mix-blend-mode:multiply" fill="url(#81d0cfb9-a36d-4951-8e8c-a12dad5cf3e7)" opacity=".2" fill-rule="evenodd" d="m35.02 206.35 23.24.26-23.24-1.6v1.34z"/>
            <path style="mix-blend-mode:multiply" fill="url(#fc084377-6492-4e20-a5b2-52a9b2bd510c)" opacity=".2" fill-rule="evenodd" d="m154.03 121.72-108.8 2.59 1.41-1.78 106.33-2.27 1.06 1.46z"/>
            <path d="M168.53 36.94c-15 2.59 9.86 36.43 30.39 33.79s-8.51-37.58-30.39-33.79z" fill="url(#860ce63b-1848-488d-840d-6ac6204ceaea)" fill-rule="evenodd"/>
            <path d="M105.9 84.89s-2.2-8.73-7.24-9.08-6.56 9.81-6.56 9.81-7.7-2.57-11.2 0 2.1 9.86 2.1 9.86-8.68 5.91-8.68 10c0 4.81 12.15 4.92 12.15 4.92s-5.14 10.4-1.5 13.89 10.75-4.55 10.75-4.55 5.8 9.58 10 9.06c3.85-.48 3-12.42 3-12.42s12.75 2.91 14-.74-7.35-10-7.35-10 9.29-4.35 9.33-7.81c0-4.4-11.17-5.09-11.17-5.09s5.8-6.68 3.46-9.57c-2.13-2.66-11.09 1.72-11.09 1.72z" fill="url(#adb0ea32-d97d-4143-9fff-33300d0df5aa)" fill-rule="evenodd"/>
            <path d="M168.33 34.58c-15 2.78 10.31 36.3 30.81 33.41s-8.98-37.47-30.81-33.41z" fill="url(#53fccbb7-263f-489b-9f41-30984d9f938b)" fill-rule="evenodd"/>
            <path d="m173.92 42 2.25-40.57s10.7-.41 18.49 1.5L196.11 60s-18.95 0-22.19-18z" fill="url(#ba5a4ed1-75b3-4898-96f5-1e64a51a6bf0)" fill-rule="evenodd"/>
            <path d="M173.92 42s13.37-2.16 21.29-17.21l.44 17.21s-4.08 10.39-14.91 11.81A20.84 20.84 0 0 1 173.92 42z" fill="url(#523f5911-de1e-4abe-b6b0-122e546b686b)" fill-rule="evenodd"/>
            <path d="M174.76 26.83s15.5-5.74 20.07-17.15l-.17-6.8s-9.31 8.65-19.1 9.5z" fill="url(#7bf00dd4-8fb7-4df3-af7c-c8a988193bed)" fill-rule="evenodd"/>
            <path fill="url(#861fc15c-c182-4686-b0a5-396bff821758)" d="M119.35 102.92c0 11.73-8.314 21.24-18.57 21.24s-18.57-9.51-18.57-21.24c0-11.73 8.314-21.24 18.57-21.24s18.57 9.51 18.57 21.24z"/>
            <path fill="url(#c8ccfac3-97cb-485f-9de2-dbfad5f1740f)" d="M117.01 102.92c0 11.73-8.314 21.24-18.57 21.24s-18.57-9.51-18.57-21.24c0-11.73 8.314-21.24 18.57-21.24s18.57 9.51 18.57 21.24z"/>
            <path fill="url(#007070b0-efbb-4240-8420-05cb99e61976)" d="M109.56 102.92c0 8.571-5.507 15.52-12.3 15.52-6.793 0-12.3-6.949-12.3-15.52s5.507-15.52 12.3-15.52c6.793 0 12.3 6.949 12.3 15.52z"/>
            <path fill="url(#4d8a541b-695d-484f-be60-231d9eca4e12)" d="M111.91 102.92c0 8.571-5.507 15.52-12.3 15.52-6.793 0-12.3-6.949-12.3-15.52s5.507-15.52 12.3-15.52c6.793 0 12.3 6.949 12.3 15.52z"/>
            <path d="m24.13 213.14-6.41-.1-4.23-37.71-1.13-10.1-1-9.21c3.23-4.93 6.52-4.51 8.57-3.46A7.82 7.82 0 0 1 22 154.1l.26 7.27z" fill="url(#524a3f3c-bcea-477a-b018-72649e24f870)" fill-rule="evenodd"/>
            <path d="M17.31 209.3s4.77-4.91 6.27-11l.42 12.09s-2.49 3.72-6.3 4.57z" fill="url(#504c1a4c-291c-4c53-a6f1-15ccadef5747)" fill-rule="evenodd"/>
            <path d="M15.7 195s4.23-3.25 7.35-11.3l-.34-9.27s-1.37 5.83-8 11.51z" fill="url(#b486e9d3-c275-4099-a2cb-af81f1cec6d5)" fill-rule="evenodd"/>
            <path d="M22.23 161.37a31 31 0 0 1-8.74 14l-1.13-10.1c3.44-3.34 5.93-8.44 7.53-12.67a7.82 7.82 0 0 1 2.11 1.5z" fill="url(#d4572679-cbd9-4e59-8d3b-ac688e113b2e)" fill-rule="evenodd"/>
            <path d="M176.17 1.38s5.4 4.5 18.49 1.5c0 0-4.4-2.15-18.49-1.5z" fill="url(#10bee022-263f-4a21-b4e9-48c80bdf2ed4)" fill-rule="evenodd"/>
            <path d="M86.68 100.66a2.13 2.13 0 0 0-1.18 2.26c.09 1.79 1.18 1.79 1.18 1.79h25.15a10.66 10.66 0 0 0 .08-2.4z" fill="url(#744ed58a-53f5-4a06-aeda-acb6d0379e39)" fill-rule="evenodd"/>
            <path d="M32.55 157.16S96 77.74 109.57 76.6c12.1-1 29.18 24.06 29.18 24.06l-35.84-49.4-71.15 90.11z" style="mix-blend-mode:multiply" fill="url(#f8dfc602-cde0-4404-a6c0-37d7c29ab598)" opacity=".5" fill-rule="evenodd"/>
            <path style="mix-blend-mode:multiply" fill="url(#9221783e-7a32-4456-a344-af6ac355159c)" opacity=".3" fill-rule="evenodd" d="m154.68 102.92 63.42 1.79h-62.22l-1.2-1.79z"/>
            <path style="mix-blend-mode:multiply" fill="url(#cf9a5361-dc77-4299-9074-86079982f661)" opacity=".3" fill-rule="evenodd" d="m116.87 46.13 33.07 4.21-31.42-1.74-1.65-2.47z"/>
            <path style="mix-blend-mode:multiply" fill="url(#ca54e871-6c49-4937-a965-f6560e35475b)" opacity=".3" fill-rule="evenodd" d="m269.25 155.88-29.77-37.44 31.71 37.76-1.94-.32z"/>
            <path style="mix-blend-mode:screen" fill="#483400" opacity=".5" fill-rule="evenodd" d="m182.61 104.71 20.04 30.36 50.03 2.25-22.71-32.61h-47.36z"/>
            <path style="mix-blend-mode:screen" fill="#7e2700" opacity=".5" fill-rule="evenodd" d="m223.84 90.23 30.53 41.03 27.14 1.77-29.5-41.73-28.17-1.07z"/>
            <path style="mix-blend-mode:screen" fill="#483400" opacity=".3" fill-rule="evenodd" d="m118.52 48.6 31.42 1.74 32.67 48.79h-30.15L118.52 48.6z"/>
            <path style="mix-blend-mode:screen" fill="#7e2700" opacity=".2" fill-rule="evenodd" d="m187.91 102.92-12.19-15.97h28.3l10.99 16.87-27.1-.9z"/>
            <path d="M176 3.91s-1.09 25.4 1.43 33.45 14.63 9.43 16.38 5.85.82-37.45.82-37.45L196.11 60s-19.37-.49-22.19-18z" style="mix-blend-mode:multiply" fill="url(#189c50ba-15e1-4bd8-9d68-e9b627f90985)" opacity=".3" fill-rule="evenodd"/>
            <path d="M97.74 17.39S186.89 146 192.18 150s105.93 6.48 105.93 6.48l-109.35-2.38z" style="mix-blend-mode:screen" fill="url(#79908365-4233-4ca6-82d5-e6a14a6e0293)" fill-rule="evenodd"/>
            <path d="M97.74 17.39s87 133.57 87.19 135.17-4.07 6.12-4.07 6.12l7.9-4.58z" style="mix-blend-mode:screen" fill="url(#794b7c8a-42df-43a4-8622-08f47f521da0)" fill-rule="evenodd"/>
            <path style="mix-blend-mode:multiply" fill="url(#9358e801-4364-4729-8b5a-9d55a99b100b)" opacity=".5" fill-rule="evenodd" d="m75.26 68.17 16.07-2.25 11.58-14.66-6.69-9.21-20.96 26.12z"/>
            <path d="M273.8 164.64s5.72 1.73 7.71 5-2.87 45.73-2.87 45.73l7.65-55.24-12.37-.13z" style="mix-blend-mode:multiply" fill="url(#80311eaa-9380-4203-9ade-1f78fba0f42b)" opacity=".5" fill-rule="evenodd"/>
            <path d="M11.68 159.22s7.4 3.5 8.37 7.63 4.08 46.29 4.08 46.29L22 154.1s-3-3.22-6.2-2a8.89 8.89 0 0 0-4.48 3.9z" style="mix-blend-mode:multiply" fill="url(#b125e538-405d-4be9-9e65-3ae91e22ef28)" opacity=".5" fill-rule="evenodd"/>
            <path style="mix-blend-mode:screen" fill="url(#71dad68a-dd43-424a-8ebe-eef27d8e414c)" fill-rule="evenodd" d="m173.73 148.86-48.08 1.02-.94-1.02h49.02z"/>
            <path style="mix-blend-mode:screen" fill="url(#dcaa3b63-bd70-4188-ac1f-0387535a730a)" fill-rule="evenodd" d="m136.7 186.39.26 1.39 36.09-.09-36.35-1.3z"/>
            <path style="mix-blend-mode:screen" fill="url(#3a332809-ad1c-44d4-96c6-161dbd17fee3)" fill-rule="evenodd" d="m32.78 161.63 29.92 2.18h11.28v-.71l-41.2-1.47z"/>
            <path style="mix-blend-mode:screen" fill="url(#6c15a6a2-c03d-4b1f-af18-3b5b21c998b8)" fill-rule="evenodd" d="m35.02 206.35 9.39.92 13.85-.66-23.24-.26z"/>
            <path style="mix-blend-mode:screen" fill="url(#6ab88f20-9e0d-47b7-a24a-dc79512e2b20)" fill-rule="evenodd" d="m173.73 166.65-42.14-1.5 19.52 1.5h22.62z"/>
            <path d="M149.22 215s-5.52-47.12-17.63-63.83C119.18 134 110.29 133 110.29 133s10.69 5.76 17.06 23.47S140.44 215 140.44 215z" style="mix-blend-mode:multiply" fill="url(#f31f9a88-bce3-458b-abd2-8ef06fa3f530)" opacity=".5" fill-rule="evenodd"/>
            <path d="M68.72 213.93s4.85-84.47 35.86-82.54c30.67 1.91 35.86 83.61 35.86 83.61z" fill="url(#37f86749-40b1-4331-b33b-0fa5f63a918f)" fill-rule="evenodd"/>
            <path d="M65 213.93s4.85-80.63 35.86-82.54C130.6 129.56 136.7 215 136.7 215z" fill="url(#f7262403-8f82-4c2d-ae3d-59b034d3893d)" fill-rule="evenodd"/>
            <path d="M126.81 215.73H71.89s1.32-67.81 28.19-71.92a7.52 7.52 0 0 1 4.67 1.28c17.58 9.64 22.06 70.64 22.06 70.64z" fill="url(#29e47110-1388-45cf-8c24-4538ca6c1566)" fill-rule="evenodd"/>
            <path d="M126.81 215.73H76.47s0-.67.08-1.88c.52-11.17 4.36-68.76 28.19-68.76 5.11 2.94 9.07 9.43 12.12 17.34 8.3 21.42 9.95 53.3 9.95 53.3z" fill="url(#7403860f-9f5a-4a7a-aba4-00fbce12d8dc)" fill-rule="evenodd"/>
            <path d="M116.87 162.4c-.4-.51-9.78-13.55-20.16-2.18-10.58 11.58-11.87 53.6-11.87 53.6h-8.29c.52-11.17 4.36-68.76 28.19-68.76 5.12 2.94 9.08 9.43 12.13 17.34z" style="mix-blend-mode:multiply" fill="url(#6519e288-dacf-4187-bd90-6d70acab07f2)" opacity=".5" fill-rule="evenodd"/>
            <path d="M85.59 188a3.18 3.18 0 0 1-3.17 3.25c-1.36-.07-2.39-1.66-2.29-3.56s1.28-3.39 2.65-3.31 2.94 1.03 2.81 3.62z" fill="url(#2d85c48a-e8ff-40f3-ae3d-d277c892116f)" fill-rule="evenodd"/>
            <path d="M84.45 187.87c-.1 1.9-1.14 3.39-2.34 3.33s-2.08-1.65-2-3.55 1.15-3.39 2.34-3.33 2.1 1.68 2 3.55z" fill="url(#807047c7-101a-423e-a1ab-999c72d51994)" fill-rule="evenodd"/>
            <path style="mix-blend-mode:multiply" fill="url(#59e7a3dd-5f77-4222-ab4b-5125427044ee)" opacity=".5" fill-rule="evenodd" d="m77.14 205.09 48.87.93-.05-.46-48.76-1.19-.06.72z"/>
            <path style="mix-blend-mode:multiply" fill="url(#d1c0ea9e-3d39-4db1-9195-0cadbab89a66)" opacity=".5" fill-rule="evenodd" d="m78.66 191.95-.11.73 21.28-.34-21.17-.39z"/>
            <path style="mix-blend-mode:multiply" fill="url(#0fa83b9b-e4b6-45cd-9c5b-992c0f42f42a)" opacity=".5" fill-rule="evenodd" d="M81.06 178.79h40.64l-.13-.57H81.19l-.13.57z"/>
            <path style="mix-blend-mode:multiply" fill="url(#eafa8342-417d-4e0a-9dc8-b59f9e19e3d0)" opacity=".5" fill-rule="evenodd" d="M83.64 169.13h35.54l-.16-.53-35.3.27-.08.26z"/>
            <path style="mix-blend-mode:multiply" fill="url(#c4a4c134-4e84-48cb-a095-b7b1f01622bd)" opacity=".5" fill-rule="evenodd" d="m116.15 160.59-29.74 1.04 29.62-1.32.12.28z"/>
            <path style="mix-blend-mode:screen" fill="url(#926840a9-0a4b-4f8b-8716-b883bd30aa7a)" fill-rule="evenodd" d="m77.14 205.09 22.69.93h26.18l-48.87-.93z"/>
            <path style="mix-blend-mode:screen" fill="url(#00883dda-77c5-4b57-bea5-7a87f04ec92a)" fill-rule="evenodd" d="M121.7 178.79H81.06l24.99.65 15.65-.65z"/>
            <path style="mix-blend-mode:screen" fill="url(#d9b0e167-4e56-4b7b-be12-059f7aefea7d)" fill-rule="evenodd" d="m119.18 169.13-22.86.47H83.64v-.47h35.54z"/>
            <path fill="url(#35f74c33-d5ee-4c10-85ca-84802d834984)" fill-rule="evenodd" d="M5.16 212.87.53 231.9h204.36l-11.27-16.33-188.46-2.7z"/>
            <path fill="url(#c922d3a4-2cc5-454e-80a9-5dca22f141e7)" fill-rule="evenodd" d="M193.62 215.57h97.79l5.36 16.33h-98.91l-4.24-16.33z"/>
            <path style="mix-blend-mode:multiply" fill="url(#d992a0f9-abcb-4ea6-8ef9-011dba2bc1f4)" opacity=".5" fill-rule="evenodd" d="m79.87 42.24 6.54 11.42 13.84.97 2.66-3.37 3.99 5.51 9.97-10.64-2.28-14.67 15.16-11.54-25.44-1.85-7.1 3.61-17.34 20.56z"/>
            <path fill="url(#d6629cab-661a-4a5e-8cc7-89ec547abe25)" fill-rule="evenodd" d="m94.17.01 3.47.01V3.7l3.06 5.65 2.64-2.77.42-2.51h3.55l-1.63 4.44-1.07 8.05 5.04-2.85 3.24-.03v1.73l-5.22 7.7 3.56 2.02-11.33 4.15 9.21 8.31 4.07 2.13-4.01.17-5.83-3.15.72 6.25 1.8 6.29-2.18.25-3.43-2.77-1.45 1.84-1.08 5.03-3.2.03-.73-6.52-2.23-1.68-3.12 4.1h-3.36l1.12-10.08.2-1.71-3.67 2.12-4.19-.12 4.61-4.35 4.07-6.14-.52-2.99-7.95-12.63 4.22.02 3.85 2.7 4.02-.24L85.08 4.1l3.56-.03 1.84 4.07 3.25 7.04 1.08-3.32L94.17.01z"/>
            <path d="M96.89 23.73s-3.35-17.41-.7-22.48 5.3 5.86 2.51 22.48z" fill="url(#76c13cd4-ef2f-4cb9-9fe1-442d09393f06)" fill-rule="evenodd"/>
            <path d="M99.89 25.06s12.37-4.71 16-1-4.17 7.45-16 3.53z" fill="url(#285aa23d-3135-459c-8cb6-74a1b68e61c3)" fill-rule="evenodd"/>
            <path d="M97.76 23.74s3.93-17.16 8.11-19.39 2.18 9-6.59 20.78z" fill="url(#b768d9ab-ae7b-4e9a-8250-eb7d1b0c113c)" fill-rule="evenodd"/>
            <path d="M99 23.62s10-11.23 14.38-9.82S111.67 23 99.72 26z" fill="url(#9a58be0b-98f3-4122-b454-c8beb964f747)" fill-rule="evenodd"/>
            <path d="M95.71 25s-12.46-4.74-16.09-1 4.19 7.51 16.09 3.56z" fill="url(#c24f4f9c-23ed-43bc-98d0-6d2d816cf5bc)" fill-rule="evenodd"/>
            <path d="M97.72 23.74S93.79 6.58 89.6 4.35s-2.17 9 6.59 20.78z" fill="url(#df1a3303-c1aa-4901-ab4e-f0141fdd6fb9)" fill-rule="evenodd"/>
            <path d="M96.6 23.55s-10.1-11.31-14.49-9.89 1.73 9.23 13.77 12.25z" fill="url(#952157bc-231c-46ae-bc65-73f4a47743aa)" fill-rule="evenodd"/>
            <path d="M98.52 29.76s3.37 17.53.7 22.64-5.33-5.9-2.52-22.64z" fill="url(#19bfc170-14a8-4c98-b856-df907fe7f661)" fill-rule="evenodd"/>
            <path d="M97.64 29.75s-4 17.28-8.17 19.53-2.19-9 6.64-20.93z" fill="url(#8117e719-0195-40b3-9d43-e1d58f1749df)" fill-rule="evenodd"/>
            <path d="M96.39 29.87S86.3 41.18 81.9 39.77s1.74-9.24 13.77-12.25z" fill="url(#887a8b87-e33e-4f04-9cec-275a3603348a)" fill-rule="evenodd"/>
            <path d="M97.69 29.75s4 17.28 8.17 19.53 2.19-9-6.64-20.93z" fill="url(#33bbfea9-8c55-43c0-bbbd-cc6487b5c8d9)" fill-rule="evenodd"/>
            <path d="M98.8 29.9s10 11.23 14.38 9.82-1.72-9.17-13.66-12.16z" fill="url(#9fd4d74f-b427-4c03-88ac-c0eb9099cf3e)" fill-rule="evenodd"/>
            <path d="M93.53 23.73s-3.34-17.41-.7-22.48 5.3 5.86 2.51 22.48z" fill="url(#39ac2640-18a4-4047-b5a6-2e667589c6c7)" fill-rule="evenodd"/>
            <path d="M96.53 25.06s12.37-4.71 16-1-4.17 7.45-16 3.53z" fill="url(#a589cdee-d359-4722-80ea-2c17e4fbd91a)" fill-rule="evenodd"/>
            <path d="M94.4 23.74s3.93-17.16 8.12-19.39 2.17 9-6.6 20.78z" fill="url(#1b4ca2dc-3be6-47dd-afd6-b898525cf89d)" fill-rule="evenodd"/>
            <path d="M95.65 23.62s10-11.23 14.38-9.82S108.31 23 96.37 26z" fill="url(#79534052-1ad0-4e68-b1b0-1348f5e369d7)" fill-rule="evenodd"/>
            <path d="M92.35 25s-12.46-4.74-16.09-1 4.2 7.51 16.09 3.56z" fill="url(#722cecc8-8fe2-42f5-8bc1-c9b6ac56d21d)" fill-rule="evenodd"/>
            <path d="M94.36 23.74S90.43 6.58 86.24 4.35s-2.17 9 6.6 20.78z" fill="url(#01626534-f230-4632-8b82-8c4fbce2b1bd)" fill-rule="evenodd"/>
            <path d="M93.24 23.55s-10.09-11.31-14.49-9.89 1.74 9.23 13.77 12.25z" fill="url(#79586699-37e8-47fa-aa90-cd0fc1a03985)" fill-rule="evenodd"/>
            <path d="M95.16 29.76s3.37 17.53.7 22.64-5.33-5.9-2.52-22.64z" fill="url(#933343a6-3c4c-41ff-8e2a-d038a6bd480e)" fill-rule="evenodd"/>
            <path d="M94.28 29.75s-4 17.28-8.17 19.53-2.19-9 6.64-20.93z" fill="url(#a7a5b6a2-c5c1-4a90-a5a4-0c915bb18104)" fill-rule="evenodd"/>
            <path d="M93 29.87s-10.09 11.31-14.49 9.9 1.74-9.24 13.77-12.25z" fill="url(#e59654d3-1928-4932-a87a-eed1c6b5d215)" fill-rule="evenodd"/>
            <path d="M94.33 29.75s4 17.28 8.17 19.53 2.19-9-6.64-20.93z" fill="url(#fedb1952-90a9-4c87-9d2b-47fd1ebbdca1)" fill-rule="evenodd"/>
            <path d="M95.44 29.9s10 11.23 14.38 9.82-1.72-9.17-13.66-12.16z" fill="url(#dde1b349-9847-492c-a9a8-bfcbc10c36d6)" fill-rule="evenodd"/>
            <path d="M100.7 26.92c0 4.48-2.87 8.1-6.42 8.1s-6.42-3.62-6.42-8.1 2.88-8.1 6.42-8.1 6.42 3.63 6.42 8.1z" fill="url(#6cc039a9-cf5e-4790-b7e6-532aa1c3e1cb)" fill-rule="evenodd"/>
            <path d="M5.16 212.87s31.64 1.62 75.9 3.79 112.55-1.09 112.55-1.09z" style="mix-blend-mode:screen" fill="url(#ed102cfb-c451-4970-b5b1-31bdfdcdc571)" fill-rule="evenodd"/>
            <path d="M.53 231.9s189.24-2 195.94-2.92c7.36 1.38 100.3 2.92 100.3 2.92z" style="mix-blend-mode:multiply" fill="url(#8ef0d4f9-4737-44b0-9992-b3e829b79872)" opacity=".5" fill-rule="evenodd"/>
        </g>
    </g>
</svg>
