<?xml version="1.0" encoding="UTF-8"?>
<svg data-bbox="0 -0.003 71.31 69.763" viewBox="0 0 71.27 69.76" xmlns:xlink="http://www.w3.org/1999/xlink" xmlns="http://www.w3.org/2000/svg" data-type="ugc">
    <g>
        <defs>
            <linearGradient gradientUnits="userSpaceOnUse" y2="37.06" x2="35.63" y1="66.93" x1="35.63" id="1d6d3fac-0b5b-459e-a59f-46e837faadf5">
                <stop stop-color="#bb0d33" offset=".03"/>
                <stop stop-color="#ff2539" offset="1"/>
            </linearGradient>
            <linearGradient gradientUnits="userSpaceOnUse" gradientTransform="rotate(-2.71 16.778 -11.87)" y2="18.96" x2="59.81" y1="34.62" x1="59.81" id="b25d4f67-ebbe-4198-bdc2-136fefef3022">
                <stop stop-color="#ff866f" offset="0"/>
                <stop stop-color="#ff2f72" offset="1"/>
            </linearGradient>
            <linearGradient gradientUnits="userSpaceOnUse" gradientTransform="rotate(-2.71 16.778 -11.87)" y2="16.21" x2="51.46" y1="25.25" x1="51.46" id="1053eb95-956e-4daf-8765-66d65850c7db">
                <stop stop-color="#ff866f" offset="0"/>
                <stop stop-color="#ff6f66" offset="1"/>
            </linearGradient>
            <linearGradient xlink:href="#1053eb95-956e-4daf-8765-66d65850c7db" y2="26.79" x2="49.76" y1="32.23" x1="49.76" id="69b7cc55-8a46-4b4d-842b-d1313bc17aef"/>
            <linearGradient gradientUnits="userSpaceOnUse" gradientTransform="rotate(-2.71 16.778 -11.87)" y2="15.25" x2="61.18" y1="30.89" x1="61.18" id="d5f390a7-87d1-4940-a298-03de42224c3e">
                <stop stop-color="#f02d66" offset="0"/>
                <stop stop-color="#ff7e63" offset="1"/>
            </linearGradient>
            <linearGradient gradientUnits="userSpaceOnUse" gradientTransform="rotate(-2.71 16.778 -11.87)" y2="26.18" x2="55.57" y1="31.14" x1="55.57" id="3d6de1d4-3c53-4f9d-af00-4e1a52068d87">
                <stop stop-color="#f05688" offset="0"/>
                <stop stop-color="#f25263" offset="1"/>
            </linearGradient>
            <linearGradient gradientUnits="userSpaceOnUse" gradientTransform="rotate(-2.71 16.778 -11.87)" y2="24.02" x2="57.36" y1="28.89" x1="57.36" id="d584fdf3-96b4-460e-9adb-737c201cd404">
                <stop stop-color="#f02757" offset="0"/>
                <stop stop-color="#f2695c" offset="1"/>
            </linearGradient>
            <linearGradient xlink:href="#d584fdf3-96b4-460e-9adb-737c201cd404" y2="22.5" x2="58.61" y1="26.79" x1="58.61" id="eb79b6fc-ae95-4884-a7ad-527815b035aa"/>
            <linearGradient xlink:href="#d584fdf3-96b4-460e-9adb-737c201cd404" y2="21.89" x2="54.17" y1="28.84" x1="54.17" id="9664146c-d539-4df5-a53f-b682c8e6a5db"/>
            <linearGradient xlink:href="#b25d4f67-ebbe-4198-bdc2-136fefef3022" gradientTransform="rotate(-14.34 -355.359 44.728)" y2="102.19" x2="35.03" y1="117.85" x1="35.03" id="e5e1a6d1-694d-4041-91c3-c96c5d77906e"/>
            <linearGradient xlink:href="#1053eb95-956e-4daf-8765-66d65850c7db" gradientTransform="rotate(-14.34 -355.359 44.728)" y2="103.27" x2="26.94" y1="113.06" x1="26.94" id="8a534c55-08c4-4e72-a526-bffce8c0ed16"/>
            <linearGradient xlink:href="#1053eb95-956e-4daf-8765-66d65850c7db" gradientTransform="rotate(-14.34 -355.359 44.728)" y2="110.02" x2="24.99" y1="115.46" x1="24.99" id="c81a6d2d-21bc-4709-90cd-466d47113756"/>
            <linearGradient xlink:href="#d5f390a7-87d1-4940-a298-03de42224c3e" gradientTransform="rotate(-14.34 -355.359 44.728)" y2="98.48" x2="36.4" y1="114.12" x1="36.4" id="b6fdade5-d2d2-4b15-aeb2-5359e2525464"/>
            <linearGradient xlink:href="#3d6de1d4-3c53-4f9d-af00-4e1a52068d87" gradientTransform="rotate(-14.34 -355.359 44.728)" y2="109.41" x2="30.8" y1="114.37" x1="30.8" id="9c36e45e-5f1a-4300-8d2a-a0ca2732b858"/>
            <linearGradient xlink:href="#d584fdf3-96b4-460e-9adb-737c201cd404" gradientTransform="rotate(-14.34 -355.359 44.728)" y2="107.25" x2="32.58" y1="112.13" x1="32.58" id="909a11b9-182a-45fd-b3bb-a7b68d95e52d"/>
            <linearGradient xlink:href="#d584fdf3-96b4-460e-9adb-737c201cd404" gradientTransform="rotate(-14.34 -355.359 44.728)" y2="105.73" x2="33.83" y1="110.02" x1="33.83" id="2836d6e3-e6b9-4c00-a001-6cd0fa4d0bd2"/>
            <linearGradient xlink:href="#d584fdf3-96b4-460e-9adb-737c201cd404" gradientTransform="rotate(-14.34 -355.359 44.728)" y2="105.12" x2="29.4" y1="112.07" x1="29.4" id="a105fada-cb73-45d4-acbc-e3c9df9c272a"/>
            <linearGradient xlink:href="#b25d4f67-ebbe-4198-bdc2-136fefef3022" gradientTransform="matrix(.9 .43 -.43 .9 -18.89 233.97)" y2="-211.42" x2="-57.3" y1="-195.77" x1="-57.3" id="3f2d3913-8176-4151-bad5-4edfde28558f"/>
            <linearGradient xlink:href="#1053eb95-956e-4daf-8765-66d65850c7db" gradientTransform="matrix(.9 .43 -.43 .9 -18.89 233.97)" y2="-210.35" x2="-65.39" y1="-200.56" x1="-65.39" id="e95c0844-b762-4639-99d7-13bf4e434da5"/>
            <linearGradient xlink:href="#1053eb95-956e-4daf-8765-66d65850c7db" gradientTransform="matrix(.9 .43 -.43 .9 -18.89 233.97)" y2="-203.6" x2="-67.35" y1="-198.16" x1="-67.35" id="fc482bf6-4fba-44f4-92f1-c1e982d4eb1b"/>
            <linearGradient xlink:href="#d5f390a7-87d1-4940-a298-03de42224c3e" gradientTransform="matrix(.9 .43 -.43 .9 -18.89 233.97)" y2="-215.13" x2="-55.93" y1="-199.5" x1="-55.93" id="263fefda-554e-4af7-9f4b-8224064b2c4b"/>
            <linearGradient xlink:href="#3d6de1d4-3c53-4f9d-af00-4e1a52068d87" gradientTransform="matrix(.9 .43 -.43 .9 -18.89 233.97)" y2="-204.21" x2="-61.54" y1="-199.25" x1="-61.54" id="a1368716-d342-4feb-8257-bb77f0cdb43c"/>
            <linearGradient xlink:href="#d584fdf3-96b4-460e-9adb-737c201cd404" gradientTransform="matrix(.9 .43 -.43 .9 -18.89 233.97)" y2="-206.36" x2="-59.75" y1="-201.49" x1="-59.75" id="edd68fc4-da89-4ee5-bc69-29d3142455cc"/>
            <linearGradient xlink:href="#d584fdf3-96b4-460e-9adb-737c201cd404" gradientTransform="matrix(.9 .43 -.43 .9 -18.89 233.97)" y2="-207.89" x2="-58.5" y1="-203.6" x1="-58.5" id="30e1aeb4-213a-4919-b462-45dd4c1cffff"/>
            <linearGradient xlink:href="#d584fdf3-96b4-460e-9adb-737c201cd404" gradientTransform="matrix(.9 .43 -.43 .9 -18.89 233.97)" y2="-208.5" x2="-62.94" y1="-201.55" x1="-62.94" id="fa902dbf-c16c-4cf8-8856-1a0766cb92d1"/>
            <linearGradient gradientUnits="userSpaceOnUse" gradientTransform="rotate(-82.5 -424.28 69.48)" y2="523.06" x2="-320.3" y1="537.42" x1="-320.3" id="4e5b7ed8-6d3b-4076-9384-cd9c7c5171d4">
                <stop stop-color="#ff6f66" offset="0"/>
                <stop stop-color="#ff866f" offset="1"/>
            </linearGradient>
            <linearGradient xlink:href="#4e5b7ed8-6d3b-4076-9384-cd9c7c5171d4" y2="511.92" x2="-319.83" y1="520.22" x1="-319.83" id="03f56359-3353-4aa7-b15e-7f7aef5cdea6"/>
            <linearGradient xlink:href="#b25d4f67-ebbe-4198-bdc2-136fefef3022" gradientTransform="matrix(.92 -.38 .38 .92 -46.6 -138.43)" y2="175.49" x2="19.58" y1="191.15" x1="19.58" id="fb906f28-4ee5-45e1-93b4-9a8295780ac2"/>
            <linearGradient xlink:href="#1053eb95-956e-4daf-8765-66d65850c7db" gradientTransform="matrix(.92 -.38 .38 .92 -46.6 -138.43)" y2="183.32" x2="9.54" y1="188.75" x1="9.54" id="6740fbab-fdf2-4da2-a003-a1f318d4239d"/>
            <linearGradient xlink:href="#d5f390a7-87d1-4940-a298-03de42224c3e" gradientTransform="matrix(.92 -.38 .38 .92 -46.6 -138.43)" y2="171.78" x2="20.95" y1="187.42" x1="20.95" id="8cdfb485-5e1d-49b2-83ff-6cb5e80e7f34"/>
            <linearGradient xlink:href="#3d6de1d4-3c53-4f9d-af00-4e1a52068d87" gradientTransform="matrix(.92 -.38 .38 .92 -46.6 -138.43)" y2="182.71" x2="15.35" y1="187.67" x1="15.35" id="bd434967-5434-4d09-970c-9e9cfa7abd75"/>
            <linearGradient xlink:href="#d584fdf3-96b4-460e-9adb-737c201cd404" gradientTransform="matrix(.92 -.38 .38 .92 -46.6 -138.43)" y2="180.55" x2="17.13" y1="185.42" x1="17.13" id="9f1d44cc-c7de-40a5-ba88-71c9bfee3c42"/>
            <linearGradient xlink:href="#d584fdf3-96b4-460e-9adb-737c201cd404" gradientTransform="matrix(.92 -.38 .38 .92 -46.6 -138.43)" y2="179.03" x2="18.39" y1="183.32" x1="18.39" id="c06bc2ea-c915-4ee9-976a-161addffa2db"/>
            <linearGradient xlink:href="#d584fdf3-96b4-460e-9adb-737c201cd404" gradientTransform="matrix(.92 -.38 .38 .92 -46.6 -138.43)" y2="178.41" x2="13.95" y1="185.36" x1="13.95" id="af6813a5-57db-4b4a-92dd-c47fe8cef318"/>
            <radialGradient gradientUnits="userSpaceOnUse" r="12.16" cy="68.34" cx="34.75" id="98f1f18e-b8a5-42e5-9077-6a5fa4f3e1a2">
                <stop stop-color="#ff2539" offset="0"/>
                <stop stop-color="#bb0d33" offset=".97"/>
            </radialGradient>
            <radialGradient gradientUnits="userSpaceOnUse" r="25.29" cy="40.04" cx="35.63" id="e2d39cdd-6fc5-4ec7-9aec-3e92323cfa23">
                <stop stop-color="#ffc533" offset=".03"/>
                <stop stop-color="#ef612e" offset="1"/>
            </radialGradient>
        </defs>
        <g>
            <path d="M0 38.13s4.39 22.1 24.66 28.8H47s21.33-9.27 24.31-29.87z" fill="url(#1d6d3fac-0b5b-459e-a59f-46e837faadf5)" fill-rule="evenodd"/>
            <path fill="url(#98f1f18e-b8a5-42e5-9077-6a5fa4f3e1a2)" fill-rule="evenodd" d="m24.66 66.93-7.05 2.83H51.9l-4.94-2.83h-22.3z"/>
            <path fill="url(#e2d39cdd-6fc5-4ec7-9aec-3e92323cfa23)" fill-rule="evenodd" d="m0 38.13 1.27 4.89h68.55l1.45-5.96L0 38.13z"/>
            <path d="M2.82 46.3s10.47 17.1 31.93 17.81a39.22 39.22 0 0 0 32.42-15.27A46.23 46.23 0 0 1 47 66.93H24.66S10.83 63.54 2.82 46.3z" fill="#7c1b40" opacity=".46" fill-rule="evenodd"/>
            <path style="mix-blend-mode:soft-light" fill="#ffffb8" opacity=".84" fill-rule="evenodd" d="M42.13 37.5v5.52h5.27l1.23-5.96-6.5.44z"/>
            <path style="mix-blend-mode:soft-light" fill="#ffffb8" opacity=".84" fill-rule="evenodd" d="m50.57 43.02 1.33-5.67 4.23-.06-2.65 5.73h-2.91z"/>
            <path fill="#5b3925" fill-rule="evenodd" d="m10.83 27.88 2.57 10.05 44.66-.64 1.82-10.63-1.81-.17-9.44-.92-2.3 9.87v-7.56h-35.5z"/>
            <path d="m8.69 29.33-5-.53a4.79 4.79 0 0 1-1.64-4.7c.46-3.29 5.37-3.29 5.37-3.29l.56-6s.58-4.91 8.82-6.06a12.88 12.88 0 0 1 3.29 7.32l-.3-6.31S19.75 6.88 26 5.05l4.56 1 .15-3s10.78-1.41 17.75 1.63a7.36 7.36 0 0 1 1.62 7l3.07-2.87s9.43-.85 12.1 5.43 1.4 8.67 1.4 8.67-5.43 7.34-23.32 8-23.69-.51-23.69-.51z" fill="#c91e34" fill-rule="evenodd"/>
            <path d="M54.14 27s-1.5 3.12-1.3 4.9 13.66 1.15 16.94-4.79-4-10.44-4-10.44z" fill="url(#b25d4f67-ebbe-4198-bdc2-136fefef3022)" fill-rule="evenodd"/>
            <path d="M54.47 23.51S48.49 21 48 18.45a10.64 10.64 0 0 1 6.07-4s3.75 3.89 4 7.63z" fill="url(#1053eb95-956e-4daf-8765-66d65850c7db)" fill-rule="evenodd"/>
            <path d="M53.25 25.11a7.68 7.68 0 0 0-5.94 3.79s2.11 1.79 3.86 1.75 4.92-2.95 4.92-2.95z" fill="url(#69b7cc55-8a46-4b4d-842b-d1313bc17aef)" fill-rule="evenodd"/>
            <path d="M57.12 20s-1.27-3-.25-5.36 9.76-2.14 11.58 3-3 11.63-7.87 11.11S57.12 20 57.12 20z" fill="url(#d5f390a7-87d1-4940-a298-03de42224c3e)" fill-rule="evenodd"/>
            <path d="M55.94 24.51S51.23 25.7 51 26.83s4.63 2.93 8.39 2.27 4.48-2.88 4.48-2.88-5.99-2.59-7.93-1.71z" fill="url(#3d6de1d4-3c53-4f9d-af00-4e1a52068d87)" fill-rule="evenodd"/>
            <path d="M54.71 20.75a6.86 6.86 0 0 1 2.41-.75 8.46 8.46 0 0 1 3.88.57s3.24 1.57 2.8 4-3.92 2.06-3.92 2.06-8.77.27-5.17-5.88z" fill="#c91e34" fill-rule="evenodd"/>
            <path d="M58 24.74s-.08-2 1.29-2.58 3.76 1 3.85 2.9-3.55 2.21-5.06 1.43c0 0-3.14-1-3-3.22S58 24.74 58 24.74z" fill="url(#d584fdf3-96b4-460e-9adb-737c201cd404)" fill-rule="evenodd"/>
            <path d="M56.66 21.44s1.53-1.37 4.78-.79 2.36 4 2.36 4a3.76 3.76 0 0 0-3-3.37 7.32 7.32 0 0 0-4.14.16z" fill="url(#eb79b6fc-ae95-4884-a7ad-527815b035aa)" fill-rule="evenodd"/>
            <path d="M57.12 20a4 4 0 0 0-2.65 3.49c-.18 2.74 5 3.35 5 3.35s-5.15-.33-7-3.15c.02.02-.91-2.88 4.65-3.69z" fill="url(#9664146c-d539-4df5-a53f-b682c8e6a5db)" fill-rule="evenodd"/>
            <path d="M32.21 15.05s-.84 3.36-.29 5.06S45.53 18.49 47.55 12s-6-9.43-6-9.43z" fill="url(#e5e1a6d1-694d-4041-91c3-c96c5d77906e)" fill-rule="evenodd"/>
            <path d="M31.22 15.65s-4.63 3.27-5.65.89c0 0-3.27-7.5 3.41-9.64 0 0 6.92-.53 7.93 3.09z" fill="url(#8a534c55-08c4-4e72-a526-bffce8c0ed16)" fill-rule="evenodd"/>
            <path d="M31 13.36a7.71 7.71 0 0 0-5.05 4.91s2.43 1.33 4.13.94 4.22-3.88 4.22-3.88z" fill="url(#c81a6d2d-21bc-4709-90cd-466d47113756)" fill-rule="evenodd"/>
            <path d="M33.72 7.59s-1.85-2.67-1.33-5.19 9.13-4.07 12 .63-.58 12-5.47 12.48-5.2-7.92-5.2-7.92z" fill="url(#b6fdade5-d2d2-4b15-aeb2-5359e2525464)" fill-rule="evenodd"/>
            <path d="M33.47 12.23s-4.38 2.12-4.37 3.27 5.12 1.94 8.67.53 3.81-3.72 3.81-3.72-6.39-1.31-8.11-.08z" fill="url(#9c36e45e-5f1a-4300-8d2a-a0ca2732b858)" fill-rule="evenodd"/>
            <path d="M31.51 8.8a6.74 6.74 0 0 1 2.21-1.21 8.67 8.67 0 0 1 3.91-.22s3.49.89 3.55 3.38-3.42 2.8-3.42 2.8-8.54 2-6.25-4.75z" fill="#c91e34" fill-rule="evenodd"/>
            <path d="M35.52 12.05s-.47-1.9.74-2.79 3.89.23 4.36 2.07-3 2.87-4.67 2.42c0 0-3.28-.39-3.54-2.57s3.11.87 3.11.87z" fill="url(#909a11b9-182a-45fd-b3bb-a7b68d95e52d)" fill-rule="evenodd"/>
            <path d="M33.55 9.08s1.22-1.65 4.53-1.73 3.1 3.4 3.1 3.4a3.74 3.74 0 0 0-3.61-2.69 7.3 7.3 0 0 0-4.02 1.02z" fill="url(#2836d6e3-e6b9-4c00-a001-6cd0fa4d0bd2)" fill-rule="evenodd"/>
            <path d="M33.72 7.59a4 4 0 0 0-1.89 4c.37 2.72 5.6 2.27 5.6 2.27s-5.11.71-7.51-1.67c0-.04-1.49-2.7 3.8-4.6z" fill="url(#a105fada-cb73-45d4-acbc-e3c9df9c272a)" fill-rule="evenodd"/>
            <path d="M10.33 24.17s-2.81 2-3.48 3.69S18.3 35.38 24 31.72s1.49-11.08 1.49-11.08z" fill="url(#3f2d3913-8176-4151-bad5-4edfde28558f)" fill-rule="evenodd"/>
            <path d="M9.18 24s-5.65-.48-4.9-3c0 0 2.33-7.84 8.83-5.18 0 0 5.63 4.06 4.07 7.48z" fill="url(#e95c0844-b762-4639-99d7-13bf4e434da5)" fill-rule="evenodd"/>
            <path d="M10.45 22.07a7.71 7.71 0 0 0-7 .5S4.42 25.15 6 26s5.73-.25 5.73-.25z" fill="url(#fc482bf6-4fba-44f4-92f1-c1e982d4eb1b)" fill-rule="evenodd"/>
            <path d="M16.28 19.44s.31-3.24 2.33-4.83 9.6 2.77 8.74 8.19-8.17 8.79-12.22 6 1.15-9.36 1.15-9.36z" fill="url(#263fefda-554e-4af7-9f4b-8224064b2c4b)" fill-rule="evenodd"/>
            <path d="M13.1 22.82s-4.71-1.2-5.45-.31 2.67 4.79 6.29 6 5.32-.39 5.32-.39-4.03-5.12-6.16-5.3z" fill="url(#a1368716-d342-4feb-8257-bb77f0cdb43c)" fill-rule="evenodd"/>
            <path d="M13.81 18.93a6.78 6.78 0 0 1 2.47.51 8.59 8.59 0 0 1 3.14 2.35s2.09 2.93.54 4.87-4.42-.06-4.42-.06-7.82-3.98-1.73-7.67z" fill="#c91e34" fill-rule="evenodd"/>
            <path d="M14.79 24s.86-1.76 2.36-1.66 2.83 2.68 2 4.39S15 27 14 25.59c0 0-2.26-2.42-1.07-4.25S14.79 24 14.79 24z" fill="url(#edd68fc4-da89-4ee5-bc69-29d3142455cc)" fill-rule="evenodd"/>
            <path d="M15.19 20.47s2-.48 4.58 1.59.19 4.6.19 4.6a3.75 3.75 0 0 0-1-4.39 7.32 7.32 0 0 0-3.77-1.8z" fill="url(#30e1aeb4-213a-4919-b462-45dd4c1cffff)" fill-rule="evenodd"/>
            <path d="M16.28 19.44a4 4 0 0 0-4 1.81c-1.47 2.32 2.82 5.34 2.82 5.34s-4.37-2.75-4.67-6.11c.01 0 .57-3 5.85-1.04z" fill="url(#fa902dbf-c16c-4cf8-8856-1a0766cb92d1)" fill-rule="evenodd"/>
            <path d="M39.69 30.39s6.22 3.66 10.5 2.81 7-11.91 1.86-14.63-8.83-1.13-8.83-1.13z" fill="url(#4e5b7ed8-6d3b-4076-9384-cd9c7c5171d4)" fill-rule="evenodd"/>
            <path d="M36.51 16.59s-6.41 1-7.2 7.21 5.53 5.89 5.53 5.89 5.95-9.93 1.67-13.1z" fill="url(#03f56359-3353-4aa7-b15e-7f7aef5cdea6)" fill-rule="evenodd"/>
            <path d="M35.7 28s-.34 3.45.45 5.05 13.23-3.56 14.3-10.27-7.29-8.46-7.29-8.46z" fill="url(#fb906f28-4ee5-45e1-93b4-9a8295780ac2)" fill-rule="evenodd"/>
            <path d="M34.21 26.5a7.67 7.67 0 0 0-4.29 5.58s2.59 1 4.23.33S37.76 28 37.76 28z" fill="url(#6740fbab-fdf2-4da2-a003-a1f318d4239d)" fill-rule="evenodd"/>
            <path d="M36.13 20.39s-2.22-2.38-2.06-5S42.52 10.1 46 14.35s1.15 12-3.62 13.13-6.25-7.09-6.25-7.09z" fill="url(#8cdfb485-5e1d-49b2-83ff-6cb5e80e7f34)" fill-rule="evenodd"/>
            <path d="M36.54 25s-4 2.73-3.85 3.87 5.35 1.18 8.65-.72 3.25-4.23 3.25-4.23-6.52-.39-8.05 1.08z" fill="url(#bd434967-5434-4d09-970c-9e9cfa7abd75)" fill-rule="evenodd"/>
            <path d="M34.11 21.9a6.73 6.73 0 0 1 2-1.51 8.53 8.53 0 0 1 3.89-.78s3.58.38 4 2.83-3 3.26-3 3.26-8.19 3.2-6.89-3.8z" fill="#c91e34" fill-rule="evenodd"/>
            <path d="M38.55 24.54s-.74-1.82.33-2.87 3.88-.33 4.61 1.42-2.59 3.28-4.27 3.07c0 0-3.3.08-3.88-2s3.21.38 3.21.38z" fill="url(#9f1d44cc-c7de-40a5-ba88-71c9bfee3c42)" fill-rule="evenodd"/>
            <path d="M36.17 21.89s1-1.81 4.23-2.37 3.6 2.92 3.6 2.92a3.76 3.76 0 0 0-4-2.15 7.32 7.32 0 0 0-3.83 1.6z" fill="url(#c06bc2ea-c915-4ee9-976a-161addffa2db)" fill-rule="evenodd"/>
            <path d="M36.13 20.39a4 4 0 0 0-1.31 4.18c.76 2.65 5.87 1.45 5.87 1.45s-4.95 1.43-7.67-.58c-.02 0-1.86-2.44 3.11-5.05z" fill="url(#af6813a5-57db-4b4a-92dd-c47fe8cef318)" fill-rule="evenodd"/>
        </g>
    </g>
</svg>
