<?xml version="1.0" encoding="UTF-8"?>
<svg data-bbox="0 0 122.43 186.45" viewBox="0 0 122.43 186.45" xmlns:xlink="http://www.w3.org/1999/xlink" xmlns="http://www.w3.org/2000/svg" data-type="ugc">
    <g>
        <defs>
            <linearGradient gradientUnits="userSpaceOnUse" y2="132.26" x2="66.48" y1="186.45" x1="66.48" id="0bb5e2ce-e064-4837-b1db-2ead06a2db58">
                <stop stop-color="#1f637a" offset="0"/>
                <stop stop-color="#36948e" offset="1"/>
            </linearGradient>
            <linearGradient gradientUnits="userSpaceOnUse" y2="149.66" x2="97.8" y1="149.66" x1="35.16" id="e3a2f349-a0ee-4763-aadd-db3082920968">
                <stop stop-color="#a3450b" offset="0"/>
                <stop offset="1"/>
            </linearGradient>
            <linearGradient gradientUnits="userSpaceOnUse" y2="132.53" x2="90.32" y1="132.53" x1="42.35" id="443214a0-8e51-4caa-a2e6-9d5be8af78f1">
                <stop stop-color="#7d3a31" offset="0"/>
                <stop stop-color="#602736" offset="1"/>
            </linearGradient>
            <linearGradient xlink:href="#443214a0-8e51-4caa-a2e6-9d5be8af78f1" gradientTransform="matrix(-1 0 0 1 962.86 0)" y2="27.07" x2="896.53" y1="133.72" x1="896.53" id="7ad5a37e-f4ea-46e2-a99e-cc850b63d2c3"/>
            <linearGradient gradientUnits="userSpaceOnUse" y2="6.77" x2="116.43" y1="6.77" x1="102.03" id="3cb0f11c-d2e4-41bb-beca-542025012c53">
                <stop stop-color="#385200" offset="0"/>
                <stop stop-color="#454819" offset="1"/>
            </linearGradient>
            <linearGradient xlink:href="#3cb0f11c-d2e4-41bb-beca-542025012c53" y2="37.24" x2="102.35" y1="37.24" x1="74.92" id="210eaed3-cc3f-4fb3-9510-5572766c162a"/>
            <linearGradient xlink:href="#3cb0f11c-d2e4-41bb-beca-542025012c53" y2="36.44" x2="66.47" y1="36.44" x1="30.19" id="d18cff36-d8d7-4579-9485-7dc0036d26f4"/>
            <linearGradient xlink:href="#3cb0f11c-d2e4-41bb-beca-542025012c53" y2="10.92" x2="75.96" y1="10.92" x1="46.76" id="13c2b49c-0893-4c92-89b3-a6adbfb4e79b"/>
            <linearGradient xlink:href="#3cb0f11c-d2e4-41bb-beca-542025012c53" y2="9.93" x2="111.81" y1="9.93" x1="74.07" id="049b5430-a820-4170-b917-593511f851fa"/>
            <linearGradient xlink:href="#3cb0f11c-d2e4-41bb-beca-542025012c53" y2="15.08" x2="58.73" y1="15.08" x1="10.51" id="3c9a7529-221e-4e99-99b8-2283f6e85833"/>
            <linearGradient gradientUnits="userSpaceOnUse" y2="16.29" x2="66.06" y1="16.29" id="a89f271f-8cd9-49b3-a4a4-c879d6c472c6">
                <stop stop-color="#8b8806" offset="0"/>
                <stop stop-color="#545c1e" offset="1"/>
            </linearGradient>
            <linearGradient xlink:href="#a89f271f-8cd9-49b3-a4a4-c879d6c472c6" y2="12.89" x2="122.43" y1="12.89" x1="66.05" id="2327855a-1f35-4f44-bd2f-43a14c784867"/>
            <linearGradient xlink:href="#a89f271f-8cd9-49b3-a4a4-c879d6c472c6" y2="38.92" x2="92.81" y1="38.92" x1="54.54" id="7ab88b4e-6200-4ec8-8b54-f6d1468f2a7b"/>
            <linearGradient xlink:href="#3cb0f11c-d2e4-41bb-beca-542025012c53" y2="36.11" x2="75.52" y1="36.11" x1="72.46" id="d9339608-da0c-4d94-af17-a4737f36d71d"/>
            <linearGradient xlink:href="#3cb0f11c-d2e4-41bb-beca-542025012c53" y2="33.18" x2="75.04" y1="33.18" x1="59.32" id="80794b57-a9a4-4d52-82d4-52cbf48e0e9a"/>
            <linearGradient xlink:href="#3cb0f11c-d2e4-41bb-beca-542025012c53" y2="25.49" x2="74.38" y1="25.49" x1="56.97" id="fc53a102-6a27-4d69-adb2-51204e31d195"/>
            <linearGradient xlink:href="#3cb0f11c-d2e4-41bb-beca-542025012c53" y2="48.03" x2="74.61" y1="48.03" x1="64.83" id="429f4e19-24db-4d8c-a791-ca7959b225b8"/>
            <linearGradient xlink:href="#3cb0f11c-d2e4-41bb-beca-542025012c53" y2="32.41" x2="91.33" y1="32.41" x1="74.82" id="5ec3b76e-13d7-4730-a2bd-34082bef0785"/>
            <linearGradient xlink:href="#3cb0f11c-d2e4-41bb-beca-542025012c53" y2="15.99" x2="38.32" y1="15.99" x1="34.33" id="92b85b2c-0c73-442e-8b54-1ac5bea472c2"/>
            <linearGradient xlink:href="#3cb0f11c-d2e4-41bb-beca-542025012c53" y2="17.58" x2="53.53" y1="17.58" x1="49.39" id="d1e43883-aa82-4f6b-82cf-4c66538a9e21"/>
            <linearGradient xlink:href="#3cb0f11c-d2e4-41bb-beca-542025012c53" y2="11.72" x2="91.38" y1="11.72" x1="83.27" id="c55103e1-5861-4bff-80c0-a49f97fc4101"/>
            <linearGradient xlink:href="#3cb0f11c-d2e4-41bb-beca-542025012c53" y2="15.9" x2="84.2" y1="15.9" x1="75.86" id="181dfead-bbda-4c40-ac49-75345f3ef029"/>
            <linearGradient xlink:href="#a89f271f-8cd9-49b3-a4a4-c879d6c472c6" y2="10.55" x2="66.03" y1="10.55" x1="62.71" id="a886f14f-b2e4-4df4-8f4f-b32d7e5ae5a1"/>
            <linearGradient xlink:href="#a89f271f-8cd9-49b3-a4a4-c879d6c472c6" y2="7.8" x2="64.62" y1="7.8" x1="46.95" id="a7945ee1-a2aa-4fa9-acfb-1b76057385bf"/>
            <linearGradient xlink:href="#a89f271f-8cd9-49b3-a4a4-c879d6c472c6" y2="4.2" x2="71.8" y1="4.2" x1="63.12" id="504a859f-f45f-4331-9c8d-4c4b3f694f88"/>
        </defs>
        <g>
            <path d="M97.74 149.38c-.61 15.53-5.32 29.77-10.67 33.48-6.38 4.43-30.77 5.25-40.76-.34-3.38-2.5-6.38-8.56-8.41-16.27a87.14 87.14 0 0 1-1.9-33.34l60.39-.65h.25a78.18 78.18 0 0 1 1.1 17.12z" fill="url(#0bb5e2ce-e064-4837-b1db-2ead06a2db58)"/>
            <path d="m77.91 133.46-37.43.54c-2.36 18.82.59 30 6 46.66h5.68c-5.06-17.14-6.89-28.43-3.61-45.51z" style="mix-blend-mode:soft-light" fill="#ffffff" opacity=".68"/>
            <path d="M93.35 135.1c2.61 17.16.47 28.42-5.21 45.6l-3.4-.37c3.08-16.76 1.87-28.91-1-44.1z" style="mix-blend-mode:multiply" fill="#80008a" opacity=".11"/>
            <path d="M97.74 149.38c-23.25 23.28-59.84 16.87-59.84 16.87a87.14 87.14 0 0 1-1.9-33.34l60.39-.65h.25a78.18 78.18 0 0 1 1.1 17.12z" style="mix-blend-mode:color-dodge" opacity=".25" fill="url(#e3a2f349-a0ee-4763-aadd-db3082920968)"/>
            <path d="M96.72 132.53c0 1.81-13.6 3.28-30.38 3.28S36 134.34 36 132.53s13.6-3.28 30.38-3.28 30.34 1.47 30.34 3.28z" fill="#8dd0ce"/>
            <path d="M90.32 132.53c0 1.2-10.73 2.18-24 2.18s-24-1-24-2.18 10.74-2.19 24-2.19 24 .98 24 2.19z" fill="url(#443214a0-8e51-4caa-a2e6-9d5be8af78f1)"/>
            <path fill="url(#7ad5a37e-f4ea-46e2-a99e-cc850b63d2c3)" d="m68.98 133.72-.82-106.34-4.46-.31v106.65h5.28z"/>
            <path fill="url(#3cb0f11c-d2e4-41bb-beca-542025012c53)" d="m116.43 11.23-13.29-8.9-1.11-.25 13.95 9.37.45-.22z"/>
            <path fill="#3e1f21" d="m63.7 66.87 4.78 2.69-.25-33.12-4.53.8v29.63z"/>
            <path d="M74.92 14.78s18.68 6 23.18 9.49l-8.26 7L91 33.15l9.9-4.43.8 1.2-9.76 3.78 10.41-2.56s-.66 6-1.52 13.42c-.93 7.91-1.77 15.15-1.77 15.15s-9.1-9-13.3-12.47l3.71-7.83-5.35 7.35A63.14 63.14 0 0 1 78 40.35c-2.47-3.09-3.08-25.57-3.08-25.57z" fill="url(#210eaed3-cc3f-4fb3-9510-5572766c162a)"/>
            <path d="m63 34.73-5.17 7.18-5.22-4.8 4.15 5.19-7.5 6.1-4.12-4.8-2.62 2.47 2.55 5.2-1.27.73-13.61.15 2.32-13.61 8 1.92-7.6-3.13 5.88-6.3 7.51 4-6.3-4.64s4.21-4.63 6.57-6.72 9.16-3 9.16-3l10.7 3.7z" fill="url(#d18cff36-d8d7-4579-9485-7dc0036d26f4)"/>
            <path d="m76 7.84-2.2-1.47-6.41 5.11 6.17-8.63L69.53 0l-6.07 5.58-16.7-1.23.58 4.4s6.91 6.45 10.12 8.6a67.52 67.52 0 0 0 8.59 4.5S73 17 74 14.26s2-6.42 2-6.42z" fill="url(#13c2b49c-0893-4c92-89b3-a6adbfb4e79b)"/>
            <path d="M74.07 18S89.12 2.19 90.65 1.45s17.22 6.48 17.22 6.48l3.94 3.32S91.27 17 89.22 18s-15.15 0-15.15 0z" fill="url(#049b5430-a820-4170-b917-593511f851fa)"/>
            <path d="M58.73 21.08s-16.9.55-25 1.16-23.22-7.14-23.22-7.14 9.35-10.29 25.73-6.29 22.49 12.27 22.49 12.27z" fill="url(#3c9a7529-221e-4e99-99b8-2283f6e85833)"/>
            <path d="M66.05 21.85S55 12.6 43 8.43 0 10.58 0 10.58l14.71 8.52 8.52-9.62 3.17-.35-6.08 11.92 2.81 1 5.45-13.18-3 14s9.2 2.26 15.42 1.92l2.12-10.87 1.23 11.15 17.85-2.19 3.86 2.68z" fill="url(#a89f271f-8cd9-49b3-a4a4-c879d6c472c6)"/>
            <path d="M66.05 21.85s14.1-18.8 23.54-20.72 32.84 7.18 32.84 7.18l-15.22 7.4L93.7 2.8l-3.15.41L103 16.51l-3 .49L89.9 5l7.3 12.26A125.66 125.66 0 0 1 68 24.91z" fill="url(#2327855a-1f35-4f44-bd2f-43a14c784867)"/>
            <path fill="url(#7ab88b4e-6200-4ec8-8b54-f6d1468f2a7b)" d="m72.75 21.9 19.07.16.7 1.89-14 1.14-.79 2.27 15.08 1.36-4.33 12.5-8.29-2.87 6.6 4.72-19.86 18.29-4.25-14.44 6.68-3.95-7.86 1.82-2.77-16.23 6.62-.95-7.7-1.11-3.11-10.02 18.21 5.42z"/>
            <path d="M74.06 21.91s4.17 11.72-1.6 28.4c0 0 4.17-19.39.89-28.4z" fill="url(#d9339608-da0c-4d94-af17-a4737f36d71d)"/>
            <path fill="url(#80794b57-a9a4-4d52-82d4-52cbf48e0e9a)" d="m59.32 32.01 15.27.91.45 1.44-15.45-.78-.27-1.57z"/>
            <path fill="url(#fc53a102-6a27-4d69-adb2-51204e31d195)" d="m56.97 24.31 17.33 1.77.08.6-17.23-1.78-.18-.59z"/>
            <path fill="url(#429f4e19-24db-4d8c-a791-ca7959b225b8)" d="m64.83 54.23 9.15-13.37.63 1.38-9.49 12.97-.29-.98z"/>
            <path fill="url(#5ec3b76e-13d7-4730-a2bd-34082bef0785)" d="M90.21 36.22 75.5 31.55l-.69-2.96L91.33 33l-1.12 3.22z"/>
            <path fill="url(#92b85b2c-0c73-442e-8b54-1ac5bea472c2)" d="m38.32 7.41-2.15 17.24-1.84-.2 3.44-17.11.55.07z"/>
            <path fill="url(#d1e43883-aa82-4f6b-82cf-4c66538a9e21)" d="m53.53 23.94-3.4-12.44-.74-.37 3.39 12.91.75-.1z"/>
            <path fill="url(#c55103e1-5861-4bff-80c0-a49f97fc4101)" d="M91.38 19.14 84.17 3.58l-.9.62 6.9 15.66 1.21-.72z"/>
            <path fill="url(#181dfead-bbda-4c40-ac49-75345f3ef029)" d="m76.39 10.06 7.81 11.46-.37.22-7.97-11.16.53-.52z"/>
            <path d="M63.46 5.58a36 36 0 0 1 2.57 10L62.71 5.52z" fill="url(#a886f14f-b2e4-4df4-8f4f-b32d7e5ae5a1)"/>
            <path fill="url(#a7945ee1-a2aa-4fa9-acfb-1b76057385bf)" d="m46.95 5.78 16.97 3.43.7.61-17.57-3.27-.1-.77z"/>
            <path fill="url(#504a859f-f45f-4331-9c8d-4c4b3f694f88)" d="m71.53 1.43-8.41 5.36.5.17 8.18-5.34-.27-.19z"/>
        </g>
    </g>
</svg>
