<?xml version="1.0" encoding="UTF-8"?>
<svg data-bbox="0 0 50.59 125.296" viewBox="0 0 50.59 125.29" xmlns:xlink="http://www.w3.org/1999/xlink" xmlns="http://www.w3.org/2000/svg" data-type="ugc">
    <g>
        <defs>
            <linearGradient gradientUnits="userSpaceOnUse" y2="90.98" x2="27.19" y1="125.29" x1="27.19" id="127c9986-4c06-4a77-8ac7-1f16b15558fa">
                <stop stop-color="#1f637a" offset="0"/>
                <stop stop-color="#36948e" offset="1"/>
            </linearGradient>
            <linearGradient gradientUnits="userSpaceOnUse" y2="102" x2="47.03" y1="102" x1="7.35" id="52870de9-5cb9-492f-b2e3-c1dae8bd9299">
                <stop stop-color="#a3450b" offset="0"/>
                <stop offset="1"/>
            </linearGradient>
            <linearGradient gradientUnits="userSpaceOnUse" y2="91.14" x2="42.29" y1="91.14" x1="11.91" id="5fe4a24c-3e1d-41ac-aacf-0a95a4ce2e81">
                <stop stop-color="#7d3a31" offset="0"/>
                <stop stop-color="#602736" offset="1"/>
            </linearGradient>
            <linearGradient gradientUnits="userSpaceOnUse" gradientTransform="matrix(-.98 .19 .19 .98 167.71 -81.67)" y2="104.54" x2="173.89" y1="144.66" x1="173.89" id="d5a25928-e4df-409f-a349-6f5df86892e4">
                <stop stop-color="#385200" offset="0"/>
                <stop stop-color="#546b48" offset="1"/>
            </linearGradient>
            <linearGradient xlink:href="#d5a25928-e4df-409f-a349-6f5df86892e4" gradientTransform="matrix(-1 0 0 1 237.77 0)" y2="22.18" x2="202.33" y1="91.5" x1="202.33" id="74dac144-cb44-456f-98a7-4a4de5da2883"/>
            <linearGradient xlink:href="#d5a25928-e4df-409f-a349-6f5df86892e4" gradientTransform="matrix(-1 0 0 1 237.77 0)" y2="8.47" x2="211.97" y1="91.5" x1="211.97" id="64bbe517-804d-4510-9d97-3147ef1fdf2c"/>
            <linearGradient gradientUnits="userSpaceOnUse" gradientTransform="matrix(-.99 -.11 -.11 .99 268.15 54.07)" y2="-26.67" x2="243.72" y1="31.27" x1="243.72" id="069927c6-4226-4026-88f4-74f532523bfb">
                <stop stop-color="#385200" offset="0"/>
                <stop stop-color="#454819" offset="1"/>
            </linearGradient>
            <linearGradient xlink:href="#d5a25928-e4df-409f-a349-6f5df86892e4" gradientTransform="matrix(-.99 -.11 -.11 .99 268.15 54.07)" y2="-26.67" x2="243.7" y1="31.63" x1="243.7" id="acd8b83c-f676-4529-9986-d9380eed5322"/>
            <linearGradient xlink:href="#d5a25928-e4df-409f-a349-6f5df86892e4" gradientTransform="matrix(-.99 -.11 -.11 .99 268.15 54.07)" y2="13.16" x2="247.65" y1="16.79" x1="247.65" id="8f3183a9-9885-4ee1-a136-13edf77ccd27"/>
            <linearGradient xlink:href="#d5a25928-e4df-409f-a349-6f5df86892e4" gradientTransform="matrix(-.99 -.11 -.11 .99 268.15 54.07)" y2="-.49" x2="248.59" y1="3.84" x1="248.59" id="12dc6cfa-d510-45ab-8652-a0136f8337a2"/>
            <linearGradient xlink:href="#d5a25928-e4df-409f-a349-6f5df86892e4" gradientTransform="matrix(-.99 -.11 -.11 .99 268.15 54.07)" y2="-4.05" x2="241.1" y1=".02" x1="241.1" id="7f6d1c34-ab8f-4831-b20b-f1784074f6e8"/>
            <linearGradient gradientUnits="userSpaceOnUse" gradientTransform="rotate(5.01 97.742 -6696.508)" y2="-12.3" x2="627.73" y1="45.64" x1="627.73" id="0dbdfd6b-1355-420a-8a7c-417891ff6ab6">
                <stop stop-color="#8b8806" offset="0"/>
                <stop stop-color="#545c1e" offset="1"/>
            </linearGradient>
            <linearGradient xlink:href="#d5a25928-e4df-409f-a349-6f5df86892e4" gradientTransform="rotate(5.01 97.742 -6696.508)" y2="-12.3" x2="627.71" y1="46" x1="627.71" id="9de5b852-e453-42d9-91ed-2aec71348d13"/>
            <linearGradient xlink:href="#d5a25928-e4df-409f-a349-6f5df86892e4" gradientTransform="rotate(5.01 97.742 -6696.508)" y2="27.54" x2="631.65" y1="31.16" x1="631.65" id="c405aab8-a519-4bd8-87cb-b90c15e06036"/>
            <linearGradient xlink:href="#d5a25928-e4df-409f-a349-6f5df86892e4" gradientTransform="rotate(5.01 97.742 -6696.508)" y2="13.88" x2="632.6" y1="18.21" x1="632.6" id="f685481a-a8a8-4cb9-aa06-a6c3405aee11"/>
            <linearGradient xlink:href="#d5a25928-e4df-409f-a349-6f5df86892e4" gradientTransform="rotate(5.01 97.742 -6696.508)" y2="10.32" x2="625.1" y1="14.39" x1="625.1" id="d1015c63-8341-4d8c-b0c0-054da06eeb61"/>
            <linearGradient xlink:href="#0dbdfd6b-1355-420a-8a7c-417891ff6ab6" gradientTransform="matrix(-.98 .19 .19 .98 167.71 -81.67)" y2="70.99" x2="177" y1="128.93" x1="177" id="e92099e8-3c36-45d1-9045-3aa77735898a"/>
            <linearGradient xlink:href="#d5a25928-e4df-409f-a349-6f5df86892e4" y2="70.99" x2="176.98" y1="129.3" x1="176.98" id="47893fa9-8978-4fb9-87e2-dd4194243a0d"/>
            <linearGradient xlink:href="#d5a25928-e4df-409f-a349-6f5df86892e4" y2="110.83" x2="180.93" y1="114.45" x1="180.93" id="df43b902-5b0e-441d-866a-ee3677ffbb1d"/>
            <linearGradient xlink:href="#d5a25928-e4df-409f-a349-6f5df86892e4" y2="97.17" x2="181.87" y1="101.5" x1="181.87" id="ded6f600-e666-4c33-8fee-07b680c4847c"/>
            <linearGradient xlink:href="#d5a25928-e4df-409f-a349-6f5df86892e4" y2="93.62" x2="174.38" y1="97.69" x1="174.38" id="3cf0dc81-152c-42bb-a70a-deb58a552f90"/>
        </defs>
        <g>
            <path d="M47 101.82c-.38 9.83-3.36 18.85-6.75 21.2-4 2.81-19.49 3.33-25.81-.22-2.15-1.58-4-5.42-5.33-10.3a55.15 55.15 0 0 1-1.25-21.11L46.11 91h.15a48.33 48.33 0 0 1 .74 10.82z" fill="url(#127c9986-4c06-4a77-8ac7-1f16b15558fa)"/>
            <path d="m34.43 91.74-23.71.36c-1.49 11.92.38 19 3.81 29.56h3.59c-3.2-10.86-4.36-18-2.28-28.83z" style="mix-blend-mode:soft-light" opacity=".68" fill="#ffffff"/>
            <path d="M44.21 92.77c1.65 10.87.29 18-3.31 28.89l-2.15-.24c2-10.61 1.18-18.31-.6-27.93z" style="mix-blend-mode:multiply" fill="#80008a" opacity=".11"/>
            <path d="M47 101.82C32.26 116.56 9.09 112.5 9.09 112.5a55.15 55.15 0 0 1-1.23-21.11L46.11 91h.15a48.33 48.33 0 0 1 .74 10.82z" style="mix-blend-mode:color-dodge" opacity=".25" fill="url(#52870de9-5cb9-492f-b2e3-c1dae8bd9299)"/>
            <path fill="#8dd0ce" d="M46.34 91.14c0 1.149-8.614 2.08-19.24 2.08-10.626 0-19.24-.931-19.24-2.08s8.614-2.08 19.24-2.08c10.626 0 19.24.931 19.24 2.08z"/>
            <path fill="url(#5fe4a24c-3e1d-41ac-aacf-0a95a4ce2e81)" d="M42.29 91.14c0 .762-6.8 1.38-15.19 1.38s-15.19-.618-15.19-1.38c0-.762 6.8-1.38 15.19-1.38s15.19.618 15.19 1.38z"/>
            <path fill="url(#d5a25928-e4df-409f-a349-6f5df86892e4)" d="M25.61 92.43 14.92 53.62l-.53.1 10.59 38.71h.63z"/>
            <path fill="url(#74dac144-cb44-456f-98a7-4a4de5da2883)" d="m29.74 91.5 12.42-66.99-.97-2.33L28.72 91.5h1.02z"/>
            <path fill="url(#64bbe517-804d-4510-9d97-3147ef1fdf2c)" d="m26.68 91.5-.14-82.51-1.62-.52.88 83.03h.88z"/>
            <path fill="url(#069927c6-4226-4026-88f4-74f532523bfb)" d="m15.36 31.97 3.62 3.74-3.85-1.72 4.72 3.52-4.95-1.5 1.14 9.85L22 49.51l-6.1-2.35.37 5.78 9.9 5.47 5.82-4.45.89-8-2.97.77 4.29-4.12.27-2.42-5.79 2.14 4.95-6.09-.59-1.6-4.13 4.23 4.29-6.26-1.78-14.7-2.47 1.52 2.72-3.79-.37-2.94-1.69 1.6 1.31-3.85L25.24 0 18.2 12.68l2.22 3.75-3.08-2.14-1.98 17.68z"/>
            <path fill="url(#acd8b83c-f676-4529-9986-d9380eed5322)" d="M26.17 58.41 25.24 0l.34 58.71.59-.3z"/>
            <path fill="url(#8f3183a9-9885-4ee1-a136-13edf77ccd27)" d="m15.24 38.97 10.26 4.79-10.21-4.43-.05-.36z"/>
            <path fill="url(#12dc6cfa-d510-45ab-8652-a0136f8337a2)" d="m16.04 25.83 9.69 4.93-.31-.55-9.32-4.89-.06.51z"/>
            <path fill="url(#7f6d1c34-ab8f-4831-b20b-f1784074f6e8)" d="m32.16 24.01-6.49 2.9-.27-.55 6.7-2.82.06.47z"/>
            <path style="mix-blend-mode:soft-light" opacity=".31" fill="#ffffff" d="m17.34 14.29 8.02 6.14.22.99-8.52-4.66.28-2.47z"/>
            <path style="mix-blend-mode:soft-light" opacity=".31" fill="#ffffff" d="m32.61 48.4-6.54 3.82.02 1.31 6.32-3.33.2-1.8z"/>
            <path style="mix-blend-mode:soft-light" opacity=".31" fill="#ffffff" d="m29.99 8.73-4.67 5.43.13-.79 3.5-6.56 1.04 1.92z"/>
            <path fill="url(#0dbdfd6b-1355-420a-8a7c-417891ff6ab6)" d="m49.04 42.11-4.3 2.95 4.12-.92-5.33 2.51 5.15-.49-3.06 9.43-6.56 2.4 6.44-1.1-1.51 5.59-10.78 3.41-4.83-5.52.71-8.02 2.75 1.35-3.38-4.89.22-2.43 5.24 3.25-3.65-6.95.91-1.45 3.21 4.96-2.97-6.98 4.65-14.05 2.12 1.97-1.92-4.25.96-2.81 1.32 1.9-.51-4.04 7.63-9.11 4.39 13.82-2.91 3.24 3.44-1.49-1.55 17.72z"/>
            <path fill="url(#9de5b852-e453-42d9-91ed-2aec71348d13)" d="M33.21 65.89 45.67 8.82 33.72 66.3l-.51-.41z"/>
            <path fill="url(#c405aab8-a519-4bd8-87cb-b90c15e06036)" d="m47.76 48.99-11 2.67 10.89-2.32.11-.35z"/>
            <path fill="url(#f685481a-a8a8-4cb9-aa06-a6c3405aee11)" d="m49.58 35.95-10.47 2.92.41-.48 10.1-2.94-.04.5z"/>
            <path fill="url(#d1015c63-8341-4d8c-b0c0-054da06eeb61)" d="m34.14 30.98 5.79 4.13.37-.48-6.01-4.1-.15.45z"/>
            <path style="mix-blend-mode:soft-light" opacity=".31" fill="#ffffff" d="m50.59 24.39-9.08 4.43-.41.93 9.27-2.89.22-2.47z"/>
            <path style="mix-blend-mode:soft-light" opacity=".31" fill="#ffffff" d="m28.87 54.8 5.66 5.04-.28 1.28-5.54-4.52.16-1.8z"/>
            <path style="mix-blend-mode:soft-light" opacity=".31" fill="#ffffff" d="m39.29 16.44 3.5 6.24.03-.8-2.13-7.12-1.4 1.68z"/>
            <path fill="url(#e92099e8-3c36-45d1-9045-3aa77735898a)" d="m3.31 55.13 4.56 2.5-4.19-.51 5.55 1.98-5.17.02 3.99 9.08 6.76 1.74-6.52-.46 2.06 5.42 11.07 2.31 4.25-5.96-1.5-7.91-2.61 1.61 2.88-5.2-.45-2.39-4.9 3.75 2.94-7.28-1.04-1.36-2.71 5.26 2.26-7.24-6.02-13.52-1.91 2.17 1.49-4.42-1.23-2.7-1.13 2.02.11-4.07-8.5-8.31-3 14.19 3.23 2.93L0 37.64l3.31 17.49z"/>
            <path fill="url(#47893fa9-8978-4fb9-87e2-dd4194243a0d)" d="M21.42 77.21 3.35 21.66l17.6 56.01.47-.46z"/>
            <path fill="url(#df43b902-5b0e-441d-866a-ee3677ffbb1d)" d="m5.26 61.84 11.21 1.57L5.4 62.18l-.14-.34z"/>
            <path fill="url(#ded6f600-e666-4c33-8fee-07b680c4847c)" d="m2.16 49.05 10.71 1.86-.47-.43-10.34-1.93.1.5z"/>
            <path fill="url(#3cf0dc81-152c-42bb-a70a-deb58a552f90)" d="m17.02 42.57-5.34 4.69-.43-.45 5.58-4.67.19.43z"/>
            <path style="mix-blend-mode:soft-light" opacity=".31" fill="#ffffff" d="m0 37.64 9.47 3.51.51.88-9.52-1.94L0 37.64z"/>
            <path style="mix-blend-mode:soft-light" opacity=".31" fill="#ffffff" d="m24.63 65.75-5.13 5.57.41 1.25 5.06-5.04-.34-1.78z"/>
            <path style="mix-blend-mode:soft-light" opacity=".31" fill="#ffffff" d="M10.46 28.61 7.6 35.17l-.11-.8 1.41-7.29 1.56 1.53z"/>
        </g>
    </g>
</svg>
