<?xml version="1.0" encoding="UTF-8"?>
<svg data-bbox="0 12.492 1311 1349.038" viewBox="0 0 1311 1361.53" xmlns="http://www.w3.org/2000/svg" data-type="ugc">
    <g>
        <defs>
            <linearGradient gradientUnits="userSpaceOnUse" y2="439.53" x2="652.12" y1="1002.53" x1="652.12" id="8862e29d-b21b-4317-88af-e71ac822d807">
                <stop stop-color="#f5821f" offset=".2"/>
                <stop stop-opacity=".74" stop-color="#7f6362" offset=".39"/>
                <stop stop-opacity=".5" stop-color="#17479d" offset=".57"/>
            </linearGradient>
        </defs>
        <g>
            <g>
                <path opacity=".38" fill="url(#8862e29d-b21b-4317-88af-e71ac822d807)" d="M656.73 440.43v-.9l-4.6.45-4.61-.45v.9L1.63 503.62l321.41 498.91h658.17l321.42-498.91-645.9-63.19z"/>
                <path d="m232.35 920.66-2.71-6.23c-2.62-6-6.88-9.47-9.5-7.69L33.9 1033c-2.62 1.78-2.62 8.11 0 14.14l2.71 6.22c2.63 6 6.88 9.47 9.5 7.7l186.25-126.27c2.64-1.79 2.64-8.1-.01-14.13Z" stroke-miterlimit="10" stroke="#1c1c1c" stroke-width="26" fill="none"/>
                <path d="m232.35 920.66-2.71-6.23c-2.62-6-6.88-9.47-9.5-7.69L33.9 1033c-2.62 1.78-2.62 8.11 0 14.14l2.71 6.22c2.63 6 6.88 9.47 9.5 7.7l186.25-126.27c2.64-1.79 2.64-8.1-.01-14.13Z" fill="#efb57b"/>
                <path d="m1083.9 920.66 2.71-6.23c2.63-6 6.88-9.47 9.5-7.69L1282.36 1033c2.62 1.78 2.62 8.11 0 14.14l-2.71 6.22c-2.62 6-6.88 9.47-9.5 7.7L1083.9 934.79c-2.62-1.79-2.62-8.1 0-14.13Z" stroke-miterlimit="10" stroke="#1c1c1c" stroke-width="26" fill="none"/>
                <path d="m1083.9 920.66 2.71-6.23c2.63-6 6.88-9.47 9.5-7.69L1282.36 1033c2.62 1.78 2.62 8.11 0 14.14l-2.71 6.22c-2.62 6-6.88 9.47-9.5 7.7L1083.9 934.79c-2.62-1.79-2.62-8.1 0-14.13Z" fill="#efb57b"/>
                <path fill="#1c1c1c" d="M1160.2 1284.03c0 42.802-227 77.5-507.02 77.5s-507.02-34.698-507.02-77.5 227-77.5 507.02-77.5 507.02 34.698 507.02 77.5z" opacity=".25"/>
                <path fill="#efb57b" d="M1093.25 900.41v404.42H217.38V900.41h875.87z"/>
                <path d="M1091.11 1124.55v180.28H215.25v-182.35c33.2 86.67 122.32 144.3 438.33 144.3 313.48 0 403.69-56.72 437.53-142.23Z" fill="#1c1c1c" opacity=".25"/>
                <path fill="#ffffff" d="M215.25 900.41v16.48h853.02v387.94h22.84V900.41H215.25z" opacity=".6"/>
                <path d="M1091.12 1311.41H215.24c-4.89 0-8.86-2.94-8.86-6.57V900.42c0-3.63 4-6.58 8.86-6.58h875.88c4.89 0 8.86 2.95 8.86 6.58v404.42c.02 3.63-3.98 6.57-8.86 6.57Zm-867-13.15h858.16V907H224.1Z" fill="#1c1c1c"/>
                <path d="M516.32 749.78a1.5 1.5 0 0 1-.64-.24c.9.16 1.16.27.64.24Z" fill="#ef5050"/>
                <path d="m1028.89 723.7-.21.31a2.09 2.09 0 0 0 .17-.28s.04-.01.04-.03Z" fill="#1c1c1c" opacity=".25"/>
                <path fill="#1c1c1c" d="M824.44 1101.93v-.01c0 24.814-20.116 44.93-44.93 44.93H531.1c-24.814 0-44.93-20.116-44.93-44.93v.01c0-24.814 20.116-44.93 44.93-44.93h248.41c24.814 0 44.93 20.116 44.93 44.93z"/>
                <path d="M824.46 1121c0 12.4-6.06 23.63-15.82 31.77s-23.25 13.15-38.18 13.15h-230.3c-29.82 0-54-20.1-54-44.92a37.21 37.21 0 0 1 1.23-9.52c5.25 20.23 26.89 35.41 52.77 35.41h230.3c14.93 0 28.42-5 38.18-13.17a43.37 43.37 0 0 0 14.59-22.24 37.21 37.21 0 0 1 1.23 9.52Z" fill="#ffffff" opacity=".6"/>
                <path fill="#ffffff" d="M1298.75 120.29v466.98c0 35.628-28.882 64.51-64.51 64.51H76.76c-35.628 0-64.51-28.882-64.51-64.51V120.29c0-35.628 28.882-64.51 64.51-64.51h1157.48c35.628 0 64.51 28.882 64.51 64.51z"/>
                <path d="M1297 74.13c-5.42-7.14-10.86-14.26-16.6-21.14a5.69 5.69 0 0 0-4.38-2H45.87a5.71 5.71 0 0 0-4.09 1.72C31.83 62.9 22 73.3 10.78 82.15a5.65 5.65 0 0 0-2.15 4.44v238.88a5.71 5.71 0 0 0 5.7 5.71H622a5.71 5.71 0 0 0 5.71-5.71V204.1a5.71 5.71 0 0 1 5.71-5.71h663.68a5.71 5.71 0 0 0 5.71-5.71V85.21a5.64 5.64 0 0 0-1-3.26 61.52 61.52 0 0 1-4.31-7 5.51 5.51 0 0 0-.5-.82Z" fill="#1b489a"/>
                <path d="M627.67 198.39h225.05v132.79H627.67Zm225.05 0h225v132.79h-225Zm225 0h225v132.79h-225Z" fill="#5681c2"/>
                <path stroke="#ffffff" stroke-width="6.1" stroke-miterlimit="10" fill="none" d="M852.72 198.39h225.05"/>
                <path stroke="#ffffff" stroke-width="6.1" stroke-miterlimit="10" fill="none" d="M385.78 198.39V50.95"/>
                <path stroke="#ffffff" stroke-width="6.1" stroke-miterlimit="10" fill="none" d="M627.67 195.2V50.95"/>
                <path stroke="#ffffff" stroke-width="6.1" stroke-miterlimit="10" fill="none" d="M385.78 331.18V198.39"/>
                <path stroke="#ffffff" stroke-width="6.1" stroke-miterlimit="10" fill="none" d="M624.75 198.39h227.97"/>
                <path stroke="#ffffff" stroke-width="6.1" stroke-miterlimit="10" fill="none" d="M627.67 331.18V201.57"/>
                <path stroke="#ffffff" stroke-width="6.1" stroke-miterlimit="10" fill="none" d="M852.72 331.18V201.57"/>
                <path stroke="#ffffff" stroke-width="6.1" stroke-miterlimit="10" fill="none" d="M1077.77 198.39h225.04"/>
                <path stroke="#ffffff" stroke-width="6.1" stroke-miterlimit="10" fill="none" d="M1077.77 331.18V201.57"/>
                <text transform="matrix(.99 0 0 1 90.62 287.04)" font-family="Quicksand-Bold,Quicksand" font-weight="700" font-size="66.42" fill="#ffffff">PLANS</text>
                <text transform="matrix(.92 0 0 1 417.44 160.65)" font-size="31.84" font-family="Quicksand-Bold,Quicksand" font-weight="700" fill="#ffffff">INSU</text>
                <text transform="matrix(.92 0 0 1 491.42 160.65)" font-size="31.84" font-family="Quicksand-Bold,Quicksand" font-weight="700" fill="#ffffff">RANCE </text>
                <text transform="matrix(.92 0 0 1 423.26 198.86)" letter-spacing="-.02em" font-size="31.84" font-family="Quicksand-Bold,Quicksand" font-weight="700" fill="#ffffff">CO</text>
                <text transform="matrix(.92 0 0 1 468.87 198.86)" letter-spacing="-.03em" font-size="31.84" font-family="Quicksand-Bold,Quicksand" font-weight="700" fill="#ffffff">VE</text>
                <text transform="matrix(.92 0 0 1 507.8 198.86)" font-size="31.84" font-family="Quicksand-Bold,Quicksand" font-weight="700" fill="#ffffff">RA</text>
                <text transform="matrix(.92 0 0 1 544 198.86)" font-size="31.84" font-family="Quicksand-Bold,Quicksand" font-weight="700" fill="#ffffff">GE</text>
                <text transform="matrix(.95 0 0 1 807.04 127.29)" font-size="33.85" font-family="Quicksand-Bold,Quicksand" font-weight="700" fill="#ffffff">PET C</text>
                <text transform="matrix(.95 0 0 1 899.34 127.29)" font-size="33.85" font-family="Quicksand-Bold,Quicksand" font-weight="700" fill="#ffffff">ARE </text>
                <text transform="matrix(.95 0 0 1 968.73 127.29)" letter-spacing="-.07em" font-size="33.85" font-family="Quicksand-Bold,Quicksand" font-weight="700" fill="#ffffff">PA</text>
                <text transform="matrix(.95 0 0 1 1004.59 127.29)" font-size="33.85" font-family="Quicksand-Bold,Quicksand" font-weight="700" fill="#ffffff">CKA</text>
                <text transform="matrix(.95 0 0 1 1071.9 127.29)" font-size="33.85" font-family="Quicksand-Bold,Quicksand" font-weight="700" fill="#ffffff">GE</text>
                <text transform="matrix(.92 0 0 1 882.17 283.31)" font-size="31.84" font-family="Quicksand-Bold,Quicksand" font-weight="700" fill="#ffffff">D</text>
                <text transform="matrix(.92 0 0 1 903.17 283.31)" letter-spacing="-.03em" font-size="31.84" font-family="Quicksand-Bold,Quicksand" font-weight="700" fill="#ffffff">ewo</text>
                <text transform="matrix(.92 0 0 1 962.33 283.31)" font-size="31.84" font-family="Quicksand-Bold,Quicksand" font-weight="700" fill="#ffffff">rming</text>
                <text transform="matrix(.92 0 0 1 1126.95 283.31)" letter-spacing="-.02em" font-size="31.84" font-family="Quicksand-Bold,Quicksand" font-weight="700" fill="#ffffff">Vi</text>
                <text transform="matrix(.92 0 0 1 1156.49 283.31)" font-size="31.84" font-family="Quicksand-Bold,Quicksand" font-weight="700" fill="#ffffff">t</text>
                <text transform="matrix(.92 0 0 1 1167.28 283.31)" font-size="31.84" font-family="Quicksand-Bold,Quicksand" font-weight="700" fill="#ffffff">amins</text>
                <path d="M1244.53 43.28H66.47A66.47 66.47 0 0 0 0 109.75v488.06a66.47 66.47 0 0 0 66.47 66.47h1178.06a66.47 66.47 0 0 0 66.47-66.47V109.75a66.47 66.47 0 0 0-66.47-66.47Zm54.22 544a64.51 64.51 0 0 1-64.51 64.51H76.76a64.51 64.51 0 0 1-64.51-64.51v-467a64.51 64.51 0 0 1 64.51-64.5h1157.48a64.51 64.51 0 0 1 64.51 64.5Z" fill="#1c1c1c"/>
                <path d="M474.21 799.18a4.67 4.67 0 0 1-5.17-2.54q-1.62-3-3.28-6a5.84 5.84 0 0 1 1.54-7.49 4.56 4.56 0 0 1 6.68 1.73c1.14 2.06 2.27 4.13 3.39 6.23a5.82 5.82 0 0 1-1.68 7.45 4.41 4.41 0 0 1-1.48.62Zm-16.48-27.63a4.59 4.59 0 0 1-4.88-2A235.65 235.65 0 0 0 438.23 750a5.91 5.91 0 0 1 .22-7.68 4.49 4.49 0 0 1 6.85.25A245.15 245.15 0 0 1 460.58 763a5.88 5.88 0 0 1-.94 7.61 4.59 4.59 0 0 1-1.91.94Zm-31.87-37.83a4.47 4.47 0 0 1-4.1-1.13 159.17 159.17 0 0 0-18.33-14.69 5.81 5.81 0 0 1-1.61-7.47 4.55 4.55 0 0 1 6.66-1.8 168.65 168.65 0 0 1 19.46 15.59 5.91 5.91 0 0 1 .65 7.65 4.78 4.78 0 0 1-2.73 1.85Zm-39.6-27a4.31 4.31 0 0 1-2.87-.31 140 140 0 0 0-21.39-7.94 5.51 5.51 0 0 1-3.52-6.59c.66-2.91 3.29-4.68 5.89-4a149.08 149.08 0 0 1 22.73 8.47 5.68 5.68 0 0 1 2.6 7.11 5 5 0 0 1-3.44 3.27Z" fill="#ffffff"/>
                <path d="M952.1 703.54a5.14 5.14 0 0 1-3-3.11 5.69 5.69 0 0 1 2.67-7.08c3.47-1.58 7-3 10.44-4.17a4.78 4.78 0 0 1 6 3.61 5.56 5.56 0 0 1-3.22 6.78c-3.17 1.09-6.41 2.39-9.62 3.85a4.35 4.35 0 0 1-3.27.12Z" fill="#ffffff"/>
                <path d="M879.53 772.32a4.68 4.68 0 0 1-1.11-.61 5.85 5.85 0 0 1-1.4-7.52 197.59 197.59 0 0 1 15-22.09 4.49 4.49 0 0 1 6.84-.49 5.9 5.9 0 0 1 .43 7.67 185.24 185.24 0 0 0-14.17 20.87 4.59 4.59 0 0 1-5.59 2.17Zm31.73-40.45a4.78 4.78 0 0 1-2.13-1.62 5.9 5.9 0 0 1 .53-7.66 168.46 168.46 0 0 1 20-16.47 4.54 4.54 0 0 1 6.67 1.74 5.82 5.82 0 0 1-1.54 7.48A160.66 160.66 0 0 0 916 730.85a4.45 4.45 0 0 1-4.74 1.02Z" fill="#ffffff"/>
                <path d="m863.61 806.94-.22-.09a5.67 5.67 0 0 1-2.75-7c1.32-3.8 2.77-7.61 4.31-11.31a4.62 4.62 0 0 1 6.44-2.63 5.74 5.74 0 0 1 2.35 7.22 187.54 187.54 0 0 0-4.07 10.67 4.73 4.73 0 0 1-6.06 3.14Z" fill="#ffffff"/>
                <path d="M333.45 876.36a4.47 4.47 0 0 1-4.18-1.21c-5.46-5.3-11-10.24-16.33-14.68a5.86 5.86 0 0 1-1-7.59 4.51 4.51 0 0 1 6.78-1.15c5.57 4.6 11.27 9.72 16.92 15.21a5.89 5.89 0 0 1 .5 7.66 4.78 4.78 0 0 1-2.69 1.76Zm-34.36-28.21a4.41 4.41 0 0 1-3.49-.65 177.09 177.09 0 0 0-18.37-10.82 5.7 5.7 0 0 1-2.42-7.18 4.65 4.65 0 0 1 6.41-2.72 187.85 187.85 0 0 1 19.36 11.39 5.83 5.83 0 0 1 1.67 7.45 4.88 4.88 0 0 1-3.16 2.53Zm-38.79-19.53a4.32 4.32 0 0 1-2.41-.12 136.63 136.63 0 0 0-20.11-5.2 5.4 5.4 0 0 1-4-6.23c.42-3 2.9-5 5.55-4.5a146.29 146.29 0 0 1 21.4 5.53 5.57 5.57 0 0 1 3.22 6.78 5.1 5.1 0 0 1-3.65 3.74Zm-42-7.53a4.58 4.58 0 0 1-1.12.11 150.93 150.93 0 0 0-20.69.9c-2.66.3-5-1.88-5.3-4.87s1.69-5.65 4.34-5.94a160.34 160.34 0 0 1 21.88-.95c2.68.07 4.79 2.56 4.73 5.56a5.32 5.32 0 0 1-3.8 5.19Zm-42.3 4.59-.53.12c-2.62.63-5.19-1.25-5.75-4.18a5.48 5.48 0 0 1 3.74-6.45l.52-.12c2.62-.62 5.19 1.25 5.75 4.19a5.46 5.46 0 0 1-3.73 6.44Z" fill="#ffffff"/>
                <path d="M987.42 868.72a5 5 0 0 1-2.68-2.5 5.78 5.78 0 0 1 1.86-7.39c6.52-4.1 13-7.83 19.31-11.09a4.64 4.64 0 0 1 6.43 2.66 5.73 5.73 0 0 1-2.37 7.21c-6.06 3.14-12.33 6.73-18.64 10.7a4.37 4.37 0 0 1-3.91.41Zm38.72-19.89a5.18 5.18 0 0 1-3-3.36 5.62 5.62 0 0 1 3-6.92 176 176 0 0 1 21-6.79c2.61-.66 5.2 1.17 5.79 4.1a5.48 5.48 0 0 1-3.66 6.5 164.18 164.18 0 0 0-19.94 6.45 4.36 4.36 0 0 1-3.19.02Zm41.51-10.38a5.59 5.59 0 0 1 1.09-10.57 143.83 143.83 0 0 1 22-.59 5.22 5.22 0 0 1 4.63 5.66 5.11 5.11 0 0 1-5.06 5.19 135.56 135.56 0 0 0-20.63.56 4.26 4.26 0 0 1-2.03-.25Zm42.45 2.08a5.51 5.51 0 0 1-3.22-6.11c.47-3 3-4.92 5.63-4.39a163.21 163.21 0 0 1 21.26 5.87c2.51.84 4 3.94 3.19 6.81a4.78 4.78 0 0 1-6.07 3.57 152.62 152.62 0 0 0-20.1-5.55 5 5 0 0 1-.69-.2Zm41.14 14.29a3.68 3.68 0 0 1-.35-.15l-.53-.26a5.69 5.69 0 0 1-2.5-7.15 4.68 4.68 0 0 1 6.38-2.8l.43.2a5.71 5.71 0 0 1 2.57 7.13 4.69 4.69 0 0 1-6 3.03Z" fill="#ffffff"/>
                <path d="M1046.81 763.77c-.49 1.65-4.08 1.89-8.87.84a3.23 3.23 0 0 0-3.61 2c-2.13 4.9-4.45 8-5.93 7.41s-1.69-4.57-.76-9.93a3.83 3.83 0 0 0-1.79-4c-4.37-2.4-7.1-5-6.6-6.68s4.08-1.89 8.85-.85a3.22 3.22 0 0 0 3.61-2c2.14-4.9 4.47-7.95 6-7.4s1.68 4.57.74 9.92a3.85 3.85 0 0 0 1.8 4.05c4.33 2.36 7.06 4.98 6.56 6.64Z" fill="#ffffff"/>
                <path d="M406.53 786.59c-.85 1.47-4.38.7-8.78-1.66a3.06 3.06 0 0 0-3.94.94c-3.16 4.14-6.09 6.46-7.4 5.51s-.62-4.9 1.48-9.83a4 4 0 0 0-.84-4.42c-3.7-3.54-5.75-6.84-4.9-8.3s4.37-.7 8.76 1.65a3.06 3.06 0 0 0 3.94-.94c3.16-4.14 6.1-6.45 7.41-5.5s.61 4.89-1.49 9.81a4 4 0 0 0 .84 4.42c3.71 3.56 5.76 6.86 4.92 8.32Z" fill="#ffffff"/>
                <path d="M664.18 738.6c.23 1.17-1.83 2.73-5 4a2.59 2.59 0 0 0-1.52 2.62c.27 3.75-.16 6.48-1.21 6.73s-2.43-2-3.55-5.6a2.3 2.3 0 0 0-2.33-1.7c-3.35.29-5.79-.19-6-1.37s1.83-2.73 5-4a2.59 2.59 0 0 0 1.51-2.61c-.26-3.76.17-6.49 1.22-6.74s2.43 2.05 3.54 5.6a2.3 2.3 0 0 0 2.33 1.7c3.35-.3 5.83.19 6.01 1.37Z" fill="#ffffff"/>
                <path d="M954.33 808.25c-.37 1.23-3 1.41-6.58.63a2.39 2.39 0 0 0-2.68 1.49c-1.59 3.64-3.31 5.91-4.4 5.5s-1.26-3.39-.57-7.37a2.85 2.85 0 0 0-1.33-3c-3.24-1.78-5.26-3.72-4.9-5s3-1.41 6.58-.63a2.38 2.38 0 0 0 2.67-1.49c1.59-3.64 3.32-5.91 4.42-5.5s1.24 3.39.55 7.36a2.87 2.87 0 0 0 1.33 3c3.26 1.84 5.28 3.76 4.91 5.01Z" fill="#ffffff"/>
                <path fill="#ffffff" d="M293.02 756.3c0 7.373-5.332 13.35-11.91 13.35s-11.91-5.977-11.91-13.35c0-7.373 5.332-13.35 11.91-13.35s11.91 5.977 11.91 13.35z"/>
                <path d="M565.8 848.82c0 1.93-3.68 3.6-9 4.39a3.88 3.88 0 0 0-3.15 3.53c-.7 6-2.17 10.11-3.9 10.11s-3.21-4.12-3.91-10.11a3.91 3.91 0 0 0-3.15-3.53c-5.34-.79-9-2.46-9-4.39s3.68-3.6 9-4.39a3.92 3.92 0 0 0 3.15-3.54c.7-6 2.19-10.11 3.91-10.11s3.2 4.13 3.9 10.11a3.9 3.9 0 0 0 3.15 3.54c5.32.79 9 2.45 9 4.39Z" fill="#ffffff"/>
                <path fill="#ffffff" d="M777.08 853.48c0 6.937-5.014 12.56-11.2 12.56-6.186 0-11.2-5.623-11.2-12.56s5.014-12.56 11.2-12.56c6.186 0 11.2 5.623 11.2 12.56z"/>
                <path fill="#ffffff" d="M823.79 747.31c0 10.996-7.951 19.91-17.76 19.91-9.809 0-17.76-8.914-17.76-19.91s7.951-19.91 17.76-19.91c9.809 0 17.76 8.914 17.76 19.91z"/>
                <path d="M195.54 199.48s2.75 0 14.11-6.78l8.61-5.5 8.73-6.31 5-4.09 5.5-4.79 4.79-4.68 6.1-6.54 4.06-4.79 3.71-4.91 3-4.68 2.51-4.67 1.79-3.74 1.32-3.39 1.07-2.92 1.2-4.1 1.08-3.85.59-3.16.48-3.86.48-4.09.12-3.74V104l.12-14.49-.11-20.71.12-23-.12-10.29s-.24-6.08-4.66-9-6.94-2.57-8.61-2a54.15 54.15 0 0 0-5.74 2.92L247.44 29l-3.11 1-2.27.58-3.59.59-4.19.23h-3.34l-4.19-.23-3.47-.59-3.94-1.28-4.34-1.76-4-2.54-2.87-2.22-1.95-1.78-2.63-2.57-2.15-1.76-2.15-1.16-1.68-.59-1.67-.23h-.84l-2.39.58-1.91.94-1.92 1.28-1.67 1.64-1.8 1.75-2.75 2.46-2.63 2-2 1.17-3.59 1.87-3.11 1.17-4.54 1.29-3.35.46-4 .12-6.33-.12-5.5-1.05-3.23-1.17-2.63-1-1.8-.93-2.39-1.41s-3-1.75-5.26-1.51a12.4 12.4 0 0 0-6.7 3 10.74 10.74 0 0 0-3.35 4.8c-.71 1.75-.71 5.37-.83 7.94s0 11.34 0 11.34v55.4l.83 11.22 1.56 8.3s3.94 14.14 9 21 4.54 7.48 12.43 16 12 11.57 12 11.57l7.06 6 5.86 4.2 4.06 2.92 5.74 3.63 5 2.92 4.06 2.22 3.71 1.87 1.67.7a5.44 5.44 0 0 0 1 .24Z" stroke="#231f20" stroke-width="25" fill="none"/>
                <path d="M195.54 199.48s2.75 0 14.11-6.78l8.61-5.5 8.73-6.31 5-4.09 5.5-4.79 4.79-4.68 6.1-6.54 4.06-4.79 3.71-4.91 3-4.68 2.51-4.67 1.79-3.74 1.32-3.39 1.07-2.92 1.2-4.1 1.08-3.85.59-3.16.48-3.86.48-4.09.12-3.74V104l.12-14.49-.11-20.71.12-23-.12-10.29s-.24-6.08-4.66-9-6.94-2.57-8.61-2a54.15 54.15 0 0 0-5.74 2.92L247.44 29l-3.11 1-2.27.58-3.59.59-4.19.23h-3.34l-4.19-.23-3.47-.59-3.94-1.28-4.34-1.76-4-2.54-2.87-2.22-1.95-1.78-2.63-2.57-2.15-1.76-2.15-1.16-1.68-.59-1.67-.23h-.84l-2.39.58-1.91.94-1.92 1.28-1.67 1.64-1.8 1.75-2.75 2.46-2.63 2-2 1.17-3.59 1.87-3.11 1.17-4.54 1.29-3.35.46-4 .12-6.33-.12-5.5-1.05-3.23-1.17-2.63-1-1.8-.93-2.39-1.41s-3-1.75-5.26-1.51a12.4 12.4 0 0 0-6.7 3 10.74 10.74 0 0 0-3.35 4.8c-.71 1.75-.71 5.37-.83 7.94s0 11.34 0 11.34v55.4l.83 11.22 1.56 8.3s3.94 14.14 9 21 4.54 7.48 12.43 16 12 11.57 12 11.57l7.06 6 5.86 4.2 4.06 2.92 5.74 3.63 5 2.92 4.06 2.22 3.71 1.87 1.67.7a5.44 5.44 0 0 0 1 .24Z" stroke="#231f20" stroke-width="25" fill="none"/>
                <path d="M196.48 173s2 0 10.15-4.86l6.15-3.91.09-.06 6.2-4.47.08-.06 3.58-2.9 3.91-3.4.08-.08 3.41-3.31 4.38-4.7 2.9-3.39.06-.08 2.59-3.42.09-.12 2.07-3.23.07-.13 1.78-3.29 1.26-2.61a.78.78 0 0 0 0-.14l.92-2.36.76-2a.56.56 0 0 1 0-.12l.84-2.87.75-2.69a.75.75 0 0 0 0-.16l.4-2.12a.5.5 0 0 0 0-.12l.34-2.71.33-2.85a.86.86 0 0 0 0-.16l.09-2.6v-3.52l.08-10.4-.08-14.83.24-16.59-.08-7.37s-.17-4.36-3.36-6.46-5-1.84-6.19-1.42a37.65 37.65 0 0 0-4.06 2l-.15.08-2.25 1-.17.07-2.08.71h-.14l-1.48.38h-.17l-2.4.39h-.2l-2.86.16h-2.51l-2.9-.01h-.2l-2.26-.38-.27-.07-2.6-.82-.13-.05-2.88-1.17a2.1 2.1 0 0 1-.3-.15l-2.7-1.71-.15-.1-1.93-1.49-.12-.1-1.32-1.23-1.83-1.78-.13-.11-1.35-1.11a1.81 1.81 0 0 0-.29-.19l-1.26-.68L199 41l-.88-.3a2.37 2.37 0 0 0-.36-.09l-.89-.12a1.18 1.18 0 0 0-.26 0h-.25a2.3 2.3 0 0 0-.45 0l-1.3.32a1.74 1.74 0 0 0-.38.14l-1.08.52-.22.13-1.13.75a2.75 2.75 0 0 0-.26.22l-1.08 1.05-1.3 1.26-1.92 1.71-.12.1-1.73 1.31-.2.13-1.36.78-2.48 1.29a1 1 0 0 1-.21.09l-2.06.77h-.15l-3.07.87-.25.05-2.18.31h-.2l-2.74.08-4.4-.08a1.73 1.73 0 0 1-.32 0l-3.65-.7a1.38 1.38 0 0 1-.29-.08l-2.18-.78-1.81-.73-.17-.08-1.21-.63-1.72-1a7.82 7.82 0 0 0-3.74-1.05 8.85 8.85 0 0 0-4.82 2.18 7.53 7.53 0 0 0-2.41 3.43c-.52 1.26-.52 3.86-.6 5.7s0 8.13 0 8.13v39.81l.59 7.87a1.52 1.52 0 0 0 0 .21l1.08 5.76v.17c.28 1 3 10.32 6.43 15 3.62 4.95 3.27 5.37 8.95 11.49a77.67 77.67 0 0 0 8.57 8.27l.07.05 5 4.2.11.09 4.16 3 2.88 2.06.09.06 4.09 2.57 3.61 2.1 2.93 1.59 2.6 1.31.13.06 1.06.44.17.06a3 3 0 0 0 .6.14Z" stroke="#231f20" stroke-width="25" fill="none"/>
                <path d="M196.48 173s2 0 10.15-4.86l6.15-3.91.09-.06 6.2-4.47.08-.06 3.58-2.9 3.91-3.4.08-.08 3.41-3.31 4.38-4.7 2.9-3.39.06-.08 2.59-3.42.09-.12 2.07-3.23.07-.13 1.78-3.29 1.26-2.61a.78.78 0 0 0 0-.14l.92-2.36.76-2a.56.56 0 0 1 0-.12l.84-2.87.75-2.69a.75.75 0 0 0 0-.16l.4-2.12a.5.5 0 0 0 0-.12l.34-2.71.33-2.85a.86.86 0 0 0 0-.16l.09-2.6v-3.52l.08-10.4-.08-14.83.24-16.59-.08-7.37s-.17-4.36-3.36-6.46-5-1.84-6.19-1.42a37.65 37.65 0 0 0-4.06 2l-.15.08-2.25 1-.17.07-2.08.71h-.14l-1.48.38h-.17l-2.4.39h-.2l-2.86.16h-2.51l-2.9-.01h-.2l-2.26-.38-.27-.07-2.6-.82-.13-.05-2.88-1.17a2.1 2.1 0 0 1-.3-.15l-2.7-1.71-.15-.1-1.93-1.49-.12-.1-1.32-1.23-1.83-1.78-.13-.11-1.35-1.11a1.81 1.81 0 0 0-.29-.19l-1.26-.68L199 41l-.88-.3a2.37 2.37 0 0 0-.36-.09l-.89-.12a1.18 1.18 0 0 0-.26 0h-.25a2.3 2.3 0 0 0-.45 0l-1.3.32a1.74 1.74 0 0 0-.38.14l-1.08.52-.22.13-1.13.75a2.75 2.75 0 0 0-.26.22l-1.08 1.05-1.3 1.26-1.92 1.71-.12.1-1.73 1.31-.2.13-1.36.78-2.48 1.29a1 1 0 0 1-.21.09l-2.06.77h-.15l-3.07.87-.25.05-2.18.31h-.2l-2.74.08-4.4-.08a1.73 1.73 0 0 1-.32 0l-3.65-.7a1.38 1.38 0 0 1-.29-.08l-2.18-.78-1.81-.73-.17-.08-1.21-.63-1.72-1a7.82 7.82 0 0 0-3.74-1.05 8.85 8.85 0 0 0-4.82 2.18 7.53 7.53 0 0 0-2.41 3.43c-.52 1.26-.52 3.86-.6 5.7s0 8.13 0 8.13v39.81l.59 7.87a1.52 1.52 0 0 0 0 .21l1.08 5.76v.17c.28 1 3 10.32 6.43 15 3.62 4.95 3.27 5.37 8.95 11.49a77.67 77.67 0 0 0 8.57 8.27l.07.05 5 4.2.11.09 4.16 3 2.88 2.06.09.06 4.09 2.57 3.61 2.1 2.93 1.59 2.6 1.31.13.06 1.06.44.17.06a3 3 0 0 0 .6.14Z" stroke="#231f20" stroke-width="25" fill="none"/>
                <path d="M193.7 201.38a2.17 2.17 0 0 0 2.86.5s62.34-27.5 72.17-81.63l1.12-87.48s-1.12-10.58-8.83-9.83c0 0-36.46 20-58.61-6.35 0 0-4.23-6-8.46-3.48" stroke="#231f20" stroke-width="25" fill="none"/>
                <path d="M193.7 201.38a2.17 2.17 0 0 0 2.86.5s62.34-27.5 72.17-81.63l1.12-87.48s-1.12-10.58-8.83-9.83c0 0-36.46 20-58.61-6.35 0 0-4.23-6-8.46-3.48" stroke="#231f20" stroke-width="25" fill="none"/>
                <path d="M197.31 201.38a2.18 2.18 0 0 1-2.87.5s-62.34-27.5-72.17-81.63l-1.12-87.48s1.12-10.58 8.84-9.83c0 0 36.46 20 58.6-6.35 0 0 4.24-6 8.47-3.48" stroke="#231f20" stroke-width="25" fill="none"/>
                <path d="M197.31 201.38a2.18 2.18 0 0 1-2.87.5s-62.34-27.5-72.17-81.63l-1.12-87.48s1.12-10.58 8.84-9.83c0 0 36.46 20 58.6-6.35 0 0 4.24-6 8.47-3.48" stroke="#231f20" stroke-width="25" fill="none"/>
                <path stroke="#231f20" stroke-width="25" fill="none" d="M198.12 18.74c0 1.684-1.2 3.05-2.68 3.05-1.48 0-2.68-1.366-2.68-3.05 0-1.684 1.2-3.05 2.68-3.05 1.48 0 2.68 1.366 2.68 3.05z"/>
                <path stroke="#231f20" stroke-width="25" fill="none" d="M198.12 18.74c0 1.684-1.2 3.05-2.68 3.05-1.48 0-2.68-1.366-2.68-3.05 0-1.684 1.2-3.05 2.68-3.05 1.48 0 2.68 1.366 2.68 3.05z"/>
                <path d="M143.1 100v4.68c-.11 12 4.59 44.44 53.57 71.57 0 0 46.79-22.46 52.2-59.86V51.82a3 3 0 0 0-.56-1.44 2.1 2.1 0 0 0-1.9-.76c-.79.13-1.76.27-2.88.41a70.54 70.54 0 0 1-11 .8 67.41 67.41 0 0 1-10.6-.9 57.44 57.44 0 0 1-10.71-2.8c-3.94-1.55-7.69-4.3-11.38-7.07-.6-.45-1.2-.92-1.79-1.4a5.34 5.34 0 0 0-.81-.63 1.89 1.89 0 0 0-.31-.13 3 3 0 0 0-1.81.78c-.61.45-1.39 1-2.32 1.64a66.44 66.44 0 0 1-12.47 7.14 57.52 57.52 0 0 1-9.81 3.15 45.44 45.44 0 0 1-13 .33 40.46 40.46 0 0 1-9.81-2.22l-1.58-.6a1.7 1.7 0 0 0-1.46.24 1.94 1.94 0 0 0-.56 1.06v21" stroke="#231f20" stroke-width="25" fill="none"/>
                <path d="M143.1 100v4.68c-.11 12 4.59 44.44 53.57 71.57 0 0 46.79-22.46 52.2-59.86V51.82a3 3 0 0 0-.56-1.44 2.1 2.1 0 0 0-1.9-.76c-.79.13-1.76.27-2.88.41a70.54 70.54 0 0 1-11 .8 67.41 67.41 0 0 1-10.6-.9 57.44 57.44 0 0 1-10.71-2.8c-3.94-1.55-7.69-4.3-11.38-7.07-.6-.45-1.2-.92-1.79-1.4a5.34 5.34 0 0 0-.81-.63 1.89 1.89 0 0 0-.31-.13 3 3 0 0 0-1.81.78c-.61.45-1.39 1-2.32 1.64a66.44 66.44 0 0 1-12.47 7.14 57.52 57.52 0 0 1-9.81 3.15 45.44 45.44 0 0 1-13 .33 40.46 40.46 0 0 1-9.81-2.22l-1.58-.6a1.7 1.7 0 0 0-1.46.24 1.94 1.94 0 0 0-.56 1.06v21" stroke="#231f20" stroke-width="25" fill="none"/>
                <path stroke="#231f20" stroke-width="25" fill="none" d="M147.44 85.36a3.375 3.375 0 0 1-3.38 3.37 3.375 3.375 0 0 1-3.38-3.37 3.375 3.375 0 0 1 3.38-3.37 3.375 3.375 0 0 1 3.38 3.37z"/>
                <path stroke="#231f20" stroke-width="25" fill="none" d="M147.44 85.36a3.375 3.375 0 0 1-3.38 3.37 3.375 3.375 0 0 1-3.38-3.37 3.375 3.375 0 0 1 3.38-3.37 3.375 3.375 0 0 1 3.38 3.37z"/>
                <path stroke="#231f20" stroke-width="25" fill="none" d="M147.22 70.65c0 1.861-1.388 3.37-3.1 3.37-1.712 0-3.1-1.509-3.1-3.37 0-1.861 1.388-3.37 3.1-3.37 1.712 0 3.1 1.509 3.1 3.37z"/>
                <path stroke="#231f20" stroke-width="25" fill="none" d="M147.22 70.65c0 1.861-1.388 3.37-3.1 3.37-1.712 0-3.1-1.509-3.1-3.37 0-1.861 1.388-3.37 3.1-3.37 1.712 0 3.1 1.509 3.1 3.37z"/>
                <path stroke="#231f20" stroke-width="25" fill="none" d="M146.32 99.62c0 1.861-1.415 3.37-3.16 3.37s-3.16-1.509-3.16-3.37c0-1.861 1.415-3.37 3.16-3.37s3.16 1.509 3.16 3.37z"/>
                <path stroke="#231f20" stroke-width="25" fill="none" d="M146.32 99.62c0 1.861-1.415 3.37-3.16 3.37s-3.16-1.509-3.16-3.37c0-1.861 1.415-3.37 3.16-3.37s3.16 1.509 3.16 3.37z"/>
                <path d="M153 67.08h2.15v1.18a3.28 3.28 0 0 1 2.85-1.41c2.06 0 3 1.43 3 3.39v5.5h-2.26v-4.65c0-1.07 0-2.5-1.49-2.49-1.64 0-2 1.79-2 2.9v4.26h-2.26Z" stroke="#231f20" stroke-width="25" fill="none"/>
                <path d="M153 67.08h2.15v1.18a3.28 3.28 0 0 1 2.85-1.41c2.06 0 3 1.43 3 3.39v5.5h-2.26v-4.65c0-1.07 0-2.5-1.49-2.49-1.64 0-2 1.79-2 2.9v4.26h-2.26Z" stroke="#231f20" stroke-width="25" fill="none"/>
                <path d="M169.85 75.66h-2.15V74.5a3.6 3.6 0 0 1-2.85 1.4c-2.06 0-3-1.43-3-3.39v-5.49h2.26v4.65c0 1.06 0 2.5 1.49 2.49 1.64 0 2-1.79 2-2.9V67h2.26Z" stroke="#231f20" stroke-width="25" fill="none"/>
                <path d="M169.85 75.66h-2.15V74.5a3.6 3.6 0 0 1-2.85 1.4c-2.06 0-3-1.43-3-3.39v-5.49h2.26v4.65c0 1.06 0 2.5 1.49 2.49 1.64 0 2-1.79 2-2.9V67h2.26Z" stroke="#231f20" stroke-width="25" fill="none"/>
                <path d="M171.48 68.6h-1.68V67h1.67v-1.79l2.26-.75v2.47h2v1.66h-2v4c0 .75.21 1.44 1.08 1.43a2.06 2.06 0 0 0 1-.24l.08 1.79a5.83 5.83 0 0 1-1.68.21 2.55 2.55 0 0 1-2.77-2.8Z" stroke="#231f20" stroke-width="25" fill="none"/>
                <path d="M171.48 68.6h-1.68V67h1.67v-1.79l2.26-.75v2.47h2v1.66h-2v4c0 .75.21 1.44 1.08 1.43a2.06 2.06 0 0 0 1-.24l.08 1.79a5.83 5.83 0 0 1-1.68.21 2.55 2.55 0 0 1-2.77-2.8Z" stroke="#231f20" stroke-width="25" fill="none"/>
                <path d="M176.5 66.91h2v2a2.67 2.67 0 0 1 2.37-2.2 2.38 2.38 0 0 1 .69.07v2.28a2.33 2.33 0 0 0-1-.18c-1.84 0-1.82 2.31-1.81 3.56v3.2h-2.26Z" stroke="#231f20" stroke-width="25" fill="none"/>
                <path d="M176.5 66.91h2v2a2.67 2.67 0 0 1 2.37-2.2 2.38 2.38 0 0 1 .69.07v2.28a2.33 2.33 0 0 0-1-.18c-1.84 0-1.82 2.31-1.81 3.56v3.2h-2.26Z" stroke="#231f20" stroke-width="25" fill="none"/>
                <path d="M182.12 63.12h2.27v2.16h-2.26Zm0 3.75h2.26l.07 8.7h-2.27Z" stroke="#231f20" stroke-width="25" fill="none"/>
                <path d="M182.12 63.12h2.27v2.16h-2.26Zm0 3.75h2.26l.07 8.7h-2.27Z" stroke="#231f20" stroke-width="25" fill="none"/>
                <path d="m194.94 72.18 1.46 1.24a.38.38 0 0 1 .11.26.35.35 0 0 1-.11.28 5.13 5.13 0 0 1-3.73 1.56 4.56 4.56 0 0 1-3.81-1.64 6.14 6.14 0 0 1 0-6.79 4.54 4.54 0 0 1 3.85-1.63 5.12 5.12 0 0 1 3.26 1.16.37.37 0 0 1 .07.53l-1.2 1.38a.35.35 0 0 1-.24.12.41.41 0 0 1-.26-.07 2.29 2.29 0 0 0-1.35-.43 2.4 2.4 0 0 0-.85.14 1.33 1.33 0 0 0-.56.34 1.58 1.58 0 0 0-.32.54 2.54 2.54 0 0 0-.15.62 4.81 4.81 0 0 0 0 .7 4.75 4.75 0 0 0 0 .69 2.61 2.61 0 0 0 .15.63 1.61 1.61 0 0 0 .31.53 1.31 1.31 0 0 0 .55.35 2.41 2.41 0 0 0 .85.13 2 2 0 0 0 1.48-.62.41.41 0 0 1 .26-.11.35.35 0 0 1 .23.09Z" stroke="#231f20" stroke-width="25" fill="none"/>
                <path d="m194.94 72.18 1.46 1.24a.38.38 0 0 1 .11.26.35.35 0 0 1-.11.28 5.13 5.13 0 0 1-3.73 1.56 4.56 4.56 0 0 1-3.81-1.64 6.14 6.14 0 0 1 0-6.79 4.54 4.54 0 0 1 3.85-1.63 5.12 5.12 0 0 1 3.26 1.16.37.37 0 0 1 .07.53l-1.2 1.38a.35.35 0 0 1-.24.12.41.41 0 0 1-.26-.07 2.29 2.29 0 0 0-1.35-.43 2.4 2.4 0 0 0-.85.14 1.33 1.33 0 0 0-.56.34 1.58 1.58 0 0 0-.32.54 2.54 2.54 0 0 0-.15.62 4.81 4.81 0 0 0 0 .7 4.75 4.75 0 0 0 0 .69 2.61 2.61 0 0 0 .15.63 1.61 1.61 0 0 0 .31.53 1.31 1.31 0 0 0 .55.35 2.41 2.41 0 0 0 .85.13 2 2 0 0 0 1.48-.62.41.41 0 0 1 .26-.11.35.35 0 0 1 .23.09Z" stroke="#231f20" stroke-width="25" fill="none"/>
                <path d="M191.41 75.74a4.54 4.54 0 0 1-2.81-1.65 6.47 6.47 0 0 1 0-7.2 4.87 4.87 0 0 1 4.11-1.76 5.45 5.45 0 0 1 3.46 1.22.69.69 0 0 1 .28.48.66.66 0 0 1-.16.54l-1.2 1.38a.73.73 0 0 1-.46.23.84.84 0 0 1-.48-.12 1.81 1.81 0 0 0-1.16-.37 2 2 0 0 0-.74.11 1.17 1.17 0 0 0-.43.26 1.42 1.42 0 0 0-.25.42 2.55 2.55 0 0 0-.13.55 6.12 6.12 0 0 0 0 .66 6.25 6.25 0 0 0 0 .66 2.34 2.34 0 0 0 .13.54 1.35 1.35 0 0 0 .25.43 1 1 0 0 0 .42.26l.27.07a2.19 2.19 0 0 0 .46 0 1.69 1.69 0 0 0 1.25-.52.71.71 0 0 1 .48-.21.67.67 0 0 1 .49.17l1.45 1.24a.67.67 0 0 1 .21.48.65.65 0 0 1-.21.52 5.44 5.44 0 0 1-4 1.66 6.36 6.36 0 0 1-1.23-.05Zm2.18-9.86a6.68 6.68 0 0 0-.91-.09 4.26 4.26 0 0 0-3.59 1.5 5.12 5.12 0 0 0-.94 3.19 5 5 0 0 0 1 3.2 3.8 3.8 0 0 0 2.41 1.41 5.82 5.82 0 0 0 1.13.09 4.69 4.69 0 0 0 3.49-1.46l-1.45-1.24v-.34.33a2.36 2.36 0 0 1-1.72.72 3.61 3.61 0 0 1-.59 0A2.38 2.38 0 0 1 192 73a1.66 1.66 0 0 1-.68-.43 1.94 1.94 0 0 1-.37-.65 3.14 3.14 0 0 1-.18-.7v-.73a5.31 5.31 0 0 1 0-.74 2.84 2.84 0 0 1 .17-.7A1.69 1.69 0 0 1 192 68a2.82 2.82 0 0 1 1-.15 2.58 2.58 0 0 1 1.55.49l1.22-1.39a4.79 4.79 0 0 0-2.18-1.07Z" stroke="#231f20" stroke-width="25" fill="none"/>
                <path d="M191.41 75.74a4.54 4.54 0 0 1-2.81-1.65 6.47 6.47 0 0 1 0-7.2 4.87 4.87 0 0 1 4.11-1.76 5.45 5.45 0 0 1 3.46 1.22.69.69 0 0 1 .28.48.66.66 0 0 1-.16.54l-1.2 1.38a.73.73 0 0 1-.46.23.84.84 0 0 1-.48-.12 1.81 1.81 0 0 0-1.16-.37 2 2 0 0 0-.74.11 1.17 1.17 0 0 0-.43.26 1.42 1.42 0 0 0-.25.42 2.55 2.55 0 0 0-.13.55 6.12 6.12 0 0 0 0 .66 6.25 6.25 0 0 0 0 .66 2.34 2.34 0 0 0 .13.54 1.35 1.35 0 0 0 .25.43 1 1 0 0 0 .42.26l.27.07a2.19 2.19 0 0 0 .46 0 1.69 1.69 0 0 0 1.25-.52.71.71 0 0 1 .48-.21.67.67 0 0 1 .49.17l1.45 1.24a.67.67 0 0 1 .21.48.65.65 0 0 1-.21.52 5.44 5.44 0 0 1-4 1.66 6.36 6.36 0 0 1-1.23-.05Zm2.18-9.86a6.68 6.68 0 0 0-.91-.09 4.26 4.26 0 0 0-3.59 1.5 5.12 5.12 0 0 0-.94 3.19 5 5 0 0 0 1 3.2 3.8 3.8 0 0 0 2.41 1.41 5.82 5.82 0 0 0 1.13.09 4.69 4.69 0 0 0 3.49-1.46l-1.45-1.24v-.34.33a2.36 2.36 0 0 1-1.72.72 3.61 3.61 0 0 1-.59 0A2.38 2.38 0 0 1 192 73a1.66 1.66 0 0 1-.68-.43 1.94 1.94 0 0 1-.37-.65 3.14 3.14 0 0 1-.18-.7v-.73a5.31 5.31 0 0 1 0-.74 2.84 2.84 0 0 1 .17-.7A1.69 1.69 0 0 1 192 68a2.82 2.82 0 0 1 1-.15 2.58 2.58 0 0 1 1.55.49l1.22-1.39a4.79 4.79 0 0 0-2.18-1.07Z" stroke="#231f20" stroke-width="25" fill="none"/>
                <path d="M199.81 69.45h2.38v-3.4a.36.36 0 0 1 .11-.26.34.34 0 0 1 .25-.11c.77 0 1.54.06 2.32.13.24 0 .37.22.4.62a75.12 75.12 0 0 1 0 8.75h-.08l-.08.06h-.1a.2.2 0 0 1-.11 0c-.78.06-1.55.09-2.32.12a.34.34 0 0 1-.25-.11.36.36 0 0 1-.11-.26c0-1.06 0-2.12.05-3.19h-2.38v3.19a.36.36 0 0 1-.11.26.36.36 0 0 1-.25.11q-1.17 0-2.31-.12a.35.35 0 0 1-.19-.06l-.14-.08h-.06a80 80 0 0 1 0-8.76c0-.4.16-.6.41-.62q1.15-.09 2.31-.12a.36.36 0 0 1 .25.11.35.35 0 0 1 .1.26c-.08 1.22-.08 2.35-.09 3.48Z" stroke="#231f20" stroke-width="25" fill="none"/>
                <path d="M199.81 69.45h2.38v-3.4a.36.36 0 0 1 .11-.26.34.34 0 0 1 .25-.11c.77 0 1.54.06 2.32.13.24 0 .37.22.4.62a75.12 75.12 0 0 1 0 8.75h-.08l-.08.06h-.1a.2.2 0 0 1-.11 0c-.78.06-1.55.09-2.32.12a.34.34 0 0 1-.25-.11.36.36 0 0 1-.11-.26c0-1.06 0-2.12.05-3.19h-2.38v3.19a.36.36 0 0 1-.11.26.36.36 0 0 1-.25.11q-1.17 0-2.31-.12a.35.35 0 0 1-.19-.06l-.14-.08h-.06a80 80 0 0 1 0-8.76c0-.4.16-.6.41-.62q1.15-.09 2.31-.12a.36.36 0 0 1 .25.11.35.35 0 0 1 .1.26c-.08 1.22-.08 2.35-.09 3.48Z" stroke="#231f20" stroke-width="25" fill="none"/>
                <path d="M197.05 75.66a.92.92 0 0 1-.23-.09.74.74 0 0 1-.13-.08.33.33 0 0 1-.24-.3 83.13 83.13 0 0 1 0-8.79c.06-.77.48-.92.72-.93.77-.06 1.55-.1 2.33-.12h.13a.63.63 0 0 1 .36.19.69.69 0 0 1 .21.5v3.06h1.7v-3a.73.73 0 0 1 .2-.51.71.71 0 0 1 .49-.2c.79 0 1.57.06 2.35.12.28 0 .65.19.7.94a75.81 75.81 0 0 1 0 8.79.33.33 0 0 1-.23.3h-.08a.51.51 0 0 1-.18.09h-.21c-.77 0-1.55.09-2.32.11h-.14a.69.69 0 0 1-.56-.69V72.2h-1.7v2.84a.69.69 0 0 1-.21.51.68.68 0 0 1-.49.2l-2.32-.12Zm.06-.69c.77.06 1.54.1 2.3.12V71.9a.33.33 0 0 1 .1-.23.29.29 0 0 1 .23-.1h2.38a.33.33 0 0 1 .23.1.31.31 0 0 1 .1.24v3.18c.77 0 1.55-.06 2.32-.11a75.85 75.85 0 0 0 0-8.53c0-.25-.08-.31-.08-.31-.78-.06-1.55-.11-2.32-.12v3.4a.33.33 0 0 1-.1.24.34.34 0 0 1-.24.09h-2.36a.31.31 0 0 1-.24-.1.33.33 0 0 1-.1-.23v-3.4c-.77 0-1.54 0-2.3.11-.06 0-.09.2-.1.31a78.3 78.3 0 0 0 .18 8.56Z" stroke="#231f20" stroke-width="25" fill="none"/>
                <path d="M197.05 75.66a.92.92 0 0 1-.23-.09.74.74 0 0 1-.13-.08.33.33 0 0 1-.24-.3 83.13 83.13 0 0 1 0-8.79c.06-.77.48-.92.72-.93.77-.06 1.55-.1 2.33-.12h.13a.63.63 0 0 1 .36.19.69.69 0 0 1 .21.5v3.06h1.7v-3a.73.73 0 0 1 .2-.51.71.71 0 0 1 .49-.2c.79 0 1.57.06 2.35.12.28 0 .65.19.7.94a75.81 75.81 0 0 1 0 8.79.33.33 0 0 1-.23.3h-.08a.51.51 0 0 1-.18.09h-.21c-.77 0-1.55.09-2.32.11h-.14a.69.69 0 0 1-.56-.69V72.2h-1.7v2.84a.69.69 0 0 1-.21.51.68.68 0 0 1-.49.2l-2.32-.12Zm.06-.69c.77.06 1.54.1 2.3.12V71.9a.33.33 0 0 1 .1-.23.29.29 0 0 1 .23-.1h2.38a.33.33 0 0 1 .23.1.31.31 0 0 1 .1.24v3.18c.77 0 1.55-.06 2.32-.11a75.85 75.85 0 0 0 0-8.53c0-.25-.08-.31-.08-.31-.78-.06-1.55-.11-2.32-.12v3.4a.33.33 0 0 1-.1.24.34.34 0 0 1-.24.09h-2.36a.31.31 0 0 1-.24-.1.33.33 0 0 1-.1-.23v-3.4c-.77 0-1.54 0-2.3.11-.06 0-.09.2-.1.31a78.3 78.3 0 0 0 .18 8.56Z" stroke="#231f20" stroke-width="25" fill="none"/>
                <path d="M208.92 72a.71.71 0 0 0 .22.57.83.83 0 0 0 .59.2.85.85 0 0 0 .59-.2.74.74 0 0 0 .23-.56v-6a.4.4 0 0 1 .11-.27.32.32 0 0 1 .26-.1q1.15 0 2.31.12a.46.46 0 0 1 .26.13.42.42 0 0 1 .12.27c.11 2 .14 4 .09 6.08a3 3 0 0 1-1.27 2.44 4.29 4.29 0 0 1-2.69.86 4.22 4.22 0 0 1-2.67-.87 3 3 0 0 1-1.26-2.44c0-2 0-4 .1-6.08a.47.47 0 0 1 .12-.27.45.45 0 0 1 .26-.12q1.17-.09 2.31-.12a.31.31 0 0 1 .27.1.39.39 0 0 1 .1.27q-.07 2.99-.05 5.99Z" stroke="#231f20" stroke-width="25" fill="none"/>
                <path d="M208.92 72a.71.71 0 0 0 .22.57.83.83 0 0 0 .59.2.85.85 0 0 0 .59-.2.74.74 0 0 0 .23-.56v-6a.4.4 0 0 1 .11-.27.32.32 0 0 1 .26-.1q1.15 0 2.31.12a.46.46 0 0 1 .26.13.42.42 0 0 1 .12.27c.11 2 .14 4 .09 6.08a3 3 0 0 1-1.27 2.44 4.29 4.29 0 0 1-2.69.86 4.22 4.22 0 0 1-2.67-.87 3 3 0 0 1-1.26-2.44c0-2 0-4 .1-6.08a.47.47 0 0 1 .12-.27.45.45 0 0 1 .26-.12q1.17-.09 2.31-.12a.31.31 0 0 1 .27.1.39.39 0 0 1 .1.27q-.07 2.99-.05 5.99Z" stroke="#231f20" stroke-width="25" fill="none"/>
                <path d="M208.75 75.8a4.64 4.64 0 0 1-1.91-.85 3.34 3.34 0 0 1-1.38-2.7c-.05-2 0-4.07.09-6.1a.78.78 0 0 1 .23-.49.71.71 0 0 1 .46-.22c.78-.07 1.57-.11 2.33-.12a.5.5 0 0 1 .17 0 .64.64 0 0 1 .35.19.71.71 0 0 1 .19.5v6a.41.41 0 0 0 .11.32.45.45 0 0 0 .23.11h.14a.55.55 0 0 0 .37-.12.39.39 0 0 0 .12-.31v-6a.76.76 0 0 1 .19-.51.69.69 0 0 1 .53-.2c.76 0 1.54.06 2.32.12h.07a.7.7 0 0 1 .39.22.75.75 0 0 1 .23.47c.1 2 .13 4.1.08 6.12a3.34 3.34 0 0 1-1.4 2.69 4.59 4.59 0 0 1-2.89.93 6.14 6.14 0 0 1-1.02-.05Zm-.15-9.8c-.77 0-1.54.06-2.3.12h-.05a.09.09 0 0 0 0 .06c-.11 2-.14 4-.1 6a2.72 2.72 0 0 0 1.13 2.19 4.27 4.27 0 0 0 4.95 0 2.67 2.67 0 0 0 1.15-2.18c0-2 0-4-.09-6-.77-.07-1.54-.11-2.3-.12v6a1.06 1.06 0 0 1-.34.81 1.2 1.2 0 0 1-.81.29 1.09 1.09 0 0 1-.26 0 1.12 1.12 0 0 1-.55-.26 1 1 0 0 1-.33-.82v-6a.05.05 0 0 0-.1-.09Z" stroke="#231f20" stroke-width="25" fill="none"/>
                <path d="M208.75 75.8a4.64 4.64 0 0 1-1.91-.85 3.34 3.34 0 0 1-1.38-2.7c-.05-2 0-4.07.09-6.1a.78.78 0 0 1 .23-.49.71.71 0 0 1 .46-.22c.78-.07 1.57-.11 2.33-.12a.5.5 0 0 1 .17 0 .64.64 0 0 1 .35.19.71.71 0 0 1 .19.5v6a.41.41 0 0 0 .11.32.45.45 0 0 0 .23.11h.14a.55.55 0 0 0 .37-.12.39.39 0 0 0 .12-.31v-6a.76.76 0 0 1 .19-.51.69.69 0 0 1 .53-.2c.76 0 1.54.06 2.32.12h.07a.7.7 0 0 1 .39.22.75.75 0 0 1 .23.47c.1 2 .13 4.1.08 6.12a3.34 3.34 0 0 1-1.4 2.69 4.59 4.59 0 0 1-2.89.93 6.14 6.14 0 0 1-1.02-.05Zm-.15-9.8c-.77 0-1.54.06-2.3.12h-.05a.09.09 0 0 0 0 .06c-.11 2-.14 4-.1 6a2.72 2.72 0 0 0 1.13 2.19 4.27 4.27 0 0 0 4.95 0 2.67 2.67 0 0 0 1.15-2.18c0-2 0-4-.09-6-.77-.07-1.54-.11-2.3-.12v6a1.06 1.06 0 0 1-.34.81 1.2 1.2 0 0 1-.81.29 1.09 1.09 0 0 1-.26 0 1.12 1.12 0 0 1-.55-.26 1 1 0 0 1-.33-.82v-6a.05.05 0 0 0-.1-.09Z" stroke="#231f20" stroke-width="25" fill="none"/>
                <path d="M220.18 70.4c0-1.44 0-2.89-.05-4.33a.39.39 0 0 1 .1-.27.33.33 0 0 1 .27-.1c.77 0 1.54.06 2.31.11a.43.43 0 0 1 .26.13.47.47 0 0 1 .12.27 71 71 0 0 1 0 8.75.4.4 0 0 1 0 .15.47.47 0 0 1-.09.12.36.36 0 0 1-.12.08.48.48 0 0 1-.14 0c-.83 0-1.66.09-2.48.1a.3.3 0 0 1-.31-.16c-.62-1-1.55-2.45-2.77-4.32v4.11a.35.35 0 0 1-.11.26.34.34 0 0 1-.25.11c-.77 0-1.54-.06-2.31-.11a.43.43 0 0 1-.27-.13.42.42 0 0 1-.12-.27 71 71 0 0 1 0-8.75.42.42 0 0 1 .12-.27.43.43 0 0 1 .27-.13c.76 0 1.52-.08 2.28-.1a.29.29 0 0 1 .3.16c.66 1.07 1.65 2.59 2.99 4.59Z" stroke="#231f20" stroke-width="25" fill="none"/>
                <path d="M220.18 70.4c0-1.44 0-2.89-.05-4.33a.39.39 0 0 1 .1-.27.33.33 0 0 1 .27-.1c.77 0 1.54.06 2.31.11a.43.43 0 0 1 .26.13.47.47 0 0 1 .12.27 71 71 0 0 1 0 8.75.4.4 0 0 1 0 .15.47.47 0 0 1-.09.12.36.36 0 0 1-.12.08.48.48 0 0 1-.14 0c-.83 0-1.66.09-2.48.1a.3.3 0 0 1-.31-.16c-.62-1-1.55-2.45-2.77-4.32v4.11a.35.35 0 0 1-.11.26.34.34 0 0 1-.25.11c-.77 0-1.54-.06-2.31-.11a.43.43 0 0 1-.27-.13.42.42 0 0 1-.12-.27 71 71 0 0 1 0-8.75.42.42 0 0 1 .12-.27.43.43 0 0 1 .27-.13c.76 0 1.52-.08 2.28-.1a.29.29 0 0 1 .3.16c.66 1.07 1.65 2.59 2.99 4.59Z" stroke="#231f20" stroke-width="25" fill="none"/>
                <path d="M214.51 75.67a.72.72 0 0 1-.41-.22.75.75 0 0 1-.21-.47 71.77 71.77 0 0 1 0-8.8.82.82 0 0 1 .22-.48.8.8 0 0 1 .49-.23c.76 0 1.54-.09 2.3-.1a.3.3 0 0 1 .16 0 .58.58 0 0 1 .42.31c.55.86 1.34 2.07 2.36 3.6v-3.21a.68.68 0 0 1 .19-.51.64.64 0 0 1 .54-.2c.76 0 1.54 0 2.3.11h.07a.71.71 0 0 1 .41.23.7.7 0 0 1 .21.46 73.65 73.65 0 0 1 0 8.79.68.68 0 0 1-.22.49.73.73 0 0 1-.23.16l-.2.07h-.05c-.83 0-1.66.09-2.5.11h-.16a.64.64 0 0 1-.43-.31c-.52-.83-1.22-1.94-2.15-3.37v3a.69.69 0 0 1-.2.51.71.71 0 0 1-.49.2c-.8 0-1.58-.06-2.33-.11Zm2.4-9.64c-.75 0-1.51 0-2.26.1h-.06a.11.11 0 0 0 0 .07 72.15 72.15 0 0 0 0 8.7.09.09 0 0 0 0 .06l2.29.11v-4.11a.33.33 0 0 1 .24-.32.32.32 0 0 1 .37.14c1.24 1.91 2.15 3.32 2.78 4.33.81 0 1.63 0 2.44-.1h.05a72.65 72.65 0 0 0 0-8.73v-.06c0-.06 0 0 0 0-.74 0-1.51-.09-2.29-.11v4.33a.33.33 0 0 1-.24.31.32.32 0 0 1-.37-.13c-1.33-2-2.33-3.52-3-4.54Z" stroke="#231f20" stroke-width="25" fill="none"/>
                <path d="M214.51 75.67a.72.72 0 0 1-.41-.22.75.75 0 0 1-.21-.47 71.77 71.77 0 0 1 0-8.8.82.82 0 0 1 .22-.48.8.8 0 0 1 .49-.23c.76 0 1.54-.09 2.3-.1a.3.3 0 0 1 .16 0 .58.58 0 0 1 .42.31c.55.86 1.34 2.07 2.36 3.6v-3.21a.68.68 0 0 1 .19-.51.64.64 0 0 1 .54-.2c.76 0 1.54 0 2.3.11h.07a.71.71 0 0 1 .41.23.7.7 0 0 1 .21.46 73.65 73.65 0 0 1 0 8.79.68.68 0 0 1-.22.49.73.73 0 0 1-.23.16l-.2.07h-.05c-.83 0-1.66.09-2.5.11h-.16a.64.64 0 0 1-.43-.31c-.52-.83-1.22-1.94-2.15-3.37v3a.69.69 0 0 1-.2.51.71.71 0 0 1-.49.2c-.8 0-1.58-.06-2.33-.11Zm2.4-9.64c-.75 0-1.51 0-2.26.1h-.06a.11.11 0 0 0 0 .07 72.15 72.15 0 0 0 0 8.7.09.09 0 0 0 0 .06l2.29.11v-4.11a.33.33 0 0 1 .24-.32.32.32 0 0 1 .37.14c1.24 1.91 2.15 3.32 2.78 4.33.81 0 1.63 0 2.44-.1h.05a72.65 72.65 0 0 0 0-8.73v-.06c0-.06 0 0 0 0-.74 0-1.51-.09-2.29-.11v4.33a.33.33 0 0 1-.24.31.32.32 0 0 1-.37-.13c-1.33-2-2.33-3.52-3-4.54Z" stroke="#231f20" stroke-width="25" fill="none"/>
                <path d="M231.87 74.77a.41.41 0 0 1 0 .37.42.42 0 0 1-.33.2l-2.27.12a.33.33 0 0 1-.32-.19c-.45-.74-1-1.58-1.59-2.51a3.57 3.57 0 0 1-.39-.84v3.17a.33.33 0 0 1-.11.26.35.35 0 0 1-.26.11c-.77 0-1.54-.06-2.31-.13a.39.39 0 0 1-.26-.12.47.47 0 0 1-.12-.27 77.57 77.57 0 0 1 0-8.76.42.42 0 0 1 .12-.26.42.42 0 0 1 .26-.14c.77 0 1.54-.09 2.31-.11a.34.34 0 0 1 .26.1.35.35 0 0 1 .14.23v3.73a3 3 0 0 1 .2-.49c.69-1.41 1.24-2.55 1.66-3.44a.36.36 0 0 1 .32-.17q1.13 0 2.25.12a.4.4 0 0 1 .34.21.32.32 0 0 1 0 .36q-.71 1.55-2.31 4.81Z" stroke="#231f20" stroke-width="25" fill="none"/>
                <path d="M231.87 74.77a.41.41 0 0 1 0 .37.42.42 0 0 1-.33.2l-2.27.12a.33.33 0 0 1-.32-.19c-.45-.74-1-1.58-1.59-2.51a3.57 3.57 0 0 1-.39-.84v3.17a.33.33 0 0 1-.11.26.35.35 0 0 1-.26.11c-.77 0-1.54-.06-2.31-.13a.39.39 0 0 1-.26-.12.47.47 0 0 1-.12-.27 77.57 77.57 0 0 1 0-8.76.42.42 0 0 1 .12-.26.42.42 0 0 1 .26-.14c.77 0 1.54-.09 2.31-.11a.34.34 0 0 1 .26.1.35.35 0 0 1 .14.23v3.73a3 3 0 0 1 .2-.49c.69-1.41 1.24-2.55 1.66-3.44a.36.36 0 0 1 .32-.17q1.13 0 2.25.12a.4.4 0 0 1 .34.21.32.32 0 0 1 0 .36q-.71 1.55-2.31 4.81Z" stroke="#231f20" stroke-width="25" fill="none"/>
                <path d="M224.18 75.66a.7.7 0 0 1-.39-.22.72.72 0 0 1-.22-.48 80.73 80.73 0 0 1 0-8.8.77.77 0 0 1 .22-.47.74.74 0 0 1 .47-.24c.77 0 1.55-.09 2.33-.11h.15a.63.63 0 0 1 .36.19.7.7 0 0 1 .2.5v2.2c.48-1 .89-1.84 1.22-2.54a.66.66 0 0 1 .6-.33q1.15 0 2.28.12h.1a.74.74 0 0 1 .5.36.66.66 0 0 1 0 .69c-.46 1-1.21 2.56-2.22 4.63l2.35 3.43a.68.68 0 0 1 0 .67.69.69 0 0 1-.59.37c-.74.06-1.51.1-2.28.12h-.15a.66.66 0 0 1-.47-.34c-.39-.64-.84-1.36-1.36-2.16v1.8a.73.73 0 0 1-.2.51.7.7 0 0 1-.5.2q-1.18 0-2.34-.12Zm.13-9.54a.08.08 0 0 0 0 .06 79.09 79.09 0 0 0 0 8.71c.75.06 1.52.11 2.29.12v-3.16a.33.33 0 0 1 .29-.33.32.32 0 0 1 .36.22 3.11 3.11 0 0 0 .37.78c.6.93 1.14 1.78 1.59 2.51.75 0 1.51-.07 2.25-.12h.06c.06 0 0 0 0 0l-2.44-3.56a.3.3 0 0 1 0-.33c1.06-2.16 1.83-3.77 2.31-4.81s-.05 0-.07 0q-1.12-.09-2.25-.12c-.42.89-1 2-1.65 3.41a4.22 4.22 0 0 0-.18.45.35.35 0 0 1-.37.23.34.34 0 0 1-.28-.33v-3.74c-.79 0-1.56.06-2.32.11Z" stroke="#231f20" stroke-width="25" fill="none"/>
                <path d="M224.18 75.66a.7.7 0 0 1-.39-.22.72.72 0 0 1-.22-.48 80.73 80.73 0 0 1 0-8.8.77.77 0 0 1 .22-.47.74.74 0 0 1 .47-.24c.77 0 1.55-.09 2.33-.11h.15a.63.63 0 0 1 .36.19.7.7 0 0 1 .2.5v2.2c.48-1 .89-1.84 1.22-2.54a.66.66 0 0 1 .6-.33q1.15 0 2.28.12h.1a.74.74 0 0 1 .5.36.66.66 0 0 1 0 .69c-.46 1-1.21 2.56-2.22 4.63l2.35 3.43a.68.68 0 0 1 0 .67.69.69 0 0 1-.59.37c-.74.06-1.51.1-2.28.12h-.15a.66.66 0 0 1-.47-.34c-.39-.64-.84-1.36-1.36-2.16v1.8a.73.73 0 0 1-.2.51.7.7 0 0 1-.5.2q-1.18 0-2.34-.12Zm.13-9.54a.08.08 0 0 0 0 .06 79.09 79.09 0 0 0 0 8.71c.75.06 1.52.11 2.29.12v-3.16a.33.33 0 0 1 .29-.33.32.32 0 0 1 .36.22 3.11 3.11 0 0 0 .37.78c.6.93 1.14 1.78 1.59 2.51.75 0 1.51-.07 2.25-.12h.06c.06 0 0 0 0 0l-2.44-3.56a.3.3 0 0 1 0-.33c1.06-2.16 1.83-3.77 2.31-4.81s-.05 0-.07 0q-1.12-.09-2.25-.12c-.42.89-1 2-1.65 3.41a4.22 4.22 0 0 0-.18.45.35.35 0 0 1-.37.23.34.34 0 0 1-.28-.33v-3.74c-.79 0-1.56.06-2.32.11Z" stroke="#231f20" stroke-width="25" fill="none"/>
                <path d="M236.47 69.23a4.07 4.07 0 0 1 2.35 1.09 2.61 2.61 0 0 1 .75 2 3.06 3.06 0 0 1-1.08 2.24 4.35 4.35 0 0 1-3 1 6.18 6.18 0 0 1-3.49-1.24.38.38 0 0 1-.16-.42c.16-.48.34-1 .52-1.54a.34.34 0 0 1 .22-.22.42.42 0 0 1 .33 0c.14.08.36.22.66.43a7.35 7.35 0 0 0 .78.46 1.41 1.41 0 0 0 .64.16q1.11 0 1.11-.57c0-.37-.41-.62-1.23-.76a3.81 3.81 0 0 1-2.21-1.06 2.71 2.71 0 0 1-.72-2 3.15 3.15 0 0 1 .94-2.16 3.53 3.53 0 0 1 2.57-1.06 6.45 6.45 0 0 1 3.4.84.41.41 0 0 1 .18.19.39.39 0 0 1 0 .26c-.07.48-.16 1-.25 1.49a.36.36 0 0 1-.21.21.42.42 0 0 1-.31 0 5.73 5.73 0 0 0-2.36-.67.72.72 0 0 0-.47.16.48.48 0 0 0-.2.38.54.54 0 0 0 .28.48 2.5 2.5 0 0 0 .96.31Z" stroke="#231f20" stroke-width="25" fill="none"/>
                <path d="M236.47 69.23a4.07 4.07 0 0 1 2.35 1.09 2.61 2.61 0 0 1 .75 2 3.06 3.06 0 0 1-1.08 2.24 4.35 4.35 0 0 1-3 1 6.18 6.18 0 0 1-3.49-1.24.38.38 0 0 1-.16-.42c.16-.48.34-1 .52-1.54a.34.34 0 0 1 .22-.22.42.42 0 0 1 .33 0c.14.08.36.22.66.43a7.35 7.35 0 0 0 .78.46 1.41 1.41 0 0 0 .64.16q1.11 0 1.11-.57c0-.37-.41-.62-1.23-.76a3.81 3.81 0 0 1-2.21-1.06 2.71 2.71 0 0 1-.72-2 3.15 3.15 0 0 1 .94-2.16 3.53 3.53 0 0 1 2.57-1.06 6.45 6.45 0 0 1 3.4.84.41.41 0 0 1 .18.19.39.39 0 0 1 0 .26c-.07.48-.16 1-.25 1.49a.36.36 0 0 1-.21.21.42.42 0 0 1-.31 0 5.73 5.73 0 0 0-2.36-.67.72.72 0 0 0-.47.16.48.48 0 0 0-.2.38.54.54 0 0 0 .28.48 2.5 2.5 0 0 0 .96.31Z" stroke="#231f20" stroke-width="25" fill="none"/>
                <path d="M234.57 75.81a6.89 6.89 0 0 1-2.74-1.22.7.7 0 0 1-.29-.78c.16-.49.34-1 .52-1.54a.65.65 0 0 1 .43-.44.73.73 0 0 1 .58 0c.17.09.39.24.71.45a5.9 5.9 0 0 0 .74.44 1.2 1.2 0 0 0 .49.13c.55 0 .71-.11.75-.15a.11.11 0 0 0 0-.09c0-.12-.22-.29-.84-.41h-.2a4.12 4.12 0 0 1-2.31-1.15 3.08 3.08 0 0 1-.81-2.23 3.5 3.5 0 0 1 1-2.38 3.87 3.87 0 0 1 2.8-1.16 6.89 6.89 0 0 1 3.58.88.71.71 0 0 1 .31.35.73.73 0 0 1 0 .46c-.07.47-.16 1-.26 1.48a.67.67 0 0 1-.4.42.73.73 0 0 1-.56 0 5.64 5.64 0 0 0-2.23-.64.41.41 0 0 0-.26.09c-.07.06-.07.09-.07.13s0 .11.12.19a2.19 2.19 0 0 0 .66.21h.35a4.26 4.26 0 0 1 2.32 1.15 2.91 2.91 0 0 1 .85 2.2 3.37 3.37 0 0 1-1.18 2.48 4.63 4.63 0 0 1-3.22 1.13 4.88 4.88 0 0 1-.84 0Zm-1.82-3.36-.57 1.55v.06a5.86 5.86 0 0 0 3.28 1.18 4 4 0 0 0 2.77-1 2.69 2.69 0 0 0 1-2 2.27 2.27 0 0 0-.66-1.72 3.73 3.73 0 0 0-2.16-1h-.16a2.28 2.28 0 0 1-.91-.31.88.88 0 0 1-.42-.75.79.79 0 0 1 .33-.64 1.07 1.07 0 0 1 .67-.23 6 6 0 0 1 2.5.7c.1-.51.18-1 .25-1.45a6.28 6.28 0 0 0-3.24-.8 3.15 3.15 0 0 0-2.33 1 2.84 2.84 0 0 0-.85 1.94 2.36 2.36 0 0 0 .64 1.75 3.42 3.42 0 0 0 1.94 1h.2c.92.17 1.39.53 1.38 1.06a.79.79 0 0 1-.23.57 1.65 1.65 0 0 1-1.22.33 1.75 1.75 0 0 1-.77-.19 6.09 6.09 0 0 1-.83-.49c-.3-.2-.51-.34-.64-.41Z" stroke="#231f20" stroke-width="25" fill="none"/>
                <path d="M234.57 75.81a6.89 6.89 0 0 1-2.74-1.22.7.7 0 0 1-.29-.78c.16-.49.34-1 .52-1.54a.65.65 0 0 1 .43-.44.73.73 0 0 1 .58 0c.17.09.39.24.71.45a5.9 5.9 0 0 0 .74.44 1.2 1.2 0 0 0 .49.13c.55 0 .71-.11.75-.15a.11.11 0 0 0 0-.09c0-.12-.22-.29-.84-.41h-.2a4.12 4.12 0 0 1-2.31-1.15 3.08 3.08 0 0 1-.81-2.23 3.5 3.5 0 0 1 1-2.38 3.87 3.87 0 0 1 2.8-1.16 6.89 6.89 0 0 1 3.58.88.71.71 0 0 1 .31.35.73.73 0 0 1 0 .46c-.07.47-.16 1-.26 1.48a.67.67 0 0 1-.4.42.73.73 0 0 1-.56 0 5.64 5.64 0 0 0-2.23-.64.41.41 0 0 0-.26.09c-.07.06-.07.09-.07.13s0 .11.12.19a2.19 2.19 0 0 0 .66.21h.35a4.26 4.26 0 0 1 2.32 1.15 2.91 2.91 0 0 1 .85 2.2 3.37 3.37 0 0 1-1.18 2.48 4.63 4.63 0 0 1-3.22 1.13 4.88 4.88 0 0 1-.84 0Zm-1.82-3.36-.57 1.55v.06a5.86 5.86 0 0 0 3.28 1.18 4 4 0 0 0 2.77-1 2.69 2.69 0 0 0 1-2 2.27 2.27 0 0 0-.66-1.72 3.73 3.73 0 0 0-2.16-1h-.16a2.28 2.28 0 0 1-.91-.31.88.88 0 0 1-.42-.75.79.79 0 0 1 .33-.64 1.07 1.07 0 0 1 .67-.23 6 6 0 0 1 2.5.7c.1-.51.18-1 .25-1.45a6.28 6.28 0 0 0-3.24-.8 3.15 3.15 0 0 0-2.33 1 2.84 2.84 0 0 0-.85 1.94 2.36 2.36 0 0 0 .64 1.75 3.42 3.42 0 0 0 1.94 1h.2c.92.17 1.39.53 1.38 1.06a.79.79 0 0 1-.23.57 1.65 1.65 0 0 1-1.22.33 1.75 1.75 0 0 1-.77-.19 6.09 6.09 0 0 1-.83-.49c-.3-.2-.51-.34-.64-.41Z" stroke="#231f20" stroke-width="25" fill="none"/>
                <path d="M165.35 83.43a5.78 5.78 0 0 1-1.27 3.9 4.62 4.62 0 0 1-3.73 1.58h-1.19c-.53 0-.94-.05-1.2-.05s-.43.13-.43.37 0 .76.09 1.36.09 1.06.09 1.35-.07.23-.21.23h-3.64c-.19 0-.29-.09-.29-.28v-6.64q0-3.12-.26-6.56v-.14c0-.12.08-.2.29-.23.52-.06 1.66-.1 3.42-.1h3a5.44 5.44 0 0 1 3.8 1.49 5.08 5.08 0 0 1 1.53 3.72Zm-4 .16a2 2 0 0 0-2.26-2.31c-1.06 0-1.62.06-1.67.17a17.59 17.59 0 0 0-.07 2.3v1.82c0 .2.6.2 1.79.2a1.92 1.92 0 0 0 2.24-2.18Z" stroke="#231f20" stroke-width="25" fill="none"/>
                <path d="M178.56 92c0 .05-.07.08-.2.1a17 17 0 0 1-1.9.06 16.76 16.76 0 0 1-1.77-.06.82.82 0 0 1-.25 0s-.08-.08-.13-.19l-.44-1.16c-.26-.66-.67-1.64-1.22-2.93-.11-.26-.39-.4-.82-.43h-1q-.15 0-.15.51c0 .45 0 1.12.12 2s.12 1.56.12 2c0 .11 0 .17-.09.19h-2.1a13 13 0 0 1-1.71-.06c-.2 0-.29-.14-.29-.3 0-.73 0-1.83.1-3.31s.11-2.57.11-3.31c0-2.8-.07-5-.19-6.56v-.14c0-.11.1-.19.31-.23s1.23-.08 3-.12h2.93a6.23 6.23 0 0 1 3.7 1 3.84 3.84 0 0 1 1.62 3.33 5.38 5.38 0 0 1-.42 2.32 4.73 4.73 0 0 1-1.54 1.68c-.15.1-.23.2-.23.29s.41.83 1.22 2.5a17.85 17.85 0 0 1 1.22 2.82Zm-4.18-8.91a1.78 1.78 0 0 0-.79-1.68 4 4 0 0 0-1.93-.36c-.63 0-1 .09-1 .29a16.93 16.93 0 0 0-.06 1.94v1.35c0 .15.1.06.31.1a8.77 8.77 0 0 0 1.28.09c1.47-.04 2.19-.62 2.19-1.77Z" stroke="#231f20" stroke-width="25" fill="none"/>
                <path d="M193.5 85.1a7.27 7.27 0 0 1-2 5.2 7.16 7.16 0 0 1-10.21 0 7.2 7.2 0 0 1-2-5.18 7.28 7.28 0 0 1 2-5.2 7.11 7.11 0 0 1 10.19 0 7.34 7.34 0 0 1 2.02 5.18Zm-3.77 0a3.74 3.74 0 0 0-.91-2.53 3.12 3.12 0 0 0-4.79 0 3.93 3.93 0 0 0-.06 5 3.07 3.07 0 0 0 2.44 1.06 3 3 0 0 0 2.38-1.12 3.67 3.67 0 0 0 .94-2.43Z" stroke="#231f20" stroke-width="25" fill="none"/>
                <path d="M204.66 81.16c0 .13-.07.2-.22.2s-1.25 0-3-.15q-.06 2.51-.06 3.51c0 .78 0 2 .09 3.53s.1 2.74.1 3.53c0 .12 0 .2-.09.23a.87.87 0 0 1-.28 0 13 13 0 0 1-1.75.08 12.63 12.63 0 0 1-1.8-.08.29.29 0 0 1-.28-.3c0-.79 0-2 .1-3.52s.1-2.74.1-3.52c0-.52 0-1.67-.08-3.46-1.32.13-2.38.19-3.17.19-.11 0-.16 0-.16-.09a6.19 6.19 0 0 1 .14-.77c.11-.46.17-.75.18-.85 0-.31 0-.62.07-.93q.08-.75.24-.75h.14a39.82 39.82 0 0 0 4.76.21c.6 0 1.7-.06 3.3-.19l1.3-.1h.23a.4.4 0 0 1 0 .19v1.49a5.17 5.17 0 0 0 .07.74 6.37 6.37 0 0 1 .07.81Z" stroke="#231f20" stroke-width="25" fill="none"/>
                <path d="M215.91 89a13.43 13.43 0 0 1-.17 1.57 6 6 0 0 1-.32 1.48.37.37 0 0 1-.33.19h-.3c-.48-.06-1.89-.1-4.23-.1H206c-.22 0-.32-.09-.32-.28 0-.75 0-1.86.12-3.35s.12-2.6.12-3.35 0-2.16-.12-4.22c0-.53-.05-1.32-.1-2.38v-.14c0-.15.07-.23.24-.23h8.8q.52 0 .6.39c0 .15.08.62.15 1.39s.11 1.24.11 1.41a.18.18 0 0 1-.2.2h-.21a60.61 60.61 0 0 0-4.75-.21c-.35 0-.57.08-.65.24a3.35 3.35 0 0 0 0 .77 1.39 1.39 0 0 0 .2.89.84.84 0 0 0 .65.19h.83c.84 0 1.68 0 2.54-.07h1.08a.21.21 0 0 1 .24.23 14.35 14.35 0 0 0-.18 1.52c0 .54-.08 1.07-.08 1.6 0 .13-.09.19-.29.19l-.89-.1c-.38 0-1.24-.05-2.59-.05h-1.05c-.27 0-.43.06-.48.19s0 .24 0 .62a3.06 3.06 0 0 0 .1 1c.11.26.54.41 1.27.45h1.46q.52 0 1.56-.09c.69-.06 1.21-.1 1.56-.1.11-.24.19-.12.19.15Z" stroke="#231f20" stroke-width="25" fill="none"/>
                <path d="M228.84 89.82a.75.75 0 0 1-.21.41 6 6 0 0 1-4.86 2.18 6.46 6.46 0 0 1-5-2.12 7.36 7.36 0 0 1-1.88-5.17A7.53 7.53 0 0 1 218.7 80a6.19 6.19 0 0 1 4.88-2.2 6.56 6.56 0 0 1 5 2 .61.61 0 0 1 .2.39 6 6 0 0 1-.69 1.4 8.18 8.18 0 0 1-.87 1.37.28.28 0 0 1-.2.08 2.94 2.94 0 0 1-.49-.4 5.19 5.19 0 0 0-1.06-.75 3.63 3.63 0 0 0-1.63-.4 2.86 2.86 0 0 0-2.34 1.1 3.92 3.92 0 0 0-.8 2.5 4 4 0 0 0 .8 2.54 2.84 2.84 0 0 0 2.34 1.11 3.71 3.71 0 0 0 1.64-.37 5.42 5.42 0 0 0 1-.7 2.92 2.92 0 0 1 .48-.38.27.27 0 0 1 .2.11c.11.12.4.53.87 1.24a7 7 0 0 1 .81 1.18Z" stroke="#231f20" stroke-width="25" fill="none"/>
                <path d="M239.6 81.16c0 .13-.07.2-.22.2s-1.25 0-3-.15q-.06 2.51-.06 3.51c0 .78 0 2 .09 3.53s.1 2.74.1 3.53c0 .12 0 .2-.09.23a.87.87 0 0 1-.28 0 13 13 0 0 1-1.75.08 12.63 12.63 0 0 1-1.8-.08.29.29 0 0 1-.28-.3c0-.79 0-2 .1-3.52s.1-2.74.1-3.52c0-.52 0-1.67-.08-3.46-1.32.13-2.38.19-3.17.19-.11 0-.16 0-.16-.09a6.19 6.19 0 0 1 .14-.77c.11-.46.17-.75.18-.85 0-.31 0-.62.07-.93q.06-.75.24-.75h.14a39.82 39.82 0 0 0 4.76.21c.6 0 1.7-.06 3.3-.19l1.3-.1h.23a.4.4 0 0 1 0 .19v1.49a5.17 5.17 0 0 0 .07.74 6.37 6.37 0 0 1 .07.81Z" stroke="#231f20" stroke-width="25" fill="none"/>
                <path d="M165.35 83.43a5.78 5.78 0 0 1-1.27 3.9 4.62 4.62 0 0 1-3.73 1.58h-1.19c-.53 0-.94-.05-1.2-.05s-.43.13-.43.37 0 .76.09 1.36.09 1.06.09 1.35-.07.23-.21.23h-3.64c-.19 0-.29-.09-.29-.28v-6.64q0-3.12-.26-6.56v-.14c0-.12.08-.2.29-.23.52-.06 1.66-.1 3.42-.1h3a5.44 5.44 0 0 1 3.8 1.49 5.08 5.08 0 0 1 1.53 3.72Zm-4 .16a2 2 0 0 0-2.26-2.31c-1.06 0-1.62.06-1.67.17a17.59 17.59 0 0 0-.07 2.3v1.82c0 .2.6.2 1.79.2a1.92 1.92 0 0 0 2.24-2.18Z" stroke="#231f20" stroke-width="25" fill="none"/>
                <path d="M178.56 92c0 .05-.07.08-.2.1a17 17 0 0 1-1.9.06 16.76 16.76 0 0 1-1.77-.06.82.82 0 0 1-.25 0s-.08-.08-.13-.19l-.44-1.16c-.26-.66-.67-1.64-1.22-2.93-.11-.26-.39-.4-.82-.43h-1q-.15 0-.15.51c0 .45 0 1.12.12 2s.12 1.56.12 2c0 .11 0 .17-.09.19h-2.1a13 13 0 0 1-1.71-.06c-.2 0-.29-.14-.29-.3 0-.73 0-1.83.1-3.31s.11-2.57.11-3.31c0-2.8-.07-5-.19-6.56v-.14c0-.11.1-.19.31-.23s1.23-.08 3-.12h2.93a6.23 6.23 0 0 1 3.7 1 3.84 3.84 0 0 1 1.62 3.33 5.38 5.38 0 0 1-.42 2.32 4.73 4.73 0 0 1-1.54 1.68c-.15.1-.23.2-.23.29s.41.83 1.22 2.5a17.85 17.85 0 0 1 1.22 2.82Zm-4.18-8.91a1.78 1.78 0 0 0-.79-1.68 4 4 0 0 0-1.93-.36c-.63 0-1 .09-1 .29a16.93 16.93 0 0 0-.06 1.94v1.35c0 .15.1.06.31.1a8.77 8.77 0 0 0 1.28.09c1.47-.04 2.19-.62 2.19-1.77Z" stroke="#231f20" stroke-width="25" fill="none"/>
                <path d="M193.5 85.1a7.27 7.27 0 0 1-2 5.2 7.16 7.16 0 0 1-10.21 0 7.2 7.2 0 0 1-2-5.18 7.28 7.28 0 0 1 2-5.2 7.11 7.11 0 0 1 10.19 0 7.34 7.34 0 0 1 2.02 5.18Zm-3.77 0a3.74 3.74 0 0 0-.91-2.53 3.12 3.12 0 0 0-4.79 0 3.93 3.93 0 0 0-.06 5 3.07 3.07 0 0 0 2.44 1.06 3 3 0 0 0 2.38-1.12 3.67 3.67 0 0 0 .94-2.43Z" stroke="#231f20" stroke-width="25" fill="none"/>
                <path d="M204.66 81.16c0 .13-.07.2-.22.2s-1.25 0-3-.15q-.06 2.51-.06 3.51c0 .78 0 2 .09 3.53s.1 2.74.1 3.53c0 .12 0 .2-.09.23a.87.87 0 0 1-.28 0 13 13 0 0 1-1.75.08 12.63 12.63 0 0 1-1.8-.08.29.29 0 0 1-.28-.3c0-.79 0-2 .1-3.52s.1-2.74.1-3.52c0-.52 0-1.67-.08-3.46-1.32.13-2.38.19-3.17.19-.11 0-.16 0-.16-.09a6.19 6.19 0 0 1 .14-.77c.11-.46.17-.75.18-.85 0-.31 0-.62.07-.93q.08-.75.24-.75h.14a39.82 39.82 0 0 0 4.76.21c.6 0 1.7-.06 3.3-.19l1.3-.1h.23a.4.4 0 0 1 0 .19v1.49a5.17 5.17 0 0 0 .07.74 6.37 6.37 0 0 1 .07.81Z" stroke="#231f20" stroke-width="25" fill="none"/>
                <path d="M215.91 89a13.43 13.43 0 0 1-.17 1.57 6 6 0 0 1-.32 1.48.37.37 0 0 1-.33.19h-.3c-.48-.06-1.89-.1-4.23-.1H206c-.22 0-.32-.09-.32-.28 0-.75 0-1.86.12-3.35s.12-2.6.12-3.35 0-2.16-.12-4.22c0-.53-.05-1.32-.1-2.38v-.14c0-.15.07-.23.24-.23h8.8q.52 0 .6.39c0 .15.08.62.15 1.39s.11 1.24.11 1.41a.18.18 0 0 1-.2.2h-.21a60.61 60.61 0 0 0-4.75-.21c-.35 0-.57.08-.65.24a3.35 3.35 0 0 0 0 .77 1.39 1.39 0 0 0 .2.89.84.84 0 0 0 .65.19h.83c.84 0 1.68 0 2.54-.07h1.08a.21.21 0 0 1 .24.23 14.35 14.35 0 0 0-.18 1.52c0 .54-.08 1.07-.08 1.6 0 .13-.09.19-.29.19l-.89-.1c-.38 0-1.24-.05-2.59-.05h-1.05c-.27 0-.43.06-.48.19s0 .24 0 .62a3.06 3.06 0 0 0 .1 1c.11.26.54.41 1.27.45h1.46q.52 0 1.56-.09c.69-.06 1.21-.1 1.56-.1.11-.24.19-.12.19.15Z" stroke="#231f20" stroke-width="25" fill="none"/>
                <path d="M228.84 89.82a.75.75 0 0 1-.21.41 6 6 0 0 1-4.86 2.18 6.46 6.46 0 0 1-5-2.12 7.36 7.36 0 0 1-1.88-5.17A7.53 7.53 0 0 1 218.7 80a6.19 6.19 0 0 1 4.88-2.2 6.56 6.56 0 0 1 5 2 .61.61 0 0 1 .2.39 6 6 0 0 1-.69 1.4 8.18 8.18 0 0 1-.87 1.37.28.28 0 0 1-.2.08 2.94 2.94 0 0 1-.49-.4 5.19 5.19 0 0 0-1.06-.75 3.63 3.63 0 0 0-1.63-.4 2.86 2.86 0 0 0-2.34 1.1 3.92 3.92 0 0 0-.8 2.5 4 4 0 0 0 .8 2.54 2.84 2.84 0 0 0 2.34 1.11 3.71 3.71 0 0 0 1.64-.37 5.42 5.42 0 0 0 1-.7 2.92 2.92 0 0 1 .48-.38.27.27 0 0 1 .2.11c.11.12.4.53.87 1.24a7 7 0 0 1 .81 1.18Z" stroke="#231f20" stroke-width="25" fill="none"/>
                <path d="M239.6 81.16c0 .13-.07.2-.22.2s-1.25 0-3-.15q-.06 2.51-.06 3.51c0 .78 0 2 .09 3.53s.1 2.74.1 3.53c0 .12 0 .2-.09.23a.87.87 0 0 1-.28 0 13 13 0 0 1-1.75.08 12.63 12.63 0 0 1-1.8-.08.29.29 0 0 1-.28-.3c0-.79 0-2 .1-3.52s.1-2.74.1-3.52c0-.52 0-1.67-.08-3.46-1.32.13-2.38.19-3.17.19-.11 0-.16 0-.16-.09a6.19 6.19 0 0 1 .14-.77c.11-.46.17-.75.18-.85 0-.31 0-.62.07-.93q.06-.75.24-.75h.14a39.82 39.82 0 0 0 4.76.21c.6 0 1.7-.06 3.3-.19l1.3-.1h.23a.4.4 0 0 1 0 .19v1.49a5.17 5.17 0 0 0 .07.74 6.37 6.37 0 0 1 .07.81Z" stroke="#231f20" stroke-width="25" fill="none"/>
                <path d="M165.35 83.43a5.78 5.78 0 0 1-1.27 3.9 4.62 4.62 0 0 1-3.73 1.58h-1.19c-.53 0-.94-.05-1.2-.05s-.43.13-.43.37 0 .76.09 1.36.09 1.06.09 1.35-.07.23-.21.23h-3.64c-.19 0-.29-.09-.29-.28v-6.64q0-3.12-.26-6.56v-.14c0-.12.08-.2.29-.23.52-.06 1.66-.1 3.42-.1h3a5.44 5.44 0 0 1 3.8 1.49 5.08 5.08 0 0 1 1.53 3.72Zm-4 .16a2 2 0 0 0-2.26-2.31c-1.06 0-1.62.06-1.67.17a17.59 17.59 0 0 0-.07 2.3v1.82c0 .2.6.2 1.79.2a1.92 1.92 0 0 0 2.24-2.18Z" stroke="#231f20" stroke-width="25" fill="none"/>
                <path d="M178.56 92c0 .05-.07.08-.2.1a17 17 0 0 1-1.9.06 16.76 16.76 0 0 1-1.77-.06.82.82 0 0 1-.25 0s-.08-.08-.13-.19l-.44-1.16c-.26-.66-.67-1.64-1.22-2.93-.11-.26-.39-.4-.82-.43h-1q-.15 0-.15.51c0 .45 0 1.12.12 2s.12 1.56.12 2c0 .11 0 .17-.09.19h-2.1a13 13 0 0 1-1.71-.06c-.2 0-.29-.14-.29-.3 0-.73 0-1.83.1-3.31s.11-2.57.11-3.31c0-2.8-.07-5-.19-6.56v-.14c0-.11.1-.19.31-.23s1.23-.08 3-.12h2.93a6.23 6.23 0 0 1 3.7 1 3.84 3.84 0 0 1 1.62 3.33 5.38 5.38 0 0 1-.42 2.32 4.73 4.73 0 0 1-1.54 1.68c-.15.1-.23.2-.23.29s.41.83 1.22 2.5a17.85 17.85 0 0 1 1.22 2.82Zm-4.18-8.91a1.78 1.78 0 0 0-.79-1.68 4 4 0 0 0-1.93-.36c-.63 0-1 .09-1 .29a16.93 16.93 0 0 0-.06 1.94v1.35c0 .15.1.06.31.1a8.77 8.77 0 0 0 1.28.09c1.47-.04 2.19-.62 2.19-1.77Z" stroke="#231f20" stroke-width="25" fill="none"/>
                <path d="M193.5 85.1a7.27 7.27 0 0 1-2 5.2 7.16 7.16 0 0 1-10.21 0 7.2 7.2 0 0 1-2-5.18 7.28 7.28 0 0 1 2-5.2 7.11 7.11 0 0 1 10.19 0 7.34 7.34 0 0 1 2.02 5.18Zm-3.77 0a3.74 3.74 0 0 0-.91-2.53 3.12 3.12 0 0 0-4.79 0 3.93 3.93 0 0 0-.06 5 3.07 3.07 0 0 0 2.44 1.06 3 3 0 0 0 2.38-1.12 3.67 3.67 0 0 0 .94-2.43Z" stroke="#231f20" stroke-width="25" fill="none"/>
                <path d="M204.66 81.16c0 .13-.07.2-.22.2s-1.25 0-3-.15q-.06 2.51-.06 3.51c0 .78 0 2 .09 3.53s.1 2.74.1 3.53c0 .12 0 .2-.09.23a.87.87 0 0 1-.28 0 13 13 0 0 1-1.75.08 12.63 12.63 0 0 1-1.8-.08.29.29 0 0 1-.28-.3c0-.79 0-2 .1-3.52s.1-2.74.1-3.52c0-.52 0-1.67-.08-3.46-1.32.13-2.38.19-3.17.19-.11 0-.16 0-.16-.09a6.19 6.19 0 0 1 .14-.77c.11-.46.17-.75.18-.85 0-.31 0-.62.07-.93q.08-.75.24-.75h.14a39.82 39.82 0 0 0 4.76.21c.6 0 1.7-.06 3.3-.19l1.3-.1h.23a.4.4 0 0 1 0 .19v1.49a5.17 5.17 0 0 0 .07.74 6.37 6.37 0 0 1 .07.81Z" stroke="#231f20" stroke-width="25" fill="none"/>
                <path d="M215.91 89a13.43 13.43 0 0 1-.17 1.57 6 6 0 0 1-.32 1.48.37.37 0 0 1-.33.19h-.3c-.48-.06-1.89-.1-4.23-.1H206c-.22 0-.32-.09-.32-.28 0-.75 0-1.86.12-3.35s.12-2.6.12-3.35 0-2.16-.12-4.22c0-.53-.05-1.32-.1-2.38v-.14c0-.15.07-.23.24-.23h8.8q.52 0 .6.39c0 .15.08.62.15 1.39s.11 1.24.11 1.41a.18.18 0 0 1-.2.2h-.21a60.61 60.61 0 0 0-4.75-.21c-.35 0-.57.08-.65.24a3.35 3.35 0 0 0 0 .77 1.39 1.39 0 0 0 .2.89.84.84 0 0 0 .65.19h.83c.84 0 1.68 0 2.54-.07h1.08a.21.21 0 0 1 .24.23 14.35 14.35 0 0 0-.18 1.52c0 .54-.08 1.07-.08 1.6 0 .13-.09.19-.29.19l-.89-.1c-.38 0-1.24-.05-2.59-.05h-1.05c-.27 0-.43.06-.48.19s0 .24 0 .62a3.06 3.06 0 0 0 .1 1c.11.26.54.41 1.27.45h1.46q.52 0 1.56-.09c.69-.06 1.21-.1 1.56-.1.11-.24.19-.12.19.15Z" stroke="#231f20" stroke-width="25" fill="none"/>
                <path d="M228.84 89.82a.75.75 0 0 1-.21.41 6 6 0 0 1-4.86 2.18 6.46 6.46 0 0 1-5-2.12 7.36 7.36 0 0 1-1.88-5.17A7.53 7.53 0 0 1 218.7 80a6.19 6.19 0 0 1 4.88-2.2 6.56 6.56 0 0 1 5 2 .61.61 0 0 1 .2.39 6 6 0 0 1-.69 1.4 8.18 8.18 0 0 1-.87 1.37.28.28 0 0 1-.2.08 2.94 2.94 0 0 1-.49-.4 5.19 5.19 0 0 0-1.06-.75 3.63 3.63 0 0 0-1.63-.4 2.86 2.86 0 0 0-2.34 1.1 3.92 3.92 0 0 0-.8 2.5 4 4 0 0 0 .8 2.54 2.84 2.84 0 0 0 2.34 1.11 3.71 3.71 0 0 0 1.64-.37 5.42 5.42 0 0 0 1-.7 2.92 2.92 0 0 1 .48-.38.27.27 0 0 1 .2.11c.11.12.4.53.87 1.24a7 7 0 0 1 .81 1.18Z" stroke="#231f20" stroke-width="25" fill="none"/>
                <path d="M239.6 81.16c0 .13-.07.2-.22.2s-1.25 0-3-.15q-.06 2.51-.06 3.51c0 .78 0 2 .09 3.53s.1 2.74.1 3.53c0 .12 0 .2-.09.23a.87.87 0 0 1-.28 0 13 13 0 0 1-1.75.08 12.63 12.63 0 0 1-1.8-.08.29.29 0 0 1-.28-.3c0-.79 0-2 .1-3.52s.1-2.74.1-3.52c0-.52 0-1.67-.08-3.46-1.32.13-2.38.19-3.17.19-.11 0-.16 0-.16-.09a6.19 6.19 0 0 1 .14-.77c.11-.46.17-.75.18-.85 0-.31 0-.62.07-.93q.06-.75.24-.75h.14a39.82 39.82 0 0 0 4.76.21c.6 0 1.7-.06 3.3-.19l1.3-.1h.23a.4.4 0 0 1 0 .19v1.49a5.17 5.17 0 0 0 .07.74 6.37 6.37 0 0 1 .07.81Z" stroke="#231f20" stroke-width="25" fill="none"/>
                <g>
                    <path d="m218.26 128-.26-17.06a1 1 0 0 0-.56-.88l-20.8-10a1 1 0 0 0-.62-.25 1.1 1.1 0 0 0-.68.19l-.22.13-20.87 10a1 1 0 0 0-.57.88l-.23 17.08a.8.8 0 0 0 .09.43c9.57 21.1 22.31 25.18 22.31 25.18v-.1c.57-.19 12.95-4.56 22.3-25.18a1 1 0 0 0 .11-.42Z" stroke="#231f20" stroke-width="25" fill="none"/>
                    <path d="m218.26 128-.26-17.06a1 1 0 0 0-.56-.88l-20.8-10a1 1 0 0 0-.62-.25 1.1 1.1 0 0 0-.68.19l-.22.13-20.87 10a1 1 0 0 0-.57.88l-.23 17.08a.8.8 0 0 0 .09.43c9.57 21.1 22.31 25.18 22.31 25.18v-.1c.57-.19 12.95-4.56 22.3-25.18a1 1 0 0 0 .11-.42Z" stroke="#231f20" stroke-width="25" fill="none"/>
                    <path d="M196.12 153.7c2.59-1.18 13.7-7.11 22.21-25.37a1.29 1.29 0 0 0 .13-.58l-.24-16.44a1.31 1.31 0 0 0-.73-1.16l-21-10.43a1.33 1.33 0 0 0-1.15 0l-21.19 10a1.3 1.3 0 0 0-.76 1.18l-.12 17.67a1.34 1.34 0 0 0 .12.56c1.05 2.3 9 18.84 21.61 24.63a1.32 1.32 0 0 0 1.12-.06Z" stroke="#231f20" stroke-width="25" fill="none"/>
                    <path d="M196.12 153.7c2.59-1.18 13.7-7.11 22.21-25.37a1.29 1.29 0 0 0 .13-.58l-.24-16.44a1.31 1.31 0 0 0-.73-1.16l-21-10.43a1.33 1.33 0 0 0-1.15 0l-21.19 10a1.3 1.3 0 0 0-.76 1.18l-.12 17.67a1.34 1.34 0 0 0 .12.56c1.05 2.3 9 18.84 21.61 24.63a1.32 1.32 0 0 0 1.12-.06Z" stroke="#231f20" stroke-width="25" fill="none"/>
                    <path d="M196.15 157.91c2.95-1.34 15.61-8.1 25.3-28.89a1.66 1.66 0 0 0 .14-.66l-.27-18.72a1.47 1.47 0 0 0-.83-1.32l-23.9-11.88a1.48 1.48 0 0 0-1.3 0l-24.14 11.34a1.51 1.51 0 0 0-.86 1.34l-.13 20.13a1.51 1.51 0 0 0 .13.63c1.2 2.62 10.21 21.45 24.62 28a1.49 1.49 0 0 0 1.24.03Z" stroke="#231f20" stroke-width="25" fill="none"/>
                    <path d="M196.15 157.91c2.95-1.34 15.61-8.1 25.3-28.89a1.66 1.66 0 0 0 .14-.66l-.27-18.72a1.47 1.47 0 0 0-.83-1.32l-23.9-11.88a1.48 1.48 0 0 0-1.3 0l-24.14 11.34a1.51 1.51 0 0 0-.86 1.34l-.13 20.13a1.51 1.51 0 0 0 .13.63c1.2 2.62 10.21 21.45 24.62 28a1.49 1.49 0 0 0 1.24.03Z" stroke="#231f20" stroke-width="25" fill="none"/>
                    <path stroke="#231f20" stroke-width="25" fill="none" d="M188.089 118.487c1.375 1.714 1.419 3.964.097 5.025-1.323 1.062-3.51.532-4.886-1.182-1.376-1.714-1.42-3.964-.097-5.025 1.323-1.062 3.51-.532 4.886 1.182z"/>
                    <path stroke="#231f20" stroke-width="25" fill="none" d="M188.089 118.487c1.375 1.714 1.419 3.964.097 5.025-1.323 1.062-3.51.532-4.886-1.182-1.376-1.714-1.42-3.964-.097-5.025 1.323-1.062 3.51-.532 4.886 1.182z"/>
                    <path stroke="#231f20" stroke-width="25" fill="none" d="M194.487 115.408c.562 2.045-.256 4.053-1.827 4.484-1.571.432-3.3-.875-3.862-2.92-.562-2.045.255-4.053 1.826-4.485 1.571-.432 3.3.876 3.863 2.92z"/>
                    <path stroke="#231f20" stroke-width="25" fill="none" d="M194.487 115.408c.562 2.045-.256 4.053-1.827 4.484-1.571.432-3.3-.875-3.862-2.92-.562-2.045.255-4.053 1.826-4.485 1.571-.432 3.3.876 3.863 2.92z"/>
                    <path stroke="#231f20" stroke-width="25" fill="none" d="M198.933 111.774c1.614.228 2.68 2.115 2.383 4.215-.298 2.1-1.846 3.617-3.46 3.389-1.613-.229-2.68-2.116-2.382-4.216.297-2.1 1.846-3.617 3.46-3.388z"/>
                    <path stroke="#231f20" stroke-width="25" fill="none" d="M198.933 111.774c1.614.228 2.68 2.115 2.383 4.215-.298 2.1-1.846 3.617-3.46 3.389-1.613-.229-2.68-2.116-2.382-4.216.297-2.1 1.846-3.617 3.46-3.388z"/>
                    <path stroke="#231f20" stroke-width="25" fill="none" d="M206.004 115.45c1.507.765 1.924 2.97.931 4.925-.992 1.955-3.019 2.92-4.525 2.154-1.507-.765-1.924-2.97-.931-4.925.992-1.955 3.019-2.92 4.525-2.154z"/>
                    <path stroke="#231f20" stroke-width="25" fill="none" d="M206.004 115.45c1.507.765 1.924 2.97.931 4.925-.992 1.955-3.019 2.92-4.525 2.154-1.507-.765-1.924-2.97-.931-4.925.992-1.955 3.019-2.92 4.525-2.154z"/>
                    <path d="M201.12 122.85a6.54 6.54 0 0 0-5.63-2.87c-3 0-5.49 1.72-6.14 4a7 7 0 0 0-3.85 6.38c0 3.81 2.79 6.89 6.23 6.89a6 6 0 0 0 4.55-2.17 5.87 5.87 0 0 0 3.83 1.46c3.45 0 6.24-3.09 6.24-6.9a6.73 6.73 0 0 0-5.23-6.79Z" stroke="#231f20" stroke-width="25" fill="none"/>
                    <path d="M201.12 122.85a6.54 6.54 0 0 0-5.63-2.87c-3 0-5.49 1.72-6.14 4a7 7 0 0 0-3.85 6.38c0 3.81 2.79 6.89 6.23 6.89a6 6 0 0 0 4.55-2.17 5.87 5.87 0 0 0 3.83 1.46c3.45 0 6.24-3.09 6.24-6.9a6.73 6.73 0 0 0-5.23-6.79Z" stroke="#231f20" stroke-width="25" fill="none"/>
                    <path d="M176.59 114.74v-1.63a1.75 1.75 0 0 1 1-1.59l3.36-1.63" stroke="#231f20" stroke-width="25" fill="none"/>
                    <path d="M176.59 114.74v-1.63a1.75 1.75 0 0 1 1-1.59l3.36-1.63" stroke="#231f20" stroke-width="25" fill="none"/>
                    <path stroke="#231f20" stroke-width="25" fill="none" d="M183.68 108.95a.56.56 0 1 1-1.12 0 .56.56 0 0 1 1.12 0z"/>
                    <path stroke="#231f20" stroke-width="25" fill="none" d="M183.68 108.95a.56.56 0 1 1-1.12 0 .56.56 0 0 1 1.12 0z"/>
                    <path d="M206.66 141.45a33 33 0 0 1-4.88 4.7" stroke="#231f20" stroke-width="25" fill="none"/>
                    <path d="M206.66 141.45a33 33 0 0 1-4.88 4.7" stroke="#231f20" stroke-width="25" fill="none"/>
                    <path stroke="#231f20" stroke-width="25" fill="none" d="M199.98 147.9a.56.56 0 1 1-1.12 0 .56.56 0 0 1 1.12 0z"/>
                    <path stroke="#231f20" stroke-width="25" fill="none" d="M199.98 147.9a.56.56 0 1 1-1.12 0 .56.56 0 0 1 1.12 0z"/>
                </g>
                <path d="M195.54 199.48s2.75 0 14.11-6.78l8.61-5.5 8.73-6.31 5-4.09 5.5-4.79 4.79-4.68 6.1-6.54 4.06-4.79 3.71-4.91 3-4.68 2.51-4.67 1.79-3.74 1.32-3.39 1.07-2.92 1.2-4.1 1.08-3.85.59-3.16.48-3.86.48-4.09.12-3.74V104l.12-14.49-.11-20.71.12-23-.12-10.29s-.24-6.08-4.66-9-6.94-2.57-8.61-2a54.15 54.15 0 0 0-5.74 2.92L247.44 29l-3.11 1-2.27.58-3.59.59-4.19.23h-3.34l-4.19-.23-3.47-.59-3.94-1.28-4.34-1.76-4-2.54-2.87-2.22-1.95-1.78-2.63-2.57-2.15-1.76-2.15-1.16-1.68-.59-1.67-.23h-.84l-2.39.58-1.91.94-1.92 1.28-1.67 1.64-1.8 1.75-2.75 2.46-2.63 2-2 1.17-3.59 1.87-3.11 1.17-4.54 1.29-3.35.46-4 .12-6.33-.12-5.5-1.05-3.23-1.17-2.63-1-1.8-.93-2.39-1.41s-3-1.75-5.26-1.51a12.4 12.4 0 0 0-6.7 3 10.74 10.74 0 0 0-3.35 4.8c-.71 1.75-.71 5.37-.83 7.94s0 11.34 0 11.34v55.4l.83 11.22 1.56 8.3s3.94 14.14 9 21 4.54 7.48 12.43 16 12 11.57 12 11.57l7.06 6 5.86 4.2 4.06 2.92 5.74 3.63 5 2.92 4.06 2.22 3.71 1.87 1.67.7a5.44 5.44 0 0 0 1 .24Z" fill="#17479d"/>
                <path d="M196.48 173s2 0 10.15-4.86l6.15-3.91.09-.06 6.2-4.47.08-.06 3.58-2.9 3.91-3.4.08-.08 3.41-3.31 4.38-4.7 2.9-3.39.06-.08 2.59-3.42.09-.12 2.07-3.23.07-.13 1.78-3.29 1.26-2.61a.78.78 0 0 0 0-.14l.92-2.36.76-2a.56.56 0 0 1 0-.12l.84-2.87.75-2.69a.75.75 0 0 0 0-.16l.4-2.12a.5.5 0 0 0 0-.12l.34-2.71.33-2.85a.86.86 0 0 0 0-.16l.09-2.6v-3.52l.08-10.4-.08-14.83.24-16.59-.08-7.37s-.17-4.36-3.36-6.46-5-1.84-6.19-1.42a37.65 37.65 0 0 0-4.06 2l-.15.08-2.25 1-.17.07-2.08.71h-.14l-1.48.38h-.17l-2.4.39h-.2l-2.86.16h-2.51l-2.9-.01h-.2l-2.26-.38-.27-.07-2.6-.82-.13-.05-2.88-1.17a2.1 2.1 0 0 1-.3-.15l-2.7-1.71-.15-.1-1.93-1.49-.12-.1-1.32-1.23-1.83-1.78-.13-.11-1.35-1.11a1.81 1.81 0 0 0-.29-.19l-1.26-.68L199 41l-.88-.3a2.37 2.37 0 0 0-.36-.09l-.89-.12a1.18 1.18 0 0 0-.26 0h-.25a2.3 2.3 0 0 0-.45 0l-1.3.32a1.74 1.74 0 0 0-.38.14l-1.08.52-.22.13-1.13.75a2.75 2.75 0 0 0-.26.22l-1.08 1.05-1.3 1.26-1.92 1.71-.12.1-1.73 1.31-.2.13-1.36.78-2.48 1.29a1 1 0 0 1-.21.09l-2.06.77h-.15l-3.07.87-.25.05-2.18.31h-.2l-2.74.08-4.4-.08a1.73 1.73 0 0 1-.32 0l-3.65-.7a1.38 1.38 0 0 1-.29-.08l-2.18-.78-1.81-.73-.17-.08-1.21-.63-1.72-1a7.82 7.82 0 0 0-3.74-1.05 8.85 8.85 0 0 0-4.82 2.18 7.53 7.53 0 0 0-2.41 3.43c-.52 1.26-.52 3.86-.6 5.7s0 8.13 0 8.13v39.81l.59 7.87a1.52 1.52 0 0 0 0 .21l1.08 5.76v.17c.28 1 3 10.32 6.43 15 3.62 4.95 3.27 5.37 8.95 11.49a77.67 77.67 0 0 0 8.57 8.27l.07.05 5 4.2.11.09 4.16 3 2.88 2.06.09.06 4.09 2.57 3.61 2.1 2.93 1.59 2.6 1.31.13.06 1.06.44.17.06a3 3 0 0 0 .6.14Z" fill="#ffffff"/>
                <path d="M193.7 201.38a2.17 2.17 0 0 0 2.86.5s62.34-27.5 72.17-81.63l1.12-87.48s-1.12-10.58-8.83-9.83c0 0-36.46 20-58.61-6.35 0 0-4.23-6-8.46-3.48" stroke-width="5.71" stroke="#f5821f" stroke-miterlimit="10" fill="none"/>
                <path d="M197.31 201.38a2.18 2.18 0 0 1-2.87.5s-62.34-27.5-72.17-81.63l-1.12-87.48s1.12-10.58 8.84-9.83c0 0 36.46 20 58.6-6.35 0 0 4.24-6 8.47-3.48" stroke-width="5.71" stroke="#f5821f" stroke-miterlimit="10" fill="none"/>
                <path fill="#17479d" d="M198.12 18.74c0 1.684-1.2 3.05-2.68 3.05-1.48 0-2.68-1.366-2.68-3.05 0-1.684 1.2-3.05 2.68-3.05 1.48 0 2.68 1.366 2.68 3.05z"/>
                <path d="M143.1 100v4.68c-.11 12 4.59 44.44 53.57 71.57 0 0 46.79-22.46 52.2-59.86V51.82a3 3 0 0 0-.56-1.44 2.1 2.1 0 0 0-1.9-.76c-.79.13-1.76.27-2.88.41a70.54 70.54 0 0 1-11 .8 67.41 67.41 0 0 1-10.6-.9 57.44 57.44 0 0 1-10.71-2.8c-3.94-1.55-7.69-4.3-11.38-7.07-.6-.45-1.2-.92-1.79-1.4a5.34 5.34 0 0 0-.81-.63 1.89 1.89 0 0 0-.31-.13 3 3 0 0 0-1.81.78c-.61.45-1.39 1-2.32 1.64a66.44 66.44 0 0 1-12.47 7.14 57.52 57.52 0 0 1-9.81 3.15 45.44 45.44 0 0 1-13 .33 40.46 40.46 0 0 1-9.81-2.22l-1.58-.6a1.7 1.7 0 0 0-1.46.24 1.94 1.94 0 0 0-.56 1.06v21" stroke-width="5" stroke="#f5821f" stroke-miterlimit="10" fill="none"/>
                <path fill="#f5821f" d="M147.44 85.36a3.375 3.375 0 0 1-3.38 3.37 3.375 3.375 0 0 1-3.38-3.37 3.375 3.375 0 0 1 3.38-3.37 3.375 3.375 0 0 1 3.38 3.37z"/>
                <path fill="#f5821f" d="M147.22 70.65c0 1.861-1.388 3.37-3.1 3.37-1.712 0-3.1-1.509-3.1-3.37 0-1.861 1.388-3.37 3.1-3.37 1.712 0 3.1 1.509 3.1 3.37z"/>
                <path fill="#f5821f" d="M146.32 99.62c0 1.861-1.415 3.37-3.16 3.37s-3.16-1.509-3.16-3.37c0-1.861 1.415-3.37 3.16-3.37s3.16 1.509 3.16 3.37z"/>
                <g>
                    <g>
                        <path d="M153 67.08h2.15v1.18a3.28 3.28 0 0 1 2.85-1.41c2.06 0 3 1.43 3 3.39v5.5h-2.26v-4.65c0-1.07 0-2.5-1.49-2.49-1.64 0-2 1.79-2 2.9v4.26h-2.26Z" fill="#17479d"/>
                        <path d="M169.85 75.66h-2.15V74.5a3.6 3.6 0 0 1-2.85 1.4c-2.06 0-3-1.43-3-3.39v-5.49h2.26v4.65c0 1.06 0 2.5 1.49 2.49 1.64 0 2-1.79 2-2.9V67h2.26Z" fill="#17479d"/>
                        <path d="M171.48 68.6h-1.68V67h1.67v-1.79l2.26-.75v2.47h2v1.66h-2v4c0 .75.21 1.44 1.08 1.43a2.06 2.06 0 0 0 1-.24l.08 1.79a5.83 5.83 0 0 1-1.68.21 2.55 2.55 0 0 1-2.77-2.8Z" fill="#17479d"/>
                        <path d="M176.5 66.91h2v2a2.67 2.67 0 0 1 2.37-2.2 2.38 2.38 0 0 1 .69.07v2.28a2.33 2.33 0 0 0-1-.18c-1.84 0-1.82 2.31-1.81 3.56v3.2h-2.26Z" fill="#17479d"/>
                        <path d="M182.12 63.12h2.27v2.16h-2.26Zm0 3.75h2.26l.07 8.7h-2.27Z" fill="#17479d"/>
                    </g>
                    <g>
                        <path d="m194.94 72.18 1.46 1.24a.38.38 0 0 1 .11.26.35.35 0 0 1-.11.28 5.13 5.13 0 0 1-3.73 1.56 4.56 4.56 0 0 1-3.81-1.64 6.14 6.14 0 0 1 0-6.79 4.54 4.54 0 0 1 3.85-1.63 5.12 5.12 0 0 1 3.26 1.16.37.37 0 0 1 .07.53l-1.2 1.38a.35.35 0 0 1-.24.12.41.41 0 0 1-.26-.07 2.29 2.29 0 0 0-1.35-.43 2.4 2.4 0 0 0-.85.14 1.33 1.33 0 0 0-.56.34 1.58 1.58 0 0 0-.32.54 2.54 2.54 0 0 0-.15.62 4.81 4.81 0 0 0 0 .7 4.75 4.75 0 0 0 0 .69 2.61 2.61 0 0 0 .15.63 1.61 1.61 0 0 0 .31.53 1.31 1.31 0 0 0 .55.35 2.41 2.41 0 0 0 .85.13 2 2 0 0 0 1.48-.62.41.41 0 0 1 .26-.11.35.35 0 0 1 .23.09Z" fill="#f48120"/>
                        <path d="M191.41 75.74a4.54 4.54 0 0 1-2.81-1.65 6.47 6.47 0 0 1 0-7.2 4.87 4.87 0 0 1 4.11-1.76 5.45 5.45 0 0 1 3.46 1.22.69.69 0 0 1 .28.48.66.66 0 0 1-.16.54l-1.2 1.38a.73.73 0 0 1-.46.23.84.84 0 0 1-.48-.12 1.81 1.81 0 0 0-1.16-.37 2 2 0 0 0-.74.11 1.17 1.17 0 0 0-.43.26 1.42 1.42 0 0 0-.25.42 2.55 2.55 0 0 0-.13.55 6.12 6.12 0 0 0 0 .66 6.25 6.25 0 0 0 0 .66 2.34 2.34 0 0 0 .13.54 1.35 1.35 0 0 0 .25.43 1 1 0 0 0 .42.26l.27.07a2.19 2.19 0 0 0 .46 0 1.69 1.69 0 0 0 1.25-.52.71.71 0 0 1 .48-.21.67.67 0 0 1 .49.17l1.45 1.24a.67.67 0 0 1 .21.48.65.65 0 0 1-.21.52 5.44 5.44 0 0 1-4 1.66 6.36 6.36 0 0 1-1.23-.05Zm2.18-9.86a6.68 6.68 0 0 0-.91-.09 4.26 4.26 0 0 0-3.59 1.5 5.12 5.12 0 0 0-.94 3.19 5 5 0 0 0 1 3.2 3.8 3.8 0 0 0 2.41 1.41 5.82 5.82 0 0 0 1.13.09 4.69 4.69 0 0 0 3.49-1.46l-1.45-1.24v-.34.33a2.36 2.36 0 0 1-1.72.72 3.61 3.61 0 0 1-.59 0A2.38 2.38 0 0 1 192 73a1.66 1.66 0 0 1-.68-.43 1.94 1.94 0 0 1-.37-.65 3.14 3.14 0 0 1-.18-.7v-.73a5.31 5.31 0 0 1 0-.74 2.84 2.84 0 0 1 .17-.7A1.69 1.69 0 0 1 192 68a2.82 2.82 0 0 1 1-.15 2.58 2.58 0 0 1 1.55.49l1.22-1.39a4.79 4.79 0 0 0-2.18-1.07Z" fill="#ffffff"/>
                        <path d="M199.81 69.45h2.38v-3.4a.36.36 0 0 1 .11-.26.34.34 0 0 1 .25-.11c.77 0 1.54.06 2.32.13.24 0 .37.22.4.62a75.12 75.12 0 0 1 0 8.75h-.08l-.08.06h-.1a.2.2 0 0 1-.11 0c-.78.06-1.55.09-2.32.12a.34.34 0 0 1-.25-.11.36.36 0 0 1-.11-.26c0-1.06 0-2.12.05-3.19h-2.38v3.19a.36.36 0 0 1-.11.26.36.36 0 0 1-.25.11q-1.17 0-2.31-.12a.35.35 0 0 1-.19-.06l-.14-.08h-.06a80 80 0 0 1 0-8.76c0-.4.16-.6.41-.62q1.15-.09 2.31-.12a.36.36 0 0 1 .25.11.35.35 0 0 1 .1.26c-.08 1.22-.08 2.35-.09 3.48Z" fill="#f48120"/>
                        <path d="M197.05 75.66a.92.92 0 0 1-.23-.09.74.74 0 0 1-.13-.08.33.33 0 0 1-.24-.3 83.13 83.13 0 0 1 0-8.79c.06-.77.48-.92.72-.93.77-.06 1.55-.1 2.33-.12h.13a.63.63 0 0 1 .36.19.69.69 0 0 1 .21.5v3.06h1.7v-3a.73.73 0 0 1 .2-.51.71.71 0 0 1 .49-.2c.79 0 1.57.06 2.35.12.28 0 .65.19.7.94a75.81 75.81 0 0 1 0 8.79.33.33 0 0 1-.23.3h-.08a.51.51 0 0 1-.18.09h-.21c-.77 0-1.55.09-2.32.11h-.14a.69.69 0 0 1-.56-.69V72.2h-1.7v2.84a.69.69 0 0 1-.21.51.68.68 0 0 1-.49.2l-2.32-.12Zm.06-.69c.77.06 1.54.1 2.3.12V71.9a.33.33 0 0 1 .1-.23.29.29 0 0 1 .23-.1h2.38a.33.33 0 0 1 .23.1.31.31 0 0 1 .1.24v3.18c.77 0 1.55-.06 2.32-.11a75.85 75.85 0 0 0 0-8.53c0-.25-.08-.31-.08-.31-.78-.06-1.55-.11-2.32-.12v3.4a.33.33 0 0 1-.1.24.34.34 0 0 1-.24.09h-2.36a.31.31 0 0 1-.24-.1.33.33 0 0 1-.1-.23v-3.4c-.77 0-1.54 0-2.3.11-.06 0-.09.2-.1.31a78.3 78.3 0 0 0 .18 8.56Z" fill="#ffffff"/>
                        <path d="M208.92 72a.71.71 0 0 0 .22.57.83.83 0 0 0 .59.2.85.85 0 0 0 .59-.2.74.74 0 0 0 .23-.56v-6a.4.4 0 0 1 .11-.27.32.32 0 0 1 .26-.1q1.15 0 2.31.12a.46.46 0 0 1 .26.13.42.42 0 0 1 .12.27c.11 2 .14 4 .09 6.08a3 3 0 0 1-1.27 2.44 4.29 4.29 0 0 1-2.69.86 4.22 4.22 0 0 1-2.67-.87 3 3 0 0 1-1.26-2.44c0-2 0-4 .1-6.08a.47.47 0 0 1 .12-.27.45.45 0 0 1 .26-.12q1.17-.09 2.31-.12a.31.31 0 0 1 .27.1.39.39 0 0 1 .1.27q-.07 2.99-.05 5.99Z" fill="#f48120"/>
                        <path d="M208.75 75.8a4.64 4.64 0 0 1-1.91-.85 3.34 3.34 0 0 1-1.38-2.7c-.05-2 0-4.07.09-6.1a.78.78 0 0 1 .23-.49.71.71 0 0 1 .46-.22c.78-.07 1.57-.11 2.33-.12a.5.5 0 0 1 .17 0 .64.64 0 0 1 .35.19.71.71 0 0 1 .19.5v6a.41.41 0 0 0 .11.32.45.45 0 0 0 .23.11h.14a.55.55 0 0 0 .37-.12.39.39 0 0 0 .12-.31v-6a.76.76 0 0 1 .19-.51.69.69 0 0 1 .53-.2c.76 0 1.54.06 2.32.12h.07a.7.7 0 0 1 .39.22.75.75 0 0 1 .23.47c.1 2 .13 4.1.08 6.12a3.34 3.34 0 0 1-1.4 2.69 4.59 4.59 0 0 1-2.89.93 6.14 6.14 0 0 1-1.02-.05Zm-.15-9.8c-.77 0-1.54.06-2.3.12h-.05a.09.09 0 0 0 0 .06c-.11 2-.14 4-.1 6a2.72 2.72 0 0 0 1.13 2.19 4.27 4.27 0 0 0 4.95 0 2.67 2.67 0 0 0 1.15-2.18c0-2 0-4-.09-6-.77-.07-1.54-.11-2.3-.12v6a1.06 1.06 0 0 1-.34.81 1.2 1.2 0 0 1-.81.29 1.09 1.09 0 0 1-.26 0 1.12 1.12 0 0 1-.55-.26 1 1 0 0 1-.33-.82v-6a.05.05 0 0 0-.1-.09Z" fill="#ffffff"/>
                        <path d="M220.18 70.4c0-1.44 0-2.89-.05-4.33a.39.39 0 0 1 .1-.27.33.33 0 0 1 .27-.1c.77 0 1.54.06 2.31.11a.43.43 0 0 1 .26.13.47.47 0 0 1 .12.27 71 71 0 0 1 0 8.75.4.4 0 0 1 0 .15.47.47 0 0 1-.09.12.36.36 0 0 1-.12.08.48.48 0 0 1-.14 0c-.83 0-1.66.09-2.48.1a.3.3 0 0 1-.31-.16c-.62-1-1.55-2.45-2.77-4.32v4.11a.35.35 0 0 1-.11.26.34.34 0 0 1-.25.11c-.77 0-1.54-.06-2.31-.11a.43.43 0 0 1-.27-.13.42.42 0 0 1-.12-.27 71 71 0 0 1 0-8.75.42.42 0 0 1 .12-.27.43.43 0 0 1 .27-.13c.76 0 1.52-.08 2.28-.1a.29.29 0 0 1 .3.16c.66 1.07 1.65 2.59 2.99 4.59Z" fill="#f48120"/>
                        <path d="M214.51 75.67a.72.72 0 0 1-.41-.22.75.75 0 0 1-.21-.47 71.77 71.77 0 0 1 0-8.8.82.82 0 0 1 .22-.48.8.8 0 0 1 .49-.23c.76 0 1.54-.09 2.3-.1a.3.3 0 0 1 .16 0 .58.58 0 0 1 .42.31c.55.86 1.34 2.07 2.36 3.6v-3.21a.68.68 0 0 1 .19-.51.64.64 0 0 1 .54-.2c.76 0 1.54 0 2.3.11h.07a.71.71 0 0 1 .41.23.7.7 0 0 1 .21.46 73.65 73.65 0 0 1 0 8.79.68.68 0 0 1-.22.49.73.73 0 0 1-.23.16l-.2.07h-.05c-.83 0-1.66.09-2.5.11h-.16a.64.64 0 0 1-.43-.31c-.52-.83-1.22-1.94-2.15-3.37v3a.69.69 0 0 1-.2.51.71.71 0 0 1-.49.2c-.8 0-1.58-.06-2.33-.11Zm2.4-9.64c-.75 0-1.51 0-2.26.1h-.06a.11.11 0 0 0 0 .07 72.15 72.15 0 0 0 0 8.7.09.09 0 0 0 0 .06l2.29.11v-4.11a.33.33 0 0 1 .24-.32.32.32 0 0 1 .37.14c1.24 1.91 2.15 3.32 2.78 4.33.81 0 1.63 0 2.44-.1h.05a72.65 72.65 0 0 0 0-8.73v-.06c0-.06 0 0 0 0-.74 0-1.51-.09-2.29-.11v4.33a.33.33 0 0 1-.24.31.32.32 0 0 1-.37-.13c-1.33-2-2.33-3.52-3-4.54Z" fill="#ffffff"/>
                        <path d="M231.87 74.77a.41.41 0 0 1 0 .37.42.42 0 0 1-.33.2l-2.27.12a.33.33 0 0 1-.32-.19c-.45-.74-1-1.58-1.59-2.51a3.57 3.57 0 0 1-.39-.84v3.17a.33.33 0 0 1-.11.26.35.35 0 0 1-.26.11c-.77 0-1.54-.06-2.31-.13a.39.39 0 0 1-.26-.12.47.47 0 0 1-.12-.27 77.57 77.57 0 0 1 0-8.76.42.42 0 0 1 .12-.26.42.42 0 0 1 .26-.14c.77 0 1.54-.09 2.31-.11a.34.34 0 0 1 .26.1.35.35 0 0 1 .14.23v3.73a3 3 0 0 1 .2-.49c.69-1.41 1.24-2.55 1.66-3.44a.36.36 0 0 1 .32-.17q1.13 0 2.25.12a.4.4 0 0 1 .34.21.32.32 0 0 1 0 .36q-.71 1.55-2.31 4.81Z" fill="#f48120"/>
                        <path d="M224.18 75.66a.7.7 0 0 1-.39-.22.72.72 0 0 1-.22-.48 80.73 80.73 0 0 1 0-8.8.77.77 0 0 1 .22-.47.74.74 0 0 1 .47-.24c.77 0 1.55-.09 2.33-.11h.15a.63.63 0 0 1 .36.19.7.7 0 0 1 .2.5v2.2c.48-1 .89-1.84 1.22-2.54a.66.66 0 0 1 .6-.33q1.15 0 2.28.12h.1a.74.74 0 0 1 .5.36.66.66 0 0 1 0 .69c-.46 1-1.21 2.56-2.22 4.63l2.35 3.43a.68.68 0 0 1 0 .67.69.69 0 0 1-.59.37c-.74.06-1.51.1-2.28.12h-.15a.66.66 0 0 1-.47-.34c-.39-.64-.84-1.36-1.36-2.16v1.8a.73.73 0 0 1-.2.51.7.7 0 0 1-.5.2q-1.18 0-2.34-.12Zm.13-9.54a.08.08 0 0 0 0 .06 79.09 79.09 0 0 0 0 8.71c.75.06 1.52.11 2.29.12v-3.16a.33.33 0 0 1 .29-.33.32.32 0 0 1 .36.22 3.11 3.11 0 0 0 .37.78c.6.93 1.14 1.78 1.59 2.51.75 0 1.51-.07 2.25-.12h.06c.06 0 0 0 0 0l-2.44-3.56a.3.3 0 0 1 0-.33c1.06-2.16 1.83-3.77 2.31-4.81s-.05 0-.07 0q-1.12-.09-2.25-.12c-.42.89-1 2-1.65 3.41a4.22 4.22 0 0 0-.18.45.35.35 0 0 1-.37.23.34.34 0 0 1-.28-.33v-3.74c-.79 0-1.56.06-2.32.11Z" fill="#ffffff"/>
                        <path d="M236.47 69.23a4.07 4.07 0 0 1 2.35 1.09 2.61 2.61 0 0 1 .75 2 3.06 3.06 0 0 1-1.08 2.24 4.35 4.35 0 0 1-3 1 6.18 6.18 0 0 1-3.49-1.24.38.38 0 0 1-.16-.42c.16-.48.34-1 .52-1.54a.34.34 0 0 1 .22-.22.42.42 0 0 1 .33 0c.14.08.36.22.66.43a7.35 7.35 0 0 0 .78.46 1.41 1.41 0 0 0 .64.16q1.11 0 1.11-.57c0-.37-.41-.62-1.23-.76a3.81 3.81 0 0 1-2.21-1.06 2.71 2.71 0 0 1-.72-2 3.15 3.15 0 0 1 .94-2.16 3.53 3.53 0 0 1 2.57-1.06 6.45 6.45 0 0 1 3.4.84.41.41 0 0 1 .18.19.39.39 0 0 1 0 .26c-.07.48-.16 1-.25 1.49a.36.36 0 0 1-.21.21.42.42 0 0 1-.31 0 5.73 5.73 0 0 0-2.36-.67.72.72 0 0 0-.47.16.48.48 0 0 0-.2.38.54.54 0 0 0 .28.48 2.5 2.5 0 0 0 .96.31Z" fill="#f48120"/>
                        <path d="M234.57 75.81a6.89 6.89 0 0 1-2.74-1.22.7.7 0 0 1-.29-.78c.16-.49.34-1 .52-1.54a.65.65 0 0 1 .43-.44.73.73 0 0 1 .58 0c.17.09.39.24.71.45a5.9 5.9 0 0 0 .74.44 1.2 1.2 0 0 0 .49.13c.55 0 .71-.11.75-.15a.11.11 0 0 0 0-.09c0-.12-.22-.29-.84-.41h-.2a4.12 4.12 0 0 1-2.31-1.15 3.08 3.08 0 0 1-.81-2.23 3.5 3.5 0 0 1 1-2.38 3.87 3.87 0 0 1 2.8-1.16 6.89 6.89 0 0 1 3.58.88.71.71 0 0 1 .31.35.73.73 0 0 1 0 .46c-.07.47-.16 1-.26 1.48a.67.67 0 0 1-.4.42.73.73 0 0 1-.56 0 5.64 5.64 0 0 0-2.23-.64.41.41 0 0 0-.26.09c-.07.06-.07.09-.07.13s0 .11.12.19a2.19 2.19 0 0 0 .66.21h.35a4.26 4.26 0 0 1 2.32 1.15 2.91 2.91 0 0 1 .85 2.2 3.37 3.37 0 0 1-1.18 2.48 4.63 4.63 0 0 1-3.22 1.13 4.88 4.88 0 0 1-.84 0Zm-1.82-3.36-.57 1.55v.06a5.86 5.86 0 0 0 3.28 1.18 4 4 0 0 0 2.77-1 2.69 2.69 0 0 0 1-2 2.27 2.27 0 0 0-.66-1.72 3.73 3.73 0 0 0-2.16-1h-.16a2.28 2.28 0 0 1-.91-.31.88.88 0 0 1-.42-.75.79.79 0 0 1 .33-.64 1.07 1.07 0 0 1 .67-.23 6 6 0 0 1 2.5.7c.1-.51.18-1 .25-1.45a6.28 6.28 0 0 0-3.24-.8 3.15 3.15 0 0 0-2.33 1 2.84 2.84 0 0 0-.85 1.94 2.36 2.36 0 0 0 .64 1.75 3.42 3.42 0 0 0 1.94 1h.2c.92.17 1.39.53 1.38 1.06a.79.79 0 0 1-.23.57 1.65 1.65 0 0 1-1.22.33 1.75 1.75 0 0 1-.77-.19 6.09 6.09 0 0 1-.83-.49c-.3-.2-.51-.34-.64-.41Z" fill="#ffffff"/>
                    </g>
                    <path d="M165.35 83.43a5.78 5.78 0 0 1-1.27 3.9 4.62 4.62 0 0 1-3.73 1.58h-1.19c-.53 0-.94-.05-1.2-.05s-.43.13-.43.37 0 .76.09 1.36.09 1.06.09 1.35-.07.23-.21.23h-3.64c-.19 0-.29-.09-.29-.28v-6.64q0-3.12-.26-6.56v-.14c0-.12.08-.2.29-.23.52-.06 1.66-.1 3.42-.1h3a5.44 5.44 0 0 1 3.8 1.49 5.08 5.08 0 0 1 1.53 3.72Zm-4 .16a2 2 0 0 0-2.26-2.31c-1.06 0-1.62.06-1.67.17a17.59 17.59 0 0 0-.07 2.3v1.82c0 .2.6.2 1.79.2a1.92 1.92 0 0 0 2.24-2.18Z" fill="#1a7138"/>
                    <path d="M178.56 92c0 .05-.07.08-.2.1a17 17 0 0 1-1.9.06 16.76 16.76 0 0 1-1.77-.06.82.82 0 0 1-.25 0s-.08-.08-.13-.19l-.44-1.16c-.26-.66-.67-1.64-1.22-2.93-.11-.26-.39-.4-.82-.43h-1q-.15 0-.15.51c0 .45 0 1.12.12 2s.12 1.56.12 2c0 .11 0 .17-.09.19h-2.1a13 13 0 0 1-1.71-.06c-.2 0-.29-.14-.29-.3 0-.73 0-1.83.1-3.31s.11-2.57.11-3.31c0-2.8-.07-5-.19-6.56v-.14c0-.11.1-.19.31-.23s1.23-.08 3-.12h2.93a6.23 6.23 0 0 1 3.7 1 3.84 3.84 0 0 1 1.62 3.33 5.38 5.38 0 0 1-.42 2.32 4.73 4.73 0 0 1-1.54 1.68c-.15.1-.23.2-.23.29s.41.83 1.22 2.5a17.85 17.85 0 0 1 1.22 2.82Zm-4.18-8.91a1.78 1.78 0 0 0-.79-1.68 4 4 0 0 0-1.93-.36c-.63 0-1 .09-1 .29a16.93 16.93 0 0 0-.06 1.94v1.35c0 .15.1.06.31.1a8.77 8.77 0 0 0 1.28.09c1.47-.04 2.19-.62 2.19-1.77Z" fill="#1a7138"/>
                    <path d="M193.5 85.1a7.27 7.27 0 0 1-2 5.2 7.16 7.16 0 0 1-10.21 0 7.2 7.2 0 0 1-2-5.18 7.28 7.28 0 0 1 2-5.2 7.11 7.11 0 0 1 10.19 0 7.34 7.34 0 0 1 2.02 5.18Zm-3.77 0a3.74 3.74 0 0 0-.91-2.53 3.12 3.12 0 0 0-4.79 0 3.93 3.93 0 0 0-.06 5 3.07 3.07 0 0 0 2.44 1.06 3 3 0 0 0 2.38-1.12 3.67 3.67 0 0 0 .94-2.43Z" fill="#1a7138"/>
                    <path d="M204.66 81.16c0 .13-.07.2-.22.2s-1.25 0-3-.15q-.06 2.51-.06 3.51c0 .78 0 2 .09 3.53s.1 2.74.1 3.53c0 .12 0 .2-.09.23a.87.87 0 0 1-.28 0 13 13 0 0 1-1.75.08 12.63 12.63 0 0 1-1.8-.08.29.29 0 0 1-.28-.3c0-.79 0-2 .1-3.52s.1-2.74.1-3.52c0-.52 0-1.67-.08-3.46-1.32.13-2.38.19-3.17.19-.11 0-.16 0-.16-.09a6.19 6.19 0 0 1 .14-.77c.11-.46.17-.75.18-.85 0-.31 0-.62.07-.93q.08-.75.24-.75h.14a39.82 39.82 0 0 0 4.76.21c.6 0 1.7-.06 3.3-.19l1.3-.1h.23a.4.4 0 0 1 0 .19v1.49a5.17 5.17 0 0 0 .07.74 6.37 6.37 0 0 1 .07.81Z" fill="#1a7138"/>
                    <path d="M215.91 89a13.43 13.43 0 0 1-.17 1.57 6 6 0 0 1-.32 1.48.37.37 0 0 1-.33.19h-.3c-.48-.06-1.89-.1-4.23-.1H206c-.22 0-.32-.09-.32-.28 0-.75 0-1.86.12-3.35s.12-2.6.12-3.35 0-2.16-.12-4.22c0-.53-.05-1.32-.1-2.38v-.14c0-.15.07-.23.24-.23h8.8q.52 0 .6.39c0 .15.08.62.15 1.39s.11 1.24.11 1.41a.18.18 0 0 1-.2.2h-.21a60.61 60.61 0 0 0-4.75-.21c-.35 0-.57.08-.65.24a3.35 3.35 0 0 0 0 .77 1.39 1.39 0 0 0 .2.89.84.84 0 0 0 .65.19h.83c.84 0 1.68 0 2.54-.07h1.08a.21.21 0 0 1 .24.23 14.35 14.35 0 0 0-.18 1.52c0 .54-.08 1.07-.08 1.6 0 .13-.09.19-.29.19l-.89-.1c-.38 0-1.24-.05-2.59-.05h-1.05c-.27 0-.43.06-.48.19s0 .24 0 .62a3.06 3.06 0 0 0 .1 1c.11.26.54.41 1.27.45h1.46q.52 0 1.56-.09c.69-.06 1.21-.1 1.56-.1.11-.24.19-.12.19.15Z" fill="#1a7138"/>
                    <path d="M228.84 89.82a.75.75 0 0 1-.21.41 6 6 0 0 1-4.86 2.18 6.46 6.46 0 0 1-5-2.12 7.36 7.36 0 0 1-1.88-5.17A7.53 7.53 0 0 1 218.7 80a6.19 6.19 0 0 1 4.88-2.2 6.56 6.56 0 0 1 5 2 .61.61 0 0 1 .2.39 6 6 0 0 1-.69 1.4 8.18 8.18 0 0 1-.87 1.37.28.28 0 0 1-.2.08 2.94 2.94 0 0 1-.49-.4 5.19 5.19 0 0 0-1.06-.75 3.63 3.63 0 0 0-1.63-.4 2.86 2.86 0 0 0-2.34 1.1 3.92 3.92 0 0 0-.8 2.5 4 4 0 0 0 .8 2.54 2.84 2.84 0 0 0 2.34 1.11 3.71 3.71 0 0 0 1.64-.37 5.42 5.42 0 0 0 1-.7 2.92 2.92 0 0 1 .48-.38.27.27 0 0 1 .2.11c.11.12.4.53.87 1.24a7 7 0 0 1 .81 1.18Z" fill="#1a7138"/>
                    <path d="M239.6 81.16c0 .13-.07.2-.22.2s-1.25 0-3-.15q-.06 2.51-.06 3.51c0 .78 0 2 .09 3.53s.1 2.74.1 3.53c0 .12 0 .2-.09.23a.87.87 0 0 1-.28 0 13 13 0 0 1-1.75.08 12.63 12.63 0 0 1-1.8-.08.29.29 0 0 1-.28-.3c0-.79 0-2 .1-3.52s.1-2.74.1-3.52c0-.52 0-1.67-.08-3.46-1.32.13-2.38.19-3.17.19-.11 0-.16 0-.16-.09a6.19 6.19 0 0 1 .14-.77c.11-.46.17-.75.18-.85 0-.31 0-.62.07-.93q.06-.75.24-.75h.14a39.82 39.82 0 0 0 4.76.21c.6 0 1.7-.06 3.3-.19l1.3-.1h.23a.4.4 0 0 1 0 .19v1.49a5.17 5.17 0 0 0 .07.74 6.37 6.37 0 0 1 .07.81Z" fill="#1a7138"/>
                </g>
                <g>
                    <path d="m218.26 128-.26-17.06a1 1 0 0 0-.56-.88l-20.8-10a1 1 0 0 0-.62-.25 1.1 1.1 0 0 0-.68.19l-.22.13-20.87 10a1 1 0 0 0-.57.88l-.23 17.08a.8.8 0 0 0 .09.43c9.57 21.1 22.31 25.18 22.31 25.18v-.1c.57-.19 12.95-4.56 22.3-25.18a1 1 0 0 0 .11-.42Z" fill="#f5811e"/>
                    <path d="M196.12 153.7c2.59-1.18 13.7-7.11 22.21-25.37a1.29 1.29 0 0 0 .13-.58l-.24-16.44a1.31 1.31 0 0 0-.73-1.16l-21-10.43a1.33 1.33 0 0 0-1.15 0l-21.19 10a1.3 1.3 0 0 0-.76 1.18l-.12 17.67a1.34 1.34 0 0 0 .12.56c1.05 2.3 9 18.84 21.61 24.63a1.32 1.32 0 0 0 1.12-.06Z" stroke="#17479d" stroke-width="1.07" stroke-miterlimit="10" fill="none"/>
                    <path d="M196.15 157.91c2.95-1.34 15.61-8.1 25.3-28.89a1.66 1.66 0 0 0 .14-.66l-.27-18.72a1.47 1.47 0 0 0-.83-1.32l-23.9-11.88a1.48 1.48 0 0 0-1.3 0l-24.14 11.34a1.51 1.51 0 0 0-.86 1.34l-.13 20.13a1.51 1.51 0 0 0 .13.63c1.2 2.62 10.21 21.45 24.62 28a1.49 1.49 0 0 0 1.24.03Z" stroke="#17479d" stroke-width="1.07" stroke-miterlimit="10" fill="none"/>
                    <path fill="#ffffff" d="M188.089 118.487c1.375 1.714 1.42 3.964.097 5.025-1.323 1.062-3.51.532-4.886-1.182s-1.42-3.964-.097-5.025c1.323-1.062 3.51-.532 4.886 1.182z"/>
                    <path fill="#ffffff" d="M194.487 115.408c.562 2.044-.255 4.052-1.827 4.484-1.572.432-3.3-.876-3.862-2.92s.255-4.053 1.826-4.485c1.572-.432 3.3.877 3.863 2.92z"/>
                    <path fill="#ffffff" d="M198.933 111.774c1.614.228 2.68 2.116 2.383 4.215s-1.846 3.617-3.46 3.389c-1.613-.229-2.68-2.117-2.382-4.216s1.845-3.617 3.46-3.388z"/>
                    <path fill="#ffffff" d="M206.004 115.45c1.507.765 1.924 2.97.931 4.925-.992 1.955-3.019 2.92-4.525 2.154s-1.924-2.97-.931-4.925c.992-1.955 3.019-2.92 4.525-2.154z"/>
                    <path d="M201.12 122.85a6.54 6.54 0 0 0-5.63-2.87c-3 0-5.49 1.72-6.14 4a7 7 0 0 0-3.85 6.38c0 3.81 2.79 6.89 6.23 6.89a6 6 0 0 0 4.55-2.17 5.87 5.87 0 0 0 3.83 1.46c3.45 0 6.24-3.09 6.24-6.9a6.73 6.73 0 0 0-5.23-6.79Z" fill="#ffffff"/>
                    <path d="M176.59 114.74v-1.63a1.75 1.75 0 0 1 1-1.59l3.36-1.63" stroke-linecap="round" stroke="#17479d" stroke-width="1.07" stroke-miterlimit="10" fill="none"/>
                    <path fill="#17479d" d="M183.68 108.95a.56.56 0 1 1-1.12 0 .56.56 0 0 1 1.12 0z"/>
                    <path d="M206.66 141.45a33 33 0 0 1-4.88 4.7" fill="#17479d"/>
                    <path d="M206.66 141.45a33 33 0 0 1-4.88 4.7" stroke-linecap="round" stroke="#17479d" stroke-width="1.07" stroke-miterlimit="10" fill="none"/>
                    <path fill="#17479d" d="M199.98 147.9a.56.56 0 1 1-1.12 0 .56.56 0 0 1 1.12 0z"/>
                </g>
                <text transform="translate(119.09 420.77)" font-size="57.45" font-family="Quicksand-Bold,Quicksand" font-weight="700">TRIO</text>
                <text transform="translate(113.94 518.95)" font-size="57.45" font-family="Quicksand-Bold,Quicksand" font-weight="700">P<tspan y="0" x="33.5" letter-spacing="-.02em">L</tspan><tspan y="0" x="64.69">US</tspan></text>
                <text transform="translate(127.16 606.28)" font-size="57.45" font-family="Quicksand-Bold,Quicksand" font-weight="700"><tspan letter-spacing="-.06em">M</tspan><tspan y="0" x="44.76">AX</tspan></text>
                <text transform="translate(475.11 420.77)" letter-spacing=".04em" font-size="57.45" fill="#17479d" font-family="Quicksand-Bold,Quicksand" font-weight="700">3</text>
                <text transform="translate(474.19 518.95)" letter-spacing=".04em" font-size="57.45" fill="#17479d" font-family="Quicksand-Bold,Quicksand" font-weight="700">6</text>
                <text transform="translate(464.92 606.28)" letter-spacing=".04em" font-size="57.45" fill="#17479d" font-family="Quicksand-Bold,Quicksand" font-weight="700">12</text>
                <text transform="translate(706.74 420.77)" letter-spacing=".04em" font-size="57.45" font-family="Quicksand-Bold,Quicksand" font-weight="700" fill="#5681c2">0</text>
                <text transform="translate(706.74 518.95)" letter-spacing=".04em" font-size="57.45" font-family="Quicksand-Bold,Quicksand" font-weight="700" fill="#5681c2">0</text>
                <text transform="translate(717.51 606.28)" letter-spacing=".04em" font-size="57.45" fill="#17479d" font-family="Quicksand-Bold,Quicksand" font-weight="700">1</text>
                <text transform="translate(940.09 420.77)" letter-spacing=".04em" font-size="57.45" font-family="Quicksand-Bold,Quicksand" font-weight="700" fill="#5681c2">0</text>
                <text transform="translate(950.86 518.95)" letter-spacing=".04em" font-size="57.45" fill="#17479d" font-family="Quicksand-Bold,Quicksand" font-weight="700">1</text>
                <text transform="translate(943.54 606.28)" letter-spacing=".04em" font-size="57.45" fill="#17479d" font-family="Quicksand-Bold,Quicksand" font-weight="700">2</text>
                <text transform="translate(1165.09 420.77)" letter-spacing=".04em" font-size="57.45" font-family="Quicksand-Bold,Quicksand" font-weight="700" fill="#5681c2">0</text>
                <text transform="translate(1175.86 518.95)" letter-spacing=".04em" font-size="57.45" fill="#17479d" font-family="Quicksand-Bold,Quicksand" font-weight="700">1</text>
                <text transform="translate(1168.54 606.28)" letter-spacing=".04em" font-size="57.45" fill="#17479d" font-family="Quicksand-Bold,Quicksand" font-weight="700">2</text>
                <text transform="translate(659.05 267.32)" font-size="27.99" font-family="Quicksand-Bold,Quicksand" font-weight="700" fill="#ffffff"><tspan letter-spacing="-.07em">V</tspan><tspan y="0" x="19.03">a</tspan><tspan y="0" x="36.36" letter-spacing="-.02em">c</tspan><tspan y="0" x="51.92">cination</tspan><tspan y="24.95" x="-8.62">(Anti-Rabie</tspan><tspan y="24.95" x="147.33" letter-spacing="-.02em">s</tspan><tspan y="24.95" x="160.54">)</tspan></text>
                <text transform="translate(446.89 235.08)" font-size="27.99" font-family="Quicksand-Bold,Quicksand" font-weight="700" fill="#ffffff">(Mon<tspan y="0" x="70.31" letter-spacing="-.02em">t</tspan><tspan y="0" x="80.94">h</tspan><tspan y="0" x="98.1" letter-spacing="-.02em">s</tspan><tspan y="0" x="111.31">)</tspan></text>
                <text transform="translate(876.48 155.91)" font-size="27.99" font-family="Quicksand-Bold,Quicksand" font-weight="700" fill="#ffffff">(F<tspan y="0" x="28.97" letter-spacing="-.05em">r</tspan><tspan y="0" x="39.86">equen</tspan><tspan y="0" x="126.73" letter-spacing="0">c</tspan><tspan y="0" x="142.57" letter-spacing="0">y)</tspan></text>
            </g>
        </g>
    </g>
</svg>
