<?xml version="1.0" encoding="UTF-8"?>
<svg data-bbox="-0.021 -0.285 1447.989 1005.285" viewBox="0 0 1448 1005" xmlns="http://www.w3.org/2000/svg" data-type="ugc">
    <g>
        <g>
            <path opacity=".39" fill="#1c1c1c" d="M1424 957c0 26.51-307.357 48-686.5 48S51 983.51 51 957s307.357-48 686.5-48 686.5 21.49 686.5 48z"/>
            <path d="M547.12 344.24c-20.1-16.4-25.66 8.48-33 22.21-2-65.68-43.16-117.46-83.4-156.38C475.19 153.9 482.59 133 415 91.23c-54.31-38.49-76.15 11-97.46 50-120.6-13.38-128.75 50.22-148.74 49.77-22.87-5.14-44.25-6.86-68.8-1.86-26.56 0-66.73 141.57 34.37 134 0 23.4-13.56 89.55-1 110.38 1.47 9.82 42 60.42 52.33 38 50.94-.3 184.29 1.56 225.1-3.4 40-3 61.64 6.17 71.27-9.63C497.32 485.81 496 517.79 516 498c63.74-46.08 61.9-117.81 31.12-153.76Z" stroke-width="10" stroke-miterlimit="10" stroke="#1c1c1c" fill="none"/>
            <path d="M547.12 344.24c-20.1-16.4-25.66 8.48-33 22.21-2-65.68-43.16-117.46-83.4-156.38C475.19 153.9 482.59 133 415 91.23c-54.31-38.49-76.15 11-97.46 50-120.6-13.38-128.75 50.22-148.74 49.77-22.87-5.14-44.25-6.86-68.8-1.86-26.56 0-66.73 141.57 34.37 134 0 23.4-13.56 89.55-1 110.38 1.47 9.82 42 60.42 52.33 38 50.94-.3 184.29 1.56 225.1-3.4 40-3 61.64 6.17 71.27-9.63C497.32 485.81 496 517.79 516 498c63.74-46.08 61.9-117.81 31.12-153.76Z" fill="#1c1c1c"/>
            <path d="M564 408.42c-.38 56.5-59.31 92.61-59.31 92.61l-15.6-36.41-7.83-18.27-13.17-30.74s44.45-23.61 57.63-65.08a10.45 10.45 0 0 1 6-6.57 10.72 10.72 0 0 1 12.38 2.89 76.63 76.63 0 0 1 12.11 19.61c4.6 10.69 7.9 24.47 7.79 41.96Z" fill="#ff8500"/>
            <path d="M564 408.42c-.38 56.5-59.31 92.61-59.31 92.61l-15.6-36.41c84.12-23.86 47-111 42.62-120.66a10.72 10.72 0 0 1 12.38 2.89c9.55 11.15 20.12 30.53 19.91 61.57Z" fill="#fffeff"/>
            <path d="M564 408.42c-.38 56.5-59.31 92.61-59.31 92.61l-15.6-36.41-7.83-18.27c88.2 6.56 71-81.14 71-81.14a26.74 26.74 0 0 1 3.9 1.25c4.65 10.69 7.95 24.47 7.84 41.96Z" fill="#390176" opacity=".3"/>
            <path d="m497.8 469-21-49s44.45-23.61 57.63-65.08a10.44 10.44 0 0 1 6-6.57 10.84 10.84 0 0 1 4.17-.86l-.51-.61A10.72 10.72 0 0 0 531.7 344a10.45 10.45 0 0 0-6 6.57c-13.18 41.47-57.63 65.08-57.63 65.08l21 49L504.68 501s2-1.24 5.31-3.61Z" fill="#fffeff" opacity=".4"/>
            <path d="M504.68 505a3.83 3.83 0 0 1-1.21-.19 4 4 0 0 1-2.47-2.24l-36.6-85.43a4 4 0 0 1 1.8-5.11c.56-.3 43.19-23.43 55.69-62.76a14.75 14.75 0 0 1 25.23-5.07c9.65 11.26 21.1 31.54 20.88 64.21-.4 58.06-58.75 94.48-61.23 96a4 4 0 0 1-2.09.59Zm-31.51-87.73L506.45 495c12.84-9.11 53.23-41.34 53.54-86.62.21-30.19-10.19-48.71-19-58.94a6.69 6.69 0 0 0-6.48-2.2 6.58 6.58 0 0 0-5 4.49c-11.57 36.45-45.62 59.18-56.34 65.58Z" stroke-width="3.12" stroke-miterlimit="10" stroke="#1c1c1c" fill="#1c1c1c"/>
            <path d="m470 467.23-290 4.42c-20.81-4.59-34.37-25.88-41.49-40.82a53.61 53.61 0 0 1-5.22-23.09c0-1.51.07-3 .2-4.53l2.92-35 4.21-50.39a171.62 171.62 0 0 1-41.44-6.21 29 29 0 0 1-13.25-8.12l-.07-.07a30 30 0 0 1-3-3.82 28.51 28.51 0 0 1-4.43-12.1c-3.39-28-1.59-54.68 7.61-79.66a21.07 21.07 0 0 1 15.39-13.16c23.57-5.08 48.25-2.95 73.62 3.71 32-41.87 78.6-61.9 146-50.84 10.38-24.1 23.91-44.84 42.43-60.28a21 21 0 0 1 19.83-4 150.06 150.06 0 0 1 38.38 18.87 199.54 199.54 0 0 1 29.08 24.2 28.82 28.82 0 0 1 6.23 31.2c-7.14 17.62-17.83 34-30.95 49.6l19.4 18.7L461.16 241s12 15.18 24.06 39c23.22 46 46.63 124-15.22 187.23Z" fill="#ff8500"/>
            <path d="M457.22 136.43C438 117.85 416.68 103.78 392.47 96a21 21 0 0 0-19.83 4c-18.52 15.43-32.05 36.18-42.43 60.27-67.37-11.05-114 9-146 50.85-25.37-6.66-50.05-8.79-73.62-3.71a21.06 21.06 0 0 0-15.36 13.19c-9.2 25-11 51.7-7.61 79.66a28.94 28.94 0 0 0 1.5 6.25 28.67 28.67 0 0 1-10.7-19c-3.39-28-1.59-54.68 7.61-79.66a21.07 21.07 0 0 1 15.39-13.16c23.57-5.08 48.25-2.95 73.62 3.71 32-41.87 78.6-61.9 146-50.84 10.38-24.1 23.91-44.84 42.43-60.28a21 21 0 0 1 19.83-4c25.36 8.12 47.51 23.18 67.46 43.07a28.32 28.32 0 0 1 6.46 10.08Z" fill="#ffffff" opacity=".66"/>
            <path d="M209.29 456.63c-40.14-36.79-27.85-97.45 16.71-117.42a91.22 91.22 0 0 0 12.48-6.6 100.94 100.94 0 0 0 16.44-13 44.79 44.79 0 0 0 11.62-41.41 38.22 38.22 0 0 1-.84-4.64c-2.77-29.5 16-40.45 35-16.65.74.93 1.38 1.92 2 2.91a44.54 44.54 0 0 0 38.3 20.23c9.21-.25 19-2.34 29.12-5.3C426 258.44 480.1 302.51 470 364.9c0 0-3.81 36.49-28.46 66.88l-61.46 39.88H223.43Z" fill="#ffffff"/>
            <path d="M327.19 263.28a19.92 19.92 0 0 1-1.44-8.5 20.67 20.67 0 0 1 2.67-9.07 23.7 23.7 0 0 1 15.33-11.22 16.44 16.44 0 0 1 2.41-.43 18 18 0 0 1 2.43-.21 19.52 19.52 0 0 1 2.42 0c.8.07 1.66.12 2.31.23a46.7 46.7 0 0 1 8 2 46 46 0 0 1 14 7.72 2 2 0 0 1-1.28 3.52c-5.24-.11-10.14-.59-14.84-.84-2.35-.11-4.64-.22-6.87-.18a12.52 12.52 0 0 0-1.46.07 12 12 0 0 0-1.33.15 9.56 9.56 0 0 0-1.3.23 10.91 10.91 0 0 0-1.28.33 22.17 22.17 0 0 0-9 5.36 23.26 23.26 0 0 0-3.63 4.5c-1.14 1.78-2.13 4.07-3.35 6.4l-.05.1a2 2 0 0 1-3.69-.19Z" fill="#1c1c1c"/>
            <path d="M489.59 280 479 281.24a51.32 51.32 0 0 1-5.63 19.49c-28.55 71-315.85 171-340.08 107a53.24 53.24 0 0 0 5.28 23.09c7.21 14.94 20.94 36.23 42 40.82l293.61-4.42C536.8 404 513.1 326 489.59 280Z" fill="#1c1c1c" opacity=".3"/>
            <path d="m340.59 389-.5.05a21.88 21.88 0 0 1-22.8-14.68l-10.37-29.67c3.39-11.89 8.24-22.42 31.31-16l17.39 26.37c8.82 13.45.88 31.99-15.03 33.93Z" fill="#ff0000"/>
            <path d="M254.48 289.64c-2.56-.62-4.93-1.38-7-1.7a22.72 22.72 0 0 0-5.77-.24 22 22 0 0 0-10 3.26 11.59 11.59 0 0 0-1.09.74 8.31 8.31 0 0 0-1 .83 12.12 12.12 0 0 0-1 .9 13.14 13.14 0 0 0-1 1.05c-1.51 1.65-2.93 3.45-4.4 5.28-2.92 3.7-5.78 7.7-9.16 11.71a2 2 0 0 1-3.49-1.34 45.75 45.75 0 0 1 3.43-15.62 46.47 46.47 0 0 1 3.78-7.35c.34-.56.87-1.24 1.35-1.88a17.25 17.25 0 0 1 1.57-1.85 20.07 20.07 0 0 1 1.76-1.69 18.72 18.72 0 0 1 1.91-1.52 23.75 23.75 0 0 1 18.55-4.13 20.71 20.71 0 0 1 8.58 4 20.15 20.15 0 0 1 5.44 6.68 2 2 0 0 1-2.29 2.91Z" fill="#1c1c1c"/>
            <path d="M326.9 307c2.44 5.59-1.47 15-9.77 18.6s-17.85.11-20.29-5.48 3.35-10.66 11.66-14.29 15.96-4.41 18.4 1.17Z" fill="#1c1c1c"/>
            <path d="M270.71 343.45c2.54.8 5 1.62 7.49 2.28a50.18 50.18 0 0 0 7.31 1.39c4.78.57 9.2 0 12.73-2s6.53-5.3 8.89-9.47a59.47 59.47 0 0 0 5.52-13.91 5 5 0 0 1 6.11-3.44 3.86 3.86 0 0 1 .48.16 82.54 82.54 0 0 0 14.76 4.46 38 38 0 0 0 14 .52 16.34 16.34 0 0 0 10.54-6.76c2.73-3.73 4.59-8.6 6-13.67a2.48 2.48 0 0 1 4.86.74c-.18 5.65-1.07 11.58-4.05 17.18a24.4 24.4 0 0 1-6.14 7.56 24.93 24.93 0 0 1-8.9 4.52c-6.4 1.77-12.67 1.12-18.4-.06a105.51 105.51 0 0 1-16.37-5.32l6.59-3.28a75.81 75.81 0 0 1-6.1 16.29 37.37 37.37 0 0 1-5.35 7.61 25.45 25.45 0 0 1-7.91 5.9 24.15 24.15 0 0 1-9.61 2.39 31.12 31.12 0 0 1-9.29-1.06 46.85 46.85 0 0 1-15.47-7.64 2.49 2.49 0 0 1 2.22-4.38Z" fill="#1c1c1c"/>
            <path d="M140.35 230.66a153.75 153.75 0 0 1 29.17 38.69 195 195 0 0 1 10.09 22.13c.71 1.89 1.44 3.78 2.11 5.69l.5 1.43.26.72a8.19 8.19 0 0 1 .26.82 17 17 0 0 1-5.64 18.36 16.89 16.89 0 0 1-7.49 3.43l-1 .15c-.34.05-.71.1-.92.11l-1.51.13-3 .26c-4 .3-8.08.56-12.15.68a203.92 203.92 0 0 1-24.45-.57 149.37 149.37 0 0 1-24.29-4.24c-1-.24-2-.54-3-.81l-1.49-.41c-.51-.15-1.12-.36-1.67-.53a32.44 32.44 0 0 1-6.49-2.95 34.63 34.63 0 0 1-10.53-9.49 37 37 0 0 1-3.6-6.17 36.14 36.14 0 0 1-2.22-6.81c-.25-1.13-.43-2.42-.57-3.46l-.33-3c-.24-2-.39-4-.57-6.08a196.56 196.56 0 0 1-.5-24.52 158.76 158.76 0 0 1 9.41-48.39 26.53 26.53 0 0 1 9.08-12 27.51 27.51 0 0 1 6.62-3.57 28.76 28.76 0 0 1 3.61-1.08l3.1-.62a136.48 136.48 0 0 1 24.74-2.37 169.79 169.79 0 0 1 24.62 1.77 224.94 224.94 0 0 1 24 4.92h.06l-6 2.06a148.29 148.29 0 0 1 30.07-29.76 131.06 131.06 0 0 1 37.87-19.24 152.92 152.92 0 0 1 41.6-6.94 223.25 223.25 0 0 1 41.78 2.88h.06l-6.2 3.39c6.45-14.92 14.4-29.41 24.65-42.41a135.66 135.66 0 0 1 17.11-18l2.38-2.06a27.5 27.5 0 0 1 3.12-2.18 27 27 0 0 1 6.89-3 26.34 26.34 0 0 1 15 .19 160.2 160.2 0 0 1 44 22.35 197.25 197.25 0 0 1 19.08 15.43c1.5 1.39 3 2.75 4.47 4.18l2.19 2.13c.74.74 1.65 1.69 2.4 2.58a35.82 35.82 0 0 1 4 6 36.68 36.68 0 0 1 2.7 6.67 34.65 34.65 0 0 1 1 14.25 32.8 32.8 0 0 1-1.68 7c-.2.55-.41 1.16-.61 1.66l-.6 1.43c-.4 1-.79 1.91-1.21 2.86A157.14 157.14 0 0 1 448.88 186a197.36 197.36 0 0 1-14.44 19.77c-2.58 3.14-5.27 6.18-8 9.2l-2.06 2.23-1 1.11c-.14.16-.4.42-.66.67l-.77.73a17.37 17.37 0 0 1-7.48 3.93 17.66 17.66 0 0 1-15.7-3.89 16.87 16.87 0 0 1-2.76-3.09 7.51 7.51 0 0 1-.5-.73l-.41-.64-.82-1.28c-1.11-1.7-2.16-3.44-3.21-5.17a193.72 193.72 0 0 1-11.15-21.69 148.9 148.9 0 0 1-12.14-47 2.46 2.46 0 0 1 4.88-.65 160.44 160.44 0 0 0 14.72 44.14 186.43 186.43 0 0 0 11.77 20.1c1.07 1.62 2.13 3.25 3.26 4.85l.83 1.2.41.6.21.3.16.18a7 7 0 0 0 1.25 1.29 7.46 7.46 0 0 0 6.64 1.37 6.77 6.77 0 0 0 2.89-1.69l.3-.31a4.25 4.25 0 0 0 .37-.4l1-1.11 1.9-2.22c2.51-3 5-6 7.33-9.08a229.75 229.75 0 0 0 13.27-19 174.25 174.25 0 0 0 10.73-20.3c.4-.87.75-1.75 1.13-2.63l.55-1.31.42-1.14a21.23 21.23 0 0 0 1.12-4.59 23.17 23.17 0 0 0-.64-9.37 25.37 25.37 0 0 0-1.72-4.38 24.48 24.48 0 0 0-2.62-3.91c-.53-.63-1-1.12-1.65-1.8l-2.07-2c-1.36-1.37-2.8-2.67-4.2-4a186.39 186.39 0 0 0-17.86-14.68 145.15 145.15 0 0 0-40.68-20.8 14.92 14.92 0 0 0-8.48-.09 15.86 15.86 0 0 0-4 1.75 18.68 18.68 0 0 0-1.79 1.27l-2.12 1.84A124.34 124.34 0 0 0 349.4 110c-9.46 12-17 25.6-23.12 39.84a5.74 5.74 0 0 1-6 3.41H320a211.09 211.09 0 0 0-39.54-2.74 141.6 141.6 0 0 0-38.57 6.37 119.87 119.87 0 0 0-34.57 17.56 136.84 136.84 0 0 0-27.74 27.49 5.74 5.74 0 0 1-5.95 2.08h-.13a212 212 0 0 0-22.7-4.67 158.94 158.94 0 0 0-22.91-1.64 123.37 123.37 0 0 0-22.65 2.16l-2.75.54a16.92 16.92 0 0 0-2.1.63 15.75 15.75 0 0 0-3.83 2.07 15 15 0 0 0-5.13 6.75 147.09 147.09 0 0 0-8.7 44.86 186.05 186.05 0 0 0 .47 23.12c.18 1.92.31 3.85.55 5.78l.31 2.89c.13.92.22 1.61.4 2.41a24.08 24.08 0 0 0 1.46 4.52 25.12 25.12 0 0 0 2.4 4.1 23.16 23.16 0 0 0 7 6.35 21.58 21.58 0 0 0 4.35 2c.39.12.72.25 1.17.37l1.38.37c.93.24 1.84.5 2.77.72 3.71.91 7.47 1.66 11.24 2.31s7.59 1.17 11.41 1.61a217.34 217.34 0 0 0 23.16 1.49c3.89.06 7.79 0 11.69-.13l2.92-.12 1.47-.06a4.34 4.34 0 0 0 .55-.05h.46a7.26 7.26 0 0 0 3.31-1.31 7.92 7.92 0 0 0 3.22-6.44 8.28 8.28 0 0 0-.26-1.9 3.42 3.42 0 0 0-.16-.6l-.21-.7-.43-1.4c-.56-1.87-1.18-3.72-1.79-5.57a187.92 187.92 0 0 0-8.73-21.65 153.83 153.83 0 0 0-26.06-38.59 2.46 2.46 0 0 1 3.51-3.45Z" fill="#1c1c1c"/>
            <path d="M146.3 318.34 139.08 405a48 48 0 0 0 2.8 19.12 48.74 48.74 0 0 0 1.89 4.5q1.14 2.34 2.35 4.64c1.65 3 3.37 6 5.28 8.89a82.29 82.29 0 0 0 6.11 8.14c1.06 1.32 2.25 2.48 3.38 3.71s2.36 2.33 3.64 3.34a39.48 39.48 0 0 0 16.67 8.71h.13a5.74 5.74 0 0 1-2.6 11.18 50.76 50.76 0 0 1-21.61-11.16c-1.57-1.24-2.94-2.66-4.38-4s-2.74-2.82-4-4.33a93.18 93.18 0 0 1-6.95-9.26c-2.14-3.19-4-6.49-5.84-9.84-.9-1.67-1.75-3.37-2.57-5.07s-1.65-3.66-2.34-5.54a59.48 59.48 0 0 1-3.46-23.68l7.24-87a5.74 5.74 0 0 1 11.44.95Z" fill="#1c1c1c"/>
            <path d="M337.81 394.11A26.71 26.71 0 0 1 312.64 376l-10.36-29.68a4.92 4.92 0 0 1 9.29-3.24l10.36 29.68a17.07 17.07 0 0 0 17.64 11.4h.41a16 16 0 0 0 12.75-9.42 17.29 17.29 0 0 0-1.22-16.87l-17.38-26.38a4.92 4.92 0 0 1 8.22-5.41l17.37 26.37a27.06 27.06 0 0 1 1.94 26.41 26 26 0 0 1-20.47 15.06l-.58.07a26.55 26.55 0 0 1-2.8.12Z" fill="#1c1c1c"/>
            <path d="m321.07 321.2 13.5 32.72a1.65 1.65 0 0 1-2.94 1.46l-17.9-30.53a4.11 4.11 0 1 1 7.09-4.16 4.81 4.81 0 0 1 .25.51Z" fill="#1c1c1c"/>
            <path d="M457 157.54c-7.14 17.62-17.83 34-30.95 49.6l19.4 18.7-1.83 3.75c-88.18 59.87-71.33-77.9-71.33-77.9 34.83 64.12 70.56-17.67 49.4-49.53a199.54 199.54 0 0 1 29.08 24.2 28.82 28.82 0 0 1 6.23 31.18Z" fill="#1c1c1c" opacity=".3"/>
            <path d="m136.37 368.25 4.21-50.39a171.62 171.62 0 0 1-41.44-6.21 29 29 0 0 1-13.25-8.12l-.07-.07-3-3.82q88.17 12.19 58.78-64.08c129.81 101.93-5.23 132.69-5.23 132.69Z" fill="#1c1c1c" opacity=".3"/>
            <path d="M427.4 207.06s146.08 124.26 51.62 251" stroke-width="12.46" stroke-linecap="round" stroke-miterlimit="10" stroke="#1c1c1c" fill="none"/>
            <path d="M981 447.91h303.38v464.76a39.51 39.51 0 0 1-39.51 39.51H981V447.91Z" fill="#efb57b"/>
            <path d="M1284.41 447.91v468.21c0 19.92-19.38 36.06-43.32 36.06h-227.76V447.91Z" fill="#1c1c1c" opacity=".3"/>
            <path d="M981 447.91v504.27H200.33c-23.9 0-43.28-16.14-43.28-36.06V447.91Z" fill="#efb57b"/>
            <path d="M236.85 952.18h-36.52c-23.9 0-43.28-16.14-43.28-36.06V741c20.16 0 36.51 13.61 36.51 30.4v144.72c0 19.88 19.44 36.06 43.29 36.06Z" fill="#ffffff" opacity=".6"/>
            <path fill="#1c1c1c" d="M979.15 447.91v185.5l-74.89 107.56H157.04V447.91h822.11z" opacity=".3"/>
            <path d="M1241.11 962.08H981c-6.57 0-11.9-4.43-11.9-9.9V447.91c0-5.47 5.33-9.9 11.9-9.9h303.38c6.57 0 11.9 4.43 11.9 9.9v468.22c.03 25.34-24.73 45.95-55.17 45.95Zm-248.18-19.81h248.18c17.31 0 31.4-11.73 31.4-26.14V457.82H992.93Z" fill="#1c1c1c"/>
            <path d="M981 962.08H200.35c-30.44 0-55.21-20.61-55.21-46V447.91c0-5.47 5.33-9.91 11.9-9.91s11.96 4.44 11.96 9.91v468.22c0 14.41 14.08 26.14 31.4 26.14H981c6.57 0 11.9 4.43 11.9 9.91s-5.3 9.9-11.9 9.9Z" fill="#1c1c1c"/>
            <path fill="#efb57b" d="m981.03 447.91-45.87 65.54-51.21 73.13-48.07 68.65H11.9l145.14-207.32h823.99z"/>
            <path fill="#ffffff" d="m524.53 451.81 1.26 22.8H172.72L43.53 659.13H10.02l145.14-207.32h369.37z" opacity=".6"/>
            <path d="m979.15 451.81-21.61 22.8H528a227.45 227.45 0 0 0-16-22.8Z" fill="#ffffff" opacity=".6"/>
            <path fill="#efb57b" d="M1436.1 655.23h-303.38L981.03 447.91h303.38l151.69 207.32z"/>
            <path fill="#ffffff" d="M1304.94 475.96h-303.38l-20.53-28.05h303.38l20.53 28.05z" opacity=".6"/>
            <path d="M835.89 665.14H11.9a12.51 12.51 0 0 1-10.32-5 8.5 8.5 0 0 1 0-9.93l145.18-207.28A12.49 12.49 0 0 1 157 438h824a12.49 12.49 0 0 1 10.32 5 8.48 8.48 0 0 1 0 9.92l-145.14 207.3a12.55 12.55 0 0 1-10.29 4.92ZM32.61 645.32h796.44l131.27-187.5H163.88Z" fill="#1c1c1c"/>
            <path d="M1436.1 665.14h-303.38a12.58 12.58 0 0 1-10.16-4.76L970.87 453.07a8.5 8.5 0 0 1-.21-10A12.46 12.46 0 0 1 981 438h303.38a12.57 12.57 0 0 1 10.16 4.75l151.69 207.32a8.48 8.48 0 0 1 .21 10 12.47 12.47 0 0 1-10.34 5.07Zm-296.69-19.82h275.51l-137.2-187.5h-275.51Z" fill="#1c1c1c"/>
            <path fill="#1c1c1c" d="M707.61 768.82c0 23.35-18.93 42.28-42.28 42.28h-233.8c-23.35 0-42.28-18.93-42.28-42.28s18.93-42.28 42.28-42.28h233.8c23.35 0 42.28 18.93 42.28 42.28z"/>
            <path d="M707.62 786.75c0 11.67-5.7 22.24-14.88 29.91S670.85 829 656.81 829H440.06c-28.06 0-50.82-18.92-50.82-42.28a35.48 35.48 0 0 1 1.15-9c4.95 19 25.31 33.31 49.67 33.31h216.75c14 0 26.74-4.74 35.93-12.39a40.76 40.76 0 0 0 13.73-20.92 35 35 0 0 1 1.15 9.03Z" fill="#ffffff" opacity=".6"/>
            <path d="M244.53 449.54c0 20.08-23.8 23.78-53.15 23.78s-53.15-3.7-53.15-23.78 23.79-36.36 53.15-36.36 53.15 16.28 53.15 36.36Z" fill="#ff8500"/>
            <path d="M240.38 449.54c0 20.07-23.8 23.78-53.14 23.78-27.79 0-50.6-3.31-53-20.7 9.61 3.4 22.81 4.3 37.41 4.3 29.36 0 53.16-3.71 53.16-23.78a25.83 25.83 0 0 0-2.4-10.81c11.03 6.67 17.97 16.37 17.97 27.21Z" fill="#1c1c1c" opacity=".3"/>
            <path d="M238 438.65c-9.64-9.22-25.4-15.22-43.23-15.22-29.36 0-53.16 16.29-53.16 36.36a20.68 20.68 0 0 0 .69 5.49 18 18 0 0 1-8.17-15.74c0-20.07 23.8-36.36 53.16-36.36 23.71 0 43.89 10.71 50.71 25.47Z" fill="#ffffff" opacity=".66"/>
            <path d="m172.06 447.11 2.46 24.8a4.94 4.94 0 1 1-9.84 1 5.35 5.35 0 0 1 0-1l2.46-24.8a2.47 2.47 0 0 1 4.92 0Z" fill="#1c1c1c"/>
            <path d="m207.32 447.11 2.46 24.8a4.94 4.94 0 1 1-9.84 1 5.35 5.35 0 0 1 0-1l2.46-24.8a2.47 2.47 0 0 1 4.92 0Z" fill="#1c1c1c"/>
            <path d="M191.38 479.06c-19.12 0-58.89 0-58.89-29.52 0-23.21 26.42-42.1 58.89-42.1s58.89 18.89 58.89 42.1c0 29.52-39.78 29.52-58.89 29.52Zm0-60.14c-25.7 0-47.41 14-47.41 30.62 0 12.81 13.73 18 47.41 18s47.41-5.23 47.41-18c0-16.6-21.71-30.62-47.41-30.62Z" fill="#1c1c1c"/>
            <path d="M464.42 449.54c0 20.08-23.8 23.78-53.16 23.78s-53.15-3.7-53.15-23.78 23.8-36.36 53.15-36.36 53.16 16.28 53.16 36.36Z" fill="#ff8500"/>
            <path d="M464.41 449.54c0 20.07-23.8 23.78-53.14 23.78-27.78 0-50.6-3.31-53-20.7 9.61 3.4 22.82 4.3 37.41 4.3 29.36 0 53.16-3.71 53.16-23.78a25.83 25.83 0 0 0-2.4-10.81c11.03 6.67 17.97 16.37 17.97 27.21Z" fill="#1c1c1c" opacity=".3"/>
            <path d="M462 438.65c-9.64-9.22-25.4-15.22-43.23-15.22-29.36 0-53.16 16.29-53.16 36.36a20.68 20.68 0 0 0 .69 5.49 18 18 0 0 1-8.16-15.74c0-20.07 23.79-36.36 53.15-36.36 23.78 0 43.92 10.71 50.71 25.47Z" fill="#ffffff" opacity=".66"/>
            <path d="m396.09 447.11 2.46 24.8a4.94 4.94 0 1 1-9.84 1 5.35 5.35 0 0 1 0-1l2.46-24.8a2.47 2.47 0 0 1 4.92 0Z" fill="#1c1c1c"/>
            <path d="m431.35 447.11 2.46 24.8a4.94 4.94 0 1 1-9.84 1 5.35 5.35 0 0 1 0-1l2.46-24.8a2.47 2.47 0 0 1 4.92 0Z" fill="#1c1c1c"/>
            <path d="M411.26 479.06c-19.11 0-58.89 0-58.89-29.52 0-23.21 26.42-42.1 58.89-42.1s58.9 18.89 58.9 42.1c0 29.52-39.78 29.52-58.9 29.52Zm0-60.14c-25.7 0-47.41 14-47.41 30.62 0 12.81 13.74 18 47.41 18s47.41-5.23 47.41-18c0-16.6-21.67-30.62-47.41-30.62Z" fill="#1c1c1c"/>
            <path d="M120 96a59.69 59.69 0 1 0-20 20l27.66 6.2Z" fill="#2967c1"/>
            <path d="M64.1 16.83a59.76 59.76 0 0 1 64.55 47 59.76 59.76 0 1 0-119.2 5.81 62 62 0 0 0 1 6.34A59.77 59.77 0 0 1 64.1 16.83Z" fill="#ffffff" opacity=".5"/>
            <path d="M4.53 71.47a64.84 64.84 0 1 1 129-13.25 64.19 64.19 0 0 1-8 38.43l7.06 24.06a5.08 5.08 0 0 1-6 6.38l-25.71-5.77a64.06 64.06 0 0 1-25.24 8 62.82 62.82 0 0 1-6.68.35 65 65 0 0 1-64.43-58.2ZM101.17 111l19.25 4.32-5.25-17.9a5.13 5.13 0 0 1 .54-4.08 54.68 54.68 0 0 0-52.26-82.9 54.69 54.69 0 1 0 11.17 108.81 54.2 54.2 0 0 0 22.8-7.65 5.06 5.06 0 0 1 2.64-.74 5.24 5.24 0 0 1 1.11.14Z" fill="#1c1c1c"/>
            <path d="M120.38 95.4a69 69 0 0 1-111-33.71 59.77 59.77 0 0 0 90.71 54.24l27.66 6.2L120 96c.16-.22.27-.41.38-.6Z" fill="#390565" opacity=".3"/>
            <path d="M88.14 48.06C83 42.89 74.59 43.82 69.41 49l-.8.8-.81-.8c-5.17-5.17-13.55-6.1-18.73-.93a13.25 13.25 0 0 0 0 18.73l.81.81 16.26 16.25a3.5 3.5 0 0 0 4.94 0L87.34 67.6l.8-.81a13.23 13.23 0 0 0 0-18.73Z" fill="#ffffff"/>
            <path d="M130.28 613.16s3.85 0 19.76-9.49l12.05-7.67 12.22-8.84 7-5.72 7.7-6.71 6.7-6.55 8.54-9.16 5.69-6.71 5.19-6.87 4.18-6.54 3.52-6.55 2.51-5.23 1.84-4.75 1.51-4.09 1.67-5.73 1.51-5.4.83-4.41.67-5.4.67-5.73.17-5.23v-6.88l.17-20.29-.17-29 .17-32.23-.17-14.4s-.33-8.5-6.53-12.59-9.71-3.6-12.05-2.79a78.8 78.8 0 0 0-8 4.09l-4.68 2.13-4.36 1.47-3.18.82-5 .82-5.86.33h-4.69l-5.85-.33-4.86-.82-5.52-1.8-6-2.45-5.69-3.6-4-3.11-2.68-2.45-3.68-3.6-3-2.46-3-1.63-2.34-.82-2.34-.33h-1.18l-3.34.82-2.68 1.31-2.68 1.8-2.34 2.29-2.52 2.45-3.85 3.44-3.68 2.78-2.95 1.65-5 2.61-4.35 1.64-6.36 1.8-4.69.65-5.52.17-8.87-.17-7.7-1.47-4.52-1.63-3.67-1.47-2.51-1.31-3.35-2s-4.18-2.45-7.36-2.13a17.4 17.4 0 0 0-9.43 4.31 14.88 14.88 0 0 0-4.68 6.71c-1 2.45-1 7.52-1.18 11.12s0 15.87 0 15.87v77.56L27.67 499l2.17 11.62S35.37 530.37 42.4 540s6.36 10.47 17.41 22.42 16.74 16.2 16.74 16.2l9.87 8.38 8.21 5.89 5.69 4.09 8 5.07 7 4.09 5.69 3.11 5.19 2.62 2.34 1a7.57 7.57 0 0 0 1.34.33Z" stroke="#231f20" stroke-width="35" fill="none"/>
            <path d="M130.28 613.16s3.85 0 19.76-9.49l12.05-7.67 12.22-8.84 7-5.72 7.7-6.71 6.7-6.55 8.54-9.16 5.69-6.71 5.19-6.87 4.18-6.54 3.52-6.55 2.51-5.23 1.84-4.75 1.51-4.09 1.67-5.73 1.51-5.4.83-4.41.67-5.4.67-5.73.17-5.23v-6.88l.17-20.29-.17-29 .17-32.23-.17-14.4s-.33-8.5-6.53-12.59-9.71-3.6-12.05-2.79a78.8 78.8 0 0 0-8 4.09l-4.68 2.13-4.36 1.47-3.18.82-5 .82-5.86.33h-4.69l-5.85-.33-4.86-.82-5.52-1.8-6-2.45-5.69-3.6-4-3.11-2.68-2.45-3.68-3.6-3-2.46-3-1.63-2.34-.82-2.34-.33h-1.18l-3.34.82-2.68 1.31-2.68 1.8-2.34 2.29-2.52 2.45-3.85 3.44-3.68 2.78-2.95 1.65-5 2.61-4.35 1.64-6.36 1.8-4.69.65-5.52.17-8.87-.17-7.7-1.47-4.52-1.63-3.67-1.47-2.51-1.31-3.35-2s-4.18-2.45-7.36-2.13a17.4 17.4 0 0 0-9.43 4.31 14.88 14.88 0 0 0-4.68 6.71c-1 2.45-1 7.52-1.18 11.12s0 15.87 0 15.87v77.56L27.67 499l2.17 11.62S35.37 530.37 42.4 540s6.36 10.47 17.41 22.42 16.74 16.2 16.74 16.2l9.87 8.38 8.21 5.89 5.69 4.09 8 5.07 7 4.09 5.69 3.11 5.19 2.62 2.34 1a7.57 7.57 0 0 0 1.34.33Z" stroke="#231f20" stroke-width="35" fill="none"/>
            <path d="M131.6 576.05s2.77 0 14.21-6.8l8.61-5.48a.57.57 0 0 0 .13-.08l8.67-6.25.12-.09 5-4.06 5.49-4.76.11-.1 4.76-4.64 6.14-6.58 4-4.75.1-.12 3.62-4.78.12-.17 2.9-4.52a1.62 1.62 0 0 0 .1-.18l2.49-4.6 1.76-3.67a1.42 1.42 0 0 0 .08-.18l1.29-3.31 1.05-2.85.06-.17 1.18-4 1.05-3.76a2.25 2.25 0 0 0 .05-.22l.57-3a.88.88 0 0 0 0-.16l.48-3.79.46-4a1.64 1.64 0 0 0 0-.22l.12-3.64v-4.93l.12-14.55-.12-20.77.12-23.12-.12-10.32s-.24-6.11-4.7-9-7-2.58-8.67-2a51.71 51.71 0 0 0-5.68 2.87 1.51 1.51 0 0 1-.22.11L184 404.8l-.24.1-2.92 1-.19.06-2.07.53h-.24l-3.36.54h-.27l-4 .23h-3.52l-4-.23a1.36 1.36 0 0 1-.29 0l-3.16-.53a2.62 2.62 0 0 1-.38-.09l-3.7-1.2-.18-.07-4-1.63a2.32 2.32 0 0 1-.41-.22l-3.79-2.39-.21-.14-2.7-2.09-.17-.14-1.85-1.68-2.56-2.5-.18-.16-1.89-1.53a2.8 2.8 0 0 0-.4-.27l-1.77-1a3.52 3.52 0 0 0-.39-.17l-1.24-.43a2.15 2.15 0 0 0-.5-.12l-1.25-.17h-.7a2.59 2.59 0 0 0-.63.08l-1.82.44a2.47 2.47 0 0 0-.54.19l-1.51.74a2.48 2.48 0 0 0-.31.18l-1.57 1.05a2.79 2.79 0 0 0-.38.3l-1.54 1.52-1.81 1.76-2.69 2.39-.17.14-2.43 1.83-.27.18-1.91 1.09-3.47 1.8a1.51 1.51 0 0 1-.29.13l-2.88 1.08-.21.07-4.3 1.21a2 2 0 0 1-.35.08l-3 .42h-.29l-3.83.11-6.16-.11a3.44 3.44 0 0 1-.45 0l-5.11-1-.4-.11L80 405l-2.53-1-.24-.11-1.65-.89-2.4-1.41s-3-1.76-5.3-1.53a12.6 12.6 0 0 0-6.75 3.06 10.66 10.66 0 0 0-3.37 4.81c-.73 1.76-.73 5.39-.85 8s0 11.38 0 11.38v55.71l.83 11v.3l1.52 8.06a2.1 2.1 0 0 0 .06.24c.39 1.39 4.21 14.45 9 21 5.06 6.93 4.57 7.51 12.53 16.08 7.45 8 11.51 11.21 12 11.58a.39.39 0 0 1 .1.08l7 5.87.16.13 5.82 4.16 4 2.89.13.09 5.72 3.59 5.06 2.94 4.09 2.23 3.66 1.83.17.08 1.48.62a1.25 1.25 0 0 0 .25.09 4.08 4.08 0 0 0 .83.19Z" stroke="#231f20" stroke-width="35" fill="none"/>
            <path d="M131.6 576.05s2.77 0 14.21-6.8l8.61-5.48a.57.57 0 0 0 .13-.08l8.67-6.25.12-.09 5-4.06 5.49-4.76.11-.1 4.76-4.64 6.14-6.58 4-4.75.1-.12 3.62-4.78.12-.17 2.9-4.52a1.62 1.62 0 0 0 .1-.18l2.49-4.6 1.76-3.67a1.42 1.42 0 0 0 .08-.18l1.29-3.31 1.05-2.85.06-.17 1.18-4 1.05-3.76a2.25 2.25 0 0 0 .05-.22l.57-3a.88.88 0 0 0 0-.16l.48-3.79.46-4a1.64 1.64 0 0 0 0-.22l.12-3.64v-4.93l.12-14.55-.12-20.77.12-23.12-.12-10.32s-.24-6.11-4.7-9-7-2.58-8.67-2a51.71 51.71 0 0 0-5.68 2.87 1.51 1.51 0 0 1-.22.11L184 404.8l-.24.1-2.92 1-.19.06-2.07.53h-.24l-3.36.54h-.27l-4 .23h-3.52l-4-.23a1.36 1.36 0 0 1-.29 0l-3.16-.53a2.62 2.62 0 0 1-.38-.09l-3.7-1.2-.18-.07-4-1.63a2.32 2.32 0 0 1-.41-.22l-3.79-2.39-.21-.14-2.7-2.09-.17-.14-1.85-1.68-2.56-2.5-.18-.16-1.89-1.53a2.8 2.8 0 0 0-.4-.27l-1.77-1a3.52 3.52 0 0 0-.39-.17l-1.24-.43a2.15 2.15 0 0 0-.5-.12l-1.25-.17h-.7a2.59 2.59 0 0 0-.63.08l-1.82.44a2.47 2.47 0 0 0-.54.19l-1.51.74a2.48 2.48 0 0 0-.31.18l-1.57 1.05a2.79 2.79 0 0 0-.38.3l-1.54 1.52-1.81 1.76-2.69 2.39-.17.14-2.43 1.83-.27.18-1.91 1.09-3.47 1.8a1.51 1.51 0 0 1-.29.13l-2.88 1.08-.21.07-4.3 1.21a2 2 0 0 1-.35.08l-3 .42h-.29l-3.83.11-6.16-.11a3.44 3.44 0 0 1-.45 0l-5.11-1-.4-.11L80 405l-2.53-1-.24-.11-1.65-.89-2.4-1.41s-3-1.76-5.3-1.53a12.6 12.6 0 0 0-6.75 3.06 10.66 10.66 0 0 0-3.37 4.81c-.73 1.76-.73 5.39-.85 8s0 11.38 0 11.38v55.71l.83 11v.3l1.52 8.06a2.1 2.1 0 0 0 .06.24c.39 1.39 4.21 14.45 9 21 5.06 6.93 4.57 7.51 12.53 16.08 7.45 8 11.51 11.21 12 11.58a.39.39 0 0 1 .1.08l7 5.87.16.13 5.82 4.16 4 2.89.13.09 5.72 3.59 5.06 2.94 4.09 2.23 3.66 1.83.17.08 1.48.62a1.25 1.25 0 0 0 .25.09 4.08 4.08 0 0 0 .83.19Z" stroke="#231f20" stroke-width="35" fill="none"/>
            <path d="M127.71 615.82a3 3 0 0 0 4 .7S219 578 232.74 502.25l1.57-122.46S232.74 365 221.94 366c0 0-51 28.05-82-8.88 0 0-5.92-8.37-11.85-4.88" stroke="#231f20" stroke-width="35" fill="none"/>
            <path d="M127.71 615.82a3 3 0 0 0 4 .7S219 578 232.74 502.25l1.57-122.46S232.74 365 221.94 366c0 0-51 28.05-82-8.88 0 0-5.92-8.37-11.85-4.88" stroke="#231f20" stroke-width="35" fill="none"/>
            <path d="M132.76 615.82a3 3 0 0 1-4 .7S41.48 578 27.72 502.25l-1.57-122.46S27.72 365 38.52 366c0 0 51 28.05 82-8.88 0 0 5.93-8.37 11.85-4.88" stroke="#231f20" stroke-width="35" fill="none"/>
            <path d="M132.76 615.82a3 3 0 0 1-4 .7S41.48 578 27.72 502.25l-1.57-122.46S27.72 365 38.52 366c0 0 51 28.05 82-8.88 0 0 5.93-8.37 11.85-4.88" stroke="#231f20" stroke-width="35" fill="none"/>
            <path stroke="#231f20" stroke-width="35" fill="none" d="M133.89 360.15c0 2.358-1.679 4.27-3.75 4.27-2.071 0-3.75-1.912-3.75-4.27 0-2.358 1.679-4.27 3.75-4.27 2.071 0 3.75 1.912 3.75 4.27z"/>
            <path stroke="#231f20" stroke-width="35" fill="none" d="M133.89 360.15c0 2.358-1.679 4.27-3.75 4.27-2.071 0-3.75-1.912-3.75-4.27 0-2.358 1.679-4.27 3.75-4.27 2.071 0 3.75 1.912 3.75 4.27z"/>
            <path d="M56.88 473.93v6.56c-.15 16.84 6.43 62.21 75 100.18 0 0 65.49-31.44 73.07-83.79v-90.42a4.23 4.23 0 0 0-.79-2 2.92 2.92 0 0 0-2.67-1.07c-1.1.18-2.46.38-4 .57a99.25 99.25 0 0 1-15.49 1.12 95.57 95.57 0 0 1-14.83-1.26 80.82 80.82 0 0 1-15-3.93c-5.51-2.16-10.76-6-15.94-9.89-.84-.63-1.67-1.29-2.49-2a9.69 9.69 0 0 0-1.14-.87 2.35 2.35 0 0 0-.43-.18 4.06 4.06 0 0 0-2.54 1.09c-.86.63-1.95 1.41-3.25 2.29-4 2.72-10 7-17.46 10a78.87 78.87 0 0 1-13.73 4.4c-5.71 1.17-11.84 1-18.15.47a56.72 56.72 0 0 1-13.73-3.11q-1.11-.39-2.22-.84a2.36 2.36 0 0 0-2 .34 2.83 2.83 0 0 0-.79 1.48v29.33" stroke="#231f20" stroke-width="35" fill="none"/>
            <path d="M56.88 473.93v6.56c-.15 16.84 6.43 62.21 75 100.18 0 0 65.49-31.44 73.07-83.79v-90.42a4.23 4.23 0 0 0-.79-2 2.92 2.92 0 0 0-2.67-1.07c-1.1.18-2.46.38-4 .57a99.25 99.25 0 0 1-15.49 1.12 95.57 95.57 0 0 1-14.83-1.26 80.82 80.82 0 0 1-15-3.93c-5.51-2.16-10.76-6-15.94-9.89-.84-.63-1.67-1.29-2.49-2a9.69 9.69 0 0 0-1.14-.87 2.35 2.35 0 0 0-.43-.18 4.06 4.06 0 0 0-2.54 1.09c-.86.63-1.95 1.41-3.25 2.29-4 2.72-10 7-17.46 10a78.87 78.87 0 0 1-13.73 4.4c-5.71 1.17-11.84 1-18.15.47a56.72 56.72 0 0 1-13.73-3.11q-1.11-.39-2.22-.84a2.36 2.36 0 0 0-2 .34 2.83 2.83 0 0 0-.79 1.48v29.33" stroke="#231f20" stroke-width="35" fill="none"/>
            <path stroke="#231f20" stroke-width="35" fill="none" d="M62.95 453.42a4.725 4.725 0 0 1-4.73 4.72 4.725 4.725 0 0 1-4.73-4.72 4.725 4.725 0 0 1 4.73-4.72 4.725 4.725 0 0 1 4.73 4.72z"/>
            <path stroke="#231f20" stroke-width="35" fill="none" d="M62.95 453.42a4.725 4.725 0 0 1-4.73 4.72 4.725 4.725 0 0 1-4.73-4.72 4.725 4.725 0 0 1 4.73-4.72 4.725 4.725 0 0 1 4.73 4.72z"/>
            <path stroke="#231f20" stroke-width="35" fill="none" d="M62.64 432.82c0 2.607-1.943 4.72-4.34 4.72s-4.34-2.113-4.34-4.72c0-2.607 1.943-4.72 4.34-4.72s4.34 2.113 4.34 4.72z"/>
            <path stroke="#231f20" stroke-width="35" fill="none" d="M62.64 432.82c0 2.607-1.943 4.72-4.34 4.72s-4.34-2.113-4.34-4.72c0-2.607 1.943-4.72 4.34-4.72s4.34 2.113 4.34 4.72z"/>
            <path stroke="#231f20" stroke-width="35" fill="none" d="M61.38 473.38c0 2.607-1.979 4.72-4.42 4.72s-4.42-2.113-4.42-4.72c0-2.607 1.979-4.72 4.42-4.72s4.42 2.113 4.42 4.72z"/>
            <path stroke="#231f20" stroke-width="35" fill="none" d="M61.38 473.38c0 2.607-1.979 4.72-4.42 4.72s-4.42-2.113-4.42-4.72c0-2.607 1.979-4.72 4.42-4.72s4.42 2.113 4.42 4.72z"/>
            <path d="M70.75 427.83h3v1.66a4.55 4.55 0 0 1 4-2c2.89 0 4.16 2 4.18 4.75l.06 7.69h-3.17l-.05-6.5c0-1.49 0-3.51-2.09-3.49C74.44 430 74 432.46 74 434v6h-3.18Z" stroke="#231f20" stroke-width="35" fill="none"/>
            <path d="M70.75 427.83h3v1.66a4.55 4.55 0 0 1 4-2c2.89 0 4.16 2 4.18 4.75l.06 7.69h-3.17l-.05-6.5c0-1.49 0-3.51-2.09-3.49C74.44 430 74 432.46 74 434v6h-3.18Z" stroke="#231f20" stroke-width="35" fill="none"/>
            <path d="M94.32 439.84h-3v-1.66a5.08 5.08 0 0 1-4 2c-2.88 0-4.15-2-4.17-4.74l-.15-7.7h3.17l.05 6.51c0 1.49 0 3.5 2.08 3.48 2.3 0 2.78-2.5 2.76-4.06v-6h3.17Z" stroke="#231f20" stroke-width="35" fill="none"/>
            <path d="M94.32 439.84h-3v-1.66a5.08 5.08 0 0 1-4 2c-2.88 0-4.15-2-4.17-4.74l-.15-7.7h3.17l.05 6.51c0 1.49 0 3.5 2.08 3.48 2.3 0 2.78-2.5 2.76-4.06v-6h3.17Z" stroke="#231f20" stroke-width="35" fill="none"/>
            <path d="M96.6 430h-2.34v-2.32h2.34v-2.44l3.17-1v3.45h2.82v2.32h-2.81v5.68c0 1 .3 2 1.51 2a3 3 0 0 0 1.44-.34l.11 2.5a8.19 8.19 0 0 1-2.34.31 3.6 3.6 0 0 1-3.89-3.93Z" stroke="#231f20" stroke-width="35" fill="none"/>
            <path d="M96.6 430h-2.34v-2.32h2.34v-2.44l3.17-1v3.45h2.82v2.32h-2.81v5.68c0 1 .3 2 1.51 2a3 3 0 0 0 1.44-.34l.11 2.5a8.19 8.19 0 0 1-2.34.31 3.6 3.6 0 0 1-3.89-3.93Z" stroke="#231f20" stroke-width="35" fill="none"/>
            <path d="M103.63 427.58h2.82v2.77a3.73 3.73 0 0 1 3.31-3.08 3.62 3.62 0 0 1 1 .09v3.2a3 3 0 0 0-1.42-.25c-2.58 0-2.55 3.23-2.54 5v4.47h-3.17Z" stroke="#231f20" stroke-width="35" fill="none"/>
            <path d="M103.63 427.58h2.82v2.77a3.73 3.73 0 0 1 3.31-3.08 3.62 3.62 0 0 1 1 .09v3.2a3 3 0 0 0-1.42-.25c-2.58 0-2.55 3.23-2.54 5v4.47h-3.17Z" stroke="#231f20" stroke-width="35" fill="none"/>
            <path d="M111.5 422.27h3.17v3h-3.17Zm0 5.25h3.17l.09 12.19h-3.17Z" stroke="#231f20" stroke-width="35" fill="none"/>
            <path d="M111.5 422.27h3.17v3h-3.17Zm0 5.25h3.17l.09 12.19h-3.17Z" stroke="#231f20" stroke-width="35" fill="none"/>
            <path d="m129.45 435 2 1.74a.55.55 0 0 1 .16.37.54.54 0 0 1-.16.38 7.17 7.17 0 0 1-5.22 2.18 6.33 6.33 0 0 1-5.33-2.29 7.34 7.34 0 0 1-1.46-4.75 7.44 7.44 0 0 1 1.42-4.75 6.32 6.32 0 0 1 5.38-2.28 7.15 7.15 0 0 1 4.57 1.62.48.48 0 0 1 .21.35.46.46 0 0 1-.12.39l-1.67 1.93a.53.53 0 0 1-.34.17.55.55 0 0 1-.37-.1 3.1 3.1 0 0 0-1.89-.59 3.51 3.51 0 0 0-1.19.18 2 2 0 0 0-.78.48 2.1 2.1 0 0 0-.45.76 3.66 3.66 0 0 0-.21.87 9.05 9.05 0 0 0-.05 1 9.25 9.25 0 0 0 .05 1 3.66 3.66 0 0 0 .21.87 2.19 2.19 0 0 0 .44.75 1.86 1.86 0 0 0 .77.49 3.45 3.45 0 0 0 1.18.18 2.8 2.8 0 0 0 2.08-.87.54.54 0 0 1 .37-.15.47.47 0 0 1 .4.07Z" stroke="#231f20" stroke-width="35" fill="none"/>
            <path d="m129.45 435 2 1.74a.55.55 0 0 1 .16.37.54.54 0 0 1-.16.38 7.17 7.17 0 0 1-5.22 2.18 6.33 6.33 0 0 1-5.33-2.29 7.34 7.34 0 0 1-1.46-4.75 7.44 7.44 0 0 1 1.42-4.75 6.32 6.32 0 0 1 5.38-2.28 7.15 7.15 0 0 1 4.57 1.62.48.48 0 0 1 .21.35.46.46 0 0 1-.12.39l-1.67 1.93a.53.53 0 0 1-.34.17.55.55 0 0 1-.37-.1 3.1 3.1 0 0 0-1.89-.59 3.51 3.51 0 0 0-1.19.18 2 2 0 0 0-.78.48 2.1 2.1 0 0 0-.45.76 3.66 3.66 0 0 0-.21.87 9.05 9.05 0 0 0-.05 1 9.25 9.25 0 0 0 .05 1 3.66 3.66 0 0 0 .21.87 2.19 2.19 0 0 0 .44.75 1.86 1.86 0 0 0 .77.49 3.45 3.45 0 0 0 1.18.18 2.8 2.8 0 0 0 2.08-.87.54.54 0 0 1 .37-.15.47.47 0 0 1 .4.07Z" stroke="#231f20" stroke-width="35" fill="none"/>
            <path d="M124.51 440a6.34 6.34 0 0 1-3.93-2.32 7.85 7.85 0 0 1-1.57-5.05 8 8 0 0 1 1.52-5 6.84 6.84 0 0 1 5.76-2.46 7.69 7.69 0 0 1 4.84 1.72.93.93 0 0 1 .39.66.91.91 0 0 1-.23.76l-1.67 1.92a.92.92 0 0 1-.65.33 1.07 1.07 0 0 1-.67-.17 2.58 2.58 0 0 0-1.63-.52 2.86 2.86 0 0 0-1 .16 1.7 1.7 0 0 0-.6.36 1.73 1.73 0 0 0-.35.6 3.38 3.38 0 0 0-.19.76 8.19 8.19 0 0 0 0 .92 8.38 8.38 0 0 0 0 .93 3.38 3.38 0 0 0 .19.76 1.72 1.72 0 0 0 .34.6 1.57 1.57 0 0 0 .59.36 1.91 1.91 0 0 0 .38.1 3.16 3.16 0 0 0 .64.06 2.33 2.33 0 0 0 1.75-.73 1 1 0 0 1 1.36-.06c.7.6 1.38 1.19 2 1.74a1 1 0 0 1 .29.66 1 1 0 0 1-.29.74 7.62 7.62 0 0 1-5.55 2.32 9.86 9.86 0 0 1-1.72-.15Zm3-13.81a8.82 8.82 0 0 0-1.28-.12 5.92 5.92 0 0 0-5 2.1 7.17 7.17 0 0 0-1.32 4.47 7 7 0 0 0 1.37 4.47 5.32 5.32 0 0 0 3.37 2 8.79 8.79 0 0 0 1.59.14 6.63 6.63 0 0 0 4.89-2.05l-2-1.73V435v.46h-.06a3.24 3.24 0 0 1-2.41 1 4.14 4.14 0 0 1-.81-.07 4.26 4.26 0 0 1-.54-.15 2.33 2.33 0 0 1-1-.61 2.55 2.55 0 0 1-.53-.9 4.82 4.82 0 0 1-.24-1v-1a10.07 10.07 0 0 1 0-1 4.49 4.49 0 0 1 .25-1 2.6 2.6 0 0 1 .54-.9 2.44 2.44 0 0 1 1-.61 4 4 0 0 1 1.35-.21 3.58 3.58 0 0 1 2.17.69l1.7-1.94a6.84 6.84 0 0 0-2.99-1.62Z" stroke="#231f20" stroke-width="35" fill="none"/>
            <path d="M124.51 440a6.34 6.34 0 0 1-3.93-2.32 7.85 7.85 0 0 1-1.57-5.05 8 8 0 0 1 1.52-5 6.84 6.84 0 0 1 5.76-2.46 7.69 7.69 0 0 1 4.84 1.72.93.93 0 0 1 .39.66.91.91 0 0 1-.23.76l-1.67 1.92a.92.92 0 0 1-.65.33 1.07 1.07 0 0 1-.67-.17 2.58 2.58 0 0 0-1.63-.52 2.86 2.86 0 0 0-1 .16 1.7 1.7 0 0 0-.6.36 1.73 1.73 0 0 0-.35.6 3.38 3.38 0 0 0-.19.76 8.19 8.19 0 0 0 0 .92 8.38 8.38 0 0 0 0 .93 3.38 3.38 0 0 0 .19.76 1.72 1.72 0 0 0 .34.6 1.57 1.57 0 0 0 .59.36 1.91 1.91 0 0 0 .38.1 3.16 3.16 0 0 0 .64.06 2.33 2.33 0 0 0 1.75-.73 1 1 0 0 1 1.36-.06c.7.6 1.38 1.19 2 1.74a1 1 0 0 1 .29.66 1 1 0 0 1-.29.74 7.62 7.62 0 0 1-5.55 2.32 9.86 9.86 0 0 1-1.72-.15Zm3-13.81a8.82 8.82 0 0 0-1.28-.12 5.92 5.92 0 0 0-5 2.1 7.17 7.17 0 0 0-1.32 4.47 7 7 0 0 0 1.37 4.47 5.32 5.32 0 0 0 3.37 2 8.79 8.79 0 0 0 1.59.14 6.63 6.63 0 0 0 4.89-2.05l-2-1.73V435v.46h-.06a3.24 3.24 0 0 1-2.41 1 4.14 4.14 0 0 1-.81-.07 4.26 4.26 0 0 1-.54-.15 2.33 2.33 0 0 1-1-.61 2.55 2.55 0 0 1-.53-.9 4.82 4.82 0 0 1-.24-1v-1a10.07 10.07 0 0 1 0-1 4.49 4.49 0 0 1 .25-1 2.6 2.6 0 0 1 .54-.9 2.44 2.44 0 0 1 1-.61 4 4 0 0 1 1.35-.21 3.58 3.58 0 0 1 2.17.69l1.7-1.94a6.84 6.84 0 0 0-2.99-1.62Z" stroke="#231f20" stroke-width="35" fill="none"/>
            <path d="M136.27 431.14h3.32c0-1.58 0-3.17-.05-4.75a.51.51 0 0 1 .5-.52c1.08 0 2.16.08 3.25.17.34 0 .52.31.56.87a106.69 106.69 0 0 1 0 12.26l-.11.05-.11.08-.14.06h-.16c-1.09.07-2.17.13-3.25.16a.47.47 0 0 1-.35-.15.48.48 0 0 1-.15-.37c0-1.48 0-3 .06-4.45h-3.32v4.46a.5.5 0 0 1-.15.37.49.49 0 0 1-.35.15c-1.09 0-2.17-.1-3.23-.17a.5.5 0 0 1-.26-.08l-.21-.12h-.07a113.77 113.77 0 0 1 0-12.25c0-.56.23-.85.58-.87 1.08-.09 2.15-.14 3.23-.17a.47.47 0 0 1 .35.15.51.51 0 0 1 .15.37c-.08 1.61-.09 3.16-.09 4.75Z" stroke="#231f20" stroke-width="35" fill="none"/>
            <path d="M136.27 431.14h3.32c0-1.58 0-3.17-.05-4.75a.51.51 0 0 1 .5-.52c1.08 0 2.16.08 3.25.17.34 0 .52.31.56.87a106.69 106.69 0 0 1 0 12.26l-.11.05-.11.08-.14.06h-.16c-1.09.07-2.17.13-3.25.16a.47.47 0 0 1-.35-.15.48.48 0 0 1-.15-.37c0-1.48 0-3 .06-4.45h-3.32v4.46a.5.5 0 0 1-.15.37.49.49 0 0 1-.35.15c-1.09 0-2.17-.1-3.23-.17a.5.5 0 0 1-.26-.08l-.21-.12h-.07a113.77 113.77 0 0 1 0-12.25c0-.56.23-.85.58-.87 1.08-.09 2.15-.14 3.23-.17a.47.47 0 0 1 .35.15.51.51 0 0 1 .15.37c-.08 1.61-.09 3.16-.09 4.75Z" stroke="#231f20" stroke-width="35" fill="none"/>
            <path d="M132.4 439.83a1.1 1.1 0 0 1-.33-.12l-.18-.11a.46.46 0 0 1-.33-.42 112.33 112.33 0 0 1 0-12.31c.07-1.08.66-1.28 1-1.31 1.07-.08 2.16-.14 3.25-.16h.19a1 1 0 0 1 .5.27 1 1 0 0 1 .29.7v4.29h2.38v-4.28a1 1 0 0 1 .28-.71 1 1 0 0 1 .69-.28c1.09 0 2.19.09 3.28.17.39 0 .92.27 1 1.31a107.73 107.73 0 0 1 0 12.32.47.47 0 0 1-.33.41l-.11.08a1.33 1.33 0 0 1-.24.11.77.77 0 0 1-.29.05c-1.09.08-2.19.13-3.25.17h-.2a.86.86 0 0 1-.5-.27.93.93 0 0 1-.29-.7q0-2 .06-4h-2.39v4a1 1 0 0 1-.28.71.91.91 0 0 1-.69.28c-1.07 0-2.16-.09-3.24-.17Zm.08-1h.12c1.07.08 2.16.14 3.21.17v-4.51a.47.47 0 0 1 .14-.33.44.44 0 0 1 .33-.13h3.32a.45.45 0 0 1 .33.14.47.47 0 0 1 .14.33L140 439c1.07 0 2.16-.07 3.24-.15h.07a103.57 103.57 0 0 0 0-11.95c0-.35-.11-.43-.11-.43-1.08-.09-2.17-.15-3.24-.18v.06c0 1.58 0 3.16.05 4.75a.48.48 0 0 1-.47.47h-3.32a.46.46 0 0 1-.33-.13.47.47 0 0 1-.14-.33v-4.76c-1.08 0-2.16.07-3.21.15-.1 0-.14.28-.15.44a110.41 110.41 0 0 0 .09 11.92Z" stroke="#231f20" stroke-width="35" fill="none"/>
            <path d="M132.4 439.83a1.1 1.1 0 0 1-.33-.12l-.18-.11a.46.46 0 0 1-.33-.42 112.33 112.33 0 0 1 0-12.31c.07-1.08.66-1.28 1-1.31 1.07-.08 2.16-.14 3.25-.16h.19a1 1 0 0 1 .5.27 1 1 0 0 1 .29.7v4.29h2.38v-4.28a1 1 0 0 1 .28-.71 1 1 0 0 1 .69-.28c1.09 0 2.19.09 3.28.17.39 0 .92.27 1 1.31a107.73 107.73 0 0 1 0 12.32.47.47 0 0 1-.33.41l-.11.08a1.33 1.33 0 0 1-.24.11.77.77 0 0 1-.29.05c-1.09.08-2.19.13-3.25.17h-.2a.86.86 0 0 1-.5-.27.93.93 0 0 1-.29-.7q0-2 .06-4h-2.39v4a1 1 0 0 1-.28.71.91.91 0 0 1-.69.28c-1.07 0-2.16-.09-3.24-.17Zm.08-1h.12c1.07.08 2.16.14 3.21.17v-4.51a.47.47 0 0 1 .14-.33.44.44 0 0 1 .33-.13h3.32a.45.45 0 0 1 .33.14.47.47 0 0 1 .14.33L140 439c1.07 0 2.16-.07 3.24-.15h.07a103.57 103.57 0 0 0 0-11.95c0-.35-.11-.43-.11-.43-1.08-.09-2.17-.15-3.24-.18v.06c0 1.58 0 3.16.05 4.75a.48.48 0 0 1-.47.47h-3.32a.46.46 0 0 1-.33-.13.47.47 0 0 1-.14-.33v-4.76c-1.08 0-2.16.07-3.21.15-.1 0-.14.28-.15.44a110.41 110.41 0 0 0 .09 11.92Z" stroke="#231f20" stroke-width="35" fill="none"/>
            <path d="M149 434.77a1 1 0 0 0 .32.8 1.21 1.21 0 0 0 .82.28 1.19 1.19 0 0 0 .82-.29 1 1 0 0 0 .33-.79v-8.43a.54.54 0 0 1 .15-.38.46.46 0 0 1 .37-.14c1.08 0 2.15.09 3.23.17a.62.62 0 0 1 .36.18.57.57 0 0 1 .18.38c.14 2.84.18 5.67.12 8.51a4.23 4.23 0 0 1-1.79 3.41 5.85 5.85 0 0 1-3.75 1.2 5.92 5.92 0 0 1-3.75-1.21 4.25 4.25 0 0 1-1.76-3.41c-.06-2.84 0-5.67.14-8.51a.57.57 0 0 1 .18-.38.62.62 0 0 1 .36-.18c1.09-.08 2.17-.14 3.23-.16a.43.43 0 0 1 .37.14.54.54 0 0 1 .15.38q-.08 4.21-.08 8.43Z" stroke="#231f20" stroke-width="35" fill="none"/>
            <path d="M149 434.77a1 1 0 0 0 .32.8 1.21 1.21 0 0 0 .82.28 1.19 1.19 0 0 0 .82-.29 1 1 0 0 0 .33-.79v-8.43a.54.54 0 0 1 .15-.38.46.46 0 0 1 .37-.14c1.08 0 2.15.09 3.23.17a.62.62 0 0 1 .36.18.57.57 0 0 1 .18.38c.14 2.84.18 5.67.12 8.51a4.23 4.23 0 0 1-1.79 3.41 5.85 5.85 0 0 1-3.75 1.2 5.92 5.92 0 0 1-3.75-1.21 4.25 4.25 0 0 1-1.76-3.41c-.06-2.84 0-5.67.14-8.51a.57.57 0 0 1 .18-.38.62.62 0 0 1 .36-.18c1.09-.08 2.17-.14 3.23-.16a.43.43 0 0 1 .37.14.54.54 0 0 1 .15.38q-.08 4.21-.08 8.43Z" stroke="#231f20" stroke-width="35" fill="none"/>
            <path d="M148.77 440a6.11 6.11 0 0 1-2.66-1.19 4.7 4.7 0 0 1-1.94-3.78c-.06-2.82 0-5.69.13-8.53a1.12 1.12 0 0 1 .32-.69 1 1 0 0 1 .65-.31c1.09-.09 2.19-.14 3.26-.17a1 1 0 0 1 .23 0 .86.86 0 0 1 .49.27 1 1 0 0 1 .28.7c0 2.8-.06 5.63-.05 8.43a.53.53 0 0 0 .16.45.69.69 0 0 0 .31.15h.2a.7.7 0 0 0 .51-.17.5.5 0 0 0 .17-.44v-8.42a1 1 0 0 1 .28-.71.9.9 0 0 1 .73-.28c1.07 0 2.16.08 3.25.17h.1a1 1 0 0 1 .55.3 1 1 0 0 1 .31.67c.15 2.86.19 5.73.13 8.56a4.68 4.68 0 0 1-2 3.77 6.45 6.45 0 0 1-4 1.3 7.67 7.67 0 0 1-1.41-.08Zm-.2-13.74c-1.07 0-2.15.08-3.22.17a.08.08 0 0 0-.07 0 .16.16 0 0 0-.05.09c-.14 2.81-.19 5.65-.13 8.46a3.77 3.77 0 0 0 1.58 3.06 6 6 0 0 0 6.93 0 3.72 3.72 0 0 0 1.6-3.05c.07-2.81 0-5.66-.12-8.47a.1.1 0 0 0 0-.08s-.05 0-.06 0c-1.08-.09-2.16-.15-3.21-.17v8.44a1.44 1.44 0 0 1-.48 1.13 1.63 1.63 0 0 1-1.13.4 1.5 1.5 0 0 1-.37 0 1.5 1.5 0 0 1-.76-.36 1.48 1.48 0 0 1-.47-1.15v-8.44a.06.06 0 0 0-.04-.01Z" stroke="#231f20" stroke-width="35" fill="none"/>
            <path d="M148.77 440a6.11 6.11 0 0 1-2.66-1.19 4.7 4.7 0 0 1-1.94-3.78c-.06-2.82 0-5.69.13-8.53a1.12 1.12 0 0 1 .32-.69 1 1 0 0 1 .65-.31c1.09-.09 2.19-.14 3.26-.17a1 1 0 0 1 .23 0 .86.86 0 0 1 .49.27 1 1 0 0 1 .28.7c0 2.8-.06 5.63-.05 8.43a.53.53 0 0 0 .16.45.69.69 0 0 0 .31.15h.2a.7.7 0 0 0 .51-.17.5.5 0 0 0 .17-.44v-8.42a1 1 0 0 1 .28-.71.9.9 0 0 1 .73-.28c1.07 0 2.16.08 3.25.17h.1a1 1 0 0 1 .55.3 1 1 0 0 1 .31.67c.15 2.86.19 5.73.13 8.56a4.68 4.68 0 0 1-2 3.77 6.45 6.45 0 0 1-4 1.3 7.67 7.67 0 0 1-1.41-.08Zm-.2-13.74c-1.07 0-2.15.08-3.22.17a.08.08 0 0 0-.07 0 .16.16 0 0 0-.05.09c-.14 2.81-.19 5.65-.13 8.46a3.77 3.77 0 0 0 1.58 3.06 6 6 0 0 0 6.93 0 3.72 3.72 0 0 0 1.6-3.05c.07-2.81 0-5.66-.12-8.47a.1.1 0 0 0 0-.08s-.05 0-.06 0c-1.08-.09-2.16-.15-3.21-.17v8.44a1.44 1.44 0 0 1-.48 1.13 1.63 1.63 0 0 1-1.13.4 1.5 1.5 0 0 1-.37 0 1.5 1.5 0 0 1-.76-.36 1.48 1.48 0 0 1-.47-1.15v-8.44a.06.06 0 0 0-.04-.01Z" stroke="#231f20" stroke-width="35" fill="none"/>
            <path d="M164.77 432.46c0-2 0-4-.06-6a.57.57 0 0 1 .14-.38.48.48 0 0 1 .38-.14c1.07 0 2.15.08 3.23.15a.64.64 0 0 1 .36.19.6.6 0 0 1 .17.37 100.3 100.3 0 0 1 0 12.26.45.45 0 0 1 0 .2 1.09 1.09 0 0 1-.13.17.52.52 0 0 1-.17.12l-.2.06c-1.16.08-2.32.12-3.47.15a.45.45 0 0 1-.43-.22c-.87-1.42-2.17-3.44-3.87-6.06 0 1.92 0 3.84.05 5.75a.5.5 0 0 1-.5.52c-1.08 0-2.16-.09-3.23-.15a.55.55 0 0 1-.38-.18.61.61 0 0 1-.18-.38 102.18 102.18 0 0 1 0-12.25.57.57 0 0 1 .18-.37.6.6 0 0 1 .34-.27c1.06-.07 2.13-.12 3.19-.14a.4.4 0 0 1 .41.22q1.4 2.19 4.17 6.38Z" stroke="#231f20" stroke-width="35" fill="none"/>
            <path d="M164.77 432.46c0-2 0-4-.06-6a.57.57 0 0 1 .14-.38.48.48 0 0 1 .38-.14c1.07 0 2.15.08 3.23.15a.64.64 0 0 1 .36.19.6.6 0 0 1 .17.37 100.3 100.3 0 0 1 0 12.26.45.45 0 0 1 0 .2 1.09 1.09 0 0 1-.13.17.52.52 0 0 1-.17.12l-.2.06c-1.16.08-2.32.12-3.47.15a.45.45 0 0 1-.43-.22c-.87-1.42-2.17-3.44-3.87-6.06 0 1.92 0 3.84.05 5.75a.5.5 0 0 1-.5.52c-1.08 0-2.16-.09-3.23-.15a.55.55 0 0 1-.38-.18.61.61 0 0 1-.18-.38 102.18 102.18 0 0 1 0-12.25.57.57 0 0 1 .18-.37.6.6 0 0 1 .34-.27c1.06-.07 2.13-.12 3.19-.14a.4.4 0 0 1 .41.22q1.4 2.19 4.17 6.38Z" stroke="#231f20" stroke-width="35" fill="none"/>
            <path d="M156.84 439.85a1.07 1.07 0 0 1-.57-.31 1.08 1.08 0 0 1-.3-.66 101.28 101.28 0 0 1 0-12.32 1 1 0 0 1 .3-.66 1 1 0 0 1 .68-.33c1.08-.08 2.16-.12 3.22-.15a.93.93 0 0 1 .23 0 .83.83 0 0 1 .59.43c.77 1.2 1.88 2.9 3.3 5.05 0-1.49 0-3-.06-4.5a1 1 0 0 1 .27-.71.89.89 0 0 1 .75-.28c1.08 0 2.17.08 3.23.15h.1a1 1 0 0 1 .57.32 1.06 1.06 0 0 1 .3.65 103.17 103.17 0 0 1 0 12.31.91.91 0 0 1-.1.4 1.12 1.12 0 0 1-.21.29 1 1 0 0 1-.31.21 1 1 0 0 1-.29.1h-.07c-1.15.07-2.33.12-3.49.14a.92.92 0 0 1-.23 0 .9.9 0 0 1-.6-.43c-.72-1.16-1.71-2.71-3-4.72V439a1 1 0 0 1-.28.71 1 1 0 0 1-.68.28c-1.13 0-2.22-.09-3.26-.15Zm3.36-13.5c-1 0-2.12.08-3.17.15h-.07c-.07 0-.05.08-.05.09a99.15 99.15 0 0 0 0 12.19v.08c0 .08 0 0 .06 0 1 .06 2.11.11 3.21.15v-.06c0-1.9-.05-3.84-.05-5.75a.47.47 0 0 1 .34-.45.47.47 0 0 1 .52.19c1.74 2.68 3 4.66 3.88 6.07 1.14 0 2.29-.07 3.41-.14h.08a101.68 101.68 0 0 0 0-12.22.3.3 0 0 0-.05-.08s0 0-.06 0c-1-.07-2.12-.13-3.21-.15a.2.2 0 0 0 0 .05c.05 2 .07 4.06.07 6a.47.47 0 0 1-.33.45.46.46 0 0 1-.52-.19c-1.86-2.78-3.27-4.92-4.18-6.36Z" stroke="#231f20" stroke-width="35" fill="none"/>
            <path d="M156.84 439.85a1.07 1.07 0 0 1-.57-.31 1.08 1.08 0 0 1-.3-.66 101.28 101.28 0 0 1 0-12.32 1 1 0 0 1 .3-.66 1 1 0 0 1 .68-.33c1.08-.08 2.16-.12 3.22-.15a.93.93 0 0 1 .23 0 .83.83 0 0 1 .59.43c.77 1.2 1.88 2.9 3.3 5.05 0-1.49 0-3-.06-4.5a1 1 0 0 1 .27-.71.89.89 0 0 1 .75-.28c1.08 0 2.17.08 3.23.15h.1a1 1 0 0 1 .57.32 1.06 1.06 0 0 1 .3.65 103.17 103.17 0 0 1 0 12.31.91.91 0 0 1-.1.4 1.12 1.12 0 0 1-.21.29 1 1 0 0 1-.31.21 1 1 0 0 1-.29.1h-.07c-1.15.07-2.33.12-3.49.14a.92.92 0 0 1-.23 0 .9.9 0 0 1-.6-.43c-.72-1.16-1.71-2.71-3-4.72V439a1 1 0 0 1-.28.71 1 1 0 0 1-.68.28c-1.13 0-2.22-.09-3.26-.15Zm3.36-13.5c-1 0-2.12.08-3.17.15h-.07c-.07 0-.05.08-.05.09a99.15 99.15 0 0 0 0 12.19v.08c0 .08 0 0 .06 0 1 .06 2.11.11 3.21.15v-.06c0-1.9-.05-3.84-.05-5.75a.47.47 0 0 1 .34-.45.47.47 0 0 1 .52.19c1.74 2.68 3 4.66 3.88 6.07 1.14 0 2.29-.07 3.41-.14h.08a101.68 101.68 0 0 0 0-12.22.3.3 0 0 0-.05-.08s0 0-.06 0c-1-.07-2.12-.13-3.21-.15a.2.2 0 0 0 0 .05c.05 2 .07 4.06.07 6a.47.47 0 0 1-.33.45.46.46 0 0 1-.52-.19c-1.86-2.78-3.27-4.92-4.18-6.36Z" stroke="#231f20" stroke-width="35" fill="none"/>
            <path d="M181.14 438.59a.52.52 0 0 1 0 .51.55.55 0 0 1-.46.29c-1.07.07-2.12.13-3.18.16a.44.44 0 0 1-.44-.26c-.64-1-1.39-2.21-2.23-3.51a5.15 5.15 0 0 1-.55-1.19v4.44a.51.51 0 0 1-.52.52c-1.08 0-2.15-.08-3.23-.17a.52.52 0 0 1-.36-.18.55.55 0 0 1-.18-.38 113.76 113.76 0 0 1 0-12.25.74.74 0 0 1 .18-.38.57.57 0 0 1 .36-.18c1.08-.07 2.16-.13 3.23-.16a.48.48 0 0 1 .52.52v5.21a5.72 5.72 0 0 1 .28-.68c1-2 1.74-3.57 2.33-4.81a.48.48 0 0 1 .44-.24c1.05 0 2.11.08 3.16.17a.54.54 0 0 1 .47.29.45.45 0 0 1 0 .51c-.66 1.43-1.74 3.68-3.24 6.73Z" stroke="#231f20" stroke-width="35" fill="none"/>
            <path d="M181.14 438.59a.52.52 0 0 1 0 .51.55.55 0 0 1-.46.29c-1.07.07-2.12.13-3.18.16a.44.44 0 0 1-.44-.26c-.64-1-1.39-2.21-2.23-3.51a5.15 5.15 0 0 1-.55-1.19v4.44a.51.51 0 0 1-.52.52c-1.08 0-2.15-.08-3.23-.17a.52.52 0 0 1-.36-.18.55.55 0 0 1-.18-.38 113.76 113.76 0 0 1 0-12.25.74.74 0 0 1 .18-.38.57.57 0 0 1 .36-.18c1.08-.07 2.16-.13 3.23-.16a.48.48 0 0 1 .52.52v5.21a5.72 5.72 0 0 1 .28-.68c1-2 1.74-3.57 2.33-4.81a.48.48 0 0 1 .44-.24c1.05 0 2.11.08 3.16.17a.54.54 0 0 1 .47.29.45.45 0 0 1 0 .51c-.66 1.43-1.74 3.68-3.24 6.73Z" stroke="#231f20" stroke-width="35" fill="none"/>
            <path d="M170.38 439.83a1 1 0 0 1-.55-.3 1 1 0 0 1-.31-.67 112.52 112.52 0 0 1 0-12.32 1.06 1.06 0 0 1 .3-.67 1.1 1.1 0 0 1 .66-.33c1.08-.07 2.17-.12 3.26-.16h.21a.9.9 0 0 1 .5.26 1 1 0 0 1 .29.71v3.07c.67-1.38 1.25-2.57 1.7-3.55a1 1 0 0 1 .84-.47c1.08 0 2.15.09 3.2.17h.13a1 1 0 0 1 .71.5.92.92 0 0 1 0 1c-.65 1.42-1.69 3.6-3.11 6.49l3.3 4.81v.07a1 1 0 0 1-.07.94 1 1 0 0 1-.83.51c-1 .08-2.11.13-3.19.17h-.22a.91.91 0 0 1-.65-.48c-.55-.89-1.19-1.9-1.9-3v2.51a1 1 0 0 1-.29.71.92.92 0 0 1-.7.28c-1.1 0-2.2-.08-3.27-.17Zm.18-13.36h-.05a.13.13 0 0 0 0 .1 110 110 0 0 0 0 12.18.09.09 0 0 0 0 .08s0 0 .06 0c1.05.09 2.13.15 3.2.17v-4.44a.47.47 0 0 1 .91-.14 4.65 4.65 0 0 0 .51 1.08c.84 1.31 1.59 2.49 2.23 3.52 1 0 2.1-.1 3.14-.17l.08-.06v-.06l-3.41-5a.44.44 0 0 1 0-.47c1.48-3 2.56-5.28 3.23-6.73v-.05c0-.07-.06-.05-.1-.06-1-.08-2.1-.14-3.14-.17-.59 1.26-1.37 2.86-2.31 4.78a4.78 4.78 0 0 0-.26.62.45.45 0 0 1-.51.32.45.45 0 0 1-.39-.46v-5.22c-1.11 0-2.19.08-3.25.15Z" stroke="#231f20" stroke-width="35" fill="none"/>
            <path d="M170.38 439.83a1 1 0 0 1-.55-.3 1 1 0 0 1-.31-.67 112.52 112.52 0 0 1 0-12.32 1.06 1.06 0 0 1 .3-.67 1.1 1.1 0 0 1 .66-.33c1.08-.07 2.17-.12 3.26-.16h.21a.9.9 0 0 1 .5.26 1 1 0 0 1 .29.71v3.07c.67-1.38 1.25-2.57 1.7-3.55a1 1 0 0 1 .84-.47c1.08 0 2.15.09 3.2.17h.13a1 1 0 0 1 .71.5.92.92 0 0 1 0 1c-.65 1.42-1.69 3.6-3.11 6.49l3.3 4.81v.07a1 1 0 0 1-.07.94 1 1 0 0 1-.83.51c-1 .08-2.11.13-3.19.17h-.22a.91.91 0 0 1-.65-.48c-.55-.89-1.19-1.9-1.9-3v2.51a1 1 0 0 1-.29.71.92.92 0 0 1-.7.28c-1.1 0-2.2-.08-3.27-.17Zm.18-13.36h-.05a.13.13 0 0 0 0 .1 110 110 0 0 0 0 12.18.09.09 0 0 0 0 .08s0 0 .06 0c1.05.09 2.13.15 3.2.17v-4.44a.47.47 0 0 1 .91-.14 4.65 4.65 0 0 0 .51 1.08c.84 1.31 1.59 2.49 2.23 3.52 1 0 2.1-.1 3.14-.17l.08-.06v-.06l-3.41-5a.44.44 0 0 1 0-.47c1.48-3 2.56-5.28 3.23-6.73v-.05c0-.07-.06-.05-.1-.06-1-.08-2.1-.14-3.14-.17-.59 1.26-1.37 2.86-2.31 4.78a4.78 4.78 0 0 0-.26.62.45.45 0 0 1-.51.32.45.45 0 0 1-.39-.46v-5.22c-1.11 0-2.19.08-3.25.15Z" stroke="#231f20" stroke-width="35" fill="none"/>
            <path d="M187.58 430.83a5.67 5.67 0 0 1 3.29 1.53 3.62 3.62 0 0 1 1 2.75 4.26 4.26 0 0 1-1.5 3.14 6.15 6.15 0 0 1-4.2 1.46 8.62 8.62 0 0 1-4.87-1.75.55.55 0 0 1-.22-.6c.23-.66.47-1.38.73-2.15a.48.48 0 0 1 .31-.31.59.59 0 0 1 .45 0q.3.17.93.6a9.63 9.63 0 0 0 1.09.65 2.05 2.05 0 0 0 .9.22c1 0 1.55-.25 1.56-.79s-.58-.88-1.73-1.06a5.36 5.36 0 0 1-3.09-1.49 3.81 3.81 0 0 1-1-2.79 4.45 4.45 0 0 1 1.32-3 4.94 4.94 0 0 1 3.59-1.49 9.18 9.18 0 0 1 4.77 1.18.53.53 0 0 1 .24.27.56.56 0 0 1 0 .36c-.1.67-.22 1.36-.36 2.08a.47.47 0 0 1-.29.31.58.58 0 0 1-.43 0 8.32 8.32 0 0 0-3.31-.94 1 1 0 0 0-.65.23.67.67 0 0 0-.28.53.75.75 0 0 0 .38.66 3.37 3.37 0 0 0 1.37.4Z" stroke="#231f20" stroke-width="35" fill="none"/>
            <path d="M187.58 430.83a5.67 5.67 0 0 1 3.29 1.53 3.62 3.62 0 0 1 1 2.75 4.26 4.26 0 0 1-1.5 3.14 6.15 6.15 0 0 1-4.2 1.46 8.62 8.62 0 0 1-4.87-1.75.55.55 0 0 1-.22-.6c.23-.66.47-1.38.73-2.15a.48.48 0 0 1 .31-.31.59.59 0 0 1 .45 0q.3.17.93.6a9.63 9.63 0 0 0 1.09.65 2.05 2.05 0 0 0 .9.22c1 0 1.55-.25 1.56-.79s-.58-.88-1.73-1.06a5.36 5.36 0 0 1-3.09-1.49 3.81 3.81 0 0 1-1-2.79 4.45 4.45 0 0 1 1.32-3 4.94 4.94 0 0 1 3.59-1.49 9.18 9.18 0 0 1 4.77 1.18.53.53 0 0 1 .24.27.56.56 0 0 1 0 .36c-.1.67-.22 1.36-.36 2.08a.47.47 0 0 1-.29.31.58.58 0 0 1-.43 0 8.32 8.32 0 0 0-3.31-.94 1 1 0 0 0-.65.23.67.67 0 0 0-.28.53.75.75 0 0 0 .38.66 3.37 3.37 0 0 0 1.37.4Z" stroke="#231f20" stroke-width="35" fill="none"/>
            <path d="M184.93 440.05a9.92 9.92 0 0 1-3.84-1.71 1 1 0 0 1-.41-1.09c.23-.7.47-1.41.73-2.17a.92.92 0 0 1 .6-.61 1 1 0 0 1 .82 0c.22.12.54.32 1 .62a8.75 8.75 0 0 0 1 .62 1.54 1.54 0 0 0 .69.18c.77 0 1-.15 1-.2a.14.14 0 0 0 0-.13c0-.18-.31-.41-1.17-.58h-.28a5.71 5.71 0 0 1-3.24-1.62 4.31 4.31 0 0 1-1.14-3.11 4.93 4.93 0 0 1 1.45-3.34 5.41 5.41 0 0 1 3.92-1.62 9.65 9.65 0 0 1 5 1.24 1 1 0 0 1 .44.49 1 1 0 0 1 0 .64c-.09.65-.21 1.35-.35 2.07a.14.14 0 0 1 0 .06.94.94 0 0 1-.56.59 1 1 0 0 1-.78 0 7.88 7.88 0 0 0-3.13-.89.58.58 0 0 0-.36.12c-.09.08-.1.13-.1.18s0 .16.17.27a2.78 2.78 0 0 0 .92.29h.21l.29.05a6 6 0 0 1 3.39 1.6 4.12 4.12 0 0 1 1.19 3.09 4.73 4.73 0 0 1-1.66 3.47 6.5 6.5 0 0 1-4.51 1.58 7 7 0 0 1-1.29-.09Zm-2.56-4.71c-.26.78-.51 1.49-.72 2.15l.06.08a8.14 8.14 0 0 0 4.58 1.65 5.69 5.69 0 0 0 3.89-1.34 3.81 3.81 0 0 0 1.35-2.8 3.17 3.17 0 0 0-.92-2.41 5.27 5.27 0 0 0-3-1.4h-.23a3.44 3.44 0 0 1-1.26-.44 1.2 1.2 0 0 1-.59-1.05 1.15 1.15 0 0 1 .45-.9 1.51 1.51 0 0 1 .94-.32 8.69 8.69 0 0 1 3.51 1h.07c.13-.71.25-1.39.35-2a.13.13 0 0 1 0-.06v-.05a8.64 8.64 0 0 0-4.54-1.12 4.44 4.44 0 0 0-3.26 1.34 3.94 3.94 0 0 0-1.18 2.71 3.29 3.29 0 0 0 .88 2.46 4.79 4.79 0 0 0 2.73 1.33h.28c1.28.24 1.93.74 1.93 1.49a1.09 1.09 0 0 1-.32.79 2.32 2.32 0 0 1-1.71.47 2.54 2.54 0 0 1-1.09-.27 9.69 9.69 0 0 1-1.15-.68c-.42-.29-.72-.48-.9-.58Z" stroke="#231f20" stroke-width="35" fill="none"/>
            <path d="M184.93 440.05a9.92 9.92 0 0 1-3.84-1.71 1 1 0 0 1-.41-1.09c.23-.7.47-1.41.73-2.17a.92.92 0 0 1 .6-.61 1 1 0 0 1 .82 0c.22.12.54.32 1 .62a8.75 8.75 0 0 0 1 .62 1.54 1.54 0 0 0 .69.18c.77 0 1-.15 1-.2a.14.14 0 0 0 0-.13c0-.18-.31-.41-1.17-.58h-.28a5.71 5.71 0 0 1-3.24-1.62 4.31 4.31 0 0 1-1.14-3.11 4.93 4.93 0 0 1 1.45-3.34 5.41 5.41 0 0 1 3.92-1.62 9.65 9.65 0 0 1 5 1.24 1 1 0 0 1 .44.49 1 1 0 0 1 0 .64c-.09.65-.21 1.35-.35 2.07a.14.14 0 0 1 0 .06.94.94 0 0 1-.56.59 1 1 0 0 1-.78 0 7.88 7.88 0 0 0-3.13-.89.58.58 0 0 0-.36.12c-.09.08-.1.13-.1.18s0 .16.17.27a2.78 2.78 0 0 0 .92.29h.21l.29.05a6 6 0 0 1 3.39 1.6 4.12 4.12 0 0 1 1.19 3.09 4.73 4.73 0 0 1-1.66 3.47 6.5 6.5 0 0 1-4.51 1.58 7 7 0 0 1-1.29-.09Zm-2.56-4.71c-.26.78-.51 1.49-.72 2.15l.06.08a8.14 8.14 0 0 0 4.58 1.65 5.69 5.69 0 0 0 3.89-1.34 3.81 3.81 0 0 0 1.35-2.8 3.17 3.17 0 0 0-.92-2.41 5.27 5.27 0 0 0-3-1.4h-.23a3.44 3.44 0 0 1-1.26-.44 1.2 1.2 0 0 1-.59-1.05 1.15 1.15 0 0 1 .45-.9 1.51 1.51 0 0 1 .94-.32 8.69 8.69 0 0 1 3.51 1h.07c.13-.71.25-1.39.35-2a.13.13 0 0 1 0-.06v-.05a8.64 8.64 0 0 0-4.54-1.12 4.44 4.44 0 0 0-3.26 1.34 3.94 3.94 0 0 0-1.18 2.71 3.29 3.29 0 0 0 .88 2.46 4.79 4.79 0 0 0 2.73 1.33h.28c1.28.24 1.93.74 1.93 1.49a1.09 1.09 0 0 1-.32.79 2.32 2.32 0 0 1-1.71.47 2.54 2.54 0 0 1-1.09-.27 9.69 9.69 0 0 1-1.15-.68c-.42-.29-.72-.48-.9-.58Z" stroke="#231f20" stroke-width="35" fill="none"/>
            <path d="M88 450.71a8.15 8.15 0 0 1-1.77 5.46 6.48 6.48 0 0 1-5.23 2.21c-.37 0-.93 0-1.67-.06s-1.31-.06-1.68-.06-.6.17-.6.51 0 1.07.12 1.91.13 1.48.13 1.89c0 .22-.1.32-.29.32-.57 0-1.42 0-2.55-.05s-2 0-2.55 0a.36.36 0 0 1-.4-.41v-9.28q0-4.38-.38-9.19v-.19c0-.18.12-.29.42-.32a46.67 46.67 0 0 1 4.78-.14c1.46 0 2.86 0 4.19.05A7.64 7.64 0 0 1 86 445.4a7.13 7.13 0 0 1 2 5.31Zm-5.55.23c0-2.16-1.06-3.25-3.16-3.25-1.49 0-2.27.09-2.34.25a21.74 21.74 0 0 0-.1 3.22v2.55c0 .28.84.28 2.51.28q3.1.01 3.11-3.05Z" stroke="#231f20" stroke-width="35" fill="none"/>
            <path d="M106.52 462.66c0 .06-.1.11-.28.14a26.15 26.15 0 0 1-2.66.08c-1.21 0-2 0-2.48-.08a1.3 1.3 0 0 1-.34-.07.56.56 0 0 1-.2-.28c-.14-.36-.34-.9-.61-1.62-.36-.92-.93-2.29-1.7-4.1a1.24 1.24 0 0 0-1.16-.6h-1.43c-.14 0-.21.23-.21.71s.06 1.57.18 2.82.17 2.2.17 2.83c0 .16 0 .25-.13.28h-.38c-.55 0-1.41.06-2.57.06a20 20 0 0 1-2.39-.08c-.27-.06-.4-.2-.4-.44 0-1 0-2.56.14-4.62s.15-3.6.15-4.63q0-5.89-.27-9.19v-.19c0-.16.14-.27.44-.32s1.72-.11 4.25-.17q2.58-.06 4.11-.06a8.69 8.69 0 0 1 5.18 1.44 5.36 5.36 0 0 1 2.26 4.66 7.49 7.49 0 0 1-.58 3.24 6.59 6.59 0 0 1-2.16 2.36c-.21.14-.32.28-.32.41s.57 1.16 1.7 3.5a25.82 25.82 0 0 1 1.69 3.92Zm-5.85-12.49a2.5 2.5 0 0 0-1.11-2.35 5.65 5.65 0 0 0-2.7-.5c-.88 0-1.35.13-1.41.4a26.35 26.35 0 0 0-.08 2.73v1.88c0 .05.14.09.44.14a12.77 12.77 0 0 0 1.78.12c2.07 0 3.08-.8 3.08-2.42Z" stroke="#231f20" stroke-width="35" fill="none"/>
            <path d="M127.42 453.05a10.18 10.18 0 0 1-2.77 7.28 10 10 0 0 1-14.29 0 10.09 10.09 0 0 1-2.78-7.25 10.2 10.2 0 0 1 2.78-7.28 9.94 9.94 0 0 1 14.27 0 10.27 10.27 0 0 1 2.79 7.25Zm-5.27 0a5.18 5.18 0 0 0-1.27-3.54 4.28 4.28 0 0 0-3.38-1.54 4.23 4.23 0 0 0-3.33 1.59 5.24 5.24 0 0 0-1.32 3.52 5.17 5.17 0 0 0 1.24 3.55 4.33 4.33 0 0 0 3.41 1.49 4.28 4.28 0 0 0 3.34-1.57 5.18 5.18 0 0 0 1.31-3.55Z" stroke="#231f20" stroke-width="35" fill="none"/>
            <path d="M143.05 447.53c0 .18-.1.28-.3.28-.35 0-1.75-.07-4.19-.21-.06 2.34-.08 4-.08 4.91 0 1.09 0 2.74.13 4.94s.13 3.85.13 4.94c0 .18 0 .29-.13.34a1.48 1.48 0 0 1-.38.07 21.1 21.1 0 0 1-2.45.11 20 20 0 0 1-2.52-.11.41.41 0 0 1-.39-.44c0-1.09 0-2.73.14-4.92s.13-3.84.13-4.93c0-.72 0-2.34-.11-4.84q-2.78.27-4.44.27c-.15 0-.22 0-.22-.13a8.48 8.48 0 0 1 .2-1.08c.14-.65.23-1 .25-1.18 0-.44.06-.87.09-1.31.07-.69.18-1 .34-1h.19a55.33 55.33 0 0 0 6.67.29c.83 0 2.37-.08 4.62-.26l1.82-.14h.32c.02 0 0 .11.06.27s0 .6 0 1v1.05a8.42 8.42 0 0 0 .09 1 8.29 8.29 0 0 1 .03 1.08Z" stroke="#231f20" stroke-width="35" fill="none"/>
            <path d="M158.8 458.47a17.9 17.9 0 0 1-.24 2.2 8.55 8.55 0 0 1-.44 2.07.52.52 0 0 1-.46.26 2.82 2.82 0 0 1-.42 0q-1-.13-5.93-.14H145c-.31 0-.46-.14-.46-.41 0-1 .06-2.6.17-4.68s.18-3.65.18-4.69-.06-3-.17-5.91q0-1.11-.15-3.33v-.19c0-.21.1-.32.35-.32.69 0 1.72 0 3.1.05s2.41.06 3.09.06 1.7 0 3.07-.06 2.38-.05 3.06-.05c.48 0 .76.18.83.54.05.21.12.86.22 1.94s.15 1.74.15 2a.25.25 0 0 1-.28.29h-.3c-2.46-.2-4.68-.31-6.65-.31-.49 0-.79.12-.9.35a4.16 4.16 0 0 0-.07 1.07 2 2 0 0 0 .28 1.26 1.21 1.21 0 0 0 .9.26h1.21c1.17 0 2.35 0 3.55-.1l.77-.07a5.82 5.82 0 0 1 .75-.05c.22 0 .33.1.33.32a21 21 0 0 0-.25 2.13c-.07.74-.11 1.48-.11 2.22 0 .19-.13.28-.4.28l-1.26-.14c-.52-.05-1.73-.08-3.62-.08h-1.47c-.38 0-.6.09-.67.28s0 .33 0 .86a3.83 3.83 0 0 0 .14 1.36c.15.36.75.57 1.78.63h2c.49 0 1.22 0 2.19-.13s1.7-.13 2.18-.13c.15-.11.26.02.26.36Z" stroke="#231f20" stroke-width="35" fill="none"/>
            <path d="M176.91 459.65a1 1 0 0 1-.3.58 8.4 8.4 0 0 1-6.8 3 9.11 9.11 0 0 1-7.05-3 10.32 10.32 0 0 1-2.63-7.24 10.53 10.53 0 0 1 2.58-7.18 8.65 8.65 0 0 1 6.83-3.09 9.12 9.12 0 0 1 7.07 2.77.83.83 0 0 1 .28.54 8.42 8.42 0 0 1-1 2 11.42 11.42 0 0 1-1.21 1.91.37.37 0 0 1-.28.11 3.31 3.31 0 0 1-.7-.56 7.54 7.54 0 0 0-1.47-1 5.06 5.06 0 0 0-2.29-.56 4 4 0 0 0-3.27 1.54 5.44 5.44 0 0 0-1.12 3.5 5.56 5.56 0 0 0 1.12 3.55 4 4 0 0 0 3.27 1.56 5.07 5.07 0 0 0 2.3-.53 6.92 6.92 0 0 0 1.45-1 3.69 3.69 0 0 1 .68-.53.39.39 0 0 1 .28.15c.15.17.55.75 1.21 1.74a10.19 10.19 0 0 1 1.05 1.74Z" stroke="#231f20" stroke-width="35" fill="none"/>
            <path d="M192 447.53c0 .18-.11.28-.31.28s-1.75-.07-4.19-.21c-.06 2.34-.08 4-.08 4.91 0 1.09 0 2.74.13 4.94s.13 3.85.13 4.94c0 .18 0 .29-.12.34a1.77 1.77 0 0 1-.39.07 21.1 21.1 0 0 1-2.45.11 20 20 0 0 1-2.52-.11.41.41 0 0 1-.39-.44c0-1.09 0-2.73.14-4.92s.14-3.84.14-4.93c0-.72 0-2.34-.12-4.84q-2.77.27-4.44.27c-.15 0-.22 0-.22-.13a8.48 8.48 0 0 1 .2-1.08c.14-.65.23-1 .25-1.18 0-.44.06-.87.09-1.31.07-.69.18-1 .34-1h.19a55.33 55.33 0 0 0 6.67.29c.83 0 2.38-.08 4.62-.26l1.82-.14h.32c.02 0 .05.11.06.27s0 .6 0 1v1.05a7.08 7.08 0 0 0 .1 1 8.29 8.29 0 0 1 .03 1.08Z" stroke="#231f20" stroke-width="35" fill="none"/>
            <path d="M88 450.71a8.15 8.15 0 0 1-1.77 5.46 6.48 6.48 0 0 1-5.23 2.21c-.37 0-.93 0-1.67-.06s-1.31-.06-1.68-.06-.6.17-.6.51 0 1.07.12 1.91.13 1.48.13 1.89c0 .22-.1.32-.29.32-.57 0-1.42 0-2.55-.05s-2 0-2.55 0a.36.36 0 0 1-.4-.41v-9.28q0-4.38-.38-9.19v-.19c0-.18.12-.29.42-.32a46.67 46.67 0 0 1 4.78-.14c1.46 0 2.86 0 4.19.05A7.64 7.64 0 0 1 86 445.4a7.13 7.13 0 0 1 2 5.31Zm-5.55.23c0-2.16-1.06-3.25-3.16-3.25-1.49 0-2.27.09-2.34.25a21.74 21.74 0 0 0-.1 3.22v2.55c0 .28.84.28 2.51.28q3.1.01 3.11-3.05Z" stroke="#231f20" stroke-width="35" fill="none"/>
            <path d="M106.52 462.66c0 .06-.1.11-.28.14a26.15 26.15 0 0 1-2.66.08c-1.21 0-2 0-2.48-.08a1.3 1.3 0 0 1-.34-.07.56.56 0 0 1-.2-.28c-.14-.36-.34-.9-.61-1.62-.36-.92-.93-2.29-1.7-4.1a1.24 1.24 0 0 0-1.16-.6h-1.43c-.14 0-.21.23-.21.71s.06 1.57.18 2.82.17 2.2.17 2.83c0 .16 0 .25-.13.28h-.38c-.55 0-1.41.06-2.57.06a20 20 0 0 1-2.39-.08c-.27-.06-.4-.2-.4-.44 0-1 0-2.56.14-4.62s.15-3.6.15-4.63q0-5.89-.27-9.19v-.19c0-.16.14-.27.44-.32s1.72-.11 4.25-.17q2.58-.06 4.11-.06a8.69 8.69 0 0 1 5.18 1.44 5.36 5.36 0 0 1 2.26 4.66 7.49 7.49 0 0 1-.58 3.24 6.59 6.59 0 0 1-2.16 2.36c-.21.14-.32.28-.32.41s.57 1.16 1.7 3.5a25.82 25.82 0 0 1 1.69 3.92Zm-5.85-12.49a2.5 2.5 0 0 0-1.11-2.35 5.65 5.65 0 0 0-2.7-.5c-.88 0-1.35.13-1.41.4a26.35 26.35 0 0 0-.08 2.73v1.88c0 .05.14.09.44.14a12.77 12.77 0 0 0 1.78.12c2.07 0 3.08-.8 3.08-2.42Z" stroke="#231f20" stroke-width="35" fill="none"/>
            <path d="M127.42 453.05a10.18 10.18 0 0 1-2.77 7.28 10 10 0 0 1-14.29 0 10.09 10.09 0 0 1-2.78-7.25 10.2 10.2 0 0 1 2.78-7.28 9.94 9.94 0 0 1 14.27 0 10.27 10.27 0 0 1 2.79 7.25Zm-5.27 0a5.18 5.18 0 0 0-1.27-3.54 4.28 4.28 0 0 0-3.38-1.54 4.23 4.23 0 0 0-3.33 1.59 5.24 5.24 0 0 0-1.32 3.52 5.17 5.17 0 0 0 1.24 3.55 4.33 4.33 0 0 0 3.41 1.49 4.28 4.28 0 0 0 3.34-1.57 5.18 5.18 0 0 0 1.31-3.55Z" stroke="#231f20" stroke-width="35" fill="none"/>
            <path d="M143.05 447.53c0 .18-.1.28-.3.28-.35 0-1.75-.07-4.19-.21-.06 2.34-.08 4-.08 4.91 0 1.09 0 2.74.13 4.94s.13 3.85.13 4.94c0 .18 0 .29-.13.34a1.48 1.48 0 0 1-.38.07 21.1 21.1 0 0 1-2.45.11 20 20 0 0 1-2.52-.11.41.41 0 0 1-.39-.44c0-1.09 0-2.73.14-4.92s.13-3.84.13-4.93c0-.72 0-2.34-.11-4.84q-2.78.27-4.44.27c-.15 0-.22 0-.22-.13a8.48 8.48 0 0 1 .2-1.08c.14-.65.23-1 .25-1.18 0-.44.06-.87.09-1.31.07-.69.18-1 .34-1h.19a55.33 55.33 0 0 0 6.67.29c.83 0 2.37-.08 4.62-.26l1.82-.14h.32c.02 0 0 .11.06.27s0 .6 0 1v1.05a8.42 8.42 0 0 0 .09 1 8.29 8.29 0 0 1 .03 1.08Z" stroke="#231f20" stroke-width="35" fill="none"/>
            <path d="M158.8 458.47a17.9 17.9 0 0 1-.24 2.2 8.55 8.55 0 0 1-.44 2.07.52.52 0 0 1-.46.26 2.82 2.82 0 0 1-.42 0q-1-.13-5.93-.14H145c-.31 0-.46-.14-.46-.41 0-1 .06-2.6.17-4.68s.18-3.65.18-4.69-.06-3-.17-5.91q0-1.11-.15-3.33v-.19c0-.21.1-.32.35-.32.69 0 1.72 0 3.1.05s2.41.06 3.09.06 1.7 0 3.07-.06 2.38-.05 3.06-.05c.48 0 .76.18.83.54.05.21.12.86.22 1.94s.15 1.74.15 2a.25.25 0 0 1-.28.29h-.3c-2.46-.2-4.68-.31-6.65-.31-.49 0-.79.12-.9.35a4.16 4.16 0 0 0-.07 1.07 2 2 0 0 0 .28 1.26 1.21 1.21 0 0 0 .9.26h1.21c1.17 0 2.35 0 3.55-.1l.77-.07a5.82 5.82 0 0 1 .75-.05c.22 0 .33.1.33.32a21 21 0 0 0-.25 2.13c-.07.74-.11 1.48-.11 2.22 0 .19-.13.28-.4.28l-1.26-.14c-.52-.05-1.73-.08-3.62-.08h-1.47c-.38 0-.6.09-.67.28s0 .33 0 .86a3.83 3.83 0 0 0 .14 1.36c.15.36.75.57 1.78.63h2c.49 0 1.22 0 2.19-.13s1.7-.13 2.18-.13c.15-.11.26.02.26.36Z" stroke="#231f20" stroke-width="35" fill="none"/>
            <path d="M176.91 459.65a1 1 0 0 1-.3.58 8.4 8.4 0 0 1-6.8 3 9.11 9.11 0 0 1-7.05-3 10.32 10.32 0 0 1-2.63-7.24 10.53 10.53 0 0 1 2.58-7.18 8.65 8.65 0 0 1 6.83-3.09 9.12 9.12 0 0 1 7.07 2.77.83.83 0 0 1 .28.54 8.42 8.42 0 0 1-1 2 11.42 11.42 0 0 1-1.21 1.91.37.37 0 0 1-.28.11 3.31 3.31 0 0 1-.7-.56 7.54 7.54 0 0 0-1.47-1 5.06 5.06 0 0 0-2.29-.56 4 4 0 0 0-3.27 1.54 5.44 5.44 0 0 0-1.12 3.5 5.56 5.56 0 0 0 1.12 3.55 4 4 0 0 0 3.27 1.56 5.07 5.07 0 0 0 2.3-.53 6.92 6.92 0 0 0 1.45-1 3.69 3.69 0 0 1 .68-.53.39.39 0 0 1 .28.15c.15.17.55.75 1.21 1.74a10.19 10.19 0 0 1 1.05 1.74Z" stroke="#231f20" stroke-width="35" fill="none"/>
            <path d="M192 447.53c0 .18-.11.28-.31.28s-1.75-.07-4.19-.21c-.06 2.34-.08 4-.08 4.91 0 1.09 0 2.74.13 4.94s.13 3.85.13 4.94c0 .18 0 .29-.12.34a1.77 1.77 0 0 1-.39.07 21.1 21.1 0 0 1-2.45.11 20 20 0 0 1-2.52-.11.41.41 0 0 1-.39-.44c0-1.09 0-2.73.14-4.92s.14-3.84.14-4.93c0-.72 0-2.34-.12-4.84q-2.77.27-4.44.27c-.15 0-.22 0-.22-.13a8.48 8.48 0 0 1 .2-1.08c.14-.65.23-1 .25-1.18 0-.44.06-.87.09-1.31.07-.69.18-1 .34-1h.19a55.33 55.33 0 0 0 6.67.29c.83 0 2.38-.08 4.62-.26l1.82-.14h.32c.02 0 .05.11.06.27s0 .6 0 1v1.05a7.08 7.08 0 0 0 .1 1 8.29 8.29 0 0 1 .03 1.08Z" stroke="#231f20" stroke-width="35" fill="none"/>
            <path d="M88 450.71a8.15 8.15 0 0 1-1.77 5.46 6.48 6.48 0 0 1-5.23 2.21c-.37 0-.93 0-1.67-.06s-1.31-.06-1.68-.06-.6.17-.6.51 0 1.07.12 1.91.13 1.48.13 1.89c0 .22-.1.32-.29.32-.57 0-1.42 0-2.55-.05s-2 0-2.55 0a.36.36 0 0 1-.4-.41v-9.28q0-4.38-.38-9.19v-.19c0-.18.12-.29.42-.32a46.67 46.67 0 0 1 4.78-.14c1.46 0 2.86 0 4.19.05A7.64 7.64 0 0 1 86 445.4a7.13 7.13 0 0 1 2 5.31Zm-5.55.23c0-2.16-1.06-3.25-3.16-3.25-1.49 0-2.27.09-2.34.25a21.74 21.74 0 0 0-.1 3.22v2.55c0 .28.84.28 2.51.28q3.1.01 3.11-3.05Z" stroke="#231f20" stroke-width="35" fill="none"/>
            <path d="M106.52 462.66c0 .06-.1.11-.28.14a26.15 26.15 0 0 1-2.66.08c-1.21 0-2 0-2.48-.08a1.3 1.3 0 0 1-.34-.07.56.56 0 0 1-.2-.28c-.14-.36-.34-.9-.61-1.62-.36-.92-.93-2.29-1.7-4.1a1.24 1.24 0 0 0-1.16-.6h-1.43c-.14 0-.21.23-.21.71s.06 1.57.18 2.82.17 2.2.17 2.83c0 .16 0 .25-.13.28h-.38c-.55 0-1.41.06-2.57.06a20 20 0 0 1-2.39-.08c-.27-.06-.4-.2-.4-.44 0-1 0-2.56.14-4.62s.15-3.6.15-4.63q0-5.89-.27-9.19v-.19c0-.16.14-.27.44-.32s1.72-.11 4.25-.17q2.58-.06 4.11-.06a8.69 8.69 0 0 1 5.18 1.44 5.36 5.36 0 0 1 2.26 4.66 7.49 7.49 0 0 1-.58 3.24 6.59 6.59 0 0 1-2.16 2.36c-.21.14-.32.28-.32.41s.57 1.16 1.7 3.5a25.82 25.82 0 0 1 1.69 3.92Zm-5.85-12.49a2.5 2.5 0 0 0-1.11-2.35 5.65 5.65 0 0 0-2.7-.5c-.88 0-1.35.13-1.41.4a26.35 26.35 0 0 0-.08 2.73v1.88c0 .05.14.09.44.14a12.77 12.77 0 0 0 1.78.12c2.07 0 3.08-.8 3.08-2.42Z" stroke="#231f20" stroke-width="35" fill="none"/>
            <path d="M127.42 453.05a10.18 10.18 0 0 1-2.77 7.28 10 10 0 0 1-14.29 0 10.09 10.09 0 0 1-2.78-7.25 10.2 10.2 0 0 1 2.78-7.28 9.94 9.94 0 0 1 14.27 0 10.27 10.27 0 0 1 2.79 7.25Zm-5.27 0a5.18 5.18 0 0 0-1.27-3.54 4.28 4.28 0 0 0-3.38-1.54 4.23 4.23 0 0 0-3.33 1.59 5.24 5.24 0 0 0-1.32 3.52 5.17 5.17 0 0 0 1.24 3.55 4.33 4.33 0 0 0 3.41 1.49 4.28 4.28 0 0 0 3.34-1.57 5.18 5.18 0 0 0 1.31-3.55Z" stroke="#231f20" stroke-width="35" fill="none"/>
            <path d="M143.05 447.53c0 .18-.1.28-.3.28-.35 0-1.75-.07-4.19-.21-.06 2.34-.08 4-.08 4.91 0 1.09 0 2.74.13 4.94s.13 3.85.13 4.94c0 .18 0 .29-.13.34a1.48 1.48 0 0 1-.38.07 21.1 21.1 0 0 1-2.45.11 20 20 0 0 1-2.52-.11.41.41 0 0 1-.39-.44c0-1.09 0-2.73.14-4.92s.13-3.84.13-4.93c0-.72 0-2.34-.11-4.84q-2.78.27-4.44.27c-.15 0-.22 0-.22-.13a8.48 8.48 0 0 1 .2-1.08c.14-.65.23-1 .25-1.18 0-.44.06-.87.09-1.31.07-.69.18-1 .34-1h.19a55.33 55.33 0 0 0 6.67.29c.83 0 2.37-.08 4.62-.26l1.82-.14h.32c.02 0 0 .11.06.27s0 .6 0 1v1.05a8.42 8.42 0 0 0 .09 1 8.29 8.29 0 0 1 .03 1.08Z" stroke="#231f20" stroke-width="35" fill="none"/>
            <path d="M158.8 458.47a17.9 17.9 0 0 1-.24 2.2 8.55 8.55 0 0 1-.44 2.07.52.52 0 0 1-.46.26 2.82 2.82 0 0 1-.42 0q-1-.13-5.93-.14H145c-.31 0-.46-.14-.46-.41 0-1 .06-2.6.17-4.68s.18-3.65.18-4.69-.06-3-.17-5.91q0-1.11-.15-3.33v-.19c0-.21.1-.32.35-.32.69 0 1.72 0 3.1.05s2.41.06 3.09.06 1.7 0 3.07-.06 2.38-.05 3.06-.05c.48 0 .76.18.83.54.05.21.12.86.22 1.94s.15 1.74.15 2a.25.25 0 0 1-.28.29h-.3c-2.46-.2-4.68-.31-6.65-.31-.49 0-.79.12-.9.35a4.16 4.16 0 0 0-.07 1.07 2 2 0 0 0 .28 1.26 1.21 1.21 0 0 0 .9.26h1.21c1.17 0 2.35 0 3.55-.1l.77-.07a5.82 5.82 0 0 1 .75-.05c.22 0 .33.1.33.32a21 21 0 0 0-.25 2.13c-.07.74-.11 1.48-.11 2.22 0 .19-.13.28-.4.28l-1.26-.14c-.52-.05-1.73-.08-3.62-.08h-1.47c-.38 0-.6.09-.67.28s0 .33 0 .86a3.83 3.83 0 0 0 .14 1.36c.15.36.75.57 1.78.63h2c.49 0 1.22 0 2.19-.13s1.7-.13 2.18-.13c.15-.11.26.02.26.36Z" stroke="#231f20" stroke-width="35" fill="none"/>
            <path d="M176.91 459.65a1 1 0 0 1-.3.58 8.4 8.4 0 0 1-6.8 3 9.11 9.11 0 0 1-7.05-3 10.32 10.32 0 0 1-2.63-7.24 10.53 10.53 0 0 1 2.58-7.18 8.65 8.65 0 0 1 6.83-3.09 9.12 9.12 0 0 1 7.07 2.77.83.83 0 0 1 .28.54 8.42 8.42 0 0 1-1 2 11.42 11.42 0 0 1-1.21 1.91.37.37 0 0 1-.28.11 3.31 3.31 0 0 1-.7-.56 7.54 7.54 0 0 0-1.47-1 5.06 5.06 0 0 0-2.29-.56 4 4 0 0 0-3.27 1.54 5.44 5.44 0 0 0-1.12 3.5 5.56 5.56 0 0 0 1.12 3.55 4 4 0 0 0 3.27 1.56 5.07 5.07 0 0 0 2.3-.53 6.92 6.92 0 0 0 1.45-1 3.69 3.69 0 0 1 .68-.53.39.39 0 0 1 .28.15c.15.17.55.75 1.21 1.74a10.19 10.19 0 0 1 1.05 1.74Z" stroke="#231f20" stroke-width="35" fill="none"/>
            <path d="M192 447.53c0 .18-.11.28-.31.28s-1.75-.07-4.19-.21c-.06 2.34-.08 4-.08 4.91 0 1.09 0 2.74.13 4.94s.13 3.85.13 4.94c0 .18 0 .29-.12.34a1.77 1.77 0 0 1-.39.07 21.1 21.1 0 0 1-2.45.11 20 20 0 0 1-2.52-.11.41.41 0 0 1-.39-.44c0-1.09 0-2.73.14-4.92s.14-3.84.14-4.93c0-.72 0-2.34-.12-4.84q-2.77.27-4.44.27c-.15 0-.22 0-.22-.13a8.48 8.48 0 0 1 .2-1.08c.14-.65.23-1 .25-1.18 0-.44.06-.87.09-1.31.07-.69.18-1 .34-1h.19a55.33 55.33 0 0 0 6.67.29c.83 0 2.38-.08 4.62-.26l1.82-.14h.32c.02 0 .05.11.06.27s0 .6 0 1v1.05a7.08 7.08 0 0 0 .1 1 8.29 8.29 0 0 1 .03 1.08Z" stroke="#231f20" stroke-width="35" fill="none"/>
            <g>
                <path d="m162.09 513.13-.33-23.91A1.42 1.42 0 0 0 161 488l-29.12-14a1.51 1.51 0 0 0-1.82-.07 1.46 1.46 0 0 1-.3.17l-29.22 14a1.4 1.4 0 0 0-.79 1.24l-.33 23.91a1.37 1.37 0 0 0 .12.6c13.41 29.54 31.24 35.25 31.24 35.25v-.1c.8-.26 18.12-6.38 31.21-35.24a1.34 1.34 0 0 0 .1-.63Z" stroke="#231f20" stroke-width="35" fill="none"/>
                <path d="m162.09 513.13-.33-23.91A1.42 1.42 0 0 0 161 488l-29.12-14a1.51 1.51 0 0 0-1.82-.07 1.46 1.46 0 0 1-.3.17l-29.22 14a1.4 1.4 0 0 0-.79 1.24l-.33 23.91a1.37 1.37 0 0 0 .12.6c13.41 29.54 31.24 35.25 31.24 35.25v-.1c.8-.26 18.12-6.38 31.21-35.24a1.34 1.34 0 0 0 .1-.63Z" stroke="#231f20" stroke-width="35" fill="none"/>
                <path d="M131.1 549.08c3.62-1.65 19.18-10 31.09-35.52a1.87 1.87 0 0 0 .18-.8l-.33-23a1.82 1.82 0 0 0-1-1.62l-29.38-14.61a1.83 1.83 0 0 0-1.6 0l-29.68 13.94a1.82 1.82 0 0 0-1 1.65l-.17 24.74a1.92 1.92 0 0 0 .17.78c1.47 3.22 12.54 26.37 30.25 34.47a1.84 1.84 0 0 0 1.47-.03Z" stroke="#231f20" stroke-width="35" fill="none"/>
                <path d="M131.1 549.08c3.62-1.65 19.18-10 31.09-35.52a1.87 1.87 0 0 0 .18-.8l-.33-23a1.82 1.82 0 0 0-1-1.62l-29.38-14.61a1.83 1.83 0 0 0-1.6 0l-29.68 13.94a1.82 1.82 0 0 0-1 1.65l-.17 24.74a1.92 1.92 0 0 0 .17.78c1.47 3.22 12.54 26.37 30.25 34.47a1.84 1.84 0 0 0 1.47-.03Z" stroke="#231f20" stroke-width="35" fill="none"/>
                <path d="M131.14 555c4.13-1.88 21.85-11.34 35.42-40.45a2 2 0 0 0 .19-.91l-.37-26.21a2.1 2.1 0 0 0-1.16-1.85l-33.46-16.63a2 2 0 0 0-1.82 0l-33.79 15.81a2.13 2.13 0 0 0-1.21 1.89l-.18 28.17a2 2 0 0 0 .18.88c1.68 3.67 14.29 30 34.46 39.26a2.07 2.07 0 0 0 1.74.04Z" stroke="#231f20" stroke-width="35" fill="none"/>
                <path d="M131.14 555c4.13-1.88 21.85-11.34 35.42-40.45a2 2 0 0 0 .19-.91l-.37-26.21a2.1 2.1 0 0 0-1.16-1.85l-33.46-16.63a2 2 0 0 0-1.82 0l-33.79 15.81a2.13 2.13 0 0 0-1.21 1.89l-.18 28.17a2 2 0 0 0 .18.88c1.68 3.67 14.29 30 34.46 39.26a2.07 2.07 0 0 0 1.74.04Z" stroke="#231f20" stroke-width="35" fill="none"/>
                <path stroke="#231f20" stroke-width="35" fill="none" d="M119.85 499.783c1.929 2.404 1.995 5.554.147 7.037-1.848 1.483-4.91.737-6.838-1.666-1.93-2.404-1.995-5.554-.147-7.037 1.848-1.483 4.91-.737 6.838 1.666z"/>
                <path stroke="#231f20" stroke-width="35" fill="none" d="M119.85 499.783c1.929 2.404 1.995 5.554.147 7.037-1.848 1.483-4.91.737-6.838-1.666-1.93-2.404-1.995-5.554-.147-7.037 1.848-1.483 4.91-.737 6.838 1.666z"/>
                <path stroke="#231f20" stroke-width="35" fill="none" d="M128.814 495.479c.786 2.86-.36 5.668-2.559 6.272-2.2.605-4.62-1.223-5.405-4.083-.787-2.86.36-5.668 2.559-6.272 2.199-.605 4.619 1.223 5.405 4.083z"/>
                <path stroke="#231f20" stroke-width="35" fill="none" d="M128.814 495.479c.786 2.86-.36 5.668-2.559 6.272-2.2.605-4.62-1.223-5.405-4.083-.787-2.86.36-5.668 2.559-6.272 2.199-.605 4.619 1.223 5.405 4.083z"/>
                <path stroke="#231f20" stroke-width="35" fill="none" d="M135.034 490.394c2.258.32 3.752 2.96 3.336 5.896-.416 2.936-2.584 5.058-4.842 4.738-2.259-.32-3.752-2.96-3.337-5.896.416-2.937 2.584-5.058 4.843-4.738z"/>
                <path stroke="#231f20" stroke-width="35" fill="none" d="M135.034 490.394c2.258.32 3.752 2.96 3.336 5.896-.416 2.936-2.584 5.058-4.842 4.738-2.259-.32-3.752-2.96-3.337-5.896.416-2.937 2.584-5.058 4.843-4.738z"/>
                <path stroke="#231f20" stroke-width="35" fill="none" d="M144.93 495.538c2.107 1.07 2.689 4.158 1.299 6.896-1.39 2.738-4.226 4.09-6.334 3.02-2.108-1.07-2.69-4.158-1.299-6.896 1.39-2.738 4.226-4.09 6.334-3.02z"/>
                <path stroke="#231f20" stroke-width="35" fill="none" d="M144.93 495.538c2.107 1.07 2.689 4.158 1.299 6.896-1.39 2.738-4.226 4.09-6.334 3.02-2.108-1.07-2.69-4.158-1.299-6.896 1.39-2.738 4.226-4.09 6.334-3.02z"/>
                <path d="M138.1 505.9a9.16 9.16 0 0 0-7.89-4c-4.17 0-7.67 2.41-8.58 5.64a9.69 9.69 0 0 0-5.4 8.92c0 5.33 3.91 9.65 8.73 9.65a8.34 8.34 0 0 0 6.36-3 8.18 8.18 0 0 0 5.37 2c4.82 0 8.73-4.32 8.73-9.65 0-4.84-3.17-8.82-7.32-9.56Z" stroke="#231f20" stroke-width="35" fill="none"/>
                <path d="M138.1 505.9a9.16 9.16 0 0 0-7.89-4c-4.17 0-7.67 2.41-8.58 5.64a9.69 9.69 0 0 0-5.4 8.92c0 5.33 3.91 9.65 8.73 9.65a8.34 8.34 0 0 0 6.36-3 8.18 8.18 0 0 0 5.37 2c4.82 0 8.73-4.32 8.73-9.65 0-4.84-3.17-8.82-7.32-9.56Z" stroke="#231f20" stroke-width="35" fill="none"/>
                <path d="M103.75 494.54v-2.28a2.48 2.48 0 0 1 1.4-2.23l4.7-2.28" stroke="#231f20" stroke-width="35" fill="none"/>
                <path d="M103.75 494.54v-2.28a2.48 2.48 0 0 1 1.4-2.23l4.7-2.28" stroke="#231f20" stroke-width="35" fill="none"/>
                <path stroke="#231f20" stroke-width="35" fill="none" d="M113.68 486.44a.78.78 0 1 1-1.56 0 .78.78 0 0 1 1.56 0z"/>
                <path stroke="#231f20" stroke-width="35" fill="none" d="M113.68 486.44a.78.78 0 1 1-1.56 0 .78.78 0 0 1 1.56 0z"/>
                <path d="M145.86 531.93a46.51 46.51 0 0 1-6.85 6.58" stroke="#231f20" stroke-width="35" fill="none"/>
                <path d="M145.86 531.93a46.51 46.51 0 0 1-6.85 6.58" stroke="#231f20" stroke-width="35" fill="none"/>
                <path stroke="#231f20" stroke-width="35" fill="none" d="M136.5 540.96a.78.78 0 1 1-1.56 0 .78.78 0 0 1 1.56 0z"/>
                <path stroke="#231f20" stroke-width="35" fill="none" d="M136.5 540.96a.78.78 0 1 1-1.56 0 .78.78 0 0 1 1.56 0z"/>
            </g>
            <path d="M130.28 613.16s3.85 0 19.76-9.49l12.05-7.67 12.22-8.84 7-5.72 7.7-6.71 6.7-6.55 8.54-9.16 5.69-6.71 5.19-6.87 4.18-6.54 3.52-6.55 2.51-5.23 1.84-4.75 1.51-4.09 1.67-5.73 1.51-5.4.83-4.41.67-5.4.67-5.73.17-5.23v-6.88l.17-20.29-.17-29 .17-32.23-.17-14.4s-.33-8.5-6.53-12.59-9.71-3.6-12.05-2.79a78.8 78.8 0 0 0-8 4.09l-4.68 2.13-4.36 1.47-3.18.82-5 .82-5.86.33h-4.69l-5.85-.33-4.86-.82-5.52-1.8-6-2.45-5.69-3.6-4-3.11-2.68-2.45-3.68-3.6-3-2.46-3-1.63-2.34-.82-2.34-.33h-1.18l-3.34.82-2.68 1.31-2.68 1.8-2.34 2.29-2.52 2.45-3.85 3.44-3.68 2.78-2.95 1.65-5 2.61-4.35 1.64-6.36 1.8-4.69.65-5.52.17-8.87-.17-7.7-1.47-4.52-1.63-3.67-1.47-2.51-1.31-3.35-2s-4.18-2.45-7.36-2.13a17.4 17.4 0 0 0-9.43 4.31 14.88 14.88 0 0 0-4.68 6.71c-1 2.45-1 7.52-1.18 11.12s0 15.87 0 15.87v77.56L27.67 499l2.17 11.62S35.37 530.37 42.4 540s6.36 10.47 17.41 22.42 16.74 16.2 16.74 16.2l9.87 8.38 8.21 5.89 5.69 4.09 8 5.07 7 4.09 5.69 3.11 5.19 2.62 2.34 1a7.57 7.57 0 0 0 1.34.33Z" fill="#17479d"/>
            <path d="M131.6 576.05s2.77 0 14.21-6.8l8.61-5.48a.57.57 0 0 0 .13-.08l8.67-6.25.12-.09 5-4.06 5.49-4.76.11-.1 4.76-4.64 6.14-6.58 4-4.75.1-.12 3.62-4.78.12-.17 2.9-4.52a1.62 1.62 0 0 0 .1-.18l2.49-4.6 1.76-3.67a1.42 1.42 0 0 0 .08-.18l1.29-3.31 1.05-2.85.06-.17 1.18-4 1.05-3.76a2.25 2.25 0 0 0 .05-.22l.57-3a.88.88 0 0 0 0-.16l.48-3.79.46-4a1.64 1.64 0 0 0 0-.22l.12-3.64v-4.93l.12-14.55-.12-20.77.12-23.12-.12-10.32s-.24-6.11-4.7-9-7-2.58-8.67-2a51.71 51.71 0 0 0-5.68 2.87 1.51 1.51 0 0 1-.22.11L184 404.8l-.24.1-2.92 1-.19.06-2.07.53h-.24l-3.36.54h-.27l-4 .23h-3.52l-4-.23a1.36 1.36 0 0 1-.29 0l-3.16-.53a2.62 2.62 0 0 1-.38-.09l-3.7-1.2-.18-.07-4-1.63a2.32 2.32 0 0 1-.41-.22l-3.79-2.39-.21-.14-2.7-2.09-.17-.14-1.85-1.68-2.56-2.5-.18-.16-1.89-1.53a2.8 2.8 0 0 0-.4-.27l-1.77-1a3.52 3.52 0 0 0-.39-.17l-1.24-.43a2.15 2.15 0 0 0-.5-.12l-1.25-.17h-.7a2.59 2.59 0 0 0-.63.08l-1.82.44a2.47 2.47 0 0 0-.54.19l-1.51.74a2.48 2.48 0 0 0-.31.18l-1.57 1.05a2.79 2.79 0 0 0-.38.3l-1.54 1.52-1.81 1.76-2.69 2.39-.17.14-2.43 1.83-.27.18-1.91 1.09-3.47 1.8a1.51 1.51 0 0 1-.29.13l-2.88 1.08-.21.07-4.3 1.21a2 2 0 0 1-.35.08l-3 .42h-.29l-3.83.11-6.16-.11a3.44 3.44 0 0 1-.45 0l-5.11-1-.4-.11L80 405l-2.53-1-.24-.11-1.65-.89-2.4-1.41s-3-1.76-5.3-1.53a12.6 12.6 0 0 0-6.75 3.06 10.66 10.66 0 0 0-3.37 4.81c-.73 1.76-.73 5.39-.85 8s0 11.38 0 11.38v55.71l.83 11v.3l1.52 8.06a2.1 2.1 0 0 0 .06.24c.39 1.39 4.21 14.45 9 21 5.06 6.93 4.57 7.51 12.53 16.08 7.45 8 11.51 11.21 12 11.58a.39.39 0 0 1 .1.08l7 5.87.16.13 5.82 4.16 4 2.89.13.09 5.72 3.59 5.06 2.94 4.09 2.23 3.66 1.83.17.08 1.48.62a1.25 1.25 0 0 0 .25.09 4.08 4.08 0 0 0 .83.19Z" fill="#ffffff"/>
            <path d="M127.71 615.82a3 3 0 0 0 4 .7S219 578 232.74 502.25l1.57-122.46S232.74 365 221.94 366c0 0-51 28.05-82-8.88 0 0-5.92-8.37-11.85-4.88" stroke-width="8" stroke="#f5821f" stroke-miterlimit="10" fill="none"/>
            <path d="M132.76 615.82a3 3 0 0 1-4 .7S41.48 578 27.72 502.25l-1.57-122.46S27.72 365 38.52 366c0 0 51 28.05 82-8.88 0 0 5.93-8.37 11.85-4.88" stroke-width="8" stroke="#f5821f" stroke-miterlimit="10" fill="none"/>
            <path fill="#17479d" d="M133.89 360.15c0 2.358-1.679 4.27-3.75 4.27-2.071 0-3.75-1.912-3.75-4.27 0-2.358 1.679-4.27 3.75-4.27 2.071 0 3.75 1.912 3.75 4.27z"/>
            <path d="M56.88 473.93v6.56c-.15 16.84 6.43 62.21 75 100.18 0 0 65.49-31.44 73.07-83.79v-90.42a4.23 4.23 0 0 0-.79-2 2.92 2.92 0 0 0-2.67-1.07c-1.1.18-2.46.38-4 .57a99.25 99.25 0 0 1-15.49 1.12 95.57 95.57 0 0 1-14.83-1.26 80.82 80.82 0 0 1-15-3.93c-5.51-2.16-10.76-6-15.94-9.89-.84-.63-1.67-1.29-2.49-2a9.69 9.69 0 0 0-1.14-.87 2.35 2.35 0 0 0-.43-.18 4.06 4.06 0 0 0-2.54 1.09c-.86.63-1.95 1.41-3.25 2.29-4 2.72-10 7-17.46 10a78.87 78.87 0 0 1-13.73 4.4c-5.71 1.17-11.84 1-18.15.47a56.72 56.72 0 0 1-13.73-3.11q-1.11-.39-2.22-.84a2.36 2.36 0 0 0-2 .34 2.83 2.83 0 0 0-.79 1.48v29.33" stroke-width="7" stroke="#f5821f" stroke-miterlimit="10" fill="none"/>
            <path fill="#f5821f" d="M62.95 453.42a4.725 4.725 0 0 1-4.73 4.72 4.725 4.725 0 0 1-4.73-4.72 4.725 4.725 0 0 1 4.73-4.72 4.725 4.725 0 0 1 4.73 4.72z"/>
            <path fill="#f5821f" d="M62.64 432.82c0 2.607-1.943 4.72-4.34 4.72s-4.34-2.113-4.34-4.72c0-2.607 1.943-4.72 4.34-4.72s4.34 2.113 4.34 4.72z"/>
            <path fill="#f5821f" d="M61.38 473.38c0 2.607-1.979 4.72-4.42 4.72s-4.42-2.113-4.42-4.72c0-2.607 1.979-4.72 4.42-4.72s4.42 2.113 4.42 4.72z"/>
            <g>
                <g>
                    <path d="M70.75 427.83h3v1.66a4.55 4.55 0 0 1 4-2c2.89 0 4.16 2 4.18 4.75l.06 7.69h-3.17l-.05-6.5c0-1.49 0-3.51-2.09-3.49C74.44 430 74 432.46 74 434v6h-3.18Z" fill="#17479d"/>
                    <path d="M94.32 439.84h-3v-1.66a5.08 5.08 0 0 1-4 2c-2.88 0-4.15-2-4.17-4.74l-.15-7.7h3.17l.05 6.51c0 1.49 0 3.5 2.08 3.48 2.3 0 2.78-2.5 2.76-4.06v-6h3.17Z" fill="#17479d"/>
                    <path d="M96.6 430h-2.34v-2.32h2.34v-2.44l3.17-1v3.45h2.82v2.32h-2.81v5.68c0 1 .3 2 1.51 2a3 3 0 0 0 1.44-.34l.11 2.5a8.19 8.19 0 0 1-2.34.31 3.6 3.6 0 0 1-3.89-3.93Z" fill="#17479d"/>
                    <path d="M103.63 427.58h2.82v2.77a3.73 3.73 0 0 1 3.31-3.08 3.62 3.62 0 0 1 1 .09v3.2a3 3 0 0 0-1.42-.25c-2.58 0-2.55 3.23-2.54 5v4.47h-3.17Z" fill="#17479d"/>
                    <path d="M111.5 422.27h3.17v3h-3.17Zm0 5.25h3.17l.09 12.19h-3.17Z" fill="#17479d"/>
                </g>
                <g>
                    <path d="m129.45 435 2 1.74a.55.55 0 0 1 .16.37.54.54 0 0 1-.16.38 7.17 7.17 0 0 1-5.22 2.18 6.33 6.33 0 0 1-5.33-2.29 7.34 7.34 0 0 1-1.46-4.75 7.44 7.44 0 0 1 1.42-4.75 6.32 6.32 0 0 1 5.38-2.28 7.15 7.15 0 0 1 4.57 1.62.48.48 0 0 1 .21.35.46.46 0 0 1-.12.39l-1.67 1.93a.53.53 0 0 1-.34.17.55.55 0 0 1-.37-.1 3.1 3.1 0 0 0-1.89-.59 3.51 3.51 0 0 0-1.19.18 2 2 0 0 0-.78.48 2.1 2.1 0 0 0-.45.76 3.66 3.66 0 0 0-.21.87 9.05 9.05 0 0 0-.05 1 9.25 9.25 0 0 0 .05 1 3.66 3.66 0 0 0 .21.87 2.19 2.19 0 0 0 .44.75 1.86 1.86 0 0 0 .77.49 3.45 3.45 0 0 0 1.18.18 2.8 2.8 0 0 0 2.08-.87.54.54 0 0 1 .37-.15.47.47 0 0 1 .4.07Z" fill="#f48120"/>
                    <path d="M124.51 440a6.34 6.34 0 0 1-3.93-2.32 7.85 7.85 0 0 1-1.57-5.05 8 8 0 0 1 1.52-5 6.84 6.84 0 0 1 5.76-2.46 7.69 7.69 0 0 1 4.84 1.72.93.93 0 0 1 .39.66.91.91 0 0 1-.23.76l-1.67 1.92a.92.92 0 0 1-.65.33 1.07 1.07 0 0 1-.67-.17 2.58 2.58 0 0 0-1.63-.52 2.86 2.86 0 0 0-1 .16 1.7 1.7 0 0 0-.6.36 1.73 1.73 0 0 0-.35.6 3.38 3.38 0 0 0-.19.76 8.19 8.19 0 0 0 0 .92 8.38 8.38 0 0 0 0 .93 3.38 3.38 0 0 0 .19.76 1.72 1.72 0 0 0 .34.6 1.57 1.57 0 0 0 .59.36 1.91 1.91 0 0 0 .38.1 3.16 3.16 0 0 0 .64.06 2.33 2.33 0 0 0 1.75-.73 1 1 0 0 1 1.36-.06c.7.6 1.38 1.19 2 1.74a1 1 0 0 1 .29.66 1 1 0 0 1-.29.74 7.62 7.62 0 0 1-5.55 2.32 9.86 9.86 0 0 1-1.72-.15Zm3-13.81a8.82 8.82 0 0 0-1.28-.12 5.92 5.92 0 0 0-5 2.1 7.17 7.17 0 0 0-1.32 4.47 7 7 0 0 0 1.37 4.47 5.32 5.32 0 0 0 3.37 2 8.79 8.79 0 0 0 1.59.14 6.63 6.63 0 0 0 4.89-2.05l-2-1.73V435v.46h-.06a3.24 3.24 0 0 1-2.41 1 4.14 4.14 0 0 1-.81-.07 4.26 4.26 0 0 1-.54-.15 2.33 2.33 0 0 1-1-.61 2.55 2.55 0 0 1-.53-.9 4.82 4.82 0 0 1-.24-1v-1a10.07 10.07 0 0 1 0-1 4.49 4.49 0 0 1 .25-1 2.6 2.6 0 0 1 .54-.9 2.44 2.44 0 0 1 1-.61 4 4 0 0 1 1.35-.21 3.58 3.58 0 0 1 2.17.69l1.7-1.94a6.84 6.84 0 0 0-2.99-1.62Z" fill="#ffffff"/>
                    <path d="M136.27 431.14h3.32c0-1.58 0-3.17-.05-4.75a.51.51 0 0 1 .5-.52c1.08 0 2.16.08 3.25.17.34 0 .52.31.56.87a106.69 106.69 0 0 1 0 12.26l-.11.05-.11.08-.14.06h-.16c-1.09.07-2.17.13-3.25.16a.47.47 0 0 1-.35-.15.48.48 0 0 1-.15-.37c0-1.48 0-3 .06-4.45h-3.32v4.46a.5.5 0 0 1-.15.37.49.49 0 0 1-.35.15c-1.09 0-2.17-.1-3.23-.17a.5.5 0 0 1-.26-.08l-.21-.12h-.07a113.77 113.77 0 0 1 0-12.25c0-.56.23-.85.58-.87 1.08-.09 2.15-.14 3.23-.17a.47.47 0 0 1 .35.15.51.51 0 0 1 .15.37c-.08 1.61-.09 3.16-.09 4.75Z" fill="#f48120"/>
                    <path d="M132.4 439.83a1.1 1.1 0 0 1-.33-.12l-.18-.11a.46.46 0 0 1-.33-.42 112.33 112.33 0 0 1 0-12.31c.07-1.08.66-1.28 1-1.31 1.07-.08 2.16-.14 3.25-.16h.19a1 1 0 0 1 .5.27 1 1 0 0 1 .29.7v4.29h2.38v-4.28a1 1 0 0 1 .28-.71 1 1 0 0 1 .69-.28c1.09 0 2.19.09 3.28.17.39 0 .92.27 1 1.31a107.73 107.73 0 0 1 0 12.32.47.47 0 0 1-.33.41l-.11.08a1.33 1.33 0 0 1-.24.11.77.77 0 0 1-.29.05c-1.09.08-2.19.13-3.25.17h-.2a.86.86 0 0 1-.5-.27.93.93 0 0 1-.29-.7q0-2 .06-4h-2.39v4a1 1 0 0 1-.28.71.91.91 0 0 1-.69.28c-1.07 0-2.16-.09-3.24-.17Zm.08-1h.12c1.07.08 2.16.14 3.21.17v-4.51a.47.47 0 0 1 .14-.33.44.44 0 0 1 .33-.13h3.32a.45.45 0 0 1 .33.14.47.47 0 0 1 .14.33L140 439c1.07 0 2.16-.07 3.24-.15h.07a103.57 103.57 0 0 0 0-11.95c0-.35-.11-.43-.11-.43-1.08-.09-2.17-.15-3.24-.18v.06c0 1.58 0 3.16.05 4.75a.48.48 0 0 1-.47.47h-3.32a.46.46 0 0 1-.33-.13.47.47 0 0 1-.14-.33v-4.76c-1.08 0-2.16.07-3.21.15-.1 0-.14.28-.15.44a110.41 110.41 0 0 0 .09 11.92Z" fill="#ffffff"/>
                    <path d="M149 434.77a1 1 0 0 0 .32.8 1.21 1.21 0 0 0 .82.28 1.19 1.19 0 0 0 .82-.29 1 1 0 0 0 .33-.79v-8.43a.54.54 0 0 1 .15-.38.46.46 0 0 1 .37-.14c1.08 0 2.15.09 3.23.17a.62.62 0 0 1 .36.18.57.57 0 0 1 .18.38c.14 2.84.18 5.67.12 8.51a4.23 4.23 0 0 1-1.79 3.41 5.85 5.85 0 0 1-3.75 1.2 5.92 5.92 0 0 1-3.75-1.21 4.25 4.25 0 0 1-1.76-3.41c-.06-2.84 0-5.67.14-8.51a.57.57 0 0 1 .18-.38.62.62 0 0 1 .36-.18c1.09-.08 2.17-.14 3.23-.16a.43.43 0 0 1 .37.14.54.54 0 0 1 .15.38q-.08 4.21-.08 8.43Z" fill="#f48120"/>
                    <path d="M148.77 440a6.11 6.11 0 0 1-2.66-1.19 4.7 4.7 0 0 1-1.94-3.78c-.06-2.82 0-5.69.13-8.53a1.12 1.12 0 0 1 .32-.69 1 1 0 0 1 .65-.31c1.09-.09 2.19-.14 3.26-.17a1 1 0 0 1 .23 0 .86.86 0 0 1 .49.27 1 1 0 0 1 .28.7c0 2.8-.06 5.63-.05 8.43a.53.53 0 0 0 .16.45.69.69 0 0 0 .31.15h.2a.7.7 0 0 0 .51-.17.5.5 0 0 0 .17-.44v-8.42a1 1 0 0 1 .28-.71.9.9 0 0 1 .73-.28c1.07 0 2.16.08 3.25.17h.1a1 1 0 0 1 .55.3 1 1 0 0 1 .31.67c.15 2.86.19 5.73.13 8.56a4.68 4.68 0 0 1-2 3.77 6.45 6.45 0 0 1-4 1.3 7.67 7.67 0 0 1-1.41-.08Zm-.2-13.74c-1.07 0-2.15.08-3.22.17a.08.08 0 0 0-.07 0 .16.16 0 0 0-.05.09c-.14 2.81-.19 5.65-.13 8.46a3.77 3.77 0 0 0 1.58 3.06 6 6 0 0 0 6.93 0 3.72 3.72 0 0 0 1.6-3.05c.07-2.81 0-5.66-.12-8.47a.1.1 0 0 0 0-.08s-.05 0-.06 0c-1.08-.09-2.16-.15-3.21-.17v8.44a1.44 1.44 0 0 1-.48 1.13 1.63 1.63 0 0 1-1.13.4 1.5 1.5 0 0 1-.37 0 1.5 1.5 0 0 1-.76-.36 1.48 1.48 0 0 1-.47-1.15v-8.44a.06.06 0 0 0-.04-.01Z" fill="#ffffff"/>
                    <path d="M164.77 432.46c0-2 0-4-.06-6a.57.57 0 0 1 .14-.38.48.48 0 0 1 .38-.14c1.07 0 2.15.08 3.23.15a.64.64 0 0 1 .36.19.6.6 0 0 1 .17.37 100.3 100.3 0 0 1 0 12.26.45.45 0 0 1 0 .2 1.09 1.09 0 0 1-.13.17.52.52 0 0 1-.17.12l-.2.06c-1.16.08-2.32.12-3.47.15a.45.45 0 0 1-.43-.22c-.87-1.42-2.17-3.44-3.87-6.06 0 1.92 0 3.84.05 5.75a.5.5 0 0 1-.5.52c-1.08 0-2.16-.09-3.23-.15a.55.55 0 0 1-.38-.18.61.61 0 0 1-.18-.38 102.18 102.18 0 0 1 0-12.25.57.57 0 0 1 .18-.37.6.6 0 0 1 .34-.27c1.06-.07 2.13-.12 3.19-.14a.4.4 0 0 1 .41.22q1.4 2.19 4.17 6.38Z" fill="#f48120"/>
                    <path d="M156.84 439.85a1.07 1.07 0 0 1-.57-.31 1.08 1.08 0 0 1-.3-.66 101.28 101.28 0 0 1 0-12.32 1 1 0 0 1 .3-.66 1 1 0 0 1 .68-.33c1.08-.08 2.16-.12 3.22-.15a.93.93 0 0 1 .23 0 .83.83 0 0 1 .59.43c.77 1.2 1.88 2.9 3.3 5.05 0-1.49 0-3-.06-4.5a1 1 0 0 1 .27-.71.89.89 0 0 1 .75-.28c1.08 0 2.17.08 3.23.15h.1a1 1 0 0 1 .57.32 1.06 1.06 0 0 1 .3.65 103.17 103.17 0 0 1 0 12.31.91.91 0 0 1-.1.4 1.12 1.12 0 0 1-.21.29 1 1 0 0 1-.31.21 1 1 0 0 1-.29.1h-.07c-1.15.07-2.33.12-3.49.14a.92.92 0 0 1-.23 0 .9.9 0 0 1-.6-.43c-.72-1.16-1.71-2.71-3-4.72V439a1 1 0 0 1-.28.71 1 1 0 0 1-.68.28c-1.13 0-2.22-.09-3.26-.15Zm3.36-13.5c-1 0-2.12.08-3.17.15h-.07c-.07 0-.05.08-.05.09a99.15 99.15 0 0 0 0 12.19v.08c0 .08 0 0 .06 0 1 .06 2.11.11 3.21.15v-.06c0-1.9-.05-3.84-.05-5.75a.47.47 0 0 1 .34-.45.47.47 0 0 1 .52.19c1.74 2.68 3 4.66 3.88 6.07 1.14 0 2.29-.07 3.41-.14h.08a101.68 101.68 0 0 0 0-12.22.3.3 0 0 0-.05-.08s0 0-.06 0c-1-.07-2.12-.13-3.21-.15a.2.2 0 0 0 0 .05c.05 2 .07 4.06.07 6a.47.47 0 0 1-.33.45.46.46 0 0 1-.52-.19c-1.86-2.78-3.27-4.92-4.18-6.36Z" fill="#ffffff"/>
                    <path d="M181.14 438.59a.52.52 0 0 1 0 .51.55.55 0 0 1-.46.29c-1.07.07-2.12.13-3.18.16a.44.44 0 0 1-.44-.26c-.64-1-1.39-2.21-2.23-3.51a5.15 5.15 0 0 1-.55-1.19v4.44a.51.51 0 0 1-.52.52c-1.08 0-2.15-.08-3.23-.17a.52.52 0 0 1-.36-.18.55.55 0 0 1-.18-.38 113.76 113.76 0 0 1 0-12.25.74.74 0 0 1 .18-.38.57.57 0 0 1 .36-.18c1.08-.07 2.16-.13 3.23-.16a.48.48 0 0 1 .52.52v5.21a5.72 5.72 0 0 1 .28-.68c1-2 1.74-3.57 2.33-4.81a.48.48 0 0 1 .44-.24c1.05 0 2.11.08 3.16.17a.54.54 0 0 1 .47.29.45.45 0 0 1 0 .51c-.66 1.43-1.74 3.68-3.24 6.73Z" fill="#f48120"/>
                    <path d="M170.38 439.83a1 1 0 0 1-.55-.3 1 1 0 0 1-.31-.67 112.52 112.52 0 0 1 0-12.32 1.06 1.06 0 0 1 .3-.67 1.1 1.1 0 0 1 .66-.33c1.08-.07 2.17-.12 3.26-.16h.21a.9.9 0 0 1 .5.26 1 1 0 0 1 .29.71v3.07c.67-1.38 1.25-2.57 1.7-3.55a1 1 0 0 1 .84-.47c1.08 0 2.15.09 3.2.17h.13a1 1 0 0 1 .71.5.92.92 0 0 1 0 1c-.65 1.42-1.69 3.6-3.11 6.49l3.3 4.81v.07a1 1 0 0 1-.07.94 1 1 0 0 1-.83.51c-1 .08-2.11.13-3.19.17h-.22a.91.91 0 0 1-.65-.48c-.55-.89-1.19-1.9-1.9-3v2.51a1 1 0 0 1-.29.71.92.92 0 0 1-.7.28c-1.1 0-2.2-.08-3.27-.17Zm.18-13.36h-.05a.13.13 0 0 0 0 .1 110 110 0 0 0 0 12.18.09.09 0 0 0 0 .08s0 0 .06 0c1.05.09 2.13.15 3.2.17v-4.44a.47.47 0 0 1 .91-.14 4.65 4.65 0 0 0 .51 1.08c.84 1.31 1.59 2.49 2.23 3.52 1 0 2.1-.1 3.14-.17l.08-.06v-.06l-3.41-5a.44.44 0 0 1 0-.47c1.48-3 2.56-5.28 3.23-6.73v-.05c0-.07-.06-.05-.1-.06-1-.08-2.1-.14-3.14-.17-.59 1.26-1.37 2.86-2.31 4.78a4.78 4.78 0 0 0-.26.62.45.45 0 0 1-.51.32.45.45 0 0 1-.39-.46v-5.22c-1.11 0-2.19.08-3.25.15Z" fill="#ffffff"/>
                    <path d="M187.58 430.83a5.67 5.67 0 0 1 3.29 1.53 3.62 3.62 0 0 1 1 2.75 4.26 4.26 0 0 1-1.5 3.14 6.15 6.15 0 0 1-4.2 1.46 8.62 8.62 0 0 1-4.87-1.75.55.55 0 0 1-.22-.6c.23-.66.47-1.38.73-2.15a.48.48 0 0 1 .31-.31.59.59 0 0 1 .45 0q.3.17.93.6a9.63 9.63 0 0 0 1.09.65 2.05 2.05 0 0 0 .9.22c1 0 1.55-.25 1.56-.79s-.58-.88-1.73-1.06a5.36 5.36 0 0 1-3.09-1.49 3.81 3.81 0 0 1-1-2.79 4.45 4.45 0 0 1 1.32-3 4.94 4.94 0 0 1 3.59-1.49 9.18 9.18 0 0 1 4.77 1.18.53.53 0 0 1 .24.27.56.56 0 0 1 0 .36c-.1.67-.22 1.36-.36 2.08a.47.47 0 0 1-.29.31.58.58 0 0 1-.43 0 8.32 8.32 0 0 0-3.31-.94 1 1 0 0 0-.65.23.67.67 0 0 0-.28.53.75.75 0 0 0 .38.66 3.37 3.37 0 0 0 1.37.4Z" fill="#f48120"/>
                    <path d="M184.93 440.05a9.92 9.92 0 0 1-3.84-1.71 1 1 0 0 1-.41-1.09c.23-.7.47-1.41.73-2.17a.92.92 0 0 1 .6-.61 1 1 0 0 1 .82 0c.22.12.54.32 1 .62a8.75 8.75 0 0 0 1 .62 1.54 1.54 0 0 0 .69.18c.77 0 1-.15 1-.2a.14.14 0 0 0 0-.13c0-.18-.31-.41-1.17-.58h-.28a5.71 5.71 0 0 1-3.24-1.62 4.31 4.31 0 0 1-1.14-3.11 4.93 4.93 0 0 1 1.45-3.34 5.41 5.41 0 0 1 3.92-1.62 9.65 9.65 0 0 1 5 1.24 1 1 0 0 1 .44.49 1 1 0 0 1 0 .64c-.09.65-.21 1.35-.35 2.07a.14.14 0 0 1 0 .06.94.94 0 0 1-.56.59 1 1 0 0 1-.78 0 7.88 7.88 0 0 0-3.13-.89.58.58 0 0 0-.36.12c-.09.08-.1.13-.1.18s0 .16.17.27a2.78 2.78 0 0 0 .92.29h.21l.29.05a6 6 0 0 1 3.39 1.6 4.12 4.12 0 0 1 1.19 3.09 4.73 4.73 0 0 1-1.66 3.47 6.5 6.5 0 0 1-4.51 1.58 7 7 0 0 1-1.29-.09Zm-2.56-4.71c-.26.78-.51 1.49-.72 2.15l.06.08a8.14 8.14 0 0 0 4.58 1.65 5.69 5.69 0 0 0 3.89-1.34 3.81 3.81 0 0 0 1.35-2.8 3.17 3.17 0 0 0-.92-2.41 5.27 5.27 0 0 0-3-1.4h-.23a3.44 3.44 0 0 1-1.26-.44 1.2 1.2 0 0 1-.59-1.05 1.15 1.15 0 0 1 .45-.9 1.51 1.51 0 0 1 .94-.32 8.69 8.69 0 0 1 3.51 1h.07c.13-.71.25-1.39.35-2a.13.13 0 0 1 0-.06v-.05a8.64 8.64 0 0 0-4.54-1.12 4.44 4.44 0 0 0-3.26 1.34 3.94 3.94 0 0 0-1.18 2.71 3.29 3.29 0 0 0 .88 2.46 4.79 4.79 0 0 0 2.73 1.33h.28c1.28.24 1.93.74 1.93 1.49a1.09 1.09 0 0 1-.32.79 2.32 2.32 0 0 1-1.71.47 2.54 2.54 0 0 1-1.09-.27 9.69 9.69 0 0 1-1.15-.68c-.42-.29-.72-.48-.9-.58Z" fill="#ffffff"/>
                </g>
                <path d="M88 450.71a8.15 8.15 0 0 1-1.77 5.46 6.48 6.48 0 0 1-5.23 2.21c-.37 0-.93 0-1.67-.06s-1.31-.06-1.68-.06-.6.17-.6.51 0 1.07.12 1.91.13 1.48.13 1.89c0 .22-.1.32-.29.32-.57 0-1.42 0-2.55-.05s-2 0-2.55 0a.36.36 0 0 1-.4-.41v-9.28q0-4.38-.38-9.19v-.19c0-.18.12-.29.42-.32a46.67 46.67 0 0 1 4.78-.14c1.46 0 2.86 0 4.19.05A7.64 7.64 0 0 1 86 445.4a7.13 7.13 0 0 1 2 5.31Zm-5.55.23c0-2.16-1.06-3.25-3.16-3.25-1.49 0-2.27.09-2.34.25a21.74 21.74 0 0 0-.1 3.22v2.55c0 .28.84.28 2.51.28q3.1.01 3.11-3.05Z" fill="#1a7138"/>
                <path d="M106.52 462.66c0 .06-.1.11-.28.14a26.15 26.15 0 0 1-2.66.08c-1.21 0-2 0-2.48-.08a1.3 1.3 0 0 1-.34-.07.56.56 0 0 1-.2-.28c-.14-.36-.34-.9-.61-1.62-.36-.92-.93-2.29-1.7-4.1a1.24 1.24 0 0 0-1.16-.6h-1.43c-.14 0-.21.23-.21.71s.06 1.57.18 2.82.17 2.2.17 2.83c0 .16 0 .25-.13.28h-.38c-.55 0-1.41.06-2.57.06a20 20 0 0 1-2.39-.08c-.27-.06-.4-.2-.4-.44 0-1 0-2.56.14-4.62s.15-3.6.15-4.63q0-5.89-.27-9.19v-.19c0-.16.14-.27.44-.32s1.72-.11 4.25-.17q2.58-.06 4.11-.06a8.69 8.69 0 0 1 5.18 1.44 5.36 5.36 0 0 1 2.26 4.66 7.49 7.49 0 0 1-.58 3.24 6.59 6.59 0 0 1-2.16 2.36c-.21.14-.32.28-.32.41s.57 1.16 1.7 3.5a25.82 25.82 0 0 1 1.69 3.92Zm-5.85-12.49a2.5 2.5 0 0 0-1.11-2.35 5.65 5.65 0 0 0-2.7-.5c-.88 0-1.35.13-1.41.4a26.35 26.35 0 0 0-.08 2.73v1.88c0 .05.14.09.44.14a12.77 12.77 0 0 0 1.78.12c2.07 0 3.08-.8 3.08-2.42Z" fill="#1a7138"/>
                <path d="M127.42 453.05a10.18 10.18 0 0 1-2.77 7.28 10 10 0 0 1-14.29 0 10.09 10.09 0 0 1-2.78-7.25 10.2 10.2 0 0 1 2.78-7.28 9.94 9.94 0 0 1 14.27 0 10.27 10.27 0 0 1 2.79 7.25Zm-5.27 0a5.18 5.18 0 0 0-1.27-3.54 4.28 4.28 0 0 0-3.38-1.54 4.23 4.23 0 0 0-3.33 1.59 5.24 5.24 0 0 0-1.32 3.52 5.17 5.17 0 0 0 1.24 3.55 4.33 4.33 0 0 0 3.41 1.49 4.28 4.28 0 0 0 3.34-1.57 5.18 5.18 0 0 0 1.31-3.55Z" fill="#1a7138"/>
                <path d="M143.05 447.53c0 .18-.1.28-.3.28-.35 0-1.75-.07-4.19-.21-.06 2.34-.08 4-.08 4.91 0 1.09 0 2.74.13 4.94s.13 3.85.13 4.94c0 .18 0 .29-.13.34a1.48 1.48 0 0 1-.38.07 21.1 21.1 0 0 1-2.45.11 20 20 0 0 1-2.52-.11.41.41 0 0 1-.39-.44c0-1.09 0-2.73.14-4.92s.13-3.84.13-4.93c0-.72 0-2.34-.11-4.84q-2.78.27-4.44.27c-.15 0-.22 0-.22-.13a8.48 8.48 0 0 1 .2-1.08c.14-.65.23-1 .25-1.18 0-.44.06-.87.09-1.31.07-.69.18-1 .34-1h.19a55.33 55.33 0 0 0 6.67.29c.83 0 2.37-.08 4.62-.26l1.82-.14h.32c.02 0 0 .11.06.27s0 .6 0 1v1.05a8.42 8.42 0 0 0 .09 1 8.29 8.29 0 0 1 .03 1.08Z" fill="#1a7138"/>
                <path d="M158.8 458.47a17.9 17.9 0 0 1-.24 2.2 8.55 8.55 0 0 1-.44 2.07.52.52 0 0 1-.46.26 2.82 2.82 0 0 1-.42 0q-1-.13-5.93-.14H145c-.31 0-.46-.14-.46-.41 0-1 .06-2.6.17-4.68s.18-3.65.18-4.69-.06-3-.17-5.91q0-1.11-.15-3.33v-.19c0-.21.1-.32.35-.32.69 0 1.72 0 3.1.05s2.41.06 3.09.06 1.7 0 3.07-.06 2.38-.05 3.06-.05c.48 0 .76.18.83.54.05.21.12.86.22 1.94s.15 1.74.15 2a.25.25 0 0 1-.28.29h-.3c-2.46-.2-4.68-.31-6.65-.31-.49 0-.79.12-.9.35a4.16 4.16 0 0 0-.07 1.07 2 2 0 0 0 .28 1.26 1.21 1.21 0 0 0 .9.26h1.21c1.17 0 2.35 0 3.55-.1l.77-.07a5.82 5.82 0 0 1 .75-.05c.22 0 .33.1.33.32a21 21 0 0 0-.25 2.13c-.07.74-.11 1.48-.11 2.22 0 .19-.13.28-.4.28l-1.26-.14c-.52-.05-1.73-.08-3.62-.08h-1.47c-.38 0-.6.09-.67.28s0 .33 0 .86a3.83 3.83 0 0 0 .14 1.36c.15.36.75.57 1.78.63h2c.49 0 1.22 0 2.19-.13s1.7-.13 2.18-.13c.15-.11.26.02.26.36Z" fill="#1a7138"/>
                <path d="M176.91 459.65a1 1 0 0 1-.3.58 8.4 8.4 0 0 1-6.8 3 9.11 9.11 0 0 1-7.05-3 10.32 10.32 0 0 1-2.63-7.24 10.53 10.53 0 0 1 2.58-7.18 8.65 8.65 0 0 1 6.83-3.09 9.12 9.12 0 0 1 7.07 2.77.83.83 0 0 1 .28.54 8.42 8.42 0 0 1-1 2 11.42 11.42 0 0 1-1.21 1.91.37.37 0 0 1-.28.11 3.31 3.31 0 0 1-.7-.56 7.54 7.54 0 0 0-1.47-1 5.06 5.06 0 0 0-2.29-.56 4 4 0 0 0-3.27 1.54 5.44 5.44 0 0 0-1.12 3.5 5.56 5.56 0 0 0 1.12 3.55 4 4 0 0 0 3.27 1.56 5.07 5.07 0 0 0 2.3-.53 6.92 6.92 0 0 0 1.45-1 3.69 3.69 0 0 1 .68-.53.39.39 0 0 1 .28.15c.15.17.55.75 1.21 1.74a10.19 10.19 0 0 1 1.05 1.74Z" fill="#1a7138"/>
                <path d="M192 447.53c0 .18-.11.28-.31.28s-1.75-.07-4.19-.21c-.06 2.34-.08 4-.08 4.91 0 1.09 0 2.74.13 4.94s.13 3.85.13 4.94c0 .18 0 .29-.12.34a1.77 1.77 0 0 1-.39.07 21.1 21.1 0 0 1-2.45.11 20 20 0 0 1-2.52-.11.41.41 0 0 1-.39-.44c0-1.09 0-2.73.14-4.92s.14-3.84.14-4.93c0-.72 0-2.34-.12-4.84q-2.77.27-4.44.27c-.15 0-.22 0-.22-.13a8.48 8.48 0 0 1 .2-1.08c.14-.65.23-1 .25-1.18 0-.44.06-.87.09-1.31.07-.69.18-1 .34-1h.19a55.33 55.33 0 0 0 6.67.29c.83 0 2.38-.08 4.62-.26l1.82-.14h.32c.02 0 .05.11.06.27s0 .6 0 1v1.05a7.08 7.08 0 0 0 .1 1 8.29 8.29 0 0 1 .03 1.08Z" fill="#1a7138"/>
            </g>
            <g>
                <path d="m162.09 513.13-.33-23.91A1.42 1.42 0 0 0 161 488l-29.12-14a1.51 1.51 0 0 0-1.82-.07 1.46 1.46 0 0 1-.3.17l-29.22 14a1.4 1.4 0 0 0-.79 1.24l-.33 23.91a1.37 1.37 0 0 0 .12.6c13.41 29.54 31.24 35.25 31.24 35.25v-.1c.8-.26 18.12-6.38 31.21-35.24a1.34 1.34 0 0 0 .1-.63Z" fill="#f5811e"/>
                <path d="M131.1 549.08c3.62-1.65 19.18-10 31.09-35.52a1.87 1.87 0 0 0 .18-.8l-.33-23a1.82 1.82 0 0 0-1-1.62l-29.38-14.61a1.83 1.83 0 0 0-1.6 0l-29.68 13.94a1.82 1.82 0 0 0-1 1.65l-.17 24.74a1.92 1.92 0 0 0 .17.78c1.47 3.22 12.54 26.37 30.25 34.47a1.84 1.84 0 0 0 1.47-.03Z" stroke="#17479d" stroke-width="1.5" stroke-miterlimit="10" fill="none"/>
                <path d="M131.14 555c4.13-1.88 21.85-11.34 35.42-40.45a2 2 0 0 0 .19-.91l-.37-26.21a2.1 2.1 0 0 0-1.16-1.85l-33.46-16.63a2 2 0 0 0-1.82 0l-33.79 15.81a2.13 2.13 0 0 0-1.21 1.89l-.18 28.17a2 2 0 0 0 .18.88c1.68 3.67 14.29 30 34.46 39.26a2.07 2.07 0 0 0 1.74.04Z" stroke="#17479d" stroke-width="1.5" stroke-miterlimit="10" fill="none"/>
                <path fill="#ffffff" d="M119.85 499.783c1.93 2.404 1.995 5.554.147 7.037s-4.91.737-6.838-1.666-1.996-5.554-.147-7.037 4.909-.737 6.838 1.666z"/>
                <path fill="#ffffff" d="M128.814 495.479c.786 2.86-.36 5.668-2.559 6.272s-4.62-1.223-5.405-4.083.36-5.668 2.559-6.272 4.619 1.223 5.405 4.083z"/>
                <path fill="#ffffff" d="M135.034 490.394c2.257.32 3.752 2.96 3.336 5.896s-2.585 5.057-4.842 4.738-3.752-2.96-3.337-5.896 2.585-5.058 4.843-4.738z"/>
                <path fill="#ffffff" d="M144.93 495.538c2.107 1.07 2.689 4.158 1.299 6.896-1.39 2.737-4.226 4.09-6.334 3.02-2.108-1.07-2.689-4.159-1.299-6.896 1.39-2.737 4.226-4.09 6.334-3.02z"/>
                <path d="M138.1 505.9a9.16 9.16 0 0 0-7.89-4c-4.17 0-7.67 2.41-8.58 5.64a9.69 9.69 0 0 0-5.4 8.92c0 5.33 3.91 9.65 8.73 9.65a8.34 8.34 0 0 0 6.36-3 8.18 8.18 0 0 0 5.37 2c4.82 0 8.73-4.32 8.73-9.65 0-4.84-3.17-8.82-7.32-9.56Z" fill="#ffffff"/>
                <path d="M103.75 494.54v-2.28a2.48 2.48 0 0 1 1.4-2.23l4.7-2.28" stroke="#17479d" stroke-width="1.5" stroke-linecap="round" stroke-miterlimit="10" fill="none"/>
                <path fill="#17479d" d="M113.68 486.44a.78.78 0 1 1-1.56 0 .78.78 0 0 1 1.56 0z"/>
                <path d="M145.86 531.93a46.51 46.51 0 0 1-6.85 6.58" fill="#17479d"/>
                <path d="M145.86 531.93a46.51 46.51 0 0 1-6.85 6.58" stroke="#17479d" stroke-width="1.5" stroke-linecap="round" stroke-miterlimit="10" fill="none"/>
                <path fill="#17479d" d="M136.5 540.96a.78.78 0 1 1-1.56 0 .78.78 0 0 1 1.56 0z"/>
            </g>
        </g>
    </g>
</svg>
