<?xml version="1.0" encoding="UTF-8"?>
<svg data-bbox="0.023 -0.004 88.997 70.03" viewBox="0 0 89.03 70.03" xmlns="http://www.w3.org/2000/svg" data-type="color">
    <g>
        <g>
            <path d="M41.37 6.73c-.24 2.7-5.12 5.58-4.7 8.42s4.25 2.28 9.72 1 11.41-1.58 15.3.07c-5.44-2.63-11.58-1.55-14.74-.81s-8 1.73-9.22-.16 2.11-4 3.68-6.37.59-5.13-2.28-6.75c0 0 2.49 1.87 2.24 4.6Z" fill="#ffcc69" data-color="1"/>
            <path d="M59.77 27.69a1.62 1.62 0 0 0 0 1.92c.74 1 3.13.61 6-.32s8.88-.84 12.11 1.14a15.84 15.84 0 0 0-9.07-2.1c-2.54.07-4.61 1.37-6.79 1.58s-2.75-1.13-2.25-2.22Z" fill="#ffcc69" data-color="1"/>
            <path d="M10.5 33.68c1.82 3.81 1.61 6.11 1.08 7.49s-1.67.63-2.95-.52c2 2.46 3.55 2.48 3.9-.3s-.67-5.55-3-9.69S7 24.77 7.29 19.64s2.88-7 2.88-7c-2.9 1.83-3.93 7-3.37 11.77s1.87 5.46 3.7 9.27Z" fill="#ffcc69" data-color="1"/>
            <path d="M34.34 32.58c-4.66 1.92-5.33 3.93-4.13 5.1A6.32 6.32 0 0 0 33.65 39c-3.11-.86-3.79-2.25-2.72-3.57s2.9-2.52 6.88-3.58 8.93-1.4 10.95-.82c-1.82-1.14-9.76-.38-14.42 1.55Z" fill="#ffcc69" data-color="1"/>
            <path d="M19.61 52.56c-1-2-.51-3-.29-3.32 0 0-.94.57-.37 2.9s3.62 3.51 6.24 7a12.16 12.16 0 0 1 2.55 7 10.86 10.86 0 0 0-2-6.83c-2.37-3.59-5.13-4.75-6.13-6.75Z" fill="#ffcc69" data-color="1"/>
            <path d="M12.23 54.5c-1.08-.72-7-1.14-9.78-4.72S.13 43.23.13 43.23A8.44 8.44 0 0 0 3 51c3.13 2.72 7.53 3 8.74 3.44a6 6 0 0 1 2.19 1.9 5.89 5.89 0 0 0-1.7-1.84Z" fill="#ffcc69" data-color="1"/>
            <path d="M88.67 40.09c-.75.63-4.7 2.72-8.19 1.52s-7.2-4.16-11.44-5.5-8.91.89-8.91.89A14.43 14.43 0 0 1 67 36c3.44.53 6 2.14 9 4.09s4.37 2.69 8.84 2.22 4.58-2.85 3.83-2.22Z" fill="#ffcc69" data-color="1"/>
            <path d="M82.29 40.17c-2.28-.28-3.72-2.24-5-3.4a7.8 7.8 0 0 0-2-1.47 5.54 5.54 0 0 1 2.8.42c1.62.63 3.9-.85 1.44-3.65S71.27 29 67.66 29.5s-5.3 1.76-7.44 1-1.51-3.27.67-3.86 6-1.44 4.63-6.53S54.18 16 48.46 16.83s-8.56 2-11.19 1.62-2.46-4.21-.43-6.28 5.59-7.44 0-10.71S23.3.9 20.52 4.66s-3.93 9.23-4.56 12-2.63 1.51-2.7-.66.28-3.83-1.9-3.44S7 18.38 7.78 24s5.41 8.77 5.34 14.46-2.42 5.15-3.72 3.71S6.31 38 2.87 39.51s-2.6 6.38 0 9.86 8.92 4.07 9.9 4.88S14 57 16 57.51s5.58 0 8.36 4.18 2.38 5.54 2 7.12.4 1.51.67.42c0 0 1.68-4.77-1.41-8.31s-6.87-6.08-7.37-9.2 1.16-3.79 2.85-2.6 3.4 2.81 6 2.25-.73-2.88.39-3.93S31 48 34.35 47s4.64-4.14 1.9-6.18-6.71-1.05-7.2-4 2.43-4.56 9.73-6.14 11.09-.91 11.72 1.05-2.6 3.21-3.5 5.64-.07 3.68 4.11 2.94S60 35 65.9 35.08s10.25 3.23 12.85 4.85 5.44 1.09 5.76.77.07-.25-2.22-.53ZM62.58 18.36c3.4 2 3 5.36.49 6.87 1.92-1.89 2.42-3.62 0-6.15S51.61 17.2 51.61 17.2s7.58-.83 10.97 1.16ZM12.52 45.77c-2.45.95-3.81-2-5.31-3.82S4 40.28 2.82 41.72s-.91 4.74 1.67 7.33 8.38 4.67 8.38 4.67a21 21 0 0 1-8.52-4.48c-4.39-3.67-2.29-9.8.94-9s4.5 7 7.86 4.7c2.85-1.94 1.67-6.76 1.21-8.28l-.15-.49.15.49c1.82 5.68.55 8.19-1.84 9.11Zm16.67-6.54c1.9 1.26 6.3 1.45 6.88 4s-1.64 3.75-6.38 3.3c4-.18 5.58-.69 5.82-2.37s-1.12-2.38-3.33-3.11-5.58-1.68-4.07-5.58c0 0-.81 2.53 1.08 3.76ZM27.65 4.57c-6.55 2.2-8.33 11.84-9.78 15.91S14.55 22 14.55 22s1.92 1.73 3.09-2.06S21 4.11 30.22 3s6.42 7.12 6.42 7.12C37.93 5 34.2 2.37 27.65 4.57Zm25.08 33.32c-4.44 1.73-3.74-1.59-.89-3.83s2.39-5.76-5.84-6.51c-6.59-.61-13.54 2.7-16 4l-.94.52s.33-.2.94-.52a36.81 36.81 0 0 1 11.23-4.1c4.38-.73 10.26.09 11.86 2.09s.45 3.45-1.27 5-2.22 3.18-1.19 3.26 3-.68 5.32-1.63 5.4-2.56 10.36-1.9c-5.25-.59-9.13 1.89-13.58 3.62Z" fill="#ffcc69" data-color="1"/>
        </g>
    </g>
</svg>
