<?xml version="1.0" encoding="UTF-8"?>
<svg data-bbox="0.017 0.017 84.422 89.593" viewBox="0 0 84.44 89.61" xmlns="http://www.w3.org/2000/svg" data-type="color">
    <g>
        <g>
            <path d="M34.13 39.46A5.52 5.52 0 0 0 37.35 43c2.5.87 5.68-1.54 7.95 1.41s2.5 8.9-4 10.22-7.95.41-7.13-.14 3.68-.18 5.58-3.36 1.23-5.68-1.36-5.36-4.28-3.22-4.43-4.86-.05-2.04.17-1.45Z" fill="#4964ab" data-color="1"/>
            <path d="M78.2 50.88s-2.29 7.92-5 10.47c-4.27 4-8.94 3.31-9.58 5.45s4.16 2.88 9-1.32c5.75-4.93 6.28-15.35 5.58-14.6Z" fill="#4964ab" data-color="1"/>
            <path d="M71.76 41.31c-2.48 2.35-5.41 4.91-8.92 4.67s-1.29-4.5.82-6.95 3.88-5.18 2.72-6.37-4.12.51-6.81.27-4.07-5-1.13-7.39 7.7-4.43 7.67-8.24-6.11-6.71-12.43-5.45-6.47 3.68-14.85 3.92A94.88 94.88 0 0 1 23.37 15c-2.56-.23-4.53 2.83-2.9 6.68s7 1.8 11.51.31 8.38-1.95 9.71 2 .07 5.65-.92 5.58.91-4.49-1.78-3.88a6.7 6.7 0 0 0-4.76 8.14c1.12 4.29 4.22 5.32 8.55 5.83s7 .44 7.32 4.19-.17 9.53-5.31 12.87-9.25 2.34-11.37 1.18-3.2-1.86-4.29-.7-.72 3.56-3.22 4-.84-4.86-.64-6.29-1-2.22-3.22.25-2.54 6.18-3.63 9.24-2.48 4.5-4.75 4.68-1.52-2.9-1.52-3.88S9 66.59 7 69.59 5.72 77 4 79.22s-6.42 5.07-2.4 10.39a5.36 5.36 0 0 1 1.06-6.92c3.47-3.44 8.07-5.62 12.6-5.21s6.54.78 6.1-1-3.31-1.33-4.91-2 2.08-2 6.13-3.1 7-1.7 9.4.24 6 5.28 13.63 4.36 11-3.31 11.3-4.77-1.15-2.21-5.86-.85-9 .68-8.41-2.42 5.55-3.85 9.27-3.06S64.3 66 69.62 59.16s7.22-13 7.56-17.17-2.93-2.99-5.42-.68Zm-34 31.53c-1.28 0-3.46-2.23-6.59-3.36a10.92 10.92 0 0 0-6-.37c-4 .13 1.13-3.58 6.4-2.86s7.43 6.54 6.15 6.59Zm12.33-57.18c-2.34 1-3.11 1.28-4.13 1.16s.63-.13 2.06-1.16c.11-.07 4-2.81 10.36-1.72s6.17 4.68 3.81 6.67.05-1-.82-2.77 0 .59-.4 2.18a5.41 5.41 0 0 1-2.62 3.32c-1 .45 2.89-2.07.64-5.84s-6.56-2.79-8.9-1.84Zm23 32.93s-3.31 10.72-10.63 13.12-10.62-.13-14 0-1.72-1.54 1.82-1.5 7.26.73 10.4-1.5 2.86-7.4 4.45-9.44 2.13.23 1.68 2.36-3.54 5.72-2.23 5.68S67.28 54.26 69 50s2.73-7.18 4-7.09.74 3.8.05 5.68Z" fill="#4964ab" data-color="1"/>
            <path d="M84.4 11.17c-.73-7.58-6.63-13.81-17.67-10s-16.9 9-25.21 11-14.82.82-13.66 1.46c0 0 8.67 1.16 16.35-1.25s20.3-9.76 27.65-4.45 1 11.54-2.08 13.54-4.59 3.58-4.09 5 1-1.91 5.45-2.95 13.98-4.77 13.26-12.35Zm-7.2 8c-1.34.5 3.78-2.86 2.9-8.13s-2.69-7.31-6.46-8.18 0-2.77 3.56-1a10.17 10.17 0 0 1 5.8 8.45c.33 5.29-4.46 8.31-5.8 8.81Z" fill="#4964ab" data-color="1"/>
        </g>
    </g>
</svg>
