<?xml version="1.0" encoding="UTF-8"?>
<svg data-bbox="-0.001 -0.001 68.031 86.508" viewBox="0 0 68.03 86.51" xmlns="http://www.w3.org/2000/svg" data-type="color">
    <g>
        <g>
            <path d="M5.2 82.05s.6-.89 1.09-1.08a1.42 1.42 0 0 1 .68-.1 1.4 1.4 0 0 1 2-.12c1.09 1 .16 2-.45 2.46S7.73 85 6.44 85.35a7.26 7.26 0 0 1-2.06.19 1.63 1.63 0 0 1-1.26.7c-.92 0-1.29-.33-1.79-.14s-1.06.67-1.29.22.52-2 1.76-3 2.08-.49 3.4-1.27Z" fill="#ffcc6a" data-color="1"/>
            <path d="M5.88 77.89a2.79 2.79 0 0 1 1.21-1.1c.75-.3 1 0 1.75-.13s1.16-.66 2.05-.61a3.83 3.83 0 0 0 3.77-1c1.84-1.62 1.52-3.1 1-4s-.88-1.15-.59-1.74-.31-1-.94-.56A11.66 11.66 0 0 1 12 70.19c-.91.42-2 0-4.17 1.14a4.24 4.24 0 0 0-2.29 4c.2.47.56.59.52 1s-1.24 1.92-.18 1.56Z" fill="#ffcc6a" data-color="1"/>
            <path d="M12.8 67.89c.1-.1-.43-.75 1.89-1.17a20.14 20.14 0 0 0 6.08-2.12c1.45-.83 1.9-2 3.57-2.37s2.3-1.5 3.44-2.71 2.42.41 5.26.13 8.32-1.23 9.93-3.92-1.49-4.36-.19-5.64 8.73-5.05 9.28-9.17-3.54-8.84-3.42-10.53 1.5-5.21-2.43-7.28-11-.14-12.27-.33-1.67-2.34-6-1.34a24.41 24.41 0 0 0-12.4 6.41c-3.73 3.76-3.28 7.85-4.31 8.86s-1.92.91-2.6 2.44-.45 2.21-.93 4.35A6.92 6.92 0 0 0 9.06 50c1.89 2.61 6.46 1.73 8.41 1.82a9.84 9.84 0 0 0 6.11-1.13 5.6 5.6 0 0 0 2.76-4.88c-.19-1.12-.13-2.59-1.24-2.44S24 44.63 21.69 45s-3.46-.28-3.16-1.72-.42-2.9-.87-4.35a6 6 0 0 1 1.25-5.07c1.16-1.26 3.5-1.6 5.33-2.79S26.18 29 27.56 29s4.54.15 5 2.12-2.91 3.69-2 6.44 3.54 3.67 3.82 4.53a3.41 3.41 0 0 1-1.23 3.15c-.87.52-3.1 1.17-3.46 2.44s1.1 2.47.38 3-1.62-.2-2.91 1.45.34 2.58.6 3.2S26.25 57 23.6 57.2a14.15 14.15 0 0 0-7.91 3.33c-2.39 2-1.61 3.93-2 4.54s-1.44.78-1.92 2 .12 1.75 1.03.82Z" fill="#ffcc6a" data-color="1"/>
            <path d="M26.89 48.09s-.15-.3.32-1 .66-.89.63-1-1.14-2.43 0-3.94 2.72-2.14 4.21-.68 1.22 2.58 0 3.36a9.87 9.87 0 0 0-2.68 1.94c-.66.84-.66 1.9-1.86 2.4s-1.27-.45-.62-1.08Z" fill="#ffcc6a" data-color="1"/>
            <path d="M51.4 33.88s-1.35-.17.11-1.34 3.5-2 5-4.12-.8-3.56-.74-5 1.52-4.36-1-7.06-6.14-2.8-5.4-7.93S53-.66 52.83.09s-2.18 3.14-1.31 6.72 1.17 4.75 4.9 4.92 9.82 1.65 11.23 5.32-2.15 5.32-1.82 6.25 3.26 6.41-.1 9-5.42 2.51-5.4 3.68-.89 4.65-2.75 6.23-2.5.85-3 1.23a3.93 3.93 0 0 1-2.25 1.45c-1.31.17-.93-1.18-.38-1.66a7.84 7.84 0 0 0 2.08-4.83c-.03-2.04-2.84-2.67-2.63-4.52Z" fill="#ffcc6a" data-color="1"/>
            <path d="M18.81 24.23a23.36 23.36 0 0 0-5.27 4.31c-2.3 2.6-2.19 5.57-2.82 6.74s-2.41 1.62-3.35 2.55a5.3 5.3 0 0 0-1.25 2.31 3.2 3.2 0 0 1 .47-2.69c.93-1.14 2.22-2 2.63-3.37s-.77-3.16 2.42-5.8a26.89 26.89 0 0 1 7.17-4.05Z" fill="#ffcc6a" data-color="1"/>
            <path d="M27.6 29.77c.08 0 2.83-.21 3.7 1.33s-.21 2-.92 3.18a3.58 3.58 0 0 0-.22 3.41c-.84-1.91-1.2-2.52-.63-3.84s1-1.57 0-2.83a2.8 2.8 0 0 0-1.93-1.25Z" fill="#ffcc6a" data-color="1"/>
            <path d="M17 52.38s1.71.87 4.75-.13 4-2.57 4-2.57.09 1.9-3.51 3.41-5.24-.71-5.24-.71Z" fill="#ffcc6a" data-color="1"/>
            <path d="M24.27 63a7.76 7.76 0 0 0 2.57-1.37c1.06-.92 1.26-1.92 2.2-1.76s1.62 1 5.27.51a20.35 20.35 0 0 0 6.15-1.87s-1.36 1.32-5 2.25a11.15 11.15 0 0 1-6.24-.32c-.21.11.27 1-1.15 1.86a4.59 4.59 0 0 1-3.8.7Z" fill="#ffcc6a" data-color="1"/>
            <path d="M55.78 44.09c.1 0 3.48-1.09 4.36-3s-.45-4 1.13-5 6.25-2.66 6.76-6.88c-.11 4.71-.37 6.34-2.77 7.68s-3.34 1-3.24 1.77.8 2.12-1.3 3.81a8.5 8.5 0 0 1-4.94 1.62Z" fill="#ffcc6a" data-color="1"/>
        </g>
    </g>
</svg>
