<?xml version="1.0" encoding="UTF-8"?>
<svg data-bbox="-0.003 -0.003 66.193 75.566" viewBox="0 0 66.19 75.52" xmlns="http://www.w3.org/2000/svg" data-type="color">
    <g>
        <g>
            <path d="M63.4 24.08c-4.07-2.74-16.49-8.55-16.22-15.79S53.11.22 55.09 0c-4.88-.1-8.42 2.15-9.6 6.87s1.4 10.13 5.63 14.58 6.07 13.55-.59 18.18c-2 1.37-4.21 1-6.36-.22-.9-3.36-2.86-7.25-3.5-11.1-.75-4.5-1.18-11-7-10.18s-5.31 8-3.17 12.44C31.68 33 35.66 37.71 40.93 41c-.47.62-1.47.89-3.24.86-3.74-.08-6.63-1.61-9.53-4.39S18 33.3 14.13 38.65s-2.5 10.09.88 15.16S23 61.93 23.09 67s-.32 6.19-2.25 7.52-1.22 1.45 1.38 0c0 0 7.13-4.4 7-10.51s-5.77-12.53-2.17-16.61 7.34-2 11-1.34c3 .58 5.79-.67 6.38-3.18a16.65 16.65 0 0 0 12.12.88c11.94-4.03 10.93-16.95 6.85-19.68ZM34.18 25c-.38-4.71 2.38-4 3.64-.08 1.14 3.54 2 8.31 2.78 11.52-3.51-3.65-6.22-8.89-6.42-11.44Z" fill="#4964ab" data-color="1"/>
            <path d="M54.23 13.17c.07.05-3.35-1.37-3-3.6s1-2.41 1.51-2.76.72-2.6 2.62-3.64 3.94-.67 5.12-1.37A4.63 4.63 0 0 0 62.11.19a13.3 13.3 0 0 1-3 4.08c-2 1.79-4.37 2-5.34 2.73s-.59 1.69-1.2 2.74.05 2.14 1.66 3.43Z" fill="#4964ab" data-color="1"/>
            <path d="M44.21 46.77s-.75 4.71-5.21 5.83-4.24 0-6.6 1.4-2.06 4-1.69 5.17c-1.69-4.23-2-8.15 1.53-8.79s6.05.76 8.69-.46a6.14 6.14 0 0 0 3.28-3.15Z" fill="#4964ab" data-color="1"/>
            <path d="M25.46 32.76s-7.83-3-13.48.52-7.53 9.89-3.41 15.12 10 11.1 11.43 14.39a18.56 18.56 0 0 1 1.17 7.36S21 65.4 19 62.14 12.85 54.9 7.83 51.89s-9-8-7.52-14.71 6.86-9.43 10-9.21 6.8 2.41 9.66 2.23 5.49 2.56 5.49 2.56Z" fill="#4964ab" data-color="1"/>
        </g>
    </g>
</svg>
