<?xml version="1.0" encoding="UTF-8"?>
<svg data-bbox="-0.042 -0.005 56.807 76.855" viewBox="0 0 56.76 76.85" xmlns="http://www.w3.org/2000/svg" data-type="color">
    <g>
        <g>
            <path d="M16.16 68a62.81 62.81 0 0 0 .75-7.48c0-2.77-.13-4.52-.13-4.52s-.36.44-1.44.18a2.56 2.56 0 0 1-1.57-1.15 5.42 5.42 0 0 1-4.31.33c-2.24-.87-3.06-4.83.62-6.7s6.34-.59 6.34-.59 1.28-4.37 6.24-3 3.7 5.4 3.7 5.4 3.62-.21 2.77 3.9-4.6 2-6.21 2.21-3.39 3.7-3.92 5.52a24.29 24.29 0 0 1-1.3 3.9c-.1-.13 1.24-5.14.93-5.55s-1.88 9.13-2.47 7.55Z" fill="#4964ab" data-color="1"/>
            <path d="M21.44 62.82a48.11 48.11 0 0 0-3 8.29 22.11 22.11 0 0 0-.52 5.74s1-4.47 1.76-7.36 2.75-5.43 3.1-6.4-.97-1.09-1.34-.27Z" fill="#4964ab" data-color="1"/>
            <path d="M14.89 66.53s.23-3.71.19-5.64-.38-3.76-.94-3.76-.52.6 0 2.14.5 8.21.75 7.26Z" fill="#4964ab" data-color="1"/>
            <path d="M46.11 35.78a4.74 4.74 0 0 0-.54-2.88c-.72-1.2-1-4.46-4.68-5.7s-7.32.8-8.89 1.54-4.24-.33-5.86-.18-2.62-.3-4.21-.25-2 1.2-4 1.1-2.74-1-4.49-.82-2.64 1.13-3.67 1.23a3.66 3.66 0 0 0-2.44 2C6.94 32.6 5 33 4.66 35.6s2.8 4.57 4 4.6 1-.85 2.28-.44 1.93 1.05 2.72 1.21 2 1.49 4.24.92 2-1.38 3.78-1.87a6.23 6.23 0 0 1 3.05-.13 15.53 15.53 0 0 0 2 0C27.87 40 29.18 42 31 43a11.6 11.6 0 0 0 4 1.13 10.19 10.19 0 0 0 6.72.72c3.06-.95 3.16-3.31 3.42-4s1.08-1.39 1.21-2.39a17.24 17.24 0 0 0-.24-2.68Zm-8.59 1.4c-1.94-.13-3.23-1.29-4.87-1.16s-2.79 1-4.84 1-2.69-.36-3.71-.34a15.17 15.17 0 0 1-3.24 0 21.16 21.16 0 0 0-3.72-.93c-1.73-.19-2.94.37-3.91.39s-.92-.14-.92-.14-.33-1-.87-1.07-.77.8-1.4.19-.08-1 1.13-1.39 1.16-1.56 2.45-1.56 3.79.73 6.51.81 5.89-.67 7-.64 3.66 1.08 6.16.52S36.4 31 37.6 31.05a3.4 3.4 0 0 1 3.12 3.47c-.02 2.39-1.25 2.79-3.2 2.66Z" fill="#4964ab" data-color="1"/>
            <path d="M53.39 8.44a8 8 0 0 0-2-4.21 4.86 4.86 0 0 0-2.85-1.74c-.81-.23-2-2.12-5.43-2.43s-6 .56-8.13 1-2.68 2.41-4.26 2.84-4.23 2.42-5.58 3.19a6 6 0 0 1-3.55.31C18.07 6.75 16.8 8 16 8.46s-2.75.35-4.08 1-1.79 2.24-4.11 4a5.76 5.76 0 0 0-2 6.53c.73 2 3.24 3.19 5.43 3.44s2 1.26 4.7 1 4-2.22 7.28-2.89 3.45.69 5.93.81a37.32 37.32 0 0 0 13.18-1.29c6-1.76 9.11-5.05 10.15-7.27a9.27 9.27 0 0 0 .91-5.35Zm-10.63 4.32c-1.48 1.79-4.85 2.6-7 2.33s-5.12.6-6.88.6-3.79-.57-5.72-.2-3.48 2-6.08 2.12-4.36-.58-4.2-1.21-.37-1.56 0-2.1 1.28-.3 2.12-1.08 1.06-1.49 2.45-1.52a29.4 29.4 0 0 0 3.78.11c1.46-.17 2.52-.88 3.71-1.09a28.9 28.9 0 0 1 3.33-.29 15 15 0 0 0 3.9-1.33C34 8.17 34.54 6.21 37 6s3 .17 4-.14a2.19 2.19 0 0 1 2.79 1.21 6.45 6.45 0 0 1-1.03 5.69Z" fill="#4964ab" data-color="1"/>
            <path d="M55.61 7.13s-.5 4-.5 5.14A14.11 14.11 0 0 1 53 17.62c-.89 1.22-3.85 2.92-5.47 3.84s-5.32 1.27-4.7 2.12 3.66-.58 5.16-.5 5.43-.85 6.47-2.66.5-3.81 1.16-5.06 1.38-1.78 1.07-3.66-.62-5.38-1.08-4.57Z" fill="#4964ab" data-color="1"/>
            <path d="M14.81 5.32a4.53 4.53 0 0 0-3.12.89c-.61.62-4.43 2.81-6 3.85s-2.81 4.16-3.31 6 .46 3.66 0 3.89-1.38-2.26-1.2-3.49-.85-2.82.11-5S2.43 8.94 4.64 7.6s3.24-2.78 5.55-2.82 5.28-.88 6.43-.48.12 1.02-1.81 1.02Z" fill="#4964ab" data-color="1"/>
            <path d="M15.62 25.39a17 17 0 0 0 3.8-.84c1.06-.51 1.72-1.38 3.78-1.46s3.62 0 3.11.39-1.37.15-2 .51a13.07 13.07 0 0 1-4.91 1.65c-1.9.07-4 .46-4.44.18s-.02-.37.66-.43Z" fill="#4964ab" data-color="1"/>
            <path d="M46.67 28.36a5.76 5.76 0 0 1 1.46 2.69c.27 1.51.1 2.26.35 2.18s.42-1 .39-1.31.19-1 .21-1.65a1.66 1.66 0 0 0-.7-1.72c-.71-.52-1.19-1.29-1.71-1s-.24.55 0 .81Z" fill="#4964ab" data-color="1"/>
            <path d="M2.63 34.13a10.42 10.42 0 0 0-.52 3.78c.26 1.39.85 1.72 1.62 2.6S6.52 43.72 7.55 44s3.27-.16 3.17.18-.54.72-3.29.74-3.36-.64-3.88-1.18S.29 41.28 0 39.68s1-3.08 1.06-4.11S2.37 33 2.7 33.11s-.07 1.02-.07 1.02Z" fill="#4964ab" data-color="1"/>
            <path d="M29.39 44.46c0 .25.23.85 1.95 1.08s2.52-.31 3 .28-.33 1.47-.77 1.34A11.11 11.11 0 0 0 31 46.8a3.5 3.5 0 0 1-2.77-1.24 21.25 21.25 0 0 0-1.57-2.31c-.46-.46 0-.84.95-.59s1.7.39 1.78 1.8Z" fill="#4964ab" data-color="1"/>
        </g>
    </g>
</svg>
