<?xml version="1.0" encoding="UTF-8"?>
<svg data-bbox="0 0 400.001 125" xmlns="http://www.w3.org/2000/svg" viewBox="0 0 400 125" height="125" width="400" data-type="color">
    <g>
        <g clip-path="url(#a8d45514-bddb-44f5-8dff-b24734eeceea)">
            <path fill="#EADBE6" d="M31.913 125c-9.522 0-18.473-4.596-24.555-12.607C2.614 106.145 0 98.222 0 90.083V34.92c0-9.058 3.153-17.644 8.877-24.176C14.95 3.815 23.133 0 31.913 0h336.174c8.677 0 16.783 3.74 22.845 10.528 5.847 6.559 9.068 15.22 9.068 24.388v55.165c0 9.169-3.221 17.83-9.068 24.388-6.057 6.789-14.168 10.528-22.845 10.528L31.913 125z" data-color="1"/>
            <path fill="#FBFDFC" d="M34.21 116.984c-9.463 0-18.358-4.286-24.403-11.759a33.162 33.162 0 0 1-7.313-20.809v-51.46c-.038-8.343 3.116-16.393 8.833-22.544C17.354 3.949 25.483.389 34.209.389h334.076c8.623 0 16.685 3.484 22.703 9.822 5.834 6.172 9.058 14.308 9.012 22.746v51.46c.049 8.437-3.172 16.574-9.003 22.748-6.018 6.332-14.08 9.819-22.704 9.819H34.209z" data-color="2"/>
            <path fill="#13281B" d="M34.21 107.943c-6.658 0-12.94-3.046-17.236-8.356a24.174 24.174 0 0 1-5.3-15.17v-51.46a23.932 23.932 0 0 1 6.389-16.408c4.278-4.584 10.01-7.107 16.146-7.107h334.075c6.063 0 11.748 2.474 16.014 6.968a23.914 23.914 0 0 1 6.533 16.564v51.442a23.914 23.914 0 0 1-6.533 16.564c-4.266 4.489-9.954 6.968-16.014 6.968l-334.075-.005z" data-color="3"/>
            <path fill="#30492C" d="M368.284 104.929H34.209c-5.947 0-11.27-2.805-14.845-7.224a21.07 21.07 0 0 1-4.643-13.289v-51.46a21.01 21.01 0 0 1 5.594-14.374c3.533-3.775 8.459-6.135 13.9-6.135h334.069c2.593.013 5.156.553 7.527 1.587a18.83 18.83 0 0 1 6.255 4.423 20.988 20.988 0 0 1 5.709 14.517v51.442a20.998 20.998 0 0 1-5.709 14.517 18.826 18.826 0 0 1-6.257 4.415 19.062 19.062 0 0 1-7.525 1.581z" data-color="4"/>
            <path fill="#4E603A" d="M19.364 97.705a21.07 21.07 0 0 1-4.643-13.289v-51.46a21.01 21.01 0 0 1 5.594-14.374c3.533-3.775 8.459-6.135 13.9-6.135h334.069a18.852 18.852 0 0 1 12.687 4.936c.377.34 1.095 1.068 1.095 1.068C39.129 33.775 19.364 97.705 19.364 97.705z" data-color="5"/>
            <path fill="#EFE9F4" d="M36.715 33.112c5.882-5.8 8.537-12.584 5.932-15.153-2.606-2.57-9.486.05-15.367 5.849-5.881 5.8-8.537 12.584-5.931 15.153 2.605 2.57 9.485-.05 15.366-5.849z" data-color="6"/>
        </g>
        <defs fill="none">
            <clipPath id="a8d45514-bddb-44f5-8dff-b24734eeceea">
                <path fill="#ffffff" d="M400 0v125H0V0h400z"/>
            </clipPath>
        </defs>
    </g>
</svg>
