<?xml version="1.0" encoding="UTF-8"?>
<svg data-bbox="0.02 0.02 2060.616 2787.794" viewBox="0 0 2060.64 2787.79" xmlns="http://www.w3.org/2000/svg" data-type="color">
    <g>
        <path d="M138.18 1692.55c-.82-.73-1.72-2.15-2.59-2.13-.86.03-1.67 1.51-2.5 2.35 1.24.86 2.47 1.72 3.71 2.58.42-.85.84-1.7 1.39-2.8Z" fill="#f5ad3b" data-color="1"/>
        <path d="M1971.47 2009.58c59.26 11.01 95.63-21.95 88.21-81.41-4.09-32.79-11.57-65.51-21.12-97.18-25.36-84.1-74.82-153.31-137.48-213.74l-17.38-14c14.46 2.91 20.48 4.12 26.51 5.34 16.26 3.35 32.41 8.7 48.81 9.66 34.83 2.02 55.08-23.47 46.98-57.17-1.48-6.14-4.32-12-6.93-17.8-51.41-114.46-139.04-187.15-258-223.74-10.52-3.24-20.88-7.01-30.39-10.22 14.02-117.9 19.24-233.76-13.83-345.7-29.98-101.48-70.51-199.84-106.61-299.5-2.59-7.14-6.79-13.75-10.73-20.32-10.39-17.34-23.87-30.86-45.88-28.97-21.62 1.85-34.17 16.57-41.68 35.19-6.68 16.55-10.35 34.3-17.02 50.85-27.19 67.47-54.26 135.01-83.12 201.78-8.23 19.04-22.34 35.55-33.03 52.1-38.79-34.33-71.46-69.28-109.99-95.65-38.35-26.24-82.59-43.85-126.55-66.43-4.22-39.93-10.75-51.3-58.25-94.38 12.36-25.87 23.77-54.15 38.8-80.36 46.29-80.66 105.86-149.62 178.96-208.03 33.89-27.08 68.13-48.5 110.68-57.07 19.96-4.02 40.15-9.08 58.79-17.05 30.57-13.07 38.04-43.03 17.4-69.12-9.27-11.72-21.74-21.93-34.69-29.51-35.46-20.76-74.12-25.9-114.78-20.15-50.27 7.11-95.75 25.96-139.22 51.56-20.12 11.85-42.27 20.23-67.57 32.09-7.51-28.64-15.39-51.58-19.35-75.17-8.86-52.96-15.72-106.26-23.51-159.4-4.28-29.17-14.97-54.06-44.97-66.06-33.26 11.37-52.95 36.54-62.96 67.75-14.8 46.12-26.92 93.17-38.52 140.24-6.11 24.79-10.9 49.39-32.65 67.27-50.09-11.24-100.73-15.31-152.04-7.66-58.33 8.7-95.5 46.25-125.71 92.38-11.36 17.34-3.76 31.55 16.33 38.09 10.52 3.42 22.03 5.59 31.06 11.46 28.78 18.71 55.52 40.74 85.05 58.07 50.59 29.7 95.82 64.52 122.96 117.75 24.81 48.68 47.51 98.43 69.43 144.13-8.26 15.82-16.83 27.56-20.54 40.68-3.65 12.9-2.37 27.2-2.94 36.13-106.92 58.27-229.67 75.39-317.87 167.04-15.16-28.05-27.84-51.63-40.62-75.15-43.92-80.87-87.44-161.98-132.17-242.4-9.84-17.69-22.39-34.58-36.6-48.96-24.16-24.44-49.96-21.24-65.58 9.02-18.68 36.19-38.03 72.93-49.66 111.67-17.96 59.8-32.55 120.98-43.34 182.49-22.62 128.96-10.05 255.03 42.64 375.73 13.1 30.02 30.05 58.36 46.13 89.19-10.8 4.85-21.04 9.55-31.37 14.07-123.21 53.96-215.6 140.33-274.64 261.59-9.07 18.64-18.14 38.56-2.09 57.44 16.52 19.43 36.85 12.34 56.43 4.41 10.66-4.32 21.08-9.35 32-12.87 10.2-3.29 20.92-5.01 35.99-8.47-3.63 10.86-4.52 17.01-7.49 21.9-58.03 95.49-82.45 200.16-85.2 310.76-.51 20.42-2.44 41.14.1 61.24 5.3 41.89 37.75 56.07 71.7 31.49 19.62-14.2 36.72-31.84 55.59-47.15 12.94-10.49 26.97-19.64 40.51-29.38-13.12 58.16-31.99 110.84-47.25 164.54-11.83 41.63-20.87 84.25-28.15 126.94-17.93 105.06 17.94 202.32 47.04 300.24 6.3 21.21 22.68 29.96 41.06 26.35 19.18-3.77 27.49-17.01 29.1-35.44.56-6.37.77-12.78 1.41-19.14 7.76-77.86 41.7-144.17 90.38-203.86 4.38-5.38 10.45-9.38 21.77-19.32-2.31 36.61-2.19 65.65-6.29 94.08-14.08 97.62 17.66 186.94 47.9 276.65 1.99 5.92 5.44 11.7 9.45 16.52 20.21 24.3 57.42 18.13 67.94-11.6 2.88-8.15 1.75-17.64 3.12-26.41 5.09-32.72 8.04-66.02 16.38-97.91 8.2-31.36 24.51-59.57 54.89-86.6 2.25 74.04 31.37 132.59 59.34 191.48 5.45 11.47 10.93 23.4 18.81 33.16 18.65 23.11 42.2 24.36 62.2 2.65 12.01-13.03 21.34-28.65 31.11-43.61 21.54-32.98 41.27-67.34 73.68-94.6 9.61 9.67 18.34 18.57 27.18 27.34 44.74 44.36 96.82 75.24 159.7 85.45 76.66 12.45 153.4 11.14 228.58-7.85 27.8-7.02 55.73-20.51 78.77-37.59 28.42-21.06 51.73-48.98 77.38-73.81 6.9-6.68 14.27-12.87 21.81-19.63 33.31 25.34 39.48 59.28 42.37 93.76 2.3 27.39 9.67 51.65 36.84 61.95 27.19 10.31 49.39-3.14 69.15-21.67 39.32-36.89 58.7-82.92 62.92-135.86 2.31-28.96 3.61-58 5.38-87.16 29.58-4.94 51.06 7.88 70.81 20.44 52.37 33.31 97.08 74.99 128.75 129.35a182.09 182.09 0 0 0 17.62 25.08c12.87 15.39 27.84 27.43 49.68 19.51 21.24-7.7 28.31-25.38 27.04-45.91-1.41-22.82-5.54-45.46-7.97-68.23-9.53-89.37-24.68-177.34-63.08-259.71-.7-1.49 1.23-4.21 3.06-9.78 12.15 7.45 24.35 13.59 35.04 21.73 29.43 22.42 57.95 46.02 87.34 68.49 31.89 24.37 64.71 10.65 68.09-29.01 1.28-15-1.07-30.6-3.74-45.57-4.91-27.55-13.1-54.6-16.73-82.28-12.3-93.72-48.32-176.98-106.41-251.13-5.04-6.43-8.94-13.75-16.55-25.59 11.7 2.67 17.7 3.75 23.54 5.41 20.87 5.94 41.36 13.86 62.59 17.8ZM826.72 420.38c-39.72-24.77-77.27-53.03-118.3-81.44 57.57-19.98 112.81-16.94 167.83 3.96 8.33 3.16 16.15 8.03 24.69 10.17 22.68 5.68 43.1-.72 52.57-20.72 7.94-16.77 15.89-37.12 13.6-54.54-9.78-74.35 20.93-138.83 47.49-206.17 1.73 10.19 3.73 20.34 5.16 30.57 9 64.53 16.86 129.23 27.28 193.53 4.21 25.99 9.78 53.16 36.48 68.33 32.35 18.38 69.28 15.1 93.02-16.13 19.58-25.76 45.47-38.43 73.18-45.22 46.78-11.47 94.97-17.19 142.62-25.04 1.72-.28 3.96 2.57 10.97 7.46-26.48 7.93-49.95 13.64-72.4 22.05-23.85 8.94-47.75 18.68-69.74 31.35-22 12.68-42.63 28.26-62.06 44.69-19.47 16.46-37.49 34.85-54.73 53.69-17.23 18.83-33.9 38.43-48.6 59.26-14.68 20.8-27.96 42.87-39.38 65.63-11.42 22.74-18.7 47.55-29.81 70.47-10.38 21.42-2.88 49.7-26.93 70.81-5.3-26.18-8.58-48.38-14.36-69.91-24.62-91.81-77.63-162.32-158.56-212.79ZM135.59 1690.42c.86-.03 1.77 1.4 2.59 2.13-.55 1.1-.97 1.95-1.39 2.8-1.23-.86-2.47-1.72-3.71-2.58.83-.84 1.65-2.33 2.5-2.35ZM1770 1949.83c58.05 21.84 87.57 72.27 120.91 118.45 41.5 57.49 57.97 124.59 69.19 193.17 3.69 22.55 5.63 45.4 9 73.34-11.77-5.98-19.41-9.25-26.45-13.53-36.04-21.93-71.8-44.32-107.94-66.07-9.8-5.9-20.25-11.12-31-14.96-36.77-13.12-65.47 11.33-56.39 49.34 4.39 18.38 13.07 36.05 21.83 53 33.31 64.4 53.05 132.7 60.92 204.58.79 7.21.11 14.57.11 27.3-10.97-10.81-19.15-18.2-26.57-26.3-37.9-41.36-87.78-65.02-136.07-90.5-13.97-7.37-32-9.41-48.23-9.65-39.09-.59-61.35 21.15-64.69 60.7-1.61 19.11-.88 38.46-3.2 57.46-5.02 41.18-19.66 78.69-48.16 115.96-4.86-14.99-7.11-26.94-12.43-37.31-12.09-23.61-22.47-49.22-39.43-68.97-25.89-30.15-64.71-29.17-95.85-3.68-38.47 31.49-75.46 65.57-122.9 83.58-91.75 34.84-184.94 36.62-278.07 6.87-35.67-11.39-66.2-33.02-92.12-60.58-8.76-9.31-17.78-18.49-27.48-26.78-22.4-19.15-39.67-18.59-59.27 4-25.11 28.95-48.74 59.2-72.87 89-7.88 9.73-15.35 19.78-25.84 33.35-32.26-46.26-52.3-93.4-67.47-142.95-6.72-21.95-13.26-43.95-20.28-65.8-5.24-16.32-13.32-24.05-33.82-21.16-21.86 3.09-40.03 9.13-52.32 27.02-20.19 29.38-39.28 59.51-58.45 89.57-4.41 6.92-7.29 14.81-14.65 30.1-17.45-70.43-24.96-133.28-19.11-196.58 3.61-39.05 13.85-77.66 23.44-115.89 3.52-14.03 4.73-24.93-7.01-34.21-12.69-10.02-23.54-3.81-34.56 4.3-89.22 65.61-105.47 74.93-177.99 205.27-13.26-28.38-18.69-66.16-16.44-108.89 4.74-90.05 22.32-177.48 53.46-262.07 14.56-39.54 30.09-78.74 45.89-117.81 7.07-17.48 12.33-35.04-3.4-49.41-15.22-13.91-33.35-11.38-49.85-1.1-46.44 28.95-92.57 58.38-141.73 89.46 0-22.24-2.02-45.75.39-68.81 6.28-60.17 22.5-118.03 47.5-173.1 17.61-38.8 41.75-73.28 74.27-101.41 5.8-5.02 11.47-10.21 17.07-15.46 13.02-12.21 21.22-26.48 13.35-44.4-8.13-18.52-25.06-21.09-42.24-17.86-33.88 6.37-67.47 14.26-101.19 21.47-5.98 1.28-12.01 2.35-25.26 4.93 97.59-158.18 244.59-217.3 413.58-239.72v-48.99c-37.55 2.22-75.06 4.43-115.85 6.84-47.37-82.09-80.39-170.57-90.86-267.43-11.07-102.43 8.1-201.25 33.02-299.45 9.67-38.11 21.75-75.6 33.76-116.92 6.11 7.05 12.74 12.34 16.34 19.21 57.39 109.78 114.93 219.49 171.17 329.86 19.04 37.36 41.36 53.23 82.23 52.46 15.18-21.58 31.64-41.24 43.77-63.29 11.41-20.75 29.03-33.01 48.94-40.23 88.6-32.13 174.56-71.93 269.99-83.56 100.82-12.29 187.07 13.7 259.95 84.55 27.13 26.37 45.86 57.71 57.95 95.69 30.37-1.3 53.02-16.47 73.83-35.47 41.47-37.85 70.25-84.89 91.55-135.8 19.65-46.96 34.44-95.96 51.27-144.1 3.24-9.28 6.04-18.71 10.73-33.35 87.23 189.61 143.92 378.48 103.68 588.1-10.6 0-21.8-.11-33.01.03-11.51.14-23.1-.26-34.51.96-28.6 3.04-44.34 16.17-42.68 34.54 1.69 18.74 16.73 26.2 47.9 25.77 109.8-1.53 205.03 35.9 286.57 108.84 8.53 7.63 16.08 16.53 23.08 25.62 6.93 8.99 12.6 18.96 22.88 34.72-14.61-3.41-23.34-5.32-32-7.49-29.72-7.46-59.13-16.49-89.19-22.12-31.8-5.96-53.24 2.52-59.89 21.2-8.81 24.75 4.92 41.85 22.24 56.48 15.61 13.19 31.86 25.67 48.29 37.84 76.64 56.74 139.18 124.87 169.79 217.08 11.51 34.66 17.76 71.06 26.42 106.67l-8.72 7.85c-22.91-6.68-45.85-13.29-68.74-20.05-36.69-10.84-73.11-22.73-110.17-32.1-11.64-2.94-25.99-1.89-37.16 2.38-7.81 2.99-16.62 14.3-17.1 22.37-.48 7.95 7.15 21.32 14.34 24.03Z" fill="#f5ad3b" data-color="1"/>
        <path d="M1901.08 1617.24c3.04-2.89 6.08-5.78 9.13-8.67-6.02-1.21-12.05-2.43-26.51-5.34 10.39 8.37 13.88 11.19 17.38 14Z" fill="#f5ad3b" data-color="1"/>
        <path d="M1274.62 2166.16c-12.21 6.8-22.85 16.38-34.74 23.84-54.5 34.19-114.25 31.56-164.16-6.86-35.76-27.53-48.84-27.01-88.65-.72-32.43 21.41-65.82 40.53-106.94 20.82-13.82-6.62-28.47-5.24-37.67 8.43-9.7 14.4-7.78 30.85 4.13 42.28 15.29 14.66 33.45 26.33 55.49 43.21-1.04 7.84-2.98 19.1-3.95 30.44-5.25 60.85-.18 120.26 28.07 175.62 60.1 117.78 195.52 126.14 267.79 15.99 38.91-59.31 58.26-124.64 51.61-196.38-1.15-12.45-2.06-24.93-3.08-37.35 11.76-6.48 22.41-11.06 31.57-17.68 17.53-12.68 35.99-24.82 50.77-40.32 16.9-17.72 16.1-40.46 2.47-55.83-12.6-14.21-32.22-16.91-52.73-5.49Zm-97.56 202.2c-7.21 41.75-19.87 81.77-44.74 116.76-39.72 55.9-99.66 56.35-137.82-.56-37.35-55.7-43.1-118.83-34.95-183.65.91-7.22 7.79-15.26 14.11-19.93 15.11-11.13 31.53-20.47 49.48-31.83-1.73 11.89-3.99 22.68-4.74 33.58-1.13 16.48-3.07 33.23-1.22 49.48 1.85 16.27 11.91 29.37 30.08 28.87 17.94-.49 27.25-13.4 28.94-30.1 1.52-14.99.32-30.25.32-44.62l108.35 17c-2.46 21.08-4.05 43.22-7.81 64.99Z" fill="#f5ad3b" data-color="1"/>
        <path d="M1031.52 2075.43c64.94 4.62 136.8-57.64 151.11-133.66 13.41-71.21-20.83-132.97-109.57-123.1-3.8.42-7.59.99-11.39 1.51-70.4 9.75-140.76 19.83-211.23 28.98-15.55 2.02-23.48 10.9-24.87 24.32-1.14 11-.46 23.81 4.23 33.48 14.93 30.76 30.33 61.57 48.79 90.28 33.46 52.01 82.33 78.01 152.92 78.19Z" fill="#f5ad3b" data-color="1"/>
        <path d="M1145.11 1598.78c-2.53 27.82 6.35 52.2 23.74 74.08 25.23 31.73 59.35 38.18 96.35 31.96 31.16-5.24 52.63-24.97 63.07-54.77 18.16-51.78-5.69-100.03-42.05-123.03-30.57-19.33-67.35-21.19-95.62-9.42-28.8 11.99-50.68 42.46-45.49 81.18Z" fill="#f5ad3b" data-color="1"/>
        <path d="M699.04 1535c-7.32-1.66-18.32 1.62-24.16 6.64-26.52 22.78-50.93 47.43-44.31 85.33-7.03 51.57 27.86 82.56 61.59 95.64 35.28 13.69 74.22 6.91 97.75-20.79 23.45-27.61 25.4-59.15 12.08-92.66-18.64-46.9-58.46-64.09-102.95-74.16Z" fill="#f5ad3b" data-color="1"/>
        <path d="M831.94 1190.07c7.41-51.47 28-97.21 57.25-140.05 10.88-15.94 15.94-35.85 23.65-53.95-3.07-2.8-6.14-5.59-9.21-8.39-19.42 4.02-38.07 11.97-50.91 27.76-36.8 45.27-61.47 96.51-67.74 155.19-1.18 11.06-.37 23.73 4.11 33.55 3.5 7.68 13.56 15.33 21.8 16.78 4.95.87 12.8-9.6 17.77-16.16 2.77-3.65 2.54-9.71 3.27-14.73Z" fill="#f5ad3b" data-color="1"/>
        <path d="M1014.37 1204.07c9.08-2.1 17.36-12.42 23.46-21.03 4.05-5.72 5.75-14.79 4.93-21.96-3.72-32.68-5.51-66.12-14.3-97.51-6.43-22.96-21.48-44.09-46.45-62.81-5.34 20.77-11.54 37.17-13.52 54.06-5.46 46.4 3.1 91.03 23.7 132.77 3.83 7.76 16.18 17.86 22.19 16.47Z" fill="#f5ad3b" data-color="1"/>
        <path d="M1182.63 1190.31c46.94-73.71-27.63-198.18-125.72-205.87 18.28 40.96 43.34 70.68 67.34 101.06 24.46 30.96 30.49 73.18 58.39 104.81Z" fill="#f5ad3b" data-color="1"/>
    </g>
</svg>
