<?xml version="1.0" encoding="UTF-8"?>
<svg data-bbox="-0.017 -0.14 249.458 286.571" viewBox="0 0 249.44 286.45" xmlns="http://www.w3.org/2000/svg" data-type="color">
    <g>
        <path d="M170.9 95.58c9.83 4.34 18.97 9.95 27.38 16.58l1.11.89c2.86 2.47 5.7-.02 8.05-1.9 6.37-4.68 12.85-8.89 20.23-11.93 4.06-1.54 8.76-3.06 13.15-1.35 4.47 1.9 6.85 7.17 7.24 11.66.85 12.62-4.46 24.21-9.03 35.53-1.2 4.2 2.54 8.54 4.06 12.38 5.5 12.58 8.46 26.94 4.6 40.48-.33 1.61-2.46 1.96-3.33.59-2.67-3.41-5.76-6.41-9.26-8.51-.06 0 4.24-3.04 4.24-3.05 2.21 8.24 3.59 16.73 3.68 25.29.09 8.55-1.1 17.18-4.12 25.27-.43 1.51-2.61 1.75-3.33.35-2.85-5.4-6.76-9.61-10.99-14.04l4.87-2.11c1.1 13.89-1.25 30.15-10.66 40.96-1.01 1.27-3.05.66-3.22-.94-1.11-5.57-3.3-10.61-5.86-15.7l5.27-.61c-2.16 9.03-7.37 16.61-13.29 23.51-1.99 2.24-4.13 4.36-6.54 6.26-1.27 1.1-3.24.02-3-1.64.24-5-.64-9.93-2.48-14.57v-.04l5.12.36c-7.88 14.71-24.71 26.12-41.43 27.12-1.58.17-2.6-1.73-1.6-2.94 1.66-2.03 3.12-4.16 4.28-6.42 1.15-2.21 2.05-4.57 2.87-7.02l4.51 3.01c-2.94 2.6-5.96 3.03-9.37 3.69-3 .45-5.95.62-8.88.64-17.42-.16-34.91-3.68-50.64-11.24-18.76-9.24-43.15-25.76-51.78-45.45l4.77.68c-2.54 2.73-4.35 5.66-5.28 9.3-.1.99-.97 1.73-1.97 1.62-.45-.05-.84-.27-1.14-.57-2.89-2.66-5.52-5.7-7.53-9.17-6.35-10.44-6.07-23.6-2.23-34.87l3.11 3.64c-7.79.95-14.71 3.98-19.95 9.97-.68.81-1.93.9-2.7.16-.28-.26-.46-.59-.54-.94-.86-3.73-.99-7.57-.63-11.31 1.16-11.14 6.17-21.5 12.27-30.68l.03-.04 2.81 4.32c-7.4 1.14-14.54 3.45-20.88 7.48-1.25.94-3.2-.29-2.87-1.83 2.75-13.9 13.6-27.85 26.58-33.63l1.01 5.34c-3.34-.18-6.67-.3-9.89-.09-3.25.19-6.35.85-9.48 1.95-.98.37-2.09-.15-2.42-1.14-.17-.49-.11-1.02.11-1.45 8.41-17.59 23.92-26.03 40.58-34.19l.05-.03.22 5.11c-4.69-2.2-9.28-2.83-14.51-3.06-1.06-.01-1.93-.93-1.85-2 .03-.4.17-.76.41-1.05 2.67-3.33 5.78-6.3 9.15-8.91 10.17-7.57 22.48-11.9 34.68-14.58 2.91-.72 6.22-1.22 9.18-1.78 2.52-.43 5.2-.72 6.87-2.51 1.23-1.19 2.08-2.88 3-4.43 3.99-7.05 7.9-14.44 13.09-21.23 2.84-3.56 5.73-6.95 10.12-9.01 10.9-4.62 17.09 8.41 19.29 16.77 2.33 7.91 3.18 16.41 4.18 24.45.44 2.57 1.35 3.59 3.78 4.14 9.08 1.89 18.23 4.58 26.72 8.41Zm-2.22 5.08c-7.4-3.24-14.88-5.77-22.82-7.41-1.54-.36-3.32-.7-4.85-1.27-6.12-2.05-6.3-9.05-6.83-14.22-1.15-8.52-3.4-26.85-11.24-31-6.7-2.58-15.18 12.57-18.24 17.46-2.05 3.48-3.97 7.04-6.02 10.66-2.22 4.39-5.61 8.36-10.74 9.18-15.79 2.52-31.91 5.96-45.33 14.93a56.68 56.68 0 0 0-8.95 7.63l-1.39-3.04c5.28-.44 11.29-.21 16.43 1.56 1.43.44 2.24 1.95 1.8 3.38-.25.85-.88 1.44-1.64 1.75-11.73 5.42-23.76 10.74-32.4 20.44-2.79 3.16-5.17 6.71-7.27 10.47l-2.31-2.59c6.42-3.07 13.83-3.78 20.8-3.97a2.74 2.74 0 0 1 2.84 2.64c.06 1.26-.76 2.31-1.88 2.72-9.04 3.52-16.58 11.4-21.35 19.93-1.61 2.92-2.95 6.05-3.62 9.16L.8 167.24l.05-.03c6.4-4.83 14.07-8.01 21.84-9.83 1.47-.35 2.94.55 3.29 2.01.21.85-.02 1.69-.51 2.34-7.84 10.9-14.79 24.26-12.56 38.01l-3.21-.81c2.66-3.37 5.88-6.46 9.66-8.62 3.82-2.22 8.01-3.52 12.15-4.44 2.08-.52 3.9 1.7 3.11 3.64-3.68 9.97-4.46 21.38.73 30.95 1.63 3.15 3.86 5.99 6.35 8.6l-3.1 1v-.05c.37-4.21 2.15-8.55 4.54-12.02a2.656 2.656 0 0 1 3.67-.75c.54.35.87.87 1.1 1.43 1.98 4.77 5.21 9.24 8.84 13.33 11.19 12.26 25.3 21.86 40.18 29.15 14.81 7.15 31.74 10.55 48.19 10.69 4-.06 8.03-.28 11.78-1.42 1.22-.43 2.21-.87 2.75-1.44 2.16-2.11 5.64.46 4.4 3.12-2.24 4.99-5.44 9.94-9.44 13.72l-1.47-3.09c11.65-1.19 22.41-7.92 30.23-16.41 2.6-2.9 4.85-6.09 6.45-9.49 1-2.29 4.49-1.95 5.11.41 1.46 5.4 1.82 11.2.89 16.71l-3-1.64c4.13-3.65 7.59-8.23 10.5-12.93 2.77-4.57 5.33-9.76 6.21-14.95.39-2.75 4.28-3.13 5.27-.62 1.02 2.75 2.02 5.57 2.81 8.5.79 2.9 1.33 5.89 1.62 8.86l-3.19-.97c2.06-2.43 3.62-5.35 4.83-8.42 3.55-9.27 4.37-19.66 3.08-29.43-.42-2.77 3.24-4.25 4.89-2.09 3.75 4.78 7.67 10.09 9.98 15.84 0-.03-3.48.23-3.39.15 5.08-15.46 3.34-32.43-1.41-47.8a2.738 2.738 0 0 1 4.29-2.98c3.84 3.1 6.77 6.95 9.12 10.96l-3.32.57c1.43-7.09.83-14.53-.76-21.67-1.38-6.24-3.58-12.33-6.54-17.98-2.02-3.73-4.35-7.88-3.65-12.48.2-1.13.64-2.28 1.11-3.33 1.48-3.49 2.9-6.95 4.15-10.45 2.51-7.55 6.22-17.99 2.84-25.42-.6-1.13-1.42-2.16-2.57-2.7-2.58-.9-6.25.31-8.98 1.38-3.31 1.32-6.56 3.08-9.73 4.99-3.54 2.15-7.02 4.5-10.28 7.04-3.89 3.5-9.55 4.57-13.78.99-8.29-6.71-17.52-12.42-27.24-16.72Z" fill="#f5ad3b" data-color="1"/>
        <path d="M100.66 145.2c2.59-5.66 8.08-5.58 11.86-3.85 3.77 1.73 5.98 6.55 4.02 10.83-1.85 4.03-6.04 7.01-11.13 4.67-3.96-1.82-7.16-6.37-4.74-11.65Z" fill="#f5ad3b" data-color="1"/>
        <path d="M167.44 175.85c2.59-5.66 8.08-5.58 11.86-3.85 3.77 1.73 5.98 6.55 4.02 10.83-1.85 4.03-6.04 7.01-11.13 4.67-3.96-1.82-7.16-6.37-4.74-11.65Z" fill="#f5ad3b" data-color="1"/>
        <path d="M233.67 114.15c5.16 4.72-2.17 16.28-4.93 20.98-.25.37-.74 1.12-1.02 1.46-.52.71-1.5 1.16-2.38 1.12-3.58-.46-6.34-2.82-9.11-4.83-2.4-2.06-6.86-5.35-5.35-9.08 1.36-2.34 3.57-3.79 5.63-5.35 4.29-2.85 12.06-7.94 17.16-4.31Zm-3.52 4.28c-1.14-.18-3.15.32-4.63.88-3.86 1.45-8.05 3.45-11.07 6.35-.06.07.03-.04.03-.06.02-.1.07-.21.03-.26.58 1.84 2.53 3.36 4.02 4.65 2.01 1.47 4.37 3.24 6.78 3.67-.29-.06-.83.33-.91.48.85-1.43 1.56-2.95 2.25-4.49 1.47-3.62 3.27-7.49 3.31-11.32-.07-.41-.05-.03.2.11Z" fill="#f5ad3b" data-color="1"/>
        <path d="M117.99 60.98c6.66 1.4 8.47 15.42 8.74 21.07 0 .6-.07 1.34-.34 1.9-2.08 4-13.58 2.9-17.4 2.06-3.99-.93-4.58-3.07-3.48-6.8 1.34-4.56 6.65-19.18 12.48-18.23Zm-.92 5.47c.83.1.97-.14.97-.11 0 0-.06.05-.1.07-2.92 2.99-4.96 6.99-6.89 10.72-.77 1.66-1.62 3.42-1.97 5.14-.02.12 0-.01-.05-.05-.2-.55-.32-.48-.25-.44 1.85 1.01 4.4 1.13 6.54 1.27 2.45 0 5.35.04 7.49-1.03.16-.18-.22.17-.24.46v.08l-.01-.07c-.62-5.05-2.19-10.39-4.62-14.81-.26-.43-.55-.84-.78-1.06-.23-.25-.39-.24-.09-.17Z" fill="#f5ad3b" data-color="1"/>
        <path d="M125.94 199.44c4.06 1.87 13.86-3 16.41-8.55s-1.9-8.67-6.86-10.95-11.51-5.52-14.37.72c-2.87 6.25-.63 16.28 4.83 18.78Z" fill="#f5ad3b" data-color="1"/>
        <path d="M126.82 197.51c4.64 1.11 13.01-4.76 13.46-9.46.02-3.19-4.73-4.82-7.35-6.11-2.18-.99-4.86-2.25-7.03-2.05-1.96.3-2.56 2.32-3.1 4.21-1.09 4.36-.13 11.24 4.02 13.41Zm-1.78 3.87c-7.63-3.85-9.94-16.57-5.48-23.55 3.66-5.59 10.97-3.46 15.75-1.13 4.72 2.04 11.03 5.49 10.52 11.73-.57 5.76-5.65 9.5-10.21 11.67-3.27 1.39-6.99 2.68-10.57 1.27Z" fill="#f5ad3b" data-color="1"/>
        <path d="M100.62 214.07c-2.6 6.91-6.98 15.9-2.97 22.79 2.42 3.76 7.98 6.22 12.47 5.51 5.09-.8 9.38-4.7 12.87-8.53 1.91-2.08 3.65-4.37 5.39-6.68 1.38-1.82 4.22.05 3.08 2.04-5.8 10.61-17.01 23.44-30.58 17.12-11.12-4.76-11.89-15.86-7.6-25.78 1.19-2.83 2.54-5.52 4.02-8.08a1.84 1.84 0 0 1 2.53-.67c.81.47 1.13 1.45.79 2.29Z" fill="#f5ad3b" data-color="1"/>
        <path d="M85.73 198.87c3.95 12.8 22.04 16.34 32.45 9.6 1.77-1.18 4.29.25 4.22 2.36-.05 2.87.67 5.69 2.08 8.22 2.89 5.06 8.08 9.29 13.96 10.32 2.78.44 6.01.49 8.58-.7.9-.48 2.02-.14 2.5.75 1.1 2.22-1.95 3.19-3.49 3.59-13.7 3.66-28.87-8.04-29.17-22.18l4.33 2.29c-8.27 5.04-20.01 4.64-28.29.08-5-2.88-9.34-7.57-10.72-13.31-.57-2.31 2.81-3.3 3.55-1.02Z" fill="#f5ad3b" data-color="1"/>
        <path d="m127.55 200.34-5.5 11.84c-1.8 3.49-6.86.7-4.85-2.69l7.11-10.94c1.26-1.9 4.17-.27 3.23 1.79Z" fill="#f5ad3b" data-color="1"/>
        <path d="M120.06 213.73c-.35 2.09-1.99 2.81-3.1 4.37a58.512 58.512 0 0 0-6.21 9.21c-.89 1.64-1.68 3.33-2.35 5.04-.37.96-1.45 1.43-2.41 1.05a1.855 1.855 0 0 1-1.16-1.99c.3-2.11.92-4.12 1.67-6.06 1.54-3.87 3.61-7.46 6.21-10.73 1.51-1.64 2.6-3.79 5.23-3.92 1.63-.04 2.57 1.53 2.13 3.02Z" fill="#f5ad3b" data-color="1"/>
        <path d="m220.99 34.67.41.54.2.64-.02.67-.25.63-.08.13-.08.13-.08.13-.08.13-.08.13-.07.13-.07.13-.07.13-.07.13-.07.12-.07.12-.07.12-.07.12-.07.12-.06.12-.06.12-.06.12-.06.12-.06.12-.06.12-.06.12-.06.12-.06.11-.05.11-.05.11-.05.11-.05.11-.05.11-.05.11-.05.11-.05.11-.05.11-.05.11-.04.11-.04.11-.04.1-.04.1-.04.1-.04.1-.04.1-.04.1-.04.1-.04.1-.02.05-.02.05-.02.05-.02.05-.02.05-.02.05-.02.05-.02.05v.05l-.03.05v.05l-.03.05v.05l-.03.05v.05l-.03.05v.05l-.03.05v.05l-.03.05v.05l-.02.05v.05l-.02.05v.04l-.02.05v.04l-.02.04v.04l-.02.04v.04l-.02.04v.04l-.02.04v.04l-.02.04v.04l-.02.04v.04l-.02.04V44l-.02.04v.04l-.02.04v.04l-.01.04v.04l-.01.04v.04l-.01.04v.04l-.01.04v.04l-.01.04v.04l-.01.04v2.18l.01.03v.03l.01.03v.03l.01.03v.03l.01.03v.03l.01.03v.03l.01.03v.03l.01.03v.03l.01.03v.03l.01.03v.03l.02.03v.03l.02.03v.03l.02.03v.03l.02.02v.03l.02.02v.03l.02.02v.02l.02.02v.02l.02.02v.03l.02.02v.02l.02.02v.02l.02.02v.02l.02.02v.02l.02.02v.02l.02.02v.02l.02.02v.02l.02.02v.02l.02.02v.02l.02.02v.02l.02.02v.02l.02.02v.02l.02.02v.02l.02.02v.02l.03.02v.02l.03.02v.02l.03.02v.02l.03.02v.02l.03.02v.02l.03.02v.02l.03.02v.02l.03.02v.02l.03.02v.02l.03.02v.02l.03.02.02.02v.02l.03.02v.02l.05.04.03.04.03.04.03.04.03.04.03.04.03.04.03.04.04.04.04.04.04.04.04.04.04.04.04.04.04.04.04.04.04.04.04.04.04.04.04.04.04.04.04.04.04.04.04.04.04.04.04.04.05.04.05.04.05.03.05.03.05.03.05.03.05.03.05.03.05.03.05.03.05.03.05.03.05.03.05.03.05.03.05.03.05.03.05.03.05.03.05.03.06.03.06.03.06.03.06.03.06.03.06.03.06.03.06.03.06.03.06.03.06.03.06.03.06.03.06.03.06.03.06.03.06.03.06.03.06.03.06.03.06.03.06.03.07.03.07.03.07.03.07.03.07.02.07.03.07.02.07.02.07.02.07.02.07.02.07.02.07.02.07.02.07.02.07.02.07.02.07.02.07.02.07.02.07.02.07.02.07.02.07.02.07.02.07.02.07.02.07.02.07.02.08.02.08.02.08.02.08.02.08.02.08.02.08.02.08.02.08.02.08.02.08.02.08.02.08.02.08.02.08.02.08.02.08.02.08.02.08.02h.08l.08.03h.08l.08.03h.08l.08.03h.08l.08.03h.08l.08.03h.08l.08.02h.08l.08.02h.08l.08.02h.08l.08.02h.08l.08.02h.08l.08.02h.08l.08.02h.08l.08.02h.08l.08.02h.08l.08.02h.08l.08.02h.08l.08.02h.08l.08.01h.08l.08.01h.08l.08.01h.08l.08.01h.08l.08.01h.08l.08.01h.08l.17.02h.17l.17.02h.17l.17.02h.17l.17.01h.17l.17.01h3.37l.15-.01h.15l.15-.01h.15l.15-.01h.15l.14-.01h.14l.14-.02h.14l.14-.02h.14l.14-.02h.13l.13-.02h.13l.13-.02h.13l.13-.02h.13l.12-.02h.12l.12-.02h.12l.12-.02h.12l.11-.02h.11l.11-.02h.11l.1-.02.21-.02.2-.02.19-.02.18-.02.17-.02.16-.02.15-.02.14-.02.13-.02.12-.02h.11l.1-.03h.09l.08-.02.12-.02h.07l.02-.01h.66l.62.23.51.42.34.56.14.64-.08.65-.29.59-.47.46-.59.28-.11.03-.11.03-.11.03-.11.03-.11.03-.11.03-.11.03-.11.03-.11.03-.11.03-.11.04-.11.04-.11.04-.11.04-.11.04-.11.04-.11.04-.11.04-.11.04-.11.04-.11.04-.11.04-.11.04-.11.04-.11.04-.11.04-.11.04-.11.04-.11.04-.11.04-.11.05-.11.05-.11.05-.11.05-.11.05-.11.05-.11.05-.11.05-.11.05-.11.05-.11.05-.11.05-.11.05-.11.05-.11.05-.11.05-.11.05-.11.05-.11.05-.11.05-.11.05-.11.05-.11.05-.11.06-.11.06-.11.06-.11.06-.11.06-.11.06-.11.06-.11.06-.11.06-.12.06-.11.06-.11.06-.12.06-.12.06-.12.06-.11.06-.12.06-.11.06-.12.06-.12.06-.12.06-.12.06-.12.06-.12.06-.12.06-.12.06-.12.06-.12.07-.12.07-.12.07-.12.07-.12.07-.12.07-.12.07-.12.07-.12.07-.12.07-.12.07-.12.07-.12.07-.12.07-.12.07-.12.07-.12.07-.12.07-.12.07-.12.07-.12.07-.12.07-.12.07-.12.07-.12.07-.12.07-.12.07-.12.07-.12.07-.12.07-.12.07-.12.07-.12.07-.12.08-.12.08-.12.08-.12.08-.12.08-.12.08-.12.08-.12.08-.12.08-.12.08-.12.08-.12.08-.12.08-.12.08-.12.08-.12.08-.12.08-.12.08-.12.08-.12.08-.12.08-.12.08-.12.08-.12.08-.12.08-.12.08-.12.08-.12.08-.12.08-.12.08-.12.08-.12.08-.12.08-.12.08-.12.08-.12.08-.12.08-.12.08-.12.08-.12.08-.12.08-.12.08-.11.08-.23.17-.23.17-.23.17-.23.17-.23.17-.23.17-.23.17-.23.17-.23.18-.23.18-.23.18-.23.18-.23.18-.22.18-.22.18-.22.18-.22.18-.22.18-.22.18-.22.18-.22.18-.22.18-.22.18-.22.18-.22.18-.22.18-.22.18-.22.18-.22.18-.22.18-.22.18-.21.18-.21.18-.21.18-.21.18-.21.18-.21.18-.21.18-.21.18-.21.18-.21.18-.21.18-.21.18-.21.18-.21.18-.2.18-.2.18-.2.18-.2.18-.2.18-.2.18-.2.18-.2.18-.2.18-.2.18-.2.18-.19.18-.19.18-.19.18-.19.18-.19.18-.19.18-.19.18-.19.18-.19.18-.19.18-.18.17-.18.17-.18.17-.18.17-.18.17-.18.17-.18.17-.18.17-.18.17-.18.17-.17.17-.17.17-.17.17-.17.17-.17.16-.17.16-.17.16-.17.16-.16.16-.16.16-.16.16-.16.16-.16.16-.16.16-.16.16-.16.16-.15.15-.15.15-.15.15-.15.15-.15.15-.15.15-.15.15-.14.15-.14.15-.14.14-.14.14-.14.14-.27.28-.27.27-.26.27-.26.26-.25.26-.24.25-.24.25-.23.24-.22.23-.22.23-.21.22-.2.22-.2.21-.19.2-.18.2-.17.19-.17.18-.16.17-.15.17-.14.16-.14.15-.13.14-.12.13-.11.13-.11.12-.1.11-.09.1-.15.17-.12.14-.09.1-.07.08-.47.39-.57.23-.61.04-.59-.14-.52-.32-.4-.46-.02-.03-.06-.09-.1-.15-.13-.21-.08-.13-.09-.14-.1-.15-.11-.17-.11-.18-.12-.19-.13-.21-.14-.22-.15-.23-.15-.24-.16-.25-.17-.26-.18-.27-.18-.28-.19-.29-.2-.3-.2-.31-.21-.32-.22-.33-.22-.34-.23-.34-.24-.35-.12-.18-.12-.18-.12-.18-.12-.18-.13-.19-.13-.19-.13-.19-.13-.19-.13-.19-.13-.19-.13-.2-.14-.2-.14-.2-.14-.2-.14-.2-.14-.2-.14-.2-.14-.2-.14-.21-.14-.21-.15-.21-.15-.21-.15-.21-.15-.21-.15-.21-.15-.21-.15-.21-.15-.21-.15-.22-.07-.03-.21-.06-.21-.06-.21-.06-.21-.06-.21-.06-.21-.06-.21-.06-.21-.06-.21-.06-.22-.06-.22-.06-.22-.07-.22-.07-.22-.07-.22-.07-.22-.07-.22-.07-.22-.07-.22-.07-.22-.07-.22-.07-.22-.07-.22-.07-.22-.07-.22-.07-.22-.07-.22-.07-.22-.07-.22-.08-.22-.08-.22-.08-.22-.08-.22-.08-.23-.08-.22-.08-.22-.08-.22-.08-.22-.08-.22-.08-.22-.08-.22-.08-.22-.08-.22-.08-.22-.08-.22-.09-.22-.09-.22-.09-.22-.09-.22-.09-.22-.09-.22-.09-.22-.09-.11-.05-.11-.05-.11-.05-.11-.05-.11-.05-.11-.05-.11-.05-.11-.05-.11-.05-.11-.05-.11-.05-.11-.05-.11-.05-.11-.05-.11-.05-.11-.05-.11-.05-.11-.05-.11-.05-.11-.05-.11-.05-.11-.05-.11-.05-.11-.05-.11-.05-.11-.05-.11-.05-.11-.05-.11-.05-.11-.05-.1-.05-.1-.05-.1-.05-.1-.05-.1-.05-.1-.05-.1-.05-.1-.05-.1-.05-.1-.05-.1-.05-.1-.05-.1-.05-.1-.05-.1-.05-.1-.05-.1-.05-.1-.05-.1-.05-.1-.05-.1-.05-.1-.05-.1-.05-.1-.05-.1-.05-.1-.05-.1-.05-.1-.05-.1-.05-.1-.05-.1-.05-.1-.06-.1-.05-.1-.06-.1-.06-.09-.06-.09-.06-.09-.06-.09-.06-.09-.06-.09-.06-.09-.06-.09-.06-.09-.06-.09-.06-.09-.06-.09-.06-.09-.06-.09-.06-.09-.06-.09-.06-.09-.06-.09-.06-.09-.06-.09-.06-.09-.06-.09-.06-.09-.06-.09-.06-.09-.06-.09-.06-.08-.06-.08-.06-.08-.06-.08-.06-.08-.06-.08-.06-.08-.06-.08-.06-.08-.06-.08-.06-.08-.06-.08-.06-.08-.06-.08-.06-.08-.06-.08-.06-.08-.06-.08-.06-.08-.06-.08-.07-.08-.07-.07-.07-.07-.07-.07-.07-.07-.07-.07-.07-.07-.07-.07-.07-.07-.07-.07-.07-.07-.07-.07-.07-.07-.07-.07-.07-.07-.07-.07-.07-.07-.07-.07-.07-.07-.07-.07-.07-.06-.07-.06-.07-.06-.07-.06-.07-.06-.07-.06-.07-.06-.07-.06-.07-.06-.07-.06-.07-.06-.07-.06-.07-.06-.07-.06-.08-.06-.08-.06-.08-.05-.08-.05-.08-.05-.08-.05-.08-.05-.08-.05-.08-.05-.08-.05-.08-.05-.08-.05-.08-.05-.08-.05-.08-.05-.08-.04-.08-.04-.08-.04-.08-.04-.08-.02-.04-.02-.04-.02-.04-.02-.04-.02-.04-.02-.04-.02-.04-.02-.04-.02-.04-.02-.04-.02-.04-.02-.04-.02-.04-.02-.04-.02-.04-.02-.04-.02-.04-.02-.04-.02-.04-.02-.04-.02-.04-.02-.04-.02-.04-.02-.04v-.04l-.03-.04v-.04l-.03-.04v-.04l-.03-.04v-.04l-.03-.04v-.04l-.03-.04v-.04l-.03-.04v-.04l-.02-.05v-.05l-.02-.05v-.04l-.02-.05v-.05l-.02-.05v-.05l-.02-.05v-.05l-.02-.05v-.05l-.02-.05v-.05l-.02-.05v-.05l-.02-.05v-.05l-.01-.05v-.05l-.01-.05v-.05l-.01-.05v-.05l-.01-.05v-1.65l.01-.05v-.05l.01-.05v-.05l.01-.05v-.05l.01-.05v-.05l.02-.05v-.05l.02-.05v-.05l.02-.05v-.05l.02-.05v-.05l.02-.05v-.05l.02-.05v-.05l.02-.05v-.05l.02-.05v-.05l.03-.05v-.05l.03-.05v-.05l.03-.05.02-.05v-.05l.03-.05.02-.05.02-.05.02-.05.02-.05.02-.05.02-.05.02-.05.02-.05.02-.05.02-.05.02-.05.02-.05.02-.05.02-.05.02-.05.02-.05.02-.05.02-.05.02-.05.02-.05.02-.05.02-.05.02-.05.02-.05.02-.05.02-.05.02-.05.02-.05.02-.05.03-.05.03-.05.03-.05.03-.05.03-.05.03-.05.03-.05.03-.05.03-.05.03-.05.03-.04.03-.04.03-.04.03-.04.03-.04.03-.04.03-.04.03-.04.03-.04.03-.04.03-.04.03-.04.03-.04.03-.04.03-.04.03-.04.03-.04.03-.04.03-.04.03-.04.03-.04.03-.04.03-.04.03-.04.03-.04.03-.04.04-.04.04-.04.03-.04.04-.04.04-.04.04-.04.04-.04.04-.04.04-.03.04-.03.04-.03.04-.03.04-.03.04-.03.04-.03.04-.03.04-.03.04-.03.04-.03.04-.03.04-.03.04-.03.04-.03.04-.03.04-.03.04-.03.04-.03.04-.03.04-.03.04-.03.04-.03.04-.03.04-.02.04-.02.04-.02.04-.02.05-.02.04-.02.04-.02.04-.02.05-.02.05-.02.04-.02.05-.02.05-.02.05-.02.05-.02.05-.02.05-.02.05-.02.05-.02.05-.02.05-.02.05-.02.05-.02h.05l.05-.03h.05l.05-.03h.05l.05-.03h.05l.05-.02h.05l.05-.02h.05l.05-.02h.05l.05-.02h.05l.05-.02h.05l.05-.01h.05l.05-.01h.05l.05-.01h1.35l.05.01h.05l.05.01h.05l.05.01h.05l.05.01h.05l.05.02h.05l.05.02h.05l.05.02h.05l.05.02h.05l.05.02h.05l.05.02h.05l.05.02h.05l.05.02h.05l.05.02h.05l.05.03h.05l.05.03h.05l.05.03h.05l.05.03h.05l.05.03.05.02.05.02.05.02.05.02.05.02.05.02.05.02.09.03.09.04.09.04.09.04.09.04.09.04.09.04.09.04.09.04.09.04.09.04.09.04.09.04.09.05.09.05.09.05.09.05.09.05.09.05.09.05.09.05.09.05.09.05.09.05.09.05.09.05.09.06.09.06.09.06.09.06.09.06.09.06.09.06.09.06.09.06.09.06.09.06.09.06.09.06.09.06.09.07.09.07.09.07.09.07.09.07.09.07.09.07.09.07.09.07.09.07.09.07.09.07.09.07.09.07.09.07.09.07.09.07.09.08.09.08.09.08.09.08.09.08.09.08.09.08.09.08.09.08.09.08.09.08.09.08.09.08.09.08.09.08.09.08.09.08.09.08.09.09.09.09.09.09.09.09.09.09.09.09.09.09.09.09.09.09.09.09.09.09.09.09.09.09.09.09.09.09.09.09.09.09.09.09.09.09.09.09.09.09.09.09.09.1.09.1.09.1.09.1.09.1.09.1.09.1.09.1.09.1.09.1.09.1.09.1.09.1.09.1.09.1.09.1.09.1.09.1.09.1.09.1.09.1.09.1.09.1.09.1.09.1.09.1.09.1.09.1.09.1.09.11.09.11.09.11.09.11.09.11.09.11.09.11.09.11.09.11.09.11.09.11.18.22.18.22.18.22.18.22.18.22.18.22.18.22.18.22.18.22.18.22.18.22.18.22.18.22.18.23.18.23.18.23.18.23.18.23.18.23.18.23.18.23.18.23.18.23.18.23.18.23.17.23.17.23.17.23.17.23.17.23.17.23.17.23.17.23.17.23.17.23.17.23.17.23.17.23.17.23.16.23.16.22.16.22.13.18.19.05.19.05.19.05.19.05.19.05.19.05.19.05.18.05.18.05.18.05.18.05.18.05.18.04.18.04.17.04.17.04.17.04.17.04.17.04.16.04.16.04.32.08.31.07.31.07.3.07.29.07.28.06.27.06.26.06.25.06.24.05.24.05.23.05.22.05.2.04.19.04.18.04.17.04.16.03.15.03.14.03.12.03.11.02.19.04.13.03.08.02h.03l.64.25.52.45.33.6.11.68-.13.67-.35.59-.53.43-.65.23h-.69l-.03-.02-.09-.02-.15-.03-.2-.04-.12-.02-.13-.03-.14-.03-.15-.03-.17-.03-.18-.04-.19-.04-.2-.04-.21-.05-.22-.05-.23-.05-.24-.05-.25-.06-.26-.06-.27-.06-.28-.06-.29-.07-.3-.07-.31-.07-.31-.07.13.19.13.2.13.2.13.19.13.19.13.19.13.19.13.19.13.19.12.18.12.18.24.36.23.35.23.34.22.33.21.32.21.32.2.31.19.3.19.29.18.28.17.27.16.26.13.2.16-.17.18-.19.19-.2.19-.21.2-.21.21-.22.21-.23.22-.23.23-.24.23-.25.24-.25.25-.26.25-.26.26-.27.27-.27.27-.28.28-.29.14-.14.14-.15.14-.15.15-.15.15-.15.15-.15.15-.15.15-.15.15-.15.15-.16.16-.16.16-.16.16-.16.16-.16.16-.16.16-.16.16-.16.16-.16.17-.16.17-.16.17-.17.17-.17.17-.17.17-.17.17-.17.18-.17.18-.17.18-.17.18-.17.18-.17.18-.17.18-.17.18-.18.18-.18.19-.18.19-.18.19-.18.19-.18.19-.18.19-.18.19-.18.19-.18.19-.18.2-.18.2-.18.2-.18.2-.18.2-.18.2-.18.2-.18.2-.18.2-.18.2-.18.2-.18.21-.19.21-.19.21-.19.21-.19.21-.19.21-.19.21-.19.21-.19.21-.19.21-.19.21-.19.22-.19.22-.19.22-.19.22-.19.22-.19.22-.19.22-.19.22-.19.22-.19.22-.19.22-.19.22-.19.22-.19.23-.19.23-.19.23-.19.23-.19.23-.19.23-.18.23-.18.23-.18.23-.18.23-.18.23-.18.23-.18.23-.18.23-.18.23-.18.23-.18.23-.18.23-.18.23-.18.24-.18.24-.18.24-.18.24-.18.24-.18.24-.18.24-.18.12-.09.12-.09.12-.09.12-.09.12-.09.12-.09.12-.09.12-.09.12-.09.12-.09.12-.09.12-.09.12-.09.12-.09.12-.09.12-.08.12-.09.12-.08.12-.08.12-.08.12-.08.12-.08.12-.08.12-.08.12-.08.12-.08.12-.08.12-.08.12-.08.12-.08.12-.08.12-.08.12-.08.12-.08.12-.08.12-.08.12-.08.12-.08.12-.08.12-.08.12-.08.12-.08.12-.08.12-.08.12-.08.12-.08.12-.08.12-.08.12-.08.12-.08.12-.08.12-.08.12-.08.12-.08.12-.08.12-.08.12-.08.12-.07.12-.07.12-.07.12-.07.12-.07.12-.07.12-.07.12-.07.12-.07.12-.07.12-.07.12-.07.12-.07.12-.07.12-.07.12-.07.04-.02h-.1l-.18-.01h-.18l-.18-.02h-.18l-.18-.02h-.09l-.09-.01H229l-.09-.01h-.09l-.09-.01h-.09l-.09-.01h-.09l-.09-.02h-.09l-.09-.02h-.09l-.09-.02h-.09l-.09-.02h-.09l-.09-.02h-.09l-.09-.02h-.09l-.09-.02h-.09l-.09-.02h-.09l-.09-.02h-.09l-.09-.02h-.09l-.09-.02h-.09l-.09-.03h-.09l-.09-.03h-.09l-.09-.03h-.09l-.09-.03-.09-.02h-.09l-.09-.03-.09-.02-.09-.02-.09-.02-.09-.02-.09-.02-.09-.02-.09-.02-.09-.02-.09-.02-.09-.02-.09-.02-.09-.02-.09-.02-.09-.02-.09-.02-.09-.02-.09-.02-.09-.02-.09-.02-.09-.02-.09-.02-.09-.02-.09-.02-.09-.02-.09-.02-.09-.02-.09-.02-.09-.02-.09-.02-.09-.02-.09-.02-.09-.03-.09-.03-.09-.03-.09-.03-.09-.03-.09-.03-.09-.03-.09-.03-.09-.03-.09-.03-.09-.03-.09-.03-.09-.03-.09-.03-.09-.03-.09-.03-.09-.03-.09-.03-.09-.03-.09-.03-.09-.03-.09-.03-.08-.03-.08-.03-.08-.04-.08-.04-.08-.04-.08-.04-.08-.04-.08-.04-.08-.04-.08-.04-.08-.04-.08-.04-.08-.04-.08-.04-.08-.04-.08-.04-.08-.04-.08-.04-.08-.04-.08-.04-.08-.04-.08-.04-.08-.04-.08-.04-.08-.05-.08-.05-.08-.05-.08-.05-.08-.05-.08-.05-.08-.05-.08-.05-.07-.05-.07-.05-.07-.05-.07-.05-.07-.05-.07-.05-.07-.05-.07-.05-.07-.05-.07-.06-.07-.06-.07-.06-.07-.06-.07-.06-.07-.06-.07-.06-.07-.06-.07-.06-.07-.06-.07-.06-.07-.06-.07-.06-.06-.06-.06-.06-.06-.06-.06-.07-.06-.07-.06-.07-.06-.07-.06-.07-.06-.07-.06-.07-.06-.07-.06-.07-.06-.07-.06-.07-.05-.07-.03-.04-.03-.04-.03-.04-.03-.04-.03-.04-.03-.04-.03-.04-.03-.04-.03-.04-.03-.04-.03-.04-.03-.04-.03-.04-.03-.04-.03-.04-.03-.04-.03-.04-.02-.04-.02-.04-.03-.04-.02-.04-.02-.04-.02-.04-.02-.04-.02-.04-.02-.04-.02-.04-.02-.04-.02-.04-.02-.04-.02-.04-.02-.04-.02-.04-.02-.04-.02-.04-.02-.04-.02-.04-.02-.04-.02-.04-.02-.04-.02-.04-.02-.04-.02-.04-.02-.04-.02-.04-.02-.04-.02-.04-.02-.04-.02-.04-.02-.04-.02-.04-.02-.05-.02-.04-.02-.04-.02-.04-.02-.05-.02-.05-.02-.05-.02-.05-.02-.05-.02-.05-.02-.05v-.05l-.03-.05v-.05l-.03-.05v-.05l-.03-.05v-.05l-.03-.05v-.05l-.03-.05v-.05l-.02-.05v-.05l-.02-.05v-.05l-.02-.05v-.05l-.02-.05v-.05l-.02-.05v-.05l-.02-.05v-.05l-.02-.05v-.05l-.02-.05v-.05l-.02-.05v-.05l-.02-.05v-.05l-.01-.05v-.05l-.01-.05v-.05l-.01-.05v-.05l-.01-.05v-.05l-.01-.05v-.05l-.01-.05v-1.96l.01-.06v-.05l.01-.05v-.06l.01-.05v-.06l.01-.06v-.06l.01-.06v-.06l.02-.06v-.06l.02-.06v-.06l.02-.06v-.06l.02-.06v-.06l.02-.06v-.06l.02-.06v-.06l.02-.06v-.06l.02-.06v-.06l.02-.06v-.06l.02-.06v-.06l.03-.06v-.06l.03-.06v-.06l.03-.06v-.06l.03-.06v-.06l.03-.06.02-.06.02-.06.02-.06.02-.06.02-.06.02-.06.02-.06.02-.06.02-.06.02-.06.02-.06.02-.06.02-.06.02-.06.02-.06.02-.06.02-.06.02-.06.02-.06.02-.06.02-.06-.07.03-.14.07-.14.07-.14.07-.14.07-.14.06-.14.06-.14.06-.14.06-.14.06-.14.06-.15.06-.15.06-.15.06-.15.06-.15.06-.08.03-.08.03-.07.03-.08.03-.08.03-.08.03-.08.03-.08.03-.08.03-.08.03-.08.03-.08.03-.08.03-.08.03-.08.03-.08.03-.08.03-.08.03-.08.03-.08.03-.08.03-.08.03-.08.03-.08.03-.08.03-.08.03-.08.03-.08.03-.08.03-.08.03-.08.03-.08.02-.08.02-.08.02-.08.02-.08.02-.08.02-.08.02-.08.02-.08.02-.08.02-.08.02-.08.02-.08.02-.08.02-.08.02-.08.02-.08.02-.08.02-.08.02-.08.02-.08.02-.08.02-.08.02-.08.02-.08.02-.08.02-.08.02-.08.02-.08.02-.08.02-.08.02-.08.02-.08.02-.08.02h-.08l-.08.03h-.08l-.08.03H207l-.08.03h-.08l-.08.02h-.08l-.08.02h-.08l-.08.02h-.08l-.08.02h-.08l-.08.02h-.08l-.08.02h-.08l-.08.01h-.08l-.08.01h-1.85l-.09-.01h-.08l-.09-.01h-.09l-.08-.02h-.09l-.09-.02h-.09l-.08-.02h-.09l-.08-.02h-.09l-.08-.03h-.08l-.09-.03-.08-.02-.08-.02-.08-.02-.08-.02-.08-.02-.08-.02-.08-.02-.08-.02-.08-.02-.08-.02-.08-.02-.08-.02-.08-.02-.08-.02-.08-.03-.08-.03-.08-.03-.08-.03-.08-.03-.08-.03-.08-.03-.08-.03-.08-.03-.08-.03-.08-.03-.08-.03-.08-.04-.08-.04-.08-.04-.08-.04-.08-.04-.08-.04-.08-.04-.08-.04-.08-.04-.08-.04-.08-.04-.08-.04-.08-.05-.08-.05-.08-.05-.08-.05-.08-.05-.08-.05-.08-.05-.08-.05-.08-.05-.07-.05-.08-.05-.07-.06-.07-.05-.04-.03-.04-.03-.04-.03-.04-.03-.04-.03-.04-.03-.04-.03-.04-.03-.04-.03-.04-.03-.04-.03-.04-.03-.04-.03-.04-.03-.03-.03-.04-.03-.03-.03-.04-.03-.03-.03-.03-.03-.03-.03-.03-.03-.03-.03-.03-.03-.03-.03-.03-.03-.03-.03-.03-.03-.03-.03-.03-.03-.03-.03-.03-.03-.03-.04-.03-.04-.03-.04-.03-.04-.03-.04-.03-.04-.03-.04-.03-.04-.03-.04-.03-.04-.03-.04-.03-.04-.03-.04-.03-.04-.03-.04-.03-.04-.03-.04-.03-.04-.03-.04-.03-.04-.03-.04-.03-.04-.03-.04-.03-.04-.03-.04-.03-.04-.03-.04-.03-.04-.03-.04-.03-.04-.03-.04-.03-.04-.03-.04-.03-.04-.03-.04-.03-.04-.03-.04-.03-.04-.03-.04-.03-.04-.03-.04-.03-.04-.03-.04-.03-.04-.03-.04-.03-.04-.03-.04-.03-.04-.03-.05-.03-.05-.03-.05-.03-.05-.03-.05-.03-.05-.03-.05-.03-.05-.02-.05-.03-.05-.02-.05-.02-.05-.02-.05-.02-.05-.02-.05-.02-.05-.02-.05-.02-.05-.02-.05-.02-.05-.02-.05-.02-.05-.02-.05-.02-.05-.02-.05-.02-.05-.02-.05-.02-.05-.02-.05-.02-.05-.02-.05-.02-.05-.02-.05-.02-.05-.02-.05-.02-.05-.02-.05-.02-.05-.02-.05-.02-.05-.02-.05-.02-.05-.02-.05-.02-.05-.02-.05-.02-.06-.04-.11-.04-.11-.04-.11-.04-.11-.04-.11-.04-.11-.03-.11-.03-.11-.03-.12-.03-.12-.03-.12-.03-.12-.03-.12-.03-.12-.03-.12-.03-.12-.03-.12-.03-.12-.03-.12-.03-.12-.03-.13-.03-.13-.03-.13-.02-.13-.02-.13-.02-.13-.02-.13-.02-.13-.02-.13-.02-.13-.02-.14-.02-.14-.02-.14-.02-.14-.02-.14-.02-.14-.02-.14-.02-.14-.02-.14v-.14l-.03-.14v-.14l-.03-.15v-.15l-.02-.15v-.15l-.02-.15v-.15l-.02-.15v-.15l-.02-.15v-.15l-.01-.16v-.16l-.01-.16v-.68l-.05.05-.05.05-.05.05-.05.05-.05.05-.05.05-.05.05-.05.05-.05.05-.05.05-.05.05-.05.05-.05.05-.05.05-.05.05-.05.05-.05.05-.05.05-.05.05-.05.05-.05.05-.05.05-.05.05-.05.04-.05.05-.06.04-.06.04-.06.04-.06.04-.06.04-.06.04-.06.04-.06.04-.06.04-.06.04-.06.04-.06.04-.06.04-.06.04-.06.04-.06.04-.06.04-.06.04-.06.04-.06.04-.06.04-.06.04-.06.04-.06.04-.06.04-.06.04-.06.04-.06.04-.06.04-.06.04-.06.04-.06.04-.06.04-.06.04-.07.04-.07.04-.07.04-.07.04-.07.04-.07.03-.07.03-.07.03-.07.03-.07.03-.07.03-.07.03-.07.03-.07.03-.07.03-.07.03-.07.03-.07.03-.07.03-.07.03-.07.03-.07.03-.07.03-.07.03-.07.03-.07.03-.07.03-.07.03-.07.03-.07.03-.07.02-.07.02-.07.02-.08.02-.08.02-.08.02-.08.02-.08.02-.08.02-.08.02-.08.02-.08.02-.08.02-.08.02-.08.02-.08.02-.08.02-.08.02h-.08l-.08.03h-.08l-.08.03h-.08l-.08.02h-.08l-.08.02h-.08l-.08.02h-.08l-.08.02h-.08l-.08.01h-.08l-.08.01h-1.08l-.09-.01h-.09l-.09-.01h-.09l-.09-.02h-.09l-.09-.02h-.09l-.09-.02h-.09l-.09-.03h-.09l-.09-.03-.09-.02-.09-.02-.09-.02-.09-.02-.09-.02-.09-.02-.09-.02-.09-.02-.09-.02-.09-.02-.09-.02-.09-.03-.09-.03-.09-.03-.09-.03-.09-.03-.09-.03-.09-.03-.09-.03-.09-.03-.09-.03-.09-.03-.09-.03-.09-.04-.09-.04-.09-.04-.09-.04-.09-.04-.09-.04-.09-.04-.09-.04-.09-.04-.09-.04-.09-.04-.09-.05-.09-.05-.09-.05-.09-.05-.09-.05-.09-.05-.09-.05-.09-.05-.09-.05-.09-.05-.09-.05-.09-.06-.09-.06-.09-.06-.09-.06-.09-.06-.09-.06-.09-.06-.09-.06-.09-.06-.09-.06-.09-.06-.09-.07-.09-.07-.09-.07-.09-.07-.09-.07-.09-.07-.09-.07-.09-.07-.09-.07-.09-.07-.09-.07-.09-.08-.09-.08-.09-.08-.09-.08-.09-.08-.09-.08-.09-.08-.09-.08-.09-.08-.09-.08-.09-.08-.09-.09-.09-.09-.09-.09-.09-.09-.09-.09-.09-.09-.09-.09-.09-.09-.09-.09-.09-.09-.09-.1-.09-.1-.09-.1-.09-.1-.09-.1-.09-.1-.09-.1-.09-.1-.09-.1-.09-.11-.09-.11-.09-.11-.09-.11-.09-.11-.09-.11-.09-.11-.09-.11-.09-.11-.09-.11-.09-.12-.09-.12-.09-.12-.09-.12-.09-.12-.09-.12-.09-.12-.09-.12-.09-.12-.09-.12-.09-.13-.09-.13-.09-.13-.09-.13-.09-.13-.09-.13-.09-.13-.09-.13-.09-.14-.09-.14-.09-.14-.09-.14-.09-.14-.09-.14-.09-.14-.09-.14-.09-.14-.09-.15-.09-.15-.09-.15-.09-.15-.09-.15-.09-.15-.09-.15-.09-.15-.09-.16-.09-.16-.09-.16-.09-.16-.09-.16-.09-.16-.09-.16-.09-.16-.03-.06v.02l.01.36v.36l.03.36v.37l.03.37v.37l.02.38v.38l.02.38v.39l.02.39v.39l.02.39v.39l.02.4v.4l.01.4v.4l.01.4v7.39l-.01.2v.2l-.01.2v.2l-.01.2v.2l-.01.2v.2l-.01.2v.2l-.02.2v.2l-.02.2v.2l-.02.2v.2l-.02.2v.2l-.02.2v.2l-.02.2v.2l-.02.2v.2l-.03.2v.19l-.03.19v.19l-.03.19v.19l-.03.19-.02.19-.02.19-.02.19-.02.19-.02.19-.02.19-.02.19-.02.19-.02.19-.02.19-.02.19-.02.19-.02.18-.02.18-.02.18-.02.18-.02.18-.02.18-.02.18-.02.18-.02.18-.02.18-.02.18-.02.17-.02.17-.03.17-.03.17-.03.17-.03.17-.03.17-.03.17-.03.17-.03.17-.03.17-.03.16-.03.16-.03.16-.03.16-.03.16-.03.16-.03.16-.03.16-.03.16-.03.15-.03.15-.26.63-.46.5-.61.31-.68.09-.67-.15-.58-.37-.42-.55-.2-.65.03-.68.03-.14.03-.14.03-.14.03-.14.03-.14.03-.14.03-.14.03-.14.03-.15.03-.15.03-.15.03-.15.03-.15.03-.15.02-.15.03-.16.02-.16.02-.16.02-.16.02-.16.02-.16.02-.16.02-.16.02-.16.02-.17.02-.17.02-.17.02-.17.02-.17.02-.17.02-.17.02-.17.02-.17.02-.17.02-.18.02-.18.02-.18.02-.18.02-.18.02-.18.02-.18.02-.18v-.18l.03-.18v-.18l.03-.18v-.19l.03-.19v-.19l.03-.19v-.19l.02-.19v-.19l.02-.19v-.19l.02-.19v-.19l.02-.19v-.19l.02-.19v-.19l.02-.19v-.19l.02-.19v-.2l.02-.2v-.2l.02-.2v-.2l.01-.2v-.2l.01-.2v-.2l.01-.2v-.2l.01-.2v-.2l.01-.2v-7.59l-.01-.39v-.39l-.02-.39v-.39l-.02-.39v-.38l-.02-.38v-.38l-.02-.38v-.37l-.02-.37v-.37l-.02-.37v-.36l-.03-.36v-.36l-.03-.35v-.35l-.03-.35v-.34l-.03-.34v-.33l-.03-.33-.02-.33v-.32l-.03-.32-.02-.31-.02-.31-.02-.3-.02-.3-.02-.29-.02-.29-.02-.28-.02-.28-.02-.27-.02-.27-.02-.26-.02-.25-.02-.25v-.24l-.03-.24v-.23l-.04-.44-.03-.41-.03-.39-.02-.36-.02-.33-.02-.3-.02-.26-.02-.23-.02-.2v-.16l-.03-.22v-.08l.04-.62.24-.58.41-.47.54-.32.61-.14.62.06.57.25.46.42.31.54.09.23.08.22.09.22.09.22.08.22.08.22.09.22.09.21.08.21.08.21.09.21.08.21.08.21.08.21.08.2.08.2.08.2.08.2.08.2.08.2.08.2.08.19.08.19.08.19.08.19.08.19.08.19.08.19.08.18.08.18.08.18.08.18.08.18.08.18.08.18.08.17.08.17.08.17.08.17.08.17.08.17.08.17.08.17.08.16.08.16.08.16.08.16.08.16.08.16.08.16.08.15.08.15.08.15.08.15.08.15.08.15.08.15.08.15.08.14.08.14.08.14.08.14.08.14.08.14.08.14.08.14.08.13.08.13.08.13.08.13.08.13.08.13.08.13.08.13.08.12.08.12.08.12.08.12.08.12.08.12.08.12.08.12.08.11.08.11.08.11.08.11.08.11.08.11.08.11.08.11.08.1.08.1.08.1.08.1.08.1.08.1.08.1.08.1.08.1.08.09.08.09.07.09.08.09.07.09.07.09.07.09.07.09.07.09.07.08.07.08.07.08.07.08.07.08.07.08.07.08.07.08.07.08.07.08.07.07.07.07.07.07.07.07.07.07.07.07.07.07.07.07.07.07.07.06.07.06.07.06.07.06.07.06.07.06.07.06.07.06.07.06.07.06.07.06.07.05.07.05.07.05.07.05.07.05.07.05.07.05.07.05.07.05.07.05.06.05.06.04.06.04.06.04.06.04.06.04.06.04.06.04.06.04.06.04.06.04.06.04.06.04.06.03.06.03.06.03.06.03.06.03.06.03.06.03.06.03.06.03.06.03.06.03.06.03.06.03.06.03.06.02.06.02.06.02.06.02.06.02.06.02.06.02.06.02.06.02.06.02.06.02.06.02.06.02.06.02.06.02.05.02h.05l.05.03h.05l.05.03h.05l.05.02h.05l.05.02h.05l.05.02h.05l.05.02h.05l.05.02h.05l.05.01h.05l.05.01h.05l.05.01h1.15l.05-.01h.05l.05-.01h.05l.05-.01h.05l.05-.02h.05l.05-.02h.05l.05-.02h.05l.05-.02h.05l.05-.02h.05l.05-.02h.05l.05-.02h.05l.05-.03h.05l.05-.03h.05l.05-.03.05-.02.05-.02.05-.02.05-.02.05-.02.05-.02.05-.02.05-.02.05-.02.05-.02.05-.02.05-.02.05-.02.05-.02.05-.02.05-.02.05-.02.05-.02.05-.02.05-.02.05-.02.05-.02.05-.02.05-.02.05-.02.05-.02.05-.02.05-.02.05-.03.05-.02.05-.03.05-.03.05-.03.05-.03.05-.03.05-.03.04-.03.05-.03.05-.03.04-.03.05-.03.04-.03.04-.03.04-.03.04-.03.04-.03.04-.03.04-.03.04-.03.04-.03.04-.03.04-.03.04-.03.04-.03.04-.03.04-.03.04-.03.04-.03.04-.03.04-.03.04-.03.04-.03.04-.03.04-.03.04-.03.04-.03.04-.03.04-.03.04-.03.04-.04.04-.03.04-.04.04-.04.04-.04.04-.04.04-.04.04-.04.04-.04.04-.04.04-.04.04-.04.04-.04.04-.04.04-.04.04-.04.04-.04.04-.04.04-.04.04-.04.04-.04.04-.04.04-.04.04-.04.04-.04.04-.04.04-.04.04-.04.04-.04.04-.04.04-.04.04-.04.07-.08.07-.08.07-.08.07-.08.07-.08.07-.08.07-.08.07-.08.07-.08.07-.08.07-.08.06-.08.06-.08.06-.08.06-.08.06-.08.06-.08.06-.08.06-.08.06-.08.06-.07.06-.07.06-.07.05-.07.05-.07.05-.07.05-.07.05-.07.05-.07.05-.07.05-.07.05-.07.05-.07.04-.06.04-.06.04-.06.04-.06.04-.06.04-.06.04-.06.04-.06.04-.06.04-.06.03-.06.03-.05.03-.05.03-.05.03-.05.06-.1.05-.09.05-.08.04-.08.04-.07.04-.06.03-.05.03-.05.02-.04.02-.03.02-.04.42-.54.57-.36.66-.15.67.09.6.31.46.49.27.62.04.68-.02.19-.02.19-.02.19-.02.19-.02.18-.02.18-.02.18-.02.18-.02.18v.18l-.03.18v.18l-.03.17v.17l-.02.17v.17l-.02.17v.17l-.02.17v.17l-.02.17v.16l-.01.16v.16l-.01.16v2.54l.01.14v.14l.01.14v.13l.02.13v.13l.02.13v.13l.02.13v.13l.02.13v.13l.02.13v.12l.03.12v.12l.03.12v.12l.03.12.02.12.02.12.02.11.02.11.02.11.02.11.02.11.02.11.02.11.02.11.02.11.02.11.02.1.02.1.02.1.02.1.02.1.02.1.02.1.02.1.02.1.02.09.03.09.03.09.03.09.03.09.03.09.03.09.03.09.03.09.03.08.03.08.03.08.03.08v.04l.03.04v.04l.03.04v.04l.03.04.02.04.02.04.02.04v.04l.03.04.02.04.02.04.02.04.02.04.02.04.02.04.02.04.02.04.02.04.02.04.02.04.02.04.02.03.02.04.02.03.02.03.02.03.02.03.02.03.02.03.02.03.02.03.02.03.02.03.02.03.02.03.02.03.02.03.02.03.02.03.02.03.02.03.02.03.02.03.02.03.02.03.02.03.02.03.02.03.02.03.02.03.02.03.02.03.02.03.02.03.02.03.02.03.02.03.02.03.02.03.02.03.02.03.02.03.02.03.02.03.02.03.02.03.02.03.02.03.02.02.02.02.02.02.02.02.02.02.02.02.02.02.02.02.02.02.02.02.02.02.02.02.02.02.02.02.02.02.02.02.02.02.02.02.02.02.02.02.02.02.02.02.02.02.02.02.02.02.02.02.02.02.02.02.02.02.02.02.02.02.02.02.02.02.02.02.02.02.02.02.02.02.02.02.02.02.02.02.02.02.02.02.02.02.02.02.02.02.02.02.02.02.02.02.02.02.02.02.02.02.02.02.02.02.02.02.02.02h.02l.04.05.04.03.04.03.04.03.04.03.04.03.04.03.04.03.04.03.04.03.04.03.04.03.04.03.04.03.04.02.04.02.05.02.05.02.05.02.05.02.05.02.05.02.05.02.05.02.05.02.05.02.05.02.05.02.05.02.05.02.05.02.05.02.05.02.05.02.05.02.05.02.05.02h.05l.05.03h.05l.05.03h.05l.05.03h.05l.05.02h.05l.05.02h.05l.05.02h.05l.05.02h.05l.05.02h.06l.06.02h.06l.06.02h.06l.06.01h.06l.06.01h.06l.06.01h1.74l.06-.01h.06l.06-.01h.06l.06-.01h.06l.06-.02h.06l.07-.02h.07l.07-.02h.07l.07-.02h.07l.07-.02h.07l.07-.02h.07l.07-.02h.07l.07-.03h.07l.07-.03h.07l.07-.03h.07l.07-.03h.07l.07-.03.07-.02.07-.02.07-.02.07-.02.07-.02.07-.02.07-.02.07-.02.07-.02.07-.02.07-.02.07-.02.07-.02.07-.02.07-.02.07-.02.07-.02.07-.02.07-.02.07-.02.07-.02.07-.02.07-.02.07-.02.07-.02.07-.02.07-.02.07-.02.07-.02.07-.02.07-.02.07-.02.07-.02.07-.02.07-.02.07-.02.07-.02.07-.02.07-.02.07-.02.07-.03.07-.03.07-.02.07-.03.07-.03.07-.03.07-.03.07-.03.07-.03.07-.03.07-.03.07-.03.06-.03.13-.05.13-.05.13-.06.13-.06.13-.06.13-.06.13-.06.13-.06.13-.06.13-.06.13-.06.12-.06.12-.06.12-.06.12-.06.12-.06.12-.06.12-.06.12-.06.12-.06.12-.06.12-.06.11-.06.11-.06.11-.06.11-.06.11-.06.11-.06.11-.06.11-.06.11-.06.11-.06.1-.06.1-.06.1-.06.1-.06.1-.06.1-.06.1-.06.09-.06.09-.06.09-.05.09-.05.09-.05.09-.05.09-.05.09-.05.08-.05.08-.05.08-.05.08-.05.08-.05.07-.05.07-.05.07-.05.07-.04.14-.09.13-.08.12-.08.11-.07.11-.07.1-.07.09-.06.08-.06.07-.05.06-.04.06-.04.05-.03.04-.03.05-.04h.02l.61-.31.67-.07.66.16.57.37Zm-51.26 23.18-.07-.04-.07-.04-.07-.04-.07-.04-.07-.04-.07-.04-.06-.03-.06-.03-.06-.03-.06-.03-.06-.03-.06-.03-.06-.03-.06-.03-.06-.03-.06-.03-.06-.03-.06-.02-.06-.02-.06-.02-.06-.02-.06-.02h-.03l-.03-.02h-.03l-.03-.02h-.03l-.03-.02h-.03l-.03-.02h-.03l-.03-.02h-.03l-.03-.02h-.03l-.03-.02h-.03l-.02-.01h-.03l-.02-.01h-.02l-.02-.01h-.02l-.02-.01h-.02l-.02-.01h-.02l-.02-.01h-1.16l-.01.01h-.01V57l-.01.01h-.01l-.01.01v.01h-.01v.01h-.01l-.01.01-.01.01h-.01l-.01.02h-.01l-.01.02h-.01l-.01.02h-.01l-.01.02h-.01l-.01.02h-.01l-.01.02h-.01l-.01.02h-.01l-.01.02h-.01l-.01.02h-.01l-.01.02h-.01l-.01.02h-.01l-.01.03h-.01l-.01.03h-.01l-.01.03h-.01l-.01.03v.02l-.03.02v.02l-.03.02v.02l-.03.02v.02l-.03.02v.02l-.03.02v.02l-.03.02v.02l-.03.02v.02l-.03.02v.02l-.03.02v.02l-.03.02v.02l-.03.02v.02l-.03.02v.02l-.03.02v.02l-.03.02v.03l-.03.03v.03l-.03.03v.03l-.03.03v.03l-.03.03v.03l-.03.03v.03l-.03.03v.03l-.03.03v.03l-.03.03v.03l-.03.03v.03l-.03.03v.03l-.03.03v.03l-.02.03v.03l-.02.02v.02l-.02.03v.02l-.02.02v.03l-.02.02v.03l-.02.02v.02l-.01.02v.02l-.01.02v.02l-.01.02v.02l-.01.02v.02l-.01.02v.02l-.01.02v.02l-.01.02v1.38l.01.02v.02l.01.02v.02l.01.02v.02l.01.02v.02l.01.02v.02l.01.02v.02l.01.02v.02l.01.02v.02l.02.02v.02l.02.02v.02l.02.02v.02l.02.02v.02l.02.02v.02l.02.02v.02l.02.02v.02l.02.02v.02l.02.02v.02l.02.02v.02l.02.02v.02l.02.02v.02l.02.02.03.05.02.05.03.05.03.05.03.05.03.05.03.05.03.05.03.05.03.05.03.05.03.05.03.05.03.05.03.05.03.05.04.05.04.05.04.05.04.05.04.05.04.05.04.05.04.05.04.05.04.05.04.05.04.05.04.05.04.05.04.05.05.05.05.05.05.05.05.05.05.05.05.05.05.05.05.05.05.05.05.05.05.05.05.05.05.05.05.05.05.05.06.05.06.05.06.05.06.05.06.05.06.05.06.05.06.05.06.05.06.05.06.05.06.05.06.05.06.05.06.05.07.05.07.05.07.05.07.05.07.05.07.05.07.05.07.05.07.05.07.05.07.05.07.05.07.05.07.05.07.05.07.05.07.05.07.05.08.05.08.05.08.05.08.05.08.05.08.05.08.05.08.05.08.05.08.05.08.05.08.05.08.05.08.05.08.05.08.05.08.05.08.05.08.05.08.05.08.05.09.05.09.05.09.05.09.05.09.05.09.05.09.05.09.05.09.05.09.05.09.05.09.05.09.05.09.05.09.05.09.05.09.05.09.05.09.05.09.05.09.05.09.05.09.05.09.05.09.05.09.05.1.05.1.05.1.05.1.05.1.05.1.05.1.05.1.05.1.05.1.05.1.05.1.05.1.05.1.05.1.05.1.05.1.04.1.05.1.04.1.05.1.04.1.04.1.04.1.04.1.04.1.04.1.04.1.04.1.04.1.04.1.04.1.04.1.04.1.04.1.04.1.04.1.04.1.04.21.09.21.08.21.08.21.08.21.08.21.08.21.08.21.08.21.08.21.08.21.08.21.08.21.08.22.08.22.08.22.08.22.08.22.08.22.08.22.07.22.07.22.07.22.07.22.07.22.07.22.07.22.07.22.07.12.04-.17-.23-.17-.22-.17-.22-.17-.22-.17-.22-.17-.22-.17-.22-.17-.22-.17-.22-.17-.22-.18-.22-.18-.22-.18-.22-.18-.22-.18-.22-.18-.22-.18-.21-.18-.21-.18-.21-.18-.21-.18-.21-.18-.21-.18-.21-.18-.21-.09-.1-.09-.1-.09-.1-.09-.1-.09-.1-.09-.1-.09-.1-.09-.1-.09-.1-.09-.1-.09-.1-.09-.1-.09-.1-.09-.1-.09-.1-.09-.1-.09-.1-.09-.1-.09-.1-.09-.1-.09-.1-.09-.1-.09-.1-.09-.1-.09-.1-.09-.1-.09-.1-.09-.09-.09-.09-.09-.09-.09-.09-.09-.09-.09-.09-.09-.09-.09-.09-.09-.09-.09-.09-.09-.09-.09-.09-.09-.09-.09-.09-.09-.09-.09-.09-.09-.09-.09-.09-.09-.09-.09-.09-.09-.09-.09-.08-.09-.08-.09-.08-.09-.08-.09-.08-.09-.08-.08-.08-.08-.08-.08-.08-.08-.08-.08-.08-.08-.08-.08-.08-.08-.08-.08-.08-.08-.08-.08-.08-.08-.08-.08-.08-.08-.07-.08-.07-.08-.07-.08-.07-.08-.07-.08-.07-.08-.07-.08-.07-.08-.07-.08-.07-.08-.07-.08-.07-.08-.07-.08-.07-.08-.07-.08-.06-.08-.06-.08-.06-.08-.06-.08-.06-.08-.06-.08-.06-.08-.06-.08-.06-.08-.06-.08-.06-.08-.06-.08-.06-.08-.06-.08-.05-.07-.05-.07-.05-.07-.05-.07-.05-.07-.05-.07-.05-.07-.05-.07-.05-.07-.05-.07-.05-.07-.05-.07-.05-.07-.04-.07-.04-.07-.04-.07-.04-.07-.04-.07-.04Z" fill="#f5ad3b" fill-rule="evenodd" data-color="1"/>
        <path fill="#f5ad3b" fill-rule="evenodd" d="M248.16 50.06h.01l.01.01h.01v.01h.01l.01.01h.01l.01.01h.01v.01l.01.01h.01l.01.01h.01v.01h.01l.01.01h.01l.01.01v.01h.01l.01.01h.01l.01.01v.01h.01l.01.01h.01v.01l.01.01h.01l.01.01.01.01.01.01h.01v.01l.01.01h.01l.01.01v.01h.01l.01.01v.01h.01l.01.01.01.01.01.01.01.01.01.01.01.01v.01h.01l.01.01v.01h.01l.01.01v.01l.01.01h.01v.01l.01.01.01.01.01.01.01.01v.01h.01v.01l.01.01.01.01.01.01v.01l.01.01h.01v.01l.01.01v.01l.01.01.01.01.01.01v.01l.01.01.01.01v.01l.01.01v.01l.01.01.01.01.01.01v.01l.01.01v.01h.01v.01l.01.01v.01l.01.01v.01l.01.01v.01l.01.01v.01l.01.01v.01l.01.01.01.01v.02l.01.01v.01l.01.01v.01h.01v.02l.01.01v.02l.01.01V51l.01.01v.01l.01.01v.02l.01.01v.02l.01.01v.02l.01.01v.01l.01.01v.02l.01.01v.03l.01.01v.03l.01.01v.03l.01.01v.02l.01.01v.04l.01.01v.05l.01.01v.06l.01.01v.07l.01.01v.34l-.01.01V52l-.01.01v.06l-.01.01v.05l-.01.01v.04l-.01.01v.03l-.01.01v.02l-.01.01v.03l-.01.01v.03l-.01.01v.02l-.01.01v.02l-.01.01v.01l-.01.01v.02l-.01.01v.02l-.01.01v.02h-.01v.01l-.01.01v.02l-.01.01v.02l-.01.01v.01h-.01v.01l-.01.01v.02l-.01.01v.01l-.01.01-.01.01v.01l-.01.01v.01l-.01.01v.01l-.01.01v.01l-.01.01v.01l-.01.01v.01h-.01v.01l-.01.01-.01.01v.01l-.01.01-.01.01v.01l-.01.01v.01h-.01v.01l-.01.01-.01.01v.01h-.01v.01l-.01.01v.01l-.01.01h-.01v.01l-.01.01v.01h-.01l-.01.01V53l-.01.01h-.01v.01l-.01.01v.01h-.01l-.01.01v.01l-.01.01h-.01v.01l-.01.01h-.01v.01l-.01.01-.01.01-.01.01-.01.01-.01.01-.01.01h-.01v.01l-.01.01h-.01v.01l-.01.01h-.01v.01l-.01.01h-.01l-.01.01v.01h-.01l-.01.01-.01.01-.01.01-.01.01h-.01v.01h-.01l-.01.01-.01.01-.01.01h-.01l-.01.01-.01.01-.01.01h-.01l-.01.01h-.01v.01l-.01.01h-.01l-.01.01h-.01v.01h-.01l-.01.01h-.01l-.01.01h-.01v.01h-.01l-.01.01h-.01l-.01.01h-.01v.01h-.01l-.01.01h-.01l-.01.01h-.01l-.01.01-.01.01h-.01l-.01.01h-.01l-.01.01h-.02v.01H248l-.01.01h-.02l-.01.01h-.01l-.01.01h-.01l-.01.01h-.01l-.01.01h-.02l-.01.01h-.02l-.01.01h-.01l-.01.01h-.02l-.01.01h-.02l-.01.01h-.02l-.01.01h-.03v.01h-.03l-.01.01h-.03l-.01.01h-.03l-.01.01h-.04l-.01.01h-.04l-.01.01h-.05l-.01.01h-.08l-.01.01h-.36l-.01-.01h-.08l-.01-.01h-.05l-.01-.01h-.05v-.01h-.04l-.01-.01h-.03l-.01-.01h-.03l-.01-.01h-.03l-.01-.01h-.02l-.01-.01h-.02l-.01-.01h-.02l-.01-.01h-.02l-.01-.01h-.02v-.01h-.02l-.01-.01h-.02l-.01-.01h-.01l-.01-.01h-.02v-.01h-.01l-.01-.01h-.02l-.01-.01h-.01l-.01-.01h-.01l-.01-.01h-.01l-.01-.01h-.01l-.01-.01h-.01v-.01h-.01l-.01-.01h-.01l-.01-.01h-.01l-.01-.01-.11-.06-.01-.01h-.01v-.01h-.01l-.01-.01h-.01l-.01-.01h-.01v-.01h-.01l-.01-.01-.01-.01h-.01v-.01h-.01l-.01-.01h-.01l-.01-.01-.01-.01-.01-.01h-.01l-.01-.01-.01-.01-.01-.01h-.01v-.01h-.01l-.01-.01-.01-.01-.01-.01-.01-.01h-.01v-.01h-.01l-.01-.01-.01-.01-.01-.01-.01-.01h-.01v-.01l-.01-.01h-.01v-.01l-.01-.01h-.01l-.01-.01v-.01h-.01l-.01-.01v-.01l-.01-.01h-.01v-.01l-.01-.01h-.01v-.01l-.01-.01-.01-.01-.01-.01-.01-.01v-.01h-.01v-.01l-.01-.01-.01-.01-.01-.01-.01-.01v-.01h-.01v-.01l-.01-.01-.01-.01-.01-.01v-.01l-.01-.01-.01-.01-.01-.01v-.01l-.01-.01v-.01h-.01v-.01l-.01-.01v-.01l-.01-.01-.01-.01-.01-.01v-.01l-.01-.01v-.01l-.01-.01-.01-.01v-.01l-.01-.01v-.01l-.01-.01-.01-.01v-.02l-.01-.01v-.01l-.01-.01v-.01h-.01v-.01l-.01-.01v-.02l-.01-.01v-.01l-.01-.01-.01-.01v-.02l-.01-.01v-.02l-.01-.01v-.01l-.01-.01v-.01l-.01-.01v-.02l-.01-.01v-.02l-.01-.01v-.02l-.01-.01v-.01l-.01-.01v-.03l-.01-.01v-.02l-.01-.01v-.03l-.01-.01v-.03l-.01-.01v-.03l-.01-.01v-.05l-.01-.01v-.05l-.01-.01v-.06l-.01-.01v-.1l-.01-.01v-.22l.01-.01v-.11l.01-.01v-.05l.01-.01v-.05l.01-.01v-.05l.01-.01v-.03l.01-.01v-.04h.01v-.03l.01-.01v-.02l.01-.01v-.03l.01-.01v-.02l.01-.01v-.01l.01-.01v-.02l.01-.01v-.02l.01-.01v-.02l.01-.01.01-.01v-.02l.01-.01v-.02l.01-.01v-.01l.01-.01.01-.01v-.02l.01-.01v-.01l.01-.01v-.01h.01v-.01l.01-.01v-.02l.01-.01v-.01h.01v-.01l.01-.01v-.01l.01-.02.01-.01.01-.02.01-.02.02-.01.01-.02.01-.02.01-.01.01-.02.01-.01.01-.02.01-.02.02-.01.01-.02.01-.01.01-.02.02-.01.01-.02.01-.01.01-.02.02-.01.01-.01.01-.02.02-.01.01-.02.02-.01.01-.01.01-.02.02-.01.01-.02.02-.01.01-.01.02-.01.01-.02.02-.01.01-.01.02-.01.01-.02.02-.01.01-.01.02-.01.01-.01.02-.01.02-.02.01-.01.02-.01.01-.01.02-.01.02-.01.01-.01.02-.01.02-.01.02-.01.01-.01.02-.01.02-.01.01-.01.02-.01h.02l.02-.01.01-.01.02-.01.02-.01h.02l.02-.01.01-.01.02-.01h.02l.02-.01.02-.01h.02l.01-.01.02-.01h.02l.02-.01h.02l.02-.01h.02l.02-.01h.02l.01-.01h.02l.02-.01h.02l.02-.01h.04l.02-.01h.04l.02-.01h.07l.02-.01h.36l.02.01h.05l.02.01h.04l.02.01h.04l.02.01h.04l.02.01h.02l.01.01h.02l.02.01h.02l.02.01h.02l.02.01.02.01h.01l.02.01.02.01h.02l.02.01.02.01h.01l.02.01.02.01.02.01.02.01h.01l.02.01.02.01.02.01.01.01.02.01.02.01.02.01.01.01.02.01h.01l.1.06.01.01z" data-color="1"/>
        <path fill="#f5ad3b" fill-rule="evenodd" d="m225.63 28.83.02.01.01.01.02.01.01.01h.01l.02.01.01.01.02.01.01.01.01.01.02.01.01.01.01.01.02.01.01.01.01.01.02.02.01.01.01.01.02.01.01.01.01.01.01.01.02.01.01.01.01.02.01.01.02.01.01.01.01.01.01.02.01.01.01.01.02.01.01.02.01.01.01.01.01.01.01.02.01.01.01.01.01.02.01.01.01.01.01.02.01.01.01.01.01.02.01.01.01.02.01.01.01.01.01.02.01.01.01.02.01.01.01.02.01.01v.02l.01.01.01.01.01.02.01.01.01.02v.01l.01.02.01.01.01.02v.02l.01.01.01.02v.01l.01.02.01.01v.02l.01.01.01.02v.02l.01.01v.02l.01.01v.02l.01.02v.01l.01.02v.01l.01.02v.02l.01.01v.02l.01.02v.01l.01.02v.03l.01.02v.03l.01.02v.05l.01.02v.05l.01.01v.12l.01.02v.17l-.01.01v.1l-.01.02v.07l-.01.02v.03l-.01.02v.03l-.01.02v.03l-.01.01v.04l-.01.01v.02l-.01.02v.01l-.01.02v.02l-.01.01v.02l-.01.01v.02l-.01.02-.01.01v.02l-.01.01v.02l-.01.02-.01.01v.02l-.01.01-.01.02v.01l-.01.02-.01.01v.02l-.01.01-.01.02-.01.01-.01.02v.01l-.01.02-.01.01-.01.02-.01.01-.01.02v.01l-.01.02-.01.01-.01.01-.01.02-.01.01-.01.02-.01.01-.01.01-.01.02-.01.01-.01.02-.01.01-.01.01-.01.02-.01.01-.01.01-.01.01-.01.02-.01.01-.02.01-.01.02-.01.01-.01.01-.01.01-.01.02-.01.01-.02.01-.01.01-.01.01-.01.02-.02.01-.01.01-.01.01-.01.01-.02.01-.01.01-.01.01-.01.02-.02.01-.01.01-.01.01-.02.01-.01.01-.01.01-.02.01-.01.01-.02.01-.01.01-.01.01-.02.01-.01.01-.02.01-.01.01h-.01l-.02.01-.01.01-.02.01-.01.01-.02.01-.01.01h-.02l-.01.01-.02.01-.01.01h-.02l-.01.01-.02.01-.01.01h-.02l-.01.01-.02.01h-.01l-.02.01-.02.01h-.01l-.02.01-.01.01h-.02l-.01.01h-.01l-.01.01-.02.01h-.01l-.01.01-.02.01-.01.01-.02.01-.01.01h-.02l-.01.01-.02.01-.01.01h-.02l-.01.01-.02.01-.02.01h-.01l-.02.01-.01.01h-.02l-.01.01-.02.01h-.01l-.02.01h-.02l-.01.01h-.02l-.01.01-.02.01h-.02l-.01.01h-.02l-.02.01h-.03l-.01.01h-.02l-.02.01h-.03l-.02.01h-.01l-.02.01h-.05l-.02.01h-.05l-.01.01h-.07l-.02.01h-.32l-.02-.01h-.08l-.02-.01h-.03l-.02-.01h-.05l-.01-.01h-.04l-.01-.01h-.02l-.02-.01h-.03l-.02-.01h-.01l-.02-.01h-.01l-.02-.01h-.02l-.01-.01h-.02l-.01-.01-.02-.01h-.02l-.01-.01h-.02l-.01-.01-.02-.01h-.02l-.01-.01-.02-.01h-.01l-.02-.01-.01-.01h-.02l-.01-.01-.02-.01-.01-.01h-.02l-.01-.01-.02-.01-.01-.01-.02-.01-.01-.01h-.02l-.01-.01-.02-.01-.01-.01-.01-.01-.02-.01-.01-.01-.02-.01-.01-.01-.02-.01-.01-.01-.01-.01-.02-.01-.01-.01-.01-.01-.02-.01-.01-.01-.01-.01-.02-.01-.01-.01-.01-.01-.01-.01-.02-.01-.01-.01-.01-.02-.02-.01-.01-.01-.01-.01-.01-.01-.01-.01-.02-.02-.01-.01-.01-.01-.01-.01-.01-.02-.01-.01-.02-.01-.01-.01-.01-.02-.01-.01-.01-.01-.01-.01-.01-.02-.01-.01-.01-.01-.01-.02-.01-.01-.01-.01-.01-.02-.01-.01-.01-.02-.01-.01-.01-.01-.01-.02-.01-.01-.01-.02-.01-.01-.01-.02-.01-.01v-.01l-.01-.02-.01-.01-.01-.02-.01-.01-.01-.02v-.01l-.01-.02-.01-.01-.01-.02v-.01l-.01-.02-.01-.02v-.01l-.01-.02-.01-.01v-.02l-.01-.01-.01-.02v-.01l-.01-.02-.01-.02v-.01l-.01-.02v-.01l-.01-.02v-.02l-.01-.01v-.02l-.01-.02v-.01l-.01-.02v-.03l-.01-.02v-.01l-.01-.02v-.03l-.01-.02v-.03l-.01-.02v-.05l-.01-.02v-.06l-.01-.02v-.36l.01-.01v-.07l.01-.02v-.05l.01-.01v-.04l.01-.01v-.04l.01-.01v-.04l.01-.01v-.02l.01-.02v-.01l.01-.02v-.01l.01-.02v-.02l.01-.01v-.02l.01-.01v-.02l.01-.02.01-.01v-.02l.01-.01v-.02l.01-.02.01-.01v-.02l.01-.01.01-.02v-.01l.01-.02.01-.01.01-.02v-.01l.01-.02.01-.01.01-.02.01-.01.01-.02v-.01l.01-.01v-.01l.01-.01.02-.04.03-.05.02-.04.03-.06.05-.06.05-.08.06-.08.05-.07.05-.06.06-.05.06-.07.08-.07.07-.06.09-.07.11-.06.1-.06.11-.06.12-.05.13-.04.12-.03.13-.03.12-.02.12-.01h.23l.1.01.1.01.08.02.09.02.07.01.07.02.06.02.06.02.05.02.05.02.05.03.05.02.07.03.06.04.06.03.04.02.02.01.01.01z" data-color="1"/>
        <path d="M199.88 13.05h.02l.05.04.09.06.08.06.08.07.07.07.07.07.07.07.06.07.05.07.05.07.04.07.04.07.04.06.03.06.03.06.02.05.02.05.02.02v.02l.03.02v.02l.03.02v.02l.03.02v.02l.03.02v.02l.03.02v.02l.03.02v.02l.02.02v.02l.02.02v.02l.02.02v.02l.02.02v.02l.02.02v.02l.02.02v.02l.02.02v.02l.02.02v.02l.02.02v.02l.01.02v.02l.01.02v.02l.01.02v.02l.01.02v.02l.01.02v.74l-.01.02v.02l-.01.02v.02l-.01.02v.02l-.01.02v.02l-.02.02v.02l-.02.02v.02l-.02.02v.02l-.02.02V16l-.02.02v.02l-.02.02v.02l-.02.02v.02l-.02.02v.02l-.02.02v.02l-.03.02v.02l-.03.02v.02l-.03.02v.02l-.03.02v.02l-.03.02v.02l-.03.02-.02.02-.02.02-.02.02-.02.02-.02.02-.02.02-.02.02-.02.02-.02.02-.02.02-.02.02-.02.02-.02.02-.02.02-.02.02h-.02l-.02.03h-.02l-.02.03h-.02l-.02.03h-.02l-.02.03h-.02l-.02.03h-.02l-.02.03h-.02l-.02.02h-.02l-.02.02h-.02l-.02.02h-.02l-.02.02h-.02l-.02.02h-.02l-.02.02h-.02l-.02.02h-.02l-.02.02h-.02l-.02.02h-.02l-.02.02h-.02l-.02.01h-.02l-.02.01h-.02l-.02.01h-.02l-.02.01h-.74l-.02-.01h-.02l-.02-.01h-.02l-.02-.01h-.02l-.02-.01h-.02l-.02-.02h-.02l-.02-.02h-.02l-.02-.02h-.02l-.02-.02h-.02l-.02-.02h-.02l-.02-.02h-.02l-.02-.02h-.02l-.02-.02h-.02l-.02-.02h-.02l-.04-.04-.06-.04-.06-.04-.06-.04-.06-.05-.06-.05-.06-.05-.05-.05-.05-.05-.05-.05-.05-.06-.05-.06-.04-.06-.04-.06-.04-.06-.04-.06-.04-.06-.03-.05-.03-.06-.03-.05-.03-.05-.02-.05-.02-.05-.02-.05-.02-.04-.02-.04v-.03h-.01v-.02l-.02-.02v-.02l-.02-.02v-.02l-.02-.02v-.02l-.02-.02v-.02l-.02-.02v-.02l-.02-.02v-.02l-.02-.02v-.02l-.02-.02v-.02l-.02-.02v-.02l-.02-.02v-.02l-.01-.02v-.02l-.01-.02v-.02l-.01-.02v-.02l-.01-.02v-.02l-.01-.02v-.7l.01-.02v-.02l.01-.02v-.02l.01-.02v-.02l.01-.02v-.02l.02-.02v-.02l.02-.02v-.02l.02-.02v-.02l.02-.02v-.02l.02-.02v-.02l.02-.02v-.02l.02-.02v-.02l.02-.02v-.02l.02-.02v-.02l.02-.02v-.02l.03-.02v-.02l.03-.02v-.02l.03-.02v-.02l.03-.02v-.02l.03-.02.02-.02v-.02l.03-.02.02-.02.02-.02.02-.02.02-.02.02-.02.02-.02.02-.02.02-.02.02-.02.02-.02.02-.02.02-.02.02-.02.02-.02h.02l.02-.03h.02l.02-.03h.02l.02-.03h.02l.02-.03h.02l.02-.03h.02l.02-.03h.02l.02-.02h.02l.02-.02h.02l.02-.02h.02l.02-.02h.02l.02-.02h.02l.02-.02h.02l.02-.02h.02l.02-.02h.02l.02-.02h.02l.02-.01h.02l.02-.01h.02l.02-.01h.02l.02-.01h.02l.02-.01h.7l.02.01h.02l.02.01h.02l.02.01h.02l.02.01h.02l.02.01h.02l.02.02h.02l.02.02h.02l.02.02h.02l.02.02h.02l.02.02h.02l.02.02h.02l.02.02h.02l.02.02h.02l.02.02Zm-2.1 3.34.03.02h-.02l-.02-.03h.01Zm2.55-2.65Z" fill="#f5ad3b" fill-rule="evenodd" data-color="1"/>
        <path d="M168.89.4h.02l.02.03h.02l.02.03h.02l.02.03h.02l.02.03h.02l.02.03.02.02.02.02.02.02.02.02.02.02.02.02.02.02.02.02.02.02.02.02.02.02.02.02.02.02.02.02.02.02.02.02.02.02v.02l.03.02v.02l.03.02v.02l.03.02v.02l.03.02v.02l.03.02v.02l.03.02v.02l.02.02v.02l.02.02v.02l.02.02v.02l.02.02v.02l.02.02v.02l.02.02v.02l.02.02v.02l.02.02v.02l.02.02v.02l.01.02v.02l.01.02v.02l.01.02v.02l.01.02v.02l.01.02v.7l-.01.02v.02l-.01.02v.02l-.01.02v.02l-.01.02v.02l-.01.02v.02l-.02.02v.02l-.02.02v.02l-.02.02v.02l-.02.02v.02l-.02.02v.02l-.02.02v.02l-.02.02v.02l-.02.02v.02l-.02.02v.02l-.03.02v.02l-.03.02v.02l-.03.02v.02l-.03.02v.02l-.03.02-.02.02-.02.02-.02.02-.02.02-.02.02-.02.02-.02.02-.02.02-.02.02-.02.02-.02.02-.02.02-.02.02-.02.02-.02.02-.02.02-.02.02-.02.02h-.02l-.02.03h-.02l-.02.03H169l-.02.03h-.02l-.02.03h-.02l-.02.03h-.02l-.02.02h-.02l-.02.02h-.02l-.02.02h-.02l-.02.02h-.02l-.02.02h-.02l-.02.02h-.02l-.02.02h-.02l-.02.02h-.02l-.02.02h-.02l-.02.02h-.02l-.02.01h-.02l-.02.01h-.02l-.02.01h-.02l-.02.01h-.25l-.02.02h-.02l-.02.02h-.02l-.02.02h-.02l-.02.02h-.02l-.02.01h-.02l-.02.01h-.02l-.02.01h-.02l-.02.01h-.02l-.02.01h-.7l-.02-.01h-.02l-.02-.01h-.02l-.02-.01h-.02l-.02-.01h-.02l-.02-.01h-.02l-.02-.02h-.02l-.02-.02h-.02l-.02-.02h-.02l-.02-.02h-.02l-.02-.02h-.02l-.02-.02h-.02l-.02-.02h-.02l-.02-.02h-.02l-.02-.02-.04-.03-.04-.03-.03-.02-.04-.02-.04-.03-.04-.03-.04-.03-.04-.03-.04-.03-.04-.04-.04-.04-.04-.04-.05-.04-.05-.05-.05-.05-.05-.06-.05-.06-.05-.07-.05-.08-.05-.09-.05-.1-.05-.1-.05-.12-.04-.13-.03-.13-.03-.15v-.16l-.02-.15v-.16l.03-.16.03-.16.05-.16.06-.15.06-.13.07-.13.09-.12.08-.1.08-.09.08-.08.08-.07.08-.06.07-.05.07-.05.07-.04.07-.04.06-.03.07-.03.06-.02.06-.03.09-.03.09-.03.09-.02.08-.02h.08l.07-.03h.07l.07-.02h.7l.05.01h.05l.05.02h.05l.06.02h.06l.06.02h.06l.06.03.06.02.06.02.06.02.07.02.07.03.07.03.08.04.08.04.05.03h.02l.02.02h.02Zm-2 3.41h.02v.01h-.02Z" fill="#f5ad3b" fill-rule="evenodd" data-color="1"/>
        <path d="M214.91 85.4a.362.362 0 0 1-.18-.28c-1.03-9.06-18.3-15.74-18.47-15.81a.37.37 0 0 1-.17-.13C176.83 41.81 162.64 46 162.5 46.04c-.19.06-.4-.04-.47-.24-.06-.19.04-.4.24-.47.15-.05 3.78-1.19 9.87 1.15 5.55 2.13 14.3 7.71 24.49 22.17 1.62.63 17.79 7.15 18.84 16.37.02.2-.12.39-.33.41-.08 0-.16 0-.23-.05Z" fill="#f5ad3b" data-color="1"/>
        <path d="M215.38 81.86h.02l.02.02h.02l.02.02h.02l.02.02h.02l.02.02h.02l.02.02h.02l.02.02h.02l.02.02h.02l.01.03h.01l.01.03h.01l.01.03h.01l.01.03h.01l.01.03h.01l.01.03h.01l.01.03h.01l.01.03h.01v.02l.02.01h.02l.02.02h.02l.02.02h.02l.02.02h.02l.02.02h.01l.01.03h.01l.01.03h.01l.01.03h.01l.01.03h.01l.01.03h.01l.01.03h.01l.01.03h.01l.01.03h.01l.01.03v.02l.02.01v.02l.02.02v.02l.02.02v.02l.02.02v.02l.02.02v.02l.02.02v.02l.02.02v.02l.02.02v.02l.02.02v.02l.02.02v.02l.02.02v.02l.02.02v.02l.02.02v.02l.02.02v.02l.02.02v.02l.01.02v.02l.01.02v.02l.01.02v.02l.01.02v.02l.01.02v.02l.01.02v.02l.01.02v1.1l-.01.02v.02l-.01.02v.02l-.01.02v.02l-.01.02v.02l-.01.02v.02l-.01.02v.02l-.01.02v.02l-.02.02v.02l-.02.02v.02l-.02.02v.02l-.02.02v.02l-.02.02v.02l-.02.02v.02l-.02.02v.02l-.02.02v.02l-.02.02v.02l-.02.02v.02l-.02.02v.02l-.02.02v.02l-.02.02v.02l-.02.02v.02l-.02.02h-.01l-.01.03h-.01l-.01.03h-.01l-.01.03h-.01l-.01.03h-.01l-.01.03h-.01l-.01.03h-.01l-.01.03h-.01l-.01.03h-.01l-.01.03H216l-.02.02h-.02l-.02.02h-.02l-.02.02h-.02l-.02.02h-.02l-.02.02h-.02l-.02.02h-.02l-.02.02h-.02l-.02.02h-.02l-.02.02h-.02l-.02.02h-.02l-.02.02h-.02l-.02.02h-.02l-.02.02h-.02l-.02.02h-.02l-.02.02h-.02l-.02.01h-.02l-.02.01h-.02l-.02.01h-.02l-.02.01h-.02l-.02.01h-.02l-.02.01h-.02l-.02.01h-1.06l-.02-.01h-.02l-.02-.01H214l-.02-.01h-.02l-.02-.01h-.02l-.02-.01h-.02l-.02-.01h-.02l-.02-.02h-.02l-.02-.02h-.02l-.02-.02h-.02l-.02-.02h-.02l-.02-.02h-.02l-.02-.02h-.02l-.02-.02h-.02v-.01l-.06-.03-.05-.03-.04-.02-.04-.02-.04-.03-.05-.03-.05-.03-.05-.04-.06-.04-.06-.05-.06-.05-.07-.06-.07-.07-.07-.07-.07-.08-.06-.08-.04-.05-.03-.05-.03-.05-.03-.05-.03-.05-.03-.05-.03-.05-.03-.05-.02-.05-.02-.05-.02-.05-.02-.06-.02-.05-.02-.05v-.05l-.02-.03V83.3l.01-.02v-.02l.01-.02v-.02l.01-.02v-.02l.01-.02v-.02l.01-.02v-.02l.01-.02v-.02l.01-.02v-.02l.02-.02v-.02l.02-.02v-.02l.02-.02v-.02l.02-.02v-.02l.02-.02v-.02l.02-.02v-.02l.02-.02v-.02l.02-.02v-.02l.02-.02v-.02l.02-.02v-.02l.02-.02v-.02l.02-.02v-.02l.02-.02v-.02l.02-.02v-.02l.02-.02v-.02l.03-.01h.01l.01-.03h.01l.01-.03h.01l.01-.03h.01l.01-.03h.01l.01-.03h.01l.01-.03h.01l.01-.03h.01l.01-.03h.02l.01-.03h.02l.02-.02h.02l.02-.02h.02l.02-.02h.02l.02-.02h.02l.02-.02h.02l.02-.02h.02l.02-.02h.02l.02-.02h.02l.02-.02h.02l.02-.02h.02l.02-.02h.02l.02-.02h.02l.02-.02h.02l.02-.02h.02l.02-.02h.02l.02-.01h.02l.02-.01h.02l.02-.01h.02l.02-.01h.02l.02-.01h.02l.02-.01h.02l.02-.01h1.06l.02.01h.02l.02.01h.02l.02.01h.02l.02.01h.02l.02.01h.02l.02.01h.02l.02.01h.02l.02.02h.02l.02.02h.02l.02.02h.02l.02.02h.02l.02.02h.02l.02.02h.02l.02.02h.02Zm.88 1.18v-.01Z" fill="#f5ad3b" fill-rule="evenodd" data-color="1"/>
        <path d="M162.02 44.04h.02l.02.02h.02l.02.02h.02l.02.02h.02l.02.02h.02l.02.02h.02l.02.02h.02l.02.02h.02l.02.02h.01l.01.03h.01l.01.03h.01l.01.03h.01l.01.03h.01l.01.03h.01l.01.03h.01l.01.03h.01l.01.03v.02l.03.01h.01l.01.03v.02l.02.02v.02l.02.02v.02l.02.02v.02l.02.02v.02l.02.02v.02l.02.02v.02l.02.02v.02l.02.02v.02l.02.02v.02l.02.02v.02l.02.02v.02l.02.02V45l.02.02v.02l.02.02v.02l.01.02v.02l.01.02v.02l.01.02v.02l.01.02v.02l.01.02v.02l.01.02v.02l.01.02v1.06l-.01.02v.53l-.01.02v.02l-.01.02v.02l-.01.02v.02l-.01.02v.02l-.01.02v.02l-.01.02v.02l-.01.02v.02l-.02.02v.02l-.02.02v.02l-.02.02v.02l-.02.02v.02l-.02.02v.02l-.02.02v.02l-.02.02v.02l-.02.02v.02l-.02.02v.02l-.02.02v.02l-.02.02v.02l-.02.02v.02l-.02.02v.02l-.02.02v.02l-.02.02h-.01l-.01.03h-.01l-.01.03h-.01l-.01.03h-.01l-.01.03h-.01l-.01.03h-.01l-.01.03h-.01l-.01.03h-.01l-.01.03h-.01l-.02.03h-.02l-.02.02h-.02l-.02.02h-.02l-.02.02h-.02l-.02.02h-.02l-.02.02h-.02l-.02.02h-.02l-.02.02h-.02l-.02.02h-.02l-.02.02h-.02l-.02.02h-.02l-.02.02h-.02l-.02.02h-.02l-.02.02h-.02l-.02.02h-.02l-.02.01h-.02l-.02.01h-.02l-.02.01h-.02l-.02.01h-.02l-.02.01h-.02l-.02.01h-.02l-.02.01h-.02l-.02.01h-1.06l-.02-.01h-.02l-.02-.01h-.02l-.02-.01h-.02l-.02-.01h-.02l-.02-.01h-.02l-.02-.01h-.02l-.02-.01h-.02l-.02-.02h-.02l-.02-.02h-.02l-.02-.02h-.02l-.02-.02h-.02l-.02-.02h-.02l-.02-.02h-.02l-.02-.02h-.02l-.03-.03-.05-.03-.05-.03-.05-.03-.05-.03-.05-.04-.05-.04-.05-.04-.05-.04-.05-.05-.05-.05-.05-.06-.05-.06-.06-.07-.06-.07-.05-.07-.05-.08-.05-.09-.05-.1-.05-.1-.04-.11-.04-.12-.03-.12-.03-.12-.02-.13v-.14l-.01-.14v-.14l.02-.14.02-.13.03-.14.04-.12.05-.12.05-.12.06-.11.06-.1.06-.09.06-.08.06-.08.06-.07.06-.06.06-.06.06-.06.06-.05.06-.04.06-.04.06-.04.06-.04.05-.03.05-.03.05-.03.05-.03.05-.02.05-.02.05-.02.04-.02.05-.02.04-.02.04-.02h.04l.04-.03h.04l.04-.02h.03l.02-.01h1.02l.02.01h.02l.02.01h.02l.02.01h.02l.02.01h.02l.02.01h.02l.02.01h.02l.02.01h.02l.02.01h.02l.02.02h.02l.02.02h.02l.02.02h.02l.02.02h.02l.02.02h.02l.02.02h.02l.02.02Zm-.52 3.6Z" fill="#f5ad3b" fill-rule="evenodd" data-color="1"/>
    </g>
</svg>
