<?xml version="1.0" encoding="UTF-8"?>
<svg data-bbox="0 0 292.313 329.73" viewBox="0 0 292.32 329.71" xmlns="http://www.w3.org/2000/svg" data-type="color">
    <g>
        <path d="M137.01 258.98c.13 10.12.12 21.3 6.95 29.42 3.44 4.43 8.89 7.55 14.5 6.67 5.87-.63 9.32-5.02 10.09-10.7 1.01-6.22-.95-12.48-1.57-18.67-.42-4.6-.81-9.1.44-13.74.29-.98 1.31-1.54 2.29-1.26.94.27 1.49 1.23 1.29 2.17-.86 6.03.64 12.47 1.84 18.45 1.59 6.88 2.25 14.37-1.15 20.91-3.57 7.16-12.66 9.85-20.03 7.81-8.37-2.34-14.08-9.95-16.75-17.74-2.32-7.59-2.15-15.71-1.59-23.49.24-2.33 3.68-2.17 3.69.17Z" fill="#f5ad3b" data-color="1"/>
        <path d="M173.8 183.19c-.89-6.57 4.09-9.61 8.47-10.2 4.38-.59 9.1 2.49 9.77 7.46.63 4.67-1.45 9.74-7.36 10.53-4.6.62-10.06-1.66-10.88-7.79Z" fill="#f5ad3b" data-color="1"/>
        <path d="M87.2 194.8c-.89-6.57 4.09-9.61 8.47-10.2s9.1 2.49 9.77 7.46c.63 4.67-1.45 9.74-7.36 10.53-4.6.62-10.06-1.66-10.88-7.79Z" fill="#f5ad3b" data-color="1"/>
        <path d="M269.55 210.52c.02-9.36-1.29-18.84-2.43-28.13-.27-1.75 1.33-3.31 3.06-3.04 4.33 1.12 7.87 4 11.28 6.71 1.04.87 2.05 1.77 3.05 2.68l-2.9 2.08c-6.78-16.62-15.74-32.54-27.36-46.24-1.66-1.87-3.39-3.76-5.18-5.22a2.737 2.737 0 0 1-.39-3.97c.48-.54 1.13-.85 1.8-.91 1.64-.14 3.32-.16 4.96-.04 4.78.33 9.44 1.69 13.86 3.24l-2.19 2.59c-6.11-11.74-17.67-20.31-30.55-22.98-4.25-.88-8.62-1.1-12.8-.49-2.67.45-4.25-2.88-2.35-4.68 5.8-5.66 10.98-12.64 13.41-20.43 0-.04 2.99 1.87 2.99 1.85-7.19 5.93-19.86 10.53-29.29 10.11a2.669 2.669 0 0 1-2.53-2.82c.03-.5.19-.95.45-1.34.82-1.26 1.56-2.76 2.22-4.28 1.93-4.56 3.5-9.66 3.78-14.54l3.24 1.2c-.77.86-1.54 1.53-2.31 2.12-5.31 3.98-11.27 6.87-17.44 9.28-3.52 1.31-7.26 2.4-11.23 2.76-3.87.33-7.54.23-11.23.17-18.11-.5-36.24-1.26-54.04 2.31-7.05 1.4-13.94 3.4-20.73 5.8-5.22 1.81-10.35 3.97-15.83 5.34-5.49 1.09-11.18 1.36-16.76 1.79-7.52.32-14.99.57-22.46-1.12l1.94-2.83c3.3 4.19 7.34 8.57 11.85 11.28 2.19 1.32 1.36 4.78-1.11 5.05-1.54.13-3.33.67-4.93 1.3-3.75 1.57-7.22 3.68-10.56 6.07-4.65 3.42-9.5 7.56-12.33 12.52l-2.24-2.55c6.57-2.6 13.89-5.02 21.15-4.48 2.76.02 3.67 3.71 1.37 5.07-17.13 11.44-31.78 28.39-38.11 48.23l-3.02-1.86c2.6-2.52 5.3-5.05 8.57-7.11 3.18-2.03 6.78-3.37 10.24-4.65 2.41-.93 4.63 1.9 3.26 4.01-5.08 8.47-7.42 17.96-8.67 27.77-1.31 10.04-2.73 20.39-6.2 30.03l-.01.04-3.22-1.71a95.85 95.85 0 0 1 7.04-8.9c2.31-2.68 5.2-5.44 7.3-8.13 1.82-2.31 5.47-.49 4.87 2.27-.94 3.93-.97 8.37-1.11 12.41.07 12.55.53 25.77 4.74 37.65.41.95-.05 2.07-1.02 2.45-.93.36-1.98-.08-2.37-.98-1.83-4.23-2.87-8.55-3.74-12.88-2.14-11.92-3.25-24.14-2.43-36.25.06-.58.11-1.14.19-1.74l.33-1.84 4.83 2.43c-5.32 5.41-10.99 9.83-15.68 15.74-.65.8-1.83.91-2.63.25-.6-.5-.81-1.29-.59-1.99 1.49-4.72 2.58-9.55 3.35-14.46 1.61-10.02 1.71-20.27 4.37-30.24a64.76 64.76 0 0 1 5.84-14.65l3.26 4.01c-3.34.92-6.6 1.8-9.63 3.37-2.96 1.52-5.76 3.69-8.5 5.94-.79.64-1.94.53-2.58-.26-.39-.48-.5-1.12-.34-1.68 2.88-10.68 8.38-20.36 14.99-29.12 6.63-8.69 14.53-16.45 23.61-22.75l1.34 5.07c-6.82-1.09-13.19.61-19.79 2.51a1.818 1.818 0 0 1-2.07-2.63c1.51-3.15 3.6-5.66 5.78-8.04 4.44-4.72 9.44-8.73 15.05-12.01 3.07-1.74 6-3.16 9.63-3.72l-1.26 5.07c-3.87-2.92-6.66-6.34-9.39-10.11-.87-1.23-1.68-2.43-2.49-3.75-.86-1.33.42-3.18 1.97-2.82 6.92 1.17 14.25.72 21.29.13 4.86-.44 9.89-.95 14.7-1.77 9.12-2.42 17.67-6.74 27.01-9.22 7.15-2.09 14.49-3.62 21.91-4.47 14.71-1.64 29.56-.96 44.22-.29 3.62.14 7.27.31 10.7.09 8.57-.8 17.09-4.62 24.58-8.87 1.43-.87 2.99-1.86 4.11-2.99 1.08-1.12 3.18-.26 3.13 1.32.13 3.83-.44 7.47-1.24 11.05-.89 3.7-1.89 7.15-3.69 10.62l-2.06-4.17c1.99.28 4.33.15 6.63-.17 6.83-1.09 14.07-3.22 19.69-7.29a1.85 1.85 0 0 1 2.92 1.92c-1.01 4.47-2.86 8.64-5.1 12.52-2.25 3.89-4.89 7.5-7.93 10.87l-2.35-4.68c19.48-2 39.06 9.87 47.4 27.32.7 1.4-.7 3.07-2.2 2.59-4.28-1.02-8.56-1.82-12.9-1.69-1.39.04-2.75.2-4.11.46 0 0 1.41-4.89 1.42-4.87 4.18 3.76 7.28 7.94 10.51 12.4 9.12 12.97 16.43 27.15 21.92 42 .57 1.74-1.38 3.26-2.9 2.08-3.54-2.53-7.28-5-11.39-6.42-.39-.12-.76-.23-1.14-.3-.07-.01-.27-.04-.16-.01l3.16-3.03c.55 9.68 1.28 19.25.61 28.96-.32 2.35-3.72 2.14-3.69-.25Z" fill="#f5ad3b" data-color="1"/>
        <path d="M177.98 207.83c7.56-8.65 17.93-14.95 29.3-16.96 7.4-1.42 15.11-.81 22.43-.63 7.12.31 13.84-1.84 20.54-4.11 3.38-1.17 6.81-2.5 9.88-4.03 1.42-.83 3.23.69 2.67 2.22-2.9 8.83-7.73 17.27-15.06 23.69-.01.04-1.95-4.91-1.95-4.91 4.4-.13 8.23.84 11.95 1.78 10.62 2.88 21.52 6.56 32.47 5.36 1.39-.2 2.54 1.32 1.94 2.6-1.07 2.45-2.47 4.8-4.22 6.89-5.3 6.35-13.47 9.73-21.65 10.11l1.99-4.68c7.92 9.54 9.24 24.91 8.3 36.72-.43 4.17-1.18 8.37-3.03 12.41-.39.94-1.46 1.38-2.39.99-.57-.24-.95-.73-1.07-1.29-.96-4.51-2.17-8.98-3.68-13.28-1.43-3.98-3.21-8.32-5.84-11.48-.04-.02 4.92-1.74 4.92-1.75-.59 17.85-8.93 44.63-23.3 55.99-1.29 1.09-3.29-.12-2.94-1.77.58-5.29.47-10.46-.8-15.62l5.27.65c-5.1 10.31-13.4 18.48-22.75 24.93-3.16 2.07-6.49 3.94-10.34 5.06-.96.32-2-.2-2.3-1.17-.13-.4-.1-.79.01-1.17 2.36-8.86 3.36-18.28 2.43-27.38-.72-14.44-14.45-21.76-26.55-26.44-4.33-1.74-8.81-3.24-13.29-4.88-6.78-2.57-14.1-4.81-19.89-9.64-1.28-1.09-2.49-2.43-3.29-3.95-.48-.9-.9-2.04-1.13-3.04-.29-.98.26-2 1.24-2.29.98-.29 2.01.27 2.3 1.25 2.08 7.23 15.78 10.42 22.42 12.84 4.52 1.43 9.07 2.94 13.61 4.65 9.22 3.56 18.65 8.04 24.76 16.38 8.22 11.19 5.17 31.36.9 43.64l-2.27-2.34c11.54-4.3 24.22-17.54 29.1-28.79a2.727 2.727 0 0 1 5.23.77c.34 2.85.46 5.8.25 8.69-.2 2.89-.68 5.69-1.27 8.44.01-.01-2.99-1.76-2.93-1.78 12.89-11.01 19.91-36.47 19.98-53.04a2.723 2.723 0 0 1 2.69-2.88c.92 0 1.75.46 2.25 1.16 3.04 4.22 4.52 8.78 5.92 13.57 1.28 4.59 2.2 9.22 2.89 13.88l-3.49-.46c3.87-10.44 2.63-23.76-.71-34.26-1.23-3.6-2.92-7.08-5.23-9.52-1.7-1.66-.33-4.75 2-4.68 9.14.25 18.52-4.54 22.55-12.99-.01 0 1.97 2.62 1.91 2.6-11.55 1.76-23.07-1.53-34.16-4.08-3.58-.78-7.21-1.43-10.35-1.19-1.53.11-2.86-1.03-2.97-2.55-.07-.95.34-1.82 1.03-2.37 6.82-5.16 11.85-12.67 15.07-20.63 0 0 2.7 2.23 2.66 2.23-8.33 4.74-17.05 8.22-26.5 9.87-5.58.71-11.33.16-16.76.26-7.11 0-13.97 1.14-20.42 3.78-6.44 2.59-12.34 6.55-17.73 11.25-1.72 1.5-4.12-.88-2.61-2.62Z" fill="#f5ad3b" data-color="1"/>
        <path d="M109.18 223.07c-11.15-6.27-24.3-4.37-35.29 1.31-5.76 2.76-11.35 6.09-16.94 9.5-5.81 3.46-11.14 7.2-17.61 9.7l-.14-3.49c2.61.62 5.25.93 7.89.92 2.65 0 5.31-.32 7.98-.79 2.79-.42 4.29 3.22 2.09 4.89-6.96 5.49-12.25 12.36-16.88 19.96-4.69 7.83-10.45 15.84-18.37 20.83l-.68-3.34c5.24.77 10.73.2 15.87-1.12 1.72-.44 3.43-1 4.98-1.64 1.4-.57 2.99.11 3.55 1.51.16.41.22.83.19 1.24-.67 10.73 1.3 23.28 8.07 31.92l-3.16 1c.48-5.16 1.69-10.46 5.15-14.68a2.7 2.7 0 0 1 3.8-.4c.5.41.8.95.93 1.53 2.5 11.1 9.67 21.02 20.92 24.17l-2.29 2.2c-1.46-4.71-2.28-9.89-1.27-14.87a2.677 2.677 0 0 1 4.8-1.14c2.89 3.63 7.08 6.42 11.59 8.49 4.54 2.07 9.47 3.51 14.47 4.3l-1.93 2.56c-5.73-12.19-8.26-27.58-2.38-40.31 5.9-12.45 17.86-20.73 27.78-29.2 6.05-5.28 12.99-11.38 14.25-19.61a1.85 1.85 0 0 1 2.1-1.6c.96.14 1.64 1 1.58 1.96-.31 4.8-2.52 9.31-5.32 13.09-10.58 13.87-27.66 22-35.4 37.72-5.23 11.41-3.25 24.82.78 36.51.56 1.27-.57 2.77-1.95 2.56-10.8-1.21-22.17-4.63-29.81-12.87l4.8-1.12c-.65 1.96-1 4-1.05 6.13-.05 2.13.18 4.34.54 6.57.24 1.03-.44 2.08-1.5 2.25-.28.04-.55.02-.81-.05-3.06-.76-6.05-1.94-8.82-3.56-8.4-4.8-13.83-13.7-16.46-22.72l4.72 1.15c-3.11 2.9-4.64 7.3-5.59 11.51-.15 1.51-2.2 2.17-3.17.99-8.1-9.07-11.08-22.86-10.93-34.76l3.73 2.75c-3.88 1.23-7.72 1.84-11.72 2.1-3.93.22-7.91 0-11.8-.91-1.5-.3-1.96-2.42-.72-3.31 3.57-2.54 6.73-5.55 9.4-9 5.44-7.12 9.05-15.65 14.73-22.83 2.87-3.72 6.16-7.14 9.72-10.22 0 0 2.11 4.91 2.08 4.89-5.84.42-12.03-.05-17.57-2.1a1.886 1.886 0 0 1-1.14-2.41c.18-.5.55-.88 1-1.08 2.72-1.28 5.46-3.06 8.16-4.86 11.01-7.28 22.13-15.58 34.83-19.7 10-3.27 21.9-2.26 30.28 4.46 1.77 1.47-.14 4.18-2.1 3.04Z" fill="#f5ad3b" data-color="1"/>
        <path d="M143.76 212.58c13.07-1.89 21.89 2.79 22.67 8.67 1.04 7.73-5.65 15.76-18.02 17.42-12.37 1.66-20.8-3.35-21.76-10.46-.95-7.11 7.32-14.21 17.1-15.63Z" fill="#f5ad3b" data-color="1"/>
        <path d="M143.49 210.77c8.88-1.28 23.34-.91 25.69 10.21 1.59 17.08-20.2 23.67-33.66 19.72-5.67-1.55-11.29-6.31-11.62-12.66-.29-10.26 10.81-15.93 19.58-17.26Zm.53 3.63c-6.55.87-16.24 6.74-14.44 14.33.87 3.08 3.93 5.43 7.59 6.52 9.82 2.96 26.98-1.02 26.51-13.56-.17-1.48-1.07-2.76-2.29-3.77-4.66-3.79-11.52-4.3-17.38-3.51Z" fill="#f5ad3b" data-color="1"/>
        <path d="M152.64 251.68c-.03 9.87 2.03 20 3.37 29.86.29 2.11-2.66 2.96-3.54 1.04-3.25-7.34-4.65-15.38-4.61-23.4.06-2.7.32-5.44 1.15-8.15a1.858 1.858 0 0 1 3.63.65Z" fill="#f5ad3b" data-color="1"/>
        <path d="M105.13 303.37c1.31.32 2.52 1.72 3.55 2.48 3.45 2.7 7.24 4.88 11.19 6.84 5.29 2.65 10.87 4.78 16.52 6.92l-2.37 2.27c-1.52-3.9-2.01-8.37-1.3-12.54.27-1.87 2.55-2.84 4.09-1.77 1.99 1.34 4.04 2.56 6.11 3.72 5.93 3.18 12.9 5.89 19.54 5.29 7.55-.94 14.96-6.06 20.09-11.74.82-.95 1.43-1.87 1.94-2.78a2.664 2.664 0 0 1 3.67-.86c.64.39 1.05 1.02 1.2 1.7.75 3.7 1.47 7.41.52 11.27l-2.84-1.88c2.35-1.75 4.71-3.69 6.97-5.69 6.2-5.66 12.88-11.42 16.8-18.92.22-.43.78-.76 1.29-.98 1.04-.52 2.3-.1 2.83.94.83 1.9-.94 3.72-1.78 5.24-4.49 6.57-10.4 11.87-16.45 16.9-2.44 1.95-4.88 3.84-7.59 5.57-.87.55-2.02.3-2.57-.57-.26-.41-.33-.87-.27-1.32.16-2.96-1.04-6.11-2.19-8.93l5.06.54c-1.7 2.58-3.55 4.3-5.53 5.99-3.93 3.35-8.23 6.1-13 8.12-9.82 4.42-20.96 1.09-30-3.38-2.27-1.08-4.46-2.28-6.64-3.48l4.15-1.73c-1.12 3.32-1.27 6.77-.55 10.23.27 1.04-.39 2.11-1.45 2.32-.32.06-.64.04-.92-.05-2.9-.88-5.81-1.85-8.7-2.89-5.81-2.15-11.5-4.66-16.76-8.03-1.33-.85-2.62-1.76-3.88-2.72-1.19-1.03-2.66-1.84-3.31-3.47-.66-1.6.98-3.25 2.58-2.64Z" fill="#f5ad3b" data-color="1"/>
        <path d="M189.16 91.33c3.01-6.1 6.58-11.76 10.35-17.27 7.73-10.98 16-21.42 25.91-30.61 6.23-5.43 14.18-12.55 20.14-2.22 9.3 16.78 12.61 50.62 9.64 69.55-.56 3.38-1.33 6.76-2.72 10.08a2.308 2.308 0 0 1-3.02 1.24 2.315 2.315 0 0 1-1.26-2.98c1.11-2.81 1.78-5.92 2.22-9.07 1.92-16.01.06-32.46-3.33-48.18-1.44-6.02-3.16-12.51-6.23-17.76-.58-.95-1.45-2.14-2.28-2.61-.13-.04-.2-.11-.24-.07-.1-.01-.22.02-.34.04-3.27.99-6.07 3.59-8.91 6.03-9.47 8.74-17.83 19.01-25.42 29.47-3.8 5.3-7.43 10.75-10.4 16.43-1.42 2.62-5.4.66-4.12-2.09Z" fill="#f5ad3b" data-color="1"/>
        <path d="M68.39 110.42c-10.76-9.63-42.75-30.9-56.54-31.94-.82 0-1.66.06-2.38.38-1.05.7-1.57 2.08-2.16 3.74-5.49 20.11 1.74 63.24 13.03 80.9.4.73 1.06 1.25 1 2.31 0 1.31-1.11 2.37-2.42 2.29-1.31-.06-1.93-1.2-2.5-2.08-1.48-2.26-2.78-4.65-3.95-7.07C5.05 142.87 1.6 125.28.3 107.72c-.38-8.89-1.39-25.43 4.86-32.47 9.12-9.23 41 12.81 49.88 18.76 4.32 3.01 8.55 6.14 12.61 9.51 1.37 1.14 2.7 2.29 4.04 3.66.89.91.88 2.37-.03 3.27-.91.89-2.37.87-3.26-.03Z" fill="#f5ad3b" data-color="1"/>
        <path d="M124.25 81.67c-7.15 2-16.38 3.25-28.3 3.04a2.817 2.817 0 0 1-2.77-2.87c.03-1.56 1.31-2.8 2.87-2.77 22.47.4 34.09-4.64 39.88-8.94 5.56-4.12 6.84-8.23 7.04-9.01 1.04-15 1.1-26.34.19-33.72-.94-7.58-2.65-8.51-2.66-8.51-.01 0-2.05.06-6.37 6.7-2.61 4-4.56 8.14-4.58 8.18a2.833 2.833 0 0 1-2.74 1.62 2.823 2.823 0 0 1-2.51-1.96c-6.01-18.79-9.72-18.75-9.76-18.75-1.96.14-5.23 8.13-6.6 16.14a2.801 2.801 0 0 1-2.02 2.24c-1.05.29-2.18-.05-2.89-.88C92.49 19.94 89.2 21.3 89.07 21.37c-2.51 1.19-2.68 11.71-1.15 20.31.19 1.09-.27 2.19-1.17 2.82-.91.63-2.1.67-3.05.1-9.39-5.59-12.74-6.01-13.67-5.98-.04 1.1.61 5.58 9.81 19.22 3.79 5.61 7.75 10.88 10.01 13.82 12.11-10.91 24.15-13.63 32.32-13.93 9.5-.35 15.95 2.38 16.22 2.5 1.43.62 2.09 2.28 1.47 3.71a2.823 2.823 0 0 1-3.7 1.48c-.92-.39-22.71-9.27-44.64 12.43a2.821 2.821 0 0 1-4.19-.25c-.07-.08-6.82-8.57-12.87-17.65-11.71-17.6-11-22.6-8.75-25.17 2.58-2.96 7.33-2.37 15.91 2.16-.15-1.59-.28-3.4-.32-5.25-.18-8.58 1.57-13.62 5.35-15.42 4.22-2 9.65.58 16.92 8.1 1.64-6.37 4.89-14.93 10.59-15.33 4.82-.34 9.04 4.79 13.39 16.46a69.77 69.77 0 0 1 2.02-3.27c2.9-4.41 7.35-10.12 12.35-8.82 4.88 1.27 9.49 8 6.67 48.3 0 .1-.02.2-.04.31-.13.72-2.78 13.61-24.3 19.64Z" fill="#f5ad3b" data-color="1"/>
        <path d="M61.92 28.14h.02l.02-.01h1.06l.02.01h.02l.02.01h.02l.02.01h.02l.02.01h.02l.02.01h.02l.02.01h.02l.02.02h.02l.02.02h.02l.02.02h.02l.02.02h.02l.02.02h.02l.02.02h.02l.02.02h.02l.02.02h.02l.02.02h.02l.02.02h.02l.02.02h.02l.02.02h.02l.02.02h.02l.02.02h.02l.02.02h.02l.02.03h.02l.02.03h.02l.02.03h.02l.02.03h.02l.02.03h.02l.02.03h.02l.02.03h.02l.01.03h.02l.02.03.02.02v.02l.03.02v.02l.03.02v.02l.03.02v.02l.03.02v.02l.03.02V29l.03.02v.02l.03.02v.02l.03.02v.02l.02.02v.02l.02.02v.02l.02.02v.02l.02.02v.02l.02.02v.02l.02.02v.02l.02.02v.02l.02.02v.02l.02.02v.02l.02.02v.02l.02.02v.02l.02.02v.02l.02.02v.02l.02.02v.02l.01.02v.02l.01.02v.02l.01.02v.02l.01.02v.02l.01.02v.02l.01.02v.02l.01.02v.16l.01.02v.02l.01.02v.02l.01.02v.02l.01.02v.02l.01.02v.02l.02.06.03.12.02.14.02.17v.56l-.02.09-.05.19-.03.1v.02l-.01.02v.02l-.02.02v.02l-.02.02v.02l-.02.02v.02l-.02.02v.02h-.01v.02l-.02.02v.02l-.02.02v.02l-.02.02v.02l-.02.02v.02l-.02.02v.02l-.02.02v.02l-.02.02-.01.02v.02l-.02.02v.02l-.02.02v.02l-.02.02v.02l-.02.02v.02l-.02.02v.02l-.03.02v.02l-.03.02-.01.02v.02l-.03.02v.02l-.03.02v.02l-.03.02v.02l-.03.02-.02.02-.02.02h-.02l-.02.03h-.02l-.02.03-.02.02h-.02l-.02.03h-.02l-.02.03h-.02l-.02.03h-.02l-.02.03h-.02l-.02.03h-.02l-.02.02h-.02l-.02.02h-.02v.01h-.02l-.02.02h-.02l-.02.02h-.02l-.02.02h-.02l-.02.02h-.02l-.02.02h-.02l-.02.02h-.02l-.02.02h-.02l-.02.02h-.04l-.02.02h-.02l-.02.02h-.02l-.02.02h-.02l-.02.02h-.02l-.02.02h-.02l-.02.01h-.02l-.02.01h-.02l-.02.01h-.04l-.02.01h-.02l-.02.01h-.02l-.02.01h-1.12l-.02-.01h-.04l-.02-.01h-.02l-.02-.01h-.02l-.02-.01h-.02l-.02-.01h-.02l-.02-.01h-.02l-.02-.01h-.02v-.01h-.02l-.02-.02h-.02l-.02-.02h-.02l-.02-.02h-.02l-.02-.02h-.02l-.02-.02h-.02l-.08-.05-.14-.09-.11-.08-.09-.07-.08-.07-.07-.06-.06-.06-.05-.05-.05-.05-.04-.05-.04-.05-.04-.05-.04-.05-.04-.05-.03-.05-.03-.05-.03-.05-.03-.05-.03-.06-.03-.06-.03-.06-.03-.06-.03-.07-.03-.07-.03-.07-.03-.08-.03-.09-.03-.09-.02-.1-.02-.11-.02-.12v-.13l-.02-.14v-.31l.02-.17.03-.16.03-.12.03-.09.04-.1.04-.1.05-.1.05-.1.06-.1.06-.1.07-.1.07-.1.08-.09.08-.09.09-.08.09-.08.09-.07.09-.07.09-.06.09-.05.1-.05.1-.04.09-.04.09-.03.09-.03.05-.02h.02l.02-.01h.02Zm1.31 4.46h-.02l-.02.01h.03l.02-.02h-.01Zm-2.85-1.25v.03-.04Z" fill="#f5ad3b" fill-rule="evenodd" data-color="1"/>
        <path d="M83 8.41h1.66l.02.01h.02l.02.01h.02l.01.01h.02l.02.01h.02l.01.01h.02l.02.01h.02l.02.01h.01l.01.01h.02l.01.01h.01l.01.01h.01l.01.01H85l.01.01h.01l.01.01h.01l.01.02h.01l.01.02h.01l.01.02h.01l.01.02h.01l.01.02h.01l.01.02h.01l.01.02h.01l.01.02h.01l.01.02h.01l.01.02h.01l.01.02h.01l.01.02h.01l.01.02h.01l.01.02h.01l.01.02h.01l.01.02h.01l.01.02h.01l.01.02h.01l.01.02h.01l.01.02h.01l.01.02h.01l.01.02h.01l.01.02h.01l.01.02h.01l.01.02h.01l.01.02h.01l.01.02h.01l.01.02h.01l.01.02h.01v.03h.01v.56l.01.01v.02l.01.02v.05l.01.02v.05l.01.02v.05l.01.02v.14l.02.06.02.11.02.11v.11l.02.11v.36l-.02.12-.02.12-.03.12-.03.12-.04.12-.05.12-.05.11-.06.11-.06.11-.07.11-.08.11-.08.1-.08.09-.09.09-.09.09-.1.08-.1.07-.1.07-.11.06-.11.06-.11.05-.11.04-.11.04-.12.03-.12.03-.12.02-.12.02h-.13l-.12.02h-.36l-.12-.03-.12-.02-.12-.03-.12-.04-.12-.04-.12-.05-.12-.06-.11-.06-.11-.07-.1-.07-.1-.08-.1-.08-.09-.09-.08-.09-.08-.09-.08-.1-.07-.1-.06-.1-.06-.1-.05-.1-.05-.1-.04-.1-.04-.1-.02-.05V9.71l.01-.02v-.02l.01-.02v-.02l.01-.02v-.02l.01-.02v-.02l.01-.02v-.02l.01-.02v-.02l.01-.01v-.02l.01-.02v-.05l.01-.01v-.45h.01v-.03H81l.01-.03.01-.02h.01l.01-.02h.01l.01-.02h.01l.01-.02h.01l.01-.02h.01l.01-.02h.01l.01-.02h.01l.01-.02h.01l.01-.02h.01l.01-.02h.01l.01-.02h.01l.01-.02h.01l.01-.02h.01l.01-.02h.01l.01-.02h.01l.01-.02h.01l.01-.02h.01l.01-.02h.01l.01-.02h.01l.01-.02h.01l.01-.02h.01l.01-.02h.01l.01-.02h.01l.01-.02h.01l.01-.02h.01l.01-.02h.01l.01-.02h.01l.01-.02h.01l.01-.02h.01l.01-.02h.01l.01-.01h.01l.01-.01h.01l.02-.01h.01l.02-.01h.02l.01-.01h.02l.02-.01h.01l.02-.01h.02l.01-.01h.02l.02-.01h.02l.02-.01h.01l.02-.01h.32l.02-.01h.16Zm-1.66 2.79v.04-.06Zm4.21-1.16v.04-.03l-.01-.01Z" fill="#f5ad3b" fill-rule="evenodd" data-color="1"/>
        <path fill="#f5ad3b" fill-rule="evenodd" d="m110.67.08.02-.01h.02l.02-.01h.03l.02-.01h.02l.02-.01h.05l.02-.01h.02l.03-.01h.07l.02-.01h.02l.02-.01h.42l.02.01h.02l.02.01h.05l.02.01h.05l.02.01h.02l.03.01h.02l.02.01h.02l.02.01h.03l.02.01h.02l.02.01.03.01h.02l.02.01.02.01h.02l.02.01.03.01.02.01h.02l.02.01.02.01.02.01.02.01.02.01.03.01.02.01.02.01.02.01.02.01.02.01.02.01.02.01.02.01.02.01.02.01.02.01.02.02.02.01.02.01.02.01.02.02.02.01.01.01.02.01.02.02.02.01.02.01.02.02.01.01.02.02.02.01.02.02.02.01.01.01.02.02.02.02.02.01.01.02.02.01.02.02.01.01.02.02.01.02.02.01.02.02.01.02.02.01.01.02.02.02.01.02.02.01.01.02.01.02.02.02.01.01.02.02.01.02.01.02.02.02.01.02.01.02.02.02.01.01.01.02.01.02.02.02.01.02.01.02.01.02.01.02.01.02.01.02.01.02.01.02.01.02.01.03.01.02.01.02.01.02.01.02.01.02.01.02.01.02.01.02v.02l.01.03.01.02.01.02v.02l.01.02.01.02.01.03v.02l.01.02v.02l.01.03v.02l.01.02.01.02v.05l.01.02v.02l.01.02v.05l.01.02v.05l.01.02v.09l.01.02v.3l-.01.03v.06l-.01.03v.06l-.01.03v.04l-.01.03v.02l-.01.02v.02l-.01.03v.02l-.01.02v.02l-.01.02-.01.03v.02l-.01.02-.01.02v.02l-.01.03-.01.02v.02l-.01.02-.01.02-.01.02-.01.02-.01.03v.02l-.01.02-.01.02-.01.02-.01.02-.01.02-.01.02-.01.02-.01.02-.01.02-.01.02-.02.02-.01.02-.01.02-.01.02-.01.02-.01.02-.02.02-.01.02-.01.02-.01.02-.02.02-.01.02-.01.02-.02.01-.01.02-.01.02-.02.02-.01.02-.02.01-.01.02-.02.02-.01.02-.02.01-.01.02-.02.02-.01.01-.02.02-.02.02-.01.01-.02.02-.01.02-.02.01-.02.02-.01.01-.02.02-.02.01-.02.02-.01.01-.02.02-.02.01-.02.02-.02.01-.01.01-.02.02-.02.01-.02.01-.02.02-.02.01-.02.01-.01.02-.02.01-.02.01-.02.01-.02.02-.02.01-.02.01-.02.01-.02.01-.02.01-.02.01-.02.01-.02.01-.02.01-.02.01-.03.01-.02.01-.02.01-.02.01-.02.01-.02.01-.02.01h-.02l-.02.01-.03.01-.02.01-.02.01h-.02l-.02.01-.03.01h-.02l-.02.01-.54.15-.03.01h-.02l-.02.01h-.02l-.03.01h-.02l-.02.01h-.02l-.03.01h-.02l-.02.01h-.05l-.02.01H111l-.03.01h-.13l-.03.01h-.18l-.02-.01h-.12l-.02-.01h-.05l-.02-.01h-.04l-.03-.01h-.04l-.02-.01h-.03l-.02-.01h-.02l-.02-.01h-.03l-.02-.01-.02-.01h-.02l-.02-.01h-.03l-.02-.01-.02-.01-.02-.01h-.02l-.02-.01-.03-.01-.02-.01-.02-.01h-.02l-.02-.01-.02-.01-.02-.01-.02-.01-.03-.01-.02-.01-.02-.01-.02-.01-.02-.01-.02-.01-.02-.01-.02-.01-.02-.01-.02-.02-.02-.01-.02-.01-.02-.01-.02-.01-.02-.02-.02-.01-.01-.01-.02-.01-.02-.02-.02-.01-.02-.01-.02-.02-.02-.01-.01-.01-.02-.02-.02-.01-.02-.02-.02-.01-.01-.02-.02-.01-.02-.02-.01-.01-.02-.02-.02-.01-.01-.02-.02-.02-.02-.01-.01-.02-.02-.02-.01-.01-.02-.02-.02-.02-.01-.01-.02-.02-.01-.02-.02-.02-.01-.01-.01-.02-.02-.02-.01-.02-.02-.02-.01-.01-.01-.02-.02-.02-.01-.02-.01-.02-.01-.02-.02-.02-.01-.02-.01-.02-.01-.02-.02-.01-.01-.02-.01-.03-.01-.02-.01-.01-.01-.03-.01-.02-.01-.02-.01-.02-.01-.02-.01-.02-.01-.02-.01-.02-.01-.02-.01-.02-.01-.02-.01-.02-.01-.03v-.02l-.01-.02-.01-.02-.01-.02v-.02l-.01-.03-.01-.02v-.02l-.01-.02-.01-.02v-.03l-.01-.02v-.02l-.01-.02v-.02l-.01-.03v-.02l-.01-.02V2.9l-.01-.03v-.04l-.01-.03v-.04l-.01-.02v-.09l-.01-.03v-.27l.01-.03v-.09l.01-.02v-.07l.01-.02V2.1l.01-.03v-.04l.01-.02v-.03l.01-.02v-.02l.01-.02V1.9l.01-.03.01-.02v-.02l.01-.02.01-.02v-.03l.01-.02.01-.02.01-.02v-.02l.01-.02.01-.03.01-.02.01-.02.01-.02v-.02l.01-.02.01-.02.01-.02.01-.02.01-.02.01-.03.01-.02.01-.02.02-.02.01-.02.01-.02.01-.02.01-.02.01-.01.01-.02.02-.02.01-.02.01-.02.02-.02.01-.02.01-.02.01-.02.02-.02.01-.01.02-.02.01-.02.01-.02.02-.02.01-.01.02-.02.01-.02.02-.02.01-.01.02-.02.01-.02.02-.01.02-.02.01-.02.02-.01.02-.02.01-.01.02-.02.02-.02.01-.01.02-.02.02-.01.01-.02.02-.01.02-.01.02-.02.02-.01.01-.02.02-.01.02-.01.02-.02.02-.01.02-.01.02-.02.02-.01.01-.01.02-.01.02-.02.02-.01.02-.01.02-.01.02-.01.02-.01.02-.01.02-.01.02-.01.02-.02.03-.01.02-.01h.02l.02-.01.02-.01.02-.01.02-.01.02-.01.02-.01.02-.01h.03l.02-.01.02-.01.02-.01h.02l.02-.01.03-.01h.02l.02-.01.55-.15.02-.01z" data-color="1"/>
        <path fill="#f5ad3b" fill-rule="evenodd" d="M140.62 3.61h.01l.01-.01h.02l.01-.01h.04l.01-.01h.03l.02-.01h.04l.01-.01h.05l.01-.01h.06l.01-.01h.08l.02-.01h.36l.01.01h.1l.01.01h.06l.01.01h.05l.01.01h.03l.02.01h.03l.01.01h.04l.01.01h.02l.01.01h.03l.01.01h.02l.01.01h.02l.01.01h.03l.01.01h.02l.01.01h.01l.01.01h.03l.01.01h.01l.01.01h.01l.01.01h.02l.01.01h.01l.02.01h.01l.01.01h.01l.01.01h.01l.01.01h.01l.01.01h.01l.01.01h.01l.01.01h.01l.02.01.01.01h.01l.01.01h.01l.01.01h.01l.01.01.01.01h.01l.01.01h.01l.01.01.01.01h.01l.01.01h.01l.01.01.01.01h.01l.01.01.01.01h.01l.01.01.01.01h.01l.01.01.01.01h.01l.01.01.01.01h.01l.01.01.01.01v.01h.01l.01.01.01.01h.01l.01.01.01.01.01.01h.01l.01.01.01.01.01.01.01.01.01.01.01.01.01.01h.01l.01.01.01.01v.01l.01.01.01.01h.01l.01.01.01.01.01.01v.01h.01l.01.01.01.01.01.01.01.01v.01l.01.01.01.01h.01l.01.01v.01l.01.01.01.01.01.01v.01l.01.01.01.01h.01v.01l.01.01.01.01.01.01v.01l.01.01.01.01.01.01v.01l.01.01.01.01v.01l.01.01.01.01v.01l.01.01h.01v.01l.01.01.01.01v.01l.01.01.01.01v.01l.01.01.01.01v.01l.01.01v.01l.01.01.01.01v.01l.01.01v.02l.01.01.01.01v.01l.01.01v.01l.01.01v.01l.01.01.01.01v.01l.01.01v.01l.01.01v.01l.01.01v.01l.01.01v.02l.01.01v.01l.01.01v.02l.01.01v.01l.01.01v.01l.01.01v.02l.01.01v.02l.01.01v.01l.01.01v.02l.01.02v.02l.01.01v.01l.01.01v.02l.01.02v.02l.01.01v.03l.01.02v.02l.01.01v.03l.01.02v.03l.01.01v.05l.01.01v.05l.01.01v.07l.01.01v.12l.01.01v.23l-.01.01v.12l-.01.01v.07l-.01.01v.05l-.01.01v.04l-.01.02v.03l-.01.01v.04l-.01.01v.03l-.01.01v.03l-.01.01v.02l-.01.01v.03l-.01.01v.02l-.01.01v.01l-.01.01v.03l-.01.01v.02l-.01.01v.01l-.01.01v.01l-.01.01v.02l-.01.01v.02l-.01.01v.01l-.01.01v.01l-.01.01v.01l-.01.01v.01l-.01.02v.01l-.01.01v.01l-.01.01v.01l-.01.01-.01.01v.01l-.01.01v.01l-.01.01v.01l-.01.01V7l-.01.01-.01.01v.01l-.01.01v.01l-.01.01-.01.01v.01l-.01.01v.01l-.01.01-.01.01-.11.17v.01l-.01.01-.01.01v.01l-.01.01-.01.01v.01l-.01.01-.01.01v.01l-.01.01-.01.01v.01l-.01.01-.01.01-.01.01-.01.01-.01.01-.01.01v.01l-.01.01-.01.01-.01.01v.01l-.01.01-.01.01-.01.01-.01.01-.01.01-.01.01-.01.01v.01l-.01.01-.01.01h-.01l-.01.01-.01.01v.01l-.01.01-.01.01h-.01l-.01.01-.01.01v.01l-.01.01h-.01l-.01.01-.01.01-.01.01-.01.01h-.01v.01l-.01.01-.01.01-.01.01h-.01l-.01.01-.01.01-.01.01h-.01l-.01.01-.01.01v.01h-.01l-.01.01-.01.01h-.01l-.01.01-.01.01-.01.01h-.01l-.01.01-.01.01h-.01l-.01.01-.01.01h-.01l-.01.01-.01.01h-.01l-.01.01-.01.01h-.01l-.01.01h-.01l-.01.01-.01.01h-.01l-.01.01h-.01l-.01.01-.01.01h-.01l-.01.01h-.01l-.01.01-.01.01h-.01l-.01.01h-.01l-.01.01h-.01l-.01.01h-.01l-.02.01h-.01l-.01.01h-.01l-.01.01h-.01l-.01.01h-.01l-.01.01h-.01l-.01.01h-.01l-.01.01h-.03l-.01.01h-.01l-.01.01h-.01l-.01.01h-.02l-.02.01h-.01l-.01.01h-.02l-.01.01h-.02l-.02.01h-.02l-.01.01h-.02l-.01.01h-.03l-.01.01h-.02l-.01.01h-.04l-.01.01h-.03l-.01.01h-.05l-.01.01h-.05l-.01.01h-.07l-.01.01h-.1l-.01.01h-.3l-.01-.01h-.1l-.01-.01h-.06l-.02-.01h-.04l-.01-.01h-.05l-.01-.01h-.04l-.01-.01h-.03l-.01-.01h-.03l-.01-.01h-.02l-.01-.01h-.04l-.01-.01h-.01l-.01-.01h-.02l-.01-.01h-.03l-.01-.01h-.01l-.01-.01h-.02l-.01-.01h-.02l-.01-.01h-.02l-.01-.01h-.01l-.01-.01h-.01l-.01-.01h-.01l-.01-.01h-.02l-.01-.01h-.01l-.01-.01h-.01l-.01-.01h-.01l-.01-.01h-.01l-.01-.01h-.01l-.01-.01h-.01l-.01-.01h-.01l-.01-.01-.02-.01h-.01l-.01-.01h-.01l-.01-.01h-.01l-.01-.01-.01-.01h-.01l-.01-.01h-.01l-.01-.01-.01-.01h-.01l-.01-.01-.01-.01h-.01l-.01-.01-.01-.01h-.01l-.01-.01-.01-.01h-.01l-.01-.01v-.01h-.01l-.01-.01-.01-.01h-.01l-.01-.01-.01-.01-.01-.01h-.01l-.01-.01-.01-.01-.01-.01h-.01l-.01-.01-.01-.01h-.01V7.8l-.01-.01-.01-.01-.01-.01h-.01l-.01-.01-.01-.01-.01-.01v-.01h-.01l-.01-.01-.01-.01-.01-.01-.01-.01h-.01l-.01-.01v-.01l-.01-.01-.01-.01-.01-.01h-.01v-.01l-.01-.01-.01-.01-.01-.01-.01-.01v-.01l-.01-.01h-.01l-.01-.01-.01-.01v-.01l-.01-.01-.01-.01-.01-.01V7.5l-.01-.01-.01-.01h-.01v-.01l-.01-.01-.01-.01-.01-.01v-.01l-.01-.01-.01-.01V7.4l-.01-.01-.01-.01-.01-.01v-.01l-.01-.01-.01-.01v-.01l-.01-.01-.01-.01V7.3l-.01-.01-.01-.01v-.01l-.01-.01v-.01l-.01-.01-.01-.01v-.01l-.01-.01V7.2l-.01-.01-.01-.01v-.01l-.01-.01v-.01l-.01-.01-.01-.01v-.01l-.01-.01V7.1l-.01-.01v-.01l-.01-.01v-.01l-.01-.01v-.01l-.01-.02v-.01l-.01-.01v-.01l-.01-.01v-.01l-.01-.01v-.01l-.01-.01v-.01l-.01-.01v-.01l-.01-.01v-.03l-.01-.01v-.01l-.01-.01v-.01l-.01-.01V6.8l-.01-.02v-.01l-.01-.01v-.02l-.01-.01v-.02l-.01-.02v-.02l-.01-.01v-.02l-.01-.01V6.6l-.01-.01v-.03l-.01-.01v-.04l-.01-.01v-.04l-.01-.01v-.04l-.01-.02v-.05l-.01-.02v-.07l-.01-.01V6.1l-.01-.01v-.14l.01-.02v-.12l.01-.02v-.08l.01-.01v-.05l.01-.01v-.05l.01-.01v-.03l.01-.01V5.5l.01-.01v-.03l.01-.02v-.02l.01-.01v-.02l.01-.01v-.03l.01-.01v-.02l.01-.01v-.02l.01-.02v-.01l.01-.01v-.02l.01-.01v-.01l.01-.01v-.03l.01-.01v-.01l.01-.01v-.01l.01-.01v-.01l.01-.01v-.01l.01-.01v-.03l.01-.01.01-.01v-.02l.01-.01.01-.01v-.01l.01-.01v-.01l.01-.01v-.01l.01-.01v-.01l.01-.01.01-.01v-.01l.01-.02v-.01l.01-.01v-.01l.01-.01.01-.01v-.01l.01-.01v-.01l.01-.01.01-.01v-.01l.01-.01.11-.16.01-.01v-.01l.01-.01.01-.01v-.01l.01-.01.01-.01v-.01l.01-.01.01-.01v-.01l.01-.01.01-.01v-.01l.01-.01.01-.01.01-.01v-.01l.01-.01.01-.01h.01v-.01l.01-.01.01-.01.01-.01v-.01l.01-.01.01-.01.01-.01V4.3h.01l.01-.01.01-.01.01-.01v-.01l.01-.01.01-.01.01-.01h.01l.01-.01v-.01l.01-.01.01-.01.01-.01h.01l.01-.01.01-.01v-.01l.01-.01h.01l.01-.01.01-.01.01-.01.01-.01h.01v-.01l.01-.01.01-.01h.01l.01-.01.01-.01.01-.01h.01l.01-.01.01-.01.01-.01h.01V4l.01-.01h.01l.01-.01.01-.01.01-.01h.01l.01-.01.01-.01h.01l.01-.01.01-.01h.01l.01-.01.01-.01h.01l.01-.01h.01l.01-.01.01-.01h.01l.01-.01.01-.01h.01l.01-.01h.01l.01-.01.01-.01h.01l.01-.01h.01l.01-.01h.01l.01-.01h.01l.02-.01.01-.01h.01l.01-.01h.01l.01-.01h.01l.01-.01h.01l.01-.01h.01l.01-.01h.02l.02-.01h.01l.01-.01h.01l.01-.01h.01l.01-.01h.02l.01-.01h.02l.01-.01h.02l.01-.01h.01l.01-.01h.02l.02-.01h.02l.01-.01h.02l.01-.01h.02z" data-color="1"/>
        <path d="M154.26 60.33c-.1.03-.21.02-.3-.03-26.34-12.46-45.13-7.35-56.25-.86-12.05 7.03-17.94 17.11-18 17.21a.44.44 0 0 1-.76-.44c.06-.1 6.07-10.39 18.32-17.53 11.3-6.59 30.37-11.8 57.06.82.22.1.31.36.21.58-.06.12-.16.2-.28.23Z" fill="#f5ad3b" data-color="1"/>
        <path d="M153.88 57.65h1.46l.02.01h.02l.02.01h.02l.02.01h.02l.02.01h.02l.02.01h.02l.02.01h.02l.02.01h.02l.02.01h.02l.02.01h.02l.02.02h.02l.02.02h.02l.02.02h.02l.02.02h.02l.02.02h.02l.02.02h.02l.02.02h.02l.02.02h.01l.02.02h.02l.01.02h.01l.01.02h.01l.01.02h.01l.01.02h.01l.01.02h.01l.01.02h.01l.01.02h.01l.01.02h.01l.01.02h.01l.01.02h.01l.01.02h.01l.01.02h.01l.01.02h.01l.01.02h.01l.01.02h.01l.01.03h.01l.01.03h.01l.01.03h.01l.01.03h.01l.01.03h.01l.01.03h.01l.01.03h.01l.01.03h.01l.01.03h.01l.01.03h.01l.01.03h.01v.03h.01v.03h.01v.08l.02.02v.05l.02.02v.02l.02.02v.02l.02.02v.02l.02.02v.02l.02.02v.02l.01.02V59l.01.02v.02l.01.02v.02l.01.02v.02l.01.02v.02l.01.02v.02l.01.02v.02l.01.02v.02l.01.02v.02l.01.02v1.54l-.01.02v.02l-.01.02v.02l-.01.02V61l-.01.02v.02l-.01.02v.02l-.01.02v.02l-.01.02v.02l-.01.02v.02l-.01.02v.02l-.02.02v.02l-.02.02v.02l-.02.02v.02l-.02.02v.02l-.02.02v.02l-.02.02v.02l-.02.02v.02l-.02.01v.02l-.02.02-.01.03v.03h-.01v.03h-.01l-.01.03h-.01l-.01.03h-.01l-.01.03h-.01l-.01.03h-.01l-.01.03h-.01l-.01.03h-.01l-.01.03h-.01l-.01.03h-.01l-.01.03h-.01l-.01.03h-.01v.02l-.07.09-.08.09-.1.09-.11.09-.12.09-.11.08-.08.05-.07.04-.07.04-.07.04-.07.03-.07.03-.07.03-.07.03-.07.02h-.04l-.02.02h-1.5l-.02-.01h-.02l-.02-.01h-.02l-.02-.01h-.02l-.02-.01h-.02l-.02-.01h-.02l-.02-.01h-.02l-.02-.01h-.02l-.02-.01h-.02l-.02-.01h-.02l-.02-.02h-.02l-.02-.02h-.02l-.02-.02h-.02l-.02-.02H153l-.02-.02h-.02l-.02-.02h-.02l-.02-.02h-.02l-.02-.02h-.02l-.01-.02h-.02l-.01-.02h-.01l-.01-.02h-.01l-.01-.02h-.01l-.01-.02h-.01l-.01-.02h-.01l-.01-.02h-.01l-.01-.02h-.01l-.01-.02h-.01l-.01-.02h-.01l-.01-.02h-.01l-.01-.02h-.01l-.01-.02h-.01l-.01-.02h-.01l-.01-.02h-.01l-.01-.03h-.01l-.01-.03h-.01l-.01-.03h-.01l-.01-.03h-.01l-.01-.03h-.01l-.01-.03h-.01l-.01-.03h-.01l-.01-.03h-.01l-.01-.03h-.01l-.01-.03h-.01l-.01-.03h-.01l-.01-.03h-.01l-.01-.03-.01-.03v-.05l-.02-.01v-.02l-.02-.01v-.02l-.02-.02v-.02l-.02-.02v-.02l-.02-.02v-.02l-.02-.02v-.02l-.02-.02v-.02l-.02-.02v-.02l-.02-.02v-.02l-.01-.02v-.02l-.01-.02v-.02l-.01-.02v-.02l-.01-.02v-.02l-.01-.02v-.02l-.01-.02v-.02l-.01-.02v-.02l-.01-.02v-.02l-.01-.02V59.6l.01-.02v-.02l.01-.02v-.02l.01-.02v-.02l.01-.02v-.02l.01-.02v-.02l.01-.02v-.02l.01-.02v-.02l.01-.02v-.02l.01-.02v-.02l.02-.02v-.02l.02-.02v-.02l.02-.02v-.02l.02-.02v-.02l.02-.02v-.02l.02-.02V59l.02-.02v-.02l.02-.02v-.02l.02-.01v-.02l.02-.01v-.03h.01l.01-.03.01-.03h.01l.01-.03h.01l.01-.03h.01l.01-.03h.01l.01-.03h.01l.01-.03h.01l.01-.03h.01l.01-.03h.01l.01-.03h.01l.01-.03h.01l.01-.03h.01l.01-.02h.01l.01-.02h.01l.01-.02h.01l.01-.02h.01v-.02l.04-.04.11-.11.13-.12.13-.1.11-.07.09-.05.08-.05.1-.05.1-.04.1-.04.1-.03h.05l.02-.02h.02l.02-.01h.02Zm1.32 4.46h-.02l-.02.01h.04l.02-.02h-.02Zm.08-.02h.02-.01Zm-1.76-4.15h.02-.02Z" fill="#f5ad3b" fill-rule="evenodd" data-color="1"/>
        <path fill="#f5ad3b" fill-rule="evenodd" d="m78.47 74.94.01-.01h.03l.01-.01h.03l.01-.01h.04l.01-.01h.03l.02-.01h.03l.02-.01h.05l.01-.01h.08l.01-.01h.12l.02-.01h.19l.01.01h.11l.01.01h.08l.01.01h.05l.01.01h.05l.02.01h.03l.02.01h.03l.02.01h.02l.01.01h.03l.01.01h.02l.01.01h.03l.01.01h.01l.01.01h.03l.01.01h.01l.01.01h.03l.01.01h.01l.01.01h.02l.01.01h.01l.01.01h.01l.01.01h.02l.01.01h.01l.01.01h.01l.01.01h.02l.01.01h.01l.01.01h.01l.01.01.01.01h.01l.02.01h.01l.01.01h.01l.01.01.01.01h.01l.01.01.01.01h.02l.01.01.01.01h.01l.01.01.01.01h.01l.01.01.01.01h.01l.01.01.01.01h.01l.01.01.01.01h.01l.01.01.01.01.02.01h.01l.01.01.01.01.01.01h.01l.01.01.01.01.01.01.01.01h.01l.01.01v.01l.01.01.01.01h.01l.01.01.01.01.01.01.01.01.01.01h.01l.01.01.01.01.01.01.01.01.01.01.01.01v.01h.01l.01.01.01.01.01.01.01.01.01.01.01.01v.01l.01.01.01.01.01.01.01.01h.01l.01.01v.01l.01.01.01.01.01.01.01.01v.01l.01.01.01.01.01.01.01.01v.01l.01.01.01.01.01.01v.01l.01.01.01.01.01.01v.01l.01.01.01.01v.01l.01.01.01.02.01.01v.01l.01.01.01.01v.01l.01.01.01.01v.01l.01.01.01.01v.01l.01.01v.02l.01.01.01.01v.01l.01.01v.01l.01.01.01.01v.01l.01.02v.01l.01.01v.01l.01.01.01.01v.01l.01.02v.01l.01.01v.01l.01.01v.01l.01.01v.02l.01.01v.01l.01.01v.03l.01.01v.01l.01.01v.01l.01.01v.03l.01.01v.01l.01.01v.03l.01.01v.02l.01.02v.02l.01.01v.03l.01.01v.02l.01.02v.03l.01.02v.03l.01.02v.03l.01.02v.06l.01.01v.08l.01.01v.14l.01.01v.1l-.01.01v.17l-.01.01v.08l-.01.01v.05l-.01.01v.05l-.01.01v.04l-.01.01v.04l-.01.01v.03l-.01.01v.02l-.01.01v.03l-.01.01v.02l-.01.02v.01l-.01.01v.03l-.01.01v.01l-.01.01v.02l-.01.02V78l-.01.01v.01l-.01.01v.02l-.01.01v.01l-.01.01v.01l-.01.01v.02l-.01.01v.01l-.01.01v.01l-.01.01v.01l-.01.02v.01l-.01.01v.01l-.01.01-.01.01v.01l-.01.01v.02l-.01.01-.01.01v.01l-.01.01v.01l-.01.01-.01.01v.01l-.01.01-.01.02v.01l-.01.01-.01.01v.01l-.01.01-.01.01v.01l-.01.01-.01.01-.01.01v.01l-.01.01-.01.01v.01l-.01.01-.01.01-.01.01v.01l-.01.01-.01.01-.01.01v.01l-.01.01-.01.01-.01.01-.01.01v.01l-.01.01-.01.01-.01.01-.01.01-.01.01v.01l-.01.01-.01.01-.01.01-.01.01-.01.01h-.01v.01l-.01.01-.01.01-.01.01-.01.01-.01.01-.01.01-.01.01-.01.01h-.01v.01l-.01.01-.01.01-.01.01-.01.01-.01.01h-.01l-.01.01-.01.01-.01.01-.01.01h-.01l-.01.01-.01.01-.01.01-.01.01h-.01l-.01.01-.01.01-.01.01h-.01l-.01.01-.01.01-.01.01h-.01l-.01.01-.01.01-.01.01h-.01l-.01.01-.01.01h-.01l-.01.01-.01.01h-.01l-.01.01-.01.01-.02.01h-.01l-.01.01h-.01l-.01.01-.01.01h-.01l-.01.01-.01.01h-.01l-.02.01h-.01l-.01.01-.01.01h-.01l-.01.01h-.01l-.01.01h-.02l-.01.01h-.01l-.01.01-.01.01h-.01l-.01.01h-.02l-.01.01H80l-.01.01h-.01l-.01.01h-.03l-.01.01h-.01l-.01.01h-.01l-.02.01h-.01l-.01.01h-.02l-.02.01h-.01l-.01.01h-.02l-.02.01h-.02l-.01.01h-.01l-.17.05h-.02l-.02.01h-.02l-.01.01h-.03l-.01.01h-.04l-.01.01h-.04l-.01.01h-.04l-.01.01h-.06l-.01.01h-.08l-.01.01h-.4l-.02-.01h-.09l-.01-.01h-.05l-.01-.01h-.05l-.01-.01h-.04l-.01-.01h-.04l-.01-.01h-.03l-.01-.01h-.02l-.01-.01h-.03l-.01-.01h-.03l-.01-.01h-.01l-.01-.01h-.03l-.01-.01h-.02l-.01-.01h-.02l-.01-.01h-.01l-.01-.01h-.01l-.01-.01h-.02l-.01-.01h-.02l-.01-.01h-.01l-.02-.01h-.01l-.01-.01h-.01l-.01-.01-.01-.01h-.02l-.01-.01h-.01l-.01-.01h-.01l-.01-.01h-.01l-.01-.01-.02-.01h-.01l-.01-.01h-.01l-.01-.01-.01-.01h-.01l-.01-.01h-.01l-.01-.01-.02-.01h-.01l-.01-.01-.01-.01h-.01l-.01-.01-.01-.01h-.01l-.01-.01-.01-.01-.01-.01h-.01l-.01-.01-.01-.01h-.01l-.01-.01-.01-.01-.01-.01h-.01l-.01-.01-.01-.01-.01-.01h-.01l-.01-.01-.01-.01-.01-.01-.01-.01h-.01l-.01-.01-.01-.01-.01-.01-.01-.01h-.01l-.01-.01-.01-.01-.01-.01-.01-.01-.01-.01-.01-.01h-.01l-.01-.01-.01-.01-.01-.01v-.01l-.01-.01-.01-.01-.01-.01h-.01l-.01-.01-.01-.01-.01-.01-.01-.01v-.01l-.01-.01-.01-.01-.01-.01-.01-.01-.01-.01v-.01l-.01-.01-.01-.01-.01-.01-.01-.01v-.01h-.01l-.01-.01-.01-.01-.01-.01v-.01l-.01-.01-.01-.01-.01-.01-.01-.01v-.01l-.01-.01-.01-.02v-.01l-.01-.01-.01-.01-.01-.01v-.01l-.01-.01-.01-.01v-.01l-.01-.01-.01-.01-.01-.01v-.01l-.01-.01-.01-.01v-.01l-.01-.01v-.02l-.01-.01-.01-.01v-.01l-.01-.01-.01-.01v-.01l-.01-.01v-.01l-.01-.01-.01-.02v-.01l-.01-.01v-.01l-.01-.01v-.01l-.01-.01v-.01l-.01-.02v-.01l-.01-.01-.01-.01v-.01l-.01-.01v-.02l-.01-.01v-.02l-.01-.01v-.01l-.01-.02v-.01l-.01-.01v-.01l-.01-.01v-.03l-.01-.01v-.01l-.01-.01v-.03l-.01-.01v-.01l-.01-.01v-.03l-.01-.01v-.02l-.01-.02v-.02l-.01-.01v-.03l-.01-.01v-.04l-.01-.01v-.04l-.01-.01v-.05l-.01-.01v-.05l-.01-.01v-.09l-.01-.01v-.41l.01-.01v-.08l.01-.01v-.06l.01-.01v-.04l.01-.01v-.04l.01-.01v-.04l.01-.01v-.03l.01-.01v-.04l.01-.01v-.02l.01-.01v-.02l.01-.01v-.02l.01-.01v-.03l.01-.01v-.01l.01-.01v-.02l.01-.01v-.02l.01-.01v-.02l.01-.01v-.01l.01-.01v-.01l.01-.01v-.02l.01-.01v-.01l.01-.01v-.01l.01-.01v-.01l.01-.02v-.01l.01-.01v-.01l.01-.01.01-.01v-.01l.01-.01v-.02l.01-.01v-.01l.01-.01.01-.01v-.01l.01-.01.01-.01v-.01l.01-.02v-.01l.01-.01.01-.01V76l.01-.01.01-.01v-.01l.01-.01.01-.01v-.01l.01-.01.01-.01.01-.01v-.01l.01-.01.01-.01.01-.02v-.01l.01-.01.01-.01.01-.01v-.01l.01-.01.01-.01.01-.01v-.01l.01-.01.01-.01h.01l.01-.01v-.01l.01-.01.01-.01.01-.01.01-.01.01-.01v-.01l.01-.01.01-.01.01-.01.01-.01.01-.01.01-.01v-.01l.01-.01h.01l.01-.01.01-.01.01-.01.01-.01.01-.01.01-.01.01-.01.01-.01.01-.01.01-.01.01-.01.01-.01h.01l.01-.01.01-.01.01-.01.01-.01.01-.01h.01l.01-.01.01-.01.01-.01h.01l.01-.01.01-.01.01-.01.01-.01h.01l.01-.01.01-.01h.01l.01-.01.01-.01.01-.01h.01l.01-.01.01-.01h.01l.01-.01.01-.01h.02l.01-.01.01-.01h.01l.01-.01.01-.01h.01l.01-.01.01-.01h.01l.01-.01h.02l.01-.01.01-.01h.01l.01-.01h.01l.01-.01.01-.01h.01l.02-.01h.01l.01-.01h.01l.01-.01h.01l.01-.01h.02l.01-.01h.01l.01-.01h.01l.01-.01h.02l.01-.01h.01l.01-.01h.01l.02-.01h.02l.01-.01h.01l.01-.01h.02l.01-.01h.02l.02-.01h.02l.01-.01h.03l.16-.05h.01z" data-color="1"/>
    </g>
</svg>
