<?xml version="1.0" encoding="UTF-8"?>
<svg data-bbox="1.509 0.5 371.167 506.62" viewBox="0 0 374.17 508.63" xmlns="http://www.w3.org/2000/svg" data-type="ugc">
    <g>
        <path d="M104.61 278.13c0-8.31 6.69-11.26 12.23-11.26s10.9 4.62 10.9 10.89c0 5.91-3.42 11.86-10.9 11.86-5.82 0-12.22-3.73-12.23-11.49Z" fill="#f5ad3b" stroke="#f5ad3b" stroke-miterlimit="10" stroke-width="3"/>
        <path d="M241.21 278.13c0-8.31 6.69-11.26 12.23-11.26s10.9 4.62 10.9 10.89c0 5.91-3.42 11.86-10.9 11.86-5.82 0-12.22-3.73-12.23-11.49Z" fill="#f5ad3b" stroke="#f5ad3b" stroke-miterlimit="10" stroke-width="3"/>
        <path d="M178.69 350.3c.68.01 1.65-.34 2.61-1.01.96-.65 1.89-1.54 2.77-2.51 1.75-1.96 3.27-4.27 4.65-6.64 2.75-4.78 4.98-9.96 6.67-15.17.42-1.3.8-2.61 1.09-3.89.28-1.27.52-2.58.5-3.59-.02-1.1-.2-2.04-.56-2.76-.35-.71-.9-1.26-1.78-1.74-1.75-.97-4.38-1.43-7.03-1.63-2.68-.21-5.47-.21-8.31-.19-2.83 0-5.62.05-8.3.28-2.67.23-5.27.73-7.26 1.64-.95.49-1.66 1.06-2.14 1.71-.51.61-.65 1.5-.78 2.45-.05.97.11 2.28.35 3.54.25 1.28.58 2.59.97 3.89 1.56 5.22 3.71 10.43 6.43 15.21 1.35 2.39 2.87 4.69 4.61 6.66.86.99 1.8 1.87 2.77 2.56.96.68 1.96 1.11 2.74 1.17Zm-.21 4.56c-2.1-.13-3.77-1.01-5.15-1.95-1.38-.97-2.55-2.05-3.6-3.19-2.09-2.29-3.84-4.73-5.42-7.25-3.13-5.07-5.7-10.37-7.62-16.06-.47-1.43-.88-2.89-1.23-4.41-.33-1.53-.62-3.08-.59-4.97-.01-.47.08-.95.15-1.43.09-.48.11-.95.31-1.43.16-.48.34-.96.53-1.43.25-.45.51-.9.79-1.33 1.19-1.7 2.81-2.9 4.4-3.72 3.22-1.51 6.36-2.01 9.37-2.33 3.02-.29 5.96-.36 8.86-.39 2.89 0 5.83.03 8.86.29 3.01.3 6.21.69 9.51 2.48 1.63.88 3.25 2.4 4.16 4.28.91 1.86 1.19 3.82 1.15 5.57-.06 1.86-.42 3.38-.79 4.89-.38 1.5-.85 2.93-1.35 4.34-2.04 5.62-4.69 10.87-7.84 15.91-1.61 2.5-3.36 4.94-5.46 7.22-1.07 1.13-2.23 2.22-3.65 3.17-1.4.92-3.17 1.8-5.38 1.74Z" fill="#f5ad3b" stroke="#f5ad3b" stroke-miterlimit="10" stroke-width="3"/>
        <path d="M124.28 339.36c.2 1.24.74 2.74 1.35 4.16.62 1.43 1.35 2.84 2.14 4.22a59.62 59.62 0 0 0 5.36 7.9c1.99 2.46 4.16 4.77 6.54 6.71 2.37 1.95 4.95 3.56 7.66 4.48 1.35.45 2.72.74 4.09.83.66.07 1.42.01 2.16-.02.74 0 1.48-.12 2.22-.22 2.96-.39 5.85-1.35 8.58-2.7 2.72-1.36 5.25-3.16 7.4-5.3 1.13-1.03 2.05-2.23 2.94-3.43.79-1.25 1.49-2.54 1.92-3.86l.08-.24c.34-1.04 1.46-1.6 2.5-1.26.67.22 1.15.78 1.31 1.42 2.01 5.7 6.03 10.68 11.08 13.44 1.25.72 2.58 1.22 3.92 1.62.68.15 1.35.35 2.05.41.34.03.68.12 1.03.13l1.03.05c2.69.06 5.43-.75 8.07-2.05 5.27-2.68 9.92-7.11 14.01-11.91 4.06-4.85 7.66-10.21 10.47-15.9l.02-.03c.49-.99 1.69-1.4 2.68-.91.92.46 1.34 1.54.99 2.48-2.35 6.43-5.74 12.36-9.89 17.79-2.08 2.71-4.37 5.29-6.94 7.64-2.55 2.37-5.41 4.49-8.65 6.16-3.21 1.66-6.98 2.78-10.89 2.66-3.84-.1-7.56-1.31-10.72-3.24-6.37-3.86-10.64-10.34-12.11-17.3s3.89-.08 3.89-.08c-.35 1.93-1.07 3.69-1.94 5.34-.93 1.59-1.95 3.14-3.16 4.49-2.4 2.74-5.24 5.05-8.43 6.82a31.424 31.424 0 0 1-10.32 3.62c-.91.13-1.83.28-2.76.3-.93.05-1.83.12-2.84.04-1.96-.11-3.9-.48-5.7-1.11-3.61-1.29-6.77-3.3-9.49-5.66-2.73-2.36-5.1-5-7.16-7.84a55.198 55.198 0 0 1-5.37-8.99c-.73-1.59-1.4-3.21-1.96-4.91-.56-1.7-1.04-3.42-1.11-5.51a2 2 0 0 1 1.93-2.07c1.02-.04 1.88.69 2.04 1.67l.03.16Z" fill="#f5ad3b" stroke="#f5ad3b" stroke-miterlimit="10" stroke-width="3"/>
        <path d="M161.5 370.32c-1.44 4.91-2.28 10.17-2.66 15.39-.41 5.22-.39 10.48.35 15.51l.14.94.18.87c.1.59.3 1.16.45 1.73.15.58.39 1.13.57 1.7.22.56.47 1.1.7 1.66 1.04 2.16 2.4 4.16 4.04 5.83 3.25 3.39 7.65 5.42 12.4 5.61 2.33.13 4.61-.13 6.72-.91 2.11-.76 4.03-2.04 5.67-3.69 3.29-3.31 5.52-7.9 6.76-12.77.35-1.21.55-2.46.81-3.71.16-1.27.37-2.51.49-3.81.26-2.6.37-5.24.44-7.88.15-5.28 0-10.63-.56-15.81v-.04c-.12-1.1.67-2.08 1.77-2.2 1.04-.11 1.98.6 2.18 1.61.53 2.75.87 5.48 1.1 8.22.24 2.74.4 5.47.47 8.22.06 2.75.03 5.5-.13 8.28-.06 1.38-.25 2.81-.4 4.22-.24 1.41-.44 2.82-.8 4.22-.65 2.8-1.54 5.58-2.87 8.21-1.31 2.64-2.97 5.17-5.11 7.37-2.11 2.21-4.79 4.02-7.75 5.11-2.95 1.12-6.13 1.49-9.17 1.32-6.06-.23-12.15-3.06-16.31-7.51-4.16-4.44-6.72-10.19-7.35-16.08-.67-5.66-.46-11.26.21-16.76.36-2.75.84-5.48 1.45-8.19.61-2.71 1.37-5.39 2.41-8.04a2 2 0 0 1 2.59-1.13c.97.38 1.47 1.44 1.19 2.42l-.02.06Z" fill="#f5ad3b" stroke="#f5ad3b" stroke-miterlimit="10" stroke-width="3"/>
        <path d="M180.76 355.07c-.25 3.25-.54 6.52-.83 9.78l-.86 9.78c-.3 3.25-.53 6.5-.74 9.73-.18 3.22-.33 6.44-.25 9.55v.09a2.01 2.01 0 0 1-1.96 2.06c-.94.02-1.74-.6-1.99-1.46-.98-3.46-1.25-6.91-1.36-10.32-.11-3.41.05-6.8.32-10.16.31-3.36.72-6.7 1.33-10.02.6-3.32 1.33-6.61 2.43-9.87.35-1.05 1.5-1.62 2.55-1.26.89.3 1.43 1.16 1.37 2.06v.04Z" fill="#f5ad3b" stroke="#f5ad3b" stroke-miterlimit="10" stroke-width="3"/>
        <path d="M43.78 240.8c-2.6-3.3-4.87-6.74-6.79-10.3-2-3.54-3.72-7.17-5.39-10.82l-2.4-5.52-2.2-5.59c-.76-1.85-1.39-3.75-2.07-5.63-.67-1.88-1.36-3.76-1.95-5.67-2.55-7.58-4.64-15.29-6.61-23.03l-1.33-5.85-.66-2.92-.57-2.94-1.14-5.89-.95-5.93c-.15-.99-.33-1.97-.46-2.97l-.36-2.99c-.23-1.99-.51-3.98-.7-5.98-.3-4.01-.7-8.01-.74-12.05-.23-8.06-.05-16.02.72-24.09.2-2.01.49-4.03.73-6.04l.53-3.02c.19-1.01.33-2.02.6-3.02l.74-3.02c.26-1.01.63-2 .94-3 .17-.5.3-1 .51-1.5l.63-1.48.63-1.48c.22-.49.51-.97.77-1.45l.8-1.44c.26-.48.63-.92.94-1.39l.99-1.37c.37-.43.78-.84 1.17-1.26 1.53-1.71 3.51-3.06 5.54-4.15 1.06-.45 2.1-.99 3.19-1.27.54-.16 1.08-.34 1.62-.48l1.62-.33c2.19-.4 4.54-.56 6.76-.29l.84.08.82.14c.55.1 1.1.18 1.64.31 1.06.29 2.14.53 3.15.92 2.07.68 4 1.61 5.88 2.59 3.71 2.02 7.09 4.46 10.25 7.07 6.31 5.26 11.79 11.22 16.92 17.4 10.23 12.41 19 25.76 27.43 39.23 4.21 6.75 8.27 13.6 12.24 20.47l5.92 10.28c.99 1.69 1.98 3.39 3 4.98.52.82.99 1.53 1.57 2.29.55.76 1.12 1.5 1.71 2.21 2.34 2.87 5.03 5.36 8.02 6.96 1.5.79 3.06 1.36 4.7 1.63.82.13 1.65.23 2.5.23.88.02 1.94 0 2.91 0l23.74-.12 23.73-.23 11.84-.21c1.96-.06 3.93-.1 5.86-.19.5-.01.92-.05 1.36-.08l.66-.05.51-.09c.69-.15 1.41-.36 2.14-.72 2.94-1.38 5.8-3.9 8.39-6.61 2.61-2.73 5.04-5.74 7.37-8.84 2.33-3.11 4.57-6.32 6.77-9.57l3.27-4.92c1.06-1.6 2.08-3.26 3.12-4.94 8.23-13.5 16.6-27.09 25.96-40.03 4.68-6.48 9.59-12.81 14.97-18.83 2.7-3 5.51-5.92 8.53-8.68 3.03-2.75 6.24-5.36 9.86-7.57 3.61-2.18 7.69-4.07 12.41-4.45.58-.04 1.18-.04 1.78-.04.59.05 1.23.05 1.77.15 1.09.2 2.19.32 3.26.6 2.15.57 4.29 1.32 6.24 2.43 3.96 2.16 7.2 5.39 9.63 8.96 2.41 3.59 4.12 7.49 5.43 11.43 2.58 7.91 3.68 16.02 4.22 24.06.53 8.05.45 16.08.13 24.05-.18 4-.35 7.91-.64 11.93-.15 2.02-.28 4.03-.54 6.03l-.34 3.01c-.13 1-.29 1.99-.44 2.99a178.07 178.07 0 0 1-5.19 23.54c-2.26 7.72-5.06 15.28-8.51 22.59-3.47 7.29-7.66 14.35-13.25 20.54a2.49 2.49 0 0 1-3.53.18 2.494 2.494 0 0 1-.2-3.51l.06-.07c4.98-5.63 8.94-12.35 12.19-19.37 3.25-7.04 5.87-14.4 8.03-21.88 2.15-7.49 3.81-15.13 4.92-22.83.13-.96.29-1.92.41-2.89l.31-2.9c.24-1.93.35-3.86.49-5.8.26-3.88.42-7.88.57-11.79.28-7.85.31-15.68-.24-23.43-.56-7.73-1.67-15.44-4.05-22.59-1.2-3.56-2.74-6.96-4.76-9.94-2.04-2.96-4.6-5.41-7.59-7.06-1.48-.86-3.12-1.42-4.78-1.87-.83-.23-1.72-.31-2.57-.48-.44-.08-.79-.06-1.19-.11-.4.01-.79 0-1.19.03-3.22.24-6.58 1.68-9.71 3.59-3.15 1.91-6.11 4.31-8.94 6.88-2.83 2.58-5.51 5.37-8.11 8.25-5.18 5.79-9.98 11.98-14.57 18.34-9.2 12.73-17.46 26.13-25.71 39.66-1.04 1.69-2.1 3.4-3.22 5.1l-3.31 4.97c-2.23 3.31-4.52 6.59-6.94 9.82-2.42 3.22-4.97 6.39-7.83 9.39-1.43 1.5-2.94 2.95-4.61 4.3-1.68 1.34-3.47 2.63-5.62 3.61-1.06.5-2.24.89-3.49 1.15l-.96.16-.82.06c-.55.04-1.11.09-1.6.1-2.03.1-4.02.14-6.01.2l-11.9.21-23.77.23-23.76.12c-1.01 0-1.93.02-3.03 0-1.13 0-2.28-.13-3.41-.32-2.27-.38-4.48-1.18-6.47-2.24-4.01-2.14-7.19-5.21-9.85-8.44-.68-.81-1.31-1.64-1.92-2.48-.61-.82-1.25-1.76-1.78-2.61-1.12-1.74-2.12-3.46-3.13-5.19l-5.93-10.3c-3.95-6.84-7.97-13.62-12.13-20.3-8.36-13.36-17.03-26.53-26.96-38.58-4.97-5.99-10.27-11.73-16.13-16.61-2.93-2.43-6.02-4.64-9.26-6.41-1.63-.84-3.28-1.65-4.98-2.19-.84-.33-1.7-.51-2.54-.75-.43-.1-.85-.16-1.28-.24l-.64-.12-.64-.05c-1.72-.21-3.36-.09-5.05.22l-1.29.26c-.42.1-.82.25-1.23.37-.84.2-1.55.61-2.33.92-2.92 1.48-5.19 3.99-6.88 7.1-.21.39-.45.75-.63 1.17l-.53 1.25-.54 1.25c-.18.42-.3.88-.45 1.31-.28.89-.61 1.75-.85 2.66l-.68 2.75c-.25.9-.39 1.86-.57 2.8l-.51 2.82c-.24 1.92-.52 3.82-.72 5.74-.77 7.69-.99 15.6-.8 23.36.01 3.88.39 7.77.66 11.66.17 1.94.44 3.88.65 5.82l.34 2.91c.12.97.29 1.93.44 2.9l.9 5.8 1.09 5.77.55 2.89.64 2.87 1.28 5.74c1.9 7.61 3.91 15.2 6.38 22.64 2.47 7.44 5.07 14.85 8.24 21.98 1.59 3.56 3.23 7.1 5.1 10.47a67.66 67.66 0 0 0 6.16 9.56l.11.14a2.5 2.5 0 0 1-.46 3.5 2.49 2.49 0 0 1-3.48-.44Z" fill="#f5ad3b" stroke="#f5ad3b" stroke-miterlimit="10" stroke-width="3"/>
        <path d="M328.2 73.89c-1.88.46-3.85 1.64-5.64 3.17-1.81 1.51-3.53 3.27-5.19 5.1-3.3 3.71-6.29 7.81-9.13 12.02-5.64 8.46-10.68 17.38-15.48 26.43-4.79 9.06-9.31 18.28-13.7 27.57-2.18 4.64-4.33 9.3-6.33 13.99-.99 2.34-1.94 4.69-2.76 7.03-.4 1.17-.77 2.33-1.06 3.49a41.04 41.04 0 0 0-.71 3.5c-.24 2.17.03 4.11 1.1 5.81 1.05 1.73 2.81 3.31 4.74 4.91 1.93 1.59 3.98 3.11 6.03 4.67l6.17 4.65c8.23 6.22 16.45 12.46 24.45 19.07 4 3.3 8.01 6.63 11.74 10.5 3.73 3.81 7 8 10.14 12.06 3.1 4.1 6.22 8.02 9.68 11.67 3.42 3.68 7.17 7.08 11.04 10.38.86.71.99 1.99.28 2.85-.34.41-.81.66-1.3.72-4.9.64-9.74.67-14.62.3-2.44-.19-4.89-.5-7.36-1.03-2.48-.57-4.98-1.22-7.6-2.89h-.01l4.41-3.83c2.33 4.59 5.31 8.94 8.6 13.06 3.31 4.12 6.94 8.01 10.79 11.7 7.72 7.36 16.21 14 25.24 19.73h.01c.94.6 1.23 1.84.64 2.78-.25.4-.63.69-1.05.83-4.15 1.45-8.51 2.18-12.85 2.37-4.34.19-8.69-.14-12.95-.89-4.26-.76-8.46-1.93-12.51-3.58-4.04-1.68-7.99-3.71-11.57-6.98s4.97-3.07 4.97-3.07c2.67 8.51 6.76 16.67 11.62 24.33 2.44 3.83 5.09 7.53 7.96 11.04 2.87 3.5 5.96 6.84 9.34 9.67h.01v.02c.86.71.97 1.99.26 2.84-.39.46-.94.71-1.5.73-6.25.16-12.57.07-18.93-.87-3.18-.48-6.36-1.18-9.5-2.28-3.13-1.1-6.23-2.63-8.99-4.84h-.02l4.87-2.95c1.05 5.4 2.6 10.66 5.24 15.33 2.6 4.69 6.34 8.72 10.55 12.43l.02.02c.84.72.94 1.99.22 2.83-.44.52-1.09.75-1.72.69h-.02c-10.21-1.08-20.39-2.83-30.38-5.46-9.97-2.71-19.75-6.29-29.04-10.97-9.28-4.69-18-10.54-25.88-17.37-7.91-6.81-14.86-14.69-20.83-23.22-11.91-17.14-19.71-36.74-24.49-56.76-4.92-20.05-6.8-40.63-7.22-61.09a2 2 0 0 1 1.96-2.04c1.07-.02 1.96.8 2.04 1.85v.05c.72 10.11 1.38 20.22 2.9 30.21l.49 3.76c.17 1.25.41 2.49.61 3.73l1.28 7.46c1.06 4.93 2.01 9.88 3.35 14.73 2.55 9.72 5.53 19.34 9.53 28.52 3.96 9.19 8.77 17.99 14.46 26.17 5.66 8.18 12.25 15.74 19.75 22.27 7.48 6.56 15.78 12.14 24.58 16.85 17.71 9.29 37.41 14.49 57.39 17.35l-1.52 3.52-.02-.02c-2.29-1.8-4.53-3.72-6.62-5.86s-4.01-4.5-5.65-7.06c-3.3-5.13-5.35-10.89-6.81-16.61-.41-1.59.55-3.2 2.14-3.61.91-.23 1.82-.02 2.52.5l.22.16h.01c1.99 1.79 4.43 3.19 7.08 4.29 2.65 1.1 5.49 1.89 8.41 2.49 5.84 1.2 11.94 1.62 18.06 1.79l-1.23 3.58h-.01c-3.84-2.99-7.17-6.37-10.31-9.92-3.12-3.55-6.01-7.29-8.69-11.18-5.34-7.79-9.94-16.15-13.15-25.23-.55-1.55.26-3.25 1.81-3.8 1.06-.38 2.2-.11 2.99.59l.17.15c2.48 2.48 5.93 4.55 9.5 6.17 3.6 1.63 7.42 2.87 11.32 3.73 3.9.85 7.89 1.31 11.86 1.3 3.97-.02 7.93-.52 11.7-1.67l-.41 3.61h-.01a168.634 168.634 0 0 1-26.56-19.49c-4.1-3.69-8.01-7.62-11.62-11.85-3.61-4.24-6.94-8.78-9.68-13.78a2.982 2.982 0 0 1 4.17-3.98l.24.15c1.3.99 3.36 1.83 5.44 2.43 2.11.61 4.33 1.06 6.58 1.4 4.5.66 9.15.96 13.65.69l-1.02 3.57-3.15-2.34-3.07-2.46-3-2.56c-.97-.89-1.96-1.77-2.89-2.69-3.78-3.68-7.26-7.69-10.52-11.69-3.24-4.02-6.39-7.92-9.95-11.41-1.74-1.78-3.62-3.39-5.53-5.07-1.91-1.66-3.86-3.31-5.83-4.94-7.92-6.48-15.96-12.9-24.04-19.28-4.04-3.22-8.07-6.32-12.15-9.71-1.99-1.72-4.17-3.59-5.79-6.3-.8-1.34-1.38-2.9-1.63-4.47-.26-1.57-.22-3.13-.04-4.61.26-1.53.5-2.69.84-4.06.33-1.34.75-2.64 1.18-3.9.88-2.52 1.86-4.95 2.87-7.36 2.04-4.8 4.2-9.49 6.4-14.18 4.41-9.34 8.94-18.64 13.79-27.79 4.86-9.14 9.97-18.18 15.77-26.87 2.92-4.33 6.01-8.58 9.57-12.57 1.8-1.98 3.74-3.88 5.99-5.53.55-.42 1.18-.79 1.76-1.18.63-.36 1.25-.72 1.92-1.03 1.35-.6 2.85-1.07 4.47-1.17 1.1-.07 2.05.77 2.12 1.87.06.98-.6 1.84-1.52 2.07l-.19.05Z" fill="#f5ad3b" stroke="#f5ad3b" stroke-miterlimit="10" stroke-width="3"/>
        <path d="M26.1 69.97c.36-.08.8-.15 1.14-.15.3.02.63.05.92.11.5.13.99.3 1.36.48.81.36 1.46.77 2.09 1.21 1.23.87 2.31 1.79 3.35 2.74 2.06 1.91 3.9 3.96 5.69 6.04 3.56 4.15 6.91 8.43 10.19 12.75 6.54 8.65 12.78 17.47 18.89 26.39 6.11 8.92 12.05 17.93 17.86 27.05 2.89 4.57 5.76 9.15 8.51 13.86.69 1.18 1.36 2.37 2.03 3.6.33.63.65 1.24.98 1.98.3.7.54 1.33.81 2 1.01 2.66 1.81 5.48 2.09 8.46.18 1.48.14 3 .04 4.52-.16 1.51-.41 3.03-.88 4.47-.87 2.92-2.34 5.54-4 7.9-.4.6-.86 1.16-1.32 1.72-.46.55-.9 1.14-1.38 1.67-.98 1.03-1.93 2.11-2.97 3.05-2.02 1.98-4.16 3.72-6.28 5.45-4.27 3.42-8.57 6.61-12.69 9.97-4.1 3.37-8.08 6.83-11.77 10.56-3.69 3.74-7.08 7.74-10.31 11.88-3.21 4.21-6.13 8.6-9.19 13.12-3.07 4.48-6.57 9.01-10.73 12.78-4.14 3.8-8.7 6.98-13.4 9.77h-.01l-.03-3.37c1.89 1.05 3.9 1.87 5.98 2.45 2.09.58 4.26.88 6.43 1.01 2.17.12 4.37.04 6.5-.26 1.06-.15 2.13-.34 3.12-.61.97-.24 2.06-.62 2.51-.91s.35-.15.35-.15a2.975 2.975 0 0 1 3.54 4.51c-5.42 7.41-11.83 13.97-18.76 19.79-6.94 5.82-14.42 10.92-22.22 15.4h-.02l-.36-3.59c3.98 1.21 8.01 1.87 12.05 1.71 4.04-.11 8.14-.99 12.55-1.64h.05c1.62-.2 3.09.96 3.29 2.58.06.52-.02 1.04-.2 1.49-3.05 7.38-6.46 14.75-11 21.53-2.26 3.38-4.8 6.59-7.51 9.58-2.71 3-5.58 5.79-8.48 8.51l-.02.02-1.46-3.43c6.07-.38 12.11-1.03 18.06-2.06 2.97-.52 5.92-1.13 8.77-1.91 1.42-.4 2.84-.81 4.16-1.31 1.31-.48 2.65-1.05 3.55-1.65h.02l.26-.15c1.44-.77 3.24-.22 4.01 1.22.45.84.44 1.82.08 2.62-1.16 2.55-2.38 5.1-3.72 7.6-1.34 2.5-2.79 4.95-4.3 7.31-3.04 4.73-6.22 9.22-9.33 13.78l-.02.02-2.2-3.01c5.03-1.47 10.01-3.06 14.96-4.76 4.93-1.74 9.8-3.61 14.59-5.67 9.6-4.06 18.86-8.87 27.66-14.4 17.59-11.04 33.13-25.26 45.29-42.04 6.13-8.35 11.47-17.27 16.01-26.61 4.6-9.31 8.12-19.13 11.22-29.06l1.13-3.74.56-1.87.48-1.9 1.91-7.58c.57-2.54 1.06-5.11 1.6-7.66.26-1.28.54-2.55.78-3.84l.62-3.87c1.91-10.28 2.79-20.73 3.71-31.17v-.05c.1-1.1 1.07-1.91 2.17-1.82 1.07.09 1.86 1.01 1.82 2.07-.79 21.19-3.44 42.48-9.46 63.01-5.83 20.54-15.05 40.27-27.72 57.63-12.74 17.29-28.88 32.1-47.21 43.19a195.996 195.996 0 0 1-28.67 14.3c-9.92 3.92-20.09 7.16-30.4 9.71h-.03c-1.07.27-2.16-.38-2.43-1.46-.14-.55-.03-1.11.25-1.56l.02-.03c2.84-4.74 5.76-9.45 8.41-14.19 2.66-4.73 4.85-9.58 6.79-14.67l4.36 3.7-.03.02c-1.73 1-3.3 1.51-4.89 2.01-1.58.5-3.14.86-4.7 1.2-3.12.67-6.23 1.14-9.34 1.51-6.22.74-12.44 1.06-18.65 1.12h-.04c-1.11 0-2.01-.88-2.02-1.98 0-.56.23-1.08.6-1.45l.02-.02c2.75-2.79 5.41-5.63 7.87-8.59s4.71-6.06 6.69-9.32c3.99-6.52 6.95-13.68 9.61-20.99l3.12 4.06h-.02c-4.16.28-8.62.9-13.24.68-2.3-.1-4.6-.41-6.83-.92-2.23-.51-4.4-1.21-6.49-2.02l-.06-.02a2.014 2.014 0 0 1-1.15-2.59c.17-.43.47-.78.84-1h.02c7.45-4.66 14.52-9.89 20.99-15.74 6.46-5.85 12.31-12.34 17.13-19.47l3.89 4.36h-.02c-1.63.79-2.83 1-4.14 1.26-1.29.25-2.55.37-3.81.46-2.52.16-5.03.08-7.51-.23-2.48-.33-4.94-.85-7.32-1.7-2.37-.85-4.64-1.97-6.76-3.35a2.021 2.021 0 0 1-.04-3.36h.01l.01-.02 3.21-2.34 3.12-2.42c2.02-1.67 3.98-3.39 5.79-5.23 3.7-3.62 6.65-7.83 9.54-12.31 2.9-4.46 5.86-9.11 9.11-13.53 3.28-4.45 6.9-8.65 10.79-12.58 7.73-7.92 16.84-14.26 25.32-20.64 4.18-3.24 8.23-6.55 11.13-10.58 2.98-4.03 4.65-8.58 4.07-13.39-.23-2.39-.9-4.81-1.8-7.18-.24-.58-.47-1.22-.7-1.75-.22-.49-.52-1.08-.82-1.64-.61-1.14-1.27-2.29-1.94-3.44-2.69-4.6-5.54-9.16-8.42-13.69a1016.05 1016.05 0 0 0-17.77-26.91c-6.07-8.87-12.27-17.65-18.73-26.2-3.24-4.27-6.53-8.48-9.99-12.51-1.73-2.01-3.49-3.98-5.28-5.83-.89-.92-1.79-1.84-2.71-2.6-.45-.36-.91-.74-1.3-.98-.21-.15-.36-.21-.5-.29-.04-.01-.05-.02-.08-.06 0-.01.11 0 .14-.07a2 2 0 0 1-2.45-1.41 2 2 0 0 1 1.41-2.45Z" fill="#f5ad3b" stroke="#f5ad3b" stroke-miterlimit="10" stroke-width="3"/>
        <path d="M44.29 366.81c-.97 5.95-1.19 12.05-.92 18.13.28 6.08 1.06 12.15 2.29 18.13 1.23 5.97 2.91 11.86 5.09 17.54 2.18 5.67 4.86 11.16 8.17 16.19l-3.6.59c.61-2.53 1.34-5.04 2.24-7.5.92-2.45 1.98-4.86 3.21-7.19s2.63-4.6 4.24-6.75c.82-1.07 1.65-2.13 2.61-3.14.96-1.01 1.94-2 3.24-2.93 1.3-.96 3.13-.69 4.09.61.38.52.57 1.12.57 1.71v.12c.05 6.92 1.58 13.93 3.91 20.66 2.36 6.74 5.5 13.25 9.15 19.47 3.66 6.22 7.82 12.16 12.45 17.71 4.63 5.53 9.72 10.73 15.42 14.98l-3.05.99c1.65-5.36 3.35-10.75 5.56-16.06a80.086 80.086 0 0 1 8.32-15.19c.91-1.35 2.74-1.7 4.09-.79.63.42 1.04 1.05 1.21 1.73l.02.1c.58 2.35 1.79 4.86 3.04 7.27 1.34 2.41 2.79 4.79 4.42 7.07 3.22 4.59 6.87 8.93 10.81 12.98 3.94 4.06 8.18 7.83 12.73 11.19 4.54 3.37 9.35 6.36 14.41 8.86l-1.9.12c4.33-2.85 8.5-5.94 12.43-9.29 3.94-3.35 7.6-7.01 11.01-10.87 3.41-3.87 6.53-7.97 9.31-12.28 2.79-4.3 5.21-8.83 7.09-13.48s.05-.12.05-.12a2.954 2.954 0 0 1 3.88-1.58c.93.39 1.56 1.22 1.75 2.14.93 4.56 1.7 9.22 1.83 13.99.07 2.38-.02 4.77-.25 7.1-.22 2.33-.52 4.6-.79 6.84s-2.86-1.96-2.86-1.96c6.18-3.5 11.8-8.63 16.85-14.05 5.11-5.42 9.82-11.26 13.99-17.43 4.15-6.18 7.95-12.61 11-19.34 3.05-6.72 5.42-13.75 6.5-20.92v-.03a3 3 0 0 1 3.41-2.51c1.21.18 2.14 1.07 2.44 2.17l1.69 6.21c.52 2.09 1.06 4.2 1.46 6.36.43 2.16.76 4.37.92 6.62.14 2.25.13 4.54-.16 6.77s-3.43-1.45-3.43-1.45c2.81-2.83 5.54-5.52 8.18-8.37 2.63-2.84 5.16-5.76 7.56-8.79 4.79-6.05 9.03-12.52 12.53-19.38a97.826 97.826 0 0 0 8.04-21.53c.91-3.73 1.53-7.52 1.99-11.32.44-3.81.57-7.65.57-11.48v-.05a2 2 0 1 1 4 0c0 4-.14 8-.6 11.98-.47 3.97-1.13 7.93-2.08 11.81-1.89 7.77-4.71 15.31-8.36 22.41-3.63 7.11-8.02 13.81-12.95 20.04-2.47 3.12-5.07 6.12-7.76 9.03-2.69 2.9-5.54 5.7-8.25 8.44-.78.78-2.04.79-2.83.01-.35-.35-.54-.79-.58-1.24l-.02-.22c-.17-2.05-.4-4.05-.79-6.04-.36-1.99-.86-3.98-1.4-5.99-.56-2-1.11-4.03-1.73-6.06l-1.77-6.14 5.85-.37c-1.25 7.88-3.87 15.37-7.14 22.44-3.3 7.07-7.24 13.8-11.76 20.09-4.5 6.31-9.49 12.24-14.96 17.73-1.38 1.36-2.82 2.67-4.23 4-1.48 1.27-2.94 2.55-4.46 3.77-3.09 2.4-6.3 4.68-10 6.43-1 .47-2.2.04-2.67-.96-.14-.31-.2-.63-.19-.95v-.07c.11-2.29.25-4.55.29-6.76.05-2.21-.02-4.37-.25-6.53-.44-4.31-1.46-8.6-2.67-12.88l5.68.43c-2.24 5.07-4.97 9.78-8.06 14.24-3.08 4.46-6.5 8.66-10.19 12.59-3.7 3.92-7.64 7.61-11.84 10.97-4.2 3.36-8.62 6.42-13.19 9.22-.56.38-1.25.41-1.83.15l-.08-.04c-5.38-2.47-10.51-5.46-15.35-8.84-4.86-3.37-9.39-7.18-13.62-11.29-4.23-4.12-8.18-8.54-11.74-13.31-1.8-2.37-3.44-4.88-4.98-7.48-1.47-2.67-2.92-5.34-3.84-8.6l5.32 1.04c-3.36 4.25-6.22 8.8-8.6 13.69-2.39 4.89-4.37 10.07-6.33 15.28a1.995 1.995 0 0 1-3.03 1.01h-.02c-6.21-4.43-11.59-9.71-16.53-15.33-4.92-5.64-9.36-11.69-13.31-18.06-3.93-6.38-7.38-13.09-10.04-20.19-2.63-7.09-4.49-14.61-4.73-22.43l4.66 2.45c-.79.48-1.67 1.22-2.49 1.99-.84.77-1.62 1.64-2.4 2.52-1.54 1.79-2.93 3.74-4.19 5.79a57.52 57.52 0 0 0-3.38 6.41c-.98 2.22-1.81 4.51-2.55 6.84s-.01.05-.01.05a1.99 1.99 0 0 1-2.47 1.36 2.02 2.02 0 0 1-1.11-.82c-3.52-5.33-6.3-11.07-8.57-16.97-2.27-5.9-4-11.99-5.27-18.16a120.47 120.47 0 0 1-2.37-18.75c-.28-6.31-.05-12.67.97-18.97.18-1.09 1.2-1.83 2.29-1.65s1.83 1.2 1.65 2.29 0 .02 0 .02Z" fill="#f5ad3b" stroke="#f5ad3b" stroke-miterlimit="10" stroke-width="3"/>
        <path d="M184.07 132.5c-9.89 0-21.7-1.63-35.48-6.13-11.72-3.83-17.46-8.25-18.07-13.9-.31-2.88.68-7.1 7.16-10.91 15.25-8.95 60.41-13.71 87.77.9.97-4.65 2.25-11.49 3.09-18.48 2.68-22.27-1.57-24.77-1.61-24.8-.04-.02-4.11-1.55-17.35 13.33a4.397 4.397 0 0 1-4.35 1.35 4.391 4.391 0 0 1-3.22-3.22c-.03-.12-3.08-12.34-7.85-24.3-6.43-16.1-12-21.72-14.9-21.66-1.6.04-10.05 2.55-18.95 48.19a4.42 4.42 0 0 1-3.49 3.49 4.41 4.41 0 0 1-4.54-1.93c-.04-.06-3.71-5.7-8.29-10.85-7.19-8.09-10.05-7.69-10.07-7.69-.06.02-5.56 3.14-.55 39.46a4.408 4.408 0 0 1-3.77 4.97 4.401 4.401 0 0 1-4.97-3.77c-4.29-31.09-2.43-45.72 6.21-48.94 5.46-2.03 11.94 1.3 19.8 10.17 1.07 1.21 2.09 2.43 3.03 3.61 6.92-31.13 14.86-45.28 25.35-45.54 8.28-.18 15.94 8.72 23.35 27.29 2.59 6.49 4.66 12.94 6.08 17.71 9.7-9.59 16.8-12.52 22.58-9.49 6.63 3.48 8.62 14.2 6.26 33.73-1.56 12.92-4.47 24.89-4.59 25.39a4.4 4.4 0 0 1-2.74 3.08c-1.37.51-2.9.31-4.09-.53-19.67-13.93-59.61-13.01-78.46-6.26-5.89 2.11-7.81 4.11-8.1 4.76.22.44 1.92 3.12 12.02 6.43 44.12 14.43 65.33-3.15 65.54-3.33 1.85-1.58 4.64-1.37 6.22.48a4.407 4.407 0 0 1-.48 6.22c-.72.62-13.41 11.15-38.55 11.15Z" fill="#f5ad3b" stroke="#f5ad3b" stroke-miterlimit="10"/>
        <path d="M125.83 35.16h.67l.02.01h.02l.02.01h.02l.02.01h.02l.02.01h.02l.02.01h.02l.02.01h.02l.02.01h.02l.02.01h.02l.02.01h.02l.02.02h.02l.02.02h.02l.02.02h.02l.02.02h.02l.02.02h.02l.02.02h.02l.02.02h.02l.02.02h.02l.02.02h.02l.02.02h.02l.02.02h.02l.02.02h.02l.02.02h.02l.02.02h.02l.02.02h.02l.02.02h.02l.02.02h.02l.02.02h.02l.02.03h.02l.02.03h.02l.02.03h.02l.02.03h.02l.02.03h.02l.02.03h.02l.02.03h.02l.02.03h.02l.02.03h.02l.02.03.02.02h.02l.02.03.02.02.02.02.02.02.02.02.02.02.02.02.02.02.02.02.02.02.02.02.02.02.02.02.02.02.02.02.02.02.02.02.02.02.02.02.02.02.02.02.02.02.02.02.02.02.02.02v.02l.03.02v.02l.03.02v.02l.03.02v.02l.03.02v.02l.03.02v.02l.03.02v.02l.03.02v.02l.03.02v.02l.03.02v.02l.03.02v.02l.03.02v.02l.02.02v.02l.02.02v.02l.02.02v.02l.02.02v.02l.02.02v.02l.02.02v.02l.02.02v.02l.02.02v.02l.02.02v.02l.02.02v.02l.02.02v.02l.02.02v.02l.02.02v.02l.02.02v.02l.02.02v.02l.02.02v.02l.02.02v.02l.02.02v.02l.02.02v.02l.01.02v.02l.01.02v.02l.01.02v.02l.01.02v.02l.01.02v.02l.01.02v.02l.01.02v.02l.01.02v.02l.01.02v1.49l-.01.02v.02l-.01.02v.02l-.01.02v.02l-.01.02v.02l-.01.02v.02l-.01.02v.02l-.01.02v.02l-.01.02v.02l-.01.02v.02l-.01.02v.02l-.02.02v.02l-.02.02v.02l-.02.02v.02l-.02.02v.02l-.02.02v.02l-.02.02v.02l-.02.02v.02l-.02.02v.02l-.02.02v.02l-.02.02v.02l-.02.02v.02l-.02.02v.02l-.02.02v.02l-.02.02v.02l-.02.02v.02l-.02.02v.02l-.02.02v.02l-.03.02v.02l-.03.02v.02l-.03.02v.02l-.03.02v.02l-.03.02v.02l-.03.02v.02l-.03.02v.02l-.03.02v.02l-.03.02v.02l-.03.02v.02l-.03.02v.02l-.03.02-.02.02-.02.02-.02.02-.02.02-.02.02-.02.02-.02.02-.02.02-.02.02-.02.02-.02.02-.02.02-.02.02-.02.02-.02.02-.02.02-.02.02-.02.02-.02.02-.02.02-.02.02-.02.02-.02.02-.02.02H128l-.02.03-.02.02h-.02l-.02.03-.02.02h-.02l-.02.03h-.02l-.02.03h-.02l-.02.03h-.02l-.02.03h-.02l-.02.03h-.02l-.02.03h-.02l-.02.03h-.02l-.02.03h-.02l-.02.03h-.02l-.02.02h-.02l-.02.02h-.02l-.02.02h-.02l-.02.02h-.02l-.02.02h-.02l-.02.02h-.02l-.02.02h-.02l-.02.02h-.02l-.02.02h-.02l-.02.02h-.02l-.02.02h-.02l-.02.02h-.02l-.02.02H127l-.02.02h-.02l-.02.02h-.02l-.02.02h-.02l-.02.02h-.02l-.02.02h-.02l-.02.01h-.02l-.02.01h-.02l-.02.01h-.02l-.02.01h-.02l-.02.01h-.02l-.02.01h-.02l-.02.01h-.02l-.02.01h-.02l-.02.01h-.02l-.02.01h-.88l-.09-.01h-.08l-.08-.01h-.08l-.09-.02h-.09l-.1-.03-.1-.02-.11-.02-.12-.03-.12-.03-.13-.04-.14-.05-.15-.06-.17-.08-.18-.09-.19-.12-.21-.15-.23-.18-.11-.11-.02-.02-.02-.02-.02-.02-.02-.02-.02-.02-.02-.02-.02-.02-.02-.02-.02-.02-.02-.02-.02-.02v-.02l-.03-.02-.02-.02v-.02h-.02l-.02-.02v-.02l-.03-.02v-.02l-.03-.02v-.02l-.03-.02v-.02l-.03-.02v-.02l-.03-.02v-.02l-.03-.02v-.02l-.03-.02v-.02l-.03-.02-.01-.02v-.02l-.03-.02v-.02l-.03-.02v-.02l-.02-.02v-.02l-.02-.02v-.02l-.02-.02v-.02l-.02-.02v-.02l-.02-.02v-.02l-.02-.02v-.02l-.02-.02v-.04l-.02-.02v-.02l-.02-.02v-.02l-.02-.02v-.02l-.02-.02v-.02l-.02-.02v-.02l-.02-.02v-.02l-.02-.02v-.02l-.02-.02v-.02l-.02-.02v-.02l-.02-.02v-.05l-.02-.02v-.02l-.01-.02v-.02l-.01-.02v-.02l-.01-.02v-.02l-.01-.02v-.02l-.01-.02v-.02l-.01-.02v-.02l-.01-.02v-.02l-.01-.02v-.02l-.01-.02v-.04l-.01-.02v-1.33l.01-.03v-.02l.01-.02v-.02l.01-.02v-.02l.01-.02v-.02l.01-.02v-.02l.01-.02v-.02l.01-.02v-.02l.01-.02v-.02l.01-.02v-.02l.01-.02v-.02l.01-.02v-.03l.02-.02v-.02l.02-.02v-.02l.02-.02v-.02l.02-.02v-.02l.02-.02v-.02l.02-.02v-.02l.02-.02v-.02l.02-.02v-.02l.02-.02v-.02l.02-.03v-.02l.02-.02v-.02l.02-.02v-.02l.02-.02v-.02l.02-.02V37l.02-.02v-.02l.02-.02v-.02l.02-.02v-.02l.02-.02.02-.02v-.02l.02-.02v-.02l.02-.02v-.02l.02-.02v-.02l.03-.02v-.02l.03-.02v-.02l.03-.02v-.02l.03-.02v-.02l.11-.13.21-.22.19-.18.17-.14.17-.12.16-.1.15-.08.14-.07.13-.06.12-.05.11-.05.11-.04.13-.04.17-.05.19-.05.18-.03.17-.03.16-.02h.16l.16-.02h.16Zm.04 7.28Z" fill-rule="evenodd" fill="#f5ad3b" stroke="#f5ad3b" stroke-miterlimit="10"/>
        <path fill-rule="evenodd" fill="#f5ad3b" stroke="#f5ad3b" stroke-miterlimit="10" d="M176.73.5h.12l.04.01h.12l.03.01h.06l.03.01h.07l.03.01h.03l.03.01h.03l.03.01h.03l.03.01.03.01h.03l.03.01.03.01h.03l.03.01.03.01.03.01.03.01h.03l.03.01.03.01.03.01.03.01.03.01.03.01.03.01.03.01.03.01.03.01.03.02.03.01.03.01.02.01.03.01.03.02.03.01.03.01.03.01.02.02.03.01.03.02.03.01.02.01.03.02.03.01.03.02.02.02.03.01.03.02.02.01.03.02.03.02.02.01.03.02.03.02.02.01.03.02.02.02.03.02.02.02.03.02.02.01.03.02.02.02.03.02.02.02.02.02.03.02.02.02.03.02.02.02.02.02.02.02.03.03.02.02.02.02.03.02.02.02.02.02.02.03.02.02.02.02.03.02.02.03.02.02.02.02.02.03.02.02.02.03.02.02.02.02.02.03.02.02.01.03.02.02.02.03.02.02.02.03.01.02.02.03.02.03.02.02.01.03.02.02.02.03.01.03.02.02.01.03.02.03.02.02.01.03.02.03.01.03.01.02.02.03.01.03.02.03.01.03.01.03.02.02.01.03.01.03.01.03.01.03.02.03.01.03.01.02.01.03.01.03.01.03.01.03.01.03.01.03.01.03.01.03.01.03.01.03.01.03v.03l.01.03.01.03.01.03v.03l.01.03.01.03v.03l.01.03.01.03v.03l.01.03v.04l.01.03v.03l.01.03v.06l.01.03v.06l.01.03V4l.01.03v.22l-.01.03v.16l-.01.03v.06l-.01.03v.06l-.01.03v.03l-.01.03v.03l-.01.03v.04l-.01.03-.01.03v.03l-.01.03-.01.03v.03l-.01.03-.01.03-.01.03v.03l-.01.03-.01.03-.01.03-.01.03-.01.03-.01.03-.01.03-.01.03-.01.03-.01.02-.01.03-.01.03-.01.03-.02.03-.01.03-.01.03-.01.03-.01.03-.02.02-.01.03-.01.03-.02.03-.01.03-.02.02-.01.03-.01.03-.02.03-.01.02-.02.03-.02.03-.01.02-.02.03-.01.03-.02.02-.02.03-.01.03-.02.02-.02.03-.02.02-.01.03-.02.03-.02.02-.02.03-.02.02-.02.03-.01.02-.02.02-.02.03-.02.02-.02.03-.01.01-.01.03-.02.02-.01.03-.02.03-.01.03-.02.02-.02.03-.01.03-.02.02-.02.03-.01.03-.02.02-.02.03-.01.02-.02.03-.02.02-.02.03-.02.02-.02.03-.01.02-.02.03-.02.02-.02.03-.02.02-.02.03-.02.02-.02.02-.02.03-.02.02-.02.02-.03.03-.02.02-.02.02-.02.02-.02.03-.02.02-.03.02-.02.02-.02.02-.02.03-.03.02-.02.02-.02.02-.03.02-.02.02-.02.02-.03.02-.02.02-.03.02-.02.02-.02.02-.03.01-.02.02-.03.02-.02.02-.03.02-.03.02-.02.01-.03.02-.02.02-.03.01-.03.02-.02.02-.03.01-.03.02-.02.01-.03.02-.03.02L178 8l-.03.02-.03.01-.03.01-.02.02-.03.01-.03.02-.03.01-.03.01-.03.01-.02.02-.03.01-.03.01-.03.01-.03.02-.03.01-.03.01-.03.01-.03.01-.03.01-.02.01-.03.01-.03.01-.03.01-.03.01-.03.01-.03.01h-.03l-.03.01-.03.01-.03.01-.03.01h-.03l-.03.01-.03.01h-.04l-.03.01h-.03l-.03.01h-.03l-.03.01h-.03l-.03.01h-.03l-.03.01h-.06l-.03.01h-.1l-.03.01h-.47l-.03-.01h-.09l-.03-.01h-.06l-.03-.01h-.03l-.04-.01h-.03l-.03-.01h-.03l-.03-.01h-.03l-.03-.01-.03-.01h-.03l-.03-.01-.03-.01-.03-.01h-.03l-.03-.01-.03-.01-.03-.01-.03-.01-.03-.01h-.03l-.03-.01-.03-.01-.03-.01-.03-.01-.03-.01-.03-.02-.03-.01-.03-.01-.02-.01-.03-.01-.03-.01-.03-.02-.03-.01-.03-.01-.03-.01-.02-.02-.03-.01-.03-.01-.03-.02-.03-.01-.02-.02-.03-.01-.03-.02-.02-.01-.03-.02-.03-.01-.03-.02-.02-.01-.03-.02-.03-.02-.02-.01-.03-.02-.02-.02-.03-.01-.03-.02-.02-.02-.03-.02-.02-.02-.03-.01-.02-.02-.03-.02-.02-.02-.03-.02-.02-.02-.02-.02-.03-.02-.02-.02-.03-.02-.02-.02-.02-.02-.03-.02-.02-.02-.02-.03-.02-.02-.03-.02-.02-.02-.02-.02-.02-.02-.02-.03-.02-.02-.03-.02-.02-.03-.02-.02-.02-.02-.02-.03-.02-.02-.02-.02-.02-.03-.02-.02-.02-.03-.02-.02-.01-.03-.02-.02-.02-.03-.02-.02-.02-.03-.02-.02-.01-.03-.02-.02-.02-.03-.02-.03-.01-.02-.02-.03-.01-.02-.02-.03-.02-.03-.01-.03-.02-.02-.01-.03-.02-.03-.01-.02-.02-.03-.01-.03-.01-.03-.02-.03-.01-.02-.02-.03-.01-.03-.01-.03-.01-.03-.02-.03-.01-.02-.01-.03-.01-.03-.01-.03-.01-.03-.01-.03-.02-.03-.01-.03-.01-.03-.01-.03V5.9l-.01-.03-.01-.03-.01-.03-.01-.03-.01-.03-.01-.03v-.03l-.01-.03-.01-.03-.01-.03v-.03l-.01-.03-.01-.03v-.03l-.01-.03v-.03l-.01-.03v-.03l-.01-.03V5.3l-.01-.04V5.2l-.01-.03v-.09l-.01-.03v-.26l-.01-.01v-.19l-.01-.09v-.12l.01-.14.01-.18.02-.19.02-.15.03-.14.03-.14.04-.16.06-.17.06-.18.08-.19.1-.19.11-.2.13-.2.15-.19.15-.18.16-.17.18-.16.18-.15.18-.13.18-.11.18-.1.17-.08.17-.07.15-.06.14-.05.14-.04.13-.03.12-.03.11-.02.11-.02.09-.02.09-.01.1-.01.14-.01.14-.01h.27z"/>
        <path d="M231.62 36.27h.45l.03.01h.03l.03.01h.03l.03.01h.03l.03.01h.03l.03.02h.03l.03.02h.03l.03.02h.03l.03.02h.03l.03.02h.03l.03.02h.03l.03.02h.03l.03.02h.03l.03.03h.03l.03.03h.03l.02.02h.03l.03.01h.03l.03.02h.03l.03.02h.03l.03.02h.03l.03.02h.03l.03.02h.03l.03.02h.03l.03.02h.03l.03.02h.03l.03.03h.03l.03.03h.03l.03.03h.03l.03.03.03.02.03.02.03.02.03.02.03.02.03.02.03.02.03.02.03.02.03.02.03.02.03.02.03.02.03.02.03.02.03.02.03.02.03.02.03.02.03.02.03.02.03.02.03.02.03.02.03.02.03.02.03.02.03.02.03.02.02.02.03.02.02.02.02.02.02.02.02.02.02.02.02.02.02.02.02.03.02.03.02.02.02.03.02.03.02.03.02.03.02.03.02.03.02.03.02.03.02.03.02.03.02.03.02.03.02.03.02.03.02.03.02.03.02.03.02.03.02.03.02.03.02.03.02.03.02.03.02.03.02.03.02.03.02.03.02.03v.03l.03.03v.03l.03.03v.03l.03.03v.03l.03.03v.03l.03.03v.03l.02.03v.03l.02.03v.03l.02.03v.03l.02.03v.03l.02.03v.03l.02.03v.03l.02.03v.03l.02.03v.03l.01.03v.03l.01.03v.03l.01.03v.03l.01.03v.94l-.01.03v.03l-.01.03v.03l-.01.03v.03l-.01.03v.03l-.02.03v.03l-.02.03v.03l-.02.03v.03l-.02.03v.03l-.02.03v.03l-.02.03v.03l-.02.03v.03l-.02.03v.03l-.02.03v.03l-.03.03v.03l-.03.03v.03l-.03.03v.03l-.03.03-.02.03-.02.03-.02.03-.02.03-.02.03-.02.03-.02.03-.02.03-.02.03-.02.03-.02.03-.02.03-.02.03-.02.03-.02.03-.02.03-.02.03-.02.03-.02.03-.02.03-.02.03-.02.03-.02.03-.02.03-.02.03-.02.03-.02.03-.02.03-.02.03-.02.03-.02.03-.02.02-.02.02-.02.02-.02.02-.02.02-.02.02-.02.02-.02.02-.03.02-.03.02-.03.02-.03.02-.03.02-.03.02-.03.02-.03.02-.03.02-.03.02-.03.02-.03.02-.03.02-.03.02-.03.02-.03.02-.03.02-.03.02-.03.02-.03.02-.03.02-.03.02-.03.02-.03.02-.03.02-.03.02-.03.02-.03.02-.03.02-.03.02-.03.02-.03.02h-.03l-.03.03h-.03l-.03.03h-.03l-.03.03h-.03l-.03.03h-.03l-.03.02h-.03l-.03.02h-.03l-.03.02h-.03l-.03.02h-.03l-.03.02h-.03l-.03.02h-.03l-.03.02h-.03l-.03.02h-.03l-.03.01h-.03l-.03.01h-.03l-.03.01h-.03l-.03.01h-.91l-.12-.02h-.12l-.11-.03-.1-.02-.1-.02-.1-.02-.1-.02-.09-.02-.1-.02-.09-.02-.1-.03-.1-.03-.1-.03-.11-.04-.12-.05-.14-.06-.18-.08-.19-.1-.16-.09-.17-.11-.2-.15-.11-.09-.03-.02-.02-.02-.02-.02-.02-.02-.02-.02-.02-.02-.02-.02-.02-.02-.02-.02-.02-.02-.02-.02-.02-.03-.02-.02-.02-.02-.02-.02-.02-.02-.02-.02-.02-.02-.02-.03-.02-.02-.02-.03-.02-.03-.02-.03-.02-.03-.02-.03-.02-.03-.02-.03-.02-.03-.02-.03-.02-.03-.02-.03-.02-.03-.02-.03-.02-.03-.02-.03-.02-.03-.02-.03-.02-.03-.02-.03-.02-.03-.02-.03-.02-.03v-.03l-.03-.03v-.03l-.03-.03v-.03l-.03-.03v-.03h-.02v-.03l-.03-.03v-.03l-.03-.03v-.03l-.03-.03v-.03l-.02-.03v-.03l-.02-.03v-.03l-.02-.03v-.03l-.02-.03v-.03l-.02-.03v-.03l-.02-.03v-.03l-.02-.03v-.03l-.02-.03v-.03l-.01-.03v-.03l-.01-.03v-.03l-.01-.03v-.06l-.01-.03v-.98l.01-.03v-.04l.01-.03v-.03l.01-.03v-.03l.01-.03v-.03l.02-.03v-.03l.02-.03v-.03l.02-.03v-.03l.02-.03v-.03l.02-.03v-.03l.02-.03v-.03l.02-.03v-.03l.02-.03v-.03l.02-.03v-.03l.03-.03v-.03l.03-.03v-.03l.03-.03v-.03l.03-.03v-.03l.03-.03.02-.03.02-.03.02-.03.02-.03.02-.03.02-.03.02-.03.02-.03.02-.03.02-.03.02-.03.02-.03.02-.03.02-.03.02-.03.02-.03.02-.03.02-.03.02-.03.02-.03.02-.03.02-.03.02-.03.02-.03.02-.03.02-.02.02-.03.02-.02.02-.02.02-.02.02-.02.02-.02.02-.02.02-.02.03-.03.02-.02.02-.02.02-.02.03-.02.02-.02.03-.02.03-.02.03-.02.03-.02.03-.02.03-.02.03-.02.03-.02.03-.02.03-.02.03-.02.03-.02.03-.02.03-.02.03-.02.03-.02.03-.02.03-.02.03-.02.03-.02.03-.02.03-.02.03-.02.03-.02.03-.02.03-.02.03-.02h.03l.03-.03h.03l.03-.03.04-.02h.03l.03-.03h.03l.03-.03h.03l.03-.02h.03l.03-.02h.03l.03-.02h.03l.03-.02.15-.05.25-.06.19-.04.17-.02h.14l.12-.02h.31Zm0 7.28h.02-.02Zm.72-7.05Z" fill-rule="evenodd" fill="#f5ad3b" stroke="#f5ad3b" stroke-miterlimit="10"/>
        <path d="M241.42 106.72a.7.7 0 0 1-.45-.17c-26.01-23.1-58.25-23.43-80.71-19.64-24.4 4.12-42.88 13.86-43.06 13.96-.33.17-.75.05-.92-.28a.677.677 0 0 1 .28-.92c.19-.1 18.83-9.93 43.44-14.09 22.76-3.85 55.45-3.51 81.88 19.96a.68.68 0 0 1-.45 1.19Z" fill="#f5ad3b" stroke="#f5ad3b" stroke-miterlimit="10"/>
        <path fill-rule="evenodd" fill="#f5ad3b" stroke="#f5ad3b" stroke-miterlimit="10" d="M240.52 102.93h.15l.02.01h.11l.03.01h.08l.03.01h.04l.02.01h.07l.02.01h.02l.02.01h.04l.02.01h.03l.02.01h.02l.02.01h.02l.02.01h.02l.03.01h.02l.02.01h.02l.02.01h.02l.02.01h.02l.02.01.03.01h.02l.02.01.02.01h.02l.02.01.02.01.02.01h.02l.02.01.02.01h.02l.02.01.02.01.02.01.02.01.03.01h.02l.02.01.02.01.02.01.02.01.02.01.02.01.02.01.02.01h.01l.02.01.02.01.02.01.02.01.02.01.02.01.02.01.02.01.02.02.02.01.02.01.02.01.02.01.01.01.02.01.02.01.02.01.02.02.02.01.02.01.02.01.01.01.02.01.02.02.02.01.02.01.01.01.02.02.02.01.02.01.02.02.01.01.02.01.02.02.01.01.02.01.02.02.02.01.01.01.02.02.02.01.01.02.02.01.02.01.01.02.02.01.02.02.01.01.02.02.01.01.02.02.02.01.01.02.02.01.01.02.02.01.01.02.02.02.01.01.02.02.01.01.02.02.01.02.02.01.01.02.02.01.01.02.02.02.01.01.02.02.01.02.01.01.02.02.01.02.01.02.02.01.01.02.01.02.02.01.01.02.01.02.02.02.01.02.01.01.01.02.02.02.01.02.01.02.01.01.02.02.01.02.01.02.01.02.01.02.01.01.02.02.01.02.01.02.01.02.01.02.01.02.01.02.01.02.01.02.01.01.01.02.01.02.01.02.01.02.01.02.01.02.01.02.01.02.01.02.01.02.01.02.01.02.01.02v.02l.01.02.01.02.01.02.01.02.01.02v.02l.01.02.01.02.01.02v.03l.01.02.01.02.01.02v.02l.01.02.01.02v.02l.01.02.01.02v.02l.01.02v.03l.01.02.01.02v.02l.01.02v.02l.01.02v.02l.01.03v.02l.01.02v.02l.01.02v.04l.01.03v.02l.01.02v.04l.01.02v.07l.01.02v.04l.01.03v.08l.01.02v.16l.01.02v.22l-.01.02v.15l-.01.03v.08l-.01.02v.05l-.01.02v.06l-.01.03v.04l-.01.02v.02l-.01.02v.05l-.01.02v.02l-.01.02v.02l-.01.02v.03l-.01.02v.02l-.01.02v.02l-.01.02-.01.02v.02l-.01.02v.03l-.01.02-.01.02v.02l-.01.02-.01.02v.02l-.01.02-.01.02-.01.02v.02l-.01.02-.01.02-.01.02v.03l-.01.02-.01.02-.01.02-.01.02-.01.02v.02l-.01.02-.01.02-.01.02-.01.02-.01.02-.01.02-.01.02-.01.02-.01.02-.01.01-.01.02-.01.02-.01.02-.01.02-.01.02-.01.02-.01.02-.01.02-.01.02-.01.02-.01.02-.01.02-.02.01-.01.02-.01.02-.01.02-.01.02-.01.02-.02.01-.01.02-.01.02-.01.02-.02.02-.01.02-.01.01-.01.02-.02.02-.01.02-.01.01-.02.02-.01.02-.01.02-.02.01-.01.02-.01.02-.02.01-.01.02-.01.02-.02.01-.01.02-.02.02-.01.01-.02.02-.01.02-.02.01-.01.02-.02.02-.01.01-.02.02-.01.01-.02.02-.01.01-.02.02-.01.01-.02.02-.01.02-.02.01-.02.02-.01.01-.02.02-.01.01-.02.01-.02.02-.01.01-.02.02-.02.01-.01.02-.02.01-.02.01-.01.02-.02.01-.02.02-.02.01-.01.01-.02.02-.02.01-.01.01-.02.01-.02.02-.02.01-.02.01-.01.02-.02.01-.02.01-.02.01-.02.01-.01.02-.02.01-.02.01-.02.01-.02.01-.02.01-.02.02-.02.01-.01.01-.02.01-.02.01-.02.01-.02.01-.02.01-.02.01-.02.01-.02.01-.02.01-.02.01-.02.01-.02.01-.02.01-.01.01-.02.01-.02.01-.02.01-.02.01-.02.01-.02.01-.02.01h-.02l-.02.01-.03.01-.02.01-.02.01h-.02l-.02.01-.02.01-.02.01-.02.01h-.02l-.02.01-.02.01h-.02l-.02.01-.02.01h-.02l-.02.01-.03.01h-.02l-.02.01-.02.01h-.02l-.02.01h-.02l-.02.01h-.02l-.03.01h-.02l-.02.01h-.02l-.02.01h-.02l-.02.01h-.05l-.02.01h-.02l-.02.01h-.04l-.03.01H241l-.02.01h-.07l-.02.01h-.09l-.02.01h-.13l-.02.01h-.53l-.02-.01h-.13l-.02-.01h-.09l-.02-.01h-.07l-.02-.01h-.04l-.02-.01h-.05l-.02-.01h-.02l-.02-.01h-.04l-.03-.01h-.02l-.02-.01h-.02l-.02-.01h-.02l-.02-.01h-.02l-.03-.01h-.02l-.02-.01h-.02l-.02-.01-.02-.01h-.02l-.02-.01-.02-.01h-.03l-.02-.01-.02-.01h-.02l-.02-.01-.02-.01h-.02l-.02-.01-.02-.01-.02-.01-.02-.01h-.02l-.02-.01-.02-.01-.02-.01-.02-.01h-.02l-.02-.01-.02-.01-.02-.01-.02-.01-.02-.01-.02-.01-.02-.01-.02-.01-.02-.01-.02-.01-.02-.01-.02-.01-.02-.01-.02-.01-.02-.01-.02-.01-.02-.01-.02-.01-.02-.01-.02-.01-.01-.01-.02-.01-.02-.01-.02-.02-.02-.01-.02-.01-.02-.01-.02-.01-.01-.01-.02-.02-.02-.01-.02-.01-.02-.01-.01-.01-.02-.02-.02-.01-.02-.01-.02-.02-.01-.01-.02-.01-.02-.01-.02-.02-.01-.01-.02-.01-.02-.02-.01-.01-.02-.02-.02-.01-.01-.01-.02-.02-.02-.01-.01-.02-.02-.01-.02-.02-.01-.01-.02-.01-.02-.02-.01-.01-.02-.02-.01-.01-.02-.02-.02-.02-.01-.01-.02-.02-.01-.01-.02-.02-.01-.01-.02-.02-.01-.01-.02-.02-.01-.02-.02-.01-.01-.02-.02-.02-.01-.01-.02-.02-.01-.02-.01-.01-.02-.02-.01-.02-.02-.01-.01-.02-.01-.02-.02-.01-.01-.02-.01-.02-.02-.02-.01-.01-.01-.02-.02-.02-.01-.02-.01-.01-.01-.02-.02-.02-.01-.02-.01-.02-.01-.02-.01-.01-.02-.02-.01-.02-.01-.02-.01-.02-.01-.02-.01-.01-.02-.02-.01-.02-.01-.02-.01-.02-.01-.02-.01-.02-.01-.02-.01-.02-.01-.02-.01-.02-.01-.02-.01-.02-.01-.01-.01-.02-.01-.02-.01-.02-.01-.02-.01-.02-.01-.02-.01-.02-.01-.02v-.02l-.01-.02-.01-.02-.01-.02-.01-.02-.01-.02v-.02l-.01-.03-.01-.02-.01-.02-.01-.02v-.02l-.01-.02-.01-.02v-.02l-.01-.02-.01-.02v-.02l-.01-.02-.01-.02v-.02l-.01-.03-.01-.02v-.02l-.01-.02v-.02l-.01-.02v-.02l-.01-.02-.01-.02v-.05l-.01-.02v-.02l-.01-.02v-.02l-.01-.02v-.03l-.01-.02v-.04l-.01-.02v-.05l-.01-.02v-.04l-.01-.02v-.07l-.01-.02v-.09l-.01-.02v-.52l.01-.03v-.08l.01-.02v-.07l.01-.02v-.04l.01-.03v-.04l.01-.02v-.04l.01-.03v-.02l.01-.02v-.02l.01-.02v-.02l.01-.02v-.05l.01-.02.01-.02v-.02l.01-.02v-.02l.01-.02v-.03l.01-.02.01-.02v-.02l.01-.02.01-.02v-.02l.01-.02.01-.02v-.02l.01-.02.01-.02v-.03l.01-.02.01-.02.01-.02.01-.02v-.02l.01-.02.01-.02.01-.02.01-.02.01-.02v-.02l.01-.02.01-.02.01-.02.01-.02.01-.02.01-.02.01-.02.01-.02.01-.02.01-.02.01-.02.01-.02.01-.01.01-.02.01-.02.01-.02.01-.02.01-.02.01-.02.01-.02.02-.02.01-.02.01-.01.01-.02.01-.02.01-.02.02-.02.01-.02.01-.01.01-.02.01-.02.02-.02.01-.02.01-.01.01-.02.02-.02.01-.02.01-.02.02-.01.01-.02.01-.02.02-.01.01-.02.01-.02.02-.02.01-.01.02-.02.01-.02.01-.01.02-.02.01-.02.02-.01.01-.02.02-.01.01-.02.02-.02.01-.01.02-.02.01-.01.02-.02.01-.02.02-.01.01-.02.02-.01.02-.02.01-.01.02-.02.01-.01.02-.02.02-.01.01-.02.02-.01.02-.02.01-.01.02-.01.02-.02.01-.01.02-.02.02-.01.01-.01.02-.02.02-.01.01-.01.02-.02.02-.01.02-.01.01-.02.02-.01.02-.01.02-.02.02-.01.01-.01.02-.01.02-.02.02-.01.02-.01.01-.01.02-.01.02-.01.02-.02.02-.01.02-.01.02-.01.02-.01.01-.01.02-.01.02-.01.02-.01.02-.02.02-.01.02-.01.02-.01.02-.01.02-.01.02-.01.02-.01.02-.01h.02l.02-.01.02-.01.02-.01.02-.01.02-.01.02-.01.02-.01.02-.01h.02l.02-.01.02-.01.02-.01.02-.01.02-.01h.02l.02-.01.02-.01h.02l.02-.01.02-.01.02-.01h.02l.02-.01.03-.01h.02l.02-.01.02-.01h.02l.02-.01h.02l.02-.01h.02l.03-.01h.02l.02-.01h.02l.02-.01h.02l.02-.01h.02l.03-.01h.02l.02-.01h.04l.02-.01h.03l.02-.01h.06l.02-.01h.05l.02-.01h.09l.02-.01h.11l.02-.01h.46z"/>
        <path d="M116.77 95.92h.72l.03.01h.02l.03.01h.02l.03.01h.02l.03.01h.02l.02.01h.03l.02.01h.02l.02.01h.02l.02.01h.02l.02.01h.02l.02.02h.02l.02.02h.02l.02.02h.02l.02.02h.02l.02.02h.02l.02.02h.02l.02.02h.02l.02.02h.02l.02.02h.02l.02.02h.02l.02.02h.02l.02.02h.02l.02.02h.02l.02.02h.02l.02.02h.02l.02.03h.02l.02.03h.02l.02.03h.02l.02.03h.02l.02.03h.02l.02.03h.02l.02.03.02.02h.02l.02.03.02.02.02.02.02.02.02.02.02.02.02.02.02.02.02.02.02.02.02.02.02.02.02.02.02.02.02.02.02.02.02.02.02.02.02.02.02.02.02.02.02.02.02.02.02.02.02.02.02.02.02.02.02.02.02.02.02.02.02.02.02.02.02.02.02.02.02.02.02.02.02.02.02.02.02.02.02.02.02.02.02.02.02.02v.02l.03.02.02.02v.02l.03.02v.02l.03.02v.02l.03.02v.02l.03.02v.02l.03.02v.02l.03.02v.02l.03.02v.02l.02.02v.02l.02.02v.02l.02.02v.02l.02.02v.02l.02.02v.02l.02.02v.02l.02.02v.02l.02.02v.02l.02.02v.02l.02.02v.02l.02.02v.02l.02.02v.02l.02.02v.02l.02.02v.02l.02.02v.02l.02.02v.02l.01.02v.02l.01.02v.02l.01.02v.03l.01.02v.02l.01.03v.02l.01.02v.03l.01.02v1.62l-.01.02v.03l-.01.02v.03l-.01.02v.02l-.01.03v.02l-.01.02v.02l-.01.02v.02l-.01.02v.02l-.01.02v.02l-.02.02v.02l-.02.02v.02l-.02.02v.02l-.02.02v.02l-.02.02v.02l-.02.02v.02l-.02.02v.02l-.02.02v.02l-.02.02v.02l-.02.02v.02l-.02.02v.02l-.02.02v.02l-.02.02v.02l-.02.02v.02l-.02.02v.02l-.03.02v.02l-.03.02v.02l-.03.02v.02l-.03.02v.02l-.03.02v.02l-.03.02v.02l-.03.02v.02l-.03.02v.02l-.03.02v.02l-.03.02-.02.02-.02.02-.02.02-.02.02-.02.02-.02.02-.02.02-.02.02-.02.02-.02.02-.02.02-.02.02-.02.02-.02.02-.02.02-.02.02-.02.02-.02.02-.02.02-.02.02-.02.02-.02.02-.02.02-.02.02-.02.02-.02.02-.02.02-.02.02-.02.02-.02.02-.02.02-.02.02-.02.02-.02.02-.02.02-.02.02-.02.02-.02.02-.02.02-.02.02-.02.02-.02.02-.02.02-.02.02-.02.02-.02.02-.02.02-.02.02-.02.02-.02.02-.02.02-.02.02-.02.02h-.02l-.02.03-.02.02h-.02l-.02.03h-.02l-.02.03h-.02l-.02.03h-.02l-.02.03h-.02l-.02.03h-.02l-.02.03h-.02l-.02.03h-.02l-.02.03h-.02l-.02.02h-.02l-.02.02h-.02l-.02.02h-.02l-.02.02h-.02l-.02.02h-.02l-.02.02h-.02l-.02.02h-.02l-.02.02h-.02l-.02.02h-.02l-.02.02h-.02l-.02.02h-.02l-.02.02h-.02l-.02.02h-.02l-.02.02h-.02l-.02.02h-.02l-.02.01h-.02l-.02.01h-.02l-.02.01h-.02l-.03.01h-.02l-.02.01h-.03l-.02.01h-.03l-.02.01h-.08l-.03.01h-1.49l-.03-.01h-.02l-.03-.01h-.02l-.03-.01h-.02l-.03-.01h-.02l-.02-.01h-.02l-.02-.01h-.02l-.03-.01h-.02l-.02-.01h-.02l-.02-.01h-.02l-.02-.02h-.02l-.02-.02h-.02l-.02-.02h-.02l-.02-.02h-.02l-.02-.02h-.02l-.02-.02h-.02l-.02-.02h-.02l-.02-.02h-.02l-.02-.02h-.02l-.02-.02h-.02l-.02-.02h-.02l-.02-.02-.09-.04-.14-.08-.14-.09-.1-.07-.09-.06-.1-.07-.1-.08-.11-.1-.12-.11-.13-.13-.14-.15-.14-.18-.15-.21-.15-.25-.07-.14v-.02l-.02-.02v-.02l-.02-.02v-.02l-.02-.02v-.02l-.02-.02v-.02l-.02-.02v-.02l-.02-.02v-.02l-.02-.02v-.05l-.02-.02v-.02l-.02-.02v-.02l-.02-.02v-.02l-.01-.02v-.02l-.01-.02v-.02l-.01-.02v-.02l-.01-.02v-.05l-.01-.02v-.02l-.01-.02v-.02l-.01-.02v-.02l-.01-.02v-1.29l.01-.02v-.02l.01-.02v-.03l.01-.02v-.02l.01-.02v-.02l.01-.02v-.02l.01-.02v-.02l.01-.02v-.02l.01-.02v-.02l.02-.02v-.02l.02-.02v-.02l.02-.02v-.02l.02-.03v-.02l.02-.02v-.02l.02-.02v-.02l.02-.02v-.02l.02-.02v-.02l.02-.02v-.02l.02-.02v-.02l.02-.02v-.02l.02-.02v-.02l.02-.03v-.02l.02-.02v-.02l.02-.02v-.02l.02-.02v-.02l.03-.02v-.02l.03-.02v-.02l.03-.02v-.02l.03-.02v-.02l.03-.03v-.02l.03-.02v-.02l.03-.02.02-.02v-.02l.03-.02v-.02l.03-.02.02-.02.02-.02.02-.02.02-.02.02-.02.02-.02.02-.02.02-.02.02-.02.02-.02.02-.02.02-.02.02-.02.02-.02.02-.02.02-.02.02-.02.02-.02.02-.02.11-.11.21-.18.2-.15.18-.12.17-.1.19-.1.23-.1.23-.08.19-.06.17-.04.15-.03.13-.02.12-.02h.11l.1-.02h.1l.09-.01h.36Zm1.4.68-.02-.01h.02Z" fill-rule="evenodd" fill="#f5ad3b" stroke="#f5ad3b" stroke-miterlimit="10"/>
    </g>
</svg>
