<?xml version="1.0" encoding="UTF-8"?>
<svg data-bbox="-0.002 0 731.563 978.07" viewBox="0 0 731.56 978.05" xmlns="http://www.w3.org/2000/svg" data-type="color">
    <g>
        <path d="M668.97 832.19c1.58-3.14 3.59-6.06 5.79-8.84 1.17-3.99 2.58-7.92 4.24-11.78-.05-9.48 3.93-18.16 12.25-27.66 3.21-3.67 4.79-10.1 4.58-15.15-.45-10.42-2.99-20.73-3.92-31.15-.51-5.8-1.8-14.87 1.21-17.07 14.67-10.74 7.56-22.09 1.32-31.92-6.72-10.58-15.39-20.28-24.64-28.81-20.02-18.46-40.96-35.93-59.61-52.13 4.56-7.2 8.94-14.1 13.31-21-7.66-4.75-14.88-10.57-23.1-13.92-6.78-2.76-14.75-2.61-22.1-3.73-.43-3.81-.79-5.97-.91-8.13-.72-13.59-4.66-28.74-19.29-28.21-10.28.37-22.14 10.59-29.67 19.48-8.33 9.84-2.3 31.91 8.72 40.57 11.07 8.71 21.45 7.69 32.91-1.45 5.13-4.1 14.37-3.05 21.74-4.34-2.39 7.64-7.93 11.1-8.33 15.08-.65 6.42.46 18 3.62 19.05 31.08 10.4 49.41 36.67 72.84 56.41 10.37 8.73 21.92 17.67 10.66 34.26-2.59 3.82-1.12 10.81-.6 16.26 1.14 11.99 2.86 23.93 4.31 35.63-18.63 8.38-19.09 10.45-17.09 28.91 1.04 9.63-1.56 19.6-1.63 29.42-.05 7.45-.79 15.96 2.35 22.21 1.17 2.34 2.32 4.68 3.46 7.03 1.54-6.55 4.62-13.06 7.61-19.01Z" fill="#f5ad3c" data-color="1"/>
        <path d="M128.76 738.11c1.73 9.34 2.27 18.15 4.23 27.42 2.48 7.13 3.78 13.95 6.48 21.01 5.14 13.44 8.78 26.48 11.26 40.17 8.99-22.1 12.62-45.71 7.67-71.46-6.75-35.17-11.34-70.75-17.47-106.05-.67-3.88-5.04-9.71-8.04-9.94-3.59-.27-8.47 3.85-11.07 7.34-2.03 2.73-2.21 7.49-1.85 11.22 2.61 26.81 3.9 53.88 8.79 80.29Z" fill="#f5ad3c" data-color="1"/>
        <path d="M467.38 377.38c3.64 15.26-7.21 15.8-16.64 14.66-53.37-6.43-104.02 10.03-155.71 17.67-4.33.64-8.63 1.89-12.75 3.39-28.35 10.32-36.64 7.82-52.87-18.7-25.08-40.98-48.36-83.11-74.69-123.25-23.5-35.83-50.09-69.64-75.32-104.34l-5.28 1.53c-1.23 6.6-3.5 13.19-3.54 19.8-.43 73.87-15.32 145.88-27.61 218.23-5.27 31.03-10.44 62.08-15.15 93.2-3.39 22.39-.46 26.65 21.89 32.71 17.05 4.62 35 6.76 51.25 13.25 9.63 3.84 20.07 12.51 24.16 21.67 5.48 12.3-7.21 19.03-16.18 25.49-10.76 7.75-20.99 16.45-32.5 22.83-4.37 2.42-11.66-.43-17.62-.88.88-5.52-.14-12.71 2.99-16.23 8.33-9.37 18.43-17.15 29.94-27.45-18.75-4.86-35.58-8.89-52.22-13.6-32.6-9.23-43.59-25.08-38.24-58.67 12.75-80.17 27.05-160.09 39.35-240.32 3.99-26.04 3.2-52.77 5.61-79.1 1.45-15.79 1.9-34.8 20.87-39.52 17.75-4.42 28.92 9.81 39.52 22.18 56.82 66.26 99.76 141.61 142.08 217.33 6.56 11.73 11.86 14.07 26.73 11.05 59.65-12.09 119.08-31.55 181.29-16.22 3.73.92 7.32 2.4 10.98 3.62l-.34-.34Z" fill="#f5ad3c" data-color="1"/>
        <path d="M467.72 377.71c1.82-6.1 2.39-12.98 5.65-18.16 22.03-35.06 45.53-69.22 66.76-104.74 18.06-30.21 33.79-61.83 50.42-92.89 3.38-6.32 5.55-13.34 9.38-19.34 9.33-14.61 28.33-19.73 41.72-8.58 10.52 8.76 19.35 21.04 25.33 33.48 29.8 61.96 40.56 129.23 52.26 196.13 4.65 26.6 9.41 53.26 12.11 80.09 1.87 18.59-8.77 29.22-27.4 29.7-4.95.13-11.98-3.32-14.37-7.32-1.74-2.92 1.19-12.34 4.41-13.86 13.12-6.21 10.73-16.02 8.76-26.55-11.57-61.84-21.77-123.97-35.1-185.43-5.56-25.64-17.21-50.05-27.11-74.6-2.41-5.98-8.83-10.35-15.07-17.31-4.43 7.08-8.14 11.23-9.9 16.09-18.26 50.52-49.52 93.52-78.99 137.57-15.95 23.84-32.32 47.41-47.81 71.54-6.35 9.89-12.77 10.81-21.39 3.86l.34.34Z" fill="#f5ad3c" data-color="1"/>
        <path d="M301.15 615.59c4.64 21.48 3.54 22.45-16.3 27.54-9.38 2.41-18.17 7.09-29.07 11.48 5.07 7.14 9.01 12.16 12.37 17.54 10.28 16.46 7.06 27.06-9.84 36.49-16.26 9.07-32.12 18.86-50.53 29.74 36.7 20.96 4.94 35.29-1.36 51.48 1.06 1.27 1.72 2.71 2.34 2.7 30.41-.56 35.67 8.1 25.43 36.91-8.06 22.69-13.56 46.29-20.37 70.09-15.42-1.98-20.06-11.94-17.99-24.57 2.91-17.81 7.72-35.32 11.71-52.94-28.77-3.99-44.29-8.17-16.97-57.76-23.81-6.14-27.23-16.11-8.43-32.71 20.09-17.73 42.6-32.73 64.07-48.94-3.15-10.96-12.58-25.79-8.87-35.67 4.05-10.77 20.3-16.95 32.22-25.87q.56-22.56 35.06-27.79c-.16-5.27-1.66-11.04-.17-15.88 2.11-6.86 4.96-16.33 10.18-18.67 6.19-2.76 16.35-1.23 22.8 2.2 11.61 6.17 17.17 26.27 12.34 38.24-5.58 13.8-16.68 18.1-30.78 16.85-5.39-.48-10.83-.29-17.85-.45Z" fill="#f5ad3c" data-color="1"/>
        <path d="M456.78 768.84c1.53-15.15-1.99-26.79-15.39-34.54-5.03-2.91-9.14-8.05-12.62-12.93-18.17-25.5-9.88-49.25 20.63-55.07 12.85-2.45 27.59-1.98 40 1.87 18.48 5.73 23.29 18.88 15.97 36.87-3.88 9.55-8.47 20.44-16.1 26.48-13.59 10.75-15.82 24-15.53 39.22.06 3.31 1.01 7.17-.35 9.8-1.99 3.84-5.69 6.8-8.66 10.14-2.53-3.19-6.09-6.03-7.31-9.66-1.35-4-.55-8.72-.65-12.18Z" fill="#f5ad3c" data-color="1"/>
        <path d="M349.9 933.58c-6.92 10.12-11.41 18.3-17.49 25.06-4.39 4.89-11.02 11.09-16.39 10.85-5.49-.25-13.98-6.77-15.35-12.06-4.51-17.39-6.89-35.41-8.83-53.32-.36-3.29 5.16-7.22 7.97-10.85 3.29 3.1 8.2 5.63 9.54 9.42 3.19 9.04 4.69 18.67 6.31 25.66 15.19-6.32 30.56-18.72 42.05-15.81 11.34 2.87 18.76 21.23 28.06 32.98 35.8-20.29 66.99-7.37 66.83 32.56-10.17-5.89-19.36-10.28-27.46-16.17-9.07-6.58-15.94-4.86-23.23 2.47-16.92 17.01-24.7 16.31-37.88-3.8-4.75-7.25-8.13-15.41-14.11-26.97Z" fill="#f5ad3c" data-color="1"/>
        <path d="M171.25 547.38c5.12-8.27 7.73-15.87 12.99-20.4 24.69-21.27 53.41-30.41 85.96-24.63 5.22.93 10.43 3.62 14.86 6.64 2.04 1.39 3.17 5.64 2.86 8.39-.17 1.52-4.24 3.87-6.4 3.72-34.56-2.46-65.04 9.52-94.36 25.97-1.88 1.05-4.1 1.69-6.24 1.99-1.5.21-3.12-.48-9.67-1.68Z" fill="#f5ad3c" data-color="1"/>
        <path d="M210.6 479.7c14.34-15.97 31.81-18.08 50.84-14.49 31.47 5.93 65.68 28.93 72.27 53.29-22.1-10.65-40.03-21.89-59.56-27.97-19.89-6.19-41.37-7.29-63.55-10.84Z" fill="#f5ad3c" data-color="1"/>
        <path d="M640.49 431.73c-20.14 10.74-41.06 20.29-60.12 32.68-10.54 6.85-17.8 18.64-26.91 27.83-3.1 3.13-7.34 5.15-11.05 7.67-1.49-4.77-5.49-10.64-3.98-14.09 3.65-8.31 8.59-16.98 15.31-22.87 24.64-21.58 54.04-31.79 86.76-31.23Z" fill="#f5ad3c" data-color="1"/>
        <path d="M676.11 493.91c-11.42.35-19.57-.45-27.26 1.06-15.5 3.06-30.71 7.56-46.13 11.05-3.89.88-9.5 1.8-11.79-.19-2.06-1.79-2.19-8.43-.5-11.45 11.34-20.35 68.08-23.18 85.69-.47Z" fill="#f5ad3c" data-color="1"/>
        <path d="M184.09 602.9c-9.73-11.72-6.74-22.59.99-33.01 12.42-16.76 32.46-24.73 49.93-18.54-16.96 17.18-33.27 33.68-50.91 51.55Z" fill="#f5ad3c" data-color="1"/>
        <path d="M703.77 544.54c-19.84-5.53-38.76-10.65-57.55-16.2-2.84-.84-5.82-3.26-7.28-5.79-.69-1.2 1.44-5.22 3.3-6.53 17.57-12.38 57.94 6.23 61.52 28.53Z" fill="#f5ad3c" data-color="1"/>
        <path d="M121.58 600.25c1.04 3.52 4.85 9.29 3.31 12.44-5.5 11.26-11.98 22.29-19.73 32.11-5.37 6.8-13.1 6.06-17.01-2.64-4.21-9.37 18.76-41.46 33.43-41.9Z" fill="#f5ad3c" data-color="1"/>
        <path d="M577.26 860.08c9.5 5.28 17.96 12.24 25.55 19.99 3.92 4 6.22 7.05 9.12 12.29.14.25 1.48 3.5.58 1.15.49 1.28.79 2.62 1.04 3.97.09.65.21 1.3.36 1.94-.31-2.12-.23-1.49.24 1.91.36 1.76 1.09 3.38 1.89 4.98 3.09 6.13 11.2 6.04 15.79 2.03 6.22-5.43 5.63-15.05 2.88-22.05-2.95-7.52-7.67-13.65-13.57-19.11-10.73-9.91-23.96-17.01-37.66-21.89-8.75-3.11-14.13 10.39-6.23 14.78Z" fill="#f5ad3c" data-color="1"/>
        <path d="M579.68 897.21c1.56 8.46 4.07 16.67 5.34 25.2 1.97 13.27 25.08 6.86 19.9-5.49-3.34-7.98-7.13-15.73-9.92-23.94-3.33-9.78-17.17-5.81-15.32 4.22Z" fill="#f5ad3c" data-color="1"/>
        <path d="M557.34 932.31c11.88 0 11.88-18.42 0-18.42s-11.88 18.42 0 18.42Z" fill="#f5ad3c" data-color="1"/>
        <path d="M610.29 257.15c-2.45 9.63-8.23 18.54-13.83 27.2-7.32 11.31-14.85 22.46-21.43 34.24-12.87 23.05-22.49 51.76-3.53 74.35 7.99 9.52 23.94 1.61 23.76-9.84-.16-10.02 1.33-19.98 1.23-30-8.61 1.17-17.22 2.33-25.83 3.5 1.79 4.87 4.16 9.35 6.73 13.84 2.74 4.81 4.99 9.86 10.17 12.56 7.1 3.7 14.03.18 16.84-6.85 2.24-5.61-.07-11.25-2.74-16.2-1.01-1.88-2.1-3.72-3.15-5.58-.52-.91-1.02-1.83-1.51-2.75.02.04-1.82-4.3-.98-2.01-5.05-13.72-25.3-11.87-25.83 3.5-.35 10.05-2.41 19.95-2.77 30l23.76-9.84c-2.24-2.61 1.68 2.44-.27-.29-.74-1.03-1.38-2.14-2-3.24-.3-.55-.58-1.1-.84-1.67.75 1.85.85 2.08.32.69-.43-1.16-.74-2.37-1.04-3.57-.18-.75-.65-3.94-.16-.15-.17-1.27-.22-2.56-.26-3.84-.04-1.32.02-2.63.09-3.95.04-.67.62-5.09.11-1.64.8-5.45 2.39-10.8 4.14-16.01 2.25-6.7 3.71-9.87 6.62-16.15 5.13-11.07 10.82-21.85 15.92-32.94 4.31-9.37 9.08-19.14 10.57-29.45 1.31-9.05-11.71-13.27-14.1-3.89Z" fill="#f5ad3c" data-color="1"/>
        <path d="M126.12 334.15c8.21 18.52 17.44 36.55 25.95 54.92 4.08 8.81 7.79 17.78 11.05 26.93 1.61 4.52 3 9.11 4.22 13.74.53 2 .97 4.02 1.4 6.04.21 1 .4 2 .58 3-.03-.17.71 4.72.4 2.33l20.49-11.76c-8.62-6.5-19.17-9.81-27.89-16.19-6.66-4.87-19.16-.16-20.32 8.27-.96 6.98-1.48 13.89-1.72 20.92-.11 3.33-.25 6.66-.48 9.99 0-.14-.53 4.97-.16 2.39-.2 1.4-.54 2.78-.89 4.15-1.68 6.59 1.24 11.88 6.4 15.73 1.9 1.41 4.73 1.95 7.03 1.9 6.18-.13 11.8-4.15 13.43-10.22 3.59-13.43 1.84-27.52 3.55-41.19-6.94 3.98-13.88 7.96-20.81 11.94 8.79 6.27 19.22 9.68 28.11 15.81 10.5 7.25 22.4-4.62 20-15.38-9.21-41.25-37.95-74.5-59.91-109.43-4.24-6.74-13.54-.89-10.44 6.1Z" fill="#f5ad3c" data-color="1"/>
        <path fill-rule="evenodd" fill="#f5ad3c" d="m421.5 223.87.88.18.86.26.83.34.79.43.74.5.7.57.63.63.57.69.5.75.42.79.34.83.26.86.17.88.09.89v.9l-.09.89-.18.88-.26.86-.34.83-.43.79-.5.75-.57.69-.63.63-.7.57-.74.5-.4.24-.41.24-.41.24-.41.24-.41.25-.42.24-.41.24-.41.24-.42.24-.41.24-.42.24-.41.23-.43.24-.41.24-.43.23-.42.24-.42.23-.43.23-.42.24-.43.23-.43.23-.43.23-.43.23-.43.23-.44.22-.43.23-.44.22-.44.23-.44.22-.44.22-.44.22-.44.22-.45.22-.45.22-.45.21-.45.22-.45.21-.46.21-.45.21-.46.21-.46.21-.46.2-.47.2-.46.21-.47.2-.47.2-.47.19-.47.2-.48.19-.47.2-.48.19-.48.19-.49.18-.48.19-.49.18-.49.18-.49.18-.49.18-.5.17-.49.18-.51.17-.5.17-.5.16-.51.17-.5.16-.52.16-.51.16-.52.15-.51.16-.52.15-.53.14-.52.15-.53.14-.53.15-.53.13-.53.14-.54.13-.53.13-.28.07-.27.06-.27.07-.28.06-.27.06-.27.06-.28.06-.27.06-.28.06-.28.06-.27.06-.28.05-.28.06-.28.06-.28.05-.28.06-.28.05-.28.05-.28.05-.28.05-.29.06-.28.05-.29.05-.28.04-.29.05-.28.05-.29.05-.29.04-.29.05-.29.04-.29.04-.29.05-.29.04-.29.04-.29.04-.3.04-.29.04-.29.04-.3.03-.3.04-.29.04-.3.03-.3.03-.3.04-.3.03-.3.03-.3.03-.3.03-.3.03-.3.03-.31.03-.3.03-.31.02-.31.03-.3.02-.31.02-.31.03-.31.02-.3.02-.32.02-.31.02-.31.02-.31.02-.31.02-.32.01-.31.02-.32.01-.31.01-.32.02-.32.01-.32.01-.32.01-.32.01-.32.01-.32.01h-.32l-.32.01-.33.01h-.97l-.33.01h-.98l-.33-.01h-.66l-.34-.01h-.33l-.33-.01-.34-.01-.33-.01h-.34l-.34-.01-.33-.02-.34-.01-.34-.01-.34-.01-.34-.02-.55-.02-.54-.03-.55-.03-.54-.03-.54-.03-.54-.03-.54-.03-.53-.03-.54-.04-.53-.04-.53-.03-.53-.04-.53-.04-.53-.04-.52-.05-.52-.04-.53-.04-.52-.05-.52-.05-.52-.05-.51-.04-.52-.05-.51-.06-.51-.05-.51-.05-.51-.06-.51-.05-.5-.06-.51-.06-.5-.06-.5-.06-.5-.06-.5-.06-.49-.06-.5-.07-.49-.06-.49-.07-.49-.07-.49-.06-.49-.07-.48-.07-.48-.07-.49-.08-.48-.07-.47-.07-.48-.08-.48-.07-.47-.08-.47-.08-.47-.07-.47-.08-.47-.08-.46-.08-.47-.09-.46-.08-.46-.08-.46-.09-.46-.08-.45-.09-.46-.08-.45-.09-.45-.09-.45-.09-.44-.09-.45-.08-.44-.1-.45-.09-.44-.09-.44-.09-.43-.1-.44-.09-.43-.1-.43-.09-.43-.1-.43-.1-.43-.09-.42-.1-.43-.1-.42-.1-.42-.1-.42-.1-.41-.1-.42-.1-.41-.1-.41-.11-.41-.1-.41-.11-.4-.1-.41-.11-.4-.1-.4-.11-.4-.1-.4-.11-.39-.11-.39-.11-.4-.11-.39-.1-.38-.11-.39-.11-.39-.11-.38-.11-.38-.11-.38-.12-.38-.11-.37-.11-.38-.11-.37-.11-.37-.12-.36-.11-.37-.12-.37-.11-.36-.11-.36-.12-.36-.12-.36-.11-.35-.12-.35-.11-.36-.12-.35-.11-.34-.12-.35-.12-.34-.11-.35-.12-.34-.12-.34-.12-.33-.12-.34-.12-.33-.11-.33-.12-.33-.12-.33-.12-.32-.12-.33-.12-.32-.12-.32-.12-.32-.12-.31-.12-.32-.12-.31-.12-.32-.12-.61-.24-.6-.24-.6-.24-.59-.24-.59-.24-.58-.24-.56-.24-.57-.24-.55-.24-.54-.24-.54-.24-.53-.24-.53-.24-.51-.24-.51-.23-.5-.24-.49-.24-.48-.23-.48-.24-.47-.23-.46-.24-.45-.23-.44-.23-.44-.23-.43-.23-.42-.23-.42-.23-.4-.22-.4-.23-.39-.22-.39-.23-.37-.22-.37-.22-.36-.22-.36-.22-.35-.22-.34-.22-.33-.22-.33-.21-.32-.22-.31-.22-.31-.21-.3-.22-.29-.21-.15-.11-.15-.11-.14-.11-.14-.11-.14-.11-.14-.11-.14-.11-.14-.11-.14-.11-.13-.12-.14-.11-.13-.12-.14-.12-.13-.12-.13-.12-.14-.12-.13-.12-.13-.13-.13-.13-.14-.13-.13-.13-.13-.14-.14-.15-.13-.14-.14-.15-.13-.16-.14-.17-.14-.16-.19-.24-.18-.24-.18-.24-.18-.25-.17-.25-.17-.24-.17-.26-.16-.25-.16-.25-.15-.26-.15-.26-.15-.26-.14-.26-.14-.27-.13-.27-.13-.27-.13-.27-.12-.27-.12-.27-.11-.28-.11-.28-.1-.27-.1-.28-.09-.28-.1-.28-.08-.28-.08-.29-.08-.28-.07-.29-.07-.28-.06-.28-.06-.29-.05-.29-.05-.28-.05-.29-.04-.28-.03-.29-.04-.28-.02-.28-.03-.29-.01-.28-.02-.28-.01-.28-.01-.28v-.56l.01-.28.01-.28.01-.27.02-.28.02-.27.02-.27.03-.27.03-.27.04-.27.04-.26.04-.27.04-.26.05-.26.05-.26.05-.26.06-.25.06-.26.06-.25.07-.25.06-.25.07-.25.08-.24.07-.25.08-.24.08-.24.08-.24.08-.24.09-.23.09-.24.09-.23.09-.23.09-.23.1-.23.1-.23.1-.22.1-.23.1-.22.11-.22.1-.22.11-.22.11-.21.11-.22.11-.21.12-.21.11-.21.12-.21.12-.21.12-.21.12-.2.12-.21.13-.2.12-.2.13-.2.13-.2.12-.2.13-.2.13-.19.14-.19.13-.2.13-.19.14-.19.14-.19.13-.19.14-.19.14-.18.14-.19.14-.18.14-.19.14-.18.15-.18.14-.18.15-.18.14-.18.15-.17.15-.18.15-.18.15-.17.15-.17.15-.18.15-.17.15-.17.15-.17.16-.17.15-.17.16-.16.15-.17.16-.16.16-.17.15-.16.16-.17.16-.16.16-.16.16-.16.16-.16.16-.16.16-.15.16-.16.16-.16.17-.15.16-.15.16-.16.17-.15.16-.15.16-.15.17-.15.17-.15.16-.15.17-.16.33-.28.33-.29.34-.29.34-.28.33-.28.34-.28.34-.27.34-.27.34-.27.34-.26.34-.26.34-.26.34-.25.35-.26.34-.24.34-.25.34-.24.34-.24.34-.23.35-.23.33-.23.34-.22.34-.22.34-.22.34-.21.34-.21.33-.21.34-.2.33-.2.33-.2.33-.19.33-.19.33-.19.33-.18.33-.18.32-.17.33-.17.32-.17.32-.16.32-.16.32-.16.32-.15.32-.15.31-.15.31-.14.32-.14.31-.13.32-.13.31-.13.31-.12.3-.12.39-.14.38-.14.38-.14.38-.14.38-.14.38-.13.38-.13.38-.14.38-.13.38-.12.38-.13.39-.13.38-.13.38-.12.39-.12.38-.13.39-.12.38-.12.39-.12.38-.12.39-.11.38-.12.39-.11.39-.11.38-.11.39-.11.39-.11.39-.11.39-.11.39-.1.39-.11.39-.1.39-.1.39-.11.39-.1.39-.09.39-.1.39-.1.39-.09.39-.1.4-.09.39-.09.39-.09.4-.09.39-.09.39-.09.4-.09.39-.08.4-.09.39-.08.4-.08.39-.08.4-.08.4-.08.39-.08.4-.08.39-.08.4-.07.4-.07.4-.08.39-.07.4-.07.4-.07.4-.07.39-.07.4-.06.4-.07.4-.06.4-.06.4-.07.4-.06.4-.06.4-.06.4-.06.4-.06.4-.05.4-.06.4-.05.4-.06.4-.05.4-.05.41-.05.4-.05.4-.05.4-.05.4-.05.4-.05.41-.04.4-.04.4-.05.4-.04.4-.04.41-.04.4-.04.4-.04.41-.04.4-.04.4-.03.4-.04.41-.03.4-.04.4-.03.41-.03.4-.03.4-.03.41-.03.4-.03.4-.03.41-.02.4-.03.4-.02.41-.03.4-.02.41-.02.4-.02.4-.03.41-.02.4-.02.41-.01.4-.02.4-.02.41-.01.4-.02.4-.01.41-.02.4-.01.41-.01.4-.01.4-.01.41-.01.4-.01.4-.01.41-.01h.4l.41-.01h.4l.4-.01h1.22l.8-.01h.8l.81.01h.8l.81.01.8.02.81.01.8.02.8.02.81.03.8.02.8.03.8.03.8.04.8.03.8.04.8.05.79.04.8.05.8.05.79.05.79.05.8.06.79.06.79.06.79.06.79.07.79.07.78.07.79.07.79.07.78.08.78.08.78.08.78.08.78.09.78.08.78.09.77.09.77.1.78.09.77.1.77.1.76.1.77.1.77.1.76.11.76.11.76.11.76.1.75.12.76.11.75.12.75.12.75.11.75.12.75.12.74.13.33.05.34.06.65.11.65.12.66.12.65.12.65.13.65.12.65.13.64.13.64.13.65.14.64.13.64.14.63.14.64.14.63.14.63.14.63.15.63.14.62.15.63.15.62.15.62.14.62.15.62.15.62.15 1.22.31 1.22.3 1.26.31.18.05.21.06.07.02v-.2l.01-.23v-.24l.02-.25.01-.27.02-.29.03-.26.09-.8.08-.73.08-.74.08-.74.07-.74.08-.74.08-.74.07-.74.15-1.49.15-1.49.14-1.49.14-1.49.15-1.5.14-1.5.28-3.01.14-1.51.15-1.51.14-1.52.15-1.51.15-1.52.15-1.52.08-.77.07-.76.08-.76.08-.77.08-.76.08-.76.09-.77.08-.76.08-.77.09-.76.09-.77.09-.77.09-.76.09-.77.09-.77.1-.77.09-.77.1-.77.1-.77.1-.77.1-.77.11-.77.11-.77.11-.77.11-.77.11-.77.12-.78.11-.77.11-.65.1-.65.1-.65.11-.65.1-.64.11-.64.11-.64.11-.64.1-.64.11-.64.22-1.26.09-.47-.08.11-.15.21-.16.2-.15.21-.15.2-.16.21-.15.2-.16.21-.15.2-.16.2-.16.2-.16.21-.16.2-.16.2-.16.2-.16.2-.16.2-.17.2-.17.2-.16.19-.17.2-.17.2-.17.19-.16.2-.18.19-.17.2-.17.19-.18.2-.17.19-.18.19-.18.19-.17.19-.18.19-.18.19-.19.18-.18.19-.18.19-.19.18-.18.18-.19.19-.19.18-.19.18-.19.18-.19.18-.2.18-.19.18-.2.17-.2.18-.2.17-.2.17-.2.17-.2.17-.21.17-.21.17-.2.17-.21.16-.21.17-.22.16-.21.16-.22.16-.22.16-.21.16-.23.15-.22.15-.23.15-.22.15-.23.15-.23.15-.23.15-.24.14-.23.14-.24.14-.24.14-.25.13-.24.13-.25.14-.25.13-.25.12-.25.13-.26.12-.25.12-.26.11-.26.12-.27.11-.26.11-.27.11-.27.1-.28.1-.27.09-.28.1-.28.09-.28.09-.28.08-.29.08-.29.08-.29.07-.29.07-.29.06-.3.07-.3.05-.3.06-.3.04-.3.05-.31.04-.3.04-.31.03-.31.02-.31.03-.32.01-.31.02-.31.01h-.63l-.32-.01-.32-.01-.32-.02-.32-.02-.32-.03-.32-.03-.32-.04-.31-.04-.32-.05-.3-.05-.18-.03-.16-.03-.16-.03-.16-.03-.16-.04-.16-.03-.15-.04-.16-.04-.16-.04-.16-.04-.16-.04-.15-.04-.16-.05-.16-.04-.16-.05-.15-.04-.16-.05-.15-.05-.16-.05-.15-.06-.16-.05-.15-.06-.16-.05-.15-.06-.15-.06-.16-.06-.15-.06-.15-.06-.15-.06-.16-.07-.15-.06-.15-.07-.15-.07-.15-.07-.15-.07-.15-.07-.14-.07-.16-.08-.26-.13-.27-.14-.27-.14-.27-.15-.27-.15-.26-.14-.26-.16-.27-.15-.25-.15-.26-.16-.26-.16-.25-.16-.25-.17-.25-.16-.25-.17-.25-.17-.24-.17-.25-.17-.24-.18-.24-.18-.24-.17-.24-.18-.23-.18-.24-.19-.23-.18-.23-.19-.23-.18-.23-.2-.23-.19-.22-.19-.23-.19-.22-.2-.22-.19-.22-.2-.22-.2-.21-.2-.22-.2-.21-.21-.21-.2-.21-.21-.21-.21-.21-.2-.21-.21-.2-.21-.21-.22-.2-.21-.2-.21-.2-.22-.2-.22-.2-.21-.19-.22-.2-.22-.19-.22-.2-.22-.19-.23-.19-.22-.19-.23-.19-.22-.18-.23-.19-.23-.18-.22-.19-.23-.18-.23-.18-.23-.18-.24-.18-.23-.18-.23-.17-.24-.18-.23-.17-.24-.18-.24-.17-.24-.17-.23-.17-.24-.17-.24-.17-.24-.17-.25-.17-.24-.16-.24-.17-.24-.16-.25-.17-.24-.16-.25-.16-.25-.16-.24-.16-.25-.16-.25-.16-.25-.16-.25-.15-.25-.16-.25-.15-.25-.16-.25-.15-.25-.15-.25-.15-.26-.15-.25-.15-.26-.15-.25-.15-.25-.15-.26-.14-.26-.15-.25-.15-.26-.14-.26-.14-.26-.15-.25-.14-.26-.14-.26-.14-.26-.14-.26-.14-.26-.28-.52-.27-.52-.27-.52-.27-.53-.26-.52-.27-.53-.26-.53-.25-.52-.26-.53-.25-.53-.25-.53-.25-.53-.25-.53-.24-.52-.24-.53-.24-.53-.23-.53-.24-.53-.23-.53-.23-.53-.23-.53-.22-.52-.22-.53-.23-.53-.21-.52-.22-.53-.21-.52-.22-.52-.21-.52-.21-.52-.21-.52-.2-.51-.2-.52-.2-.51-.2-.51-.07-.17-.01.15-.06.62-.05.62-.06.62-.06.62-.06.63-.06.63-.07.62-.06.63-.07.63-.06.63-.07.63-.08.63-.07.63-.07.64-.08.63-.08.63-.08.63-.08.63-.09.62-.08.63-.09.62-.09.63-.1.62-.09.62-.1.62-.1.62-.1.61-.11.61-.05.31-.06.3-.05.3-.06.3-.05.31-.06.3-.06.3-.06.3-.06.3-.05.29-.07.3-.06.3-.06.29-.06.3-.07.29-.06.3-.07.29-.06.29-.07.29-.07.29-.07.29-.07.29-.07.28-.07.29-.08.28-.07.29-.07.28-.08.28-.08.28-.08.28-.08.28-.08.28-.08.28-.08.27-.09.28-.08.27-.09.28-.09.27-.08.27-.1.27-.09.27-.09.27-.1.26-.09.27-.1.26-.1.27-.1.26-.11.27-.1.26-.11.26-.11.26-.11.26-.11.25-.12.26-.12.26-.12.26-.12.25-.13.25-.12.26-.13.25-.14.25-.13.25-.14.26-.15.25-.14.25-.15.24-.16.25-.16.25-.16.25-.16.24-.17.25-.18.24-.18.24-.18.25-.19.24-.2.24-.2.24-.21.24-.21.23-.21.22-.12.14-.12.11-.12.12-.11.11-.12.12-.12.11-.13.12-.12.11-.13.11-.13.11-.13.12-.13.11-.14.11-.13.1-.14.11-.14.11-.14.11-.15.1-.15.1-.15.11-.15.1-.15.1-.16.1-.16.09-.16.1-.16.09-.17.09-.16.1-.17.08-.17.09-.17.08-.18.09-.17.08-.18.08-.18.08-.19.07-.18.07-.19.07-.18.07-.21.07-.23.07-.26.08-.25.07-.25.06-.25.06-.26.05-.25.05-.25.04-.25.04-.25.03-.25.02-.25.02-.24.02-.24.01h-.25l-.23.01-.24-.01-.24-.01-.23-.01-.23-.01-.22-.02-.23-.03-.22-.02-.21-.03-.22-.04-.21-.03-.21-.04-.21-.04-.2-.05-.2-.04-.2-.05-.19-.05-.19-.05-.19-.06-.19-.06-.18-.06-.18-.06-.18-.06-.18-.06-.17-.07-.17-.07-.17-.07-.17-.06-.16-.07-.16-.08-.16-.07-.16-.07-.16-.08-.15-.07-.15-.08-.15-.07-.15-.08-.14-.08-.15-.08-.14-.08-.16-.09-.26-.15-.27-.17-.27-.17-.26-.17-.25-.17-.25-.17-.25-.18-.24-.17-.24-.18-.24-.18-.23-.18-.22-.18-.23-.19-.22-.18-.22-.19-.21-.18-.22-.19-.21-.19-.2-.19-.21-.19-.2-.19-.21-.19-.19-.2-.2-.19-.19-.19-.2-.2-.19-.19-.19-.2-.19-.2-.18-.19-.19-.2-.18-.2-.18-.19-.18-.2-.18-.2-.17-.2-.18-.2-.17-.2-.17-.19-.17-.2-.17-.2-.16-.2-.17-.2-.16-.19-.16-.2-.17-.2-.15-.19-.16-.2-.16-.2-.16-.2-.29-.38-.3-.38-.29-.38-.29-.38-.27-.37-.27-.36-.27-.36-.25-.36-.25-.34-.24-.34-.24-.33-.22-.32-.22-.32-.21-.3-.2-.29-.19-.28-.18-.27-.33-.49-.3-.44-.45-.68-1.07-1.61-1.08-1.62-1.08-1.61-1.08-1.61-.53-.81-.54-.81-.54-.81-.53-.81-.54-.81-.54-.82-.53-.81-.53-.82-.54-.81-.53-.82-.53-.82-.52-.82-.53-.82-.53-.82-.52-.83-.52-.83-.52-.83-.52-.83-.26-.42-.25-.41-.26-.42-.26-.42-.25-.42-.26-.42-.25-.42-.26-.42-.08-.15v.17l.01.66v.66l.01.66v1.97l-.01.33v.33l-.01.33v.33l-.01.32-.01.33-.01.33-.01.32v.33l-.02.33-.01.32-.01.33-.01.32-.02.32-.01.33-.02.32-.02.32-.02.33-.01.32-.03.32-.02.32-.02.32-.02.32-.03.32-.02.31-.03.32-.03.32-.03.31-.03.32-.03.31-.03.32-.03.31-.04.31-.03.32-.04.31-.04.31-.04.31-.04.31-.05.31-.04.3-.04.31-.05.31-.05.3-.05.31-.05.3-.05.3-.06.31-.05.3-.06.3-.06.3-.06.3-.06.3-.06.3-.07.29-.07.3-.07.29-.07.3-.07.29-.08.3-.07.29-.08.29-.09.29-.08.3-.09.28-.08.29-.09.29-.1.29-.09.29-.1.28-.1.29-.1.28-.11.29-.11.28-.11.28-.11.29-.12.28-.12.28-.13.28-.12.28-.13.27-.14.28-.14.28-.14.28-.14.27-.15.28-.16.27-.16.27-.16.27-.16.28-.18.27-.17.26-.18.26-.1.14-.09.14-.1.13-.09.13-.1.13-.1.13-.1.13-.1.13-.11.14-.1.12-.11.13-.11.13-.1.13-.12.13-.11.12-.11.13-.12.13-.11.12-.12.12-.12.13-.12.12-.13.12-.12.12-.13.12-.12.12-.13.12-.14.12-.13.12-.13.11-.14.12-.14.11-.14.11-.14.11-.14.11-.14.11-.15.11-.15.11-.15.1-.15.11-.15.1-.16.11-.17.1-.16.11-.17.1-.16.1-.17.09-.17.1-.17.09-.17.09-.17.09-.17.08-.17.09-.17.08-.17.08-.17.08-.18.07-.17.08-.17.07-.17.07-.18.06-.17.07-.17.06-.18.06-.17.06-.17.06-.18.05-.17.06-.17.05-.18.05-.17.05-.17.04-.17.05-.18.04-.17.04-.17.04-.17.04-.18.03-.17.04-.17.03-.17.03-.17.03-.17.03-.17.03-.17.02-.17.03-.17.02-.17.02-.17.02-.17.02-.17.02-.17.01-.17.02-.16.01-.17.01-.17.02h-.17l-.16.01-.18.01-.32.01-.33.01h-.99l-.33-.01-.33-.02-.32-.01-.32-.03-.33-.02-.32-.03-.32-.03-.33-.03-.32-.04-.32-.04-.32-.04-.32-.05-.32-.05-.32-.05-.31-.05-.32-.06-.32-.06-.32-.06-.31-.07-.32-.07-.32-.07-.31-.07-.32-.07-.31-.08-.32-.08-.31-.08-.32-.08-.31-.09-.32-.09-.31-.09-.32-.09-.31-.09-.32-.1-.32-.1-.31-.1-.32-.1-.31-.1-.32-.11-.31-.11-.32-.11-.31-.11-.32-.11-.31-.11-.32-.12-.31-.12-.32-.12-.31-.12-.32-.12-.32-.13-.31-.12-.32-.13-.31-.13-.32-.13-.32-.13-.31-.13-.32-.14-.32-.13-.31-.14-.32-.14-.31-.14-.32-.14-.32-.15-.31-.14-.32-.15-.32-.14-.31-.15-.32-.15-.32-.15-.31-.15-.32-.15-.32-.16-.31-.15-.32-.16-.31-.16-.32-.16-.32-.15-.31-.16-.32-.17-.31-.16-.32-.16-.31-.16-.32-.17-.31-.17-.32-.16-.31-.17-.31-.16.02.03.26.5.25.51.25.5.25.51.24.5.24.51.25.51.23.51.24.51.24.51.23.51.23.51.23.51.23.51.23.51.22.51.22.51.23.52.21.51.22.51.21.51.22.52.21.51.21.51.21.52.21.51.2.51.2.51.2.52.2.51.2.51.2.51.19.51.2.51.19.51.19.51.19.51.18.51.19.51.18.5.19.51.18.5.18.51.18.5.17.5.18.5.17.5.17.5.17.5.17.5.17.5.17.49.16.49.17.49.16.5.16.49.16.48.16.49.16.48.16.49.3.96.31.95.29.95.3.94.29.93.28.92.28.92.28.9.27.89.26.89.27.87.25.87.51 1.69.49 1.64.47 1.6.45 1.54.23.74.22.74.21.71.21.7.21.69.21.66.2.65.19.63.2.61.19.61.24.87.14.88.06.9-.03.89-.12.89-.2.88-.29.85-.37.81-.45.78-.52.73-.59.67-.66.62-.71.54-.76.48-.81.39-.84.32-.86.23-.89.15-.89.06-.9-.03-.89-.12-.87-.21-.85-.28-.82-.38-.77-.44-.73-.53-.68-.59-.61-.65-.55-.71-.47-.77-.4-.8-.31-.84-.21-.64-.21-.68-.22-.68-.21-.7-.22-.71-.22-.72-.22-.73-.23-.74-.22-.76-.23-.76-.46-1.56-.47-1.59-.49-1.64-.49-1.67-.26-.85-.25-.85-.26-.86-.27-.87-.26-.88-.27-.88-.28-.89-.27-.89-.29-.9-.28-.91-.29-.91-.3-.91-.14-.46-.15-.46-.15-.46-.15-.46-.16-.46-.15-.47-.16-.46-.15-.46-.16-.47-.15-.47-.16-.46-.16-.47-.17-.46-.16-.47-.16-.47-.17-.47-.16-.47-.17-.47-.17-.47-.17-.47-.17-.47-.17-.46-.17-.47-.18-.47-.17-.47-.18-.47-.17-.47-.18-.47-.18-.47-.19-.47-.18-.46-.18-.47-.19-.47-.18-.46-.19-.47-.19-.47-.19-.46-.19-.46-.19-.47-.2-.46-.19-.46-.2-.46-.2-.46-.2-.46-.2-.46-.2-.46-.2-.45-.21-.46-.2-.45-.21-.45-.21-.45-.21-.45-.21-.45-.21-.45-.21-.44-.22-.44-.22-.44-.21-.45-.22-.43-.22-.44-.22-.44-.23-.43-.22-.43-.23-.43-.22-.42-.23-.43-.23-.42-.23-.43-.12-.21-.12-.21-.12-.22-.12-.21-.13-.22-.12-.21-.12-.21-.13-.22-.12-.21-.13-.21-.13-.22-.12-.21-.13-.21-.13-.21-.13-.22-.13-.21-.13-.21-.13-.21-.14-.21-.13-.22-.13-.21-.14-.21-.27-.42-.28-.42-.27-.43-.28-.42-.28-.42-.29-.42-.29-.42-.29-.42-.29-.42-.29-.42-.3-.42-.3-.42-.3-.43-.31-.42-.3-.42-.31-.42-.31-.42-.31-.42-.32-.42-.31-.42-.32-.43-.32-.42-.32-.42-.32-.43-.33-.42-.32-.42-.33-.43-.66-.85-.66-.86-.67-.86-1.35-1.73-.68-.87-.68-.88-.69-.88-.68-.88-.35-.45-.34-.45-.35-.44-.34-.45-.34-.46-.35-.45-.34-.46-.35-.46-.23-.3-.23-.31-.22-.31-.23-.31-.22-.31-.22-.31-.22-.3-.21-.31-.22-.3-.21-.31-.2-.3-.21-.3-.21-.3-.2-.3-.4-.59-.4-.59-.39-.59-.38-.58-.38-.57-.75-1.14-.38-.56-.28-.43-.01-.02-.04-.04-.03-.04-.11-.13-.13-.14-.14-.16-.33-.38-.19-.2-.2-.23-.2-.23-.22-.25-.22-.26-.12-.15-.12-.14-.12-.15-.13-.16-.13-.16-.13-.17-.13-.18-.14-.19-.15-.21-.14-.22-.16-.24-.16-.26-.17-.29-.16-.28-.1-.21-.1-.19-.09-.2-.1-.22-.09-.23-.1-.25-.1-.27-.09-.29-.09-.32-.09-.34-.08-.38-.08-.41-.05-.45-.04-.49-.02-.53.02-.57.06-.61.11-.65.16-.68.22-.7.29-.72.36-.7.42-.68.49-.64.53-.6.56-.53.58-.47.58-.4.58-.34.56-.27.54-.23.51-.18.48-.14.45-.11.43-.08.39-.06.37-.04.35-.03.32-.01.29-.01.27.01.25.01.25.01.24.02.24.03.23.02.23.04.22.03.22.04.21.05.2.04.2.05.2.06.19.05.18.06.22.06.31.11.34.13.31.12.31.14.29.13.27.14.27.14.25.14.25.14.24.14.22.15.23.14.21.14.21.15.2.14.2.15.19.14.19.15.18.14.18.15.18.14.17.15.17.14.17.15.17.14.16.15.16.15.16.14.15.15.16.15.15.15.15.15.15.14.15.15.15.15.14.15.15.15.14.15.14.15.15.16.27.29.27.3.27.3.27.3.26.31.26.3.26.3.25.3.25.29.25.3.24.29.24.3.24.29.23.28.23.29.22.28.43.54.42.52.39.49.37.47.35.43.16.2.15.19.15.17.13.16.12.15.11.13.1.12.08.09.07.07.02.03.06.05.19.16.2.18.22.18.23.2.24.2.25.21.26.21.28.23.28.23.3.24.3.24.32.25.32.26.34.26.34.27.35.27.36.28.37.28.38.29.38.29.4.3.4.29.41.31.41.31.43.31.43.31.43.32.45.32.45.32.45.33.46.32.47.33.47.34.48.33.48.34.49.33.5.34.49.34.51.34.5.34.51.35.52.34.52.34.52.34.52.35.53.34.53.34.54.34.53.34.54.35.55.33.54.34.54.34.55.33.55.34.55.33.55.33.55.32.56.33.55.32.56.32.55.32.27.15.28.16.28.15.28.16.27.15.28.15.27.16.28.15.28.15.27.14.28.15.27.15.28.15.27.14.27.14.28.15.27.14.27.14.28.14.27.13.27.14.27.14.27.13.27.13.27.13.26.13.27.13.27.13.26.13.27.12.26.12.26.13.26.12.27.12.26.11.25.12.26.11.26.12.25.11.26.11.25.11.25.1.26.11.24.1.25.1.25.1.24.1.25.09.24.1.24.09.24.09.24.09.23.09.24.08.23.09.23.08.23.08.23.07.22.08.22.07.23.07.22.07.21.07.22.07.21.06.21.06.21.06.2.06.2.05.2.05.2.06.2.04.19.05.19.05.19.04.18.04.18.04.18.03.17.04.18.03.16.03.17.03.16.03.16.02.15.02.15.02.15.02.14.02.14.01.14.02.13.01.13.01.12.01h.12l.11.01h.51l.11-.01h.14l.04-.01h.1l.03-.01.06-.01h.06l.02-.01.03-.03.03-.05.03-.05.03-.05.04-.07.03-.06.04-.07.04-.07.04-.08.04-.08.04-.09.05-.09.04-.09.04-.1.05-.11.04-.1.05-.12.04-.11.05-.12.04-.12.05-.13.05-.13.04-.14.05-.14.04-.14.05-.14.05-.15.04-.16.05-.16.04-.15.05-.17.04-.17.04-.16.05-.18.04-.17.04-.18.04-.19.04-.18.04-.19.04-.19.04-.19.04-.2.04-.2.04-.2.03-.21.04-.21.04-.21.03-.21.03-.22.04-.22.03-.22.03-.22.03-.22.03-.23.03-.23.03-.23.03-.24.03-.23.02-.24.03-.24.02-.24.03-.24.02-.25.03-.25.02-.25.02-.25.02-.25.02-.26.02-.25.01-.26.02-.26.02-.26.01-.26.02-.27.01-.27.02-.26.01-.27.01-.27.01-.27.01-.27.01-.28.01-.27.01-.28.01-.28.01-.28v-.28l.01-.28v-.28l.01-.28v-.28l.01-.29v-1.73l-.01-.58v-.58l-.01-.59-.01-.59-.02-.59-.01-.59-.02-.6-.02-.59-.02-.6-.03-.6-.02-.6-.03-.59-.03-.6-.03-.6-.04-.6-.03-.6-.04-.6-.04-.6-.04-.59-.04-.59-.04-.6-.05-.59-.04-.59-.05-.59-.04-.58-.05-.59-.05-.57-.05-.58-.06-.58-.05-.57-.05-.56-.05-.57-.06-.56-.05-.55-.06-.55-.05-.55-.06-.54-.06-.54-.05-.53-.12-1.05-.11-1.02-.11-1-.11-.98-.11-.95-.11-.92-.11-.89-.2-1.69-.19-1.55-.09-.73-.08-.69-.08-.65-.06-.59-.04-.29-.03-.28-.03-.27-.04-.28-.04-.28-.04-.29-.05-.29-.04-.29-.05-.3-.05-.3-.05-.31-.06-.3-.05-.31-.06-.32-.06-.32-.06-.32-.06-.32-.07-.33-.13-.66-.13-.68-.14-.68-.28-1.4-.14-.71-.15-.72-.14-.73-.07-.37-.07-.37-.07-.37-.07-.38-.07-.37-.07-.38-.06-.38-.07-.39-.06-.38-.06-.39-.07-.39-.05-.39-.06-.39-.06-.4-.05-.39-.05-.4-.05-.4-.05-.41-.04-.4-.04-.41-.04-.41-.03-.4-.02-.22-.01-.21-.02-.2-.01-.21-.01-.21-.02-.21-.01-.21-.01-.21v-.21l-.01-.22-.01-.21v-.21l-.01-.22v-3.02l.04-.9.14-.9.22-.87.3-.85.39-.82.47-.77.54-.73.61-.66.68-.6.73-.54.78-.46.82-.37.85-.3.88-.21.9-.13.9-.03.9.06.89.14.88.23.84.32.82.4.76.48.72.55.66.62.59.68.53.74.45.78.37.82.09.25.11.27.14.37.19.45.21.53.11.27.12.29.13.3.13.31.13.32.14.32.14.32.13.32.15.32.14.32.14.31.14.3.13.3.14.28.06.13.06.13.06.12.06.12.06.11.05.11.06.1.04.1.05.08.04.08.04.07.05.09.08.14.1.17.09.17.09.17.1.18.09.17.08.17.09.17.09.17.08.17.08.17.09.17.08.17.08.17.07.17.08.17.07.17.08.17.07.17.08.18.13.32.13.33.13.33.13.33.12.33.12.32.11.33.11.32.1.31.11.32.1.31.09.31.09.31.09.3.09.31.09.3.08.29.08.3.08.29.07.28.08.29.07.29.14.54.14.55.13.53.12.52.13.5.12.5.12.48.06.23.06.24.06.22.06.23.06.22.06.22.06.22.06.21.06.21.06.2.06.21.06.19.07.2.06.19.06.19.06.19.07.18.07.2.15.41.16.42.15.43.17.42.16.42.16.42.16.42.17.42.17.42.17.42.17.42.17.41.17.42.18.42.17.41.18.41.18.42.18.41.18.41.18.41.18.41.19.41.19.41.18.41.19.41.19.4.19.41.2.41.19.4.2.41.19.4.2.41.2.4.2.4.2.41.21.4.2.4.21.4.2.4.21.4.21.4.21.4.21.4.21.4.22.4.21.4.22.39.21.4.22.4.22.4.22.39.22.4.22.4.22.39.23.4.22.39.23.4.23.39.22.4.23.39.23.4.23.39.24.4.23.39.23.4.24.39.23.39.24.4.24.39.24.39.24.4.24.39.24.39.24.4.24.39.24.39.49.79.5.79.49.78.5.79.5.79.51.78.51.79.5.79.52.79.51.79.52.79.52.79.52.79.53.8.52.79.53.8.53.8.53.79 1.07 1.61 1.07 1.6 1.08 1.62 1.08 1.62.45.67.27.4.29.44.16.23.16.24.17.24.17.26.19.26.18.27.2.27.2.28.2.28.21.29.21.29.22.29.22.3.22.29.23.3.23.3.23.3.12.14.12.15.11.14.12.15.12.15.12.14.12.14.12.15.11.14.12.14.12.14.12.13.12.14.03.04.06-.18.06-.18.05-.19.06-.19.06-.19.05-.19.06-.2.05-.2.06-.2.06-.21.05-.2.06-.21.05-.22.05-.21.06-.22.05-.22.05-.22.06-.22.05-.23.05-.23.05-.23.06-.23.05-.24.05-.24.05-.24.05-.24.05-.24.05-.24.05-.25.05-.25.04-.25.05-.25.05-.26.04-.25.05-.26.05-.26.04-.25.09-.53.09-.53.09-.54.08-.54.09-.54.08-.55.08-.56.08-.56.08-.56.08-.56.07-.57.07-.57.08-.58.07-.58.06-.58.07-.58.07-.58.06-.58.07-.59.06-.59.06-.59.06-.58.06-.59.05-.59.06-.59.05-.59.06-.58.05-.59.05-.59.05-.58.05-.58.05-.59.05-.57.04-.58.09-1.15.09-1.14.09-1.12.08-1.11.08-1.09.08-1.08.15-2.09.07-1.01.07-.99.08-.97.07-.93.07-.91.04-.45.03-.44.04-.43.04-.42.03-.42.04-.41.04-.4.04-.4.04-.39.04-.38.04-.37.04-.37.05-.36.04-.36.05-.35.05-.35.05-.34.05-.31.05-.3.04-.27.05-.26.04-.27.03-.26.04-.26.03-.26.04-.26.03-.26.03-.26.03-.26.03-.26.03-.26.02-.26.03-.25.02-.26.02-.26.02-.25.03-.26.01-.26.02-.25.02-.26.02-.26.01-.26.02-.25.01-.26.01-.26.01-.26.02-.26.01-.26.01-.27v-.26l.01-.26.01-.27.01-.27v-.26l.01-.54.01-.55.01-.55v-6.52l-.01-.03v-.14l-.01-.1v-.11l-.01-.13-.02-.13-.01-.14-.01-.16-.02-.15-.01-.16-.02-.16-.02-.15-.04-.33-.04-.31-.03-.3-.04-.26-.03-.23-.02-.19-.03-.13-.01-.13-.09-.9v-.9l.1-.91.18-.88.26-.87.36-.83.43-.8.51-.75.58-.69.65-.64.71-.56.76-.5.8-.41.84-.34.87-.25.89-.16.91-.07.9.02.9.1.89.2.86.28.83.37.79.44.74.52.68.6.63.65.55.72.48.77.41.81.32.84.23.88.07.3.18.83.27 1.24.16.73.18.78.18.83.19.84.2.86.19.84.19.83.09.39.09.38.09.37.08.34.08.33.08.29.06.24.05.22.07.22.06.23.06.23.07.22.06.23.07.23.07.23.08.23.07.24.08.23.08.24.08.23.08.24.08.23.09.24.08.24.09.25.09.24.09.24.09.25.1.24.09.25.1.25.1.25.09.25.11.25.1.25.1.25.21.52.21.51.22.52.22.53.22.53.46 1.08.46 1.1.24.56.23.56.24.57.24.58.23.58.12.29.12.3.12.3.12.29.11.3.12.3.15.4.16.41.3.81.31.83.32.84.31.86.32.86.65 1.76.66 1.81.34.91.34.92.34.93.35.94.36.94.36.95.18.48.18.47.18.48.19.48.18.48.19.47.19.49.19.47.19.48.19.49.19.47.2.49.19.48.2.48.2.48.2.48.2.47.2.48.21.48.2.48.21.47.21.48.2.47.22.47.21.47.21.47.21.47.22.46.22.47.22.46.22.46.22.46.22.45.22.46.23.45.23.44.22.45.23.44.23.44.24.44.11.22.12.21.11.22.12.21.12.21.12.22.12.21.12.21.11.21.12.21.12.21.12.21.12.2.12.21.12.2.12.21.12.2.13.2.12.2.12.2.12.2.12.2.12.19.13.2.12.19.13.19.12.2.12.19.13.19.12.18.13.19.12.19.13.18.12.18.13.19.12.18.13.18.12.17.13.18.13.17.12.18.13.17.13.17.12.17.13.17.13.17.13.17.12.16.13.16.13.16.13.16.13.16.12.16.13.15.13.16.13.15.13.15.13.15.12.15.13.15.13.14.13.14.13.15.13.14.13.13.12.14.13.14.13.13.13.13.13.13.13.13.12.13.13.12.13.13.13.12.13.12.12.12.13.11.13.12.13.11.12.11.13.11.13.11.12.11.13.11.13.1.12.1.13.1.12.1.13.09.13.1.12.09.13.09.12.09.12.09.13.09.12.08.13.08.12.09.12.08.12.07.13.08.12.08.12.07.12.07.12.07.12.07.12.07.12.06.12.06.12.07.13.06.03.01.03.02.03.01.02.01.03.02.03.01.03.01.03.02.02.01.03.01.03.01.02.01.03.01.02.01.03.01h.02l.02.01.02.01.03.01h.02l.02.01.02.01h.02l.02.01.02.01h.02l.02.01h.02l.02.01h.01l.02.01h.04l.01.01h.04l.01.01h.05l.03.01h.03l.03.01h.11l.03.01h.12l.03-.01h.1l.03-.01h.07l.04-.01.04-.01h.04l.04-.01.04-.01.04-.01.05-.01.04-.01.05-.01.05-.02.05-.01.05-.02.06-.02.05-.02.06-.02.06-.02.06-.02.06-.03.07-.02.06-.03.07-.03.07-.03.07-.03.07-.04.08-.03.07-.04.08-.04.07-.04.08-.05.09-.04.08-.05.08-.05.09-.05.08-.05.09-.06.09-.05.09-.06.09-.06.09-.06.1-.07.09-.06.1-.07.09-.07.1-.08.1-.07.1-.07.1-.08.1-.08.1-.09.11-.08.1-.08.11-.09.1-.09.11-.09.1-.1.11-.09.11-.1.11-.09.11-.11.11-.1.11-.1.11-.11.11-.1.11-.11.11-.11.12-.12.11-.11.11-.12.12-.12.11-.11.12-.12.11-.12.11-.13.12-.12.12-.13.11-.13.12-.13.11-.13.12-.13.12-.14.11-.13.12-.14.12-.14.11-.13.12-.14.12-.15.12-.14.11-.14.12-.15.12-.15.11-.14.12-.15.12-.15.11-.15.12-.15.12-.16.11-.15.12-.15.12-.16.12-.16.11-.16.12-.16.11-.15.24-.33.23-.32.23-.33.23-.33.23-.34.23-.33.22-.34.23-.34.23-.34.22-.35.23-.34.22-.35.22-.35.22-.35.22-.36.21-.35.22-.35.21-.35.22-.36.21-.35.21-.36.21-.35.2-.36.21-.35.2-.35.2-.35.2-.36.2-.35.2-.34.19-.35.2-.35.19-.34.19-.34.37-.69.37-.67.36-.66.35-.65.34-.64.34-.63.65-1.21.32-.58.31-.57.3-.55.15-.28.12-.21.08-.17.14-.27.18-.35.47-.93.58-1.15.67-1.32.36-.72.38-.74.39-.76.39-.77.4-.79.41-.78.41-.79.41-.77.39-.77.21-.38.19-.37.2-.36.19-.36.2-.36.18-.34.19-.34.18-.34.19-.32.18-.32.17-.3.18-.3.17-.3.17-.29.18-.29.17-.27.1-.15.09-.15.1-.14.1-.15.11-.16.11-.16.13-.18.14-.18.16-.21.19-.22.22-.26.27-.29.37-.36.42-.36.37-.3.39-.27.46-.3.59-.32.34-.15.83-.32.01-.01.51-.15.51-.12.01-.01.64-.11.65-.06.79-.02.78.05h.01l.85.13.83.21h.01l.58.2.56.24.55.27h.01l.78.48.72.54.01.01.54.48.5.53.01.01.33.41.31.42.01.02.45.7.18.33.27.58.2.5.14.43.11.38.09.32.06.29.05.26.04.24.03.22.03.21.02.18.02.18.02.19.02.29.02.29.01.28v.26l.01.27v.25l-.01.25v.5l-.01.25-.01.25-.01.25-.01.26-.01.25-.01.26-.02.26-.03.51-.03.51-.04.53-.03.52-.04.51-.04.51-.04.51-.04.49-.08.93-.07.86-.03.39-.03.35-.02.31-.02.26-.02.21V99l-.01.35v.69l-.01.35-.01.35-.01.35v.35l-.01.34-.02.35-.01.34-.01.35-.02.34-.01.35-.02.34-.02.34-.02.34-.02.35-.02.34-.02.34-.02.34-.03.34-.02.34-.03.34-.02.34-.03.33-.03.34-.03.34-.03.34-.03.33-.03.34-.04.33-.03.34-.03.33-.04.34-.03.33-.04.33-.04.34-.07.66-.08.66-.09.66-.08.66-.09.66-.09.65-.09.66-.09.65-.09.65-.1.65-.1.64-.1.65-.1.64-.1.65-.11.64-.1.64-.11.63-.1.64-.11.64-.11.63-.11.63-.22 1.26-.22 1.26-.44 2.49-.22 1.24-.22 1.24-.21 1.23-.11.62-.1.61-.11.61-.1.61-.1.61-.1.61-.1.61-.1.61-.09.6-.1.61-.11.72-.11.73-.1.72-.11.73-.1.72-.1.73-.1.72-.1.73-.09.73-.1.73-.09.73-.09.74-.09.73-.09.73-.09.74-.09.73-.08.74-.08.73-.09.74-.08.74-.08.74-.08.74-.08.74-.08.74-.07.74-.08.74-.08.75-.07.74-.15 1.49-.15 1.49-.14 1.5-.14 1.5-.15 1.5-.14 1.5-.28 3.01-.14 1.51-.15 1.51-.14 1.52-.15 1.51-.15 1.52-.15 1.51-.08.77-.07.76-.08.76-.08.76-.08.76-.09.76-.08.76-.07.62v.23l-.01.13v.69l.01.42v.46l.01 1.03.01.56v.58l.01.6v1.56l-.01.32v.65l-.01.32-.01.33v.33l-.01.33-.02.33-.01.33-.01.33-.02.33-.02.34-.03.33-.02.34-.03.33-.03.34-.04.33-.02.18-.02.17-.02.18-.03.17-.02.18-.03.18-.02.18-.04.18-.03.19-.03.18-.04.2-.04.19-.05.2-.05.21-.05.2-.05.22-.07.22-.06.23-.08.24-.08.25-.1.25-.1.27-.12.28-.13.3-.16.31-.17.32-.19.35-.23.36-.26.39-.31.4-.3.36-.24.26-.33.34-.24.22-.36.31-.38.29h-.01l-.68.45-.01.01-.73.39h-.01l-.45.2-.46.18-.02.01-.54.17-.55.14h-.02l-.87.15-.38.04-.67.03-.55-.01-.46-.04-.39-.04-.33-.05-.3-.06-.26-.05-.23-.06-.21-.05-.2-.05-.18-.05-.16-.06-.19-.05-.27-.1-.27-.09-.26-.1-.25-.1-.24-.09-.24-.1-.23-.1-.23-.1-.23-.1-.23-.1-.23-.11-.24-.1-.23-.11-.23-.11-.24-.11-.47-.22-.48-.23-.47-.23-.49-.23-.93-.46-.92-.44-.44-.21-.41-.21-.4-.19-.37-.18-.35-.16-.15-.07-.15-.06-.13-.07-.12-.05-.11-.05-.06-.02-.79-.2-1.19-.3-1.19-.29-.59-.14-.6-.15-.59-.14-.59-.14-.59-.14-.59-.14-.59-.14-.59-.14-.59-.13-.59-.13-.59-.14-.58-.13-.59-.12-.59-.13-.58-.12-.58-.13-.59-.12-.58-.11-.58-.12-.59-.11-.58-.11-.58-.11-.58-.11-.58-.1-.58-.1-.29-.05-.29-.05-.7-.11-.7-.12-.71-.11-.7-.12-.71-.11-.71-.11-.71-.1-.71-.11-.72-.1-.71-.1-.72-.11-.72-.09-.72-.1-.72-.1-.72-.09-.72-.09-.72-.1-.73-.08-.72-.09-.73-.09-.73-.08-.73-.08-.72-.08-.73-.08-.74-.07-.73-.08-.73-.07-.73-.07-.74-.07-.73-.06-.74-.07-.73-.06-.74-.06-.73-.05-.74-.06-.74-.05-.74-.05-.74-.05-.74-.05-.73-.04-.74-.04-.74-.04-.74-.04-.74-.03-.74-.03-.74-.03-.74-.03-.74-.02-.75-.02-.74-.02-.74-.02-.74-.01-.74-.02h-.74l-.74-.01h-.74l-.74-.01-.74.01h-1.1l-.37.01h-.37l-.37.01h-.37l-.37.01-.37.01h-.37l-.37.01-.36.01-.37.01-.37.01-.37.01-.37.02-.36.01-.37.01-.37.02-.37.01-.36.02-.37.02-.37.01-.37.02-.36.02-.37.02-.37.02-.36.02-.37.02-.36.03-.37.02-.36.02-.37.03-.36.02-.37.03-.36.03-.37.03-.36.02-.36.03-.37.03-.36.03-.36.04-.36.03-.37.03-.36.04-.36.03-.36.04-.36.04-.36.03-.37.04-.36.04-.36.04-.36.04-.36.04-.35.04-.36.05-.36.04-.36.04-.36.05-.36.05-.36.04-.35.05-.36.05-.35.05-.36.05-.36.05-.35.05-.36.06-.35.05-.36.06-.35.05-.35.06-.36.05-.35.06-.35.06-.36.06-.35.06-.35.06-.35.07-.35.06-.35.06-.35.07-.35.07-.35.06-.35.07-.35.07-.35.07-.34.07-.35.07-.35.07-.34.07-.35.08-.34.07-.35.08-.34.08-.34.07-.35.08-.34.08-.34.08-.35.08-.34.08-.34.09-.34.08-.34.09-.34.08-.34.09-.34.09-.33.09-.34.08-.34.1-.33.09-.34.09-.34.09-.33.1-.34.09-.33.1-.33.09-.34.1-.33.1-.33.1-.33.1-.33.1-.33.11-.33.1-.33.11-.33.1-.33.11-.32.11-.33.1-.33.11-.32.11-.33.12-.32.11-.32.11-.33.12-.32.11-.32.12-.32.12-.33.11-.3.12-.14.05-.13.05-.14.06-.15.06-.15.07-.17.07-.17.08-.17.08-.18.08-.19.09-.19.1-.2.09-.2.11-.2.1-.21.11-.22.12-.21.12-.22.12-.23.12-.22.14-.23.13-.23.13-.24.14-.23.15-.24.14-.24.15-.24.16-.25.15-.24.16-.25.16-.24.17-.25.17-.25.17-.24.17-.25.17-.25.18-.25.18-.25.18-.24.19-.25.18-.25.19-.24.19-.25.19-.24.19-.24.2-.24.2-.24.19-.24.21-.23.2-.24.2-.24.21-.1.09-.12.11-.11.1-.11.1-.12.1-.11.11-.11.1-.11.1-.11.11-.11.1-.1.11-.11.1-.11.1-.1.11-.11.1-.1.11-.1.1-.11.1-.1.11-.1.1-.1.11-.1.1-.09.1-.1.11-.09.1-.1.11-.09.1-.09.1-.1.11-.09.1-.09.1-.08.1-.09.11-.08.1-.09.1-.08.1-.08.1-.09.1-.08.1-.07.11-.08.09-.08.1-.07.1-.07.1-.08.1-.07.1-.07.09-.06.1-.07.09-.07.1-.06.09-.06.1-.06.09-.06.09-.06.09-.06.09-.06.09-.05.09-.05.09-.05.09-.05.08-.05.09-.05.08-.05.09-.04.08-.04.08-.04.08-.04.08-.04.07-.04.08-.03.08-.04.07-.03.07-.03.08-.03.07-.03.06-.03.07-.03.07-.02.06-.02.07-.03.06-.02.06-.02.06-.02.05-.02.06-.01.05-.02.05-.01.06-.02.05-.01.04-.01.05-.01.04-.01.04-.01.05v.04l-.01.03-.01.04v.03l-.01.04v.06l-.01.03v.07l-.01.03v.11l.01.01v.08l.01.01v.04l.01.01v.02l.01.01v.02l.01.02v.01l.01.01v.01l.01.02.01.02.01.02.01.02.01.02.01.02.01.02.02.03.01.02.02.03.02.03.02.03.02.03.01.01.01.01.03.03.03.02.04.04.05.03.04.04.06.04.05.04.06.05.06.04.06.05.06.04.15.11.16.12.16.11.18.13.19.12.2.14.21.13.23.15.23.14.24.15.25.16.27.16.27.16.28.16.29.17.3.17.31.17.32.18.33.18.34.18.34.18.36.19.37.18.37.19.38.19.39.19.4.2.41.2.41.19.43.2.43.2.44.21.45.2.46.2.47.21.47.2.48.21.49.21.5.2.51.21.51.21.52.21.53.21.54.21.27.11.27.1.28.11.28.1.28.11.28.1.28.1.29.11.28.1.29.11.29.1.29.11.3.1.29.11.3.1.3.11.31.1.3.11.3.1.31.1.31.11.31.1.32.11.31.1.32.1.31.1.32.11.33.1.32.1.33.1.32.11.33.1.33.1.34.1.33.1.34.1.34.1.33.1.35.1.34.1.35.1.34.1.35.09.35.1.35.1.36.1.35.09.36.1.36.1.36.09.36.1.37.09.36.1.37.09.37.09.37.1.37.09.38.09.37.09.38.09.38.09.38.09.38.09.39.09.38.09.39.09.39.08.39.09.4.09.39.08.4.09.39.08.4.09.4.08.41.08.4.08.41.08.4.08.41.08.41.08.41.08.42.08.41.08.42.07.42.08.42.07.42.08.42.07.43.07.43.07.42.08.43.07.43.07.44.06.43.07.44.07.43.07.44.06.44.07.44.06.45.06.44.07.45.06.45.06.45.06.45.05.45.06.46.06.45.05.46.06.46.05.45.06.47.05.46.05.46.05.47.05.47.05.47.04.47.05.47.05.47.04.48.04.47.04.48.04.48.04.48.04.48.04.49.04.48.03.49.04.48.03.49.03.49.03.49.03.5.03.49.03.5.03.5.02.49.02.51.03.29.01.29.01.3.01.28.01.29.01.29.01.29.01.29.01h.29l.28.01h.29l.28.01h.84l.28.01h.56l.28-.01h.55l.27-.01h.28l.27-.01h.27l.27-.01h.27l.27-.01.27-.01.27-.01.27-.01.26-.01.27-.01.26-.01.27-.02.26-.01.26-.02.26-.01.26-.02.26-.01.26-.02.26-.02.25-.01.26-.02.26-.02.25-.02.26-.03.25-.02.25-.02.25-.02.26-.03.25-.02.25-.03.25-.02.24-.03.25-.02.25-.03.24-.03.25-.03.24-.03.25-.03.24-.03.24-.03.25-.03.24-.03.24-.04.24-.03.24-.04.24-.03.24-.04.23-.03.24-.04.24-.04.23-.03.24-.04.23-.04.23-.04.24-.04.23-.04.23-.04.23-.05.23-.04.23-.04.23-.05.23-.04.23-.05.23-.04.22-.05.23-.04.23-.05.22-.05.23-.05.22-.05.23-.05.22-.05.22-.04.22-.06.23-.05.22-.05.21-.05.45-.11.44-.11.43-.11.44-.11.43-.12.43-.12.43-.11.43-.13.42-.12.42-.12.43-.13.42-.13.41-.13.42-.13.42-.14.41-.14.41-.14.42-.14.41-.14.4-.14.41-.15.41-.15.4-.15.41-.15.4-.15.4-.16.4-.16.4-.15.4-.16.39-.17.4-.16.4-.17.39-.16.39-.17.4-.17.39-.18.39-.17.39-.18.39-.17.39-.18.39-.18.39-.19.38-.18.39-.18.39-.19.38-.19.39-.19.38-.19.38-.19.39-.2.38-.19.39-.2.38-.2.38-.2.38-.2.39-.2.38-.21.38-.2.38-.21.38-.21.38-.21.38-.21.38-.21.39-.21.38-.22.38-.22.38-.21.38-.22.38-.22.38-.22.39-.22.38-.22.38-.23.38-.22.38-.23.39-.23.38-.23.39-.23.79-.42.83-.34.86-.26.88-.17.89-.09h.9l.89.09z" data-color="1"/>
        <path fill-rule="evenodd" fill="#f5ad3c" d="M448.29 38.56h.09l.05.01h.23l.05.01h.14l.05.01h.09l.05.01h.04l.05.01h.05l.04.01h.05l.05.01h.04l.05.01.05.01h.04l.05.01h.05l.04.01.05.01.05.01.04.01h.05l.05.01.04.01.05.01.04.01.05.01.05.01.04.01.05.01.04.01.05.01.05.01.04.01.05.01.04.01.05.01.04.01.05.02.04.01.05.01.04.01.05.02.05.01.04.01.04.02.05.01.05.02.04.01.04.01.05.02.04.01.05.02.04.02.05.01.04.02.04.01.05.02.04.02.05.01.04.02.04.02.05.01.04.02.05.02.04.02.04.02.04.02.05.01.04.02.04.02.05.02.04.02.04.02.04.02.04.02.05.02.04.02.04.03.04.02.04.02.05.02.04.02.04.03.04.02.04.02.04.02.04.03.05.02.04.02.04.03.04.02.04.02.04.03.04.02.04.03.04.02.04.03.04.02.04.03.04.02.03.03.04.03.04.02.04.03.04.02.04.03.04.03.04.03.03.02.04.03.04.03.04.03.04.03.03.02.04.03.04.03.03.03.04.03.04.03.03.03.04.03.04.03.03.03.04.03.03.03.04.03.04.03.03.03.04.03.03.04.04.03.03.03.03.03.04.03.03.03.04.04.03.03.03.03.04.04.03.03.03.03.04.04.03.03.03.03.04.04.03.03.03.04.03.03.03.04.03.03.04.04.03.03.03.04.03.03.03.04.03.03.03.04.03.04.03.03.03.04.03.03.03.04.03.04.03.04.03.03.02.04.03.04.03.03.03.04.03.04.02.04.03.04.03.03.03.04.02.04.03.04.02.04.03.04.03.04.02.04.03.04.02.04.03.04.02.04.03.04.02.04.03.04.02.04.03.04.02.04.02.04.03.04.02.04.02.04.03.04.02.04.02.04.02.05.02.04.03.04.02.04.02.04.02.05.02.04.02.04.02.04.02.04.02.05.02.04.02.04.02.04.02.05.02.04.02.04.01.05.02.04.02.04.02.05.01.04.02.04.02.05.02.04.01.05.02.04.02.05.01.04.02.04.01.05.02.04.01.05.02.04.01.05.02.04.01.05.01.04.02.05.01.04.01.05.02.04.01.05.01.04.01.05.02.04.01.05.01.04.01.05.01.04.01.05.01.05.01.04.01.05.01.05.01.04.01.05.01.04.01.05.01.04.01.05v.05l.01.04.01.05.01.05v.04l.01.05.01.05.01.04v.05l.01.05v.04l.01.05v.05l.01.04v.05l.01.05v.04l.01.05v.09l.01.05v.09l.01.05v.19l.01.05v.51l-.01.05v.19l-.01.04v.1l-.01.04v.1l-.01.05v.04l-.01.05v.05l-.01.04v.05l-.01.05v.04l-.01.05v.05l-.01.04-.01.05-.01.04v.05l-.01.05-.01.05-.01.04v.05l-.01.04-.01.05-.01.05-.01.04-.01.05-.01.04-.01.05-.01.05-.01.04-.01.05-.01.04-.01.05-.01.04-.01.05-.01.05-.02.04-.01.05-.01.04-.01.05-.02.04-.01.05-.01.04-.02.05-.01.04-.01.05-.02.04-.01.05-.02.04-.01.05-.02.04-.01.04-.02.05-.01.04-.02.05-.02.04-.01.05-.02.04-.02.04-.02.05-.01.04-.02.04-.02.05-.02.04-.01.04-.02.05-.02.04-.02.04-.02.05-.02.04-.02.04-.02.05-.02.04-.02.04-.02.04-.02.04-.02.05-.02.04-.02.04-.03.04-.02.04-.02.04-.02.05-.02.04-.03.04-.02.04-.02.04-.03.04-.02.04-.02.04-.03.04-.02.04-.03.04-.02.04-.03.04-.02.04-.03.04-.02.04-.03.04-.02.04-.03.04-.03.04-.02.04-.03.04-.02.04-.03.03-.03.04-.03.04-.02.04-.03.04-.03.03-.03.04-.03.04-.02.04-.03.03-.03.04-.03.04-.03.03-.03.04-.03.04-.03.03-.03.04-.03.04-.03.03-.03.04-.03.03-.03.04-.03.03-.04.04-.03.03-.03.04-.03.03-.03.04-.03.03-.04.03-.03.04-.03.03-.04.04-.03.03-.03.03-.04.04-.03.03-.03.03-.04.03-.03.04-.04.03-.03.03-.03.03-.04.03-.03.03-.04.04-.03.03-.04.03-.04.03-.03.03-.04.03-.03.03-.04.03-.04.03-.03.03-.04.03-.04.03-.03.03-.04.02-.04.04-.03.02-.04.03-.04.03-.04.03-.04.03-.03.02-.04.03-.04.03-.04.02-.04.03-.04.03-.04.02-.04.03-.03.03-.04.02-.04.03-.04.02-.04.03-.04.02-.04.03-.04.02-.04.02-.04.03-.04.02-.04.03-.04.02-.05.02-.04.03-.04.02-.04.02-.04.02-.04.03-.04.02-.05.02-.04.02-.04.02-.04.02-.04.02-.05.03-.04.02-.04.01-.04.03-.04.02-.05.02-.04.01-.04.02-.05.02-.04.02-.04.02-.04.02-.05.02-.04.01-.05.02-.04.02-.04.02-.05.01-.04.02-.05.02-.04.01-.04.02-.05.01-.04.02-.05.01-.04.02-.05.02-.04.01-.04.01-.05.02-.05.01-.04.02-.04.01-.05.01-.05.01-.04.02-.05.01-.04.01-.05.01-.04.02-.05.01-.04.01-.05.01-.04.01-.05.01-.05.01-.04.01-.05.01-.04.01-.05.01-.05.01-.04.01-.05.01-.04.01-.05.01h-.05l-.04.01-.05.01-.05.01h-.04l-.05.01-.05.01h-.04l-.05.01-.05.01h-.04l-.05.01h-.05l-.04.01h-.05l-.05.01h-.09l-.05.01h-.09l-.05.01h-.09l-.05.01h-.28l-.05.01h-.66l-.05-.01h-.28l-.05-.01h-.09l-.05-.01h-.09l-.05-.01h-.09l-.05-.01h-.04l-.05-.01h-.05l-.05-.01h-.04l-.05-.01-.04-.01h-.05l-.05-.01-.04-.01h-.05l-.05-.01-.04-.01-.05-.01h-.05l-.04-.01-.05-.01-.05-.01-.04-.01-.05-.01-.04-.01-.05-.01-.04-.01-.05-.01-.05-.01-.04-.01-.05-.01-.04-.01-.05-.01-.04-.01-.05-.02-.05-.01-.04-.01-.05-.01-.04-.02-.05-.01-.04-.01-.05-.01-.04-.02-.05-.01-.04-.02-.05-.01-.04-.01-.05-.02-.04-.02-.05-.01-.04-.02-.04-.01-.05-.02-.04-.01-.05-.02-.04-.02-.04-.01-.05-.02-.04-.02-.04-.02-.05-.01-.04-.02-.05-.02-.04-.02-.04-.02-.04-.02-.05-.02-.04-.01-.04-.02-.04-.02-.05-.03-.04-.01-.04-.02-.05-.03-.04-.02-.04-.02-.04-.02-.04-.02-.05-.02-.04-.02-.04-.03-.04-.02-.04-.02-.04-.02-.04-.03-.04-.02-.04-.02-.04-.03-.04-.02-.05-.03-.04-.02-.04-.02-.04-.03-.03-.02-.04-.03-.04-.02-.04-.03-.04-.02-.04-.03-.04-.03-.04-.02-.04-.03-.04-.03-.04-.02-.03-.03-.04-.03-.04-.02-.04-.03-.04-.03-.04-.03-.03-.03-.04-.02-.04-.04-.04-.02-.03-.03-.04-.03-.04-.03-.03-.03-.04-.03-.03-.03-.04-.03-.04-.03-.03-.03-.04-.03-.03-.03-.04-.03-.03-.04-.04-.03-.03-.03-.04-.03-.03-.03-.04-.03-.03-.04-.03-.03-.04-.03-.03-.03-.04-.04-.03-.03-.03-.03-.03-.04-.04-.03-.03-.04-.03-.03-.03-.03-.04-.04-.03-.03-.03-.04-.03-.03-.03-.04-.03-.03-.03-.04-.04-.03-.03-.04-.03-.03-.03-.04-.03-.04-.03-.03-.03-.04-.03-.04-.03-.03-.03-.04-.02-.04-.03-.03-.03-.04-.03-.04-.03-.04-.03-.03-.02-.04-.03-.04-.03-.04-.03-.04-.02-.03-.03-.04-.03-.04-.02-.04-.03-.04-.02-.04-.03-.04-.03-.04-.02-.04-.03-.04-.02-.04-.03-.04-.02-.04-.03-.04-.02-.04-.02-.04-.03-.04-.02-.04-.02-.04-.03-.04-.02-.04-.02-.04-.03-.04-.02-.05-.02-.04-.02-.04-.02-.04-.02-.04-.03-.04-.02-.05-.02-.04-.02-.04-.02-.04-.02-.04-.02-.05-.02-.04-.02-.04-.02-.05-.01-.04-.02-.04-.02-.05-.02-.04-.02-.04-.02-.05-.01-.04-.02-.04-.02-.05-.02-.04-.01-.04-.02-.05-.02-.04-.01-.05-.02-.04-.01-.05-.02-.04-.01-.04-.02-.05-.01-.04-.02-.05-.01-.04-.02-.05-.01-.04-.01-.05-.02-.04-.01-.05-.01-.04-.02-.05-.01-.04-.01-.05-.01-.04-.02-.05-.01-.05-.01-.04-.01-.05-.01-.04-.01-.05-.01-.04-.01-.05-.01-.05-.01-.04-.01-.05-.01-.04-.01-.05-.01-.05v-.04l-.01-.05-.01-.04-.01-.05-.01-.05v-.05l-.01-.04-.01-.05v-.04l-.01-.05-.01-.05v-.04l-.01-.05v-.05l-.01-.04v-.05l-.01-.05v-.04l-.01-.05v-.14l-.01-.05v-.09l-.01-.05v-.19l-.01-.05v-.42l.01-.04v-.19l.01-.05v-.09l.01-.05v-.14l.01-.05v-.04l.01-.05v-.05l.01-.04v-.05l.01-.05v-.04l.01-.05.01-.05v-.04l.01-.05.01-.05v-.04l.01-.05.01-.05.01-.04.01-.05v-.05l.01-.04.01-.05.01-.04.01-.05.01-.04.01-.05.01-.05.01-.04.01-.05.01-.05.01-.04.01-.05.01-.04.02-.05.01-.04.01-.05.01-.04.02-.05.01-.04.01-.05.02-.04.01-.05.01-.04.02-.05.01-.04.02-.05.01-.04.02-.05.01-.04.02-.05.01-.04.02-.04.01-.05.02-.04.02-.05.01-.04.02-.05.02-.04.02-.04.01-.05.02-.04.02-.04.02-.05.02-.04.02-.04.01-.05.02-.04.02-.04.02-.04.02-.05.02-.04.02-.04.02-.04.02-.04.02-.05.03-.04.02-.04.02-.04.02-.04.02-.05.02-.04.03-.04.02-.04.02-.04.03-.04.02-.04.02-.04.03-.04.02-.04.02-.04.03-.04.02-.04.03-.04.02-.04.03-.04.02-.04.03-.04.03-.04.02-.04.03-.04.02-.04.03-.04.03-.04.02-.04.03-.03.03-.04.03-.04.02-.04.03-.04.03-.03.03-.04.03-.04.03-.03.02-.04.03-.04.03-.04.03-.03.03-.04.03-.03.03-.04.03-.04.03-.03.03-.04.04-.03.03-.04.03-.03.03-.04.03-.03.03-.04.03-.03.04-.04.03-.03.03-.04.03-.03.04-.03.03-.04.03-.03.03-.03.04-.04.03-.03.04-.03.03-.04.03-.03.04-.03.03-.03.04-.03.03-.03.04-.04.03-.03.04-.03.03-.03.04-.03.03-.03.04-.03.04-.03.03-.03.04-.03.03-.03.04-.03.04-.03.03-.03.04-.03.04-.03.04-.02.03-.03.04-.03.04-.03.04-.03.04-.02.04-.03.03-.03.04-.03.04-.02.04-.03.04-.02.04-.03.04-.03.04-.02.04-.03.04-.02.04-.03.03-.02.04-.03.04-.02.04-.03.05-.02.04-.02.04-.03.04-.02.04-.02.04-.03.04-.02.04-.02.04-.02.04-.03.04-.02.05-.02.04-.02.04-.02.04-.03.04-.02.05-.02.04-.02.04-.02.05-.02.04-.02.04-.02.04-.02.05-.02.04-.01.04-.02.04-.02.05-.02.04-.02.05-.02.04-.01.04-.02.05-.02.04-.01.04-.02.05-.02.04-.01.05-.02.04-.01.04-.02.05-.02.04-.01.05-.02.04-.01.05-.01.04-.02.05-.01.04-.02.05-.01.04-.01.05-.02.04-.01.05-.01.04-.01.05-.02.05-.01.04-.01.05-.01.04-.01.05-.01.04-.01.05-.01.05-.01.04-.01.05-.01.04-.01.05-.01.04-.01.05-.01.05-.01.04-.01h.05l.05-.01.04-.01.05-.01.05-.01h.04l.05-.01h.05l.04-.01.05-.01h.04l.05-.01h.05l.05-.01h.04l.05-.01h.05l.04-.01h.1l.04-.01h.14l.05-.01h.24l.04-.01h.67z" data-color="1"/>
        <path fill-rule="evenodd" fill="#f5ad3c" d="M277.38 0h.38l.04.01h.04l.04.01h.13l.04.01h.04l.04.01h.08l.04.01h.04l.05.01h.04l.04.01h.04l.04.01h.04l.04.01h.05l.04.01.04.01h.04l.04.01h.04l.04.01.04.01.05.01.04.01h.04l.04.01.04.01.04.01h.04l.04.01.04.01.04.01.04.01.04.01.04.01.04.01.05.01.04.01.04.01.04.01.04.01.04.01.04.01.04.01.04.02.04.01.04.01.04.01.04.01.04.02.04.01.04.01.04.01.04.02.03.01.04.01.04.02.04.01.04.02.04.01.04.01.04.02.04.01.04.02.04.01.03.02.04.01.04.02.04.02.04.01.04.02.04.01.04.02.03.02.04.01.04.02.04.02.03.01.04.02.04.02.04.02.04.01.03.02.04.02.04.02.04.02.03.02.04.02.04.02.03.02.04.02.04.02.03.02.04.02.04.01.03.03.04.02.04.02.03.02.04.02.03.02.04.02.03.02.04.02.04.03.03.02.04.02.03.02.04.03.03.02.04.02.03.02.04.03.03.02.04.02.03.03.03.02.04.02.03.03.04.02.03.03.03.02.04.03.03.02.03.03.04.02.03.03.03.02.04.03.03.02.03.03.04.03.03.02.03.03.03.02.03.03.04.03.03.03.03.02.03.03.03.03.03.03.04.02.03.03.03.03.03.02.03.03.03.03.03.03.03.03.03.03.03.03.03.03.03.03.03.02.03.03.03.03.03.03.03.03.02.03.03.03.03.03.03.03.03.03.03.04.02.03.03.03.03.03.03.03.03.03.02.03.03.03.03.04.03.03.02.03.03.03.03.03.02.03.03.04.03.03.02.03.03.03.02.04.03.03.02.03.03.04.02.03.03.03.02.04.03.03.02.03.03.04.02.03.02.04.03.03.02.03.03.04.02.03.02.04.03.03.02.04.02.03.02.04.02.03.03.04.02.03.02.04.02.03.02.04.03.04.02.03.02.04.02.03.02.04.02.04.02.03.02.04.02.03.02.04.02.04.02.04.02.03.02.04.02.04.02.03.02.04.02.04.02.04.01.03.02.04.02.04.02.03.01.04.02.04.02.04.02.04.01.03.02.04.02.04.01.04.02.04.01.04.02.04.02.03.01.04.02.04.01.04.02.04.01.04.02.04.01.04.02.04.01.04.01.03.02.04.01.04.01.04.02.04.01.04.01.04.01.04.02.04.01.04.01.04.01.04.01.04.02.04.01.04.01.04.01.04.01.04.01.04.01.04.01.04.01.04.01.04.01.04.01.04.01.04.01.04.01.05.01.04.01.04v.04l.01.04.01.04.01.04.01.04v.04l.01.04.01.04.01.05v.04l.01.04v.04l.01.04.01.04v.04l.01.04v.05l.01.04v.04l.01.04v.04l.01.04v.04l.01.05v.08l.01.04v.08l.01.05v.08l.01.04v.25l.01.04v.89l-.01.05v.25l-.01.04v.08l-.01.04v.09l-.01.04v.08l-.01.04v.04l-.01.05v.04l-.01.04v.04l-.01.04v.04l-.01.04v.04l-.01.04-.01.05v.04l-.01.04v.04l-.01.04-.01.04-.01.04v.04l-.01.05-.01.04-.01.04-.01.04v.04l-.01.04-.01.04-.01.04-.01.04-.01.04-.01.04-.01.04-.01.04-.01.04-.01.04-.01.05-.01.03-.01.04-.01.04-.01.05-.01.04-.02.04-.01.04-.01.04-.01.04-.01.03-.02.04-.01.04-.01.04-.01.04-.02.04-.01.04-.01.04-.02.04-.01.04-.01.04-.02.04-.01.04-.02.04-.01.04-.02.04-.01.04-.02.03-.01.04-.02.04-.02.04-.01.04-.02.04-.01.03-.02.04-.02.04-.01.04-.02.04-.02.04-.02.03-.01.04-.02.04-.02.04-.02.03-.01.04-.02.04-.02.04-.02.03-.02.04-.02.04-.02.03-.02.04-.02.04-.02.03-.02.04-.02.04-.02.03-.02.04-.02.04-.02.03-.02.04-.02.03-.02.04-.03.04-.02.03-.02.04-.02.03-.02.04-.03.03-.02.04-.02.03-.02.04-.02.03-.03.04-.02.03-.02.04-.03.03-.02.04-.03.03-.02.03-.02.04-.03.03-.02.04-.03.03-.02.03-.03.04-.02.03-.03.03-.02.03-.03.04-.02.03-.03.03-.02.04-.03.03-.03.03-.02.03-.03.04-.03.03-.02.03-.03.03-.03.03-.03.04-.02.03-.03.03-.03.03-.03.03-.03.03-.02.03-.03.03-.03.03-.03.03-.03.03-.03.03-.02.03-.03.03-.03.03-.03.03-.03.03-.03.03-.03.03-.03.03-.03.03-.03.03-.03.03-.03.02-.03.03-.03.03-.03.03-.03.03-.03.02-.04.03-.03.03-.03.03-.03.02-.03.03-.03.03-.04.02-.03.03-.03.03-.03.02-.03.03-.04.03-.03.02-.03.03-.04.02-.03.03-.03.02-.04.03-.03.02-.03.03-.04.02-.03.03-.03.02-.04.03-.03.02-.04.02-.03.03-.03.02-.04.03-.03.02-.04.02-.03.02-.04.03-.03.02-.04.02-.03.03-.04.02-.03.02-.04.02-.04.02-.03.03-.04.02-.03.02-.04.02-.03.02-.04.02-.04.02-.03.02-.04.02-.04.02-.03.02-.04.02-.04.02-.03.02-.04.02-.04.02-.03.02-.04.01-.04.02-.04.02-.03.02-.04.02-.04.01-.04.02-.04.02-.03.02-.04.02-.04.01-.04.02-.03.02-.04.01-.04.02-.04.02-.04.01-.04.02-.04.01-.04.02-.03.01-.04.02-.04.01-.04.02-.04.01-.04.02-.04.01-.04.01-.04.02-.04.01-.04.01-.03.02-.04.01-.04.01-.04.02-.04.01-.04.01-.04.01-.04.02-.04.01-.04.01-.04.01-.04.01-.04.01-.04.01-.04.02-.04.01-.04.01-.04.01-.05.01-.04.01-.04.01h-.04l-.04.01-.04.01-.04.01-.04.01-.04.01-.04.01-.04.01h-.04l-.04.01-.04.01-.05.01h-.04l-.04.01-.04.01h-.04l-.04.01-.04.01h-.04l-.05.01h-.04l-.04.01h-.04l-.04.01-.04.01h-.09l-.04.01h-.04l-.04.01h-.08l-.04.01h-.09l-.04.01h-.12l-.04.01h-.25l-.05.01h-.29l-.04-.01h-.25l-.04-.01h-.13l-.04-.01h-.08l-.04-.01h-.09l-.04-.01h-.04l-.04-.01h-.08l-.04-.01-.05-.01h-.04l-.04-.01h-.04l-.04-.01h-.04l-.04-.01-.05-.01h-.03l-.05-.01-.04-.01h-.04l-.04-.01-.04-.01-.04-.01h-.04l-.04-.01-.04-.01-.05-.01-.04-.01-.04-.01-.04-.01-.04-.01h-.04l-.04-.01-.04-.01-.04-.01-.04-.01-.04-.01-.04-.01-.04-.02-.04-.01-.04-.01-.04-.01-.04-.01-.04-.01-.04-.01-.04-.02-.04-.01-.04-.01-.04-.01-.04-.02-.04-.01-.04-.01-.04-.02-.04-.01-.04-.01-.04-.02-.04-.01-.04-.01-.04-.02-.04-.01-.03-.02-.04-.01-.04-.02-.04-.01-.04-.02-.04-.01-.04-.02-.04-.01-.03-.02-.04-.02-.04-.01-.04-.02-.04-.02-.03-.01-.04-.02-.04-.02-.04-.02-.04-.02-.03-.01-.04-.02-.04-.02-.04-.02-.03-.02-.04-.01-.04-.02-.04-.02-.03-.02-.04-.02-.04-.02-.03-.02-.04-.02-.04-.02-.03-.02-.04-.02-.03-.02-.04-.02-.04-.02-.03-.02-.04-.02-.03-.02-.04-.03-.04-.02-.03-.02-.04-.02-.03-.02-.04-.03-.03-.02-.04-.02-.03-.03-.04-.02-.03-.02-.04-.02-.03-.03-.04-.02-.03-.03-.03-.02-.04-.02-.03-.03-.04-.02-.03-.03-.03-.02-.04-.03-.03-.02-.03-.03-.04-.02-.03-.03-.03-.02-.03-.03-.04-.02-.03-.03-.03-.03-.04-.02-.03-.03-.03-.03-.03-.02-.03-.03-.03-.03-.04-.02-.03-.03-.03-.03-.03-.03-.03-.02-.03-.03-.03-.03-.03-.03-.03-.03-.03-.02-.03-.03-.04-.03-.02-.03-.03-.03-.03-.03-.03-.03-.03-.03-.03-.03-.03-.03-.03-.03-.03-.03-.03-.03-.03-.03-.03-.03-.02-.03-.03-.03-.03-.03-.03-.03-.03-.03-.02-.03-.03-.03-.03-.03-.03-.04-.02-.03-.03-.03-.03-.03-.03-.03-.02-.04-.03-.03-.02-.03-.03-.03-.03-.04-.02-.03-.03-.03-.02-.04-.03-.03-.02-.03-.03-.03-.02-.04-.03-.03-.02-.03-.03-.04-.02-.03-.03-.04-.02-.03-.02-.03-.03-.04-.02-.03-.02-.04-.03-.03-.02-.04-.02-.03-.03-.04-.02-.03-.02-.04-.02-.03-.02-.04-.03-.03-.02-.04-.02-.03-.02-.04-.02-.04-.02-.03-.03-.04-.02-.03-.02-.04-.02-.04-.02-.03-.02-.04-.02-.04-.02-.03-.02-.04-.02-.04-.02-.03-.02-.04-.01-.04-.02-.03-.02-.04-.02-.04-.02-.04-.01-.03-.02-.04-.02-.04-.02-.04-.02-.03-.01-.04-.02-.04-.02-.04-.02-.04-.01-.04-.02-.03-.01-.04-.02-.04-.01-.04-.02-.04-.02-.04-.01-.03-.02-.04-.01-.04-.02-.04-.01-.04-.02-.04-.01-.04-.01-.04-.02-.04-.01-.04-.02-.04-.01-.04-.01-.04-.01-.04-.02-.04-.01-.04-.01-.04-.01-.03-.02-.04-.01-.04-.01-.04-.01-.04-.01-.04-.01-.05-.02-.04-.01-.04-.01-.03-.01-.05-.01-.04-.01-.04-.01-.04-.01-.04-.01-.04-.01-.04v-.04l-.01-.04-.01-.04-.01-.04-.01-.04-.01-.04-.01-.04v-.04l-.01-.05-.01-.04-.01-.04v-.04l-.01-.04-.01-.04v-.04l-.01-.04-.01-.05v-.04l-.01-.04v-.04l-.01-.04v-.04l-.01-.04v-.04l-.01-.04v-.05l-.01-.04v-.08l-.01-.04v-.04l-.01-.05v-.08l-.01-.04v-.21l-.01-.04V8.81l.01-.04v-.21l.01-.04v-.09l.01-.04v-.04l.01-.04v-.09l.01-.04v-.04l.01-.04v-.04l.01-.04v-.04l.01-.05v-.04l.01-.04v-.04l.01-.04.01-.04v-.04l.01-.04.01-.05v-.04l.01-.04.01-.04.01-.04V7.4l.01-.04.01-.04.01-.04.01-.04.01-.04.01-.05v-.04l.01-.04.01-.04.01-.04.01-.04.01-.04.01-.04.01-.04.01-.04.01-.04.02-.04.01-.04.01-.04.01-.04.01-.04.01-.04.02-.04.01-.04.01-.04.01-.04.02-.04.01-.04.01-.04.01-.04.02-.04.01-.04.02-.03.01-.04.01-.04.02-.04.01-.04.02-.04.01-.04.02-.04.01-.04.02-.04.02-.03.01-.04.02-.04.01-.04.02-.04.01-.04.02-.04.02-.03.02-.04.01-.04.02-.04.02-.04.02-.03.02-.04.01-.04.02-.03.02-.04.02-.04.02-.04.01-.03.02-.04.02-.04.02-.03.02-.04.02-.04.02-.04.02-.03.02-.04.02-.03.02-.04.02-.04.03-.03.02-.04.02-.03.02-.04.02-.04.02-.03.03-.04.02-.03.02-.04.02-.03.02-.04.03-.03.02-.04.02-.03.03-.04.02-.03.02-.04.03-.03.02-.03.02-.04.03-.03.02-.04.03-.03.02-.03.03-.04.02-.03.03-.03.02-.04.03-.03.02-.03.03-.04.02-.03.03-.03.03-.03.02-.04.03-.03.02-.03.03-.03.03-.03.03-.03.02-.04.03-.03.03-.03.03-.03.02-.03.03-.03.03-.03.03-.03.03-.04.02-.03.03-.03.03-.03.03-.03.03-.03.03-.03.03-.03.03-.03.03-.03.03-.02.03-.03.03-.03.02-.03.04-.03.03-.03.03-.03.03-.03.03-.03.03-.02.03-.03.03-.03.03-.02.03-.03.03-.03.04-.03.03-.02.03-.03.03-.03.03-.03.03-.02.04-.03.03-.02.03-.03.04-.03.03-.02.03-.03.03-.02.04-.03.03-.02.03-.03.04-.02.03-.03.03-.02.04-.03.03-.02.04-.03.03-.02.03-.02.04-.03.03-.02.04-.02.03-.03.04-.02.03-.02.04-.02.03-.03.04-.02.03-.02.04-.02.03-.03.04-.02.04-.02.03-.02.04-.02.03-.02.04-.02.04-.02.03-.02.04-.03.03-.01.04-.02.04-.02.03-.02.04-.02.04-.02.03-.02.04-.02.04-.02.04-.02.03-.02.04-.02.04-.02.04-.01.03-.02.04-.02.04-.02.04-.01.04-.02.03-.02.04-.01.04-.02.04-.02.04-.01.03-.02.04-.01.04-.02.04-.02.04-.01.04-.02.04-.01.04-.02.03-.01.04-.02.04-.01.04-.01.04-.02.04-.01.04-.02.04-.01.04-.01.04-.02.04-.01.04-.01.04-.01.04-.02.04-.01.04-.01.04-.01.04-.01.04-.02.04-.01.04-.01.04-.01.04-.01.04-.01.04-.01.04-.01.04-.01.04-.01.04-.01.04-.01.04-.01.04-.01.04-.01.04-.01h.05l.04-.01.04-.01.04-.01h.04l.04-.01.04-.01.04-.01.04-.01h.05l.03-.01h.05l.04-.01.04-.01h.04l.04-.01h.04l.04-.01h.05l.04-.01h.04l.04-.01h.04l.04-.01h.09l.04-.01h.04l.04-.01h.13l.04-.01h.04l.04-.01h.5z" data-color="1"/>
        <path fill-rule="evenodd" fill="#f5ad3c" d="M189.8 52.85h.27l.09.01h.09l.09.01.09.01h.09l.09.01.09.01.09.01.09.01.09.01.09.02.09.01.09.02.08.01.09.02.09.01.09.02.09.02.09.02.09.02.08.02.09.02.09.03.08.02.09.03.09.02.08.03.09.03.08.03.09.02.08.03.09.03.08.04.09.03.08.03.08.04.09.03.08.04.08.04.08.03.08.04.08.04.09.04.08.04.08.04.08.04.07.05.08.04.08.04.08.05.08.04.07.05.08.05.07.05.08.05.08.05.07.05.07.05.08.05.07.05.07.06.08.05.07.06.07.05.07.06.07.05.07.06.07.06.06.06.07.06.07.06.06.06.07.06.07.06.06.07.06.06.07.06.06.07.06.06.06.07.06.07.06.06.06.07.06.07.06.07.06.07.05.07.06.07.05.07.06.07.05.07.05.08.06.07.05.07.05.08.05.07.05.08.05.07.05.08.04.08.05.07.04.08.05.08.04.08.05.08.04.08.04.08.04.08.04.08.04.08.04.08.04.08.03.08.04.08.04.09.03.08.03.08.04.09.03.08.03.09.03.08.03.09.03.08.03.09.03.08.02.09.03.09.02.08.03.09.02.09.02.08.02.09.02.09.02.09.02.08.02.09.01.09.02.09.01.09.02.09.01.09.01.09.02.08.01.1v.08l.01.09.01.09.01.09.01.09v.18l.01.09v.63l-.01.09v.18l-.01.09-.01.09-.01.09-.01.09v.09l-.01.09-.02.09-.01.09-.01.09-.02.09-.01.08-.02.09-.01.09-.02.09-.02.09-.02.09-.02.08-.02.09-.02.09-.02.09-.03.08-.02.09-.03.09-.02.08-.03.09-.03.08-.03.09-.03.08-.03.09-.03.08-.03.09-.04.08-.03.08-.03.09-.04.08-.04.08-.03.09-.04.08-.04.08-.04.08-.04.08-.04.08-.04.08-.04.08-.05.08-.04.08-.05.07-.04.08-.05.08-.04.07-.05.08-.05.08-.05.07-.05.08-.05.07-.05.08-.06.07-.05.07-.05.07-.06.07-.05.08-.06.07-.05.07-.06.07-.06.07-.06.06-.06.07-.06.07-.06.06-.06.07-.06.07-.06.06-.07.07-.06.06-.06.06-.07.06-.07.07-.06.06-.07.06-.07.06-.06.06-.07.05-.07.06-.07.06-.07.05-.07.06-.07.05-.08.06-.07.05-.07.05-.08.06-.07.05-.07.05-.08.05-.08.05-.07.04-.08.05-.07.05-.08.05-.08.04-.08.05-.08.04-.07.04-.08.04-.08.05-.08.04-.09.04-.08.04-.08.03-.08.04-.08.04-.08.03-.09.04-.08.03-.08.04-.09.03-.08.03-.09.03-.08.03-.09.03-.08.03-.09.03-.08.02-.09.03-.09.02-.08.03-.09.02-.09.02-.08.02-.09.02-.09.02-.09.02-.09.02-.09.02-.09.02-.08.01-.09.02-.09.01-.09.01-.09.01-.09.02h-.09l-.09.01-.09.01-.09.01-.09.01h-.09l-.09.01h-.18l-.09.01h-2.26l-.09-.01h-.18l-.09-.01h-.09l-.09-.01-.09-.01-.09-.01-.09-.01h-.09l-.09-.02-.09-.01-.08-.01-.09-.01-.09-.02-.09-.01-.09-.02-.09-.02-.09-.02-.09-.02-.08-.02-.09-.02-.09-.02-.09-.02-.08-.02-.09-.03-.09-.02-.08-.03-.09-.02-.08-.03-.09-.03-.08-.03-.09-.03-.08-.03-.09-.03-.08-.03-.09-.04-.08-.03-.08-.04-.08-.03-.09-.04-.08-.04-.08-.03-.08-.04-.08-.04-.08-.04-.08-.05-.08-.04-.08-.04-.08-.04-.08-.05-.08-.04-.07-.05-.08-.05-.08-.05-.07-.04-.08-.05-.07-.05-.08-.05-.07-.05-.07-.06-.08-.05-.07-.05-.07-.06-.07-.05-.07-.06-.07-.05-.07-.06-.07-.06-.07-.05-.07-.06-.07-.06-.06-.06-.07-.06-.07-.07-.06-.06-.07-.06-.06-.06-.06-.07-.07-.06-.06-.07-.06-.07-.06-.06-.06-.07-.06-.07-.06-.06-.05-.07-.06-.07-.06-.07-.05-.07-.06-.08-.05-.07-.06-.07-.05-.07-.05-.07-.06-.08-.05-.07-.05-.08-.05-.07-.04-.08-.05-.08-.05-.07-.05-.08-.04-.08-.05-.07-.04-.08-.04-.08-.05-.08-.04-.08-.04-.08-.04-.08-.04-.08-.04-.08-.04-.08-.03-.09-.04-.08-.03-.08-.04-.09-.03-.08-.03-.08-.04-.09-.03-.08-.03-.09-.03-.08-.03-.09-.02-.08-.03-.09-.03-.08-.02-.09-.03-.09-.02-.08-.03-.09-.02-.09-.02-.09-.02-.08-.02-.09-.02-.09-.01-.09-.02-.09-.01-.09-.02-.08-.02-.09-.01-.09-.01-.09-.01-.09-.01-.09-.01-.09-.01-.09-.01-.09-.01-.09v-.09l-.01-.09v-.09l-.01-.09v-.63l.01-.09v-.09l.01-.09v-.09l.01-.09.01-.09.01-.09.01-.08.01-.1.01-.08.01-.09.01-.09.02-.09.02-.09.01-.09.02-.09.01-.09.02-.08.02-.09.02-.09.02-.09.02-.08.03-.09.02-.09.03-.08.02-.09.03-.09.03-.08.02-.09.03-.08.03-.09.03-.08.03-.09.04-.08.03-.09.03-.08.04-.08.03-.09.04-.08.03-.08.04-.08.04-.08.04-.08.04-.08.04-.08.04-.08.05-.08.04-.08.04-.08.05-.08.04-.08.05-.07.05-.08.05-.08.04-.07.05-.08.05-.07.05-.08.06-.07.05-.07.05-.08.06-.07.05-.07.06-.07.05-.07.06-.07.06-.07.05-.07.06-.07.06-.07.06-.06.06-.07.06-.07.06-.06.07-.07.06-.06.06-.06.07-.07.06-.06.07-.06.07-.06.06-.06.07-.06.07-.06.07-.06.07-.06.07-.05.07-.06.07-.05.07-.06.07-.05.07-.06.08-.05.07-.05.07-.05.08-.05.07-.05.08-.05.07-.05.08-.05.08-.05.07-.04.08-.05.08-.04.08-.04.08-.05.08-.04.08-.04.08-.04.08-.04.08-.04.08-.04.08-.03.09-.04.08-.04.08-.03.08-.04.09-.03.08-.03.09-.04.08-.03.09-.03.08-.02.09-.03.08-.03.09-.03.08-.02.09-.03.09-.02.08-.03.09-.02.09-.02.09-.02.08-.02.09-.02.09-.02.09-.01.09-.02.09-.01.09-.02.09-.01.08-.02.09-.01.09-.01.09-.01.09-.01.09-.01h.09l.09-.01.09-.01h.09l.09-.01h2.35z" data-color="1"/>
        <path d="M357.91 5.17h.95l.05.01h.05l.05.01h.05l.05.01h.05l.05.01h.05l.05.02h.05l.05.02h.05l.05.02h.05l.05.02h.05l.05.02h.05l.05.02h.05l.05.02h.05l.05.02h.05l.05.02h.05l.05.02h.05l.05.03h.05l.05.03h.05l.05.03h.05l.05.03.05.02.05.02h.05l.05.03h.05l.05.03.05.02.05.02.05.02.05.02.05.02.05.02.05.02.05.02.05.02.05.02.05.02.05.02.05.02.05.02.05.02.05.02.05.02.05.02.05.02.05.02.05.02.04.02.05.02.04.02.05.02.04.02.05.02.04.02.04.02.04.02.04.02.04.02.04.02.04.02.04.02.04.02.04.03.04.02.04.02.04.03.04.03.04.03.04.03.04.03.04.03.04.03.04.03.04.03.04.03.04.03.04.03.04.03.04.03.04.03.04.03.04.03.04.03.04.03.04.03.04.03.04.03.04.03.04.03.04.03.04.03.04.03.04.03.04.03.04.03.04.03.04.03.04.03.04.03.04.03.04.03.04.03.04.03.04.03.04.03.04.03.04.04.03.03.04.04.04.03.03.04.03.03.04.04.03.04.03.04.03.04.03.04.03.04.03.04.03.04.03.04.03.04.03.04.03.04.03.04.03.04.03.04.03.04.03.04.03.04.03.04.03.04.03.04.03.04.03.04.03.04.03.04.03.04.03.04.03.04.03.04.03.04.03.04.03.04.03.04.03.04.03.04.03.04.03.04.03.04.03.04.03.04.03.04.03.04.02.04.02.04.03.04.02.04.02.04.02.04.02.04.02.04.02.04.02.04.02.04.02.05.02.04.02.04.02.05.02.04.02.05.02.04.02.05.02.05.02.05.02.05.02.05.02.05.02.05.02.05.02.05.02.05.02.05.02.05.02.05.02.05.02.05.02.05.02.05.02.05.02.05.02.05.02.05.02.05.02.05.02.05.02.05v.05l.03.05v.05l.03.05v.05l.03.05v.05l.03.05v.05l.03.05v.05l.02.05v.05l.02.05v.05l.02.05v.05l.02.05v.05l.02.05v.05l.02.05v.05l.02.05v.05l.02.05v.05l.02.05v.05l.01.05v.05l.02.05v.05l.01.05v.05l.01.05v.05l.01.05v1.95l-.01.05v.05l-.01.05v.05l-.01.05v.05l-.02.05v.05l-.01.05v.05l-.02.05v.05l-.02.05v.05l-.02.05v.05l-.02.05v.05l-.02.05v.05l-.02.05v.05l-.02.05v.05l-.02.05v.05l-.02.05v.05l-.03.05v.05l-.03.05v.05l-.03.05v.05l-.03.05-.02.05v.05l-.03.05-.02.05-.02.05-.02.05-.02.05-.02.05-.02.05-.02.05-.02.05-.02.05-.02.05-.02.05-.02.05-.02.05-.02.05-.02.05-.02.05-.02.05-.02.05-.02.05-.02.05-.02.05-.02.05-.02.04-.02.05-.02.05-.02.04-.02.05-.02.04-.02.05-.02.04-.02.04-.02.05-.02.04-.02.04-.02.05-.02.05-.02.04-.02.05-.02.04-.02.05-.02.04-.02.04-.02.05-.02.04-.02.04-.02.04-.02.04-.02.04-.02.04-.02.04-.02.04-.02.04-.03.04-.02.04-.03.04-.03.04-.03.04-.03.04-.03.04-.03.04-.03.04-.03.04-.03.04-.03.04-.03.04-.03.04-.03.04-.03.04-.03.04-.03.04-.03.04-.03.04-.03.04-.03.04-.03.04-.03.04-.03.04-.03.04-.03.04-.03.04-.03.04-.03.04-.03.04-.03.04-.03.04-.03.04-.03.04-.03.04-.03.04-.03.04-.03.04-.03.04-.03.04-.03.04-.03.04-.03.04-.04.04-.03.03-.04.04-.04.03-.03.03-.04.04-.04.03-.04.03-.04.03-.04.03-.04.03-.04.03-.04.03-.04.03-.04.03-.04.03-.04.03-.04.03-.04.03-.04.03-.04.03-.04.03-.04.03-.04.03-.04.03-.04.03-.04.03-.04.03-.04.03-.04.03-.04.03-.04.03-.04.03-.04.03-.04.03-.04.03-.04.03-.04.03-.04.03-.04.03-.04.03-.04.03-.04.03-.04.03-.04.03-.04.03-.04.02-.04.03-.04.02-.04.02-.04.02-.04.02-.04.02-.04.02-.04.02-.04.02-.04.02-.04.02-.05.02-.04.02-.04.02-.05.02-.05.02-.04.02-.05.02-.05.02-.04.02-.05.02-.05.02-.05.02-.05.02-.05.02-.05.02-.05.02-.05.02-.05.02-.05.02-.05.02-.05.02-.05.02-.05.02-.05.02-.05.02-.05.02-.05.02-.05.02-.05.02-.05.02-.05.02h-.05l-.05.03-.05.02h-.05l-.05.03h-.05l-.05.03h-.05l-.05.03h-.05l-.05.02h-.05l-.05.02h-.05l-.05.02h-.05l-.05.02h-.05l-.05.02h-.05l-.05.02h-.05l-.05.02h-.05l-.05.02h-.05l-.05.02h-.05l-.05.01h-.05l-.05.02h-.05l-.05.01h-.05l-.05.01h-.05l-.05.01h-1.7l-.25-.03-.27-.03-.29-.04-.31-.05-.34-.06-.37-.08-.4-.11-.43-.14-.46-.17-.51-.23-.55-.28-.58-.35-.62-.44-.31-.27-.04-.03-.04-.03-.04-.03-.04-.03-.04-.03-.04-.03-.04-.03-.03-.03-.04-.03-.03-.03-.04-.03-.03-.03-.03-.03-.03-.03-.03-.03-.03-.03-.03-.03-.03-.03-.03-.04-.03-.04-.03-.03-.03-.03-.03-.04-.03-.03-.03-.04-.03-.04-.03-.04-.03-.04-.03-.03-.03-.04-.03-.04-.03-.04-.03-.04-.03-.04-.03-.04-.03-.04-.03-.04-.03-.04-.03-.05-.03-.04-.03-.04-.03-.04-.03-.04-.03-.04-.03-.04-.03-.04-.03-.04-.03-.04-.03-.04-.03-.04-.03-.04-.03-.04-.03-.04-.02-.04-.03-.04-.03-.04-.02-.04-.02-.04-.03-.04-.02-.04-.02-.05-.02-.04-.02-.04-.02-.04-.02-.04-.02-.04-.02-.04-.02-.04-.02-.04-.02-.04-.02-.04-.02-.04-.02-.04-.02-.04-.02-.04-.02-.04-.02-.04-.02-.04-.02-.04-.02-.04-.02-.04-.02-.04-.02-.05-.02-.04-.02-.05-.02-.04-.02-.05-.02-.05-.02-.04-.02-.05-.02-.05-.02-.05-.02-.05-.02-.05-.02-.05-.02-.05-.02-.05-.02-.05-.02-.05-.02-.05-.02-.05-.02-.05v-.05l-.03-.05-.02-.05-.01-.06-.02-.05v-.05l-.03-.05v-.05l-.03-.05v-.05l-.03-.05v-.05l-.02-.05v-.05l-.02-.05v-.05l-.02-.05v-.05l-.02-.05v-.05l-.02-.05v-.05l-.02-.05v-.05l-.02-.05v-.05l-.01-.01v-.05l-.02-.05v-.05l-.01-.05v-.05l-.02-.05v-.05l-.02-.05v-.05l-.01-.05v-.05l-.01-.05v-.05l-.01-.05v-2.05l.01-.05v-.05l.01-.05v-.05l.01-.05v-.05l.01-.05v-.05l.02-.05v-.06l.02-.05v-.05l.02-.05V13l.02-.05v-.05l.02-.05v-.05l.02-.05v-.05l.02-.05v-.05l.02-.05v-.05l.02-.05v-.05l.02-.05v-.05l.03-.06v-.05l.02-.05v-.05l.03-.05v-.05l.03-.05.02-.05v-.05l.03-.05.02-.05.02-.05.02-.05.02-.05v-.05l.03-.05.02-.05.02-.05.13-.36.3-.66.32-.58.32-.5.32-.44.31-.38.37-.4.5-.48.54-.44.5-.36.48-.3.46-.25.44-.22.44-.19.44-.17.44-.15.45-.12.46-.11.48-.09.5-.07.52-.04h.6Zm.45 18.27h-.25.26-.02Zm-.61-17.78h.02-.01Z" fill-rule="evenodd" fill="#f5ad3c" data-color="1"/>
        <path d="M246.81 200.92c-.34 0-.67-.12-.94-.36-.59-.52-.64-1.42-.12-2 .52-.59 53.69-58.69 161.41-29.34.76.21 1.2.99 1 1.74-.21.76-.99 1.2-1.74 1-105.93-28.87-158.03 27.91-158.54 28.49-.28.32-.67.48-1.06.48Z" fill="#f5ad3c" data-color="1"/>
        <path d="M245.53 191.34h.95l.05.01h.05l.05.01h.05l.05.01h.05l.05.01h.05l.05.02h.05l.05.01h.05l.05.02h.05l.05.02h.05l.05.02h.05l.05.02h.05l.05.02h.05l.05.02h.05l.05.02h.05l.05.02h.05l.05.02h.05l.05.03h.05l.05.03.05.02h.05l.05.03h.05l.05.03h.05l.05.03.05.02.05.02.05.02.05.02.05.02.05.02.05.02.05.02.05.02.05.02.05.02.05.02.05.02.05.02.05.02.05.02.05.02.05.02.04.02.05.02.05.02.04.02.05.02.04.02.05.02.04.02.04.02.04.02.04.02.04.02.04.02.04.02.04.02.04.02.04.02.04.02.04.02.04.02.04.03.04.02.04.02.04.03.04.02.04.03.04.03.04.03.04.03.04.03.04.03.04.03.04.03.04.03.04.03.04.03.04.03.04.03.04.03.04.03.04.03.04.03.04.03.04.03.04.03.04.03.04.03.04.03.04.03.04.03.04.03.04.03.04.03.04.03.04.03.04.03.04.03.04.03.04.03.04.03.04.03.04.03.04.03.04.03.04.03.03.03.04.04.03.03.04.04.03.03.03.04.03.04.03.04.03.04.03.04.03.04.03.04.03.04.03.04.03.04.03.04.03.04.03.04.03.04.03.04.03.04.03.04.03.04.03.04.03.04.03.04.03.04.03.04.03.04.03.04.03.04.03.04.03.04.03.04.03.04.03.04.03.04.03.04.03.04.03.04.03.04.03.04.03.04.03.04.03.04.02.04.03.04.02.04.03.04.02.04.02.04.02.04.02.04.02.04.02.04.02.04.02.04.02.04.02.04.02.04.02.04.02.04.02.05.02.04.02.04.02.05.02.04.02.05.02.05.02.04.02.05.02.05.02.05.02.05.02.05.02.05.02.05.02.05.02.05.02.05.02.05.02.05.02.05.02.05.02.05.02.05.02.05.02.05v.05l.03.05.02.05.02.05.02.05.02.05v.05l.03.05v.05l.03.05v.05l.02.05v.05l.02.05v.05l.02.05v.05l.02.05v.05l.02.05v.05l.02.05v.05l.02.05v.05l.02.05v.05l.02.05v.05l.02.05v.05l.02.05v.05l.02.05v.05l.01.05v.05l.01.05v.05l.01.05v.05l.01.05v2.65l-.01.05v.05l-.01.05v.05l-.01.05v.05l-.01.05v.05l-.02.05v.05l-.02.05v.05l-.02.05v.05l-.02.05v.05l-.02.05v.05l-.02.05v.05l-.02.05v.05l-.02.05v.05l-.02.05v.05l-.02.05v.05l-.03.05v.05l-.03.05v.05l-.03.05v.05l-.03.05-.02.05-.02.05-.02.05-.02.05v.05l-.03.05-.02.05-.02.05-.02.05-.02.05-.02.05-.02.05-.02.05-.02.05-.02.05-.02.05-.02.05-.02.05-.02.05-.02.04-.02.05-.02.05-.02.05-.02.04-.02.05-.02.05-.02.04-.02.04-.02.05-.02.04-.02.04-.02.05-.02.04-.02.04-.02.04-.02.04-.02.04-.02.04-.02.04-.02.04-.02.04-.02.04-.02.04-.02.04-.03.04-.02.04-.03.04-.03.04-.03.04-.03.04-.03.04-.03.04-.03.04-.03.04-.03.04-.03.04-.03.04-.03.04-.03.04-.03.04-.03.04-.03.04-.03.04-.03.04-.03.04-.03.04-.03.04-.03.04-.03.04-.03.04-.03.04-.03.04-.03.04-.03.04-.03.04-.03.04-.03.04-.03.04-.03.04-.03.04-.03.04-.03.04-.03.04-.03.04-.03.04-.03.04-.03.04-.04.03-.03.04-.03.03-.04.03-.03.04-.04.03-.04.03-.04.03-.04.03-.04.03-.04.03-.04.03-.04.03-.04.03-.04.03-.04.03-.04.03-.04.03-.04.03-.04.03-.04.03-.04.03-.04.03-.04.03-.04.03-.04.03-.04.03-.04.03-.04.03-.04.03-.04.03-.04.03-.04.03-.04.03-.04.03-.04.03-.04.03-.04.03-.04.03-.04.03-.04.03-.04.03-.04.03-.04.03-.04.02-.04.03-.04.03-.04.02-.04.03-.04.02-.04.02-.04.02-.04.02-.04.02-.04.02-.04.02-.04.02-.04.02-.04.02-.04.02-.04.02-.04.02-.05.02-.04.02-.04.02-.05.02-.04.02-.05.02-.04.02-.05.02-.05.02-.05.02-.05.02-.05.02-.05.02-.05.02-.05.02-.05.02-.05.02-.05.02-.05.02-.05.02-.05.02-.05.02-.05.02-.05.02-.05.02-.05.02-.05.02-.05.02h-.05l-.05.03h-.05l-.05.03h-.05l-.05.03h-.05l-.05.03h-.05l-.05.03h-.05l-.05.02h-.05l-.05.02h-.05l-.05.02h-.05l-.05.02h-.05l-.05.02h-.05l-.05.02h-.05l-.05.02h-.05l-.05.02h-.05l-.05.02h-.05l-.05.02h-.05l-.05.02h-.05l-.05.01h-.05l-.05.01h-.05l-.05.01h-1.42l-.41-.03-.41-.04-.41-.06-.42-.08-.44-.1-.44-.13-.44-.15-.44-.17-.43-.19-.43-.22-.41-.24-.4-.26-.4-.29-.38-.31-.37-.33-.34-.35-.33-.36-.32-.39-.28-.39-.26-.4-.24-.42-.22-.43-.2-.44-.17-.44-.15-.44-.13-.46-.1-.46-.08-.46-.06-.46-.03-.46v-.93l.03-.46.06-.46.08-.46.1-.46.13-.45.15-.44.17-.45.2-.44.22-.42.24-.42.26-.41.28-.39.31-.39.33-.37.34-.35.37-.33.38-.31.4-.29.4-.26.41-.24.43-.22.43-.2.44-.18.43-.15.43-.12.44-.11.42-.08.41-.06.42-.04.41-.02h.45Zm.33 18.27h-.2.23-.03Zm.3-.02h.05-.04Zm.04-17.56h-.02.02Zm-.49-.02h.2-.25.05Z" fill-rule="evenodd" fill="#f5ad3c" data-color="1"/>
    </g>
</svg>
