<?xml version="1.0" encoding="UTF-8"?>
<svg data-bbox="0.004 0.043 394.532 572.427" viewBox="0 0 394.54 572.47" xmlns="http://www.w3.org/2000/svg" data-type="color">
    <g>
        <g>
            <path d="M187 507.34a3.32 3.32 0 0 0-6 .79c-.69 4.37-3 8.48-3.52 12.79.25 3.25 5.26 3.56 6 .41a75.93 75.93 0 0 0 3.86-11.45 3.36 3.36 0 0 0-.34-2.54z" fill="#ffffff" data-color="1"/>
            <path d="M175.12 531.94c-1.5 2.49-2.83 5.07-4.15 7.65a3 3 0 0 0 1.06 4.06c3.08 1.68 4.6-1.9 5.63-4.17.81-1.94 2.34-3.65 2.86-5.67.6-3.05-3.94-4.59-5.4-1.87z" fill="#ffffff" data-color="1"/>
            <path d="M192 523.1c-.08 4.24-5.18 13.64 1.65 14.28 3.43 0 3.79-3.7 4.22-6.29s1.23-5 1.17-7.51c-.24-3.81-6.12-4.17-7.04-.48z" fill="#ffffff" data-color="1"/>
            <path d="M75.06 170a123.63 123.63 0 0 0-8.78 13.68 4 4 0 0 0 4.45 5.8c2.88-1.1 3.83-4.57 5.86-6.7 2-3.35 5.45-6.22 6.59-10 .89-4.6-5.93-6.91-8.12-2.78z" fill="#ffffff" data-color="1"/>
            <path d="M62.36 202.14c-.88-3.67-6.27-4.38-8.07-1.06-1.29 2.32-6.29 13.12-5.46 11.5-3 5.76 6 9.56 8 3.35 1.56-3.52 3.33-6.94 5.05-10.39a4.49 4.49 0 0 0 .48-3.4z" fill="#ffffff" data-color="1"/>
            <path d="M90.9 188.8c-1.82 5.63-5.1 11.17-5.64 17.07.23 3.41 4.88 4.89 7.18 2.44 1.83-2.5 2.35-5.81 3.67-8.61 1-3.43 3.4-6.74 3.39-10.32-.35-4.65-7.5-5.1-8.6-.58z" fill="#ffffff" data-color="1"/>
            <path d="M272.45 80.14c-2.07-3.54-4.27-7-6.45-10.5a4.46 4.46 0 0 0-2.64-2c-3.65-1.14-7 3.23-5 6.47 2.63 3.8 4.82 8.06 8 11.42 3.34 2.89 8.46-1.66 6.09-5.39z" fill="#ffffff" data-color="1"/>
            <path d="M292.9 111.42c-2.11-3.78-4.41-7.44-6.63-11.15a4.48 4.48 0 0 0-2.64-2c-3.66-1.14-7 3.25-5 6.49 2.73 4 4.74 8.65 7.94 12.23 3.48 3.01 8.77-1.72 6.33-5.57z" fill="#ffffff" data-color="1"/>
            <path d="M262.93 112c-1.31-4-2.84-7.89-4.19-11.86-.56-1.81-.88-4-2.72-4.94-3.24-2-7.63 1.33-6.49 5a98 98 0 0 0 5.71 14.49c1.82 4.48 9.02 2.31 7.69-2.69z" fill="#ffffff" data-color="1"/>
            <path d="M208.3 190c0-5.76-8.8-5.76-8.84 0-.09 5.27-.24 10.54 0 15.8 0 2.21.23 5 2.68 5.79 4.42 1.65 6.37-2.63 5.86-6.42 0-5.09.22-10.17.3-15.17z" fill="#ffffff" data-color="1"/>
            <path d="M213.94 230.51c-.5-4.58.85-3.48-.09-7.65-1.57-4.41-8.63-3-8.46 1.7 0 .28-.07.57-.11.85 0-.18.07-.5.1-.74-.61 3.73-.21 7.52.15 11.25-.26 4.43 6 6.29 8.16 2.4 1.23-2.39.14-5.24.25-7.81z" fill="#ffffff" data-color="1"/>
            <path d="M239.3 209.27c-.69-2.81-.2-6.18-1.81-8.63-2.66-3.89-9.13-.61-7.73 3.85 1.22 4.81-.18 16.85 8.05 13.47 3.27-1.83 1.85-5.73 1.49-8.69z" fill="#ffffff" data-color="1"/>
            <path d="M167.9 42.35c-.88-3.65-6.23-4.35-8-1.05-3.64 5.79-8.41 11.22-11.12 17.46-.76 3.92 4.89 5.9 7 2.66q3.87-5.1 7.73-10.23c1.54-2.8 5.25-5.27 4.39-8.84z" fill="#ffffff" data-color="1"/>
            <path d="M155.88 61.21c0 .09-.12.13-.17.21l-.42.55c.2-.25.39-.49.59-.76z" fill="#ffffff" data-color="1"/>
            <path d="M140.83 84c-2 4-4.12 8.08-5.74 12.31-.4 1 0 0 .21-.48a4.27 4.27 0 0 0 1.52 5.79c3.92 2.07 6.09-1.55 7.39-4.72 1.48-3.38 3.77-6.55 4.77-10.09.9-4.65-5.98-6.97-8.15-2.81z" fill="#ffffff" data-color="1"/>
            <path d="M178.87 74.63c-.88-3.67-6.26-4.37-8.06-1.06-2 4.43-7.48 16.92-7.69 17.57-2.86 5.26 5.29 9.08 7.55 3.54 2.67-5.51 5.22-11.08 7.76-16.66a4.46 4.46 0 0 0 .44-3.39z" fill="#ffffff" data-color="1"/>
            <path d="M347.28 183.31a3.36 3.36 0 0 1 .3.71c0 .09.07.18.11.26-.13-.28-.27-.65-.41-.97z" fill="#ffffff" data-color="1"/>
            <path d="M347.58 184c-2.1-4.51-3.78-9.61-7-13.4-3.56-3.07-9 1.74-6.47 5.68 1.8 3.31 3.67 6.59 5.42 9.93a4.89 4.89 0 0 0 3.09 3.1c3.17 1 6.02-2.39 4.96-5.31z" fill="#ffffff" data-color="1"/>
            <path d="M360.37 211.78c-.5-2-.15-4.41-1.48-6.07-2.67-3.89-9.14-.61-7.73 3.85.68 2.71.31 5.95 1.89 8.32 1.67 2.52 5.83 2.16 7.25-.45 1.07-1.77.33-3.75.07-5.65z" fill="#ffffff" data-color="1"/>
            <path d="M333.94 200.77c-.82-2.48-.79-5.42-2.26-7.6-2.66-3.89-9.13-.62-7.73 3.85 1.11 3.52 1.29 7.54 3.11 10.75 1.66 2.49 5.78 2.14 7.19-.44 1.24-2.09.1-4.39-.31-6.56z" fill="#ffffff" data-color="1"/>
            <path d="M96.53 300.79A34.82 34.82 0 0 1 78 295.87c-6.09-3.77-10.57-9.43-14.89-14.91-5.27-6.67-10.24-13-17.51-15-3.21-.96-6.6-.96-10.29-.96a49 49 0 0 1-10.58-.81c-18.57-4.07-27-26.79-24.2-45.51 3.8-25.21 22.87-47.57 47-55.66a42.35 42.35 0 0 1-.53-29.73c3.73-11 11.39-19.8 21-24a82.27 82.27 0 0 1 14.75-4.37c8.1-1.85 15.74-3.6 20.71-9.06s6.07-13.46 7.19-21.87c.29-2.23.59-4.45 1-6.62 5.65-33.27 34-61.21 67.31-66.43 32.37-5.06 66.73 11.69 83 40.05a41.31 41.31 0 0 1 55.27 43.24A35.16 35.16 0 0 1 349.86 131c-.75 2.14-1.71 4.29-2.63 6.38-2.7 6.08-5.25 11.82-2.66 16.29 2.46 4.27 7.58 4.85 15.72 5.3 4.29.24 8.73.48 12.81 1.78 8.17 2.59 15 10 18.33 19.78 2.84 8.42 3 17.17 3.07 25.64.11 9.55.25 20.37-4.16 30.05s-15 18.27-26.57 16.18a37.59 37.59 0 0 1-5.31-1.5c-2.48-.85-4.84-1.64-6.95-1.35-3.07.42-5.69 3.09-8.46 5.92l-1.05 1.11c-18.1 18.15-46.56 24.78-70.82 16.49-2.6-.89-5.25-1.94-7.91-3-9.68-3.86-18.82-7.5-26.87-3.79-3 1.38-5.55 3.73-8.26 6.22a50.67 50.67 0 0 1-7.49 6c-10.91 6.75-23.45 4.52-35.59 2.37-6.43-1.14-13.11-2.3-19.25-2.08-11.2.44-21.44 5.45-32.28 10.75-3 1.45-5.94 2.91-8.92 4.26-10.28 4.67-19.72 6.99-28.08 6.99zm94.09-294.2a68.55 68.55 0 0 0-10.69.83c-30.63 4.79-56.63 30.45-61.83 61-.35 2.1-.64 4.24-.92 6.39-1.2 9-2.44 18.39-8.85 25.44s-15.38 9-24.12 11a76.91 76.91 0 0 0-13.56 4c-7.93 3.49-14.28 10.83-17.42 20.12-3.3 9.73-2.62 20 1.84 28.06a3.29 3.29 0 0 1-2 4.78c-23.45 6.27-42.35 27.4-46 51.41-2.38 15.78 4.24 34.82 19.08 38.08a44.08 44.08 0 0 0 9.19.65c3.93 0 8 0 12 1.18 9.31 2.65 15.19 10.1 20.88 17.3 4.15 5.26 8.07 10.23 13.18 13.39 12.26 7.56 28.76 2.84 40.45-2.45 2.92-1.32 5.83-2.74 8.74-4.17 11-5.37 22.33-10.92 34.92-11.41 6.91-.28 13.89 1 20.66 2.17 11.42 2 22.2 3.94 31-1.48a45 45 0 0 0 6.49-5.28c3-2.72 6-5.54 10-7.35 10.62-4.9 22-.36 32.07 3.64 2.56 1 5.1 2 7.6 2.89 21.93 7.49 47.66 1.5 64-14.9l1-1c3.26-3.33 7-7.1 12.27-7.84 3.66-.52 7 .63 10 1.63a32.78 32.78 0 0 0 4.37 1.27c8.22 1.46 16.12-5.29 19.38-12.43 3.81-8.34 3.68-18.37 3.57-27.23-.11-7.95-.21-16.17-2.72-23.61-2.63-7.81-7.9-13.64-14.07-15.6-3.29-1-7.3-1.27-11.18-1.48-7.81-.43-16.65-.91-21.08-8.59-4.26-7.38-.75-15.29 2.35-22.27.91-2.06 1.77-4 2.44-5.9a28.58 28.58 0 0 0-30-37.9A3.29 3.29 0 0 1 310 87a34.74 34.74 0 0 0-48.3-38.86 3.3 3.3 0 0 1-4.29-1.48c-12.6-24.36-39.55-40.07-66.79-40.07z" fill="#ffffff" data-color="1"/>
            <path d="M320.18 370a18.24 18.24 0 0 1-7.93-1.74c-3.29-1.57-5.76-4-8.15-6.32a28.11 28.11 0 0 0-5.92-4.86c-4.87-2.63-11.3-1.74-16.94-.52l-1.91.42c-6.14 1.36-12.49 2.76-19 1.18a18.53 18.53 0 0 1-11.29-8.33 12.83 12.83 0 0 1-1.43-10c1.47-5.15 5.86-8.32 9.73-11.11 4.23-3 6.8-5.12 6.92-8 .09-2.17-1.48-4.45-3.15-6.87l-.27-.4c-3.35-4.87-4.21-10-2.49-14.89 3.54-10 17.2-16.39 23.94-18.38 10.31-3 23.64 1 27.06 11.87a29.82 29.82 0 0 1 1 8.64 21.86 21.86 0 0 0 .87 7.21c1.76 4.68 7.1 7.74 16.79 9.64 7.95 1.56 17.83 3.49 22.8 11.36 3.35 5.31 3.62 12.69.69 19.24-2.2 4.94-5.94 9.37-11.75 13.95-6.63 5.18-13.44 7.91-19.57 7.91zm-29.74-21.23a22.5 22.5 0 0 1 10.87 2.5 33.26 33.26 0 0 1 7.4 5.95c2.1 2.05 4.08 4 6.39 5.09 7.68 3.66 17-2.59 20.62-5.46 4.94-3.89 8-7.52 9.8-11.45 2-4.56 2-9.55-.24-13-3.45-5.46-11.44-7-18.49-8.4-7.65-1.5-18.22-4.56-21.69-13.79a27.06 27.06 0 0 1-1.3-9.44 24.08 24.08 0 0 0-.71-6.76c-2.15-6.87-11.76-9.64-18.89-7.52-6.28 1.86-17.14 7.37-19.58 14.26-1 2.87-.46 5.8 1.7 8.94l.27.39c2 2.9 4.48 6.52 4.31 10.89-.26 6.35-5.26 9.95-9.66 13.13-3.29 2.37-6.4 4.62-7.24 7.57a6.26 6.26 0 0 0 .79 4.87 11.84 11.84 0 0 0 7.14 5.24c5 1.22 10.32 0 16-1.22l2-.42a50.4 50.4 0 0 1 10.51-1.38z" fill="#ffffff" data-color="1"/>
            <path d="M131.79 453.11a26.49 26.49 0 0 1-2.66-.14c-6.37-.66-13.52-4.59-14.17-11.66a19.36 19.36 0 0 1 .11-3.54 6.38 6.38 0 0 0-.08-2.91c-.38-.62-2.11-1-5.13-.38-1.57.31-3.15.66-4.72 1-5.93 1.31-12.07 2.67-18.42 2.31-7.55-.44-17.57-4.25-21-13.55-2.65-7.27-.08-16.19 6.38-22.2 4.75-4.42 11.36-7.4 20.22-9.09l.45-.09c5.68-1.08 12.13-2.31 13.77-6.6.63-1.64.5-3.73.36-5.93a34.21 34.21 0 0 1-.08-4.66 19.29 19.29 0 0 1 17.73-17.47c15.84-.91 27.51 4.92 31.09 15.5a42.11 42.11 0 0 1 1.33 5.52c.55 2.91 1.08 5.66 2.64 7.48 1.42 1.66 3.78 2.62 6.28 3.64a31.1 31.1 0 0 1 6.32 3.16 17.5 17.5 0 0 1 .07 27.5 30.76 30.76 0 0 1-5.15 2.77c-2.14 1-4.15 1.9-5.36 3.35a15.23 15.23 0 0 0-2.25 5c-.27.81-.53 1.62-.82 2.41-4.04 10.97-15.31 18.58-26.91 18.58zm-19.17-25.54c4.59 0 6.88 2 8 3.9 1.44 2.39 1.19 4.91 1 6.94a12.41 12.41 0 0 0-.1 2.29c.29 3.18 4.48 5.31 8.26 5.7 9.39 1 19.44-5.24 22.75-14.14.26-.69.49-1.41.72-2.12a20.56 20.56 0 0 1 3.48-7.23c2.16-2.59 5.09-3.93 7.67-5.12a23.88 23.88 0 0 0 4.07-2.16 10.93 10.93 0 0 0 0-16.71 25.39 25.39 0 0 0-5-2.45c-3-1.21-6.35-2.58-8.81-5.46-2.7-3.14-3.45-7.07-4.12-10.53a34 34 0 0 0-1.09-4.64c-2.58-7.61-11.72-11.7-24.48-11a12.7 12.7 0 0 0-11.51 11.35 30.47 30.47 0 0 0 .08 3.78c.17 2.68.36 5.72-.77 8.7-3 7.74-12.06 9.47-18.71 10.73l-.44.09c-7.6 1.45-13.15 3.89-17 7.44-4.48 4.17-6.4 10.38-4.68 15.12 2.14 5.88 9.15 8.86 15.15 9.21 5.4.32 10.86-.89 16.59-2.17 1.62-.36 3.24-.72 4.86-1a20.28 20.28 0 0 1 4.08-.52zm12.15-66.06z" fill="#ffffff" data-color="1"/>
            <path d="M186.76 465.3a3.29 3.29 0 0 1-3.18-2.45 67.81 67.81 0 0 0-21.75-34.31 3.3 3.3 0 0 1 4.24-5.06 74.18 74.18 0 0 1 17.62 21.79c-.05-30.29-2.79-54.38-8.61-76.56-8.62-32.8-24.4-60.27-45.64-79.45a3.3 3.3 0 0 1 4.42-4.9c22.2 20 38.66 48.63 47.6 82.68 7 26.72 9.67 56 8.61 95.06a3.29 3.29 0 0 1-2.92 3.18 2.55 2.55 0 0 1-.39.02z" fill="#ffffff" data-color="1"/>
            <path d="M133.93 564.64a3.29 3.29 0 0 1-2.83-5c4.3-7.25 9.33-14.1 14.19-20.72 3.11-4.25 6.34-8.64 9.3-13.06 9.1-13.52 14-24.94 15.31-35.93 2-16.35-3.41-34.25-16.5-54.72a3.3 3.3 0 0 1 5.56-3.56c13.95 21.82 19.67 41.14 17.48 59.08-1.47 12.06-6.67 24.39-16.37 38.82-3 4.52-6.31 9-9.46 13.27-4.77 6.5-9.7 13.22-13.84 20.19a3.32 3.32 0 0 1-2.84 1.63z" fill="#ffffff" data-color="1"/>
            <path d="M197.29 341.63c-4.29 0-7.88-2.8-10.86-5.65a258.33 258.33 0 0 1-41.84-51.48 3.3 3.3 0 1 1 5.62-3.47A251.9 251.9 0 0 0 191 331.2c2.18 2.08 4.67 4.2 6.89 3.78 2.6-.44 4.23-4.33 5.14-7.51 4.62-16.14 6.07-33.28 7.48-49.86a3.33 3.33 0 0 1 3.56-3 3.3 3.3 0 0 1 3 3.57c-1.43 16.89-2.91 34.35-7.7 51.11-2.09 7.29-5.58 11.4-10.39 12.21a10.65 10.65 0 0 1-1.69.13z" fill="#ffffff" data-color="1"/>
            <path d="M224.13 341.54a7.11 7.11 0 0 1-2-.28c-4.51-1.27-6.59-6.14-5.59-13A316.14 316.14 0 0 1 233 264a3.3 3.3 0 1 1 6.18 2.31 309.11 309.11 0 0 0-16.13 62.9c-.47 3.24.08 5.48.86 5.71s2.86-1.24 3.51-1.73l31.92-24.09a3.3 3.3 0 1 1 4 5.27l-31.94 24.09c-1.4 1.06-4.09 3.08-7.27 3.08z" fill="#ffffff" data-color="1"/>
            <path d="M195.78 572.47c-24.16 0-47.49-2.45-63-8a3.3 3.3 0 0 1 2.24-6.2c29.42 10.59 88.63 9.45 125.36 1.48-4.55-5.67-9.54-11.18-14.39-16.55-13-14.37-26.42-29.24-32.61-48.09-5.86-17.87-4.37-36.79-2.93-55.1.53-6.65 1.06-13.52 1.23-20.18.09-3.41.08-6.87.08-10.34 0-14.94 0-30.39 7-44 7.15-13.84 20.22-23 31.75-31.1a3.3 3.3 0 1 1 3.79 5.4c-10.91 7.65-23.27 16.33-29.68 28.73-6.29 12.17-6.28 26.8-6.27 41 0 3.52 0 7-.08 10.51-.17 6.83-.72 13.8-1.25 20.53-1.45 18.47-2.82 35.92 2.62 52.52 5.75 17.53 18.13 31.22 31.24 45.72 6.09 6.74 12.38 13.7 17.9 21A3.3 3.3 0 0 1 267 565c-19.08 4.71-45.62 7.47-71.22 7.47z" fill="#ffffff" data-color="1"/>
        </g>
    </g>
</svg>
