<?xml version="1.0" encoding="UTF-8"?>
<svg data-bbox="0.016 -0.023 175.08 94.766" viewBox="0 0 175.09 94.75" xmlns="http://www.w3.org/2000/svg" data-type="color">
    <g>
        <g>
            <path d="M72.79 55.35C83.64 57.59 99.06 58 108 50.14c3.26-2.87 5.17-7.34 3.93-11.66-1.56-5.42-7.49-7.55-12.39-8.88a1.15 1.15 0 0 0-.61 2.22c4.84 1.31 11.08 3.52 11.07 9.51 0 4.91-4.14 8.16-8.24 10-8.7 3.79-19.25 3.67-28.36 1.8-1.44-.3-2.06 1.92-.61 2.22z" fill="#550f2f" data-color="1"/>
            <path d="M11.09 48.82a48.8 48.8 0 0 1 20.28-11.49 1.15 1.15 0 0 0-.61-2.22A51.27 51.27 0 0 0 9.47 47.2c-1.08 1 .55 2.64 1.62 1.62z" fill="#550f2f" data-color="1"/>
            <path d="M38 35.58a1.15 1.15 0 0 0 0-2.3 1.15 1.15 0 0 0 0 2.3z" fill="#550f2f" data-color="1"/>
            <path d="M140 60.42a37.47 37.47 0 0 0 16.33-6.61c1.19-.86 0-2.85-1.17-2a35.87 35.87 0 0 1-15.78 6.38c-1.46.22-.84 2.43.62 2.22z" fill="#550f2f" data-color="1"/>
            <path d="M161.51 50.09v-.33a1.15 1.15 0 0 0-2.3 0v.33a1.15 1.15 0 0 0 2.3 0z" fill="#550f2f" data-color="1"/>
            <path d="M42.7 70.05a6 6 0 0 0-4.87 2.19c-.56.69.42 1.69 1 1a4.71 4.71 0 0 1 3.88-1.78c.9 0 .9-1.37 0-1.4z" fill="#550f2f" data-color="1"/>
            <path d="M34.7 76.79h.3a.7.7 0 0 0 0-1.4h-.3a.7.7 0 0 0 0 1.4z" fill="#550f2f" data-color="1"/>
            <path d="M65 36.09a5.39 5.39 0 0 0 .38 2.18.73.73 0 0 0 .86.49.7.7 0 0 0 .49-.86 4.31 4.31 0 0 1-.33-1.81.7.7 0 0 0-1.4 0z" fill="#550f2f" data-color="1"/>
            <path d="M68.73 33.25a5.86 5.86 0 0 0 .93 4.6c.52.73 1.73 0 1.21-.7a4.49 4.49 0 0 1-.79-3.53c.18-.88-1.17-1.25-1.35-.37z" fill="#550f2f" data-color="1"/>
            <path d="M72 32.09a17.48 17.48 0 0 0 1.42 5c.37.82 1.58.11 1.21-.7a15.15 15.15 0 0 1-1.23-4.32c-.11-.88-1.52-.89-1.4 0z" fill="#550f2f" data-color="1"/>
            <path d="M76 31.43a11.13 11.13 0 0 0 1 5.74c.36.82 1.57.11 1.21-.71a9.65 9.65 0 0 1-.77-5c.1-.9-1.3-.89-1.4 0z" fill="#550f2f" data-color="1"/>
            <path d="M127.33 9.43v4.33a.7.7 0 0 0 1.4 0V9.43a.7.7 0 0 0-1.4 0z" fill="#550f2f" data-color="1"/>
            <path d="m125.21 7.41-1 8c-.11.89 1.29.88 1.4 0l1-8c.11-.89-1.29-.88-1.4 0z" fill="#550f2f" data-color="1"/>
            <path d="m122.56 6.08-1.29 12c-.09.89 1.31.88 1.4 0l1.29-12c.1-.89-1.3-.89-1.4 0z" fill="#550f2f" data-color="1"/>
            <path d="M26.64 77.1c.19 1.89.39 3.78.58 5.67.09.89 1.5.9 1.4 0-.19-1.89-.39-3.78-.58-5.67-.09-.89-1.49-.9-1.4 0z" fill="#550f2f" data-color="1"/>
            <path d="M29.83 74.41A24.35 24.35 0 0 0 31 84.29c.28.85 1.63.49 1.35-.37a23.44 23.44 0 0 1-1.11-9.51c.07-.9-1.33-.89-1.4 0z" fill="#550f2f" data-color="1"/>
            <path d="M56.17 74c33.28 3.62 69.27 1.77 100.46-11.44 5.58-2.36 15.43-6 18.07-12.23S166.06 40 162.17 38.25c-17.41-7.63-36.67-11.4-55.46-13.59-1.47-.17-1.46 2.13 0 2.3 16.16 1.89 32.35 5.14 47.68 10.67 3.24 1.16 20.88 6.67 17.89 12.34-3.1 5.85-13.66 9.4-19.27 11.6a170.32 170.32 0 0 1-38.77 9.68 238 238 0 0 1-58.07.45c-1.47-.16-1.46 2.14 0 2.3z" fill="#550f2f" data-color="1"/>
            <path d="M96.06 23.72C70.55 22.18 44 24.85 20.3 35 13.66 37.88-7 47 2.45 56.83c7.9 8.21 22 11.28 32.56 13.7 1.44.33 2.05-1.88.61-2.21A110.88 110.88 0 0 1 13.4 61.2c-3.58-1.68-8.59-3.94-10.61-7.59C-.32 48 10.5 42.53 14.17 40.53 38.65 27.21 68.74 24.37 96.06 26c1.48.09 1.48-2.21 0-2.3z" fill="#550f2f" data-color="1"/>
            <path d="M91.2 28.34c-9.5-.26-21 1-28.73 7.2-7.12 5.72-5 13.16 2.52 17.18 1.31.7 2.47-1.29 1.16-2-10.53-5.62-4.49-13.32 3.57-16.64 6.77-2.79 14.21-3.64 21.48-3.44a1.15 1.15 0 0 0 0-2.3z" fill="#550f2f" data-color="1"/>
            <path d="m110.53 2.09 21.92 9.34c-.08-.61-.16-1.21-.23-1.81a93.68 93.68 0 0 1-11.64 9.79 23.89 23.89 0 0 1-7.52 3.91c-3.09.8-6.26 1-9.19 2.32-4.42 2-7.86 6.05-11.39 9.32-4.08 3.78-8.19 7.54-12.29 11.28-7.83 7.15-15.62 14.37-23.69 21.23-.69.58-1.69 1.12-2 2-1.28 3.13 2.45 5.29.58 9.06-1.28 2.56-4.06 4.87-6 6.92s-4.95 4.09-6.3 6.44c-1.05 1.83-.73-.35.31.61a16.52 16.52 0 0 0-1.7-1.17q-3.43-2.37-6.86-4.75-5.58-3.84-11.14-7.7c.08.6.15 1.2.23 1.81q3.56-3.11 7.18-6.1c3.47-2.88 7.87-7.76 12.52-8.28s6.52.8 10.34-2.63c2.05-1.85 4.11-3.67 6.2-5.47 12.34-10.68 25.54-20.79 37-32.44a10.46 10.46 0 0 0 3.14-6.89c1-7.44 6.27-12.42 11.89-17 1.15-.93-.49-2.55-1.63-1.63-3.65 3-7.48 6.38-10.1 10.3s-1.31 8.81-3.83 12.31c-3.8 5.29-10.3 9.63-15.17 13.87-6.88 6-13.82 11.9-20.73 17.85-2.43 2.14-4.89 4.24-7.28 6.42a17.35 17.35 0 0 1-1.73 1.6c-3.31 2.18-5.87.81-9.26 1.46-4.21.81-8.09 4.85-11.29 7.47Q26.35 75.2 22 79a1.16 1.16 0 0 0 .23 1.81l19.82 13.78a1.18 1.18 0 0 0 1.4-.18c2.73-2.69 5.43-5.43 8-8.23s6.81-6.31 6.61-10.51c-.06-1.67-1.82-4.16-1.17-5.59.25-.55 1.69-1.37 2.13-1.75 2.73-2.32 5.39-4.73 8.06-7.12q11.11-10 22.1-20.09C95.86 35 101.75 27.84 111 26.05c9.07-1.76 16.38-8.51 22.84-14.8a1.16 1.16 0 0 0-.23-1.81L111.69.1c-1.35-.57-2.52 1.41-1.16 1.99z" fill="#550f2f" data-color="1"/>
            <path d="M60.23 43a56.24 56.24 0 0 1 22.3-4.94 1.15 1.15 0 0 0 0-2.3A59.19 59.19 0 0 0 59.07 41c-1.35.6-.18 2.58 1.16 2z" fill="#550f2f" data-color="1"/>
            <path d="M92 38.94a58.92 58.92 0 0 1 17.22 2.84c1.42.45 2-1.77.61-2.22A61.34 61.34 0 0 0 92 36.64a1.15 1.15 0 0 0 0 2.3z" fill="#550f2f" data-color="1"/>
        </g>
    </g>
</svg>
