<?xml version="1.0" encoding="UTF-8"?>
<svg data-bbox="-0.04 -0.04 114.32 83.13" viewBox="0 0 114.28 83.09" xmlns="http://www.w3.org/2000/svg" data-type="color">
    <g>
        <g>
            <path d="M2.18 76.83A25.54 25.54 0 0 0 6.4 81.6c.68.59 1.67-.39 1-1a24 24 0 0 1-4-4.48c-.51-.74-1.73 0-1.21.7z" fill="#ffffff" data-color="1"/>
            <path d="M3 73.51q3.73 4.26 7.47 8.49c.6.68 1.59-.32 1-1Q7.73 76.77 4 72.52c-.6-.67-1.58.32-1 1z" fill="#ffffff" data-color="1"/>
            <path d="M4.35 69.13q5.53 6.45 11.46 12.56c.63.64 1.62-.35 1-1q-5.93-6.11-11.47-12.55c-.59-.69-1.58.31-1 1z" fill="#ffffff" data-color="1"/>
            <path d="m68.37 74.11 5.29 4.73" fill="#ffffff" data-color="1"/>
            <path d="M67.23 69.27q5.34 4.64 10.48 9.51c.65.62 1.64-.36 1-1q-5.15-4.86-10.48-9.51c-.68-.59-1.67.39-1 1z" fill="#ffffff" data-color="1"/>
            <path d="m69.21 66.64 2.82 3" fill="#ffffff" data-color="1"/>
            <path d="M74 71.3q4.48 4 8.78 8.22" fill="#ffffff" data-color="1"/>
            <path d="m69.63 78-68.5 2.79 1.11 1.46C4.8 69.6 8.52 56.82 15 45.57 19.91 36.91 28.81 26 40.19 28.82c9.67 2.39 15.61 13.23 19.46 21.55a113.91 113.91 0 0 1 8.88 29c.24 1.46 2.45.84 2.21-.61A112.19 112.19 0 0 0 60.05 46c-4.28-8.3-10.95-18.29-21-19.69C28.6 24.82 20.24 33.08 15 41.07 7.11 53.13 2.86 67.63 0 81.64a1.15 1.15 0 0 0 1.1 1.45l68.5-2.83c1.51-.06 1.52-2.36.03-2.26z" fill="#ffffff" data-color="1"/>
            <path d="m69.63 80.26 43.5-.84a1.16 1.16 0 0 0 1.15-1.15c0-6.76-2.85-13.69-5.89-19.6C105 52 100.08 44.88 93.17 41.42c-11.56-5.76-25.53 3.18-31.11 13.47-.7 1.31 1.28 2.47 2 1.17 5.36-9.89 19-18.43 29.7-11.67 10 6.3 18.26 22.06 18.23 33.88.39-.38.77-.76 1.15-1.15L69.63 78a1.15 1.15 0 0 0 0 2.3z" fill="#ffffff" data-color="1"/>
            <path d="M68.63 6.62c-2.85.09-5.3 2-5.17 5a5.19 5.19 0 0 0 10.35 0c.14-3-2.33-4.93-5.18-5a1.15 1.15 0 0 0 0 2.3c1.56.05 3 .9 2.88 2.6a2.9 2.9 0 0 1-5.75.12C65.61 9.89 67 9 68.63 8.92a1.15 1.15 0 0 0 0-2.3z" fill="#ffffff" data-color="1"/>
            <path d="M67.78 19.46a29.37 29.37 0 0 0-.3 4 1.15 1.15 0 0 0 2.3 0 25.32 25.32 0 0 1 .22-3.39 1.2 1.2 0 0 0-.8-1.42 1.17 1.17 0 0 0-1.42.81z" fill="#ffffff" data-color="1"/>
            <path d="M61.14 17.53A16.55 16.55 0 0 1 59 20" fill="#ffffff" data-color="1"/>
            <path d="M56.77 13.85a21 21 0 0 1 4-.42 1.15 1.15 0 0 0 0-2.3 25.15 25.15 0 0 0-4.65.5c-1.44.3-.83 2.51.62 2.22z" fill="#ffffff" data-color="1"/>
            <path d="m59.75 5.06 3.15 1.85a1.15 1.15 0 0 0 1.16-2l-3.15-1.84a1.15 1.15 0 0 0-1.16 2z" fill="#ffffff" data-color="1"/>
            <path d="m68.61 1.11-.06 2.83a1.15 1.15 0 0 0 2.3 0l.06-2.83a1.15 1.15 0 0 0-2.3 0z" fill="#ffffff" data-color="1"/>
            <path d="m76.76 7.39 2.37-1.95a1.15 1.15 0 0 0-1.62-1.62l-2.38 1.95a1.15 1.15 0 0 0 0 1.62 1.17 1.17 0 0 0 1.63 0z" fill="#ffffff" data-color="1"/>
            <path d="m77.13 13.69 3.87-.06a1.15 1.15 0 0 0 0-2.3l-3.84.06a1.15 1.15 0 0 0 0 2.3z" fill="#ffffff" data-color="1"/>
            <path d="m74.18 19.07 1.91 2.38a1.14 1.14 0 0 0 1.62 0 1.17 1.17 0 0 0 0-1.62c-.63-.8-1.27-1.59-1.91-2.39a1.16 1.16 0 0 0-1.62 0 1.17 1.17 0 0 0 0 1.63z" fill="#ffffff" data-color="1"/>
        </g>
    </g>
</svg>
