<?xml version="1.0" encoding="UTF-8"?>
<svg data-bbox="0.003 -0.005 44.384 118.904" viewBox="0 0 44.39 118.83" xmlns="http://www.w3.org/2000/svg" data-type="color">
    <g>
        <g>
            <path d="M13 16.32A5 5 0 0 0 10.72 21c.09.89 1.49.9 1.4 0a3.58 3.58 0 0 1 1.59-3.44c.75-.49 0-1.71-.71-1.21z" fill="#550f2f" data-color="1"/>
            <path d="M9.05 26.73a9.08 9.08 0 0 0-.31 4.42c.15.89 1.5.51 1.35-.37a7.55 7.55 0 0 1 .31-3.68c.28-.85-1.07-1.22-1.35-.37z" fill="#550f2f" data-color="1"/>
            <path d="M13.77 22.3c-.2 1.16-.41 2.32-.61 3.48-.15.88 1.19 1.26 1.35.37.2-1.16.41-2.32.61-3.48.16-.88-1.19-1.26-1.35-.37z" fill="#550f2f" data-color="1"/>
            <path d="m37.63 36 .63 6c.1.88 1.5.89 1.4 0L39 36c-.1-.89-1.5-.9-1.4 0z" fill="#550f2f" data-color="1"/>
            <path d="M37.69 48.47v3a.7.7 0 0 0 1.4 0v-3a.7.7 0 0 0-1.4 0z" fill="#550f2f" data-color="1"/>
            <path d="M33.22 43.66a7.61 7.61 0 0 1 .45 3.81c-.12.89 1.28.88 1.4 0a8.44 8.44 0 0 0-.5-4.19c-.32-.83-1.67-.47-1.35.38z" fill="#550f2f" data-color="1"/>
            <path d="M6.92 63.2A12.08 12.08 0 0 0 9.3 73.51c.91 1.17 2.53-.47 1.63-1.62a9.59 9.59 0 0 1-1.79-8.07c.32-1.45-1.9-2.06-2.22-.62z" fill="#550f2f" data-color="1"/>
            <path d="M16.39 79.62a1.15 1.15 0 0 0 0-2.3 1.15 1.15 0 0 0 0 2.3z" fill="#550f2f" data-color="1"/>
            <path d="M21.89 87.23C7.1 86.82 3.29 70.57 2.51 58.51c-.95-14.79.69-31.23 7.86-44.42C12.85 9.53 16.59 4 21.93 2.61s9.73 2.91 12.44 7c8.22 12.49 7.85 28.88 7.06 43.2-.72 12.81-2.72 33.92-19.54 34.39a1.15 1.15 0 0 0 0 2.3c14.8-.41 19.39-15.09 21-27.54C45.1 45.15 46.06 24.55 37 9.45 34.44 5.25 30.61.8 25.46.09s-9.53 2.67-12.63 6.28C1.72 19.28-.47 39.33.08 55.68.54 69.74 4.54 89 21.89 89.53c1.48.04 1.47-2.26 0-2.3z" fill="#550f2f" data-color="1"/>
            <path d="m20.72 37 1.48 80.75a1.15 1.15 0 0 0 2.3 0Q23.77 77.34 23 37a1.15 1.15 0 0 0-2.3 0z" fill="#550f2f" data-color="1"/>
            <path d="M13.05 43.68c-.85 8 .07 17.32 8.6 20.72 1.38.54 2-1.68.61-2.22-7.46-3-7.63-11.72-6.91-18.5.15-1.47-2.15-1.46-2.3 0z" fill="#550f2f" data-color="1"/>
            <path d="M23.1 77.41c3.16.12 5.6-4.21 6.75-6.65 1.92-4.08 2.35-8.58 2.44-13a1.15 1.15 0 0 0-2.3 0 33.1 33.1 0 0 1-1.24 9.55c-.67 2.1-2.89 7.94-5.65 7.83-1.48-.06-1.48 2.24 0 2.3z" fill="#550f2f" data-color="1"/>
        </g>
    </g>
</svg>
