<?xml version="1.0" encoding="UTF-8"?>
<svg data-bbox="-0.001 -0.02 844.766 1241.278" viewBox="0 0 844.78 1241.21" xmlns="http://www.w3.org/2000/svg" data-type="color">
    <g>
        <path d="M376.82 425.31C364 297.87 385.64 177.31 437.36 59c-.54-.67-3.11-3.84-5.61-7.07-2.21-2.85-4.34-5.77-6.21-8.27-5.08 2.1-8.19 3.83-11.53 4.7-13.45 3.47-23.64-4.09-21.66-17.66 1.25-8.47 4.86-17.71 10.28-24.21 9.8-11.78 27.51-6.73 30.19 8.38 3.3 18.6 15.45 28.66 31.31 34.91 8.8 3.46 14.56 9.21 16.92 17.28 5.71 19.51 12.88 39.12 14.71 59.13C502.05 195 506.28 264 511.32 332.85c2.05 28 4.14 56 6.3 85.24 11.6-1.24 21-2.77 30.43-3.16q97.28-4.06 194.57-7.56c10.74-.37 21.58 1.08 32.32 2.2 7.81.82 15.39 2.41 19.77 10.49 1.23 2.26 4.42 3.74 7 4.94 34.81 16.15 47.25 36.76 41.84 74.34-2.1 14.57-7.11 29.18-13.34 42.59-9.71 20.91-26 35.72-49.42 41.72-.69 7.32-1.53 13.8-1.86 20.3-6.62 129.7-10 259.47-7.42 389.35.32 16.22.75 32.47 2.1 48.62.39 4.71 3 10.73 6.59 13.41 18.74 13.9 25.22 33.37 25.61 55.14.48 26.85-5.34 52.51-19.17 75.89-8.9 15.05-20.89 22.3-39.83 22q-119-1.87-237.9 5.77c-80.37 5.17-160.91 7.67-241.32 12.37-53.38 3.12-106.66 8-160 12.2-6.59.52-13.2 1-19.74 2-22 3.13-37.19-7.14-48.1-24.81-11-17.84-16.91-37.2-12.46-58.4 2.46-11.7 4.66-23.64 8.86-34.77 7.83-20.74 19.22-37.56 45.74-35.29 8.77.75 17.8-1.61 27.08-2.58C90.27 928.3 78.71 772.07 82.07 614c-9 0-17.16-.63-25.21.15-11.82 1.14-21.11-1.31-27.2-12.66-7.89-14.72-18.74-28.23-24.42-43.7-17.66-48 10.9-96.44 61.75-103 67.3-8.7 134.89-15.36 202.44-22 29.88-2.95 60-3.66 90-5.5 5.88-.41 11.75-1.29 17.39-1.98zm373.79 618.58c-4-154.4-2.23-306.8 11.74-457.05-10.27-6.44-18.56-12.17-27.37-16.93a29.25 29.25 0 0 0-13.4-3.21c-21 0-42.09 0-63.1 1q-100.85 4.54-201.65 9.8c-22.8 1.17-45.64 2.29-68.35 4.52-80.08 7.89-160.12 16.23-240.17 24.47-14.78 1.52-29.53 3.37-45.17 5.17.7 158.66 9.32 315.55 29.68 472.25 205.52-20.65 410.38-34.03 617.79-40.02zm6-615.46c-63.48 3-127 5.43-190.43 9.06-68.36 3.92-136.66 8.89-205 13.53-42.56 2.89-85.14 5.48-127.63 9.17-56.24 4.87-112.38 10.9-168.61 15.86-8.41.74-15.05 3.31-20.78 9-17.18 17-24.42 37.17-16.95 60.65 3.59 11.29 9.86 21.73 15 32.54 4.94 10.44 12.74 14.27 24.6 13.15 49.63-4.68 99.36-8.25 149-13 66.35-6.32 132.63-13.46 199-20 19.66-1.94 39.4-3 59.1-4.51-2.55-26.95-1.51-30.75 10.83-37.66 1.89 7.73 3.21 15.41 5.72 22.67 2.21 6.37 2 16.69 15.4 12.42-3.56-12.44-9.53-25.07 3.74-38.66 4.19 9 7.07 16.5 11.06 23.35 3.65 6.27 3.79 17.34 16.94 14.58-3-11.59-9.81-22.7 1-35.11 4.42 7.07 8.15 13 11.85 19 9.68 15.62 9.68 15.62 28.83 12.3-10.51-22.34-10.56-24.29.23-34.93 5.71 9.28 11.48 18.21 16.78 27.42 4.53 7.86 10.33 10.62 19.6 6.12-7.1-11.5-13-23.12-2.91-38.79 6.43 10.71 12.35 19.46 17.11 28.79 5 9.82 11.62 12.9 22.06 7.76-5.14-9.71-12.93-19.21-3.13-33.46 4.28 4.48 8.25 7.65 10.93 11.68 4 6 6.58 12.88 10.72 18.7 1.81 2.54 6 3.38 11.89 6.44-3.25-14.11-11.44-25.12-1.4-35.74 2 .93 3.63 1.14 4 2 5 10.16 9.79 20.39 14.83 31h27.36c-15.84-44.76.72-80.05 29.3-115.33zm-364.1 767.43c-7.29-28.68-7.3-33.42.28-51 7.87 17.4 15.06 33.25 22.21 49l16.73-1c-5.88-16.75-12.9-32.73-2.91-52.2 2.95 5.61 4.88 9 6.54 12.49 4.61 9.74 8.52 19.87 13.81 29.21 6.66 11.73 7.13 11.46 23.74 6.84-7.56-15-12.83-30.49-8.18-49.85 9.18 15.69 17.13 28.89 24.68 42.32 4.91 8.74 11.35 10.6 20.69 6.48-6-16.13-13.6-31.36-6-52.49l28.78 50.34H554c-15.55-30.06-16.63-39.16-6.27-52.56 9.23 14.76 18.86 29.14 27.34 44.17 4.85 8.58 10.12 10.27 18.9 5.61-8.4-16-17.1-31.39-8.48-52 4.35 6.14 7.83 10.77 11 15.6 5.61 8.53 11.4 17 16.45 25.83 5.92 10.38 13.85 13.18 25 8.88-15.77-28.47-17.65-39.34-7.51-52.21 3.54 5.36 6.6 10.19 9.85 14.89 7.49 10.86 14.7 22 22.84 32.33a17.93 17.93 0 0 0 11.64 6.23c13.54.77 27.15.29 41.9.29-17-39.89-13.72-77.5 4.64-115.59l-66.3 3.15c-39 1.89-78.06 3.37-117 5.77q-99.89 6.15-199.7 13.32c-36.56 2.61-73 6.38-109.58 9.12-46.12 3.46-92.28 6.46-138.43 9.49-7.08.47-14.21.07-20.9.07-24.58 43.56-22.59 79.23 6.07 108.5l27.57-3.15c-4.18-33.78-2.35-42.34 10-51 1.57 9.13 2.39 18.69 4.94 27.77 5.44 19.35 5.81 19.25 17.34 19.12-5-17.44-6.44-34.52 5.53-52.37 4.29 15.81 7.85 29 11.41 42.09 2.35 8.63 6.91 12.22 15.45 6.83-5.37-21.29-4.46-30.77 5.2-44.58 4.74 13.16 9.25 25.3 13.46 37.55 2.54 7.37 6.88 7 12.37 3.72-4.64-15.12-9.22-30 4.23-45.44 2.29 5 4.27 8.49 5.45 12.2 2.73 8.57 5 17.29 7.58 25.91 2.49 8.3 7.48 9.8 15.06 5.51-2.2-14.89-6.71-29.59 3.62-45.4 2.81 5.17 5 8.43 6.43 12 3.23 8.4 6.41 16.85 8.91 25.48s7.84 9.42 15.73 6.7c-5.26-15.43-9.35-30.84 3.59-47.94 4 9.32 7.29 16.71 10.24 24.25 3 7.71 5.66 15.56 8.64 23.8l20-1c-6.16-18-11.08-35-.15-51.61 2.57 1.06 4.3 1.25 4.55 2 5.46 15.74 10.77 31.54 16.15 47.47h18.78c-10.27-29.23-10.13-35.63 2.51-48.25 6.49 16.6 12.65 32.37 19 48.61zM462.32 79.74C425 125.38 396.48 283.08 396 425.79l98.56-6.16C492.93 389.15 492 361 489.84 333c-4.85-63.37-9.72-126.75-15.79-190-2.05-21.29-7.71-42.2-11.73-63.26zm355.54 410.42c0-21.22-6.89-33.38-20.5-40.14-9.09-4.52-17.06-3.54-24.83 3.1-21.85 18.69-31.73 60.73-17.77 85.9 13.77 24.82 26.53 25.32 43.77 4.73 13.47-16.09 18.19-36.05 19.33-53.59zm-64.5 694.7c4.88-3 6.56-3.71 7.83-4.87a26.45 26.45 0 0 0 4.73-5.36c14.91-23.87 19.81-49.92 14.83-77.38-1.18-6.51-6-13-10.64-18.12-11.13-12.43-17.63-12.06-25.88 2.68-14.8 26.46-17 54.56-5.58 82.81 2.92 7.26 9.35 13.1 14.71 20.24z" fill="#f5ac3a" data-color="1"/>
    </g>
</svg>
