<?xml version="1.0" encoding="UTF-8"?>
<svg data-bbox="0.003 -0.013 706.948 656.734" viewBox="0 0 706.95 656.72" xmlns="http://www.w3.org/2000/svg" data-type="color">
    <g>
        <g>
            <path d="M78.91 149.16c10.44-90 100.94-142.62 171.39-104 27.26-18.65 56.06-34.54 88.7-41.87A149.46 149.46 0 0 1 369.25 0c13.6-.21 16.37 2 20.22 15.37 7.15 24.72 5.6 50.11 3.49 75.2-4.67 55.47-18.08 108.77-42.14 159.24a320.86 320.86 0 0 1-50.45 76.4c-35.18 39.31-79.21 62.42-131.93 65.74-38.18 2.4-72-11.21-100.41-36.91A185.89 185.89 0 0 1 20.49 288c-6.66-16-12.43-32.47-18.22-48.85-3.6-10.17-3.38-20.45 4.09-28.87 21.15-23.89 44.06-45.75 72.55-61.12zM373.45 20.5C325 76.33 271.71 121 210 154.55c-61 33.17-122.32 66.17-193.64 76.85 3.11 7.91 5.65 14.35 9 22.94l70.4-23.24c-18.48 18.29-40.67 28.14-66.41 30.45 5.52 10 5.66 10.56 12.66 8.66 9.23-2.52 18.28-5.79 27.28-9.09 10.28-3.76 20.42-7.91 30.63-11.89-16.09 19-39.34 25.13-59.67 36.91 23.51 1.1 41.84-15.83 66.4-19.43-15.45 20.16-37.32 26.23-56 38.46 3.66 2 7.56 3.56 10.47 2.47 14-5.26 27.7-11.34 41.62-16.85 2.66-1.06 5.8-.9 12.45-1.81-15.57 17.93-35 23.42-50.33 35.83 4 1.66 8.05 2.79 11 1.47 12-5.35 23.69-11.6 35.65-17.16 3.28-1.53 7.13-1.84 10.72-2.71C113 324.34 95 330.35 80.74 340.53c5 7.86 10.16 4 15.07 2.36 11.85-4.05 23.66-8.18 35.5-12.28q1 2.11 2.09 4.25l-33.75 22.56c19.95 6.64 33.86-11 55.32-12.26L127.28 370c45.95 12.11 86 2.12 121.47-22.77 34.74-24.38 61.91-56.14 80.12-95.55 22.33-48.33 39.2-98 45.6-151 3.07-25.49 6.32-50.97-1.02-80.18zM274.75 93c-7.45-7.9-14-14.91-20.6-21.83C237.21 53.41 216.5 46 192.24 49.53c-62.69 9.1-105 75.29-88.2 139.74 61.7-23.14 117.9-55.43 170.71-96.27zm81.47-80.87C320.28 21 290.78 35.46 261.77 53c9.46 10.52 17.76 19.76 26.08 29 19.64-12.7 55.49-48.71 68.37-69.88zm-278.4 154.3c-20.29 14.28-37.92 30.18-55.29 46.37.67 1.07 1.35 2.14 2 3.21l63.06-18.36z" fill="#cc3435" data-color="1"/>
            <path d="M666.27 534.6c8.09 4.92 15.84 8.47 22.22 13.71 21.67 17.8 24.53 44.72 7.16 67.12-22.33 28.8-68.15 53.12-121.66 35.12-79.75-26.83-129.2-82.5-151.4-162.69-12.36-44.64-10.26-89.2 6.86-132.51A192.29 192.29 0 0 1 445 325c13.54-21.83 32.4-30.52 63.53-15.68 1.6.76 3.33 1.24 2.25.85 20.44-6.68 38.17-14.62 56.75-18.15 62.78-11.92 117.76 29.34 126.15 92.75 5 37.83-1.63 74.12-13.33 109.82-4.48 13.61-9.49 27.01-14.08 40.01zm-35.94 35.84c3.6-6.21 5.83-9.08 7.06-12.34 5.05-13.41 9.66-27 14.7-40.4 9.72-25.87 18.63-51.93 21.56-79.63 2.61-24.7 2.61-49.19-6.57-72.8-13.87-35.7-43.87-56-82.28-55.35-40 .65-71.76 19.75-101.14 44.85 14.87 95.32 62.81 166.4 146.67 215.67zm60.09 24.12c-27.48 8-50.79 2.07-73.69-8.8-29.36-13.93-53.19-34.86-74.86-58.32-49-53-79.21-114-78.36-187.92 0-1.24-1.19-2.5-2.95-6-4 8.44-7.38 14.59-9.84 21.11-20.73 55.17-17.58 110 6.38 162.91C483.57 576 526 618.15 589.49 636c37.97 10.61 82.6-4.8 100.93-41.44zm-47.71-18.21 47.72 4.82c-7.1-15.61-15.21-26-28.11-32.95zM499.57 319.84c-3.61-1.34-6.14-2.51-8.8-3.2s-5.22-.81-9.09-1.36c.35 7.64.64 13.78.94 20.09z" fill="#cc3435" data-color="1"/>
            <path d="M142.3 217.56c44.84-15.74 79.08-48.72 118.92-72" fill="#cc3435" data-color="1"/>
            <path d="M342.13 84c-3.57 8.18-3.57 8.18-11.57 9.36 2.81-7.1 2.81-7.1 11.57-9.36" fill="#cc3435" data-color="1"/>
            <path d="M169 91.33c9.19-23.45 30.64-29.64 50.78-16.08" fill="#cc3435" data-color="1"/>
            <path d="M578.5 337.57c29-1 48.07 23.65 44.35 59-14.54-21.67-22.8-45.29-44.35-59z" fill="#cc3435" data-color="1"/>
            <path d="M622.62 471.08c-4.4-5.21-5.46-10.66.69-15 1.29-.9 6.31.8 7.18 2.52" fill="#cc3435" data-color="1"/>
            <path d="m509 529.52 46.74 47.78c-29.68-3.55-49.13-22.38-46.74-47.78z" fill="#cc3435" data-color="1"/>
            <path d="M612.35 603c-4.07 3.34-6.78 7.14-8.72 6.78-3.14-.58-5.78-3.89-8.63-6" fill="#cc3435" data-color="1"/>
        </g>
    </g>
</svg>
