<?xml version="1.0" encoding="UTF-8"?>
<svg data-bbox="0.02 0.021 606.439 1788.382" viewBox="0 0 606.42 1788.4" xmlns="http://www.w3.org/2000/svg" data-type="color">
    <g>
        <path d="M313 1720.37c3 9.07 6.39 18.06 9.06 27.24 1.61 5.56.87 12.09-5.39 13.35-4.34.88-11.62-.93-13.92-4.15-5.82-8.19-9.81-17.73-14.05-26.94-2.59-5.64-4.29-11.68-6.38-17.54l-3.52.56c-.43 15.79-.77 31.59-1.34 47.38a157.66 157.66 0 0 1-1.51 17.92c-.89 5.89-4.19 10.1-10.68 10.21-7.36.13-11.06-4.65-11.86-11.13s-.37-13.19-.41-19.8c0-7.61 0-15.22-2.23-23.65-5.33 11.66-10.47 23.4-16.07 34.92-2.6 5.35-5.37 11-9.47 15.07-2.31 2.32-8.72 3.66-11 2.11-3.21-2.16-5.89-7.46-5.9-11.42 0-4.42 3.07-8.92 5-13.29 7.08-15.73 14.26-31.42 23.09-50.83-6.82 2.61-10.34 3.64-13.57 5.25-10.67 5.31-21 11.46-32 15.89-3.29 1.32-11.36-1-12.08-3.36-1.31-4.16-.22-10.75 2.56-14.12 4-4.9 10.32-8.06 15.89-11.58 13.68-8.65 27.51-17.08 42.36-26.26-5.9-15.25-7.81-30-1.72-45.43 6.39-16.11 19.05-24 35.2-29.6 1.4-15.45 3.24-30.83 4.11-46.27 2.47-43.78 5-87.56 6.34-131.39.26-8.9-4.91-18-8.32-29.44-6.59 7-10.63 13-16.19 16.82s-12.83 7.77-19 7.32c-8.81-.65-12.45-9.32-12.5-17.49-.11-16.12.82-32.26 1.5-48.38.15-3.5 1-7 1.61-10.48-22.71-1.47-44.88-2.27-66.91-4.46-63.45-6.3-103.49-40.84-120.26-102.12a1047.62 1047.62 0 0 1-32-167.94A2151.94 2151.94 0 0 1 1 781c2.54-88.87 5.32-177.78 10-266.58 2.07-38.85 8.66-77.51 14.31-116.09 1.71-11.68 6.08-23.32 11.09-34.11 13.85-29.8 36-51.66 68.46-59.19 31.52-7.3 63.71-11.74 95.61-17.4 3.45-.62 6.94-1.07 11.05-1.69-1.58-8.82-3.43-17-4.44-25.25-2.63-21.48 4.84-32.92 25.48-39.12 5.72-1.72 11.7-2.59 17.57-3.78s11.59-2.27 19-3.71c-.95-31.05-2.19-61.53-2.74-92-.64-35.46-.69-70.92-1-106.38 0-1.8-.49-4 .33-5.33 2.3-3.75 4.72-9.61 7.9-10.19 6.83-1.24 8.75 5 9 10.7q1.38 36.93 2.28 73.89c1 39.65 1.87 79.31 2.86 119 .07 2.95.7 5.9 1.19 9.74 6.71.38 13.23.61 19.73 1.16 15.06 1.28 20.2 6.21 20.78 21.48.55 14.27.12 28.57.12 44.38 6.91 0 13.33.21 19.75 0 52.86-2 100.49 14.13 145 41.53 22.38 13.79 37.9 33.1 46.9 57.56 13.09 35.59 21.67 72.31 28.66 109.59 14.07 75.07 23.49 150.75 31.29 226.64 2.64 25.68 4.31 51.55 4.76 77.36 1.43 81.18.19 162.34-7.32 243.24-7.29 78.49-29.05 152.88-63.08 224.17-17.54 36.75-44.62 56.72-84.12 61.81-22.64 2.91-45.24 6.1-67.85 9.21-2.94.4-5.85 1-10 1.77-2.87 17.71-5.6 35.37-8.66 53-1.13 6.48-2.35 13.1-4.75 19.16-7.29 18.39-20 20.14-32 4.65-2.88-3.75-5.3-7.86-7.8-11.6-5.87 7.88-11.69 15.12-16.79 22.84a24 24 0 0 0-3.84 11.24c-3.41 55.76-6.56 111.54-9.81 167.89 14.21 7.73 27.76 16.94 25.84 33.92-1.57 13.82-8.07 27.07-12.74 41.7l33.77 22.69c2.49 1.67 5.06 3.25 7.49 5 5.43 3.92 12.17 8.35 8.74 15.79-3.77 8.19-11.72 6.61-18.81 3.82-6.1-2.41-12.12-5-18.18-7.56l-6.19-2.35c1.06 2.21 2.1 4.49 3.16 6.77zM464.29 741.6l-186.75 7.22c1.46 36.49 2.81 70.41 4.25 106.56h182.5zM282.15 875.42c2.44 36.07 4.72 69.93 7 103.59l176-6.57v-93.05c-60.96-6.06-120.74-4.89-183-3.97zm181-154.51c-.81-30.71-.29-60.3-3.45-89.89a972.08 972.08 0 0 0-181.38-1.85v98.94zM279.3 508v97.42l178.61 3.31c-1.76-32.56-4.4-66.69-9.53-100.64-56.73-4.89-111.7-6.09-169.08-.09zm19.32 582.21 165.64-4.8V995c-57.68-.91-114.64 3.63-172.75 7.64 2.49 30.36 4.78 58.85 7.11 87.54zm-31.56-108.56c-2.45-35.26-4.87-70.06-7.3-105-45.8 3.06-89.25 5.13-133.58 12.16 1.22 37.23 2.39 72.88 3.56 108.72zm186.83 217.85c3.59-30.93 8-60.79 7.76-92.67-54.91 2.45-108 1.48-161.84 7.06 2.87 29.37 5.58 57 8.38 85.61zM126.23 866.13l133.4-10.51c-1.58-35-3.09-68.41-4.72-104.33l-128.68 15.1zm-1-120.34L254.3 730.3V629.54l-129.11 14.31zm306.44-338.26c-36.05-9.94-124-13.49-149.44-6.27v82.59h164.58c-5.09-25.67-10.09-50.85-15.14-76.32zM123.78 622.36l132.3-14.55v-97.53c-42.74 2.5-85.57 9.2-128.93 18.62-1.15 31.26-2.22 61.62-3.37 93.46zM269.56 1004 130 1020.61c2.6 30.63 5 59.08 7.47 87.94L276.21 1092c-2.21-29.93-4.37-57.8-6.65-88zm7.85 110.74L140.2 1131c3.12 28.18 5.57 54.13 12.71 78.65l132.53-11.23c-2.67-27.89-5.24-54.65-8.03-83.67zM141.33 419.06c-4.51 29.8-10.61 57.92-11.54 86.42l129.31-19.33c1-28.42 2.1-56.84 3.26-88.33zm286.58 880.44c4.66-13.9 9.27-26.22 12.9-38.82 3.53-12.26 6.07-24.8 9.35-38.47H309.84c2.42 29.6 4.74 57.92 7.14 87.17 18.33-.81 35.59-.93 52.71-2.48 19-1.73 37.88-4.76 58.22-7.4zm147.16-541.29c-29.94-6.14-57-12.56-84.69-12.8v114.75l84.69 9zm-416.23 474.31c7.61 28.72 20.91 52 37.79 73.24 2.59 3.26 7.82 6.18 11.89 6.26 28.76.53 57.54.28 86.3.28-2.74-31.32-5.28-60.32-7.92-90.55zm128.37-930.39c-1.15 26-2.23 50.28-3.28 74l139.88 7.16c-4.89-22.29-12.46-43.51-24.81-62.92-6.51-10.22-14.89-16.16-28-16-18.6.2-37.22-1.53-55.84-2.18-8.92-.32-17.79-.06-27.95-.06zm-16.32-.79c-27.48 3.74-51.74 7.49-76.14 10.11-8.82.94-14.29 5.07-18.91 11.75-15.48 22.4-24.58 47.26-30.11 74.59l117.85-19.72c2.26-23.77 4.62-48.51 7.31-76.73zM576.51 893c-29.37-5.2-56.76-10.71-85.13-10.79v92.14l81.62 8.2c1.16-30.11 2.3-58.81 3.51-89.55zm-471.28 108.51c-1.25-37.37-2.42-72.91-3.67-110.42l-70.78 15.29c2 38 3.85 73.4 5.74 109.49zM31.14 664.08v101.55l72.3-16.73c0-17.33.16-33.49 0-49.64-.21-16.58-.78-33.15-1.22-51.07zm514-144.89-70.95-9.31c3.53 35.77 6.8 69 10.13 102.8l75.77 8.22zm-58.68 566.89 72.94 9.56a465.31 465.31 0 0 0 10.91-90.91c-14.84-2.23-27.85-4.64-41-6-12.87-1.37-25.84-1.71-39.92-2.58-.95 31-1.92 60.26-2.9 89.93zm86.21-351.68c-3.57-31.06-6.95-60.55-10.4-90.61l-74.64-11.35v90.2zm-471.11 36.09-71.5 16.37v98.31l71.5-15.42zM32.25 643l69.2-16.59c1-31 2-61.45 3-93.89l-69.38 17.09c-.97 32.15-1.88 62.08-2.82 93.39zm120.67-324.5C88 323.26 50.85 354.09 46 431.68l74-26.8zM485 1109.12c-3.08 31.22-6.09 61.74-9.15 92.66l53.73 5.06c9.14-29.68 18-58.59 27.28-88.64-24.77-6.58-47.49-10.09-71.86-9.08zm-371.67 3.65c-2.41-29.62-4.68-57.56-7.13-87.65l-67.45 12.64c2.43 30.73 5.39 59.1 11.31 88zm5.18-688.13-75.65 26.2c-2.39 27.11-4.61 52.4-7 79l69.56-18.33c4.31-28.51 8.39-55.61 13.08-86.87zm423.78 73.08c-5.16-22.78-9.25-42.63-14.38-62.22-1.16-4.46-5.07-10.05-9.09-11.62-20-7.81-41-11.28-62.88-13.25 5.61 26.93 10.91 52.41 16.21 77.86zM245.75 1340.6c-.34 19.74-5 37.83 1.08 57.7 5.15-4.75 9.12-8.12 12.76-11.8 15.33-15.52 20.72-14.61 31.4 5.26 1.48 2.75 3.83 5 6.07 7.9 5-7 8.71-13.2 13.49-18.45 8-8.83 15.3-7.75 21.28 2.54 3 5.22 5.78 10.61 10.27 18.91 9-24.43 9.77-45.39 8.06-67.23-30.86 1.38-60.57 2.69-90.29 4-4.13.24-8.25.7-14.12 1.17zM70.24 1227l57.32-13.24c-4.32-27.26-8.34-52.55-12.42-78.25L53 1147.66c5.89 27.06 11.33 52.13 17.24 79.34zm351.55-910c8.06 20.71 15.82 41.34 24.23 61.7 1.84 4.45 5.39 10.59 9.18 11.44 20.62 4.67 41.56 7.93 63 11.78-10.28-38.73-30.14-62.12-96.41-84.92zm-189.74-34h75c.56-7.82 1.32-15.42 1.57-23 .27-8.13.06-16.27.06-24.42-2.79-.55-4.52-1.31-6.19-1.17-14.28 1.22-28.69 1.77-42.81 4.09-35.76 5.9-36.04 6.73-27.63 44.58zM166 1308c-6.53-12.6-12.77-23.45-17.87-34.8s-9-23.16-13.93-36l-54.39 10.12c12.32 35.88 46.41 59.83 86.19 60.68zm354.4-81.07c-18.22-1.46-33.54-5.33-48.37-3.62-6.41 24.83-12.24 47.43-18.12 70.24 41.8-1.22 51.03-34.41 66.47-66.65zm-264.34 420.39c.07 11.85 6.5 19 16.75 18.75 11.16-.33 24-14.48 24.56-27.1.4-9-11.3-18.41-22.69-18.34-10.06.06-18.68 12.45-18.62 26.69z" fill="#f5ac3a" data-color="1"/>
    </g>
</svg>
