<?xml version="1.0" encoding="UTF-8"?>
<svg data-bbox="-0.001 0.041 1059.677 907.433" viewBox="0 0 1059.68 907.5" xmlns="http://www.w3.org/2000/svg" data-type="color">
    <g>
        <g>
            <path d="M666.69 192.57c46.51 35.63 112.68 45.63 162.73 5.55 24.47-19.59 37.15-43.77 31.66-75.49a48.09 48.09 0 0 0-7.32-18.1c-7.87-11.69-16.84-13.6-29.44-6.81-11.44 6.16-22.5 13-33.54 19.49-7.45-7.88-4.17-15.17-1-21.19 9.49-18 24.81-29.45 44.6-33.47 13.29-2.69 24.77 3.7 34.29 12.54 20.6 19.13 27.35 43.35 23.43 70.54-5 34.74-22.82 61.89-52.49 80.33-50.26 31.25-102 31-154.38 5-10.2-5.07-20.11-10.74-30.28-15.86-11-5.53-21.09-2.85-30.17 4.44-8.44 6.77-7.93 14.59 1 20.36 26.58 17.28 29.62 21.57 34.58 49.94 5.38.27 11.17.51 16.95.86 96.51 5.79 186 31.81 260.18 96.47C993 435.52 1033.22 495 1051.81 567c36.24 140.39-58.54 263.75-165.7 298.3-68 21.91-137.72 28.86-208.27 19.05-44.09-6.14-87-6.49-130.41 4-39.57 9.57-79.95 11.47-119.33-1.13A235.13 235.13 0 0 1 377.61 864c-24.35-14.89-49.27-18.44-75.83-9.4-25 8.5-49.66 17.83-74.31 27.23-29.2 11.13-58.35 22.26-89.88 25C91.16 911 53.9 895 27.31 856.16 5.73 824.67-1.85 789.35.37 751.72c2.92-49.33 17.71-95.49 39.31-139.53 34.14-69.61 78.09-132.76 132.61-187.66C234 362.38 306 315.25 389.88 287.66c3.42-1.13 6.76-2.5 9.3-3.44 3.05-8.31 4.61-16.82 9-23.42 4.15-6.2 11.33-10.38 18-16.18-1.91-18.43 6.7-32.33 23.91-40.79-10.42-30.55-20.91-60.43-30.75-90.52A371.92 371.92 0 0 1 407.59 70c-3.75-19.07 0-37.16 12-52.87 17.81-23.3 41.61-22.86 57.27 1.85 7 11 11.32 23.76 16.87 35.71C500 68.1 506.24 81.53 514 98.19c6.92-7.89 11.54-12.91 15.88-18.15 8.8-10.65 17.12-21.71 26.3-32a54.74 54.74 0 0 1 15.44-12.16c12.21-6.26 23.13-1.69 26.65 11.64 2.56 9.71 2.79 20 4.4 32.79 7-3.42 13.06-6.78 19.41-9.37 14.92-6.11 29.78-12.52 45.08-17.52 10.17-3.33 20.64-2 27.64 7.54 6.76 9.2 6.32 19.85.87 29C688 102.76 679 114.82 670 126.72c-9.83 12.89-20.55 25.1-30.54 37.86-3.57 4.56-6.15 9.88-10.95 17.75 6.21-1.15 9-1.21 11.36-2.18 14.83-6.06 30-7.55 45.91-5.47 16.82 2.19 32.68-.53 44.52-13.88a41.23 41.23 0 0 0 9.21-17.05c3-12.85-4.08-19.46-17.15-17.15-4 .72-8 2-12 3.09-2.32-14.92 1.07-21.58 12.6-25.79 13.51-4.93 27.19-.69 35 10.87 10.36 15.3 8.28 41.56-5.17 57.31-13.63 16-31.06 24.36-52.33 23.4-10.11-.48-20.16-1.71-33.77-2.91zM697.18 849c4.35 1 6 1.57 7.57 1.63 51.3 2.18 102.23-.9 151.89-14.48 76.71-21 128.88-69.67 156.69-144 13.15-35.14 14.89-71.61 7.18-108.26-15.36-73.07-57-130.13-111.21-179-27.42-24.74-59.36-42.45-93.91-55.87-61.46-23.87-124.75-34.23-190.61-29.75-31.94 2.2-63.48-1.27-94.78-8.27a656.1 656.1 0 0 0-65.65-11.12c-19-2.27-37.88-2.95-56.67 4.83Q172.26 402.14 64.13 632.52c-16.91 36.09-28.6 73.87-31.57 113.93-2 26.83 1.46 52.85 13 77.29 17.92 37.82 47.79 54.72 88.7 49.17a233.39 233.39 0 0 0 47.07-11.4c44.41-16 88.39-33.1 132.57-49.8-11.11-31.35-8.75-49.59 9.42-62.28.81 2.4 1.69 4.47 2.2 6.63 5.4 22.54 16.95 41.84 36.2 54.21 23.13 14.85 47.15 28.88 72.28 39.73 33 14.28 68.51 10.3 103.16 6 25-3.09 49.64-11 74.57-11.62 25.09-.59 47.13-7.37 68.48-18.69 25.46-13.49 50.6-27.58 75.92-41.32 3.9-2.12 8-3.82 13.09-6.19-5.85 24.45-6.94 25.51-72.04 70.82zM578.27 60.65l-4.34-2.42c-7.64 9.69-15.35 19.33-22.9 29.09-6.23 8.05-11.48 17-18.59 24.18-10.47 10.54-23 10.83-33.53.35a96.22 96.22 0 0 1-17.42-24.78C474 72.1 468.21 56.25 461.2 41c-3.09-6.72-4.65-17.1-14.35-16-9.19 1.08-12.71 10.55-14.82 18.62-1.78 6.86-2.71 14.38-1.74 21.38 1.47 10.6 4.42 21.07 7.57 31.34 7.89 25.79 16.33 51.41 24.36 77.16 2.46 7.86 4.29 15.92 6.44 24 44.46-7.37 87.68-10.83 130.07 4.15 10.43-34.25 16.69-45 43.58-77 10-11.93 19.84-24.09 29.27-36.51 2.87-3.79 4.12-8.81 6.11-13.27l-3.21-3.38c-11.42 4.51-23 8.67-34.2 13.62-8.76 3.87-16.85 9.27-25.66 13-18.66 7.88-32 .16-34.94-19.9-.86-5.81-.96-11.71-1.41-17.56zm-155 212.64c.45 1.81.91 3.61 1.36 5.41 43.45-5.08 85.93.05 128.4 9 27 5.67 54.71 6 82.3 2.63-2.36-21.35-6.81-28-25.21-32.5a204.52 204.52 0 0 0-39.09-5.57c-41.68-1.9-82.68 5-123.58 11.77-8.3 1.37-16.09 6.08-24.14 9.26zm173.31-41c-8.52-14.55-13.07-18.44-32.58-19a701.45 701.45 0 0 0-71.9 1.89c-11.15.8-22.25 4.56-33 8.13-7.77 2.59-14.15 7.65-14.48 18.45 51.15-6.76 100.81-14.94 152-9.51z" fill="#cc3435" data-color="1"/>
            <path d="M723.07 552.75a165.48 165.48 0 0 1-22.49 70.91C659.47 693 597.46 731.11 517.65 733.9c-71.91 2.52-125.86-31.87-157.55-97-35.97-73.9-.39-161.45 78.9-192.9 24.81-9.84 52-13.61 78.17-20.09 51.64-12.8 98.72-1.1 142.49 27.12 22.7 14.63 41 33.71 51.23 58.93 5.5 13.69 8.19 28.5 12.18 42.79zM521 703.33c1.82-.11 7.85-.19 13.8-.9a167.47 167.47 0 0 0 21.35-3.43c65.84-16.71 112.78-54.7 132.67-121.23 9.25-30.94 2.62-59.58-19.9-83.5-28.83-30.61-64.31-47.74-106.41-49.9-10.06-.52-20.26 2.4-30.43 2.67-40.72 1.05-76.21 15.81-106.78 41.87-31.71 27-48.28 61.56-41.74 103.74 9.44 60.99 63 111.7 137.44 110.68z" fill="#cc3435" data-color="1"/>
            <path d="M240.14 481.43c-5.29 7.74-10.65 15.43-15.87 23.22-18.35 27.37-38 54-54.71 82.32-36.28 61.33-42.3 127.45-27.12 196.21.6 2.74.37 5.67.56 9.07-11.53-1-19.2-6.91-24-15.26-5.33-9.2-10.62-19.13-12.72-29.39-9.92-48.59-5.38-95.3 20.69-138.79 18.6-31 40.74-59.28 65.52-85.49 14.34-15.17 29.42-29.64 44.16-44.43z" fill="#cc3435" data-color="1"/>
            <path d="M892.88 550.06c9.24.14 10.86 5.11 11.94 10.7 4.43 22.88-19.7 65-45 74.71 17.4-27.67 29.45-55.31 33.06-85.41z" fill="#cc3435" data-color="1"/>
            <path d="M722.06 756.83c-5.77-1-9.9-4.9-7.51-11a51.71 51.71 0 0 1 11.5-17.76c2.54-2.49 9.13-3 12.71-1.54 2.51 1 4.24 7 4.16 10.67-.2 9.46-11.69 20.04-20.86 19.63z" fill="#cc3435" data-color="1"/>
            <path d="M790.09 417.58c-7.28-4.65-14.58-8.48-20.85-13.57-5.64-4.59-3.41-13.05 3.43-12.77 6.38.26 13.53 3.28 18.65 7.27s6.88 10.9-1.23 19.07z" fill="#cc3435" data-color="1"/>
            <path d="M528 624c-14.11-1.15-29.75-1.69-45.17-3.88-17.24-2.44-23.54-9.46-22.63-26.46 1.26-23.32 3.3-46.68 6.72-69.77 2.61-17.65 7.54-21.19 24.8-22.43q32.31-2.33 64.69-3.46a79.42 79.42 0 0 1 21.36 2.45c12 3 15.56 9 14.59 21-1.83 22.71-3.66 45.42-5.22 68.14-2 29.45-7.83 34.84-37.84 34.43-6.56-.08-13.17-.02-21.3-.02zm35.8-26.1c3-26.43 5.79-51.24 8.81-78-27.86-1.44-54.38-2.88-82.17.53-1.81 25.92-3.54 50.61-5.4 77.21 27.11.36 51.75 6.46 78.8.28z" fill="#cc3435" data-color="1"/>
            <path d="M531.5 467.76c25.24-21.13 78-9.68 94.15 19.87-31.23-8.63-60.65-20.31-94.15-19.87z" fill="#cc3435" data-color="1"/>
            <path d="M634.33 616.33c4.56-21.82 11.17-40.25 24.08-58.57" fill="#cc3435" data-color="1"/>
            <path d="M497.5 556c-3.93-10-4.9-18.79 4.5-26.48 9.41 12.09 8.33 18.48-4.5 26.48z" fill="#cc3435" data-color="1"/>
        </g>
    </g>
</svg>
