<?xml version="1.0" encoding="UTF-8"?>
<svg data-bbox="10.502 6.148 79.267 87.655" xmlns="http://www.w3.org/2000/svg" viewBox="0 0 100 100" height="100" width="100" data-type="color">
    <g>
        <path fill="#F5821F" d="M50.135 40.65a9.231 9.231 0 0 0-9.282 9.282 9.231 9.231 0 0 0 9.282 9.282 9.231 9.231 0 0 0 9.282-9.282c0-5.079-4.115-9.282-9.282-9.282zm0 15.937a6.652 6.652 0 0 1-6.655-6.655 6.652 6.652 0 0 1 6.655-6.655 6.652 6.652 0 0 1 6.655 6.655 6.652 6.652 0 0 1-6.655 6.655z" data-color="1"/>
        <path fill="#F5821F" d="M88.052 28.04c-3.415-5.867-11.209-8.32-21.016-7.356-4.116-8.932-10.07-14.536-16.9-14.536-6.831 0-12.786 5.517-16.901 14.536-9.808-.963-17.602 1.489-21.017 7.356-3.415 5.867-1.576 13.836 4.116 21.892-5.692 8.056-7.53 16.025-4.116 21.892 2.89 5.079 9.107 7.618 17.076 7.618 1.226 0 2.54-.088 3.94-.175 4.116 8.932 10.07 14.536 16.901 14.536 6.83 0 12.785-5.517 16.9-14.536 1.314.087 2.628.175 3.941.175 7.969 0 14.186-2.54 17.076-7.618 3.415-5.867 1.576-13.836-4.116-21.892 5.692-8.056 7.531-16.025 4.116-21.892zm-2.277 1.313c2.802 4.817 1.226 11.472-3.503 18.302-3.064-3.765-6.567-7.268-10.508-10.245-.7-4.817-1.926-9.633-3.677-14.186 8.318-.613 14.886 1.4 17.688 6.13zM72.29 41.263c3.065 2.627 5.867 5.516 8.319 8.669-2.452 3.152-5.254 6.042-8.32 8.669.263-2.802.439-5.692.439-8.67 0-2.977-.176-5.866-.438-8.668zm-2.277 8.669c0 3.678-.263 7.355-.7 11.033-2.89 2.277-6.043 4.291-9.195 6.13-3.24 1.839-6.568 3.503-9.983 4.904-3.415-1.401-6.743-3.065-9.983-4.904s-6.305-3.94-9.194-6.13a84.62 84.62 0 0 1 0-22.067c5.867-4.553 12.347-8.231 19.177-11.033 3.415 1.4 6.743 3.065 9.983 4.904 3.24 1.838 6.305 3.94 9.194 6.13.438 3.677.701 7.355.701 11.033zm-1.314-14.8c-2.276-1.663-4.728-3.24-7.268-4.728-2.54-1.488-5.166-2.802-7.706-3.94 3.766-1.314 7.706-2.365 11.647-2.89a56.612 56.612 0 0 1 3.327 11.559zM50.135 8.776c5.517 0 10.508 4.641 14.099 12.172a66.176 66.176 0 0 0-14.099 3.94 66.174 66.174 0 0 0-14.098-3.94c3.59-7.443 8.581-12.172 14.098-12.172zM34.898 23.574a66.608 66.608 0 0 1 11.647 2.89c-2.54 1.138-5.167 2.452-7.706 3.94-2.54 1.489-4.992 3.065-7.268 4.729a56.606 56.606 0 0 1 3.327-11.56zm-20.403 5.78c2.452-4.204 7.794-6.218 14.711-6.218.964 0 1.927.088 2.89.088-1.751 4.553-2.977 9.37-3.678 14.186A72.66 72.66 0 0 0 17.91 47.655c-4.64-6.83-6.13-13.485-3.415-18.302zM27.981 58.6c-3.065-2.627-5.868-5.517-8.32-8.67 2.452-3.152 5.255-6.041 8.32-8.668-.263 2.802-.438 5.691-.438 8.669 0 2.977.175 5.867.438 8.669zM14.494 70.51c-2.802-4.817-1.226-11.472 3.503-18.302 3.065 3.765 6.567 7.268 10.508 10.245.7 4.816 1.926 9.632 3.678 14.186-8.32.613-14.887-1.314-17.689-6.13zm17.076-5.693c2.276 1.664 4.728 3.24 7.268 4.729 2.54 1.489 5.166 2.802 7.706 3.94-3.766 1.314-7.706 2.365-11.647 2.89-1.488-3.765-2.627-7.618-3.327-11.559zm18.564 26.27c-5.517 0-10.508-4.64-14.098-12.171a66.174 66.174 0 0 0 14.098-3.94 66.176 66.176 0 0 0 14.099 3.94c-3.59 7.443-8.582 12.171-14.099 12.171zm15.237-14.71a66.597 66.597 0 0 1-11.647-2.89c2.54-1.139 5.167-2.453 7.706-3.941 2.54-1.489 4.992-3.065 7.268-4.729-.7 3.94-1.838 7.794-3.327 11.56zm20.403-5.868c-2.802 4.816-9.282 6.743-17.601 6.13 1.751-4.554 2.977-9.37 3.678-14.186A72.66 72.66 0 0 0 82.36 52.209c4.641 6.83 6.13 13.485 3.415 18.301z" data-color="1"/>
    </g>
</svg>
