<?xml version="1.0" encoding="UTF-8"?>
<svg fill="#F5821F" data-bbox="15 -0.007 70.545 90.007" xmlns="http://www.w3.org/2000/svg" viewBox="0 0 100 100" height="100" width="100" data-type="color">
    <g>
        <g clip-path="url(#1c18573b-2dec-4844-b314-3c0570ab2a68)">
            <path fill="#F5821F" d="M48.693 90h-4.025l-.215-.118-.063-.038a18.097 18.097 0 0 1-8.36-3.225 93.979 93.979 0 0 1-8.213-6.477c-8.001-7.094-12.204-15.798-12.468-25.868-.029-1.116-.126-2.268-.22-3.373-.043-.534-.089-1.065-.127-1.597V38.52L15 38.48c.06-.571.114-1.143.17-1.714.12-1.236.243-2.515.405-3.774.97-7.528 3.28-13.683 7.07-18.819.43-.627.803-1.29 1.118-1.981.33-.712.712-1.4 1.143-2.056 3.358-4.869 8.17-7.96 14.706-9.448C46.781-.945 54.128.293 62.077 4.475c6.178 3.257 12.13 7.475 17.692 12.546 3.145 2.867 4.968 5.89 5.576 9.239.502 2.776.064 5.59-1.383 8.858-3.347 7.559-7.314 13.885-12.13 19.341-3.28 3.717-4.857 8.043-4.819 13.223.021 2.666-.137 6.16-1.547 9.513-2.994 7.117-8.463 11.363-16.257 12.618-.024 0-.103.037-.16.058-.057.02-.137.055-.205.078l-.15.051zm-3.51-1.905h3.177a2.53 2.53 0 0 1 .547-.162c7.2-1.16 12.043-4.915 14.803-11.477 1.274-3.033 1.417-6.275 1.398-8.763-.042-5.593 1.741-10.477 5.298-14.499 4.682-5.307 8.547-11.471 11.81-18.85 1.285-2.904 1.683-5.366 1.25-7.749-.537-2.962-2.122-5.558-4.985-8.17-5.44-4.953-11.26-9.087-17.297-12.26C53.551 2.149 46.828 1 40.039 2.545c-6.05 1.377-10.478 4.214-13.562 8.673a14.364 14.364 0 0 0-1 1.823c-.36.788-.79 1.543-1.285 2.254-3.599 4.87-5.795 10.734-6.715 17.933-.159 1.23-.28 2.492-.4 3.715-.054.559-.11 1.117-.166 1.675v10.584c.036.514.08 1.026.123 1.539.096 1.143.191 2.312.225 3.484.25 9.525 4.227 17.762 11.826 24.492a91.782 91.782 0 0 0 8.047 6.344 16.216 16.216 0 0 0 7.645 2.91c.141.017.279.059.405.124z" data-color="1"/>
            <path fill="#F5821F" d="M38.621 51.462c-3.274-.05-6.54-.23-9.625-1.463-4.784-1.905-7.973-5.234-8.752-10.477-.453-3.048.296-5.976 1.31-8.845 1.56-4.421 4.19-8.216 6.92-11.959 1.627-2.229 3.196-4.498 4.787-6.751.17-.229.317-.472.442-.728 1.558-3.429 4.406-4.83 7.976-5.05 4.667-.286 9.024 1.074 13.32 2.654 6.337 2.326 12.136 5.602 17.165 10.138 2.477 2.24 4.456 4.865 5.183 8.231.408 1.892.28 3.784-.735 5.435-3.015 4.913-6.362 9.57-11.115 13.005-3.393 2.452-7.292 3.711-11.356 4.298-5.143.743-10.355 1.01-15.52 1.58 0-.079.014.012 0-.068zm-.089-2.22c.011.083.074-.08.086 0 5.157-.605 10.286-.831 15.413-1.605 3.575-.54 7.03-1.659 10.056-3.764 4.503-3.13 7.62-7.496 10.466-12.049 1.187-1.905 1.084-4 0-5.989a18.734 18.734 0 0 0-4.399-5.444 53.238 53.238 0 0 0-17.963-10.01C48.93 9.316 45.622 8.417 42.157 8.5c-3.025.072-5.63.988-6.89 4.094a4.403 4.403 0 0 1-.518.794c-2.248 3.223-4.466 6.477-6.761 9.66-1.981 2.753-3.378 5.787-4.53 8.953-.787 2.155-1.333 4.382-1.107 6.696.41 4.262 2.879 7.049 6.633 8.813 3.023 1.407 6.27 1.7 9.552 1.731h-.004z" data-color="1"/>
            <path fill="#F5821F" d="M41.15 53.362c4.19.316 9.107 1.324 13.715 3.516 4.397 2.096 6.168 5.81 5.376 10.641-.667 4.071-2.286 7.76-4.382 11.251-1.402 2.341-3.377 4.03-6.19 4.471-1.936.305-3.801-.063-5.584-.775-6.66-2.648-12.104-6.888-16.238-12.744-1.47-2.077-2.629-4.342-2.56-7.016.06-2.404 1.04-4.36 2.99-5.769 3.578-2.579 7.655-3.539 12.872-3.575zm-.911 2.135c-3.738.235-7.188.75-10.18 2.883-1.303.927-2.138 2.114-2.355 3.735-.213 1.583.215 3.004.932 4.381 1.322 2.54 3.238 4.603 5.255 6.592 3.496 3.463 7.538 6.096 12.238 7.591 3.187 1.013 5.67.126 7.528-2.648 2.153-3.212 3.62-6.74 4.227-10.578.713-4.563-.571-7.016-4.697-8.834-4.18-1.851-8.601-2.75-12.948-3.122z" data-color="1"/>
            <path fill="#F5821F" d="M64.979 36.09a6.758 6.758 0 0 1-.888-.06c-3.97-.521-8.08-4.211-8.978-8.055a8.455 8.455 0 0 1-.233-2.546 2.89 2.89 0 0 1 1.077-1.963 40.403 40.403 0 0 1 4.276-2.87c2.8-1.561 5.656-.88 7.64 1.824.297.39.615.766.952 1.124.337.38.688.762 1.006 1.18 1.203 1.593 1.787 3.216 1.783 4.954a6.352 6.352 0 0 1-2.19 4.743 6.748 6.748 0 0 1-4.445 1.669zm-1.797-14.417a4.156 4.156 0 0 0-2.027.587 39.049 39.049 0 0 0-4.072 2.737 1.03 1.03 0 0 0-.303.572 6.57 6.57 0 0 0 .19 1.967c.72 3.1 4.164 6.182 7.369 6.607A4.844 4.844 0 0 0 68.164 33a4.384 4.384 0 0 0 1.539-3.315c0-1.312-.453-2.558-1.398-3.81a14.173 14.173 0 0 0-.898-1.05 15.984 15.984 0 0 1-1.078-1.276c-.693-.946-1.735-1.876-3.147-1.876z" data-color="1"/>
        </g>
        <defs fill="none">
            <clipPath id="1c18573b-2dec-4844-b314-3c0570ab2a68">
                <path transform="translate(15)" fill="#ffffff" d="M70.545 0v90H0V0h70.545z"/>
            </clipPath>
        </defs>
    </g>
</svg>
