<?xml version="1.0" encoding="UTF-8"?>
<svg data-bbox="9 5 81.819 90" xmlns="http://www.w3.org/2000/svg" viewBox="0 0 100 100" height="100" width="100" data-type="color">
    <g>
        <path fill="#F5821F" d="M54.205 12.364l-4.296-2.578-4.09 2.578c-8.633 4.909-22.869 13.09-32.728 13.09.614 22.828 6.3 40.01 15.505 51.669C35.632 86 44.427 90.909 49.909 90.909c5.482 0 14.277-4.909 21.273-13.786 9.204-11.66 14.89-28.637 15.504-51.669-9.777 0-24.095-8.181-32.482-13.09zM9 21.364h4.09c9.042 0 22.624-7.855 30.396-12.519L49.91 5l6.423 3.845c7.732 4.664 21.354 12.519 30.395 12.519h4.091C90.818 78.636 60.668 95 49.91 95S9 78.636 9 21.364zm30.56 28.063l-2.987 2.823 11.822 12.56L67.91 35.19l-3.395-2.25-16.691 25.242-8.264-8.755z" data-color="1"/>
    </g>
</svg>
