<?xml version="1.0" encoding="UTF-8"?>
<svg data-bbox="0.001 0.03 281.646 260.09" viewBox="0 0 281.65 260.11" xmlns="http://www.w3.org/2000/svg" data-type="color">
    <g>
        <path d="m179.69 190.74-.16.07Z" fill="#f5ac3a" data-color="1"/>
        <path d="M221.64 128.51v-.1.15Z" fill="#f5ac3a" data-color="1"/>
        <path d="M218 91.84v-.07c0 .06.05.13.08.19Z" fill="#f5ac3a" data-color="1"/>
        <path d="M224.38 148.2a109 109 0 0 0 5-29.33c.3-9.85-.93-20-4.74-29.15a50.85 50.85 0 0 0-18.52-23 66.3 66.3 0 0 0-26.22-10.64c-11.33-2-22.85-1.5-34.16.34-5.66.92-11.26 2.19-16.81 3.65-4.87 1.28-9.71 2.68-14.46 4.34-9.42 3.3-18.54 7.66-26.13 14.25A48.81 48.81 0 0 0 83 84.15c-.18.2-.39.37-.57.57A65.5 65.5 0 0 0 69.8 106a68.37 68.37 0 0 0-4.12 24A64.57 64.57 0 0 0 71 155a73.38 73.38 0 0 0 14.63 21.77 86.07 86.07 0 0 0 21.27 16 90.89 90.89 0 0 0 25.13 9.06 88.9 88.9 0 0 0 28.74 1 80.46 80.46 0 0 0 28.31-9 69.34 69.34 0 0 0 22.19-19.47 87.5 87.5 0 0 0 13.11-26.16Zm-19.12 22.7-.36.48-.28.36c-.36.45-.71.89-1.08 1.33-.76.9-1.54 1.79-2.34 2.65a62.23 62.23 0 0 1-5 4.86l-1.21 1-.67.54-.34.27c-.88.72-1.84 1.37-2.78 2a63.6 63.6 0 0 1-5.92 3.61c-1 .54-2 1.06-3 1.55l-1.54.71-.67.3-.32.13h-.13c-.29.13-.19.07 0 0-1.05.33-2.07.83-3.11 1.2s-2.23.78-3.36 1.13c-2.19.67-4.41 1.25-6.64 1.73-1.17.25-2.33.47-3.5.67-.53.09-1.06.18-1.58.25l-.78.12h-.37a85.32 85.32 0 0 1-14 .58q-3.49-.14-7-.56l-.65-.08h-.21l-1.66-.26c-1-.17-2.06-.35-3.08-.56a87.56 87.56 0 0 1-12.29-3.44c-1-.37-2-.76-3-1.16l-.62-.26s-.25-.12-.36-.15l-1.28-.56c-2-.87-3.86-1.82-5.73-2.83a83.74 83.74 0 0 1-10.73-6.86l-.59-.44c-.44-.34-.87-.69-1.3-1-.83-.68-1.65-1.37-2.46-2.09q-2.35-2.08-4.55-4.37t-4.17-4.71c-.29-.35-.57-.71-.85-1.06l-.1-.14c-.18-.23-.35-.47-.53-.71-.61-.82-1.2-1.66-1.78-2.51a70 70 0 0 1-6-11s0 0 0-.05l-.3-.71c-.2-.52-.4-1-.59-1.56-.35-1-.68-1.9-1-2.87-.11-.37-.18-.75-.29-1.12 0-.13.07-.23.07-.36-.12-4.63-.14-9.25 0-13.87.09-2.32.23-4.64.44-7 .1-1.18.22-2.35.36-3.52l.09-.72v-.52c0-.04 0-.32.07-.48 0-.32.09-.64.14-1a79 79 0 0 1 3.17-13.24c.36-1.05.73-2.08 1.14-3.1.09-.23.19-.45.28-.68a2.14 2.14 0 0 1 .1-.22c.23-.54.47-1.08.72-1.61a54.67 54.67 0 0 1 3.24-5.85c.6-.92 1.22-1.83 1.88-2.71l.27-.37V90l.3-.37c.14-.18.29-.35.43-.52a56 56 0 0 1 3.7-3.69l.11-.09a75.67 75.67 0 0 0-5.18 14.86 74.63 74.63 0 0 0-1 28.83 62.46 62.46 0 0 0 10.09 25.38 65.29 65.29 0 0 0 19.5 18.46 62.51 62.51 0 0 0 25.22 8.83 57.37 57.37 0 0 0 27.7-3.76c9.86-3.86 18.75-9.66 27-16.29A69.25 69.25 0 0 0 205.85 151a51.76 51.76 0 0 0 10.34-42.08 46.91 46.91 0 0 0-5.06-14.14A37 37 0 0 0 200.82 83c-7.74-5.81-17.65-8.33-27.18-8.84a61 61 0 0 0-26 4.22 52.33 52.33 0 0 0-11.64 6.4 47 47 0 0 0-9.87 9.89 38.21 38.21 0 0 0-7.15 22.66c0 7.73 2.22 15.77 6.87 22a30.68 30.68 0 0 0 9 8.24 33.09 33.09 0 0 0 14.87 4.32 42.73 42.73 0 0 0 28.56-9.32c7.3-5.78 12.23-14.86 11.25-24.34a23.31 23.31 0 0 0-5.53-13.09 18 18 0 0 0-10.87-5.94 19.84 19.84 0 0 0-12.61 2.1 16.22 16.22 0 0 0-5 4.45 12.42 12.42 0 0 0-2.4 6.25 11.17 11.17 0 0 0 1.17 6.22 7.45 7.45 0 0 0 5.26 4 3.86 3.86 0 0 0 2.69-.35 3.5 3.5 0 0 0 1.26-4.87 3.39 3.39 0 0 0-2.09-1.6 5.41 5.41 0 0 1-.69-.19h-.05l-.09-.09v.06l-.05-.07-.07-.07-.05-.07v-.07c0-.07.06.09.1.14s-.08-.16-.12-.23a7.17 7.17 0 0 1-.27-1 9.9 9.9 0 0 1 0-1.54 10.15 10.15 0 0 1 .34-1.23 11.77 11.77 0 0 1 .86-1.45l.31-.36c.24-.25.48-.5.74-.73s1.3-1 .21-.21c.31-.21.6-.44.92-.63a13.39 13.39 0 0 1 1.6-.82 15.36 15.36 0 0 1 3.06-.82 18.08 18.08 0 0 1 3.45 0 17 17 0 0 1 3.07.82 14.43 14.43 0 0 1 2.12 1.14c.13.08.25.18.38.27l.15.12a15.61 15.61 0 0 1 1.18 1.12c.32.33.62.69.92 1.05l.12.17.41.6a19.44 19.44 0 0 1 1.29 2.48 20.94 20.94 0 0 1 1.14 4.26 22.77 22.77 0 0 1 0 5 22 22 0 0 1-1.24 4.6 25.43 25.43 0 0 1-2 3.78l-.6.87-.3.4c-.48.59-1 1.17-1.51 1.73a35.7 35.7 0 0 1-3.45 3.17l-.3.22-1 .73c-.65.43-1.3.85-2 1.25a39.39 39.39 0 0 1-4.4 2.22 40.79 40.79 0 0 1-9.51 2.62 35.88 35.88 0 0 1-8.35 0 30.53 30.53 0 0 1-6.59-1.76 27.68 27.68 0 0 1-3.7-1.94l-.78-.53c-.23-.16-.5-.42-.77-.57l-.24-.19-.75-.66a26.93 26.93 0 0 1-2.76-2.89l-.14-.1a8.12 8.12 0 0 0-.59-.79c-.38-.55-.75-1.11-1.1-1.68a31.31 31.31 0 0 1-1.86-3.65 35.61 35.61 0 0 1-2.2-8.12 38.16 38.16 0 0 1 0-9 35.41 35.41 0 0 1 2.17-8 32.4 32.4 0 0 1 2.45-4.62c.52-.81 1.09-1.59 1.67-2.37l.2-.27c.14-.18.29-.35.43-.52.36-.43.73-.85 1.1-1.27a43.07 43.07 0 0 1 4.5-4.25l.54-.42-.19.14.22-.17.09-.07c.14-.11.36-.27 0 0l1.3-.94c.87-.61 1.77-1.19 2.68-1.74a52.23 52.23 0 0 1 5.92-3A57.75 57.75 0 0 1 163 81.5a60.23 60.23 0 0 1 15 0 50.38 50.38 0 0 1 11.64 3.09 37.75 37.75 0 0 1 4.27 2.13c.73.42 1.45.88 2.15 1.36.33.22.65.44 1 .68.12.09.45.25.51.38h-.06a31.58 31.58 0 0 1 3.72 3.5c.29.33.57.65.85 1l.39.49a1.71 1.71 0 0 1 .11.14c.55.74 1.08 1.51 1.57 2.3a40.71 40.71 0 0 1 2.65 5.07 46.47 46.47 0 0 1 3 11.1 45.7 45.7 0 0 1-3.2 23.62 47.16 47.16 0 0 1-4.65 8.33c-.24.34-.49.68-.74 1a1.34 1.34 0 0 1-.11.14l-.35.45c-.57.71-1.17 1.42-1.78 2.11q-1.89 2.1-4 4a85.241 85.241 0 0 1-4.17 3.66c-.71.59-1.44 1.17-2.17 1.74l-.37.29-.14.1-1.12.82c-2.93 2.2-5.95 4.27-9.07 6.17a84 84 0 0 1-10.61 5.5 61.77 61.77 0 0 1-14.54 4.07 52.39 52.39 0 0 1-12.7 0A57.68 57.68 0 0 1 126.5 171a60.47 60.47 0 0 1-7.56-3.87q-1.89-1.15-3.71-2.43c-.6-.43-1.19-.87-1.78-1.32l-.31-.24-.92-.75a61.15 61.15 0 0 1-6.47-6.2c-.49-.55-1-1.11-1.45-1.68-.22-.26-.44-.52-.65-.79l-.38-.46s-.09-.13-.16-.21L103 153l-.36-.48a58.108 58.108 0 0 1-1.95-2.79 57.61 57.61 0 0 1-4.64-8.7A63.09 63.09 0 0 1 92 125.91a69.57 69.57 0 0 1 0-17.54 73.47 73.47 0 0 1 4.79-17.65 71.59 71.59 0 0 1 7-12.71 2.86 2.86 0 0 0 .19-.54l.16-.07h.13a3.84 3.84 0 0 0 2.09-1.6 5.46 5.46 0 0 0 .21-.61l.93-.46 1.58-.71.68-.3.33-.14q3.26-1.35 6.6-2.51c4.64-1.61 9.38-3 14.13-4.21 5.41-1.42 10.86-2.66 16.38-3.57l2-.32 1-.14.44-.07h.09c1.35-.17 2.71-.33 4.07-.46 2.76-.26 5.54-.42 8.31-.46s5.55 0 8.32.26c1.28.1 2.57.23 3.85.4h.14l.82.12 1.77.3a68.39 68.39 0 0 1 13.09 3.73l.77.31 1.63.73c1 .48 2.07 1 3.09 1.54a56.27 56.27 0 0 1 5.74 3.53l1.25.89.51.39.36.29c.89.71 1.75 1.46 2.59 2.23a47.16 47.16 0 0 1 4.6 4.88l.45.55.07.09c.36.48.71 1 1.05 1.45.69 1 1.33 2 1.94 3s1.12 2 1.63 3c.26.52.5 1 .74 1.56.09.2.18.4.26.6a.34.34 0 0 0 0-.08.94.94 0 0 0 .06.15c.14.33.1.25 0 .11 0 .07.06.13.08.19a59.71 59.71 0 0 1 3.62 13.61s0 .21.06.37.07.58.08.68c.08.62.14 1.24.2 1.87.11 1.17.19 2.34.25 3.51.11 2.39.11 4.79 0 7.19s-.27 4.78-.54 7.17c-.06.58-.13 1.16-.2 1.74v.19a.78.78 0 0 0 0 .16.49.49 0 0 1 0-.11c0 .31-.09.61-.13.91-.17 1.14-.36 2.28-.56 3.42a107.29 107.29 0 0 1-3.38 13.69 92.03 92.03 0 0 1-2.38 6.64c-.1.27-.21.53-.32.8l-.11.26c-.23.54-.47 1.09-.71 1.62-.47 1-1 2.09-1.48 3.12a77 77 0 0 1-7.06 12Zm-44.51-55.52Zm-.38-.55v.09c-.02-.09-.04-.13 0-.09Z" fill="#f5ac3a" data-color="1"/>
        <path d="M104.34 77.34h-.13l-.13.06c.67-.18.45-.14.26-.06Z" fill="#f5ac3a" data-color="1"/>
        <path d="M82 54.46a3.76 3.76 0 0 0 2.48 1 3.58 3.58 0 0 0 2.47-1c1.19-1.3 1.49-3.69 0-5l-16.7-14.11a3.77 3.77 0 0 0-2.48-1 3.54 3.54 0 0 0-2.47 1c-1.19 1.3-1.49 3.68 0 4.94Z" fill="#f5ac3a" data-color="1"/>
        <path d="m26.25 79.65 26 7.23 7.38 2.05a3.5 3.5 0 1 0 1.86-6.74L35.5 75l-7.39-2a3.5 3.5 0 0 0-1.86 6.74Z" fill="#f5ac3a" data-color="1"/>
        <path d="M38.74 130.15c3.61-.3 7.21-.75 10.79-1.32a3.46 3.46 0 0 0 2.08-1.61 3.48 3.48 0 0 0-1.25-4.78 4 4 0 0 0-2.69-.35c-.9.14-1.81.27-2.71.39a132.82 132.82 0 0 1-27.18.77c-2.49-.18-5-.45-7.43-.77-2-.28-4-.59-6-1a3.7 3.7 0 0 0-2.69.35A3.52 3.52 0 0 0 .09 124c-.39 1.71.52 3.94 2.44 4.3a137 137 0 0 0 36.21 1.85Z" fill="#f5ac3a" data-color="1"/>
        <path d="M44.94 171.11a3.81 3.81 0 0 0 2.09-1.6 3.49 3.49 0 0 0-1.25-4.79 3.4 3.4 0 0 0-2.69-.35A113.68 113.68 0 0 1 22 170.6c-1.93.37-3.87.67-5.81 1-3.43.44-6.88.74-10.34.87a3.5 3.5 0 1 0 0 7 116.43 116.43 0 0 0 30.87-5.34q4.19-1.38 8.22-3.02Z" fill="#f5ac3a" data-color="1"/>
        <path d="M62.77 188.72c-1.61 1.41-3.26 2.78-4.93 4.12l-1.25 1-.16.13-.63.48c-.84.64-1.69 1.27-2.54 1.89Q48 200.1 42.52 203.4c-2.12 1.27-4.26 2.47-6.44 3.63a3.52 3.52 0 0 0-1.25 4.78 3.57 3.57 0 0 0 4.78 1.26A150.56 150.56 0 0 0 62 198.38q2.9-2.3 5.68-4.72a3.51 3.51 0 0 0 0-4.94 3.58 3.58 0 0 0-4.91 0Z" fill="#f5ac3a" data-color="1"/>
        <path d="M103.75 213.12c-1.56-.83-3.94-.51-4.79 1.25q-5.73 12-12.34 23.51-1.87 3.26-3.81 6.48a3.5 3.5 0 0 0 6 3.53q6.84-11.38 12.84-23.25c1.13-2.24 2.23-4.48 3.31-6.74a3.73 3.73 0 0 0 .35-2.7 3.55 3.55 0 0 0-1.56-2.08Z" fill="#f5ac3a" data-color="1"/>
        <path d="M147.23 224.53a3.5 3.5 0 0 0-7 0q.58 12.5 1.18 25c.11 2.36.23 4.73.34 7.09a3.5 3.5 0 1 0 7 0q-.6-12.5-1.18-25-.18-3.54-.34-7.09Z" fill="#f5ac3a" data-color="1"/>
        <path d="M180.47 215.14a3.53 3.53 0 0 0-4.94 0 3.57 3.57 0 0 0 0 5q1.59 1.65 3 3.44l.24.32.63.85c.45.62.88 1.25 1.3 1.89a46.91 46.91 0 0 1 7.3 19.51c0 .31.08.63.11 1a3.79 3.79 0 0 0 1 2.47 3.57 3.57 0 0 0 2.47 1c1.73-.08 3.69-1.55 3.5-3.5a53.55 53.55 0 0 0-9.51-25.65 55.74 55.74 0 0 0-5.1-6.33Z" fill="#f5ac3a" data-color="1"/>
        <path d="M219.45 210.73q-2.73-2.67-5.52-5.26a3.5 3.5 0 1 0-5 4.94q9.84 9.15 18.92 19.06 2.58 2.82 5.09 5.68a3.52 3.52 0 0 0 4.95 0 3.58 3.58 0 0 0 0-4.94q-8.8-10.11-18.44-19.48Z" fill="#f5ac3a" data-color="1"/>
        <path d="M259 180.81c-2.9-.12-5.8-.39-8.68-.76a98.33 98.33 0 0 1-17.67-4.2 3.53 3.53 0 0 0-4.3 2.45 3.59 3.59 0 0 0 2.44 4.3 101.55 101.55 0 0 0 28.21 5.2 3.52 3.52 0 0 0 3.5-3.49 3.58 3.58 0 0 0-3.5-3.5Z" fill="#f5ac3a" data-color="1"/>
        <path d="M278.86 125.79a3.42 3.42 0 0 0-2.7-.35 75.22 75.22 0 0 1-17.25 4.56c-2.33.3-4.66.51-7 .59a3.5 3.5 0 1 0 0 7 78 78 0 0 0 26.09-5.41 3.81 3.81 0 0 0 2.09-1.6 3.51 3.51 0 0 0-1.25-4.79Z" fill="#f5ac3a" data-color="1"/>
        <path d="M281.18 80.34a3.59 3.59 0 0 0-4.79-1.26c-3.27 1.68-6.6 3.22-10 4.66A156.24 156.24 0 0 1 251 89.25a3.49 3.49 0 1 0 1.84 6.75 159.4 159.4 0 0 0 21.36-8.08c1.93-.89 3.83-1.82 5.72-2.79a3.53 3.53 0 0 0 1.26-4.79Z" fill="#f5ac3a" data-color="1"/>
        <path d="m235.23 54.55 18.1-21.17a3.71 3.71 0 0 0 1-2.47 3.56 3.56 0 0 0-1-2.47c-1.31-1.2-3.68-1.48-5 0L230.29 49.6a3.77 3.77 0 0 0-1 2.48 3.54 3.54 0 0 0 1 2.47c1.3 1.2 3.71 1.45 4.94 0Z" fill="#f5ac3a" data-color="1"/>
        <path d="M190 48.37c1.69.39 4-.51 4.3-2.44q2.19-12.93 4.37-25.83l1.23-7.31a3.7 3.7 0 0 0-.35-2.69 3.52 3.52 0 0 0-2.09-1.61c-1.69-.39-4 .51-4.3 2.44Q191 23.85 188.8 36.76l-1.23 7.31a3.81 3.81 0 0 0 .35 2.69 3.55 3.55 0 0 0 2.08 1.61Z" fill="#f5ac3a" data-color="1"/>
        <path d="M134.8 36.33a3.82 3.82 0 0 0 1.61 2.09 3.56 3.56 0 0 0 2.69.36 3.53 3.53 0 0 0 2.09-1.61 3.4 3.4 0 0 0 .35-2.69 122.33 122.33 0 0 1-6.43-22.2c-.39-2-.71-4.08-1-6.13-.11-.89-.22-1.77-.32-2.65a3.78 3.78 0 0 0-1-2.47 3.54 3.54 0 0 0-2.47-1c-1.73.08-3.71 1.55-3.5 3.5a125.8 125.8 0 0 0 5.5 26q1.13 3.41 2.48 6.8Z" fill="#f5ac3a" data-color="1"/>
        <path d="m197.44 89.11-.28-.23Z" fill="#f5ac3a" data-color="1"/>
        <path d="m139.35 90.92.14-.11Z" fill="#f5ac3a" data-color="1"/>
        <path d="M160.54 115.07v.05l-.05-.08.05.03Z" fill="#f5ac3a" data-color="1"/>
    </g>
</svg>
