<?xml version="1.0" encoding="UTF-8"?>
<svg data-bbox="-0.004 0.004 343.91 273.946" viewBox="0 0 343.92 273.99" xmlns="http://www.w3.org/2000/svg" data-type="color">
    <g>
        <path d="M337.77 46.49a11.78 11.78 0 0 0-7.32-1.9 4.74 4.74 0 0 0-1-.11l-34.31 1.83-10.14.57c-7.6.44-15.46.9-23.19 1.16-8.55.29-19.63 0-29.47-5.12C227 40.13 222 36.36 217.23 32.7c-3.5-2.68-7.13-5.45-10.93-7.83-9.26-5.8-19.42-10.25-29.25-14.55l-.3-.12c-10.24-4.48-19-7.79-28.32-9.37a57.07 57.07 0 0 0-14.75-.6 82.07 82.07 0 0 0-14.43 3.16l-.59.17-3.15.86c-15.6.51-31.39.89-47.17.82-8.52-.54-17-1.1-25.34-1.66L21 2.12l-8.66-.56a3.93 3.93 0 0 0-2.26.58l-.84-.08A3.92 3.92 0 0 0 6 3.18a4.14 4.14 0 0 0-1.2 3.39 654.45 654.45 0 0 1 3.87 77.58c-.23 23.17-1.94 48-5.38 78.27C1.93 174.43.48 188.65.12 203c-.17 6.6-.16 13.39 0 20.19v2.62c0 5.36 0 12 5.57 14.94a29.89 29.89 0 0 0 6.97 2.25c.86.21 1.67.4 2.47.62l29.93 8.2c3.53 1 7.11 2 10.58 2.94a977.84 977.84 0 0 0 19 5.14c.14.15.23.31.38.45a3.59 3.59 0 0 0 2.49.89 4.19 4.19 0 0 0 1.41-.25c1.75.44 3.5.92 5.25 1.34 14.73 3.48 26.68 4.38 37.61 2.82 8-1.15 15.89-3.5 23.49-5.78 3.94-1.18 8-2.4 12.07-3.43a143.6 143.6 0 0 1 35.55-4.93 119.78 119.78 0 0 1 34.93 5.56c5.81 1.75 11.7 3.79 17.39 5.77 16.49 5.71 33.52 11.61 51.45 11.61h1.73c2.73-.06 6.13-.13 8.95-1.93 2.41-1.55 4-4.07 4.89-7.93 1.07-4.45 1.7-9.11 2.32-13.6.27-2 .55-4.07.87-6.07l21.1-134.7a3.76 3.76 0 0 0 .5-.77 4.2 4.2 0 0 0 0-2.62l4.23-27c.27-1.71.59-3.48.9-5.18a87.11 87.11 0 0 0 1.75-13.73c.1-4.55-.9-10.64-6.13-13.93ZM270 262c-7.35-2-14.69-4.59-21.78-7.06-3.69-1.28-7.51-2.61-11.28-3.84-5.35-1.76-11.7-3.69-18.54-5.22a2.59 2.59 0 0 0 .09-.4c.36-12.5 1-25.12 1.86-37.5.6-8.46 1.38-17 2.23-25.47.44-.33.88-.68 1.32-1s.69-.45 1-.66l.26-.14.38-.2a20.27 20.27 0 0 1 2.35-1c.38-.15.78-.28 1.17-.4h.14l.51-.12 1.18-.22c.48-.07 1-.16 1.45-.27 3.76-.87 6-2.77 6.52-5.64a8.42 8.42 0 0 0-.65-4.42l-1.28-3.6c-.23-.67-.47-1.34-.7-2-1.3-3.76-2.64-7.64-5-11a20 20 0 0 0-4.5-4.63c.53-3.75 1.07-7.5 1.65-11.23l2.22.44 4.53.92c.85.17 2 .4 3.09.66l.31.08q.38.07.75.18l.38.1 1 .29a23.75 23.75 0 0 1 5.34 2.14l.41.27.63.41c.42.29.82.59 1.2.91.18.14.36.29.52.44l.12.14a1.41 1.41 0 0 0 .23.21c.14.15.27.31.39.46a11.17 11.17 0 0 1 .71 1l.19.3.11.16a16.32 16.32 0 0 1 .92 2.12 2.11 2.11 0 0 0 .11.4.79.79 0 0 1 0 .13 8.74 8.74 0 0 1 .19 1.12c0 .16 0 .32.05.48a4 4 0 0 0 0 .68 2.47 2.47 0 0 1 0 .39c0 .14 0 .29-.08.43a1.83 1.83 0 0 0-.11.53c-.05.15-.11.29-.17.44a2.06 2.06 0 0 1-.12.26l-.09.21c-.2.29-.38.53-.57.77a3.92 3.92 0 0 0-.8 3 3.85 3.85 0 0 0 1.53 2.63c4.49 3.16 10.41 3.58 17.1 1.2a49.15 49.15 0 0 0 7.87-3.87c1.64-.92 3.32-1.88 5-2.68a29.36 29.36 0 0 1 3.18-1.28l.42-.14.42-.11c.56-.13 1.12-.23 1.66-.3l.79-.08a3.16 3.16 0 0 1 .43 0h.34c.33 0 .64 0 .95.06s.66.1 1 .16h.32c.57.19 1.23.41 1.89.69s1.24.6 1.82.91l.12.06.1.06.12.07c.34.21.67.41 1 .63 1 .64 2 1.33 3 2l.57.4a40.15 40.15 0 0 0 6.92 4.09 20.16 20.16 0 0 0 7.89 1.73 13.58 13.58 0 0 0 6-1.35l-14.49 92.47c-.35 2.21-.69 4.42-1 6.63 0 .21-.06.43-.1.66-.25 1.76-.6 4.18-2.15 4.84s-4.07.63-6.2.54h-1.31c-2.75-.06-5.62-.27-8.52-.62A114.86 114.86 0 0 1 270 262Zm-67.59-18.6a135.31 135.31 0 0 0-35.24 2.17c-7.77 1.46-15.43 3.69-22.84 5.85-3.6 1.05-7.33 2.13-11 3.11q-2.51.67-4.8 1.2a392.07 392.07 0 0 0 13.13-95.36c.12-8.93 0-18-.17-26.8-.11-7.37-.23-15-.2-22.49a53.91 53.91 0 0 0 5.26-1.47 4 4 0 0 0 2.48-3.23 4.09 4.09 0 0 0-1.49-3.61l-.67-.62-.06-.07c-.41-.43-.81-.88-1.18-1.35s-.69-.89-1-1.35c-.15-.22-.3-.43-.43-.66l-.11-.17c0-.06-.07-.12-.11-.17a22.86 22.86 0 0 1-1.36-3l-.21-.64a1.16 1.16 0 0 0-.17-.62c-.11-.48-.2-1-.27-1.45s-.09-.86-.12-1.29c0-.73.05-1.46.09-2.19 0-.29.06-.58.11-.87s.06-.3.1-.46a1.48 1.48 0 0 0 .09-.35v-.17a16.27 16.27 0 0 1 1.16-2.72l.09-.15.1-.17.42-.61a16.72 16.72 0 0 1 1-1.31 3 3 0 0 1 .33-.29 1.46 1.46 0 0 0 .21-.25l.12-.11a14.23 14.23 0 0 1 1.3-1l.46-.3.31-.17a11.15 11.15 0 0 1 1.51-.66l.23-.07.25-.08.3-.07c.44-.09.93-.17 1.5-.24 1-.12 2-.17 3.09-.23 5-.25 10.06-.85 12.86-5.1 3.81-5.77 1-13-4-16.73a30.12 30.12 0 0 0-8.58-4.1l-1-.33a22.81 22.81 0 0 1-3-1.14l-.17-.1-.16-.12a.87.87 0 0 0-.05-.22v-.17a2.13 2.13 0 0 0 .13-.46c.07-.17.16-.34.24-.52a2.56 2.56 0 0 0 .11-.24s0 0 0-.06a1 1 0 0 0 .08-.11c.14-.21.29-.41.44-.61a3.74 3.74 0 0 1 .35-.37 4.83 4.83 0 0 0 .63-.71c.21-.19.42-.37.65-.54.61-.48 1.28-.92 1.94-1.35l1.2-.81c2.28-1.59 5.05-3.82 6.23-7a10.33 10.33 0 0 0 .63-2.6 5.84 5.84 0 0 0-.71-3.35 12.55 12.55 0 0 0-3-3.78c-2.95-2.53-6.51-3.4-10.12-3.92q1.34-7.32 2.89-14.6a115.12 115.12 0 0 1 16 5.49 281.9 281.9 0 0 1 29.07 13.54 132.81 132.81 0 0 1 15 10.1c3.66 2.75 7.45 5.6 11.4 8.1a55.7 55.7 0 0 0 13.44 6.36 2.78 2.78 0 0 0-.16.4c-2.93 11.61-5.62 23.38-8.06 35a202.11 202.11 0 0 0-21.26 6.92l-2 .73c-6.63 2.47-13.48 5-19.34 9.23a35.17 35.17 0 0 0-4.74 4.14c-1.63 1.68-3.32 3.75-3.49 6.31s1.19 4.94 4.16 7a35.66 35.66 0 0 0 6.39 3.52 70.34 70.34 0 0 0 13.28 3.83c3.08.64 6.22 1.26 9.26 1.86l4 .81 5.45 1.09c-.45 2.91-.9 5.82-1.33 8.74-2.67-1-5.43-1.85-8.07-2.62l-1-.28c-1.74-.52-3.61-1.08-5.44-1.77-.94-.35-1.78-.7-2.57-1.06l-1.28-.63-.37-.2-.26-.15a24 24 0 0 1-4.35-3.52c-1.64-1.62-4.15-3.39-7.06-3.1a4 4 0 0 0-3.53-1.35A19.86 19.86 0 0 0 168.28 146a49 49 0 0 0-.21 5.39 33.56 33.56 0 0 1-.53 7.29v.14c0 .12-.08.24-.11.37a1.6 1.6 0 0 1-.05.21c-.15.49-.3 1-.46 1.48l-.14.42c-.27.85-.55 1.73-.79 2.61a17.23 17.23 0 0 0-.69 7.39 18.59 18.59 0 0 0 3.16 7.09c.68 1 1.4 2.08 2.1 3.09.53.78 1.07 1.55 1.59 2.33.7 1 1.27 1.92 1.78 2.74l.44.72.19.31a1 1 0 0 0 .14.2v.07c0 .09.08.18.12.25q.23.4.45.84c.53 1 1 2 1.37 2.88.18.44.35.89.51 1.32 0 .15.09.32.13.49a4.93 4.93 0 0 0 .35 1v.09l.15.64c.12.54.21 1.08.29 1.61s.12.93.15 1.39v.32a1.51 1.51 0 0 0 0 .63 16.31 16.31 0 0 1-.29 2.75s0 .14-.06.25 0 .16-.06.25l-.05.17a14 14 0 0 1-.51 1.4l-.34.79c-.94 2.15-1.82 4.17-1.73 6.68a9 9 0 0 0 3.47 6.45 10.64 10.64 0 0 0 6.75 2.27 14.24 14.24 0 0 0 6.88-1.86 35.59 35.59 0 0 0 10.43-9.27 101.46 101.46 0 0 0 6.9-10.33c1.25-2.05 2.56-4.12 3.93-6.16-.28 3.22-.6 6.44-.84 9.65-1 12.5-1.66 25.2-2.08 37.73 0 1.44-.09 2.89-.13 4.33-2.61-.41-5.33-.77-8.07-.98Zm-81.91 13.84c-1.51.22-3 .38-4.39.49a79.47 79.47 0 0 1-17.7-.76c-4.35-.62-8.69-1.52-13-2.53a45.61 45.61 0 0 0 6.48-10.93 49.13 49.13 0 0 0 2.83-10.18c.2-1.19.38-2.39.56-3.56.3-2 .6-4.05 1-6a3.21 3.21 0 0 1 .1-.35c0-.07 0-.15.07-.23a1.51 1.51 0 0 0 .13-.65c0-.15.08-.31.13-.46.24-.8.49-1.52.77-2.2s.6-1.32.89-1.88l.1-.16.15-.23a11.5 11.5 0 0 1 .8-1.1 9.88 9.88 0 0 1 .66-.77 2 2 0 0 0 .41-.4 19.09 19.09 0 0 1 1.64-1.28l.7-.46.37-.23.18-.11.21-.15a2.41 2.41 0 0 1 .25-.11l.31-.15 1-.49c.76-.38 1.53-.75 2.29-1.11a64 64 0 0 0 6.26-3.25 40 40 0 0 0 7-5.52 59.68 59.68 0 0 0 11.3-15.9c.16-.31.28-.6.43-.91-.42 5.33-.9 10.6-1.52 15.74a381.2 381.2 0 0 1-10.37 53.34 4.92 4.92 0 0 0-.03 2.52Zm21.44-162.38h.27a1 1 0 0 1-.14.16Zm-89.29 7.41h.48l-.06.19a.72.72 0 0 1-.42-.19Zm-3.79-23.76.24.07-.09.1Zm4.3-34.65Zm0 0Zm97.62-11.13.47.14a16.22 16.22 0 0 1 1.83.73l.17.09.2.1h.06c.2.13.41.26.6.4a2.4 2.4 0 0 1 .24.22 3.67 3.67 0 0 0 .51.44c.06.06.1.12.15.18l.12.17-.1.25c-.19.28-.41.58-.65.87l-.07.07-.17.21-.43.37-.13.11a33.19 33.19 0 0 1-3 2.18c-.62.41-1.25.83-1.86 1.28a17.77 17.77 0 0 0-2.27 2c.5-3.45 1-6.9 1.59-10.34h.24c.64.09 1.22.19 1.77.3h.15a1.9 1.9 0 0 0 .55.24ZM144 62c.19-1.83.44-3.67.65-5.5 1.83 2 4.27 2.81 6.63 3.61l.25.09a46.05 46.05 0 0 1 6.14 2.47l.3.2.39.26c.31.22.6.46.91.71l.31.26a.52.52 0 0 1 .1.11l.19.21.15.17a7.47 7.47 0 0 1 .56.73c0 .11.09.23.15.37s.12.26.18.39.16.39.23.59l.07.2v.63a3.12 3.12 0 0 0 0 .37v.62l-.09.27-.09.26v.05l-.21.27a4.93 4.93 0 0 0-.49.39l-.17.15h-.07c-.09 0-.17.09-.26.12a3 3 0 0 1-.36.12 4 4 0 0 0-.58.2h-.23c-.4.08-.82.15-1.29.21-1.11.13-2.26.19-3.38.24l-1.23.07a20 20 0 0 0-9.91 3q.48-5.9 1.15-11.84Zm7-29.43.06-.49.21.07a.74.74 0 0 1-.37.41Zm-9.47-9.28h-.1l-.33-.09c-.36-.12-.7-.24-1-.37l-.49-.22c-.18-.09-.36-.18-.54-.25l-.17-.11a5.39 5.39 0 0 1-.59-.45l-.09-.08-.17-.21-.31-.38-.13-.21a1.16 1.16 0 0 0-.11-.16l-.12-.25a8.3 8.3 0 0 1-.32-.8 2.5 2.5 0 0 0-.05-.29c0-.15 0-.3-.07-.45a3.64 3.64 0 0 0 .05-.45v-.1a2.69 2.69 0 0 0 .16-.29l.09-.08a4.1 4.1 0 0 0 1.54-2.81 3.7 3.7 0 0 0-.81-2.83 4.06 4.06 0 0 0-.86-.7l2.32-.08 4.47-.15c-.98 3.88-1.74 7.84-2.47 11.8Zm-23.86-11 14.33-.5a8.81 8.81 0 0 0-3.23 6.91 12.59 12.59 0 0 0 4.65 9.56 16.31 16.31 0 0 0 6.62 2.88 497.76 497.76 0 0 0-6.16 57.51v.85c-.22 4.58-.39 9.17-.47 13.75v1c-.33 0-.65.08-1 .1-.63 0-1.28.08-1.92.09H129a48.31 48.31 0 0 1-7.79-.81q-.94-.18-1.89-.39a2.7 2.7 0 0 0-.35-.07h-.16l-.24-.08-.63-.17c-1.27-.36-2.54-.78-3.79-1.26l-1.11-.42a22.17 22.17 0 0 0-7.78-2 17.39 17.39 0 0 0-9.26 2.87A41.44 41.44 0 0 0 84.14 113 44.75 44.75 0 0 0 77 127.25a44 44 0 0 0-1.61 8.25 52.81 52.81 0 0 0 0 8.46q.07 1 .12 2v1.17a.49.49 0 0 1 0 .12v.21c0 .7-.07 1.32-.14 1.91 0 .34-.1.68-.16 1v.3l-.07.2c-.08.23-.16.47-.25.69 0 0-.08.14-.12.22a1.87 1.87 0 0 0-.15.29l-.06.09c-.11.15-.23.29-.35.43l-.21.25a6 6 0 0 1-.63.5l-.26.18h-.09l-.43.19-.22.08-.35.07h-.35a1.13 1.13 0 0 0-.4-.22l-.21-.29v-.06l-.18-.42a1.33 1.33 0 0 0-.14-.57.27.27 0 0 1 0-.12 29.44 29.44 0 0 1-.33-3v-.09a20.49 20.49 0 0 0-1.44-7 19.12 19.12 0 0 0-4-5.71c-1.37-1.39-2.84-2.68-4.27-3.93l-.91-.8c-.38-.34-.77-.69-1.14-1l-.52-.49-.5-.52a22.56 22.56 0 0 1-1.63-2l-.42-.63a7 7 0 0 0-.31-.68 5.55 5.55 0 0 1-.32-.71c0-.13-.1-.26-.14-.4v-.06a1.72 1.72 0 0 0-.07-.21 13.69 13.69 0 0 1-.23-1.45v-.66c0-.48 0-.95.09-1.43s.13-.92.22-1.41c.05-.25.1-.5.16-.75l.07-.3a70.41 70.41 0 0 1 2.56-7c.66-1.63 1.35-3.32 1.94-5 1.95-5.64 2.22-10.23.86-14.44-1.22-3.75-3.84-6.5-6.38-9.16-1-1.1-2.13-2.23-3.08-3.41-.34-.42-.66-.85-1-1.28-.13-.19-.25-.38-.37-.57a1.09 1.09 0 0 0-.28-.48 14.26 14.26 0 0 1-.69-1.51c-.07-.17-.13-.34-.19-.53a2.13 2.13 0 0 0-.1-.42.62.62 0 0 0 0-.1c-.05-.25-.08-.49-.11-.72v-.22a1.8 1.8 0 0 0 0-.22.25.25 0 0 0 0-.08c0-.08 0-.19.05-.33v-.11c0-.1 0-.2.05-.3A.78.78 0 0 1 48 73l.18-.46.16-.33.11-.16.14-.19c.09-.11.17-.22.26-.32l.13-.14.08-.09.25-.22c.22-.18.44-.36.7-.54l.65-.44.19-.12.18-.11c1-.55 2.07-1.05 3.24-1.61a22 22 0 0 0 7.27-5.15 10.09 10.09 0 0 0 2.51-8.87 11.38 11.38 0 0 0-4.91-6.61c-.55-.38-1.12-.74-1.67-1.08l-.91-.56c-.51-.33-.89-.59-1.23-.84s-.41-.31-.61-.47l-.21-.2-.14-.12-.19-.21-.18-.26a1.36 1.36 0 0 0-.22-.39v-.11c0-.11-.05-.22-.08-.34s0-.13 0-.15v-.15q0-.52.15-1.14v-.09c.08-.24.17-.49.28-.75s.19-.44.3-.65l.18-.38a2 2 0 0 0 .18-.39c.41-.61 1.31-1.75 1.69-2.22.78-.93 1.63-1.81 2.57-2.77l.64-.64.3-.29 1.57-1.51A99.4 99.4 0 0 1 74.78 21.4c1.14-.74 2.31-1.47 3.47-2.17l1.16-.67c.63-.36 1.27-.71 1.91-1a4.5 4.5 0 0 0 2.34-3.32c9.35.62 19 1.17 28.3-.71 1.73-.35 3.44-.77 5.13-1.2Zm-41 192.84h-.07v-.08Zm-2.37 10.1.52-.38a.69.69 0 0 1-.41.68.943.943 0 0 1-.17-.33Zm3.94 35.35a16.27 16.27 0 0 1-.35-2.23c0-.36-.06-.74-.07-1.14a2 2 0 0 0 0-.61c0-.65 0-1.34.11-2 .14-1.52.38-3 .69-4.73a49.15 49.15 0 0 0 1.06-11 20.45 20.45 0 0 0-1.25-5.87 36.85 36.85 0 0 0-1.72-3.83l-.45-.92c-.31-.65-.67-1.41-1-2.2a13 13 0 0 1-.35-1l-.09-.24-.06-.16v-.43c-.07-.37-.12-.74-.16-1.11v-.54a16.64 16.64 0 0 1 .25-2.33c0-.11 0-.23.07-.34v-.25c.1-.32.19-.64.3-.95a20.06 20.06 0 0 1 1-2.36c.15-.32.32-.64.49-1l.07-.15.22-.37c.44-.72.93-1.47 1.46-2.21 1.34-1.9 2.9-3.74 4.4-5.52 3.52-4.18 7.17-8.5 8.68-14.07a18.09 18.09 0 0 0-1.06-12.5 15.15 15.15 0 0 0-3.61-4.78 141.18 141.18 0 0 1 14.13-9.86l1.92-1.15.51-.3.34-.19.75-.42c1.36-.77 2.76-1.53 4.16-2.25s2.71-1.39 4.13-2l1-.37.33-.13.27-.12a1.59 1.59 0 0 0 .3-.06h.11l.33-.08a13.06 13.06 0 0 1 1.32-.23c.25 0 .5-.06.76-.07h.31a11.82 11.82 0 0 1 1.68.18c.21 0 .41.08.61.12l.26.08a11.65 11.65 0 0 1 1.66.65l.71.35.24.14c.46.3.93.62 1.38 1s.81.67 1.21 1a1.54 1.54 0 0 0 .48.5l.39.44c.38.45.75.93 1.1 1.42.16.24.32.47.47.71l.22.35a20.47 20.47 0 0 1 1.44 3.34 3.34 3.34 0 0 0 .2.82 2.08 2.08 0 0 1 .07.26A21.41 21.41 0 0 1 130 162c.08.63.12 1.29.15 1.94a.57.57 0 0 0 0 .12v1.42a32.63 32.63 0 0 1-.48 4.15c-.12.64-.26 1.3-.41 2v.22a.9.9 0 0 0-.06.22c-.1.36-.2.72-.31 1.08a58.89 58.89 0 0 1-3.16 8.18c-.61 1.31-1.26 2.6-1.92 3.83l-.49.89a1.19 1.19 0 0 0-.09.15.55.55 0 0 0-.09.14c-.39.65-.78 1.3-1.18 1.92a52.82 52.82 0 0 1-5.14 6.78c-.25.28-.5.55-.76.82l-.31.32v.06l-.13.13-.43.42c-.3.28-.59.55-.9.82a37.92 37.92 0 0 1-3.36 2.68c-.55.38-1.11.75-1.66 1.1l-.37.23-.13.07-.11.07h-.07l-.11.06-.58.31c-1.11.58-2.26 1.13-3.38 1.65l-.52.22a36.78 36.78 0 0 0-8 4.64 20.93 20.93 0 0 0-6.07 8.61 47.65 47.65 0 0 0-2.34 9.85c-.09.55-.17 1.11-.26 1.66-.15 1-.3 2-.47 3-.14.85-.28 1.6-.42 2.29-.07.35-.15.71-.23 1.06 0 .16-.07.31-.11.47s0 .12 0 .18a43.52 43.52 0 0 1-3.41 8.56l-.14.27a3 3 0 0 1-.16.31l-.2.32-.25.41c-.42.68-.86 1.36-1.31 2a43.68 43.68 0 0 1-2.36 3.06Zm1.55-80.46h.17l-.19.36a.66.66 0 0 1-.04-.39Zm-8 55.88.09.29-.51.32a.73.73 0 0 1 .32-.61ZM96 222.16a.78.78 0 0 1 .47.26h-.55c.08-.09.08-.18.08-.26Zm6.89-9.4.48.43a.69.69 0 0 1-.72-.26Zm-94.72 13v-2.42C8 220.07 8 216.87 8 213.85a373.74 373.74 0 0 1 2-38.78c.54-5.25 1.14-10.59 1.73-15.75.84-7.49 1.72-15.24 2.4-22.88C15.2 124 16 111.38 16.34 98.88a667 667 0 0 0-1.88-75c-.35-4.36-.76-8.82-1.22-13.31a534.42 534.42 0 0 0 55 2.62l4.36.28A101.41 101.41 0 0 0 63 20c-2.28 1.79-4.51 3.7-6.62 5.68A73.73 73.73 0 0 0 50.17 32c-4.69 5.58-5.78 11.42-3 16a15.42 15.42 0 0 0 5.31 4.78l.33.21a24.73 24.73 0 0 1 2.32 1.56c.17.13.34.26.5.4l.06.06c.06.08.13.15.2.23l.15.17.09.13c.05.13.11.27.17.4s0 .07 0 .08a.78.78 0 0 1 0 .09v.24q0 .15-.09.27a1.84 1.84 0 0 1-.09.28v.08a1.71 1.71 0 0 0-.13.23l-.1.17c-.1.15-.28.44-.43.64a1.76 1.76 0 0 0-.3.24l-.14.13-.21.18c-.2.18-.42.35-.63.52l-.66.48-.36.24a4.93 4.93 0 0 0-1.25.63l-.29.17-.87.41-1 .48a20.44 20.44 0 0 0-7.27 5.18 11.73 11.73 0 0 0-2.39 8.94A18.5 18.5 0 0 0 43.6 84a40.51 40.51 0 0 0 3.7 4.21c.47.48.94 1 1.39 1.44a30.71 30.71 0 0 1 2.45 2.91 15.837 15.837 0 0 1 .57.84l.11.18a14.25 14.25 0 0 1 .72 1.55c.05.14.09.28.14.42v.08a1.8 1.8 0 0 0 .06.22v.06a10.23 10.23 0 0 1 .26 1.43v.81c0 .48 0 1-.11 1.5s-.14.94-.24 1.43c0 .11-.05.23-.07.34a1.47 1.47 0 0 0-.18.74c-.25.88-.56 1.83-1 2.9-.48 1.33-1 2.66-1.56 4-.31.76-.62 1.52-.92 2.28-1.75 4.43-3.28 9.19-2.58 14 .8 5.55 4.59 9.57 7.81 12.45.52.46 1 .92 1.57 1.37l.87.76 1.23 1.1.52.48.19.18a14.54 14.54 0 0 0 1 1.1 12.81 12.81 0 0 1 1 1.22c.12.16.24.33.35.5a4.61 4.61 0 0 0 .43.93 3.53 3.53 0 0 1 .26.51c.06.13.1.27.15.41l.06.23v.06a13 13 0 0 1 .24 1.53c.08.67.13 1.37.18 2 0 .41.06.83.1 1.24a13.52 13.52 0 0 0 2.36 7.17 9 9 0 0 0 7 3.44 8.81 8.81 0 0 0 1.69-.17 12.3 12.3 0 0 0 7.54-4.85 15.39 15.39 0 0 0 2.63-9c0-1.39 0-2.87-.16-4.82v-.37c0-.59-.08-1.18-.11-1.77v-1.38a40.5 40.5 0 0 1 .8-7.57v-.23c.08-.39.16-.78.26-1.16l.06-.22.14-.47c.09-.31.18-.62.28-.93.39-1.23.84-2.45 1.34-3.64s1-2.28 1.64-3.39l.15-.28a2.15 2.15 0 0 0 .14-.26c0-.07.08-.13.11-.18l.18-.3c.35-.58.73-1.16 1.11-1.73.71-1 1.47-2 2.26-3 .38-.46.78-.92 1.19-1.37.21-.24.43-.47.66-.71l.5-.52.06-.06a1.13 1.13 0 0 0 .13-.2l.59-.48.25-.21c.51-.45 1-.9 1.57-1.33a35.36 35.36 0 0 1 3-2.19l.54-.35.3-.18.1-.07h.09l.14-.07a14.93 14.93 0 0 1 1.75-.81c.14-.06.28-.1.42-.15l.3-.1h.16l.22-.05a7.67 7.67 0 0 1 .8-.11h.47a12.54 12.54 0 0 1 1.88.28h.22l.17.06c.38.12.75.25 1.13.39.59.21 1.18.44 1.77.67s1.42.55 2.15.81a54.24 54.24 0 0 0 8.66 2.24 52.3 52.3 0 0 0 12.39.58c0 6.87.06 13.74.16 20.45.09 5.55.17 11.26.19 16.93a20.92 20.92 0 0 0-13.76-9c-6.53-1-12.59 2.41-17.94 5.41l-.58.33a150.11 150.11 0 0 0-17.1 11.08c-1.26 1-2.56 2-3.86 3a4.21 4.21 0 0 0-1.44 2.3 4.26 4.26 0 0 0-1.77.87 3.73 3.73 0 0 0-1.39 2.59 4.08 4.08 0 0 0 3.51 4.42c.14 0 .29 0 .43.06a1.55 1.55 0 0 0 .57.17l.18.06.27.13.1.05a8.64 8.64 0 0 1 .73.54.47.47 0 0 1 .1.1l.25.23c.17.19.33.39.49.6s.14.22.21.34a4.67 4.67 0 0 0 .34.53l.21.42c.13.29.24.58.35.88 0 .1.07.2.1.3l.09.26a14.56 14.56 0 0 1 .36 2.21v.26a3.18 3.18 0 0 0-.05.87 2 2 0 0 1 0 .34c0 .31-.07.63-.13.94l-.06.32v.22c-.24.73-.53 1.59-.91 2.45-.19.42-.41.87-.64 1.3l-.09.18-.06.12-.26.42a41.93 41.93 0 0 1-3.37 4.65c-.73.91-1.5 1.81-2.24 2.68a68.17 68.17 0 0 0-4.74 6A29 29 0 0 0 66.87 209a18.44 18.44 0 0 0 1.51 11.3c.31.69.65 1.38 1 2 .4.82.82 1.66 1.18 2.5.19.44.34.83.47 1.21l.18.51a1.43 1.43 0 0 0 .13.3c0 .16.05.36.07.48a3.48 3.48 0 0 0 0 .36c.07.4.12.83.17 1.25s.06.77.07 1.17v.1a.41.41 0 0 1 0 .12v.08a1.94 1.94 0 0 0 0 .22c0 .82-.09 1.67-.2 2.62-.18 1.64-.48 3.31-.76 4.93v.05a41.44 41.44 0 0 0-.81 11.27c0 .34.12.67.17 1l-2-.55q-2.85-.81-5.72-1.59L14 235.11c-.4-.11-.83-.2-1.28-.3-2.26-.49-3.88-.95-4.15-2.44a39 39 0 0 1-.39-6.62Zm256.43-72.49.06-.35a.66.66 0 0 1 .18.19Zm-37.44-55.68c-1.9 9.59-3.69 19.25-5.27 28.88l-2.36-.47c-5.95-1.16-12.1-2.37-18.11-3.69-1-.21-2-.45-3.15-.73h-.17l-.78-.22-1.53-.45a39.9 39.9 0 0 1-5.87-2.32l-.27-.13c-.29-.15-.6-.3-.88-.46l-.36-.23-.55-.35c-.41-.27-.81-.54-1.18-.81l-.19-.14c.29-.35.6-.7.87-1l.31-.33.17-.17a2.52 2.52 0 0 0 .21-.25l.34-.29.3-.25c.71-.63 1.48-1.25 2.29-1.84.65-.48 1.35-1 2.07-1.4l.19-.12.72-.44.34-.18.61-.34a87.38 87.38 0 0 1 10.28-4.52c6.71-2.61 14.31-5.52 21.97-7.75Zm-1.56 60a45.41 45.41 0 0 1 2.31 5.46l1.56 4.39 1.13 3.19h-.27l-.45.08c-.7.12-1.42.25-2.13.43a27.3 27.3 0 0 0-4.14 1.44c.08-.74.14-1.49.23-2.24.49-4.33 1.07-8.68 1.63-13a1.08 1.08 0 0 0 .13.3Zm-40.26 54.73a4.26 4.26 0 0 1-.5-.06 2.37 2.37 0 0 1-.34-.08l-.39-.17-.11-.01a2 2 0 0 1-.26-.18c-.06 0-.12-.1-.18-.15l-.1-.1a.41.41 0 0 1 0-.09 2.14 2.14 0 0 0-.13-.19.7.7 0 0 0-.06-.19c0-.18 0-.36.07-.53s.14-.42.22-.63c.21-.52.44-1 .69-1.56s.35-.77.52-1.16a20 20 0 0 0 1.09-3.5 21.18 21.18 0 0 0 .37-6.46c-.62-7.94-5.1-14.49-9.42-20.82l-1.72-2.44c-.25-.38-.5-.76-.74-1.14l-.11-.19-.09-.14-.06-.11c-.07-.12-.13-.25-.19-.37a10.78 10.78 0 0 1-.52-1.19l-.07-.2-.05-.16v-.08a2.38 2.38 0 0 1-.05-.26q-.06-.33-.09-.69a1.23 1.23 0 0 0 0-.17 1.21 1.21 0 0 0 0-.18 1 1 0 0 1 0-.2c0-.24 0-.48.07-.71a12.13 12.13 0 0 1 .24-1.33 1.46 1.46 0 0 1 .06-.26v-.06a.83.83 0 0 1 0-.12l.07-.27c.21-.7.43-1.4.65-2.1.42-1.35.86-2.74 1.19-4.16a28.85 28.85 0 0 0 .59-6.08v-1.65c0-1.46 0-3 .12-4.42a24.31 24.31 0 0 1 .4-2.81v-.06l.18-.54c.13-.39.28-.78.45-1.16s.28-.58.44-.89l.05-.11.37-.56a16.67 16.67 0 0 1 1.54-1.89l.08-.08.31-.28c.34-.3.69-.58 1-.85s.63-.44 1-.64l.3-.17.22-.12.38-.18a4 4 0 0 0 1.49 2.1 3.86 3.86 0 0 0 3 .75 4.15 4.15 0 0 0 2.83-1.92l.15.14c.33.29.63.59 1 .91l.15.15a23.07 23.07 0 0 0 2.17 1.92A34.18 34.18 0 0 0 204 146.6c1.64.54 3.33 1 5 1.49 1.87.55 3.81 1.1 5.68 1.75 1.37.47 2.5.94 3.57 1.42-.62 4.56-1.24 9.12-1.78 13.66s-1 9.09-1.48 13.65c-.67.62-1.33 1.25-2 1.94-3.87 4.08-6.82 8.89-9.68 13.55-1.07 1.75-2.18 3.57-3.32 5.31s-2.34 3.43-3.44 4.82q-1 1.22-1.92 2.28c-.33.36-.68.72-1 1.08l-.09.08-.49.47c-.74.68-1.5 1.31-2.27 1.89a18.564 18.564 0 0 1-1.6 1.11h-.05a4 4 0 0 0-.81.39 4.8 4.8 0 0 1-.43.23 3.2 3.2 0 0 1-.47.16 4.52 4.52 0 0 0-.77.28l-.64.11h-.58ZM175 187.24l-.32.38a.67.67 0 0 1 0-.51Zm77.37-35.71v.08a.52.52 0 0 0-.2-.06H252l-.07-.06Zm65.46 1.63c-.18.15-.36.29-.55.42l-.1.07-.2.1-.2.1-.48.19-.19.07-.57.11-.59.07h-.7l-.71-.05a12.55 12.55 0 0 1-1.43-.24h-.1a3.45 3.45 0 0 0-.43-.12l-.24-.07c-.46-.15-.94-.32-1.42-.52s-.87-.37-1.3-.58q-.3-.13-.6-.3l-.33-.18h-.08l-.14-.08-.22-.14-.74-.47c-.59-.39-1.17-.79-1.75-1.19l-.64-.44a57 57 0 0 0-7.06-4.42 18.65 18.65 0 0 0-8.37-2.1 22.76 22.76 0 0 0-7.91 1.52 50.6 50.6 0 0 0-7.4 3.7c-1.56.88-3.17 1.8-4.8 2.58a31.18 31.18 0 0 1-3.86 1.53l-.21.07a1.24 1.24 0 0 0-.37.06l-.46.13-.23.07a17.91 17.91 0 0 1-2 .32q-.44 0-.87.06h-.29q-.42 0-.84-.06a13.93 13.93 0 0 0 .42-5.15 18.7 18.7 0 0 0-6.58-12.22c-3.88-3.18-8.73-4.69-12.53-5.66-3.2-.81-6.49-1.45-9.67-2.06l-1.32-.26c1.73-10.6 3.64-21.25 5.75-31.75 0-.24.11-.48.15-.72.91-.18 1.84-.4 2.71-.54 2-.33 4-.59 5.85-.76.9-.08 1.81-.14 2.7-.19l1.5-.06h1.24c8.45 0 16.86 1.49 24.76 3 8.89 1.71 17.58 3.39 26.18 5.13 3.59.72 8.33 1.7 13.09 2.91h.21l.53.14.28.08 1.35.36c1.17.32 2.34.66 3.46 1 2.2.67 4.32 1.38 6.31 2.11.86.32 1.7.69 2.55 1l-6.72 42.86a3.82 3.82 0 0 0-3.88.57Zm16.58-81.48-4.71 30.05a156.3 156.3 0 0 0-21.39-6.16c-6.59-1.45-13.32-2.74-19.83-4l-6.77-1.31-2.43-.48a188.85 188.85 0 0 0-22.94-3.55 82.15 82.15 0 0 0-18.82.83c2-9.24 4-18.49 6.28-27.61.35-1.42.7-2.84 1.06-4.25a71.56 71.56 0 0 0 9.44.84c1.25 0 2.49.05 3.74.05 7.1 0 14.25-.45 21.21-.89 2.71-.17 5.52-.35 8.27-.5l36.84-2a3.48 3.48 0 0 0 .45.55c1.69 1.3 3.87 1 5.56-.66.3-.31 1.43-.23 2.37.17a4.82 4.82 0 0 1 2.72 3.24 15.81 15.81 0 0 1 .27 6.73c-.25 2.18-.61 4.39-1 6.53-.1.74-.23 1.6-.36 2.42Z" fill="#f5ac3a" data-color="1"/>
    </g>
</svg>
