<?xml version="1.0" encoding="UTF-8"?>
<svg data-bbox="-0.001 0.014 163.326 224.564" viewBox="0 0 163.3 224.58" xmlns="http://www.w3.org/2000/svg" data-type="color">
    <g>
        <path d="M91.82 157.79c-.16.18-.27.39-.42.58-.09.13-.15.27-.24.39a31.49 31.49 0 0 0-4.25 7.67c-.57 1.19-1.1 2.4-1.6 3.62-.08-.67-.13-1.35-.22-2-.76-5.89-1.68-11.76-2.59-17.63l-.2-1.31a7.17 7.17 0 0 0 3.47-5.35 7.27 7.27 0 0 0-1.38-8c-.1-.18-.15-.37-.26-.54a7.51 7.51 0 0 0-7.55-3.1 7.91 7.91 0 0 0-5.71 5.16 6.64 6.64 0 0 0-.24 1.16 84.18 84.18 0 0 0-15.5 2.73c-2.52.66-5 1.38-7.57 2l-.43.1c.55-.39 1.08-.8 1.64-1.18 3.57-2.47 7.26-4.77 11-6.92a2.82 2.82 0 0 0 1-3.82 2.87 2.87 0 0 0-3.83-1l-15.81 8.16-3.9 2a9.46 9.46 0 0 0-2.81 1.92 2.27 2.27 0 0 0-1.32.69 2.82 2.82 0 0 0 0 3.95c.29.25.61.47.91.72a2.87 2.87 0 0 0 .19 1 2.76 2.76 0 0 0 2.56 1.72h.61c2.76 2.21 5.5 4.46 8.36 6.54a2.81 2.81 0 0 0 3.83-1 2.26 2.26 0 0 0 .11-.37 2.61 2.61 0 0 0 .31-.27 2.84 2.84 0 0 0-.22-3.67 26.47 26.47 0 0 0-2.48-2.71c5-1.15 9.89-2.7 14.9-3.75 1.07-.22 2.15-.42 3.23-.59.52-.08 1-.19 1.57-.23-.72 0 .23 0 .38-.05l.9-.1c1.16-.13 2.33-.15 3.5-.22a7.31 7.31 0 0 0 .46.76c.15.2.36.36.53.55a7.56 7.56 0 0 0 .37 1 6.33 6.33 0 0 0 3.56 3c.5 3.27 1 6.54 1.51 9.81.22 1.45.44 2.9.64 4.34.1.65.19 1.3.28 1.95.05.34.09.68.14 1l.06.45a.54.54 0 0 1 0-.11v.29c.28 2.18.52 4.37.76 6.56l-.3-.55-5.61-10.44a2.8 2.8 0 0 0-5.12 2.15 65.58 65.58 0 0 0 7.65 15.47 3.42 3.42 0 0 0 1.13 1 8.1 8.1 0 0 0 2.76 3.34c.12.07.28.07.41.13v.43A2.83 2.83 0 0 0 83.5 188a2.77 2.77 0 0 0 3.07-2c.23-1.43.54-2.85.87-4.27a31.48 31.48 0 0 0 1.27-3.24c1-2.87 1.79-5.79 2.8-8.65.06-.14.11-.28.16-.42.47-1 .92-2 1.44-3 1-1.79 2-3.52 3.1-5.2a2.79 2.79 0 0 0-.72-3.61 2.76 2.76 0 0 0-3.67.18Z" fill="#f5ac3a" data-color="1"/>
        <path d="M162.28 125.25a69 69 0 0 0-8.22-25.35c-4.91-8.48-12.28-15.2-19.51-21.69A97.55 97.55 0 0 0 122.81 69a58.16 58.16 0 0 0-13.21-6.39 62.89 62.89 0 0 0-13.85-3 2.75 2.75 0 0 0-2.58-1.83c-3.06 0-6.11.18-9.16.37q.27-4 .39-8.08c9.29-2.35 17.68-8.59 20.74-17.93a24.72 24.72 0 0 0-.42-16.35 22.35 22.35 0 0 0-4.6-7.35 23.15 23.15 0 0 0-8.47-5.31 46.45 46.45 0 0 0-9.2-2.47A38.37 38.37 0 0 0 72.88.1a25.19 25.19 0 0 0-9.46 2.56 21.77 21.77 0 0 0-7.6 6.8 35 35 0 0 0-6.36 18.69 31.31 31.31 0 0 0 4.8 18.45 30.38 30.38 0 0 0 12.31 10.72c.27.94.55 1.87.9 2.79-1.36.24-2.73.45-4.09.74a97.44 97.44 0 0 0-27.07 9.84A76.06 76.06 0 0 0 16.4 86.46a61.75 61.75 0 0 0-13 22.66c-3 9.67-3.64 20.06-3.33 30.12A111.24 111.24 0 0 0 4.56 168a81.87 81.87 0 0 0 12.13 24.78 71.3 71.3 0 0 0 18.63 17.74 61.58 61.58 0 0 0 11.4 5.76c.35.13.72.24 1.07.36q2.34 1.14 4.69 2.11a78.74 78.74 0 0 0 38.31 5.36 77.23 77.23 0 0 0 29.51-9.3 64.64 64.64 0 0 0 36-33.39 64.64 64.64 0 0 0 4.38-12.77 106.09 106.09 0 0 0 2.19-15.87 132.05 132.05 0 0 0-.59-27.53ZM39.49 205l-.48-.37-.32-.29c1.5.91 3 1.81 4.57 2.66q1.85 1.4 3.81 2.62a2.83 2.83 0 0 0 .17.4 64.818 64.818 0 0 1-6.52-4.1l-.95-.71Zm109.93-50c0 .16 0 .32-.07.49-.07.47-.15.93-.23 1.4q-.47 2.68-1.19 5.32c-.48 1.74-1 3.47-1.69 5.16-.16.4-.32.81-.49 1.21l-.08.19q-.12.28-.24.54a40.1 40.1 0 0 1-1.23 2.56 49.68 49.68 0 0 1-2.75 4.67c-.46.7-.94 1.37-1.43 2l-.25.32-.26.35-.84 1a56.47 56.47 0 0 1-7.19 7.15c-.59.49-1.19 1-1.79 1.44l-.6.46-1.26.91c-1.39 1-2.82 1.94-4.27 2.83a100.09 100.09 0 0 1-9 4.9c-1.53.73-3.07 1.44-4.62 2.11l-1.24.54c.62-.27-.39.16-.58.24l-2.5 1a114.83 114.83 0 0 1-11 3.83 51 51 0 0 1-5.83 1.38l-.77.12h-.3l-1.3.13c-1.08.09-2.16.14-3.23.14A53.68 53.68 0 0 1 77 207h-.34l-.53-.08-1.61-.26c-1-.18-2.1-.39-3.14-.61a90.88 90.88 0 0 1-9.19-2.47c-1.49-.49-3-1-4.41-1.57-.72-.28-1.42-.56-2.13-.86l-.56-.24-1.14-.51a84 84 0 0 1-8.47-4.42c-1.37-.81-2.7-1.66-4-2.56-.62-.42-1.24-.86-1.85-1.3l-1-.73-.33-.25-.25-.19a75.67 75.67 0 0 1-7-6.26q-1.63-1.68-3.14-3.46c-.49-.57-1-1.15-1.42-1.73a2.79 2.79 0 0 0-.2-.24l.15.16c-.09-.1-.17-.22-.25-.32q-.43-.57-.84-1.14a56.89 56.89 0 0 1-4.82-8c-.33-.67-.65-1.35-1-2-.13-.29-.26-.58-.38-.88a1.14 1.14 0 0 1-.06-.15l-.27-.67c-.67-1.71-1.26-3.47-1.76-5.25s-1-3.75-1.32-5.66c-.17-.92-.32-1.83-.46-2.75a.73.73 0 0 0 0-.15.59.59 0 0 0 0-.11l-.09-.76c-.06-.5-.12-1-.17-1.51a84.89 84.89 0 0 1-.27-11.72c.08-1.95.22-3.91.41-5.86.1-.93.2-1.86.32-2.79l.09-.76a.54.54 0 0 1 0-.11c.08-.55.15-1.1.24-1.65a73.09 73.09 0 0 1 2.6-11.69q.45-1.37 1-2.7l.25-.6c.21-.48.42-1 .65-1.42a44.12 44.12 0 0 1 2.45-4.48 50.31 50.31 0 0 1 1.99-2.95l.4-.54.13-.18c1.05-1.33 2.15-2.62 3.31-3.85s2.41-2.44 3.7-3.58c.61-.54 1.24-1.07 1.87-1.6l1-.84.63-.47a73.18 73.18 0 0 1 9.35-5.9c1.7-.92 3.44-1.77 5.2-2.57.81-.38 1.63-.73 2.45-1.08l.36-.15.47-.2 1.64-.66c3.62-1.41 7.3-2.66 11-3.8 1.58-.49 3.18-1 4.78-1.38a3.17 3.17 0 0 0 2.17.33c.51-.1 1-.19 1.54-.27h.29l.52-.06c1-.1 2.07-.15 3.1-.17a42.65 42.65 0 0 1 5.87.37h.39l.78.12 1.29.23q1.56.3 3.09.66c2 .47 3.93 1 5.87 1.61 3.74 1.14 7.46 2.4 11.12 3.78.85.32 1.71.65 2.56 1l1 .41.39.17.91.4c1.74.78 3.46 1.62 5.13 2.54a53.85 53.85 0 0 1 4.86 3c.33.23.66.46 1 .7l.56.42.09.06.09.07c.73.59 1.45 1.18 2.16 1.8a59.5 59.5 0 0 1 7.22 7.67l.31.39.26.35.71.94c.55.76 1.09 1.54 1.62 2.32q1.51 2.24 2.89 4.58a93.94 93.94 0 0 1 5.19 10.2c0 .06.34.82.1.25l.24.58c.18.42.35.85.51 1.28.36.93.71 1.87 1 2.81.63 1.81 1.19 3.63 1.69 5.48s.92 3.71 1.26 5.59q.26 1.35.45 2.7l.06.41v.33c.07.58.13 1.16.19 1.74a62.87 62.87 0 0 1 .09 10.89c-.07.87-.15 1.74-.26 2.6.1-.1.08.04.07.18Zm-125-60c.09-.18.17-.36.27-.53l1.19-.9c-.5.43-1.02.84-1.48 1.34Zm-15.7 43.22c0-.56.06-1.11.08-1.67a2.86 2.86 0 0 0 .42-.1c0 .62-.11 1.23-.14 1.84s0 1.45 0 2.17c-.08-.74-.25-1.46-.36-2.24Zm135.91-29.52 1.5 2.36c0 .17.08.35.11.52-.51-.98-1.07-1.92-1.61-2.88Zm-1.72 76.46a8.91 8.91 0 0 0-.26-1.11c1.18-1.4 2.28-2.85 3.32-4.36-.54 1.05-1.07 2.1-1.65 3.13-.45.79-.93 1.56-1.41 2.34ZM51 211.81l.14.08-.32-.11ZM80.16 45.29Zm-36.41 28 .4-.2Zm21.11-23.36a4 4 0 0 0-.41-.31c-.49-.4-1-.81-1.43-1.23a29.08 29.08 0 0 1-2.69-2.86 3.22 3.22 0 0 0-.32-.41c-.19-.25-.37-.5-.55-.76-.37-.53-.72-1.09-1.06-1.65s-.64-1.14-.93-1.73c-.14-.28-.28-.56-.41-.84a3.9 3.9 0 0 0-.2-.47 27 27 0 0 1-1.31-4.24c-.16-.71-.28-1.43-.39-2.15 0-.18-.05-.37-.06-.55 0-.38-.07-.77-.1-1.16a31.76 31.76 0 0 1 0-4.47c0-.39.07-.77.12-1.16v-.18a3.26 3.26 0 0 1 .05-.33c.11-.74.25-1.48.42-2.21A34.2 34.2 0 0 1 57 19a8.37 8.37 0 0 1 .43-1.08.14.14 0 0 0 0-.06l.21-.44c.31-.68.64-1.35 1-2s.74-1.3 1.15-1.93c.19-.3.39-.6.6-.89l.34-.48.24-.31c-.07.09-.14.17-.2.26a4.54 4.54 0 0 1 .75-.9c.23-.26.48-.52.73-.78s.5-.5.77-.74a3.9 3.9 0 0 1 .88-.75l-.26.2.36-.21c.14-.11.29-.21.44-.31s.55-.36.83-.53A18.36 18.36 0 0 1 67 7.1a2.1 2.1 0 0 0 .46-.18l.92-.32c.65-.2 1.31-.38 2-.52.35-.08.7-.15 1.06-.21l.44-.07c.69-.07 1.37-.14 2-.17a35.31 35.31 0 0 1 4.24.09l1.11.11.51.06c.69.1 1.37.21 2 .34 1.41.26 2.8.59 4.19 1a44.24 44.24 0 0 1 4.48 1.47l.56.25c.34.16.67.33 1 .51a18.79 18.79 0 0 1 2 1.21l.4.29c.21.17.41.33.61.51a16.78 16.78 0 0 1 1.27 1.26c.21.22.41.46.61.7l.14-.08a3.55 3.55 0 0 0 .23.31c.35.48.67 1 1 1.49a17 17 0 0 1 .84 1.57c.1.22.41 1.14.13.26.09.3.23.58.33.88a21 21 0 0 1 .93 3.48c0 .24.14 1.34.07.35 0 .29.07.57.09.86.05.61.08 1.21.09 1.82s0 1.22-.06 1.82c0 .29 0 .57-.08.85v-.09c0 .15 0 .31-.07.47a21.35 21.35 0 0 1-.89 3.52c-.1.29-.2.58-.31.86v-.05c-.06.11-.1.24-.16.36-.26.56-.54 1.12-.85 1.66s-.68 1.13-1.06 1.67a4.76 4.76 0 0 0-.53.74l-.33.39a24.33 24.33 0 0 1-2.76 2.8l-.79.66h-.06l-.26.19c-.53.39-1.07.76-1.63 1.11a28.7 28.7 0 0 1-3.5 1.88 2.06 2.06 0 0 0-.48.21l-.88.34c-.53.2-1.06.36-1.6.53-.09-3.2-.61-6.43-2.76-8.92a7.71 7.71 0 0 0-5.81-2.57 9.7 9.7 0 0 0-6.26 2.57c-3.41 3.06-4.23 8.19-4.33 12.53 0 .8.05 1.59.09 2.39Z" fill="#f5ac3a" data-color="1"/>
        <path d="M56.94 39.75c.06.25.34.58 0 0Z" fill="#f5ac3a" data-color="1"/>
        <path d="M99.31 31.83c-.31.57-.07.17 0 0Z" fill="#f5ac3a" data-color="1"/>
        <path d="M87 43.45c.21-.1.49-.36 0 0Z" fill="#f5ac3a" data-color="1"/>
        <path d="M100.58 27.06c-.13.64-.02.2 0 0Z" fill="#f5ac3a" data-color="1"/>
        <path d="M60.07 45.17c.16.22.47.4 0 0Z" fill="#f5ac3a" data-color="1"/>
        <path d="M64.49 49.65h.06c.18.19.45.26-.06 0Z" fill="#f5ac3a" data-color="1"/>
        <path d="M97.1 13.44c.32.49.12.15 0 0Z" fill="#f5ac3a" data-color="1"/>
    </g>
</svg>
