<?xml version="1.0" encoding="UTF-8"?>
<svg data-bbox="-0.039 0 487.843 151.143" viewBox="0 0 487.92 151.11" xmlns="http://www.w3.org/2000/svg" data-type="color">
    <g>
        <path d="M163 41.76v.06-.06Z" fill="#f5ac3a" data-color="1"/>
        <path d="m223.5 29.33.16.06h.15a.75.75 0 0 0-.31-.06Z" fill="#f5ac3a" data-color="1"/>
        <path d="M173 45.81a1.92 1.92 0 0 1 .19.38 1 1 0 0 0-.21-.42Z" fill="#f5ac3a" data-color="1"/>
        <path d="M163 41.94a.46.46 0 0 0 .19.2 2 2 0 0 1-.19-.2Z" fill="#f5ac3a" data-color="1"/>
        <path d="M203.33 64.17c.07-.16.16-.3.24-.45a1.6 1.6 0 0 0-.26.47Z" fill="#f5ac3a" data-color="1"/>
        <path d="M162.93 41.79a.29.29 0 0 1-.11-.08l.18.23a.66.66 0 0 1-.07-.15Z" fill="#f5ac3a" data-color="1"/>
        <path d="M232.32 38a2.61 2.61 0 0 1-.28 0 .71.71 0 0 0 .28 0Z" fill="#f5ac3a" data-color="1"/>
        <path d="M378.36 90.7c.47-.16.48-.21.33-.17l-.23.11Z" fill="#f5ac3a" data-color="1"/>
        <path d="M380.83 91.07a.46.46 0 0 1-.07-.07c-.27-.26-.76-.48.07.07Z" fill="#f5ac3a" data-color="1"/>
        <path d="M379.71 90.24a.85.85 0 0 0 .21.07h-.08Z" fill="#f5ac3a" data-color="1"/>
        <path d="M387.45 84.83a.23.23 0 0 0-.11 0Z" fill="#f5ac3a" data-color="1"/>
        <path d="M397.16 80.2h-.07Z" fill="#f5ac3a" data-color="1"/>
        <path d="M370.17 83.7a1.41 1.41 0 0 1 .31.1h.07c-.21-.12-.35-.14-.38-.1Z" fill="#f5ac3a" data-color="1"/>
        <path d="M327.23 93v.09-.21a.6.6 0 0 0 0 .12Z" fill="#f5ac3a" data-color="1"/>
        <path d="M330.17 95.29h.08a1.38 1.38 0 0 1 .28-.19s-.14-.02-.36.19Z" fill="#f5ac3a" data-color="1"/>
        <path d="M368.1 82.15a.64.64 0 0 1 .08.14 2.54 2.54 0 0 1 .15.21.71.71 0 0 0-.23-.35Z" fill="#f5ac3a" data-color="1"/>
        <path d="M130.31 119.91c-.11.09-.08.08 0 0Z" fill="#f5ac3a" data-color="1"/>
        <path d="M176.07 138.48h.09Z" fill="#f5ac3a" data-color="1"/>
        <path d="M487.16 123.42a8.13 8.13 0 0 0-1.39-2.11c.15-.75.28-1.51.45-2.26a5.26 5.26 0 0 0-2.34-5.79 3.55 3.55 0 0 0-1-.25 207.44 207.44 0 0 0-1.66-23.37 4.26 4.26 0 0 0-3.91-3.6c-1.88.1-3.29 1.48-3.91 3.6-1.94 6.63-1.74 13.79-1 20.67.22 2.06.47 4.12.73 6.17l.3 2.44c.05.37.09.74.13 1.12 0 .19.05.37.07.56v.06c.08.78.16 1.57.23 2.35v.54l-.39.1h-.11l-.79.12-2 .28c-.66.09-1.32.16-2 .23-.09-.37-.22-.73-.31-1.11q-.61-2.58-1-5.24c-.06-.42-.13-.85-.19-1.28 0-.18 0-.36-.07-.55 0 0 0-.32-.06-.53 0-.25 0-.49-.07-.74l-.12-1.48c-.14-2.09-1.15-4.23-3-4.73a3.7 3.7 0 0 0-3.29.71v-.06a50.2 50.2 0 0 0 .26-5.49c0-2.57-1.84-5-4.06-4.91a3.75 3.75 0 0 0-1.59.43c.1-1.19.23-2.37.34-3.56a10.77 10.77 0 0 0 3.48-5.47 23.36 23.36 0 0 0 .73-7.61L459 62.43c-.08-2.45-1.49-4.49-3.52-4.82a4.08 4.08 0 0 0-4.48 3.52c-2 16.55-3.67 33.18-5 49.87a6.13 6.13 0 0 0-6.36.75 1.62 1.62 0 0 0-.1-.18 57.16 57.16 0 0 1-3-7c-1.77-4.76-3.33-9.69-5.69-14.08a29.88 29.88 0 0 0-10.6-11.57c-2.08-1.29-4.23-2.39-6.31-3.68a30.61 30.61 0 0 1-2.82-1.93c-.37-.28-.73-.57-1.09-.88l-.61-.53-.15-.13-.07-.07c-3.16-3.09-5.9-6.71-8.8-10.15s-6.16-6.94-9.9-9.12A21.62 21.62 0 0 0 375 50c-5.17 1-10.07 3.64-14.79 6.3s-9.66 5.51-14.51 8.22c-7.85 4.48-15.8 8.7-23.7 12.92-14.61-16.93-30.14-32.92-47.18-46.19-16.72-13-35.16-23.42-54.7-28.3-10.89-2.71-22.29-4.39-33.18-1.25-10.48 3-20 9.76-29 16.59-15.63 11.8-31.05 24-46.37 36.39 0-.7.09-1.39.13-2.09s.11-1.64.16-2.46c1.79-6.21 2.82-13 1-19.33-.66-2.33-2.38-3.86-4.45-3.52s-3.36 2.36-3.51 4.82l-1 15.89c-.09.29-.16.59-.24.87-1.77 5.68-3.79 11.25-5.71 16.85Q71.57 87.4 45.86 110.19c0-.32 0-.65-.06-1-.08-2.09-1.19-4.24-3-4.73a3.42 3.42 0 0 0-1.68 0l-2.04-21.79a6 6 0 0 0-1.73-3.9q.51-7.09 1-14.19a4.66 4.66 0 0 0-3.52-4.82c-2-.32-3.91 1.15-4.45 3.52A101.26 101.26 0 0 0 28 90.58l-8.48 25.62a26 26 0 0 0-2.16-2.41 3.77 3.77 0 0 0-3.4-1.35 4.18 4.18 0 0 0-3 2.35c-.42.71-.84 1.41-1.27 2.11l-.55.9-.17.27c-.79 1.25-1.62 2.48-2.46 3.68-1.72 2.47-3.53 4.85-5.4 7.15-2.11 2.58-1.2 7.29 1.79 8.21a34.14 34.14 0 0 0 19.62.1c2.06-.6 3.49-3.57 2.83-6a5.48 5.48 0 0 0-.38-.85 5.12 5.12 0 0 0 .42-1.38v2.22c.05 2.56 1.84 5 4.06 4.91s3.85-2.16 4.05-4.91c.15-2 .29-4 .43-6a4.79 4.79 0 0 0 .21.74c1 2.1 3.78 3.35 5.55 1.77.38-.35.78-.68 1.16-1 .62 1.8 1.31 3.56 2.1 5.28 1.52 3.32 5.43 3 7 0v-.09a16.73 16.73 0 0 0 2.36 2.76 3.46 3.46 0 0 0 3.13.5 4.68 4.68 0 0 0 2.56-2.28q1.68-3.19 3.35-6.39a34.91 34.91 0 0 0 5.41 10.21c1.57 2 4.12 1.69 5.73 0l7.31-7.7.33-.34c3.24 2.06 6.49-.37 7.2-4.31a2.85 2.85 0 0 0 3.1.57c.62-.3 1.21-.64 1.8-1a32.41 32.41 0 0 0 19.77 11.6c9.72 1.51 19.53-3 26.48-11.22a15.46 15.46 0 0 0 .76 1.65 13.19 13.19 0 0 0 7.49 6.56A11.56 11.56 0 0 0 155 132c.4-.2.74-.47 1.12-.7a40.34 40.34 0 0 0 .21 7.37c.55 3.63 2.71 6.69 5.69 7.66 4.3 1.4 7.94-1.93 10.82-5.37.33-.4.66-.81 1-1.19l.21-.23.89-.64c-.21.22.17-.11.35-.18a2.51 2.51 0 0 1 .43-.1 4.21 4.21 0 0 0 2.9 1.8 35 35 0 0 0-.39 5.8c.09 3.65 3.4 6.21 6.1 4.24l3.75-2.74c.3.05.6.13.9.15a3 3 0 0 0 2.26 0c.55-.21 1.09-.44 1.64-.66.23-.07.45-.18.68-.27 1.29-.51 2.56-1 3.84-1.56a6.57 6.57 0 0 0 5.5.65 12.72 12.72 0 0 0 2.37-1.23 6.88 6.88 0 0 0 1.08 1.91c3.93 4.71 10 .38 13.88-2a88.44 88.44 0 0 0 11.39-8.3c.28-.24.54-.52.82-.77a4.34 4.34 0 0 0 .62 1c1.24 1.37 3.44 2.08 4.92.77a68.28 68.28 0 0 0 12.1-14.24c.69-.31 1.39-.59 2.07-.9q30.35-13.71 60.14-29.11c2.44-1.26 4.85-2.6 7.28-3.87-.77 4.66-.92 9.77 2 13.43s7.63 3.54 11.37 1.7 7.28-4.51 10.84-6.88l11-7.3 2.64-1.75c.13-.09 1.47-1 2.09-1.39-.14.07-.19.11.22-.07l.63-.24c.12 0 .24-.08.37-.12h.12c.21.37.41.75.63 1.11a13.9 13.9 0 0 0 2.77 3.34 10.11 10.11 0 0 0 5.82 2.44 10.89 10.89 0 0 0 6.23-1.72c.68-.37 1.36-.78 2-1.17h-.12a1.07 1.07 0 0 0 .22-.1l.2-.09a5.31 5.31 0 0 1 .6-.22h.31-.08.39-.15c.21.16.43.3.63.46s.24.24.36.32c1.47 1.43 3 2.94 4.85 3.43 2.53.66 4.93-.25 7-2.08a22 22 0 0 1 2-1.73l.08-.06c-.09.09.43-.2.57-.24a5.91 5.91 0 0 1 .69-.19l.28-.06q.68-.14-.24 0a4.54 4.54 0 0 1 1.43-.2c.74-.11 1.48-.21 2.21-.38a9 9 0 0 0 3.11-1.43 9.65 9.65 0 0 0 3.91-6.8 46.47 46.47 0 0 0 5.75 3.85 54.16 54.16 0 0 1 6.2 3.86 20.9 20.9 0 0 1 4.13 4.45l.33.53.34.58q.45.8.87 1.62c.59 1.17 1.13 2.37 1.64 3.6 1 2.35 1.84 4.77 2.71 7.17.73 2 1.5 4 2.32 5.91a3.44 3.44 0 0 0-2.22 1.33 103.29 103.29 0 0 0-9 14.23c-.95.81-1.87 1.67-2.8 2.52a7.45 7.45 0 0 0-2.87-1.49 11.46 11.46 0 0 0-8.06 1.34 28.71 28.71 0 0 1-3.53 1.62 15.72 15.72 0 0 1-1.75.49l-.22.05a5.94 5.94 0 0 0-.79.09 15.46 15.46 0 0 1-1.8 0 5.93 5.93 0 0 1-1.73-.14l-.17-.06c-.29-.06-.58-.14-.88-.22a18.53 18.53 0 0 1-2-.72c-2-.86-4.52 1-5 3.42a6.38 6.38 0 0 0 0 2.35 60 60 0 0 1-8.87-1.08c1 .23-.35-.06-.56-.09l-1.14-.21-2.6-.5q-2.5-.53-5-1.14c-3.64-.91-7.21-2.19-11-1.51a21.71 21.71 0 0 0-2.59.73l-.58.17-.81-1.8a3.85 3.85 0 0 0-4-2.34c-1.67.27-2.8 1.64-3.37 3.52a8.21 8.21 0 0 0 2.53 8.52l.63 1.39c1 2.26 3.74 3.17 5.54 1.76a4.8 4.8 0 0 0 1.26-1.54c.33-.09.67-.11 1-.21l1.14-.37.58-.17.31-.07h1.04c.25 0 1.06-.07 1.25.12 0 0-1-.21-.14 0l.63.14c.46.11.93.24 1.39.37a130.48 130.48 0 0 0 22.67 4.11 30.41 30.41 0 0 0 12.78-1 5 5 0 0 0 3-4.2 20 20 0 0 0 2.72-.87c1-.47 2.05-1 3.09-1.53a16.25 16.25 0 0 1 1.57-.65l.83-.24h.62l.43.13.26.15c.1.23.1.23 0 0a4.47 4.47 0 0 0 2.63 2.9c1.52.51 2.77-.14 3.95-1.26l.48-.47c.09-.07.51-.47.58-.53l.55-.5a3 3 0 0 0 .43.09c3.51.34 7-1.47 9.79-3.9.28-.24.52-.51.79-.76a3.1 3.1 0 0 0 2-1.26c.69-1 1.42-2 2.19-3a4.44 4.44 0 0 1 .84-.75c-.46.42-.51.47-.16.15l.45-.4c.26-.23.53-.45.8-.67.46-.36.94-.67 1.43-1h.52l.25.06.57.18.09.07.4.23c.35.21.69.44 1 .67.54.36 1.11.65 1.67 1a5.52 5.52 0 0 0 .41 2.68c0 .49-.07 1-.09 1.49a4.65 4.65 0 0 0 3.51 4.82 4.09 4.09 0 0 0 4.45-3.52c.12-.65.18-1.31.26-2a36.73 36.73 0 0 0 6.32.9c1.44.07 2.89.07 4.35 0 .2.5.35 1 .56 1.51a8.59 8.59 0 0 0 4.24 4.82c2.32 1 4.65-.18 6.41-2a34.79 34.79 0 0 0 3.44-4.41 3.51 3.51 0 0 0 2.89 1.51 7.2 7.2 0 0 0 5.95-4.14 10.09 10.09 0 0 0 .58-8.36ZM180.25 14.68A44.43 44.43 0 0 1 194.91 10a47.2 47.2 0 0 1 8.49 0c2.55.19 5.4.58 7.47.95 17 3 32.75 10.2 47.61 20-.42.2-.83.41-1.26.6a40.54 40.54 0 0 1-5 1.9c-.77.23-1.54.43-2.31.58a4 4 0 0 1-.45.09h-.06c-.43.05-.86.1-1.29.12a14.92 14.92 0 0 1-2.41 0l-.47-.05c-.41-.1-.83-.19-1.24-.32s-.82-.27-1.22-.44c-.08 0-.32-.16-.44-.2-.73-.43-1.42-.89-2.11-1.39a26.39 26.39 0 0 0-4.81-2.94 10.78 10.78 0 0 0-6.35-.42c-.79.14-1.58.34-2.36.54l-1.11.28c-.18 0-.36.07-.54.12-.36 0-.72.05-1.09 0h-.11c.08 0 .07.05-.1 0h-.33s.07 0 .12-.05l-.37-.12-1.06-.61c-2.41-1.35-5-2-7.45-.27-1.77 1.24-2.94 3.42-3.81 5.6a41.6 41.6 0 0 0-2 6.48c-.88 4-1.25 8.12-1.89 12.18-.27 1.78-.6 3.54-1 5.27-.21.85-.47 1.68-.72 2.51l-.18.45c-.18.47-.38.94-.59 1.39s-.53 1-.8 1.52c0 0 0 .15-.14.3l-.1.15-.06.11v-.09l-.21.3a13.94 13.94 0 0 1-.89 1.11l-.36.4a4.46 4.46 0 0 1-.42.34 9.12 9.12 0 0 1-.82.56l-.12.07c-.6.23-1.18.42-1.79.59a9 9 0 0 1-1 0H197a5 5 0 0 1-.78-.24l-.27-.11c-.19-.12-.39-.23-.57-.37l-.14-.12-.45-.52-.11-.21a6 6 0 0 1-.3-.69c0-.14-.09-.28-.12-.42-.21-.78-.36-1.58-.51-2.37-.72-4-1.63-7.75-4.52-10.21a8.49 8.49 0 0 0-5.83-1.87c-1.55 0-3.09.42-4.64.37h-.41c-.28-.08-.57-.13-.85-.22s-.57-.22-.85-.33-.33-.19-.49-.3-.57-.4-.85-.62l-.33-.3c-.22-.26-.45-.5-.66-.77l-.34-.45a10.72 10.72 0 0 1-.5-.95 4 4 0 0 1-.21-.59c0 .14 0 .17-.11-.13l-.08-.25s0-.08-.05-.09 0 0 0 .05a2.76 2.76 0 0 0-.08-.27c-.14-.47-.27-1-.39-1.43a47.16 47.16 0 0 0-1.78-5.78c-1.73-4.3-5.28-6.93-9.2-7C158 31.13 154.44 33 151.4 35c-.68.47-1.35 1-2 1.46 1.2-.93 2.38-1.88 3.58-2.8 8.75-6.66 17.84-14.23 27.27-18.98Zm62.14 18.55h-.07c.21.06.68.35.07 0ZM217.46 37Zm-91.35 17.76Zm-17.88 59.76Zm-.2.06h.17c-.12.23-.23.47-.36.69l-.06.12-.07.09-.06.08.06-.87Zm-8-7a58.59 58.59 0 0 0-5.74 3.9 4.55 4.55 0 0 0-2.59-2.18l7-20.6c1-2.94 2-5.87 3-8.8q-.8 12.48-1.6 25c.07.84.01 1.75-.04 2.65Zm-87.85 21.19c1-1.35 1.83-2.77 2.74-4.17l.12.18v-.08a20.81 20.81 0 0 0 1 1.91c-.22.68-.45 1.36-.67 2-.88.07-1.76.17-2.64.16-.18.04-.36.01-.55 0Zm13.16-1.45.06-.11v.43c-.01-.11-.04-.21-.06-.32Zm9-6.16.27-3.7a5 5 0 0 0 1.08 1.81 6.1 6.1 0 0 0-1.4 1.89Zm39 1.72-3.08 3.24c-.3-.6-.59-1.2-.85-1.82-.16-.37-.3-.75-.45-1.13a.41.41 0 0 1 0-.08l-.15-.48a31.08 31.08 0 0 1-1.1-4.81c0-.1-.09-.74-.12-.91s0-.61 0-.68c0-.9-.06-1.8 0-2.71 0-2.06-1.27-4.26-3-4.73a3.92 3.92 0 0 0-4.75 2.23l-4.14 7.88a5.14 5.14 0 0 0-2-3.5Q72.82 98.6 92.24 82.32l-7 20.37-4.8 14c-2.82.9-5.03 3.94-7.17 6.19Zm91.26 13.75Zm11.67 1.83c.05 0 .14 0 .16-.06a.28.28 0 0 1-.23.06Zm-.07 0a.4.4 0 0 1-.28.06 1.08 1.08 0 0 0 .19-.08h.12a.64.64 0 0 0 .31 0 .56.56 0 0 1-.41.07Zm19.88-20a10.4 10.4 0 0 0 2.17 3.35 6.17 6.17 0 0 0 6.86 1.68c2.55-1 4.11-3.57 5.54-6.18q3.76-6.87 7-14.12c.3-.69.57-1.4.87-2.1a36 36 0 0 0 4 8.09 3.37 3.37 0 0 0 4.74.81c.11.25.18.52.31.77a3.9 3.9 0 0 0 .37.62 7.4 7.4 0 0 0-.25 3.13c.14 1.26.29 2.51.43 3.76a29.55 29.55 0 0 0-9 3.21c-5 2.51-10.07 5.11-15 8-1.57.93-3.11 1.95-4.65 3a4.61 4.61 0 0 0-.89-.88 3.45 3.45 0 0 0-4.09 0l-6.41 4.66a6.1 6.1 0 0 0 .06-4.33 63.22 63.22 0 0 0 7.86-13.45Zm6.43-7.74a3.39 3.39 0 0 1 0 .34.86.86 0 0 1-.07-.32Zm-14.68 25.74v-.05c0-.36 0-.34 0 0-.21-.41-.07-.41-.07.07Zm69.1-26.78c.08-.21.18-.41.25-.62s.19-.58.29-.87a2.8 2.8 0 0 0 1.17-.55 78 78 0 0 0 9.67-9.64c.05.19.08.38.15.57a5.44 5.44 0 0 0 4 3.75c-5 2.4-10.05 4.86-15.12 7.19ZM285.7 96a13.16 13.16 0 0 0-.08-3 4.5 4.5 0 0 0-2.84-3.42 3.69 3.69 0 0 0-3.94 1.26c-.12.1-.24.21-.37.3a9.89 9.89 0 0 1-1.07.76 1.88 1.88 0 0 0-.19.1l-.24.12h-.07c.79-3.59 1.62-7.17 2.43-10.76a5.27 5.27 0 0 0-2.35-5.8c-1.9-1-3.95-.06-5.06 2-.62 1.17-1.26 2.31-1.93 3.43q-.46.78-.93 1.53l-.1.15c-.13.21-.27.42-.41.63-1.4 2.12-2.89 4.15-4.45 6.08s-3 3.52-4.6 5.15a3.89 3.89 0 0 0-2.65-1.94c-2-.32-3.91 1.15-4.45 3.52-.6 2.67-1.4 5.21-2.2 7.79l-.06.15c-.13.35-.25.69-.38 1-.25.64-.5 1.27-.76 1.89-.51 1.25-1.07 2.48-1.65 3.69-.7 1.45-1.46 2.83-2.25 4.2l-4.44 2a3.42 3.42 0 0 0-4.14-.13c-.18.14-.31.31-.47.46l-.6-5.31a4.1 4.1 0 0 0-.78-1.8 5.61 5.61 0 0 0-.16-4.29c-.16-.34-.3-.67-.45-1v-.07c-.18-.66-.37-1.31-.5-2 0-.05-.1-.47-.15-.78a2 2 0 0 0 0-.36V99c0-.18.06-.45.07-.52.08-.47.2-.91.31-1.36.6-1.32 1.2-2.65 1.79-4a5.67 5.67 0 0 0-1-6.33 3.53 3.53 0 0 0-5.33.38c-.21.34-.38.7-.58 1h-.05c-.09.21-.19.42-.28.62a25.36 25.36 0 0 0-1.68 3.72c-.43 1-.86 1.94-1.3 2.9-.1-.38-.22-.76-.31-1.15-.19-.88-.32-1.75-.47-2.63a1.64 1.64 0 0 0 0-.18 1 1 0 0 0 0-.16c0-.41-.06-.83-.08-1.24v-2.48c0-.42 0-.83.06-1.24 0-.25 0-.49.06-.74.31-2.52-.54-5.38-2.83-6s-4.11.89-5 3.43c.25-.72 0 0-.06.14-.1.3-.2.59-.31.88l-.55 1.53c-.41 1.09-.82 2.18-1.24 3.26-.83 2.16-1.71 4.3-2.61 6.43q-2.77 6.47-5.95 12.66c-1 1.84-2 3.64-2.94 5.46l-.07-.26c0-.14-.32-1.38-.43-2 0-.17 0-.35-.05-.53 0-.66-.05-1.33-.08-2q-.33-8.64-.65-17.28c-.1-2.56-1.8-5-4.06-4.91s-4 2.16-4.05 4.91c0 1.07 0 2.13-.1 3.19q0 .8-.12 1.59c0 .11 0 .53-.07.84a60.61 60.61 0 0 1-.92 5.71q-.64 3.09-1.58 6.08c-.11.38-.24.76-.36 1.14.07-.24-.3.84-.36 1a58 58 0 0 1-1.08 2.69q-1.17 2.76-2.58 5.34c-.49.89-1 1.74-1.52 2.61-.08.12-.08.13-.11.18l-.26.4-.74 1.08a51.73 51.73 0 0 1-3.51 4.48c-.49.57-1 1.11-1.53 1.65a7.49 7.49 0 0 0-6.38.25 14.28 14.28 0 0 0-4.71 3.73c-.55.66-1.1 1.33-1.68 2l-.37.41-.28.29-.07.06c-.22.18-.44.36-.67.53l-.24.17c0-.17-.07-.34-.11-.52s0-.53 0-.79v-2.06c0-1.43.12-2.86.12-4.29 0-3.88-.63-8.19-3.21-10.83-2.31-2.37-5.85-1.58-6.78 2.17 0 .12 0 .19-.06.26-.11.25-.23.5-.35.74a5.42 5.42 0 0 0-.57.66l-.18.14c-.2.15-.4.28-.61.41l-.08.06c-.3.11-.6.24-.9.33-.14 0-.4.07-.58.14h-.24c-.48 0-1-.07-1.46-.07l-.34-.08c-.3-.09-.58-.21-.87-.32a8.57 8.57 0 0 1-.79-.55l-.12-.08c-.19-.24-.4-.45-.59-.7s-.17-.23-.26-.35c-.2-.39-.41-.77-.59-1.18a1.64 1.64 0 0 0-.12-.22 6.35 6.35 0 0 1-.32-1.19c-.11-.45-.18-.91-.27-1.37a27.1 27.1 0 0 1 0-2.85v-.36c.05-.56 0-.48 0 .23a1.83 1.83 0 0 1 .05-.59 43.57 43.57 0 0 0 2.05-6.09 5.26 5.26 0 0 0-2.35-5.8c-1.88-1-4-.08-5.06 2a25.35 25.35 0 0 0-2.23 6.47c-.11.23-.2.47-.31.69-.51 1.08-1.07 2.12-1.67 3.12l-.13.2-.27.43c-.36.52-.73 1-1.11 1.54a32.94 32.94 0 0 1-2.2 2.61c-.34.38-.69.74-1 1.09l-.3.27.27-.24c-.25.22-.49.45-.75.66a27.53 27.53 0 0 1-2.6 2 11.83 11.83 0 0 1-2.51 1.56 1.29 1.29 0 0 0-.26.08c-.24.12-.48.22-.72.33-.49.2-1 .4-1.46.57-.2.07-.4.1-.59.17a16.63 16.63 0 0 0 .41-12.44 12.6 12.6 0 0 0-9.35-7.66 15.94 15.94 0 0 0-4.41-.11q1.22-18.85 2.42-37.69c3-2.42 5.93-4.87 8.91-7.26a7.15 7.15 0 0 0 3.78 3.03c4.6 1 8.44-2.44 12.16-5.18l10.12-7.44c3.27-2.41 6.49-5 9.85-7.19.62-.41 1.26-.77 1.91-1.13l.52-.24c.41-.17.82-.33 1.24-.47s.63-.17.94-.25h1.21l.41.12.27.13.23.17.13.18-.12-.18.13.1a.52.52 0 0 1 .13.13 2.24 2.24 0 0 1 .16.24s0 .09.07.14h.06-.06l.24.46.27.64c.05.12.14.39.14.39.06.2.12.4.14.48.24.85.45 1.72.68 2.58a24.91 24.91 0 0 0 2.1 5.82 17.62 17.62 0 0 0 4.24 5.16 13.05 13.05 0 0 0 10.23 2.74 20.14 20.14 0 0 1 2.33-.19h.44l.4.09h.08l.1.07.15.19.24.51c0 .11.07.22.1.32.9 3.36 1 7 2.75 10 3.94 6.78 12.08 7.62 17.68 3.39 6.05-4.57 8.34-13.39 9.46-21.44A98.64 98.64 0 0 1 217.11 41c.14-.5.3-1 .45-1.48.07-.2.15-.41.23-.62.17-.42.35-.84.54-1.25a2.1 2.1 0 0 1 .13-.26l.52.3a10 10 0 0 0 6.17 1.52 54.53 54.53 0 0 0 5.62-1.21l.61-.05h.61c-.07 0 0-.08.22 0h.06a.81.81 0 0 0 .22 0 1.28 1.28 0 0 1-.17 0l.41.13c.19.06.38.15.57.22 1.44.91 2.8 2 4.24 2.91 7.13 4.53 15.21 2.82 22.4-.5 1.87-.86 3.7-1.81 5.53-2.77a3.36 3.36 0 0 0 1.18-1.28c16.12 11.99 30.48 26.17 44.35 41.77 1 1.09 1.93 2.2 2.89 3.3Q299.88 89 285.7 96Zm41.67-.16Zm33.35-9.43c-.06-.09-.06-.09 0 .01Zm0 .07-.1-.08Zm0 .05v.06a.16.16 0 0 1 0-.07l-.09-.07s.14.08.15.09Zm.12.16.05.06s.03-.03.01-.05Zm.09 0h.07c.11.04.09.04 0 0Zm18.59 3.51a.54.54 0 0 1-.11 0 .73.73 0 0 0 .12 0Zm7.77-5.28h-.06c-.19 0-.16 0 0 0-.32.14-.33-.09.13-.07Zm.34.09a.5.5 0 0 1 .11.1 1.5 1.5 0 0 0-.05-.11Zm11.15-5.44c-.08.07-.14.11-.09.08l-.25.17a8.35 8.35 0 0 1-1 .3 2.7 2.7 0 0 1-.35.07c.25 0 .54-.06 0 0a.53.53 0 0 0-.19 0h.14a30.28 30.28 0 0 0-3.26.52 10.88 10.88 0 0 0-4.8 2.76 15.14 15.14 0 0 1-1.58 1.32l.14.12h-.12.11l-.12-.09h-.06c-.17-.07-.16-.14 0-.1a2.11 2.11 0 0 1-.27-.18c-.12-.09-.23-.19-.34-.29l-.61-.59c-1.62-1.54-3.21-2.83-5.3-3.17s-4.19.38-6.2 1.46c-.65.35-1.28.74-1.92 1.11l-.39.22a10.33 10.33 0 0 1-1.21.45h-.57a.61.61 0 0 1 .14.07.65.65 0 0 0-.21-.07c-.25 0-.32-.07-.3-.1a3.83 3.83 0 0 1-.45-.1l-.26-.11-.15-.09c-.21-.14-.43-.33-.64-.49s-.21-.24-.31-.37c0 .06 0 .06-.12-.16a1.53 1.53 0 0 0-.15-.2s.05 0 .07.06c-.2-.38-.41-.74-.62-1.1-1.56-2.56-3.65-4.12-6.32-4.2a11.23 11.23 0 0 0-5.86 1.93c-3.41 2-6.69 4.41-10 6.62l-10.11 6.71-2.86 1.87c-.38.26-.76.51-1.16.75-.2.12-.45.23-.7.36 0 0 0 .08-.18.14l-.1.05a.86.86 0 0 0-.16.1l.08-.07-.54.23a9.89 9.89 0 0 1-1.2.39h-.94l-.16-.23c0-.19-.09-.38-.12-.51s0-.34 0-.5v-2.12.3-.06c.08-.55.17-1.09.27-1.63a6 6 0 0 0-1.48-5.3c5.2-2.76 10.42-5.46 15.58-8.3q7.35-4 14.65-8.16c4.6-2.61 9.27-5.54 13.84-7.57a31.87 31.87 0 0 1 7.36-2.41c-.19 0-.55.06.31 0l.93-.09c.54 0 1.08-.06 1.62 0a10.17 10.17 0 0 1 3.3.46c.55.16 1.09.35 1.62.56l.53.23.37.18.34.19.66.4c.48.3.95.63 1.42 1s.72.55 1.07.85q.3.24.6.51l.32.29.32.3.42.43c.48.48.95 1 1.41 1.48 2.85 3.13 5.44 6.6 8.27 9.76a4.81 4.81 0 0 0-2.1 3.56Zm-43.76 54.75ZM474 124.45Zm-61.3 14.78h-.1.09Zm.05 0Zm0 0Zm0 0-.15-.41c.02.12.09.25.14.39Z" fill="#f5ac3a" data-color="1"/>
        <path d="M15.05 124.78c.35.79.18.28 0 0Z" fill="#f5ac3a" data-color="1"/>
    </g>
</svg>
