<?xml version="1.0" encoding="UTF-8"?>
<svg data-bbox="0.017 0.032 423.769 294.975" viewBox="0 0 423.85 295.04" xmlns="http://www.w3.org/2000/svg" data-type="color">
    <g>
        <path d="M113.53 231a9.83 9.83 0 0 0 7.72-6.7 27.29 27.29 0 0 0 .88-5.4c.21-1.83.41-3.66.62-5.49q1.27-11.1 2.54-22.22c.27-2.34-.35-4.64-2.48-5.94-1.56-1-3.53-1.16-5.28-1.52l-10.83-2.26c-7.25-1.51-14.49-3.09-21.76-4.51s-14.73-2.56-22.17-2.07a53.53 53.53 0 0 0-5.91.71 2.68 2.68 0 0 0-1.57 1 3.65 3.65 0 0 0-1.1-.36c-1.48-.19-3.42.75-3.66 2.39 0 .3-.07.59-.11.89v.08a199.68 199.68 0 0 0-2 21.55c-.12 3.72-.14 7.43 0 11.14q.06 2.72.21 5.43a21.55 21.55 0 0 0 .6 5.56 6.68 6.68 0 0 0 4.69 4.37 26.15 26.15 0 0 0 5.38.58l11 .7 22.33 1.4L104 231a38.79 38.79 0 0 0 9.53 0Zm5.13-40.23c0 .32-.06.65-.1 1-.14 1.22-.27 2.43-.41 3.64 0-1 0-2-.07-3.05a3.54 3.54 0 0 0-.64-1.84Zm-5.73-1.21a3.08 3.08 0 0 0-.53.49 4.81 4.81 0 0 0-1-.8Zm-56.64 31.79h-.12a6.29 6.29 0 0 1-.62-.17 3.51 3.51 0 0 0-.11-.51.54.54 0 0 1 0 .1v-.6c0-.36 0-.72-.07-1.08s0-.84-.07-1.25a3.32 3.32 0 0 0 1.87-2.36c0 .91 0 1.82.05 2.73a3.72 3.72 0 0 0 .27 1.14 3.37 3.37 0 0 0-1.2 2Zm.9-36.67c0-.91 0-1.82-.06-2.72a4.29 4.29 0 0 0 1.19 0c-.4.92-.76 1.82-1.13 2.72Zm9.51-2.49-.14.07.16-.1Zm.07 0a.23.23 0 0 0 .06-.07c.17-.28.28-.12-.06.03Zm5.45 5v-.01Zm.06-.09Zm0 0c.1-.18.08-.12 0 0Zm.11-.06-.07.06c.23-.26.2-.2.09-.1Zm3.47-1c0-.3 0-.59-.07-.89a3 3 0 0 0 1 .48l.4.1a3.22 3.22 0 0 0-1.31.27Zm6.79 19.79a64.53 64.53 0 0 0-1.44 6.48 93 93 0 0 0 .36-13.76c.21-.68.42-1.36.66-2l.25-.63c.06.52.12 1 .16 1.55.11 1.2.17 2.42.19 3.63.03 1.47-.08 3.05-.16 4.64Zm6.2 11.81-.8-.08c0-.14.05-.29.07-.43.27-.09.55-.17.82-.27Zm1.3-10c0 .6-.11 1.19-.16 1.79l-.93.36c.09-1 .16-2.06.22-3.09.19-.61.3-1.25.51-1.86s.34-.93.51-1.4q-.01 1.97-.13 4.07Zm7.36 11.11c-.21 0-.27-.05 0 0-.27-.05-.55-.08-.83-.12l-.9-.14c.18-1.52.35-3 .5-4.57.39-.18.78-.33 1.17-.52.16-.08.31-.18.47-.27-.21 1.76-.32 3.63-.39 5.49Zm2-14.25c-.37.26-.75.51-1.13.76.07-.21.11-.42.18-.62.32-.92.67-1.82 1-2.71v2.13c.01.02-.04.16-.07.31Zm-.32-16.1-3.75-.63a3 3 0 0 0 .49-1.64l2.67.56 2.53.53a3.34 3.34 0 0 0-1.96 1.05Zm5.61 30.47c0-.16.08-.31.11-.46-.08.03-.11.18-.13.33Zm1.24-29c-.35-.11-.68-.24-1-.33a2.91 2.91 0 0 0-1.33-1.79l5 1a5.74 5.74 0 0 0-2.71.95Z" fill="#f5ac3a" data-color="1"/>
        <path d="M55.47 220.75c.03.31.18.52 0 0Z" fill="#f5ac3a" data-color="1"/>
        <path d="M349.08 273.4c1.62 0 3.57-1.52 3.33-3.33A209.31 209.31 0 0 1 351 229q.33-5.22.93-10.41a178.093 178.093 0 0 1 .45-3.63c.06-.4.07-.56.11-.84.24-1.67.49-3.34.77-5a205.8 205.8 0 0 1 4.38-20.26c.67-2.53 1.46-5 2.24-7.51 1.24-1.3 2.53-2.55 3.89-3.73 1.7-1.48 1-4.14-.67-5.24l-.17-.11c.51-1.43 1-2.87 1.54-4.29l.29-.06a3.33 3.33 0 0 0 0-6.43 76.6 76.6 0 0 1-10.3-2.49 75.91 75.91 0 0 1-4.86-1.74l-1.16-.47-.58-.25c-.81-.36-1.62-.73-2.42-1.11a78 78 0 0 1-9.25-5.25 64.61 64.61 0 0 1-4.22-3l-.3-.23-.26-.21-1-.79c-.54-.44-1.06-.89-1.59-1.34s-1-1-1.52-1.46c-3.66-3.69-7.14-7.54-10.54-11.47-1-1.28-1.94-2.58-3-4.08-4.59-6.42-8.79-13.12-13.08-19.75l-8.55-13.18c-.95-2.24-2-4.46-3-6.65.72-1.69 1.45-3.39 2.15-5.1s-.72-3.73-2.33-4.1a3.44 3.44 0 0 0-4.1 2.33 3.45 3.45 0 0 0-1.84-.28 3.32 3.32 0 0 0-2.74 2.13 3.29 3.29 0 0 0-1.17 3.29c-2.24 6.51-4.46 13-6.76 19.54-.28.8-.6 1.59-.88 2.39a169.43 169.43 0 0 1-10.34 16c-1.33 1.8-2.07 2.75-3.55 4.57q-2 2.43-4.06 4.77-3.88 4.37-8.14 8.36-2.1 2-4.3 3.85c-.71.61-1.42 1.21-2.15 1.8l-1.21 1-.49.39-.37.28a112.7 112.7 0 0 1-9.53 6.57 102.81 102.81 0 0 1-11.49 6.12l-1.56.69-.38.16-.53.22a88.406 88.406 0 0 1-9.33 3.27 3.37 3.37 0 0 0-2.43 2.73 3.26 3.26 0 0 0 1.59 3.32 26.93 26.93 0 0 0 12.18 2.26c-2.73 12.48-.63 25.48.2 38.12.24 3.53.37 7.08.26 10.63-.05 1.67-.15 3.34-.3 5-.07.75-.15 1.51-.24 2.25 0 .22 0 .43-.08.65v.2c-.06.38-.11.77-.17 1.15a85.1 85.1 0 0 1-5.26 19l-.24.6a.73.73 0 0 0-.07.17s0 0 0 .07c-.19.45-.39.89-.59 1.33-.35.79-.72 1.57-1.1 2.35q-1.25 2.53-2.65 5a84.54 84.54 0 0 1-6.2 9.27c-1 1.31-.32 3.39.86 4.3a3.37 3.37 0 0 0 4.37-.26 82.58 82.58 0 0 0 23.43-33.54c5.46-14.36 6.22-29.92 4.19-45q-.83-6.07-2.12-12.06-.65-2.92-1.38-5.83c-.2-.8-.42-1.59-.6-2.4-.08-.37-.15-.74-.22-1.11v-.65a10.1 10.1 0 0 1 0-1.1v-.42c.08-.23.14-.47.2-.7a.25.25 0 0 1 0-.07 1.64 1.64 0 0 1 .14-.22l.3-.3.11-.06.53-.29.18-.09c.75-.31 1.52-.55 2.27-.84a55.48 55.48 0 0 0 9.16-4.48c11.88-7.29 20.81-18.54 27.26-30.74a183.18 183.18 0 0 0 10-23.25c.39-.68.81-1.36 1.19-2 2.14-3.83 4.13-7.73 6-11.68 1.38 2.47 2.86 4.89 4.32 7.31l1.11 2.83c3 7.79 5.89 15.63 9.43 23.19a84 84 0 0 0 12.95 20.36A54.15 54.15 0 0 0 334.19 166a52.11 52.11 0 0 0 12.61 3c2.67 2 5.4 3.95 8.15 5.85-.37 1.09-.67 2.19-1 3.27-8.18 9.15-13.48 20.61-17 32.33a188.47 188.47 0 0 0-4.89 21.38c-1.5 8.45-3.35 17.41-1.13 25.91 2.14 8.15 9.2 15.75 18.15 15.66ZM223 233.63c-.47 1.55-1 3.1-1.54 4.62q-.42 1.16-.87 2.28l-.32.77-.36.83c.41-1.62.77-3.25 1.08-4.88a90.86 90.86 0 0 0 1.49-20.82c-.3-7.27-1.22-14.5-1.62-21.76a88.56 88.56 0 0 1 0-11.86c.08-1 .18-2 .31-3v-.06c0-.28.08-.56.13-.85s.07-.42.11-.64c.89 3.68 1.81 7.33 2.53 11.05.77 4 1.28 7.34 1.65 11.13a107.75 107.75 0 0 1 .53 11.91 76 76 0 0 1-3.12 21.28Zm33-92.94c-.45.66-.91 1.31-1.38 2l-.72 1-.36.47-.09.12a80.11 80.11 0 0 1-6.49 7.28 67.217 67.217 0 0 1-3.64 3.32l-.92.76-.47.37-.24.19-.26.2-.47.35-1.09.79a53.45 53.45 0 0 1-8.46 4.89l-.95.42-.55.23c-.8.31-1.6.59-2.4.89a10.65 10.65 0 0 0-5.32 3.65c-.1.13-.16.28-.25.42a3.47 3.47 0 0 0-2-.75 115.28 115.28 0 0 0 27.86-18.52c2.9-2.58 5.66-5.32 8.31-8.15ZM334.33 159l-1.51-.68a49.29 49.29 0 0 1-5.6-3.11c-.86-.55-1.69-1.13-2.51-1.73l-.47-.36-.27-.2-1.27-1.06a51.39 51.39 0 0 1-4.15-3.93 58.08 58.08 0 0 1-3.83-4.46l-.49-.65c-.27-.36-.53-.72-.79-1.09a81.43 81.43 0 0 1-1.66-2.46 93 93 0 0 1-5.36-9.55c2.11 2.63 4.24 5.23 6.46 7.76a91.9 91.9 0 0 0 9.12 10c.66.62 1.37 1.2 2.06 1.8q5.15 5.1 10.61 9.86Zm2.47 94.25a.58.58 0 0 0 0-.1c-.06-.57-.11-1.15-.14-1.73a43.1 43.1 0 0 1 .12-6.12c.08-1 .2-2 .32-3a.58.58 0 0 0 0-.1.13.13 0 0 0 0-.07c0-.29.09-.58.13-.87.08-.59.17-1.17.27-1.75.27-1.71.56-3.43.85-5.14a200.39 200.39 0 0 1 4.56-20.55c.95-3.3 2-6.57 3.25-9.77.31-.82.64-1.63 1-2.44.05-.12.26-.59 0 0 .07-.18.15-.36.23-.54.19-.44.39-.88.59-1.32s.44-.89.65-1.34c-.47 2.21-.95 4.42-1.35 6.65A215.64 215.64 0 0 0 344 246.8c.13 6.42.63 12.82 1.36 19.2a14.65 14.65 0 0 1-1.61-.86c-.34-.21-.66-.45-1-.68l-.07-.07-.51-.44a19.62 19.62 0 0 1-1.61-1.68l-.22-.26c.07.09.1.12-.05-.07l-.1-.12.08.09-.07-.08c-.26-.38-.53-.75-.77-1.14a19.73 19.73 0 0 1-1.13-2.06l-.22-.49v-.11c-.15-.43-.31-.86-.44-1.29a25.42 25.42 0 0 1-.65-2.71c-.1-.26-.15-.54-.19-.83Z" fill="#f5ac3a" data-color="1"/>
        <path d="M235.38 30a3.41 3.41 0 0 0-4.55 1.2q-13 18.14-26.46 35.93-3.37 4.45-6.76 8.87l-1.56 2-.82 1.07-.49.63-.07.09-.07.09q-1.72 2.23-3.46 4.46-6.85 8.81-13.82 17.52-7.81 9.75-15.77 19.4a3.63 3.63 0 0 0-1 2.36 3.39 3.39 0 0 0 1 2.35c1.23 1.13 3.53 1.44 4.72 0q14.28-17.31 28.1-35t27.35-36q7.5-10.17 14.86-20.44a3.34 3.34 0 0 0-1.2-4.53Z" fill="#f5ac3a" data-color="1"/>
        <path d="M191.3 74c1.32-1.77 2.66-3.54 4-5.3.68-.9 1.37-1.79 2-2.68l.48-.62.09-.11 1-1.34q4.08-5.23 8.26-10.38 8.37-10.29 17.28-20.12c.73-.8 1.46-1.6 2.2-2.39A3.34 3.34 0 1 0 222 26.3c-6 6.49-11.79 13.18-17.42 20q-8.66 10.53-16.85 21.42c-5.34 7.06-10.55 14.22-15.71 21.42s-10.28 14.52-15.38 21.86l-16 22.86-2.06 2.95a3.35 3.35 0 0 0 1.2 4.56 3.42 3.42 0 0 0 4.56-1.2l16.1-23q7.58-10.83 15.21-21.61C180.8 88.25 186 81.08 191.3 74Z" fill="#f5ac3a" data-color="1"/>
        <path d="M169.64 80.56q8.84-11.69 17.59-23.45t17.41-23.58l2.17-3a3.35 3.35 0 0 0-1.19-4.53 3.42 3.42 0 0 0-4.56 1.2q-8.37 11.44-16.82 22.8t-17 22.7q-8.53 11.33-17.17 22.57-2.15 2.82-4.32 5.62l-2.16 2.81-1.08 1.41-.08.1-.07.08a1.47 1.47 0 0 1-.1.13l-.48.62q-4.33 5.61-8.7 11.2t-8.73 11.17L120 134c-.33.41-.64.85-1 1.24a3.76 3.76 0 0 1-.34.35l-.16.08a3.27 3.27 0 0 0-2.84-.59 3.42 3.42 0 0 0-2.33 4.1c.63 2.86 3.61 4 6.23 3.31a9.51 9.51 0 0 0 5-3.58q4.53-5.72 9-11.47 9.21-11.77 18.32-23.61 8.91-11.59 17.76-23.27Z" fill="#f5ac3a" data-color="1"/>
        <path d="M142.42 105.27c-.06.06-.13.17-.15.19Z" fill="#f5ac3a" data-color="1"/>
        <path d="m176.5 53.7 18-22.57a3.61 3.61 0 0 0 1-2.35 3.41 3.41 0 0 0-1-2.36c-1.21-1.11-3.55-1.46-4.71 0l-32.17 40.36q-16 20.09-32 40.15l-18 22.57a3.63 3.63 0 0 0-1 2.35 3.36 3.36 0 0 0 1 2.36c1.2 1.11 3.55 1.46 4.71 0q16.14-20.21 32.21-40.36Z" fill="#f5ac3a" data-color="1"/>
        <path d="M127.25 92.06q8.64-10.22 17.51-20.23t18-19.8q9.1-9.81 18.44-19.38c.76-.79 1.53-1.57 2.29-2.35a3.33 3.33 0 0 0-4.71-4.71q-9.36 9.56-18.5 19.32t-18.14 19.86q-8.89 10-17.57 20.17t-17.17 20.69q-8.61 10.62-17 21.44c-.69.9-1.39 1.8-2.08 2.71a3.27 3.27 0 0 0-.33 2.56 3.34 3.34 0 0 0 4.09 2.33 3.89 3.89 0 0 0 2-1.53l1-1.25.48-.62.24-.31c0-.06.39-.52.14-.18l.38-.5.48-.62 1-1.35q2.05-2.64 4.13-5.26 4.13-5.26 8.33-10.47 8.4-10.35 16.99-20.52Z" fill="#f5ac3a" data-color="1"/>
        <path d="M145.38 53.93c6-5.54 12.24-10.9 18.69-16a3.35 3.35 0 0 0 1-2.36 3.42 3.42 0 0 0-1-2.36 3.37 3.37 0 0 0-2.36-1 3.94 3.94 0 0 0-2.36 1 394.8 394.8 0 0 0-32.69 29.32c-10.75 10.57-21.33 21.31-32 32L76.31 113a3.33 3.33 0 1 0 4.69 4.67l32.83-32.89c10.41-10.41 20.72-20.9 31.55-30.85Z" fill="#f5ac3a" data-color="1"/>
        <path d="M422.52 240.8a3.31 3.31 0 0 0-4.37.26 136.06 136.06 0 0 0-9.87 11.84c0-1.44-.07-2.88 0-4.32.1-3.73.59-7.45.53-11.19A25.42 25.42 0 0 0 408 231a16.48 16.48 0 0 0-3.19-6.09 3.26 3.26 0 0 0-3.24-.86 3.41 3.41 0 0 0-2.33 2.33 194.66 194.66 0 0 0-5.24 21.24q-.36-18.84-.7-37.7-.33-17.31-.65-34.62c-.2-10.69-.08-21.47-1.37-32.11C390 133 387.36 123 382 114.18c-4.73-7.82-11-14.55-17.59-20.86S351.06 81.1 344.9 74.46c-7.14-7.7-12.9-16.46-19.12-24.92a226.19 226.19 0 0 0-42.57-44.29C281.6 4 280 2.74 278.3 1.51v-.06c-.06-.07-.17-.1-.24-.16-.36-.27-.71-.55-1.07-.81a3.24 3.24 0 0 0-4.16.75L185.13 11c-7.33.81-14.71 1.43-22 2.64a56.9 56.9 0 0 0-19.81 7.05c-6 3.53-11.59 7.75-17.2 11.84q-8.67 6.3-17.12 12.91c-22.46 17.42-43.87 36.1-65 55.09q-8 7.17-15.89 14.38c-4.9 4.45-10.4 8.69-14.25 14.13-4.16 5.88-4.13 12.79-3.56 19.67q.95 11.11 1.7 22.29 2.83 44.78 2.12 89.68c0 2.35-.09 4.7-.14 7.05L12 264.94q-2.69-6.65-5.39-13.28a3.62 3.62 0 0 0-1.53-2 3.39 3.39 0 0 0-2.57-.34c-1.56.51-3 2.37-2.32 4.1s1.39 3.79 2 5.72a2.63 2.63 0 0 0-.5 1.67 48.37 48.37 0 0 0 3.24 13.89 3.38 3.38 0 0 0 3.65 2.39 3.45 3.45 0 0 0 1.84-.91 3.5 3.5 0 0 0 1.64.26c1.3 1.61 3 2.75 5.25 2.16a7.87 7.87 0 0 0 3.54-2.6 21.64 21.64 0 0 0 .85 2.14 3.29 3.29 0 0 0 2.88 1.65 3.47 3.47 0 0 0 2.87-1.65l.61-.83a3.2 3.2 0 0 0 1.35 1.08 3.43 3.43 0 0 0 3.64-.69l4.21-3.4a10 10 0 0 0 1.64 1.55 9.67 9.67 0 0 0 6.1 1.73 15.73 15.73 0 0 0 4.32-.94c.15.2.28.4.45.59a9.77 9.77 0 0 0 4 2.49c3.19 1.1 6.7.2 9.8-.74a3.33 3.33 0 1 0-1.77-6.42c-1.18.35-2.35.65-3.54.91h-1.91l-.24-.05-.55-.17-.13-.06-.51-.3h-.07l-.32-.33a1.74 1.74 0 0 1-.11-.18v-.05l-.06-.21c-.06-.26-.05-.18 0 .07a3.37 3.37 0 0 0-1.6-2.6 3.51 3.51 0 0 0-3.36 0c-.3.14-.6.29-.91.4l-.16.06c-.55.22-1.1.42-1.67.59l-.72.19-.41.09-.69.07h-.69c-.18 0-.37-.07-.55-.12l-.4-.13-.14-.08c-.13-.07-.28-.19-.42-.27l-.05-.05a1.14 1.14 0 0 1-.11-.11 3.14 3.14 0 0 1-.25-.44 5.14 5.14 0 0 0-3-2.9c-2-.66-3.68.45-5.14 1.62l-.11.09a1.62 1.62 0 0 1 0-.22 3.38 3.38 0 0 0-2.45-3.21 3.52 3.52 0 0 0-3.76 1.53l-1.32 1.8v-.81A3.32 3.32 0 0 0 24 264.4a3.43 3.43 0 0 0-3.33 1q.81-41.15-1.29-82.28-.58-11.13-1.39-22.25-.39-5.43-.84-10.85a61.55 61.55 0 0 1-.4-10.02c0-.19.07-.36.09-.55l56.1 9 29.4 4.72c10 1.61 20 3.39 30 4.65a130.93 130.93 0 0 0 16.44 1.09 122.86 122.86 0 0 0 17-1.28 2.28 2.28 0 0 0 .54-.18c-1.86 7.95-2 16.27-2.16 24.4q-.26 16.39-.5 32.8l-.93 60.1c-1.29-1.11-3.47-1.44-4.71 0a10.35 10.35 0 0 0-2.45 7.65 11.86 11.86 0 0 0-4.45-.77 16.24 16.24 0 0 0-4.7 1.14 25.07 25.07 0 0 1-3.69 1.26h.27-.41.2-.49l.16.05a.86.86 0 0 0-.23-.05l.15.1a.6.6 0 0 0-.21-.11h-.11v-.05h-.07l-.15-.16c-.16-.29-.33-.56-.49-.86-.33-.65-.63-1.33-1-2a8.74 8.74 0 0 0-4.68-3.84c-3.43-1.21-7.22-.14-10.29 1.5-1.65.88-3.2 1.95-4.88 2.78a3.24 3.24 0 0 1-.63.29l.26-.11-.33.12a7.44 7.44 0 0 1-1.14.33h-.84l-.17-.05c-.28-.57-.55-1.15-.84-1.72a6 6 0 0 0-2.13-2.43 4.28 4.28 0 0 0-4.33 0 3.38 3.38 0 0 0-1.2 4.56 3.55 3.55 0 0 0 2 1.51c.15.3.3.59.44.89a6.74 6.74 0 0 0 4.09 3.54c3.37 1.1 6.91-.45 9.79-2.12 1.39-.8 2.75-1.63 4.18-2.35h-.12a1.19 1.19 0 0 0 .22-.08h.07l.16-.06c.31-.11.63-.2 1-.28a7.1 7.1 0 0 0 .8-.17h.57a2.26 2.26 0 0 1 .45 0s.06-.05.2 0h.09a1.85 1.85 0 0 0 .23 0H133l.27.06s.12.07.36.12a.7.7 0 0 0-.19-.06h.14l.16.05h-.12l.31.18.21.21a.32.32 0 0 1 0-.09.52.52 0 0 0 .07.12l.09.09c.17.17.09.17 0 .09.14.21.31.45.36.55.33.62.61 1.26.95 1.88a8 8 0 0 0 4.25 3.79 8.21 8.21 0 0 0 4.66.14 23 23 0 0 0 3.51-1.18c.6-.24 1.2-.46 1.82-.65.3-.09.6-.18.91-.25l.35-.07h.81-.15.47c.81.19 1.58.49 2.38.73a8.39 8.39 0 0 0 4.65.15 9.75 9.75 0 0 0 4 1.81 3.14 3.14 0 0 0 2.36 1 3.47 3.47 0 0 0 2.51-1.24h.07c.13 0 .23-.1.35-.14a23.53 23.53 0 0 0 6.8.78 5.75 5.75 0 0 0 1.36 1.75 7.14 7.14 0 0 0 6.2 1.44 3.12 3.12 0 0 0 2.08.11 4.66 4.66 0 0 0 3.3-3.83l.24-.42a23.33 23.33 0 0 0 1.64-2.87 3.33 3.33 0 1 0-5.75-3.36c-.08.14-.17.28-.25.43-.13 0-.24-.1-.37-.13a13 13 0 0 0-3.46-.1 8.33 8.33 0 0 0-3.31-5.15 5.49 5.49 0 0 0-7 .75 7.42 7.42 0 0 0-.65.83q.45-28.69.89-57.39.24-16.26.5-32.52c.15-10.08-.31-20.48 1.74-30.39s7.27-18.27 12.31-26.73c5.13-8.65 10.51-17.15 16.07-25.53 11.12-16.77 23-33 35.22-49s24.86-31.67 37.52-47.32l2.8-3.46a217.76 217.76 0 0 1 40 39.55c6.46 8.32 12.17 17.19 18.82 25.36 5.87 7.22 12.69 13.54 19.48 19.88 6.36 5.95 12.85 12 18.05 19a61.43 61.43 0 0 1 11 25.5c1.9 10 1.91 20.26 2.1 30.4l.63 34.07q.63 34.2 1.27 68.41v1.68a3.12 3.12 0 0 0-1.75-.82 3.4 3.4 0 0 0-3.32 1.59l-.31.42c-.19.24-.38.47-.58.7-.45.52-.92 1-1.42 1.49s-1 .94-1.58 1.39l.12-.08-.15.1c-.2.16-.15.12-.06 0l-.22.16-.89.62q-.87.56-1.77 1.05l-.87.44-.34.16c-1.36.45-2.73.84-4.08 1.31l-.09.06c-2.18.5-4.34 1-6.48 1.72-1.8.56-3.57 1.19-5.33 1.86a3.28 3.28 0 0 0-1.64-2.83 3.36 3.36 0 0 0-3.37 0l-7.66 4.45a3.29 3.29 0 0 0-.89-2.81 3.4 3.4 0 0 0-4.71 0l-3.29 2.86a3.33 3.33 0 0 0-.52 4 3.75 3.75 0 0 0 2.68 1.69 9.94 9.94 0 0 0 .72 1.56 3.39 3.39 0 0 0 4.56 1.19l6.76-3.89a3.58 3.58 0 0 0 1.57 2 3.46 3.46 0 0 0 3.36 0l1-.46a7.41 7.41 0 0 1 .89-.4l.57-.24 1.16-.46c1.43-.56 2.88-1.09 4.34-1.57a89.24 89.24 0 0 1 8.65-2.38q2.25-.49 4.53-.87c.74-.12 1.48-.24 2.22-.34l.33-.05h.14l1.24-.15a89 89 0 0 1 9.08-.53 86.15 86.15 0 0 1 9.09.41c.75.07 1.49.15 2.23.25h.49a14.84 14.84 0 0 0 1.74.24c2.63.12 4-3 4-5.24a6.64 6.64 0 0 0-.42-2.17 6.43 6.43 0 0 0 1.34-1.72c.16-.33.23-.68.36-1a89.21 89.21 0 0 0 13-19.91 3.41 3.41 0 0 0-.52-4 3.2 3.2 0 0 0-2.6-.87c1.43-2 2.84-4.08 4.23-6.14a3.31 3.31 0 0 0-.81-4.28ZM54.33 272.41a.44.44 0 0 0 0-.1s-.01.05 0 .1Zm0-.22v.13a.8.8 0 0 0 0-.15Zm56.2 10.69a2.33 2.33 0 0 0 .17.26l.06.12a1.46 1.46 0 0 1-.26-.38Zm51.66-1.88a.59.59 0 0 1 0-.14v-.14c.08-.17.1-.14 0 .28Zm73.18-231.67c-12.49 16.14-24.67 32.53-36.14 49.42q-8.61 12.69-16.64 25.78c-5.27 8.62-10.94 17.35-14.45 26.87-.16.42-.27.85-.41 1.27a3 3 0 0 0-1.1-1.13 4 4 0 0 0-2.57-.33l-.43.06-.73.09c-.58.08-1.17.14-1.75.21-1.27.14-2.54.26-3.82.35-2.44.19-4.9.3-7.35.33a121.77 121.77 0 0 1-14.41-.71c-1.17-.13-2.34-.26-3.5-.41l-.88-.12h-.28l-2-.29c-2.43-.35-4.86-.73-7.28-1.12l-14.51-2.34-58.79-9.45-5.3-.85q8.41-8.58 16.93-17.06 10.36-10.26 20.9-20.33t21.23-20q10.71-9.9 21.57-19.62t21.87-19.25c.9-.79 1.81-1.57 2.72-2.35a3.35 3.35 0 0 0 0-4.71 3.41 3.41 0 0 0-4.71 0q-11.06 9.51-21.95 19.2T100 72.41q-10.74 9.87-21.3 19.93t-20.93 20.29q-10.38 10.25-20.59 20.65l-2.29 2.34-15.63-2.51a40.71 40.71 0 0 1 6.74-7.22q7.83-7.12 15.68-14.23C62.31 93 83.2 74.43 105 57c10.86-8.68 22-17.07 33.33-25.06 5.43-3.81 11-7.63 17.34-9.71s13.24-2.81 20-3.55l88.01-9.78 4.25-.47C257 22 246 35.55 235.37 49.33Zm165.76 182.19v.06a.43.43 0 0 1-.14-.3 1.78 1.78 0 0 0 .14.24Zm.14 49.26Zm.08.28a.32.32 0 0 1 0-.09v.09Zm0 0v.01Zm-1.57-15.21c-.65.8-1.3 1.61-1.95 2.4q.24-3 .5-6.09c.07-.55.11-1.1.18-1.65 0-.27.07-.55.1-.82 0-.13 0-.26.05-.39.1-.71.2-1.41.31-2.11.2-1.36.42-2.72.65-4.07.66-3.82 1.47-7.62 2.35-11.39-.1 1.7-.25 3.4-.33 5.09a91.14 91.14 0 0 0 .23 12c.09.95.24 1.91.35 2.86-.13.21-.27.4-.4.61-.71 1.19-1.36 2.39-2.04 3.57Zm3.18 8.2.04-.05v.05Zm.48-1.5v.16a.41.41 0 0 0 0-.11c-.37.42-.72.84-1.09 1.24-.15 0-.29-.1-.45-.13l.23-.28a3.25 3.25 0 0 0 1.31-.9v-.23.21Z" fill="#f5ac3a" data-color="1"/>
        <path d="m378.78 277.09-.1.08.07-.06Z" fill="#f5ac3a" data-color="1"/>
        <path d="M402.15 285.94c-.24 0-.51.05.14 0h-.14Z" fill="#f5ac3a" data-color="1"/>
        <path d="M132.65 283.25a1 1 0 0 0 .36 0h-.07Z" fill="#f5ac3a" data-color="1"/>
        <path d="M134.16 283.85a.54.54 0 0 0 .13.21l-.09-.18Z" fill="#f5ac3a" data-color="1"/>
        <path d="M141.93 284h.25-.18a.56.56 0 0 0-.17-.09l.06.06Z" fill="#f5ac3a" data-color="1"/>
        <path d="M129.54 283.85c.42-.09.38-.16.18-.09h-.08Z" fill="#f5ac3a" data-color="1"/>
    </g>
</svg>
