<?xml version="1.0" encoding="UTF-8"?>
<svg data-bbox="-0.004 0 681.225 815.335" viewBox="0 0 681.26 815.34" xmlns="http://www.w3.org/2000/svg" data-type="color">
    <g>
        <path d="M3.22 782.78c.55 9.13 1.08 19.65 1.17 23.38.18 6.88.87 8.3 4.34 8.94 2.82.53 44.52.08 49.84-.53 2.49-.28 526.65-1.71 546.07-1.17 15.93.44 31.89.84 47.82.49 5.4-.12 10.82-.29 16.18-.92a32.18 32.18 0 0 0 4.8-.75c4.68-1.3 4.95-6.48 4.92-10.54v-73.75l.06-29.13q0-16.25.08-32.49 0-17.7.1-35.4 0-18.92.1-37.83.06-19.92.13-39.83.06-20.67.13-41.35l.15-42.43.15-43.05.15-43.2.16-42.91q.07-21.07.16-42.15.07-20.46.16-40.94l.16-39.27.15-37.14.14-34.56.14-31.52q.06-14 .13-28 0-12 .11-24.06 0-9.82.1-19.66 0-7.38.08-14.78 0-4.73.06-9.46V15.1c.62-13.12 1.62-12.37-16.54-12.45C656 2.55 27 0 17.35 0H6.75C2.89 0-.13 1.69 0 3.77l.26 3.77C1 18.16 2 762.21 3.22 782.78zM7.7 118.93a3.69 3.69 0 0 1 .3-1.13c1.08-2.2 4.59-1.85 6.65-1.87l13.49-.11c1.52 0 3.16 0 4.37.93 1.67 1.26 1.75 3.42 1.74 5.32a62.15 62.15 0 0 0 .49 6.67c.21 2.17-.13 4.65-1.88 5.94a7.73 7.73 0 0 1-4.54 1l-14.51.23a7.34 7.34 0 0 1-4.5-.9c-3.44-2.49-1.79-11-1.75-14.56a11.42 11.42 0 0 1 .14-1.52zm.53 26.86v-.15c.43-3.61 2.26-4.79 5.9-4.83 5.78-.07 11.59-.29 17.37-.19 3.35 0 3.45 3.2 3.54 5.82l.32 10.29c.07 2.48.54 5.78-1.93 7.28a10.17 10.17 0 0 1-5.16 1c-5.23.08-10.46.2-15.69.24-4.6 0-4.4-4.4-4.49-8a82.41 82.41 0 0 1 .14-11.46zM66.5 729.45c.2 2.62-1.31 4.89-3.37 5.07l-3.73.33c-19.24 1.69-18 6.29-18.41-67.2-.15-26-.61-65.81-1-88.48-.24-13.26-.46-26.53-.17-39.78.18-8.23 1-16.2 1.05-24.44q.06-20.81-.11-41.6c-.08-8.89-.31-17.78-.26-26.67 0-2.78.05-5.56.27-8.33.23-3-.38-7.4 2.24-9.36 1.67-1.24 3.9-1.31 6-1.33l8.71-.08c2.15 0 5.8 0 6.69 2.41 1.44 3.95.4 8.69.34 12.78q-.08 4.17-.12 8.32-.1 9.46-.16 18.94-.12 22.49-.08 45 0 25.15.16 50.31.14 25.34.34 50.68.18 23 .41 46.09.19 18.27.43 36.53c.09 7.35.18 14.69.34 22 0 1.35 0 2.71.13 4.05-.05.01.11 2.13.3 4.76zM20.78 424.54q-3.12.1-6.23.26c-5.69.29-7.18-4.72-7.12-9.6a7.47 7.47 0 0 1 2.57-5.88c1.89-1.45 4.47-1.53 6.86-1.54l41.41-.2a8 8 0 0 1 4.43.85c1.79 1.17 1.74 5.8 1.61 7.73a8 8 0 0 1-2.93 6c-1.93 1.41-4.47 1.53-6.85 1.61-11.22.31-22.53.36-33.75.77zM8.47 733.74a4.57 4.57 0 0 1-.63-1.63 27.07 27.07 0 0 1-.32-5.69s.06-1.45.14-3.24c.22-5.07 7.05-4.34 10.48-4.27l11.9.26c1.76 0 6.19-.83 7.52.65s.83 6.24.78 8.18c0 1.64.21 4.7-.93 6.07s-3.54 1-5.2 1.08l-6.61.2c-4.4.11-8.81.18-13.21 0a5.66 5.66 0 0 1-3.17-.8 3 3 0 0 1-.75-.81zm24.62-174.58c2.07 1.17 2.31 3.7 2.36 5.82.07 3.64 1.63 11.71-2.36 14a8.45 8.45 0 0 1-3.8.84c-5.76.38-11.49.67-17.23.75a3.59 3.59 0 0 1-2.8-.89 4.21 4.21 0 0 1-.76-2.66c-.18-3.56-.48-7.14-.43-10.7 0-2.41-.26-5.21 2.09-6.73a7.74 7.74 0 0 1 4.1-.85l14.6-.28a9.12 9.12 0 0 1 3.86.49zm-10.93-23.44 7.93-.07a7.14 7.14 0 0 1 2.57.29c2.82 1 2.83 7.15 2.86 9.61 0 2.92-.16 6.31-2.52 8-1.53 1.11-3.55 1.18-5.43 1.21l-13.29.24c-2.27 0-5.54.15-6.14-2.39-.71-3-.19-6.88-.27-10 0-1.72 0-3.6 1-5 2-2.6 6.4-1.86 9.25-1.88zm-9.6 49.9a19.13 19.13 0 0 1 4.85-.39l9.05.11c2.23 0 5.09-.41 7.19.54 3.15 1.42 3 5.5 2.86 8.39-.12 3.26 1.17 6.73-2 9-2.16 1.54-5 1.74-7.63 1.88l-10.16.56c-2.55.15-5.35.21-7.37-1.35-2.44-1.9-1.44-8.65-1.57-11.57a10.38 10.38 0 0 1 .44-4.41c.78-1.97 2.49-2.29 4.34-2.76zm-5-66.25c.11-2 .32-3.87.33-5.22 0-2.15-.36-4.55 1-6.41 1.26-1.66 3.65-1.83 5.73-1.86l13.17-.16c2.3 0 4.73 0 6.72 1.13 3.25 1.91 2.9 6.42 2.56 9.64-.41 3.72.79 8.33-2.38 11.2-1.91 1.74-4.71 2-7.28 2.12l-11.35.65c-2.3.13-4.87.18-6.57-1.37-2.13-1.92-2.2-6.02-1.97-9.72zm28.34-24.21a7.48 7.48 0 0 1-.37 3.09c-1.3 2.81-6.15 2.34-8.6 2.43l-13.23.46c-1.67.06-3.58 0-4.69-1.22-.92-1-1-2.54-1-3.92v-10.18c0-2.12.09-4.52 1.66-6 1.41-1.29 3.53-1.35 5.44-1.33l11.86.09c2.24 0 5.49-1 7.55.22s1.7 4.87 1.61 7l-.28 6.49c-.09.83-.01 1.85.01 2.87zm-7.18-41.1c4-.1 7.54-1.1 7.56 3.8 0 3.22.08 6.46 0 9.68-.06 2.17.13 4.54-2 5.81a10.09 10.09 0 0 1-5 1c-4.14.09-8.28.29-12.42.28-2.54 0-6.35.7-8.29-1.38-1.08-1.17-1.24-2.89-1.27-4.48-.08-3.94-.07-8.86 1.33-12.59 1.16-3.07 5.14-2.24 7.9-2.21 4 .05 8 .13 12 .13zM22.2 429.2c2.58-.09 5.17-.18 7.75-.25 1.75-.05 4.25-.14 5.82.83 2.85 1.78 2.56 6.25 2.39 9.14s-.54 6.14-2.84 7.87c-1.61 1.21-3.75 1.33-5.75 1.42l-14.7.59c-2.79.12-5.83.73-6.82-2.54a12.19 12.19 0 0 1-.3-3.77l.25-8.13a8.21 8.21 0 0 1 .35-2.62c1.35-3.73 9.42-2.39 12.49-2.49zM8.68 614.27A4.94 4.94 0 0 1 10 612.4c1.58-1.34 3.85-1.41 5.92-1.4h9.82l4.91.06c1.33 0 3.61-.42 4.84 0 3 1.07 2.52 6.46 2.37 8.91-.11 1.87-.45 3.5-.4 5.38s-.12 4-1.71 5.26c-1.3 1-3.1 1.12-4.77 1.16l-18.45.38c-1.33 0-2.84 0-3.73-1a4.68 4.68 0 0 1-.76-3.26c0-2.59.09-5.19.13-7.78.06-1.85-.26-4.06.51-5.84zm28.65 32.89c-.14 1.14-.31 2.23-.39 3.15-.22 2.61.32 6.18-2.64 7.52a9 9 0 0 1-3.5.53l-16.73.23c-3.36 0-5.77-1.09-5.58-4.62.21-3.74-.16-7.39.64-11.11.32-1.51.49-3.26 1.8-4.08s3.62-.73 5.17-.76l12.76-.25c2.75 0 6.89-.44 8.21 2.67.76 1.8.55 4.38.26 6.72zm-29.79-254v-.3c0-1.75-.72-3.8.59-5.2s3.8-1.46 5.56-1.51c5.54-.18 11.37-.91 16.89-.53 3 .2 7.64-.11 7.64 4v4c0 2.41.94 7.06-1.39 8.6a8.22 8.22 0 0 1-4.34 1l-11.09.35-5.75.18c-2.49.07-5.65.94-7.24-1.51s-.79-6.38-.87-9.1zm21.18-12.28-15.86.73c-1.4.07-3 .06-4-1s-.9-2.41-.84-3.72c.19-4.41-.51-8.95.69-13.28.66-2.42 2.32-2.41 4.75-2.45l15.75-.32a13.28 13.28 0 0 1 5.33.62c3.75 1.55 2.36 4.14 2.4 7.18s1 6.13.27 9.1c-.96 3.94-5.21 2.96-8.49 3.12zm-8.55-24L17 357c-2.29.11-4.75.17-6.67-1.08a7.43 7.43 0 0 1-3-5.84c-.23-4.11-2-15.36 4.49-15.48s13.28 0 19.91 0a11.49 11.49 0 0 1 4.33.56c2.61 1.05 2.45 3.62 2.55 6 .12 2.74-.2 5.24.21 8 .32 2.21.19 4.86-1.65 6.13a6.85 6.85 0 0 1-3.59.84zm12.48-27.91h-.56l-17.09.94c-1.77.1-3.7.15-5.12-.91-1.88-1.39-2.04-4-2.08-6.37-.06-3.85-.11-7.7-.17-11.56a10.26 10.26 0 0 1 .88-5.34c1.82-3.18 7.91-1.82 11-1.92 3.26-.11 6.51-.24 9.77-.23 1.91 0 5.61-.58 7 1.1s.94 6.25 1.07 8.37q.33 4.9.43 9.83c0 1.63 0 3.43-1.12 4.62a5.9 5.9 0 0 1-4.01 1.43zm-13-30.11-4.16.11c-1.73.05-3.58.07-5.05-.84-2.47-1.51-2.89-4.9-2.64-7.78.33-3.81-.11-7.22-.22-11-.07-2.43-.57-6.29 1.8-7.88 1.61-1.08 3.69-1.11 5.63-1.1l17.36.06c1.44 0 3.09.11 4 1.25a4.81 4.81 0 0 1 .66 3c0 5.64.45 11.49 0 17.11-.15 1.77.14 4.34-1.2 5.78-1.2 1.29-3.27.93-4.88 1zm-12.1-45.53c0-2.12 0-4.24-.12-6.35-.11-2.94-.59-6.41 1.83-8.63 1.76-1.6 4.37-1.72 6.74-1.75l16.69-.21c1.42 0 3.08.09 3.86 1.28 1.41 2.17.56 7.14.58 9.6l.1 11.4c0 1.93-.11 4.16-1.66 5.31a6.11 6.11 0 0 1-3.38.85l-17.82 1c-2.1.12-4.56.08-5.85-1.58a6.63 6.63 0 0 1-.94-4.06c-.02-2.28-.02-4.57-.03-6.86zm-.07-34.05c0-2.91-.33-5.79-.29-8.77 0-2.31-.51-4.64 1.29-6.49 1.65-1.69 4.29-1.79 6.65-1.78H29.9c2 0 5.3.15 6.07 2.39a6.54 6.54 0 0 1 .23 2.25c-.07 4.78 0 9.48.23 14.26.11 2.1 1 4.71 0 6.72s-3.25 2-5.24 2.11l-16.13.55c-2.41.08-5.16 0-6.77-1.77s-1.4-4.2-1.06-6.42a21.69 21.69 0 0 0 .25-3.05zm29.19-29.45c-.13 2.28-.66 4.41-2.25 5.4a9.25 9.25 0 0 1-4.61 1l-15.13.49c-1.68 0-3.48.08-4.88-.86-2.13-1.42-2.43-4.43-2.09-7a54.48 54.48 0 0 0 .29-8.93c-.06-2.39.29-5.09 2.34-6.65a8.2 8.2 0 0 1 3.73-1.35c5.71-.9 11.62-.09 17.38-.45 2.93-.18 5.27 2.46 5.21 5.9l-.11 6.22c-.01 1.56.25 3.97.12 6.23zM7.86 670.19a5.65 5.65 0 0 1 .64-3.3c1.44-2.38 5.51-2 8-2.19 3.71-.31 7.45-.45 11.18-.49h4.39a4.58 4.58 0 0 1 4.4 4.8v9.68c0 4.27-2.6 5.33-6.55 5.32l-18.15-.06a6.57 6.57 0 0 1-3-.49c-1.69-.88-1-1.83-.87-3.16.21-1.84.2-3.72.32-5.58a39.57 39.57 0 0 0-.36-4.53zM7.3 696c0-2.32.47-4.52 2.5-5.54a9.12 9.12 0 0 1 4.12-.65q9.65 0 19.28.34c3.31.13 3.34.24 3.41 3.36.07 2.94.12 5.88.17 8.81 0 2-.08 4.26 0 6.34 0 1.65.67 3.44-1.07 4.48a7.34 7.34 0 0 1-3.81.7l-14.72.09c-2 0-3.84.19-5.76.31a4.89 4.89 0 0 1-2.15-.18c-3.47-1.53-1.8-10.05-1.72-12.81 0-1.45-.27-3.38-.25-5.25zm50.11 43.14c3.6-.47 5.84-.32 6.79.47 1.75 1.45 1.87 6.91.16 7.08-.69.06-2.62.22-4.28.34s-13.71.6-26.78 1l-16.76.58c-3.77.13-8.92.74-8.36-4.2.43-3.75 3.81-4.15 7.13-4.3 4.86-.21 9.74-.19 14.61-.21 12.17.01 24.54-.35 27.49-.75zm-48.49 29-.2-7.19a7.15 7.15 0 0 1 6.8-7.31l7.22-.32c7.82-.35 20-.94 27-1.31 15.49-.81 15.43-1.79.88 13.08-14.75 15.08-26.2 27.64-31.52 34.57C11 810.3 10 807.44 8.92 768.1zm59.91 12.41c-.39 29.12 1.7 26.4-20.22 26.4-9.87 0-19.35.28-21.07.63-9 1.8-2.54-7.14 27.91-38.81 14.61-15.22 13.75-15.98 13.38 11.74zm-.15-659.35c.23-13.34.84-26.7.92-40a10.27 10.27 0 0 1 .28-2.77c1.93-6.55 13.58 3.29 15.89 5.18 3 2.44 5.18 5.25 7.87 7.91a27.34 27.34 0 0 1 7.54 13.86c.89 4.27.5 8.78.38 13.1-.09 3-.17 6-.26 8.94l-5.45 455.76.09 10 .35 42.4c0 13.42.41 26.83.57 40.25.15 12.9 2.68 29.18.85 42-.26 1.95-6.47 7.06-8 8.34q-6.57 5.94-13.13 11.83c-1 .91-2.26 1.89-3.59 1.6-1.84-.39-2.33-2.81-2-4.67.77-4.41.16-8.87.19-13.42q0-7.26.08-14.54c0-9.69.11-19.39.06-29.09l-.14-31.39-.18-36.28-.19-40.31q-.09-21.66-.2-43.32l-.21-45.38q-.12-23.24-.22-46.47t-.22-46.6q-.12-22.89-.22-45.78l-.21-44-.19-41.25-.18-37.53-.16-32.86q-.08-13.62-.13-27.23-.06-10.33-.1-20.65l-.06-13.09zM584.33 710a6.32 6.32 0 0 1-1.87 2.3c-1.91 1.41-4.48 1.41-6.85 1.35-27.24 0-54.48-2.17-81.72-1.84l-29.47.34-42.25.5-44.49.52-45.12.54-44.14.51-41.57.49-37.37.44-31.58.38c-8.06.09-45.59.4-53.88-.26-3.86-.31-14 .35-16.86-2.3-4.45-4.18-4.62-16.53-4.73-24.14l-.52-36.07 4.27-424.53q.13-11.64.28-23.26l.58-49.33c.11-8.92.16-17.84.34-26.75.16-7.84 1.14-16.67 1.14-24.75 0-6.46 11.77-5.8 18.25-6 7.9-.26 15.79-.63 23.69-.63h426c3.41 0 7.37-.73 9.58 2.54 1.83 2.7 1.2 7.33 1.19 10.59v8q0 10.45-.05 20.9l-.06 26.81q0 15.93-.07 31.86L587 234.1l-.09 39.46q0 21-.1 42l-.1 43.67q0 22.27-.1 44.53t-.1 44.53l-.16 43.71-.09 42-.09 39.49-.09 36.13-.08 31.91-.07 26.88v18.43c0 6 .33 12.08-.31 18.09a15.36 15.36 0 0 1-1.29 5.07zM176.22 91.33h-64.81a27 27 0 0 1-12-2.49c-4.59-2.22-7.9-6.53-11.39-10a52.75 52.75 0 0 1-5.75-6.48c-1.44-2-2.16-4.63.07-6.46 1.78-1.46 5.68-.66 7.87-.65l35.37.07 45.89.09 45.87.1 35.27.07h14.11l59.28-.69 40.22-1.06 183.92-2.11c13.44-.16 26.86-.39 40.3-.36 2.2 0 6.87-.42 8.76.7 6.64 4-1.09 11.8-3.68 15.62-1.73 2.55-10 10.37-13 11.07-6.06 1.38-15.69.6-21.85.63l-29 .14-37 .19-42.69.22-46.16.23-47.34.24-46.28.24-42.94.22L232 91l-29.48.15-19.35.1zM75.34 805.1c-2.08-2.3-2-1.59-1.84-28.15l.11-15.43c0-3.87 1.11-6.93 2.43-6.85l2.39.15 2.39.16a2.47 2.47 0 0 1 2.36 2.41v2.27c0 2.48-.23 9.05-.44 14.58a194.46 194.46 0 0 0 .4 19.68c.7 8.36.58 9.84-.88 11.31-2.21 2.19-4.86 2.14-6.92-.13zM107 804c-1.66 4.34-8.23 2.93-12.57 3-1.58 0-3.3 0-4.53-1-2.21-1.8-1.63-5.84-2-8.38-.62-3.9.08-8.4.41-12.32.3-3.45 2-3.07 5-3.26 2.84-.17 5.81.27 8.6 0 2-.2 4-.74 5.21 1.53a7.58 7.58 0 0 1 .59 3.85l-.32 14.38a6.77 6.77 0 0 1-.39 2.2zm8 2.43a4.18 4.18 0 0 1-2.25-1.23c-1.11-1.23-1.14-3.07-1.12-4.73l.15-9.46c0-2.41-1-6.51 1.58-7.89a8.45 8.45 0 0 1 4.18-.63c4.33.09 9.5-.59 13.72.37 3.2.72 2.9 4.47 2.8 7.19s-.21 5.69-.32 8.54c-.06 1.66.56 5.48-.5 6.9s-4.66 1-6.31 1.1c-2.93.07-5.87 0-8.8 0a13.09 13.09 0 0 1-3.04-.18zm28.16.23a3.66 3.66 0 0 1-2-.49c-1.19-.78-1.36-2.43-1.4-3.85q-.23-6.82-.44-13.65a8 8 0 0 1 .64-4.22c1.27-2.28 4.36-2.74 7-2.47a62.42 62.42 0 0 0 11.19-.05 5.76 5.76 0 0 1 6.08 5.5l.36 5.9c.15 2.37 1.84 10.72-.36 12.35a5.35 5.35 0 0 1-3.14.71l-17.3.26zm38 .34h-5.48c-3 0-5.64-1.23-5.85-2.74l-.36-2.74a122.82 122.82 0 0 1-.8-12.76c0-1.79-.74-4.52 1.14-5.57a6.39 6.39 0 0 1 3.07-.55l12.26-.18c1.73 0 3.65 0 4.91 1.21s1.41 3 1.53 4.67l.75 10.75c.13 2 .24 4-.69 5.75C190 808 184.23 807 181.23 807zm38.3-1.62c-.06.12-.12.24-.19.36-.9 1.44-2.38.94-3.73.94-2.07 0-4.19.21-6.27.27-2.34.07-10.19 1-11.67-1.24a4.63 4.63 0 0 1-.51-2.45l-.42-16.52a6.56 6.56 0 0 1 .25-2.46c1-2.72 5.08-1.83 7.29-1.84h10.31c3.49 0 4.73 2 4.89 5.32.23 4.87.28 9.75.43 14.62a7 7 0 0 1-.31 2.98zm14.33 1.69h-2.4c-2.26 0-4.64.21-6-2-1.08-1.76-1.12-3.94-1.13-6q0-5-.05-10.07a8.86 8.86 0 0 1 .79-4.54c1.18-2 3.43-1.95 5.48-2.1 3.34-.25 6.73-.22 10.08-.31a5.37 5.37 0 0 1 2.76.43c1.61.9 1.83 3.07 1.87 4.91q.12 6.72.25 13.43c0 1.92-.06 4.14-1.59 5.32a6.2 6.2 0 0 1-3.74.89q-3.11.02-6.25.02zm16.33-2a5.68 5.68 0 0 1-.22-1.37c-.31-4.31-.69-8.63-.69-12.93 0-2.78-.59-6.52 2.25-8.23a9.14 9.14 0 0 1 4.55-.91l11.47-.27a10.31 10.31 0 0 1 4.76.64c2.41 1.16 2.36 4 2.61 6.27.38 3.42.68 6.86.85 10.3.1 2 1 6.07-1.08 7.28a6.51 6.51 0 0 1-3.25.6l-17.65.26c-1.2 0-2.6-.06-3.3-1a2 2 0 0 1-.23-.71zm-96.5-27.44c-4.46 0-8.93 0-13.41.18-13.21.41-26.43.73-39.66.73-3.33.09-6.87.12-9.74-1.56-5-3-3.69-11.42-2.88-16.3 1-5.74 5-4.32 9.52-4.34l20.81-.11L160 756l83.23-.4 38.19-.19 19.09-.09h9.55c3.53 0 4.79.28 5 4 .23 4 1 9.17-.11 13-1 3.33-5.6 3.43-8.58 3.48l-71.58 1.2-41.6.7c-13.19.2-26.29-.15-39.5-.14zm128.1 27.88a7.28 7.28 0 0 1-.2-1.85q-.48-6.4-1-12.81c-.15-2-.75-7.6 1.24-8.79a5.19 5.19 0 0 1 2.65-.51c3.32-.05 7.31-1.12 8.12 3.15.93 4.91.37 10.6.55 15.6a9.44 9.44 0 0 1-.79 5.12c-1.44 2.45-4 1.56-6.31 1.43a9.88 9.88 0 0 1-3.07-.38c-.64-.38-.97-.64-1.12-1.03zm34.78-3.21c-.15 2-.66 3.81-2.64 4.33s-4.73.35-6.89.48-5.33.43-6.75-1.51a7.78 7.78 0 0 1-1.05-4.45q-.24-7.29-.47-14.57c0-1.74-.15-4.55 1.6-5.51s5.88-.47 7.93-.6c2.26-.16 4.82-.2 6.43 1.39 1.26 1.25 1.54 3.16 1.71 4.93a82.71 82.71 0 0 1 .22 12.09c.01.93.06 2.12-.02 3.35zm4.29-5.55.09-31.93c0-1.72-.39-3.45-.12-5.16a4.68 4.68 0 0 1 2.11-3.42 6.69 6.69 0 0 1 3.17-.66c3.65-.15 11.15-1.73 13.07 2.58a11.47 11.47 0 0 1 .7 4.52q.38 18.5.74 37c.07 3.66 0 6.59-4.09 6.89a109.6 109.6 0 0 1-13.07 0c-3-.14-2.62-4-2.61-6.17.07-1.3.07-2.51.08-3.72zm42.61 8.66c-1.26 1-3.08 1-4.71 1l-11-.26c-4.34-.11-3.59-2.69-3.29-6 .18-2 0-4.12 0-6.2 0-4.54.22-9.07.43-13.61.23-5.18 10.35-3.78 13.68-3.32a9.32 9.32 0 0 1 3.63 1.08c2.29 1.39 2 3.82 2.06 6.17 0 5.36.23 10.84.66 16.14.13 1.7 0 3.6-1.2 4.79a2.18 2.18 0 0 1-.19.14zm32.7-1.44-.08.18c-1.2 2.64-5 2.53-7.45 2.71-4.35.32-8.78.19-13.14.29a7.1 7.1 0 0 1-4.35-.83c-1.83-1.3-2-3.9-2-6.14v-15.34a12.54 12.54 0 0 1 .63-4.81c1.15-2.74 3.93-3.19 6.54-3.33 3.43-.18 6.86-.37 10.3-.54 2.22-.12 4.61-.19 6.49 1 3.14 2 2.87 5.93 3.19 9.21.46 4.66.27 9.42.32 14.1a9.09 9.09 0 0 1-.38 3.43zm31.07 1a4.18 4.18 0 0 1-2.72 1.4 52.84 52.84 0 0 1-8 .65 70.86 70.86 0 0 1-8.5-.23c-1.11-.11-3.83-.09-4.57-1.17-1.49-2.2-1.41-6.11-1.47-8.62q-.17-6.24-.32-12.48c-.06-2.28 0-4.83 1.57-6.47s4-1.75 6.28-1.8l11.55-.25a11.4 11.4 0 0 1 3.91.37c3.18 1 2.58 4.38 2.81 7.13.25 3 .4 6 .48 8.94.08 2.8.12 5.61 0 8.4-.02 1.62-.19 3.03-.95 4.02zm-78.32-32.52c-1.59-.27-2.8-.77-3.26-1.61a8 8 0 0 1-.6-4.12c.08-2.54.17-5.09.25-7.63a5.17 5.17 0 0 1 .65-2.9c1.17-1.45 5-.93 6.72-1 3.27-.07 6.55-.11 9.82-.15 9.9-.1 19.79-.14 29.69-.17q19.44-.06 38.89-.06h43.09l42.26.08 36.41.11c12.18 0 24.24.46 36.39.1 2-.06 4.22 0 5.76 1.24s2 3.6 2.21 5.66c.28 2.28.38 5-1.45 6.4s-4.32.5-6.39.44c-3-.09-6 .07-8.93.13q-14.32.32-28.66.54-19 .31-38.06.59-21.35.32-42.7.6l-42.55.58-37.63.5-27.93.38c-2.25 0-9.53.94-13.91.18zm83.15 13.7s-.15-2.42-.34-5.4a5.11 5.11 0 0 1 5.25-5.41h5.58c10.45 0 12.42-.4 13 8.44.37 5.34.43 12.66.54 16.32.05 2.12.12 4.78-1.88 6.12-1.55 1-3.93.65-5.72.69a47.83 47.83 0 0 1-9.19-.22c-5-.85-5.93-4.78-6.45-9.26-.4-3.74-.54-7.52-.79-11.28zm27.56 6.66a85.14 85.14 0 0 1-.18-11.84c.11-1.11.13-3.08.78-4 1.18-1.64 4.33-1.57 6.11-1.6l10.46-.23c1.51 0 3.17 0 4.35.94s1.55 2.94 1.68 4.63c.53 6.83.53 13.74.62 20.63.07 5.23-3.9 5.39-8.34 5.49l-8.44.17c-1.72 0-3.58 0-5-1-1.89-1.36-2.25-4-2.07-6.34a56.57 56.57 0 0 0 .04-6.85zm28.78-1.28v-5.71c0-2.6 0-5.21.08-7.81s0-3.34 2.82-3.32c4.41 0 8.82 0 13.22.12 2.69.05 2.46 1.52 2.78 3.88.22 1.64.43 4.79.57 8.36s.18 7.23.2 10.85c0 4.57 1.69 8.5-4.23 8.82l-8.55.47c-2 .11-4.34.08-5.61-1.48a6.48 6.48 0 0 1-1-3.86q-.21-5.16-.27-10.32zm24.36 5.63c-.35-4.69-.65-12.17-.65-16.61 0-2.14-.81-5.27 1.58-6.38a7.78 7.78 0 0 1 3.36-.46c3.44 0 7.28-.41 10.67.13a4.36 4.36 0 0 1 3.06 1.68c2.3 3 1.67 7.35 1.8 10.93q.22 6.75.47 13.52c.06 1.93.06 4.06-1.21 5.52-2.23 2.53-6.19 1.34-9.09 1.24-2.18-.08-4.8.1-6.89-.7-3.4-1.3-2.87-5.87-3.09-8.87zm28 8.36a5.79 5.79 0 0 1-1.11-1c-1.78-2-2-5-2.08-7.65q-.22-6-.46-12c-.11-2.92-2.12-9.34 1.66-10.7a8.41 8.41 0 0 1 3-.33l9 .05c2.21 0 4.72-.47 6.33 1.41 2.49 2.89 1.47 8 1.66 11.47.28 5.27.66 10.43.71 15.7 0 1.11 0 2.37-.89 3.08a3.86 3.86 0 0 1-2.06.67 71.6 71.6 0 0 1-11.05.77 8.75 8.75 0 0 1-4.69-1.47zm28.91 1.63a6.71 6.71 0 0 1-4.41-2.06c-1.59-1.82-1.68-4.47-1.68-6.88v-17a9.87 9.87 0 0 1 .85-4.92c.9-1.58 2.37-1.73 4-1.85a52 52 0 0 1 5.46-.56 5.75 5.75 0 0 1 4.41 2c1 1.35 1.19 3.17 1.29 4.87q.57 9.76 1.16 19.53a7.37 7.37 0 0 1-.7 4.51c-1.2 1.82-3.68 2.19-5.86 2.37a21.73 21.73 0 0 1-4.5-.01zm14.12-16.3-.19-13.08a5.28 5.28 0 0 1 .61-3.12c1-1.46 3.13-1.5 4.9-1.35a11 11 0 0 1 5 1.29c2.56 1.63 2.13 5 2.31 7.63a148.13 148.13 0 0 1 .2 22.09 2.1 2.1 0 0 1-2.51 2.37l-6 .28c-1.2 0-2.62 0-3.3-1a3.63 3.63 0 0 1-.4-2.12c.17-4.46-.54-8.58-.6-12.99zm-483.09-39.76c-5-.28-10-.64-15.06-.85a13.13 13.13 0 0 1-4.41-.69 4.46 4.46 0 0 1-2.86-3.18c-.35-2.25 1.6-4.13 3.37-5.56l11.26-9.11c4.43-3.59 9-7.24 14.34-9.21 4.59-1.69 9.52-2 14.38-2.06 2.79 0 5.4-.47 8.15-.5l7.14-.06 25.12-.23 32.69-.3 38.59-.35 42.82-.39 45.38-.41 46.29-.42 45.52-.42c27.43-.25 54.76-.27 82.19.19 13.85 0 27.71.35 41.55.77 6.93.2 13.85.43 20.78.64 6.41.19 12.92.2 19.24 1.53a53.22 53.22 0 0 1 26 13.81c3 2.89 9.86 11.24 2.83 14.15-2.63 1.1-6.74.4-9.58.45-27.4.45-54.74 1.06-82.13 1.16l-36.34.13-40 .14-42.44.14-43.68.16-43.71.15-42.55.15-40.18.14-36.6.13-31.74.11-25.83.09-18.64.06c-4.03.02-7.96-.15-11.89-.36zm515.58 50.8a7.73 7.73 0 0 1-.31 2.42c-.9 2.87-3.06 3.45-5.59 2.94-2.15-.45-5.47.76-6.64-1.51-.86-1.67-.32-4-.37-5.85l-.31-12.68c-.29-10.58-.9-21.88-1.36-25.11-1.07-7.5-1.1-7.48 6.43-7.48h3.18c4.4 0 3.25 5.62 3.37 8.57q.24 6.19.5 12.4c.2 4.95.35 9.9.54 14.85.09 2.47.2 4.95.32 7.42.02 1.28.23 2.68.24 4.03zm1.42-382c.32-2.41-.17-5.32 1.59-7.28 1.56-1.75 3.91-1.7 6.06-1.74s4.33 0 6.51 0l4.73.15c2.61.08 4.89 1.72 5.09 3.66l.36 3.52c.4 3.87 1.1 222.43 2.74 276.38q.4 13.2.66 26.4c0 3 .11 6 .11 9s-2 6.48-5.15 6.85c-3.79.45-8.51-.34-12.31-.84-2.81-.37-7.08-.4-8.33-3.27-1.4-3.18-.75-6.94-1.11-10.3 0-.29-.05-.57-.07-.85-.25-3.44-.29-6.9-.37-10.35-.16-6.34-.27-12.68-.37-19q-.21-12.93-.35-25.86-.18-15.43-.31-30.87-.14-17-.23-34-.1-17.69-.15-35.36v-34.85q0-16.25.11-32.5c.03-9.46.35-75.62.79-78.85zm-4.11-329.78c3.27-3 11-1.74 15.13-1.65 5 .11 9.33.14 11.18 5.2.69 1.9.52 4.18.6 6.17.17 4.1.29 8.21.4 12.31.31 11.67.51 23.34.7 35q.36 22 .61 44 .3 23.55.56 47.08.25 22.17.55 44.33c.16 11.91.33 23.82.58 35.72.2 10.08.32 20.35.37 30.5q0 7.78.06 15.57c0 3.76.35 7.53.09 11.29-.14 1.94-.25 4.07-1.27 5.82-1.12 1.95-2.23 1.55-4.29 1.48-5.72-.19-11.66.2-17.29.18a7.74 7.74 0 0 1-4-.73c-2.31-1.4-2.16-4.51-2.1-6.73.1-3.32.08-6.64.13-10 .13-9.68.08-19.37 0-29.05q-.16-19.75-.49-39.5-.36-22.75-.79-45.51-.45-23.55-.91-47.1-.42-22.12-.83-44.25-.33-18.48-.57-37c-.1-8.42-.23-16.84-.12-25.26 0-2.44-.39-5.62 1.39-7.6q.13-.1.31-.27zm35.92 589v-6.79a7.34 7.34 0 0 1 .7-3.83c1.11-1.84 3.09-1.16 4.85-1.32 2.15-.2 4.31-.32 6.46-.49 2.79-.21 9.33-1.5 10.81 2a7.68 7.68 0 0 1 .43 2.86q.13 6.72.28 13.44c0 1.39 0 2.92-.93 3.95s-2.61 1.2-4.07 1.26c-4.17.14-8.36.43-12.53.42-3.84 0-6-1.46-6-5.51.01-2.02 0-4.01 0-6.01zm22.68 18.73a11.44 11.44 0 0 1 .37 2.73l.4 8.23a4.39 4.39 0 0 1-.73 3.31c-.81.86-2.15.91-3.34.9l-9.06-.06c-2 0-6.2.78-8 0-2.53-1.14-1.79-6.58-1.79-8.67 0-2.94-.44-6.81 2.41-8.6 1.93-1.2 4.47-.72 6.68-.72h7.73c1.47 0 3.09.05 4.2 1a3.86 3.86 0 0 1 1.13 1.86zM654.4 323.18c3.94-.58 8.14-.27 12.11-.35 3.26-.07 6.68 0 6.81 3.74.15 4.36-.16 8.79-.24 13.15a4.61 4.61 0 0 1-.7 2.87c-.86 1-2.4 1.11-3.75 1.09l-8.91-.13c-1.47 0-3-.16-4.45-.06a12.62 12.62 0 0 1-2.63.37c-3.9-.65-2.86-11.68-2.87-14.61a8.43 8.43 0 0 1 .52-3.67c.71-1.51 2.32-2.13 4.11-2.4zm-5.14-20.58c-.14-2.12-.23-4.72 1.57-5.81a7.79 7.79 0 0 1 4-.75l14.39-.11a7.3 7.3 0 0 1 3.22.46c2.61 1.23 1.45 5.57 1.38 7.84l-.35 10.77a3 3 0 0 1-3.65 3.51l-14.33.74c-1.47.07-3.08.1-4.23-.81-1.37-1.1-1.54-3.08-1.6-4.84 0-3.15-.2-6.31-.3-9.46-.02-.47-.06-.99-.1-1.54zm6.25 225.93c-6.23-.5-6.32-.68-6.23-14.94v-6.43c0-3.55 2.59-6.43 5.76-6.43h11.45c3.17 0 5.86 1.91 6 4.27l.28 4.28a64.86 64.86 0 0 1-.54 13.72c-1.14 5.55-4.14 6.54-16.72 5.53zm-5.19 25.73a2.05 2.05 0 0 1-1-.46c-.87-.89-.5-3.55-.56-4.7a52.76 52.76 0 0 1 .43-9.65c.44-3.16.6-5.59 4.07-6.36s6.84-.21 10.23-.21h5.05a4.87 4.87 0 0 1 4.94 4.94c.22 4-.21 8.27-.2 12.32a4.47 4.47 0 0 1-.71 3 4.4 4.4 0 0 1-3.23 1.08q-7 .35-14 .13a27.52 27.52 0 0 1-5.02-.09zm1 25.56c-1.53-1.59-1.59-4.11-1.53-6.35.08-3.13.16-6.27.23-9.4a9.27 9.27 0 0 1 .41-3c1.34-3.55 8.56-2.55 11.52-2.55h5c2.75 0 5 1.29 5.1 2.89l.12 2.89c.17 4.33 1.09 9.95-.33 14.19a2.9 2.9 0 0 1-2.37 2.33c-3.59.88-8.17.35-11.88.51-2.12.09-4.48.1-6.05-1.33zm-.73-85a3 3 0 0 1-.84-1.18 8.77 8.77 0 0 1-.43-3.19l-.1-9.22c0-1.63.09-3.52 1.41-4.49a5.18 5.18 0 0 1 3.14-.67c5 0 9.88-.12 14.8-.31a4.5 4.5 0 0 1 4.58 4.28l.25 4.45c.32 5.7-.22 9.41-1.51 10.31-2.5 1.75-7.38 1.36-10.25 1.42-2.64.05-8.58.78-11.02-1.4zm22.08-30.63c-.07.74-.12 1.31-.13 1.66a6.14 6.14 0 0 1-1 3.83c-1.1 1.3-3 1.45-4.73 1.49l-10 .27c-2.21.06-4.58.08-6.41-1.16-2.57-1.75-2.71-4.43-2.51-7.15.26-3.63-.13-7.38-.13-11 0-3.41 1.45-6.2 3.25-6.23l3.24-.05c3.58-.05 9.23-.17 12.56-.25l3-.07c4.76-.14 3.37 13.4 2.89 18.66zm-16.16 122h10.87a5.56 5.56 0 0 1 5.66 5.1l.22 5.1s.1 2.28.22 5.09-.89 5.35-2.26 5.66l-2.48.56a71.2 71.2 0 0 1-12.51 1.11h-3.78a3.66 3.66 0 0 1-3.73-3.64v-3.65c0-2.95.24-5.84.06-8.79a7.68 7.68 0 0 1 .7-4.4c1.31-2.08 4.88-2.13 7.06-2.13zm6.92-214.92c-4 .13-10.9 1.29-12.62-3.61a8.45 8.45 0 0 1-.33-2.84v-9.56a9.33 9.33 0 0 1 .74-4.49c1.53-2.83 7.12-2.51 10-2.78 12.53-1.16 12.76-.74 10.84 19.5-.33 3.44-.55 3.51-8.6 3.79zm-2.11 4.27a47.61 47.61 0 0 1 8.36.38c2.43.45 3.47 1.78 3.77 4.35a3.61 3.61 0 0 1-1.09 3.19 5.36 5.36 0 0 1-3.51.8l-15.75-.12a5.78 5.78 0 0 1-3.37-.72 3.49 3.49 0 0 1-.94-4.17c1.85-4.05 8.94-3.7 12.56-3.7zm6.77 53c2.34-.1 4.35 1 4.49 2.38l.23 2.56c.31 3.31-.26 5.5-1.62 6.21-5 2.61-22 2.69-22.89.11-3.35-9.49-2.12-10.37 15.53-11.09zm-7-18.39 5.53.06c3.06 0 5.65 1.43 5.79 3.13l.25 3.07s.11 1.37.25 3.07-1.39 3.31-3.41 3.61l-3.65.55c-19.83 2.95-20.08 2.86-20.08-6.81.02-6.83.14-6.83 15.34-6.71zm6.74 202.73c3.88 0 4.68 2.8 4.87 6a104.53 104.53 0 0 1 0 12.39c-.09 1.58-.28 3.29-1.38 4.43-1.25 1.3-3.25 1.44-5.05 1.49l-13.53.38c-1.52 0-3.29 0-4.21-1.24a4.82 4.82 0 0 1-.63-3.1l.28-13.1a10 10 0 0 1 1-5.07c2.07-3.37 9.76-2.19 13.08-2.19zm5.35 37.69c0 2.42 0 4.83-.05 7.22 0 1.64-.12 3.46-1.3 4.59s-2.78 1.14-4.3 1.18l-13.67.27c-1.71 0-3.71-.07-4.66-1.49a5.2 5.2 0 0 1-.57-3c.05-4.47-.51-9 0-13.43a4.82 4.82 0 0 1 1.77-3.43c1.27-.94 3-1 4.56-.92 4.44.08 8.88.2 13.32.25 1.46 0 2.85-.42 3.93.66 1.34 1.34 1.08 3.72 1 5.44.01.87 0 1.75-.01 2.63zm-7.41-359.27c-1 0-1.95-.06-2.72 0-3.42.11-6.85.12-10.27 0a4.72 4.72 0 0 1-3.3-1 4.86 4.86 0 0 1-1-3.38c-.09-4.37-.19-8.75-.13-13.1a5.56 5.56 0 0 1 1.55-4c1.48-1.39 3.7-1.5 5.73-1.54l12.9-.23c1.41 0 3 0 4 1s1 2.4 1 3.72v10.78c0 2 .34 5.34-1.65 6.68-1.42 1.04-3.88 1.08-6.09 1.04zm-17-40.71a6.69 6.69 0 0 1 .5-1.76c1.36-3 5.51-2.64 8.22-2.62l12.66.1a2.74 2.74 0 0 1 3.37 3.3c0 2.91.16 5.83.12 8.75a5 5 0 0 1-1.54 3.88c-1.15.89-3.17.6-4.6.76-4.23.46-8.46 1-12.71 1.07-3 .09-5.54.63-5.73-3.32-.11-2.3-.23-4.61-.34-6.91a17.62 17.62 0 0 1 .07-3.28zM675 211.11v1.48a3.34 3.34 0 0 1-4 4.12l-16.09.45c-1.64 0-3.47 0-4.67-1.11s-1.32-3-1.35-4.66l-.28-14c0-1.64 0-3.51 1.29-4.56a5.53 5.53 0 0 1 3.45-.9c5.6-.2 11.69-1.16 17.24-.75a4.93 4.93 0 0 1 3.51 1.63c1 1.31 1.08 3.14 1.06 4.82zm-5.77 9c1.94.08 3.68.69 4.57 2.73a11.83 11.83 0 0 1 .7 4.62c0 2.77.1 5.53.14 8.3 0 1.73-.05 3.72-1.38 4.82a5.87 5.87 0 0 1-3.6.93l-15.32.57c-1.92.08-4.16 0-5.31-1.53a6.07 6.07 0 0 1-.83-3.57l-.15-7.74c0-2.35 0-5 1.72-6.61 1.45-1.38 3.64-1.55 5.64-1.65l8-.4c1.65-.09 3.82-.58 5.77-.47zm-22.44-80.61c.08-2.46.56-4.88 2.39-6 1.59-1 3.55-1 5.41-1l14 .08a5.89 5.89 0 0 1 3.47.75c1.46 1.06 1.61 3.15 1.62 5v8.91c0 2 .63 5.4-.6 7.2-1.48 2.16-5.68 1.42-7.86 1.43l-9.56.07c-2 0-4.27 0-5.91-1.26a6.36 6.36 0 0 1-2.24-4c-.32-1.74-.26-3.51-.55-5.25a33.17 33.17 0 0 1-.17-5.93zm25.91 258-.2 3.85c-.12 2.13-4.55 4-9.9 4.18l-9.69.33c-10.67.35-21.43.85-23.92 1.1-11.47 1.15-12.27.58-12.27-8.8 0-10.58-1.45-10.07 27.44-9.71 31.31.38 29.04-.34 28.54 9.05zM663.48 807H628c-1.7 0-3.56 0-4.81-1.2s-1.49-3.33-1.51-5.19l-.27-20.18a84.06 84.06 0 0 0-.47-9.67c-.31-2.42-.76-5.85.28-8.14 1.25-2.74 4.53 1 5.74 2.2 12.09 11.53 16 15.36 24.38 23.91 5 5.08 11 10.44 13.32 11.93 2.05 1.3 6 3.92 1.83 5.76a7.39 7.39 0 0 1-3.01.58zm9.39-13.71c.45 8.72-.42 8.14-31.29-21-20.65-19.48-21.33-18.29 10.35-18.19 20.46.03 18.77-3.1 20.94 39.14zm.73-49.29c1.48 6.63-8 6.27-11.72 6.22l-21.06-.27-14.06-.17c-1.49 0-5.37.64-6.58-.19s-1.24-3.5-.88-4.8c1.27-4.61 5.91-3.69 9.62-4.1 3.45-.38 6.93-.13 10.39-.26q8.45-.31 16.89-.28c4.41 0 11.74-1.15 15.62 1.37a4 4 0 0 1 1.78 2.48zm-12.77-7.6c-1.59 0-3.18 0-4.77-.07a5.6 5.6 0 0 1-5.09-5.12l-.33-4.84c-.17-2.59-1.09-6.78 1.56-8.46a9.35 9.35 0 0 1 5-1c3.44 0 7.82-.72 11.17 0a4.46 4.46 0 0 1 3.13 3c1.39 3.36.65 6.65 1.11 10.16.23 1.8.09 3.89-1.31 5.05a6.37 6.37 0 0 1-4 1c-2.1.11-4.3.21-6.47.25zM670 186.53a19.75 19.75 0 0 1-3.44.33l-10.84.38c-2.06.08-4.29.1-6-1.09a6.41 6.41 0 0 1-2.44-4.87c-.15-2 .49-3.92.17-5.94a48.6 48.6 0 0 1-.32-6.16c-.06-3 .49-6.67 3.75-7.62a13.09 13.09 0 0 1 3.75-.34h14.11c2 0 4.09-.38 5.3 1.69a8.88 8.88 0 0 1 .83 4.63 108.33 108.33 0 0 1-.51 11.25c-.28 2.51.49 5.19-2.08 6.8a7.12 7.12 0 0 1-2.28.94zm-9.23-59.91-6.71.15a10 10 0 0 1-5-.76 5.17 5.17 0 0 1-2.5-4.71 52.53 52.53 0 0 0 0-5.61c-.13-2.08.18-4 2.2-5a11.11 11.11 0 0 1 5.12-.94l9.77-.25c2.33-.06 6.6-.93 8.57.82 2.17 1.94 2 7 1.81 9.62a7.37 7.37 0 0 1-1.72 4.85c-1.55 1.56-4 1.7-6.18 1.75zm7.69-21.62a32.16 32.16 0 0 1-4.36.14l-13.53.05a5.4 5.4 0 0 1-3.66-.87c-1.17-1-1.26-2.74-1.26-4.28v-5.33c0-1.19-.41-3.25.18-4.28s1.88-1.33 2.8-1.59c4.18-1.16 9-.76 13.25-.79 1.64 0 3.26.1 4.89.15 1.46 0 2.89-.36 4.2.55a5.49 5.49 0 0 1 2 3.37 15.88 15.88 0 0 1 .22 4l-.14 5.18c-.05 2.98-2.05 3.28-4.59 3.7zm-51.89-21.76c-3.05-.41-3.26-.94-3.26-8.44 0-9.88-2.53-9.22 32-8.24l18 .51c5.56.16 10.17 2 10.28 4.12l.21 3.83s.09 1.71.21 3.82-1 4-2.53 4.15l-2.75.31c-5.96.7-46.92.64-52.16-.06zm53.08-73.69a3.33 3.33 0 0 1 3.52 1.76 8.63 8.63 0 0 1 .84 4.81l-.63 28.28c-.09 3.93.45 8.48-.39 12.33-.8 3.62-3.39 4.9-6.86 4.88l-44-.17a3.48 3.48 0 0 1-2.42-.61 2.4 2.4 0 0 1-.25-2.87c.65-1.17 1.89-1.89 2.69-3 .59-.77 1.2-1.52 1.82-2.26 1.62-1.94 3.32-3.81 5-5.65 4.8-5.13 9.81-10.05 14.88-14.9l16.35-15.62c1.8-1.59 5.96-6.45 9.45-6.98zM649.4 7.5h8c1.24 0 3.21.4 2.84 2.12-.19.86-1.34 1.72-1.95 2.31-1.09 1-2.26 2-3.39 3-4 3.53-12.07 11.6-18 17.92s-13.36 13.78-16.43 16.58L617.68 52c-1.54 1.41-3-.1-3.33-3.37l-.55-5.91q-.93-10.15-1.41-20.33c-.12-2.68-.22-5.37-.25-8 0-3.07.63-5.69 3.93-6.58a15 15 0 0 1 4.07-.35zM610.62 459q.06 4.49.14 9 .18 12 .37 24 .27 17.37.55 34.75l.64 41.25.68 43.46q.33 20.7.65 41.41l.55 35.07c.21 13.64-.42 27.38-.42 41.07 0 1.29-.2 2.84-1.36 3.4-1 .47-2.15-.07-3.11-.61-4.47-2.47-9-5-12.63-8.58a23.34 23.34 0 0 1-3-3.63c-3-4.43-2.28-10.41-2.18-15.58.06-3 0-6 .06-8.94q0-8.06.05-16.11 0-11.21.06-22.41 0-13.9.06-27.82l.06-32.37.06-36v-38.83l.06-40.75q0-20.89.05-41.79t0-42V156.14l-.8-37.23c-.1-4.55.48-13.83.38-18.38-.14-6.46 4.54-10.5 7.38-16.25a10.41 10.41 0 0 1 2.57-3.28 4.1 4.1 0 0 1 3.7-1.08c3.5 1 2.39 9.07 2.41 12l.1 12q.12 15.5.25 31l.32 38.39.36 43.38q.18 23 .37 46t.38 46.16l.36 43.94.33 39.34.26 32.32q.1 11.44.19 22.9l.09 11.08c0 .15 0 .37.01.57zM602.55 8.34a4.14 4.14 0 0 1 3.13 1c1.16 1.1 1.41 2.82 1.58 4.41a244.59 244.59 0 0 1 1.22 34.34c-.09 2.54-.88 7.25-4.37 7.08-2.62-.12-6-.52-7.81-2.72-1.15-1.43-.76-3.51-.8-5.24l-.15-6.51q-.3-13.32-.61-26.64a10.51 10.51 0 0 1 .27-3.31c.66-2.22 2.24-2.39 4.22-2.28 1.08.1 2.22-.11 3.32-.13zM571.66 9c2.39-1.41 5.54-1 8.18-.88 2.33.15 6-.11 7.68 1.76 1.17 1.3 1.23 3.21 1.23 5v10.37c0 4.6-3.57 4-7.05 4l-7.7-.13a3.2 3.2 0 0 1-2.3-.63 3.24 3.24 0 0 1-.64-2.33l-.16-14.76a3.83 3.83 0 0 1 .34-2 1.18 1.18 0 0 1 .42-.4zm-13.1-.8c1.73 0 4.75 0 5.82 1.59a7.33 7.33 0 0 1 1 3.43q.36 3.38.59 6.77c.17 2.62.69 7.79-2.29 9.24a5.93 5.93 0 0 1-2.44.43c-5.1.15-10.19.36-15.27.5a4.93 4.93 0 0 1-3.29-.7c-1.1-.89-1.2-2.5-1.21-3.92L541.35 15a10.45 10.45 0 0 1 .66-4.59c1.59-3.34 7.19-2.22 10.26-2.22zm-21.2 10.9c.13 2.66.67 5.36.27 8-.19 1.33-.35 2-1.56 2.46-2 .83-4.34.51-6.48.51h-7.18c-1.88 0-3.76 0-5.62.07a4.4 4.4 0 0 1-3.62-1c-1.31-1.34-1.07-3.8-1.16-5.51q-.24-4.25-.46-8.51a9.56 9.56 0 0 1 .23-3.42c1.25-3.9 6.66-3.09 9.83-3.25 13.32-.63 15.18-.91 15.75 10.68zm-30.46-4.75V25a8.41 8.41 0 0 1-.68 4.05c-1.48 2.72-7.57 1.61-10.25 1.61-2.83 0-5.65.15-8.47.09-1.35 0-3.63.27-4.6-.89-1.47-1.77-.43-5-.49-7.07-.09-2.9-.17-5.79-.26-8.69a7.67 7.67 0 0 1 .64-4.09c1.29-2.2 6.17-1.12 8.38-1.15l11.06-.14c1.33 0 2.81 0 3.74 1s.93 2.3.93 3.56zM452 9.79c1.31-1.28 3.44-1.56 5.78-1.56h5c2.2 0 4.4 0 6.59.22 1.87.16 4.26-.18 5.48 1.56a8.31 8.31 0 0 1 1.09 4.29l.56 8.13c.13 1.89.24 3.89-.63 5.56-1.67 3.2-7.15 2.37-10.15 2.44l-5.86.15a32.38 32.38 0 0 1-3.85-.4c-1.91-.16-3.66-.59-4.57-2.64-.6-1.37-.56-3.47-.71-4.94a47.88 47.88 0 0 1 0-9.87A4.71 4.71 0 0 1 452 9.79zm-6.36 18.82a3.65 3.65 0 0 1-.27 1c-1.21 2.7-7 1.73-9.31 1.78l-6.1.13c-1.67 0-4 .06-5.49-.81-1.22-.71-1.26-1.85-1.38-3.21a78.84 78.84 0 0 1 0-13.57c.18-2.18.78-4.37 3-5.14s4.57-.54 6.84-.49c2.91.07 5.83 0 8.75 0a4.67 4.67 0 0 1 2.86.62c1.15.86 1.24 2.53 1.23 4q-.07 7.23-.13 14.47a10.81 10.81 0 0 1-.05 1.22zm143.18 5.94a3.44 3.44 0 0 1 .94.63c1.12 1.06 1.3 2.76 1.4 4.3l.52 7.45c.13 1.93.24 4-.65 5.69-2 3.91-9.82 2.89-13.55 3-6.48.15-13 .19-19.46.22-16.13.09-44 .6-62 1.13-36.09 1.08-125.34 1.65-133.19.86l-2.5-.25c-1.37-.14-2.78-2.16-3.15-4.51l-.66-4.26c-.72-4.69-1.11-9.06-.86-9.7 1.27-3.32 21.67-3.91 167.22-4.84 17.78-.11 35.59-.66 53.35-.65q4.83 0 9.64.35a8.81 8.81 0 0 1 2.9.58zM413 8.12a4.45 4.45 0 0 1 2.79 1.5 6.13 6.13 0 0 1 1 3.87c.07 3.44.14 6.87.22 10.31a10.84 10.84 0 0 1-.82 5.4c-1.66 3.08-6.11 2.46-9 2.46-13.57 0-12.48 1-12.7-11.33a59.68 59.68 0 0 1-.06-8c.14-1.18.6-3.08 1.75-3.63a5.6 5.6 0 0 1 2.34-.39l9.9-.18a24.7 24.7 0 0 1 4.58-.01zm-27.67.44c1.94.09 3.71 2.09 4 4.47l.45 4.3c.64 6 .57 9.42-.23 11.35-1.07 2.6-1.6 2.76-9.06 2.76h-4a4.7 4.7 0 0 1-4.49-3.85l-.58-3.84C369.09 8.11 369.3 7.8 381.86 8.39zm-23.08-.27h.7a3.36 3.36 0 0 1 2.26.48 3.35 3.35 0 0 1 .87 2.5c.32 5.17.43 10.46 1 15.6.16 1.46.69 2.66-.49 3.82-1.69 1.66-4.63 1.6-6.8 1.6-1.82 0-4-.15-4.94-1.69a5.43 5.43 0 0 1-.53-3.1l.38-15a6.53 6.53 0 0 1 .38-2.49c1.08-2.38 5.15-1.72 7.21-1.72zm-13.11 14.59c.05 1.75.08 3.49.16 5.2q.34 7.76.58 15.52.12 4.34.21 8.69c.05 2.18.13 6.44-2.52 7.22-1.16.35-3.06.05-4.31.13L338 60a7.8 7.8 0 0 1-4.13-.49 5.2 5.2 0 0 1-2.33-2.87c-1.1-2.94-.7-6.59-.86-9.71-.36-7.23-.94-18.73-1.29-25.54 0 0-.14-2.77-.32-6.2s1.68-6.29 4.15-6.42l4.47-.23c2.4-.12 5.65-.87 8 0 2.1.77 2.19 3 2.57 4.92a58.87 58.87 0 0 1 .88 9.42zm-24.67-3.44c.81 11.29 0 12.45-7.45 10.76l-2.74-.62c-1.52-.35-3-2.64-3.38-5.12l-.64-4.5c-1.68-11.96-1.68-11.91 6.3-11.67 7.49.23 7.09-.29 7.91 11.15zM300 8.24c2.7-.09 5 .57 5.23 1.49l.35 1.65a44.46 44.46 0 0 1 .58 5.23c.19 2.91.23 6.89.25 8.88s-2 3.67-4.58 3.76l-4.62.18c-10.93.4-11 .35-11.52-12.3l-.18-4.19c-.1-2.31 2-4.26 4.71-4.36l4.89-.17zm-25.56 0 3.09.05c1.71 0 3.26 2.19 3.46 4.84l.36 4.8c.22 3 .61 6.27.14 9.24-.42 2.7-3.77 2.77-6 2.78h-14.37a3.88 3.88 0 0 1-2.69-.67 3.92 3.92 0 0 1-.86-3l-.09-13.45a6.18 6.18 0 0 1 .39-2.74c1.07-2.24 4.93-1.81 7-1.87 3.13-.02 6.34 0 9.55.05zm41.07 27h2.45c2.2 0 7.05-.14 8 2.53a5.44 5.44 0 0 1 .17 2 59 59 0 0 0 .25 6.91c0 3.18.86 6.52.28 9.69-.31 1.7-1 1.75-2.59 1.8-2.51.08-5 .21-7.53.31q-25.62 1.07-51.27 1.62c-5.18.12-24-.37-28.41-.42q-15.6-.16-31.19-.27-25.91-.21-51.82-.34-29.81-.18-59.58-.5a10.34 10.34 0 0 1-4.43-.69c-6-2.88-3.49-10.75-4-15.77-.22-2.41-.62-5.36 1.16-7.31 1.37-1.49 4-.95 5.78-.92l9 .18c20.69.42 41.39.84 62.09.95 10.36.06 20.72 0 31.07-.11s110.68.44 120.55.35zm-70.14-27c1.84-.17 3.86-.72 5.4.64 1.23 1.12 1.41 3.12 1.47 4.8l.39 12.59a5.71 5.71 0 0 1-.36 2.76c-1.24 2.52-8 1.27-10.3 1.28-3.08 0-6.17 0-9.25-.18a4.38 4.38 0 0 1-2.91-.87 4.42 4.42 0 0 1-.94-3.09l-.48-12.1a7.38 7.38 0 0 1 .67-4.22c1.25-2 3.41-1.56 5.4-1.57h5.1c1.7 0 3.3.07 4.94.07a8.4 8.4 0 0 0 .85-.1zm-37.1-.12c3.11 0 6.2-.25 9.38-.14a5 5 0 0 1 3 .75c1.73 1.36 1.23 4.51 1.49 6.43.44 3.24.24 6.69.35 10a6.25 6.25 0 0 1-.53 3.46 3.25 3.25 0 0 1-3.54 1.38 46.48 46.48 0 0 0-5.17-.19l-12.4.09a4.47 4.47 0 0 1-3.08-.74 4.5 4.5 0 0 1-1-3.26q-.28-6.36-.55-12.73a6.73 6.73 0 0 1 .33-3c1.2-2.74 6.18-2.22 8.53-2.11 1.04.07 2.11.08 3.17.07zm-23.63.2a6.92 6.92 0 0 1 4.95 1.81c1.32 1.28 1 3.24 1.08 5 .15 4.07.59 8.31.14 12.38-.35 3.18-4.87 2.27-7.21 2.29l-10.24.1a4.19 4.19 0 0 1-3.16-.85 4.21 4.21 0 0 1-.82-2.7l-.52-8.48c-.1-1.61-.07-3.2-.21-4.78-.11-1.34-.21-2.84.83-3.87s2.47-1 3.82-1l9 .08c.77.02 1.56 0 2.32.03zm-27.76 0h1.3c1.43 0 3.91-.05 4.71 1.42 1.37 2.55.66 6.28.64 9.06 0 3.08 1.46 9.76-2.54 10.92-2.15.61-4.77.24-7 .26l-8.29.08a8.85 8.85 0 0 1-3.25-.38c-3-1.17-2.51-5.92-2.63-8.53-.09-2-.11-4-.16-6S139 10.25 141 9a7.23 7.23 0 0 1 4.13-.79zm-21.51 12.59c0 1.77-.09 3.57.06 5.33.06.76.51 1.71.26 2.43-.46 1.33-2.21 1.33-3.31 1.33l-17-.12a10.26 10.26 0 0 1-4.31-.65c-2.9-1.33-2.45-5.12-2.65-7.8-.29-3.7.12-7.66.14-11.41a2.78 2.78 0 0 1 .29-1.46 2.74 2.74 0 0 1 2.4-.83l18.21-.08a7.63 7.63 0 0 1 4.42.89c1.61 1.13 1.42 3.44 1.43 5.18.04 2.39.03 4.79.06 7.19zm-31.52 7.38c-1.4 1-4.29.83-5.72.81l-9.46-.1a4.42 4.42 0 0 1-2.89-.72c-.91-.78-1-2.13-1.06-3.33-.17-4.37-.21-8.74-.46-13.1a7.24 7.24 0 0 1 .09-2.23 3.16 3.16 0 0 1 3.28-2.24l13.47.07a3.55 3.55 0 0 1 2.68.76c.82.89.61 2.44.64 3.55 0 1.65.07 3.31.11 5l.15 6.43c.04 1.43.59 4.05-.83 5.1zM80 10.08a11.79 11.79 0 0 1 .48 3.61q.51 19.25 1 38.49a8.73 8.73 0 0 1-.61 4.31c-1.27 2.45-5.36 2.21-7.71 2.45-2 .2-4.25 0-5.53-1.54-1.08-1.27-1.15-3.09-1.17-4.76L66 13.56a9.22 9.22 0 0 1 .5-3.85c1-2.29 3.73-2.31 5.86-2.28 2.29 0 5.69-.59 7.12 1.63a5.07 5.07 0 0 1 .52 1.02zM65.11 246.84c.59 20.61.59 68.4 0 90.5-.24 9.12-.7 26.46-1 38.52-.69 25.75-.36 27.18-6.21 28-13.17 1.8-13.38-1.16-13.37-14.55s-3.78-266.66-4.6-285.83c-.41-9.36-.22-12.42.8-13.27 1.24-1 20.46-2 21.4-1 .23.23.9 32.07 1.48 70.75s1.24 77.76 1.5 86.88zM40.56 83.68c-10.83.22-22.56.76-26.07 1.18-7.36.91-7.74.55-6.93-6.57.73-6.45.52-6.38 19.91-6.9C37.11 71.14 48.61 70.5 53 70c9.82-1.15 9.57-1.31 9.57 5.93.03 7.61.98 7.27-22.01 7.75zM21.55 6.5l32.33.83a9.25 9.25 0 0 1 4.34.82c2.32 1.3 1.38 3.3 1.83 5.34a28.31 28.31 0 0 1 .5 3.68c.39 4.76.44 9.55.59 14.33.3 9.77.74 19 1 20.53C62.92 57.16 60.2 55 36.17 31 29.7 24.51 22.93 18.2 17 11.23c-.68-.8-2-1.91-1.71-3.06a2.33 2.33 0 0 1 1.63-1.53 6.88 6.88 0 0 1 2.31-.2zm-5.86 10.84c6.82 6.54 13.51 13.23 20.14 20Q43.47 45.07 51 53q2.76 2.91 5.45 5.88c1.34 1.49 4.46 4 1.82 5.88a6.25 6.25 0 0 1-3.76.74L11.37 65a6.63 6.63 0 0 1-4.15-1c-1.5-1.21-1.62-3.42-1.62-5.35L5.62 30V15.71c0-2.54.45-6.29 3.77-4a55.51 55.51 0 0 1 6.3 5.63zm-.06 73.74 12.78-.46c1.59-.06 3.33-.07 4.59.9 1.66 1.28 1.81 3.72 1.54 5.8a16.6 16.6 0 0 0 .13 6.29c1.08 4.83-1.19 6.91-5.89 7l-15.55.43a7 7 0 0 1-4.23-.75c-1.84-1.28-2-3.9-1.78-6.12A29.59 29.59 0 0 0 7 97.78c-.15-1.58 0-3.93 1.09-5.16s2.93-1.37 4.56-1.43z" fill="#f87318" data-color="1"/>
        <path d="M111.57 765.13c-3.17.64-4.21 2.75-1.89 3.8 2.07.93 15.86 0 17-1.17 2.85-2.84-6.19-4.41-15.11-2.63z" fill="#f87318" data-color="1"/>
        <path d="M161.43 764.25c-4.45 0-7.18 1.89-6.24 4.34.55 1.44 8.94.93 11.57-.7 2.41-1.49-.76-3.64-5.33-3.64z" fill="#f87318" data-color="1"/>
        <path d="M204.75 764.58c-6.55-.07-10.92 1.85-8.87 3.89.83.84 4.69.85 9.68 0 5.44-.87 4.79-3.83-.81-3.89z" fill="#f87318" data-color="1"/>
        <path d="M242.63 764.39c-5.6.34-6.29.79-5 3.25 1 1.87 1.69 2 5.83 1.42 11.61-1.74 10.95-5.39-.83-4.67z" fill="#f87318" data-color="1"/>
        <path d="M280.4 767.4c1.29 1.29 12.12.72 13.3-.7 1.94-2.35-.89-3.42-7.69-2.89-5.85.45-7.62 1.58-5.61 3.59z" fill="#f87318" data-color="1"/>
        <path d="M500.83 764.57c.63 1.64 7.43 2.17 9.72.76 2.58-1.6.34-4.06-3.68-4.05-4.56.02-6.82 1.25-6.04 3.29z" fill="#f87318" data-color="1"/>
        <path d="M535.73 764a2.61 2.61 0 0 0 .73.93c1.07.88 3.12.85 4.43.85 1.8 0 5.48 0 6.69-1.59 2.48-3.33-5.8-3.38-7.32-3.53a7.73 7.73 0 0 0-2.8.07 2.37 2.37 0 0 0-1.73 3.27z" fill="#f87318" data-color="1"/>
        <path d="M400 761.52c-5 0-7.11 1.46-5.59 3.92.53.87 10.38.44 11.49-.5 1.82-1.54-1.42-3.42-5.9-3.42z" fill="#f87318" data-color="1"/>
        <path d="M571.83 765.06c1.21 1.21 9.11.68 10.25-.69 1.6-1.94.39-2.68-4.44-2.68-3.99 0-7.27 1.9-5.81 3.37z" fill="#f87318" data-color="1"/>
        <path d="M363.79 761.7c-7 .25-7.31.38-6.47 2.58 1 2.56 7 1.36 9 1.31 1.46 0 5.66-2 3.8-3.63-1.12-.96-5.07-.3-6.33-.26z" fill="#f87318" data-color="1"/>
        <path d="M470.65 766c6.46-1 7.58-1.67 6-3.53-2.66-3.21-13.09-.7-11.73 2.83.51 1.25 1.58 1.38 5.73.7z" fill="#f87318" data-color="1"/>
        <path d="M437.37 761.6c-4.51 0-8.36 1.59-7.44 3.07 1.28 2.07 11.53 1.13 11.53-1.06 0-1.68-.67-2.01-4.09-2.01z" fill="#f87318" data-color="1"/>
        <path d="M628.47 720.33c1.8 2.91 3.58 1 3.49-3.67-.14-6.61-1.17-9.73-3.36-10.15-1.9-.36-2 10.78-.13 13.82z" fill="#f87318" data-color="1"/>
        <path d="M627.78 678.27c.82 3.06 3.2 2.87 4-.32s-.24-11.53-1.53-12.82c-2.59-2.59-4.25 6.4-2.47 13.14z" fill="#f87318" data-color="1"/>
        <path d="M628 636.7c1.56 4.06 3.71 1.29 3.41-4.39-.22-4.33-.68-5.78-1.81-5.78-1.51 0-2.67 7.29-1.6 10.17z" fill="#f87318" data-color="1"/>
        <path d="M628.92 587.57c-1.3 0-2.21 5.91-1.5 9.7.48 2.56 1.11 3.41 2.36 3.18 3.34-.64 2.53-12.88-.86-12.88z" fill="#f87318" data-color="1"/>
        <path d="M631.07 560.67c1.3-.82 1-9.54-.34-10.91-1.77-1.77-4.68 8.24-3.12 10.76.8 1.3 1.6 1.33 3.46.15z" fill="#f87318" data-color="1"/>
        <path d="M631.94 516.84c-.25-4.88-.57-5.65-2.3-5.65-2.36 0-3.53 8.63-1.5 11.08 2.42 2.92 4.12.5 3.8-5.43z" fill="#f87318" data-color="1"/>
        <path d="M628.26 483.74c2.34 3.79 4.57-.61 3.67-7.25s-1.34-7.27-3.72-6.36c-1.71.66-1.68 10.87.05 13.61z" fill="#f87318" data-color="1"/>
        <path d="M629.41 443.72c2.24-.44 2-5.76 2-7.3 0-1.08-.57-10.53-3.14-8.2a3.1 3.1 0 0 0-.75 1.84c-.24 1.71-1.52 14.34 1.89 13.66z" fill="#f87318" data-color="1"/>
        <path d="M52.64 705.85c-2.43 0-3.59 12.58-1.39 15.22s3.27-.21 3.34-7.91c.06-6.66-.11-7.31-1.95-7.31z" fill="#f87318" data-color="1"/>
        <path d="M51.88 667.77c-1.63.62-2.36 13.59-.85 15.1 2.47 2.47 3.65-.09 3.41-7.4-.27-8.33-.34-8.56-2.56-7.7z" fill="#f87318" data-color="1"/>
        <path d="M54.55 637.33c0-7.16-1.08-9.88-3.11-7.85-1.75 1.75-1.75 14.37 0 15.35 2.61 1.46 3.11.24 3.11-7.5z" fill="#f87318" data-color="1"/>
        <path d="M51.1 606.56c2.69 1 3.76-1.54 3.75-8.71 0-9-1.14-11.22-3.4-6.86-1.97 3.81-2.22 14.9-.35 15.57z" fill="#f87318" data-color="1"/>
        <path d="M54.23 564.56c1.74-6.49-.36-15.19-3.24-13.42-1.21.75-1.62 11.29-.55 14.09.9 2.33 3.09 1.94 3.79-.67z" fill="#f87318" data-color="1"/>
        <path d="M54.18 524.52c1.08-5.79-.3-12.54-2.58-12.54-1.81 0-2 10.42-.3 15.9.7 2.19 2.17.45 2.88-3.36z" fill="#f87318" data-color="1"/>
        <path d="M52.35 489.91c2.89 0 2.61-15.34-.29-15.89-1.56-.3-1.76.59-1.76 7.78 0 7.5.15 8.11 2.05 8.11z" fill="#f87318" data-color="1"/>
        <path d="M54.37 444.68c-.26-6.53-.5-7.29-2.3-7.29-2.25 0-2.49 10.67-.3 13.31s2.89 1.03 2.6-6.02z" fill="#f87318" data-color="1"/>
        <path d="M52 369.51c-2 0-3.06 10.62-1.26 12.43 1.61 1.6 2.87-.37 3.5-5.45.76-6.15.5-6.98-2.24-6.98z" fill="#f87318" data-color="1"/>
        <path d="M52.89 330.3c-2.34 0-3.09 2.45-2.72 9 .57 10.19 4.18 9 4.18-1.43 0-5.95-.35-7.57-1.46-7.57z" fill="#f87318" data-color="1"/>
        <path d="M52.39 302.93c2.23-.42 2.9-14 .78-15.72-2.62-2.18-3.66.85-3 8.75.5 5.94.91 7.22 2.22 6.97z" fill="#f87318" data-color="1"/>
        <path d="M51.27 265.83a3 3 0 0 0 2.3 1.12c1.54 0 1.41-19.32-.14-20.87-3.21-3.2-5.18 14.86-2.16 19.75z" fill="#f87318" data-color="1"/>
        <path d="M51.08 227.09c1.8 1.8 2.85-.64 3.12-7.22s.15-7.21-1.76-7.21c-2.08 0-3.27 12.53-1.36 14.43z" fill="#f87318" data-color="1"/>
        <path d="M52.54 190.53c2.09 0 2.79-12.05.88-15.08-2.23-3.51-4.06 1-3.38 8.32.53 5.69.96 6.76 2.5 6.76z" fill="#f87318" data-color="1"/>
        <path d="M53.13 140.87c-3.11-1.19-3.44-.52-3.44 7 0 6.64.22 7.58 1.72 7.29 3.19-.62 4.7-13.16 1.72-14.29z" fill="#f87318" data-color="1"/>
        <path d="M54.08 110.22a51.71 51.71 0 0 1 .63-8c.61-3-1.61-5.52-3.37-3.76-1 .94-2.16 12.42-1.56 14.72 1.16 4.39 4.3 2.25 4.3-2.96z" fill="#f87318" data-color="1"/>
        <path d="M627.52 367.23c1 1.87 3 3.06 4-.09.62-2 .3-8.19-1.51-9.69-4-3.28-3.43 6.9-3 8.53a5.57 5.57 0 0 0 .51 1.25z" fill="#f87318" data-color="1"/>
        <path d="M629.1 320.71c-2.13 0-2.72 3.81-1.38 8.82 1 3.79 3.39.69 3.39-4.42 0-3.73-.31-4.4-2.01-4.4z" fill="#f87318" data-color="1"/>
        <path d="M631.18 295.63a19.93 19.93 0 0 0 .22-5c-.14-2.75-4-4.46-4.55-.67a14 14 0 0 0 .55 6.84c.71 1.9 3.2 1.11 3.78-1.17z" fill="#f87318" data-color="1"/>
        <path d="M631.1 258.36c0-5.27-.24-6.06-1.76-5.77-1.8.34-3.05 7.39-1.86 10.49 1.52 3.98 3.62 1.26 3.62-4.72z" fill="#f87318" data-color="1"/>
        <path d="M628.57 228.52c1.49 1.31 3 .32 3.53-1.54.61-2.3.21-4.83-.09-7.15-.2-1.47-1.65-4.62-3.4-2.27a4.5 4.5 0 0 0-.61 2.76 28.19 28.19 0 0 1-.11 4.22c-.22 1.3-.81 2.22.18 3.46a3.56 3.56 0 0 0 .5.52z" fill="#f87318" data-color="1"/>
        <path d="M628 179.56c-1.38.85-1.43 9.6-.08 13.14 1.9 5 3.54 2.33 3.16-5.14-.34-7.11-1.14-9.19-3.08-8z" fill="#f87318" data-color="1"/>
        <path d="M627.16 152.88c1.1 5.49 4.41 4.26 4.38-1.63 0-5.55-1.13-7.83-3.4-7-1.7.69-2.01 3.45-.98 8.63z" fill="#f87318" data-color="1"/>
        <path d="M629.53 121.26a2 2 0 0 0 2.13-1.59c.76-2.51.33-5.21.14-7.77-.14-2-1.25-9-4.53-4.54a6.73 6.73 0 0 0-1 3.26 32.64 32.64 0 0 0-.19 5.5 6.79 6.79 0 0 0 .88 3.53 3.55 3.55 0 0 0 2.57 1.61z" fill="#f87318" data-color="1"/>
        <path d="M136.71 44.55c-5.16-1-7.77.19-7.77 3.55 0 2.18 5.88 2.67 10.58.88 3.81-1.45 2.59-3.37-2.81-4.43z" fill="#f87318" data-color="1"/>
        <path d="M165.9 44.87c-5.33-.56-7.93.56-7 3 .82 2.13 10.93 2.29 12.67.2 1.56-1.88.33-2.57-5.67-3.2z" fill="#f87318" data-color="1"/>
        <path d="M237 47.77c1.51-2.29-2.68-2.81-4-3-2.11-.23-15.29-1.19-10 3.46 2.31 2.09 12.06 2.5 14-.46z" fill="#f87318" data-color="1"/>
        <path d="M109.6 44.37a30.16 30.16 0 0 1-6 .62c-3.64 0-5.22 2.25-3.1 4.37 1 1 7.28.79 9.45-.37 2.86-1.55 2.6-5.41-.35-4.62z" fill="#f87318" data-color="1"/>
        <path d="M197.91 44.83c-7 .05-9.38.87-8.59 2.94.86 2.24 14.26 2.24 15.12 0 .92-2.4-.36-2.98-6.53-2.94z" fill="#f87318" data-color="1"/>
        <path d="M255.61 49.66c4.19 1.69 16.35-.15 18.05-2.73 2.11-3.21-5.74-4-15.53-1.5-3.68.93-5.04 3.21-2.52 4.23z" fill="#f87318" data-color="1"/>
        <path d="M291.27 48.21c.56 1.48 1.6 1.63 7.35 1.1 11.07-1 11.5-3.83.68-4.52-6.95-.44-9.16.5-8.03 3.42z" fill="#f87318" data-color="1"/>
        <path d="M385.24 46.82c.29-2.06-.09-2.27-4.2-2.27-5.83 0-7.69.77-7.69 3.18 0 3.19 11.43 2.27 11.89-.91z" fill="#f87318" data-color="1"/>
        <path d="M408.4 49.22c5.79.61 7.54.27 7.54-1.47 0-2.14-4.27-3.52-8.54-2.76-5.96 1.07-5.4 3.57 1 4.23z" fill="#f87318" data-color="1"/>
        <path d="M447.48 48.19c1.3-2.11-1.68-3.43-7.27-3.23-6.21.22-6.88.52-6 2.77.69 1.85 12.16 2.27 13.27.46z" fill="#f87318" data-color="1"/>
        <path d="M466.63 47.5c1.73 2.08 10.62 2 11.43-.06a1.41 1.41 0 0 0-.65-1.93c-6.64-2.04-13.13-.84-10.78 1.99z" fill="#f87318" data-color="1"/>
        <path d="M496.85 46.56c.93 1.14 3.62 1.67 4.57 1.78a25.92 25.92 0 0 0 6.76-.11 5.2 5.2 0 0 0 1.94-.58 2 2 0 0 0 1.06-1.65c0-2.42-5.21-2.13-6.63-2.2-1.62-.07-6.74-.72-7.8 1.16a1.27 1.27 0 0 0 .1 1.6z" fill="#f87318" data-color="1"/>
        <path d="M531.3 47.64c7.43 1.42 11.87.28 11.87-3 0-2.2-13.45-1.3-13.87.92-.21 1.05.49 1.79 2 2.08z" fill="#f87318" data-color="1"/>
        <path d="M561.15 46a1.62 1.62 0 0 0 .16.45c.71 1.39 3.44 1.58 4.76 1.71 1.87.2 7.87.53 8.19-2.35a.34.34 0 0 0 0-.1c0-3.28-10.1-2.64-11.88-1.69a1.94 1.94 0 0 0-1.23 1.98z" fill="#f87318" data-color="1"/>
        <path d="M365.19 464.51a3.34 3.34 0 0 0-2.77 2.49c-.24 1.24-.37 2.5-.58 3.75-1-4-2.13-8-3.39-11.94a3.38 3.38 0 0 0-4.1-2.43 3.55 3.55 0 0 0-2.32 4.28 224.65 224.65 0 0 1 6.31 24.44c.57 2.84 1 5.7 1.46 8.56a142.94 142.94 0 0 0 .83 18.15q.75 6.54 2 13a3.33 3.33 0 0 0 3.66 2.49 3.42 3.42 0 0 0 2.89-3.41 234.52 234.52 0 0 0-2.76-30.89c.06-4.22.26-8.44.69-12.64.11-1 .22-2 .34-2.95 0 .14-.06.42 0 0a310.57 310.57 0 0 1 15.44 28.07 3.28 3.28 0 0 0 3.76 1.6 3.49 3.49 0 0 0 2.44-3.35c-.47-5.65-.94-11.29-1.1-17-.05-2.08 0-4.17 0-6.26l9.6 16.53a3.27 3.27 0 0 0 4.16 1.42 3.59 3.59 0 0 0 1.92-4.1q-1.91-13.64-3.83-27.26l8.43 10.16c2.14 2.58 6.68-.15 5.57-3.39a135.44 135.44 0 0 0-10.34-22.75c1.86 1.43 3.64 3 5.54 4.32q4 2.91 8.17 5.62a3.15 3.15 0 0 0 4.28-.94l10.64 12.31a3.25 3.25 0 0 0 4.71 0 3.67 3.67 0 0 0 0-4.92l-18-20.87c-2.26-2.62-6.42.12-5.57 3.35a214.09 214.09 0 0 1-26.35-22.16 3.27 3.27 0 0 0-4.71 0 3.66 3.66 0 0 0 0 4.92q3.31 3.68 6.34 7.6l.78 1c.07.08.34.45.42.56.49.67 1 1.34 1.46 2 .93 1.33 1.84 2.69 2.73 4 1.09 1.68 2.06 3.43 3.06 5.16a3.23 3.23 0 0 0-3.73-.31 3.78 3.78 0 0 0-1.53 3.93q1.55 11 3.1 22.06-3.21-5.52-6.41-11a3.3 3.3 0 0 0-6.09.84 110.32 110.32 0 0 0-.85 19.55c-4.06-7.49-8.31-14.86-12.95-22a3.35 3.35 0 0 0-3.35-1.59z" fill="#f87318" data-color="1"/>
        <path d="m329.5 554.14-.08-.06.09.08z" fill="#f87318" data-color="1"/>
        <path d="M291.3 391.46a9.65 9.65 0 0 0 3.74-1.85c6.33-3.06 8.47-11.58 8.68-18.35a16 16 0 0 0-3.62-11.2 11.18 11.18 0 0 0-1.56-1.37 1.88 1.88 0 0 1-.12-.18c-2.41-2.8-6.59-4.26-10.06-3-3.8 1.34-5.68 5-7.08 8.62a35.52 35.52 0 0 0-2.37 11.08c-.32 7.43 3.5 18.13 12.39 16.25z" fill="#f87318" data-color="1"/>
        <path d="M418.74 353.9a7.11 7.11 0 0 0-4.65-.22 10.81 10.81 0 0 0-10.39 2.15c-2.8 2.4-4.35 6.25-4.89 9.92-.58 4-.54 8.6 1.67 12.07a8.37 8.37 0 0 0 3.2 3 2.09 2.09 0 0 1 .14.17 11 11 0 0 0 1.1 1.26 14.51 14.51 0 0 0 5.39 3.53 8.57 8.57 0 0 0 7.6-.71 12.14 12.14 0 0 0 4.19-5.81 33.57 33.57 0 0 0 1.45-4.73 18.26 18.26 0 0 0 .89-3.75 16.9 16.9 0 0 0-1.35-8.77 8.36 8.36 0 0 0 .09-1.8 7.07 7.07 0 0 0-4.44-6.31z" fill="#f87318" data-color="1"/>
        <path d="M511.85 359.13c13-12 26.1-24.69 32.91-41.8a53.21 53.21 0 0 0 3.8-25.75 51.76 51.76 0 0 0-9-23.35c-10.16-14.59-25.44-23.47-40.67-31.19C482.88 229 465.92 222 448 221c-15.56-.86-31.69 3.2-44.05 13.38a52 52 0 0 0-4.22 3.91 3.35 3.35 0 0 0-.84 1.55 22 22 0 0 0-3.26-.7 48.19 48.19 0 0 0-14.32.82c-4.71.82-9.36 2-14.06 2.87a90 90 0 0 1-14.46 1.31c-9.92.18-19.8-.86-29.66-1.73-17.62-1.57-36.29-2.58-53 4.47a67.22 67.22 0 0 0-6.23 3 3.62 3.62 0 0 0-1.2 4.76 3.32 3.32 0 0 0 4.56 1.25c15.08-8.31 32.8-8.32 49.38-7.07 9.62.73 19.21 1.88 28.85 2.21a117 117 0 0 0 28.78-2.54A110.1 110.1 0 0 1 387.7 246c4.05-.37 8.51-.57 12.13 1.66 3.83 2.37 7.21 5.72 10.67 8.61s7.21 6 10.77 9 6.81 6 10 9.2a68.82 68.82 0 0 1 8.7 9.81 3.81 3.81 0 0 1 .78 1.63 17.32 17.32 0 0 1-.81 2.55 6.24 6.24 0 0 0 2.37 6.59 11.4 11.4 0 0 0 4.53 1.54 6.62 6.62 0 0 1 1.84.53 8.78 8.78 0 0 1 2.05 1.9c6.77 7.32 13.49 14.69 20.24 22 3.11 3.39 6.3 6.73 9.3 10.23a43 43 0 0 1 5.57 8.12 2.94 2.94 0 0 0 .87 2.26c.16.15.29.33.45.47s.09.28.14.42a3.62 3.62 0 0 0 0 4.86 3 3 0 0 0 2.21 1 3.66 3.66 0 0 0 1.06.57 3 3 0 0 0 2.41-.41l.33.47c.66.95 1.29 1.93 1.88 2.93.42.71.74 1.48 1.13 2.21a2.67 2.67 0 0 0 .44 1.66c.62.84 1.16 1.74 1.73 2.61.07.15.13.31.2.46l.2.48c.2.51.4 1 .59 1.55.43 1.16.83 2.34 1.19 3.52q1 3.4 1.78 6.9c.23 1.11.44 2.23.62 3.35.1.55.18 1.1.27 1.66l.15 1.12a1.93 1.93 0 0 1 0 .29c0 .22.06.43.08.65a148.82 148.82 0 0 1 .9 17.28c0 5.69-.14 11.37-.24 17.05a77.56 77.56 0 0 0-24.53-11.55 69.89 69.89 0 0 0-16.7-6.5c-8.46-2-17-1.6-25.49-.37-2.08.3-4.15.68-6.22 1-9.58-1.82-19.6.5-29 3.45a131.4 131.4 0 0 0-18.87 5 4.53 4.53 0 0 0-.61.34c-3.76-4.31-9.47-5.91-15-6.68-6.58-.93-13.41-1.9-20-.22a19.77 19.77 0 0 0-13.65 11.95 14.6 14.6 0 0 0-.17 9.82 114.89 114.89 0 0 0-16.77 15.8 3.13 3.13 0 0 0-3.38.8c-3.65 4.1-7.15 8.35-10.55 12.67.15-.48.32-.95.47-1.43a3.41 3.41 0 0 0-4.9-3.93 110.06 110.06 0 0 0-16.8 11.77 3.53 3.53 0 0 0-.85-1.11 3.22 3.22 0 0 0-4.37.28 58 58 0 0 0-11 18.1 3.52 3.52 0 0 0 1.39 3.81 61.1 61.1 0 0 0-1.47 10.94 3.37 3.37 0 0 0 5 3 143.62 143.62 0 0 0 18.76-11.89 3.48 3.48 0 0 0 2.26-1.59l.22-.19 2.16-1.69c-.13.75-.27 1.5-.44 2.24-.4 1.71-.9 3.39-1.46 5.05-.27.79-.56 1.58-.85 2.37-.15.4-.3.79-.46 1.18l-.25.66-.05.1v.12c-2.75 6.66-6 13.21-7.73 20.27a35.41 35.41 0 0 0-1 12.3 3.59 3.59 0 0 0 2.45 3.36 3.47 3.47 0 0 0 3.76-1.6c5.07-7.16 10-14.44 14.8-21.77a165.73 165.73 0 0 0-3.07 18.31q-.63 6-.79 12a3.48 3.48 0 0 0 2.44 3.35 3.3 3.3 0 0 0 3.76-1.6L321.63 495a264.34 264.34 0 0 0-2.27 33c0 5.18.26 10.36.77 15.51.18 1.81 1.41 3.57 3.33 3.48 1.66-.07 3.53-1.54 3.33-3.48a180.94 180.94 0 0 1-.47-27.25c.24-4.55.61-9.1 1.08-13.63q.35-3.41.75-6.81c.14-1.13.28-2.26.43-3.4v-.3l.09-.66c.08-.63.16-1.26.25-1.89.69-5.15 1.44-10.29 2.19-15.43a3.6 3.6 0 0 0-1.93-4.11 3.24 3.24 0 0 0-4.16 1.42l-17.62 38.43c.07-.42.12-.85.19-1.28a153.32 153.32 0 0 1 4.88-20.43c1.17-3.77 2.5-7.48 4-11.14.64-1.59-.56-3.5-1.93-4.1a3.27 3.27 0 0 0-4.15 1.42q-9.83 16.05-20.43 31.55c.19-.64.33-1.3.55-1.94.26-.8.54-1.58.84-2.37.14-.39.29-.79.45-1.18l.25-.66c0-.06.08-.2.13-.33 2.71-6.65 6-13.14 7.73-20.17a35.48 35.48 0 0 0 1.09-12.33 3.79 3.79 0 0 0-1.28-2.52c2.29-3.26 4.62-6.48 7.07-9.64.06 0 .09.1.15.14a3.34 3.34 0 0 0 4.56-1.25q1.36-2.2 2.84-4.35c.43-.62.86-1.24 1.3-1.85l.68-.94.14-.19c.16-.21.32-.43.49-.64q3.07-4.06 6.5-7.82t7-7.06q1.89-1.74 3.86-3.38l.86-.72.28-.22.17-.14 2-1.58c.07.05.1.14.17.19a15.19 15.19 0 0 0 1.73 1.14 12.67 12.67 0 0 0 2.93 4.73 3.57 3.57 0 0 0 1.25.74c.51.85 1 1.71 1.56 2.52a12.09 12.09 0 0 0 3.73 3.8 8.86 8.86 0 0 0 5.74 1c3.33-.47 6.54-2.06 9.56-3.53a69.34 69.34 0 0 0 16-11c2.41-2.19 4.66-4.73 5.62-8a11.86 11.86 0 0 0 0-6.09c12.75-2.25 25.5-4.55 38.25-6.77 4.1-.06 8.22.06 12.35.39a3.34 3.34 0 0 0 3.26-3c2.39-.32 4.78-.59 7.21-.71a59.49 59.49 0 0 1 6.12 0 38.79 38.79 0 0 1 5.37.6c1.32.23 2.58.57 3.85.9a3.32 3.32 0 0 0 .27 2.38c.72 1.25 1.39 2.55 2.11 3.81a148.67 148.67 0 0 0-22.33-.37 155.11 155.11 0 0 0-17.3 2 3.49 3.49 0 0 0-2.45 3.36c0 1.4 1 3.12 2.45 3.35a249 249 0 0 1 25.59 5.22 88.92 88.92 0 0 1 18 6.84q-8.88-2.43-17.88-4.24a3.33 3.33 0 0 0-3.93 2c-.55 1.44-.18 3.66 1.37 4.35 8.24 3.64 16.47 7.35 24.38 11.75.69.38 1.37.8 2.05 1.2a78 78 0 0 0 12.25 14.46c-12.87-8.43-25.07-18-38.76-25-10.89-5.55-22.65-9.47-34.87-9.46a3.38 3.38 0 0 0-3.27 3 3.53 3.53 0 0 0 2.38 3.82c1.41.52 2.81 1.07 4.2 1.66l1 .41.54.25c.76.34 1.52.7 2.27 1.07q4.06 2 7.94 4.34c2.63 1.59 5.19 3.32 7.67 5.16.59.43 1.17.87 1.75 1.32l.93.73.4.32.07.06q1.77 1.44 3.48 3a107.66 107.66 0 0 1 12.79 13.6c.46.58.91 1.17 1.36 1.76l.46.61.14.19.15.21a3.4 3.4 0 0 0-1 .57 3.67 3.67 0 0 0-.86 4.49A89.9 89.9 0 0 0 474.16 498a3.1 3.1 0 0 0 2.89.88c.32.59.67 1.16 1 1.77a56.23 56.23 0 0 1 4.1 10.25c-6.56-9.41-13.31-18.67-20.46-27.58Q457.4 478 453 472.77a3.26 3.26 0 0 0-4-.55 3.57 3.57 0 0 0-1.53 3.93l1.3 3.21a3.11 3.11 0 0 0-1.39 0 3.47 3.47 0 0 0-2.45 3.35c1.48 17.26 3.07 34.51 4.43 51.78.08 1.06.15 2.13.2 3.19-.45-.82-.91-1.64-1.37-2.45-1.61-2.89-6.37-1.77-6.2 1.75a81.39 81.39 0 0 1-1.82 21.13l-6.29-14.85a3.24 3.24 0 0 0-3.31-1.66 3.45 3.45 0 0 0-2.77 2.49c-2.84 8.28-5.89 16.48-9.06 24.63a40.22 40.22 0 0 1-2-16.27c.22-2.72-3-4.2-5-3-5.17 3-7.43 8.88-9.43 14.39-.45 1.24-.9 2.47-1.39 3.7-.07.17-.21.5-.24.59l-.32.71c-.29.62-.59 1.23-.92 1.82-.23.41-.49.8-.74 1.19a77.56 77.56 0 0 1-1.75-14.48 3.51 3.51 0 0 0-2.05-3.18 3.19 3.19 0 0 0-3.64.72l-18 23.74a47 47 0 0 1-2.32-20.42 3.43 3.43 0 0 0-2.05-3.18 3.23 3.23 0 0 0-3.64.72l-16.05 16.48c-.11-.29-.27-.6-.36-.87a31.23 31.23 0 0 1-1.31-5.82l-.11-1c-.05-.51-.09-1-.13-1.54-.07-1-.11-2.06-.14-3.09a.75.75 0 0 0 0-.15c.61-.63 1.21-1.27 1.81-1.9.37-.38.73-.76 1.11-1.13a10.87 10.87 0 0 1 1.1-1c.13-.08.25-.18.37-.27s.44-.31.67-.45l.59-.35.25-.13a10.91 10.91 0 0 1 1.35-.39c.07 0 .57-.06.71-.06.43 0 .85 0 1.28.06h.38c.38.08.75.13 1.12.2.81.15 1.61.31 2.41.43a15.68 15.68 0 0 0 5.38 0c4.75-.86 8.22-4.76 11.52-8.11.81-.83 1.63-1.64 2.51-2.4.1-.08.68-.53.3-.25s.29-.22.4-.3a16.82 16.82 0 0 1 1.44-.93l.7-.36h.05c.25-.08.5-.18.75-.25l.58-.15.31-.07h.37a3.55 3.55 0 0 1 .46 0h1.1l1.11.08h.15l.54.09c3.18.57 6.27 1.56 9.51 1.81a17 17 0 0 0 8.51-1.71A19.52 19.52 0 0 0 417 525.4a3.43 3.43 0 0 0-3.33-3.48 3.48 3.48 0 0 0-3.33 3.48 6.12 6.12 0 0 1-.09 1.05c0 .17-.07.34-.09.42-.15.7-.38 1.36-.59 2 0 0-.2.51-.27.67-.15.32-.32.63-.49.94s-.36.61-.55.91-.19.29-.29.44v.08a.23.23 0 0 0-.06.07c-.45.55-.91 1.08-1.41 1.58-.25.25-.51.48-.77.71l-.05.05-.51.39a18 18 0 0 1-1.77 1.1l-.6.29c-.33.13-.65.26-1 .37-.12 0-1.1.33-1.64.45-.2 0-.34.07-.35 0h.3-2.05c-.45 0-.85-.06-1.28-.1h-.3l-.42-.07c-.91-.17-1.82-.38-2.72-.59-3.87-.9-7.89-1.85-11.82-.7-5.64 1.65-9 6.77-13.36 10.47l-.21.18-.74.53c-.16.11-1.62 1.12-1.73 1s.69-.26.19-.09l-.41.15a8.29 8.29 0 0 1-.85.25l-.44.09c-.64.15.22 0 .22 0-.17.21-1.35 0-1.61 0s-1.29-.13-.72 0c-.43-.06-.86-.14-1.28-.22-1.15-.22-2.29-.43-3.45-.59a12.24 12.24 0 0 0-5.51.4 15.9 15.9 0 0 0-5.62 3.56 3.17 3.17 0 0 0-.94-.65 3.36 3.36 0 0 0-3.64.72c-1.3 1.09-2.51 2.29-3.78 3.41a30.47 30.47 0 0 0-1.48-3 9.55 9.55 0 0 0-4.24-4.08c-2.73-1.2-5.54-.55-8.09.84a59.63 59.63 0 0 0-5.94 3.91q-3 2.14-5.94 4.49a130.76 130.76 0 0 0-11 9.89c-1.86 1.88-3.65 3.83-5.4 5.82a3.39 3.39 0 0 0-.41.15l-.84-12.84c-.17-2.61-2.7-4.36-5-3-3.69 2.16-7.27 4.51-10.79 7 0 0 .1-.25.15-.41l.21-.5c.21-.49.42-1 .65-1.44a42.89 42.89 0 0 1 3-5.35c.29-.43.58-.87.88-1.29l.13-.18c.15-.21.31-.42.47-.62.67-.87 1.37-1.7 2.1-2.5a3.66 3.66 0 0 0 0-4.93 3.46 3.46 0 0 0-2.94-.89l7.77-10.66a123.16 123.16 0 0 0 5.07 20.18c.6 1.7 2.28 3 4.1 2.43a3.54 3.54 0 0 0 2.32-4.28 121.66 121.66 0 0 1-3.94-13.56c-.51-2.23-1-4.49-1.34-6.76-.21-1.19-.39-2.39-.56-3.58l-.09-.72c.07.53 0-.25-.05-.34-.08-.66-.15-1.32-.22-2a3.58 3.58 0 0 0-2.45-3.35 3.47 3.47 0 0 0-3.76 1.6L273.78 547v-24.75a3.53 3.53 0 0 0-2.45-3.36 3.43 3.43 0 0 0-3.76 1.6l-16.74 25.41a15.7 15.7 0 0 1 0-1.68v-.37c.08-.4.15-.81.23-1.21.23-1.14.46-2.28.7-3.41.49-2.27 1-4.54 1.53-6.79q3.18-13.37 7.57-26.38 2.46-7.28 5.28-14.4a3.53 3.53 0 0 0-1.53-3.93 3.29 3.29 0 0 0-4 .54A249.56 249.56 0 0 0 239.33 515a47.7 47.7 0 0 1 1.37-4.7q.95-3 1.94-5.94 2-5.83 4.1-11.6c.73-1.95 1.46-3.89 2.22-5.83s1.5-3.83 2.11-5.3q2.63-6.47 5.49-12.8c.74-1.65.49-3.83-1.2-4.77a3.33 3.33 0 0 0-4.55 1.25l-22.9 33.86-1.32 1.95c.22-.76.47-1.51.74-2.26.15-.41.31-.81.47-1.22-.06.16-.24.59 0-.12.11-.28.23-.57.34-.86q1.23-3 2.48-6 4.89-11.61 10.29-22.95 3.1-6.51 6.37-12.93a3.63 3.63 0 0 0-1.19-4.76 3.35 3.35 0 0 0-4.56 1.25L215.78 489l-3.2 4.66c0-.13.06-.47.06-.5l.06-.38a25 25 0 0 1 .85-3.3c.16-.48.32-.95.5-1.42 0 0 .15-.36.2-.5s.16-.37.15-.36c.46-1.06 1-2.1 1.49-3.12 1.19-2.31 2.46-4.58 3.7-6.87l15.79-29.24q4.45-8.22 8.9-16.46a3.62 3.62 0 0 0-1.2-4.76 3.06 3.06 0 0 0-3.24.06c1.92-2.36 3.82-4.74 5.77-7.08 1-1.2 2-2.36 3-3.55a3.45 3.45 0 0 0 1.25-.77c1-1 2.07-1.93 3.16-2.82l.37-.29 1-.75c.5-.37 1-.72 1.51-1.07a50.85 50.85 0 0 1 7.35-4.17l.37-.16h.1l.84-.36c.67-.27 1.33-.52 2-.76 1.3-.47 2.61-.88 3.94-1.23.54-.14 1.09-.24 1.64-.36l-1.27 1.09c-.44.38-.89.75-1.33 1.11l-.36.29-.59.47a128 128 0 0 1-11.12 7.9 3.64 3.64 0 0 0-1.2 4.77 3.35 3.35 0 0 0 4.56 1.24c1.8-.83 2.93-1.32 4.94-2.15 1.82-.74 3.66-1.45 5.51-2.11 3.7-1.33 7.46-2.51 11.25-3.52s7.63-1.85 11.49-2.52l2.91-.48.7-.11h.17c.58-.08 1.17-.16 1.75-.22 2-.24 4-.41 6-.49 1 0 2 0 3 .05l-6.62 3.79a42.49 42.49 0 0 0-27.51 11.29A40.76 40.76 0 0 0 267 433a3.43 3.43 0 0 0 4.56 4.76l32-18.35c1.16 0 2.32 0 3.46.16l.45.06h.09l1.29.24c.9.18 1.8.41 2.68.66a3.36 3.36 0 0 0 4.1-2.43 3.57 3.57 0 0 0-2.33-4.28l7.7-4.41c2.49-1.42 2-5.66-.79-6.36-8.49-2.17-17.2-1.58-25.75-.22a134.62 134.62 0 0 0-15.46 3.53c.21-.22.46-.4.65-.63 1.95-2.32 3.34-5.73 1.46-8.59a3.33 3.33 0 0 0-2.88-1.73 53.67 53.67 0 0 0-19.45 5.5 3 3 0 0 0-.55-.84 3.37 3.37 0 0 0-2.61-.94 3.63 3.63 0 0 0 1.94-3.18 3.5 3.5 0 0 0-3.33-3.48c-14.33-1.63-29 3.52-40 13.09a3.2 3.2 0 0 0-3.65-1.13v-.05l-.07-.08-.05-.05-.15-.25c-.12-.21-.23-.43-.34-.64s-.06-.14-.09-.22a.89.89 0 0 0 0-.11c-.14-.48-.23-1-.35-1.44v-1.1c.06-1.07.16-2.13.18-3.2 0-2.44-.2-5.21-1.57-7.28a7.55 7.55 0 0 0-3.56-2.93 9.57 9.57 0 0 0-1.77-.45l-.63-.13c0-.08 0-.1 0 0v-.17a2.11 2.11 0 0 0 0-.26c0-.16.05-.31.09-.47a5 5 0 0 1 .47-1.49l-.07.1a2.63 2.63 0 0 0 .18-.3c.11-.23.22-.46.34-.68a17.23 17.23 0 0 1 .89-1.49c.08-.11.54-.69.22-.32s.25-.3.34-.41c.48-.61.95-1.23 1.42-1.85a134.69 134.69 0 0 0 9.68-15.16c5.77-10.29 10.4-21.21 14.9-32.16 4.89-11.88 10-23.77 11.37-36.76.33-3.18.46-6.38.7-9.56.06-.8.12-1.59.2-2.39 0-.25.05-.51.08-.76a2.56 2.56 0 0 0 .84-1.47 68.69 68.69 0 0 1 1.78-8.67l.08-.18c.27-.55.56-1.08.88-1.61s.57-.9.87-1.34c.06-.08.17-.25.26-.35.23-.29.46-.57.71-.84s.74-.79 1.14-1.16l.6-.53c-.59.51.23-.14.39-.26a14.68 14.68 0 0 1 1.37-.83l.48-.24h.18l.51-.18a3.57 3.57 0 0 0 2.33-4.28 3.38 3.38 0 0 0-4-2.44c.55-1 1.11-2 1.71-2.94.26.42.53.85.78 1.28a3.28 3.28 0 0 0 4.55 1.25 3.63 3.63 0 0 0 1.2-4.76c-6-10.45-16.73-17.06-27.93-19.6a71.42 71.42 0 0 0-20.47-1.35 128.71 128.71 0 0 0-19.33 2.74c-2 .45-4.06 1-6.07 1.63a75.47 75.47 0 0 0-13.15 4.31 41.72 41.72 0 0 0-14.41 9.77c-6.71 7.38-8.87 17.3-9.07 27.18-.54 2.54-1 5.11-1.27 7.7-1.64 14.4.72 29 3.35 43.09l1 5.22a3.32 3.32 0 0 0 6.09.84c.68-1.39 1.43-2.73 2.15-4.08a2.9 2.9 0 0 0 1.8-1.44 124.64 124.64 0 0 1 6.91-11.91l.72-1.07c1.3-.79 2.65-1.49 4-2.15.94-.46 1.89-.88 2.84-1.3a3.64 3.64 0 0 0 .84 3.19l6.16 6.72a3.3 3.3 0 0 0 2.48 1c.43.43.88.83 1.3 1.27 1.5 1.6 2.94 3.25 4.31 5 .63.78 1.24 1.57 1.84 2.38.11.14.29.39.3.41l.37.51 1.08 1.55a85.94 85.94 0 0 1 6.51 11.39c1.9 4 4.39 8.25 9.11 8.66a7.43 7.43 0 0 0 2.06-.14c-.85 1.66-1.67 3.33-2.57 5-1.48 2.69-3 5.34-4.68 7.92q-1.25 2-2.58 3.9c-.41.6-.82 1.19-1.25 1.78l-.67.92-.39.52c-1.65 2.19-3.43 4.24-4.5 6.83-1 2.42-1.75 5.21-.82 7.79a6.52 6.52 0 0 0 3 3.61 7.82 7.82 0 0 0 2.38.82c.37.07.73.16 1.1.24h.14l.09.09s.2.46.21.44c0 .15.08.29.09.35s.1.39.13.6a1.79 1.79 0 0 1 0 .23 17 17 0 0 1 .05 1.75c0 2.59-.4 5 .37 7.57.84 2.74 2.58 5.55 5.36 6.41a57.25 57.25 0 0 0-3.6 4.7 3.63 3.63 0 0 0 .52 4.22 3.35 3.35 0 0 0 4 .54c.63-.35 1.24-.75 1.87-1.1a120.94 120.94 0 0 0-11.79 17 87.78 87.78 0 0 0-5.28 11.23 3.54 3.54 0 0 0 1.53 3.93 3.33 3.33 0 0 0 4-.54l4.69-4.67a3.13 3.13 0 0 0 .94 2.34 6.21 6.21 0 0 0 3.73 1.63 7.32 7.32 0 0 0 3.59-.89 10.65 10.65 0 0 0 1.8-1.27c-1.43 2.05-2.81 4.12-4.09 6.28a54.75 54.75 0 0 0-6.76 16.91c-.27 1.38.16 3.28 1.53 3.93a6.06 6.06 0 0 0 6.15-.31 13.21 13.21 0 0 0 3.33-3.38l-1.07 2c-2.49 4.61-5.21 9.17-6.81 14.22a21.79 21.79 0 0 0-1.13 7.72 14.42 14.42 0 0 0 3.09 8.25 3 3 0 0 0 2.79 1 3.45 3.45 0 0 0 2.44-1.67l10.33-15.08a93 93 0 0 0-4.5 11.66 19.14 19.14 0 0 0-.78 6.34 12.37 12.37 0 0 0 2.66 6.95c1.47 1.88 4.12 1 5.23-.7l11.76-17.38c-1 2.76-2 5.51-2.93 8.3-1.3 3.89-2.89 7.85-3.39 12s.81 8.61 5 10.13a3.33 3.33 0 0 0 3.76-1.6 239.213 239.213 0 0 1 8.22-11.68c1.06-1.42 2-2.61 3-3.9.36-.46.77-.87 1.13-1.33-1.16 3.54-2.31 7.09-3.34 10.67q-2 6.85-3.6 13.82c-.56 2.38-1.08 4.76-1.58 7.15a41.85 41.85 0 0 0-1 6.37c-.22 4.29 1.29 9.47 5.85 10.48a3.42 3.42 0 0 0 3.76-1.6l13.33-20.28v23.82a3.52 3.52 0 0 0 2.45 3.36 3.41 3.41 0 0 0 3.61-1.44 46.38 46.38 0 0 0-3.58 12 3.69 3.69 0 0 0 1.19 3.66 3.18 3.18 0 0 0 3.7.27c4.32-3.34 8.83-6.4 13.43-9.3q.51 8 1 16a3.53 3.53 0 0 0 2 3.18 3.17 3.17 0 0 0 3.64-.72c.86-1.13 1.8-2.19 2.7-3.29 3.82 1.43 8.49-.2 11.84-3 2.06-1.7 3.54-4 5.26-6.06.47-.54 1-1.08 1.45-1.58.26-.27.54-.52.82-.78l.13-.13.17-.11.17-.1 1.59 6.68a3.31 3.31 0 0 0 5.57 1.53c3.87-4.41 8-8.57 12.21-12.6a3.56 3.56 0 0 0 3.64.11c.23-.1.42-.26.64-.37.49 5.38 1.73 10.63 4.74 15.13a3.3 3.3 0 0 0 5.23.71L364 566.69a53.79 53.79 0 0 0 5.36 20.47c.9 1.84 3.92 2.43 5.23.71l16.24-21.39A87.06 87.06 0 0 0 393.3 579c.45 1.63 2.41 3.16 4.09 2.43a15.6 15.6 0 0 0 6.95-5.95 38.13 38.13 0 0 0 3.66-8c.48-1.31.95-2.63 1.45-3.94l.27-.68c.1-.24.19-.48.3-.71s.19-.41.28-.61a46.92 46.92 0 0 0 5.7 17.71c1.15 2 4.74 2.52 5.75 0 3.34-8.26 6.47-16.62 9.49-25q3.34 7.93 6.71 15.87a3.25 3.25 0 0 0 3.32 1.66h.11a3 3 0 0 0 2.09.85c11.48-.2 19.2-10 26.48-18 .06.2.13.4.19.61.22.79.44 1.59.74 2.37.95 2.47 2.53 4.59 5.27 4.76a3.55 3.55 0 0 0 2.83-1 11.35 11.35 0 0 0 1.61-2.92c.82-1.64 1.63-3.29 2.44-4.93l7.29-14.8c.49 1.4.88 2.84 1.42 4.22.76 1.93 1.41 4.1 2.83 5.64a5.12 5.12 0 0 0 6.59 1c1.85-1.19 2.64-3.29 3.39-5.29l2.25-6.29q2.28-6.07 4.54-12.17l2.73-7.32a36.48 36.48 0 0 0 4.64 5.05 3.33 3.33 0 0 0 4 .54 3.72 3.72 0 0 0 1.53-3.93 121.29 121.29 0 0 0-11.53-34.77 3.28 3.28 0 0 0-4.56-1.25A3.65 3.65 0 0 0 507 489c1.32 2.6 2.56 5.25 3.69 7.95.09.21.18.43.26.65s.16.37.11.25c0 .06 0 .1.09.22s.13.32.19.49q.42 1.07.81 2.13c.51 1.38 1 2.76 1.45 4.15.33 1 .57 2 .87 3a3.36 3.36 0 0 0-1.58-.26 3.51 3.51 0 0 0-2.77 2.49Q506.06 521 502 531.9c-1.2 3.22-2.42 6.43-3.6 9.66-.07-.18-.12-.32-.23-.59q-2.31-5.91-4.07-12a3.52 3.52 0 0 0-4-2.44 3.69 3.69 0 0 0 .66-2c.06-14.68-6.27-27.76-14.34-39.38a113.41 113.41 0 0 0-14.58-25.79 108.54 108.54 0 0 0-25.48-24.24c2.49 1 4.93 2 7.31 3.22 9.92 4.9 19.06 11.23 28.17 17.57s18.25 12.7 28.17 17.58a108.2 108.2 0 0 0 7.8 3.46 29.88 29.88 0 0 0 8 2.41 6.84 6.84 0 0 0 7.34-4.76c.88-2.82.08-5.89-.38-8.71q-2.65-16-5.29-32a3.46 3.46 0 0 0 2.48-.34 3.65 3.65 0 0 0 1.53-3.93 12 12 0 0 0-7.08-8.36c-1.34-1.32-2.72-2.6-4.16-3.82a4.75 4.75 0 0 0 .57-1.07c6.21-15.84 5.61-34-.53-49.75-.51-2.27-1.14-4.51-1.85-6.71a3.61 3.61 0 0 0 3.41-.78zM273 480.54l.18-1.14a56.6 56.6 0 0 1 2-7.81c.12-.37.26-.74.39-1.12 2.17-2.43 4.42-4.8 6.79-7 1-.92 2-1.81 3-2.69.52-.46 1.05-.91 1.58-1.35l.75-.62.37-.3c2.09-1.62 4.19-3.21 6.36-4.69-.24.67-.48 1.34-.73 2s-.46 1.22-.7 1.83l-.33.82-.09.23-.1.26c-1.79 4.33-3.8 8.55-5.94 12.7a145.58 145.58 0 0 1-4.46 3.21c-2.87 1.97-5.94 3.86-9.07 5.67zm86-63.9-.09.1a.35.35 0 0 1 .12-.14zm-8.48-1.09h-.11a.59.59 0 0 1 .26 0zm-.86 0h-.08.09zm10.15-1.21a.63.63 0 0 1-.06-.2s.06.15.06.21zm12.39-4.9-.2-.14.28.14zm-3.91-2 .47.2.58.27.16.08a7.57 7.57 0 0 0-2.18-.32 11.61 11.61 0 0 0-2.18.33 12.34 12.34 0 0 0-3-2.39l.6.1a25.49 25.49 0 0 1 2.7.7c.99.31 1.93.66 2.85 1.04zm-27.79 4c.15-.31.31-.61.47-.91a11.49 11.49 0 0 0-.57 2.2l-.21-.34c.06-.21.13-.43.2-.64s.08-.21.11-.31zm14.24 20.44-.48.11-.36.06h-.98l-.19-.06-.2-.06-.12-.06c-.12-.07-.24-.17-.36-.23l-.07-.08c-.2-.21-.4-.41-.59-.63s-.31-.42-.31-.42c-.34-.52-.68-1-1-1.58.44 0 .88-.09 1.32-.14 0 .07.08.16.14.23a7.29 7.29 0 0 0 4.41 2.53l-.21.08c-.36.07-.68.17-1 .25zm25-17.9c-.05.17-.1.38-.12.44s-.08.29-.13.43a.81.81 0 0 1 0 .11c-.31.5-.58 1-.89 1.52l-.22.27c-.26.31-.52.61-.8.9-.07.08-.16.15-.23.22l.17-.38a7.22 7.22 0 0 0 .39-3.08l1.77-2.51v.14l.09.41v.84c.03.19-.02.61-.02.71zM298 419.65h.1zm-22.7-19.6a.78.78 0 0 0 0-.16s.07.11.04.16zm-62.91-52.7-.43.16h-.72c-.06 0-.28-.15-.44-.26l-.23-.21-.34-.36c-.14-.15-.26-.31-.38-.46v-.07a28.19 28.19 0 0 1-1.43-2.58 103.89 103.89 0 0 0-6.19-11.3 88.11 88.11 0 0 0-15.47-18 5.94 5.94 0 0 1-.3-1.09s.05 0 0-.29v-1.73c0-.41 0-.67.07-1a3.59 3.59 0 0 1 .07-.45 19.45 19.45 0 0 1 .56-2.28.5.5 0 0 1 0-.13 33.37 33.37 0 0 0 3.85-2.7 18.86 18.86 0 0 0 5.1-6.63l10.6-9.07a41.08 41.08 0 0 0 6.43-5.5 3.77 3.77 0 0 0 .86-3.09c.47-.52 1-1 1.43-1.58a3.91 3.91 0 0 0 .9-2.64l5-4.93a3.15 3.15 0 0 0 .9-2.93q3.3-3.45 6.59-6.92a3.63 3.63 0 0 0 0-4.92 3.3 3.3 0 0 0-4.71 0L212.77 267c-.86.29-1.71.61-2.56.92a3.58 3.58 0 0 0-.12-4 3.23 3.23 0 0 0-4.29-.89 164.41 164.41 0 0 0-29 22.22 3.58 3.58 0 0 0-.26 4.57 3.3 3.3 0 0 0 1.87 1.24c-2.7 3.29-5.31 6.67-7.74 10.2a2.91 2.91 0 0 0-.44 2.31c-.64.78-1.24 1.58-1.86 2.37q-2.43 2.9-4.66 5.94c-.45.35-.93.63-1.35 1a16.9 16.9 0 0 0-2.14 2.33c-.57-2.84-1.11-5.7-1.58-8.57-1.08-6.57-1.82-12.1-2.41-18.75-.27-3.15-.39-6.31-.38-9.48.31-1.38.54-2.78.93-4.15s.83-2.7 1.32-4c.12-.33.24-.66.37-1 0-.11.11-.31.16-.42.27-.65.54-1.3.83-1.94a51.14 51.14 0 0 1 3.94-7.15c.36-.54.73-1.06 1.09-1.58.09-.12.18-.23.26-.35l.73-.92c.84-1 1.72-2 2.64-3s2-1.91 3.06-2.82l.27-.21.87-.66c.58-.42 1.17-.83 1.76-1.23 1.2-.79 2.43-1.53 3.69-2.2.59-.31 1.18-.62 1.77-.91l1-.46.42-.19.15-.07a69.79 69.79 0 0 1 7.41-2.57c.69-.16 1.39-.33 2.08-.46l1.76-.32 1-.17.44-.07.34-.05h.1l.59-.08.89-.1c.68-.08 1.38-.15 2.07-.21 1.28-.11 2.57-.19 3.85-.24a76.8 76.8 0 0 1 8 .09c1.29.07 2.57.18 3.86.32l1.92.24h.25c.4 0 .79.12 1.18.18a81.75 81.75 0 0 1 15.26 4c1.26.47 2.5 1 3.74 1.51l.16.06.14.07.82.37c.63.29 1.26.6 1.89.91a79.08 79.08 0 0 1 7.06 4l.41.28a69.73 69.73 0 0 0-7.36 17.55 37.22 37.22 0 0 0-2 6.89 13.61 13.61 0 0 0-5.97 6.45c-2.12 4.17-3.36 8.89-4.85 13.33-1.69 5-3.44 10-5 15a58.29 58.29 0 0 0-2.74 14c-.14 2.08-.21 4.16-.32 6.24-.06 1-.12 2-.21 2.94 0 .49-.09 1-.15 1.45a.77.77 0 0 1 0 .1v.12c0 .28-.08.56-.13.84a28 28 0 0 1-.6 2.75c-.12.44-.26.88-.41 1.32l-.18.5-.2.44a18.94 18.94 0 0 1-1.35 2.36c-.18.21-.34.42-.51.63l-.42.44-.59.54-.39.26zm2.3-2.08c-.05.14-.29.39.04 0zm10.18-18.17c.06-1 .13-2 .22-2.94 0-.16.11-.9.12-1 .08-.59.17-1.18.28-1.77.95-5.06 2.79-9.9 4.42-14.75 1.86-5.52 3.65-11.07 5.59-16.57l.22-.61v-.06c-.09 1.41-.18 2.83-.3 4.24-.07.8-.16 1.59-.24 2.39v.07c0 .2-.05.41-.08.62-.06.41-.13.83-.19 1.24a78.72 78.72 0 0 1-2.26 9.6c-.94 3.16-2 6.27-3.21 9.35-1.23 3.24-2.15 5.44-3.45 8.64-.4 1-.81 1.93-1.2 2.9zM202 386.62zm-.59-12.77c-.17.29-.02.08.04 0zm.38 12.6c-.13-.05-.1-.05 0 0zm1 8.82v.13s.1-.06.09-.13zm7 48.09c-.13.05-.23.07 0 0zm12.23 6.15.58-.8.13-.18c.44-.59.87-1.18 1.31-1.76q5.6-7.41 11.39-14.66l-19.73 27.06c1.24-2.21 2.61-4.34 4-6.43.84-1.09 1.6-2.17 2.38-3.23zm11.53-47.63a48.72 48.72 0 0 1 4.83-1.46c.77-.19 1.55-.36 2.32-.52l1.24-.22.55-.09h.32a48.17 48.17 0 0 1 11.32-.11c.11 0 .21-.05.32-.05a3.27 3.27 0 0 0-1 .69l-30.36 30.44a.76.76 0 0 0 .08-.11 217.41 217.41 0 0 1 14.38-16.64 3.63 3.63 0 0 0 0-4.92 3.3 3.3 0 0 0-4.71 0l-20 19.9.23-.3c1-1.34 2.05-2.66 3.1-4 2.16-2.66 4.38-5.24 6.65-7.79 2.58-2.91 5.22-5.77 7.86-8.62a3.61 3.61 0 0 0 .26-4.57 3.08 3.08 0 0 0-.42-.39h.07l.53-.23c.82-.39 1.66-.71 2.49-1.01zm-23.52 2.64h.22c-.14.05-.27.06-.4.12zm-.63-2.66a.34.34 0 0 1 0-.17c.05.09.06.18.06.17zm30 116.84h.07s.09.06.03 0zm-.1-.17s.11-.01.1 0zm.16.18-.08-.05-.06-.12a.31.31 0 0 1 .24.17zm11.88 29.79h-.07s.09 0 .1.06zm-.57-4.55a.62.62 0 0 1 0-.32s.12.18.1.37zm54.52 28.31-.53.48-.3.21-.35.23c.88-.92 1.72-1.89 2.63-2.78.23-.22.48-.42.71-.65-.32.39-.63.78-.95 1.16a15.53 15.53 0 0 1-1.11 1.35zm18.41-4.14c-.35-1.45-.69-2.91-1-4.37a3.38 3.38 0 0 0-3.21-2.55 11 11 0 0 0-3.22.81l.46-.36c1.19-.93 2.4-1.83 3.62-2.72s2.55-1.8 3.85-2.66c.58-.39 1.17-.78 1.76-1.15.32-.2.64-.4 1-.58l.43-.24.19-.1h.05c.35-.1.69-.22 1-.31-.71.18.56 0 .21 0s.24.07.34.1l.1.07a.28.28 0 0 1-.07-.09.6.6 0 0 0 .14.15c.13.1.11.09 0 0l.28.24.26.31.2.32a42.2 42.2 0 0 1 2.14 4.38c-2.8 2.84-5.64 5.77-8.43 8.75zm152.37-16c-.92-2.8-2.52-5.53-5.73-5.52-2.54 0-4.23 1.91-5.84 3.69-1.28 1.42-2.54 2.86-3.83 4.27s-2.54 2.74-3.88 4c-.65.62-1.3 1.23-2 1.82l-1 .81h-.07l-.66.5a24.94 24.94 0 0 1-2.46 1.63c-.46.27-.93.52-1.4.76l-.47.22h-.17a21.83 21.83 0 0 1-2.85.88l-.65.13h-.07a86.54 86.54 0 0 0 3.1-16.3l.87 1.55a3.32 3.32 0 0 0 6.09-.83c2.17-8.4.63-17.41-.1-25.92l-2.24-26.18 11.64 20.63a3.26 3.26 0 0 0 4.16 1.43c1.35-.63 2.58-2.49 1.93-4.11q-4.23-10.47-8.45-20.95c5.13 6.63 10.13 13.37 14.92 20.28q3.82 5.52 7.52 11.15a3.39 3.39 0 0 0 3.62 1.62c-.05.09-.13.16-.18.26q-5.79 12.16-11.7 24.18zM461 300.19l-5.34-5.82a13.56 13.56 0 0 0-5.51-4.05 18 18 0 0 0-2.2-.51c-.34-.06-.69-.13-1-.21l-.28-.07a10.76 10.76 0 0 0 .76-3.09c.18-2.56-1-4.77-2.46-6.71s-2.95-3.7-4.52-5.46a132.47 132.47 0 0 0-10-9.95c-7.26-6.55-14.88-12.69-22.38-18.94-1-.87-2.11-1.72-3.2-2.53 10.11-10.26 24.29-14.8 38.14-15 16.36-.25 32.27 5.44 47 12.48 14.39 6.89 29.55 14.56 40.34 27a49.19 49.19 0 0 1 10.62 19.41 43.28 43.28 0 0 1-.7 23.32c-4.58 15.66-15.58 27.63-27 38.45 0-1 0-2 .06-3.06a3.23 3.23 0 0 0 3.81-2.4 53.64 53.64 0 0 0-.36-23.59 76.74 76.74 0 0 0-5.78-24.65 69.41 69.41 0 0 0-30.05-33.55 67.07 67.07 0 0 0-22.63-7.68c-.22-.05-.44-.12-.66-.15-.3 0-.59-.12-.88-.16-1.62-.21-3.1 1.49-3.27 3s.73 3.53 2.38 3.82c.24 0 .48.11.72.16-.3 0-.59 0-.89.06a3 3 0 0 0-2.18 2.22 39.62 39.62 0 0 0-4.47.59H449c-.3.06-.6.06-.89.12a3.47 3.47 0 0 0-2.39 3.82c.22 1.52 1.61 3.25 3.27 3 11.49-1.6 22.61 3.34 31.14 11.34 9.31 8.73 15.06 20.6 19.15 32.77 2.42 7.19 4.33 14.54 6.21 21.88-.81-.05-1.61 0-2.42 0a2.86 2.86 0 0 0-3.36-1.17 42.56 42.56 0 0 0-4.86 2.46 9.78 9.78 0 0 0-3-1.34c-2.62-5-6.46-9.39-10.2-13.46q-10.33-11.15-20.65-22.35zm10.88 106.44c1.57.27 3.15.57 4.71.95.28.07.55.16.82.24s.76.38 1.13.59c1.15.64 2.21 1.41 3.33 2.1-2.88-.6-5.78-1.14-8.69-1.57zm-21.44 7.67a145.5 145.5 0 0 1 18.56 1.09c1.38 2.5 2.8 5 4.16 7.5a100 100 0 0 0-22.72-8.59zm31.22 25.26.19.07a.25.25 0 0 0 0 .07zm34.26 32.79-.22-.06-.82-.22c-.6-.17-1.19-.38-1.78-.58-1.3-.45-2.59-.94-3.87-1.45-.28-.11-.53-.23-.79-.34a3.69 3.69 0 0 0 .34-.25 3.63 3.63 0 0 0 .52-4.22A77.6 77.6 0 0 0 493.48 448c-1.34-2.77-2.65-5.56-4-8.32a3.7 3.7 0 0 0-.26-4.46 54.9 54.9 0 0 0-4-3.81q-3.81-7.39-7.77-14.7 3.46.63 6.88 1.44a148.4 148.4 0 0 1 15.89 4.73 3.22 3.22 0 0 0 3.79-1.79c.92.73 1.87 1.44 2.73 2.21s1.82 1.74 2.72 2.62q3 18 6 36.08c.49 2.95 1.12 5.92 1.46 8.89-.07-.61 0 .77 0 1s-.13.86 0 .23c0 0 0 .14-.07.31h-.31zm1 0c.11-.08.22-.15.2-.07s-.06.04-.12.06zM501.7 345.27c-.41-.64-.85-1.3-1.3-1.95a17.74 17.74 0 0 1 6.25-.12q0 5.51-.36 11a57 57 0 0 0-4.59-8.93z" fill="#f87318" data-color="1"/>
        <path d="m334 320-.75-.54-.53-.43c-.5-.43-1-.86-1.46-1.34-2-2-3.35-4.91-6-6.23-3.41-1.74-8.4-.63-9.29 3.76a7.79 7.79 0 0 0-.09 1c-.11-.13-.23-.25-.34-.39l-.48-.6-.09-.11-.13-.18c-1-1.46-2.93-2.35-4.55-1.25a3.63 3.63 0 0 0-1.2 4.76A108.34 108.34 0 0 0 319.62 334c1.4 1.75 4.21 1.09 5.23-.7a9.61 9.61 0 0 0 .57-8.08 3.88 3.88 0 0 0-.38-1.62c-.33-.64-.64-1.29-.93-1.94l-.21-.5v-.17c-.15-.39-.3-.78-.44-1.18s-.37-1.1-.53-1.66l.05.05a9.85 9.85 0 0 1 .67.78c.82 1 1.55 2.12 2.44 3.08a26.72 26.72 0 0 0 3.26 3 44 44 0 0 0 6.8 4.25c3.16 1.67 6.35 3.28 9.53 4.91.12 1.08.25 2.15.36 3.23a11.14 11.14 0 0 1 .06 1.29q-4.68-2.27-9.37-4.57a3.34 3.34 0 0 0-4.56 1.25c-.78 1.54-.49 3.94 1.2 4.76l10 4.88c2 1 4.29 1.71 6.39.39a6.49 6.49 0 0 0 2.78-4.29 15.84 15.84 0 0 0 .19-3.31c2.87 1.47 5.84 3.33 9.15 3.31a11 11 0 0 0 6.3-2.25c1.91-1.4 3.56-3.11 5.34-4.67l.26-.22c.11-.09.62-.38.18-.15s.22-.16.36-.26a11.68 11.68 0 0 1 1.26-.8l.18-.09c.21-.07.42-.16.64-.22l.41-.09h.45a3.39 3.39 0 0 0 3.21-2.56 62.38 62.38 0 0 0 .85-20.26c-.29-2.35-1.88-3.82-4.21-3.36-4.67.93-5.86 6.52-7 10.53l-1.35 4.85q-2.81-6.94-5.59-13.89c-.65-1.62-1.86-2.74-3.65-2.49a3.41 3.41 0 0 0-2.89 3.42l.34 14.22v1.17l-9.19-18.85a3.25 3.25 0 0 0-4.16-1.43 3.58 3.58 0 0 0-1.92 4.11c1.09 6 2 12.05 2.84 18.1-2.35-1.21-4.7-2.42-7-3.72-1.21-.75-2.4-1.47-3.54-2.25zm-11.49-3.35zm23.44 23a.81.81 0 0 1 0 .11s-.05.09 0 .09-.06-.14.05-.21zm16.19-5.51zm2.86-1.44s.55-.41.24-.19l-.26.2a13 13 0 0 1-1.25.84l-.49.26-.17.07a21.58 21.58 0 0 0 .69-7l2 5.1-.21.19c-.13.15-.41.51-.55.53zm-13.45-4.61.9 1.84-.69-.36z" fill="#f87318" data-color="1"/>
    </g>
</svg>
