<?xml version="1.0" encoding="UTF-8"?>
<svg data-bbox="0.17 0 650.868 808.833" viewBox="0 0 650.98 808.85" xmlns="http://www.w3.org/2000/svg" data-type="color">
    <g>
        <path d="M648.06 414.55c.81-.5-2.25-399.08-2.61-403.85 0 0-.15-1.95-.33-4.34s-3.46-4.4-7.33-4.48L612 1.4c-18-.34-582 .92-594-.61C6.09-.73 2.9-.19 1.36 3.59 1 4.5 1.24 6.08 1.22 7c-.07 3.12-.1 6.23-.13 9.35Q1 23.76 1 31.15L.84 50.89Q.78 63 .73 75.13.67 89.26.63 103.4q-.06 15.91-.1 31.84l-.09 34.94q0 18.8-.08 37.59 0 19.88-.07 39.75Q.25 268.27.22 289v42.71q0 21.74-.05 43.48v375.28q0 10.66.05 21.34 0 8.25.06 16.52a86.48 86.48 0 0 0 .15 8.82c.26 3.12.9 5.89 3.35 7.87 4.5 3.65 12.89 3.48 18.47 3.54q8.65.08 17.31.11l23.42.09 28.74.06h283.39l42.72-.06 40.9-.06 38.28-.06 34.89-.06 30.69-.06h65.08c24.94 0 22.49 8 23.29-56.89.77-68.19-4.48-336.1-2.9-337.08zm-6.16-3.77a6.62 6.62 0 0 1-.71 1.37c-1.61 2.38-4.52 2.54-7.15 2.59l-33.7.63c-2.38 0-4.9.05-7-1.17-2.59-1.54-2.28-7.77-2.35-10.51 0-1.71.34-3.41.39-5.16q.18-5.92.29-11.85.3-14.22.42-28.45l.15-19.14a7.32 7.32 0 0 1 7.38-7.08l17.52-.19 17.53-.19c4 0 7.48 2.12 7.68 4.83l.35 4.91c.67 9.28.66 18.63.68 27.93 0 9-.06 17.95-.33 26.93q-.14 4.86-.42 9.72a15.46 15.46 0 0 1-.73 4.83zm-13.2-300.37-34 .9a11.92 11.92 0 0 1-4.26-.42c-3.26-1.17-2.64-4.3-2.74-7.1-.12-3.5-.28-7-.48-10.51-.37-6.84-1.92-14.67-.67-21.49.72-3.88 3.51-4.58 7.09-4.71 12.12-.47 24.25-.6 36.38-1.16a18.38 18.38 0 0 1 6.15.42c4 1.2 4.05 3.68 4.11 7.18.06 3.76 0 7.53 0 11.3V95.1c0 1.31-.1 2.6-.2 3.9-.14 1.78.2 3.59 0 5.4a6.58 6.58 0 0 1-2.24 4.47c-1.63 1.29-3.87 1.4-6 1.45zM621.82 169l-27.14 1.09c-2 .08-4.24.07-5.64-1.35s-1.37-3.37-1.38-5.22q-.06-19.73-.13-39.44a9.81 9.81 0 0 1 .69-4.45c1.53-3 6.48-2.45 9.25-2.57l12.42-.52 24.84-1a5.36 5.36 0 0 1 3 .46c1.53.94 1.72 3 1.73 4.85q.12 21.47.26 42.93c0 1.47-.09 3.17-1.28 4a4.59 4.59 0 0 1-2.64.64zM628 46.65c3.76-.43 9.68-1.36 11.63 2.85a13.76 13.76 0 0 1 .86 5.68 6.41 6.41 0 0 1-.39 2.72c-.85 1.89-4.23 1.87-6 1.89l-41.86.45a5.19 5.19 0 0 1-3.26-.7c-3.67-2.8 6.43-10 8.48-10.62a23.45 23.45 0 0 1 5.79-.81l22.15-1.21c.81-.04 1.69-.14 2.6-.25zm-23.54-6.3a1.69 1.69 0 0 1-.07-.45c-.06-1.24 1.63-2.11 2.42-2.9 4.86-4.89 11.73-7.26 18.42-8.49 3.13-.58 13.9-2.4 14.07 3.18 0 2.61.47 5.86-.62 8.33s-3.39 2.48-5.79 2.49c-7.86.06-15.72 0-23.58.06a8.29 8.29 0 0 1-3.06-.38 2.94 2.94 0 0 1-1.79-1.84zm35-29.64a1.9 1.9 0 0 1 .29.28c.84 1 .49 3.25.48 4.45 0 3.56-.65 7-4.56 7.47-1.52.19-11.42 2.19-10.08-1.37a4.65 4.65 0 0 1 1-1.41l4.76-5.35a18.2 18.2 0 0 1 3.43-3.25c1.22-.77 3.45-1.79 4.73-.82zm-14-3.9c6.63 0 6.62-.36.11 6.46-7 7.33-8.74 7.37-8.74.18.08-6.27.56-6.64 8.71-6.64zM598 21.26s.06-3.14.14-7 1.67-7.09 3.55-7.17l3.41-.14c7.73-.34 7.32-.8 8.2 9.29.5 5.84.31 7.24-1.18 8.68-1 .95-4.36 4.37-7.51 7.61-6.97 7.18-6.95 7.21-6.61-11.27zM587.32 6.8a24.5 24.5 0 0 1 2.92.2 4.2 4.2 0 0 1 3.22 1.55c1 1.48.93 3.89 1 5.61.08 4-.16 7.92-.32 11.87l-.37 9.71c-.15 4-1.37 8.61-2.73 10.36l-2.47 3.16c-1 1.26-4.16 6.71-6.2 6.09-2.78-.83-1.74-8.94-1.77-11l-.51-29.47a11.82 11.82 0 0 1 .49-4.44c1.07-2.92 3.93-3.63 6.74-3.64zm-5.85 106.75c.35 58.2 7.16 602.23 5.78 609.43-.92 4.7-3 3.43-6.15 1-4.74-3.69-9.77-7.06-14.64-10.57-2-1.47-4.4-2.63-5.51-4.91a17.34 17.34 0 0 1-1.54-7.34l-.33-41.27q-.09-12-.16-23.91-.09-16.87-.14-33.75 0-18.24-.06-36.47v-38.6q0-20.06.06-40.12 0-20.53.1-41.06l.15-41.39q.09-20.56.19-41.14.1-20.13.22-40.28.12-19.41.25-38.83.12-18.39.26-36.78l.27-34.15q.13-15.45.28-30.9.13-13.55.28-27.08.12-11.31.27-22.64.12-8.81.25-17.62c.07-4 .14-8 .24-12 0-1.24.05-2.47.11-3.71.22-5.08 4.7-9.79 7.38-13.84 3.26-4.9 7-10.63 8.34-12.72 3.77-5.97 3.82-5.45 4.1 40.65zM522.91 9.42a9.63 9.63 0 0 1 4.2-1.05q18.51-1.68 37.11-1.56c2.49 0 5.08.09 7.3 1.28 6.14 3.31 4.48 15.18 4.63 21s.35 11.71.66 17.56c.21 4 1.13 8.75-3.1 10.83a14.42 14.42 0 0 1-6.49 1h-39.56c-1.83 0-3.88-.08-5.16-1.46a4 4 0 0 1-.82-1.35c-.79-2.05-.22-5-.47-7.23a67.5 67.5 0 0 1-.15-7q0-7.49.05-15c0-3.38.08-6.77.17-10.15.07-2.41-.94-5.19 1.35-6.81zm32.82 54.14c5.12 0 10.4-.36 15.5.16h.18c4.76.89 3 5.86-7.62 21.5-8.55 12.59-6.31 11.45-21 10.69-7.07-.37-445.54 3.47-445.54 3.47-3.87.06-8.07-1.55-9.38-3.59l-2.39-3.69c-2.58-4-9.69-10-7.17-15.36 1.59-3.38 4.88-3.92 8.15-4 5.19-.11 10.39-.18 15.58-.27l62.32-1.06c37.5-.64 74.91-1.19 112.4-2.07L344 67.79q33.08-.77 66.15-1.51 30.19-.66 60.41-1.3 25-.51 50.06-1c11.71-.15 23.38-.34 35.11-.42zm-.66 598.33c.19 11.07 0 24.64-.33 30.17 0 0-.15 2.25-.34 5a5 5 0 0 1-4.86 4.84l-4.52-.19c-5-.21-290.56 3.32-425.77 2.93-26.9 0-24.74 1.28-24.41-14.91.14-7 2.79-379.75-3.29-560.23-.68-20-.59-25.44 27.75-25.7 4.65 0 16-.16 22.56-.24 125.69-1.59 394.6-2 401.35-1.63 9.1.5 12.4 1 12.8 2.09 2.34 6.11-3.56 408.87-.94 557.87zm-53.81-655c3.22.05 6.45.13 9.67.25a7 7 0 0 1 3.85.91c2.09 1.47 1.28 6.88 1.36 9 .2 4.85.06 9.71.13 14.6.06 4.54.1 9.09.09 13.64 0 4 .52 9.7-3.64 11.92-2 1.1-4.45 1.14-6.76 1.17l-34.87.36c-4.07 0-8.22 1.17-9.5-3.64-.74-2.82-.45-5.8-.5-8.68q-.3-15.81-.59-31.6c-.07-4.15-.07-6.61 4.43-6.95 5.1-.39 10.21-.64 15.32-.81q10.5-.36 21.01-.21zM394.2 7.4c2.24-.85 5.31-.55 7.4-.52l14.57.17q14.58.17 29.15.38c2.27 0 4.67.1 6.56 1.33 3.07 2 3.55 6.18 3.68 9.81q.57 16.59-.37 33.19a9.67 9.67 0 0 1-1.32 5.2c-1.72 2.38-5.09 2.78-8.06 3-9.76.6-19.62.46-29.41.61l-9.72.15c-2.87 0-5.93.63-8.77.37a6.57 6.57 0 0 1-4.79-2.39c-1.14-1.56-1.22-3.61-1.26-5.53q-.39-19.47-.77-38.93c0-1.86 0-3.87 1.1-5.37a4.48 4.48 0 0 1 2.01-1.47zM322.36 9a5.29 5.29 0 0 1 .71-.71c1.7-1.41 4.13-1.46 6.35-1.44l49.2.36c1.82 0 3.84.1 5.12 1.35s1.39 3.27 1.4 5.07q.06 20.22.13 40.44c0 2.34-.12 5-1.93 6.53-1.34 1.12-3.34 1.28-5.15 1.4l-13.66.77c-3.76.21-7.52-.21-11.33-.1-5.57.15-11.14.32-16.72.39-3.62.05-9.24.85-11.29-2.89-1-1.86-1.48-4.72-1.86-6.82-.56-3.1-.59-6.4-.84-9.54-.77-9.6-.94-19.2-1.3-28.74-.09-2.14-.19-4.41 1.17-6.07zm-65 1.33a4.46 4.46 0 0 1 3.11-2c7.21-1.7 15.4-1 22.77-1.06L301.33 7c3.53 0 10.56-.53 12.79 3.1C317.06 14.86 316 22.71 316 28q0 8.72-.08 17.45c0 4.61 1 10-1.68 14.11-2.27 3.51-5.83 2.85-9.4 3-4.4.18-8.82.13-13.23.16-9.56.05-19.07.08-28.65.34-1.81 0-3.92 0-5-1.47a5.87 5.87 0 0 1-.83-3.57q-.31-21.14-.64-42.26c-.04-1.88-.04-3.86.91-5.47zM185 16.5c.33-3.34-.74-6.24 2.94-8.29 2.38-1.32 5.25-1.32 8-1.28l47.2.72c2.06 0 4.37.16 5.76 1.7s1.34 3.61 1.3 5.56l-.72 31.34c-.1 4.69.21 9.62-.45 14.27-.57 3.95-4.8 3.93-8.08 3.93l-49.34-.09a11.77 11.77 0 0 1-4.05-.45c-3.7-1.37-2.37-7.18-2.5-10.57q-.27-6.81-.35-13.63c-.14-7.71-.47-15.55.29-23.21zm-56.62-7.45a5.21 5.21 0 0 1 1-.76c2.21-1.29 4.91-1.35 7.46-1.29l25.61.13c5.44 0 16.56-1.9 16.59 6.73v8.82c0 8.59.41 21.39.84 28.45.2 3.26 1 7.07.4 10.33-.65 3.55-5.54 3.69-8.44 3.73l-34.19.5c-2.31 0-4.73 0-6.79-1-4.37-2.29-3.17-9.81-3.36-14q-.59-13.47-.68-27v-7.32c.1-2.75-.44-5.37 1.56-7.32zM69.6 17.12c.09-1.42.2-2.84.34-4.26a6.45 6.45 0 0 1 2.21-4.55c1.53-1.18 3.58-1.24 5.49-1.24l33.06-.15c2.89 0 6 0 8.4 1.64 2.71 1.78 2.69 5.38 2.51 8.35-.24 4.09.08 8.19.13 12.31q.14 9.83.47 19.66a75.06 75.06 0 0 1 .1 7.79c-.16 2.3.65 5.18-.75 7.17s-3.88 2.14-6.11 2.22l-29.83 1.2c-3.08.12-6.28.23-9.14-1-7.57-3.14-6.48-16.52-6.85-23.5a219.35 219.35 0 0 1-.03-25.64zM54.53 691.17l-35.41 1.18c-2.83.09-5.81.15-8.28-1.22-5-2.74-3.6-8.08-3.78-12.68-.25-6.55-.28-13.13-.36-19.69-.07-7.19-.11-14.39-.06-21.58 0-6.09-1.63-16 4.82-19.26 2.87-1.47 6.23-1.56 9.46-1.62l38.08-.68a8.8 8.8 0 0 1 4.78.81c2.5 1.53 1.48 5.78 1.45 8.31l-.09 9.79q-.06 6.66-.13 13.3-.12 13.32-.29 26.63c0 3.65 1.47 13.71-2.44 15.83a9.21 9.21 0 0 1-4 .76zm8.7 20.9v14.41c0 1.65-.07 3.47-1.19 4.68s-3.23 1.45-5 1.49l-45.12.88c-1.44 0-3.09 0-4-1.13a4.89 4.89 0 0 1-.8-3.16l-.51-23.88c0-1.76 0-3.64.93-5.11 1.8-2.74 5.58-2.53 8.44-2.64 4.35-.17 8.71-.2 13.07-.29l26.48-.53c2.82-.06 6 .14 7.27 3.21a10.75 10.75 0 0 1 .54 4.15zM17.31 208.59l40.61-.9a8 8 0 0 1 3.68.49c2.68 1.27 1.8 6.63 1.83 9.19v10.93q0 12.07-.24 24.15c-.08 3.78 1.46 13.05-2.71 15.13a10.62 10.62 0 0 1-4.69.77l-42 .45c-1.8 0-3.76 0-5.2-1.09-3.06-2.28-2.32-8.24-2.31-11.63 0-5 .12-10.11.21-15.16.11-5.94.12-11.88.34-17.82.06-1.85.18-3.69.36-5.53.26-2.69-.55-5.67 2.06-7.47 1.92-1.33 4.41-1.43 6.74-1.48zm30.24-74.5 8.33-.28a6.77 6.77 0 0 1 7 6.77l.12 20.86c.08 15.33.24 29.16.35 30.74a26.75 26.75 0 0 1-.45 6s-.14.71-.32 1.58c-.44 2.14-6.29 2.24-7.79 2.35q-5.37.41-10.76.61c-7 .28-14.08.34-21.11.16-3.76-.1-7.78-.35-10.75-2.65A12.38 12.38 0 0 1 8 192.61c-.59-3.28-.21-6.64-.61-9.92s-.13-7.06-.19-10.49c-.71-40.69-5.04-36.6 40.35-38.11zm16-51.32c0 1.67-.25 3.4-.26 4.77q-.06 6.42-.11 12.85l-.16 18.23c0 2.66.78 5.89-.91 8.21-1.89 2.62-5.71 2.72-8.66 2.72-2.31 0-4.62-.26-6.94-.2l-32 .82c-2.08.05-4.47 0-5.77-1.66a6.86 6.86 0 0 1-1-4.2l-.5-24.88L7 87c-.06-2.92-.93-6.86 1.69-9 1.45-1.17 3.47-1.25 5.33-1.27l41.1-.5c2.12 0 4.37 0 6.2 1.06s2.26 3.25 2.25 5.48zM8.11 276.26a2.85 2.85 0 0 1 .23-.26 4.3 4.3 0 0 1 3-.79l46.42-.33a9 9 0 0 1 4 .59c2.68 1.31 2 6.09 2.12 8.71.15 3.29.26 6.59.35 9.89.24 8 .38 16 .47 24 .07 5.87.11 11.73.07 17.6a70.84 70.84 0 0 0 0 7.43c.21 2.06.51 3.88-1.43 5.31-1.74 1.28-4 1.42-6.21 1.51l-42.56 1.78c-2.15.09-4.58.07-6.07-1.47-1.34-1.4-1.44-3.53-1.45-5.47-.11-13.58-.39-27.11-.54-40.7-.1-8.49.34-16.68.89-25.14a4.89 4.89 0 0 1 .71-2.66zM9.7 539.5c2.93-2.23 8-1.67 11.44-1.75q8-.19 16-.31l21-.32a6.59 6.59 0 0 1 6.43 6.9l-.08 27.42-.08 27.42c0 2.88-.85 7-3.94 7.95-4.18 1.29-9.48 1.1-13.84 1.42a257.49 257.49 0 0 1-27.78.57c-3-.1-6.22-.3-8.8-1.9-4.05-2.52-3.3-7.57-3.6-11.8-.34-4.6-.56-9.22-.49-13.83.12-7.75.5-15.48.81-23.22.13-3.17.28-6.35.49-9.52.19-2.95-.25-6.78 2.22-8.86zm-2-11.25a6.61 6.61 0 0 1-1.35-4C6 518.6 5.39 513 6 507.39c.67-6.18.31-12.66.47-18.88s.31-12.42.46-18.63c.11-4.41-1-11.65 3-14.78 1.64-1.28 3.88-1.38 6-1.43l36.35-.82c3.06-.07 10.56-1.79 12 2.07 1 2.73.43 6.87.5 9.74.33 12.94.46 25.89.25 38.83q-.13 8.36-.18 16.71c0 4.59-1.79 8.74-6.53 10a24.44 24.44 0 0 1-6.51.53l-37.13-.35c-3.05-.01-5.54-.38-6.99-2.13zm56.47-84.84a3.19 3.19 0 0 1-.35.47c-1.16 1.37-3.12 1.66-4.91 1.86q-18.91 2.11-38 2.73c-3.12.1-6.4.13-9.19-1.29a9.77 9.77 0 0 1-5-7.74c-.22-2.19.18-4.37 0-6.59-.21-2.6-.15-5.26-.2-7.87q-.18-8.52-.23-17.05c-.07-10.86-.06-21.74.29-32.6.07-2.18.13-4.36.2-6.54.09-2.9-1.64-5.73 1.59-7.77 1.84-1.16 4.15-1.24 6.32-1.28l25.68-.49 12.82-.25c3.77-.07 8-1.13 9.76 3.09a15.38 15.38 0 0 1 .9 4.47 281.74 281.74 0 0 1 1.3 29.19c-.06 9.38.07 18.69 0 28.07q-.08 7.62-.14 15.24a8.33 8.33 0 0 1-.85 4.35zM58.24 7c5.77-.49 5.9 0 6.11 20.34.11 10.21.56 22.21 1 26.65 1 9.73-.36 10.66-5.25 3.62-3-4.42-3.11-4.74-4.35-24.25C53.93 4.52 53.66 7.42 58.24 7zm-20 22.2c.24-2.69.63-8.32.86-12.51.53-9.19.84-9.83 4.94-9.8 6.08 0 7.2 3.55 8.34 26.22.83 16.64.64 16.81-8.36 7.44-6.02-6.3-6.15-6.55-5.73-11.32zm9.56 21.89c0 2-38-.75-40.62-3-1.33-1.09-1.62-2.82-1.39-8.5 0 0 .06-1.6.14-3.57a3.66 3.66 0 0 1 3.91-3.4l3.77.18c11.27.52 18.56 2.49 22.9 6.2 5.24 4.47 11.29 11 11.29 12.09zM12.25 7.5a1.75 1.75 0 0 1 .4-.42 5.49 5.49 0 0 1 3.61-.76l10.21.25a13.65 13.65 0 0 1 6.06 1.1c3 1.61 2.6 3.86 2.13 6.59-.52 3-.58 6.19-1 9.24-.94 6.06-2.37 5.43-14.23-6.27-1.43-1.4-9-7.05-7.18-9.73zm4.17 12.78 4.38 4.31c2.42 2.38 3.47 4.27 2.36 4.23l-2-.08c-15.07-.6-15.58-.92-15.58-9.43-.01-8.88.94-8.79 10.84.97zM6 62v-.7c-.19-2.29-.34-5.64 2.32-6.59a10.35 10.35 0 0 1 3.93-.36l23.28.86 11.65.42c3.27.12 6.29.57 8.65 3.12l2.67 2.95c1.67 1.81 4.15 3.25 3.25 6-.83 2.52-3 2.31-5.24 2.33l-8.27.07-32.24.27c-2.65 0-5.48 0-7.71-1.45C5.62 67.21 6.08 64.63 6 62zm4.24 730.51a4.11 4.11 0 0 1-.42.15c-6.16 1.94-4.2-11.72-4.19-14.66a6.39 6.39 0 0 1 .68-3.52c1.31-2 4.68-1.39 6.75-1.52 3.37-.21 6.75-.38 10.12-.57 1.44-.08 3.1-.07 4 1a3.15 3.15 0 0 1 .19 3.32 9.32 9.32 0 0 1-2.26 2.67L13 790.56a10.14 10.14 0 0 1-2.77 1.98zm22 8.08a8.66 8.66 0 0 1-2.95.4l-9.67.15c-1.26 0-2.73-.06-3.44-1.1-.9-1.31.09-3.06 1.06-4.33l6-7.93a16.8 16.8 0 0 1 3.53-3.78c1.19-.82 4.62-2.14 5.67-.46 1.65 2.64 1.29 7.25 1.24 10.21 0 1.49.38 4-.09 5.41a2.25 2.25 0 0 1-1.41 1.46zm-5.25-32.53-6.28.29c-15.21.68-15.09.73-15.09-5.51v-2.44A2.46 2.46 0 0 1 8 757.91h2.39c2.63 0 10.71-.29 18-.62 8-.37 12.06-.44 13.17.46 3 2.43-4.58 6.5-5.89 7.77s-5.27 2.41-8.74 2.57zm23.25 30.45a3 3 0 0 1-1.76 1.74 10.5 10.5 0 0 1-3.35.49 15 15 0 0 1-3.91-.19 5 5 0 0 1-3.2-2.1 7.43 7.43 0 0 1-.74-3.8c-.08-4.36-.2-8.72-.24-13.09 0-3 .3-6.69 2.36-9.13l2.73-3.22c5.78-6.82 7.15-7.59 8.13-4.58.58 1.76.4 4 .46 5.82.12 3.52.15 7 .14 10.58s0 7.31-.17 11c-.12 1.89.31 4.65-.51 6.51zm-7.87-46.6-14.42.46-14.42.46c-3.87.13-6.93-1.2-6.85-3l.15-3.19s.07-1.43.15-3.2 3.29-3.29 7.15-3.43l10.6-.36c9.68-.34 22-1 27.4-1.41 11.66-1 11.73-.83 3.52 7.24l-3.14 3.08c-1.8 1.78-6.34 3.26-10.2 3.38zm26.2 46.7c-.67 3.12-.73 3.14-8.9 2.14-2.68-.33-3.78-1-3.83-2.45 0-1.1-.42-11.22-.85-22.49l-.48-12.32c-.17-4.52.92-9.59 2.45-11.32l2.77-3.14c6.46-7.33 7.19-7.57 7.36-2.45.07 2.11.25 5.15.41 6.77.75 8.55 1.56 42.72 1.01 45.29zm.39-75.87.42-10.85c1.44-37.53 1.61-54.93 1.2-126.44-.06-10-2.58-456.18-1-476.11.72-9.12 1.41-18.53 1.53-20.9.38-7.41 2-6.6 10.36 5.17l2.81 4c1.55 2.18 2.82 6.8 2.84 10.31v6.35c0 7 3.12 551.86 3.13 566.17v19c0 3.87-1.07 8.77-2.38 10.95l-2.39 3.94c-2.62 4.34-6.1 9.59-7.72 11.67a11 11 0 0 1-4.76 3.66c-1.25.54-2.08 1.38-3.08.06-1.31-1.72-1.1-4.96-1.02-6.95zm71.61 64.47-.09 2.22c-.12 2.8.34 6.47-.37 9.17-.38 1.48-1.42 1.78-2.81 2.12a42.47 42.47 0 0 1-9.22.73c-5.06.11-10.13.09-15.19.15-15 .16-29.65.52-32.49.8-7.21.72-7.41.25-7.41-17.32 0-6.12-.19-12.24-.46-18.35-.13-3-.28-6.1-.48-9.15-.21-3.24-.69-6.71-.35-10a10.17 10.17 0 0 1 3-6.5c2.79-2.55 7-2.66 10.74-2.63l46.88.44c2.13 0 4.44.1 6.11 1.42 2.22 1.75 2.48 5 2.54 7.78q.31 19.61-.46 39.15zm85 13.34a12 12 0 0 1-3.57.45l-63.57.43c-2.72 0-5.59 0-7.95-1.34-5.48-3.1-3.56-13.75-3.64-18.92-.14-9.37-.61-21.19-1-26.27-.75-8.68-.65-9.42 1.53-12.16l1.17-1.47c.64-.8 4.3-1.46 8.16-1.46H185c45.9 0 41.26-3.17 42.27 29.06q.28 9.12.7 18.22c.16 3.27 2 11-1.36 13.05a4.85 4.85 0 0 1-1.12.44zm71.73.87c-3.72 1.74-10.41.6-13.61.6h-19.38c-7.06 0-14.37.09-21.39-1-4.21-.63-8-1.94-9.19-6.42-1.74-6.72-1-14.57-1-21.46l.24-24.56c0-2.4.08-4.94 1.35-7 1.93-3.15 6.23-2.74 9.43-2.79l14.53-.21 29.06-.42a20.19 20.19 0 0 1 7.43.83c8.25 3.11 6.52 16.08 6.59 22.81.1 10.59-.33 21.18-.76 31.76-.09 2.13-.21 4.38-1.38 6.17a4.5 4.5 0 0 1-2 1.72zm72.41.55c-3.31 1.33-7.73.55-11.18.51l-11.63-.1c-8.86-.08-17.73-.19-26.59-.4-2.12 0-4.25 0-6.36-.21-3.68-.31-4.95-1.21-5-5.1q-.12-24.36-.25-48.74a11.12 11.12 0 0 1 .92-5.5c2-3.54 9.4-2.84 12.95-3 6-.25 12-.33 18-.5 7.87-.21 15.84-.91 23.72-.52 3.28.16 7.22.5 9 3.71 2 3.67 1.44 9 1.5 13 .19 11.62-.09 23.26-.15 34.89 0 3-.08 6.21-1.53 8.88a6.59 6.59 0 0 1-3.48 3.11zm98.31-2.67a5.24 5.24 0 0 1-1.59 1.43c-2.08 1.2-4.61 1.23-7 1.23h-72.15c-2.11 0-4.6-.19-5.72-2a6.39 6.39 0 0 1-.62-3.45q.26-22.63.5-45.29c0-2.68.09-5.48 1.38-7.84 2.66-4.87 11.67-3.46 16.52-3.53 8.26-.14 16.53-.1 24.79-.15s16.76-.06 25.14 0c3 0 6 0 9.05.06 6.36.11 8.13 6.55 8.53 11.55.68 8.3 1.19 16.6 1.64 24.9.23 4.19.44 8.38.6 12.58.12 3.21.91 7.77-1.15 10.54zm62 .88a4 4 0 0 1-2.69 1.54c-4.85.81-10.39.21-15.31.23q-15.7.09-31.41-.36a7.25 7.25 0 0 1-4.2-1c-1.73-1.31-1.91-3.8-1.92-6l-.49-45.14c0-2.66 0-5.55 1.68-7.64a7.93 7.93 0 0 1 5-2.69 68.13 68.13 0 0 1 8.34-.47c3.32-.12 6.64-.11 10-.12h19.94c2.39 0 4.88 0 7 1 4.91 2.3 4.31 8.78 4.46 13.27q.31 9.74.52 19.47c.15 7.11.36 14.23.25 21.35-.01 2.21.02 4.9-1.19 6.59zM96.24 732.61c-18.88 0-17.82 1.16-10.26-11.35 5.66-9.37 5.9-11.44 16.11-11.83 5.39-.2 10.8-.07 16.19-.1 13.75-.07 397-1.46 408.61-1.5 7.77 0 15.87-.76 23.42 1.53a18.35 18.35 0 0 1 4.67 2.09c3.76 2.45 7.34 5.24 10.92 7.94 2.45 1.85 4.89 3.74 7.27 5.68 1.54 1.26 2.67 1.84 2.11 3.93-1.16 4.34-10.08 2.83-13.44 2.89q-9.93.21-19.86.35c-20.98.33-436.71.37-445.74.37zm486.52 69.77h-.92l-35.77-.18c-2.08 0-4.25-.05-6.06-1.05-4-2.21-3.13-10.35-3.27-14.31-.27-7.42-.41-14.84-.49-22.25l-.12-11.5c0-4.6-1.47-10 3.78-12.52a15.2 15.2 0 0 1 6.61-1h35.93c1.66 0 3.67-.57 4.44.93.58 1.14.46 3.33.65 4.66.24 1.75.42 3.51.59 5.27.45 4.85.76 9.71 1 14.57.36 7 .6 14 .6 21v9.57c0 2.57-1.17 5.54-3.76 6.41a10.67 10.67 0 0 1-3.21.4zm6.69-581.2-.13-36.74a12.92 12.92 0 0 1 .85-5.67c2.44-5 11.22-3.63 15.72-3.77l25.44-.81a14.41 14.41 0 0 1 6 .67c4.06 1.69 2.57 4.77 2.58 8v21.75q0 14.09.07 28.17c0 3.91 1.52 13.63-2.1 15.88-1.78 1.1-4 1.2-6.1 1.26L597.67 251c-2.41.08-5.16 0-6.76-1.75-1.3-1.44-1.38-3.55-1.38-5.48l-.08-22.59zm.3 45.32v-1.88a14.4 14.4 0 0 1 .58-4.72c2.39-6.64 10.25-3.89 15.4-4.31 8.47-.69 17.06-.77 25.59-1a13.22 13.22 0 0 1 5.28.58c3.8 1.53 3.72 5.49 3.74 8.9 0 4.81-.09 9.61-.11 14.42q-.07 13-.24 26-.06 5.54-.16 11.06c-.07 3.55 1.22 7.78-2.59 9.65-2.51 1.23-6.68.8-9.47.89-3.92.13-7.85.22-11.78.3l-16 .31c-2.94.06-7.36.37-9-2.7-1.53-2.87-1.69-6.58-1.66-9.75zm3 159.05c1.78-1.84 4-1.83 6.39-1.88 3.27-.07 6.55-.29 9.82-.43l25.35-1.12a11.2 11.2 0 0 1 4.93.53c4.36 1.9 3.28 8.48 3.44 12.36.2 4.94.34 9.87.46 14.81.24 10.3.38 20.59.33 30.89 0 3.59-.06 7.19-.18 10.78-.13 3.87-2.64 7.44-5.12 7.73-1.35.16-2.9.32-4.52.45-7 .56-14 .7-21 .75-3.47 0-7 0-10.43-.06-3-.08-6.62-.08-8.9-2.21-4.06-3.81-2.52-13.57-2.56-18.73q-.07-10.14-.06-20.28c0-8 0-15.93.15-23.89 0-3.1-.53-7.12 1.75-9.59a.52.52 0 0 1 .1-.11zm1.94 80.92 2.94-.29c3.24-.31 14.81-.69 25.71-.86l12.76-.18a7.06 7.06 0 0 1 7.19 6.9l.14 9.08c.15 8.85-.08 26.5-.5 39.22l-.54 16.13a7.41 7.41 0 0 1-7.31 7.06l-10.72.1c-5.27 0-10.55.14-15.82.31-3.81.12-9.4 1.14-12.89-.57-4.33-2.13-3.32-10.84-3.4-15-.15-7.77-.15-15.54-.21-23.31l-.24-31.36c-.08-3.81 1.2-7.08 2.84-7.23zm-2.42 85.83.34-1.5c.19-.83 3-1.61 6.17-1.74l5.82-.24c6.41-.27 17.67-.23 25 .09l6.68.3a7.33 7.33 0 0 1 6.72 7.29l.31 24.37c.08 6.42.12 12.85.06 19.27 0 4.47.91 10.34-4.27 12.39a14.44 14.44 0 0 1-5.24.68l-30.45.16c-2.86 0-6-.07-8.12-2-1.77-1.6-1.42-3.64-1.55-5.9a1534.933 1534.933 0 0 1-1.09-22.13c-.32-7.54-.65-15.09-.76-22.64 0-2.7-.28-5.7.33-8.4zm49.2 137.49c-1.78 1.59-5.46 1.56-7.65 1.59l-30 .47c-4.75.07-7.85-1.79-8.23-6.38-.29-3.5-.48-7-.64-10.53-.46-9.78-.58-19.58-.58-29.37V669c0-3.87.79-7.18 1.77-7.4l1.77-.39c1.95-.44 12.72-.94 23.94-1.13l13.35-.22c3.9-.06 7.2 1.51 7.39 3.52l.35 3.64c.81 8.6.53 17.36.48 26 0 8.16-.17 16.32-.45 24.47-.11 2.91-.21 5.82-.43 8.72-.08 1.2 0 2.53-.88 3.45zm-35 70.23a6.59 6.59 0 0 1-3 2 6.43 6.43 0 0 1-5-.36c-3.79-2-2.93-9.75-3.12-13.48-.36-7.22-.66-14.45-1-21.67q-.27-6.63-.75-13.25c-.16-2.11-1.58-10.59 2.68-7.74 2 1.34 3.7 3.94 5.2 5.8 4.58 5.71 4.33 12.74 4.85 19.77.47 6.44.89 12.88 1.16 19.33.1 3.5.94 7.17-1.06 9.58zm15.36 1.25c-4.9 3.1-9 .69-9.45-5.52-1.83-27.42-1.37-35 1.77-29.36a40.5 40.5 0 0 0 3.74 4.91c3.13 3.59 3.73 6.14 4.66 19.68.45 7.37.3 9.61-.76 10.29zm9.15.57a5.59 5.59 0 0 1-2.75-.66 4.48 4.48 0 0 1-1.89-3.08 42.21 42.21 0 0 1-.13-5.74c-.06-1.4-.57-3.54-.36-4.88.31-1.92 2.48-1.51 3.61-.7 1.58 1.12 2.61 3.35 3.81 4.85s2.53 3.31 3.73 5c.85 1.21 3.52 2.87 1.64 4.43a4.52 4.52 0 0 1-2.83.74h-4.21zm5.41-14.84c-.16-.23-.32-.45-.48-.65-.6-.71-3.41-3.54-2.5-4.64a2.09 2.09 0 0 1 1.7-.49l6 .06a4.17 4.17 0 0 1 2.44.54c1.07.76 1.17 2.32 1 3.62-.42 2.9-.29 7.94-4.89 5.6-1.45-.78-2.29-2.66-3.27-4.04zm6.92-19 .09 2.58a11.61 11.61 0 0 1-.26 3.63c-1 3.36-4.24 2.88-7 2.88-6.55 0-5.87.48-15.13-10.55-1.32-1.57-7.61-7.38-3.19-8.38a38.34 38.34 0 0 1 7.8-.43h12.17a6 6 0 0 1 3.74.82c1.39 1.07 1.57 3.06 1.64 4.81.03 1.48.08 3.02.14 4.57zM642 752.18c-1.44 1.28-25.49 1.44-30.81.21-3.64-.83-8.33-7.09-10-10.16-2.62-4.84 3-4.47 6.25-4.67 4.61-.29 9.22-.44 13.83-.55l13.57-.31c3.87-.09 7.13.82 7.29 2l.28 2.2c.65 4.74.43 10.57-.41 11.28z" fill="#f87318" data-color="1"/>
        <path d="M568.91 779.68c-3.29 8.7-6.49 9.68-10.48 3.19-5.86-9.53-8.28-5.78-2.57 4 3.59 6.12 5 6.95 8.56 5 2.62-1.4 9.25-11.94 8.59-13.65s-3.25-.79-4.1 1.46z" fill="#f87318" data-color="1"/>
        <path d="M579.94 759.3c-2.6 6.21-4.76 5.91-7.14-1-1.34-3.92-3.86-6.44-5.14-5.16-.89.89 3.36 12.76 5.39 15.08 2.76 3.13 6.85.64 9.22-5.6s.23-9.46-2.33-3.32z" fill="#f87318" data-color="1"/>
        <path d="M554.76 758.42c-1.23 2.8-1.41 2.88-2.47 1.12-2.08-3.45-5.83-7.65-6.83-7.65-1.22 0-.52 2.24 3.3 10.68s5.5 7.64 10.34-4.4c4.51-11.17.58-10.97-4.34.25z" fill="#f87318" data-color="1"/>
        <path d="M504.58 782.79c-2 4.35-4.92 4.75-4.92.68 0-1.7-3.69-3.78-4.47-2.52-.31.51.59 3.22 2 6 2.74 5.45 4.21 6.18 6.77 3.35 2.24-2.47 6.76-12.5 6.11-13.55-.88-1.38-3.33 1.3-5.49 6.04z" fill="#f87318" data-color="1"/>
        <path d="M521.34 755.91c-.56 0-2 1.81-3.07 4-2.62 5.13-3.47 5.05-5.93-.5-1.92-4.33-3.39-5.52-4.54-3.67-.29.47.36 2.6 1.45 4.74a19.27 19.27 0 0 1 2 5.11 15 15 0 0 0 1 3.81c1.4 3.68 3.8 3.18 5.79-1.2a54.61 54.61 0 0 1 3.6-6.57c1.81-2.74 1.68-5.72-.3-5.72z" fill="#f87318" data-color="1"/>
        <path d="M497.93 755.25c-1-1-4.71 2.75-6.24 6.42-2.07 5-3.55 4-6.46-4-1-2.76-4.06-3.9-4.06-1.5 0 2.92 2 7.94 4.54 11.24 2.77 3.62 4.67 3.72 7.15.37 1.99-2.7 5.72-11.89 5.07-12.53z" fill="#f87318" data-color="1"/>
        <path d="M423.93 783.52a1.67 1.67 0 0 1-2.74-.16l-1.06-1.79c-3.35-5.68-6.59-4.8-3.8 1 .77 1.6 2.18 4.61 3.13 6.69 2.4 5.22 3.64 4.77 7.53-2.76s3.41-9.29-1.38-4.65z" fill="#f87318" data-color="1"/>
        <path d="M407.64 760.68c-3.19 8.64-5.16 9.45-7.95 3.27-1.78-4-2.56-4.64-3.81-3.39-.7.7 1.57 6.64 3.89 10.18 1.47 2.25 4 2.89 6 1.49s7.77-14.12 7.07-15.24c-1.47-2.33-3.51-.87-5.2 3.69z" fill="#f87318" data-color="1"/>
        <path d="M446.21 757.36a29 29 0 0 1-2.72 6l-1 1.77c-.58 1-2.18.54-3.57-1l-2.52-2.76c-2.77-3-5.9-5.51-6.95-5.51-2.72 0-2.39 1 1.88 5.53 2.07 2.21 5 5.74 6.62 7.84 3.48 4.68 4.46 4.43 7.68-1.93 4.78-9.44 5.46-11.57 4-12.49-1.85-1.05-2.63-.44-3.42 2.55z" fill="#f87318" data-color="1"/>
        <path d="M344.28 783.33c-.69.64-1.6.33-2-.71l-.79-1.87c-1.35-3.23-3.49-4.67-3.49-2.36v3a13.59 13.59 0 0 0 2 5.53c3.06 5 5.31 4.3 8-2.54 1.7-4.28.68-5.2-2.47-2.25z" fill="#f87318" data-color="1"/>
        <path d="M363.47 758.71c-1.61 0-5.2 4.17-6.14 7.12-.88 2.78-2.33 2.38-4.29-1.2-2.65-4.84-5-7.5-5.83-6.66s1.11 4.62 5.85 12.56c2.61 4.37 4.33 4.11 6.6-1a19.56 19.56 0 0 1 3.57-5.65c2.05-1.7 2.2-5.17.24-5.17z" fill="#f87318" data-color="1"/>
        <path d="M335.67 759a2.81 2.81 0 0 0-2.51 2.26 16.27 16.27 0 0 1-2.63 4.78l-1 1.25a1.23 1.23 0 0 1-2 0l-1-1.25c-4-5-5-6.46-5-7.25 0-.44-.68-.8-1.51-.8-2.29 0-1.88 1.37 2.72 9 5.09 8.5 5.93 8.62 9.94 1.52 1.71-3 3.53-5.78 4-6.09a1.86 1.86 0 0 0-1.01-3.42z" fill="#f87318" data-color="1"/>
        <path d="M266.49 780.82c-2.62 4.12-4.16 4-6-.28-1.5-3.6-4.59-4.84-4.59-1.85 0 .92 1.15 3.64 2.56 6 3.63 6.19 10.3 3.75 11.66-4.25.58-3.18-1.48-2.99-3.63.38z" fill="#f87318" data-color="1"/>
        <path d="M288 759.2a19.7 19.7 0 0 0-3.55 4.68c-2.16 4.18-4.85 3.54-7.41-1.76-2-4.18-4.2-5.67-5.41-3.71-.28.45 1.27 3.62 3.43 7 4.7 7.43 5.52 7.56 10.9 1.72 4.63-4.97 6.39-11.86 2.04-7.93z" fill="#f87318" data-color="1"/>
        <path d="M254.37 762c-3.81 5.14-5.33 5.06-8.83-.48-1.54-2.52-3.29-4.52-3.81-4.52-2.45 0-1.61 3.26 2.28 8.9 4.17 6 5.36 6.91 7.4 5.41S261 760.1 261 759c0-2.45-3.89-.75-6.63 3z" fill="#f87318" data-color="1"/>
        <path d="M111.24 775c-1 0-3.09 1.81-4.62 4-3.61 5.22-4.16 5.1-7.08-1.5-1.35-3-2.88-5.53-3.41-5.53-2.31 0-1.94 2.46 1.46 9.53 3.93 8.17 3.78 8 6.44 6.59 3.12-1.64 9.41-13.09 7.21-13.09z" fill="#f87318" data-color="1"/>
        <path d="M131.5 753.9c-1.05 0-2.85 2-4.5 4.88-.9 1.6-4.23 7.09-6.62 5.49a5 5 0 0 1-1.38-2.17c-.67-1.35-5.84-6.45-7.13-4.12-.87 1.57 2.76 5.79 3.5 6.83 5.79 8.14 7.13 8 12.4-1.36 1.56-2.77 3.44-5.39 4.19-5.83 1.9-1.16 1.61-3.72-.46-3.72z" fill="#f87318" data-color="1"/>
        <path d="M91.34 763c-.74.83-2.55.15-4.06-1.51l-2.73-3c-4.51-5-5.57-5.72-6.13-4.26-.75 1.94 2.41 6.67 7.88 11.79 1.71 1.6 3.45 2.84 5.52 1.31a37.18 37.18 0 0 0 4.3-4.39c1.19-1.25 6-5 6-6.91 0-2.38-5 .56-9.41 5.48z" fill="#f87318" data-color="1"/>
        <path d="M188.86 781.2c-2.76 4.46-4.47 4.31-7-.61-2.16-4.24-5-5.39-5-2 0 1.1 1.41 4.29 3.14 7.09 4.28 7 14 1.91 14-7.29 0-2.63-2.69-1.17-5.14 2.81z" fill="#f87318" data-color="1"/>
        <path d="M209.91 761.27c-4.08 5.08-5.12 5-8.27-.33a28.35 28.35 0 0 0-4.11-5.65c-2.51-2.08-3.1 1.3-.8 4.65 1.06 1.56 3.14 4.76 4.62 7.11s3.25 4.27 4 4.27c1.8 0 12-11.85 11.27-13.07-1.27-1.97-3.52-.95-6.71 3.02z" fill="#f87318" data-color="1"/>
        <path d="M177.14 760.22c3.06-2.48 2.85-3.9-.5-3.52-1.9.22-3.52 1.5-5.19 4.09-3 4.65-3.84 4.68-8.13.26-6.66-6.88-7.76-4.36-1.53 3.49 4.79 6 6.55 6.26 10.27 1.28a39.19 39.19 0 0 1 5.08-5.6z" fill="#f87318" data-color="1"/>
        <path d="M20.87 724.06c2.74 1.11 3.7.53 6.22-3.77 2.95-5 3.23-6.61 1.18-6.61-.78 0-2 1.37-2.76 3-1.77 4-4.12 3.43-5.29-1.29-1-4.18-4.6-5.51-4.6-1.71 0 2.67 3.57 9.71 5.25 10.38z" fill="#f87318" data-color="1"/>
        <path d="M42.73 721.36c2.63 2 10.53-8.55 8.64-11.61-1.15-1.86-2.57-1.23-3.66 1.63-2.06 5.43-3 5.7-6.21 1.8-2.31-2.81-3.26-3.35-4.32-2.47-1.42 1.18 2.12 7.97 5.55 10.65z" fill="#f87318" data-color="1"/>
        <path d="M610.31 713.13c-.94 5-1.92 5.15-3.74.52-1.49-3.8-3.9-5.17-5.24-3-.34.55.79 4 2.5 7.55s3.49 6.54 3.92 6.54c2.48 0 8.54-12.83 7.14-15.1s-3.89-.27-4.58 3.49z" fill="#f87318" data-color="1"/>
        <path d="M635.51 714.68c-1.15 1.87-2.48 1-4-2.51-1.54-3.7-2.47-4.23-4.26-2.44-.94.94 1.18 8.74 3.34 12.22 1.72 2.78 6.73-.7 7.93-5.51.74-2.8-1.52-4.12-3.01-1.76z" fill="#f87318" data-color="1"/>
        <path d="M619.93 694.63c0 2.45-2.07 3.62-3.11 1.75-2.48-4.42-4.51-6-5.71-4.6-1 1.14-.46 2.6 2.42 7.19 4.93 7.89 6.87 7.53 10-1.86 1.63-4.86 2-7.33 1.31-8-1.28-1.31-4.91 2.79-4.91 5.52z" fill="#f87318" data-color="1"/>
        <path d="M615.25 669.34c-.93-2-3.33-1.26-3.73 1.2-.95 6-4.84 7.91-7 3.42-1.55-3.26-5.73-5.13-5.73-2.57 0 1.15 4.55 9.83 6.18 11.79 2.61 3.13 12.16-9.74 10.28-13.84z" fill="#f87318" data-color="1"/>
        <path d="M632.71 678.58c3.28-4.87 1.23-9.17-2.17-4.53-1.48 2-4.58.57-4.58-2.16 0-1.38-3.77-3-4.73-2.08-.59.59 2 6.59 4.53 10.48 1.96 3.02 4.12 2.49 6.95-1.71z" fill="#f87318" data-color="1"/>
        <path d="M24 658.38c-1.5 0-1.8 3.6-.37 4.48.52.32 1.87 3.08 3 6.12a53.79 53.79 0 0 0 3.7 8c5.22 8 12.11-8.43 12.61-12.67.2-1.71.79-5.69-1-6.79-2-1.28-3.21.83-3.21 2.51 0 11.19-5.75 14.25-10.06 5.35-1.85-3.84-3.97-7-4.67-7z" fill="#f87318" data-color="1"/>
        <path d="M15.27 637.41c3.64 6.94 5.65 8.25 7.49 4.88 2.53-4.61 5.77-14.65 5-15.43-1.48-1.47-3 .19-4.16 4.66-2.13 8-3.94 8.26-7 1.1-1.06-2.47-2.57-4.41-3.44-4.41-2.29 0-1.95 1.47 2.11 9.2z" fill="#f87318" data-color="1"/>
        <path d="M41.08 635.29c4.14 8 5.49 9.19 7.6 6.64s5.23-13 4.24-14c-1.53-1.53-2.8 0-4 4.88-1.37 5.45-2.78 5.39-5-.22s-4.07-7.68-5.67-6.35c-1.03.81-.41 2.76 2.83 9.05z" fill="#f87318" data-color="1"/>
        <path d="M608.26 638.74c-1.21 1.66-1.45 1.6-3.66-1-2.88-3.35-6.46-3.26-4.51.11.68 1.17 2.25 4 3.5 6.25 2.54 4.62 3.93 4.64 6.53.07 2.79-4.85 1.18-9.59-1.86-5.43z" fill="#f87318" data-color="1"/>
        <path d="M630.25 639.4a1.79 1.79 0 0 1-2.66-.1l-1.59-1.48c-4.61-4.4-5.87-2.16-2.11 3.77 3.52 5.54 6 6 9 1.8 3.9-5.48 2.46-10.41-1.57-5.38z" fill="#f87318" data-color="1"/>
        <path d="M608.37 621.17c-1 .79-.54 2.4 1.82 7.05 4.09 8.06 6.27 8.13 10.09.34 2.41-4.92 2.6-5.87 1.36-7.11s-1.66-.87-3.11 2.74c-1.75 4.39-3.41 4.8-5.18 1.28-1.99-3.95-3.67-5.4-4.98-4.3z" fill="#f87318" data-color="1"/>
        <path d="M624.54 613c.87 2.87 4 .41 6.73-5.25 3.68-7.67 2-13-1.79-5.63-2 3.83-2.87 3.8-4.07-.16a9.91 9.91 0 0 0-3.37-4.74c-2.82-1.85-2.74 0 .41 9.42.93 2.72 1.87 5.58 2.09 6.36z" fill="#f87318" data-color="1"/>
        <path d="M602.94 611.32c2.11 3.95 9.95-5.4 9.95-11.87 0-2.88-3.33-1-4.53 2.62-1.74 5.16-3.85 5-5.31-.47-1.07-4-5.25-7-5.25-3.81.01.98 3.87 11.21 5.14 13.53z" fill="#f87318" data-color="1"/>
        <path d="M30.38 586.48c1.36 2.77 2.5 5.73 2.51 6.59a4.61 4.61 0 0 0 1.24 2.76c2.22 2.23 3 1.57 7.23-6 3.07-5.54 3.31-7.85.81-7.85-1.15 0-2.27 1.27-3.08 3.52-1.71 4.71-3.17 4.43-6.17-1.2-4.56-8.58-6.85-6.59-2.54 2.18z" fill="#f87318" data-color="1"/>
        <path d="M18.88 557.47a28.06 28.06 0 0 0 2.44 7.76c2.36 3.68 11.3-8 9-11.75-1.19-1.92-2.31-1.06-4 3.06-2.08 5.21-3.81 4.65-5.11-1.67a28 28 0 0 0-1.83-6.21c-1.14-1.77-3-.41-2.19 1.62a60.94 60.94 0 0 1 1.69 7.19z" fill="#f87318" data-color="1"/>
        <path d="M43 559.94a23.41 23.41 0 0 0 1.53 3c2.55 4.2 2.91 4.12 7.21-1.64s3.75-10.1-.62-4.79c-3 3.64-5 3-6.63-2.08-1.56-4.89-2.65-6.09-4.16-4.59a1.59 1.59 0 0 0-.12 2.46 8.28 8.28 0 0 1 1 2.1c.45 1.27 1.02 3.81 1.79 5.54z" fill="#f87318" data-color="1"/>
        <path d="M611.39 560.84a2.63 2.63 0 0 0-2.23 2c-.73 2.78-1.87 2.52-4.48-1-3.93-5.32-7.19-4.11-3.61 1.35 1.25 1.89 3 4.85 4 6.58 2.19 4 3.57 4 5.31-.19 2.62-6.3 2.9-8.74 1.01-8.74z" fill="#f87318" data-color="1"/>
        <path d="M626.58 563.48c-1.62-3.87-3.38-5.31-4.76-3.93-.84.84 1.73 7.79 4.46 12.1 1.43 2.25 3.63 1.34 6.05-2.51 3.17-5 4.18-8.3 2.57-8.3s-4.92 3-4.92 4.68c.02 2.55-1.98 1.36-3.4-2.04z" fill="#f87318" data-color="1"/>
        <path d="M611.31 540.84c-.34.56-.18 2.24.36 3.72s1.52 4.66 2.17 7c.87 3.21 1.62 4.25 2.88 4 1.95-.37 7.5-10.7 6.77-12.6-.88-2.3-2.64-1.33-4.15 2.29-1.74 4.15-3 3.86-3.85-.94-.65-3.4-3-5.38-4.18-3.47z" fill="#f87318" data-color="1"/>
        <path d="M602.32 529.92c1.82 6.34 2.22 6.65 5.1 4 2.12-2 6.18-12.88 5.17-13.89-1.39-1.39-3.51.69-4.15 4.07-.91 4.89-2.14 4.53-4.68-1.4-2.47-5.73-4.52-7.89-6-6.37-.69.69-.37 2.13 1 4.44a49.87 49.87 0 0 1 3.56 9.15z" fill="#f87318" data-color="1"/>
        <path d="M623.8 530.93c1.28 3.19 3.65 3.6 5.11.88s3.24-11.34 2.61-13c-.84-2.19-3.55.43-3.55 3.42 0 1.46-.59 2.39-1.51 2.39a1.49 1.49 0 0 1-1.51-1.46c0-2.51-2.27-6.58-3.68-6.58-2.07.02-1.18 5.06 2.53 14.35z" fill="#f87318" data-color="1"/>
        <path d="M28 497.22c-2 0-1.73 2 1.48 9.7 1.58 3.79 3.15 7.68 3.49 8.65s1 1.76 1.5 1.76c1.61 0 3.88-3.46 5.62-8.55 3.08-9 3-8.78 1.15-8.4-1.07.22-2.4 2.29-3.41 5.32-1.76 5.23-4.18 7.32-4.18 3.6-.02-3.3-4.12-12.08-5.65-12.08z" fill="#f87318" data-color="1"/>
        <path d="M18.17 482c4.32 8.67 4.82 8.65 9.61-.39 4.35-8.2 4.42-8.49 2-8.49-1.29 0-2.4 1.39-3.59 4.51-2.37 6.19-3.29 6.39-5.52 1.19-2.07-4.85-3.74-6.46-5.18-5-.59.5.51 3.78 2.68 8.18z" fill="#f87318" data-color="1"/>
        <path d="M44.69 485.87a1.38 1.38 0 0 0 1.44 1.29c3.32 0 11.11-14.54 8.62-16.09-2-1.25-2.82-.44-4 4.12-1.86 6.92-4.21 6.69-6.84-.66-1-2.65-2.33-5-3.07-5.26-1.84-.61-.64 6.4 2 11.51a18.63 18.63 0 0 1 1.85 5.09z" fill="#f87318" data-color="1"/>
        <path d="M616.18 477.64c-.94-2.66-2.89-1.06-4.61 3.77-2.2 6.2-3.24 6.29-5.73.48-1.84-4.29-4.34-6.53-5.73-5.13-.91.91 4.89 11.66 7.16 13.26 2.73 1.98 10.28-8.51 8.91-12.38z" fill="#f87318" data-color="1"/>
        <path d="M633.12 480.48c-1.23 3.54-2.35 3.26-4.14-1.06-2.7-6.52-5.14-3-2.62 3.73.78 2.08 1.67 4.58 2 5.55a2.44 2.44 0 0 0 2 1.76c2.85 0 7.53-8.49 6.36-11.55-.99-2.42-2.43-1.78-3.6 1.57z" fill="#f87318" data-color="1"/>
        <path d="M609.86 453.89c-.87.86-.69 2.1.75 5a68.52 68.52 0 0 1 3.28 8.21c1.84 5.85 4.37 5.39 8.25-1.5 2.42-4.3 2.75-5.59 1.82-7.32-1.24-2.32-3-1.86-3.06.79-.11 5.75-6 5.86-6 .11 0-2.77-3.67-6.64-5.04-5.29z" fill="#f87318" data-color="1"/>
        <path d="M601.45 444c2.93 4.52 12.06-3.15 10-8.43-.82-2.13-4.64 0-4.64 2.57a3.36 3.36 0 0 1-1.11 2.6c-1.45.9-2.87-1.38-2.89-4.64 0-2.58-1.64-5-3.36-5-1.33.03.21 10.16 2 12.9z" fill="#f87318" data-color="1"/>
        <path d="M623.6 439.4c3.73 9.5 6.24 9.55 10.45.18 2.82-6.29 3.06-9 .73-8.2-.57.19-1.79 2.36-2.7 4.82-2 5.52-4 5.71-5.77.57-1.46-4.23-3.09-6.64-4.5-6.64s-1.03 2.07 1.79 9.27z" fill="#f87318" data-color="1"/>
        <path d="M26.84 429.56c-2.26 6.73-3.5 6.7-6.25-.15-2.49-6.21-3.87-7.82-5.4-6.29-.6.59.2 3.67 2.15 8.25 1.71 4 3.36 8.1 3.68 9.06 1.7 5.24 8.68-4.78 10-14.33.48-3.65-2.67-1.04-4.18 3.46z" fill="#f87318" data-color="1"/>
        <path d="M51.77 427.7c-1.36 6.66-3.11 7.06-6 1.37-2-4-4.43-5.88-5.77-4.54-.63.63 2.28 7 5.62 12.38 2.74 4.4 10.75-3.44 10-9.8-.4-3.56-3.09-3.11-3.85.59z" fill="#f87318" data-color="1"/>
        <path d="M41.8 404.29c1.53-3-.4-5.79-2.12-3.1-4.68 7.25-6.68 6.81-7.74-1.88C31.52 396 31 395.23 29 395s-2.27 0-1.65 1.51c.41 1 1.4 4.53 2.18 7.82s1.93 6.56 2.53 7.29c2.29 2.67 6.04-.14 9.74-7.33z" fill="#f87318" data-color="1"/>
        <path d="M26.65 379.71c1.11-3 2.35-6.33 2.75-7.29.53-1.26.27-1.76-.9-1.76-.9 0-2.08 1.13-2.62 2.51s-1.47 3.75-2.07 5.25l-.54 1.37c-.3.75-1 .81-1.49.12l-1-1.24a16.21 16.21 0 0 1-2.52-5.32c-.59-2.63-2.9-4.6-4-3.45-.27.27.48 2.93 1.67 5.9s2.59 6.89 3.1 8.68c1.68 5.86 4.35 4.19 7.62-4.77z" fill="#f87318" data-color="1"/>
        <path d="M45.71 384.41c3.29 2.6 10.8-5 10.11-10.16-.47-3.58-2.46-2.68-4.21 1.9-2.22 5.8-4 5.78-5.62-.06-1.17-4.18-3.25-6.52-4.6-5.17-.9.9 2.74 12.24 4.32 13.49z" fill="#f87318" data-color="1"/>
        <path d="M607.86 398c-1.58 3.8-3 3.47-4.55-1.07-1.46-4.35-4.13-4.71-3.68-.49a27.9 27.9 0 0 0 1.71 6.28c2.29 5.47 11.54.69 10.37-5.34-.57-2.99-2.51-2.67-3.85.62z" fill="#f87318" data-color="1"/>
        <path d="M629.62 398.21c-.51 1.24-3.12-1.15-3.94-3.6-.19-.57-1.07-.77-2-.42-1.57.6-.5 7.19 1.76 10.83 1.93 3.13 6.09-.42 8.57-7.3 2.21-6.04-1.85-5.59-4.39.49z" fill="#f87318" data-color="1"/>
        <path d="M617.58 377.86c-2.21 4.79-3.58 5-6.54 1-5-6.71-6.89-2.62-2.1 4.48 4.33 6.42 14 1 14-7.85 0-3.24-3.49-1.68-5.36 2.37z" fill="#f87318" data-color="1"/>
        <path d="M622.47 359.43c2.95 4.49 11.82-5.09 10-10.8-.94-3-1.88-2.4-4.32 2.61s-3.72 5.11-4.71.19c-1.16-5.77-1.62-6.77-3.09-6.77-.79 0-1.44.39-1.44.87.01 3.03 2.29 11.96 3.56 13.9z" fill="#f87318" data-color="1"/>
        <path d="M601.83 352.54a22.09 22.09 0 0 0 1.52 4.56c1.87 4.49 2.74 4.54 5.81.38 3.49-4.74 5.27-9.67 4-11s-3.25-.2-3.25 2.05c0 6-4.35 6-5.67-.07-.7-3.18-3.8-6.32-5.32-5.37-.7.43-.37 2 .94 4.58a21.61 21.61 0 0 1 1.97 4.87z" fill="#f87318" data-color="1"/>
        <path d="M27.11 318.51c-1.95 0-1.81 2.46.24 4.15a20 20 0 0 1 3.6 5.75 33.37 33.37 0 0 0 3.61 6.33c2.19 2.57 5.55-.9 7.2-7.44a58.35 58.35 0 0 1 2.1-6.68c1.33-3.15-.25-4.82-2.46-2.6a7.94 7.94 0 0 0-1.65 4.9c0 7-3.86 8.37-6.41 2.27-1.61-3.85-4.24-6.68-6.23-6.68z" fill="#f87318" data-color="1"/>
        <path d="M19.71 298.68c3.86 7.67 5.22 8.1 8.64 2.73 1.23-1.93 3.17-4.71 4.31-6.18 2.58-3.34 2.62-4.87.14-4.87-1.28 0-2.65 1.51-4.13 4.58-2.34 4.83-4.94 5.68-6 1.95-.83-3-5.1-9.55-6.19-9.55-1.37 0-2.33 3.11-1.19 3.88.54.35 2.53 3.72 4.42 7.46z" fill="#f87318" data-color="1"/>
        <path d="M48.92 303.07c2.16 2.6 3.81 1.25 6-4.92 1.59-4.49 0-7.6-2-3.88-1.78 3.33-3.89 2.54-5.08-1.9-.93-3.45-4-5.89-4-3.17-.07 1.66 3.97 12.53 5.08 13.87z" fill="#f87318" data-color="1"/>
        <path d="M608.54 299.07a1.44 1.44 0 0 0 .2 1.76 20.7 20.7 0 0 1 2 4.61 39 39 0 0 0 3.18 6.88c1.72 2.81 2.3 3.15 3.57 2.1 2.35-1.95 6.55-11.56 5.85-13.38-.82-2.14-2.34-2.08-3.05.13-2.82 8.78-3.42 9-6.22 2.26-1.9-4.59-3.8-6.09-5.53-4.36z" fill="#f87318" data-color="1"/>
        <path d="M597.73 271.71c.51.32 1.7 3 2.65 5.84a32.75 32.75 0 0 0 2.71 6.53c2.64 3.33 9.8-4.95 9.8-11.35 0-3-3.1-1.32-4.66 2.59-2 5.07-3.13 4.75-5.31-1.58-1.27-3.7-2.29-5.08-3.92-5.32-2.23-.33-3.18 2.11-1.27 3.29z" fill="#f87318" data-color="1"/>
        <path d="M622.79 280.73a4.19 4.19 0 0 0 1.47 1.89c1.28.47 4.71-2.07 4.71-3.49a29.09 29.09 0 0 1 2.1-5.32c2-4.25 1.95-6.58-.15-6.58-.53 0-1.68 1.81-2.56 4-1.72 4.28-3.89 5.23-4.87 2.14-.93-2.92-4.28-5.49-6.2-4.75-1.51.58-1.41 1 .85 3.39a17.94 17.94 0 0 1 2.16 3c1.04 1.87 1.88 4.52 2.49 5.72z" fill="#f87318" data-color="1"/>
        <path d="M26.67 244.5c0 2 3.15 8.76 6.07 13 3 4.47 14.41-6.76 11.54-11.4-1.22-2-2.57-1-4.75 3.5-2.87 5.91-4.4 5.71-7.37-1-2.26-5.08-5.49-7.51-5.49-4.1z" fill="#f87318" data-color="1"/>
        <path d="M21.07 233.8c1.44 2.35 3 4.28 3.42 4.28 2 0 10.08-13.56 8.8-14.84s-3.94 1.34-5.12 4.85c-1.72 5.1-4 4.92-6.39-.53-2.13-4.81-4.79-6.78-6.17-4.55-.49.79-.08 2.35 1 3.92s3.03 4.52 4.46 6.87z" fill="#f87318" data-color="1"/>
        <path d="M55.84 224c0-2.28-3.28-.73-4.33 2-1.56 4.12-3.17 3.78-4.59-1-1.15-3.86-2.73-5.82-3.8-4.74-.9.9 1.9 12.15 3.49 14 2.62 3.11 9.23-4.26 9.23-10.26z" fill="#f87318" data-color="1"/>
        <path d="M609.35 215.83a76.27 76.27 0 0 1 2 8.38 47.13 47.13 0 0 0 2.45 8.79c.84 1.58 1.52 1.84 2.88 1.11 1.92-1 7.47-13.9 6.6-15.31-1.28-2.06-3.09-.51-4.34 3.71-1.73 5.85-3.41 5.26-4.38-1.55-.43-2.95-1.26-5.94-1.84-6.64-1.48-1.77-4.23-.55-3.37 1.51z" fill="#f87318" data-color="1"/>
        <path d="M598.33 198.86a48.15 48.15 0 0 0 1.63 5.89c1.21 3.22 3.1 1.57 5.31-4.65a67.09 67.09 0 0 1 2.67-6.54c.72-1.33.56-1.94-.63-2.4-1.86-.71-3.14.37-3.63 3.09-.42 2.35-2.86 3.39-2.86 1.22 0-2.43-2.14-6.5-3.75-7.12-2.75-1-3.37.59-1.42 3.8a25.73 25.73 0 0 1 2.68 6.71z" fill="#f87318" data-color="1"/>
        <path d="M621.91 202.89c1.59 1.7 5.81 1.48 5.81-.31 0-.13.9-2.69 2-5.69 1.54-4.23 1.71-5.65.75-6.26-2-1.26-2.23-1-3.78 3.45-1.85 5.35-3.24 5.43-4.35.25-1.21-5.64-2.45-8.54-3.64-8.54-2.42 0 .18 13.84 3.21 17.1z" fill="#f87318" data-color="1"/>
        <path d="M37.83 178.11c-2 6.38-3.88 5.76-7.28-2.39-1.62-3.9-3.41-6.67-4.44-6.88-1.34-.27-1.56.08-1 1.51.43 1 1.55 4.35 2.5 7.39a67.8 67.8 0 0 0 3.43 8.8c2.06 4 3.86 4.14 6.2.56 1.6-2.44 2.41-4.8 4.2-12.25 1.13-4.55-2.07-1.69-3.61 3.26z" fill="#f87318" data-color="1"/>
        <path d="M27.7 150.22c-1.26-1.23-2.07-.4-5.28 5.39-2.11 3.81-3.33 3.28-5-2.15-1.24-4.12-3.26-5.88-4.89-4.25-.51.51.42 3.52 2.23 7.17 4.15 8.39 6.4 8.52 10.85.63 2.44-4.24 2.95-5.94 2.09-6.79z" fill="#f87318" data-color="1"/>
        <path d="M49.89 153.78c-1.71 4.12-2.76 3.8-5-1.5-1.63-3.82-5-6.36-5-3.77 0 1 3.44 11.44 5.14 13.52 4.63 5.69 10.76-2.37 8.94-9.72-.7-2.59-2.78-1.67-4.08 1.47z" fill="#f87318" data-color="1"/>
        <path d="M618.92 145.46c0 8.28-4.64 11.84-6.83 5.25-1.32-4-3.54-6.16-4.87-4.83-.63.62 2.92 10.6 4.88 13.74 2.68 4.28 10.86-7.52 9.63-13.87-.47-2.4-2.81-2.63-2.81-.29z" fill="#f87318" data-color="1"/>
        <path d="M608.4 127.71c-.7-1.82-2.08-.81-3.92 2.86s-3.23 3.29-4.54-1.06c-1.12-3.76-3.29-5.25-4.58-3.16-.31.5.28 2.87 1.31 5.28s2.14 5.18 2.48 6.15a2.52 2.52 0 0 0 2 1.76c2.85 0 8.34-9 7.25-11.83z" fill="#f87318" data-color="1"/>
        <path d="M624.28 129.78c-.51 1-1.43.88-2.06-.24l-1.14-2c-2-3.63-5.18-5.54-5.18-3.16 0 .93 3.93 9.67 5.36 11.92 1.73 2.73 7.71-4 7.71-8.72 0-3.48-1.87-3.27-3.77.43z" fill="#f87318" data-color="1"/>
        <path d="M26.2 106.35c-2.13 0-2 1 1.53 8.48 1 2.21 3.08 7.87 6.45 6.44s5.72-7.49 7-10.51a6.58 6.58 0 0 0 .62-2.52c0-2-1.28-2.88-2.67-1.75s-2.31 3.81-3 5.47c-2.46 6.43-4.31 5.72-7.41-2.84-.53-1.52-1.67-2.77-2.52-2.77z" fill="#f87318" data-color="1"/>
        <path d="M16.81 93.72c1.84 4.73 3.9 8.6 4.59 8.6 2.84 0 3.9-3.51 5.18-5.34 1.68-2.4 4.06-4.84 4.1-8 0-3.36-3-1.73-5.22 2.76-.88 1.83-1.92 5.34-4.14 3.26-1.54-1.45-2.07-3.82-3.33-5.46-.49-.64-2.42-1.59-3-.51-.37.71 1.51 3.87 1.82 4.69z" fill="#f87318" data-color="1"/>
        <path d="M38.73 93.05a33.77 33.77 0 0 0 3.17 5.23c2.77 3.75 4.54 2.93 8.18-3.75 2.05-3.76 2.4-5.21 1.51-6.11-1.86-1.86-2.59-1.42-3.81 2.4-1.41 4.28-3.61 4.29-6 0-1.85-3.35-4.62-5.41-5.75-4.28-.42.42-.21 1.53.46 2.48a25 25 0 0 1 2.24 4.03z" fill="#f87318" data-color="1"/>
        <path d="M609.33 96.86c-1-2-3.78-5.55-4.35-1.36-.5 3.71 1.67 10.85 6.62 8.9 3.73-1.47 7.23-6.94 7.3-10.87.06-3.11-3.68-1.12-4.58 2.44-1.24 4.93-2.93 5.23-4.99.89z" fill="#f87318" data-color="1"/>
        <path d="M623.3 87.13c2.9-1.32 6.06-6.69 5.54-9.39-.69-3.54-2.58-2.64-3.49 1.67-1.12 5.32-3.91 6.42-4.89 1.93a8.94 8.94 0 0 0-2.1-4.19c-2.57-2.14-2.94 1.89-.61 6.69 2.41 4.95 2.19 4.82 5.55 3.29z" fill="#f87318" data-color="1"/>
        <path d="M598.91 82.67c3.16 5.36 14 1 12.78-5.2-.56-2.91-3.14-2-4 1.38-1.37 5.29-4.63 5.41-7.22.27-1.37-2.73-3.65-3.71-3.65-1.56a15.38 15.38 0 0 0 2.09 5.11z" fill="#f87318" data-color="1"/>
        <path d="M88.41 46.3c-.4.4 0 1.55 1 2.56A7.37 7.37 0 0 1 91 51.3a40.21 40.21 0 0 0 2 5.2c3.36 7.84 6.88 5.57 11.07-7.12 1.47-4.47.81-9.91-.7-5.8-4.79 13-6.16 14.28-8.9 8.33-1.96-4.3-4.78-6.91-6.06-5.61z" fill="#f87318" data-color="1"/>
        <path d="M84.74 36.72c2.46 5.08 4.16 3.82 8.63-6.41.68-1.56 3.35-6.3 2.56-8.14-.64-1.5-1.7.36-2.33 1.27-1.53 2.18-2.82 7.55-5.94 7.75-3.46.22-4-4.73-5.13-7-.46-.9-2.23-5.32-3.52-5.33-1.91.01.05 6.14 5.73 17.86z" fill="#f87318" data-color="1"/>
        <path d="M104.76 35.72c2.59 6.79 5 5.56 8.38-4.25 1.1-3.19 1.74-6.22 1.42-6.73-1.11-1.8-2.77-.2-3.88 3.75-1.58 5.62-3.66 5-5.57-1.57-1.24-4.28-5.11-8.81-5-5.86.01.83 3.2 10.82 4.65 14.66z" fill="#f87318" data-color="1"/>
        <path d="M149.44 48.59c-1.7-1.05-2.34 1.53-.83 3.28a13.3 13.3 0 0 1 2.2 4.71 13.32 13.32 0 0 0 1.76 4.27 2.79 2.79 0 0 0 4.6 0c1.5-1.83 7.29-17.15 6.71-17.73-1-1-3.79 3-5.52 8.06-2.27 6.7-3.35 7.07-5.92 2a18 18 0 0 0-3-4.59z" fill="#f87318" data-color="1"/>
        <path d="M143.16 36.22c3 3.59 5.22 1.86 8.26-6.44.59-1.62 1.86-3.83 2-5.54.16-2-1.47-2-2.69-.56-1.69 2-1.07 7.86-3.77 8.86s-5.12-4.76-5.89-6.41c-2-4.17-4.18-6.19-5.43-4.94-.64.62 5.21 12.27 7.52 15.03z" fill="#f87318" data-color="1"/>
        <path d="M161.89 30.61a39.85 39.85 0 0 0 2 6.28c1.64 2.65 4.62-.81 6.47-7.49 1.49-5.41-.29-6.88-2.35-1.93-1.81 4.32-2.68 3.87-4.44-2.31-.77-2.71-1.8-4.28-2.8-4.28-1.18 0-1.41.58-.89 2.27.38 1.24 1.29 4.6 2.01 7.46z" fill="#f87318" data-color="1"/>
        <path d="M206.66 41.91c0 2 5.94 14 7.2 14.47 2.82 1.12 11.53-12.07 9.39-14.21-.82-.82-3.3 1.88-5 5.41-2.26 4.76-3.93 4.36-6.39-1.56-1.79-4.36-5.2-7.02-5.2-4.11z" fill="#f87318" data-color="1"/>
        <path d="M196.14 30.94a22.24 22.24 0 0 0 2.72 5.33c1.09 1.55 2.48 2.65 3.09 2.44 1.47-.49 8.15-13.72 7.34-14.53s-5.45 3.58-6.19 5.91c-1 3.23-3 2-5.42-3.25-2.11-4.66-4.41-7-5.68-5.7-.27.27.38 2 1.45 3.89a35.17 35.17 0 0 1 2.69 5.91z" fill="#f87318" data-color="1"/>
        <path d="M220.84 31c3.65 6.33 4.75 7 7.12 4.19s6.86-12.78 6.86-15.18c0-3.72-1.53-2.39-4.56 3.95-3.72 7.77-3.88 7.84-7.13 2.93-5.38-8.12-7.33-4.63-2.29 4.11z" fill="#f87318" data-color="1"/>
        <path d="M278.43 41.75c-2.18 0-1.26 1.92-.69 3.29s1.29 2.46 1.71 3.8c.55 1.72.88 3.3 2.2 4.64 3.88 3.91 7.13-.27 9.67-3.15 1.4-1.59 5.68-5.33 5.68-7.66 0-3-6.33.83-8.58 5.17-2.16 4.19-4.25 3.68-6.5-1.57-1.1-2.55-2.61-4.52-3.49-4.52z" fill="#f87318" data-color="1"/>
        <path d="M291.3 25.57c3.64 7.52 4.2 8 7.44 6.26 2.58-1.38 7.35-9.69 6.63-11.55-1-2.52-2.15-1.7-4.48 3.09-2.57 5.31-5.11 5.68-6.4.94-1.14-4.22-4.47-8.31-5.72-7-.66.63.23 3.44 2.53 8.26z" fill="#f87318" data-color="1"/>
        <path d="M281.45 19.34c0-3.65-2.44-1.46-4.4 3.95-2.31 6.39-3.89 6.53-7.43.68-2.72-4.51-5.26-5.94-5.26-3 0 .85 1.58 4 3.51 7 5.39 8.49 13.58 3.24 13.58-8.63z" fill="#f87318" data-color="1"/>
        <path d="M347.51 48.13c1.11 3 2.21 6 2.45 6.69.52 1.53 1.06 1.56 3.59.21S360.78 46.27 360 45c-1-1.63-3.32-1.08-4 1-1.44 4.56-3.31 4.43-5.43-.35-3.48-7.97-6.12-5.78-3.06 2.48z" fill="#f87318" data-color="1"/>
        <path d="M364.5 34.76c1.66-.31 9.27-14.78 8.48-16.14-1.15-2-3.32-.33-5 3.77-2.22 5.39-3.92 5.78-4.79 1.11-.71-3.79-3.17-6.48-4.6-5-.84.85.43 6.28 3.24 13.78.65 1.72 1.67 2.66 2.67 2.48z" fill="#f87318" data-color="1"/>
        <path d="M338.72 29.55c3.59 4.7 5.77 4.39 7.75-1.1a61.47 61.47 0 0 1 2.53-5.89c1.81-3.58 1.84-5.7.07-5.7-1.3 0-4.66 7.15-4.66 9.91 0 4.1-6.11-2.61-8.27-9.08-.22-.66-1.15-.9-2.06-.55-2.08.86-.16 6.11 4.64 12.41z" fill="#f87318" data-color="1"/>
        <path d="M416.7 37c-1.43.89-1.06 3 1.56 8.95 3.44 7.76 8.13 7.33 12.5-1.16 2.78-5.4-.65-6.08-3.92-.77-2.66 4.3-3.91 4.08-5.67-1-1.58-4.54-3.23-6.76-4.47-6.02z" fill="#f87318" data-color="1"/>
        <path d="M405.54 32.06a6.35 6.35 0 0 0 2.82 1.34c1.74.05 10.67-12.06 10.06-13.66-.83-2.14-3.73 0-6.49 4.81-2.92 5.08-5.11 4.72-7.29-1.18-1.6-4.33-4.92-6.81-4.92-3.67 0 2.51 3.98 10.96 5.82 12.36z" fill="#f87318" data-color="1"/>
        <path d="M429.55 26.87c3.15 5.47 4.12 6.46 5.83 5.94 2.82-.85 6.49-5.44 6.53-8.18 0-3-2.37-2.87-3.8.26-1.6 3.51-2.65 3.17-6.22-2-5.72-8.33-7.58-5.14-2.34 3.98z" fill="#f87318" data-color="1"/>
        <path d="M483.18 40c-.75-1.47-4.45-6.59-5.82-2.59-1.17 3.43 4.37 11.55 8.15 11.19 3.08-.28 9.34-5.18 7.13-8.75-1.06-1.71-3.5-.8-4.43 1.66-1.35 3.49-2.66 3.13-5.03-1.51z" fill="#f87318" data-color="1"/>
        <path d="M493.92 29.18c2.4 5.56 7.24 3.86 11.26-4 3.07-6 .24-7.08-3.4-1.32-3.27 5.18-4.11 5.07-5.75-.74q-1.35-4.77-3.21-5.13c-2.21-.39-1.71 4.69 1.1 11.19z" fill="#f87318" data-color="1"/>
        <path d="M475 29c3.6 2.87 12.63-6 10.85-10.68-.95-2.47-2.51-1.6-4.64 2.58-2.59 5.07-4.45 5.09-7 .07-2.34-4.59-3.8-5.75-5.31-4.24-1.41 1.34 2.67 9.53 6.1 12.27z" fill="#f87318" data-color="1"/>
        <path d="M542.82 50.8c1.84 2.47 10.68-4.58 10.73-8.55 0-2.19-2.78-1.35-5 1.51l-1.09 1.38c-.6.76-1.46.9-1.92.31l-.83-1.07c-.92-1.18-2.19-3-2.83-4-.91-1.49-1.42-1.62-2.43-.65-1.28 1.18.62 7.38 3.37 11.07z" fill="#f87318" data-color="1"/>
        <path d="M554.91 34.21c1.33 3.87 3.69 2 9-7.08 3.16-5.39 3.46-6.41 2.07-6.94-1.81-.69-5 2.75-6 6.48-1 3.55-3.23 2.65-4.41-1.75-1-3.81-4.33-7-5.43-5.22-.28.46.54 3.52 1.82 6.79s2.61 6.75 2.95 7.72z" fill="#f87318" data-color="1"/>
        <path d="M530.6 33.2c2.07 4 14.17-6.56 12.5-10.91-.8-2.11-2.9-.76-5.12 3.29-2.64 4.81-3.8 4.5-5.08-1.36-.72-3.28-1.63-4.95-2.83-5.18-1.91-.36-1.51 10.2.53 14.16z" fill="#f87318" data-color="1"/>
        <path d="M347.12 345.91v-.25a.37.37 0 0 0 0 .25z" fill="#f87318" data-color="1"/>
        <path d="M347 346.43a1.6 1.6 0 0 1 0-.21s0 .13-.06.21z" fill="#f87318" data-color="1"/>
        <path d="M277.73 286.35a1 1 0 0 0-.18-.07h.14z" fill="#f87318" data-color="1"/>
        <path d="M268.58 284.67c.87 5 4.79 9.26 9.83 9.32 11.14.13 15.44-16.24 9.73-24.54-2.93-4.25-8.9-6.63-13.45-3.56a10.32 10.32 0 0 0-4.32 7.85c-1.5 3.44-2.47 7.04-1.79 10.93zm9 1.61h-.08a6.78 6.78 0 0 0 .86.22h-.2a2.49 2.49 0 0 1-.4-.11s.06 0 0 .06l-.16-.09c-.16-.09-.15-.1-.05-.08z" fill="#f87318" data-color="1"/>
        <path d="M376 265.49a10 10 0 0 0-9.09 4.9c-2 .68-2.82 2.53-2.51 4.62-.12-.8 0-.09 0 .13v1.45a1.72 1.72 0 0 0 0-.2.79.79 0 0 1 0 .17c-.22 1.07-.46 2.15-.69 3.22a17.31 17.31 0 0 0-.33 6.41c.7 4.71 4.65 8 9.22 7.11 4.06-.78 6.94-4.54 9.19-7.84 2.45-3.6 3.94-7.81 3.09-12.24a9.54 9.54 0 0 0-8.88-7.73zm-4.56 20.35h-.12l.13-.05zm2.06-12.18zm2.33-.66a1.71 1.71 0 0 0 .29.08.63.63 0 0 1-.35-.08zm-.78 0zM371 286zm.06 0a.69.69 0 0 1 .2 0 .89.89 0 0 0-.14 0zm5.64-12.76z" fill="#f87318" data-color="1"/>
        <path d="M364.4 276.24v.15a.379.379 0 0 1 0-.15z" fill="#f87318" data-color="1"/>
        <path d="M505.44 460.11a405.43 405.43 0 0 1-10.6-49c-1.64-21.68-3.26-43.36-4.38-65.07 0-4.31-.06-8.61 0-12.91.14-21.57 1-43.13 1.53-64.7.53-20.57 1.44-41.47-.21-62-1.45-18.15-6.55-36-20.92-47.5-13.89-11.12-32.18-14.75-49.14-17-19.1-2.54-39.35-2-57.42 5.61-13.32 5.59-25.5 14.74-33.76 27.09a40.6 40.6 0 0 0-17-22.85c-16.05-10-36.22-8-53.05-1.42A166.75 166.75 0 0 0 234 164.12c-7.82 4.83-15.59 9.8-23.16 15.08-15 10.44-29.18 22.44-39.68 37.89-10.84 16-16.52 35-20.43 54-4.37 21.14-7.58 42.62-10.46 64a973.11 973.11 0 0 0-8.76 134c.19 45.14 3 90.21 6.12 135.22q.58 8.48 1.18 16.95a3.59 3.59 0 1 0 7.18.05l5.28 27.32c.79 4.1 7.45 3.24 7.06-1a49.46 49.46 0 0 1 .11-9.74c2.17 5.69 4.48 11.33 7 16.85a3.56 3.56 0 0 0 4.06 1.73 3.93 3.93 0 0 0 2.64-3.62 105.21 105.21 0 0 1 3.75-17.25l11.46 11.63c2.13 2.17 6.31.7 6.14-2.65-2.2-42.54-5.83-85.46-3-128.05a848.07 848.07 0 0 0 11.45 85q3.24 17.25 7.19 34.32c.84 3.64 6 3.52 6.94 0a234.19 234.19 0 0 0 7.22-50.5c.51-15.72-1.06-31.16-3.12-46.68 2.2 6.49 4.79 12.85 7.41 19.05 12.43 29.35 32.75 59.5 64.92 66.07A58.73 58.73 0 0 0 304 625a3.79 3.79 0 0 0 3.1-5.65 192.49 192.49 0 0 1-18.1-41.77c6.8 3.69 12.58 9.36 18.29 14.64 7.81 7.23 16.17 14.47 26.61 16.86a3.72 3.72 0 0 0 4.43-4.62l-1-4c4 1.2 8.33.93 10.94-2.91a8.62 8.62 0 0 0 1.45-5.1c6.63-4.6 13.36-9.07 20.3-13.14A118.61 118.61 0 0 1 348 599.9c-2.49 1.77-2.26 6 .86 6.87 22.57 6.51 46.23-4.64 61-22.5a109.34 109.34 0 0 0 17.61-30.9c2.91 21.16 7.64 42.09 12.66 62.76.76 3.11 1.52 6.21 2.29 9.32a15.7 15.7 0 0 0 .8 3.28c1.64 4.43 8.12 2.79 6.94-2-.16-.66-.32-1.32-.49-2-.6-4.09 1.24-8.56 5.14-10.14 4.4-1.79 9.76 1.36 11.1 5.93 1.08 3.71 5.73 3.4 6.93 0l1.8-5.09 2.71 5.49c1.3 2.64 4.82 2.24 6.21 0l4.42-7.1 2.42 2.09a3.63 3.63 0 0 0 6.14-2.66l4-56.62q4.9 13.2 9.79 26.39c1.26 3.41 5.77 3.71 6.94 0 12.9-40.93-.84-83.4-11.83-122.91zm-27.65-281.34c3.78 7.4 5.57 15.85 6.45 24.13a277 277 0 0 1 1 28.08c0 8.07-.12 16.13-.28 24.19-.88-7-1.94-14-3.3-21a209.77 209.77 0 0 0-13.88-45.06c-5.82-13.12-13.32-26-24.68-34.62-.64-.49-1.32-.86-2-1.31a75.51 75.51 0 0 1 20.22 8.08 43.46 43.46 0 0 1 16.47 17.51zm-17.4 273c-.72 19.14-1.33 38.31-1.5 57.47-1-9.7-2-19.42-2.88-29.14q-4.45-50.47-5.66-101.19c-.4-16.87-.47-33.73-.4-50.6s.1-33.51-1.37-50.19c-2.57-29.19-10-58.65-27.65-82-12.41-16.4-30.75-28.86-50.61-32.45 3.09-1.18 6.19-2.36 9.29-3.51a55.74 55.74 0 0 1 13.71.67c30.22 5.36 49.31 34.61 57.72 63.27 5.14 17.55 7.46 35.9 9.2 54.12 1.82 19.16 2.69 38.42 3 57.68.49 38.62-1.4 77.24-2.85 115.85zM360.3 339.84a41.39 41.39 0 0 0-7 1.54 11.12 11.12 0 0 0-1.41-2.29 14.33 14.33 0 0 0-6.26-4 29.56 29.56 0 0 0-8.5-1.46h-1.32c.42-4.52.45-9.12.62-13.66q2.16-57.23-1-114.49c-.19-3.55-.42-7.1-.65-10.66 9.07-9 21.09-15 33.73-11.19 13.15 3.94 23.17 15.65 30.42 27.21 16.82 26.84 21.51 59.43 23.11 90.85.89 17.51 1 35.05 1.76 52.57.62 14.71 1.4 29.42 2.07 44.14-2.87-9.87-6.6-19.56-11.94-28.24a67.58 67.58 0 0 0-23.41-23.43c-9.11-5.33-19.77-8.29-30.22-6.89zm-13.15 5.44v.34c.05-.1.07-.08 0 .18v.2l-.09.29v.21a1 1 0 0 0-.05.16v-.16c0-.05 0 .12-.06.16a10.16 10.16 0 0 1-.69 1.14c-.1.09-.57.69-.69.81s-.48.5-.72.74c.05-.35.1-.7.14-1.06.56-.88 1.13-1.76 1.72-2.62.13-.2.27-.39.41-.58a2 2 0 0 0 .03.19zm-150.42 50.88c.13-.56.25-1.13.38-1.69 8.93-38.22 20.32-76.9 38-112-.63 2.57-1.25 5.13-1.76 7.73A474.87 474.87 0 0 0 215 346.78a482.33 482.33 0 0 0-13.71 85.38c-.57 8.15-.87 16.31-1 24.48a503.62 503.62 0 0 1-3.56-60.48zm-21.82 72.08q-.84 5.24-1.55 10.5-.78-3.58-1.5-7.16a199.81 199.81 0 0 1-3.86-51.13c1-17.86 4.13-35.49 7.3-53.05 6.21-34.47 12.06-69.45 22.81-102.77 4.93-15.31 11.81-29.4 22.47-41.23a205.89 205.89 0 0 1 17-16.4c5.59-4.91 11.18-9.84 17-14.44 11.06-8.72 24.06-17.34 38.27-18.3a35.68 35.68 0 0 1 4.14 0c-3 5.4-6.13 10.69-9.45 15.84-.51.79-1 1.57-1.54 2.35q-4 2.34-7.85 4.91a160.75 160.75 0 0 0-26.5 22.21c-16.05 16.64-28.88 36.58-38.48 57.93-16.64 37-23.17 77.09-23.63 117.49-5.62 24.21-10.7 48.68-14.63 73.25zm143.86-117.89h.05a.32.32 0 0 1-.06.08zm4.41-157.54c.12.55.3 1.08.38 1.65a4.2 4.2 0 0 0 .26.78 25.1 25.1 0 0 0-1.48 4.64c-.11.06-.24.1-.35.17-.15-1.8-1.69-3.67-3.54-3.48a76.45 76.45 0 0 0-7.75 1.33 38 38 0 0 0 4.22-6.37 3.87 3.87 0 0 0-2.15-5.52c-4.85-1.65-9.75-1-14.43.54 1.05-1.73 2.14-3.43 3.15-5.19s2.27-3.78 3.41-5.89c6.57 1.79 12.68 5.52 16.16 11.52a19.18 19.18 0 0 1 1.74 4.17 3.27 3.27 0 0 0 .38 1.65zm-57.65 31.66c-1.77 1.87-3.51 3.76-5.16 5.75-1.52 1.72-3 3.43-4.48 5.25-16.55 21-29.1 45.61-39.24 70.58a505 505 0 0 0-17.82 52.86c5-45.52 21.08-91 50.39-125.66a159.75 159.75 0 0 1 26.62-25.19q-5.29 8.1-10.31 16.41zM284 209.05c1.53-2.37 3-4.77 4.56-7.12.81-1.22 1.59-2.44 2.39-3.66l.52-.31c4.33-2.43 9.17-5.08 14.13-5.37-3.61 4.73-8.3 8.41-13.24 11.73a83 83 0 0 0-8.36 4.73zM210.54 517.9c.09 1 .22 1.93.32 2.9a460.68 460.68 0 0 1-3.25-70.94 470.42 470.42 0 0 1 11-87.16q4.63-20.74 11.11-41c0 .45-.07.91-.08 1.36a381.54 381.54 0 0 0 1.82 49.68c1.57 17.08 4 34.63 1.14 51.7-2.64 15.81-10.17 29.92-15.78 44.69a101.16 101.16 0 0 0-6.06 23 120.56 120.56 0 0 0-.22 25.77zm29.91-125.65c-1.23-16.47-3.2-32.84-3.66-49.38s.34-33.79 3.45-50.31c1.75-4.41 3.45-8.84 5.33-13.18a447 447 0 0 1 26-50.28 102.44 102.44 0 0 1 15.32-12.4c3-1.94 6-3.87 9-5.89a71 71 0 0 1 13.61-5.12 63.34 63.34 0 0 1 8.95-1.6 4.4 4.4 0 0 0 1.92-.73 4.31 4.31 0 0 0 0 .71c.41 1.72.64 3.45 1 5.18v2.12c.08 10.75.31 21.51.47 32.26l1 65.69.06 4.37v1.08c-.19 6.91-.13 13.83.08 20.74a40.31 40.31 0 0 0-11.34 5.62c-.45.15-.91.27-1.36.43-14 4.94-26.59 13.43-37.35 23.92-13.77 13.41-23.93 29.77-32 47.31a170.13 170.13 0 0 0-.48-20.54zm137.38-239.4a68.3 68.3 0 0 0-12.72 2.42 83.79 83.79 0 0 1 25.09-6.52c-4.2 1.19-8.28 2.59-12.37 4.1zM154.17 624.13c-.09.23-.13.48-.22.72q-1.3-6.78-2.62-13.56a3.58 3.58 0 0 0-5.28-2.24c-.33.19-.57.46-.88.68-2.76-39.68-5.37-79.39-6.23-119.17a987.06 987.06 0 0 1 5.24-129c2.35-21.42 5.41-42.75 9-64 3.18-19 6.38-38.25 13.41-56.15 6.68-17 17.54-31 31-42.74s28.68-21.3 43.81-30.37c15.64-9.37 33-17.58 51.48-15.73 14.36 1.44 28.37 11.19 31.35 26.49a35.87 35.87 0 0 0-16.51-10.49 10.48 10.48 0 0 0-1.13-8c-3.16-5.14-9.85-6.15-15.21-5.83a67.86 67.86 0 0 0-20.78 4.73c-13.39 5.27-25.32 13.7-36.51 22.9a231.12 231.12 0 0 0-28.5 27.91 251.29 251.29 0 0 0-42.29 69.5 261 261 0 0 0-18.32 85.35c-1.6 32.77 2 65.51 6.53 97.89 4.61 32.74 10.37 65.33 13.3 98.31q1.06 12 1.57 24.06c.19 4.82 7.39 4.84 7.19 0-1.31-32.46-6.2-64.6-11-96.65-4.81-31.84-9.63-63.79-10.59-96.07-.88-29.95 1.83-59.92 10.43-88.6a245.33 245.33 0 0 1 34.83-71.27c15.3-21.6 34.34-41.06 56-55.62 11.57-7.76 24.63-14.22 38.57-14.95a14 14 0 0 1 7.2 1.09 3 3 0 0 1 1.64 3.75c-11.58-1.36-23.18 2.29-33.47 8-13.6 7.56-25.49 18.47-37.14 28.87-12.15 10.84-23.22 22.74-30.54 37.73-7.48 15.34-11.89 32.23-16 48.84-4.37 17.77-7.91 35.76-11.24 53.77-6.65 36-15 73.11-10.48 109.9 1.9 15.41 5.85 30.72 9.22 46.09-1.9 22.87-1.55 45.88 3.15 68.47.76 3.66 6.08 3.5 6.93 0 .62-2.54 1.09-5.08 1.5-7.61.29 15.28 1 30.57 1.81 45.8l1.46 28.25q-4.45-4.53-8.92-9.07c-2.07-2.1-5.07-.94-6 1.66a109.94 109.94 0 0 0-3.72 12.68c-2.19-5.37-4.26-10.81-6.06-16.35-1.24-3.63-5.71-3.42-6.98.03zm58.49-6.56a833.65 833.65 0 0 1-15.33-104.5q-1.4-17.27-2.07-34.58c-.17-4-6.25-5.34-7.07-1a343.7 343.7 0 0 0-5.37 49.81c-1.06-9.1-2.8-18.17-4.74-27.2.64-7.43 1.53-14.84 2.59-22.19 2.57-17.74 5.94-35.4 9.66-53 .23 4 .49 7.92.81 11.87 2.81 34.55 8.76 68.72 15.07 102.74.77 4.13 6 3.13 6.85-.27 1.34 10.05 2.67 20.1 3.05 30.27a224.47 224.47 0 0 1-3.45 48.05zm51.72-16.8c-11.94-10.71-20.47-24.79-27.27-39.47-3.52-7.59-6.68-15.38-9.45-23.3-2.89-8.29-5.32-16.92-6-25.75-1.36-17.9 4.57-35.57 9.59-52.42 9.32-31.31 21.4-63 44.1-86.47a99.4 99.4 0 0 1 31.87-22.49c.87 2.55 3 4.34 5.16 5.73q.81.52 1.59 1.08l.52.39.38.29a35 35 0 0 1 2.76 2.55 33.81 33.81 0 0 1 2.34 2.7l.38.51.4.57c.36.54.71 1.09 1.05 1.66 1.42 2.38 2.25 5.45 4.59 7.07a5.88 5.88 0 0 0 6.45.09c1.17.84 2.39 1.59 3.53 2.47.85.66 1.07.84 1.71 1.36.8.66 1.6 1.33 2.39 2 1.47 1.28 2.92 2.59 4.34 3.95q4.24 4.05 8.1 8.53c2.55 3 4.94 6 7 8.87a127.08 127.08 0 0 1 11.71 20.44c.38.85.75 1.7 1.12 2.55s.77 1.85 1 2.42c.73 1.85 1.42 3.73 2.06 5.62a123.53 123.53 0 0 1 3.43 12.28 126.42 126.42 0 0 1 .64 52.08 123.18 123.18 0 0 1-7.77 25 193.14 193.14 0 0 1-12.89 23.71c-4.78 7.73-9.77 15.31-14.32 23.2-1.4 2.41-2.78 4.89-4.06 7.41l-.28-.4c-9.78-13.72-20.46-26.73-29.66-40.89-9.34-14.39-16.75-29.9-19.57-47.16-3.1-19-.93-38.61 3.75-57.09 5.44-21.47 14.25-41.75 23-61.9 1-2.29.2-4.68-2.15-5.52-15.43-5.53-28.28 11-36.36 22.21a162.06 162.06 0 0 0-21.33 41.37 165.36 165.36 0 0 0-4 94.53A163 163 0 0 0 276 570.14a3.51 3.51 0 0 0 3.87 1.57 3.38 3.38 0 0 0 0 .45A200.28 200.28 0 0 0 297.56 617c-12.28-1.73-23.8-7.82-33.18-16.23zm19.92-33.24a3.21 3.21 0 0 0-1.6 0 3.39 3.39 0 0 0-.48-1.19 156.88 156.88 0 0 1-1.93-169.63 115.85 115.85 0 0 1 14.39-19.12c4-4.16 9.33-8.33 15.08-8.47-14.25 32.84-28.23 67.21-27 103.94a117.54 117.54 0 0 0 13.55 50.75c7.58 14.51 17.48 27.51 27.22 40.47 4.8 6.37 9.54 12.79 14.06 19.38a13.27 13.27 0 0 0 .1 7.05 9.7 9.7 0 0 0 1.33 2.51 18 18 0 0 1-5.32-3.05c-2.64-2.09-6 1.35-5.28 4.25l1.29 5.27c-7.17-3.29-13.2-8.93-19.05-14.36-7.84-7.33-16.01-14.73-26.36-17.8zm125.56 4.59c-5.79 8.75-13.42 16.65-22.47 21.89a49.61 49.61 0 0 1-28.86 7 128.71 128.71 0 0 0 27.19-30.58 3.93 3.93 0 0 0-.56-4.56 3.66 3.66 0 0 0-4.36-.58c-11.83 5.29-22.73 12.44-33.44 19.85-.57-1-1.2-1.88-1.82-2.82l.19-.44c.48-1 1-2 1.53-3 1.05-2 2.15-4 3.27-6 4.51-7.91 9.5-15.51 14.29-23.22a202 202 0 0 0 13-23.66 129.89 129.89 0 0 0 8.55-25.89 135.56 135.56 0 0 0 .56-54.32A127.41 127.41 0 0 0 337.81 368c.52-.86 1.05-1.72 1.62-2.55.26-.05.52-.17.79-.22l.42-.06h.25c.49-.05 1-.1 1.47-.13 1-.05 2-.06 3 0s1.75.1 2.62.19l.71.09h.21l1.5.28c7.76 1.56 14.26 5 20.71 9.9 1.46 1.11 2.5 2 4.05 3.35s2.85 2.63 4.21 4a89 89 0 0 1 7.83 9.16l.5.69.8 1.12c.6.85 1.18 1.72 1.76 2.6 1.08 1.65 2.11 3.34 3.1 5.05a112.93 112.93 0 0 1 5.46 10.82 107.52 107.52 0 0 1 4.11 10.87q1.89 5.86 3.22 11.9a157.69 157.69 0 0 1 3.47 29.08c.61 19.19-1.39 38.48-4.88 57.26-3.19 17.17-8 33.79-17.57 48.18a66.39 66.39 0 0 1-3.39 4.71 4 4 0 0 0 0 5.32c1.27 1.32 3.85 1.57 5.09 0 11.25-14.37 17.66-31.88 21.53-49.84 2-9.42 3.44-19 4.57-28.57a262.09 262.09 0 0 0 1.95-30.93c0-19.25-2.68-38.77-9.75-56.64-6.28-15.88-15.66-30.64-28.53-41.51-6.59-5.56-13.86-10.16-22-12.69a43.67 43.67 0 0 0-9.93-1.87c2.83-2.46 5.89-5 7.1-8.6a2.55 2.55 0 0 0 .73-.07c1.17-.39 2.36-.74 3.56-1 .59-.14 1.19-.26 1.79-.37l.72-.12.24-.05h.24a42.72 42.72 0 0 1 7.24-.16c.61 0 1.21.1 1.81.18l.53.06.5.08c1.26.21 2.52.47 3.76.79a50 50 0 0 1 7 2.39c.68.28.31.14.17.07l.85.39 1.52.75q1.84.94 3.63 2a60 60 0 0 1 5.88 4.1 60.87 60.87 0 0 1 10.31 10.73c6.47 8.7 11 19.23 14.21 29.8a280.63 280.63 0 0 1 7.5 34.04c.36 2.1.69 4.22 1 6.32.05 7.37 0 14.73-.24 22.09-.58 17.57-2.31 35.09-2.28 52.67 0 7.35.41 14.66 1 22-3.3 12.94-8.33 25.45-15.62 36.47zm-61.27-206.91zm132.24 246.38c-1.2-2.43-2.41-4.87-3.61-7.31-1.54-3.1-5.58-1.91-6.57.9l-2.19 6.2c-4.09-4-10-6-15.54-4a15.09 15.09 0 0 0-6.36 4.57c-6-24.88-11.54-50-13.77-75.53a176.5 176.5 0 0 0 3.65-18.85c3.58-26 1.9-52.32-2-78.16-.05-.3-.1-.6-.14-.89q-.09-12.84-.56-25.67c-.66-18.28-1.73-36.54-2.53-54.82-.8-18-1-36-1.81-54-1.53-32.57-6-66.34-22.76-94.58-7.44-12.55-17.43-24.83-30.62-30.9a36.38 36.38 0 0 0-21-3.19 42.29 42.29 0 0 0-19.1 8.64c-.57.44-1.1.93-1.65 1.39A61.2 61.2 0 0 1 349.14 171c23.51-4.11 47.49 7.71 63.05 25.91 18.09 21.17 26 49.83 28.84 77.51 1.67 16.34 1.79 32.8 1.74 49.22s-.07 33.08.26 49.61q1 49.5 5.1 98.86t11.28 98.35q.9 6.09 1.83 12.17c.64 4.15 7.4 3.22 7.07-1-3.15-39.77-2.5-79.71-1.1-119.54s3.52-79.74 3.25-119.65c-.14-19.72-.87-39.45-2.57-59.1-1.64-19-3.79-38.19-8.64-56.61-8.13-30.9-26.93-62.77-58.27-71.8-.75-.21-1.51-.36-2.26-.54 11.36-2.45 23.5-2.82 34 2.45 12.11 6.05 20.07 18 26.05 30.14a190.11 190.11 0 0 1 14.7 43.19c6.68 30.25 7.63 61.47 8.72 92.38.28 8.07.66 16.13 1.09 24.18a511.79 511.79 0 0 0 4.28 63.63c.35 4.64.69 9.27 1 13.92 2.62 34.73 4.63 69.65 2.5 104.48q-.4 6.62-1 13.22a3.71 3.71 0 0 0 3.6 3.75 3.86 3.86 0 0 0 .49-.1l-4.3 60.21-.19-.16a3.57 3.57 0 0 0-5.65.76zm20.84-72.74a3.72 3.72 0 0 0-3.93-2.61c1.95-25.07 1.71-50.22.46-75.32 9.57 34.39 21.59 69.71 15.63 105.72-.18 1.08-.44 2.15-.65 3.23z" fill="#f87318" data-color="1"/>
    </g>
</svg>
