<?xml version="1.0" encoding="UTF-8"?>
<svg data-bbox="0 -0.018 666.62 738.313" viewBox="0 0 666.67 738.31" xmlns="http://www.w3.org/2000/svg" data-type="color">
    <g>
        <path d="M10.44.05C2.78.08 0-.12 0 8.85 0 9.52.33 728 .33 730.32c0 5 6.71 4.61 10.3 5 6.64.77 14.38.89 21 1 85.68 1.51 589.84.87 613.17 1.61l11.1.35c3.64.11 8.33-.39 8.71-1l.7-1.14c2.35-3.83.88-716.39.59-720.17C664.72 0 657.65.31 640.15.2 589.07-.13 13.93 0 10.44.05zM8.58 705.12a32.4 32.4 0 0 1-.1-3.94c-.06-3.41-.09-6.82-.13-10.23q-.09-8-.15-16L8 653.87q-.1-12.86-.19-25.72-.12-14.88-.21-29.76-.12-16.62-.22-33.24-.1-18.07-.21-36.15-.12-19.25-.23-38.49l-.24-40.28q-.11-20.75-.23-41.5-.12-21.08-.23-42.16T6 324.32l-.21-41.78-.2-40.75-.18-39.15q-.07-18.49-.16-37l-.14-34.27q-.06-15.5-.11-31 0-13.58-.08-27.13 0-11.35-.05-22.72V32.78c0-4.27-.31-8.46-.58-12.73-.1-1.61-.64-3.76 0-5.3 1.32-3.24 5-.06 5.82 2a15.76 15.76 0 0 1 .89 3.81 119.76 119.76 0 0 1 .87 15.27c.23 11.37.18 22.75.19 34.12 0 26.45 3.16 610 3.58 619.13.57 12.25.48 16.91-.35 18a24.23 24.23 0 0 0-2.29 4.64c-2.12 5.44-2.79 4.44-4.42-6.6zm606 26.87h-35.11q-21.75 0-43.49-.09-23.6-.07-47.19-.17-24.93-.09-49.85-.22l-51.45-.27-52-.32q-25.74-.17-51.49-.36l-50-.39-47.34-.42q-21.84-.19-43.68-.43-19.5-.21-39-.45-16.62-.2-33.22-.44-13.21-.2-26.42-.44c-6.18-.12-12.36-.25-18.55-.43l-6-.21c-.7 0-1.42-.11-2.12-.1-1.31 0-2.44.53-3.42-.58-2.65-3 .68-7.48 3-9.29 5.38-4.21 11-2.43 17.18-2.41 4.25 0 596 .16 602 .6 1.49.11 3 .21 4.48.46 2.83.49 8.73 7.8 10.61 10 .51.59 3.94 4.45 3.07 5.35-.28.3-18.33.62-40.04.62zM113.67 67.12h-2c-1.41 0-3 0-4-1s-1.06-2.58-1.07-4l-.24-21.32c0-3.19-.13-6.38.1-9.55.16-2.36-.27-5.25 1.75-6.95 1.3-1.09 3.13-1.16 4.8-1.18l19.53-.21 9.76-.1c1.81 0 4.44-.52 6.16.32 2.42 1.18 2.41 5.25 2.68 7.66.39 3.56.63 7.16.81 10.74.26 5 .41 9.94.34 14.91 0 2.37.73 5.76-.38 8-1.24 2.45-5 2.09-7.25 2.13zM592 77.69c2.59 3.39 1.66 11.86 1.68 15.18q.09 9.85.13 19.71.08 13.07.12 26.13.06 15.79.1 31.59.06 18 .1 36.08 0 19.8.08 39.6 0 21.07.07 42.16l.06 43.75q0 22.19.05 44.36V622.9q0 7.25-.05 14.49c0 2.13 0 4.26-.06 6.39a1.28 1.28 0 0 1 0 .19l-.38 4.65c-.21 2.57-2.09 4.62-4.18 4.58l-3.81-.07h-19.9l-21.82.07-28.25.1-33.55.11-37.74.11-40.8.12-42.76.11-43.58.1-43.3.08H157.25q-15.48 0-31-.07-12.53 0-25.07-.13-9-.06-18.07-.19l-6.11-.06c-.73 0-1.49 0-2.22-.07-4-.41-3.52-4.36-3.59-7.55q-.06-2.39-.09-4.77c-.1-5.8-.16-11.6-.22-17.39q-.12-12-.19-23.89-.1-14.74-.17-29.48-.09-17.07-.14-34.15-.07-19-.12-37.93-.06-20.4-.09-40.79 0-21.37-.06-42.74V242.37q0-19.44.09-38.88 0-17.7.11-35.39.06-15.49.15-31 .08-12.84.18-25.67.08-9.72.21-19.45.06-4.71.16-9.42c.06-2.2-.14-4.37 1.48-6.11s4.59-1.12 6.85-1.13q8.67 0 17.34-.06l25.57-.07 32.47-.06 38-.06L235 75h138.4l45.6.1 43 .1q19.59 0 39.16.14 17 .07 33.95.18 13.68.11 27.37.24c6.48.08 13 .16 19.46.3l5.26.13 2 .08a3.39 3.39 0 0 1 2.8 1.42zM160.69 24.77a10.61 10.61 0 0 1 5.47-1.17c12.84-.27 26-.9 38.78 0 6.53.44 6 10.72 6 15.55 0 5.4-.19 10.79-.31 16.19-.07 3.47.82 9.76-2.81 11.76a10 10 0 0 1-4.93.82l-38.74-.24c-1.6 0-3.37-.09-4.5-1.24-1.45-1.48-1.07-3.54-1-5.39.12-2.47-.11-5-.16-7.49q-.12-5.37-.1-10.73c0-3.73.52-7.25.09-11-.25-2.13-.25-4.51 1.1-6.14a4.39 4.39 0 0 1 1.11-.92zm90.47-1.84h5.22c2.88 0 5.61.8 6.09 1.73l.88 1.68c1.2 2.3 1.85 5.92 2 11.49.16 4.47.57 12.85.91 18.63l.31 5.26a5 5 0 0 1-5.02 5.28h-5.36c-5.91 0-16.8.3-24.2.65l-6.88.32c-3.64.18-6.78-.21-7-.86l-.45-1.11c-1.7-4.6-1-10.47-1.08-15.32l-.43-17.35c-.05-2.25-.09-4.61.86-6.64 2.24-4.83 9.91-3.62 14.17-3.68q9.99-.2 19.98-.08zm20.54 3.53c.36-1.19 1-1.88 2.87-2 3.9-.19 7.83-.13 11.73-.2l23.46-.41a8.79 8.79 0 0 1 4.32.67c2.14 1.15 2.42 6.27 2.71 8.76.63 5.5.74 11.08.89 16.62l.32 11.57c.07 2.78-.22 4.58-2.9 5.36a28.66 28.66 0 0 1-8 .74h-20.5c-2.5 0-13.58.72-14-3.27l-.32-2.69c-1.24-10.41-1.78-27.92-1-32.75a19.84 19.84 0 0 1 .42-2.4zm97.24.67a16.3 16.3 0 0 1 .51 4.84q.06 14.64.11 29.29c0 2.07 0 4.32-1.28 6a6 6 0 0 1-4.28 2.12c-3.17.32-6.67-.14-9.89-.18-33.3-.39-30 2.1-31-23.36q-.24-6.33-.52-12.67c-.12-2.66-1.23-7 1.59-8.47 2.37-1.27 5.32-1 7.9-1 3.27-.05 6.54 0 9.81 0l17.17.11a30.54 30.54 0 0 1 5.83.92c2.01.33 3.31.15 4.05 2.4zM381 25.87a10.74 10.74 0 0 1 4-.54c2.42 0 4.88-.31 7.32-.38 5.82-.18 11.64-.24 17.46-.09l6.39.16c3.53.09 6.53 1.19 6.69 2.45l.3 2.3c.33 2.53.75 12.16.92 21.42l.19 9.73a6.82 6.82 0 0 1-6.46 7.19l-15.38.19h-3.59l-9.16.12c-2.63 0-5.61.43-8.11-.48-4.42-1.61-3-9.66-3.15-13.41l-.81-20.22c-.08-2.05-.14-4.22.78-6a4.86 4.86 0 0 1 2.61-2.44zm73.14 42c-3.51.08-7.12.53-10.62.37-2.64-.13-5.44.17-8-.13a7.17 7.17 0 0 1-5.35-3C429 63.21 429 60.9 429 58.73q.2-9.82.38-19.63c.06-3.21.12-6.42.23-9.63a6.83 6.83 0 0 1 .27-2.63c.84-1.78 3.07-2 4.75-2.14 4.24-.46 8.56-.32 12.81-.43 3.69-.1 7.38-.31 11.07-.27 1.94 0 4.28-.05 6 .93 3.64 2 3.06 8.1 3.18 11.63.23 7.06.41 14.11.69 21.18a16.11 16.11 0 0 1-.54 6.16c-1.9 5.51-9.23 3.85-13.7 3.95zm23.4-43a13.05 13.05 0 0 1 4.37-.6c9.95-.18 20.24-1.13 30.14-.33 6.22.51 4.49 8.46 4.62 13.23q.32 10.67.62 21.32c.08 2.82.05 5.94-1.79 8s-4.92 2.31-7.54 2.1c-3.07-.24-6.16-.07-9.26-.07-25 0-23 1-23.92-11.7-.58-8-.69-15.86-.82-23.85 0-2.48 0-5.27 1.77-7a5 5 0 0 1 1.81-1.17zm72-.55c3.65 0 6.64 1.88 6.69 4.12l.09 4.05c.19 8.21.37 16.42.39 24.63 0 2.3 0 4.6-.06 6.9-.13 2.93-2.35 3.9-5 4.13-3.12.26-6.26.35-9.39.39s-6.56.08-9.82-.15c-3-.22-7.22.41-8.79-2.88a10.22 10.22 0 0 1-.65-4.41V31.48c0-1.53-.41-3.67.15-5.16.67-1.82 2.63-2 4.3-2.14 4.09-.37 8.29-.07 12.39 0zm44.9 43.11a2.38 2.38 0 0 1-2.54 1.11c-1.44-.12-8.25-.36-15.14-.53-11.35-.28-12.62-.5-13.53-2.29-.8-1.57-.6-4.16-.7-5.87-.22-3.78-.32-7.57-.38-11.36-.07-4.15-.09-8.31 0-12.46 0-2.78-.74-8.3 1.31-10.3 2.76-2.69 7.6-2.38 11.1-2.27s7.09.24 10.64.25c2.94 0 6.38-.65 8.28 2.35a9.47 9.47 0 0 1 1 4.94l.46 21.7c.08 3.55.51 7.3.23 10.84a10 10 0 0 1-.74 3.82zm-39.37 641.3c-.66-.06-1.31-.14-2-.22-1.09-.15-2.09-2-2.25-4.14l-.28-3.88c-.57-7.84-1-15.7-1.24-23.57-.08-3-.13-6.09-.1-9.14 0-2.21-.85-5.93 1.53-6.94a7.44 7.44 0 0 1 2.85-.4l33.94-.34c4.8 0 8.41 1.24 8.34 6.78q-.12 9.78-.57 19.53c-.27 6.06.28 12.31.34 18.42 0 1.4.11 3.14-1.22 3.78s-3.74.23-5.08.27c-3.53.12-7.22 0-10.65 0-7.78-.01-15.85.57-23.62-.22zm-16.44.27a35.58 35.58 0 0 1-6.63.16h-22.88c-2.83 0-6.47.26-9.14-.88-2.15-.92-1.9-4.49-1.88-6.54.07-7.14-.25-14.37-.25-21.56 0-5.48-.46-11.19 0-16.64.28-3.16 4-3.47 6.59-3.42l15.29.32c4.45.1 8.91.06 13.35.24 2.31.09 5 .05 7.17 1.08 4.31 2.07 3.43 9.44 3.39 13.34l-.3 25.9a12.64 12.64 0 0 1-.79 5.2 5.06 5.06 0 0 1-3.93 2.73zm-51.87.06a42.62 42.62 0 0 1-6.06 0l-25.89-.46a10.56 10.56 0 0 1-4-.58c-3.24-1.38-3.12-6.14-3.46-9.19-.87-7.81-1.42-15.67-1.79-23.52-.15-3.27-.28-6.56-.24-9.84 0-1-.32-3.76.47-4.54s3.87-.54 5-.59c3.51-.17 7-.2 10.55-.21 7.48 0 15 .7 22.44.67 2.53 0 4.72-.4 6.34 2.17 1.31 2.09 1.39 4.73 1.43 7.22q.24 15.4.49 30.81c0 2.07 0 4.29-1.08 6-.84 1.23-2.43 1.77-4.21 2zm-54.39-.85c-8 .28-16.07.61-24.09.48-3.58-.06-10.18.84-12.61-2.73-1.1-1.62-1.24-3.88-1.41-5.77-.32-3.57-.39-7.17-.59-10.74-.55-9.47-1.23-19.64-1.53-22.59l-.28-2.68c-.15-1.49 1.82-2.83 4.4-3l4.67-.33c15.19-1 38.45-.83 39.19.37.44.73.29 2.27.35 3.08.54 7.37.69 14.79.89 22.18q.16 6.17.25 12.33c0 3.89 1.12 9.09-4.08 9.24zM386 705.84a6.24 6.24 0 0 1-.44.9c-2 3.44-10 1.87-13.48 1.87H361.6c-32.39 0-30 2.6-30.35-32.51 0-2.17-.25-4.45-.06-6.61.22-2.52-.08-6.56 2.15-8.21a6.76 6.76 0 0 1 4.12-.88l27.79.1c3.07 0 6.13 0 9.2.08 4.24.16 8.38-.85 10.84 3.82 1.53 2.91 1.55 6.39 1.53 9.7l-.15 26.71a14.07 14.07 0 0 1-.67 5.03zm-80.61 2H284a6.49 6.49 0 0 1-4.18-1c-1.47-1.22-1.65-3.43-1.7-5.38q-.44-16.12-.86-32.24c-.08-2.77-.12-5.7 2.47-7.14a14.37 14.37 0 0 1 8.14-1.61 76.19 76.19 0 0 0 9.31-.09c6.75-.21 13.49-.23 20.24-.26 1.95 0 6.11-.22 7.43 1.74 1.07 1.59.56 4.74.77 6.6a87 87 0 0 1 .15 9.28q.06 9.6.13 19.22c0 2.66 0 5.44-1.16 7.81-1.56 3.17-4 3.48-7 3-3.91-.53-8.34.04-12.33.04zm-71 1.35c-2.89.48-5.19-1-5.42-4.06-.29-4 0-8.1 0-12.1q-.06-12.09-.1-24.18c0-2.28-.18-6.13 2.21-7.23 1.37-.64 3.54-.35 5-.43 2.06-.11 4.13-.19 6.19-.26q12.19-.36 24.38.36a6.51 6.51 0 0 1 3.15.75c1.94 1.24 2.14 4 2.11 6.38l-.34 34.54a6.71 6.71 0 0 1-.94 4.14c-1.51 1.94-4 1.38-6.1 1.32-2.45-.08-4.94.07-7.4.08-10.53.03-20.75.34-22.68.66zm-20.25-.48L180 709a5.29 5.29 0 0 1-2.5-.38c-1.68-.84-1.13-4-1.16-5.72-.06-2.78-.08-5.56-.1-8.34v-23.83c.08-8.91.12-9.09 2.32-9.42 3.66-.55 27.43-.88 34-.47l3.06.18c1.68.11 3.15 1 3.28 2l.23 1.84c1.06 8.62 1.87 21 2 30 .06 3.4-.1 6.79-.18 10.18s-2.7 3.61-5.55 3.63zm-75.29-.21q-3.57-.11-7.13-.26a7.76 7.76 0 0 1-7.13-7.05l-.54-6.78c-.59-7.45-1.35-18.12-1.69-23.71l-.31-5.08c-.17-2.8 1.62-5.09 4-5.09h38.27a6 6 0 0 1 3.81.89c1.39 1.12 1.55 3.18 1.61 5l.94 31c.09 3 .31 6.76-1.48 9.33s-8.2 1.75-11.11 1.86c-6.36.16-12.77.07-19.18-.14zm-69-25c-.06-4.33-.23-8.66-.2-13 0-2.3-.11-4.95.7-7.13 1.43-3.81 6-3.17 9.18-3 4.18.18 8.13-.31 12.31-.25l19.31.28a8.13 8.13 0 0 1 4.31.87c2.13 1.36 1.67 9.38 1.85 12.09.51 8.06.92 16.13 1.34 24.19.12 2.42 1.55 8.83-1.1 10.21a6.3 6.3 0 0 1-3 .49H76.78c-1.73 0-3.59-.05-5-1.07a6 6 0 0 1-2.18-4.4c-.15-1.85.35-3.66.38-5.47 0-1.23 0-2.48-.06-3.72-.02-3.39.02-6.73-.04-10.08zM26.4 707.66a3.82 3.82 0 0 1-2.95-2.24c-1.06-1.95-1.07-4.32-1.05-6.56l.24-24.79c0-4.92-1.28-13.81 6.07-13.79h28.28c8.94 0 6.83 9.77 6.82 16.17q0 12.94-.05 25.88c0 1.57-.07 3.32-1.15 4.43S59.84 708 58.32 708c-6.62 0-13.24.25-19.87.08-3.07-.07-6.48-.81-9.51-.51a10.44 10.44 0 0 1-2.54.09zM23.23 166.4a7.61 7.61 0 0 1-3.65-1.6c-3.44-2.87-1.86-8.09-1.81-12l.11-9 .23-17.94c.05-3.76 3.51-6.84 7.73-6.9l14.22-.17c4.85-.06 9.71-.08 14.55 0 1.88 0 3.82-.27 5.67.1 2.69.55 3 1.77 3.13 4.33.17 2.89.23 5.79.29 8.69q.21 10.6.07 21.21c0 2.57-.07 5.14-.24 7.7a6.47 6.47 0 0 1-.35 2.55c-1.14 1.86-4.55 1.93-6.38 2l-28.68 1.2a22.81 22.81 0 0 1-4.89-.17zm-3.69 10.87a7.85 7.85 0 0 1 .68-1.51c2.22-3.84 9.65-3.36 13.36-3.43l19.75-.42c2.41 0 6.59-.49 8 2.11 1.25 2.33.57 5.88.66 8.4.14 4.37.18 8.73.21 13.1s.19 9 .12 13.51c0 2.39.28 7.72-1.71 9.15a7.17 7.17 0 0 1-4 .95l-20.23.72c-2.91.1-5.72.05-8.59-.09-2.1-.09-5.18 1-7-.53-.93-.77-1.38-4.34-1.45-5.58-.19-3.32-.09-6.68-.13-10l-.27-20a19.42 19.42 0 0 1 .6-6.38zm4 165.27c-1.78-1.75-1.91-5.4-1.86-7.92q.33-18.42.68-36.84c.07-3.6-.4-6.44 3.63-7 3.61-.47 7.41-.17 11-.15a163.81 163.81 0 0 0 17.07-.58 10.72 10.72 0 0 1 6 .54l1.19.59c1.45.73 1.13 6.15 1.12 7.53 0 3.88-.08 7.76-.12 11.65q-.12 11.44-.25 22.89c0 2.38-.08 4.88-1.27 6.91a5.1 5.1 0 0 1-4.73 2.49c-2 0-4 .43-6 .65a111.17 111.17 0 0 1-14.14.41c-3.22-.05-6.4-.27-9.6-.19a3.54 3.54 0 0 1-2.74-.98zM25 401.65a6.14 6.14 0 0 1-3.17-3.5 19.66 19.66 0 0 1-.87-7.34q.17-15.53.32-31c0-2.41.08-5 1.29-7 2.56-4.37 7-2.66 11-2.7l8.72-.1 10.83-.12c4.17-.05 7.72.46 7.93 1.13l.38 1.23c.73 2.35.57 5.21.66 7.64.18 4.59.22 9.17.23 13.76 0 6.79-.06 13.6-.42 20.39a30.85 30.85 0 0 1-.51 5.76c-.94 3.69-8 2.39-10.74 2.45q-6.61.15-13.23.11c-3.71-.08-8.96.91-12.42-.71zm-4.19-170.92a4.06 4.06 0 0 1 1.57-2.84c1.55-1 3.5-1.09 5.35-1.12l28.56-.34a9.46 9.46 0 0 1 3.52.41c3.23 1.26 2.45 5.93 2.48 8.79v11c-.07 7.88-.22 15.76-.53 23.64-.1 2.7-.48 5.48-.43 8.18 0 2 .51 3.54-1.72 4.56a9.08 9.08 0 0 1-3.59.57l-27.92.66c-2.25.05-4.78 0-6.39-1.64s-1.69-4.34-1.63-6.72l.59-23.88c.1-4 .22-8.09.3-12.13.03-2.99-.69-6.14-.16-9.14zm32.27 179.71c1.67.09 3.25-.44 4.89-.33a5.61 5.61 0 0 1 4.25 2.18c1 1.41 1.05 3.27 1.08 5l.42 26.16c.07 4.29.13 8.58.21 12.87 0 2.67.19 6.48-2.64 7.77a9.14 9.14 0 0 1-3.68.57l-28 .41c-2.22 0-4.77-.09-6.13-1.89-1.5-2-.61-4.35-.6-6.57 0-1.51-.25-3.06-.31-4.57-.19-4.82-.19-9.64-.27-14.46-.48-30.43-2.31-28 21.11-27.55l6.06.13c1.2.04 2.41.22 3.61.28zm-2 243.41-22.31-.23a9.35 9.35 0 0 1-4.3-.72c-2.75-1.44-2-5.78-2-8.52q-.12-4.78-.13-9.56c0-7.87 0-15.74.27-23.6 0-1.15-.37-11.7.95-12.14 6.23-2.05 39.36-2 40.82.06 1.15 1.63.93 22.2-.47 44.39-.17 2.72.42 8.39-2.44 9.86a7.33 7.33 0 0 1-3.45.53zM69.75 67.72c-1.88-.13-3.51 1-4.86-1.22a9 9 0 0 1-.9-4.74q-.08-14.82-.17-29.66c0-2.22 0-4.59 1.21-6.45 2.14-3.34 9-2 12.27-2.11L93.67 23c1.86-.06 4 0 5.29 1.29s1.46 3.51 1.47 5.44q.09 16.25.19 32.47a9.16 9.16 0 0 1-.53 3.8c-1.18 2.61-4.21 1.62-6.48 1.71q-4.38.17-8.76.23c-5.03.06-10.09.15-15.1-.22zm-6.18 511.5c.27 4.75 2 10.33-3.88 11.26-4.37.69-8.91.28-13.33.41-5.76.16-11.53.3-17.29.36-1.84 0-3.91-.06-5.18-1.43s-1.26-3.21-1.27-5l-.28-36.3c0-1.95 0-4 1-5.66 2.11-3.54 7.12-2.14 10.47-2.22 8.18-.18 16.37-.58 24.51-.4a3.86 3.86 0 0 1 2 .43c1 .63 1.23 2 1.35 3.16.42 4 .52 7.94.7 11.91.34 7.16.87 17.71 1.2 23.48zm-40.72-77.11-.56-21.67C22.24 478.54 22 474 24 473c1.18-.64 3.78-.26 5.11-.33l5.43-.24q10.86-.42 21.72-.26c1.77 0 3.73.14 5 1.43s1.33 3.18 1.4 4.94c.55 15.45 1.23 30.75 1.23 46.23v4.4c0 2.43-3.11 4.44-7 4.5l-12.22.17c-23.46.29-20.9 4.01-21.82-31.73zM57.59 46.66c-.06 4.41-.22 8.8-.43 13.21-.08 2.14.46 4-1.81 5.27a9.57 9.57 0 0 1-4.92.77l-26.68-.6a3.89 3.89 0 0 1-2.77-.8 4.18 4.18 0 0 1-.85-2.75c-.38-5.75-.78-11.44-.75-17.21 0-2.81 0-5.61-.07-8.42 0-2.33-.53-4.76-.37-7.09A6.37 6.37 0 0 1 21 24.46c1.44-1.15 3.39-1.29 5.22-1.37Q35 22.73 43.71 23q4.45.14 8.91.43c3.17.21 4.47-.23 4.47 3.39.2 3.33.34 6.67.44 10s.1 6.57.06 9.84zm-23.94 27 22.46-.08c1.89 0 3.91 0 5.48 1.1 3.22 2.22 1.87 9 1.82 12.3l-.24 16.51a11.91 11.91 0 0 1-1 5.51c-2 3.61-8 2.65-11.48 2.65h-9.78c-4.93 0-9.85-.05-14.77-.22-2.69-.1-7.38.63-8.54-2.64a9.8 9.8 0 0 1-.38-3.15L17 84.61a23.37 23.37 0 0 1 .39-5.73c.78-3.28 2.57-5.14 5.83-5.15zm608.2 43.44a3.92 3.92 0 0 1-1.73 1.91 10.14 10.14 0 0 1-5.07.77c-10.2-.22-20.45-.38-30.58-.24-2.73 0-3.7-1.27-4.09-4-1.1-7.6-.15-15.83 0-23.47.4-20.23-1.81-18.27 20.35-18 23.17.32 21.35-1.1 21.11 16.43q-.11 8 .17 16c.1 2.87 1.17 7.7-.16 10.63zm-40.51 392.76.19-19.37c0-2.38.48-6.12 3-6.86 1.67-.51 4.1-.11 5.85-.16l5.87-.16 23.46-.63a8.93 8.93 0 0 1 3.18.3c3.08 1.06 3.15 6.17 3.33 8.94.32 5.16.18 10.35.24 15.51.05 4.4.11 8.79.1 13.19 0 4.16.75 10.41-1.55 14.15-1.35 2.19-3.31 1.75-5.58 1.78l-9.74.12-19.47.23c-2.13 0-4.38 0-6.24-1.06-3.46-2-2.63-7.74-2.65-11.26-.08-4.91-.04-9.81.01-14.72zm12.79-81.19h14.54c3.9 0 7.93-.38 11.81-.15 4.29.26 4.35 4.9 4.55 8.44.29 5.08.23 10.19.3 15.28l.22 15.29c0 1.62.41 5.44-.73 6.77-1.36 1.58-5.83 1.19-7.66 1.2l-30.13.19a8.56 8.56 0 0 1-4.51-.8c-2.52-1.49-1.52-5.89-1.46-8.49 0-4.07.18-8.14.28-12.21.13-5.36-.11-10.67 0-16.05 0-2.71-.92-5.33 1.17-7.57 1.67-1.8 4.38-1.92 6.79-1.91zm11.44-65-18.41.21a6.12 6.12 0 0 1-4-.88c-1.65-1.3-1.62-3.85-1.26-6 .59-3.47-.12-6.52-.23-10-.12-3.88-.19-7.77-.24-11.66-.11-7.92-.1-15.84-.16-23.76v-.4c0-2.63.05-5.52 1.72-7.5 2-2.35 5.44-2.49 8.47-2.45 4.84-.37 10 .07 14.87 0 4.54-.05 9.12-.29 13.66-.15 3.24.11 5 3.29 5.08 6.5l.18 12.75c.14 9.55.09 19.12-.26 28.66-.12 3.24-.28 6.46-.56 9.69-.1 1.19.06 3-.84 3.9-1.21 1.25-4.16.9-5.7.92zm15.73 289.77h-10.83l-19.38-.09c-1.85 0-4.9.06-6.27-1.51-1.11-1.27-1.34-4.11-1.35-5.74l-.12-17.22-.12-17.21c0-2.24.68-6.09 2.92-7.16 3-1.39 8-.75 11.2-.9q12.17-.56 24.35-.15a10.32 10.32 0 0 1 3.27.48c3.4 1.3 2.35 6.8 2.42 9.83q.17 7.61.22 15.22v1.57l.09 11.25c0 2.79 1.11 8.26-.83 10.48-1.25 1.35-3.65 1.23-5.57 1.15zm-37.62-281.8a5.08 5.08 0 0 1 .67-.5c2-1.24 4.44-1.23 6.76-1.18l30.13.61a7.25 7.25 0 0 1 3.83.79c2.55 1.64 1.69 7.27 1.71 9.81.06 7.16-.07 14.32-.32 21.47-.12 3.53-.27 7.06-.49 10.59-.15 2.31.64 7-1.74 8.41a6.78 6.78 0 0 1-3.31.62l-29.82.42c-2.24 0-4.58 0-6.57-1-4.67-2.48-2.92-11.47-2.93-15.89 0-6.76 0-13.53.34-20.28.11-2.44.33-4.89.35-7.32s-.57-4.85 1.39-6.55zm40.48 173.71c2 1.27 1.49 3.36 1.54 5.62.13 6.25.19 12.51.23 18.76l.14 19.32c0 2.21-.1 5.89-2.31 7-2.61 1.27-7.15.39-10 .41l-23 .13c-2.2 0-4.52 0-6.43-1.13-3.3-1.95-2.59-7-2.69-10.34-.14-4.62-.22-9.24-.31-13.86l-.33-18.4c0-2.11.2-4.86 1.62-6.59 1.83-2.23 6-1.54 8.58-1.77 8.43-.77 16.9-.34 25.34-.49 2.48 0 5.26 0 7.49 1.25zM604 661a10.06 10.06 0 0 1 4.57-.66l32.48.33a10.59 10.59 0 0 1 5.35 1c3.28 1.95 2.29 8 2.3 11.38q0 6.31-.05 12.64c-.07 6 0 12-.32 18-.11 2.1.33 4.21-1.78 5s-5.19.56-7.51.55l-32.2-.08c-1.5 0-4.42 0-5.25-1.59-.65-1.29 0-3.9-.07-5.32-.12-3.78-.11-7.56-.07-11.34q.07-6.69.32-13.39c.13-3.6.15-7.21.26-10.81.07-2.11-.43-4.35 1.66-5.57a3.07 3.07 0 0 1 .31-.14zm3.66-366.61a8.45 8.45 0 0 1-2.75-.62c-3.8-1.63-3.18-6.54-3.26-10.05-.1-5.15-.08-10.3-.08-15.46v-17.5c.08-3.29-.58-8.23 2.57-10.22a10.23 10.23 0 0 1 5.33-1.1l23.53-.54a27.33 27.33 0 0 1 8.07.6c2.52.71 3.38 3.22 3.46 5.8l.37 11.7c.26 9 .55 18 .44 27a65.56 65.56 0 0 1-.26 6.58 5.83 5.83 0 0 1-.37 2.17c-1.05 1.65-4.37 1.47-6.05 1.48l-28.58.24c-.79.02-1.6.03-2.4-.04zm20.81-62.17q-9.82.45-19.66.31c-1.89 0-3.93-.12-5.41-1.34-3-2.46-2-8.24-2.15-11.7-.18-5.14-.47-10.27-.62-15.41-.22-7.06-.28-14.12-.41-21.19a13.39 13.39 0 0 1 .25-3.52c1-4.23 5.82-2.87 9.06-2.89l9-.05 18.34-.1a9 9 0 0 1 3.59.46c2.44 1 2.81 4.52 3 6.85.29 3.59.34 7.08.28 10.71q-.21 13.28-.43 26.55a25.89 25.89 0 0 1-.55 5.9c-.38 1.53-1.34 4.09-2.9 4.76s-4.84.31-6.68.42zm2.9-61.76-10.78.18c-4.62.08-9.12-.27-13.69-.3-3.33 0-6.12-3.08-6.22-6.84l-.26-9.08c-.15-5.31-.36-10.62-.33-15.92a34.05 34.05 0 0 1 .73-8.9 5.35 5.35 0 0 1 1-2.38c1.51-1.44 6-.67 8.12-.71l19.54-.38 6.65-.13c1.22 0 3.94-.28 4.82.83 1.74 2.17 1.32 7.39 1.48 10 .25 3.82.43 7.65.59 11.47.18 4.11.39 8.23.49 12.35.08 2.94 1.09 7.77-2.3 9.2a8.57 8.57 0 0 1-3.26.47zM630.25 68a153.27 153.27 0 0 1-24.62 0c-1.55-.13-3.31 0-4.31-1.44-1.45-2.07-1-5.69-.8-8 .4-4.68-.17-9.66-.26-14.35s-.17-9.34-.26-14a10.09 10.09 0 0 1 .65-4.68c1.84-3.76 7.89-2.46 11.1-2.36 31.28 1 29-.68 29.24 21.65.2 22.96.46 22.4-10.74 23.18zm31.08 653.64c0 4.48-.53 7.65-4.72 2.83l-1.77-2c-1-1.12-1.76-5.08-1.74-8.84 0 0-5-661.83-6-675-.84-11.08 7.58-27.88 11-24.34 5.64 5.81 3.23 705.82 3.23 707.39zM650.75 6.81a1.89 1.89 0 0 1 .22.62c.26 1.52-2.48 4.32-3.32 5.51-4.94 7-5.47 7.2-14.32 5.77-16.28-2.63-602.74-1.88-607.19-1.87h-4.05a13.11 13.11 0 0 1-7-2.3l-2.91-2.3L9.29 10C7.67 8.68 6.94 7.4 7.65 7.09l1.28-.55c1.05-.45 2.78-.19 3.88-.23 3.38-.1 6.76-.14 10.14-.19Q30.85 6 38.77 6q10.45-.09 20.92-.15l25.44-.12 29.37-.1 32.72-.08 35.49-.06h347.82l31.12.06 27.49.07 23.26.07 18.46.07 13.14.13h3.67c.95.04 2.48-.07 3.08.92z" fill="#f87318" data-color="1"/>
        <path d="M579.79 684.65c0-5.5-4.52-7.59-9.48-7-6.57.74-6.34 9.62-2 13.09 4.77 3.71 11.51.14 11.48-6.09z" fill="#f87318" data-color="1"/>
        <path d="M627.78 693.45c-2.39 4.19-3.66 4.29-5.76.49-1.79-3.25-3.35-3.75-4.24-1.36-.57 1.55 1.47 6.09 4.22 9.4 2.19 2.63 11.58-6 11.58-10.62 0-2.72-3.85-1.36-5.8 2.09z" fill="#f87318" data-color="1"/>
        <path d="M624.53 683.43c2.47 2.82 10.15-4 9.53-8.52-.42-3-3.38-3-4.68-.1-1.56 3.53-2.17 3.22-5.54-2.86-2.79-5-4.86-6.57-6.1-4.5-.64 1.07 4.67 13.55 6.79 15.98z" fill="#f87318" data-color="1"/>
        <path d="M524.55 687.13q-1.9 0-3.84 3.91c-1.06 2.15-2.19 3.91-2.52 3.91-1 0-3.1-3.35-3.13-5 0-2.68-2.71-4.37-4.3-2.73-1.15 1.19-.92 2.24 1.6 7.49 1.62 3.36 3.55 6.11 4.29 6.11 2.46 0 5-2 6.57-5.16a15 15 0 0 1 3-4.23 2.4 2.4 0 0 0-1.67-4.3z" fill="#f87318" data-color="1"/>
        <path d="M523.1 672.17c-1.9 5.63-3.72 6.36-5.77 2.32-2.63-5.21-7-8.69-8.73-6.92-1.35 1.4-1 2.16 4.32 8.5 1.73 2.08 4.74 7 8 5.69 1.76-.7 3.29-3.41 4.36-4.93s6.63-9.23 2.58-10.2c-2.74-.63-4.08 3.55-4.76 5.54z" fill="#f87318" data-color="1"/>
        <path d="M203.37 692.43c-4.36 6.78-4.33 6.77-8.68 2.13-3.79-4-6.44-4.93-7.25-2.42-.21.66 1.84 3.63 4.56 6.6 6.38 7 9.39 6.06 14.63-4.41 1.99-3.96-.87-5.63-3.26-1.9z" fill="#f87318" data-color="1"/>
        <path d="M199.7 677.62c-1.21 1.42-2.66 2-3.23 1.21l-1-1.36c-5.6-7.34-7-8.79-8.08-8.14-1.93 1.24-1.21 3.35 3.37 9.92 6.11 8.76 9.21 7.92 15.92-4.32 3.93-7.17 1.44-7.11-4.74.12z" fill="#f87318" data-color="1"/>
        <path d="M251.13 677.42c-9.07-3.11-12.38 10.47-3.46 14.18 3.5 1.46 4.58 1.11 7.88-2.5 4.91-5.37 3.55-8.95-4.42-11.68z" fill="#f87318" data-color="1"/>
        <path d="M145.12 676.18c-4.65.9-7.25 5.63-6.3 10.29.43 2.07 1.69 4.79 3.74 5.6 2.28.89 7 .58 8.7-1.24a10.81 10.81 0 0 0 3-7.14 7.42 7.42 0 0 0-9.14-7.51z" fill="#f87318" data-color="1"/>
        <path d="M428.07 687.13a2.09 2.09 0 0 0-1.23-1.1c-2.46-1.06-3.91 1.6-5.1 3.44-3.3 5.16-5.15 5-10.91-1.06-2.61-2.73-5.19-4.69-5.73-4.34-2.32 1.48-.72 4.88 4.86 10.39 7.32 7.21 8.59 7 15.68-2.35.99-1.3 3.03-3.47 2.43-4.98z" fill="#f87318" data-color="1"/>
        <path d="M424.91 664.79c.17-3.78-6.21.43-8.87 5.87-2.06 4.18-3.57 4-6.65-.8-1.61-2.51-3.14-3.85-4.14-3.65-3 .59-2.24 3.72 2.34 9.56 6.19 7.9 16.78 1.23 17.32-10.98z" fill="#f87318" data-color="1"/>
        <path d="M461.73 681.5c-2.49 4.22-2.39 5.25.88 8.63 4.42 4.56 11.44 2.17 11.44-3.88-.05-7.38-8.77-10.76-12.32-4.75z" fill="#f87318" data-color="1"/>
        <path d="M311.93 684.59c-1.44 0-5.61 4.38-7.2 7.57s-3.2 2.76-6.64-1.29c-2.8-3.29-5.67-4.11-6.4-1.83-.46 1.4 6.16 9.23 8.61 10.18s4.86-.27 6.87-3.67c.86-1.46 2.57-4.22 3.79-6.13 2.54-3.98 2.71-4.83.97-4.83z" fill="#f87318" data-color="1"/>
        <path d="M297.71 677.5c2.66 3.68 2.29 3.57 6.38 1.81 3.91-1.69 10.39-14.31 7.34-14.31-1.14 0-3.45 2.9-5.27 6.6-2.11 4.3-4.86 4.2-6.91-.24-.92-2-2.28-3.42-3.24-3.42-3.6.06-3.08 2.94 1.7 9.56z" fill="#f87318" data-color="1"/>
        <path d="M93.31 690.42a4.1 4.1 0 0 1-3.73.4l-1.92-.9c-5.89-2.73-7.56 1.15-2 4.69 5.24 3.35 13.62.16 14.25-5.41.37-3.3-.23-3.31-4.76-.07z" fill="#f87318" data-color="1"/>
        <path d="M88.13 678.83c5 3.14 12.08.33 15.29-6.08 1.53-3 .41-6.75-1.27-4.27-4.31 6.32-9.71 7.54-14.69 3.3-3.25-2.76-6.35-3.27-6.35-1 0 1.52 4.02 6.16 7.02 8.05z" fill="#f87318" data-color="1"/>
        <path d="M359.56 677.12c-6.63-1.28-10.35 8.92-5.09 14 3.51 3.39 4.29 3.5 9.42 1.38 7.62-3.16 4.67-13.65-4.33-15.38z" fill="#f87318" data-color="1"/>
        <path d="M44.37 676.64C36.4 675 33.59 687 40.79 691.9c3.69 2.51 4.79 2.43 7.71-.59 4.5-4.64 2.03-13.4-4.13-14.67z" fill="#f87318" data-color="1"/>
        <path d="M47.52 640.19a2.4 2.4 0 0 1-3.43-.47l-1.71-2c-6.08-7.25-8.83-4-3.33 3.89 4.46 6.41 16.49 3.85 16.49-3.52 0-2.81-2.84-2.55-6.29.58z" fill="#f87318" data-color="1"/>
        <path d="M39.71 625.68c2.3 4.05 5.52 4.24 8 .49 4.54-6.87 8.22-15.86 7-17.1-1.48-1.5-3.87 1.21-7.38 8.36-2.8 5.71-3.86 5.54-7-1.09s-4.3-7.81-5.8-6.26c-1.2 1.23 1.33 8.84 5.18 15.6z" fill="#f87318" data-color="1"/>
        <path d="M619 622.93c-1.84 1.9-.25 10.27 2.19 11.59 5.45 2.94 12.84-1.24 11.7-6.61-1.19-5.74-10.04-8.91-13.89-4.98z" fill="#f87318" data-color="1"/>
        <path d="M625.32 579.13c-3.63 5.21-3.75 5.24-5.91 1.47-3.4-5.94-5.51-2.39-2.56 4.3 1.09 2.47 2.21 4.5 2.48 4.5 3.33 0 13.31-10.7 12.36-13.25s-3.26-1.49-6.37 2.98z" fill="#f87318" data-color="1"/>
        <path d="M620.49 568.13c3.1 3.69 12.51-4.83 12.51-11.33 0-2.95-3.27-1.71-5.21 2-2.66 5.05-3.56 5-7.46-.63-3.62-5.2-6.28-6.39-6.28-2.81 0 2.1 3.77 9.64 6.44 12.77z" fill="#f87318" data-color="1"/>
        <path d="M42.16 558c-5.43 0-8 7.65-4.5 13.44 2.87 4.74 12.6.82 12.64-5.09.02-2.65-5.57-8.35-8.14-8.35z" fill="#f87318" data-color="1"/>
        <path d="M619.5 501.46c-5.66 4.26-6.34 10.21-1.74 15.27 6.66 7.34 17.35-3.59 12.56-12.84-1.63-3.15-7.97-4.58-10.82-2.43z" fill="#f87318" data-color="1"/>
        <path d="M46.07 511.54c-2.41 4.86-3.27 4.89-5.6.18-2.67-5.4-4.51-6.78-6.43-4.8-1.49 1.54-.7 3.73 0 5.47 1.12 2.83 3.52 9.65 6.79 10.48a4.59 4.59 0 0 0 4-1.08 11.24 11.24 0 0 0 2.6-3.41 36.19 36.19 0 0 0 2.25-4.9c.35-.94 1.85-4 1.47-5-1.29-3.03-4.58 2.05-5.08 3.06z" fill="#f87318" data-color="1"/>
        <path d="M39.77 497.35a3.12 3.12 0 0 0 1 .59c2.83 1 7.4-7.25 7-9.86-.36-2.13-3.63-1.8-4.86.49l-.64 1.2c-.37.66-1.5.68-2.35-.25-.44-.49-.94-1.09-1.47-1.74-3.14-3.93-4.39-4.43-5.26-2.1-.58 1.58 1.4 3.89 2.17 5 1.31 1.95 2.21 4.14 3.77 5.94a6.71 6.71 0 0 0 .64.73z" fill="#f87318" data-color="1"/>
        <path d="m626.19 460.31-1.56 1.91a2.79 2.79 0 0 1-3.23 1l-1.68-.92c-6.68-3.67-7.89-.05-1.58 4.75 4.77 3.63 5.41 3.44 10.81-3.25 3.82-4.74 4.13-5.8 1.89-6.69-1.04-.42-2.53.6-4.65 3.2z" fill="#f87318" data-color="1"/>
        <path d="M617.72 448.36c5 7.43 7.11 8.12 9.88 3.3a41.93 41.93 0 0 1 2.7-4.22c2-2.31 2.85-5 2.11-6.24-1.24-2.06-3.56-.5-5.69 3.81-2.41 4.88-2 4.94-6.18-.92-6.6-9.28-9.27-5.25-2.82 4.27z" fill="#f87318" data-color="1"/>
        <path d="M40.74 443.22c5.64 2.81 8.8.47 8-5.9-.71-5.49-3.41-7.85-7.34-6.44-5.4 1.92-5.76 9.8-.66 12.34z" fill="#f87318" data-color="1"/>
        <path d="M630.68 391.08c-2.27-5.13-11.39-4.25-13.78 1.32-2.15 5-2 6.26 1.18 9.77 6.75 7.46 16.86-1.44 12.6-11.09z" fill="#f87318" data-color="1"/>
        <path d="M44.24 383.38c-1.25 4.06-3.16 4.39-4.62.78-1.59-3.93-3.21-5.25-4.63-3.78-1.25 1.29 1.51 9.31 4.14 12a6.31 6.31 0 0 0 2.55 1.83c1.14 0 6.79-9.27 6.79-11.14 0-2.21-3.53-1.96-4.23.31z" fill="#f87318" data-color="1"/>
        <path d="M46.64 367a29.18 29.18 0 0 0 1.5-2.86c.68-1.66-1.8-4.29-2.72-3.14a19 19 0 0 0-1.42 2.28c-2.48 4.33-3 4.41-4.4.64-1.12-3.05-3.77-3.94-4.65-1.56-.48 1.28 2.44 8.33 4.61 11.11 1.27 1.64 3.8-.66 7.08-6.47z" fill="#f87318" data-color="1"/>
        <path d="M625.36 343.63c-2 5.68-2 5.68-7.19.25-4.2-4.42-6-5.27-7.13-3.38-.78 1.3 1.09 4.22 6.11 9.55 4.45 4.72 7.07 5.06 9 1.16 4.23-8.59 5.45-11.84 5-13.17-1.29-3.35-3.28-1.41-5.79 5.59z" fill="#f87318" data-color="1"/>
        <path d="M619.17 317.31c-2.59-5.27-4.64-6.87-6.43-5-1.17 1.22-.36 3 5.75 12.64l1.65 2.59c.9 1.43 2.1 2.14 2.67 1.59l1-1c4.1-4 8.66-14.54 7-16.24-1.81-1.87-3.39-.24-5.55 5.75-1.94 5.48-3.26 5.42-6.09-.33z" fill="#f87318" data-color="1"/>
        <path d="M37.75 310a8.3 8.3 0 0 0-.55.71c-4.36 6.33 5.18 17.58 10.52 9.83 3.83-5.54-4.87-16.25-9.97-10.54z" fill="#f87318" data-color="1"/>
        <path d="M623.59 259.55c-8.64.85-8.75 8.38-.18 13.27 2.94 1.67 5.91 1.34 7.92-.89 5.41-5.99.88-13.24-7.74-12.38z" fill="#f87318" data-color="1"/>
        <path d="M43 265c-1.61 2.66-2.53 2.47-5.46-1.14-4.68-5.79-6.3-1.62-2.14 5.5 3.92 6.7 12.56 3.3 12.56-4.94.04-2.05-3.56-1.63-4.96.58z" fill="#f87318" data-color="1"/>
        <path d="M46.51 246.12c.82-1.68 1.47-3.06 1.94-4.2 1-2.36-1.22-5.3-2.5-3.42a23.28 23.28 0 0 0-1.89 3.67c-2.23 5.2-2.1 5.19-5.09.32-2.63-4.32-4.75-5.68-6.3-4.08-1 1 3.28 10.11 6.65 14.17 2.18 2.62 3.14 1.75 7.19-6.46z" fill="#f87318" data-color="1"/>
        <path d="M623.9 216.1c-1 1.5-2.58 1.93-3.53 1l-1.73-1.74c-7-7.09-9.62-3.09-3.08 4.79 5.55 6.69 5.76 6.69 10.93-.32 5.75-7.82 6.48-9.33 5.13-10.72-1.69-1.75-2-1.49-5.91 4.3z" fill="#f87318" data-color="1"/>
        <path d="M616.86 195.51c2.1 4.62 5.45 9.36 9.42 3.52 1.67-2.44 5.61-8.07 4.4-11.33-.92-2.47-2.79-1.19-4.78 3.28-2.17 4.89-3 5.06-5.09 1.1-4.18-7.75-4.91-8.68-6.32-8.12-2.14.85-1.84 2.33 2.37 11.55z" fill="#f87318" data-color="1"/>
        <path d="M37.22 203.1c7.93 2.52 12-1.37 9.56-9.08-1.8-5.58-5-7.21-9.87-5.09-7.17 3.07-6.98 11.85.31 14.17z" fill="#f87318" data-color="1"/>
        <path d="M616.91 146c-3.87 4.17-3.33 7.67 1.57 10.3 4.72 2.52 11-2.16 11-8.19.05-5.45-8.18-6.82-12.57-2.11z" fill="#f87318" data-color="1"/>
        <path d="M41.75 153.11a2 2 0 0 1-3.28.16l-1.58-1.91c-2.9-3.52-6.32-4.48-6.32-1.77 0 1.66 6 9.22 8 10 2.86 1.1 3.95.4 7.17-4.62 4.85-7.57 3.15-10.53-2.25-3.9z" fill="#f87318" data-color="1"/>
        <path d="M36.07 140.28c3.21 3.55 7.76 1.9 7.76-2.82a14.15 14.15 0 0 1 2-5c2.24-3.75 1.42-5.81-1.9-4.72-1.23.4-2.39 2.08-3.09 4.49-1.34 4.63-2 4.75-4.61.92-2.17-3.14-4.73-3.9-4.73-1.4.02 2.19 1.73 5.39 4.57 8.53z" fill="#f87318" data-color="1"/>
        <path d="M626.57 99.18c-1-.19-2.45 1.31-4.06 4.15-2.91 5.13-3.76 5.37-6.86 1.93-1.24-1.39-2.78-2.34-3.42-2.12-2.32.8-1.67 3.61 1.73 7.5 5 5.66 4.68 5.77 12.57-4.8 2.41-3.23 2.47-6.18.04-6.66z" fill="#f87318" data-color="1"/>
        <path d="M623.38 84.32c-2.29 5.22-3 5.52-4.67 2.07-2-4-4.14-6-5.78-5.35-2.19.87-1.65 3.38 2 9.46 2.22 3.66 3.95 5.54 4.94 5.34 2.16-.43 8.82-10.6 8.49-13-.47-3.54-3.12-2.78-4.98 1.48z" fill="#f87318" data-color="1"/>
        <path d="M37.57 98.29c2.27 3 4.84 2.63 8.12-1.1 3.67-4.17 2.73-9.29-2.16-11.68-7.44-3.65-11.63 5.34-5.96 12.78z" fill="#f87318" data-color="1"/>
        <path d="M81.83 37.4c-8.13 0-9.08 11.4-1.08 13 3.85.77 4.26.7 6.19-1 4.8-4.3 1.52-12-5.11-12z" fill="#f87318" data-color="1"/>
        <path d="M625 34.64c-3.12 1.65-3.39 1.65-6.66-.07-6.14-3.23-10.58-.13-10.58 7.41 0 3 1.16 4.58 3.21 6.65s4.45 4.9 7 6.48 5-.31 6.71-2.4c3.26-4 9.05-8.26 8.7-14.07-.33-4.81-4.67-5.96-8.38-4zm-12 10c-1.79-2-1.92-4.15-.36-5.76 1.77-1.83 3.54-1.38 4.67 1.17 1.57 3.41-1.97 7.18-4.31 4.55zm5.16 4.84c-1.61-1-1.32-1.49 1.63-2.43 1.73-.55 2.13-.3 2.13 1.35.08 2.11-1.43 2.53-3.72 1.04zm9.84-7.23c-2.6 3.6-4.15 4-4.15.94 0-2.86 3.63-6.07 5.12-4.53.62.63.29 1.86-.97 3.59z" fill="#f87318" data-color="1"/>
        <path d="M450.23 50.8c-.94.85-2 1.07-2.42.49l-.71-1c-.78-1.16-2-2.1-2.79-2.1-2.6 0-1.31 5.85 2.21 10 2.18 2.57 3.62 2.09 6-2a24.2 24.2 0 0 1 4-5.25c1.16-1 1.66-2.2 1.3-3.18-.85-2.29-2-2-5.88 1.49z" fill="#f87318" data-color="1"/>
        <path d="M444 38.32c4.65 5.7 4.85 5.76 7.41 2.41s3.31-6.11 1.95-7.8-3.74-.24-3.74 2.13c0 1.91-.44 1.72-3.64-1.59-5.98-6.14-7.67-2.05-1.98 4.85z" fill="#f87318" data-color="1"/>
        <path d="M580 38.23c-7.37-3.88-12.72 4.75-6.36 10.27 3.6 3.13 6.25 3.26 9.15.45 3.86-3.71 2.79-7.8-2.79-10.72z" fill="#f87318" data-color="1"/>
        <path d="M40.62 51.09c-2.1 2.53-2.74 2.45-5.34-.67-1.43-1.71-2.72-2.4-3.75-2-2.46 1-1.86 3.38 1.9 7.57 2.21 2.46 4.26 4.53 7.12 2 1.34-1.19 4.57-3.89 4.57-6 0-2.55-2.66-3.12-4.5-.9z" fill="#f87318" data-color="1"/>
        <path d="M41.43 35.64a1.68 1.68 0 0 1-2.73.44l-1.52-1.52c-3.34-3.34-5.09-3.81-5.92-1.59-.47 1.26.54 3 5.39 9.06 2.08 2.62 4.61 1.22 8.51-4.7 3.12-4.76 3.67-6.2 2.77-7.32-1.45-1.8-2.34-1.18-5.3 3.66z" fill="#f87318" data-color="1"/>
        <path d="m131.71 51.15-1.64 1.64a2 2 0 0 1-2.85.28L126 51.72c-1.34-1.49-2.93-2.54-3.53-2.33-2.13.73-1.72 3.86.88 6.67 3.79 4.08 14.6-.09 14.6-5.63.05-2.88-2.95-2.54-6.24.72z" fill="#f87318" data-color="1"/>
        <path d="m130.63 35.07-1.38 1.78c-.77 1-1.84 1-2.4 0l-1-1.78c-2-3.5-4.23-4.54-5.44-2.52-.61 1 1.43 6.25 4.07 10.46 2.29 3.63 4.37 2.75 9-3.85 4.9-6.89 2.25-10.65-2.85-4.09z" fill="#f87318" data-color="1"/>
        <path d="M349.73 52.74c-2.59 4.32-3 4.28-6.75-.49-5.94-7.63-7.87-3-2.12 5.08 3 4.22 3.76 4.76 5.92 4.21 3.47-.88 10.29-9.25 9.13-11.2s-4.18-.94-6.18 2.4z" fill="#f87318" data-color="1"/>
        <path d="M343.41 44.19a7.8 7.8 0 0 0 2.45 2.17c2.54-.15 9.23-11.54 8.28-14.09-1.05-2.82-3.48-1.56-5.56 2.88-2.58 5.48-2.73 5.47-6.43-.49-3-4.84-5.28-6.14-6.24-3.56-.49 1.33 3.81 8.83 7.5 13.09z" fill="#f87318" data-color="1"/>
        <path d="M395.62 52.16a6.84 6.84 0 0 0 4.63 2.14c9.1 0 9.88-13.88.91-16.14-6.25-1.57-10.32 8.71-5.54 14z" fill="#f87318" data-color="1"/>
        <path d="M503.56 46c0-3.2-4.15-6.85-7.77-6.83-6.53 0-9.39 5.88-5.42 11.09 3.74 4.88 13.19 1.82 13.19-4.26z" fill="#f87318" data-color="1"/>
        <path d="M541.57 51.44c-2.29 2.15-2.85 2-3.94-.94-1.36-3.69-3.3-2.36-3.22 2.2a23 23 0 0 0 .68 5.52c1.06 2.86 11.09-2.46 11.09-5.88 0-2.1-2.74-2.64-4.61-.9z" fill="#f87318" data-color="1"/>
        <path d="M537.19 45a1.94 1.94 0 0 0 1.71 1.22c2.83 0 9.29-11 7.53-12.85-1.52-1.57-3.83-.35-4.2 2.21-.4 2.82-2.68 3.65-2.68 1 0-2.21-3.2-4.46-5.21-3.67-1 .41-.92 1.5.59 5.7C536 41.4 537 44.29 537.19 45z" fill="#f87318" data-color="1"/>
        <path d="M183.63 53.07c3.66.73 4 .69 5.69-.55 5.79-4.38 1-17.28-6-16.22-7.95 1.21-7.69 15.16.31 16.77z" fill="#f87318" data-color="1"/>
        <path d="M241.55 53.9c-.65.81-1.53 1-2 .35l-.8-1.12c-4.72-6.55-4.76-6.59-5.92-5.41-1.67 1.68-.39 5.58 3 9s3.9 3.59 7.64 1.31c3.1-1.89 4.5-5.65 2.76-7.41-.88-.89-1.68-.48-3.49 1.78z" fill="#f87318" data-color="1"/>
        <path d="M234.44 40.27a19.32 19.32 0 0 0 2.85 2.8c4.47 3.63 12-2.74 10.07-8.48-.76-2.25-3.18-1.26-4.18 1.71-1.32 3.88-2.65 3.65-5.77-1-1.43-2.12-3.25-3.87-4.06-3.87-2.81 0-1.87 3.42-1.2 5.09a14.41 14.41 0 0 0 2.29 3.75z" fill="#f87318" data-color="1"/>
        <path d="M294.68 52.84c2.3 1.27 6.42-.69 8.57-4.07 3-4.79-3.26-12.15-9.27-10.83-8.66 1.9-8.29 9.98.7 14.9z" fill="#f87318" data-color="1"/>
        <path d="M216.74 375.77c-.19 0 0 .08 0 0z" fill="#f87318" data-color="1"/>
        <path d="M548.51 345.76a17.62 17.62 0 0 0-4.35-2.15 53.26 53.26 0 0 0 3.25-10.46c2.28-11.67 1.37-26.3-8.64-33.9a17.61 17.61 0 0 0-7.86-3.36 24.69 24.69 0 0 0 .42-15.25c-2.78-9.84-10.38-16.12-19.23-19.78a68 68 0 0 0-13.9-3.81c-2.39-.44-4.86-.67-7.22-1.29a4 4 0 0 1-3.18-2.68 27.16 27.16 0 0 1-.88-6.15 24.72 24.72 0 0 0-1.75-7.71 18.77 18.77 0 0 0-10.48-9.83 15.83 15.83 0 0 0-15.29 2.23c0-.31 0-.6-.07-.91a14.16 14.16 0 0 0-3.76-7.86c3.93-6.12 7.36-12.7 7.78-20.21s-3.66-15.46-10.25-18.85a14.73 14.73 0 0 0-2.05-.8 25.5 25.5 0 0 0 3.11-18 19.89 19.89 0 0 0-18.54-15.66 17 17 0 0 0-4.92.54 23.16 23.16 0 0 0-8.28-18.58c-7.43-6-17.15-6.08-26-4.32-.32.06-.62.17-.94.24a16.88 16.88 0 0 0-3.13-12.7c-4.24-5.35-11.57-7.05-17.91-6.92-7 .15-14.07 2-20.66 4.35a68.64 68.64 0 0 0-13.93 6.75 70 70 0 0 0-46.42 6 66.12 66.12 0 0 0-10.28 6.37q-2.44 1.85-4.74 3.89a20.67 20.67 0 0 0-5.55-.17 78 78 0 0 0-26.94 6.74 119.74 119.74 0 0 0-12.92 6.62c-3.81 2.25-7.94 4.66-10.23 8.73a12 12 0 0 0-1 2.61c-1.11.24-2.25.4-3.33.74a38.39 38.39 0 0 0-19.89 14.61c-2.69 3.83-4.8 8.54-4.76 13.38a14.68 14.68 0 0 0 2.06 7.29 19.19 19.19 0 0 0-3.11 2.3 23.34 23.34 0 0 0-7.13 13.58 21.76 21.76 0 0 0 .77 9.62 3.45 3.45 0 0 0-1.06.07 4.13 4.13 0 0 0-2.7 5c.19.83.37 1.65.55 2.48a3.24 3.24 0 0 0-3.26 1.05l-9.69 12.82a37.45 37.45 0 0 0-19.84 11.82 38.84 38.84 0 0 0-6.76 10.71c-1.59 3.82-2.87 8.21-1.69 12.36 0 .1.08.19.11.29a54.09 54.09 0 0 0-4.12 5.51 54.67 54.67 0 0 0-8.3 24 50.28 50.28 0 0 0 .4 13.14 22.39 22.39 0 0 0 .91 3.65 33.54 33.54 0 0 0-5.12 8.26 97.35 97.35 0 0 0-5.09 15.84 56.74 56.74 0 0 0-1.9 16.76c.51 8.4 3.77 16.88 10 22.23a69.88 69.88 0 0 0-11 30.74c-1.25 11.51 0 24.5 7.82 33.38a17.39 17.39 0 0 0 7.52 5.11 57.6 57.6 0 0 0-5.61 43.95c1.52 5.48 3.86 12.15 8.26 15.83a11.67 11.67 0 0 0 1.55 1 55.11 55.11 0 0 0-4.23 22.63c.29 9.86 3.3 25.53 14.47 27.78a12.69 12.69 0 0 0 3.19.2 21.15 21.15 0 0 0 .31 5.1c1.16 5.77 5.94 10.09 11.73 9.44a12.09 12.09 0 0 0 5.21-1.9v.32q1.67 11.49 3.31 23a3.86 3.86 0 0 0 4.75 2.82c8.12-2.9 16.25.92 23 5.55 7.18 4.89 13.34 11.25 20.77 15.75 7.74 4.69 16.23 6.69 25 4.5a72.79 72.79 0 0 0 13.52-5.4c4.11-2 8.22-3.94 12.2-6.18A64 64 0 0 0 291.14 603c5.47-7.39 9.38-15.78 12.77-24.39a171.81 171.81 0 0 0 8.52-28.87c1-4.93 1.76-9.9 2.35-14.9a53.8 53.8 0 0 0 .46-12.74c-.55-4.73-2.17-9.27-5.73-12.44-1.31-1.17-3.51-2.29-4.1-4.09-.67-2 .17-4.72.51-6.72q3-17.69 5.93-35.37a4.17 4.17 0 0 0-2.69-5 12.25 12.25 0 0 1-5.13-3.22c.74.33 1.45.63 2.09.9a43.83 43.83 0 0 0 13.41 3.21 39.46 39.46 0 0 0 6.53 1.81 31.13 31.13 0 0 0 16.19-1c.73-.26 1.42-.61 2.12-.93A27.07 27.07 0 0 0 360.23 449a20.46 20.46 0 0 0 2.4-4.44c-.06.72-.17 1.44-.22 2.16a60.26 60.26 0 0 0-.15 9.78 22 22 0 0 0-2.76 4.64c-5.38 12.4-10.16 27.26-5.63 40.74 2 5.94 5.5 11.28 10.63 14.7a17.73 17.73 0 0 0 6.29 2.56 48.46 48.46 0 0 0 .43 20.52 45.21 45.21 0 0 0 7.63 16.34c3.75 5 9.06 10.07 15.21 11.37a13.17 13.17 0 0 0 7.83-.67c1.1 5.93 3.6 11.51 8 15.56a18.39 18.39 0 0 0 13.28 5.26 20.65 20.65 0 0 0 11.69-4.39 20.47 20.47 0 0 0 29.21 11.05c4.94-2.49 7.71-7 10.81-11.49a18.63 18.63 0 0 1 1.77-2.22c.09-.09 1.15-1.07.77-.77a7.66 7.66 0 0 1 .66-.45l.23-.16h.08c1.48-.55 2.41-.07 3.77 1.3 1.75 1.75 3.14 3.87 4.89 5.62a15.42 15.42 0 0 0 7.16 4.24 19.38 19.38 0 0 0 15.61-3.36c5.16-3.69 8.34-9.29 10.4-15.34 2.44-7.15 3.45-14.86 4.86-22.28l3.75-19.86a13.59 13.59 0 0 0 8.71-.87c5.22-2.32 8.26-7.45 9.85-12.95a80 80 0 0 0 2.52-16.59 58.41 58.41 0 0 0-.92-16 32.33 32.33 0 0 0-4.43-10.82h.1c5.83-.52 9.72-4.81 11.41-10.48 1.78-6 1.43-12.82 1.7-19q.47-10.68.92-21.36c.62-14.23 1.4-28.47 1.83-42.72.37-12.21-1.44-25.62-12.01-32.86zM433.18 157.49zm-48.78-26.14.27-.06zm2.9-2.88c.18-.61.13-.27 0-.06zM277 142.9c.45-.25.27.31 0 0zm-47.5 21.39h-.09c.16.23.08.14 0 0zm-35.37 45c.19-.55.07-.16 0 0zm-1 3.84c-.02-.13.1-.73-.04.03zm9 23a27.68 27.68 0 0 0 8.2 1.3 18.71 18.71 0 0 0-.21 6.88 15.9 15.9 0 0 0 11.85 13c6.75 1.68 13.82-.45 19.19-4.87s9-11.06 11.59-17.73a15.92 15.92 0 0 0 1.46-6.11 45.54 45.54 0 0 0 17.07-22.1c5 .29 9.88-2.54 13.32-6.36 4.28-4.75 6.27-10.69 8.57-16.62.07-.18.07-.2.1-.28s0 0 .06-.12c.13-.33.27-.65.4-1 .28-.64.56-1.27.86-1.89a30.69 30.69 0 0 1 2.09-3.71c.05-.09.28-.41.31-.47s.25-.32.38-.47a16.79 16.79 0 0 1 1.34-1.45 9.69 9.69 0 0 1 2.67-1.86c.3-.1.59-.21.89-.3a12.91 12.91 0 0 1 1.37-.31h.99c.53 0 1 0 1.57.08h.22l.62.13a14.22 14.22 0 0 1 1.54.45c.25.08.5.18.75.28h.12c.58.29 1.15.59 1.71.94l.54.35.65.47.38.31c.24.21.48.44.71.67.46.46.88.95 1.3 1.45.23.35.46.69.67 1s.41.78.6 1.17c.06.15.19.43.21.51.11.31.2.62.28.94s.11.53.18.79a1.28 1.28 0 0 0 .06.24 1 1 0 0 0 0 .15 19.25 19.25 0 0 1 0 2c-.2 3 3.48 5.17 5.81 3.48l18-13c2.55-1.84 5.7-4.41 8.08-5.62 0 0 .26-.08.36-.13h.51l.36.09.13.07c.05 0 .54.4.56.4l.34.31a20.8 20.8 0 0 1 1.5 1.74l.12.15.68.93c.46.64.92 1.28 1.4 1.9a18.26 18.26 0 0 0 2.48 2.71 25 25 0 0 0 6.87 4.37 26.4 26.4 0 0 0 14.8 1.57 23.84 23.84 0 0 0 5.86-1.88 26.52 26.52 0 0 0 8.08 13.6c3.33 2.94 7 5.58 9.75 9.12l.11.14.43.65a15.96 15.96 0 0 1 1.04 1.92c.09.2.08.19.09.23.2.63.37 1.25.51 1.9v2.04a11.5 11.5 0 0 1-.3 1.39c-.07.25-.16.51-.24.76l-.06.16-.08.17c-.24.48-.48 1-.76 1.42-.14.23-.28.45-.44.67v.07l-.07.08c-.35.42-.7.82-1.08 1.21-.19.19-.39.37-.59.55l-.37.32a13.21 13.21 0 0 1-2.67 1.6c.43-.18-.68.22-.92.29s-.59.17-.89.24a6.49 6.49 0 0 0-.76.17c-4.73.74-9.26-1-13.25-3.68-4.34-2.93-8-6.89-13.06-9s-11-2.12-16.47-2.31c-12.34-.43-25-.1-36.28 5.63-1.88 1-2.38 3.75-1.39 5.52a3.85 3.85 0 0 0 5.28 1.45c9.37-4.74 20.08-4.89 30.46-4.6 5.31.16 10.75-.1 15.67 1.81 4.4 1.71 7.83 5.75 11.89 8.49 8.95 6 22 7.36 29.63-1.65a17.77 17.77 0 0 0 4.14-14.75c-.9-4.83-4.14-8.85-7.57-12-1.85-1.72-3.82-3.3-5.73-4.95a31.19 31.19 0 0 1-2.7-2.57c-.38-.42-.74-.85-1.08-1.3a1.93 1.93 0 0 1-.17-.24c-.23-.33-.45-.67-.67-1-.31-.52-.61-1.05-.89-1.59l-.35-.72c-.06-.14-.12-.28-.19-.42a.31.31 0 0 0 0-.08 16.14 16.14 0 0 1-.52-1.67c-.06-.24-.12-.49-.17-.74 0-.08-.06-.52-.07-.64V177c.06-.27.11-.53.18-.79a3.58 3.58 0 0 1 .11-.35s.27-.53.31-.6l.12-.19a8 8 0 0 1 .62-.69 4.28 4.28 0 0 0 0-5.7 3.8 3.8 0 0 0-5.46 0 19.17 19.17 0 0 1-2.38 2.55l-.3.27c-.05 0-.47.35-.53.39-.47.33-.94.64-1.44.93s-1 .54-1.5.81l-.12.06h-.05c-.27.11-.53.22-.8.31a20.86 20.86 0 0 1-3.29.92l-.85.15h-.16c-.57 0-1.14.1-1.71.11a23.22 23.22 0 0 1-3.23-.15c-.17 0-1-.17-1.2-.2-.55-.12-1.11-.27-1.65-.43s-1-.31-1.46-.49l-.53-.21-.58-.28a25 25 0 0 1-2.91-1.79l-.17-.13-.51-.45a17.2 17.2 0 0 1-1.34-1.36c-.39-.43-.75-.88-1.1-1.35l-.11-.15-.57-.79a29.74 29.74 0 0 0-2.93-3.66c-2.44-2.43-5.55-3.76-8.94-3.05s-6.08 3.27-8.76 5.21l-15.28 11.06c-2.88-7.92-11.26-13.69-19.36-13.23-6.16.35-11 4.11-14.34 9.38a49.88 49.88 0 0 0-4 8.39c-.54 1.38-1.05 2.77-1.58 4.15-.13.32-.26.65-.38 1l-.11.28-.05.11c-.32.78-.65 1.56-1 2.31a27 27 0 0 1-2.44 4.05 23.58 23.58 0 0 1-1.75 2q-.37.39-.78.75a6 6 0 0 1-.69.58 16 16 0 0 1-2.07 1.3c-.13.06-.13.07-.13.08l-.21.07c-.42.15-.85.29-1.29.4l-.47.08a10.85 10.85 0 0 1-1.14 0h-.13l-.18-.06a11.89 11.89 0 0 1-1.54-.47c-2-.76-4.21.86-4.74 2.82a38.22 38.22 0 0 1-7.37 14.15 35.77 35.77 0 0 1-8.26 7.3c-4.14-.63-8.77 3.73-6 8.1a3.92 3.92 0 0 0 2.11 1.69 49.87 49.87 0 0 1-2.32 5.15c-2.18 4.19-4.9 8-8.7 10.34-.46.28-.94.54-1.42.79l-.59.28-.34.13a24.57 24.57 0 0 1-3.36.92l-1.08.12h-1.58l-.78-.05h-.26a12.47 12.47 0 0 1-1.58-.37 8.64 8.64 0 0 1-4.1-2.58l-.08-.08c-.1-.14-.19-.28-.28-.42a12.93 12.93 0 0 1-.64-1.15l-.14-.32c0-.11-.11-.32-.14-.42-.13-.48-.28-1-.38-1.45 0-.22-.07-.44-.12-.66.19 1 0-.07 0-.26v-1.49c0-.21 0-.42.05-.63a.92.92 0 0 1 0-.09c.13-.52.26-1 .41-1.56a.41.41 0 0 1 0-.08c.08-.19.17-.37.26-.55s.21-.36.32-.55a.85.85 0 0 1 .11-.16 10 10 0 0 1 .9-.94c.28-.16.54-.34.83-.49 3.83-2.08 1.18-8.9-3-7.37a24.3 24.3 0 0 1-2.91.86c-.45.1-.91.18-1.37.25-.13 0-1 .09-1.14.1a23.72 23.72 0 0 1-3 0c-.44 0-.88-.07-1.32-.13h-.14l-1.06-.2a23.08 23.08 0 0 1-2.92-.83c-.45-.15-.88-.32-1.32-.5h-.06c-.32-.16-.64-.31-.95-.48a21.58 21.58 0 0 1-2.54-1.59l-.51-.38-.09-.09c-.43-.4-.87-.78-1.28-1.21s-.64-.69-.94-1l-.35-.43-.12-.17a28.54 28.54 0 0 1-1.58-2.81.84.84 0 0 0-.08-.15v-.08c0-.08-.16-.44-.23-.67-.14-.45-.26-.91-.36-1.37-.06-.26-.1-.52-.15-.79v-.06c0-.59-.07-1.18-.06-1.77s.05-.94.08-1.41c0-.23.08-.46.13-.69a20.87 20.87 0 0 1 .87-3.09c.1-.22.19-.43.29-.64.23-.48.47-1 .74-1.42s.49-.8.74-1.19l.26-.37c.13-.17.26-.33.4-.49.37-.44.76-.86 1.16-1.27.1-.09.61-.54.75-.68a14.86 14.86 0 0 1 2.51-1.57c.16-.05.87-.34 1.07-.4a12 12 0 0 1 1.32-.3h.09a10.3 10.3 0 0 0 4.14 0c3.62-.75 3.74-7.11 0-7.77a16.45 16.45 0 0 0-3.27-.19l-.36-.21a4.32 4.32 0 0 1-.42-.27 1.73 1.73 0 0 1-.21-.17 5.14 5.14 0 0 1-1.8-3.54c-.31-3.33 1.59-6.94 3.7-10l.08-.12c.1-.14.21-.28.32-.41.3-.38.6-.76.92-1.13.59-.68 1.2-1.34 1.84-2a24.24 24.24 0 0 1 3.84-3.19 34.9 34.9 0 0 1 4.62-2.68c.12-.06 1-.46.58-.27.37-.16.75-.32 1.14-.46.89-.34 1.8-.64 2.71-.91.4-.11.78-.12 1.17-.21a9.53 9.53 0 0 0 1.19 2 7.43 7.43 0 0 0 11.38-.06 7.6 7.6 0 0 0 1.87-6.78 5.51 5.51 0 0 0-2.19-3.37 7 7 0 0 0-3.27-.69 16.54 16.54 0 0 1 1.71-1.27c1-.68 2.09-1.32 3.15-2 9.21-5.49 19-9.8 29.49-11.75a54.59 54.59 0 0 1 8.19-.89c1.41 5 9.6 3.81 9.75-1.79v-.12a56.19 56.19 0 0 1 6.31-5q2.65-1.78 5.45-3.29c1.85-1 3.87-2 5.39-2.6a67.91 67.91 0 0 1 12.49-3.81c1-.21 2.07-.38 3.11-.55h.31l.54-.07c.63-.08 1.25-.15 1.88-.21 2.09-.2 4.19-.29 6.29-.29a59.7 59.7 0 0 1 6 .32 4.35 4.35 0 0 0-.09 3.41 4 4 0 0 0 3.52 2.48c3.58.3 7-2.11 8.51-5.47a68 68 0 0 1 26.45-9.77l.6-.09.65-.08c.69-.07 1.38-.13 2.08-.17a32.78 32.78 0 0 1 4.32 0l.88.09h.3c.65.12 1.3.25 1.94.43s1.25.39 1.87.62a8.21 8.21 0 0 1 1.37.71 15.23 15.23 0 0 1 1.36.9c.1.1.59.52.58.51.17.16.34.33.5.5s.28.35.44.51a.21.21 0 0 0 0 .06c.1.17.21.34.3.51l.31.61.12.32c.06.19.12.38.17.57.1.36.16.72.23 1.09 0 0 .09.92.09 1.12 0 .49 0 1-.06 1.46 0 0-.11.78-.17 1.06-.13.54-.32 1.06-.48 1.59-.13.27-.26.55-.41.81s-.2.33-.3.5c-1.53.53-3.07 1-4.58 1.62a4.16 4.16 0 0 0-2.84 3.89c0 1.61 1.19 3.66 2.84 3.89a10.26 10.26 0 0 0 8.07-1.8c.18-.14.28-.33.45-.48 1.57-.5 3.15-1 4.75-1.4.93-.24 1.86-.46 2.8-.65l1.6-.31.6-.1.45-.07a36.42 36.42 0 0 1 5.62-.36q1.34 0 2.67.15h.65c.49.09 1 .18 1.46.3a21.79 21.79 0 0 1 2.47.73l.68.27.16.07.42.21.65.35a12.09 12.09 0 0 1 3.84 3c.12.13 1 1.11.71.78.25.33.47.69.69 1s.56 1 .81 1.45c.1.19.19.38.28.57s.14.34.2.47a20.16 20.16 0 0 1 .88 3.15c0 .24.09.48.13.72v.29c0 .56.08 1.12.08 1.69v1.95c0 .32-.1.64-.16 1-.11.55-.24 1.09-.39 1.63-.06.2-.12.4-.19.6 0 0-.45 1.15-.21.6-.78 1.84-.66 3.92 1 5.21a3.75 3.75 0 0 0 5.07-.32l.61-.58.54-.4a10.6 10.6 0 0 1 1-.59l.43-.23h.09a20.48 20.48 0 0 1 2-.59 2.83 2.83 0 0 1 .4-.08c.38 0 .76-.06 1.15-.07s.77 0 1.15 0l.8.07.64.12c.44.09.87.2 1.3.33s.75.24 1.11.37l.44.19a16.37 16.37 0 0 1 2.08 1.18c.27.18.53.37.79.57.12.12.25.23.38.34a16.14 16.14 0 0 1 1.47 1.63c.08.13.32.47.39.59.22.36.42.72.61 1.1.05.11.24.52.29.61.16.42.31.86.43 1.3s.2.74.29 1.12.09.5.14.75v.23a1.62 1.62 0 0 0 0 .23c0 .26 0 .51.05.77v1.55c0 .55 0 .77-.07 1.16v.23a3.65 3.65 0 0 0-.06.44 21.85 21.85 0 0 1-.62 2.66 10.79 10.79 0 0 1-.86 2.33 22.11 22.11 0 0 1-1.42 2.57l-.32.49-.28.38c-.3.37-.6.74-.91 1.09s-.62.66-.94 1-.37.35-.57.52-.72.61-.24.23a4.28 4.28 0 0 0-1.39 5.52 3.85 3.85 0 0 0 5.28 1.45l.09-.05c.22-.08.44-.15.67-.21s.44-.1.55-.13h1.15a.92.92 0 0 0 .17 0h.15c.45.11.89.25 1.34.37a1.23 1.23 0 0 0 .21 0l.16.1a14.68 14.68 0 0 1 2 1.27c.12.12.69.61.76.68.28.27.54.55.79.83.1.11 1 1.24.6.7.22.32.43.65.63 1a11.49 11.49 0 0 1 1.71 4.48c0 .17.06.2.07.25s0 .06 0 .22c0 .61.06 1.22 0 1.84a14.46 14.46 0 0 1-.27 2.72 28.1 28.1 0 0 1-1.82 5.86 79.14 79.14 0 0 1-6.95 11.74c-1.37 2 0 5.47 2.31 5.92.31.06.62.19.93.25l.39.23h.06a.79.79 0 0 0 .06.1 3.18 3.18 0 0 0 .31.34l.53 1c0 .13.1.26.14.4a14.35 14.35 0 0 1 .48 2.16c0 .17.05.56.06.71v1.26a21.83 21.83 0 0 1-.15 2.29c0 .16-.09.52-.12.68-.09.49-.2 1-.31 1.46-.23 1-.49 2-.77 3a55.58 55.58 0 0 1-11 20.4 52.47 52.47 0 0 1-7.17 6.8l-2.63-3.43c-1.57-2.06-4.93-1.24-6.06.81a60.69 60.69 0 0 1-5.6 8.92c-.54.64-1.09 1.27-1.68 1.86q-.51.51-1.05 1l-.46.4c.25-.21.19-.16-.18.12a22.49 22.49 0 0 1-2.07 1.31l-.67.32c-.3.12-.6.22-.91.31s-.63.15-.95.22h-.46a16.69 16.69 0 0 1-2 0h-.29c-.37-.1-.75-.17-1.12-.28s-.59-.2-.89-.31l-.47-.21a10.58 10.58 0 0 1-1.41-.91c-.11-.11-.41-.37-.48-.45s-.43-.52-.47-.55-.22-.33-.32-.5-.35-1-.12-.18c-.08-.3-.17-.62-.26-.92a.49.49 0 0 0 0-.14v-.42a4.08 4.08 0 0 0-2.37-3.69 3.69 3.69 0 0 0-4.22.84 12.39 12.39 0 0 1-1.16 1.34 3.53 3.53 0 0 1-.32.27 5.59 5.59 0 0 1-.47.33c-.23.15-.47.3-.72.43l-.26.12c-.47.16-.94.33-1.43.45-.27.07-.55.11-.82.17 1-.21.16 0-.1 0a13.94 13.94 0 0 1-1.71 0l-.86-.06h-.07c-.62-.14-1.23-.27-1.83-.46l-.83-.29-.15-.05c-.5-.3-1-.53-1.54-.83l-.72-.48-.42-.32-.37-.33c-.21-.2-.41-.4-.6-.62s-.36-.47-.57-.65a.41.41 0 0 0-.06-.11 16.56 16.56 0 0 0-.83-1.5v-.11c-.08-.28-.17-.56-.24-.84s-.1-.5-.16-.75v-.4c-.21-4-5.11-5.54-7.19-2-.08.13-.9 1.31-.42.7-.23.29-.46.56-.71.82s-.51.51-.77.76l-.19.17-.28.21a21 21 0 0 1-2 1.18l-.18.11-.21.05c-.45.15-.9.32-1.36.44s-.7.16-1.05.25l-.21.06h-.19a17.64 17.64 0 0 1-2.52.06l-.83-.08-.63-.13a12.71 12.71 0 0 1-2.24-.72l-.58-.29c-.41-.22-.8-.47-1.19-.73a7.15 7.15 0 0 1-1.55-1.26 13.1 13.1 0 0 1-2.83-3.68 18.51 18.51 0 0 1-2.2-9.46c.05-3.34-4.35-5.53-6.59-2.85a77.7 77.7 0 0 1-8.51 9.06c-.43.37-1.22 1-2 1.48a25.59 25.59 0 0 1-2.57 1.53l-.67.33-.33.13c-.4.15-.8.3-1.2.43s-1.11.27-1.65.44l-.3.06h-.23a16.16 16.16 0 0 1-2.41 0l-.59-.11a11.78 11.78 0 0 1-1.2-.33c-.32-.1-.63-.21-.95-.33 0 0-.65-.3-.76-.36-.36-.19-.72-.4-1.07-.62l-.73-.51-.67-.59c-.29-.29-.55-.59-.82-.88l-.21-.25a1.5 1.5 0 0 0-.1-.16c-.2-.34-.39-.68-.58-1l-.14-.28a.59.59 0 0 0 0-.14 6.68 6.68 0 0 0-.28-1.11v-.47c0-.15.14-1.62 0-.68.31-2-.32-4-2.23-4.76s-3.62 0-4.82 1.65l-9.61 13.1-4.68 6.22a35 35 0 0 1-3.11 4 13.85 13.85 0 0 0-4.71-1.69h-.59c-.2-.34-.42-.65-.6-1s-.44-.91-.65-1.37l-.11-.23-.07-.23a34.23 34.23 0 0 1-1.42-5.46c-.59-3.55-5.49-3.75-7.06-1a107.41 107.41 0 0 1-17.47 23.19 24.37 24.37 0 0 1-2.29 2.14c.31-.24-.27.19-.27.19-.24.16-.48.33-.73.48a6.32 6.32 0 0 1-.56.33c-.08.05-.45.2-.54.25-.39.12-.81.17-1.18.32h-.44c-.14 0-1.42-.19-.45 0a11 11 0 0 1-1.13-.29l-.28-.1c-.26-.2-.61-.34-.89-.52l-.38-.28c-.3-.3-.61-.58-.9-.89s-.49-.58-.74-.87l-.27-.4a24.54 24.54 0 0 1-1.41-2.44c-.22-.44-.43-.88-.63-1.33l-.21-.51-.17-.42q-.56-1.51-1-3.06a45.39 45.39 0 0 1-1.27-6.11 3.89 3.89 0 0 0-3.72-3 3.94 3.94 0 0 0-3.72 3c-.08.35-.18.68-.26 1l-.09.27c0 .08-.07.16-.11.23l-.51.92a3.28 3.28 0 0 1-.2.31l-.11.14c-.24.25-.46.52-.71.76-.06.07-.3.28-.42.4a11.5 11.5 0 0 1-1.58 1c-.14.08-.49.22-.54.25l-.76.26c-.33.09-.67.16-1 .24h-1.92c-.32-.09-.65-.19-1-.27h-.19a.5.5 0 0 0-.15-.1c-.29-.17-.58-.36-.87-.52a.91.91 0 0 0-.17-.08l-.11-.12c-.25-.24-.49-.47-.72-.72-.09-.09-.25-.29-.34-.4a13.76 13.76 0 0 1-1-1.79l-.12-.33c-.11-.39-.23-.78-.33-1.18s-.1-.52-.14-.78v-1.58l.07-.56a13.77 13.77 0 0 1 .4-1.53c.06-.13.25-.57.31-.68a10.87 10.87 0 0 1 .64-1c2.27-3.25-2.18-7.74-5.28-5.52a43.16 43.16 0 0 1-4.73 3 18.59 18.59 0 0 1-4.62 1.9c-.43.12-.86.23-1.29.32l-.51.09h-.11c-.36 0-.72.05-1.07.05-.16 0-.85-.05-.94 0l-.93-.22c-.17 0-.32-.11-.49-.16.16.05.64.37 0 0-.3-.17-.59-.35-.88-.54-.63-.4-.18-.15-.06 0-.18-.17-.36-.34-.53-.52a2.86 2.86 0 0 1-.56-.78c-.12-.19-.22-.4-.33-.6 0 0-.15-.28-.19-.36a18.61 18.61 0 0 1-.91-3.07c-.59-2.46-1.11-4.95-1.66-7.42q-1.7-7.7-3.41-15.39l-2.7-12.18a25.85 25.85 0 0 0 10.69 6.73zm-9-19.54zm5.29 8.7zm19.7 12.87c.06-.16.12-.27 0 0zm28.38-9.57a.64.64 0 0 1 0 .26.47.47 0 0 0-.04-.22zm54.83-56.22c-.41.2-.18.07 0 0zm13.45 4.63c.23.27.12.15 0 0zm34.88-8.5zm2.86 2.79c.18.22.09.12 0 0zm19.3 123.74a6 6 0 0 1-.29-.62c0-.14-.1-.27-.14-.41a20 20 0 0 1-.52-2.16v-1.13l.25.06c.24.07.46.16.69.24s0 0 .06 0c.25.15.5.28.74.43l.31.2c-.05 0-.1-.09-.09-.11l.15.15c.33.21.18.13 0 0l1.09 1.11.19.33-.17.22a15.51 15.51 0 0 1-1.36 1.33l-.48.35a2.82 2.82 0 0 1-.29.18zm-89 7.79-.19.07.19-.07zm4.12-3.68V299a.59.59 0 0 0 0 .13zm-80.84-28.59zm-56.53 5.06c.21 0 .09.17 0 0zm-8.42 48.32s-.1.07 0 0zm.1 0v-.05s.1.02 0 .04zm1.41 185.94c.08.06 0 .14-.13.22 0-.18.03-.3.13-.23zm18.23 64.24c-.64-.12.05.1-.5-.18a3.74 3.74 0 0 1-.42-.27l-.13-.12a2.11 2.11 0 0 1-.35-.38c-.14-.21-.25-.42-.38-.63l-.22-.48a12.07 12.07 0 0 1-.43-5.1 14.84 14.84 0 0 1 1.14-3.95 10.57 10.57 0 0 0 1.61-3.28c1.28-4.59-4.65-6.73-7.06-3.1-.31.47-.51 1-.79 1.51a3.27 3.27 0 0 1-2.21 1.48 5.12 5.12 0 0 1-4.92-1.85c-3.42-3.54-4.62-9.52-5.15-14.32a46.88 46.88 0 0 1 4.66-26c3.17-1.7 5.29-5.64 4-9.31-1.19-3.44-5-3.79-7-1-.65.91-1.24 1.86-1.82 2.81a4.16 4.16 0 0 1-.51-.36c-1.83-1.65-3-4.52-3.87-6.78a47.87 47.87 0 0 1-3.33-16.23c-.34-11.17 2.94-22.58 9.8-31.25 2.3-2.91.23-8-3.75-6.74a5.87 5.87 0 0 1-5.45-.72 15.38 15.38 0 0 1-4.76-5.28c-3-5.11-3.82-10.89-3.91-16.79a60.46 60.46 0 0 1 11.72-37c1.48-2 1.6-4.95-.78-6.34-10.66-6.2-10.65-20.77-8.09-31.58 1.46-6.16 3.1-12.77 6.28-18.23.39-.69.88-1.35 1.34-2 .23.16.4.38.65.53a8.69 8.69 0 0 0 11.44-2.9 7.35 7.35 0 0 0 1-5.83c-.71-2.63-3.11-3.73-5.5-4.13a10.88 10.88 0 0 0-5.64.57 40.63 40.63 0 0 1 .27-15.11 46.44 46.44 0 0 1 9.56-20.47 5.76 5.76 0 0 0 3.6-.05c3.34-1.15 6.22-5.14 5.34-8.91a5.63 5.63 0 0 0-3.67-4.11 3.79 3.79 0 0 0-2.86.23 29.52 29.52 0 0 1 7.35-12 30 30 0 0 1 13-7.87c1.65-.48 3.66-.49 4.95-1.79a43.34 43.34 0 0 0 3.26-4.3l6.43-8.51 5.28 23.85c1.14 5.15 1.82 11.19 5.58 15.1a11.37 11.37 0 0 0 1.19.91 26.37 26.37 0 0 0-4.47.52c-8.89 1.92-16.42 8.67-21.19 16.54-5.12 8.44-7 19.42-2.52 28.46a97 97 0 0 0-15.05 41.26c-1.78 14.38-.87 32 11.08 41.61a24 24 0 0 0 11.61 5.11c-8 13.44-10.09 30.9-3.91 45.55 2.05 4.85 5.72 8.91 11 9.53s10-2.33 13.84-5.63a85.58 85.58 0 0 0 19-23.77c2.7-4.89 7-11.95 3.78-17.58a7 7 0 0 0-2-2.13 84.61 84.61 0 0 0 8.31-27.15c.63-5 .65-9.78-1.52-14.39-2-4.3-6.08-7.09-10.73-5.75s-2.75 9.17 2.05 7.78c.9-.26.11.1.39 0h.19v-.05l.05.06c.21.21.43.41.62.64a10.58 10.58 0 0 1 1.38 3.48c.79 3.4 0 7.53-.63 11.15A77.57 77.57 0 0 1 208 417.46h.08a6.13 6.13 0 0 0-.47.92c-1.27 3.76 3 6 5.7 4.39a13.37 13.37 0 0 1-1.18 3.12 87.51 87.51 0 0 1-5.81 10.41c-4.12 6.33-9.29 12.84-15.29 17.31-2.26 1.68-5.61 3.88-8.4 2.26-2.51-1.46-3.62-5-4.41-7.69a43.14 43.14 0 0 1-.91-20.45 42.56 42.56 0 0 1 10.12-20.57c2.44-2.68 0-8.33-3.76-6.74-4.83 2-9.87.77-14-2.37-4.6-3.49-7-9.14-8.15-14.81-1.32-6.5-1-13.43-.24-20A89.58 89.58 0 0 1 165.9 344a87.53 87.53 0 0 1 10.59-20.47 4.08 4.08 0 0 0 0-4.07c-8.26-12.88 3.81-31.46 16.59-35a15.55 15.55 0 0 1 9.06-.09 6.81 6.81 0 0 1 2.74 1.71c1 1 1.27 2.1 1.63 4.06.88 4.77 2.16 9.36 7.26 10.76 4.25 1.16 8.42-.85 12.58-.59a19.12 19.12 0 0 1 10.61 4 10.2 10.2 0 0 1 4 8.36 3.88 3.88 0 0 0 6.59 2.85 9.53 9.53 0 0 1 4.45-2.41 6.43 6.43 0 0 1 2.24-.32h1.67l.75.07a15.33 15.33 0 0 1 9.6 5.14 11.54 11.54 0 0 1 2.36 4.08 13 13 0 0 1 .13 6.86c-1.33 6.23-4.57 11.8-5.82 18.06-.58 2.93 1.78 5.83 4.75 5 5-1.46 10 2.68 11.63 7.54 2.25 6.89-.91 14.27-4.59 19.91-1.24 1.89-.24 4.36 1.38 5.52 7.7 5.51 12 15 12.23 24.6a22.52 22.52 0 0 0-3.45-3.74c-1.94-1.65-6-1.56-6.45 1.78l-2.94 22.2c-.4 3-.48 6.46-1.54 9.35a3.45 3.45 0 0 1-1.35 2s-1.08.23-.8.22-.37-.35-.12-.09c-2.46-2.58-6.4-.55-6.58 2.86-.77 14.31-1.5 28.62-2.31 42.93a34 34 0 0 1-1 7.46c-.54 1.88-1.71 4.13-3 4.71a4.55 4.55 0 0 1-3.4 0l-.59-.3-.18-.12-.3-.32a.25.25 0 0 0 0-.09.25.25 0 0 1 0-.07v-.67c.14-5.24-7.34-5.11-7.72 0-.21 8-.25 18.43-6 24.48a13.69 13.69 0 0 1-7.71 4c-3.1.39-5.45-.34-7.42-2.8-2.55-3.2-7.43.25-6.45 3.92.92 3.48-.51 6.8-3.2 9.38s-6.6 4.06-10.06 3.25c-8.09-1.9-12.86-10.86-13.35-19-.31-5.28-7.16-5.09-7.72 0a116 116 0 0 1-10.11 36.2c-2.38 5.1-4.95 11-8.91 15-1.44 1.37-3.07 2.32-4.78 1.99zm55.8-198.43s.02.01 0-.01zm-43.94 200.16a55.51 55.51 0 0 0 5-7.91 125.19 125.19 0 0 0 9.15-21.23c1.07-3.28 2-6.62 2.73-10 3.57 5.82 8.89 10.3 15.78 11.24 9.09 1.25 18.68-5.5 21-14.52 6.18 2 13.62-.23 18.52-4.6 6-5.37 8-13.57 8.81-21.72l.23.08a11.38 11.38 0 0 0 12.13-4.14c3.35-4.38 4.08-10 4.41-15.42.41-6.74.72-13.49 1.09-20.23l1-18.18a9.09 9.09 0 0 0 4.16-1.27c3.45-2.12 4.88-6.3 5.46-10.21.94-6.3 1.75-12.62 2.55-18.94a28.17 28.17 0 0 1 1.34 3.46 27.3 27.3 0 0 1-1.66 3.7h.08a6.74 6.74 0 0 0-.47.93c-1 3 1.65 5.1 4.12 4.92.48 3.21.89 6.4 1.46 9.39a55.88 55.88 0 0 0 2.51 8.89c-.1 1.1-.17 2.2-.3 3.29A142.92 142.92 0 0 1 284 487a100 100 0 0 1-7.26 15.33c-3 5.17-6.67 9.77-10 14.68A62.94 62.94 0 0 0 259 534c-1.69 5.38-3.19 10.84-6.05 15.71-2.43 4.12-6.32 8.1-10.68 8.59-3.76.41-8.11-1.14-9.3-4.66-1-3-5.52-4.34-7.05-1-4.68 10.31-9.58 21.17-18.08 28.69-6.67 5.89-15.46 7.94-23.56 5.11a14.52 14.52 0 0 1-8.8-8 4.09 4.09 0 0 0-2.73-2.6zm132.49-59.29c2.14 2.5 2.5 6.15 2.51 9.36a87.08 87.08 0 0 1-1.24 13 172.48 172.48 0 0 1-6.8 28.6c-5.54 16.78-13.27 33.53-28.13 43.22a115.24 115.24 0 0 1-11.64 6.48c-3.89 1.93-7.79 3.92-11.82 5.5s-8.39 2.73-12.83 2.32a26.21 26.21 0 0 1-10.46-3.67c-8.29-4.74-14.94-11.91-22.94-17.11-7-4.58-15.41-7.91-23.68-6.65-.28-1.9-.55-3.81-.83-5.72a27.19 27.19 0 0 0 16.07 3.89c12.46-.82 22-9.06 28.88-19.42a111.63 111.63 0 0 0 7.6-13.88 15.37 15.37 0 0 0 7.51 3.63c6 1.07 11.44-.75 16.09-4.74 10.57-9.05 10.77-24.29 17.15-35.93 3.33-6.06 8-11.2 11.57-17.07a110.74 110.74 0 0 0 9-18.61 141.25 141.25 0 0 0 7.33-28.93 20.56 20.56 0 0 0 5.26 4.09l-4.56 27.2c-.8 4.76-2.44 10.17-1.43 15a11.33 11.33 0 0 0 3.27 5.77c1.29 1.28 2.88 2.25 4.12 3.67zm66.78-56s-.02-.02-.02-.05zm.15-.78zm180.63-81.19c-.73 24-2 47.95-3.09 71.92a43.42 43.42 0 0 1-.74 7.72 13 13 0 0 1-1 3.08 8.86 8.86 0 0 1-.84 1.36c-.1.12-.92.91-.46.54a3.18 3.18 0 0 1-1.86.86h-1.52a6 6 0 0 1-1-.3 2.25 2.25 0 0 0-.38-.25 1.66 1.66 0 0 0-.24-.3c0-.1 0-.11 0 0 0 .36-.09-.51-.1-.61a3.94 3.94 0 0 0-3.73-3 4.06 4.06 0 0 0-3.72 3 62.83 62.83 0 0 1-3.73 8.74 29.47 29.47 0 0 0-4.65 5.66c-.19.14-.39.27-.59.4a36.37 36.37 0 0 0-12.45-2.63 10.55 10.55 0 0 0-5.19-2.68 14 14 0 0 0-10.7 3 29.23 29.23 0 0 0-4.72 4.78 40.65 40.65 0 0 0-7.67 5.33c-.89.81-1.64 1.78-2.45 2.68h-.41a32.51 32.51 0 0 0-17.58-19 25 25 0 0 0-3.18-1l-.78-1.77c-1.33-3.05-5.12-2.14-6.66 0-.23.32-.5.6-.73.91a29.41 29.41 0 0 0-20.89 10.87 33.32 33.32 0 0 0-5.53 9.84c-3.31-3.67-7.47-6.39-12.37-6.08-7.08.44-14.67 7.8-11.86 15.67s12 8.23 18.57 5.78a49.78 49.78 0 0 0 5.19-2.31c2.26 2 6.32.26 6.35-3.15 0-.22.05-.43.06-.65 2.94-1.94 5.77-4 8.44-6.17a102.4 102.4 0 0 0 15.26-15.19c2.91 6.05 6.4 11.79 11.75 15.81a23.2 23.2 0 0 0 7.79 3.82 22.39 22.39 0 0 1 .23 2.94c0 3.88 5.4 5.64 7.19 2a30.69 30.69 0 0 1 3.23-5.09 15.88 15.88 0 0 0 3.37-1.47c3.05-1.82 5.27-4.6 7.5-7.36a32.92 32.92 0 0 1 4.44-1.93 33.93 33.93 0 0 1 8.17-1.58 13.63 13.63 0 0 0 4 3.1 15.18 15.18 0 0 0 11.45.42c.13 0 .23-.12.35-.16 1.71.83 4.22.47 5.09-1.51a25.34 25.34 0 0 1 1.44-2.68 26.74 26.74 0 0 0 4-4.94 18.9 18.9 0 0 1 1.65-1.44c5.46 7.44 5.4 17.9 4.41 27.07-.55 5.1-1.11 11.42-4.16 15.76a7.25 7.25 0 0 1-4.79 3.22 4 4 0 0 1-4.11-1.23 3.82 3.82 0 0 0-6.45 1.78c-2.51 13.25-4.72 26.61-7.58 39.78-1.13 5.25-2.6 10.75-5.9 15a14.13 14.13 0 0 1-10.71 5.66 7.81 7.81 0 0 1-4.81-1.59c-1.8-1.44-3.13-3.5-4.64-5.23-3.29-3.79-8-6.35-12.9-4.33-4.73 2-7.26 6.74-10.09 10.83a14.67 14.67 0 0 1-9.71 6.15 12.82 12.82 0 0 1-12.23-5 15.32 15.32 0 0 1-3-8.82 14.35 14.35 0 0 0 .71-6c-.24-2-1.29-3.7-3.35-4a3.88 3.88 0 0 0-4.23 2.89 21.9 21.9 0 0 0-.86 5.88l-.08.18a11.09 11.09 0 0 1-3.6 3.74 12.5 12.5 0 0 1-5.21 2c.56-.09-.86.08-1 .09h-1.64c-.55 0-.54-.05-.19 0-.27 0-.54-.09-.8-.15a11 11 0 0 1-6.5-4.07 19.36 19.36 0 0 1-3.38-5.6 28.27 28.27 0 0 1-1.84-10.31 11.32 11.32 0 0 0 .24-5.73c-.82-3.67-6.88-4-7.45 0-.18 1.26-.3 2.55-.37 3.84a4.75 4.75 0 0 1-2 1.85c-1.72.85-4 .3-5.7-.55-4.1-2-7.61-5.86-10-9.59a39.5 39.5 0 0 1-5.75-25.74 36 36 0 0 1 1.1-5.23 10 10 0 0 0 3.95-13.15 3.82 3.82 0 0 0-6.67 0 41.37 41.37 0 0 0-3.17 6.44 8.8 8.8 0 0 1-2.91-.86 17.64 17.64 0 0 1-7.83-8.49c-4.29-8.88-2.35-19.2.65-28.24.89-2.69 1.86-5.35 2.93-8 .08-.18.18-.38.26-.57a7.42 7.42 0 0 0 .76.72 8.83 8.83 0 0 0 8.45 1 7.45 7.45 0 0 0 4.27-8.17 9.3 9.3 0 0 0-5.94-6.7 8.26 8.26 0 0 0-3.76-.51 132 132 0 0 1 1.1-14.07 156 156 0 0 1 7.75-32c1-2.91 2.2-5.78 3.43-8.61a17.19 17.19 0 0 0 3.16 1.47c5.5 1.72 12.24.21 15.32-5.23a14.25 14.25 0 0 0-.39-14.14c-3.46-5.27-10-5.94-14.85-2.16a22.65 22.65 0 0 0-5.12 6.15 28.64 28.64 0 0 1-1.39-8.5 62.25 62.25 0 0 1 5-25.83 4.12 4.12 0 0 0 4 1.42c6.06-1.18 12.37-4.53 13-11.66.42-5.09-2.82-9.14-7-9.85a59.9 59.9 0 0 1 17.3-26.19c1.6-1.4 1.38-4.26 0-5.71a3.83 3.83 0 0 0-5.46 0 67.43 67.43 0 0 0-21 35.88 40.17 40.17 0 0 0-3.07 4 48 48 0 0 0-4.78 8.69 71.63 71.63 0 0 0-5.12 19.82c-.79 6.67-1.08 13.91 1.13 20.33a23.37 23.37 0 0 0 3.22 6.05c-.29.69-.6 1.39-.88 2.06a160.06 160.06 0 0 0-11.53 41.17 3.9 3.9 0 0 0-.89-1.08 3.84 3.84 0 0 0-7.08-1.25c-.58 1-1.19 1.95-1.84 2.88l-.39.55-.07.1c-.39.48-.77 1-1.17 1.46a43.18 43.18 0 0 1-4.72 4.84l-.51.44-.34.29-.35.28-.79.32a45.7 45.7 0 0 1-9.51 2.65l-.62.1-1.12.14c-.86.09-1.73.16-2.6.2a45.78 45.78 0 0 1-4.83 0c-.93-.05-1.86-.13-2.78-.24l-.56-.07h-.26l-1.29-.22a45.47 45.47 0 0 1-5.6-1.42 3.83 3.83 0 0 0-4.32 1.92c-.62-.39-1.28-.72-1.9-1.12-2.29-1.5-4.52-3.08-6.74-4.68a7.8 7.8 0 0 0-2.19-1.32 3.55 3.55 0 0 0-.57-.05c0-.47.08-.93.09-1.4.15-3.7.27-7.51-1.25-11a9.15 9.15 0 0 0-5.08-4.79c4.43-14.63-.05-31.64-11.19-41.78 4.17-7.6 6.34-16.89 2.86-25.18-2.52-6-8-10.64-14.08-11.58 1.28-3.71 2.87-7.31 3.89-11.12 1.38-5.14 1.44-10.39-.73-15.28-3.44-7.77-12-12.57-20-12.68a18.19 18.19 0 0 0-7.49 1.53c-2.37-6.38-8.32-10.91-14.72-12.87a27.9 27.9 0 0 0-13.4-.6c-1.22.23-3.6 1-4.48-.19-1.16-1.58-.94-4.63-1.5-6.52a13.34 13.34 0 0 0-5.76-7.73h.28a24 24 0 0 0 5.39-1.72c.47 5.26 3.28 10.36 7.88 12.61a14.59 14.59 0 0 0 15.29-2 40.67 40.67 0 0 0 1.54 4.11c1.7 3.66 4.33 7.41 7.93 9.23a12.52 12.52 0 0 0 13.51-1.52 53.26 53.26 0 0 0 7.72-7.53 16.6 16.6 0 0 0 3.37 15.75 15.2 15.2 0 0 0 6 7.53 13.17 13.17 0 0 0 10.08 1.63 11 11 0 0 0 3.54-1.71c.41-.06.82-.09 1.23-.18a17 17 0 0 0 12.14-11.14 15 15 0 0 0 .61-6.2 11.82 11.82 0 0 0-.58-5.43 12.6 12.6 0 0 0-5.26-6.27 12 12 0 0 0-1.83-2.7c2.9-3.37 5.39-7.24 8-10.83l4.69-6.41c.1.15.15.31.25.45a18.43 18.43 0 0 0 8.7 6.56c7.5 2.84 15-.41 21-5.3a46.59 46.59 0 0 0 3.8-3.64c2.06 6.43 6.43 12 12.64 14.53.51.21 1.05.32 1.58.48a13.91 13.91 0 0 0-.83 1.32 14.44 14.44 0 0 0-1.87 2.16 15.92 15.92 0 0 0-2.12 12 12.51 12.51 0 0 0 1.11 3.13 13.93 13.93 0 0 0 .09 1.93c1.18 8.07 8.92 14.42 16.68 13.17a4 4 0 0 0 4.29.3 15.51 15.51 0 0 0 7.78-10.07 12.58 12.58 0 0 0 4.11-8.55 11.81 11.81 0 0 0-2.05-7 17.24 17.24 0 0 0-.67-3.36 17 17 0 0 0 12.46-1c3.28 4.91 9.82 7.21 15.66 6.2 7-1.21 11.87-7.12 15.64-13.24l1.52 2a3.72 3.72 0 0 0 4.67.63 61.74 61.74 0 0 0 18.88-21 64.26 64.26 0 0 0 3.5-7.63 3.57 3.57 0 0 0 .95-.33 261.86 261.86 0 0 0-5.95 51.47 16.41 16.41 0 0 0-11-1.53c-9.88 2.27-15.32 13.06-18.68 22a84.08 84.08 0 0 0-5.15 33.95c.53 9.23 3.27 20.57 11.86 25.16a17.38 17.38 0 0 0 9.93 1.84c.68 4.92 3.24 9.59 7.6 11.6 5.64 2.61 11.89 1 16.55-3a16.6 16.6 0 0 0 6.69 1.49 13.23 13.23 0 0 0 8.95-3.43c2.72-2.46 4.25-6 5.31-9.52a77.27 77.27 0 0 0 3.08-23.39 79.08 79.08 0 0 0-5-26.4c-.76-2-2.58-3.44-4.74-2.82-1.85.53-3.47 2.93-2.7 5a72 72 0 0 1 3.56 38.8 44.84 44.84 0 0 1-2.39 9c-.93 2.2-2.38 4-4.09 4.48a7.61 7.61 0 0 1-3.82 0 18.89 18.89 0 0 0 1-11 22.72 22.72 0 0 0-14.57-16.07c-2.31-.81-5 1.37-4.89 3.89.11 2.29.27 4.61.5 6.93a4.2 4.2 0 0 0-4.19-.32 11.56 11.56 0 0 0-5.88 6.55 7.06 7.06 0 0 1-3.19.42c-.33 0-.66 0-1-.07h-.09l-.25-.06a12.08 12.08 0 0 1-2.12-.65l-.64-.33a10.43 10.43 0 0 1-1-.64c-.14-.11-1-.94-1.39-1.33a16.83 16.83 0 0 1-2.74-4.22 30.54 30.54 0 0 1-2.46-10.23 76.23 76.23 0 0 1 2.75-27.26c2-7.12 5-15.87 11-20.42a13.11 13.11 0 0 1 2.59-1.56c.21-.09.64-.24.88-.31s1.53-.36 1-.29a7.87 7.87 0 0 1 4.38.48 7.36 7.36 0 0 1 3.16 2 3.81 3.81 0 0 1 1 1.5c-.31-.66.16.51.17.55 0 .21.09.41.12.62s0 0 0 .36c.16 5.18 7.87 5.2 7.72 0a254.24 254.24 0 0 1 9.22-75.79v-.26a8.74 8.74 0 0 1 4.49.62 10.8 10.8 0 0 1 6.3 7.82c.77 3.76.45 8.1 2.05 11.88 2 4.74 6.28 6.5 10.9 7.25a112.33 112.33 0 0 1 12.28 2.52c7.17 2 14.7 5.62 18.26 12.42a19.74 19.74 0 0 1 2.21 10.32c-.17 2.93-1.52 6.36-3.79 8.13a4.28 4.28 0 0 0-1.39 5.52 3.84 3.84 0 0 0 5.28 1.45c3.07-1.65 7-.72 10 1.6 3.43 2.69 5.06 7.31 5.73 11.62 1.33 8.56-.73 17.74-4.57 25.4a15.35 15.35 0 0 0-4.91 1.9c-5.49 3.35-8.89 9.78-7.41 16.41.72 3.22 4.34 3.56 6.45 1.78a50.61 50.61 0 0 0 10.44-12.28A11.48 11.48 0 0 1 545 353c7.67 5.66 8.07 16.69 7.8 25.58zM410.43 496.09l-.29-.18a2.4 2.4 0 0 1-.65-.56c-.05-.08-.36-.71-.37-.74a1 1 0 0 0-.06-.17 4.1 4.1 0 0 1 3.56-4.36 6.76 6.76 0 0 1 .85-.24 1.32 1.32 0 0 1 .51-.07 3.73 3.73 0 0 1 1.72.24 9.28 9.28 0 0 1 3.24 1.74 15.93 15.93 0 0 1 2.17 2.39 23.86 23.86 0 0 1-4 1.69 18.37 18.37 0 0 1-3 .67 8.8 8.8 0 0 1-3.14-.19 4.87 4.87 0 0 1-.54-.22zm59.46-13a22.7 22.7 0 0 1-1.82-2c.64.64 1.23 1.32 1.82 2zM442 479a88.706 88.706 0 0 1-3.83 3.44A23.51 23.51 0 0 1 442 479zm-49.44-96.43.43.14a3.59 3.59 0 0 1 .32.21l.41.43c.08.14.31.51.37.6s.12.25.18.38 0 .06 0 .14q.15.52.27 1.05v1.8l-.06.3c-.08.35-.17.69-.28 1 0 .06-.27.56-.36.71a2.07 2.07 0 0 1-.15.25c0-.06 0-.08-.09.09a4 4 0 0 1-.35.36 5 5 0 0 1-2.37 1 9.33 9.33 0 0 1-2.1 0 12.35 12.35 0 0 1-2.33-.68 8.7 8.7 0 0 1-1-.59 24.3 24.3 0 0 1 2.84-4.74c1-1.24 2.34-2.38 3.45-2.51a5.58 5.58 0 0 1 .78.08zm0 0c-.15 0-.68-.14 0 0zm.26-46.11h.05c.35-.13.22.09.08.12a1.6 1.6 0 0 1 .29 1.11v.75c0 .12-.08.32-.13.47l-.05.07a4.72 4.72 0 0 1-1.41 1.47c-.11.07-.24.09-.34.16.13-1.15.35-2.28.56-3.42a8.79 8.79 0 0 1 1-.72s-.11.05-.11.01zm57.13 37.06a30.29 30.29 0 0 0 3.28 9.2 21 21 0 0 0 2.36 3.2c-.21.12-.43.3-.63.39a7.81 7.81 0 0 1-1.43.5c-.19.06-1.26.29-.86.23a9 9 0 0 1-1.27.07h-.64c-.34 0 .14.06-.44-.07a5.51 5.51 0 0 1-1.94-.76 2.71 2.71 0 0 1-.38-.28.9.9 0 0 1-.17-.14 8 8 0 0 1-.88-1c-.05-.1-.27-.42-.33-.53s-.37-.73-.45-.87-.22-.64-.26-.77a12.88 12.88 0 0 1-.35-1.49v-1.88a12.4 12.4 0 0 0 4.33-5.78zm10.51 6c-2.28-3.23-3.24-7.26-3.69-11.34a14.52 14.52 0 0 1 3.17 4.73 11 11 0 0 1 .46 6.64z" fill="#f87318" data-color="1"/>
        <path d="M392.89 336.65v-.07l-.05-.05c-.03.08 0 .12.05.12z" fill="#f87318" data-color="1"/>
        <path d="M373 291.76h-.06z" fill="#f87318" data-color="1"/>
        <path d="M354.83 351.42h-.45a2.84 2.84 0 0 0-1.16-.52 80.86 80.86 0 0 0-23.38-1 9.41 9.41 0 0 0-3-1.22c-3.93-.73-7.57.45-11.14 2.1a17 17 0 0 0-3.38 1.83 6.21 6.21 0 0 0-2.34 6.86c.57 2 2.06 3.41 3.36 4.84l3.75 4.12c1.11 1.22 2.2 2.56 3.35 3.82l.49.66q1.95 2.39 4 4.64c1.63 1.74 3.52 3.33 6 3.11 3.72-.32 5.94-3.95 7.92-7.07a56.83 56.83 0 0 0 3.59-2 52.92 52.92 0 0 0 14.66-14.19c1.4-1.99.07-5.65-2.27-5.98zm-30.42 13.25-.54-.75c-.09-.12-.16-.25-.25-.38l3-.42a26 26 0 0 0-1.45 2.51l-.24-.27z" fill="#f87318" data-color="1"/>
    </g>
</svg>
