<?xml version="1.0" encoding="UTF-8"?>
<svg data-bbox="-0.033 -0.019 681.088 797.329" viewBox="0 0 681.05 797.31" xmlns="http://www.w3.org/2000/svg" data-type="color">
    <g>
        <path d="M5.54 786.16s-.07 2.47-.14 5.53 3 5.57 6.86 5.62c0 0 643.26-.55 645.75-.78l11.73-1.09c12.06-1.13 12.55-7.53 10.2-74.14-.35-9.68-.83-35.47-1.07-57.31-.52-46.2-4.58-473.76-4.53-482.16q.07-15.2.13-30.39v-32.86q0-16.42-.02-32.58-.06-14.76-.2-29.51c-.09-7.9-.19-15.8-.39-23.7-.14-5.82-.77-11.79-.41-17.55.47-7.6-4.77-12.92-11.88-14.52-6.14-1.37-12.75-.4-19.05-.48-6.71-.07-13.42-.1-20.13-.13Q606.68.05 591 0h-87.9l-52.05.08-54.53.06-54.79.07-52.87.05H135.49L92.61.33 60 .42C52 .46 44.07.5 36.13.59c-5.48.05-11 .12-16.44.25-3.49.08-7 .17-10.46.36-2.6.14-7.6-.2-8.75 2.49A8.94 8.94 0 0 0 0 7.44c.16 8.14 5.69 772.63 5.54 778.72zm20.58-531 5.78-.29c3.19-.16 5.89.58 6 1.65l.23 1.94c.82 6.7-.28 12.41-2.7 14-1.35.86-6.68 1.67-13.75 2.09l-5.77.34c-3.18.19-5.77-.56-5.77-1.67v-2a75.52 75.52 0 0 0-.65-8.67c-.81-6.03.58-6.64 16.63-7.44zM24.64 279c15.15-1.21 13.62-2.23 13.51 9C38 299 38 299.09 27 301.9c-16.8 4.29-17.48 3.93-17.66-9.58-.13-12.51-.71-12.01 15.3-13.32zm-14.08 33.3a6.75 6.75 0 0 1 .62-.89c2.29-2.8 5.73-1.75 8.85-2.62a44.11 44.11 0 0 1 7.97-1.23c2.42-.21 5.08-.7 7.43.13 3.39 1.19 2.59 4.2 2.58 6.9 0 4 .23 7.91.15 11.87 0 1.57.12 3.79-1 5.11-1.43 1.6-4.66 1.48-6.68 1.71-19.69 2.23-19.69 2.23-20.66-10.2 0 0-.17-2.15-.37-4.79a10.31 10.31 0 0 1 1.11-5.96zM31 339.17h.56c3.12-.12 5.74-.1 6.27 3a82 82 0 0 1 .72 8.72s.16 2.71.35 6-1.08 6.31-2.86 6.63l-3.21.58a119.05 119.05 0 0 1-14.22 1.91c-2.24.13-7.45.54-8.71-1.47a5.78 5.78 0 0 1-.56-3.41q.21-5.24.41-10.45c.11-2.63-.27-6.45 1.48-8.71s5.49-2.31 8.33-2.42zm-21.34 39.2c.1-3 2-5.66 4.3-6l4.12-.62c4.54-.69 11.3-1.57 15-2l3.39-.35c1.87-.2 3.44 1.48 3.5 3.74l.12 4.09c.46 16.64 1.41 14.57-7.3 15.87a138.77 138.77 0 0 1-15.65 1.26l-4 .06c-2.21 0-3.92-2.36-3.83-5.33s.26-7.75.35-10.72zm20.28 78c10.55-1.74 10.14-2.23 9.79 11.59 0 0-.06 2.56-.14 5.73a6.28 6.28 0 0 1-5.65 6.1l-5.5.36c-6.06.39-12 .89-13.26 1.11-3.36.61-4-.94-4.65-11.08-.66-10.55.41-12.35 7.37-12.38a112.8 112.8 0 0 0 12.04-1.4zM10 437.51c-.07-2.36.76-4.56 1.87-4.91l2-.65c16.34-5.29 25.24-4.74 25.33 1.57A74.85 74.85 0 0 0 40 443c1 6.22.52 6.58-11.89 8.32-18.56 2.6-17.67 3.08-18-9.57-.02.02-.11-1.88-.11-4.24zm1.43 60.78C11.38 486 10.35 486.92 27 485c3-.33 10.47-2.43 12.75.43 1.52 1.91 1.47 6.06 1.68 8.37.41 4.3 1.85 14.85-3.06 17.25-2.15 1.06-5.23.8-7.55.95-3.85.25-7.71.49-11.55.86-1.77.17-4 .45-5.54-.65-3.51-2.48-2.33-10.34-2.33-13.92zm22.52 18.36h1c1.82 0 4.71-.55 5.52 1.25.55 1.2.21 3.54.24 4.85.06 3.48 0 7-.25 10.46-.06.8 0 5.19-1 5.53-.69.22-6.81.64-13.61.93l-6.18.27c-2.59.11-6.51.64-7.08-2.45-.73-4-.25-8.72-.37-12.83a8 8 0 0 1 .62-4.16c1.17-2.14 3.92-2.74 6.34-3a111.43 111.43 0 0 1 14.74-.85zM15 571.41a12.8 12.8 0 0 1 3.69-.33c6.39-.28 13.13-1.19 19.48-.63 3.15.28 3.56 2.72 3.48 5.72-.08 3.52-.17 7-.26 10.55-.07 2.78-.43 6.07-2.85 7.43a8.1 8.1 0 0 1-4.09.69c-5.87 0-11.74-.14-17.61-.11a5.43 5.43 0 0 1-3.12-.63c-1.37-1-1.52-2.91-1.53-4.59 0-3.44-.05-6.88-.08-10.32a12.18 12.18 0 0 1 1-6 3.53 3.53 0 0 1 1.89-1.78zm23.9-6.85a6.49 6.49 0 0 1-3.41.74l-16.42.29c-2.06 0-5.2-.05-5.82-2.38s0-5.89 0-8.29v-4.5c0-2.48.79-4.66 1.77-4.87l1.76-.37a114.74 114.74 0 0 1 13.49-1l5-.16c7.57-.23 5 13 4.91 17.34a4.71 4.71 0 0 1-.54 2.54 2.53 2.53 0 0 1-.7.66zM27.78 627.3c15.24-.62 14.81-.93 15 10.73.07 3.6 1.14 8.47-3.19 9.74a35.64 35.64 0 0 1-9.48 1.05h-7.64c-1.68 0-6.16.87-7.56 0-2-1.16-1.38-8.2-1.45-10.19C13.07 627.09 12 628 27.78 627.3zm-1.48-5.73-6.51.21c-3.59.11-6.51-1.85-6.51-4.39 0-3.54.15-7 .33-10.55.12-2.34.82-4.91 2.82-6.13a8.78 8.78 0 0 1 4.43-.89l11.49-.29c2.53-.07 5.64-.93 8 .62s1.65 4.58 1.59 7c-.07 2.76-.24 5.52-.57 8.26-.15 1.27-.14 3.78-1.1 4.78-.53.53-6.81 1.15-13.97 1.38zm19.6 92.18c.51-19.35 1.2-40.17 1.54-46.25.1-1.77.15-3.53.2-5.3.16-5.33.21-10.67.26-16q.09-11.45.09-22.9 0-14.43-.06-28.88-.06-17-.17-33.95-.12-19.07-.27-38.12-.16-20.69-.34-41.36l-.39-43.7-.42-45.12-.42-45.64q-.21-22.62-.4-45.24-.2-22-.36-43.93-.15-20.87-.28-41.71-.12-19.29-.2-38.58-.06-17.26-.08-34.53 0-14.79.06-29.58c0-7.91.1-15.81.22-23.71.08-5.65.18-11.29.4-16.93.07-1.89.17-3.76.28-5.64.08-1.56-.28-3.49 1.85-3.37 3 .16 5.55 4.45 7.62 6.23 2.77 2.39 6.78 8.42 6.79 11.25l1 8.79c.16 24.06.29 155.07.81 243.1.3 49.77.71 92.57.92 95.1C66 446 64.07 725.7 64.07 725.7c-.07 3.86 0 9-2.28 11.57l-4.1 4.57c-4.5 5-9.45 10.71-11 12.65l-1.4 1.75c-.77 1-1.28.74-1.13-.51l.27-2.26c.3-2.47.96-20.36 1.47-39.72zM20.78 400.07c4.21-.39 9.82-1.14 12.47-1.67 6.34-1.27 6.43-1.13 6.93 11.49.51 12.79 1.21 12-13 14.19-5.32.81-11.2 1.77-13.07 2.13-4.3.83-4.75-.49-4.78-13.83-.02-11.38-.18-11.23 11.45-12.31zm5.46 390.51c-13.59-.22-15.07-1.85-14.41-15.85 0 0 .09-2 .21-4.46s2.89-4.31 6.2-4.12l6 .34c14.38.81 12.65-.56 13.56 10.7.73 9 .66 9.45-2 11.43-2.02 1.55-4.38 2.03-9.56 1.96zM23.73 760l-6.09.35a5.43 5.43 0 0 1-5.94-5.55l.16-5.91s.07-2.64.16-5.9 1.07-6.19 2.2-6.54l2-.63c9.22-2.83 23.42-3 24.19-.24s-2.1 21.68-3.55 22.88c-.5.46-6.43 1.15-13.13 1.54zm-7.23-30c-3.59.79-4.8-2.8-4.8-14.22v-4.71c0-2.59.69-4.82 1.55-5l1.55-.28c7.4-1.34 23-2.76 24.49-2.24 1.33.45 1.66 2.81 1.66 11.62 0 13 .44 12.54-12.94 13.56-4.95.4-10.13.96-11.51 1.27zm23.8-32c-1.34 1.13-28.08 2.47-28.24 1.42-.06-.41-.19-4.71-.28-9.56 0 0 0-2-.08-4.41s.79-4.63 1.85-4.91l1.93-.49a119.25 119.25 0 0 1 15.28-1.65l5.71-.33c3.15-.18 5.62 1.84 5.52 4.51l-.2 4.83c-.21 5.31-.88 10.07-1.49 10.59zm-21-23.5c-6.64.91-7.14.52-7.14-5.53 0-2.79-.61-5.64-.41-8.4a6.65 6.65 0 0 1 2.25-4.78c1.53-1.22 3.61-1.42 5.57-1.57 6-.45 11.92-.68 17.85-1.06 2.93-.19 5.4.7 5.51 2l.2 2.35a59.48 59.48 0 0 1-.16 9.86s-.12 1.15-.28 2.58-2.25 2.71-4.68 2.88l-4.4.3c-4.86.34-11.29.95-14.32 1.36zm23.55 105.34c-.22-12.43.62-13.23 13.83-13.27 10.92 0 10.25-.89 11 14.18 0 0 .12 2.45.26 5.47s-.48 5.44-1.39 5.41H64.9c-16.77-.63-21.9-3.34-22.05-11.79zm42.26 11.85c-12 0-11.9.07-12.72-13.65-.66-11.19-1.53-10.47 12.85-10.77l5.26-.11a5.69 5.69 0 0 1 5.62 5.39l.37 5.49c.5 7.53.38 11.4-.38 12.31s-4.01 1.34-11 1.34zm29.46-1c-13.93 0-13.09.68-13.29-10.72-.24-13.54-1.44-12.06 10.31-12.64 13.2-.64 12.42-1.21 13.23 9.59.38 5.09 1 10.27 1.26 11.51.56 2.25.5 2.25-11.51 2.25zm15.82-10.34c-.18-1.39-.38-2.78-.56-4.17-.27-2-.76-4.34-.29-6.35.78-3.35 5.29-2.83 7.94-2.92 4.15-.14 9.66-.51 12.24-.83 6.07-.74 6.13-.61 6.63 13.74 0 0 .09 2.66.21 5.94a7.9 7.9 0 0 1-1.24 4.75c-1 1.27-2.44 1.14-3.94 1.22-4.68.24-9.38.32-14.07.23a7.19 7.19 0 0 1-4-.88c-1.54-1.06-2-3.09-2.21-5s-.46-3.82-.71-5.74zm30.22-2.7v-5.58c0-3.08 2.08-5.52 4.65-5.44l4.65.14 4.65.15c2.57.08 4.68 1.38 4.73 2.91l.07 2.76c.09 3 .49 8.3.89 11.68.2 1.72.86 4.84 0 6.48s-4 1.69-5.67 1.67l-8.09-.08a7 7 0 0 1-3.25-.55c-1.82-1-2.44-3.28-2.46-5.34-.04-2.96-.17-5.87-.17-8.81zm25.67 14.1c-1.18-1.91-2.78-18.09-2.13-21.54.74-4 4.35-5.14 13.66-4.48l2.26.17c1.25.09 2.45 2.82 2.68 6.11l.41 6c.45 6.55.58 12.55.28 13.32-.63 1.61-16.17 2.02-17.16.41zm35.06.58h-7.41a7.82 7.82 0 0 1-3.5-.56c-2.42-1.22-2.48-5.9-2.83-8.24-.49-3.3-.54-6.49-.72-9.79-.14-2.48-.08-5.15 2.32-6.57 1.73-1 3.86-1 5.88-1l13.22.22a6.33 6.33 0 0 1 3 .54c1.07.6 1.14 1.47 1.25 2.53s.47 2 .6 3.09l.68 5.47c.47 3.84 2.84 12.18-2.14 13.89a12.89 12.89 0 0 1-4.2.46zm42-2.39a2.81 2.81 0 0 1-1.47 1.4 9.06 9.06 0 0 1-2.94.36l-13.82.19c-1.61 0-3.45-.06-4.47-1.31-.86-1.06-.59-2.21-.61-3.45a22.82 22.82 0 0 0-.38-2.93c-.32-2.18-.58-4.36-.82-6.55-.32-2.84-1.28-6.57-.69-9.42s23.39-3.68 24.87-.92c1.67 3.12 1.25 8.11 1.27 11.52.02 2.35.59 8.28-.93 11.1zm17.77 1.12h-5.52a8.19 8.19 0 0 1-3.78-.6c-2.42-1.22-2.34-4.41-2.53-6.75-.23-2.75-.08-5.56-.09-8.32v-4.87c0-2.7 2.65-4.83 5.91-4.78l5.91.1 5.9.1a6.37 6.37 0 0 1 6.32 5.58l.41 5.48a80.66 80.66 0 0 1 .4 8.51c-.05 1.62.27 4.13-1.31 5a6.21 6.21 0 0 1-3 .51zm43.46-1.55a3.08 3.08 0 0 1-2.78 2c-5.2.58-10.63.28-15.86.42-1.53 0-3.57.14-4.95-.69-1.18-.71-1.24-2-1.51-3.26a50.84 50.84 0 0 1-1-11.34c0-2.05.19-4 .13-6.09-.05-1.61 0-3.38 1.66-4.19a7.56 7.56 0 0 1 3.2-.55l13.57-.32a7.24 7.24 0 0 1 4.52.88c2 1.43 2.33 4.38 2.47 7l.46 8.44c.11 2.26.95 5.59.1 7.69zm16.79 1.5-4.9.06c-2.25 0-4.8 1-6.27-1.34a8.81 8.81 0 0 1-1-4.37c-.16-3.37-.16-6.75-.14-10.12 0-2.69-.77-6 .48-8.54 2.14-4.31 10.34-3.13 14.25-3.14 13.72 0 12.59-1.3 13.07 14.87l.16 5.5c.09 3.05-.51 5.67-1.35 5.87l-1.5.36a91 91 0 0 1-12.79.84zm44-3.15a4.58 4.58 0 0 1-.55 1c-1 1.41-2.72 1.22-4.34 1.36a94.19 94.19 0 0 1-13.75.16c-1.31-.08-2.77-.26-3.6-1.28a5 5 0 0 1-.81-2.9q-.41-6.35-.8-12.68c-.15-2.29-1.42-6.49.89-8a8.37 8.37 0 0 1 4.6-.85l13.49.08c1.47 0 3.08.07 4.16 1.07s1.28 2.95 1.28 4.58v13.27a11.39 11.39 0 0 1-.58 4.18zm8.82 2a3.09 3.09 0 0 1-.74-.39c-1.51-1.06-1.63-3.21-1.6-5.05.06-3.8.11-7.6.17-11.4 0-1.62-.86-6.63.87-7.58 1.15-.63 3.59-.46 4.9-.58a85.48 85.48 0 0 1 9.86-.31 6.05 6.05 0 0 1 3.82 1c1.45 1.2 1.52 3.35 1.48 5.23l-.32 14.2c0 1.72.58 3.82-1.18 4.52-2.16.86-4.6.65-6.87.65h-7.74a7.81 7.81 0 0 1-2.66-.28zm23.54-15.35s0-2.14-.1-4.78 1.48-4.7 3.42-4.59l3.52.19c11.62.63 11.6.61 11.9 15.4 0 0 0 1.84.08 4.11a4.35 4.35 0 0 1-4.3 4.28l-4.38.17c-10.27.41-9.86 1.05-10.15-14.77zM51.43 759.36c-1.14-1.84 8.31-11.33 19.7-19.77 1.32-1 9.88-1.39 34.8-1.67 18.18-.2 497.83-6.6 500.06-6.85 8.17-.91 8.78.42 16.78 8 3 2.86 5.82 5.94 8.55 9.06 1.29 1.47 2.57 3 3.79 4.49a13.38 13.38 0 0 1 1.4 1.8c1.45 2.67-1.77 2.52-3.43 2.6-1.26.06-2.51.11-3.77.15-3.52.13-7 .22-10.57.29q-7.18.16-14.35.28-8.88.13-17.76.25-10.39.13-20.81.24l-23.52.22-25.86.2-27.85.19-29.5.17-30.77.15-31.7.13-32.27.12-32.49.1-32.34.08-31.86.07H88.41l-15.11-.06c-3.81 0-7.61 0-11.42-.08-2.46 0-4.92 0-7.38-.09a28.23 28.23 0 0 1-3.07-.07zm548.08-33.61c-.66 0-1.33.07-2 .1-2.49.09-5 .14-7.45.19q-6.08.13-12.14.22-8.17.13-16.34.24l-20.1.26-23.37.27-26.19.28-28.53.29-30.41.3-31.82.3-32.76.29-33.24.3-33.24.28-32.79.28-31.86.26-30.46.24-28.6.22-26.28.21-23.47.17-20.21.15-16.48.11-12.29.08h-4.42c-3.85 0-6.11-1.73-6.27-5.88-.06-1.67-.1-3.34-.13-5-.13-6.27-.15-12.54-.16-18.81q0-13 .08-25.94.09-15.63.25-31.26.18-17.37.38-34.75.21-18.23.43-36.45t.44-36.31q.21-17.19.39-34.37.17-15.31.28-30.62c.06-8.35-1.57-358.84-1.53-372.09q0-6 .07-12c0-4.51-.79-9.59 4.82-9.73l5.54-.12q8.46-.17 16.92-.29l23.86-.35 29.73-.41 34.57-.45 38.35-.48 41.1-.48 42.82-.56 43.42-.51 43-.49L435 73l39-.47 35.51-.4 30.91-.34 25.27-.28 18.57-.21 10.84-.11h2.42c3.86 0 8.34 3.17 8.37 7l.05 7.08c.2 28.1 4.14 621.64 4.45 627.45.67 12.46 1.08 11.97-10.88 13.03zm-156.65 62a6.11 6.11 0 0 1-.78-2c-1.17-4.82-3.47-11.7-.84-16.45 2.25-4.05 7.9-4.2 11.94-4.2 12.76 0 12.29-.47 12.9 12.9 0 0 .09 2.2.22 4.92s-.51 5.11-1.41 5.34l-1.63.41a43.46 43.46 0 0 1-12 .86c-1.94-.07-3.84-.35-5.77-.47a3.06 3.06 0 0 1-2.63-1.26zm38.79 1.64c-11 0-11.35-.45-11.35-13.72v-4.29c0-2.36 2.2-4.58 4.9-4.95l4.9-.67c2.12-.29 4.26-.52 6.39-.62 1.22-.06 3.65-.06 4.58.93.55.58.64 2 .79 2.74a65.63 65.63 0 0 1 .94 7.53 73.19 73.19 0 0 1 .26 7.7c0 1 .18 3.37-.68 4.1s-5.64 1.3-10.73 1.3zm16.2-14.39c0-1.05-.06-2.11-.06-3.16 0-2.94 1.47-6.2 4.82-6.34l4.65-.19c10.64-.44 10.39-.72 11.79 12.93a33.36 33.36 0 0 1 .28 6c-.11 1.44.55 3.17-1 4.12a5.88 5.88 0 0 1-3.17.6h-12.5c-1.34 0-2.88-.09-3.68-1.15a4.35 4.35 0 0 1-.61-2.47c-.12-3.44-.37-6.9-.52-10.34zm27.68 12.23c-.59-.5-1.33-5.71-1.65-11.58l-.29-5.34a4.73 4.73 0 0 1 4.93-5.14l5.23.2 5.23.2a6 6 0 0 1 5.68 5.3l.45 5.1c.73 8.25.63 10.46-.5 11.49-1.55 1.39-17.39 1.2-19.08-.25zm42.87 1a17.42 17.42 0 0 1-2.65.14h-9.21a6.88 6.88 0 0 1-3.63-.69c-3.25-2-2.6-8-2.59-11.16 0-2.28-.49-4.56-.34-6.88 0 0 .06-.9.13-2s2.2-2 4.75-2.15l4.63-.19 4.62-.19c2.56-.1 4.75.77 4.9 2l.27 2.15c.29 2.36.93 7.37 1.42 11.13.2 1.56 1.14 5 .38 6.45a3.44 3.44 0 0 1-2.68 1.41zm6.6-12.41c-1.48-10.66-1.94-10.14 9.39-10.56s11.14-.57 11.77 14c0 0 .08 1.94.19 4.33a4.47 4.47 0 0 1-4.44 4.5l-4.62.18c-10.78.41-10.5.73-12.29-12.45zm26.52.79c-1.54-12.29-2.28-11.41 9.64-11.46s11.84-.06 12.27 14.38l.12 4.24a4.42 4.42 0 0 1-4.4 4.39l-4.52.14c-11.5.39-11.63.24-13.15-11.69zm42.6 10.56a5.28 5.28 0 0 1-2.53.48l-7.9.16a5.91 5.91 0 0 1-3.41-.63 3.94 3.94 0 0 1-1.54-2.87c-.13-1.15.18-2.27.08-3.39s-.37-2.3-.45-3.47c-.16-2.52-.12-5.05-.06-7.57a4.62 4.62 0 0 1 .44-2.31c.81-1.38 2.69-1.56 4.28-1.59l7.72-.13c1.73 0 3.15-.46 4 1.25s1 4.32 1.11 6.33a56 56 0 0 1-.16 8.29c-.15 1.63 0 4.45-1.56 5.42zm21.35-421.88c-.59.18-1.2.33-1.82.46-6.15 1.34-14.12 2.28-20.47 1.4-2.72-.37-3.2-2.95-3.38-5-.44-5 .25-10.21.39-15.21a6.46 6.46 0 0 1 1.15-4.26c1.48-1.75 4.43-2.22 7.06-2.16 3.49.08 6.8.09 10.28-.13 2.29-.14 5.47-.61 7.7.08 4.17 1.34 3.37 23.53-.95 24.82zm3.69 13.78v5.73c0 13.37 0 13.32-10.44 14.18-4.14.35-9.4.83-11.69 1.08-5.79.63-7.71-8.32-4.94-22.9l.36-1.88c.29-1.52 2.38-1.75 3.75-1.77 2.33 0 4.72-.17 7.09-.25q5.82-.21 11.65.08c1.85.09 3.11-.25 3.72 1.35a12.71 12.71 0 0 1 .46 4.38zm-23.71-171.95 7.25.14c17.56.35 16.7-.24 16.24 11.37 0 0-.09 2.11-.19 4.73s-3.15 4.79-6.79 4.86l-6.6.12c-17.11.33-16.69.62-16.94-11.43 0 0 0-2.22-.11-5s3.14-4.91 7.14-4.79zm-5.64 88.1s.1-2.19.22-4.91 3-5.07 6.5-5.27l6.29-.37c17.22-1 16.29-1.64 16.29 11.15 0 12.64.73 12.08-14.46 11.1-16.17-1.05-15.32-.38-14.84-11.7zm29.12 22c.49 3.85-.12 9.11-.23 11.73a5.37 5.37 0 0 1-5.44 4.81l-5.23.09c-17 .27-18.69-.53-17.63-8.6.48-3.66.89-8.17.89-10v-1.68c0-.93 2.83-1.58 6.33-1.44l6.34.24c11.44.4 14.4.41 14.97 4.84zm-16.84-38.64-5.48.29c-3 .16-5.7-1.37-6-3.43l-.47-3.71a54.49 54.49 0 0 1-.47-10.45s.11-.68.24-1.51 3.39-1.51 7.29-1.51h14.13c3.9 0 7.16.68 7.29 1.51l.23 1.51c.91 6-1.19 15.39-3.58 16.07a113.07 113.07 0 0 1-13.18 1.22zm-13.39-36c0-1.32 0-2.64.1-4 0-1.14 0-2.63 1.09-3.5s3.2-.89 4.69-.9c3.41 0 6.83.23 10.23.38l7 .3c3.86.17 7.05 2 7.11 4l.11 3.67c.08 2.56.66 8.8-2.8 10.37a7.51 7.51 0 0 1-3.08.44l-18.07.14c-1.75 0-3.65 0-5-.92-1.71-1.13-1.91-3.19-1.69-5a49.34 49.34 0 0 0 .31-5.04zm7.11 290.67c-1.28-.7-1.11-1.69-1.14-3 0-1.81-.41-3.64-.58-5.44-.35-3.7-.6-7.4-.8-11.11-.38-6.76 7.27-5.49 12.31-5.64a60.45 60.45 0 0 1 7.37-.1c2.54.23 5.25-.45 6.62 2.23a9.5 9.5 0 0 1 .69 4.36v12.34c0 2-.15 4.35-1.86 5.59a7.57 7.57 0 0 1-4.29 1l-13.75.35c-1.38-.1-3.31.04-4.57-.64zm16.45 6.06c8.19-.09 8.34.2 7.69 15.61 0 0-.11 2.69-.25 6s-.89 6.12-1.67 6.25l-1.42.25c-3.84.67-18.16-.32-19.69-1.36-1.3-.88-2.18-21.61-1-24.63.63-1.86 1.99-2.03 16.34-2.18zm5.13-337.81h-1.73a35.54 35.54 0 0 0-5 .31 97.13 97.13 0 0 1-11-.25l-4.73-.28c-2.61-.16-4.94-1.52-5.2-3.05l-.47-2.76c-1.86-10.89-1.44-11.55 7.43-11.64 4.23 0 10.35-.19 13.61-.34s6.58-.22 7.4-.18c1.06.07 1.48 2.62 1.48 9.14v4.53c-.06 2.44-.84 4.46-1.79 4.46zm-15-23.12c-3.08 0-6.22.25-9.25.16-3.19-.09-4.2-2.1-4.42-4.58-.3-3.47-.3-7-.41-10.46-.06-1.76-.14-6 1.94-6.92l1.91-.87c3.57-1.63 8.58-1.72 12.49-2.05 2.57-.22 5.16-.38 7.74-.42a28.38 28.38 0 0 1 3.06 0c2.46.24 2.89 2.18 3 4l.42 8.28c.52 9.9.38 10.86-1.64 11.82-1.23.51-7.89.98-14.82.98zM641.85 410.2v-1.95c0-1.08 2.41-2 5.32-2.16l5.27-.22c14.56-.6 15.58-.6 16.36.1 2.41 2.19 1.58 22.55-1 24-2.85 1.63-14.07 2.5-22 1.7l-2.48-.25c-1.37-.14-2.39-2.16-2.27-4.52l.21-4.28c.29-4.62.54-10.27.59-12.42zm27.9 29.1c.8 1.35.36 4.15.41 5.64a76.68 76.68 0 0 1-.09 10.17 58.44 58.44 0 0 1-.64 6.49 5.83 5.83 0 0 1-2.26 3.63c-1.61 1.12-3.79 1.2-5.82 1.23-5.36.09-11-.24-16.28.32a2.52 2.52 0 0 1-2.88-1.66l-.35-1.92c-1.27-7-.83-23.12.66-24.25 1.22-.92 3.43-1 4.92-1.15a81.16 81.16 0 0 1 8.4-.39c2.83 0 5.67.08 8.48.34 1.54.15 4.31 0 5.33 1.37a1.88 1.88 0 0 1 .12.18zm-25.59 33.77c.94-.7 2.79-.71 3.92-.84 2.46-.29 4.94-.44 7.42-.55s5.08-.16 7.62-.12c1.54 0 3.21-.16 4.63.54 1.63.81 1.73 2.07 2 3.67a89.57 89.57 0 0 1 .27 10.62c.07 4.35.91 9.15-.49 13.39-1.06 3.22-6.82 2.44-9.73 2.64-3.73.26-9.42 1.22-12.88-.3-1.67-.74-1.79-1.24-2.12-2.89a55.67 55.67 0 0 1-.62-4c-.4-3.12-.64-6.26-.78-9.39a83.89 83.89 0 0 1 0-8.54c-.04-.94-.21-3.51.76-4.23zm27.49 309c-.1 2.91-2.19 5.26-4.66 5.26h-4.48c-6.18 0-9.09-.44-9.39-1.42-4.55-14.74-3.17-20.35 5.16-21 14.54-1.18 14-1.61 13.56 11.94 0-.08-.08 2.27-.19 5.15zm-1.19-24.37a2.46 2.46 0 0 1-1.15.64c-1.82.51-4.23.25-6.1.32-3.83.13-8 .55-11.78 0s-4.11-1.6-4.14-12.92c0-12.1-.93-11.29 13.5-12l5.75-.29c3.18-.17 5.63 2.47 5.47 5.89l-.3 6.19q-.18 3.88-.42 7.76c-.09 1.43.19 3.31-.83 4.36zm-11.79-29.9c-13 .76-12.25 1.34-12.53-9.88-.24-9.27-2-8.57 23-9.14h1.39c.76 0 1.4 1.83 1.43 4.12l.04 4.1c.06 4.94-.35 8.67-1 9.21s-6.16 1.23-12.33 1.59zm2.22-25.51-8.16.3a9.75 9.75 0 0 1-5-.7c-2.89-1.53-2.09-5.69-2.3-8.38a76.12 76.12 0 0 1 .17-7.7 6.12 6.12 0 0 1 5.17-5.82c5.72-.66 11.5-.21 17.19-.83 2-.21 2.8-.14 3.31 2 .55 2.26.37 4.83.53 7.15.21 3.13 1.59 9.41-.32 12.11-2.26 3.19-7.29 1.75-10.59 1.87zm9.89-29.29a2.67 2.67 0 0 1-.38.37c-1.39 1.12-4 .56-5.78.68q-5.4.39-10.82.52c-2.75.06-6 .58-7.08-2.51-.81-2.36-.41-5-.47-7.49-.07-3.3-1.55-9.51 2-11.5a10.5 10.5 0 0 1 5-.93l13.1-.33c2.6-.06 4.26.41 4.64 3.1.32 2.26.19 4.53.36 6.8s.3 4.57.31 6.86c-.04 1.33.06 3.27-.88 4.43zm-25.22-73.67.11-1.91c.06-1 2.8-1.77 6.13-1.6l6 .29c14.49.72 13.19-.23 13.67 10 .45 9.74.33 9.85-10.84 11-3.75.38-7.93.9-9.3 1.15-4.97.95-6.59-4.33-5.77-18.93zm1.79 47.83c-2-.39-2.18-1.61-1.87-12.12l.18-5.84a6.94 6.94 0 0 1 5.73-6.57l5.55-.73c14.85-1.93 14.63-2.1 14.67 11.41 0 10.63-.08 11.11-2.9 12.2-3.17 1.23-17.71 2.36-21.36 1.65zm23.95-60.57a5 5 0 0 1-5 4.55l-4.81.07c-16.42.22-16.61.08-16-12.22l.18-3.51c.1-1.94 2.77-3.54 6-3.57l5.8-.06c14.89-.16 14.4-.52 14 10.26 0 0-.08 2.01-.17 4.48zm-3-441.28c-.17 1.29-2.66 2.47-5.58 2.63l-5.28.3c-5.81.32-12.14.91-14.07 1.31-4.71 1-5.15 0-5-10.72.11-11.2-.21-10.94 13.13-11 17.12-.09 18.86 1.46 17.12 15.13zm-2-23.79c-1 .6-22.84 1.28-25 .77s-2.51-2.4-2.84-14.49c0 0-.06-2.16-.13-4.84s1.11-5 2.63-5.17l2.76-.33c12.39-1.49 22.7-1.34 23.63.34 1 1.85.09 23.04-1.04 23.72zm1.13-46.25c-.81 9.14-2.54 12.45-6.62 12.63-1 0-2.82.22-4 .37-19.39 2.58-18.37 3.23-18.5-11.71-.09-11.22-.35-10.92 9.16-11a89.36 89.36 0 0 0 12.48-1c7.73-1.33 8.46-.3 7.49 10.71zm-9.36-17.74c-21.13 3-20.86 3-20.86-6.52 0-8.53-.34-8.23 10.62-9.57l12.59-1.57c5.65-.72 7.34.85 7.34 6.8.01 8.18-1.33 9.68-9.68 10.86zm-22.93-45.69A5.13 5.13 0 0 1 637.26 8a9.78 9.78 0 0 1 3.84-1.18 51.14 51.14 0 0 1 14-.14c3.64.48 7.85.63 9.67 4.36 1.11 2.27 1.16 4.88 1.19 7.4 0 3.51 1.95 13-2.29 14.62-1.71.68-4.15.49-6 .64-3 .24-6 .39-9 .5-14.57.5-13.45 1.83-13.45-15.81a48.16 48.16 0 0 1-.08-6.55zm5.68 730.32c.85 6.87.16 6.71-8.14-1.85-3.8-3.92-8.94-8.87-11.43-11l-2.25-1.93c-1.25-1.07-3.48-6.28-3.49-10.14l-4.58-637.51c-.07-3.87.47-7.85 1.19-8.88l1.3-1.89a59.58 59.58 0 0 1 7-8 31 31 0 0 1 3.58-3.23c1.77-1.29 4.85-4.43 6.49-1.08a7.27 7.27 0 0 1 .51 3c.22 7.22 9 675.9 9.82 682.51zM630.18 22.9v7.37c0 3.87-1.86 7.26-4.15 7.58l-4.15.58c-17.77 2.48-16.81 3.42-17.59-17.29l-.29-7.93c-.15-3.87 2.48-6.87 5.87-6.71l6.14.28c15.42.72 14.17-.7 14.17 16.12zM598.34 18c.06 3.87.09 10.13.11 14v.63c0 3.86-2.49 7.06-5.61 7.14l-5.67.14c-13.73.35-12.73 1.78-12.77-18.38v-8.08c0-3.87 2.39-7.07 5.36-7.15l5.38-.14c11.71-.27 12.98-.78 13.2 11.84zM553.45 6.09h9.44c2.61 0 4.85 1 5 2.14l.29 2.13c.49 3.54 1 24.83.73 28.44-.06.59-3.32 1.14-7.6 1.26-8.85.27-9.26-.14-10.15-10-.32-3.5-1-9.08-1.51-12.4a80.43 80.43 0 0 1-.94-8.8V7.47c.02-.76 2.14-1.38 4.74-1.38zm-23.28.07 8.67.1c1.51 0 2.65 0 3.41 1.34a13.61 13.61 0 0 1 1.08 2.85 51.14 51.14 0 0 1 1.67 7.94 103 103 0 0 1 1 13.92v3.65c0 .75.24 2.46-.13 3.11-.69 1.22-4.12.84-5.44.86l-12.57.19a8.5 8.5 0 0 1-2.76-.26c-2.11-.69-3.22-3.64-3.63-5.65a107 107 0 0 1-1.24-11.3c-.22-2.28-.45-4.56-.62-6.84-.21-2.8-1.19-8.06 2.15-9.48 1.56-.66 3.54-.5 5.2-.48zm-17.41 2.13c1.25 1.43 3.41 27.8 2.5 30.52-.45 1.34-1.66 1.88-3.95 1.73-21.41-1.39-19.55.39-20.5-19.52l-.29-6.12c-.17-3.38 2.11-6.3 5.08-6.54l5.4-.42c7-.54 11.09-.42 11.76.35zM485.61 27.4s.06 2.94.14 6.56-2.15 6.57-5 6.57h-5.13c-12.1 0-10.95 1.64-11.81-16.8 0 0-.15-3.33-.35-7.44s1.57-7.65 3.93-7.9l4.28-.45c13.72-1.47 13.48-1.8 13.94 19.46zM447.43 7.76c9.34.39 10.48-.54 10.83 10.08.16 5 .26 12 .34 15.62s-2.49 6.61-5.73 6.72l-5.86.18c-13.79.43-12.71 1.79-13.54-17 0 0-.15-3.36-.33-7.49s.21-7.61.87-7.75l1.21-.26a86.41 86.41 0 0 1 12.21-.1zM406.35 8c1.14-.76 3.3-.46 4.51-.52a55.72 55.72 0 0 1 8.57 0c3.57.37 6.47 1.7 7.68 5.43 1.15 3.53 1.13 7.53 1.28 11.21.68 15.84.89 15.51-10.14 15.77-2.16 0-4.32.15-6.47.35-1.36.12-2.89.63-4.17-.08-1.66-.93-2.09-3.21-2.38-5-.71-4.33-.28-8.69-.28-13 0-2.83 0-5.66.12-8.48.06-1.5-.14-4.2 1-5.41a1.94 1.94 0 0 1 .28-.27zm-25 7.7c0-4.27 1.95-7.8 4.29-7.87l4.22-.13c10.36-.32 10-1 10 17.29 0 14.47 0 14.55-2.35 14.55-1.3 0-5 .31-8.29.68-8.13.94-8.08 1-7.94-16.78zm-27.84-3.05c-.05-1.64.23-3.18 1.6-4.06a7 7 0 0 1 3.68-.81l12.66-.43a2.85 2.85 0 0 1 1.95.4 3.23 3.23 0 0 1 .83 2.51q.48 12.51 1 25c.16 4-1.31 5.28-5.11 5.28h-10.37a5.53 5.53 0 0 1-3.58-.83c-2.37-1.91-1.7-8-1.85-10.9-.2-4-.38-7.92-.41-11.88-.01-1.22-.32-2.79-.36-4.27zM348.47 26c-.13 2.59-.33 5-.33 7a7.2 7.2 0 0 1-7 7.18l-8.14.22-8.19.16c-3.86.07-7.14-2-7.32-4.69l-.37-4.87c-.35-5.12-.69-10.27-.64-15.41 0-1.55.15-3.1.21-4.65.11-3 2.67-3.26 5.21-3.31l14.3-.27c2.52-.05 5.19-.05 7.34 1.3 5.13 3.26 5.26 10.79 4.93 17.34zM304.32 6.65c3.6 0 6.68.9 6.88 2l.37 1.95a78.89 78.89 0 0 1 .53 9c.08 4.29 0 10.65-.07 14.2a7 7 0 0 1-7 6.58l-6.92.16c-7.6.17-13.88-.08-14-.56s-.24-3.64-.38-7-.5-10.24-.83-15.25c-.75-11.44-1.21-11.1 14.88-11zm-50.69 7a10.33 10.33 0 0 1 .52-3.92c.76-1.73 3-2.39 4.74-2.45l4.95-.18c6.8-.25 10.34 0 11.33 1 1.41 1.32 3.85 30.34 2.66 31.63a.92.92 0 0 1-.3.18c-1.52.69-3.66.55-5.28.62-2.81.11-5.63.1-8.44 0a73.06 73.06 0 0 1-7.54-.51 5.38 5.38 0 0 1-2.25-.48c-1.37-1-1-4.43-1-5.94l.63-16.29c.08-1.07-.01-2.38-.02-3.68zm-6 9.9c-.25 8.24-.73 15.44-1.06 16s-5.78 1-12.11 1h-5.76a5.55 5.55 0 0 1-5.8-5.19l-.05-5.19c-.24-25.8-1.77-22.53 10.74-23 15.41-.49 14.58-1.45 14.03 16.36zm-30.2 1.22.36 8.09c.18 4.06-.88 7.5-2.36 7.69l-2.69.34a109.78 109.78 0 0 1-11.55.7h-3.09a3.44 3.44 0 0 1-3.38-3l-.28-3c-.31-3.35-.86-11.27-1.21-17.6 0 0-.15-2.57-.32-5.75a5 5 0 0 1 5.27-5.51l5.6.24c13.78.5 12.84-.73 13.64 17.78zm-51-17.2c.79-.86 2.07-1.2 3.86-1.28 2.25-.11 4.51-.1 6.76 0s4.45.15 6.66.4c.85.09 2.7 0 3.36.75C188.64 9 190.2 37 188.92 40c-1.21 2.8-20.26 4.11-21.79 1.5-.82-1.41-.6-4-.73-5.61-.45-5.84-.68-11.7-.82-17.56-.06-2.55-.11-5.1-.07-7.64a4.53 4.53 0 0 1 .95-3.14zm-22.33-.8 5.14-.11c3-.06 6.36-.79 9.27.27 2.29.83 2.09 2.84 2.27 4.95.46 5.5.56 11 .58 16.54 0 3 0 6-.17 9-.05 1.07.17 3.38-.58 4.29-1.27 1.56-6.85 1.84-16.37.83-4.92-.53-5.28-1.93-5.28-20.77V14c.04-4 2.33-7.2 5.17-7.25zm-9.89 20.49c-.06 3.48-.16 7-.42 10.43-.09 1.09.07 2.49-.61 3.34-.86 1.06-2.83 1.29-4.08 1.31-3.61 0-7.15-.23-10.75-.46-2.5-.16-4.69-3.54-4.88-7.56L113 25c-1-20-1.5-19.11 10.33-18.68 11.48.45 11.29.08 10.91 20.92zM88.18 10.09c1.77-4.8 17.58-4.54 18.61.3.75 3.55 1.15 29.9.46 30.61-.85.88-14.77 1.28-16.84.49s-3.97-26.67-2.23-31.4zm531.19 36.39c6.47.16 6.21 1.41-2.14 10.33l-3.46 3.69c-1.91 2-6.59 3.69-10.46 3.69 0 0-527.83 6.74-531.72 7l-3.53.27c-2 .15-5.74-2-8.46-4.71l-6.36-6.45c-13.09-13.27-13.08-13.24-5.5-12.1 3.18.52 557.06-2.08 571.63-1.72zM83.06 18.11c0 3.87-.15 10.14-.22 14v2c-.07 3.86-2 7.11-4.22 7.25l-4.08.25c-13.15.81-12.4 2-12.43-19.22v-7.73c0-3.86 1.17-7.14 2.63-7.32L67.35 7c14.02-1.66 15.73-2 15.71 11.11zM36.9 9.66c.17-1.3 2.34-2.29 4.83-2.21l4.51.15 4.52.14c2.49.08 4.58 1 4.66 2.15l.14 2c.17 2.22.59 9.57.95 16.34 0 0 .15 2.76.33 6.16.09 1.75.2 4.76-1.09 6.18 0 2-11.39 1.14-12.5 1.13-2 0-4.56.09-5.93-1.58-1.64-2-1.09-5.66-1.22-8.05-.13-2.24-.18-4.48-.19-6.72A97.62 97.62 0 0 1 36.57 12s.15-1 .33-2.34zM19.62 8.09c12.8-.76 12.3-1.39 12.27 15.25 0 16.23.26 15.64-8.11 17.08a82.57 82.57 0 0 1-11.31 1.15h-2.35c-1.29 0-2.34-3-2.34-6.72v-6.71c0-19.54-.13-19.33 11.84-20.05zm2.71 37.73c15.72-2.08 15.72-2.07 16 12 0 0 0 2.34.1 5.22s-1.7 5.48-3.93 5.8l-4 .57C11.23 72.1 5.63 71 6.28 64.69c1.87-18.14.78-16.84 16.05-18.87zM7.17 81c.09-2.62 3.46-4.9 7.51-5.09l7.32-.35c17.31-.82 16-1.6 16.87 9.86 0 0 .16 2 .36 4.58a4.75 4.75 0 0 1-3.9 5.14l-4.25.57c-13 1.71-23.34 2-23.94.65-.25-.63-.33-5.36-.14-10.62 0 0 .07-2.13.17-4.74zM7 113.09c.22-9.8.13-9.71 11.15-10.68 22-1.93 21.14-2.38 21.14 10.64 0 8.42-.09 8.47-15.27 9.43-5.61.35-11.24.84-12.51 1.08-3.75.71-4.74-1.56-4.51-10.47zm1 17.35c.66-1.06 9.38-2.16 23.52-3 7-.4 7.56.23 7 8.41a79.06 79.06 0 0 0 .35 10.82c.88 8.41 1.59 7.92-13.51 9.3-16.82 1.53-17.36 1.52-18-.58-.69-2.48-.16-23.62.64-24.95zm.1 38.71c.07-3 1.3-5.55 2.72-5.73l2.59-.31c2.84-.35 9.63-.81 15.08-1l5-.19c2.73-.1 4.95 2.4 4.95 5.59v11.55c0 3.19-1.12 5.94-2.5 6.14l-2.5.35c-23.77 3.4-25.8 2.52-25.45-11 .01.02.07-2.41.15-5.4zm-.36 38.78c0-15-.7-14.33 15.36-15.75 17-1.51 16-2.31 15.7 12.35s-.05 14.32-13.47 15.93c-18.61 2.24-17.55 2.99-17.55-12.53zm28.47 17.37a2.13 2.13 0 0 1 .33.11c2.48 1 1.4 8.34 1.4 10.59v6.21c0 3.44-1 6.36-2.25 6.53l-2.26.31c-2.48.34-8.81.92-14.07 1.29l-4.79.33c-2.64.19-4.78-1.33-4.79-3.38v-3.72c0-3.06-.18-6.1-.35-9.15-.14-2.5-.47-5.4 1.76-7.13 1.55-1.2 3.65-1.33 5.61-1.42l17.14-.72a6.89 6.89 0 0 1 2.27.15z" fill="#f87318" data-color="1"/>
        <path d="M290.71 371a9.06 9.06 0 0 0-7.78-1.33 12.5 12.5 0 0 0-6.67 5.11 14.55 14.55 0 0 0-2.11 5 3.39 3.39 0 0 0-.75 1.88 43.56 43.56 0 0 0 .11 9.55c.4 3.25.82 7.07 3.82 8.89 2.55 1.56 5.65.78 8-.71a22.08 22.08 0 0 0 5.9-6.05c3.25-4.48 5.6-10.27 3.86-15.9a12.52 12.52 0 0 0-4.38-6.44zm-8.92 7.14c-.15 0 .17-.09 0 0zm-.09.34a3.07 3.07 0 0 1 .17-.31l.28.08.11.06.14.09.1.09a5.71 5.71 0 0 0-1 .58 1.36 1.36 0 0 1 0-.17c.09-.1.19-.36.2-.41zm8.47 2a1.38 1.38 0 0 1 0 .14.5.5 0 0 1 0-.21zm-2.28-4.48.22.21.42.44.08.1a5.28 5.28 0 0 0-.71.19 10 10 0 0 0-.74-1.42l.35.2c.11.05.26.15.38.28z" fill="#f87318" data-color="1"/>
        <path d="M401.26 387.9c-.14 3-.12 6.23 1.78 8.66a5.73 5.73 0 0 0 3.78 2.09 29.31 29.31 0 0 0 1.17 2.93 2.72 2.72 0 0 0 3.77 1 20.28 20.28 0 0 0 8.38-12.19c1.19-5 .93-12.29-3.68-15.39a7.87 7.87 0 0 0-1.43-.7 13.78 13.78 0 0 0-2-2.5 6 6 0 0 0-4.93-1.92 5.58 5.58 0 0 0-3.92 2.94 28.92 28.92 0 0 0-1.83 4.14 21.16 21.16 0 0 0-1.23 4.3 15.83 15.83 0 0 0 .12 6.36 2.11 2.11 0 0 1 .02.28zm9.44-4.73a3 3 0 0 0-.19-.65 2.76 2.76 0 0 0 .12-.28l.14.15c.17.18.32.38.48.57l.1.1.07.11c.07.11.13.23.2.35a5.28 5.28 0 0 0-.92-.35z" fill="#f87318" data-color="1"/>
        <path d="M552.91 279.92c-12.46-14.56-30.21-22.92-48.2-27.06a150.31 150.31 0 0 0-18.31-2.92c-17.52-5.49-36.13-8.69-54.13-4.33a65 65 0 0 0-7.46 2.31 6.54 6.54 0 0 0-2 1.85c-9-3.42-18.63-5-28.16-5.77a294.45 294.45 0 0 0-39.41-.48c-15.89-.33-31.78.25-47.51 2.82a164.29 164.29 0 0 0-26.29 6.54c-18.22 2.37-37 2.07-55.44 2.84-17.45.73-35 2.49-51.64 8.28-14.53 5.05-28.54 12.93-39.06 24.75a72.06 72.06 0 0 0-13.22 21.71 98.66 98.66 0 0 0-6 27.9 150 150 0 0 0-.06 22.93.56.56 0 0 0 0 .08 2.88 2.88 0 0 0 .31 3.31 143.84 143.84 0 0 0 5.18 27 122.12 122.12 0 0 0 10.09 24.41 104.71 104.71 0 0 0 6.89 10.89c2.6 3.58 5.33 7.36 8.69 10.2a16.14 16.14 0 0 0 6.11 3.47 13.19 13.19 0 0 0 6.72 0c4.45-1.14 8.1-4.32 10.7-8.16s4.11-8.4 5.52-12.83c1.52-4.77 2.95-9.58 4.33-14.4 5.5-19.27 10.22-38.81 17-57.66a204 204 0 0 1 8.63-20.44 176.47 176.47 0 0 0-8.06 40c-1.84 20.45-.77 41.05 1.62 61.4a472.49 472.49 0 0 0 13.17 68.36 466.84 466.84 0 0 0 23.1 65.4c4.39 10 9.18 19.81 15.85 28.37a71.26 71.26 0 0 0 22.95 19c19.33 10.22 41.29 12.15 62.62 10.91 11.56-.67 23.09-2.09 34.57-3.6a200.25 200.25 0 0 0 30.1-5.83 89 89 0 0 0 27.36-12.87 83.07 83.07 0 0 0 19.44-20.22c10.87-15.72 17.15-34.51 21.86-53.1a524.12 524.12 0 0 0 12.18-66c1.15-9.51 1.93-19.07 2.46-28.65.1 2.3.21 4.6.41 6.88.9 10 3.55 20.41 11.46 26.84a19.92 19.92 0 0 0 12.7 4.85 19.09 19.09 0 0 0 12.37-5.27c7.46-6.69 9.71-17 11.84-26.54a140.25 140.25 0 0 1 8.94-26.62c3.83-8.59 8.17-16.9 12.31-25.32 8.15-16.59 15.73-34.16 16.11-53.14a78.77 78.77 0 0 0-18.64-52.09zm-9.72 52.28c-.34-.93-.57-1.91-.88-2.85-.08-1.21-.12-2.42-.21-3.62.59 2.38 1.1 4.78 1.55 7.19zm-10.67-38.83v-.15zm-3.4-6.63a.76.76 0 0 0-.16-.06l-.06-.38c.1.14.15.29.22.44zm-1 32.23a98.84 98.84 0 0 1-2.33-10.47c-.14-.84-.26-1.67-.38-2.51-.08-.59 0-.2 0-.07 0-.24 0-.47-.08-.7-.06-.51-.11-1-.16-1.54-.13-1.44-.2-2.88-.25-4.32.11-.36.24-.7.36-1.06.71 4.5 1.4 9 2.16 13.5s1.55 8.69 2.49 13c-.66-1.93-1.27-3.87-1.81-5.8zm19.27-15.58c.51 1.53 1 3.06 1.43 4.61-.36-.92-.74-1.84-1.12-2.75-.11-.62-.21-1.25-.31-1.86zm-13.25-18.84c-.93-1.7-1.79-3.44-2.79-5.12-.14-.23-.27-.48-.41-.71a1.21 1.21 0 0 0-.09-.16.88.88 0 0 1-.05-.15l.21-.07h.62l.27.2c.17.17.33.35.49.53s.22.28.25.33l.25.41c.23.43.43.87.64 1.31v.09c.07.19.14.38.22.57l.6 1.66c.1.3.18.61.28.91a2 2 0 0 0-.49.2zm14.58 68.87s.01-.02 0 0zm0 0-.07.07a.28.28 0 0 1 .08-.08zm-.2-2.36c.13.38.22.76.32 1.15v.61a1.41 1.41 0 0 1 0 .2 2.27 2.27 0 0 1-.08.3c.09-.54 0-.18-.06.06a.52.52 0 0 1-.1.11c-.19.1-.67.23-.09.08l-.41.12h-.07a10.44 10.44 0 0 1-1.12 0h-.05c-.26-.05-.51-.09-.77-.16-.49-.12-1-.3-1.44-.46-.24-.33-.45-.68-.69-1 0-.1.12-.15.16-.25.12-.34.15-.68.24-1a2.76 2.76 0 0 0 2.85.2 5.91 5.91 0 0 0 1.33 0zm5.35-1.44a16.69 16.69 0 0 0-1.09-2.61c0-.12.13-.22.17-.34.34-1.33.52-2.69.76-4a2.17 2.17 0 0 0 .36 0h.07c0 .24 0 .48.07.71a3.6 3.6 0 0 0 .43 1.37c-.26 1.62-.5 3.25-.8 4.9zm-24.15-81.27c.62.35 1.23.73 1.84 1.09h-.29c-.55-.34-1.05-.73-1.58-1.06zm-1.32-.78.14.08zm-77.4 3.09v.11l-.24-.3zm-7.78-16.28.48.65-.31-.12-.92-.53zm-7.68 1.71c-.63-.61-1.29-1.18-1.92-1.78h2.16a3.21 3.21 0 0 0-.29 1.78zm-171.7 4.13-.17-.05h.31zm-120.19 54.54c-.2.56-.41 1.11-.61 1.66s-.56 1.44-.67 1.71c-.31.79-.9 2.17-1.34 3.18a3.78 3.78 0 0 0-.17.35c1.29-4 2.48-8.09 3.38-12.24v-.19l3.12-10.78.19-.67c0 1-.08 1.92-.14 2.88a83.35 83.35 0 0 1-3.76 14.1zm-20.06 37.64c.1-2.07.26-4.13.5-6.18v-.14h.15a2.63 2.63 0 0 0 1.93 2.4 2.27 2.27 0 0 0 .52 0c0 .13 0 .27-.08.4-1.09 2-2.14 4.06-3.18 6.11.07-.85.12-1.73.16-2.59zm16.67-60.72q1.91-2 3.94-3.92c.43-.4.88-.78 1.32-1.17a28.59 28.59 0 0 0-2.21 6 2.7 2.7 0 0 0-.69.24 3.74 3.74 0 0 0-1.32.72c-.11.08-.18.2-.29.29a2.69 2.69 0 0 0-2.34-.32c.54-.6 1.04-1.25 1.59-1.84zm39.87 94.19c-2.6 9.52-5.18 19-8.08 28.46-1.36 4.42-2.58 8.75-4.58 12.59a18 18 0 0 1-3.43 4.86c-.35.35-.72.69-1.11 1l-.11.09-.67.48c-.39.25-.78.49-1.18.72l-.73.37-.15.08-.18.06c-.42.15-.84.3-1.28.42-.25.07-.51.11-.77.18l-.16.05h-.16a11.47 11.47 0 0 1-1.31 0h-.68c-.15 0-.29-.05-.43-.09a12.85 12.85 0 0 1-1.34-.4.71.71 0 0 0-.19-.05.78.78 0 0 0-.17-.11l-.5-.26a13.76 13.76 0 0 1-1.31-.83 7.79 7.79 0 0 1-1-.81 41.23 41.23 0 0 1-4.24-4.61c-.68-.83-1.35-1.67-2-2.52-.28-.37-.57-.74-.84-1.12l-.13-.17-.69-.95a104.9 104.9 0 0 1-6.71-10.68c-1-1.89-2-3.82-2.93-5.77-.42-.89-.82-1.79-1.22-2.69-.22-.49-.43-1-.64-1.49-.1-.22-.19-.45-.29-.68l-.3-.72a129.68 129.68 0 0 1-7.09-24.52 137 137 0 0 1-1.89-14.22 12.88 12.88 0 0 0 .91-2.4 3.12 3.12 0 0 0 .25.35 2.68 2.68 0 0 0 3.35.45 63.63 63.63 0 0 0 17.28-21.84 93.88 93.88 0 0 0 8.28-27.05c.55-3.54.89-7.1 1.13-10.68a61.71 61.71 0 0 0 .7-15.65c-.13-1.43-1.16-3.05-2.76-2.89-.31 0-.56.14-.84.2a94.6 94.6 0 0 1 17.47-10.18l.15-.07.15-.06.48-.21 1.21-.52c1-.4 1.95-.79 2.94-1.17q2.58-1 5.21-1.85c3.67-1.22 7.4-2.26 11.16-3.13s7.34-1.56 11-2.12l1.1-.16.64-.08.85-.12c1.3-.17 2.6-.32 3.9-.46 2.37-.27 4.75-.49 7.13-.68 12.28-1 24.59-1.11 36.88-1.47a40.06 40.06 0 0 0-5.66 2.18c-6.53 3.09-12.24 7.79-17.67 12.61a195.25 195.25 0 0 0-27.47 30.21 207.81 207.81 0 0 0-20.86 35 214.81 214.81 0 0 0-10.32 26.46 10.49 10.49 0 0 0-.21-1.85c.54-3.43.42-7.32-2.78-9.3a2.7 2.7 0 0 0-3.34.45 49.32 49.32 0 0 0-8.54 13.49c-4.65 7.65-8.45 16-8.09 25.26a28.11 28.11 0 0 0 2.12 9.68 2.69 2.69 0 0 0 2.38 1.43 2.83 2.83 0 0 0 2.38-1.43 104.8 104.8 0 0 0 6.8-12.12 30.23 30.23 0 0 0 3.84-4.6 209.08 209.08 0 0 0-4.16 32.69c-.08 1.73-.13 3.46-.17 5.18a2.76 2.76 0 1 0 5.52 0 201.41 201.41 0 0 1 1.43-20.23c.05-.43.1-.85.16-1.28-.07.53.07-.56.09-.66.11-.86.23-1.71.36-2.56.25-1.71.52-3.41.82-5.11.57-3.3 1.23-6.59 2-9.86q2.2-9.81 5.33-19.35c1.05-3.23 2.19-6.42 3.39-9.59.29-.76.59-1.51.88-2.27l.43-1.06v-.11c.11-.27.22-.53.32-.79.64-1.55 1.29-3.08 2-4.61a208 208 0 0 1 19.48-34.89 185.32 185.32 0 0 1 11.91-15.44 191.7 191.7 0 0 1 13.66-14.4q3.57-3.39 7.3-6.58a77.38 77.38 0 0 1 8.08-6.12 41.2 41.2 0 0 1 9.15-4.62 31.39 31.39 0 0 1 3.33-.89l-.64.39A78.92 78.92 0 0 0 235.79 278a2.47 2.47 0 0 0-.89 1.92 100.68 100.68 0 0 0-10.07 9.31c-11.11 11.79-19.73 26-26.35 41-7.91 17.77-13.18 36.77-18.35 55.64zM178.88 354c.11-.29 0-.1 0 0zm-21.13 27.21.05-.06-.12.27c.02-.07.05-.14.07-.21zm322.36 45.19a470.9 470.9 0 0 1-8 66.14c-3.74 19.75-8 39.73-15.38 58.4-6.65 16.88-16.57 33-31.36 43.24C409 605.53 389 609 369.88 611.49c-22 2.82-44.79 5.88-66.82 1.81-18.81-3.48-37.14-12.34-48.81-28.64-6.07-8.48-10.46-18.14-14.61-27.75q-6.72-15.54-12.25-31.61a466.54 466.54 0 0 1-17.31-65.13 400.85 400.85 0 0 1-7.32-63.9c-.51-19.2.79-38.6 5.56-57.21 4.64-18.14 12.75-35.38 25.13-49.13a98.59 98.59 0 0 1 8.66-8.45c1.46-1.05 2.95-2.07 4.48-3a115.23 115.23 0 0 1 10.65-5.63 29.13 29.13 0 0 0 9.06-6.22 247.65 247.65 0 0 1 29.85-8.91 319.56 319.56 0 0 1 59.15-8.37c7.63.17 15.26.47 22.88.95 10.29.65 20.62 1.31 30.76 3.33a77.67 77.67 0 0 1 25.7 9.62 175 175 0 0 1 16 19 2.87 2.87 0 0 0 1.68 2.46c2.12 3 4.22 6.11 6.16 9.29.73 1.55 1.46 3.1 2.13 4.67 8.34 19.5 13.46 40.71 16.56 61.77a345.84 345.84 0 0 1 2.94 65.96zm.15-80a180.42 180.42 0 0 1 4.41 24.79c.64 6.32.86 12.65.9 19a318.75 318.75 0 0 0-5.31-43.79zm48.55 89.16c-1.09 4.89-2.06 9.91-4 14.54a24 24 0 0 1-7.16 10.06c.27-.21-.23.17-.29.21s-.41.3-.63.44c-.42.29-.85.55-1.29.8a10.33 10.33 0 0 1-2.38 1 11.81 11.81 0 0 1-5.16.4 16.93 16.93 0 0 1-9.81-5.91c-2.76-3.16-4.54-7.51-5.58-11.86a77 77 0 0 1-1.68-14.87c-.22-5.67-.2-11.34-.1-17 .2-11.23.69-22.48.08-33.71a186.63 186.63 0 0 0-3.52-27.37 191.74 191.74 0 0 0-18.4-51.29c-1.54-2.91-3.24-5.73-4.93-8.55a123.32 123.32 0 0 0-6.1-11.69 21.07 21.07 0 0 0 1.91-4c.26.34.51.69.77 1a2.68 2.68 0 0 0 3.9 0 3.07 3.07 0 0 0 0-4.08l-3.37-4.53a21.16 21.16 0 0 0-4.77-13 17.77 17.77 0 0 0-1.74-1.73c10.22 0 20.43.2 30.6 1.19l1.29.38a254.71 254.71 0 0 1 28 10.77 111.72 111.72 0 0 1 11 5.8 14.08 14.08 0 0 0-1.76 2.8 27.15 27.15 0 0 0-3.51 9.54c-5.4 7.71-6.84 18-5.22 27.35a49.42 49.42 0 0 0 2.56 9.21c.09.79.15 1.58.27 2.37a56.31 56.31 0 0 0 13.83 28.94 53.18 53.18 0 0 0 13.67 10.91 2.71 2.71 0 0 0 3.34-.45 3 3 0 0 0 .43-3.49c-.06-.1-.14-.2-.21-.31a7 7 0 0 0 2.31-.79 5.65 5.65 0 0 0 .84-.64 180.29 180.29 0 0 1-8.32 24.78c-8.11 19.81-18.22 38.74-25 59.15q-1.23 3.74-2.3 7.53a2.93 2.93 0 0 0 1.92 3.54 2.78 2.78 0 0 0 3.39-2 240.84 240.84 0 0 1 11.64-31.24c-.26.72-.55 1.43-.8 2.17a126.3 126.3 0 0 0-3.72 13.63zm26.91-64.12c-3 6.78-6.38 13.41-9.69 20.05l.23-.53a213.67 213.67 0 0 0 10.61-29.36 127.28 127.28 0 0 0 4.24-27.87c.66-18.31-3.47-37.15-15.06-51.33a59.14 59.14 0 0 0-7.48-7.45l-.6-.77c-.28-.34-.57-.68-.85-1 .86.62 1.74 1.19 2.58 1.84 13.78 10.86 22.85 27.4 25.55 45.25a72.56 72.56 0 0 1 .69 13.14 73.78 73.78 0 0 1-1.67 13 126 126 0 0 1-8.55 25.03z" fill="#f87318" data-color="1"/>
        <path d="M241.25 356.61a76.18 76.18 0 0 0 11-5.17 63.56 63.56 0 0 0 9-5.93c5.36-4.36 9.59-10.71 8.39-18.12-1.12-7-7.42-12.61-14.12-12.88-4-.16-7.79 1.64-11.23 3.51-1.34.72-2.63 1.53-3.89 2.37a2.86 2.86 0 0 0-1.1.34c-6.06 3.35-12.32 7-16.15 13.21a18.65 18.65 0 0 0-.88 17.9 12 12 0 0 0 7.09 6c3.95 1.16 8.13.16 11.89-1.23zm4.83-21.42c-.08-.1-.15-.19 0 0zm.08 0a1.74 1.74 0 0 0 0-.33v-.1c.06-.22.12-.43.19-.65l.06-.18c.11-.21.21-.44.32-.65l.33-.56a4.08 4.08 0 0 1 .25-.34c.4-.28.82-.55 1.24-.82a3.21 3.21 0 0 0 .52 1.95c-.83.62-1.66 1.24-2.5 1.85-.21-.07-.35-.15 0 0a3 3 0 0 0-.41-.14zm-7.32 5.2c.69-.89 1.41-1.76 2.17-2.59l.2-.2a4.7 4.7 0 0 0 .22.63c.08.13.21.19.29.31-1 .63-1.92 1.28-2.91 1.88zm21.22-1.39q-.74.75-1.53 1.44l-.8.69h-.06l-.56.43c-.83.64-1.71 1.21-2.59 1.78a39.7 39.7 0 0 0 3.46-4.28 19.52 19.52 0 0 0 4.5-3.07c-.18.28-.36.55-.55.82l-.35.45c-.53.74-1.01 1.23-1.52 1.74zm-13.17-15.9c.67-.36 1.34-.72 2-1.05l.64-.31.32-.15c.41-.17.81-.34 1.22-.49a18.39 18.39 0 0 1 2.41-.69l.46-.08h.45a10.65 10.65 0 0 1 1.13 0h.43l.4.05h.12l.41.1a8.6 8.6 0 0 1 1 .31l.4.15h.12c.11.05.21.13.32.19a16 16 0 0 0-3.4.64c-.25.08-.49.2-.74.28a9.66 9.66 0 0 0-5.6.48 33.7 33.7 0 0 0-13.44 10 42.52 42.52 0 0 0-2.86 3.94c.12-.23.23-.47.36-.71.35-.68.75-1.34 1.17-2l.58-.86c.1-.14.21-.27.31-.4.48-.62 1-1.21 1.51-1.78a35.5 35.5 0 0 1 3.15-3l.23-.19.32-.26.85-.64c.6-.45 1.21-.88 1.84-1.3 1.31-.75 2.58-1.51 3.89-2.23zm-19.29 26.8s.05.05.09.11zm.28.35-.16-.2a13.28 13.28 0 0 1-.9-1.61l-.1-.2v-.06c-.09-.27-.19-.54-.27-.82a17.56 17.56 0 0 1-.42-1.88.07.07 0 0 0 0-.05v-.63a7.48 7.48 0 0 0 1.3 2.58 5.77 5.77 0 0 0 3.2 1.95 7 7 0 0 0 3 3.24h-1.38l-.3-.05a10 10 0 0 1-1.2-.3l-.46-.17c-.21-.15-.48-.25-.71-.39s-.4-.29-.6-.42l-.39-.36a5.91 5.91 0 0 1-.61-.63z" fill="#f87318" data-color="1"/>
        <path d="M337.24 392.41c0 .15 0 .29-.06.43a47 47 0 0 0-.81 16.81 85.17 85.17 0 0 0 2.1 11.1 43.09 43.09 0 0 0 3.43 9.81 15.8 15.8 0 0 0 7.39 7c.35.16.72.28 1.09.42.29.31.54.66.85 1 2.64 2.6 5.85 4.7 9.53 5.06a9.07 9.07 0 0 0 7.53-3.18c.83 0 1.67.07 2.5 0 3.61-.22 7-1.47 9.09-4.69 1.73-2.64 2-6 1.48-9.11a18.17 18.17 0 0 0-4.23-8.62c-2.09-2.56-4.63-4.67-6.89-7.06q-.8-.84-1.53-1.74c-.27-.32-.54-.66-.8-1l-.19-.26-.28-.39c-.45-.65-.83-1.35-1.25-2a48.51 48.51 0 0 0-5.19-11.74q-1.35-4.23-2.42-8.54c-.4-1.61-.78-3.23-1.16-4.84a13.55 13.55 0 0 0-1.61-4.26 5.86 5.86 0 0 0-4.73-2.93c-2.13 0-3.87 1.21-5.44 2.57-4.64 3.99-7.32 10.1-8.4 16.16zm17.12 13.31.07.47c.02.14 0 .23 0 .26v.1a2.6 2.6 0 0 0-3.87.85v.06-.65l-.06-.58c-.13-1.21-.22-2.43-.27-3.65a47 47 0 0 1 .2-6.82c1.13 1.92 2.2 3.88 3.26 5.84.21 1.4.48 2.73.67 4.12zm-5.86-1a.73.73 0 0 1 0 .17zm6.13 12.81c-.07-.31-.13-.63-.19-.95v-.32a1.48 1.48 0 0 1 0-.21c.1.27.2.54.31.81s0 .52-.05.78a1.52 1.52 0 0 1-.07-.12zm6.34.54c-.2-.6-.42-1.18-.63-1.78l.79.72c0 .43-.05.85-.08 1.28-.05-.09-.05-.16-.05-.23zm-8.74 13.57-.63-.8-.19-.26-.14-.19c-.44-.62-.88-1.25-1.3-1.9-.22-.35-.41-.72-.62-1.08.64.87 1.28 1.73 2 2.54a2.58 2.58 0 0 0 2.84.62 28.89 28.89 0 0 0 4.06 3.61 40.19 40.19 0 0 1-4-.87l-.69-.24c-.46-.49-.92-.94-1.33-1.44zm-.7-51.15zm-.56-1zm0 0c-.07-.16-.06-.14.03-.05zm-.32.1a.83.83 0 0 1 .21-.06h.07l.1.08.06.07c.1.23.26.47.37.69a.91.91 0 0 1 .07.14l.09.26c.1.32.17.65.26 1-.2-.34-.35-.7-.55-1a2.87 2.87 0 0 0-1-1l.18-.12z" fill="#f87318" data-color="1"/>
        <path d="M253.76 476.48c-.29-.4-.63-.76-.94-1.15a19 19 0 0 0-5.66-6.52c-.68-.72-1.35-1.46-2-2.18a2.71 2.71 0 0 0-3.6-.21c-4.24-.81-9 .15-11.81 3.72a3.06 3.06 0 0 0-.71 2.8 2.76 2.76 0 0 0 1.92 2 19.84 19.84 0 0 1 4.59 1.23l.4.16c-.64-.26 0 0 .14.07.32.15.65.32 1 .49a21.58 21.58 0 0 1 2 1.25l.89.64.34.28.13.1a23 23 0 0 1 1.76 1.67c.5.52 1 1.07 1.42 1.63l.36.54c.6.9 1.16 1.83 1.68 2.78.34.62.63 1.27.93 1.91l.13.34a22.19 22.19 0 0 1 .64 2.15c.09.36.17.73.24 1.1 0 .22.08.44.11.67v.28a35.36 35.36 0 0 1 0 6c0 .51-.1 1-.16 1.53v.13l-.12.85c-.16 1.06-.35 2.1-.53 3.15-.85 4.69-1.84 9.43-1.69 14.24a2.77 2.77 0 0 0 4.7 2c5.92-5.53 10.42-12.9 11.35-21.24s-2.74-16.02-7.51-22.41z" fill="#f87318" data-color="1"/>
        <path d="M443.48 461.41a9.6 9.6 0 0 0-6-5.25 7.08 7.08 0 0 0-7.8 2.88 16.61 16.61 0 0 0-1.85 4.09c-.46 1.31-.87 2.64-1.21 4a49.72 49.72 0 0 0-1.39 8.74 45.9 45.9 0 0 0 .14 8.37c.17 1.54.39 3.09.69 4.61 0 .16.1.31.14.46a31.37 31.37 0 0 0 .5 3.5 20.46 20.46 0 0 0 3 7.35 4.66 4.66 0 0 0 4.88 2.22 6.73 6.73 0 0 0 3.8-2.95 36.42 36.42 0 0 0 3.72-6.48 44.78 44.78 0 0 0 3.86-15.68 41.68 41.68 0 0 0-.29-7.82 25.43 25.43 0 0 0-2.19-8.04zm-12 25.69v-.3h.14c0 .12-.04.2-.09.3zm2.24 9.08.06-.05-.06.06zm6.53-17.88c0 .26-.05.52-.08.78s0 .26 0 .39v.27l-.06.39q-.06.45-.15.9a39.42 39.42 0 0 1-1.66 6.43c-.17.5-.36 1-.54 1.47 0 .08-.07.17-.11.26-.12.28-.24.56-.37.83-.46 1-1 2-1.51 3s-1.09 1.86-1.69 2.75l-.29.38c-.16-.29-.33-.58-.47-.88s-.22-.47-.32-.71c0 0 0-.06-.05-.1s-.09-.24-.1-.28-.13-.4-.19-.6a4.75 4.75 0 0 0 .49-.17 7.86 7.86 0 0 0 3-3.16 30.5 30.5 0 0 0 3-7.6 35.06 35.06 0 0 0 .67-3.54c0-.18.09-.37.12-.55a21.65 21.65 0 0 0 .28-4.08 35.46 35.46 0 0 0-.86-8.35c-.12-.54-.31-1-.46-1.57v.21c.1.28.2.57.29.85a28 28 0 0 1 .73 3.14c.08.46.15.93.21 1.4 0 .09.05.44.07.55 0 .3.06.61.08.91.09 1.09.13 2.18.13 3.27s-.01 2.28-.11 3.41z" fill="#f87318" data-color="1"/>
        <path d="M422 557.9c-3.16-.4-5.72 1.22-7.83 3.44-2.11.42-3.81 2.29-5.16 3.9a48.92 48.92 0 0 0-3.13 4.38c-.62.36-1.18.82-1.77 1.22a4.66 4.66 0 0 0-1.22-.26c-3-.2-5.4 2.17-7.3 4.29a33.42 33.42 0 0 0-5.23 7.77c-1.21 2.51-3 6.1-1.78 8.88a3.16 3.16 0 0 0-1.09 2.75 2.78 2.78 0 0 0 2.71 2.5c.25 0 .48-.12.73-.16.57-.1 1.12-.29 1.68-.42.27-.08.57-.11.84-.21 11.87-3 22.29-12 27.67-23.41a42.88 42.88 0 0 0 3.53-11.08 2.91 2.91 0 0 0-2.65-3.59z" fill="#f87318" data-color="1"/>
        <path d="M326.5 320.81a49.57 49.57 0 0 0 9.76-6.39 53.58 53.58 0 0 0 7.86-7.86 58 58 0 0 0 3.58-4.9 21.27 21.27 0 0 0 3-5.91 8.76 8.76 0 0 0-.81-6.87 9.49 9.49 0 0 0-4.71-3.8c-3.83-1.48-8.05 0-11.24 2.34a32.73 32.73 0 0 0-5.78 5.57 2.67 2.67 0 0 0-3.21 1.22q-3.27 5.88-6.08 12c-1 2.12-1.92 4.26-2.78 6.44s-1.22 4.76.13 6.84c2.33 3.66 6.97 2.91 10.28 1.32zm-5.72-4.37c.01.13.01.16 0 0zm13.88-8.06c-.62.56-1.26 1.11-1.91 1.65l-.15.13-.27.21-1.2.91a48.11 48.11 0 0 1-4.18 2.78q-1 .58-1.95 1.11c-.37.2-.74.4-1.11.58a2.37 2.37 0 0 1-.32.15h-.09c-.32.11-.64.22-1 .3-.16 0-.33.07-.49.12a2.82 2.82 0 0 1-.76 0h-.37c.15 0 .46.06 0 0v-.27q-.09.48 0 0c.11-.45.24-.88.39-1.31l.05-.14v-.07c.14-.32.27-.64.41-1l.24-.56a2.59 2.59 0 0 0 2.42 0 46.65 46.65 0 0 0 5.74-4 2.24 2.24 0 0 0 1.15 0 20.53 20.53 0 0 0 5.56-2.67c-.75.7-1.42 1.41-2.16 2.08z" fill="#f87318" data-color="1"/>
        <path d="M404.57 329.33c.9 3.42 2.86 7.27 6.53 7.94 4 .73 8.09-2.34 10.9-5.06a17.66 17.66 0 0 0 5.39-9.55 15 15 0 0 0-2.29-10.53c-1.86-2.87-4.3-5.2-6.55-7.71-.59-.64-1.16-1.3-1.7-2l-.25-.34-.27-.39c-.28-.41-.54-.84-.79-1.27s-.47-.88-.69-1.33c-.11-.22-.21-.45-.31-.68l-.06-.12v-.12a22.21 22.21 0 0 1-.87-2.88c-.12-.49-.21-1-.29-1.48l-.07-.43v-.55a23.57 23.57 0 0 1-.05-3c0-.47.07-.95.12-1.42a.13.13 0 0 0 0-.06c.05-.26.09-.51.14-.77.29-1 .54-2.09.85-3.12a2.92 2.92 0 0 0-1.93-3.55 2.82 2.82 0 0 0-3.39 2c-.65 2.14-1.26 4.34-1.84 6.55a2.83 2.83 0 0 0-1.68 1.85 73.74 73.74 0 0 0-2.76 25.35 68.56 68.56 0 0 0 1.86 12.67zm5.43-25.26c.06-.66.1-1.31.18-2 .26.53.53 1.05.83 1.56a2.85 2.85 0 0 0-1.01.44zm3.78 27.16-.16.1h-.05a8.07 8.07 0 0 1-1 .29h-.51l-.43-.23c-.09-.09-.19-.21-.23-.26a3.53 3.53 0 0 1-.25-.28c-.18-.31-.36-.6-.52-.92-.08-.15-.14-.31-.21-.46s-.07-.17-.1-.26a2.66 2.66 0 0 0 2.82-.6c.11-.12.2-.25.3-.37.13.18.2.41.33.59a3 3 0 0 0 2 1.24c-.49.33-1 .67-1.48 1zm3.54-19.87c.49.52 1 1.06 1.45 1.61.24.28.48.57.71.86l.28.35.06.08a1.07 1.07 0 0 1 .1.14 16.74 16.74 0 0 1 1.1 1.76c.17.32.33.64.48 1 .08.21.15.42.22.64a9.63 9.63 0 0 1 .25 1c0 .19.08.38.11.57 0 .4.05.79 0 1.18v.47a2.45 2.45 0 0 1 0 .27c-.17.72-.32 1.42-.56 2.12a.17.17 0 0 0 0 .05c-.09.17-.16.35-.25.53a12.4 12.4 0 0 1-.62 1.13c-.2.34-.43.66-.65 1l-.05.06-.3.38c-.22.26-.47.48-.7.73a28.85 28.85 0 0 0-1.95-14.96 16.56 16.56 0 0 0-.77-2.14z" fill="#f87318" data-color="1"/>
        <path d="M514.84 377c0-.55.06-1.1 0-1.66a2.86 2.86 0 0 0-2.75-2.88c-2.76 0-4.73 2.15-5.76 4.63a47.75 47.75 0 0 0-2.44 8.17 67.39 67.39 0 0 0-1.38 11.08c-1.1 4.81-1.54 9.79.21 14.45a3.81 3.81 0 0 0 .69 1.1 2.78 2.78 0 0 0 2.29 2.06 2.74 2.74 0 0 0 2.75-1.38 52 52 0 0 0 7.14-34.27 2.2 2.2 0 0 0-.75-1.3z" fill="#f87318" data-color="1"/>
        <path d="m377.91 586.46-1.14-.46-.61-.28c-.74-.36-1.47-.74-2.19-1.15a38.06 38.06 0 0 1-4.05-2.65l-.45-.35-.31-.24c-.23-.2-.47-.39-.7-.6-.63-.54-1.25-1.1-1.84-1.68a41 41 0 0 1-3.37-3.72c-.24-.3-.47-.61-.7-.91-.11-.15-.22-.31-.34-.46-.48-.69-1-1.39-1.39-2.11s-.87-1.59-1.3-2.39a18.31 18.31 0 0 0 4.08-1.86 27.12 27.12 0 0 0 7.65-7.56 30.41 30.41 0 0 0 5.49-21.66 18.72 18.72 0 0 0-.45-2.13 22.7 22.7 0 0 0-.61-2.95v-1.25a17.94 17.94 0 0 0-1.15-4.46 22.94 22.94 0 0 0-.88-4.33 22 22 0 0 0-13.45-14.27c-6.61-2.24-13.4.21-18.52 4.77-.4.36-.74.8-1.12 1.19a17.51 17.51 0 0 0-3.28 3.27c-.2.13-.42.22-.63.35a20.35 20.35 0 0 0-7 8.55c-3.3 7.25-4.3 15.75-.65 23.06l.22.39a28.74 28.74 0 0 0 5.34 10.38 26.64 26.64 0 0 0 6.23 5.53v.12c-4.38 5.73-8.93 11.29-13.51 16.85-2.77 3.37-5.51 7.17-6.1 11.7a3.12 3.12 0 0 0 .71 2.8 2.62 2.62 0 0 0 2.68.74 28.27 28.27 0 0 0 12-9.32 53.07 53.07 0 0 0 7.59-15.37c.53-1.56.95-3.15 1.41-4.73l.24-.31a24.27 24.27 0 0 0 4.8 1.2 41.19 41.19 0 0 0 14.53 18.26c3.5 2.4 7.77 4.23 12 3.74a2.83 2.83 0 0 0 2.7-2.49 2.92 2.92 0 0 0-1.93-3.21zm-33-62.1a2.32 2.32 0 0 0 .26-.21l.11-.08h.15c.15 0 .29-.12.44-.18s.49-.15.74-.24a18.76 18.76 0 0 0-2.2 1.42l.06-.17a.8.8 0 0 1 0-.11c.17-.19.28-.32.41-.43zm10.45 3c.24 0 .48.1.72.16h-.92l-.36-.26h.36zm8.14 33.06c-.27.26-.54.5-.81.74l-.37.32c.39-.34.08-.07 0 0a18.18 18.18 0 0 1-1.87 1.28c-.31.19-.62.36-.94.53l-.53.25a15.9 15.9 0 0 1-1.91.65c.49-.2 1-.38 1.46-.6a25.81 25.81 0 0 0 5-3.21z" fill="#f87318" data-color="1"/>
        <path d="M281 538.1c-3.16.88-5.76 3.09-8.22 5.24a56 56 0 0 0-6.82 7.11 62 62 0 0 0-6.31 9.51 45.63 45.63 0 0 0-2.53 5.45 8.38 8.38 0 0 0-.4 5c-.36 1-.75 2.07-1.06 3.14-.56 2 1.4 4.31 3.4 3.55a55.66 55.66 0 0 0 28.39-24.68c1.82-3.25 3.67-7.13 2.07-10.88-1.52-3.54-5.29-4.35-8.52-3.44zm3.34 5.52zm.08.1v.06l-.05-.06zm-.08-.1zm-.54-.13c-.1 0-.14-.07.07 0h.13l.09.06c-.06 0-.1 0-.09-.06s0 0-.06 0l.17.05.16.1.15.15.09.18a2.08 2.08 0 0 0 .05.24v.62l-.15.59a3 3 0 0 0-1.08-2z" fill="#f87318" data-color="1"/>
        <path fill="#f87318" d="M284.04 543.5h-.01.01z" data-color="1"/>
        <path d="M284 543.52h-.2a.36.36 0 0 0 .2 0z" fill="#f87318" data-color="1"/>
        <path d="M325.6 462.52a1.5 1.5 0 0 0 .1-.14l.11-.14.64-.84q.56-.73 1.14-1.47a3 3 0 0 0 0-4.07 2.7 2.7 0 0 0-3.9 0 110.85 110.85 0 0 0-22.07 48.92 115 115 0 0 0-1.73 15.5 2.84 2.84 0 0 0 2.76 2.88 2.89 2.89 0 0 0 2.76-2.88q.13-3.37.49-6.73c.05-.49.1-1 .16-1.47 0-.23.05-.45.08-.67s0-.1 0-.15a.9.9 0 0 0 0-.16c.16-1.15.33-2.31.53-3.46a109.84 109.84 0 0 1 2.88-12.59q.95-3.24 2.09-6.39c.33-.93.68-1.85 1-2.77l.3-.75.06-.15.06-.15c.25-.58.48-1.16.73-1.73a108.67 108.67 0 0 1 5.77-11.46q1.81-3.12 3.83-6.09c.77-1.03 1.49-2.04 2.21-3.04z" fill="#f87318" data-color="1"/>
        <path d="M394 520.14a2.77 2.77 0 0 0 3.39 2 3 3 0 0 0 1.93-3.55A154.43 154.43 0 0 0 387.44 480q-2.32-5.1-5-10a2.72 2.72 0 0 0-3.77-1 3 3 0 0 0-1 3.95q2.39 4.32 4.49 8.81c.69 1.48 1.35 3 2 4.46.32.75.63 1.5.94 2.26l.1.24.16.4c.18.45.35.89.52 1.34a151.89 151.89 0 0 1 5.88 18.7c.87 3.59 1.62 7.28 2.24 10.98z" fill="#f87318" data-color="1"/>
    </g>
</svg>
