<?xml version="1.0" encoding="UTF-8"?>
<svg data-bbox="0.08 0.019 685.706 813.121" viewBox="0 0 685.8 813.14" xmlns="http://www.w3.org/2000/svg" data-type="color">
    <g>
        <path d="M643.27 812.52c8.34.32 16.67.85 25.05.51 4.28-.17 12.11.89 14.88-2.87a14.08 14.08 0 0 0 2.23-6.85c1-9.33-.37-19.1-.92-28.42v-.8c-.24-4.15-2.64-575.25-3.2-627.24C679.57-10.25 688.79 4.69 663 3.25c-3.56-.19-7.15-.1-10.71-.12q-13-.09-26-.12l-38.7-.1-49-.1-56.77-.1-62.1-.11-64.94-.12-65.32-.14-63.22-.16L167.62 2 116 1.78q-21-.11-42-.26-15-.1-30.08-.29c-9.07-.13-18.39.21-27.27-1-4-.55-8.76-.18-11.28 3-1.92 2.43-2 5.78-2 8.88 0 9.31 0 18.61.52 27.83.44 8.23-.26 16.69-.34 24.93Q3.31 83.42 3.2 102q-.15 23.6-.25 47.19-.12 27.63-.2 55.25-.1 30.63-.17 61.25-.08 32.61-.13 65.21-.06 33.52-.11 67.1t-.08 67v292.55c.07 3.32-.55 12.36-1.38 20.11-1.5 14-.86 25 1.66 28.29 1 1.26 8 2.11 23.93 2.86l21.91 1c1.91.1 3.83.07 5.75.09l13.22.1 19.86.1 25.7.11 30.69.11 34.86.12 38.22.13 40.74.13 42.44.13 43.32.14 43.37.15 42.6.14 41 .15 38.57.15 35.33.15 31.26.16 26.37.15 20.64.16c4.7 0 9.4.08 14.1.15 2.23.02 4.58.1 6.85.19zM378.2 793.81l-.24-8.62-1.08-39.88a8.52 8.52 0 0 1 .74-4.6c1.13-1.93 3.83-1.85 5.81-1.87 3.9-.05 5.5 2.15 6.24 5.81 1.68 8.29 1 17.3 1.16 25.69.21 14.85.71 29 1.1 31.34 0 0 .15 1 .35 2.18a2.1 2.1 0 0 1-2.09 2.35l-2.45.19c-2.93.22-9.69 1.53-9.79-3.14-.06-2.61.36-5.4.28-8.1zM86 729a6.75 6.75 0 0 1-.6-.69c-3.58-4.69-.08-8.24 2.74-11.75 12.69-15.77 14.26-12.71 31.37-14.24 8-.71 421.55-4 453.14 1.42 12.94 2.21 12 1.68 20 10.91 3.18 3.67 15.33 13.44 7.12 17.53a14.06 14.06 0 0 1-5.62 1.07c-16.84.76-33.65.71-50.54.7q-26.58 0-53.15-.09-31.26-.07-62.52-.19-33.83-.12-67.65-.28-34.26-.17-68.53-.35-32.58-.18-65.17-.41-28.8-.2-57.58-.45-22.86-.21-45.73-.48l-17.1-.25c-2.29 0-4.58-.07-6.88-.13-4.54-.09-9.94 1.2-13.3-2.32zm173.6 38.57c-2.45-2.23-7.79-6.73-11.86-10s-8.23-6.54-12-10.16c-1.32-1.26-3.57-3-4.07-4.76-.82-3 2.15-4.13 4.53-4.17l26.56-.55a8.5 8.5 0 0 1 3.66.45c4.75 2.06 5 32 3.23 32a15.53 15.53 0 0 0-3.49.62c-1.48.43-3.45-.6-6.56-3.43zm-6 2.12c-1.75 1.76-33.95 1.61-37.9-.19-6.88-3.12-13-8.81-18.59-13.76-3.24-2.86-6.41-5.82-9.42-8.93-1.38-1.43-6.54-5.85-6-8.06a1.38 1.38 0 0 1 .38-.7 3.83 3.83 0 0 1 2.71-.7l30.11.08c6.36 0 9.53 4.24 13.72 8.59 4.44 4.62 9.06 9.13 10.28 10a21.33 21.33 0 0 1 2.72 2.31 53.67 53.67 0 0 0 4.53 3.89c5.29 4.29 7.95 6.94 7.42 7.47zM96 102.75a3.68 3.68 0 0 1 2-1.34 8.73 8.73 0 0 1 1.77 0h298.28l39.17-.07q16.49 0 32.95-.11 12.38-.06 24.73-.16c4.83 0 9.67-.08 14.51-.22 74.23-2.09 69 .91 68.87 18.69-.09 10.55.14 12.43.29 23q.42 29.16 1 58.3.7 38.39 1.46 76.76.86 43.5 1.74 87l1.8 89.09q.84 41.48 1.66 82.95.67 34.31 1.31 68.62c.28 15.36.56 30.73.75 46.1 0 3.55.09 7.11.09 10.67 0 11.1 2.4 28-11.28 32.12-3.57 1.08-7.37 1.14-11.1 1.19-48.13.66-95.93 1.57-144.07 1.39q-46.5-.18-93-.32l-92-.33q-38.49-.15-77-.38c-10.77-.07-21.55-.13-32.33-.25-7.41-.08-19.26 1.61-24.25-5.64-1.83-2.67-1.06-7.23-1.14-10.28q-.23-9.43-.41-18.86-.26-12.59-.49-25.17-.27-15.28-.53-30.57-.3-17.55-.58-35.1-.31-19.37-.61-38.73-.33-20.73-.63-41.47-.33-21.66-.64-43.32l-.63-44.29q-.32-22.2-.62-44.38-.28-21.78-.58-43.56-.28-20.93-.55-41.86-.24-19.65-.49-39.28l-.42-35.81q-.18-15.72-.35-31.44-.15-13.1-.26-26.19-.1-10-.16-20C94.22 116 93 106.39 96 102.75zm492.39 645c-5.68-8.69-5.56-9.25 2-9.25 6.88 0 6.88 0 8 11.41 1.32 13.59.09 13.33-10.03-2.16zm1.4 18.29c-2.12 0-4.41-1.78-6.06-2.91a83.63 83.63 0 0 1-8.58-6.88 98.87 98.87 0 0 1-8.06-8.06c-1.21-1.38-5.62-5.87-5.12-7.78a2.54 2.54 0 0 1 1.66-1.61 7.61 7.61 0 0 1 2.38-.27h6c4.89 0 5.37 3.08 7.76 6.47 2.16 3.09 4.47 6.09 6.76 9s6.16 6.73 7.58 10.45c.5 1.31-.27 1.55-4.35 1.55zm-164.91 2.37c-.81-.52-1.59-1.06-2.31-1.61A144.32 144.32 0 0 1 407 753.18c-2.6-2.63-7.25-6.13-7.85-10a3.38 3.38 0 0 1 .85-3c.9-.85 2.28-.89 3.52-.89 8.13 0 18.33-1.75 24.07 5.55l5.54 7c3 3.84 6 7.67 8.91 11.62 1.57 2.18 5.93 7.32.46 7.41-3.63.06-8.09.84-11.64.08a19 19 0 0 1-6.01-2.54zm19-10.66c-3.4-4.68-7.76-10.57-9.71-13.09-4.33-5.6-4.83-5.2 7-5.64s11.83-.57 12.76 12.33c.38 5.36.89 11.75 1.13 14.21.31 3.18.06 4.47-.83 4.46-1.46-.02-1.77-.38-10.37-12.27zm-40.18-1.28 11.17 10.4c5 4.67 4.9 4.88-4.47 6.16-4.09.56-8.79 1.29-10.45 1.63-4.3.86-4.52.29-4.52-12.18-.02-14-.18-13.88 8.25-6.01zm-7.24 38.88c-1.95-11.58-1.23-15.51 3-16.4 7.55-1.58 20.11-2.16 20.11-.94 0 1.87-5.95 9.8-13 17.33-8.07 8.66-8.67 8.66-10.13.01zm39.25 2.28c-6 9.67-5 9.2-19.41 8.85-14-.33-14.07-.44-5.72-8.76a148 148 0 0 0 10.79-12.23c5.62-7.36 25.34-14.31 25.34-8.94-.02 1.45-6.38 13.59-11.02 21.08zm13.66 7.57c-2.86.09-5.73.23-8.6.23-2.22 0-3.8-.84-2.29-3.08a44.36 44.36 0 0 0 3.25-5.14 116.18 116.18 0 0 1 7.21-13.21c1.22-1.81 2.59-6.31 4.64-7.42 1.7-.92 2.05 1 2.42 2.42 1.13 4.38 1.37 9.09 1.83 13.57.3 2.85 2 9.07-.21 11.62-1.47 1.69-5.29 1-7.34 1zm13.75-1c-.57-.46-1.25-3.82-1.5-7.45-.75-10.4-.81-43.59-.58-47.74.21-3.91-.11-8.6 4.81-9.54s8.48 1.43 8.58 6.49l.11 5.07c.52 24.92-.37 52-1.76 53.39s-7.87 1.28-9.68-.2zm23.74-65.39 19.66.24 19.66.25c3.61 0 6.6 1.48 6.67 3.22l.14 3.14s.07 1.41.14 3.14-2.25 3.2-5.13 3.2h-5.3c-5.84 0-13.57.24-17.19.46l-14.76.89c-9.39.55-9.05.82-9.82-8l-.29-3.33c-.21-1.78 2.59-3.23 6.2-3.19zm-5.93 22.54c-1.24-4.18-.21-4.36 26.57-4.63l19-.18c3.66 0 6.62 1.17 6.62 2.7V762c0 2.66.61 5.47-2.46 6.63a10.88 10.88 0 0 1-3.81.48l-41.35.33a5.77 5.77 0 0 1-3.19-.59c-1.86-1.15-.82-5.5-1.4-7.48zm26.94 44c-7.66.06-15.31.59-23 .55-1.16 0-2.47-.07-3.27-.92a4.19 4.19 0 0 1-.83-2.67 24.56 24.56 0 0 1 .1-6.41c.4-1.81 1.11-2.07 3-2.35 7.35-1.1 32.77-2.65 40.61-2.51l4.21.08c2.32.05 4.24 1.26 4.29 2.72l.1 2.64c.21 6.27-1.55 8.75-6.22 8.76zm3-17.52H498.8c-4.36 0-9-.4-13.31.11-1.71.21-3.44 0-4.32-1.63a6.71 6.71 0 0 1-.38-3.2c0-1.34-.46-2.67-.49-4.05a4.77 4.77 0 0 1 1.24-3.52c1.68-1.68 5.18-1.58 7.41-1.92 3.47-.52 7.33-.05 10.84 0 7.27 0 15.32-.92 22.47.31 4.39.75 10.11-.65 10.78 5.36.34 3.09.2 7-3.33 8.06a14.31 14.31 0 0 1-4 .41zm29 16.59a1.8 1.8 0 0 1-.2-.19c-1.35-1.38-1.52-3.5-1.61-5.44q-.63-14.3-.61-28.6c0-9 .74-18.06.73-27a3.17 3.17 0 0 1 3-3.33h6c1.67 0 3 2 3 4.4v4.39c0 4.84.53 18.74 1.2 30.9l.8 14.7c.14 2.5.94 8.4-1.25 10.3s-8.71 1.93-11.04-.08zm27-51c11.55 12.24 11.45 12.08 8.27 12.94-14.45 3.87-19.69.66-20-12.22-.27-13.45-.34-13.45 11.74-.66zm-10.45 24.78c-.19-2.66.38-5 1.28-5.15l1.63-.32a48.49 48.49 0 0 1 9-.64c3.65 0 11.27-.57 6.95 5a129.9 129.9 0 0 1-10.39 11.6 28.81 28.81 0 0 0-3 4.78c-3.35 6.21-4 4.9-5.08-10.49-.04.02-.2-2.11-.39-4.78zm23.75 26.64a16.83 16.83 0 0 1-1.8.19q-5.48.33-11 .61a4.74 4.74 0 0 1-3.14-.58 3.21 3.21 0 0 1-.9-3.45c.57-1.94 2.27-3.41 3.21-5.17a41.88 41.88 0 0 1 2.51-4 87.31 87.31 0 0 1 7.52-9.19 79 79 0 0 1 8.22-7.83c1.52-1.21 3.79-3.31 5.89-3.31 4.64 0 4.65-.14-.16 11a137.72 137.72 0 0 0-5.52 15.14s-.36 1.37-.82 3.06a4.4 4.4 0 0 1-4.01 3.53zm21.19-.87c-.6.72-3.2 1.29-5.94 1.29-8.54 0-8.83-5-1.12-19.36 4.58-8.55 4.91-8.49 5.74 1 .38 4.28 1.07 9.59 1.54 11.78.55 2.59.47 4.45-.22 5.32zm4.27-41.11v-2c-.17-5.91-.47-11.83-.11-17.7.17-2.83-.13-4.7 3.09-4.7 3.8 0 3.77-.15 4.47 24.37.3 10.78.85 24.73 1.22 31 0 0 .15 2.55.33 5.69s-.26 5.7-1 5.7c-2.18 0-4.48.7-5.91-1.53a9.7 9.7 0 0 1-1-5q-.59-17.89-1.09-35.83zm8.19-673.08h-.42a9.4 9.4 0 0 1-4.94-.9c-2.6-1.58-1.63-5.43-1.5-8 .07-1.65 3.49-3 7.62-2.93l24.72.19c34.69.25 35 .3 35 5.65 0 3.24-1.52 4.29-4.63 4.91-5.59 1.11-11 1.06-16.7 1.06zm50 10.2a47.71 47.71 0 0 0-5 4.24q-6.74 6.57-13.37 13.24c-1 1-2.58 2.92-4 1.89-1.68-1.2-1.51-6.08-1.68-7.79-.23-2.46-.4-4.93-.58-7.39-.15-2-.94-5.09 0-6.94 1.34-2.5 5.14-1.76 7.47-1.84l13.53-.39c1.27 0 4.94-.81 6-.06 2 1.5-.08 3.49-1.48 4.49zm-32.32 52.37c-1.71-1.72-17.65-10.15-20.66-10.94-2.24-.58-2.26-.8-2.26-17.86v-10.27c0-3.87.84-6.33 1.89-5.5l1.88 1.51a90.58 90.58 0 0 1 7.29 6.69 101.57 101.57 0 0 0 10.22 8.67l3.35 2.49a9.14 9.14 0 0 1 3.52 5.82l.17 3.32c.19 3.65.18 9.07 0 12-.37 5.72-2.3 7.17-5.4 4.07zm-5.29-55.93c2.95-.18 5.57.55 5.87 1.63l.52 2a149.85 149.85 0 0 1 3.11 19.76c0 4-2.3 2.45-17.35-11.57-11.44-10.65-11.45-10.6 2.51-11.45zm8.68 63c3 2.25 2.15 4.38 2.14 7.83l-.03 11.09c0 1.7-.06 3.54-1.14 4.86-1.35 1.67-3.79 1.86-5.94 1.92l-14.4.4c-1.77 0-3.66.07-5.18-.84-3.82-2.3-2.95-9.8-3-13.7-.13-5.36.12-10.72.31-16.07.11-3 .15-8.34 4.32-8 5.23.41 11.05 5.63 15.2 8.36 2.38 1.56 5.23 2.3 7.56 4zM609.2 193c.92-2.6 3.2-2.4 6.86-2.57l16.6-.77 33.2-1.55a15.86 15.86 0 0 1 5.15.32c3.57 1 3.12 3 3.5 5.94.31 2.5-.08 5.52-2.29 6.73a7.39 7.39 0 0 1-3.49.64l-37.84.79c-6.38.13-12.76.29-19.14.39-4 .07-3.18-4.49-3-7.56a8.71 8.71 0 0 1 .45-2.36zm53.5 95a3.69 3.69 0 0 1-3.42 3.14l-3.1.15c-2.75.13-4.75-.11-5.94-2.88-2.79-6.5-2.06-15.38-2.26-22.24-.23-8.13-.31-16.26-.38-24.39q-.08-8.28-.12-16.55l-.06-9.51c0-2.16-.87-6.09.78-7.82a4.2 4.2 0 0 1 .7-.56 7.41 7.41 0 0 1 3.54-.89c1.65-.1 4.9-.53 6.39.3s.93 2 1 3.59c.29 5.26.39 10.53.55 15.8.38 11.89.84 23.2 1 25.14Q663.83 277.4 663 285l-.3 3zm-27.22 3-3.9.35c-2.15.19-3.92-2.79-4-6.65l-.09-9.93c-.09-9.31-.11-17.61 0-18.44s.68-12.51 1.36-26c.28-5.37.47-10.75.9-16.12.15-2-.2-4.92 1.77-6.12a6.51 6.51 0 0 1 3.08-.74c2.64-.12 7.85-.44 8.65 2.45 1 3.75.73 8.48.87 12.36.31 8.5.13 17 .25 25.52q.17 11.9.19 23.79v9.42c0 1.23 0 2.47-.06 3.69-.08 1.44-1.06 4.55-2.32 5.42-1.48 1-5 .78-6.7.93zm-13.94-83.34c3.45.15 4.33 1.64 4.19 5.16l-.57 14c-.48 11.54-1 29.87-1.13 40.73s-.59 20.71-1 21.87c-.58 1.73-1.57 2.12-5.36 2.12-5.75 0-5.5.75-6.38-19.61-.38-8.84-.86-19.7-1.07-24.13s-.69-15.12-1.09-23.77l-.4-8.74c-.08-1.76-.2-4.38.72-6 1-1.78 3.09-1.71 5-1.7h6.54zm5.57 123.12a97.26 97.26 0 0 0-12.48-10.22c-1.46-.9-7-3.68-3.72-5.66a5.69 5.69 0 0 1 2.75-.56l17.14-.57c1.89-.06 4 0 5.36 1.31s1.35 3 1.44 4.72q.39 7.27.79 14.55c.08 1.45 0 3.16-1.15 4a2.94 2.94 0 0 1-3.56-.52c-1.11-1-1.59-2.41-2.69-3.44-1.29-1.28-2.61-2.45-3.88-3.68zm6.36 13.57c3.09 2.67 3.66 5.34 4.32 20.32.13 3 1.69 12.09-2.58 13-2.65.55-6.29-3.78-8.14-5.27l-8.92-7.19a31.39 31.39 0 0 1-6.43-6.28c-2.85-4.11-2-8.74-2.19-13.45-.27-5.33-.37-10.67-.63-16-.08-1.48-.06-3.2 1.08-4.16a3.33 3.33 0 0 1 3.51-.25 9.77 9.77 0 0 1 2.85 2.36 226.32 226.32 0 0 0 17.13 16.85zm5.3 63.38c-3 .68-6.62.38-9.72.55l-10.25.58c-2.1.12-4.43.16-6-1.22s-1.87-4-1.91-6.26q-.27-12-.53-24.08c-.05-2.29 0-5.33 1.36-7.27 1.87-2.6 5.3-1.3 7 .76a153.74 153.74 0 0 0 14.14 14.17c2.36 2.16 4.87 4.24 7.11 6.52 2 2 2.42 5.32 2.64 8.09.22 3-.35 7.33-3.74 8.13zm28.7 124.5 3 .06c1.77 0 3.59 0 5.35.14 1.91.19 1.91.5 1.91 2.52s0 4.88-1.75 6.43c-2 1.79-5.84 1.62-8.34 1.64-16.32.13-32.69-.19-49 .74a13 13 0 0 1-4.09-.2 4.43 4.43 0 0 1-3.07-2.51c-1.71-4.67 3.54-6.9 7.06-7.2 6.57-.57 13.16-1 19.75-1.24q10.71-.45 21.44-.45 3.85-.05 7.74 0zM629.89 437c.19-2.92 1.94-5.35 3.9-5.43l3.56-.15 3.56-.14c2-.09 3.67.7 3.81 1.75l.26 1.91c.76 5.72.52 11.74.73 17.5q.79 21.62 1.39 43.24c.17 6.23.32 12.45.41 18.68 0 2.49 1.13 11.67-.8 13a6.69 6.69 0 0 1-3.83.83l-8.38.08a4.06 4.06 0 0 1-2.62-.57c-1.55-1.24-1.41-5.3-1.49-7.09-.12-2.93-.28-5.85-.46-8.78-.29-4.77-.49-9.56-.65-14.34-.6-18.37-.9-36.9.28-55.25 0 .04.15-2.33.33-5.24zM660 605c-14.81 13.4-14.21 11.76-14.21-5v-7c0-3.84 1.15-8.28 2.58-9.93l2.57-3a91.78 91.78 0 0 0 8.85-12.55 101.17 101.17 0 0 1 8-11.9c1.26-1.54 3.24-5.76 5.37-6a3 3 0 0 1 3 2.29c.61 2 .39 5 .42 7.15v9.21l-.05 14.73a18.58 18.58 0 0 1-5.43 11.9l-.31.29zm3.9-55c-1 3.3-5.35 8.88-6.12 10.36-1.73 3.32-4.8 8.63-6.82 11.81-5.96 9.4-8.96 3.63-7.89-15.17.13-2.33-.6-8 2-9.29a6.47 6.47 0 0 1 2.87-.44h13.18a4 4 0 0 1 2.63.61c.49.37.47 1.17.15 2.18zm-14.2 69.59c2.14-1.57 8.22-6.83 13.51-11.69 2.38-2.18 11.19-12.38 12.93-4.6.91 4.07.56 8.88.68 13s.16 8.5.09 12.75c0 2.06-.25 4.44-2 5.58a6.51 6.51 0 0 1-3.45.75l-18.9.53c-1.83.06-3.78.08-5.35-.88-2.22-1.35-2.26-5.54-2-7.88a11 11 0 0 1 4.49-7.5zm27.16-110.53v9.66c0 2.19.06 5.34-1.72 6.9-3.08 2.72-7.21.84-7.33-3-.35-10.83-.51-21.68-1-32.51-.82-15.43-2.4-30.67-2.15-46.18 0-2.55.16-5.1.21-7.65 0-1.74-.26-4.13 1.52-5.18s5.1-.85 6.83 0c2 1 2 3 2.09 5.07.24 6.85.17 13.73.33 20.58.32 13.85.8 27.69 1.06 41.53q.11 5.45.16 10.84zm-19.24 17.33h-1.34a5.23 5.23 0 0 1-2.75-.43c-1.51-.85-1.78-2.92-1.55-4.64.78-5.93-.37-12.81-.6-18.93-.56-14.94-1.06-29.87-1.42-44.81-.15-6.22-.3-12.45-.31-18.67 0-1.8-1.06-5.16-.16-6.77 1.2-2.18 7.43-2.33 9.3-1 2.09 1.48 1.16 7.58 1.26 9.83.67 14.05 1.58 28.08 2.33 42.12.41 7.63.81 15.26 1.11 22.89.15 3.9.6 7.78.62 11.69a37.53 37.53 0 0 1-.4 6c-.34 2.1-.57 2.55-2.76 2.61zM623.19 556c-7.31-7.14-4.42-9.16 11.41-8l2.21.17c1.21.09 2.28 2.81 2.38 6.07l.19 5.91c.43 13.86-.1 14.39-6.4 6.54a142.63 142.63 0 0 0-9.79-10.69zm3.92-29.5a2.86 2.86 0 0 1-.85 1.66 4.47 4.47 0 0 1-3 .77l-5.9.08a8.21 8.21 0 0 1-4.29-.72c-2.48-1.45-1.66-8.26-1.72-11-.26-12.38-.74-24.75-.85-37.19l-.32-39a10.8 10.8 0 0 1 .87-5.36c1.36-2.47 4.69-2.94 7.21-2.84 2.12.09 5-.35 5.84 2.09a25.48 25.48 0 0 1 .86 6.21c.66 8.33.61 16.73.72 25.07l.12 10.71c.29 23.23.77 43.6 1.09 45.27a18.32 18.32 0 0 1 .29 3.77 3.87 3.87 0 0 1-.07.47zm6.5 49.33 3.81 4.76a21.49 21.49 0 0 1 4 11l.18 6.27c.41 13.93-.4 16.22-4 11.39-2.47-3.29-8.52-8.19-21.46-17.37-1.86-1.32-3.33-32.94-1.61-34.57 1.13-1.08 11.19 8.69 19.08 18.51zm8.15 55.49c0 1.35-.38 3.47-1.62 4.21a6.56 6.56 0 0 1-2.51.68 107 107 0 0 1-18.85.65 8.13 8.13 0 0 1-3.56-.75c-2.1-1.14-1.49-3.44-1.51-5.38v-8.66c.1-6.29.12-12.59.51-18.87.06-1.06-.2-4.65 1.67-4.26 2.68.55 13.75 9.15 18 14 7.26 8.25 7.84 9.4 7.84 15.52zm6.46 8.89h8.51c5.83.06 11.91-.22 17.71.44 4.21.48 4.15 6.49.83 8.46a8 8 0 0 1-4 .78c-9.22.2-18.57 0-27.76.6-8.58.6-17.31 1.58-26 1a4.08 4.08 0 0 1-3.12-1.59 5.05 5.05 0 0 1-.56-3.41c.46-4 1.63-5.31 5.64-5.51q14.4-.73 28.75-.78zm21.23 84c3.87 0 7 1.65 7 3.59 0 2.71 1.27 7.32-1.82 8.34a10.08 10.08 0 0 1-3.33.35l-47.12-.3c-1.72 0-3.65-.1-4.82-1.36-1.41-1.5-1.06-3.88-.61-5.89a9.3 9.3 0 0 1 1.41-3.71c1.24-1.62 3.34-1.48 5.18-1.46l22 .22zm-27.27-67.6 2.05.16c1.14.08 2.2 2.17 2.39 4.67L647 666c.24 2.19.26 4.43.35 6.63.35 8.8.49 17.6.54 26.41v11.62c0 3.87-.07 7.42-4.72 8.48a7 7 0 0 1-5.81-1.35c-2.66-2.15-1.69-7.14-1.8-10.35-.12-3.76-.18-7.52-.2-11.28-.06-8.3 0-16.62.32-24.92.1-3.06.22-6.13.5-9.19.09-1.08 0-3.28.71-4.19s2.55-1.42 5.29-1.22zm8.63 25.92c0-28.8-.51-26.84 7-26.69h1.76c1 0 1.9 2.18 2.08 4.82l.33 4.77c.81 12 1.41 24.09 1.58 36.14 0 2.6 1.69 17.27-2.41 17.49l-4.53.23a6.46 6.46 0 0 1-3.44-.45 4.31 4.31 0 0 1-2-3c-.44-2.34.15-4.91 0-7.33-.15-2.19-.22-4.39-.28-6.59-.11-6.43-.09-12.92-.09-19.36zm-32.73-25 3.5-.42c9.9-1.19 9.71-1.67 9 21.88-.32 10.55-.15 23.48.36 28.73.61 6.15.6 10 0 10.81s-1.27 1.18-1.61 1.07-3.23-.36-6.41-.55c-8.17-.52-8 .22-8.16-32.83l-.14-21.22c-.02-3.91 1.53-7.24 3.46-7.47zm22.67 148.7c-22.78-.69-20.49 1.86-22.11-24.67-.54-8.81-1.25-20.15-1.58-25.21-.89-13.75.54-13.17 17.3 7 7 8.41 22.66 25.86 27 30.06 8.74 8.45 11.56 11.46 11.56 12.34.01 1.16-6.7 1.25-32.17.48zm36.41-25.86c-.21 13.9-.61 18.86-1.51 18.86-1.31 0-19-17.86-30.37-30.62-3.87-4.36-9.66-10.86-12.87-14.45-1.63-1.83-10.2-9.54-6-12.19a5.66 5.66 0 0 1 3.24-.54l40.71 1.29a8.48 8.48 0 0 1 3.09.48c3.19 1.35 3.53 6.85 3.7 9.76.51 9 .16 18 0 27zm-9.66-62.73c-1.74-2.72-.66-9.3-.69-12l-.15-19.56-.21-24.17c0-1.3-.49-5 .8-5.73a4.07 4.07 0 0 1 2.11-.32c1.35 0 4.83-.53 5.63.66.33.49.12 2 .12 2.61.09 2.66.24 6.65.34 8.86.53 10.86.95 21.74 1.12 32.62.06 3.4.09 6.81 0 10.22-.05 2 .36 6.23-1.43 7.48a5.55 5.55 0 0 1-2.66.83 6.79 6.79 0 0 1-4.1-.63 2.61 2.61 0 0 1-.88-.87zm-24.94-291-5.81.15-15.83.38c-2.25.06-9.6 1.06-9.6-2.87v-3.07c0-8.15-3.71-7.36 40.42-8.63l16.91-.48c1.68-.05 5.22-.31 6.47 1.14 1 1.16 1.42 4.41 1.53 5.84a6.36 6.36 0 0 1-1.56 5c-1.69 1.68-4.32 1.84-6.7 1.9zm2.36-100.46-.15-6c-.08-3.33 3-6.1 6.79-6.18l6.93-.14c17.81-.36 17.85-1.06-1 17.63-12.58 12.51-12.13 12.66-12.57-5.35zm15.75 80.94h-7c-3.87 0-7.18-2.19-7.38-4.9l-.37-4.9s-.16-2.19-.37-4.9.63-5.69 1.85-6.66l2.21-1.75c2.43-1.93 7.17-6.26 10.54-9.63 14.68-14.68 15.06-14.54 14.85 5.42-.09 8.11 0 17 .2 19.78a28.24 28.24 0 0 1-.06 6.29c-.33.88-4.14 1.21-14.47 1.21zm14.44-51-1.75 1.41c-1.92 1.54-7.59 6.57-12.59 11.18-15.5 14.26-14.74 14.53-14.64-5.13v-7.34a19.63 19.63 0 0 1 5.11-12l9.06-8.94c2.74-2.71 5.5-5.4 8.31-8 1.52-1.42 4.67-3.5 6.29-1.33 1 1.33.77 3.67.86 5.21q.21 3.67.37 7.37l.4 9.22c.2 3.81-.45 7.57-1.42 8.34zm.3-51.63a3.76 3.76 0 0 1-.25.63c-1.22 2.43-4.42 3.82-7 3.87l-17.82.32c-6.91.12-13.81.23-20.72.37-4.72.1-9.39 1.11-14.2.85-5.72-.32-5.78-3-5.55-8 0 0 .06-1.24.13-2.76s2.42-2.94 5.25-3.16c17.18-1.29 34.66-1.25 51.92-1.89a15.13 15.13 0 0 1 4.41.26c4.04 1.02 4.97 5.92 3.83 9.5zm0-19.93v.81c0 1.68 0 3.72-1.67 4.67-2.79 1.65-6.55.43-6.56-3v-3.4c0-3.73-.47-11.76-1-17.84-1-10.66-1.55-21.35-2-32-.2-5.31-.36-10.62-.42-15.94 0-4.06-2-10.07 3.6-11.11 1.27-.23 4.29-.46 5.47.3 1.71 1.1 1.59 4.53 1.61 6.28L675 255q.13 10.41.28 20.83c.04 2.88.16 5.81.13 8.72zm-31.3-106.7a16.89 16.89 0 0 0 0-2.56 39.76 39.76 0 0 1-.39-5.68c.07-2.05-.24-8 1.75-9.42 1.69-1.17 10-8.06 19-15.8a27.18 27.18 0 0 1 3.85-2.74c.82-.48 2-1.63 2.93-1.75 3.19-.41 2.94 6.45 2.94 8.23 0 9.42-.59 18.79-.88 28.23 0 1.65-.16 3.48-1.33 4.65s-3 1.31-4.68 1.36l-16.57.51c-2.14.06-4.62 0-5.92-1.72a4.79 4.79 0 0 1-.7-3.32zm13-33.42c-11.91 10.24-13.07 10.77-13.05 6 0-1.79-.56-7.58-1.25-12.85 0 0-.28-2.15-.62-4.8-1-7.4 7.3-12.5 12.2-16.74q5-4.32 10.29-8.3 2.64-2 5.35-3.89c3.46-2.41 3.72 3.64 3.72 6q0 7.42-.07 14.85a16.18 16.18 0 0 1-.65 5.46c-1 2.78-4.14 4.14-6.28 6q-4.82 4.12-9.65 8.26zm14-74.69-1 1.51c-.58.83-4.32 1.51-8.37 1.51h-14.95c-8 0-16 .11-24.06-.23-1.44-.06-3.61.15-5-.42-3.68-1.56 1.31-4.47 2.75-5.67 2.74-2.28 5.4-4.67 8-7.1 12.57-11.59 25.23-23 37.24-35.12 1.28-1.23 2.57-2.5 4.28-2.83 4.42-.87 3.86 5.2 4 8 .25 3.92.29 7.85.25 11.77-.09 7.84-.31 15.86-1.67 23.6-.28 1.61-.51 3.6-1.46 4.97zM635.4 9.87c36.18.57 36.18.63 3.34 30.18-3 2.73-9 8.38-13.19 12.53s-9.95 9.61-12.73 12.12c-8.38 7.56-8.29 7.84-8.12-26 .17-33.24-3.94-29.38 30.7-28.83zM608 665c.19 8.3.33 22.32.32 31.17 0 6 1 13 0 19-.81 4.56-4.49 2.91-7 .73a61.73 61.73 0 0 1-6.69-7c-2.44-2.83-2.57-5.64-2.75-9.4-.38-8.41 1-16.77 1.23-25.17.38-12.63.53-25.28.33-37.92-.17-10.23-10.93-504.21-10-528.35.33-8.47 2.61-16 10.76-20.41a5.22 5.22 0 0 1 3.55-.79c3.39.82 2.28 8.11 2.35 10.61.09 7.93 6.13 489.6 7.9 567.53zM588.65 13.75c.18-2.38 1.45-4.3 2.84-4.29h5.02c1.39 0 2.64 3.37 2.79 7.52l.5 13.5c1 26.76.43 33.74-2.82 36-2.65 1.84-6.25 2.15-8.38.7-1.46-1-1.62-30.85-.27-49.18zm-70.82-3.53 4.28-.33c4.7-.36 20.14-.75 34.32-.85l18.77-.14c3.87 0 7.14.77 7.32 1.79l.32 1.83c1.31 7.47 2.43 7.18-28.41 7.29-15.29 0-30.43.44-33.65.87-6.62.88-7.41.2-7.29-6.36v-1.89c0-1.05 1.98-2.03 4.34-2.21zM535.35 46c10.69.17 25.54.37 33 .44l6.79.07c2.38 0 5.84.89 6.83 3.39.45 1.13 0 2.11 0 3.26 0 1.86.67 3.62.55 5.52a8.36 8.36 0 0 1-2.76 6c-2.22 1.8-5.34 1.86-8.2 1.83L522.45 66c-2.24 0-4.69-.13-6.38-1.6a6.45 6.45 0 0 1-2-4.69c-.07-2.37.43-4.27.09-6.61a10 10 0 0 1 0-2.94 4 4 0 0 1 2.36-3.24c2-1 4.56-.92 6.7-1 4.07-.08 8.1.08 12.13.08zm28.86-3.31L520 42.5a10 10 0 0 1-4-.57c-3.09-1.38-2.46-5.69-2.45-8.44v-2.83c0-1.32.6-3.11 1.85-3.71a6.84 6.84 0 0 1 2.92-.45l34.35-.28 17-.13c2.89 0 5.79 0 8.69-.07 2.55-.07 3.6.63 3.6 3.48v3.94c0 1.89.6 5.87-.63 7.47-1.67 2.15-6.65 1.87-9 1.86zM506.7 10a4.9 4.9 0 0 1 1 2.07 62.09 62.09 0 0 1 .83 8.82c.52 8 .77 16 .87 23.94.06 4.37.08 8.74-.07 13.11-.06 1.78.28 4.88-.7 6.49-2.07 3.4-9 3.95-10.49.84-.5-1-1.25-12.57-1.66-25.62l-.63-19.46c-.1-3-1.75-9.77 1.22-11.46s7.51-1.26 9.63 1.27zm-14.53 41.39c-.63 3.66-1.59 3.49-5-.85-1.55-2-4.73-5.57-7.08-8-5.72-5.82-5.52-6.15 3.52-6.08h3.89c2.15 0 4 1.38 4.2 3l.3 3a44.07 44.07 0 0 1 .17 8.93zm-31.48 9.48c-2-1.76-6.54-5.46-10.05-8.22Q444.81 48 439.33 43c-1.74-1.6-5-3.57-1.87-5.44 3.69-2.23 9.33-1 13.4-1.16l9.45-.3c3.86-.12 8.16 1 9.6 2.46l2.6 2.67C489.78 59 492.49 63 488.34 64.6c-1.67.64-13.17.57-20-.13a13.93 13.93 0 0 1-7.65-3.6zm-44.39-9.31c-.19-2.36-.43-4.72-.65-7.07-.16-1.71-1.38-4.23-.14-5.73a3.8 3.8 0 0 1 2.55-1.07c3.83-.47 8.66.24 11.68 2.77l4.06 3.39c4.85 4.06 9.77 8.09 14.37 12.45a57.38 57.38 0 0 1 4.92 4.54c2.44 2.95.83 5.61-2.77 5.6h-24.9c-2.27 0-4.75-.07-6.48-1.55s-2.22-4.17-2.27-6.56-.19-4.51-.37-6.77zM487.73 9c1.31-.95 2.56-1 3.44.8 1.06 2.19.32 5.92.31 8.3v8.26a4 4 0 0 1-.62 2.62 4 4 0 0 1-3.06 1l-12.3.48a4 4 0 0 1-2.8-.59 2.73 2.73 0 0 1-.08-3.59c1.12-1.49 2.83-2.41 4-3.95 1.65-2.13 3.54-4.1 5.33-6.11.89-1 3.43-5.5 5.78-7.22zM461 8.79h6.62c3 0 6 0 9 .2 3.44.28 2.49 3.13.69 5.3l-7.38 8.9a18 18 0 0 1-5.31 4.89c-2.23 1.15-4.82 1.31-7.33 1.46l-17.79 1a6.08 6.08 0 0 1-2.33-.16 2.1 2.1 0 0 1-1.49-1.66c-.09-1 3.7-3.8 4.54-4.67q3.26-3.39 6.43-6.85l3.85-4.2c2.14-2.32 6.85-4.21 10.5-4.21zm-47.45.74c.78-.86 3.4-.69 4.41-.76 3-.21 6-.25 9-.26 3.3 0 6.61.05 9.91.2s6.16.87 4.41 5a12.12 12.12 0 0 1-2.74 3.64c-1.77 1.8-22.25 22-24.37 13.83-.72-2.65-1.17-20.99-.61-21.65zm-12.92-.73c8 .75 7-1.4 8.35 17.48.35 5 1 12.93 1.55 17.62 1.07 10.11.34 18.05-1.86 19.92-5.8 4.95-12.59.63-12.84-8.2-.1-3.35-.74-14.68-1.43-25.18C392.87 7 392.57 8.05 400.63 8.8zM322.37 12c.08-2 3.28-3.53 7.14-3.5l24.6.22c6.45 0 12.9.17 19.35.4 3.59.13 12.11-1.39 13.88 2.54a15.34 15.34 0 0 1 1 5.1c.29 4.26-1.63 5.82-5.46 6-2.85.16-5.71.24-8.57.32-7.85.23-15.71.33-23.56.38-8.5.06-17.6.84-26-.4-2.75-.4-2.81-.56-2.51-7.53-.02.04.04-1.53.13-3.53zm36.34 15.34 23.17.12c3.86 0 7.15 1.72 7.33 3.8l.34 3.76a23.93 23.93 0 0 1 .31 5.4C389.05 45.76 377 44 373.24 44q-11.69.06-23.37-.09c-6.11-.07-12.22-.15-18.32-.35-2-.07-5.23.84-7-.38-2.24-1.52-1.91-5.54-2.13-7.84 0 0-.14-1.57-.32-3.51s.43-3.64 1.37-3.79l1.7-.27c1.83-.34 16.95-.5 33.54-.42zm32.68 24.46v3.7c0 5.87-.37 7.72-1.84 9.05-1.62 1.47-5.36 1.66-32.23 1.66h-23.38c-3.87 0-7.31-.73-7.68-1.63a28.43 28.43 0 0 1-1.72-12.23 6 6 0 0 1 .72-3.09c1.59-2.42 7.88-1.34 10.33-1.34l30.66.1 18.14.06c3.87.03 7 1.69 7 3.73zM318.55 31q.18 5.91.35 11.83c.14 4.42.06 8.85 0 13.28 0 2.64 1.1 8.86-1.7 10.5a7.92 7.92 0 0 1-4.3.69l-3.18-.1a3.63 3.63 0 0 1-2.36-.62c-1.28-1.13-.44-3.31-.48-4.78q-.66-23.9-1.33-47.79a8.34 8.34 0 0 1 .45-3.69c1.45-3.27 10-2.55 11.45.59a8.71 8.71 0 0 1 .57 3.41q.27 8.38.53 16.68zm-17.19 20.38c.15 1.78 1.17 7.07-.72 8.26a2.69 2.69 0 0 1-2.54 0 9 9 0 0 1-2.11-1.6 46.1 46.1 0 0 0-5.34-4.2C273.31 42 273.21 41.34 288.66 41c12.19-.33 11.73-.71 12.7 10.38zm-49.92-9.56 8.39-.28c3.87-.13 8.28.76 9.86 2l2.86 2.22c3.15 2.43 9.12 6.9 13.26 9.92 12.06 8.8 11.54 8.28 10.09 10-1.06 1.27-4.22 1.54-18.08 1.54H268c-4 0-6.61-.47-9.89-2.92-2.86-2.14-5.25-4.84-8.09-7-19.12-14.61-19.1-14.8 1.42-15.48zm1.32 24.54a1.51 1.51 0 0 1-.5.94 4.62 4.62 0 0 1-3.12.89l-14.14.42c-1.79.06-3.83 0-5-1.32a6.21 6.21 0 0 1-1.18-3.51c-.44-3.51-1.22-7-1.67-10.48-.2-1.6-.92-4.28-.15-5.74 1.12-2.11 2.89-.88 4.2.06 2.44 1.76 4.74 3.74 7.06 5.66 5.42 4.49 10.88 8.84 12.12 9.67.93.62 2.53 2.1 2.38 3.41zm43.74-55.11c1.51-1.3 3-2 3.89-1.05a3.32 3.32 0 0 1 .55 2.41c-.21 6-.4 11.92-.64 17.88-.18 4.59-2.18 5.07-6.39 5.47s-8.28.59-12.41.64c-2 0-4.8.81-4.26-2.09.39-2 2.44-3.7 3.72-5.18 2.81-3.24 7.51-8.8 10.46-12.35a46.78 46.78 0 0 1 5.08-5.73zm-25.82-2.46c3.55-.14 7.09-.19 10.64-.17 1.88 0 8.32-1.46 8.58 1.36.15 1.57-2.54 4-3.43 5.11-5 6-10.46 11.62-15.88 17.23l-2.19 2.28c-1.21 1.25-5.32 2.42-9.19 2.61l-7.09.34c-16.8.8-16.79.81-10.69-6.93 3.13-4 6.23-7.95 9.27-12 2.28-3 4.83-7 8.51-8.48A21.2 21.2 0 0 1 265.8 9c1.63-.07 3.25-.15 4.88-.21zm-29.35-.4a18.6 18.6 0 0 1 4.73.61c4.31 1.24 1.66 5.46 0 7.89-2.65 3.93-6.11 7.24-8.8 11.11a35.65 35.65 0 0 1-9 9.34c-3.78 2.49-3.12-3.93-3.21-6.05q-.28-6.42-.55-12.85c-.1-2.33-.17-4.82 1-6.85 1.51-2.66 3.9-2.67 6.74-2.78s6-.49 9.09-.42zm-26.68-.32c3.23-.2 4.41 2.76 4.69 5.44a318.83 318.83 0 0 1 1.78 32.84q0 8.24-.38 16.45c-.11 2.29.08 3.37-2.35 3.48-1.52.06-3.1-.06-4.62-.06-1.76 0-3.32-.89-3.48-2l-.29-2c-1-7.07-2.6-30.12-2.87-42.06 0 0 0-2.61-.12-5.82s1-5.9 2.46-6l2.59-.16zm-16.17 58.58c-.71.07-1.43.09-2.13.1-11.83.19-23.66.6-35.49.16-1.85-.07-4.4.32-5.52-1.45-1.4-2.2-.84-6.24-.11-8.54s1.62-2.39 3.88-2.59c5-.44 10.07-.47 15.09-.64 7.66-.26 15.65-.09 23.19-1.16 1.6-.22 3.49 0 4.43 1.26a5.4 5.4 0 0 1 .68 3.21c0 2.19.33 4.69 0 6.85s-1.83 2.57-4.02 2.8zm-43.62-56.52a4.43 4.43 0 0 1 2.74-1.24c8.72-1 17.84-.7 26.65-.79 4.13 0 13.26-1.95 15.59 2.57a12.4 12.4 0 0 1 1 4.92c.19 2.9.18 6.28-2.08 8.11-1.52 1.24-3.64 1.36-5.6 1.43l-19 .65c-3.11.11-6.41-.09-9.48.33a22.48 22.48 0 0 1-6.66.38 5.31 5.31 0 0 1-3.9-2.31 7.93 7.93 0 0 1-.69-4.41l.2-5.41a6.52 6.52 0 0 1 1.07-4.08zm13.88 20.39c9.06-.32 18.16 0 27.23.09 1.65 0 3.43.07 4.72 1.1 1.69 1.33 1.91 3.77 2 5.92.1 2.52.17 5.14-.86 7.44-2 4.42-7.09 3.75-11.14 4-5.73.29-11.46.5-17.19.68-4.83.15-10 .73-14.74.31a5.24 5.24 0 0 1-3.76-1.9c-1-1.38-1.05-3.25-1-5l.18-8.07a6.06 6.06 0 0 1 .32-2.16c.86-2.07 3.86-1.82 5.69-2 2.81-.17 5.69-.31 8.55-.41zm106 42.33c107.57-.31 233-.83 250.14-.45 19.93.45 39.93.7 59.82 2.07 2.07.14 5.33-.37 6 2.1a6 6 0 0 1-.5 3.8 24.72 24.72 0 0 1-11.1 12.54c-7.9 4.3-17.63 2.7-26.39 2.74l-18.71.08q-25.4.1-50.8.17l-63 .17-68.74.16-68 .15-60.81.14-47.14.12c-9 0-18 0-27 .1a20.63 20.63 0 0 0-3.93 0c-1.1.22-24.42 0-27.47.24-12.39.84-22.62-.21-26.08-4.84-.7-.93-3.41-4-6-6.89-1.93-2.12-6.36-5.42-4.6-8.57 1-1.85 3.44-2.39 5.34-2.75 4.6-.85 9.26-.09 13.88-.15 22.58-.28 45.17-.41 67.76-.54Q221 73 274.75 72.85zM102 66.31c-1.94 1.58-8.29.82-10.09.74-2.68-.13-2.83-2.33-3-4.76-.23-3.3-.45-6.59-.68-9.89a3.29 3.29 0 0 1 .57-2.6c2.21-2.16 7.26 5 8.22 6.2 1.52 2 6.39 6.75 5.49 9.6a1.52 1.52 0 0 1-.51.71zm1.63-22.89c4.88 3.28 9.14 7.9 13.37 11.95 2.46 2.35 4.91 4.73 7.29 7.17.73.74 5 3.74 2.72 4.8a3.4 3.4 0 0 1-1.27.22c-3.82.17-10.11 1.2-13.62-.68-2.89-1.55-5-5.51-7.06-8-3.75-4.5-8.28-9.78-10.07-11.74-5.43-5.95 1.13-8.79 8.68-3.72zm44.61-11.79c.07 4.12.19 10.8.27 14.92s.16 9.13.24 13.22-.73 7.46-1.79 7.46h-3.84c-1.06 0-2.08-3.34-2.26-7.46l-.48-10.5c-.44-9.88-.83-23-.86-29.21v-5.63c0-3.11.82-5.7 1.86-5.79l1.89-.17c4.47-.39 4.56-2.1 5.01 23.16zm-12.07 25c.4 11-1.57 10.23-19.34-7.18-7.67-7.51-8.16-6.94 6.24-7.55l5.93-.3c3.25-.14 6 .57 6.14 1.57l.27 1.82c.27 2.01.64 7.21.8 11.59zm-2.55-42.43c.08 2.77.43 8.73.79 13.24s.25 8.47-.28 8.84c-1.74 1.22-24.28 2.21-24.28 1.06 0-.6 4.28-5.93 9.52-11.83 2.54-2.87 5-5.82 7.33-8.89 1.71-2.25 6.73-9.51 6.92-2.42zm-20.75-6.26a25.1 25.1 0 0 1 4-.15l7.8.13a3.3 3.3 0 0 1 2.28.63c1.33 1.3-2.18 4.13-3 4.94-1.94 1.9-8 8-13.36 13.6-8.73 9-10.29 10.18-13.93 10.39-5 .29-6.07-1.76-2.88-5.32 1.24-1.38 5-7.34 8.48-13.26 2.19-3.78 4.53-9.23 9.08-10.62a9.12 9.12 0 0 1 1.53-.34zm-10.64 3.25a24.6 24.6 0 0 1-3.38 5.67c0 .81-1.84 2.71-2.31 3.4L94 24c-.68 1-3 5.4-4.62 4.06-1-.84-1.16-3.63-1.23-4.89-.16-3-.2-6-.29-9.08 0-1.61-.62-3.62.44-5s2.77-1.37 4.34-1.38h7.61a4.11 4.11 0 0 1 1.4.16 1.34 1.34 0 0 1 .89 1 5.68 5.68 0 0 1-.31 2.32zM83.92 29l.22 32.43a8.23 8.23 0 0 1-.5 3.57 4.29 4.29 0 0 1-5.44 2c-2.14-1.09-2.43-4.65-2.52-6.77l-.43-9.84q-.42-10-1.26-19.91c-.52-6.21-1.55-12.73-.08-18.87a6.48 6.48 0 0 1 1.45-3.11c2-2 5.69-1 7.18 1.4 1.23 2 1.28 4.44 1.3 6.77zM71.35 85a2.75 2.75 0 0 1 2.15-1.91c3.46-.71 6.92 5.19 8.83 7.26 5.52 6 6.38 9.68 6.92 29.89.25 9.27 6.75 536.51 7.13 549.76.73 28 .86 27.35-8.15 36.91C85 710.36 81 717.74 76.19 719c-6.51 1.76-5.39-6.47-5.54-10.43-.25-6.66-.37-13.32-.52-20-.28-13 .74-594.83 1-596.76.16-1.69-.5-4.81.22-6.81zm-33-77.21L59 7.47a11.16 11.16 0 0 1 4.78.62C68 10 68 19.24 68.39 23.12c.86 7.89 1.41 15.82 1.73 23.75.6 15.23.53 15.32-5.5 7.54C60.76 49.41 45 30.46 43.5 29c-.28-.28-3.45-3.9-7-8s-7.36-8.3-8.39-9.24c-4.62-4.25 4.76-3.86 7.23-3.9zM31.47 515l25.79-1.07c1.8-.07 4.8-.32 5.88 1.47.85 1.41 1.11 4.48 1.13 6.08a6.73 6.73 0 0 1-2.11 5.26c-1.71 1.44-4.14 1.57-6.37 1.62l-41.39 1c-1.66 0-3.45 0-4.8-.93-2.89-2.08-1.39-9.74 1.14-11.56 1.51-1.09 3.49-1.21 5.36-1.29zm25.31-354.63c7.48-.52 8 .16 7.06 9.51 0 0-.17 1.67-.37 3.73s-3.51 3.74-7.37 3.76l-13.4.07-14 .08-13.4.07c-3.87 0-7-1.49-7-3.37v-3.42c0-8.6-1.23-8.11 23.12-9.17 10.79-.47 22.2-1.04 25.36-1.26zm-29.93-74 2.24-.18c6.15-.49 5.85-2.29 5.85 35.87v27.19c0 3.86-1.07 7.07-2.39 7.15l-2.38.15-2.39.16c-1.32.08-2.42-3-2.46-6.85l-.08-7.89c-.09-8.18-.27-24-.4-35.15l-.15-13.27c-.05-3.9.92-7.11 2.16-7.21zm14.6 70.18a3.06 3.06 0 0 1-1.93-1.55c-1-1.6-.94-3.59-.88-5.47.42-13 0-26 .27-39 .63-26.22.42-25.44 6.55-24.4l2.21.38A3.29 3.29 0 0 1 50 89.63l.12 2.75c.14 3 .53 16.28.89 29.44.18 6.81.4 13.63.71 20.44.15 3.42 1.94 10.79-1.27 13-1.93 1.3-4.37 1-6.5 1.28a7 7 0 0 1-2.5-.02zm-4 520.32v-5.17c0-2.84 1.2-5.91 2.69-6.86l2.68-1.72c3-1.89 8.22-5.53 11.68-8.07 8.67-6.39 9.06-6.26 9.24 3.15.35 18.22.3 18.52-3.88 22.29-2.1 1.89-7.08 6.53-11.08 10.31-10.62 10.06-11.29 9.2-11.32-13.96zm19.69-30.48c-3.56 3.14-7.65 5.71-11.44 8.78-2.05 1.67-7.77 7.21-7.85.92 0-3.85 0-7.73-.15-11.59-.15-3.24-.17-8.45 3.48-9.87a11.69 11.69 0 0 1 4.13-.55l14.7-.17c1.42 0 3.12.12 3.83 1.35s.1 2.55-.53 3.68a27.9 27.9 0 0 1-6.16 7.42zm-1.23-36.17h-2.07c-1.14 0-2.23-1.21-2.41-2.71l-.34-2.71a147.46 147.46 0 0 1-.15-17.85c.29-6.83.66-22.38.81-34.54 0-3.68.12-7.35.25-11 .09-2.51-.63-6.64 2-8.07a8.43 8.43 0 0 1 4.17-.73 6.47 6.47 0 0 1 3.06.55c3.09 1.66 1.69 10.67 1.71 13.66q.06 7.66 0 15.33c0 9.63-.13 19.26-.37 28.88-.11 4.35-.22 8.7-.48 13 0 .79.21 4.77-.61 5.29s-3.27.87-5.56.87zM55 509.1l-9.22.31c-1.89.07-3.9.1-5.54-.84-3.34-1.92-1.7-7.66-1.68-10.78 0-5.06.84-8 4.76-11.45 2.45-2.15 4.85-4.37 7.21-6.61 12.61-12 12.4-11.92 13.25-1.26.68 8.33.58 16.61.55 25a6.13 6.13 0 0 1-.93 4c-1.1 1.33-3 1.5-4.77 1.55zm-39.17-222c-1.91.25-3.06.57-4.43-.81A10.32 10.32 0 0 1 8.76 281a6.89 6.89 0 0 1 2.46-6.75c1.8-1.27 4.14-1.35 6.33-1.38l38.08-.57a9.68 9.68 0 0 1 4.45.64c2.8 1.39 2.27 5 2.16 7.54a3.69 3.69 0 0 1-3.42 3.52l-3.26.13c-3.6.13-13.1.73-21.12 1.32s-16.39 1.34-18.61 1.63zM37 383.72a3.39 3.39 0 0 1-1.14-.81c-1.36-1.55-.71-3.9-.82-5.76-.38-6.49-.59-13-.77-19.49-.45-15.7-.71-31.41-.65-47.12q0-4.43.1-8.83c0-1.2 0-2.4.08-3.6.06-1.56-.69-3.93 0-5.22a4 4 0 0 1 2.47-1.8 11.58 11.58 0 0 1 3.11-.31 10 10 0 0 1 4.38.6c3.95 1.85 2.7 10.21 2.79 13.91l.33 13.51c.39 16.2 1 37.72 1.25 47.81.08 2.69 2 16-1.65 16.51l-5.26.77a11.29 11.29 0 0 1-2.84.18 4.51 4.51 0 0 1-1.38-.35zm-6.81-1c-.69 1.82-2.1 2.77-4.82 1.43-3.34-1.63-2-7-2-10-.12-6.37-.18-12.73-.22-19.1q-.14-22.69 0-45.4 0-4.9.12-9.82c0-2.54-.87-7.72 2.24-8.33 4.4-.87 4.41 2.43 4.41 5.75v31.53c0 21.2.24 41.11.54 44.26.17 1.96.81 6.89-.26 9.71zm1.87-182.21c-.08 3-1.62 4-3.44 2.23l-3.3-3.11c-3.51-3.33-7.1-6.58-10.79-9.71-1.21-1-4.34-2.72-4.85-4.22-.89-2.56 2.49-2.69 4.05-2.86 2.52-.26 5.06-.38 7.6-.45 1.78 0 3.55-.24 5.33-.25 2.15 0 4.53.35 5.44 2.68 1.06 2.71.18 7.46.1 10.34.01.03-.05 2.43-.13 5.38zm-22-7.42a1.34 1.34 0 0 1 1.18-.3c.8.17 1.88 1.32 2.51 1.83a71.08 71.08 0 0 1 6.2 5.7 76.3 76.3 0 0 1 11.34 13.87c2.11 3.5 2.19 4.4 1.53 16.84-.79 15-.59 14.75-7.7 8.36-2.92-2.63-7.44-6.36-10-8.29s-4.93-4.2-5.19-5c-1.45-4.71-.94-10.64-1.1-15.5-.1-2.07-1.43-15.22 1.23-17.48zm21.55 74.13c-.82.48-1.85.23-3 .26l-12.61.28a10 10 0 0 1-5.15-.81 6.71 6.71 0 0 1-3.06-4.83c-.51-2.95.11-6.19.07-9.19l-.12-10.27c0-2.14 0-7.27 2.86-7.89 1.11-.24 2.55.86 3.38 1.42 5.19 3.5 9.58 8.49 13.9 12.95 3.4 3.52 5.17 9.82 5 14.63a5.9 5.9 0 0 1-.56 2.85 2 2 0 0 1-.71.63zm-21.22 26.55a4.43 4.43 0 0 1 2.38-2.2c4.8-1.83 5.52 3.32 5.8 6.62.5 5.94.41 11.94.5 17.9.19 12.72.55 31.27.8 41.22.13 5.51.27 11 .34 16.52 0 2.85 1.15 8.68-1.56 10.59a6.08 6.08 0 0 1-2.45.89 7.21 7.21 0 0 1-5.28-.81c-2.74-1.86-1.33-5.48-1.37-8.24-.06-3.28-.1-6.55-.13-9.83q-.13-12.94-.12-25.9v-39.11c0-2.22-.08-5.42 1.09-7.65zM44.22 243c-.29.15-.58.3-.88.44-6.52 3.12-5-8.21-5-11.67 0-4.74-.09-9.48.11-14.22.09-2 1.71-4.19 2.78-5.82a88.37 88.37 0 0 1 6.32-8.35c1.77-2.1 12-15 15.15-12.42 1.05.89 1.24 2.43 1.33 3.8a166.28 166.28 0 0 1 .22 17.58c-.18 4.65.4 10.44-2.52 14.26-4.52 5.86-10.73 12.86-17.51 16.4zm16.11 22.19c-3.6 1.33-19.72 2.16-20.41 1.05-4.07-6.58-.94-14.47 8.22-20.72 2.28-1.56 6.25-4.59 8.82-6.74 5.81-4.86 5.5-5.33 5.63 8.46.18 17.66.26 17.02-2.26 17.95zm-9.91-70.66c-12.26 12.31-11.52 12-12.39 4.38-1.64-14.54-.55-16.06 12-16.64 12.72-.6 12.74-.13.39 12.26zM53 291a3 3 0 0 1 1.72-.45h3.5c4.55.08 4.34 3.26 4.4 6.74 0 2.72.07 5.44.08 8.16V327c-.09 14.75-.23 29.5-.62 44.25-.08 2.81.42 6.37-.23 9.11s-4 2.42-6.27 2.72c-1.08.14-2.37.19-3-.67a3.13 3.13 0 0 1-.45-1.79c-.39-9.31-.51-18.67-.69-28-.29-15.16-.45-30.31-.66-45.47 0-3.11.11-6.16.21-9.24.01-2.4-.3-5.45 2.01-6.91zm10.53 166c-.44 2.68-1.09 5.24-3.25 7.35L57 467.49c-3.64 3.55-8.69 8.61-11.22 11.23-7.51 7.79-8 6.86-8.5-17.07 0 0-.07-3-.15-6.65s.56-7.16 1.43-7.79l1.57-1.15c1.73-1.25 7.15-5.56 12.06-9.57 2.25-1.85 7.91-8.23 10.84-4.22 1 1.39 1.08 3.23 1.1 5 .08 5.12 1 11 0 16-.24 1.21-.4 2.44-.59 3.65zm-8.6-347L55 93.84c0-3.87 1.08-7.07 2.37-7.15l2.33-.15c4.42-.29 4.67-.17 5 2.51v.44c.81 11.39 0 23.09-.2 34.5-.12 6.85-.26 13.71-.47 20.57-.07 2.25-.14 4.5-.26 6.75-.17 3.17-.81 4.66-4.61 4.6a3.38 3.38 0 0 1-2.62-.95 4.07 4.07 0 0 1-.62-2.62c-.01-14.11-1.07-28.21-.99-42.34zM20.61 411a27.11 27.11 0 0 1 8.3.7c3.49 1 3.2 3.8 2.93 7-.14 1.66-.29 6.75-.34 11.32 0 2.05 1 9.31-2.81 7.22-5.37-3-9.24-8.77-13.19-13.31-1.89-2.16-7.61-6.62-7-9.77a3.54 3.54 0 0 1 2.35-2.46 10.41 10.41 0 0 1 3.52-.43c1.99-.08 4.11-.27 6.24-.27zm4.93 30 3.29 3.12a13.65 13.65 0 0 1 3.62 7.75l.33 4.62c.36 5.07.65 12.1.65 15.61 0 7.44 0 7.43-6.53 2.25-2.77-2.18-7.52-5.63-10.56-7.66A15.41 15.41 0 0 1 8 455.57c-.63-3.16-.06-6.89 0-10.11 0-3.57.1-7.15.14-10.72 0-2-.46-5.32 2.07-6 2.24-.57 4.63 1.76 6 3.19s5.7 5.62 9.33 9.07zM8.8 396.29a6.39 6.39 0 0 1 1.58-3.86c1.93-2.09 5.11-2.27 7.94-2.32l28.68-.48 7.06-.11c1.88 0 4.37-.56 6.07.47 2.28 1.36 1.72 4.8 1.69 7.09-.12 7.95 1.6 7.22-20.1 8.64-8.73.57-17.67 1.68-26.43 1.22-4-.21-7.11-1-6.63-5.59.13-1.62-.03-3.35.14-5.06zm47.26 13.49c3.33-.1 6.09 1.07 6.17 2.63l.14 2.8c.31 6.29 1.38 5-16.33 20.53-10.7 9.42-10.6 9.51-10.6-9.1 0-17.23-.89-16.21 14.58-16.68zm-9.91 194.86c-1.32 5.19-6.15 8.51-7.24 5l-1-3.16c-1.13-3.5-.41-45.9 1.11-66.34.13-1.65-.16-3.64 1.11-4.91a4.87 4.87 0 0 1 2.63-1.28c2.5-.43 4.61.14 4.83 2.65.13 1.41.08 2.85.11 4.26.07 3.56.09 7.13.09 10.7q0 12.68-.26 25.36c-.12 6-.28 12-.56 18-.15 3.08.03 6.62-.82 9.72zm-17.32-69.56a8.12 8.12 0 0 1 3.87.23c1.86.85 1.85 4.23 1.82 6l-.23 12.6c-.19 10.79-.28 28-.2 38.35l.09 11.74c0 3.86-.76 7.13-1.77 7.3l-1.84.3c-5 .83-8 .78-8.52-.12-.4-.67-.16-2.24-.18-3-.07-2.45-.09-4.91-.11-7.36q-.09-11.36 0-22.7 0-11.67.15-23.35c.05-5.08-1.87-17 4-19.3a13.58 13.58 0 0 1 2.92-.69zm32.11 80.21a3.13 3.13 0 0 1 1.32 1 8.93 8.93 0 0 1 1.23 4.85c.11 2.07.15 4.38-1.23 5.93s-3.84 1.77-6 1.83l-41.04 1.2a9.69 9.69 0 0 1-4.82-.7 5 5 0 0 1-2.26-5.5c.37-1.65.68-4.48 1.84-5.74s3.3-1.49 5.14-1.53l26.14-.6 13.28-.31c1.98-.04 4.52-1.2 6.4-.43zm-27.51 68.39c0 2.58 1.31 10.87-2.25 11.51s-6.94-3.56-9.46-5.3c-4.48-3.1-9.82-5.57-10.36-11.58-.26-2.94-.4-5.89-.51-8.83-.13-3.26-.21-6.51-.2-9.77 0-2-.18-7.17 3.41-5.49a18 18 0 0 1 3.47 2.84c3.12 2.67 6.15 5.46 9.13 8.3 1.45 1.38 3.36 2.62 4.64 4.14 2.8 3.31 2.13 10.18 2.13 14.18zM10.21 638a3.36 3.36 0 0 1 .78-2.7 3.62 3.62 0 0 1 2.4-.61l11.71-.16c2.06 0 4.53-.11 5.23 2.1a27.2 27.2 0 0 1 .41 4.66c.49 4.61.84 9.24 1.21 13.87.74 9 1 9-10.53-1.32-2.73-2.44-5.58-4.74-8.33-7.15-2.37-2.05-2.79-5.6-2.88-8.69zM13 690.19c3.06.8 7.5 5 8.9 6 11.89 8.11 16.92 16.14 11.31 18.08-2.28.79-5.19.44-7.55.52l-10.31.32c-1.47 0-3.17 0-4.06-1.18a4.6 4.6 0 0 1-.67-2.72q-.33-8.52-.67-17.05a6 6 0 0 1 .41-3 2.05 2.05 0 0 1 2.64-.97zm50.3 30.72c.95.62 1.49 1.77 1.65 3.94a4.3 4.3 0 0 1-1.41 3.72 6.41 6.41 0 0 1-3.9.91l-44.08.59a8.45 8.45 0 0 1-4.15-.64 4.32 4.32 0 0 1-2.22-4.24c.68-5.77 12-4.51 16.05-4.69q12.21-.54 24.42-.57c3.15 0 6.31 0 9.46.16 1.82.08 3.2.19 4.15.82zm-5.64-7.57C52 714 38.92 715.41 39.05 712c.07-1.59-.33-3.09.14-4.61a12.56 12.56 0 0 1 3-4.54c2.41-2.59 5.4-4.55 7.88-7.06 13.13-13.26 14.14-13.13 14.89 1.88q.22 4.35.21 8.7c0 2 .53 4.66-1.55 5.9a8.33 8.33 0 0 1-3.77.84c-.42.03-1.2.12-2.22.23zm-47.09-675-.26-21.25c0-2.07 0-4.26 1-6.06 3.78-6.59 10.61 1.74 13.4 4.61 1.17 1.22 2.32 2.47 3.46 3.73 6.53 7.24 12.7 14.84 18.73 22.52 2.91 3.71 5.79 7.45 8.58 11.25 2 2.67 7.88 9.23.87 9.42l-36.93 1c-2.15 0-4.49 0-6.19-1.27-2.22-1.73-2.44-4.94-2.48-7.75q-.11-8.11-.21-16.2zm6.73 30.71 39.84-.11a27 27 0 0 0 3.35.15c.73-.1 1.24-.56 2-.68a4.18 4.18 0 0 1 4 1.8c1.08 1.66 1.18 3.79 1.18 5.79s-.16 4-1.56 5.24-3.18 1.18-4.91 1.16l-45.55-.64a7.71 7.71 0 0 1-4.21-.86c-2.13-1.4-2-9.31.14-10.82 1.34-1 3.1-1 4.75-1zm-7.19 19.28A2.88 2.88 0 0 1 11.27 87a7.68 7.68 0 0 1 3.93-.57 6.81 6.81 0 0 1 3.17.61c1.77 1 1.21 3 1.39 4.62.3 2.91.67 18.81.82 35.34l.22 23c0 3.87-1.38 7.08-3.16 7.18l-3.22.18-3.22.18c-1.78.1-3.17-3-3.1-6.82l.51-27.37c.14-7.37.32-14.74.59-22.11.09-2.45-.58-9.67.91-12.91zm9.57 386.54c13.41 10.13 14.76 12.42 14.76 25.25 0 2.74.89 8.45-2.58 9.22-2.65.6-6 .17-8.71.24l-8.3.22a8.64 8.64 0 0 1-4.41-.65c-2.91-1.59-2.15-5.76-2.24-8.54-.13-4.16-.19-8.31-.32-12.47-.66-20.94.27-21.98 11.8-13.27zM13 535.46c4.74-.9 4.66-1.53 4.89 39.26 0 8.35.12 16.7 0 25 0 2.63 1 10.81-1.71 12.42a3.4 3.4 0 0 1-2.06.38c-4-.3-4.29-2.83-4.68-6-.34-2.79-.51-5.59-.67-8.39-.54-9.79-.7-19.59-.92-29.39 0-1.47-.07-3-.1-4.42-.54-28.6-.7-27.73 5.25-28.86zM8.64 788.92c-.58-.92-.28-3.1-.32-4.13-.11-3.13-.14-6.27-.18-9.41q-.12-12.09 0-24.2c0-2.76-1.09-12.47 1.39-13.93a7.09 7.09 0 0 1 3.75-.63l41.19.59a6.54 6.54 0 0 1 3.77.83c4.34 3.12-10 14.51-11.79 16.22-5.25 5-15.46 15.2-22.68 22.55-13.67 13.98-13.86 14.13-15.13 12.11zM66.72 801c-.6 1.4-1.77 2.2-4.17 2.18-4.85 0-9.69-.14-14.54-.21l-29.09-.41c-2.1 0-4.58-.27-5.63-2.09a4.15 4.15 0 0 1 .29-4.16c1.24-2 3.53-3.72 5.19-5.44q2.76-2.85 5.53-5.68 6.69-6.87 13.45-13.68 7.8-7.89 15.73-15.64c2.06-2 4.13-4 6.23-6 1.3-1.23 3.85-4.82 5.63-4.83 3.36 0 2.59 7.48 2.65 9.39q.21 7 .22 14.1 0 14.1-.79 28.18a13.18 13.18 0 0 1-.7 4.29zm5.21-5.93 1.26-51.69c.08-3.36 1.33-5.95 5-6.2 2.82-.19 6.45.7 8 3.22 1.11 1.78 1.09 4 1 6.11l-1.6 53.5c-.15 4.76-4.08 4.19-7.74 4.33a7.12 7.12 0 0 1-4.27-.74 4.75 4.75 0 0 1-1.86-3.22c-.24-1.74.21-3.49.21-5.27zm20.51-52.84a5.78 5.78 0 0 1 1.79-3.23c1.75-1.49 4.28-1.48 6.57-1.39l44.41 1.7c2 .07 4.08.2 5.63 1.41a6.42 6.42 0 0 1 2.19 4.86 36.81 36.81 0 0 1-.24 5.66c-.22 1.52-.78 1.58-2.26 1.86a35.64 35.64 0 0 1-5.27.39c-8.65.31-17.32.33-26 .33h-18.92c-1.9 0-6 .29-7.19-1.24-.85-1.12-.59-2.81-.59-4.1 0-1.68-.39-3.39-.28-5.09a7.4 7.4 0 0 1 .16-1.12zm1.19 28.61a10.77 10.77 0 0 1-.86-5c0-2.08 0-4.54 1.24-6.33s2.47-1.63 4.39-1.67c22.29-.5 33.51-.49 43.62 0l5.78.3c3.19.17 5.94 1.43 6.14 2.82l.36 2.51c.46 3.1 1.44 7.16-2.3 8.7a10.94 10.94 0 0 1-3.95.57l-46.85.88c-2.48.05-5.3 0-7-1.9a4.24 4.24 0 0 1-.57-.84zm48.91 5.83c4.56-.33 12.06-.68 12.06 2.91 0 2.94 1.09 8.36-1.62 10.19a9.75 9.75 0 0 1-5.19 1.16l-44.09 1.48c-2.76.09-6.1.22-8.41-1.58-2.14-1.68-1.37-5.41-1.45-8a6.92 6.92 0 0 1 .61-3.86c1.62-2.68 8-2.09 10.65-2.1h34.5c.58.03 1.64-.06 2.94-.16zm12.25 25.45c0 .09-.09.18-.14.27-1.25 2.3-3.74 2.4-6.05 2.4l-22.76.24-11.47.11c-5.35.06-12.05 1.1-17.2-.63-2.26-.76-4.16-3.14-3.52-5.43a4.81 4.81 0 0 1 3.15-3 14.25 14.25 0 0 1 4.47-.55c15.19-.22 30.2-.65 45.39-.44 2.85 0 6.14.31 7.75 2.65a4.58 4.58 0 0 1 .38 4.42zm7.78 1.92c-4.34-1.08-2.29-7-2.4-10.32-.08-2.77-.17-5.55-.26-8.32q-.27-8.52-.55-17.05l-.51-15.81c-.12-3.89-1.36-9.5.7-13.06 1.59-2.74 9-2.71 12-1.57s3.48 5 3.85 7.77c1.15 8.76 1 17.76 1.18 26.58l.36 15c.07 3 .16 6.48.23 9.5.1 4.13-1.42 7.48-3.4 7.48h-3.58c-1.6.01-5.13.47-7.62-.16zm22.77-52.68a134 134 0 0 0 11.74 10.36c1.26 1 9.41 6.44 6.91 8.38a3.69 3.69 0 0 1-2.25.52l-14 .25a7.45 7.45 0 0 1-4.21-.75c-2.36-1.49-2.06-8.56-2.39-11.15a73.48 73.48 0 0 1-.93-8.87c.03-2.44 2.45-1.84 5.13 1.3zm-3.5 28.53s0-1-.05-2.32 1.71-2.34 3.88-2.37h3.93c22.21-.24 22.33 0 6.47 14.27q-3 2.7-6 5.37c-1.31 1.15-3.17 3.53-4.82 4.12-3.47 1.26-3.08-4.14-3.12-6.12-.13-4.55-.24-10.36-.29-12.91zm7.45 22.77c0-1.41 6.94-8.23 15-14.76 2.53-2 6.18-5.31 8.11-7.27 5.33-5.4 35.28-9.1 37.81-4.66 1 1.82-12.19 14.61-28 27-3.28 2.69-32.92 2.39-32.92-.27zm49.52-7.55c4.56-3.87 11.11-9.78 14.56-13.13 6.08-5.91 10.55-8 15-7.1 1.89.39 2.07 1.55 3.54 23.82 0 0 .08 1.1.17 2.46s-3 2.5-6.84 2.55l-13.86.2c-24.07.38-23.66.66-12.57-8.76zm40.19 9.22c-2.15-1.47-4.17-26.15-4.58-55.86 0 0 0-2.18-.06-4.87s1.31-4.94 3-5c4-.21 10.43-2.19 12.61 2.41a11 11 0 0 1 .78 4c.85 13.26.67 26.81.64 40.19v9.94c0 2.31.77 5.88-.43 8-1.9 3.32-9.21 2.86-11.96 1.19zm24.5-66.08 29.9.43 29.89.43c3.79 0 7 1.27 7.23 2.71l.36 2.63c.71 5.11-.34 7.61-5.86 7.7l-58.53.93c-2.27 0-4.64 0-6.67-1a7.54 7.54 0 0 1-3.95-7.33 7.43 7.43 0 0 1 7.59-6.5zm27.78 19c10.86-.12 21.74-.38 32.56-.19 3.75.07 6.86 1.35 6.94 2.86l.15 2.73c.41 7.42 1.75 7-26.64 7.66-13.95.31-30.24.87-36.2 1.24-3 .18-10.15 1.92-11.69-1.89-.72-1.81-.62-4.89-.45-6.75.43-4.72 4-5.59 7.85-5.34 6.35.41 12.91-.19 19.28-.28 2.69.03 5.42.01 8.16-.01zm8.17 17.21c33.78-.57 30.23-1.59 31.35 9 .09.82.23 1.65.27 2.47.19 4.08-3.55 4.25-6.74 4.83s-6.58.12-9.69.15l-10 .08-40 .31a11 11 0 0 1-5.39-.87 7 7 0 0 1-3.35-5.23 8.63 8.63 0 0 1 2.46-7.26c2.69-2.62 6.22-2.11 9.59-2.44 2.63-.25 5.26-.39 7.89-.51 7.83-.27 15.7-.37 23.57-.5zm-28.79 30.78-8.13.13a8.94 8.94 0 0 1-4.76-.82c-2.27-1.36-2.77-6-.29-7.44 2.88-1.68 7.77-1.23 10.92-1.34 9.66-.33 19.33-.26 29-.3l27.44-.12c2.47 0 6.32.22 7.17 2.93 1 3.24-.21 6-3.76 6.06z" fill="#f87318" data-color="1"/>
        <path d="M288.56 366c.07.58.19 1.15.28 1.73s0 1.06.1 1.58a12.12 12.12 0 0 0 2.57 6.48c1.42 1.9 3.57 3.21 5.95 2.53a5.61 5.61 0 0 0 2.7-2 7 7 0 0 0 3.74-1.32 8.22 8.22 0 0 0 3-2.38 21.45 21.45 0 0 0 3.86-7.62 23.42 23.42 0 0 0 .76-7.17c.28-2.34.46-4.84-.48-7a14 14 0 0 0-3.42-7.4 17.49 17.49 0 0 0-2.31-3.37 7.58 7.58 0 0 0-4.38-2.5 2.81 2.81 0 0 0-2.24 0 7.64 7.64 0 0 0-2.12.62 12.23 12.23 0 0 0-5.37 6 22.63 22.63 0 0 0-1 3c-.06.15-.14.29-.2.44-.14.34-.18.72-.3 1.07v.14a23.17 23.17 0 0 0-.95 4.31c-.09.69-.14 1.37-.17 2.07 0 .38-.1.76-.09 1.14 0 .6.12 1.19.17 1.78a34.65 34.65 0 0 0-.1 7.87zm11-5.81c0 .35-.06.71-.1 1.06a.92.92 0 0 1 0 .17v.24a1.11 1.11 0 0 0 0-.19c0-.47-.05-.93-.07-1.4z" fill="#f87318" data-color="1"/>
        <path d="M391.12 369.06a7.86 7.86 0 0 0 3.66 3.52 5.19 5.19 0 0 0 5.12-.41 2.82 2.82 0 0 0 4.05 0c.23-.23.41-.5.64-.74a16.59 16.59 0 0 0 3.9-5c3.21-1.25 5.29-5.27 5.74-8.76.49-3.78-.57-7.83-3.42-10.17-1.09-4.55-3.66-9.09-8.32-9.66a5.27 5.27 0 0 0-1.59.13c-.14-.09-.25-.23-.4-.31a6.47 6.47 0 0 0-5-.74 7.31 7.31 0 0 0-3.77 3 16.89 16.89 0 0 0-1.82 3.75c-.13.32-.2.65-.32 1s-.15.44-.21.66c-.3.87-.62 1.73-.85 2.62a39.5 39.5 0 0 0-1.2 9.25 21.41 21.41 0 0 0 1.37 8.37 9.9 9.9 0 0 0 2.42 3.49z" fill="#f87318" data-color="1"/>
        <path d="M339.16 418.24a12 12 0 0 0-9.45 5.63 10.22 10.22 0 0 0 .09 10.06 14.84 14.84 0 0 0 .48 1.47 32.24 32.24 0 0 0 3.89 6.19c1.62 2.24 3.3 4.42 5.07 6.53a99.33 99.33 0 0 0 11 11.11 14.05 14.05 0 0 0 3.44 2.46 5.33 5.33 0 0 0 4.85-.31c2.33-1.38 3.56-4.28 4.85-6.59l8.73-15.63q2.16-3.87 4.33-7.74c1.23-2.21 2.47-4.47 2.57-7.09.06-.14.14-.28.2-.42a3.15 3.15 0 0 0-1.75-4.51c-.41-.12-.84-.15-1.25-.24a6 6 0 0 0-2.84-.92 21.52 21.52 0 0 0-2.89.14 27.3 27.3 0 0 0-6 .43l-15.56 1.08a23.7 23.7 0 0 0-9.76-1.65zm7.43 20.15c-.11-.17-.2-.35-.3-.52a9.37 9.37 0 0 0 .68.85v.15c-.12-.13-.32-.41-.38-.48zm1 1.13zm-1.51-2zm21-9zM345 430.38c-.43-.16-.82-.4-1.27-.54l1.45-.08c-.07.24-.13.41-.18.62zm-3.92-.06-.24-.32h.84a2.81 2.81 0 0 0-.6.32zm10.83 18.91a2.73 2.73 0 0 0 0 1.27l-1.43-1.57a2.73 2.73 0 0 0 1.43.3z" fill="#f87318" data-color="1"/>
        <path d="M542 488.38q-2.06-28-2.11-56.15c-.08-37.21 3.66-74.56.33-111.72-2.72-30.39-10.67-61.19-28.09-86.14-8.55-12.24-19.32-23.12-32.07-30.48a59.83 59.83 0 0 0-22.69-7.84c-8.39-1-16.93.17-25.11 2.18a178.79 178.79 0 0 0-41.66 15.84c-12 6.45-23.15 15-31.08 26.58a62.33 62.33 0 0 0-5 8.77c-1.2 2.53 1.39 6.06 4 4.2 9.58-6.79 21.17-9 32.47-10.37 11.85-1.42 24-2.2 35.88-.36 10.94 1.69 21.85 5.54 30.44 13C465 262.62 471 271.64 473.05 282a35.55 35.55 0 0 1-.61 15.66c-1.62 6.29-4.24 12.25-5.42 18.67-2.5 13.5-.34 27.22 2.17 40.53a695.55 695.55 0 0 1 11 82.51q1.39 20.86 1.49 41.81c.07 12.61-1.19 25.84 2 38.16a45.18 45.18 0 0 0 3.24 8.62 2.63 2.63 0 0 0 1.95 1.35c.47 2.54 4 4 5.28 1.15a360.1 360.1 0 0 0 25.6-78.81 368.17 368.17 0 0 0 7.17-82.29 355.78 355.78 0 0 0-3.54-41.63 200.31 200.31 0 0 0-9.68-40.3c-8.47-23.1-23.1-44.48-44.34-56.31a70.06 70.06 0 0 0-9.43-4.31c-9.05-7.59-19.84-12.8-31.65-12.5-13.17.34-25.45 6.67-36.26 14.07-2.68 1.84-5.3 3.77-7.89 5.74a3.19 3.19 0 0 0-1.2 3.84 1.64 1.64 0 0 0 .14.22 81.3 81.3 0 0 0-17.92 5c13.48-18.91 36.35-28.85 57.4-35.69 8-2.6 16.19-4.91 24.58-5.47a50.5 50.5 0 0 1 22.71 3.61c13.18 5.37 24.57 15.6 33.5 26.88 17.66 22.16 26.66 51.01 30.12 79.3 4.4 36 1.12 72.25.65 108.33q-.36 27.57 1.19 55.11c.51 9 1.23 17.91 2 26.85.7 8.55 1.26 17.17.42 25.73a61.92 61.92 0 0 1-1.46 8.23 6.67 6.67 0 0 0-3.22 1 6.94 6.94 0 0 0-3 5c-.07.38-.16.77-.23 1.16a40.48 40.48 0 0 0-5-6.24 2.91 2.91 0 0 0-4.62.62c-.57.9-1.15 1.8-1.72 2.71A18.05 18.05 0 0 1 517 537c-1-2.7-2-5.78-4.63-7.23-4.38-2.44-8 1.8-10.7 4.9s-5.09 6.34-7.44 9.67l-5.74-9.52c-.9-1.5-3.39-2.25-4.61-.62l-6.12 8.13c-.95 1.26-1.91 2.52-2.86 3.79a10.89 10.89 0 0 1-2.29 2.66c-1.38.88-3-.47-3.78-1.68-1.44-2.33-1.12-5.64-1-8.26a2.85 2.85 0 0 0-.62-1.91 2.36 2.36 0 0 0 .51-1.11c3.93-23.8.61-47.78-3.9-71.21s-10.19-46.56-10.8-70.43c-.65-25.32 6.63-50 5.71-75.33-.41-11.57-2.53-23.17-7.63-33.53a59.47 59.47 0 0 0-20.31-23c-18.46-12.37-41.89-13-61.82-4.19a71.78 71.78 0 0 0-7.41 3.79c-3.3 1.92-.34 7.23 3 5.3 17.86-10.44 40.28-12.41 58.71-2.37a53.94 53.94 0 0 1 20.4 19.18c5.59 9.18 8.21 19.95 9 30.72 1.79 24.61-5.21 48.68-5.54 73.21-.31 23.57 4.77 46.75 9.37 69.68 4.49 22.41 8.74 45.29 6.64 68.3q-.37 4.13-1.05 8.2a3.59 3.59 0 0 0 .61 2.72 2.47 2.47 0 0 0-.32.39l-6.06 11a82.22 82.22 0 0 0-4.47-13.45c-1-2.34-3.9-1.63-5.07 0l-1.14 1.6c3.06-11 5.29-22.29 4.94-33.8-.51-16.86-7-32.77-14.44-47.47a215.41 215.41 0 0 0-25-38.38 206.14 206.14 0 0 0-15.47-17c-5.31-5.23-11.16-9.83-16.45-15.06-5.84-5.78-9.63-12.72-10.38-21.19s.85-17.16 3.18-25.36c1.08-3.8-4.59-5.42-5.67-1.64-4 14.21-6.17 31.08 1.95 44.22 4.13 6.68 10.22 11.46 15.93 16.54A204.8 204.8 0 0 1 400 413a207.4 207.4 0 0 1 26.48 36.82c7.84 13.84 15 28.94 17.47 45 1.62 10.68.39 21.33-2 31.77.06-2.82 0-5.65-.15-8.45-.41-6.15-1.27-12.25-2.12-18.35a2.93 2.93 0 0 0-3.23-2.2 3.09 3.09 0 0 0-2.55 3q-1.74 16.67-3.47 33.34c-3-9.48-6.24-18.91-9.79-28.2-1.55-4.05-3.15-8.07-4.79-12.09a2.86 2.86 0 0 0-2.93-1.46 2.93 2.93 0 0 0-2.44 2.2q-2.19 12.86-4.36 25.71l-9-23a3.08 3.08 0 0 0-2.84-2.26 3 3 0 0 0-2.83 2.26c-2.31 11.59-4.91 23.11-7.66 34.6l-6.92-24.7c-.67-2.38-4.21-3.18-5.37-.73q-4.28 9-8.54 18l-3.5-22.64a3 3 0 0 0-2.44-2.2 3 3 0 0 0-2.93 1.47 257.81 257.81 0 0 0-14.19 21.91c-1.08-8.33-2.41-16.62-4.27-24.8a2.92 2.92 0 0 0-5.37-.74L315.69 522a193.56 193.56 0 0 0-6.07-25 2.91 2.91 0 0 0-5.37-.73c-5.65 7.91-10.91 16.1-16 24.42q1.49-17.2 1.46-34.5a3 3 0 0 0-5-2.17 53.9 53.9 0 0 0-6.78 8.32 70.55 70.55 0 0 0-2.79-17.34 2.91 2.91 0 0 0-5.37-.73 72 72 0 0 0-12.61 36.35 3 3 0 0 0 2.93 3.07 3.07 3.07 0 0 0 2.94-3.07 66.8 66.8 0 0 1 3.64-17.49c.24-.68.49-1.35.75-2 .07-.2.15-.39.23-.59s0-.09.08-.21l.39-.91c.61-1.41 1.27-2.81 2-4.17.29-.58.69-1.09 1-1.65a64.45 64.45 0 0 1-.13 23.62 55.66 55.66 0 0 0-1.49 6.28c-.26 1.57.41 3.38 2.06 3.77a3 3 0 0 0 3.61-2.14c.57-1.9 1-3.84 1.42-5.78.18-.64.27-1.31.48-1.94a42 42 0 0 1 2.87-6.85 53.25 53.25 0 0 1 3.84-6.26 391.54 391.54 0 0 1-2.67 39.17 3 3 0 0 0 2.16 3 3 3 0 0 0 3.32-1.41c5.91-10.44 12.37-20.53 19.16-30.36a193.4 193.4 0 0 1 5.5 26.81 3 3 0 0 0 2.44 2.2 2.92 2.92 0 0 0 2.93-1.47l14.82-25.16c1.61 8.21 3 16.45 3.76 24.7a3.15 3.15 0 0 0 2.16 3 3 3 0 0 0 3.32-1.41 254.39 254.39 0 0 1 14.23-23l3.78 24.63c.4 2.59 4.3 3 5.37.74l9.27-19.51q3.41 12.18 6.83 24.36l-10.68 15.08-6.27-12.57c-1.07-2.15-3.93-1.83-5.07 0l-9.83 15.68-5.91-14c-.78-1.84-3.4-1.89-4.61-.62q-6 6.35-12.07 12.7l-5-20a3 3 0 0 0-2.45-2.2 3 3 0 0 0-2.92 1.47c-4.11 5.84-8.5 11.49-13 17L297.23 533a2.91 2.91 0 0 0-4.91-1.35l-13.83 15.93a173.06 173.06 0 0 1-6.79-17.75 3 3 0 0 0-2.45-2.2 3 3 0 0 0-2.92 1.47l-9.38 13.54.48-10.71a3 3 0 0 0-2.77-3c1.71-28.27 7.92-56.7 21.44-81.4a135.66 135.66 0 0 1 28-35.07c10.55-9.65 22-18.78 29.76-31.18A54 54 0 0 0 342 356c.71-10.53-1.38-21.1-4.1-31.17-1-3.8-6.7-2.19-5.67 1.63 2.4 8.88 4.28 18 4 27.3a47.62 47.62 0 0 1-6.33 22.49c-7.15 12.4-18.54 21.44-28.85 30.8-11.17 10.15-20.93 21.46-28.57 34.77A171.71 171.71 0 0 0 255.34 485a222 222 0 0 0-4.65 24.3c-.11-2.79-.17-5.59-.14-8.4a3.05 3.05 0 0 0-2.94-3.07c-1.73 0-2.76 1.42-2.94 3.07-.1 1-.21 2.06-.32 3.09 0-.53-.07-1.06-.11-1.58-.25-3.62-4.5-4-5.77-.82a195.17 195.17 0 0 0-6.39 18.55c-.09-1.79-.18-3.58-.26-5.37-.16-3.31-5-4.34-5.78-.81-.67 3.14-1.35 6.27-2 9.41-.09-2.41-.19-4.82-.28-7.24a2.94 2.94 0 0 0-5.77-.81L212 533.24c-.4-5.91-.54-11.84-.37-17.77.08-2.87-4.28-4.4-5.48-1.54-2.76 6.59-5.25 13.29-7.52 20.08l-.82-16.15a2.94 2.94 0 0 0-5.47-1.55c-1.1 1.84-2.07 3.76-3.05 5.67.18-1.3.35-2.59.52-3.89.51-3.88-4.28-5.39-5.67-1.63l-5.23 14.16.21-3c.21-3.11-4.09-4.08-5.48-1.55q-2.92 5.32-5.84 10.65c.09-.86.19-1.72.29-2.58a3.07 3.07 0 0 0-2.16-3 3 3 0 0 0-3.32 1.41l-4.76 7.4a88 88 0 0 1 1.95-13.39 3 3 0 0 0-5.37-2.37l-5.43 7.89a2.78 2.78 0 0 0-1-1.11 1 1 0 0 0-.16-.05 562.48 562.48 0 0 0 11.08-90.54c1.5-34.6 1.08-69.51 7-103.72 5.33-30.94 15.93-61.28 35.91-85.27 19.18-23 46.22-41 75.83-43.63a76.15 76.15 0 0 1 50.56 13.49 66.27 66.27 0 0 0-10.79-3.83 74.38 74.38 0 0 0-19-7.09c-12.93-2.71-25.77-.21-37.46 6-22.61 11.95-38.6 34.49-50.8 57a304.21 304.21 0 0 0-27.46 72.39c-6.26 25.47-9.73 51.65-11.34 77.87a689.92 689.92 0 0 0 .08 79.42q.27 4.86.58 9.72a3.07 3.07 0 0 0 2.94 3.07 3 3 0 0 0 2.93-3.07 742.39 742.39 0 0 1-1.24-77.8 457.74 457.74 0 0 1 9.12-76.21c5.24-24.72 13-48.91 23.94-71.53 10.83-22.34 24.6-44.88 44.53-59.48 9.84-7.21 21.38-12.5 33.57-12.42a45.06 45.06 0 0 1 5.82.46c-19 2.09-36.56 12.29-50.16 26.24-17.55 18-28.27 41.67-34.82 66.16a351.23 351.23 0 0 0-7.92 40.35q-3.18 22.06-4.77 44.35a597.38 597.38 0 0 0 .42 89.24q.42 5.42 1 10.82c.37 3.88 5.66 4 5.87 0 2.21-42.53 1.43-85.86 15.15-126.58a210.22 210.22 0 0 1 26.2-52.33c10.42-15.1 23-29 38.41-38.64a86.68 86.68 0 0 1 14.84-7.4c-14.12 11.46-25.11 26.58-34.06 42.65a331.22 331.22 0 0 0-25 58.42 495 495 0 0 0-15.72 63c-4 21.58-6.94 43.38-9.37 65.21-.3 2.68-.59 5.35-.87 8a3 3 0 0 0 2.94 3.07c1.73 0 2.76-1.41 2.94-3.07 2.21-20.89 4.83-41.73 8.38-62.42a533.86 533.86 0 0 1 14.07-61.6 351.54 351.54 0 0 1 22.59-57.87c8.31-16.51 18.21-32.45 31.43-45.14a83.24 83.24 0 0 1 20.4-14.75 62.77 62.77 0 0 1 26.93 2.11c3 1 4.59-2.92 2.86-5.13-5.39-6.87-14.34-7.76-22.18-6.15a42.4 42.4 0 0 0-8.93 3.1 85 85 0 0 0-26.63 8.35c-16.81 8.46-30.89 22.11-42.41 37.27a215.29 215.29 0 0 0-29.23 52.6c-7.71 19.88-12.06 40.79-14.41 62.06-.47 4.25-.8 8.52-1.14 12.78.05-8 .23-16 .61-24.05 1.32-27.89 4.26-56 10.08-83.27 5.22-24.44 13.6-48.88 29.09-68.37 13.18-16.6 31.69-30.28 52.65-32.82a64.52 64.52 0 0 1 22.48 1.29c2.49 1.32 4.93 2.73 7.31 4.21 2.67 1.66 5.3 3.41 7.89 5.2 1.66 1.15 3.23.22 3.92-1.22a52.91 52.91 0 0 1 11.23 10 48.39 48.39 0 0 1 4.25 6c2.06 3.38 6.68.45 5.08-3.1-11.57-25.54-38-41.09-64.43-42.83-30.7-2-60.5 13-82.6 34.44a147.87 147.87 0 0 0-28.11 37.85 194.92 194.92 0 0 0-16.46 45.53c-8 34-8.63 69.19-9.75 104-.58 18.16-1.39 36.31-3.3 54.37a515.09 515.09 0 0 1-8.46 53c-.93 4.39-1.93 8.76-3 13.12-.77 3.23 3.95 5.66 5.37 2.37l.28-.66a3.49 3.49 0 0 0 3.23-1.34l4.27-6.14a95.51 95.51 0 0 0-.3 12.32 3 3 0 0 0 5.48 1.55l3.57-5.55c-.19 1.63-.37 3.25-.55 4.88-.35 3.13 4.12 4 5.47 1.55l6.57-12-.7 10a2.93 2.93 0 0 0 5.77.82q1.64-4.43 3.26-8.83l-1 7.49c-.22 1.64.38 3.3 2.05 3.78a3 3 0 0 0 3.61-2.15 97.16 97.16 0 0 1 7.16-23l1.11 22c.17 3.39 4.85 4.26 5.78.82 1.9-7.08 4.15-14 6.59-20.93q.48 8.54 1.69 17a3 3 0 0 0 2.83 2.26 3.07 3.07 0 0 0 2.84-2.26q2.55-7.71 5.12-15.41l.54 14.27c.13 3.33 5 4.33 5.77.82s1.49-6.89 2.24-10.33c.06 1.31.13 2.63.19 4 .16 3.27 5.13 4.4 5.77.82a198.33 198.33 0 0 1 6.35-25.3q.74 10.62 1.46 21.24c.27 4 5.47 3.9 5.87 0 .21-1.92.41-3.85.61-5.77.37 2.12.72 4.24 1.17 6.34a2.56 2.56 0 0 0 2.71 2.16q-.27 6-.55 12a3.08 3.08 0 0 0 2.16 3 3 3 0 0 0 3.32-1.41L268 537c2.11 6 4.42 11.86 7.1 17.57a2.89 2.89 0 0 0 4.62.62l13.2-15.2q2.56 10.2 5.15 20.4c.54 2.14 3.43 3.1 4.91 1.36 4.74-5.59 9.22-11.4 13.56-17.33l4.77 19.22a2.91 2.91 0 0 0 4.91 1.35l12.69-13.34 6.35 15c1 2.25 4 1.73 5.07 0l10-16q3 6.13 6.11 12.26a2.89 2.89 0 0 0 2.53 1.52 3 3 0 0 0 2.54-1.52q5.85-8.24 11.68-16.49l4.52 12a3.14 3.14 0 0 0 2.05 2.15 2.84 2.84 0 0 0 2.86-.79l7.78-9q2.19 4.29 4.36 8.6a2.89 2.89 0 0 0 4 1.1 35.55 35.55 0 0 0 5-4.69q2.42 4.75 4.82 9.5a2.92 2.92 0 0 0 4 1.1 34.63 34.63 0 0 0 12-12.41 3 3 0 0 0 1.55 1.62 2.92 2.92 0 0 0 3.87-1.2l8.54-11.92a77.42 77.42 0 0 1 3.6 15.12c.37 2.72 4.21 2.83 5.37.73l5.5-10a11.21 11.21 0 0 0 .78 1.82c1.69 2.89 4.86 5.12 8.19 5 3.83-.13 6-3.23 8.13-6.09l5.6-7.44q2.91 4.83 5.81 9.66a2.92 2.92 0 0 0 5.08 0 119 119 0 0 1 10.53-13.77c.73-.82 1.53-1.52 2.28-2.27l.15-.11h.09a.15.15 0 0 0 .09 0 .88.88 0 0 0 .13.19c.14.16.12.13-.05-.11l.3.47c.26.47.65 1.28.76 1.54 1 2.47 1.83 5.9 3.88 8.07a6.31 6.31 0 0 0 4.29 2c1.89 0 2.62-1.2 3.56-2.67l.41-.65a35.91 35.91 0 0 1 4.21 6.24 3 3 0 0 0 3.32 1.41c3.21-.81 4.4-3.93 5-7 .11-.64.21-1.29.35-1.93a2.6 2.6 0 0 1 .11-.37 2.84 2.84 0 0 0 5-1c5.19-17.06 2.3-35.38.99-52.94zm-55.6-43.11a649.39 649.39 0 0 0-10.52-84.7c-2.54-13.26-5.51-27.07-3.53-40.64 1-6.62 3.51-12.72 5.34-19.1a43.13 43.13 0 0 0 1.54-17.09c-1.36-11.12-6.88-21.27-14.47-29.07a61.08 61.08 0 0 0-29.58-16.37c-12-2.93-24.45-3-36.66-2-1.59.14-3.18.28-4.77.44 20.17-7.66 42.29-12 62.94-4.74 7.69 6.57 14.12 14.87 19.53 23.47A167 167 0 0 1 492 288.55c8.35 23.51 12.56 48.43 15.24 73.27 2.83 26.19 3.89 52.7 1.69 79-2.16 25.77-7.61 51.51-17.88 75.12-.43 1-.91 1.94-1.35 2.91-2.91-9.78-2.24-20.59-2.19-30.7q.13-21.46-1.11-42.88zm19.12-162.55c10.45 24.34 13.9 51.89 15.21 78.31a360.44 360.44 0 0 1-5 80.49c-.52 3-1.22 5.89-1.81 8.84 3.1-26.9 2.55-54.17 0-81.09-2.46-26-6.31-52.24-14.4-77.07a184.15 184.15 0 0 0-15.21-34.84 143.68 143.68 0 0 0-11.18-16.69c14.38 10.19 25.32 25.58 32.39 42.05zm-64.95-60.24c-2.3-.2-4.59-.4-6.91-.39a103 103 0 0 0-25 3.54 57.6 57.6 0 0 1 11.74-4.18 36.94 36.94 0 0 1 20.17 1.03zM428 553.66c0 .05-.26.34-.31.4-.32.41-.65.81-1 1.2q-1.07 1.23-2.22 2.34l-1.14 1-.33.4-.41.31c-.07.06-.15.09-.21.14q-2.68-5.26-5.36-10.55c-1.11-2.19-3.88-1.77-5.08 0a26.5 26.5 0 0 1-2.77 3.42c-.28.3-.57.56-.85.83l-4.69-9.15a2.89 2.89 0 0 0-4.61-.62l-7.43 8.62-4-10.72q4.1-16.49 7.56-33.14l9.31 23.7a3.09 3.09 0 0 0 2.84 2.26 3 3 0 0 0 2.83-2.26q2.17-12.79 4.33-25.58c3.94 10.21 7.7 20.6 11 31.06q1.88 5.93 3.61 11.89a3.09 3.09 0 0 0 .86 1.37c-.49.85-.93 1.74-1.49 2.54zm101.13-7.89zm6.68-3.32c.12-.05.11-.06.02 0zm1-.43h.11a.31.31 0 0 0-.1-.02z" fill="#f87318" data-color="1"/>
    </g>
</svg>
