<?xml version="1.0" encoding="UTF-8"?>
<svg data-bbox="0.087 0.004 1376.256 1260.586" viewBox="0 0 1376.31 1260.63" xmlns="http://www.w3.org/2000/svg" data-type="color">
    <g>
        <g>
            <path d="M16.82 624.07q20.73 9.85 100.18 27.77a8.59 8.59 0 0 1-3.78 16.76q-81.31-18.33-103.77-29a8.59 8.59 0 0 1 7.38-15.52Z" fill="#f5ac3a" data-color="1"/>
            <path d="M113.87 653q26.31-7.62 96.1-36a8.59 8.59 0 1 1 6.47 15.91q-70.62 28.71-97.78 36.59a8.59 8.59 0 1 1-4.79-16.5Z" fill="#f5ac3a" data-color="1"/>
            <path d="M299.11 544.05q-5.58 7.59-11 13.71-22.86 25.62-44.47 48.38l.27-.3-19.47 22.53a8.59 8.59 0 1 1-13-11.24l19.47-22.52.27-.3q21.42-22.56 44.11-48 4.9-5.54 10-12.49A8.59 8.59 0 0 1 299.13 544Z" fill="#f5ac3a" data-color="1"/>
            <path d="M133.35 451.2v.24-.24c0 1.32 0 3.15-.08 5.51v.19q-.94 16.26-1.25 24.6-.33 8.81-.48 18.15-.18 8.91-.58 42.76v-.13q0 1.7-.48 20.89v-.08l-.39 25.52v5.57q.06 10.44 0 22.72v.05q-.09 10.83-.1 19v.13q-.13 9.18-.11 13.49a8.6 8.6 0 0 1-17.19 0q0-4.46.12-13.78v.21q0-8.26.1-19.15v.06-28.39l.39-25.52v-.08q.48-18.94.48-20.39v-.14q.39-33.93.59-42.92.15-9.54.5-18.52.32-8.52 1.28-25v.2c.07-2 .1-3.47.07-4.42v-.23a8.59 8.59 0 0 1 17.18-.24Z" fill="#f5ac3a" data-color="1"/>
            <path d="M138.77 454.45q14.94 29.1 72.33 127.93l-.12-.21q2.85 4.62 13.82 26.8a8.59 8.59 0 0 1-15.41 7.61q-10.59-21.45-13-25.37l-.12-.2q-57.63-99.22-72.76-128.72a8.59 8.59 0 0 1 15.28-7.84Z" fill="#f5ac3a" data-color="1"/>
            <path d="M360.77 1197.57q-17.86-39.36-35.66-78.77c-6.42-14.24-12.87-28.48-19.16-42.78-1.2-2.72-11.71-28.7-16-39.2q-6.81-16.77-13.71-33.51-15.5-37.72-31.33-75.31-18.18-43.26-36.6-86.43-10.31-24.21-20.68-48.38Q157.66 723 127 659.64a8.59 8.59 0 0 0-15.47 7.48Q142 730.14 171.84 800q73.22 170.64 114.34 273.37c0 .11.05.22.09.33q2.42 6.61 58.85 131a8.59 8.59 0 1 0 15.65-7.1Z" fill="#f5ac3a" data-color="1"/>
            <path d="m227.5 619.49 82 251.78-.09-.27Q383.6 1076.11 414 1173.29a8.59 8.59 0 0 1-16.4 5.13q-30.28-96.83-104.36-301.57l-.09-.26-82-251.78a8.59 8.59 0 0 1 16.33-5.32Z" fill="#f5ac3a" data-color="1"/>
            <path d="M475.6 1172.31q-10.43-50.77-21.9-93.42l-80.61-294.3-30.18-120.14-.06-.23-37.13-132.06c-1.67-5.91-9.71-8.87-14.53-11.6-6.14-3.5-31.89-17.93-38.75-21.41l-125.35-63.59c-8.4-4.26-13.13 6.6-17 12.15-6.59 9.32-13 18.82-18.8 28.69Q71.62 510 52 543.51q-14 23.87-28 47.69-8.35 14.16-16.8 28.28c-2.34 3.86-5.83 7.54-6.89 12-1.12 4.8 2.25 9.09 4.25 13.14 3.37 6.82 6.32 13.86 9.47 20.79q8.82 19.59 17.74 39.2 17 37.18 34 74.34Q81.54 813.5 97.42 848q14.67 31.89 29.42 63.75Q140.37 941 154 970.23q12.41 26.6 24.88 53.16 11.25 24 22.6 47.88 10.13 21.32 20.34 42.58 9 18.66 18.06 37.28 7.83 16 15.79 32 6.69 13.39 13.52 26.7c3.69 7.17 7.42 14.31 11.25 21.4 2.92 5.41 5.88 10.8 9 16.11 1 1.68 2 3.36 3 5 4.78 7.82 22.07 6.37 29.78 6.9s15.48.86 23.66 1c12 .22 21.61.34 28.85.35l22-.09q10.29 0 20.58-.12c5.48 0 13.38 1.44 17.2-3.57a8.2 8.2 0 0 0 1.47-1.58 109.61 109.61 0 0 0 7.21-12.34l.07-.13s31.74-64.66 31.88-65.41a8.49 8.49 0 0 0 .46-5.04Zm-47.75 62.79q-2.48 4.8-4.52 8.06l-5.66.17c-2 0-3.79.06-5.24.07h-2.89c-6.92-.05-11.24-.06-12.94-.06l-22 .1q-10.65 0-28.48-.35-11.84-.24-22.83-1c-9-.56-15-1.06-17.92-1.51Q257.52 1160 18.44 633.85q13.41-21.79 87.64-148.78 7-12 20.24-30.63l118.38 60.05.18.09q7.51 3.58 45.09 25.06l36.31 129.12 30.17 120.11v.17l80.63 294.37q11.07 41.1 21.16 90Z" fill="#f5ac3a" data-color="1"/>
            <path d="M355.76 1198.31a8.6 8.6 0 0 0-12.14-.5l-34.28 31.55c-5.84 4.85-9.47 7.72-10.94 8.65a8.59 8.59 0 0 0 5.12 16.31 10.92 10.92 0 0 0 3.33-1.34q3.21-1.87 13.64-10.55l.32-.28 34.44-31.7a8.59 8.59 0 0 0 .51-12.14Z" fill="#f5ac3a" data-color="1"/>
            <path d="M350.6 1191.81q32.28-14.25 43.34-21.16a8.59 8.59 0 0 1 9.1 14.58q-12.09 7.56-45.5 22.3a8.59 8.59 0 0 1-6.94-15.72Z" fill="#f5ac3a" data-color="1"/>
            <path fill="#f5ac3a" d="M456.7 1166.15h.04-.04z" data-color="1"/>
            <path d="M469.18 1169.79a13.61 13.61 0 0 0-4.5-2.44 27.47 27.47 0 0 0-8-1.2c-11.83-.35-23.66-.78-35.49-1-7.35-.16-23.94-3.44-24.09 8.26-.09 7.08 7.44 9 13.17 9.18 9.51.36 19.05-.07 28.56.23 6.08.19 12.2 0 18.22 1 4.76.74 9.58 2.5 13.23-1.87a8.59 8.59 0 0 0-1.1-12.16Z" fill="#f5ac3a" data-color="1"/>
            <path d="M423 1243.89c-12.55-9.77-24.94-19.78-37.85-29.06-6.11-4.39-12.48-8.44-18.26-13.27-4.45-3.72-9.59-8.43-15.21-3.25a8.6 8.6 0 0 0-.5 12.14l.39.41q3.87 3.9 29.9 22.47l31 24.11a8.59 8.59 0 1 0 10.53-13.55Z" fill="#f5ac3a" data-color="1"/>
            <path d="M429 1244.62q-3.37-16.35-6.56-32.74-1.85-9.44-3.64-18.88c-1.08-5.68-1.67-11.76-3.6-17.24l-.06-.19c-2.1-4.1-6.48-6.49-11-4.71-5.08 2-5.48 7-4.77 11.76 1 6.37 2.44 12.71 3.66 19.05 3 15.49 6 31 9.18 46.42a8.59 8.59 0 1 0 16.83-3.47Z" fill="#f5ac3a" data-color="1"/>
            <path d="M289.3 724.05a7 7 0 0 0-2.27.39 6.85 6.85 0 0 0-4.2 8.73q3.75 10.7 8.3 26.65a6.86 6.86 0 0 0 6.59 5 7.22 7.22 0 0 0 1.88-.26 6.85 6.85 0 0 0 4.71-8.47q-4.67-16.35-8.54-27.43a6.86 6.86 0 0 0-6.47-4.61Z" fill="#f5ac3a" data-color="1"/>
            <path d="M830.46 264.82c-.71-6.29-4.48-9.75-8.28-14.31q-2.64-3.16-5.29-6.3-5.48-6.48-11-12.88-11.73-13.54-23.76-26.85-26.72-29.58-54.48-58.16-31.42-32.49-63.76-64.08-36.12-35.4-73-70-5.28-5-10.57-9.9c-3.77-3.53-10.91-2.95-14.22 1-28.8 34-55.9 69.4-82.22 105.32-33.89 46.26-66.46 93.5-98.33 141.17q-7 10.47-13.94 21C367.43 277 358 286.43 360 294.67l79.38 332.22 89.62 415.7a8.55 8.55 0 0 0 1.42 3.19c3.9 5.44 8.77 7.81 14.48 11 6.85 3.82 13.63 7.75 20.44 11.75a230.61 230.61 0 0 0 22.76 11.59 100.42 100.42 0 0 0 13.08 5.22c6.87 2 14.84 1.65 21.92 2 11.95.63 23.89 1 35.86 1.25 4.38.09 21.36 1.12 24.66.11q23.4-7.12 65.26-26c4.64-2.1 5.33-7.6 5.58-12.1 1.59-28 5.84-55.94 9-83.82q5-43.82 10.11-87.63 4.08-35 8.29-70c2.48-20.38 9.86-97.69 11.29-115.9 1.65-21 3.22-42.08 5.38-63.06L822 406.36v-.26c2.17-29.11 4.3-58.24 6.16-87.38 1-15.6 2.1-31.25 2.39-46.89a52.93 52.93 0 0 0-.09-7.01ZM804.87 404.7s-23.43 223.68-23.43 223.7c-2.35 22.19-3.94 44.48-5.67 66.73-2.55 32.71-5.28 65.26-9.26 97.83q-4.66 38.28-9.12 76.57-5.82 49.76-11.48 99.53-4.57 40.08-9.09 80.16-35.21 15.73-55.94 22.28h-6.38c-14-.08-28-.17-41.91-.92-8.58-.45-17.15-1-25.74-1.4h-.1a17.43 17.43 0 0 1-2.46-.21h-.34.34-.35a8 8 0 0 0-.9-.56q-26.26-13.11-29.11-14.75-17.91-10.52-28.47-16.12l-89.29-414.37-.05-.18-78.8-329.79q116.49-176.91 196.92-273 156.22 146.4 237.88 245.05a9.13 9.13 0 0 0 1.26 1.23q.74 14.52-8.51 138.22Z" fill="#f5ac3a" data-color="1"/>
            <path d="M824.69 259.53a8.6 8.6 0 0 0-11-5.23c-72 25.51-232.23 76.09-232.23 76.09s-28.76-5-50.76-9.94q-34.17-8.26-103.37-23.34-37.12-8.85-52-12.84a8.59 8.59 0 0 0-4.46 16.59q15.15 4.06 52.56 13h.17q69.17 15.14 103.18 23.31h.13c10.1 2.27 20.22 4.46 30.38 6.42 4.72.91 23.29 5 27.55 3.71q125.56-38.19 234.62-76.83a8.6 8.6 0 0 0 5.23-10.94Z" fill="#f5ac3a" data-color="1"/>
            <path d="M583.69 15.5q-1.35-8.6-9.88-7.26-5.23.82-7.07 6.3-3.94 11.7-48.74 245.37-5.49 29-9.51 63.72a8.59 8.59 0 0 0 17.07 2q3.95-34.15 9.32-62.5 43.29-225.81 47.89-242.29a8.52 8.52 0 0 0 .92-5.34Z" fill="#f5ac3a" data-color="1"/>
            <path d="M712.72 290.56Q597.85 32.5 589 19.59a11.26 11.26 0 0 0-2.41-2.59q-7-5.25-12.2 1.67a8.56 8.56 0 0 0 .76 11.17Q584.83 45.51 697 297.55a8.59 8.59 0 0 0 15.69-7Z" fill="#f5ac3a" data-color="1"/>
            <path d="M524.58 329.49a.88.88 0 0 0 0-.2q-.32 3.24 1.55 22.4v-.3q5.49 41 15.26 132.49v-.2q20.39 155.27 39.27 326.46 26.14 233.8 27.07 258.66a8.59 8.59 0 0 1-17.17.64q-.9-24.23-27-257.39-18.87-171-39.22-326.12v-.2q-9.74-91.29-15.2-132v-.31q-2-20.85-1.54-25.79c0-.38.09-.73.15-1.07a8.59 8.59 0 0 1 16.91 3Z" fill="#f5ac3a" data-color="1"/>
            <path d="M710.66 294a8.59 8.59 0 0 0-11.43 4.11 13.27 13.27 0 0 0-.81 2.31c-.77 3-1.34 10-1.73 21.07l-3.11 100.89c-.25 8.17-.58 16.26-1 24.34q-.71 17.28-5.46 84.28-1 15.72-1.57 31.62-.51 12.48-1.46 48.12-.21 5.5-1.26 59.19-1.63 45.07-4.46 167.85-1.38 37.58-4 88.67v.16l-1.27 37.55q-2.32 41.91-2.58 51.58c-1 33.39-2.12 61.15-2.12 61.77v1.43q.24 8.37 8.38 8.58t8.82-8.12q.32-3.84 2.08-63.17.27-9.47 2.57-51.22v-.18l1.27-37.57q2.65-51.21 4-88.9v-.12q2.84-122.84 4.46-167.82v-.14q1.05-54 1.25-59v-.11q.94-35.56 1.44-47.93.6-15.71 1.56-31.2 4.76-67 5.49-84.5.62-12.17 1-24.6s3.11-100.89 3.11-100.85a157.25 157.25 0 0 1 1.1-16.94c.65-4.27.66-8.83-4.27-11.15Zm-42.22 784Z" fill="#f5ac3a" data-color="1"/>
            <path d="M473.9 549.73q-.45-2.18-4.14-25.08v-.06q-.83-4.83-2.12-10.88c-.1-.51-.25-1.37-.44-2.6a6.87 6.87 0 0 0-6.77-5.79 6.53 6.53 0 0 0-1.07.09 6.84 6.84 0 0 0-5.7 7.83q.33 2.13.54 3.18v.09q1.25 5.81 2 10.37 3.8 23.12 4.28 25.63a6.86 6.86 0 0 0 6.7 5.46 6.72 6.72 0 0 0 1.4-.14 6.86 6.86 0 0 0 5.32-8.1Z" fill="#f5ac3a" data-color="1"/>
            <path d="M761.1 372.37a6.86 6.86 0 0 0-6.84 6.87q0 4.2-1.18 14.74v.15q-.31 3.45-4.12 28.84a6.85 6.85 0 0 0 5.76 7.79 5.92 5.92 0 0 0 1 .08 6.85 6.85 0 0 0 6.77-5.84q3.79-25.31 4.21-29.47a162.17 162.17 0 0 0 1.3-16.32 6.86 6.86 0 0 0-6.9-6.84Z" fill="#f5ac3a" data-color="1"/>
            <path d="M603.79 206.34a6.86 6.86 0 0 0-6.51 4.73 58.15 58.15 0 0 0-1.76 9.71v.08l-2.69 24.36q-.24 2.09-.72 6.93a6.85 6.85 0 0 0 6.14 7.5h.69a6.87 6.87 0 0 0 6.81-6.18q.48-4.77.7-6.78l2.7-24.36a49.62 49.62 0 0 1 1.17-7.05 6.86 6.86 0 0 0-6.52-9Z" fill="#f5ac3a" data-color="1"/>
            <path d="M625.07 227.75a6.84 6.84 0 0 0-8.32 5c-.26 1.05-.48 2-.65 2.88-.56 2.71-.92 4.63-1.09 5.74a6.86 6.86 0 0 0 5.73 7.82 7.42 7.42 0 0 0 1 .08 6.85 6.85 0 0 0 6.76-5.81q.21-1.35 1-5.15v-.07c.12-.62.29-1.33.49-2.13a6.86 6.86 0 0 0-4.92-8.36Z" fill="#f5ac3a" data-color="1"/>
            <path d="M592.68 451.4c-.08-8.75-13.36-11.1-15.06-1.88-1.38 7.47 8.43 12.69 13.37 6.55a7.2 7.2 0 0 0 1.69-4.67Z" fill="#f5ac3a" data-color="1"/>
            <path d="M608.87 595.17a6.29 6.29 0 0 1 1.83 1.41c3.29 3.69 1.9 10.29-3.15 11.46-5.25 1.21-10.37-3.6-8.64-8.88a7.25 7.25 0 0 1 9.96-3.99Z" fill="#f5ac3a" data-color="1"/>
            <path d="M1376.23 688.35c-.6-6.65-4.46-14.22-6.53-19l-.07-.17q-43-97-67.83-157.19v-.12q-17.34-40.35-43.57-92.51a8.66 8.66 0 0 0-8.06-4.72c-3.06.17-22.3 7.57-29.14 10-10.56 3.81-21 7.84-31.47 12-9.86 3.94-19.72 7.91-29.46 12.14l-.1.05-6.32 2.77-17 7.45-24.68 10.87-29.33 12.87-31 13.62-29.79 13.07-25.56 11.22c-6.11 2.68-26.32 10.79-29.45 13.48s-4.52 6.82-5.87 10.55c-1.59 4.42-3 8.91-4.32 13.42-4.23 14.28-7.89 28.73-11.45 43.19-1.82 7.37-3.73 14.73-5.35 22.13q-48.82 205.47-64.44 281.72-11.72 46.9-23.11 93.88-10.74 44.32-21.17 88.73c-1.4 6-3.19 11.82-4.5 17.8-1 4.79-3.3 12.48-.92 17.08 13.39 25.83 27.58 51.25 42.27 76.36 5.71 9.75 11.47 19.48 17.2 29.22 3.91 6.64 9.07 19.27 18.81 17.61 9.48-1.62 18.83-5.11 28-8 20.34-6.45 40.57-13.28 60.78-20.15q14.07-4.77 28.13-9.61c5.17-1.77 24.31-7.46 27.33-10.32 2.25-2.13 9.91-14.87 12.24-18.28q6.93-10.12 13.84-20.27 13.56-19.87 27-39.78 25.89-38.18 51.54-76.51 24.19-36.13 48.15-72.44 22.5-34.11 44.74-68.39 20.81-32.07 41.34-64.32 19.11-30 37.94-60.26 17.43-28 34.54-56.2 7.65-12.62 15.21-25.27a12.57 12.57 0 0 0 1.43-7.72Zm-340.14 496.36q-108.15 37.36-130.73 43.29-36.63-60-63.36-111.28c0-.11 31.76-134 50.13-207.54 0-.12.06-.24.08-.36q15.56-75.93 64.37-281.38 15.35-64.79 21.77-80.11l188.41-82.68q47-19.93 79.56-30.5 23.61 47.34 39.6 84.49 24.93 60.35 67.92 157.42a106.35 106.35 0 0 1 4.92 13.33q-115.2 192.56-322.67 495.32Z" fill="#f5ac3a" data-color="1"/>
            <path d="m981.46 540.82 41.13 53.7-.28-.34q23.14 27.24 43.65 54a8.59 8.59 0 0 1-13.64 10.44q-20.25-26.45-43.1-53.35c-.09-.11-.19-.22-.27-.33l-41.13-53.71a8.59 8.59 0 0 1 13.64-10.44Z" fill="#f5ac3a" data-color="1"/>
            <path d="M1066.68 648.3q11.63 9 120.78 49.4a8.59 8.59 0 1 1-6 16.11q-111.63-41.32-125.34-51.92a8.59 8.59 0 0 1 10.52-13.59Z" fill="#f5ac3a" data-color="1"/>
            <path d="M1186 696.83q16.68.36 59.48-4.25h-.09q86.13-10.23 114.49-15.58a8.59 8.59 0 1 1 3.19 16.89q-28.93 5.46-115.66 15.75h-.09q-43.92 4.74-61.7 4.34a8.59 8.59 0 1 1 .38-17.17Z" fill="#f5ac3a" data-color="1"/>
            <path d="M1310.78 541.36a8.58 8.58 0 0 0-11.75-3 13.74 13.74 0 0 1-2.09.76l-.27.08q-17 5.76-27.55 8.89L1219 562.26a7.21 7.21 0 0 0-.77-.3c-18.57-5.17-36.64-11.64-54.74-18.23-2.81-1-4.93-1.83-6.4-2.43q-28.63-35.07-49.92-62.33c-2.92-3.74-8.32-3.28-12.06-.36s-4.41 7.19-1.49 10.93q21.63 27.7 50.79 63.4a8.17 8.17 0 0 0 2 1.77 8.3 8.3 0 0 0 2.75 1.92c1.75.76 4.54 1.84 8.4 3.25q25.94 9.43 32.93 11.71c5.23 1.69 10.47 3.34 15.76 4.84 4.43 1.25 10.86 4.21 15.46 2.91l52.1-14.78h.11q10.88-3.22 28.2-9.09l-.27.09a28.19 28.19 0 0 0 5.45-2.19c.13-.07.26-.14.38-.22a8.58 8.58 0 0 0 3.1-11.79Z" fill="#f5ac3a" data-color="1"/>
            <path d="M1157.46 543a8.6 8.6 0 0 0-12.09 1.18q-79.38 96.49-84.49 105.59a10.43 10.43 0 0 0-1.37 4.08 8.59 8.59 0 0 0 7.72 9.38c4.4.43 7.44-2.53 9.32-6.14q7.88-11.77 82.09-102a8.61 8.61 0 0 0-1.18-12.09Z" fill="#f5ac3a" data-color="1"/>
            <path d="M1223.71 569.16c-4.28-2-11.45 4.06-11.45 4.06s-3.42 12.54-4.69 18.56v.16q-9.58 50-13 64.67v.19q-2.54 12.08-11.18 42.35a8.59 8.59 0 0 0 16.52 4.72q8.76-30.69 11.44-43.39c4.38-20.77 16.43-79 18-85.2.95-4.06-1.77-4.28-5.64-6.12Z" fill="#f5ac3a" data-color="1"/>
            <path d="M1062.82 650.72a8.59 8.59 0 0 0-8.1 5.73l-1.23 3.47-169.24 477.17q-3.64 10.23-12.6 33.9-3.52 9.35-7.88 20.77 5.41 9.3 11.07 18.84a8.58 8.58 0 0 0 .64-1.33q3.91-10.24 7.27-19.07 13.05-34.34 17.69-47.34l168.12-474 2.35-6.64a8.6 8.6 0 0 0-8.09-11.47Z" fill="#f5ac3a" data-color="1"/>
            <path d="m1195.54 713.93 2.42-5.22a8.59 8.59 0 0 0-4.21-11.4 8.46 8.46 0 0 0-3.58-.79 8.59 8.59 0 0 0-7.81 5l-5 10.78-158.7 344.7q-54.92 110-82.13 161.41-6.68 12.61-11.68 21.69 9.74-3 23.61-7.56 5.22-9.75 11.56-21.89 26.94-51.62 74.17-146.24l.12-.24 161.28-350.25Z" fill="#f5ac3a" data-color="1"/>
            <path d="M1260 494.31c-.6-1.48-1.75-4-1.75-4-.42-.91-3-5.9-3-5.9a6.86 6.86 0 0 0-13.07 4.14q.09.29.21.6c.19.5 3.12 6.23 3.4 6.86v.08c.46 1 1 2.11 1.49 3.39a6.85 6.85 0 0 0 12.67-5.21Z" fill="#f5ac3a" data-color="1"/>
            <path d="M1266.82 770.61a6.82 6.82 0 0 0-4.73 1.9q-.35.33-.69.72a36.54 36.54 0 0 0-3.59 5.24q-10.56 17.88-13.22 22.71a6.85 6.85 0 0 0 12 6.62q2.58-4.67 13-22.37a28.32 28.32 0 0 1 2-3 6.86 6.86 0 0 0-4.73-11.82Z" fill="#f5ac3a" data-color="1"/>
        </g>
    </g>
</svg>
