<?xml version="1.0" encoding="UTF-8"?>
<svg data-bbox="0.009 0.001 2099.162 3402.5" viewBox="0 0 2099.24 3402.56" xmlns="http://www.w3.org/2000/svg" data-type="color">
    <g>
        <g>
            <path d="M621.89 1108.29C585 998.26 559 881 513.94 776.05c5.89-19.79 29.62-13.88 34.18 3.83 33 71.32 50.35 148.49 73.33 223.35 9.65 32.42 19.3 64.84 30.18 96.89 5.52 18.96-24.26 27.62-29.74 8.17Z" fill="#f5ac39" data-color="1"/>
            <path d="M778 1585c-53.94-127-88.67-261.73-136.17-390.76.11.17.23.33.24.29l.11.22.41.61c-13.92-19.49 18.92-36.51 27-14a13.84 13.84 0 0 0-1.14-2.72c35.1 90 60.13 183.65 92.93 274.53 13.85 41 27.8 80.44 45.12 119.87 7.82 18.14-20.71 30.59-28.5 11.96Z" fill="#f5ac39" data-color="1"/>
            <path d="M1217.4 2644.17c-30.42-97.25-80.8-186.32-120.88-279.66-45.43-112.22-92.34-226.13-149.22-332.85-13.06-25.12 22-37.17 32.45-5.22 34.44 68.83 66.64 138.72 98.52 208.75 19.11 51.65 39 103 62.69 152.78 27.38 63.13 60.29 123.78 85.16 188 7.07 18.65 13.27 37.61 19.74 56.28a16.38 16.38 0 0 1 0 11.93c-4.58 12.18-24.02 12.51-28.46-.01Z" fill="#f5ac39" data-color="1"/>
            <path d="M924.69 3104.76c-27.12-101.69 7.25-223.15 71.63-304.6 37-49.06 96.91-68.91 153.43-85.76 27.59-10.08 33.82 28.46.87 31.82-32.49 11.54-64.78 19-92.92 39-71.22 50.81-100.15 141.42-111.25 224.66-2.17 28.81.08 59.57 8 86.69 5.55 18.99-24.55 27.66-29.76 8.19Z" fill="#f5ac39" data-color="1"/>
            <path d="M977 3205.66c-11.91-16-52.12-47-27.59-65.86 9.32-5.83 22.6.88 23.23 11.86a207 207 0 0 0 19 24.71c8.28 7.21 16.68 18.94 7.13 28.81-5.54 5.87-15.96 6.56-21.77.48Z" fill="#f5ac39" data-color="1"/>
            <path d="M1003.1 2939.57c-24.79-9.54-1.69-39.66 1.63-56.93 12-32.8 36.42-64.42 64-83.56a226.07 226.07 0 0 1 46.39-26.18c11.89-5.83 25.68 7.91 20.38 19.86-4.18 9.76-13.24 9.76-21 14.17-31.79 16.14-59.43 40.66-75.21 73-11.45 16.83-12.29 65.56-36.19 59.64Z" fill="#f5ac39" data-color="1"/>
            <path d="M969.8 2998.59c-2.19-22.49 31.92-23.51 30.8-.91 0-.46 0-.91.08-1.37 1.92 21.32-30.12 23.69-30.88 2.28Z" fill="#f5ac39" data-color="1"/>
            <path d="M1127.65 3314.9c-40.54-11-73.15-38.05-101.77-67.72-14.47-13.69 7-36.26 21.33-22.26 10.4 10.3 21 20.31 32 30 15.54 13.38 34 22.7 53.35 29.32 5.48 1.65 11.55 3 15.18 7.87 10.65 12.99-5.87 31.69-20.09 22.79Z" fill="#f5ac39" data-color="1"/>
            <path d="M71.6 454.41C60.9 400 59.15 341.28 82.71 289.91c8.09-13.69 17.17-40.48 37.29-34.54 26.1 13.91-6.45 33.35-10.79 50.68-19.06 44.9-16.6 96.5-7.27 142.8 3.78 19.49-26.8 25.34-30.34 5.56Z" fill="#f5ac39" data-color="1"/>
            <path d="M395.43 780.37c-51.16-.56-104.31-.62-151.24-23.75-67.92-28.87-123.92-81.48-146-153.09-6-21.44 26-28.12 30.51-6.43 33.48 103.52 145.93 157.06 249.4 152.37 51.6-7.47 43.49 36.86 17.33 30.9Z" fill="#f5ac39" data-color="1"/>
            <path d="M246 694.17c-25.8-6.1-115-125.14-76.23-140.1 25.31-5 22.16 31.89 33.69 46.19 13.06 24.14 31 45.41 50.86 64.22 17.92 5.82 10.02 34.03-8.32 29.69Z" fill="#f5ac39" data-color="1"/>
            <path d="m73.21 504.89-.07-.16c0-.06 0-.12 0 0-7.7-20.43 24.39-30.24 29.45-9 6.74 19.64-23.49 29.27-29.38 9.16Z" fill="#f5ac39" data-color="1"/>
            <path d="M118.86 463.91c-11.21-21.9 24.7-33.71 29.34-9.56 6.11 18.97-23.39 28.51-29.34 9.56Z" fill="#f5ac39" data-color="1"/>
            <path d="M610.17 905.28c-10.5-28.12-21.63-56-31.58-84.32-5.08-14-10.26-27.93-16-41.68-3-8.11-9.34-16.17-6.5-25.2A15.57 15.57 0 0 1 575 743.19c11.11 2.72 10.92 15 15.69 23.28 16.82 42 31.51 84.81 47.94 127 7.37 18.63-20.63 30.38-28.46 11.81Z" fill="#f5ac39" data-color="1"/>
            <path d="M386.27 725.55c-17.86-2.82-69.06 1.61-63.91-26.25a15.56 15.56 0 0 1 18.89-10.88c44 10.31 90.86 8.28 135 .31 13.37-5.55 31.23.35 27.51 17.44-5.28 22.04-97.1 19.57-117.49 19.38Z" fill="#f5ac39" data-color="1"/>
            <path d="M467.39 755.2c-8.72-14.63 11.68-31.87 24.76-21.33 18.9 15.89-11.78 42.23-24.76 21.33Z" fill="#f5ac39" data-color="1"/>
            <path d="M1249.37 3360.37c5.39.16 10.85-.22 16.24-.36 7.6-.6 15.15-1.22 22.7-2.22s15.23-2.35 22.83-3.77l15.38-3.75c4.84-1.19 9.62-2.9 14.38-4.4l13.84-5.16c4.39-1.65 8.66-3.87 13-5.89 4.1-2.24 8.22-4.48 12.32-6.7 3.75-2 7.32-4.61 10.92-7 3.7-2.74 7.38-5.49 11.08-8.24 3.11-2.31 6-5 8.94-7.57 6.43-6.2 12.61-12.48 18.69-19 3.78-4.55 7.57-9.07 11.13-13.8 4-5.23 7.72-10.57 11.44-16 6.51-10.36 12.61-20.83 18.32-31.67 6.08-13 11.25-26.2 16.1-39.7a488.3 488.3 0 0 0 6-20.9c1.79-9.13 3.19-18.19 4.18-27.45.67-12.71.76-25.32.43-38a630.8 630.8 0 0 0-9.11-72.49c-2.6-13.15-5.33-26.26-8.37-39.33-3-12.89-6.84-25.55-10.77-38.18-2.44-7.43-4.94-14.82-7.55-22.19-2.71-7.72-6.54-16-6.5-24.32.06-10.47 7.87-19.51 17.95-20.85 7.33-1 14.1 2 19 7.47 2.1 2.33 4 4.91 5.94 7.39 3.91 5.06 7.75 10.2 11.56 15.32 13.19 17.68 26.46 35.27 40.42 52.33 21.41 25.56 44.78 49.06 69 71.81a562.94 562.94 0 0 0 44.14 36.79 616 616 0 0 0 58.45 35.2c7.1 3.66 14.22 7.18 21.43 10.63 6.67 3.19 13.65 5.79 20.54 8.48 9.79 3.4 19.57 6.4 29.61 9a573 573 0 0 0 65.62 9c8.78.31 17.48.41 26.26.31 3.47-.22 6.93-.44 10.4-.68 3.94-.26 7.9-1 11.8-1.57 11-2.43 21.62-5.34 32.35-8.64a326.62 326.62 0 0 0 34.44-13.79c3.5-1.9 6.93-3.85 10.32-5.93 4.16-2.87 8.15-5.85 12.06-9.08 3.43-3.19 6.7-6.45 9.9-9.91 3.74-4.51 7.17-9.17 10.56-14 5.35-8.3 10.41-16.68 15.16-25.35 3.88-8.2 7.4-16.43 10.59-24.95 2.67-8.3 5-16.63 7.07-25.11 3.57-18.45 6.13-37 7.91-55.71.64-11.37.8-22.63.53-34-.82-12.1-2.12-24.06-3.69-36.1 0-.2-.07-.4-.11-.6v.12l-.36-1.89c-.05-.28-.11-.56-.16-.84 0 .12 0 .23.07.35-.42-2.2-.83-4.39-1.25-6.58-3.76-14-8-27.88-12.4-41.7-4.09-11.4-8.53-22.54-13.41-33.61-3.24-6.5-6.56-12.9-10-19.28s-7.61-12.66-11.52-18.87q-9.61-14.91-19.78-29.4c-6.88-9.81-14.4-19.09-22-28.28a.46.46 0 0 1 .07.07c-7.73-8.82-15.66-17.36-23.94-25.68-8.47-8.49-17.35-16.56-26.1-24.74l2 1.84c-23.65-21.59-48-42.15-73.81-60.92a713.88 713.88 0 0 0-62.08-39.39c-10.77-5.57-21.67-10.63-32.88-15.19-8.27-2.93-16.55-5.51-25-7.76-7.5-1.52-15-2.71-22.58-3.61a280.39 280.39 0 0 0-28.11.06c-15.13 1.24-30.07 3.54-45 6.11-7.21 1.21-14.42 2.51-21.65 3.61a35.94 35.94 0 0 1-18.89-2.05c-8.15-3.11-14.68-10.52-19.44-17.77a242.62 242.62 0 0 1-15.26-27.81c-13.37-27.75-25.16-56.25-36.65-84.86q-18.74-46.65-35.78-93.95c-11.41-31.59-22.77-63.2-34.64-94.6-12.21-32.32-24.9-64.45-37.77-96.47-26.47-65.88-52.93-131.75-80.2-197.28-26.79-64.38-53.73-128.68-79.88-193.35-26.69-66-53.77-131.91-80.74-197.84-26.45-64.66-53.26-129.21-78.82-194.27-25.42-64.71-50.42-129.62-75.68-194.41-23.17-59.49-45.52-119.28-68.61-178.81-22.91-59.06-49.15-117-68.88-177.31-1.51-4.75-2.84-9.54-4.08-14.35-.7-2.69-1.3-5.41-1.78-8.14a59.57 59.57 0 0 1-.72-15.88c.46-5.18 3.11-10.07 5.42-14.62a75.24 75.24 0 0 1 5.68-9c10.56-15 23.25-28.59 35.28-42.41 28.08-32.22 56.44-64.17 80.76-99.55q11.26-17.05 21.69-34.68c7.49-12.67 14.29-25.81 21-38.94 3.8-8.13 7.47-16.26 11-24.5 3.77-8.76 6.74-17.91 9.9-26.89-.33.89-.63 1.76-.93 2.65 4.43-13.82 8.37-27.63 11.72-41.76 1.9-9.88 3.6-19.74 4.81-29.77 1.19-9.88 2-19.78 2.79-29.71 2.11-30.37 4-60.74 2.57-91.19-1.33-18.45-3-36.81-6.21-55-1.2-5.27-2.48-10.45-3.91-15.65-2.11-6.2-4.41-12.21-7.06-18.2-9.48-19.69-20.09-38.75-31.37-57.39-6.69-10.23-13.7-20.06-21.34-29.59-3.7-4.1-7.44-8-11.3-12a210.5 210.5 0 0 0-15.52-12.62c-3.61-2.26-7.22-4.43-10.92-6.52-3.91-1.89-7.82-3.66-11.79-5.35-7.48-2.56-15-4.56-22.74-6.38a225.07 225.07 0 0 0-23.48-3.41c-3.58-.12-7.15-.16-10.74-.13a264.42 264.42 0 0 0-30.17 3.85 375.28 375.28 0 0 0-42 11.88 312.1 312.1 0 0 0-29.82 12.23 278.45 278.45 0 0 0-26.38 15.42 286.65 286.65 0 0 0-24.87 19.63 491.24 491.24 0 0 0-37 36.75c-7.34 8.44-14.41 17-20.92 26.16-3.17 4.91-6.11 9.9-8.8 15.11-2.89 6.4-5.47 12.9-7.83 19.53-3 9.35-5.59 18.74-7.73 28.33a427.38 427.38 0 0 0-6.82 50.92c-.64 10.74-1.06 21.49-1 32.25.06 10.27.64 20.55 1.23 30.83v-.13c1.08 16.39 2.83 32.66 5.1 48.91 1.2 8.61 2.51 17.2 3.77 25.79.73 4.91 1.45 9.85 1.83 14.8a27.17 27.17 0 0 1-3.39 15.73c-4.28 7.82-14.86 12.49-23.25 9.43a23.54 23.54 0 0 1-10.21-6.44 49.66 49.66 0 0 1-5.34-7.76c-2.47-4.09-4.68-8.34-6.88-12.58-7-13.48-13.6-27.17-20.59-40.67-15.53-30-32.67-59-50.63-87.52-9-13.75-18.31-27.09-28.41-40a654.27 654.27 0 0 0-50.86-54.13c-7.18-6.19-14.49-12-22.12-17.63-16-10.62-32.42-20.32-49.24-29.45-11.13-5.51-22.35-10.52-33.89-15a290.45 290.45 0 0 0-30.1-8.64c-8.37-1.68-16.71-3-25.19-3.91a341.59 341.59 0 0 0-39.06-.11 317.57 317.57 0 0 0-32.71 3.75 330.48 330.48 0 0 0-33 9.1c-6.8 2.49-13.42 5.24-20 8.32-10.66 5.43-21.08 11.18-31.18 17.63-13 9.08-25.39 18.82-37.54 29a370.171 370.171 0 0 0-20.4 19.82c-6 6.91-11.63 14-17.07 21.39a248.65 248.65 0 0 0-13.03 22.54c-2.73 6-5.27 12-7.7 18.18C54.42 298.34 51 311 48.08 324c-2.7 14.79-4.7 29.49-6 44.46a589.5 589.5 0 0 0-.11 59.75c2.29 35.28 5.78 70.35 11.69 105.19 1.87 9.48 3.84 18.93 6.23 28.3s5.3 18.84 8.24 28.21c3.48 10.54 7.09 21 11.16 31.29 3.77 9.53 8 18.8 12.32 28.07 5.67 11 11.63 21.61 18.15 32.06 3.85 5.43 7.75 10.71 11.82 15.94 7.08 8.21 14.47 15.93 22.28 23.38 10.64 9.34 21.75 18 33.1 26.4 10.46 7.2 21.11 13.88 32.14 20.08 11.39 5.8 22.94 10.84 34.82 15.5l6.08 2.27c.41.14.83.29 1.24.45 7.1 2.61 14.4 4.58 21.68 6.53 9.25 1.88 18.44 3.31 27.82 4.34a344.36 344.36 0 0 0 35.49.36c28.45-2 56.71-4.93 84.75-10.39q11.48-2.54 22.89-5.38c8-2 15.86-4.38 23.93-5.85 9.08-1.63 19.28-.8 26 6.61a40.94 40.94 0 0 1 7.75 12.92c3.53 9 5.68 18.67 8.35 28 4 13.94 8.35 27.75 12.71 41.54 9.42 29.86 19 59.65 28.5 89.51 10 31.67 19.71 63.47 29.75 95.14q4.8 15.1 9.69 30.18c10.86 33 21.93 65.83 33.47 98.54 11.42 32.41 22.85 64.85 34 97.37 22.83 66.75 45 133.75 68.15 200.36 11.83 34 23.48 68.05 35.73 101.89q19.67 54.39 40.24 108.4c12.79 33.51 25.9 66.88 38.85 100.31 12.47 32.21 24.92 64.44 37.61 96.54 52.72 133.32 106.13 266.41 162.45 398.16 28.64 67 58 133.55 87 200.34q21.69 50 43.09 100.16 10.54 24.63 21 49.35c6.54 15.45 13.43 30.79 19.54 46.44 2.55 6.54 4.27 13.36 2.08 20.31-.54 1.7-1.24 3.18-1.84 4.79.32-.88.62-1.75.92-2.64.18-.93.38-1.88.58-2.81a.1.1 0 0 0 0 .05c-1.08 5.59-3.49 10.44-8 13.93a20.17 20.17 0 0 1-15.24 4 21.59 21.59 0 0 1-17.68-18.47h-.58a172 172 0 0 0-20.93-.21 269.73 269.73 0 0 0-31.74 4.28 250.14 250.14 0 0 0-27 7.41 297.3 297.3 0 0 0-30.67 12.77 346.54 346.54 0 0 0-34.25 19.93c-6.89 4.77-13.55 9.82-20 15.26a237.4 237.4 0 0 0-17.08 17.09 323.57 323.57 0 0 0-21.54 28.34l1-1.47a432.43 432.43 0 0 0-24.09 41.58c-9.51 19.42-17.44 39.38-24.87 59.71-3.16 9.65-5.77 19.36-8 29.29-2.35 11.88-4.54 23.82-5.9 35.88-1.61 14.16-2.86 28.36-4 42.58-.87 14.41-1.57 28.84-1.51 43.29.05 13.84.5 27.61 1.14 41.41.75 10 1.72 19.87 3.09 29.78 1.05 4.94 2.29 9.74 3.79 14.58 3.21 9.5 6.8 18.78 10.81 27.95 4.2 8.52 8.84 16.72 13.82 24.76a503.83 503.83 0 0 0 30.69 41.91 338.21 338.21 0 0 0 25.18 26.44c10 9.2 20.23 18.13 31 26.44q13.87 9.74 28.57 18.11c23.69 12.25 48.11 22.84 72.81 32.72l-2.57-.93c11.26 4.1 22.55 7.93 34.11 11.09 10.92 3 22 5.39 33 7.81 8 1.43 15.92 2.86 24 3.93 7.38 1 14.75 1.61 22.16 2.24Zm-41.46 39.5a500.19 500.19 0 0 1-51.43-9.81c-7.67-1.84-15.42-3.59-23-6q-12.67-4.05-25.18-8.63c-15.76-5.74-31.3-12.59-46.56-19.63s-30.57-14.44-45-23.29a290.31 290.31 0 0 1-37.93-27.94 446.46 446.46 0 0 1-35.69-33.92 371.15 371.15 0 0 1-30.7-38.59c-8.86-12.54-17.41-25.42-24.54-39.09a265.87 265.87 0 0 1-18.15-44.51 132.87 132.87 0 0 1-5-20.67c-1.29-9.13-2.19-18.26-2.89-27.44-2.61-35.16-1.83-70.45.9-105.59 2.59-33.57 6.91-67 16.25-99.31 2.53-8.78 6-17.33 9.19-25.86 2.75-7.37 5.71-14.64 8.68-21.88a427.7 427.7 0 0 1 21.2-43.4c15.32-27.79 33.92-54.16 56.77-75.94 18.57-17.72 40.62-31.55 63.09-43.38a300.81 300.81 0 0 1 53.31-21.6 239.33 239.33 0 0 1 65.76-10.12l-2-4.62q-10.51-24.78-21-49.54-21.67-50.73-43.61-101.33c-28.69-66.47-58.07-132.62-86.52-199.19-56.19-131.59-109.52-264.35-162.21-397.44-12.78-32.25-25.27-64.63-37.8-97-13.09-33.78-26.38-67.48-39.25-101.34q-20.67-54.33-40.48-108.91c-12.23-33.8-23.88-67.83-35.69-101.78-23.15-66.52-45.28-133.42-68-200.07-22.47-65.76-46.2-131-67.85-197.08-16.75-51.08-32.17-102.59-48.55-153.8q-11.5-36-22.93-72.08c-3.6-11.42-7.15-22.87-10.51-34.37-1.54-5.34-3-10.7-4.51-16-12.59 3.12-25.1 6.51-37.82 9-16 3.18-32.06 5.59-48.27 7.49s-32.55 3.1-48.81 3.84a247 247 0 0 1-49.18-2.54 236.44 236.44 0 0 1-25.1-5.24c-3.61-1-7.17-2-10.72-3.2s-7.34-2.1-10.74-3.71c-1.68-.58-3.36-1.24-5.07-1.87a330.7 330.7 0 0 1-47.42-21.86 336.07 336.07 0 0 1-40.41-27c-14-10.76-27.79-21.93-39.88-35-5.4-5.82-10.66-11.72-15.58-18-6-7.72-11.44-15.8-16.71-24.1a317.53 317.53 0 0 1-22.79-44.1 547.89 547.89 0 0 1-31.64-97.68c-3.92-17.49-6.35-35.33-8.7-53.11-2.19-16.58-3.63-33.32-4.86-50-2.49-34.09-3.85-68.47.2-102.5C6.73 314.43 14.26 279 30 247.71a202.11 202.11 0 0 1 11.51-20.54c5.32-8.07 11-15.75 17-23.25 10.5-13 22.69-24.69 35.4-35.39 12.41-10.45 25.18-20.79 38.75-29.59a358.4 358.4 0 0 1 41.87-23.06c14.34-6.79 29.88-11.21 45.16-15.11 14.12-3.64 28.5-5.33 43-6.49a376.45 376.45 0 0 1 40.45-.88c15.5.43 30.66 3.13 45.8 6.44 31.8 7 61.87 21.24 90 37.74 14.15 8.32 27.91 17 41.26 26.66a192.25 192.25 0 0 1 18.32 15.34c6.08 5.67 12.18 11.33 17.93 17.36 17.89 18.81 35.8 37.89 50.82 59.24 14.64 20.81 28.07 42.47 41 64.44q4.89 8.31 9.64 16.69c-.72-14.65-1-29.26-.38-43.92s1.85-29.2 3.78-43.71a314.92 314.92 0 0 1 9.53-47.43c3.9-13.2 8.36-26.41 14.52-38.67 7.37-14.66 16.85-27.69 27.27-40.19a458 458 0 0 1 31.47-33.86 409.35 409.35 0 0 1 35.76-31.38 255.3 255.3 0 0 1 40.16-25c13.25-6.77 27.09-11.92 41.08-16.73a329.44 329.44 0 0 1 45.34-12.2c13.72-2.64 28.2-4.62 42.17-4.15a220.62 220.62 0 0 1 47 7.23c14.52 3.69 29 9.29 41.75 17.38a220.17 220.17 0 0 1 20.26 14.68c7.25 5.87 13.65 12.91 19.9 19.86 11.12 12.43 20.62 26.66 29.3 41s16.86 29.22 24.61 44.22c3.48 6.74 6.69 13.65 9.76 20.59a178.49 178.49 0 0 1 8.12 24.26c4.7 16.87 6.34 34.65 8 52.05a474.62 474.62 0 0 1 2.33 48.28c-.12 17.88-1.13 35.72-2.27 53.55-1.09 17.14-2.39 34.24-4.44 51.29a337.07 337.07 0 0 1-10.28 51.08A458.1 458.1 0 0 1 1066 538c-8 14.87-16.06 29.61-24.92 43.94Q1028.7 602 1014.8 621c-16.37 22.34-34.32 43.35-52.45 64.21-10.28 11.83-20.64 23.6-30.88 35.47-7.3 8.47-14.72 16.89-21.23 26a87.87 87.87 0 0 0-3.11 5.19q.24 1.82.66 3.6c-.18-.91-.34-1.81-.52-2.72 1.36 5.8 2.85 11.54 4.52 17.24l-.29-.86c.66 2 1.31 4 2 6 10.56 32.23 23.72 63.59 36.45 94.94 13.39 33 26.65 65.92 39.38 99.14q36.8 96.17 73.91 192.21c25.26 65.12 50.32 130.35 76.35 195.16 26.2 65.2 52.93 130.18 79.6 195.2q40.86 99.63 81.28 199.47c26 63.84 53 127.27 79.24 191.05q40.8 99.48 80.5 199.45 18.46 46.66 35.78 93.86c11.63 31.55 22.55 63.35 34.44 94.77 16.74 44.32 34 88.62 54.1 131.47a279.7 279.7 0 0 0 14.23 27.12c.66 1 1.33 1.95 2 2.9 3.8-.55 7.58-1.3 11.34-1.95 7.94-1.34 15.85-2.74 23.78-4a382.57 382.57 0 0 1 48.95-4.4c33.1-.95 65.27 9.29 95.31 22.65 15.56 6.92 30.38 15.8 44.92 24.74 13.15 8.09 25.9 16.8 38.55 25.72 27 19 52.23 40.49 76.67 62.86 17.53 16 34.72 32.43 50.46 50.35 16.64 19 31.5 39.6 45.16 60.91 12.75 19.86 25.06 40.1 33.83 62.21 4.94 12.39 9.3 24.88 13.4 37.6 3.55 11 7.23 22.34 9.51 33.74l2 10.77c2.94 16.23 4.12 33 4.49 49.5a354.07 354.07 0 0 1-2.85 50.52c-4 32.83-10.3 65.66-24.68 95.52-7.87 16.35-17.35 31.44-27.73 46.2-5.7 8.1-12.91 15.24-20.12 21.85a148.12 148.12 0 0 1-22.57 16.52c-11.33 7-23.74 11.77-36.06 16.54a320.15 320.15 0 0 1-49 14.24c-8.33 1.8-16.81 2.42-25.28 3a238.35 238.35 0 0 1-24.5.37c-16.57-.58-33-2.48-49.42-4.59a303.65 303.65 0 0 1-50.14-10.36c-32.16-9.79-62.29-25.21-91.36-42.2a441.93 441.93 0 0 1-39.92-25.9 461 461 0 0 1-38.25-31.71c-23.64-21.76-46.69-44.21-67.89-68.51q-2.51-2.86-5-5.76a653.62 653.62 0 0 1 13.64 96.4 310.6 310.6 0 0 1-.84 50.3 262.91 262.91 0 0 1-11.09 51.72 364.85 364.85 0 0 1-18.11 45.36c-7.55 16.05-17 31.1-27 45.63-9.4 13.65-20.12 26-31.3 38.14-5.75 6.22-12.31 11.69-18.72 17.14a191.76 191.76 0 0 1-20.64 15.4c-3.57 2.27-7.09 4.81-10.8 6.83l-12.66 6.88a186.32 186.32 0 0 1-24.19 10.51 293.41 293.41 0 0 1-49.62 13.89 350.11 350.11 0 0 1-63.73 6 316.44 316.44 0 0 1-41.39-2.63Z" fill="#f5ac39" data-color="1"/>
        </g>
    </g>
</svg>
