<?xml version="1.0" encoding="UTF-8"?>
<svg data-bbox="0 -0.007 650.39 303.002" viewBox="0 0 650.34 303.02" xmlns="http://www.w3.org/2000/svg" data-type="color">
    <g>
        <g>
            <path d="M500 31.57c33.63-41.41 33.63-41.41 79.84-4 86.42-71.75 66.28 85.28 70.55 130.26-5.08 46.29 13.35 112.65-46.6 118.61-161.18 39.27-324.81 27.78-487.47 11.29-30.21-5.68-99.52-7.66-108.99-25.23C-2.89 196.73 3.19 128.72 0 63.13 1.41 20.47 21.72 18 48.44 47.65 79.69 13.18 79.69 13.18 112 40c15-10.75 30.33-30.07 49.63-7.08 35.72-38.74 34.57-19.54 60.28-1.2 18.87-11.81 31.91-22 52.77-3.07 1.69 1.54 17.33-16 19.08-17.77 10.58-10.68 23.79 7.47 31.59 13.06s17.37-12.1 26.79-11.94c4.84.1 19 15.82 20.84 14.88 31-31.49 38.62-21.6 65.72-3.27 30.67-13.78 30.67-13.78 61.3 7.96Zm-477.48 210c-.06-1 17.58-6 19.38-6.62q9.94-3.22 20-6.14 20.07-5.82 40.49-10.36a745.14 745.14 0 0 1 81.74-13.35c27.72-3 55.58-4.58 83.45-5s56 .24 84 1.75c28.11 1.52 56.18 3.87 84.19 6.76s56.11 6.33 84.1 10 55.81 7.6 83.7 11.51l22.9 3.19c1.21-26.55 2.28-49.89 3.32-72.74-168-42.84-342.66-42.11-513.73-17-4.46.66-9 2.18-13.4 3.09-5.83 1.2-11.69 2.32-17.54 3.47-12.55 2.47-25.15 5-37.45 8.56-7.91 2.29-18.85 4.95-24.37 11.64a6.94 6.94 0 0 0-1.79 5.4c.29 2.06.29 9 5.65 8.87 7.39-.14 15-2.11 22.26-3.36.62-.1 2.89.28 1.75 1.3-1.78 1.6-5.11 2.39-7.29 3.4-3.15 1.45-6.28 2.94-9.41 4.43-1.59.75-3.17 1.55-4.69 2.46-1.34.8-2.58 2.09-3.94 2.78-3.59 3.07-2.62 9-2 13.14a3.8 3.8 0 0 0 1 2.38c2.1 1.83 5.59.24 7.78-.57 15.6-5.78 32.29-9.36 48.41-13.38a48.28 48.28 0 0 1 8.67-1.59c1-.06 4.7.08 2.67 1.65a22.37 22.37 0 0 1-4.56 2.22c-5.57 2.47-11.27 4.65-17 6.83C56.43 211.75 42 217 27.58 222.11l-1.27.45a6.57 6.57 0 0 0-3.11 1.85 6.47 6.47 0 0 0-1 3.88q-.2 6.65.27 13.3Zm573.62 11.06c-173.14-26.07-419.4-59.39-543.23 6.83 185.36 21.86 364.09 38.17 543.18-6.81Zm-1.8-166.85c2.73 1.87 1.31 12.86 1.16 15.84-.18 3.73-4.49 37.47 0 38.24l34.18 5.84c1-40.43-.86-77.93-10.13-116-.51-2.09-82.27 65.61-83.63 67.49-2.46 3.41 1.62 34.1 2.84 34.1h26c5.32 0 7.18-11.7 8.45-15.46a79.85 79.85 0 0 1 7.3-16c2.26-3.7 7.94-13.28 12.57-14.24a1.6 1.6 0 0 1 1.26.19Zm-72.18 41.59c5.61-35-39.66-79.59-56.77-96.93C441.63 65.62 398.57 89 415.32 117l16.74 1.32c3.51.28 7.38 1.73 10.91 1.07 4.76-.89 5.57-4.73 7.18-8.9a152.32 152.32 0 0 0 7-23.64c.48-2.24 2.32-18.81 7.38-16 5.26 3 5.62 14.79 6.15 19.94.41 4 .28 30.8 5.62 31.4Zm-330.43-6.07c-6.54-35.61-36.88-49.77-50.25-81.8-22.1 41.06-62.58 69.3-39.58 94.5l28.38-5c.71-.12 2.47-7.88 2.78-8.88 1.29-4.16 2.23-8.43 3.37-12.64 1-3.7 1.07-13.73 4.54-12 5.78 2.9 12.15 30.06 14.71 29.69 10.66-1.56 22.42-1.9 36.05-3.87Zm110.51-6.06L250 36.34C219 83.49 186.74 98 206.67 121l24.22-2c.65-.06 2.93-7.28 3.28-8.17l3.66-9.07c1.3-3.23 5.18-14.12 6-16.27.49-1.38 2.51-6.52 3.73-3.06 2.23 6.29 4.61 12.54 6.63 18.9.52 1.63 4 15 5.71 15 12.79-.11 23-1.09 42.34-1.09Zm46.93-82.37c-22 24.42-38.39 66.17-37.6 80.46h26.93c1.16 0 3.89-7 4.36-8.11 1.29-3 6.2-18.52 8.83-22.64.81-1.27 2.33-3.83 4.14-3.58 3.3.45 5.26 20.07 6.47 25.6.19.87 1.72 10 2.65 10h35c.45-32.14-32.95-69.83-50.78-81.73ZM20.81 152.79c0 .45 3.91.72 4.37.72a12.74 12.74 0 0 0 4.28-.81c2.68-.93 5.45-1.67 8.1-2.7a9.14 9.14 0 0 0 3.9-2.63c3.23-4.06 2.14-9.87 1.87-14.64-.28-5 0-11.2 2.65-15.56 3.23-5.24 7.61 6.41 8.41 8.45.9 2.26 6.83 17.83 8.89 17.23l21.4-6.26c.48-38.59-63.6-89.52-65.93-88.84-.5 31.35 1.62 70.81 2.06 105.04Zm508.92-75 41.38-36.59a107.07 107.07 0 0 0-16.34-17.76C550 19.19 543.63 12 536.7 12c-2 0-4.32 2-5.86 3.11a60.82 60.82 0 0 0-7.58 6.67 58.66 58.66 0 0 0-9.11 12.35C513 36.22 512 38.37 511 40.5c-.38.82-3.36 6-3 6.57Zm-126-5.61 26.79-34.73c-12.84-10.58-6.88-7.6-18.79-16.53-8.59-6.44-18.12 6.32-26.22 22.67ZM301.4 78.44l21.79-39.68C315.33 32 310.08 25.35 301.54 18c-7.06 9.39-14.3 18-20.71 26.53 6.3 10.36 11.86 19.55 20.57 33.91ZM60 59.62c9.26 7.64 15.34 14.92 27.24 23.85 5.9-10 12.78-21.13 18.92-31.54-9.16-8.19-16.48-11.52-24.9-19.06C71 42.71 67.17 45.07 60 59.62Zm131.81-36.46c-23.91 25.29-23.51 29.6 3.7 51.31l20.76-28.71Z" fill="#f5ac3b" data-color="1"/>
            <path d="M230.1 229.33c76.68 8 163.78 31.73 242.36 31.8-50.55 12.35-102.44 1.68-152-10.14-16.79-4-33.61-7.92-50.49-11.52-3.46-.75-40.29-6.23-39.87-10.14Z" fill="#f5ac3b" data-color="1"/>
        </g>
    </g>
</svg>
