<?xml version="1.0" encoding="UTF-8"?>
<svg data-bbox="-0.004 -0.002 3340.895 1761.522" viewBox="0 0 3340.91 1761.52" xmlns="http://www.w3.org/2000/svg" data-type="color">
    <g>
        <g>
            <path d="M1005.93 374.28C1429.75 347 1856.48 362 2280.3 365.6c7.8-.12 36.79 20.45 17.22-14.33-3-5.4 1.22-8.81 6.89-10 162.82-41.38 242-206.33 387.55-279.69 186.66-105.9 384.11-74.22 524.67 87.34C3548 547.23 3112 630.06 3109.7 933.22c101.53 216 323.12 327.56 146.35 606.71-182 318.34-566.24 256.2-776.25 2.9-52.48-51.7-111.35-102.83-185.23-120.67-13.76-3.23-18.94-7.18-9.23-20.21-379.48-10.63-836.09 12.65-1234.78-7.41-1 8.79 17.45 22.17-1 25.91-164.66 41.68-243.37 212.38-393 282.85-251.8 157.29-581.81-24-632.07-306.15-66.22-245.69 244.38-337.43 196.77-545.94C162.2 674.89-43.14 569.5 8.14 358 74.4 70.18 399.77-106.15 667.09 74c128.65 74.28 207 217.35 351.8 264.3 7.32 2.86 19.61-.64 21.12 9.18-18.15 55.51-105.31 16.11-142.66-1.6-234.7-204.46-576.62-483-793.95-85.58-99.65 185.36 97.45 352.05 189.84 500.25 55.94-165.06 67.38 226.52 39 262.47-6.41 21.26-16.83 22.77-30.68 12.25-8.75-6.66-10.17-4.38-14.35 2.78-30.15 51.6-69.91 95.7-109.42 140-281 397.32 250.51 776.77 676.12 279.61 47.69-42.38 103.76-68.14 167.86-72.11 2.74-4.13-2.23-5.46-4.31-7.66-20-13.44-11.54-33.49 12-29.1 313.12-.46 626.37 3.26 939.56 1.68 42.68 14 443.83-37.91 346.29 34.19 184.31 14.43 267.85 214.41 433.55 274.4 154.42 71.93 331.11 55.69 442.83-109.74 208.43-311.32-282.64-459.42-160-757 34.83-115 148.91-183.87 198.54-291 108.52-220.55-114.58-488.79-349.88-434.24-230.88 15.73-328.62 282-548.29 309.92 15.91 15.54 29 38.65-6.05 35.78-225.58 3.73-451.29-4.62-676.92-3.36-208.22-.17-416.43 2.51-624.65 3.61-33 6.82-49-14.33-16.76-35.72.2-.26-1.16-1.96-1.75-3.03Z" fill="#f5ac3a" data-color="1"/>
            <path d="M1648.13 1316.12c-1152-26.51 413.06-152.61 664.4-95.64 240.9 95.79-597.32 87.79-664.4 95.64Z" fill="#f5ac3a" data-color="1"/>
            <path d="M2858.34 1595.56c-224 37-608.78-422.85-441.23-322.55 200.25 231 569.6 395.74 716 17.79 98.59-89.47 38.09 307.77-274.77 304.76Z" fill="#f5ac3a" data-color="1"/>
            <path d="M399.74 685.75C369 421 646.44 466.35 652.49 595.9c28.85 246.03-245.42 426.63-252.75 89.85Zm52.1 7.7c4.45 320.06 189.9 32 126.67-115.52C495 454.92 445.63 615.19 451.84 693.45Z" fill="#f5ac3a" data-color="1"/>
            <path d="M158.08 1378.29c-9.36-26.65 39.14-151.16 51.66-85.28-1.38 148 151.91 250.38 269 226.45 28.72 5 105-57.79 100.35-2.5-9.19 70.13-89.26 70.59-142.48 86.8-126.09 26.6-266.19-104.37-278.53-225.47Z" fill="#f5ac3a" data-color="1"/>
            <path d="M479.24 285.29c-1.5 90.24-69.65 211.06-174.32 169.91-67.19-54.36-14.13-175.92 35.08-231.36 41.92-45.69 150.14-18.84 139.24 61.45Zm-84.6-3.24c-6-94.4-83.52 99.16-53.84 125.29 43.96-25.59 50.61-79.59 53.84-125.29Z" fill="#f5ac3a" data-color="1"/>
        </g>
    </g>
</svg>
