<?xml version="1.0" encoding="UTF-8"?>
<svg data-bbox="-0.03 0.001 165.218 286.922" viewBox="0 0 165.19 286.92" xmlns="http://www.w3.org/2000/svg" data-type="color">
    <g>
        <g>
            <path d="M80.31 50.69h-.14l-3.8-.83a.62.62 0 0 1-.4-.29c-10.06-17.4-28.25-27.43-45.27-25-11.92 1.74-20.22 9.12-24.11 13.36a.6.6 0 0 1-.77.1.62.62 0 0 1-.24-.75 30.11 30.11 0 0 1 6.62-9.81c5.28-5.18 12.57-8.3 21.08-9a44.68 44.68 0 0 1 22.3 3.88c7.77 3.65 12.87 9.41 15.61 12.51a59.72 59.72 0 0 1 9.67 15 .62.62 0 0 1-.08.63.6.6 0 0 1-.47.2zm-3.42-2 2.35.51a58.7 58.7 0 0 0-9-13.55c-2.83-3.23-7.63-8.65-15.18-12.23-12.1-5.72-30.93-5.94-42 4.92a28.43 28.43 0 0 0-4.7 6.09c4.61-4.27 12.14-9.59 22.18-11a41.4 41.4 0 0 1 26 5.08 54 54 0 0 1 20.35 20.2z" fill="#f5ac3a" data-color="1"/>
            <path d="M61.63 61a7.59 7.59 0 0 1-5.79-2.76A13.88 13.88 0 0 1 54 54.85c-.17-.38-.34-.78-.52-1.16a6.07 6.07 0 0 0-2.93-3.31c-1.33-.53-2.81-.21-4.38.12-.43.09-.87.19-1.3.26-6 1-13.72-3-16.4-8.74-1.79-3.77-1.11-7.66-.66-10.24A22.76 22.76 0 0 1 31 23.54a.61.61 0 0 1 1 .65A21.6 21.6 0 0 0 29 32c-.44 2.57-1 6.09.57 9.51 2.47 5.25 9.53 9 15.09 8.06.41-.07.82-.15 1.25-.25 1.68-.35 3.42-.72 5.09-.06a7.19 7.19 0 0 1 3.58 3.92c.19.4.36.8.54 1.2a13 13 0 0 0 1.67 3.09 6.23 6.23 0 0 0 9.79-.15 13.12 13.12 0 0 0 .76-1.17 7.78 7.78 0 0 1 1.8-2.26 6.11 6.11 0 0 1 5.57-.6 22.39 22.39 0 0 1 2.48 1 19.84 19.84 0 0 0 2.4.94 10.41 10.41 0 0 0 10.17-2.62 10.17 10.17 0 0 0-5.44-17.15.61.61 0 0 1 .22-1.2 11.4 11.4 0 0 1 6.09 19.21 11.68 11.68 0 0 1-11.39 2.92 20.91 20.91 0 0 1-2.54-1 20.74 20.74 0 0 0-2.35-.92c-.85-.26-3-.74-4.47.4a6.83 6.83 0 0 0-1.5 1.93 14.54 14.54 0 0 1-.84 1.2 7.58 7.58 0 0 1-5.81 3z" fill="#f5ac3a" data-color="1"/>
            <path d="M53.74 38.42a12 12 0 0 1-5.52-1.36c-.43-.25-.85-.53-1.25-.81a7.55 7.55 0 0 0-2.88-1.43 6.5 6.5 0 0 0-3.75.87l-.73.37a12.74 12.74 0 0 1-3.38 1.33 7.37 7.37 0 0 1-5.73-1.71 7.85 7.85 0 0 1-2.59-4.21.61.61 0 1 1 1.18-.28 6.65 6.65 0 0 0 2.18 3.55A6.11 6.11 0 0 0 36 36.19a11.22 11.22 0 0 0 3-1.21l.75-.38a7.66 7.66 0 0 1 4.49-1 8.56 8.56 0 0 1 3.36 1.63c.4.27.79.53 1.18.76a10.5 10.5 0 0 0 7 .94 9.62 9.62 0 0 0 5.61-4.3.61.61 0 1 1 1 .65 10.84 10.84 0 0 1-6.34 4.83 9.52 9.52 0 0 1-2.31.31z" fill="#f5ac3a" data-color="1"/>
            <path d="M46.78 50.25h-.06a.61.61 0 0 1-.55-.67 5.22 5.22 0 0 1 7.47-4.17 9.53 9.53 0 0 1 1.76 1.19c.31.24.6.47.91.68a7.2 7.2 0 0 0 3.44 1.21 4.86 4.86 0 0 0 2.73-.49A2.79 2.79 0 0 0 64 46a.61.61 0 0 1 1.21.16 4 4 0 0 1-2.11 2.92 6 6 0 0 1-3.41.62 8.49 8.49 0 0 1-4-1.41c-.34-.23-.67-.49-1-.74a8.69 8.69 0 0 0-1.54-1 4 4 0 0 0-5.73 3.2.6.6 0 0 1-.64.5z" fill="#f5ac3a" data-color="1"/>
            <path d="M92 71.28a.61.61 0 0 1-.45-.2.59.59 0 0 1 0-.85C96 66.1 97.72 60.22 98.38 56a19.54 19.54 0 0 0-.5-9.66 10 10 0 0 0-6.44-6.46.61.61 0 1 1 .32-1.18A11.25 11.25 0 0 1 99 45.94a20.85 20.85 0 0 1 .56 10.26c-.69 4.4-2.51 10.56-7.22 14.92a.59.59 0 0 1-.34.16z" fill="#f5ac3a" data-color="1"/>
            <path d="M6 59.59a4.42 4.42 0 0 1-4-2.85 5.62 5.62 0 0 1 .57-4.9.61.61 0 0 1 1 .65 4.32 4.32 0 0 0-.47 3.81A3.21 3.21 0 0 0 6 58.37a4.22 4.22 0 0 0 3.31-2.48 15.41 15.41 0 0 0 1.1-3.3c.11-.44.23-.89.36-1.34a7.81 7.81 0 0 1 2.77-4.51c1.7-1.2 3.91-1.22 5.84-1.14h.12c1.79.08 3.64.15 5.11-.66a5.06 5.06 0 0 0 2.23-2.68 7.73 7.73 0 0 0 .39-3.64.61.61 0 0 1 1.21-.14 9 9 0 0 1-.44 4.23A6.37 6.37 0 0 1 25.22 46c-1.76 1-3.88.88-5.74.8h-.12c-1.81-.08-3.7-.07-5.09.91A6.73 6.73 0 0 0 12 51.59c-.13.43-.24.87-.35 1.3a16.78 16.78 0 0 1-1.2 3.56 5.4 5.4 0 0 1-4.36 3.13z" fill="#f5ac3a" data-color="1"/>
            <path d="M72.18 77.18c-2.55 0-5.54-1.42-6.46-4.21a10 10 0 0 1-.29-3.72v-1.59a10 10 0 0 0-3.13-7 .6.6 0 0 1 0-.86.61.61 0 0 1 .86 0 11.17 11.17 0 0 1 3.51 7.8v1.68a9.36 9.36 0 0 0 .23 3.29c.73 2.31 3.3 3.43 5.43 3.43a10.82 10.82 0 0 0 6.51-2.86.61.61 0 0 1 .86.08.61.61 0 0 1-.08.86 12.07 12.07 0 0 1-7.25 3.14z" fill="#f5ac3a" data-color="1"/>
            <path d="M4.33 52.27a4.33 4.33 0 0 1-3.67-1.89 5.71 5.71 0 0 1-.56-3.93 15.24 15.24 0 0 1 5.38-9.54.61.61 0 0 1 .86.08.62.62 0 0 1-.09.86 14 14 0 0 0-4.95 8.78 4.61 4.61 0 0 0 .39 3.1A3.25 3.25 0 0 0 5.05 51a5.53 5.53 0 0 0 3.25-2.35 15.68 15.68 0 0 0 1.86-3.95l.15-.42A22.22 22.22 0 0 1 12 40.4a5.71 5.71 0 0 1 3.27-2.85 7.17 7.17 0 0 1 2.15-.16 6.58 6.58 0 0 0 1.68-.08 5 5 0 0 0 2.72-2c.29-.36.56-.75.83-1.13a15.94 15.94 0 0 1 1.56-2 5.08 5.08 0 0 1 3.79-1.7.61.61 0 1 1-.1 1.21 3.82 3.82 0 0 0-2.9 1.36 15.71 15.71 0 0 0-1.44 1.83c-.27.39-.56.79-.87 1.18a6.17 6.17 0 0 1-3.4 2.44 7.88 7.88 0 0 1-2 .11 6.17 6.17 0 0 0-1.79.11A4.69 4.69 0 0 0 13 41a20.51 20.51 0 0 0-1.55 3.67l-.15.42a16.76 16.76 0 0 1-2 4.26 6.72 6.72 0 0 1-4 2.81 4.63 4.63 0 0 1-.97.11z" fill="#f5ac3a" data-color="1"/>
            <path d="M35.17 19.35a.62.62 0 0 1-.32-.09.6.6 0 0 1-.2-.83 72.85 72.85 0 0 1 6.13-9 22.87 22.87 0 0 1 8.64-6.84c6.17-2.62 12.42-1 15.6.17a.6.6 0 0 1 .36.78.63.63 0 0 1-.79.36c-3-1.13-8.91-2.65-14.7-.19a21.7 21.7 0 0 0-8.18 6.5 71.43 71.43 0 0 0-6 8.88.61.61 0 0 1-.54.26z" fill="#f5ac3a" data-color="1"/>
            <path d="M37.35 16.4a.6.6 0 0 1-.35-1.07 13.79 13.79 0 0 1 5.48-2.76 27.07 27.07 0 0 1 5.39-.57l2.07-.09c1.89-.14 4.64-.49 6.62-2.09a14.58 14.58 0 0 0 2.28-2.57 17.89 17.89 0 0 1 2-2.37 9.56 9.56 0 0 1 7.68-2.49 13.67 13.67 0 0 1 6.84 3.14c.39.31.68.58 1 .87s.93.85 1.79 1.53a33.85 33.85 0 0 0 3.31 2.31.61.61 0 0 1 .19.84.59.59 0 0 1-.83.2 36.73 36.73 0 0 1-3.42-2.39c-.9-.71-1.41-1.18-1.86-1.59s-.59-.54-.94-.82a12.59 12.59 0 0 0-6.23-2.89 8.34 8.34 0 0 0-6.69 2.18A17 17 0 0 0 59.81 8a15.21 15.21 0 0 1-2.49 2.78C55.08 12.57 52.08 13 50 13.11c-.7.05-1.41.07-2.1.1a26.32 26.32 0 0 0-5.18.54 12.77 12.77 0 0 0-5 2.51.57.57 0 0 1-.37.14z" fill="#f5ac3a" data-color="1"/>
            <path d="M96.12 42.79a.62.62 0 0 1-.26-.06.61.61 0 0 1-.3-.8 20.78 20.78 0 0 0 1.82-11.07c-.54-4.36-2.49-7.37-4.38-10.29l-.28-.42c-1.66-2.58-4-5.77-7.39-7.56-2.77-1.47-6.86-2-9.75.24a14.94 14.94 0 0 0-2 2 11.44 11.44 0 0 1-3.15 2.76c-2.18 1.13-4.72.83-6.91.38l-.85-.18a14.31 14.31 0 0 0-5.49-.44c-1.86.35-3.77 1.91-3.63 3.82a.62.62 0 0 1-.56.65.61.61 0 0 1-.65-.56c-.2-2.61 2.19-4.65 4.61-5.11a15.2 15.2 0 0 1 6 .45l.84.18c2 .4 4.27.69 6.11-.27A10.36 10.36 0 0 0 72.67 14a15.76 15.76 0 0 1 2.17-2.15c3.32-2.53 8-2 11.06-.35 3.63 1.93 6.1 5.27 7.84 8l.28.42c2 3 4 6.17 4.56 10.8a21.8 21.8 0 0 1-1.91 11.72.6.6 0 0 1-.55.35z" fill="#f5ac3a" data-color="1"/>
            <path d="M98.13 46a.62.62 0 0 1-.59-.44.6.6 0 0 1 .42-.75c5.87-1.75 9.52-7.86 8-13.37a11 11 0 0 0-10.56-7.67A16.35 16.35 0 0 1 81 29.62a32.77 32.77 0 0 1-4.36-.94 33.81 33.81 0 0 0-3.81-.87c-1.47-.21-5.12-.45-7.17 2a.61.61 0 0 1-.92-.8c2.44-2.85 6.59-2.59 8.26-2.35a36 36 0 0 1 4 .89 30.22 30.22 0 0 0 4.2.91 15.08 15.08 0 0 0 13.46-5.62.59.59 0 0 1 .48-.23h.06a12.2 12.2 0 0 1 11.91 8.5c1.74 6.13-2.28 12.94-8.78 14.86z" fill="#f5ac3a" data-color="1"/>
            <path d="M10.51 30.58A.61.61 0 0 1 9.9 30a13 13 0 0 1 .79-5.77 30.11 30.11 0 0 1 2.84-5c1.39-2.11 2.23-3.55 2.85-4.6A16.5 16.5 0 0 1 19 11a20.35 20.35 0 0 1 3.36-2.84A19.4 19.4 0 0 1 26.56 6a.59.59 0 0 1 .67.19.59.59 0 0 1 .05.69 1.63 1.63 0 0 0 .58 2.14 4 4 0 0 0 2.72 0l.47-.11c2.28-.48 4.22-.05 5.33 1.18 1.51 1.68 1.08 4.29.85 5.7a.62.62 0 0 1-.7.5.61.61 0 0 1-.5-.7c.27-1.67.48-3.54-.55-4.68s-3.31-1-4.18-.81l-.45.1a4.94 4.94 0 0 1-3.57-.08 2.84 2.84 0 0 1-1.4-2.5A18.47 18.47 0 0 0 23 9.16a18.94 18.94 0 0 0-3.15 2.68 15.32 15.32 0 0 0-2.43 3.42c-.62 1.06-1.48 2.52-2.88 4.66a28.69 28.69 0 0 0-2.74 4.78 11.58 11.58 0 0 0-.69 5.24.61.61 0 0 1-.58.64z" fill="#f5ac3a" data-color="1"/>
            <path d="M26.76 7.21a.61.61 0 0 1-.34-1.11A35.08 35.08 0 0 1 41.24.35a34.57 34.57 0 0 1 14 .87.61.61 0 0 1-.24 1.17 33.69 33.69 0 0 0-27.9 4.72.59.59 0 0 1-.34.1z" fill="#f5ac3a" data-color="1"/>
            <path d="M18.7 18a6.34 6.34 0 0 1-3.14-.84.6.6 0 0 1-.23-.83.61.61 0 0 1 .83-.22 5.21 5.21 0 0 0 4 .46 10.08 10.08 0 0 0 2.05-.93l.7-.37a6.46 6.46 0 0 1 3.35-.86 3.14 3.14 0 0 1 2.88 2.27.6.6 0 1 1-1.18.26 2 2 0 0 0-1.8-1.32 5.23 5.23 0 0 0-2.69.74l-.68.35a11.59 11.59 0 0 1-2.29 1 6.34 6.34 0 0 1-1.8.29z" fill="#f5ac3a" data-color="1"/>
            <path d="M105.78 29.35a.58.58 0 0 1-.41-.17.6.6 0 0 1 0-.86 5.87 5.87 0 0 0 1.72-3.63 4.35 4.35 0 0 0 0-.88 5.17 5.17 0 0 0-3.82-4.32.62.62 0 0 1-.45-.54 18.31 18.31 0 0 0-.29-2.21 17.82 17.82 0 0 0-1.1-3.67 10.21 10.21 0 0 0-1.43-2.48 9.09 9.09 0 0 0-2.83-2.27 8.26 8.26 0 0 0-4.59-1.05 8.43 8.43 0 0 0-4.27 1.6 9.28 9.28 0 0 0-2.7 2.94.61.61 0 1 1-1-.61 10.57 10.57 0 0 1 3-3.33 9.54 9.54 0 0 1 4.88-1.81 9.38 9.38 0 0 1 5.24 1.18 10.23 10.23 0 0 1 3.22 2.59 11.36 11.36 0 0 1 1.55 2.75 18.75 18.75 0 0 1 1.19 3.93c.12.64.21 1.29.27 1.93a6.44 6.44 0 0 1 4.3 5.21 6.87 6.87 0 0 1 0 1.11 7.22 7.22 0 0 1-2 4.4.65.65 0 0 1-.48.19z" fill="#f5ac3a" data-color="1"/>
            <path d="M100.7 49.27c-.46 0-.94 0-1.41-.07a.61.61 0 1 1 .12-1.2 12.26 12.26 0 0 0 11.68-5.35c3.15-5.18 1.42-12.37-4-16.38a.61.61 0 0 1 .73-1c5.87 4.39 7.73 12.29 4.25 18a13.28 13.28 0 0 1-11.37 6z" fill="#f5ac3a" data-color="1"/>
            <path d="M98.61 24.25a.76.76 0 0 1-.21 0 .61.61 0 0 1-.36-.78 8.88 8.88 0 0 0-1.43-9.12 8.09 8.09 0 0 0-4.49-2.42.61.61 0 1 1 .23-1.19 9.29 9.29 0 0 1 5.16 2.79 10.11 10.11 0 0 1 1.67 10.35.6.6 0 0 1-.57.37z" fill="#f5ac3a" data-color="1"/>
            <path d="M83.51 96.67a5.69 5.69 0 0 1-4.88-3.17.61.61 0 0 1 1.07-.57 4.42 4.42 0 0 0 4.07 2.52 4.27 4.27 0 0 0 3.58-3.09 8.67 8.67 0 0 0-.46-4.19 12.55 12.55 0 0 1-.62-3.76 10.92 10.92 0 0 1 2.12-5.49l.57-.85a16.9 16.9 0 0 0 2.15-3.88 5.35 5.35 0 0 0-4.93-7.09 6.18 6.18 0 0 0-4.75 1.9 6.45 6.45 0 0 0-1.67 4.49.61.61 0 0 1-.59.63.61.61 0 0 1-.61-.59 7.6 7.6 0 0 1 2-5.37 7.4 7.4 0 0 1 5.7-2.31 6.56 6.56 0 0 1 6 8.69A17.74 17.74 0 0 1 90 78.75l-.56.84a9.92 9.92 0 0 0-1.93 4.86 11.61 11.61 0 0 0 .58 3.4 9.63 9.63 0 0 1 .47 4.79 5.48 5.48 0 0 1-4.67 4z" fill="#f5ac3a" data-color="1"/>
            <path d="M81.41 87.56a3.38 3.38 0 0 1-1.7-.45.62.62 0 0 1-.21-.84.6.6 0 0 1 .83-.21 2.18 2.18 0 0 0 2.06 0 2.15 2.15 0 0 0 1.14-1.72 5.1 5.1 0 0 0-.53-2.2l-.1-.14a5.12 5.12 0 0 1-.5-3.06 5.31 5.31 0 0 1 .87-1.73q.18-.25.33-.51a6.09 6.09 0 0 0 .63-4.84v-.12.05a1.46 1.46 0 0 0-.08.63v.2a5.66 5.66 0 0 1-3.39 5 .61.61 0 1 1-.47-1.13 4.38 4.38 0 0 0 2.64-3.86 1 1 0 0 0 0-.17 2.66 2.66 0 0 1 .18-1.15 1.45 1.45 0 0 1 .87-.74 1.13 1.13 0 0 1 .9.11 1.44 1.44 0 0 1 .57.87 7.32 7.32 0 0 1-.75 5.83q-.17.27-.36.54a4.28 4.28 0 0 0-.69 1.34 4 4 0 0 0 .35 2.28v.14a6.05 6.05 0 0 1 .66 2.8A3.4 3.4 0 0 1 83 87.19a3.47 3.47 0 0 1-1.59.37z" fill="#f5ac3a" data-color="1"/>
            <path d="M37.18 126.8a15.8 15.8 0 0 1-3-.29 20.2 20.2 0 0 1-10.34-5.81c-1.77-1.74-2.4-3.06-7.65-14.45-3.59-7.77-4.19-9.13-4.87-11.73a53 53 0 0 1-1.46-10.36A74.36 74.36 0 0 1 9.69 76a34.81 34.81 0 0 0-.29-6.75A41 41 0 0 0 6.5 59a.61.61 0 1 1 1.12-.48A42.15 42.15 0 0 1 10.6 69a35.92 35.92 0 0 1 .31 7 74.37 74.37 0 0 0 .16 8.09 51.69 51.69 0 0 0 1.42 10.13c.65 2.5 1.26 3.84 4.79 11.53 5.36 11.63 5.85 12.56 7.4 14.1a19.11 19.11 0 0 0 9.72 5.48c5.22 1 9.3-.88 15.47-3.72a62 62 0 0 0 14.3-9.18.62.62 0 0 1 .86.07.61.61 0 0 1-.07.86 63.52 63.52 0 0 1-14.58 9.35c-5.02 2.29-8.9 4.09-13.2 4.09z" fill="#f5ac3a" data-color="1"/>
            <path d="M68.9 286.92a40.71 40.71 0 0 1-14.63-2.53c-.56-.21-1.17-.47-1.83-.74a55 55 0 0 0-12.94-4 37.2 37.2 0 0 0-4.69-.54 6.92 6.92 0 0 1-3.15-.69c-3.78-1.77-4.81-5-6-8.76a32.1 32.1 0 0 0-5.09-10.64 23.52 23.52 0 0 0-6.45-5.85 20.73 20.73 0 0 1-7.24-7.3 32.53 32.53 0 0 1-4.26-11.82c-.67-3.87-.32-8.57 1-14 2.47-9.8 8.05-21.12 16.6-33.65A183.27 183.27 0 0 1 32 171.09c4.71-5.64 7.3-8.75 8.81-15.36 2.05-9 .72-18.86-4-29.29a.61.61 0 0 1 .31-.8.59.59 0 0 1 .8.3c4.79 10.68 6.15 20.79 4 30.06-1.57 6.89-4.39 10.27-9 15.87a179.85 179.85 0 0 0-11.66 15.27C2.89 214.1 2.94 228.8 3.82 233.87a31.43 31.43 0 0 0 4.1 11.4 19.89 19.89 0 0 0 6.88 6.92 24.62 24.62 0 0 1 6.74 6.12 33.54 33.54 0 0 1 5.28 11c1.2 3.76 2.06 6.47 5.36 8a5.76 5.76 0 0 0 2.7.58 36.19 36.19 0 0 1 4.83.55 57.23 57.23 0 0 1 13.2 4c.65.27 1.26.53 1.8.74 12.44 4.83 30.31 2.26 41.56-6a38.76 38.76 0 0 0 7.52-7.42c8-9.76 9.29-18.27 10.66-27.28 1.19-7.86 2.42-16 8.35-25.18 4.11-6.39 13.22-17.66 27.94-21.34a40.57 40.57 0 0 1 11.88-1.14 66.36 66.36 0 0 0-10.06-21.06c-5-7-9.75-10.63-19.1-17.64-4.58-3.43-8.67-6.47-12.28-9.16-22.68-16.79-28.07-20.8-32.18-29.42a48.93 48.93 0 0 1-4.5-21.8.61.61 0 0 1 1.22 0A47.51 47.51 0 0 0 90.07 117c4 8.36 9.35 12.33 31.84 29.07q5.41 4 12.28 9.16c9.2 6.89 14.23 10.81 19.35 17.89A67.8 67.8 0 0 1 164 195.41a.61.61 0 0 1-.63.77 39.12 39.12 0 0 0-12.35 1c-14.32 3.58-23.2 14.58-27.22 20.82-5.79 9-7 17-8.17 24.71-1.33 8.77-2.71 17.84-10.92 27.86a40.46 40.46 0 0 1-7.71 7.69 47.19 47.19 0 0 1-21.21 8.19 52 52 0 0 1-6.89.47z" fill="#f5ac3a" data-color="1"/>
            <path d="M100 275.56a.6.6 0 0 1-.51-.29.6.6 0 0 1 .19-.84c17.75-11.24 32.17-22.31 42.87-32.91 16.45-16.29 23.45-30.89 20.91-43.39a24.42 24.42 0 0 0-.61-2.38.61.61 0 1 1 1.16-.36c.25.82.47 1.66.64 2.5 2.65 12.92-4.49 27.89-21.25 44.49-10.76 10.67-25.25 21.79-43.07 33.08a.64.64 0 0 1-.33.1z" fill="#f5ac3a" data-color="1"/>
            <path d="M23 95.72a2 2 0 0 1-1.23-.38 3 3 0 0 1-1-2.15 29 29 0 0 1 .76-9.7l.21-1a38.63 38.63 0 0 0 1.11-8.34 11.85 11.85 0 0 0-3.08-8.33 8.66 8.66 0 0 0-8.14-2.19.61.61 0 1 1-.31-1.17A9.87 9.87 0 0 1 20.59 65 13 13 0 0 1 24 74.14a39.3 39.3 0 0 1-1.13 8.61l-.2 1a27.93 27.93 0 0 0-.76 9.3 2 2 0 0 0 .54 1.32c.51.36 1.34 0 2.14-.32l.23-.1a9.21 9.21 0 0 1 5.34-.49c.38.07.76.18 1.12.27a5.14 5.14 0 0 0 3 .26 2.19 2.19 0 0 0 .9-3.55.61.61 0 1 1 .9-.81 3.4 3.4 0 0 1-1.4 5.5 6.09 6.09 0 0 1-3.68-.24c-.36-.1-.7-.19-1-.26a8.09 8.09 0 0 0-4.64.42l-.22.1a5.61 5.61 0 0 1-2.14.57z" fill="#f5ac3a" data-color="1"/>
            <path d="M43.41 75.78a12.75 12.75 0 0 1-9-4 .61.61 0 0 1 0-.86.6.6 0 0 1 .86 0 11.37 11.37 0 0 0 9.09 3.57 11 11 0 0 0 6.76-3.37.61.61 0 0 1 .88.84 12.12 12.12 0 0 1-7.52 3.74 10.84 10.84 0 0 1-1.07.08z" fill="#f5ac3a" data-color="1"/>
            <path d="M51.62 72.17a.59.59 0 0 1-.29-.07 17.51 17.51 0 0 0-6.93-2 17.91 17.91 0 0 0-9.25 1.8.61.61 0 0 1-.53-1.1 19.27 19.27 0 0 1 9.87-1.92A19 19 0 0 1 51.9 71a.61.61 0 0 1-.28 1.15z" fill="#f5ac3a" data-color="1"/>
            <path d="M51.62 72.17a.61.61 0 0 1-.5-.26 9.91 9.91 0 0 0-6.85-4.16c-5.4-.61-8.86 3.92-8.9 4a.61.61 0 0 1-.85.13.62.62 0 0 1-.12-.88c.16-.21 3.93-5.12 10-4.44a11.21 11.21 0 0 1 7.72 4.67.61.61 0 0 1-.16.85.6.6 0 0 1-.34.09z" fill="#f5ac3a" data-color="1"/>
            <path d="M15.59 76.88A11.73 11.73 0 0 1 10 75.45a.61.61 0 0 1 .57-1.07 10.37 10.37 0 0 0 6 1.23 11 11 0 0 0 6.35-3 .61.61 0 0 1 .86 0 .6.6 0 0 1 0 .86 12.18 12.18 0 0 1-7.06 3.3c-.38.09-.72.11-1.13.11z" fill="#f5ac3a" data-color="1"/>
            <path d="M23.07 72.91a.58.58 0 0 1-.26-.06 17.72 17.72 0 0 0-12.4-1 .61.61 0 1 1-.33-1.17 19 19 0 0 1 13.25 1.1.61.61 0 0 1 .29.81.62.62 0 0 1-.55.32z" fill="#f5ac3a" data-color="1"/>
            <path d="M23 72.31a.62.62 0 0 1-.45-.2 9.87 9.87 0 0 0-6.13-3.26 9.24 9.24 0 0 0-6 1.45.61.61 0 0 1-.84-.19.61.61 0 0 1 .2-.84 10.41 10.41 0 0 1 6.81-1.63 11.09 11.09 0 0 1 6.89 3.65.6.6 0 0 1 0 .86.59.59 0 0 1-.48.16z" fill="#f5ac3a" data-color="1"/>
            <path d="M34.1 65a.58.58 0 0 1-.35-.11.6.6 0 0 1-.14-.85 9.59 9.59 0 0 1 4.64-3.36 16.29 16.29 0 0 1 5.51-.84h.05A18.43 18.43 0 0 1 54 62.61a.61.61 0 0 1-.67 1 17.13 17.13 0 0 0-9.48-2.55 14.9 14.9 0 0 0-5.15.77 8.42 8.42 0 0 0-4.06 2.92.63.63 0 0 1-.54.25z" fill="#f5ac3a" data-color="1"/>
            <path d="M23.37 104.82a4.91 4.91 0 0 1-3.15-1 .6.6 0 0 1-.09-.85.6.6 0 0 1 .85-.1l.14.1a8.07 8.07 0 0 1 3.32-3.19 7.77 7.77 0 0 1 4.93-.64 5 5 0 0 0 1 .1A4.73 4.73 0 0 0 32 99l.5-.15a7 7 0 0 1 4.26.4 17 17 0 0 1 2.79 1.59l2.35 1.45a.61.61 0 0 1 .28.57.6.6 0 0 1-.39.51 18.37 18.37 0 0 1-9.93.84l-.52-.1a12 12 0 0 0-1.5-.25 11.18 11.18 0 0 0-3.28.48c-.41.1-.84.21-1.27.3a10 10 0 0 1-1.92.18zm-1.13-1.33a6.67 6.67 0 0 0 2.83-.07l1.23-.29a12 12 0 0 1 3.65-.51 11.19 11.19 0 0 1 1.67.27l.5.1a17.34 17.34 0 0 0 8.07-.38l-1.19-.77a20.48 20.48 0 0 0-2.57-1.48 6 6 0 0 0-3.54-.36l-.44.13a5.88 5.88 0 0 1-2 .36 6.37 6.37 0 0 1-1.29-.13 6.53 6.53 0 0 0-4.15.54 6.75 6.75 0 0 0-2.77 2.59z" fill="#f5ac3a" data-color="1"/>
            <path d="M30.31 109.71a10 10 0 0 1-1.63-.13 11.89 11.89 0 0 1-7.74-5.39.61.61 0 0 1 1-.64 10.66 10.66 0 0 0 6.9 4.83c3.13.51 6.3-.66 9.42-3.49a13.67 13.67 0 0 0 1.92-2.16.6.6 0 0 1 .84-.14.61.61 0 0 1 .15.85 15.14 15.14 0 0 1-2.09 2.35c-2.85 2.61-5.8 3.92-8.77 3.92z" fill="#f5ac3a" data-color="1"/>
        </g>
    </g>
</svg>
