<?xml version="1.0" encoding="UTF-8"?>
<svg data-bbox="-0.03 -0.009 169.45 310.369" viewBox="0 0 169.41 310.36" xmlns="http://www.w3.org/2000/svg" data-type="color">
    <g>
        <g>
            <path d="M149 93.83a11.52 11.52 0 0 1-2-.2l-5.52-1a2.93 2.93 0 0 1-2.33-1.21 2.41 2.41 0 0 1 .46-2.61 2.51 2.51 0 0 1 1.34-.72.61.61 0 0 1 .71.48.6.6 0 0 1-.48.71 1.3 1.3 0 0 0-.68.36 1.18 1.18 0 0 0-.27 1.22c.17.31.71.43 1.47.57l5.51 1c1.9.34 3.1.2 3.57-.43a2.47 2.47 0 0 0 .26-1.27 9.05 9.05 0 0 0-.38-2.68l-.4-1.92c-.39-1.73-.58-2.59-.82-3.58-.91-3.79-.2-15.09-.15-15.85a41.39 41.39 0 0 0-4.07-17.24.6.6 0 1 1 1.09-.52 42.41 42.41 0 0 1 4.19 17.77c0 .12-.76 11.86.12 15.52.24 1 .43 1.86.82 3.57l.41 2a10 10 0 0 1 .4 3 3.34 3.34 0 0 1-.49 1.9 3.22 3.22 0 0 1-2.76 1.13z" fill="#f5ac3a" data-color="1"/>
            <path d="M133.56 100.91h-1.4a.61.61 0 0 1 0-1.22h1.2c2.07-1.29 3.11-1.85 5.19-3 1-.56 2.64-1.4 4-1a2.21 2.21 0 0 1 1.27.89 1.91 1.91 0 0 1 .29 1.4c-.5 2.59-7.06 2.93-10.55 2.93zm8.23-4.08a6.53 6.53 0 0 0-2.62 1c-1.36.72-2.27 1.21-3.33 1.83 3.69-.2 6.88-.83 7.08-1.84a.72.72 0 0 0-.1-.48 1.06 1.06 0 0 0-.61-.39 1.29 1.29 0 0 0-.42-.12z" fill="#f5ac3a" data-color="1"/>
            <path d="M140.29 104.37a9.07 9.07 0 0 1-3.46-.75 12 12 0 0 1-1.91-1.1 16.56 16.56 0 0 1-2.22-1.79.61.61 0 1 1 .84-.88 15.59 15.59 0 0 0 2.06 1.66 10.59 10.59 0 0 0 1.72 1c1.46.64 4 1.07 4.91 0a2.19 2.19 0 0 0 .32-1.86 2.48 2.48 0 0 0-.65-1.09.6.6 0 1 1 .84-.87 3.51 3.51 0 0 1 1 1.65 3.4 3.4 0 0 1-.54 2.93 3.55 3.55 0 0 1-2.91 1.1z" fill="#f5ac3a" data-color="1"/>
            <path d="M142.54 97a.61.61 0 0 1-.6-.51 11.38 11.38 0 0 1-.15-2 12.45 12.45 0 0 1 .26-2.36.61.61 0 0 1 .73-.46.6.6 0 0 1 .46.72 10.66 10.66 0 0 0-.24 2.11 11.07 11.07 0 0 0 .14 1.82.61.61 0 0 1-.5.7z" fill="#f5ac3a" data-color="1"/>
            <path d="M131.24 77.33a.6.6 0 0 1-.36-.12.61.61 0 0 1-.13-.85 27 27 0 0 1 3.06-3.62 9.69 9.69 0 0 1 4.19-2.45 6.15 6.15 0 0 1 5 .71.61.61 0 1 1-.68 1 5 5 0 0 0-4-.56 8.43 8.43 0 0 0-3.68 2.16 26.24 26.24 0 0 0-2.91 3.45.61.61 0 0 1-.49.28z" fill="#f5ac3a" data-color="1"/>
            <path d="M133.72 79.09a.61.61 0 0 1-.5-1c1.18-1.66 3.56-4.5 6.31-4.86.66-.09 2.05-.27 2.81.66a1.55 1.55 0 0 1-1.42 2.61 11.55 11.55 0 0 0-1.76.19 12.23 12.23 0 0 0-5.08 2.31.6.6 0 0 1-.36.09zm6.74-4.68a6.71 6.71 0 0 0-.77.06 6.29 6.29 0 0 0-3.25 1.79 13 13 0 0 1 2.5-.73 12.21 12.21 0 0 1 2-.2h.06a.51.51 0 0 0 .51-.16c.06-.12 0-.35-.14-.47a1.23 1.23 0 0 0-.91-.29z" fill="#f5ac3a" data-color="1"/>
            <path d="M140.87 81.83a11.39 11.39 0 0 1-7.55-2.89.61.61 0 0 1 .8-.91 10.39 10.39 0 0 0 4.11 2.23 9.9 9.9 0 0 0 2.72.35 7.05 7.05 0 0 0 .08-2.29 6.57 6.57 0 0 0-.63-2.12.61.61 0 0 1 .29-.81.6.6 0 0 1 .81.28 8.12 8.12 0 0 1 .74 2.49 8.24 8.24 0 0 1-.22 3.2.61.61 0 0 1-.56.45z" fill="#f5ac3a" data-color="1"/>
            <path d="M109.31 120.44a.6.6 0 0 1-.32-1.12 21.76 21.76 0 0 1 8.24-3 17.72 17.72 0 0 1 5.47.07 21 21 0 0 0 6 .11c6-.72 8.55-3 9-4.13a6 6 0 0 0 .4-1.42 5.68 5.68 0 0 0-.22-2.24c0-.2-.09-.38-.13-.56a7.77 7.77 0 0 1 .74-4.71.61.61 0 0 1 1.11.5 6.48 6.48 0 0 0-.65 4c0 .16.07.32.11.5a6.35 6.35 0 0 1-.24 4.43c-.77 1.79-3.85 4.13-10 4.86a23 23 0 0 1-6.34-.11 16.51 16.51 0 0 0-5.13-.07 20.61 20.61 0 0 0-7.79 2.85.61.61 0 0 1-.25.04z" fill="#f5ac3a" data-color="1"/>
            <path d="M116.29 234.54c-2.14 0-4.41-.11-7.1-.24-2.25-.12-4.81-.24-7.87-.33-8.15-.25-12.5 0-15.68.13a44.14 44.14 0 0 1-10.64-.41 78.27 78.27 0 0 1-20.42-5.89c-8.8-4.12-20.26-17.15-33.12-37.67A210.9 210.9 0 0 1 0 144.68a.63.63 0 0 1 .2-.68 169 169 0 0 1 57-34.06.6.6 0 0 1 .77.37.59.59 0 0 1-.37.77 167.68 167.68 0 0 0-56.29 33.59 209.94 209.94 0 0 0 21.16 44.82c12.74 20.32 24 33.19 32.61 37.21a77.33 77.33 0 0 0 20.08 5.79 43.61 43.61 0 0 0 10.42.4c3.2-.17 7.57-.39 15.77-.14 3.08.09 5.64.22 7.9.33 6.85.34 10.62.53 16.66-.78a55.45 55.45 0 0 0 11.71-3.89c9.33-4.55 17.35-19 23.83-43.07a199.21 199.21 0 0 0 6.66-57.71 84.47 84.47 0 0 0-30.06-13.26.62.62 0 0 1-.47-.73.61.61 0 0 1 .73-.46 85.95 85.95 0 0 1 30.75 13.63.61.61 0 0 1 .25.48 200.24 200.24 0 0 1-6.69 58.37c-6.62 24.34-14.81 39.13-24.47 43.85a57 57 0 0 1-12 4 44.28 44.28 0 0 1-9.86 1.03z" fill="#f5ac3a" data-color="1"/>
            <path d="M65.9 115.86a10.47 10.47 0 0 1-4.53-1 8.48 8.48 0 0 1-4-3.44 8.3 8.3 0 0 1-1-5.12.6.6 0 0 1 .68-.52.61.61 0 0 1 .53.68 7 7 0 0 0 .83 4.35 7.24 7.24 0 0 0 3.44 3 10.24 10.24 0 0 0 7.62.28 8 8 0 0 0 4.41-3c.49-.72 2-3.25.9-5.81a4.57 4.57 0 0 0-4.77-2.75 3 3 0 0 0-2 1.3 2.31 2.31 0 0 0 .15 2.21l-.53.31-.53.29a3.52 3.52 0 0 1-.14-3.43 4.18 4.18 0 0 1 2.87-1.88 5.76 5.76 0 0 1 6.11 3.48c1.32 3.12-.44 6.12-1 7a9.3 9.3 0 0 1-5 3.49 12.48 12.48 0 0 1-4.04.56z" fill="#f5ac3a" data-color="1"/>
            <path d="M83.44 152.46h-.16a36.48 36.48 0 0 1-22.18-16.74.61.61 0 0 1 .21-.84.63.63 0 0 1 .84.22 35.18 35.18 0 0 0 21.44 16.16.62.62 0 0 1 .41.74.63.63 0 0 1-.56.46z" fill="#f5ac3a" data-color="1"/>
            <path d="M103.69 147.64a.61.61 0 0 1-.49-1l5-6.92c.81-1.12 1.65-2.27 2.38-3.47a.61.61 0 0 1 1 .64c-.76 1.23-1.61 2.41-2.43 3.54l-5 6.92a.63.63 0 0 1-.46.29z" fill="#f5ac3a" data-color="1"/>
            <path d="M50 83.16a.63.63 0 0 1-.37-.12.6.6 0 0 1-.24-.48 27.09 27.09 0 0 1 19-25.92.61.61 0 0 1 .79.57 26.66 26.66 0 0 1-4.38 15.26 27 27 0 0 1-14.6 10.67.5.5 0 0 1-.2.02zm18-25.1a25.87 25.87 0 0 0-17.35 23.67 25.61 25.61 0 0 0 13.15-9.94A25.28 25.28 0 0 0 68 58.06z" fill="#f5ac3a" data-color="1"/>
            <path d="M70.5 85.88a27.18 27.18 0 0 1-15.43-5 .62.62 0 0 1 0-1 27.13 27.13 0 0 1 32.11-1.09.58.58 0 0 1 .26.48.58.58 0 0 1-.22.49 26.61 26.61 0 0 1-14.7 6c-.7.09-1.37.12-2.02.12zm-14-5.49a25.71 25.71 0 0 0 15.94 4.2 25.4 25.4 0 0 0 13.38-5.2 25.87 25.87 0 0 0-29.32 1z" fill="#f5ac3a" data-color="1"/>
            <path d="M68.84 72.89a.66.66 0 0 1-.35-.11.63.63 0 0 1-.26-.48 27.1 27.1 0 0 1 18-26.58.61.61 0 0 1 .54.07.59.59 0 0 1 .27.47 26.7 26.7 0 0 1-3.83 15.41A27 27 0 0 1 69 72.86a.58.58 0 0 1-.16.03zm17.07-25.73a25.9 25.9 0 0 0-16.48 24.27 25 25 0 0 0 16.48-24.27z" fill="#f5ac3a" data-color="1"/>
            <path d="M88.5 74.88a27.19 27.19 0 0 1-14.68-4.43.59.59 0 0 1-.27-.47.61.61 0 0 1 .22-.5 27.08 27.08 0 0 1 32-2.25.63.63 0 0 1 .29.47.59.59 0 0 1-.21.5 25.88 25.88 0 0 1-17.35 6.68zm-13.31-5a25.65 25.65 0 0 0 16.08 3.63 25.37 25.37 0 0 0 13.19-5.68 25.91 25.91 0 0 0-29.27 2z" fill="#f5ac3a" data-color="1"/>
            <path d="M88.28 61.52a.58.58 0 0 1-.33-.1.59.59 0 0 1-.27-.47 24.94 24.94 0 0 1 16-24.9.6.6 0 0 1 .54.05.6.6 0 0 1 .29.46 24.54 24.54 0 0 1-3.16 14.28 24.81 24.81 0 0 1-12.86 10.65zm15-24A23.74 23.74 0 0 0 88.85 60a23.47 23.47 0 0 0 11.41-9.81 23.24 23.24 0 0 0 3.05-12.7z" fill="#f5ac3a" data-color="1"/>
            <path d="M105.79 62.88a25.12 25.12 0 0 1-13-3.73.59.59 0 0 1-.28-.46.56.56 0 0 1 .2-.5 25 25 0 0 1 29.44-2.85.64.64 0 0 1 .3.46.61.61 0 0 1-.19.51 24.54 24.54 0 0 1-13.18 6.34 23.45 23.45 0 0 1-3.29.23zm-11.64-4.33a23.55 23.55 0 0 0 14.76 2.9 23.19 23.19 0 0 0 11.9-5.45 23.75 23.75 0 0 0-26.66 2.58z" fill="#f5ac3a" data-color="1"/>
            <path d="M106 50.31a.74.74 0 0 1-.25-.05.62.62 0 0 1-.34-.42 21.55 21.55 0 0 1 10.29-23.38.57.57 0 0 1 .54 0 .6.6 0 0 1 .35.41 21.16 21.16 0 0 1-.78 12.6 21.47 21.47 0 0 1-9.51 10.8.6.6 0 0 1-.3.04zm9.59-22.37a20.35 20.35 0 0 0-9.16 20.81 20.08 20.08 0 0 0 8.22-9.75 19.86 19.86 0 0 0 .92-11.06z" fill="#f5ac3a" data-color="1"/>
            <path d="M117.94 49.38a22 22 0 0 1-8.4-1.69.64.64 0 0 1-.35-.42.64.64 0 0 1 .12-.53 21.54 21.54 0 0 1 24.74-6.36.62.62 0 0 1 .36.4.59.59 0 0 1-.11.53 21.12 21.12 0 0 1-10.39 7.18 20.21 20.21 0 0 1-5.97.89zm-7.14-2.5a20.19 20.19 0 0 0 12.76.45 19.93 19.93 0 0 0 9.25-6.12 20.3 20.3 0 0 0-22 5.67z" fill="#f5ac3a" data-color="1"/>
            <path d="M120.92 37.37a.57.57 0 0 1-.25-.06.6.6 0 0 1-.34-.42 21.54 21.54 0 0 1 10.28-23.38.66.66 0 0 1 .55 0 .63.63 0 0 1 .35.41 21.16 21.16 0 0 1-.78 12.6 21.43 21.43 0 0 1-9.51 10.8.67.67 0 0 1-.3.05zM130.51 15a20.33 20.33 0 0 0-9.16 20.81 20.16 20.16 0 0 0 8.24-9.76 19.91 19.91 0 0 0 .92-11.05z" fill="#f5ac3a" data-color="1"/>
            <path d="M133.45 26.2a.65.65 0 0 1-.2 0 .61.61 0 0 1-.38-.39 18.34 18.34 0 0 1 7-20.55.6.6 0 0 1 .92.31 18 18 0 0 1 .24 10.73 18.23 18.23 0 0 1-7.29 9.83.6.6 0 0 1-.29.07zm6.48-19.48a17.1 17.1 0 0 0-6.13 17.88 17 17 0 0 0 6.11-8.68 16.62 16.62 0 0 0 .02-9.2z" fill="#f5ac3a" data-color="1"/>
            <path d="M141.6 25.44a18.49 18.49 0 0 1-5.85-.94.61.61 0 0 1-.38-.39.59.59 0 0 1 .08-.53 18.29 18.29 0 0 1 20.56-7 .61.61 0 0 1 .39.38.59.59 0 0 1-.07.53 18 18 0 0 1-8.33 6.76 17.5 17.5 0 0 1-6.4 1.19zm-4.66-1.85a16.89 16.89 0 0 0 10.6-.47 16.74 16.74 0 0 0 7.3-5.61 17.07 17.07 0 0 0-17.9 6.08z" fill="#f5ac3a" data-color="1"/>
            <path d="M132.88 36.43a21.85 21.85 0 0 1-8.4-1.69.6.6 0 0 1-.23-.94A21.55 21.55 0 0 1 149 27.43a.57.57 0 0 1 .36.41.63.63 0 0 1-.1.53 21.18 21.18 0 0 1-10.39 7.17 20.21 20.21 0 0 1-5.99.89zm-7.14-2.5a20.1 20.1 0 0 0 12.75.45 19.83 19.83 0 0 0 9.26-6.11 20.27 20.27 0 0 0-22 5.66z" fill="#f5ac3a" data-color="1"/>
            <path d="M54.64 81.31a.6.6 0 0 1-.53-.31.6.6 0 0 1 .24-.82c3.88-2.18 7.81-4.39 11.65-6.6 11.95-6.81 22.53-13 25.53-14.84C103.84 51.32 117.88 40 133.3 25a.61.61 0 0 1 .86 0 .6.6 0 0 1 0 .86c-15.49 15.06-29.6 26.48-41.95 34-3 1.82-13.6 8-25.56 14.86-3.88 2.2-7.82 4.43-11.7 6.6a.66.66 0 0 1-.31-.01z" fill="#f5ac3a" data-color="1"/>
            <path d="M113.55 18.24a5.27 5.27 0 0 1-3.16-1.06 6.19 6.19 0 0 1-2.3-5.2 6.93 6.93 0 0 1 1.31-3.7 9.57 9.57 0 0 1 5.35-3.36 10.79 10.79 0 0 1 4.94-.34 9.72 9.72 0 0 1 6.11 4.27 15.9 15.9 0 0 1 2.37 7A.61.61 0 1 1 127 16a14.57 14.57 0 0 0-2.18-6.46 8.51 8.51 0 0 0-5.32-3.75 9.77 9.77 0 0 0-4.38.32 8.42 8.42 0 0 0-4.7 2.9 5.77 5.77 0 0 0-1.08 3 5 5 0 0 0 1.83 4.17 3.87 3.87 0 0 0 4.3.29 2 2 0 0 0 .92-1.1 2 2 0 0 0-.23-1.38 7.13 7.13 0 0 0-1.05-1.37.6.6 0 0 1 0-.86.61.61 0 0 1 .86.05 8.1 8.1 0 0 1 1.22 1.61 3.18 3.18 0 0 1 .34 2.26 3.21 3.21 0 0 1-1.45 1.82 4.67 4.67 0 0 1-2.53.74z" fill="#f5ac3a" data-color="1"/>
            <path d="M95.42 31.63a6.58 6.58 0 0 1-1.4-.14 8.24 8.24 0 0 1-5.83-5 7.54 7.54 0 0 1-.19-5.38 5.68 5.68 0 0 1 4-3.61 4.58 4.58 0 0 1 5 2.21 4.25 4.25 0 0 1-1.39 5.11.61.61 0 0 1-.86-.09.61.61 0 0 1 .1-.86 3 3 0 0 0 1.07-3.59 3.4 3.4 0 0 0-3.62-1.59 4.45 4.45 0 0 0-3.12 2.84 6.3 6.3 0 0 0 .14 4.47 7.1 7.1 0 0 0 5 4.3 5.73 5.73 0 0 0 5.87-2.3 9.21 9.21 0 0 0 1.13-2.53 6.32 6.32 0 0 1 2-3.27 8.57 8.57 0 0 1 5.91-2 8.41 8.41 0 0 1 4 1.17 8 8 0 0 1 2.39 2.24.61.61 0 0 1-.15.85.62.62 0 0 1-.85-.15 6.54 6.54 0 0 0-2-1.9 7.12 7.12 0 0 0-3.38-1 7.44 7.44 0 0 0-5 1.72 5.19 5.19 0 0 0-1.61 2.73 10.19 10.19 0 0 1-1.27 2.83 6.9 6.9 0 0 1-5.94 2.94z" fill="#f5ac3a" data-color="1"/>
            <path d="M80.8 44.57h-.32a5.23 5.23 0 0 1-4.38-3.79 8.24 8.24 0 0 1 .6-5.71 12.08 12.08 0 0 1 14-6.74.6.6 0 1 1-.3 1.17 10.89 10.89 0 0 0-12.59 6.07 7.07 7.07 0 0 0-.55 4.86 4 4 0 0 0 3.31 2.93 4.35 4.35 0 0 0 2.43-.63 4.14 4.14 0 0 0 1.42-1.23 2.81 2.81 0 0 0 .38-2.36 2.39 2.39 0 0 0-1.66-1.58 2.07 2.07 0 0 0-2.14.74.61.61 0 0 1-1-.71 3.29 3.29 0 0 1 3.32-1.22 3.6 3.6 0 0 1 2.55 2.4 4 4 0 0 1-.54 3.42 5.31 5.31 0 0 1-1.82 1.6 5.7 5.7 0 0 1-2.71.78z" fill="#f5ac3a" data-color="1"/>
            <path d="M67.08 53.43a6.06 6.06 0 0 1-4.78-2.27A6.62 6.62 0 0 1 61.15 47a9.23 9.23 0 0 1 .85-3.84 9.69 9.69 0 0 1 2.45-3.5 9.44 9.44 0 0 1 3.42-1.94.61.61 0 0 1 .37 1.16 8 8 0 0 0-3 1.69 8.35 8.35 0 0 0-2.14 3.07 7.88 7.88 0 0 0-.73 3.36 5.48 5.48 0 0 0 .9 3.46 4.83 4.83 0 0 0 4.42 1.75 5.35 5.35 0 0 0 3.91-2.86.6.6 0 0 1 .81-.29.61.61 0 0 1 .29.81 6.23 6.23 0 0 1-5.62 3.6z" fill="#f5ac3a" data-color="1"/>
            <path d="M135.18 60.6a4.07 4.07 0 0 1-2.75-1.06 5.4 5.4 0 0 1-1.5-3.78 5.85 5.85 0 0 1 .77-3.4 6 6 0 0 1 2.59-2.18 7.32 7.32 0 0 1 4.19-.58 14.14 14.14 0 0 0 4.06-.15 9.15 9.15 0 0 0 3.92-1.45 8.46 8.46 0 0 0 2.54-3 11.26 11.26 0 0 0 1-7.82 10.75 10.75 0 0 0-4.18-5.93.61.61 0 0 1 .7-1 12 12 0 0 1 4.66 6.62 12.58 12.58 0 0 1-1.11 8.71 9.64 9.64 0 0 1-2.9 3.42 10.28 10.28 0 0 1-4.41 1.68 15.76 15.76 0 0 1-4.37.17 6.16 6.16 0 0 0-3.58.46 4.87 4.87 0 0 0-2.07 1.69 4.58 4.58 0 0 0-.6 2.69 4.37 4.37 0 0 0 1.12 3 2.88 2.88 0 0 0 3.19.43 2.8 2.8 0 0 0 1.43-2.18 2.91 2.91 0 0 0-1-2.4.61.61 0 0 1 .75-1A4.11 4.11 0 0 1 139.1 57a4 4 0 0 1-2.1 3.15 3.91 3.91 0 0 1-1.82.45z" fill="#f5ac3a" data-color="1"/>
            <path d="M137.88 46.8a4.29 4.29 0 0 1-2.11-.53.61.61 0 1 1 .59-1.06 3.48 3.48 0 0 0 3.74-.4 4.2 4.2 0 0 0 1.43-3.66 5.3 5.3 0 0 0-2.08-3.54.61.61 0 0 1-.11-.85.6.6 0 0 1 .85-.11 6.44 6.44 0 0 1 2.55 4.35 5.36 5.36 0 0 1-1.88 4.74 4.74 4.74 0 0 1-2.98 1.06z" fill="#f5ac3a" data-color="1"/>
            <path d="M121.61 67.53a6.81 6.81 0 0 1-3.92-1.22 6.89 6.89 0 0 1-2.87-6.31.6.6 0 0 1 .67-.54.61.61 0 0 1 .54.67 5.6 5.6 0 0 0 8 5.63 3.28 3.28 0 0 0 1.54-1.41 2.17 2.17 0 0 0-3.85-2 .6.6 0 0 1-.82.25.61.61 0 0 1-.25-.83 3.38 3.38 0 0 1 6 3.09 4.45 4.45 0 0 1-2.1 2 6.87 6.87 0 0 1-2.94.67z" fill="#f5ac3a" data-color="1"/>
            <path d="M127 66.78a9.72 9.72 0 0 1-2.2-.26.61.61 0 0 1-.45-.73.62.62 0 0 1 .73-.46 8 8 0 0 0 4.2-.11 9 9 0 0 0 5.4-5.44.6.6 0 0 1 .78-.36.6.6 0 0 1 .36.77c-.29.81-1.94 4.88-6.18 6.19a9 9 0 0 1-2.64.4z" fill="#f5ac3a" data-color="1"/>
            <path d="M104.29 80.55A7.91 7.91 0 0 1 99 78.27a14.56 14.56 0 0 1-3.21-4.75.61.61 0 0 1 .3-.81.62.62 0 0 1 .81.3 13.26 13.26 0 0 0 2.93 4.37 6.85 6.85 0 0 0 4.54 2 4.4 4.4 0 0 0 4-2.32 7.92 7.92 0 0 0 .55-2 13.2 13.2 0 0 1 .35-1.58 5.57 5.57 0 0 1 2.54-3.25 4.12 4.12 0 0 1 4.2.06 3.38 3.38 0 0 1 1.32 4 2.93 2.93 0 0 1-1.81 1.59 2.7 2.7 0 0 1-2.2-.22.61.61 0 0 1 .64-1 1.43 1.43 0 0 0 1.19.1 1.68 1.68 0 0 0 1.06-.91 2.16 2.16 0 0 0-.86-2.54 3 3 0 0 0-3 0 4.4 4.4 0 0 0-2 2.55 12.17 12.17 0 0 0-.32 1.44 8.85 8.85 0 0 1-.64 2.31 5.64 5.64 0 0 1-5 3z" fill="#f5ac3a" data-color="1"/>
            <path d="M116.56 72.45a.61.61 0 0 1-.14-1.2 6 6 0 0 0 4.38-4.47.61.61 0 0 1 1.19.27 7.24 7.24 0 0 1-1.81 3.37 7.14 7.14 0 0 1-3.47 2 .39.39 0 0 1-.15.03z" fill="#f5ac3a" data-color="1"/>
            <path d="M100 95.34a5.9 5.9 0 0 1-2-.34 4.74 4.74 0 0 1-2.26-1.67 3.56 3.56 0 0 1-.57-2.87 2.87 2.87 0 0 1 2.19-2.07A2.42 2.42 0 0 1 100 89.9a.61.61 0 0 1-1.15.39 1.21 1.21 0 0 0-1.31-.72 1.61 1.61 0 0 0-1.22 1.18 2.27 2.27 0 0 0 .39 1.86 3.59 3.59 0 0 0 1.69 1.23 5.51 5.51 0 0 0 5.75-1.53 7.43 7.43 0 0 0 1.75-6 11.34 11.34 0 0 0-2.89-5.9.61.61 0 0 1 .91-.8 12.44 12.44 0 0 1 3.19 6.54 8.66 8.66 0 0 1-2.07 7 7 7 0 0 1-5.04 2.19z" fill="#f5ac3a" data-color="1"/>
            <path d="M93.53 93.8a14.49 14.49 0 0 1-5.63-1.11 11.58 11.58 0 0 1-4.62-3.21 11.34 11.34 0 0 1-2.56-6.76.61.61 0 1 1 1.22 0 10.07 10.07 0 0 0 2.27 6 10.29 10.29 0 0 0 4.16 2.87 13.89 13.89 0 0 0 7.74.79.6.6 0 0 1 .7.49.61.61 0 0 1-.49.71 16 16 0 0 1-2.79.22z" fill="#f5ac3a" data-color="1"/>
            <path d="M77.82 104.81h-.62a6.23 6.23 0 0 1-3.19-1 5.36 5.36 0 0 1-2.23-2.93A4.41 4.41 0 0 1 72.2 97a3.22 3.22 0 0 1 2-1.39 3.17 3.17 0 0 1 2 .24.61.61 0 1 1-.52 1.1 1.84 1.84 0 0 0-1.2-.15 2 2 0 0 0-1.21.89 3.23 3.23 0 0 0-.25 2.8 4.14 4.14 0 0 0 1.74 2.28 5.16 5.16 0 0 0 2.6.83A8.85 8.85 0 0 0 85 99.66a9.26 9.26 0 0 0 .6-8.25.61.61 0 0 1 1.12-.49 10.4 10.4 0 0 1-.7 9.4 10 10 0 0 1-8.2 4.49z" fill="#f5ac3a" data-color="1"/>
            <path d="M52.39 99.44a6.78 6.78 0 0 1-2-.31 5.26 5.26 0 0 1-2.55-1.56 4.88 4.88 0 0 1-1.12-2.75 6.71 6.71 0 0 1 2.74-5.93 7.1 7.1 0 0 1 6.49-.66.61.61 0 1 1-.47 1.12 5.81 5.81 0 0 0-5.31.53 5.47 5.47 0 0 0-2.24 4.84 3.66 3.66 0 0 0 .84 2.06 4 4 0 0 0 2 1.19 5.58 5.58 0 0 0 2.54.19A6.63 6.63 0 0 0 56 96.9a9.64 9.64 0 0 0 2.15-2 .61.61 0 0 1 1 .77 11.13 11.13 0 0 1-2.42 2.23 7.65 7.65 0 0 1-3.22 1.45 6.88 6.88 0 0 1-1.12.09z" fill="#f5ac3a" data-color="1"/>
            <path d="M59.09 107.17a12.13 12.13 0 0 1-2.19-.17 7.7 7.7 0 0 1-6.79-7.9.6.6 0 0 1 .6-.62.6.6 0 0 1 .6.6 7.14 7.14 0 0 0 2.07 5 7 7 0 0 0 3.74 1.71 9.94 9.94 0 0 0 8.2-2 9.59 9.59 0 0 0 2.76-4.57 12.57 12.57 0 0 0-.71-8.72.6.6 0 0 1 .3-.8.61.61 0 0 1 .81.3 13.79 13.79 0 0 1 .76 9.58 10.73 10.73 0 0 1-3.12 5.13 10.5 10.5 0 0 1-7.03 2.46z" fill="#f5ac3a" data-color="1"/>
            <path d="M53.68 88.94a.6.6 0 0 1-.46-.21A10.15 10.15 0 0 1 51.14 85a9.78 9.78 0 0 1-.42-2.85.61.61 0 0 1 .39-.57l.9-.34a.62.62 0 0 1 .78.36.6.6 0 0 1-.35.78l-.49.19a8.17 8.17 0 0 0 .36 2.08 8.89 8.89 0 0 0 1.82 3.29.6.6 0 0 1-.05.86.62.62 0 0 1-.4.14z" fill="#f5ac3a" data-color="1"/>
            <path d="M71.72 32.26a4.36 4.36 0 0 1-2.11-.54 2.93 2.93 0 0 1-1.61-2.6 2.08 2.08 0 0 1 1-1.64 1.66 1.66 0 0 1 1.63 0 .62.62 0 0 1 .23.83.61.61 0 0 1-.83.23.47.47 0 0 0-.44 0 .87.87 0 0 0-.45.65 1.77 1.77 0 0 0 1 1.47 3.33 3.33 0 0 0 3.98-.66 5.75 5.75 0 0 0 1.17-4v-1.12a12.83 12.83 0 0 1 .29-3.79 6.8 6.8 0 0 1 10.56-3.69.61.61 0 0 1-.72 1 5.59 5.59 0 0 0-8.69 3 11.71 11.71 0 0 0-.24 3.43v1.15A6.81 6.81 0 0 1 75 30.86a4.51 4.51 0 0 1-3.28 1.4z" fill="#f5ac3a" data-color="1"/>
            <path d="M98.89 12.91a12.78 12.78 0 0 1-1.64-.1 9 9 0 0 1-5.1-2.19 5.64 5.64 0 0 1-1.76-5.35 6.56 6.56 0 0 1 2.79-3.65A8.72 8.72 0 0 1 96.81.08a6 6 0 0 1 4 .7 4.67 4.67 0 0 1 2.27 3.43 3.88 3.88 0 0 1-1.86 3.73 3.56 3.56 0 0 1-4.13-.55.6.6 0 0 1 0-.86.61.61 0 0 1 .86 0 2.33 2.33 0 0 0 2.69.36 2.63 2.63 0 0 0 1.24-2.54 3.45 3.45 0 0 0-1.69-2.52A4.76 4.76 0 0 0 97 1.28a7.37 7.37 0 0 0-3.12 1.34 5.47 5.47 0 0 0-2.31 2.94A4.42 4.42 0 0 0 93 9.73a8 8 0 0 0 4.4 1.87 12.45 12.45 0 0 0 8.16-1.83c.3-.19.58-.39.89-.6a7.88 7.88 0 0 1 3.72-1.73.61.61 0 1 1 .11 1.21 7 7 0 0 0-3.14 1.51c-.3.21-.61.43-.92.63a13.75 13.75 0 0 1-7.33 2.12z" fill="#f5ac3a" data-color="1"/>
            <path d="M52.93 71.06a.55.55 0 0 1-.3-.09 9.18 9.18 0 0 1-4.33-5.56A7.95 7.95 0 0 1 49.91 58a2.61 2.61 0 0 0 .75-1.4 3.86 3.86 0 0 0-.57-2.12l-.27-.61a9.69 9.69 0 0 1 .11-7.25 9.37 9.37 0 0 1 5.44-4.8.63.63 0 0 1 .79.36.61.61 0 0 1-.36.78 8.14 8.14 0 0 0-4.75 4.14 8.4 8.4 0 0 0-.11 6.3c.08.19.17.38.26.57a4.87 4.87 0 0 1 .66 2.83 3.78 3.78 0 0 1-1 2 8.77 8.77 0 0 0-.65.88 7.73 7.73 0 0 0-.71 5.47 7.92 7.92 0 0 0 3.75 4.8.61.61 0 0 1-.31 1.14z" fill="#f5ac3a" data-color="1"/>
            <path d="M112 7.16a.62.62 0 0 1-.5-.27 7.52 7.52 0 0 0-9-2.78.61.61 0 1 1-.41-1.11 8.73 8.73 0 0 1 10.41 3.21.61.61 0 0 1-.5 1z" fill="#f5ac3a" data-color="1"/>
            <path d="M55.65 42.94a.61.61 0 0 1-.59-.46 16.06 16.06 0 0 1 7-17.23c.54-.33 1.09-.63 1.63-.91A12.59 12.59 0 0 0 67 22.13a11 11 0 0 0 2.57-5.63c.49-2.13 1-4.33 3.15-5.95a12.93 12.93 0 0 1 3.4-1.78 11.61 11.61 0 0 1 4.81-.45 14 14 0 0 1 4-2 9.05 9.05 0 0 1 2.37-.5 8.67 8.67 0 0 1 3.84.62.62.62 0 0 1 .34.79.6.6 0 0 1-.79.34A7.47 7.47 0 0 0 87.36 7a8.16 8.16 0 0 0-2.08.44 13.4 13.4 0 0 0-3.83 2 .65.65 0 0 1-.45.11 10.24 10.24 0 0 0-4.51.38 11.9 11.9 0 0 0-3 1.59c-1.8 1.35-2.22 3.16-2.71 5.26a12.15 12.15 0 0 1-2.9 6.22 13.7 13.7 0 0 1-3.59 2.43c-.52.28-1.06.57-1.56.87a15 15 0 0 0-6.49 15.9.61.61 0 0 1-.45.74z" fill="#f5ac3a" data-color="1"/>
            <path d="M98.41 258.9h-1.24a106.35 106.35 0 0 1-26.25-3.61.62.62 0 0 1-.45-.69 67.09 67.09 0 0 0 .85-9.17 67.26 67.26 0 0 0-.85-12.43.62.62 0 0 1 .51-.7.62.62 0 0 1 .7.51 69.59 69.59 0 0 1 .86 12.65 70 70 0 0 1-.78 8.79 104.73 104.73 0 0 0 53.26 0 49 49 0 0 1 .13-21.49.61.61 0 0 1 .73-.46.61.61 0 0 1 .46.73 47.55 47.55 0 0 0-1.2 12.4 46.81 46.81 0 0 0 1.2 9.12.62.62 0 0 1-.44.73 106.41 106.41 0 0 1-27.49 3.62z" fill="#f5ac3a" data-color="1"/>
            <path d="M97.89 266.42h-1.2A93.49 93.49 0 0 1 69.6 262a4.13 4.13 0 0 1-2.88-4.47 3.83 3.83 0 0 1 .46-1.37 4.32 4.32 0 0 1 3.92-2.12.61.61 0 0 1 0 1.22 3.09 3.09 0 0 0-2.81 1.49 3 3 0 0 0-.32.95 2.92 2.92 0 0 0 2 3.14 92.21 92.21 0 0 0 57.57-.57 2.61 2.61 0 0 0 1.56-1.44 2.35 2.35 0 0 0 0-1.94l-.09-.18a2.94 2.94 0 0 0-3.15-1.46.61.61 0 0 1-.71-.48.61.61 0 0 1 .48-.72 4.16 4.16 0 0 1 4.45 2.09 2 2 0 0 1 .13.25 3.6 3.6 0 0 1 0 2.93 3.86 3.86 0 0 1-2.29 2.1 93.26 93.26 0 0 1-30.03 5z" fill="#f5ac3a" data-color="1"/>
            <path d="M98.94 301h-.12a81.94 81.94 0 0 1-38.68-9.81.64.64 0 0 1-.29-.37.57.57 0 0 1 0-.46A81.1 81.1 0 0 0 67 273.15a81.27 81.27 0 0 0 2.43-11.68.61.61 0 0 1 .68-.53.6.6 0 0 1 .52.68 81.07 81.07 0 0 1-2.46 11.86 81.84 81.84 0 0 1-6.94 16.88 80.35 80.35 0 0 0 75.35 0 82.36 82.36 0 0 1-6.93-16.88 81.07 81.07 0 0 1-2.46-11.86.6.6 0 0 1 .52-.68.61.61 0 0 1 .68.53 81.25 81.25 0 0 0 2.42 11.68 82.16 82.16 0 0 0 7.19 17.16.6.6 0 0 1-.24.83A81.9 81.9 0 0 1 98.94 301z" fill="#f5ac3a" data-color="1"/>
            <path d="M60.43 301a.66.66 0 0 1-.23 0c-1.14-.48-4.92-2.27-5.68-5.5a4.84 4.84 0 0 1 0-2.26A4.72 4.72 0 0 1 57.2 290a4.63 4.63 0 0 1 3.39.06.61.61 0 0 1 .33.8.6.6 0 0 1-.8.32 3.39 3.39 0 0 0-2.47 0 3.4 3.4 0 0 0-1.94 4c.63 2.74 4.24 4.36 5 4.65a.61.61 0 0 1-.24 1.17z" fill="#f5ac3a" data-color="1"/>
            <path d="M99.12 310.36a86.41 86.41 0 0 1-39-9.47.61.61 0 0 1 .55-1.09 84.36 84.36 0 0 0 46.51 8.94 82.46 82.46 0 0 0 29.94-8.93c2.8-1.34 4.83-3.16 5.21-4.64a4.66 4.66 0 0 0 .11-1.36 3.75 3.75 0 0 0-.94-2.15 3.67 3.67 0 0 0-3.87-.49.61.61 0 0 1-.79-.34.6.6 0 0 1 .34-.79 4.82 4.82 0 0 1 5.18.76 5 5 0 0 1 1.29 2.89 6.1 6.1 0 0 1-.14 1.78c-.47 1.84-2.71 3.92-5.84 5.42a83.73 83.73 0 0 1-30.32 9.11c-2.82.23-5.57.36-8.23.36z" fill="#f5ac3a" data-color="1"/>
        </g>
    </g>
</svg>
