<?xml version="1.0" encoding="UTF-8"?>
<svg data-bbox="0 -0.02 170.633 308.68" viewBox="0 0 170.65 308.66" xmlns="http://www.w3.org/2000/svg" data-type="color">
    <g>
        <g>
            <path d="M80.93 144.57h-.84c-9.29-.34-15.8-6.22-18.92-9-18.92-17.13-16.05-52.76-15.28-59.73a.6.6 0 0 1 .67-.53.61.61 0 0 1 .54.67c-.76 6.86-3.59 42 14.88 58.64 3 2.73 9.31 8.4 18.16 8.72 7.9.28 13.8-3.77 16.64-5.72 8.77-6 15-17.79 18.39-35a142.73 142.73 0 0 0 2.62-26.73.62.62 0 0 1 .6-.62.62.62 0 0 1 .61.61 143.76 143.76 0 0 1-2.65 27c-3.5 17.5-9.85 29.52-18.89 35.73-2.84 1.97-8.65 5.96-16.53 5.96z" fill="#f5ac3a" data-color="1"/>
            <path d="M123.65 70.19a.61.61 0 0 1-.6-.54c-2.12-19.1-15.7-34.44-33-37.31-9.8-1.62-20.41 1.11-29.1 7.49a44.38 44.38 0 0 0-17.76 29.84.6.6 0 0 1-.6.52.6.6 0 0 1-.6-.52 48.5 48.5 0 0 1 11.33-38.89c8-9.23 19.2-14.73 29.89-14.73h.18c10.82.06 21.66 5.49 29.74 14.89a48.57 48.57 0 0 1 11.12 38.72.6.6 0 0 1-.6.53zM83.21 17.27c-10.34 0-21.16 5.34-29 14.31a47.2 47.2 0 0 0-11.44 33.74A45.39 45.39 0 0 1 60.2 38.85c9-6.57 19.89-9.38 30-7.71A39.57 39.57 0 0 1 112.94 44a45.91 45.91 0 0 1 10.56 20.9 47.3 47.3 0 0 0-11.29-33.14c-7.85-9.13-18.36-14.41-28.83-14.47z" fill="#f5ac3a" data-color="1"/>
            <path d="M47.19 76.29a4.19 4.19 0 0 1-.86-.09c-2.49-.53-4.33-3.31-4.33-6.61a.78.78 0 0 1 0-.16A44.39 44.39 0 0 1 58.8 44.9a41.77 41.77 0 0 1 27.73-8 41.31 41.31 0 0 1 23.76 10 44 44 0 0 1 13.95 22.48.6.6 0 0 1-.44.74.6.6 0 0 1-.74-.44c-4.52-17.51-19.24-30.21-36.62-31.59C66.66 36.57 48.5 49.82 43.2 69.66c0 2.65 1.5 5 3.39 5.35 1.43.31 3-.51 4.66-2.43a9.12 9.12 0 0 0 1.91-7 .61.61 0 0 1 1.21-.15 10.35 10.35 0 0 1-2.2 8c-1.68 1.89-3.35 2.86-4.98 2.86z" fill="#f5ac3a" data-color="1"/>
            <path d="M54.81 66.21a5.63 5.63 0 0 1-1.55-.21 4.31 4.31 0 0 1-2.78-2.26A4.24 4.24 0 0 1 52 58.62a3.9 3.9 0 0 1 4.66.11 3.75 3.75 0 0 1 1.17 2.72.6.6 0 0 1-.6.61.62.62 0 0 1-.62-.6 2.49 2.49 0 0 0-.76-1.82 2.72 2.72 0 0 0-3.18 0 3 3 0 0 0-1.09 3.61 3.16 3.16 0 0 0 2 1.59 5.53 5.53 0 0 0 2.82 0 8.72 8.72 0 0 0 4.8-3.23 17.45 17.45 0 0 0 1.36-2.32 20.21 20.21 0 0 1 1.3-2.29 11 11 0 0 1 8.19-4.63 20.29 20.29 0 0 1 2.71.06c.53 0 1.07.07 1.59.08a6.61 6.61 0 0 0 3.75-.82 5.56 5.56 0 0 0 2.05-2.84 12.58 12.58 0 0 0 .75-3.7c.15-2.56.25-5.17.31-7.74a.59.59 0 0 1 .62-.59.6.6 0 0 1 .59.62c-.06 2.59-.16 5.2-.31 7.78a14.06 14.06 0 0 1-.81 4 6.79 6.79 0 0 1-2.54 3.45 7.67 7.67 0 0 1-4.43 1c-.55 0-1.11 0-1.65-.08a20 20 0 0 0-2.55-.07 9.77 9.77 0 0 0-7.27 4.11 19.64 19.64 0 0 0-1.21 2.11 19.61 19.61 0 0 1-1.46 2.48A9.86 9.86 0 0 1 56.71 66a8.14 8.14 0 0 1-1.9.21z" fill="#f5ac3a" data-color="1"/>
            <path d="M59.57 50.91a5.75 5.75 0 0 1-4.4-2 .61.61 0 0 1 .94-.78 4.62 4.62 0 0 0 6 .77 10.71 10.71 0 0 0 1.27-1.18 8.69 8.69 0 0 1 1.73-1.51 7.17 7.17 0 0 1 4.45-.85c.6 0 1.2.12 1.79.2a21.82 21.82 0 0 0 2.37.23 10.29 10.29 0 0 0 9.4-6.23.61.61 0 0 1 1.12.46 11.37 11.37 0 0 1-10.36 7h-.18a20.88 20.88 0 0 1-2.52-.24c-.56-.07-1.15-.15-1.71-.19a6 6 0 0 0-3.72.67 8.26 8.26 0 0 0-1.49 1.32 10.21 10.21 0 0 1-1.46 1.32 5.5 5.5 0 0 1-3.23 1.01z" fill="#f5ac3a" data-color="1"/>
            <path d="M113.92 68.67a8.73 8.73 0 0 1-6.25-3.24 25.86 25.86 0 0 1-3.13-5.07c-.29-.59-.6-1.19-.92-1.77-1-1.78-2.54-4.27-5-5.36a14.08 14.08 0 0 0-5.82-.79c-4.16 0-5.06-.18-6.38-.93-1.67-.94-2.88-2.74-3.59-5.33a.61.61 0 0 1 1.17-.33c.63 2.28 1.64 3.83 3 4.61 1 .55 1.54.77 5.77.76a15.36 15.36 0 0 1 6.33.9c2.77 1.24 4.49 4 5.55 5.88.32.6.64 1.21.94 1.8a23.9 23.9 0 0 0 3 4.84c1.42 1.65 3.82 3.23 6.3 2.71a3.48 3.48 0 0 0 2.61-2 2.71 2.71 0 0 0-.16-2 1.34 1.34 0 0 0-.77-.72 2.1 2.1 0 0 0-2.24 1.44.6.6 0 0 1-1.11-.48 3.29 3.29 0 0 1 3.69-2.13 2.51 2.51 0 0 1 1.51 1.33 3.87 3.87 0 0 1 .22 2.94 4.68 4.68 0 0 1-3.51 2.84 6.21 6.21 0 0 1-1.21.1z" fill="#f5ac3a" data-color="1"/>
            <path d="M109.29 52.32a9.87 9.87 0 0 1-6.29-2.27 19.94 19.94 0 0 1-1.72-1.72c-.36-.4-.73-.8-1.11-1.17A5.34 5.34 0 0 0 97 45.48a7.51 7.51 0 0 0-2.38.35c-.38.11-.79.21-1.19.29a9.1 9.1 0 0 1-10.31-6 .61.61 0 1 1 1.15-.39 7.87 7.87 0 0 0 8.93 5.18c.37-.07.73-.16 1.12-.26a7.8 7.8 0 0 1 2.78-.39 6.48 6.48 0 0 1 3.84 2c.41.4.79.82 1.17 1.23a17.39 17.39 0 0 0 1.6 1.61 8.8 8.8 0 0 0 9.12 1.2.61.61 0 0 1 .81.3.6.6 0 0 1-.3.8 9.63 9.63 0 0 1-4.05.92z" fill="#f5ac3a" data-color="1"/>
            <path d="M117.26 76.74a4.51 4.51 0 0 1-1.77-.36 5.07 5.07 0 0 1-2-1.63 6.45 6.45 0 0 1-1.21-2.18 6.11 6.11 0 0 1-.25-2.62 5.79 5.79 0 0 1 .8-2.24.61.61 0 0 1 1 .64 4.49 4.49 0 0 0-.63 1.76 4.73 4.73 0 0 0 .2 2.09 5.48 5.48 0 0 0 1 1.78 3.9 3.9 0 0 0 1.6 1.28 3.41 3.41 0 0 0 2.33.1 3.27 3.27 0 0 0 1.83-1.5.61.61 0 0 1 .83-.22.61.61 0 0 1 .23.83 4.61 4.61 0 0 1-2.5 2 4.72 4.72 0 0 1-1.46.27z" fill="#f5ac3a" data-color="1"/>
            <path d="M122.93 95.75a3.45 3.45 0 0 1-2.13-.67 4.11 4.11 0 0 1-1.42-3.58.6.6 0 1 1 1.2.13 2.49 2.49 0 0 0 3.42 2.76 4.52 4.52 0 0 0 2.24-1.34 5.37 5.37 0 0 0 1.57-3 4.6 4.6 0 0 0-.58-3.4c-1.2-1.75-3.55-1.87-4.51-1.84a6.69 6.69 0 0 0-4.35 2 .6.6 0 0 1-.86 0 .61.61 0 0 1 0-.86 7.84 7.84 0 0 1 5.17-2.33 6.23 6.23 0 0 1 5.59 2.38 5.79 5.79 0 0 1 .79 4.29 6.71 6.71 0 0 1-1.92 3.65 5.66 5.66 0 0 1-2.84 1.66 6.08 6.08 0 0 1-1.37.15z" fill="#f5ac3a" data-color="1"/>
            <path d="M127.44 73.15a4 4 0 0 1-1.24-.15.61.61 0 0 1 .38-1.16 3.07 3.07 0 0 0 3.15-.89 3.5 3.5 0 0 0 .69-3.32 4.12 4.12 0 0 0-2.42-2.58 4.85 4.85 0 0 0-3.61.08.61.61 0 0 1-.8-.33.6.6 0 0 1 .33-.79 6 6 0 0 1 4.52-.09 5.26 5.26 0 0 1 3.13 3.31 4.74 4.74 0 0 1-.94 4.49 4.32 4.32 0 0 1-3.19 1.43z" fill="#f5ac3a" data-color="1"/>
            <path d="M39.69 96.75a6.51 6.51 0 0 1-3-.71c-2.69-1.38-4-4.76-3.26-8.21a.61.61 0 0 1 .73-.46.6.6 0 0 1 .46.73c-.62 2.9.49 5.75 2.66 6.9a4.61 4.61 0 0 0 5.13-.43 4.54 4.54 0 0 0 1.33-3.26 2.2 2.2 0 0 0-.61-1.64 2.46 2.46 0 0 0-2.3-.28A2.72 2.72 0 0 0 39.2 91a.62.62 0 0 1-.77.4.6.6 0 0 1-.39-.77 3.94 3.94 0 0 1 2.4-2.47 3.64 3.64 0 0 1 3.49.52 3.37 3.37 0 0 1 1 2.53 5.85 5.85 0 0 1-1.71 4.16 5.09 5.09 0 0 1-3.53 1.38z" fill="#f5ac3a" data-color="1"/>
            <path d="M124.62 81.74a4 4 0 0 1-2-.52 3.27 3.27 0 0 1-1.62-2.67.61.61 0 0 1 .6-.62.61.61 0 0 1 .61.6 2 2 0 0 0 1 1.64 3 3 0 0 0 2.12.27 5 5 0 0 0 2.06-1.08 3.34 3.34 0 0 0 .85-1.09 3.68 3.68 0 0 0 .09-2.78 4.49 4.49 0 0 0-2.23-2.57.61.61 0 1 1 .55-1.08 5.69 5.69 0 0 1 2.84 3.28 4.82 4.82 0 0 1-.16 3.67 4.39 4.39 0 0 1-1.16 1.5 6.17 6.17 0 0 1-2.58 1.34 4.77 4.77 0 0 1-.97.11z" fill="#f5ac3a" data-color="1"/>
            <path d="M128.88 89.22a.6.6 0 0 1-.54-.32.61.61 0 0 1 .26-.82 10.94 10.94 0 0 0 2.66-1.75 3.19 3.19 0 0 0 1-2.52 5.23 5.23 0 0 0-.38-1.23 5.4 5.4 0 0 1-.47-1.63 5.71 5.71 0 0 1 .77-3 10.25 10.25 0 0 0 .51-1.22 4.93 4.93 0 0 0-2.35-5.72.6.6 0 0 1-.26-.82.62.62 0 0 1 .82-.26 6.21 6.21 0 0 1 2.95 7.18 10.12 10.12 0 0 1-.57 1.35 4.73 4.73 0 0 0-.66 2.34 4.85 4.85 0 0 0 .39 1.29 5.78 5.78 0 0 1 .45 1.53 4.29 4.29 0 0 1-1.38 3.53 11.7 11.7 0 0 1-3 2 .55.55 0 0 1-.2.07z" fill="#f5ac3a" data-color="1"/>
            <path d="M132.41 72.4a.62.62 0 0 1-.55-.33.6.6 0 0 1 .27-.81 7.23 7.23 0 0 0 3.87-4.74 5.48 5.48 0 0 0-1.9-5.47 10.28 10.28 0 0 0-2.7-1.24l-.77-.28a21.17 21.17 0 0 1-7.4-4.7.6.6 0 0 1 0-.86.61.61 0 0 1 .86 0 19.92 19.92 0 0 0 7 4.43l.76.27a11.15 11.15 0 0 1 3 1.41 6.63 6.63 0 0 1 2.37 6.71 8.46 8.46 0 0 1-4.46 5.56.66.66 0 0 1-.35.05z" fill="#f5ac3a" data-color="1"/>
            <path d="M134.92 61.63a.61.61 0 0 1-.18-1.19c.76-.23 1.14-1.25 1.32-2.07a11 11 0 0 0-.66-7.12A7.57 7.57 0 0 0 130 47a14.37 14.37 0 0 0-1.64-.12 7.78 7.78 0 0 1-3.41-.67 7.71 7.71 0 0 1-2-1.65c-.21-.22-.41-.43-.62-.63a3 3 0 0 0-2.37-1 .61.61 0 0 1-.24-1.2 4.07 4.07 0 0 1 3.46 1.36l.65.67a7 7 0 0 0 1.64 1.42 6.76 6.76 0 0 0 2.9.52 15.59 15.59 0 0 1 1.78.14 8.75 8.75 0 0 1 6.29 4.89 12.22 12.22 0 0 1 .76 7.92c-.37 1.65-1.09 2.65-2.15 3z" fill="#f5ac3a" data-color="1"/>
            <path d="M132.37 47.69a.57.57 0 0 1-.25-.06.61.61 0 0 1-.3-.81 9.31 9.31 0 0 0-.45-8.77 9.17 9.17 0 0 0-2.6-2.77 9 9 0 0 0-3.46-1.28 7.77 7.77 0 0 0-3.06.09 6.17 6.17 0 0 1-2.93 0 9.52 9.52 0 0 1-3.24-1.71l-.68-.48a7 7 0 0 0-3.27-1l-.49-.05a.61.61 0 0 1 .16-1.21l.45.05a8.14 8.14 0 0 1 3.83 1.18l.71.5a8.51 8.51 0 0 0 2.81 1.52 4.89 4.89 0 0 0 2.42 0 8.81 8.81 0 0 1 3.48-.1 9.6 9.6 0 0 1 6.91 4.66 10.72 10.72 0 0 1 1.45 4.28 10.51 10.51 0 0 1-.94 5.63.61.61 0 0 1-.55.33z" fill="#f5ac3a" data-color="1"/>
            <path d="M83.82 17.27a.6.6 0 0 1-.57-.64 32.06 32.06 0 0 1 2.18-10.11 30.47 30.47 0 0 1 2-4.07.67.67 0 0 1 .34-.28 12.18 12.18 0 0 1 7.65-.27 9.91 9.91 0 0 1 2.4 1.19A11.34 11.34 0 0 0 100 4.24a12.81 12.81 0 0 0 5.65.68h1.18c4 0 8.31 2.62 12.67 7.75a.61.61 0 0 1-.07.86.59.59 0 0 1-.85-.07c-4.13-4.85-8.08-7.32-11.75-7.32h-1.11a14.1 14.1 0 0 1-6.15-.76 12.79 12.79 0 0 1-2.46-1.26A8.9 8.9 0 0 0 95 3.06a10.87 10.87 0 0 0-6.67.2A30 30 0 0 0 86.56 7a30.83 30.83 0 0 0-2.14 9.73.6.6 0 0 1-.6.54z" fill="#f5ac3a" data-color="1"/>
            <path d="M114.85 17.85a6.4 6.4 0 0 1-1-.08c-1.88-.31-2.63-.94-5.3-3.7-1.25-1.3-2.93-2.78-4.79-2.64a7.07 7.07 0 0 0-2.59.91 8.51 8.51 0 0 1-3 1 6.51 6.51 0 0 1-4.73-2 23.37 23.37 0 0 1-1.69-1.77c-.54-.59-1-1.16-1.61-1.67a5.33 5.33 0 0 0-3.82-1.63.61.61 0 0 1-.1-1.22 6.55 6.55 0 0 1 4.74 2 23.25 23.25 0 0 1 1.69 1.76 21.52 21.52 0 0 0 1.61 1.68 5.29 5.29 0 0 0 3.81 1.63 7.19 7.19 0 0 0 2.55-.91 8.19 8.19 0 0 1 3-1c2.36-.17 4.32 1.52 5.76 3 2.62 2.72 3.14 3.09 4.62 3.34s3.45-.22 4.17-1.57a3 3 0 0 0 .24-1.87.61.61 0 0 1 .5-.7.6.6 0 0 1 .7.5 4.16 4.16 0 0 1-.36 2.64 5 5 0 0 1-4.4 2.3z" fill="#f5ac3a" data-color="1"/>
            <path d="M118 24.87a12.29 12.29 0 0 1-2.17-.2 14.53 14.53 0 0 1-3.45-1.09 14.31 14.31 0 0 1-2.31-1.33A16.81 16.81 0 0 1 106.5 19a4.07 4.07 0 0 0-1.85-1.51 4 4 0 0 0-2.86.15 7 7 0 0 1-4.42.23 7.29 7.29 0 0 1-2.67-1.38c-.33-.23-.67-.48-1.09-.74a18 18 0 0 0-9.32-2.51.61.61 0 0 1-.59-.62.62.62 0 0 1 .61-.6 19.36 19.36 0 0 1 9.94 2.7c.45.28.83.55 1.15.79a6.34 6.34 0 0 0 2.28 1.19 5.93 5.93 0 0 0 3.74-.22 5.23 5.23 0 0 1 3.65-.14 5.35 5.35 0 0 1 2.35 1.87 15.43 15.43 0 0 0 3.37 3.09 13.6 13.6 0 0 0 5.27 2.22 10.11 10.11 0 0 0 5.82-.61h.06c1.37-.6 3.24-1.43 3.65-3.18a4.52 4.52 0 0 0-1.35-4.06 6.22 6.22 0 0 0-5-1.78.61.61 0 0 1-.67-.54.61.61 0 0 1 .53-.67 7.47 7.47 0 0 1 6.05 2.13 5.72 5.72 0 0 1 1.66 5.19c-.54 2.35-2.83 3.36-4.34 4h-.06a10.66 10.66 0 0 1-4.41.87z" fill="#f5ac3a" data-color="1"/>
            <path d="M129.75 35.54a.57.57 0 0 1-.18 0 .59.59 0 0 1-.4-.75 10.6 10.6 0 0 0-4.69-12.15.6.6 0 0 1-.21-.83.62.62 0 0 1 .84-.21 11.82 11.82 0 0 1 5.22 13.54.61.61 0 0 1-.58.4z" fill="#f5ac3a" data-color="1"/>
            <path d="M44.85 17.07a.61.61 0 0 1-.59-.63 8.33 8.33 0 0 1 .92-3.53 9.1 9.1 0 0 1 3.13-3.31 9.29 9.29 0 0 1 4.38-1.52A7.48 7.48 0 0 0 56.09 7a5.31 5.31 0 0 0 1.78-1.72 5.9 5.9 0 0 1 2.28-2.11 14.75 14.75 0 0 1 7-1.55 12.78 12.78 0 0 1 2.88.18 10.71 10.71 0 0 0 2.19.2 19.91 19.91 0 0 0 3.64-.76C78.22.56 80.89-.15 83.1 0a9.53 9.53 0 0 1 5.2 2.25.61.61 0 0 1 .1.85.62.62 0 0 1-.86.09 8.34 8.34 0 0 0-4.53-2 22.6 22.6 0 0 0-6.83 1.12 19.78 19.78 0 0 1-3.94.81A11.43 11.43 0 0 1 69.87 3a11.19 11.19 0 0 0-2.64-.16 13.37 13.37 0 0 0-6.48 1.39A4.79 4.79 0 0 0 58.87 6a6.28 6.28 0 0 1-2.14 2 8.58 8.58 0 0 1-3.89 1.27A7.9 7.9 0 0 0 49 10.62a8 8 0 0 0-2.74 2.86 7 7 0 0 0-.78 3 .6.6 0 0 1-.63.59z" fill="#f5ac3a" data-color="1"/>
            <path d="M48.22 110.55a.59.59 0 0 1-.22 0 9.28 9.28 0 0 1-2.75-1.68c-.45-.4-1.82-1.61-3.25-5.81a34.71 34.71 0 0 1-1.56-6.81.61.61 0 0 1 1.21-.15 33 33 0 0 0 1.51 6.57c1.32 3.89 2.51 4.94 2.89 5.29a8.34 8.34 0 0 0 2.4 1.46.61.61 0 0 1-.23 1.18z" fill="#f5ac3a" data-color="1"/>
            <path d="M113.86 111.33a.61.61 0 0 1-.06-1.21 7.49 7.49 0 0 0 2.38-.65c6.19-2.9 6-13.85 6-14.31a.61.61 0 1 1 1.21 0c0 .49.23 12.21-6.66 15.44a8.89 8.89 0 0 1-2.77.76z" fill="#f5ac3a" data-color="1"/>
            <path d="M34.56 88a4.32 4.32 0 0 1-2.33-.67 5.51 5.51 0 0 1-2.32-4.77 3.84 3.84 0 0 1 .43-1.79A2.31 2.31 0 0 1 32 79.51a.61.61 0 0 1 .7.5.62.62 0 0 1-.51.7 1.13 1.13 0 0 0-.76.6 2.58 2.58 0 0 0-.28 1.24 4.32 4.32 0 0 0 1.77 3.72 2.94 2.94 0 0 0 3.69-.37 5.53 5.53 0 0 0 .93-2.19l.08-.27a5.08 5.08 0 0 1 1.65-2.84 5.6 5.6 0 0 1 3.54-.72h.14a3.57 3.57 0 0 0 2.71-.72.61.61 0 0 1 .86-.06.61.61 0 0 1 0 .86 4.55 4.55 0 0 1-3.62 1.14h-.14a4.59 4.59 0 0 0-2.79.48 3.9 3.9 0 0 0-1.2 2.19l-.07.23a6.64 6.64 0 0 1-1.19 2.66A3.88 3.88 0 0 1 34.56 88z" fill="#f5ac3a" data-color="1"/>
            <path d="M33 75a4.76 4.76 0 0 1-3.67-1.75 4.35 4.35 0 0 1-.73-4 5.23 5.23 0 0 1 2.38-2.71 14.42 14.42 0 0 1 3.12-1.24.61.61 0 0 1 .34 1.17 13.65 13.65 0 0 0-2.89 1.11 4 4 0 0 0-1.84 2.06 3.08 3.08 0 0 0 .53 2.88 3.59 3.59 0 0 0 2.76 1.3 4.24 4.24 0 0 0 2.89-1.18A9.5 9.5 0 0 0 37 71.28l.42-.56a5.53 5.53 0 0 1 2.16-1.85 2.77 2.77 0 0 1 3.05.51.61.61 0 0 1 0 .86.6.6 0 0 1-.86 0A1.61 1.61 0 0 0 40 70a4.47 4.47 0 0 0-1.66 1.46c-.14.18-.27.37-.4.55a11.16 11.16 0 0 1-1.26 1.52A5.42 5.42 0 0 1 33 75z" fill="#f5ac3a" data-color="1"/>
            <path d="M38.32 27a.61.61 0 0 1-.59-.45 8 8 0 0 1 .91-6.55A8.17 8.17 0 0 1 45 16.68a15.08 15.08 0 0 1 3.37.51 11.36 11.36 0 0 0 3.69.44c2-.22 4-1.6 5.83-4.09.49-.65.95-1.35 1.4-2a23.47 23.47 0 0 1 3.41-4.32c2-1.84 5.16-3.12 7.84-1.85a10.34 10.34 0 0 1 2.15 1.53 6.16 6.16 0 0 0 2.55 1.57c.72.16 1.92-.42 3.92-1.38l1.08-.52.4-.19a10.87 10.87 0 0 1 3-1.07 10.22 10.22 0 0 1 2.82-.09.62.62 0 0 1 .54.67.61.61 0 0 1-.67.54 8.93 8.93 0 0 0-2.48.08 9.34 9.34 0 0 0-2.66 1l-.41.2-1.08.51C77.38 9.29 76.11 9.9 75 9.66a7.1 7.1 0 0 1-3.08-1.83A8.78 8.78 0 0 0 70 6.47c-2.15-1-4.81.08-6.48 1.64a21.66 21.66 0 0 0-3.19 4.08c-.46.68-.94 1.4-1.44 2.07-2.06 2.78-4.3 4.32-6.67 4.58a12.47 12.47 0 0 1-4.1-.47 14.33 14.33 0 0 0-3.1-.48 7 7 0 0 0-5.38 2.83 7 7 0 0 0-.75 5.49.61.61 0 0 1-.43.75z" fill="#f5ac3a" data-color="1"/>
            <path d="M33.83 81.09A4.25 4.25 0 0 1 31 79.94a6.72 6.72 0 0 1-2-4.14 8.42 8.42 0 0 1 .13-3 .61.61 0 0 1 1.19.27 7.13 7.13 0 0 0-.12 2.6 5.6 5.6 0 0 0 1.59 3.43 2.61 2.61 0 0 0 3.12.48 3 3 0 0 0 .84-1.06A3.77 3.77 0 0 1 37.07 77a4.72 4.72 0 0 1 4.21-.15.6.6 0 0 1 .39.77.61.61 0 0 1-.77.38 3.7 3.7 0 0 0-3.16 0 2.65 2.65 0 0 0-.89 1.08 4 4 0 0 1-1.2 1.46 3.15 3.15 0 0 1-1.82.55z" fill="#f5ac3a" data-color="1"/>
            <path d="M29.72 68.37a.59.59 0 0 1-.44-.19 7 7 0 0 1-1.85-5.79 6 6 0 0 1 3.92-4.67 10.33 10.33 0 0 1 3.26-.35h1.37a10.37 10.37 0 0 0 6.23-2.6.61.61 0 1 1 .81.91 11.62 11.62 0 0 1-7 2.9h-1.44a9.38 9.38 0 0 0-2.89.29 4.81 4.81 0 0 0-3.09 3.72 5.75 5.75 0 0 0 1.53 4.76.6.6 0 0 1-.44 1z" fill="#f5ac3a" data-color="1"/>
            <path d="M35.07 38.19a.61.61 0 0 1-.57-.39 10.44 10.44 0 0 1 9-14 21.13 21.13 0 0 1 4.21.25c2.12.27 4.13.52 6-.23s3-2.21 4.25-3.78a18.45 18.45 0 0 1 3.23-3.32c3.33-2.42 7.76-2.28 11.67-2.16 3.73.11 7.93 0 10.68-2.5a.61.61 0 0 1 .86 0 .6.6 0 0 1 0 .86c-3.09 2.82-7.57 2.93-11.53 2.81s-7.93-.24-10.92 1.93a17.42 17.42 0 0 0-3 3.11c-1.33 1.62-2.71 3.3-4.73 4.13s-4.38.59-6.56.32a20.52 20.52 0 0 0-4-.25 9.22 9.22 0 0 0-8 12.41.61.61 0 0 1-.36.78.52.52 0 0 1-.23.03z" fill="#f5ac3a" data-color="1"/>
            <path d="M30.11 52.56a.59.59 0 0 1-.49-.26 6.58 6.58 0 0 1 .52-8.14 10.73 10.73 0 0 1 1.4-1.23 8.16 8.16 0 0 0 1.62-1.52 8.43 8.43 0 0 0 1-2.22 12.69 12.69 0 0 1 .6-1.62 7.51 7.51 0 0 1 6.76-4.28 14.43 14.43 0 0 1 3.84.73l1 .28a7 7 0 0 0 4.31.09.62.62 0 0 1 .8.34.61.61 0 0 1-.34.79 8.07 8.07 0 0 1-5.08 0l-1-.29a12.67 12.67 0 0 0-3.51-.68 6.38 6.38 0 0 0-5.62 3.57 14.43 14.43 0 0 0-.55 1.49 8.92 8.92 0 0 1-1.14 2.55 8.55 8.55 0 0 1-1.85 1.76A12.61 12.61 0 0 0 31 45a5.43 5.43 0 0 0-.42 6.6.61.61 0 0 1-.13.85.62.62 0 0 1-.34.11z" fill="#f5ac3a" data-color="1"/>
            <path d="M29.25 60.1a.61.61 0 0 1-.53-.32 7.21 7.21 0 0 1-.84-4.24A6 6 0 0 1 29.31 52a6.76 6.76 0 0 1 2.79-1.7 9.34 9.34 0 0 1 2.21-.64 5.94 5.94 0 0 0 1.48-.42 5.34 5.34 0 0 0 1.71-1.16A4.94 4.94 0 0 1 39 47a7.31 7.31 0 0 1 5.56.21.61.61 0 1 1-.42 1.14 6.14 6.14 0 0 0-4.65-.23 3.81 3.81 0 0 0-1.18.85 6.45 6.45 0 0 1-2.06 1.39 6.88 6.88 0 0 1-1.76.51 7.94 7.94 0 0 0-2 .56 5.82 5.82 0 0 0-2.36 1.39 5 5 0 0 0-1.12 2.82 6.15 6.15 0 0 0 .7 3.54.6.6 0 0 1-.25.82.59.59 0 0 1-.21.1z" fill="#f5ac3a" data-color="1"/>
            <path d="M81.85 111.12a4.94 4.94 0 0 1-2.7-.75c-1.62-1.08-2-3-2.25-7.27-.22-3.51-.16-5.53-.12-7.15a33 33 0 0 0-.06-3.83c-.3-3.85-.61-7.84-3.4-11.17C69.62 76.52 64 76 62.86 76a26.3 26.3 0 0 0-11.8 2.54.61.61 0 0 1-.8-.32.62.62 0 0 1 .32-.8 27.52 27.52 0 0 1 12.34-2.64c1.19.07 7.31.61 11.33 5.43 3 3.63 3.39 8 3.68 11.85A35.59 35.59 0 0 1 78 96c0 1.6-.09 3.59.12 7 .26 4.2.65 5.62 1.71 6.32a4.21 4.21 0 0 0 4.29-.09c1.88-1.23 1.78-7.84 1.64-17.85-.09-6.26.06-7.74 1-9.87a12.05 12.05 0 0 1 10.18-6.76 17.13 17.13 0 0 1 11.85 3.67.61.61 0 0 1 0 .86.59.59 0 0 1-.85.06A16.17 16.17 0 0 0 97 76a11 11 0 0 0-9.16 6c-.86 1.94-1 3.26-.9 9.36.18 12.3.16 17.35-2.19 18.91a5.26 5.26 0 0 1-2.9.85z" fill="#f5ac3a" data-color="1"/>
            <path d="M88.88 111.16a3.58 3.58 0 0 1-2-.88l-.15-.11c-.41-.29-1-.61-1.39-.44a.61.61 0 0 1-.8-.32.62.62 0 0 1 .32-.8 2.63 2.63 0 0 1 2.57.57l.15.11a2.61 2.61 0 0 0 1.39.65 1.18 1.18 0 0 0 .86-.52 2.73 2.73 0 0 0 .44-1.22 5.32 5.32 0 0 0-1.8-4.72.61.61 0 1 1 .78-.93 6.54 6.54 0 0 1 2.22 5.83 4 4 0 0 1-.65 1.75 2.42 2.42 0 0 1-1.81 1z" fill="#f5ac3a" data-color="1"/>
            <path d="M74 111.23a2.28 2.28 0 0 1-1.23-.33 2.72 2.72 0 0 1-1.11-2.17c-.19-2.61 2.58-4.83 2.9-5.08a.61.61 0 0 1 .85.11.61.61 0 0 1-.11.86c-.89.69-2.54 2.41-2.42 4a1.68 1.68 0 0 0 .54 1.24 1.44 1.44 0 0 0 .87.12 2.92 2.92 0 0 0 1.26-.48 5.22 5.22 0 0 1 .47-.26 8.9 8.9 0 0 1 2.5-.86.61.61 0 0 1 .23 1.19 7.94 7.94 0 0 0-2.17.74l-.43.24a3.9 3.9 0 0 1-1.75.64z" fill="#f5ac3a" data-color="1"/>
            <path d="M62.69 92.81c-5.89 0-9.8-4.16-10.56-5a.61.61 0 0 1 .06-.86.61.61 0 0 1 .86.07c.75.86 4.78 5.14 10.75 4.55a12.71 12.71 0 0 0 8-4.17.61.61 0 1 1 .91.81 14 14 0 0 1-8.79 4.58q-.63.02-1.23.02z" fill="#f5ac3a" data-color="1"/>
            <path d="M72.25 88.38a.6.6 0 0 1-.25-.08 19.93 19.93 0 0 0-19.09-.39.61.61 0 1 1-.56-1.08 21.14 21.14 0 0 1 20.24.41.6.6 0 0 1 .23.83.61.61 0 0 1-.57.31z" fill="#f5ac3a" data-color="1"/>
            <path d="M72.25 88.37a.59.59 0 0 1-.51-.27 11.84 11.84 0 0 0-8.11-5.29c-6.39-.8-10.38 4.68-10.55 4.92a.61.61 0 0 1-.84.14.61.61 0 0 1-.15-.85c.19-.26 4.6-6.31 11.69-5.41a13.06 13.06 0 0 1 9 5.82.61.61 0 0 1-.17.85.69.69 0 0 1-.36.09z" fill="#f5ac3a" data-color="1"/>
            <path d="M99.68 92.81c-.4 0-.81 0-1.24-.06a14 14 0 0 1-8.78-4.58.61.61 0 0 1 .91-.81 12.7 12.7 0 0 0 8 4.17c6 .59 10-3.69 10.76-4.55a.61.61 0 0 1 .86-.07.61.61 0 0 1 .06.86c-.78.88-4.68 5.04-10.57 5.04z" fill="#f5ac3a" data-color="1"/>
            <path d="M90.11 88.38a.63.63 0 0 1-.53-.31.61.61 0 0 1 .23-.83 21.15 21.15 0 0 1 20.24-.41.61.61 0 0 1 .27.82.6.6 0 0 1-.82.26 19.93 19.93 0 0 0-19.09.39.64.64 0 0 1-.3.08z" fill="#f5ac3a" data-color="1"/>
            <path d="M90.11 88.37a.57.57 0 0 1-.33-.09.62.62 0 0 1-.18-.85 13.11 13.11 0 0 1 9-5.82c7.09-.89 11.5 5.15 11.68 5.41a.61.61 0 0 1-.14.85.62.62 0 0 1-.85-.14c-.16-.24-4.16-5.72-10.54-4.92a11.87 11.87 0 0 0-8.12 5.29.59.59 0 0 1-.52.27z" fill="#f5ac3a" data-color="1"/>
            <path d="M82.94 123a3.76 3.76 0 0 1-1-.13 3.31 3.31 0 0 1-1.18-.57 2.18 2.18 0 0 0-.42-.26 5.8 5.8 0 0 0-3.24-.09l-1 .22a13 13 0 0 1-2.74.44 4.42 4.42 0 0 1-3.76-1.55.6.6 0 1 1 1-.73 3.35 3.35 0 0 0 2.77 1.07 12.43 12.43 0 0 0 2.49-.41l1-.23a6.87 6.87 0 0 1 4 .16 3.49 3.49 0 0 1 .64.38 2 2 0 0 0 .77.39 2.47 2.47 0 0 0 1.24 0 1.39 1.39 0 0 0 .57-.29 2.9 2.9 0 0 1 .82-.47 3.92 3.92 0 0 1 2.51-.08c.32.1.63.22.92.33a7.22 7.22 0 0 0 1.11.37c.66.16 1.75.22 3.6-1a.61.61 0 0 1 .84.17.6.6 0 0 1-.16.84c-2.24 1.52-3.68 1.42-4.56 1.22a11.12 11.12 0 0 1-1.27-.42c-.29-.11-.56-.22-.83-.3a2.63 2.63 0 0 0-1.73 0 1.7 1.7 0 0 0-.52.3 2.65 2.65 0 0 1-1 .49 3.51 3.51 0 0 1-.87.15z" fill="#f5ac3a" data-color="1"/>
            <path d="M83.05 128.39a25.46 25.46 0 0 1-3.42-.3A10.19 10.19 0 0 1 73.9 126a8.84 8.84 0 0 1-2.56-3.86.61.61 0 1 1 1.15-.4 7.7 7.7 0 0 0 2.2 3.34 9 9 0 0 0 5.11 1.84c2.34.33 5 .7 7.67-.77a9.79 9.79 0 0 0 4.13-4.6.61.61 0 0 1 .81-.3.6.6 0 0 1 .3.8 11.08 11.08 0 0 1-4.65 5.17 10.17 10.17 0 0 1-5.01 1.17z" fill="#f5ac3a" data-color="1"/>
            <path d="M92.17 122.61a.6.6 0 0 1-.38-.13c-.51-.41-1-.86-1.51-1.32s-1-.93-1.29-1.28c-.83-.86-1.19-1.21-1.81-1.33a3.5 3.5 0 0 0-1.34.11 4.08 4.08 0 0 0-1.58.62 2.83 2.83 0 0 1-1.41.51 3 3 0 0 1-2-.59 6.26 6.26 0 0 0-1.57-.74 3.4 3.4 0 0 0-2.18.2 11.51 11.51 0 0 0-2.1 1.28l-3 2.15a.62.62 0 0 1-.85-.15.61.61 0 0 1 .15-.85l2.99-2.09a12 12 0 0 1 2.38-1.42 4.58 4.58 0 0 1 3-.23 7.08 7.08 0 0 1 1.86.87 1.8 1.8 0 0 0 1.25.4 1.73 1.73 0 0 0 .86-.33 5.38 5.38 0 0 1 2-.77 4.3 4.3 0 0 1 1.8-.11 4.49 4.49 0 0 1 2.42 1.59c.35.36.74.77 1.25 1.24s1 .87 1.44 1.26a.61.61 0 0 1 .1.85.62.62 0 0 1-.48.26z" fill="#f5ac3a" data-color="1"/>
            <path d="M109.78 174.55a.61.61 0 0 1-.6-.51 222.27 222.27 0 0 1-2.84-26.13c-.33-6.82-.34-13.73 0-20.56a.61.61 0 1 1 1.22.06c-.31 6.78-.29 13.66 0 20.44a220.12 220.12 0 0 0 2.82 26 .62.62 0 0 1-.5.7z" fill="#f5ac3a" data-color="1"/>
            <path d="M54.17 171.85h-.07a.62.62 0 0 1-.54-.67c.74-6.44 1.27-13 1.57-19.44.37-7.69.43-15.49.18-23.19a.61.61 0 0 1 1.22 0c.24 7.72.18 15.55-.18 23.28-.31 6.49-.84 13-1.58 19.52a.6.6 0 0 1-.6.5z" fill="#f5ac3a" data-color="1"/>
            <path d="M80.26 254.74a84.28 84.28 0 0 1-30.49-5.63A100.09 100.09 0 0 1 20 230.75C11.55 223.3 5.19 215.21 2.07 208c-2.24-5.25-2.67-9.83-1.25-13.29 1.49-3.61 4.56-5 11.3-8 4.33-1.92 10.26-4.55 18.47-8.91a278 278 0 0 0 24-14.35.61.61 0 0 1 .85.17.6.6 0 0 1-.17.84 278 278 0 0 1-24.08 14.41c-8.25 4.39-14.2 7-18.55 9C6 190.8 3.25 192 2 195.18s-.87 7.4 1.24 12.3c5.59 13 24 31.61 47 40.49a83 83 0 0 0 30 5.49 98.94 98.94 0 0 0 43.31-10.31 106.65 106.65 0 0 0 29.35-23c7.75-8.62 13.44-17.86 15.61-25.34 1.39-4.77 1.3-8.68-.24-11.32-1.79-3.07-7.4-4.92-18.58-8.62a144.28 144.28 0 0 0-16.11-4.09c-2.68-.59-5.72-1.25-9.52-2.11-5.28-1.19-10.59-2.43-15.77-3.66a.63.63 0 0 1-.45-.74.62.62 0 0 1 .74-.45c5.17 1.24 10.47 2.47 15.75 3.66 3.8.86 6.84 1.52 9.51 2.11a147.06 147.06 0 0 1 16.16 4.15c11.47 3.8 17.23 5.7 19.25 9.16 1.71 2.94 1.84 7.18.36 12.28-2.22 7.65-8 17.06-15.88 25.82a107.92 107.92 0 0 1-29.69 23.23 98.39 98.39 0 0 1-25.24 8.63 96 96 0 0 1-18.54 1.88z" fill="#f5ac3a" data-color="1"/>
            <path d="M47.53 264.23a.61.61 0 0 1-.6-.61v-16.08a.61.61 0 0 1 1.21 0v16.08a.61.61 0 0 1-.61.61z" fill="#f5ac3a" data-color="1"/>
            <path d="M115.57 264.23a.61.61 0 0 1-.61-.61v-16.08a.61.61 0 0 1 1.22 0v16.08a.61.61 0 0 1-.61.61z" fill="#f5ac3a" data-color="1"/>
            <path d="M125.87 308.66h-91.7a.61.61 0 0 1-.61-.59l-1.14-44.44a.61.61 0 0 1 .17-.44.65.65 0 0 1 .41-.19h95.33a.62.62 0 0 1 .61.64l-2.49 44.44a.61.61 0 0 1-.58.58zm-91.11-1.21h90.54l2.42-43.22H33.65z" fill="#f5ac3a" data-color="1"/>
            <path d="M111.32 249.22a.58.58 0 0 1-.52-.3c-2.24-3.84-6.12-7.11-11.84-10-2-1-4.13-1.93-6.18-2.82a90.43 90.43 0 0 1-8.4-4 91.37 91.37 0 0 1-9.14-6.1c-4-2.93-8.12-6-12.72-7.9a62.8 62.8 0 0 0-6.58-2.22c-4-1.2-8.13-2.43-11.56-5-4.63-3.45-7.29-8.75-9.87-13.87l-.45-.9c-2.53-5-5.68-10.62-10.89-13.37a.61.61 0 0 1 .57-1.08c5.53 2.92 8.79 8.71 11.41 13.9l.45.91c2.51 5 5.1 10.16 9.51 13.43 3.25 2.42 7.1 3.57 11.18 4.79A68.59 68.59 0 0 1 63 217c4.73 2 8.92 5.06 13 8a90.73 90.73 0 0 0 9 6.09 90.63 90.63 0 0 0 8.26 3.91c2.06.89 4.19 1.81 6.24 2.84 6 3 10 6.4 12.35 10.46a.61.61 0 0 1-.22.83.58.58 0 0 1-.31.09z" fill="#f5ac3a" data-color="1"/>
            <path d="M86.21 253.79h-.07a.62.62 0 0 1-.54-.67c.3-2.57-1.23-5.4-3.88-7.23-2.45-1.69-5.48-2.45-8.4-3.2s-6.14-1.56-8.81-3.48a25.55 25.55 0 0 1-5-5.18A31.59 31.59 0 0 0 56 230c-3.52-3.16-8.3-4.56-12.92-5.91l-1.21-.36c-5.29-1.57-10.64-3.61-13.86-7.93s-3.61-9.73-4-15l-.08-1c-.43-5.27-1.41-11.13-5.36-14.58a.59.59 0 0 1-.06-.85.6.6 0 0 1 .86-.06c4.28 3.73 5.32 9.87 5.77 15.39l.08 1c.41 5.12.83 10.41 3.8 14.39s8.13 6 13.23 7.49l1.2.36c4.76 1.39 9.67 2.83 13.39 6.18a33 33 0 0 1 3.74 4.21 24.06 24.06 0 0 0 4.7 4.94c2.48 1.79 5.61 2.59 8.37 3.29 3 .77 6.19 1.57 8.82 3.38 3 2.08 4.75 5.36 4.4 8.37a.6.6 0 0 1-.66.48z" fill="#f5ac3a" data-color="1"/>
            <path d="M82.71 230.59a.66.66 0 0 1-.27-.06.61.61 0 0 1-.28-.81c5.58-11.61 11.88-18.08 18.7-19.25l1.5-.22a20.1 20.1 0 0 0 8-2.44c3.18-1.83 5.18-5.3 6.71-8.45l.71-1.47c1.4-2.95 2.85-6 5.19-8.37 2.47-2.52 4.61-3.57 7.58-5l2.05-1a72.08 72.08 0 0 0 14.9-10.23.61.61 0 0 1 .81.91 73.76 73.76 0 0 1-15.15 10.41l-2.07 1c-3 1.46-4.93 2.42-7.25 4.79s-3.61 5.19-5 8c-.23.5-.46 1-.7 1.48-1.62 3.32-3.74 7-7.21 9a21.46 21.46 0 0 1-8.4 2.58c-.51.07-1 .14-1.45.22-6.42 1.09-12.41 7.35-17.81 18.57a.62.62 0 0 1-.56.34z" fill="#f5ac3a" data-color="1"/>
            <path d="M44.78 246.9a.61.61 0 0 1-.61-.53 26 26 0 0 0-11.33-18.26 54 54 0 0 0-5.84-3.17c-1.54-.75-3.14-1.53-4.65-2.42-4.32-2.54-7-5.58-8-9a21.21 21.21 0 0 1-.55-6.39v-2.55a24.68 24.68 0 0 0-5.7-14.91.61.61 0 0 1 .08-.86.59.59 0 0 1 .85.08 25.88 25.88 0 0 1 6 15.65v2.61a20 20 0 0 0 .49 6c.93 3.14 3.45 5.94 7.5 8.32 1.47.87 3.05 1.64 4.57 2.38a52.49 52.49 0 0 1 6 3.25 27.2 27.2 0 0 1 11.87 19.12.62.62 0 0 1-.53.68z" fill="#f5ac3a" data-color="1"/>
            <path d="M97.68 238a.58.58 0 0 1-.28-.07.6.6 0 0 1-.25-.82c2.71-5.16 6-8.37 9.88-9.54a20.09 20.09 0 0 1 2.82-.61 10.75 10.75 0 0 0 4.42-1.48c2.26-1.39 3.49-4.08 4.22-6 .21-.56.42-1.13.62-1.69a23.41 23.41 0 0 1 2.59-5.62c2.58-3.72 6.85-5.58 11-7.37l.12-.06c4-1.74 8.12-3.75 10.19-7.39a13 13 0 0 0 1.64-5.53 19.7 19.7 0 0 1 1.46-5.89 22.55 22.55 0 0 1 9.26-10.17.61.61 0 0 1 .65 1 21.47 21.47 0 0 0-8.8 9.61 18.58 18.58 0 0 0-1.37 5.57 14.08 14.08 0 0 1-1.78 6c-2.26 4-6.56 6.08-10.76 7.91h-.13c-4 1.73-8.08 3.52-10.46 7a22 22 0 0 0-2.44 5.33c-.21.56-.41 1.15-.63 1.72-.8 2.07-2.15 5-4.72 6.59a12 12 0 0 1-4.86 1.64 19.39 19.39 0 0 0-2.66.57c-3.52 1.08-6.61 4.09-9.17 8.95a.6.6 0 0 1-.56.35z" fill="#f5ac3a" data-color="1"/>
            <path d="M109.79 246.53a.61.61 0 0 1 0-1.21c3-.09 5.46-2.67 7-4.82.47-.69.94-1.43 1.38-2.14a22.12 22.12 0 0 1 4.29-5.45c2.46-2 5.56-2.87 8.55-3.68a26.39 26.39 0 0 0 6.92-2.59c3.37-2.06 5.91-5.8 7.58-11.11.66-2.11 1.15-4.32 1.63-6.46a73.58 73.58 0 0 1 1.9-7.28 37.52 37.52 0 0 1 18-21.13.61.61 0 1 1 .56 1.08 36.28 36.28 0 0 0-17.38 20.43 72.43 72.43 0 0 0-1.86 7.16c-.48 2.17-1 4.4-1.66 6.56-1.76 5.61-4.48 9.57-8.1 11.79a27.31 27.31 0 0 1-7.24 2.72c-3 .81-5.84 1.58-8.09 3.45a20.82 20.82 0 0 0-4 5.16c-.45.72-.92 1.47-1.41 2.18-1.65 2.38-4.36 5.24-7.92 5.34z" fill="#f5ac3a" data-color="1"/>
        </g>
    </g>
</svg>
