<?xml version="1.0" encoding="UTF-8"?>
<svg data-bbox="-0.017 0.002 194.082 283.998" viewBox="0 0 194.05 284.01" xmlns="http://www.w3.org/2000/svg" data-type="color">
    <g>
        <g>
            <path d="M56.55 49.31a.59.59 0 0 1-.32-.09L43 41a.61.61 0 0 1-.28-.45.58.58 0 0 1 .18-.5 19.1 19.1 0 0 1 5.76-3.93 30.37 30.37 0 0 1 6.52-1.73c1.61-.33 3.26-.59 4.88-.8a21.63 21.63 0 0 1 4.2-2.64A22 22 0 0 1 75.7 29a.61.61 0 0 1 .55.6v14.57a.62.62 0 0 1-.47.6L56.69 49.3zm-12.27-9 12.37 7.7L75 43.69V30.17A20.67 20.67 0 0 0 64.74 32a19.56 19.56 0 0 0-4.08 2.59.62.62 0 0 1-.32.14c-1.65.2-3.32.47-5 .8a28.17 28.17 0 0 0-6.26 1.66 17.88 17.88 0 0 0-4.8 3.16z" fill="#f5ac3a" data-color="1"/>
            <path d="M65.59 47.17a.61.61 0 0 1-.58-.44 59.44 59.44 0 0 0-2.79-7.4c-.75-1.66-1.58-3.3-2.48-4.89a.61.61 0 0 1 .23-.83.62.62 0 0 1 .83.23c.91 1.62 1.77 3.3 2.53 5a62.93 62.93 0 0 1 2.85 7.55.62.62 0 0 1-.41.76z" fill="#f5ac3a" data-color="1"/>
            <path d="M66.73 61.52h-.06a15.47 15.47 0 0 1-8.32-2.65 10.51 10.51 0 0 1-3.16-3 5.89 5.89 0 0 1 .94-7.62.61.61 0 1 1 .83.89 4.83 4.83 0 0 0-1.46 2.58 4.92 4.92 0 0 0 .71 3.49A9.23 9.23 0 0 0 59 57.85a14.33 14.33 0 0 0 7.66 2.46 11.85 11.85 0 0 0 5.4-1.31 10.91 10.91 0 0 0 3.35-2.57c2.35-2.74 3.72-7.24 1.94-10a5.38 5.38 0 0 0-1.86-1.74.61.61 0 1 1 .62-1.05 6.67 6.67 0 0 1 2.27 2.14c2.16 3.39.56 8.44-2 11.47a12.25 12.25 0 0 1-3.73 2.87 13.21 13.21 0 0 1-5.92 1.4z" fill="#f5ac3a" data-color="1"/>
            <path d="M133.11 131a69.46 69.46 0 0 1-24-4.25 70.46 70.46 0 0 1-33.35-25.71 74.2 74.2 0 0 1-13.53-40.71.61.61 0 0 1 1.21 0c.9 29.29 19.43 55.54 46.14 65.32 28.14 10.32 60.17 1.18 79.68-22.73a16.19 16.19 0 0 0 3.57-10.55c-.4-19.39-5.26-35.23-13-42.38a86.08 86.08 0 0 0-11.47-8.5 78.47 78.47 0 0 0-13.3-6.49c-1.32 7.41-5.26 20.3-16.95 28.63-8.13 5.8-18.74 8.31-29.87 7.07A59.51 59.51 0 0 1 76.3 56.23a.61.61 0 0 1 .8-.92c18.42 16 43.78 19.08 60.31 7.3 11.71-8.35 15.41-21.48 16.57-28.56a.62.62 0 0 1 .81-.48A81.37 81.37 0 0 1 169 40.42a87.75 87.75 0 0 1 11.66 8.65c8 7.37 13 23.54 13.4 43.25a17.38 17.38 0 0 1-3.83 11.34A74.08 74.08 0 0 1 153 128.2a72.33 72.33 0 0 1-19.89 2.8z" fill="#f5ac3a" data-color="1"/>
            <path d="M122.06 104.25a64.65 64.65 0 0 1-8.1-.51 68.79 68.79 0 0 1-24-7.25 46.82 46.82 0 0 1-18.35-17 40.58 40.58 0 0 1-5.61-18 .61.61 0 1 1 1.21-.08 39.32 39.32 0 0 0 5.45 17.47 45.63 45.63 0 0 0 17.86 16.54 67.74 67.74 0 0 0 23.59 7.12 64.49 64.49 0 0 0 21.54-1A67.19 67.19 0 0 0 157 92.79a91.48 91.48 0 0 0 30.63-31 .61.61 0 1 1 1 .63 92.83 92.83 0 0 1-31 31.46 68.5 68.5 0 0 1-21.7 8.93 65.53 65.53 0 0 1-13.87 1.44z" fill="#f5ac3a" data-color="1"/>
            <path d="M92.6 86.68a.48.48 0 0 1-.2 0 36 36 0 0 1-23-25 .61.61 0 1 1 1.18-.3A34.8 34.8 0 0 0 92.8 85.5a.6.6 0 0 1 .38.77.62.62 0 0 1-.58.41z" fill="#f5ac3a" data-color="1"/>
            <path d="M91.3 78.1h-.2a30.84 30.84 0 0 1-18.19-17.88.6.6 0 1 1 1.09-.43 29.6 29.6 0 0 0 17.51 17.13.61.61 0 0 1-.21 1.18z" fill="#f5ac3a" data-color="1"/>
            <path d="M114 91.7a.62.62 0 0 1-.61-.57.6.6 0 0 1 .57-.64 57.49 57.49 0 0 0 35.42-15.66 57.5 57.5 0 0 0 17.08-34.76.6.6 0 0 1 .67-.54.61.61 0 0 1 .54.67 58.72 58.72 0 0 1-17.45 35.5 58.7 58.7 0 0 1-36.22 16z" fill="#f5ac3a" data-color="1"/>
            <path d="M112.2 82.17a.61.61 0 0 1-.11-1.2 47.85 47.85 0 0 0 25.53-13.74A46.48 46.48 0 0 0 147.35 52a.6.6 0 0 1 .79-.34.61.61 0 0 1 .34.79 47.82 47.82 0 0 1-10 15.64 49 49 0 0 1-26.18 14.09z" fill="#f5ac3a" data-color="1"/>
            <path d="M111.86 50.09h-.17a.6.6 0 0 1-.41-.75l4.26-14.76a.6.6 0 1 1 1.16.33l-4.25 14.77a.62.62 0 0 1-.59.41z" fill="#f5ac3a" data-color="1"/>
            <path d="M150.61 164.35a.71.71 0 0 1-.28-.06.62.62 0 0 1-.26-.82 103.4 103.4 0 0 0 11.13-38.88.61.61 0 0 1 .66-.56.62.62 0 0 1 .56.66A104.53 104.53 0 0 1 151.15 164a.6.6 0 0 1-.54.35z" fill="#f5ac3a" data-color="1"/>
            <path d="M174.29 265.63h-.07a.61.61 0 0 1-.54-.67 180.68 180.68 0 0 0-4.8-67.27A179.72 179.72 0 0 0 153 157.88a.61.61 0 1 1 1.07-.58 181.48 181.48 0 0 1 16 40.08 182 182 0 0 1 4.83 67.71.61.61 0 0 1-.61.54z" fill="#f5ac3a" data-color="1"/>
            <path d="M167.05 122.49a.61.61 0 0 1-.53-.32.61.61 0 0 1 .24-.82c1.7-.92 3.44-1.82 5.19-2.68 6.71-3.3 8.22-3.45 9-3.52a11.18 11.18 0 0 1 3.07.13 6.8 6.8 0 0 0 2.75 0 11.07 11.07 0 0 0 5.14-2.57l-.67-12.66a.6.6 0 0 1 .57-.64.61.61 0 0 1 .64.57l.69 13a.62.62 0 0 1-.2.48 12.53 12.53 0 0 1-5.94 3.06 7.92 7.92 0 0 1-3.17 0 9.7 9.7 0 0 0-2.77-.11c-.6 0-2 .19-8.52 3.39-1.74.86-3.47 1.75-5.15 2.66a.59.59 0 0 1-.34.03z" fill="#f5ac3a" data-color="1"/>
            <path d="M168.3 127.23a15.63 15.63 0 0 1-6.79-1.63.61.61 0 0 1 .53-1.1 14.13 14.13 0 0 0 6.64 1.51 10.4 10.4 0 0 0 5.21-1.65c1.13-.58 2.53-1.32 4.53-2.13a53.28 53.28 0 0 1 7.28-2.3c3-.78 4.68-1.21 5.64-3a6.27 6.27 0 0 0 .54-3.88.61.61 0 0 1 1.2-.17 7.38 7.38 0 0 1-.67 4.62c-1.21 2.27-3.28 2.8-6.41 3.6a54.19 54.19 0 0 0-7.12 2.26c-1.95.79-3.32 1.51-4.43 2.08a11.63 11.63 0 0 1-5.73 1.79z" fill="#f5ac3a" data-color="1"/>
            <path d="M78.23 123.82a41.63 41.63 0 0 1-39.12-27.76.61.61 0 1 1 1.15-.41 40.41 40.41 0 0 0 38 26.95.61.61 0 0 1 0 1.22z" fill="#f5ac3a" data-color="1"/>
            <path d="M108.77 216.11a.61.61 0 0 1-.61-.61c-.09-9.18-.75-18.51-1.38-27.52l-2.69-38.56a.61.61 0 0 1 1.22-.08l2.69 38.54c.63 9.05 1.28 18.39 1.38 27.61a.62.62 0 0 1-.61.62z" fill="#f5ac3a" data-color="1"/>
            <path d="M73.9 164.43a.53.53 0 0 1-.24-.06.6.6 0 0 1-.31-.8c1.82-4.08 5.37-6.94 8.8-9.71l1-.77c3.67-3 7.19-6.37 8-10.82a.61.61 0 1 1 1.19.23c-.92 4.84-4.8 8.55-8.47 11.53l-1 .78c-3.32 2.68-6.76 5.45-8.46 9.26a.62.62 0 0 1-.51.36z" fill="#f5ac3a" data-color="1"/>
            <path d="M127 214.72a.64.64 0 0 1-.3-.08.61.61 0 0 1-.23-.83 25.3 25.3 0 0 0 1.78-3.85 25.61 25.61 0 0 0 1.37-5.86.61.61 0 0 1 .67-.53.6.6 0 0 1 .54.67 26.69 26.69 0 0 1-1.44 6.13 26.34 26.34 0 0 1-1.86 4 .6.6 0 0 1-.53.35z" fill="#f5ac3a" data-color="1"/>
            <path d="M93.46 218.9a.65.65 0 0 1-.41-.15 23.91 23.91 0 0 1-6.58-10 .61.61 0 1 1 1.15-.39 22.66 22.66 0 0 0 6.25 9.5.6.6 0 0 1 0 .86.57.57 0 0 1-.41.18z" fill="#f5ac3a" data-color="1"/>
            <path d="M84.57 198.7a.6.6 0 0 1-.49-.24c-2.35-3.14-3-7.12-3.63-10.64l-1.11-6.52a.61.61 0 0 1 .5-.7.6.6 0 0 1 .7.49l1.11 6.52c.58 3.39 1.23 7.22 3.4 10.12a.61.61 0 0 1-.12.85.62.62 0 0 1-.36.12z" fill="#f5ac3a" data-color="1"/>
            <path d="M128.92 192.76a.67.67 0 0 1-.24 0 .61.61 0 0 1-.32-.8 37.28 37.28 0 0 0 2.76-17.15.61.61 0 0 1 1.22-.09 38.49 38.49 0 0 1-2.86 17.71.62.62 0 0 1-.56.33z" fill="#f5ac3a" data-color="1"/>
            <path d="M131.28 160.21a.61.61 0 0 1-.59-.45c-1.11-4.08-4.94-6.79-8.91-9.11l-.44-.26c-3.91-2.28-8-4.63-9.9-8.73a.61.61 0 0 1 .29-.81.6.6 0 0 1 .81.29c1.78 3.76 5.66 6 9.41 8.2l.44.26c4.2 2.45 8.25 5.33 9.47 9.84a.61.61 0 0 1-.43.75.39.39 0 0 1-.15.02z" fill="#f5ac3a" data-color="1"/>
            <path d="M.63 130.33a.6.6 0 0 1-.61-.59 44.18 44.18 0 0 1 1-10.47 45 45 0 0 1 9.22-18.89.62.62 0 0 1 .86-.09.61.61 0 0 1 .08.86 43.27 43.27 0 0 0-10 28.56.6.6 0 0 1-.59.62z" fill="#f5ac3a" data-color="1"/>
            <path d="M6.75 107.4a.6.6 0 0 1-.61-.55A76 76 0 0 1 8.89 78.3c2.06-7 5.17-17.52 14.73-26.76a50.69 50.69 0 0 1 19.47-11.66.6.6 0 0 1 .77.38.61.61 0 0 1-.39.77 49.27 49.27 0 0 0-19 11.39c-9.33 9-12.39 19.37-14.41 26.22a74.89 74.89 0 0 0-2.71 28.1.6.6 0 0 1-.55.66z" fill="#f5ac3a" data-color="1"/>
            <path d="M87.93 245.39a.61.61 0 0 1-.43-.18 229.56 229.56 0 0 1-33.73-42.5c-2.56-4.16-5-8.46-7.3-12.78a.56.56 0 0 1-.06-.4 78.65 78.65 0 0 0 1.28-23 77.32 77.32 0 0 0-4.18-18.48 109.31 109.31 0 0 1-3.09-10.89c-2.45-11.35-2.19-23.65.78-36.53a.61.61 0 0 1 1.19.27c-2.93 12.71-3.2 24.83-.78 36a108 108 0 0 0 3.06 10.77 79.76 79.76 0 0 1 4.23 18.74 79.85 79.85 0 0 1-1.26 23.13c2.25 4.24 4.65 8.45 7.16 12.52a229.13 229.13 0 0 0 33.56 42.28.6.6 0 0 1 0 .86.58.58 0 0 1-.43.19z" fill="#f5ac3a" data-color="1"/>
            <path d="M37 279.37a.59.59 0 0 1-.59-.51 164.12 164.12 0 0 1 10.06-89.45.61.61 0 0 1 .79-.33.62.62 0 0 1 .34.8 162.69 162.69 0 0 0-10 88.78.61.61 0 0 1-.51.7z" fill="#f5ac3a" data-color="1"/>
            <path d="M54.35 284a35.19 35.19 0 0 1-17.68-4.72.62.62 0 0 1-.22-.84.6.6 0 0 1 .83-.21 34 34 0 0 0 25.8 3.39 69 69 0 0 0 9-3.46c4-1.76 8.15-3.57 12.56-4.24 5.38-.82 10.81.1 16.07 1a81.7 81.7 0 0 0 9.73 1.27c10.15.5 20.22-2.85 30-6.09 11-3.67 22.39-7.46 33.94-5.68a.61.61 0 1 1-.19 1.21c-11.26-1.74-22.5 2-33.37 5.62-9.84 3.28-20 6.67-30.4 6.15a83.13 83.13 0 0 1-9.88-1.28c-5.16-.87-10.49-1.78-15.67-1-4.26.65-8.33 2.43-12.26 4.15a68.91 68.91 0 0 1-9.21 3.52 34 34 0 0 1-9.05 1.21z" fill="#f5ac3a" data-color="1"/>
            <path d="M114.4 277.42a.58.58 0 0 1-.39-.15.6.6 0 0 1-.08-.85 41.83 41.83 0 0 0 9.51-21.93v-.24c1.12-8.48 7.43-21.05 18.75-37.37a.61.61 0 1 1 1 .69c-11.21 16.16-17.45 28.55-18.54 36.84v.24a43.13 43.13 0 0 1-9.78 22.55.63.63 0 0 1-.47.22z" fill="#f5ac3a" data-color="1"/>
            <path d="M25.47 134.25c-1 0-2.07-.08-3.08-.15l-18.57-1.36c-2.32-.17-3.6-1.16-3.8-3a2.63 2.63 0 0 1 2-3 10.69 10.69 0 0 1 3.4-.3h1.73a42 42 0 0 0 5.36-.8c.48-.1 1-.21 1.45-.33a31 31 0 0 1 4.15-.77 31.12 31.12 0 0 1 6 .21L35.32 126a7.07 7.07 0 0 1 3.68 1.1 3.28 3.28 0 0 1 1.25 2.2 2.3 2.3 0 0 1-.54 1.79.6.6 0 0 1-.56.2 10.17 10.17 0 0 0-5.3.83c-.47.17-.93.36-1.39.55a22.11 22.11 0 0 1-4.14 1.33 15.25 15.25 0 0 1-2.85.25zm-20.89-6.51a7.73 7.73 0 0 0-2.25.25 1.44 1.44 0 0 0-1.1 1.67c.13 1.18.93 1.74 2.68 1.87l18.57 1.36a21.93 21.93 0 0 0 5.61-.08 21.19 21.19 0 0 0 3.91-1.32l1.42-.56A11.81 11.81 0 0 1 39 130a1.31 1.31 0 0 0 .08-.6 2.1 2.1 0 0 0-.77-1.36 6 6 0 0 0-3.07-.86L24 126a30.38 30.38 0 0 0-5.8-.21 28.47 28.47 0 0 0-4 .75c-.49.11-1 .23-1.48.33a42.57 42.57 0 0 1-5.51.82H5.36z" fill="#f5ac3a" data-color="1"/>
            <path d="M75.64 30.22a.6.6 0 0 1-.19-1.22l1-.32 1.6-.54 5.12-1.71a79.1 79.1 0 0 0 1.67-9.3 77.7 77.7 0 0 0 .54-9.88.61.61 0 0 1 .62-.57.6.6 0 0 1 .61.6 80.07 80.07 0 0 1-.55 10 81.16 81.16 0 0 1-1.77 9.78.6.6 0 0 1-.4.43l-5.49 1.85-1.61.53-1 .32a.63.63 0 0 1-.15.03z" fill="#f5ac3a" data-color="1"/>
            <path d="M130.85 26.1a.61.61 0 0 1-.57-.64l.85-17a.61.61 0 1 1 1.21.06l-.85 17a.6.6 0 0 1-.64.58z" fill="#f5ac3a" data-color="1"/>
            <path d="M154.58 34.75a.61.61 0 0 1-.31-.09c-1.61-1-3.29-1.92-5-2.81-2.64-1.38-4.58-2.23-6.84-3.22-1.38-.6-2.95-1.29-4.88-2.18-2.32-1.09-4.68-2.25-7-3.45a.61.61 0 0 1-.25-.82.59.59 0 0 1 .81-.26c2.31 1.2 4.66 2.35 7 3.42 1.91.89 3.47 1.58 4.85 2.18 2.27 1 4.24 1.86 6.91 3.25 1.72.9 3.42 1.86 5.05 2.85a.61.61 0 0 1 .2.84.59.59 0 0 1-.54.29z" fill="#f5ac3a" data-color="1"/>
            <path d="M122.53 14.58a22.53 22.53 0 0 1-5.5-.77c-1.27-.32-2.55-.72-3.78-1.1a45.07 45.07 0 0 0-5.72-1.53 46.6 46.6 0 0 0-9.37-.39 58.2 58.2 0 0 1-7.91-.16c-2.25-.25-4.06-1.33-4.67-2.82-.36-.88-.48-2.28 1-4C89.93-.41 95.14-.13 99.74.13l1.57.08 22.62 1c3 .13 5.92.55 7.5 2.81a5.88 5.88 0 0 1 .22 6 8.35 8.35 0 0 1-4.51 3.81 12.74 12.74 0 0 1-4.61.75zm-21-5.06a35.36 35.36 0 0 1 6.24.46 49.64 49.64 0 0 1 5.87 1.56c1.21.38 2.47.78 3.71 1.09 3.81 1 6.88 1 9.38 0a7.09 7.09 0 0 0 3.86-3.23 4.65 4.65 0 0 0-.13-4.72c-1.35-1.92-4.1-2.19-6.56-2.3l-22.62-1-1.59-.08c-4.52-.25-9.19-.5-12.2 3.2a2.88 2.88 0 0 0-.77 2.8c.44 1.07 1.89 1.89 3.68 2.08a57.34 57.34 0 0 0 7.75.16c1.09.01 2.22-.02 3.36-.02z" fill="#f5ac3a" data-color="1"/>
        </g>
    </g>
</svg>
