<?xml version="1.0" encoding="UTF-8"?>
<svg data-bbox="-0.005 -0.036 1191.126 1494.786" viewBox="0 0 1191.12 1494.76" xmlns="http://www.w3.org/2000/svg" data-type="color">
    <g>
        <g>
            <path d="M187.67 528.1c19.77 1.63 46.84 3.87 91.84-22 24.93-14.3 52.9-51.26 58.1-94.22a3.46 3.46 0 0 0-6.87-.83c-4.93 40.7-31.24 75.61-54.68 89-43.12 24.75-69 22.62-87.82 21.06-13.43-1.11-24.05-2-34.75 6.84-18.77 15.47-19.65 40-20.58 66-.91 25.72-1.86 52.31-18.89 75.14-7.21 9.67-17.34 14.88-27.85 14.3a3.39 3.39 0 0 0-3.65 3.25 3.46 3.46 0 0 0 3.26 3.65c.67 0 1.35.06 2 .06 12.11 0 23.6-6.16 31.77-17.12 18.31-24.57 19.34-53.5 20.25-79s1.7-47.44 18.07-60.93c8.56-6.95 17.02-6.25 29.8-5.2z" fill="#f5ac3a" data-color="1"/>
            <path d="M88.58 583.46c-2.76-11.61 3.17-14.56 13.9-18.79 6.27-2.48 12.75-5 16.58-10.62 6-8.8 7.94-19.33 9.78-29.52 2-11.16 3.95-21.71 11-29.21 8.73-9.27 14.81-7.87 26.93-5.07 8.31 1.91 18.67 4.29 33 3.66 41-1.8 74.45-13.85 104.63-66.8a3.46 3.46 0 0 0-6-3.43c-28.61 50.2-60.24 61.62-98.92 63.32-13.45.58-23.27-1.68-31.18-3.49-12.33-2.85-22.08-5.1-33.52 7.07-8.44 9-10.63 21.05-12.75 32.72-1.8 9.9-3.49 19.26-8.69 26.84-2.63 3.84-7.87 5.91-13.41 8.09-10 3.93-22.37 8.83-18.09 26.83a3.46 3.46 0 0 0 3.36 2.66 3.21 3.21 0 0 0 .81-.1 3.46 3.46 0 0 0 2.57-4.16z" fill="#f5ac3a" data-color="1"/>
            <path d="M99.1 530.9c9.43-8.93 13.75-21.31 17.92-33.28 4.4-12.65 8.57-24.59 18.24-32.91 9.24-7.95 18-4.54 29.15-.19 5.16 2 10.5 4.1 16.14 5 27.53 4.24 41.38-3.2 56-11.08 1.51-.81 3-1.63 4.58-2.44 21.52-11.26 54.77-52.21 70-95.23a3.46 3.46 0 0 0-6.52-2.31c-14.46 40.87-46.74 81-66.68 91.41l-4.64 2.47c-14.22 7.64-26.49 14.24-51.72 10.34-4.89-.75-9.88-2.7-14.69-4.58-11.14-4.34-23.76-9.28-36.17 1.39-11.04 9.51-15.71 22.9-20.22 35.86-4.08 11.7-7.94 22.75-16.15 30.52-4.77 4.52-9.12 3.88-14.15 3.14-6.8-1-15.23-2.23-21.85 11.59-4.16 8.69-2.1 21.31-.29 32.44 1.54 9.44 3.28 20.14-.65 21.29a3.46 3.46 0 0 0 1 6.78 3.32 3.32 0 0 0 1-.14c9.8-2.87 7.72-15.58 5.53-29-1.65-10.13-3.52-21.61-.3-28.34 4.42-9.23 8.25-8.67 14.6-7.74 5.61.79 12.65 1.83 19.87-4.99z" fill="#f5ac3a" data-color="1"/>
            <path d="M80.32 500.23c6.84-11.23 7.26-27.18 7.68-42.61.64-24.09 1.24-46.83 23.34-53.79 11.62-3.66 25.78 3.75 40.78 11.58 12.06 6.3 24.52 12.82 36.75 14 42.25 4.07 65.34-33.6 71.39-45.23a3.46 3.46 0 0 0-6.16-3.18c-5.54 10.65-26.51 45.13-64.61 41.54-10.86-1-22.72-7.22-34.18-13.22-15.59-8.14-31.71-16.56-46.07-12-26.8 8.44-27.53 35.94-28.17 60.2-.4 15.2-.78 29.56-6.65 39.2-4.62 7.57-8.51 6-16.2 2-4.58-2.39-9.76-5.1-15-3.32-3.53 1.22-6.36 4.25-8.65 9.28a3.46 3.46 0 0 0 6.29 2.87c1.45-3.17 3-5.05 4.61-5.61 2.39-.81 5.85 1 9.52 2.91 6.86 3.42 17.15 8.8 25.33-4.62z" fill="#f5ac3a" data-color="1"/>
            <path d="M46.88 461.92a26.42 26.42 0 0 0 6.47.87 16.3 16.3 0 0 0 9.58-2.85c9.45-6.6 11.12-23.08 13.05-42.16 2.43-24 5.19-51.29 23.83-63 14.54-9.13 27.74-1.9 44.47 7.26 20 11 42.75 23.4 73.82 9.89 26-11.28 50.16-43.72 69.59-69.78 9.63-12.93 18-24.09 23.65-28.56a3.46 3.46 0 0 0-4.27-5.44c-6.42 5-14.59 16-24.92 29.86-17.94 24.07-42.52 57-66.8 67.58-28 12.15-48.19 1.08-67.74-9.62-17.24-9.43-33.52-18.33-51.49-7-21.49 13.5-24.43 42.54-27 68.15-1.69 16.67-3.28 32.4-10.13 37.19-2.53 1.78-5.93 2.08-10.38 1a3.46 3.46 0 1 0-1.71 6.7z" fill="#f5ac3a" data-color="1"/>
            <path d="M75.42 318.45c5.76-6.44 13.12-9.69 20.71-9.26 10.35.64 17.16 5.65 25 11.46a104.73 104.73 0 0 0 13 8.58c27.9 14.89 73.11 3.28 96.22-16.46 22.43-19.15 35.57-43 48.27-66 8.72-15.81 17.74-32.17 29.77-47.15 30.84-38.37 50.62-38.83 55.05-36.67a3.46 3.46 0 0 0 6.05-1.08c.22-.71.69-3.16-2.51-4.86-1-.51-23.73-11.81-64 38.28-12.41 15.44-21.57 32.07-30.44 48.14-13 23.54-25.23 45.77-46.7 64.1-23.7 20.24-65.87 27.67-88.47 15.62a100 100 0 0 1-12.12-8.05c-8-5.92-16.31-12-28.7-12.79-9.75-.59-19.1 3.5-26.29 11.54-7.69 8.6-11.4 20.13-9.67 30.1A3.47 3.47 0 0 0 64 346.8a3 3 0 0 0 .59-.05 3.46 3.46 0 0 0 2.82-4c-1.35-7.81 1.79-17.35 8.01-24.3z" fill="#f5ac3a" data-color="1"/>
            <path d="M108 281c8.62-2.93 16.35-2.17 21.76 2.16a15.78 15.78 0 0 1 5.88 14 3.44 3.44 0 0 0 3.07 3.8h.37a3.45 3.45 0 0 0 3.43-3.1 22.62 22.62 0 0 0-8.43-20.15c-7.22-5.77-17.53-7-28.31-3.31A3.46 3.46 0 1 0 108 281z" fill="#f5ac3a" data-color="1"/>
            <path d="M243.3 195.78a3.46 3.46 0 0 0-4.71 1.33c-5.89 10.56-24.17 34-43.15 39.09-6.4 1.73-12 1.1-17.06-1.93a3.46 3.46 0 0 0-3.54 5.94 26.8 26.8 0 0 0 13.92 3.85 32.71 32.71 0 0 0 8.48-1.17c20.35-5.48 39.87-28.92 47.39-42.41a3.46 3.46 0 0 0-1.33-4.7z" fill="#f5ac3a" data-color="1"/>
            <path d="M660.31 656c-14.45 1.07-29.54 1.55-44.13 2-69.3 2.18-140.95 4.44-182.15 69.58-3.29 5.21-14.3 23.27-17.67 37-5 20.46-4.31 41.93-3.63 62.69.14 4.22.27 8.41.36 12.57.57 26.78 2.33 53.87 4 80.06 1.81 27.88 3.69 56.71 4.11 85.13a3.46 3.46 0 0 0 3.46 3.41h.05a3.46 3.46 0 0 0 3.41-3.51c-.43-28.6-2.31-57.51-4.13-85.48-1.7-26.11-3.46-53.12-4-79.76-.09-4.18-.23-8.4-.37-12.64-.66-20.3-1.35-41.29 3.44-60.82 2.48-10.13 10.3-24.71 16.79-35 39.25-62 109-64.24 176.52-66.37 14.67-.46 29.84-.94 44.43-2 62.76-4.64 91.61 32.65 93.23 34.94a3.46 3.46 0 0 0 6.72-.83c.07-.89.24-2.73-6.47-9.52-10.62-10.72-41.07-35.38-93.97-31.45z" fill="#f5ac3a" data-color="1"/>
            <path d="M503.37 1090.71a3.46 3.46 0 0 0-1.73 6.7 53.7 53.7 0 0 0 13.42 1.67c12.23 0 24.7-3.92 34.14-11.11 8.44-6.43 18.57-18.6 18.89-40.07a3.47 3.47 0 0 0-3.41-3.51 3.46 3.46 0 0 0-3.46 3.41c-.22 14.79-5.81 26.78-16.16 34.67-12.94 9.81-30.25 11.21-41.69 8.24z" fill="#f5ac3a" data-color="1"/>
            <path d="M390.32 1129.67a67.23 67.23 0 0 0 20.95 3.23 83.88 83.88 0 0 0 40-10.52c8.87-4.87 17.64-12.7 26.12-20.28 16-14.3 31.13-27.79 45.79-22.42a3.46 3.46 0 1 0 2.38-6.49c-18.56-6.81-36 8.73-52.78 23.75-8.19 7.32-16.66 14.89-24.84 19.38-17.83 9.79-38.56 12.32-55.43 6.78a47.76 47.76 0 0 1-29.1-25.93c-11.83-25.57-7.78-65.38-4.83-94.45L359 998c2.25-22.46 4.45-48.58 2-74.22-.51-5.38-1.21-11.48-1.94-17.88-1.63-14.35-3.48-30.62-3.73-42.86-.18-8.45 0-16.8.12-24.88.62-32.74 1.19-63.66-20.18-94.18-11.47-16.39-31.5-34.3-47.61-42.59-30.86-15.88-94.31-20.88-119.6 7.8a3.46 3.46 0 1 0 5.19 4.58c22.33-25.33 82-21.31 111.24-6.23 15.24 7.84 34.21 24.83 45.11 40.4 20.09 28.69 19.53 58.51 18.94 90.09-.15 8.15-.31 16.57-.13 25.16.27 12.56 2.13 29 3.78 43.49.73 6.36 1.42 12.42 1.93 17.76 2.4 25 .23 50.73-2 72.87l-.48 4.68c-3 29.87-7.2 70.78 5.43 98.07a54.54 54.54 0 0 0 33.25 29.61z" fill="#f5ac3a" data-color="1"/>
            <path d="M197 739.33c16.13-12.52 52.6-6.85 71.8-.33 10.82 3.68 31.06 15.66 40 25a3.46 3.46 0 0 0 5-4.77c-9.72-10.23-31-22.81-42.77-26.82-14.79-5-57.69-14.56-78.27 1.42-8 6.22-11.59 15.38-10.67 27.25a3.46 3.46 0 1 0 6.89-.54c-.72-9.49 1.91-16.44 8.02-21.21z" fill="#f5ac3a" data-color="1"/>
            <path d="M242.83 753.81c-26.75-.61-49.83 6-51.21 11.81-.63 2.68.84 6.38 11.58 22.31.89 1.32 1.59 2.36 2 2.94a53.68 53.68 0 0 0 15.42 16.21c11.85 7.92 22.6 10.82 32.52 10.82 14.48 0 27.2-6.18 39-11.9s22.61-11 33.78-9.71a3.45 3.45 0 0 0 2.85-1 3.49 3.49 0 0 0 1-2.86c-3.48-27.94-68.77-38.21-86.94-38.62zm46.22 46c-19.06 9.26-38.77 18.84-64.63 1.55A46.9 46.9 0 0 1 211 787.18c-.39-.62-1.13-1.72-2.07-3.12-2.22-3.28-8.45-12.52-10.13-16.38 4.35-2.36 19.82-7.52 43.86-7 21.27.49 70.25 10.67 78.91 28.47-11.19.26-21.57 5.31-32.52 10.63z" fill="#f5ac3a" data-color="1"/>
            <path d="M300.28 820.16c-29.22 16.87-45.07 17.8-62.83 3.73a3.45 3.45 0 0 0-4.29 5.41c9.41 7.47 18.62 11.23 29 11.23 11.71 0 24.9-4.77 41.56-14.37a3.46 3.46 0 1 0-3.46-6z" fill="#f5ac3a" data-color="1"/>
            <path d="M623.24 1163.39c-9.67 7.22-32.63 6.78-56.93 6.31-21.83-.41-44.41-.85-62.46 3.84a147.32 147.32 0 0 0-16.07 5.44c-8 3.09-15.66 6-24.94 6.54-8.4.48-15.88-1.58-23.8-3.76-6.74-1.86-13.71-3.78-21.41-4.09-5.37-.21-11.39 1.06-17.24 2.3-14.63 3.09-24.64 4.4-30.08-5.29a3.46 3.46 0 1 0-6 3.38c8.33 14.86 24.54 11.43 37.55 8.67 5.68-1.2 11.05-2.33 15.52-2.15 6.91.28 13.19 2 19.85 3.85 7.29 2 14.8 4.08 23.17 4.08.95 0 1.9 0 2.87-.09 10.36-.59 18.83-3.84 27-7a141.16 141.16 0 0 1 15.33-5.2c17.13-4.45 39.23-4 60.59-3.62 26.64.51 49.62 1 61.2-7.69a3.46 3.46 0 1 0-4.14-5.54z" fill="#f5ac3a" data-color="1"/>
            <path d="M589.73 1244.35a3.45 3.45 0 0 0-4.07 1.58c-1.27 1-6.15 3.12-7.79 3.82l-2.06.9c-12.21 5.81-24.6 5.52-37.74 5.21-2.15 0-4.32-.1-6.52-.12-11.64-.12-24.09 1.22-36.07 2.53-36.56 4-71.06 7.78-93.8-25.36a3.46 3.46 0 1 0-5.7 3.91c17.11 24.94 40.31 30.92 65.07 30.92 11.54 0 23.43-1.31 35.18-2.59s24-2.65 35.24-2.5c2.17 0 4.31.08 6.43.13 14 .33 27.17.63 40.87-5.88.39-.18 1-.45 1.81-.78 7.35-3.13 10.55-4.86 11.38-7.41a3.47 3.47 0 0 0-2.23-4.36z" fill="#f5ac3a" data-color="1"/>
            <path d="M749.92 758.6c-1.84-.54-4.68-1.48-8.37-2.69-31.84-10.45-128.76-42.24-191.65-18.91-4.44 1.65-34.45 15.24-37 26.9-.23 1.05-.38 3.68 3.11 5.61 3.69 2 7.38 2.2 11 2.35 4.27.19 8.29.36 13.23 3.45 28.85 18.11 57.89 27.15 86.41 27.15 31.21 0 61.79-10.84 90.79-32.48a3.46 3.46 0 1 0-4.13-5.54c-53.77 40.12-110.75 41.81-169.4 5-6.48-4.06-12.09-4.3-16.6-4.5a20.41 20.41 0 0 1-7-1.07c3.9-6.36 22.69-16.93 32-20.39 60.65-22.52 155.82 8.72 187.09 19 3.79 1.25 6.71 2.21 8.6 2.76a3.46 3.46 0 1 0 1.93-6.64z" fill="#f5ac3a" data-color="1"/>
            <path d="M510.48 743.44a3.47 3.47 0 0 0 3.12-1.94 65.86 65.86 0 0 1 28.65-29.62c54.33-29.22 101.48-11.67 151.39 6.91 15.79 5.88 32.12 12 48.86 16.58a3.46 3.46 0 0 0 1.84-6.67c-16.45-4.54-32.64-10.56-48.29-16.39-51.42-19.14-100-37.22-157.08-6.53a72.76 72.76 0 0 0-31.59 32.68 3.46 3.46 0 0 0 3.1 5z" fill="#f5ac3a" data-color="1"/>
            <path d="M728.69 775.31c-56.55 59.8-122.41 51.48-152.41 37.12a3.46 3.46 0 1 0-3 6.24c12.54 6 31 11 52.36 11 32.68 0 72.23-11.73 108.07-49.63a3.46 3.46 0 0 0-5-4.75z" fill="#f5ac3a" data-color="1"/>
            <path d="M980 599c-25.41-10.6-41.25-.26-55.24 8.88s-25.88 16.88-46.38 8a3.45 3.45 0 0 0-2.77 6.33 49 49 0 0 0 19.78 4.54c13.2 0 23.29-6.59 33.15-13 13.77-9 26.78-17.48 48.79-8.29A3.46 3.46 0 1 0 980 599z" fill="#f5ac3a" data-color="1"/>
            <path d="M781.43 496.85c16 .64 25.75 12 37 25.11 12.82 14.95 27.36 31.89 54 32.39h.87c20.42 0 35-13.52 49.18-26.61 14.91-13.81 29-26.86 48.69-23 14 2.73 22.72 12.62 32 23.1 8.69 9.83 17.67 20 31.3 24l.36.11c5.34 1.65 10.3 2.86 12.36-.47a3.46 3.46 0 0 0-4.69-4.8 27.17 27.17 0 0 1-5.63-1.34l-.45-.14c-11.72-3.43-19.66-12.4-28.07-21.91-9.63-10.88-19.58-22.13-35.84-25.31-23.13-4.52-39.2 10.33-54.72 24.7-13.76 12.74-26.77 24.78-44.49 24.78h-.73c-23.58-.44-36.47-15.45-48.93-30-11.28-13.15-23-26.76-42-27.51h-.14a3.46 3.46 0 0 0-.13 6.91z" fill="#f5ac3a" data-color="1"/>
            <path d="M947.49 424.39c-11.47 9.83-22.31 19.11-37.38 19.45-21 .41-37.77-10.09-55.45-21.27-16.14-10.2-32.84-20.76-53-21.95-30.64-1.8-56.21 12.56-81 26.45-22.45 12.63-45.66 25.69-72.43 26.13-23.58.54-43.23-12.5-62.14-25-19.3-12.72-39.27-25.92-63.78-25.37-15 .32-31 5.36-46.51 10.23-31.83 10-61.88 19.44-85.8-6.8a3.46 3.46 0 1 0-5.11 4.66c26.9 29.5 60.49 19 93 8.74 15.73-4.95 30.59-9.62 44.58-9.91 22.38-.48 40.57 11.52 59.83 24.22 19.48 12.85 39.61 26.12 64.88 26.12h1.19c28.47-.47 52.49-14 75.73-27 25-14 48.56-27.25 77.16-25.58 18.4 1.09 33.61 10.71 49.73 20.9 17.77 11.23 36.17 22.81 59.3 22.33 17.53-.39 29.83-10.92 41.72-21.1 13.14-11.25 25.52-21.88 44.17-18 19.86 4.16 28.11 18.28 36.1 31.95 8.91 15.25 18.08 31 42.42 31a68.42 68.42 0 0 0 10.59-.88 3.46 3.46 0 1 0-1.07-6.84c-27.8 4.37-36.22-10.05-46-26.74-8.34-14.26-17.79-30.43-40.65-35.22-21.94-4.61-36.25 7.65-50.08 19.48z" fill="#f5ac3a" data-color="1"/>
            <path d="M478.3 381.79c15.92-5.69 32.38-11.56 48.33-13.12 25.11-2.46 45.67 9.44 67.45 22.05 20 11.56 40.64 23.51 65.17 23.51h1.63c25.08-.53 42.39-14.16 59.13-27.34 16.57-13 33.7-26.52 59-28.07 28.75-1.79 46.09 9.87 64.46 22.19 13.16 8.84 26.78 18 44.87 22 17.71 3.9 32.72-3.06 48.62-10.44 21.05-9.75 42.81-19.85 73.76-5.26a3.46 3.46 0 0 0 2.95-6.25c-33.88-16-58.18-4.7-79.61 5.24-14.81 6.87-28.82 13.36-44.23 9.95-16.81-3.71-29.29-12.08-42.51-20.95-18.51-12.43-37.68-25.26-68.73-23.36-27.43 1.69-45.43 15.85-62.83 29.55-16.57 13-32.23 25.37-55 25.86-23.24.48-42.68-10.71-63.19-22.57-21.77-12.6-44.27-25.62-71.59-23-16.79 1.65-33.66 7.67-50 13.49-34.2 12.21-63.74 22.75-86.93-5.42a3.46 3.46 0 0 0-5.34 4.4c26.29 31.92 61.01 19.52 94.59 7.54z" fill="#f5ac3a" data-color="1"/>
            <path d="M416.48 319.76a64.9 64.9 0 0 0 14.58-1.66c16.47-3.82 30.09-12.39 43.27-20.69 18.22-11.47 35.5-22.31 58.93-20.44 15.36 1.21 33 10.57 50 19.61 26.87 14.27 54.65 29 78.4 15.79a3.46 3.46 0 1 0-3.37-6c-20.47 11.39-46.56-2.46-71.79-15.86-17.67-9.38-35.94-19.07-52.72-20.4-25.82-2-44.8 9.92-63.16 21.48-12.69 8-25.82 16.26-41.15 19.81-3.78.88-37.3 7.74-52.05-20.58a3.46 3.46 0 1 0-6.13 3.2c10.02 19.14 28.4 25.74 45.19 25.74z" fill="#f5ac3a" data-color="1"/>
            <path d="M394.58 260.94c18.09 5 42.9-5.16 54.69-11.93 46-26.45 98.55-24.52 140.61 5.15 7.4 5.22 14.15 11.62 20.67 17.81 6.14 5.81 12.48 11.82 19.45 17a3.46 3.46 0 1 0 4.11-5.57 206.43 206.43 0 0 1-18.8-16.4c-6.7-6.36-13.63-12.93-21.44-18.44-44.32-31.27-99.67-33.32-148-5.5-10.11 5.82-33.45 15.66-49.4 11.26a20.38 20.38 0 0 1-13-10.09 3.46 3.46 0 0 0-6 3.39 27.39 27.39 0 0 0 17.11 13.32z" fill="#f5ac3a" data-color="1"/>
            <path d="M388.82 194.1c18.22 14.11 56.06 6.64 92.66-.58 16.48-3.25 32-6.32 44.25-7 47.56-2.62 63.55 12.83 80.52 29.2 11.29 10.89 23 22.15 43.92 27.95 19 5.25 35.35-1.7 51.14-8.43 12.56-5.35 24.37-10.35 37.78-10 31.24 1 53.65 23 75.32 44.35 16.31 16 31.71 31.22 50.54 37.86a58.77 58.77 0 0 0 19.48 3.39c8.73 0 17-2.08 23.51-6.15 8.75-5.44 14.07-14.13 15.37-25.12a3.46 3.46 0 1 0-6.87-.81c-1.06 9-5.15 15.7-12.15 20.06-9.45 5.87-24 6.71-37 2.11-17.37-6.14-32.24-20.77-48-36.27-14.73-14.49-29.8-29.26-47.88-38.13-13.56-9.31-18.17-22.91-23-37.32-5-14.82-10.2-30.15-25-43.13-10.76-9.44-22.83-14.87-34.5-20.12-13.31-6-25.88-11.65-36.16-22.77-4.65-5-4.11-9.16-3.37-14.88 1.73-13.44.51-25-31.66-41.41-21.75-11.09-51.74-18.29-91.69-22a3.46 3.46 0 1 0-.64 6.89c39.06 3.65 68.24 10.61 89.19 21.29 30.38 15.48 29.14 25.08 27.94 34.37-.79 6.12-1.69 13.07 5.15 20.46 11.24 12.15 25 18.37 38.4 24.37 11.21 5 22.8 10.26 32.78 19 13.4 11.76 18.28 26.19 23 40.15 3.4 10 6.88 20.3 13.56 29.18a74.75 74.75 0 0 0-16-2.28c-14.85-.52-28 5.12-40.71 10.54-15.37 6.54-29.9 12.73-46.58 8.12-19.28-5.33-29.81-15.49-41-26.26-17.29-16.68-35.16-34-85.71-31.12-12.67.7-28.47 3.82-45.2 7.12-33.45 6.6-71.35 14.07-87.08 1.89-4.72-3.65-7.22-8.94-7.64-16.17a3.46 3.46 0 1 0-6.9.4c.47 9.22 3.93 16.37 10.23 21.25z" fill="#f5ac3a" data-color="1"/>
            <path d="M471.91 149.6c19.21-4.19 39.08-8.52 55.35-7.72 31.41 1.53 54.62 8 70.93 19.63 9.88 7.07 17.3 14.52 23.85 21.09 13.85 13.91 25.31 25.4 50.78 25.4a113.42 113.42 0 0 0 19.11-1.79 3.46 3.46 0 0 0-1.16-6.82c-36.09 6.15-47.13-4.92-63.83-21.7-6.74-6.76-14.37-14.43-24.72-21.84-17.43-12.47-41.84-19.31-74.62-20.91-17.2-.81-37.51 3.59-57.16 7.87-29.36 6.4-57.07 12.44-63.39-2.18a3.46 3.46 0 0 0-6.35 2.75c8.57 19.87 39 13.24 71.21 6.22z" fill="#f5ac3a" data-color="1"/>
            <path d="M473 84.54c5.94.41 11.95.69 18 1 26.95 1.24 54.81 2.52 78.47 16.06 11.37 6.5 20.32 15.2 29.79 24.41s19.53 19 32.19 26.14c17.16 9.72 31.81 13.45 44.74 16.74 18.1 4.6 32.41 8.24 46 26.63a3.46 3.46 0 0 0 5.56-4.12c-15.07-20.37-31.2-24.47-49.87-29.22-12.51-3.18-26.68-6.79-43-16-11.94-6.81-21.54-16.18-30.83-25.18s-19-18.52-31.17-25.46c-25.11-14.36-53.83-15.68-81.6-17-6-.27-11.94-.54-17.83-1-34.9-2.39-56.9-8.81-65.37-19.07a3.46 3.46 0 0 0-5.34 4.4C412.61 74.93 435.58 82 473 84.54z" fill="#f5ac3a" data-color="1"/>
            <path d="M474.59 107.77c-25.21 1.82-47 3.39-58.42-16.28a3.46 3.46 0 1 0-6 3.48c13.6 23.4 38.52 21.6 64.9 19.7 21.68-1.57 44.1-3.18 64.44 7.54a3.46 3.46 0 0 0 3.23-6.12c-22.08-11.65-46.55-9.88-68.15-8.32z" fill="#f5ac3a" data-color="1"/>
            <path d="M743.73 251.32c-15.79 2.22-27.82 11.1-33.86 25a3.45 3.45 0 0 0 1.79 4.55 3.51 3.51 0 0 0 1.37.29 3.46 3.46 0 0 0 3.18-2.09c5-11.6 15.16-19 28.49-20.9 17-2.38 35.52 4.55 46 17.29a3.46 3.46 0 0 0 5.34-4.41c-11.96-14.52-33.04-22.44-52.31-19.73z" fill="#f5ac3a" data-color="1"/>
            <path d="M1178.93 775.21c14.84-25 16.23-48 3.63-63.39a39.82 39.82 0 0 0-7.56-7c-13.51-16-3.22-46.2 3.61-66.23 2.39-7 4.28-12.56 4.86-16.5 1.3-8.75 4.09-28-4.46-41.33 3.93-10.4 3.7-23.14-.11-33.92a62.93 62.93 0 0 0-2.94-20.74 2.44 2.44 0 0 0-.07-.46c-8.5-24-3.21-48.7 1.9-72.61 4.77-22.34 9.28-43.43 2.86-63.11-10.39-31.85-33.25-44.94-55.35-57.59-12-6.86-24.36-14-34.8-24s-14.9-21.93-19.74-34.61c-2.82-7.37-5.73-15-9.88-22.32-16.66-33.31-45.8-50.71-71.51-66.07-17.12-10.22-33.3-19.88-44.28-33-36.09-43.28-60.76-70.85-109.82-92.56-19.17-8.49-42.81-12.14-67.84-16-22.69-3.5-46.16-7.13-67.12-14.65-10.66-3.82-19.63-7.53-27.55-10.81C646.18 7.29 626.94-.64 576.69 0c-20.93.29-40.33 6-57.44 11-9.78 2.89-18.25 5.36-25.25 6.32-9.12 1.24-20.25 1.77-32 2.33-18.8.9-40.11 1.91-57.91 6.16C357 37 305.67 52.92 249.51 93c-.8.57-74.23 56.63-66.94 81.18-34.84 23-41.53 42.11-46.39 56.11-2.44 7-4.43 12.65-9.3 17.23-9.38-.42-20.81 2.59-36 12.07-21.25 13.27-49.84 56.74-56.3 95.05-1.94 11.52-1.65 21.72.76 30.21a16.28 16.28 0 0 0-10.44 3.65c-4.53 3.73-9.47 11.81-7.28 29.16a65.45 65.45 0 0 0 2.66 10.86c2 6.44 3.83 12.53 1.37 17.43C1.25 486.4-4.16 514.46 3 542.79c2.29 9.06 6.83 15.54 11.23 21.81l.85 1.23c-5.91 19.69-4.84 38.34 3.28 55.43 6.34 13.32 15.3 22.22 24.64 30.07-11 29.43 2.3 56.15 20.94 66.67a39.78 39.78 0 0 0 8.76 3.66c.69 20.18 9.94 39.17 24.07 48.93a35.71 35.71 0 0 0 20.37 6.61 34.19 34.19 0 0 0 8.54-1.13c2.32 13.52 8.87 26.1 23.33 36.3a45 45 0 0 0 26.46 8.36 55.27 55.27 0 0 0 16.53-2.62c1.35 9.67 2.47 20.09 3.53 29.92s2.08 19.32 3.17 26.4c6 38.8 15.43 67.85 27.13 101.78 23 66.76 59.07 132.46 95.83 196.38 10.1 34.4 14.73 57.83 16.26 66.33 5.61 31.3 6.21 40.09 7.39 57.6.53 7.81 1.18 17.53 2.45 31.73a226.2 226.2 0 0 1 .51 24.72c-.29 17.48-.57 34 9.88 52 45.24 77.9 142 89.78 196.7 89.78 7 0 13.38-.2 18.82-.47 62.12-3.17 116.82-26 169.73-48 32.74-13.66 66.61-27.78 102.25-37.35 44.21-11.87 86.07-40.77 109.24-75.43.8-1.2.8-1.2.12-21.71-1.86-55.51-6.75-202.06 6.69-274.83 4-1.24 8.57-2.57 13.68-4 1.94-.55 3.52-1 4.58-1.31 53.85-16 70-42.58 78.64-72.37 29.63-11.52 60.9-25.39 71.33-45.5.37-.48 2.65-3 5-5.6 10.51-11.51 30.06-32.94 34.85-42.21a36.92 36.92 0 0 0 1.37-30.25 36.35 36.35 0 0 0-4-7.5c4.7-4.78 12.65-13.78 15.18-18.05 6.92-11.65 5.19-20.95 2.52-26.7a28 28 0 0 0-5.92-8.26zm-1.72-59c10.52 12.84 9.09 32.66-3.77 54.71a43.89 43.89 0 0 0-16.23-6c-27.48-4.58-59.35 5.53-93.11 16.24-49.1 15.58-99.87 31.68-138.89 1.9-6.45-4.92-10.45-11.89-14.69-19.26-4-7-8.15-14.17-14.57-19.71-5.89-5.08-12.45-8.48-18.79-11.77-12.65-6.56-22.81-11.83-23.43-27.89 17.44.12 36.15-5.33 53.79-10.5 11.93-3.49 23.19-6.78 33.69-8.38 17.83-2.71 25.95 5.71 34.54 14.61 3.83 4 7.45 7.73 11.93 10.42 45.2 27.19 72.42 16.67 110.1 2.1 3.66-1.41 7.42-2.86 11.34-4.34 28.18-10.66 55.53-7.48 68.09 7.86zm-.58-95.16c-.49 3.31-2.38 8.86-4.57 15.28-6.13 18-14.8 43.54-8.17 62.54-15.57-5.82-36-5-57.21 3q-5.9 2.22-11.39 4.36c-37.18 14.37-61.75 23.86-104-1.57-3.69-2.22-7-5.66-10.51-9.3-8.55-8.86-19.17-19.91-40.56-16.64-11 1.66-22.44 5-34.59 8.57-38.23 11.19-77.74 22.75-99.34-21.66-5.93-12.19-11.52-30.12-6.88-49.12 18 22.37 40.7 40.49 73.42 45.65 38.42 6.08 55.26-8.2 70.12-20.79 9.91-8.4 18.48-15.65 32.39-16.83 7.82-.65 15.46 4.66 24.27 10.82 13.29 9.29 29.82 20.85 53.3 13.6 31.19-9.62 48.46-31.17 62.34-48.49 14.91-18.6 25.69-32 46.43-24.86 18.32 6.28 17.59 27.58 14.95 45.39zm-2.91-46.4a29.83 29.83 0 0 0-9.82-5.62c-25.38-8.76-38.68 7.84-54.1 27.07-14 17.45-29.82 37.22-59 46.22-20.25 6.23-34-3.37-47.29-12.67-9.51-6.64-18.5-12.95-28.82-12-16.12 1.37-26.37 10-36.28 18.44-14.4 12.19-29.31 24.81-64.57 19.24-52.51-8.33-78.4-53.33-101.25-92.96-18.88-32.76-36.81-63.86-67-68.39a158.54 158.54 0 0 0 16.87-15.7c12.13-12.54 22.63-23.38 43.68-23.38h.6c21.8.22 40.36 11.49 60 23.42 17.71 10.75 36 21.86 57 24.3 22.38 2.61 37.41-7.9 51.94-18.07 10.71-7.49 20.82-14.56 33.9-17 31.17-5.91 39.31 10.32 48.75 29.11 7 13.92 14.24 28.31 31.72 32.36 16.82 3.9 31.17-4.83 45.05-13.27s27.94-17 45.29-14.4c10.79 1.64 25.68 11.34 30.2 31.46-7.49-8-17.47-10.74-28.21-7.49-18.14 5.51-29.22 17.54-39.94 29.18-15 16.33-29.27 31.73-62.4 28.68-12.87-1.18-22.59-8.69-32.88-16.64-9.9-7.66-20.15-15.58-33.27-17-19.5-2-36.36 9.78-52.63 21.22-12.26 8.63-24.94 17.54-38.28 20-44.41 8.11-57.93-11.23-73.6-33.63-7.32-10.47-14.89-21.29-26.07-29.34a3.46 3.46 0 1 0-4 5.62c10.23 7.35 17.45 17.69 24.44 27.69 13.25 18.9 26.87 38.41 60.54 38.4a110.83 110.83 0 0 0 20-2c14.84-2.71 28.15-12.07 41-21.12 15.93-11.21 31-21.77 47.93-20 11.16 1.17 20.2 8.16 29.77 15.55 10.61 8.21 21.59 16.69 36.47 18.06 36.58 3.34 52.61-14 68.12-30.88 10.55-11.46 20.52-22.29 36.86-27.25 10.57-3.21 17.56 1.48 21.56 6 7.85 8.86 10.88 24.34 7.72 36.78zM948.13 1312c.3 8.84.54 16 .53 18.39-22.38 33-62.43 60.47-104.76 71.83-36.09 9.69-70.17 23.9-103.12 37.64-54.77 22.84-106.51 44.41-167.42 47.52-46.54 2.37-160-1.25-209.18-85.88-9.5-16.35-9.24-31.21-8.95-48.41a230.53 230.53 0 0 0-.54-25.45c-1.26-14.13-1.91-23.81-2.44-31.59-1.2-17.76-1.8-26.68-7.49-58.35-1.12-6.27-3.92-20.56-9.28-41.25l2.37 4.11c9.54 16.46 18.54 32 27.41 47.68l.14.18s0 .08.05.11c7.59 10.69 17.26 23.4 26.61 35.7 10.2 13.41 20.75 27.28 28.86 38.84 28.58 40.77 65.42 61.07 111.41 61.07 29.28 0 62.26-8.22 99.18-24.63 102.15-45.41 227-166.28 284.32-275.19 4.68-8.88 9.17-20.44 13.46-33.62.74-1.6 5.34-5 25-11.4-12.77 74.62-7.99 217.88-6.16 272.7zm215.62-449.21c-3.86 7.45-20.32 25.87-30.21 36.75 0-10-4.87-20.64-14.81-31.65a3.46 3.46 0 1 0-5.13 4.63c10.74 11.91 14.83 22.45 12.5 32.24-4.54 19.06-33.35 33.51-65.22 46.18 1.24-5 2.35-10 3.47-15.05 1.24-5.6 2.52-11.38 4-17.09 4.57-17.83 43.83-72 98.35-65.76a28.76 28.76 0 0 1-2.95 9.75zm12.77-56.16c-2 3.41-9.19 11.65-13.75 16.31a25.16 25.16 0 0 0-8.26-5.21c-29.56-11-57.77 5.83-85 22.09-32.62 19.45-66.35 39.55-104.33 15-14.93-9.66-25.72-25.12-30.39-43.53A3.46 3.46 0 0 0 928 813c5.1 20.1 17 37 33.35 47.63 41.59 26.89 77.18 5.67 111.62-14.85 27.07-16.15 52.65-31.38 79.1-21.55 5.34 2 10.09 7.21 12.71 14a31.53 31.53 0 0 1 1.89 7.88c-58.12-6-100.16 51.87-105.06 71-1.5 5.83-2.79 11.66-4 17.32-8.51 38.44-15.86 71.64-79.57 90.6-1 .31-2.58.74-4.48 1.27-5.72 1.61-10.84 3.11-15.48 4.53l-.24.08c-11.44 3.53-19.65 6.55-25.27 9.34 12.56-41.94 23.17-96.43 31-136.5 1.93-9.94 3.71-19.05 5.31-27a3.46 3.46 0 1 0-6.78-1.38c-1.61 7.91-3.38 17.05-5.32 27-11 56.45-27.59 141.75-47 178.7-56.66 107.71-180.09 227.23-281 272.09-91.43 40.63-157.54 29.49-202.12-34.09-8.18-11.67-18.77-25.6-29-39.06-9.28-12.2-18.87-24.82-26.38-35.39-8.85-15.63-17.84-31.14-27.34-47.56-42.02-72.35-85.36-147.2-111.54-223.06-11.58-33.61-20.91-62.35-26.82-100.59-1.07-6.92-2.08-16.23-3.13-26.08-2.38-22-5.06-47-9.95-60.77-1.4-3.94-5.13-6.92-8.43-9.54a36.63 36.63 0 0 1-4-3.46A69.75 69.75 0 0 1 164.41 743c-9.18-37.59-6-100.65 1.24-146.47.92-5.86 2.16-12 3.47-18.47 2.18-10.81 4.44-22 5.24-32.28a3.46 3.46 0 0 0-6.9-.53c-.76 9.88-3 20.84-5.12 31.44-1.33 6.56-2.58 12.75-3.53 18.76-6.8 43.1-11.17 108-1.12 149.19A76.66 76.66 0 0 0 175 778.15a40.78 40.78 0 0 0 4.8 4.24c2.57 2.05 5.48 4.37 6.22 6.44 2 5.66 3.64 13.5 5 22.33-8 2.74-23.56 5.79-38-4.42-28.4-20-22.41-50.66-16.61-80.25 3.61-18.41 7-35.79 2.53-50.59a3.46 3.46 0 1 0-6.62 2c4 13.14.74 29.71-2.7 47.25-2.8 14.3-5.77 29.5-4.76 44a27.87 27.87 0 0 1-24.14-4.2c-12.06-8.32-20.08-24.54-21-42.07.88.06 1.74.19 2.62.19 10 0 20.64-4.48 29.55-16.55a3.45 3.45 0 0 0-5.56-4.1C96 716.34 81.41 720 67.34 712c-15.64-8.85-26.86-31.07-18.72-56l1.72 1.39c4.93 4 10 8.09 14.86 12.71a3.44 3.44 0 0 0 4.89-.1 3.46 3.46 0 0 0-.1-4.89c-5-4.83-10.26-9-15.32-13.11-11.69-9.41-22.73-18.3-30-33.71-6.55-13.78-8-28.74-4.5-44.55.32.57.69 1.09 1 1.68a126 126 0 0 1 5.37 12.26C30.55 598 34.39 607.76 49.78 621c6.81 5.89 13.18 8.14 18.62 8.14a18.1 18.1 0 0 0 12.27-4.68c6.36-5.77 7.7-15 3.13-21.48a3.46 3.46 0 1 0-5.65 4c2.52 3.57 1.58 9-2.13 12.37-5.36 4.87-13.48 3.53-21.73-3.57-14.09-12.17-17.47-20.74-21.37-30.67a131.1 131.1 0 0 0-5.66-12.91 100.88 100.88 0 0 0-7.35-11.6c-4.23-6-8.22-11.71-10.19-19.53C3 514.54 8.25 487.87 27.83 449c3.72-7.38 1.36-15.1-.93-22.56a60.43 60.43 0 0 1-2.41-9.7c-1.4-11.1.31-19.25 4.81-22.95a10 10 0 0 1 8.91-1.75 35.64 35.64 0 0 0 4 6.46c3.14 3.89 6.31 4.93 8.82 4.93a9.2 9.2 0 0 0 3.2-.58c8.31-3 13.19-16.82 13.07-23.33a3.53 3.53 0 0 0-3.51-3.4 3.46 3.46 0 0 0-3.4 3.52c.09 5.34-4.46 15.24-8.51 16.71-.54.19-1.94.71-4.29-2.19-6.86-8.51-9-21.8-6.2-38.43 6.15-36.55 33.13-77.84 53.14-90.34 29.59-18.48 41.91-10.27 56.16-.76 9.7 6.46 20.7 13.78 37.55 12 27.74-3 49.22-30.24 70-56.59 17.3-21.94 35.19-44.62 56.31-53.2a3.46 3.46 0 1 0-2.6-6.41c-22.82 9.27-41.29 32.69-59.14 55.33-20.8 26.38-40.45 51.3-65.3 54-14.39 1.55-23.41-4.47-33-10.85-6-4-12.17-8.07-19.53-10.11 3.74-4.92 5.68-10.47 7.69-16.26 4.77-13.78 10.77-30.86 43.6-52.56 17.18 16.55 60.77-9.94 103-35.63 26-15.78 55.35-33.67 63.41-29.86a3.46 3.46 0 0 0 3-6.25c-10.81-5.16-33.64 8.12-70 30.2-37.6 22.87-84.39 51.31-96 35-9.07-12.75 43.86-60.58 63.8-74.81 55.2-39.36 105.73-55 152.11-66.06 17.17-4.1 38.13-5.1 56.63-6 11.93-.57 23.21-1.11 32.62-2.38 7.59-1 16.27-3.57 26.31-6.51C537.88 12.78 556.8 7.24 576.78 7c48.86-.71 66.56 6.64 93.33 17.73 7.19 3 15.32 6.32 24.73 9.78-4.05 15.15 2.22 34.1 15.74 46.39 10.52 9.55 21.91 17.27 32.92 24.74 15.26 10.34 29.68 20.11 42.1 34.4 9.11 10.47 13.17 21.7 17.11 32.55 6.35 17.53 12.91 35.66 40.72 47.35 11.49 4.83 22.06 5.35 32.29 5.85 18.07.89 33.69 1.65 49 28.12a3.46 3.46 0 1 0 6-3.46c-17.19-29.73-35.38-30.62-54.64-31.57-9.63-.47-19.58-1-29.95-5.32-25-10.51-30.52-25.72-36.9-43.32-4.15-11.46-8.44-23.3-18.39-34.74-13-15-28.48-25.46-43.44-35.59-10.81-7.33-22-14.91-32.15-24.13-11.33-10.29-16.89-26.46-13.83-39 20.67 6.94 43.17 10.47 65 13.84 6.1.94 12.11 1.87 18 2.86a14.45 14.45 0 0 0-6.73 6.67c-4.32 9.48 4 21.68 9.34 28.11 10.39 12.5 25.17 19.17 39.46 25.62 4 1.8 7.79 3.51 11.51 5.35 27.39 13.56 35.09 28.4 43.24 44.11 5.5 10.62 11.2 21.61 23.07 32.19 13.84 12.35 31 16 47.49 19.5 24.36 5.17 47.36 10.06 57.49 42.86a3.46 3.46 0 0 0 3.31 2.44 3.6 3.6 0 0 0 1-.15 3.46 3.46 0 0 0 2.28-4.33c-11.33-36.68-37.42-42.23-62.66-47.59-15.66-3.32-31.85-6.76-44.33-17.89-10.92-9.74-16.08-19.68-21.53-30.21C879 144.13 870.44 127.57 841 113c-3.83-1.89-7.85-3.71-11.74-5.46-13.57-6.12-27.61-12.45-37-23.73-5.57-6.71-10.7-15.7-8.36-20.82 1.74-3.83 7.95-6 17.91-6.25 11.13 2.38 21.48 5.3 30.63 9.34 47.66 21.09 71.82 48.17 107.3 90.6 11.74 14 28.41 24 46.05 34.52 26.11 15.6 53.11 31.72 68.86 63.22 0 0 0 .06.07.1v.06c3.93 6.93 6.77 14.36 9.52 21.55 4.9 12.83 10 26.09 21.4 37.12 11.06 10.66 23.82 18 36.16 25 21.93 12.56 42.65 24.41 52.21 53.74a63.21 63.21 0 0 1 2.8 21.29c-9.77-19.11-29.8-27.5-49.32-35.64-17.36-7.25-35.32-14.73-46.08-29.77a227.89 227.89 0 0 1-12.37-20.07c-8.74-15.37-17.78-31.27-35.47-41.5-24.29-14-52.81-15.16-74.45-2.92-10.83 6.12-18.52 15.18-26 23.93-8.61 10.14-16.74 19.71-29.54 25.5-25.46 11.52-49.49 2.82-74.94-6.39-19.35-7-39.34-14.25-60.36-12.14-22.82 2.3-40.31 14.59-57.22 26.47-16.34 11.48-31.77 22.32-51.48 24.54-29.79 3.35-44.19-8.77-60.89-22.81-11.37-9.55-23.14-19.44-40.62-24.71-37.21-11.23-60 2.19-86.46 17.72-7.57 4.45-15.38 9-24 13.31-15.93 7.92-48.61 7.6-65.68-10.89a3.46 3.46 0 1 0-5.07 4.7c20 21.66 56.34 21.08 73.83 12.38 8.79-4.37 16.72-9 24.38-13.53 26.06-15.32 46.64-27.42 81-17.07 16.12 4.86 27.33 14.28 38.17 23.39 16.42 13.8 33.41 28.06 66.11 24.38 21.47-2.41 38.35-14.28 54.69-25.75 16.93-11.89 32.91-23.13 53.93-25.24 19.43-2 38.7 5 57.32 11.75 25.62 9.28 52.11 18.87 80.14 6.19 14.21-6.43 23.24-17 32-27.32 7.37-8.68 14.33-16.87 24.1-22.39 19.22-10.87 45.75-9.73 67.57 2.88 16.08 9.3 24.26 23.7 32.93 38.94a232.84 232.84 0 0 0 12.75 20.68c11.91 16.64 30.79 24.51 49 32.12 23.52 9.81 45.72 19.09 50.3 46.23-1.1 6.92-2.61 14-4.16 21.25-.72 3.37-1.44 6.75-2.12 10.15-7.16-11.28-17.64-14.12-30.25-17.51-13.84-3.72-31.06-8.35-51.52-26.25-8.9-7.79-15.22-20.06-21.91-33.05-10.82-21-23.07-44.75-49.4-51.82-18-4.83-34.93 2.86-51.29 10.3-16.63 7.57-33.82 15.38-52.57 10.51a3.46 3.46 0 0 0-1.75 6.69c21.14 5.51 39.46-2.84 57.18-10.9 16-7.26 31-14.12 46.63-9.92 23.39 6.28 34.4 27.64 45 48.31 7 13.59 13.61 26.43 23.51 35.09 21.66 19 39.74 23.81 54.28 27.72 15.09 4.05 24.29 6.56 29.9 22.35-1.87 11.29-2.91 22.71-1.83 34.18-7.29-7.64-16.17-11.81-23.46-12.91-19.79-3-35.81 6.73-49.93 15.32-13.28 8.08-25.81 15.72-39.89 12.44-14.32-3.31-20.53-15.66-27.1-28.73-9.35-18.6-20-39.68-56.22-32.8-14.54 2.76-25.74 10.6-36.57 18.17-14.09 9.86-27.4 19.17-47.18 16.87-19.53-2.27-37.19-13-54.27-23.34-19.59-11.89-39.85-24.19-63.54-24.42h-.69c-24 0-36 12.39-48.63 25.48-12.3 12.93-25.3 26.27-51.77 29.5-36.17 4.4-57.89-9.26-80.88-23.75-14.16-8.92-28.81-18.15-47.25-23.25-19.85-5.48-39.19-1.23-57.89 2.88-9.7 2.14-19.73 4.34-29.58 5.09-42.05 3.23-76.94-16.31-93.38-52.24a3.46 3.46 0 1 0-6.29 2.88c17.7 38.68 55.2 59.71 100.2 56.26 10.34-.79 20.61-3.05 30.54-5.23 18.7-4.11 36.36-8 54.55-3C553 467.42 567.23 476.38 581 485c23 14.49 46.79 29.49 85.4 24.76a78.23 78.23 0 0 0 29.53-9.4C728 499 746 530 766.6 565.83c8.39 14.56 17.18 29.81 27.53 43.83-7.61 22.89-1.08 44.61 5.89 59 11.79 24.24 28.38 33.54 46.81 35.4.52 20.55 14 27.6 27.14 34.4 6 3.1 12.18 6.32 17.46 10.86 5.53 4.78 9.2 11.16 13.09 17.93 4.39 7.64 8.94 15.54 16.49 21.31 41.89 32 94.4 15.3 145.18-.81 33-10.44 64.07-20.31 89.88-16 10.74 1.79 19.21 7.29 22.64 14.69 2.83 6.02 2.07 13.02-2.19 20.19z" fill="#f5ac3a" data-color="1"/>
            <path d="M370.58 75.79a3.47 3.47 0 0 0-3.64-3.27c-30.36 1.64-52.94 20.73-74.77 39.2-19.41 16.42-37.74 31.93-61.08 36.2-2.81.52-5.22.18-5.63-.12a1.76 1.76 0 0 1 0-.48c2.3-11.65 26.89-26.1 43.17-35.66 5.63-3.31 10.49-6.17 13.91-8.52a3.75 3.75 0 0 0 2-3.48 3.46 3.46 0 0 0-6.05-2.11c-3.3 2.25-8 5-13.33 8.14-19.41 11.4-43.56 25.59-46.45 40.3a7 7 0 0 0 1.73 6.51c2.05 2.08 5.23 2.59 7.86 2.59a22.88 22.88 0 0 0 4-.37c25.16-4.6 45.06-21.44 64.31-37.72 21.93-18.54 42.63-36.06 70.68-37.57a3.46 3.46 0 0 0 3.29-3.64z" fill="#f5ac3a" data-color="1"/>
            <path d="M1148 651.26a46.38 46.38 0 0 0-6.56-.79c-17.27-.81-31.38 8.36-45 17.25s-26.73 17.4-42.77 16.63c-7.49-.36-20.6-6.69-27.16-10.37a3.46 3.46 0 1 0-3.38 6c3.18 1.79 19.62 10.74 30.21 11.25q1.2.06 2.37.06c17.17 0 31.06-9 44.5-17.8s25.93-16.89 40.93-16.14a40.35 40.35 0 0 1 5.59.67 3.46 3.46 0 1 0 1.3-6.79z" fill="#f5ac3a" data-color="1"/>
            <path d="M1035.73 762.2c-10.71 6.21-20.89 9-31.14 8.5-21-1-39-15.56-58-31-8.58-6.92-17.45-14.09-26.67-20a3.46 3.46 0 0 0-3.71 5.84c8.89 5.66 17.6 12.7 26 19.51 19.09 15.41 38.83 31.36 62 32.48.89 0 1.78.07 2.67.07 10.7 0 21.29-3.13 32.27-9.5a3.46 3.46 0 1 0-3.47-6z" fill="#f5ac3a" data-color="1"/>
            <path d="M959.3 992.94a3.46 3.46 0 0 0 4.88-.25c10.07-11.17 17.55-24.42 24.78-37.24 12.62-22.37 24.55-43.5 49.14-54.35a3.46 3.46 0 0 0-2.79-6.33c-26.7 11.78-39.75 34.91-52.37 57.29-7.05 12.49-14.33 25.4-23.89 36a3.45 3.45 0 0 0 .25 4.88z" fill="#f5ac3a" data-color="1"/>
        </g>
    </g>
</svg>
