<?xml version="1.0" encoding="UTF-8"?>
<svg data-bbox="0 -0.001 74.51 105.683" viewBox="0 0 74.51 105.68" xmlns="http://www.w3.org/2000/svg" data-type="color">
    <g>
        <g>
            <path d="M37.26 0C16.68 0 0 14.62 0 32.66a29.7 29.7 0 0 0 5.92 17.66c10.17 15 23.26 19 24 31.76v5.5h14.67v-5.5c.75-12.79 13.84-16.76 24-31.76a29.7 29.7 0 0 0 5.92-17.66C74.51 14.62 57.83 0 37.26 0z" fill="#e6d3b5" data-color="1"/>
            <path d="M37.26 0C21.3 0 8.37 14.62 8.37 32.66A35.67 35.67 0 0 0 13 50.32c7.89 15 18 19 18.62 31.76v5.5H43v-5.5c.58-12.79 10.72-16.76 18.62-31.76a35.67 35.67 0 0 0 4.59-17.66C66.15 14.62 53.21 0 37.26 0z" fill="#2f377a" data-color="2"/>
            <path d="M37.26 0c-9.92 0-18 14.62-18 32.66a53.29 53.29 0 0 0 2.86 17.66c4.9 15 11.21 19 11.57 31.76v5.5h7.07v-5.5c.36-12.79 6.67-16.76 11.57-31.76a53.55 53.55 0 0 0 2.85-17.66C55.21 14.62 47.17 0 37.26 0z" fill="#e6d3b5" data-color="1"/>
            <path d="M37.26 0c-4.06 0-7.34 14.62-7.34 32.66a125.3 125.3 0 0 0 1.17 17.66c2 15 4.58 19 4.73 31.76v5.5h2.88v-5.5c.15-12.79 2.72-16.76 4.73-31.76a125.3 125.3 0 0 0 1.17-17.66C44.59 14.62 41.31 0 37.26 0z" fill="#2f377a" data-color="2"/>
            <path d="M73.83 38.89c-6 15.67-22.8 27-42.68 27a50.76 50.76 0 0 1-12.63-1.59c6.05 5.62 11 10.12 11.4 17.8v5.5h14.67v-5.5c.75-12.79 13.84-16.76 24-31.76a30.44 30.44 0 0 0 5.24-11.45z" opacity=".1" fill="#1d1d1b" data-color="3"/>
            <path d="M17.48 63.31q-1.69-2-3.32-4.33A32.79 32.79 0 0 1 7.24 39c0-20.23 19.19-36.66 43-37a41.74 41.74 0 0 0-13-2C16.68 0 0 14.62 0 32.66a29.7 29.7 0 0 0 5.92 17.66 75.23 75.23 0 0 0 11.56 12.99z" fill="#ffffff" opacity=".3" data-color="4"/>
            <path d="M39.45 105.68h-4.39c-2.84 0-5.14-2-5.14-4.51v-8.33h14.67v8.33c0 2.49-2.3 4.51-5.14 4.51z" fill="#7b6a58" data-color="5"/>
            <path d="M30.32 102.91a5.19 5.19 0 0 0 4.74 2.77h4.39c2.84 0 5.14-2 5.14-4.51v-6.54c-1.91 6.71-7.14 8.82-14.27 8.28z" opacity=".2" fill="#1d1d1b" data-color="3"/>
            <path fill="#7b6a58" d="M31.22 87.58v5.64h-.64v-5.64h.64z" data-color="5"/>
            <path fill="#7b6a58" d="M37.57 87.58v5.64h-.64v-5.64h.64z" data-color="5"/>
            <path fill="#7b6a58" d="M43.93 87.58v5.64h-.64v-5.64h.64z" data-color="5"/>
        </g>
    </g>
</svg>
