<?xml version="1.0" encoding="UTF-8"?>
<svg data-bbox="0 0 44.505 35.08" viewBox="0 0 44.51 35.08" xmlns="http://www.w3.org/2000/svg" data-type="color">
    <g>
        <g>
            <path d="M4.26 2.31c.27-.08.47-.22.41-.51-.14-.8-1.25.09-.41.51z" fill="#c988ae" fill-rule="evenodd" data-color="1"/>
            <path d="M5.75 2.16a1.13 1.13 0 0 0 0-.47c-1.03-.48-.75 1.24 0 .47z" fill="#c988ae" fill-rule="evenodd" data-color="1"/>
            <path d="M10.07 7.19c-.64-.42.26-.83.25-1.28-.2-.07-.39.14-.46 0a12.57 12.57 0 0 0 0-1.49c0-.48.15-1-.21-1.29-.07-.13-.22.09-.3.11A18.61 18.61 0 0 0 5 3.6c-.09-.1 0-.34-.25-.31-.4.11-.62.41-1 .51-.18.13-.19-.26-.51-.15A5.89 5.89 0 0 0 3 6.27c0 .83 0 1.71.1 2.46.09.91-.1 2.32.62 2.47 1.07.21 2.11-.43 3.13-.47.74 0 1.89.19 2.31-.3-.19-.49-.76-.61-1.38-.67.49-.19.84-.53 1.33-.72a1.54 1.54 0 0 0 .52 1.49c.53-.74-.07-2.6.44-3.34zm-3.5-2.77c-.46.44-1.05.76-1.49 1.23.36-.34.79-1.06 1.49-1.23zm-1.88.65c.06-.09.29-.57.6-.55a3.14 3.14 0 0 1-.6.55zm-.89-.24c.36.09.21-.34.57-.26a6.31 6.31 0 0 1-.52.62c-.11-.02-.02-.26-.05-.36zm.2.97c.15.08.22.5.47.31 0 .12-.26.39-.47.46 0-.29-.2-.57 0-.77zm.36 1C5.37 6 6.43 5.22 7.45 4.37a7.93 7.93 0 0 1 .87-.06c-.74.43-1.48.92-2.21 1.39A24.33 24.33 0 0 1 4 7c-.08-.31.18 0 .31-.17zm-.15 1c-.17-.23.27-.28.36-.41.03.14-.37.23-.41.42zm0 .46c.07-.2.32-.23.51-.31-.24.13-.45.39-.61.32zm3.8.92a5.67 5.67 0 0 1-2.83 1.08c1.31-.74 2.71-1.4 4-2.21.28.47-.83.88-1.27 1.14zM8.06 8C7 8.61 5.7 9.43 4.83 10c-.12.15-.06.49-.41.41s-.14-.45-.16-.72C5.79 8.76 7.53 8 9 7c.5.53-.55.8-.94 1zm1.08-1.63a25.34 25.34 0 0 0-4.88 3c-.09-.17 0-.47-.1-.67A51.74 51.74 0 0 0 9 5.91c.25-.02.1.32.14.46zM8.53 5C7.76 5.42 7 6 6.16 6.37c.72-.48 2.14-1.42 3-1.9.09.39-.41.45-.63.53z" fill="#c988ae" fill-rule="evenodd" data-color="1"/>
            <path d="M43 11.86a63.49 63.49 0 0 0-6.11-1.95A70.26 70.26 0 0 0 28.09 8 1.14 1.14 0 0 1 28 6.83c-.34-.21-.27-.82-.67-1s-.41.07-.66.06c-.19-1.29-1.73-.4-2.62-.06-.7.28-1.3.62-1.85.88-3.63 1.72-7.31 4-10.48 5.6-.17-.67.1-1.78-.15-2.37 0-.18-.44 0-.46-.2-.14-.61.32-.63.56-.87v-2c-.06-.28-.53-.15-.62-.41s-.05-.56.06-.72.44.12.61 0 .07-.93.05-1.33c0-1.09.17-3.34-.31-3.5s-.43.4-.82.26c0-.33.21-.68.11-1A17 17 0 0 0 8.06.05c-.15.16 0 .57-.15.77a.76.76 0 0 1-.72.1c-.09-.28 0-.75-.26-.87A3.49 3.49 0 0 1 5.34 0c-.3.06-.15.56-.41.67C4.16.9 3.81.38 3.13.36c-.29.14-.34.51-.56.72a2.5 2.5 0 0 0-1.29.26 2.58 2.58 0 0 0-.05 1.33c.18.31.82.14.82.62-.24.24-.64.35-.87.61a15.41 15.41 0 0 0 .05 1.95c.24.16.73.07.72.47s-.47.28-.61.51a2.61 2.61 0 0 0 0 1.17c.09.26.59.13.71.36 0 .89-1.11.74-.77 2 .14.36.53.26.62.57.17.59-.74 1.06-.51 1.85.39.29.61.76 1.28.77.35-.08.12-.74.41-.87.56-.08.23.72.57.87s.67 0 1 0 .25.3.62.2.15-.73.41-.92c.57-.15.51.55.87.67s.83-.24 1.34 0c.32-.28.08-.76.51-.82s.41.43.67.77c.17.12.61 0 .77.1A90.21 90.21 0 0 0 0 20.18a7.4 7.4 0 0 0 .87 2.93C3 27.94 6.54 31.24 10 34.51c.09.14.12.33.21.47a1 1 0 0 1 .62.1 17.35 17.35 0 0 1 4-1.8A34.14 34.14 0 0 0 18 31.59c1.57-.87 3.18-1.68 4.83-2.57.5-.27 1.27-.87 1.64-.87a4.14 4.14 0 0 1 1.39.66 32.9 32.9 0 0 0 4.26 2 23.79 23.79 0 0 0 6.32 2c.16-.17.38-.3.56-.46 1.85-6.76 4.64-12.59 7-18.85 1.24-.61-.08-1.31-1-1.64zM27.12 8.48h.05c.33.07.41.48.56.77s.6.75.57 1.28a8.42 8.42 0 0 1 1.39 2.26c1 1.83 2.52 3.59 3.33 5.45a22.39 22.39 0 0 0-2.15-2.78 10 10 0 0 0-2.31-2.57 2.86 2.86 0 0 0 .77 1.44c.92 1.31 2.05 2.67 3 3.85-2.31.35-4.31-.5-6.48-.61-1.67-.09-3.63 0-5.39.05 2.05-3.17 4.59-5.92 6.66-9.14zm3.18 3.18c.1-.07.34.14.52.15a1.53 1.53 0 0 1-.11.41c-.19-.13-.23-.41-.41-.56zm1 .46a.23.23 0 0 0 .15.05c-.09.27-.21.51-.3.77-.08-.23.12-.59.18-.82zm.41 1.64c-.34-.31.12-.91.16-1.33.16 0 .17.14.35.1a7.55 7.55 0 0 1-.48 1.23zm1-1c.14 0 .13.07.25.05-.32.48-.42 1.19-.82 1.59.15-.56.44-1.01.58-1.61zm.56.2c.13 0 .16.09.26.11-.16.42-.38.78-.52 1.23-.01-.3.32-.76.27-1.3zm-23.56-.12c-.39-.15-.41-.65-.83-.77a1.29 1.29 0 0 0-1.48.67c-.13 0-.38-.07-.41 0-.37-.7-2-.93-2.11.15h-.72c0-1-1.7-1.3-1.8-.2-.55-.49.52-1.25.26-2.06-.11-.33-.43-.41-.67-.72-.1-.46.51-.5.67-.87A1.09 1.09 0 0 0 2 7.5c-.05-.56.54-.49.67-.87a1.2 1.2 0 0 0-.77-1.34V4.21a1 1 0 0 0 0-2V2c.52-.39 1.59-.06 1.59-1 .51.24 1.51.6 2.06.13.13-.12.13-.5.25-.57s.41.18.67.06c-.23 1.51 2.35 1.31 2.21 0A6.59 6.59 0 0 1 10 .67 1 1 0 0 0 11 2c0 1.09.13 2 .21 3-.18.26-.53.21-.67.57a1.36 1.36 0 0 0 .56 1.69c-.07.46.1.76 0 1.13s-.76.71-.51 1.6c.07.24.25.32.51.46A10.15 10.15 0 0 0 11 12a.91.91 0 0 0-1.29.84zm-8.12 9.25c-.5-.17-.52-1.17-1-1.49A56.69 56.69 0 0 0 6.47 17c3.87-2.45 7.83-4.7 12-6.93a60 60 0 0 1 6.42-3c-5.21 2.55-10.31 5.6-15.39 8.49A15.38 15.38 0 0 0 4.93 19a15.8 15.8 0 0 0 2.47-1.69c.81-.56 1.64-1.1 2.51-1.59 4.74-2.72 9.47-5.54 14.64-8A15.56 15.56 0 0 0 26 6.93c.23.31.41.66.62 1-2.5 3.52-5.58 6.45-8 10-1.43.16-2.82.74-4.36 1-3 .44-5.23 1.68-8.22 2.36l-2.21.47a7.5 7.5 0 0 1-2.24.33zm8.22 10.37c-2.88-2.84-5.81-5.61-7.76-9.4 4.77-.92 9.15-2.22 13.92-3.13.51.14-.19 1.12-.41 1.49-1.65 2.83-3.18 5.58-4.67 8.58a11.75 11.75 0 0 0-1.08 2.46zm13.82-5.19c-4.05 2.22-8.35 4.59-12.48 6.63a20.16 20.16 0 0 1 .56-3.39c.15-.45.47-.87.67-1.34 1.32-3.13 3.16-6 4.67-9 1.05.06 1.6.12 2.26-.35s.76-1.35 1.29-1.34a46.92 46.92 0 0 1 6.4.22c1 .16 1.87.39 2.82.46a26.24 26.24 0 0 0 3.6.2 5.75 5.75 0 0 1 1.18 1.49 79.23 79.23 0 0 0-8.32 4.93 1.21 1.21 0 0 1-.52 0 5.75 5.75 0 0 1-2.13 1.49zM34.1 13.35c.21.18-.25.56-.25.88a2.07 2.07 0 0 1 .25-.88zm.62.26c.15 0 .13.07.26.05a3.93 3.93 0 0 0-.41.82c-.09-.23.17-.54.15-.87zM30.3 27.17a.44.44 0 0 1-.31-.05c.05-.09.19-.09.21-.21a.25.25 0 0 1 .1.26zm12.38-12.58A141.77 141.77 0 0 0 36 32.15c-1.81-.62-3.46-1.61-5.23-2.36s-3.7-1.27-5.5-2.11c.42-.35 1-.55 1.44-.87 1.48.45 2.77 1.38 4.47 1.44.67 1.07 1.12-.43 1.38-1.08.66-1.61 1.36-3.51 1.95-4.88a16.57 16.57 0 0 0 2.37-1.49c.21-.15.63-.27.61-.62-.39-.34-1.15.38-1.69.21-.3-.5.17-1 .36-1.54.4-1.08.65-2.12 1.13-3.24.18-.42.65-1.14.56-1.59s-1.31-.86-1.9-1.08c-2.17-.82-4.25-1.77-6.42-2.51a15.21 15.21 0 0 0-1-1.54v-.06a64.76 64.76 0 0 1 7.47 1.8 33.05 33.05 0 0 1 6.58 2.67c-1.12 2.89-2.47 5.55-3.39 8.63 1.37-2.49 2.4-5.81 3.8-8.47a1.92 1.92 0 0 1-.31 1.13zm-7.29-.72c.15 0 .15.09.31.05-.1.29-.34.45-.42.77-.06 0-.05-.1 0-.1-.03-.31.16-.4.11-.72zm.67.25c.16 0 .2.08.3.11-.07.11-.25.12-.25.31-.11-.04-.02-.29-.05-.42zm.56.26c.16 0 .23.11.36.16 0 .1-.29 0-.31.15s-.02-.22-.05-.31z" fill="#c988ae" fill-rule="evenodd" data-color="1"/>
        </g>
    </g>
</svg>
