<?xml version="1.0" encoding="UTF-8"?>
<svg data-bbox="0.045 -0.032 90.005 103.36" viewBox="0 0 90.07 103.26" xmlns="http://www.w3.org/2000/svg" data-type="color">
    <g>
        <g>
            <path d="M36.26 57.47c.38-.17.22-1.17 0-1.4-.26.23-.17 1.14 0 1.4z" fill="#c988ae" data-color="1"/>
            <path d="M36.33 60c.39-.21.29-1.65.07-2-.4.27 0 1.32-.07 2z" fill="#c988ae" data-color="1"/>
            <path d="M37.58 53.94c-.47-.07-.31.86-.22 1.1.38-.04.17-.71.22-1.1z" fill="#c988ae" data-color="1"/>
            <path d="M37.43 53.35c.2 0 .26-.81 0-.81s-.28.8 0 .81z" fill="#c988ae" data-color="1"/>
            <path d="M36.11 55.55c.34-.09.19-.69.22-1.1-.59-.06-.26.75-.22 1.1z" fill="#c988ae" data-color="1"/>
            <path d="M35.3 57.91a1.33 1.33 0 0 0-.07-1.4 1.31 1.31 0 0 0 .07 1.4z" fill="#c988ae" data-color="1"/>
            <path d="M35.45 60c.09-.39.18-1.35-.08-1.62-.37.27-.07 1.28.08 1.62z" fill="#c988ae" data-color="1"/>
            <path d="M36.18 51.88c-.26 0-.3.67-.14.88.26-.03.3-.67.14-.88z" fill="#c988ae" data-color="1"/>
            <path d="M36 53.94c.42.09.34-.69.22-.88-.33.07-.22.51-.22.88z" fill="#c988ae" data-color="1"/>
            <path d="M37.36 57c.47 0 .37-1.23.15-1.4-.3.17-.09.9-.15 1.4z" fill="#c988ae" data-color="1"/>
            <path d="M40.15 70a1.31 1.31 0 0 0-1.17.81 3.6 3.6 0 0 0 1.17-.81z" fill="#c988ae" data-color="1"/>
            <path d="M38.53 79.15A8.05 8.05 0 0 0 40.81 78c-.06-.27-.29-.05-.51-.07 0-.15.4-.28.22-.37-1.59 1.2-4 1.64-5.44 2.94a22.39 22.39 0 0 0 3.45-1.35z" fill="#c988ae" data-color="1"/>
            <path d="M33.54 80a5.36 5.36 0 0 0 2.79-.88 7.65 7.65 0 0 0-2.79.88z" fill="#c988ae" data-color="1"/>
            <path d="M39.86 71.87a1.78 1.78 0 0 0 1.47-.87 3.11 3.11 0 0 0-1.47.87z" fill="#c988ae" data-color="1"/>
            <path d="M37.65 60c-.25.25-.21 1.3.08 1.47a5.75 5.75 0 0 0-.08-1.47z" fill="#c988ae" data-color="1"/>
            <path d="M34.93 55c.09.3 0 .77.15 1 .35-.09.19-.69.22-1.1-.21-.07-.19.1-.37.1z" fill="#c988ae" data-color="1"/>
            <path d="M37.58 59.52a3 3 0 0 0 0-2.05c-.26.18-.23 1.66 0 2.05z" fill="#c988ae" data-color="1"/>
            <path d="M37.58 51.29h-.22a1.12 1.12 0 0 0 0 .88c.29-.07.22-.51.22-.88z" fill="#c988ae" data-color="1"/>
            <path d="M36.26 77.9a14.57 14.57 0 0 0-3.83 1.61 9.67 9.67 0 0 0 3.16-.88 9.26 9.26 0 0 0 2.43-1c-.53-.24-1.11.07-1.76.27z" fill="#c988ae" data-color="1"/>
            <path d="M31 41.3a.53.53 0 0 0 .29-.44c-.06 0-.08-.07-.07-.15-.68-.42-.97.6-.22.59z" fill="#c988ae" data-color="1"/>
            <path d="M62.13 42.25A.54.54 0 0 0 63 42c-.12-.5-1-.41-.87.25z" fill="#c988ae" data-color="1"/>
            <path d="M61.25 42.47c0-.08.08-.11.14-.14.06-1.44-1.53.13-.14.14z" fill="#c988ae" data-color="1"/>
            <path d="M35 53.57c-.28.14-.14.78 0 1 .27-.11.38-.95 0-1z" fill="#c988ae" data-color="1"/>
            <path d="M66.1 43.21c.1-.1.07-.32.07-.52-.7-.57-1.02.64-.07.52z" fill="#c988ae" data-color="1"/>
            <path d="M42.06 70.25c-.26 0-.44 0-.51.22.16-.08.45-.01.51-.22z" fill="#c988ae" data-color="1"/>
            <path d="M29.13 41.08c0-.14.21-.14.14-.37a.44.44 0 0 0-.51 0c-.01.29.24.29.37.37z" fill="#c988ae" data-color="1"/>
            <path d="M51.76 38.58c.09-.19.45-.09.37-.44-.37 0-.15-.2-.07-.3-.4-.09-.62.57-.3.74z" fill="#c988ae" data-color="1"/>
            <path d="M41.77 48.43a40.25 40.25 0 0 0 5 .22 83.75 83.75 0 0 0 10-.89c1.65-.27 3-.76 4.34-1.1 1.07-.26 2.38-.32 3.45-.66A25.11 25.11 0 0 0 68 44.38c1-.55 2.61-1.33 2.49-2.64-.09-1.09-2.32-2-3.3-2.35a38.07 38.07 0 0 0-6.54-1.55 63.14 63.14 0 0 0-7.2-.84c-3.83-.18-8-.46-11.53-.44a39 39 0 0 0-4.05 0c-1.93.27-4.5 0-6.69.29-1.18.14-2.65.47-4.18.81s-2.79.56-4.12.88a23.17 23.17 0 0 0-3.6 1.4c-1.13.49-2.82 1-3 2-.24 1.17.69 2.1 1.1 2.87a6.66 6.66 0 0 1 2.64.74 73 73 0 0 0 15 2.64c2.18.12 4.46.05 6.75.24zm.73-2.65c-.46 0-1.1.19-1.32-.22 2.89-.36 7.31-.63 9.63.44-2.23.16-5.71-.1-8.31-.22zm24.5-1.4c-.12-.15-.16-.38-.37-.44-.37 0-.37.27-.66.3a2 2 0 0 0-.74-.52c.41-.74-.84-1.12-1-.44a3.1 3.1 0 0 0-1.37-.28c-.21.06 0 .23 0 .36-.24-.19-.33-.54-.73-.58s-.44.29-.67.44c-1-.11-2.1-1.54-3-.59-.31-.11-.71-.12-.59-.66-.14.55-1.62.81-1.76.07a1 1 0 0 1 .22-.59c-.07-.17-.34-.15-.59-.14.1-.12.26-.18.22-.44s-.45-.19-.44-.52c3 .3 6.19.42 8.53 1.4-.66.89.93 1.28 1.1.44A3.53 3.53 0 0 1 67.64 44a2.33 2.33 0 0 0-.64.38zm-10.31-1.61v.36c-.16 0-.21.19-.44.15-.41-.28.08-.94.44-.51zm-1.4.44c.34 0 .51.13.52.44-.18.17-.45 0-.59-.08a.44.44 0 0 1 .07-.36zm-.22-.59a.33.33 0 0 1 .52-.37v.37a.49.49 0 0 1-.52 0zm.29-1c.19-.17.65-.21.67.15s-.72.34-.67-.11zm6.91-2.72c2.85.58 5.79 1.15 7.43 2.8-.12.72-.68 1-1 1.54-.13-.16-.08-.51-.22-.66-4.63-3-12.45-2.84-19.26-3.68.17-.59.67-.84.89-1.39a75.82 75.82 0 0 1 12.16 1.43zm-8.37 2.5a.51.51 0 0 1-.45-.29 3.65 3.65 0 0 1 .45-.74c.23 0 .19.2.36.22v-.36c.28-.06.35.09.59.07a.55.55 0 0 0 .07.81c-.28-.01-.84-.06-1.02.33zm.22 1.77c-.11.39-.26.72-.74.73-.28-.46.29-.68.74-.69zm-4.42-5.62c-.27.43-.8.62-.73 1.39-.33.05-.46-.13-.81-.07.07-.5.48-.65.59-1.1-.43-.28-.91.52-1 1h-.44a4.74 4.74 0 0 1 .69-1.3c.66-.05 1.12.08 1.7.08zm-2.2-.15a5.53 5.53 0 0 0-.88 1.32c-.26-.42.38-1.2.88-1.32zm-1.76 1.25a.5.5 0 0 1-.37-.07c.15-.32.38-.55.51-.89.12.2-.29.49-.14.96zm-.15-1.32c-.16.26-.42.41-.51.73-.4-.19-.01-.8.51-.73zm-1 0c-.23.36-.66.52-.59 1.17h-.29c.16-.5.29-1.1.85-1.17zm-1-.08c.16.24-.31.35-.3.67-.2-.1-.19-.4-.22-.67zm-1.69 0h.58c0 .3-.28.47-.14.74s.48-.13.44.29-.78 0-1.11.08c-.02-.49.45-.69.25-1.11zm-1.18 0c.27.15-.09.88-.22 1.11-.19-.36.34-.61.24-1.11zm-1 0c0 .23-.16.33-.22.52-.11-.13.05-.55.28-.52zm-1.1 0h.44c-.27.27 0 1.09-.59 1 .06-.37.24-.58.21-1zm-.73.08h.36c0 .34-.21.52-.14 1h-.31c.14-.27-.01-.79.2-1zm-.89.36c.16.07 0 .42.22.45-.05.16-.41 0-.58.07.07-.28.36-.29.42-.52zm-.14-.29c-.15.43-.51 0-.88.07-.06-.14.7-.04.94-.07zm-1.62.66c.05 0 .35-.17.37 0s-.42.23-.31 0zm-.73-.51a1.19 1.19 0 0 1-.74.14c.1-.25.54-.1.8-.14zm0 .73h-.61c.1-.1.65-.28.67 0zM33 37.77c.07.22-.54.36-.51.07.11-.1.34-.07.51-.07zm-7.94 1a15.52 15.52 0 0 1-5.14 1.61 20.25 20.25 0 0 1 5.16-1.58zM22 43.21c-.28-.16-.81-.08-1-.37a2.24 2.24 0 0 1 1 0c.1.16-.06.16 0 .37zm.81-1.55c-.27.05-.54.27-.81.3s-.8-.17-1.18-.08-.76.62-1 1c-.56.15-1.36.06-1.32.81a2.51 2.51 0 0 1-.73-1.1c2.3-2 6.12-1.9 9.62-2.35 1.19-.16 2.43-.55 3.6-.59.3 0 0 .1.08.29.41-.25 1.26-.06 1.76-.22.2-.06-.13-.26.07-.36 7-.37 13.42.38 20 .8-.56.49-2.12.37-2.8 1a12.17 12.17 0 0 1-2.86-.22c.64-1-1.1-1.36-1-.22-2.24-.17-5.4-.46-6.91.44a8.36 8.36 0 0 0-4-1.4 27.87 27.87 0 0 1-2.8.74c-.17.14-.1.53-.22.73a8.24 8.24 0 0 1-3.45.74c-.25 0-.41-.23-.66-.3a18.38 18.38 0 0 0-5.39-.01zm30.28 1.4c-.08.32-.84.82-1 .22a1.1 1.1 0 0 1 1-.22zM49 42.91a1 1 0 0 1 .89-.51c-.06.29-.29.39-.52.51.3.06.73-.39 1.25-.36a2.33 2.33 0 0 1-1.69.8c0-.23.19-.2.29-.29a.51.51 0 0 0-.22-.15zm2.58-.07c-.4.27-.88.75-1.4.66a.13.13 0 0 0-.07-.15c.19-.46 1.07-.57 1.51-.51zm-3.75-1.25c-.09.33-2.11-.14-1.62-.15.25 0 1.18.09 1.66.15zM38 43.21c-.05-.2.35 0 .29-.15.88.07.83.19-.29.15zm-11.17 2c.75-.44 2.54-1.24 3.45-.37-1.13.02-2.55.52-3.43.35zm5.22.81c-.08-.1-.12-.22-.22-.29a1.17 1.17 0 0 1 1-1.11 1.35 1.35 0 0 1-.76 1.38zm.73-4a.87.87 0 0 1-.59-.15c0-.34.21-.48.59-.44a.42.42 0 0 1 .02.57zm1-.37c-.32-.1-.61-.23-.59-.66.34-.19.92-.06.88.37a2 2 0 0 1-.31.23zm9.4 2.28c.22 0 .19.14.1.25a.77.77 0 0 1 .35-.25 13.09 13.09 0 0 1 3.23.07A142.64 142.64 0 0 1 61 45.63c0 .34-.54 0-.73.08.15.18.61.08.59.44-2-.23-4.05-.62-6.4-.88-2.63-.31-5.35-.61-8.23-.74-3.83-.17-7.81 0-11.68-.22a56.63 56.63 0 0 1 8.61-.44z" fill="#c988ae" data-color="1"/>
            <path d="M22.07 70.62c.29.37.92.41 1.18.81.01-.59-.75-1.58-1.18-.81z" fill="#c988ae" data-color="1"/>
            <path d="M57.5 41.22c.08 0 .11.08.14.15.33 0 .5-.09.52-.37-.07-.44-.8-.33-.66.22z" fill="#c988ae" data-color="1"/>
            <path d="M30.3 78.19a12.91 12.91 0 0 0 4-2c-.09 0-.1-.1-.22-.08-1.3.64-2.89 1.01-3.78 2.08z" fill="#c988ae" data-color="1"/>
            <path d="M32.36 78.19c-.36.12-.88.09-1.1.44 1 .25 1.95-.32 2.86-.66a5.21 5.21 0 0 0 2-.88c-.77-.2-1.74.33-2.65.66-.39.14-.74.32-1.11.44z" fill="#c988ae" data-color="1"/>
            <path d="m31.26 64.15-1.69-.29a15.25 15.25 0 0 0-3.24-.51c1.87.7 4.4.74 6.32 1.39-.16-.52-.9-.49-1.39-.59z" fill="#c988ae" data-color="1"/>
            <path d="M35.15 52.61c-.39 0-.38.3-.36.67.35 0 .41-.28.36-.67z" fill="#c988ae" data-color="1"/>
            <path d="M19 48.5c-.14 0-.16-.08-.29-.07a2.78 2.78 0 0 0 .2 1.57 5.78 5.78 0 0 0 .09-1.5z" fill="#c988ae" data-color="1"/>
            <path d="M17.37 48.2c.09.53 0 1.22.37 1.47a6.8 6.8 0 0 0 .07-1.39c-.17 0-.22-.13-.44-.08z" fill="#c988ae" data-color="1"/>
            <path d="M19.87 49.82a3 3 0 0 0 .13-1.17 1.12 1.12 0 0 0-.51-.08c.09.43.01 1.08.38 1.25z" fill="#c988ae" data-color="1"/>
            <path d="M20.75 48.72c.16.38.1 1 .37 1.25.14-.33.09-.84.22-1.18-.11-.11-.34-.06-.59-.07z" fill="#c988ae" data-color="1"/>
            <path d="M43.31 55.77c-.07.2-.45.1-.44.37.18-.04.57-.25.44-.37z" fill="#c988ae" data-color="1"/>
            <path d="M53.45 70.18a.59.59 0 0 1-.44.15c-.53.84-1.72 1-2.28 1.83 1.31-.23 1.78-1.31 2.8-1.83.01-.1.11-.15-.08-.15z" fill="#c988ae" data-color="1"/>
            <path d="M50.88 74.22c.39-.31 1.38-.77 1.47-.88-.51.23-1.35.54-1.47.88z" fill="#c988ae" data-color="1"/>
            <path d="M54.12 76.13a1.68 1.68 0 0 0-1.11.59 2 2 0 0 0 1.11-.59z" fill="#c988ae" data-color="1"/>
            <path d="M50.81 75.62a4.27 4.27 0 0 0 2.28-1.47c-.73.52-1.8.7-2.28 1.47z" fill="#c988ae" data-color="1"/>
            <path d="M49.78 78a2.55 2.55 0 0 0 1.22-.69 1.61 1.61 0 0 0-1.22.69z" fill="#c988ae" data-color="1"/>
            <path d="M44.05 78.49c.34-.08.71-.12.88-.37-.45-.03-.75.09-.88.37z" fill="#c988ae" data-color="1"/>
            <path d="M44.63 72.53c.26-.07.67-.36.59-.51-.13.23-.45.28-.59.51z" fill="#c988ae" data-color="1"/>
            <path d="M49.56 71.58a7 7 0 0 0-2.28 1.69 4.76 4.76 0 0 0 2.28-1.69z" fill="#c988ae" data-color="1"/>
            <path d="M42.65 74c.4.11.75-.23.66-.37-.19.15-.57.12-.66.37z" fill="#c988ae" data-color="1"/>
            <path d="M54.56 72.24c.34-.27 1.25-.37 1.17-.81-.33.28-1.09.57-1.17.81z" fill="#c988ae" data-color="1"/>
            <path d="M61 74.66c.62-.31 1.56-.68 1.55-1.39a21.42 21.42 0 0 1-2 1.39c.14.06.38-.35.45 0z" fill="#c988ae" data-color="1"/>
            <path d="M57.28 70.62c-.42 0-.54.39-.67.74a.82.82 0 0 0 .67-.74z" fill="#c988ae" data-color="1"/>
            <path d="M52.72 76.65a4.07 4.07 0 0 0-1 .37 1.82 1.82 0 0 0 1-.37z" fill="#c988ae" data-color="1"/>
            <path d="M40.89 85.61a.64.64 0 0 0-.44-.14c-.12.27.55.39.44.14z" fill="#c988ae" data-color="1"/>
            <path d="M60.14 74.81a1.58 1.58 0 0 0-.88 1c.36-.25.93-.63.88-1z" fill="#c988ae" data-color="1"/>
            <path d="M55 69.89a.42.42 0 0 0-.52.51c.17-.17.52-.19.52-.51z" fill="#c988ae" data-color="1"/>
            <path d="M56.1 69.89c-.32.24-.68.44-.81.88a.82.82 0 0 0 .81-.88z" fill="#c988ae" data-color="1"/>
            <path d="M56.54 72.46c-.61.25-.87.85-1.47 1.1-.17-.35-.46.15-.66.22 0-.11.11-.18.15-.29-.47 0-.63.4-.74.81.91-.62 2.29-.76 2.72-1.84z" fill="#c988ae" data-color="1"/>
            <path d="M46.69 76.28c-.2.26-.72.21-.88.51.48.1 1.13-.36.88-.51z" fill="#c988ae" data-color="1"/>
            <path d="M29.05 77.31a5.12 5.12 0 0 0 3.16-1.4 6.28 6.28 0 0 0-3.16 1.4z" fill="#c988ae" data-color="1"/>
            <path d="M38.61 55.11c-.4.17-.15 1-.22 1.47.61.12.42-1.27.22-1.47z" fill="#c988ae" data-color="1"/>
            <path d="M39.71 56.73c0 2.58.18 5.45.29 7.72.4-.21.22-.81.23-1.18 0-1.93 0-4-.08-5.73.08-.28-.27-.12-.22-.37a3.62 3.62 0 0 0-.07-2.57c-.46.33-.21 1.61.14 1.84 0 .23-.36.02-.29.29z" fill="#c988ae" data-color="1"/>
            <path d="M38.53 59.52a14.62 14.62 0 0 0 .37 5.07 34.82 34.82 0 0 0-.15-5.21c-.01.1-.16.08-.22.14z" fill="#c988ae" data-color="1"/>
            <path d="M39.64 54.23c.64.08.27-.86.36-1.32-.61-.05-.28.84-.36 1.32z" fill="#c988ae" data-color="1"/>
            <path d="M38.61 52c-.28 0-.29.73-.15.95.34.05.45-.81.15-.95z" fill="#c988ae" data-color="1"/>
            <path d="M38.61 57c-.39.33-.27 1.76-.08 2.21.47-.21.36-1.82.08-2.21z" fill="#c988ae" data-color="1"/>
            <path d="M38.53 54.6c.39 0 .23-1 .15-1.18a.33.33 0 0 1-.29.15c.08.31-.18.96.14 1.03z" fill="#c988ae" data-color="1"/>
            <path d="M29.42 75c-.36-.18-.9 0-1 .37.35.15 1.16.23 1-.37z" fill="#c988ae" data-color="1"/>
            <path d="M41.84 56.51c-.11.11-.57.25-.29.51.11-.11.57-.25.29-.51z" fill="#c988ae" data-color="1"/>
            <path d="M44.12 54.67a1.83 1.83 0 0 0-.15-1c-.06.13-.25.13-.36.22.16.2 0 .76.14 1 .07-.13.25-.13.37-.22z" fill="#c988ae" data-color="1"/>
            <path d="M41.47 55v1.1c.64.15.65-1.76 0-1.1z" fill="#c988ae" data-color="1"/>
            <path d="M43.46 70.55c-.47-.23-.8.26-1 .51.4-.06.82-.17 1-.51z" fill="#c988ae" data-color="1"/>
            <path d="M44.27 71.21a1.81 1.81 0 0 0 1-.52 1.91 1.91 0 0 0-1 .52z" fill="#c988ae" data-color="1"/>
            <path d="M47 69.37c1.51-1.23 3.24-2.33 4.7-3.53-.1 0-.12-.12-.22-.14a73.74 73.74 0 0 0-6 4.55c.62.2 1.07-.52 1.52-.88z" fill="#c988ae" data-color="1"/>
            <path d="M44.41 76.28a1 1 0 0 0-1 .44c.59.1.75-.2 1-.44z" fill="#c988ae" data-color="1"/>
            <path d="M43.39 54.08c-.27 0-.29.16-.52.15v1c.23 0 .33-.16.52-.22z" fill="#c988ae" data-color="1"/>
            <path d="M25.53 48.13a10.39 10.39 0 0 1-1-.22c0 .23-.17.32-.15.59.42-.06.63.11 1 .07a1.75 1.75 0 0 0 .15-.44z" fill="#c988ae" data-color="1"/>
            <path d="M50.15 68.2c.37-.28 1-.45 1-1a34.06 34.06 0 0 0-4.77 3.6 18.94 18.94 0 0 0 3.77-2.6z" fill="#c988ae" data-color="1"/>
            <path d="M45.22 53.13a.31.31 0 0 1-.29.15v.95c.5.09.41-.8.29-1.1z" fill="#c988ae" data-color="1"/>
            <path d="M51.17 37.77a.81.81 0 0 0-.73 1.17 1.56 1.56 0 0 0 .73-1.17z" fill="#c988ae" data-color="1"/>
            <path d="M58.52 97.23c-4.43-.77-8.72-2.06-12.71-3 2 .69 4.07 1.24 6.17 1.77a28.25 28.25 0 0 0 6.54 1.23z" fill="#c988ae" data-color="1"/>
            <path d="M82.93 83.78c.41.45 1.41.3 2.13.44a2.86 2.86 0 0 0-2.13-.44z" fill="#c988ae" data-color="1"/>
            <path d="M78.81 80.54c-.31-.42-1.12-.35-1.84-.36.18.63 1.36.2 1.84.36z" fill="#c988ae" data-color="1"/>
            <path d="M81.67 82.67a8.14 8.14 0 0 0 2.5.59c-.42-.68-1.45-.75-2.42-.88.02.14-.08.16-.08.29z" fill="#c988ae" data-color="1"/>
            <path d="M80.65 81.06c-.32.44-1 0-1.62.07.5.59 2.24.61 2.94.52a2.11 2.11 0 0 0-1.32-.3z" fill="#c988ae" data-color="1"/>
            <path d="M90.05 87.31a6 6 0 0 0-1-2.87 8.17 8.17 0 0 0-1.69-1.54c-.71-.5-1.37-1-1.92-1.4-4.93-3.44-12.93-4-20.35-4.85a14.54 14.54 0 0 1 3.3-1.18 36.57 36.57 0 0 0 6.18-2.94c1-.58 2-1 2.94-1.61a24.81 24.81 0 0 0 7.05-6.55 28.33 28.33 0 0 0 1.84-2.72 42.08 42.08 0 0 0 1.4-4 17.74 17.74 0 0 0 1-4.41c.36-4.49-1.66-9.07-5.44-9.63a11.47 11.47 0 0 0-4 .45c-.55.1-1.23.18-1.91.29a7.24 7.24 0 0 1-1.84.37c-1-.14-1-1.33-2.43-1.18-.07-.41 0-1 0-1.62a5.07 5.07 0 0 0-1.39-2c-.33-.22-.93-.37-1.33-.59A22.34 22.34 0 0 0 68 37.92a30.81 30.81 0 0 0-9.93-1.77c-2.34-.09-4.58-.69-6.83-.95a72.4 72.4 0 0 0-13-.22c-2 .12-4.1.31-6.1.51a55.9 55.9 0 0 0-6 .66c-1.36.3-2.83.77-4.19 1.18a20 20 0 0 0-2 .66c-.7.29-1.41.42-2.06.66-1 .38-3.29 1.68-3.6 2.57a8.9 8.9 0 0 0-.07 1.33c-.17 1.29 0 2.36-.08 3.67A49.48 49.48 0 0 0 15.53 61a31.46 31.46 0 0 0 2.79 6.62c.57 1 .85 2.21 1.47 3.23s1 2.09 1.62 3.09 1.55 1.35 2 2.28c-4.26.66-9.16.89-13.23 2.35S2.25 82.43.54 86.13a4.28 4.28 0 0 0-.44 1.1 8.54 8.54 0 0 0 1.17 5.37c.15.3.21.7.37 1 .62 1 2.5 1.88 3.89 2.72a32.44 32.44 0 0 0 4.41 2.21 50.2 50.2 0 0 0 10.59 2.72c3.77.61 7.64 1.26 11.61 1.61a186.7 186.7 0 0 0 19.26.37c2.2 0 4.36-.05 6.46-.15 8.52-.37 15.09-2.55 21.69-4.92a31.75 31.75 0 0 0 4.55-2.06c2.22-1.22 4.45-2.76 5.37-5.22a10.78 10.78 0 0 0 .58-3.57zM64.26 73.78a11.18 11.18 0 0 1 1.17-1.62c.01.65-.85 1.06-1.17 1.62zm-1.4 3.31A19.92 19.92 0 0 1 57.35 81c.18-.43.41-1.44 1.1-1.61 0 .23-.1.28-.14.44A2.83 2.83 0 0 0 59 79c2.39-1.16 3.89-3.21 5.59-5.07-.21.64-1 1.89-1.47 2.79a.47.47 0 0 1-.37.07c.03.14.13.21.11.3zm19.92 9.48c-.71.05-1.17-.16-1.84-.15a3.93 3.93 0 0 1-.22-.66c.66 0 1.26.11 2 .08.12.16.04.48.06.73zm-2.28-1.4c-.64-.25-1-1.15-2.13-.73.42.27 1.23.14 1.4.66-1-.11-2-.28-2.94-.44a3.05 3.05 0 0 1 1-.3c-.72-.13-1.94.46-2.93 0 1.2-.75 3.47-.09 5.21.08 1.12.11 2.12.15 2.5 1a9.75 9.75 0 0 1-2.11-.27zm-4.41 7.06c-.22.39-.83.39-1.17.66-2.84-.6-5.72-1.14-8.6-1.69a9.18 9.18 0 0 1 1-.44c3.01.37 5.77 1.04 8.77 1.47zm-8-1.69c.28-.21.94-.78 1.32-.74 2.53.29 6.14 1 8.82 1.33-.38.7-1.08.26-1.61.88-2.85-.5-5.62-1.01-8.54-1.47zm2 1.69c1.53.3 3 .51 4.34.81-1.41 1.17-4.05.31-6.1-.08-1.59-.3-3.08-.66-4.41-.88 1.61-1.17 3.84-.31 6.14.15zm3.75 2c-.07.18-.42.07-.51.22-.19-.13.23-.29.48-.24zm-1.62-.29a5.79 5.79 0 0 1-1.46.59c-2.94-.57-5.78-1.24-8.6-1.91.3-.24.83-.25 1.17-.45q4.29 1 8.86 1.75zm-2 .81c-1.53 1-4 0-5.88-.44l-4.49-1c.46-.26 1.13-.29 1.62-.52 2.81.64 5.7 1.33 8.67 1.94zm-6.4-.22c1.43.35 2.83.68 4.19.95-1.4.37-3.68-.32-5.29-.66s-2.93-.73-4.33-1c1.61-.61 3.49.24 5.35.69zm-2 .37c1.53.33 3 .71 4.48 1-1.83.81-4-.1-6-.59-1.46-.36-2.84-.78-4.19-1 1.6-.62 3.77.16 5.65.57zm2 1.39c-1.62.61-3.62-.33-5.43-.81-1.51-.39-3-.71-4.41-1 .35-.2 1.06-.06 1.46-.22 2.71.64 5.39 1.45 8.3 2.01zm6.32.15a17.31 17.31 0 0 0 3.83 1c-.75-.69-2.3-.59-3.31-1 1.71-.95 3.19.44 5.22.44a16 16 0 0 0-3.31-.89c.45-.43 1.34-.42 1.84-.8a10.27 10.27 0 0 0 3.45 1 50.47 50.47 0 0 1-11.39 3 8 8 0 0 1-1.84.22c-.68-.16-1.22-1.31-1.69-1.62 2.36-.45 4.89-.79 7.12-1.37zm4.19-2.35a3.87 3.87 0 0 1 2.21-.66 6.38 6.38 0 0 1-2.29.64zm2.14-.88a2.26 2.26 0 0 1 2.13-.59.3.3 0 0 0-.37-.3c.24-.37.74-.48.88-1a7.45 7.45 0 0 1 1.4.14c-1.29.69-2.31 1.92-4.12 1.73zm-8.75-7c.22-.22.67-.2 1-.29v.66c-.4.06-.6-.09-1-.07-.01-.13.03-.29-.08-.31zm1 .81a1.33 1.33 0 0 1 .15.81 2.81 2.81 0 0 1-1.47-.07c.17-.26.42-.42.37-.89.23.01.49.13.82.13zM66 84.51c1.15-.06 2.48.59 3.46.52-1.15.85-2.52-.03-3.46-.52zm-35.64.66a6.37 6.37 0 0 0 .29 1.25c.06.24.49.11.44.44a.29.29 0 0 0-.37 0c1.81 1.61 4.44 2.29 6.77 3.38 1.17.56 2.3.93 3.45 1.4a70 70 0 0 1-10.44-1.47c-.3 0-.19-.4-.44-.44a34.63 34.63 0 0 1-5.73-1.84c.53-2.35 3.9-2.24 6.05-2.72zm-6.32 1c-.11-.06.1-.42.29-.44.23.27-.23.27-.27.47zm.88-1.39a.8.8 0 0 0 .44-.22c.21.16-.1.43 0 .73a2.94 2.94 0 0 0-.59.37c-.15-.19.33-.4.17-.85zm1.54-.67c-.1.39-.06.92-.51 1-.07-.29.05-1.05.53-.97zm.37.59a3 3 0 0 0 .07-.88h.22c-.12.23.14.93-.27.91zm.88-1.17c.22.07 0 1-.07 1.1a3.47 3.47 0 0 1 .09-1.07zm.66-.15a4 4 0 0 1 1-.15c-.26.33-.14 1-.44 1.33-.36-.16.31-1-.07-1.18-.44.15-.19 1-.59 1.18.01-.43.18-.68.12-1.15zm1.32 1.18c0-.32.18-.47.15-.81a3.1 3.1 0 0 1 .3.81zm2.14-1c.25.8.42 1.68.66 2.5-1.56-.23-1-2.61-1.62-3.75a3.48 3.48 0 0 1 .66.36 5 5 0 0 0 .22 1.25c.18.02.06-.26.1-.36zm4.48.29c.32 0 .57.12.66.37.28.1.14-.2.37-.15s.13.14.29.29c2.29.49 5.05.49 7.5.81.78-.29 2 .17 3.09 0a29.08 29.08 0 0 1-.59 3.16c-.41-.74.45-2.22.07-2.94-.9.43-.39 2.25-.95 3-.45-.6.32-1.94-.08-2.5-.53 0-.4.77-.51 1.25-.38-.5.5-1.61-.22-1.77-.61.67-.35 2.21-.81 3-.3-.67.15-1.85.07-2.8-.89.12-.51 1.88-.73 2.8h-.44c.09-1 .19-1.91.29-2.87-.64 0-.46.8-.51 1.32a7.8 7.8 0 0 0-.15 1.55H43c-.06-.65.11-1.07.07-1.69.28 0 0 .46.44.29.17-.29 0-.9.08-1.32-.06-.17-.42 0-.59-.08a5.67 5.67 0 0 0-.3 1.84c-.27-.44-.15-1.27-.29-1.84h-.37a12.51 12.51 0 0 1-.14 2.06c0 .33-.12.5-.08.08-.18-.63 0-1.6-.29-2.14-.7.32.07 2.11-.15 2.72-.64-.31-.2-1.7-.51-2.35-.12 0-.28 0-.3-.07a10.41 10.41 0 0 0 .08 2.35c-.18 0-.28-.12-.52-.07-.35-.61.07-2-.59-2.28-.16.56.26 1.55.08 2.13-.79-.24 0-2.06-.89-2.2-.16.55.24 1.57.15 2-.79-.16-.4-1.5-.66-2.2-.21.06-.19-.11-.37-.08-.09.52.26 1.61.15 2.14-.61-.35-.33-1.58-.59-2.28-.21.06-.19-.11-.37-.08-.09.61.23 1.45.22 2.21-.94-.28-.22-2.23-1.1-2.57 0 .88.32 1.55.37 2.42-.81-.29-.51-1.69-.81-2.5-.21.06-.19-.1-.37-.07a16.94 16.94 0 0 0 .37 2.35c-.26 0-.35-.13-.59-.14a25.37 25.37 0 0 1-.58-3c0-.19 0-.26.22-.22a1.74 1.74 0 0 0-.67-.44 1.71 1.71 0 0 1 1.25.51c.28.11 0-.32.3-.22s.25.34.51.37-.08-.12.17-.15zm6.32 4.56h-.51a2.09 2.09 0 0 0 .07-.74c.1.33.5.33.46.74zm-4 2c0 .22-1.22-.45-1.55-.66h-.07c.22-.11 1.08.43 1.6.64zm-2.21-2.2a5.29 5.29 0 0 1-3.08-1 13.77 13.77 0 0 1 3.06.98zM34.2 83.7c.11 1 .39 2.31.44 3.16a10.22 10.22 0 0 1-.74-3.23c.1-.01.16.09.3.07zm-.15 2.94c-.63 0-.44-.85-.51-1.39a15.86 15.86 0 0 1-.3-1.69v-.22c.58.79.47 2.27.81 3.3zm-.59-.22c-.23 0-.24-.19-.51-.14-.3-1.1-.59-2.2-.81-3.38.39 0 .57.25.88.36.12 1.09.31 2.1.44 3.16zM38.31 90c2.59-.26 3.78 1.51 5.88 2-2.56.17-4.07-1.28-5.88-2zM41 90c1.66.5 2.85 1.47 4.41 2.06.11 0 0 .08-.07.07-.11-.16-.52 0-.74-.07-.97-.93-2.6-1.14-3.6-2.06zm3.53 1.18A9.3 9.3 0 0 1 42.28 90c1.67.57 2.95 1.52 4.63 2.06a5.67 5.67 0 0 1-2.42-.86zm-.81-1c2-.13 3 1.32 4.63 1.84-1.56-.28-3.07-1.27-4.67-1.78zm2 0c0-.07.09 0 .15-.07 1.75.46 3 1.4 4.78 1.84-2.11.43-3.29-1.25-4.99-1.71zm1.55 0c1.73.06 3 1.21 4.55 1.7-1.44-.35-3.18-1.04-4.61-1.64zm1.25-2.93c0-.35.15-1.1.22-1.77 0-.12.07-.13.07-.22H49a16.59 16.59 0 0 0-.44 2.35c-.09.47-.11-.11-.1-.3zm.3 2.75c2 .11 3.06 1.16 4.63 1.69-1.67-.05-3.2-1.05-4.63-1.69zm.37-1.91c.12-.69.28-1.34.37-2-.01.47.44 2.08-.37 2.02zM50.73 85a14.35 14.35 0 0 1-.58 3c-.15-.84.46-2.07.58-3zm-.07 5c1.61-.12 2.74.89 4 1.32-1.51-.01-2.6-1-4-1.32zm.22-2.13c-.22-.77.28-2.07.44-2.94.11 0 .21 0 .22-.07a13.12 13.12 0 0 1-.66 2.96zm1.25-3.16h.29c-.15.5-.23 1.08-.36 1.62a3 3 0 0 1-.52 1.39 29.7 29.7 0 0 1 .59-3.06zm.29 5c1.49-.29 2.34.56 3.53.81-1.27.39-2.59-.32-3.53-.86zm.89-2.28c.09-1.16.44-2.06.59-3.16.2-.06.3-.24.58-.22-.48.95-.54 2.44-1.17 3.33zm1.91-3.75c.12 0 .14.06.14.15a20.7 20.7 0 0 0-.8 2.72c-.08.25 0 .81-.44.73a12.35 12.35 0 0 1 1.1-3.65zm-2.72 3.9c-.23-.85.38-2.12.51-3.09.11 0 .21 0 .22-.08s.13 0 .15.08c-.38.9-.32 2.27-.88 3.04zm2.06 1.76c1.21-.12 2.14.64 3.3.81-1.06.42-2.42-.45-3.3-.86zm1.25-.37c0-.15.27-.07.29-.22a32.23 32.23 0 0 1 3.31 1.18 15.52 15.52 0 0 1-3.6-1.01zm.29-5.66c.09.14-.16.58-.22.81s.12-.71.22-.86zm.44 3a6.2 6.2 0 0 0 .3-1c.08-.1.04.94-.3.97zm.59 2.13c-.05-.07-.09-.13 0-.15 1.2.2 2.56.86 4 1.1-1.13.05-2.64-.8-4-.98zm.51-3.31a.31.31 0 0 0 .22.07c0 .27-.2.33-.29.52-.16-.13.09-.43.07-.62zm1-2.5h-.29a1.51 1.51 0 0 0 .14-.44c.12 0 .13.07.23.07.06.15-.11.13-.05.34zm-.15.44a.34.34 0 0 1-.36.37c.22.31.14 1-.3 1.1.1-.39.1-1.42.69-1.54zm2.65 5.59c-1-.38-2.33-.42-3.09-1 1 .34 2.17.55 3.12.97zm-.73 1.61c.72-.08 1.23-.38 1.91-.51a7.09 7.09 0 0 1-1.84.59c-.1-.01-.12-.1-.04-.11zm-1.81-3.11c0-.18.25-.14.22-.37 1.72.66 3.44 1.31 5.29 1.84-.33.33-.91 0-1.32-.15a37.51 37.51 0 0 0-4.19-1.32zm.15-1c.48-.17 1 .25 1.47.44 1.45.56 3.28 1.07 4.7 1.76-2-.78-4.42-1.48-6.17-2.23zm5.51 1.18c-1.61-.54-3.41-1.26-5.15-1.7a.19.19 0 0 1-.14-.22 21.63 21.63 0 0 1 7 2.28 3.16 3.16 0 0 1-1.71-.39zm-3.38-4.74c0 .15-.19.21-.15.44a3.94 3.94 0 0 1-1.1-.29c.29-.48.81.1 1.25-.15zm-.74-.73a.78.78 0 0 1 1-.22c-.21.22-.59.24-1 .22zm1.11 1.32c.12-.43.71-.4 1.17-.29a1.15 1.15 0 0 1-1.17.29zm1.91-1c.26-.3.63-.16 1.1-.14a.89.89 0 0 1-1.1.18zm1.39 1.33a.84.84 0 0 1-.73.07c.08-.3.5-.13.73-.03zm-1.25-.37c0 .36-.53.34-.8.22.19-.09.55-.37.8-.18zm2.28-.29a2.7 2.7 0 0 1 1.54-.45 2 2 0 0 1-1.54.49zm6.47 2.57a3.09 3.09 0 0 1-2.21.22 2.89 2.89 0 0 1 2.21-.18zm-2.94-1c.71-.52 1.67-.26 2.64-.15-.62.65-1.75.37-2.64.23zm6.25 1.55c-.94.53-2.22.12-3.31 0 .84-.61 2.24-.06 3.31.08zm-3.09-1a3.15 3.15 0 0 1 2.35-.15 3.65 3.65 0 0 1-2.35.17zm-.74-1.18a5 5 0 0 1 3.24-.22 4.72 4.72 0 0 1-3.24.27zm-2.86-.44a3.83 3.83 0 0 1 3.08-.22 4.77 4.77 0 0 1-3.08.27zm-1.33-.22a5 5 0 0 1 1.33-.44 5.77 5.77 0 0 1-1.33.49zm1.7.73a1.34 1.34 0 0 1-1.77-.07c.45-.27 1.12.2 1.73.12zm3.89 2.72c-.9.6-2.44.3-3.53.08a2.67 2.67 0 0 1-.22-.74c1.2.32 2.49.5 3.75.71zm-3.53.52c.35 0 .62.11 1 .15a2.64 2.64 0 0 1-1 .29zm10.29 1.62c.11.23-.16.64-.29.88-3.19-.61-6.52-1.13-9.92-1.61 3.2-1.13 6.66.71 10.21.78zm-6.17-1.4c.14-.25.7-.09.66-.52 1.94.32 3.94.57 5.88.89-.06.2-.08.45-.15.66-2.16-.27-4.32-.58-6.39-.98zm1.91-.81c.86-.52 2.06-.17 3.16 0 .56.09 1.41 0 1.54.52-1.36.31-3.13-.32-4.7-.47zm2.13-.66c0-.13.06-.14.15-.15a27.93 27.93 0 0 1-3.31-.37c1.64-.85 3.94.29 5.88.3.11.11.1.34.22.44-.66.33-1.93-.08-2.94-.17zm3.09 1.4c-.27.06-.11-.3-.15-.45.27-.02.1.34.15.5zm-.07.44a.79.79 0 0 1 0 .73c-.31.03-.02-.51 0-.68zm-3-4.12a2.67 2.67 0 0 1 2.79.37c-.92-.1-1.87-.21-2.81-.32zm-3-.51a4.28 4.28 0 0 1 3.05-.07 4.9 4.9 0 0 1-3.08.12zm-3.46-.52c.92-.78 2.45-.21 3.68-.07a6.21 6.21 0 0 1-3.71.12zm-1.32-.22c.57-.23 1.16-.65 1.84-.37a7.69 7.69 0 0 1-1.87.42zm-2-.22a2.89 2.89 0 0 1 2.57-.37 8.7 8.7 0 0 1-2.58.42zm-1.18-.37a1.51 1.51 0 0 1 1.4-.44 5.74 5.74 0 0 1-1.41.49zm-2.13-.07c.69-.32 1.43-.92 2.42-.52-.8.2-1.5.85-2.43.57zm-1.55-.15a4.77 4.77 0 0 1 2-.73 6 6 0 0 1-2.01.78zm-1.76-.22a1.75 1.75 0 0 1 2.13-.66c-.7.29-1.14.78-2.14.71zm.37-.73a4 4 0 0 0-1.54.73 1.44 1.44 0 0 1 1.69-.81c.3.05 0 .18-.16.13zm-5.15-1.4a25.4 25.4 0 0 1 1.18-2.94c-1.42.35-1 3.19-2.65 3.53a10.27 10.27 0 0 1 1.62-3.24c0-.23-.25-.19-.07-.36 1.09-.28 1.47-.95 2.2-1.47.31.23 1-.42 1.47-.59s1-.72 1.25-.81h.37c.38-.17.39-.38.74-.29.81-.56 1-1.7 1.61-2.5a6.94 6.94 0 0 1-1.18 2.94c.22.08.66-.23.74-.52 0 .22.21.11.37-.07s0 .33.22.22c-.08.36-.34.54-.52.81a.21.21 0 0 0 .22.15c-.22.33-.58.54-.8.88.06-.58.72-1.19 1-1.84-.71.22-1 .89-1.32 1.47-.07-.22.34-.59.44-.88-1.22.62-1.44 2.23-2.43 3.08a7.5 7.5 0 0 1 1-2C60.19 75 60 77.23 58.82 78a14 14 0 0 1 .88-2.13c-1.27.3-1 2.12-2 2.72a16.32 16.32 0 0 1 1.3-3.04c-1.43.34-1.22 3-2.61 3.67zm-4.49.83c.58-.58 1.34-1.38 1.91-2-.25 1.09-1.47 1.86-2.35 2.57-.15-.26.26-.43.44-.57zm-2.28.81c-.14-.17.28-.5.52-.73a17 17 0 0 1 2.2-2.21c.37-.22 1-.21 1.4-.44h.15c-.52.51-1 1.13-1.62 1.69-.79.68-1.28 1.55-2.65 1.64zm5.59-2.94c.09.52-.63 1.48-.88 2.13-.46.14-1 .21-1.4.37.42-.92 1.61-1.67 2.28-2.55zm-.81.08c-.08-.48.43-1 1-1.11-.09.31-.77.65-1 1.06zm5.44-6.76c.52-1.13 1-2.25 1.54-3.38.15.14.3.29.44.44-.58 1.01-.74 2.48-1.98 2.89zm1.47 0c.1.13-.3.38-.52.44.06-.31.43-.26.52-.49zM61.54 55c.29-.1.22.17.22.36a1 1 0 0 1 .81-.58c-.06.54.16 1 .14 1.54 0 .76-.49 1.17-.51 2s-.58 1.58-.59 2.43c-.34-1.09 0-2.21 0-3.23-.02-.89-.54-1.77-.07-2.52zm-.15-3c.33-.06 1-.52 1.18-.22-.13.33-.66.26-.81.58.07.29.37.07.59.08-.27.75-.18 1.87-.81 2.28-.35-.23-.06-.89.07-1.11a2.92 2.92 0 0 1-.22-1.61zm1.69-.59a1.22 1.22 0 0 1 .59-.07.36.36 0 0 0-.07.29c-.13.07-.37 0-.44.15s-.04-.24-.08-.34zm2.8 3.82c.08-.73 0-1.58.88-1.54.12.59-.34.59-.59.81.09.15.3-.19.51-.15 0 .5.15 1.22-.29 1.32.6.43-.34 1-.44 1.4a2 2 0 0 1 .22-1.55c.08-.24-.25-.11-.29-.26zM67 58.05c.06 1-.66 1.89-1 2.72-.39-1.29.67-1.77 1-2.72zm-1 .81a3.18 3.18 0 0 1 .46-1.86c.31.82-.14 1.24-.46 1.86zm.66 5.44a12.73 12.73 0 0 0-.66 1.77c0-.48.11-1.51.61-1.77zm.44-1.69a1.4 1.4 0 0 1-.44 1.4 1.79 1.79 0 0 1 .39-1.4zm-.1-5.29c-.19-.29 0-.84.07-1.1a1.39 1.39 0 0 1-.07 1.1zm-.44-4.48a6 6 0 0 1 .29-.74c.15.26 0 .76-.31.74zm-.3-1.92c0-.27 0-.26.08-.66 0 .18 0 .39.44.3.01.33-.4.2-.54.36zm.3.37c-.23.33-.13 1-.59 1.1v-1c.21.04.3-.12.57-.1zm-.3 18.3c.06-.22-.07-.27-.07-.44 1.17-1.6 1.64-3.89 2.42-5.88a18.36 18.36 0 0 1-1.61 5 17.77 17.77 0 0 1-2.21 4.19 15.8 15.8 0 0 1 1.45-2.87zm2.5-17.27c.18.11 0 .51-.07.59-.33-.01.11-.36.05-.59zm0 .88c-.06.53.24 1.41-.44 1.33.1-.42 0-1 .22-1.33zm-.07 1.55c.11.45-.22.47-.37.66a.42.42 0 0 1 .35-.66zm-.15 1c.33.88-.29 1.42-.59 1.92a3 3 0 0 1 .57-1.9zm-.07 1.92c.49.62-.27 1.24-.44 1.69-.08-.2-.26-.29-.3-.52a4.84 4.84 0 0 0 .72-1.15zM68 60a1.05 1.05 0 0 1-.44 1c-.17-.31.37-.59.44-1zm-.22 3.53c-.19-.19.07-.57.07-.81.34.18-.08.56-.06.85zm-3.08 4.81c.46.33-.12.84-.15 1.33-.4 0-.41.37-.59.58a1.3 1.3 0 0 1 .67-1c-.25-.33-.03-.56.07-.91zm.73-3.3c-.34-.35.27-.88.3-1.33.27.48-.24.89-.3 1.29zm-.07-9.71c.29.78-.38 1.24-.59 1.77-.29-.79.34-1.28.59-1.77zm-.59 0c0-.33.24-1.13.66-1.32v.74c-.43-.06-.43.35-.66.58zm.59 1.67c.31.83-.34 1.33-.59 1.84-.3-.79.38-1.27.59-1.84zm-.22 5.15c-.15-.33.2-.78.22-1.18.27.46-.15.85-.22 1.2zm.07-11c-.11-.28.2-.15.22-.29.2.08.01.38-.22.28zm.08.45c0 .27 0 1.09-.52 1.1.1-.45.11-.98.52-1.11zM65 53c-.15.16 0 .65-.29.66.01-.31-.13-.77.29-.66zm.22 6c.1.53-.37 1.14-.44 1.76-.33-.82.22-1.37.43-1.82zm.22 4.33c-.16.82-.74 1.22-.8 2.13-.16.17-.38.26-.45.52.29-.77.44-2.26 1.24-2.71zm-2.2 3.6c-.07-1.06.82-1.76 1.1-2.72a8 8 0 0 1-1.11 2.66zm.44 1c-.22-.27.17-.57.22-.81.1.07-.23.42-.23.71zm-.29-6.91c-.24-.73.41-1.2.66-1.69a4.13 4.13 0 0 1-.67 1.59zm-.15 1.4a1.19 1.19 0 0 1 .07-1c.34.02-.14.58-.08.9zm.51-3.46a2 2 0 0 1 .44-1.62c.3.66-.29 1.04-.45 1.52zm.25 3.21c-.13-.34.23-.8.22-1.25.22.46-.15.92-.22 1.25zm.15.07c.39.18 0 .79-.44.59.03-.27.29-.36.4-.59zm.07 1.69a18.41 18.41 0 0 0-1 1.69c.17-.43.21-1.62.96-1.69zm-1-6.1c-.47-1.31 1-1.87 1-3.23.41 1.55-.58 2.29-.99 3.23zm-.15-3.16c.22 0 .6-.28.74-.14.08.79-.45 1-.66 1.46-.15-.29-.02-.9-.07-1.32zm.23-.67c0-.56.4-.63.74-.81.2.16 0 .51-.08.66a1.43 1.43 0 0 1-.66.15zm1-2.06v.89a2.67 2.67 0 0 1-.74.22 5.37 5.37 0 0 0 .3-1c.14.03.14-.15.4-.05zm-.3-.44c.09-.11.07-.33.3-.29.01.25-.17.28-.3.3zm-.73.66c.37.19-.12.69-.07 1-.2-.16-.2-.89.03-.99zm-.15 12c.23.06.22-.12.44-.07-.32 1.22-1 2.13-1.25 3.38-.89-1.14.49-2.21.77-3.32zm-.62-10.52c-.19-.28.13-.69.14-1 .16.23.12.92-.14 1zm-.23 8.16c-.14.54-.06 1.2-.51 1.47.07-1.64.69-3.37.88-5.14a7.55 7.55 0 0 1-.37 3.67zm0-7.35c-.22-.21.13-.45.08-.73h.29c.27.37-.13.63-.37.73zm-.88-3.23v-.52a10.89 10.89 0 0 1 1.32-.14c-.12.53-.82.5-1.32.66zm.3 13.3c.16.1 0 .51.07.74.5-.07.59-.54.74-1h.21a14.16 14.16 0 0 0-1 1.91c-.13.09-.53-.1-.66.15a3.06 3.06 0 0 1-.44 2.13c-.72-1.45.77-2.61 1.08-3.93zm1 3c.15 0 .15.2.29.23-.35.92-.48 2.06-1.47 2.35.35-.85.76-1.69 1.13-2.57zm.88.37c-.14.52-.23 1.73-1 1.91a7.93 7.93 0 0 1 .95-1.9zm1.4-2.2c.08 0 .13 0 .15.07-.5 1.2-.76 2.62-1.55 3.53.37-1.24.97-2.29 1.35-3.59zM65.8 75a15.42 15.42 0 0 1 1.32-2.2A9.87 9.87 0 0 1 65.8 75zm1-4.63c.11-.6.6-1.46.81-2.2a6.12 6.12 0 0 1-.85 2.23zm1.32 2.79c.48-1.2 1.39-2.63 1.84-4.11.11.08.15.24.36.22-.47 1.29-1.22 2.3-1.69 3.6a1 1 0 0 0-.55.32zM69.92 51c-.31 0-.47-.25-.3-.44.24.01.38.16.3.44zm-.3-1.1c0-.23.12-.43.37-.45V50c-.21 0-.19-.13-.37-.1zm-.22 2.79a.84.84 0 0 1 .15-.88c.19.24-.19.54-.15.88zm.22 1.47c.33.18.06 1 .15 1.39-.25 0-.39-.14-.52.08a1.69 1.69 0 0 1 .37-1.47zm0 14.33c.34.16-.06.6-.29.66.12-.15.17-.46.29-.66zm0-10.8c.21.16 0 .52 0 .73-.17-.13-.04-.57 0-.73zm1.18 13.08a2.75 2.75 0 0 0-.74-.08c.08-.46.37-.71.44-1.17.51 0 .62-.32 1.11-.3-.14.65-.78.78-.81 1.55zm1.47-.88c-.15 0-.48-.09-.52.07a1.27 1.27 0 0 1 1-1.18c.25.22-.42.74-.48 1.11zm1.32 1.69c.34-.4.49-1 .81-1.4a1.23 1.23 0 0 1-.81 1.4zm-.66-1.77c-.05-.41.5-.87.59-1.39 5.43-2.26 8.59-6.8 10.07-13 .08 0 0 .14.14.14-.56 1.6-.64 3.26-1.32 4.63a22.34 22.34 0 0 1-1.91 2.87 25.85 25.85 0 0 1-7.57 6.75zm7.5-5.51c-.13.51-.87 1-1.25 1.54.19-.44.91-.99 1.25-1.54zm-5.37 6.32a2.57 2.57 0 0 0 .15-.88c.41 0 .68-.59 1-.44.07.88-.65.99-1.15 1.32zM78 68.2c-.19.12-.13.5-.29.66-.65-.19-.47.46-.88.51a1.23 1.23 0 0 0 0-.66 6 6 0 0 0 1.47-1.18c.31 0 .24.4.29.67-.24.12-.28-.02-.59 0zm1.18-.44c-.13-.25-.4-.7-.15-.89.21.13.39.71.15.89zm.59-.59c-.07-.41-.4-.85 0-1.1.23.25.57 1.06 0 1.1zm.66-.52a2.89 2.89 0 0 0-.22-1c0-.32.38-.36.44-.66.3.2.23.79.44 1.1a1.41 1.41 0 0 1-.66.56zm1-.88c0-.73-.68-1.34-.08-1.84.15.5.79 1.66.11 1.84zm.8-.66a6.33 6.33 0 0 0-.51-1.54c0-.25.22-.33.29-.52.04.65.82 1.78.25 2.06zm3.83-5.88A17.57 17.57 0 0 1 83 64.37c0-.82-.62-1.28-.51-1.91.32.39.48.94 1.1 1 .56-.42-.34-1.4-.74-1.32-.09-.15.24-.49.44-.59.29.35.32 1 .88 1 .41-.59-.31-1.17-.66-1.47a19.4 19.4 0 0 0 3.24-6.76c0-.24.23-.21.29-.37a20.85 20.85 0 0 1 .52-4c.92 3.34-.3 6.68-1.47 9.28zm-1.44-11.61c.35.13.94.27.66.81a2.48 2.48 0 0 1-.66-.81zm1 1.69c0-.44.24-.64.29-1 .26.11-.04.83-.26 1zm.95 3.53c.26.12.16.62.22.95-.51-.01-.08-.53-.19-.95zm-.22-1c-.42-.35.13-.93.15-1.32a1.57 1.57 0 0 1-.12 1.36zm.81-2.13a1.38 1.38 0 0 1-.08-1.18c.47.29.26.83.11 1.22zm-13-5c0 .26-.4 0-.44.22-.15-.07 0-.41-.22-.44.26-.2.5.17.68.26zm.66.88a8.61 8.61 0 0 1-1.39.88 2.37 2.37 0 0 1 1.41-.84zm-.44.88a6.29 6.29 0 0 1 3-1.1 16.23 16.23 0 0 1 2.9-.37c1.73-.08 4.3-.43 5.29.44A6.61 6.61 0 0 1 87 48.06a8.27 8.27 0 0 0-1 2.35c-.21-1.07.6-1.75.58-2.87-.1-.19-.4 0-.36.22a5.8 5.8 0 0 0-3.53-1.69c-2-.33-4.28-.92-6 .15-.22 0-.12-.27-.29-.29-1.1.39-2.15 1.22-3 1.61-.13-.54.6-.75 1-1.03zm4.12.3c-.18-.21.45-.23.73-.22a.65.65 0 0 0-.07.44c-.16.01-.53-.29-.64-.18zm.14.59c-.12-.18-.61-.27-.44-.52a.79.79 0 0 1 .46.56zm-3.67 4c.16-.76-.12-1.18.37-1.7.33.13.45.49.8.59a4.37 4.37 0 0 1-1 1.18c.06-.08-.06-.05-.14-.06zm.22 1a.26.26 0 0 1-.22-.44c.24-.04.2.22.24.4zm.88-4c.37-.08.73.43 1 .74-.36.03-.76-.44-.98-.75zm.44-.51a1.54 1.54 0 0 1 1 .73c-.41-.19-.62-.58-.98-.74zm.66-.44c.36-.42.55.44.89.51-.27.08-.58-.39-.87-.52zm-3.6 3c-.29-.34.35-.77.52-.66.04.41-.36.4-.5.66zm0 .88c-.25-.28.29-.39.37-.59.3.3-.24.43-.35.59zm.66.22c.28.55-.56.62-.73 1-.29-.6.5-.99.75-1zm-.66-2.13c-.29-.61.59-.68.74-1.1.45.47-.47.83-.72 1.1zm.66 3c.27-.07.11.29.15.45a4.6 4.6 0 0 0-1 .66c-.19-.59.62-.72.87-1.1zm-1 1.69a5.36 5.36 0 0 0 1-.8c.22-.08.13.16.15.29a.34.34 0 0 0 .14-.29c.22.6-1 1-1.4 1.39.22-.09.17-.36.18-.58zm1.62-.14a1.36 1.36 0 0 1 .51.81 23.25 23.25 0 0 1-2.35 1.47c.08-1.35 1.26-1.55 1.91-2.27zm.14 1.47c0 .4-.61.86-1.25.88.37-.4.94-.54 1.32-.87zm-2.57-11.46c.13-.19 0 .43.07.59s-.05-.43-.07-.59zm.51 13.67a5.64 5.64 0 0 0 3.75-1.47 11.39 11.39 0 0 1 1.17-3.08c.91-1.75 2.15-3.63 4.86-2.87 1.35 8.74-3.87 14-9.26 17.2-1.08.63-2.79 1.57-3.31 0 1.59-2.6 2.15-6.23 2.79-9.78zm-2.57-4.19c-.23-.57.12-1.4 0 0zm.37 3.46c-.36-.4.1-1.15 0-1.77.27.24-.07 1.2 0 1.77zm-.3-8.09v-.73c.1-.08.28-.07.3-.22.27.09-.01.9-.3.95zm.15 8.45c.1.16.21.94-.15.89-.06-.41.14-.55.15-.89zm1-4.33c.14-.16 0 .54.07.73-.11.16-.01-.53-.04-.73zM22.66 73.19c-.11-.26.25 0 .22-.22a32.13 32.13 0 0 1-3.6-5.14 28 28 0 0 1-2-4.63 49.82 49.82 0 0 1-2.64-14.33c-.06-.85-.14-1.76.37-2.06-.28-.18-.13-.53-.15-.66.26-.08.49.42.66.14.33.16.75.31.74.59 1.9 1.06 4.87 1 7.34 1.55.17-.11.11-.44.22-.59a54.56 54.56 0 0 1-5.51-1.33c-1.25-.42-2.31-.62-2.79-1.76a.2.2 0 0 0-.15.22c-.9-1.06-.23-3.06.74-3.89A16 16 0 0 1 19 39.53a27.18 27.18 0 0 1 6.77-2.06 60.24 60.24 0 0 1 9.33-1.32c.14 0 .22-.06.37-.07 5.65-.57 11.27 0 16.9.29 3.94.19 6.67.65 10.51 1.1a23 23 0 0 1 4.26 1.4 25.17 25.17 0 0 1 3.68 1.32c1.06.63 1.07 1.37.88 2.72-.83.52-1.31 1.39-2.35 1.69-.11.07-.11.24-.15.37-3.25 2.32-7.91 3.76-13.08 4-2.91.16-6.35.52-9.63.66a109.62 109.62 0 0 1-20.28-1.39c0 .13-.09.15-.08.29a58.15 58.15 0 0 0 8.53 1.77c.08.08.21.13.15.36a1.17 1.17 0 0 1 1-.22c.16 0 .09.3.22.37.33.14.12-.26.29-.29a6.6 6.6 0 0 0 2.06.14c.15.22 0 .7.07 1 .35 0 .38-.64.22-.88.18-.17.66 0 1-.07a9.8 9.8 0 0 0 .07 1.91c.45 0 .12-1.31.22-1.91a14 14 0 0 0 1.62.07c-.21.33-.94.14-1.32.29.16.45 1 .26 1.32.52a25.33 25.33 0 0 0-.08 2.79c.94-.23.21-1.94.37-2.79.37.05.75.08 1.1.15a14.63 14.63 0 0 0-.07 1.91c.89 0 .06-1.65.66-1.91a6.29 6.29 0 0 1 .08 1.54c.14 0 .18-.16.36-.15.17-.29 0-.9.08-1.32h.8c.15.18 0 .59.08.88.55.11.26-.61.44-.88.3 0 .78-.1 1 .07-.16.31.21.69.07 1.62.6.09.29-.74.37-1.18h.8c0 .38 0 .93.23.81 0 .31-.3.25-.3.52 0 3.75-.09 7.68.07 11.32a.85.85 0 0 1-.73 0c0-3.48-.1-7.16-.07-11-.64.35-.37 1.33-.37 2 0 2.95-.08 6.3.14 9.05-.2.2-.69.13-1.1.14 0-3.27 0-6.88-.14-9.85-.63.37-.37 1.45-.37 2.28 0 2.46.07 5.24.15 7.57a1.89 1.89 0 0 1-.74.08c0-3.13 0-6.21-.22-9.12-.67.4-.33 1.45-.29 2.21.1 2.24.17 4.78.07 6.91h-.22a62.62 62.62 0 0 1-.29-8.53c-.14-.13-.41.23-.59.29 0 2.83.08 5.56.22 8.24h-.88c0-2.1-.19-5.07-.15-7.65-.6 0-.43.67-.44 1.1 0 1.58.05 3.74.14 5.15a2 2 0 0 1 .08.59c-.31 1.18-1.87.58-3 .66.31.41 1.13.3 1.77.37-.66.71-1.56 1.18-2.21 1.91 1-.17 1.69-1.36 2.75-1.68a2.18 2.18 0 0 1 .52-.07c0 .15-.33.06-.52.07a6.07 6.07 0 0 0 2 .21A11 11 0 0 1 41 67.61c-.74.52-1.52 1-2.21 1.54 1.91-.47 2.86-1.89 4.49-2.64v.73c-.84.8-1.87 1.41-2.72 2.21.58.16 1.07-.36 1.47-.67.86-.65 1.58-1.28 2.57-2a2.85 2.85 0 0 1 2.06-.88v.37c0-.44.54-.39 1-.37-1.73 1.31-3.59 2.49-5.22 3.89.67.21 1.11-.48 1.54-.81 1-.71 1.85-1.41 2.87-2.13a4.13 4.13 0 0 1 2.72-1.1 52.5 52.5 0 0 0-5.51 4c.73 0 1.19-.58 1.69-1 1-.76 2-1.39 3.16-2.13a8.8 8.8 0 0 1 1.54-1c.89-.3 1.91-.15 3-.44.28.06 0 .26.15.37.15 0 .2-.2.22-.37.2.32-.13.75-.15 1.11-3.08 1.51-5.39 3.82-7.86 5.95.88 0 1.4-.82 2-1.32a68.47 68.47 0 0 1 5.8-4.41 11.39 11.39 0 0 1-.37 1.76c-.75.87-1.86 1.37-2.64 2.2 1.64-.61 2.51-1.65 3.82-2.49-.21.64-.22 1.49-.81 1.76.64.07.86-.27 1.25-.44-.21.2.09.22.22.29a38.16 38.16 0 0 0 1.77-4.7c.4 0 .6-.13 1-.07-.71 1.66-1.38 3.36-2.13 5 1-.29 1.12-1.5 1.47-2.35s.75-1.87 1.11-2.72c.44.06.66-.12 1.1-.07-.83 1.79-1.6 3.64-2.35 5.51.66 0 .7-.8.88-1.25.56-1.42 1.25-3 1.91-4.34.25.26.42-.13.88-.07.27-.07.1.29.15.44.18-.15.18-.5.51-.51-.35.89-.81 1.68-1.17 2.57-.17 0-.38-.15-.52 0 .1 1.94-1.32 3.49-1.91 5.22 1.09-.56 1.39-2.53 2.06-3.75.21.16.23.51.44.66-.48.72-.54 1.71-1 2.35-.29.39-.9.42-.95 1-1.75.8-3.18 1.92-4.93 2.72a9.78 9.78 0 0 0 1.76-.66c-.32.53-1.4.94-2 1.39.59 0 1.54-.55 2.2-.51.32-.68 1.1-.8 1.55-1.18.18.12-.14.36-.15.52a26.45 26.45 0 0 0 2.86-1.62c-.09-.08-.49.14-.58.29-.17-.39.46-.61.8-.73 0 .11-.1.18-.14.29.51 0 .84-.82 1.32-1.1.22 0-.07.16 0 .29.51-.25.77-.75 1.32-1 .15-.38-.34-.31-.14-.52s.3-.09.37-.22c.34-.06-.11.2.14.22s.35-.48.59-.66c-.08 1.22-1.39 1.84-2.28 2.5.61-.49 1.81-.39 2.06-1.25.29.27-.1.86-.44 1 0-.12.07-.13.07-.22-2.55 1.78-5.34 3.33-8.08 4.92-.2-.19.09-.28.14-.44-.86.59-1.87.6-2.64 1.1-1.3.86-2 2.38-3.24 3.24a11.92 11.92 0 0 0-1.76.22c-.06-.35.77-.8 1.18-1.18s.94-.92 1.32-1.32c-1.84.58-2.21 2.64-4.48 2.79 1.19-1.08 2.42-2.13 3.52-3.31-1.79.76-2.72 2.37-4.19 3.46-.3.13-.88 0-1.17.15-.12-.26.49-.61.81-.89 1-.85 2.08-2 3-2.86-1.73.72-3 2.63-4.41 3.75a10.77 10.77 0 0 0-1.18-.08c.83-1 1.9-1.73 2.72-2.72-.82-.07-1.25.71-1.76 1.18s-1 1-1.54 1.47c-.78 0-1.35-.18-2.14-.15a45.17 45.17 0 0 0 3.46-3.16c-1.71.6-2.53 2.08-3.9 3a3.68 3.68 0 0 1-1.25-.14c-.15-.07-.33.19-.14.22-.15.26-.52-.26-.66 0a27.41 27.41 0 0 0 9.55 1c.66 0 1.52-.33 2-.07.37-.31 1.08-.28 1.54-.51.29.14-.47.44-.44.8.77-.18 1-.94 1.83-1 .35 0-.09.32.15.44a7.21 7.21 0 0 1 2.87-1c.36 0-.09.29-.08.44a2.88 2.88 0 0 1 1.69-.88c-.08.16-.07.41-.22.51.5-.13.5-.77 1.11-.8.33 0-.16.39-.08.66.7 0 .48-1 1.18-1-.08.58-.48 1.06-.51 1.47-2.65.9-6 2.33-9.56 2.57a13.22 13.22 0 0 1-1.76-.22c-3.33-.26-6.93.44-9.48-.59-1.75-1-4.2-1.94-6.1-3a16.14 16.14 0 0 1-4.41-3.46c-.23 0-.34-.16-.52-.22-.92-1.09-1.64-2.2-2.42-3.26zm37.56-16.53a16 16 0 0 1-.22-2.94 4 4 0 0 1 .88-.08c-.35.3-.89.7-.66 1.33.37.29.64-.32.8-.22a17.23 17.23 0 0 1-.8 7 46.26 46.26 0 0 1 .36-6.61 4.53 4.53 0 0 0-.36 1.52zM59 57.91a35.73 35.73 0 0 1-.22-4c.34.07.41.42.81.44a28.39 28.39 0 0 1-.44 8.23c.64-.14.47-1.1.66-1.69.17.73 0 1.82.15 2.57a3.6 3.6 0 0 1-1 .15 37.4 37.4 0 0 1 .58-7.57c-.38.42-.36 1.22-.54 1.87zm.3-6a.2.2 0 0 1 .14.22 1.18 1.18 0 0 1-.66.15c-.1-.46.44-.22.56-.4zm-.52-.37v-.37c.11-.11.38-.06.59-.07v.44zm0 1.18h.66c0 .48-.19.79-.59.88-.1-.21 0-.6-.03-.91zm1-1.32c0-.18-.14-.16-.08-.37a6 6 0 0 1 1.3-.25v.51a10.58 10.58 0 0 1-1.15.08zm0 .66c-.08-.43.61-.07.73-.3.24.24-.44.24-.66.24zm.07.58c.09-.37.75-.18 1-.44.32.12.06.82.14 1.18-.3 0-.45.13-.8.07 0-.2.1-.38.14-.58s-.33-.08-.41-.26zm1.18 7.72a12.87 12.87 0 0 1 .15 1.77c0 .53-.08 1.4-.74 1.32.27-1.05.45-2.1.66-3.12zm-2.58-8.26c.06.48-.45.38-.81.44v-.44c.23.19.53-.02.81 0zm-.81-.37v-.36a4 4 0 0 1 .81-.15v.37a3.25 3.25 0 0 1-.81.14zm.08 1a.93.93 0 0 0 .73 0v.81c-.14.13-.48 0-.73.07.01-.26-.19-.61 0-.85zm.59 1.18c.06 0 .13.06.14.14a19.09 19.09 0 0 1-.51 3.9c0 .15 0 .58-.08.22-.08-1.33-.07-2.77-.14-4.12.07-.13.52.07.59-.11zm.07 2.86c.06 0 .07 0 .07.08.15 1.15 0 2.73.07 4.11 0 1 .48 2.51-.51 2.8a23.51 23.51 0 0 1 .37-6.96zm-1.77 1.69c.11-.55.72-.75.74-1.25.11 2.1.14 4.67.15 6.62-.18 0-.54-.09-.59.07.15-1.59-.59-3.9-.3-5.41zm-2.71-6.9c.79-.16.82 0 .14.14 0 .13.13.19 0 .22s-.11-.2-.14-.33zm1 1.1h-1v-.52c.56 0 .34-.27.88-.29.28.03.14.72.07.84zm.07 1.25a6.43 6.43 0 0 1-1 .14v-.95c.72-.04 1.14-.1.95.84zm-1 .51a2.83 2.83 0 0 1 1-.07c0 3.09-.2 6.55 0 9.77-.36-.11-.55.18-1 .15-.03-3.27-.17-6.68.03-9.82zm.22 10.66a8.92 8.92 0 0 1-.59 3 22.46 22.46 0 0 1 .59-2.97zm.37 0c.33 0 .45-.13.8-.07-.37 1-.42 2.31-1.32 2.79a23.87 23.87 0 0 1 .52-2.69zm.73-10.81h.59c.15.65-.27.72-.52 1-.16-.18-.02-.67-.07-.97zm.52-1.27c.14.18 0 .59.07.88-.28 0-.35.09-.59.08v-.88c.23.01.26-.16.52-.08zm-.52-.37v-.8c.27 0 .32-.13.59-.08v.81c-.11.09-.38.05-.59.05zm0 3.68a.81.81 0 0 0 .44-.37c.49.42-.29.77-.37 1.1-.16-.12-.02-.53-.07-.75zm0 1.32c.19.07.42.12.52-.07.14 2 0 4.27.22 6.25a1.23 1.23 0 0 1-.81.36c-.05-2.27.06-4.37.07-6.56zm.44 7.37h.74c-.39 1.28-.93 2.41-1.33 3.68-.26.08-.37.31-.66.36.43-1.37.86-2.7 1.25-4.04zm.66-.95c-.39-.84.07-2.08-.07-3.16a3.44 3.44 0 0 1 .15 1.39c.03.62.36 1.46-.08 1.72zm.08-9.78a1.6 1.6 0 0 1 .88-.07c-.13 1.33.46 3-.81 3.08.23-1.11-.17-1.75-.07-3.05zm0-.44v-.88a4.76 4.76 0 0 0 .88-.07v.88c-.35-.1-.53.06-.88.03zm.88-1.62v.37a3.74 3.74 0 0 0-1 .07v-.44zm-1-.36c.06-.41.68-.25 1-.37.16.52-.87.32-1.03.33zm-5.73 1.61H51c.55 3.35.13 7.73.58 11.17a8 8 0 0 1-1 .15c-.02-3.78-.16-7.73.01-11.36zm-.15-1.1h.66V53c-.27 0-.35.09-.59.08s-.08-.51-.1-.76zm0-.37c0-.25.48-.1.73-.14-.06.21-.5.06-.76.15zm1.91.3v.59a2.24 2.24 0 0 1-.81.07c-.35-.62.18-.83.78-.7zm.3 2.2h.8c.12.11.07.38.08.59a4.71 4.71 0 0 0-1 .15c.03-.29-.05-.64.09-.78zm.8-.29h-.88v-.81a2.31 2.31 0 0 1 1-.15c-.1.28 0 .76-.15.92zm-.8-1.32v-.67h.88v.59a4 4 0 0 0-.91.04zm.88-1c-.35.21-1.83.31-2.06-.08.72 0 1.4-.07 2.06-.14zm-1.18 2.35a.64.64 0 0 0-.51.14c-.06.31.45 0 .51.23.23.91-.43.93-.59 1.46 0 .34.32.28.59.23.25.78-.6.48-.59 1s.45.22.59.3a7.71 7.71 0 0 0-.07 2.79c-.2 0-.44 0-.44.15-.25-2.23-.2-4.75-.3-7.13.72-.21.89-.04.78.76zm-.59 6.69a.53.53 0 0 0 .52.22 16.26 16.26 0 0 0 .14 2.86c.43-1-.29-3.08.59-3.6 0-.25-.41 0-.44-.15-.07-.53 0-.89.37-1-.47-.37-.57-1.87 0-2.21.05-.27-.32-.13-.37-.29-.19-.8.49-.74.74-1.11.08 0 .13 0 .14.08a27 27 0 0 1 0 4.41v4.33a11.75 11.75 0 0 0-1.76.22c.11-1.22.02-2.58.04-3.83zm-1.69-8.53v.74c-.32-.06-.41.12-.73.07v-.74c.26-.04.38-.2.7-.14zm-.76-.39c0-.2.75-.27.73 0zm.07 1.47h.66c.09 3.71-.17 7.77.15 11.24a4.64 4.64 0 0 1-1.1.15c.31-3.55.09-7.67.29-11.36zM48.9 65c-.43-.06-.63.11-1 .08.06-4.12.07-7.43 0-11.4.16-.49.54 0 1-.14.1 3.8-.19 7.95 0 11.46zm-1.47-14H48c-.47.1-1.68 0-.57-.08zM49 52c-.08.29-.64.09-1 .15 0-.15.65-.15 1-.15zm-.07 1.18h-1v-.74H49c0 .2 0 .56-.1.69zm-2.72-2.28c-1 .28-1-.28 0 0zm-1.25-.07v.14h-1c.04-.37.66-.11.97-.19zm-1.96.02c-.1.22-1.09.26-1.18 0zm2.13 15.07a2.89 2.89 0 0 1-.88.59 1.31 1.31 0 0 1 .07-.59zm-1 .73c-.27.13-.36.43-.73.44-.22-.83.8-1.58.72-.44zm13.23 7.57c.09-.45.6-.47.88-.73.13.39-.57.56-.89.73zM2.52 92.45c-.46-2.37-1.44-4.35-.88-7a19.28 19.28 0 0 1 3.16-3.14c-.18.55-.87.88-1.32 1.54-.22.32-.3.77-.52 1.1s-.66.65-.81 1.11a6 6 0 0 0 1.18 5.43c.85 2.24 3 3.15 5.14 4.12-.28.23-.54-.19-.88-.15 1.75 1.24 4.26 1.72 6.62 2.36a19 19 0 0 1-11.69-5.37zm21.31 7.35c-.17 0-1.61-.33-.58-.22a24.24 24.24 0 0 1 2.72.59c4.09.88 10.72.9 14.77 1.47a87.41 87.41 0 0 1-16.91-1.84zm17 .88c-2.65-.11-5.18-.55-7.79-.66a67.59 67.59 0 0 1-8.38-1.18c-2.46-.41-4.94-.64-7.27-1a32.38 32.38 0 0 1-6.32-2 24.21 24.21 0 0 1-5.59-2.72.65.65 0 0 1-.07-.44c-1.9-1.4-2.84-3-2.5-6.25.35-3.46 3.56-4.68 6.54-5.88a59.38 59.38 0 0 1 12.2-3.16 10.72 10.72 0 0 1 2.63-.39c.69.15 1.16 1.23 1.69 1.47-.12.21-.33-.28-.52 0 .07.49.72.79.74 1.1a32 32 0 0 0-14.33 3c-1.08.49-2 1.14-3.09 1.69a6.39 6.39 0 0 0-1 .37 4.31 4.31 0 0 0-1.65 2.97c.7-.41.89-1.32 1.47-1.84a2.1 2.1 0 0 1-.81 1.55c.29 0 .61-.63 1-.74.83.18 1.58.43 2.43.59a5.55 5.55 0 0 0-.3 1c-.86-.09-1.54-.36-2.35-.51.43.62 1.53.58 2.35.81.12 2.87 1.71 4.26 3.68 5.29a16.7 16.7 0 0 1-2.35-2.5c-.66-1.14-1.4-3-.22-3.82-.06-.69.63-1.21 1-1.69.42 0 .66.14 1 0 0-.36-.54-.14-.58-.44.31-.16.66-.5 1.1-.3-.23-.42.51-.43.73-.81-1.21.52-2.35.21-3.67-.07 1.18-.84 2.91-.28 4.34 0-.23-.65-1.23-.54-1.92-.73.67-.7 1.66-.25 2.65-.15 0 .33-.54.15-.51.51a30.25 30.25 0 0 1 3.52-1.17c-1.24 0-2.46.74-3.82.14.68-.71 1.89-.32 2.94-.44 0-.33-.42-.26-.66-.36a40.49 40.49 0 0 1 7.35-1.25c1.43-.16 2.73-.43 3.6.22a33.4 33.4 0 0 0-4.56.44 18 18 0 0 1-2.49.44c-.52 0-1-.57-1.47-.15.07.39.66.27 1.1.3a34.8 34.8 0 0 0-3.24 1.32 42.62 42.62 0 0 1 6.91-1.1c1.22-.06 2.44-.35 3.53-.37.53 0 .77 0 1 .44-2.9.27-5.55 1.4-7 3.38a2.75 2.75 0 0 0-.08.74c0 .35-.12-.13-.36 0 .1.73.93 1.36 1.39 2 3.65 2.33 8.6 3.36 13.82 4.12.27-.08.06.33.29.29a53.27 53.27 0 0 0 21.54-1c2.49-.7 5-1.14 7-2.27.67-.38 1.17-.89 1.84-1.25.37 0-.24.08-.08.36.45 0 .66-.17 1-.22s0 .16.08.37c.4.11.32-.26.59-.29 3.5.42 6.81 1 10.14 1.61a1.33 1.33 0 0 1-.52.81c-2.84-.39-5.52-1-8.45-1.25-.15-.2.17-.18 0-.44-1.14.55-2.72-.08-4.11.15.42.46 1.48.28 2.27.37-.72.68-2.09.53-3.08.44 0 .37.57.26.88.37-2 .62-4.05 1.86-6.47 1.61 0 .23.06.33.3.3a3.84 3.84 0 0 1-2.06.36 3.66 3.66 0 0 1-2.43.45 2.53 2.53 0 0 1-2.28.29c-.13.13 0 .25.22.22a15.55 15.55 0 0 1-3.45.51c4.67.05 7.87 1.64 11.83 2.43-1.38.74-2.87 0-4.48-.37-3-.71-6.28-1.48-9-2.35A32.38 32.38 0 0 0 54 95.61c2 .52 3.93 1 5.88 1.47-15.27 2.82-34.56 1.25-47.55-2.65-.1-.26 0-.26-.07-.51a15.59 15.59 0 0 1-3.46-2c-.14-.15 0-.19 0-.37-1-.83-1.32-2.36-2.2-3.31a2.83 2.83 0 0 0 .22 3c.94.69 1.68 1.55 2.64 2.21 2.81 1.92 6.94 2.85 10.88 3.67a105.87 105.87 0 0 0 32.19 1.69 18.73 18.73 0 0 1 1.25 1.77c-4.29.21-8.56.3-12.97.1zM8.62 85.39c.21-1.14 1.83.14 2.87.15-.49.9-2.05.02-2.87-.15zm2.43 1c0 .28-.23.36-.3.59-.07-.05.06-.54.3-.56zm-.37-.07a3.25 3.25 0 0 1-.37.59c-.81-.17-1.55-.41-2.35-.59.49-1.07 1.7-.03 2.72.03zm-1.4-1.69c.72-1 2 .21 3.16.15-.74.85-2.15-.07-3.16-.12zm14 2.28a1.33 1.33 0 0 1 0-1 1 1 0 0 1 .04 1.03zm30.94 13.59a19.6 19.6 0 0 1-1.1-1.69c1-.17 1.19 1.16 1.84 1.62-.06.2-.47.06-.7.1zm1.25-.07c-.39-.67-1-1.12-1.39-1.76h.8a5.53 5.53 0 0 0 1.47 1.61 1.66 1.66 0 0 1-.84.18zm-.15-1.76c.14-.16.44-.16.74-.15a6.68 6.68 0 0 0 1.69 1.62c-1.05.33-1.57-1-2.39-1.44zm1.55-.22a.19.19 0 0 1 .29 0c.39.69 1.12 1 1.55 1.69a8.22 8.22 0 0 1-1.8-1.66zm1-.08c1.16-.56 1.62 1.32 2.72 1.47-1.32.47-1.89-.93-2.73-1.44zm1.62-.22c.14-.13.49-.05.74-.07a3.17 3.17 0 0 0 .8 1.17 3.47 3.47 0 0 1-1.55-1.07zm2.06 2.5a3.15 3.15 0 0 1 1-.15c.02.13-.66.19-1.01.18zM60.88 98c1.48-.59 1.76 1.13 2.86 1.39-1.47.77-2.1-.7-2.86-1.39zm2.2 2.49c7-1.32 13.89-2.77 19.55-5.43a62.21 62.21 0 0 1-19.55 5.47zM82.85 95a8 8 0 0 1 1.25-.59 3.8 3.8 0 0 1-1.25.59zm3.31-2.2c.88-.6 1.3-1.65 2.13-2.28a3.9 3.9 0 0 1-2.13 2.3zm2.13-2.65a2.06 2.06 0 0 0 .22-.59c.26.09-.01.56-.22.61zm.37-1a6 6 0 0 0-.15-2.58 12.51 12.51 0 0 0-7-5.58 2.81 2.81 0 0 0 1.1.88c1.53.93 3.44 1.89 4.34 3.53a4.56 4.56 0 0 0-1-.15c.1-.3.46 0 .59-.15a8.26 8.26 0 0 0-3.09-.73c-.06.53.51.42.88.51 0 .17-.4 0-.37.22a5.28 5.28 0 0 0 3.24.59c0 .22.16.23.15.44-1 0-2-.4-2.94-.29.08.94 2.79.2 3.23 1.1-1 0-2-.36-3-.15.18.48.94.38 1.47.45a16.73 16.73 0 0 0 1.69.14c0 .23.13.26.07.52-1.4-.15-2.72-.37-4.19-.44.18.69 1.83.62 2.87.73.39 0 1 .09 1.39.15a1.48 1.48 0 0 1 .08.66c-1 .18-2.49-.47-3.38-.15 0 .45.5.25.73.3a14.35 14.35 0 0 0 2.21.29c0 .28-.19.3-.22.51-1.57-.08-3.43-.63-4.78-.44.34.55 1.39.43 2.13.52a22.15 22.15 0 0 0 2.35.29c-.05.25-.23.36-.29.59a33.31 33.31 0 0 0-4.41-.29c0 .55.61.32.88.36a19.15 19.15 0 0 0 3.09.3c-.6 1.45-2.58.47-4.19.51.57.58 1.92.38 2.79.66-.92 1.34-3.22.1-4.7.3a8.75 8.75 0 0 0 3.08.66c-1 1.39-3.09.63-4.7.51.54.54 1.74.42 2.57.66-1.21 1.12-3.14.14-4.63-.14.34.6 1.77.72 2.72.95-1.21 1-3.22-.21-4.63-.36 2.17-1 4.44-1.88 6-3.46.37-.1.61-.18.59-.51a6.16 6.16 0 0 1-1.76-.06 2.69 2.69 0 0 1 .59-.81c.53 0 1.33.36 1.69.07-.21-.42-1-.3-1.47-.44a1.8 1.8 0 0 1 .37-.8c.2-.24 1 .16 1-.3 0-.26-.49-.14-.73-.22 0-.29.07-.42.07-.66.41 0 1 .08 1.25-.07-.13-.58-1.46 0-1.32-.81.44-.09 1.18.13 1.84.07a1 1 0 0 0 .22.74c.64-.23.44-1.39.22-1.91.3 0 .57 0 .66-.23a2.17 2.17 0 0 1-1.54-1.1 1.47 1.47 0 0 0 .88-.15c-.17-.27-.67-.21-1.1-.22-.42-.24-.7-.62-1.25-.73a7.45 7.45 0 0 1 2.35.15c0-.44-.71-.39-1-.44a21.31 21.31 0 0 1-4-.89c-1.68-.64-3.47-.81-5.07-1.39-3.36-.36-7.42-1.28-11.32-.89-.11-.2.2-.41.37-.58A15.18 15.18 0 0 0 64 77.31c4.11.6 9.22 1.09 13.3 2.06 4.4 1 7.89 2.62 10.36 4.85.34.3.69.38.89.66.69.95.96 3.24.11 4.34z" fill="#c988ae" data-color="1"/>
            <path d="M16.48 95.1c-.05 0-.14 0-.14.07a26.72 26.72 0 0 0 3.45 1 12.72 12.72 0 0 0-3.31-1.07z" fill="#c988ae" data-color="1"/>
            <path d="M64.2 24.58s.12 0 .13.06c.22 0 .26-.18.24-.43-.25-.14-.42.04-.37.37z" fill-rule="evenodd" fill="#c988ae" data-color="1"/>
            <path d="M63.22 21.94c0 .32.23.47.49.61 1.04-.46-.34-1.55-.49-.61z" fill-rule="evenodd" fill="#c988ae" data-color="1"/>
            <path d="M63.9 17.77c-3.09-1.65-6.51.56-8.34 2.15a13.86 13.86 0 0 0-2.64 3.74A10.42 10.42 0 0 0 51 29.85a5.55 5.55 0 0 0-2.82-2.51c2.76-1.78 4.4-4.67 5-8.65 1.14-.32 1.52-1 2.2-1.84a12.91 12.91 0 0 0 1-1c.35-.53.63-1.17 1-1.78s.67-1.17 1-1.78a14 14 0 0 0 1.1-7.73A4.88 4.88 0 0 0 53.72.05a6.53 6.53 0 0 0-4.42 3.19 3.75 3.75 0 0 0-.12 2.08c.48 1.78 3.76 3.56 5.76 2.68.34 2.77-.32 5.07-1.84 6.19-.61-2.78-2.82-3.67-5.64-4.29a13.19 13.19 0 0 0-4-.37c-3.56.37-6 3.85-6.75 6.93a13.23 13.23 0 0 0-1.53-2c-2-1.67-5.63-1.21-7.73.06 1.72-2.36 2-8.17-.43-10.24A5 5 0 0 0 22.14 4 6 6 0 0 0 19 8.45c-.27 3.57 2.35 5.64 6 5a8.53 8.53 0 0 0-.86 3.8 7.82 7.82 0 0 0-1.11 3c-.57 6.21 2.24 9.17 5.34 11.59a19.07 19.07 0 0 0 3.07 2A29.93 29.93 0 0 1 35 35.37a5.13 5.13 0 0 1 1.72 2 4.52 4.52 0 0 1-.23 2.63c-.15.43-.67.91-.37 1.41.45.24.74-.15 1-.43a6.4 6.4 0 0 0 1.59-2.51 13.4 13.4 0 0 0-.12-3.81c-.44-3.57-2.83-5.36-3.43-8.4a5.15 5.15 0 0 0 2.33-3.55c1.24 1.59 3.41 2.26 5.76 2.76.37 2.12-1 2.74-1.72 3.92a8.42 8.42 0 0 0-1 5.09 23.13 23.13 0 0 0 .74 2.52 5.58 5.58 0 0 0 2.51 3.67 8.5 8.5 0 0 0 2.15.92 8.44 8.44 0 0 0 1.59 0 5.66 5.66 0 0 0 4-1.65 6.9 6.9 0 0 0 1.9-4.54c0-.66-.29-1.1-.3-1.72a2.31 2.31 0 0 1 1.41-2.33 4.1 4.1 0 0 1 1.65-.3c.53.12.91.85 1.29 1.1a6.57 6.57 0 0 0 5.64.31c2.31-1 4-4.06 4.23-6.63.32-3.38-1.34-6.96-3.44-8.06zm-9.39-15c2.33-.78 2.91 2.28 3 4.47 0 1.08 0 2.26-.06 3.13-.37-1.35-.31-3.12-1.17-4 .53-1.6.21-3.8-1.77-3.56zm-.36 4.33c-2.46.22-5.12-2-3.44-4a6.71 6.71 0 0 1 3.07-1.9A4.83 4.83 0 0 1 58 2.5c1.51 2 .73 7.52-.25 9.57 0 .09-.18.54-.24.3a13.56 13.56 0 0 0 .06-8.27 2.46 2.46 0 0 0-3.13-1.78c-1.25.26-2.75 1.13-2.21 2.82.44 1.35 3 1.52 3.25-.06.06-.37.08-1.28-.73-1-.11.28.11 1.14-.31 1.41a1.49 1.49 0 0 1-1.47-.55c0-.57 0-1 .31-1.28.81-.13 2-.16 2.33.42a2.71 2.71 0 0 1-1.46 3.02zm-.86 8.28c.09-.32.49-.55.67-.8a9.21 9.21 0 0 0 1.47-7.11c.12-.11.29-.17.37-.31s.06 0 .06.06a12.29 12.29 0 0 1 .62 5.09A8.48 8.48 0 0 1 53.23 18c.29-.91-.23-1.72.06-2.62zm-28.76-2.76a4.74 4.74 0 0 1-3.62-.92 4.56 4.56 0 0 1-1-4.84 5.82 5.82 0 0 1 2.66-2.46 6.14 6.14 0 0 1 3.49.12c2.36 1.19 2.47 6.74.92 9.33a8 8 0 0 1-2 2.2 20.58 20.58 0 0 1 1-3.19 11.78 11.78 0 0 0 .8-1.22c.82-2 .35-5.11-1.47-5.64-2.09-.62-4.77 1.18-4.05 3.68a1.71 1.71 0 0 0 2.33.85 1.12 1.12 0 0 0 .18-1.71c-.46.07-.26.79-.49 1.1a1.34 1.34 0 0 1-1.22-.31c-.29-2 1-2.91 3-2.75 1.94.91 1.42 5.41-.53 5.76zM37.9 34.08a12.29 12.29 0 0 0-3.19-4.23C34 29.18 33 28.65 33 27.21a17.43 17.43 0 0 0 1.66-.67c.63 2.95 2.73 4.46 3.24 7.54zm-1.17-.18c-1.75-2.2-4.54-3.35-5.27-6.56h.86c.41 3.24 3.59 3.72 4.41 6.56zm-1.59-9c-.06.05-.25 0-.31.06s-.27.38-.43.5-.77.26-1.17.49c-.23.21-.29-.12-.48-.13-.42.77-1.88.33-2.4.13a5.34 5.34 0 0 1-2.08-2.21c-.94-2.2.12-5.51 2.21-5.83a4 4 0 0 1 2.63.25c.73.51 1.33 3.23 0 3.68a.87.87 0 1 0-1.71-.19c0 1.06 1.35 1.24 2.2.92a1.87 1.87 0 0 0 1.11-1.47c.26-2-.55-3.8-2.21-4-3.25-.47-5.2 1.34-5.46 4a5.82 5.82 0 0 0 2.58 5.76 7.08 7.08 0 0 0 1.35.56 7.7 7.7 0 0 0 2.2 3.8c1.74 1.74 4.9 3.56 4.42 7.17 0-4-3.91-4.37-6.44-6.07-3.62-2.42-7.39-5.58-6.93-11.65a5.6 5.6 0 0 1 1.6-3.67 10.35 10.35 0 0 1 4.41-2.39 4.44 4.44 0 0 1 4.6 1.17 7.06 7.06 0 0 1 1.47 2.88c.4 2.34.19 5.23-1.16 6.22zm8.58.62a6.16 6.16 0 0 0 3.87-.68c2.33-1.51 3.76-4.08 3.37-8.28-.26-2.77-3.2-4.63-6.56-4.35-3 .25-4.92 2.83-4.85 6.56A3.39 3.39 0 0 0 41 21.63a6.58 6.58 0 0 0 4.66.49 3 3 0 0 0 1.9-3.06c-.07-.67-.56-2.17-2-2-.68.07-1.93 1.57-1.17 2.46.31.35 1.1.24 1.42.06.18-.55-.63-.26-.68-.86a1 1 0 0 1 .61-.86c.69-.11 1.07.85 1.11 1.29a2.4 2.4 0 0 1-1.35 2.05c-1.59.73-4.32-.1-4.78-1.34a6.11 6.11 0 0 1 .49-4.36 4.4 4.4 0 0 1 3-2.27c2.31-.32 5.41.85 5.77 3.19a7.64 7.64 0 0 1-2.33 7.11c-1.17 1-3.08 1.13-5.28.74a6.24 6.24 0 0 1-4.72-3 16.76 16.76 0 0 0-.31-3.27 8.13 8.13 0 0 1 1.91-4.85 6.55 6.55 0 0 1 4.17-2.76c2.54-.28 6.48.66 7.66 1.84A5.09 5.09 0 0 1 52.37 15a14.51 14.51 0 0 1-.68 6 9.38 9.38 0 0 1-2.39 4.17c-2.6 2.54-6.62 3.1-7.85 7.17-.22-3 2.74-3.63 2.27-6.84zm5.46 14.9c-.14-.12.12-.45-.12-.55-.74.32-.66.92-1.84.79A5.1 5.1 0 0 1 45 39.54 6.39 6.39 0 0 1 43.05 38a6.9 6.9 0 0 1-.62-3.87c.25-3 2.54-4.51 4.3-5.76 2.15-.21 3.08 1.21 3.61 2.82-1.41-.5-2.78-1.06-4.23-.55a4.52 4.52 0 0 0-2.94 4.9 3.87 3.87 0 0 0 4.23 2.95 2.5 2.5 0 0 0 2-2.46c0-.92-.62-2.54-1.9-2.33-.86.15-1.7 1.83-.55 2.33.55-.38.13-1.57.92-1.59s.93 1.41.68 2.14-.79.72-1.17 1c-2.09.09-3.59-1.26-3.31-3.25a4 4 0 0 1 2.33-2.76c1.65-.51 3.34.37 4.54 1.1.09.36.5.4.43.92q.28 0 .24-.24a5.12 5.12 0 0 1-2.43 7.05zm17.23-15.11c-.11 3.3-2.53 6.77-6.13 6.75a3.48 3.48 0 0 1-2.7-1.23 3.89 3.89 0 0 1-1.47-3.74A13.25 13.25 0 0 1 57.4 23a2.27 2.27 0 0 1 2.51-1.47c2.11.43 2.56 4.83.37 5.52 0-.93-.23-1.9-1-2-2-.3-1.48 2.45-.43 2.82 2 .69 3.42-1.15 3.61-2.52.29-2-.92-3.88-2.2-4.23a2.84 2.84 0 0 0-2.27.49c-1.63 1.26-3.75 6.23-2.15 8.83a2.89 2.89 0 0 0-1.59.19c.28-1.54-.08-4.1.37-5.71a8.36 8.36 0 0 1 2.94-4.23 6.63 6.63 0 0 1 4.23-1.29c-1.84-.86-4.32.71-5.33 1.72a9.46 9.46 0 0 0-2 3.19c-.72 1.91 0 4.75-1 6.5-.31.59-1 1.1-1.23 1.72-1.18-3.31.18-6.34 1.41-8.53a13.07 13.07 0 0 1 2.58-3.61c1.5-1.28 3.45-2.83 6.19-2.27s4.11 3.95 4 7.19zm-7 1.41c-.17.05-.25.2-.49.19-.29-.28-.41-1.21.24-1.17a1.27 1.27 0 0 1 .2.98z" fill-rule="evenodd" fill="#c988ae" data-color="1"/>
        </g>
    </g>
</svg>
