<?xml version="1.0" encoding="UTF-8"?>
<svg data-bbox="0.003 0 76.888 52.679" viewBox="0 0 76.94 52.63" xmlns="http://www.w3.org/2000/svg" data-type="color">
    <g>
        <g>
            <path d="M35.86 27.56a.4.4 0 0 0 .07.29c.6.12 1.29.3 2 .44s1.44.49 1.9.08a25.53 25.53 0 0 0-3.97-.81z" fill="#c988ae" data-color="1"/>
            <path d="m42.09 28.15-.44-.22c-.1.27.35.36.44.22z" fill="#c988ae" data-color="1"/>
            <path d="M40.47 28.81c.27 0 .42-.46.15-.52-.01.21-.13.31-.15.52z" fill="#c988ae" data-color="1"/>
            <path d="M41.72 26.75c.05-.17.19-.54-.15-.51-.1.22-.08.45.15.51z" fill="#c988ae" data-color="1"/>
            <path d="M40.25 29.17c0 .13-.2.37 0 .44-.05-.18.36-.42 0-.44z" fill="#c988ae" data-color="1"/>
            <path d="M40.11 24.92c-.12.52.61.8 1 1.1.08-.56-.61-.83-1-1.1z" fill="#c988ae" data-color="1"/>
            <path d="M40.84 27.93a.31.31 0 0 1 .22.07c0-.16.17-.4-.07-.44.01.14-.16.18-.15.37z" fill="#c988ae" data-color="1"/>
            <path d="M42.75 26.39a1.64 1.64 0 0 0-.66-1.25.33.33 0 0 1-.15.3c.16.42.58.56.81.95z" fill="#c988ae" data-color="1"/>
            <path d="M46 20.82c.28-.11.26-.52.52-.66.32.5-.29.87-.08 1.24 1.15-.35.81-1.77-.29-1.9a2.22 2.22 0 0 0-.51 1c.18.1.15.35.36.32z" fill="#c988ae" data-color="1"/>
            <path d="M50.15 18.25a1.07 1.07 0 0 0-1.47.88c.57.29 1.32-.27 1.47-.88z" fill="#c988ae" data-color="1"/>
            <path d="M44 24c.77-.11 1.62-1.44.59-1.83a1.56 1.56 0 0 0-.81.88A4 4 0 0 1 44 24z" fill="#c988ae" data-color="1"/>
            <path d="M51.54 44.71a1.34 1.34 0 0 0 1.17-.59c-.38-.34-1.05.19-1.17.59z" fill="#c988ae" data-color="1"/>
            <path d="M51.91 43.1c0-1-.34-2-1.25-1.84-.15.85.74 1.27 1 2-.67 0-.84.58-1.53.59A7.9 7.9 0 0 0 48.61 41c.71.47.85 1.5 1.54 2a3 3 0 0 0-1.69-2.49c-.17 0-.08.21-.22.22-.05-.21-.73-.5-.88-.14a15.16 15.16 0 0 1 2.35 3.29c-.19.1-.23.15-.15.37a6.78 6.78 0 0 0 4-1.17c-.29-.66-1.06-.02-1.65.02z" fill="#c988ae" data-color="1"/>
            <path d="M43.85 22.14a1.52 1.52 0 0 0-.85 1.32c.55-.15 1.11-.87.85-1.32z" fill="#c988ae" data-color="1"/>
            <path d="M41.13 11.44c.34 0 .76-.34.66-.59-.21.08-.52.07-.73.15s-.06.25.07.44z" fill="#c988ae" data-color="1"/>
            <path d="M33.15 34.38c-.52.11-.77.51-1.1.8.57-.06.72-.55 1.1-.8z" fill="#c988ae" data-color="1"/>
            <path d="M34.47 13.42a4.44 4.44 0 0 0 1.46-1.69 2.4 2.4 0 0 0-1.46 1.69z" fill="#c988ae" data-color="1"/>
            <path d="M41.28 10.12c-.5.18-1.18.34-1.32.73 1 .15 2.39-.57 3.3-1a2.86 2.86 0 0 0-1.98.27z" fill="#c988ae" data-color="1"/>
            <path d="M34.47 14.15c.64-.18.91-.75 1.24-1.25-.56-.01-.93.78-1.24 1.25z" fill="#c988ae" data-color="1"/>
            <path d="M36.22 34.16c-1 .26-1.52 1.11-2.34 1.61 0 .1.28 0 .29.14a14.69 14.69 0 0 0 2.13-1.61c.01-.09.11-.15-.08-.14z" fill="#c988ae" data-color="1"/>
            <path d="M34.83 36.21h.44c.32-.7 1.92-1.15 1.54-1.83-.55.72-1.37 1.17-1.98 1.83z" fill="#c988ae" data-color="1"/>
            <path d="M37.62 33.79c-.19 0-.48.3-.37.37 0-.18.47 0 .44-.22-.06-.02-.08-.07-.07-.15z" fill="#c988ae" data-color="1"/>
            <path d="M31.61 35.26c.18 0 .41.31.51 0-.12-.08-.45-.26-.51 0z" fill="#c988ae" data-color="1"/>
            <path d="M32 34.45c-.4-.1-.51.06-.87.15-.3-.1-.43-.36-.74-.44 0 .37.7.65 1.1.88.06-.28.33-.38.51-.59z" fill="#c988ae" data-color="1"/>
            <path d="M29.56 33.79c.19.06.33.37.51.22-.07-.19-.44-.5-.51-.22z" fill="#c988ae" data-color="1"/>
            <path d="M34.17 13.34a8.15 8.15 0 0 0 1-1.39 1.74 1.74 0 0 0-1 1.39z" fill="#c988ae" data-color="1"/>
            <path d="M26.55 20.45a.36.36 0 0 0 .08.22c.34.54.68 1.21 1 1.83a5.15 5.15 0 0 0 1.1 1.69c-.55-1.35-1.33-2.48-2-3.74z" fill="#c988ae" data-color="1"/>
            <path d="M33.44 13c.66-.08.94-1.16 1.32-1.76-.65.07-1.12.96-1.32 1.76z" fill="#c988ae" data-color="1"/>
            <path d="M35.56 11a1.11 1.11 0 0 0 .15-1.1h-.22c-.04.27-.49 1.1.07 1.1z" fill="#c988ae" data-color="1"/>
            <path d="M48.76 20.31a1.66 1.66 0 0 0 1.61-1.18c-.69-.07-1.81.36-1.61 1.18z" fill="#c988ae" data-color="1"/>
            <path d="M53.3 19.43c.14-.05 0-.41.15-.44.21.24.37.55.73.66 0-.72-.63-1.75-1.47-1.62a.58.58 0 0 0-.58-.44c-.13.83.81 1.24 1.17 1.84z" fill="#c988ae" data-color="1"/>
            <path d="M57.4 31.44c-.08-.5-1.6-1.7-1.76-1-.09.56 1.16 1.31 1.76 1z" fill="#c988ae" data-color="1"/>
            <path d="M59.75 35.18c.26-.54.85-1.23.58-1.76a6.5 6.5 0 0 0-1.39 2.79c.53-.02.6-.61.81-1.03z" fill="#c988ae" data-color="1"/>
            <path d="M61.8 36.43a5.48 5.48 0 0 0 .88-1.76c-1.43 1.14-2 3.1-3.37 4.32a5.56 5.56 0 0 0 2.49-2.56z" fill="#c988ae" data-color="1"/>
            <path d="M55.28 18.25c.27.08.14-.24.29-.29 0 .32.51 0 .59.15s-.07.5.14.51a1.8 1.8 0 0 0-.44-2.2c-.3.14 0 .66-.14.81a1.06 1.06 0 0 0-.29-.44c-.91-.08-.57 1.21-.15 1.46z" fill="#c988ae" data-color="1"/>
            <path d="M61.58 34.89c-.1 0-.14-.11-.29-.07a1.86 1.86 0 0 0-.22.87c.32-.12.44-.43.51-.8z" fill="#c988ae" data-color="1"/>
            <path d="M62.83 36.13a29.18 29.18 0 0 1-5.35 5.13.29.29 0 0 0 .07.22h.22c2.8-1.69 5.43-4.21 6.45-7.4-.56.63-.9 1.4-1.39 2.05z" fill="#c988ae" data-color="1"/>
            <path d="M61 33.42c-.75.44-.8 1.59-1.31 2.27.72-.12 1.31-1.39 1.31-2.27z" fill="#c988ae" data-color="1"/>
            <path d="M51.83 35c.57-.49.51-2.56 0-3.08a4.4 4.4 0 0 0 0 3.08z" fill="#c988ae" data-color="1"/>
            <path d="M54.25 32.1a12.63 12.63 0 0 0-.51 3.08 5.57 5.57 0 0 0 .73-3c-.09-.01-.1-.1-.22-.08z" fill="#c988ae" data-color="1"/>
            <path d="M59.23 32.91c-.88-.07-.78 1.46-1.31 2-.32-1.57-1.59.26-1 1.17.26.13.38-.25.44-.07.05.46-.37.45-.29.95.5.26.78-.28 1.1-.44.11-1.52.83-2.27 1.06-3.61z" fill="#c988ae" data-color="1"/>
            <path d="M53.52 30.2a3.23 3.23 0 0 0 .88-1.69c-1 .47-1.39 1.6-1.91 2.57.48 0 .74-.68 1-.66-.22.19-.58.57-.44.88.72-.21 1.1-.89 1.54-1.39s1.08-1 1.24-1.69c-1.1.26-1.54 1.6-2.31 1.98z" fill="#c988ae" data-color="1"/>
            <path d="M53.08 32c0 1.2-.55 2.62-.37 3.52A4.48 4.48 0 0 0 53.3 32z" fill="#c988ae" data-color="1"/>
            <path d="M53.59 37c.17.47 1 .5.88-.29-.27-.24-.9-.15-.88.29z" fill="#c988ae" data-color="1"/>
            <path d="M57.77 30.79c-.11-.49-.76-1.47-1.17-.74.05.55.65 1.13 1.17.74z" fill="#c988ae" data-color="1"/>
            <path d="M37.18 9.39c-.54 0-.35.73-.52 1.1.26-.25.7-.66.52-1.1z" fill="#c988ae" data-color="1"/>
            <path d="M36.37 10.41c.28-.33.3-.92.51-1.32-.1 0-.12-.12-.22-.14-.27.24-.66 1.05-.29 1.46z" fill="#c988ae" data-color="1"/>
            <path d="M20.91 10.63c0-.23-.33-.16-.44-.29.24-.23.58-.35.51-.88-.78-.27-1.25.72-.95 1.54.37.17.9.08.88-.37z" fill="#c988ae" data-color="1"/>
            <path d="M54 18.62a2.44 2.44 0 0 0-.88-1.39c-.12.59.45 1.13.88 1.39z" fill="#c988ae" data-color="1"/>
            <path d="M75.65 29.83c.28-.39-.14-.71.22-1.1a6.57 6.57 0 0 0-.51-2.27 19 19 0 0 0-.52-2.05c-.24-.63-.6-1.11-.88-1.76a21 21 0 0 0-2.71-4.84 23.24 23.24 0 0 0-1.75-2 13.7 13.7 0 0 1-1.91-1.9c-1.26-1.92-1.21-4.69-2.93-6.38-.27-.06-.39.13-.52 0-.81-1-2.12-1.49-3-2.42-.08-.27.32-.33 0-.44-.2.12-.27.36-.44.52-.48-.36-1.22-.49-1.25-1.1-.93-.54-1.8-1.09-2.85-1.59s-2.21-.78-3.23-1.25A9.1 9.1 0 0 0 49.05.08C48.54.11 48 0 47.44 0 45.22.17 43 1.23 40.7 1.62a18.71 18.71 0 0 0-3.3.88c-1.06.37-2 1-3 1.24-.64.19-.91.43-1.39.59a6.16 6.16 0 0 1-2.2.15 22 22 0 0 0-10.93 2.41c0-.2 0-.39-.22-.36Q18.09 8.21 16.59 10c-2.94.76-4.86 2.52-7.11 4-.48 1-1.43 1.5-1.76 2.64-2.87 2-6.22 3.5-7.18 7.4-1.13 1-.16 2.47.07 3.74s-.31 2.6 0 3.81c.12.46.48.74.44 1.24.47.56 1.17.32 1.83.44.35.07.6.33 1 .44a24.53 24.53 0 0 0 4.62.74c.29 0 0 .11.15.22 2.16-.28 3.41-1.48 4.83-2.5a9.66 9.66 0 0 0 6-.29c1 1.54 4.45 1.48 6 .44 1.62 3.27 5 4.8 8.87 5.79.1-.32-.28-.16-.22-.44a3.47 3.47 0 0 0 1.1-.07c-.19.42-1 .25-1 .88 1.27.12 1.62-1.15 3.15-.81 1.81.4 4.65 1.42 6.08.51-.69 1.17-2.08 2-2 3.74-1.24.55-1.74 2.43-2.2 4.1-.22.81-.7 2.33-.07 3.08a1.35 1.35 0 0 0 .66 1.83c1.6.79 3.55.42 5.93.74.44 0 1 .29 1.47.36s1.26 0 1.69.15.59.37.88.37.57-.34.65-.22a10.15 10.15 0 0 0 4.25.22c.61-.14 1.08-.59 1.62-.74a8.75 8.75 0 0 0 2.27-.66c.24-.29.3-.77.66-.95a3.58 3.58 0 0 0 2.34.59c2.53-.21 4.76-1.84 7-3a20.61 20.61 0 0 0 6-4.1 9.79 9.79 0 0 0 1.39-4.4c0-.25-.25.32-.3.07.47-.8.62-1.92 1.1-2.71a12.08 12.08 0 0 0-1.15-6.82zm-1 2.86c-.35-.13-.35-.66-.44-1a6.53 6.53 0 0 1-.21-1.2 6.13 6.13 0 0 1 .62 2.2zm-.29 3.66c-.21-.09.06-.32.07-.44.19.09-.05.37-.1.44zm-.88-6.08a1.64 1.64 0 0 1-.36-.88c.34.05.26.54.33.88zm-8.06 9.09c-.5.56-1 1.16-1.46 1.68-.14 0-.14-.2-.37-.14-.21.43-.2 1.07-.59 1.32-.26-1.16.94-2.22 1.54-2.93s1.31-1.35 1.76-2c.08 0 0 .14.15.14a5.7 5.7 0 0 1 1-1.39c0-.23-.16-.23-.37-.22a6.43 6.43 0 0 0 .3-1.24c.09.44.48.5.88.29a23.15 23.15 0 0 1-1.1 4.1c-1.3.95-2 2.51-3.15 3.59V42c1-1.33 2.16-2.58 3.07-4-.71 0-1.23.85-1.69 1.36zM63.05 44c-.25-.4 0-.88.21-1.1.25.37-.06.84-.21 1.1zm3.07-17.52c.44.81.25 2.25.88 2.86.38-.74-.06-1.75-.07-2.57.88.51 2.2.59 2.2 2-.18.25-.54-.52-.88-.58-.28.17-.47 0-.73.14 0 1 1 .93 1 1.91-.34-.22-.34-.79-.81-.88-.24.49.43.75.15 1.32a3.09 3.09 0 0 1-.81.22c.11-.21.52-.11.59-.37-.67.42-1-.11-1.83-.07a10.4 10.4 0 0 0 .31-4zm-2.64-2.12a14.29 14.29 0 0 0-5.93.95c-.23 0-.16.33-.29.44-3.42.32-5.38 2.09-7.85 3.37.05-.49.15-.93.22-1.39 1.71-1.09 3.53-1.89 5.28-2.86s3.39-2.09 5.79-2.27c1.33-.1 2.5 0 3.74-.15.33.57.47 1.34.81 1.91-.24.2-.58-.11-1 0-.14-.28-.17-.66-.36-.88-.2 0-.25.1-.22.29-.19-.06 0-.47-.3-.44-.17.27.13.67.11 1.01zM45.09 34.45c-.48-.55 0-1.49.22-2.05.23 0 .19.19.37.22-.27 1.12-.06 2.73-.81 3.37a1.59 1.59 0 0 1 .22-1.54zm-1.32-2.35c-.06-.52.74-.82 1-1.24.23.61-.63.9-1 1.24zM45 30.56c-.17.13-.7.21-.89.52-.18-.33.31-.63.45-.88-.44-.35.13-1.1.51-1.32.06-.27-.45-.14-.22-.37.37-.77 1.46-.83 1.83-1.61-.06-.31-.56-.23-.66 0-.2-.25.41-.32.59-.44s-.11-.28-.08-.51c1.58-1.92 4-3 5.94-4.55 3.51-.49 7.33-.68 11.14-.87a.19.19 0 0 1 .15-.22 19.16 19.16 0 0 1 4 1.17c-.45.55-1.27 0-2-.08a10.84 10.84 0 0 0-1.47.08c-2.56.12-5.75-.23-7.69.44a.66.66 0 0 1-.15-.22 11.09 11.09 0 0 0-4.69 2.86 14.22 14.22 0 0 1 5.64-2.13c-4.4 2.5-9.69 4.03-12.4 8.13zm25.28 0a3 3 0 0 1-.49-1.56 4.58 4.58 0 0 1 .44 1.56zm-.37-2.27c.11 0 .19.11.29.15V29a2 2 0 0 1-.34-.71zM70 37c-.2-.75.58-1.17.88-1.68.16.29-.12.76-.15 1.1-.48-.04-.47.41-.73.58zm.58-.14a3.77 3.77 0 0 1-.51 1.83c.17-.53-.07-1.39.52-1.82zM68 38c.13-.94.56-2.22.73-3.37a1.28 1.28 0 0 0 .58-.3c-.1 1.28-.41 2.97-1.31 3.67zm.14.66c.11.47-.37 1-.66 1.31-.24-.59.42-.97.62-1.34zm-1.54-5.57c-.28-.56.53-.65.88-.81.02.59-.63.5-.92.78zm.66.14c0 .42-.48.4-.73.3a3.39 3.39 0 0 1 .69-.33zm-.58-1.32c0-.51.69-.42 1-.73.02.36-.59.64-1.04.7zm.88 2a2.28 2.28 0 0 0 .87-.36c.33.69-.68.68-1 1-.2-.2.1-.47.09-.69zm.58-2.93c.26 0 .39.11.37.37-.23-.06-.22.12-.44.07-.07-.27.09-.26.03-.49zm.66-.29h.3c0 .22 0 .44-.22.44.01-.28-.17-.27-.12-.49zm-.11-.69c.11.18.48.1.44.44-.24-.08-.53-.08-.44-.44zm.22 1.61a.55.55 0 0 0-.07.44c-.11.09-.3.09-.37.22-.13-.09-.29-.15-.29-.37.25-.1.39-.3.73-.31zm-.29 1.1c-.12.38-.62.36-1 .51.15-.39.66-.37 1-.53zm.22 1.1a.65.65 0 0 0 .07-.44c.17-.12.42-.16.59-.29.4.29-.3.7-.66.71zm1 .88h.36a2.55 2.55 0 0 1-.65 1.61 4.77 4.77 0 0 1 .24-1.63zm.14-3.59c.24.12.09.4 0 .58-.25-.13.02-.35-.05-.6zm.52 4.25c-.2-.09 0-.38 0-.51a.46.46 0 0 0 .29.07c-.04.24-.3.22-.34.42zm-.37-2.13a.41.41 0 0 1 .59-.44c-.04.34-.35.37-.64.42zm-.22-1c-.08.33-.47.36-.8.44.08-.32.46-.36.75-.48zm-.66-.3c.08-.21.06-.53.22-.65.2.06.26.27.29.51-.25-.03-.35.09-.56.1zm-.66-8.72c.13 0 .16.09.3.08.22.8.52 1.52.73 2.34a4.3 4.3 0 0 1-1.08-2.46zm-.74-5c.22.15 1 .5 1.11.9a8.08 8.08 0 0 1-1.16-.94zm.08 5c.3.71.46 1.55.81 2.2-.89 0-.84-1.6-1.32-2.27.05-.23.33.01.46.03zm-.14 2.06c-.9-.12-1.07-1.57-1.4-2.5 1.03.18.74 1.77 1.35 2.46zm-19.11 4.28c-.23-.2 0-1.12.22-1.39.24.2-.02 1.14-.22 1.39zm-.58.46c-.33-.23-.12-1.12.07-1.32.27.15-.17.78-.07 1.32zm-.66.44c-.16.07 0-.74-.08-1 .16-.12.04.69.08.98zm5.13-2.64c0 .07 0 .3.36.22a12.85 12.85 0 0 0-5.93 6.5c-.27.64-.26 1.5-.81 1.91 1.04-3.97 2.98-7.04 6.38-8.65zM65 22.5c.35 0 .62.12 1 .15a7.94 7.94 0 0 0 .66 2c-.21.21-.51-.11-.8-.07-.33-.75-.7-1.33-.86-2.08zm1.17 10.34c0 .49-.27.6-.73.58-.09-.42.34-.48.68-.58zm.08 1.61c.27-.07.42-.26.8-.22a4.85 4.85 0 0 1-1.46 3.3c.09-.82.48-2.01.61-3.08zm.51 5.86a.25.25 0 0 1 .15.15 13.84 13.84 0 0 1-2.35 2.86c.44-1.26 1.44-1.94 2.15-3.01zm-.51 2.13c.44-.57.94-1.1 1.32-1.69.29.89-.58 1.54-1.1 2.13a11.69 11.69 0 0 1-1.37 1.32c.05-.69.67-1.2 1.1-1.76zm.36 1.68c-.14-.57.91-1.17 1.18-1.83.3.08.45 0 .58-.22a4.85 4.85 0 0 1-2.42 2.71c-.17-.27.35-.53.61-.66zM69.35 42c.23-.09.05.23.29.14a19.51 19.51 0 0 1 2.27-3.44C72 40.18 70.78 41 70 42c-.6.74-1.06 1.47-1.62 2.12l-.87.22c.56-.84 1.27-1.52 1.84-2.34zm2.2-7.4c.61.84 0 2.54-.59 3.15a13.87 13.87 0 0 1 .59-3.15zm-.08-2.28c.2 0 .19.16.22.3-.17 0-.16.13-.36.07-.07-.23.06-.28.14-.37zm.15 6.16a13.9 13.9 0 0 1 .44-2.48c.37.16.17.73 0 .95.55.55-.12 1.18-.44 1.53zm1.25 1a2 2 0 0 1-.66.58c.05-.06.43-.72.66-.55zm-1.32 1.42c.24.21-.27.56-.08.73.29-1.3 1.71-1.47 2.42-2.34a9.12 9.12 0 0 1-4.39 4.32 16 16 0 0 1 2.05-2.71zm1.17-7c0 .23-.1.28-.15.44-.15-.03-.1-.5.15-.4zm.15 4c.24.63-.18.85-.44 1.17-.07-.24-.05-1.07.44-1.07zm-.66-4.69c.06-.21-.11-.19-.08-.37.28.05.39.42.08.44zm-.15 1.39c-.23 0-.06-.34-.22-.37s.21-.08.22-.22c.2.19-.06.4 0 .66zm0-8.21a2.09 2.09 0 0 1-.88-1.39c.57.26.69.9.88 1.46zM71 31.3c-.52-.49-.23-1.78-.44-2.57.56.43.44 1.85.44 2.57zm-1.5-7.55c.73 0 1 1.14 1.31 1.83-.9.15-.81-1.3-1.31-1.83zm-.08-3.15c.22-.17.42.31.59.44-.19.13-.44-.29-.59-.44zm-4.91-11a8.53 8.53 0 0 1-1.32-2 2.78 2.78 0 0 1 1.32 2.01zm-2.2-1.84c.53.33.73 1 1.17 1.4-.6 0-.78-1-1.31-1.32 0-.06.09-.05.14-.07zm-.22.74c-.18-.14-.5-.14-.51-.44.19-.06.42.22.51.45zM61.65 7c-.18 0-.22-.12-.36-.15.05-.3.39-.12.36.15zM60 8.65c.93.1 2 1 2.93 1.47.36.18.79.2 1.1.37a5.36 5.36 0 0 1 1.54 1.68c.11.26-.25.05-.22.22 1.6 2.36 3.84 4.08 5.42 6.45-2-1.89-4.24-4.16-6.52-6-.32-1.4-1.84-2.21-3.37-2.64.07-.25.42.2.51-.07-.79-.85-2.77-.51-4-.95-2.53.22-4.92 1.37-7.18 2.05a30.61 30.61 0 0 0-6.16 2.42c-2.45 1.3-3.9 3.63-5.56 5.71a24.8 24.8 0 0 0-2.35 3.3A13.19 13.19 0 0 1 33.88 26c-1-.09-1.84-.31-2.13-1.1.45.33 1 .15 1.76.07a24.61 24.61 0 0 0 2.79-3.27c-.2-.82.51-1.08.66-1.76.13 0 .15.09.29.07 1-1.67 1.25-3.61 2.42-5a10.86 10.86 0 0 1 2.56-1.76c.89-.55 1.79-1 2.64-1.61.23 0 .26.13.51.07 1.27-.81 3.12-1 4.77-1.46.24-.22-.18-.37 0-.52 1.25-.39 2.58-1.46 4.1-1.1 0 .33-.63.11-.58.52.55.37 1.8-.5 2.42-.08.08-.16.32-.16.51-.22s.23.16.36.22A6.77 6.77 0 0 1 60 8.65zm2.42 4.18c0-.1.13-.11.14-.22.46.18.7.57 1.1.81 0 .14-.24.05-.22.22a7 7 0 0 0-.66-.37c.14-.2-.11-.46-.39-.44zm-.3-.73c-.05.19-.21.28-.29.44-.19-.13-.47-.17-.66-.3 0-.27.28-.31.29-.58.28.05.4.34.63.44zM61 11.29a1.46 1.46 0 0 1-.44.59c-.24 0-.32-.22-.51-.29.12-.18.26-.33.37-.52a2 2 0 0 0 .58.22zm-1.1-.66a1.77 1.77 0 0 1-.51.51c-.36-.21-1.08-.41-1.1-.73a2.35 2.35 0 0 1 1.6.22zm-2.41.88a.93.93 0 0 1-.88.37c.05-.35.39-.4.87-.37zm-1.76 1.25c-.29.2-.45.53-1 .51.27-.27.59-.69.99-.51zM54.54 12c.18-.17.25-.44.59-.44a1.16 1.16 0 0 1-.59.44zm-2.41.66c.41-.59 1.3-.7 2-1-.18.86-1.62.07-1.46 1.31-.3-.07-.19-.45-.54-.36zM52.2 14a.8.8 0 0 0-.44.22c-.16-.12.13-.39.15-.58.09.09.28.15.29.36zm-5.28 1.4a3.24 3.24 0 0 1 .81-.15c-.14.05 0 .41-.15.44.1.16.27-.22.22-.44.84 0 .89-.72 1.25-1.17a5.87 5.87 0 0 0 2.05-.59c-.23.41.13.76.07.95a20.94 20.94 0 0 0-4.32 1.91c-.14-.2.15-.58.07-.95zm-.29-.81c-.23-.27 0-.4 0-.73 1.31-.55 2.66-1.44 4.18-1.54-.69.74-1.56.38-2.35.88S48 14.6 47 14.52a.68.68 0 0 0-.15-.52c-.24 0-.18.36-.22.59zm-.37 1.83c-.19-.22.11-.58.08-.88.21.24-.14.54-.08.88zm-1.54 1.17a1.16 1.16 0 0 1 .37-.95c.12.27-.01.92-.37.95zm-.43-.29a1.43 1.43 0 0 1-.52 1.1c-.11-.4.09-1.04.52-1.1zm-1.54-1.17v.36c-1 .55-1.47 1.71-2.42 2.35a14.62 14.62 0 0 1 2.86-3.52c.13.09.05.38.14.52a1.1 1.1 0 0 0-.58.29zm.25 2.49c-.28-.06 0-.38.07-.51.23.1-.01.38-.07.51zm-1.25.95a1.37 1.37 0 0 1-.43 1c-.15-.22.09-.68.07-1zm-.88 0a3.22 3.22 0 0 1-.73 2.27c0-.59.23-1.53.22-2.34.27-.04.3.13.55.07zm-1.17.74a4.16 4.16 0 0 1-1.39 3.37c.34-1 .63-2.68 1.43-3.37zm-3.3 5.27c-.19-.2.15-.48.08-.8.13 0 .15.09.29.07.56-.49.73-1.38 1.25-1.91a5.27 5.27 0 0 1-1.58 2.64zm.6.42c1.08.41 2.53.45 3.15 1.32-1-.19-2.21-.72-3.37-1 0-.24.22-.2.22-.32zm.22-3.45c.22.39-.34.64-.44 1-.2-.5.4-.7.47-1.05zm.22-.22a8.27 8.27 0 0 0 .51-.66c.05.12-.11.64-.48.61zm-1.39 1.91c.06.41-.52.8-.73 1.17a7.61 7.61 0 0 1 .76-1.22zM33.81 23c0-.46.77-.79 1-1.25-.02.45-.73.83-1 1.25zm2.71-4.18c.19-.2.21-.57.66-.51a10.51 10.51 0 0 1 1.1-2A19.89 19.89 0 0 1 37 19.13c-.17.17.13-.18.07-.36s-.33.08-.55.07zm.29.44c0 .16-.14.74-.51.73.15-.24.36-.45.51-.71zm12.75-16.1c1-.41 1.73.6 2.64.73a.32.32 0 0 0 .22.37c-.86-.17-1.86-.83-2.86-1.1zm2.57 1.68c-1.33-.36-3-1-4.47-1.46 1-.43 1.61.11 2.56.51s1.54.41 1.91.95zm-1.1-2A6.86 6.86 0 0 1 53.67 4 9.79 9.79 0 0 1 51 2.79zm3.59 1.56a3.16 3.16 0 0 1 1.47.74 3.53 3.53 0 0 1-1.47-.74zm2.12 1.69c-.13-.16-.6 0-.73-.15.1-.28.71-.1.73.15zm-1.46-.22c-.44.55-.87-.13-1.18-.37.43-.23-.32-.42.08-.66a1.86 1.86 0 0 1 1.1 1.03zm-1.1.37c-.24.06-.6-.31-.66-.66.29.1.67.49.66.66zm-.66 1.31c-.08-.27.25-.14.29-.29.19.1-.07.36-.29.29zm-.59-3.22c.17-.09.53.25.81.29-.25.52-.54-.18-.81-.29zm.3 1c-.22.18-.3-.24-.52-.29.12-.18.54-.04.52.24zm-.15.67a.5.5 0 0 1 .51.44c-.36 0-.51.21-.88.22.03-.3.29-.34.37-.66zm.07 1.68c-.2.19-.63.15-.88.29-.01-.06.59-.48.88-.27zm4.18.44c0 .19-.54.36-.51.07.09-.08.31-.05.51-.05zm-.51-2.71c.4-.06.94.37 1.24.66-.48.16-.96-.34-1.24-.64zm2.63 1c-.23.23-.48.06-.66-.14s.17-.13.3-.15c-.43-.57-1.28-.72-1.69-1.32a2.73 2.73 0 0 1 2.05 1.58zM57.18 4c-.24.12-.63-.24-.88-.36.25-.16.57.27.88.36zm-.29.81a1.76 1.76 0 0 1-1.39-1 3.45 3.45 0 0 1 1.39.96zM49.71.52c.09.24-.24.06-.15.29a37 37 0 0 0 5.2 2.57c.08.26.32.37.37.66-.91-.3-1.64-1.06-2.49-1.18-.13-.07-.16-.23-.22-.36-1.82-.33-3-1.34-4.54-1.91.58-.03 1.45-.28 1.83-.07zm-2.57.07a32 32 0 0 0 3.3 1.69c-1.74.1-2.85-1-4.47-1.32a7.49 7.49 0 0 0 2.71 1.39c-1.31.49-2.35-.91-3.73-.58.73.31 1.51.58 2.27.87-.91.54-1.85-.13-2.71-.29-.07.47 1 .38 1.24.81a9.7 9.7 0 0 0-5.42 3.44 7.77 7.77 0 0 0 2-1.39c.67-.48 1.46-.84 2.12-1.32.85.08 1.55-.46 2.35-.44a13.48 13.48 0 0 1 3.15 1 7.4 7.4 0 0 1 3 1.17 5.82 5.82 0 0 1-.44.66c-.41-.07-.42-.56-.8-.66-.14.47.45.8.73 1.1-.59.48-1.44.69-1.85 1.28 0-.39.54-.92.73-1.39-.76.29-1.46 1.28-2 2-.13-.18.31-.41.29-.73-.33 0-.68.54-1.24.51 0-.4.69-.72.88-1.17-.15-.3-.4-.27-.08-.59a3.82 3.82 0 0 0-2 1.25c0 .32.54.38.66.14.14.11-.26.27-.15.59.35.2.49-.2.74.15-.8.37-1.68.67-2.5 1a.36.36 0 0 0 .08-.22 16.8 16.8 0 0 0-6 3.66 5.47 5.47 0 0 0 2.09-1.2 13.59 13.59 0 0 1 2.12-1.31 31.38 31.38 0 0 0-5.27 3.95c.16.49-.13.57-.22 1-.14 0 0-.38.07-.44s-.29.19-.37.29c.34-.77 1.14-1.7 1.54-2.64-.17-.07-.52.31-.66.51-.1 0 0-.21-.14-.22-2.27 3.09-3.86 6.85-6.75 9.31a.27.27 0 0 0 .3.29.83.83 0 0 1-.66.59c0-.23 0-.44-.15-.51-.63 0-.5 1.41-.29 1.83-.15.26-.21-.18-.3-.22.28-4.81-.19-9.5 1.69-13a25.66 25.66 0 0 1 3.08-4.69A23.89 23.89 0 0 1 40.4 3.3 16.19 16.19 0 0 1 47.14.59zM9.33 17.15a13.62 13.62 0 0 1 2.35 2c-.34 0-.88-.39-1.32-.51.05-.57-.61-1-1.25-1.1a1.72 1.72 0 0 1 .22-.39zm-4 2.64h.22a.28.28 0 0 1-.29.3.51.51 0 0 0 .04-.3zm-2.81 2.35a2.78 2.78 0 0 1 .48 2.2c-.18-.05 0-.45-.15-.52s-.14.2-.37.15a6 6 0 0 1-.44-1 9.17 9.17 0 0 0 .48-.83zm.36 4c-.13.19 0-.43-.07-.59s.05.39.07.55zm-1.76.43a.87.87 0 0 1-.12-.91.58.58 0 0 1 .12.87zm.51-2.71A2.41 2.41 0 0 1 2.15 25c-.14.23-.34-.06-.44.22-.14-.19 0-.6-.29-.66-.01-.32.2-.44.21-.74zm-.14 7.84a12.47 12.47 0 0 1 .07-2 27 27 0 0 0 2 2.63 2.2 2.2 0 0 1-2.07-.67zm.66-5a16 16 0 0 0 1.61 4.4 6.66 6.66 0 0 1-1.61-4.42zm1.39-4a3.36 3.36 0 0 1-.54-1c.14-.52.61-.71.87-1.1.3.11.19.65.37.88-.24.37-.63.63-.7 1.17zm.59 1.17a6.12 6.12 0 0 1 4-2.2c1.34-.64 2.54.54 3.45 1A22.59 22.59 0 0 1 10 24.92c.1-.73.9-1.39 1.25-2.12-.61 0-.93.71-1.25 1.17a22 22 0 0 1-1.7 2.42 1.75 1.75 0 0 0 1.25-.66c.14.92-.82 1.38-1.25 2a1.23 1.23 0 0 0 1-.52c0 .4-.85.62-.88 1.25.85.13 1.1-.94 1.91-1.1-.63.75-1.59 1.15-2 2.13 1 .27 1.72-1.45 2.49-1.69 0 .12 0 .28.07.29-.64.75-1.51 1.27-2.12 2.06A4.86 4.86 0 0 0 5 29.32a19.43 19.43 0 0 1 2.42-5.2 4.3 4.3 0 0 1-.59 1.39c1-.65 1.14-2.08 2.05-2.79-.66-.67-1.7.53-2.34.81a11.12 11.12 0 0 0-2.28 4c-.2-.9-.64-2.89-.13-3.71zm7.69-1c.17 0 .08.21.22.22a2.32 2.32 0 0 1-.88 1.17c-.07-.54.55-.94.66-1.46zM11 28.73c0 .92-1.26 1.52-1.76 1.91.38-.86 1.29-1.17 1.76-1.91zm-1-2.56c.28-.51.45-1.12.95-1.39a1.59 1.59 0 0 1-.95 1.39zM4.79 30c.41.23.47-.05 1 0a13.28 13.28 0 0 1-1.1 1c-.21-.31.02-.64.1-1zm1.53.66c-.31-.57.22-.63.74-.44a11.66 11.66 0 0 1-1.76 1.66c.22-.53.7-.82 1.02-1.24zm1-.29c.23 0 .28.1.44.14-.73.52-1.23 1.26-2 1.76a14.2 14.2 0 0 0 1.52-1.92zm1.32.51c-.69.5-1.13 1.59-2.13 1.54.67-.49 1.12-2.05 2.09-1.56zm-1.1 1.9c.37-.65 1-1 1.46-1.61 0 .7-1 1.15-1.5 1.59zm3.37-1.83c-.62.7-1.09 1.56-2.13 1.76-.28-.14.44-.47.52-.73.22-.06.21.12.44.07.89-.87 1.7-1.82 2.64-2.64-.38.53-.96.9-1.51 1.52zm2.2-1.1c0-1.14 1.48-3 .29-4a7.84 7.84 0 0 0-1.76-4.32c-.39.29.17.71.15 1.1-.29-.2-.22-.76-.59-.88 0-.11.22 0 .22-.15-.67-.81-1.83-1.75-3.15-1.24C7.14 20.72 6 21.72 5 22a8.47 8.47 0 0 0-.59-1.9c.64.22.37 1.33 1 1.53.38-.1.14-.67 0-.87A4.61 4.61 0 0 1 7 20.09a1 1 0 0 0 .23-.66 2.78 2.78 0 0 1 2.12.22c.09-.36-.21-.33-.37-.44a11 11 0 0 1 3.23 1.61c.22.05.21-.13.44-.07a2.75 2.75 0 0 1 .73 1.61c.21 1.92 1.56 5.69.29 7.55-.04-.2-.53-.37-.6-.08zm1 1.32c.08-.24.3-.34.37-.59.3.07.39.35.66.44a4.06 4.06 0 0 1-1.05.13zm1.39-1.24a6.27 6.27 0 0 0 1.91-2.42c-1.06.43-1.34 1.63-2.2 2.27-.49-.29.14-.86 0-1.47a5.23 5.23 0 0 0 1.54-2c-.61.07-1 1-1.46 1.47-.52-.86.89-1.31.66-2.12-.41.18-.5.68-.74 1-.15-.77.78-1.08.88-1.83-.47-.09-.67.69-1 1-.09-1-.77-2.22-.37-3C14 19.84 12 18 9.84 16.35c1.35-2.78 3.92-4.34 6.6-5.79.25 0 .14.39.36.44a22.52 22.52 0 0 0-1 7.33c.05.69.35 1.46 0 2.12.17.18.22-.09.29-.22 0 .34.22.74.15 1.32a1.53 1.53 0 0 0-1 1.25c.39 0 .75-.58 1-.88a18.91 18.91 0 0 0 1.54 6.37 13.65 13.65 0 0 0-1.54 1.84c-.32-.02-.43-.23-.76-.22zm1.32.44c.09-.54.77-1.09 1.1-1.62.08 0 .05.15.15.15a4.34 4.34 0 0 1-1.27 1.45zm1 .14c.11-.35.4-.52.58-.8a2.81 2.81 0 0 1 .52.95c-.51 0-.72-.19-1.16-.17zM21.35 32a25 25 0 0 1-3.59-6.74 9.43 9.43 0 0 1-.76-4.51c.09 0 .06-.14.07-.22.62.69.28 2.35.81 3.15.16 0 0-.26.07-.37.18.29.18.75.37 1-.07.31-.52.26-.44.73.18.22.48-.06.73 0a17.81 17.81 0 0 0 4.33 6.74 2.78 2.78 0 0 1-1.59.22zM24 26.53c-.35.46-.82.85-1.25 1.32S22.12 29 21.57 29c-.11-.51.52-.72.81-1 .56-.6 1-1.38 1.53-2 .17.05.03.38.09.53zm-.08-1.61c.22.75-.8 1.51-1.32 2.13s-.89 1.27-1.39 1.46a.33.33 0 0 0-.15-.29q1.47-1.59 2.85-3.3zm-2.93 3a2.2 2.2 0 0 1-.51-.88c.57-.31 1.19-.57 1.76-.88.18 0 .09 0 .07.14A9.43 9.43 0 0 0 21 27.93zm3-3.52c-.4.43-.81.85-1.18 1.32-.19 0-.42 0-.51.07-.27 0-.91.67-.81.37a23.06 23.06 0 0 0 2.42-2.79c.17.21.03.72.09 1.04zm-3.59 2.5c-.19-.2-.27-.51-.44-.73.72-.53 1.52-1 2.27-1.47a15.45 15.45 0 0 1-1.83 2.2zm2.27-2.78c.14-.54.93-1.07 1.32-1.62.12.81-.89 1.12-1.32 1.62zm-3 1.54c-.1-.75.81-1.05 1.32-1.4a7.51 7.51 0 0 0 1.61-1.17c-1.14.18-2.15 1.51-3.29 1.69-.07-.47.57-.69.88-.88 1.14-.73 2.54-1.57 3.66-2.35.2-.05.15.15.29.15a10.31 10.31 0 0 1-4.48 3.96zM22 29.61c.55-.81 1.27-1.46 1.83-2.27.27.61-.16 1.15-.37 1.54-.72-.04-.85 1.32-1.46.73zm1.17 1.32c.37-.53.49-1.31.95-1.76.13.45-.57 1.31-.94 1.76zm1-9.74c-.14-.11-.19-.31-.37-.37s0 .35-.15.37c-1.62.89-3.1 1.92-4.76 2.78 0-.32-.25-.43-.22-.81a22.08 22.08 0 0 0 3.81-2.34c-.52-.33-1.45.4-2.05.73s-1.36.88-1.91 1.25c-.24-.18-.24-.59-.36-.88a5.07 5.07 0 0 0 2.27-1.25 6.59 6.59 0 0 0-2.34 1.1c-.68-1.18-.18-3.53-.45-5.13-.2.56-.06 1.45-.21 2.05a4.1 4.1 0 0 1-.08-2.12c.28-2.74-.19-6.18 1.61-7h.37a6.25 6.25 0 0 1 2.71-1.32c.21.38-.32.45-.36.8.54-.11 1.09-.22 1.31-.66-.4-.58.31-.77.66-1C22 7 20.5 8 19.22 8.51a15.08 15.08 0 0 1 7.18-2.79c-.25.37-.35 1.23.23 1.32-.07.35-.44.4-.52.73.56.37 1.05-.53 1.47-.8 0-.28-.35-.24-.52-.37.08-.43.39-.64.52-1 1.34-.08 2.81 0 4.1-.15-.37.65-1.06 1-1.54 1.54a33 33 0 0 0-3.44 5.64c-.1.08-.27.07-.37.15A33.45 33.45 0 0 1 25 16.57c.06.05.2.11.22 0-.11.5-.62 1.87-.88 2.71-.09.39-.16-.33-.44-.22-.07.68.73 1.24.31 2.13zm7.33 10.25c-.17.29-.74-.24-.81-.29a16 16 0 0 1-3.37-2.93 14.3 14.3 0 0 1-1-1.17 23.71 23.71 0 0 1-.58-3 26.55 26.55 0 0 1 3.26 5.2c.43.34.77.75 1.32 1.17.2.17 1.4.7 1.22 1.02zm.36 1.25a1.06 1.06 0 0 0-.29.22 8 8 0 0 1-2.35-2.27c.46.26 1.59.84 1.69 1.46.47-.1.77.28.99.59zm-5.2-4.62c.19.05.15.34.36.37 0 .1-.18.06-.29.07.09-.22-.03-.26-.03-.44zM29.19 31c-.76-.41-2.1-.88-2.27-2.12 1.08.42 1.48 1.45 2.27 2.12zm-3.59-8.72c.86 1.35 1.82 2.58 2.56 4-.94-1-1.62-2.38-2.56-3.44zm-.44 5.65a3.61 3.61 0 0 1-.29-2.35 64.83 64.83 0 0 0 2.49 7.55c-1.63-.75-2.36-3.13-2.2-5.2zm2.2 2.49a9 9 0 0 1 1.83 1.24c.61.46 1.39.85 1.69 1.54-.55 0-1.08-.52-1.69-1s-1.6-.84-1.83-1.78zm12.09 3c-.49.61-.79 1.28-1.83 1.47-.58.4-.8 1.16-1.47 1.46 0 .19.1.26-.07.37a8.84 8.84 0 0 1-3.08-.66c.34-.76 1.49-1.09 1.61-1.83-1.35 0-1.84 1.77-3.15 1.76-.06-.24.12-.23.15-.37-2.08-.42-3-2-3.74-3.74a28.79 28.79 0 0 1 2.64 1.76c.56-.09 1.06-.79 1.61-.44 0 .09 0 .13.08.15-.06.63-.87.5-1.4.66a5.41 5.41 0 0 0 1.61 0c.6-.15.87-1 1.4-.81.25.35-.19.52-.3.74.41-.13.55-.53 1-.66.25-.05.26.25.14.36A9.42 9.42 0 0 0 36 33.2c0-.28-.59 0-.58-.36.86.35 1.35-.08 2.13-.3-.1-.24-.62.36-.67-.07 1-.4 1.39-1.33 2.06-1.83 0-.18-.34 0-.22-.22.46 0 .47-.67.51-1-.4-.06-.31.37-.59.44-1.66-.37-3.25-.8-4.83-1.24-.24.3-.5.23-.88.29.51.68 1.71.68 2.56 1-.79.37-1.87-.56-2.71-.37-.06.33.24.3.44.37-.22.34-.6.52-.88.8-.4-.16-.62-.5-1-.66 0-.26.21-.33.23-.58a.71.71 0 0 0-1-.22 7.67 7.67 0 0 1-2.35-2.64c0-.21.35-.09.3-.37a12.78 12.78 0 0 0-2.06-3.66c-.37-.56-.89-.9-.65-1.69.89 1.5 1.9 2.88 2.78 4.4-.4-1.85-1.84-3.29-2.71-4.91A29.67 29.67 0 0 1 30 10.05a15.72 15.72 0 0 1 7.84-6.6c-1.54 1.12-3.14 2.19-4 4-.18.19-.16-.15-.44-.07-1.91 2.82-2.69 6.78-3.62 10.62-.11.28.2.14.14.37a18.25 18.25 0 0 0 .52 8.5c.66.34 1.36 1.59 2.49 1.46 0-.54-.54-.53-.73-.88a2.71 2.71 0 0 0 2.63-.22c-.18.55-1 .44-1.24 1a.82.82 0 0 0 .88 0c1.22.26 2.56.61 3.88 1 .35.09.94.42 1.17 0a19.56 19.56 0 0 0-4.61-1.17c.52-.48 1-1 1.61-1.4 1.31.35 2.76.57 3.37 1.62.11-.11.33-.48.07-.52.24 0 .31-.24.44-.51-.53-1.05-1.93-.88-3.15-1.32a13.69 13.69 0 0 1 2.49-2.12c.69.41 1.14 1.05 1.83 1.46.14 0 .06-.24.22-.22a8.23 8.23 0 0 0-1.68-1.54 34.23 34.23 0 0 1 6.37-5.64 11.74 11.74 0 0 1 1.76-1.25 29.7 29.7 0 0 1 4.4-1.61 22.68 22.68 0 0 1 2.36-.79 24.64 24.64 0 0 1 4 0 10.45 10.45 0 0 1 4.47 1 12.6 12.6 0 0 1 1 .88c1 .78 1.93 1.57 2.86 2.49-1.45-.66-2.62-2.22-4.25-2.93.17.63 1 1.06 1.61 1.54a5.19 5.19 0 0 1 1.68 1.61C65.09 18 64.06 17 62.75 16.2c.11.5.84 1 1.32 1.39s1.13.84 1.61 1.25a26.47 26.47 0 0 1-3-2.2c-.32-.25-.63-.63-1-.58 1 1.25 2.54 2.06 3.74 3.15-.49-.06-.87-.5-1.25-.81a28.28 28.28 0 0 0-3.73-2.86 5.05 5.05 0 0 1 2.19 0 11.17 11.17 0 0 0-6.25-.54c-.26 0 .13.32-.08.29-2.21 0-4.35.26-5.79 1.25a23.65 23.65 0 0 1 9.82-.66c0-.34-.52-.26-.8-.37 0-.16.41 0 .58-.07 1.39 1.3 2.94 2.44 4.4 3.66-.52.24-.94-.34-1.25-.58a26.38 26.38 0 0 0-3.44-2.42c-.06.46.53.6.81.8a30 30 0 0 0 3.08 2.2c-1.62.15-3.48 0-5 .3-.24.05-.13.33-.22.36-4.74 0-8.53.9-11.14 3-.07-.05-.07-.17-.22-.15a10.86 10.86 0 0 0-4.9 6.39c-.18-.2-.55-.22-.8-.36-.83 1.49-1.64 3-2.57 4.39.4 0 .37-.72.81-.44.33.26-.2.41-.22.83zm-7-1.1a.54.54 0 0 1-.55-.32c.25-.19.6-.15.66.22-.07-.01-.13.02-.15.1zm.52 1c-.16.07-.28.38-.44.22a.26.26 0 0 1 .4-.19zm.66-2c-.22.17-.4-.2-.66-.22.09-.1.57.07.62.27zm-.37-.58c0-.1.13-.12.15-.23s.05.25.22.23c-.11.26-.28 0-.41.05zm3.66-.88c-.19-.17.79.18 1.1.22-.39.24-.81-.08-1.14-.17zm.88 1.32c-.07.22-.35.52-.66.29.07-.15.36-.47.62-.24zm-.44-.74c-.4.14-1-.17-1.39-.29.18-.15.92.3 1.35.34zm-.66.37c-.25.6-.94.19-1.46.07.22-.57.83-.06 1.42-.02zm-1.31.95c-.23.34-.7.31-1.1.15.13-.46.63-.25 1.06-.1zm-1 .66c-.13.19-.51 0-.59-.07.07-.16.32.15.52.12zm-.73-2c.13-.66.75-.15 1.24-.14-.28.57-.83.23-1.31.21zm7.54.07c-.22.06-.21-.12-.43-.07a2.81 2.81 0 0 1 .29-.66c.23 0 .28.11.44.15a1.52 1.52 0 0 0-.37.65zm.23.44c-.07.19-.21.29-.23.52-.33.01-.14-.45.16-.45zm-.59 1c.3 0-.09.35-.07.51-.3-.04.04-.21 0-.44zm-.37-.88c-.06-.23.12-.23.15-.36a.46.46 0 0 0 .29.07c-.07.46-.22.46-.51.39zm1.25-1.1c.22 0 0 .67-.29.66-.03-.17.2-.26.22-.56zm-.44-.58c0-.18.28-.16.22-.44a1.53 1.53 0 0 1 .66.07c0 .26-.14.35-.15.59-.34.05-.53-.08-.8-.12zm-1.47 2.85c.06-.25.11-.52.51-.44-.05.42-.27.78-.58.54zm.19 1.64c0-.18.12-.22.15-.36.26-.03.09.5-.15.36zm.29 2.35c.72-1.17 1.35-2.68 2.13-4 .2-.33.36-1.11.95-.88-.21.69-.68 1.13-.88 1.83.88.3 1.22-.4 1.84-.73-.15.44-.61.57-1 .81.17.1.36.7.52.36a1.07 1.07 0 0 1-.66 1.1.94.94 0 0 1-.37.88c-.38 0-.44-.34-.59-.58-.35.1-.28.64-.66.73-.16 0-.1-.14-.21-.15-.42.29-.64.81-1.11.63zm2.2 1.39c-.62-.15-1.17-.39-1.75-.59.75-.34 1.2-1 2.12-1.17-.29.42-.74.68-1 1.1.69.26 1.22-.62 1.84-.88.4.84-1.22.73-1.25 1.54zm-2.16 11.87v-.73c.37 0 .44-.2.58-.37.44.05.64.34 1.18.3-.19.42-.6.62-.66 1.17-.35-.14-.83-.15-1.1-.37zm4.47.81c0-.29.3-.29.36-.52.07.08-.16.47-.36.52zm-1.17.07c-.59.12-1.13-.29-1.84-.37.65-.28.68-1.18 1.4-1.39.14.28-.67.84-.88 1.25 1.07.41 1.24-1.34 2.2-1.54A21.79 21.79 0 0 1 43 50.13c1.22-.34 1.72-1.41 2.42-2.27-.21.43-.97 2.32-1.79 2.49zm3.81.51c0-.3.21-.32.14-.65-.56-.1-.36.56-.88.51.25-.54.7-.87.74-1.61-.73.19-.58 1.28-1.32 1.46.35-.73 1.09-1.44 1.1-2.27-.57.24-.78 1-1.18 1.54 0 0-.36.41-.22.07a14.44 14.44 0 0 0 1.25-2.27A22.23 22.23 0 0 0 48.39 51c-.21.15-.62-.15-.95-.14zm-1.76-1.75a14.49 14.49 0 0 1 1.24-2.2c.08.93-.92 1.44-1.24 2.2zm1.54-2.86c-.08-.28.18-.21.14-.44s-.19-.07-.44-.08a7.32 7.32 0 0 0-2.78-2.63c-.08.2-.82.21-1.1.44 1.38.59 2.91 1 3.44 2.49-.42.43-1.16 1.15-1.76.95a1.79 1.79 0 0 1-1 .59c-.29.09-.18-.22-.37-.22a2.79 2.79 0 0 1-1.32.44c-.34 0 .22-.28-.07-.44a2 2 0 0 0-1.54 1 8.3 8.3 0 0 1 2.2-6.45A4.3 4.3 0 0 1 46 43a8.54 8.54 0 0 1 1.61 1.32c1.26 1.64.83 4.39 1.76 6.38-1.08-.84-1.45-3.01-2.15-4.45zm3.29 3c0-.21-.16-.22-.14-.44.17.14.49-.05.73-.07a.55.55 0 0 1-.59.51zm1-1.54c-.17.52-.89.48-1.18.88-.27-.21-.27-.7-.51-1a7.74 7.74 0 0 0 1.76-.73c-.27.36-.92.35-1.1.8.08.55.73.1.99.05zm0-1.32c-.65.15-1.39.94-1.84.81.18-.38.71-.57 1.1-.81a25.23 25.23 0 0 0 3.6-2.34c-1.7.5-3.18 1.86-5 2.49A8.54 8.54 0 0 0 43 40.61a30 30 0 0 1 2.2-2.28c2.51-2.13 6.07 0 7.69 1.83-.13.17-.54.05-.58.3.86.68 2.42 1.77 2.41 3.15 0 .38-.3.62-.36 1-.88.37-1.68 1.19-2.57 1.31-.12.14-.19.34-.32.47zm3.59-1.32c-.13 0-.16.09-.3.08.08-.15.15-.29.22-.44s-.02.29.04.36zm-1 .22c-.05.29-.35.64-.65.44a1.32 1.32 0 0 1 .65-.44zm-1.9 2.13c0-.33.38-.3.51-.51.15.19-.25.47-.51.51zm-.07-.81c0-.33.46-.27.58-.51.16.23-.34.44-.58.51zm.95 3.08c0-.42.53-.4.73-.66.2.07-.1.23 0 .44-.24.06-.48.39-.73.22zm.66.22c.07-.19.34-.2.44-.37.09.08-.18.46-.44.37zm.36-.59a4.64 4.64 0 0 1 1-1.17 1.35 1.35 0 0 1-1 1.17zm.15-3.32c.22-.2.65-.57.88-.52.02.52-.45.69-.88.52zm1.32 4.91c-.13-.14.32-.31.37-.52.15.19-.17.5-.37.55zm.73-7.77c0-.16.31 0 .44-.07-.09.15-.2.28-.29.44s.06-.37-.15-.34zm.08 2.42a1.89 1.89 0 0 1 .14 1.17 2.46 2.46 0 0 1-.14-1.14zm.07 3.66c-.15-.22 0-.75.07-1 .21.29-.04.78-.07 1.03zm.07-1.39a1.32 1.32 0 0 1 .08-1c.25.07-.02.79-.08 1.03zm.48-3.49c.43.25-.2.6-.22.88-.4-.28.03-.66.22-.88zm-.14 1.17c0-.19.33-.15.36-.36.09.07-.22.56-.4.36zm.51 1.62c0-.3.16-.53.44-.59a.8.8 0 0 1-.48.59zm.37-3.23c-.23 0-.27-.22-.59-.14a1.92 1.92 0 0 0-.51.73c-.2 0 .07-.41-.22-.29a3.25 3.25 0 0 1 1.32-1.4c.27 0 .17.46.36.59-.1.22-.39.23-.4.51zm.44-.14c.23.19-.13.41-.15.58-.28-.2.08-.41.11-.58zm0 1.1c0-.23.11-.43.36-.44.01.31-.23.58-.4.44zm.43.87c-.24-.12-.13-.57 0-.73.11.1.06.62-.04.73zm2.2-1.09c-.23 0-.26-.51-.14-.66.25.02.04.45.1.66zm-.36-1c-.19-.06-.19-.3-.3-.44.36-.48.86-.81 1.18-1.32.25.85-.73 1.12-.92 1.73zm-.45-.91c-.2-.09-.21-.38-.44-.44-.15 1 .66 1.82.51 2.71a10.13 10.13 0 0 1 .37 3.59 1.57 1.57 0 0 1-.88-.66A11.14 11.14 0 0 0 57 40.82c.14.72.6 1.12.74 1.84a10.86 10.86 0 0 0-1.54-.08c-.14-.25-.22-.56-.37-.8.3-.56.78-.93 1.1-1.47-.57-.37-.9.69-1.46.81-.66-.61.16-1 .36-1.61-.53 0-.53.49-.95.58-.5-.77.73-.87.73-1.61-.48-.37-.77.55-1.24.66-.16-.16-.23-.41-.44-.51.22-.34.73-.4.73-1 0-.08-.15-.05-.15-.14-.42.09-.51.51-.8.73-.86-1.09-2.6-1.48-4.26-2.2-.73-.32-1.22-.87-1.9-.44.16.47-.18.27-.15.73-.23.06-.36-.07-.8 0 1.69-2.13 2.89-4.77 5-6.52.16 0 0 .26.07.37s.28 0 .3-.15c.13.21-.32.47-.3.81.85-.28 1.14-1.11 1.69-1.69 0-.09-.13-.11-.15-.22a3.89 3.89 0 0 0-1 1c.18-.75 1.29-1.2 2-1.69a.37.37 0 0 0-.43-.29c1.49-.56 2.79-1.37 4.76-1.25.22.62-.5.63-.59 1.32.6.33 1.06-.62 1.61-.81.33-.28-.44.47-.58.66 0 .11.11.19.14.3.59-.11.85-.53 1.25-.81.23.19.59.24.66.59.31-.13 0-.87.51-.81.13.32.18.71.44.88.35-.15-.18-.81 0-1 .6 0 .35.83.81 1 .21-.29 0-.75-.08-1 .45.09.25.83.74.88.37-.2-.06-.6 0-1 .44.29.25 1.21.88 1.32.46-.37-.3-1-.08-1.4.6.24.29 1.38 1 1.47.38-.37-.55-1.23-.15-1.61.45.31.06 1.46.81 1.46a11.9 11.9 0 0 1-.44 2.2c-.71 0-1 .37-1.61.52 0-.35.32-.46.44-.74-.31.17-.11-.49-.37-.58-.57.08-.22 1.1-.8 1.17 0-.52.35-1.17 0-1.54-.44.37-.39 1.23-.45 2a9 9 0 0 1-1.53 1.1c.1.48.8.08 1-.08.15 0 0 .33.22.3.38 0 .39-.35.73-.37 0 .53-.77.4-.95.81 0 .08.13.06.22.07-.08.31-.86-.08-.73.44 1.72.27 2.74-1.16 4.25-1.1l-3.37 1.61c.69.66 1.81-.5 2.71-.58a18.38 18.38 0 0 0-.66 3.51 14.57 14.57 0 0 0 .81-2.93 1.1 1.1 0 0 0 .51.15 17.18 17.18 0 0 1-.44 3.52c-.43 1.32-2 2-2.42 3.08-.41-.65.46-1.22.88-1.69a9 9 0 0 0 1.32-1.69c0-.06-.08-.07-.08-.14-.65.19-1 .86-1.39 1.32A35.17 35.17 0 0 0 60 42.73zm4.91-11.94a1 1 0 0 1 .51-.37c-.05.27-.33.28-.54.37zm.37.36c-.4.47-1.19.52-1.69.88-.08-.52 1.32-1.03 1.66-.88zM62 43.54a1.43 1.43 0 0 1 .22-1.4 1.45 1.45 0 0 1-.22 1.4zm-.2-1.84c0-.53.29-.69.44-1a.72.72 0 0 1-.44 1zm.73 7.7c-.33-.16.26-.41.3-.66.38.35 1-.07 1.17-.37 0 .54-.94.77-1.47 1.03zm9.6-5.72c0 .18.14.36.08.52-.42 1-3 2-4 2.49a37.73 37.73 0 0 1-4.32 2.12c.16-.32.39-.43.29-.66 2.81-1.73 6.07-3 8.43-5.2.11.36-.41.42-.48.73zm1.62-3.07c-.06 0 .47-.69.58-1 .17.39-.33.78-.58 1zm-.15-1.69c-.13-.74.51-1.34.88-1.83.33.77-.42 1.25-.88 1.83zm1-5.79c.33 0 .22.46.3.73-.29-.01-.33-.59-.28-.73zm.3 1.17c.22 0 .18.26.22.44-.31.03-.25-.27-.2-.44zm.14 1.18c0-.23.08-.27.08-.44.24-.04.23.52-.06.44z" fill="#c988ae" data-color="1"/>
            <path d="M21.2 17.45c-.78.05-1.51.78-2.12 1.24a3.77 3.77 0 0 0 2.12-1.24z" fill="#c988ae" data-color="1"/>
            <path d="M61.73 28.51a5.41 5.41 0 0 0-.3 2.72c.29-.63.73-2.08.3-2.72z" fill="#c988ae" data-color="1"/>
            <path d="M7.5 26c.27.07.33-.44.44-.29-.12.1-.07.37-.08.58.56-.1.69-.81 1-1.24s.8-.89.73-1.4c-.77.33-1 1.19-1.54 1.76.28-.63.69-1.11 1-1.76A4.06 4.06 0 0 0 7.5 26z" fill="#c988ae" data-color="1"/>
            <path d="M21.49 18.18c-1 .89-2.59 1.12-3.29 2.27.72.05 1.29-.58 1.9-.95s1.48-.57 1.76-1.25c.01-.15-.26-.03-.37-.07z" fill="#c988ae" data-color="1"/>
            <path d="M41.65 8.73a3 3 0 0 0-2.42.51c.54.64 1.98-.1 2.42-.51z" fill="#c988ae" data-color="1"/>
            <path d="M40.25 10.05a4.22 4.22 0 0 0 2.57-1 2.89 2.89 0 0 0-2.57 1z" fill="#c988ae" data-color="1"/>
            <path d="M22.38 9.9a2.92 2.92 0 0 0-.59 1.76c.92-.14 1.73-.74 1.54-1.76-.33-.17-.57.04-.95 0z" fill="#c988ae" data-color="1"/>
            <path d="M21.28 15.69c.22 0 .21.13.44.07 0-.14.2-.13.14-.36a.37.37 0 0 0-.58.29z" fill="#c988ae" data-color="1"/>
        </g>
    </g>
</svg>
