<?xml version="1.0" encoding="UTF-8"?>
<svg data-bbox="0.024 -0.002 60.403 40.699" viewBox="0 0 60.43 40.71" xmlns="http://www.w3.org/2000/svg" data-type="color">
    <g>
        <path d="M56.93 22.12a10.17 10.17 0 0 0-2.68-1.33c-2-.44-3.31 0-5 .06a55.94 55.94 0 0 0-2-5.25 12.71 12.71 0 0 1-.99-1.6 12.71 12.71 0 0 1 0-3.94c.12-1.54.44-3.15.59-4.76A10.19 10.19 0 0 1 49.66 4a.88.88 0 0 0 .54.28A3.69 3.69 0 0 0 51.72 4c.14-.1.24-.48.39-.59s.53-.13.77-.32.49-.42.46-.73c-.06-.71-1.24-.51-1.73-.43A17.69 17.69 0 0 0 47 3.27a2 2 0 0 1-.72.28 7.77 7.77 0 0 0 1-2.56c0-.3-.38-.42-.51-.59s0-.43-.26-.4c-.24.53-1.21.71-1.18 1.43 0 .38.31.34.44.69-.26.8-.25 2-.68 2.54-.07.31.31.26.25.56-.41.35-.25.82-.27 1.28-.07 1.4-.55 3.21-.48 4.5-.92-.8-1.77.62-1 1-1.84 3.51-4 6.21-7.65 7.41s-7.44 1.91-11.19 2.87c-.12-1.46-.76-2.92-.73-4.25-.92-1.46-.7-4.26-.13-6.58 1.65.22 3.67 1.56 5.16.74-.24-.47-.84-.68-1.35-.95.28-.73-.24-.9-.73-1.3-.3-.25-.59-.46-.82-.63a9 9 0 0 0-1.72-1.11 6.79 6.79 0 0 0-4.32-.33 2.17 2.17 0 0 0-.39 1.85c.16.39 1 .5 1.3.95a5.07 5.07 0 0 1 .29 1.08c.27 1.21.38 2.24.62 3.45a1 1 0 0 1-.62-.55c-2-.6-4.2-.26-6.62-.46-.92-.08-1.87-.12-2.76-.19s-2-.26-2.76-.23c-.56 0-1.36.18-1.57.8a4.47 4.47 0 0 0 1.12.3 3.41 3.41 0 0 0 .14 1c.19.22.45.39.42.79-.84.31-1.51.8-2.33 1a13.91 13.91 0 0 0-2.07.53 7.49 7.49 0 0 0-4.83 6.33 13.53 13.53 0 0 0 .6 4.91 13.22 13.22 0 0 0 1.76 4.06 11.77 11.77 0 0 0 8 4.62c3.87.65 6.44-.11 8.51-2-.23-.23-.51.25-.7.07 2.15-.75 3-3.15 3.76-5.68.47-.2.76.17 1.18.2s.6-.24.93-.31a17.49 17.49 0 0 1 1.8-.09c.21.66.46 1.42.81 2.36s.59 2.69 1.57 2.2c-.13.73.45 1 1.11.82.92-.2 3.08-1.36 1.91-2.24a5.38 5.38 0 0 0-2.2.31 29.41 29.41 0 0 1-1.46-3.49c1.63-.17 3-.67 3.08-2.78a4.51 4.51 0 0 0-1.25-1.73c4.72-1.23 8.79-3.58 12.79-5.67A18.93 18.93 0 0 0 46 17.51c.35 1.13.89 2.11 1.22 3.25-.42.13-.65.48-1.13.23A11 11 0 0 0 43 22.7a11.43 11.43 0 0 0-3.27 7.74 8.91 8.91 0 0 0 2.88 6.83 10 10 0 0 0 13.84 1.19 7.5 7.5 0 0 0 2.11-2.57A14.49 14.49 0 0 0 60 32.44c.74-3.48.57-6.62-.93-8.58a6.89 6.89 0 0 0-2.14-1.74zM21.34 9.34c-.37-.11-.42-.48-.3-1l.94.11c-.05.29-.51.55-.64.89zm.64 2c-.06-.14-.17-.23-.15-.44.28-.01.17.26.17.46zm.9 1.64a13 13 0 0 1-.09-1.8l.42.05c-.04.46-.21 1.21-.33 1.77zm.19-3.6c.05.07-.2.26-.35.27.06-.15.28-.14.35-.25zm-1 6.28-.63-.08c.19-.02.65-.36.56.1zm-9.31-.42a2.33 2.33 0 0 1-1.52-.08 8.91 8.91 0 0 1 1.48.1zm7.58 7.09a.84.84 0 0 1 .41.53c-2.39.59-4.64 1.68-6.77 2.42-.25-.82 1-.93 1.72-1.16a49.61 49.61 0 0 0 4.6-1.77zm0-1.47c.09 0 .29.24.32.41-.18-.07-.2-.27-.33-.39zm-1.42 4.61a9.52 9.52 0 0 1-2.4.28c-.15 0-.34-.15-.5-.16-.41 0-.8.27-1.19.27 2.1-.79 4.3-1.44 6.29-2.37.35.38.1 1.22.25 1.76a20.09 20.09 0 0 0-2.46.24zm1.2.94c-.14.28-.72.52-1.08.71a1.07 1.07 0 0 1 1.07-.69zm-3.35 2h-.31c.11-.18.33-.23.47-.37.07.09-.12.29-.17.39zM14.44 28c-.24 0-.34-.14-.61-.13.21-.16.55-.18.73-.38.22.1-.1.4-.12.51zm.44-4.36c.87-1.3 1.87-2.45 2.68-3.82a3.87 3.87 0 0 1 2.19 1.85c-1.62.69-3.2 1.41-4.87 2.01zm-1.51.7a2.79 2.79 0 0 1 .42-1.21 193.4 193.4 0 0 1 1.71-3.62.3.3 0 0 0 .07-.15 9.65 9.65 0 0 1 1.44.23c-1.22 1.62-2.5 3.11-3.64 4.79zm-2.82-5.14a6.36 6.36 0 0 1 1-.19v.06a7.06 7.06 0 0 0 .42 3 17.75 17.75 0 0 1 .87 1.93 6.5 6.5 0 0 0-1.71-.16c-.33-1.44-.36-3.12-.58-4.64zm0 6.73c-.14.12-.39-.1-.56-.12.06-.12.2-.14.29-.23.18.09.17.29.32.35zm-.42-1.63a3.28 3.28 0 0 0-.84 1.27C8.05 25.19 7.25 24 5.79 24a5 5 0 0 1 1.34-2.7c1.33.75 1.97 2.05 3.05 3zm-.66 2.34a1.33 1.33 0 0 0 .17 1.6c-.74 1.44-1.47 2.88-2.22 4.3C5.74 31 4.8 27.9 5.63 24.47c1.31.72 2.28 1.7 3.89 2.17zm.56 1.8c.19 0 .27.17.45.22a17 17 0 0 0-2.04 4.94c-.21-.2-.51-.35-.6-.65a44 44 0 0 0 2.24-4.51zm.43-1.36a6.43 6.43 0 0 1 1.33-.08 3 3 0 0 0-.39.59c-.4-.13-.56-.38-.89-.51zm.53-.83c0-.11-.13-.12-.13-.23s.3-.47.2-.81c.28-.1.41.17.77.15a.26.26 0 0 0 .14-.25c.38.21.48.09.86.26 0 .17-.15.24 0 .37s.3-.2.42-.06c-.35.68-1.41.46-2.25.57zm2.33-3.55a9.3 9.3 0 0 1-1-3.64c.76 0 1.78.25 2.54.21.07 0 .1 0 .1.07-.48 1.1-1.03 2.24-1.59 3.36zm-1.18-4.83a10.31 10.31 0 0 1-1.9 0c.19-.28.69-.31 1.09-.34a10.37 10.37 0 0 1 2.93.53 19.29 19.29 0 0 1-2.07-.19zM10 22.7c-.79-.61-1.25-1.49-2.4-1.83a7.62 7.62 0 0 1 2-1.33c.08 0 .08.06.15.07-.05 1.08.15 2.02.25 3.09zm-8.57 2.2A6.33 6.33 0 0 1 4 20a11.23 11.23 0 0 0-2.16 7.67 8.35 8.35 0 0 1-.41-2.77zM9.5 35.21c-.1.3.33.18.44.31a6 6 0 0 1-2.21-.43c-.84-.42-1.2-1.29-1.83-1.8-.14.22.22.41.3.61A5.47 5.47 0 0 1 5 32.34a11.08 11.08 0 0 1-1.91-6.18 8.55 8.55 0 0 1 3.25-6.7c1-.41 2-1.25 3.11-1.34-.08.35-.51.42-.75.53a6.88 6.88 0 0 0-4.14 6.27 11.36 11.36 0 0 0 2.54 8.31c-.15.22-.57.8-.24 1.07.38 0 .47-.4.62-.71a1.69 1.69 0 0 1 1 1.23c.19 0 .22-.16.34-.22a6.24 6.24 0 0 0 2 .72c-.45.21-1-.47-1.32-.11zm-.44-1.11a24.55 24.55 0 0 1 2.08-5.26c.45 0 .53 1.07.64 1.55a24 24 0 0 0 1.49 4.55 7.38 7.38 0 0 1-4.21-.84zm4 2.65c-.45 0 .56-.15.86-.1a2.51 2.51 0 0 1-.92.1zm.35-3.21a39.35 39.35 0 0 1-1.48-4.6l.68.08c.63 2 1.22 4 1.94 5.92-.81.27-.94-.85-1.16-1.4zm.82 1.88c0-.09.36-.13.54-.14-.07.21-.42.04-.56.14zM19 33.91a8.59 8.59 0 0 1-3.15 1.24c-1-1.87-1.65-4-2.52-5.94 2.26.41 5 .84 7.58 1.16-.63 1.32-.99 2.73-1.91 3.54zm3.61-8.7c-.16-.39 0-1-.08-1.48.05.4.32 1.12.05 1.48zM22 20a4.19 4.19 0 0 0-3-1.84 4.43 4.43 0 0 0-1.25-.52c0-.11.26 0 .37 0-1.8-1.34-5.93-1.76-8.06-1.21-.22-.49.44-.44.67-.71 3.77.14 7.28-.06 11.4.53.38 2.16.83 4.27 1.19 6.46A10.5 10.5 0 0 0 22 20zM47.56 4c-.08 0-.53.38-.66.28.1-.23.41-.28.66-.28zM25.41 26.51c-.52.34-1.1.58-1.59 1a2.63 2.63 0 0 1 1.59-1zm-1.72-1.37c-.1-.73-.2-1.46-.36-2.15.41.57.32 1.53.73 2.09a.6.6 0 0 1-.37.06zm.47 3.86c.05-.3.5-.37.4-.68-.49.13-.62.73-1.2.74-.08-.17.22-.26.36-.37.47-.35 1.09-.83 1.57-1.17a5.14 5.14 0 0 1 .19 1c-.48.15-.7.54-1.32.48zm1.65-1.84c.55-.59 1.59-.6 2.72-.29-.76.05-2.42 1.97-2.72.27zm1.25 1.73c-.06-.08-.06-.23-.17-.28.61-.59 1.42-.94 2.07-1.48 1.04 1.03-.69 1.95-1.9 1.74zm13.87-9.58c-4.1 2-8.1 4-12.86 5.29a7 7 0 0 1-3 .53c.22-.66-.14-1.14-.15-1.76 2.34.08 4.33-.84 6.53-1.34A45 45 0 0 0 37 20.54c3.54-1.32 5.74-4.13 7.32-7.72 0-.08.06-.08.07-.14s.08.05.15.07c.34 1.32.71 2.62 1.14 3.87a23.48 23.48 0 0 1-4.75 2.67zm5.2-4.61a16.87 16.87 0 0 1 1.16 2.93 12.5 12.5 0 0 1-1.16-2.95zM57 25.44a13.4 13.4 0 0 0-3.57 1.66c-.33.2-.71.65-1.16.44.79-1.59 1.73-3 2.56-4.52A6.63 6.63 0 0 1 57 25.44zm-6.5 6.61a34.63 34.63 0 0 0-1.34 4.41 7.9 7.9 0 0 1-3.48-1.22c1.29-1.38 2.72-2.57 4.06-3.86a3.27 3.27 0 0 1 .75.67zm.09-3.3c.12.13.15.32.26.45-.11.05-.29-.2-.27-.45zm.2 3.44c.13-.07.33.1.52.12a40.88 40.88 0 0 0-.31 4.42c-.33.12-.65-.14-1-.13.2-1.48.55-2.87.78-4.41zm.51-1.09a1.2 1.2 0 0 1-.3-.1 1.11 1.11 0 0 0 0-1.2c.24.12.34.66.75.72.9.16.6-1.08.36-1.63 1.15.13 1.66 2.72-.1 2.46-.24-.05-.08-.4-.37-.42s-.15.18-.35.17zm1.62 1.35a11.69 11.69 0 0 0 2 2.88 4.53 4.53 0 0 1-3.11 1.34c.17-1.47.21-2.84.27-4.22a2.94 2.94 0 0 0 .83 0zm.43-4.45c1.33-.69 2.7-1.34 3.95-2.14a3.47 3.47 0 0 1 .7 1.96 18.07 18.07 0 0 1-3.91 1 10.69 10.69 0 0 1-.74-.82zm-2-1a32.79 32.79 0 0 1-1.66-4.84c.47-.11 1-.2 1.46-.29.27 0 0 .09.07.27a8.22 8.22 0 0 1 3.09.49c-.94 1.55-2.04 2.85-2.94 4.43zm3-5.26c-.85-.08-1.81-.06-2.66-.22s-1.66 0-2.29-.13a14.82 14.82 0 0 1 4.94.41zM50 27.58c-.11.08-.25.11-.34.22-1.7-1.25-3.38-2.51-5.11-3.74A7.45 7.45 0 0 1 48 22.59c.61 1.73 1.47 3.25 2 4.99zm-6.25-.47a8.3 8.3 0 0 1 .78-1.58A13.49 13.49 0 0 0 43.49 27c-.36-.21 0-1 .12-1.4a6.3 6.3 0 0 1 .58-1.24 62.29 62.29 0 0 0 5.05 4.15c-.09.36.07.74 0 .94-1.48-1.03-3.62-1.56-5.45-2.34zm5 2.57c-1.47 1.37-3.28 2.31-4.54 4-1.02-1.32-1.21-3.68-.6-5.96 1.74.64 3.39 1.33 5.17 1.96zm-5.66-1c-.14-.27 0-.79 0-1.2h.16c.11.35-.13.78-.13 1.23zm-1.52-.87a7.36 7.36 0 0 1 3.57-5.44c.69-.44 1.48-.87 2.26-1.3 0 .26.25.4.23.71-2.51.54-4.77 1.4-5.2 4.61 0 .13-.18.13-.29.18a16.7 16.7 0 0 1-.14 2.84 15.49 15.49 0 0 0 1.17 5.83c-1.8-1.58-2.17-3.96-1.57-7.4zm2.53 6.73c.1-.06.24.24.26.4-.16-.02-.11-.27-.23-.37zm1.72-1.15c1.08-1 2.36-2.06 3.39-3.16.21.09.12.4.24.56-1.58 1.17-3.14 2.36-4.65 3.63a3.68 3.68 0 0 1 1.05-1zm7.51 4.29a6.51 6.51 0 0 1-2.81 1 8.47 8.47 0 0 1-3.62-.87 5.12 5.12 0 0 1-1.29-.81c-.32-.32-.72-.74-.69-1.2.37-.17.55.26.79.42a6 6 0 0 0 .88.48c.88.37 2.15.31 2.74.86 2.66.29 4.82-.17 6.19-1.59a6 6 0 0 1-2.16 1.74zm2.09-2.84c-.69-.85-1.29-1.77-1.93-2.66.11-.25.39-.29.49-.57a8 8 0 0 0 2.43 2 5.81 5.81 0 0 1-.96 1.26zm1.81-1.51c-.11 0 0-.25 0-.37-.2 0-.19.21-.39.17-.82-.74-1.75-1.38-2.52-2.16a5.16 5.16 0 0 0-.06-1.63c1.57.15 2.54-.46 3.77-.75a10.12 10.12 0 0 1-.77 4.77zM56.5 23.2a3.84 3.84 0 0 1 2.22 2.85 14.18 14.18 0 0 0-2.19-2.82z" fill="#c988ae" fill-rule="evenodd" data-color="1"/>
    </g>
</svg>
