<?xml version="1.0" encoding="UTF-8"?>
<svg data-bbox="0 -0.027 20.708 47.337" viewBox="0 0 20.72 47.31" xmlns="http://www.w3.org/2000/svg" data-type="color">
    <g>
        <path d="M16.8 3c-2-.15-3.71.16-4.66 1.21C12.05 1 9.64-.23 6.16 0A6.85 6.85 0 0 0 .69 3.89c-1.24 2.26-.59 6 .25 8a24.2 24.2 0 0 0 1.87 2.79c.44.73.7 1.53 1.12 2.23a13.62 13.62 0 0 0 2.38 2.79c.13 1.88-1.23 2.27-1.22 4.05.29.48 1 .57 1.73.56 1.78 3.52-1.72 5-1.93 7.9a7.07 7.07 0 0 0 0 1.22C5.08 35 7 35.71 7.73 36.87A7.9 7.9 0 0 1 9 41.33c-.13 2-2.42 2.32-2.39 4.72 0 .46.23.88.26 1.26.39-1.31.46-2.43 1.13-3.24.28-.33.66-.49.92-.76a3.63 3.63 0 0 0 .81-1.42 7.71 7.71 0 0 0-.41-4.16 8.45 8.45 0 0 0-1.44-2.83c-.49-.54-1.42-1-1.57-1.73-.37-1.75.85-2.9 1.37-3.74.74-1.21 1.32-3.69.32-5.17.81-.26.11-1-.35-1.12.05-.34.11-.84.15-1.32s-.11-1.05.46-1c.22.84-.37 2.22.2 2.79 1.14-.12.59-2 .66-3a23.2 23.2 0 0 0 5.57-2.69c.59-.34 1.25-.59 1.83-1a9.07 9.07 0 0 0 4.1-7 11.87 11.87 0 0 0-.3-4.46A4.1 4.1 0 0 0 16.8 3zM6.72 23.14h-.51c.22-.79.59-1.44.81-2.23a15.29 15.29 0 0 0-.3 2.23zm.91-5.06c-.25-.1.06-.2 0-.36s-.17 0-.2-.1c-.19.08-.31.49-.56.2A19 19 0 0 0 9 14.63h1.16c-.9 1.09-1.67 2.31-2.53 3.45zm-.15-3.91c0-.68.65-.38 1.11-.15-.12.39-.73.11-1.11.15zm1.57 4.26c-.2.14-.13.47-.51.3a26.89 26.89 0 0 0 2.38-4c.18-.05.59 0 .91 0a17.46 17.46 0 0 1-2.58 3.7zm2.83-.66c-.3.12-.49.35-.86.41.31-.5.68-.95 1-1.47.15.37-.17.67-.14 1.06zm.26-1.32c.32-.59.64-1.18.91-1.82.34-.06.57-.24.91-.3-.48.82-1 1.59-1.47 2.43-.18-.04-.11-.32-.35-.31zm2.78-1c-.09.09-.25.12-.35.2a.78.78 0 0 1-.61.81c1-1.53 1.4-3.62 3-4.5a23.78 23.78 0 0 1-2.04 3.53zM19.08 10a7.36 7.36 0 0 1-2.28 4.71c.56-1.07 1.28-2.46 1.82-3.8.16-.39.53-1 .1-1.37-.67.17-.71 1-1.06 1.42a7.71 7.71 0 0 1-1.47 1.12c0-.19.19-.43 0-.56-.7.2-.88.94-1.32 1.42-.42.17-.81.37-1.21.55-.14-.38.68-.91.2-1.31-1 .46-.87 2-2.38 1.92-.2-.06 0-.38-.25-.45s-.38.33-.61.45c-.54-.1-1.16-.1-1.32-.58-.82.41-1.3-.52-2.13-.52-.06-.15.35-.57 0-.81-.42-.05-.53.21-.76.35-.19 0-.25-.19-.45-.2-.2.21.31.28.15.46-.5.08-1.36 1.49-.41 1.57.31 0 .38-.31.66-.26-.1.46-1 .78-.86 1.42a.44.44 0 0 0 .51.41c.68 0 .78-1.07 1.21-1.47a3.33 3.33 0 0 0 .81.15C7.57 15.33 7 16 6.41 16.71c-.11 0 0-.22 0-.31-.25-.07-.28.09-.61 0-1-2.11-2.82-3.31-3-6.13-.29-3.76 1.23-5.92 3.65-7a5.15 5.15 0 0 1 1.22-.41c.33-.06.95 0 1.16-.45-.24-.34-1-.3-1.47-.26a6.44 6.44 0 0 0-3.7 2A6.52 6.52 0 0 0 1.7 7.89a5.25 5.25 0 0 1 .71-3.8 6.8 6.8 0 0 1 1.27-1.57c1.18-.93 3.1-1.12 5-1a3.28 3.28 0 0 1 2.18 1.21 11.35 11.35 0 0 1 .86 1.88c.11.41-.06.8.41.86s1-.48 1.26-.61c1.2-.63 3.83-.8 4.92.15s.94 3.29.77 4.99zM7.17 13.31a1.42 1.42 0 0 1-.71.61c.08-.33.33-.49.46-.76.08.06.21.06.25.15z" fill="#c988ae" fill-rule="evenodd" data-color="1"/>
    </g>
</svg>
