<?xml version="1.0" encoding="UTF-8"?>
<svg data-bbox="0.001 -0.002 234.103 100.001" xmlns="http://www.w3.org/2000/svg" viewBox="0 0 235 100" height="100" width="235" data-type="color">
    <g>
        <g clip-path="url(#791cd115-698f-48f3-93a1-c79a0234b23a)">
            <path fill="#F5811E" d="M83.87 45.377c5.308-4.056 5.337-12.935.067-19.832-5.271-6.896-13.846-9.198-19.154-5.142-5.307 4.057-5.337 12.936-.066 19.832 5.27 6.896 13.846 9.199 19.153 5.142z" data-color="1"/>
            <path fill="#F5811E" d="M101.835 31.521c6.244-1.557 9.665-9.396 7.642-17.51C107.455 5.899 100.753.584 94.509 2.14c-6.243 1.557-9.665 9.396-7.642 17.51 2.023 8.113 8.724 13.428 14.968 11.871z" data-color="1"/>
            <path fill="#F5811E" d="M136.338 16.964c1.368-8.25-2.669-15.79-9.017-16.843-6.348-1.054-12.603 4.78-13.972 13.029-1.368 8.249 2.668 15.79 9.016 16.843 6.348 1.053 12.604-4.78 13.973-13.03z" data-color="1"/>
            <path fill="#F5811E" d="M158.096 34.779c4.104-7.626 2.674-16.368-3.194-19.526-5.868-3.158-13.952.463-18.057 8.088-4.104 7.625-2.674 16.367 3.195 19.526 5.868 3.158 13.952-.463 18.056-8.088z" data-color="1"/>
            <path fill="#F5811E" d="M134.941 44.004c-3.923-6.817-12.226-11.634-21.938-11.865-11.772-.281-21.792 6.257-24.571 15.287-9.026 3.866-15.54 13.438-15.81 24.783-.358 15.02 10.363 27.46 23.948 27.784 7.069.168 13.519-2.977 18.131-8.15 4.086 3.701 9.283 5.974 14.985 6.109 13.583.324 24.884-11.59 25.243-26.61.319-13.528-8.342-24.96-19.988-27.338z" data-color="1"/>
            <!-- <path fill="#F5811E" d="M181.581 50.505c4.187-1.38 6.126-6.91 4.332-12.35-1.794-5.441-6.642-8.733-10.829-7.352-4.187 1.38-6.126 6.91-4.332 12.35 1.794 5.441 6.642 8.732 10.829 7.352z" data-color="1"/>
            <path fill="#F5811E" d="M204.331 36.5c.494-5.497-2.534-10.26-6.764-10.641-4.229-.38-8.059 3.766-8.553 9.262-.495 5.496 2.533 10.26 6.763 10.64 4.23.381 8.059-3.766 8.554-9.262z" data-color="1"/>
            <path fill="#F5811E" d="M220.436 44.146c2.638-4.847 1.753-10.422-1.977-12.452-3.73-2.03-8.893.253-11.531 5.1-2.638 4.846-1.753 10.421 1.977 12.452 3.73 2.03 8.892-.253 11.531-5.1z" data-color="1"/>
            <path fill="#F5811E" d="M230.158 59.977c4.209-3.867 5.209-9.627 2.234-12.866-2.976-3.239-8.8-2.73-13.009 1.136-4.209 3.866-5.209 9.626-2.233 12.865 2.975 3.24 8.799 2.73 13.008-1.135z" data-color="1"/>
            <path fill="#F5811E" d="M213.72 60.71c-.969-5.102-5.104-9.9-11.111-12.15-7.279-2.721-14.946-.814-18.628 4.215-6.462.459-12.594 5.017-15.218 12.031-3.473 9.288.518 19.364 8.915 22.505 4.37 1.634 9.072 1.069 13.067-1.158 1.748 3.192 4.495 5.733 8.022 7.051 8.398 3.142 18.023-1.841 21.5-11.129 3.128-8.36.2-17.364-6.547-21.366z" data-color="1"/>
            <path fill="#F5811E" d="M14.354 65.651c1.902-2.874.416-7.207-3.318-9.68C7.3 53.502 2.732 53.827.83 56.7c-1.903 2.874-.417 7.208 3.317 9.68 3.735 2.471 8.304 2.145 10.207-.729z" data-color="1"/>
            <path fill="#F5811E" d="M20.769 55.863c2.78-1.814 3.125-6.214.768-9.828-2.357-3.613-6.522-5.073-9.303-3.26-2.78 1.814-3.124 6.214-.768 9.828 2.357 3.614 6.522 5.073 9.303 3.26z" data-color="1"/>
            <path fill="#F5811E" d="M30.525 51.646c3.272-.559 5.337-4.46 4.61-8.712-.726-4.253-3.967-7.247-7.24-6.688-3.273.558-5.337 4.459-4.61 8.712.725 4.253 3.967 7.247 7.24 6.688z" data-color="1"/>
            <path fill="#F5811E" d="M48.739 47.939c.712-4.412-1.463-8.432-4.858-8.98-3.394-.548-6.724 2.584-7.436 6.995-.712 4.411 1.463 8.432 4.858 8.98 3.395.548 6.724-2.584 7.436-6.995z" data-color="1"/>
            <path fill="#F5811E" d="M39.017 56.355c-3.064-2.662-7.925-3.607-12.7-2.08-5.787 1.852-9.568 6.73-9.397 11.605-3.746 3.408-5.305 9.177-3.52 14.752 2.36 7.383 9.691 11.637 16.368 9.5 3.474-1.111 6.087-3.735 7.462-7.035 2.617 1.114 5.535 1.343 8.338.446 6.677-2.137 10.173-9.854 7.81-17.238-2.127-6.648-8.28-10.759-14.36-9.95z" data-color="1"/> -->
        </g>
        <defs fill="none">
            <clipPath id="791cd115-698f-48f3-93a1-c79a0234b23a">
                <path fill="#ffffff" d="M234.095 0v100H0V0h234.095z"/>
            </clipPath>
        </defs>
    </g>
</svg>
