<?xml version="1.0" encoding="UTF-8"?>
<svg data-bbox="0.006 -0.024 438.164 375.864" viewBox="0 0 438.17 375.84" xmlns="http://www.w3.org/2000/svg" data-type="color">
    <g>
        <g>
            <path d="M54 125.54a14.63 14.63 0 0 0-6.86-9.08c-2.76-1.48-6.77-2.28-9.87-1.07-6.27.31-10.12 6.61-11.9 12.25-1.11 3.49-1.51 7.34-.09 10.8a14.15 14.15 0 0 0 5.94 6.71 14.81 14.81 0 0 0 17.36-1.73A17.83 17.83 0 0 0 54 125.54zm-7.13 13c-2.91 3.43-7.29 5-11.62 3.43a9.15 9.15 0 0 1-6.11-10.2 20.73 20.73 0 0 1 3.31-8.31 8.72 8.72 0 0 1 3.73-3.24 2.11 2.11 0 0 0 1.09 0l.94-.21a2.89 2.89 0 0 0 1.63-.29 7.79 7.79 0 0 1 4.22.45A9.43 9.43 0 0 1 49 125.2a13 13 0 0 1-2.12 13.31z" fill="#15469d" data-color="1"/>
            <path d="M406.93 129.39a2.81 2.81 0 0 0-1.2-.22 2.21 2.21 0 0 0-1.11-.79 16.54 16.54 0 0 0-17.16 5.13 15.71 15.71 0 0 0-1.36 17.92 15.33 15.33 0 0 0 15.9 7.69c6.12-1 11.72-5.57 13.1-11.72 1.54-6.68-1.62-15.13-8.17-18.01zm-4 24.75a10.69 10.69 0 0 1-11.79-3.52c-2.81-3.59-3.53-8.82-1.09-12.78a11.87 11.87 0 0 1 13.34-5 2.33 2.33 0 0 0 .85.09 2 2 0 0 0 .4.36 12.27 12.27 0 0 1 6.22 11.31c-.26 4.59-3.69 8.23-7.94 9.54z" fill="#15469d" data-color="1"/>
            <path d="M82.85 279.82c-1-.39-2-.55-3-1a9.61 9.61 0 0 1-2.63-1.78 13.92 13.92 0 0 1-3.53-5.85c-1.66-5.12-1.85-10.77-2.14-16.1-.15-3-4.82-3-4.66 0 .33 6.28.52 13.17 2.94 19.06A17.22 17.22 0 0 0 74.7 281c2.21 1.81 5.21 3.46 8.15 2.73 2.15-.49 1.74-3.23 0-3.91z" fill="#15469d" data-color="1"/>
            <path d="M71 238.91a2.33 2.33 0 0 0-4 1.65v5.2a2.52 2.52 0 0 0 .68 1.63 2.38 2.38 0 0 0 1.63.68 2.34 2.34 0 0 0 1.63-.68 2.52 2.52 0 0 0 .68-1.63c.07-.86 0-1.74 0-2.6v-2.6a2.42 2.42 0 0 0-.62-1.65z" fill="#15469d" data-color="1"/>
            <path d="M126.59 188.94a12 12 0 0 0-1.85-2.41c-.65-.74-1.3-1.47-2-2.19l-3.89-4.29a1.57 1.57 0 0 0-2.21 0 1.59 1.59 0 0 0 0 2.21l3.89 4.29 1.93 2.1a11.37 11.37 0 0 0 2.29 2.09 1.33 1.33 0 0 0 1.59-.2 1.38 1.38 0 0 0 .25-1.6z" fill="#15469d" data-color="1"/>
            <path d="M135.85 187a43.51 43.51 0 0 0-4.8-4.8c-1.68-1.61-3.34-3.24-5-4.91q-4.83-4.93-9.25-10.24a1.61 1.61 0 0 0-2.29 0 1.64 1.64 0 0 0 0 2.29q4.41 5.31 9.25 10.25c1.59 1.62 3.22 3.21 4.88 4.75a30.22 30.22 0 0 0 5.39 4.46c1.07.58 2.66-.7 1.82-1.8z" fill="#15469d" data-color="1"/>
            <path d="M146.92 183.74c-2.58-2.89-5.59-5.47-8.36-8.18s-5.71-5.63-8.53-8.48q-8.34-8.43-16.48-17.07c-1.29-1.38-3.34.68-2.06 2.06q8.06 8.72 16.37 17.17 4.13 4.17 8.29 8.26c2.84 2.79 5.61 5.8 8.71 8.3a1.46 1.46 0 0 0 2.06-2.06z" fill="#15469d" data-color="1"/>
            <path d="M161.54 68.07a23.33 23.33 0 0 0-2.69-3.49c-.44-.49-.95-.92-1.42-1.38 1.16-1.21 2.31-2.44 3.52-3.59a2.35 2.35 0 0 0 0-3.3 2.38 2.38 0 0 0-3.3 0c-1.31 1.25-2.56 2.56-3.81 3.87a30.26 30.26 0 0 0-4.91-3 2.4 2.4 0 0 0-3.2.84 2.37 2.37 0 0 0 .84 3.19 29.29 29.29 0 0 1 3.35 1.83c.27.17.53.36.79.54-1.19 1.35-2.39 2.7-3.51 4.11a2.52 2.52 0 0 0-.68 1.65 2.36 2.36 0 0 0 .68 1.66c.85.77 2.5 1 3.3 0 1.2-1.51 2.48-3 3.76-4.4.4.4.84.76 1.22 1.19s.83 1 1.23 1.46l.29.38c.28.39.57.78.87 1.16a2.31 2.31 0 0 0 3.63-2.8z" fill="#15469d" data-color="1"/>
            <path d="M229.68 60c.42-.33.86-.64 1.3-.94s.88-.57 1.3-.88a2.55 2.55 0 0 0 1.07-3.31 2.42 2.42 0 0 0-2.77-1 7.27 7.27 0 0 0-1.87 1.13c-.88.6-1.73 1.25-2.56 1.92-.89-.92-1.82-1.8-2.8-2.63a2.34 2.34 0 0 0-3.35 3.28 34.35 34.35 0 0 1 2.72 2.53 36.36 36.36 0 0 0-4.2 5.46 2.35 2.35 0 0 0 .84 3.19 2.38 2.38 0 0 0 3.19-.84c.29-.47.6-.93.91-1.39l.43-.6.22-.3s.06-.08.1-.15c.48-.63 1-1.22 1.57-1.81.25.35.51.7.75 1.07.65 1 1.22 1.93 1.8 2.93a2.33 2.33 0 0 0 4-2.35 33 33 0 0 0-3.23-4.88l.16-.14z" fill="#15469d" data-color="1"/>
            <path d="M297.78 60.15c-.52-1.79-2.88-1.47-4-.61s-2.09 1.65-3.12 2.49a24.66 24.66 0 0 0-5.83-4.03 2.33 2.33 0 1 0-2.35 4 23 23 0 0 1 3.3 2l.34.25h.05c.27.21.53.43.79.66l.07.06c-1.21 1-2.42 2.09-3.59 3.18a2.34 2.34 0 0 0 0 3.3 2.38 2.38 0 0 0 3.3 0c1.13-1 2.3-2.06 3.47-3.07.09.12.18.24.26.37a18.59 18.59 0 0 1 1 1.59 7.78 7.78 0 0 0 1.3 2.07 2.27 2.27 0 0 0 2.45.47 2.23 2.23 0 0 0 1.38-2.06 6.12 6.12 0 0 0-1-2.69 19.51 19.51 0 0 0-1.09-1.74c-.23-.33-.53-.62-.78-1 .77-.63 1.53-1.27 2.32-1.89 1.01-.72 2.15-1.94 1.73-3.35z" fill="#15469d" data-color="1"/>
            <path d="M182.3 123.91a3.34 3.34 0 0 0 1.25-1.41 1.32 1.32 0 0 0 .1-.3 3.54 3.54 0 0 0 .25-.64 1.67 1.67 0 0 0-1.14-2 3.74 3.74 0 0 0-2.8.36 16.67 16.67 0 0 0-1.64 1.15c-.65.48-1.26 1-1.89 1.53-1.17-1.12-2.31-2.26-3.56-3.29a2.33 2.33 0 0 0-3.3 3.3c1.19 1 2.28 2.07 3.4 3.13a44.82 44.82 0 0 0-3.43 3.86 2.55 2.55 0 0 0-.68 1.65 2.36 2.36 0 0 0 .68 1.65c.84.77 2.5 1 3.3 0a45.56 45.56 0 0 1 3.46-3.9c.37.41.76.8 1.12 1.21.83.94 1.57 2 2.43 2.89a2.31 2.31 0 0 0 3.63-2.8 29.8 29.8 0 0 0-2.57-3.16c-.39-.45-.79-.87-1.19-1.3l.59-.47c.08-.07.45-.34.06 0l.38-.29z" fill="#15469d" data-color="1"/>
            <path d="M261 131.14a6.94 6.94 0 0 0-1.08-2c-.4-.6-.85-1.18-1.3-1.76a23.8 23.8 0 0 0-1.86-2l.58-.49h.06l.33-.25.71-.53a4.62 4.62 0 0 0 1.3-1.19 2.91 2.91 0 0 0 .34-.85 1.44 1.44 0 0 0 .25-.55 1.71 1.71 0 0 0-1.17-2.07 2.52 2.52 0 0 0-1 0 3.21 3.21 0 0 0-2.13.71c-.61.44-1.21.91-1.81 1.37-.36.28-.7.59-1.05.87a25.08 25.08 0 0 0-3.22-1.85 2.39 2.39 0 0 0-3.19.84 2.37 2.37 0 0 0 .83 3.2 21.32 21.32 0 0 1 2 1.11c-1.19 1.15-2.4 2.28-3.49 3.52a2.33 2.33 0 0 0 3.3 3.3c1.23-1.4 2.58-2.68 3.93-4a23.91 23.91 0 0 1 1.88 2l.24.32c.17.23.34.47.5.72a11.68 11.68 0 0 0 1.23 1.8 2.31 2.31 0 0 0 3.82-2.22z" fill="#15469d" data-color="1"/>
            <path d="M363.82 62.57a38.29 38.29 0 0 0-3.31-7.64 50.38 50.38 0 0 0-4.6-7 51.47 51.47 0 0 0-12.2-11.36c-2.51-1.68-4.85 2.36-2.36 4a46.3 46.3 0 0 1 10.95 10.22 47.81 47.81 0 0 1 4.09 6.33c1.27 2.34 2.17 4.79 3.21 7.23s4.89.65 4.22-1.78z" fill="#15469d" data-color="1"/>
            <path d="M366 77.12a2.5 2.5 0 0 0-1.07-1.4 2.36 2.36 0 0 0-1.8-.23 2.33 2.33 0 0 0-1.39 1.07 2.24 2.24 0 0 0-.24 1.8 15.54 15.54 0 0 1 .93 3.43c0 .25.06.5.07.75a2.42 2.42 0 0 0 1.72 2.25 2.38 2.38 0 0 0 1.79-.24 2.24 2.24 0 0 0 1.16-2 17.58 17.58 0 0 0-1.17-5.43z" fill="#15469d" data-color="1"/>
            <path d="M120.82 317.43c-.83-1-1.71-2-2.57-3q-2.53-3-5.08-5.9a1.78 1.78 0 0 0-2.5 0 1.8 1.8 0 0 0 0 2.5l5 5.8c.81.94 1.62 1.89 2.44 2.82a10.76 10.76 0 0 0 3 2.79 1.42 1.42 0 0 0 2.06-1.58 10.6 10.6 0 0 0-2.35-3.43z" fill="#15469d" data-color="1"/>
            <path d="M118.76 326.31a23.4 23.4 0 0 0-3.52-4.43q-1.92-2.16-3.86-4.3l-7.66-8.45c-1.47-1.62-3.86.79-2.4 2.4L109 320q1.89 2.08 3.79 4.15a24.34 24.34 0 0 0 4.17 4c1.14.77 2.4-.73 1.8-1.84z" fill="#15469d" data-color="1"/>
            <path d="M114.37 332.86a57.36 57.36 0 0 0-5.75-7.36l-5.89-7.06a1.79 1.79 0 0 0-2.52 0 1.82 1.82 0 0 0 0 2.52l5.8 7a56 56 0 0 0 6 6.76c1.25 1.01 3.26-.33 2.36-1.86z" fill="#15469d" data-color="1"/>
            <path d="M314.48 235.29c-1.66 0-3.07.89-4.53 1.61s-3.16 1.5-4.79 2.14a71.39 71.39 0 0 1-9.16 3 68.42 68.42 0 0 1-9.52 1.75c-1.6.17-3.2.3-4.81.36-1.26.06-3.08.32-4.13-.55-2.3-1.91-5.62 1.38-3.31 3.3 2.76 2.28 6.13 2 9.5 1.8a77 77 0 0 0 11.51-1.7 73.28 73.28 0 0 0 10.84-3.31q2.69-1 5.3-2.29c1.75-.83 3.66-1.58 4.71-3.28a1.88 1.88 0 0 0-1.61-2.83z" fill="#15469d" data-color="1"/>
            <path d="M220.93 317.43c-34.59 0-70.64-1.69-108.75-5.06-17.59-1.56-35.82-4.12-48.35-16.45-13.63-13.42-17.34-35.06-11.35-66.19l1-5.13c3.68-18.67 7.48-37.92 1.09-54.49-7 4.15-16 5.28-25.32 3.08-12.11-2.86-22-10.66-26.35-20.86C-5.46 132.93 5 107.1 25.16 97c18.3-9.11 42.64-6 60.56 7.88 15.38 11.9 26.28 30.89 30.68 53.52 4.19 21.52 2.27 43.11-.15 61.39-1.38 10.33-2.79 20.93 2.19 28.9 6 9.63 19.36 12.2 31.62 13.43A557.37 557.37 0 0 0 284 259.45c16.76-2.37 33.54-6.27 42.73-18.64 6-8 7.75-18.65 8.95-28 .59-4.66 1.09-9.34 1.6-14 1.29-12.06 2.63-24.53 5.7-36.58 5-19.66 14.25-35.08 26.76-44.61 15.63-11.91 36.74-13.71 51.36-4.39 15.48 9.88 21.55 31.35 13.53 47.86-7.3 15-25 23.4-41.14 20.26q.11 1.55.21 3.12c1.24 17.91 2.65 38.2-.81 57.85-4.52 25.65-17.47 46.79-35.53 58-15.56 9.65-34.18 12-51.91 13.51-27.36 2.41-55.45 3.6-84.52 3.6zM56 161.51a3.34 3.34 0 0 1 .7.08 3.41 3.41 0 0 1 2.36 1.82c9.6 19.43 5.28 41.33 1.1 62.51l-1 5.1c-5.53 28.71-2.44 48.35 9.43 60 10.92 10.75 27.81 13.07 44.17 14.52 69.77 6.18 132.6 6.67 192.08 1.48 16.91-1.47 34.62-3.65 48.91-12.51 16.41-10.18 28.22-29.64 32.4-53.39 3.32-18.82 2-37.82.73-56.19q-.28-4-.53-7.9a3.41 3.41 0 0 1 4.53-3.43c13.93 4.89 31.14-2.22 37.59-15.5s1.39-31.2-11.06-39.13c-12.25-7.81-30.17-6.15-43.56 4.06-14.23 10.85-21.07 28.21-24.29 40.87-2.95 11.58-4.26 23.81-5.52 35.63-.51 4.72-1 9.44-1.62 14.15-1.31 10.16-3.28 21.8-10.23 31.15-10.72 14.42-29.9 18.88-47.26 21.33a564.73 564.73 0 0 1-135.57 2.7c-13.9-1.4-29.14-4.47-36.72-16.6-6.28-10.05-4.64-22.42-3.18-33.33 2.36-17.81 4.23-38.71.23-59.27-4.09-21-14.09-38.53-28.16-49.38-15.88-12.23-37.33-15.11-53.33-7.14-17.14 8.53-26 30.25-19 46.49 3.49 8.11 11.79 14.59 21.66 16.92 8.77 2.09 17.37.5 23-4.23a3.33 3.33 0 0 1 2.14-.81z" fill="#15469d" data-color="1"/>
            <path d="M381.93 115.78a3.41 3.41 0 0 1-3.4-3.19c-1.08-16.53-2.2-33.59-7.12-49.59-5.35-17.37-15-31.25-27.2-39.09-11.87-7.62-26.35-10.11-40.16-12-54.49-7.47-104.86-6.75-149.71 2.12-13.43 2.66-28.8 6.56-40.89 15.33C92 45 83.53 72.65 76.12 102a3.41 3.41 0 1 1-6.61-1.66c7.73-30.65 16.59-59.56 39.94-76.5 13.15-9.55 29.41-13.7 43.57-16.5 45.6-9 96.73-9.77 152-2.2 14.57 2 29.89 4.65 42.92 13 13.54 8.7 24.21 23.91 30 42.81 5.15 16.71 6.29 34.21 7.41 51.14a3.4 3.4 0 0 1-3.18 3.62z" fill="#15469d" data-color="1"/>
            <path d="M339 201.34a3.43 3.43 0 0 1-1.42-.31c-68.93-31.65-151.39-31.95-220.56-.8a3.41 3.41 0 0 1-2.79-6.22c70.93-31.95 155.49-31.63 226.2.82a3.41 3.41 0 0 1-1.43 6.51z" fill="#15469d" data-color="1"/>
            <path d="M90.09 375.84a7.37 7.37 0 0 1-6.84-5.68 14.64 14.64 0 0 1 .14-6.65C87 344.92 91.52 326.26 96.88 308a3.41 3.41 0 0 1 6.54 1.92c-5.3 18-9.79 36.48-13.33 54.85a9.32 9.32 0 0 0-.26 3.6 1.32 1.32 0 0 0 .38.62c0-.12.44-.54 1.27-2.07l31-57.19a3.41 3.41 0 0 1 6 3.25l-31.01 57.21c-.81 1.52-3 5.54-7.23 5.65zm.17-6.78z" fill="#15469d" data-color="1"/>
            <path d="M347.16 372.25c-4 0-6-3.86-6.6-5.12L312.28 311a3.41 3.41 0 1 1 6.09-3.06l28.28 56.15a9.22 9.22 0 0 0-.06-1l-7.23-57a3.41 3.41 0 1 1 6.76-.85l7.23 56.95c.16 1.22.48 5.42-1.86 8.08a5.67 5.67 0 0 1-4.29 2z" fill="#15469d" data-color="1"/>
        </g>
    </g>
</svg>
