<?xml version="1.0" encoding="UTF-8"?>
<svg data-bbox="0.003 0 757.045 444.53" viewBox="0 0 757.04 444.53" xmlns="http://www.w3.org/2000/svg" data-type="color">
    <g>
        <g>
            <path d="M24.21 254.59q.72-12.72 2.52-25.35c.42-2.94-4.07-4.21-4.5-1.24-1.23 8.55-2.13 17.15-2.64 25.77q-.37 6.53-.48 13v6.52c0 2.17-.2 4.29.46 6.26a2.06 2.06 0 0 0 3.93 0c.56-2 .29-4.19.27-6.26s0-4.35 0-6.52q.1-6.07.44-12.18z" fill="#1b3566" data-color="1"/>
            <path d="M26.49 308.28a7.22 7.22 0 0 0-.87-2l-.3-.63-.14-.33-.08-.18a28.4 28.4 0 0 1-1-3.21c-.14-.57-.25-1.13-.35-1.71l-.06-.41-.09-.81a23.78 23.78 0 0 1 0-3.48 2.34 2.34 0 0 0-2.33-2.33 2.39 2.39 0 0 0-2.34 2.33 26.61 26.61 0 0 0 .71 7.65 23.91 23.91 0 0 0 1.1 3.42c.5 1.24 1.06 3 2.13 3.85a2.29 2.29 0 0 0 2.66.34 2.33 2.33 0 0 0 .96-2.5z" fill="#1b3566" data-color="1"/>
            <path d="M619.32 221.26a33.17 33.17 0 0 0-6.54-5.26 32.68 32.68 0 0 0-16.13-4.87c-3-.1-3 4.57 0 4.67a27.87 27.87 0 0 1 13.78 4.2 28.66 28.66 0 0 1 5.59 4.53 25 25 0 0 1 2.3 2.75 12.8 12.8 0 0 0 2.61 3.19 2.09 2.09 0 0 0 3.13-1.79c-.3-2.79-2.85-5.44-4.74-7.42z" fill="#1b3566" data-color="1"/>
            <path d="M631.3 242.76l-.36-1.25-.74-2.59a2.32 2.32 0 0 0-2.87-1.63 2.35 2.35 0 0 0-1.4 1.07 2.41 2.41 0 0 0-.23 1.8l.74 2.6.36 1.24a7.62 7.62 0 0 0 .63 1.79 2.29 2.29 0 0 0 4.26-1.16 8.09 8.09 0 0 0-.39-1.87z" fill="#1b3566" data-color="1"/>
            <path d="M456.43 225.75A27.16 27.16 0 0 0 455 223a30.37 30.37 0 0 0-4-5.32 29.45 29.45 0 0 0-11-7.32 2.34 2.34 0 0 0-2.87 1.63 2.39 2.39 0 0 0 1.63 2.87l.59.23.41.19c.44.2.88.42 1.3.64a26.09 26.09 0 0 1 2.49 1.5 17.4 17.4 0 0 1 2 1.55 26.54 26.54 0 0 1 2.09 2 21.18 21.18 0 0 1 3.24 4.37 25.09 25.09 0 0 1 1.28 2.47c.14.32.19.45.41 1 .38.94.79 1.76 1.89 2a2.13 2.13 0 0 0 2.05-.55c1.34-1.52.59-2.97-.08-4.51z" fill="#1b3566" data-color="1"/>
            <path d="M263.63 221.25a25.22 25.22 0 0 0-1.5-2.87A29.74 29.74 0 0 0 258 213a29.2 29.2 0 0 0-11.46-7.18 2.34 2.34 0 0 0-1.24 4.51 24.27 24.27 0 0 1 9.4 6 22 22 0 0 1 3.43 4.44 24.32 24.32 0 0 1 1.34 2.52 9.69 9.69 0 0 1 .44 1.05 7.62 7.62 0 0 0 .76 1.81 2.36 2.36 0 0 0 2.54 1 2.31 2.31 0 0 0 1.66-2.17 9.63 9.63 0 0 0-1.24-3.73z" fill="#1b3566" data-color="1"/>
            <path d="M269.14 243c-.06-.37-.13-.75-.19-1.12-.13-.74-.26-1.48-.38-2.22a2.33 2.33 0 0 0-2.87-1.66 2.35 2.35 0 0 0-1.4 1.07c-.08.19-.16.37-.23.56a2.18 2.18 0 0 0 0 1.24c.12.74.25 1.48.38 2.22.06.38.13.75.19 1.12l.09.51a2.34 2.34 0 0 0 0 .26 2.92 2.92 0 0 0 .69 1.14 2.26 2.26 0 0 0 1 .58 2.22 2.22 0 0 0 1.2 0 2.31 2.31 0 0 0 1.57-1.57 4.4 4.4 0 0 0-.05-2.13z" fill="#1b3566" data-color="1"/>
            <path d="M149.67 196.54a35.24 35.24 0 0 0-3.82-3.51q-2-1.69-4-3.36l-8-6.69a1.54 1.54 0 0 0-2.14 0 1.51 1.51 0 0 0 0 2.14l8.12 6.77q2 1.67 4 3.31a35.74 35.74 0 0 0 4.3 3.26 1.23 1.23 0 0 0 1.54-1.92z" fill="#1b3566" data-color="1"/>
            <path d="M159.22 193.42a11.74 11.74 0 0 0-3.18-2.49l-3.46-2.26q-3.65-2.41-7.14-5a149 149 0 0 1-13.16-11.17c-1.64-1.56-4.13.93-2.48 2.48a149.81 149.81 0 0 0 13.35 11.17c2.28 1.69 4.59 3.31 7 4.87q1.81 1.2 3.69 2.33a12.14 12.14 0 0 0 4 1.95c.89.1 2.16-.9 1.38-1.88z" fill="#1b3566" data-color="1"/>
            <path d="M172.84 192.22c-3.27-3.35-7.34-6-11.15-8.72s-7.82-5.42-11.83-8q-12-7.69-24.75-14.21c-2-1.05-3.86 2-1.81 3.09q12.54 6.44 24.44 14 5.87 3.72 11.54 7.72c3.93 2.76 7.67 6 11.86 8.33a1.41 1.41 0 0 0 1.7-2.21z" fill="#1b3566" data-color="1"/>
            <path d="M606.55 199.16a19.53 19.53 0 0 0-2.72-4.19 49.72 49.72 0 0 1-2.69-4.34 45.9 45.9 0 0 1-3.79-9.14c-.66-2.2-4.12-1.26-3.46 1a50.79 50.79 0 0 0 4.11 9.84 47.52 47.52 0 0 0 2.7 4.34c1 1.42 2.18 3.29 3.74 4.15 1.03.52 2.56-.42 2.11-1.66z" fill="#1b3566" data-color="1"/>
            <path d="M621.79 204.63a97.53 97.53 0 0 0-5.66-9.53c-1.82-3-3.6-5.93-5.32-8.95Q605.49 176.8 601 167c-.88-1.89-3.65-.25-2.79 1.63q4.56 9.93 9.88 19.49c1.74 3.14 3.54 6.24 5.43 9.29a56.51 56.51 0 0 0 6.21 8.8c1.06 1.2 2.67-.28 2.06-1.58z" fill="#1b3566" data-color="1"/>
            <path d="M626.44 192.58c-.82-3-2.64-5.72-4.12-8.38s-3-5.39-4.56-8.08l-9.3-16.41c-1.26-2.22-4.69-.22-3.42 2q4.65 8.21 9.32 16.4c1.52 2.69 3 5.38 4.59 8s3 5.6 5.08 7.82a1.45 1.45 0 0 0 2.41-1.35z" fill="#1b3566" data-color="1"/>
            <path d="M296.59 314.2c-1-1.23-3.22-1.32-4.72-1.52s-3.28-.41-4.93-.5a75.63 75.63 0 0 0-9.64 0 2.2 2.2 0 0 0-2.16 2.15 2.18 2.18 0 0 0 2.16 2.16 76.72 76.72 0 0 1 9.47-.07c1.52.08 3 .2 4.54.35s3.54.67 5-.15a1.59 1.59 0 0 0 .28-2.42z" fill="#1b3566" data-color="1"/>
            <path d="M291.84 304.77a11.35 11.35 0 0 0-3.07-.4c-.93 0-1.85-.06-2.78-.06h-5.67a1.95 1.95 0 0 0 0 3.89H286c.93 0 1.85 0 2.78-.06a11.35 11.35 0 0 0 3.07-.4 1.55 1.55 0 0 0-.01-2.97z" fill="#1b3566" data-color="1"/>
            <path d="M492.48 314.54a11 11 0 0 0-4.25-1.17 24.5 24.5 0 0 0-3.83-.17 30 30 0 0 0-8 1.42A2 2 0 0 0 475 317a2 2 0 0 0 2.42 1.38 26 26 0 0 1 7-1.32 32.51 32.51 0 0 1 3.56 0 25.19 25.19 0 0 0 3.78.18 1.49 1.49 0 0 0 .72-2.7z" fill="#1b3566" data-color="1"/>
            <path d="M488.44 305.62a52.34 52.34 0 0 0-6.61.58 2.09 2.09 0 0 0-1.32.55 1.9 1.9 0 0 0-.55 1.32 1.84 1.84 0 0 0 .55 1.32 1.76 1.76 0 0 0 1.32.55 53.73 53.73 0 0 0 7-1.12A1.61 1.61 0 0 0 490 307a1.64 1.64 0 0 0-1.56-1.38z" fill="#1b3566" data-color="1"/>
            <path d="M315.23 281.68c-.07-.08 0 0 0 0s-.21-.2-.32-.3c-.53-.49-1-1-1.52-1.52-1.52-1.61-3-3.3-4.37-5-3.38-4-6.64-8.17-10-12.26-1.22-1.5-2.42-3-3.75-4.45-1.15-1.23-3 .62-1.84 1.84C300 267 305 275.37 312 282c.78.74 2.55 2.57 3.79 1.7a1.1 1.1 0 0 0-.56-2.02z" fill="#1b3566" data-color="1"/>
            <path d="M330.15 288.11c-2.39-3.57-5.35-6.83-8.08-10.14q-4.41-5.34-8.85-10.67-8.75-10.47-17.54-20.91c-1.36-1.62-3.68.72-2.33 2.33Q302 259 310.69 269.26q4.2 5 8.45 9.92c3 3.47 5.85 7.19 9.16 10.35.93.89 2.61-.28 1.85-1.42z" fill="#1b3566" data-color="1"/>
            <path d="M346.75 290.12c-7.62-9.69-15.8-19-23.75-28.4s-15.9-18.87-23.83-28.32c-1.18-1.41-3.19.62-2 2q11.91 14.19 23.76 28.39c7.9 9.46 15.62 19.14 23.84 28.32 1.23 1.39 3.08-.6 1.98-1.99z" fill="#1b3566" data-color="1"/>
            <path d="M421.45 192.12a26.44 26.44 0 0 0-2.83-3.59c-1-1.16-2-2.35-3-3.55a88.76 88.76 0 0 1-5.21-7.3c-1.1-1.73-3.88-.12-2.76 1.61q2.6 4 5.57 7.72c1 1.21 2 2.38 3 3.52a18.12 18.12 0 0 0 3.56 3.22 1.2 1.2 0 0 0 1.67-1.63z" fill="#1b3566" data-color="1"/>
            <path d="M432 192a73.41 73.41 0 0 0-5.92-6.68q-3.06-3.39-6-6.92a164.92 164.92 0 0 1-10.77-14.84c-1.06-1.66-3.72-.12-2.65 1.55a171.66 171.66 0 0 0 10.92 15.09q2.87 3.54 5.94 6.91a42.36 42.36 0 0 0 6.8 6.52c1.03.63 2.38-.69 1.68-1.63z" fill="#1b3566" data-color="1"/>
            <path d="M444 193.74a395.94 395.94 0 0 0-33.17-42.62c-1.44-1.62-3.82.77-2.38 2.37a416.94 416.94 0 0 1 32.85 41.84c1.14 1.67 3.84.1 2.7-1.59z" fill="#1b3566" data-color="1"/>
            <path d="M325.39 405.94c-71.75 0-144.09-2.38-215.43-11.34-27.56-3.46-58.79-8.85-80.54-29.13C5.09 342.77-4 305.73 1.6 252.2c2.56-24.38 7.19-52.44 22.11-75.77 16.21-25.34 43-39.92 68.23-37.15 27.07 3 47.67 37.41 45.56 63.53a3.41 3.41 0 0 1-6.8-.55c1.84-22.67-16.39-53.68-39.5-56.21-22.71-2.48-46.92 10.88-61.75 34.06-14.15 22.13-18.59 49.21-21.06 72.8-5.38 51.25 3 86.44 25.68 107.57 20.26 18.9 50.24 24 76.74 27.36 112 14.06 226.75 11.85 337.7 9.71l176.21-3.39c31.72-.61 62-2.62 83.45-20.28 20-16.45 28.31-43.17 34.28-69.59 6.38-28.22 11.33-58.3 4.43-87.14-6.08-25.42-25.36-53.86-54.72-60.09-13.16-2.81-29.52 2.24-42.75 13.13-12.41 10.23-19.71 23.72-19.51 36.11a3.41 3.41 0 0 1-3.35 3.46h-.06a3.41 3.41 0 0 1-3.4-3.35c-.24-14.44 8-29.95 22-41.49 14.79-12.17 33.38-17.74 48.5-14.53 23.25 4.94 50.8 27 59.93 65.18 7.22 30.19 2.15 61.2-4.41 90.22-6.24 27.6-15 55.6-36.61 73.36-23.16 19.05-54.67 21.19-87.64 21.83l-176.21 3.39c-40.65.78-81.88 1.57-123.26 1.57z" fill="#1b3566" data-color="1"/>
            <path d="M698.16 156.48a3.39 3.39 0 0 1-3.23-4.49c7.4-22.19 0-49.91-19-70.61s-45.51-32.44-66.67-40.49C499.82-.72 365.69-4.25 210.62 30.43c-28 6.26-60 14.47-85.18 32.72-26.83 19.46-41.81 49.41-38.15 76.32a3.41 3.41 0 1 1-6.75.92c-4-29.36 12.06-61.85 40.9-82.76 26.22-19 59-27.44 87.7-33.86C365.53-11.19 501-7.57 611.7 34.52c21.86 8.31 49.49 20.62 69.28 42.26 20.57 22.49 28.58 52.86 20.41 77.37a3.4 3.4 0 0 1-3.23 2.33z" fill="#1b3566" data-color="1"/>
            <path d="M212.7 331.34a758.21 758.21 0 0 1-90.6-6.19c-9.83-1.33-20.06-3.21-27.58-10.16-14.61-13.52-10.46-36.95-8-46.39 6.72-25.77 18.66-57.14 51.61-71.1 25.32-10.73 111.18-9.2 131.34 0 19.93 9.07 22.91 40.8 22.91 58.9 0 42.86-13.32 65.14-43.17 72.26-8.1 1.89-21.21 2.68-36.51 2.68zm-9.84-134.75c-25.32 0-50.7 2.18-62.12 7-24 10.14-38.24 30.08-47.78 66.66-1.69 6.47-6.24 28.44 6.07 39.82 6.1 5.65 14.82 7.23 24 8.47 42.15 5.7 103.73 8.57 124.69 3.58 17.72-4.22 38.06-15.52 38.06-65.79 0-13.29-1.85-45-19-52.84-9.78-4.39-36.78-6.9-63.92-6.9zm-63.42 4z" fill="#1b3566" data-color="1"/>
            <path d="M398.4 335.87a668 668 0 0 1-75.7-4.61c-8.38-1.06-16.43-2.43-22.89-7.53-10.57-8.38-15.33-21.19-14.15-38.07.17-2.37.32-4.83.48-7.37 1-16.28 2.17-34.73 7.52-49 7.86-21 20.75-33.72 36.31-35.84 45.45-6.21 112.93-5.18 135.23 5.47 17.31 8.28 22.2 45.09 22.54 57.34l.12 3.94c.75 24 1.52 48.83-18.5 64-11.85 8.95-41 11.67-70.96 11.67zm-67.51-135.66c-16.6 2.27-25.94 18.37-30.85 31.48-5 13.31-6.1 31.22-7.09 47q-.24 3.84-.49 7.43c-1 14.71 2.76 25.25 11.58 32.24 5.08 4 12.13 5.18 19.51 6.12 36 4.53 121.68 9.39 141.69-5.75 17.21-13 16.53-35 15.81-58.33l-.12-4c-.49-17.36-6.77-45.69-18.67-51.38-20.91-10-87.79-10.81-131.37-4.87zm-.46-3.37z" fill="#1b3566" data-color="1"/>
            <path d="M539.17 332.19c-14.08 0-30.67-1.13-39.54-6.86-18.81-12.15-19.35-35.92-18.3-59.22.92-20.28 3.58-40.86 16.68-54.07 8.49-8.57 27.15-12.49 39.5-15.07l1.2-.26a154.55 154.55 0 0 1 82.95 5.38c22.92 8 36.87 29.09 47.06 44.46 11.08 16.73 16.27 42 2.89 60.82-13.87 19.5-40.21 22.76-66.61 23.37l-58.3 1.35c-2.38.06-4.91.1-7.53.1zm31.39-132a147.63 147.63 0 0 0-30.45 3.18l-1.21.25c-10.84 2.27-29 6.08-36 13.2-11.48 11.57-13.85 30.66-14.71 49.58-1 21.32-.59 43 15.19 53.19 6.62 4.28 21.16 6.17 43.21 5.67l58.31-1.35c24.62-.58 49.07-3.46 61.21-20.51 11.44-16.08 6.46-38.79-3-53.1-9.65-14.57-22.87-34.52-43.63-41.8a147.87 147.87 0 0 0-48.92-8.29z" fill="#1b3566" data-color="1"/>
            <path d="M90.41 266.66h-.17a3.4 3.4 0 0 1-3.24-3.58 95.41 95.41 0 0 0-17.59-60c-5-7-12.94-15.36-22.77-16-5.58-.38-11.68 1.84-17.24 6.2-5.08 4-9.16 9.18-13.59 15.06a3.41 3.41 0 0 1-5.44-4.11c4.72-6.26 9.1-11.81 14.82-16.31 6.88-5.39 14.57-8.1 21.89-7.65 9.89.65 19.53 7.16 27.88 18.85a102.22 102.22 0 0 1 18.84 64.33 3.41 3.41 0 0 1-3.39 3.21z" fill="#1b3566" data-color="1"/>
            <path d="M674.43 272.4a2.73 2.73 0 0 1-.41 0 3.41 3.41 0 0 1-3-3.79 80.46 80.46 0 0 1 28.3-51.89c10.74-8.89 22.42-13.07 32.94-11.79 12.15 1.5 24.54 12.58 22.89 26.09a3.45 3.45 0 0 1-3.8 3 3.41 3.41 0 0 1-3-3.8c1.13-9.25-8-17.39-16.95-18.49-11.66-1.44-22.39 5.82-27.76 10.27a73.57 73.57 0 0 0-25.88 47.45 3.42 3.42 0 0 1-3.33 2.95z" fill="#1b3566" data-color="1"/>
            <path d="M74.09 444.53h-.17a5.26 5.26 0 0 1-3.83-1.8c-1.93-2.2-1.84-5.47-1.71-6.77 1.67-16.62 3.81-33.39 6.35-49.85a3.41 3.41 0 1 1 6.74 1 939.091 939.091 0 0 0-6.1 47.49 326.32 326.32 0 0 0 21.87-45.5 3.41 3.41 0 0 1 6.36 2.47 334.7 334.7 0 0 1-23.78 48.92c-.59 1.03-2.37 4.04-5.73 4.04zm1.22-6.18z" fill="#1b3566" data-color="1"/>
            <path d="M142.4 423a5.92 5.92 0 0 1-2.05-.37c-2.8-1-4.27-3.72-4.35-8l-.42-19.4a3.41 3.41 0 0 1 3.33-3.48h.09a3.41 3.41 0 0 1 3.41 3.34l.42 19.39a9.7 9.7 0 0 0 .08 1.12 9.73 9.73 0 0 0 .76-.91 129.23 129.23 0 0 0 11.64-19.05 3.41 3.41 0 0 1 6.1 3 135.56 135.56 0 0 1-12.25 20c-2.49 3.5-4.92 4.36-6.76 4.36z" fill="#1b3566" data-color="1"/>
            <path d="M676.45 440.78a8.68 8.68 0 0 1-6.46-3.06 17.27 17.27 0 0 1-3.18-6.61L657 398.7a3.41 3.41 0 1 1 6.52-2l9.81 32.42a11.46 11.46 0 0 0 1.79 4.1 1.88 1.88 0 0 0 1.38.73c.08 0 .76-.43 1-3.72l2.65-37.62a3.41 3.41 0 0 1 6.8.48l-2.65 37.62c-.14 2-.52 7.49-5 9.48a7.13 7.13 0 0 1-2.85.59z" fill="#1b3566" data-color="1"/>
            <path d="M621.59 426c-2.19 0-5.81-1.08-8.31-7.44L606 400a3.41 3.41 0 1 1 6.35-2.49l7.32 18.61c.87 2.23 1.73 3 2 3.13a9.53 9.53 0 0 0 1-3.06l3.45-17.89a3.41 3.41 0 0 1 6.7 1.29l-3.46 17.89c-1 5.05-3.2 7.91-6.62 8.49a6.65 6.65 0 0 1-1.15.03z" fill="#1b3566" data-color="1"/>
            <path d="M527 290.18c-7.11 0-14.47-.6-21.45-3-12.44-4.24-21.31-14-22.62-24.88a3.41 3.41 0 0 1 3-3.79 3.37 3.37 0 0 1 3.79 3c1.13 9.43 9.88 16.45 18.05 19.24 9.5 3.23 20 2.75 30.1 2.27l93-4.33c15.7-.73 32.63-3.12 39.13-15.38a3.41 3.41 0 0 1 6 3.2c-8.12 15.28-27.22 18.17-44.84 19l-93.05 4.33c-3.55.16-7.3.34-11.11.34z" fill="#1b3566" data-color="1"/>
            <path d="M170.56 288.94c-14.2 0-28.4-.51-42.52-1.79-8.85-.81-19-2.15-26.91-7.85s-13.51-18-8.13-27.62a3.41 3.41 0 0 1 6 3.32c-3.43 6.11.42 14.62 6.15 18.74 6.57 4.71 15.23 5.84 23.55 6.6 42.46 3.85 85.81.64 127.74-2.46 12.42-.92 24.61-3 29.67-11.74a3.41 3.41 0 1 1 5.9 3.41c-6.64 11.5-20.77 14.07-35.06 15.13-28.39 2.12-57.39 4.26-86.39 4.26z" fill="#1b3566" data-color="1"/>
            <path d="M397.8 295.09c-24.36 0-48.21-1.72-69.84-3.5-8-.66-18-1.49-26.23-6.42-7.55-4.5-19.39-15-15.91-25.59a3.41 3.41 0 0 1 6.48 2.12c-1.76 5.38 5.34 13.1 12.92 17.62 6.9 4.12 15.62 4.84 23.31 5.48 33.48 2.75 72.35 5.37 109.87 1.58 22.68-2.3 36.61-8.89 42.57-20.17a3.41 3.41 0 0 1 6 3.19c-7.12 13.44-22.79 21.22-47.92 23.76a410.24 410.24 0 0 1-41.25 1.93z" fill="#1b3566" data-color="1"/>
            <path d="M255.43 327.19a3.41 3.41 0 0 1-.53-6.77 190.16 190.16 0 0 1 46.58-1.56 3.41 3.41 0 0 1-.6 6.79 183 183 0 0 0-44.91 1.5 3.35 3.35 0 0 1-.54.04z" fill="#1b3566" data-color="1"/>
            <path d="M465.06 327.43a3.41 3.41 0 0 1-.12-6.81l38.46-1.41h.13a3.41 3.41 0 0 1 .11 6.82l-38.45 1.4z" fill="#1b3566" data-color="1"/>
            <path d="M179 192.18a3.41 3.41 0 0 1-3.38-3A246.6 246.6 0 0 0 121.05 65a3.41 3.41 0 0 1 5.23-4.37 253.56 253.56 0 0 1 56.12 127.7 3.41 3.41 0 0 1-2.94 3.82z" fill="#1b3566" data-color="1"/>
            <path d="M246.7 195.61a3.4 3.4 0 0 1-3.4-3.32 333.6 333.6 0 0 0-43.53-156.23 3.41 3.41 0 0 1 5.93-3.38 340.41 340.41 0 0 1 44.41 159.44 3.41 3.41 0 0 1-3.32 3.49z" fill="#1b3566" data-color="1"/>
            <path d="M334.16 199.07H334a3.41 3.41 0 0 1-3.28-3.53 374.64 374.64 0 0 0-39.36-181 3.41 3.41 0 1 1 6.1-3.06 381.53 381.53 0 0 1 40.07 184.31 3.41 3.41 0 0 1-3.37 3.28z" fill="#1b3566" data-color="1"/>
            <path d="M403.46 192.74h-.25a3.41 3.41 0 0 1-3.15-3.65 1167.13 1167.13 0 0 0-1.22-182.73 3.41 3.41 0 1 1 6.79-.58 1173.46 1173.46 0 0 1 1.22 183.79 3.41 3.41 0 0 1-3.39 3.17z" fill="#1b3566" data-color="1"/>
            <path d="M464.05 203.73h-.24a3.41 3.41 0 0 1-3.16-3.64A347.46 347.46 0 0 1 531.74 13.9a3.41 3.41 0 0 1 5.39 4.17 340.66 340.66 0 0 0-69.68 182.49 3.41 3.41 0 0 1-3.4 3.17z" fill="#1b3566" data-color="1"/>
            <path d="M538.39 201.52a3.08 3.08 0 0 1-.68-.07 3.4 3.4 0 0 1-2.67-4 344.64 344.64 0 0 1 79.07-159.38 3.41 3.41 0 0 1 5.12 4.51 337.64 337.64 0 0 0-77.51 156.2 3.4 3.4 0 0 1-3.33 2.74z" fill="#1b3566" data-color="1"/>
            <path d="M586.4 201.88a3.37 3.37 0 0 1-.93-.13 3.4 3.4 0 0 1-2.35-4.2 199.89 199.89 0 0 1 95.33-120 3.41 3.41 0 1 1 3.29 6 193 193 0 0 0-92.06 115.85 3.41 3.41 0 0 1-3.28 2.48z" fill="#1b3566" data-color="1"/>
        </g>
    </g>
</svg>
