<?xml version="1.0" encoding="UTF-8"?>
<svg data-bbox="-0.071 -0.009 92.669 67.93" viewBox="0 0 92.59 67.9" xmlns="http://www.w3.org/2000/svg" data-type="color">
    <g>
        <path d="M1.8 66.07c.47-4.93.27-9.95.31-14.9s.07-9.93.09-14.9 0-9.93.07-14.89-.14-10 .2-14.9c0-.58.09-1.16.13-1.74 0-.33.36-1.53-.18-1.07.28-.24 1.1-.22 1.48-.29.76-.13 1.52-.22 2.29-.31 2.4-.29 4.82-.51 7.23-.6 4.8-.17 9.59-.09 14.39 0q15 .18 29.93.6c11.2.33 22.48.46 33.65 1.39C93 4.57 93 2 91.39 1.93 81.09 1.81 70.78 1.12 60.48.8S39.86.25 29.55.1C24.5 0 19.44-.07 14.39.07c-2.49.07-5 .14-7.48.37-1.2.11-2.4.25-3.6.4a4.27 4.27 0 0 0-2.72.83A3.09 3.09 0 0 0 0 4.24c.1 1.33.2 2.65.25 4 .11 2.56 0 5.13 0 7.69v32.78c0 5.8-.25 11.62.24 17.36a.66.66 0 0 0 1.31 0z" fill="#e0c0b3" data-color="1"/>
        <path d="M90.59 3.1a7.21 7.21 0 0 0-.54 2 10.29 10.29 0 0 1-.73 2.15 10 10 0 0 1-2.81 3.48c-2.24 1.75-6.18 2.5-8.31.18a1.42 1.42 0 0 0-1.66-.21c-.93.44-1.48 1.54-2.14 2.31s-1.35 1.59-2.08 2.36a.28.28 0 0 0 .34.44c1-.48 2-.93 3-1.44a6.66 6.66 0 0 0 2.74-1.8l-1.86.43c3.22 2.46 7.67 1.53 10.69-.75a11.11 11.11 0 0 0 3.39-4.15c.63-1.35 1.51-3.6.66-5a.41.41 0 0 0-.69 0z" fill="#e0c0b3" data-color="1"/>
        <path d="M64.12 18.41a9.78 9.78 0 0 1-6.06-2.8 9.49 9.49 0 0 1-1.89-2.56 7.68 7.68 0 0 1-.56-1.47 5.42 5.42 0 0 1-.17-.8c0-.18-.06.19 0-.08 0-.06.1-.48 0-.22a1.56 1.56 0 1 0-2.68-1.58c-.68 1-.19 2.36-.67 3.42a.33.33 0 0 0 .44.44 8.52 8.52 0 0 0 1.82-.89 3 3 0 0 0 1.32-2.18l-2.91.79c.74 1 1.07 2.22 1.76 3.24a11.66 11.66 0 0 0 2.64 2.79 10.14 10.14 0 0 0 7 2.12.11.11 0 0 0 0-.22z" fill="#e0c0b3" data-color="1"/>
        <path d="M50.89 13.41c-3.16 1.57-6.81 2.74-10.37 2-2.47-.52-5.65-2.35-5.8-5.15-.08-1.52-2.23-2.32-3-.82a13.52 13.52 0 0 1-1.52 2.74 10.09 10.09 0 0 1-2.71 2.05 15.18 15.18 0 0 1-6.33 1.87 14.46 14.46 0 0 1-6.33-1.1 15.68 15.68 0 0 1-3.05-1.69 20.06 20.06 0 0 1-2.33-2.54l-1.38 2.36c3.67.74 7.14 3.25 8.26 6.92a9.87 9.87 0 0 1 0 5.77 11.49 11.49 0 0 1-1.27 2.81A11.49 11.49 0 0 1 13 30.86c-1.17 1.12.08 2.76 1.46 2.51a5.31 5.31 0 0 1 5 1.52 5.12 5.12 0 0 1 1.46 4.91c-.59 2-2.32 3.59-3.93 4.88A16.63 16.63 0 0 1 11.07 48c-1.17.34-1.66 2.29-.37 2.85 1.83.8 3.69 1.62 4.48 3.59a7 7 0 0 1-.58 6.25 8.93 8.93 0 0 1-5.22 4A11.45 11.45 0 0 1 6 65c-.64 0-1.26-.16-1.9-.18a4.6 4.6 0 0 0-1.69.44.9.9 0 0 0-.4 1.5 3.79 3.79 0 0 0 1.88 1.09 9.48 9.48 0 0 0 2.32 0 15.09 15.09 0 0 0 4.28-1.11 11.82 11.82 0 0 0 6.14-5.49 9.39 9.39 0 0 0 .67-7.51c-.9-2.48-2.6-5.19-5.38-5.71l.69 2.61c2.2-1.86 4.56-3.53 6.64-5.53 1.75-1.69 3.46-3.68 3.56-6.24.17-4.39-4.61-8.18-8.7-8.4L15.15 33a14 14 0 0 0 3-13.42 13.72 13.72 0 0 0-9.28-9.18 1.43 1.43 0 0 0-1.38 2.37 14 14 0 0 0 3.18 2.14A17.3 17.3 0 0 0 14 16.56a17.55 17.55 0 0 0 7.33 1 16.88 16.88 0 0 0 6.72-2 25.44 25.44 0 0 0 3.19-2.05 24.48 24.48 0 0 0 3-2.14l-2.55-.33a12.36 12.36 0 0 0 8.09 5.69c4 .72 8-.76 11.44-2.78a.33.33 0 0 0-.33-.57z" fill="#e0c0b3" data-color="1"/>
        <path d="M5.88 18.19C5.09 26 5 34 4.77 41.85c-.13 3.9-.24 7.8-.36 11.7-.06 2-.2 4-.35 6-.07.91-.15 1.83-.22 2.74-.09 1.11-.39 2.14-.52 3.24-.23 1.94 3.22 2 3.08 0-.07-1-.31-2-.35-3s-.06-2-.08-3c0-2-.09-4 0-6q.13-5.85.24-11.7c.15-7.87.5-15.8.12-23.66a.2.2 0 0 0-.4 0z" fill="#e0c0b3" data-color="1"/>
        <path d="M6.57 8v.09c0-.08 0-.09 0 0a1 1 0 0 0-.14.32c0 .14-.07.26-.1.4-.06.36-.15.72-.19 1.09a4.76 4.76 0 0 0 0 1.84L6 11.25a1.78 1.78 0 0 0 1.05 1.62 3.21 3.21 0 0 0 1.45.42 1.48 1.48 0 0 0 1.3-.74l-.8.64h.07l-.37.05H9l.4-.06h.23A.84.84 0 0 0 10 13a1 1 0 0 0 .51-.43l-.67.43a4.67 4.67 0 0 0 1.12-.1.39.39 0 0 0 .17-.64 9.86 9.86 0 0 0-.92-.62l.36.63a1.2 1.2 0 0 0-.5-.93 2.29 2.29 0 0 0-.21-.23c-.08-.09-.18-.15-.26-.24l.4 1.33a1.49 1.49 0 0 0-.39-1.46 2.49 2.49 0 0 0-.65-.42L8.23 10l.37.15-.18-.09.31.24-.25-.21a1.81 1.81 0 0 0-.57-.29l.89.68a.23.23 0 0 1-.06-.12l.15.36a2 2 0 0 1-.08-.33v.38a11.93 11.93 0 0 0-.17-1.57c-.06-.21-.09-.41-.14-.62a1.71 1.71 0 0 0-.09-.3.89.89 0 0 0-.15-.28c0 .09 0 .09 0 0a.91.91 0 0 0-.85-.64.92.92 0 0 0-.84.64z" fill="#e0c0b3" data-color="1"/>
        <path d="M20.37 6.7c9 .17 18.06.21 27.1.25s18.09-.07 27.1.35c5.14.23 10.28.4 15.41.65 1.28.07 1.29-2 0-2-18.06-.07-36.13-.35-54.2-.09-5.14.07-10.27.28-15.41.53a.16.16 0 0 0 0 .31z" fill="#e0c0b3" data-color="1"/>
        <path d="M14.41 6.92L15 7h.59a.19.19 0 0 0 .19-.19c0-.11-.08-.17-.19-.18a1 1 0 0 0-.3 0L15 6.6l-.6.05a.14.14 0 0 0 0 .27z" fill="#e0c0b3" data-color="1"/>
        <path d="M16.7 36.67v-.12c0 .01-.09.31-.09.34a2.47 2.47 0 0 0 .05.38c0 .09 0 .06 0 0v.33c0 .11 0-.16 0 0s0 .21.05.32 0 .19 0 .06v.35a.76.76 0 0 1 0 .15v.05c0-.15 0 0 0 0v.18a3.72 3.72 0 0 1-.19.65c0 .1 0 .09 0 0l-.08.17c-.05.1-.1.21-.16.31-.28.52-.79 1.07-.78 1.68a1 1 0 0 0 .49.85 1 1 0 0 0 1 0 2.09 2.09 0 0 0 .78-.88c.15-.24.28-.49.41-.75a5.53 5.53 0 0 0 .55-1.9 3.4 3.4 0 0 0-.26-1.61 2 2 0 0 0-.53-.72 1.33 1.33 0 0 0-.49-.28.83.83 0 0 0-.35 0c-.1 0 .15 0 0 0a.44.44 0 0 0-.44.43z" fill="#e0c0b3" data-color="1"/>
        <path d="M11.71 57.14a1 1 0 0 0 .07.15l-.11-.29a1.42 1.42 0 0 1 .11.35v-.29a3.33 3.33 0 0 0 .07.54l-.05-.31c0 .22.06.43.08.65v-.33a2.22 2.22 0 0 1 0 .63v-.33c0 .21-.05.41-.08.62l.05-.33a1.55 1.55 0 0 1 0 .21 1.25 1.25 0 0 0 .56 1.36l-.5-.86a2.26 2.26 0 0 0 .08.51.81.81 0 0 0 1 .56 1.48 1.48 0 0 0 .64-.37l-.71.3h.39a.94.94 0 0 0 .41-.21 1.27 1.27 0 0 0 .44-.63 2.72 2.72 0 0 0 .15-1.23c0-.17 0-.34-.07-.51a2 2 0 0 0-.17-.46 1.51 1.51 0 0 0-.11-.22 2.88 2.88 0 0 0-.3-.39l.17.23a3.49 3.49 0 0 0-.49-.59 1 1 0 0 0-1.57 1.22z" fill="#e0c0b3" data-color="1"/>
        <path d="M18.56 13.39a.51.51 0 0 0 .1.21v.1a1.18 1.18 0 0 0 .18.21 1.7 1.7 0 0 0 .5.38 4.79 4.79 0 0 0 1.18.38 5.58 5.58 0 0 0 1.29.06 1.4 1.4 0 0 0 .93-.37c.13-.14-.24.15 0 0a1.39 1.39 0 0 0 .66-.73c.19-.65-.36-1.11-.95-1.21h.1a1 1 0 0 0-.34-.15 1.79 1.79 0 0 0-.46 0h-1.56a1.78 1.78 0 0 0-1.37.34l.34-.2-.32.14a.49.49 0 0 0-.29.72z" fill="#e0c0b3" data-color="1"/>
        <path d="M42.75 13.48a.89.89 0 0 0 .67.26h.11l.34-.05a.66.66 0 0 0 .25-.1.87.87 0 0 0 .33-.33 2.29 2.29 0 0 0 .1-.23.73.73 0 0 0 0-.36.85.85 0 0 0-.11-.34l-.14-.18a1 1 0 0 0-.4-.24.58.58 0 0 0-.26 0 .64.64 0 0 0-.36.08.37.37 0 0 0-.14.07l-.1.05h-.08a.84.84 0 0 0-.31.31l-.09.21a.86.86 0 0 0 0 .45.78.78 0 0 0 .22.37z" fill="#e0c0b3" data-color="1"/>
    </g>
</svg>
