<?xml version="1.0" encoding="UTF-8"?>
<svg data-bbox="0 -0.016 404.811 374.066" viewBox="0 0 404.86 374.05" xmlns="http://www.w3.org/2000/svg" data-type="color">
    <g>
        <g>
            <path d="M32.66 68.38a56.72 56.72 0 0 0-5.8 15.83 57.49 57.49 0 0 0-1.07 8.16c-.17 2.8-.39 6 .32 8.74.66 2.54 4.19 1.83 4.38-.59s-.19-5.08-.06-7.61a50.28 50.28 0 0 1 1-7.73 52.51 52.51 0 0 1 5.28-14.44c1.41-2.64-2.62-5-4.05-2.36z" fill="#133165" data-color="1"/>
            <path d="M31.21 120.67c-.06-.16-.13-.31-.2-.46a8.88 8.88 0 0 1-.53-2 9 9 0 0 1 0-2 2.32 2.32 0 0 0-.68-1.65 2.39 2.39 0 0 0-1.65-.69 2.36 2.36 0 0 0-1.65.69l-.37.47a2.32 2.32 0 0 0-.32 1.18 10.94 10.94 0 0 0 .17 3.47 8.56 8.56 0 0 0 .39 1.4 8.16 8.16 0 0 0 .85 1.82 2.42 2.42 0 0 0 1.38 1 2.29 2.29 0 0 0 1.77-.23 2.35 2.35 0 0 0 1.06-1.37c0-.21.05-.41.08-.61a2.21 2.21 0 0 0-.3-1.02z" fill="#133165" data-color="1"/>
            <path d="M31.2 120.63a2.92 2.92 0 0 1 .14.31z" fill="#133165" data-color="1"/>
            <path d="M31.12 120.43l.08.2a.89.89 0 0 1-.08-.2z" fill="#133165" data-color="1"/>
            <path d="M101.05 331.36c-3.74-.89-7.3-1.38-10.82-3.07a64.89 64.89 0 0 1-9.77-5.93 80.27 80.27 0 0 1-15.94-15.3c-1.86-2.35-5.15 1-3.3 3.3a84.61 84.61 0 0 0 17.41 16.39 61 61 0 0 0 10.47 6.12c3.7 1.63 7.88 3.12 12 2.35 1.9-.37 1.8-3.41-.05-3.86z" fill="#133165" data-color="1"/>
            <path d="M126.61 337.64a5 5 0 0 0-2.76-1.21l-2.1-.43-4.36-.9a2.38 2.38 0 0 0-2.87 1.63 2.36 2.36 0 0 0 1.63 2.87l4.36.9 2.1.43a5.46 5.46 0 0 0 3.1.1 2.15 2.15 0 0 0 1.42-1.42 2.07 2.07 0 0 0-.52-1.97z" fill="#133165" data-color="1"/>
            <path d="M369 254.27c-25-14.4-53.29-22.43-82-25.27-30.12-3-60.57-.16-90.1 6.15a464.94 464.94 0 0 0-50.76 14.12c-2.83 1-1.62 5.46 1.24 4.5 28.93-9.71 58.76-17.27 89.2-20.1 28.77-2.66 58-1.07 86 6.53a188.44 188.44 0 0 1 18.4 6.05c1.91 11.77 3.86 23.54 5.76 35.31.31 1.92 3.22 1.1 2.92-.81-1.76-11.05-3.48-22.11-5.23-33.16 1.79.72 3.57 1.46 5.33 2.24a1.53 1.53 0 0 0 0 .37q1.27 6 2.2 12c.63 4 .86 8.08 1.54 12.07.26 1.51 2.64 1.12 2.63-.36a95.16 95.16 0 0 0-1.32-12.25c-.48-3.44-1.09-6.86-1.76-10.27 1.59.74 3.19 1.45 4.75 2.23a1.4 1.4 0 0 0-.12 1.08 36 36 0 0 1 1.46 6.24c.3 2.08.3 4.17.51 6.25a1.21 1.21 0 0 0 1 1.18 1.19 1.19 0 0 0 1.32-.86 21 21 0 0 0 .08-6.85 36 36 0 0 0-1.11-5.35c1.91 1 3.85 2 5.73 3 2.63 1.49 4.98-2.55 2.33-4.04z" fill="#133165" data-color="1"/>
            <path d="M190.28 374.05a457.24 457.24 0 0 1-56.54-3.74c-27.26-3.4-58.22-9.5-81.12-29-27.25-23.19-37-59.83-42.49-89.15C3.37 215.93.06 176.85 0 132.69 0 104.12 2.3 74.7 19.43 53c14.83-18.77 38.1-28.25 61-35.69 37.07-12 85.7-24.36 133-12.55 27.35 6.82 47.45 21.8 55.15 41.11 6.83 17.12 3.82 36.57 1.4 52.19l-13.36 86.21c-.54 3.49-.93 7.07.71 9.16 1.83 2.31 6 2.09 8.8.42 3.26-2 5.59-5.4 8.05-9.05l.46-.69a204.08 204.08 0 0 1 52.3-53c15.91-11.11 29.24-14.57 40.74-10.58s18 14.64 21.58 24.71a3.28 3.28 0 0 1 .51.71c21.95 40.64 19.72 94.16-5.67 136.35-22.51 37.39-63.19 66.9-111.59 80.94-24.86 7.22-52.07 10.81-82.23 10.81zM27.91 292.46c6.26 16.32 15.33 31.94 29.09 43.67 21.54 18.32 51.29 24.14 77.55 27.42 52.9 6.6 97.41 4.35 136.08-6.86 46.78-13.57 86-42 107.65-77.91 18.73-31.12 24.25-68.66 16.1-101.93 1.16 39-13.67 78.56-40.71 106.65-31.26 32.48-78.48 49.22-123.19 43.71-25.57-3.15-48-13.33-63.18-28.67-14.55-14.72-22.82-34-30.82-52.61-1.85-4.31-3.7-8.61-5.62-12.85-6.48-14.29-15.08-29.78-29.82-36.31-21.6-9.58-47.45 5.4-59 24.79-11.17 18.75-12.19 39.92-13.28 62.33l-.35 6.92a3.36 3.36 0 0 1-.5 1.65zM87 187a41.46 41.46 0 0 1 16.87 3.52c16.92 7.51 26.66 25.18 33.26 39.74 1.94 4.28 3.81 8.62 5.67 13 7.75 18 15.76 36.7 29.4 50.5 14.1 14.26 35.12 23.74 59.18 26.71 42.62 5.23 87.62-10.74 117.41-41.7s44-76.53 37.16-118.94c-1.65-10.2-6.51-28-20.45-32.86-9.3-3.21-20.61 0-34.61 9.73a197.38 197.38 0 0 0-50.55 51.3l-.46.68c-2.64 3.91-5.63 8.34-10.19 11.08-5.34 3.23-13.42 3.34-17.66-2-3.34-4.24-2.83-9.67-2.09-14.42L263.29 97c2.41-15.58 5.15-33.24-1-48.63-6.88-17.24-25.27-30.73-50.46-37C166.2 0 118.77 12.05 82.57 23.81c-21.92 7.12-44.08 16.09-57.8 33.44-15.83 20-18 48.1-17.95 75.43 0 43.74 3.33 82.42 10 118.25 1.46 7.8 3.22 16.15 5.56 24.59 1.12-20.32 3.18-39.58 13.82-57.45C46.39 201 66.66 187 87 187z" fill="#133165" data-color="1"/>
        </g>
    </g>
</svg>
