<?xml version="1.0" encoding="UTF-8"?>
<svg data-bbox="0 0 184.8 190" xmlns="http://www.w3.org/2000/svg" viewBox="0 0 185 190" height="190" width="185" data-type="color">
    <g>
        <g clip-path="url(#138b3808-af1b-4f49-b544-c1d26c81edb4)">
            <path fill="#FFC400" d="M101.5 118.4c-26-8.5-43-29.6-47.3-53.8-.9-5.3-2.1-11.2-3.4-17.8-1.4 6.6-2.5 12.5-3.4 17.8C43 88.7 26.1 109.8 0 118.4c26.3 8.6 43.1 29.8 47.3 53.8.9 5.3 2.1 11.2 3.4 17.8 1.4-6.6 2.5-12.5 3.4-17.8 4.5-25.1 22.4-45.6 46.6-53.5.4-.2.6-.2.8-.3z" data-color="1"/>
            <path fill="#FFC400" d="M137.5 17.8c-.9-5.3-2.1-11.2-3.4-17.8-1.4 6.6-2.5 12.5-3.4 17.8-4.3 24-21.1 45.2-47.3 53.8 26 8.5 43 29.5 47.3 53.8.9 5.3 2.1 11.2 3.4 17.8 1.4-6.6 2.5-12.5 3.4-17.8 4.5-25.1 22.4-45.6 46.6-53.5.2-.1.5-.2.7-.2-26-8.6-43-29.7-47.3-53.9z" data-color="1"/>
            <path fill="#FFC400" d="M17.6 67.8c.2 1.2.5 2.6.8 4.1.3-1.5.6-2.9.8-4.1 1-5.5 4.8-10.3 10.8-12.3-5.9-1.9-9.8-6.7-10.8-12.3-.2-1.2-.5-2.6-.8-4.1-.3 1.5-.6 2.9-.8 4.1-1 5.5-4.9 10.3-10.8 12.3 5.9 2 9.8 6.8 10.8 12.3z" data-color="1"/>
            <path fill="#FFC400" d="M106 138.2c-.3-1.9-.7-4-1.2-6.3-.5 2.4-.9 4.4-1.2 6.3-1.5 8.5-7.5 16-16.8 19.1 9.2 3 15.3 10.5 16.8 19.1.3 1.9.7 4 1.2 6.3.5-2.4.9-4.4 1.2-6.3 1.5-8.5 7.5-16 16.8-19.1l-.2-.1c-8.7-2.9-15-10.1-16.6-19z" data-color="1"/>
            <path fill="#FFC400" d="M163.7 37.2c.2 1.2.5 2.5.8 4 .3-1.5.6-2.8.8-4 1-5.4 4.8-10.3 10.8-12.2-5.9-1.9-9.8-6.7-10.8-12.2-.2-1.2-.5-2.5-.8-4-.3 1.5-.6 2.8-.8 4-1 5.5-4.8 10.3-10.8 12.2l.2.1c5.6 1.7 9.6 6.4 10.6 12.1z" data-color="1"/>
            <path fill="#FFC400" d="M21.3 161c-.2-1.2-.5-2.5-.8-4-.3 1.5-.6 2.8-.8 4-1 5.4-4.8 10.3-10.8 12.2 5.9 1.9 9.8 6.7 10.8 12.2.2 1.2.5 2.5.8 4 .3-1.5.6-2.8.8-4 1-5.5 4.8-10.3 10.8-12.2-6-1.9-9.8-6.7-10.8-12.2z" data-color="1"/>
        </g>
        <defs fill="none">
            <clipPath id="138b3808-af1b-4f49-b544-c1d26c81edb4">
                <path fill="#ffffff" d="M184.9 0v189.9H0V0h184.9z"/>
            </clipPath>
        </defs>
    </g>
</svg>
