<svg xmlns="http://www.w3.org/2000/svg" viewBox="0 0 621.51 621.51"><defs><style>.cls-1{fill:#193d92;}.cls-2{fill:#fff;}</style></defs><g id="Layer_2" data-name="Layer 2"><g id="Layer_1-2" data-name="Layer 1"><circle class="cls-1" cx="310.76" cy="310.76" r="310.76"/><path class="cls-2" d="M310.76,71.58c-22.28,0-43.29,22.75-59.7,60a410.83,410.83,0,0,1,59.7,34.89,410.23,410.23,0,0,1,59.69-34.89c-16.41-37.26-37.42-60-59.69-60Zm0,182.61a56.57,56.57,0,1,0,56.57,56.57,56.56,56.56,0,0,0-56.57-56.57Zm16.5-75.74Q341.62,189.3,356,201.68c12.55.92,24.79,2.22,36.63,3.87a382,382,0,0,0-15.07-56.1,383,383,0,0,0-50.29,29ZM141.63,479.88c15.76,15.76,46.69,14.54,84.63-.19a409.74,409.74,0,0,1-17.54-66.92,408.6,408.6,0,0,1-66.89-17.52c-14.74,37.94-16,68.87-.2,84.63ZM244,472.06a382.37,382.37,0,0,0,50.29-29q-14.36-10.85-28.72-23.23c-12.56-.92-24.8-2.22-36.64-3.87A381.33,381.33,0,0,0,244,472.06Zm66.8-40.66q6.57-4.86,13.19-10.07-6.56.15-13.19.14t-13.19-.14q6.6,5.21,13.19,10.07Zm37.38-30.27Q361.9,389,375.45,375.45t25.64-27.27c.76-12.19,1.16-24.69,1.16-37.42s-.4-25.23-1.16-37.43c-8.08-9.15-16.64-18.27-25.64-27.27s-18.14-17.58-27.31-25.68c-12.18-.76-24.67-1.15-37.38-1.15s-25.2.39-37.39,1.15q-13.75,12.15-27.31,25.68c-9,9-17.56,18.12-25.64,27.27q-1.14,18.3-1.15,37.43c0,12.73.39,25.23,1.15,37.42q12.12,13.74,25.64,27.27t27.31,25.68q18.28,1.14,37.39,1.15c12.71,0,25.2-.39,37.38-1.15Zm73.23-77.23q5.19-6.58,10-13.14-4.84-6.57-10-13.15.13,6.54.14,13.15t-.14,13.14Zm21.69-29.64a383.09,383.09,0,0,0,29-50.3A384.71,384.71,0,0,0,416,228.87c1.65,11.87,2.95,24.13,3.88,36.7q12.35,14.31,23.19,28.69Zm36.63-68c14.73-37.94,15.95-68.87.19-84.63s-46.69-14.54-84.63.19a409.87,409.87,0,0,1,17.54,66.93,409,409,0,0,1,66.9,17.51ZM310.76,190.12q-6.58,4.84-13.19,10.06,6.54-.13,13.19-.14t13.19.14q-6.61-5.2-13.19-10.06ZM200.14,297.61q-5.19,6.58-10,13.15,4.83,6.56,10,13.14-.13-6.54-.14-13.14t.14-13.15Zm-21.69,29.65a383,383,0,0,0-29,50.29,383.45,383.45,0,0,0,56.07,15.09q-2.47-17.81-3.87-36.7-12.36-14.31-23.2-28.68ZM233.38,497.5c-45.33,17.58-83.73,17.64-105.37-4s-21.58-60-4-105.37c-44.49-19.62-71.69-46.76-71.69-77.37S79.52,253,124,233.38c-17.58-45.33-17.63-83.73,4-105.37s60-21.58,105.37-4C253,79.52,280.14,52.32,310.76,52.32s57.75,27.2,77.37,71.69c45.33-17.58,83.73-17.63,105.37,4s21.58,60,4,105.37C542,253,569.2,280.14,569.2,310.76S542,368.51,497.5,388.13c17.58,45.33,17.64,83.73-4,105.37s-60,21.58-105.37,4c-19.62,44.5-46.75,71.7-77.37,71.7S253,542,233.38,497.5Zm-101.79-127a410.23,410.23,0,0,1,34.89-59.69,410.83,410.83,0,0,1-34.89-59.7c-37.26,16.41-60,37.42-60,59.7s22.75,43.28,60,59.69Zm46.86-76.2c7.22-9.55,15-19.14,23.2-28.68.92-12.57,2.22-24.83,3.87-36.7A384.71,384.71,0,0,0,149.45,244a382.37,382.37,0,0,0,29,50.29Zm44.81-52.43q4.52-4.71,9.18-9.38t9.42-9.21q-8.33,1-16.39,2.21-1.23,8.06-2.21,16.38Zm42.27-40.14q14.33-12.36,28.72-23.23a382.37,382.37,0,0,0-50.29-29,382,382,0,0,0-15.07,56.1c11.84-1.65,24.08-3,36.64-3.87Zm224.39,49.38A410.83,410.83,0,0,1,455,310.76a410.23,410.23,0,0,1,34.89,59.69c37.27-16.41,60-37.42,60-59.69s-22.74-43.29-60-59.7Zm-46.86,76.2q-10.83,14.34-23.19,28.68-1.39,18.87-3.88,36.7a383.45,383.45,0,0,0,56.07-15.09,383,383,0,0,0-29-50.29Zm-44.8,52.43q-4.53,4.71-9.19,9.38t-9.41,9.22q8.32-1,16.39-2.22,1.21-8.06,2.21-16.38ZM356,419.83q-14.34,12.36-28.73,23.23a383,383,0,0,0,50.29,29A381.33,381.33,0,0,0,392.62,416c-11.84,1.65-24.08,3-36.63,3.87ZM310.76,455a410.83,410.83,0,0,1-59.7,34.89c16.41,37.27,37.42,60,59.7,60s43.28-22.74,59.69-60A410.23,410.23,0,0,1,310.76,455Zm169.12,24.85c15.76-15.76,14.54-46.69-.19-84.63a409,409,0,0,1-66.9,17.52,409.74,409.74,0,0,1-17.54,66.92c37.94,14.73,68.87,15.95,84.63.19ZM226.26,141.82c-37.94-14.73-68.87-15.95-84.63-.19s-14.54,46.69.2,84.63a408.63,408.63,0,0,1,66.89-17.51,409.87,409.87,0,0,1,17.54-66.93Zm15.6,256.47q-4.73-4.53-9.42-9.22t-9.18-9.38q1,8.32,2.21,16.38,8.06,1.23,16.39,2.22Zm137.8-175.06q4.72,4.53,9.41,9.21t9.19,9.38q-1-8.32-2.21-16.38-8.07-1.23-16.39-2.21Z"/></g></g></svg>