<?xml version="1.0" encoding="UTF-8"?><svg id="Layer_1" xmlns="http://www.w3.org/2000/svg" viewBox="0 0 2138.04 140.83"><defs><style>.cls-1{fill:#1f51ad;}</style></defs><g id="Layer_2"><g id="Layer_1-2"><path class="cls-1" d="M2138.04,0V140.83l-.48-.15c-97.4-25.76-196.77-43.37-297.09-52.65-38.3-3.53-76.63-6.44-115-8.74-29.74-1.77-59.56-3-89.35-3-54.3-.06-108.61,.71-162.91,1.61-26.79,.45-53.58,1.8-80.35,3-25.28,1.11-50.55,2.45-75.8,4-35.41,2.19-70.78,4.53-106.11,7-31.2,2.21-62.4,4.62-93.59,7-38.83,3-77.64,6.05-116.47,9-31.53,2.44-63.06,4.86-94.6,7-36.86,2.51-73.73,4.85-110.62,7-26.75,1.56-53.52,2.94-80.3,3.94-36.12,1.27-72.24,2.56-108.37,3-61.15,.73-122.3,.86-183.37-2.71-31.06-1.81-62.15-3.3-93.15-6.07-36.99-3.37-73.87-7.36-110.64-11.96-50.84-6.37-101.33-15.55-151.36-26.86-22.89-5.18-45.66-10.89-68.48-16.36V0H2138.04Z"/></g></g></svg>