<svg xmlns="http://www.w3.org/2000/svg" viewBox="0 0 621.51 621.51"><defs><style>.cls-1{fill:#193d92;}.cls-2{fill:#fff;}</style></defs><g id="Layer_2" data-name="Layer 2"><g id="Layer_1-2" data-name="Layer 1"><circle class="cls-1" cx="310.76" cy="310.76" r="310.76"/><path class="cls-2" d="M236.55,326.93a143.44,143.44,0,0,0,27.95-2.8,6.29,6.29,0,0,0,2.28.44H267c46.13-1.9,86.88-25.87,109-64.14S398.58,174.9,377.2,134a6.21,6.21,0,0,0-5.77-3.34c-46.13,1.9-86.88,25.88-109,64.14q-2.93,5-5.33,10.3A116.6,116.6,0,0,0,248,194.77c-30.66-30.66-76.61-41.74-122.92-29.65a6.2,6.2,0,0,0-4.44,4.45c-12.1,46.3-1,92.25,29.65,122.91C172.78,315,203.5,326.93,236.55,326.93ZM131.79,176.28c40.76-9.52,80.69.56,107.41,27.29a100.91,100.91,0,0,1,12.54,15.28,129.25,129.25,0,0,0-3.69,64.89l-65.26-65.26a6.22,6.22,0,1,0-8.79,8.8l81.53,81.53c.54,1.34,1.1,2.66,1.69,4-37.48,6.05-73.45-4.42-98.14-29.11C132.36,257,122.28,217,131.79,176.28Zm168.39-6.73L315,222.44l-21.28,36.82L276.28,197c-.07-.22-.14-.44-.23-.65A113.06,113.06,0,0,1,300.18,169.55ZM279.22,311l-1.11.16,1.68-2.9,16-27.62,62.7-16C339.91,289.8,311.51,306.43,279.22,311Zm101.14-108.8a5.88,5.88,0,0,0-1.8.19l-44.1,11.27,36.63-63.38A121.85,121.85,0,0,1,380.36,202.18Zm-13.17,47.34-62.73,16,21.3-36.86,53.31-13.62a113.31,113.31,0,0,1-11.19,34.31A5.58,5.58,0,0,0,367.19,249.52Zm-6.9-105.44-36.58,63.3-12.28-43.77a6,6,0,0,0-.72-1.63A121.93,121.93,0,0,1,360.29,144.08Zm-94.82,73.19q1-2.6,2.12-5.14l6.26,22.32,6.58,23.46,4.6,16.4-2.6,4.5-6.54,11.31L268,303.72l-.08.14-.59,1c-.42-1-.82-2-1.21-3a119.77,119.77,0,0,1-5.74-67.26c.66-3.16,1.46-6.29,2.38-9.39C263.59,222.52,264.47,219.88,265.47,217.27Z"/><path class="cls-2" d="M441,322.52c-.19-.24-.38-.45-.58-.68l0,0c-.61-.72-1.23-1.41-1.84-2.09l-.32-.35c-.71-.77-1.42-1.53-2.14-2.25l-.68-.66c-.58-.56-1.16-1.11-1.74-1.64-.2-.18-.4-.37-.6-.54-.82-.73-1.64-1.41-2.47-2.07l-.07-.05C418.08,302.29,404.58,300,388,300c-20.8,0-42.7,6.54-58.82,19.28-1.69,1.34-3.33,2.75-4.89,4.23a61.07,61.07,0,0,0-17.86,30.54H226.05a47.62,47.62,0,0,1-7.38-1.41l-47-30.92a29.7,29.7,0,0,0-45.23,17.84,29.62,29.62,0,0,0-22.13,22.07,29.61,29.61,0,0,0-18,12.55l.09.06,0,.05A29.72,29.72,0,0,0,95,415.5l71,45.87a51.91,51.91,0,0,0,17,7.12l95.66,21.15a52,52,0,0,0,11.25,1.23c1.59,0,3.19-.07,4.78-.22l37-3.39a51.94,51.94,0,0,0,19.36-5.7c67.09-35,86.67-45.42,92.68-48.75l62.75,9.93,1-6.14,1-6.14-64.87-10.28a6.2,6.2,0,0,0-4.49,1c-3.15,1.88-39,20.72-93.76,49.33a39.35,39.35,0,0,1-14.75,4.34l-37,3.4a40.07,40.07,0,0,1-12.21-.77l-95.65-21.16a39.39,39.39,0,0,1-13-5.42l-70.93-45.83a17.29,17.29,0,0,1,8.48-31.69,7.73,7.73,0,0,0,.84-.13,17.2,17.2,0,0,1,9.67,2.86l71.84,46.56a6.12,6.12,0,0,0,3.35,1l40.28.19v-.19h94.47V411.25H226.05a22.38,22.38,0,0,1,0-44.75h85.56a6.23,6.23,0,0,0,6.16-5.33c2.9-20,17.36-34,35.46-41.74,1.81-.77,3.66-1.47,5.53-2.12A91,91,0,0,1,388,312.45c21.34,0,31.76,4.23,42.88,17.4l4.74-4h0L431,330c.49.59,1,1.17,1.46,1.79a6.23,6.23,0,0,0,3.08,2.11l100.37,30.67.47.14L540,352.77ZM194.85,373.45,149.6,343.66a29.64,29.64,0,0,0-10-4.2,17.12,17.12,0,0,1,1.31-2.42,17.31,17.31,0,0,1,23.94-4.92l42.06,27.69A35.08,35.08,0,0,0,194.85,373.45ZM439,421.23c-.15.11-.3.22-.44.34A4.41,4.41,0,0,1,439,421.23Zm-241.16-10-70.26-45.55a29.64,29.64,0,0,0-10-4.2,17.08,17.08,0,0,1,14.72-10.16,6.31,6.31,0,0,0,.87-.14,17.23,17.23,0,0,1,9.61,2.84l48.6,32c-.07.93-.12,1.87-.12,2.83a34.66,34.66,0,0,0,8.18,22.39Z"/></g></g></svg>