<svg xmlns="http://www.w3.org/2000/svg" viewBox="0 0 621.51 621.51"><defs><style>.cls-1{fill:#193d92;}.cls-2{fill:#fff;}</style></defs><g id="Layer_2" data-name="Layer 2"><g id="Layer_1-2" data-name="Layer 1"><circle class="cls-1" cx="310.76" cy="310.76" r="310.76"/><path class="cls-2" d="M549.19,209.56c-7.59,7.71-49.08-1.7-92.61-45.45-49.2-49.54-100.77-63.14-118.34-45.46h0L300.6,156.4h0c-15.3,15.42-8.05,65.29,45.23,118.91,20.07,20.18,28.68,33.33,32.87,43.64-12.12-7-26.63-17.57-42.62-33.66-46.59-46.93-99.75-64.16-118.34-45.46l-37.63,37.86h0C164.8,293.11,172.06,343,225.33,396.6c15.42,15.53,26.76,28,30.72,42.4-11.67-7-25.39-17.23-40.46-32.42-44.33-44.67-99-65-118.35-45.46h0l-37.74,38C51,407.6,63.92,420.41,72.42,411.9c7.59-7.7,49.08,1.7,92.61,45.46,45.91,46.13,99.53,64.5,118.34,45.45h0L321,465h0c15.3-15.41,8.16-65.29-45.23-118.91-22.56-22.67-29.7-34-31.29-42.73,11.79,7,25.62,17.23,41,32.76,45.79,46,99.41,64.5,118.34,45.57h0l37.63-37.86h0c15.31-15.42,8.05-65.3-45.23-118.91-21-21.09-28.33-31.18-30.15-42.06,11.56,7,25.05,17.12,39.9,32.08,49.2,49.54,100.78,63.14,118.35,45.46h0L562,222.49c8.5-8.73-4.31-21.43-12.81-12.93Zm-371.35,235c-28.91-29.13-60.42-47.95-86.26-52l18.47-18.59c6-6,45.12-2.27,92.61,45.46,23.36,23.46,44,36.27,59.63,43.41.11,0,.11.11.23.11,4.42,2,8.61,3.63,12.12,4.88a81.79,81.79,0,0,0,14.29,3.51L270.34,490c-5.56,5.66-44.44,2.94-92.5-45.46ZM263,358.74c48.29,48.52,50.9,87.62,45.23,93.4-5.33,5.33-25.28-.45-32.54-3.28-.68-25.51-16-43.3-37.4-65-48.18-48.51-50.9-87.51-45.23-93.4h0c5.33-5.33,24.48.11,33.44,3.63-2,17,3.63,31.62,36.5,64.61Zm35.48-35.48c-22.67-22.78-54.75-46.93-86.38-51.92l18.59-18.7c5.9-6,45.23-2.27,92.61,45.45C346,320.88,378,345,409.65,350l-18.59,18.71h0c-6.46,6.34-46.14,1.36-92.61-45.46Zm85-85.81c48.17,48.52,50.89,87.51,45.22,93.4h0c-4.76,4.77-22.21.34-28.56-1.81-2.95-17.34-9.86-34.69-41.49-66.43-48.18-48.51-50.9-87.51-45.23-93.4h0c5.56-5.44,25,.23,34.12,4C346.74,195.17,354.45,208.32,383.47,237.45Zm128.09,10h0c-6,6-45.12,2.27-92.61-45.45-22.22-22.33-42.06-35.14-57.48-42.4-2.94-1.13-14.28-7.14-28.9-9.52l18.48-18.7h0c5.89-6,45.22-2.27,92.61,45.45,28.9,29.14,60.42,47.95,86.26,52Z"/></g></g></svg>