<?xml version="1.0" encoding="UTF-8"?><svg id="Layer_1" xmlns="http://www.w3.org/2000/svg" viewBox="0 0 2138 176"><defs><style>.cls-1{fill:#1f51ad;}</style></defs><path class="cls-1" d="M2138,77v99H0V0C1.13,.27,2.28,.5,3.39,.82c62.21,18.08,125.39,32.64,189.24,43.63,55.11,9.55,110.54,16.92,166.27,21.38,31.35,2.53,62.72,5.01,94.12,6.73,28.76,1.62,57.57,2.74,86.37,3,40.84,.41,81.66,.22,122.46-.58,44.79-.89,89.56-2.71,134.33-4.26,13.81-.48,27.61-1.27,41.4-2.11,25.25-1.53,50.5-3.18,75.75-4.8,16.27-1.05,32.56-2.03,48.82-3.24,29.05-2.15,58.12-4.48,87.12-6.68,23.73-1.79,47.47-3.44,71.2-5.27,28.21-2.17,56.4-4.58,84.61-6.69,25.39-1.89,50.81-3.56,76.21-5.26,33.88-2.27,67.75-4.67,101.65-6.67,26.42-1.57,52.86-2.91,79.31-3.91,35.95-1.27,71.88-2.56,107.88-3,61.14-.76,122.28-.78,183.37,2.68,22.77,1.25,45.57,2.11,68.28,4,34.99,2.92,70.01,5.73,104.83,10.11,39.51,5.01,78.84,10.93,118,17.75,31.31,5.45,62.27,12.84,93.39,19.37Z"/></svg>