<?xml version="1.0" encoding="UTF-8"?>
<svg data-bbox="-0.015 0.02 154.845 103.977" viewBox="0 0 154.82 103.97" xmlns="http://www.w3.org/2000/svg" data-type="color">
    <g>
        <g>
            <path d="M0 62.1c0 .38.1.76.12 1.14.05 1.06.05 1 1.08 1.34a32.8 32.8 0 0 0 4.59 1c.73.11.89.94 1.09 1.52A5.23 5.23 0 0 0 8 68.79c1.38 1.68 2.78 3.33 4.21 5 .47.54 1.08.95 1.58 1.47a69.84 69.84 0 0 0 9.69 8 127.36 127.36 0 0 0 11.26 7 72.5 72.5 0 0 0 9.49 4.54c3.27 1.3 6.6 2.41 10 3.42a105.33 105.33 0 0 0 17.61 4c2.8.34 5.6.68 8.39 1.08a64.9 64.9 0 0 0 7.79.68 13.73 13.73 0 0 0 3-.18c1.1-.1 2.22.13 3.33 0 1.6-.11 3.2-.18 4.78-.42a53.09 53.09 0 0 0 8.71-2.36 25.77 25.77 0 0 0 7-3.32 9 9 0 0 1 1.82-1c1.45-.58 2.77-1.43 4.17-2.12a19.94 19.94 0 0 0 3.5-2.57 27.07 27.07 0 0 0 4-4.08c1.41-1.75 3-3.36 4.29-5.2 1.66-2.34 3.12-4.79 4.55-7.27 1.71-3 3.44-6 4.94-9 1.64-3.39 3.28-6.79 4.73-10.28 1.22-3 2.47-5.91 3.6-8.91.61-1.6 1.2-3.21 1.92-4.77.21-.45.38-.89 1.06-.83.39 0 .69-.33.87-.67a4.73 4.73 0 0 0 .54-2.19.61.61 0 0 0-.42-.61 1.35 1.35 0 0 0-.67-.14 3.46 3.46 0 0 1-2.84-1.12c-1.54-1.3-3.2-2.48-4.86-3.63-2-1.4-3.79-3.09-5.7-4.62-1.63-1.3-3.26-2.63-4.86-4s-3.05-2.66-4.59-4c-1.25-1.07-2.49-2.15-3.78-3.17-1.11-.87-2-2-3.17-2.79a.6.6 0 0 1-.33-.57c.08-.68.16-1.36.25-2 0-.22.23-.3.41-.35 1.47-.48 2-1.79 2.06-3.22a3.39 3.39 0 0 0-.33-2c-.29-.52-.81-.8-.76-1.48A9.71 9.71 0 0 1 126.1.9c.16-.28.27-.56-.15-.75s-.9-.2-1.12.16a1.26 1.26 0 0 0-.16.42 22.45 22.45 0 0 0-.67 3.81c0 1.33 0 1.32-1.32 1.6a2.14 2.14 0 0 0-1.91 2.06c-.13 1.09-.11 2.16 1 2.85a.62.62 0 0 1 .33.66c-.09.75.16 1.66-.93 1.91a18.14 18.14 0 0 1-4.61 3.06c-2.12 1.21-4.41 2.07-6.53 3.28-2.88 1.65-5.93 3-8.89 4.44-1.77.88-3.58 1.68-5.4 2.45-.94.4-1.9.77-2.82 1.2-.65.3-1.19.81-1.86 1.06-.51.19-1.08.15-1.59.34-1.11.41-1.19 1.46-.88 2.49a1.56 1.56 0 0 1 0 1.2c-.66 1.54-1.51 3-2.18 4.53-1.22 2.47-2.41 4.9-3.61 7.33-1 2-2.15 4-3.35 6-1.08 1.76-2 3.61-3.15 5.31-1.3 1.88-2.58 3.78-3.89 5.65-.54.78-1.12 1.54-1.7 2.29-.45.57-.46.58-1.08.14-1.43-1-2.89-2-4.27-3.07-1.54-1.2-3.17-2.26-4.8-3.3-3.35-2.13-6.67-4.31-9.92-6.59-2.5-1.76-5-3.54-7.55-5.19a49.5 49.5 0 0 1-6-4.35 21 21 0 0 0-1.91-1.46 1 1 0 0 1-.44-.74c-.27-1.46-.19-3-.54-4.41-.08-.32.24-.46.4-.65a5.74 5.74 0 0 0 1.29-3.46 4.07 4.07 0 0 0-1.76-3.53 3.19 3.19 0 0 0-1.4-.44.92.92 0 0 1-.72-.59 24 24 0 0 1-1.78-7.65c-.08-.83-.19-1.66-.29-2.5-.07-.61-.27-.81-.75-.75-.65.07-1 .39-.77 1a9.81 9.81 0 0 1 .43 2.57 13.07 13.07 0 0 0 .4 2.91 23.75 23.75 0 0 0 1.14 4c.1.2.1.45.18.66.14.38 0 .57-.36.67a3.26 3.26 0 0 0-1.62.8c-1.52 1.46-1.27 3.45-.27 5.14a5.27 5.27 0 0 0 2.94 2.42 1 1 0 0 1 .72.8 10.91 10.91 0 0 1 .32 2.61 1.24 1.24 0 0 1-.68 1.1c-2 1.19-4.13 2.28-6.16 3.5s-4 2.37-5.89 3.73c-2.6 1.87-5.4 3.44-8 5.27-1.44 1-2.78 2.14-4.21 3.16C5.7 57.1 4 58.16 2.39 59.25a2 2 0 0 1-.53.21A2.44 2.44 0 0 0 0 62.1zm25.57-16.7c-1.46 1.43-2.91 2.87-4.31 4.37s-3 2.86-4.29 4.43c-1.9 2.28-4 4.37-6 6.53a1.4 1.4 0 0 1-1.51.49c-1.56-.38-3.13-.68-4.7-1-.28-.06-.73 0-.78-.35s.4-.49.67-.67c1.92-1.24 3.79-2.55 5.58-4a39.29 39.29 0 0 1 3.24-2.35c3.18-2 6.36-4.06 9.43-6.26.92-.66 1.95-1.12 2.84-1.81a.46.46 0 0 1-.17.62zm2.07-.29a3.06 3.06 0 0 1-.78 1.39A83.3 83.3 0 0 0 20 56.75a55 55 0 0 1-3.37 5c-.33.42-.64.79-1.32.6-.84-.24-1.72-.32-2.59-.48s-1-.21-.32-1a3.44 3.44 0 0 1 .3-.35c.83-.84 1.72-1.63 2.49-2.52 2.17-2.51 4.36-5 6.77-7.28 1.93-1.83 3.72-3.81 5.64-5.65zm4-1.81c-.78 1.66-1.62 3.29-2.34 5-1 2.28-1.92 4.58-2.76 6.91-1 2.76-2.12 5.47-3.18 8.21-.11.31-.25.45-.57.42l-4.72-1c-.51-.11-.35-.4-.17-.67a24.52 24.52 0 0 0 1.57-2.25c1.38-2.6 3.1-5 4.59-7.52a66.11 66.11 0 0 1 5.72-7.72c.45-.57.89-1.14 1.33-1.72.22-.29.41-.86.77-.67s-.13.71-.28 1.01zm.94.73c.18 0 .11.24.1.38-.11 3-.23 6-.34 9-.06 1.52 0 3.05-.16 4.57v.45c-.18 1.86-.23 3.73-.52 5.58-.09.56-.1 1.13-.14 1.7-.6.14-1.09-.28-1.65-.34h-.34c-1.54-.26-3-.74-4.56-1.08-.5-.11-.48-.32-.33-.72.33-.85.69-1.69 1-2.55 1.33-3.69 2.61-7.4 4.12-11 .78-1.9 1.61-3.79 2.53-5.63.03-.18.1-.39.25-.39zm1.18-10.47a1.88 1.88 0 0 1-2.93.42 5.08 5.08 0 0 1-1.9-3.26 1.7 1.7 0 0 1 .73-1.79 5.48 5.48 0 0 1 2.3-.71 2 2 0 0 1 1.31.52 3.52 3.52 0 0 1 .45 4.82zm1.41 16.66c1 4.42 2.16 8.8 2.79 13.3.15 1.09.36 2.18.52 3.27.08.52 0 .63-.53.55s-.75-.16-1.12-.24l-3.69-.83c-.38-.09-.45-.2-.42-.67.07-1.18.15-2.36.26-3.53.14-1.67.15-3.35.27-5 .23-3.12.13-6.25.41-9.1a14.3 14.3 0 0 1 0-1.64c.06-.42-.16-.87.15-1.25.17.42.35.83.51 1.25.05.14 0 .3.07.45.22 1.13.48 2.29.74 3.44zm2.39-.61c.51 1 1.11 1.91 1.54 2.93s.9 1.93 1.31 2.91c.71 1.69 1.6 3.28 2.37 4.94 1 2.07 1.74 4.22 2.82 6.24a23.2 23.2 0 0 1 1 2.45c-.08.32-.32.21-.52.16-1.82-.44-3.63-.9-5.46-1.3-.54-.12-.8-.35-.82-.89 0-.15-.08-.3-.1-.45-.57-4-1.42-8-2.33-12-.64-2.82-1.34-5.64-2-8.46-.06-.22-.32-.55 0-.68s.22.34.32.53c.55 1.2 1.19 2.41 1.83 3.62zm.41-2.52A31.91 31.91 0 0 0 41 50.76a61.73 61.73 0 0 1 4.88 5.6c1 1.26 2 2.53 3 3.77 1.75 2.16 3.7 4.15 5.34 6.4 1 1.32 1.94 2.64 2.87 4 .21.3.65.66.44 1s-.69 0-1 0c-1.57-.28-3.15-.57-4.72-.88-1.12-.22-2.24-.48-3.35-.73-.39-.08-.65-.23-.43-.69.14-.29-.1-.5-.21-.73-.77-1.62-1.56-3.23-2.3-4.85-1-2.22-1.92-4.5-3-6.66-1.48-2.88-2.64-5.92-4.36-8.68a7.87 7.87 0 0 0-.87-1.52l.1-.1c.23-.14.37.16.54.4zm9.2 6.9c1.85 1.82 3.72 3.61 5.58 5.41 1.67 1.62 3.32 3.26 5 4.83s3.64 3.45 5.37 5.28c.26.27.26.42-.1.56a13.9 13.9 0 0 1-3.41.87 1 1 0 0 1-1-.55c-1.58-2.24-3.19-4.47-5-6.57C52 61.9 50.33 60 48.74 58.07c-2.58-3.17-5.08-6.4-7.89-9.37a9.92 9.92 0 0 0-1.25-1.41 2.62 2.62 0 0 1 1 .61c2.19 2.02 4.4 4 6.53 6.1zm23 19.76c0 .15.24.4-.11.42a.7.7 0 0 1-.56-.17 21.24 21.24 0 0 0-2.84-2.77c-1-1.06-1-1 .25-1.83a.67.67 0 0 1 1 .09L71 72.38a.3.3 0 0 1 .1.36c-.11.11-.27.27-.44.42s-.52.26-.53.59zM88.49 77a.48.48 0 0 1-.49-.1 30.94 30.94 0 0 0-2.9-2.05c-.44-.27-.33-.41 0-.74a11 11 0 0 0 1.34-1.7c1.39-2.19 2.74-4.4 4.11-6.6s2.67-4.79 3.9-7.24c1.55-3.1 3-6.26 4.46-9.4 1-2.18 2.07-4.34 3-6.55s1.67-4.33 2.58-6.47c.63-1.5.39-1.27 1.79-1.11.53.06 1.07.05 1.6.13 1.54.23 1.52.24 1 1.74-1 3-2.1 5.88-3.32 8.77-1.06 2.49-2.08 5-3.29 7.42-1.53 3.06-3 6.14-4.55 9.2a92.3 92.3 0 0 1-5.47 9 39.58 39.58 0 0 1-3.18 4.45c-.29.32-.69.7-.58 1.25zm8.58 6.59c-.26-.27-.56-.16-.84 0s-.28.35-.41.54c-.34.5-.7 1-1.06 1.48-.12.17-.27.26-.48.13a1 1 0 0 1-.39-1.26 4.14 4.14 0 0 1 .41-.67 4.29 4.29 0 0 0 .75-3.26 1.35 1.35 0 0 1 .41-1.41 51.94 51.94 0 0 0 4.46-5.36 62.89 62.89 0 0 0 4.88-7.46 121.18 121.18 0 0 0 6.7-14c1.17-3 2.28-6.07 3.28-9.15.63-1.92 1.11-3.88 1.87-5.76.3-.76.3-.76 1.29-.72.69.1 1.63.27 2.57.39.55.07.58.33.44.79-.43 1.42-.79 2.87-1.25 4.28-.87 2.6-1.81 5.18-2.7 7.78s-2.22 4.83-3.21 7.3a25.77 25.77 0 0 1-1 2.42c-1.15 2.11-2.09 4.32-3.17 6.46-.85 1.66-1.82 3.25-2.7 4.89s-1.88 3.21-2.72 4.86a31.72 31.72 0 0 1-2 3.19 61.3 61.3 0 0 1-3.89 4.77 11.18 11.18 0 0 1-2.75 2.56c-.09.06-.22.15-.29 0s.05-.19.11-.27c.52-.61 1-1.21 1.57-1.81.15-.22.38-.41.12-.69zm4.17.94c-.29-.21-.55.15-.74.38a34.39 34.39 0 0 1-2.75 2.91c-.82.77-.82.77-1.6-.07l-.15-.14c-.21-.2-.18-.35.05-.55a52 52 0 0 0 4.51-4.87A37 37 0 0 0 105 76c1.93-3.42 4.08-6.72 5.75-10.29 1-2.24 2.18-4.45 3.23-6.69.63-1.34 1.15-2.74 1.79-4.08 1.26-2.62 2.16-5.38 3.17-8.1.72-1.92 1.37-3.87 1.91-5.86.28-1 .66-2 1-3 .11-.35.28-.64.73-.56s1 .19 1.47.26c1.09.16 2.19.29 3.29.45.8.11.84.17.69 1-.09.49-.16 1-.28 1.46a87 87 0 0 1-4 12.27c-1.36 3.28-2.85 6.49-4.42 9.67s-3.34 6.23-4.89 9.41a69.36 69.36 0 0 1-5.22 8.58c-1.53 2.23-3.16 4.4-4.62 6.68a15.21 15.21 0 0 1-3.52 3.68 2.68 2.68 0 0 1-.58.36c-.48.2-.7-.22-.93-.48s.09-.39.24-.55c.76-.75 1.54-1.48 2.27-2.26a13.38 13.38 0 0 0 1.29-1.61c.4-.58.46-1.17.2-1.21-.54-.08-.66.44-.9.74-1 1.29-2.11 2.51-3.21 3.72-.67.75-.76.44-1.3 0s-.6-.52 0-1a19.32 19.32 0 0 0 3-3.16c.14-.24.44-.62.08-.88zm6.76 1.95c-.22-.14-.34 0-.45.18-.49.82-1.18 1.49-1.74 2.27-1 1.39-2.5 2.21-3.75 3.31-.29.26-.58 0-.78-.22s.08-.38.22-.48a13.12 13.12 0 0 0 2.32-2.33c1.58-2.14 3.09-4.34 4.67-6.48a97.32 97.32 0 0 0 6.9-10.91c2.07-3.79 4-7.63 6-11.49 1.2-2.39 2.22-4.85 3.24-7.31a66.69 66.69 0 0 0 3.16-9.31c.4-1.59 1-3.13 1.28-4.75.05-.27.12-.54.48-.5 1.33.16 2.66.31 4 .48.27 0 .38.2.3.49-.19.74-.38 1.48-.54 2.23a85.09 85.09 0 0 1-4.94 15.92c-.3.71-.55 1.43-.89 2.11-1 1.91-2 3.79-2.9 5.7-1 2.08-2.32 4-3.28 6.11a28.32 28.32 0 0 1-1.81 3.16c-1.25 2-2.5 4.1-3.83 6.1-.88 1.33-1.93 2.55-2.86 3.86a3.54 3.54 0 0 0-.75 1.53l.13.07a.21.21 0 0 0 0-.06c1.08-1.18 2-2.5 3-3.77 1.66-2.19 3-4.56 4.52-6.85 1-1.5 1.79-3.1 2.71-4.64 2-3.31 3.74-6.74 5.44-10.2 1.07-2.2 1.9-4.49 2.81-6.76a99.88 99.88 0 0 0 3.19-10.85c.33-1.18.67-2.35 1-3.53.12-.5.36-.58.82-.5 1.62.27 3.24.53 4.86.75.51.07.62.26.57.73a50.28 50.28 0 0 1-1 5.17 55.22 55.22 0 0 1-2.55 8.3 155 155 0 0 1-7.7 17.09c-.62 1.18-1.09 2.44-1.78 3.58-1.51 2.52-3.07 5-4.61 7.5a53.28 53.28 0 0 1-8.25 9.82c-.93.91-1.91 1.75-2.87 2.62a2.53 2.53 0 0 1-2 .75c-.17 0-.41.08-.5-.13s.1-.36.26-.45a18.07 18.07 0 0 0 4.55-4.47 2.75 2.75 0 0 0 .62-1.21.41.41 0 0 0-.08-.31.28.28 0 0 0-.4 0 2.45 2.45 0 0 0-.29.35 31.26 31.26 0 0 1-5.21 5.39 2.34 2.34 0 0 1-2.42.28c-.22 0-.27-.25-.06-.42a2.33 2.33 0 0 1 .38-.26 18 18 0 0 0 3.69-3 4.75 4.75 0 0 0 .89-1.19c.14-.23.42-.63.19-.81s-.55.21-.77.42-.53.56-.78.85a35.82 35.82 0 0 1-4.21 3.86.42.42 0 0 1-.5.1c-.92-.46-1.85-.89-2.74-1.38-.41-.22-.38-.42 0-.64a15.47 15.47 0 0 0 4.72-4.43 3.55 3.55 0 0 0 .42-1.05.33.33 0 0 0-.1-.39zM93.78 82a2.31 2.31 0 0 0-.25.87c0 .42-.26.52-.58.32a.91.91 0 0 1-.55-.92 2.64 2.64 0 0 1 .24-1.11c.14-.45.41-.51.78-.23s.58.54.36 1.07zm-1.42-2.81a4.68 4.68 0 0 1-3.8-2.1.88.88 0 0 0 1-.45c.66-.94 1.34-1.86 2-2.8 1.3-1.83 2.48-3.76 3.75-5.62a88 88 0 0 0 4.78-8.6c1-1.85 1.77-3.8 2.73-5.66 1.66-3.19 2.93-6.54 4.3-9.85 1.08-2.61 2.05-5.26 3-7.94.14-.4.32-.63.82-.55 1.43.25 2.86.44 4.29.66.69.1.73.14.54.79q-.92 3.07-1.84 6.13c-.87 2.84-1.87 5.64-3 8.38-.65 1.59-1.28 3.18-2 4.75-.49 1.12-1 2.2-1.58 3.3-1.1 2.25-2.16 4.51-3.3 6.74a45.68 45.68 0 0 1-2.64 4.26c-1.05 1.55-2.27 3-3.31 4.52-.92 1.35-2.1 2.48-3.14 3.73-.43.52-.91.81-1.58.41a2 2 0 0 0-1.02-.14zM99 34.67c.22-.44.45-.69.84-.57 1.29.18 2.46.36 3.63.5.51 0 .55.25.38.66-.46 1.17-1 2.32-1.34 3.52a85.86 85.86 0 0 1-4.31 9.95c-.69 1.49-1.43 3-2.13 4.43-.89 1.86-1.62 3.8-2.66 5.57-1.76 3-3.12 6.26-5.12 9.16a49.18 49.18 0 0 0-2.41 3.87 12.21 12.21 0 0 1-1.56 2 .64.64 0 0 1-1 .16q-1.74-1.2-3.51-2.37c-.36-.24-.32-.46-.08-.74.56-.63 1.13-1.24 1.65-1.9a61.14 61.14 0 0 0 7-11.14c2.55-5.25 5.13-10.48 7.49-15.82C97 39.51 97.88 37 99 34.67zm-.94-.16c-.36.89-.76 1.75-1.12 2.63q-2.43 5.93-5.23 11.69c-1 2.1-2 4.2-3 6.28s-1.84 3.94-2.92 5.82c-.93 1.61-1.88 3.22-2.92 4.75C82 67 81 68.17 80 69.4a2.78 2.78 0 0 1-1.6 1c-.44.1-.84-.46-1.25-.73s-.55-.4-.83-.61a.33.33 0 0 1-.11-.49l.39-.56c1.91-2.62 3.69-5.34 5.41-8.08a68.14 68.14 0 0 0 4.63-9.19c.68-1.58 1.33-3.17 2.08-4.71 1.34-2.79 2.59-5.61 3.84-8.43.57-1.29 1.1-2.6 1.64-3.9.13-.31.27-.56.8-.44.8.13 1.74.28 2.68.45.56.11.64.23.41.8zM87.53 78.3c0 .13-.17.07-.27.06l-.45-.09c-1.48-.32-3-.65-4.42-1.11s-3.15-.86-4.74-1.26a3 3 0 0 1-1.45-.85c-.25-.24-.22-.41 0-.65.58-.6 1.13-1.23 1.7-1.84a1.17 1.17 0 0 1 .58-.4 1.39 1.39 0 0 1 .38.17c1.33.88 2.62 1.83 4 2.62.28.16.22.36 0 .56s-.44.53-.67.78-.28.31-.13.48.42 0 .57-.1a10.1 10.1 0 0 0 .68-.77.56.56 0 0 1 .81-.14 20.62 20.62 0 0 1 3.21 2.37c.13.05.21.14.2.17zm-12-4.37c-.25.26-.48.13-.7-.05l-1.72-1.32c-.11-.09-.26-.17-.21-.36a.24.24 0 0 1 0-.1 17 17 0 0 1 2.15-2.18 6.24 6.24 0 0 1 2 1.22c.09.06.18.15.27.21.31.19.28.41.06.64zm-1.76.86c-.09.14-.19.08-.29.07-.6-.11-1.19-.22-1.79-.31-.36-.06-.91-.06-1-.36s.48-.5.76-.75.49-.19.78 0a15.24 15.24 0 0 1 1.31 1.07 2.26 2.26 0 0 1 .24.28zm-7-1.28L61 72.31a1.73 1.73 0 0 1-.3-.16A1.21 1.21 0 0 1 61 72l3.14-1a.55.55 0 0 1 .62.13l2.11 2.08a.88.88 0 0 1 .12.17c.01.16-.09.15-.19.13zM52.29 56.06c2.21 1.69 4.3 3.53 6.38 5.37S62.91 65 65 66.81c.38.32.73.67 1.08 1a.34.34 0 0 1 0 .51 2.73 2.73 0 0 1-1.36.8c-.33.06-.63-.35-.9-.62Q62 66.55 60 64.68q-4.46-4.19-8.84-8.47a22 22 0 0 1-2.83-3c-.29 0-.42-.38-.74-.36.37-.2.6 0 .78.29a33.8 33.8 0 0 1 3.92 2.92zm16.95 9.68c-.08.45-.75.8-1.18 1.17s-.49.58-1.12 0-1.51-1.27-2.27-1.91q-4.8-4.08-9.55-8.21c-1.31-1.15-2.73-2.16-4-3.29.59-.11.92.38 1.32.64 2.31 1.48 4.56 3.06 6.89 4.52 3 1.91 5.91 4.05 8.8 6.17.36.3 1.21.39 1.11.91zm1.86 1.17a23.22 23.22 0 0 0 2.25 1.57 7.77 7.77 0 0 1 .74.54.37.37 0 0 1 .07.59 14 14 0 0 1-1.7 1.83.49.49 0 0 1-.71 0l-3-2.81c-.12-.11-.23-.28-.11-.39.58-.54 1.19-1.06 1.79-1.59a1.16 1.16 0 0 1 .15-.07c.14.09.34.19.52.33zm18.72-33.59c.21-.45.44-.71.89-.58.82.09 1.58.18 2.34.25.35 0 .47.15.32.51-.44 1.06-.83 2.13-1.29 3.17-1 2.31-2 4.61-3.11 6.88-.73 1.56-1.33 3.17-2.07 4.71-1.27 2.65-2.33 5.39-3.77 8a24.24 24.24 0 0 1-2 3.83c-.88 1.06-1.49 2.3-2.27 3.44l-2.95 4.34c-.28.4-.55.55-1 .2-.95-.71-1.94-1.35-2.9-2-.58-.42-.6-.48-.13-1 1.38-1.69 2.51-3.56 3.83-5.28A33.92 33.92 0 0 0 78 56.24c1-1.61 1.86-3.25 2.84-4.83a68.1 68.1 0 0 0 3.46-6.18c1.86-3.94 3.7-7.93 5.52-11.91zm26.22-15a84.38 84.38 0 0 0-6.85 5.34c-1.86 1.51-4 2.71-5.72 4.37-.92.87-2.44 2.31-3.72 2.52A11.74 11.74 0 0 1 97 30.2l-3-.39c-.36 0-1 .1-1-.25s.56-.53.9-.7c3.25-1.59 6.65-2.86 9.88-4.5 1.7-.86 3.43-1.67 5.12-2.55 1.9-1 3.78-2 5.67-3a4.39 4.39 0 0 1 1.43-.5zm3 .2c-1 1.49-2.13 3-3.24 4.41-2.15 2.78-3.85 5.84-5.91 8.67a.37.37 0 0 1-.44.17l-6.46-.9c-.17 0-.43 0-.46-.24s.19-.31.32-.43c1.47-1.22 2.83-2.55 4.39-3.66.83-.59 1.67-1.19 2.47-1.83 1.67-1.34 3.3-2.71 5-4a16 16 0 0 1 2.77-1.82 4 4 0 0 0 1.9-1.34c.16.45-.16.68-.38.96zm1.51.55c-.8 2.78-1.64 5.55-2.42 8.34a25 25 0 0 1-1.35 3.87c-.38.82 0 1.45-1.16 1.51a25.27 25.27 0 0 1-3.92-.66c-.52-.06-.54-.17-.23-.68 1-1.59 1.91-3.21 3-4.75 1.83-2.67 3.73-5.29 5.63-7.91.18-.25.31-.61.68-.7a2.17 2.17 0 0 1-.25.97zm1.19.27c-.07 1.4-.19 2.81-.19 4.22 0 2.69-.29 5.37-.42 8.06a12 12 0 0 1-.25 1.46c-.06.4-.26.48-.64.41-1.1-.2-2.74.06-2.44-1.32.21-1 .78-1.92 1-2.85.57-2.3 1.21-4.57 2-6.81a19.54 19.54 0 0 1 .92-3.18zm.35-10.69c0-1.69 2.06-2.09 3-.82.55.72-.18 1.61-.45 2.31a.7.7 0 0 1-.71.46 1.77 1.77 0 0 1-1.86-1.96zm2 13c.55 1.57.9 3.2 1.55 4.76a27.28 27.28 0 0 1 1.82 7.53c0 .37-.06.5-.42.44-1.35-.19-2.71-.36-4.07-.58-.67-.11-.75-.24-.69-.91.24-2.9.3-5.79.38-8.69a36.62 36.62 0 0 1 .24-4.91c0-.13-.07-.35.15-.35s.23.18.28.32c.24.74.47 1.58.75 2.37zm.77-1.79c.4.8.77 1.63 1.22 2.4 1 1.71 2.12 3.35 3.09 5.08 1.16 2.07 2.4 4.08 3.63 6.1.34.55.65 1.12 1 1.68.1.16.25.32.1.5s-.27.06-.43 0c-1.24-.18-2.46-.49-3.69-.71a1.1 1.1 0 0 1-1.06-1.08c0-.23-.07-.46-.11-.68a33.39 33.39 0 0 0-1.69-6.29c-.79-2-1.4-4-2-6.07-.16-.31-.29-.63-.07-.95zm8.29 12c-1.63-2.68-3.26-5.34-4.86-8a8.26 8.26 0 0 1-1-2 62.65 62.65 0 0 1 4.65 4.85c1 1.05 2 2.17 3.08 3.23 1.22 1.25 2.37 2.57 3.56 3.86.73.78 1.47 1.54 2.2 2.32.1.11.22.26.11.4s-.22 0-.33 0c-1.48-.13-3-.33-4.42-.59a1.09 1.09 0 0 1-.8-.55c-.74-1.24-1.48-2.38-2.2-3.56zm16.17 5.69c0 .07-.27.07-.41 0a25.83 25.83 0 0 0-4.63-.66 2.51 2.51 0 0 1-2.19-1.21 6.27 6.27 0 0 0-.94-1c-.69-.67-1.36-1.34-2-2.06-.88-1-1.74-2-2.71-2.94-3.32-3.15-6.24-6.68-9.52-9.87a4.28 4.28 0 0 1-1.3-1.7 1.6 1.6 0 0 1-.25-.18c-.08-.07-.16-.17-.08-.27s.18 0 .25.1a1.78 1.78 0 0 1 .17.27l.4.22c1.85 1.09 3.23 2.76 4.92 4s3.1 2.8 4.77 4.07c1.51 1.15 2.89 2.47 4.35 3.69 1.64 1.36 3.2 2.81 4.94 4.06 1.36 1 2.67 2 4 3 .12.18.31.28.22.44zm2.68 2.87c-2.34-.34-4.68-.65-7-1-3.43-.55-6.83-1.22-10.3-1.52-1.21-.1-2.44-.16-3.64-.35-4.64-.69-9.28-1.44-13.91-2.16-1.77-.27-3.55-.49-5.32-.79-2.26-.4-4.55-.53-6.81-.89-2.52-.39-5-.78-7.56-1.22-2.19-.38-4.38-.66-6.58-.93a6.9 6.9 0 0 1-1-.23.38.38 0 0 1-.21-.38c0-.18.15-.24.3-.29a3.42 3.42 0 0 1 1.59 0c3.44.4 6.88.83 10.32 1.22 4.51.52 9 1.39 13.46 2 2.46.34 4.91.71 7.37 1 1.55.2 3.1.39 4.63.7a49.6 49.6 0 0 0 7.66 1.29 12.36 12.36 0 0 1 1.71.16c1.2.21 2.42.33 3.63.47 2.58.29 5.17.45 7.71 1a31.13 31.13 0 0 0 4.06.63c.34 0 .69 0 1 .06s.38.21.33.48c-.1.45-.33.77-.85.74h-.57zm-36.41 54.41c0-.06.1-.2.18-.26a42.67 42.67 0 0 0 3.64-2.92 22.86 22.86 0 0 0 1.86-1.65c1.79-1.83 3.37-3.83 5-5.78a50.11 50.11 0 0 0 4.27-5.65c2-3.2 3.71-6.57 5.47-9.9.46-.88.72-1.83 1.19-2.71a36.4 36.4 0 0 0 2.17-4.66c1-2.77 2.29-5.4 3.35-8.14.67-1.74 1.45-3.43 2.1-5.17a44.78 44.78 0 0 0 2-6.31c.17-.82.21-.83 1.1-.69s1.55.38 2.35.46c1 .1 1 .12.61 1-.5 1.08-1 2.15-1.44 3.24-.74 2-1.39 4-2.22 5.87-1.26 2.94-2.34 6-3.75 8.83-.94 1.92-1.75 3.9-2.72 5.8-1.69 3.32-3.58 6.54-5.41 9.8a57.12 57.12 0 0 1-6.87 9.82 47.52 47.52 0 0 1-6.47 6.47 6.12 6.12 0 0 1-1.85 1.11c0 .16-.17.22-.28.3s-.21.1-.26 0 .05-.13.1-.18a.43.43 0 0 1 .38-.15c.69-.7 1.38-1.4 2.08-2.09a3.33 3.33 0 0 0 .68-.91.51.51 0 0 0 0-.64c-.24-.19-.43 0-.58.18-.35.4-.7.81-1 1.23-1.29 1.64-3.25 2.44-4.81 3.75a.93.93 0 0 1-.45.08c-.18-.03-.36.04-.42-.13zm-.88-.14a2.07 2.07 0 0 1-1.68.5c.07 0 0-.05 0 0-.06-.22.06-.36.24-.5a5.57 5.57 0 0 0 .9-.7c1.3-1.38 2.72-2.64 4-4 1.55-1.73 3-3.53 4.41-5.36a31.63 31.63 0 0 0 2-3.16c1.15-1.93 2.35-3.84 3.51-5.76 1.6-2.65 3-5.37 4.41-8.13.9-1.8 1.67-3.68 2.49-5.52a102.19 102.19 0 0 0 4.49-11.5 74.79 74.79 0 0 0 2.34-9.78c.08-.5.28-.63.74-.55.83.15 1.66.3 2.49.41 1.08.14 1.08.13.91 1.16a2.24 2.24 0 0 1-.09.45 75 75 0 0 1-2.72 7.89c-1.35 3-2.35 6.19-3.73 9.21-.53 1.17-1 2.39-1.52 3.57s-1.09 2.18-1.54 3.31c-.87 2.19-2.11 4.2-3 6.36a48.69 48.69 0 0 1-2.72 4.74 41.27 41.27 0 0 1-3.11 4.53c-1.51 2-3.11 3.85-4.73 5.73a31 31 0 0 1-3.58 3.67 157.02 157.02 0 0 1-4.51 3.43zm-8.16 5a23 23 0 0 1-4.21-2c-1.43-1.08-2.81-2.24-4.31-3.22A38.37 38.37 0 0 1 91 88.36a14.25 14.25 0 0 1-3-4.52c-.15-.38-.07-.5.31-.45a16.58 16.58 0 0 1 3.08.86.87.87 0 0 1 .55.54 4.34 4.34 0 0 0 1.25 1.62c1.52 1.39 2.87 2.94 4.49 4.23a26.67 26.67 0 0 0 2.57 2.09c1.69 1 3.47 1.91 5.22 2.83a5.24 5.24 0 0 0 2.18.65c1.93.09 3.86.52 5.82.16.35-.06 1-.18 1.06 0 .06.45-.58.47-.9.71-.14.12-.34.18-.49.29a2.6 2.6 0 0 1-2.06.39 7.76 7.76 0 0 0-2.8-.29l1.88.91c.1 0 .24 0 .29.13a1.84 1.84 0 0 1-.33 0 10.65 10.65 0 0 1-2.52-.51 50.86 50.86 0 0 1-5-2.54c-.27-.15-.61-.43-.79-.14s.27.51.51.65c1.81 1.05 3.55 2.23 5.46 3.11.22.1.64.08.59.4s-.42.25-.69.26a2.31 2.31 0 0 1-1.13 0zm-10.75 1.12c-1.46-1.22-3.17-2.1-4.54-3.44s-2.9-2.72-4.18-4.23c-1.49-1.75-2.7-3.7-4.06-5.54a16.58 16.58 0 0 1-2.59-4.81c-.1-.28-.39-.59-.17-.85s.65-.08 1 0a19.64 19.64 0 0 0 3.23.76 3 3 0 0 1 3 2.27A11 11 0 0 0 90 88.44a34.88 34.88 0 0 0 5.2 5c1.67 1.21 3.33 2.42 5 3.66a19.71 19.71 0 0 0 4.62 2.92c.27.1.72.14.71.43s-.48.28-.75.4a2.68 2.68 0 0 1-2.4-.08c-.64-.32-1.29-.65-1.9-1a20.77 20.77 0 0 1-5.26-4c-.08-.09-.14-.2-.24-.25a.38.38 0 0 0-.31 0c-.19.09-.12.25 0 .37a13.06 13.06 0 0 0 1.52 1.7 57.78 57.78 0 0 0 4.69 3.41c.27.17.78.29.64.64s-.66.32-1 .29a2.21 2.21 0 0 1-.64-.22 13.73 13.73 0 0 1-2.64-1.57 32.57 32.57 0 0 1-4.46-3.75c-.29-.29-.51-.82-1.1-.61a2 2 0 0 0 .72 1.09A31 31 0 0 0 95 99.3a10.7 10.7 0 0 0 2.51 1.93c-.71.34-1.25-.05-1.71-.42zm-10.28-1.88a38.87 38.87 0 0 1-4.18-3.71c-1.5-1.58-3-3.1-4.57-4.64q-3.21-3.27-6.1-6.83a18.77 18.77 0 0 1-2.35-4c-.09-.22-.22-.45.18-.5l.55.11 9.5 2.06c.36.07.47.26.59.58a21.52 21.52 0 0 0 2.23 4.76c.54.78 1.08 1.56 1.6 2.35a43.82 43.82 0 0 0 7.51 8.73 21.2 21.2 0 0 0 4.17 3.16 13.78 13.78 0 0 1 1.66 1.21.26.26 0 0 1 .09.19c0 .08-.05.12-.15.12-.78 0-1.6.33-2.35-.13s-1.32-.78-1.93-1.24a46 46 0 0 1-5.33-4.64c-.22-.23-.59-.58-.72-.45-.32.33.23.43.34.66a2.15 2.15 0 0 0 .44.64 40.74 40.74 0 0 0 5 4.8c.14.11.39.2.26.43s-.33.15-.51.13a1.3 1.3 0 0 1-.43-.15 48.65 48.65 0 0 1-5.5-3.64zm-5.6 1.67c-.93-.71-1.88-1.41-2.78-2.17a74.81 74.81 0 0 1-8-7.48c-1.83-2-3.71-4-5.47-6.15a49.23 49.23 0 0 1-4.72-6.32 6.92 6.92 0 0 1-.42-.81c-.17-.38 0-.49.37-.44h.34l7 1.37a1.4 1.4 0 0 1 1 .82 32.27 32.27 0 0 0 2.15 3.91c1.34 1.75 2.78 3.42 4.27 5 2.49 2.68 5.09 5.26 7.64 7.88.45.47.89.94 1.38 1.37A55.79 55.79 0 0 0 88.2 102c.28.19.9.31.68.71-.13.25-.77.14-1.18 0a1.74 1.74 0 0 1-.39-.23c-1.92-1.51-4-2.78-5.84-4.4a12.21 12.21 0 0 1-1.86-1.5.19.19 0 0 0-.19 0 .2.2 0 0 0-.07.3 1.29 1.29 0 0 0 .23.24c1.69 1.59 3.42 3.15 5.22 4.62.23.19.5.35.74.53.08.07.2.19.18.26s-.24.12-.38.13a2.08 2.08 0 0 1-1.16-.44c-.28-.19-.54-.43-.83-.61a26.6 26.6 0 0 1-5.87-5.18c-.41-.45-.84-.87-1.27-1.29-.06-.06-.23 0-.33 0s0 .19 0 .26a6.65 6.65 0 0 0 .48.77 45.5 45.5 0 0 0 4.46 4.75.62.62 0 0 0 .36.18c-.49.12-.88-.21-1.26-.5zm-8.54-.9c-2.08-1.35-4.06-2.84-6-4.35a44.53 44.53 0 0 1-5.67-5.14c-2-2.14-3.67-4.49-5.49-6.74a41.42 41.42 0 0 1-4.25-5.94 11.53 11.53 0 0 1-.8-2c-.13-.43 0-.46.38-.37q1.89.46 3.78.9c1.12.25 2.23.52 3.36.73a1.22 1.22 0 0 1 1 .91 13.84 13.84 0 0 0 2.34 4c1 1.33 2.14 2.57 3.22 3.85a98.07 98.07 0 0 0 11 11.59c1.65 1.42 3.28 2.85 5 4.15.2.15.62.21.5.5s-.49 0-.75 0a2.09 2.09 0 0 1-1.19-.62c-.32-.28-.66-.51-1-.76a48.56 48.56 0 0 1-4.37-3.3 10.44 10.44 0 0 0-1.49-1 .28.28 0 0 0-.22 0c-.14.08-.07.19 0 .27a3.26 3.26 0 0 0 .33.31l4.67 4c.2.18.67.3.46.63s-.58.07-.86 0a2.84 2.84 0 0 1-.68-.42 66.94 66.94 0 0 1-5.22-4.42c-.7-.66-1.37-1.33-2-2-.14-.16-.28-.36-.54-.37a.35.35 0 0 0-.18.56 8.29 8.29 0 0 0 1.2 1.33c1.26 1.1 2.33 2.4 3.68 3.4a.35.35 0 0 1 .12.3c-.1.3-.23.07-.33 0zM63 99a74.32 74.32 0 0 1-8.42-7.23 76.29 76.29 0 0 1-6.08-7.13A63.77 63.77 0 0 1 42.06 75a13 13 0 0 1-.55-1.26c-.11-.3 0-.42.34-.36s.61.08.9.15c1.37.33 2.73.73 4.11 1a1.48 1.48 0 0 1 1.29 1.09 10.22 10.22 0 0 0 .85 2.19 49.84 49.84 0 0 0 3.87 5.38c1 1.22 2.06 2.43 3 3.73a38.33 38.33 0 0 0 3.64 4.37 64.17 64.17 0 0 0 5.35 4.81c1.82 1.52 3.76 2.87 5.71 4.21.11.08.28.12.28.31s-.09.13-.27.12a11.12 11.12 0 0 1-7.11-3.22 31.43 31.43 0 0 1-3.52-3.59 7.94 7.94 0 0 0-1.16-1.08.25.25 0 0 0-.4 0c-.08.11 0 .2 0 .3s.21.31.33.46a49.65 49.65 0 0 0 3.41 3.69c.55.53 1.07 1.09 1.59 1.65.06.07.16.19 0 .27a.26.26 0 0 1-.21 0A2.59 2.59 0 0 1 63 99zm-9.59-2.59a31.71 31.71 0 0 1-4.75-4.12c-2.3-2.49-4.55-5-6.6-7.75-1.72-2.29-3.44-4.58-5.19-6.84a37.57 37.57 0 0 1-4.09-5.92c-.07-.13-.22-.25-.13-.4s.26-.13.41-.09l6.59 1.5a.94.94 0 0 1 .76.61 15.26 15.26 0 0 0 1.84 3.65c1.17 1.79 2.25 3.64 3.52 5.35s2.72 3.46 4.07 5.19a66 66 0 0 0 6.55 7.12 40.83 40.83 0 0 0 4.14 3.53 2.13 2.13 0 0 1-2.11-.42 33.42 33.42 0 0 1-5.53-4.76c-.5-.51-1-1-1.52-1.53a.37.37 0 0 0-.31 0c-.15 0-.12.19-.05.28a8.12 8.12 0 0 0 .74 1.13c1 .92 1.87 1.89 2.81 2.84.44.44 1 .74 1.21 1.38a6.64 6.64 0 0 1-2-.45 1.29 1.29 0 0 1-.32-.27zM39.4 89.27c-2-2.18-3.9-4.49-5.79-6.79s-3.43-4.38-5.07-6.63A48.43 48.43 0 0 1 25 70.08c-.09-.16-.24-.35-.11-.51s.36-.08.54 0l5.45 1.28c.23 0 .45.09.55.34a16.23 16.23 0 0 0 1 1.67A28.8 28.8 0 0 0 36.14 78a15.53 15.53 0 0 1 1.14 1.43c1.09 1.7 2.36 3.27 3.56 4.89 1.59 2.13 3.33 4.15 5.08 6.15A25.85 25.85 0 0 0 49.21 94a15.29 15.29 0 0 0 1.24 1.17c.11.07.23.24.07.38a.31.31 0 0 1-.31 0c-.34-.24-.64-.53-1-.76a26 26 0 0 1-4.4-3.92 24.38 24.38 0 0 1-2.08-2.11c-.14-.2-.45-.28-.68-.4s-.22-.09-.3 0 .05.13.1.18c.88.88 1.54 2 2.47 2.81s1.83 1.82 2.74 2.75c.08.07.17.17.1.28s-.2 0-.31 0a5.88 5.88 0 0 1-2.13-1.5 33.88 33.88 0 0 1-4.55-4.8 4.45 4.45 0 0 0-.49-.48c-.12-.1-.26-.21-.4-.12s0 .28.05.38c.73.93 1.34 1.94 2.15 2.8a13.24 13.24 0 0 1 1.08 1.17c.21.28.6.53.36 1-1.17-1.21-2.39-2.34-3.52-3.56zM27 83.59A91.55 91.55 0 0 1 21 76c-1.58-2.06-2.95-4.27-4.39-6.41a12.87 12.87 0 0 1-.79-1.4c-.18-.36-.07-.52.46-.49l6.88 1.41a.92.92 0 0 1 .67.56 44.37 44.37 0 0 0 4 6.53c1.34 1.79 2.65 3.61 4 5.37 1.64 2.1 3.34 4.15 5 6.22.42.53.82 1.08 1.23 1.62-.76-.22-1.16-.88-1.69-1.38 0 0 0-.06-.07-.09l-3-3.12a5.39 5.39 0 0 0-.71-.55s-.16 0-.19.06-.06.16 0 .2A12.48 12.48 0 0 0 33.54 86a22.33 22.33 0 0 0 2.72 2.78 1.56 1.56 0 0 1 .48.7c-.31.3-.53-.09-.76-.22a13.06 13.06 0 0 1-2.33-1.42 29.09 29.09 0 0 1-2.32-2.51c-.79-.88-1.56-1.77-2.35-2.65-.1-.11-.27-.2-.39 0s0 .22.07.29c.86.92 1.39 2.09 2.29 3 .08.08.17.19.09.29s-.21 0-.29 0A22.52 22.52 0 0 1 27 83.59zM8.38 66.25c.13-.14.29-.06.43 0l4.94 1a1.22 1.22 0 0 1 .87.67c1 1.64 2 3.26 3.08 4.81 1.55 2.16 2.94 4.42 4.66 6.47a6.65 6.65 0 0 1 1.36 2.28 1 1 0 0 1-.39-.12 48 48 0 0 1-5.47-4.15 80.69 80.69 0 0 1-6.79-6.8 22 22 0 0 1-2.65-3.57c-.09-.23-.21-.41-.04-.59zm-7.15-4.57c.17-.64.5-.77 1.48-.6l1.11.24c1.27.28 2.52.59 3.8.83 2.47.46 5 .89 7.42 1.33 2.89.51 5.76 1.15 8.63 1.73 2.06.42 4.11.87 6.12 1.46 3.05.89 6.17 1.42 9.25 2.1 2.27.5 4.55 1 6.79 1.59 1.81.5 3.61 1 5.45 1.35 3.86.72 7.74 1.37 11.6 2.1 2.1.4 4.17.92 6.26 1.37s4.28.78 6.38 1.35c1.62.43 3.22 1 4.85 1.34 3.15.74 6.25 1.67 9.49 2.1 2.4.31 1.8.08 1.35 2.22-.1.5-.35.58-.82.44a26.61 26.61 0 0 0-4.26-.88c-.75-.11-1.51-.22-2.25-.4-3.38-.82-6.79-1.49-10.18-2.22-4.14-.9-8.26-1.86-12.44-2.6-3.83-.68-7.61-1.61-11.41-2.48-2.85-.65-5.62-1.37-8.43-2.05-.06 0-.11-.09-.16-.13a.42.42 0 0 1 .17-.1.93.93 0 0 1 .22 0c2.6.37 5.17 1 7.79 1.25a5.92 5.92 0 0 1 1.69.16 16.26 16.26 0 0 0 3 .82c3.16.74 6.29 1.52 9.45 2.25a20.89 20.89 0 0 0 3.1.75 16.93 16.93 0 0 1 4.55 1.06c.25.09.52.12.77.22a17.47 17.47 0 0 0 3.94.6c2.1.35 4.14 1 6.25 1.24a35.31 35.31 0 0 1 5.32 1.19c.18 0 .34.18.54.14s.5 0 .6-.27-.2-.46-.4-.6a1.75 1.75 0 0 0-.64-.23c-1.26-.3-2.49-.69-3.76-.94-.61-.12-1.2 0-1.81-.17a46.85 46.85 0 0 0-5.51-1 24.56 24.56 0 0 1-3.84-.6c-2.05-.56-4.09-1.15-6.19-1.57-3.06-.61-6.06-1.53-9.14-2.07-2.18-.39-4.23-1.25-6.42-1.61-.67-.11-1.36-.14-2-.25-3.9-.67-7.81-1.32-11.71-2-1.79-.32-3.55-.78-5.33-1.17-.27-.06-.69-.32-.78 0s.43.32.69.46c.44.25 1.06.15 1.37.67l-2.76-.68c-2.23-.52-4.44-1.1-6.68-1.55-3.59-.73-7.18-1.4-10.79-2-2.7-.48-5.38-1.1-8.07-1.65-.97-.22-1.88-.47-2.74-.72a1.47 1.47 0 0 1-.91-1.82z" fill="#25707f" data-color="1"/>
            <path d="M107.17 92c-.53.47-1.11.91-1.67 1.35a.35.35 0 0 1-.51 0s0-.13-.08-.19.09-.16.09-.16a14.73 14.73 0 0 0 2.55-2 .32.32 0 0 1 .29-.06c.11.05.1.21 0 .3a6.64 6.64 0 0 1-.67.76z" fill="#25707f" data-color="1"/>
            <path d="M4 62.11a3.91 3.91 0 0 1 .43 0 32.38 32.38 0 0 1 4.37 1c2.32.61 4.63 1.17 7 1.67 3.27.69 6.56 1.31 9.78 2.25a3.42 3.42 0 0 1 1 .34c.24.15.68.3.61.58s-.5.16-.77.14a3.51 3.51 0 0 1-.82-.09c-.81-.21-1.6-.5-2.42-.64-2.06-.35-4-1.12-6.08-1.47-1.41-.23-2.83-.62-4.24-.88a81 81 0 0 1-8.26-2.24 4.32 4.32 0 0 1-.6-.29.24.24 0 0 1-.13-.28c-.01-.05.13-.08.13-.09z" fill="#25707f" data-color="1"/>
        </g>
    </g>
</svg>
