<?xml version="1.0" encoding="UTF-8"?>
<svg data-bbox="-0.021 -0.002 91.707 101.949" viewBox="0 0 91.69 101.96" xmlns="http://www.w3.org/2000/svg" data-type="color">
    <g>
        <path d="M11.43 1.73c-.07-.61.34-1.79 1.37-1.28.62.53-.13 2.42 1.09 2.36 0-.77-.1-1.61.39-1.87 1.57-.3 1.32 1.62 1.08 2.56a13 13 0 0 0 1.38.88c.4-.35 0-1.52.39-1.87 1.79-.62 1.56 1.66 1.08 2.66.32.5.95.69 1.47 1 .19-.92.22-2.44 1.58-1.87.5.71 0 1.83-.1 2.75a10 10 0 0 0 1.67 1.08c.09-1.24.61-3.21 2-2.26C25 7 24.26 7.85 24.21 9c.12.3.56.29.68.59.06-1.07 2.28-3.28 2.75-1.77.36 1.18-1.4 1.42-1.37 2.56.27.45.84.59 1.18 1 .56-.86.82-2.5 2.36-2.06.75 1.11-.79 1.78-1 2.84A8.76 8.76 0 0 0 31 13.82c0-1-1.46-2.61.1-2.76 1.78-.16 1 2.27 1.47 3.74.21.68 1 .73 1.28 1.08.4-.61.07-2 .68-2.36a2.52 2.52 0 0 1 1 .1c.47 1 0 2.35-.3 3.14a14 14 0 0 0 2.16 1.57c.25-.84 0-2.13.5-2.75C40 15 39 18 38.75 19.22a4.07 4.07 0 0 0 1.18.79c.8-.61.24-2.85 1.67-2.56s.17 2.58-.3 3.34c.29.5.92.66 1.38 1 .29-.82 0-2.23.59-2.75a1.61 1.61 0 0 1 1 .1c.62.93 0 2.44-.19 3.44a9.15 9.15 0 0 0 1.77 1c.76-.79.31-3.27 2.16-2.65.52 1.19-.4 2.44-.79 3.34.31.45 1 .53 1.38.89-.13-.92 2-3.85 2.55-2.07.34 1.05-1.18 1.44-1 2.66.13.45.68.49 1.08.69.77-.94 1.32-3 3.05-2.36.41 1.58-1.36 1.77-1.57 3 .06.3.44.28.58.49.73-.81.65-2.43 2.36-2.26 1 1.05-.7 1.88-.88 3 .64.45 1.41.75 2.06 1.18.81-.66 0-1.85.59-2.56 2-.58 1.55 2.34.89 3.25a11.58 11.58 0 0 0 2 1.18c1.08-.64-.12-3.44 2-2.75.79 1.06-.09 2.52-.49 3.53.53.42 1.22.68 1.77 1.09.76-.67.22-3.37 1.76-2.86 1.16.39 0 2.69-.29 3.55.27.44.86.57 1.28.88 1-.71 1-3.54 2.65-2.56.3 1.47-.77 2.36-1.28 3.34.33.34.84.48 1.18.79.54-1 1-3 2.26-2.75 1.77.37-1 2.51-.78 3.54a16.76 16.76 0 0 0 1.86 1.18c.39-1 .65-2.7 1.77-2.46 1.47.31-.34 2.14-.29 3.15.27.54 1 .64 1.47 1 .57-.68.56-2 1.57-2 1.38.08.34 1.81-.1 2.65.36.5 1 .66 1.58 1 .5-1.1.44-2.78 2.16-2.65 1.08 1.11-.8 1.86-.59 3.34.25.5 1 .49 1.38.88.6-.82 1.15-3.18 2.55-2 .11 1.3-.79 1.57-1 2.56 0 .48.67.31.79.69 1-.54 1.11-2.94 2.45-2.75 1.81.25-.63 2.87-1 3.44.23.32.77.34 1 .68 1-.44 1-2.85 2.36-2.55S88 46 87.4 46.54c.16.23.5.28.69.49a6.07 6.07 0 0 0 1.76-1.28c.45-.52.47-1.48 1.67-1 .68 1.55-.9 2.4-1.76 3 1.61 3.07-.55 6.56-1.67 9.43-2.52 6.49-5.36 12.25-8.09 18.55S74.9 88.09 71.77 94c-1.32 2.49-2.71 4.12-5.8 4.32-.65 1.9-1.74 4.32-4.72 3.44-2.61-.77-5.69-3.15-8-4.62C45.75 92.26 38 87 30.79 81.92 20.48 74.58 10.93 67.44 1.41 61 0 59.43-.08 57.24 0 54.8c.33-6.9 2.31-12.87 4-19.37 1.51-6.11 3.28-12.56 3.6-19.55.11-2.43-.22-5.26 0-7.86.19-2.38 1.32-3.71 2.55-5.21-.15-.94-.91-1.25-.88-2.36.9-1.21 1.98.28 2.16 1.28zm.1 2.75C9 6 9.56 10.7 9.56 14.7c0 6.46-1.56 12.38-2.85 17.79-2.12 8.86-5.27 16.21-4.52 25.45 4-17.68 8.39-35 12.78-52.38-1.03-.4-2.4-1.72-3.44-1.08zM4.84 54.6C6 54.23 6.78 53.46 7.89 53c-.11-2.65 1.69-3.55 2.46-5.5.84-2.15.42-5.58 1.08-8.07S13.84 35 14.08 33c.2-1.59-.22-2.72-.1-4.32.29-3.66 2.92-5.87 3.84-9.15 1-3.64-.31-8.61 2-11-1.1-.56-2.12-1.22-3.14-1.87C12.77 22.63 8.65 38.88 4.84 54.6zM21.36 9.69a9.61 9.61 0 0 0-1.18 4c-.18 3.31-.06 5.88-1.28 8.38-1.08 2.2-2.73 4.13-2.95 6.69-.13 1.48.27 3.14.1 4.51-.26 2.07-2 4.25-2.66 6.39-.77 2.55-.43 5.63-1.18 7.87-.62 1.87-2.2 2.89-2.55 4.71a3.34 3.34 0 0 1 1.34-.59c.25-2 1.89-3.11 2.16-4.91a31.43 31.43 0 0 0-.1-3.24c.15-3.42 3-6 3.24-9.44.09-1.19-.25-2.48-.19-3.83.15-3.66 2.53-4.9 3.53-7.47.79-2 .51-4.56.69-6.88a33.19 33.19 0 0 1 1.28-6.19zM23.42 11a18.38 18.38 0 0 0-1.18 6.89c0 2.25-.17 4.76-1.18 6.58-.51.91-1.63 2.08-2.16 3.05-1 1.84-.42 4.5-.59 6.78a12.8 12.8 0 0 1-1.47 4.7c-.68 1.39-1.69 2.78-1.87 4.32-.13 1.12.11 2.23 0 3.24-.2 1.79-1.28 2.79-2 4.33 1-.29 1.9-.66 2.95-.89 3-12.68 6.66-24.79 9.93-37.24A11.94 11.94 0 0 0 23.42 11zm3.93 4.14a4.07 4.07 0 0 0 1.28-.5c-.31-.24-.65-.47-1-.69a8 8 0 0 0-.28 1.15zM27 16.37c0 .28-.35.69-.1.88.56-.3 2.09-.64 1.57-1.37a5.29 5.29 0 0 1-1.47.49zm3.63-.29C27.3 27 24 38 20.47 48.7a23.59 23.59 0 0 0 3.24-1c0-2.44 1.63-3.24 2.66-4.82a11 11 0 0 0 1.37-4.32c.22-1.61.07-3.39.79-4.91.53-1.12 1.68-2.26 2-3.35.44-1.68.21-3.11.88-4.42 1-2 3-4.09 3.44-6.88-1.44-1-2.77-2-4.26-2.92zm-4.32 2.65c.08.34-.15.38-.1.68.81-.24 1.74-.35 1.77-1.37a5.24 5.24 0 0 0-1.71.69zm10.22 1.48c-.5 1.21-.76 2.55-1.38 3.73-.52 1-1.52 1.82-2.06 2.94s-.39 3-.88 4.33-1.73 2.6-2.11 3.79c-.73 2.36-.46 4.8-1.37 7s-2.44 3.07-3.34 5.11a30.2 30.2 0 0 0 3-1.08c-.49-2.31 2.08-3.2 2.75-5 .49-1.3 0-3.21.69-4.52.44-.89 1.56-1.54 1.77-2.36.27-1.09 0-2.19.29-3.15s1.23-1.51 1.58-2.45c.55-1.53.19-3 1-4.43.52-.92 1.43-1.53 1.77-2.75a8.12 8.12 0 0 0-1.75-1.16zm-11 1.66c.72-.39 1.73-.5 1.77-1.57-.99.17-1.84.44-1.82 1.57zm14.45.59c-.22 1.2-1.62 2-2.06 3.34-.33 1-.1 2.39-.5 3.44s-1.51 2-1.67 2.75c-.25 1.26.18 2.07-.19 3.05s-1.57 1.37-2.07 2.56a9.27 9.27 0 0 0-.29 2.46c-.36 2.58-2.11 3.39-3 5.3 1.84-.66 3.5-1.48 5.21-2.26 2.36-6.42 4.85-12.71 7.37-19a30 30 0 0 0-2.85-1.64zm-15.13 2c.49-.1.72-.46 1.37-.39-.05-.48.57-1.23.2-1.38-.71.42-1.68.57-1.62 1.74zm-.59 2.45a2.36 2.36 0 0 1 1.18-.39c.05-.41.43-1 .29-1.28-.61.4-1.8.76-1.52 1.64zm19.26.6c.81-.31 2.33-.94 2-1.77-.81.49-1.94.61-2.05 1.74zM41.8 40.06c.59-.1.92-.46 1.47-.6-.47-2.71 1.85-3.44 2.95-4.91 0-1.65-.22-2.9.29-3.93.27-.54.91-.75 1.28-1.38s.23-1.42.69-2.06c-.6-.15-1-.54-1.57-.69-1.61 4.62-3.42 9.03-5.11 13.57zM23.32 29.54c.8-.34 1.61-.69 1.67-1.77a2 2 0 0 0-1.67 1.77zm26.24.46c-.38.71-1.25 1.09-1.47 1.67-.48 1.21.21 2.32-.2 3.44-.61 1.65-2.74 1.71-3 3.54 1.3-.67 2.65-1.28 4-1.87 1.05-2.59 2.29-5 3.34-7.57a14 14 0 0 0-2.16-1.08 19.21 19.21 0 0 1-.51 1.87zm-6.88-.19c.6-.36 2.15-.79 1.67-1.58-.53.52-1.95.63-1.67 1.61zm8.65 5.89c2.28-.64 2.49-3.34 3.54-5.21-.47-.08-.71-.4-1.18-.49-.78 1.93-1.5 3.9-2.36 5.73zm-28.6-4c.4-.06.58-.34 1.08-.29.06-.25.58-.94.2-1-.34.53-1.22.5-1.28 1.29zm19 .2c.68-.18 2.1-.64 1.67-1.28-.56.46-1.63.38-1.7 1.28zm13.36 2.26c1.27-.47 2.61-.87 3.84-1.38-.92-.43-1.68-1-2.66-1.37-.41.92-.85 1.79-1.21 2.75zm-32.92.29a2.74 2.74 0 0 1 1-.49c0-.43.57-1.16.2-1.28-.69.32-1.49.92-1.23 1.77zm18.38.3c.93-.32 2.16-.86 2-2-1.02.39-1.88.84-2.03 2zm19.46 1c1 .75 3.39.76 3.24 2.16s-1.46.3-2.06 0c-.79-.38-1.69-.65-2.16-.39 0 .12-.13.13-.1.29.81.71 3.15.72 2.65 2.17-.44 1.28-2.07-.53-3-.5-.11.31-.19.66-.29 1 1.16.21 2.58.66 2.46 1.67-.2 1.58-2-.18-3-.2a3 3 0 0 0-.59 1.28c1.26.06 2.59.42 2.36 1.47-.3 1.34-1.87-.2-3.05 0a6 6 0 0 0-.39.89c1 .33 2.37.36 2.36 1.37 0 1.55-1.88.16-2.95.1a8.32 8.32 0 0 0-.49 1.35c1.15.26 3.09.28 3 1.37-.06 1.51-2.53.17-3.54-.09a10.87 10.87 0 0 1-.39 1.18c1.71-.4 3.84 1.27 2 2.06a4.32 4.32 0 0 0-2.46-.49c-.21.28-.21.77-.39 1.08 1.27.1 2.81.46 2.55 1.57-.31 1.36-1.89-.28-3-.1 0 .36-.19.48-.2.79 1.37 0 3.71 1.82 1.77 2.75.32.25.63.48.49 1-.35 1.22-2.67-.4-3.34.1-.27-.07.07.46-.2.39.69.87 2.85.26 2.85 1.58 0 1.69-2.49 0-3.24.29-.15 0-.09.24-.1.4.54.68 3.13.29 3 1.57-.09 1.44-2.5.17-3.54.1.07.36-.17.42-.1.78.89.63 3.12.87 2.65 2.26s-2.13-.7-3-.68a3.2 3.2 0 0 1-.2 1.08c.88.45 2.56.7 2.46 1.76-.14 1.44-2 .11-2.75-.19a4.61 4.61 0 0 0-.2 1.18c1.24.27 3.29.35 3.24 1.47-.07 1.58-2.48 0-3.63 0 .06.43-.17.56-.1 1 1 .39 2.71.6 2.45 1.77-.3 1.38-1.9-.16-2.85-.19a4.87 4.87 0 0 1-.29 1c.83.33 1.86.47 1.77 1.38-.15 1.43-1.75 0-2.36.29.14.28 2.58 2.27 1 2.75-1 .31-1.56-1.31-2.35-1.57-.21-.06-.65.06-1 0-1.42-.25-3.49-2.07-4.72-2.85-4.72-3-9.35-5.89-14.25-8.55-6.88-3.73-12.76-8.39-20-10.32-1 1.11-1.51 2.82-2.26 4.23 9.65 6.29 18.9 13.07 28.4 19.94 8 5.8 16.82 11.53 25.35 16.91 1.82 1.15 3 2.49 5.41 2.55 1.73-2 1.65-4.64 2.55-6.87a48.55 48.55 0 0 1 3.15-6.39c2.39-4 4.43-8.23 6.49-12.48s4.09-8.62 5.89-13.07 3.24-9.16 6.19-12.88a251.79 251.79 0 0 1-24-13c-.33 2.73-2.31-.94-3.2.46zM48 65.31A103.92 103.92 0 0 1 54.18 45c.65-1.54 1.4-3.07 2-4.62s.74-3.47 1.68-5h-.2a1.18 1.18 0 0 1-.3.09c-8 2.79-15.56 7.11-23.58 10.62a97.21 97.21 0 0 1-12.58 4.52c-4.31 1.22-8.87 2-13 4.23 7 2.44 12.72 6.91 19 10.22s12.26 7.2 18.28 11c1.28-3.43 1.8-7.16 2.52-10.75zm-26.64-28.4c.39-.06.49-.42 1-.39 0-.33.53-1 .1-1.09-.58.3-1.13.57-1.1 1.48zm18 .49c.88-.2 2.34-.85 1.87-1.77-.83.37-1.71.74-1.89 1.77zm-18.69 2.36a1.18 1.18 0 0 1 .88-.39c0-.53.42-1.15.3-1.48-.64.32-1.47.96-1.18 1.87zm17.59.49c.79-.55 2-.69 2.06-2-1.07.24-2.11 1-2.06 2zm-18.38 2.07c.22-.27.7-.29 1-.5-.15-.4.5-.86 0-1-.42.38-1.27.8-1 1.5zm17.49-.2c.61-.32 1.89-.47 1.77-1.18-.48.49-1.42.54-1.77 1.18zm-18.28 2.75c.57-.38 1.27-.64 1.28-1.57-.68.2-1.37.89-1.28 1.57zm-.78 2.75c.57-.29 1.6-1.13 1.18-1.77-.59.33-1.37.99-1.18 1.77zm-.49 1.87a1.31 1.31 0 0 1 .78-.2c.06-.2.42-.62.2-.78-.19.4-1.18.49-.98.98zm67.31 6.19c-2.47 6-4.79 12.26-7.56 17.79-1.92 3.82-3.57 7.69-5.57 11.3s-4.56 7.23-5.54 11.5c3-.71 3.77-3.36 5.11-6.09 2.69-5.42 4.87-11.08 7.18-16.42 2.4-5.54 4.93-10.85 7.17-16.41 1-2.49 2.15-4.58 2.46-7.27 0-.06 0-.11-.1-.1a25.82 25.82 0 0 0-3.15 5.7zm-33.31 2.26a12.16 12.16 0 0 0 2 .3 2.81 2.81 0 0 0-1.77-1 3.29 3.29 0 0 1-.23.7z" fill="#25707f" fill-rule="evenodd" data-color="1"/>
    </g>
</svg>
