<?xml version="1.0" encoding="UTF-8"?>
<svg data-bbox="0.015 0 128.479 117.042" viewBox="0 0 128.41 116.99" xmlns="http://www.w3.org/2000/svg" data-type="color">
    <g>
        <path d="M123.21 91c-.48.91-2.53 2-3.63 2.85-1.34 1-2.64 1.91-3.83 2.76-12.85 9.07-26.2 17.74-45.6 20-7.89.89-17.37.49-23.49-2s-10.93-6.42-15.33-10.91-7-10.08-10.81-15.43a201.13 201.13 0 0 1-17-28.89c-.62-1.3-2.37-4.58-1.57-5.41-.29.29-.81 0-1.18 0-2-1.67.35-3.81 2.66-3.14 7.08-5.4 14.29-10.67 21.32-16.12a3.52 3.52 0 0 1-.75-2.28 2.3 2.3 0 0 1-.87-2.06c0-.91.67-1.33.87-1.77-1.35-6.11-2.91-13-4.12-19.36-.47-2.19-2.13-9.24.93-9.24 1.79 0 2.46 3.24 3 4.81a60.27 60.27 0 0 1 2 23.79c2 .85 1.76 3.6 1.47 6 7 3.49 15.11 7.42 22.41 11 1.08.53 2.31 1.45 3.24 1.57s2-.34 2.66.1c.52.35.54 1.15.68 2.06-.12.47-.77.41-1.18.59.86.48.86 1.61 1.18 2.36 1.08 2.55 2.2 4.85 3.44 7.18 4.93 9.3 10.07 18.23 16.71 25.74 7.08-4.81 14.37-9.4 21.32-14.34a9.28 9.28 0 0 1-.19-3.25c.13-.54 1 0 1.08-.39.28-1.1-.33-1.53-.3-2.45.06-1.45 1.24-1.85 1.58-2.75a14.3 14.3 0 0 0 .19-2.66c.07-.88.11-1.86.2-2.66.94-8.92 1.22-17.66 2.85-25.74.4-2 1.37-8 3.73-7.77 1.34.12 1.73 2.53 1.87 4a35 35 0 0 1 0 5.8c-.83 11-3.87 20.38-6.68 29.19.53.65.87.78 1 1.47.29 1.81-1.24 2.61-1.18 3.34 0 .49.52.69.59 1.18.16 1-.5 1.69-.78 2.66 6.23 3.42 13.45 7.41 19.85 11a14.17 14.17 0 0 0 2.84 1.58c.68.09 1.85-.55 2.56-.4s2 2.37 1.38 3.34-3 .7-4 1.08c-.64 1.11-.55 2.57-1.12 3.57zM21.11 2.85c-.09 0-.1 0-.1.1.24 6.54 2.25 12.17 3.24 18.28a55.39 55.39 0 0 0-3.14-18.38zm85.4 23.09c-3.05 8.09-3 19.26-4.13 29.29 2.09-8.88 5.22-18.23 4.13-29.29zm-81.77 4.23a1 1 0 0 0 1.09 1.18c.07-.81-.47-1.35-1.09-1.18zm.3 8.16c-2.12 3.65-4.12 7.41-6.1 11.2 1.1 0 2-.14 3-.2C23 45.7 24 42 25 38.33zm1.87.39c-.28 3.29.14 6.74 0 10.22 1.13 0 2-.21 3.14-.19-1.05-3.35-2.17-6.62-3.14-10.03zm-4.63.28c-3.81 3.37-8.17 7.55-11.69 11.21 1-.07 1.94-.22 3.05-.2 2.97-3.57 5.66-7.43 8.64-11.01zm9 .6c-.25 0-.12.07-.1.19 2.79 2.65 5.3 5.58 8.06 8.26.54-.19 1.4 0 2-.2-3.33-2.8-6.8-5.4-10.01-8.24zm-2.95 0c.75 2.82 2 6 2.85 9 .86-.06 1.69-.15 2.56-.2-1.83-2.92-3.74-5.81-5.46-8.79zm1.38.09c1.56 2.74 3.52 5.92 5.4 8.66.75-.11 1.61-.1 2.36-.21.07-.44-.49-.67-.78-1-2.29-2.3-4.77-5.07-7.03-7.44zm3.63.1c2 1.92 4.65 3.92 7.28 6 1.43 1.14 2.23 2.46 4.91 1.86-3.9-2.82-8.27-5.14-12.24-7.85zM23 39.9c-2.56 2.88-5.07 6.65-7.66 9.83.6.27 1.36-.14 2.16 0 1.86-3.22 3.55-6.65 5.5-9.83zm2.76.3c-1 2.84-1.56 6.11-2.56 8.94a12.13 12.13 0 0 0 2.66-.1c.04-3.27-.19-5.64-.13-8.84zm10.81.19c3.22 2.38 7.34 4.71 10.9 7.08 1 .06 1.74-.17 2.76-.1C45.69 45 41 42.79 36.54 40.39zm-17.5.1c-4.35 3-8.88 6.78-13.36 10 .7.12 1.85-.17 2.85-.09 3.49-3.27 6.96-6.62 10.44-9.91zm32.73 9.63c.94.29 1.31-.11 0 0zM37.32 51.4c.38.61 1.62-.13 2.46 0-.49-.4-1.68.06-2.46 0zM32 52c.32.45 1.25.17 2 .1a17.88 17.88 0 0 0 2.16-.3c.12 0 .18 0 .2-.1A8.91 8.91 0 0 0 32 52zm22.3-.4c-8.23.75-16.31 2.15-24.66 2.85s-16.81 1.64-25.83 1.37a4.19 4.19 0 0 0 .69 1.87A256.1 256.1 0 0 0 20.72 85.1c4.47 6.7 9.6 13.65 16.8 18.09a16.74 16.74 0 0 0 8.74 2.81c6.69 0 9.91-3.84 13.17-7.47-1-.77-2.31-2.28-1-3.54 1.48-.6 2.94-.42 4.33-.88a15.16 15.16 0 0 0 3-2c3-2 6-3.87 8.94-5.8a127.46 127.46 0 0 1-20.38-34.72zm-23.3.29a26.1 26.1 0 0 0-3.54.3v.48a25.73 25.73 0 0 0 3.54-.39zm-4.62.3c-1.11.2-2.58 0-3.54.39.44.9 2.45 0 3.54.19zm-4.61.39a32.93 32.93 0 0 0-3.84.29c.15.88 1.36.37 2.16.3s1.27-.06 1.77-.1c.07-.24-.14-.21-.06-.49zm-4.92.29c-.38.06-1.21.15-1.87.2s-1.47-.2-1.37.49c.83.46 2.34-.07 3.34-.1.1-.3-.07-.36-.07-.59zm-4.32.4a17.52 17.52 0 0 0-3.44.29v.3c.75.38 2.41 0 3.44 0zM8 54v-.19c0-.12 0-.18-.1-.2-1.1.11-2.33.1-3.34.3-.24 0-.72-.13-.79.09H8zm92.28 9.34a1.7 1.7 0 0 0-.69 2.46 1.57 1.57 0 0 0 2-2.36c-.19-.19-1.02.33-1.27-.15zm-.69 3.44v.88h1.08c0-.28.06-.64-.1-.78a3.28 3.28 0 0 0-.94-.15zm-1.14 1.72c.14 1.08 0 3 1.38 2.46-.15-.19-.54-.12-.5-.5-.08-.7.66-.59 1.28-.58-.41.26-1.78-1-.39-1.09-.12-.18-1.29-.15-1.77-.29zM100 74c-.56 4.35-.68 9.15-1 13.76 1.13-.3 2.45-.43 3.64-.69-.81-4.4-1.82-8.62-2.64-13.07zm3.64 12.88c1.46-.18 2.75-.52 4.22-.69-2.19-4-4.38-8-6.68-11.89v-.11c-.15.54.4 2 .59 3 .65 3.12 1.33 6.81 1.89 9.69zm1.86-12.58c3.93 3.34 8.55 6.86 12.88 10.12 1.29-.32 2.74-.48 4.13-.69-5.57-3.23-11.4-6.21-16.99-9.43zm-1.08.69c2.6 3.36 5.91 6.87 8.85 10.21 1.13-.14 2.12-.43 3.34-.49a13.72 13.72 0 0 0-2.95-2.45c-2.98-2.26-6.22-4.87-9.22-7.26zm-1.08.58c1.67 3.29 3.72 7 5.71 10.33 1 0 1.74-.36 2.75-.4-2.65-3.45-5.66-6.58-8.44-9.93zm-4.61 0c-1.65 4.29-3.2 8.67-4.72 13.08 1.21-.3 2.54-.48 3.83-.69q.51-6.15.91-12.39zm-6.69.59c-4.87 3-9.93 6.71-14.94 9.93.16.46.58.67.79 1.08 4.77-3.64 9.42-7.37 14.17-11.01zm4.13.2c-3.41 4.08-7.6 8.64-11.09 13.17-.15.2-.53.48-.39.78 1.07-.3 2.35-.39 3.44-.68 2.87-4.23 5.25-8.97 8.06-13.27zm.88.69c-2.44 3.65-4.79 8.24-7.27 12.18a13.84 13.84 0 0 0 3-.39q2.03-6 4.29-11.79zm-5.6 1.08c-4.09 3-8.4 6.6-12.58 9.83.79 1.63 1.24.77 2.36-.3 3.3-3.09 7.21-6.66 10.24-9.53zm1.67.1C89 81.71 84.91 86 80.76 89.82c1.3 2.38 3.21-.75 4.23-2 2.67-3.15 5.64-6.82 8.15-9.59zm31.55 6.68a5.68 5.68 0 0 0 .2.88 12.94 12.94 0 0 0 1.86-.29c.1-1.33-1.18-.68-2.04-.59zm-1.08.19c-1.17.35-2.55.46-3.74.8 0 .3.27.32.2.68l3.74-.59a1.68 1.68 0 0 0-.18-.89zm-9.54 2.46c1.61-.29 3.27-.53 4.92-.78.05-.38-.25-.4-.29-.69-.61.17-1.76.31-2.66.49-.71.15-2.02.12-1.95.98zm-1-.39c-1.14.2-2.24.44-3.44.59.06.82 1 .4 1.58.3a10.82 10.82 0 0 1 1.86-.3zm-47 6.29c1.53-.31 3.26-.17 4.61-.69 1-.39 2-1.56 2.86-2.26s2-1.44 2.85-2.16c-.24-.41-.72-.6-.89-1.08-3.19 1.95-6.11 4.23-9.36 6.19zm56.9-5.7c-1.24.2-2.42.47-3.64.69a4.36 4.36 0 0 1-.2 1.47c1.06-.22 2.21-.35 3.35-.49a13.57 13.57 0 0 0 .54-1.67zm-14.35.2c-.68.1-1.75.33-2.65.49s-1.88 0-2.26.69c1.38.26 3.42-.5 5-.69a.66.66 0 0 1-.02-.45zm9.73.69c-1.42.25-2.78.56-4.23.78 0 .47.18.68.1 1.18 1.23-.24 2.6-.35 3.83-.59.15-.49.28-.91.37-1.37zm-19.39 1.08A.44.44 0 0 1 99 90a10.68 10.68 0 0 0 3.73-.59v-.29a17.38 17.38 0 0 0-3.79.61zm-20.54.68a2.74 2.74 0 0 0-1.18-1.18c-1.22 1-2.44 2-3.73 3 1.68-.23 4.13-.43 4.91-1.82zm34.79-.78c-1.33.24-2.62.52-4 .68 0 .4-.19.59-.2 1 1.53-.12 2.91-.37 4.33-.59a4 4 0 0 1-.13-1.09zM98 89.82c-.08 0-.09 0-.1.1-.76.09-1.67.24-2.56.39-.67.12-1.94 0-2 .89 1.59-.24 3-.62 4.72-.79.07-.3-.17-.28-.06-.59zm10 .79c-1.62.12-2.9.57-4.52.69-.17.19-.11.61-.3.79a37.69 37.69 0 0 0 4.63-.6 7.16 7.16 0 0 0 .19-.88zm-15.72.29a15.69 15.69 0 0 0-2.16.4c-.67.12-1.6 0-1.77.59 1 .24 2.86-.34 4-.59.02-.18-.11-.21-.09-.4zm10 .69h-.2c-.9.24-2 .3-3 .5s-2.1.19-2.55.88c1.46.22 3.74-.54 5.59-.59.02-.28.11-.51.16-.79zm-14.93.2c-.7 0-1.64.26-2.46.39s-1.64.11-2.06.59c.4.46 1.37 0 2.16-.1a15.26 15.26 0 0 0 2.36-.49zm31.54.1c-18 2.43-36 5.34-54.44 7.67a21 21 0 0 0-3.74.39c-.46.18-1.27 1.31-1.67 1.77-2.89 3.3-7.27 6.66-13.86 6.19-6-.44-9.75-3.8-13.66-7-.11-.12-.25 0-.1 0 4.84 5.38 10.45 10.47 18.48 12.77 8.19 2.36 19.73 1.49 28-.48 16.76-3.98 29.58-12.64 40.99-21.31zm-23.39 1c0-.08 0-.09-.1-.1l-1.57.3c-.49.08-1.25 0-1.37.49.56.26 2.09-.19 2.94-.3.01-.17-.04-.39.1-.41zm-13.66-.1a20.07 20.07 0 0 0-2.45.4c-.75.12-1.65.07-2.07.59.38.42 1.39 0 2.16-.1a20.16 20.16 0 0 0 2.36-.49zm9.54.69c-1.14.34-2.61.35-3.64.79a16.36 16.36 0 0 0 3.64-.4zm-21 1.77c1.52-.22 3.17-.51 4.72-.78.42-.08 1.1 0 1.28-.5a16.85 16.85 0 0 0-4.82.59c-.51.09-1.25.04-1.22.67zm16.12-.88c-1.15.22-2.29.46-3.54.58-.19.09-.19.34 0 .1 1.16-.22 2.71-.05 3.5-.7zm-17.1.58c-1.51.25-3.7.66-5.3 1-.48.09-1.35-.06-1.28.69 2.16-.47 4.58-.67 6.58-1.28zm-7.57 1.38c-.77 0-1.34.29-2.16.3.08.31.51.28.59.59a3.58 3.58 0 0 1 1.48-.4c-.08-.26.13-.23.05-.51z" fill="#25707f" fill-rule="evenodd" data-color="1"/>
    </g>
</svg>
