<?xml version="1.0" encoding="UTF-8"?>
<svg data-bbox="-0.023 0.04 169.594 90.045" viewBox="0 0 169.57 90.09" xmlns="http://www.w3.org/2000/svg" data-type="color">
    <g>
        <path d="M143 34.83c6.6.68 13.29 1.5 19.95 2.36a24.17 24.17 0 0 1 6.19 1.17c-.06 1.78 1 4.56 0 6.1-.6.92-3.74 1.91-4.91 2.45C159.33 49.13 154 52 148.49 53c.52 3.24 1.39 8 2.07 11.8a15.19 15.19 0 0 1 .49 3.93 4 4 0 0 1-3 2.45c-1.25 0-1.8-1-2.75-1.47-.28-1.53-.57-3-.89-4.52-9.67-1.49-19.26-3.07-28.69-4.82 0 1.38.15 3-.39 3.84-1.12.49-3.18.55-3.94-.3-1-1.07-.25-3.17-.78-4.72-15.79 1.12-30.82 3-44.23 6.49-1.88 5.57-3.9 12.22-5.79 18.58-.5 1.68-1.17 5-2.46 5.6a8.69 8.69 0 0 1-4.32-.1c-3.18-1.17-.35-6.9 0-9.34-4.22-1.24-8.49-2.25-12.78-3.44-1.33-.36-2.72-1.06-4-1.27s-2.48 0-3.64-.1a23 23 0 0 1-3.39-.49 10.79 10.79 0 0 0-1.19 2.95c-.27.86-.42 2.57-1 3-1.4 1.18-4.48-.51-4.72-1.57-.42-1.91 1.25-4.05 1.48-5.5-6.44-1.78-14.12-4.32-20.44-6.78a12.16 12.16 0 0 1-2.75-1.09C.77 65.61 0 63 0 61.75a4.11 4.11 0 0 1 3.64-4.52A14.68 14.68 0 0 1 2 55.16a6.32 6.32 0 0 1-.59-3.34c.84-1.31 2.46-1.81 3.83-2.35 4.43-1.76 9.23-3 14.05-4.52C31.93 41 47.56 40.7 62.8 39.05c5.27-.57 11-1.35 17-1.57 2-.08 4.66.26 5.9-.2.6-.23 1.42-1.42 2.16-2.16 2.14-2.12 4.45-4.59 6.48-6.49a94.71 94.71 0 0 0 8.66-8.55c3.69-4.51 6.89-10.38 10.8-15 .86-1 2.92-3.84 4.23-4.33s4.14-.17 6.09-.29a133.08 133.08 0 0 1 21.13 0 59.28 59.28 0 0 0 7.08.49c4.52-.07 9.9-.52 9.43 4.62 0 .57-.67 1.44-.59 2.06.11.83 1.33 1.29 1.38 2.26 0 1.12-1.25 2.76-2 3.64C154.73 20.67 149 28 143 34.83zM127.46 2.1c-1.26 0-2.59 0-3.93.09s-2.92-.3-4.12 0-3.07 3-4.13 4.23c-3.94 4.59-6.93 10.18-10.52 14.65-3.75 4.66-8.45 8.44-12.67 12.38A28.79 28.79 0 0 0 88 37.58c5.61 1 11.65 2.06 17.79 2.84s12.39 1.08 17.58 3c2.56-3.68 5.91-6.68 9-9.83s6.14-6.49 9.14-9.82 6-6.62 8.74-10.12 5.86-6.84 8.36-10.62c-10.33-.17-20.76-1.42-31.15-.93zm27.91 8.35c-7 8.61-14 16.83-21.62 24.57-3 3.11-6.65 5.76-9 9.44a1.63 1.63 0 0 1 .89.88c8.54-8.7 16.94-18.18 25.06-27.52 2-2.26 4-4.87 6-7.17a23.48 23.48 0 0 0 2.16-2.26 8.49 8.49 0 0 0 .89-3.24 45.7 45.7 0 0 1-4.38 5.3zm.2 4.62a415.225 415.225 0 0 1-27.32 30.17c-.61.61-1.94 1.31-1.47 2.56.52.22.8-.43 1.08-.69s.8-.76 1.18-1.08a164.13 164.13 0 0 0 15.42-16c5.59-6.4 10.91-13.18 16-19.85a.26.26 0 0 0-.19-.3 41.94 41.94 0 0 0-4.7 5.19zm-14 21.32a.33.33 0 0 0-.2.2c1.52.59 3.05 1.15 4.52 1.77q8.55.69 16.81 1.67c.7-.33 1.49-.6 2.16-1-7.86-.84-15.86-1.47-23.34-2.64zM95 40.72c-2.89-.6-5.8-1.66-8.65-1.87h-.29c-7 .6-14.08 1.2-21.23 2s-14.21 1.4-21.22 2a115.63 115.63 0 0 0-20.15 3c-6.28 1.66-12.1 3.68-17.59 5.6 8.78 2.19 16.17 5.49 26.53 6.19a31.41 31.41 0 0 0 4.32.4 19.4 19.4 0 0 0 2.36-.69c6.11-1.4 12.1-2.62 18-3.83 20.1-4.14 40.34-11.28 65-8.45-8.31-2.28-18.5-2.57-27.08-4.35zm51.11-.39c-2.53-.59-5.07 0-7.77-.69a9.89 9.89 0 0 0-1.34 1.57c5.08.37 10.08 1.33 14.94 1.57-1.94-.36-3.78-1.98-5.8-2.45zm21.42 2.85c.38-.66.2-2.42.1-3.24a21.16 21.16 0 0 0-.07 3.24zm-.89.49a17.79 17.79 0 0 0-.09-3.15c.16 1.02-.4 2.38.12 3.15zm-10.91-1.38c.89-.45 2.16-.53 3-1.08-2.2 0-4.44-.42-6.39-.29 1.2.39 2.31.89 3.42 1.37zm9.64.59c0 1.09 0 1.57.1.59a7 7 0 0 0 0-2.55 6.64 6.64 0 0 0-.07 1.96zm-3.15 2.75c.55-.6.47-2.86.3-3.53a34.94 34.94 0 0 0-.27 3.53zm-1.08.59a9.35 9.35 0 0 0 .2-3.73 9.84 9.84 0 0 0-.17 3.73zM159.9 43c0 1.36-.05 2.58-.1 3.83.67-.7.4-2.87.39-3.93-.02.1-.19.1-.29.1zm3.73 1.08c0-.29.09-1.27-.1-1.08.04.27-.1 1.25.1 1.06zM134.93 43a43.3 43.3 0 0 1-4 3.63c-.41.35-1.1.79-1 1.09a119.56 119.56 0 0 0 18.77-3.54c-4.65-.3-9.14-.75-13.66-1.18zm23.69 4.32c.55-.33.26-1.26.29-2a11.1 11.1 0 0 0 .1-2c0-.07 0-.12-.1-.1a14.52 14.52 0 0 0-.29 4.08zm-1.28.59c.9-.64.08-3 .49-4.12 0-.08-.08-.11-.19-.1-.4 1.1-.15 2.85-.3 4.2zm-1 .5a19.59 19.59 0 0 0 0-4.33 18.39 18.39 0 0 0 .02 4.31zm-1.18.49a10.3 10.3 0 0 0 0-4.42 19.8 19.8 0 0 0 .02 4.4zm-1.18.49c.15-1.42.15-3 .2-4.52h-.3a41.68 41.68 0 0 0 .12 4.5zm-1.47-4.13c-.28 1.33.06 3.28-.2 4.62.92.07.57-.69.59-1.37a31.74 31.74 0 0 0 .09-3.25c0-.06 0-.11-.09-.1s-.22.07-.37.08zM151.35 50c.2.27.06-.67.1-1.08a12.94 12.94 0 0 0 0-3.35 37.66 37.66 0 0 0-.1 4.43zm-1 .59a41 41 0 0 0 .1-4.62h-.29c.13 1.44-.25 3.43.2 4.58zm-1.37.3c.45-1.16.06-3.15.19-4.63h-.29a26.12 26.12 0 0 0 .12 4.59zm-27.13-4a100.77 100.77 0 0 0-12.48-.29c-3.53.16-6.78.15-10 .49a204.16 204.16 0 0 0-26.73 5c-10.15 2.41-20.23 4.7-30.37 6.69-1.47.28-3 .42-4.13 1.17a4.59 4.59 0 0 0 .69 3c6.43-1.58 12.74-4 19.36-5.8 3.3-.88 6.67-1.59 10-2.55s6.66-2 10-2.65c10.58-2.19 22.73-2.56 34.69-3.15a108.88 108.88 0 0 0 11.93-.8c-.24-1.24-1.81-1.07-2.95-1.19zm25.85 4.43a11.55 11.55 0 0 0 0-4.72h-.2a16.09 16.09 0 0 0 .21 4.64zm-1.28.29c.43-1.19-.09-3.12.1-4.72h-.29c.07 1.5.15 3.05.2 4.64zm-.88.2c-.25-1.43.1-3.44-.4-4.62.24 1.37-.14 3.37.41 4.54zm-1.18.29a28.63 28.63 0 0 0-.2-4.72 18.53 18.53 0 0 0 .21 4.62zm-1.18.2a13.58 13.58 0 0 0-.2-4.62c.14 1.4-.25 3.39.21 4.54zm-1.48-4.42a15.39 15.39 0 0 0 .1 4.71c.53-.95.38-3.61.1-4.71zm-1.08 4.91a14.82 14.82 0 0 0-.09-4.62h-.3c.13 1.47-.03 3.3.4 4.54zm-1.28.29a12.72 12.72 0 0 0-.19-4.71c-.38 1.18.06 3.26.2 4.63zm-1.17.2c.33-.5 0-1.42 0-2.26s.12-1.94-.39-2.36h-.2c.28 1.39-.04 3.44.6 4.54zm-1.87-4.13c.08.68.06 1.59.1 2.46 0 .68 0 1.76.39 1.87a10.62 10.62 0 0 0-.29-4.62h-.2zm-1.18.2c.09 1.1.27 2.92.39 3.83 0 0 0 .94.1.4 0-1.54-.17-3-.19-4.53h-.3zm-1.18.2a23.34 23.34 0 0 0 .2 2.55c0 .64-.17 1.56.39 1.87a17.66 17.66 0 0 0-.49-4.72c-.08 0-.19 0-.2.1s.16 0 .16.12zm-.88 4.71c.49-.43.16-1.41.09-2.25a19.54 19.54 0 0 0-.19-2.56h-.29c.18 1.48 0 3.4.4 4.73zm-1.58-4.42c.2 1.12.22 2.4.39 3.54 0 1.41.19.42.11-.39-.11-1-.19-2.62-.2-3.44h-.3zm-.48 4.74c0-1.75-.28-3.25-.39-4.92h-.29c.27 1.59.03 3.7.68 4.92zm-1.87-4.53a9 9 0 0 0 .1 1.58c.07 1.12-.17 2.76.49 3.14.17-1.54-.28-3.31-.29-5h-.3zm-1.27.11a20.19 20.19 0 0 0 .1 2.65c0 .83-.09 2.06.29 2.16.49-.17.12-1 .1-1.57 0-1.06-.07-2.37-.1-3.35 0-.1-.11-.15-.2-.19-.05.14-.25.08-.19.3zm-.86 5.11a14.87 14.87 0 0 0-.29-5.22h-.2c.27 1.6-.09 3.86.49 5.22zm-1.37.19c.45-.5.15-1.9.09-3.05 0-1 .15-1.92-.29-2.25h-.2c.17 1.69-.1 3.84.37 5.3zm-2.17.3c-.16-1.81.12-4-.39-5.51.22 1.75-.19 4.1.36 5.51zm1.09-.2c-.21-1.7.09-3.9-.4-5.31.21 1.67-.06 3.84.37 5.31zm-3.94-4.92v4.23c0 .36-.23 1.12.3 1.18a17.9 17.9 0 0 0-.1-5.7c-.04.16-.28.08-.23.29zm1.28 0a20.57 20.57 0 0 0 .1 2.56c0 .93-.26 2.07.29 2.65.06-1.92-.07-3.65-.09-5.5h-.3zm-2.36 5.51c.46-1.51.07-3.87.2-5.7h-.29c.11 1.89-.44 4.08.06 5.7zm-2.45.29c.39-1.67.15-4 .29-5.89h-.29a17.91 17.91 0 0 0-.03 5.89zm1.08-.09c.52-.29.29-1.1.29-1.67 0-1.41.09-2.86.1-4 0-.07-.08-.11-.2-.09-.17 1.81-.21 3.77-.22 5.76zm-3.64.39a16 16 0 0 0 .1-6.1c-.03 2.08 0 4.16-.13 6.1zm1.28-.1a18.58 18.58 0 0 0 0-6 38.77 38.77 0 0 0-.03 6zm-3.54.4c.53-1.74.27-4.26.49-6.29h-.3c-.21 1.98-.23 4.11-.22 6.25zm1.28-.2a40.67 40.67 0 0 0 .1-6c.02 1.99-.42 4.56-.13 6zm-3.64.49c.38-1.85.1-4.36.3-6.39 0-.07-.08-.11-.2-.09a41.21 41.21 0 0 0-.13 6.48zm1.28-.1a29.28 29.28 0 0 0 .1-6.38h-.2c.16 2.15-.46 4.54.07 6.38zm-2.46-6c-.07 1.86-.42 4.56-.1 6.19.47-1.83.26-4.34.4-6.49h-.3zm-1.47-.2v.29a44.39 44.39 0 0 0-.2 4.82c0 .51-.43 1.13.2 1.37.51 0 .28-.66.29-.88a23.75 23.75 0 0 0 0-5.6zm-2.66 6.68c.06-2 .47-4.7 0-6.58h-.19c.1 2.14-.29 4.79.16 6.59zm1.19-6.58a28 28 0 0 0 .09 6.48 23.74 23.74 0 0 0 .2-6.48zm-3.84.39c.07 1.74-.12 3.41-.1 5 0 .43-.24 1.25.3 1.38.45-1.8.07-4.46.2-6.59a.16.16 0 0 0-.2-.09c-.04.17-.28.09-.23.31zm1.48 6.29c-.15-2.18.43-4.67-.1-6.58-.08 1.99-.32 4.77.07 6.59zm-2.75-6.19c0 1.78-.21 3.82-.2 5.5 0 .26-.25.93.2.89a23.6 23.6 0 0 0 .19-6.69h-.19zM98 51.43c0 .16-.2.08-.2.3 0 1.89-.19 5 0 6.58a21.43 21.43 0 0 0 .4-6.88zm1.28.3c.1 2.16-.52 4.66-.1 6.48.56-.72.34-2.05.39-3.24s.39-2.66 0-3.54h-.29zm-2.75-.2a34 34 0 0 0-.4 7c.88 0 .66-1.35.69-2.16a17.18 17.18 0 0 0-.1-4.82zm-1.58.2c0 2.28-.32 4.84-.19 7 .63-1.92.51-4.6.69-7 0-.08-.09-.12-.2-.1s-.18.1-.32.1zm-1.47.39c0 1.87-.15 3.8-.2 5.4 0 .43-.44 1.09.2 1.28a23.07 23.07 0 0 0 .52-5.89c0-.33.23-1.07-.3-1.09h-.19zM92 51.93v.29c0 1.78-.11 3.48-.2 5 0 .59-.43 1.4.2 1.77.5-.36.26-1.08.29-1.67.1-1.74.52-3.93.1-5.4zM90.81 57c.09-1.55.31-3.42.29-4.92 0-.06 0-.11-.1-.1s-.43.1-.68.1c.09 2.5-.45 5.14-.1 7.07.85-.08.54-1.35.59-2.15zm-1.67.78c.08-1.69.27-3.81.29-5.5 0-.06 0-.12-.09-.1a.91.91 0 0 1-.6.1c.08 2.3-.44 5 0 7.07.7-.08.37-1.08.4-1.53zm-1.77-5.21c-.05 1.78-.18 4-.2 5.8 0 .35-.42 1.08.2 1.18.61-1.91.19-4.85.49-7.08-.12 0-.14-.12-.3-.1 0 .17-.17.13-.19.24zm-1.38 0c0 2.16-.51 5.24-.2 7.18.72-.2.37-1.19.4-1.77.08-1.78.43-4 .1-5.41zm-1.37.2a66.61 66.61 0 0 0-.5 7.27c.81 0 .55-1 .59-1.67.11-1.74.5-4.18.1-5.6zM8.25 56.44c9.43 2.17 20.13 3.81 28.6 6.19a7.48 7.48 0 0 1-.39-2.63 75 75 0 0 1-17.3-2.65c-5.3-1.42-10.35-3.42-15.82-4.42.33 2.64 2.37 2.93 4.91 3.51zm74.4 3.83c.71-.16.54-1.2.59-1.86.15-1.69.3-3.73.3-5.41h-.3c-.5 2.13-.33 4.92-.59 7.27zm-.59-7.07c-.13.14-.43.1-.69.1.13 2.33-.26 5.18.2 7.17a42.71 42.71 0 0 0 .49-7.27zm64.86.3c-.1-.07-.87 0-1 .29 1.16 4.9 1.87 10.25 3.15 15-.61-4.79-1.33-10.35-2.15-15.29zm-67 .1v.29c.08 1.83-.12 3.81-.1 5.5 0 .49-.18 1.14.19 1.28.61.14.38-.64.4-.88a25.7 25.7 0 0 0-.1-6.19zm-1.59.4c.15 1.45 0 4 .1 5.8 0 .36-.25 1.1.29 1.17a46.27 46.27 0 0 0 .19-7.17c-.04.2-.52 0-.58.2zm66.43 3.24c.23 1.21.24 2.66.79 3.24-.55-2-.54-4.63-1.28-6.48a10.8 10.8 0 0 0 .49 3.23zm-67.91-2.96c.15 2.37-.27 5.34.1 7.08.88-.15.59-1.39.59-2.26a31.18 31.18 0 0 0-.2-4.82c0-.08-.08-.11-.19-.1s-.15.11-.3.1zm50.61 2.95c5.54.68 10.54 1.77 15.92 2.56-.24-1.88-.28-4-1-5.41-4.93.98-10 1.84-14.92 2.85zm-51.89-2.65a26.14 26.14 0 0 0 0 7.07c.53-.65.25-1.76.3-2.75.07-1.49.32-3.17-.1-4.32zM74 55c0 .15-.2.08-.2.3a47.15 47.15 0 0 0 .3 6.7c.56-.43.26-1.37.3-2.16.07-1.62.38-3.71-.2-4.82zm-1.08 6c.06-1.81 0-3.86 0-5.5 0-.06 0-.11-.1-.1a2 2 0 0 1-.59.2c.34 2-.21 4.93.3 6.78.61-.15.37-.91.39-1.38zm-2.36-4.91c0 2.3-.17 4.35-.1 6.68a5.82 5.82 0 0 0 .89-.19v-6.73h-.2a2 2 0 0 1-.59.2zm-1.56.45c0 2.21-.21 4.65-.1 6.59.8-.06.66-1.11.69-1.77a47.07 47.07 0 0 1 .1-4.82c0-.07 0-.19-.1-.19a2.4 2.4 0 0 1-.59.19zm-1.08.2c-.08.14-.32.14-.49.2.18 2.07-.11 4.62.39 6.38.1-1.8.42-5.32.09-6.58zm-1.77.49c0 .12-.13.14-.1.29 0 1.14-.05 2.61 0 3.84 0 .7 0 2.07.39 2.26.48-.22.21-1.08.2-1.67a20.93 20.93 0 0 0-.3-4.72zm-1.87.59a18.52 18.52 0 0 1 .2 1.87c.07 1.56-.29 3.38.3 4.42.12 0 .18-.14.39-.1.14-1.88-.1-4.23 0-6.39H65a3.69 3.69 0 0 1-.73.2zM37 66.17c1.71-.8 4.12-1.74 5.9-2.45.22-.09.74 0 .59-.3-4.51 2.16-8.74.23-13.17-.69-2.72-.56-5.53-.84-8.16-1.37-5.44-1.09-10.73-2.27-15.77-3.36a14.41 14.41 0 0 0-2.39.8c11.12 2.35 22 4.89 33 7.37zm109.58 1v.19c0-1.62-.72-4.19-.88-6.29-.81.94-2.39.31-3.94.1-6.35-.86-12.23-1.62-18.18-2.55-1-.17-2-.54-3-.59a19.85 19.85 0 0 0-3.92.59c7.42 1.16 15 2.56 22.11 3.93a40.1 40.1 0 0 1 7.17 1.57 13.87 13.87 0 0 0 .59 3.04zM63 58.21c.3 2-.13 4.78.1 6.39.7-.1.49-1 .49-1.67 0-1.65-.1-3.23-.09-4.72 0-.05 0-.11-.1-.09s-.2.14-.4.09zm-1.47.5c0 1.32.08 3 .1 4.32 0 .68-.19 1.56.39 1.87.24-1.53 0-4.28.1-6.29-.31-.08-.3.17-.6.1zm50.71.29c.31 1.16.13 2.82.79 3.63-.18-1.14-.22-2.78-.3-3.73.01.21-.36.1-.5.1zm-52.38.29c.14 1.32.29 3.3.39 4.72 0 .3-.21 1.43.3 1.28a22.15 22.15 0 0 0-.1-6.19c-.3-.03-.31.22-.6.19zm-1.47.5c.32 1.87.12 4.26.49 6.09.75-.13.43-.91.39-1.57-.08-1.43-.12-3.56-.29-4.62 0-.06 0-.12-.1-.1s-.33.14-.5.2zm-1.08.39c0 .11-.16.11-.3.09a41.69 41.69 0 0 0 .3 6.1c.08-.14.31-.14.48-.2-.12-1.66.13-4.52-.49-5.99zM2.85 64.9c0-.51-.39-1.94-.49-3.15 0-.53.23-1.23-.3-1.48-.66 1.56.2 3.42.79 4.63zm.39-3.9c.19 1.75.27 3.6 1.08 4.72-.14-1.15-.46-2.53-.58-3.73-.05-.41.25-1.09-.3-1.28h-.2zm52 0c.14 2 .32 3.87.39 5.9 1-.2.55-1.87.49-3a27.7 27.7 0 0 0-.09-3c-.37-.16-.49.1-.8.1zM5.6 66.07c0-1.47-.45-3.35-.59-5-.19 0-.21-.11-.39-.1a14.25 14.25 0 0 0 .98 5.1zm.4-4.52c.1.84.25 1.9.4 2.86s0 2.12 1 2.25C7 65 7 63 6.58 61.36a.88.88 0 0 1-.59-.1zm47.87 0c.11 1.59 0 4.3.49 5.8.72-.37.24-1.68.19-2.65 0-1.17-.07-2.46-.19-3.24 0-.08-.08-.12-.2-.1s-.23.11-.3.19zM7.66 62c.06.79.28 1.74.4 2.65s-.12 2.13.69 2.46a9 9 0 0 0-.3-2.75c-.13-.93 0-2.06-.59-2.66h-.2zm1.48.29c.09.88.24 1.87.39 2.85s0 2.13.79 2.46c-.1-1.64-.49-3.83-.79-5.6H9a.5.5 0 0 0 .14.24zm43.93 3.24a27.33 27.33 0 0 0-.2-3.43c-.08-.29-.24.12-.49 0a27.12 27.12 0 0 0 .49 5.79c.68-.29.24-1.48.2-2.41zM11 65.39c.15 1 0 2.43 1 2.75-.33-1.87-.49-3.91-.78-5.8-.32 0-.36-.18-.69-.1.16.91.31 2.06.47 3.15zm39.8-2.76c-.23 1.88.3 3.83.19 5.9.39.07.4-.26.79-.19-.13-1.94-.22-3.91-.39-5.8-.29-.07-.28.17-.58.09zm-38.22 3.25c.13 1 0 2.62 1.08 2.75-.24-1.46-.54-3.34-.79-4.72-.07-.42.09-1.3-.59-1.28a21.77 21.77 0 0 0 .3 3.25zM14.64 69c.36 0 .48.19.79.2-.19-2.13-.55-4.11-.89-6.09a7.57 7.57 0 0 1-.88-.2c.41 1.97.65 4.09.98 6.09zm34.6-5.79a29.16 29.16 0 0 0 .39 6c.84-.24.44-1.32.39-2-.09-1.33-.15-2.89-.19-4.13-.31-.02-.29.22-.59.15zm-33.61.49c.11 1 .32 2.17.49 3.34s-.12 2.59 1.08 2.77c-.17-2.09-.55-4-.59-6.19a3.78 3.78 0 0 0-1.08-.2c.01.12-.02.28.1.3zm31.93.19a50 50 0 0 0 .59 6c.74-.3.36-1.35.3-2.26-.08-1.27-.1-2.8-.2-3.93-.36-.05-.38.23-.69.21zM18.18 70.1c.31 0 .43.23.79.2-.25-2.15-.38-4.4-.79-6.39-.31.05-.34-.17-.69-.09.16 2.18.51 4.18.69 6.28zm1.87.6a1.6 1.6 0 0 1 .69.19c-.22-2.24-.47-4.45-.79-6.58a1.46 1.46 0 0 0-.69-.1c.2 2.22.43 4.41.79 6.49zm25.75-6.1c.28 1.92.43 4 .59 6 .27 0 .41-.18.68-.2 0-1.78-.32-4.06-.39-6.09-.39 0-.57.21-.88.29zm-24.87.2c.28 1.53.45 3.59.69 5.21.07.49-.13 1.36.69 1.27-.14-2-.56-4.55-.88-6.68-.28.08-.26-.13-.5-.09zm1.58.39c.16 1.66.46 3.63.68 5.11.07.44-.1 1.38.59 1.38a22.45 22.45 0 0 0-1-6.78h-.39c.03.1 0 .28.12.29zm21.32.1q.36 3 .59 6.19c.41-.14.93-.18 1.08-.59-.27-2-.18-4.27-.69-6-.24.22-.69.22-.98.4zM24 65.48c.21 1 .43 2.29.59 3.54s-.1 3 1 3.15c-.27-2.26-.52-4.53-.78-6.78-.23-.1-.6-.06-.79-.2zm2.36 5.8c.07.54.06 1.36.78 1.28-.1-2.35-.43-4.48-.58-6.78a2.17 2.17 0 0 0-.89-.19c.33 1.6.43 3.97.67 5.69zm16.51-5.69a5.8 5.8 0 0 1-.89.29c.08 2.25.36 4.3.49 6.49.41-.09.68-.31 1.09-.4a58.79 58.79 0 0 0-.71-6.38zm-15.43.58c.26 1.54.43 3.73.59 5.31 0 .52-.15 1.5.69 1.37a59 59 0 0 0-.6-6.78 3.57 3.57 0 0 1-.68-.19zm35.08.59c-2.38 6.77-4.43 13.87-6.21 21.24 1.42.36 1.44-1.33 1.67-2.06 2.13-6.69 4.27-13.39 6.49-19.66 0 0 .11-.08 0-.1a19.64 19.64 0 0 1-1.97.58zm-33.41-.19c.17 1.58.42 3.59.59 5.21 0 .42-.22 1.48.59 1.37a28.69 28.69 0 0 0-.89-6.88h-.29zm11.2-.1c.32 2.1.41 4.44.69 6.59 1-.17.45-1.42.39-2.17-.1-1.46-.21-3.28-.29-4.62-.37-.03-.49.18-.81.2zm-9.73.39c.13 1 .35 2.29.5 3.54.12 1-.24 3 1 3-.43-2.29-.17-5.28-1.28-6.88h-.2zM33 73.64h.79c-.4-2.18-.67-4.5-1.08-6.68-.18 0-.58-.26-.69 0a57.92 57.92 0 0 1 .98 6.68zm6-6.48c.28 2.18.12 4.8.89 6.48.26-1.87-.39-4.51-.39-6.78h-.3c.01.14-.2.08-.2.3zm-5.2.29c.22 1.58.43 3.37.68 4.92.08.44.07 1.23.6 1.37a44.4 44.4 0 0 0-.69-6.48c-.31 0-.35-.18-.69-.1.02.11-.01.27.11.29zm4.52 3.25a11.32 11.32 0 0 0-.4-3.35c-.45.96.18 2.43.41 3.35zm21.42-3.15a122.35 122.35 0 0 0-5.3 19.65 183.33 183.33 0 0 1 6.1-19.85 1.54 1.54 0 0 1-.79.2zm-24.27.19c.11 1 .17 2.08.29 3.15a7.12 7.12 0 0 0 .59 2.85h.49a25.11 25.11 0 0 0-1.18-6.29h-.29c.02.12-.01.28.11.29zm9.92 5.32c3.37.63 6.51 1.48 10 2 .72-2.24 1.69-4.74 2.27-6.78q-6.31 2.15-12.26 4.78zM43 74c-.76-.2-1.87 1.06-2.55 1.08 4.61 1.15 9.42 2.11 13.95 3.34.07-.59.33-1 .4-1.57-3.71-.6-8.42-1.94-11.8-2.85zm-16.9.29a16.61 16.61 0 0 0-1.27 4.81 3.66 3.66 0 0 0 1.76.4 22.43 22.43 0 0 1 1.67-4.72c-.68-.13-1.46-.22-2.12-.45z" fill="#25707f" fill-rule="evenodd" data-color="1"/>
    </g>
</svg>
