<?xml version="1.0" encoding="UTF-8"?>
<svg data-bbox="-0.001 -0.004 1500.106 877.045" viewBox="0 0 1500.1 877.07" xmlns="http://www.w3.org/2000/svg" data-type="color">
    <g>
        <path d="M717.14 377.49c-15.81-35.73-8.65-64.12 23.79-91.31-24.69-38.44-41.68-82.25-78.52-112.43-22.88-18.75-58.85-20.19-83.31-3.75-18.73 12.57-18.63 40.68-5 54.62 9.33 9.5 21.32 16.8 33.05 23.43 13.21 7.46 24.29 4.87 30.34-4.85 7-11.21 4.19-23.67-8.34-32.6-7.92-5.63-16.76-10-26.17-15.47 1.07-1 3-4.5 4.92-4.47 16.22.3 29.88 7 39.82 19.63 8.21 10.48 7.35 25.14-.63 37.49-6.92 10.72-18.77 16.23-31.63 12.73-20.92-5.68-39.09-16.41-52.12-34.18-20.21-27.56-9-59.24 23.21-71.31 38.4-14.37 72.88-5.82 102.14 24a277.08 277.08 0 0 1 53.33 77.53c3.23 6.91 8.57 12.84 15.09 22.37-1.28-13.45-1.86-23.72-3.29-33.86-4.48-31.71-6.43-63.43-.27-95.12 7.37-37.85 31-61.22 67.13-71.93 36.76-10.92 66.84 17.1 59.51 54.89-3.8 19.58-9.46 38.28-26.11 51.83-18.08 14.7-47.85.94-49.79-24.35-1-13.26 8.92-39.29 27.2-42.39-1.23 3.37-2 5.72-2.93 8.06-3.75 9.91-8.55 19.58-11 29.81-2.31 9.76 2.34 17.73 11.42 22.75s16.26 1.4 23.1-4.24c13.12-10.8 23-48.15 17.26-63.9-10-27.56-35-27.66-53.48-20.94-35.75 13-49 41.37-49.29 76.45-.22 26.18 2.86 52.39 4.69 78.58.7 9.88 2 19.72 3.09 30.09 39.1.95 63.21 21.61 73.43 60.72 10.66-10.45 20.47-20.37 30.62-29.93 11.72-11 22.73-23.19 35.79-32.35 51.55-36.18 102.88-72.82 156.08-106.46 40.24-25.43 82.53-47.89 125.1-69.31 77.44-39 157.19-72.58 241.93-92.61 13.7-3.2 27.98-4.48 41.99-4.71 18.57-.29 26.64 14.08 16.2 29.54-7.32 10.84-17.13 20.21-26.79 29.2-14.84 13.82-31.1 26.17-45.51 40.4-4.88 4.83-8.82 13.71-8.28 20.34 1.75 21.23-5.58 38.19-19.58 53.15-1.3 1.39-2.62 2.76-4 4.05-11.65 10.8-18.62 21-14.17 39.84 6.34 26.76-7.89 49.4-25.7 69.06q-1.51 1.68-2.89 3.48c-.21.26-.14.74-.34 2 6.67 1.82 13.7 3.06 20.22 5.62 49.35 19.29 66.47 61.45 45.65 112.5a136.05 136.05 0 0 1-49.56 61.48c-19.38 13.43-38.92 26.64-58.45 39.86-23.43 15.85-36.06 39.09-44.24 65.18-5.08 16.17-9.24 32.62-14 48.9-8.14 28-23.49 51.45-46.75 69-25 18.93-54.18 22-84.3 19.2-44-4.12-77.35-26.31-104.39-60.34a298.71 298.71 0 0 0-70.17-63.72c-5.93-3.91-12.7-6.55-21.07-10.77 4.1 14.58 8 26.7 10.87 39 7.52 31.82 12.48 63.83 5 96.48-3.45 15.05-10.46 27-26.11 32.19-16.55 5.53-29.63-.16-41.92-11.14-31.77-28.36-47.46-66.11-62.09-104.57-.53-1.4-.68-3-1.19-4.38-.72-2-1.6-4-4-9.87-5.94 14.68-12.64 26.06-15.07 38.29-5.84 29.44-11.13 59.14-14 89-5 52.12-29.52 91.75-73.77 118.33-40.29 24.27-81.16 18.7-119.89-4.6-16.51-10-31.53-22.55-46.53-34.79-29.4-24-62.5-34-100.39-30.7-22.83 2-46 3.51-68.79 1.81-34.39-2.56-63.88-16.92-86.62-44-20.65-24.57-20.75-51.24-8.55-78.81 4.83-10.93 12.44-20.63 19.06-31.36-7.79-2.26-17-4.3-25.75-7.61-22-8.32-38.57-22.33-46.59-45.47-1.26-3.64-6.59-7.11-10.72-8.28-13-3.7-27.06-4.43-39.15-9.82-11-4.91-22.26-12.73-29.29-22.29-8.52-11.58-18.62-16.69-31.67-17.79-22.59-1.91-45.27-2.82-67.83-5A73.57 73.57 0 0 1 11.93 516c-15.06-7.22-15.78-21.35-2.63-31.75 23.58-18.65 51.29-28.76 79.21-38.41 149.57-51.66 304.49-72.1 461.75-77.63 27.89-1 55.92-.84 83.77.73 27.62 1.55 55.1 5.56 83.11 8.55Zm146.17 323.83-2-.66 1.93 1.89c6.9 6.54 13.2 13.92 20.85 19.4 10.59 7.58 25.38 5 30.91-6.37 4.93-10.12 6.53-21.87 9.6-32.91l-3.37-1.89c-16.47 15.42-36.34 20.56-57.92 20.54Zm-63.26-402h3.89l-3.49-2.65c-26-13.26-63.71 1.64-70.13 27.74 9.09-9.33 19.64-11.93 29.61-7 8.91 4.4 12.82 11.8 11.66 21.62-1.22 10.35-7.48 17.25-17.41 18.5-5.93.75-13.41-.71-18.2-4s-6.79-10.13-10-15.42c-2.8 27 11.65 48.17 38.29 56.16 21.58 6.48 49.08-6.2 60.76-26.72 10.72-18.83 6.24-54.54-15.36-65.15 2.19 3.21 3.76 5.37 5.19 7.62 5.35 8.36 4.42 19.76-2.11 26.42-7.15 7.3-19.06 8.81-27.45 3.54-9.87-6.19-12.23-15.17-8.92-25.68 3.55-11.45 11.93-16.1 23.67-15Zm65.42 175.37c-21.9 23.57-48 34.68-82 25.44 6.64 19.79 12.71 37.68 18.64 55.62 8.43 25.46 27.93 36.31 54.06 29.94 19.81-4.83 37.16-29.6 31.95-46.51-6.62-21.5-13.91-42.79-20.93-64.17l-1.57-2.45c-.02.69-.08 1.44-.15 2.11Zm140.43-35.39 2.5-1.22-2.19-.61c-44.78-6.51-89.58-3.35-133.7-1.16 13.83 40.27 27.42 79.82 41 119.43l17.76.16c-2.15-15.47 2.82-24.4 17-29.49 12.2-4.39 24.63-8.11 37.31-12.24-3-1.68-6.16-3.44-9.31-5.28-22.59-13.29-24.07-39.68-2.12-54.61 9.55-6.53 21.11-10.09 31.75-15ZM450.51 605.85l4.72-2.17-.54-1.35-3.95 1.13c-8.74.21-17.48.71-26.21.59-40.36-.57-79.77-5.34-113.5-30.26-8.76-6.47-16.38-14.64-23.88-22.63-16.92-18-38.91-24.37-62.17-28.58-21.43-3.89-38.5-13.05-45.6-36.16-7.28-23.68-36.49-37.66-60.1-30-18.12 5.91-36.4 11.55-54 18.69C47.82 482.19 31.11 491 14.09 499c.29 1.43.59 2.86.88 4.29 6.91 1.6 13.75 4.12 20.73 4.61 19.91 1.42 39.9 1.6 59.8 3 17.74 1.28 36.87 2.9 47.55 18.85 10.46 15.61 24 22.89 41.4 25.85 8.74 1.49 17.3 4.08 26 6 9.49 2.07 15.43 7 17.76 17.09 3.16 13.69 11.4 25.34 24.3 30.21 17.4 6.57 35.7 12.86 54 14.46 48.99 4.3 96.83-4.81 144-17.51Zm581.92-183.72-9.65.72.24 2.42 8.7-.43 26.9 1.72c.35 1.17.69 2.35 1 3.52-3 2-5.68 4.93-9 6-19.43 6.22-39.09 11.7-58.48 18.05-14.68 4.8-26.59 18.22-25.18 29.56 1.62 12.93 12.17 18.43 23.26 22.4 8.89 3.19 17.89 6.09 28.86 9.79-2.77 2.36-4.39 4.73-6.52 5.35-5.76 1.68-11.75 2.58-17.62 3.86-16.6 3.64-33.74 4.64-48.66 14.94-9.3 6.42-6.89 11.53-1.25 17.46 2.19 2.31 5.76 3.43 8.84 4.76 13.3 5.74 27.09 10.53 39.91 17.2 25.66 13.34 50.31 28.66 76.27 41.36 34.8 17 60 11.41 86.94-16.32 26.54-27.28 38.69-61.58 47.18-97.38 7.61-32.11 21.63-59.23 50.84-76.89 18.46-11.16 36.73-22.66 54.65-34.67 15.09-10.11 17.25-25.64 6.44-39.42-8.51-10.85-34.45-15.81-46.25-9.2-7.68 4.3-15.62 8.19-23.64 11.82-16.5 7.49-33.21 14.71-50.21 22.25 35.8 10.68 31.51 29.11 10.3 48.35-12.11 11-27.18 19.58-42.25 26.22-23 10.14-47.34 14.86-72.51 7.21-19.34-5.87-25.37-22.67-13.82-39.26 3-4.33 6.81-8.12 10.9-12.93Zm-275 244.39c-9.66 20.29-19.1 40.68-29 60.83-10.13 20.57-20.91 40.91-41.35 53.36-24.39 14.84-50.22 11.57-75.68 3.76-34.06-10.45-62.89-30.47-90-52.76-22.26-18.27-47.53-25.65-75.8-24.13-21.74 1.17-43.47 3.88-65.19 3.64-23.19-.22-38.16-12.22-37.91-36.38.11-11.38 7.57-22.69 11.55-33.59-5.45.09-13.52 1.08-21.39.18-16.2-1.84-27 6.43-36.22 17.87-21.33 26.44-22.52 58.32-1.88 82.11 13.34 15.39 31.36 24 51 29.32 25.12 6.85 50.52 5.06 75.68 1.9 46.15-5.8 86.38 6.42 121.91 36a370.92 370.92 0 0 0 34.78 26c25.72 16.78 53.36 27.64 84.84 21 47.43-10 85.3-57.79 88.82-109.53 1.81-26.48 5.71-52.81 8.66-79.22l3-3.84-3.85-.92c-.69 1.49-1.34 2.94-1.98 4.4Zm222.31-78.66-2.87-1.1 2.65 2.69c17.11 17.51 35.52 33.95 51 52.79 22.9 27.85 49.72 47.76 86.2 52.17 42.13 5.09 77.67-7.07 99-45.23 11.48-20.5 19.69-43.44 25.77-66.24 13.11-49.14 39.16-86.49 85.33-110.12 30.88-15.81 56.32-38.32 70.35-71.68 21.44-51-9-80.82-51.62-91-7-1.67-16.15-1.72-22.18 1.49-9.93 5.29-18.13 13.85-27.44 21.33 3.8 1.52 7.52 3.12 11.32 4.51 30.19 11 33.64 49.32 9.66 64.78-20.06 12.94-39.23 27.24-59.3 40.17-23.23 15-36.1 36.47-42.89 62.6-7.71 29.66-17.51 58.58-34.17 84.64-12.67 19.84-27.72 37.35-50.08 46.83-27.09 11.48-52 2.21-76-9.54-25.23-12.31-49.84-25.95-74.74-39.09Zm362.82-531.3-3.29-3.56c-51.57 23.78-103.82 46.17-154.49 71.73-45.64 23-90.48 47.94-134 74.82C990.22 237 930.19 275.79 880 327.27c-17 17.44-36.32 33.47-43.9 55.41l32.11 36.38c3.53-.3 10.36-.78 17.16-1.48 49.48-5.08 99.3-8 148.35-15.8 77.74-12.31 149-41.27 208.11-95 20.09-18.25 36.93-39.56 42.92-67.23 3.17-14.62 3.14-30.7 9.53-43.67 9.18-18.65 22.54-35.32 34.82-52.33 6.43-8.91 10.69-18.44 6.93-28.65-7.61-20.61-6.7-39.9 6.52-58.34ZM755.1 409.13c-6-2.67-13-7.4-20.7-8.91-25.76-5.05-51.61-10.41-77.68-13-64.26-6.38-128.56-2.91-192.61 3.47-101.88 10.15-203.18 24.13-301.86 52.78-2.51.73-4.88 2-9.39 3.78 16.64 6.77 31.08 14.36 35 29.5 6.27 24.4 22.48 33.08 44.87 37.65 23.65 4.82 45.2 13.9 61.84 33.55 16 18.92 37.51 30.16 62 36.25 44.93 11.19 89.35 8.7 134-1.45 46.21-10.5 91.36-23.35 132.23-48.43 17-10.45 35.08-19.24 52.25-29.49 26.46-15.79 52.55-32.18 75.33-46.18 1.76-18.65 3.2-33.73 4.72-49.52ZM464.24 622.32c-24.84 5-49.34 10.68-74.12 14.65-16.41 2.63-27.14 11.71-34.54 25.25-9.95 18.19 2.49 39 23.29 38.77a325.07 325.07 0 0 0 45.42-3.12c42.07-6.34 78.24 3.21 110.62 32.36 28.17 25.35 60.7 44.67 99.75 49.44 18.85 2.31 37.93.93 51.91-12.13 11.1-10.35 20-24.17 26.62-38 17.3-36.19 30.37-74.42 54.6-107.19 3-4.06 2.91-12.25 1-17.33-.91-2.47-9.79-4-14.15-2.8-12.65 3.58-24.82 8.8-37.19 13.35-10 3.67-18.45 13-30.79 9.61 6.78-9.64 13.57-17.86 18.69-27S716.82 578 709.53 568c-7.52-10.33-19.83-11.63-32.14-9.49a36.37 36.37 0 0 0-5.55 1.12c-17.07 6-34.05 12.22-51.19 18-5.42 1.82-11.25 2.43-16.89 3.6-.68-1.55-1.36-3.09-2-4.64l34.59-27.74-66.53 32.66c2.86.86 4.23 1.37 5.63 1.69 30.27 6.91 36.92 26.46 15.08 48.69a113.64 113.64 0 0 1-34.59 23.44c-24.13 10.65-50 17-76.43 11.46-22.34-4.66-37.34-15.94-17.22-42.34a26.38 26.38 0 0 1 1.95-2.13Zm1023.3-605.07c-3.78-.29-5.69-.72-7.54-.54-39.14 3.9-76.31 15.8-112.81 29.46-17.42 6.52-28.76 37.54-22.74 55.9 6.51 19.88 3.11 37.23-11.43 52.79-18.09 19.35-35.39 39.39-37 67.88-2.42 44.54-27.28 76.6-59.06 104.39-13.6 11.89-28.44 22.35-43.66 34.2a445.29 445.29 0 0 0 127.7-69.62c12.69-9.9 23.2-23.28 32.57-36.57 9.78-13.87 14.26-30.35 7.23-47-4.52-10.74-2.71-19.28 4.35-27.5 4.46-5.2 9.32-10 13.75-15.27 10.61-12.52 22.49-24.4 20.89-43-1.07-12.37 2-23.74 11-32.56 10.9-10.65 22-21.08 33.63-31 14.73-12.59 31.46-23.07 43.12-41.56ZM648.37 553.16c.69 1 1.38 2 2.06 3 19.41-7.68 31.65-8.89 46.73-5.38 14.74 3.43 29.75 19.85 21.25 38.56-2.14 4.71-3.69 9.69-6.34 16.79 4.95-2.58 8.08-4.52 11.45-5.91 26.82-11.08 45.2-15.71 58.39 4.83l13.24-10.2c-12.75-40.49-25.41-80.74-38.73-123ZM814.55 597c10.18 26.5 18.85 50.92 29.16 74.62 2.46 5.64 9.77 10.73 16 12.91 20.9 7.39 38.46-1.31 53.55-15 6.52-5.93 10.19-14.1 7-24-2.59-8-3.52-16.47-5.9-24.53-4.89-16.56-10.25-33-15.89-51-21.31 28.82-51.47 37.26-83.92 27Zm-43.99-184c-6.35 23.4 1.28 43.87 7.24 64.31 1.22 4.17 6.72 8.61 11.17 10.05 19.87 6.42 39.26 3.94 55.09-9.83 6.88-6 15.78-17.61 14-24.05-5.27-19.56-11.89-39.69-27.68-54.28-1.8-1.66-6.8-2.24-8.75-1-15.47 10.32-32.52 14.8-51.07 14.8ZM572.1 637.18c3.16-3.22 7.8-6.48 10.36-10.94 3.73-6.48 9.33-14.69 7.82-20.54-1.28-5-11.07-9.15-17.83-11-17.19-4.75-33.76-.88-50 5.92-19.6 8.2-40.7 13.39-53.41 33-8.9 13.7-6.83 19.54 9.42 23.37 33.93 7.95 63.54-4.48 93.64-19.81Zm537.27-229.59c-7.15 6.77-12.73 10.6-16.29 15.81-4.07 6-10.23 14.67-8.4 19.47 2.16 5.66 11.5 10.7 18.47 12 23.5 4.46 45.65-2.23 67.12-11.52 16-6.91 30.29-15.7 39.08-31.57 4.46-8.07 3.67-13.19-5.8-16.8-35.14-13.4-64.93 5.19-94.18 12.61Zm-345-78.09-3.2-4.21c-6.13 0-13.44-2.15-18.11.46-6.81 3.8-8.47 11.61-3.11 18.86 4.94 6.69 13 7.7 17.94 3.06 4.2-3.9 4.49-11.95 6.5-18.17ZM805 312c-3.19-4.28-9.35-6.2-16.63-1-6.76 4.81-7.6 11.17-2.93 17.76s10.3 8.22 17.62 3.33 8.81-10.22 1.94-20.09Z" fill="#dc94c9" data-color="1"/>
        <path d="M962.7 268.26c16.09-6.66 34.52-16.15 54.06-21.83 18.63-5.4 27.67.83 37.91 19.5 8 14.58 7.81 34.13-3.35 43.58-8.07 6.81-19.08 10.85-29.41 14.12-15.82 5-32 9.43-48.36 12.1-33.08 5.39-61.38 21.71-90.38 36.76-3.62 1.88-8.21 1.91-12.35 2.8.46-4.2-.58-9.57 1.63-12.41 12.92-16.63 25.75-33.49 40.27-48.68 14.75-15.44 31.43-29.05 49.98-45.94Zm-69.61 82c1.41 1.39 1.73 1.87 1.87 1.82 1.42-.52 2.82-1.1 4.22-1.69 24.28-10.32 47.75-22.92 74.6-25.91 21.23-2.36 41.69-6.8 60.61-17.84 13-7.61 16.53-17.06 10.09-37.38-3.86-12.18-11-17.39-25-12a329.15 329.15 0 0 0-57.91 29.14c-14.29 9.14-26.22 22.1-38.74 33.84-10.24 9.7-19.83 20.05-29.74 30.06Z" fill="#dc94c9" data-color="1"/>
        <path d="M1149.54 244c-16.93 9.24-33.63 19.43-54.14 17.24-11.89-1.27-22.75-5.41-27.1-17.75-4.68-13.29 1.59-25 11-32.62 14.9-12.09 28.42-27.2 48.6-31.08 10.74-2.07 21.72-4.78 32.48-4.38 15.7.58 28.15 11 19.62 30.84-6.53 15.24-15.8 28.75-30.46 37.75Zm-47.08-39.28c-6.29 5.56-13.28 10.52-18.7 16.83-7.8 9.09-9.34 23.41 7.21 27.36 5.38 1.28 11.46 2.28 16.71 1.12 26.78-5.95 49-18.15 60-45.47 5.16-12.91 2.45-17.79-11.58-17.86-19.91-.05-37.1 7.54-53.64 18.06Z" fill="#dc94c9" data-color="1"/>
        <path d="M1223.66 119.38c16-5.71 34.45-13.55 53.66-18.49 6.68-1.72 16.86 1.72 22.47 6.39 7.86 6.52 7.87 17.28 2.77 26.28-4.79 8.46-9.81 17.49-16.91 23.82-18.3 16.31-38.25 30.25-63.93 32.72-11.93 1.15-23.08-2-29.15-11.67-6.58-10.48-3.39-22.45 4.5-31.81 7.26-8.62 15.73-16.22 26.59-27.24Zm0 14.33c-6.86 8.49-14.44 16-19.74 24.9-6.12 10.24-2 19.25 9.71 19.16a99.66 99.66 0 0 0 36.9-7.65c17-7.11 32.06-18.33 41.28-34.7 3.21-5.69 3-14.6 1.16-21.12-.63-2.19-12-3.61-17.16-1.79-17.39 6.1-34.27 13.81-52.1 21.2Z" fill="#dc94c9" data-color="1"/>
        <path d="M514.65 464.1c-2.27-10.93-6.74-22-6.29-32.77.71-17.18 15.38-23.32 29.27-28.17 27.93-9.77 57.12-10.85 85.88-7.06 29.31 3.86 58.17 11.2 87.21 17.12a9.92 9.92 0 0 1 4.95 2.51 102.82 102.82 0 0 1 6.6 8.17c-2.92 1.86-5.64 4.82-8.79 5.38-18.63 3.32-37.77 4.57-56 9.47-17.78 4.78-34.48 13.48-51.91 19.76-19.83 7.15-39.66 14.58-60 19.84-12.15 3.15-22.25-3.47-30.92-14.25Zm173.76-44.2.27-3c-18.24-2.68-36.42-6-54.74-7.9-33.49-3.56-66.93-4.84-99.36 7.24-13.63 5.07-17.69 10.74-15.45 22.59 3.23 17.1 13.33 29.13 25.39 27.73 12.33-1.44 24.92-3.84 36.45-8.27 23-8.82 45-20.08 68-28.82 12.51-4.82 26.24-6.47 39.44-9.57Z" fill="#dc94c9" data-color="1"/>
        <path d="M225.91 446.33c35-14.22 66.92-23.85 101.22-11.36 10 3.65 18.49 9.77 19.29 21.54.84 12.29-5.71 21.83-15.91 27-30.61 15.56-62.58 18-94.81 5.35-9.72-3.83-18.56-11.46-18.33-22.52.16-7.24 5.97-14.34 8.54-20.01Zm100 29.46c3-6.14 9-12.75 8.08-18.28-.78-4.9-8.55-11-14.27-12.42-31.16-7.92-60.87-2.47-88.39 13.67-7.19 4.22-5.28 11.18 1.47 17.76 14.45 14.02 71.2 13.15 93.2-.73Z" fill="#dc94c9" data-color="1"/>
        <path d="M377.23 429.17c29.37-16.74 59.4-18.31 89.93-10.9 10.58 2.57 18.86 10.17 18.67 23-.22 14.36-7.65 25.46-19.8 31-27.2 12.31-55.42 17.48-84.15 3.8-9.2-4.38-19.95-7.42-20.95-19.92-1.07-13.4 9.16-20.15 16.3-26.98ZM462.48 461c7.79-4.93 14.77-12.35 12.12-22.09-2.83-10.42-12.87-13.45-23.25-12.92-14 .7-28.41-.14-41.78 3.16-11.22 2.77-21.63 9.88-31.62 16.27-8.83 5.65-4.57 11.65 2 16.13 25.59 17.59 54.92 14.58 82.53-.55Z" fill="#dc94c9" data-color="1"/>
        <path d="M640.51 734.86c-15 4.8-29.64 12.4-44.91 13.81-31.77 3-50.63-27-36.56-55.68 12.27-25 34.41-39.45 57.66-52.18 14-7.68 28.8-13.45 45.71-8.28 22.14 6.78 31.6 26.17 22.65 47.7-9.31 22.4-26.33 37.93-45.67 51.45Zm-4.25-9.39c11.83-13.83 25.11-27.76 36.4-43.15 6.89-9.4 9.9-21.28.87-31.9s-21.14-13.74-34-9.35c-11 3.77-22.07 8.49-31.71 14.89-16 10.65-32.88 21.25-40.67 40.24-4.25 10.37-6.8 21.06 1.6 31.3 7.71 9.4 17.51 14.17 29.05 11.34 12.33-3.02 24.09-8.26 38.46-13.37Z" fill="#dc94c9" data-color="1"/>
        <path d="M1054.34 497.41c20.4-12.61 43.34-12.38 66-12.48 18.24-.09 35.13 4.15 50.33 15.66 19.56 14.81 17.77 44-2.69 59.67-17.39 13.35-38 14.67-58.45 13.72-22.14-1-43.92-4.55-62.56-19-20.37-15.74-14.32-42.2 2.58-54.33 1.59-1.09 3.2-2.15 4.79-3.24Zm-6.47 44.67c4.78 3.51 9.12 8 14.41 10.36 31.25 13.94 63.64 17 95.18 2.9 18.26-8.18 26.46-34.62 5.34-49.43-25.41-17.82-53.49-13.93-81.41-10a58.61 58.61 0 0 0-20.21 7.33c-13.88 7.97-23.64 25.18-13.31 38.84Z" fill="#dc94c9" data-color="1"/>
        <path d="M799.13 385.77c-12.47 8.42-27 4.79-33.93-8.45-5.09-9.78-1.61-15.46 9.14-17.61a63.06 63.06 0 0 0 19.59-7.83c5.71-3.43 8.75-2.56 12.09 2.74a23 23 0 0 1-6.89 31.15Zm-28-15.7c2.86 9.83 11.59 15 20.25 11.63S803 368.87 799 360.14Z" fill="#dc94c9" data-color="1"/>
    </g>
</svg>
