<?xml version="1.0" encoding="UTF-8"?>
<svg data-bbox="-0.003 0.003 1259.129 1566.374" viewBox="0 0 1259.12 1566.45" xmlns="http://www.w3.org/2000/svg" data-type="color">
    <g>
        <path d="M1252.27 533.62C1225.6 405.74 1146.92 322.13 1021.83 284c-32.09-9.78-65.68-14.64-98.44-21.74 14-28.46 23.73-54.6 22.54-97.89-1.68-61.22-28.59-106.24-82.63-135.26-60-32.24-124.6-33.37-189.22-24C586.17 17.83 507.28 54 437.58 109c-34.7 27.35-67.53 57.08-101.47 86-.64-1.93-1.91-5.17-2.77-8.52-8.42-32.74-16.24-65.65-25.32-98.2-6.95-24.92-19.13-46.82-42.37-60.72-18.78-11.23-37.91-6.37-44.34 12.16a74 74 0 0 0-4 24.28c.21 31.11 11.54 58.77 30.82 82.46 21 25.79 43.85 50.06 65.35 74.37q-42.48 58.58-85.35 117.8c-9.51-10.95-19.24-23.21-30.09-34.38-11.25-11.58-23.9-21.8-35.37-33.19-13.3-13.21-28.18-25.59-38.44-41-16.8-25.18-29.18-53.28-45.77-78.62C65.61 131.87 51 112.66 33.81 96.88c-15-13.78-32.06-3-33.6 17.78-2.23 30.15 13.32 51.68 33.86 70 35.75 31.95 80.18 52.95 111.87 90.49 17.77 21.06 39 39.23 59.25 58.15 16.4 15.34 18.45 31.46 5.36 49.69-1.43 2-2.06 4.61-2.9 7a631.18 631.18 0 0 0-32.22 144.17c-5 48.21-1 95.2 9.23 142.09 3.12 14.35 8.32 28.59 9 43 .68 14.8-3.34 29.78-4.76 44.74-3.49 36.71-5.63 73.57-10.17 110.14-8.05 64.74.69 125.74 35.67 181.85 2.7 4.33 7.1 9.31 6.69 13.6-3.38 34.88 5.88 68 15.21 100.56 37.09 129.44 101.71 242.66 206.49 329.21 45.65 37.72 99.06 62.51 159.78 66.68 23.18 1.6 46.18-1.69 58.41-23.72 11.24-20.24 7.56-42-3.85-62.28-14.26-25.37-39.18-35.63-63.82-46.59-26.25-11.67-53.76-21.34-78.15-36.12-25.62-15.53-40.89-39.81-37.32-72.09 1.17-10.56 5.26-19.61 16.82-21.46 5.26-.84 12.9-.66 16.22 2.48 26.57 25.12 51.48 52 78.61 76.53 47 42.43 97.52 80.43 156.12 105.82C786 1506.16 828.16 1516 872 1505c29.23-7.31 46.4-28.2 50.76-58 3.32-22.7-7-41-24.77-53.86-23.47-17-48.5-31.74-72.27-48.3-25.09-17.48-50.85-34.41-73.77-54.49-18.55-16.25-28.41-38.77-19.24-64.29 8-22.33 27.57-32.55 48.25-40.73 23.81-9.41 48.55-17 71.16-28.78 47.28-24.55 59.38-65.89 35.46-113.81-15.23-30.49-38.55-54.08-65.19-74.61-10.56-8.15-21.75-15.49-31.48-22.37 30.55-3.92 61.15-6.72 91.34-11.93 103.43-17.82 198.88-54.76 277.68-126 81.42-73.63 114.84-166.31 92.34-274.21ZM93.82 215.5c-26.51-15.44-51.77-32.86-68-59.42-6.9-11.29-9.3-25.55-12.44-38.77-.82-3.44 2.65-10.94 5.18-11.45C22.69 105 29.49 107 32 110.25c14.74 19.12 29.4 38.42 42.41 58.75 8.86 13.83 15 29.42 22.33 44.22v3.59ZM860.93 48.25c47.91 27.18 73.67 79.54 62.86 133-5.77 28.5-16.53 56-24.78 83.06h-34.38c6.21-24.21 13.83-48.13 18.28-72.63 7.21-39.68-7.49-73.68-33.33-102.63-30.42-34.06-71.39-48.64-115-56.28-21.92-3.84-44.27-5.16-69.91-8C734.76 13.54 800 13.7 860.93 48.25ZM351 214.83c54.4-57.35 114.16-108 184.81-144.49 40-20.65 83.59-25.16 128-25.66 43.81-.49 86.56 3.26 127.13 21.91 70.48 32.39 95.6 95.58 65.56 166.68a52 52 0 0 0-2.4 5.61c-6.17 21-19.74 30.28-42 32.61-70.34 7.36-137.75 26.44-202.38 55.34-4.18 1.87-11 3.54-14 1.49-28.48-19.58-58.3-12.07-88.17-5.6-2 .43-3.91 1.47-5.93 1.75-23.11 3.25-27.32-1.71-20.64-24.43C486 282.42 494.5 265.1 496 247.19c3.09-37.37-19.08-55.59-56.71-52.56-34.18 2.75-63.11 18.08-95 32.23 2.17-4.05 3.62-8.8 6.71-12.03Zm382.05 357.29c10.5 5.69 21.89 10 31.71 16.65 21.42 14.5 22.47 33.35 1.47 48.8-17.35 12.77-36.94 22.49-55.47 33.68-26 15.73-51.49 32.5-58.45 64.83-3.47 16.1-2.6 33.1-5.7 49.31-6.37 33.33-33.53 57.17-71.71 63.62-54.71 9.26-107.47 1.06-157.73-21.4-22.1-9.88-42.42-23.68-64.12-34.56-11.65-5.85-13-14.37-13.91-26-2-24.48-6.54-48.76-10.46-76 23.73-15.46 39.24-39.61 39.37-72.77a24.43 24.43 0 0 1 3.95-13.15c30-43.67 60-87.42 91-130.36 5.34-7.38 15.55-11.45 23.91-16.38 45-26.6 93.22-45.59 145.14-51 29-3 59.15-1 88.17 3 23.92 3.33 31.7 23.14 20.34 44.7-7.94 15.09-18.27 28.9-27.21 43.48-20.46 33.36-14.66 54.93 19.7 73.55Zm-182.34 477.12c7.86 9.08 15.61 18.28 23.9 27 14 14.67 17.51 32 10.16 50.06-7.51 18.48-23.86 24.22-43 24.47-25.23.32-47.47-7.18-68.32-21.32-32.24-21.84-63.83-45.82-83-79.26-20.65-36-36.82-75.36-49.43-115-12.85-40.43-9.91-83.18-4.29-126.5 17.35 9.79 33.05 20 49.82 27.87 54.27 25.59 109.05 50.12 163.4 75.56 16.66 7.8 31.12 18.55 38.59 36.62 7.13 17.26 4.21 26.88-12 36-4.94 2.78-10 5.39-15 8-28.35 15.01-31.69 32.36-10.83 56.5ZM254.39 618.68c12.15-6.8 16.21-19.29 10.3-31.66-6.17-12.92-16.42-16.88-30.89-11.95l-5.94 2-3.19 1 1.72-2.3c20.26-28.19 63.49-34.76 91.27-13.88 31.66 23.81 37.48 66 13.29 96.38-31.59 39.65-87.15 36.52-111.7-7.42-9.7-17.36-12.06-37.21-4.34-57.52 2.51 6.08 4 12.22 7.31 17.2 7.98 12.08 20.25 14.83 32.17 8.15Zm-26.81-22.09c5.27-4.79 10.11-12.49 16-13.36 4-.59 9.39 8.37 14.16 13.06-.37 2.36-.73 4.71-1.1 7.06-5.38 2.38-11.58 7.64-15.93 6.4-5.23-1.48-8.83-8.52-13.13-13.16Zm134.79-14.77c-11-13-20.86-24.81-31.53-37.48 72.43-92.13 60.44-192.66 20.77-299 30.74-11.52 59.42-24.76 89.5-32.77 25.94-6.91 55.12 7.6 43 44.86-4.9 15.09-9.79 30.19-14.32 45.39-6.78 22.75 1.71 34.6 25.34 34.2 14-.23 27.87-3 41.84-3.51a183.15 183.15 0 0 1 44.47 3.67c-99.22 59.59-169.39 143.42-219.07 244.64ZM238.79 91c-3.59-14-3.7-29.42-2.39-43.91 1.17-12.84 10.65-16.86 20.78-7.79 12.39 11.1 25.87 24.38 31.05 39.42 11.35 32.91 17.84 67.51 26.14 101.46 1.71 7 2.65 14.21 3.95 21.32L321 208l-1.69 1.14-3.71-4.77c-30.15-34.76-64.81-66.75-76.81-113.37Zm11.45 256.26c25.81-32.78 52.81-64.42 88.55-87.79 34.67 73.3 38.48 146.16-1.72 218.63-7.3 13.16-16.52 25.35-22.95 38.89-7.93 16.72-19 18.23-34.55 9.95 1-40.34 3.36-80-12.1-117.65-5.27-12.84-10.33-26.15-18.07-37.47-6.61-9.68-5.2-16.92.84-24.59Zm-15.68 30.68c16 25.17 21.94 52.31 23 80.22.78 21.23-1.22 42.63-3.18 63.84-.49 5.21-4.51 12.53-8.89 14.54-27.45 12.6-44.29 33.29-51.6 62.28-.44 1.74-2.2 3.14-4.89 6.8 1.17-80.12 13.55-155.09 45.56-227.71Zm-41.7 265.82c-.12-.41-.45-.92-.31-1.22a12 12 0 0 1 1.27-1.94c.28.85.55 1.7.83 2.55Zm3.53 5.55 13.43 22-11.08 17.64c-1.7-14.33-3.14-26.5-4.59-38.68Zm2.85 313.23c32.58 11 61.43 6.19 86.34-17-16.38 2.42-32.74 5-49.16 7.12a34.09 34.09 0 0 1-12.34-1.21c-29-7.32-30.31-7.47-28.64-37 2.52-44.53 7.14-88.93 11.13-136.41 28.59 16 54.49 21.09 81.61 11.45l.48-4.75c-4.72-.5-9.64-.33-14.14-1.61-16.64-4.69-33.44-9.07-49.6-15.11-12.15-4.54-17.68-13.58-14.34-27.82 4.07-17.35 6.28-35.14 9.86-56 24.92 17.11 48.82 22.86 74.81 20.81 3.11-.24 8.54 4.24 9.62 7.59 3.94 12.21 9.06 24.85 9.1 37.35.14 43.31-2.06 86.63-2.63 130-.54 40.16 10.43 77.43 27.2 113.91 12.45 27.08 22 55.77 30.08 84.51 8.9 31.51-18.82 57.91-49.77 48-15.36-4.92-29.46-13.75-42.78-23.82 12.84-2.25 26-3.5 38.43-7 12.31-3.49 24.6-8.43 31-19.36-18.65 4-36.65 10.16-55 11.25-20.68 1.23-38.79-5.81-51.08-25.67-18.81-30.72-34.98-61.89-40.18-99.26Zm386.13 568.55c-2 11.53-10.54 16.35-23.1 12-52.88-18.22-100.48-45.65-137.61-87.48-80.23-90.39-141.06-192.06-171.2-310.29-3.72-14.59-5.28-29.74-7.79-44.64 15.85 12.16 30.69 26 47.82 36 32.39 18.83 58.8 13.79 84.62-12.55l75.76 116.21c-65.11 24.61-64.28 104.26-24.6 155.88 24.19 31.48 57.08 50 90.37 69.16 21.18 12.22 40.66 27.74 59.48 43.5 5 4.19 7.47 15.12 6.25 22.18Zm-122.26-161.2c17.41 38.05 50.61 58.07 87.78 72.62 20.22 7.91 41.26 13.9 61 22.88 22.24 10.14 39.2 25.63 38.65 53.14-.36 18.22-11.25 29.85-29.78 30.87-8.85.5-17.74.09-28.11.09 12.45-26.29 5.86-49.14-20.65-65.86-24.5-15.45-50.41-28.68-75.78-42.76-38.88-21.56-68-51.52-82.11-94.59-12.47-38.11 5.83-89.16 48.38-97.61l26.47 32.25c-38.96 13.49-39.66 58.77-25.85 88.94Zm351.31-382c30.36 26.27 57.12 55.49 64.4 96.6 3.88 21.9-8.71 39.16-26.72 49.17-21.09 11.73-44.34 19.52-66.49 29.4-15 6.71-31.43 11.86-44.31 21.56-38.34 28.85-41.88 78.65-10.74 117 22.83 28.11 52.67 47.1 82.86 65.75 23 14.21 46.24 28 69.26 42.12 14.26 8.77 24.16 21.11 21.56 38.46-3.06 20.32-14.32 35.89-35.07 41.41-33.08 8.81-65.39 4.09-98.29-7.51 11.1-1.68 20.81-2.91 30.42-4.66 21.14-3.86 41.89-26.84 25.3-51-13.66-19.91-30.11-38.25-47.25-55.37-33.14-33.11-68.87-63.7-101-97.7-15-15.84-23.46-37-25.13-60.49-1.78-25 7-43.36 29.68-52.29 20.87-8.21 43-13.54 64.8-19 25.63-6.35 48.94-17.17 67.75-35.5 21.28-20.74 23.88-54.63 8.42-88.33-4.57-10-10-19.52-15.73-30.55 3.49.48 5.37.14 6.28.93Zm8.56 66.66c3.94 21.7-10.64 48-39.1 61.09-22.44 10.29-47.25 15.6-71.25 22.3-33.11 9.25-64.11 22.43-70.46 60.41-4.77 28.53 5.62 56.43 23.66 78 24.2 29 52.42 54.64 79 81.68 22.09 22.52 45 44.27 66.1 67.7 14.5 16.13 9.43 36.71-21.24 39-49.12 3.64-89.77-15.32-126.49-45.81C569.26 1341 489.9 1250.2 424 1147.63c-11.73-18.27-20.92-38.19-31-57.5-2-3.86-2.67-8.44-3.18-10.14 26.7 21.48 52.93 44.23 80.92 64.59 24 17.44 52.72 21.7 81.56 18.13 21.09-2.6 37.18-14.55 44.91-35.79 8.34-22.87.31-41.44-14.61-58.24-10.35-11.65-22-22.24-31.43-34.59-9.21-12.1-6.25-21.24 7.18-28.94 6.69-3.84 13.81-6.94 20.63-10.57 26.21-14 32-33.34 17.51-59.07-2.5-4.45-5.37-8.69-8.28-13.38 31.77 5.52 62.76 11.06 93.82 16.21 11.28 1.87 22.85 4.66 34 3.77 20.18-1.6 34.18 8.69 48.29 20.28 29.68 24.34 51.68 53.5 58.68 92.16Zm-46.84-159c-39.72 8.55-82.16 12.51-122.38 8.57-46.69-4.58-92.31-20.17-138.39-31L516 868c12 0 24 .82 35.89-.23a198.55 198.55 0 0 0 36.45-6.29c46.77-13.26 72.8-46.62 71.19-94.92-1.37-41.26 21.52-64.85 53.48-83.87 20.76-12.35 41.94-24.17 61.66-38 25.94-18.24 23.88-51.63-8.49-68.79-12.2-6.47-24.77-12.35-36.44-19.66-16.61-10.49-20.58-22.24-11.91-39.24 9.3-18.29 21.47-35.11 30.91-53.34 18.33-35.42 4.36-63-35.25-69.77a279.68 279.68 0 0 0-130.59 8.46c-23.91 7.35-47 17.27-70.52 26l-4.6 2.81-1-1.49 4-3.5c64.37-58.49 139.73-97.2 224-115.59 50.14-10.95 102-10.63 153.78-5.46 45 4.49 88.73 12.38 130.82 28.94 80.71 31.76 132.47 89.9 148.25 174.83 14.53 78.2-6.14 149.65-60.77 208.54-89.78 96.75-203.77 150.81-330.72 178.14Zm311.1-67.92c-65.44 42.06-138.18 66-214.87 78-19 3-38 5.25-57 7.85 86.25-28.17 167.48-66.39 240.09-120.94 61.21-46 107.5-103.78 124.22-180.84 19.32-89.07-1.39-168.49-64.21-234.14-42.34-44.26-98-67-157.66-77.64-37.13-6.65-75-9-104.84-12.46 114.78-8.74 226 15.4 310.79 112.74 38.43 44.11 60.3 96.63 67.69 154.75 15.86 124.59-45.45 209.21-144.21 272.7Z" fill="#dc94c9" data-color="1"/>
        <path d="M978.2 518.78c44.57 3.75 89.23 10.06 124.1 42.83 33.79 31.75 29.22 73.16-9.51 99.34-36.64 24.76-77.27 31.47-120.76 28.63-34.09-2.24-66.47-9.09-94.52-29-11.12-7.9-21.85-18.1-29-29.61-18.75-30.43-8.64-61.16 25.72-84.07 31.29-20.85 66.88-25.71 103.97-28.12Zm4.66 15.86c-35.25-1.08-67.27 4.53-96.43 22.34-42.1 25.74-43.06 65-1.3 91.81 50.58 32.43 105.44 34.11 161.82 19.3a143.74 143.74 0 0 0 29.76-11.67c45.63-23.89 47.72-68.12 4.61-96-30.43-19.61-64.24-26.99-98.46-25.78Z" fill="#dc94c9" data-color="1"/>
        <path d="M953.53 475.76c-43.78-.73-80.09-5.43-113-23.34-15.23-8.29-29.84-18.61-30.21-39.84-.26-15.21 8.17-24.3 19-31.59 22.61-15.18 48.39-21.11 75.07-25.23 39.81-6.16 78.46-1.61 116.41 10 12.6 3.85 24.84 10.06 36 17.13 28 17.68 29.24 49.32.67 65.09-20.64 11.39-44.49 17.55-67.52 23.82-13.71 3.76-28.67 3.2-36.42 3.96Zm-2.8-14.86c16.51-1.47 33.32-1.5 49.47-4.76 21-4.24 42.31-8.75 58.17-25.68 9.84-10.51 10.41-21.15-.63-29.37-12.13-9-25.39-17.71-39.53-22.62-38.3-13.31-78.36-15.23-118.09-9.24a189.63 189.63 0 0 0-58 18.67c-26 13.46-25.51 33.19-.17 47.89 33.54 19.41 70.42 25.14 108.78 25.11Z" fill="#dc94c9" data-color="1"/>
        <path d="M837.3 839.64c-31.48 1.27-58.76-5.35-80.69-27.32-19.87-19.9-19.85-45 0-64.37 36.55-35.71 125.39-34.35 161.12 2.47 19.39 20 16.55 51.76-6.3 67.55S863.72 842 837.3 839.64Zm.26-106.64c-21-1.71-40.71 4.18-59.47 14.94-31.2 17.9-33.18 47-2.57 65 40.62 24 83.4 24.34 123.92.83 29.35-17 28.09-45.1 3.77-62.45C883.55 737.3 862 731.77 837.56 733Z" fill="#dc94c9" data-color="1"/>
        <path d="M575.47 1229.05c7.79 4 22.89 9.48 35.41 18.54 28.86 20.87 53.46 45.65 62.94 81.89 5.91 22.62-8.6 38.24-31.26 31.93-49.34-13.74-79.93-48-97.56-94.23-8-21.06 3.42-37.87 30.47-38.13ZM663 1337.52c0-2.6.41-5.29-.06-7.81-5.87-31.48-56.68-82.07-88.13-87.88-14.43-2.67-23 5.31-18 20 14.4 42.19 43.69 71.69 84.32 89 14.54 6.27 21.87.32 21.87-13.31Z" fill="#dc94c9" data-color="1"/>
        <path d="M735.23 1087.81c-37.08-3.09-69-16-90.53-48.17-18.27-27.31-7-56.1 25.41-61.17 35.09-5.48 88 14.92 106.49 54.29 13.14 28-2.46 53.5-33.54 55-2.6.17-5.22.05-7.83.05Zm-5.6-9.41c21.12.18 35.4-2.45 41.27-18.64 5.29-14.58-3.77-25.31-12.71-35.4-18.88-21.27-43-33.58-70.85-35.74-13-1-28.44-.46-36.79 14.14-7.75 13.52-1.64 25.56 6.28 35.61 19.88 25.21 46.7 38.06 72.8 40.03Z" fill="#dc94c9" data-color="1"/>
        <path d="M640.14 271.28c-20-4.23-40.71-6.32-59.78-13.09C526.23 239 513.58 184.38 554 143.62c33.18-33.46 74.79-50.36 121.73-54.68 26.14-2.4 51.72-1.21 76.52 8.06 25.47 9.52 46.5 25 51.53 52.82 5.53 30.51-10.21 54.75-32.43 73.58-31.2 26.45-79.01 46.9-131.21 47.88Zm20.74-15.61c33-2.06 71.78-15.06 104.72-43 17.06-14.47 30.68-32.52 28.74-55.47-2.11-24.89-19.75-39.69-42.65-47.9-24.72-8.86-50-10.79-76.18-7.87-46 5.14-87.13 20.29-117.34 56.78-22.67 27.4-19.79 61.74 11.21 80.92 25.55 15.8 53.1 18.08 91.5 16.54Z" fill="#dc94c9" data-color="1"/>
        <path d="M396.34 1284.94c-5.16 9.4-8.1 22.35-16 27.35-10.57 6.67-22.7.23-31.71-9.23-32.45-34-52.9-73.47-52.47-121.35.07-8 5.23-20 11.31-22.62 6.5-2.85 19 .56 25.2 5.71 30.31 25.32 47.45 59.12 57.14 96.92 1.78 7 2.72 14.13 4.05 21.19Zm-84.23-119.85c-2.53 5.24-6.69 9.91-6.77 14.64-.8 48.38 19.42 87.35 55.28 118.69 3.25 2.84 10.15 5.34 13.07 3.76 3.51-1.9 6.85-8.63 6.3-12.74-2.2-16.63-3.7-33.89-9.55-49.37-11.25-29.82-24.44-59.24-58.33-74.98Z" fill="#dc94c9" data-color="1"/>
        <path d="M283.15 648.08c-14.27-11.61-19.5-26.14-11.94-38.6 6.9-11.37 16.4-19.42 31.89-15.2s26.73 19.28 23.48 33c-4.26 18-20.18 27.39-37.72 22.19-2-.58-3.95-1.07-5.93-1.6Zm15.45-9.34c13.18 1.43 17.86-8.43 17.76-18.12-.09-9.21-5.69-17.46-17.95-17-11.8.48-18.61 5.55-18.5 17.7.09 11.89 6.09 18.18 18.69 17.42Z" fill="#dc94c9" data-color="1"/>
        <path d="M282.93 647.86c1.8 12.48-5.36 18-15.8 22.4-12.71 5.38-23.5.69-30.23-8.07-6.52-8.49-8.6-20.4-12.63-30.8l6.49-3.07c2.32 3.46 5.39 6.62 6.82 10.41 9.37 24.87 14.71 26.64 37.53 12.12 2.33-1.48 5.34-1.87 8-2.77Z" fill="#dc94c9" data-color="1"/>
    </g>
</svg>
