<?xml version="1.0" encoding="UTF-8"?>
<svg data-bbox="-0.003 0.009 1204.32 1297.552" viewBox="0 0 1204.32 1297.49" xmlns="http://www.w3.org/2000/svg" data-type="color">
    <g>
        <path d="M703.05 95.42c5.19-5.23 17.89-5.86 26.52-4.27 20.11 3.7 37.88 13.06 53.64 26.84 17.94 15.69 36.4 31.07 56.08 44.48 24.87 16.95 52.56 29.94 76.57 47.93 36.21 27.14 61.6 63.93 81.32 104.42 13.53 27.78 25.46 56.36 39.56 83.85 4 7.7 13 12.77 19.77 19.05-2.47-12.51-8.18-22.36-11.38-33-8.28-27.42-15.32-55.2-23.1-82.77-4.77-16.91-8.95-34.11-15.21-50.48-15.05-39.38-40.91-70-78.08-90.46-17.45-9.58-34.3-18.57-55.31-22.06-39.27-6.5-75.43-23.68-107.43-48.12-9.11-7-17-16.74-10.94-29.55 5.68-12 16-15.84 29.47-14.79 37.88 2.95 68.17 19.56 89.71 50.37 14.76 21.14 33.32 36.67 55.54 49.37 28.29 16.17 50.77 38.93 68.58 66.5 25 38.73 30.39 84.52 46.92 126.24 7.93 20 18.43 39.2 29.32 57.85 7 12 18.87 17.28 33.46 16.06 6.41-.53 13.14.53 19.47 2 36.84 8.33 65.17 48.44 55.45 91.28-4.88 21.51-16.68 38.24-34.88 50.51 4.57 8.31 9.25 15.66 12.82 23.51 25.17 55.3 37.07 113.79 42.07 174.05 4.18 50.34-1.45 99.56-17.77 147.09-13.49 39.31-29.07 78-44.88 116.42-8.57 20.84-19.38 40.92-37.67 55.35-23.39 18.46-47.5 21.54-64.93 3.75-5.48-5.58-9-13.06-14.38-21-16.3 18.7-31.75 37.46-48.3 55.2-57.69 61.88-118.79 119.57-202.84 143.81-32.33 9.33-65.77 10.9-95.18-10.38-7.76-5.62-12.35-4.52-19.5-.18-60.78 36.8-126.73 56.45-197.85 52.85-60.33-3.06-113.69-26.31-160-65.33-39.29-33.11-66-72.54-67.6-126.19-1.61-54.35 16-101.87 51.27-141.95 21.76-24.73 47.65-45.83 70.2-67.15-24.05-3-47.8-14.64-67.55-32.3-40.05-35.83-55.6-83-59.9-134-4.74-56.1-23.69-105.91-56.42-151.2-31.45-43.6-71.94-78.38-109.9-115.62-25-24.51-48.72-50.62-56.6-85.63C-8.6 325.37 10.92 263.5 84.32 245c60.61-15.28 122-18.56 183.87-12.1 95.56 10 185.45 40.41 272.92 78.67 48.1 21 93.49 46.76 133.27 81.5 6.36 5.55 12.35 11.53 18.51 17.32a394.28 394.28 0 0 0-25-65.56c-34.66-71-82.63-133.32-129.08-196.7a1049.82 1049.82 0 0 1-64.12-98.61c-14.52-25.35 2.89-51.43 30.8-49.4 8.06.59 16.82 2.56 23.7 6.57 20.25 11.79 40.31 24.08 59.37 37.7 37.44 26.75 74.15 54.55 109.73 80.84 1.57-12.37-.39-24.61 4.76-29.81Zm102.7 63.71-.09-1.72-1.76.74c-22.2-27.68-47.1-51.27-84.64-55.54-1.59-.18-3.3.73-4.9 1.12C716.9 127.9 765.58 157 804 157.8Zm-20 1042.94c-35.87-1.56-52.8-32.84-32.47-62.73 10.57-15.54 24-29.29 37.19-42.84 20.91-21.52 20-39.08-4.16-56.77-28.08-20.57-35.08-41.83-25.19-77.15 17.26-61.61 54.84-108.2 107-143.77 12.94-8.83 26.56-16.66 40.21-25.17-51-7-90.38 14.47-121.7 51.15-43.54 51-83.83 104.77-113.44 165.28-24.15 49.36-34.7 101.57-20.6 156.3 10 38.81 31.47 72.11 82.13 70 35.5-1.49 67-13.64 97.3-30.39 9.92-5.48 19-12.52 28.4-18.86l5.29-2.95c-.16-.46-.33-.92-.49-1.39l-7.47 1.74c-22.6 11.35-46.17 18.66-71.95 17.55Zm115.12-438.82 1.67-.82-2.12-1c-12-17.06-26-33.12-35.79-51.4-24.91-46.49-23.56-95.89-11.71-145.73 5.64-23.74 11.49-47.44 17.38-71.13 8.46-33.95-1.35-63.3-24.51-87.87-23.72-25.16-49.34-48.51-73.68-73.1-18.23-18.42-35.18-37.52-38.79-65.17-5.32-40.71 20.53-60.58 57.68-59.17 4.28.17 8.54.77 13.51-.39-18.38-10.2-37-20-55.1-30.68C689.81 141.46 631.06 105 577.91 60c-16.81-14.22-36.46-25.15-55.2-37a31.9 31.9 0 0 0-16.19-4.63c-5.58 0-12.44 1.34-16.27 4.82-2.19 2-1.08 10.43 1.31 14.22 18.69 29.65 36.62 60 57.51 88 44.55 59.87 90.44 118.75 126.09 184.61 22.23 41.07 38.79 84.48 51.68 129.4 17.89 62.36 35.86 124.71 54.93 186.71C798.88 681.85 831.62 726 883 754.89c5.36 3 11.7 4.3 17.59 6.38Zm38.58-418.92-2.27-4.64c-30.93-53.37-68-99.93-132-115.17-10-2.37-20.77-1.56-31.2-1.63-26.93-.2-35.38 33-29.13 52.84 8.9 28.18 31 46.24 50.76 66 15.25 15.24 31.19 29.81 47.06 44.42 37.82 34.84 47.3 76.29 33.7 125.72-9.56 34.75-17.37 70.5-20.77 106.3-4.26 45 10.23 86.27 41.34 119.49 13.44 14.35 31.69 24.14 47.34 36.52 4.27 3.38 7 8.65 10.51 13.05-4.65 2.64-9 6.51-14 7.7-28.94 6.84-52.67 23.4-75.66 40.78-43.55 32.93-77.1 73.65-92.48 127.12-2.85 9.88-3.81 20.48-4.29 30.81-.86 18.18 11.22 29.31 24.31 38.7 26.29 18.85 29.41 48.07 3.67 73.1-10.37 10.09-20.64 20.37-30 31.36-11.12 13-16.53 29.52-6.93 44 9 13.6 26.37 12.46 41.39 10.26 36.55-5.35 67.3-23.47 97-45.15-40.45-6.62-48-33-37.58-57.23 4.93-11.49 13.95-21.61 22.52-31.07 14.57-16.1 15.64-24.83 3.35-42.94-10.29-15.18-20.64-30.32-30.09-45.97-12.73-21.05-2.54-41.43 12.37-55.31 24.71-23 55-36.53 85.24-50.28 13.08-6 26.37-11.54 39.1-18.2 26.66-13.95 36-39.69 19.91-65.26-15.72-25.06-35.52-47.59-54-70.83-15.46-19.41-32.55-37.26-41.29-61.57-9.31-25.92-6.38-50 5.27-73.78 4.46-9.11 9.46-18.37 16.09-25.92 27.64-31.48 24.61-64.38 4.77-97.48-11.87-19.8-26.55-37.9-38.73-57.53-6.81-11-12.72-23.08-16.14-35.48-4.93-17.83 5.79-28.19 24.09-24.19 7.94 1.73 15.25 6.35 22.85 9.66Zm-305.57 829.85c-8.11 2.5-16.51 6-25.25 7.64-30.56 5.81-48.62-12.44-42.45-43.38 7.23-36.17 29.91-61.14 61-78.9 7.71-4.4 11.4-9.93 14.85-18 11.23-26.27 21.76-53.31 36.81-77.39 34.74-55.57 71.67-109.84 123-152.16 19.4-16 40.27-29.47 67.92-34.86-13.16-10.37-24.75-19.42-36.24-28.58C800 721.79 779 686.42 766.36 646.23c-17-54.31-33.75-108.79-48-163.87-10-38.88-37.27-63.21-67.81-82.3-76.92-48.09-161-75.34-252.84-75.48-37.15-.06-73.31 4.14-106 22.5-11.78 6.61-23.52 16.55-30.38 27.93-13 21.52-4.13 49.41 19.68 65.3 39.09 26.08 79.28 50.52 118.47 76.46 8.93 5.91 16.52 14.43 23.27 22.92C433 552.6 434.1 566.56 425 581.31c-15.52 25-39.93 40.42-61.55 58.92-12.6 10.77-25.5 21.57-36.19 34.13-26.26 30.8-25.26 66.39-13.67 102.31 14.34 44.48 44.2 75.11 87.26 93.15 3.93 1.65 7 5.26 10.55 7.92 6.56 4.94 4.72 9.58-1 13.27-43.92 28.53-65.56 70.73-68.58 121.24-2.17 36.13 16.82 57.37 57.95 57.24 20.6-.06 41.15-5.31 61.79-7.64 7.7-.87 15.8-1.24 23.36.12 19.31 3.46 26.93 18.06 22.39 42.83-2.74 15-6.67 29.75-10.22 44.59-11.89 49.6 13.44 73.58 58.13 79.89 26.52 3.75 51.69-2.88 76.4-11.7 4.93-1.76 9.82-3.61 15.51-5.7-4.62-13.19-8.99-25.61-13.25-37.7ZM337.29 845.57C296.21 804.62 281 734.32 305 686.16c8.5-17.07 23.61-31.5 37.79-44.95 18.41-17.46 39.64-31.92 58.31-49.15 24.83-22.91 23.46-42.49-4.7-61.38-39.75-26.66-80.88-51.26-120.63-77.91-31.38-21-41.9-55.69-26.54-84.79 11.44-21.67 31.44-33.93 53.63-42.4 57.52-22 116.27-18.44 175.23-7.41 14.43 2.7 28.72 6.12 43.07 9.21.35-1.06.69-2.13 1-3.2-31.19-11.41-62.12-23.63-93.64-34.08-65.57-21.76-132.2-38.32-202-39-53.88-.51-106.85 4.89-158.35 21.33-30.78 9.82-51 40.67-52 75.25-.94 33.18 15.39 58.36 36.69 80.45 29.73 30.82 61.69 59.46 91.78 89.93 35.49 35.93 66.44 75.78 81.74 124.41 10.42 33.16 16.42 67.93 21.94 102.37 6.61 41.22 19.35 78.57 52.15 106.63 22 18.84 47.16 28.44 76.84 27.25-13.75-11.31-27.97-21.14-40.02-33.15Zm693.87-354.33a34 34 0 0 0-4.32-9.29c-17.4-27.22-35.29-54.13-52.29-81.59-14.43-23.31-31.88-43.23-57.51-54.15-5.42-2.31-12.48-.74-18.79-.95.56 5.64-.6 12.26 2 16.76 11.56 20.32 24.88 39.66 36.22 60.09 11.14 20.07 23.5 40.16 30.15 61.83 7.54 24.56-4 46.63-18.15 67.52-10.22 15.13-19.33 31.91-24.63 49.26-7.33 24 .24 47.19 15.29 66.64 23.76 30.7 49.14 60.15 73.17 90.65 11.62 14.75 18.61 32 17.23 51.19-2 28.72-23.87 40.14-46.12 51.52-33.58 17.17-67.7 33.63-99.68 53.48-27.34 17-29.51 36.92-11.66 63.59 5.6 8.36 12.38 15.92 18.55 23.91 18.64 24.14 22.46 40.81-3.52 66.52-11.83 11.71-23.28 24.66-19.24 43.92 2.55 12.12 15.32 22.14 27.26 18.61 23.89-7.06 46.22-17.54 65.75-37.94-5.12.63-7.65 1.51-10 1.12-9.28-1.56-19-1.57-24.09-12.47-4.61-9.85-.63-17.16 5.21-23.67 7.83-8.71 17.27-16 25-24.73 16.63-18.77 19.21-25.18 6.17-40.91-7.75-9.35-3.79-18.94 4.11-25.15 9.8-7.69 21.08-13.6 32.09-19.62 20.26-11.07 40.45-23.49 51.17-44a215.3 215.3 0 0 0 20.59-60.79c6-33.43 11.94-67.59 11.31-101.32-.6-32.15-16.17-61.6-35.19-87.86-12.51-17.26-26.37-33.54-39.86-50.06-10.82-13.25-18-27.76-10.07-44.44 9-18.89 26.62-22.62 45.7-22 .81 0 1.63-.27-.17.05-3.84-15.09-7.6-30.44-11.68-45.72Zm-490.25 751.21c-45.62-11-65.45-44.77-54.65-90.56 3.72-15.77 8.35-31.33 12.1-47.09 5.62-23.61 2.36-39.72-33.31-35.37-18.5 2.25-36.7 6.89-55.16 9.49-31.66 4.47-66-5.18-76.2-40.72-4.58-16-3.3-34.59-.95-51.49 3.9-28 17.92-52.26 33.88-76.2-7.86 6-16 11.79-23.49 18.24-8 6.88-15.63 14.24-23.09 21.72-29.55 29.65-51.32 63.63-61.81 104.84-16 62.92 1.6 114.89 50 156.39 44.09 37.81 94.75 61.5 153.89 62.66 40.81.79 79.75-9.07 117.53-23.93 3.19-1.26 6.4-2.46 7.9-3-14.66-1.43-31.13-1.23-46.64-4.98Zm572.63-447.52c13.93 2.66 25.56 6.8 37.1 6.55s23.07-4.47 34.26-8c2.33-.74 4.35-6.18 4.46-9.52a358.66 358.66 0 0 0-12-105c-1.6-6-3.7-11.8-4.84-15.41l-54.52-9.62c.11-1.51.23-3 .34-4.55 5.07-.21 10.14-.44 15.21-.61 7.87-.27 15.76-.28 23.62-.78 8.5-.53 10.92-6 8-13-8.53-20.18-17.12-40.37-26.83-60-4.53-9.17-22-12.72-36.66-6.47-4.91 2.09-8.78 11.69-9.24 18.13-1 13.55-1.26 27.65 1.44 40.86 18.23 89.2 8.23 176.19-18.23 262.22-11.91 38.73-23.94 77.46-34 116.68-3.72 14.48-4.21 30.66-2.22 45.53 2.89 21.5 22 30.68 40 19.08a121.63 121.63 0 0 0 32.52-31.73c9-12.75 14.05-28.28 21.55-44.13-22.66-4.41-43.91-8.68-59.85-24l1.63-4c4.13 1.48 8.15 3.67 12.41 4.31 15 2.27 30.09 4.31 45.2 5.64 2.52.23 6.94-2.91 7.87-5.45 14.3-39.27 28.74-78.5 41.8-118.2 4.3-13.06 4.73-27.4 7.21-42.85-28.07 5.29-53.69 6.3-76.23-15.68ZM817.06 193.25c55.28 30.62 97.63 74.5 129.94 128.22 25.12 41.77 49.15 84.2 73.8 126.25 3.71 6.34 8.18 12.23 12.29 18.3l13.39-25.74c-26.48-11-33.2-37-40-61-15.06-53.35-34.39-104.54-77.2-141.56-23.39-20.24-51.75-34.78-78-51.6a150.21 150.21 0 0 0-21.06-11 74.76 74.76 0 0 0-17.89-5.6c-15.61-2.46-31.34-4.19-49.47-6.52 19.23 10.78 36.69 20.55 54.2 30.25Zm309.8 325.87c5.93-.66 12.27-.18 17.71-2.17 26.16-9.55 32.77-29 19.29-54.9-12.28-23.56-46.74-38.59-70.06-30.12-35.1 12.76-48.63 42.09-43.37 70.2 4.43 23.7 19.62 41.53 48.17 46.85 22.38 4.17 42.29-2 59.56-22.56-26.65 4.24-26.82 4.19-31.3-7.3ZM980.43 971.34c-9.89 5.35-13.64 10.65-6.62 21.69 9.69 15.27 6.11 28.66-10.07 44.37-7.5 7.29-16.39 13.38-22.79 21.49-3.81 4.82-4 12.49-5.83 18.88 5.93 1.68 12 5.13 17.77 4.7 14.52-1.06 26.7-7.17 35.59-19.78 5.56-7.89 12.1-15.83 19.95-21.18 11.66-7.94 14.86-18.25 17-31.41 4.17-25.08 10.91-49.73 16.28-73.19-19.8 11.18-40.37 23.09-61.28 34.43Zm103.9-303.13c-2.9-28.52-6-57-9.58-85.46-2.27-18-16.92-25.63-30.82-32.59-10.75-5.39-28.41-.25-36.34 8.39-7.2 7.85-7.24 23.21 1.08 34.08 11.91 15.56 25.39 30 36.71 45.91 14.47 20.37 27.47 41.79 40.68 62.13-.47-9.36-.56-20.96-1.73-32.46Zm-506.93 474.4c-3.18 21.16 7.67 32.39 28.48 28.78 7.21-1.26 14.32-4.24 20.85-7.64 2.46-1.28 4.9-6.3 4.38-9-5.61-29.37-2.4-58.33 3.77-90.36-28.51 21.74-52.23 43.26-57.48 78.22ZM833.88 74.49c-13.8-12.42-32.29-15.21-50.47-15.29-4.48 0-11.22 3.52-12.83 7.21-1.51 3.46.92 11.18 4.19 13.72 10.35 8 21.29 15.87 33.13 21.35 22.75 10.53 46.27 19.38 69.47 28.92l4.53-6.32C866 107.45 851 89.85 833.88 74.49Z" fill="#dc94c9" data-color="1"/>
        <path d="M753 772.5c-13.84 34.33-44.83 47.77-76.67 58.3-35.06 11.6-71.66 14.09-108.38 11.33-55.49-4.13-108.57-16.3-152.85-52.63-27.77-22.78-42.24-54.88-21.11-86.21 9.37-13.9 23.82-26 38.58-34.33 42.71-23.94 89.83-28.65 137.88-25 54.88 4.17 107.48 15.85 152.62 50 16.58 12.55 28.67 28.11 34.55 53.82-.92 5.22-1.03 15.7-4.62 24.72Zm-324-89.06c-42.49 25.25-46.62 64.26-6.1 97.73 41.92 34.61 92.33 45.77 145 50.27 34.74 3 68.77-2 102.14-10.44 23.39-5.89 45.45-16.42 61.89-35 17.07-19.32 20.07-43-.75-69-19.8-24.67-47-37.36-75.88-47.78-41.85-15.09-97.38-20.85-154.95-11l-1.23-3.1c-23.5 9.23-48.71 15.59-70.12 28.32Z" fill="#dc94c9" data-color="1"/>
        <path d="M614 569.21c-50.56-3.5-95.17-23.52-136.15-51.75-24-16.52-45.37-36.41-59.07-63-16.14-31.35-9.33-58 19.78-70.28a89 89 0 0 1 37.59-6.79c74.9 3.66 136.76 35.73 187 90.46 9.75 10.64 18.62 23.72 23.09 37.25 11.18 33.87-4.57 56.7-40.74 64.36-10.5-.07-21.02.48-31.5-.25Zm62-55.94c-6.14-14.55-13.4-30-24.33-40.93-49.55-49.43-109.45-77.88-180-81.39-8.61-.43-17.95 1.63-26 4.87-22.62 9.07-27.3 28.34-13.81 53.23 16.76 30.95 43.91 51.45 72.93 69.09 33.18 20.17 68.88 34.79 108.3 37.76 9.52.71 19.12.51 28.69.73 27.33-6.16 42.47-23.71 34.22-43.36Z" fill="#dc94c9" data-color="1"/>
        <path d="M461.6 1017.94c-34.08-5.16-46-31.53-28.21-59.36 4.65-7.28 11.08-13.8 17.78-19.35 23.6-19.57 51-31.49 80.32-40.12 31-9.12 62-12.77 93.29-4.34 34.83 9.4 42 40.44 16.53 66.49-31.6 32.29-71.47 47.56-114.72 59.81-21.69-.9-43.66.1-64.99-3.13Zm-11.11-65.34a81.18 81.18 0 0 0-14.79 18.45c-7.91 13.71-.77 30.1 15.38 35.54 32.83 11 65.13 6.8 97.68-2.82C575 996 599.54 985.45 620.51 968c8.53-7.09 16.6-16.09 21.48-25.91 8.37-16.85 2.48-27.67-15.11-34.68-23.77-9.47-47.89-8.31-72.34-3.39-38.77 7.42-74.67 21.15-104.05 48.58Z" fill="#dc94c9" data-color="1"/>
        <path d="M1128.46 501.36c-15.15 2.48-31.75-9-34.52-23.83-2.94-15.73 7.68-30.88 23.75-33.89 18.47-3.46 30.74 4.51 34 22.08 3.11 16.91-7.41 33.06-23.23 35.64Zm-.26-10.73c9.34-2.24 16.66-13.88 14.62-23.24-2.24-10.3-13.66-17.9-23.87-15.9-10.5 2.07-17 12.78-14.6 23.95 2.31 10.56 13.47 17.68 23.85 15.19Z" fill="#dc94c9" data-color="1"/>
    </g>
</svg>
