<?xml version="1.0" encoding="UTF-8"?>
<svg data-bbox="0.06 -0.002 1265.046 1499.624" viewBox="0 0 1265.11 1499.54" xmlns="http://www.w3.org/2000/svg" data-type="color">
    <g>
        <path d="M571.7 883.23c.29 68.64-15.15 133.07-60.86 185.64-33.75 38.81-73 32.47-95.8-12.93-20-39.78-14-80.73-.07-120.74 6.92-19.83 16.68-38.66 26.24-60.4-35.62 27.15-62.92 58.62-87 93.21-51.69 74.21-80.91 157.54-99.93 245-11.18 51.49-17.37 104.31-39 153-11.15 25.1-24.25 49.2-47.95 65.29-17.4 11.81-35.75 17.27-55.7 6.67-19.45-10.33-25.48-27.7-26.08-48.75-.8-28.16 11.25-52.78 19.22-78.6 6.05-19.62 14.4-38.62 8.23-60.62-4.26-15.13-13.59-24.26-26.34-30.83a125.68 125.68 0 0 0-24.32-9c-43.6-12-60-45.82-62-87-2.94-57.28 17.66-108.75 43.72-158.38 29.55-56.38 65.56-107.88 114.38-149.41-62.33-67-55.66-142.84-26.39-221 13.6-36.31 29.87-71.63 43-108.09 9.91-27.53 9.29-56.38 6.39-85.59-6.66-67.11 5.53-128.81 63.66-171.38 57.45-42.08 134.21-39.46 197.33 2.34 51.37 34 79.25 84.54 101.32 139.39 7.58 18.83 13.44 38.35 19.72 56.48 14.07-12.67 31.24-24.37 42.85-40.15 6-8.12 3.77-23.76 2.21-35.6-5.2-39.59-16.53-77.65-35.69-112.78A142.11 142.11 0 0 0 505 176.8c-17.12-7.58-37.82-6.87-56.8-10.48-27.68-5.26-53.22-15-71.22-38.25-9.57-12.37-10.26-31-2.11-42.25s19.4-13.7 36.73-7.94c29.25 9.72 47.63 32.55 67.56 54.2 16.37 17.79 35.1 33.54 53.65 49.16 48.43 40.77 84.2 89.09 93.83 153.4 2.15 14.38 3.23 28.92 4.73 42.73l46.36 5.63c21.34-28.16 35.32-62.89 39.88-100 3.59-29.21 2.23-59.31.35-88.83-2-31.12-20.14-54.71-42-75.62C660 103.26 643.34 88.63 629 72c-11.28-13.11-19.86-28.72-14.28-47.77C621.3 1.85 644-7.09 662.88 6.25c27.72 19.55 41.39 48.82 52.55 79.51 8.69 23.93 11.74 48.59 12.17 74.13.66 40.14 5.89 80.29 4.92 120.34-1 42.21-13.75 81.93-38.87 115 8.71 17 17.41 33.89 26.25 51.08 10.32-9.31 23.47-21.46 36.91-33.27 69.73-61.23 149.82-101 241.57-116.74 56.64-9.69 112.91-11.32 167.79 9.1 55.65 20.71 86.46 61.41 96.43 119.68 8.83 51.61-7.06 98.05-26 144.41-15.94 38.92-33.2 77.51-45.63 117.57-7.84 25.24-9.57 52.81-11.1 79.51-7 122.89-69.54 208.69-194.11 241-6.93 1.8-14.4 1.54-20.41 2.12q23.87 164.69-94.75 279.47c-28.46 27.46-66.46 36.88-104.35 45.2-25.85 5.67-51.47 12.69-76.74 20.58-32 10-54.32 31.73-68.51 62-12.66 27-30.22 49.92-54.53 67.69-36.44 26.65-74.92 17.11-85.76-23.36-3.55-13.25-3.26-29.66 1.33-42.46a230.39 230.39 0 0 1 29.78-56.17c48.33-67.12 73.73-143.52 90.74-222.94 8-37.44 13.54-76 14.4-114.23 1-45.09-9-89.16-31.62-129.24-3-5.35-7.68-9.76-11.58-14.61-.74-.69-1.47-1.39-2.2-2.09Zm-89.91-725.61 4.44 2.69c.29-.43.58-.87.88-1.3l-3.59-3.41c-8.35-9.59-16.27-19.59-25.13-28.68-14.6-15-27.78-32.47-49.5-37.5-7.57-1.76-18.09-2.15-23.77 1.83-8.73 6.12-7.72 17.24-1.49 25.92 4.42 6.15 9.75 12.14 15.89 16.48 24.56 17.35 52.87 22.73 82.27 23.97Zm344.38 241.07c37.53-8.26 75.48-12.57 112.8-1.26 18.73 5.67 37.91 13.64 53.42 25.2 23.42 17.46 27.73 48.83 3.52 82.28-13.73 18.95-29.06 36.73-43.14 55.43-20.13 26.74-20.77 47.57-3.09 76.23 7.63 12.37 15.54 24.57 23.11 37 17.57 28.79 25.9 59.82 18.45 93.21-11.27 50.52-45.62 78.36-93.85 91.35-9 2.41-18.17 4-29.3 6.49 7.9 7.48 15.12 12.37 19.71 19.06 11.32 16.48 25.91 18.48 43.45 12.89 55.75-17.74 102.81-46.23 127.93-102.26 20.42-45.56 16.38-91.78 4-138.31-9.31-35.16-16-71.41-1-105.7 10.52-24.18 27.46-45.67 42.37-67.8 12.89-19.13 25.82-38.57 23.09-62.53-3.3-28.95-25.41-42.84-49.71-52.29-43.59-16.95-88.68-20.86-135.31-15.41-43.44 5.08-83.8 16.46-118.69 43.74l-4.49 2.13c.15.55.31 1.09.46 1.64Zm72.5 592.87c0-7.39 1-14.95-.2-22.13-2.87-16.94-.07-36.19-14-49.37-21-19.9-41.82-40.36-65.07-57.37-43.7-32-95.22-45.15-147.57-54.63-32.74-5.93-66.33-10.31-98.5.34-26.78 8.87-48.3.69-71.53-10.72-49.18-24.18-100.87-33.91-156.41-29-52.75 4.69-99.38 23-144.78 48.38-48.35 27-70.9 68.8-75.77 122.16-1.94 21.25 8 34.48 28.67 40.48 9 2.62 18.23 6.45 25.6 12 15.7 11.92 16.16 30.63 19.13 48.28 3.2 19 6.07 38.31 12.33 56.37 6 17.29 26.8 22.12 41 10.57 7.17-5.85 12.84-14.36 17.21-22.7 21.56-41.19 40-84.25 64.25-123.74C361.62 914 398 873.45 446.15 845c60.17-35.57 155.4-11.56 178.47 67.54 17 58.2 16.29 115.4 6.63 173.89-3 18.33-11 36-4.82 55.73 7.41 23.63 16.86 45.84 43.07 51.82 23.76 5.42 42.79-6.75 56.15-25.73s24.45-39.35 37-58.79 25.41-24 47.3-17.78c7.87 2.24 15.53 5.19 23.38 7.5 16.85 5 31.83-.35 42-14.68 19.91-27.98 24.07-59.84 23.34-92.94Zm63.81 2.66c13.51-4.76 28.19-9.48 42.54-15.06 86-33.44 138-93.68 148-187.29 2.78-26.22 5.44-52.49 9.45-78.53 6.84-44.39 23.39-85.73 41.29-126.63 20.27-46.33 40.68-92.39 38.22-145.17-2.41-51.7-32.75-95.67-79.16-112.49-44.29-16.05-89.84-17.74-135.89-11-18.4 2.7-36.52 7.33-54.76 11.09 11.8 2.78 23.16 2.16 34.43 2.89 38.24 2.51 74.58 11.25 106.51 33.86 30.29 21.45 40.85 57.46 23.55 90a233.73 233.73 0 0 1-35.37 49.71c-36.75 39.16-44.08 84.17-32.69 134.75 8.36 37.11 19.51 73.33 14.14 113.06-6.75 50-29.63 88.87-68.5 119-27.9 21.64-58.1 39.44-92.43 44.87ZM558.77 797c15.09-2.38 29.25-6.39 43.43-6.49 29.7-.23 59.57 0 89.08 2.94 50.71 5.09 99.41 18.57 142.34 47 13.2 8.76 26.73 11.26 40.1 8.15 20.4-4.75 41.21-10.78 59.59-20.52 40.86-21.65 61.14-67.79 47.64-111.38-7.38-23.84-20.2-46.51-33.48-67.9-25-40.16-25.75-60.32 1.31-99.45 14.07-20.34 29.88-39.59 42.53-60.76 15.9-26.62 8.64-48.36-18.63-63.39a126.79 126.79 0 0 0-17-7.61c-43.08-16.09-87-13.93-130.72-4.09-16.71 3.76-36.4 6.67-48.27 17.24-31.39 28-61.72 57.9-88 90.62C623.83 602 584.22 695.24 558.77 797Zm-16.18 3.83c1.3-13.07 2-24.24 3.58-35.28 4-27.36 11.16-54.57 12-82 1.91-65.22 4.09-130.67-8.29-195.37-11.41-59.66-29.73-116.85-61.79-168.91-2.31-3.74-7.58-6.79-12-7.9-29.26-7.3-55.72.94-80.23 16.56-29.66 18.91-45.95 48.84-27.43 87.61 3.93 8.25 8.32 16.46 10.86 25.16 5.21 17.9 13.26 36.21 12.85 54.19-.5 22.41-14.58 41.42-29.51 58.35-23 26.07-47.22 51.17-68.9 78.29-32.58 40.76-36.65 94.38 33.78 108.21 21.77 4.27 44.15 5.36 66 9.31a462.52 462.52 0 0 1 132.13 44.86c5.25 2.76 11.09 4.55 16.95 6.9Zm-373 4.48 69.71-40.09c-30.33-9.19-48.54-25-53-46-6.09-28.87-1.83-57.11 14.93-80.56 19.79-27.68 44.39-51.88 65.46-78.71 15.76-20.07 31.55-40.75 43.12-63.31 13.74-26.76 11.88-55.22-5.95-80.66-10.29-14.69-21.77-28.61-33.35-42.33-16.56-19.63-21-40.76-9.87-64.42 9.21-19.53 23.44-34.11 41.91-45.49 27.54-17 57.08-26.68 91.42-27.35-27.62-16.58-74.57-18.71-107.91-5.44-67.63 26.93-88.92 87-81.25 158.19 3.74 34.8 5.44 69.63-6.26 103.16-13.49 38.81-29.55 76.79-43.09 115.7-13.07 37.59-23 76.47-13.08 116.29 6.82 27.4 17.93 53.76 27.26 81Zm298.23-511.95 2.07-3.74c-12.56-10.53-23.51-25-38-30.86-47.07-19-120.21 3-151.52 42.72-17.8 22.58-17.65 44.47.32 67.3 6.62 8.4 13.09 16.91 19.52 25.46 29.88 39.73 35.19 82.2 7.88 124.37-17.34 26.79-39.27 50.73-60.18 75.06-23.61 27.47-45.18 55.25-52.17 92.49-7.15 38.08 31.43 78.51 69.76 70.75 15.12-3.07 30.15-6.6 41-9-10.27-7.68-25.71-14.86-34.7-26.86-20.84-27.8-12.36-57.72 6.07-82.08 25.3-33.47 55.43-63.24 82.32-95.57 26-31.32 30.79-52.54 12.26-90.4-4.46-9.11-9.29-18-13.69-27.15-21.59-44.85-11.88-82.27 29-110.63 24-16.6 51.04-22.95 80.06-21.86Zm474.36 778.12c-5.66 31.84-14.1 62.13-31.19 89.88-24.5 39.78-48.94 47.71-90.43 27.82-2.64-1.27-5.29-2.52-8-3.6-12.85-5.08-24.64-4.94-34 7-6.25 8-12.72 15.79-18.83 23.87-21.46 28.34-41.14 58.52-74 75.55-24.79 12.85-50.78 19.22-75.4 1.33-10.32-7.5-17-19.95-24.65-29.25-13 41-35.89 79.23-60.19 116.86a287.89 287.89 0 0 0-24.34 46.1c-6 14.66 1.13 34.85 12.66 43.81 13.47 10.46 25.14 2.19 36.05-4.41a153.8 153.8 0 0 0 54.1-54.74c14.42-24.71 31.23-48.38 57.66-60.49 29.74-13.64 60.65-25.56 92.12-34.45 51.65-14.58 100.06-33.31 132.89-78.72 35.99-49.76 57.46-104.53 55.55-166.56ZM43.6 1018.09C37 1040.7 29 1063 24.28 1086a170.4 170.4 0 0 0-2.48 49.64c3.11 32.93 22.28 53.08 54 63 23.32 7.28 44.55 19.81 49.17 46.29a147.36 147.36 0 0 1 0 50.32c-5 27.94-13.6 55.23-20.23 82.9-4.27 17.83 2.38 36.74 14.81 44.55 11 6.9 28.46 4 42.72-8.74 7.16-6.4 13.1-14.51 18.32-22.66 24.65-38.5 32.91-82.45 41-126.38 2.29-12.4 4.31-24.86 6.81-39.38-30.67 20.19-53.11 15.11-65.51-17.26-9.5-24.78-13.54-51.92-17.83-78.36-5.53-34.07-12.59-51.74-49.76-59.55-36.14-7.6-43.17-16.59-51.7-52.28Zm870.31-53.9a59 59 0 0 0 0 7.55c5.27 38.91-1.22 75.76-20.79 109.78-16.65 29-37.56 36-68.49 24.8-5.46-2-10.91-4-16.32-6.17-14.24-5.64-27.06-4.52-35.64 9.46-12.65 20.61-23.31 42.55-37 62.4-28 40.52-79.93 46.29-108.35 4.09-4.29-6.37-7.48-13.47-11.3-20.44-2 7.86-4 15.26-5.66 22.75-4.5 20.76-11.59 41.43-12.57 62.37-1.55 33.21 21.45 56.35 52.45 51.41a110.25 110.25 0 0 0 40-14.9c28.63-17.88 47.3-45.79 67.85-71.85 20.33-25.78 31.35-42.43 71.23-20.13 22.79 12.74 36.62 9.12 54.74-9.88a117.66 117.66 0 0 0 16.27-22.2c19.89-34.32 27.31-72.43 30.47-111.18 2.2-27.05 3.69-54.9-16.89-77.86Zm-794-70.78C95.08 923.63 75 955.2 65.13 992.54a249.1 249.1 0 0 0-5.76 25.46c-3.46 22.44 9.05 36.65 40 43.85 19.53 4.55 36.48 12.71 44.35 31.75 5.25 12.69 7.38 26.79 9.95 40.44 5 26.44 6.25 53.74 20.62 77.74 10.67 17.83 28.42 21.91 44 8.56 6.14-5.25 12.58-12.14 14.88-19.53 8.51-27.35 15.35-55.22 23-83.63-26.13 9.38-45.2 4.16-54.14-15a87 87 0 0 1-6.75-23.55c-2.55-16.78-3.48-33.82-6.26-50.56-3.66-22-11.92-35.33-35-37.32-24.14-2.07-39.15-20-38.51-44.64.49-17.11 2.74-34.11 4.35-52.7ZM549.81 905c.22-44.11.22-44.1-30.46-51.05-1-.21-1.83-.76-2.78-.95-19.15-3.83-37.37 3.17-46.3 20.56-12.42 24.18-25.35 48.51-33.93 74.16-11.81 35.32-15.15 71.87 3.52 106.71 12.15 22.69 31 26 50.42 9.35a65 65 0 0 0 9.84-10.9c35.17-47.94 45.6-103.52 49.69-147.88Zm32.58-247c20.76-52.06 49.6-101.85 85-147.65 12.29-15.9 21-32.15 23.92-52.27 3.94-27.54-17.08-57.86-43.93-59.6-38.92-2.53-79.61 49.85-74 81.36 5.29 29.75 7.29 60.23 8.72 90.48 1.4 29.76.29 59.68.29 87.68Zm137-511.63c-2-13.36-3.13-29.89-7.29-45.6-8.53-32.22-21.91-62-49.45-83.27-9.16-7.07-19.09-8.4-28.06-1.71-9.2 6.86-9.31 16.53-5.78 27.63 7.3 22.93 25.92 36.33 41.38 52.45 16.31 16.92 32.81 33.66 49.23 50.45Z" fill="#dc94c9" data-color="1"/>
        <path d="M819.53 978.62c-.46 35.65-19 60.84-45.87 62.89-24.75 1.89-45.46-7.19-64-22.2-33.66-27.13-52.39-62.75-59.2-105.11-5.35-33.3 18.67-68 51.58-70.29 22-1.51 41.58 8.88 58.51 22.61 28.67 23.24 48.92 52.26 56.81 88.84 1.64 7.56 1.5 15.5 2.17 23.26Zm-6.15 2.38c-3.39-55.79-43.85-110.18-95-124.38-27.08-7.53-52.59 9.81-56.3 37.38-7.73 57.53 31.73 109.38 72.2 131.48 20.81 11.36 52.68 13 64.93-7.81 6.58-11.17 9.58-24.4 14.17-36.67Z" fill="#dc94c9" data-color="1"/>
        <path d="M369.72 855.55c0 21.51-11.8 37.8-25.29 52.52-26.56 29-58.75 49-98.08 55.63-25.89 4.36-53.72-12.56-42.46-45 12.3-35.43 39-57.72 69.8-75.34 15.25-8.72 32.31-14.91 49.31-19.76 24.87-7.11 46.46 8.56 46.72 31.95Zm-8.09 3.28c-3-16.43-9.37-23.39-24.07-24.33-46.52-3-108.29 41.81-123.89 88-7 20.67 9.36 36.45 31.2 32.51 38.74-7 69.56-27.32 94.21-56.76 9.57-11.45 15.16-26.2 22.55-39.42Z" fill="#dc94c9" data-color="1"/>
        <path d="M712 779.5c-33.5-3.78-63-3-89.35-18.28-12.79-7.39-19.82-20.45-16.28-34.17C634.89 616.46 706.66 545.14 811 504.58c19-7.4 40.26-9.09 58 6.09 13.89 11.91 16.28 26.29 5.73 46.08-7.7 14.45-18.18 27.42-27.54 41-16.31 23.61-13.72 33.38 12.35 46.2 14.29 7 28.73 13.8 42.79 21.26 33.77 17.91 28.42 53.82 2.39 72.27C882 753.5 856 761.66 829.47 765.85c-40.38 6.35-81.26 9.59-117.47 13.65Zm-1.46-9.64c42.25-5.19 83.47-9.16 124.27-15.7 24.22-3.88 47.95-11.29 67.8-27.36 20.56-16.64 20.12-38.49-2.55-52.1-16.49-9.9-34.24-17.71-51.45-26.42-11.45-5.79-22-13.78-20.33-27.47 1.26-10.51 6.58-21 11.89-30.47 8-14.33 18.83-27.17 26.16-41.79 9-17.95 1.73-33-17.42-35.92a90.2 90.2 0 0 0-35.25 2.09c-37.62 9.73-68.2 32.22-97.43 56.79-46.85 39.4-84.24 84.86-96.58 147-4.47 22.49-.67 33.12 21.22 39 22.79 6.04 46.56 8.41 69.68 12.35Z" fill="#dc94c9" data-color="1"/>
        <path d="M542.06 651.13c-1.35 18-2.37 36.06-4.11 54-2.09 21.52-24.49 35-48 24.65-51.55-22.73-92.71-58.63-109.83-113.78-9.43-30.37.08-59.5 41.1-68.46 25.43-5.56 29.65-15 24.81-42.82a111.61 111.61 0 0 1 .52-40.09c5.23-26.26 23.06-31.08 42.09-11.94s26.9 44.12 34.55 69c12.93 42.16 18.19 85.38 18.87 129.44Zm-8.95 17.17c-1.42-15.8-3.59-29.94-3.78-44.1-.62-44.13-9.36-86.79-25.05-127.66-5.84-15.23-16.53-29.47-27.86-41.48-9.33-9.88-18.32-6.64-20.61 7.06-2.61 15.59-3.53 32.12-1.33 47.7 3.23 22.79-3.43 37.14-24.84 43.53-4.18 1.25-8.56 1.84-12.65 3.3-25 8.91-34.43 28.27-27.79 54.44 9.8 38.44 38.1 62.81 66.12 86.91 11.09 9.55 24.86 16.89 38.57 22.28 20.32 8 31.81.18 35.42-21.54 1.75-10.53 2.69-21.23 3.8-30.44Z" fill="#dc94c9" data-color="1"/>
    </g>
</svg>
