<?xml version="1.0" encoding="UTF-8"?>
<svg data-bbox="0 0 119.68 201.12" viewBox="0 0 119.68 201.12" xmlns:xlink="http://www.w3.org/1999/xlink" xmlns="http://www.w3.org/2000/svg" data-type="ugc">
    <g>
        <defs>
            <linearGradient gradientUnits="userSpaceOnUse" gradientTransform="rotate(-2.95 84.936 97.204)" y2="152.61" x2="25.86" y1="63.29" x1="113.29" id="1fdf9944-ec46-4588-acd0-88f70f85105d">
                <stop stop-color="#a6b72b" offset="0"/>
                <stop stop-color="#7e9332" offset=".9"/>
                <stop stop-color="#798f33" offset="1"/>
            </linearGradient>
            <linearGradient xlink:href="#1fdf9944-ec46-4588-acd0-88f70f85105d" y2="162.07" x2="35.52" y1="72.75" x1="122.95" id="506dc99d-8037-4939-9378-b25f7c473928"/>
            <linearGradient xlink:href="#1fdf9944-ec46-4588-acd0-88f70f85105d" y2="160.44" x2="4.88" y1="3.23" x1="40.4" id="34126598-d599-4442-a21d-01ea4d0c7d57"/>
            <linearGradient xlink:href="#1fdf9944-ec46-4588-acd0-88f70f85105d" y2="163.48" x2="18.36" y1="6.27" x1="53.88" id="1eb539e4-88e8-4a7a-9599-b8997217f053"/>
            <linearGradient xlink:href="#1fdf9944-ec46-4588-acd0-88f70f85105d" y2="161.84" x2="11.11" y1="4.63" x1="46.63" id="4a1fb6d1-dc97-410c-878e-cac5c1c481f2"/>
            <linearGradient xlink:href="#1fdf9944-ec46-4588-acd0-88f70f85105d" y2="162.93" x2="15.96" y1="5.73" x1="51.48" id="f67cfdba-c2ad-482c-9fbe-b60062e4aaa1"/>
            <linearGradient xlink:href="#1fdf9944-ec46-4588-acd0-88f70f85105d" y2="163.86" x2="20.04" y1="6.66" x1="55.56" id="f30c64f5-2133-4701-8ace-3ccc736f5f5f"/>
            <linearGradient xlink:href="#1fdf9944-ec46-4588-acd0-88f70f85105d" y2="165.8" x2="28.62" y1="8.59" x1="64.14" id="02536c73-96b1-4b3b-befe-a65c20052a9e"/>
            <linearGradient xlink:href="#1fdf9944-ec46-4588-acd0-88f70f85105d" y2="129.58" x2="2.31" y1="40.25" x1="89.75" id="49acacf4-65f6-40c3-a01f-b4fced35fac5"/>
            <linearGradient xlink:href="#1fdf9944-ec46-4588-acd0-88f70f85105d" y2="122.36" x2="-5.05" y1="33.04" x1="82.38" id="a87bd7af-d1de-4966-97d2-f0719c165fc3"/>
            <linearGradient xlink:href="#1fdf9944-ec46-4588-acd0-88f70f85105d" y2="167.69" x2="37" y1="10.48" x1="72.52" id="37584e04-1eba-40f6-bd3e-23ca908497fc"/>
            <linearGradient xlink:href="#1fdf9944-ec46-4588-acd0-88f70f85105d" y2="132.32" x2="5.12" y1="43" x1="92.56" id="e1d32bac-e2ba-4b41-947f-d6fe2b640ef8"/>
            <linearGradient xlink:href="#1fdf9944-ec46-4588-acd0-88f70f85105d" y2="146.19" x2="19.29" y1="56.86" x1="106.72" id="db68ba64-9f7f-49d8-8eaf-dd84d9124921"/>
            <linearGradient xlink:href="#1fdf9944-ec46-4588-acd0-88f70f85105d" y2="151.05" x2="24.25" y1="61.72" x1="111.69" id="be578bbb-46d0-4ff1-af7e-5ddcf24d36f2"/>
            <linearGradient xlink:href="#1fdf9944-ec46-4588-acd0-88f70f85105d" y2="124.88" x2="-2.48" y1="35.56" x1="84.95" id="6157af9d-4308-430e-bc41-b90ceea73eff"/>
            <linearGradient xlink:href="#1fdf9944-ec46-4588-acd0-88f70f85105d" y2="138.85" x2="11.79" y1="49.53" x1="99.23" id="673a1e11-b67c-493d-b6cb-2d4caedeb423"/>
            <linearGradient xlink:href="#1fdf9944-ec46-4588-acd0-88f70f85105d" y2="169.02" x2="42.88" y1="11.81" x1="78.4" id="5ac981c7-28e8-4162-8ed9-aa00c049a87d"/>
            <linearGradient xlink:href="#1fdf9944-ec46-4588-acd0-88f70f85105d" y2="170.32" x2="48.64" y1="13.11" x1="84.16" id="5e17cc25-2108-4fcb-b5be-1d66df114beb"/>
            <linearGradient xlink:href="#1fdf9944-ec46-4588-acd0-88f70f85105d" y2="125.28" x2="-2.07" y1="35.95" x1="85.36" id="82180f58-4371-434b-8570-cd163a738441"/>
            <linearGradient xlink:href="#1fdf9944-ec46-4588-acd0-88f70f85105d" y2="143.86" x2="16.9" y1="54.53" x1="104.34" id="a17a1cc6-9675-4c0f-8c5b-0626c8c0d886"/>
            <linearGradient gradientUnits="userSpaceOnUse" y2="197.72" x2="14.26" y1="199.63" x1="84.23" id="4ae01782-62c6-4091-a86a-a5461b1c91a0">
                <stop stop-color="#ffea60" offset="0"/>
                <stop stop-color="#e6662b" offset=".37"/>
                <stop stop-color="#e86633" offset=".45"/>
                <stop stop-color="#ee6748" offset=".56"/>
                <stop stop-color="#f8676a" offset=".7"/>
                <stop stop-color="#ff6882" offset=".78"/>
            </linearGradient>
            <linearGradient gradientUnits="userSpaceOnUse" y2="197.76" x2="62.23" y1="199.58" x1="43.09" id="46936578-36e9-41aa-b75c-888331a748ab">
                <stop stop-color="#870041" offset="0"/>
                <stop stop-color="#fb8f6b" offset="1"/>
            </linearGradient>
            <linearGradient xlink:href="#46936578-36e9-41aa-b75c-888331a748ab" y2="211.48" x2="62.64" y1="205.13" x1="61.31" id="5ac3c5c2-5da9-4db1-b873-b7cc83c6830f"/>
            <linearGradient xlink:href="#46936578-36e9-41aa-b75c-888331a748ab" y2="196.82" x2="59.06" y1="197.33" x1="59.25" id="de45f841-3cd8-44d6-afed-9694da22dc50"/>
            <linearGradient xlink:href="#46936578-36e9-41aa-b75c-888331a748ab" y2="196.83" x2="59.85" y1="197.34" x1="60.05" id="090d0534-ad75-4c99-b064-62c5f237aa99"/>
            <linearGradient gradientUnits="userSpaceOnUse" y2="164.28" x2="74.24" y1="169.67" x1="66.21" id="8eb0842b-953b-4ce1-8e62-f5af728da7a1">
                <stop offset="0"/>
                <stop stop-color="#8180c3" offset="1"/>
            </linearGradient>
            <linearGradient xlink:href="#46936578-36e9-41aa-b75c-888331a748ab" y2="215.39" x2="61.54" y1="202.41" x1="60.58" id="4f2e83d2-75aa-4c5a-8d01-f254bb1a2c21"/>
            <linearGradient xlink:href="#46936578-36e9-41aa-b75c-888331a748ab" y2="179.14" x2="41.13" y1="194.88" x1="40.35" id="7ba9a38a-58d5-4131-82df-296013b61008"/>
            <radialGradient xlink:href="#4ae01782-62c6-4091-a86a-a5461b1c91a0" r="83.73" cy="160.36" cx="72.21" id="e2385d9b-c5b6-4479-af05-29bfa1ef1ddb"/>
        </defs>
        <g style="isolation:isolate">
            <path d="m62.36 172.53-.07-.05.09-.31a.08.08 0 0 0-.12 0c.08-.16.26-1.62.48-3.49 1-7.93 3.36-27.6 8.55-40.92 7.21-18.51 16.33-30.62 23.17-37.87 8.05-8.54 14.26-11.78 14.32-11.82v.54c-.06 0-6.21 3.24-14.21 11.7-6.77 7.22-15.85 19.26-23.04 37.69-5.19 13.27-6.15 34.27-7.15 42.22-.41 3.28-1.86 2.22-2 2.3Z" fill="#757516"/>
            <path d="M86.54 99.52c1.81-3.23 16.68-7.09 16.68-7.09l-19.46 12Z" fill="#757516"/>
            <path d="M76 117.32c1.75-3.52 17.67-7.91 17.67-7.91l-20.32 13.23Z" fill="#757516"/>
            <path d="M119.68 71.08s-17 10.22-17.83 10.48-6.67 8-6.67 8a193 193 0 0 0 24.5-18.48Z" fill="#757516"/>
            <path d="m65.79 171.82 1 .65c0-.08 1.32-8.19 7.89-40.74 7.74-38.3 24.06-72.58 24.24-73l-.28-.13c-.18.38-16.85 34.9-24.52 73.13-6.49 32.5-8.32 40.01-8.33 40.09Z" fill="#757516"/>
            <path d="M73.1 137.88c1.84-5 17.05-14.46 17.05-14.46L72.59 142.9Z" fill="#757516"/>
            <path d="M70.35 150.8c1.75-4.61 16.18-12.63 16.18-12.63l-16.65 17.38Z" fill="#757516"/>
            <path d="M61 183.25h.15l-.09-.64a.21.21 0 0 1 .25.14c-.1-.36 0-3.13.15-6.65.58-14.67 1.94-49-4.23-72.18C49.5 74.91 37.62 57.12 29 47.3c-9.34-10.66-17-14.5-17-14.54l-.22.61c.08 0 7.62 3.85 16.89 14.44 8.55 9.76 20.36 27.46 28 56.3 6.13 23 1.3 58.6.73 73.23-.25 6.18 3.22 5.56 3.45 5.8Z" fill="#757516"/>
            <path d="M38.68 60.33c-2-4.42-23.28-10.7-23.28-10.7l26.45 17.61Z" fill="#757516"/>
            <path d="M51.5 86.89C49.4 81.41 24.27 72 24.27 72l30.6 23.53Z" fill="#757516"/>
            <path d="M0 25.12s19.46 11.44 20.58 11.77S28 46.8 28 46.8 11.83 36.66 0 25.12Z" fill="#757516"/>
            <path d="M58.27 177.48c-.11-.36-8.07-37 .77-83.53 4.62-24.3 16.3-44.75 25.29-57.62A158.11 158.11 0 0 1 102.93 14l.33.34c-.35.33-34.94 33.35-43.75 79.7s1.74 82.35 1.85 82.71Z" fill="url(#1fdf9944-ec46-4588-acd0-88f70f85105d)"/>
            <path d="m53.89 179-2.33.28c0-.15.09-15.16-2.06-70.79S31.44 11 31.28 10.63l.44-.17c.16.41 16.67 42.62 18.82 98.3s3.35 70.08 3.35 70.24Z" fill="#757516"/>
            <path d="M62.51 179h-.13v-.48a.22.22 0 0 0-.21.14 42.9 42.9 0 0 0-.68-4.79c-1.73-10.53-5.77-35.18-2.32-52.67C63.51 99.28 72.39 85 79.09 76.82 86.35 68 92.68 64.27 92.75 64.23l.24.42c-.07 0-6.34 3.71-13.55 12.49-6.65 8.11-15.44 22.34-19.78 44.11-3.44 17.41 3.74 42.5 5.46 53 .73 4.44-2.35 4.42-2.53 4.62Z" fill="url(#506dc99d-8037-4939-9378-b25f7c473928)"/>
            <path d="M30.92 0s-1.05 14.81 1.63 20.46 4.66 8.85 4.66 8.85.79-10.1-2.62-15.75S30.92 0 30.92 0Z" fill="url(#34126598-d599-4442-a21d-01ea4d0c7d57)"/>
            <path d="M41.82 47.67C38.67 40.38 50 15.26 50 15.26l-7.4 37Z" fill="url(#1eb539e4-88e8-4a7a-9599-b8997217f053)"/>
            <path d="M43.83 56c-2.6-6.19-20.08-16.4-20.08-16.4l21.07 22.8Z" fill="url(#4a1fb6d1-dc97-410c-878e-cac5c1c481f2)"/>
            <path d="M47.44 79.7c-3.26-6.16-25.62-16.12-25.62-16.12l26.79 22.55Z" fill="url(#f67cfdba-c2ad-482c-9fbe-b60062e4aaa1)"/>
            <path d="M48.59 96.52C45.72 90.16 24 78.82 24 78.82L49.35 103Z" fill="url(#f30c64f5-2133-4701-8ace-3ccc736f5f5f)"/>
            <path d="M50.57 118.52c-1.89-8.35-25.1-27.2-25.1-27.2l24.46 35.21Z" fill="#757516"/>
            <path d="M51.7 140.3c-1.9-8.35-25.11-27.2-25.11-27.2l24.47 35.21Z" fill="#757516"/>
            <path d="M45.37 65.65c-.75-4.37 13.33-23 13.33-23L46.49 72.54Z" fill="url(#02536c73-96b1-4b3b-befe-a65c20052a9e)"/>
            <path d="M87.13 32.07c1.79-3.23 20.63-8 20.63-8L84.27 37.13Z" fill="url(#49acacf4-65f6-40c3-a01f-b4fced35fac5)"/>
            <path d="M81.44 41.6c2.32-2.87-.34-22.12-.34-22.12l-3.27 26.67Z" fill="url(#a87bd7af-d1de-4966-97d2-f0719c165fc3)"/>
            <path d="M48.76 89c-2.45-7.9 17.51-29.64 17.51-29.64L48.78 93.64Z" fill="url(#37584e04-1eba-40f6-bd3e-23ca908497fc)"/>
            <path d="M74.9 51.47C76.8 47.46 99 40.33 99 40.33L71.84 57.75Z" fill="url(#e1d32bac-e2ba-4b41-947f-d6fe2b640ef8)"/>
            <path d="M71.73 87.42C73.09 84 91.17 76.84 91.17 76.84l-21.63 16Z" fill="url(#db68ba64-9f7f-49d8-8eaf-dd84d9124921)"/>
            <path d="M62.76 108.18c1.37-4.18 22.53-14.13 22.53-14.13l-24.76 20.74Z" fill="url(#be578bbb-46d0-4ff1-af7e-5ddcf24d36f2)"/>
            <path d="M70.92 60C72.4 56.78 69 35.55 69 35.55L68.65 65Z" fill="url(#6157af9d-4308-430e-bc41-b90ceea73eff)"/>
            <path d="M61.72 84.56c.65-8.24 27.25-21 27.25-21L60 88.9Z" fill="url(#673a1e11-b67c-493d-b6cb-2d4caedeb423)"/>
            <path d="M50.18 109.15c.15-4.43 17.69-19.85 17.69-19.85l-18 26.83Z" fill="url(#5ac981c7-28e8-4162-8ed9-aa00c049a87d)"/>
            <path d="M50.61 130c0-4.45 21.54-19.26 21.54-19.26L50.52 137Z" fill="url(#5e17cc25-2108-4fcb-b5be-1d66df114beb)"/>
            <path d="M114.64 0s-14 13.25-14.83 13.79-4.2 8.92-4.2 8.92S107.1 11.25 114.64 0Z" fill="url(#82180f58-4371-434b-8570-cd163a738441)"/>
            <path d="M102.57 57.24s-16 10.65-17 11-5.67 8.07-5.67 8.07S93.21 67 102.57 57.24Z" fill="url(#a17a1cc6-9675-4c0f-8c5b-0626c8c0d886)"/>
            <path fill="url(#4ae01782-62c6-4091-a86a-a5461b1c91a0)" d="m77.5 201.12-23.13-.09-10.62-.04-2.52-.01 2.77-2.85 1.38-1.43 1.36.01 9.3.04 18.51.09 1.24 1.79 1.71 2.49z"/>
            <path style="mix-blend-mode:multiply" fill="url(#46936578-36e9-41aa-b75c-888331a748ab)" opacity=".3" d="m56.04 196.75-.3.76-1.37 3.52-10.62-.04 2.16-3.09.83-1.19 9.3.04z"/>
            <path d="M75.79 198.63a158.57 158.57 0 0 0-20.05-1.12c-3.67 0-7.12.13-9.83.39-.69.06-1.33.14-1.91.23l1.38-1.43h10.66l18.51.09Z" style="mix-blend-mode:multiply" opacity=".5" fill="url(#5ac3c5c2-5da9-4db1-b873-b7cc83c6830f)"/>
            <path d="M93.85 178.64a20.28 20.28 0 0 1-2.63 5.36 38.82 38.82 0 0 1-4 4.88 62.67 62.67 0 0 1-9 7.78l-2.21.05h-1.75l-5.57.13h-1.34l-7.08.16h-4.54l-2-.05-8.21-.18h-4.66a62.15 62.15 0 0 1-8.9-7.71c-2.86-3-5.56-6.63-6.66-10.31a14.69 14.69 0 0 1-.63-4.77 17.06 17.06 0 0 1 4.89-11h60.03a12.94 12.94 0 0 1 1.27 1.44 15.78 15.78 0 0 1 2.99 14.22Z" fill="url(#e2385d9b-c5b6-4479-af05-29bfa1ef1ddb)"/>
            <path fill="url(#de45f841-3cd8-44d6-afed-9694da22dc50)" d="m59.55 197.08-.78.02v-.03l.78.01z"/>
            <path fill="url(#090d0534-ad75-4c99-b064-62c5f237aa99)" d="M60.34 197.07v.03l-.79-.02.79-.01z"/>
            <path d="M72.2 164.17c2.76 0 7.32.8 4.38 2-3.74 1.48-8.53.16-8.82-.72-.12-.37.47-.71 1.23-.91a13.77 13.77 0 0 1 3.21-.37Z" style="mix-blend-mode:screen" fill="url(#8eb0842b-953b-4ce1-8e62-f5af728da7a1)"/>
            <path d="M87.26 188.88a62.67 62.67 0 0 1-9 7.78l-2.21.05H74.3l-5.57.13h-1.34l-7.08.16h-4.58l-2-.05-8.21-.18h-4.66a62.15 62.15 0 0 1-8.9-7.71 24.42 24.42 0 0 0 4.1 2.59c5.14 2.6 14 4.08 20.73 4.48 12.71.67 25.12-1.44 30.47-7.25Z" style="mix-blend-mode:multiply" fill="url(#4f2e83d2-75aa-4c5a-8d01-f254bb1a2c21)" opacity=".3"/>
            <path d="m55.73 197-2-.05-8.21-.18h-3.24a60.61 60.61 0 0 1-6.28-5.22c-4-3.81-8.69-9.26-9.78-14.91a14.82 14.82 0 0 1 4.32-13.74l12 1.16c-10 13.66 5.4 26.71 11.84 31.92Z" style="mix-blend-mode:multiply" fill="url(#7ba9a38a-58d5-4131-82df-296013b61008)" opacity=".3"/>
        </g>
    </g>
</svg>
