<?xml version="1.0" encoding="UTF-8"?>
<svg data-bbox="3.415 2.865 74.524 74.936" xmlns="http://www.w3.org/2000/svg" viewBox="0 0 80 80" height="80" width="80" data-type="color">
    <g>
        <g clip-path="url(#4451c4a3-2cbb-4952-aa17-dcaa500dc6d8)">
            <path fill="#17479D" d="M59.71 71.38c-6.74 4.033-14.262 6.94-22.093 6.343-7.914-.603-15.16-4.413-21.134-9.638-5.987-5.236-10.718-11.922-12.407-19.693-1.682-7.736.023-15.676 3.133-22.956 3.12-7.3 7.624-14.138 14.45-18.19 6.826-4.054 15.023-5.05 22.89-3.983 7.63 1.034 14.567 4.667 20.276 9.833 5.644 5.107 9.694 11.647 11.605 19.016 1.96 7.558 2.307 15.655-.752 22.839-3.067 7.203-9.25 12.41-15.969 16.43z" data-color="1"/>
            <path fill="#ffffff" d="M32.035 38.712c1.581-1.26 1.526-3.933-.123-5.972-1.65-2.039-4.27-2.67-5.851-1.411-1.582 1.259-1.527 3.933.122 5.972 1.65 2.039 4.27 2.67 5.852 1.411z" data-color="2"/>
            <path fill="#ffffff" d="M37.389 34.407c1.884-.514 2.865-2.899 2.192-5.327-.672-2.429-2.745-3.98-4.63-3.467-1.883.514-2.865 2.899-2.192 5.327s2.746 3.98 4.63 3.467z" data-color="2"/>
            <path fill="#ffffff" d="M47.759 29.779c.356-2.494-.924-4.735-2.859-5.007-1.934-.272-3.791 1.53-4.147 4.023-.356 2.493.923 4.735 2.858 5.007 1.935.272 3.792-1.53 4.148-4.023z" data-color="2"/>
            <path fill="#ffffff" d="M54.487 34.984c1.19-2.326.693-4.948-1.111-5.857-1.805-.909-4.232.24-5.423 2.566-1.19 2.325-.693 4.947 1.112 5.856 1.804.909 4.231-.24 5.422-2.565z" data-color="2"/>
            <path fill="#ffffff" d="M47.527 37.93c-1.24-2.026-3.795-3.416-6.746-3.416-3.575 0-6.57 2.04-7.348 4.78-2.711 1.229-4.619 4.158-4.619 7.576 0 4.525 3.345 8.194 7.47 8.194 2.147 0 4.082-.994 5.445-2.584 1.267 1.085 2.86 1.732 4.593 1.732 4.125 0 7.47-3.67 7.47-8.195 0-4.076-2.713-7.456-6.265-8.088z" data-color="2"/>
        </g>
        <defs fill="none">
            <clipPath id="4451c4a3-2cbb-4952-aa17-dcaa500dc6d8">
                <path fill="#ffffff" d="M80 0v80H0V0h80z"/>
            </clipPath>
        </defs>
    </g>
</svg>
