<?xml version="1.0" encoding="UTF-8"?>
<svg data-bbox="0 -0.007 29.47 29.187" viewBox="0 0 29.47 29.18" xmlns="http://www.w3.org/2000/svg" data-type="color">
    <g>
        <g>
            <path d="M.6 14.93A13.76 13.76 0 0 1 14.44 1.29a13.76 13.76 0 0 1 13.84 13.64 13.76 13.76 0 0 1-13.84 13.64A13.76 13.76 0 0 1 .6 14.93zm13.84 14.25a14.36 14.36 0 0 0 14.45-14.25A14.36 14.36 0 0 0 14.44.68 14.36 14.36 0 0 0 0 14.93a14.36 14.36 0 0 0 14.44 14.25z" fill="#472e19" data-color="1"/>
            <path d="M20.06 7.74l-5.41 1.82-3.87-4.71L14 2.16l4.87 1.15z" fill="#472e19" data-color="1"/>
            <path d="M20 7.55l-5.4 1.81a.21.21 0 0 1 .22.07l-3.88-4.71a.21.21 0 0 1 0 .29l3.19-2.7a.19.19 0 0 1-.18 0l4.85 1.2a.21.21 0 0 1-.15-.15l1.21 4.43a.2.2 0 0 1 .14-.24zm-1.1-4.43L14 2a.19.19 0 0 0-.18 0l-3.17 2.7a.2.2 0 0 0 0 .28l3.87 4.7a.21.21 0 0 0 .22.07l5.4-1.82a.21.21 0 0 0 .13-.25L19 3.26a.19.19 0 0 0-.11-.14z" fill="#472e19" data-color="1"/>
            <path d="M12.83 14.15l2.08 4.77-4.12 2.69-4.37-2.71 1.16-4.47z" fill="#472e19" data-color="1"/>
            <path d="M12.65 14.23L14.72 19a.2.2 0 0 1 .08-.25l-4.12 2.69a.2.2 0 0 1 .22 0l-4.37-2.7a.23.23 0 0 1 .09.23l1.16-4.48a.19.19 0 0 1-.19.15l5.25-.28a.18.18 0 0 1-.19-.13zm-5.26.15l-1.16 4.47a.21.21 0 0 0 .09.23l4.37 2.7a.18.18 0 0 0 .21 0l4.1-2.69a.2.2 0 0 0 .07-.25L13 14.07a.22.22 0 0 0-.2-.12l-5.25.28a.18.18 0 0 0-.16.15z" fill="#472e19" data-color="1"/>
            <path d="M21.65 26.71l-3.23-1.2-.49-5.11 5.22-1.31 2.12 4.46a11.67 11.67 0 0 1-3.62 3.16z" fill="#472e19" data-color="1"/>
            <path d="M21.72 26.52l-3.23-1.2a.18.18 0 0 1 .13.17l-.49-5.11a.2.2 0 0 1-.15.21l5.22-1.3a.2.2 0 0 1-.23-.11l2.12 4.46a.22.22 0 0 1 0-.21 11.46 11.46 0 0 1-3.55 3.1.18.18 0 0 1 .18-.01zm3.73-3.05L23.33 19a.19.19 0 0 0-.23-.11l-5.22 1.3a.21.21 0 0 0-.15.22l.49 5.11a.23.23 0 0 0 .13.17l3.23 1.2a.22.22 0 0 0 .16 0 11.76 11.76 0 0 0 3.69-3.21.18.18 0 0 0 .02-.21z" fill="#472e19" data-color="1"/>
            <path d="M26.6 8.07c-.71.78-2.45 3-2.45 3l.66 3.87 3.59 1.53c.77-2.85-1.8-8.4-1.8-8.4z" fill="#472e19" data-color="1"/>
            <path d="M26.45 7.93c-.7.78-2.39 2.92-2.46 3a.19.19 0 0 0 0 .16l.62 3.91a.17.17 0 0 0 .12.15l3.59 1.54a.2.2 0 0 0 .17 0 .22.22 0 0 0 .11-.12c.78-2.89-1.71-8.32-1.82-8.55a.21.21 0 0 0-.15-.11.19.19 0 0 0-.18.02zm2 8.36l-3.59-1.54a.21.21 0 0 1 .11.15l-.62-3.9a.22.22 0 0 1 0 .16s1.74-2.22 2.44-3a.22.22 0 0 1-.34 0s2.54 5.52 1.8 8.27a.19.19 0 0 1 .1-.13.2.2 0 0 1 .13-.01z" fill="#472e19" data-color="1"/>
            <path d="M5.62 4.28l.9 2.05-2 4.24c0-.05-3.08-.63-3.08-.63 1.45-4.45 4.18-5.66 4.18-5.66z" fill="#472e19" data-color="1"/>
            <path d="M5.43 4.36l.91 2.05a.25.25 0 0 1 0-.17l-2 4.24a.2.2 0 0 1 .22-.1.2.2 0 0 1 .16.19c0-.22 0-.22-3.25-.83a.19.19 0 0 1 .14.09.2.2 0 0 1 0 .17C3 5.71 5.67 4.47 5.7 4.46a.16.16 0 0 0 .08-.06.19.19 0 0 1-.19.08.22.22 0 0 1-.16-.12zm-4.08 5.77c1.08.21 2.86.56 3 .62a.17.17 0 0 1-.11-.18.2.2 0 0 0 .15.2.21.21 0 0 0 .23-.11L6.7 6.41a.2.2 0 0 0 0-.17l-.91-2a.2.2 0 0 0-.11-.11.19.19 0 0 0-.15 0c-.11.02-2.82 1.27-4.33 5.74a.2.2 0 0 0 0 .17.19.19 0 0 0 .15.09z" fill="#472e19" data-color="1"/>
            <path d="M14.18 28.68l-3.63-3.26L7 26.64c4.11 3.04 7.18 2.04 7.18 2.04z" fill="#472e19" data-color="1"/>
            <path d="M14.31 28.53l-3.62-3.26a.24.24 0 0 0-.2 0l-3.58 1.18a.21.21 0 0 0-.13.16.22.22 0 0 0 .08.2c4.17 3.06 7.25 2.1 7.38 2.06a.18.18 0 0 0 .13-.15.18.18 0 0 0-.06-.19zM7 26.84l3.58-1.23a.18.18 0 0 1-.2 0L14 28.83a.2.2 0 0 1-.06-.19.2.2 0 0 1 .13-.15s-3 .92-7-2a.21.21 0 0 1 .08.19.24.24 0 0 1-.15.16z" fill="#472e19" data-color="1"/>
            <path d="M13 14.22l1.8-4.58a.2.2 0 0 0-.11-.26.2.2 0 0 0-.26.12l-1.8 4.57a.2.2 0 0 0 .11.26.2.2 0 0 0 .26-.11z" fill="#472e19" data-color="1"/>
            <path d="M20 7.9l4 3.37a.2.2 0 0 0 .28 0 .19.19 0 0 0 0-.28l-4-3.37a.2.2 0 0 0-.28 0 .2.2 0 0 0 0 .29z" fill="#472e19" data-color="1"/>
            <path d="M24.59 14.58L23 18.93a.2.2 0 0 0 .12.26.21.21 0 0 0 .26-.12L25 14.72a.2.2 0 1 0-.38-.14z" fill="#472e19" data-color="1"/>
            <path d="M14.78 19.07l3 1.49a.2.2 0 1 0 .18-.36L15 18.71a.2.2 0 0 0-.18.36z" fill="#472e19" data-color="1"/>
            <path d="M18.26 25.5l-4.18 3.05a.22.22 0 0 0-.05.29.21.21 0 0 0 .29 0l4.18-3.05a.2.2 0 0 0 0-.28.2.2 0 0 0-.28-.05z" fill="#472e19" data-color="1"/>
            <path d="M10.6 21.48l-.26 3.9a.2.2 0 0 0 .19.21.19.19 0 0 0 .21-.19l.26-3.89a.19.19 0 0 0-.19-.21.19.19 0 0 0-.21.18z" fill="#472e19" data-color="1"/>
            <path d="M6.35 18.72l-4.64 1.89a.2.2 0 1 0 .15.37l4.64-1.89a.2.2 0 0 0-.15-.37z" fill="#472e19" data-color="1"/>
            <path d="M7.81 14.2l-3.19-3.66a.2.2 0 0 0-.29 0 .19.19 0 0 0 0 .28l3.19 3.66a.2.2 0 0 0 .28 0 .22.22 0 0 0 0-.29z" fill="#472e19" data-color="1"/>
            <path d="M6.58 6.47l4.2-1.41a.22.22 0 0 0 .13-.26.2.2 0 0 0-.26-.12l-4.2 1.41a.2.2 0 0 0-.13.25.2.2 0 0 0 .26.13z" fill="#472e19" data-color="1"/>
            <path d="M14.13 2L13.64.85a.21.21 0 0 0-.27-.11.2.2 0 0 0-.11.26l.5 1.2a.2.2 0 0 0 .26.11.21.21 0 0 0 .11-.31z" fill="#472e19" data-color="1"/>
            <path d="M19 3.48l1-1a.21.21 0 0 0 0-.29.2.2 0 0 0-.28 0l-1 1a.22.22 0 0 0 0 .29.19.19 0 0 0 .28 0z" fill="#472e19" data-color="1"/>
            <path d="M29.47 20.11a.28.28 0 0 0-.34.16c-.08.23-.17.45-.26.68a.26.26 0 0 0 .48.2" fill="#472e19" data-color="1"/>
            <path d="M24.68 27.31a11.65 11.65 0 0 0 3.64-4.06l.09-.17a8.21 8.21 0 0 0 .47-.87.26.26 0 1 0-.48-.21 7.71 7.71 0 0 1-.44.83l-.1.17a11.17 11.17 0 0 1-3.45 3.87.26.26 0 1 0 .27.45z" fill="#472e19" data-color="1"/>
            <path d="M2.24 4.82A15.61 15.61 0 0 1 8.16.5a.26.26 0 0 0 .15-.34A.27.27 0 0 0 8 0a15.87 15.87 0 0 0-6.16 4.49.26.26 0 1 0 .4.33z" fill="#472e19" data-color="1"/>
            <path d="M.54 7.39A8.28 8.28 0 0 1 1 6.63c.1-.17.21-.35.33-.53a.26.26 0 0 0-.07-.36.27.27 0 0 0-.37.07l-.39.55a7.5 7.5 0 0 0-.44.83.25.25 0 0 0 .14.34.25.25 0 0 0 .34-.14z" fill="#472e19" data-color="1"/>
        </g>
    </g>
</svg>
