<?xml version="1.0" encoding="UTF-8"?>
<svg data-bbox="-0.008 -0.002 10.819 10.802" viewBox="0 0 10.81 10.81" xmlns="http://www.w3.org/2000/svg" data-type="color">
    <g>
        <g>
            <path d="M1.54 6.46A4.16 4.16 0 0 1 4 1.1a4.06 4.06 0 0 1 3.19.11 4.17 4.17 0 1 1-5.65 5.25zm5.57 3a4.77 4.77 0 0 0 .31-8.8A4.72 4.72 0 0 0 3.77.53a4.77 4.77 0 0 0 3.34 8.94z" fill="#472e19" data-color="1"/>
            <path d="M4.67.72s-2 2.73.08 4.57c1.81 1.58 2.41 2.2 1.79 3.79a.2.2 0 0 0 .11.26.21.21 0 0 0 .27-.12C7.67 7.29 6.67 6.42 5 5c-1.8-1.6-.09-3.94 0-4a.2.2 0 0 0 0-.32.19.19 0 0 0-.28 0z" fill="#472e19" data-color="1"/>
            <path d="M8.68.3a4.73 4.73 0 0 1 1.81 2.23.17.17 0 0 0 .21.1.16.16 0 0 0 .1-.21 5 5 0 0 0-2-2.4.16.16 0 0 0-.22.06.15.15 0 0 0 .1.22z" fill="#472e19" data-color="1"/>
            <path d="M3.5 10.59a4.53 4.53 0 0 0 .9.21.16.16 0 0 0 0-.31 5.86 5.86 0 0 1-.85-.21.16.16 0 0 0-.2.11.15.15 0 0 0 .1.2z" fill="#472e19" data-color="1"/>
            <path d="M0 7.49a6.38 6.38 0 0 0 2 2.37c.15.1.3.2.45.28a.15.15 0 0 0 .22-.06.16.16 0 0 0-.06-.22l-.43-.27A6 6 0 0 1 .31 7.37a.16.16 0 0 0-.21-.09.17.17 0 0 0-.1.21z" fill="#472e19" data-color="1"/>
        </g>
    </g>
</svg>
