<?xml version="1.0" encoding="UTF-8"?>
<svg data-bbox="0 0.008 25.581 22.329" viewBox="0 0 25.59 22.34" xmlns="http://www.w3.org/2000/svg" data-type="color">
    <g>
        <g>
            <path d="M3 15.39a10.56 10.56 0 0 1 19.39-8.45A10.56 10.56 0 0 1 8.86 21 10.47 10.47 0 0 1 3 15.39zm14.14 6a11.15 11.15 0 0 0 5.8-14.69A11.16 11.16 0 0 0 8.25.94a11.16 11.16 0 0 0 .39 20.62 11.09 11.09 0 0 0 8.54-.16z" fill="#472e19" data-color="1"/>
            <path d="M13.93 21.73c0-.05-4.28-5-1.29-10a.21.21 0 0 1-.14.1c.08 0 7.77-1.5 9.15-7.21a.19.19 0 0 0-.15-.24.2.2 0 0 0-.24.15c-1.32 5.45-8.76 6.89-8.83 6.9a.21.21 0 0 0-.14.1C9.16 16.77 13.58 21.94 13.62 22a.2.2 0 0 0 .29 0 .2.2 0 0 0 0-.28z" fill="#472e19" data-color="1"/>
            <path d="M12.62 11.42A7.94 7.94 0 0 0 2.69 7a.2.2 0 0 0-.13.25.19.19 0 0 0 .25.13 7.44 7.44 0 0 1 9.44 4.15.2.2 0 1 0 .37-.15z" fill="#472e19" data-color="1"/>
            <path d="M11.52 14.94c.09 0 8.73.64 11.89-6.14a.2.2 0 0 0-.41-.17c-3 6.53-11.4 5.92-11.48 5.91a.21.21 0 0 0-.22.19.19.19 0 0 0 .18.21z" fill="#472e19" data-color="1"/>
            <path d="M11.86 18.33A12.75 12.75 0 0 0 23 14.59a.2.2 0 1 0-.29-.28 12.37 12.37 0 0 1-10.8 3.63.21.21 0 0 0-.24.15.21.21 0 0 0 .16.24z" fill="#472e19" data-color="1"/>
            <path d="M15.75 10.27c0-.09-2.81-8.45-10.22-7.4a.2.2 0 0 0-.17.23.2.2 0 0 0 .23.17c7.07-1 9.75 7 9.77 7.12a.21.21 0 0 0 .26.13.21.21 0 0 0 .13-.25z" fill="#472e19" data-color="1"/>
            <path d="M19.27 8.11c0-.06-2-6.26-8.28-7.88a.2.2 0 0 0-.1.39c6.07 1.56 8 7.55 8 7.61a.2.2 0 0 0 .39-.12z" fill="#472e19" data-color="1"/>
            <path d="M10 21.36c-.05-.07-4.49-7 .72-12.27a.19.19 0 0 0 0-.28.21.21 0 0 0-.29 0c-5.43 5.52-.82 12.7-.77 12.77a.2.2 0 0 0 .34-.22z" fill="#472e19" data-color="1"/>
            <path d="M4.87 18.18A10.57 10.57 0 0 1 7 7.1a.21.21 0 0 0 0-.29.19.19 0 0 0-.28 0A11 11 0 0 0 4.5 18.35a.21.21 0 0 0 .27.1.2.2 0 0 0 .1-.27z" fill="#472e19" data-color="1"/>
            <path d="M19.27 9.58a7.32 7.32 0 0 0 2.78-3.87.09.09 0 0 0-.05-.12.1.1 0 0 0-.12.08 7.25 7.25 0 0 1-2.7 3.74.1.1 0 1 0 .11.17z" fill="#472e19" data-color="1"/>
            <path d="M19.61 10.38a7.3 7.3 0 0 0 2.89-3.79.1.1 0 0 0-.08-.12.11.11 0 0 0-.12.07 7.21 7.21 0 0 1-2.8 3.67.1.1 0 1 0 .11.17z" fill="#472e19" data-color="1"/>
            <path d="M20 11.31a7.34 7.34 0 0 0 2.89-3.79.11.11 0 0 0-.08-.13.11.11 0 0 0-.12.08 7.16 7.16 0 0 1-2.8 3.67.11.11 0 0 0 0 .14.11.11 0 0 0 .14 0z" fill="#472e19" data-color="1"/>
            <path d="M20.45 13.41a7.22 7.22 0 0 0 3.08-3.64.09.09 0 0 0-.07-.12.09.09 0 0 0-.12.07 7.26 7.26 0 0 1-3 3.52.1.1 0 1 0 .1.17z" fill="#472e19" data-color="1"/>
            <path d="M20.4 14.39a7.26 7.26 0 0 0 3.24-3.49.1.1 0 0 0-.06-.13.1.1 0 0 0-.13.06 7.12 7.12 0 0 1-3.14 3.38.1.1 0 0 0 0 .14.09.09 0 0 0 .13 0z" fill="#472e19" data-color="1"/>
            <path d="M20.44 15.44a7.3 7.3 0 0 0 3.37-3.37.1.1 0 1 0-.18-.07 7.18 7.18 0 0 1-3.27 3.25.11.11 0 0 0-.05.14.1.1 0 0 0 .13 0z" fill="#472e19" data-color="1"/>
            <path d="M20.33 17.63A6.74 6.74 0 0 0 23 14.68a.1.1 0 0 0-.06-.13.1.1 0 0 0-.13.06 6.57 6.57 0 0 1-2.62 2.85.1.1 0 0 0 0 .14.09.09 0 0 0 .13 0z" fill="#472e19" data-color="1"/>
            <path d="M3.55 3.09l.38-.38a.2.2 0 0 0 0-.28.21.21 0 0 0-.29 0c-.13.12-.25.25-.39.4a.19.19 0 0 0 0 .28.19.19 0 0 0 .28 0z" fill="#472e19" data-color="1"/>
            <path d="M.4 9.88a13 13 0 0 1 2.34-5.82.2.2 0 1 0-.32-.24A13.13 13.13 0 0 0 0 9.86a.2.2 0 0 0 .4 0z" fill="#472e19" data-color="1"/>
            <path d="M24.7 16.13a10 10 0 0 0 .81-5.29.2.2 0 1 0-.4.05 9.52 9.52 0 0 1-.78 5.11.19.19 0 0 0 .1.26.2.2 0 0 0 .27-.1z" fill="#472e19" data-color="1"/>
            <path d="M22.78 19.22s.27-.3.63-.81a9.87 9.87 0 0 0 .54-.83.19.19 0 0 0-.07-.27.2.2 0 0 0-.28.07 9.17 9.17 0 0 1-.52.8 7.6 7.6 0 0 1-.59.76.21.21 0 0 0 0 .29.2.2 0 0 0 .28 0z" fill="#472e19" data-color="1"/>
        </g>
    </g>
</svg>
