<?xml version="1.0" encoding="UTF-8"?>
<svg data-bbox="0.001 0 31.404 27.68" viewBox="0 0 31.44 27.68" xmlns="http://www.w3.org/2000/svg" data-type="color">
    <g>
        <g>
            <path d="M2.61 13.84a13.24 13.24 0 1 1 13.23 13.24A13.25 13.25 0 0 1 2.61 13.84zm13.23 13.84A13.84 13.84 0 1 0 2 13.84a13.86 13.86 0 0 0 13.84 13.84z" fill="#472e19" data-color="1"/>
            <path d="M13.15 26.79A20.14 20.14 0 0 1 9.89 13C11.26 3.34 18.59.69 18.67.66a.19.19 0 0 0 .12-.25.21.21 0 0 0-.26-.13c-.07 0-7.64 2.76-9 12.66A20.57 20.57 0 0 0 12.83 27a.2.2 0 1 0 .32-.24z" fill="#472e19" data-color="1"/>
            <path d="M5.44 4.93c0 .08-1.34 8.43 4 9.5 5.09 1 7.16-1.42 11-6.58 2.59-3.49 5.1-3.22 5.13-3.21a.2.2 0 0 0 .22-.18.19.19 0 0 0-.17-.22c-.11 0-2.76-.33-5.51 3.37C16.35 12.63 14.34 15 9.49 14S5.82 5.08 5.84 5a.21.21 0 0 0-.17-.23.2.2 0 0 0-.23.17z" fill="#472e19" data-color="1"/>
            <path d="M2.39 14.06a21.33 21.33 0 0 0 12.72 4.66 28 28 0 0 0 14.27-4 .2.2 0 0 0-.21-.34 27.65 27.65 0 0 1-14.05 4 20.91 20.91 0 0 1-12.46-4.62.2.2 0 0 0-.27.3z" fill="#472e19" data-color="1"/>
            <path d="M18.44 26.78s-1.63-.3-3.26-3.73a5.26 5.26 0 0 0-6.32-2.74 3.36 3.36 0 0 0-2.36 3.51.22.22 0 0 0 .23.18.19.19 0 0 0 .17-.22A2.91 2.91 0 0 1 9 20.7a4.87 4.87 0 0 1 5.84 2.52c1.73 3.66 3.49 4 3.56 4a.2.2 0 0 0 .06-.4z" fill="#472e19" data-color="1"/>
            <path d="M30.92 16.16c-.05.45-.11.9-.19 1.32a.21.21 0 0 0 .16.24.21.21 0 0 0 .24-.17c.07-.43.14-.89.19-1.34a.2.2 0 0 0-.18-.22.19.19 0 0 0-.22.17z" fill="#472e19" data-color="1"/>
            <path d="M29.59 6.68A17.55 17.55 0 0 1 31 13.77a.2.2 0 0 0 .2.2.21.21 0 0 0 .2-.21A17.36 17.36 0 0 0 30 6.49a.19.19 0 0 0-.27-.08.2.2 0 0 0-.09.27z" fill="#472e19" data-color="1"/>
            <path d="M.73 9.22a14.94 14.94 0 0 0-.32 8.08.2.2 0 0 0 .24.15.21.21 0 0 0 .15-.25 14.73 14.73 0 0 1 .31-7.86.2.2 0 0 0-.11-.25.19.19 0 0 0-.25.13z" fill="#472e19" data-color="1"/>
            <path d="M2.23 5.9a8.28 8.28 0 0 0-.49.85c-.15.3-.29.58-.42.88a.19.19 0 0 0 .11.26.19.19 0 0 0 .26-.1c.13-.29.26-.57.41-.85.27-.52.46-.82.46-.82a.2.2 0 0 0-.05-.28.2.2 0 0 0-.28.06z" fill="#472e19" data-color="1"/>
            <path d="M24.84 18.14a14.89 14.89 0 0 0 4.66-2.44.12.12 0 1 0-.16-.18 15 15 0 0 1-4.57 2.39.12.12 0 0 0-.08.15.12.12 0 0 0 .15.08z" fill="#472e19" data-color="1"/>
            <path d="M25 15.28a15 15 0 0 0 4.66-2.44.12.12 0 1 0-.17-.17 15 15 0 0 1-4.56 2.38.12.12 0 1 0 .07.23z" fill="#472e19" data-color="1"/>
            <path d="M25 15.28a15 15 0 0 0 4.66-2.44.12.12 0 1 0-.17-.17 15 15 0 0 1-4.56 2.38.12.12 0 1 0 .07.23z" fill="#472e19" data-color="1"/>
            <path d="M24.87 13.81a17.57 17.57 0 0 0 4.09-2 .12.12 0 0 0 0-.17.11.11 0 0 0-.16 0 17.53 17.53 0 0 1-4 1.93.12.12 0 0 0-.08.15.12.12 0 0 0 .16.08z" fill="#472e19" data-color="1"/>
            <path d="M24.64 12.35a17 17 0 0 0 4.21-2.06.12.12 0 0 0 0-.17.12.12 0 0 0-.17 0 16.79 16.79 0 0 1-4.14 2 .11.11 0 0 0-.07.15.11.11 0 0 0 .15.08z" fill="#472e19" data-color="1"/>
            <path d="M24.25 11a16.69 16.69 0 0 0 4.18-2 .12.12 0 0 0-.14-.2 16.77 16.77 0 0 1-4.11 2 .13.13 0 0 0-.08.16.12.12 0 0 0 .15.07z" fill="#472e19" data-color="1"/>
            <path d="M24 9.6a17.59 17.59 0 0 0 3.9-1.86.13.13 0 0 0 0-.17.12.12 0 0 0-.17 0 17.6 17.6 0 0 1-3.88 1.83.12.12 0 0 0-.08.15.12.12 0 0 0 .23.05z" fill="#472e19" data-color="1"/>
            <path d="M23.68 8.21a19.2 19.2 0 0 0 3.63-1.66.12.12 0 0 0-.13-.21A18.83 18.83 0 0 1 23.6 8a.12.12 0 0 0-.08.15.14.14 0 0 0 .16.08z" fill="#472e19" data-color="1"/>
            <path d="M23.3 6.89a20.29 20.29 0 0 0 3.25-1.44.12.12 0 0 0 .05-.16.13.13 0 0 0-.17 0 19.4 19.4 0 0 1-3.21 1.42.12.12 0 0 0-.08.15.13.13 0 0 0 .16.08z" fill="#472e19" data-color="1"/>
            <path d="M22.88 5.9a20.19 20.19 0 0 0 2.7-1.13.13.13 0 0 0 .06-.17.14.14 0 0 0-.17 0 19.47 19.47 0 0 1-2.66 1.12.12.12 0 0 0 .07.23z" fill="#472e19" data-color="1"/>
            <path d="M22.39 4.52a19.85 19.85 0 0 0 2.31-.93.12.12 0 0 0-.11-.22 20.31 20.31 0 0 1-2.27.92.12.12 0 0 0-.08.15.12.12 0 0 0 .15.08z" fill="#472e19" data-color="1"/>
            <path d="M22.25 3.33s.68-.23 1.54-.59a.12.12 0 1 0-.1-.22c-.84.36-1.51.57-1.51.58a.12.12 0 0 0-.08.15.12.12 0 0 0 .15.08z" fill="#472e19" data-color="1"/>
            <path d="M24.42 19.7a14.89 14.89 0 0 0 4.66-2.44.12.12 0 0 0-.17-.17 15 15 0 0 1-4.56 2.38.12.12 0 0 0 .07.23z" fill="#472e19" data-color="1"/>
            <path d="M23.87 21.41A15 15 0 0 0 28.53 19a.11.11 0 0 0 0-.17.12.12 0 0 0-.17 0 15 15 0 0 1-4.57 2.39.12.12 0 0 0-.08.15.14.14 0 0 0 .16.08z" fill="#472e19" data-color="1"/>
            <path d="M23.13 23a14.67 14.67 0 0 0 4.66-2.44.12.12 0 0 0 0-.17.11.11 0 0 0-.17 0 15.14 15.14 0 0 1-4.57 2.38.13.13 0 0 0-.08.16.12.12 0 0 0 .15.07z" fill="#472e19" data-color="1"/>
            <path d="M22.24 24.67a15 15 0 0 0 4.66-2.44.11.11 0 0 0 0-.17.12.12 0 0 0-.17 0 14.78 14.78 0 0 1-4.57 2.39.12.12 0 0 0-.07.15.12.12 0 0 0 .15.08z" fill="#472e19" data-color="1"/>
            <path d="M15.75 3.82l.32-.29a.17.17 0 1 0-.22-.25l-.32.29a.17.17 0 0 0 0 .24.16.16 0 0 0 .23 0z" fill="#472e19" data-color="1"/>
            <path d="M12.91 7.66a12.42 12.42 0 0 1 2-3 .17.17 0 0 0-.25-.22 13.66 13.66 0 0 0-2.06 3.08.16.16 0 0 0 .09.22.16.16 0 0 0 .22-.09z" fill="#472e19" data-color="1"/>
        </g>
    </g>
</svg>
