<?xml version="1.0" encoding="UTF-8"?>
<svg data-bbox="0 -0.001 15.32 18.131" viewBox="0 0 15.31 18.13" xmlns="http://www.w3.org/2000/svg" data-type="color">
    <g>
        <g>
            <path d="M.6 8.91A7.06 7.06 0 1 1 7.66 16 7.06 7.06 0 0 1 .6 8.91zm7.06 7.66A7.66 7.66 0 1 0 0 8.91a7.66 7.66 0 0 0 7.66 7.66z" fill="#472e19" data-color="1"/>
            <path d="M10.94 2.72c0 .07-3 6.62 2.39 10.77a.2.2 0 1 0 .25-.32C8.41 9.21 11.27 3 11.3 2.89a.2.2 0 0 0-.09-.27.21.21 0 0 0-.27.1z" fill="#472e19" data-color="1"/>
            <path d="M2 4.57c0 .04 5.23 4.54 2.2 10.29a.19.19 0 0 0 .08.27.2.2 0 0 0 .27-.08C7.74 9 2.28 4.3 2.23 4.26a.22.22 0 0 0-.29 0 .21.21 0 0 0 0 .29z" fill="#472e19" data-color="1"/>
            <path d="M9.81 3.71a2 2 0 0 1 1.66.76.16.16 0 1 0 .23-.23 2.32 2.32 0 0 0-1.89-.85.16.16 0 0 0 0 .32z" fill="#472e19" data-color="1"/>
            <path d="M9.62 5.08a2 2 0 0 1 1.71.64.16.16 0 0 0 .22 0 .17.17 0 0 0 0-.23 2.34 2.34 0 0 0-2-.77.17.17 0 0 0-.16.17.16.16 0 0 0 .16.16z" fill="#472e19" data-color="1"/>
            <path d="M9.54 6.35h.14c.55 0 1.12 0 1.45.41a.16.16 0 0 0 .23 0 .15.15 0 0 0 0-.22A2 2 0 0 0 9.68 6h-.14a.16.16 0 0 0 0 .32z" fill="#472e19" data-color="1"/>
            <path d="M9.5 7.72h.45a1.53 1.53 0 0 1 1.15.18.18.18 0 0 0 .23 0 .17.17 0 0 0 0-.23 1.82 1.82 0 0 0-1.38-.26h-.42a.16.16 0 0 0 0 .32z" fill="#472e19" data-color="1"/>
            <path d="M9.72 8.92h.44a3.92 3.92 0 0 0 1.19 0 .18.18 0 0 0 .11-.2.15.15 0 0 0-.2-.11 3.81 3.81 0 0 1-1.08 0h-.46a.16.16 0 0 0-.16.16.17.17 0 0 0 .16.17z" fill="#472e19" data-color="1"/>
            <path d="M10 10a5.92 5.92 0 0 0 1.52 0 .16.16 0 0 0 .14-.18.16.16 0 0 0-.18-.14 5.39 5.39 0 0 1-1.45 0 .16.16 0 0 0-.17.15.15.15 0 0 0 .14.17z" fill="#472e19" data-color="1"/>
            <path d="M10.59 11.23a4.07 4.07 0 0 0 1.73-.41.17.17 0 0 0-.14-.3 3.59 3.59 0 0 1-1.59.39.16.16 0 1 0 0 .32z" fill="#472e19" data-color="1"/>
            <path d="M11.13 12.23a2.83 2.83 0 0 0 1.69-.67.16.16 0 1 0-.19-.26 2.51 2.51 0 0 1-1.5.61.16.16 0 0 0 0 .32z" fill="#472e19" data-color="1"/>
            <path d="M12 13a2 2 0 0 0 1.35-.84.16.16 0 0 0 0-.23.16.16 0 0 0-.22 0 1.69 1.69 0 0 1-1.1.72.16.16 0 0 0-.03.35z" fill="#472e19" data-color="1"/>
            <path d="M2.35 5.79a3.35 3.35 0 0 1 1.41-.88.16.16 0 0 0 .1-.2.15.15 0 0 0-.2-.1 3.54 3.54 0 0 0-1.54 1 .16.16 0 0 0 0 .22.15.15 0 0 0 .23 0z" fill="#472e19" data-color="1"/>
            <path d="M3 6.72A6 6 0 0 1 4.43 6a.16.16 0 0 0 .1-.21.16.16 0 0 0-.2-.1 5.85 5.85 0 0 0-1.5.75.15.15 0 0 0-.05.22.15.15 0 0 0 .22 0z" fill="#472e19" data-color="1"/>
            <path d="M3.78 7.63a2.42 2.42 0 0 1 1.35-.49.16.16 0 1 0 0-.32 2.69 2.69 0 0 0-1.52.54.15.15 0 0 0 0 .22.16.16 0 0 0 .22 0z" fill="#472e19" data-color="1"/>
            <path d="M4.1 8.58a3.61 3.61 0 0 0 .8-.13 3.34 3.34 0 0 1 .75-.12.16.16 0 0 0 .16-.16.17.17 0 0 0-.16-.17 3.28 3.28 0 0 0-.83.14 3.15 3.15 0 0 1-.72.11.17.17 0 0 0-.16.17.16.16 0 0 0 .16.16z" fill="#472e19" data-color="1"/>
            <path d="M4.37 9.7a2.71 2.71 0 0 0 .8-.16 2.38 2.38 0 0 1 .71-.15.16.16 0 0 0 0-.32 2.65 2.65 0 0 0-.8.16 2.38 2.38 0 0 1-.71.15.16.16 0 1 0 0 .32z" fill="#472e19" data-color="1"/>
            <path d="M4.55 11h.36a2.2 2.2 0 0 0 1.42-.27.16.16 0 0 0 0-.22.15.15 0 0 0-.22-.05 1.91 1.91 0 0 1-1.23.22h-.33a.16.16 0 0 0 0 .32z" fill="#472e19" data-color="1"/>
            <path d="M4.23 11.94a2.06 2.06 0 0 0 2 0 .17.17 0 0 0 0-.23.16.16 0 0 0-.22 0H6a1.73 1.73 0 0 1-1.64 0 .15.15 0 0 0-.21.07.16.16 0 0 0 .07.22z" fill="#472e19" data-color="1"/>
            <path d="M4.33 13.19a3.45 3.45 0 0 0 1.49.14.16.16 0 0 0 .18-.18.16.16 0 0 0-.21-.15 3.15 3.15 0 0 1-1.36-.12.16.16 0 0 0-.2.1.15.15 0 0 0 .1.2z" fill="#472e19" data-color="1"/>
            <path d="M4 14.28a2.83 2.83 0 0 0 1.41.3.16.16 0 1 0 0-.32A2.58 2.58 0 0 1 4.17 14a.15.15 0 0 0-.21.07.16.16 0 0 0 .07.22z" fill="#472e19" data-color="1"/>
            <path d="M9.57 17.86a4.82 4.82 0 0 0 .78-.29.15.15 0 0 0 .08-.21.16.16 0 0 0-.21-.08 4.33 4.33 0 0 1-.74.27.18.18 0 0 0-.11.2.16.16 0 0 0 .2.11z" fill="#472e19" data-color="1"/>
            <path d="M3.58 17.13a9 9 0 0 0 3.61 1s.67 0 1.33-.08a.17.17 0 0 0 .15-.18.16.16 0 0 0-.18-.14c-.65.07-1.28.08-1.29.08a9 9 0 0 1-3.46-1 .16.16 0 0 0-.22.06.17.17 0 0 0 .06.22z" fill="#472e19" data-color="1"/>
            <path d="M11.94 1.28a6.84 6.84 0 0 1 2.55 2.31.15.15 0 0 0 .22.05.15.15 0 0 0 0-.22A7.2 7.2 0 0 0 12.1 1a.16.16 0 0 0-.22.06.15.15 0 0 0 .06.22z" fill="#472e19" data-color="1"/>
            <path d="M9.32.32a7.31 7.31 0 0 1 .82.21c.22.06.43.14.64.22a.16.16 0 0 0 .22-.1.17.17 0 0 0-.1-.21l-.67-.22A7 7 0 0 0 9.38 0a.18.18 0 0 0-.19.13.17.17 0 0 0 .13.19z" fill="#472e19" data-color="1"/>
        </g>
    </g>
</svg>
