<?xml version="1.0" encoding="UTF-8"?>
<svg data-bbox="-0.011 0 413.049 116.728" viewBox="0 0 413.04 116.75" xmlns="http://www.w3.org/2000/svg" data-type="color">
    <g>
        <g>
            <path d="M340.59 109c15.67-3.35 25.55-8.46 25.55-13-1.52.94-3.05 2-4.57 2.87A127.93 127.93 0 0 1 340.59 109z" fill="#ffffff" data-color="1"/>
            <path d="M158 71.57c77.33 23.26 154.66 69.16 232-5.24-70.34 63-140.67 26.54-211-1.9 66.74 22.27 133.48 51.78 200.22-3.38-75 58.1-150.09 9.14-225.14-16.2 0-.36 117 36.57 117 31.27-61.02-14.4-118.03-52.58-175.58-52.37-72.87.18-120.09 76.27-82 65.77 20.9-6.36 45.21-19.89 66.75-21.41 34.56-2.93 69.11 8 103.65 20.34C236.16 107 288.37 128.56 340.59 109 278 122.41 214.84 98.12 158 71.57zm-4.47-13.88C147.29 59 129.85 47 126.29 47s9.94 4.69 4.87 4.69-18.93-3.75-21.75-6.57-26.25 4.5-26.25 4.5 20.63-9 35.25-9c16 0 38.8 8.59 23.82 8.59-2.44 0 17.43 7.16 11.25 8.48z" fill="#ffffff" data-color="1"/>
            <path d="M285.79 70.25s14.5 3.25 30.5-6.75 18.5-16 18.5-16-8 17.51-20.5 23.25-28.5-.5-28.5-.5z" fill="#ffffff" data-color="1"/>
            <path d="M385.47 47.5S407.29 33 407.29 20z" fill="#ffffff" data-color="1"/>
            <path d="M411.54 0s3.37 7.62 0 11 0-11 0-11z" fill="#ffffff" data-color="1"/>
            <path d="M163.41 78.87c-15-5.62-58.87-15.37-45.89-18.53S154 73.18 154 73.18s-14.25-11.93-42-17.93-43.5.75-74.16 15c-11.7 5.44-31.83 15-37 17.51 1.76 2.74 5.85 3.64 12.68 1.76 20.88-6.36 45.19-19.89 66.73-21.41 34.56-2.93 69.11 8 103.65 20.34 13.1 4.64 26.1 9.46 39.1 13.79l.44.13c-19.92-7.58-46.51-18.43-60.03-23.5z" fill="#e6e6e6" data-color="2"/>
        </g>
    </g>
</svg>
