<?xml version="1.0" encoding="UTF-8"?>
<svg data-bbox="-0.012 0.007 79.982 67.814" viewBox="0 0 80.01 67.82" xmlns="http://www.w3.org/2000/svg" data-type="color">
    <g>
        <path fill="#e56760" d="M9 26.18c-.2-.88.48-1.65 1.1-2.21a70.17 70.17 0 0 1 12.06-8.64c.35-1.31.7-2.63 1.07-3.93a18.37 18.37 0 0 0 1-5.66A5.91 5.91 0 0 0 21.66.82c-6.74-4-13.89 7.8-15.81 12.71A86 86 0 0 0 0 46.17c.12 6.38.87 14.89 5.7 19.64 2.72 2.68 6.21 1.32 7.64-2 1.56-3.61 1.28-8.54 1.75-12.42q.84-6.83 2-13.6c.57-3.24 1.22-6.46 1.91-9.67l-7.77-.6c-.89-.05-2.05-.33-2.23-1.34Z" data-color="1"/>
        <path fill="#e56760" d="M77.47 1.41c-6.75-4-13.9 7.8-15.82 12.71a85.92 85.92 0 0 0-5.83 32.63c.11 6.39.86 14.89 5.69 19.65 2.72 2.68 6.21 1.32 7.64-2 1.57-3.61 1.28-8.54 1.76-12.43q.82-6.82 2-13.6c.57-3.23 1.22-6.45 1.91-9.66l-7.77-.61c-.93-.07-2.08-.35-2.31-1.36a2.49 2.49 0 0 1 1.11-2.21 70.23 70.23 0 0 1 12.06-8.65c.35-1.31.69-2.62 1.06-3.93a18.33 18.33 0 0 0 1-5.66 5.91 5.91 0 0 0-2.5-4.88Z" data-color="1"/>
        <path fill="#e56760" d="M38.94 27.75c2.49.46 7.08-.55 6.67-3.93-.27-2.26-2.67-3-4.62-3.17-2.3-.18-5.58.57-5.62 3.45-.02 1.96 1.79 3.32 3.57 3.65Z" data-color="1"/>
        <path fill="#e56760" d="M51.22 35.41a14.76 14.76 0 0 1 1.91-6.82c.7-1.36-1.46-2.32-2.15-1a19.79 19.79 0 0 0-1.82 4.93c-2 3.5-5.91 4.18-9.57 4.33-4.53.19-7.36-1.75-10-5.1a22.53 22.53 0 0 0 1.55-6.17c.18-1.5-2.16-1.89-2.33-.37-.51 4.31-1.91 8.82-6.06 10.91-1.35.67-.5 2.88.87 2.2a12 12 0 0 0 3.64-2.82c.39 7.41-.69 15 .37 22.33.65 4.49 3.36 9.15 8.53 8.83 5.53-.35 8.75-6.07 10.37-10.69a52.48 52.48 0 0 0 2.36-9.41c.32-2.11.77-4.19 1.21-6.27a38.33 38.33 0 0 0 2.07 3.56c.81 1.29 2.71-.12 1.9-1.4-1.47-2.21-2.83-4.28-2.85-7.04ZM39.49 60.12a5 5 0 0 1-3.5 2c-4.81.06-5.56-7.38-4.29-10.71.76-2 2.32-3.82 4.32-1.95a4.84 4.84 0 0 1 1.07 3.24 7.06 7.06 0 0 1 1.87-3 2.32 2.32 0 0 1 3.18.12 3.42 3.42 0 0 1 .53 2.19 12.81 12.81 0 0 1-3.18 8.11Z" data-color="1"/>
    </g>
</svg>
