<?xml version="1.0" encoding="UTF-8"?>
<svg data-bbox="0.002 0.074 91.451 77.716" viewBox="0 0 91.45 77.82" xmlns="http://www.w3.org/2000/svg" data-type="color">
    <g>
        <path fill="#e56760" d="M91.16 10.13c.94-1.05-.6-2.6-1.54-1.55A8.61 8.61 0 0 1 83 11.75a15.94 15.94 0 0 0-.46-1.55c3.14-1.12 6-2.38 6.67-6 .24-1.38-1.87-2-2.11-.58-.5 2.83-2.69 3.61-5.15 4.48a1.4 1.4 0 0 0-.32.18A7.66 7.66 0 0 0 78.2 5a8.53 8.53 0 0 0-9 1.82c-1.93 1.74-3.33 4.19-4.41 7.72-2.89 9.46-1.88 19.73-1 28.81a16.78 16.78 0 0 0-3.43 2 17.09 17.09 0 0 0-6.51 11.83c-4.49 3.1-13.68 2.72-18.31 0a1.09 1.09 0 0 0-.4-.15 17.52 17.52 0 0 0-4.77-11.6.62.62 0 0 0 .07-.19 122.63 122.63 0 0 0 1.38-31.44c-.15-2.19-.62-8.86-5.42-11a8.52 8.52 0 0 0-9 1.81 11.7 11.7 0 0 0-1.08 1.14h-.08c-2-.86-4.7-2-4.44-4.63.13-1.4-2-1.39-2.19 0-.34 3.46 2.66 5.25 5.43 6.47a16.39 16.39 0 0 0-1 1.92 1 1 0 0 0-.73-.3 7.9 7.9 0 0 1-5.7-2.59c-1-1-2.52.53-1.55 1.54a10.1 10.1 0 0 0 7.33 3.17c-.11.31-.22.63-.32 1l-.21.77a1 1 0 0 0-.45.16c-1.59.95-4.06.4-5.46-.71-1.09-.86-2.65.67-1.54 1.55a8 8 0 0 0 6.81 1.58c-1.82 8.57-.91 17.59-.09 25.65a2 2 0 0 0 .07.23 15.1 15.1 0 0 0-3.69 2.12C4.21 47 1.27 52.89.05 56.89a1.16 1.16 0 0 0 .77 1.44 1.15 1.15 0 0 0 1.43-.77c1.12-3.68 3.8-9.06 7.68-12.1a14.27 14.27 0 0 1 17.26.16c4.67 3.57 6.69 9.76 5.28 16.15S26.68 72.75 21 74a1.15 1.15 0 0 0-.88 1.37 1.16 1.16 0 0 0 1.12.9 1 1 0 0 0 .25 0A17.15 17.15 0 0 0 33.2 66.7c.6 5.21 3.15 10.32 8.6 10.86 8.11.81 10.92-7.45 12.42-14.25 0 .16 0 .33.09.5C55.87 71 61 76.33 67.53 77.79h.25a1.15 1.15 0 0 0 .22-2.24c-5.7-1.27-10.1-6-11.49-12.25s.61-12.58 5.28-16.15a14.58 14.58 0 0 1 10.61-2.87 16.22 16.22 0 0 1 7.24 3.21c3.57 3.11 6 8.11 7.12 11.6a1.15 1.15 0 0 0 1.43.77 1.16 1.16 0 0 0 .81-1.44 30.63 30.63 0 0 0-6.62-11.56 121.52 121.52 0 0 0 1.38-29.21c2.26.66 4.7 1.34 6.78-.13 1.15-.8 0-2.7-1.1-1.89-1.76 1.24-4 .24-5.82-.29 0-.41-.08-.89-.15-1.42a10.72 10.72 0 0 0 7.69-3.79ZM19 6.29a6.3 6.3 0 0 1 6.5-1.43C27.9 6 29.24 8.93 29.59 14a122.3 122.3 0 0 1-1 29 18.62 18.62 0 0 0-5.87-2.72 38.62 38.62 0 0 0 .91-10.64 29.8 29.8 0 0 1-6.17-.66.64.64 0 0 1-.28-1.1 38.5 38.5 0 0 1 5.45-4 21.81 21.81 0 0 0-7.27-11.18A13.93 13.93 0 0 1 19 6.29Zm24.74 69a6 6 0 0 1-6.21-2.59 1.84 1.84 0 0 0 .21-.25c1.75-2.8 8.6-2.48 9.37 1.05a1.25 1.25 0 0 0 .07.23 7.12 7.12 0 0 1-3.43 1.57Zm2-8.76A4.53 4.53 0 0 1 41 66a5.35 5.35 0 0 1-1.73-4.83 31.36 31.36 0 0 0 8.31.7c.16 1.66-.29 3.9-1.82 4.67Zm25-58.06a6.29 6.29 0 0 1 6.49-1.43c2.4 1.08 3.73 4.06 4.08 9.11a122.4 122.4 0 0 1-1 28.9 15.31 15.31 0 0 0-5.86-2.75 38.75 38.75 0 0 0 .9-10.55 29.66 29.66 0 0 1-6.17-.66.65.65 0 0 1-.28-1.09 39.21 39.21 0 0 1 5.45-4 21.81 21.81 0 0 0-7.25-11.11 13.94 13.94 0 0 1 3.66-6.41Z" data-color="1"/>
        <path fill="#e56760" d="M18.43 49v-.22a1.1 1.1 0 0 0-2.19 0V49a1.1 1.1 0 0 0 2.19 0Z" data-color="1"/>
        <path fill="#e56760" d="M26.52 54a1.1 1.1 0 0 0 0-2.19h-.22a1.1 1.1 0 0 0 0 2.19Z" data-color="1"/>
        <path fill="#e56760" d="M18.43 57.91h-.22a1.1 1.1 0 0 0 0 2.19h.22a1.1 1.1 0 0 0 0-2.19Z" data-color="1"/>
        <path fill="#e56760" d="M69.39 47.63a1.1 1.1 0 0 0 0 2.19 1.1 1.1 0 0 0 0-2.19Z" data-color="1"/>
        <path fill="#e56760" d="M61.81 55.07a1.1 1.1 0 0 0 0 2.19h.37a1.1 1.1 0 0 0 0-2.19Z" data-color="1"/>
        <path fill="#e56760" d="M70.48 58.57h-.21a1.1 1.1 0 0 0 0 2.19h.21a1.1 1.1 0 0 0 0-2.19Z" data-color="1"/>
        <path fill="#e56760" d="M52.29 46.78c-2.8-5-11.46-4.57-13.93.54-.69 1.44 1.46 2.71 2.16 1.26 1.65-3.4 7.69-3.93 9.61-.53a1.25 1.25 0 0 0 2.16-1.27Z" data-color="1"/>
    </g>
</svg>
