<?xml version="1.0" encoding="UTF-8"?>
<svg data-bbox="0.046 -0.013 68.539 93.644" viewBox="0 0 68.58 93.63" xmlns="http://www.w3.org/2000/svg" data-type="color">
    <g>
        <path fill="#e56760" d="M10.15 45.85a14.15 14.15 0 0 0 3.14.29h.88a14.09 14.09 0 0 0 3.14-.29c9.36-2.11 8.92-13.92 8.73-19l-.14-3.82.1-3.78c.19-5 .63-16.85-8.73-19a14.81 14.81 0 0 0-3.1-.25h-.88a14.87 14.87 0 0 0-3.14.29C.8 2.4 1.24 14.21 1.42 19.25L1.57 23l-.15 3.86c-.18 5.07-.62 16.88 8.73 18.99ZM3.72 19.16C3.45 11.77 4.06 4 10.66 2.53a12.45 12.45 0 0 1 2.65-.23h.84a12.45 12.45 0 0 1 2.65.23c4.58 1 6.27 5.07 6.79 9.9a4.42 4.42 0 0 0-2.51-2.79 4.17 4.17 0 0 0-1.3-.18h-.39a4.17 4.17 0 0 0-1.3.18c-2.31.8-3.14 3.92-3.41 7.21A39.46 39.46 0 0 1 20 22a2.55 2.55 0 0 1 .73 1.46A1.7 1.7 0 0 1 19.49 25a4.26 4.26 0 0 1-2 .07 20.66 20.66 0 0 1-2.81-.6v.14l-.06 2.67c-.11 4.39 0 11.05 3.51 12.28a3.89 3.89 0 0 0 1.3.18h.39a3.89 3.89 0 0 0 1.3-.18 3.4 3.4 0 0 0 1.37-.91 7.71 7.71 0 0 1-5.65 5 12.45 12.45 0 0 1-2.65.23h-.84a12.45 12.45 0 0 1-2.65-.23C4.06 42.12 3.45 34.37 3.72 27l.15-4Z" data-color="1"/>
        <path fill="#e56760" d="M44.8 45.85a14.24 14.24 0 0 0 3.15.29h.87a14.09 14.09 0 0 0 3.18-.29c9.36-2.11 8.92-13.92 8.73-19l-.14-3.82.14-3.82c.19-5 .63-16.85-8.73-19A14.75 14.75 0 0 0 48.82 0H48a14.9 14.9 0 0 0-3.2.29c-9.35 2.11-8.91 13.92-8.72 19l.14 3.71-.14 3.86c-.19 5.07-.63 16.88 8.72 18.99Zm.51-43.32A12.57 12.57 0 0 1 48 2.3h.84a12.61 12.61 0 0 1 2.66.23c6.6 1.49 7.21 9.24 6.93 16.63L58.25 23v.08l.14 3.92c.28 7.39-.33 15.14-6.93 16.63a12.61 12.61 0 0 1-2.66.23H48a12.45 12.45 0 0 1-2.65-.23A7.62 7.62 0 0 1 39.84 39a2.78 2.78 0 0 0 .65.31 3.82 3.82 0 0 0 1.3.18h.38a3.82 3.82 0 0 0 1.3-.18C47 38.07 47.09 31.41 47 27c0-.89-.05-1.78-.07-2.67v-.14a21 21 0 0 1-2.81.6 4.26 4.26 0 0 1-2-.07 1.71 1.71 0 0 1-1.2-1.52 2.5 2.5 0 0 1 .74-1.46 39.46 39.46 0 0 1 5.27-5.15c-.27-3.29-1.11-6.41-3.42-7.21a4.09 4.09 0 0 0-1.3-.18h-.38a4.09 4.09 0 0 0-1.3.18 3.63 3.63 0 0 0-1.72 1.31c.69-4.03 2.49-7.25 6.5-8.16Z" data-color="1"/>
        <path fill="#e56760" d="M24.37 45.33c-.31 1.27 1.65 1.81 2 .54a2.65 2.65 0 0 1 3.25-1.61c1 .34 1.5 1.59 2 2.46a1 1 0 0 0 1.75-1c-1-1.73-2-3.46-4.2-3.54a4.59 4.59 0 0 0-4.8 3.15Z" data-color="1"/>
        <path fill="#e56760" d="M61.67 51.09c-3-2-7-.89-10.47-.07a58.64 58.64 0 0 1-20.11 1.2c-8.2-.93-32.21-8-31 7.86.28 3.86 2.77 7.32 6 9.53a21.91 21.91 0 0 0 5.56 2.72c-1.68 4.34-1.65 8 .09 11.46 1.53 3 4.43 5.59 8.4 7.4a27 27 0 0 0 11.22 2.44 25.2 25.2 0 0 0 11.07-2.5C49 87.86 53.94 80.6 54.8 72.65a1 1 0 0 0-.11-.6c5.12-2.55 9.4-7.23 10.06-12.87.35-3.02-.55-6.42-3.08-8.09ZM51.2 53.66l1.11-.27v.93c0 2.16-.37 4.75-2.73 5.22-2.85.57-4.06-2.36-4.86-4.74a62 62 0 0 0 6.48-1.14ZM21 89.1c-2.44-1.1-5.68-3.1-7.3-6.34-1.49-2.94-1.46-6 .07-9.82a8.58 8.58 0 0 1 6.45-5.19 8.15 8.15 0 0 1 1.3-.11A8.67 8.67 0 0 1 27.38 70a26.64 26.64 0 0 0-2 12.12c.06 1.3 2.09 1.31 2 0A25 25 0 0 1 29.13 71a1.12 1.12 0 0 0 .56-.29 15 15 0 0 1 12.06-4.19 15.32 15.32 0 0 1 10.72 6.34c-.91 7-5.24 13.37-11.14 16.25A24.1 24.1 0 0 1 21 89.1Zm21-34c.15 2.41-.4 5.15-2.69 5.65-3.23.72-4-2.77-4.12-5.55a57.29 57.29 0 0 0 6.75-.14Zm-17.54-1.33c2.64.45 5 .9 6.63 1.09h.46c-.19 2.5-.91 5.18-3.57 5.41-3.6.36-4.1-3.66-3.52-6.5Zm-9.38-1.21c2.15.13 4.34.41 6.43.73.06 2.12-.78 5.92-3.5 5.81A3.52 3.52 0 0 1 15 56.38a9.13 9.13 0 0 1 .08-3.82ZM9.86 59.4v.09a1 1 0 0 1-1.11.51c-1.72.42-3.28-1-4-2.46a2.3 2.3 0 0 1-.2-.61 3.35 3.35 0 0 1 2.37-3.71 15.05 15.05 0 0 1 4.12-.66c.73 2.2.51 5.44-1.18 6.84Zm51.54-2.31a4.27 4.27 0 0 1-2.31 1.85c-3.47.85-4.31-3.26-4-6.12 2-.32 6.3-.75 6.87 2a3.23 3.23 0 0 1-.56 2.27Z" data-color="1"/>
        <path fill="#e56760" d="M67 50c-1.23-1.7-3.56-3.8-5.82-3.55-1.28.14-1.3 2.17 0 2 1.61-.18 3.45 1.56 4.28 2.83a8.08 8.08 0 0 1 .82 6c-.31 1.27 1.65 1.81 2 .54A9.92 9.92 0 0 0 67 50Z" data-color="1"/>
    </g>
</svg>
