<?xml version="1.0" encoding="UTF-8"?>
<svg data-bbox="-0.013 0.034 84.065 82.977" viewBox="0 0 83.99 83.01" xmlns="http://www.w3.org/2000/svg" data-type="color">
    <g>
        <path fill="#e56760" d="M27.56 48.25a1.16 1.16 0 0 0 1-.9c1.69-7.51 1.44-15.45-.76-24.23a9.16 9.16 0 0 0 1.52-.27 1.15 1.15 0 0 0-.64-2.21c-3.69 1.06-7.45-1.59-9.55-4.19A39.59 39.59 0 0 1 15.64 11a47.22 47.22 0 0 0-3.13-5 17.62 17.62 0 0 0-2.69-2.89 1.12 1.12 0 0 0-.5-.6 1.1 1.1 0 0 0-.42-.14A10.61 10.61 0 0 0 1 .11a1.15 1.15 0 1 0 .36 2.27A8.14 8.14 0 0 1 7.21 4a56.79 56.79 0 0 0-4.74 40.42 1.12 1.12 0 0 0 .72.79 59.94 59.94 0 0 0 19.68 3.22c1.58 0 3.13-.06 4.69-.18ZM9 5.51a16 16 0 0 1 1.67 1.89 46.45 46.45 0 0 1 3 4.77 43.61 43.61 0 0 0 3.7 5.73c.2.25.43.5.66.75a41 41 0 0 0-1.21 6.21c1.6 2.07 3.14 4.19 4.62 6.34-1.59.54-3.18 1.14-4.79 1.59A41.17 41.17 0 0 0 19.84 46a56.69 56.69 0 0 1-15.29-2.75A54.53 54.53 0 0 1 9 5.51Z" data-color="1"/>
        <path fill="#e56760" d="M82.66 2.38A1.15 1.15 0 1 0 83 .11a10.59 10.59 0 0 0-7.9 2.26 1.14 1.14 0 0 0-.43.14 1.12 1.12 0 0 0-.5.6A18 18 0 0 0 71.48 6a46.22 46.22 0 0 0-3.13 5 40.51 40.51 0 0 1-3.48 5.42c-2.11 2.6-5.87 5.25-9.56 4.19a1.15 1.15 0 0 0-.64 2.21 9.16 9.16 0 0 0 1.59.28c-2.19 8.95-2.48 16.9-.86 24.25a1.16 1.16 0 0 0 1 .9c1.54.12 3.1.18 4.69.18a59.94 59.94 0 0 0 19.71-3.22 1.12 1.12 0 0 0 .72-.79A56.8 56.8 0 0 0 76.78 4a8.15 8.15 0 0 1 5.88-1.62Zm-3.21 40.87A56.45 56.45 0 0 1 64.15 46a40.91 40.91 0 0 0 3.22-13.25c-1.61-.45-3.2-1.05-4.79-1.59 1.48-2.15 3-4.27 4.62-6.34a41 41 0 0 0-1.2-6.17c.23-.25.46-.5.66-.75a42.6 42.6 0 0 0 3.7-5.73 46.45 46.45 0 0 1 3-4.77A16 16 0 0 1 75 5.51a54.59 54.59 0 0 1 4.45 37.74Z" data-color="1"/>
        <path fill="#e56760" d="M36.66 45.85c2.49 2.06 7.75 1.57 10.27-.19s2.5-3.72 1.29-5.29a8.75 8.75 0 0 0-6.79-3c-3.92.21-8.79 5.15-4.77 8.48Z" data-color="1"/>
        <path fill="#e56760" d="M46.11 60C50.48 61.11 55 58.51 57 54.63c.65-1.25 1.62-3.5.94-4.55a1.28 1.28 0 0 0-.82-.52c-1.79-.37-4.77 2.81-6.3 3.53s-4.51.7-5.82 1.91c-1.57 1.53-1.19 4.45 1.11 5Z" data-color="1"/>
        <path fill="#e56760" d="M26.91 49.56a1.28 1.28 0 0 0-.83.52c-.68 1.05.29 3.3.94 4.55 2 3.88 6.49 6.48 10.87 5.39 2.29-.57 2.67-3.49 1.09-5-1.3-1.24-4.16-1.18-5.78-1.94s-4.51-3.89-6.29-3.52Z" data-color="1"/>
        <path fill="#e56760" d="M74.31 58.8a8.55 8.55 0 0 1-7.67-7.91 1.15 1.15 0 1 0-2.3.08 10.25 10.25 0 0 0 2.12 5.74A29.64 29.64 0 0 1 44 67.35a29.64 29.64 0 0 1-22.4-10.64A10.25 10.25 0 0 0 23.72 51a1.15 1.15 0 0 0-1.11-1.19 1.18 1.18 0 0 0-1.19 1.11 8.55 8.55 0 0 1-7.67 7.91 1.15 1.15 0 0 0 .08 2.29h.08a10.41 10.41 0 0 0 6.35-2.88 25.63 25.63 0 0 0 12.52 16.4 23.52 23.52 0 0 0 2.77 1.22c.61.22 1.23.42 1.86.59l.33.09a23.627 23.627 0 0 0 3.8.71H42c.63.06 1.26.1 1.9.12h.24c.47 0 .93 0 1.39-.07l.68-.07.69-.07.91-.13.44-.07 1.05-.22.26-.06c.39-.09.78-.19 1.16-.3h.14l1.22-.38h.06c.41-.15.83-.31 1.24-.48.64-.26 1.28-.55 1.9-.87A25.65 25.65 0 0 0 67.8 58.21a10.44 10.44 0 0 0 6.36 2.88h.07a1.15 1.15 0 0 0 .08-2.29ZM52 74.4a24.5 24.5 0 0 1-7.87 1.47h-.18a24.71 24.71 0 0 1-6.16-.87A10.7 10.7 0 0 1 45 71.89h.22A10.79 10.79 0 0 1 52 74.4Z" data-color="1"/>
        <path fill="#e56760" d="M57.32 78.92c-6.53 2.8-14.81 3.12-21.28 0-1.1-.53-2.06 1.11-1 1.64 7.15 3.45 16 3.08 23.2 0 1.16-.48.19-2.11-.92-1.64Z" data-color="1"/>
    </g>
</svg>
