<?xml version="1.0" encoding="UTF-8"?>
<svg data-bbox="-0.001 -0.002 103.364 70.672" viewBox="0 0 103.31 70.67" xmlns="http://www.w3.org/2000/svg" data-type="color">
    <g>
        <path fill="#e56760" d="M37.48 39.71A1.14 1.14 0 0 0 38.9 39a1.12 1.12 0 0 0 .05-.6 18.63 18.63 0 0 0 4.4-8.3 18.41 18.41 0 0 0 .18-7.61 6.27 6.27 0 0 0 4.57-4.39 13.36 13.36 0 0 0 0-6.5l-.16-.82A17.59 17.59 0 0 1 47.38 6a1.15 1.15 0 1 0-2.29-.19 19.06 19.06 0 0 0 .56 5.46l.15.79a11.5 11.5 0 0 1 .1 5.4 3.85 3.85 0 0 1-3.16 2.89 2.81 2.81 0 0 1-.5 0 26.45 26.45 0 0 1-4.45-4L27 .5a1.15 1.15 0 1 0-1.9 1.3l3.44 5a1.41 1.41 0 0 0-.22-.06A20.17 20.17 0 0 0 13.31 9a18.79 18.79 0 0 0-7.72 23.88q-2.37.36-4.71.93a1.15 1.15 0 0 0 .54 2.24A53.8 53.8 0 0 1 7.17 35a1.09 1.09 0 0 0 .44 0l.67-.14a54.85 54.85 0 0 1 19.19 1.3 33.75 33.75 0 0 0-15.9 4.75 1.15 1.15 0 0 0 .6 2.13 1.07 1.07 0 0 0 .6-.17c7.23-4.46 16.97-5.7 24.71-3.16ZM27.81 9a17.3 17.3 0 0 1 1.88.56 37.58 37.58 0 0 1 3.06 3.91c1 1.33 2 2.74 3.21 4.16l.16.24c1.32 1.93 2.93 3.85 5 4.5a16.19 16.19 0 0 1 0 7.23 16.36 16.36 0 0 1-3.73 7.15 57.86 57.86 0 0 0-9.16-3.29q.2-1 .33-2c-4.31-1.11-8.57-2.4-12.76-3.9 4.37-.45 8.72-1.1 13-1.89a30.56 30.56 0 0 0-6.05-17.13 18.17 18.17 0 0 1 5.06.46Z" data-color="1"/>
        <path fill="#e56760" d="M102.58 35.2a44 44 0 0 0-6.52-2A18.78 18.78 0 0 0 88.52 9a20.22 20.22 0 0 0-14.69-2.3l2-2.87a1.15 1.15 0 0 0-1.9-1.3l-11 16.09c-1.26 1.85-2.8 3.73-4.62 3.73h-.09c-1.52-.05-2.74-1.49-3.17-2.89a11.59 11.59 0 0 1 .1-5.39l.16-.8a19.42 19.42 0 0 0 .56-5.46 1.15 1.15 0 0 0-2.34.19 17.33 17.33 0 0 1-.53 4.82l-.16.81a13.61 13.61 0 0 0 0 6.5 6.08 6.08 0 0 0 5.25 4.51 18.4 18.4 0 0 0 .43 5.5A18.76 18.76 0 0 0 63.35 39a1.14 1.14 0 0 0 .82.35h.07a1.16 1.16 0 0 0 1.06.58 79.7 79.7 0 0 1 14-.17A25.53 25.53 0 0 1 92 44.21a1.08 1.08 0 0 0 .68.23 1.17 1.17 0 0 0 .93-.46 1.15 1.15 0 0 0-.24-1.61 27.7 27.7 0 0 0-13.79-4.94 56 56 0 0 0-8.29-.21 42.91 42.91 0 0 1 30.5.13 1.15 1.15 0 0 0 .84-2.15ZM87.34 11a16.5 16.5 0 0 1 6.51 21.56 40.49 40.49 0 0 0-10.27-.7v-1.13c-4.44-.27-8.87-.72-13.27-1.4 4.2-1.28 8.34-2.74 12.43-4.34a30.41 30.41 0 0 0-9.39-15.8L74 9a17.87 17.87 0 0 1 13.34 2Z" data-color="1"/>
        <path fill="#e56760" d="M76.36 58.07a11.33 11.33 0 0 1-13.13-15.65 1.15 1.15 0 1 0-2.1-.94 14 14 0 0 0 1 13.06l-.2.06a31 31 0 0 1-16.43 1.89 15.62 15.62 0 0 1-5.7-1.82c-.63-.37-1.55-1.47-2.48-2.08.13-.11.26-.22.39-.35a12.79 12.79 0 0 0 3.65-10.45 1.15 1.15 0 0 0-2.29.27 10.36 10.36 0 0 1-11.54 11.49 1.15 1.15 0 1 0-.28 2.28 12.91 12.91 0 0 0 1.52.09A12.74 12.74 0 0 0 35 54.29a12.76 12.76 0 0 1 .5 2.45c1 5.48 2.25 11.44 9 13.45a12.15 12.15 0 0 0 3.49.48c5.62-.08 10.34-3.46 13.71-7.67a23.54 23.54 0 0 0 3.12-5.48 14.08 14.08 0 0 0 8.84 3.18 12.83 12.83 0 0 0 3.26-.41 1.15 1.15 0 1 0-.57-2.22Zm-30.42 9.42a7.51 7.51 0 0 1-5.47-5.26 5.63 5.63 0 0 1 6.4 2.06c1.7-1.34 4.51-.38 6.29.86a7.54 7.54 0 0 1-7.22 2.34Z" data-color="1"/>
        <path fill="#e56760" d="M43.08 36.86c-.23 4.34 5 6.6 8.64 5.44a5.63 5.63 0 0 0 4-1.87 4.39 4.39 0 0 0 .61-5.31A7.21 7.21 0 0 0 52 32.37c-3.43-.88-8.7.09-8.92 4.49Z" data-color="1"/>
    </g>
</svg>
