<?xml version="1.0" encoding="UTF-8"?>
<svg data-bbox="0.03 0 288.97 183.67" viewBox="0 0 288.98 183.62" xmlns="http://www.w3.org/2000/svg" data-type="color">
    <g>
        <g>
            <path d="M288.73 136.09a14.56 14.56 0 0 1-1.59 2.88 4.9 4.9 0 0 1-5.36 1.43 4.84 4.84 0 0 1-3.62-3.94c-.62-3.82-1.15-7.66-1.65-11.5-.38-2.9-.34-2.91-3.29-2.91H169.71c.45 3.24.88 6.31 1.3 9.38.15 1.11.33 2.22.45 3.33a5.33 5.33 0 0 1-4.52 5.83 5.16 5.16 0 0 1-5.91-4.06c-.67-3.69-1.12-7.43-1.64-11.14q-1.75-12.52-3.48-25-1.26-9.07-2.54-18.15c0-.24-.08-.47-.14-.82-2.83.67-5.61 1.32-8.39 2-1.48.35-2.94.8-4.43 1.06-1 .16-1.28.62-1.38 1.55-.71 6.35-1.47 12.7-2.22 19q-1.49 12.74-3 25.47t-3 25.47c-.89 7.58-1.74 15.16-2.68 22.73a5.06 5.06 0 0 1-3.54 4.3l-1 .38h-1.44c-.52-.19-1-.35-1.56-.58-2.38-1.08-3.37-3.32-2.94-6.56.17-1.25.3-2.5.45-3.79H11.74c-.16 1.27-.28 2.5-.47 3.72a23.78 23.78 0 0 1-.71 3.87c-.62 1.92-2.29 2.74-4.07 3.34H5.05a15.82 15.82 0 0 1-3.3-1.94 10 10 0 0 1-1.5-2.86v-1.2a1.36 1.36 0 0 0 .2-.4q1.23-10.41 2.44-20.83l3-25.36 3-25.36q1.5-12.68 3-25.47C13 70.7 14 61.45 15.14 52.21a42.33 42.33 0 0 1 7.93-20.56c4.22-5.65 9.63-9.8 16.53-11.42C66.46 13.9 93.36 7.78 120.22 1.48A32.55 32.55 0 0 1 141 3a4.32 4.32 0 0 0 1.64.23h86.27a10.12 10.12 0 0 0 1.9-.19C235.5 2.14 240.04.4 244.9.4l.17-.16h.48a7.41 7.41 0 0 0 1.13.19 29.2 29.2 0 0 1 12.66 3.17c8.18 4.26 12.32 11.4 13.76 20.18 1 6 1.73 12 2.57 18q2 14.05 3.92 28.12l4 28.59q2 14.3 4 28.48c.35 2.48.78 4.94 1.18 7.41Zm-271-14.9h106.45c1.43-12.15 2.86-24.27 4.29-36.44H22.05c-1.43 12.15-2.86 24.25-4.3 36.44Zm-5.13 43.88H119c1.43-12.18 2.86-24.27 4.3-36.54H18.4c-1 0-1.52.1-1.66 1.34-.85 7.83-1.83 15.64-2.75 23.46-.49 3.86-.93 7.75-1.39 11.74ZM271 85.42H164.59c1.38 9.88 2.75 19.66 4.11 29.44h106.39c-1.37-9.86-2.73-19.6-4.09-29.44ZM266.67 43l1.37-.07a5.27 5.27 0 0 1 5.53 4.46 5.17 5.17 0 0 1-4 5.94c-1.34.3-1.36.92-1.21 2q2.76 19.4 5.46 38.81 2.91 20.72 5.78 41.43a3.71 3.71 0 0 0 4.35 3.42 3.75 3.75 0 0 0 3.07-4.42q-1.58-11.46-3.2-22.91-1.74-12.41-3.47-24.81-1.89-13.42-3.75-26.85c-1.16-8.31-2.29-16.63-3.48-24.93-.67-4.63-1.14-9.31-2.21-13.84a25.27 25.27 0 0 0-30.54-18.77C214 8.54 187.55 14.72 161.13 20.79c-4.4 1-8.67 2.21-12.39 4.86-9 6.37-13.32 15.47-14.74 26-1.77 13.15-3.13 26.35-4.68 39.52q-2.46 20.9-4.95 41.79-2.62 22.2-5.21 44.41a4.62 4.62 0 0 0 .26 2 3.67 3.67 0 0 0 3.82 2.31 3.58 3.58 0 0 0 3.28-3.16c.67-5.19 1.27-10.39 1.88-15.58q1.5-12.69 3-25.36t3-25.48q1.62-13.75 3.22-27.5c1.17-10 2.39-19.92 3.51-29.89a35.68 35.68 0 0 1 6.15-17.17c2.94-4.11 6.69-7.32 11.68-8.49q38.6-9.05 77.24-17.94c3.76-.87 7.47-1.88 11.45-1.55 7.8.66 13.49 4.84 15.64 12.35a87.27 87.27 0 0 1 1.91 10.71c.54 3.43.98 6.87 1.47 10.38Zm-1.74-.36v-.74c-.72-5.18-1.42-10.37-2.18-15.55a20.06 20.06 0 0 0-3.2-8.81c-3.5-5-11.14-7.64-17.58-6.14L166.7 28.83c-2.91.68-5.81 1.43-8.71 2.14a1 1 0 0 0-.83 1.3c.26 1.42.39 2.85.6 4.27.29 2 .59 4.08.89 6.1ZM135.7 39.09H32.06a1.83 1.83 0 0 0-1.79 1 30.06 30.06 0 0 0-4.07 10.72c-.79 5-1.32 10.13-1.95 15.21-.3 2.44-.57 4.89-.87 7.5.51-.11.85-.17 1.18-.25l78.36-18.82q14.56-3.5 29.11-7a1.9 1.9 0 0 0 1.24-.82c.86-2.45 1.6-4.93 2.43-7.54ZM16.15 121.25C17.59 109 19 96.93 20.46 84.69h-1.65a3.68 3.68 0 0 1-3.92-3.64c0-2.12 1.59-3.59 3.91-3.64h2.51c.92-7.76 1.86-15.33 2.69-22.91a37.4 37.4 0 0 1 4.6-14.75c.11-.19.19-.41.3-.63a3.41 3.41 0 0 0-.36-.21c-1.89-.84-2.72-2.23-2.43-4a3.53 3.53 0 0 1 3.63-3c1.68-.08 3.36 0 5-.05a5.81 5.81 0 0 0 1.89-.53 37.2 37.2 0 0 1 4.91-2.16c4.48-1.19 9-2.13 13.53-3.18l11.44-2.67A10.37 10.37 0 0 1 65.33 21c-.62-2.36 1.09-4.18 3.85-4.19h24a8.7 8.7 0 0 0 1.9-.2c8.79-2 17.58-4.07 26.38-6.07 2.22-.51 4.47-.9 6.69-1.33-1.49-2-1.54-3.92.12-5.13a5.55 5.55 0 0 1 2.73-.79c1.6-.13 3.22 0 4.89 0-.08-.22-.09-.28-.11-.29a4 4 0 0 0-.45-.15 27.79 27.79 0 0 0-12.47-.28q-39.65 9.14-79.33 18.29c-5.07 1.16-9.81 2.86-13.85 6.2-7.26 6-11 14-12.59 23-.85 4.87-1.26 9.83-1.84 14.75q-1.52 12.74-3 25.47t-3 25.36l-3 25.59q-1.5 12.8-3 25.48c-.44 3.65-.9 7.29-1.25 10.87a3.79 3.79 0 0 0 3.11 4.08A3.63 3.63 0 0 0 9.25 179c.43-2.14.6-4.34.91-6.66h-2a3.55 3.55 0 0 1-3.82-3.56 3.61 3.61 0 0 1 3.78-3.64H11c1.44-12.26 2.87-24.38 4.31-36.64h-1.89a3.57 3.57 0 0 1-3.81-3.59 3.63 3.63 0 0 1 3.75-3.68c.88-.01 1.75.02 2.79.02ZM167.25 78l.05.17H270c-1.12-8-2.24-16-3.36-24.05Zm-27.83 5 1.35-.28 109.46-26.31L269 51.89a3.69 3.69 0 0 0 2.85-2.47 3.45 3.45 0 0 0-.68-3.59 3.51 3.51 0 0 0-3.64-1.26l-20.86 5-75.49 18.13q-15 3.6-29.92 7.22a1.33 1.33 0 0 0-.92.83c-.34 2.36-.62 4.73-.92 7.25ZM23.09 77.35c.31 0 .55.06.78.06H45.1a7.18 7.18 0 0 0 1.65-.26l58.45-14Q118 60 130.81 56.92c.36-.09.91-.38.95-.64.37-2.4.65-4.81 1-7.32-.59.12-1.09.21-1.58.33L24.73 74.88c-1.73.41-1.73.41-1.64 2.47Zm16.48-46 .09.51h99.36a2.1 2.1 0 0 0 1.78-.86 43.9 43.9 0 0 1 4-4.25c1-.89.52-1.77.26-2.59-.09-.3-.95-.52-1.46-.52H73.29a10.45 10.45 0 0 0-2.36.3q-12.29 2.76-24.59 5.63c-2.27.53-4.52 1.15-6.77 1.73Zm92 27.1L53.76 77.1v.23h75.55c.77-6.28 1.51-12.5 2.27-18.93Zm106-8.28v-.19h-77.9c.87 6.16 1.71 12.19 2.57 18.3Zm-118.76 116.6H8.74a6.47 6.47 0 0 0-1.08 0 1.9 1.9 0 0 0-1.73 1.72 1.82 1.82 0 0 0 1.2 2.11 4.3 4.3 0 0 0 1.52.21h109.66c.17-1.38.33-2.64.5-4.04Zm5.13-43.88H14a7.67 7.67 0 0 0-1 0 1.92 1.92 0 0 0-1.77 1.69 1.81 1.81 0 0 0 1.14 2.13 4.07 4.07 0 0 0 1.52.24h108.32c.42 0 .85 0 1.3-.06.15-1.36.29-2.62.43-4ZM129.16 79H19.51a7.26 7.26 0 0 0-1.32.06 2 2 0 0 0-1.69 2.14 2 2 0 0 0 1.83 1.89 7.75 7.75 0 0 0 1.08 0h109.24c.18-1.43.35-2.69.51-4.09Zm146.14 37.45H168a6.79 6.79 0 0 0-1.43.09 2 2 0 0 0-1.61 2.08 2 2 0 0 0 1.91 1.82 7.85 7.85 0 0 0 .84 0h108.15c-.2-1.44-.38-2.66-.56-3.99Zm-136.39-83H30.37a5.4 5.4 0 0 0-1.07.06 2.1 2.1 0 0 0-1.68 2.06 2.05 2.05 0 0 0 1.92 1.95h105.59a2.55 2.55 0 0 0 .83 0 1.75 1.75 0 0 0 .93-.53c.68-1.13 1.27-2.25 2.02-3.58Zm131.28 46.4h-105.4a9.69 9.69 0 0 0-1.08 0 2 2 0 0 0-1.8 1.92 2 2 0 0 0 1.73 2 7.79 7.79 0 0 0 1.08 0h106c-.16-1.33-.33-2.54-.53-3.96Zm-109.25-.35-6.09 1.5v.68l4 28.95c1.17 8.34 2.33 16.68 3.53 25a3.69 3.69 0 0 0 4.39 3.36 3.85 3.85 0 0 0 3-4.58c-.54-3.72-1.08-7.43-1.56-11.15-.11-.88-.35-1.21-1.29-1.24a3.42 3.42 0 0 1-3.6-3.26c-.17-2 1-3.29 3.66-4 0-.34-.06-.69-.11-1q-.91-6.64-1.84-13.28c-.65-4.67-1.29-9.34-2-14a2.14 2.14 0 0 0-.57-1.31c-2.24-1.69-2.61-2.79-1.52-5.67Zm100.25-35.08v-.21h-102.4a2.05 2.05 0 0 0-2.17 2.08 2 2 0 0 0 2.18 1.92h84.72a21.48 21.48 0 0 0 4.14-.5c1.91-.38 3.8-.9 5.7-1.36Zm-98.05-25.73-.06-.2H69a4 4 0 0 0-.6 0 1.68 1.68 0 0 0-1.62 1.63 1.59 1.59 0 0 0 1.3 1.77 7 7 0 0 0 1.66.14h78.83a11.51 11.51 0 0 0 5.57-1 12.86 12.86 0 0 1 2.84-.89c2.02-.5 4.11-.96 6.16-1.45ZM221.89 5.1v-.25H131a4.33 4.33 0 0 0-.72 0 1.69 1.69 0 0 0-1.58 1.79 1.68 1.68 0 0 0 1.54 1.71 8.29 8.29 0 0 0 1.32 0h70.53a39.52 39.52 0 0 0 10.78-1.21c2.94-.73 5.99-1.34 9.02-2.04Zm-71.45 5c1.12 2 2.22 3.92 3.19 5.87a1.46 1.46 0 0 0 1.54 1h15.1a8.17 8.17 0 0 0 1.78-.21q10.14-2.32 20.29-4.67c2.43-.56 4.85-1.14 7.27-1.71v-.2Zm-.87 33.31a.89.89 0 0 0 .21.07c2.75.61 4.34 2.09 4.73 4.43s-.63 4.15-2.95 5.65a1.3 1.3 0 0 0-.4 1c.41 3.29.86 6.57 1.32 9.85.27 2 .57 3.93.87 6l7.26-1.76c-.06-.51-.1-.94-.16-1.37-.75-5.42-1.53-10.83-2.25-16.25a1.7 1.7 0 0 0-1.12-1.58c-2.07-.9-2.89-3.7-1.33-5.19 1.32-1.26 1.24-2.47 1-3.93-.11-.55-.16-1.1-.24-1.66-.31-2.12-.61-4.24-.93-6.47a20.55 20.55 0 0 0-6.46 5.65 1.41 1.41 0 0 0-.17.89c.15 1.49.39 3.03.62 4.62Zm2.21 27.37c-.79-5.59-1.55-11-2.33-16.62-2.23.54-4.36 1-6.47 1.6-.2.06-.39.54-.42.84-.49 3.88-.95 7.76-1.41 11.64-.2 1.69-.38 3.38-.58 5.23Zm-49.45-54.16v.13h39.41c-.22-.28-.33-.45-.46-.58-4.58-4.68-10.26-5.78-16.42-4.74-4.16.7-8.25 1.85-12.36 2.8Zm49.76.23.32-.37-3.7-5.65a1.92 1.92 0 0 0-1.82-.88h-11.51c-.32 0-.64.06-1 .09a.62.62 0 0 0 .4.34 16.11 16.11 0 0 1 8.73 6 1.3 1.3 0 0 0 .88.45c2.61.03 5.15.02 7.7.02Zm-9.52 37.27c2.88-.69 5.33-1.23 7.75-1.88a3.65 3.65 0 0 0-1.6-7.12 32.06 32.06 0 0 0-3.49.8 1.13 1.13 0 0 0-.72.66c-.66 2.42-1.25 4.81-1.94 7.54Zm5-13.64-.33-.08-1.93 3.86 2.66-.67Zm1.26-16.83h-2.07c.08.42.14.76.23 1.23Z" fill="#202263" data-color="1"/>
            <path d="m288.73 136.09-.22-.12a14.57 14.57 0 0 1-1.51 2.83 4.54 4.54 0 0 1-3.46 1.62 5.76 5.76 0 0 1-1.64-.26 4.56 4.56 0 0 1-3.44-3.74c-.63-3.82-1.15-7.66-1.66-11.49-.09-.73-.16-1.28-.26-1.71a2.11 2.11 0 0 0-.32-.79 1.48 1.48 0 0 0-1.06-.56 14 14 0 0 0-1.89-.07H169.42v.29c.45 3.23.88 6.31 1.3 9.38.16 1.11.34 2.21.45 3.32a4.89 4.89 0 0 1 0 .54 5.08 5.08 0 0 1-4.35 5 4.22 4.22 0 0 1-.79.07 4.91 4.91 0 0 1-4.83-3.93c-.67-3.68-1.11-7.41-1.63-11.13q-1.75-12.52-3.48-25-1.26-9.09-2.54-18.16c0-.24-.08-.48-.15-.83v-.26l-.26.06-8.39 2c-1.49.35-2.94.8-4.41 1a1.82 1.82 0 0 0-1.17.58 2.2 2.2 0 0 0-.42 1.19c-.71 6.35-1.47 12.7-2.21 19l-3 25.47-3 25.47c-.89 7.58-1.74 15.16-2.68 22.73a4.82 4.82 0 0 1-3.37 4.1c-.34.12-.67.25-1 .38l.09.23v-.25h-1.44v.25l.09-.23c-.53-.2-1.06-.35-1.54-.57-1.93-.89-2.88-2.51-2.89-4.93a11.14 11.14 0 0 1 .09-1.38c.17-1.25.3-2.5.45-3.79v-.28H11.52v.22c-.16 1.28-.28 2.5-.46 3.72a25.8 25.8 0 0 1-.7 3.82 3.93 3.93 0 0 1-1.52 2 8.59 8.59 0 0 1-2.4 1.14l.08.24v-.25H5.05v.25l.12-.22a15.8 15.8 0 0 1-3.24-1.9 10.14 10.14 0 0 1-1.46-2.79l-.22.11H.5v-1.2H.25l.22.11A1.32 1.32 0 0 0 .7 177c.82-6.95 1.62-13.89 2.44-20.84l3-25.35 3-25.36q1.5-12.68 3-25.47c1.09-9.25 2.15-18.5 3.27-27.74a42.1 42.1 0 0 1 7.86-20.44c4.19-5.62 9.55-9.72 16.39-11.33C66.51 14.14 93.42 8 120.28 1.72a36 36 0 0 1 8.28-1 31.2 31.2 0 0 1 12.33 2.52 4.52 4.52 0 0 0 1.73.25h86.27a10.65 10.65 0 0 0 2-.19c4.72-.92 9.24-2.64 14-2.64h.1l.24-.23-.17-.18V.5h.48V.25.5a7.59 7.59 0 0 0 1.16.19 28.82 28.82 0 0 1 12.57 3.14c8.11 4.22 12.19 11.22 13.64 20 1 6 1.72 12 2.56 18L279.35 70l4 28.6q2 14.3 4 28.48c.35 2.48.79 4.94 1.18 7.41h.25-.25v1.68h.25l-.22-.12.22.12h.22v-1.72c-.4-2.47-.84-4.93-1.18-7.4q-2-14.23-4-28.48t-4-28.6q-2-14.05-3.93-28.12c-.84-6-1.58-12-2.56-18-1.45-8.88-5.64-16.06-13.9-20.36a29.42 29.42 0 0 0-12.76-3.3 7.27 7.27 0 0 1-1.1-.19H245l-.24.22.17.19V.16c-4.92 0-9.47 1.75-14.14 2.65a10.54 10.54 0 0 1-1.85.18h-86.32a4.2 4.2 0 0 1-1.54-.21A31.77 31.77 0 0 0 128.56.22a36.53 36.53 0 0 0-8.4 1C93.3 7.54 66.4 13.65 39.55 20c-7 1.64-12.44 5.83-16.68 11.53a42.56 42.56 0 0 0-8 20.67c-1.12 9.24-2.18 18.49-3.27 27.74q-1.48 12.74-3 25.47t-3 25.36-3 25.36Q1.42 166.52.2 176.94a1.7 1.7 0 0 1-.17.32v1.42a10.07 10.07 0 0 0 1.55 2.93 16 16 0 0 0 3.35 2h1.64a9.75 9.75 0 0 0 2.54-1.21 4.49 4.49 0 0 0 1.69-2.29 24.19 24.19 0 0 0 .72-3.91c.19-1.23.31-2.46.47-3.73h-.25v.25h106.38v-.25h-.25c-.15 1.29-.28 2.54-.44 3.79a10.36 10.36 0 0 0-.1 1.44 5.42 5.42 0 0 0 3.18 5.38c.52.24 1.06.4 1.57.59h1.58c.33-.12.65-.26 1-.37a5.32 5.32 0 0 0 3.7-4.51c.93-7.57 1.79-15.15 2.68-22.73l3-25.47 3-25.47c.75-6.35 1.51-12.7 2.22-19a1.63 1.63 0 0 1 .31-.93 1.36 1.36 0 0 1 .86-.41c1.52-.26 3-.71 4.44-1.06l8.4-2-.06-.24h-.25c.06.36.11.59.14.81q1.27 9.07 2.54 18.16 1.76 12.51 3.48 25c.52 3.72 1 7.45 1.64 11.15a5.4 5.4 0 0 0 5.32 4.34 5.24 5.24 0 0 0 .88-.08 5.57 5.57 0 0 0 4.76-5.5v-.6c-.12-1.12-.3-2.23-.45-3.33-.43-3.07-.85-6.14-1.3-9.38h-.25v.25h103.5a15.32 15.32 0 0 1 1.68 0 1.69 1.69 0 0 1 .64.16 1 1 0 0 1 .43.69 15.46 15.46 0 0 1 .29 1.79c.5 3.84 1 7.68 1.66 11.51a5.05 5.05 0 0 0 3.78 4.13 6 6 0 0 0 1.79.29 5 5 0 0 0 3.83-1.79 14.27 14.27 0 0 0 1.63-2.92v-.12Zm-271-14.9v.25H124.4v-.22c1.43-12.15 2.85-24.27 4.29-36.44v-.28H21.83v.22c-1.43 12.15-2.86 24.24-4.3 36.44v.28h.28v-.25h.25c1.44-12.2 2.86-24.29 4.3-36.44h-.25V85h106.36v-.25h-.25c-1.43 12.17-2.86 24.29-4.29 36.44h.25v-.25H17.75v.25H18Zm-5.13 43.88v.25h106.63v-.22c1.43-12.18 2.86-24.27 4.3-36.54v-.28H18.36a2.39 2.39 0 0 0-1.29.25 1.74 1.74 0 0 0-.6 1.32c-.85 7.82-1.83 15.63-2.75 23.45-.46 3.88-.9 7.77-1.36 11.76v.28h.28v-.25h.25c.46-4 .9-7.88 1.36-11.77.92-7.81 1.89-15.62 2.75-23.45.06-.59.21-.83.38-.95a1.88 1.88 0 0 1 1-.17h105v-.25h-.25c-1.44 12.27-2.86 24.36-4.3 36.54h.25v-.25H12.6v.25h.25ZM271 85.42v-.25H164.3v.28c1.38 9.89 2.75 19.67 4.11 29.45v.21h106.9v-.28c-1.31-9.83-2.71-19.61-4.08-29.45v-.21H271v.25h-.25c1.38 9.84 2.74 19.6 4.11 29.45h.25v-.25H168.7v.25h.25c-1.37-9.78-2.73-19.56-4.11-29.45h-.25v.25H271v-.25h-.25ZM266.67 43v.25c.58 0 1-.06 1.36-.07h.13a5 5 0 0 1 5.14 4.25 5.76 5.76 0 0 1 .06.82 4.89 4.89 0 0 1-3.88 4.84 2.07 2.07 0 0 0-1.14.55 1.37 1.37 0 0 0-.32 1 5 5 0 0 0 .07.74q2.75 19.41 5.46 38.81 2.9 20.72 5.78 41.43a4 4 0 0 0 4 3.69 5 5 0 0 0 .66-.05 3.92 3.92 0 0 0 3.33-4 4.87 4.87 0 0 0 0-.66c-1.05-7.64-2.14-15.28-3.2-22.91q-1.74-12.41-3.47-24.81-1.94-13.48-3.8-26.88c-1.16-8.31-2.29-16.62-3.49-24.93-.66-4.61-1.13-9.3-2.21-13.86a25.42 25.42 0 0 0-24.87-19.68 26.59 26.59 0 0 0-6 .68c-26.39 6.09-52.78 12.27-79.21 18.33-4.41 1-8.71 2.23-12.48 4.9-9 6.42-13.41 15.61-14.83 26.2-1.76 13.15-3.14 26.36-4.69 39.52q-2.46 20.9-4.95 41.79-2.62 22.2-5.21 44.41v.44a4.92 4.92 0 0 0 .3 1.66 3.89 3.89 0 0 0 3.7 2.49h.37a3.83 3.83 0 0 0 3.51-3.37c.67-5.2 1.27-10.4 1.88-15.59l3-25.37q1.5-12.68 3-25.47 1.62-13.75 3.22-27.5c1.17-10 2.39-19.92 3.51-29.89a35.43 35.43 0 0 1 6.11-17.05c2.92-4.09 6.61-7.24 11.53-8.4q38.6-9.06 77.24-17.94a43.7 43.7 0 0 1 9.79-1.6c.53 0 1 0 1.58.06 7.72.67 13.29 4.76 15.42 12.17A89.29 89.29 0 0 1 265 32.66c.53 3.42 1 6.86 1.47 10.38v.23h.23v-.25h.25c-.49-3.51-.93-6.95-1.47-10.38a88.94 88.94 0 0 0-1.91-10.75c-2.18-7.6-8-11.87-15.86-12.53-.55 0-1.09-.06-1.63-.06a43.74 43.74 0 0 0-9.9 1.61Q197.51 19.8 158.9 28.8c-5.07 1.19-8.86 4.45-11.82 8.6a35.93 35.93 0 0 0-6.2 17.29c-1.12 10-2.34 19.92-3.51 29.88q-1.62 13.75-3.22 27.5l-3 25.48q-1.5 12.74-3 25.36c-.61 5.2-1.21 10.39-1.88 15.58a3.32 3.32 0 0 1-3 2.94h-.33a3.38 3.38 0 0 1-3.23-2.16 4.46 4.46 0 0 1-.27-1.49v-.38q2.58-22.21 5.2-44.41 2.48-20.89 5-41.79c1.55-13.17 2.91-26.37 4.68-39.51 1.42-10.51 5.72-19.53 14.63-25.86 3.68-2.61 7.91-3.81 12.3-4.82C187.61 15 214 8.78 240.43 2.7a26.26 26.26 0 0 1 5.85-.7 24.94 24.94 0 0 1 24.39 19.28c1.07 4.51 1.53 9.18 2.2 13.81 1.19 8.31 2.32 16.62 3.48 24.93q1.88 13.41 3.74 26.83 1.74 12.41 3.47 24.81c1.07 7.63 2.16 15.27 3.2 22.91a4 4 0 0 1 0 .59 3.43 3.43 0 0 1-2.89 3.55h-.6a3.45 3.45 0 0 1-3.47-3.26l-5.78-41.43q-2.71-19.4-5.46-38.81a4.47 4.47 0 0 1-.06-.67.84.84 0 0 1 .19-.63 1.7 1.7 0 0 1 .88-.41 5.37 5.37 0 0 0 4.27-5.32 5.55 5.55 0 0 0-5.7-5.57H268c-.41 0-.81 0-1.38.07V43h.25Zm-1.74-.36h.25v-.77c-.71-5.19-1.41-10.38-2.17-15.56a20.21 20.21 0 0 0-3.25-8.92c-2.9-4.14-8.53-6.66-14.05-6.66a17.13 17.13 0 0 0-3.79.42l-75.27 17.44c-2.92.68-5.82 1.42-8.72 2.14a1.58 1.58 0 0 0-.77.4 1.12 1.12 0 0 0-.28.79 1.94 1.94 0 0 0 0 .4c.25 1.4.39 2.83.59 4.26.29 2 .6 4.07.89 6.09v.22h106.82v-.25h-.25v-.25H158.65v.25h.25q-.45-3-.89-6.09c-.21-1.42-.34-2.85-.6-4.28a1.89 1.89 0 0 1 0-.31.58.58 0 0 1 .15-.45 1 1 0 0 1 .52-.25c2.9-.72 5.8-1.47 8.71-2.14L242 11.64a16.22 16.22 0 0 1 3.68-.41c5.37 0 10.87 2.48 13.64 6.45a19.77 19.77 0 0 1 3.17 8.71c.75 5.17 1.45 10.36 2.17 15.54v.71h.25ZM135.7 39.09v-.25H32.06a2.23 2.23 0 0 0-1.19.29 2.47 2.47 0 0 0-.81.88A30.61 30.61 0 0 0 26 50.77c-.79 5-1.32 10.15-1.95 15.22-.3 2.44-.56 4.89-.86 7.5v.34l.34-.07c.49-.1.83-.16 1.18-.25L103 54.7q14.56-3.5 29.11-7a2.8 2.8 0 0 0 .81-.34 1.33 1.33 0 0 0 .6-.64c.87-2.44 1.61-4.92 2.44-7.53l.1-.33h-.34v.25l-.24-.08c-.83 2.62-1.57 5.1-2.43 7.52a.94.94 0 0 1-.39.39 2.9 2.9 0 0 1-.67.28q-14.55 3.54-29.1 7L24.5 73l-1.17.24.05.25h.25c.3-2.6.57-5.05.87-7.49.63-5.08 1.16-10.16 1.95-15.21a29.91 29.91 0 0 1 4-10.59 1.88 1.88 0 0 1 .64-.71 1.64 1.64 0 0 1 .93-.22H135.7v-.25l-.24-.08ZM16.15 121.25h.25c1.44-12.23 2.86-24.32 4.31-36.56v-.28h-1.9a3.43 3.43 0 0 1-3.67-3.39 3.2 3.2 0 0 1 1-2.41 4 4 0 0 1 2.67-1h2.73v-.22c.92-7.76 1.85-15.33 2.69-22.91a37.18 37.18 0 0 1 4.57-14.65 6.11 6.11 0 0 0 .3-.65l.1-.21-.2-.11a3.21 3.21 0 0 0-.38-.23 3.34 3.34 0 0 1-2.33-3.13 3.63 3.63 0 0 1 .05-.65 3.2 3.2 0 0 1 1.07-2 3.81 3.81 0 0 1 2.32-.82h5.04a6.07 6.07 0 0 0 2-.55 36.31 36.31 0 0 1 4.88-2.15c4.46-1.18 9-2.13 13.51-3.18l11.45-2.65.33-.08-.17-.29a10.36 10.36 0 0 1-1.2-2.13 3.51 3.51 0 0 1-.12-.88 2.76 2.76 0 0 1 1-2.14 4.29 4.29 0 0 1 2.72-.86h24a8.56 8.56 0 0 0 1.95-.21q13.2-3 26.38-6.07c2.22-.5 4.46-.89 6.69-1.33l.38-.08-.23-.31a4.67 4.67 0 0 1-1.07-2.69 2.51 2.51 0 0 1 1.13-2.09 5.42 5.42 0 0 1 2.65-.77c.64-.06 1.29-.07 1.95-.07h3.27l-.12-.33a1.63 1.63 0 0 1-.07-.22v-.08a.29.29 0 0 0-.15-.14 3.13 3.13 0 0 0-.49-.16 33.19 33.19 0 0 0-7.26-.87 23 23 0 0 0-5.32.59C96.39 8.4 69.94 14.57 43.48 20.62c-5.09 1.16-9.87 2.87-13.95 6.24-7.32 6-11.12 14.08-12.69 23.2C16 55 15.58 59.9 15 64.82q-1.52 12.74-3 25.47t-3 25.36q-1.5 12.79-3 25.6t-3 25.47c-.43 3.61-.88 7.22-1.27 10.84a2.75 2.75 0 0 0 0 .41A4 4 0 0 0 5 181.91a3.56 3.56 0 0 0 .65.05 3.82 3.82 0 0 0 3.8-2.88c.44-2.16.61-4.36.92-6.68v-.28H8.12a3.76 3.76 0 0 1-2.58-.93 3.2 3.2 0 0 1-1-2.38 3.36 3.36 0 0 1 3.53-3.37h3.13v-.22c1.44-12.26 2.87-24.38 4.31-36.64v-.28h-2.09a3.78 3.78 0 0 1-2.58-1 3.2 3.2 0 0 1-1-2.38 3.25 3.25 0 0 1 1-2.39 3.78 3.78 0 0 1 2.55-1h3v-.22h-.25V121h-2.8a4.33 4.33 0 0 0-2.88 1.16 3.76 3.76 0 0 0-1.11 2.75 3.69 3.69 0 0 0 1.14 2.74 4.34 4.34 0 0 0 2.91 1.09h1.88v-.25h-.25c-1.44 12.26-2.87 24.38-4.31 36.64h.25v-.25h-2.9a3.86 3.86 0 0 0-4 3.87 3.71 3.71 0 0 0 1.15 2.73 4.23 4.23 0 0 0 2.92 1.07h2v-.25h-.25c-.31 2.33-.47 4.52-.91 6.64a3.32 3.32 0 0 1-3.31 2.48 3.64 3.64 0 0 1-.57 0A3.54 3.54 0 0 1 2.2 178a2.17 2.17 0 0 1 0-.36c.38-3.61.84-7.22 1.27-10.83l3-25.48q1.51-12.8 3-25.59t3-25.36l3-25.47c.58-4.93 1-9.88 1.83-14.74 1.57-9 5.31-16.93 12.51-22.89 4-3.3 8.7-5 13.75-6.14C70.06 15.06 96.5 8.89 123 2.77a23.16 23.16 0 0 1 5.21-.57 32.88 32.88 0 0 1 7.15.86 2.83 2.83 0 0 1 .42.13l.08-.2-.2.1.12.1.08-.2-.2.1h.07-.07.07-.07s0 .11.08.26l.24-.09V3h-2.92c-.67 0-1.33 0-2 .07a5.82 5.82 0 0 0-2.9.87 3 3 0 0 0-1.34 2.49 5.11 5.11 0 0 0 1.17 3l.2-.14-.09-.29c-2.22.44-4.47.82-6.7 1.33-8.8 2-17.59 4.06-26.38 6.07a8 8 0 0 1-1.84.2h-24a4.79 4.79 0 0 0-3 1A3.21 3.21 0 0 0 65 20.1a4 4 0 0 0 .14 1 10.1 10.1 0 0 0 1.25 2.27l.21-.13V23l-11.55 2.68c-4.51 1-9 2-13.53 3.18a36.54 36.54 0 0 0-5 2.17 5.6 5.6 0 0 1-1.81.51h-4.98a4.28 4.28 0 0 0-2.62.94 3.66 3.66 0 0 0-1.24 2.29 4.59 4.59 0 0 0-.06.73 3.87 3.87 0 0 0 2.62 3.59 2.21 2.21 0 0 1 .34.2l.13-.22-.23-.1c-.11.23-.19.44-.28.61a37.59 37.59 0 0 0-4.64 14.85c-.83 7.57-1.77 15.14-2.68 22.9h.24v-.25H18.8a4.48 4.48 0 0 0-3 1.11 3.76 3.76 0 0 0-1.16 2.78 3.93 3.93 0 0 0 4.17 3.89h1.65v-.25h-.25C18.77 96.9 17.34 109 15.9 121.22h.25ZM167.25 78l-.24.07.05.17.05.18h103.15v-.29c-1.13-8-2.24-16-3.36-24v-.27l-.27.06-99.44 23.82-.25.06.07.25.24-.07.06.25 99.36-23.88-.06-.25h-.25c1.13 8 2.24 16 3.36 24h.25v-.2H167.3v.25l.24-.07v-.17l-.24.07.06.25Zm-27.83 5 .05.24 1.35-.28 109.47-26.31c6.25-1.5 12.49-3 18.74-4.51a4 4 0 0 0 3-2.64 4.24 4.24 0 0 0 .25-1.38 3.7 3.7 0 0 0-1-2.46 3.87 3.87 0 0 0-2.93-1.45 4.07 4.07 0 0 0-1 .12l-20.85 5-75.37 18.13c-10 2.4-20 4.78-29.93 7.21a1.77 1.77 0 0 0-.68.38 1.2 1.2 0 0 0-.43.66c-.36 2.37-.61 4.75-.92 7.27v.34l.34-.07-.05-.24h.25c.3-2.53.56-4.9.91-7.26a.83.83 0 0 1 .26-.35 1.49 1.49 0 0 1 .48-.27q15-3.64 29.92-7.22L246.7 49.8l20.85-5a3.25 3.25 0 0 1 .85-.11A3.34 3.34 0 0 1 271 46a3.18 3.18 0 0 1 .84 2.13 3.62 3.62 0 0 1-.22 1.22 3.46 3.46 0 0 1-2.67 2.31c-6.25 1.49-12.49 3-18.74 4.51l-109.5 26.31c-.38.09-.77.16-1.34.28v.25h.25ZM23.09 77.35v.24c.3 0 .54.07.8.07H45.1a7.35 7.35 0 0 0 1.71-.26l58.45-14q12.81-3.08 25.61-6.19a2.39 2.39 0 0 0 .67-.28 2.26 2.26 0 0 0 .29-.23.62.62 0 0 0 .18-.34c.37-2.4.64-4.81 1-7.32v-.34l-.34.07c-.59.12-1.09.2-1.59.32L24.67 74.64a4 4 0 0 0-1.46.5 1 1 0 0 0-.33.51 2.51 2.51 0 0 0-.07.71v1.22h.21v-.24h.25v-1a2.52 2.52 0 0 1 .05-.57c.06-.19.12-.25.33-.36a8.86 8.86 0 0 1 1.09-.31L131.2 49.53c.47-.12 1-.2 1.57-.32l-.05-.25h-.25c-.31 2.51-.59 4.92-.95 7.31a.82.82 0 0 1-.28.23 2.26 2.26 0 0 1-.49.21Q118 59.8 105.14 62.86q-29.22 7-58.45 14a6.83 6.83 0 0 1-1.59.25H23.87c-.2 0-.44 0-.75-.06v.25h.25Zm16.48-46-.25.05.09.5v.21H139a2.38 2.38 0 0 0 2-.95 42.42 42.42 0 0 1 4-4.23 1.81 1.81 0 0 0 .69-1.4 4.88 4.88 0 0 0-.36-1.46.67.67 0 0 0-.3-.34 3.09 3.09 0 0 0-1.4-.35h-70.3a10.91 10.91 0 0 0-2.42.3q-12.31 2.82-24.63 5.7c-2.27.53-4.52 1.15-6.77 1.73l-.23.06v.23l.25-.05.06.24c2.26-.58 4.5-1.2 6.77-1.73Q58.7 26.93 71 24.12a10.74 10.74 0 0 1 2.31-.29h70.31a2.76 2.76 0 0 1 .81.14 1.88 1.88 0 0 1 .33.13l.07.06a4.79 4.79 0 0 1 .34 1.31 1.29 1.29 0 0 1-.52 1 44.42 44.42 0 0 0-4.07 4.28 1.84 1.84 0 0 1-1.6.78H39.66v.25h.25l-.1-.5h-.24l.06.24Zm92 27.1-.06-.24L53.7 76.86h-.22l.06.45v.22h76v-.22c.74-6.29 1.47-12.5 2.23-18.93l.05-.36-.35.09.06.24h-.25c-.76 6.43-1.5 12.65-2.24 18.93h.25v-.25h-75.5v.25h.25v-.22h-.24l.06.25 77.81-18.71v-.24h-.25Zm106-8.28h.25v-.44h-78.47v.29c.86 6.15 1.7 12.18 2.56 18.29v.28l.27-.07 75.33-18.1h.19v-.2h-.25l-.06-.24L162.14 68l.06.25h.24c-.85-6.11-1.7-12.14-2.56-18.29h-.25v.25h77.9v-.25h-.25v.19h.25l-.06-.24Zm-118.76 116.6v-.25H8.2a3.86 3.86 0 0 0-.58 0 2.33 2.33 0 0 0-1.32.62 2.36 2.36 0 0 0-.62 1.32 2.55 2.55 0 0 0 0 .39 2 2 0 0 0 1.38 2 4.49 4.49 0 0 0 1.61.23h109.86v-.22c.17-1.42.33-2.68.5-4.08v-.28h-.28v.25h-.25c-.17 1.4-.32 2.66-.5 4.08h.25v-.25H8.65a4.1 4.1 0 0 1-1.43-.19 1.51 1.51 0 0 1-1.06-1.52 2 2 0 0 1 .49-1.35 1.75 1.75 0 0 1 1-.48 2.78 2.78 0 0 1 .51 0h110.65v-.25h-.25Zm5.13-43.88v-.25H12.96a2.36 2.36 0 0 0-1.32.59 2.2 2.2 0 0 0-.66 1.3 3.42 3.42 0 0 0 0 .45 2 2 0 0 0 1.34 2 4.25 4.25 0 0 0 1.61.26h108.28c.44 0 .86 0 1.31-.06h.22v-.21c.15-1.39.29-2.64.43-4v-.28h-.28v.25h-.24c-.15 1.39-.29 2.64-.43 4h.24v-.25c-.46 0-.88.06-1.29.06H13.89a3.82 3.82 0 0 1-1.42-.22 1.51 1.51 0 0 1-1-1.49 1.61 1.61 0 0 1 0-.37 1.68 1.68 0 0 1 .5-1 1.89 1.89 0 0 1 1-.46 2.23 2.23 0 0 1 .37 0h110.6v-.25h-.24ZM129.16 79v-.25H19a5 5 0 0 0-.86.06 2.27 2.27 0 0 0-1.9 2.19v.2a2.25 2.25 0 0 0 .62 1.45 2.45 2.45 0 0 0 1.42.66 3.82 3.82 0 0 0 .67 0h109.92v-.22c.17-1.43.33-2.69.5-4.12v-.28h-.28V79h-.25c-.18 1.43-.33 2.69-.51 4.12h.25v-.25H19a3.76 3.76 0 0 1-.59 0 2 2 0 0 1-1.15-.52 1.76 1.76 0 0 1-.47-1.14V81a1.78 1.78 0 0 1 1.5-1.72 4.75 4.75 0 0 1 .77 0h110.1V79h-.25Zm146.14 37.45v-.25H167.62a5.49 5.49 0 0 0-1.13.09 2.24 2.24 0 0 0-1.81 2.15v.2a2.28 2.28 0 0 0 2.14 2h109.36v-.29c-.2-1.42-.38-2.66-.57-4v-.22h-.21v.25h-.25c.19 1.33.36 2.57.56 4h.25v-.25H166.87a1.77 1.77 0 0 1-1.68-1.59v-.16a1.73 1.73 0 0 1 1.42-1.66 4.8 4.8 0 0 1 1-.08H275.3v-.25h-.25Zm-136.39-83v-.25H30a4.16 4.16 0 0 0-.78.06 2.35 2.35 0 0 0-1.88 2.25v.07a2.28 2.28 0 0 0 2.15 2.18 5.44 5.44 0 0 0 .57 0h105.52a1.85 1.85 0 0 0 .39-.06 1.89 1.89 0 0 0 1.06-.64c.69-1.08 1.28-2.21 2-3.54l.21-.37h-.42v.25l-.22-.12c-.75 1.33-1.34 2.45-2 3.52a1.72 1.72 0 0 1-.8.43.75.75 0 0 1-.23 0H29.52a1.8 1.8 0 0 1-1.69-1.71v-.05a1.86 1.86 0 0 1 1.48-1.76 3.69 3.69 0 0 1 .68-.05h108.92v-.25l-.22-.12Zm131.28 46.4v-.25h-106a4.89 4.89 0 0 0-.54 0 2.22 2.22 0 0 0-2 2.16v.05a2.29 2.29 0 0 0 2 2.2 3.86 3.86 0 0 0 .58 0H271v-.28c-.19-1.33-.36-2.55-.56-4v-.22h-.22v.25h-.25c.21 1.41.38 2.62.56 4h.25v-.25H164.19a4.12 4.12 0 0 1-.51 0 1.8 1.8 0 0 1-1.52-1.71 1.72 1.72 0 0 1 1.58-1.67 3.64 3.64 0 0 1 .48 0h106v-.25h-.25Zm-109.25-.35-.06-.24-6.09 1.47h-.2v.97q2 14.48 4 28.94 1.74 12.51 3.52 25a3.93 3.93 0 0 0 4 3.62 4.56 4.56 0 0 0 .73-.05 4 4 0 0 0 3.27-4.13 4.71 4.71 0 0 0-.06-.74c-.54-3.71-1.09-7.43-1.56-11.14a1.76 1.76 0 0 0-.4-1.08 1.57 1.57 0 0 0-1.13-.38 3.56 3.56 0 0 1-2.38-.87 3.22 3.22 0 0 1-1-2.16v-.36a2.71 2.71 0 0 1 .82-2.06 5.78 5.78 0 0 1 2.67-1.31h.21v-.21c0-.34 0-.69-.1-1q-.91-6.64-1.84-13.29c-.65-4.66-1.29-9.33-2-14a4.25 4.25 0 0 0-.2-.8 1.44 1.44 0 0 0-.48-.68 6.77 6.77 0 0 1-1.61-1.45 2.39 2.39 0 0 1-.49-1.5 7.06 7.06 0 0 1 .57-2.39l.17-.44-.46.11.06.24-.24-.09a7.71 7.71 0 0 0-.6 2.57 2.93 2.93 0 0 0 .58 1.79 7.51 7.51 0 0 0 1.73 1.56.94.94 0 0 1 .3.46 2.9 2.9 0 0 1 .17.69c.68 4.66 1.32 9.32 2 14q.93 6.65 1.84 13.29c.05.33.07.68.11 1h.25l-.07-.24a6.26 6.26 0 0 0-2.89 1.43 3.23 3.23 0 0 0-1 2.42v.4a3.71 3.71 0 0 0 1.14 2.49 4.07 4.07 0 0 0 2.7 1c.45 0 .67.1.79.23a1.35 1.35 0 0 1 .27.79c.47 3.72 1 7.44 1.56 11.15a5.16 5.16 0 0 1 .05.67 3.5 3.5 0 0 1-2.85 3.63 3.63 3.63 0 0 1-.65.05 3.42 3.42 0 0 1-3.45-3.2c-1.2-8.33-2.36-16.68-3.53-25q-2-14.46-4-28.94v-.66h-.25l.06.25 6.08-1.56-.06-.25-.24-.09Zm100.25-35.08h.25V44H158.78a2.74 2.74 0 0 0-1.74.68 2.1 2.1 0 0 0-.67 1.59v.06a2.11 2.11 0 0 0 .7 1.54 2.75 2.75 0 0 0 1.72.63h84.71a20.87 20.87 0 0 0 4.18-.51c1.93-.38 3.82-.9 5.72-1.36l7.87-1.91h.22v-.23h-.25l-.06-.24-7.87 1.91c-1.9.46-3.79 1-5.69 1.35a21.26 21.26 0 0 1-4.09.5h-84.72a2.22 2.22 0 0 1-1.41-.5 1.6 1.6 0 0 1-.53-1.18v-.05a1.66 1.66 0 0 1 .51-1.23 2.3 2.3 0 0 1 1.42-.54h102.36v-.25h-.25v.21h.25l-.06-.24Zm-98.05-25.73.24-.06-.06-.21v-.18H68.39a2.17 2.17 0 0 0-1.3.58 2 2 0 0 0-.54 1.28v.18a1.87 1.87 0 0 0 .39 1.19 2 2 0 0 0 1.11.66 7.19 7.19 0 0 0 1.72.15h78.89a11.49 11.49 0 0 0 5.62-1.06 13.18 13.18 0 0 1 2.79-.87c2-.51 4.09-1 6.14-1.45l.25-.06-.07-.25-.24.06-.06-.24c-2 .48-4.1.95-6.14 1.46a12.67 12.67 0 0 0-2.9.91 11.14 11.14 0 0 1-5.39 1H69.77a7.1 7.1 0 0 1-1.61-.14 1.54 1.54 0 0 1-.83-.48 1.38 1.38 0 0 1-.28-.88v-.14a1.45 1.45 0 0 1 .4-1 1.63 1.63 0 0 1 1-.43h94.63v-.25l-.24.07.06.2.24-.07-.06-.24ZM221.89 5.1h.25v-.5h-91.56a1.8 1.8 0 0 0-.39 0 2.2 2.2 0 0 0-1.3.64 1.94 1.94 0 0 0-.49 1.36 1.91 1.91 0 0 0 .5 1.4 2.22 2.22 0 0 0 1.25.62 3.76 3.76 0 0 0 .74.06h71.31a40 40 0 0 0 10.66-1.21c3-.82 6-1.43 9.05-2.13h.2v-.25h-.25l-.06-.24c-3 .7-6.07 1.31-9.07 2.13a39.28 39.28 0 0 1-10.53 1.2h-71.31a3.36 3.36 0 0 1-.65-.05 1.77 1.77 0 0 1-1-.47 1.43 1.43 0 0 1-.36-1 1.39 1.39 0 0 1 .36-1 1.75 1.75 0 0 1 1-.49 1.42 1.42 0 0 1 .3 0h91.3v-.32h-.25v.25h.25l-.06-.24Zm-71.45 5-.22.12c1.12 2 2.23 3.92 3.19 5.87a1.69 1.69 0 0 0 1.73 1.08h15.11a8.55 8.55 0 0 0 1.82-.22q10.16-2.31 20.3-4.66c2.43-.56 4.85-1.15 7.27-1.72l.23-.05-.07-.43v-.21H150l.21.37.22-.12v.25h49.14v-.25h-.24v.21h.24l-.05-.25c-2.43.58-4.85 1.16-7.27 1.72q-10.15 2.34-20.3 4.66a7.71 7.71 0 0 1-1.72.21h-15.1a1.33 1.33 0 0 1-.77-.17 1.47 1.47 0 0 1-.51-.64c-1-2-2.09-3.85-3.2-5.89l-.22.13Zm-.87 33.31-.08.24.24.08a6.6 6.6 0 0 1 3.13 1.5 4.66 4.66 0 0 1 1.41 2.72 5.27 5.27 0 0 1 .07.87c0 1.76-1 3.26-2.91 4.53a1.15 1.15 0 0 0-.39.51 1.56 1.56 0 0 0-.14.63v.13c.41 3.29.86 6.57 1.32 9.85.27 2 .57 3.93.87 6v.27l.27-.06 7.25-1.76h.22v-.22c0-.51-.09-.94-.15-1.38-.76-5.41-1.53-10.83-2.25-16.24a2.51 2.51 0 0 0-.35-1.06 2 2 0 0 0-.92-.72 3.37 3.37 0 0 1-2-3 2.42 2.42 0 0 1 .73-1.78 3.51 3.51 0 0 0 1.21-2.68 7.57 7.57 0 0 0-.18-1.47c-.1-.54-.15-1.09-.24-1.65-.3-2.12-.6-4.24-.92-6.48l-.06-.36-.31.18a20.94 20.94 0 0 0-6.54 5.72 1.43 1.43 0 0 0-.23.84v.23c.2 1.54.43 3.08.66 4.68v.15l.15.05.08-.24h.25c-.23-1.6-.47-3.14-.66-4.67v-.17a1 1 0 0 1 .13-.54 20.43 20.43 0 0 1 6.38-5.59l-.12-.21h-.25c.32 2.24.63 4.36.93 6.48.08.55.13 1.11.24 1.67a7 7 0 0 1 .17 1.38 3 3 0 0 1-1 2.32 2.92 2.92 0 0 0-.89 2.14 3.84 3.84 0 0 0 2.31 3.33 1.55 1.55 0 0 1 .71.53 2.08 2.08 0 0 1 .29.84c.72 5.42 1.5 10.84 2.25 16.25.06.42.1.85.16 1.37h.25l-.06-.24-7.26 1.75.06.25h.24c-.29-2-.59-4-.86-6-.46-3.28-.92-6.56-1.32-9.84v-.07a1.21 1.21 0 0 1 .1-.43.74.74 0 0 1 .2-.29c2-1.31 3.15-3 3.14-4.95a5.55 5.55 0 0 0-1.64-4 7 7 0 0 0-3.37-1.63l-.18-.06-.08.23h.25Zm2.21 27.37h.24l-2.32-16.71v-.27l-.27.06c-2.23.55-4.36 1-6.47 1.61a.66.66 0 0 0-.28.19 1.9 1.9 0 0 0-.33.86c-.49 3.88-.95 7.76-1.41 11.64-.2 1.69-.38 3.38-.58 5.23v.36l.35-.09L151.83 71h.22v-.22h-.24l-.06-.24-11.21 2.69.06.24h.25c.2-1.85.38-3.54.58-5.23q.69-5.82 1.4-11.64a2.15 2.15 0 0 1 .13-.44L143 56v-.06.06-.06.06c2.1-.56 4.22-1.06 6.46-1.6l-.06-.24h-.25c.79 5.6 1.55 11 2.33 16.63h.25l-.06-.24Zm-49.45-54.16-.25.05V17h40.14l-.32-.4c-.22-.28-.33-.44-.48-.61A16.78 16.78 0 0 0 129 10.82a24.44 24.44 0 0 0-4.13.36c-4.18.71-8.27 1.86-12.38 2.81l-10.2 2.39-.24.05v.24l.25-.05.06.25 10.19-2.39c4.13-1 8.21-2.11 12.35-2.81a24.63 24.63 0 0 1 4-.35 16.28 16.28 0 0 1 12.15 5 5.65 5.65 0 0 1 .44.57l.2-.16v-.23h-39.33v.25l.24-.05v-.13l-.24.05.06.25Zm49.76.23.19.16.32-.36.12-.14-.1-.16-3.7-5.66a2.17 2.17 0 0 0-2-1h-11.56a9.83 9.83 0 0 0-1 .09h-.37l.18.34a.8.8 0 0 0 .55.45 16 16 0 0 1 8.6 5.89 1.51 1.51 0 0 0 1.07.56h7.78l.08-.09-.19-.16v-.17h-7.66a1 1 0 0 1-.67-.35 16.51 16.51 0 0 0-8.86-6.07c-.13-.05-.15 0-.26-.22l-.22.12v.25c.33 0 .65-.09.94-.09h11.56a1.65 1.65 0 0 1 1.57.77l3.7 5.65.21-.14-.19-.16-.32.36.19.17Zm-9.52 37.27.05.24c2.89-.69 5.34-1.23 7.76-1.87a3.87 3.87 0 0 0 2.85-3.76 4.45 4.45 0 0 0-.08-.81 3.87 3.87 0 0 0-4.47-3.05 31.91 31.91 0 0 0-3.51.81 1.44 1.44 0 0 0-.55.31 1.1 1.1 0 0 0-.35.52c-.66 2.41-1.25 4.82-2 7.55l-.1.4.4-.1-.05-.24.24.06c.69-2.73 1.29-5.14 1.94-7.54a.62.62 0 0 1 .21-.28.88.88 0 0 1 .34-.2 32.07 32.07 0 0 1 3.46-.8 4 4 0 0 1 .59 0 3.35 3.35 0 0 1 3.36 2.64 4.38 4.38 0 0 1 .07.71 3.34 3.34 0 0 1-2.48 3.29c-2.41.65-4.85 1.18-7.74 1.88l.06.24.24.06Zm5-13.64.06-.24-.33-.08h-.19l-.09.18-1.93 3.86-.25.49.53-.13 2.66-.68h.22v-.22c-.14-1.09-.28-2.1-.41-3.11v-.17h-.16l-.06.24h-.25l.4 3.11h.25l-.06-.24-2.66.67.06.24.22.11c.73-1.44 1.33-2.65 1.94-3.86l-.23-.11-.06.24.32.08.07-.24h-.25Zm1.26-16.83v-.25h-2.37l.06.29c.07.43.14.76.22 1.24l.07.37.32-.21 1.87-1.24.69-.45h-.83v.25l-.13-.21-1.85 1.23.14.21h.25L147 23.6h-.25v.25h2.07v-.25l-.13-.21Z" fill="#202263" data-color="1"/>
        </g>
    </g>
</svg>
