<?xml version="1.0" encoding="UTF-8"?>
<svg data-bbox="0 0 207.23 286.47" viewBox="0 0 207.18 286.42" xmlns="http://www.w3.org/2000/svg" data-type="color">
    <g>
        <path d="M173 286.29c-2.09-.24-4.19-.44-6.27-.72a31.32 31.32 0 0 1-10-2.68c-2.15-1.07-4.12-2.5-6.22-3.8v1.9c0 .72-.25 1.24-1.16 1.23h-11c-1.2 0-1.25-.67-1.25-1.55v-27.12c0-1.08-.27-1.49-1.35-1.74-6.46-1.47-12.93-2.93-19.34-4.61a29.79 29.79 0 0 1-13.78-7.4s-.15 0-.35 0v40.76c0 1.68 0 1.68-1.66 1.68H90.48c-1.57 0-1.62 0-1.62-1.62v-96.95c0-9.92 0-19.84.08-29.76v-1.52H77.18v125.89a9.8 9.8 0 0 1-.12 1.79 3.23 3.23 0 0 1-6.4-.4c-.08-1.8 0-3.6 0-5.49H41.1v4.66c0 2.49-1.16 3.87-3.23 3.88s-3.25-1.42-3.25-3.86V152.4H21.74v127.69c0 2.12 0 2.12-2.12 2.12H9.78c-1.09 0-1.46-.36-1.46-1.46V55.42l-1.07.32A5.53 5.53 0 0 1 1 53.62a5.56 5.56 0 0 1 .31-6.59c.22-.28.48-.54.73-.8q20.39-20.29 40.7-40.62C48.52-.15 56.46-1.5 63.3 2.17a16.1 16.1 0 0 1 3.77 2.72q20.88 20.79 41.68 41.64a5.41 5.41 0 0 1 1.58 5.69 5 5 0 0 1-4.09 3.78 18.07 18.07 0 0 1-3.85-.15v59.31l5.32.24c11.26.48 22.53.83 33.78 1.47 11.64.66 23.29 1.45 34.91 2.49a146.43 146.43 0 0 1 14.6 2.55c6.36 1.23 10.35 5.3 12.94 11a34 34 0 0 1 2.89 12.09 13.18 13.18 0 0 0 .23 1.4v7c-.08.46-.2.92-.24 1.38a34.27 34.27 0 0 1-7.22 19A51 51 0 0 1 186.72 185c-11 6.88-22.28 13.15-33.83 19-1.58.8-2.41 1.52-2.36 3.49.09 2.93-.1 2.91 2.52 3.94a168.58 168.58 0 0 1 21.12 10.47 177.24 177.24 0 0 1 22.57 14.72 20 20 0 0 1 7.48 12.41 90.47 90.47 0 0 1 1.36 19.57 25.33 25.33 0 0 1-.45 5.59c-1 3.81-3.55 6.45-6.91 8.35a28.91 28.91 0 0 1-9.88 3.14c-1.75.27-3.52.48-5.28.72ZM101.62 236a17.48 17.48 0 0 1 5.17-8 68.7 68.7 0 0 1 5.74-4.9c7.54-5.6 15.84-9.89 24.34-13.8 4.49-2.07 9.2-3.71 13.59-6 8.2-4.22 16.28-8.68 24.34-13.16a118.44 118.44 0 0 0 16.47-10.47c5.11-4.07 9.45-8.77 11.73-15 3.23-8.87 3.14-17.93 1-27a44.81 44.81 0 0 0-1.88-5.15l-.32.09a15.62 15.62 0 0 1-2.73 6.72 43.85 43.85 0 0 1-12.54 11.89 162.22 162.22 0 0 1-21.85 11.93c-5.28 2.35-10.77 4.23-16.07 6.54A195.72 195.72 0 0 0 120 184.91c-5.82 3.77-11.42 7.82-15.88 13.23a16 16 0 0 0-4.13 9.37c-.11 1.87-.41 3.73-.55 5.61a78.82 78.82 0 0 0 .42 17.57 10.86 10.86 0 0 0 1.76 5.31Zm-24.68-96.18V89.97a19.08 19.08 0 0 0-.34-3.7c-1.74-8.94-8.84-15.42-18.22-16.75C45.9 67.74 33.46 77 33.68 90.84c.25 15.75.06 31.51.06 47.27v1.75a11.92 11.92 0 0 0 2.22-.79 3.48 3.48 0 0 1 3.84 0 3.07 3.07 0 0 0 1.51.49h29.15a2.78 2.78 0 0 0 1.41-.44 3.32 3.32 0 0 1 4 0c.27.23.53.37 1.07.7Zm-44.8-.27V90.43a24.53 24.53 0 0 1 .86-6.5c3.86-13.57 20.1-20.45 33.38-13.51 8 4.19 12.13 11 12.15 20.11v29.28c0 5.36 0 10.71-.07 16.07v3.66h10.41V55.26l-67.06-.45v84.74ZM10 54.24v226.33h10.1V54.67Zm80.5.95v225.35h10.14v-42.19a2 2 0 0 0-.22-1c-2-2.85-2.29-6.18-2.6-9.48a97.45 97.45 0 0 1 .26-18.55c.29-3.08.68-6.12 2.36-8.83a2.07 2.07 0 0 0 .2-1v-42.47a2.35 2.35 0 0 0-.3-.94c-.19-.43-.61-.84-.62-1.26v-38.39a3.2 3.2 0 0 1 .34-1.09c.18-.46.57-.9.58-1.35.06-4.72.06-9.44.06-14.16V55.19Zm59.18 112.32c2.75-1.36 5.36-2.63 7.94-4a3.58 3.58 0 0 0 1.35-1.27 18.31 18.31 0 0 0 2.48-10.46c-.34-7.58-3.22-13.64-10.19-17.39a59.35 59.35 0 0 0-15.63-5.55 154.09 154.09 0 0 0-33.46-3.16 4.35 4.35 0 0 0-.75.12v28.51h.91a161.57 161.57 0 0 1 21.55.68 62 62 0 0 1 15.76 3.41c4.42 1.73 8.45 3.96 10.05 9.11Zm.77 59.14v10a1.83 1.83 0 0 0 .65 1.15c1 1 2.14 1.81 3.11 2.81 5.95 6.11 7.52 13.45 6.17 21.68-.7 4.25-1.15 8.54-1.73 12.8-.17 1.22.36 1.74 1.49 2.11a61.23 61.23 0 0 0 19.47 2.84 33.51 33.51 0 0 0 12.39-1.92 1.28 1.28 0 0 0 .95-1.4 41.75 41.75 0 0 0-12.37-30.46c-6.4-6.53-14-11.4-22-15.58-2.58-1.36-5.27-2.62-8.12-4.03ZM54.6 1.75a15 15 0 0 0-10.4 4.69l-41 41c-.22.23-.46.45-.66.69a3.88 3.88 0 0 0-.39 4.28 3.67 3.67 0 0 0 3.9 2 6.32 6.32 0 0 0 2.75-1.58q20.37-20.26 40.67-40.61C53 8.68 57.55 8.66 61 12.14l15 14.94 26.1 26.13a3.91 3.91 0 1 0 5.63-5.4Q87.15 27.17 66.54 6.54A16 16 0 0 0 54.6 1.75Zm47.72 154.1v41.89a55.58 55.58 0 0 1 10.36-9.74 161.38 161.38 0 0 1 23.43-14.18 1.48 1.48 0 0 0 1-1.53q-.06-6 0-12.11a1.12 1.12 0 0 0-1-1.31c-2.69-.55-5.36-1.36-8.08-1.65-5.59-.6-11.21-1-16.82-1.33-2.92-.18-5.84-.04-8.89-.04ZM137 211.07c-.36.14-.58.21-.79.31a151 151 0 0 0-19.71 10.85c-3.92 2.63-7.77 5.41-10.64 9.22a25 25 0 0 0-2.58 4.81 2.28 2.28 0 0 0 .82 2.84 25 25 0 0 0 9.24 5.4c5.35 1.61 10.77 3 16.18 4.35 2.45.63 4.94 1.09 7.48 1.64Zm1.65 69.49h10.23v-74.79c-3.13 1.36-6.11 2.69-9.12 3.94a1.53 1.53 0 0 0-1.1 1.68v67.79Zm11.84-65v8.42a1.33 1.33 0 0 0 .94 1.42q3.65 1.68 7.22 3.51a92.15 92.15 0 0 1 21.18 14.33c8.75 8.14 13.85 18 14.66 30 .07 1.13.11 2.25.17 3.43a10.32 10.32 0 0 0 5.23-8.32c.29-6.45.37-12.84-.89-19.21a14.11 14.11 0 0 0-5.32-8.94c-2.16-1.64-4.28-3.36-6.54-4.87-9.58-6.41-19.82-11.65-30.14-16.73-2.12-1-4.22-1.96-6.54-3.05Zm-50.38-162c-.37-.41-.53-.61-.72-.79Q79.6 33 59.84 13.18a6 6 0 0 0-9 0Q31.44 32.5 12.1 51.85c-.23.23-.41.5-.77.93 29.67.99 59.08.69 88.75.76Zm14.78 66.15v.18c2.34.27 4.68.52 7 .83a123.1 123.1 0 0 1 26.11 6 7.18 7.18 0 0 0 1.39.31c8.06 1.19 16.15 2.2 24.17 3.6 7.15 1.25 14 3.38 18.12 10.36l1.44-1.6c.91-1.06 1.85-2.1 2.7-3.21 1.68-2.17 1.67-4.28-.31-6.2a16.3 16.3 0 0 0-4.29-3c-5.24-2.49-10.9-3.37-16.61-3.83-7.68-.62-15.38-1.13-23.08-1.58-9.29-.54-18.59-1-27.89-1.45Zm39.19 9.5c5.19 2.87 9.69 6.3 11.67 12.25 1.84 5.56 3 11.11 1 17.16 8.52-5 16.54-10.13 23.75-16.71-.92-1.18-1.69-2.36-2.64-3.36a19.86 19.86 0 0 0-9.21-5.12c-8.06-2.3-16.33-3.16-24.6-4.24Zm-3.4 110.71v17.66c0 5 .09 10-.22 15a7.06 7.06 0 0 0 2.58 6.21 18.56 18.56 0 0 0 7.61 3.91 68.7 68.7 0 0 0 29 1.07 20.07 20.07 0 0 0 10.5-4.61c2-1.84 3.61-4 3.74-6.88a104.6 104.6 0 0 0-.88-21.51c-.88-5.48-3.08-10.13-7.77-13.38-.66-.45-1.25-1-1.9-1.46a223.33 223.33 0 0 0-36.71-21.35c-1.94-.91-4-1.66-6-2.48-.47 1.3 0 1.86 1 2.35 9.71 4.51 19.26 9.32 28.49 14.75 5.55 3.27 11 6.64 15.78 11a11.29 11.29 0 0 1 3.83 6 78.37 78.37 0 0 1 1.69 10.26c.25 4.13-.09 8.29-.12 12.44a9.69 9.69 0 0 1-2.86 6.9c-3 3.11-6.89 4.55-11.06 5.26a59.23 59.23 0 0 1-18.51-.09 40.33 40.33 0 0 1-11.28-3.06 7.92 7.92 0 0 1-4.58-5.63c-1.07-4.22-.69-8.49-.65-12.77 0-4.78 0-9.57-.1-14.36a9.6 9.6 0 0 0-1.61-5.25ZM39.54 164.51v-11a1.36 1.36 0 0 0-.84-1.47c-1.61-.84-1.94-3.26-.44-4.08s1.26-1.79 1.27-2.94v-2.16c0-1.93-.52-2.75-1.72-2.72s-1.64.83-1.64 2.68v136.55a1.7 1.7 0 0 0 1.7 1.79 1.68 1.68 0 0 0 1.65-1.83v-4.56a1.21 1.21 0 0 0-.53-.88A2.63 2.63 0 0 1 39 269a1.09 1.09 0 0 0 .55-.74v-11.61a2.71 2.71 0 0 1-2.15-2.4c-.14-1.57.89-2.36 2.15-2.89v-11.37a1.33 1.33 0 0 0-.6-.95 2.63 2.63 0 0 1-1.53-2.39 2.7 2.7 0 0 1 1.54-2.39 1.32 1.32 0 0 0 .59-.95q.06-5.34 0-10.68a1.34 1.34 0 0 0-.59-1 2.62 2.62 0 0 1 0-4.77 1.39 1.39 0 0 0 .61-1V204.5c-2.84-1.43-2.93-3.32-.33-5.2a1.24 1.24 0 0 0 .31-.89v-10.56a1.52 1.52 0 0 0-.66-1 2.64 2.64 0 0 1 0-4.74 1.56 1.56 0 0 0 .66-1q.08-5.26 0-10.55c0-.36-.39-.73-.63-1.07-.48-.68-1.27-1.29-1.43-2-.37-1.56.66-2.44 2.05-2.98Zm32.64 5.29v11.37a1.5 1.5 0 0 0 .7 1 2.73 2.73 0 0 1 1.45 2.33 2.33 2.33 0 0 1-1.33 2.31 1.15 1.15 0 0 0-.79 1.26v10.32a1.12 1.12 0 0 0 .77 1.25 2.31 2.31 0 0 1 1.43 2.3 2.45 2.45 0 0 1-1.46 2.3l-.72.35v11.33a1.34 1.34 0 0 0 .58 1 2.63 2.63 0 0 1 0 4.83 1.11 1.11 0 0 0-.56.73v11.61a2.68 2.68 0 0 1 2.16 2.38 2.58 2.58 0 0 1-1.73 2.72.94.94 0 0 0-.41.72v11.52c1.26.51 2.22 1.23 2.18 2.72a2.72 2.72 0 0 1-2.18 2.56v11.54a1.28 1.28 0 0 0 .62.82 2.62 2.62 0 0 1 0 4.77 1.28 1.28 0 0 0-.63.82c-.06 1.6-.07 3.2 0 4.8a1.61 1.61 0 0 0 1.68 1.68c1 0 1.61-.69 1.65-1.8V142.42c0-1.54-.53-2.3-1.62-2.32s-1.74.81-1.74 2.37v3.71a1.24 1.24 0 0 0 .81 1.36 2.52 2.52 0 0 1 .1 4.48c-.28.16-.57.28-.87.43v12.06c1.26.5 2.23 1.26 2.15 2.79a2.75 2.75 0 0 1-2.24 2.5Zm-1.65 34.76H41.2v12.06h29.33Zm0-52.09H41.21v12h29.35Zm0 98.92v-12H41.18v12Zm-29.39-69.56h29.39v-11.94H41.14Zm.08 5.39v12h29.3v-12Zm0 34.78v12h29.33v-12Zm-.07 46.71h29.38v-11.94H41.14Zm60.27-144.62h1.08a173.08 173.08 0 0 1 27.57 2.12c7.15 1.2 14.17 2.86 20.68 6.21 4 2.06 7.72 4.59 9.71 8.76a24.65 24.65 0 0 1 1.81 17.38c-.26 1-.64 1.92-1 2.91a5.79 5.79 0 0 0 4.09-4.05 17.91 17.91 0 0 0 .39-9.81c-.94-4.18-1.88-8.43-5.11-11.56a31.34 31.34 0 0 0-5.59-4.27 60.78 60.78 0 0 0-16.38-6.29 160.05 160.05 0 0 0-29.93-4.5c-2.41-.15-4.85 0-7.35 0Zm-30.85 23v-5.85h-29.4v5.85Zm-36 3.55v-9.41H21.8v9.41Zm122.19 124.81c.75-4.85 1.52-9.68 2.24-14.52a23.79 23.79 0 0 0-.2-8.94 21.5 21.5 0 0 0-5.33-9.84c.14.88.23 1.41.31 1.94.83 5.73.44 11.48.15 17.22a33 33 0 0 0 .8 10.94 5.07 5.07 0 0 0 2.03 3.2ZM77.23 150.61h11.63v-9.4H77.23Zm121.14-19c1.46-3.08 1.41-3.44-1-5.17a17.33 17.33 0 0 0-4.24-2.17 56.74 56.74 0 0 0-14.48-3.11c-9-.86-18-1.71-27-2.2-16.47-.88-32.95-1.5-49.43-2.21a2.39 2.39 0 0 0-.87.33c.29.13.56.38.85.39 2.32.13 4.63.21 7 .32 12.6.62 25.21 1.16 37.81 1.89q15.48.9 31 2.2a40 40 0 0 1 14.4 3.79c2.59 1.33 4.82 2.97 5.96 5.99Zm-59.67 40.77a3.69 3.69 0 0 0 .5-.12l8.82-4.17c-.43-3.38-5-7.4-9.32-8.19Zm-82.9-4.17h15.6c.7 0 1.33-.22 1.33-1.05s-.64-1-1.32-1.06H40.93c-.28 0-.62-.09-.82 0a9.91 9.91 0 0 0-1.14 1 7.72 7.72 0 0 0 1.13 1c.24.15.63 0 .95 0Zm.2 32.68H43a21.44 21.44 0 0 0-3 .06 1.39 1.39 0 0 0-1 .93c0 .33.51.77.89 1s.62.06.94.06h30c.32 0 .72.1.94-.05.37-.27.82-.68.87-1.07s-.52-.69-.89-.91-.62-.05-.94-.05Zm-.09 19.44h13.65a9.62 9.62 0 0 0 2.15-.06c.4-.1 1-.6 1-.94s-.53-.74-.9-1c-.19-.14-.54-.07-.82-.07H40.86a2.31 2.31 0 0 0-1.06.1c-.33.19-.8.62-.76.89a1.6 1.6 0 0 0 .8 1 2.68 2.68 0 0 0 1.18.08Zm0 50.08H40.43c-.7 0-1.36.14-1.42.94s.64 1.08 1.37 1.13a3.85 3.85 0 0 0 .48 0h30a2.35 2.35 0 0 0 1.17-.15 1.31 1.31 0 0 0 .69-.94c0-.32-.41-.72-.75-.91a2.3 2.3 0 0 0-1.06-.08Zm-.17-119.6h15a2.69 2.69 0 0 0 1.18-.09c.35-.2.81-.65.79-1s-.51-.72-.87-.94-.63 0-.95 0h-30c-.32 0-.72-.11-.95 0-.38.25-.84.64-.91 1s.51.71.88.9a2.87 2.87 0 0 0 1.18.07Zm.26 32.72H40.88c-.36 0-.8-.1-1.06.06a1.72 1.72 0 0 0-.78 1c0 .27.45.67.78.87a2.12 2.12 0 0 0 1 .05H71c.28 0 .62.09.82 0 .36-.23.93-.64.88-.89s-.51-.77-.89-1-.62-.05-.94-.05Zm-.13 52.12H40.62c-.75 0-1.58 0-1.61 1s.87 1.05 1.64 1.06h30.22a2.3 2.3 0 0 0 1.06-.08c.34-.18.75-.58.77-.89a1.48 1.48 0 0 0-.69-1c-.26-.17-.69-.09-1.05-.1Zm-.12 19.44h15.57c.76 0 1.42-.19 1.41-1.08s-.69-1-1.38-1H40.89a2.09 2.09 0 0 0-.94 0c-.37.21-.89.57-.91.89s.42.79.77 1 .7.08 1.06.08Zm114.07-96.3v.11c2.48-1.34 5-2.65 7.43-4 5-2.88 10.14-5.63 14.42-9.62 3-2.8 5.84-5.72 7.53-9.53a27.86 27.86 0 0 0 1-3.17c-1.15 1.43-2 3-3 4.35-3.91 5.21-8.87 9.32-14.13 13.05-4.36 3.02-8.85 5.87-13.27 8.81Z" fill="#202263" data-color="1"/>
        <path d="M55.07 51 25 50.14c-1.2 0-2.46 0-2.93-1.5a3.38 3.38 0 0 1 1-3.7Q35.51 32.48 48 20a10.24 10.24 0 0 1 14.65 0Q75.07 32.4 87.5 44.83a3.43 3.43 0 0 1 1 4c-.62 1.55-1.9 2-3.48 2h-30Zm-.07-.91V50h30c1.24 0 2.31-.26 2.86-1.52s0-2.2-.92-3.08Q74.43 33 62 20.57a9.34 9.34 0 0 0-13.35-.06q-12.53 12.48-25 25a2.58 2.58 0 0 0-.8 2.81c.37 1.16 1.37 1.06 2.28 1.08Z" fill="#202263" data-color="1"/>
        <path d="M173 286.29v-.12c-2.09-.24-4.18-.44-6.27-.72a31.66 31.66 0 0 1-10-2.67c-2.14-1.07-4.11-2.5-6.22-3.8l-.19-.11v2.26a1 1 0 0 1-.22.74 1.1 1.1 0 0 1-.8.23h-11.05c-.55 0-.79-.15-.93-.38a2.22 2.22 0 0 1-.16-1v-27.16a1.54 1.54 0 0 0-1.45-1.83c-6.46-1.47-12.93-2.93-19.34-4.61a29.63 29.63 0 0 1-13.72-7.37l-.2-.06h-.37v41.9a1.12 1.12 0 0 1-.1.37.51.51 0 0 1-.39.2 8.56 8.56 0 0 1-1 0H90.48c-.79 0-1.18 0-1.31-.19s-.19-.52-.19-1.31v-97.02q0-14.88.08-29.76v-1.65h-12v126a9.36 9.36 0 0 1-.12 1.76 3 3 0 0 1-3.09 2.56h-.22a3 3 0 0 1-2.84-2.93V274H41v4.79a4.24 4.24 0 0 1-.81 2.79 2.84 2.84 0 0 1-2.29 1 2.86 2.86 0 0 1-2.29-1 4.21 4.21 0 0 1-.83-2.76V152.25H21.61V281.3a1.11 1.11 0 0 1-.13.47c-.09.15-.22.22-.52.27a9.07 9.07 0 0 1-1.31 0H9.71a1.3 1.3 0 0 1-1-.28 1.45 1.45 0 0 1-.28-1.05V55.27h-.16l-1.07.32a5.63 5.63 0 0 1-1.66.26 5.3 5.3 0 0 1-5.29-5.28 5.54 5.54 0 0 1 1.21-3.45 10.56 10.56 0 0 1 .73-.78Q22.5 26 42.83 5.7A17.7 17.7 0 0 1 55.34.25a16.56 16.56 0 0 1 7.9 2A16.14 16.14 0 0 1 67 5q20.88 20.78 41.68 41.64a5.46 5.46 0 0 1 1.8 3.93 5.74 5.74 0 0 1-.25 1.64 4.88 4.88 0 0 1-4 3.68 5.74 5.74 0 0 1-.93.07c-.91 0-1.88-.17-2.89-.22h-.13v59.56h.12c1.75.08 3.53.17 5.32.24 11.26.48 22.52.84 33.77 1.48 11.65.66 23.29 1.44 34.9 2.49A141.37 141.37 0 0 1 191 122c6.31 1.22 10.27 5.25 12.85 10.93a33.91 33.91 0 0 1 2.86 12c0 .49.16 1 .23 1.41h.13-.13v7h.13-.13c-.08.45-.19.91-.23 1.39a34.15 34.15 0 0 1-7.2 18.9 50.67 50.67 0 0 1-12.84 11.19c-11 6.88-22.28 13.14-33.83 19a5.23 5.23 0 0 0-1.79 1.29 3.16 3.16 0 0 0-.63 2.12v.19a6.71 6.71 0 0 0 .32 2.75c.33.54 1 .79 2.28 1.31a167.57 167.57 0 0 1 21.1 10.46 176.25 176.25 0 0 1 22.55 14.71A19.92 19.92 0 0 1 204.1 249a84.81 84.81 0 0 1 1.39 16.29v3.25a25.57 25.57 0 0 1-.45 5.56c-1 3.77-3.51 6.38-6.86 8.27a28.71 28.71 0 0 1-9.83 3.13c-1.75.27-3.52.48-5.28.72v.12-.12H173v.25h10.09c1.76-.24 3.53-.45 5.29-.73a29 29 0 0 0 9.92-3.15c3.38-1.91 6-4.58 7-8.43a25.07 25.07 0 0 0 .46-5.61v-3.26a84.61 84.61 0 0 0-1.4-16.34 20.24 20.24 0 0 0-7.52-12.49 175.32 175.32 0 0 0-22.59-14.72 166.74 166.74 0 0 0-21.13-10.48c-1.32-.52-1.9-.78-2.15-1.21a6.51 6.51 0 0 1-.29-2.63v-.18a3 3 0 0 1 .58-2A5.16 5.16 0 0 1 153 204c11.55-5.84 22.87-12.11 33.84-19a50.94 50.94 0 0 0 12.9-11.24 34.49 34.49 0 0 0 7.26-19c0-.45.15-.9.23-1.37v-7c-.08-.47-.2-.93-.23-1.38a34.19 34.19 0 0 0-2.88-12.1c-2.6-5.73-6.63-9.84-13-11.08a146.32 146.32 0 0 0-14.63-2.56c-11.62-1-23.27-1.83-34.92-2.49-11.25-.64-22.52-1-33.77-1.48-1.79-.07-3.57-.16-5.32-.24v.13h.13V55.84h-.13V56c1 .05 2 .22 2.9.22a6.24 6.24 0 0 0 1-.07 5.14 5.14 0 0 0 4.19-3.86 5.83 5.83 0 0 0 .26-1.71 5.74 5.74 0 0 0-1.87-4.11Q88 25.62 67.16 4.81a16.3 16.3 0 0 0-3.8-2.75 16.83 16.83 0 0 0-8-2.06 17.9 17.9 0 0 0-12.7 5.53Q22.32 25.82 2 46.17a9.47 9.47 0 0 0-.74.8A5.73 5.73 0 0 0 0 50.57a5.56 5.56 0 0 0 5.61 5.58 5.84 5.84 0 0 0 1.74-.27l1.06-.32v-.12h-.16v225.33a1.73 1.73 0 0 0 .28 1.23 1.55 1.55 0 0 0 1.18.36h9.91a10.72 10.72 0 0 0 1.24 0 1.28 1.28 0 0 0 .56-.16.89.89 0 0 0 .39-.7 9.86 9.86 0 0 0 .05-1.35V152.37h-.12v.13h12.88v-.13h-.13v126.46a4.48 4.48 0 0 0 .89 2.93 3.11 3.11 0 0 0 2.48 1.06 3.15 3.15 0 0 0 2.49-1.06 4.55 4.55 0 0 0 .86-2.95v-4.66h-.11v.12h29.53v-.12h-.12v5.49a3.23 3.23 0 0 0 3.08 3.17h.23a3.24 3.24 0 0 0 3.34-2.76 10 10 0 0 0 .12-1.81V152.36h-.12v.12h11.78v-.12h-.13v1.52q0 14.88-.08 29.76v96.95c0 .79 0 1.21.26 1.49s.7.25 1.49.26h10.08a8.86 8.86 0 0 0 1 0 1.14 1.14 0 0 0 .45-.13.74.74 0 0 0 .32-.58 7.83 7.83 0 0 0 0-1.07v-40.79h-.12v.13h.3a30 30 0 0 0 13.84 7.43c6.41 1.68 12.88 3.14 19.34 4.62a1.67 1.67 0 0 1 1 .5 1.68 1.68 0 0 1 .25 1.08v27.11a2.47 2.47 0 0 0 .2 1.15 1.17 1.17 0 0 0 1.14.5h11.03a1.31 1.31 0 0 0 1-.31 1.23 1.23 0 0 0 .29-.91v-1.97h-.12l-.07.11c2.09 1.29 4.07 2.72 6.24 3.8a31.6 31.6 0 0 0 10.06 2.7c2.09.28 4.18.48 6.27.72ZM101.62 236h.12a17.4 17.4 0 0 1 5.14-8 68.3 68.3 0 0 1 5.72-4.89c7.53-5.59 15.83-9.88 24.32-13.79 4.49-2.06 9.2-3.7 13.6-6 8.2-4.22 16.28-8.68 24.34-13.16a118.37 118.37 0 0 0 16.49-10.48c5.12-4.08 9.48-8.8 11.76-15.07a42.15 42.15 0 0 0 2.54-14.59 53.62 53.62 0 0 0-1.56-12.5 46.73 46.73 0 0 0-1.88-5.16v-.11h-.11l-.33.09h-.08v.08a15.43 15.43 0 0 1-2.7 6.66 43.7 43.7 0 0 1-12.5 11.85A160.94 160.94 0 0 1 164.6 163c-5.28 2.35-10.76 4.23-16.07 6.55a196.45 196.45 0 0 0-28.65 15.23c-5.82 3.78-11.44 7.84-15.9 13.26a16.17 16.17 0 0 0-4.17 9.44c-.11 1.87-.4 3.73-.54 5.61-.19 2.48-.3 5-.3 7.46a67.71 67.71 0 0 0 .72 10.14 11 11 0 0 0 1.83 5.36l.15.2.07-.24h-.12l.1-.08a10.72 10.72 0 0 1-1.79-5.24 68.74 68.74 0 0 1-.71-10.11c0-2.48.11-5 .3-7.44.14-1.87.43-3.73.54-5.61a15.91 15.91 0 0 1 4.11-9.3c4.44-5.39 10-9.43 15.84-13.21a197.56 197.56 0 0 1 28.62-15.22c5.29-2.3 10.78-4.18 16.07-6.54a161.4 161.4 0 0 0 21.87-11.94 43.93 43.93 0 0 0 12.57-11.92 15.72 15.72 0 0 0 2.75-6.77h-.12v.12l.32-.09v-.12l-.12.05a45.92 45.92 0 0 1 1.88 5.13 53.7 53.7 0 0 1 1.55 12.44 42.1 42.1 0 0 1-2.52 14.5c-2.26 6.21-6.59 10.9-11.69 15a119.38 119.38 0 0 1-16.45 10.45c-8.06 4.48-16.14 8.94-24.34 13.16-4.38 2.25-9.08 3.88-13.58 5.95-8.51 3.92-16.81 8.21-24.37 13.82a65.48 65.48 0 0 0-5.74 4.91 17.58 17.58 0 0 0-5.21 8.05h.12l.1-.08Zm-24.68-96.18h.12V90a19.37 19.37 0 0 0-.35-3.72c-1.75-9-8.9-15.52-18.32-16.86a21.63 21.63 0 0 0-3.1-.21 22.22 22.22 0 0 0-15.1 5.92 20.76 20.76 0 0 0-6.63 15.37v.37c.1 6.21.13 12.41.13 18.62 0 9.55-.07 19.1-.07 28.65V140l.17-.06a11.9 11.9 0 0 0 2.25-.79 3.6 3.6 0 0 1 1.84-.55 3.46 3.46 0 0 1 1.86.58 3.17 3.17 0 0 0 1.58.5h29.15a3.06 3.06 0 0 0 1.47-.46 3.68 3.68 0 0 1 1.95-.65 3.44 3.44 0 0 1 1.94.67c.25.17.52.32 1.05.65l.19.11v-.22h-.12l.06-.11c-.54-.33-.8-.47-1-.63a3.66 3.66 0 0 0-2.08-.72 3.9 3.9 0 0 0-2.08.69 2.74 2.74 0 0 1-1.34.42H41.36a3 3 0 0 1-1.45-.48 3.57 3.57 0 0 0-4 0 13 13 0 0 1-2.2.77v.12h.12v-1.75c0-9.55.07-19.1.07-28.65 0-6.21 0-12.42-.13-18.62v-.37a20.45 20.45 0 0 1 6.55-15.18 22 22 0 0 1 14.93-5.87 24.22 24.22 0 0 1 3.06.22C67.67 71 74.72 77.41 76.46 86.3a19.58 19.58 0 0 1 .34 3.7v49.85h.13l.06-.11Zm-44.8-.27h.12V90.43a24.3 24.3 0 0 1 .89-6.43c2.78-9.85 12.14-16.15 22.13-16.15a23.76 23.76 0 0 1 11 2.72c8 4.17 12.06 10.92 12.09 20v29.28c0 5.36 0 10.71-.08 16.07v3.78H89V55.13h-.13l-67.06-.44h-.12v84.99h10.57v-.12h-.12v-.13H21.81v.13h.12V54.81h-.12v.13l67.06.44v-.12h-.12v84.28h.12v-.13H78.46v.13h.12v-3.66c0-5.36.07-10.71.08-16.07s0-10.81 0-16.21V90.53c0-9.16-4.17-16-12.22-20.22a24 24 0 0 0-11.16-2.75c-10.09 0-19.56 6.37-22.37 16.33a24.88 24.88 0 0 0-.86 6.54q-.06 12.39 0 24.79v24.33h.13ZM10 54.24h-.12V280.7h10.36V54.55h-.12L10 54.11h-.12v.14H10v.12l10.11.44v-.13H20v225.9h.12v-.12H10v.12h.12V54.24H10Zm80.5.95h-.13v225.48h10.38v-42.32a2 2 0 0 0-.24-1.1c-2-2.81-2.26-6.12-2.58-9.42-.23-2.44-.33-4.89-.33-7.34 0-3.73.23-7.46.59-11.19.3-3.07.68-6.09 2.35-8.77a2.23 2.23 0 0 0 .21-1.1v-42.47a2.45 2.45 0 0 0-.32-1c-.21-.45-.61-.86-.6-1.2v-38.39a3 3 0 0 1 .32-1c.17-.44.58-.88.59-1.4.06-4.72.07-9.44.07-14.16V55.07H90.38v.12h.13v.13h10.23v-.13h-.13v44.58c0 4.72 0 9.44-.07 14.16 0 .38-.37.82-.57 1.3a3.15 3.15 0 0 0-.34 1.14v38.39c0 .5.46.91.63 1.31a2.57 2.57 0 0 1 .29.89v42.47a2 2 0 0 1-.18 1c-1.7 2.73-2.08 5.8-2.38 8.88-.36 3.73-.59 7.47-.59 11.21a79 79 0 0 0 .33 7.37c.32 3.29.59 6.65 2.62 9.53a1.8 1.8 0 0 1 .2 1v42.18h.13v-.12H90.51v.12h.12V55.19h-.12Zm59.18 112.32.06.11c2.74-1.36 5.36-2.63 7.94-4a3.67 3.67 0 0 0 1.39-1.32 18 18 0 0 0 2.52-9.5v-1c-.33-7.62-3.24-13.73-10.25-17.5a59.35 59.35 0 0 0-15.66-5.56 153.76 153.76 0 0 0-33.08-3.17h-.41a4.81 4.81 0 0 0-.77.12h-.11v28.75h1q3.07-.08 6.15-.08a138.88 138.88 0 0 1 15.39.76 61.3 61.3 0 0 1 15.73 3.4c4.4 1.71 8.38 3.91 10 9v.14l.13-.07-.06-.11h.12c-1.61-5.21-5.69-7.46-10.11-9.18a61.93 61.93 0 0 0-15.8-3.41 139.24 139.24 0 0 0-15.41-.76q-3.08 0-6.16.08h-.9v.12h.12v-28.51h-.12v.12a4.63 4.63 0 0 1 .73-.12h.41a153.78 153.78 0 0 1 33 3.16 59.49 59.49 0 0 1 15.6 5.54c6.93 3.73 9.78 9.73 10.12 17.29v1a17.79 17.79 0 0 1-2.48 9.37 3.46 3.46 0 0 1-1.29 1.23c-2.58 1.35-5.2 2.62-7.94 4l.05.11h.12Zm.77 59.14h-.13v10.02a2.07 2.07 0 0 0 .69 1.24c1 1 2.15 1.81 3.11 2.8a22.48 22.48 0 0 1 6.63 16.29 33.07 33.07 0 0 1-.45 5.26c-.71 4.25-1.15 8.54-1.74 12.8a3.49 3.49 0 0 0 0 .44 1.59 1.59 0 0 0 .43 1.15 2.9 2.9 0 0 0 1.18.66 61.27 61.27 0 0 0 19.37 2.84h.14a33.64 33.64 0 0 0 12.4-1.95 1.6 1.6 0 0 0 .79-.56 1.64 1.64 0 0 0 .24-.95v-.21a41.8 41.8 0 0 0-12.42-30.33c-6.4-6.55-14-11.42-22-15.62-2.61-1.36-5.27-2.61-8.12-4l-.18-.09v.2h.13l-.06.11c2.85 1.41 5.51 2.67 8.12 4 8 4.18 15.59 9 22 15.56a41.61 41.61 0 0 1 12.34 30.16v.21a1.31 1.31 0 0 1-.2.81 1.37 1.37 0 0 1-.67.47 33.47 33.47 0 0 1-12.31 1.93h-.14a61 61 0 0 1-19.29-2.83 2.49 2.49 0 0 1-1.08-.59 1.28 1.28 0 0 1-.36-1 2.8 2.8 0 0 1 0-.4c.59-4.27 1-8.56 1.73-12.8a32.45 32.45 0 0 0 .4-5.27 22.74 22.74 0 0 0-6.66-16.49c-1-1-2.12-1.85-3.12-2.81a1.82 1.82 0 0 1-.61-1.06v-10.02h-.12l-.06.11ZM54.6 1.75v-.13a15.2 15.2 0 0 0-10.49 4.73l-41 41c-.22.23-.46.45-.67.71a3.92 3.92 0 0 0-.88 2.49 4.11 4.11 0 0 0 .48 1.92 4 4 0 0 0 3.33 2.14 2.94 2.94 0 0 0 .71-.09 6.33 6.33 0 0 0 2.79-1.58Q29.26 32.65 49.56 12.3a8.15 8.15 0 0 1 5.75-2.63 8 8 0 0 1 5.63 2.56l14.94 14.94L102 53.3a4.49 4.49 0 0 0 3.15 1.4 3.91 3.91 0 0 0 2.8-1.21 4 4 0 0 0 1.15-2.78 4.24 4.24 0 0 0-1.29-3Q87.24 27.08 66.63 6.45a16.15 16.15 0 0 0-12-4.83v.25a15.87 15.87 0 0 1 11.82 4.76q20.61 20.63 41.2 41.27a4 4 0 0 1 1.21 2.81 3.68 3.68 0 0 1-1.08 2.6 3.63 3.63 0 0 1-2.62 1.14 4.23 4.23 0 0 1-3-1.33L76.05 27 61.12 12.06a8.22 8.22 0 0 0-5.81-2.64 8.42 8.42 0 0 0-5.93 2.71Q29.05 32.44 8.71 52.74A6.13 6.13 0 0 1 6 54.26a2.34 2.34 0 0 1-.64.08 3.76 3.76 0 0 1-3.11-2 3.87 3.87 0 0 1-.45-1.8 3.73 3.73 0 0 1 .82-2.34c.2-.23.43-.45.66-.68l41-41A15 15 0 0 1 54.6 1.87Zm47.72 154.1h-.13v42.24l.22-.27a56 56 0 0 1 10.34-9.72 162.1 162.1 0 0 1 23.42-14.17 1.61 1.61 0 0 0 1.07-1.61v-12.06a1.45 1.45 0 0 0-.27-1 1.38 1.38 0 0 0-.85-.45c-2.69-.55-5.36-1.36-8.1-1.66-5.59-.6-11.21-1-16.83-1.33-1.09-.07-2.19-.09-3.3-.09-1.83 0-3.67.06-5.57.06h-.13v.12h.13v.09c1.9 0 3.75-.06 5.57-.06 1.1 0 2.2 0 3.29.09 5.61.33 11.23.73 16.81 1.33 2.71.29 5.37 1.1 8.08 1.66a1.16 1.16 0 0 1 .71.35 1.25 1.25 0 0 1 .21.8v12.06a1.36 1.36 0 0 1-.93 1.39 160.85 160.85 0 0 0-23.46 14.28 55.78 55.78 0 0 0-10.38 9.76l.1.08h.12v-41.89h-.12ZM137 211.07v-.11c-.36.14-.58.21-.81.31a150 150 0 0 0-19.72 10.86c-3.93 2.63-7.78 5.41-10.67 9.25a25.52 25.52 0 0 0-2.6 4.83 2.45 2.45 0 0 0-.23 1 2.72 2.72 0 0 0 1.09 2 25.09 25.09 0 0 0 9.29 5.43c5.34 1.61 10.77 3 16.18 4.35 2.45.63 4.95 1.09 7.49 1.65h.15v-39.75l-.17.07v.11h-.12v39.42h.12v-.12c-2.55-.55-5-1-7.48-1.64-5.41-1.39-10.83-2.74-16.17-4.35a24.86 24.86 0 0 1-9.2-5.38 2.44 2.44 0 0 1-1-1.81 2.17 2.17 0 0 1 .21-.88 24.64 24.64 0 0 1 2.57-4.78c2.86-3.8 6.69-6.57 10.61-9.19a149.54 149.54 0 0 1 19.69-10.84c.2-.1.42-.17.79-.31l-.05-.12Zm1.65 69.49v.12H149v-75.1l-.18.08c-3.13 1.36-6.11 2.68-9.12 3.94a1.73 1.73 0 0 0-.91.68 2 2 0 0 0-.26 1.11v69.34h.13v-.12h.12v-69.22a1.78 1.78 0 0 1 .22-1 1.53 1.53 0 0 1 .79-.58c3-1.26 6-2.58 9.13-3.94l-.05-.12h-.12v74.79h.12v-.13h-10.25v.13Zm11.84-65h-.13v8.41a1.54 1.54 0 0 0 .25.92 1.79 1.79 0 0 0 .77.57c2.43 1.13 4.84 2.29 7.22 3.51a91.89 91.89 0 0 1 21.15 14.31c8.72 8.12 13.81 18 14.61 29.95.08 1.12.12 2.25.18 3.43v.19l.17-.08a10.5 10.5 0 0 0 5.3-8.43c.1-2.27.17-4.54.17-6.8a63.73 63.73 0 0 0-1.07-12.45 14.24 14.24 0 0 0-5.36-9c-2.17-1.64-4.29-3.36-6.55-4.87-9.59-6.42-19.83-11.66-30.16-16.74-2.07-1-4.17-2-6.49-3.08l-.18-.08v.2h.13l-.06.11c2.33 1.1 4.43 2.05 6.49 3.07 10.32 5.09 20.56 10.32 30.13 16.73 2.25 1.5 4.37 3.22 6.54 4.86a14 14 0 0 1 5.26 8.86 63.16 63.16 0 0 1 1.07 12.4c0 2.25-.07 4.52-.17 6.79a10.21 10.21 0 0 1-5.17 8.21l.06.11h.13c-.06-1.18-.1-2.31-.18-3.43-.8-12-5.93-22-14.69-30.12a92 92 0 0 0-21.21-14.35q-3.57-1.83-7.22-3.51a1.64 1.64 0 0 1-.68-.49 1.32 1.32 0 0 1-.2-.78v-8.42h-.12l-.06.11Zm-50.38-162 .09-.08c-.36-.41-.53-.61-.72-.8Q79.69 32.88 59.93 13.1A6.57 6.57 0 0 0 55.3 11a6.48 6.48 0 0 0-4.59 2.08Q31.34 32.4 12 51.77c-.24.24-.42.5-.77.93l-.17.2h.26c20.36.68 40.61.75 60.89.75h28.14l-.19-.2-.09.08v-.13H72.22c-20.28 0-40.52-.07-60.88-.75v.12l.1.08c.36-.43.54-.7.76-.92q19.33-19.34 38.68-38.68a6.25 6.25 0 0 1 4.42-2 6.33 6.33 0 0 1 4.46 2Q79.53 33 99.27 52.83c.18.18.35.39.72.79l.09-.08Zm14.78 66.15h-.12v.3h.13c2.33.28 4.67.52 7 .83a122.78 122.78 0 0 1 26.09 6 6.85 6.85 0 0 0 1.41.32c8.06 1.18 16.15 2.2 24.17 3.6 7.15 1.24 13.91 3.36 18 10.3l.08.14.12-.12c.52-.59 1-1.09 1.43-1.61.91-1.06 1.85-2.1 2.71-3.21a5.14 5.14 0 0 0 1.25-3.14 4.51 4.51 0 0 0-1.57-3.23 16.58 16.58 0 0 0-4.33-3c-5.26-2.51-10.93-3.39-16.65-3.85-7.68-.62-15.38-1.12-23.08-1.57-9.3-.54-18.6-1-27.9-1.45-2.91-.15-5.82-.27-8.72-.41h-.12v.11h.12v.12c2.91.14 5.82.26 8.73.41 9.3.47 18.6.91 27.89 1.45 7.7.45 15.4 1 23.08 1.57 5.71.46 11.35 1.34 16.56 3.82a16.37 16.37 0 0 1 4.27 2.95 4.28 4.28 0 0 1 1.49 3.05 5 5 0 0 1-1.2 3c-.85 1.1-1.79 2.13-2.7 3.2-.44.51-.9 1-1.43 1.6l.09.08.11-.06c-4.18-7-11.05-9.18-18.2-10.42-8-1.4-16.12-2.41-24.18-3.6a6.82 6.82 0 0 1-1.37-.31 122.66 122.66 0 0 0-26.13-6c-2.34-.32-4.68-.56-7-.84v.13h.12v-.18h-.12Zm39.19 9.5-.07.11c5.19 2.87 9.66 6.28 11.62 12.18a33.53 33.53 0 0 1 2.02 10.5 20 20 0 0 1-1.07 6.52l-.11.32.29-.17c8.52-5 16.55-10.14 23.77-16.72l.09-.08-.07-.09c-.92-1.18-1.69-2.36-2.65-3.38a19.93 19.93 0 0 0-9.27-5.15c-8-2.28-16.3-3.14-24.57-4.22l-.08.23.07-.11v.13c8.28 1.08 16.54 1.94 24.54 4.21a19.6 19.6 0 0 1 9.15 5.09c.94 1 1.71 2.16 2.63 3.35l.1-.08-.09-.09c-7.2 6.56-15.21 11.68-23.73 16.7l.07.1h.12a20.21 20.21 0 0 0 1.08-6.6 33.7 33.7 0 0 0-2.06-10.63c-2-6-6.53-9.45-11.73-12.33l-.06.11v.13Zm-3.4 110.71h-.13v23.17c0 3.15 0 6.31-.22 9.45v.63a7.11 7.11 0 0 0 2.64 5.69 18.61 18.61 0 0 0 7.66 3.93 64.52 64.52 0 0 0 16.61 2.12 77 77 0 0 0 12.44-1.05 20.21 20.21 0 0 0 10.57-4.64c2.05-1.84 3.64-4.07 3.78-7q.17-3.5.17-7a92.35 92.35 0 0 0-1.06-14.55c-.88-5.5-3.1-10.19-7.82-13.46-.65-.45-1.24-1-1.89-1.46a223.36 223.36 0 0 0-36.74-21.36c-1.94-.92-4-1.66-5.95-2.49l-.12-.05v.13a2.8 2.8 0 0 0-.19.94c0 .76.5 1.2 1.28 1.56 9.71 4.51 19.26 9.32 28.49 14.75 5.55 3.26 11 6.63 15.76 11a11.11 11.11 0 0 1 3.79 5.89 78.35 78.35 0 0 1 1.69 10.24c.06 1.09.09 2.18.09 3.28 0 3-.19 6.09-.21 9.15a9.55 9.55 0 0 1-2.83 6.81c-3 3.09-6.84 4.51-11 5.23a50.4 50.4 0 0 1-8.38.69 71.28 71.28 0 0 1-10.08-.78 40.71 40.71 0 0 1-11.25-3.05 7.8 7.8 0 0 1-4.51-5.55 29.17 29.17 0 0 1-.74-7.2c0-1.84.08-3.69.1-5.53v-4.64c0-3.25 0-6.49-.12-9.73a9.75 9.75 0 0 0-1.68-5.27l-.23-.33v.4h.13l-.11.07a9.52 9.52 0 0 1 1.64 5.13c.09 3.24.12 6.49.12 9.73v4.63c0 1.85-.1 3.7-.1 5.54a29.28 29.28 0 0 0 .75 7.26 8 8 0 0 0 4.64 5.71 40.82 40.82 0 0 0 11.32 3.08 71.72 71.72 0 0 0 10.12.77 48.91 48.91 0 0 0 8.43-.68c4.18-.72 8.07-2.16 11.13-5.3a9.83 9.83 0 0 0 2.9-7c0-3 .21-6.1.21-9.15q0-1.65-.09-3.3a79.69 79.69 0 0 0-1.7-10.27 11.37 11.37 0 0 0-3.86-6c-4.77-4.41-10.25-7.79-15.8-11.06-9.24-5.43-18.8-10.25-28.51-14.76-.76-.36-1.14-.7-1.14-1.33a2.45 2.45 0 0 1 .18-.86h-.12v.11c2 .83 4 1.57 5.95 2.48A224.23 224.23 0 0 1 193.23 236c.64.46 1.23 1 1.9 1.47 4.65 3.22 6.84 7.83 7.71 13.29a91.76 91.76 0 0 1 1.06 14.51q0 3.48-.17 7c-.13 2.79-1.67 5-3.7 6.79a20.12 20.12 0 0 1-10.44 4.58 76.48 76.48 0 0 1-12.4 1 64.36 64.36 0 0 1-16.54-2.11 18.47 18.47 0 0 1-7.57-3.88 6.86 6.86 0 0 1-2.55-5.5v-.61c.19-3.15.22-6.31.22-9.47V239.9h-.12l-.11.07ZM39.54 164.51h.12v-11.04a1.81 1.81 0 0 0-.18-.9 1.67 1.67 0 0 0-.73-.64 2.56 2.56 0 0 1-1.34-2.23 1.79 1.79 0 0 1 .9-1.63 2.38 2.38 0 0 0 1.34-2.44v-2.75a4.2 4.2 0 0 0-.41-2.14 1.51 1.51 0 0 0-1.38-.71 1.51 1.51 0 0 0-1.36.72 4 4 0 0 0-.41 2.09v136.55a1.81 1.81 0 0 0 1.8 1.9 1.79 1.79 0 0 0 1.77-1.94v-4.57a1.35 1.35 0 0 0-.6-1 2.47 2.47 0 0 1-1.53-2.34 2.48 2.48 0 0 1 1.47-2.31 1.52 1.52 0 0 0 .41-.36 1 1 0 0 0 .21-.49v-11.7h-.08a2.6 2.6 0 0 1-2.07-2.29V254c0-1.32.91-2 2.09-2.51h.07v-11.45A1.44 1.44 0 0 0 39 239a2.53 2.53 0 0 1-1.47-2.28 2.58 2.58 0 0 1 1.47-2.33 1.47 1.47 0 0 0 .66-1.06v-10.68a1.47 1.47 0 0 0-.65-1.06 2.49 2.49 0 0 1-1.48-2.28A2.51 2.51 0 0 1 39 217a1.41 1.41 0 0 0 .67-1.05V204.5h-.07c-1.46-.74-2.14-1.57-2.13-2.42s.58-1.67 1.82-2.57a1.32 1.32 0 0 0 .37-1v-10.57a1.58 1.58 0 0 0-.72-1.13 2.6 2.6 0 0 1-1.4-2.21v-.08a2.62 2.62 0 0 1 1.42-2.25 1.62 1.62 0 0 0 .71-1.14v-10.57c0-.44-.42-.8-.64-1.13-.51-.7-1.28-1.31-1.42-2a2.53 2.53 0 0 1-.06-.53c0-1.12.88-1.82 2.07-2.28h.08v-.09h-.12v-.12c-1.22.47-2.23 1.24-2.23 2.52a2.93 2.93 0 0 0 .06.58c.19.82 1 1.42 1.46 2.09.26.34.61.72.6 1v10.55a1.38 1.38 0 0 1-.6.94 2.87 2.87 0 0 0-1.53 2.46v.08a2.83 2.83 0 0 0 1.44 2.37 1.34 1.34 0 0 1 .6.93v10.55a1.17 1.17 0 0 1-.27.8c-1.26.91-1.92 1.84-1.92 2.77s.78 1.89 2.27 2.64l.06-.11h-.13v11.36a1.22 1.22 0 0 1-.55.85 2.76 2.76 0 0 0-1.57 2.49 2.77 2.77 0 0 0 1.6 2.48 1.24 1.24 0 0 1 .53.85v10.68a1.29 1.29 0 0 1-.53.85 2.75 2.75 0 0 0 0 5 1.19 1.19 0 0 1 .54.84v11.37h.13v-.12c-1.2.51-2.24 1.28-2.24 2.74a2.72 2.72 0 0 0 0 .28 2.85 2.85 0 0 0 2.24 2.51v-.12h-.13v11.61a.67.67 0 0 1-.16.34 1.23 1.23 0 0 1-.33.29 2.72 2.72 0 0 0-1.64 2.47 2.73 2.73 0 0 0 1.64 2.65 1.12 1.12 0 0 1 .47.78v4.55a1.54 1.54 0 0 1-1.52 1.7 1.56 1.56 0 0 1-1.55-1.67V142.78a4 4 0 0 1 .37-2 1.28 1.28 0 0 1 1.15-.6 1.27 1.27 0 0 1 1.17.59 4 4 0 0 1 .37 2v2.82a2.12 2.12 0 0 1-1.21 2.22 2.06 2.06 0 0 0-1 1.85 2.8 2.8 0 0 0 1.47 2.45 1.39 1.39 0 0 1 .63.54 1.57 1.57 0 0 1 .15.78v11.04h.13v-.12Zm32.64 5.29h-.13v11.37a1.66 1.66 0 0 0 .76 1.11 2.59 2.59 0 0 1 1.39 2.22v.06a2.18 2.18 0 0 1-1.33 2.14 1.44 1.44 0 0 0-.68.52 1.47 1.47 0 0 0-.19.78v10.31a1.46 1.46 0 0 0 .17.8 1.33 1.33 0 0 0 .67.54 2.15 2.15 0 0 1 1.35 2.15 2.29 2.29 0 0 1-1.39 2.18l-.72.36h-.07v11.42a1.43 1.43 0 0 0 .64 1.07 2.5 2.5 0 0 1 1.51 2.3v.07a2.51 2.51 0 0 1-1.53 2.24 1.66 1.66 0 0 0-.41.35.8.8 0 0 0-.21.49v11.7h.09a2.56 2.56 0 0 1 2.08 2.27 2.44 2.44 0 0 1 0 .27 2.5 2.5 0 0 1-1.68 2.33 1.06 1.06 0 0 0-.48.83v11.6h.08c1.23.49 2.1 1.15 2.1 2.5v.09a2.58 2.58 0 0 1-2.09 2.45h-.09v11.65a.87.87 0 0 0 .23.53 1.53 1.53 0 0 0 .45.4 2.51 2.51 0 0 1 1.48 2.27 2.54 2.54 0 0 1-1.47 2.26 1.37 1.37 0 0 0-.69.92v4.8a1.72 1.72 0 0 0 1.79 1.8h.07a1.78 1.78 0 0 0 1.72-1.92V142.42a3.16 3.16 0 0 0-.42-1.8 1.56 1.56 0 0 0-1.32-.65 1.6 1.6 0 0 0-1.36.66 3.19 3.19 0 0 0-.47 1.83v3.83a1.33 1.33 0 0 0 .88 1.35 2.38 2.38 0 0 1 1.34 2.12 2.5 2.5 0 0 1-1.25 2.15c-.26.16-.55.28-.85.43h-.07v12.22h.08c1.19.49 2.07 1.16 2.07 2.51v.16c-.07 1.28-.86 1.94-2.1 2.39h-.08v.09h.13v.12a2.9 2.9 0 0 0 2.26-2.62v-.17c0-1.49-1-2.26-2.23-2.74v.12h.13v-11.97h-.14l.06.11c.29-.14.59-.26.87-.43a2.77 2.77 0 0 0 1.38-2.36 2.6 2.6 0 0 0-1.51-2.34 1.08 1.08 0 0 1-.74-1.13v-3.82a3 3 0 0 1 .42-1.69 1.33 1.33 0 0 1 1.16-.56 1.3 1.3 0 0 1 1.11.54 2.88 2.88 0 0 1 .38 1.66v136.88c0 1-.61 1.67-1.47 1.68h-.06a1.47 1.47 0 0 1-1.55-1.56v-4.78a1.2 1.2 0 0 1 .57-.72 2.76 2.76 0 0 0 1.59-2.47 2.76 2.76 0 0 0-1.61-2.49 1.26 1.26 0 0 1-.37-.33.75.75 0 0 1-.18-.38V256.7h-.12v.12a2.83 2.83 0 0 0 2.26-2.68V254c0-1.49-1-2.24-2.26-2.74v.12h.12v-11.52a.83.83 0 0 1 .34-.6 2.75 2.75 0 0 0 1.82-2.56v-.29a2.82 2.82 0 0 0-2.25-2.49v.12h.12v-11.59a.65.65 0 0 1 .16-.33 1.11 1.11 0 0 1 .33-.29 2.75 2.75 0 0 0 1.66-2.45v-.08a2.76 2.76 0 0 0-1.63-2.52 1.18 1.18 0 0 1-.52-.86v-11.33h-.12v.11l.72-.35a2.55 2.55 0 0 0 1.53-2.41 2.41 2.41 0 0 0-1.5-2.38 1.09 1.09 0 0 1-.56-.43 1.31 1.31 0 0 1-.13-.68v-10.32a1.24 1.24 0 0 1 .14-.67 1.22 1.22 0 0 1 .57-.43 2.43 2.43 0 0 0 1.48-2.37v-.06a2.85 2.85 0 0 0-1.5-2.43 1.45 1.45 0 0 1-.65-.9V169.8h-.12v.12Zm-1.65 34.76v-.13H41.08v12.32h29.58v-12.32h-.13v.13h-.12v12.06h.12v-.12H41.2v.12h.13v-12.06h-.13v.12h29.33v-.12Zm0-52.09v-.13H41.08v12.27h29.6v-12.27h-.12v.13h-.13v12h.13v-.12H41.21v.12h.12v-12h-.12v.12h29.35v-.12Zm0 98.92h.12v-12.16H41.06v12.28h29.59v-.12h-.12v-.13H41.18v.13h.13v-12h-.13v.12h29.35v-.12h-.13v12h.13Zm-29.39-69.56v.17h29.52v-12.2H41V182h.12v-.13h.13v-11.98h-.13v.11h29.41v-.12h-.12v11.94h.12v-.12H41.14v.12Zm.08 5.39h-.13v12.08h29.56v-12.21H41.09v.13h.13v.12h29.3v-.12h-.12v12h.12v-.13h-29.3v.13h.12v-12h-.12Zm0 34.78h-.12v12.11h29.57v-12.23H41.09v.12h.12v.13h29.34V222h-.13v12h.13v-.13H41.21v.13h.13v-12h-.13Zm-.07 46.71v.12h29.5v-12.19H41v12.19h.13v-.12h.12v-11.94h-.12v.12h29.4v-.12h-.13v11.94h.13v-.13H41.14v.13Zm60.27-144.62v.13h1.08a171.76 171.76 0 0 1 27.5 2.12c7.15 1.19 14.15 2.85 20.64 6.19 4 2.05 7.69 4.57 9.66 8.71a25.59 25.59 0 0 1 2.7 11.06 24.1 24.1 0 0 1-.83 6.23c-.26 1-.63 1.9-1 2.9l-.08.23.23-.07a5.91 5.91 0 0 0 4.18-4.13 17.25 17.25 0 0 0 .9-5.49 19.92 19.92 0 0 0-.51-4.39c-.94-4.18-1.88-8.46-5.14-11.61a30.9 30.9 0 0 0-5.62-4.3 60.67 60.67 0 0 0-16.41-6.3 160.38 160.38 0 0 0-29.95-4.5c-.9-.06-1.79-.08-2.7-.08h-4.78v3.38h.12v-.13h.13V121h-.13v.12h4.66c.9 0 1.79 0 2.68.08a160.66 160.66 0 0 1 29.91 4.49c5.7 1.46 11.29 3.24 16.35 6.28a30.67 30.67 0 0 1 5.56 4.25c3.2 3.09 4.14 7.31 5.08 11.49a20.14 20.14 0 0 1 .5 4.34 16.71 16.71 0 0 1-.89 5.41 5.64 5.64 0 0 1-4 4v.12h.12c.33-1 .71-1.94 1-2.92a24.57 24.57 0 0 0 .84-6.29 25.91 25.91 0 0 0-2.65-11.17c-2-4.22-5.76-6.76-9.77-8.82-6.53-3.36-13.56-5-20.72-6.22a172.26 172.26 0 0 0-27.59-2.16h-1.08v.12Zm-30.85 23h.12v-6H41v6.1h29.68v-.12h-.12v-.13H41.17v.13h.12v-5.85h-.12v.12h29.39v-.12h-.13v5.85h.13Zm-36 3.55h.13v-9.53h-13v9.66h13v-.13h-.13v-.12H21.8v.12h.13v-9.41h-.13v.13h12.74v-.13h-.12v9.41h.12Zm122.19 124.81h.12c.75-4.85 1.53-9.68 2.24-14.53a28.06 28.06 0 0 0 .33-4.19 21.06 21.06 0 0 0-.53-4.79 21.56 21.56 0 0 0-5.36-9.9l-.28-.3.07.41c.14.88.23 1.41.31 1.94a54 54 0 0 1 .49 7.71c0 3.16-.19 6.32-.35 9.48-.06 1.18-.1 2.36-.1 3.53a27 27 0 0 0 .9 7.45 5.29 5.29 0 0 0 2.09 3.28l.16.09v-.18h-.12l.06-.11a5 5 0 0 1-2-3.13 26.33 26.33 0 0 1-.9-7.38c0-1.17 0-2.34.1-3.51.16-3.17.35-6.33.35-9.5a53.09 53.09 0 0 0-.5-7.75c-.08-.53-.16-1.06-.31-1.94h-.12l-.09.08a21.42 21.42 0 0 1 5.3 9.79 21.09 21.09 0 0 1 .52 4.73 27.87 27.87 0 0 1-.33 4.16c-.71 4.84-1.48 9.67-2.24 14.52h.13l.06-.11ZM77.23 150.61v.13H89v-9.66H77.1v9.66h.13v-.13h.12v-9.4h-.12v.12h11.63v-.12h-.12v9.4h.12v-.12H77.23v.12Zm121.14-19 .11.05a7.55 7.55 0 0 0 1-2.86 1.78 1.78 0 0 0-.5-1.21 9.26 9.26 0 0 0-1.49-1.25 17.84 17.84 0 0 0-4.28-2.19 57 57 0 0 0-14.51-3.11c-9-.87-18-1.72-27-2.2-16.47-.89-33-1.5-49.44-2.22a2.7 2.7 0 0 0-.89.34l-.27.1.26.13a2.66 2.66 0 0 0 .9.41c2.31.13 4.63.2 6.94.31 12.61.62 25.21 1.17 37.81 1.9q15.5.9 30.95 2.19a40 40 0 0 1 14.36 3.78c2.59 1.27 4.82 2.89 5.94 5.87l.1.28.13-.27-.11-.05h.11c-1.15-3.06-3.45-4.73-6.06-6A40.1 40.1 0 0 0 178 121.8q-15.47-1.29-30.95-2.19c-12.6-.73-25.21-1.28-37.82-1.9-2.31-.11-4.63-.18-6.94-.31a2.53 2.53 0 0 1-.8-.39l-.06.12v.11a3 3 0 0 1 .8-.32c16.48.71 33 1.33 49.43 2.22 9 .48 18 1.33 27 2.19a56.85 56.85 0 0 1 14.45 3.11 17.42 17.42 0 0 1 4.21 2.15 9 9 0 0 1 1.45 1.22 1.46 1.46 0 0 1 .44 1 7.59 7.59 0 0 1-1 2.75l.12.06h.11Zm-59.67 40.77v.12a2.2 2.2 0 0 0 .52-.13l8.82-4.17h.09v-.09a9 9 0 0 0-3.24-5.14 13.52 13.52 0 0 0-6.18-3.15h-.15v12.79h.16v-.12h.12V159.9h-.12v.12a13.26 13.26 0 0 1 6 3.09 8.83 8.83 0 0 1 3.17 5h.11V168l-8.83 4.18a2.75 2.75 0 0 1-.47.11v.12Zm-82.9-4.17v.13h15.6a1.92 1.92 0 0 0 1-.23 1 1 0 0 0 .46-.94 1 1 0 0 0-.47-.92 2.18 2.18 0 0 0-1-.26H40.41a.74.74 0 0 0-.37.1 9.48 9.48 0 0 0-1.15 1l-.1.09.1.09a7.66 7.66 0 0 0 1.15 1 .71.71 0 0 0 .41.09H55.8v-.25H40.45a.54.54 0 0 1-.28-.05 7.93 7.93 0 0 1-1.11-1l-.09.09.09.09a10.42 10.42 0 0 1 1.12-1 .44.44 0 0 1 .23 0H71.4a2.09 2.09 0 0 1 .86.22.76.76 0 0 1 .35.71.81.81 0 0 1-.35.73 1.69 1.69 0 0 1-.86.19H55.8Zm.2 32.68v-.12H41.36a10.19 10.19 0 0 0-1.35.08 1.49 1.49 0 0 0-.7.39 1.1 1.1 0 0 0-.39.66 1 1 0 0 0 .34.63 3.8 3.8 0 0 0 .6.49.83.83 0 0 0 .46.11h31.12a.76.76 0 0 0 .44-.11 2 2 0 0 0 .92-1.16.88.88 0 0 0-.35-.56 4.34 4.34 0 0 0-.6-.44.8.8 0 0 0-.43-.09H56v.23h15.43a.45.45 0 0 1 .3.06 3.88 3.88 0 0 1 .56.4.79.79 0 0 1 .27.38c0 .31-.45.72-.82 1a.44.44 0 0 1-.29.07H40.33a.67.67 0 0 1-.32-.06 4.1 4.1 0 0 1-.56-.47.76.76 0 0 1-.27-.45.92.92 0 0 1 .31-.49 1.21 1.21 0 0 1 .56-.32 9.65 9.65 0 0 1 1.32-.08H56Zm-.09 19.44v.13h14.83a4.77 4.77 0 0 0 1-.09 1.68 1.68 0 0 0 .68-.41 1.08 1.08 0 0 0 .38-.64.88.88 0 0 0-.35-.6 3.8 3.8 0 0 0-.6-.49.66.66 0 0 0-.43-.11H40.41a1.41 1.41 0 0 0-.67.13 2.87 2.87 0 0 0-.53.42.92.92 0 0 0-.3.55v.05h.13-.13a1.77 1.77 0 0 0 .87 1.1 1.22 1.22 0 0 0 .6.12h15.51v-.25H40.36a.92.92 0 0 1-.47-.09 1.52 1.52 0 0 1-.75-.91.62.62 0 0 1 .23-.37 2.35 2.35 0 0 1 .48-.38 1.09 1.09 0 0 1 .54-.1h31.07a.48.48 0 0 1 .28.06 5.09 5.09 0 0 1 .58.46c.17.17.28.34.27.43a.84.84 0 0 1-.3.48 1.34 1.34 0 0 1-.57.34 4.11 4.11 0 0 1-.94.09H55.89Zm0 50.08v-.12H40.43a2.2 2.2 0 0 0-1 .18 1 1 0 0 0-.54.87v.13a1 1 0 0 0 .49.9 2.54 2.54 0 0 0 1 .24H71.2a1.71 1.71 0 0 0 .87-.16 2 2 0 0 0 .5-.44 1.05 1.05 0 0 0 .25-.59 1 1 0 0 0-.29-.58 2.13 2.13 0 0 0-.53-.43 1.12 1.12 0 0 0-.54-.11H55.88v.25h15.58a.85.85 0 0 1 .42.08 1.61 1.61 0 0 1 .46.38.74.74 0 0 1 .23.42.85.85 0 0 1-.2.43 1.73 1.73 0 0 1-.43.39 1.5 1.5 0 0 1-.74.12H40.39a2.34 2.34 0 0 1-.9-.21.69.69 0 0 1-.36-.68v-.11a.74.74 0 0 1 .4-.67 1.87 1.87 0 0 1 .89-.15H55.9Zm-.17-119.6v.13h15.61a1.34 1.34 0 0 0 .63-.12 2.36 2.36 0 0 0 .56-.46 1 1 0 0 0 .29-.6 1 1 0 0 0-.34-.59 3.42 3.42 0 0 0-.59-.45.86.86 0 0 0-.42-.09h-31.2a.63.63 0 0 0-.4.1 2 2 0 0 0-1 1.11v.05a.87.87 0 0 0 .34.55 2.62 2.62 0 0 0 .61.43 1.32 1.32 0 0 0 .59.11h15.31v-.25H40.46a1 1 0 0 1-.48-.09 2.27 2.27 0 0 1-.55-.38.71.71 0 0 1-.26-.37c0-.32.48-.7.85-1a.62.62 0 0 1 .27 0h31.2a.55.55 0 0 1 .29.06 2.65 2.65 0 0 1 .54.41.68.68 0 0 1 .27.42.78.78 0 0 1-.23.44 2 2 0 0 1-.49.4 1.11 1.11 0 0 1-.51.09H55.75Zm.26 32.72v-.12H40.25a.88.88 0 0 0-.5.11 1.75 1.75 0 0 0-.83 1.11.83.83 0 0 0 .3.54 3.3 3.3 0 0 0 .54.42.87.87 0 0 0 .45.09h31.3a.73.73 0 0 0 .38-.09 5.15 5.15 0 0 0 .59-.43.87.87 0 0 0 .35-.54 2.1 2.1 0 0 0-1-1.11.79.79 0 0 0-.42-.1H56v.25h15.44a.53.53 0 0 1 .28.06c.37.24.8.63.84.94h.12-.12s-.1.2-.27.35a4.89 4.89 0 0 1-.55.41.52.52 0 0 1-.25.05H40.21a.57.57 0 0 1-.32-.06 2.16 2.16 0 0 1-.49-.38.63.63 0 0 1-.23-.36 1.57 1.57 0 0 1 .72-.92.63.63 0 0 1 .36-.07H56Zm-.13 52.12v-.12h-15.3a2.83 2.83 0 0 0-1.09.15 1 1 0 0 0-.59 1v.06a1 1 0 0 0 .61 1 3.73 3.73 0 0 0 1.15.13h30.78a1.08 1.08 0 0 0 .56-.11 2.32 2.32 0 0 0 .54-.42 1 1 0 0 0 .29-.58 1.54 1.54 0 0 0-.74-1 1.07 1.07 0 0 0-.61-.13h-.54v.12-.12H55.85v.25H71v-.11.11-.11.11h.5a.79.79 0 0 1 .47.09c.3.18.65.61.63.84a.75.75 0 0 1-.23.41 1.63 1.63 0 0 1-.47.37.94.94 0 0 1-.44.08H40.65a3.8 3.8 0 0 1-1.06-.11.71.71 0 0 1-.45-.77v-.05c0-.45.18-.63.44-.74a2.51 2.51 0 0 1 1-.13h15.27Zm-.12 19.44v.13h15.57a2.08 2.08 0 0 0 1.05-.22 1 1 0 0 0 .48-1 1 1 0 0 0-.48-.9 2.05 2.05 0 0 0-1-.18H40.32a.82.82 0 0 0-.43.09 3.7 3.7 0 0 0-.61.42 1 1 0 0 0-.36.57 1.06 1.06 0 0 0 .28.61 2.72 2.72 0 0 0 .54.49 1 1 0 0 0 .54.12h15.45V255H40.28a.75.75 0 0 1-.4-.08 2.5 2.5 0 0 1-.49-.44.74.74 0 0 1-.22-.45.68.68 0 0 1 .28-.4 3 3 0 0 1 .56-.39.57.57 0 0 1 .31-.06H71.4a1.8 1.8 0 0 1 .85.15.71.71 0 0 1 .35.69.76.76 0 0 1-.36.74 1.77 1.77 0 0 1-.92.19H55.73Zm114.07-96.3h-.12v.11l.05.14.13-.07c2.48-1.34 5-2.65 7.43-4 5-2.88 10.15-5.63 14.45-9.64 3-2.8 5.85-5.73 7.56-9.57a30.08 30.08 0 0 0 1-3.18l-.22-.12c-1.16 1.44-2 3-3 4.36a61.48 61.48 0 0 1-14.11 13c-4.33 3.07-8.82 5.91-13.24 8.86l-.08.05v.09h.12l.07.11c4.42-3 8.91-5.8 13.25-8.86A61.94 61.94 0 0 0 197.28 137c1.05-1.4 1.91-2.94 3.05-4.35l-.1-.08h-.12a28.41 28.41 0 0 1-1 3.16c-1.69 3.78-4.51 6.69-7.5 9.49-4.27 4-9.38 6.72-14.41 9.6-2.44 1.39-4.94 2.7-7.42 4l.06.11h.12v-.11h-.12l.07.11Z" fill="#202263" data-color="1"/>
        <path d="M55.07 51v-.12L25 50a6.11 6.11 0 0 1-1.7-.19 1.72 1.72 0 0 1-1.11-1.22 3.68 3.68 0 0 1-.19-1.13A3.37 3.37 0 0 1 23.12 45q12.48-12.45 25-24.93a10.11 10.11 0 0 1 14.47 0Q75 32.49 87.41 44.92a3.7 3.7 0 0 1 1.29 2.6 3.41 3.41 0 0 1-.27 1.26c-.6 1.48-1.79 1.91-3.35 1.92H55v.3h.25v-.16h-.13v.13h29.95c1.6 0 3-.48 3.59-2.08a3.59 3.59 0 0 0 .34-1.37 3.94 3.94 0 0 0-1.36-2.78C79.28 36.48 71 28.17 62.72 19.9a10.36 10.36 0 0 0-14.83 0Q35.4 32.36 22.94 44.85a3.6 3.6 0 0 0-1.2 2.61 3.89 3.89 0 0 0 .2 1.22 2 2 0 0 0 1.27 1.38 6.13 6.13 0 0 0 1.77.2l30.09.84h.12V51Zm-.07-.91h.12V50H55v.13h30a2.81 2.81 0 0 0 3-1.59 2.49 2.49 0 0 0 .23-1A3.21 3.21 0 0 0 87 45.33Q74.53 32.91 62.11 20.48a9.65 9.65 0 0 0-6.82-2.87 9.43 9.43 0 0 0-6.7 2.81q-12.54 12.48-25 25a2.89 2.89 0 0 0-1 2.06 2.85 2.85 0 0 0 .15.88 1.48 1.48 0 0 0 1 1.05 5.29 5.29 0 0 0 1.37.11l29.89.7h.13v-.12H55V50l-29.84-.69a5.45 5.45 0 0 1-1.31-.1 1.22 1.22 0 0 1-.85-.89 2.64 2.64 0 0 1-.14-.8 2.67 2.67 0 0 1 .91-1.89q12.52-12.48 25-25a9.22 9.22 0 0 1 6.53-2.74 9.36 9.36 0 0 1 6.64 2.8Q74.36 33.08 86.79 45.5a3 3 0 0 1 1.1 2 2.24 2.24 0 0 1-.21.91c-.52 1.2-1.51 1.43-2.73 1.44H54.84v.2H55Z" fill="#202263" data-color="1"/>
    </g>
</svg>
