<?xml version="1.0" encoding="UTF-8"?>
<svg data-bbox="0 -0.008 215.282 187.748" viewBox="0 0 215.32 187.74" xmlns="http://www.w3.org/2000/svg" data-type="color">
    <g>
        <path d="M0 60.06c.79-1.32 1.92-1.52 3.44-1.46 4.07.16 8.15.07 12.23 0a1.14 1.14 0 0 0 .86-.58c1.52-3.49 4.34-4.88 7.94-4.93 4.08-.07 8.16 0 12.24 0 .31 0 .63 0 1.09-.06v-2.52a2.44 2.44 0 1 1 4.87 0v8.25h6.23v-9.98a16.92 16.92 0 0 1-2.54.46 4.25 4.25 0 0 1-4.25-2.74 4.53 4.53 0 0 1 .77-5c.24-.27.51-.51.76-.76Q61.51 22.83 79.35 5a16.3 16.3 0 0 1 12.26-5q37 .11 74 0a15.92 15.92 0 0 1 11.91 4.94q17.88 18 35.88 35.9c2.1 2.1 2.35 3.6 1.21 6.36a4.68 4.68 0 0 0-.2 1.76v109.45h-11.48v-23.49H193c-.1 2-.14 4-.29 6-.52 7.33-2 14.38-5.92 20.76-3 4.87-7.28 8.36-12 11.34-9.11 5.73-19.1 9.37-29.39 12.32a51.41 51.41 0 0 1-12.59 2.21 2.24 2.24 0 0 0-.55.19h-12.74c-1.81-.16-3.63-.26-5.43-.49-6.06-.77-12.17-1.3-18.15-2.49-4.72-.94-8.51-3.66-10.25-8.47a19.89 19.89 0 0 1-.78-10.29c.52-3 1.42-3.82 4.41-4.34a230.1 230.1 0 0 0 30.18-7.58 1.33 1.33 0 0 0 1.12-1.51v-16.56c0-.34 0-.69-.07-1.1h-60v23.46H48.94v-23.86h-6.26v21.41a6.16 6.16 0 0 1-.16 1.54 2.3 2.3 0 0 1-2.44 1.71 2.27 2.27 0 0 1-2.2-2 11.74 11.74 0 0 1-.07-1.68V57.88c-.36 0-.56-.09-.75-.09H24.22c-2.38 0-3.57 1.31-3.61 3.7a9.45 9.45 0 0 1 0 1.19c-.14.86.26 1.18 1 1.4 3.68 1 7.36 2.13 11 3.22 1.4.42 1.91 1.26 1.85 2.84 0 1.09-.77 1.83-2.1 2.09s-2.83.52-4.24.79l-7.52 1.45v3.21c-.06.86.22 1.25 1.09 1.49 3.66 1 7.29 2.12 10.92 3.2 1.33.4 2 1.26 1.9 2.41a2.18 2.18 0 0 1-2.07 2c-3.62.66-7.22 1.4-10.84 2-.83.15-1 .48-1 1.25a23.06 23.06 0 0 1 0 2.88c0 .79.27 1.08 1 1.29 3.65 1 7.28 2.13 10.92 3.22a2.35 2.35 0 0 1 2 2.46c0 1.12-.78 1.84-2.23 2.11-2.67.51-5.34 1-8 1.51-1.2.23-2.85.17-3.45.92s-.15 2.37-.23 3.6c-.05.74.23 1 .92 1.24 3.65 1 7.29 2.11 10.92 3.18 1.48.44 2.13 1.25 2.08 2.55 0 1.09-.81 1.83-2.23 2.11-2.71.52-5.42 1-8.13 1.53-1.16.22-2.67.19-3.35.91s-.11 2.13-.22 3.23.24 1.38 1.2 1.64c3.59 1 7.14 2.06 10.7 3.12a2.41 2.41 0 0 1 2 2.58c0 1.17-.79 1.88-2.31 2.16-1 .18-2 .35-3 .54l-8.65 1.65c0 1.11.07 2.15 0 3.18s.21 1.59 1.36 1.9c3.62 1 7.21 2.06 10.8 3.15a2.29 2.29 0 0 1 1.8 2.71 2.23 2.23 0 0 1-2.47 1.78H20.6v8.75a6.09 6.09 0 0 1-.17 1.65 2.1 2.1 0 0 1-2.12 1.63 2.13 2.13 0 0 1-2.25-1.61 4.8 4.8 0 0 1-.16-1.42v-12.84a1.2 1.2 0 0 0-1-1.41c-4.11-1.17-8.19-2.42-12.3-3.58a4 4 0 0 1-2.6-1.73v-1.44a2.86 2.86 0 0 1 2.43-1.67c1.39-.21 2.75-.49 4.13-.75l9.32-1.76c0-1-.07-1.86 0-2.73s-.28-1.17-1.06-1.39c-4.14-1.18-8.26-2.45-12.41-3.62A3.77 3.77 0 0 1 0 121.5v-1.68a3.72 3.72 0 0 1 2.68-1.5c3.53-.61 7.05-1.31 10.57-2 2.67-.52 2.64-.53 2.65-3.22 0-.79-.26-1.07-1-1.29-4.18-1.19-8.33-2.47-12.5-3.66a3.53 3.53 0 0 1-2.4-1.77v-1.44a2.9 2.9 0 0 1 2.41-1.69c3.65-.65 7.3-1.36 10.94-2.06 2.55-.49 2.51-.51 2.55-3.06a1.18 1.18 0 0 0-1-1.39c-4.18-1.19-8.34-2.47-12.52-3.66A3.32 3.32 0 0 1 0 91.26v-1.68A3.31 3.31 0 0 1 2.53 88c1.53-.21 3.05-.56 4.58-.85l8.71-1.65V82C11.38 80.66 7 79.34 2.58 78.09A4.27 4.27 0 0 1 0 76.38v-1.2a2.87 2.87 0 0 1 2.21-1.63c1.89-.31 3.77-.67 5.66-1l8-1.53v-1.45c0-2.65 0-2.65-2.5-3.39-3.1-.92-6.17-2-9.32-2.67C2.37 63.16 1 62.76 0 61.26Zm112.68-11.48H101v1.26c-.13 1.41-.09 2.68 1.65 3.14a2.9 2.9 0 0 1 1.11.89c3.11 3.24 3.24 9.54.28 12.93a5.36 5.36 0 0 1-8.75-.25 9.76 9.76 0 0 1-1.83-7.61c.43-2.89 1.66-5.33 4.55-6.58a.91.91 0 0 0 .48-.58v-3.36H87.92c-.31 0-.63 0-1.08.07v10.93c0 1 .11 1.58 1.15 2a5.57 5.57 0 0 1 2 1.65 10.24 10.24 0 0 1-.18 12.55 5.05 5.05 0 0 1-4.54 2 6.48 6.48 0 0 1-2.65-.94c-4.52-3.07-4.66-11.8 0-14.74A3.62 3.62 0 0 0 84.46 58c-.1-1.8 0-3.6 0-5.4v-4.2H72.72c0 1.86-.72 4 1.94 4.74a1.28 1.28 0 0 1 .38.29c3.78 3.31 3.79 10.7 0 14a5.13 5.13 0 0 1-7.08.08 8.47 8.47 0 0 1-2.75-5.18 9 9 0 0 1 4.62-10.08.87.87 0 0 0 .42-.61v-3.48h-9.64v75.66h39.53a1.81 1.81 0 0 0 .12-.39c0-5.08.14-10.16 0-15.23-.19-5.36 2.85-9.61 8.13-10.25a103.19 103.19 0 0 1 10.42-.27h1.81v-49.1h-5.42c0 3.47.06 6.87 0 10.26 0 1.34.09 2.39 1.59 2.81a2.36 2.36 0 0 1 .85.65c3.54 3.28 3.7 10 .33 13.51a5.27 5.27 0 0 1-8.27-.3 9.65 9.65 0 0 1-2-8.12 7.85 7.85 0 0 1 4.48-6.39c.27-.12.47-.68.48-1v-6.6ZM95 176.33c1 .31 1.79.62 2.62.84a101.5 101.5 0 0 0 21 3c5.15.29 10.3.53 15.42-.36 4-.71 7.51-2.32 9.81-6a5 5 0 0 1 2.4-1.62c9.52-3.7 18.72-8 27-14a23 23 0 0 0 4.51-4.06c5.37-6.75 7.36-14.59 7-23.1-.35-8.12-2.59-15.8-5.64-23.28 0-.1-.16-.16-.24-.24-5.76 2.65-11.64 3.2-17.43 1.09.05 4.56.24 9.1.13 13.63a40.29 40.29 0 0 1-4.5 18.21c-3.9 7.31-9.86 12.61-16.84 16.82a178.35 178.35 0 0 1-29.92 13.93c-4.94 1.81-10.02 3.37-15.32 5.14Zm73.88-109.74c-1.12.13-2.41.18-3.65.44-8 1.66-13.58 6.32-16.23 14s-1 14.74 4.18 20.97a1.13 1.13 0 0 0 1.41.46 2.05 2.05 0 0 1 2.42 1.06 10.59 10.59 0 0 0 2.19 2.55c6.42 4.66 17.11 3 22.46-1.72a1.88 1.88 0 0 0 .45-1.22c.07-1.53 1.21-2.55 2.63-2.09.82.26 1.08-.13 1.42-.63 4.82-7 5.6-14.48 1.74-22.09S177.5 67 168.88 66.59ZM90.82 1a14.65 14.65 0 0 0-10.75 4.69q-17.86 17.93-35.78 35.8a8.45 8.45 0 0 0-.81.88 3.58 3.58 0 0 0 .31 4.8c1.57 1.58 3.73 1.47 5.5-.31l36.14-36.13c3.19-3.19 7-3.19 10.24 0q18 18 36.06 36A6.24 6.24 0 0 0 133.2 48a3.58 3.58 0 0 0 4.58-1.17c1.15-1.59.91-3.43-.72-5.06Q118.7 23.38 100.33 5a13.58 13.58 0 0 0-9.51-4Zm41.36 72.38a1.36 1.36 0 0 0 .33.12h14.39a1.68 1.68 0 0 0 1-.64c1.1-1.21 2.05-2.58 3.25-3.68 11.8-10.91 29.29-9.26 39 3.62a2.1 2.1 0 0 0 1.46.7c2.52.07 5 0 7.56 0h3.7V57.73h-70.69ZM115 18.06a4.46 4.46 0 0 0 .24.43c2.85 2.86 5.7 5.73 8.58 8.55a2.16 2.16 0 0 0 1.38.48h72.22a11.15 11.15 0 0 0 1.18-.14c-3-3-5.78-5.7-8.52-8.5A2.66 2.66 0 0 0 188 18h-71.73ZM56.4 157.39V49.52a4.86 4.86 0 0 0 0-1.08c0-.21-.3-.54-.47-.54h-5.81v109.49Zm153.91-107.8H204v107.77h6.27Zm-88.61-1v104.75c1.82-.67 3.52-1.34 5.25-1.9a1.45 1.45 0 0 0 1.11-1.66V49.86c0-.42 0-.84-.07-1.3Zm35.91 57.82v.87a55.79 55.79 0 0 1-1 18.36c-2.73 11.71-8.79 20.83-20 26.13a151.18 151.18 0 0 1-26.93 9.58c-6.3 1.63-12.68 2.92-19 4.39-.36.09-.89.5-.91.79a13.13 13.13 0 0 0 1.76 7.47 2.4 2.4 0 0 0 3.1 1.22 196.55 196.55 0 0 0 30.19-11.14c6.57-3 13.11-6.13 19-10.41 7-5.12 12.43-11.48 14.95-20 2.35-7.92 2.22-16 1.51-24.14-.16-1.7-1.2-2.44-2.67-3.15ZM188 16.82c-2.43-2.42-4.55-4.59-6.74-6.68a2.83 2.83 0 0 0-1.75-.73h-72c-.37 0-.73 0-1.31.08 2.27 2.27 4.38 4.34 6.44 6.46a2.77 2.77 0 0 0 2.18.92h71.63ZM96.6 1c2.91 1.4 4.91 3.72 7 5.89a2.51 2.51 0 0 0 2 .85h72.99l.19-.31a22.1 22.1 0 0 1-1.78-1.6A15.07 15.07 0 0 0 165.31 1q-33.7.08-67.43 0Zm34.22 46.45c-.58-.61-.89-1-1.22-1.29L115 31.57c-6.81-6.86-13.62-13.73-20.51-20.57a5.45 5.45 0 0 0-8 .16q-17.34 17.3-34.65 34.6c-.24.24-.44.5-.9 1 26.69.88 53.06.66 79.88.71Zm-5-18.37c2.11 2.09 3.94 4 5.85 5.78a2.66 2.66 0 0 0 1.65.67q36.1.06 72.23 0c.29 0 .59 0 1.15-.07-2-2-3.83-3.74-5.6-5.58a2.56 2.56 0 0 0-2.09-.84h-71.63Zm88 13.64c-.46-.5-.7-.8-1-1.06-1.25-1.25-2.52-2.46-3.72-3.75a2.48 2.48 0 0 0-2-.8h-71.61c-.41 0-.83 0-1.46.08l1.13 1.19a46.91 46.91 0 0 1 3.32 3.45 2.13 2.13 0 0 0 1.89.9h72Zm-21.86 96.35-.33-.05-.45 1.81c-.16.62-.34 1.23-.51 1.85-2 7.12-6.59 12.41-12.23 16.9-8.28 6.57-17.6 11.28-27.35 15.2-1.36.54-2.28 1-2.16 2.77a10.22 10.22 0 0 1-.8 3.47c-.27.88-.69 1.72-1.07 2.63a2.77 2.77 0 0 0 .46 0c9.43-2.86 18.59-6.35 27-11.64a37 37 0 0 0 9.83-8.53c3.82-5 5.75-10.73 6.74-16.84.34-2.5.54-5.03.84-7.55ZM60.58 130.8h60V125h-60Zm44.34-7h15.59v-21.3c-3.75 0-7.42-.15-11.06 0-3 .17-4.59 2.18-4.57 5.23v14.73Zm18.93 62.74c2.4 0 4.81.15 7.19 0 3.5-.27 7-.71 10.46-1.22a6.63 6.63 0 0 0 6-5.87 17.41 17.41 0 0 0 .21-4.14 1.71 1.71 0 0 0-1.66-1.75 2.46 2.46 0 0 0-1.52 1.25 13.06 13.06 0 0 1-7.63 6.18 32.91 32.91 0 0 1-12 1.62c-5.86-.19-11.73-.57-17.56-1.18a45.21 45.21 0 0 1-13.76-3.51 7.71 7.71 0 0 1-4.58-5.07 21.56 21.56 0 0 1-.54-7.24 7.45 7.45 0 0 0-.78-2.47c-.53.7-1.39 1.33-1.53 2.09a29.14 29.14 0 0 0-.48 5.82c.19 6.64 4.13 11.41 10.65 12.85 9.09 2 18.31 2.46 27.53 2.68Zm90.4-142.24h-74.42c-.56 1.4-1.05 2.67-1.56 4h.91l32.88.08h15.72c7.51 0 15 .08 22.55 0a3.77 3.77 0 0 0 3.92-4.04Zm-82.06 51.88c0 .55-.07.94-.07 1.33v14.88c0 1 .28 1.34 1.34 1.34h19c.42 0 .84 0 1.18-.07v-4.57a1.38 1.38 0 0 0-.56-.83 26.66 26.66 0 0 1-8.26-11.29 1.24 1.24 0 0 0-.88-.72c-3.94-.08-7.76-.07-11.75-.07Zm55.11 8.47a24.6 24.6 0 0 0 4.27-27.26 24.85 24.85 0 0 0-46.95 5.82c-2 10.13 2.8 19.49 8.72 23.77a10.29 10.29 0 0 1-.28-2.52 2.13 2.13 0 0 0-.71-1.88 22.21 22.21 0 0 1 18.77-36.81c16.81 1.55 25.86 20.7 16.25 34.59a3.26 3.26 0 0 0-.26 4c.04.1.1.16.19.29Zm-145.66-1.1V50.42c-.05-.93-.52-1.57-1.48-1.52a1.35 1.35 0 0 0-1.31 1.55v105.42c0 .36-.13.82 0 1.06.36.49.86 1.13 1.36 1.19s1-.62 1.29-1.1a3.1 3.1 0 0 0 .1-1.41Zm90.57-28.74v19.93H144a26.44 26.44 0 0 1 2.63-19.93Zm-74.7-26.74V157.4h1.94V48.07Zm32.34 116.7c.48-.06.92-.09 1.34-.18 4.22-.92 8.45-1.76 12.64-2.78a174.5 174.5 0 0 0 31-10.28c7.73-3.52 13.77-8.72 17.51-16.46a49.34 49.34 0 0 0 4.6-23.76c-.08-2.19-.43-4.37-.66-6.55-.09-.8-.4-1.47-1.33-1.33s-.94.94-.82 1.7v.24a51.62 51.62 0 0 1-1.1 21.39c-2.48 9.1-7.17 16.62-15.84 21.1-1.67.86-3.34 1.72-5.05 2.47-11.54 5.07-23.64 8.3-35.89 11-2.37.53-4.76 1-7.16 1.45Zm113-111.91H132.2v3.06h70.67Zm0 43.33h-8.66c-.32 0-.78.48-.92.84a27.86 27.86 0 0 1-5 8.23 1.66 1.66 0 0 0-.27 1.32c.58 2 1.29 4 1.87 6.06a1.19 1.19 0 0 0 1.39 1h10.54c.34 0 .69-.06 1.08-.09Zm10.48 61.22V48.62c-1 .53-2.06.43-2.05 2.07q.08 52.71 0 105.43c0 .42.06.84.09 1.29Zm-64.59 17.17a3.06 3.06 0 0 0 .43-.09A123 123 0 0 0 173.52 162c4.64-3.18 9-6.73 12.22-11.39 4.18-6 5.55-12.83 5.65-20a63 63 0 0 0-3.12-19.69c-.87-2.73-1.94-5.4-3-8.07a1.71 1.71 0 0 0-1.26-.77c-.26 0-.72.57-.83 1s.2.75.35 1.11c3.59 8.78 5.86 17.83 5.63 27.39-.18 7.86-2.12 15.12-7.74 20.95a55 55 0 0 1-6.35 5.66c-8.05 6.1-17.07 10.45-26.39 14.24-.38.15-.76.32-1.15.49Zm-19.63-126v102c1-.49 2-.48 2-2q-.08-49.36 0-98.73v-1.3Zm24.72 67h-21.62v8.27c.11.08.15.13.18.13h19.67a1 1 0 0 0 .73-.55c.38-2.65.69-5.25 1.04-7.93Zm37.56-40.7a26.42 26.42 0 0 1 2.67 19.94h8.76V74.8Zm11.46-25.3h-22.59q-21.64 0-43.29-.09c-1.56 0-3.13-.19-4.75-.3v2.57h70.63Zm-70.66 99.91c2.73-1.55 5.26-2.87 7.68-4.39 3-1.89 3-2 3-5.51v-4.6h-10.68ZM152.56 125h-20.35v5.89h17.89a.91.91 0 0 0 .69-.47c.61-1.77 1.21-3.54 1.77-5.42ZM42.76 87.76v17.62h6.13V87.76Zm6.15-5.66V64.46h-6.14V82.1Zm0 46.67v-17.6h-6.15v17.6ZM180 106.93l.47 1.19a71.82 71.82 0 0 1 5.2 20.58c.58 7.45-.2 14.67-3.94 21.33a6.22 6.22 0 0 0-.28.75 2.05 2.05 0 0 0 .33-.25c.16-.18.31-.36.46-.55 3.48-4.35 5.08-9.44 5.71-14.88a54.64 54.64 0 0 0-2.07-21c-.86-3.09-1.95-6.12-3-9.31ZM60.57 133.75h59.92V132H60.57Zm43.35-11.3v-14.74c0-3.49 1.76-5.63 5.22-6.17a23.1 23.1 0 0 1 3.22-.19h7.31V98.7h-8a17.39 17.39 0 0 0-2 .08c-5.27.59-8.32 3.71-8.37 8.69v14.38a4.37 4.37 0 0 0 .08.59Zm86.76-7c.5 2.85 1 5.61 1.47 8.43h10.68v-8.43ZM2.11 104.62c-.28.32-.86.69-.95 1.15-.17.92.64 1.13 1.35 1.34l28.58 8.41c.34.1.75.32 1 .21.46-.17 1.1-.5 1.19-.88s-.43-.87-.75-1.25c-.13-.16-.44-.17-.67-.24L3.44 105c-.34-.13-.69-.21-1.33-.38Zm.12-15.05c-.29.26-.92.55-1 1s.38.9.67 1.3c.11.16.44.16.67.22l28.56 8.42c.34.1.76.29 1 .18a2.11 2.11 0 0 0 1.17-.93c.1-.28-.4-.83-.71-1.18-.16-.18-.51-.19-.78-.27L5 90.36c-.84-.25-1.69-.48-2.77-.79Zm0 30.12c-.31.31-.92.64-1 1.08s.47.85.81 1.23c.13.15.44.16.66.23l28.3 8.36c.38.11.83.34 1.15.23a2 2 0 0 0 1.17-.94c.1-.29-.39-.83-.69-1.19-.13-.15-.44-.17-.67-.23L6.73 121Zm0 15.11c-.3.28-.92.6-1 1s.42.89.75 1.27c.16.18.51.19.78.26l26.5 7.81 2.41.7a1.24 1.24 0 0 0 1.72-.82c.23-.79-.35-1.14-1-1.38-.15 0-.31-.07-.46-.12l-28.58-8.43Zm30.2-64.12c.3-.32.89-.68 1-1.14.19-.92-.63-1.14-1.34-1.34L3.34 59.76a2 2 0 0 0-1-.18c-.44.17-1 .5-1.1.87s.33.87.64 1.22c.18.2.58.22.89.31l27.49 8.12c.61.18 1.23.34 2.12.58Zm0 15c.29-.27.9-.6 1-1s-.44-.89-.77-1.28c-.12-.15-.44-.15-.67-.22L3.51 74.87c-.92-.27-1.95-.62-2.32.6s.82 1.36 1.62 1.6q14.13 4.19 28.26 8.32c.34.11.7.18 1.29.32Zm66.01-30.82c-3.28 2.13-3.64 8.36-.63 10.86a2.67 2.67 0 0 0 4-.13 8.94 8.94 0 0 0 1.76-3.32c.8-3-.36-6.13-2.5-7.4-1.13.97-1.5.97-2.63-.01Zm-28.26 0c-2.94 1.8-3.66 6.94-1.41 10.05 1.57 2.17 4 2.13 5.48-.15a8 8 0 0 0 .78-6.9 4.6 4.6 0 0 0-2.31-3c-1.05.98-1.44.97-2.54-.01ZM87 63.44c-1 1.22-1.87 1.09-2.64.12-3 2-3.63 7-1.44 10 1.56 2.19 4 2.15 5.5-.09a8.17 8.17 0 0 0 0-8.6A13 13 0 0 0 87 63.44Zm28.2.12a1.43 1.43 0 0 1-2.54 0c-3.35 2.2-3.65 8.49-.61 10.93a2.62 2.62 0 0 0 3.79-.1 9.59 9.59 0 0 0 1.88-3.5 6.75 6.75 0 0 0-2.55-7.33Zm-77.46-9.29c-5.05 0-10-.2-14.86.07a6.37 6.37 0 0 0-5.88 5.9c-.32 2.55-.26 2.64 2.46 3.08 0-.4.05-.79.06-1.18 0-3.83 1.59-5.4 5.39-5.4h12.83ZM202.84 125H192.2c.21 2 .41 3.94.61 5.84h10ZM17 142.68c0 .3-.06.49-.06.69v13.06c0 .2-.05.48 0 .59.4.42.83 1 1.3 1.1s.9-.6 1.2-1 .09-.78.09-1.18v-10.35c.03-2.43.03-2.43-2.53-2.91Zm115.21-9c.45 0 .84.05 1.23.05h14.75c1.38 0 1.61-.23 1.73-1.74h-17.73Zm-115-36.28c-.09.13-.14.16-.14.2 0 3.23-.07 6.45-.07 9.68a1 1 0 0 0 .49.69c.62.24 1.29.37 2.1.6V98.52A.83.83 0 0 0 19 98c-.58-.22-1.24-.37-1.84-.55Zm-.23-15v9.85a.92.92 0 0 0 .51.66c.61.24 1.27.37 2.1.6v-8.25c0-2.63.49-2-2.15-2.82a1.8 1.8 0 0 0-.51-.01Zm2.63 41.2v-9.81a1 1 0 0 0-.44-.71 22.71 22.71 0 0 0-2.18-.64v8.22c-.07 2.46-.07 2.46 2.57 2.97Zm0-45.24v-9.88a1 1 0 0 0-.53-.65c-.62-.24-1.27-.38-2.08-.6v8.37c-.08 2.4-.08 2.4 2.55 2.79Zm0 60.32v-9.87a.92.92 0 0 0-.48-.68c-.64-.25-1.33-.39-2.13-.61v8.19c-.08 2.44-.08 2.44 2.55 3Zm23.18-52.1h6.18v-3.36h-6.24ZM49 59.88h-6.24v3.4h6.18ZM4.13 88.78l-.06.28c1.46.39 2.94 1.18 4.37 1.09a58.88 58.88 0 0 0 7.38-1.32v-2.25ZM4.31 104a2.64 2.64 0 0 0 0 .29c1.55.37 3.12 1.07 4.66 1a34.34 34.34 0 0 0 6.21-1.12c.29-.06.6-.52.69-.85a6.33 6.33 0 0 0 0-1.53Zm11.57 12.92L4.48 119c1.83.6 3.47 1.73 5.49 1.26 1.66-.4 3.35-.67 5-1 .6-.11 1-.31.88-1a14 14 0 0 1 .03-1.39ZM15.83 132l-11.19 2.16c3.78 2.46 7.45.65 11.19.16Zm27-2.12v3.37h6.1v-3.37ZM48.9 110v-3.4h-6.12v3.4ZM5.27 74.05c2 .77 4 1.85 6.22 1.12a11.72 11.72 0 0 1 2.81-.53c1.34-.08 1.83-.69 1.58-2 0-.18-.07-.37-.11-.6Zm15.39-.64 10.05-1.9c-3.35-2.12-6.68-1.05-10-.32ZM144 134.9v6.42l.32.15 4.68-6.57Zm-123.36-1.51 9.53-1.79c-3.19-1.88-6.34-1.34-9.53-.36Zm0-15.15 9.4-1.78c-3.14-1.73-6.25-1.45-9.4-.35ZM202.88 132h-10.06c.06.64.1 1.17.14 1.65h9.92ZM20.69 101v2.15l9.21-1.74c-3.08-1.8-6.12-1.41-9.21-.41Zm0-13 9.16-1.74c-3.75-1.49-5.92-1.56-9.16-.4Zm77.6-34.62a15 15 0 0 0-1.5 1.07c-2.91 2.73-3.24 8.09-.73 11.45 2 2.73 5.29 2.78 7.39.11a9.21 9.21 0 0 0-.22-11.12 13.39 13.39 0 0 0-1.94-1.56l-.33.39a3.83 3.83 0 0 1 .43.17c4 1.89 4.6 9.25 1.23 12.47a3.7 3.7 0 0 1-5.1.42 7.19 7.19 0 0 1-1.9-2.41c-1.91-3.95-.83-7.9 2.63-11.06ZM87.18 62l-.24.33c4 3 4.94 8.67 1.92 12.28a4 4 0 0 1-6.49 0c-3.13-3.81-1.9-10.67 1.87-12.16l.09-.25a4.62 4.62 0 0 0-1.94 1.12c-2.88 2.92-2.92 8.76-.1 11.76a4.3 4.3 0 0 0 6.86-.25 9.27 9.27 0 0 0 .3-10.75A16.24 16.24 0 0 0 87.18 62ZM73 53.2l-.24.34.13.19c4.08 1.78 4.72 9 1.62 12.36a3.93 3.93 0 0 1-5.85.23c-3-2.79-2.92-9.15.18-11.82.43-.36.92-.64 1.38-1a2.06 2.06 0 0 0-1.32.5c-3.78 2.79-3.78 10.24 0 13a4.1 4.1 0 0 0 5.46-.29c3-2.67 3.4-8.27.84-11.52A17.48 17.48 0 0 0 73 53.2Zm39.59 9.09-.13-.2a11.56 11.56 0 0 0-1.09.6c-3.89 2.8-3.8 10.45.14 13.18a4.14 4.14 0 0 0 5.29-.41c3.28-2.94 3.37-9.32.14-12.34a11.53 11.53 0 0 0-1.58-1.07c-.07.3 0 .41.08.46 4 1.85 4.62 9.14 1.42 12.38a3.93 3.93 0 0 1-5.77.16c-3-2.81-2.89-9.17.22-11.83.4-.34.85-.62 1.28-.93ZM21.42 143.9v2.22h6.93v-.17Zm-6.63-84.07H7.94v.2l6.87 2Zm1.05 30.06-5 .93V91l5 1.46ZM11.23 106v.25l4.57 1.35v-2.46Zm0 15.11v.19l4.58 1.36v-2.46Zm.26 15.1-.05.24 4.35 1.28v-2.32Zm110.31 45.36-17.15-1.6a90.63 90.63 0 0 0 17.16 1.55ZM12.13 76.07v.26l3.67 1.07v-2ZM114 48.66h-.19V63h.19Zm-28.34 0h-.16v14.42h.19ZM23.79 69.5v-.26l-3.1-.89v1.74Zm-3.1 59.12v1.45l2.53-.47v-.23Zm2.36-14.14v-.24l-2.35-.7v1.37Zm-2.4-14.66 2.35-.46v-.19l-2.36-.7Zm0-15.2 2-.4V84l-2.06-.58Zm50.91-36.16h-.17v5.86h.17Zm28.07 5.89h.2v-5.66h-.2Z" fill="#202263" data-color="1"/>
        <path d="m90.61 45.09-26.12-.63a13.31 13.31 0 0 1-1.55-.12 2.48 2.48 0 0 1-2-3.76 5.19 5.19 0 0 1 1-1.32q10.82-10.78 21.59-21.54c4.25-4.24 9.78-4.23 14 0l21.79 21.79a3.12 3.12 0 0 1 .46 4.39 3.49 3.49 0 0 1-2.91 1.1c-8.47 0-16.94 0-25.42-.05h-.84ZM87.08 44h29.81a2.32 2.32 0 0 0 2.34-1.12c.59-1.13.07-2-.73-2.76q-10.95-10.93-21.88-21.88a8.21 8.21 0 0 0-12.16.05L62.83 39.91a6.56 6.56 0 0 0-.8.88 1.57 1.57 0 0 0 1.16 2.59 15.44 15.44 0 0 0 1.67.12Z" fill="#202263" data-color="1"/>
    </g>
</svg>
