<?xml version="1.0" encoding="UTF-8"?>
<svg data-bbox="0 -0.002 1221.09 737.876" viewBox="0 0 1221.09 737.89" xmlns="http://www.w3.org/2000/svg" data-type="color">
    <g>
        <path d="M6.03 1.15c73.91 63.84 156.71 115.19 237.44 169.46 93.18 62.64 185.76 126.21 282.58 183.25 79.08 46.59 161.04 86.74 249.6 112.15 36.15 10.37 73 17.55 110.73 15.93 17.44-.75 35.42-3.2 51.92-8.64 52.95-17.45 79.79-72.37 61.19-125.18-20.54-58.34-77.58-105.04-139.34-112.96-23.44-3.01-48.23 4.94-64.83 22.02-7.97 8.21-13.51 19.29-13.09 30.72.45 12.16 7.39 23.14 15.34 32.35 18.03 20.87 41.75 35.59 64.06 51.96 5.48 4.02 1.57 12.65-5.07 11.17-16.23-3.61-31.72-11.67-45.87-20.72-18.21-11.63-35.77-25.72-45.66-44.94-15.21-29.53-3.64-61.26 20.63-81.76 24.02-20.3 61.73-25.95 92.06-20.18 18.18 3.46 35.75 10.05 51.97 18.91 51.29 28.01 96.97 85.51 96.63 146.17-.3 51.66-35.16 96.55-84.31 111.43-34.59 10.47-69.58 10.82-104.86 6.03-65.95-8.96-127.33-32.41-187.14-60.39-95.24-44.55-184.07-100.22-270.79-159.16C283.71 213.86 188.8 148.02 94.7 81.09 62.25 58 32.12 31.64 1.3 6.26c-3.39-2.79.52-8.13 4.1-5.6.23.16.44.32.63.49Z" fill="#f5ad3c" data-color="1"/>
        <path d="M272.29 281.1c93.75 48.31 179.36 108.16 254.63 182.36 43.93 43.31 75.31 94.28 92.9 153.52 5.52 18.58 8.22 37.43 6.6 57-3.68 44.29-43.91 69.48-86.07 62.84-37.74-5.94-74.4-33.04-89.97-68.45-7.47-16.98-11.78-40.47-2.63-57.66 10.2-19.18 33.73-22.67 53.19-18.29 31.06 6.98 52.94 29.86 66.27 58 .81 1.71 1.21 3.6 1.29 5.63.18 4.76-5.86 7.02-8.97 3.41-15.24-17.64-32.34-37.37-55.59-45.07-22.85-7.56-45.84 2.15-40.12 29.55 7.64 36.64 49.6 72.57 87.27 74.74 35.26 2.03 58.02-17.4 58.49-52.58.21-15.76-2.69-32.07-7.09-47.29-15.73-54.51-44.51-101.56-84.14-142.2-58.25-59.73-124.04-109.91-195.16-153.04-40.64-24.65-82.69-46.97-124.07-70.39a.413.413 0 0 1-.11-.07c-1.73-.98-.47-3.63 1.39-2.93 18.4 6.89 52.72 21.04 71.91 30.92Z" fill="#f5ad3c" data-color="1"/>
        <path d="M693.46 553.11c3.9 1.98 21.64 10.97 32.26 16.82 74.19 40.9 151.81 74.02 232.39 99.78 54.6 17.46 121.46 40.18 176.81 12.38 22.14-11.12 43.92-32.05 34.98-59.13-8.71-26.35-43.28-37.63-68.04-40.63-12.84-1.56-26.2-1.6-38.34 2.87-6.28 2.31-12.57 6.33-14.7 12.68-1.73 5.12-.37 10.9 2.49 15.49 2.85 4.59 7.05 8.17 11.36 11.44a152.21 152.21 0 0 0 22.8 14.31c1.93.98 4.2 2.52 3.85 4.65-.35 2.09-2.95 2.85-5.07 2.96-11.34.6-22.28-4.29-31.84-10.43-11.51-7.39-22.48-18.1-23.67-31.72-1.02-11.66 5.71-23.06 15.16-29.95 9.45-6.89 21.26-9.84 32.91-10.94 36.75-3.48 76 10.55 100.29 38.78 21.01 24.4 12.88 56.31-4.35 74.08-25.61 26.41-67.72 39.32-118.39 31.9-30.1-4.41-73.74-18.87-102.57-28.39-34.54-11.41-68.41-24.78-101.64-39.58-5-2.23-9.98-4.48-14.95-6.77-10.72-4.94-21.4-9.97-32.02-15.12-10.66-5.18-21.27-10.47-31.79-15.92-10.52-5.44-20.97-11.03-31.33-16.8-10.36-5.77-20.63-11.7-30.78-17.83-5.36-3.24-10.74-6.47-15.9-10.02-1.48-1.02-3.34-2.04-4.22-3.69-.83-1.55.63-2.23 2.03-2.01.79.13 1.56.43 2.28.8Z" fill="#f5ad3c" data-color="1"/>
        <path d="M1221.09 593.6c-44.38-29.8-79.24-50.78-152.48-47.42 55.24-18.26 113.78-3.67 152.48 47.42Z" fill="#f5ad3c" data-color="1"/>
        <path d="M298.57 358.12c57.27 11.65 99.84 43.27 124.56 86.81-42.95-38.06-63.8-57.51-124.56-86.81Z" fill="#f5ad3c" data-color="1"/>
        <path d="M990.83 728.16c-63.64-10.44-120.19-36.77-170.21-77.38 27.56 14.62 54.51 30.58 82.86 43.47 28.39 12.91 58.17 22.73 87.35 33.91Z" fill="#f5ad3c" data-color="1"/>
        <path d="M1052.16 327.59c-25.49-51.42-45.1-79.63-95.77-115.75 50.83 12.3 99.45 69.55 95.77 115.75Z" fill="#f5ad3c" data-color="1"/>
        <path d="M1068.31 301.41c-9.45-18.65-17.53-38.17-28.73-55.7-11.36-17.78-25.81-33.6-38.34-49.56 26.91 4.92 66.98 66.83 67.07 105.26Z" fill="#f5ad3c" data-color="1"/>
        <path d="M845.62 687.25c28.3 17.3 56.53 32.97 86.74 41.95-24.68 3.06-67.49-17-86.74-41.95Z" fill="#f5ad3c" data-color="1"/>
        <path d="m389.17 445.16-78.01-53.47c30.06 11.76 58.11 26.5 78.01 53.47Z" fill="#f5ad3c" data-color="1"/>
        <path d="M1218.2 558.82c-26.35-12.22-52.26-24.81-80.36-32.11 30.68 1.09 57.71 11.41 80.36 32.11Z" fill="#f5ad3c" data-color="1"/>
    </g>
</svg>
