<?xml version="1.0" encoding="UTF-8"?>
<svg data-bbox="0.009 0.002 1053.013 990.173" viewBox="0 0 1053.02 990.19" xmlns="http://www.w3.org/2000/svg" data-type="color">
    <g>
        <path d="M177.93 982.33c31.64-12.48 51.06-20.97 77.89-34.61 25.49-12.96 55.94-28.44 81.15-41.94 65.96-35.31 129.46-74.69 188.36-121.03 71.48-56.23 128.52-123.82 162.03-209.45 12.9-32.98 21.33-66.85 21.31-102.71-.03-50.67-23.12-88.24-64.59-114.92-44.8-28.81-94.96-40.31-147.42-35.86-132.83 11.28-251.28 59.65-352.21 146.89C70.74 532.41 27.92 615.4 5.93 709.62c-.61 2.61-1.28 5.22-2.19 7.74-.03.09-.07.17-.12.25-.96 1.69-3.61.84-3.61-1.11-.06-18.87 3.12-36.22 7.8-53.19 29.35-106.48 89.08-191.86 180.52-253.92 77.08-52.32 161.67-87.62 253.64-103.78 57.31-10.07 114.32-9.88 169.65 11.55 31.23 12.1 58.82 29.3 81.28 54.83 22.56 25.63 33.09 55.34 35.04 88.81 2.11 36.33-5.19 71.14-17.32 105.05-25.09 70.12-65.79 130.12-118.94 181.94-27.62 26.92-57.69 50.86-89.45 72.63-30.86 21.15-62.61 41-95.07 59.6a1507.793 1507.793 0 0 1-104.49 54.56c-31.08 14.72-62.53 28.48-94.28 41.68-8.24 3.42-16.53 6.68-24.9 9.79-3.72 1.38-7.46 2.72-11.23 3.97l-.08.03c-2.39.8-4.04-2.45-1.96-3.87 2.47-1.69 5.08-2.83 7.72-3.87Z" fill="#f5ad3c" data-color="1"/>
        <path d="M316.43 73.54c1.61-3.16 13.45-10.38 17.36-12.78 38.31-23.57 80.17-37.6 124.14-46C526.92 1.57 596.49-3.16 666.49 2.12 747 8.19 823.06 30.29 893 71.02c82.59 48.1 129.91 120.89 150.7 213.61 22.35 99.73 2.91 192.42-41.23 281.74-13.17 26.65-27.67 52.81-43.54 77.95-57.02 90.33-117.8 177.95-190.89 256.35-6.35 6.82-12.52 13.8-19.49 21.67-2.37 2.68-6.52-.71-4.31-3.53 1.03-1.32 2.08-2.51 3-3.74C802.39 842 856.8 768.36 904.91 690.4c25-40.51 49.31-81.58 71.44-123.7 24.74-47.1 44.22-96.83 51.8-149.78 11.03-77.08-.31-151.35-36.97-220.57-24.68-46.6-61.57-82.29-106.82-108.84-66.34-38.92-138.2-61.56-214.7-69.34-85.34-8.67-169.79-2.85-253.3 16.45-32.94 7.62-63.95 20.15-92.37 38.71-1.35.88-5.07 3.39-6.77 2.18-.85-.61-1.11-1.33-.77-1.98Z" fill="#f5ad3c" data-color="1"/>
        <path d="M447.52 965.96c-3.06 1.42-5.3-3.11-2.35-4.74 56.63-31.27 108.58-69.71 159.91-108.61 85.45-64.78 161.15-139.91 223.41-227.69 46.07-64.95 78.14-135.83 88.94-215.59 9.69-71.6-11.03-131.75-65.82-179.19-48.43-41.94-105.34-67.91-166.61-84.67-17.67-4.84-36.06-7.08-54.08-10.65-.04 0-.08-.02-.12-.02-3.36-.68-2.89-5.63.53-5.72 12.64-.33 25.31-.89 37.78.44 70.24 7.51 133.02 34.7 188.19 77.91 66.2 51.85 89.03 121.55 77.06 203.6-13.17 90.26-52.37 169.07-107.42 240.58-73.37 95.31-160.73 175.71-261.45 241.37-38.08 24.82-77.12 48.17-115.9 71.89-.62.38-1.32.74-2.08 1.1Z" fill="#f5ad3c" data-color="1"/>
        <path d="M16.62 957.8c4.75-2.2 9.4-4.67 14.27-6.55 88.02-34.09 172.85-74.59 252.58-125.4 29.39-18.73 56-40.76 80.19-65.78 21.02-21.73 36.72-46.8 46.48-75.43 7.31-21.43 3.73-41.99-17.28-53.41-54.53-29.65-125.3-9.9-172.72 24.73-12.08 8.82-23.75 18.72-32.63 30.86-7.6 10.39-17.98 29.15-11.85 42.31 4.22 9.06 15.29 9.5 23.87 8.22 28.67-4.28 54.03-20.26 81.13-30.56 1.5-.57 3.29-1.1 4.62-.2 2.47 1.67.45 5.49-1.7 7.55-22.15 21.17-50.26 36.03-80.22 42.43-11.34 2.42-24.02 3.42-33.75-2.88-12.31-7.98-15.47-24.98-12.98-39.44 4.98-28.94 26.28-52 48.89-69.18 45.47-34.56 106.92-50.85 163.37-39.41 29.06 5.89 56.64 22.48 60.11 54.44 3.45 31.71-16.41 61.67-35.04 85.44-28.18 35.95-64.03 64.86-102.26 89.49-65.36 42.11-135.23 75.11-207.49 103.29-18.83 7.35-45.11 16.25-65.94 23.62-2.55.9-4.2-2.67-1.86-4.03l.21-.12Z" fill="#f5ad3c" data-color="1"/>
        <path d="M517.08 266.28c52-14.1 120.72 8.03 160.57 62.29-53.9-36.17-92.08-58.84-160.57-62.29Z" fill="#f5ad3c" data-color="1"/>
        <path d="M547.46 37.46c-2.56 1.01-6.21 1.53-6.9 1.66-9.23 1.68-18.55 2.65-27.79 4.32-12.73 2.37-25.36 5.33-37.65 9.41-13.91 4.62-27.32 10.66-40.14 17.76-6.52 3.61-12.89 7.49-19.12 11.56-1.71 1.12-3.74-1.02-2.68-2.77 6.3-10.35 16.55-16.64 26.99-22.16 29.89-15.79 58.7-22.55 93.61-23.55 4.39-.13 8.78-.02 13.17.02.79 0 3.37.07 3.68.91.44 1.18-1.12 2.02-3.17 2.83Z" fill="#f5ad3c" data-color="1"/>
        <path d="M953.21 359.44c1.56-39.85-12.44-75.53-31.59-112.46 13.22 7.94 26.89 30.73 32.58 51.07 5.97 21.31 6.02 49.61-1 61.39Z" fill="#f5ad3c" data-color="1"/>
        <path d="M455.92 672.74c.83-1.65-.41-6.45-.6-8.32-.31-3.03-.72-6.06-1.25-9.06-1.01-5.67-2.47-11.26-4.47-16.67-5.76-15.54-15.95-29.29-29.06-39.4-6.53-5.03-13.64-9.26-20.96-13.01a227.29 227.29 0 0 0-11.15-5.3c-3.19-1.42-7.68-4.36-11.15-4.71 14.64 1.48 29.19 5.26 42.03 12.44 15 8.39 25.94 21.04 32.89 36.67 6.17 13.87 10.95 32.93 3.72 47.35Z" fill="#f5ad3c" data-color="1"/>
        <path d="M570.35 240.91c33.39.88 57.8 10.71 84.12 39.13-32.54-19.56-51.2-29.14-84.12-39.13Z" fill="#f5ad3c" data-color="1"/>
        <path d="M960.65 269.02c19.05 17.7 25.49 53.04 13.26 82.96 1.66-30.75-2.8-55.02-13.26-82.96Z" fill="#f5ad3c" data-color="1"/>
        <path d="M540.77 57.5c-35.52 5.67-50.24 10.48-77.38 20.77 13.71-15 49.15-26.03 77.38-20.77Z" fill="#f5ad3c" data-color="1"/>
        <path d="M432.08 575.81c25.16 8.69 40.49 24.19 41.59 55.54-8.06-22.61-17.32-39.19-41.59-55.54Z" fill="#f5ad3c" data-color="1"/>
    </g>
</svg>
