<?xml version="1.0" encoding="UTF-8"?>
<svg data-bbox="0.002 -0.001 991.936 1140.978" viewBox="0 0 991.94 1140.99" xmlns="http://www.w3.org/2000/svg" data-type="color">
    <g>
        <path d="M512.06 148.3c-20.84 7.96-41.39 15.45-61.63 23.72-7.79 3.18-15.14 7.7-22.19 12.37-17.71 11.73-18.42 22.5-2.49 37.02 12.75 11.62 27.71 19.66 44.25 24.27 11.99 3.34 24.18 6.5 36.5 7.99 64.64 7.84 128.49 4.48 190.7-16.22 10.39-3.46 20.42-8.28 30.15-13.4 7.07-3.72 13.62-8.37 19.35-13.93 16.54-16.06 16.84-29.42 1.12-46.59-16.36-17.87-35.98-31.45-57.62-42.27-42.61-21.31-88.4-31.64-135.27-35.6-32.68-2.76-65.82-2.1-98.65-.62-32.67 1.47-63.77 11.28-93.36 25.21-20.65 9.72-38.02 23.84-51.99 41.91-4.55 5.89-8.76 12.19-12.14 18.81-17.45 34.17-14.12 60.93 11.6 89.36 20.88 23.09 47.43 37.99 76.02 49.16 39.84 15.57 81.51 23.29 124.04 25.88 91.76 5.58 181.3-5.1 267.68-37.92 22.94-8.71 45.39-18.54 65.05-33.36 11.07-8.35 21.79-17.67 30.81-28.15 22.74-26.46 24.8-58.62 7.04-88.87-9.73-16.57-22.64-30.36-37.76-42.11-20.64-16.03-43.39-28.19-67.5-38.22-42.66-17.76-87.06-28.65-132.57-35.77-78.87-12.33-158.25-15.12-237.25-5.2-93.16 11.7-181.15 40.55-258.56 95.53-22.64 16.08-43.84 34.8-63.27 54.68-75.25 77.08-86.39 194.6-37.11 285.99C89.8 541.33 156.3 595.54 236.18 634.83c8.69 4.28 10.99-1.24 15.16-6.32 44.19-53.91 97.3-96.13 163.64-119.14 41.12-14.26 84.05-21.68 127.64-23.59 67.65-2.96 134.72 1.89 200.55 18.36 41.68 10.42 82.96 26.87 110.45 61.38 18.85 23.67 19.46 49.86 2.01 74.6-10.93 15.49-25.99 26.1-42.47 34.78-41.01 21.6-84.65 35.05-130.46 41.8-57.01 8.4-114.2 10.8-171.69 6.6-83.15-6.08-163.92-22.71-241.54-53.61-2.32-.92-4.62-1.88-6.94-2.79-12-4.73-12.25-4.81-16.58 7.93-10.5 30.93-10.23 62.13 1.46 92.38 6.04 15.64 14.45 30.79 24.14 44.49 21.29 30.1 49.16 53.53 80.11 73.39 5.73 3.67 9.4 5.27 14.09-2.23 17.5-27.96 42.77-47.16 72.61-60.33 36.75-16.23 75.34-26.54 115.12-31.28 41.67-4.96 82.73.64 122.61 13.15a338.5 338.5 0 0 1 51.21 20.81c8.8 4.45 17.28 10.6 24.37 17.67 15.45 15.38 19 38.93 8.36 57.96-7.03 12.59-17.31 22.13-28.96 30.35-29.13 20.55-62.52 27.85-97.15 31.3-89.55 8.93-174.88-6.6-256.39-44.27-.91-.42-1.83-.81-2.74-1.2-9.48-4.04-10.04-3.9-12.21 5.37-5.53 23.68-4.05 46.56 8.15 68.16 20.8 36.83 49.29 66.39 84.94 88.92 39.38 24.89 83.11 38.32 128.4 47.27 16.1 3.18 32.25 6.06 48.48 10.63 2.12.6 1.56 3.87-.63 3.59h-.07c-41.94-5.97-83.82-11.68-124.22-25.71-54.57-18.96-98.7-51.34-133.1-97.53-23.01-30.9-33.4-64.47-22.52-102.63 2.1-7.38-1-10.8-6.73-14.34-29.51-18.24-55.67-40.47-77.95-67.14-16.79-20.1-30.34-42.1-38.03-67.33-10.03-32.92-10.55-65.79 1.02-98.52 4.48-12.68 4.45-12.79-7.62-18.75-60.85-30.07-113.22-70.81-155.79-123.84C31.15 480.6 7.26 430.71 1.62 373.33c-7.02-71.4 8.4-136.85 54.26-193.57 30.17-37.33 67.04-66.81 107.77-91.77 66.48-40.74 139.2-64.74 215.47-77.86C442.8-.82 507.1-2.02 571.63 2.39c43.96 3 87.23 9.78 130.16 19.11 37.71 8.19 73.81 21.41 108.35 38.37 34.49 16.94 64.71 39.57 85.86 72.54 15.22 23.72 21.91 49.5 14.3 77.06-3.24 11.73-9.25 23.18-16.11 33.33-14.23 21.05-34.4 35.9-56.07 48.71-37.75 22.32-78.84 36.53-121.15 46.43-104.52 24.45-209.24 29.34-313.62-1.53-29.94-8.85-57.53-22.55-82.75-40.99-14.24-10.41-26.37-22.78-36.23-37.47-16.11-24.03-19.65-49.5-10.44-77.02 11.99-35.84 35.63-62.15 67.36-81.17 37.09-22.23 78.22-32.83 120.97-35.57 57.03-3.65 113.74-.46 169.32 14.41 42.3 11.32 82.65 26.82 116.12 56.22 8.19 7.19 16.01 15.18 22.41 23.95 13.19 18.08 12.61 37.23-.33 55.56-10.39 14.72-24.88 24.34-40.79 32-30.44 14.65-62.65 23.56-96.17 26.51-28.8 2.54-57.76 3.71-86.68 4.27-27.6.54-54.64-4.27-81.09-12.22-16.94-5.09-32.35-13.16-46.03-24.3-5.38-4.38-10.56-9.27-14.76-14.76-14.5-18.97-11.75-38.31 7.92-51.65 29.39-19.94 62.17-28.88 97.69-27.56 2.44.11 4.23.76 2.19 1.67Zm51.22 557.86c48.04.98 93.17-3.7 137.9-11.62 37.51-6.65 73.28-19.07 106.96-37.09 13.31-7.13 25.39-15.89 33.92-28.71 10.06-15.1 11.5-32.47.82-47.64-8.1-11.51-19.82-21.22-31.07-29.51-20.37-15.01-44.08-23.39-68.35-29.25-87.21-21.07-174.97-25.8-264.11-11.87-84.82 13.25-151 56.89-206.88 119.02-16.34 18.16-12.14 15.6 5.25 23.19 1.37.6 2.82 1.01 4.21 1.54 91.39 34.91 186.16 51.38 281.35 51.95Zm23.18 243.46c25.71-2.92 51.59-4.79 77.08-9.03 28.51-4.74 54.72-15.75 74.76-37.66 18.81-20.56 16.23-41.07-6.41-57.02-2.03-1.43-4.14-2.8-6.33-3.96-51.37-27.15-106.24-41.18-164.13-37.05-42.85 3.06-84.29 15.11-123.61 33.06-22.57 10.3-41.87 25.03-56.92 44.97-10.04 13.31-9.95 13.54 5.48 20.75 63.34 29.58 130.16 43.43 200.08 45.94Z" fill="#f5ad3c" data-color="1"/>
        <path d="M62.71 403.6c-2.6.28-8.08-10.14-9.12-13.16-15.13-43.69-18.74-87.45 1.31-130.78 6.05-13.07 12.68-25.89 19.69-38.47 1.84-3.31 4.17-6.35 6.77-9.23 1.23-1.36 3.41.1 2.62 1.75C70.38 242.22 57 270.65 52 302.19c-2.77 17.48-1.54 35.25 1.59 52.6 2.6 14.41 6.54 28.43 10.36 42.56.31 1.13 2.59 5.83-1.24 6.25Z" fill="#f5ad3c" data-color="1"/>
        <path d="M942.27 143.32c34.52 53.2-10.82 145.25-57.92 160.35 45.37-44.87 73.44-94.81 57.92-160.35Z" fill="#f5ad3c" data-color="1"/>
        <path d="M201.31 757.09c9.1 20.07 16.61 41.08 27.76 59.93 11.13 18.81 25.92 35.46 38.23 51.9-36.86-14.58-69.96-76.78-65.99-111.83Z" fill="#f5ad3c" data-color="1"/>
        <path d="M888.41 586.44c25.04 45.09-6.33 89.71-42.4 105.31 47.42-51.31 45.03-59.82 42.4-105.31Z" fill="#f5ad3c" data-color="1"/>
        <path d="M92.87 250.86c-5.61 18.52-11.76 33.79-14.6 49.66-2.75 15.35-2.08 31.32-2.86 46.06-15.35-12.2-7.03-68.73 17.46-95.72Z" fill="#f5ad3c" data-color="1"/>
        <path d="M989.79 174.22c8.75 21.35-10.73 76.08-31.23 91.03 14.13-29.29 26.74-57.41 31.23-91.03Z" fill="#f5ad3c" data-color="1"/>
        <path d="M736.44 945.9c10.6-10.33 21.9-18.83 29.84-29.78 7.88-10.87 12.39-24.19 18.97-37.66 4.39 27.6-17.02 63.15-48.81 67.44Z" fill="#f5ad3c" data-color="1"/>
        <path d="M800.86 891.62c4.82 22.3-12.64 47.21-39.29 55.44 8.45-8.93 17.23-16.44 23.7-25.58 6.36-8.98 10.38-19.62 15.58-29.86Z" fill="#f5ad3c" data-color="1"/>
        <path d="M239.05 873.19c-22.77-1.37-42.06-24.89-42.8-52.77 6.33 10.54 11.19 21.02 18.25 29.72 6.94 8.55 16.1 15.28 24.55 23.05Z" fill="#f5ad3c" data-color="1"/>
        <path d="M890.36 669.37c5.86-10.17 12.57-19.95 17.33-30.61 4.53-10.15 7.02-21.2 10.58-32.39 8.55 15.24-3.04 42.27-27.91 63Z" fill="#f5ad3c" data-color="1"/>
    </g>
</svg>
