<?xml version="1.0" encoding="UTF-8"?>
<svg data-bbox="-0.014 0.004 1183.761 567.833" viewBox="0 0 1183.75 567.83" xmlns="http://www.w3.org/2000/svg" data-type="color">
    <g>
        <path d="M1182.83 46.91c1.55.68 1.01 3.02-.68 3-10.22-.14-20.47-.6-30.58.4-55.03 5.45-107.78 19.63-159.16 40.23-117.42 47.08-227.5 108.26-336.49 171.78-61.84 36.05-124.58 70.55-186.55 106.39-23.95 13.86-47.51 28.37-70.97 43.06-46.71 29.25-96.77 51.49-148.76 68.89-52.2 17.47-105.57 21.66-159.6 7.78-18.08-4.64-34.98-11.88-50.43-22.28-76.32-51.34-27.98-140.19 24.53-187.58 41.65-37.58 109.89-69.52 166.55-57.74 33.89 7.05 68.82 28.83 77.87 64.25 11.45 44.78-17.27 85.91-54.4 108.21-27.73 16.66-97.35 39.51-117.56.38-7.19-13.92-3.08-30.52 4.13-43.53 10.02-18.09 23.2-33.45 40.82-44.64 11.84-7.51 20.54-10.25 33.27-10.22 1.6 0 2.46 2.11 1.16 3.04-.09.06-.19.12-.29.15-28.07 10.35-55.89 39.74-62.17 69.37-3.58 16.88 10 23.65 24.71 24.92 40.94 3.54 92.05-27.95 107.24-66.06 16.49-41.37-12.32-76.1-52.13-85.99-85.09-21.13-203.87 66.72-210.86 148.61-2.03 23.75 9.42 44.5 28.95 57.97 17.04 11.75 36.21 18.46 56.3 22.72 46.21 9.81 91.68 4.94 135.99-9.38 50.14-16.2 98.31-37.21 143.78-64.25 145.05-86.26 293.72-166.04 442.59-245.4 58.62-31.25 120.89-54.69 182.88-78.18 44.85-17 92.02-25.95 140.08-28.49 9.92-.52 20.22-1.64 29.76 2.59Z" fill="#f5ad3c" data-color="1"/>
        <path d="M1033.3 21.08c-82.25 18.56-164 37.31-238.42 78.66 41.13-39.41 182.56-83.94 238.42-78.66Z" fill="#f5ad3c" data-color="1"/>
        <path d="M2.47 485.43c42.97 33.54 90.97 49.35 145.4 44.45-41.7 19.22-114.41-4.92-145.4-44.45Z" fill="#f5ad3c" data-color="1"/>
        <path d="M24.13 527.89c34.33 22.89 70.7 31.97 110.31 34.61-26.27 15.54-95.21-4.94-110.31-34.61Z" fill="#f5ad3c" data-color="1"/>
        <path d="M984.35.35c-43.36 11.14-86.46 22.2-128.03 32.88C875.96 18.3 957.22-2.97 984.35.35Z" fill="#f5ad3c" data-color="1"/>
    </g>
</svg>
