<?xml version="1.0" encoding="UTF-8"?>
<svg data-bbox="0.002 -0.01 659.468 688.58" viewBox="0 0 659.47 688.56" xmlns="http://www.w3.org/2000/svg" data-type="color">
    <g>
        <path d="M533.81 688.55c2.86.24 3.89-3.73 1.25-4.85-4.72-2.01-9.44-3.31-14.2-4.62-65.02-18.01-128.21-41.27-190.47-67.02-67.7-28.01-130.07-65.44-188.38-109.64-22.4-16.98-41.9-36.89-57.4-60.51-13.66-20.81-21.12-43.53-21.65-68.5-.48-23.13 11.92-45.3 33.73-54.31 25.73-10.63 55.55-6.65 80.64 3.73 17.91 7.41 44.2 20.21 46.1 42.29.69 8-2.46 15.72-8.12 21.41-8.3 8.34-19.94 11.5-31.36 12.16-10.41.6-20.93-.76-30.85-3.97-3.33-1.08-6.76-2.38-10.19-3.02-3.3-.62-5.46 3.43-3.01 5.74 13.34 12.57 31.37 20.22 49.68 20.04 29.75-.3 59.69-21.66 56.21-53.78-3.1-28.57-29.6-46.59-53.44-57.91-50.95-24.17-136.15-17.4-147.31 50.4-1.17 7.08-1.34 14.31-.67 21.45 2.47 26.55 11.82 50.68 26.37 72.88 18.92 28.86 43.61 51.94 71.55 71.85 64.16 45.72 133.18 82.37 207.12 109.38 59.26 21.65 118.83 42.53 180.58 56.3 1.04.23 2.39.4 3.85.52Z" fill="#f5ad3c" data-color="1"/>
        <path d="M289.99 6.25c16.33 10.39 102.35 77.88 147.7 123.48 49.71 49.99 95.71 103.35 133.04 163.53 9.26 14.92 18.52 30.09 25.38 46.16 4.62 10.82 6.97 23.45 6.89 35.24-.15 22.06-16.35 35.9-38.37 34.28-19.64-1.45-38.39-8.69-52.9-22.19-10.83-10.08-20.08-22.8-23.99-37.24-5.23-19.33 1.49-48.88 27.64-37.91 11.08 4.64 21.23 11.58 31.66 17.71 3.34 1.97 6.56 4.15 10.44 5.87 2.57 1.14 5.17-1.46 4-4.02-.6-1.31-1.27-2.59-2.08-3.75-10.93-15.76-24.66-28.39-42.45-36.06-18.82-8.11-36.73-1.99-46.19 16.33-20.36 39.44 8.4 85.27 43.21 105.32 13.19 7.6 28 11.83 43.1 13.28 33.68 3.23 61.23-20.86 61.1-54.7-.09-22.69-9.41-43.39-20.76-62.53-16.15-27.23-33.7-54.7-53.19-79.92C488.3 156.74 423.5 92.97 350.15 38.14c-18.67-13.96-35.38-23.97-57.86-35.38-1.99-1.01-4.09-1.83-6.26-2.37-3.51-.86-6.66-.9 3.96 5.85Z" fill="#f5ad3c" data-color="1"/>
        <path d="m519.76 651.23-182.69-68.98c25.35 21.6 150.57 69.38 182.69 68.98Z" fill="#f5ad3c" data-color="1"/>
        <path d="M388.79 113.98c-25.99-36.42-60.19-64.36-99.84-85.99 33.28 28.66 66.56 57.33 99.84 85.99Z" fill="#f5ad3c" data-color="1"/>
        <path d="M28.61 416.31c-12.68-39.33-10.16-77.1 11.87-112.94-29.02 26.72-35.88 74.47-11.87 112.94Z" fill="#f5ad3c" data-color="1"/>
        <path d="M622.88 434.53c27.26-20.04 31.78-66 11.62-95.89 6.17 34.45 10.14 61.72-11.62 95.89Z" fill="#f5ad3c" data-color="1"/>
        <path d="M368.02 566.69c5 15.19 69.36 47.25 85.53 43.81-37.97-14.9-46.87-19.96-85.53-43.81Z" fill="#f5ad3c" data-color="1"/>
        <path d="M1.74 365.33c2.88-29.03 8.31-44.22 18.73-67.12-16.4 10.99-24.21 37.35-18.73 67.12Z" fill="#f5ad3c" data-color="1"/>
        <path d="M654.89 377.51c.71 23.64-.81 39.37-10.67 61.81 15.45-13.75 19.45-40.43 10.67-61.81Z" fill="#f5ad3c" data-color="1"/>
        <path d="M361.44 113.46c-6.2-15.86-17.87-30.61-44.13-40.01 19.24 13.85 30.38 24.45 44.13 40.01Z" fill="#f5ad3c" data-color="1"/>
    </g>
</svg>
