<?xml version="1.0" encoding="UTF-8"?>
<svg data-bbox="0.001 -0.002 53.539 53.253" viewBox="0 0 53.54 53.28" xmlns="http://www.w3.org/2000/svg" data-type="color">
    <g>
        <path d="M51 6.83c-3.76-4.26-10.61-2.6-15.69-2.66C33.61 1.74 30.73.41 27.08 0a10.19 10.19 0 0 0-8.57 4.36c-3.59 0-7.24-.29-10.81 0-1.95.16-3.87.56-5.19 2.09a10 10 0 0 0-2 5.82C.3 15.33.32 18.47.2 21.54c-.13 3.46.14 6.87.06 10.3-.1 4-.4 8-.18 12 .17 3.31.61 7.78 4.43 8.61 6.41 1.39 13.79.57 20.31.47 6.94-.11 13.9.39 20.83-.08 5.2-.36 7.44-1.72 7.46-7.2 0-7.24 0-14.47.09-21.71.08-5.18 1.52-12.84-2.2-17.1zM27.08 1.4c4.6.51 8.2 2.87 8.41 7.82s-3.32 9.47-8.55 9.44a9 9 0 0 1-8.8-8.74 8.73 8.73 0 0 1 8.94-8.52zm24.77 19.87c-.1 5.45-.13 10.91-.14 16.36v7.53a10.92 10.92 0 0 1-.26 3.75c-1.07 2.62-4.14 2.47-6.38 2.6-5.21.31-10.44.08-15.65 0s-10.45.23-15.68.1a65 65 0 0 1-7.52-.39C3 50.76 2 48.56 1.63 45.71c-.81-5.59.11-11.44.05-17.06-.05-5.34 0-10.67.22-16 .21-4.45 2.46-6.73 7-6.93 2.92-.13 5.86 0 8.78 0a9.37 9.37 0 0 0-.93 3.64A10.6 10.6 0 0 0 27 20.18 10.14 10.14 0 0 0 36.9 9.8a11 11 0 0 0-.9-4.25c1.7 0 3.4-.1 5.1-.06 2.22 0 5.23-.36 7.15.82C53 9.23 52 16.49 51.85 21.27z" fill="#132640" data-color="1"/>
        <path d="M25.58 11.1a1.65 1.65 0 0 0 2.52-.22 1.77 1.77 0 0 0 0-2.14.58.58 0 0 0-.1-.22c.38-1 .74-2.06 1.11-3.1.3-.84-1-1.21-1.35-.37L26.75 8c-1.56.06-2.75 1.89-1.17 3.1zm1.2-1.71.18.08c.42.31-.33 1.09-.7.36-.15-.32.2-.46.52-.44z" fill="#132640" data-color="1"/>
        <path d="M47.26 28c.08-2.21.54-5.28-.22-7.4a3.74 3.74 0 0 0-3.14-2.51c-1.66-.25-5.08-.37-6.66.44-.77.4-1.36 1.5-2 2.07a12.56 12.56 0 0 1-5 2.59C25.7 24.5 21.31 23 17.83 20c-2-1.8-7.58-1.85-9.9-.72-3.1 1.52-2 5.8-2 8.56.14 5.21-.54 10.91.36 16.05.42 2.37 1.55 3.66 3.92 4.11a71.47 71.47 0 0 0 9.72.62c3.21.15 6.43 0 9.64-.16 2.95-.15 5.9-.34 8.86-.38 2.35 0 4.6.5 6.66-.81 3.41-2.17 2.24-6.56 2.1-10.07-.1-3.09-.03-6.11.07-9.2zm-1.58 16.4c-1 2.4-3.07 2.16-5.38 2.25-5.7.2-11.43.58-17.14.59-2.8 0-5.54-.31-8.32-.48-2.53-.16-6 .67-7-2.35-.75-2.22-.39-5.1-.37-7.42 0-2.66 0-5.32-.09-8s-1.28-7.33 1.84-8.64c1.64-.69 6.27-.62 7.63.59 3.11 2.7 7 4.55 11.23 4.14a15.65 15.65 0 0 0 5.74-1.76c1.8-1 3.15-3.06 5.07-3.67a11.11 11.11 0 0 1 3.45-.12c1.75-.36 2.93.55 3.51 2.74 0 .64.07 1.28.08 1.92 0 2.77-.19 5.53-.21 8.3s.17 5.29.24 7.94a10.18 10.18 0 0 1-.28 3.97z" fill="#132640" data-color="1"/>
        <path d="M21 9.3A5.37 5.37 0 0 1 23.47 5c.78-.44.08-1.64-.71-1.2a6.82 6.82 0 0 0-3.17 5.5c-.08.89 1.31.89 1.41 0z" fill="#132640" data-color="1"/>
        <path d="M20.15 10.73a.7.7 0 0 0 0 1.39.7.7 0 0 0 0-1.39z" fill="#132640" data-color="1"/>
    </g>
</svg>
