<?xml version="1.0" encoding="UTF-8"?>
<svg data-bbox="0.036 -0.025 51.749 52.322" viewBox="0 0 51.77 52.28" xmlns="http://www.w3.org/2000/svg" data-type="color">
    <g>
        <path d="M49.63 0c-1 .17-1.46 1.07-2 1.78s-1 1.52-1.45 2.27c-1.09 1.6-2.17 1.83-4 2a75.33 75.33 0 0 1-8.18.11c-1.41 0-3.06-.39-3.56 1.27-1 3.11 4.05 3.06 7.29 2.84-3.08 5.92-5.66 12-8.15 18.24-1.28-.34-2.5-.62-3.61-.84a71.55 71.55 0 0 0-11.44-2C13.36 20.77 12 16 10.77 11.08v-.05c1.54-.15 3.08-.09 4.59-.37 2.73-.49 2.07-3.58-.49-3.78a39.67 39.67 0 0 1-6.29-.81 15.63 15.63 0 0 0-5.86-.7.63.63 0 0 0-.32 0 .55.55 0 0 0-.4.23 3.32 3.32 0 0 0-.35 5.4 6.79 6.79 0 0 0 4.71 1l.45-.08c1.05 4.66 2.2 9.31 3.32 14A12.31 12.31 0 0 0 3 29.77a11.21 11.21 0 0 0 2.32 17.11 14.49 14.49 0 0 0 2.55 1.28 2.68 2.68 0 0 0-1 1.34 2.15 2.15 0 0 0 1.9 2.73 2.56 2.56 0 0 0 3-1.66 2.33 2.33 0 0 0 0-1.38 36.3 36.3 0 0 0 4.78.45c5.47.18 11.15.21 16.61-.16 1.19-.08 2.54-.15 3.91-.27 0 .1-.11.18-.15.29a2.15 2.15 0 0 0 1.91 2.73 2.57 2.57 0 0 0 3-1.66 2.54 2.54 0 0 0-.36-2 13.27 13.27 0 0 0 2.13-.67c2.51-1.08 3.11-4.17 2.71-6.64-1.01-5.69-6.47-9.17-12.15-11.26 2.64-6.64 5-13.36 8.32-19.73 1.83.09 3.76 0 5-1.16a23.69 23.69 0 0 0 2.88-4.36c.44-.7 1.44-1.93 1.42-2.79A1.85 1.85 0 0 0 49.63 0zM4.23 10.53C2.85 10.15.46 7.61 2.75 6.75c2.37-.37 4.49.52 6.76 1 1 .21 3.67.07 4.53.58 1.62 1-1.37 1.1-2.11 1.17a23.78 23.78 0 0 0-3.38.5c-1.45.35-2.79 1-4.32.53zm3.93 1c.4-.12.8-.25 1.21-.34h.05a.83.83 0 0 0 0 .22c1.15 4.74 2.5 9.43 3.63 14.17-.52 0-1 0-1.54.08-1.13-4.66-2.29-9.37-3.35-14.09zm2.26 38.67a1.18 1.18 0 0 1-1.42.64c-.63-.16-1-.58-.62-1.2a1.66 1.66 0 0 1 1.15-.77h.11a1.07 1.07 0 0 1 .78 1.33zm30 0a1.17 1.17 0 0 1-1.45.64c-.63-.16-1-.58-.62-1.2a1.55 1.55 0 0 1 .81-.66l.46-.07a1.07 1.07 0 0 1 .76 1.29zm4.5-7.12c-.38 4.5-5.86 4.28-9.4 4.76-4.55.61-9.23.36-13.82.42-7.88.1-22.7-.86-20.18-12.77C4 23.9 17.45 27.25 25.57 29c6.54 1.31 20.07 5.25 19.31 14.08zm-12-13.58c-.66-.23-1.32-.43-2-.62a192.84 192.84 0 0 1 8.4-18.67v-.07l.67-.05 1 .05C37.8 16.4 35.44 23 32.86 29.5zM49.15 4a22 22 0 0 1-1.9 2.81c-1.54 1.78-3.2 2-5.17 2L40 8.7c-1.77.06-3.55 0-5.32 0-1.15 0-3.86-.29-1.43-1.15 1.07-.38 3.3 0 4.41 0 1.66 0 3.34 0 5-.11a5.54 5.54 0 0 0 3-.64c1.46-.9 1.69-2.8 2.91-3.8 2.67-2.27.92.45.58 1z" fill="#132640" data-color="1"/>
        <path d="M22.55 30.6a.62.62 0 0 0-.17.62.58.58 0 0 0 .05.14.71.71 0 0 0 .25.3c.61.41 1.2.86 1.77 1.32l-2.05 1c-.89-2.24-2.9-3.7-6.26-4.51-4.6-.82-9.5 2.73-10.52 7.25-1.14 5.06 2.6 9 7.37 9.73 4.94.8 8.76-1.38 9.67-6.46a13.27 13.27 0 0 0 .13-4.66L25.64 34l1.29 1.08a.69.69 0 0 0 .8.08A.6.6 0 0 0 28 35c.55-.47 1.95-1.19 1.72-2.1s-1.68-1.61-2.34-2.12a9.27 9.27 0 0 0-2.72-1.61c-.89-.27-1.55.83-2.11 1.43zm-1.12 8.2c-.49 4.46-3.19 6.89-7.69 6.35C9.62 44.66 6 41.68 7 37.11c.77-3.71 5-7 8.81-6.27 2.17.52 4.68 1 5.52 3.53a.7.7 0 0 0 0 .14 59 59 0 0 1-6.94 2.88c-.85.28-.49 1.62.37 1.34a59.77 59.77 0 0 0 6.79-2.79 17.55 17.55 0 0 1-.12 2.86zm6.78-5.74c-.24.22-.5.42-.76.62-1.1-.93-2.21-1.86-3.38-2.71a1.1 1.1 0 0 1 .47-.33c.26 0 1.15.63 1.39.78a20.25 20.25 0 0 1 2.28 1.64z" fill="#132640" data-color="1"/>
        <path d="M40.14 41a.7.7 0 0 0 1.4 0 6 6 0 0 0-2.24-4.84c-.69-.55-1.69.43-1 1A4.67 4.67 0 0 1 40.14 41z" fill="#132640" data-color="1"/>
        <path d="M40 42.79a.7.7 0 0 0 0 1.39.7.7 0 0 0 0-1.39z" fill="#132640" data-color="1"/>
    </g>
</svg>
