<?xml version="1.0" encoding="UTF-8"?>
<svg data-bbox="-0.008 0.014 135.782 222.4" viewBox="0 0 135.77 222.41" xmlns="http://www.w3.org/2000/svg" data-type="color">
    <g>
        <path d="M29.28 132.29q.9 41.7 3.44 83.35c.12 1.92 3.12 1.93 3 0q-2.53-41.64-3.44-83.35c0-1.93-3-1.94-3 0z" fill="#829a5b" data-color="1"/>
        <path d="M123.19 131.73q-.39 41.45-2.62 82.82c-.11 1.93 2.9 1.93 3 0q2.24-41.37 2.62-82.82a1.5 1.5 0 0 0-3 0z" fill="#829a5b" data-color="1"/>
        <path d="M33.75 217.27c13.65 5.43 29.18 5 43.68 5.13 15.21.16 30.42-1 45-5.59 1.84-.57 1.06-3.47-.79-2.89-14.34 4.48-29.26 5.64-44.21 5.48-14.24-.15-29.5.3-42.89-5-1.79-.72-2.57 2.18-.79 2.89z" fill="#829a5b" data-color="1"/>
        <path d="M30.33 133.86c15.08 4.45 30.77 5.45 46.41 4.42 16.17-1.06 32.41-2 48.35-5.1 1.89-.36 1.09-3.26-.8-2.89-15.68 3-31.65 4-47.55 5-15.38 1-30.77.07-45.61-4.31-1.86-.55-2.65 2.35-.8 2.89z" fill="#829a5b" data-color="1"/>
        <path d="m36.23 215.89 5.83-11.26-2.75-.36 5.83 14.24c.73 1.76 3.63 1 2.9-.8q-2.92-7.11-5.83-14.23c-.45-1.09-2.09-1.63-2.74-.36q-2.92 5.63-5.83 11.26c-.89 1.71 1.7 3.23 2.59 1.51z" fill="#829a5b" data-color="1"/>
        <path d="M48.58 218.67q3.15-8 7-15.66h-2.64q2.19 5.18 4.39 10.34c1 2.42 1.78 5.84 3.87 7.58 1.47 1.23 3.6-.88 2.12-2.12-2-1.71-2.89-5.8-3.91-8.19q-1.95-4.56-3.88-9.12a1.51 1.51 0 0 0-2.59 0q-4 8-7.26 16.37c-.71 1.8 2.19 2.58 2.9.8z" fill="#829a5b" data-color="1"/>
        <path d="m64.13 220.86 5.56-15.18L67 206l7.4 15.19c.85 1.73 3.44.22 2.6-1.51l-7.41-15.19c-.61-1.26-2.33-.75-2.74.35l-5.56 15.18c-.67 1.82 2.23 2.6 2.89.8z" fill="#829a5b" data-color="1"/>
        <path d="M78.11 220.89c.84-2.3 1.76-4.57 2.81-6.79.86-1.82 1.72-4.46 3.14-5.88l-1.46.38c-.66-.59-.7-.42-.11.52.25.58.51 1.15.79 1.72.54 1.14 1.12 2.26 1.73 3.37a69.48 69.48 0 0 0 4.06 6.38c1.12 1.55 3.72.06 2.59-1.52a66.32 66.32 0 0 1-5-8c-.84-1.62-1.41-4.66-3.32-5.31a1.49 1.49 0 0 0-1.46.38c-1.61 1.62-2.63 4.45-3.6 6.5-1.16 2.45-2.19 5-3.11 7.5-.66 1.82 2.24 2.6 2.89.8z" fill="#829a5b" data-color="1"/>
        <path d="M92.47 220.91a50.3 50.3 0 0 1 4.67-12.51l-2.35.31c3.85 3 5.53 7.8 9 11.2 1.37 1.36 3.5-.76 2.12-2.12-3.43-3.41-5.08-8.2-9-11.21a1.53 1.53 0 0 0-2.36.31 53.7 53.7 0 0 0-5 13.22c-.43 1.88 2.46 2.68 2.9.8z" fill="#829a5b" data-color="1"/>
        <path d="m106.33 219.08 3.17-6.83 1.47-3.19c.28-.6.56-1.21.85-1.82.6-.88.66-1.13.16-.75l-1.46-.38c1.35 1.25 2.22 3.4 3.14 5s1.92 3.34 2.85 5 3.52.18 2.59-1.52c-1.08-2-2.19-3.93-3.34-5.86-.93-1.57-1.78-3.51-3.12-4.75a1.49 1.49 0 0 0-1.46-.39c-2 .72-2.6 3.52-3.43 5.31q-2 4.34-4 8.65c-.81 1.74 1.78 3.27 2.59 1.52z" fill="#829a5b" data-color="1"/>
        <path d="M118.85 216.05a57.76 57.76 0 0 1 5-11.48 1.5 1.5 0 0 0-2.59-1.51 62.33 62.33 0 0 0-5.26 12.19c-.58 1.85 2.32 2.64 2.9.8z" fill="#829a5b" data-color="1"/>
        <path d="M35.11 200.22A28.55 28.55 0 0 1 43 188.09l-2.36-.3q3.22 6 7 11.74a1.51 1.51 0 0 0 2.59 0l9-14.79h-2.55c2.26 5 3.94 11.65 8.82 14.74a1.51 1.51 0 0 0 2-.54 132.92 132.92 0 0 0 7-15.62l-2.74.36A46.39 46.39 0 0 1 77 199.19c.3 1.9 3.19 1.09 2.9-.8a48.7 48.7 0 0 0-5.56-16.23 1.52 1.52 0 0 0-2.74.36 127.38 127.38 0 0 1-6.6 14.91l2.05-.54c-4.13-2.61-5.83-9.45-7.74-13.67a1.51 1.51 0 0 0-2.59 0l-9 14.8h2.59c-2.53-3.81-4.86-7.71-7-11.75a1.51 1.51 0 0 0-2.35-.3 31.61 31.61 0 0 0-8.69 13.45c-.62 1.83 2.28 2.62 2.89.8z" fill="#829a5b" data-color="1"/>
        <path d="m80 199.51 6.53-13.17H83.9c3.12 4.74 3.83 10.47 8.61 14a1.51 1.51 0 0 0 2.06-.54 91.14 91.14 0 0 0 6.4-16.51h-2.89q2.33 7.56 4.66 15.11a1.52 1.52 0 0 0 2.74.36l10.38-14.84h-2.6a41.58 41.58 0 0 1 5 13.35c.27 1.38 2.06 1.31 2.74.35l3.3-4.63c1.12-1.57-1.48-3.07-2.59-1.51l-3.3 4.63 2.74.36a43.79 43.79 0 0 0-5.34-14.06 1.53 1.53 0 0 0-2.6 0l-10.37 14.83 2.75.36q-2.29-7.6-4.59-15.12a1.51 1.51 0 0 0-2.89 0 86.78 86.78 0 0 1-6.11 15.8l2.06-.54c-4.11-3-4.85-8.82-7.54-12.91a1.51 1.51 0 0 0-2.59 0L77.37 198c-.86 1.72 1.73 3.24 2.59 1.51z" fill="#829a5b" data-color="1"/>
        <path d="M33.54 180.91c1.09-1.91 2.22-3.78 3.47-5.59.6-.87 3.64-6.16 4.84-6.16q-1.64-.65.5 1.49l2.08 3.29 4.16 6.57a1.52 1.52 0 0 0 2.74-.36 114.27 114.27 0 0 1 7.06-14H55.8l8.66 12.16a1.52 1.52 0 0 0 2.59 0q4.29-7.26 8.57-14.51l-2.74-.36a63.36 63.36 0 0 0 5.46 13.58 1.52 1.52 0 0 0 2.36.3 40.33 40.33 0 0 0 8.3-11.88h-2.57a26.68 26.68 0 0 1 3.76 10c.32 1.9 3.21 1.09 2.9-.8A28.77 28.77 0 0 0 89 163.92a1.52 1.52 0 0 0-2.59 0 38.21 38.21 0 0 1-7.85 11.31l2.35.3a59.63 59.63 0 0 1-5.16-12.86 1.52 1.52 0 0 0-2.74-.36q-4.29 7.26-8.57 14.51h2.59l-8.66-12.15a1.52 1.52 0 0 0-2.59 0 120.5 120.5 0 0 0-7.36 14.68l2.74-.35c-2.29-3.62-4.35-8.37-7.28-11.5-.81-.87-1.26-1.51-2.56-1.42-2.05.15-3.72 3.42-4.75 4.76A73.51 73.51 0 0 0 31 179.4a1.5 1.5 0 0 0 2.59 1.51z" fill="#829a5b" data-color="1"/>
        <path d="M92.92 176.3q3.17-5 6.49-10h-2.59a95 95 0 0 1 8.45 13.43 1.52 1.52 0 0 0 2.59 0q4.32-7.15 8-14.66h-2.59a49 49 0 0 0 7.41 9.08 1.52 1.52 0 0 0 2.36-.31l2.08-3.83c.92-1.69-1.67-3.21-2.59-1.51l-2.08 3.83 2.36-.31a44.88 44.88 0 0 1-7-8.47 1.52 1.52 0 0 0-2.59 0q-3.64 7.51-8 14.66h2.59a94.88 94.88 0 0 0-8.45-13.42 1.52 1.52 0 0 0-2.59 0q-3.31 4.94-6.49 10c-1 1.64 1.57 3.15 2.59 1.52z" fill="#829a5b" data-color="1"/>
        <path d="M33.07 162a34.53 34.53 0 0 1 7.67-12.55l-2.36-.3c2.21 3 4.27 6.57 6.83 9.26.73.76 1.43 1.69 2.64 1.62 1.91-.12 3.47-3 4.43-4.19l7.32-9.17-2.35-.31 7.67 11.12a1.52 1.52 0 0 0 2.36.3 77.16 77.16 0 0 0 8.52-11.71l-2.36.3 9.56 12a1.52 1.52 0 0 0 2.12 0 51.7 51.7 0 0 0 8.6-10.4l-2.35.3 9.4 11.18a1.52 1.52 0 0 0 2.51-.67 102.32 102.32 0 0 1 4.77-13l-2.35.3a72.66 72.66 0 0 1 10.3 10.21 1.51 1.51 0 0 0 1.82.23 22.37 22.37 0 0 0 7.2-7.22c1-1.63-1.56-3.14-2.59-1.51a19 19 0 0 1-6.13 6.14l1.82.24a72.13 72.13 0 0 0-10.3-10.17 1.53 1.53 0 0 0-2.36.3 108.24 108.24 0 0 0-5.07 13.7l2.51-.66-9.41-11.14a1.52 1.52 0 0 0-2.36.3 48.73 48.73 0 0 1-8.13 9.8h2.12l-9.56-12a1.5 1.5 0 0 0-2.35.3 73.29 73.29 0 0 1-8 11.11l2.35.31q-3.84-5.56-7.67-11.12a1.52 1.52 0 0 0-2.36-.31c-2.33 2.92-5 7.79-7.94 9.94-2.4 1.74-3 .66-4.58-1.44l-4-5.4a1.52 1.52 0 0 0-2.35-.31 38 38 0 0 0-8.44 13.87c-.64 1.83 2.25 2.62 2.89.8z" fill="#829a5b" data-color="1"/>
        <path d="M32.47 145.8a41.18 41.18 0 0 1 7.86-8.8c1.48-1.25-.65-3.36-2.12-2.13a44.19 44.19 0 0 0-8.33 9.41c-1.07 1.62 1.53 3.12 2.59 1.52z" fill="#829a5b" data-color="1"/>
        <path d="M39.47 136.84a57.61 57.61 0 0 0 3.46 5.62c.7 1 1.51 2.6 2.9 2.75s2.22-1 3.09-1.84a44.72 44.72 0 0 1 6.37-4.84c1.63-1 .12-3.63-1.51-2.59a68.19 68.19 0 0 0-7.35 5.64c-1.12.95-.17.42-.36.13-.44-.65-.91-1.28-1.35-1.93-.95-1.44-1.83-2.93-2.65-4.45-.93-1.7-3.52-.19-2.6 1.51z" fill="#829a5b" data-color="1"/>
        <path d="M59.22 139.1a20.71 20.71 0 0 0 3.41 4.73c.93 1 2.33 2.59 3.83 2.32s2.91-2.14 3.79-3.22a20.28 20.28 0 0 0 3-5.09c.75-1.78-2.15-2.55-2.89-.8-.95 2.27-2.68 5.29-5 6.37h1.51c-2.22-1.07-3.89-3.73-5-5.82-.92-1.7-3.51-.19-2.59 1.51z" fill="#829a5b" data-color="1"/>
        <path d="M77.13 138.33a43.39 43.39 0 0 0 3.42 5.08c.78 1 1.86 2.89 3.36 2.84s2.36-1.71 3.09-2.67a30.76 30.76 0 0 0 3.31-5.47c.82-1.73-1.76-3.26-2.59-1.51-1 2.16-2.53 5.47-4.56 6.85l1.15-.15c-.43-.12-1.93-2.39-2.32-2.93-.82-1.15-1.57-2.34-2.27-3.55a1.5 1.5 0 0 0-2.59 1.51z" fill="#829a5b" data-color="1"/>
        <path d="M93.63 136.89a37.38 37.38 0 0 0 4.77 6.42 1.53 1.53 0 0 0 2.36-.31 45.64 45.64 0 0 1 5.38-6.62c1.35-1.38-.77-3.51-2.12-2.12a49.6 49.6 0 0 0-5.85 7.23l2.35-.3a33.53 33.53 0 0 1-4.3-5.82 1.5 1.5 0 0 0-2.59 1.52z" fill="#829a5b" data-color="1"/>
        <path d="M109.51 135.67c1.75 2.22 3.52 4.42 5.35 6.57 1 1.21 2.23 3.11 4.11 2.78 1.45-.25 2.28-2 3-3.07a76.39 76.39 0 0 0 4.18-7.16c.88-1.71-1.7-3.23-2.59-1.51-.79 1.53-1.62 3.05-2.52 4.53-.3.51-2 3.92-2.69 3.92s-2.61-3.07-3.08-3.64q-1.84-2.25-3.65-4.54c-1.19-1.52-3.3.62-2.12 2.12z" fill="#829a5b" data-color="1"/>
        <path d="M69.74 136.8a375.36 375.36 0 0 0 4-44.16c0-1.93-3-1.93-3 0a370.29 370.29 0 0 1-3.9 43.36c-.28 1.89 2.61 2.7 2.9.8z" fill="#829a5b" data-color="1"/>
        <path d="M87.57 135.73a224.23 224.23 0 0 0-1-27.3c-.67-6.86-1.27-13.89-4.68-20-.94-1.69-3.54-.17-2.59 1.51 3.74 6.71 4 14.9 4.62 22.39a225.77 225.77 0 0 1 .62 23.41c0 1.93 3 1.93 3 0z" fill="#829a5b" data-color="1"/>
        <path d="M45.89 73.24c-3.57 3.13-4.07 9.07-.34 12.35 4.92 4.32 12.45 1.58 16.18-2.79l-2.51-.67c2.78 10.26 22.33 14.1 23.89 1.21l-2.56 1.06c4.93 4.28 12 6.41 17.73 2.19a9.71 9.71 0 0 0 1.12-14.84 1.5 1.5 0 0 0-2.12 2.12c3.76 3.79 1.92 9.57-2.85 11.37-4.27 1.61-8.46-.1-11.76-3a1.52 1.52 0 0 0-2.56 1.06c-.25 2.07-2.69 4.62-4.72 5.1a11.75 11.75 0 0 1-6.69-.9c-3-1.18-5.7-2.94-6.58-6.2a1.52 1.52 0 0 0-2.51-.67c-2.7 3.14-6.25 4.8-10.3 3.23-3.78-1.46-4.41-5.81-1.3-8.54 1.45-1.27-.68-3.39-2.12-2.12z" fill="#829a5b" data-color="1"/>
        <path d="M43.33 78.78a15.24 15.24 0 0 1-12.86-7.35 14.26 14.26 0 0 1-2.09-7c.15-4 3.77-4.43 7.18-3.94 1.89.27 2.71-2.62.8-2.89-3-.44-7.59-.48-9.88 2-1.91 2.09-1.19 6.08-.57 8.56 2 8.12 9.27 13.25 17.42 13.6 1.93.08 1.93-2.92 0-3z" fill="#829a5b" data-color="1"/>
        <path d="M32.9 57c-3.58-1.27-6.9-3.33-8.48-7-2.31-5.43.91-12.66 7.72-10.94a1.51 1.51 0 0 0 1.86-1.8C31.53 28 45 20.74 51.28 28a1.51 1.51 0 0 0 2.51-.66c1-4.34 5.76-5.82 9.53-4.12 3.42 1.55 5.45 4.71 7 8 .84 1.74 3.43.22 2.59-1.51-2.36-4.86-6.3-9.93-12.18-10.23-4.62-.23-8.87 2.51-9.88 7.08l2.51-.66c-8.35-9.66-25.51.08-22.3 12.15l1.84-1.85a9.87 9.87 0 0 0-12.42 9C20 52.59 25.71 57.65 32.1 59.88c1.83.63 2.62-2.26.8-2.9z" fill="#829a5b" data-color="1"/>
        <path d="M71.23 26.32c3.12-11 18.71-9.33 19.2 2.21a1.52 1.52 0 0 0 2.25 1.29A23.43 23.43 0 0 1 104 27.58a7.3 7.3 0 0 1 5.83 5.42c.31 1.83-1.37 4.8-2.17 6.41a1.51 1.51 0 0 0 1.34 2.27c3.86-.26 8.72-.29 11.54 2.85 4.9 5.46-1.82 11.45-7.83 9.87a1.5 1.5 0 0 0-.8 2.89c6.06 1.6 14.28-2.35 13.33-9.43-1.06-7.92-9.58-9.64-16.24-9.18l1.3 2.26c2.2-4.45 4.45-10.55-.2-14.29-5.15-4.15-13.54-1.75-18.88.58l2.26 1.3c-.63-14.89-21-17.41-25.09-3a1.5 1.5 0 0 0 2.89.8z" fill="#829a5b" data-color="1"/>
        <path d="M119.14 57.22c7 3.47-1.7 13.94-7.81 10.71a1.5 1.5 0 0 0-1.51 2.59c4 2.5 2.47 7.82-1.17 9.19a12.17 12.17 0 0 1-6.19.53c-1.92-.18-1.91 2.82 0 3 4.64.46 9.85.24 11.92-4.71a8.43 8.43 0 0 0-3-10.6l-1.51 2.59c9.72 5.13 21.26-10.69 10.83-15.89-1.72-.86-3.24 1.73-1.51 2.59z" fill="#829a5b" data-color="1"/>
        <path d="M51.79 52.78c-4.13 2.51-6 9.29-1.93 12.78 4.64 4 11.73 2 15.34-2.29L62.85 63c2.51 4 6.35 7.77 11.43 7.66a8.79 8.79 0 0 0 8.56-7.15c.34-1.89-2.55-2.7-2.89-.8-1.69 9.22-11.56 3.47-14.51-1.23a1.52 1.52 0 0 0-2.36-.3 8.72 8.72 0 0 1-6.28 3.42 6.32 6.32 0 0 1-4.36-.82q-3.72-4.81.87-8.38a1.5 1.5 0 0 0-1.52-2.59z" fill="#829a5b" data-color="1"/>
        <path d="m57.59 44.75-.3.29 1.46-.38c-.63-.1 2-4.22 2.3-4.53.88-1 2.2-2.55 3.52-2.86 3.64-.84 8.43 3.29 8.33 6.73-.06 1.93 2.94 1.93 3 0 .2-6.62-9.14-12.57-14.68-8.25-2.51 2-5.2 5.16-5.29 8.5 0 2.12 1.76 4.6 3.78 2.6a1.5 1.5 0 0 0-2.12-2.12z" fill="#829a5b" data-color="1"/>
        <path d="M84 49.3a9.16 9.16 0 0 1 4.81-5.44l2.38-.86q6.9 4.3 2.44 8.42A1.52 1.52 0 0 0 94.69 54c7 .5 3 14.51-3.28 11.35-1.72-.87-3.24 1.72-1.51 2.59 10.74 5.43 16.93-16.08 4.79-16.94.36.85.71 1.71 1.06 2.56 2.91-3.69 5.61-10.73-.31-13.3s-12.62 3.1-14.34 8.25c-.62 1.83 2.28 2.62 2.89.79z" fill="#829a5b" data-color="1"/>
        <path d="M22 50.42a9.67 9.67 0 0 0-6.84 11.23c1.07 6 6.73 9.17 12.47 9.1L26.87 68c-7.69 4.15-7.25 14.29-1.14 19.65a18.68 18.68 0 0 0 24.38.1c1.45-1.29-.68-3.4-2.12-2.12C43 90 35.53 90.3 29.87 86.92c-5.87-3.5-8.72-12.47-1.49-16.37a1.51 1.51 0 0 0-.76-2.8c-3.72 0-7.66-1.39-9.07-5.22s.24-8 4.23-9.22c1.85-.56 1.06-3.45-.79-2.89z" fill="#829a5b" data-color="1"/>
        <path d="M48.8 86.66c-3.36 5.22 3.64 12.06 8.36 13.12 6.46 1.45 12.63-3.53 13.57-9.84.29-1.89-2.6-2.7-2.89-.79-.64 4.25-4.13 8.08-8.7 7.9a8.53 8.53 0 0 1-5.54-2.57c-1.24-1.26-3.38-4.49-2.21-6.3 1-1.63-1.55-3.14-2.59-1.52z" fill="#829a5b" data-color="1"/>
        <path d="M83.77 97.14c7.69 6 19.62-2.58 15.71-11.75-.75-1.77-3.34-.24-2.59 1.52 2.54 6-6.07 12-11 8.11-1.5-1.18-3.64.92-2.12 2.12z" fill="#829a5b" data-color="1"/>
        <path d="M96.47 86.6c3.58 4.26 12 8.56 17.73 6.61 6.64-2.28 4.45-10 1.78-14.46-.56.73-1.13 1.46-1.69 2.2 5.87 1.65 15.06 2.56 18.22-4.07 3.05-6.4-1.66-12.3-7.53-14.5-1.81-.68-2.59 2.22-.8 2.89 4.78 1.8 9.43 8.73 3.66 12.63-3.41 2.31-9.09 1.19-12.75.16a1.52 1.52 0 0 0-1.7 2.2c1 1.64 3.43 5.52 2.19 7.45s-5.94 2.67-8 2.06c-3.54-1-6.56-2.42-9-5.29-1.25-1.48-3.36.65-2.12 2.12z" fill="#829a5b" data-color="1"/>
        <path d="M125.67 63.85c6.32-3.81 12-10.46 9.5-18.31-.87-2.74-2.57-6.52-5.35-7.82-3.28-1.53-6.94 1.32-9.71 2.73-1.72.88-.21 3.47 1.51 2.59 2.83-1.44 5.64-3.92 8.85-.5 1.45 1.55 2.32 4.79 2.32 6.79 0 5.48-4.32 9.33-8.63 11.93-1.65 1-.14 3.6 1.51 2.59z" fill="#829a5b" data-color="1"/>
        <path d="M120.76 42.16c5.19-6.45 8.1-15.26 1.38-22-5.57-5.62-15.48-2.85-17.33 4.7-.46 1.87 2.43 2.67 2.89.79 1.89-7.69 11.6-6.44 14.37-.22 2.5 5.6.1 10.27-3.43 14.65-1.2 1.49.91 3.63 2.12 2.12z" fill="#829a5b" data-color="1"/>
        <path d="M22.65 41.7c-3.58-4.89-8.73-12-5-18.2 4.63-7.67 14.54-3.43 19.36 1.33a1.5 1.5 0 0 0 2.12-2.12c-5.7-5.63-15.29-9.45-22.07-3.15-7.49 7-1.79 17.12 3 23.65 1.13 1.54 3.74 0 2.59-1.51z" fill="#829a5b" data-color="1"/>
        <path d="M40.44 23C35.08 16.53 43.6 9.27 50 9.69c5.63.37 9.84 5 12 9.79.64 1.38 2.84.66 2.8-.76-.16-5.62 2.68-11 8.59-12.12 6.37-1.23 11.26 3.8 10.46 10.06-.25 1.91 2.75 1.89 3 0a11.7 11.7 0 0 0-13-13.21c-7.78.84-12.29 7.87-12.08 15.27l2.82-.72C61.07 10.35 52.74 4.27 44.16 7.63c-7 2.74-11 11.21-5.84 17.44 1.24 1.48 3.36-.65 2.12-2.12z" fill="#829a5b" data-color="1"/>
        <path d="M16.53 35.44C9 32.47.29 37.49 0 45.84-.31 55 8.09 60.67 16.55 60.44c1.93 0 1.94-3 0-3-6.34.17-13-3.37-13.52-10.36s6.5-11.19 12.71-8.75c1.79.71 2.57-2.19.79-2.89z" fill="#829a5b" data-color="1"/>
        <path d="M85.68 11.48c-.49-8 9.88-9.59 15.39-7.5 6 2.28 9.69 7.66 8.84 14.13-.25 1.91 2.75 1.89 3 0C114.11 9 107.17 1.49 98.36.16c-7-1-16.18 3.18-15.68 11.32.11 1.91 3.11 1.93 3 0z" fill="#829a5b" data-color="1"/>
        <path d="M87.85 122.82c6-7.82 15.15-14.82 24.87-16.92 1.89-.41 1.09-3.3-.8-2.89-10.48 2.28-20.2 9.9-26.66 18.29-1.17 1.53 1.43 3 2.59 1.52z" fill="#829a5b" data-color="1"/>
        <path d="M111.62 103.87c-3.53 7.83 12.6 12.52 13.61 2.64l-1.9 1.44c5.46 2 12.26-2.42 11.78-8.48-.45-5.7-7-8.39-11.05-4.27a1.5 1.5 0 0 0 2.12 2.12 4.12 4.12 0 0 0 .28-5.8c-2-2.37-6.21-2.43-8.95-2-7.89 1.29-9.08 8.69-4.15 14v-2.13l-1.23 1c-1.64 1-.14 3.61 1.51 2.59a8.26 8.26 0 0 0 1.84-1.43 1.53 1.53 0 0 0 0-2.13c-3.15-3.42-2.46-7.84 2.24-8.87.48-.11 9.19-.16 6.34 2.62l2.12 2.12q3.38-3 5.82 1.56a4.08 4.08 0 0 1-1.42 4.49 5.57 5.57 0 0 1-6.45 1.69c-1-.37-1.81.57-1.9 1.45-.66 6.48-8.86.74-8-1.12s-1.8-3.27-2.59-1.52z" fill="#829a5b" data-color="1"/>
        <path d="M70.37 130.24a85.43 85.43 0 0 0-27.91-17.7c-1.8-.7-2.58 2.2-.79 2.9a81.58 81.58 0 0 1 26.58 16.92c1.4 1.33 3.52-.79 2.12-2.12z" fill="#829a5b" data-color="1"/>
        <path d="M39.74 113.31c.06 1.43-2.94 3.87-4.22 4.35a4.23 4.23 0 0 1-3.81-.3c-2-1.09-1.76-1.9-1.68-4.26.1-3.14.18-3 2.81-3.92-.39-.91-.77-1.82-1.16-2.74-3.82.15-5.49-1.51-5-5a3.27 3.27 0 0 1 3.72-2.88c4-.9 6.18 1.5 7.16 5.34a1.51 1.51 0 0 0 2.51.66c1.59-2 4.7-3.19 6.93-1.07 3.83 3.65-.83 7.19-4 8-1.87.48-1.07 3.37.8 2.89 5.23-1.34 9.89-6.28 6.32-11.85-2.78-4.33-9.15-3.89-12.13-.11l2.51.66C38.7 96.25 29.28 91 24.66 98.69 21.48 104 27 113 33.2 109c1.37-.88.53-3.3-1.16-2.74-7.24 2.41-8.69 8.77-2.16 13.46 4.71 3.36 13.12-.35 12.86-6.44-.08-1.92-3.08-1.93-3 0z" fill="#829a5b" data-color="1"/>
        <path d="M69.35 132.25c1 .32 1.33-.08 2.27-.39 2.41-.81 2.13.25 4 .06.59-.06.8-.38 1.27-.55a8.93 8.93 0 0 1 3.66-.22 6.31 6.31 0 0 0 1.5 0c.93-.16 1.84-1 2.78-.94s1-1.43 0-1.5c-1.81-.13-2.68.94-4.8.74a7.63 7.63 0 0 0-2.86-.07c-.89.2-1.59.78-2.63.66s-.47-.54-1.54-.53c-.68 0-2.89 1.37-3.25 1.26-.92-.29-1.31 1.16-.4 1.45z" fill="#829a5b" data-color="1"/>
        <path d="M69.84 127.78q7.39-.5 14.78-1.11c1-.08 1-1.58 0-1.5q-7.38.61-14.78 1.11c-1 .06-1 1.56 0 1.5z" fill="#829a5b" data-color="1"/>
        <path d="M70.85 123.73q7.41-.51 14.78-1.31c1-.1 1-1.6 0-1.5q-7.38.8-14.78 1.31c-.95.06-1 1.56 0 1.5z" fill="#829a5b" data-color="1"/>
        <path d="M71.33 120.79a64.54 64.54 0 0 1 13.77-1.64.75.75 0 0 0 0-1.5 66.93 66.93 0 0 0-14.17 1.69c-.94.21-.54 1.66.4 1.45z" fill="#829a5b" data-color="1"/>
        <path d="M71.47 117.6c3.54-2.71 9.36-2.61 13.63-2.94 1-.07 1-1.57 0-1.5-4.5.34-10.63.27-14.39 3.15-.75.58 0 1.88.76 1.29z" fill="#829a5b" data-color="1"/>
        <path d="M72.3 113.82c.75-.94 1.31-1.74 2.84-1.69.36 0 .74.26 1.11.3a2.64 2.64 0 0 0 1.6-.37c.82-.33-.53-.41 1.24-.4.47 0 1 .26 1.52.3a7.62 7.62 0 0 0 3.14-.39c.92-.28.53-1.73-.4-1.44-1.89.58-3-.1-4.77-.14-1 0-1.44.87-2.48.86s-1.63-.49-2.69 0a6 6 0 0 0-2.17 2c-.59.75.46 1.82 1.06 1.06z" fill="#829a5b" data-color="1"/>
        <path d="M72.2 110.31c1.66-1 4.11-1 6-1.26l6.59-.93c1-.13.55-1.58-.4-1.44l-7.53 1.06c-1.86.26-3.81.26-5.42 1.26-.82.51-.07 1.81.76 1.3z" fill="#829a5b" data-color="1"/>
        <path d="M72.54 107.35 84.26 105c.94-.2.54-1.64-.4-1.45l-11.72 2.35c-1 .2-.55 1.64.4 1.45z" fill="#829a5b" data-color="1"/>
        <path d="m72.14 104.77 12-4.34c.9-.32.51-1.77-.4-1.44l-12 4.33c-.9.33-.51 1.78.4 1.45z" fill="#829a5b" data-color="1"/>
        <path d="M73.22 100.84a73.46 73.46 0 0 1 9.38-4.29c.89-.34.5-1.79-.4-1.45a76.88 76.88 0 0 0-9.73 4.44c-.85.46-.1 1.76.75 1.3z" fill="#829a5b" data-color="1"/>
        <path d="M73.82 97.3c1.91-1 3.86-1.8 5.86-2.6a5.36 5.36 0 0 0 2.88-2.1c.51-.82-.78-1.57-1.29-.75-.81 1.31-2.74 1.67-4.08 2.24s-2.77 1.23-4.13 1.91c-.86.43-.1 1.73.76 1.29z" fill="#829a5b" data-color="1"/>
        <path d="m70.17 91.39.55 1.41c.34.88 1.73.54 1.44-.4-.06-.21 0-.44-.1-.64s0 0-.08 0 .05-.17-.18-.32c.07.59.8 1.06 1.28.53l.58-.64-1.28-.53a2.61 2.61 0 0 0 .73 1.93c.65.72 1.7-.35 1.06-1.06a1.08 1.08 0 0 1-.29-.87.76.76 0 0 0-1.28-.53l-.6.63 1.28.53a1.3 1.3 0 0 0-1.83-1.06c-1 .39-1 1.57-.73 2.43l1.44-.4-.54-1.4c-.35-.89-1.8-.51-1.45.4z" fill="#829a5b" data-color="1"/>
        <path d="m74.25 92.33.51-.91-1.39-.42v1.71a.76.76 0 0 0 .75.75 52.78 52.78 0 0 0 5.74-1.08.75.75 0 0 0-.4-1.45 48.38 48.38 0 0 1-5.34 1l.75.75V91a.76.76 0 0 0-1.4-.38l-.52.92a.75.75 0 0 0 1.3.75z" fill="#829a5b" data-color="1"/>
        <path d="M69.26 135.36c4.68-1.94 10.56-1.9 15.58-2.32 1-.08 1-1.58 0-1.5-5.06.43-11.22.41-16 2.37-.88.36-.49 1.81.4 1.45z" fill="#829a5b" data-color="1"/>
    </g>
</svg>
