<?xml version="1.0" encoding="UTF-8"?>
<svg data-bbox="0.053 -0.014 102.652 214.835" viewBox="0 0 102.72 214.82" xmlns="http://www.w3.org/2000/svg" data-type="color">
    <g>
        <path d="M2.07 110.88c-.17 34.45 12.26 67 18.61 100.47.36 1.89 3.25 1.09 2.89-.8-6.3-33.2-18.67-65.5-18.5-99.67a1.5 1.5 0 0 0-3 0z" fill="#ffdbaf" data-color="1"/>
        <path d="M89.05 113.5q-4.35 48.41-6.71 97c-.1 1.93 2.9 1.92 3 0q2.37-48.55 6.71-97c.18-1.93-2.82-1.91-3 0z" fill="#ffdbaf" data-color="1"/>
        <path d="M21.69 213.23c9.19 2.63 19.43 1.27 28.86 1 11-.38 21.93-1 32.85-2.05 1.9-.19 1.92-3.19 0-3-10.28 1-20.59 1.6-30.91 2-9.69.35-20.57 1.93-30-.77a1.5 1.5 0 0 0-.8 2.89z" fill="#ffdbaf" data-color="1"/>
        <path d="M3.76 112c28.6-3.84 58.25 0 86.88 1.92 1.93.13 1.92-2.87 0-3C61.69 109 31.87 105.25 3 109.13c-1.91.26-1.1 3.15.79 2.89z" fill="#ffdbaf" data-color="1"/>
        <path d="M18.57 91.48a14.46 14.46 0 0 1-10.48-7.83A11.07 11.07 0 0 1 7 79.47q1.69-2.32 3.49-.27c2.15.59 4.6 2.71 6.53 3.85A1.51 1.51 0 0 0 19 81c-2.52-4.06-5.24-8.34-5.13-13.31 0-2 .5-5.58 2.1-7.09 4.81-4.53 6.52 1.34 7.16 4.73.32 1.69 2.95 1.26 2.95-.4 0-5.66.67-12.85 4.32-17.46 1.65-2.09 2-2.76 4.42-1.15s2 2.29 1.94 4.77a40.67 40.67 0 0 1-1.64 10c-.45 1.57 1.41 2.33 2.51 1.46 1.58-1.25 3.5-2.82 5.5-3.36q2.72-1.17 4 1.73c2.4 1.25 2.76 3 1.07 5.36-1.55 3.41-5 6.55-7.42 9.45-.85 1-.09 3.08 1.46 2.5s6.18-2.54 7.58-1.33l2 5.72a20.27 20.27 0 0 1-1.59 2.21 48.93 48.93 0 0 1-6.35 6.76c-1.44 1.29.69 3.41 2.12 2.12 3.6-3.23 11-9.42 9.52-15-1.66-6.47-9.51-5-14.06-3.32L43 77.83c3.76-4.55 12.93-12.73 7.8-19.33-4.2-5.4-11.21-1.27-15.23 1.91L38 61.87c1.3-4.57 5.26-21.88-4.3-20.23-9.15 1.58-10.62 16.17-10.63 23.28l2.94-.39c-1.17-6.17-7.12-13.35-12.21-6.07-5.59 8-2 16.64 2.6 24.05.68-.69 1.37-1.37 2-2.05C14.84 78.3 3.55 69.86 4 80c.32 7.26 7.09 13 13.76 14.34 1.89.38 2.69-2.51.8-2.89z" fill="#ffdbaf" data-color="1"/>
        <path d="M65.24 95.82c5.76-1.49 14.18-6.16 15.22-12.77 1.08-6.8-7.17-5.69-10.88-3.81l2 2.05c3-4.7 8.85-14.08 5.9-19.93-3.11-6.16-8.75.39-12.14 2.07l2.2 1.7c1.74-5 5.3-15.08 0-19.31-5.71-4.61-10.66 2.94-12.54 7.49l2.95.4c.24-5.94-.16-11.4-5.14-15.23-1.53-1.17-3 1.43-1.52 2.59 4 3 3.84 8.14 3.66 12.64-.07 1.82 2.35 1.85 3 .4a11.39 11.39 0 0 1 2-3.89q1.94-4 7.06.14c.57 1.28.23 3.29.07 4.61a45.2 45.2 0 0 1-2.35 9.36c-.47 1.33 1.12 2.23 2.2 1.7a16.82 16.82 0 0 0 3.31-2.35c1.25-1.74 2.86-1.93 4.81-.57a7.48 7.48 0 0 1-.16 3.67c-.82 4.62-3.34 9.09-5.82 13-.85 1.34.79 2.69 2 2l2.69-1.21q4.68 2.41 2.1 4.86A13.52 13.52 0 0 1 73 88.64a20.72 20.72 0 0 1-8.56 4.28 1.51 1.51 0 0 0 .8 2.9z" fill="#ffdbaf" data-color="1"/>
        <path d="M53.17 39.18c-2.44-2.45-5.68-3.2-8.05-.2a10.67 10.67 0 0 0-2 5.74c-.22 3 1.19 5.29 1.49 8.14l1.89-1.45c-4-1.3-7 1.81-6.15 5.74.41 1.88 3.3 1.08 2.89-.8l2.47-2.05a1.51 1.51 0 0 0 1.9-1.44c-.22-2.12-1.21-4-1.43-6.07-.26-2.53 1.09-9.27 4.85-5.49a1.5 1.5 0 0 0 2.12-2.12z" fill="#ffdbaf" data-color="1"/>
        <path d="M84.38 96.78c4.29-3.26 10.79-7.87 11-13.9s-7.05-5.12-11-4.25l1.85 1.84c1.09-3.86 4.77-11 1.57-14.69s-8.3-1.42-11.64.62C74.5 67.41 76 70 77.66 69a19.72 19.72 0 0 1 3.64-1.91q5.72 2.16 3.83 6.17c-.19 2.08-1.25 4.41-1.82 6.43a1.52 1.52 0 0 0 1.85 1.84c2.88-.63 4-1.3 5.42 1.63 1.3 2.75.8 3-1.27 5.42a42.62 42.62 0 0 1-6.45 5.62c-1.51 1.16 0 3.76 1.52 2.59z" fill="#ffdbaf" data-color="1"/>
        <path d="M17.54 55.45a10.72 10.72 0 0 1-6.23-5.58c-.48-1.1-.94-2.92-.24-4 1.34-2.14 4.33-.76 6 0s3.27-1.79 1.51-2.59c-2.41-1.11-5.06-2.19-7.67-1.08a5.41 5.41 0 0 0-3.16 4.91c-.21 5.31 4.38 9.58 9 11.28 1.81.66 2.6-2.24.8-2.9z" fill="#ffdbaf" data-color="1"/>
        <path d="M19.37 43.71c-2.27-2.25-4.59-4.58-5.9-7.54-1-2.19-1.54-5.32 1-6.52s4.82.83 6.26 2.76c1.14 1.53 3.74 0 2.59-1.52-3-3.94-10-7.43-13-1.47s3.19 12.63 7 16.41c1.37 1.36 3.5-.76 2.12-2.12z" fill="#ffdbaf" data-color="1"/>
        <path d="M23.51 31a26.84 26.84 0 0 1-2.21-12.28c.1-1.53.57-9.17 5.31-5.88 1.81 1.26 2.76 4.81 3.05 6.78s3.18 1.09 2.9-.8c-.73-4.88-6.25-14.12-11.75-8.26-5 5.32-2.36 16.16.11 22 .76 1.77 3.34.24 2.59-1.52z" fill="#ffdbaf" data-color="1"/>
        <path d="M32.48 20.11a7.56 7.56 0 0 1 1.92-3.92c2-2.05 3.8-1 4.81 1.32 1.33 3.09.6 6.46-.33 9.56-.56 1.85 2.33 2.64 2.89.79 1.44-4.75 2.23-11.45-2.26-14.95s-9.1 2.27-9.92 6.41c-.37 1.88 2.52 2.69 2.89.79z" fill="#ffdbaf" data-color="1"/>
        <path d="M41.35 28.94c1.22-1.8 2.51-3.75 4.6-4.61 3.27-1.33 5.17 1.36 5.53 4.24.47 3.77-.76 7.48-.22 11.28.27 1.91 3.16 1.1 2.89-.79-.79-5.54 2.77-13.38-3.2-17.17-5-3.18-9.59 1.71-12.19 5.54-1.09 1.6 1.5 3.1 2.59 1.51z" fill="#ffdbaf" data-color="1"/>
        <path d="M42.36 17.22c0-4 .33-8.28 2.9-11.58 1.33-1.72 3.92-4.08 5.45-.8.84 1.81.68 4.69.66 6.64a1.5 1.5 0 0 0 3 0c.05-4.56-.71-14-7.7-10.87-6.13 2.73-7.37 10.74-7.31 16.61a1.5 1.5 0 0 0 3 0z" fill="#ffdbaf" data-color="1"/>
        <path d="M54.35 12.63a4.73 4.73 0 0 1 3.08-3.2c2.84-.51 3.77 1.79 4.32 4a12.59 12.59 0 0 1-1.37 9.39A1.5 1.5 0 0 0 63 24.37c2.82-5 3.17-12.12-.71-16.72-3.35-4-9.74.09-10.8 4.18a1.5 1.5 0 0 0 2.89.8z" fill="#ffdbaf" data-color="1"/>
        <path d="M62.7 25.07a10.65 10.65 0 0 1 3.5-2.57c2.57-.83 4.33.76 5.52 2.69 2.07 3.35.11 7.1-1.5 10.17-.89 1.71 1.7 3.23 2.59 1.52 2.6-5 4.37-10.39.11-15-1.42-1.53-3.21-3.05-5.43-2.89-2.63.19-5.08 2.23-6.91 4-1.41 1.33.72 3.45 2.12 2.13z" fill="#ffdbaf" data-color="1"/>
        <path d="M69.76 48.7c-.22-2.39-.53-4.93.13-7.28.3-1.05.87-2.69 1.87-3.31 2.31-1.43 3.38 1.7 3.77 3 .56 1.85 3.46 1.06 2.89-.79-1.08-3.55-4.26-7.71-8.18-4.8s-3.9 8.7-3.48 13.2c.18 1.91 3.18 1.92 3 0z" fill="#ffdbaf" data-color="1"/>
        <path d="M78.85 41.64a7.55 7.55 0 0 1 3.61-4c2.39-1.42 4-.78 4.85 1.87 1 3.14-1.46 7.58-2.66 10.44-.74 1.78 2.16 2.55 2.9.8 1.23-2.94 3-6.47 3-9.72 0-2.18-1.26-5.64-3.13-6.92-4.1-2.83-10.24 3.14-11.42 6.73-.63 1.83 2.27 2.62 2.89.8z" fill="#ffdbaf" data-color="1"/>
        <path d="M87.42 51.79c2.62-2.11 5.17-.36 6.3 1.82a7.34 7.34 0 0 1 0 6.1c-1.27 3.42-4.15 5.76-7 7.84-1.55 1.12-.05 3.73 1.51 2.59 5.09-3.7 10.79-9.31 8.75-16.27-1.56-5.37-7.27-7.77-11.73-4.2-1.5 1.2.63 3.31 2.13 2.12z" fill="#ffdbaf" data-color="1"/>
        <path d="M17 57.1C13.46 54 4.7 49.19 1 54.6c-1.76 2.55-.81 6.21.76 8.6 2.09 3.19 5.55 5 8.92 6.51 1.74.79 3.27-1.79 1.51-2.59-3.56-1.63-9.5-4.38-9-9.19.57-5.93 9.57-.67 11.77 1.29 1.43 1.28 3.56-.84 2.12-2.12z" fill="#ffdbaf" data-color="1"/>
        <path d="M89.85 70.24a15.69 15.69 0 0 1 5-2.84c3.38-.85 5.55 1.87 4 5a26.38 26.38 0 0 1-6.72 8.34c-1.47 1.26.66 3.37 2.12 2.12 3.58-3.07 10.47-10.07 7.89-15.35-2.88-5.87-10.06-2.63-13.82.09-1.55 1.12 0 3.72 1.51 2.59z" fill="#ffdbaf" data-color="1"/>
        <path d="M3.55 112.74a54.66 54.66 0 0 0 5.52 9.7c1 1.36 2.4 4.19 4.45 3.88s3.89-4.13 4.82-5.62a48 48 0 0 0 4.41-9.34c.65-1.82-2.25-2.61-2.89-.8-1.51 4.24-3.92 10.36-7.6 13.22l1.46-.38c-1.46-.35-3.49-4.53-4.22-5.73a55.43 55.43 0 0 1-3.36-6.44c-.78-1.76-3.37-.24-2.59 1.51z" fill="#ffdbaf" data-color="1"/>
        <path d="M21.39 110.41a41 41 0 0 0 5.19 9.09 44.15 44.15 0 0 1 2.94 4.3 4.05 4.05 0 0 0 1.77 1.93c2.16.93 3.59-1.2 4.63-2.75a89.13 89.13 0 0 0 6.62-11.79c.81-1.74-1.77-3.26-2.59-1.52S33.66 123 32 121.91c-.46-.3-1-1.69-1.39-2.24-.73-1-1.54-1.85-2.25-2.83a36.29 36.29 0 0 1-4-7.23c-.73-1.75-3.64-1-2.89.8z" fill="#ffdbaf" data-color="1"/>
        <path d="M41 110.6a51.59 51.59 0 0 0 4.2 9.75c1.13 1.87 3 5.24 5.59 5.22 2.38 0 3.85-3.11 5-4.79A43.46 43.46 0 0 0 61 111.1c.66-1.81-2.24-2.6-2.89-.79a34.41 34.41 0 0 1-3.22 6.49c-.77 1.23-2.79 5.42-4.56 5.32-1.12-.06-3-4.24-3.56-5.27a61.24 61.24 0 0 1-2.81-7c-.64-1.81-3.54-1-2.89.8z" fill="#ffdbaf" data-color="1"/>
        <path d="M58.9 111.63c.6 3.21 3 5.89 4.71 8.55 1.14 1.73 2.78 6 5 6.57 2 .51 3.17-2.24 4-3.49 2.24-3.26 4.29-6.63 6.23-10.07.94-1.68-1.65-3.2-2.59-1.51-1.25 2.17-2.52 4.32-3.85 6.42-1.22 1.92-2.56 4.73-4.33 6.2l1.46-.39a24.83 24.83 0 0 1-1.87-3l-2.19-3.32c-1.38-2.09-3.21-4.22-3.68-6.73-.35-1.9-3.24-1.09-2.89.8z" fill="#ffdbaf" data-color="1"/>
        <path d="M76.36 113.66a37.93 37.93 0 0 1 3.75 6c1.07 2.15 1.44 4.88 2.65 6.89 2.14 3.54 6.58-2.83 7.82-4.34s-.9-3.61-2.13-2.12c-.57.7-3.26 4.52-4.25 4.47l1.29.74c-1.1-2.08-1.56-4.6-2.59-6.75a38.6 38.6 0 0 0-4-6.41c-1.15-1.52-3.76 0-2.59 1.52z" fill="#ffdbaf" data-color="1"/>
        <path d="M9 111.14a34.36 34.36 0 0 0 3.89 5.6c.41.48 1.06.14 1.25-.33l2.21-5.36c.36-.9-1.09-1.28-1.45-.4-.73 1.79-1.47 3.57-2.2 5.36l1.25-.33a33.16 33.16 0 0 1-3.65-5.29c-.47-.85-1.77-.09-1.3.75z" fill="#ffdbaf" data-color="1"/>
        <path d="m27.9 110.18 3.6 6.11a.76.76 0 0 0 1.3 0l3.2-5.87c.46-.85-.83-1.61-1.29-.76l-3.18 5.87h1.3l-3.61-6.11a.75.75 0 0 0-1.29.76z" fill="#ffdbaf" data-color="1"/>
        <path d="m47.87 111.53 2.67 4.6a.76.76 0 0 0 1.17.15A10.59 10.59 0 0 0 54.8 112c.35-.89-1.1-1.28-1.45-.4a9.14 9.14 0 0 1-2.7 3.66l1.18.15-2.66-4.6a.75.75 0 0 0-1.3.76z" fill="#ffdbaf" data-color="1"/>
        <path d="M66.18 111.34a13.57 13.57 0 0 0 2.29 5.3.77.77 0 0 0 1.18.16 18.64 18.64 0 0 0 3.21-3.6c.55-.8-.75-1.55-1.3-.75a16.83 16.83 0 0 1-3 3.28l1.17.16a12.7 12.7 0 0 1-2.13-5c-.19-1-1.64-.55-1.45.4z" fill="#ffdbaf" data-color="1"/>
        <path d="M83.57 113.37c.17 1.81.77 3.89 2.76 4.42a2.35 2.35 0 0 0 2.92-2.8.75.75 0 0 0-1.44.4c.32 1.14-1.22 1.07-1.79.56a3.88 3.88 0 0 1-1-2.58c-.09-1-1.59-1-1.5 0z" fill="#ffdbaf" data-color="1"/>
        <path d="M3.79 125.25a89.55 89.55 0 0 0 10.91 11.46.77.77 0 0 0 1.18-.16A77 77 0 0 0 22.71 123l-1.37.18 11.54 16a.77.77 0 0 0 1.3 0q4.09-8 7.47-16.32l-1.26.33L53 138.94a.74.74 0 0 0 1.06 0 55.36 55.36 0 0 0 7-11.15l-1.18.15A44.47 44.47 0 0 1 70 141.7a.75.75 0 0 0 1.29 0q2.86-6.47 6.3-12.64l-1.18.15c2 2.27 4.94 3 7 5.09s2.49 5.16 4.14 7.4c.57.76 1.87 0 1.3-.76-1.6-2.16-2.18-4.92-3.83-7-2-2.52-5.4-3.31-7.54-5.75a.76.76 0 0 0-1.18.15q-3.44 6.18-6.29 12.64h1.29a45.31 45.31 0 0 0-10.3-14.1.77.77 0 0 0-1.18.15 53.21 53.21 0 0 1-3.46 6.28 12.42 12.42 0 0 1-1.83 2.69c-1.7 1.45-2.09-.16-3.15-1.47l-9.93-12.35c-.39-.49-1.06-.13-1.25.33q-3.31 8.15-7.32 16h1.3l-11.55-16a.76.76 0 0 0-1.37.18 74.16 74.16 0 0 1-6.68 13.18l1.18-.15a89.55 89.55 0 0 1-10.91-11.53c-.6-.76-1.66.31-1.06 1.06z" fill="#ffdbaf" data-color="1"/>
        <path d="M19.66 93.06c-3.08-1.1-8.57-1.57-9 3-.48 4.78 5.55 5.56 8.9 6.21l-.36-2.74c-5.69 3.53 3.65 8.15 6 9.53a1.5 1.5 0 0 0 1.51-2.59c-.32-.19-6.61-4-6-4.35a1.52 1.52 0 0 0-.36-2.74 33.11 33.11 0 0 1-4.53-.94l-1.58-.82.67-2.41c.59-.61 3.24.47 4 .74 1.82.65 2.6-2.25.8-2.9z" fill="#ffdbaf" data-color="1"/>
        <path d="M45.05 94.83c1.35.23 1.5.64.45 1.24a4.3 4.3 0 0 1-1.5 1.15 21.81 21.81 0 0 1-2 1 13.89 13.89 0 0 0-3.66 2.5 1.52 1.52 0 0 0 .66 2.51c.23.08 1.32.19 1.39.26.52-.14.53 0 0 .45a2.68 2.68 0 0 1-1 1.06 5.63 5.63 0 0 0-1.7 2.84c-.44 1.88 2.45 2.68 2.89.79.57-2.42 3.88-3 3.19-6-.55-2.4-2.27-1.65-4-2.32l.66 2.51c2.74-2.67 8.58-3.34 9.09-8 .41-3.74-3.52-3.76-6-2.68-1.76.77-.24 3.36 1.51 2.59z" fill="#ffdbaf" data-color="1"/>
        <path d="M64.38 96.54c1.09-.07 1.42.56 1 1.89a14.34 14.34 0 0 1-1.69.41c-.92.21-1.87.32-2.79.56a10.39 10.39 0 0 0-4.67 2.4 1.51 1.51 0 0 0 .3 2.35c.51.32-3.21 2-3.51 2.21a5.49 5.49 0 0 0-2 1.92c-1.06 1.63 1.54 3.13 2.59 1.52 1.4-2.14 4.77-1.49 5.82-4.2a3.23 3.23 0 0 0-1.41-4l.3 2.36c2.88-2.6 8.5-1.08 10.65-4.62 1.85-3-1.13-5.15-3.82-5.65-1.89-.36-2.7 2.53-.8 2.89z" fill="#ffdbaf" data-color="1"/>
        <path d="M83.22 96.93c2.93.48-2.31 3.13-3.15 3.37l-4.8 1.36a1.52 1.52 0 0 0-.36 2.75c2.45 1.18-2.2.85-3 .9a16.67 16.67 0 0 0-3.46.28 9.5 9.5 0 0 0-4.78 3.12c-1.27 1.44.84 3.57 2.12 2.12 2.62-3 5.47-2.06 8.92-2.4a4.76 4.76 0 0 0 3.43-1.56c1.64-2 .42-4-1.69-5.06-.12.92-.23 1.83-.35 2.75 3.05-.87 9.56-1.36 10.93-4.84.83-2.12-.68-5.3-3-5.68-1.89-.31-2.7 2.58-.8 2.89z" fill="#ffdbaf" data-color="1"/>
    </g>
</svg>
