<?xml version="1.0" encoding="UTF-8"?>
<svg data-bbox="0 -0.001 141.028 222.698" viewBox="0 0 141 222.68" xmlns="http://www.w3.org/2000/svg" data-type="color">
    <g>
        <path d="M3.72 105.65c43.61 2 88.1 6.1 131.36-1.76 1.89-.34 1.09-3.24-.8-2.89-43 7.81-87.25 3.6-130.56 1.65-1.93-.09-1.93 2.91 0 3z" fill="#829a5b" data-color="1"/>
        <path d="M4.91 130.82c23 1.67 46 3.9 69.1 3 5.41-.2 10.85-.35 16.25-.82s10.9-1.81 16.39-2.59 10.85-.56 16.23-1.33a58.91 58.91 0 0 0 14.73-4.24c1.77-.75.25-3.33-1.51-2.59-10.48 4.43-21 3.67-32 5.52a246.48 246.48 0 0 1-34 3.19c-21.79.69-43.53-1.58-65.24-3.15-1.93-.13-1.92 2.87 0 3z" fill="#829a5b" data-color="1"/>
        <path d="M133.84 102.46c-.85 7 1.58 13.63 1.73 20.56 0 1.93 3 1.94 3 0-.15-6.92-2.57-13.61-1.73-20.56.23-1.91-2.77-1.89-3 0z" fill="#829a5b" data-color="1"/>
        <path d="M1.88 104c-1.07 8.13.5 16.45 1.39 24.53.21 1.9 3.21 1.92 3 0-.89-8.08-2.46-16.4-1.39-24.53.26-1.9-2.75-1.89-3 0z" fill="#829a5b" data-color="1"/>
        <path d="M10 130.77a293.73 293.73 0 0 1 11.24 42.29c2.71 14.25 4.9 28.6 8.92 42.57a1.5 1.5 0 0 0 2.89-.8c-4-14-6.21-28.32-8.92-42.57A295.35 295.35 0 0 0 12.94 130c-.63-1.81-3.53-1-2.9.8z" fill="#829a5b" data-color="1"/>
        <path d="M129.14 126.22a604.43 604.43 0 0 0-18.54 84.65c-.27 1.89 2.62 2.71 2.9.8A603.43 603.43 0 0 1 132 127c.55-1.85-2.34-2.64-2.89-.79z" fill="#829a5b" data-color="1"/>
        <path d="M31.24 216.68c14.74 3.25 29.8 6.27 45 6 12.54-.23 26.55-1.1 36.38-9.8 1.45-1.28-.68-3.39-2.12-2.12-10 8.84-25.56 9.12-38.2 8.93-13.57-.2-27-3-40.22-5.89-1.88-.41-2.68 2.48-.8 2.9z" fill="#829a5b" data-color="1"/>
        <path d="M18.39 32.91c-2.43-1.61-6.15-3.08-8.32-.2-2 2.68-.2 6.12 2.54 7.33 1.75.77 3.28-1.81 1.52-2.59-1-.43-3-2.06-1.43-3.15 1.27-.91 3.15.52 4.18 1.2 1.61 1.06 3.12-1.5 1.51-2.59z" fill="#829a5b" data-color="1"/>
        <path d="M13.63 38.11a5.18 5.18 0 0 0-3.5 7.22c1.61 3.07 6.47 5.36 8.87 1.87 1.08-1.61-1.52-3.11-2.6-1.51-.88 1.32-3.57-1.22-3.73-2.24A2.24 2.24 0 0 1 14.43 41c1.88-.42 1.08-3.31-.8-2.89z" fill="#829a5b" data-color="1"/>
        <path d="M16.86 46.14a6.92 6.92 0 0 0 6 6.75 6.91 6.91 0 0 0 7.25-5.36c.44-1.88-2.45-2.68-2.89-.8a3.7 3.7 0 0 1-7.34-.59c-.07-1.93-3.07-1.94-3 0z" fill="#829a5b" data-color="1"/>
        <path d="M28.46 48.55c2.73 1.77 6.74 1.86 9-.69a5.91 5.91 0 0 0 0-8c-1.33-1.4-3.45.72-2.12 2.12a2.9 2.9 0 0 1-.24 4c-1.46 1.35-3.67.93-5.18 0s-3.12 1.54-1.51 2.6z" fill="#829a5b" data-color="1"/>
        <path d="M36.74 42.06c2.59-1.81 4.94-4.44 4.48-7.85a5 5 0 0 0-6.3-4.21c-1.84.57-1.06 3.46.79 2.89s2.88 1.48 2.45 3.1a6.68 6.68 0 0 1-2.94 3.52c-1.57 1.1-.07 3.7 1.52 2.59z" fill="#829a5b" data-color="1"/>
        <path d="M36.06 32.13c2.79-3.76 2.2-9.7-2.63-11.46-4.22-1.54-8.74 2.36-7.34 6.78.58 1.83 3.47 1.05 2.89-.8-.83-2.62 2.14-4.15 4.22-2.76 2.41 1.62 1.74 4.75.27 6.73-1.15 1.55 1.45 3.05 2.59 1.51z" fill="#829a5b" data-color="1"/>
        <path d="M28.46 27.08c-.75-3.55-4.07-6.34-7.77-5.14-4.31 1.4-3.7 6.19-2.33 9.51.73 1.76 3.63 1 2.9-.8-.68-1.63-2.08-4.82.23-5.8 2.13-.92 3.69 1.19 4.08 3s3.29 1.09 2.89-.79z" fill="#829a5b" data-color="1"/>
        <path d="M21.13 31.07c-.69-2.06-2.8-6.43-5.67-4.95-3.25 1.69-.73 5.81.26 8.12a1.51 1.51 0 0 0 2 .54 1.54 1.54 0 0 0 .54-2.05l-.87-2c-.15-.35-.31-.69-.43-1-.05-.14-.13-.84-.17-.88l-.37.1.23.25c.13.26.43.54.6.8a8.16 8.16 0 0 1 .94 1.95c.62 1.82 3.51 1 2.89-.8z" fill="#829a5b" data-color="1"/>
        <path d="M88.79 49.53c-1.33-3-5.09-4.92-8-2.63-2.36 1.9-1.72 6.14 1.46 6.73 1.89.35 2.7-2.54.8-2.89-1.14-.21-.8-1.49.14-1.77 1.43-.45 2.45.94 3 2.07.78 1.76 3.36.24 2.59-1.51z" fill="#829a5b" data-color="1"/>
        <path d="M83.45 51.28a5.62 5.62 0 0 0-7.28 4.3c-.55 3.76 3.08 6.58 6.59 6 1.9-.3 1.09-3.19-.8-2.9a2.54 2.54 0 0 1-2.75-3.06 2.68 2.68 0 0 1 3.44-1.49c1.82.66 2.61-2.24.8-2.89z" fill="#829a5b" data-color="1"/>
        <path d="M81.39 58.85a6.13 6.13 0 0 0-.15 8.35c2.3 2.4 7.16 2.17 7.74-1.68.28-1.89-2.61-2.7-2.9-.79s-2.5 1-3.11-.25a3.09 3.09 0 0 1 .54-3.48c1.34-1.39-.78-3.52-2.12-2.12z" fill="#829a5b" data-color="1"/>
        <path d="M86.81 66.18a8 8 0 0 0 11 2.53c2.73-1.74 4.87-6.44 1.3-8.51a1.5 1.5 0 0 0-1.51 2.59c1.92 1.11-1.76 3.71-2.68 4a4.93 4.93 0 0 1-5.49-2.11c-1.08-1.59-3.68-.09-2.59 1.51z" fill="#829a5b" data-color="1"/>
        <path d="M98.74 62.92c3.19-.53 6.82-3.13 7-6.64s-3.15-4.87-6-4.8c-1.93.05-1.94 3.05 0 3 1.59 0 3.8.51 2.75 2.59A5.93 5.93 0 0 1 98 60c-1.9.32-1.1 3.21.79 2.9z" fill="#829a5b" data-color="1"/>
        <path d="M100.31 54.22c3.83-1.77 5.86-6.64 3-10.19a5.3 5.3 0 0 0-9.21 1.73c-.56 1.85 2.34 2.64 2.89.8.74-2.42 3.76-1.76 4.51.27s-.9 4-2.7 4.8-.23 3.4 1.51 2.59z" fill="#829a5b" data-color="1"/>
        <path d="M96.37 46.49c1-3.39-2.06-7.34-5.64-7.22-4.38.15-4.67 7.12-4.56 10.2.07 1.93 3.07 1.93 3 0a18 18 0 0 1 .2-3.67 7.2 7.2 0 0 1 .9-3.06c1.32-1.63 3.67 1.46 3.21 2.95-.57 1.85 2.33 2.64 2.89.8z" fill="#829a5b" data-color="1"/>
        <path d="M75 13.59c-1.49-1.1-3.12-2.14-5-2a4 4 0 0 0-3.65 2.7c-.93 3 .42 7 3.31 8.44 1.73.84 3.25-1.75 1.51-2.59A4.19 4.19 0 0 1 69.06 16c.16-2.81 3.25-.7 4.42.17 1.55 1.15 3-1.45 1.52-2.59z" fill="#829a5b" data-color="1"/>
        <path d="M70.71 20.25c-3.12-.18-5.5 3.08-4.88 6.05C66.5 29.53 70 31.21 73 31c1.92-.12 1.93-3.12 0-3-1.47.1-3.35-.29-4.07-1.77a2 2 0 0 1 1.75-3c1.93.11 1.92-2.89 0-3z" fill="#829a5b" data-color="1"/>
        <path d="M72.7 28.76c-3.32 1.69-3 6.55-.2 8.56 3.13 2.21 9 1.49 10.81-2.1.88-1.71-1.71-3.23-2.59-1.51S76.77 36 75 35.28c-1.55-.59-2.62-3-.77-3.93s.2-3.46-1.52-2.59z" fill="#829a5b" data-color="1"/>
        <path d="M81.33 35.16c2.86 2.57 6.93 1.74 9.34-1a5.75 5.75 0 0 0 1.64-5 3.81 3.81 0 0 0-3.61-3c-1.93-.12-1.92 2.89 0 3 2.27.14-.83 3.6-1.45 4a3.09 3.09 0 0 1-3.8-.11c-1.43-1.29-3.56.82-2.12 2.12z" fill="#829a5b" data-color="1"/>
        <path d="M89.08 28.9c3.35-.6 7.45-3.2 8-6.84.63-3.89-4.88-5.22-7.76-5.1-1.92.09-1.93 3.09 0 3a7.36 7.36 0 0 1 3.25.51c1.28.52 1.81 1.05 1 2.31A7.84 7.84 0 0 1 88.29 26c-1.9.34-1.1 3.23.79 2.89z" fill="#829a5b" data-color="1"/>
        <path d="M90.88 18.79c.05-2 2.23-3.42 2.35-5.56A7 7 0 0 0 90.91 8c-1.36-1.31-3.35-2.17-5.17-1.31s-3 3.26-3.81 5 1.76 3.25 2.6 1.51c.46-1 1.15-3 2.12-3.54s2.12.35 2.66 1a3.38 3.38 0 0 1 .87 2.26c-.08 2.12-2.24 3.56-2.3 5.86 0 1.93 3 1.93 3 0z" fill="#829a5b" data-color="1"/>
        <path d="M84.56 12.82c.15-3.87-2.47-8.1-6.83-7.47-4.78.7-4.87 6.09-4.32 9.78.28 1.91 3.17 1.1 2.89-.79s-.76-5.49 1.78-6 3.55 2.58 3.48 4.51 2.92 1.93 3 0z" fill="#829a5b" data-color="1"/>
        <path d="M66.45 96.48a23.42 23.42 0 0 1-14.7-20.24c-.55-9 2.86-17.78 3.34-26.73l-2.56 1.06c2.28 2.86 5.39 4.15 8.33 6.2C65.07 59.7 68 64 70.12 68.58c4 8.48 6 18.82.61 27.14-1 1.63 1.55 3.13 2.59 1.52 5.3-8.19 4.27-18.25.8-27a40.72 40.72 0 0 0-6.75-11.62c-3.64-4.22-9.3-5.92-12.72-10.2-.88-1.09-2.5-.11-2.56 1.06-.57 10.62-5.28 21.42-2.55 32.07a26.33 26.33 0 0 0 15.4 17.49c1.75.74 3.28-1.84 1.51-2.59z" fill="#829a5b" data-color="1"/>
        <path d="M51.66 82.7c-12.1 0-28.23-4-35.09-15-4.86-7.8-4.85-17.64-11.83-24.25L3.28 46c8.86 2.53 18.73 4.81 26.8 9.41 7.51 4.29 12 12 18.61 17.37 1.49 1.2 3.63-.91 2.12-2.12-6.87-5.5-11.46-13.44-19.22-17.86-8.34-4.75-18.35-7.1-27.51-9.71a1.51 1.51 0 0 0-1.46 2.51c8.17 7.74 7 20.79 15.36 28.54 8.82 8.15 22 11.55 33.68 11.56a1.5 1.5 0 0 0 0-3z" fill="#829a5b" data-color="1"/>
        <path d="M54 52.87c-13.74-12.8-6.51-32.41.5-46.63l-2.35.3C57.17 13 64.48 20.41 66.21 28.71s-1.69 17.17-4.71 24.91c-.7 1.8 2.2 2.58 2.89.8 3.24-8.29 6.67-17.48 4.72-26.51S59.72 11.44 54.24 4.42a1.51 1.51 0 0 0-2.36.3C44.26 20.2 37 41.19 51.85 55c1.41 1.31 3.53-.8 2.12-2.12z" fill="#829a5b" data-color="1"/>
        <path d="M63.35 57a1.5 1.5 0 0 0 0-3 1.5 1.5 0 0 0 0 3z" fill="#829a5b" data-color="1"/>
        <path d="M38.57 57.08c-2.25-7.61 1.9-14.17 6.9-19.55 1.31-1.41-.81-3.54-2.13-2.12-5.74 6.19-10.22 13.8-7.67 22.47.55 1.84 3.44 1.06 2.9-.8z" fill="#829a5b" data-color="1"/>
        <path d="M29.35 78.42c-4.74-.28-9.61-.26-14.32-.91-4.55-.63-8.85-2.73-13.13-4.37A1.51 1.51 0 0 0 0 74.59c.12 5.51 3 9.54 6.86 13.24 3.1 3 7.35 8.36 11.75 9.1 1.89.31 2.7-2.58.8-2.9-3.18-.53-6.93-5.12-9.2-7.19C6.5 83.45 3.11 80 3 74.59L1.1 76c4.35 1.7 8.9 4 13.52 4.52 4.87.55 9.84.61 14.73.9 1.93.11 1.93-2.89 0-3z" fill="#829a5b" data-color="1"/>
        <path d="M74 97.22c5-8.23 10.82-16.69 19.6-21.3 9-4.75 20-6.52 29.76-9.15l-1.84-1.85a47.42 47.42 0 0 1-19.91 30.78c-1.58 1.09-.08 3.69 1.52 2.59a50.43 50.43 0 0 0 21.23-32.57 1.51 1.51 0 0 0-1.84-1.84C112 66.7 100 68.5 90.54 74.17 82.12 79.23 76.4 87.5 71.36 95.7c-1 1.65 1.58 3.16 2.59 1.52z" fill="#829a5b" data-color="1"/>
        <path d="M72.41 67.1C69.78 47.42 88.64 36.49 104 29.76l-2.2-.9c3.85 12.45 10.35 26.53 2.85 38.94-1 1.65 1.59 3.16 2.59 1.51 8-13.22 1.57-27.91-2.55-41.25a1.52 1.52 0 0 0-2.2-.89C86.21 34.3 66.64 46.38 69.41 67.1c.25 1.88 3.26 1.91 3 0z" fill="#829a5b" data-color="1"/>
        <path d="M76.22 79.46c7-8.76 18.7-8.37 28.9-9.25 1.91-.16 1.93-3.16 0-3-11 .94-23.46.71-31 10.12-1.2 1.5.91 3.63 2.12 2.13z" fill="#829a5b" data-color="1"/>
        <path d="M109.81 45.11a41.08 41.08 0 0 1 16.68-13.85l-2.21-.89a43.73 43.73 0 0 1-9.75 35.25c-1.24 1.47.88 3.6 2.12 2.12a47 47 0 0 0 10.53-38.17c-.17-1-1.43-1.26-2.21-.9a44.2 44.2 0 0 0-17.76 14.93c-1.11 1.58 1.49 3.08 2.6 1.51z" fill="#829a5b" data-color="1"/>
        <path d="M92.26 18.86C97.72 8.64 109 5.55 119.46 2.94l-1.9-1.45c-.27 14.53 0 28.15-9.35 40.21-1.17 1.5.94 3.64 2.13 2.12a45.54 45.54 0 0 0 9-18.87c1.56-7.64 1.11-15.71 1.25-23.46a1.51 1.51 0 0 0-1.9-1.44c-11.24 2.8-23.16 6.37-29 17.3-.91 1.7 1.68 3.22 2.59 1.51z" fill="#829a5b" data-color="1"/>
        <path d="M26.15 22.67C21.42 17.31 22 10.34 23.36 3.8l-1.85 1c9.51 2.6 19.68 6.63 23.1 16.78.61 1.82 3.51 1 2.89-.8C43.73 9.61 32.94 4.86 22.31 2a1.53 1.53 0 0 0-1.85 1c-1.63 7.7-1.93 15.57 3.54 21.79 1.29 1.45 3.4-.68 2.12-2.12z" fill="#829a5b" data-color="1"/>
        <path d="M117.47 83.6c6.28-7.49 17-9.17 23.12-16.89l-2.51-1.46a57.5 57.5 0 0 1-14.4 28.21c-1.31 1.41.8 3.54 2.12 2.12A60.39 60.39 0 0 0 141 66.05c.27-1.31-1.49-2.74-2.5-1.46-6.1 7.68-16.82 9.38-23.12 16.89-1.24 1.47.87 3.6 2.12 2.12z" fill="#829a5b" data-color="1"/>
        <path d="M69.74 97.86C57.89 90 57.5 74.24 60 61.82l-1.33.18c7 10.74 8.24 24.39 10.58 36.71.18 1 1.63.55 1.45-.4C68.33 85.84 67.06 72.1 60 61.24a.77.77 0 0 0-1.38.18C55.9 74.55 56.53 90.94 69 99.15c.81.53 1.56-.76.76-1.29z" fill="#829a5b" data-color="1"/>
        <path d="M55.49 49.39c-4.48-8.83-1.78-21 1.58-29.79h-1.45c2.5 10.91 4.9 22 3 33.21-.16.94 1.29 1.35 1.45.4 1.94-11.49-.44-22.81-3-34-.18-.78-1.2-.63-1.45 0-3.53 9.21-6.11 21.71-1.42 31 .43.86 1.73.1 1.29-.76z" fill="#829a5b" data-color="1"/>
        <path d="M67 58.22c-.49-7.22 5.4-16.78 10.74-21.37l-1.26-.33a24 24 0 0 1-.17 9.48c-.21.94 1.24 1.35 1.44.4a26.18 26.18 0 0 0 .18-10.32.75.75 0 0 0-1.25-.33 32.07 32.07 0 0 0-7.75 10.65c-1.82 3.71-3.73 7.6-3.47 11.82.06 1 1.56 1 1.5 0z" fill="#829a5b" data-color="1"/>
        <path d="M96.43 22.17c1.82-5.43 9.68-9 14.59-11.07l-1-.72a68.5 68.5 0 0 1-5.36 22.28c-.38.88.91 1.65 1.29.76a70.82 70.82 0 0 0 5.57-23 .76.76 0 0 0-.95-.73C105.13 12 97 15.68 95 21.77c-.31.92 1.14 1.31 1.45.4z" fill="#829a5b" data-color="1"/>
        <path d="M110.37 50.63a34.52 34.52 0 0 1 8.63-8.16l-1.1-.47c.82 2-.85 5.89-1.38 7.89s-1.14 4.24-1.75 6.34c-1.15 4-2.3 8-5.59 10.73-.74.62.33 1.68 1.07 1.06 3.48-2.93 4.75-7.16 6-11.39q1.22-4.21 2.3-8.46c.52-2 1.65-4.54.83-6.57a.77.77 0 0 0-1.11-.45 37.13 37.13 0 0 0-9.16 8.7c-.58.77.72 1.52 1.29.76z" fill="#829a5b" data-color="1"/>
        <path d="M80.24 72.25a14 14 0 0 1 2.27-11.46c.55-.79-.75-1.54-1.3-.76a15.46 15.46 0 0 0-2.41 12.62c.22.94 1.66.54 1.44-.4z" fill="#829a5b" data-color="1"/>
        <path d="M94.82 43.34a26.81 26.81 0 0 1 5.84-6.5l-1.26-.34a22.26 22.26 0 0 1 1 7.47c0 1 1.47 1 1.5 0a23.51 23.51 0 0 0-1.1-7.86.76.76 0 0 0-1.26-.33 28.08 28.08 0 0 0-6.06 6.8c-.53.82.77 1.57 1.29.76z" fill="#829a5b" data-color="1"/>
        <path d="M101.39 59.22a20.74 20.74 0 0 1-1 8.6c-.31.92 1.13 1.31 1.44.4a21.83 21.83 0 0 0 1.09-9c-.09-.95-1.59-1-1.5 0z" fill="#829a5b" data-color="1"/>
        <path d="M72 103.67c3.8-7.19 10.19-12.86 16.75-17.5C95 81.81 101.79 78 109.11 76c-.25-.41-.49-.83-.73-1.25-3.22 3.51-5.29 8-8.58 11.42-2.33 2.4-5.62 4.17-8.47 5.87-5.74 3.44-12.29 7.73-18.88 9.31-.94.23-.54 1.68.4 1.45 6.72-1.62 13.4-6 19.24-9.46a53.06 53.06 0 0 0 8.26-5.64c3.66-3.31 5.75-8.24 9.09-11.89a.76.76 0 0 0-.73-1.25c-7.8 2.1-15.09 6.25-21.58 11S74.5 95.8 70.74 102.91c-.45.86.84 1.61 1.3.76z" fill="#829a5b" data-color="1"/>
        <path d="M31 20.2a11.15 11.15 0 0 1-2.71-7.52l-1.29.53c3.25 2.53 7.58 3.28 10.51 6.24 3.45 3.5 4.78 8.29 5.85 13 .22.94 1.67.54 1.45-.4-1-4.35-2.21-8.79-5.08-12.32-3.19-3.93-7.92-4.63-11.73-7.58a.76.76 0 0 0-1.28.53 12.8 12.8 0 0 0 3.15 8.58c.62.75 1.67-.32 1.06-1.06z" fill="#829a5b" data-color="1"/>
        <path d="M51.81 66.35a20 20 0 0 1-4-18.7.75.75 0 0 0-1.45-.4 21.61 21.61 0 0 0 4.36 20.16c.62.74 1.68-.32 1.06-1.06z" fill="#829a5b" data-color="1"/>
        <path d="M50.19 76.71C46 72.73 42 68.33 37.4 64.82a21.06 21.06 0 0 0-6.4-3.41c-2.84-.91-5.65-1.23-8.2-2.93-.64-.43-1.39.4-1 1 2.89 5 5.9 9.86 10.71 13.18 5.35 3.72 11.9 6.07 18 8.25.92.33 1.31-1.12.4-1.45-5.63-2-11.54-4.16-16.6-7.41S26.1 63.87 23.1 58.73l-1 1c4.18 2.8 9.43 2.69 13.62 5.63 4.92 3.46 9.12 8.24 13.45 12.37.7.67 1.76-.39 1.06-1.06z" fill="#829a5b" data-color="1"/>
        <path d="M62.47 96.86c-5.84-4-12.28-8.09-19.32-9.45-8.12-1.58-16.71-1.62-24.94-2.3a.76.76 0 0 0-.53 1.28c3.88 3.17 7.83 6.29 12.66 7.82 5.11 1.62 10.56 2 15.49 4.21.88.39 1.64-.91.76-1.3-4.09-1.81-8.52-2.5-12.84-3.55-5.93-1.44-10.33-4.42-15-8.24-.18.43-.35.86-.53 1.28 8.08.67 16.57.7 24.54 2.24 6.92 1.34 13.22 5.39 19 9.31.8.54 1.55-.76.76-1.3z" fill="#829a5b" data-color="1"/>
        <path d="M111.07 91.38a62.36 62.36 0 0 1 17.63-9.58c-.29-.36-.57-.73-.85-1.1-1.85 2.94-2.85 6.3-5.37 8.77-5.48 5.34-14.43 6.9-21.6 8.31-.95.19-.55 1.63.4 1.45 7.35-1.45 16.14-3.11 21.9-8.36 2.88-2.63 3.93-6.21 6-9.41a.75.75 0 0 0-.84-1.1 64.39 64.39 0 0 0-18.29 10c-.77.59.3 1.64 1.06 1.06z" fill="#829a5b" data-color="1"/>
        <path d="M9.2 105.05c.39 8.3.88 16.58 2.67 24.72.21.94 1.66.54 1.45-.4-1.77-8-2.23-16.15-2.62-24.32 0-1-1.55-1-1.5 0z" fill="#829a5b" data-color="1"/>
        <path d="M16.54 106q2.17 12.11 3.93 24.29c.13.95 1.58.55 1.44-.4q-1.76-12.16-3.91-24.27c-.18-1-1.62-.55-1.45.4z" fill="#829a5b" data-color="1"/>
        <path d="M25 106.33c1.35 8 1.85 16.1 2.62 24.14.1.95 1.6 1 1.5 0-.78-8.18-1.3-16.43-2.68-24.53-.16-1-1.6-.55-1.44.39z" fill="#829a5b" data-color="1"/>
        <path d="M33.25 107.34q1.71 12.16 3.4 24.32c.14 1 1.58.55 1.45-.39l-3.4-24.33c-.13-1-1.58-.54-1.45.4z" fill="#829a5b" data-color="1"/>
        <path d="M41.71 106.43c.27 8.83 3.56 17.22 3.65 26.06a.75.75 0 0 0 1.5 0c-.09-8.84-3.38-17.24-3.65-26.06 0-1-1.53-1-1.5 0z" fill="#829a5b" data-color="1"/>
        <path d="M51.41 107.65a157.44 157.44 0 0 1 2.92 25.15c0 1 1.53 1 1.5 0a158.89 158.89 0 0 0-3-25.55c-.18-1-1.63-.55-1.44.4z" fill="#829a5b" data-color="1"/>
        <path d="M59.35 109c1.49 4.12 1.23 8.59 1.75 12.9a80.84 80.84 0 0 0 2.28 11.43.75.75 0 0 0 1.45-.4A76.86 76.86 0 0 1 62.31 119c-.3-3.57-.28-7-1.51-10.45-.33-.9-1.78-.52-1.45.4z" fill="#829a5b" data-color="1"/>
        <path d="M70.17 107.48 72 131.13c.08 1 1.58 1 1.5 0l-1.86-23.65c-.07-1-1.57-1-1.5 0z" fill="#829a5b" data-color="1"/>
        <path d="M77.71 107.16q1.13 12.47 2.14 25c.08.95 1.58 1 1.5 0q-1-12.5-2.14-25c-.08-1-1.59-1-1.5 0z" fill="#829a5b" data-color="1"/>
        <path d="M83.93 107.77c.32 8.32 4.06 16.06 4 24.41a.75.75 0 0 0 1.5 0c0-8.36-3.7-16.09-4-24.41 0-1-1.54-1-1.5 0z" fill="#829a5b" data-color="1"/>
        <path d="M93.33 107.46a120.32 120.32 0 0 1 .84 23c-.06 1 1.44 1 1.5 0a120.32 120.32 0 0 0-.84-23c-.12-.94-1.62-1-1.5 0z" fill="#829a5b" data-color="1"/>
        <path d="M99.9 107.35q2.25 10.65 4.52 21.29c.2 1 1.64.55 1.44-.4q-2.25-10.64-4.52-21.29c-.2-.94-1.65-.54-1.44.4z" fill="#829a5b" data-color="1"/>
        <path d="M109.8 106.44a103.89 103.89 0 0 1 .71 20c-.06 1 1.44 1 1.5 0a103.89 103.89 0 0 0-.71-20c-.13-.94-1.63-1-1.5 0z" fill="#829a5b" data-color="1"/>
        <path d="M117.5 106a93 93 0 0 1 1.6 19.78.75.75 0 0 0 1.5 0 94.85 94.85 0 0 0-1.66-20.18c-.18-.95-1.62-.55-1.44.4z" fill="#829a5b" data-color="1"/>
        <path d="m125.41 106.46.48 17c0 1 1.53 1 1.5 0l-.48-17c0-1-1.53-1-1.5 0z" fill="#829a5b" data-color="1"/>
        <path d="M125.6 105.14v2a.75.75 0 0 0 1.5 0v-2a.75.75 0 0 0-1.5 0z" fill="#829a5b" data-color="1"/>
        <path d="M125.93 123.14v2.66a.75.75 0 0 0 1.5 0v-2.66a.75.75 0 0 0-1.5 0z" fill="#829a5b" data-color="1"/>
        <path d="M128.11 104.64a95.15 95.15 0 0 1 1.67 20.49.75.75 0 0 0 1.5 0 97 97 0 0 0-1.72-20.89c-.19-.95-1.63-.55-1.45.4z" fill="#829a5b" data-color="1"/>
        <path d="M18.44 96.73a85.4 85.4 0 0 0 21.91 3c3.78 0 7.58-.23 11.35.1 5.65.5 9.24 2.46 13.32 6.28 1.4 1.32 3.53-.79 2.12-2.12-5.78-5.42-11.24-7.2-19.21-7.32-9.87-.14-19.06-.27-28.69-2.86a1.5 1.5 0 0 0-.8 2.89z" fill="#829a5b" data-color="1"/>
        <path d="M58 95.42a15.94 15.94 0 0 1 7.94 10.15 1.5 1.5 0 0 0 2.89-.79 18.93 18.93 0 0 0-9.31-12c-1.7-.93-3.21 1.66-1.52 2.59z" fill="#829a5b" data-color="1"/>
        <path d="M64.53 98.81c2.67 1.13 3 4.11 3.38 6.67.26 1.91 3.15 1.1 2.9-.79-.46-3.32-1.37-7-4.77-8.47-1.76-.75-3.29 1.83-1.51 2.59z" fill="#829a5b" data-color="1"/>
        <path d="M72.45 94.08a15.34 15.34 0 0 0-4.12 10.84c0 1.93 3 1.93 3 0a12.22 12.22 0 0 1 3.24-8.72c1.3-1.42-.82-3.55-2.12-2.12z" fill="#829a5b" data-color="1"/>
        <path d="M102.09 95.15c-6.92 4.74-15 4.39-23 5.24-4 .43-7.49 1-9.11 5-.72 1.79 2.18 2.57 2.9.8 1.82-4.5 13.83-3.28 17.8-3.82a29.27 29.27 0 0 0 13-4.65c1.59-1.08.09-3.68-1.51-2.59z" fill="#829a5b" data-color="1"/>
        <path d="M123.68 93.46c-6.21 5.48-16.77 6-24.6 6.24-5.51.17-10.89.54-14.7 5-1.24 1.46.87 3.6 2.12 2.12 5.13-6 15.24-3.82 22.31-4.9 6-.92 12.32-2.22 17-6.34 1.45-1.28-.68-3.4-2.12-2.12z" fill="#829a5b" data-color="1"/>
        <path d="M57.12 105c-6-4.87-13.95-4.35-20.4-8.16a1.5 1.5 0 0 0-1.52 2.56c6.16 3.64 14.19 3.11 19.8 7.69 1.49 1.21 3.62-.9 2.12-2.12z" fill="#829a5b" data-color="1"/>
    </g>
</svg>
