<?xml version="1.0" encoding="UTF-8"?>
<svg data-bbox="-0.002 0.004 169.022 231.456" viewBox="0 0 169.03 231.49" xmlns="http://www.w3.org/2000/svg" data-type="color">
    <g>
        <path d="M33.83 110.69c19.21-4.12 38.84-4.16 58.38-3.07 18.12 1 35.94 3.89 54 5.34 1.93.15 1.92-2.85 0-3-18.7-1.5-37.13-4.47-55.9-5.44-19.18-1-38.42-.76-57.27 3.27-1.88.41-1.09 3.3.8 2.9z" fill="#ffdbaf" data-color="1"/>
        <path d="M31.28 109c-3.31 25.17.9 50.44 5.29 75.21 1.8 10.16 4.8 19.38 11.48 27.42a54.39 54.39 0 0 0 23.51 16.17c19.61 7 42.84 4.19 58.21-10.41 6.49-6.15 12.37-14.2 15.56-22.6 2.7-7.11 1.16-15.8 1.16-23.21 0-20-.73-40.19 1.21-60.14.19-1.92-2.81-1.91-3 0-1.46 15-1.2 30.05-1.21 45.13 0 9.21-.1 18.43.15 27.64.21 7.76-2.54 13.51-6.78 20-5.37 8.19-12.62 15.42-21.52 19.68-10.56 5.05-23.39 5.57-34.74 3.32-20.91-4.14-36.34-19.29-40.48-40.14-5-25.45-9.25-52.11-5.84-78 .25-1.9-2.75-1.88-3 0z" fill="#ffdbaf" data-color="1"/>
        <path d="M97.08 105.07c0-16.1 3.67-32 8-47.48 3.89-13.85 10.34-29 24.37-35.16 1.72-.76 3.49-1.6 5.42-1.37 3.76.45 3 4.74 2.44 7.69A86.66 86.66 0 0 1 134.18 40c-2.36 6.9-5.26 13.6-7.71 20.47a233.74 233.74 0 0 0-11.16 45.82c-.27 1.89 2.62 2.7 2.89.8A250.17 250.17 0 0 1 133.27 51c2.45-6.3 16.43-36.15-.69-32.82-14.84 2.89-23.94 19-28.34 32-5.92 17.4-10.12 36.52-10.16 54.94a1.5 1.5 0 0 0 3 0z" fill="#ffdbaf" data-color="1"/>
        <path d="M82.66 104.3c-5.6-12.41-9.35-25.88-12.46-39.11-3.14-13.4-5-27.51-2.08-41.13C69.39 18.18 72.44 9 80.27 11.43c6.72 2.13 7.8 11.51 9.19 17.36l9.39 39.47c.45 1.87 3.34 1.08 2.9-.8l-6.27-26.31c-1.8-7.58-3-15.72-5.74-23C86 8.08 74.31 3.69 68.27 14.46c-6.94 12.38-5.13 29.81-2.72 43.14a209.62 209.62 0 0 0 14.52 48.21c.79 1.76 3.38.24 2.59-1.51z" fill="#ffdbaf" data-color="1"/>
        <path d="M97.47 48A60.76 60.76 0 0 1 103 13.08c1-2.13 2.16-4.82 3.79-6.56a3.36 3.36 0 0 1 3.29-1.81c2-1.83 3.4-1.59 4.23.74a14.92 14.92 0 0 1 1.58 3.91c1.55 5.58 1 12 1.16 17.72 0 1.93 3 1.93 3 0-.19-7.35.86-16.56-3.15-23.14-2.91-4.8-7.43-5.3-11.18-1C95.33 14.81 92.54 33.7 94.58 48.79c.26 1.91 3.15 1.09 2.89-.8z" fill="#ffdbaf" data-color="1"/>
        <path d="M119 106c5.49-23 15.35-45.94 33.28-62 1-.87 2-1.72 3-2.53s1.9-1.51 2.9-2.2l5.77.27c3.9 2.19 1.51 10.2.49 13.28-2.26 6.78-6.15 13.1-9.23 19.54q-8.67 18.16-15.48 37.13c-.66 1.82 2.24 2.6 2.89.8 6.19-17.13 13.94-33.33 21.79-49.73 2.66-5.58 5.9-12.69 4.08-19-1.24-4.32-5.53-7.53-10-5.84-5.67 2.14-10.94 8.34-14.88 12.74a101.85 101.85 0 0 0-12.08 16.72c-7.23 12.43-12.05 26.09-15.38 40-.45 1.88 2.45 2.68 2.9.8z" fill="#ffdbaf" data-color="1"/>
        <path d="M140.14 21.74c-.52-4.44 1.14-8.59 3.33-12.39 3.88-6.73 10.05-.9 11.86 4.05 2.5 6.88 1.61 15.91.85 23-.2 1.92 2.8 1.91 3 0 1.06-10 2.65-25.38-7-32s-15.89 9.82-15 17.28c.22 1.9 3.22 1.92 3 0z" fill="#ffdbaf" data-color="1"/>
        <path d="M60 104.56C48.13 86.23 37.78 66 36.88 43.76c-.29-7 .53-34.23 13.76-28.28 4.43 2 6 8 7.4 12.15q2.6 7.85 5.16 15.7c.6 1.82 3.5 1 2.89-.8-2.18-6.62-4.09-13.42-6.61-19.91-1.49-3.82-3.6-8-7.46-9.89C41.53 7.59 36 21.1 34.77 28.85c-4.56 27.86 7.88 54.41 22.6 77.23 1 1.61 3.64.11 2.59-1.52z" fill="#ffdbaf" data-color="1"/>
        <path d="M56.84 16.93C56 13 54.75 5.57 60.17 4.12c4.34-1.17 8.68 3.48 10 7 .65 1.8 3.55 1 2.89-.79-1.9-5.12-7.66-10.72-13.69-9.11C52.08 3.18 52.76 12 54 17.73c.39 1.89 3.28 1.09 2.89-.8z" fill="#ffdbaf" data-color="1"/>
        <path d="M41.34 69.26c-5.63-8.93-14.42-19.51-25-22.55C7 44-1 50.35.1 60.06S8.72 78.32 15.59 84.8c8.14 7.68 17.26 14.28 24.19 23.2 1.18 1.52 3.29-.62 2.12-2.12C31.89 93 16.59 85 7.73 71.17 5.37 67.48 3.1 63.1 3 58.63c-.2-7.14 6-10.9 12.57-9 9.75 2.78 18 13 23.21 21.16 1 1.63 3.62.13 2.59-1.51z" fill="#ffdbaf" data-color="1"/>
        <path d="M145.37 112.76a38.24 38.24 0 0 0 13-7.73c3.27-2.8 8.53-6.58 8.56-11.38 0-3.43-2.71-6-5.93-6.66-5-1.08-9.6 2.35-13.81 4.44-1.73.86-.21 3.45 1.52 2.59 2.73-1.35 5.39-3.27 8.4-4l2.33-.26q3.82-.18 3.22 3.54c.58 3.36-.33 3.93-2.62 6.11-4.57 4.37-9.41 8.43-15.52 10.42-1.82.59-1 3.49.8 2.89z" fill="#ffdbaf" data-color="1"/>
        <path d="M35.07 107.55a32.14 32.14 0 0 1-12-4.41c-2-1.29-3.93-3-4.28-5.51-.5-3.53 2.66-4.79 5.56-4.91 1.92-.09 1.93-3.09 0-3-5.67.24-10.47 4.38-8 10.39 2.63 6.44 11.74 9.26 17.94 10.33 1.89.33 2.7-2.56.8-2.89z" fill="#ffdbaf" data-color="1"/>
        <path d="M22.42 49.31a34.77 34.77 0 0 1-9.8-18.8c-.1-.88-.19-1.76-.28-2.64q3.5-4.92 7.74-2.35A22.81 22.81 0 0 1 24 27.94c3.4 2.47 6.6 5.29 9.86 7.93 1.49 1.21 3.62-.9 2.12-2.12-4.69-3.8-19-18.64-25.46-10-2.64 3.57-.43 10.05.88 13.71a38.61 38.61 0 0 0 9 14c1.36 1.38 3.48-.74 2.12-2.12z" fill="#ffdbaf" data-color="1"/>
        <path d="M32.42 145.1c18.59.9 37.11 3.09 55.73 3.39a187.89 187.89 0 0 0 27.24-1.34c9.35-1.2 18.55-3.29 28-3.16a1.5 1.5 0 0 0 0-3c-8.65-.12-17 1.57-25.53 2.82a184.86 184.86 0 0 1-29.74 1.68c-18.59-.3-37.12-2.49-55.7-3.39-1.93-.09-1.92 2.91 0 3z" fill="#ffdbaf" data-color="1"/>
        <path d="M37.67 180.75a382.49 382.49 0 0 0 107.16-2.51c1.9-.31 1.09-3.2-.8-2.89a379.81 379.81 0 0 1-106.36 2.4c-1.92-.23-1.9 2.77 0 3z" fill="#ffdbaf" data-color="1"/>
        <path d="M34.73 142.87a70.92 70.92 0 0 1 7.2-10.41l-2.36-.3c2.59 3.85 5.15 7.72 7.49 11.73a1.5 1.5 0 0 0 2.59-1.52c-2.34-4-4.9-7.87-7.49-11.72a1.51 1.51 0 0 0-2.35-.31 76.62 76.62 0 0 0-7.67 11 1.5 1.5 0 0 0 2.59 1.52z" fill="#ffdbaf" data-color="1"/>
        <path d="M50 144.58a55.08 55.08 0 0 0 10.18-13.23H57.6q4.41 7.11 8.19 14.56c.87 1.72 3.46.21 2.59-1.51q-3.78-7.47-8.19-14.57a1.52 1.52 0 0 0-2.59 0 52.58 52.58 0 0 1-9.71 12.63c-1.4 1.34.72 3.46 2.12 2.12z" fill="#ffdbaf" data-color="1"/>
        <path d="M69.34 146.43a48 48 0 0 1 3.92-6.91c.94-1.35 1.93-2.67 2.95-4a25.1 25.1 0 0 1 2.5-3.12c-.85-.07 1.12 3 1.16 3.09q1 1.78 2 3.6c1.31 2.43 2.52 4.9 3.68 7.39.81 1.75 3.4.23 2.59-1.51-1.74-3.75-3.61-7.42-5.69-11-.92-1.57-2-4.94-4.32-4.58-2.15.33-3.76 3.61-5 5.2a54.12 54.12 0 0 0-6.4 10.29c-.8 1.74 1.79 3.27 2.59 1.51z" fill="#ffdbaf" data-color="1"/>
        <path d="M89 146.5a53.27 53.27 0 0 0 4-6.62c.59-1.15 1.15-2.33 1.71-3.5.47-1 1.07-3.45 1.92-4.12.19-.8.4-.78.62.06.41.53.81 1.06 1.21 1.6.79 1.07 1.58 2.15 2.33 3.26a39 39 0 0 1 4.4 8.45c.65 1.8 3.55 1 2.89-.8a44.37 44.37 0 0 0-5.82-10.83c-1.09-1.53-2.94-5.45-5.17-5.66-2.64-.24-3.57 3.59-4.39 5.33A68.17 68.17 0 0 1 86.39 145c-1.14 1.57 1.47 3.07 2.59 1.52z" fill="#ffdbaf" data-color="1"/>
        <path d="m108.75 146.22 5-7.08 2.31-3.26c.59-.83 1.93-3.59 2.94-3.82l-1.45-.39c1 1 1.17 4.07 1.8 5.52a32.16 32.16 0 0 0 3.54 6.12c1.13 1.55 3.73.05 2.59-1.52a28.27 28.27 0 0 1-4.68-9.88c-.39-1.53-1-3.16-2.91-2.67-2.21.56-3.62 4-4.81 5.67l-6.92 9.8c-1.11 1.58 1.49 3.08 2.59 1.51z" fill="#ffdbaf" data-color="1"/>
        <path d="M126.24 143.84q5-7.16 9.39-14.67l-2.36.3a123.34 123.34 0 0 1 9.21 11.45c1.09 1.58 3.69.08 2.59-1.51a130.33 130.33 0 0 0-9.68-12.06 1.51 1.51 0 0 0-2.36.3q-4.4 7.53-9.38 14.68c-1.1 1.59 1.5 3.09 2.59 1.51z" fill="#ffdbaf" data-color="1"/>
        <path d="M37.79 182.36c3 3.73 3.82 11.36 9.07 13a1.5 1.5 0 0 0 1.46-.38c1.35-1.36 2.12-3.69 3-5.4l3.41-6.67c.87-1.72-1.71-3.24-2.59-1.51-1 1.9-2 3.81-2.93 5.72-.84 1.65-1.68 4.41-3 5.74l1.46-.39c-2.19-.67-3.47-4.29-4.31-6.15a26.1 26.1 0 0 0-3.43-6c-1.21-1.51-3.32.63-2.12 2.12z" fill="#ffdbaf" data-color="1"/>
        <path d="M53.35 183.13a65.18 65.18 0 0 0 5.66 9.6c1.18 1.65 2.91 5 5.22 5.26 2 .2 3-1.82 3.89-3.29 2.1-3.58 4.14-7.19 6.21-10.79a1.5 1.5 0 0 0-2.59-1.51l-3.8 6.6c-.72 1.25-2.27 5.41-3.77 5.56-.85.08-3.81-5.1-4.42-6.05a69.88 69.88 0 0 1-3.81-6.88c-.84-1.74-3.43-.22-2.59 1.51z" fill="#ffdbaf" data-color="1"/>
        <path d="M72.84 184.82c2.28 2.19 3.1 5.44 4.94 8a25.55 25.55 0 0 0 5.43 5.41A1.5 1.5 0 0 0 85 198a39.27 39.27 0 0 0 9-14.7c.63-1.83-2.27-2.62-2.89-.8a35.77 35.77 0 0 1-8.27 13.38l1.82-.24a21.65 21.65 0 0 1-6.16-7.29c-1.07-2-1.91-4-3.6-5.64-1.4-1.34-3.52.78-2.12 2.12z" fill="#ffdbaf" data-color="1"/>
        <path d="M92 184.31a63 63 0 0 0 5.82 9.3c1 1.37 2.36 4.06 4.46 3.95s3.12-2.76 4-4.18l3.06-4.84c.59-.92 2.28-4.69 3.41-4.89 1.89-.35 1.09-3.24-.8-2.89-1.56.28-2.07 1.36-2.9 2.64-1.69 2.6-3.32 5.24-5 7.86l-1.15 1.81c-.32 1.37-.74 1.59-1.24.67-.94-.38-1.91-2.48-2.5-3.31a57.51 57.51 0 0 1-4.61-7.63c-.86-1.73-3.45-.21-2.59 1.51z" fill="#ffdbaf" data-color="1"/>
        <path d="M112 183.16c1.6 2.93 3.13 5.89 4.78 8.79 1 1.8 2.23 4.09 4.15 5.08a1.5 1.5 0 0 0 1.52 0c4.59-3.09 6.65-10.7 8.74-15.55.75-1.75-1.83-3.28-2.59-1.51-1 2.42-2 4.87-3.18 7.26-1 2.15-2.47 5.85-4.49 7.21h1.52c-2-1-3.16-4.16-4.19-6.06-1.23-2.24-2.44-4.49-3.67-6.73-.92-1.7-3.51-.19-2.59 1.51z" fill="#ffdbaf" data-color="1"/>
        <path d="M130 181.45q6.13 5.61 11.82 11.68c1.33 1.41 3.45-.72 2.12-2.13q-5.69-6.06-11.82-11.67c-1.42-1.31-3.55.81-2.12 2.12z" fill="#ffdbaf" data-color="1"/>
        <path d="M72.67 18.68a15 15 0 0 0-1.73 8.39c.08.95 1.58 1 1.5 0A13.64 13.64 0 0 1 74 19.44c.45-.85-.84-1.61-1.29-.76z" fill="#ffdbaf" data-color="1"/>
        <path d="M70.93 37.4a39.6 39.6 0 0 0 1 6.86c.23.94 1.68.54 1.45-.4a36.94 36.94 0 0 1-1-6.46c-.06-1-1.56-1-1.5 0z" fill="#ffdbaf" data-color="1"/>
        <path d="M74.32 50.59c.44 1.22.87 2.45 1.31 3.67.32.91 1.77.52 1.45-.39-.44-1.23-.88-2.46-1.31-3.68-.32-.9-1.77-.52-1.45.4z" fill="#ffdbaf" data-color="1"/>
        <path d="m79.22 29.28 1.37 5.33a.75.75 0 0 0 1.44-.4l-1.36-5.32a.75.75 0 0 0-1.45.39z" fill="#ffdbaf" data-color="1"/>
        <path d="M79.09 18.31a10.55 10.55 0 0 1 2.24 4.28.75.75 0 0 0 1.44-.4 12.11 12.11 0 0 0-2.62-4.94c-.64-.73-1.69.34-1.06 1.06z" fill="#ffdbaf" data-color="1"/>
        <path d="M85.67 46.79A34.44 34.44 0 0 1 89 54.6a.75.75 0 0 0 1.44-.4A36.4 36.4 0 0 0 87 46a.75.75 0 0 0-1.3.76z" fill="#ffdbaf" data-color="1"/>
        <path d="m90 66.92 1.63 5.35c.28.92 1.73.53 1.44-.4l-1.63-5.34c-.28-.92-1.73-.53-1.44.39z" fill="#ffdbaf" data-color="1"/>
        <path d="M81.65 62.93q.82 3.33 1.67 6.66a.75.75 0 0 0 1.44-.39q-.83-3.35-1.67-6.67a.75.75 0 0 0-1.44.4z" fill="#ffdbaf" data-color="1"/>
        <path d="M71.92 61.61c.44 2.11.87 4.22 1.31 6.34.19.94 1.64.54 1.44-.4l-1.3-6.34c-.2-.94-1.65-.54-1.45.4z" fill="#ffdbaf" data-color="1"/>
        <path d="m78 80.6 2.53 7.05c.33.9 1.78.51 1.45-.4q-1.26-3.52-2.54-7c-.32-.9-1.77-.51-1.44.4z" fill="#ffdbaf" data-color="1"/>
        <path d="m86.93 82.94 2 5c.36.88 1.81.49 1.45-.4l-2-5c-.36-.88-1.82-.49-1.45.4z" fill="#ffdbaf" data-color="1"/>
        <path d="M88.7 97.44q1.1 2.37 2.18 4.74c.41.87 1.7.11 1.3-.76L90 96.69c-.41-.88-1.7-.12-1.3.75z" fill="#ffdbaf" data-color="1"/>
        <path d="M85.6 33.61q.69 2.32 1.39 4.65a.75.75 0 0 0 1.44-.4l-1.38-4.65c-.28-.92-1.73-.53-1.45.4z" fill="#ffdbaf" data-color="1"/>
        <path d="m106.25 9.86-2.31 6c-.34.9 1.11 1.29 1.45.4l2.31-6c.34-.9-1.11-1.29-1.45-.4z" fill="#ffdbaf" data-color="1"/>
        <path d="M110.93 13.94a19.15 19.15 0 0 1 1 5.13c0 1 1.55 1 1.5 0a20.91 20.91 0 0 0-1.07-5.53c-.32-.9-1.77-.51-1.45.4z" fill="#ffdbaf" data-color="1"/>
        <path d="M112.67 21.82a.75.75 0 0 0 0-1.5.75.75 0 0 0 0 1.5z" fill="#ffdbaf" data-color="1"/>
        <path d="m107.9 28.4-.33 4c-.08 1 1.42 1 1.5 0l.33-4c.08-1-1.42-.95-1.5 0z" fill="#ffdbaf" data-color="1"/>
        <path d="M101.63 26.08q-.36 3-.7 6c-.11 1 1.39 1 1.5 0q.34-3 .7-6c.11-1-1.39-.95-1.5 0z" fill="#ffdbaf" data-color="1"/>
        <path d="m102.62 42.27.93 4c.21.95 1.66.55 1.44-.39-.3-1.34-.61-2.68-.92-4-.21-.94-1.66-.54-1.45.4z" fill="#ffdbaf" data-color="1"/>
        <path d="M113.24 27.4c-.12 1-.23 2-.34 3s1.4 1 1.5 0 .22-2 .34-3-1.4-.95-1.5 0z" fill="#ffdbaf" data-color="1"/>
        <path d="M126.83 29.23a61.1 61.1 0 0 0-4.92 6.06c-.56.78.74 1.53 1.3.75a58.71 58.71 0 0 1 4.68-5.75c.65-.71-.41-1.77-1.06-1.06z" fill="#ffdbaf" data-color="1"/>
        <path d="M132.6 28.87a20.18 20.18 0 0 1-1.6 5.49c-.4.88.9 1.64 1.29.76a21.31 21.31 0 0 0 1.73-5.85c.13-.94-1.31-1.35-1.45-.4z" fill="#ffdbaf" data-color="1"/>
        <path d="M125.25 44.74a9.21 9.21 0 0 1-1.25 4.61.75.75 0 0 0 1.3.76 10.88 10.88 0 0 0 1.44-5.37.75.75 0 0 0-1.5 0z" fill="#ffdbaf" data-color="1"/>
        <path d="m119.32 44.89-2 4.68c-.38.89 1.08 1.27 1.44.4l2-4.68c.38-.89-1.07-1.28-1.44-.4z" fill="#ffdbaf" data-color="1"/>
        <path d="M114.33 40c-.56 1.12-1.11 2.23-1.67 3.34-.43.86.86 1.62 1.3.75.55-1.11 1.11-2.22 1.67-3.33.43-.86-.87-1.62-1.3-.76z" fill="#ffdbaf" data-color="1"/>
        <path d="M107.57 58.53c-.45 2-.91 4-1.37 6-.21.94 1.23 1.34 1.45.4.46-2 .91-4 1.37-6 .21-.94-1.23-1.34-1.45-.4z" fill="#ffdbaf" data-color="1"/>
        <path d="M115.28 57.54c-.45 1.33-.89 2.67-1.34 4-.3.92 1.15 1.31 1.45.4.44-1.34.89-2.67 1.33-4 .31-.92-1.14-1.31-1.44-.4z" fill="#ffdbaf" data-color="1"/>
        <path d="m117.59 69.53-1.38 6c-.22.94 1.23 1.34 1.44.4l1.38-6c.22-.94-1.23-1.34-1.44-.4z" fill="#ffdbaf" data-color="1"/>
        <path d="m109.59 74.87-1.06 6c-.16.94 1.28 1.35 1.45.4q.52-3 1.06-6c.16-1-1.28-1.35-1.45-.4z" fill="#ffdbaf" data-color="1"/>
        <path d="M113.89 86.73a28.51 28.51 0 0 1-1.19 5.17c-.3.92 1.15 1.32 1.45.4a31.14 31.14 0 0 0 1.24-5.57c.12-1-1.38-.94-1.5 0z" fill="#ffdbaf" data-color="1"/>
        <path d="m102.31 82.21-.93 4.35c-.2.94 1.25 1.35 1.45.4l.93-4.35c.2-.94-1.25-1.34-1.45-.4z" fill="#ffdbaf" data-color="1"/>
        <path d="m102.88 96.4-.33 5c-.07 1 1.43 1 1.5 0l.33-5c.07-1-1.43-1-1.5 0z" fill="#ffdbaf" data-color="1"/>
        <path d="M109 100.89a8.14 8.14 0 0 0-.17 4.07c.2 1 1.65.55 1.45-.4a6.48 6.48 0 0 1 .17-3.27c.29-.92-1.16-1.32-1.45-.4z" fill="#ffdbaf" data-color="1"/>
        <path d="m154 47.67-2.71 4c-.54.8.76 1.55 1.3.75l2.7-4c.55-.8-.75-1.55-1.29-.76z" fill="#ffdbaf" data-color="1"/>
        <path d="m160.35 45.69-2 4.66c-.38.88.92 1.64 1.3.76l2-4.66c.38-.88-.91-1.64-1.29-.76z" fill="#ffdbaf" data-color="1"/>
        <path d="M153.65 61.67 151 67c-.44.86.86 1.62 1.29.76l2.69-5.32c.43-.86-.86-1.62-1.29-.76z" fill="#ffdbaf" data-color="1"/>
        <path d="m147.16 60.89-4 4.67c-.63.73.43 1.79 1.06 1.06l4-4.67c.62-.73-.44-1.79-1.06-1.06z" fill="#ffdbaf" data-color="1"/>
        <path d="M144.34 55 142 58.34c-.56.79.74 1.54 1.3.76l2.34-3.33c.56-.79-.74-1.54-1.29-.76z" fill="#ffdbaf" data-color="1"/>
        <path d="m135.32 70.35-2.25 5c-.39.87.9 1.64 1.29.76l2.26-5c.39-.87-.9-1.63-1.3-.75z" fill="#ffdbaf" data-color="1"/>
        <path d="m142.05 75-2 4c-.43.86.87 1.62 1.3.76.66-1.33 1.33-2.67 2-4 .42-.86-.87-1.62-1.3-.76z" fill="#ffdbaf" data-color="1"/>
        <path d="m146 83-2.27 5.36c-.37.88.92 1.64 1.3.75l2.27-5.36c.37-.87-.92-1.64-1.3-.75z" fill="#ffdbaf" data-color="1"/>
        <path d="M137.3 95.21c-.32 1.12-.65 2.23-1 3.34a.75.75 0 0 0 1.45.4c.33-1.11.65-2.23 1-3.34a.75.75 0 0 0-1.45-.4z" fill="#ffdbaf" data-color="1"/>
        <path d="M133.31 86.22c-.42 1.34-.85 2.68-1.27 4-.29.92 1.16 1.31 1.45.39.42-1.34.84-2.68 1.27-4 .29-.92-1.16-1.31-1.45-.39z" fill="#ffdbaf" data-color="1"/>
        <path d="m127.6 92.53-1.37 5a.75.75 0 0 0 1.45.4c.45-1.67.91-3.33 1.36-5a.75.75 0 0 0-1.44-.4z" fill="#ffdbaf" data-color="1"/>
        <path d="M131.34 102.22c-.24 1.22-.49 2.43-.74 3.65-.19.94 1.25 1.35 1.45.4.24-1.22.49-2.44.74-3.65.19-.94-1.25-1.35-1.45-.4z" fill="#ffdbaf" data-color="1"/>
        <path d="m156 97.68-2.34 4a.75.75 0 0 0 1.3.76l2.33-4a.75.75 0 0 0-1.29-.76z" fill="#ffdbaf" data-color="1"/>
        <path d="M154.13 94a13.17 13.17 0 0 0-3.51 1.41.75.75 0 0 0 .76 1.3 11.48 11.48 0 0 1 3.15-1.26c.94-.22.54-1.67-.4-1.45z" fill="#ffdbaf" data-color="1"/>
        <path d="M150 101.7a12.07 12.07 0 0 1-4.08 3.36c-.86.44-.1 1.73.75 1.29a13.72 13.72 0 0 0 4.63-3.9c.59-.76-.71-1.51-1.3-.75z" fill="#ffdbaf" data-color="1"/>
        <path d="M144.26 13.2c-.23 1.67-.46 3.33-.7 5-.13.94 1.32 1.35 1.45.4l.69-5c.13-.94-1.31-1.35-1.44-.4z" fill="#ffdbaf" data-color="1"/>
        <path d="M147.68 11.12a22.28 22.28 0 0 1 2.94 5.15c.36.88 1.81.49 1.45-.4a23.65 23.65 0 0 0-3.1-5.5c-.57-.76-1.88 0-1.29.75z" fill="#ffdbaf" data-color="1"/>
        <path d="M151.25 27.4v5.34a.75.75 0 0 0 1.5 0V27.4a.75.75 0 0 0-1.5 0z" fill="#ffdbaf" data-color="1"/>
        <path d="M145.91 27.07a23.36 23.36 0 0 1-.6 5.14c-.22.94 1.22 1.34 1.44.4a24.61 24.61 0 0 0 .66-5.54.75.75 0 0 0-1.5 0z" fill="#ffdbaf" data-color="1"/>
        <path d="m142 37.21-1.67 6.34a.75.75 0 0 0 1.45.39l1.66-6.33a.75.75 0 0 0-1.44-.4z" fill="#ffdbaf" data-color="1"/>
        <path d="M148 39.93a22.81 22.81 0 0 1 .28 5.47c-.06 1 1.44 1 1.5 0a24.47 24.47 0 0 0-.33-5.86c-.17-.95-1.62-.55-1.45.39z" fill="#ffdbaf" data-color="1"/>
        <path d="M135.59 51.53a43.74 43.74 0 0 1-2.17 5.53c-.41.87.88 1.63 1.29.75a45.22 45.22 0 0 0 2.29-5.88c.29-.92-1.15-1.31-1.45-.4z" fill="#ffdbaf" data-color="1"/>
        <path d="m131 63-1 1.66a.75.75 0 0 0 1.29.76l1-1.67A.75.75 0 0 0 131 63z" fill="#ffdbaf" data-color="1"/>
        <path d="M58.92 9.07v3.67a.75.75 0 0 0 1.5 0V9.07a.75.75 0 0 0-1.5 0z" fill="#ffdbaf" data-color="1"/>
        <path d="m61 18.12 1 2c.43.86 1.73.1 1.29-.76l-1-2c-.43-.86-1.72-.11-1.29.76z" fill="#ffdbaf" data-color="1"/>
        <path d="m62 8.78 1.67 2.34c.55.78 1.85 0 1.29-.76S63.87 8.8 63.31 8s-1.85 0-1.31.78z" fill="#ffdbaf" data-color="1"/>
        <path d="M44.58 22.87q-.53 3-1 6c-.17.94 1.28 1.35 1.44.4l1.05-6c.16-.95-1.29-1.35-1.45-.4z" fill="#ffdbaf" data-color="1"/>
        <path d="m51 30.59 1.94 5.69c.31.91 1.76.52 1.45-.4-.65-1.9-1.3-3.79-1.94-5.69-.32-.91-1.76-.52-1.45.4z" fill="#ffdbaf" data-color="1"/>
        <path d="m53 47.93 1 4.67c.21.94 1.65.54 1.45-.4l-1-4.67c-.2-.94-1.65-.54-1.45.4z" fill="#ffdbaf" data-color="1"/>
        <path d="M42.93 41.94c.33 2 .65 4 1 6 .15 1 1.6.55 1.44-.4-.32-2-.65-4-1-6-.15-.95-1.6-.55-1.45.4z" fill="#ffdbaf" data-color="1"/>
        <path d="m45.73 60.43 2.88 6.06c.41.87 1.71.11 1.3-.76L47 59.67c-.42-.87-1.71-.11-1.3.76z" fill="#ffdbaf" data-color="1"/>
        <path d="m57 64.44 4 5.69c.55.78 1.85 0 1.3-.76l-4-5.69c-.55-.78-1.85 0-1.29.76z" fill="#ffdbaf" data-color="1"/>
        <path d="M58.42 45.42c.45 1 .89 2 1.33 3s1.68.12 1.3-.76-.89-2-1.33-3-1.68-.12-1.3.76z" fill="#ffdbaf" data-color="1"/>
        <path d="m46.8 19.6 2.34 2c.73.63 1.79-.43 1.06-1.06l-2.34-2c-.73-.62-1.79.43-1.06 1.06z" fill="#ffdbaf" data-color="1"/>
        <path d="M38.58 32.53c-.34 1.56-.67 3.11-1 4.67-.2.94 1.24 1.34 1.45.4.33-1.56.67-3.11 1-4.67.2-.94-1.25-1.34-1.45-.4z" fill="#ffdbaf" data-color="1"/>
        <path d="M40.25 51.74a15.82 15.82 0 0 0 .7 5.2c.28.92 1.73.52 1.44-.4a14.72 14.72 0 0 1-.64-4.8.75.75 0 0 0-1.5 0z" fill="#ffdbaf" data-color="1"/>
        <path d="M50.34 75.46a48.8 48.8 0 0 1 3.41 6c.42.87 1.71.11 1.3-.76a50.14 50.14 0 0 0-3.41-6c-.53-.8-1.83 0-1.3.76z" fill="#ffdbaf" data-color="1"/>
        <path d="M62.82 80.25c1.13 1.32 2.25 2.65 3.37 4 .63.74 1.69-.33 1.06-1.06-1.12-1.32-2.24-2.65-3.37-4-.62-.74-1.68.33-1.06 1.06z" fill="#ffdbaf" data-color="1"/>
        <path d="m61.72 58.77 1.34 2.32a.75.75 0 0 0 1.3-.75L63 58a.75.75 0 0 0-1.29.76z" fill="#ffdbaf" data-color="1"/>
        <path d="m70.71 93.77 3 4c.57.77 1.87 0 1.3-.76l-3-4c-.56-.77-1.86 0-1.29.76z" fill="#ffdbaf" data-color="1"/>
        <path d="M56.34 88.59a14.85 14.85 0 0 0 3.75 6.72c.68.7 1.74-.37 1.06-1.06a13.19 13.19 0 0 1-3.36-6.06c-.23-.94-1.68-.54-1.45.4z" fill="#ffdbaf" data-color="1"/>
        <path d="m66.29 98.6 2 5.33c.34.89 1.79.51 1.45-.4-.67-1.78-1.35-3.55-2-5.33-.34-.89-1.79-.51-1.44.4z" fill="#ffdbaf" data-color="1"/>
        <path d="M15 30.4a7.07 7.07 0 0 0 1.76 4.6c.64.73 1.69-.33 1.06-1.06a5.47 5.47 0 0 1-1.35-3.51c0-1-1.53-1-1.5 0z" fill="#ffdbaf" data-color="1"/>
        <path d="M19.63 29 24 32c.8.55 1.55-.75.76-1.29l-4.33-3c-.8-.56-1.55.74-.76 1.29z" fill="#ffdbaf" data-color="1"/>
        <path d="M26.13 37.61a20.51 20.51 0 0 1 3.68 3.65c.6.76 1.65-.31 1.06-1.06a20.51 20.51 0 0 0-3.68-3.65c-.75-.59-1.82.47-1.06 1.06z" fill="#ffdbaf" data-color="1"/>
        <path d="m22.13 41.27 3 2.67c.72.64 1.78-.41 1.06-1.06l-3-2.67c-.72-.64-1.78.42-1.06 1.06z" fill="#ffdbaf" data-color="1"/>
        <path d="m30.14 49.93 3 2.67c.72.64 1.78-.42 1.06-1.06l-3-2.67c-.72-.64-1.79.42-1.06 1.06z" fill="#ffdbaf" data-color="1"/>
        <path d="M6.36 60.92a11.92 11.92 0 0 0 2.73 5.39c.64.73 1.7-.34 1.06-1.06a10.51 10.51 0 0 1-2.35-4.73c-.2-.94-1.65-.54-1.44.4z" fill="#ffdbaf" data-color="1"/>
        <path d="M15.14 55.78a8.46 8.46 0 0 1 5.28 2.86c.64.73 1.7-.33 1.06-1.06a9.76 9.76 0 0 0-6-3.25c-.94-.14-1.35 1.31-.39 1.45z" fill="#ffdbaf" data-color="1"/>
        <path d="m24.47 66.93 4.33 5c.64.74 1.69-.33 1.06-1.06l-4.33-5c-.63-.73-1.69.34-1.06 1.06z" fill="#ffdbaf" data-color="1"/>
        <path d="m17.14 68.6 3.37 4c.63.74 1.69-.33 1.07-1.06l-3.38-4c-.63-.74-1.68.33-1.06 1.06z" fill="#ffdbaf" data-color="1"/>
        <path d="m23.82 80.58 5.34 4.66c.73.63 1.79-.43 1.06-1.06l-5.34-4.66c-.73-.63-1.79.43-1.06 1.06z" fill="#ffdbaf" data-color="1"/>
        <path d="m32.47 80.93 5.33 4.67c.73.63 1.79-.42 1.06-1.06l-5.33-4.67c-.72-.63-1.79.43-1.06 1.06z" fill="#ffdbaf" data-color="1"/>
        <path d="M36.14 75.6q2 2.18 4 4.33c.65.72 1.71-.35 1.06-1.06q-2-2.16-4-4.33c-.66-.71-1.72.35-1.06 1.06z" fill="#ffdbaf" data-color="1"/>
        <path d="m12.14 73.93 2 2c.68.69 1.74-.37 1.06-1.06l-2-2c-.69-.68-1.75.38-1.06 1.06z" fill="#ffdbaf" data-color="1"/>
        <path d="m35.8 94.93 3.67 3.67a.75.75 0 0 0 1.06-1.06l-3.67-3.67a.75.75 0 0 0-1.06 1.06z" fill="#ffdbaf" data-color="1"/>
        <path d="M44.13 91.61A12.17 12.17 0 0 0 48 94.37c.87.4 1.64-.9.76-1.3a11.18 11.18 0 0 1-3.53-2.52c-.66-.71-1.72.35-1.06 1.06z" fill="#ffdbaf" data-color="1"/>
        <path d="m46.8 99.94 3.32 3.67c.65.72 1.71-.34 1.07-1.06l-3.33-3.67c-.65-.72-1.71.35-1.06 1.06z" fill="#ffdbaf" data-color="1"/>
        <path d="m22.45 99.63 2 1.67c.74.61 1.81-.44 1.07-1.06l-2-1.67c-.74-.62-1.81.44-1.06 1.06z" fill="#ffdbaf" data-color="1"/>
        <path d="m22.49 96.07 2.68 1c.9.33 1.3-1.12.39-1.45l-2.67-1c-.91-.33-1.31 1.12-.4 1.44z" fill="#ffdbaf" data-color="1"/>
        <path d="M28 101.4a29.68 29.68 0 0 1 4.4 2.56c.8.55 1.55-.75.76-1.3a28.87 28.87 0 0 0-4.41-2.55c-.86-.41-1.63.88-.75 1.29z" fill="#ffdbaf" data-color="1"/>
    </g>
</svg>
