<?xml version="1.0" encoding="UTF-8"?>
<svg data-bbox="0.02 -0.012 151.702 266.2" viewBox="0 0 151.68 266.21" xmlns="http://www.w3.org/2000/svg" data-type="color">
    <g>
        <path d="M44.55 79.67a201.48 201.48 0 0 1 16.82 78.9 1.5 1.5 0 0 0 3 0 205.25 205.25 0 0 0-17.23-80.41c-.77-1.77-3.35-.24-2.59 1.51z" fill="#829a5b" data-color="1"/>
        <path d="M44.86 80.42c12.07 8.44 18.3 22 22.52 35.64 4.52 14.64 8.74 29.81 10.54 45 .23 1.9 3.23 1.92 3 0-2-16.6-6.44-33.35-11.72-49.2C64.77 98.61 58.09 86 46.38 77.83c-1.59-1.1-3.09 1.5-1.52 2.59z" fill="#829a5b" data-color="1"/>
        <path d="M17.1 165.54c15.47-4.73 31.57-4.76 47.56-3.6 7.64.55 15.26 1.33 22.89 2.05s16.35.49 23.35 4.33c1.69.93 3.21-1.66 1.51-2.59-6.06-3.32-12.62-3.59-19.37-4.22-8.84-.84-17.68-1.74-26.54-2.43-16.85-1.31-33.88-1.42-50.2 3.56-1.84.57-1.05 3.46.8 2.9z" fill="#829a5b" data-color="1"/>
        <path d="M15.2 164.09a211.75 211.75 0 0 0 10.57 93.69c.65 1.8 3.55 1 2.9-.8a209.49 209.49 0 0 1-10.47-92.89c.21-1.92-2.79-1.9-3 0z" fill="#829a5b" data-color="1"/>
        <path d="M111 168c2.12 7.38 1.36 14.81.41 22.31-1 8.15-2.21 16.29-3.62 24.38a249 249 0 0 1-11.41 43.66c-.67 1.81 2.22 2.6 2.89.8a255.94 255.94 0 0 0 12-47.3c1.23-7.45 2.27-14.93 3.22-22.42s1.48-14.89-.63-22.23a1.5 1.5 0 0 0-2.89.8z" fill="#829a5b" data-color="1"/>
        <path d="M26.82 258.82c11.83 2.6 23.77 6 35.86 7.1a74.18 74.18 0 0 0 35.52-5.73c1.75-.74 1-3.65-.8-2.9a72 72 0 0 1-34.72 5.63c-11.8-1.09-23.51-4.45-35.06-7-1.88-.41-2.69 2.48-.8 2.89z" fill="#829a5b" data-color="1"/>
        <path d="M79 149.24a51.56 51.56 0 0 1 25-31.5c14.11-7.58 30.66-7.31 46.22-7.06-.36-.85-.71-1.71-1.06-2.56-9.66 11.36-18.73 23.67-31 32.35-11.44 8.06-24.46 13.38-37.83 17.28-1.85.54-1.06 3.44.8 2.89 13.59-4 26.91-9.38 38.54-17.58 12.54-8.85 21.79-21.23 31.64-32.82a1.52 1.52 0 0 0-1.06-2.56c-16.59-.27-34.19-.37-49 8.18a54.7 54.7 0 0 0-25.07 32.59 1.5 1.5 0 0 0 2.89.79z" fill="#829a5b" data-color="1"/>
        <path d="M63.77 147.24c-14.54-20.73-35.83-32.08-58.2-42.66-.9-.42-2.41.06-2.26 1.3.9 7.56 1.48 15.12 4.45 22.21a50.88 50.88 0 0 0 11.64 16.84c10.93 10.51 25.68 15.54 40.6 16.51 1.93.12 1.92-2.88 0-3-14.13-.92-28.12-5.69-38.48-15.63A48.17 48.17 0 0 1 11 128c-3.16-7-3.76-14.57-4.66-22.12l-2.26 1.3c21.79 10.31 42.92 21.33 57.1 41.57 1.1 1.57 3.7.07 2.59-1.51z" fill="#829a5b" data-color="1"/>
        <path d="M64.91 102.17c2.33-13.27 11.6-23.36 22.92-30a110.64 110.64 0 0 1 18.64-8.32c4.66-1.7 9-3.49 12.81-6.8l-2.36-1.82c-5.56 11.55-10.25 24.91-18.77 34.66A46.77 46.77 0 0 1 67 105.37c-1.91.17-1.93 3.17 0 3A50.05 50.05 0 0 0 98.16 94.2c10.15-10.09 15.25-24.83 21.36-37.49a1.51 1.51 0 0 0-2.36-1.82c-5.44 4.79-12.93 6.35-19.49 9.08a81.48 81.48 0 0 0-17.18 9.41C71.18 80.23 64 89.85 62 101.38c-.33 1.88 2.56 2.69 2.89.79z" fill="#829a5b" data-color="1"/>
        <path d="M55.44 102.26C46.92 81.5 21.08 74.28 1.92 67a1.51 1.51 0 0 0-1.84 1.88c4.08 10.49 9.76 23.34 19.55 29.7s22.93 11.46 34.69 8.3a1.5 1.5 0 0 0-.79-2.9c-10.92 2.94-23.24-2-32.38-8C12.17 90.12 6.72 77.72 3 68.08l-1.87 1.85C11 73.66 21 77.44 30.43 82.15s18 11 22.11 20.91c.73 1.76 3.63 1 2.9-.8z" fill="#829a5b" data-color="1"/>
        <path d="M48.81 79.88c-3.81-5.09-8.73-9.07-12.92-13.82a57.73 57.73 0 0 1-11.45-20C22 38.64 21 30.87 22.84 23.16c1.79-7.34 5.12-14.33 8-21.3h-2.92c2.44 6.08 7.13 10 11.89 14.24a48.37 48.37 0 0 1 13.54 19.65 45.92 45.92 0 0 1 1.76 24.69 46.37 46.37 0 0 1-4.46 12.44c-1.44 2.69-3.31 5.1-4.24 8-.59 1.85 2.3 2.64 2.89.8 1.21-3.8 4-7.07 5.58-10.74a49.9 49.9 0 0 0 3.44-11.41A48.9 48.9 0 0 0 57.23 38a50 50 0 0 0-9.76-18.4C42.16 13.26 34 9 30.81 1.06a1.51 1.51 0 0 0-2.89 0C24.75 8.82 20.86 16.68 19.37 25a43.85 43.85 0 0 0 1.68 20.33A60.67 60.67 0 0 0 30.42 64c4.69 6.33 11.08 11.08 15.8 17.37 1.14 1.52 3.75 0 2.59-1.52z" fill="#829a5b" data-color="1"/>
        <path d="M15.65 165.45a86.45 86.45 0 0 0 6.68 19.06 1.52 1.52 0 0 0 2.59 0L36.57 164a1.5 1.5 0 0 0-2.57-1.51Q28.16 172.74 22.33 183h2.59a83.25 83.25 0 0 1-6.38-18.34c-.42-1.88-3.31-1.08-2.89.8z" fill="#829a5b" data-color="1"/>
        <path d="M34.41 162c1.94 5.48 4 10.89 6.34 16.22.92 2.13 2.43 8.85 5.93 8.25 3-.5 4.77-6.7 5.9-8.94 2.55-5.07 4.8-10.28 6.85-15.57.7-1.81-2.2-2.59-2.89-.8-.56 1.44-9.33 22.63-10.47 22.19 0 0-1.12-3-1.36-3.53q-1.66-3.71-3.19-7.47c-1.5-3.68-2.89-7.4-4.21-11.15-.64-1.81-3.54-1-2.9.8z" fill="#829a5b" data-color="1"/>
        <path d="M57.8 161.87c1.9 4.82 4 9.57 6.29 14.2 1 2.08 2.82 8.15 5.92 8.2 2.72 0 4.84-4.82 5.94-6.58a76.44 76.44 0 0 0 6.67-13.85c.67-1.81-2.23-2.59-2.9-.79a73.77 73.77 0 0 1-4.47 9.89c-.39.71-4.18 8.13-5.22 8-1.24-.2-3.86-7.36-4.41-8.5-1.79-3.71-3.42-7.5-4.93-11.34-.7-1.77-3.6-1-2.89.8z" fill="#829a5b" data-color="1"/>
        <path d="m81.18 164.05 4.35 16.53c.63 2.43 1.08 6.85 4.58 6.13 3.09-.64 5.72-5.53 7.4-8a71.17 71.17 0 0 0 6.61-12.39c.75-1.78-2.15-2.56-2.89-.8a68.33 68.33 0 0 1-4.74 9.25c-.83 1.34-4.52 8.27-6.16 8.39-2.09.16-2.73-6.5-3.21-8.34q-1.53-5.77-3-11.56a1.5 1.5 0 0 0-2.9.79z" fill="#829a5b" data-color="1"/>
        <path d="M101.86 166.53a72.39 72.39 0 0 0 9.54 18.15c1.12 1.54 3.72 0 2.59-1.52a69 69 0 0 1-9.23-17.42c-.65-1.81-3.55-1-2.9.79z" fill="#829a5b" data-color="1"/>
        <path d="M20 192.07c.17 1.5.34 3 .5 4.5a1.54 1.54 0 0 0 1.5 1.5 1.51 1.51 0 0 0 1.5-1.5c-.16-1.5-.33-3-.5-4.5a1.54 1.54 0 0 0-1.5-1.5 1.51 1.51 0 0 0-1.5 1.5z" fill="#829a5b" data-color="1"/>
        <path d="M21.5 207.57a8.3 8.3 0 0 0 1.15 4.79 1.5 1.5 0 0 0 2.59-1.52 5.41 5.41 0 0 1-.74-3.27 1.5 1.5 0 0 0-3 0z" fill="#829a5b" data-color="1"/>
        <path d="M25 223.47c.17 1.17.33 2.33.5 3.5a1.5 1.5 0 1 0 2.89-.8c-.16-1.16-.33-2.33-.5-3.5a1.5 1.5 0 0 0-1.84-1 1.54 1.54 0 0 0-1.05 1.8z" fill="#829a5b" data-color="1"/>
        <path d="m29.17 237.84 1.5 3.5a1.52 1.52 0 0 0 2 .54 1.55 1.55 0 0 0 .54-2.06l-1.5-3.5a1.51 1.51 0 0 0-2.05-.54 1.55 1.55 0 0 0-.54 2.06z" fill="#829a5b" data-color="1"/>
        <path d="M32.49 252c.16.84.33 1.67.49 2.5a1.5 1.5 0 1 0 2.89-.79c-.16-.84-.33-1.67-.49-2.51a1.5 1.5 0 0 0-2.89.8z" fill="#829a5b" data-color="1"/>
        <path d="M45 190.07v4a1.5 1.5 0 0 0 3 0v-4a1.5 1.5 0 0 0-3 0z" fill="#829a5b" data-color="1"/>
        <path d="M45.56 204.18a6.16 6.16 0 0 0 .6 4.17 1.52 1.52 0 0 0 2.05.54 1.54 1.54 0 0 0 .54-2 2.88 2.88 0 0 1-.3-1.86 1.53 1.53 0 0 0-1.05-1.85 1.51 1.51 0 0 0-1.84 1.05z" fill="#829a5b" data-color="1"/>
        <path d="m45.54 220.57.5 4.5a1.54 1.54 0 0 0 1.5 1.5 1.51 1.51 0 0 0 1.5-1.5l-.5-4.5a1.53 1.53 0 0 0-1.5-1.5 1.51 1.51 0 0 0-1.5 1.5z" fill="#829a5b" data-color="1"/>
        <path d="M46 236.07c-.17 1.66-.35 3.33-.53 5a1.5 1.5 0 0 0 3 0c.18-1.67.36-3.34.53-5a1.5 1.5 0 0 0-1.5-1.5 1.54 1.54 0 0 0-1.5 1.5z" fill="#829a5b" data-color="1"/>
        <path d="M45 251.07v3a1.5 1.5 0 0 0 3 0v-3a1.5 1.5 0 0 0-3 0z" fill="#829a5b" data-color="1"/>
        <path d="M46 260.07a1.5 1.5 0 0 0 0-3 1.5 1.5 0 0 0 0 3z" fill="#829a5b" data-color="1"/>
        <path d="M67.63 190.19c-.16 1-.33 2-.5 3a1.54 1.54 0 0 0 1.05 1.81 1.5 1.5 0 0 0 1.82-1l.51-3a1.55 1.55 0 0 0-1-1.85 1.52 1.52 0 0 0-1.85 1.05z" fill="#829a5b" data-color="1"/>
        <path d="M66.49 205.07v3a1.5 1.5 0 0 0 3 0v-3a1.5 1.5 0 0 0-3 0z" fill="#829a5b" data-color="1"/>
        <path d="M65 215.57v2a1.5 1.5 0 0 0 3 0v-2a1.5 1.5 0 0 0-3 0z" fill="#829a5b" data-color="1"/>
        <path d="M64.45 228.57c-.17 1.33-.34 2.66-.5 4a1.51 1.51 0 0 0 1.5 1.5 1.54 1.54 0 0 0 1.5-1.5c.16-1.34.33-2.67.5-4a1.51 1.51 0 0 0-1.5-1.5 1.53 1.53 0 0 0-1.5 1.5z" fill="#829a5b" data-color="1"/>
        <path d="M65 240.57a1.5 1.5 0 0 0 0-3 1.5 1.5 0 0 0 0 3z" fill="#829a5b" data-color="1"/>
        <path d="M62.49 249.57v2.5a1.5 1.5 0 1 0 3 0v-2.5a1.5 1.5 0 1 0-3 0z" fill="#829a5b" data-color="1"/>
        <path d="M62.49 262.07a1.5 1.5 0 0 0 0-3 1.5 1.5 0 0 0 0 3z" fill="#829a5b" data-color="1"/>
        <path d="M88 192.17q-.42 2.78-.85 5.53a1.55 1.55 0 0 0 1 1.84 1.51 1.51 0 0 0 1.85-1l.84-5.52a1.53 1.53 0 0 0-1-1.84 1.5 1.5 0 0 0-1.85 1z" fill="#829a5b" data-color="1"/>
        <path d="M87 205.17c-.17 1.17-.33 2.34-.5 3.5a1.56 1.56 0 0 0 1 1.85 1.51 1.51 0 0 0 1.84-1.05c.17-1.17.34-2.33.5-3.5a1.53 1.53 0 0 0-1-1.84 1.51 1.51 0 0 0-1.85 1z" fill="#829a5b" data-color="1"/>
        <path d="M84.47 218.08a5.11 5.11 0 0 1-.74 3.26c-1 1.65 1.58 3.16 2.59 1.51a7.77 7.77 0 0 0 1.15-4.77 1.54 1.54 0 0 0-1.5-1.5 1.5 1.5 0 0 0-1.5 1.5z" fill="#829a5b" data-color="1"/>
        <path d="M84.49 231.07a1.5 1.5 0 0 0 0-3 1.5 1.5 0 0 0 0 3z" fill="#829a5b" data-color="1"/>
        <path d="M80.49 242.57a1.5 1.5 0 0 0 0-3 1.5 1.5 0 0 0 0 3z" fill="#829a5b" data-color="1"/>
        <path d="M78 251.48a7.49 7.49 0 0 1-.39 3.72c-.63 1.83 2.27 2.62 2.9.8a10.79 10.79 0 0 0 .39-5.32 1.53 1.53 0 0 0-1.85-1.05 1.55 1.55 0 0 0-1 1.85z" fill="#829a5b" data-color="1"/>
        <path d="M78 262.57a1.5 1.5 0 0 0 0-3 1.5 1.5 0 0 0 0 3z" fill="#829a5b" data-color="1"/>
        <path d="M107 192.16c-.34 1.34-.67 2.67-1 4-.47 1.88 2.42 2.68 2.89.8.33-1.33.67-2.67 1-4 .47-1.87-2.42-2.67-2.89-.8z" fill="#829a5b" data-color="1"/>
        <path d="M105 203.17c-.17 1.17-.33 2.34-.5 3.5a1.56 1.56 0 0 0 1 1.85 1.51 1.51 0 0 0 1.84-1.05c.17-1.17.34-2.33.5-3.5a1.53 1.53 0 0 0-1-1.84 1.51 1.51 0 0 0-1.85 1z" fill="#829a5b" data-color="1"/>
        <path d="M101.5 217.57a14.84 14.84 0 0 1-1 4.6c-.68 1.8 2.22 2.59 2.89.79a17.07 17.07 0 0 0 1.09-5.39c.09-1.93-2.91-1.92-3 0z" fill="#829a5b" data-color="1"/>
        <path d="M101.49 233.07a1.5 1.5 0 0 0 0-3 1.5 1.5 0 0 0 0 3z" fill="#829a5b" data-color="1"/>
        <path d="M97 243.17c-.17 1.17-.33 2.34-.5 3.5a1.56 1.56 0 0 0 1 1.85 1.51 1.51 0 0 0 1.84-1.05c.17-1.17.34-2.33.5-3.5a1.53 1.53 0 0 0-1-1.84 1.51 1.51 0 0 0-1.85 1z" fill="#829a5b" data-color="1"/>
        <path d="m94.11 255.69-.48 2a1.5 1.5 0 0 0 2.89.79l.48-2a1.5 1.5 0 1 0-2.89-.8z" fill="#829a5b" data-color="1"/>
        <path d="M66.32 104.31a66.65 66.65 0 0 1 39.85-33.58l-.85-1.1C95.28 83.74 83 97.35 66 102.68c-.92.28-.52 1.73.4 1.44 17.42-5.45 30-19.28 40.24-33.74.39-.54-.25-1.28-.84-1.1A68.09 68.09 0 0 0 65 103.55c-.44.86.85 1.62 1.29.76z" fill="#829a5b" data-color="1"/>
        <path d="M48.86 82.07C47.55 71.4 40.37 63.4 35.23 54.38c-6.95-12.19-6.9-26-3.63-39.29l-1.25.33A66.67 66.67 0 0 1 47.47 78.6a.75.75 0 0 0 1.45.39 68.22 68.22 0 0 0-17.51-64.63.75.75 0 0 0-1.25.33c-2.85 11.59-3.61 24.14 1.2 35.31 4.72 11 14.49 19.74 16 32 .12 1 1.62 1 1.5 0z" fill="#829a5b" data-color="1"/>
        <path d="M48.11 80.08a71.15 71.15 0 0 0-5.24-22.64C39.29 48.91 32.72 40.35 36 30.66l-1.37.18a82.49 82.49 0 0 1 11.43 45.21c0 1 1.46 1 1.5 0a84.07 84.07 0 0 0-11.64-46 .76.76 0 0 0-1.37.18c-2.62 7.73.76 15 4.19 21.9a72.89 72.89 0 0 1 7.87 27.91c.06 1 1.56 1 1.5 0z" fill="#829a5b" data-color="1"/>
        <path d="M79.36 154.34a63.22 63.22 0 0 1 56.91-36c-.18-.43-.35-.86-.53-1.28a257.81 257.81 0 0 1-27.83 24.59c-4.8 3.56-10 6.75-15.73 8.48-4.82 1.44-9.79 2-14.33 4.26-.86.44-.11 1.73.75 1.3 5.55-2.81 11.91-3.07 17.64-5.42a60 60 0 0 0 13.47-8.12 272.17 272.17 0 0 0 27.09-24 .76.76 0 0 0-.53-1.28 64.69 64.69 0 0 0-58.2 36.79c-.41.87.89 1.63 1.29.76z" fill="#829a5b" data-color="1"/>
        <path d="M80.08 154.51a132 132 0 0 1 17.08-16.26q4.94-3.88 10.23-7.3c3.57-2.29 7.79-5.57 12.23-5-.18-.42-.35-.85-.53-1.28a101.06 101.06 0 0 1-39.34 27c-.89.34-.5 1.79.4 1.45a102.75 102.75 0 0 0 40-27.42.76.76 0 0 0-.53-1.28c-3.88-.5-7.09 1.57-10.28 3.51a128.5 128.5 0 0 0-11.07 7.55A133.5 133.5 0 0 0 79 153.45c-.64.73.42 1.79 1.06 1.06z" fill="#829a5b" data-color="1"/>
        <path d="M62.15 157.79c-10.7-3.29-21.75-6.69-30.65-13.74a37.54 37.54 0 0 1-10-11.71c-2.34-4.44-3-9.52-5.48-13.88l-1 1c16.59 8.17 35.1 15.58 47.06 30.31.61.75 1.67-.31 1.07-1.06C51 133.9 32.42 126.43 15.71 118.19a.75.75 0 0 0-1 1c2.79 4.85 3.42 10.55 6.33 15.4a40 40 0 0 0 9.56 10.62c9.07 7.17 20.29 10.65 31.17 14 .92.29 1.32-1.16.4-1.45z" fill="#829a5b" data-color="1"/>
        <path d="M63.17 154.91a69.69 69.69 0 0 1-37.49-27.24l-1 1c7.67 3.45 15.13 6.43 21.75 11.69 4.86 3.85 12.37 6.57 14.33 12.93.28.92 1.73.53 1.44-.4-2-6.33-8.39-8.85-13.3-12.51-3.23-2.41-6.14-5-9.78-6.82-4.48-2.21-9.12-4.13-13.68-6.18-.61-.27-1.5.34-1 1a71.29 71.29 0 0 0 38.39 27.92.75.75 0 0 0 .4-1.44z" fill="#829a5b" data-color="1"/>
        <path d="M53.26 102.67c-17 .46-29-12.52-39.11-24.47l-.91 1.18C20.5 83 27.8 86.58 35 90.28c6.23 3.18 12.38 6.79 16.25 12.81.52.81 1.82.06 1.3-.76-3.6-5.59-9-9.23-14.77-12.3C30 85.86 21.94 82.05 14 78.09a.75.75 0 0 0-.9 1.17c10.35 12.27 22.8 25.38 40.17 24.91a.75.75 0 0 0 0-1.5z" fill="#829a5b" data-color="1"/>
    </g>
</svg>
