<?xml version="1.0" encoding="UTF-8"?>
<svg data-bbox="-0.014 -0.07 3.514 2.851" viewBox="0 0 3.5 2.81" xmlns="http://www.w3.org/2000/svg" data-type="color">
    <g>
        <g>
            <path d="M1.63 2.71a1.74 1.74 0 0 1-.92-.52 1.87 1.87 0 0 1-.58-.88A1 1 0 0 1 .29.39a.82.82 0 0 1 .85-.25.83.83 0 0 1 .56.7.24.24 0 0 1 0 .16h.08A.94.94 0 0 1 2.3.16a.66.66 0 0 1 .48-.07.83.83 0 0 1 .43.23.73.73 0 0 1 .21.42 1.06 1.06 0 0 1-.14.6 2.85 2.85 0 0 1-.67.83 2.89 2.89 0 0 1-.94.52h-.13c-.05 0 0 .1 0 .09a2.8 2.8 0 0 0 1-.51 2.85 2.85 0 0 0 .72-.86A1.26 1.26 0 0 0 3.5.82a.77.77 0 0 0-.18-.48A1 1 0 0 0 2.89 0a.84.84 0 0 0-.52 0 1 1 0 0 0-.65.78v.13c0 .05.07.05.08 0a.92.92 0 0 0-.51-.78.91.91 0 0 0-.95.11 1 1 0 0 0-.34.93 1.78 1.78 0 0 0 .52 1 2 2 0 0 0 1 .6h.14v-.06z" fill="#86aea5" data-color="1"/>
            <path d="m.68 2.27.22-.21.22-.19a5.6 5.6 0 0 1 .49-.36A4.71 4.71 0 0 1 2.69 1L3 .88l.17-.05h.17V.78A1.63 1.63 0 0 0 3 .81l-.26.08-.57.23a5.69 5.69 0 0 0-1 .65L.89 2a2.73 2.73 0 0 0-.23.25z" fill="#86aea5" data-color="1"/>
            <path d="M1 2.4h.05l.1-.09.21-.17a4.4 4.4 0 0 1 .45-.3 5.69 5.69 0 0 1 .95-.49c.19-.07.38-.14.57-.19s0-.07 0-.06a5.89 5.89 0 0 0-1.08.42 7 7 0 0 0-1 .62L1 2.27v.11c0 .04.06.06.07 0z" fill="#86aea5" data-color="1"/>
            <path d="m1.32 2.57.09-.08a3.28 3.28 0 0 1 .38-.27 4.27 4.27 0 0 1 .82-.43l.5-.16v-.05a4.36 4.36 0 0 0-.79.28 4.42 4.42 0 0 0-.72.43l-.18.14s-.19.15-.18.17z" fill="#86aea5" data-color="1"/>
            <path d="m.52 2 .24-.21.24-.22a5.74 5.74 0 0 1 .5-.36A5.29 5.29 0 0 1 2.63.68a5.16 5.16 0 0 1 .67-.2s0-.06 0 0a5.56 5.56 0 0 0-1.19.4 6 6 0 0 0-1.11.6 3.23 3.23 0 0 0-.27.23A3.07 3.07 0 0 0 .5 2z" fill="#86aea5" data-color="1"/>
            <path d="m.31 1.75.26-.22a2.65 2.65 0 0 1 .26-.21A4.81 4.81 0 0 1 1.38 1l.17-.14h.16-.08L1.54.8l-.15.08-.29.18a5.39 5.39 0 0 0-.54.4c-.09.09-.19.17-.27.26s0 .05 0 0z" fill="#86aea5" data-color="1"/>
            <path d="M1.76.73c.15-.08.29-.17.44-.24a4.69 4.69 0 0 1 .46-.21L2.8.23h.06L2.8.17h-.12l-.24.14L2 .55l-.25.16z" fill="#86aea5" data-color="1"/>
            <path d="M.16 1.36A6.53 6.53 0 0 1 1.27.58L1.61.4s0-.06 0 0a6.34 6.34 0 0 0-1.17.72l-.3.24s0 .06 0 0z" fill="#86aea5" data-color="1"/>
            <path d="M.12.91.05.94.17.9.29.81.52.64A4.76 4.76 0 0 1 1 .36l.3-.13V.18a5 5 0 0 0-1 .56l-.14.1L.1.89 0 1a.12.12 0 0 1 .05 0z" fill="#86aea5" data-color="1"/>
            <path d="M.16.55a.1.1 0 0 0 0 .07V.8a.21.21 0 0 0 0 .08A.24.24 0 0 0 .15.8V.63a.11.11 0 0 0 0-.08z" fill="#86aea5" data-color="1"/>
            <path d="M.25.4a1.2 1.2 0 0 0 0 .2A1.23 1.23 0 0 0 .2.79v-.2a.66.66 0 0 0 0-.2z" fill="#86aea5" data-color="1"/>
            <path d="M.33.32v.36a.13.13 0 0 0 0 .06s0-.05 0 0V.32z" fill="#86aea5" data-color="1"/>
            <path d="M.45.22v.11a.49.49 0 0 1 0 .12v.12A.21.21 0 0 0 .4.68V.22z" fill="#86aea5" data-color="1"/>
            <path d="M.54.24a1 1 0 0 0 0 .17v.17c0 .06 0 0 0 0a.86.86 0 0 0 0-.17 1 1 0 0 0 0-.17z" fill="#86aea5" data-color="1"/>
            <path d="M.64.15C.64.2.63.26.63.32A1.1 1.1 0 0 0 .61.5a.86.86 0 0 0 0-.17 1.09 1.09 0 0 0 0-.18z" fill="#86aea5" data-color="1"/>
            <path d="M.78.1a.61.61 0 0 0-.05.18.22.22 0 0 0 0 .08S.7.43.72.45a.1.1 0 0 0 0-.07V.29a1.16 1.16 0 0 1 0-.18z" fill="#86aea5" data-color="1"/>
            <path d="M.84.11a.77.77 0 0 0 0 .15.17.17 0 0 1 0 .07v.06c0 .06 0 0 0 0a.22.22 0 0 1 0-.08v-.2z" fill="#86aea5" data-color="1"/>
            <path d="M.93.08.9.2a.53.53 0 0 0 0 .12.53.53 0 0 0 0-.12L1 .09z" fill="#86aea5" data-color="1"/>
            <path d="M1 .13a.29.29 0 0 0 0 .09.09.09 0 0 0 0 .09.22.22 0 0 0 0-.08.24.24 0 0 1 0-.08z" fill="#86aea5" data-color="1"/>
            <path d="M1.06.12S1 .23 1 .27V.2a.17.17 0 0 1 0-.07z" fill="#86aea5" data-color="1"/>
            <path d="M.15 1.33a1.09 1.09 0 0 0 0 .25v-.26c0-.09 0 0 0 0z" fill="#86aea5" data-color="1"/>
            <path d="M.25 1.25v.41a.11.11 0 0 0 0 .05v-.23a1.77 1.77 0 0 0 0-.23z" fill="#86aea5" data-color="1"/>
            <path d="M.34 1.23a1.94 1.94 0 0 0 0 .24.49.49 0 0 0 0 .12v.12-.11a.49.49 0 0 0 0-.12v-.25z" fill="#86aea5" data-color="1"/>
            <path d="M.44 1.15v.21a.37.37 0 0 0 0 .11.33.33 0 0 0 0 .1.34.34 0 0 0 0-.1v-.11a1.48 1.48 0 0 0 0-.21z" fill="#86aea5" data-color="1"/>
            <path d="M.58 1v.45c0 .03 0 0 0 0a.23.23 0 0 0 0-.11V.99c0-.08 0 0 0 0z" fill="#86aea5" data-color="1"/>
            <path d="M.67 1a1.64 1.64 0 0 1 0 .23v.12a.36.36 0 0 0 0 .11v-.22A1 1 0 0 0 .7 1z" fill="#86aea5" data-color="1"/>
            <path d="M.82.89v.22a.36.36 0 0 1 0 .1.33.33 0 0 0 0 .1v-.19A1.43 1.43 0 0 1 .86.9z" fill="#86aea5" data-color="1"/>
            <path d="M.93.81A1.7 1.7 0 0 1 .89 1v.11a.36.36 0 0 0 0 .11.3.3 0 0 0 0-.1A.43.43 0 0 1 .94 1L1 .81z" fill="#86aea5" data-color="1"/>
            <path d="M1 .76A.76.76 0 0 1 1 1a.44.44 0 0 1 0 .1.44.44 0 0 1 0 .1h.05v-.1L1 1a1.49 1.49 0 0 0 0-.21z" fill="#86aea5" data-color="1"/>
            <path d="M1.13.68 1.1.9v.21c0 .05 0 0 0 0a.14.14 0 0 0 0-.06V.94a2 2 0 0 0 0-.23z" fill="#86aea5" data-color="1"/>
            <path d="M1.23.61a2 2 0 0 0-.05.24v.19-.42c0-.08 0 0 0 0z" fill="#86aea5" data-color="1"/>
            <path d="M1.32.57c0 .08 0 .16-.05.23v.22c0 .03 0 0 0 0V.81a1 1 0 0 0 0-.23z" fill="#86aea5" data-color="1"/>
            <path d="M1.4.58a1.55 1.55 0 0 1 0 .21.36.36 0 0 1 0 .1v.09c0 .03 0 0 0 0V.9a.52.52 0 0 0 0-.11.55.55 0 0 0 0-.22z" fill="#86aea5" data-color="1"/>
            <path d="M1.49.51v.37c0 .03 0 0 0 0a.13.13 0 0 0 0-.09V.52z" fill="#86aea5" data-color="1"/>
            <path d="M1.56.49v.3a.27.27 0 0 0 0 .09.15.15 0 0 0 0-.09V.5h-.05z" fill="#86aea5" data-color="1"/>
            <path d="M1.65.59V.7a.24.24 0 0 0 0 .09.38.38 0 0 0 0-.1V.58z" fill="#86aea5" data-color="1"/>
            <path d="M.59 1.93v.13a.21.21 0 0 0 0 .11.41.41 0 0 0 0-.11v-.13z" fill="#86aea5" data-color="1"/>
            <path d="M.66 1.88v.28-.28z" fill="#86aea5" data-color="1"/>
            <path d="M.76 1.79.73 2a.25.25 0 0 1 0 .08v.08a.1.1 0 0 0 0-.07L.78 2v-.18c0-.06 0 0 0 0z" fill="#86aea5" data-color="1"/>
            <path d="M.85 1.72v.17L.82 2v.08A.12.12 0 0 0 .87 2v-.26H.82z" fill="#86aea5" data-color="1"/>
            <path d="M1 1.62v.28A.33.33 0 0 0 1 2v-.38c0-.07 0 0 0 0z" fill="#86aea5" data-color="1"/>
            <path d="M1.07 1.52a1.74 1.74 0 0 0-.07.22v.12A.12.12 0 0 0 1 2v-.21a1.43 1.43 0 0 1 0-.22z" fill="#86aea5" data-color="1"/>
            <path d="M1.16 1.46a1.6 1.6 0 0 1 0 .21v.1a.1.1 0 0 0 0 .09v-.19a1.55 1.55 0 0 1 0-.21h-.05z" fill="#86aea5" data-color="1"/>
            <path d="M1.24 1.42c0 .07 0 .14-.05.21s0 .07 0 .11a.1.1 0 0 0 0 .09v-.08a.43.43 0 0 0 0-.11 1.55 1.55 0 0 0 0-.21z" fill="#86aea5" data-color="1"/>
            <path d="m1.36 1.32-.05.19v.19c0 .03 0 0 0 0a.16.16 0 0 0 0-.09v-.29z" fill="#86aea5" data-color="1"/>
            <path d="M1.49 1.22c0 .07-.05.14-.07.21v.2c0 .03 0 0 0 0v-.19l.06-.21z" fill="#86aea5" data-color="1"/>
            <path d="m1.58 1.2-.06.17v.08a.19.19 0 0 0 0 .08.11.11 0 0 0 0-.08v-.08l.05-.17z" fill="#86aea5" data-color="1"/>
            <path d="M1.7 1.1a1.42 1.42 0 0 0-.08.18v.09a.36.36 0 0 0 0 .1.32.32 0 0 0 0-.09v-.09a1.34 1.34 0 0 1 .07-.18s0-.05 0 0z" fill="#86aea5" data-color="1"/>
            <path d="M1.8 1.06a.88.88 0 0 0-.05.15v.07a.16.16 0 0 0 0 .07.08.08 0 0 0 0-.06.64.64 0 0 0 0-.07.57.57 0 0 1 0-.14z" fill="#86aea5" data-color="1"/>
            <path d="M1.9 1a1.07 1.07 0 0 0-.07.19v.18a.13.13 0 0 0 0-.09v-.09a1.21 1.21 0 0 1 .1-.19z" fill="#86aea5" data-color="1"/>
            <path d="M2 .92a1.42 1.42 0 0 0 0 .18.29.29 0 0 0 0 .09.14.14 0 0 0 0 .09v-.16A.87.87 0 0 1 2.08 1z" fill="#86aea5" data-color="1"/>
            <path d="M2.13.89v.19a.36.36 0 0 1 0 .09v.1a.73.73 0 0 0 .05-.09v-.09a1.55 1.55 0 0 0 0-.21z" fill="#86aea5" data-color="1"/>
            <path d="M2.23.87a.58.58 0 0 1-.06.13v.08a.36.36 0 0 0 0 .09v-.16l.11-.13z" fill="#86aea5" data-color="1"/>
            <path d="M2.33.83 2.26 1v.16a.07.07 0 0 0 0-.06v-.08l.11-.17z" fill="#86aea5" data-color="1"/>
            <path d="m2.46.74-.08.2v.09a.38.38 0 0 0 0 .1.36.36 0 0 0 0-.09.3.3 0 0 1 0-.1l.08-.2z" fill="#86aea5" data-color="1"/>
            <path d="M2.56.72c0 .06-.05.11-.07.17v.08a.1.1 0 0 0 0 .09V.91L2.6.74z" fill="#86aea5" data-color="1"/>
            <path d="M2.66.68a1.14 1.14 0 0 0-.1.19.36.36 0 0 0 0 .09v.08-.15L2.7.71z" fill="#86aea5" data-color="1"/>
            <path d="M2.78.66a.38.38 0 0 0-.09.15v.08a.27.27 0 0 0 0 .09V.9a.19.19 0 0 1 0-.07.61.61 0 0 1 .12-.14z" fill="#86aea5" data-color="1"/>
            <path d="M2.85.61 2.79.8v.17c0 .02 0 0 0 0a.14.14 0 0 0 .02-.06v-.1L2.9.62z" fill="#86aea5" data-color="1"/>
            <path d="m3 .55-.09.18v.08a.32.32 0 0 0 0 .09.94.94 0 0 0 0-.09L3 .75V.57z" fill="#86aea5" data-color="1"/>
            <path d="M3.09.53A.8.8 0 0 0 3 .69a.49.49 0 0 0 0 .16 1 1 0 0 0 .06-.14c0-.06 0-.11.07-.16s0-.05 0 0z" fill="#86aea5" data-color="1"/>
            <path d="M3.15.53 3.09.7v.16c0 .07 0 0 0 0V.53z" fill="#86aea5" data-color="1"/>
            <path d="M3.18.61v.11a.45.45 0 0 0 0 .11A1.17 1.17 0 0 1 3.2.74V.62s-.05-.05-.06 0z" fill="#86aea5" data-color="1"/>
            <path d="M3.27.6a.56.56 0 0 0 0 .12v.11-.2s0-.06 0 0z" fill="#86aea5" data-color="1"/>
            <path d="M3.34.67a.17.17 0 0 0-.06.15.17.17 0 0 1 .09-.13z" fill="#86aea5" data-color="1"/>
            <path d="M1.94.55a.37.37 0 0 0 .12-.21.53.53 0 0 0-.06.09z" fill="#86aea5" data-color="1"/>
            <path d="m2 .56.08-.2V.22l-.06.07a1 1 0 0 1 0 .1A1.72 1.72 0 0 0 2 .55z" fill="#86aea5" data-color="1"/>
            <path d="m2.14.52.09-.21a.93.93 0 0 1 0-.1l.05-.1a.18.18 0 0 0-.06.09l-.04.09a.81.81 0 0 0-.07.22z" fill="#86aea5" data-color="1"/>
            <path d="m2.26.43.1-.17V.17a.32.32 0 0 0 0-.09.22.22 0 0 0-.05.08.41.41 0 0 0 0 .09 1.3 1.3 0 0 0-.08.17z" fill="#86aea5" data-color="1"/>
            <path d="M2.36.39a1 1 0 0 0 .1-.17.56.56 0 0 0 0-.08V.08a.1.1 0 0 0 0 .05 2.69 2.69 0 0 0-.16.29z" fill="#86aea5" data-color="1"/>
            <path d="m2.48.29.08-.12a.37.37 0 0 0 .07-.12.28.28 0 0 0-.08.11l-.1.11z" fill="#86aea5" data-color="1"/>
            <path d="M2.58.29 2.72 0a.05.05 0 0 0 0-.07 1.3 1.3 0 0 0-.14.26z" fill="#86aea5" data-color="1"/>
            <path d="M2.71.17V.1h.05a.18.18 0 0 0-.07.05v.08z" fill="#86aea5" data-color="1"/>
            <path d="M2.81.16h-.05z" fill="#86aea5" data-color="1"/>
            <path d="M3.25.64v-.1a.19.19 0 0 0 0-.08v.18z" fill="#86aea5" data-color="1"/>
            <path d="M3.28.78a.33.33 0 0 0 .09-.23.62.62 0 0 1-.07.23z" fill="#86aea5" data-color="1"/>
            <path d="M3.37.82s.06-.1.08-.16a.25.25 0 0 0 0 .07v.08z" fill="#86aea5" data-color="1"/>
            <path d="M1 2.37v.07a.17.17 0 0 0 0 .07v-.14z" fill="#86aea5" data-color="1"/>
            <path d="M1.1 2.31a.2.2 0 0 0 0 .11.13.13 0 0 0 0 .09.14.14 0 0 0 0-.09v-.11z" fill="#86aea5" data-color="1"/>
            <path d="M1.19 2.22a1.21 1.21 0 0 0-.05.18.28.28 0 0 0 0 .09v.09-.17a1.16 1.16 0 0 1 0-.18z" fill="#86aea5" data-color="1"/>
            <path d="M1.28 2.17a3 3 0 0 0-.07.32v.11c0 .02.06 0 0 0v-.42z" fill="#86aea5" data-color="1"/>
            <path d="M1.4 2.05c0 .11 0 .21-.08.32v.15c0 .07 0 0 0 0v-.14a2.56 2.56 0 0 1 .05-.27z" fill="#86aea5" data-color="1"/>
            <path d="M1.55 2c0 .12-.07.25-.11.37a.31.31 0 0 0 0 .08v.05c0 .05.06 0 0 0v-.3l.14-.2z" fill="#86aea5" data-color="1"/>
            <path d="M1.65 1.89c0 .08 0 .16-.08.24v.11a.59.59 0 0 0 0 .13.45.45 0 0 0 0-.11v-.13c0-.07 0-.15.07-.23z" fill="#86aea5" data-color="1"/>
            <path d="M1.76 1.81 1.7 2v.12a.2.2 0 0 0 0 .11.21.21 0 0 0 0-.1v-.12l.05-.24z" fill="#86aea5" data-color="1"/>
            <path d="M1.86 1.76a2 2 0 0 1-.05.24v.22s.05-.06.06-.09v-.12a2.17 2.17 0 0 0 0-.25z" fill="#86aea5" data-color="1"/>
            <path d="M2 1.66a2 2 0 0 0-.1.26.5.5 0 0 1 0 .13v.13-.1a.74.74 0 0 0 0-.14l.1-.27z" fill="#86aea5" data-color="1"/>
            <path d="M2.12 1.62a2.44 2.44 0 0 0-.1.24A.69.69 0 0 0 2 2a.28.28 0 0 0 0 .12A.61.61 0 0 0 2 2v-.12l.09-.25z" fill="#86aea5" data-color="1"/>
            <path d="M2.21 1.6a1.72 1.72 0 0 1-.07.21 1.8 1.8 0 0 0-.08.19 1.31 1.31 0 0 0 .08-.21l.06-.22z" fill="#86aea5" data-color="1"/>
            <path d="M2.35 1.52 2.2 2v-.07V2c0-.15.1-.29.14-.44z" fill="#86aea5" data-color="1"/>
            <path d="m2.48 1.44-.08.22v.23c0 .04 0 .05.05 0a.76.76 0 0 0 0-.11v-.12l.08-.23z" fill="#86aea5" data-color="1"/>
            <path d="m2.57 1.4-.09.22v.11a.21.21 0 0 0 0 .11s0-.07.05-.1v-.11l.08-.23z" fill="#86aea5" data-color="1"/>
            <path d="M2.69 1.36a.78.78 0 0 0-.11.2.49.49 0 0 0 0 .11.22.22 0 0 0 0 .11v-.1a.76.76 0 0 1 0-.11 1 1 0 0 1 .09-.21z" fill="#86aea5" data-color="1"/>
            <path d="M2.79 1.28a2.72 2.72 0 0 0-.11.25.61.61 0 0 0-.05.12.69.69 0 0 0 0 .13s0-.08.05-.12v-.12l.09-.26z" fill="#86aea5" data-color="1"/>
            <path d="M2.9 1.22a1.06 1.06 0 0 1-.09.25.61.61 0 0 1-.05.12v.06a.06.06 0 0 0 0 .06v-.05c0-.05 0 0 0 0a.1.1 0 0 0 0-.05v-.06l.06-.12A2.41 2.41 0 0 0 3 1.24h-.05z" fill="#86aea5" data-color="1"/>
            <path d="m3 1.24-.1.2a1 1 0 0 1 0 .1v.06-.16l.1-.18s0-.05 0 0z" fill="#86aea5" data-color="1"/>
            <path d="m3.07 1.18-.14.3v.08a.14.14 0 0 0 0 .06v.06c0-.01 0 0 0 0V1.6L3 1.45l.1-.25s0-.05 0 0z" fill="#86aea5" data-color="1"/>
            <path d="m3.2 1.16-.12.26-.08.12v.12c0 .06 0 0 0 0v-.07a.61.61 0 0 0 0-.12l.11-.26z" fill="#86aea5" data-color="1"/>
            <path d="m3.29 1.14-.11.23-.06.12a.61.61 0 0 0-.05.12.39.39 0 0 0 .06-.11l.05-.12a2.56 2.56 0 0 0 .11-.24z" fill="#86aea5" data-color="1"/>
            <path d="m3.37 1.14-.12.24a.61.61 0 0 1 0 .12.28.28 0 0 0 0 .12.27.27 0 0 0 .06-.12.61.61 0 0 0 0-.12l.11-.25z" fill="#86aea5" data-color="1"/>
            <path d="M1.63 2.76a6.4 6.4 0 0 1 .79-.48l.12-.06a.67.67 0 0 0 .11-.07h-.1l-.11.06-.2.11-.4.24-.22.15z" fill="#86aea5" data-color="1"/>
            <path d="m2.06 2.59.13-.13a.45.45 0 0 0 .11-.13.34.34 0 0 0-.12.12.49.49 0 0 0-.18.12z" fill="#86aea5" data-color="1"/>
            <path d="M2.2 2.52s.11-.09.15-.14a.66.66 0 0 0 .14-.15.47.47 0 0 0-.15.13l-.15.15z" fill="#86aea5" data-color="1"/>
            <path d="m2.44 2.31-.06.06.12-.12a.69.69 0 0 0 .11-.13.63.63 0 0 0-.12.11 1.34 1.34 0 0 0-.11.14.18.18 0 0 1 .05-.07z" fill="#86aea5" data-color="1"/>
        </g>
    </g>
</svg>
