<?xml version="1.0" encoding="UTF-8"?>
<svg data-bbox="-0.001 -0.033 3.004 3.033" viewBox="0 0 3.02 3.02" xmlns="http://www.w3.org/2000/svg" data-type="color">
    <g>
        <g>
            <path d="M1.65 2.06v-.09.09z" fill="#86aea5" data-color="1"/>
            <path d="M1.07 2.68A2.18 2.18 0 0 1 .52 2a1.84 1.84 0 0 1-.26-.88A1 1 0 0 1 .56.4a.68.68 0 0 1 .71-.12.52.52 0 0 1 .28.57v.08h.06a.51.51 0 0 1 .22-.26A1 1 0 0 1 2.3.6a.67.67 0 0 1 .41.13.51.51 0 0 1 .13.27 1 1 0 0 1-.31.71 2.4 2.4 0 0 1-.77.49l-.46.21-.2.11a.26.26 0 0 0-.1.2.19.19 0 0 0 0 .08h.05c.05 0 0 0 0 0s0-.11.06-.14a1.43 1.43 0 0 1 .21-.12l.48-.22a2.46 2.46 0 0 0 .77-.51A1 1 0 0 0 2.9 1a.62.62 0 0 0-.13-.3.59.59 0 0 0-.4-.16 1.06 1.06 0 0 0-.5 0 .63.63 0 0 0-.32.26v.1h.06A.55.55 0 0 0 1.6.6a.52.52 0 0 0-.2-.3.68.68 0 0 0-.76 0 1 1 0 0 0-.45.7 1.72 1.72 0 0 0 .19.94 2.55 2.55 0 0 0 .55.75l.1.07s.06 0 0-.06z" fill="#86aea5" data-color="1"/>
            <path d="M1 2.72a1.84 1.84 0 0 1-.61-.6 1.79 1.79 0 0 1-.28-.8A1.28 1.28 0 0 1 .25.48.92.92 0 0 1 .6.18a1.09 1.09 0 0 1 .47-.12.66.66 0 0 1 .43.15.49.49 0 0 1 .17.36.28.28 0 0 1 0 .09h.06A.46.46 0 0 1 2 .51a1 1 0 0 1 .42 0 .67.67 0 0 1 .38.24.6.6 0 0 1 .2.41.89.89 0 0 1-.12.39 1 1 0 0 1-.3.33 4.78 4.78 0 0 1-.84.44 1.73 1.73 0 0 0-.74.55L.93 3H1a4.54 4.54 0 0 1-.53-.63 1.7 1.7 0 0 1-.27-.79A1.37 1.37 0 0 1 .39.74.78.78 0 0 1 .65.49.47.47 0 0 1 1 .45a.59.59 0 0 1 .41.55v.1h.06a1 1 0 0 1 .68-.36.55.55 0 0 1 .56.33c.1.26-.11.49-.3.63L2 1.92c-.14.08-.29.15-.43.24a1.52 1.52 0 0 0-.57.59.36.36 0 0 0 0 .09 4.26 4.26 0 0 0-.2-.69 3.45 3.45 0 0 0-.14-.34C.61 1.7.55 1.6.5 1.49a.7.7 0 0 1 0-.58.35.35 0 0 1 .12-.17.32.32 0 0 1 .27 0 .66.66 0 0 1 .28.61h.06A1.28 1.28 0 0 1 1.87 1a.94.94 0 0 1 .41 0 .31.31 0 0 1 .27.22c0 .13-.09.24-.18.31l-.31.23c-.21.16-.43.31-.63.49a2.16 2.16 0 0 0-.5.58.56.56 0 0 0-.05.08h.07a2.17 2.17 0 0 0-.19-1.24c0-.1-.09-.19-.13-.28a.46.46 0 0 1-.06-.25A.19.19 0 0 1 .69 1a.25.25 0 0 1 .22 0 .59.59 0 0 1 .2.54h.07a1.17 1.17 0 0 1 .51-.4A1.25 1.25 0 0 1 2 1.11h.16a.42.42 0 0 1 .16 0c.09.07 0 .18-.1.21a.67.67 0 0 1-.14.09l-.15.09a3.69 3.69 0 0 0-.52.5 1.64 1.64 0 0 0-.41.62h.08l-.2-.89-.06-.23a1.17 1.17 0 0 1 0-.2v-.07a.15.15 0 0 1 .1.09.7.7 0 0 1 .08.2 1 1 0 0 1 0 .24h.07a1.15 1.15 0 0 1 .78-.46.77.77 0 0 1 .26 0v-.05c-.08.19-.3.28-.47.37a1.67 1.67 0 0 0-.28.18 1.44 1.44 0 0 0-.22.27 1.42 1.42 0 0 0-.14.37h.08A2.1 2.1 0 0 0 1 1.89v-.14a.5.5 0 0 1-.05-.13.17.17 0 0 1 0-.12s0-.05.06-.05A1.12 1.12 0 0 1 1 2s.05.07.07 0a1.31 1.31 0 0 1 .26-.4.45.45 0 0 1 .41-.13v-.02a1.31 1.31 0 0 0-.7.78.8.8 0 0 0-.06.3c0 .05.07.05.07 0a1.26 1.26 0 0 1 .48-.87.84.84 0 0 1 .24-.14v-.07a.54.54 0 0 0-.46.13A1.46 1.46 0 0 0 1 2a1.18 1.18 0 0 0 0-.6.17.17 0 0 0-.14.11.42.42 0 0 0 0 .22 1.86 1.86 0 0 1 .14.44 1.32 1.32 0 0 1 0 .28h.08a1.06 1.06 0 0 1 .33-.59 1.27 1.27 0 0 1 .27-.18c.09-.05.19-.09.28-.15a.62.62 0 0 0 .22-.26 1.21 1.21 0 0 0-.91.29 1.8 1.8 0 0 0-.27.18h.07A1 1 0 0 0 1 1.31a.24.24 0 0 0-.12-.14.14.14 0 0 0-.15 0 .17.17 0 0 0 0 .19l.06.24.13.49.08.55h.08a2 2 0 0 1 .9-1l.15-.09.15-.1c.07-.06.17-.17.1-.27s-.09-.07-.15-.08h-.15a1 1 0 0 0-.34.06 1.22 1.22 0 0 0-.62.45h.07A.72.72 0 0 0 1 1 .43.43 0 0 0 .79.89.24.24 0 0 0 .56 1a.31.31 0 0 0-.07.24.77.77 0 0 0 .11.3 4.36 4.36 0 0 1 .23.6 2 2 0 0 1 .05.72 2.31 2.31 0 0 1 .5-.62c.21-.18.43-.34.65-.5l.33-.25a.42.42 0 0 0 .2-.33.37.37 0 0 0-.24-.3A.82.82 0 0 0 2 .85a1.35 1.35 0 0 0-.71.41l-.06.07h.06A.79.79 0 0 0 1 .74a.54.54 0 0 0-.3-.1.39.39 0 0 0-.24.12.61.61 0 0 0-.1.58 2.63 2.63 0 0 0 .15.35A3.54 3.54 0 0 1 .67 2a4.87 4.87 0 0 1 .33.87h.07a1.41 1.41 0 0 1 .58-.63A3.75 3.75 0 0 1 2 2c.14-.08.28-.15.41-.24a.67.67 0 0 0 .34-.68.63.63 0 0 0-.52-.42 1 1 0 0 0-.74.34l-.07.09h.06a.72.72 0 0 0-.35-.67.59.59 0 0 0-.39 0 .83.83 0 0 0-.32.2 1.37 1.37 0 0 0-.31.8 1.58 1.58 0 0 0 .21.87 3.29 3.29 0 0 0 .54.69L.94 3H1a1.52 1.52 0 0 1 .69-.59A5.14 5.14 0 0 0 2.56 2a1.29 1.29 0 0 0 .32-.34A1 1 0 0 0 3 1.19a.63.63 0 0 0-.1-.4.65.65 0 0 0-.35-.28 1.1 1.1 0 0 0-.44-.07.57.57 0 0 0-.38.14.27.27 0 0 0-.07.08h.07a.57.57 0 0 0-.09-.4.67.67 0 0 0-.39-.26 1 1 0 0 0-.51 0A1 1 0 0 0 .3.31a1.2 1.2 0 0 0-.3.85A1.81 1.81 0 0 0 .23 2a1.79 1.79 0 0 0 .61.67l.1.06s.06 0 0 0z" fill="#86aea5" data-color="1"/>
        </g>
    </g>
</svg>
