<?xml version="1.0" encoding="UTF-8"?>
<svg data-bbox="-0.026 -0.025 2.847 2.675" viewBox="0 0 2.83 2.66" xmlns="http://www.w3.org/2000/svg" data-type="color">
    <g>
        <g>
            <path d="M1.37.63A.93.93 0 0 0 .56.5.77.77 0 0 0 0 1a.67.67 0 0 0 0 .37.92.92 0 0 0 .18.32 2 2 0 0 0 .62.42l.92.47.11.06a5.88 5.88 0 0 0 .55-.76A2.41 2.41 0 0 0 2.79 1a1.41 1.41 0 0 0 0-.46.65.65 0 0 0-.16-.4A.69.69 0 0 0 2 0a1 1 0 0 0-.57.58 1 1 0 0 0 0 .1s.06.06.08 0A1 1 0 0 1 1.9.15a.63.63 0 0 1 .65.05.5.5 0 0 1 .18.34 1.55 1.55 0 0 1 0 .43 2.33 2.33 0 0 1-.3.81 6.34 6.34 0 0 1-.51.73l-.07.09L1 2.15a2.88 2.88 0 0 1-.65-.39.71.71 0 0 1-.28-.6.71.71 0 0 1 .41-.55.9.9 0 0 1 .77 0h.09s.06 0 0-.05z" fill="#86aea5" data-color="1"/>
            <path d="M1.27.84a.63.63 0 0 0-.58-.1.57.57 0 0 0-.43.42.57.57 0 0 0 .32.57 3.84 3.84 0 0 0 .35.18l.38.18.38.19h.18a.15.15 0 0 0 0-.06L2 2.18a4 4 0 0 0 .4-.61A1.86 1.86 0 0 0 2.62.9a1 1 0 0 0 0-.35.32.32 0 0 0-.15-.27.42.42 0 0 0-.31 0 1 1 0 0 0-.29.14 1.24 1.24 0 0 0-.41.5.88.88 0 0 0-.05.15h.07A.38.38 0 0 0 1.3.83v.05a.43.43 0 0 1 .15.2h.07a1.06 1.06 0 0 1 .31-.5A1.08 1.08 0 0 1 2 .4a.69.69 0 0 1 .31-.08.23.23 0 0 1 .22.13.65.65 0 0 1 0 .31 1.72 1.72 0 0 1-.16.63 4.36 4.36 0 0 1-.32.61l-.2.27h-.09l-.18-.09-.77-.4a.79.79 0 0 1-.48-.43.45.45 0 0 1 .26-.5.65.65 0 0 1 .53 0 .34.34 0 0 1 .12.06s.06 0 0-.05z" fill="#86aea5" data-color="1"/>
            <path d="M1.35 1.25A.29.29 0 0 0 1.07 1a.36.36 0 0 0-.36.2.34.34 0 0 0 0 .2.37.37 0 0 0 .13.15.77.77 0 0 0 .16.1l.25.1c.18.08.36.16.54.26h.05c.05 0 .22-.32.32-.49a2.33 2.33 0 0 0 .11-.28.75.75 0 0 0 0-.26.23.23 0 0 0-.04-.23A.36.36 0 0 0 2 .74a.65.65 0 0 0-.37.3.38.38 0 0 0-.06.13.7.7 0 0 0 0 .14h-.05a.94.94 0 0 0-.09-.12s-.09 0-.05.06a.35.35 0 0 1 .08.1.16.16 0 0 0 .1 0 .12.12 0 0 0 .1 0 .59.59 0 0 0 0-.13.59.59 0 0 1 .22-.35c.1-.06.34-.14.38 0a.49.49 0 0 1 0 .24 1.17 1.17 0 0 1-.1.26A3.87 3.87 0 0 1 1.8 2c-.14-.08-.28-.14-.43-.21L1 1.57c-.1 0-.22-.1-.22-.23A.24.24 0 0 1 1 1.1a.27.27 0 0 1 .32.16h.05z" fill="#86aea5" data-color="1"/>
            <path d="m.81 1.32.05-.07.06-.07v-.05H1 .94l-.07.09z" fill="#86aea5" data-color="1"/>
            <path d="M.8 1.52a1 1 0 0 0 .2-.2v-.11s.05-.07 0-.1v.05l-.09.14a2.26 2.26 0 0 1-.13.2z" fill="#86aea5" data-color="1"/>
            <path d="M.92 1.59a1.71 1.71 0 0 0 .13-.23l.12-.24s0-.05 0 0a1.08 1.08 0 0 0-.17.22 2.56 2.56 0 0 0-.11.24z" fill="#86aea5" data-color="1"/>
            <path d="M1 1.6a2 2 0 0 0 .12-.19.93.93 0 0 1 .05-.1v-.1a.14.14 0 0 0-.05.08 1.17 1.17 0 0 1 0 .11 1.89 1.89 0 0 0-.12.19z" fill="#86aea5" data-color="1"/>
            <path d="M1.15 1.65a.64.64 0 0 0 .11-.2l.05-.11a.12.12 0 0 0 0-.1s-.05.05-.07.08a1.17 1.17 0 0 1-.05.11.65.65 0 0 0-.08.22z" fill="#86aea5" data-color="1"/>
            <path d="M1.28 1.65a.35.35 0 0 0 .05-.08v-.15a.11.11 0 0 0 0-.08v.25c0 .03 0 0 0 0z" fill="#86aea5" data-color="1"/>
            <path d="m1.35 1.71.06-.14V1.5v.08a.53.53 0 0 0-.05.15z" fill="#86aea5" data-color="1"/>
            <path d="M1.45 1.75a3 3 0 0 0 .19-.41c.06-.14.12-.28.17-.42h-.05l-.17.42c-.05.14-.12.28-.17.42z" fill="#86aea5" data-color="1"/>
            <path d="M1.53 1.74a.06.06 0 0 0 0 .07 2.4 2.4 0 0 0 .11-.23l.11-.24.19-.48h-.05c-.05 0-.12.33-.18.48a2.44 2.44 0 0 0-.1.24c0 .08-.07.16-.1.23z" fill="#86aea5" data-color="1"/>
            <path d="M1.62 1.87a.47.47 0 0 0 .07-.12l.06-.13.12-.27.24-.54s0-.06 0 0l-.24.54-.11.27-.06.14a.33.33 0 0 0 0 .14z" fill="#86aea5" data-color="1"/>
            <path d="M1.76 1.89v-.07l.06-.13A2.39 2.39 0 0 0 2 1.34l.13-.27.08-.13V.86a.06.06 0 0 0 0-.06v.07l-.06.14-.15.31-.12.27-.06.14a.69.69 0 0 0-.05.13s0 .06 0 0z" fill="#86aea5" data-color="1"/>
            <path d="M1.85 1.92 2 1.69l.11-.24a2.44 2.44 0 0 0 .1-.24A1.86 1.86 0 0 0 2.29 1s-.06.17-.1.25l-.09.24c0 .08-.07.16-.11.23a1.86 1.86 0 0 1-.1.25z" fill="#86aea5" data-color="1"/>
            <path d="M1.37.9a1 1 0 0 0 .11-.24c0-.05 0-.09.05-.13a.51.51 0 0 0 0-.13.22.22 0 0 0-.05.11.5.5 0 0 1 0 .13L1.35.9z" fill="#86aea5" data-color="1"/>
            <path d="m1.45.9.06-.14.06-.15.05-.14V.32c0-.07 0 0 0 0v.13l-.1.15s0 .09-.05.14a.75.75 0 0 0 0 .16z" fill="#86aea5" data-color="1"/>
            <path d="M1.6.75 1.69.5s0-.08.05-.13V.31v.06a.69.69 0 0 1-.05.13 2 2 0 0 0-.07.26z" fill="#86aea5" data-color="1"/>
            <path d="M1.72.63c0-.09.09-.17.12-.26a.61.61 0 0 0 0-.12V.18a.07.07 0 0 0 0-.06v.11c0 .05 0 .09-.05.13l-.1.27z" fill="#86aea5" data-color="1"/>
            <path d="M1.9.47A1.19 1.19 0 0 0 2 .31c0-.06 0-.12.07-.17A1.11 1.11 0 0 0 2 .3l-.14.16z" fill="#86aea5" data-color="1"/>
            <path d="M2 .39a1.29 1.29 0 0 0 .11-.16.56.56 0 0 1 .05-.08V.07l-.05.07a.56.56 0 0 1 0 .08L2 .38z" fill="#86aea5" data-color="1"/>
            <path d="m2.14.36.09-.14a.64.64 0 0 0 .08-.14 1.1 1.1 0 0 0-.09.14l-.11.12z" fill="#86aea5" data-color="1"/>
            <path d="m2.28.3.06-.1a.15.15 0 0 0 0-.09s0 .06-.06.09v.1z" fill="#86aea5" data-color="1"/>
            <path d="M2.36.3a.18.18 0 0 0 .05-.07.22.22 0 0 0 0-.08l-.06.07A.56.56 0 0 0 2.3.3z" fill="#86aea5" data-color="1"/>
            <path d="M2.46.33a.15.15 0 0 1 0-.09s-.09 0-.11.06a.16.16 0 0 0 0 .12z" fill="#86aea5" data-color="1"/>
            <path d="M2.53.36a.18.18 0 0 0 .05-.07V.22c0-.07 0 0 0 0v.05a.43.43 0 0 1 0 .07z" fill="#86aea5" data-color="1"/>
            <path d="M2.6.41a.16.16 0 0 1 0-.07V.29c0-.05-.06 0-.07 0a.11.11 0 0 0 0 .08z" fill="#86aea5" data-color="1"/>
            <path d="M2.63.51h.05V.46c0-.05 0 0 0 0a.08.08 0 0 0-.08 0 .12.12 0 0 0 0 .04z" fill="#86aea5" data-color="1"/>
            <path d="m2.63.65.05-.07.07-.07c.07-.07 0 0 0 0a.26.26 0 0 0-.15.13z" fill="#86aea5" data-color="1"/>
            <path d="m2.65.75.07-.08.07-.06c.07-.06 0 0 0 0s-.13.08-.16.14z" fill="#86aea5" data-color="1"/>
            <path d="m2.64.85.08-.09H2.6a.24.24 0 0 0 0 .08z" fill="#86aea5" data-color="1"/>
            <path d="M2.65 1a.34.34 0 0 1 .09-.13.07.07 0 0 0-.06 0L2.7.83v.05z" fill="#86aea5" data-color="1"/>
            <path d="M2.58 1.11a.47.47 0 0 1 .1-.1L2.74 1a.09.09 0 0 0-.07 0h-.02a.29.29 0 0 0-.1.12z" fill="#86aea5" data-color="1"/>
            <path d="m2.57 1.21.09-.08a.31.31 0 0 0 .09-.07.22.22 0 0 0-.11.05.76.76 0 0 0-.09.09z" fill="#86aea5" data-color="1"/>
            <path d="m2.51 1.36.09-.08.07-.08s-.06.05-.08.07l-.08.09z" fill="#86aea5" data-color="1"/>
            <path d="M2.49 1.48s.11-.06.13-.12l-.06.06-.06.05s0 .05 0 0z" fill="#86aea5" data-color="1"/>
            <path d="M2.35 1.66h.06l.09-.07.1-.09a.39.39 0 0 0-.1.08z" fill="#86aea5" data-color="1"/>
            <path d="M2.29 1.81h.05a.9.9 0 0 0 .1-.09h-.05z" fill="#86aea5" data-color="1"/>
            <path d="M2.2 1.93 2.15 2a.1.1 0 0 0 .07 0l.08-.05a.47.47 0 0 0 .13-.11.49.49 0 0 0-.15.1l-.07.05a.12.12 0 0 0-.07.01v-.05z" fill="#86aea5" data-color="1"/>
            <path d="M2.08 2.15h.13L2.33 2a.32.32 0 0 0-.15 0h-.06l-.06.06z" fill="#86aea5" data-color="1"/>
            <path d="m1.88 2.39.21-.16.21-.14a1.64 1.64 0 0 0-.22.14l-.2.17z" fill="#86aea5" data-color="1"/>
            <path d="m1.66 2.52.17-.12.17-.14a.66.66 0 0 0-.17.12 1.09 1.09 0 0 0-.17.13z" fill="#86aea5" data-color="1"/>
            <path d="M1.77 2.53h.07l.07-.05.09-.14a.67.67 0 0 0-.14.09h-.13z" fill="#86aea5" data-color="1"/>
            <path d="M1.8 2.61h.08l.05-.07c.05-.07 0 0 0 0v.06l-.06.05z" fill="#86aea5" data-color="1"/>
            <path d="m1.6 2.48.09-.09.09-.09a.31.31 0 0 0-.19.18z" fill="#86aea5" data-color="1"/>
            <path d="M1.55 2.43v-.05c0-.05 0 0 0 0h-.06l-.05.05z" fill="#86aea5" data-color="1"/>
            <path d="m1.46 2.4.06-.06.06-.06a.19.19 0 0 0-.14.12z" fill="#86aea5" data-color="1"/>
            <path d="M1.36 2.37h.05s.07 0 .09-.09a.28.28 0 0 0-.11.08v.05z" fill="#86aea5" data-color="1"/>
            <path d="M1.31 2.3h.05-.11z" fill="#86aea5" data-color="1"/>
            <path d="M1.22 2.22a.23.23 0 0 0-.07.07v.06h.05z" fill="#86aea5" data-color="1"/>
            <path d="M1.1 2.23h.06l.05-.05s-.08 0-.11.06l-.05.05v.06z" fill="#86aea5" data-color="1"/>
            <path d="M1 2.14v.06l.12-.09s.08-.06.1-.1l-.11.08-.11.07h.05z" fill="#86aea5" data-color="1"/>
            <path d="M.92 2.1h.05A.16.16 0 0 0 1.1 2H1v.05a.07.07 0 0 0 0 .05s0-.05 0 0z" fill="#86aea5" data-color="1"/>
            <path d="M.88 2.05s.03 0 .05-.05H1 .95a.73.73 0 0 0-.09.08.07.07 0 0 0 .06 0z" fill="#86aea5" data-color="1"/>
            <path d="M.77 2h.05-.05c0 .05.06.08.06 0z" fill="#86aea5" data-color="1"/>
            <path d="M.7 1.92S.72 2 .75 2H.8.72l-.07.06V2s0-.05 0 0z" fill="#86aea5" data-color="1"/>
            <path d="m.59 2 .08-.07L.59 2s0 .06 0 0z" fill="#86aea5" data-color="1"/>
            <path d="M.52 2a.27.27 0 0 0 .08-.12.16.16 0 0 0 .07-.07.24.24 0 0 0-.08.06l-.08.08z" fill="#86aea5" data-color="1"/>
            <path d="m.49 1.81.06-.05s0-.05 0 0H.49l-.06.06z" fill="#86aea5" data-color="1"/>
            <path d="m.41 1.83.08-.07s.05 0 .06-.07a.16.16 0 0 0-.08.06l-.07.08z" fill="#86aea5" data-color="1"/>
            <path d="m.34 1.75.07-.06H.32s-.06 0-.07.06 0 0 0 .05 0-.05 0 0z" fill="#86aea5" data-color="1"/>
            <path d="M.31 1.69v.05l.09-.06a.2.2 0 0 0 .04-.08.2.2 0 0 0-.09.06l-.11.04s0 .05 0 0z" fill="#86aea5" data-color="1"/>
            <path d="M.23 1.62H.17l-.06.05h.06c.06 0 0-.06 0 0z" fill="#86aea5" data-color="1"/>
            <path d="M.18 1.63h.05a.46.46 0 0 0 .07-.07.3.3 0 0 0-.1.07s0 .06 0 0z" fill="#86aea5" data-color="1"/>
            <path d="m.13 1.53.06-.05-.07.05a.15.15 0 0 0-.06.05v.06c0 .01 0 0 .05 0s0-.05 0 0z" fill="#86aea5" data-color="1"/>
            <path d="M.12 1.46a.27.27 0 0 0 .08-.07.09.09 0 0 0-.06 0s-.07 0-.07.08h.05v-.05z" fill="#86aea5" data-color="1"/>
            <path d="M.13 1.38.2 1.3a.16.16 0 0 0-.09.05.16.16 0 0 0-.07.09z" fill="#86aea5" data-color="1"/>
            <path d="M.13 1.3a.36.36 0 0 1 .07-.1.26.26 0 0 0-.07.11z" fill="#86aea5" data-color="1"/>
            <path d="M.11 1.22a.94.94 0 0 1 .1-.1L.31 1a.46.46 0 0 0-.23.18s0 .05 0 0z" fill="#86aea5" data-color="1"/>
            <path d="M.12 1.1H.06h.09L.23 1 .4.9.57.78.75.66a.81.81 0 0 0-.18.1l-.2.1L.2 1l-.08.07s-.06 0-.07.07 0 0 .06 0z" fill="#86aea5" data-color="1"/>
            <path d="M.1 1a.26.26 0 0 0 .09 0h.09L.45.8.62.7A.67.67 0 0 0 .78.58.56.56 0 0 0 .6.66L.43.77l-.17.1-.08.06L.1 1z" fill="#86aea5" data-color="1"/>
            <path d="M.07 1A3.37 3.37 0 0 0 .39.76l.16-.1h.08L.7.56c.02-.03 0 0 0 0H.62L.53.62.37.73l-.31.2z" fill="#86aea5" data-color="1"/>
            <path d="M.16.83.39.68.51.61.63.54a.52.52 0 0 0-.15.03.41.41 0 0 0-.11.07A1.25 1.25 0 0 0 .15.8z" fill="#86aea5" data-color="1"/>
            <path d="M.62.75A.83.83 0 0 1 .78.63L.87.58 1 .53A.37.37 0 0 0 .77.6 1.09 1.09 0 0 0 .6.73z" fill="#86aea5" data-color="1"/>
            <path d="M.62.65.71.59A.47.47 0 0 0 .8.53L.7.57.6.63z" fill="#86aea5" data-color="1"/>
            <path d="m.58.79.2-.11A2 2 0 0 0 1 .56l-.24.1-.19.11z" fill="#86aea5" data-color="1"/>
            <path d="M.74.76.9.68a.46.46 0 0 0 .15-.09 1.11 1.11 0 0 0-.17.05L.72.73z" fill="#86aea5" data-color="1"/>
            <path d="m.89.75.16-.07h.07l.07-.09-.08.01A.2.2 0 0 0 1 .64L.88.72z" fill="#86aea5" data-color="1"/>
            <path d="M1.06.74a.41.41 0 0 1 .11-.07h.12-.13L1 .71z" fill="#86aea5" data-color="1"/>
            <path d="m1.12.78.1-.06.1-.07a.31.31 0 0 0-.1.05l-.13.04s0 .05 0 0z" fill="#86aea5" data-color="1"/>
            <path d="M1.24.76h.08a.18.18 0 0 0 .07 0 .11.11 0 0 0-.08 0h-.09s0 .05 0 0z" fill="#86aea5" data-color="1"/>
            <path d="M1.28.82a.19.19 0 0 1 .07-.06l.08-.05h-.09l-.09.07s0 .06 0 0z" fill="#86aea5" data-color="1"/>
            <path d="M1.31.84a.83.83 0 0 0 .16-.09.53.53 0 0 0-.18.05z" fill="#86aea5" data-color="1"/>
            <path d="M1.33.89h-.05s0 .05 0 0z" fill="#86aea5" data-color="1"/>
        </g>
    </g>
</svg>
