<?xml version="1.0" encoding="UTF-8"?>
<svg data-bbox="0 0.003 2.515 2.377" viewBox="0 0 2.5 2.38" xmlns="http://www.w3.org/2000/svg" data-type="color">
    <g>
        <g>
            <path d="M1.33 2.33a6.48 6.48 0 0 1-.67-.5 1.86 1.86 0 0 1-.48-.56.75.75 0 0 1 0-.64A.58.58 0 0 1 .35.4.5.5 0 0 1 .67.35a.49.49 0 0 1 .4.52h.08A.87.87 0 0 1 1.5.19a.64.64 0 0 1 .68 0 .51.51 0 0 1 .21.29.93.93 0 0 1 0 .44 2.19 2.19 0 0 1-.39.73 2.29 2.29 0 0 1-.6.56h-.09c-.05 0 0 .1 0 .07a2.17 2.17 0 0 0 .67-.57A2.25 2.25 0 0 0 2.45 1a.75.75 0 0 0-.18-.86.69.69 0 0 0-.73-.06.89.89 0 0 0-.46.68v.11c0 .04.07.05.08 0A.58.58 0 0 0 .79.31a.56.56 0 0 0-.65.18.75.75 0 0 0-.09.67 1.52 1.52 0 0 0 .46.64 3.93 3.93 0 0 0 .38.31 3.62 3.62 0 0 0 .41.27s.06 0 0 0z" fill="#86aea5" data-color="1"/>
            <path d="M.08.86A1 1 0 0 1 .37.58.71.71 0 0 1 .55.5h.2a.12.12 0 0 0-.1 0L.54.45a.72.72 0 0 0-.2.09.65.65 0 0 0-.28.31z" fill="#86aea5" data-color="1"/>
            <path d="M.05.87A1.16 1.16 0 0 1 .46.62 1.19 1.19 0 0 1 .69.55H.9V.48H.69a1.18 1.18 0 0 0-.45.19.9.9 0 0 0-.24.19z" fill="#86aea5" data-color="1"/>
            <path d="M.07.91a1.2 1.2 0 0 1 .41-.2 1 1 0 0 1 .23 0h.23H.7A.86.86 0 0 0 .47.66a1.08 1.08 0 0 0-.42.23z" fill="#86aea5" data-color="1"/>
            <path d="M0 1A.26.26 0 0 1 .19.88L.43.8.7.75h.13L1 .77A.42.42 0 0 0 .75.69a.83.83 0 0 0-.22 0l-.22.1a.58.58 0 0 0-.18.08A.21.21 0 0 0 0 1z" fill="#86aea5" data-color="1"/>
            <path d="M.9.74h.2a.25.25 0 0 0-.1.01L.9.72z" fill="#86aea5" data-color="1"/>
            <path d="M1.15.8a2.46 2.46 0 0 0 .39.09 1.3 1.3 0 0 0 .34 0A.7.7 0 0 0 2.4.72a.22.22 0 0 0 .08-.13S2.45.5 2.4.52l-.09.2a.58.58 0 0 1-.21.1 1.5 1.5 0 0 1-.56 0L1.16.77z" fill="#86aea5" data-color="1"/>
            <path d="M1.15.7a.89.89 0 0 0 .28.07 1 1 0 0 0 .3 0A1.36 1.36 0 0 0 2 .75a.9.9 0 0 0 .25-.08l.1-.07V.54a.21.21 0 0 1-.08.06.48.48 0 0 1-.27.08 1.77 1.77 0 0 1-.56 0h-.32c-.11 0 0 0 0 0z" fill="#86aea5" data-color="1"/>
            <path d="M1.16.58a.6.6 0 0 0 .11.06.31.31 0 0 0 .13 0 1.22 1.22 0 0 0 .27 0L2 .63a.66.66 0 0 0 .21-.07c.07 0 .15-.1.13-.18a.25.25 0 0 1 0 .07l-.16.06A.9.9 0 0 1 2 .57a1.85 1.85 0 0 1-.52.06.83.83 0 0 1-.31-.07z" fill="#86aea5" data-color="1"/>
            <path d="M1.23.48h.25a1.15 1.15 0 0 0 .26 0A2.06 2.06 0 0 0 2 .52a.9.9 0 0 0 .21-.08.28.28 0 0 0 .14-.16S2.3.22 2.29.26a.24.24 0 0 1-.11.13.7.7 0 0 1-.18.06 1.3 1.3 0 0 1-.48 0h-.28z" fill="#86aea5" data-color="1"/>
            <path d="M1.31.34a1.31 1.31 0 0 0 .27.06h.27a.72.72 0 0 0 .22-.09l.1-.06s.07-.06.08-.09-.06 0-.08.07L2 .26a.48.48 0 0 1-.2.07.76.76 0 0 1-.26 0h-.27z" fill="#86aea5" data-color="1"/>
            <path d="M.06 1.07A.52.52 0 0 1 .48 1a2.41 2.41 0 0 1 .52.2 2 2 0 0 0 1 .22.77.77 0 0 0 .26-.07.28.28 0 0 0 .15-.17h-.07c0 .07-.08.1-.13.13a.9.9 0 0 1-.22.06 1.34 1.34 0 0 1-.49-.05 3.12 3.12 0 0 1-.5-.2A2.47 2.47 0 0 0 .49 1a.51.51 0 0 0-.49.05z" fill="#86aea5" data-color="1"/>
            <path d="M0 1.1a.81.81 0 0 1 .22 0h.21l.43.14.44.13a3.25 3.25 0 0 0 .43.08.4.4 0 0 0 .37-.08.43.43 0 0 1-.33 0l-.42-.08-.45-.07-.43-.13a.85.85 0 0 0-.23 0 .46.46 0 0 0-.23 0z" fill="#86aea5" data-color="1"/>
            <path d="M.07 1.18a1.06 1.06 0 0 1 .43.08 3.47 3.47 0 0 1 .41.16 2.14 2.14 0 0 0 .84.25.7.7 0 0 0 .25 0l.1-.05v-.05c0-.05 0 0 0 0L2 1.56a.64.64 0 0 1-.2 0 1.22 1.22 0 0 1-.42-.06c-.28-.09-.53-.24-.81-.32l-.26-.02H.07z" fill="#86aea5" data-color="1"/>
            <path d="m.07 1.19.21.05.2.07c.13.07.25.16.38.22a2.52 2.52 0 0 0 .81.19c.13 0 .3 0 .39-.08s0-.06 0 0a.3.3 0 0 1-.16 0 .48.48 0 0 1-.17 0 2.9 2.9 0 0 1-.41-.06 1.46 1.46 0 0 1-.39-.12C.8 1.4.69 1.32.56 1.26a.9.9 0 0 0-.21-.08 2 2 0 0 0-.24 0z" fill="#86aea5" data-color="1"/>
            <path d="M.13 1.29a2.92 2.92 0 0 1 .38.14.91.91 0 0 1 .16.11l.17.13a1.77 1.77 0 0 0 .38.15 1.56 1.56 0 0 0 .43.08.76.76 0 0 0 .21 0A.28.28 0 0 0 2 1.76a1.22 1.22 0 0 1-.17.07.57.57 0 0 1-.18 0 1.48 1.48 0 0 1-.42-.07 2 2 0 0 1-.37-.14c-.1-.08-.19-.17-.3-.23a1.64 1.64 0 0 0-.43-.13z" fill="#86aea5" data-color="1"/>
            <path d="m.19 1.33.31.24.31.21a1.23 1.23 0 0 0 .64.22.58.58 0 0 0 .19 0h.08l.08-.1h-.3a.81.81 0 0 1-.31-.05 2.44 2.44 0 0 1-.61-.34 3.17 3.17 0 0 0-.38-.2z" fill="#86aea5" data-color="1"/>
        </g>
    </g>
</svg>
