<?xml version="1.0" encoding="UTF-8"?>
<svg data-bbox="-0.001 -0.006 3.058 2.756" viewBox="0 0 3.11 2.75" xmlns="http://www.w3.org/2000/svg" data-type="color">
    <g>
        <g>
            <path d="M1.1 2.63A2.76 2.76 0 0 1 .44 2a1.69 1.69 0 0 1-.35-.88 1 1 0 0 1 .25-.8A.71.71 0 0 1 1 .09a.63.63 0 0 1 .49.51v.1s.06.05.07 0a1 1 0 0 1 .68-.6.63.63 0 0 1 .76.38 1 1 0 0 1-.2 1 3.14 3.14 0 0 1-.7.71 3.19 3.19 0 0 1-.87.47h-.12c-.05 0 0 .1 0 .09A3.45 3.45 0 0 0 2 2.28a3.29 3.29 0 0 0 .76-.73 1.23 1.23 0 0 0 .28-1 .68.68 0 0 0-.3-.39.77.77 0 0 0-.41-.16 1 1 0 0 0-.78.53.37.37 0 0 0-.05.15h.07a.66.66 0 0 0-.41-.61.68.68 0 0 0-.4-.07.78.78 0 0 0-.37.18A1 1 0 0 0 0 .92a1.7 1.7 0 0 0 .28 1 2.34 2.34 0 0 0 .72.69l.1.07v-.05z" fill="#86aea5" data-color="1"/>
            <path d="M1.41 1.17a.36.36 0 0 0 0-.09.24.24 0 0 0-.18-.22.32.32 0 0 0-.35.05.45.45 0 0 0-.14.36 1.16 1.16 0 0 0 .12.44l.24.52h.06A2 2 0 0 1 1.58 2 1.9 1.9 0 0 0 2 1.61c.11-.13.25-.29.16-.47A.43.43 0 0 0 1.75 1a.51.51 0 0 0-.43.24s0 .08.06.05a.67.67 0 0 1 .15-.14.62.62 0 0 1 .19-.15.36.36 0 0 1 .34.13c.09.14-.05.3-.14.39a2.24 2.24 0 0 1-.37.32 1.63 1.63 0 0 0-.44.3h.06L1 1.77a1.59 1.59 0 0 1-.16-.41A.47.47 0 0 1 .88 1a.27.27 0 0 1 .28-.1.23.23 0 0 1 .14.1v.09z" fill="#86aea5" data-color="1"/>
            <path d="m.8 1.17.2-.12V1s.06 0 .07-.07a.18.18 0 0 0-.07 0L.93 1l-.15.14s0 .05 0 0z" fill="#86aea5" data-color="1"/>
            <path d="m.82 1.27.1-.07.08-.08.09-.07S1.1 1 1.07 1L1 1.08l-.09.08s-.07.05-.09.09z" fill="#86aea5" data-color="1"/>
            <path d="m.83 1.42.22-.19.12-.08.12-.09s0-.06 0 0a.57.57 0 0 0-.13.08L1 1.19l-.2.21z" fill="#86aea5" data-color="1"/>
            <path d="M.88 1.54a.58.58 0 0 0 .12-.1l.12-.11.12-.1.06-.05v-.06c0-.06 0 0 0 0a.11.11 0 0 0-.06 0s-.05 0-.06.05l-.13.11L1 1.4l-.11.12z" fill="#86aea5" data-color="1"/>
            <path d="m.94 1.66.16-.14a1.07 1.07 0 0 1 .16-.14l.15-.14.08-.07s.06 0 .06-.07-.05 0-.08 0l-.08.06-.16.14-.15.15-.15.15z" fill="#86aea5" data-color="1"/>
            <path d="M1.05 1.64a.7.7 0 0 1-.05.09.76.76 0 0 0 .09-.09l.09-.09.2-.18.2-.17.1-.08a.44.44 0 0 0 .1-.08.26.26 0 0 0-.11.07l-.11.08-.2.17-.19.18-.09.09-.08.1a.31.31 0 0 1 .05-.1z" fill="#86aea5" data-color="1"/>
            <path d="M1 1.89c.13-.1.24-.21.36-.32l.36-.32.1-.08a.32.32 0 0 0 .1-.1.33.33 0 0 0-.1.06l-.09.08-.18.16-.36.32-.19.18z" fill="#86aea5" data-color="1"/>
            <path d="M1.08 1.91a.18.18 0 0 0 .07 0l.11-.09.45-.39.13-.12L2 1.2v-.06s0-.06 0 0a1.27 1.27 0 0 0-.12.1l-.12.1-.23.2s-.47.41-.46.42z" fill="#86aea5" data-color="1"/>
            <path d="M1.14 2h.11a.52.52 0 0 0 .11-.1l.23-.19.41-.43v-.05l-.45.39-.22.19-.11.1-.05.09v.06z" fill="#86aea5" data-color="1"/>
            <path d="m1.18 2.09.44-.32.21-.17.1-.09h.06l.05-.05c.05-.05 0-.06 0 0a.48.48 0 0 0-.11.09l-.1.08-.21.17-.43.35z" fill="#86aea5" data-color="1"/>
        </g>
    </g>
</svg>
