<?xml version="1.0" encoding="UTF-8"?>
<svg data-bbox="-0.001 0.001 104.531 57.388" viewBox="0 0 104.55 57.39" xmlns="http://www.w3.org/2000/svg" data-type="color">
    <g>
        <g>
            <path d="M50.68 6.69c-1.08-1-2-2-3.06-2.9-1.5-1.33-1.69-1.34-3.36-.23-.71.48-1.37 1-2.06 1.51a3 3 0 0 1-1.3.6 1.18 1.18 0 0 1-.42 0 .38.38 0 0 1-.23-.45 1.6 1.6 0 0 1 .23-.38 23.51 23.51 0 0 1 3.92-3.28 3 3 0 0 1 1.46-.47 2.79 2.79 0 0 1 1.87.57A14.13 14.13 0 0 1 51 4.84a2.7 2.7 0 0 0 .26.3l.44-.45A39.06 39.06 0 0 1 56 .84a2.66 2.66 0 0 1 .47-.3A1.5 1.5 0 0 1 58 .58a6 6 0 0 1 1 .82c.87.86 1.72 1.74 2.58 2.61l.68.67.49-.6A22 22 0 0 1 66.51.59a2.48 2.48 0 0 1 3.34.12 16.36 16.36 0 0 1 2.73 2.91l.35.47C73.52 3.55 74 3 74.5 2.45A9.91 9.91 0 0 1 76.44.79a3.46 3.46 0 0 1 3.08-.34 6.05 6.05 0 0 1 1 .44 9 9 0 0 1 2.65 2.17 2.11 2.11 0 0 1 .18.26.59.59 0 0 0 .6-.24A17.53 17.53 0 0 1 88.28.4a2.91 2.91 0 0 1 3.46.65A18.69 18.69 0 0 1 93 2.44c.19.22.36.46.58.73.57-.48 1.09-.94 1.65-1.36A11 11 0 0 1 96.79.74a3.77 3.77 0 0 1 3.81.12 10.9 10.9 0 0 1 3.3 3.08 1.34 1.34 0 0 1 .28.83c.07 2.81.18 5.62.22 8.43q.1 7.55.13 15.1v18.65c0 2.22 0 4.45-.07 6.67v1.11a1.13 1.13 0 0 1-.42.85 4.13 4.13 0 0 1-2.26 1.08 29.19 29.19 0 0 1-5.52.4c-.37 0-.74-.06-1.11-.09a2.55 2.55 0 0 1-1.71-.68 3 3 0 0 1-1.58.55 28.9 28.9 0 0 1-4.65.29A7.11 7.11 0 0 1 82.94 56c-.35 0-.43.24-.59.38a2.14 2.14 0 0 1-1.2.52 21 21 0 0 1-5.2 0c-.7-.09-1.39-.22-2.09-.26a2.2 2.2 0 0 1-2-2.3c0-1.63-.09-3.25-.1-4.88 0-4.7 0-9.4-.12-14.1-.17-8.07-.07-16.14-.09-24.21 0-1.78.11-3.55.19-5.33a1.44 1.44 0 0 0-.42-1.19c-.72-.75-1.37-1.56-2.1-2.29-1-1-1.31-1-2.45-.16-.89.67-1.73 1.4-2.57 2.12-.48.41-.92.86-1.39 1.28a1.13 1.13 0 0 0-.43 1v1.44c.09 3.25.23 6.51.25 9.76q.06 14.94.05 29.87c0 2.23-.06 4.45-.09 6.67v.66a5 5 0 0 0 2.76.76c1 .06 1.92 0 2.88-.07.52 0 1-.09 1.55-.08a1.78 1.78 0 0 1 .73.23.58.58 0 0 1 .07.94 1.34 1.34 0 0 1-.47.28 4.15 4.15 0 0 1-1 .23 16.65 16.65 0 0 1-5.08-.17 7.79 7.79 0 0 1-1.03-.35 11.21 11.21 0 0 1-1.11-.6 6.24 6.24 0 0 1-3.29.73 9.89 9.89 0 0 0-1.33.08 11 11 0 0 1-3.53-.12 5.38 5.38 0 0 1-1.86-.7A1 1 0 0 0 51 56a23 23 0 0 1-7.56.87h-1.22a4.18 4.18 0 0 1-2.34-.66 32.67 32.67 0 0 1-6.17.51 7.08 7.08 0 0 1-3.86-1l-.49.43a2 2 0 0 1-1.21.5c-1.14.07-2.29.14-3.43.17a17.55 17.55 0 0 1-3.32-.14 4.33 4.33 0 0 1-2.07-.82c-.19.22-.33.49-.55.61a2.15 2.15 0 0 1-.85.18l-1.66.13a25.19 25.19 0 0 1-4.43-.18c-1.37-.14-1.94-.77-2-2.19-.1-1.74-.17-3.48-.19-5.21-.05-6.59-.1-13.18-.11-19.77s0-13.25.06-19.88a2.72 2.72 0 0 1 .25-1.51.47.47 0 0 1 .35-.21.51.51 0 0 1 .34.22.87.87 0 0 1 .14.42 4.87 4.87 0 0 1 0 .66c0 1.37.11 2.74.11 4.11v26.09c0 3.74-.06 7.48-.11 11.22 0 1.37-.08 2.73-.12 4.16a1.07 1.07 0 0 0 .89.45 19 19 0 0 0 3.77.06c.63-.05 1.26-.1 1.88-.13a3 3 0 0 1 1.91.32c0-.13.1-.21.08-.26a5.44 5.44 0 0 1-.24-1.75c0-6.25-.07-12.51-.08-18.76V20.76q0-4.83.12-9.66c0-1.22.11-2.44.16-3.66v-.92c-.81-.65-1.55-1.26-2.31-1.85-.46-.37-.93-.73-1.42-1.06a1.1 1.1 0 0 0-1.6.1c-.17.13-.33.29-.5.44-.33.3-.66.59-1 .9a7.15 7.15 0 0 1-2.46 1.58 2.19 2.19 0 0 1-1.4-.81c-.27-.3-.52-.62-.79-.93A11.79 11.79 0 0 0 6.74 4c-.59-.54-.8-.56-1.45-.13a17 17 0 0 0-1.43 1.04c-.74.62-1.44 1.28-2.18 1.89a.94.94 0 0 0-.39.86c.06 1.88.1 3.77.15 5.66s.12 3.62.12 5.44q0 16.32.05 32.64a12.11 12.11 0 0 1-.2 2.88.62.62 0 0 0 .44.78 2.53 2.53 0 0 0 .86.17h2l3.55-.11a2.37 2.37 0 0 1 1.38.34.44.44 0 0 1 0 .74 1.89 1.89 0 0 1-1.21.49c-1.7.06-3.4.12-5.1.16a5.79 5.79 0 0 1-1.1-.12 2.23 2.23 0 0 1-2-1.94A16 16 0 0 1 0 51.92V23.49C0 18 .21 12.54.34 7.06a1.65 1.65 0 0 1 .39-1.12A19.18 19.18 0 0 1 4.4 2.41c.19-.12.37-.25.56-.36a1.94 1.94 0 0 1 2 0A6.2 6.2 0 0 1 8.19 3c.43.41.78.89 1.17 1.33l.77.88L12.28 3a9.63 9.63 0 0 1 .8-.77 2.31 2.31 0 0 1 3-.2 25.14 25.14 0 0 1 2.05 1.51 10.24 10.24 0 0 1 .92.81c.27.25.52.51.8.81l.58-.58a24 24 0 0 1 3-2.76 4.15 4.15 0 0 1 1.26-.67 2.29 2.29 0 0 1 2.31.71c.68.73 1.32 1.49 2 2.24l.36.4c.86-.78 1.67-1.53 2.51-2.26A8.45 8.45 0 0 1 33 1.45a2.68 2.68 0 0 1 2.64-.17c.1.05.21.08.31.14A10 10 0 0 1 39.51 5a2.05 2.05 0 0 1 .16.41.4.4 0 0 1-.38.45 1.6 1.6 0 0 1-.62-.18c-.55-.38-1.08-.78-1.6-1.19-.28-.23-.52-.52-.79-.77a5.67 5.67 0 0 0-.59-.51c-1.15-.83-1.6-.83-2.68 0-.89.66-1.73 1.39-2.59 2.09l-.69.57a.92.92 0 0 1-1.22 0 8.71 8.71 0 0 1-1.14-1.05c-.41-.42-.78-.89-1.18-1.32a3.59 3.59 0 0 0-.58-.52.65.65 0 0 0-.73-.06 5.51 5.51 0 0 0-.67.38c-.57.41-1.14.83-1.69 1.26l-2.43 1.89v1.76c0 .59.08 1.47.1 2.21.31 13.51.21 27 .16 40.53 0 1.33-.07 2.66-.1 4a2.41 2.41 0 0 0 .6.16c.78.06 1.55.13 2.33.12 1.33 0 2.66-.11 4-.16a2.89 2.89 0 0 0 1.38-.35.93.93 0 0 0 .53-.9v-2.66c-.09-5.33-.09-10.7-.22-16.06q-.2-12.27-.12-24.54a14.47 14.47 0 0 1 .35-3.08 1.19 1.19 0 0 1 .15-.41.34.34 0 0 1 .27-.15.62.62 0 0 1 .37.18.8.8 0 0 1 .14.41 23.4 23.4 0 0 1 .32 2.75c0 5.26.06 10.51 0 15.77 0 7.22-.14 14.43-.22 21.65 0 1.85-.08 3.7-.11 5.55v1.12a6.48 6.48 0 0 0 2.88.76 22.58 22.58 0 0 0 2.36-.11c.92-.06 1.84-.19 2.77-.24.47 0 .95.05 1.43.06a2.58 2.58 0 0 0 .52-.09 3 3 0 0 1-.46-1.73v-.78c0-6.22-.08-12.43-.07-18.65q0-11.05.15-22.1c0-1.55.14-3.1.23-4.65 0-.42.24-.65.5-.6s.34.19.36.6c.09 1.37.23 2.74.24 4.1.09 13.48.24 26.95.12 40.42 0 .7-.08 1.41-.1 2.11a1.22 1.22 0 0 1-.67 1.19 1 1 0 0 0 1 .64c1.48 0 3 0 4.44-.08 1.25-.06 2.5-.22 3.75-.35.48 0 1-.14 1.47-.22 0-.33.05-.61 0-.9-.09-3.4-.21-6.8-.28-10.21v-6.33q0-14.82.07-29.65zm32.88 48.06a8.85 8.85 0 0 0 4 .77c1-.05 2-.14 3-.23.29 0 .58-.1.88-.14a6.52 6.52 0 0 1 .77 0c.28 0 .56.05.8.08-.1-1.93-.27-3.81-.27-5.69V6.47a5.43 5.43 0 0 1 .17-1 9.09 9.09 0 0 1 .35-.89 6.58 6.58 0 0 1-2-1.73c-.17-.2-.36-.37-.54-.56a1.54 1.54 0 0 0-1.82-.39c-.38.14-.75.31-1.12.49a15.42 15.42 0 0 0-4.38 3v1.1c0 3.11.13 6.22.15 9.32.07 8.81.29 17.61.21 26.42v8.33c0 1.25-.06 2.51-.09 3.77-.14.08-.12.23-.11.42zm-1.35.33c0-.45-.06-.78-.09-1.11s-.1-.88-.09-1.33c0-9.46-.12-18.93.1-28.4.15-6 .18-12 .27-18 0-.54.09-1.09.14-1.72a15.61 15.61 0 0 0-2.65-2.19 2.59 2.59 0 0 0-3.28.11c-1.25 1-2.41 2.06-3.56 3.06a1.86 1.86 0 0 0-.06.29c.05 3.1.16 6.21.15 9.31q0 13.54-.09 27.07c0 3.78-.11 7.55-.16 11.32a8.81 8.81 0 0 0 0 .89.7.7 0 0 0 .59.69h.44a35.25 35.25 0 0 0 6 .16c.72.04 1.44-.06 2.29-.15zm-21-.25v-2.51c-.06-13.61-.22-27.23.12-40.84 0-1.7.12-3.4.17-5.1a2.08 2.08 0 0 0 0-.26l-2.13-2A17.3 17.3 0 0 0 57.11 2C55.26 3.22 53.63 4.66 52 6c.08 3.29.22 6.54.22 9.79 0 11.66.2 23.31-.2 35 0 .92-.08 1.84-.13 2.77 0 .36 0 .73-.05 1.1a7.72 7.72 0 0 0 4 .81 16.8 16.8 0 0 0 1.88-.13 18.9 18.9 0 0 0 3.46-.51zM93.67 4.69a5.46 5.46 0 0 1 .47 2.22v1.23q0 19.59-.05 39.19c0 2.22-.11 4.44-.19 6.65 0 1.14.18 1.41 1.27 1.43a35.28 35.28 0 0 0 7.77-.66 4 4 0 0 0 0-.51c0-1.11-.06-2.22-.06-3.33V20.27c0-3.77.14-7.55.22-11.32 0-.41.06-.81.07-1.22 0-.77.06-1.55.09-2.29-.32-.25-.6-.44-.83-.66s-.49-.56-.75-.82-.73-.74-1.13-1.07a2.94 2.94 0 0 0-4.21-.12c-.85.65-1.76 1.28-2.67 1.92z" fill="#aea334" data-color="1"/>
            <path d="M65.32 48.57c-.06-.08-.15-.17-.16-.25v-1.11q-.09-13.26-.16-26.52c0-2.15.06-4.29.1-6.44 0-.23-.09-.54.34-.62a5 5 0 0 1 .1.64c0 2.37.15 4.73.15 7.1v15.54c0 3.55-.08 7.1-.13 10.65 0 .33 0 .65-.05 1z" fill="#aea334" data-color="1"/>
            <path d="M14.18 17.94a5 5 0 0 1 .1.64c.07 2 .17 3.92.18 5.88v11.87c0 1-.1 2-.16 3a4.36 4.36 0 0 1-.11.52.36.36 0 0 1-.35-.4c-.06-1.15-.16-2.29-.17-3.44V24.58c0-2 .11-4.07.18-6.1-.02-.23-.02-.48.33-.54z" fill="#aea334" data-color="1"/>
            <path d="M4.57 37.82a4.85 4.85 0 0 1-.09-.62c-.13-6.21-.42-12.42 0-18.63a1 1 0 0 1 .12-.29c.28 0 .33.16.33.35.06 1.14.14 2.29.15 3.43.05 3.48.11 7-.07 10.43-.08 1.51-.06 3-.1 4.55-.02.23.09.51-.34.78z" fill="#aea334" data-color="1"/>
            <path d="M36.28 36.13a16 16 0 0 1-.2-2.31c-.16-5.09-.11-10.18 0-15.28a6.66 6.66 0 0 1 .11-1 .29.29 0 0 1 .21-.16.34.34 0 0 1 .2.22 8.64 8.64 0 0 1 0 .88c0 3.7.09 7.39.1 11.08 0 1.84-.08 3.69-.13 5.53a1.44 1.44 0 0 1-.29 1.04z" fill="#aea334" data-color="1"/>
            <path d="M44.43 39.56a2.26 2.26 0 0 1-.19-1.29c-.07-6.29-.11-12.58 0-18.86v-2.67c0-.21.06-.42.1-.71.14.11.27.16.28.22a8.65 8.65 0 0 1 .05.88c0 3.07.11 6.14.13 9.21 0 2 0 3.92-.06 5.88 0 2.15-.05 4.29-.08 6.44a1.08 1.08 0 0 1-.23.9z" fill="#aea334" data-color="1"/>
            <path d="M22.82 35.71c-.13-.17-.24-.25-.25-.33a4.91 4.91 0 0 1-.06-.66c-.11-5-.09-10 0-15a3 3 0 0 1 .09-.66.19.19 0 0 1 .16-.11.22.22 0 0 1 .19.08.81.81 0 0 1 .1.31V32c0 1-.07 2.07-.12 3.11a4.06 4.06 0 0 1-.11.6z" fill="#aea334" data-color="1"/>
            <path d="M26.3 30.69a4.07 4.07 0 0 1-.09-.59c-.18-5.44-.28-10.87 0-16.31a1.7 1.7 0 0 1 .12-.33c.11.09.24.15.25.23a5.12 5.12 0 0 1 .06.78v15.31a3.6 3.6 0 0 1-.05.66c-.04.08-.16.14-.29.25z" fill="#aea334" data-color="1"/>
            <path d="M47.17 46.48a1.61 1.61 0 0 1-.19-.39 6.74 6.74 0 0 1 0-.77v-17.2a4.9 4.9 0 0 1 0-.77c0-.08.14-.13.24-.22a1.27 1.27 0 0 1 .12.34V46a2.22 2.22 0 0 1-.17.48z" fill="#aea334" data-color="1"/>
            <path d="M7.93 39.92c-.14-.16-.26-.23-.27-.31a10.28 10.28 0 0 1-.06-1.1V25a3.67 3.67 0 0 1 0-.66c0-.07.16-.11.25-.18.2 1.09.29 12 .13 15.06.02.2.02.4-.05.7z" fill="#aea334" data-color="1"/>
            <path d="M33.18 27c.22.31.31.38.32.47a2.55 2.55 0 0 1 0 .55v14.51a8.7 8.7 0 0 1 0 .89c0 .09-.11.16-.16.24-.27-.08-.23-.29-.23-.45 0-1.18-.07-2.36-.07-3.55 0-3.8 0-7.6.06-11.41.02-.33.04-.66.08-1.25z" fill="#aea334" data-color="1"/>
            <path d="M16.83 36.54c-.14-.23-.25-.34-.27-.46 0-.4-.07-.81-.07-1.21v-9.08a2.81 2.81 0 0 1 .06-.65c0-.08.14-.14.25-.25a2.07 2.07 0 0 1 .11.47c.09 3.5.23 7 0 10.51a5.47 5.47 0 0 1-.08.67z" fill="#aea334" data-color="1"/>
            <path d="M69.31 34.35c-.06-.09-.15-.17-.15-.26v-12.2c0-.05.09-.1.15-.15s.07 0 .16 0c0 .21.07.42.07.63.04 3.97.06 7.96-.23 11.98z" fill="#aea334" data-color="1"/>
            <path d="M86.73 6.45c.15.12.25.17.29.25a.72.72 0 0 1 0 .33c.07 4.21.18 8.43.18 12.65 0 4.37-.12 8.73-.19 13.1a8.65 8.65 0 0 1 0 .88c0 .08-.14.14-.23.22-.32-1.51-.43-20.81-.16-26.74a5.93 5.93 0 0 1 .11-.69z" fill="#aea334" data-color="1"/>
            <path d="M90.05 39.92a15.43 15.43 0 0 1-.24-2.8c-.18-8.07-.08-13.9.27-15 .09.07.22.13.23.21a2.94 2.94 0 0 1 0 .66c0 5.17.16 10.33 0 15.5 0 .37 0 .74-.07 1.1.05.07-.05.15-.19.33z" fill="#aea334" data-color="1"/>
            <path d="M77.2 13.5a2.22 2.22 0 0 1 .1.5c.07 2.29.17 4.59.16 6.88 0 4.62-.08 9.24-.14 13.86a2.17 2.17 0 0 1-.14 1.16c-.24 0-.28-.12-.29-.27 0-1-.09-1.92-.1-2.88 0-4.22-.09-8.43-.08-12.65 0-2 .1-4.06.16-6.09a4.59 4.59 0 0 1 .1-.51z" fill="#aea334" data-color="1"/>
            <path d="M77.37 50.45a4.59 4.59 0 0 1-.18-.59 6.51 6.51 0 0 1-.06-.88v-8.63a5.81 5.81 0 0 1 .14-1.09c0-.06.16-.11.25-.13s.13.07.17.12a.48.48 0 0 1 .07.2 5.11 5.11 0 0 1 0 .55v9.52a1 1 0 0 1-.39.93z" fill="#aea334" data-color="1"/>
            <path d="M80 31.86c-.13-4.17 0-8.19 0-12.22a2.27 2.27 0 0 1 .11-.46c.12.14.23.2.25.29a2.55 2.55 0 0 1 0 .55v10.87a1 1 0 0 1-.36.97z" fill="#aea334" data-color="1"/>
            <path d="M55 41.77c-.1-.09-.22-.15-.24-.23a3.21 3.21 0 0 1 0-.55c-.05-2.92-.13-5.84-.13-8.76 0-2.74.06-5.48.09-8.22v-6.33c0-.23-.08-.52.23-.67.05 0 .13.08.14.13a1.67 1.67 0 0 1 .06.44c.07 8 .36 15.91 0 23.86a1 1 0 0 1-.15.33z" fill="#aea334" data-color="1"/>
            <path d="M57.41 37.4c.12.09.21.11.23.16a1.65 1.65 0 0 1 .09.43c.13 4 .12 8 0 12.08 0 .24.07.53-.28.69a.62.62 0 0 1-.14-.23 13.84 13.84 0 0 1-.14-1.43c-.06-3.66-.14-7.32.1-11 .03-.2.09-.43.14-.7z" fill="#aea334" data-color="1"/>
            <path d="M59.91 32.69c-.12-.11-.25-.17-.26-.25a5.44 5.44 0 0 1-.08-1V19.8c0-.27-.07-.59.2-.8.26.11.22.31.22.47 0 1.15.1 2.29.11 3.44v7.54a7.48 7.48 0 0 1-.19 2.24z" fill="#aea334" data-color="1"/>
            <path d="M97.74 13a2.67 2.67 0 0 1 .23.55v1.32c0 2.59 0 5.18.09 7.76.13 6.17-.09 12.34-.15 18.51 0 .25 0 .5-.07.73-.25.07-.31-.05-.33-.21s0-.37 0-.55c-.12-6.73-.26-13.45-.14-20.17 0-2.15 0-4.29.08-6.43a2.79 2.79 0 0 1 .29-1.51z" fill="#aea334" data-color="1"/>
            <path d="M100.61 22.8c.17.27.28.38.3.5a9.71 9.71 0 0 1 .11 1.21V37.8c0 1.63-.1 3.25-.17 4.87a4.48 4.48 0 0 1-.11.6c-.35-.12-.31-.36-.32-.57 0-1.48-.09-3-.1-4.43 0-3.91-.06-7.83-.06-11.74 0-1.07.09-2.14.14-3.21a3.28 3.28 0 0 1 .21-.52z" fill="#aea334" data-color="1"/>
        </g>
    </g>
</svg>
