<?xml version="1.0" encoding="UTF-8"?>
<svg data-bbox="0 0.006 141.59 56.883" viewBox="0 0 141.63 56.9" xmlns="http://www.w3.org/2000/svg" data-type="color">
    <g>
        <g>
            <path d="M37.57 13.34a9.72 9.72 0 0 0 2.32-.11c.69 0 1.39 0 2.14.09 0-.31.07-.6.08-.89 0-1.52.08-3 .08-4.55a10 10 0 0 1 .49-2.61 2.29 2.29 0 0 1 .51-.84 5.21 5.21 0 0 1 .72-.69 19.9 19.9 0 0 1 3.68-2.47 4 4 0 0 1 3.73-.16c.3.14.6.28.89.45a16 16 0 0 1 2.92 2.2 5 5 0 0 1 .78.93 1 1 0 0 1 0 1.33.82.82 0 0 0-.17.73 32.21 32.21 0 0 1 .23 5.1v.89a.89.89 0 0 0 .13.17.21.21 0 0 0 .1 0h5a1.86 1.86 0 0 0 .36-.09 4.48 4.48 0 0 0 .07-.64V9.74c0-.82.11-1.69.18-2.54a4.06 4.06 0 0 0 .06-.77 1.8 1.8 0 0 1 .64-1.57 24.51 24.51 0 0 1 3.8-3.4 9.24 9.24 0 0 1 1.51-.77 2 2 0 0 1 1.62 0 6.09 6.09 0 0 1 1.85 1c1 .82 1.89 1.66 2.81 2.52a7.55 7.55 0 0 1 .84 1 1.12 1.12 0 0 1 .21 1.15 1.2 1.2 0 0 0-.05.54c.05 1.74.12 3.47.18 5.21v1a41.91 41.91 0 0 0 6.44 0 5.11 5.11 0 0 0 .12-.7c0-1.63 0-3.26.08-4.89v-1a1.47 1.47 0 0 1 .41-1A41.75 41.75 0 0 1 87.3 1l.54-.39A2.79 2.79 0 0 1 91.16.5a4.35 4.35 0 0 1 .65.44q1.66 1.47 3.3 3a5.58 5.58 0 0 1 .49.6 1.81 1.81 0 0 1 .32 1.14v7.11A1.06 1.06 0 0 0 96 13c.2.23.43.15.64.16h4.11a6.65 6.65 0 0 1 1 0 4.77 4.77 0 0 1 .83.28v-.48a54.15 54.15 0 0 1 .42-5.5.9.9 0 0 0-.19-.72.71.71 0 0 1 0-.92A13 13 0 0 1 107.84 1a3.76 3.76 0 0 1 4 .2 12.94 12.94 0 0 1 3.38 3.34 4.17 4.17 0 0 1 .69 2.3c.11 1.74.17 3.47.26 5.21 0 .29 0 .57.08.89 2.26.18 4.46-.23 6.72 0a7.51 7.51 0 0 0 .07-.78V7.05a3.81 3.81 0 0 1 1-2.49 18.3 18.3 0 0 1 3.55-3.15 13 13 0 0 1 1.26-.7 2.9 2.9 0 0 1 2.77.11 5.54 5.54 0 0 1 1.07.78 18.61 18.61 0 0 1 2.39 2.63 4 4 0 0 1 .77 2 54.8 54.8 0 0 1 .28 5.87c0 .25 0 .51.05.82a6.08 6.08 0 0 0 .68.06c.74 0 1.47-.09 2.21-.1a5.06 5.06 0 0 1 1.1.1.61.61 0 0 1 .54.61.66.66 0 0 1-.55.61 3.76 3.76 0 0 1-.88.09c-.78 0-1.55-.08-2.33-.11h-.64a8.48 8.48 0 0 0-.06 3.16 3.94 3.94 0 0 0 .61.06c.74 0 1.48-.08 2.22-.1a2.82 2.82 0 0 1 .86.11.62.62 0 0 1 .43.69.71.71 0 0 1-.56.61 5.29 5.29 0 0 1-.89 0h-2.33a1.67 1.67 0 0 0-.29.08 4.34 4.34 0 0 0-.11.69v4.33L136.14 39v1.25c.31 0 .56.08.8.08h3.56a2.06 2.06 0 0 1 .84.19.56.56 0 0 1 .25.44.6.6 0 0 1-.27.43 2.79 2.79 0 0 1-.86.16h-4.23a7.81 7.81 0 0 0-.13 2.41 3.9 3.9 0 0 0 .64.11h3.55a3.94 3.94 0 0 1 .77 0 .66.66 0 0 1 .49.65.63.63 0 0 1-.46.57 2.83 2.83 0 0 1-.77.06h-4.04a1.12 1.12 0 0 0-.21.9c0 2.3-.07 4.59 0 6.89a9.14 9.14 0 0 1-.52 2.34c-.07.3-.35.46-.63.59a3.3 3.3 0 0 1-1.52.22l-7.77-.07c-.48 0-1-.06-1.44-.11a2.05 2.05 0 0 1-.55-.1c-.58-.19-.76-.55-.71-1.19s0-1.11 0-1.66c0-1-.11-2-.13-3v-4.55a7.19 7.19 0 0 0-2.14-.18h-4.27c0 .34-.08.62-.08.91v7.88a1.71 1.71 0 0 1-1.32 1.7 3.18 3.18 0 0 1-.76.13c-2.25.11-4.51.22-6.76.3-.81 0-1.63 0-2.44-.06a6.8 6.8 0 0 1-1.42-.24 1.26 1.26 0 0 1-1-1.39v-8.78l-6.21-.18c-.31.29-.22.61-.22.89v6.88a6.44 6.44 0 0 1-.25 1.75 1.5 1.5 0 0 1-1.13 1.11 4.83 4.83 0 0 1-.76.13c-1.73.13-3.47.29-5.2.38-1.18.06-2.37.07-3.55 0a6.91 6.91 0 0 1-1.73-.35 2.38 2.38 0 0 1-1.45-1.4 5.27 5.27 0 0 1-.41-2.36v-6.55c-.57 0-1.08.06-1.58.07s-1 0-1.45 0-1-.1-1.55-.12a4.56 4.56 0 0 0-1.47 0v7.33a1 1 0 0 1-.41.87.55.55 0 0 0-.29.54.66.66 0 0 1-.49.67 3.7 3.7 0 0 1-1 .26c-1.8.17-3.61.31-5.42.47-.37 0-.73.06-1.1.11a14.87 14.87 0 0 1-3.65-.19 2.68 2.68 0 0 1-.83-.3 1.5 1.5 0 0 1-.9-1.6c.08-1.63 0-3.26 0-4.88v-2.39c-.94-.11-1.81 0-2.68-.07a24.61 24.61 0 0 0-2.59 0c0 .31-.08.56-.08.8v4.78a6.81 6.81 0 0 1-.54 2.24c-.11.37-.52.52-.88.6a13.54 13.54 0 0 1-1.53.25c-1.62.14-3.25.29-4.87.38a12.81 12.81 0 0 1-4.19-.15 6.45 6.45 0 0 1-.75-.22 2.14 2.14 0 0 1-1.48-2.12V47.4a1.73 1.73 0 0 0-.17-1.12h-2c-.7 0-1.31-.11-2-.17a6 6 0 0 0-.09.79v5.55a2.77 2.77 0 0 1-2.55 2.72h-.45l-6.88.19a14.73 14.73 0 0 1-2.65-.21 1.66 1.66 0 0 1-.22 0c-1.41-.4-1.63-.79-1.64-2v-5.77a1.43 1.43 0 0 0-.17-1 22.63 22.63 0 0 1-4.87 0c0 .37-.06.69-.06 1v4.77a6.55 6.55 0 0 1 0 .89.85.85 0 0 1-.91.78.87.87 0 0 1-.76-.82 8.35 8.35 0 0 1 0-1V15.79c0-3 .13-6.06.33-9.11-.32-.24-.66-.46-1-.72s-.56-.6-.87-.86a47.47 47.47 0 0 0-2.08-1.67 1.52 1.52 0 0 0-1.77-.09A23 23 0 0 0 9 4.73c-.85.64-1.67 1.33-2.56 2.05a4.61 4.61 0 0 0 0 .47c.14 15.44.42 30.87.39 46.3 0 .07.06.13.12.23a11 11 0 0 0 2.62-.06 42.79 42.79 0 0 1 5.66-.11 2.68 2.68 0 0 1 1 .25.55.55 0 0 1 0 1 2.16 2.16 0 0 1-1.16.32l-4.21.19c-1 .06-2 .14-3 .19a4.57 4.57 0 0 1-1.11-.06A2 2 0 0 1 5 53.56v-6.82a4.62 4.62 0 0 0-.66-.1H1.67a1.37 1.37 0 0 1-.95-.21.67.67 0 0 1-.28-.43.58.58 0 0 1 .28-.43 2.22 2.22 0 0 1 .85-.17h3.34a9 9 0 0 0 0-2.59c-.26 0-.47-.06-.69-.06-.92 0-1.85 0-2.77-.05a5.41 5.41 0 0 1-1-.16.56.56 0 0 1 0-1.07 6.59 6.59 0 0 1 .88-.1l3.4-.15c.31-.32.2-.67.21-1l.14-14.77c0-2 .07-3.92.1-5.89a1.68 1.68 0 0 0-.13-1c-1.29.34-2.57-.08-3.85-.06a.64.64 0 0 1-.33-.07.63.63 0 0 1-.41-.48.56.56 0 0 1 .54-.58 4.4 4.4 0 0 1 .87-.15h3c.1 0 .2 0 .36-.06a15 15 0 0 0 0-2.69 2.91 2.91 0 0 0-.63-.12H.62a.63.63 0 0 1-.62-.59c0-.32.2-.6.61-.66a6.56 6.56 0 0 1 1 0h3.48c.29-.25.22-.52.23-.77V6.78a1.15 1.15 0 0 1 .31-.91c1-.95 1.93-1.94 3-2.85a9.54 9.54 0 0 1 1.86-1.2 3.1 3.1 0 0 1 3.26.15 17.21 17.21 0 0 1 3.65 3.21 1.46 1.46 0 0 1 .4.9c.08 2 .17 4.07.26 6.1 0 .25.05.5.08.78 1.77.2 3.5-.23 5.28 0 0-.32.08-.6.08-.89 0-1.33.05-2.66.09-4a4.14 4.14 0 0 1 .13-1 .35.35 0 0 1 .41-.28.62.62 0 0 1 .41.3 2.41 2.41 0 0 1 .1.76c.05 1.44.12 2.89.14 4.33.09 4.59.21 9.18.23 13.76v26.32a2.36 2.36 0 0 0 .11 1.18 46 46 0 0 0 8.74.06 4.17 4.17 0 0 0 2.14-.41v-1.95q0-20.2.08-40.42c0-1.29.2-2.57.31-3.94a26.8 26.8 0 0 0-3.4-3.23L32.08 3a1.65 1.65 0 0 0-1.69-.11c-.39.19-.81.36-1.19.58-.82.49-1.62 1-2.45 1.52-.5.31-1 .59-1.55.85a1.78 1.78 0 0 1-.74.17.73.73 0 0 1-.46-.27.37.37 0 0 1 .11-.49 4.72 4.72 0 0 1 .59-.5L28.61 2a6.61 6.61 0 0 1 1.81-.83 2.59 2.59 0 0 1 2 .17c.55.29 1.09.62 1.61 1a12.42 12.42 0 0 1 2.64 2.53 2 2 0 0 1 .54 1.73 3.54 3.54 0 0 0 .06 1.21 27.35 27.35 0 0 1 .22 4.43c.04.3.06.67.08 1.1zM83 6.62c0 1.09.06 2.16.08 3.23.1 4.4.27 8.8.29 13.2v29.08a11.65 11.65 0 0 1-.13 2.51c.63.43.66.47 1.1.51a18.66 18.66 0 0 0 2.11.12c2.47-.11 5-.26 7.42-.4a3.46 3.46 0 0 0 .62-.14c-.29-16.39.19-32.73.24-49-1.1-1-2.12-1.88-3.17-2.77a14.45 14.45 0 0 0-1.42-1.05 1.1 1.1 0 0 0-1.35 0c-.62.45-1.27.88-1.87 1.37-1.24 1.11-2.51 2.19-3.92 3.34zM54.46 53.77c0-.66-.06-1.24-.05-1.83q.09-21 .19-42.07A13.81 13.81 0 0 1 54.79 7a2.94 2.94 0 0 0 .06-.78 1 1 0 0 0-.23-.59 17.16 17.16 0 0 0-3.7-2.8 2.64 2.64 0 0 0-2.65 0 31.08 31.08 0 0 0-3.77 2.33 5.27 5.27 0 0 0-.51.43 2.43 2.43 0 0 0-.75 1.87q.23 7.88.35 15.76v30.69a2.3 2.3 0 0 0 1.2.37c.63 0 1.26.08 1.89 0 1.77-.11 3.54-.25 5.31-.38zm8.37-47.36c0 .33.05.62.07.91.05.74.16 1.47.16 2.21 0 4.48.1 9 .11 13.43q.06 14.25.08 28.52a15.91 15.91 0 0 1-.12 3.08 1.76 1.76 0 0 0 .34.12 27 27 0 0 0 4.22-.06 44.19 44.19 0 0 1 5.75-.38 3 3 0 0 0 .46 0c0-1.1-.1-2.13-.1-3.16 0-11.95-.14-23.9.16-35.84.07-3 .16-5.9.3-8.81-.83-.72-1.63-1.43-2.44-2.12-.59-.51-1.17-1-1.79-1.5a2.06 2.06 0 0 0-2.73 0 47.83 47.83 0 0 0-4.47 3.6zm52.22 0-1.12-1.07c-.52-.52-1-1.07-1.57-1.56a12.89 12.89 0 0 0-1.67-1.27 1.85 1.85 0 0 0-1.91-.07l-.78.41a14.34 14.34 0 0 0-3.87 3.28 1 1 0 0 0-.23.82c.08.85.19 1.69.21 2.54.07 2.41.14 4.81.15 7.21 0 12.64.1 25.28 0 38a19.41 19.41 0 0 0 2.75.14l2.55-.11c1.55-.07 3.1-.14 4.65-.23a1.05 1.05 0 0 0 .34-.13v-1l.12-27.52q0-7.09.07-14.2c0-1.11.1-2.22.16-3.32.1-.62.1-1.25.15-1.9zm19.69 48.09v-.92c0-2.44-.1-4.88-.1-7.32q0-17.26-.06-34.53c0-1.63.09-3.25.13-4.88v-.78c-.56-.64-1.11-1.29-1.69-1.92s-1-1-1.48-1.5a1.88 1.88 0 0 0-2.54-.33 13.13 13.13 0 0 0-2.56 1.74L124.29 6v1.31c0 4.41.13 8.81.15 13.21q.06 15.43.07 30.87c0 .84-.1 1.69-.14 2.54 0 .25-.14.51.1.78a3.63 3.63 0 0 0 .39 0c2.74 0 5.47 0 8.21-.08.56 0 1.08-.08 1.67-.13zm-18.39-14.39a2 2 0 0 0 .46.08c1.85 0 3.69-.09 5.54-.15a2 2 0 0 0 .46-.11V27.94c0-2.92.08-5.84.11-8.76a4.08 4.08 0 0 0 0-.67h-6.04a.66.66 0 0 0-.68.25c.06 7.03.11 14.16.15 21.35zm-20.3-21.39c0 .33-.06.61-.06.9 0 1.37.06 2.74.07 4.11 0 5.25.08 10.5.13 15.75 0 .33-.1.67.15 1a59.23 59.23 0 0 0 6.21-.08V19.34a5 5 0 0 0-.12-.58zM81.55 40.2c0-.06.1-.12.1-.18l.06-20.63a1.53 1.53 0 0 0-.11-.39c-2-.08-4 .13-6.09 0v20.47c0 .28-.08.6.16.82zm-25.32.08a20.3 20.3 0 0 0 2.64-.13 5.26 5.26 0 0 1 2.13.05 2 2 0 0 0 .43 0 2.75 2.75 0 0 0 .07-1.2c0-5.36.06-10.71.09-16.07v-3.54c0-.21 0-.45-.23-.6-1.72.35-3.48-.16-5.21 0-.06.12-.13.18-.13.24q0 10.36.1 20.72a3.88 3.88 0 0 0 .11.53zm-38.1-22v20.94a2.59 2.59 0 0 0 .12 1.22c1.64.05 3.25 0 4.82 0 .07-.14.14-.2.14-.26q0-10.65.07-21.3a1.65 1.65 0 0 0-.1-.38 30.9 30.9 0 0 1-4.51-.22 4.08 4.08 0 0 0-.54.03zm19.46.44v1.18q0 9.66.11 19.32v.33c0 .11 0 .42.07.61a18.63 18.63 0 0 0 4 0 2 2 0 0 0 .11-1.07v-8.33c0-3.73 0-7.47.06-11.21 0-.35.11-.72-.14-1.06-1.36.51-2.74.05-4.21.26zM61.5 45.59v-2.11a7.1 7.1 0 0 0-.11-2.06c-.56 0-1.07.14-1.58.14s-1-.1-1.54-.13-1-.06-1.44-.06a4.42 4.42 0 0 0-.66.1v3.81a1.56 1.56 0 0 0 .13.35c1.7.05 3.37-.11 5.2-.04zm20.34-31.26c-.38 0-.64-.06-.89-.06h-5.32c-.06 0-.13.07-.25.14s0 .31 0 .49c0 .74.05 1.48.1 2.21a3.85 3.85 0 0 0 .11.57h1.73l3.77.09a6.23 6.23 0 0 0 .67-.09c.01-1.11.04-2.17.08-3.35zm-.19 27.32h-3.09c-.99 0-2-.15-3-.08a8.19 8.19 0 0 0 0 1.7 4 4 0 0 0 .13 1.67 21.09 21.09 0 0 0 3.08-.09 8.1 8.1 0 0 1 2.2 0 4.06 4.06 0 0 0 .7 0c.03-1.08.02-2.09-.02-3.2zm34.57-24.44h3.46a22.45 22.45 0 0 1 3.35.11 20.35 20.35 0 0 0-.11-3l-6.25-.27a2.31 2.31 0 0 0-.46.09 27.91 27.91 0 0 0 .01 3.07zm-54.61-3c-1.91-.1-3.7-.1-5.56-.07v2.24c0 .36-.11.75.19 1.11.85 0 1.74-.05 2.61-.1s1.82.05 2.77 0a20.52 20.52 0 0 0-.01-3.16zm40.88-.18c-.38.5-.87.44-1.35.44h-5.13a13 13 0 0 0 0 2.79 2.74 2.74 0 0 0 .36.08l3.11-.11a11.36 11.36 0 0 1 3 .11 9.73 9.73 0 0 0 .01-3.29zm13.86 30.14a34.44 34.44 0 0 0 6.45-.13 16.69 16.69 0 0 0 0-1.74v-.63a1.6 1.6 0 0 0-.37-.1l-5.76-.16c-.06 0-.13.06-.24.11a2.09 2.09 0 0 0-.07.39zM23.13 41.7c-1.61.13-3.23-.17-5 0a30.62 30.62 0 0 0 .08 3.45 2.42 2.42 0 0 0 .48 0 7 7 0 0 1 2.1 0 12.53 12.53 0 0 0 2.29 0 10.44 10.44 0 0 0 .05-3.45zm73.11 2.65c.12.06.19.12.25.12h5.85a.18.18 0 0 0 .09 0l.12-.11a12.77 12.77 0 0 0 0-2.39c-.44 0-.84.1-1.23.1-1.51 0-3-.07-4.53-.11-.17 0-.37-.05-.55.19a14.94 14.94 0 0 0 0 1.79 3.28 3.28 0 0 0 0 .41zM23.41 14.23h-4.66a6.66 6.66 0 0 0-.67.08 18.43 18.43 0 0 0 .06 2.79 2.86 2.86 0 0 0 1.36 0 16.8 16.8 0 0 1 3.4-.1 1.44 1.44 0 0 0 .43-.09c.03-.86.05-1.7.08-2.68zm18.43 27.51a15 15 0 0 0-4.07 0 10.35 10.35 0 0 0 0 3.16 7 7 0 0 0 1.94-.11 8.64 8.64 0 0 0 2.1 0 15.83 15.83 0 0 0 .03-3.05zm.07-27.1c-.1 0-.16-.06-.23-.05a8.86 8.86 0 0 1-2.86 0 2.23 2.23 0 0 0-1.25 0 12.78 12.78 0 0 0 .07 2.76h2.9c.26 0 .44 0 .66.07l.76.16v-2.61a.75.75 0 0 0-.05-.33z" fill="#f3e0b5" data-color="1"/>
            <path d="M29.55 40c-.07-.07-.17-.14-.19-.23a4.78 4.78 0 0 1 0-.66V24.33a5.06 5.06 0 0 1 .05-.77c0-.08.13-.15.23-.26a1.06 1.06 0 0 1 .13.32c.2 5.4.21 10.8 0 16.19-.06.05-.15.1-.22.19z" fill="#f3e0b5" data-color="1"/>
            <path d="M13.43 16.75a2.93 2.93 0 0 1 .09.59c0 4.69.18 9.38 0 14.26-.2-.22-.34-.3-.35-.4a5.21 5.21 0 0 1-.06-.88V17.55a2.55 2.55 0 0 1 0-.55c.06-.08.18-.13.32-.25z" fill="#f3e0b5" data-color="1"/>
            <path d="M9.78 27.17c-.28-4 0-7.82 0-11.69a1 1 0 0 1 .25-.59 1.23 1.23 0 0 1 .13.29 3.38 3.38 0 0 1 0 .55v10.3a5.14 5.14 0 0 1-.07.88c-.02.09-.15.09-.31.26z" fill="#f3e0b5" data-color="1"/>
            <path d="M92 17.56a2.32 2.32 0 0 1 .2.53 6.49 6.49 0 0 1 .05.88v16.31c0 .48 0 1-.08 1.44a1.54 1.54 0 0 1-.17.42 1.61 1.61 0 0 1-.2-1.14c0-1.18-.09-2.36-.08-3.55V19.58c0-.52 0-1 .08-1.55a2.63 2.63 0 0 1 .2-.47z" fill="#f3e0b5" data-color="1"/>
            <path d="M86.59 38.67c-.09-.14-.17-.22-.18-.3a4.93 4.93 0 0 1 0-.67V13.63a1.29 1.29 0 0 1 .16-.88c.09.09.22.14.22.22a6.48 6.48 0 0 1 0 .88v24.52c-.03.08-.12.16-.2.3z" fill="#f3e0b5" data-color="1"/>
            <path d="M47.8 10.79c.16.11.3.16.31.23a6.74 6.74 0 0 1 0 .77v24.62a2 2 0 0 1-.11 1.14c-.32-.06-.27-.27-.27-.43 0-1.55-.08-3.11-.08-4.66q0-10.37.07-20.73c.01-.29.05-.57.08-.94z" fill="#f3e0b5" data-color="1"/>
            <path d="M51.14 38c-.1-.11-.21-.18-.23-.26a2.55 2.55 0 0 1 0-.55c0-2.48-.09-5-.08-7.43 0-3.77.05-7.54.08-11.31v-1c0-.08.12-.15.19-.23.07.08.15.13.15.18.1 6.76.4 13.52 0 20.28a1.06 1.06 0 0 1-.11.32z" fill="#f3e0b5" data-color="1"/>
            <path d="M69.49 45.49c-.31-.31-.21-.62-.21-.89-.28-14.86-.28-23.54.13-25.11.18 0 .25.1.27.26s0 .22 0 .33c.18 6 .32 12 .1 18.06-.08 2.07-.06 4.14-.11 6.21a1.61 1.61 0 0 1-.18 1.14z" fill="#f3e0b5" data-color="1"/>
            <path d="M66.62 9.65c0 .09.13.17.14.26a3.38 3.38 0 0 1 0 .55v20.32a2.71 2.71 0 0 1-.13 1.14c-.12-.09-.25-.14-.25-.19v-21.2c0-.29 0-.58.06-.87z" fill="#f3e0b5" data-color="1"/>
            <path d="M107.82 38.1c-.41-2.22-.54-19.65-.2-23.67a5.4 5.4 0 0 1 .14-.72.33.33 0 0 1 .37.37c.06 1.22.15 2.44.17 3.66v7.54c0 3.89-.12 7.77-.2 11.65a1.5 1.5 0 0 1-.28 1.17z" fill="#f3e0b5" data-color="1"/>
            <path d="M112.25 36.84a16.22 16.22 0 0 1-.37-3.69c0-4 0-8.11.22-12.17 0-.21.07-.41.11-.63.11 0 .21.06.23.1a1.24 1.24 0 0 1 .11.42c.14 4.13.3 8.26.22 12.39 0 1-.14 2-.23 3a2.73 2.73 0 0 1-.29.58z" fill="#f3e0b5" data-color="1"/>
            <path d="M131.4 20.34c.17.27.24.33.24.39.08 1.81.19 3.62.22 5.43 0 3.84.06 7.69-.22 11.53a.69.69 0 0 1-.1.19c-.19 0-.27-.07-.28-.23-.08-1.7-.19-3.4-.22-5.1v-5.88c0-1.96.12-3.77.19-5.65a4.62 4.62 0 0 1 .17-.68z" fill="#f3e0b5" data-color="1"/>
            <path d="M126.92 34.2c-.08-.09-.18-.16-.2-.25a3.94 3.94 0 0 1-.08-.77c0-3.81-.34-7.61-.2-11.43 0-1 .07-1.92.11-2.88a5.11 5.11 0 0 1 0-.55c0-.16.16-.29.31-.24a.51.51 0 0 1 .28.28 2.5 2.5 0 0 1 0 .55c0 .67.05 1.33.06 2 0 1 .07 2.07 0 3.1q-.09 4.56-.23 9.1a1.76 1.76 0 0 1-.05 1.09z" fill="#f3e0b5" data-color="1"/>
        </g>
    </g>
</svg>
