<?xml version="1.0" encoding="UTF-8"?>
<svg data-bbox="0 -0.039 119.26 94.134" viewBox="0 0 119.23 94.12" xmlns="http://www.w3.org/2000/svg" data-type="color">
    <g>
        <g>
            <path d="M102.87 1.38a4 4 0 0 1 2.27-.72 72.7 72.7 0 0 1 10.54 0 13.66 13.66 0 0 1 2.17.43.81.81 0 0 1 .3.13.68.68 0 0 1 .37.74.63.63 0 0 1-.51.52 1.6 1.6 0 0 1-.65 0 39.48 39.48 0 0 0-5.64-.37c-2.26 0-4.52-.05-6.78-.06a2.72 2.72 0 0 0-1.26.18 3.24 3.24 0 0 0 0 .62 43 43 0 0 1 .32 6.26q.06 27.59.1 55.19v25.65a11.54 11.54 0 0 0 .14 1.43c0 .36.11.72.17 1.14a3.19 3.19 0 0 0 .62.08c1.26 0 2.51-.1 3.77-.15l1.11-.06 6.32-.26c.44 0 .88-.1 1.21-.14.44-.28.14-.81.58-1 .09 0 .09-.33.09-.51V86.7c-.07-7.77-.1-15.54-.2-23.31-.23-17.47-.1-34.94-.09-52.42 0-1.88 0-3.77.07-5.66a4.68 4.68 0 0 1 .09-1 2.06 2.06 0 0 1 .37-.66c.1-.13.38-.09.5 0a1.32 1.32 0 0 1 .41.88v32.43q0 16-.09 32.09c0 7-.13 13.92-.2 20.88a1.81 1.81 0 0 1-.37 1.34 4.61 4.61 0 0 1 .36.54 1.16 1.16 0 0 1-.62 1.65 2 2 0 0 1-.53.17c-.66.08-1.32.19-2 .21q-4 .12-8 .21a14.38 14.38 0 0 1-4-.5 3.77 3.77 0 0 1-2.16.54H91.21a7.83 7.83 0 0 1-2.83-.44 1.17 1.17 0 0 0-.53-.05c-3.7.23-7.4.32-11.1.22a6.4 6.4 0 0 1-2.94-.63 3.72 3.72 0 0 1-2 .51 91 91 0 0 1-9.81-.04 7.8 7.8 0 0 1-3-.66 3.79 3.79 0 0 1-1.87.39h-2.78c-1.33 0-2.66-.09-4-.16-1.07-.06-2.14-.16-3.21-.25a2 2 0 0 1-.54-.12 3.78 3.78 0 0 0-2.48-.16 1.62 1.62 0 0 1-.44 0c-2.56 0-5.11-.08-7.66-.09-.85 0-1.7.09-2.55.11a7.74 7.74 0 0 1-2-.09 8.79 8.79 0 0 0-2.17-.22c-1.11 0-2.23-.08-3.33 0-2.22.08-4.44.2-6.65.34a7 7 0 0 1-2.2-.18A2.89 2.89 0 0 1 15 89.66a6.77 6.77 0 0 0 0-.78q0-39.19.08-78.4c0-2 .13-3.92.14-5.88a2.72 2.72 0 0 1 2.55-2.83A8.25 8.25 0 0 1 19 1.68q3.88-.13 7.77-.24h1.55a4.44 4.44 0 0 1 2.36.7 7.64 7.64 0 0 1 3.49-.84 59.2 59.2 0 0 1 7.65-.23 8.29 8.29 0 0 1 3.07.62 6.18 6.18 0 0 1 3.53-1c1 0 2.07-.05 3.11-.09l3.1-.1A9.09 9.09 0 0 1 57 .6l1.73.4a4.25 4.25 0 0 1 3-.81h8.88a7.59 7.59 0 0 1 3.08.48A5.37 5.37 0 0 1 77 0l7.09.33c.6 0 1.19.06 1.78.07a5.88 5.88 0 0 1 2.6.55 6.05 6.05 0 0 1 3.05-.72A46.1 46.1 0 0 1 99 .44a11 11 0 0 1 3.87.94zm0 1.39a1.4 1.4 0 0 0-.33-.13l-2.2-.25c-.51-.06-1-.16-1.54-.22-2.8-.29-5.61-.31-8.42-.34a4.93 4.93 0 0 0-1.86.26 2.9 2.9 0 0 1-1 .11c-.85 0-1.71-.05-2.56-.09l-9-.43a10.23 10.23 0 0 0-1.11 0 1.72 1.72 0 0 0-1.09.46c.11.84.26 1.56.28 2.29.08 2.52.15 5 .16 7.55q.06 29.36.11 58.73c0 6.77 0 13.54-.07 20.32a7.2 7.2 0 0 0 .1 1 4.63 4.63 0 0 0 1.44.27h10.87c.5 0 1 .27 1.51-.07a.32.32 0 0 1 .3.08 1.36 1.36 0 0 0 1.12.35h11.88a3.94 3.94 0 0 0 .77-.08.79.79 0 0 0 .57-1.18 2.22 2.22 0 0 1-.29-1.27c0-3.66-.08-7.33-.08-11q0-35.93.11-71.84c0-.77.08-1.55.13-2.32zM73 91.69a5.81 5.81 0 0 1-.24-.9 6.69 6.69 0 0 1 0-1c0-5.89-.1-11.77-.1-17.65q0-19.22.08-38.42 0-13.54.08-27.1a25.39 25.39 0 0 1 .42-4.4A17.7 17.7 0 0 0 70.15 2c-2.78 0-5.56 0-8.33-.22a17.39 17.39 0 0 0-1.77 0 3.72 3.72 0 0 0-.59.08v1.13c.06 3.48.16 7 .19 10.43.07 11.55.15 23.1.16 34.64 0 14.33.21 28.65-.18 43v.33a.57.57 0 0 0 .55.59c.88.09 1.77.22 2.65.23h8.33a6.19 6.19 0 0 0 1.18-.21 3.19 3.19 0 0 0 .66-.31zM30 91a1.45 1.45 0 0 0 .1-.52 20.61 20.61 0 0 1-.1-3.35V17.78l.32-13.65c0-.21 0-.42-.05-.69a31.32 31.32 0 0 0-3.57-.24c-2.44.07-4.88.11-7.33.18-.62 0-1.25.1-1.87.16a1.5 1.5 0 0 0-.92.46 3.73 3.73 0 0 0 0 .5c0 4.85.15 9.7.17 14.55q.06 15.54.07 31.09v40.08a4.51 4.51 0 0 0 .07.53A2.31 2.31 0 0 0 18 91h1.44c1.7-.1 3.4-.23 5.1-.32 1.1 0 2.22-.07 3.32 0A16.62 16.62 0 0 1 30 91zm1.26-87.87v1.08c0 1 .1 2 .12 3 .08 4.25.21 8.51.21 12.76v65.28a44.57 44.57 0 0 1-.15 5.54c0 .07 0 .14.06.21.3.23.63.13 1 .12 1.63-.08 3.25-.19 4.88-.24a44.42 44.42 0 0 1 5.88.15l1.56.2a1.88 1.88 0 0 1-.56-1.53v-3q0-28 .06-56 0-9.33.12-18.65c0-2.63.12-5.26.17-7.88v-1a19.86 19.86 0 0 0-5.13-.35 60.5 60.5 0 0 0-8.22.31zm27.2-.84a1.92 1.92 0 0 0-.37-.08h-9.77c-.63 0-1.18 0-1.76.1-1 .12-1.11.29-1.09 1.29 0 1.44.11 2.88.13 4.32.08 5.07.16 10.14.19 15.21q.06 8.82.05 17.65v48.28a8.24 8.24 0 0 1 0 1.11 7.09 7.09 0 0 1-.31 1 2.76 2.76 0 0 0 1.38.28c2.89.08 5.77.15 8.65.24.56 0 1.11.08 1.66.13a3.07 3.07 0 0 0 1.09 0v-2.25c-.05-2.37-.14-4.73-.15-7.1V49.62c0-11.25-.1-22.5.15-33.74.09-4.3.15-8.59.22-12.88-.04-.21-.06-.46-.07-.71z" fill="#aea334" data-color="1"/>
            <path d="M1.64 4.34a2.1 2.1 0 0 0-.11.46c.43 28.71 0 57.42-.14 86.13 0 .06.06.13.11.23a4.55 4.55 0 0 0 1.61.14l9.89-.08h1.11a1.66 1.66 0 0 1 .54.1.61.61 0 0 1 .43.58.54.54 0 0 1-.34.53 4.89 4.89 0 0 1-1.17.29c-1.52.11-3 .21-4.55.25s-3.18 0-4.77 0a19.05 19.05 0 0 1-2-.16 3.94 3.94 0 0 1-.95-.26 1.36 1.36 0 0 1-.95-1.45v-5.66c-.09-10-.2-20.06-.24-30.08Q0 36 0 16.62c0-4 .1-7.92.16-11.88a5.06 5.06 0 0 1 0-.55 1.12 1.12 0 0 1 .57-.9A2.53 2.53 0 0 1 2 2.86h10.77a2.84 2.84 0 0 1 .65.1.56.56 0 0 1 .22 1 2.09 2.09 0 0 1-.87.43 10.82 10.82 0 0 1-1.87.21H5.57c-.88 0-1.77-.12-2.65-.19z" fill="#aea334" data-color="1"/>
            <path d="M107.7 75.84a7.61 7.61 0 0 1-.21-1.87c0-1.81-.08-3.63-.08-5.44q0-20.37.06-40.74c0-1.67 0-3.33.09-5a5.62 5.62 0 0 1 .08-.73c.24 0 .31.08.31.23v1.33c0 9.81.09 19.61.1 29.42v19.21c0 .89 0 1.77-.07 2.66a1.52 1.52 0 0 1-.28.93z" fill="#aea334" data-color="1"/>
            <path d="M7.91 40.81v-.77c-.06-4.73-.14-9.47-.17-14.2V14.63a6.6 6.6 0 0 1 .11-1.09c0-.06.15-.13.24-.14s.14.07.15.13a3.5 3.5 0 0 1 .08.65v3L8.3 38.93c0 .52 0 1-.06 1.55a1.14 1.14 0 0 1-.13.38z" fill="#aea334" data-color="1"/>
            <path d="M113.61 43.67a1.74 1.74 0 0 1-.35-1.22c0-1.08-.06-2.15-.06-3.22q0-7.83.07-15.65c0-.41 0-.82.06-1.22a2.06 2.06 0 0 1 .21-.5 2.76 2.76 0 0 1 .17.54c0 .36.05.73.05 1.1v17.88c0 .59 0 1.18-.08 1.77a3.46 3.46 0 0 1-.07.52z" fill="#aea334" data-color="1"/>
            <path d="M6.05 45.11a5.22 5.22 0 0 1 .12.66 134.55 134.55 0 0 1-.06 16.43 3.09 3.09 0 0 1-.34-.44.91.91 0 0 1 0-.33c-.07-3.1-.3-6.19-.22-9.29.06-2.11.14-4.21.21-6.31-.02-.24-.06-.51.29-.72z" fill="#aea334" data-color="1"/>
            <path d="M112.94 60.68a1.24 1.24 0 0 1 .16.38c0 .33 0 .66.05 1 .07 1.77.17 3.54.2 5.32 0 1.59 0 3.18-.08 4.77 0 .66-.07 1.33-.14 2a3.84 3.84 0 0 1-.26.8 5.08 5.08 0 0 1-.25-.93 56.19 56.19 0 0 1-.19-6.87c.12-1.51.11-3 .15-4.55a4.43 4.43 0 0 1 .36-1.92z" fill="#aea334" data-color="1"/>
            <path d="M11.3 35.6a18.87 18.87 0 0 1-.23-3.24c0-3.76-.19-7.53.14-11.29a1.28 1.28 0 0 1 .13-.39c.28.05.31.23.32.42 0 1 .1 2 .1 3 0 3.43 0 6.87-.09 10.3a6.5 6.5 0 0 1-.08 1c-.01.05-.15.1-.29.2z" fill="#aea334" data-color="1"/>
            <path d="M87.64 47.38V5.53a9.49 9.49 0 0 1 .19-2.32c.07-.3.15-.58.52-.62s.54.18.62.64a15.13 15.13 0 0 1 .21 2.43v50.29c0 7.51 0 15-.08 22.53 0 3.81-.09 7.62-.13 11.44a8.65 8.65 0 0 1 0 .88.54.54 0 0 1-.55.45.53.53 0 0 1-.53-.47 6.49 6.49 0 0 1 0-.88c0-3.11-.11-6.22-.12-9.33Q87.6 64 87.55 47.38z" fill="#aea334" data-color="1"/>
            <path d="M93.56 65.19a4.21 4.21 0 0 1-.11-.6v-3c-.26-14-.17-28-.1-41.94 0-2 .07-3.92.12-5.88 0-.24-.08-.54.37-.63a6 6 0 0 1 .13.72c0 1.37.12 2.74.12 4.1v41.73c0 1.66-.09 3.32-.14 5 0 .17-.06.34-.08.52z" fill="#aea334" data-color="1"/>
            <path d="M78.51 21.85a1.67 1.67 0 0 1 .16.36v1c0 3.11.1 6.22.13 9.32s.07 6.14.05 9.21q-.09 17.09-.22 34.17a2.6 2.6 0 0 1-.17 1.37c-.1-.14-.18-.21-.19-.29v-.88c-.09-12.61-.2-25.23-.24-37.84 0-5 .12-10 .19-15.08a2.15 2.15 0 0 1 .29-1.34z" fill="#aea334" data-color="1"/>
            <path d="M97.1 69.78A6.23 6.23 0 0 1 97 69c-.26-6.27-.29-12.55 0-18.82 0 0 .09-.1.17-.18.07.07.17.13.19.21a2.12 2.12 0 0 1 0 .44q.36 9 0 18.05a1.38 1.38 0 0 1-.26 1.08z" fill="#aea334" data-color="1"/>
            <path d="M97.77 23.77a3.07 3.07 0 0 1 .15.55 135.18 135.18 0 0 1-.12 14.78c-.17-.15-.29-.21-.3-.28a8.87 8.87 0 0 1-.06-.89c-.06-1.8-.12-3.61-.17-5.42V30.3c0-1.89.09-3.77.14-5.65a3.67 3.67 0 0 1 0-.66c.08-.07.22-.12.36-.22z" fill="#aea334" data-color="1"/>
            <path d="M84 49.6c.14.11.27.15.29.23a3.6 3.6 0 0 1 0 .66c.06 1.92.11 3.83.16 5.75v1.22c0 2.25-.09 4.5-.15 6.75a1.35 1.35 0 0 1-.2 1c-.07-.06-.18-.11-.2-.19a1.54 1.54 0 0 1 0-.43c0-3.14-.13-6.28-.14-9.41 0-1.66.09-3.32.15-5a3.77 3.77 0 0 1 .09-.58z" fill="#aea334" data-color="1"/>
            <path d="M83.53 39.9c-.19-1-.28-14-.12-17.85a1 1 0 0 1 .26-.6 1 1 0 0 1 .12.29v17.17a4.9 4.9 0 0 1 0 .77c-.04.08-.17.13-.26.22z" fill="#aea334" data-color="1"/>
            <path d="M64.49 21.32a5.42 5.42 0 0 1 .11.78c.07 2.55.18 5.1.18 7.65 0 5.11 0 10.21-.08 15.32 0 1.67-.08 3.33-.12 5 0 .17 0 .35-.06.59-.15-.08-.3-.12-.31-.18 0-.33-.06-.66-.07-1 0-2.74 0-5.48-.06-8.22C64 37.68 64 34.09 64 30.5c0-2.85.11-5.69.18-8.54-.03-.24-.08-.53.31-.64z" fill="#aea334" data-color="1"/>
            <path d="M68 49.56c.17.16.29.22.3.3a8.21 8.21 0 0 1 0 1c0 3.74.07 7.48.11 11.22 0 2.29.07 4.58 0 6.88s-.1 4.66-.17 7c0 .27.08.59-.3.86a6.06 6.06 0 0 1-.12-.67c-.07-3.25-.2-6.51-.2-9.76 0-5.29.13-10.59.2-15.88.05-.3.1-.57.18-.95z" fill="#aea334" data-color="1"/>
            <path d="M69.61 39.25c0-.09-.13-.18-.14-.26-.22-6.48-.24-13 0-19.42 0-.09.09-.17.17-.32.1.12.19.18.21.27a2.12 2.12 0 0 1 0 .44c.21 6.17.23 12.35 0 18.53 0 .25 0 .5-.08.75z" fill="#aea334" data-color="1"/>
            <path d="M23.1 71.2c-.07-.1-.17-.17-.19-.26a3.6 3.6 0 0 1-.06-.66c0-3.43-.26-6.86-.19-10.3.08-3.8.12-7.61.18-11.41a6.48 6.48 0 0 1 .06-.77c0-.08.13-.15.21-.24.32 1 .38 3.37.39 15.48 0 4.62-.12 7.27-.4 8.16z" fill="#aea334" data-color="1"/>
            <path d="M22.81 34.41c0-.22-.06-.43-.07-.65-.09-5.1-.16-10.21 0-15.32a2.6 2.6 0 0 1 .11-.34c.11.08.25.12.26.19a4 4 0 0 1 .07.77v14.32c0 .36.05.73-.37 1.03z" fill="#aea334" data-color="1"/>
            <path d="M26.08 28.8c0 .37.08.65.09.93.27 8.24.25 11.18-.1 12.94-.27.06-.3-.14-.31-.3a10.32 10.32 0 0 1-.06-1.11V29.64a2 2 0 0 1 .05-.55c.05-.09.17-.09.33-.29z" fill="#aea334" data-color="1"/>
            <path d="M35.46 18.67c.33.06.32.24.33.37v1.22Q36 40.63 35.81 61c0 .55 0 1.11-.06 1.66a.58.58 0 0 1-.22.42 3.49 3.49 0 0 1-.12-.54q-.06-2.22-.09-4.44-.18-17.94 0-35.87c0-1 0-2 .08-3a4.54 4.54 0 0 1 .06-.56z" fill="#aea334" data-color="1"/>
            <path d="M40.16 62a3.24 3.24 0 0 1-.19-.7c0-2.1-.27-4.2-.18-6.31.11-2.77.1-5.54.14-8.32 0-.92 0-1.85.06-2.77 0-.2 0-.45.3-.57a1.86 1.86 0 0 1 .12.38c0 .74.08 1.48.09 2.22 0 2.84 0 5.69.13 8.54.07 2.07-.05 4.13-.11 6.2a1.88 1.88 0 0 1-.36 1.33z" fill="#aea334" data-color="1"/>
            <path d="M42.25 22.42c.1.1.23.16.24.24a6.51 6.51 0 0 1 0 .77v12.3a6.78 6.78 0 0 1 0 .78c0 .08-.11.16-.19.26-.07-.08-.14-.12-.14-.17-.16-4.62-.08-9.24 0-13.85-.04-.1.04-.19.09-.33z" fill="#aea334" data-color="1"/>
            <path d="M49.53 58.65c0-.49-.08-.78-.08-1.07-.26-9.72-.26-19.45-.17-29.18 0-1 .06-1.92.11-2.88a1.93 1.93 0 0 1 .11-.52s.11-.09.17-.09.15.05.16.09a2.46 2.46 0 0 1 .11.65c.07 3 .15 6 .17 9V47.3c0 3.47-.11 6.95-.18 10.43a1 1 0 0 1-.4.92z" fill="#aea334" data-color="1"/>
            <path d="M54.25 73c-.18-.17-.26-.21-.27-.27a2.48 2.48 0 0 1-.06-.54c-.14-7-.37-14.06-.2-21.1 0-1.55.1-3.1.16-4.66a.67.67 0 0 1 0-.32.49.49 0 0 1 .25-.17s.14.07.15.12a1.65 1.65 0 0 1 .09.43c0 .7.07 1.4.09 2.11.14 6.14.12 12.28 0 18.43 0 1.74-.09 3.47-.15 5.21.02.25-.02.46-.06.76z" fill="#aea334" data-color="1"/>
            <path d="M55 22.05a2.3 2.3 0 0 1-.13-.5v-9.08a1.86 1.86 0 0 1 .21-1.12c.09.14.17.21.18.29.25 2.28.19 9.13-.26 10.41z" fill="#aea334" data-color="1"/>
        </g>
    </g>
</svg>
