<?xml version="1.0" encoding="UTF-8"?>
<svg data-bbox="-0.006 0.011 128.281 63.569" viewBox="0 0 128.31 63.58" xmlns="http://www.w3.org/2000/svg" data-type="color">
    <g>
        <g>
            <path d="M64 60.33H39.9l-26.65-.12-1.66-.05a3.32 3.32 0 0 1-.44-.06.67.67 0 0 1-.52-.37c-.1-.22-.09-.49-.45-.55a.88.88 0 0 1-.5-.38 1.37 1.37 0 0 1-.14-.64c0-1.18 0-2.36-.06-3.55 0-5.36-.06-10.73-.05-16.1q0-14.59.11-29.2c0-1.44.15-2.88.29-4.32.09-1 .39-1.26 1.41-1.32a5 5 0 0 1 .55 0c27.72-.34 55.44-.18 83.16-.15l16.77.06h4.66a5.26 5.26 0 0 1 .89.07 1.24 1.24 0 0 1 1.13 1.29c.06 1.81.14 3.62.14 5.44v46.19c0 .73-.13 1.47-.2 2.2a1.55 1.55 0 0 1-1.28 1.34 4.71 4.71 0 0 1-1 .13H64zM83.08 5.09c0 1.75.1 3.38.13 5s0 3.26 0 4.89v4.77c0 1.59.08 3.26.11 4.89s0 3.25 0 4.88v24.32c0 1.63-.3 3.22-.13 4.89h31.02c.71 0 1.41.08 2.11.11h.79V58c0-.51-.12-1-.12-1.54 0-7.66-.08-15.32 0-23 0-9.26-.12-18.51.17-27.76a5.66 5.66 0 0 0-.08-.72c-1-.12-9.61-.16-12-.06a3.45 3.45 0 0 0-.39.07.81.81 0 0 0-.1.24c0 .67 0 1.33.07 2 .07 1.51.19 3 .19 4.54v45.19a2.12 2.12 0 0 1-.06.44.77.77 0 0 1-.79.6.78.78 0 0 1-.71-.6 2.56 2.56 0 0 1-.05-.55v-45c0-1.29.07-2.59.12-3.88 0-.78.1-1.55.14-2.33a.72.72 0 0 0-.19-.7 6.65 6.65 0 0 0-1.65.06c0 2.34.07 4.63.11 6.92.1 5.92.29 11.84.31 17.76 0 8.77-.08 17.54-.12 26.31a8.72 8.72 0 0 1 0 .89 4.13 4.13 0 0 1-.19.75c-.1.27-.37.48-.57.44a.7.7 0 0 1-.55-.5 4.34 4.34 0 0 1-.22-1.52c0-9.55-.05-19.1 0-28.65 0-5.85.15-11.69.24-17.54 0-1.52.1-3 .15-4.55a1.11 1.11 0 0 0-.09-.32 3.84 3.84 0 0 0-.44-.06L86.67 5a2.47 2.47 0 0 0-.54.13v1.15c.05 1.7.14 3.4.14 5.1 0 10.44.14 20.87-.06 31.31-.08 4.11-.06 8.22-.12 12.32a20 20 0 0 1-.24 2.32.52.52 0 0 1-.21.36.48.48 0 0 1-.39 0 .35.35 0 0 1-.17-.26 14.91 14.91 0 0 1-.26-2c-.08-7.58-.21-15.17-.21-22.75 0-8.92-.14-17.84.17-26.76a1.12 1.12 0 0 0-.15-.89 5.36 5.36 0 0 0-1.55.06zm-38.62.12c0 .31-.05.6 0 .89v38.08c0 4.62.15 9.25-.25 13.87a3 3 0 0 0 .08.64h17.15c.39 0 .81.14 1.2-.17v-1.17c-.06-5.07-.14-10.14-.17-15.21q-.06-12.82 0-25.64c0-3.77-.13-7.54.15-11.3l-.07-.06a2.31 2.31 0 0 0-.55-.08l-14.1.09a.19.19 0 0 0-.1 0 1.76 1.76 0 0 0-.14.16v1.12c.06 5.37.15 10.73.17 16.1 0 9.81 0 19.61.08 29.42 0 1.63-.11 3.25-.25 4.87a1.84 1.84 0 0 1-.19.74.56.56 0 0 1-.44.25.64.64 0 0 1-.43-.26 1.53 1.53 0 0 1-.18-.63c-.09-1.15-.24-2.29-.24-3.43 0-10.18-.11-20.36.09-30.53.11-5.67.1-11.33.14-17a1.19 1.19 0 0 0-.15-.83 4.69 4.69 0 0 0-1.8.08zm22.27-.07v.47c.11 3.07.31 6.14.32 9.21v42.11a3.66 3.66 0 0 1-.13.87.64.64 0 0 1-.74.52.67.67 0 0 1-.59-.57 6.71 6.71 0 0 1-.06-1c0-3.66-.11-7.33-.12-11V13.88l.33-8.09a.73.73 0 0 0-.2-.68 4 4 0 0 0-1.57.07 2.24 2.24 0 0 0 0 .34c.05.85.17 1.7.17 2.55q0 16.65-.07 33.3c0 5.56-.08 11.11-.12 16.66a.85.85 0 0 0 .16.69h17.17a5 5 0 0 0 .64-.1c-.42-17.87-.1-35.69.18-53.5-1-.15-11.61-.21-14.81-.09a4.19 4.19 0 0 0-.56.11zm-40.36 0a8.09 8.09 0 0 1 .23 2.67v11.32c-.07 12 .19 23.91-.24 35.86 0 1-.11 2.07-.15 3.1 0 .21-.13.44.12.68h16.26a3.55 3.55 0 0 0 .47-.08v-1.12c-.24-2.92-.22-5.84-.22-8.77V5.95a5.09 5.09 0 0 0-.09-.71 2.77 2.77 0 0 0-.41 0l-11.88-.18a2.32 2.32 0 0 0-.52.13v.72c.08 1 .2 2.06.23 3.09.05 1.93.06 3.85.07 5.78q0 19.81.06 39.63a21.27 21.27 0 0 1-.3 2.86.8.8 0 0 1-.14.41.49.49 0 0 1-.37.18.56.56 0 0 1-.34-.22.6.6 0 0 1-.1-.31 19.58 19.58 0 0 1-.39-3.41q0-14.39.08-28.76 0-8 .07-16a16.52 16.52 0 0 1 .19-3 1.53 1.53 0 0 0 0-1.11A14.82 14.82 0 0 0 27.08 5a5 5 0 0 0-.71.09zM10.93 5c-.08.09-.12.12-.12.14v1c.3 3.06.21 6.13.22 9.2 0 7 .07 14 .06 21s0 13.84-.06 20.76v.66a3.49 3.49 0 0 0 0 .56c0 .2-.17.41.05.63h1.08l9.54-.13h3a4.51 4.51 0 0 0 .58-.06c-.13-4.28-.35-8.49-.37-12.7-.05-12.8 0-25.6 0-38.4A6.53 6.53 0 0 1 25.22 5l-13.94-.07a1.39 1.39 0 0 0-.35.07z" fill="#f3e0b5" data-color="1"/>
            <path d="M5.53 53.18H1.87A8.05 8.05 0 0 1 .78 53a1.15 1.15 0 0 1-.5-.23.58.58 0 0 1 0-1 1.46 1.46 0 0 1 .59-.25 15.46 15.46 0 0 1 1.66-.13h2.93A3.07 3.07 0 0 0 5.51 50a22.47 22.47 0 0 1-4.34 0 2.54 2.54 0 0 1-.86-.18.72.72 0 0 1-.3-.43.49.49 0 0 1 .3-.54.81.81 0 0 1 .31-.1c1.37-.06 2.73-.13 4.1-.18a4 4 0 0 1 .72.15c0-.21.09-.41.11-.61s0-.59 0-.89V15a7.31 7.31 0 0 0-.8-.13c-1.07 0-2.15-.05-3.22-.08a6.78 6.78 0 0 1-.78 0 .65.65 0 0 1-.62-.53.59.59 0 0 1 .51-.62 5.27 5.27 0 0 1 .88-.1h3.86a2.35 2.35 0 0 0 .11-1.47h-.61a14.36 14.36 0 0 1-3.76-.26 1 1 0 0 1-.42-.12.68.68 0 0 1-.27-.43.6.6 0 0 1 .27-.43 1.49 1.49 0 0 1 .53-.15 13.17 13.17 0 0 1 3.2-.24h1a6.17 6.17 0 0 0 .09-.62V7.05c0-.92.09-2.07.22-3.1A4 4 0 0 1 8.49.44a4.63 4.63 0 0 1 1.3-.15h1.22c.41 0 1.1-.07 1.66-.08L23.88.1c30.68-.2 61.36 0 92 0a6.53 6.53 0 0 1 1.76.16 4.06 4.06 0 0 0 1 .07 3.4 3.4 0 0 1 2.82 1.72 1.69 1.69 0 0 1 .28 1.16.53.53 0 0 1-.84.38 3.45 3.45 0 0 1-.53-.55 8.17 8.17 0 0 0-.64-.77 2 2 0 0 0-.76-.42 8.15 8.15 0 0 0-2.31-.25h-1.22q-40.14 0-80.27.08c-7 0-14-.08-21-.14-1.18 0-2.37-.1-3.55-.13a1.5 1.5 0 0 0-.63.11 15.91 15.91 0 0 0-1.5.72 5.31 5.31 0 0 0-1 .72 2 2 0 0 0-.66 2A7.26 7.26 0 0 1 7 6.54v46.85c0 1.55-.11 3.1-.21 4.65a3.78 3.78 0 0 0 .71 2.4 2.54 2.54 0 0 0 1.17 1 4.18 4.18 0 0 1 .79.4.57.57 0 0 1-.08 1 1.87 1.87 0 0 1-.52.17 2.07 2.07 0 0 1-1.57-.43A4.08 4.08 0 0 1 5.63 60a1.4 1.4 0 0 1 0-.76 4.14 4.14 0 0 0 .12-1.64c-.07-1.42-.14-2.86-.22-4.42z" fill="#f3e0b5" data-color="1"/>
            <path d="M64.71 63.58H33.29c-2.59 0-5.18-.09-7.77-.12L13 63.33h-1.44a3.18 3.18 0 0 1-.75-.19.46.46 0 0 1 0-.75 1.78 1.78 0 0 1 .63-.2 8.28 8.28 0 0 1 1 0c3.84 0 7.69 0 11.54-.12 6-.16 12.06-.13 18.1-.12l58.06.06h14.21c.89 0 1.78.09 2.66 0a7.86 7.86 0 0 0 2.79-.62 2 2 0 0 0 .62-.6c.18-.23.29-.52.48-.74a.6.6 0 0 1 1 .14 1.37 1.37 0 0 1 .1 1.07 2.3 2.3 0 0 1-1.19 1.41 4 4 0 0 1-1.25.43 31.57 31.57 0 0 1-3.64.34q-13 .07-26 .08H64.71z" fill="#f3e0b5" data-color="1"/>
            <path d="m122.4 10.12 4.24-.08a6.68 6.68 0 0 1 1 0 .72.72 0 0 1 0 1.43 4.09 4.09 0 0 1-1 0c-1.15 0-2.29-.08-3.44-.12a7.77 7.77 0 0 0-.8 0 5.16 5.16 0 0 0 0 1.92 4.37 4.37 0 0 0 .68.06l3.1-.16a6.63 6.63 0 0 1 .89 0 1.32 1.32 0 0 1 .51.16.72.72 0 0 1 .37.75.73.73 0 0 1-.59.59 4.07 4.07 0 0 1-.78 0c-1.1-.06-2.21-.13-3.32-.18h-.83c0 .33-.08.61-.08.9 0 2.18.06 4.36.06 6.54v26.69c.26 0 .47.09.67.09l3.22-.06a5.29 5.29 0 0 1 .89 0 .77.77 0 0 1 0 1.54 5.18 5.18 0 0 1-.88 0c-1 0-2.08 0-3.11-.06h-.78a3.06 3.06 0 0 0 0 1.24 2.13 2.13 0 0 0 1.11.1 4.8 4.8 0 0 0 1-.06 8.58 8.58 0 0 1 2.32 0 2 2 0 0 1 .53.13.64.64 0 0 1 .37.62.56.56 0 0 1-.35.53 3.26 3.26 0 0 1-1 .22q-1.11 0-2.22-.06a8.89 8.89 0 0 0-1.8-.06 18.26 18.26 0 0 0-.16 1.9c0 1 0 2.07-.1 3.11a3.16 3.16 0 0 1-.2 1c0 .13-.29.24-.44.24a.77.77 0 0 1-.43-.27.86.86 0 0 1-.13-.42v-.66c-.06-2.7-.18-5.4-.18-8.1v-26q0-8.06.13-16.1c0-1 .13-2.06.21-3.09a1.88 1.88 0 0 1 .14-.53.33.33 0 0 1 .26-.17.54.54 0 0 1 .37.17 1.43 1.43 0 0 1 .15.52 23.06 23.06 0 0 1 .23 4c.13.61.15 1.12.17 1.73z" fill="#f3e0b5" data-color="1"/>
        </g>
    </g>
</svg>
