<?xml version="1.0" encoding="UTF-8"?>
<svg data-bbox="0.001 -0.011 140.71 75.28" viewBox="0 0 140.72 75.24" xmlns="http://www.w3.org/2000/svg" data-type="color">
    <g>
        <g>
            <path d="M71.28 72H17.42a9.78 9.78 0 0 1-2.75-.23 1.86 1.86 0 0 0-.78 0 3.07 3.07 0 0 1-2.38-1 1 1 0 0 1-.25-.59 11.74 11.74 0 0 1 0-1.33c-.15-11.17-.14-22.35-.09-33.53 0-6.92.08-13.84.08-20.77 0-2.88.18-5.77.31-8.65a3.33 3.33 0 0 1 .11-.77A1.58 1.58 0 0 1 13.2 4c2-.06 3.92-.11 5.88-.13q25.92-.26 51.75-.2t52 0h2.11a11.14 11.14 0 0 1 2.51.32 1.29 1.29 0 0 1 1.18 1.16 13.84 13.84 0 0 1 .14 1.43c.08 9.11.11 18.21.24 27.32q.21 15.77.12 31.53c0 1.52-.08 3-.14 4.55a1.84 1.84 0 0 1-.19.73.69.69 0 0 1-.68.29c-.22 0-.31.16-.39.33a.94.94 0 0 1-.9.54H71.28zm56.23-1.52v-.39c0-1.63-.11-3.26-.11-4.89 0-10.32-.05-20.64.11-31 .14-9.14.16-18.28.23-27.42v-.85a2.82 2.82 0 0 0-2-.65h-25.32q-36 0-71.94-.07c-5.11 0-10.21-.11-15.32-.17-.24 0-.48 0-.79.08 0 .47.05.87.07 1.27.11 2.18.31 4.36.31 6.54v56.4c0 .25 0 .5.05.73a4.75 4.75 0 0 0 2.54.31 8.05 8.05 0 0 1 1.55-.07h108.69c.64.09 1.26.13 1.93.16z" fill="#aea334" data-color="1"/>
            <path d="M132.62 4a.91.91 0 0 1-.41.8.73.73 0 0 1-.9-.21 5.47 5.47 0 0 1-.44-.63c-.15-.26-.27-.53-.44-.77a3.73 3.73 0 0 0-4-1.63 10.39 10.39 0 0 1-1.76.17H18.32c-1.66 0-3.32-.22-5-.34-.3 0-.6-.07-.69-.43s.22-.47.7-.53 1.23-.16 1.82-.21C18.36-.08 21.58 0 24.8 0h99.69a6.62 6.62 0 0 1 1.88.16 2.82 2.82 0 0 0 .77 0h1a4.75 4.75 0 0 1 4.3 3.15 3.44 3.44 0 0 1 .18.69z" fill="#aea334" data-color="1"/>
            <path d="M65.57 73.59c21.83 0 39.11.08 56.39.13 1.37 0 2.74.07 4.11.1a2 2 0 0 0 .55 0l3.25-.65a2.77 2.77 0 0 0 1.38-.68 1.52 1.52 0 0 1 .35-.26.65.65 0 0 1 .94.47 1.24 1.24 0 0 1-.41 1.2 2.87 2.87 0 0 1-1.26.68 23.19 23.19 0 0 1-3.81.67 1.3 1.3 0 0 1-.44 0 15.27 15.27 0 0 0-3.76-.06h-1.22q-41.91 0-83.83.06c-7.88 0-15.76-.14-23.65-.22a6.49 6.49 0 0 1-.88 0 .57.57 0 0 1-.48-.53.51.51 0 0 1 .48-.52 8.67 8.67 0 0 1 .88-.06c3.26 0 6.51-.09 9.77-.12 4.14 0 8.29 0 12.43-.09 11.25-.27 22.5-.07 29.21-.12z" fill="#aea334" data-color="1"/>
            <path d="M12.1 74.31a1.35 1.35 0 0 1-1.4.68 3.32 3.32 0 0 1-3.42-3A23.92 23.92 0 0 1 7 67.68v-2.55a6.62 6.62 0 0 0-.06-.7c-.25 0-.46-.06-.67-.06H3.05a15.15 15.15 0 0 1-1.65-.19A1.36 1.36 0 0 1 .83 64c-.14-.09-.32-.24-.34-.39s.17-.4.39-.46a6.92 6.92 0 0 1 1.18-.26 11.83 11.83 0 0 1 1.33-.05l3.46-.1a15.9 15.9 0 0 0 0-2.39 3.82 3.82 0 0 0-.68-.11H2.73A10.57 10.57 0 0 1 1 59.89a.49.49 0 0 1-.39-.48.48.48 0 0 1 .37-.5 11.27 11.27 0 0 1 1.74-.28c1-.05 2.07 0 3.11 0h.78c.3-.23.23-.46.25-.67s0-.45 0-.67l-.04-36.9v-1.1a.68.68 0 0 0-.68-.29l-4.32-.11a6.55 6.55 0 0 1-.89 0 2.23 2.23 0 0 1-.7-.28.5.5 0 0 1 0-.84 1.13 1.13 0 0 1 .49-.24 5.77 5.77 0 0 1 1.09-.12c1.3 0 2.59 0 3.89-.05h1a3.09 3.09 0 0 0 .11-1.23V14.9a35.21 35.21 0 0 1-5.24 0 2 2 0 0 1-.75-.17.46.46 0 0 1-.32-.52 1.15 1.15 0 0 1 .39-.51.83.83 0 0 1 .43-.08c1.11-.06 2.21-.15 3.32-.18.7 0 1.39 0 2.16.06V7.14A8.79 8.79 0 0 1 7 5.61a11.28 11.28 0 0 0 .25-1.85 3 3 0 0 1 1.52-2.45 5.82 5.82 0 0 1 2.49-.85 1.6 1.6 0 0 1 .65.08.7.7 0 0 1 .27 1.17 2.18 2.18 0 0 1-.75.44c-.35.13-.72.19-1.07.29A3.17 3.17 0 0 0 8.2 4.77a1.64 1.64 0 0 0 0 .66c0 .55.15 1.1.15 1.65.1 20.54 0 41.07-.07 61.61 0 .59-.07 1.18-.13 1.77a2.72 2.72 0 0 0 2 2.89c.28.07.58.11.86.18a1.37 1.37 0 0 1 1.09.78z" fill="#aea334" data-color="1"/>
            <path d="M133.25 58.3h1.23l4.21-.11a2.44 2.44 0 0 1 1.3.24.7.7 0 0 1 .44.59.66.66 0 0 1-.52.64 4.88 4.88 0 0 1-1.19.21c-.63 0-1.26-.05-1.88-.07-1.18 0-2.36-.08-3.57-.05a3.71 3.71 0 0 0-.11 1.35v1.38a4.42 4.42 0 0 0 .66.1l5.1-.19a5.08 5.08 0 0 1 .78 0 .79.79 0 0 1 .06 1.58 2.05 2.05 0 0 1-.55.05l-5.94-.2a5 5 0 0 0-.1.64v5a3.25 3.25 0 0 1-.26 1.41.62.62 0 0 1-.61.39.6.6 0 0 1-.6-.41 5 5 0 0 1-.24-1.08 8.16 8.16 0 0 1 0-1v-41.3c0-5.66.19-11.31.3-17q0-2.05.09-4.11a2.41 2.41 0 0 1 .1-.76.37.37 0 0 1 .68 0 3.23 3.23 0 0 1 .1.76c.06 1.93.11 3.85.17 5.77 0 .33.05.65.07.94a1.41 1.41 0 0 0 .28.08l3.55-.15c.92 0 1.85-.06 2.77-.06a2 2 0 0 1 .64.14.72.72 0 0 1 .5.67.78.78 0 0 1-.52.78 1.66 1.66 0 0 1-.53.1l-3.77-.1c-.93 0-1.85-.11-2.82-.16a3.81 3.81 0 0 0-.07.63v2.39a6.81 6.81 0 0 0 .79.1l5-.17a3.78 3.78 0 0 1 .89 0 1.51 1.51 0 0 1 .66.35.7.7 0 0 1 0 1 1.21 1.21 0 0 1-.91.34l-2.19-.01-3.66-.11a3.1 3.1 0 0 0-.49 0 3.73 3.73 0 0 0-.1.63v2.89c0 2.66.09 5.33.1 8v26.53a4.27 4.27 0 0 0 .16 1.36z" fill="#aea334" data-color="1"/>
            <path d="M24 9.39a11.56 11.56 0 0 1-2 2.33c-.66.71-1.34 1.38-2.06 2.1a2.24 2.24 0 0 0 .23.34l5.46 5.38a1.7 1.7 0 0 0 .28.21c.09 0 .22 0 .28-.11l5.86-5.86a4.53 4.53 0 0 0-.4-.51l-2.81-2.85c-.15-.15-.35-.3-.22-.56s.41-.13.66.13l2.53 2.5c.23.23.48.44.77.7.25-.21.48-.38.69-.58l4-3.73a6.69 6.69 0 0 1 .56-.44c.23.12.3.25.19.39a8.33 8.33 0 0 1-.7.85C36.23 10.87 35.1 12 34 13.23c-.19.21-.37.44-.55.65A84 84 0 0 0 39.6 20c.59-.44 5.1-4.88 6-5.93a6.41 6.41 0 0 0-.48-.58c-.8-.83-1.6-1.65-2.39-2.48a4 4 0 0 1-.4-.52s0-.14.06-.18a.21.21 0 0 1 .19-.06 4 4 0 0 1 .52.4c.82.8 1.64 1.61 2.46 2.4.18.18.39.33.61.51l.84-.79 4.73-4.52c.2-.19.38-.45.76-.41 0 .14 0 .26-.06.32q-.32.39-.66.75l-4.38 4.57c-.2.21-.39.43-.58.64.52.68 5.45 5.55 6.26 6.18a1.12 1.12 0 0 0 .28-.16l5.52-5.46c.05 0 .05-.13.1-.26-.2-.22-.42-.47-.65-.7-1.08-1.12-2.17-2.23-3.25-3.34a5.24 5.24 0 0 1-.44-.5.35.35 0 0 1 0-.3.25.25 0 0 1 .38-.06c.18.14.34.29.5.44l3.51 3.4.54.49a4.64 4.64 0 0 0 .6-.44c1.4-1.32 2.79-2.66 4.18-4a5.94 5.94 0 0 1 .7-.54c.06 0 .19 0 .36.06a10.71 10.71 0 0 1-1.65 2c-.54.6-1.12 1.18-1.69 1.76l-1.82 1.86 5.89 5.78c.7-.51 5.14-4.88 5.93-5.82A18.64 18.64 0 0 0 70.68 13c-.35-.38-.71-.75-1.05-1.13a.26.26 0 0 1 0-.4.69.69 0 0 1 .4-.08.52.52 0 0 1 .27.18c.17.15.32.31.48.47.5.49 1 1 1.5 1.48.13.12.28.22.46.36.19-.17.36-.3.52-.45l2.45-2.26a2.78 2.78 0 0 1 .54-.35s.13.05.18.09a.1.1 0 0 1 0 .1 2.35 2.35 0 0 1-.28.46c-.75.82-1.51 1.63-2.27 2.44-.18.19-.34.38-.52.58a2.28 2.28 0 0 0 .19.3l6.86 6.8a1.34 1.34 0 0 0 .28.18 1.19 1.19 0 0 0 .29-.18l6.02-5.9a1 1 0 0 0 .17-.29c-1.42-1.61-3-3-4.31-4.77v-.17c0-.11.29 0 .38 0a6.11 6.11 0 0 1 .67.57l3.32 3.12.63.55c.24-.2.48-.37.68-.56l5.9-5.72c.2-.19.36-.46.77-.46-.08.25-.15.43-.21.62a.49.49 0 0 0 .1.19l7 6.63c.17-.14.38-.28.55-.45q2.35-2.28 4.7-4.57a7.73 7.73 0 0 0 .62-.77c0-.05.07-.15.13-.17.82-.33 1.25-1.13 2-1.58a.38.38 0 0 1 .1 0c.17.09.16.22 0 .34-.3.33-.6.65-.9 1-.17.18-.32.38-.51.61l6.84 6.6c.31-.27.59-.51.85-.76l4-3.85c.15-.14.28-.38.62-.19a3 3 0 0 1-.73.9c-.27.3-.56.59-.84.88l-.84.88-.85.89c-.28.29-.57.58-.85.88l-.83.88 6.57 6.86a2.94 2.94 0 0 0 .27.22l1.37-1.09.15.1c-.07.32-.36.49-.56.73l-.59.67.73 1c-.49-.07-.49-.07-1.09-.52a56.29 56.29 0 0 0-5.78 5.72 5.68 5.68 0 0 0 .44.56c1.28 1.34 2.57 2.67 3.84 4a3.47 3.47 0 0 1 .78 1c-.13.2-.27.21-.4.11-.37-.3-.75-.6-1.1-.93-1.1-1-2.19-2.1-3.28-3.15-.3-.28-.59-.57-.92-.9a3.1 3.1 0 0 0-.44.31c-1.79 1.82-3.59 3.64-5.37 5.46a1.65 1.65 0 0 0-.19.27c.52.68 6.31 6.54 7.15 7.21l.54-.48c.77-.75 1.54-1.5 2.32-2.24.12-.12.24-.31.46-.16v.19c-1 1-1.93 2-2.93 3.1.16.21.31.42.48.61 1.46 1.57 2.93 3.13 4.4 4.7.18.2.34.43.58.74h-.43c-.29-.23-.56-.47-.83-.73l-4.82-4.53a4.23 4.23 0 0 0-.51.38l-5.52 5.63c-.1.11-.18.23-.28.35a1.69 1.69 0 0 0 .17.3c2.08 2.15 4.17 4.29 6.31 6.49.21-.18.42-.32.59-.49l4.88-4.7c.21-.19.36-.48.74-.5v.29c-.22.25-.45.49-.68.73l-4.3 4.34c-.25.26-.49.54-.74.81.93 1.26 2.21 2.14 3 3.46l-.1.14c-1.22-.88-2.18-2.05-3.38-3a7 7 0 0 0-1.27 1.22c-.42.43-.81.87-1.22 1.3s-.88.9-1.31 1.36-.78.89-1.18 1.32a6.38 6.38 0 0 1-1.22 1.27 1.87 1.87 0 0 1-1-.71l-5.72-5.59c-.25-.26-.52-.5-.83-.8l-6.1 6c.4.49.77.93 1.11 1.36-.17.22-.31.15-.42.05-.37-.3-.72-.61-1.11-1-.35.29-.65.56-1 .81a.29.29 0 0 1-.28-.05.28.28 0 0 1 0-.28c.23-.29.48-.56.71-.82 0-.1 0-.19-.09-.23l-7-6.93a1.69 1.69 0 0 0-.3.17l-5.61 5.54a1.31 1.31 0 0 0-.18.29l1.6 2s0 .06-.07.15c-.45-.08-.69-.47-1-.73s-.65-.59-1-.9a8.36 8.36 0 0 0-1.35 1.2 5.49 5.49 0 0 1-.6.48s-.2 0-.28-.09a.2.2 0 0 1 0-.2 2.79 2.79 0 0 1 .34-.43c.43-.45.88-.89 1.28-1.3v-.18a.23.23 0 0 0 0-.1l-6.77-6.64a1.9 1.9 0 0 0-.37.22l-5.58 5.56a.64.64 0 0 0-.13.19c0 .39.33.55.5.82s.43.31.34.63c-.07 0-.14.06-.19 0a1 1 0 0 1-.27-.18L69.2 64c-.33 0-.46.24-.63.41-.35.33-.69.68-1 1-.18.17-.36.41-.66.24s-.13-.33.17-.65.68-.68 1-1c.15-.15.29-.32.4-.45a.9.9 0 0 0 0-.17.26.26 0 0 0 0-.09l-6.17-6.08a2.3 2.3 0 0 0-.31-.22 1.86 1.86 0 0 0-.35.22l-6 5.89c-.08.08-.14.18-.24.3a6.65 6.65 0 0 0 .46.59c1.51 1.57 3 3.14 4.54 4.72.16.17.44.3.37.61s-.28 0-.38-.07l-1.68-1.6-3-2.94c-.26-.25-.54-.48-.85-.76-.31.27-.58.52-.84.76l-2.25 2.15c-.16.14-.37.28-.61-.06a11.55 11.55 0 0 1 1.52-1.69c.52-.57 1.07-1.12 1.61-1.72l-6.88-6.78a2.62 2.62 0 0 0-.37.24l-5.48 5.35a3.78 3.78 0 0 0-.22.31c.15.2.29.4.46.59.87.91 1.75 1.81 2.61 2.72.16.18.41.34.32.64 0 0-.07.07-.1.06a.47.47 0 0 1-.2-.06l-3.68-3.42c-.25.22-.48.4-.69.6l-2.31 2.24a1.51 1.51 0 0 1-.37.22.11.11 0 0 1-.1 0s-.11-.14-.09-.17a2 2 0 0 1 .31-.45c.71-.75 1.44-1.49 2.15-2.24a8.42 8.42 0 0 0 .58-.69l-7.47-7.26a24.39 24.39 0 0 0-2.32 2.22c-.79.77-1.57 1.57-2.35 2.36l-2.22 2.22c0 .4.26.52.43.7 1.09 1.16 2.19 2.32 3.27 3.48.17.18.31.39.52.66-.21 0-.34.07-.39 0-.32-.25-.63-.52-.93-.79l-3.53-3.32a4.1 4.1 0 0 0-.5.35l-3 2.93a3.43 3.43 0 0 1-.5.44.41.41 0 0 1-.31 0c-.13 0-.15-.24 0-.37l.45-.49L23.8 63c.23-.24.43-.5.61-.71a1 1 0 0 0-.09-.28l-5.42-5.6c-.1-.1-.23-.18-.38-.3l-.87.68c-.19-.33-.19-.33.44-1.13A9.31 9.31 0 0 0 17 54.47a7.58 7.58 0 0 1-1.11-1.26c.15-.05.29-.14.33-.1a4 4 0 0 1 .59.5c.56.53 1.11 1.07 1.68 1.63a3.24 3.24 0 0 0 .4-.29l6.57-6.64v-.22l-.05-.1-5.3-5.52c-.26-.27-.52-.52-.8-.79-.49.11-.74.5-1.06.78s-.65.44-.73.25.15-.46.31-.64.46-.49.68-.74a1.7 1.7 0 0 0 .12-.26 4.32 4.32 0 0 0-.36-.49c-.48-.51-1-1-1.47-1.51a3.45 3.45 0 0 1-.42-.51c0-.06 0-.2.05-.28a.21.21 0 0 1 .19 0 3.65 3.65 0 0 1 .43.35l1.58 1.56c.16.15.33.28.52.45l6-6.08c-.14-.18-.26-.36-.4-.51l-5.33-5.35c-.16-.16-.33-.3-.54-.49-.39.36-.76.72-1.14 1.06a1.85 1.85 0 0 1-.47.27s-.14 0-.19-.07-.08-.17-.08-.21a3.58 3.58 0 0 1 .31-.45 6.87 6.87 0 0 0 1-1.22l-1.21-1.31a7.15 7.15 0 0 1-.53-.57c-.18-.24-.57-.38-.46-.79.49-.24.63.24.88.44s.71.65 1.07 1l.78.72c.81-.67 1.46-1.46 2.19-2.18s1.41-1.42 2.11-2.13 1.46-1.46 2.21-2.23c-.13-.17-.22-.33-.34-.46l-5.29-5.39-.25-.2c-.28-.05-.41.16-.56.31l-2.42 2.28a2.09 2.09 0 0 1-.45.33.2.2 0 0 1-.18-.06c-.05 0-.1-.15-.08-.18a3 3 0 0 1 .32-.45c.71-.76 1.43-1.5 2.14-2.26l.55-.61c-.14-.19-.25-.37-.39-.53l-1.3-1.48c-.14-.16-.14-.33.09-.48.8.53 1.38 1.32 2.17 1.9a38.67 38.67 0 0 1 4.35-3.95s.13.03.29.08zm23.33 45.83 2.12-2.12c.74-.73 1.48-1.45 2.2-2.2a17.85 17.85 0 0 0 2-2.14 2.27 2.27 0 0 0-.23-.31l-6.72-6.73a1.88 1.88 0 0 0-.36-.24c-.18.15-.33.27-.45.39L40 47.77a.19.19 0 0 0-.05.1s0 .07 0 0zm56.26-10.72c1.08 1.27 6.35 6.51 7 7a1.7 1.7 0 0 0 .26-.18l5.78-5.66a2.61 2.61 0 0 0 .3-.4 1.74 1.74 0 0 0-.17-.24l-6.68-6.63a2 2 0 0 0-.34-.2c-1.12.99-5.61 5.58-6.15 6.31zM54.73 62.84l6.41-6.54A2 2 0 0 0 61 56l-6.35-6.34a.84.84 0 0 0-.27-.16c-.08 0-.17 0-.21.09l-6 5.94a3.65 3.65 0 0 0-.26.32c0 .1 0 .19.09.24l6.28 6.4a3.86 3.86 0 0 0 .45.35zm5.58-20.74a1.2 1.2 0 0 0-.18-.26q-3.45-3.45-6.91-6.84a.16.16 0 0 0-.1-.05H53a2.79 2.79 0 0 0-.25.17l-5.57 5.55a.21.21 0 0 0-.06.1.85.85 0 0 0 0 .21L54 47.85a2.36 2.36 0 0 0 .34.24c1.02-.81 5.48-5.31 5.97-5.99zM33.39 54.5a1.93 1.93 0 0 0 .22.32q3.36 3.45 6.75 6.9a2.27 2.27 0 0 0 .32.22c1.23-1.09 5.32-5.33 5.81-6-.55-.74-6.53-6.71-7.26-7.26-.67.49-5.03 4.82-5.84 5.82zM94.5 22.88c-.5-.67-5.9-6.12-6.77-6.82a.75.75 0 0 0-.2.1l-6 6.06v.1a.4.4 0 0 0 0 .11c.7.87 6.08 6.18 6.76 6.67a87.46 87.46 0 0 0 6.21-6.22zM66.93 35.46c-.92-1.08-6.55-6.66-7.22-7.16-.67.5-5.2 5-5.92 5.83a2.62 2.62 0 0 0 .24.34l6.74 6.74a1.06 1.06 0 0 0 .28.16c1.95-1.99 3.95-3.93 5.88-5.91zm42.33 2.12c-.75-.85-1.54-1.57-2.28-2.33s-1.5-1.53-2.27-2.27a23.64 23.64 0 0 0-2.29-2.19c-.71.55-5.42 5.21-6.26 6.21a1.91 1.91 0 0 0 .24.34c2.06 2.08 4.11 4.14 6.18 6.21a2.46 2.46 0 0 0 .39.24zm-48.89-10 7.11 7.21h.3l5.44-5.43a2.66 2.66 0 0 0 .28-.4l-7.27-7.26zm12.5-12.38a1.77 1.77 0 0 0-.33.14c-.14.12-.27.25-.4.38l-5.06 5.13a.23.23 0 0 0 0 .1v.1c.65.83 6.51 6.68 7.19 7.18a81.49 81.49 0 0 0 5.73-5.8zm24.57 49.61c.17-.14.26-.2.34-.28 1.76-1.8 3.52-3.59 5.27-5.4a2.7 2.7 0 0 0 .29-.4 2.29 2.29 0 0 0-.17-.23L96.65 52a3.66 3.66 0 0 0-.46-.31l-5.69 5.69a1 1 0 0 0-.12.29zm3.86-48.72a6.11 6.11 0 0 0-.43-.47c-2.06-2.07-4.15-4.11-6.08-6.31a1.53 1.53 0 0 0-.32-.22 1.43 1.43 0 0 0-.23.16q-2.76 2.82-5.5 5.65a2 2 0 0 0-.28.45c.21.23.38.43.56.61l6.15 6.1.09.05h.1a77.58 77.58 0 0 0 5.94-6.02zM25 61.66l2.37-2.35c.79-.78 1.58-1.55 2.36-2.35A31.4 31.4 0 0 0 32 54.69c-.58-.78-5.19-5.44-6-6-.14.12-.28.23-.41.36l-6.22 6.16c-.15.15-.36.27-.31.63zM103.16 30c.24.25.43.47.64.68l6 6 .1.05h.09a83.66 83.66 0 0 0 6.01-5.92c-.58-.76-6-6.21-6.78-6.77-.7.48-5.22 4.96-6.06 5.96zM55 48.83l2.29 2.33c.73.73 1.45 1.48 2.2 2.19a20.08 20.08 0 0 0 2.35 2.24l3-3c1-1 2-1.93 2.91-3a.83.83 0 0 0-.12-.25q-3.21-3.22-6.44-6.43a.23.23 0 0 0-.1 0 .34.34 0 0 0-.1 0c-.68.52-4.73 4.52-5.99 5.92zM32.89 28.1c-1.49 1.31-5.88 5.76-6.37 6.46a2 2 0 0 0 .26.34l5.72 5.7a1.28 1.28 0 0 0 .34.19c1.44-1.3 5.87-5.86 6.29-6.46zm64.05 23c.89 1 6.37 6.5 7 7a4.36 4.36 0 0 0 .4-.35q2.52-2.51 5-5a5 5 0 0 0 .36-.48 96.8 96.8 0 0 0-7.08-6.94c-.78.72-5.11 5.04-5.68 5.77zm-8-21.26a7.06 7.06 0 0 0 .46.54q2.86 2.86 5.75 5.71a2.7 2.7 0 0 0 .4.29c1.54-1.39 5.68-5.58 6.2-6.27-.55-.69-5.67-5.84-6.51-6.53a3.59 3.59 0 0 0-.33.25c-2 1.99-3.97 3.99-5.98 6.01zm.17 27.81a.84.84 0 0 0-.09-.19 7.18 7.18 0 0 0-.38-.4L82.49 51a.18.18 0 0 0-.09-.06h-.11c-.66.5-5 4.83-5.9 5.82a.61.61 0 0 0 .09.2L83 63.57a.31.31 0 0 0 .1 0 .34.34 0 0 0 .1 0c.73-.57 5.37-5.24 5.9-5.92zM74.4 42.85l-2.26-2.26c-.73-.73-1.46-1.48-2.2-2.2a25.6 25.6 0 0 0-2.32-2.21c-.18.17-.32.28-.45.41L61.85 42a.18.18 0 0 0-.06.09.63.63 0 0 0 0 .14c.08.09.16.22.26.32l6.29 6.26a.19.19 0 0 0 .1.05zm21.24 8.3c-.61-.81-6-6.19-6.81-6.8a10.71 10.71 0 0 0-1.52 1.42c-.48.45-.94.93-1.41 1.4l-1.49 1.49A16.61 16.61 0 0 0 83 50.14c.64.84 6.12 6.32 6.75 6.78zm-69.5-30-6.59 6.46c.63.81 5.57 5.71 6.23 6.2.66-.45 5.3-5 6.48-6.4A1.92 1.92 0 0 0 32 27zm76.34 8.27c.2-.15.3-.2.38-.27l5.57-5.58a.23.23 0 0 0 0-.1 1.08 1.08 0 0 0 0-.16l-.33-.38q-2.86-2.87-5.74-5.72c-.15-.15-.28-.36-.56-.31a1.05 1.05 0 0 0-.25.18Q99 19.72 96.3 22.41a4.49 4.49 0 0 0-.34.47zM87.42 30c-.89-1-6.12-6.28-6.77-6.8-1 .8-5.29 5.18-5.74 5.82.76.92 6.07 6.21 6.73 6.7.65-.53 4.99-4.81 5.78-5.72zm-19 5.57c.51.7 5.9 6.1 6.69 6.71h.1c.02 0 .29-.23.42-.36l5.23-5.25a.21.21 0 0 0 .06-.1v-.22l-2.2-2.19c-.73-.73-1.46-1.47-2.2-2.19S75 30.38 74.19 29.7a79.8 79.8 0 0 0-5.81 5.83zm41.45-12.37a1.76 1.76 0 0 0 .15.31l6.51 6.49a.27.27 0 0 0 .1.06h.1c.77-.58 5.19-4.94 5.74-5.66 0-.06 0-.15-.08-.19l-6.61-6.42a3.15 3.15 0 0 0-.34-.21c-1.84 1.89-3.7 3.74-5.57 5.62zM89.56 43.65c.63.81 6 6.21 6.78 6.77.49-.41.93-.9 1.4-1.37s1-1 1.48-1.49 1-.94 1.41-1.42a18.39 18.39 0 0 0 1.43-1.5 2.25 2.25 0 0 0-.23-.33l-6.2-6.18a1.57 1.57 0 0 0-.34-.21c-.83.66-5.24 5.08-5.73 5.73zm15 15.09a1.2 1.2 0 0 0 .16.27l6.45 6.58a1.07 1.07 0 0 0 .26.1c.59-.71 1.19-1.45 1.81-2.17s1.25-1.36 1.88-2a23.32 23.32 0 0 0 2-2.09l-6.71-6.47c-.67.5-5 4.81-5.83 5.78zm-29.43-1.85c-.22-.25-.33-.4-.45-.53-1.89-1.88-3.77-3.77-5.66-5.64a5.05 5.05 0 0 0-.54-.4l-3 3c-1 1-2 1.93-2.94 3l6.27 6.37a3 3 0 0 0 .36.18zM40 35c-.92.69-6.08 5.79-6.59 6.5l1.93 1.94c.68.68 1.35 1.37 2 2a16.23 16.23 0 0 0 2 1.88 2.64 2.64 0 0 0 .38-.31l5.94-6a.16.16 0 0 0 .05-.09.93.93 0 0 0 0-.22zm35.14 8.77c-1 .82-5.33 5.22-5.81 5.84l6.53 6.51a.79.79 0 0 0 .21-.13l5.54-5.59a.23.23 0 0 0 0-.1s0-.07 0 0zm-48.9 3.67c1.1-.95 5.34-5.27 5.86-6-.1-.13-.21-.27-.33-.4l-5.48-5.49a4.44 4.44 0 0 0-.52-.4l-6 6c.57.71 5 5.04 6.47 6.29zm56.14 2.13c.2-.19.37-.32.53-.48l5.15-5.2a.52.52 0 0 0 .07-.2.31.31 0 0 0 0-.1c-.12-.14-.23-.29-.36-.42q-3-2.93-5.92-5.84a.16.16 0 0 0-.09 0h-.22c-.93.89-1.89 1.85-2.84 2.83s-2 1.87-2.83 2.9c.55.68 5.54 5.71 6.51 6.51zm0-13L88 42.15l.79.77a.31.31 0 0 0 .1 0h.1c1-.89 5.19-5.1 5.67-5.74-.5-.65-5.78-6-6.45-6.48-.69.53-5.03 4.85-5.85 5.83zm26-26.27a3 3 0 0 0-.37.26c-1.71 1.75-3.42 3.49-5.12 5.24a2 2 0 0 0-.2.34c.87 1 5.88 6 6.58 6.53a2.69 2.69 0 0 0 .33-.26l5.18-5.18a.68.68 0 0 0 .08-.22zM38.9 20.65c-.61-.79-5.3-5.53-6.11-6.16l-6 6a4.58 4.58 0 0 0 .3.4l5.58 5.55a1.38 1.38 0 0 0 .28.17zm.8.69c-1.15 1-5.53 5.38-6 6.07a3.75 3.75 0 0 0 .26.33q2.78 2.79 5.57 5.56a2.79 2.79 0 0 0 .44.29c.21-.19.38-.33.53-.49l5.3-5.35a.47.47 0 0 0 .05-.1v-.18q-3.03-2.98-6.15-6.13zM52.38 21c-.62-.81-5.5-5.75-6.14-6.21-1 .88-5.46 5.4-5.9 6a1.24 1.24 0 0 0 .17.27l5.85 5.77a.16.16 0 0 0 .09 0h.11A80.5 80.5 0 0 0 52.38 21zM26.74 48c1 1.08 2 2 3 3s1.94 2 3 2.91a1.7 1.7 0 0 0 .33-.22c1.75-1.74 3.51-3.49 5.26-5.25a2.7 2.7 0 0 0 .29-.4 81.69 81.69 0 0 0-5.94-5.9c-.68.48-4.84 4.58-5.94 5.86zm19.78-7.79c.12-.1.24-.18.34-.28l5.44-5.54a.12.12 0 0 0 .05-.09.76.76 0 0 0 0-.23c-.9-.9-1.85-1.87-2.82-2.82s-1.88-2-2.91-2.83c-.84.65-5.48 5.28-5.94 5.9zM59 27.59a2.92 2.92 0 0 0-.22-.34l-5.42-5.38a.16.16 0 0 0-.1-.05.34.34 0 0 0-.1 0c-.92.77-5.34 5.18-5.88 5.86a4.19 4.19 0 0 0 .28.34L53 33.41l.1.05H53zm.79-12.41a1.77 1.77 0 0 0-.3.14L54 20.94a.19.19 0 0 0 0 .1.37.37 0 0 0 0 .11c.9 1.06 5.07 5.18 5.74 5.67.06 0 .15 0 .2-.07l5.4-5.42a1.6 1.6 0 0 0 .2-.34z" fill="#aea334" data-color="1"/>
            <path d="M126.48 15.47a3 3 0 0 1-.5-.28 46.25 46.25 0 0 1-4.63-4.44 3.43 3.43 0 0 1-.37-.54.21.21 0 0 1 0-.2.42.42 0 0 1 .28-.11 1 1 0 0 1 .37.23 45.25 45.25 0 0 1 4.73 5s.07.09.12.34z" fill="#aea334" data-color="1"/>
        </g>
    </g>
</svg>
