<?xml version="1.0" encoding="UTF-8"?>
<svg data-bbox="0.002 -0.029 540.928 214.689" viewBox="0 0 540.93 214.66" xmlns="http://www.w3.org/2000/svg" data-type="color">
    <g>
        <g>
            <path d="M540.79 128.94c-.59-4.93-3.29-9.07-6.73-12.54a78.72 78.72 0 0 0-25.16-16.5 81.89 81.89 0 0 0-14-4.56c-2.5-.56-5-1-7.56-1.31-1.12-.15-4.24-.11-4.89-1.21-.54-.93.77-4.39 1-5.4a68.06 68.06 0 0 0 1.1-9 85 85 0 0 0-1-16.93c-1.66-11.13-5-22-8.51-32.66a73 73 0 0 0-2.6-6.86 4 4 0 0 0-2.78-5.22 29.23 29.23 0 0 0-11.6-11.07C448.73.84 437.62-.23 427.26 0c-11.59.3-23.09 2.37-34.51 4.27s-22.82 3.91-34.19 6.05Q290.8 23.13 224.31 41.66q-33.19 9.26-66 19.93c-21.37 7-42.61 14.34-64.22 20.52-21.41 6.14-43.27 11.12-65.52 13.06-8.15.7-17.66 1.44-23.65 7.78-7.57 8-4.68 19.16-2.59 28.72q1 4.85 2.12 9.68c.31 2.94.66 5.87 1.07 8.79a49.77 49.77 0 0 0 1.55 14.48 60.59 60.59 0 0 0 2.52 7.5c1.08 4.68 2.26 9.33 3.61 13.93 2.73 9.37 6.16 18.88 15.66 23.25 9.26 4.26 20.39 4.39 30.39 4.92 46.1 2.45 91.78-6 137.65-8.79a418.21 418.21 0 0 1 69.16 1.64c23.36 2.44 46.58 5.14 70.09 5.54 47.24.81 94.29-4.66 141-11q8.83-1.18 17.67-2.41c4.91-.68 9.9-1.18 14.74-2.31a31.4 31.4 0 0 0 12.76-5.83c3.9-3.14 6.29-7.57 7.86-12.27 1.73-5.17 2.74-10.62 4-15.92l4.14-17.48c1.3-5.3 3.13-10.9 2.47-16.45zm-23.64.43a2.83 2.83 0 0 0-.23.53q-1.12 5.43-2 10.89c-.34 1.63-.76 3.24-1.13 4.86q.63-8.13 1.27-16.25c.25-3.31-4.84-3.85-5.69-.77q-2.25 8.09-4.49 16.17.35-12.3.37-24.61a29.36 29.36 0 0 1 6.94.69 18.89 18.89 0 0 1 4.96 8.49zm-38.76-4.6a27.47 27.47 0 0 0-3.37-1.64l5.58-.6zm-10.34-6.67-1.42.15a154.9 154.9 0 0 0 7-2.83l7-2.8c.16.11.35.18.51.28.62.33 1.25.65 1.86 1 .24.1.43.25.67.34a2.4 2.4 0 0 0 3-1.1l3.25 2.22c-7.27.78-14.66 1.96-21.87 2.74zm24.41-8.1-1.93-1.32 1.69-.67a3.29 3.29 0 0 0 .44-.28c-.06.76-.13 1.51-.2 2.27zm-44 10.1a.54.54 0 0 1 .05.11l-.64.07zm13.13-2.52a2.59 2.59 0 0 0 .84 1.13l-4.45.48c1.19-.53 2.38-1.09 3.6-1.61zm33.68 16.57c-.71-4.34-1.68-8.64-2.8-12.9l4-.44 1.9-.2zm4.66-19.61-2.08.1.27-3.07c.9.66 1.83 1.27 2.75 1.9a2.47 2.47 0 0 0-.95 1.07zm-16.2-12.2h-2.51l-1.41-1a2.55 2.55 0 0 0-3.75 1h-.3a23.73 23.73 0 0 0 1.24-2.56 14.25 14.25 0 0 0 6.72 2.56zm-17.28-71.08c.28.84.55 1.68.82 2.53a4.82 4.82 0 0 0-2.09-.71c.44-.6.82-1.22 1.27-1.82zM14.08 107c3.22-1.73 7.13-2.3 10.73-2.68 5.05-.53 10.1-.92 15.14-1.57 10.73-1.39 21.38-3.34 31.94-5.76 42.42-9.73 83.2-25.69 124.84-38.18q63.84-19.14 129.12-32.94Q358.33 19 391.07 13.5c10.82-1.82 21.68-3.85 32.64-4.48 9.69-.55 20.65-.36 29.52 4.1a21 21 0 0 1 7 5.72 4 4 0 0 0-1.16.78L422.89 55a130 130 0 0 1-23 10.35C384.8 70.37 369 72.9 353.3 75.58c-4.43.75-8.86 1.47-13.29 2.22q-23.16 2.83-46.28 6-41.87 5.77-83.54 12.82c-2 .23-4 .48-6 .7-16.47 1.85-33 3.85-49.24 7-13 2.51-25.71 6-38.43 9.54-4.31.87-8.62 1.66-12.92 2.55-21 4.32-45.66 9.33-67.18 4-.09 0-.14-.12-.23-.16l-4.94-2.34a3.57 3.57 0 0 0-1.95-2.48l-16.46-7.67a11.76 11.76 0 0 1 1.24-.76zm92.2 26.13c-.19-.44-.39-.87-.6-1.3.65-.26 1.31-.51 1.95-.78zm-53.58 7.55c-.85-3.11-5.75-2.53-5.68.77q.06 3.39.14 6.78l-.8-5.61c-.4-2.8-5.12-2.73-5.59 0-.31 1.84-.51 3.68-.78 5.52-.58-4.36-1.19-8.72-1.91-13.07a2.63 2.63 0 0 0-.17-.45c.87.07 1.73.15 2.6.21a72.22 72.22 0 0 0 19.09 3.79 2.47 2.47 0 0 0-.48 1.06c-1.1 5.82-1.93 11.69-2.62 17.56-1.09-5.55-2.31-11.08-3.8-16.56zm-24.05-7.26c1.48.25 3 .52 4.45.71a2.74 2.74 0 0 0-.71 1.71c-.13 3.93-.13 7.85 0 11.77zm91.12-7.94a2.11 2.11 0 0 0 .16.34l-.61.56-.48-.55zM64.26 138.8c2.72.13 5.44.14 8.16 0-1.56 5.78-2.8 11.61-3.8 17.49-1.07-5.6-2.34-11.16-3.92-16.66a2.51 2.51 0 0 0-.44-.83zm15.86 5.9q-.78-3.12-1.54-6.25c.93-.09 1.87-.17 2.8-.29q-.67 3.26-1.26 6.54zm-68.23-25.08v-.71c1 .66 1.93 1.32 2.92 1.92-.99-.37-1.95-.83-2.92-1.21zM15 145.25a.59.59 0 0 1 0-.13c.07-.34.14-.67.22-1-.1.37-.17.75-.22 1.13zm506.42 32.06c-3.23 8.89-11.67 10.94-20.17 12.21-44.61 6.63-89.67 12.41-134.78 14a532.48 532.48 0 0 1-68.37-1.83c-22.36-2.12-44.62-5.4-67.1-5.87-44.28-.94-88.07 7.05-132.18 9.4-11 .58-22 .82-33 .48-5.58-.18-11.16-.5-16.72-1a91.87 91.87 0 0 1-9.65-1.23c-1.53-3.59-3.06-7.24-4.54-10.94-.25-1.83-.49-3.66-.74-5.49a2.24 2.24 0 0 0 1.36-2.51l-.42-3.18c.54 2.08 1.09 4.17 1.63 6.26a2.88 2.88 0 0 0 .62 1.18c0 2.77.06 5.53.21 8.29.2 3.7 5.81 3.76 5.79 0 0-4.55-.16-9.11-.35-13.65 0-6 .32-11.92.78-17.87q2.21 15.54 4.45 31.11c.46 3.26 5.75 2.44 5.68-.77q-.21-10.69-.44-21.4.77 6 1.21 12.11c.27 3.67 5.79 3.77 5.79 0a247.61 247.61 0 0 1 2.05-31.29 185.85 185.85 0 0 1 3.52 26c.22 3.7 5.66 3.75 5.79 0a180.32 180.32 0 0 1 3.74-30.86l2.42 9.83c.84 3.41 5.33 2.27 5.69-.77.88-7.51 2.17-15 3.77-22.33h.22A87.54 87.54 0 0 1 90.44 150c.39 2.84 5 2.67 5.59 0q1.59-7.92 3.19-15.84l1-.35a37 37 0 0 1 2.52 6.46 2.93 2.93 0 0 0 5.29.7l7-10.73 2 2.26c1.09 1.27 3 .93 4.09 0 2.74-2.22 5.32-4.85 8.39-6.47 40.37-8.27 80.79-16.37 121-25.43q22.07-2.94 44.06-6.4c14.55-2.29 29.09-4.71 43.62-7.17 12.71-1.56 25.42-3.14 38.11-4.89 27.17-3.76 54.85-10 77.36-26.13l11.49-6.34a4.25 4.25 0 0 0 2-2.68c.76-.52 1.55-1 2.31-1.53a5.27 5.27 0 0 0 1.07-1.1c.37 1.27.73 2.56 1.08 3.84a2.66 2.66 0 0 0-2.85 2.8c.33 15.41 11.59 38.79-.66 51.78a2.89 2.89 0 0 0-.92.92 21.41 21.41 0 0 1-2.49 2c-8 5.48-18.66 8-27.72 11.08q-15.42 5.33-31 10.1c-3.55 1.09-2 6.67 1.54 5.58l15.87-4.81a2.86 2.86 0 0 0 1.26.68c8.58 2.1 17.17.85 25.77-.38 9.2-1.31 18.9-2.71 27 2.91a2.91 2.91 0 0 0 3.51-.46l6.31-6.4a132.66 132.66 0 0 1 4 27.85c.11 3.15 4.93 4.07 5.69.77s1.49-6.48 2.23-9.71q-.36 13.35-1.08 26.69c-.18 3.31 4.82 3.87 5.68.77q1.61-5.74 3.2-11.49-.54 6.93-1.09 13.86c-.27 3.46 4.63 3.64 5.69.77.18-.5.33-1 .52-1.52-.05 1.7-.15 3.4-.15 5.11 0 3.21 4.93 4 5.69.77q1.9-8.19 3.83-16.39a2.4 2.4 0 0 0 1.19-1.82l1.08-6.37c-.15 3.21-.46 6.41-.91 9.6a3.06 3.06 0 0 0 1.6 3.14 89 89 0 0 1-2.99 11.28zm8.38-33.88a58.47 58.47 0 0 0-2.32-15.3c-2-6.51-6.56-10.3-12.2-12.19a35.36 35.36 0 0 0-5.25-3.53 92.19 92.19 0 0 1-9.45-6.28 73.89 73.89 0 0 1 24.49 14c3 2.56 6.46 5.65 7 9.76.57 4.33-1.07 9.19-2.28 13.54z" fill="#a3563e" data-color="1"/>
            <path d="M62.49 110.45c43.3 2.14 85.54-9.83 127.1-20.31 42.92-10.82 85.93-21.37 128.76-32.52 11.25-2.93 22.8-5.58 33.73-9.56 7.81-2.84 14.72-7 18-14.93a2.89 2.89 0 0 0-2-3.56 79.58 79.58 0 0 0-55.93 11.57c-3.12 2-.22 7 2.92 5a73.54 73.54 0 0 1 47.6-11.42c-4.34 5.74-12.51 8-19.1 10-9.47 2.78-19 5.34-28.56 7.81-20.1 5.21-40.26 10.2-60.4 15.28C214 78 173.51 89.41 132.51 98c-23 4.81-46.44 7.88-70 6.71-3.74-.23-3.73 5.56-.02 5.74z" fill="#a3563e" data-color="1"/>
        </g>
    </g>
</svg>
