<?xml version="1.0" encoding="UTF-8"?>
<svg data-bbox="0.01 0.001 234.494 333.828" viewBox="0 0 234.5 333.81" xmlns="http://www.w3.org/2000/svg" data-type="color">
    <g>
        <g>
            <path d="M183.81 104.63c-1.34-6.29-2.83-12.6-4.72-18.75-1.82-5.9-4.22-11.7-8-16.61a28.52 28.52 0 0 0-13.4-9.89 24.07 24.07 0 0 0-14.57 0 19.75 19.75 0 0 0-2.5.82c-.19.09-.37.2-.57.29a41.27 41.27 0 0 0-13.72 9.64 66.37 66.37 0 0 0-8.8 10.63 135 135 0 0 0-8.86 15.33 161.87 161.87 0 0 0-9.55 23.45 146.47 146.47 0 0 0-5.4 16.83 97.13 97.13 0 0 0-2.58 35.4A78.28 78.28 0 0 0 95 188.5a59.07 59.07 0 0 0 4 10.5 40.55 40.55 0 0 0 9.59 12.68 36.43 36.43 0 0 0 6.52 4.54l.11.05a20.68 20.68 0 0 0 11.58 5.63 18.57 18.57 0 0 0 2.36.14c.45.09.9.21 1.36.28a32.68 32.68 0 0 0 17-1.57 29.54 29.54 0 0 0 7.65-4.43c9.14-4.39 16.67-11.86 22.1-20.34 6.24-9.74 9.67-20.89 11.17-32.3 1.71-13.1.71-26.37-1.1-39.4q-1.44-9.89-3.53-19.65zm-19.6 63.12h.2zM154 70l-.74 1a2.94 2.94 0 0 0-4-1.24c-.51.28-1 .61-1.49.91a2.58 2.58 0 0 0-3.78-.32 1.85 1.85 0 0 0-.29-.13 13.35 13.35 0 0 1 3.25-1.14A12 12 0 0 1 154 70zm6.79 107.88-.32.34a2.26 2.26 0 0 0-1.64.85c-.15.19-.29.4-.44.6-.14.19-.29.36-.44.55l1.35-2.67c.49.15.99.27 1.5.36zm-42.27-24.55c.11.38.22.75.34 1.13a.24.24 0 0 1 0 .08 2.94 2.94 0 0 0-.46.67c.04-.6.08-1.21.13-1.85zm9.7 32.67c-.05.22-.09.45-.13.68-.27-.68-.57-1.35-.82-2 .31.42.62.87.95 1.32zm-7.59-2.93a.91.91 0 0 1 0-.17 71 71 0 0 0 5.37 12.94l-1 1.67a8.63 8.63 0 0 0-2.37-4.41 52.72 52.72 0 0 0-2-10.03zm17.72 16.51h.07l-.31.22zm-14.27 3.36a3.13 3.13 0 0 0 2 .8l-.76 1.39a1.21 1.21 0 0 0 0 .18 11.26 11.26 0 0 1-2.46-1.65 3.1 3.1 0 0 0 1.22-.72zm21.53-11.07a13.1 13.1 0 0 0 .26-1.44 2.34 2.34 0 0 0-.44-1.6c1.09-1.07 2.18-2.13 3.31-3.16zm-.8-16.69-.1-.06c-.15-.91-.33-1.82-.53-2.72a2.66 2.66 0 0 0 1-2.86 36 36 0 0 0 2.89 2.46c-1.07 1.05-2.18 2.11-3.26 3.18zm19-97.41a3.7 3.7 0 0 1-1.06 2c.4-.63.75-1.31 1.09-2zm-51.36 122.6c.45 1.84.94 3.68 1.48 5.5a46.11 46.11 0 0 1-2.5-4.72 2.87 2.87 0 0 0 1.05-.78zm41.94-.37a2.76 2.76 0 0 0-1.6-1.42c.21-.17.41-.36.61-.54a2.33 2.33 0 0 0 2.56-.77 104.21 104.21 0 0 0 12.78-19.37 16.42 16.42 0 0 0 1.86-.5 94.67 94.67 0 0 1-11.54 17.51c-1.45 1.77-3.06 3.43-4.64 5.09zm-18.14-59.76a3.28 3.28 0 0 0 1.36-.28 59.74 59.74 0 0 0 .15 6.13.45.45 0 0 1 0 .11c-.56-1.96-1.06-3.95-1.48-5.96zM121.8 90a2 2 0 0 0-.35 0c.3-.56.6-1.12.91-1.67-.2.58-.36 1.14-.56 1.67zm-19.46 48-.14-.3c.13-.47.28-.93.41-1.4-.1.6-.17 1.17-.27 1.7zm27.82 77.39-.46-.05h-.32l-.45-.07c-.65-.1-1.29-.22-1.93-.35-.82-.17-1.62-.4-2.42-.63a37.54 37.54 0 0 0 15.82-2.19 26 26 0 0 1-7.28 3.52c-.99-.03-1.97-.08-2.96-.19zm16.33-109.49c1-2.44 1.93-4.88 2.89-7.33l5-4.13q-1.71 2.14-3.25 4.4a76.35 76.35 0 0 0-4.9 8.33c.06-.38.16-.81.26-1.23zM98.55 177l-.07-.49-.06-.56v-.42c.37 1.53.78 3 1.22 4.55.3 2.45.7 4.89 1.24 7.31a68.56 68.56 0 0 1-1.88-7.62c-.18-.91-.33-1.83-.45-2.77zm85.26-22.87a88.42 88.42 0 0 1-8.11 5q-2.31 1.23-4.7 2.33c-.68.32-1.64.75-2.15 1s-1.48.61-2.2.88a42.72 42.72 0 0 1-4.54 1.44c-.75.18-1.51.35-2.27.48l-.64.1h-.07l-1.23.12a18.77 18.77 0 0 1-2.25 0c-.33 0-.66-.05-1-.07h-.14l-.72-.13a15.19 15.19 0 0 1-2-.56l-.37-.15-.35-.16-.15-.09-.62-.53a18.81 18.81 0 0 1-1.74-1.83l-.35-.43-.05-.06c-.23-.33-.46-.66-.68-1a22.92 22.92 0 0 1-1.28-2.2c-.17-.33-.33-.66-.48-1-.07-.14-.13-.28-.19-.42s-.14-.34-.16-.39c-.3-.77-.57-1.56-.81-2.35a37.84 37.84 0 0 1-1.13-4.93c0-.23-.07-.45-.1-.68a.23.23 0 0 1 0-.07c0-.28-.07-.56-.1-.83-.09-1.73-.13-3.45-.1-5.18 0-1.46.1-2.93.22-4.39.05-.73.12-1.46.2-2.19 0-.37.08-.73.13-1.09v-.44c0-.14.05-.32.06-.43a78.81 78.81 0 0 1 4.6-17.34l.41-1c.06-.15.12-.3.19-.45a1 1 0 0 1 0-.11c.31-.71.62-1.42.95-2.13q.94-2.05 2-4a81.15 81.15 0 0 1 4.65-7.62c.42-.6.84-1.2 1.27-1.79.25-.33.49-.66.74-1l.19-.26.29-.36c.9-1.15 1.84-2.28 2.82-3.37a71.47 71.47 0 0 1 6.4-6.39c1.45-1.29 3.1-2.51 4.45-4l.24.66c.49 1.43.94 2.87 1.36 4.32 1.77 6.08 3.23 12.26 4.52 18.46s2.4 12.64 3.27 19c0 .12.07.56.09.64l.15 1.19c.1.79.19 1.58.28 2.37.19 1.59.35 3.17.5 4.76.28 3.13.49 6.27.59 9.41s.23 6.13.11 9.28z" fill="#ffffff" data-color="1"/>
            <path d="M227.93 239.78c-3.69-7.26-8.44-13.92-12.11-21.19a56.81 56.81 0 0 1-6.14-24.16 58.57 58.57 0 0 1 4.4-23.49c2.83-7 6.7-13.61 10.25-20.29s6.91-13.46 8.76-20.76a45.75 45.75 0 0 0 .32-21.23 64.06 64.06 0 0 0-2.13-7.28 2.38 2.38 0 0 0-.4-3.16c-.4-.32-.76-.66-1.14-1C226 87.89 221 79 218.24 69.31c-.24-.84-.39-1.68-.59-2.53-.34-2.86-.63-5.69-1-8.43a28.54 28.54 0 0 1 .85-7.32 2.65 2.65 0 0 0-2.81-3.3 50.73 50.73 0 0 0-6.18-15c-4.27-6.75-9.94-12.49-15.91-17.75s-12.43-10.9-20.17-13.6A24.35 24.35 0 0 0 160.55.3c-4.21.66-8.14 2.47-11.92 4.34-16 7.91-32 16-47.26 25.39-13.75 8.44-28 17.89-38.09 30.66a61.93 61.93 0 0 0-11.21 21.7c-2.36 8.29-3.35 16.89-5.28 25.29-3.93 17-11.23 32.93-18.28 48.81-7.14 16.1-13.56 32.4-18.18 49.42a294.29 294.29 0 0 0-9.07 104.35C1.61 314 1.35 319 4 322s7.5 3.24 11.19 3.91c9.37 1.71 18.74 3.36 28.17 4.68 18.63 2.61 37.3 3.73 56 1.76 9.33-1 18.61-2.4 28-3.12a121.41 121.41 0 0 1 27 .79c9.08 1.33 18.1 3.25 27.28 3.71a77.63 77.63 0 0 0 26.28-3.19 75 75 0 0 0 11.85-4.66c3.32-1.65 6.5-3.85 8.49-7.05 2.32-3.7 2.64-8.27 3.2-12.49q.93-7.06 1.58-14.16c.86-9.24 1.68-18.65 1.27-27.94a58.63 58.63 0 0 0-6.38-24.46zm-12.11-4.19c.49.69 1 1.39 1.44 2.08-.51-.56-1-1.13-1.51-1.68a1.76 1.76 0 0 0 .07-.4zm3.26 84.58-.19.09c.16-.38.33-.76.49-1.15a2.45 2.45 0 0 0 .55.46c-.29.19-.53.43-.85.6zm2.92-55.24c-.36 4.47-1.23 8.9-2 13.32q-1.18 7-2.39 14.09-2.46 14.42-4.91 28.83a3.22 3.22 0 0 0 .23 1.91c-1.57.64-3.16 1.23-4.76 1.75a73 73 0 0 1-25.33 3.6c-8.82-.32-17.47-2.13-26.17-3.44a126 126 0 0 0-26.82-1.3c-9.15.57-18.22 1.91-27.32 2.95A201.82 201.82 0 0 1 75 328c-18.35-.42-36.52-3.35-54.55-6.6L14 320.27c-1.72-.31-3.84-.45-5.39-1.33s-1.4-2.44-1.56-3.88q-.37-3.45-.68-6.9-1.08-12.62-1.07-25.29a289.76 289.76 0 0 1 18.29-100.78c5.95-15.93 13.58-31.14 19.89-46.92a182.84 182.84 0 0 0 8-24.33c2.06-8.37 3-17 5.23-25.3a57.2 57.2 0 0 1 10-20.66 92.14 92.14 0 0 1 16.48-16c13.44-10.5 28.39-19.05 43.42-27 7.65-4.05 15.38-8 23.11-11.83 3.73-1.87 7.51-3.76 11.65-4.5a19.67 19.67 0 0 1 11 1.51c7.08 3 13.1 8.52 18.7 13.65s10.82 10.75 14.48 17.45c.49.9.94 1.82 1.36 2.74a75.71 75.71 0 0 0 3 41.89A73.7 73.7 0 0 0 220 101.57c1.07 1.43 2.21 2.85 3.26 4.32 2.08 15.27-3.89 30.26-10.18 43.84-6.17 13.31-13.07 26.36-16 40.88-2.72 13.52-1.91 28.13 6.57 39.56 3.87 5.22 8.76 9.55 12.73 14.67a27.68 27.68 0 0 1 4.65 8.42 30.67 30.67 0 0 1 .97 11.67zm-20.94-63.69v-.32c.01.08.01.22.02.32z" fill="#ffffff" data-color="1"/>
        </g>
    </g>
</svg>
