<?xml version="1.0" encoding="UTF-8"?>
<svg data-bbox="-0.004 0.012 267.521 344.392" viewBox="0 0 267.51 344.41" xmlns="http://www.w3.org/2000/svg" data-type="color">
    <g>
        <path d="M267.05 24.16c-.44-3.09-1.05-6.18-3.18-8.64-1.9-2.19-4.79-3.62-7.35-5a91.41 91.41 0 0 0-35-10.2 92.53 92.53 0 0 0-37.31 4.61c-12.76 4.24-24.87 10.27-37 15.86C123.13 31.86 99.15 43.2 76 56.08c-11.53 6.45-22.87 13.28-33.84 20.63-10.34 6.92-21.35 14-28.76 24-6.85 9.24-9.68 21.76-4 32.17 4.26 7.74 12.31 12.59 20 16.81a3.07 3.07 0 0 0 2 2.09c13.07 5.1 22.64 16.12 27.26 28.79a72.71 72.71 0 0 1 1.44 15.17c0 9.65-1.93 19.53-6.47 28.2A44.36 44.36 0 0 1 45 235.58a49.21 49.21 0 0 1-12.94 8.47c-5.17 2.5-10.52 5-14.5 9.16s-6.37 9.43-8.03 14.79c-.83 2.68-1.49 5.42-2.11 8.15a10.59 10.59 0 0 0-.12 5.66c-.36 1.45-.66 2.9-1 4.35a2.62 2.62 0 0 0-1 4.43c-.69 3-1.44 6.05-2.08 9.1C1.9 305.88.13 312.29 0 318.61c-.11 5.88 2.14 11.22 7.16 14.73 4.29 3 9.68 4.18 14.8 5.09a386 386 0 0 0 41.67 5.11 386.84 386.84 0 0 0 83.71-3.49c6.73-1 13.43-2.19 20.08-3.59 5.7-1.21 11.45-2.74 16.53-5.55 10.65-5.88 14.88-16.76 17.26-27.75 2.85-13.15 5.23-26.41 7.82-39.61 1.19-6.05 2.51-12.41-.23-18.26-2.37-5.08-7.32-8.36-10.76-12.68a40.38 40.38 0 0 1-3.11-4.6 2.65 2.65 0 0 0-1.78-3.31c-7.93-16.66-4.57-37.55-.06-54.58a181.3 181.3 0 0 1 32.28-64.81l.79-1a5.35 5.35 0 0 0 .47-.29A67 67 0 0 0 241 88.77a2.39 2.39 0 0 0 1.33-.67 41.67 41.67 0 0 0 8.49-13.94c7.07-9.65 12.91-19.95 15.47-31.85a51.78 51.78 0 0 0 .76-18.15zm-57.91 60.61c-1-.4-2-.69-3.07-1l11.84 1.37a2.55 2.55 0 0 0-1 2 2.73 2.73 0 0 0 .61 1.59c-.66-.33-1.32-.69-2-1a67.2 67.2 0 0 0-6.38-2.96zm19.55-2.2a11.57 11.57 0 0 0 .28-1.3v-.11l1.71-.12a14.53 14.53 0 0 0-1.99 1.53zm-21.85 7.12c.31.12.64.27.95.4a2.77 2.77 0 0 0-.6.63c-.06.1-.06.21-.11.31l-9.76-4a62.61 62.61 0 0 1 9.52 2.66zm34.6-12.31a2.38 2.38 0 0 0 .13-.6 2.45 2.45 0 0 0-.17-.82h1.16c-.37.48-.74.95-1.12 1.42zm-38.66-.11a2.82 2.82 0 0 0-.31-.07 175.21 175.21 0 0 0-30.73-.2 2.35 2.35 0 0 0-.92-.16 161.24 161.24 0 0 0-41.91 6.87l.75-.29q2.44-.9 4.94-1.7a110.67 110.67 0 0 1 20.46-4.48A243.25 243.25 0 0 1 183.5 76h20.41a2.5 2.5 0 0 0-1.13 1.27zm-90.19 14.3a3.14 3.14 0 0 0 .78 1.69c-3.54 1.48-7.05 3-10.46 4.77-.8.4-1.57.86-2.36 1.28.74-.55 1.46-1.07 2.47-1.78 1.38-1 2.77-1.91 4.19-2.82 1.79-1.12 3.58-2.11 5.38-3.14zM10.29 293.94a3.12 3.12 0 0 0 2.43 1.5 30.87 30.87 0 0 0 7.44-.26 2.63 2.63 0 0 0 .5.06q-5.4.45-10.82.74c.16-.68.29-1.36.45-2.04zM24 295l10.78-1.37a3.51 3.51 0 0 0 .6-.18l16.14-2.17a3.21 3.21 0 0 0 .33.12Q38 293.67 24 295zm162.21-69.71a1 1 0 0 1 0-.17c.2-.5.39-1 .59-1.51.16.43.32.86.5 1.29-.45.1-.8.2-1.14.34zm13.22 16.81c1.94 1.93 3.92 4 4.78 6.63 1.88 5.68-.34 12.28-1.45 17.91l-3.9 19.88c-1.19 6-2.23 12.1-3.68 18.07-1.25 5.14-2.92 10.25-6 14.66a26.26 26.26 0 0 1-12.78 9.19c-5.62 2.05-11.6 3.13-17.48 4.23q-10 1.88-20.19 3.21A379.54 379.54 0 0 1 98 338.9a385.07 385.07 0 0 1-40.9-1.29q-10.15-.86-20.24-2.27A174.68 174.68 0 0 1 18 332.07c-4.53-1.17-9.5-3.14-11.43-7.6-2.28-5.26-.32-11.69.75-17 .4-2 .87-4 1.29-6 25.17 1.54 53.51 2.76 75.43-11.37.31-.09.63-.16 1-.24a2.49 2.49 0 0 0 1.77-1.7 77 77 0 0 0 9.19-7.88c12-7.6 20.32-19.33 29.75-29.88a173.13 173.13 0 0 1 18.52-13.4 176.57 176.57 0 0 1 19.33-10.36c3.24-.85 6.53-1.58 9.83-2.2q-2.51 6.53-5 13.05c-.68 1.77.6 3 2.13 3.2a76.85 76.85 0 0 1-8.23 8.89 99.33 99.33 0 0 1-20.73 13.82c-3.25 1.61-.39 6.15 2.85 4.68a82.63 82.63 0 0 0 22.5-15.19c.47-.41 1-.8 1.44-1.23a3 3 0 0 0 3.61-.1 141.47 141.47 0 0 0 17.85-16.19 2.65 2.65 0 0 0 .59-2.57l.61-.59a44.48 44.48 0 0 0 2.65 3.79 79 79 0 0 0 5.68 6.05zm-1.83-101.41a184 184 0 0 0-11.39 33.84c-2.43 10.58-4 21.49-3.12 32.34.17 2.15.46 4.28.83 6.41a3.21 3.21 0 0 0-.54 0 115.74 115.74 0 0 0-34.13 11.33c-11 5.68-20.58 13.22-29.37 21.69-15.79 15.2-33 35.51-57.12 36.37l-1.76-.12a3 3 0 0 0-2.31-.51c-.48.09-1 .15-1.44.23q-1.91-.16-3.81-.36l-5.76-.63c-8.54-1.46-17-3.24-25.7-1.38a34.1 34.1 0 0 1-6.39 1.1 5.54 5.54 0 0 1-2.33-.31 83.57 83.57 0 0 1 3.21-11c2-5.3 5.84-9.05 10.62-12.18s9.58-5.8 14-9.27a71.19 71.19 0 0 0 20.23-25.06c4.53-9.51 6.89-20.1 5.87-30.58a56.81 56.81 0 0 0-3.36-14.4 51.15 51.15 0 0 0-2.09-6.64 2.35 2.35 0 0 0 .83-.53 34.59 34.59 0 0 0 9-17.5 3.18 3.18 0 0 0 0-1.24c.42-1 .69-1.65 1.16-2.68.59-1.28 1.27-2.52 1.92-3.78l.75-1.48c.28-.52.51-1.07.8-1.59a104.7 104.7 0 0 1 6.41-10c3.84-4.13 7.48-8.42 11-12.84.42-.41.8-.86 1.22-1.26.78-.75 1.63-1.44 2.43-2.17a135.45 135.45 0 0 0 24.17-15.13 176.47 176.47 0 0 0 16.92-5.92 65.53 65.53 0 0 0 20.59-5.42c3.69-.3 7.41-.48 11.18-.41A107.74 107.74 0 0 1 204.97 96c1.26.46 2.77 1 3.82 1.47a3.1 3.1 0 0 0 3.43-.51l8.37 5.6c-1.73 2.2-3.42 4.42-5 6.71a183.72 183.72 0 0 0-17.99 31.42zm60.7-91.25A88.54 88.54 0 0 1 247 70.1a2.59 2.59 0 0 0-1 .44h-56.39c-17.56 0-35.28 0-52.29 4.7a121.46 121.46 0 0 0-37.71 18A125.1 125.1 0 0 0 70 122.74a110.23 110.23 0 0 0-16.84 35.82c-5.32-5.12-12.08-8.75-18.59-12.28-7.16-3.87-15.17-7.94-19.56-14.92-6-9.5-2.34-21.21 4.42-29.37A74.5 74.5 0 0 1 32.68 90c5.11-3.77 10.39-7.36 15.71-10.85C70 65 92.9 52.77 116.2 41.42c11.78-5.74 23.67-11.26 35.58-16.73s23.6-11.31 36.08-15.21c22.89-7.14 48.77-4.76 69.27 7.69a9.11 9.11 0 0 1 2.79 2.28 10.09 10.09 0 0 1 1.38 4.17 41.1 41.1 0 0 1 .58 8.65 54.82 54.82 0 0 1-3.58 17.17z" fill="#a3563e" data-color="1"/>
    </g>
</svg>
