<?xml version="1.0" encoding="UTF-8"?>
<svg data-bbox="0 0 302.367 227.328" viewBox="0 0 302.36 227.34" xmlns="http://www.w3.org/2000/svg" data-type="color">
    <g>
        <path d="M302.16 88.73c-.45-3.92-.92-7.84-1.37-11.76l-5.46-47q-.94-8.09-1.88-16.16a1.81 1.81 0 0 0-.22-1.9c-.21-1.82-.43-3.64-.64-5.46-.37-3.27-1.12-6.45-5.07-6.45a47.45 47.45 0 0 0-5.52.66l-5.7.77q-22.92 3.18-45.55 8.06-11.31 2.43-22.52 5.29c-7 1.78-14.27 3.36-21 6.07a35.37 35.37 0 0 0-15.44 12c-4.16 5.55-7.37 11.87-10.64 18C154.1 63.94 148 77.39 142 91c-2.59 5.89-5.43 11.88-9.75 16.72s-9.69 7.9-15.52 10.18-12.17 3.88-18.29 5.71A146.23 146.23 0 0 0 78.85 131a140.34 140.34 0 0 0-18.49 10.3c-5.33 3.51-10.61 7.35-14.75 12.25a29.84 29.84 0 0 0-6.36 12 17.08 17.08 0 0 0-.92-1.81 20.48 20.48 0 0 0-6.86-6.52c-3.08-2-6.24-3.81-9.36-5.71q-9.52-5.76-19-11.54a2.06 2.06 0 0 0-3.11 1.8 435.63 435.63 0 0 0 3.53 49.49q1.58 12.15 3.8 24.19c.6 3.24 1 6.86 4 8.87 2.78 1.89 6.76 2.19 10 2.59a58.71 58.71 0 0 0 25.61-2.61 2.09 2.09 0 0 0 1.22-3 .87.87 0 0 1-.07-.17c2.8 1.09 6.15.91 9.05 1 7.87.22 15.74.15 23.6-.15 15.75-.59 31.45-2.08 47.08-4 13.88-1.7 28.54-2.82 41.42-8.7 5.92-2.7 11.61-6.57 15.28-12s4.71-12.15 6-18.49 3.26-11.94 7.13-17.06a51 51 0 0 1 13.47-12c12.09-7.66 26.16-11.14 39.3-16.52a147.74 147.74 0 0 0 35.43-20.65c2.69-2.11 5.3-4.33 7.84-6.63s5-4.39 6.8-7.1c2.07-3.12 2.07-6.56 1.67-10.1zM290 19.57v.09zM65.54 142.83a146.67 146.67 0 0 1 37.22-16.24c11.77-3.38 24.37-6.76 32.73-16.36 4.18-4.81 7.09-10.5 9.66-16.29 2.86-6.42 5.58-12.9 8.57-19.27q4.69-10 9.87-19.75a186.77 186.77 0 0 1 10.29-18 31.83 31.83 0 0 1 14.41-12.15c6.53-2.65 13.61-4.18 20.44-5.93q21.86-5.58 44.07-9.57 11.1-2 22.27-3.59 5.44-.78 10.92-1.46c.43 0 1.72-.38 2.13-.06a1.59 1.59 0 0 0-.45.37 67 67 0 0 0-10.49 17c-2.41 2.06-4.95 3.95-7.27 5.7a151.74 151.74 0 0 0-11.78 9.92 1.57 1.57 0 0 0-1.07 1c-3 2.85-5.91 5.8-8.69 8.92-13.21 14.81-24 31.52-36.45 47a173.91 173.91 0 0 1-19.86 21.37c-1.91 1.7-3.89 3.31-5.91 4.85-.58.36-1.16.72-1.75 1.07a1.67 1.67 0 0 0-1 .6q-12.7 7.59-26 14.14c-8.51 3.28-17.29 5.85-26 8.3q-18.44 5.16-37.18 9.12-8.93 1.88-17.89 3.47a85.2 85.2 0 0 0-11.55 1.55c-1.29.28-2.58.6-3.86 1-1.56.24-3.12.52-4.68.75-3.67.53-8.27.63-11.72 2.5 3.83-8.79 13.12-15.04 21.02-19.96zM276.88 38.71c-.43.4-.88.79-1.35 1.15l-.27-.13c0-.22.09-.44.14-.67a6.2 6.2 0 0 0 1.46-.46.36.36 0 0 0 .02.11zm-3-9.32c-.14.37-.29.73-.42 1.1-.45 0-.89.13-1.33.21zm-8.8 14.11h-.77l.34-.39c.14.1.29.24.43.39zm-5.63-1.91-.09.07a.46.46 0 0 1 .07-.07zM46.81 166.22c-.73.53-1.42 1.13-2.11 1.71a3.66 3.66 0 0 1 .55-.71 5.93 5.93 0 0 1 1.56-1zm-12.33.66c.08.15.15.31.22.45.22.45.4.92.6 1.37-.29-.54-.6-1.08-.92-1.62.03-.08.07-.08.1-.2zM27 174.61h.28c-.1.38-.15.78-.24 1.17-.08-.37-.15-.75-.23-1.12a1.39 1.39 0 0 0 .19-.05zm-1.49-10.1a8.15 8.15 0 0 0-.5 1c-.11-.52-.21-1-.31-1.55zm-.94 58.62a35.44 35.44 0 0 1-9.92-1.68c-3-1.13-3-5-3.46-7.66A424.61 424.61 0 0 1 5.26 168c-.5-6.57-.79-13.15-1-19.73a162.62 162.62 0 0 0 15.6 12.47l5.52 27.89c.46 2.32 4 1.7 4-.54a52.71 52.71 0 0 1 3-16.1 47.12 47.12 0 0 1 2.36 5.81c3.08 9.28 3.58 19.11 5.15 28.69A72.29 72.29 0 0 0 43.68 221a55.7 55.7 0 0 1-19.13 2.13zm269.6-123.31a141.33 141.33 0 0 1-32.05 23.36 150.07 150.07 0 0 1-18.69 8.33c-6.71 2.5-13.52 4.74-20.14 7.49-11.45 4.75-22.54 11.22-29.83 21.53a44.11 44.11 0 0 0-6.83 16.88c-1.26 6.06-2.11 12.5-5.65 17.76s-9.45 8.78-15.18 11.17a85 85 0 0 1-19.21 5c-14.77 2.39-29.74 4-44.64 5.24A405.91 405.91 0 0 1 56 218c-2.18-.07-5.73.33-7.54-1.34a2 2 0 0 0 .23-1.39c-.83-4.12-1.58-8.25-2.29-12.39-.48-5.83-1.19-11.65-2.19-17.42 1.49-3.72.5-7.41-.08-11.22 4.65-5.51 11.39-8.87 18.31-10.81q7-1.06 13.91-2.29c7.07-.54 14.21-.48 21.25-1.06a123 123 0 0 0 32.74-7.73c9.81-3.64 19.41-7.92 28.81-12.52 1-.4 2-.75 3-1.16 2.45-1 4.85-2.1 7.22-3.24a1.58 1.58 0 0 0 .74-.1 97.6 97.6 0 0 0 14.81-7h.21a5 5 0 0 0 0 1.09 4.74 4.74 0 0 0 4.7 4.11 2.86 2.86 0 0 0 .64-.16l1.2 1.42c1.1 1.29 3.68.29 3.49-1.45a25.52 25.52 0 0 1 0-5 8.67 8.67 0 0 0 2.67-5.31c.18-1 .32-2.07.51-3.16q2.25-2 4.4-4.13a165.62 165.62 0 0 0 15.19-17.84c9.41-12.5 17.74-25.83 28-37.68a112.54 112.54 0 0 1 13.68-13.5 1.61 1.61 0 0 0 .31.19 18.31 18.31 0 0 0 8.34.52 9 9 0 0 0 6.72 2.53l7.29 4.42c.51.83 1 1.68 1.58 2.46a2.12 2.12 0 0 0 2.31.94 2.07 2.07 0 0 0 1.51-2c-.27-4.63-.54-9.26-.56-13.9 0-2.26 0-4.53.17-6.79q.67-3.27 1.23-6.54a39.06 39.06 0 0 1 2.13-4l3.84 33.07 2.67 22.93c.42 3.64 1.05 7.32 1.2 11s-1.68 5.84-4.18 8.27z" fill="#ffffff" data-color="1"/>
    </g>
</svg>
