<?xml version="1.0" encoding="UTF-8"?>
<svg data-bbox="0 -0.012 392.63 281.707" viewBox="0 0 392.63 281.64" xmlns="http://www.w3.org/2000/svg" data-type="color">
    <g>
        <path d="M392.63 7c0-.36 0-.7-.05-1a12.45 12.45 0 0 0-.32-1.94 2.93 2.93 0 0 0-.76-1.32A6.82 6.82 0 0 0 385.63 0c-3.62 0-7.29.55-10.9.84l-11.05.88-44.56 3.57c-14.54 1.16-29.1 2.2-43.64 3.53-14.07 1.29-28.25 3.17-41.74 7.89C220.9 21.2 208.9 28 197.27 35.35S174 50.41 162 57.36c-24.57 14.28-50.08 26.56-75.55 38.84-12.64 6.1-25.28 12.21-37.81 18.57q-9.55 4.85-19 9.92c-5.6 3-11.37 5.94-16.49 9.88-4.9 3.77-9.15 8.43-11.42 14.5-2.19 5.78-2.47 12.5.14 18.18a16.83 16.83 0 0 0 1.79 3q2.4 9.94 4.81 19.89c.92 3.8 1.81 7.62 2.76 11.41.75 3 2 5.86 4.69 7.32 2.52 1.36 5.39 1.26 8.1.86 3.48-.51 6.94-1.19 10.4-1.77q10.65-1.78 21.32-3.36 43.26-6.37 86.89-9.1c29.22-1.84 58.47-2.37 87.72-1.9 14.58.23 29.24.67 43.88.61a2.79 2.79 0 0 0-.21 1.16c.22 3.65.28 7.31.16 11q-.09 2.7-.3 5.4-.11 1.31-.24 2.61c0 .43-.09.87-.14 1.3 0 .22-.05.43-.07.65s0 .19 0 .25v.24c-.28 2.13-.56 4.3-1 6.42l-.29.11a4.91 4.91 0 0 1-.63.17l-.42.08h-.39l-.79.05h-3.42c-2.48.06-5 .2-7.42.43a109.27 109.27 0 0 0-15.44 2.55c-9.78 2.36-19 6.49-28.54 9.83a96 96 0 0 1-14.14 3.92q-.84.17-1.68.3l-1 .16-.33.05h-.18c-1.17.16-2.34.3-3.52.41-2.39.24-4.8.37-7.2.39s-4.72 0-7.07-.22c-1.23-.09-2.45-.21-3.67-.35l-1.69-.21h-.37l-1-.15a84.47 84.47 0 0 1-14-3.56c-1.12-.39-2.24-.8-3.35-1.24a1.67 1.67 0 0 0-.49-.08c-.06-.57-.09-1.14-.13-1.71a3.21 3.21 0 0 0 1.64-3.55c-.2-1.31-.38-2.63-.56-3.95l-.27-2-.12-1-.07-.55q-.5-4-.9-8.06c-.2-2-.29-3.95-.45-5.93s-.08-3.67 0-5.5a3 3 0 0 0-.5-1.61c-.06-1-.18-2-.23-3a3 3 0 0 0-2.43-3 2.77 2.77 0 0 0-3.07 2.17A108.5 108.5 0 0 0 147 221a109.92 109.92 0 0 0 1.29 11.75 33.15 33.15 0 0 0 2.36 8.7 25.34 25.34 0 0 0 3.71 8.81 37.18 37.18 0 0 0 8 8c1.37 1.06 2.75 2.11 4.09 3.2l.1.08.09.09.38.32c.31.27.61.55.91.83a27.07 27.07 0 0 1 1.9 2c.51.58 1 1.2 1.45 1.83l.19.27.28.41c.27.41.55.82.81 1.24 1 1.59 2.05 3.18 3.16 4.71a17.63 17.63 0 0 0 8.71 6.8c3.83 1.24 8.07 1.29 12 1.48s8.11.23 12.16.1a159.39 159.39 0 0 0 24.63-2.76 153.92 153.92 0 0 0 23.56-6.46c3.7-1.33 7.6-2.63 11-4.76a17.43 17.43 0 0 0 7.22-9.54c1.26-3.69 1.6-7.7 2.11-11.58q.93-7 1.84-14l3.66-27.76q.45-3.5.92-7c.2-1.54-.35-3.25-1.88-3.69a341.54 341.54 0 0 0 35.35-2.18c11.67-1.41 24.34-4.46 32.67-14.15 7.29-8.48 11-21.54 5.39-32.16-3.62-6.85-9.7-10.75-16.42-12.75a48.52 48.52 0 0 0 13-1.6c6.18-1.9 10.25-6.63 13.25-12.6a185.59 185.59 0 0 0 8.34-19.87c9.81-27.11 14.3-56 18.44-84.67.27-1.89.77-4.09.92-6.21.01-.28.03-.55.04-.88zM19.35 137.41c5.54-3.63 11.46-6.63 17.27-9.71 24.75-13.15 50.09-24.88 75.19-37.19s49.72-25.2 73.37-40.36c11.5-7.38 22.91-15 35-21.15a129.63 129.63 0 0 1 39.35-12.27c14-2.13 28.27-2.88 42.4-4l44.18-3.53 22.09-1.77 11.05-.88 2.35-.19-48.1 21.46-1.58.71c-10.1 3.14-20 7-29.13 12.73-.22.14-.43.3-.65.43-5.8 2.43-11.75 5.06-16.24 9.56a19.7 19.7 0 0 0-4.34 6.87 2.65 2.65 0 0 0-4 0c-10.41 13.1-26.92 16.58-41.84 19.73a574.42 574.42 0 0 0-56.26 14.86c-37.71 12-74.38 27.47-110.94 43-10.09 4.3-20.13 8.88-30.35 12.81-5 1.93-10.27 3.6-15.64 3.52a22.22 22.22 0 0 1-7.36-1.43 23.26 23.26 0 0 0-7.12-1.77c2.7-4.84 6.89-8.53 11.3-11.43zM6.48 163.53a15.91 15.91 0 0 1-.73-7.53 29.38 29.38 0 0 1 .81 7.6zm213.72 79c1.78-.58 3.56-1.12 5.35-1.64a108.94 108.94 0 0 1-11.08 3.55q2.86-.96 5.73-1.9zM269.42 257zm.45-1.34c-.12.42-.27.83-.41 1.24a.93.93 0 0 1 0 .1l-.21.48a14.27 14.27 0 0 1-1.23 2.2c-.09.11-.22.29-.24.32l-.34.39c-.29.33-.61.63-.93.93l-.08.09-.51.39c-.42.3-.86.58-1.3.85s-.75.43-1.14.62l-.46.24-.35.16-.4.18-.59.26-1.35.55a154.6 154.6 0 0 1-22.79 7.13c-3.87.89-7.77 1.62-11.69 2.22h-.26l-.72.1-1.44.19a151.182 151.182 0 0 1-8.92.89 149.77 149.77 0 0 1-23.68-.19c-.44 0-.89-.08-1.34-.14l-.53-.06h-.33a20.27 20.27 0 0 1-2.74-.67l-.63-.23-.43-.19-.37-.19-.43-.26c-.33-.2-.66-.42-1-.65l-.35-.3-.32-.29a20.25 20.25 0 0 1-1.59-1.74c-.25-.31-.5-.63-.74-.95-.09-.13-.19-.26-.28-.4.4.56-.11-.17-.19-.28-1-1.39-1.83-2.84-2.77-4.24a36.18 36.18 0 0 0-3.35-4.4 39.19 39.19 0 0 0-4.09-3.76c-1.31-1.08-2.66-2.09-4-3.13-.62-.48-1.23-1-1.84-1.46l-.09-.08-.09-.08-.38-.33c-.36-.32-.73-.65-1.08-1-.1-.09-.19-.2-.29-.3 2 .6 4 1 6 1.46a104.92 104.92 0 0 0 58.71-4.21c6.32-2.37 12.44-5.47 19-7.06a44 44 0 0 1 2.28-.49l1.15-.19h.19l.81-.11c1.65-.21 3.3-.36 5-.51a84.29 84.29 0 0 0 10.6-1.41 22.41 22.41 0 0 0 5.57-2c.75 0 1.49 0 2.24.08-.63 4.93-1.27 9.85-2 14.76a38.47 38.47 0 0 1-1.26 5.43zm9.57-61.23a1.09 1.09 0 0 0-.09-.23h.83a3.36 3.36 0 0 0-.74.19zm70.6-46c2.67 4.87 2.61 10.59.91 15.82-4 12.16-15.22 17.92-26.15 20.32a136.2 136.2 0 0 1-19.7 2.39c-7.32.52-14.65.83-22 1-29.45.64-58.91-.84-88.36-.44s-58.95 2-88.31 4.9q-21.84 2.13-43.58 5.17-11.07 1.54-22.09 3.31c-3.61.58-7.23 1.18-10.83 1.8-3.05.52-6.21 1.41-9.31 1.33-2.91-.08-3.51-2-4.18-4.71q-1.35-5.55-2.69-11.11l-2.25-9.29a10.09 10.09 0 0 0 2.06 1.28c2.83 1.26 5.91 1.08 8.89.73 3.56-.42 7.12-.89 10.67-1.36q10.85-1.44 21.68-3.1c20.91-3.19 41.74-6.91 62.55-10.82L206 153.31l88.7-12.41c7.44-1 14.87-2.16 22.32-3.08 6.77-.83 13.83-1.34 20.45.79 5 1.62 9.86 4.81 12.53 9.77zM380.59 48a330.8 330.8 0 0 1-10.26 41.84 202.93 202.93 0 0 1-7.57 19.91c-2.49 5.6-5.05 12.33-10.69 14.93s-12.49 2-18.48 2.24q-10.71.5-21.42 1.34c-14.13 1.1-28.23 2.62-42.3 4.45-28.43 3.68-56.71 8.59-84.92 13.86-23.3 4.36-46.57 8.92-69.87 13.29l-11.37 1.58L60 167.52l-22.07 3.07c-5.74.8-11.52 1.82-17.33 1.48a21.12 21.12 0 0 1-7.82-1.82 26.51 26.51 0 0 1-.57-5.38 58.19 58.19 0 0 0-.74-9.25c.78.27 1.56.56 2.35.85a27.07 27.07 0 0 0 7.48 1.59A38.38 38.38 0 0 0 35 156c9.42-2.95 18.52-7.42 27.64-11.3 18.64-7.94 37.28-15.89 56.05-23.44 37.22-15 75.1-28.36 114.1-36.68 16.25-3.47 34.46-6.62 46.64-19.73.35.52.72 1 1 1.55a13.83 13.83 0 0 0 3.14 7.6 2.83 2.83 0 0 0 .28.23 37.52 37.52 0 0 1 1.08 4.77c.45 2.86 5 2.92 5.4 0 .22-1.62.34-3.22.4-4.83a2.47 2.47 0 0 0 .66-.23 3.2 3.2 0 0 0 1-4.15l-.62-.88a10.76 10.76 0 0 0-1.34-6.71c-.08-.41-.15-.83-.22-1.24a2.7 2.7 0 0 0-.42-1.07 70.26 70.26 0 0 1 14.29-12.37l8.64-3.86 20.26-9c15.37-4.73 31.51-7.76 46.18-13.1a29.38 29.38 0 0 0 6.23-3.14c-.4 2.74-.8 5.49-1.22 8.23-1.09 7.07-2.26 14.22-3.58 21.35z" fill="#a3563e" data-color="1"/>
    </g>
</svg>
