<?xml version="1.0" encoding="UTF-8"?>
<svg data-bbox="0 0 79.33 131.32" viewBox="0 0 79.33 131.28" xmlns:xlink="http://www.w3.org/1999/xlink" xmlns="http://www.w3.org/2000/svg" data-type="ugc">
    <g>
        <defs>
            <linearGradient gradientUnits="userSpaceOnUse" y2="31.5" x2="52.84" y1="85.39" x1="52.84" id="7897290a-e659-4ee7-b5ac-a017a7498c59">
                <stop stop-color="#2f2a0a" offset="0"/>
                <stop stop-color="#564a11" offset="1"/>
            </linearGradient>
            <linearGradient xlink:href="#7897290a-e659-4ee7-b5ac-a017a7498c59" y2="33.37" x2="28.22" y1="85.39" x1="28.22" id="4e298b06-10e8-49a7-a37c-1cb08c20a85b"/>
            <linearGradient xlink:href="#7897290a-e659-4ee7-b5ac-a017a7498c59" y2="37.28" x2="15.76" y1="85.39" x1="15.76" id="a6951ed6-5d51-4c40-88aa-e1feed3b281d"/>
            <linearGradient gradientUnits="userSpaceOnUse" y2="23.13" x2="21.45" y1="85.39" x1="21.45" id="d46f2b4f-3d7d-4a3b-ab9c-fc21f42f59c3">
                <stop stop-color="#4e4412" offset="0"/>
                <stop stop-color="#776a19" offset="1"/>
            </linearGradient>
            <linearGradient xlink:href="#d46f2b4f-3d7d-4a3b-ab9c-fc21f42f59c3" y2="0" x2="46.09" y1="85.39" x1="46.09" id="d5602f9d-5b78-4d64-955a-48cd5b1a32d3"/>
            <linearGradient gradientUnits="userSpaceOnUse" y2="34.91" x2="45.9" y1="84.78" x1="45.9" id="1f3ae5af-e7e9-4cfc-bcfa-d30544be5f08">
                <stop stop-color="#655714" offset="0"/>
                <stop stop-color="#aca126" offset="1"/>
            </linearGradient>
            <linearGradient xlink:href="#1f3ae5af-e7e9-4cfc-bcfa-d30544be5f08" y2="53.98" x2="22.74" y1="84.79" x1="22.74" id="10d22d90-59db-401d-afc0-cc92aa0375f8"/>
            <linearGradient xlink:href="#1f3ae5af-e7e9-4cfc-bcfa-d30544be5f08" y2="0" x2="48.95" y1="51.29" x1="48.95" id="4a591600-f900-4699-8bb5-38d16e5b3ec2"/>
            <linearGradient xlink:href="#1f3ae5af-e7e9-4cfc-bcfa-d30544be5f08" y2="23.13" x2="19.05" y1="57.46" x1="19.05" id="4b5581e1-8366-4341-bafe-6cf630728936"/>
        </defs>
        <g>
            <g>
                <path d="M33.37 85.39s8.45-41.62 17.22-50.1c8.87-8.92 21.72.7 21.72.7s-19.14 1.56-24.59 9.49c-5.4 7.66-13.81 39.91-13.81 39.91z" fill="url(#7897290a-e659-4ee7-b5ac-a017a7498c59)" fill-rule="evenodd"/>
                <path d="M32.34 85.39s4.87-34.45 4.2-44.54-16.7-7.08-16.7-7.08 12.44 6.54 13.82 18.3-1.89 33.32-1.89 33.32z" fill="url(#4e298b06-10e8-49a7-a37c-1cb08c20a85b)" fill-rule="evenodd"/>
                <path d="M30.66 85.39s4.14-29.13-5.72-40.71C14.85 34.16 0 38 0 38s19.57 8.33 25.61 20c5.91 12.35 4.06 27.36 4.06 27.36z" fill="url(#a6951ed6-5d51-4c40-88aa-e1feed3b281d)" fill-rule="evenodd"/>
                <path d="M28.57 85.39s-2.52-23.82-4.69-40.51c-2.24-16.33-9.55-21.75-9.55-21.75s.78 19.38 3.18 29.58c2.34 10.42 8.53 22.6 9.34 32.68z" fill="url(#d46f2b4f-3d7d-4a3b-ab9c-fc21f42f59c3)" fill-rule="evenodd"/>
                <path d="M30.66 85.39s3.94-43 14.72-64.12C53.76 4.24 61.52 0 61.52 0A96.65 96.65 0 0 1 55 20.9c-4.79 10.52-11.86 17.74-15.81 28.84-3.9 10.82-7.42 35.65-7.42 35.65z" fill="url(#d5602f9d-5b78-4d64-955a-48cd5b1a32d3)" fill-rule="evenodd"/>
                <path d="M31.86 84.73s7.21-23.56 13.5-32.31a159.73 159.73 0 0 1 14.58-17.51A109.94 109.94 0 0 1 46 59.53c-8.83 10.83-12.93 25.25-12.93 25.25z" fill="url(#1f3ae5af-e7e9-4cfc-bcfa-d30544be5f08)" fill-rule="evenodd"/>
                <path d="M29.44 84.79S28.28 63.71 16.05 54a140.9 140.9 0 0 0 3.7 16.4c2.22 7.48 6.09 4 8.84 14.41z" fill="url(#10d22d90-59db-401d-afc0-cc92aa0375f8)" fill-rule="evenodd"/>
                <path d="M61.52 0s-16.3 20.17-25.14 51.29a176.76 176.76 0 0 1 12.94-22C57.55 16.94 61.52 0 61.52 0z" fill="url(#4a591600-f900-4699-8bb5-38d16e5b3ec2)" fill-rule="evenodd"/>
                <path d="M14.33 23.13s4.48 12.17 9.43 34.33a174.33 174.33 0 0 0-2.28-20.83c-1.83-9.41-7.15-13.5-7.15-13.5z" fill="url(#4b5581e1-8366-4341-bafe-6cf630728936)" fill-rule="evenodd"/>
                <path fill="#7a6a91" fill-rule="evenodd" d="m22.69 84.43-11.85 1.21v1.38h1.99l3.59 17.16h9.84L24.8 86.1l-2.11-1.67z"/>
                <path fill="#beabdc" fill-rule="evenodd" d="M26.26 104.18 24.8 86.1h-2.11v-1.67h28.62v1.67h-4.38l-4.62 18.08H26.26z"/>
                <path fill="#7a6a91" fill-rule="evenodd" d="M46.93 86.1H24.8v2.17l21.93-1.09.2-1.08z"/>
                <path fill="#786689" fill-rule="evenodd" d="m25.17 103.07-10.53.32.47 1.3 10.31.29.8-1.59-1.05-.32z"/>
                <path fill="#beabdc" fill-rule="evenodd" d="m45.08 105.36 1.01-1.89-20.92-.4.25 1.91 19.66.38z"/>
                <path d="M64.85 126.31c-5.64-2.53-13.22-4.28-18.34-7a44.82 44.82 0 0 1-7.14-5.13c-1.12-1.22-2.17-2.31-2.89-3 1.23.72 3.2 1.83 5.49 3 4.72 3.26 11.61 7.49 17.19 8.72 9.31 2.12 20.17-.31 20.17-.31s-6.7-.1-13.32-.63a105.48 105.48 0 0 0-14-5.1 73.81 73.81 0 0 1-10.72-3.91c-1.83-1.16-3.22-2.09-3.85-2.51l17 .12-.19-.43L50 110l-.32-.28h-.07l-6-4.24h3.56L46 105l-20-.16-10.83-.06-.33.34h1.71L15 109.51h-2.12l.18.37 12.62.41h4.19a3.15 3.15 0 0 1-.48 1.66c-1.86.66-4.1.7-5 2a10.83 10.83 0 0 0-1.8 4.27c.78-.17 1.5-.36 2.16-.55a5.21 5.21 0 0 0-.49.88 5 5 0 0 0-.35 1.26c-7.22 1.61-16.17 2.67-16.17 2.67a126.29 126.29 0 0 0 16.11-.3 20.75 20.75 0 0 0 .79 4 13.63 13.63 0 0 0 5.6-2.73c3.85.09 15.05.16 14.66-1.94a6.66 6.66 0 0 0-1.11-2.08 52.42 52.42 0 0 0 11.89 6.89 72.75 72.75 0 0 0 17.37 5 33.38 33.38 0 0 0-8.2-5.01zm-12.6-7.74c3.67 1.16 7.73 2.26 10.82 3.05a43.87 43.87 0 0 1-7.78-1.32 39.72 39.72 0 0 1-6.62-3c1.23.46 2.44.92 3.58 1.27zM38 111.23c-.8-.43-1.31-.74-1.54-.88h.4c.25.2.64.5 1.14.88zm-6.34-.91zm1 0H33c.71.9 2.8 4.12-1.05 6.83a.67.67 0 0 1-.11.07c0-1.33 0-2.65-.06-3.8a4.44 4.44 0 0 0 .86-3.1zm8.12 8.36c0 2.31-7 3.87-10.19 4.47a4.38 4.38 0 0 0 1.14-2.23c.4-.1.78-.21 1.16-.32 6.55-2.29 3.64-7.2 1.9-9.41a64.16 64.16 0 0 0 5.21 5.09 5.6 5.6 0 0 1 .76 2.4z" style="mix-blend-mode:multiply" fill="#6b0a36" opacity=".6" fill-rule="evenodd"/>
            </g>
        </g>
    </g>
</svg>
