<?xml version="1.0" encoding="UTF-8"?>
<svg data-bbox="0 0 1538.22 353.17" viewBox="0 0 1538.18 353.17" xmlns="http://www.w3.org/2000/svg" data-type="ugc">
    <g>
        <g>
            <path fill="#7aa4c1" d="M1011.24 12.87 1014.46 0h38.61l6.44 12.87h-48.27z"/>
            <path fill="#d7dfec" d="m999.17 8.85-12.87 94.93 98.6-.76-15.69-92.92-70.04-1.25z"/>
            <path fill="#9fadba" d="m543.83 45.85-8.04 38.62h17.7l-9.66-38.62z"/>
            <path fill="#9fadba" d="m893.78 69.99-8.04 38.62h17.7l-9.66-38.62z"/>
            <path fill="#9fadba" d="m1224.43 65.16-8.05 38.62h17.7l-9.65-38.62z"/>
            <path d="m0 226.06 12.87 9.65 239.82 18.19 205.87 15.6 1070 6.44 9.66-8.05s-62.75-93.32-75.63-94.93l4.83-16.09s4.83-6.43-4.83-9.65-86.88 0-86.88 0l-4.83-12.87s6.44-3.22 0-8-64.36-3.21-64.36-3.21v-14.53h-17.69V86.08L1210 87.69l-10.46-10.46h-108.66V99H960.56l-12.88 9.66h-16.09V94.12h-85.27v22.53L652 115.89l-30.59-25.75-301.22-8.89-26.55 26.55-.06 12.11-8.85 4.42c-6 .81-7.24 1.61-12.87 1.17H259l-18.9 18.9 11 1.27 1.6 12-14.22 20.17-29.31-1.65-38.62 48.27z" fill="#a8d2ee"/>
            <path d="M508.43 143.2h-37a7.26 7.26 0 0 1-7.24-7.24 7.26 7.26 0 0 1 7.24-7.24h37a7.27 7.27 0 0 1 7.25 7.24 7.27 7.27 0 0 1-7.25 7.24z" fill="#4c5d6a"/>
            <path d="m320.19 81.25-23.79 27.4-7.24 13.67-31 2.82-18.02 19.26 11.61 12.92-13.27 20.51-67.93 46.62L317 233.3l38.61-49.88h27.3s31.38-4 34.19-22.48L405 148.57l10.45-20.21 4.43-9.66 13.47-7.84 5.89-14.32z" fill="#c7dbe5"/>
            <path d="M613.42 142.39h-73.21a7.26 7.26 0 0 1-7.24-7.24 7.26 7.26 0 0 1 7.24-7.24h73.21a7.26 7.26 0 0 1 7.24 7.24 7.26 7.26 0 0 1-7.24 7.24z" fill="#4c5d6a"/>
            <path d="M1354.35 142.39H648.82a7.25 7.25 0 0 1-7.24-7.24 7.26 7.26 0 0 1 7.24-7.24h705.53a7.26 7.26 0 0 1 7.24 7.24 7.26 7.26 0 0 1-7.24 7.24z" fill="#4c5d6a"/>
            <path d="m549.49 150.92 917.89 6-.8 20.52-929.18-9.71v-4.79a12 12 0 0 1 12.09-12.02z" fill="#33658e"/>
            <path d="m1458.82 192.94-1035.73-7a12.32 12.32 0 0 0-12.4 12.32A11.78 11.78 0 0 0 422.42 210l1071.1 4.76a1.5 1.5 0 0 0 1.16-2.46l-3.34-4a42.73 42.73 0 0 0-32.52-15.36z" fill="#254461"/>
            <path d="M1110.59 265.48H487.92a18.15 18.15 0 0 1-18.1-18.1 18.15 18.15 0 0 1 18.1-18.1h622.67a18.15 18.15 0 0 1 18.1 18.1 18.15 18.15 0 0 1-18.1 18.1z" fill="#33658e"/>
            <path fill="#a8d2ee" d="M537.39 222.04v43.44h-6.03v-43.44h6.03z"/>
            <path fill="#a8d2ee" d="M629.1 222.04v43.44h-6.03v-43.44h6.03z"/>
            <path fill="#a8d2ee" d="M716 222.04v43.44h-6.04v-43.44H716z"/>
            <path fill="#a8d2ee" d="M805.29 222.04v43.44h-6.03v-43.44h6.03z"/>
            <path fill="#a8d2ee" d="M892.17 222.04v43.44h-6.03v-43.44h6.03z"/>
            <path fill="#a8d2ee" d="M979.05 222.04v43.44h-6.03v-43.44h6.03z"/>
            <path fill="#a8d2ee" d="M1061.11 222.04v43.44h-6.03v-43.44h6.03z"/>
            <path fill="#a8d2ee" d="M457.86 183.73v31.97h-2.78v-31.97h2.78z"/>
            <path fill="#a8d2ee" d="M500.17 183.73v31.97h-2.78v-31.97h2.78z"/>
            <path fill="#a8d2ee" d="M540.25 183.73v31.97h-2.78v-31.97h2.78z"/>
            <path fill="#a8d2ee" d="M581.44 183.73v31.97h-2.78v-31.97h2.78z"/>
            <path fill="#a8d2ee" d="M621.51 183.73v31.97h-2.78v-31.97h2.78z"/>
            <path fill="#a8d2ee" d="M661.59 183.73v31.97h-2.78v-31.97h2.78z"/>
            <path fill="#a8d2ee" d="M699.44 175.42v43.44h-2.78v-43.44h2.78z"/>
            <path fill="#a8d2ee" d="M699.21 183.73v31.97h-2.78v-31.97h2.78z"/>
            <path fill="#a8d2ee" d="M741.51 183.73v31.97h-2.78v-31.97h2.78z"/>
            <path fill="#a8d2ee" d="M781.59 183.73v31.97h-2.78v-31.97h2.78z"/>
            <path fill="#a8d2ee" d="M822.78 183.73v31.97H820v-31.97h2.78z"/>
            <path fill="#a8d2ee" d="M862.86 183.73v31.97h-2.78v-31.97h2.78z"/>
            <path fill="#a8d2ee" d="M902.94 183.73v31.97h-2.78v-31.97h2.78z"/>
            <path fill="#a8d2ee" d="M940.79 175.42v43.44h-2.78v-43.44h2.78z"/>
            <path fill="#a8d2ee" d="M940.55 183.73v31.97h-2.78v-31.97h2.78z"/>
            <path fill="#a8d2ee" d="M982.86 183.73v31.97h-2.78v-31.97h2.78z"/>
            <path fill="#a8d2ee" d="M1022.94 183.73v31.97h-2.78v-31.97h2.78z"/>
            <path fill="#a8d2ee" d="M1064.13 183.73v31.97h-2.78v-31.97h2.78z"/>
            <path fill="#a8d2ee" d="M1104.21 183.73v31.97h-2.78v-31.97h2.78z"/>
            <path fill="#a8d2ee" d="M1144.28 183.73v31.97h-2.78v-31.97h2.78z"/>
            <path fill="#a8d2ee" d="M1182.13 175.42v43.44h-2.78v-43.44h2.78z"/>
            <path fill="#a8d2ee" d="M1181.9 183.73v31.97h-2.78v-31.97h2.78z"/>
            <path fill="#a8d2ee" d="M1224.21 183.73v31.97h-2.78v-31.97h2.78z"/>
            <path fill="#a8d2ee" d="M1264.28 183.73v31.97h-2.78v-31.97h2.78z"/>
            <path fill="#a8d2ee" d="M1305.47 183.73v31.97h-2.78v-31.97h2.78z"/>
            <path fill="#a8d2ee" d="M1345.55 183.73v31.97h-2.78v-31.97h2.78z"/>
            <path fill="#a8d2ee" d="M1385.63 183.73v31.97h-2.78v-31.97h2.78z"/>
            <path fill="#a8d2ee" d="M1423.48 183.73v31.97h-2.78v-31.97h2.78z"/>
            <path fill="#a8d2ee" d="M575.21 146.46v32.58h-2.47v-32.58h2.47z"/>
            <path fill="#a8d2ee" d="M612.8 146.46v32.58h-2.47v-32.58h2.47z"/>
            <path fill="#a8d2ee" d="M648.4 146.46v32.58h-2.47v-32.58h2.47z"/>
            <path fill="#a8d2ee" d="M685 146.46v32.58h-2.47v-32.58H685z"/>
            <path fill="#a8d2ee" d="M720.61 146.46v32.58h-2.47v-32.58h2.47z"/>
            <path fill="#a8d2ee" d="M756.22 146.46v32.58h-2.47v-32.58h2.47z"/>
            <path fill="#a8d2ee" d="M789.85 146.46v32.58h-2.47v-32.58h2.47z"/>
            <path fill="#a8d2ee" d="M789.64 146.46v32.58h-2.47v-32.58h2.47z"/>
            <path fill="#a8d2ee" d="M827.23 146.46v32.58h-2.47v-32.58h2.47z"/>
            <path fill="#a8d2ee" d="M862.83 146.46v32.58h-2.47v-32.58h2.47z"/>
            <path fill="#a8d2ee" d="M899.43 146.46v32.58h-2.47v-32.58h2.47z"/>
            <path fill="#a8d2ee" d="M935.04 146.46v32.58h-2.47v-32.58h2.47z"/>
            <path fill="#a8d2ee" d="M970.65 146.46v32.58h-2.47v-32.58h2.47z"/>
            <path fill="#a8d2ee" d="M1004.28 146.46v32.58h-2.47v-32.58h2.47z"/>
            <path fill="#a8d2ee" d="M1004.07 146.46v32.58h-2.47v-32.58h2.47z"/>
            <path fill="#a8d2ee" d="M1041.66 146.46v32.58h-2.47v-32.58h2.47z"/>
            <path fill="#a8d2ee" d="M1077.26 146.46v32.58h-2.47v-32.58h2.47z"/>
            <path fill="#a8d2ee" d="M1113.86 146.46v32.58h-2.47v-32.58h2.47z"/>
            <path fill="#a8d2ee" d="M1149.47 146.46v32.58H1147v-32.58h2.47z"/>
            <path fill="#a8d2ee" d="M1185.08 146.46v32.58h-2.47v-32.58h2.47z"/>
            <path fill="#a8d2ee" d="M1218.71 146.46v32.58h-2.47v-32.58h2.47z"/>
            <path fill="#a8d2ee" d="M1218.5 146.46v32.58h-2.47v-32.58h2.47z"/>
            <path fill="#a8d2ee" d="M1256.08 146.46v32.58h-2.47v-32.58h2.47z"/>
            <path fill="#a8d2ee" d="M1291.69 146.46v32.58h-2.47v-32.58h2.47z"/>
            <path fill="#a8d2ee" d="M1328.29 146.46v32.58h-2.47v-32.58h2.47z"/>
            <path fill="#a8d2ee" d="M1363.9 146.46v32.58h-2.47v-32.58h2.47z"/>
            <path fill="#a8d2ee" d="M1399.51 146.46v32.58h-2.47v-32.58h2.47z"/>
            <path fill="#a8d2ee" d="M1433.13 146.46v32.58h-2.47v-32.58h2.47z"/>
            <path fill="#a8d2ee" d="M672.35 121.12v25.34h-1.89v-25.34h1.89z"/>
            <path fill="#a8d2ee" d="M701.08 121.12v25.34h-1.89v-25.34h1.89z"/>
            <path fill="#a8d2ee" d="M728.28 121.12v25.34h-1.89v-25.34h1.89z"/>
            <path fill="#a8d2ee" d="M756.25 121.12v25.34h-1.89v-25.34h1.89z"/>
            <path fill="#a8d2ee" d="M783.46 121.12v25.34h-1.89v-25.34h1.89z"/>
            <path fill="#a8d2ee" d="M810.67 121.12v25.34h-1.89v-25.34h1.89z"/>
            <path fill="#a8d2ee" d="M836.37 121.12v25.34h-1.89v-25.34h1.89z"/>
            <path fill="#a8d2ee" d="M836.21 121.12v25.34h-1.89v-25.34h1.89z"/>
            <path fill="#a8d2ee" d="M864.93 121.12v25.34h-1.89v-25.34h1.89z"/>
            <path fill="#a8d2ee" d="M892.14 121.12v25.34h-1.89v-25.34h1.89z"/>
            <path fill="#a8d2ee" d="M920.1 121.12v25.34h-1.89v-25.34h1.89z"/>
            <path fill="#a8d2ee" d="M947.31 121.12v25.34h-1.89v-25.34h1.89z"/>
            <path fill="#a8d2ee" d="M974.52 121.12v25.34h-1.89v-25.34h1.89z"/>
            <path fill="#a8d2ee" d="M1000.22 121.12v25.34h-1.89v-25.34h1.89z"/>
            <path fill="#a8d2ee" d="M1000.06 121.12v25.34h-1.89v-25.34h1.89z"/>
            <path fill="#a8d2ee" d="M1028.78 121.12v25.34h-1.89v-25.34h1.89z"/>
            <path fill="#a8d2ee" d="M1055.99 121.12v25.34h-1.89v-25.34h1.89z"/>
            <path fill="#a8d2ee" d="M1083.96 121.12v25.34h-1.89v-25.34h1.89z"/>
            <path fill="#a8d2ee" d="M1111.17 121.12v25.34h-1.89v-25.34h1.89z"/>
            <path fill="#a8d2ee" d="M1138.38 121.12v25.34h-1.89v-25.34h1.89z"/>
            <path fill="#a8d2ee" d="M1164.07 121.12v25.34h-1.89v-25.34h1.89z"/>
            <path fill="#a8d2ee" d="M1163.91 121.12v25.34h-1.89v-25.34h1.89z"/>
            <path fill="#a8d2ee" d="M1192.64 121.12v25.34h-1.89v-25.34h1.89z"/>
            <path fill="#a8d2ee" d="M1219.85 121.12v25.34h-1.89v-25.34h1.89z"/>
            <path fill="#a8d2ee" d="M1247.81 121.12v25.34h-1.89v-25.34h1.89z"/>
            <path fill="#a8d2ee" d="M1275.02 121.12v25.34h-1.89v-25.34h1.89z"/>
            <path fill="#a8d2ee" d="M1302.23 121.12v25.34h-1.89v-25.34h1.89z"/>
            <path fill="#a8d2ee" d="M1327.93 123.69v22.77h-1.89v-22.77h1.89z"/>
            <path d="M1419.38 240.06H1361a5.4 5.4 0 0 1-5.39-5.39 5.41 5.41 0 0 1 5.39-5.39h58.43a5.41 5.41 0 0 1 5.4 5.39 5.41 5.41 0 0 1-5.45 5.39z" fill="#33658e"/>
            <path fill="#c7dbe5" d="m439.25 96.54-5.89 14.32-97.14-2.41-35.6-5.43 1.01-3.62 7.64-6.84 49.28-2.22 80.7 6.2z"/>
            <path d="M1448.6 252.65h-89.9a3.15 3.15 0 0 1-3.14-3.15 3.15 3.15 0 0 1 3.14-3.14h89.9a3.15 3.15 0 0 1 3.14 3.14 3.15 3.15 0 0 1-3.14 3.15z" fill="#aab1cc"/>
            <path d="M1303.79 252.65h-89.89a3.16 3.16 0 0 1-3.15-3.15 3.15 3.15 0 0 1 3.15-3.14h89.89a3.15 3.15 0 0 1 3.15 3.14 3.16 3.16 0 0 1-3.15 3.15z" fill="#33658e"/>
            <path d="M422.15 238.93h-39.82a6.66 6.66 0 0 1-6.64-6.64 6.65 6.65 0 0 1 6.64-6.63h39.82a6.65 6.65 0 0 1 6.64 6.63 6.66 6.66 0 0 1-6.64 6.64z" fill="#4c5d6a"/>
            <path d="M387.16 208.76h-7.24a5.44 5.44 0 0 1-5.43-5.43 5.45 5.45 0 0 1 5.43-5.43h7.24a5.45 5.45 0 0 1 5.43 5.43 5.44 5.44 0 0 1-5.43 5.43z" fill="#4c5d6a"/>
            <path d="m544.64 116.65-.38-.64a14.28 14.28 0 0 0-12.16-7c-40.21-.38-217.64-2.45-230.47-9.58l-8 8.4s45 4.89 81.2 6.08c38.17 1.22 169.81 2.74 169.81 2.74z" fill="#f45656"/>
            <path d="m309.27 92.56 10.92-11.31 127.05.65-8 14.64s-96.18.84-129.97-3.98z" fill="#7f898e"/>
            <path d="m629.71 85.3 42 31-45.8-1.21-.28-5.39a10.68 10.68 0 0 0-10.47-10.11l-175.89-3 8-14.64 163-2.83a32 32 0 0 1 19.44 6.18z" fill="#4c5d6a"/>
            <path d="M143.2 353.17h1364.41s22.52-17.7 30.57-85.28c0 0-1055.49-6.43-1095.71-6.43s-429.6-25.75-429.6-25.75S90.1 292 143.2 353.17z" fill="#192e41"/>
            <path fill="#a8d2ee" d="M615.38 245.8v.82a8.44 8.44 0 0 1-8.44 8.44h-52.31a8.44 8.44 0 0 1-8.44-8.44v-.82a8.44 8.44 0 0 1 8.44-8.44h52.31a8.44 8.44 0 0 1 8.44 8.44z"/>
            <path d="M615.34 245.41a8.44 8.44 0 0 0-8.4-8h-52.31a8.44 8.44 0 0 0-8.4 8z" fill="#f45656"/>
            <path fill="#a8d2ee" d="M704.68 245.8v.82a8.44 8.44 0 0 1-8.44 8.44h-52.31a8.44 8.44 0 0 1-8.44-8.44v-.82a8.44 8.44 0 0 1 8.44-8.44h52.31a8.44 8.44 0 0 1 8.44 8.44z"/>
            <path d="M704.63 245.41a8.44 8.44 0 0 0-8.39-8h-52.31a8.44 8.44 0 0 0-8.4 8z" fill="#f45656"/>
            <path fill="#a8d2ee" d="M791.56 245.8v.82a8.44 8.44 0 0 1-8.44 8.44h-52.31a8.44 8.44 0 0 1-8.44-8.44v-.82a8.44 8.44 0 0 1 8.44-8.44h52.31a8.44 8.44 0 0 1 8.44 8.44z"/>
            <path d="M791.52 245.41a8.44 8.44 0 0 0-8.4-8h-52.31a8.44 8.44 0 0 0-8.4 8z" fill="#f45656"/>
            <path d="M527.74 45.86A16.09 16.09 0 1 1 543.83 62a16.09 16.09 0 0 1-16.09-16.14z" fill="#a8d2ee"/>
            <path d="M240.14 144.4 405 148.57a12.37 12.37 0 0 1 12.06 12.37l-165.32-3.62z" fill="#4c5d6a"/>
            <path fill="#d7dfec" d="m170.55 224.45 146.42 8.85 38.61-49.88-146.41-7.24-38.62 48.27z"/>
            <path d="M293.18 113.47s-5.23 9.26-4 8.85 126.3 6 126.3 6l6-9.66z" fill="#4c5d6a"/>
            <path d="m432.36 115.49-138.72-7.69s-6.89 3.66-.46 5.67c0 0 123.09 8.85 140 6.84-.02 0 5.21-3.22-.82-4.82z" fill="#c7dbe5"/>
            <path d="m267.66 170.51-9.05-.27a3.32 3.32 0 0 1-3.21-3.41 3.32 3.32 0 0 1 3.41-3.22l9.05.26a3.35 3.35 0 0 1 3.22 3.42 3.34 3.34 0 0 1-3.42 3.22z" fill="#4c5d6a"/>
            <path d="m291.79 171.22-9.05-.27a3.32 3.32 0 0 1-3.22-3.41 3.32 3.32 0 0 1 3.41-3.22l9.05.27a3.32 3.32 0 0 1 3.22 3.41 3.32 3.32 0 0 1-3.41 3.22z" fill="#4c5d6a"/>
            <path d="m315.91 171.93-9.05-.27a3.33 3.33 0 0 1-3.22-3.41 3.34 3.34 0 0 1 3.42-3.22l9.05.27a3.32 3.32 0 0 1 3.21 3.41 3.32 3.32 0 0 1-3.41 3.22z" fill="#4c5d6a"/>
            <path d="m340 172.64-9-.26a3.33 3.33 0 0 1-3.22-3.42 3.33 3.33 0 0 1 3.41-3.22l9.05.27a3.33 3.33 0 0 1 3.22 3.41 3.33 3.33 0 0 1-3.46 3.22z" fill="#4c5d6a"/>
            <path d="m364.16 173.35-9.05-.26a3.34 3.34 0 0 1-3.22-3.42 3.34 3.34 0 0 1 3.42-3.22l9 .27a3.32 3.32 0 0 1 3.22 3.42 3.32 3.32 0 0 1-3.37 3.21z" fill="#4c5d6a"/>
            <path d="M875.28 69.19A17.7 17.7 0 1 1 893 86.88a17.69 17.69 0 0 1-17.72-17.69z" fill="#d7dfec"/>
            <path d="M1206.73 62a17.7 17.7 0 1 1 17.7 17.69 17.69 17.69 0 0 1-17.7-17.69z" fill="#d7dfec"/>
            <path d="M531.66 320.86c-102.31-38.37-518.79-85.15-518.79-85.15S90.1 292 143.2 353.17h464.93c-23.32-10.76-48.96-21.99-76.47-32.31z" fill="#254461"/>
        </g>
    </g>
</svg>
