<?xml version="1.0" encoding="UTF-8"?>
<svg data-bbox="0 0 1032.53 392.22" viewBox="0 0 1032.5 392.21" xmlns="http://www.w3.org/2000/svg" data-type="ugc">
    <g>
        <g>
            <path fill="#254461" d="M794.07 219.98v-17.91h40.07v20.46l-40.07-2.55z"/>
            <path fill="#192e41" d="M785.12 202.5v19.18h-3.41V202.5h3.41z"/>
            <path fill="#192e41" d="M878.91 202.5v19.18h-3.41V202.5h3.41z"/>
            <path fill="#192e41" d="M863.56 202.5v19.18h-3.41V202.5h3.41z"/>
            <path fill="#192e41" d="M848.21 202.5v19.18h-3.41V202.5h3.41z"/>
            <path fill="#192e41" d="M892.98 219.12h-3.42v-15.77H767.64v-3.41h125.34v19.18z"/>
            <path fill="#a8d2ee" d="M677.26 134.71 737.8 0h4.26l-34.1 133.86-30.7.85z"/>
            <path d="M650 80.15c2.56-.86 58.83 0 58.83 0l-9.38 17L655 86.46a6.49 6.49 0 0 1-5-6.31z" fill="#a8d2ee"/>
            <path d="M693.46 42.63h30.7l-6 12.79-16.16-4.2a11.84 11.84 0 0 1-8.51-8.59z" fill="#a8d2ee"/>
            <path fill="#a8d2ee" d="m657.65 68.21-2.55 13.64h20.46l-5.12-14.49-12.79.85z"/>
            <path d="M647.42 116.81h41.78l-6 14.49-30-8a8.07 8.07 0 0 1-5.86-6.46z" fill="#a8d2ee"/>
            <path d="M602.23 123.63a17.91 17.91 0 1 1 35.81 0c0 9.89-8 21-17.9 21s-17.91-11.11-17.91-21z" fill="#cdc5bb"/>
            <path fill="#778fb1" d="M525.5 139.77v19.67h3.41V143.3l11.08.36V162h3.41v-18.23l13.64.45V162h3.41v-17.66l13.65.45V162h3.41v-17.1l13.64.45V162h3.41v-16.54l8.53.28v17.96h3.41v-21.26l-81-2.67z"/>
            <path fill="#778fb1" d="M411.25 296.71v-26.43l82.13-6.82-21.6 34.1-60.53-.85z"/>
            <path fill="#778fb1" d="m216 259.19 40.07-158.58-10.23-4.26V86.11l71.62 5.97-2.56 7.68-14.49 4.26-6.83 152.62-25.57-.86 18.75-152.61-18.75-1.71-22.17 157.73H216z"/>
            <path d="M281.55 44.65 272 88a2.19 2.19 0 0 0 1.89 2.67l9.61 1.13a2.2 2.2 0 0 0 2.46-2.19V45.12a2.2 2.2 0 0 0-2.21-2.2 2.19 2.19 0 0 0-2.2 1.73z" fill="#778fb1"/>
            <path d="M308.93 252.38c2.56-2.56 180.76-146.66 180.76-146.66L494 110 314.1 257.5z" fill="#cdc5bb"/>
            <path fill="#cdc5bb" d="m258.63 251.52 93.79-222.53 4.26 1.7-88.67 225.09-9.38-4.26z"/>
            <path d="M237.31 260.05s1.71-40.93 14.5-41.78 26.43-4.26 32.4.85 10.23 42.63 10.23 42.63z" fill="#254461"/>
            <path d="M324.28 293.3s-3.41-18.76 11.08-18.76h46.9c11.08 0 23 23.88 23 23.88z" fill="#a8d2ee"/>
            <path d="M237.2 259s42.71-16 60.61-11.72 37.52 27.29 37.52 27.29l-11.09 18.76L276.5 289l-33.26-16.2z" fill="#d8806f"/>
            <path fill="#778fb1" d="M250.67 62.81v25.58h3.41V66.22h5.68v22.74h3.42V66.22H270v22.74h3.41V66.22h15.34v26.15h3.42V66.22h6.82v26.15h3.41V66.22h5.11v26.72h3.41V62.81h-60.25z"/>
            <path fill="#cdc5bb" d="M9.66 219.69v29.63h3.41v-26.08l13.05.5h-2.25v28.42h3.41v-28.37l13.64.52v27.85h3.42v-27.72l13.64.53v27.19h3.41V225.1l13.64.53v26.53h3.41v-26.4l13.64.52v25.88h3.41v-25.74l13.65.52v25.22h3.41v-25.09l13.64.53v26.27h3.41v-26.14l13.64.53v27.31h3.41v-27.18l13.64.53v26.65h3.41v-26.52l13.64.52v27.71h3.41v-27.57l15.35.59v26.98h3.41v-26.85l13.64.52v26.33h3.41v-26.19l14.22.54v27.35h3.41v-30.63L9.66 219.69z"/>
            <path fill="#778fb1" d="m783.84 222.53-37.51-75.03-17.91-2.56 40.07 81 15.35-3.41z"/>
            <path fill="#cdc5bb" d="m667.88 153.47 5.97-8.53h54.57l39.22 77.59-102.31.86 2.55-69.92z"/>
            <path d="M0 258.91s37.52 28.42 52.29 45.47 40.93 51.16 40.93 64.8-11.37 22.74-11.37 22.74h941.29s-1.14-10.23 3.41-19.33 5.49-72.36 5.49-72.36l-43.56-.14-6.26-23h20.46l.27-8.29-509.57-5.35-21.6 34.1s-190.74-4.93-208-15.91c-1.72-1.1-4.74-2.87-4.74-2.87s-4.07-.39-5.42-1.51C242.41 268 238.7 259.37 234 258.44c-5.68-1.14-224.38-10.9-224.38-10.9z" fill="#cdc5bb"/>
            <path fill="#eae7e2" d="M500.77 264.31v-41.78l-9.38-32.4 177.63 2.85.57 26.14h226.8l-.24 48.58-395.38-3.39z"/>
            <path fill="#778fb1" d="M606.5 163.63v-21.24h29.84v22.17l-29.84-.93z"/>
            <path fill="#254461" d="m659.36 133.01 14.49 11.93 72.48 2.56 29.84-19.61-116.81 5.12z"/>
            <path d="M426.59 198.66h39.22s0 40.07-19.61 40.93c-17.03.74-19.61-40.93-19.61-40.93z" fill="#d8806f"/>
            <path d="m0 258.91 9.66-11.37 232.48 9.67s1.71 8 5.69 12.5 11.26 9.12 11.26 9.12z" fill="#eae7e2"/>
            <path d="M553.07 299.84a6.84 6.84 0 0 1-6.83-6.82v-9.1a6.84 6.84 0 0 1 6.83-6.82 6.84 6.84 0 0 1 6.82 6.82V293a6.84 6.84 0 0 1-6.82 6.84z" fill="#254461"/>
            <path d="M587.17 299.84a6.84 6.84 0 0 1-6.82-6.82v-9.1a6.84 6.84 0 0 1 6.82-6.82 6.84 6.84 0 0 1 6.82 6.82V293a6.84 6.84 0 0 1-6.82 6.84z" fill="#254461"/>
            <path d="M621.27 299.84a6.84 6.84 0 0 1-6.82-6.82v-9.1a6.84 6.84 0 0 1 6.82-6.82 6.84 6.84 0 0 1 6.83 6.82V293a6.84 6.84 0 0 1-6.83 6.84z" fill="#254461"/>
            <path d="M698 299.84a6.84 6.84 0 0 1-6.82-6.82v-9.1a6.84 6.84 0 0 1 6.82-6.82 6.84 6.84 0 0 1 6.82 6.82V293a6.84 6.84 0 0 1-6.82 6.84z" fill="#254461"/>
            <path d="M732.11 299.84a6.84 6.84 0 0 1-6.82-6.82v-9.1a6.84 6.84 0 0 1 6.82-6.82 6.84 6.84 0 0 1 6.83 6.82V293a6.84 6.84 0 0 1-6.83 6.84z" fill="#254461"/>
            <path d="M865.41 295.1a5.42 5.42 0 0 1-5.4-5.4v-7.2a5.42 5.42 0 0 1 5.4-5.4 5.42 5.42 0 0 1 5.4 5.4v7.2a5.42 5.42 0 0 1-5.4 5.4z" fill="#192e41"/>
            <path d="M508.73 287.9a5.12 5.12 0 1 1 5.11 5.12 5.11 5.11 0 0 1-5.11-5.12z" fill="#254461"/>
            <path fill="#778fb1" d="M705.47 175.11v42.21h-16.63v-42.21h16.63z"/>
            <path fill="#778fb1" d="M528.05 227.65v21.6h-10.23v-21.6h10.23z"/>
            <path fill="#778fb1" d="M545.11 227.65v21.6h-10.23v-21.6h10.23z"/>
            <path fill="#778fb1" d="M590.58 228.22v35.24h-15.35v-35.24h15.35z"/>
            <path fill="#778fb1" d="M611.05 228.22v14.21h-8.53v-14.21h8.53z"/>
            <path fill="#778fb1" d="M681.81 228.22v14.21h-8.53v-14.21h8.53z"/>
            <path fill="#778fb1" d="M765.94 228.22v14.21h-8.53v-14.21h8.53z"/>
            <path d="M628.66 66.08a3.84 3.84 0 0 0 3.84 3.84h58a3.84 3.84 0 0 0 3.84-3.84 3.84 3.84 0 0 0-3.84-3.84h-58a3.84 3.84 0 0 0-3.84 3.84z" fill="#a8d2ee"/>
            <path fill="#192e41" d="m669.1 194.43.49-20.49-186.72-3.42 8.52 19.61 177.71 4.3z"/>
            <path fill="#778fb1" d="m488.87 174.56 4.89 12.6 11.71-.14-4.88-12.6-11.72.14z"/>
            <path fill="#778fb1" d="m504.75 174.66 4.89 12.6 10.3.04-3.47-12.52-11.72-.12z"/>
            <path fill="#778fb1" d="m520.64 174.75 3.3 12.6 10.56.04-2.15-12.78-11.71.14z"/>
            <path fill="#778fb1" d="m536.63 174.6 1.8 12.84 10.72.04-.92-12.77-11.6-.11z"/>
            <path fill="#778fb1" d="m552.4 174.94.32 12.58 10.29.04.27-12.34-10.88-.28z"/>
            <path fill="#778fb1" d="M597.55 175.85v13.86h-9.81v-13.86h9.81z"/>
            <path fill="#778fb1" d="M611.61 175.85v13.86h-9.8v-13.86h9.8z"/>
            <path fill="#778fb1" d="M625.26 175.85v13.86h-9.81v-13.86h9.81z"/>
            <path fill="#778fb1" d="M638.9 175.85v13.86h-9.81v-13.86h9.81z"/>
            <path fill="#778fb1" d="M652.53 175.85v13.86h-9.8v-13.86h9.8z"/>
            <path fill="#778fb1" d="M666.17 175.85v13.86h-9.8v-13.86h9.8z"/>
            <path fill="#eae7e2" d="M581.77 172.02v20.46H567.7v-20.46h14.07z"/>
            <path d="m1031.63 319.83-.53-.1s-646.28-6.82-706-8.52C269.9 309.63 68.63 293.45 38.94 291a170.8 170.8 0 0 1 13.35 13.34c14.78 17.06 40.93 51.16 40.93 64.8s-11.37 22.74-11.37 22.74h941.29s-2.58-11.86 2-20.95c2.86-5.63 4.77-31.4 6.49-51.1z" fill="#0b5989"/>
            <path d="M479.91 336.22h37.63a6.6 6.6 0 0 1 6.58 6.58 6.6 6.6 0 0 1-6.58 6.58h-37.63a6.6 6.6 0 0 1-6.58-6.58 6.6 6.6 0 0 1 6.58-6.58z" fill="#192e41"/>
            <path d="M52.29 304.38c14.78 17.06 40.93 51.16 40.93 64.8s-11.37 22.74-11.37 22.74h941.29s-1.14-10.23 3.41-19.33a22 22 0 0 0 1.47-5.36s-62.89-.79-442.27-.79S38.94 291 38.94 291a170.8 170.8 0 0 1 13.35 13.38z" fill="#254461"/>
            <path d="M394.65 336.22h37.63a6.6 6.6 0 0 1 6.58 6.58 6.6 6.6 0 0 1-6.58 6.58h-37.63a6.6 6.6 0 0 1-6.58-6.58 6.6 6.6 0 0 1 6.58-6.58z" fill="#192e41"/>
            <path d="M309.39 336.22H347a6.61 6.61 0 0 1 6.59 6.58 6.61 6.61 0 0 1-6.59 6.58h-37.61a6.6 6.6 0 0 1-6.58-6.58 6.6 6.6 0 0 1 6.58-6.58z" fill="#192e41"/>
            <path d="M1023.08 386.89a43.1 43.1 0 0 1 .61-5.31 24.86 24.86 0 0 0-.61 5.31z" fill="#0b5989"/>
            <path d="M1026.59 372.5a22.68 22.68 0 0 0 1.43-5.27c-.46 1.96-.95 3.71-1.43 5.27z" fill="#0b5989"/>
            <path d="m989.3 299.5-6.82-21.6H1003v-9.09l-54.29-.29s6.34 27.3 8 51c45.78.5 74.82.72 74.82.72l1-20.71z" fill="#778fb1"/>
            <path d="M1023.69 381.58a20.5 20.5 0 0 1 .59-2.16c.68-2.05 1.49-4.25 2.31-6.92v.09a33 33 0 0 0-2.9 8.99z" fill="#778fb1"/>
            <path d="M1023.14 391.92h-71.75v.08l72.26.22a22.66 22.66 0 0 1-.56-5.32 38.54 38.54 0 0 0 .05 5.02z" fill="#778fb1"/>
            <path d="M1031.63 319.83h-2.65s-26.6-.38-72.39-.87c.15 2 .27 4 .33 5.91.84 24.28-5.31 65.58-5.53 67.07h71.75a38.54 38.54 0 0 1-.06-5 24.86 24.86 0 0 1 .61-5.31 33 33 0 0 1 2.86-9v-.09c.48-1.56 1-3.31 1.43-5.27 1.95-10.44 3.02-31.41 3.65-47.44z" fill="#38495a"/>
            <path d="M464.1 199.3h-36.41a1.18 1.18 0 0 1-.94-1.9L447 170.8l-92.26-142 140.21 81-.44.57-45.95 60.49 16.9 26a1.57 1.57 0 0 1-1.36 2.44zm-36.22-1.3h36.76l-16.95-26.08zM358.67 32.58l89.1 137.14L493 110.18z" fill="#778fb1"/>
            <path d="M185 340.86a17 17 0 1 1 17 17.05 17 17 0 0 1-17-17.05z" fill="#192e41"/>
            <path fill="#eae7e2" d="m476.66 171.69 16.44-18.22 32.25 1.23.15 4.74 133.86 4.26v-10.23h17.9l-.26 20.55-200.34-2.33z"/>
        </g>
    </g>
</svg>
