<?xml version="1.0" encoding="UTF-8"?>
<svg data-bbox="0 0 779.68 254.09" viewBox="0 0 779.64 254.1" xmlns="http://www.w3.org/2000/svg" data-type="ugc">
    <g>
        <g>
            <path d="M491.56 117.24c-.38-.53-38.14-52.67-48.5-65.5-9.27-11.48-19.13-5.37-19.55-5.11l-2-3.15c.13-.08 13.07-8.27 24.51 5.9 10.38 12.91 48.2 65.13 48.58 65.62z" fill="#33658e"/>
            <path d="M708.47 127.92s-.55-3.54-3.91-12.64c-3-8.12-11.4-8.28-11.76-8.28l-211.28-5 .09-3.75 211.24 5c.45 0 11.32.14 15.23 10.74 3.53 9.58 4.08 13.24 4.1 13.39z" fill="#33658e"/>
            <path fill="#33658e" d="M636.11 104.12v17.52h-3.75v-17.52h3.75z"/>
            <path fill="#33658e" d="M565.53 101.62v18.02h-3.75v-18.02h3.75z"/>
            <path d="M345.55 2.25c2 0 45.8-2.25 45.8-2.25l22.26 38.73-104.1 8.32z" fill="#eae7e2"/>
            <path fill="#7f898e" d="m375.94 4.51 11.01-.5 20.54 34.96-56.68 1.58 25.13-36.04z"/>
            <path fill="#aab1cc" d="m348.41 6.51 21.02-1.5-26.13 38.54-25.78 3.5 30.89-40.54z"/>
            <path d="M270.46 54c-.12-.33-2.93-8.14.82-14.57 2.28-3.92 6.41-6.41 12.28-7.38 17.61-2.93 79.09-6.93 81.7-7.1l1.59-.1 4.92 21.6-3.67.83-4.2-18.48c-10 .66-63.86 4.31-79.73 7-4.7.78-7.94 2.65-9.64 5.55-2.86 4.89-.57 11.34-.55 11.41z" fill="#33658e"/>
            <path fill="#33658e" d="M324.88 29.54v19.3h-3v-19.3h3z"/>
            <path fill="#33658e" d="M291.84 33.99v17.07h-3V33.99h3z"/>
            <path d="M209.28 124.59c-.09-.12-9.76-12.53-19.66-19.41-9.74-6.76-47.11-13.56-69.85-16.48-34.17-4.39-66.48-8.1-86.38-5.34a6.13 6.13 0 0 0-4.84 2.91c-3 5.16.94 16 2.71 19.7l-2.9 1.23c-.28-.6-6.95-14.84-2.59-22.37a9.19 9.19 0 0 1 7.16-4.44c20.3-2.82 52.86.92 87.26 5.34 19.85 2.54 60.3 9.39 71.3 17 10.31 7.16 19.95 19.53 20.35 20.06z" fill="#aab1cc"/>
            <path d="M64.47 114.57s50.68 46.17 71 77.71 67.57 58.56 99.1 60.81 523.71 0 523.71 0 20.27-36 21.4-46.17l-21.4-51.81L381 145l-15.82-20.3z" fill="#0b5989"/>
            <path d="M758.24 155.11 381 145l-15.82-20.3-300.71-10.13s3.32 3 8.59 8l289.31 9.6 16 20.27 383 10.13z" fill="#192e41"/>
            <path d="M758.24 155.11 381 145l-15.82-20.3-300.71-10.13 2.7-11.39 105.42 4.63 82.22-52.93s48.83-14.52 121.53-17.34a241.84 241.84 0 0 1 34.39.86 26 26 0 0 1 18.21 10.4l47.74 64.64s260.16 6.76 264.67 10.14z" fill="#cdc5bb"/>
            <path fill="#7f898e" d="m263.82 92.43 35.34-30.15 107.68-5.2L426 90.71l-27.05 19.39-125.08-7.75-10.05-9.92z"/>
            <path fill="#33658e" d="m272.36 92.38 28.88-24.9 100.73-4.56 15.94 25.64-20.79 15.25-118.52-5.89-6.24-5.54z"/>
            <path d="m63.32 114.47-59.09-5a4.6 4.6 0 0 1-4.2-5.1H0a4.62 4.62 0 0 1 4.8-4.1l63.58 3a4.61 4.61 0 0 1 1.6 8.84l-4.48 1.92a4.65 4.65 0 0 1-2.18.44z" fill="#cdc5bb"/>
            <path d="M201.35 116.26 302 45.05s-17.27 2.5-26.78 4.51c-5.1 1.07-20.41 5.32-20.41 5.32l-82.22 52.93 20.34 9.24a8.5 8.5 0 0 0 8.42-.79z" fill="#eae7e2"/>
            <path d="M224.14 120.07c-.1-.16-8-12.44-19.6-19.71-16-10-56.07-16.59-78.56-19.64-43.59-5.91-77.15-8.09-97-6.31a5 5 0 0 0-4 2.31c-3.69 5.65-.13 20 1.55 25l-2.86.08c-.27-.79-6.44-18.7-1.2-26.7a8 8 0 0 1 6.26-3.67c25.4-2.27 67.16 2.19 97.71 6.34 27.76 3.76 64.12 10.3 79.74 20.06 12.2 7.62 21.56 21.74 22 22.4z" fill="#7f898e"/>
            <path d="M122.54 174.45s44.74 20.78 113.12 30.22c23.2 3.2 64.18 6.53 111.69 9.64a419.77 419.77 0 0 0-58.76-36.67c-83.34-42.8-224.12-63.07-224.12-63.07s50.68 46.17 71 77.71 67.57 58.56 99.1 60.81c10.93.79 77.13 1 159 1a421.72 421.72 0 0 0-34.65-30.89c-59.95-4-111.8-8.25-133.36-11.78-61.98-10.13-103.02-36.97-103.02-36.97z" fill="#254461"/>
            <path d="M642 224.54c-41.61-.79-185.31-3.06-294.64-10.23q6 4.49 11.53 8.89c112.31 7.56 246.68 10.13 276.83 10.13 36.06 0 133.88-1.73 133.88-1.73l3.35-7s-76.95.96-130.95-.06z" fill="#ff7e78"/>
            <path d="M235.66 204.67c-68.38-9.44-113.12-30.22-113.12-30.22s41 26.84 103 37c21.56 3.53 73.41 7.74 133.36 11.78q-5.52-4.41-11.53-8.89c-47.53-3.14-88.51-6.47-111.71-9.67z" fill="#ef3f3f"/>
            <path d="m311.24 99.55 29.31 1.45c2.43-9.87 6.09-24.92 8.51-35.68l-19.87.9z" fill="#254461"/>
            <path d="m385.73 63.66-17.65.79v37.92l29 1.44c-2.59-9.45-7.69-27.42-11.35-40.15z" fill="#254461"/>
            <path fill="#254461" d="m311.03 67.04-9.79.44-28.88 24.9 6.2 5.51 32.47-30.85z"/>
            <path fill="#ff6c6c" d="m378.38 152.48 382.96 10.13 9.92 23.76-378.01-10.82-14.87-23.07z"/>
            <path d="M338.25 139.47a20.1 20.1 0 1 0 20.11 20.1 20.1 20.1 0 0 0-20.11-20.1zm0 31a10.89 10.89 0 1 1 10.89-10.89 10.88 10.88 0 0 1-10.89 10.88z" fill="#192e41"/>
            <path d="m480.22 204.83-28.82-.51a4.32 4.32 0 0 1-4.24-4.39 4.33 4.33 0 0 1 4.39-4.25l28.82.51a4.32 4.32 0 0 1 4.24 4.4 4.33 4.33 0 0 1-4.39 4.24z" fill="#192e41"/>
            <path d="m537.84 205.85-28.84-.51a4.34 4.34 0 0 1-4.25-4.4 4.33 4.33 0 0 1 4.4-4.24l28.82.5a4.35 4.35 0 0 1 4.24 4.4 4.34 4.34 0 0 1-4.37 4.25z" fill="#192e41"/>
            <path d="m595.47 206.86-28.81-.5a4.35 4.35 0 0 1-4.25-4.4 4.34 4.34 0 0 1 4.4-4.25l28.81.51a4.34 4.34 0 0 1 4.25 4.4 4.32 4.32 0 0 1-4.4 4.24z" fill="#192e41"/>
            <path d="m653.1 207.88-28.81-.51A4.34 4.34 0 0 1 620 203a4.33 4.33 0 0 1 4.4-4.24l28.81.51a4.33 4.33 0 0 1 4.25 4.39 4.34 4.34 0 0 1-4.36 4.22z" fill="#192e41"/>
            <path d="m710.73 208.9-28.81-.51a4.34 4.34 0 0 1-4.25-4.4 4.34 4.34 0 0 1 4.4-4.25l28.81.51a4.34 4.34 0 0 1 4.25 4.4 4.34 4.34 0 0 1-4.4 4.25z" fill="#192e41"/>
        </g>
    </g>
</svg>
