<?xml version="1.0" encoding="UTF-8"?>
<svg data-bbox="0.046 -0.029 511.864 485.174" viewBox="0 0 511.92 485.14" xmlns="http://www.w3.org/2000/svg" data-type="color">
    <g>
        <path d="M433.71 122.71c5.92 7.13 11.69 14.56 18.1 21.26.53.55 1.26-.25.82-.82-5.69-7.31-12.18-14.1-18.38-21-.33-.37-.85.17-.54.55z" fill="#2163c4" data-color="1"/>
        <path d="M412 130.64c2.49 3.5 5.25 6.83 7.88 10.22.43.55 1.22-.23.77-.77-2.71-3.28-5.32-6.67-8.16-9.83-.24-.26-.7.08-.49.38z" fill="#2163c4" data-color="1"/>
        <path d="M420.39 133.37a42.72 42.72 0 0 0 8.18 8c.56.4 1.26-.51.74-1a102.59 102.59 0 0 1-8.25-7.77c-.42-.46-1 .21-.67.68z" fill="#2163c4" data-color="1"/>
        <path d="M254.51 133.07c-2.92 2.52-5.91 5.14-8.57 7.94-.52.55.26 1.3.83.82a116.69 116.69 0 0 0 8.44-8.06c.44-.46-.23-1.11-.7-.7z" fill="#2163c4" data-color="1"/>
        <path d="M263.48 133c-2.68 2.66-5.39 5.28-8 8a.56.56 0 0 0 .79.8c2.7-2.63 5.33-5.35 8-8a.53.53 0 0 0-.75-.76z" fill="#2163c4" data-color="1"/>
        <path d="M251.54 115.11c-8.58 8.51-17.33 17.19-24.86 26.66-.53.66.35 1.6.95.95 8.22-9 16-18.32 24.41-27.12a.35.35 0 0 0-.5-.49z" fill="#2163c4" data-color="1"/>
        <path d="M298.37 62.37c13.7-13.58 26.09-28.7 39-42.95.34-.38-.22-.94-.56-.56-12.95 14.3-26.72 28.07-38.89 43.05-.26.32.16.77.46.46z" fill="#2163c4" data-color="1"/>
        <path d="M383.31 65.91c-12.17-15-25.94-28.75-38.89-43-.34-.38-.9.18-.56.56 12.9 14.25 25.29 29.37 39 43 .3.31.72-.14.46-.46z" fill="#2163c4" data-color="1"/>
        <path d="M364.09 71.13c4.21 6.23 10 11.76 15 17.39q7.88 9 15.79 17.87c.65.72 1.71-.34 1.07-1.06q-7.77-8.72-15.6-17.37c-5.11-5.66-10-12.19-15.81-17.16-.22-.19-.61 0-.43.33z" fill="#2163c4" data-color="1"/>
        <path d="M314 68.09c-11.15 11.62-22.39 23.68-33.19 35.33-.55.59.34 1.49.9.89 10.8-11.64 22-23.77 32.74-35.77.27-.31-.17-.75-.45-.45z" fill="#2163c4" data-color="1"/>
        <path d="M326.13 55.18c3.55-3.62 7.16-7.18 10.61-10.89.4-.44-.24-1.08-.65-.65-3.54 3.62-6.92 7.42-10.36 11.14-.24.27.15.66.4.4z" fill="#2163c4" data-color="1"/>
        <path d="M340.18 44c3.83 5.1 8 10 12.32 14.76.47.52 1.18-.23.75-.75-4-4.91-8.26-9.77-12.71-14.28-.18-.18-.52.06-.36.27z" fill="#2163c4" data-color="1"/>
        <path d="M372.11 85.45c5.37 6.42 10.68 13.44 16.88 19.07.43.39 1.23-.13.85-.65-5-6.77-11.46-12.81-17.32-18.83-.26-.27-.64.13-.41.41z" fill="#2163c4" data-color="1"/>
        <path d="M302.12 89.23c11.42-12.11 22.67-24.62 33.74-36.88.45-.49-.28-1.22-.73-.73-11.07 12.26-22.39 24.74-33.28 37.38-.17.19.1.46.27.28z" fill="#2163c4" data-color="1"/>
        <path d="M394.18 115.85c4.81-.07 9.63.15 14.44.09a.63.63 0 0 0 0-1.25 122.07 122.07 0 0 0-14.44.28c-.56 0-.57.89 0 .88z" fill="#2163c4" data-color="1"/>
        <path d="M386.2 119.44c9.92.22 19.87.65 29.79.55a.65.65 0 0 0 0-1.3c-9.91-.34-19.87-.15-29.79-.17a.46.46 0 0 0 0 .92z" fill="#2163c4" data-color="1"/>
        <path d="M285.47 114.42c-7.38.56-14.72.4-22.11.6a.56.56 0 0 0 0 1.11c7.31.57 14.81 0 22.11-.63.68-.06.69-1.13 0-1.08z" fill="#2163c4" data-color="1"/>
        <path d="M294.69 118c-12 .07-24.23 0-36.25.76a.52.52 0 0 0 0 1c12 .31 24.24-.34 36.25-1a.42.42 0 0 0 0-.83z" fill="#2163c4" data-color="1"/>
        <path d="M220.06 115.32c6.52.21 13.14.52 19.66.11a.59.59 0 0 0 0-1.18c-6.55 0-13.1.31-19.66.22a.43.43 0 0 0 0 .85z" fill="#2163c4" data-color="1"/>
        <path d="M212.69 118.49c8.69 0 17.41.6 26.1.45a.59.59 0 0 0 0-1.17c-8.64-.63-17.45-.29-26.1-.17a.45.45 0 0 0 0 .89z" fill="#2163c4" data-color="1"/>
        <path d="M251.24 165.92c-.2-7.81.1-15.71-.28-23.5a.59.59 0 0 0-1.18 0c-.73 7.68-.09 15.84.73 23.5.05.46.74.48.73 0z" fill="#2163c4" data-color="1"/>
        <path d="M423.77 161.92c-.13-6.87.36-13.66.61-20.51 0-1-1.39-.93-1.46 0a159.53 159.53 0 0 0 .13 20.51c0 .46.73.46.72 0z" fill="#2163c4" data-color="1"/>
        <path d="M399.36 195.4c4.94.08 10.07.54 15 .09a.57.57 0 0 0 0-1.14c-4.93-.45-10.05 0-15 .09a.48.48 0 0 0 0 1z" fill="#2163c4" data-color="1"/>
        <path d="M277.86 194.64a76.42 76.42 0 0 0-16-.31.59.59 0 0 0 0 1.18 77.1 77.1 0 0 0 16-.31.28.28 0 0 0 0-.56z" fill="#2163c4" data-color="1"/>
        <path d="M267.86 253.43c-.06 5.85-.95 12.33 0 18.11a.44.44 0 0 0 .85 0c.92-5.78 0-12.26 0-18.11a.4.4 0 0 0-.79 0z" fill="#2163c4" data-color="1"/>
        <path d="M304.49 253.92c-.15 5.31-.33 10.69-.13 16a.5.5 0 0 0 1 0c.19-5.31 0-10.69-.14-16a.37.37 0 0 0-.73 0z" fill="#2163c4" data-color="1"/>
        <path d="M343.74 235.39c-1.15 4.44-.45 10-.43 14.53a.55.55 0 0 0 1.09 0c0-4.57.72-10.1-.43-14.53a.12.12 0 0 0-.23 0z" fill="#2163c4" data-color="1"/>
        <path d="M382.83 233.92c0 4.66-.18 9.34-.1 14a.63.63 0 0 0 1.25 0c.09-4.66-.05-9.34-.1-14a.53.53 0 0 0-1.05 0z" fill="#2163c4" data-color="1"/>
        <path d="M324.36 194.28c12.17-.33 24.33-.06 36.5 0a.46.46 0 0 0 0-.91c-12.17-.39-24.34 0-36.5.31a.28.28 0 0 0 0 .56z" fill="#2163c4" data-color="1"/>
        <path d="M251.27 354.25c.06 11.55.08 23.12.42 34.67a.65.65 0 0 0 1.29 0c-.18-11.56-.68-23.12-1.14-34.67a.29.29 0 0 0-.57 0z" fill="#2163c4" data-color="1"/>
        <path d="M422.44 421.92v34h.86v-34z" fill="#2163c4" data-color="1"/>
        <path d="M487.89 449.14c2.7 9.67 6.82 19.52 10.93 28.69.26.6 1.26.17 1.05-.45-3.21-9.5-6.88-19.53-11.47-28.46-.14-.29-.6-.09-.51.22z" fill="#2163c4" data-color="1"/>
        <path d="M400.19 283.34a76.51 76.51 0 0 0 9.33.18.6.6 0 0 0 0-1.2 76.51 76.51 0 0 0-9.33.18.42.42 0 0 0 0 .84z" fill="#2163c4" data-color="1"/>
        <path d="M402.19 289.44a78 78 0 0 0 11.33.13.65.65 0 0 0 0-1.3 78 78 0 0 0-11.33.13.52.52 0 0 0 0 1z" fill="#2163c4" data-color="1"/>
        <path d="M285.52 283.92c-8.61-.27-17.39-1-26-.57a.6.6 0 0 0 0 1.19c8.59.63 17.38.16 26 .11a.37.37 0 0 0 0-.73z" fill="#2163c4" data-color="1"/>
        <path d="M293.52 289.11c-12.27-.19-25.79-.31-37.35-.36a.59.59 0 0 0 0 1.17c11.56.05 25.08.06 37.35 0a.4.4 0 0 0 0-.8z" fill="#2163c4" data-color="1"/>
        <path d="M255 473.48c7.35-.49 11-10 13.58-15.61 4.9-10.59 8.93-21.3 18.17-28.95 18.25-15.1 42.42-20.69 58.41-38.85 8.69-9.86 14.84-21.79 20-33.78.26-.6-.62-1.14-.9-.52-6.26 13.35-12.91 26.78-23.53 37.23-9.82 9.71-22.06 15.27-34.05 21.71s-24.54 13.79-31.41 26.1c-3.37 6-5.82 12.48-8.75 18.71-2.26 4.79-5.46 12.61-11.54 13.21-.45 0-.47.75 0 .72z" fill="#2163c4" data-color="1"/>
        <path d="M371.9 341.68c3.29-12.22 6.26-24.53 9.33-36.81 3-12 5.31-24.41 10.52-35.72.35-.76-.71-1.42-1.15-.67-5.83 10.1-7.39 22.93-10.07 34.12-3.11 13-6.35 25.9-9.23 38.92a.31.31 0 0 0 .6.16z" fill="#2163c4" data-color="1"/>
        <path d="M198.39 452.65a158.58 158.58 0 0 0-11.69 24.59c-.3.82 1 1.14 1.29.35a235.7 235.7 0 0 1 11.23-24.45c.3-.55-.52-1-.83-.49z" fill="#2163c4" data-color="1"/>
        <path d="M355 261.27c4.21-1.09 8.52-1.95 12.89-1.53 3 .29 5.84 1.34 8.77 2.07a.63.63 0 0 0 .33-1.21c-7.69-2.54-14.38-2.23-22.12.18a.25.25 0 0 0 .13.49z" fill="#2163c4" data-color="1"/>
        <path d="M362.52 257.63c4.86-2.65 11.39 1.57 15.55 3.73a.6.6 0 0 0 .61-1c-4.11-2.57-11.73-6.36-16.47-3.22a.31.31 0 0 0 .31.53z" fill="#2163c4" data-color="1"/>
        <path d="M352.8 325.14c4.44-9.18 7.06-19.1 9.17-29 2.34-11.05 5.24-22.22 15.63-28.34a.74.74 0 0 0-.75-1.28c-8.79 4.46-12.75 14-14.91 23.09-2.86 12.05-5.46 23.65-9.64 35.35-.1.29.37.49.5.21z" fill="#2163c4" data-color="1"/>
        <path d="M239 442c-6.86 11.18-13.32 23.41-16.82 36.12-.23.84 1 1.13 1.28.35 4.9-12.37 9.63-24.45 16.4-36a.5.5 0 0 0-.86-.5z" fill="#2163c4" data-color="1"/>
        <path d="M221.75 449.34c-5.43 10.17-10.88 20.33-16.14 30.58-.32.62.61 1.16.93.55 5.36-10.22 10.53-20.53 15.72-30.83.17-.34-.33-.64-.51-.3z" fill="#2163c4" data-color="1"/>
        <path d="M334.47 358.43c6.34-8.87 13.12-18.41 16.69-28.79.14-.42-.53-.72-.73-.31a299.4 299.4 0 0 1-16.25 28.93c-.12.19.17.35.29.17z" fill="#2163c4" data-color="1"/>
        <path d="M392.21 264.91c2.67 1.69 5.23 3.73 8 5.21.59.31 1.31-.5.75-1a53.9 53.9 0 0 0-8.24-5.15.53.53 0 0 0-.53.91z" fill="#2163c4" data-color="1"/>
        <path d="M392.45 258.33a60.48 60.48 0 0 1 6.84 9.53.63.63 0 0 0 1.08-.63 40.2 40.2 0 0 0-7.36-9.46.4.4 0 0 0-.56.56z" fill="#2163c4" data-color="1"/>
        <path d="M444.28 328.86a129.16 129.16 0 0 1-9.52-23.43.45.45 0 0 0-.86.24 91.36 91.36 0 0 0 10.1 23.38.19.19 0 0 0 .32-.19z" fill="#2163c4" data-color="1"/>
        <path d="M290.88 468.65a41.93 41.93 0 0 1-17.16-1.76c-.8-.25-1.13 1-.34 1.25a37.23 37.23 0 0 0 17.62 1.41c.51-.07.39-1-.13-.9z" fill="#2163c4" data-color="1"/>
        <path d="M408.21 471.23c6 .78 11.89 1.86 17.79 3 .81.17 1.15-1.06.34-1.23a181.15 181.15 0 0 0-18.13-2.8c-.63-.07-.61.9 0 1z" fill="#2163c4" data-color="1"/>
        <path d="M108.87 427.05c7.22 2.87 16.08 1.95 23.16-.9.6-.24.38-1.19-.27-1-7.85 2.38-14.81 2.3-22.86 1.73-.1 0-.1.13 0 .16z" fill="#2163c4" data-color="1"/>
        <path d="M13.8 452.21c-.63 10.18-2.54 20.08-3.78 30.17-.08.66 1 .78 1.15.15 2.59-9.71 3.14-20.31 3.47-30.32 0-.55-.81-.54-.84 0z" fill="#2163c4" data-color="1"/>
        <path d="M36.83 154A138.53 138.53 0 0 0 40 133.42a.61.61 0 0 0-1.2-.16 137.22 137.22 0 0 0-2.39 20.63.23.23 0 0 0 .45.06z" fill="#2163c4" data-color="1"/>
        <path d="M51.36 117.52c-8.52-.09-17-.77-25.52-.91-.77 0-.74 1.1 0 1.17 8.43.85 17.05.67 25.52.58a.42.42 0 0 0 0-.84z" fill="#2163c4" data-color="1"/>
        <path d="M41.36 114.64c-6.4-.18-12.68-.9-19-1.66-.7-.08-.87 1.13-.17 1.25a110 110 0 0 0 19.2 1.06.33.33 0 0 0 0-.65z" fill="#2163c4" data-color="1"/>
        <path d="M193.09 478.17c4.22-3.57 6.32-10.17 8.65-15 4-8.23 8.14-16.52 13.58-23.91 13.37-18.17 34.05-27.18 53.75-36.6 15.4-7.37 31-17.63 42.23-30.6 15.42-17.86 24.94-40.55 32.77-62.58a176.81 176.81 0 0 0 5.46-19.27c1.34-5.78 2.45-12.43 5.42-17.64 3.53-6.18 12.91-6.48 18.36-5.65 3.19.49 4.56-4.38 1.35-4.88a32.53 32.53 0 0 0-15.66 1.11c-8.42 3-10.71 11.46-12.77 19.39-3.13 12-6 23.63-10.52 35.24-4.81 12.35-10.21 24.78-17.16 36.1-11.35 18.5-27.26 31.08-45.9 41.65-8.46 4.8-17.61 8.31-26.22 12.84a117 117 0 0 0-27.36 19.68c-7.83 7.6-13.16 17.15-17.66 27-1.95 4.28-3.74 8.65-5.67 12.95-1.23 2.71-2.46 6.09-4.7 8.16-1.36 1.26.63 3.18 2 2z" fill="#2163c4" data-color="1"/>
        <path d="M325.13 104c5.79-10.45 18.91-8.62 23.81 1.41.95 2 4.3.58 3.54-1.49A16.34 16.34 0 0 0 337.3 93c-6.3-.07-12.9 3.68-13.83 10.32-.13.94 1.12 1.68 1.66.7z" fill="#2163c4" data-color="1"/>
        <path d="M316.51 94.67c1.5 1 3 2 4.46 3a39.37 39.37 0 0 0 4.27 3.31 1.6 1.6 0 0 0 1.93-2.5c-1.19-1.42-3.16-2.37-4.76-3.27a33.62 33.62 0 0 0-5.15-2.34c-1.08-.38-1.63 1.2-.75 1.77z" fill="#2163c4" data-color="1"/>
        <path d="M323.06 86.68c1 1.77 1.85 3.66 2.85 5.45.86 1.53 1.94 3.49 3.57 4.27 1 .5 2.3-.55 1.64-1.64-1-1.63-2.56-2.9-3.64-4.51a34.84 34.84 0 0 0-3.36-4.38.68.68 0 0 0-1.06.81z" fill="#2163c4" data-color="1"/>
        <path d="M333.09 75.43c-.07 6.13 0 13.42 1.71 19.33a1.38 1.38 0 0 0 2.7-.36c-.21-6.22-2-13.05-3.4-19.11a.52.52 0 0 0-1 .14z" fill="#2163c4" data-color="1"/>
        <path d="M344.82 75.25c-1.65 6.49-3.27 13-4.54 19.62-.34 1.82 2.45 2.58 2.78.77 1.21-6.64 2.07-13.49 2.94-20.24.08-.65-1-.77-1.13-.15z" fill="#2163c4" data-color="1"/>
        <path d="M353.83 85.3c-1.32 1.68-2.43 3.55-3.65 5.31s-3.08 3.77-4.1 5.85c-.81 1.68 1.4 3.77 2.78 2.14a27.29 27.29 0 0 0 3.41-6.29 38.59 38.59 0 0 0 2.55-6.43c.14-.53-.6-1.07-1-.58z" fill="#2163c4" data-color="1"/>
        <path d="M360.43 93.27c-2.27 1.18-4.45 2.51-6.65 3.8-2 1.18-4.47 2.2-6 3.94-1 1.16-.05 3.48 1.66 2.84 2.21-.82 4-2.64 5.89-4.08 2.11-1.64 4.26-3.25 6.28-5 .85-.74-.23-2-1.15-1.5z" fill="#2163c4" data-color="1"/>
        <path d="M235.24 147.39c12.65-10.55 24.91-25.41 36.69-38 19.18-20.57 38.3-41.29 57.4-61.94 4.41-4.76 8.76-9.49 13.13-14.49h-7.83q46 51 92.2 102.08c4.36 4.82 8.8 9.63 13.16 14.44 5 5.46 13-2.62 8.09-8.06-.32-.36-.78-.86.63.86-.43-.53-.84-1.07-1.27-1.6-.68-.82-1.39-1.61-2.1-2.4-2.53-2.83-5.11-5.62-7.66-8.43l-25.14-27.67q-28.41-31.31-56.93-62.48l-13.15-14.4a5.58 5.58 0 0 0-7.83 0c-30.81 34.2-61.08 68.88-91.47 103.45a159.12 159.12 0 0 0-12.23 15.31c-1.87 2.75 2.07 5.21 4.31 3.33z" fill="#2163c4" data-color="1"/>
        <path d="M224.71 138.84c13.86-12.25 27.23-28.81 40.17-43.14 21-23.27 42-46.37 63-69.72 4.85-5.41 9.64-11.06 14.45-16.06h-7.84c13.18 14 26.36 28.9 39.55 43.47 20.89 23.09 41.82 46 62.76 69.07 4.84 5.33 9.75 10.54 14.6 15.87s13-2.68 8.08-8.12c-.49-.54.71.93.66.87-.48-.59-.93-1.19-1.41-1.77-.75-.9-1.53-1.77-2.31-2.64-2.83-3.14-5.69-6.25-8.53-9.37l-28-30.77q-31.42-34.53-63-69-7.29-8-14.57-15.95a5.58 5.58 0 0 0-7.84 0c-13.08 14.93-26 30-39 45q-30.9 35.76-61.48 71.71a197 197 0 0 0-13.6 17.21c-1.84 2.71 2.08 5.31 4.31 3.34z" fill="#2163c4" data-color="1"/>
        <path d="M394.7 134c4.56 5.15 9 11 14.12 15.51a5.76 5.76 0 0 0 7.51.45c2.05-1.63 3.16-5 1.47-7.38-4.33-6-9.94-11.3-15-16.71s-13 2.63-8.13 8.13z" fill="#2163c4" data-color="1"/>
        <path d="M301.91 110.32c13.8-15 27.53-30.4 41.07-45.4h-7.84c13.33 15 26.61 29.62 40 44.38 5 5.52 13.17-2.7 8.17-8.2C369.93 86.35 356.43 71.7 343 57a5.58 5.58 0 0 0-7.84 0Q315 80.11 295.24 103.63c-3.87 4.59 2.52 11.22 6.67 6.69z" fill="#2163c4" data-color="1"/>
        <path d="M267.08 149.24c4-.9 7.25-5.7 9.92-8.47l9.11-9.46c4.32-4.49-3-11.4-6.72-6.72l-8.5 10.59c-2.64 3.27-6.86 7-7.29 11.41-.18 1.87 1.9 3 3.48 2.65z" fill="#2163c4" data-color="1"/>
        <path d="m435.77 479 .32-113.19c.17-59.71.43-119.43.15-179.14 0-10 0-20-.16-30q-.06-4.08-.16-8.16c0-.75 0-1.5-.07-2.25s-.46-2.57 0-.33c0-.06 0 0 0 0 0-6-9.31-6-9.31 0 0 0 .08-2.8 0 .33 0 .61 0 1.11-.05 1.72-.06 2.18-.12 4.3-.15 6.48-.12 8.12-.12 16.2-.16 24.32-.12 26.63 0 53.25 0 79.88q0 89.58.35 179.14l.12 41.16c0 5.91 9.17 5.92 9.19 0z" fill="#2163c4" data-color="1"/>
        <path d="M417.77 460q.17-53.34.32-106.67c.17-56.64.43-113.29.15-169.93 0-9.45 0-18.9-.16-28.34 0-2.61-.09-5.21-.17-7.82 0-.68 0-1.13-.06-1.81-.05-1.65 0-1.46 0-.46 0-6-9.31-6-9.31 0 0-1 .06-2.17 0 .31 0 .57 0 1-.05 1.59-.09 2.14-.12 4.23-.15 6.38-.12 7.66-.12 15.29-.16 23-.12 25 0 50 0 75q0 85 .35 169.93l.12 38.89c0 5.91 9.17 5.92 9.19 0z" fill="#2163c4" data-color="1"/>
        <path d="m511.6 471.64-25.44-67.43c-13.45-35.67-26.82-71.39-40.69-106.9-2.33-6-4.61-11.94-7-17.86q-1.2-3-2.46-5.88c-.31-.7-1.17-2.91-.39-.86-2.12-5.54-11.12-3.14-9 2.48 8.57 22.42 16.76 45 25.35 67.45q20.47 53.43 41.19 106.76 4.77 12.35 9.56 24.68c2.11 5.44 11 3.12 8.86-2.44z" fill="#2163c4" data-color="1"/>
        <path d="M495.09 478.83c-17.15-46-34-92.17-51.8-137.92-1.79-4.58-3.53-9.18-5.38-13.74-.67-1.63-1.35-3.26-2.07-4.87-.29-.65-1-2.46-.22-.44-2.1-5.55-11.11-3.15-9 2.47 17.42 45.92 34.53 92 52.21 137.81l7.38 19.13c2.1 5.44 10.94 3.14 8.86-2.44z" fill="#2163c4" data-color="1"/>
        <path d="m252.82 131.54 58.72.32c31.39.17 62.8.44 94.19.16 5.19-.05 10.39-.05 15.58-.16 1.43 0 2.66-.08 4.09-.17 1-.06 3.46-.09 1.46-.09 6 0 6-9.31 0-9.31 2 0-.06 0-1.05-.07s-2.17-.11-3.3-.15c-4.2-.13-8.36-.11-12.57-.15-13.82-.13-27.62 0-41.44 0q-47.1 0-94.18.35l-21.51.11c-5.91 0-5.91 9.16 0 9.19z" fill="#2163c4" data-color="1"/>
        <path d="M270.76 111.54c40.53.28 81.09.93 121.61.48 4.18 0 8.37 0 12.55-.16 1.11 0 2.37-.08 3.48-.17.78-.06 3.46-.09 1.46-.09 6 0 6-9.31 0-9.31 2 0-.25 0-1.06-.06-1-.09-2.07-.13-3.07-.16-3.33-.13-6.7-.12-10-.15-11.13-.13-22.29 0-33.43 0-24.75 0-49.52.18-74.28.35l-17.22.11c-5.91.05-5.92 9.15 0 9.19z" fill="#2163c4" data-color="1"/>
        <path d="m25.7 131.54 69.05.32c36.73.17 73.49.44 110.23.16 6.2-.05 12.41 0 18.61-.16 1.67 0 3.35-.07 5-.17l1.57-.06c1.11-.06 1.68 0 .68 0 6 0 6-9.31 0-9.31 2 0-.52 0-1.58-.06-1.34-.09-2.78-.12-4.13-.16-4.94-.13-9.93-.11-14.88-.15-16.25-.13-32.52 0-48.77 0q-55.12 0-110.25.35l-25.55.11c-5.91 0-5.92 9.16 0 9.19z" fill="#2163c4" data-color="1"/>
        <path d="m25.7 111.54 74.53.32c39.61.17 79.23.44 118.83.16 6.57 0 13.14 0 19.7-.16 1.88 0 4-.07 5.88-.17 1.1-.06 3.22-.09 2.22-.09 6 0 6-9.31 0-9.31 1 0-.68 0-1.83-.07-1.44-.08-3-.11-4.46-.15-5.38-.13-10.82-.11-16.2-.15-17.49-.13-35 0-52.5 0q-59.42 0-118.84.35l-27.32.11c-5.92 0-5.93 9.17 0 9.19z" fill="#2163c4" data-color="1"/>
        <path d="M262.75 302.54c10.84.16 21.69.41 32.54.45 7.33 0 14.67.07 22 .05 2.46 0 5 0 7.42-.14 1 0 6.15-.3 3.15-.3 6 0 6-9.31 0-9.31 3 0-1.94-.23-2.92-.29-2.42-.13-4.86-.13-7.27-.14-7.46 0-14.92 0-22.38.05-10.84 0-21.7.29-32.54.44-5.91.09-5.92 9.11 0 9.19z" fill="#2163c4" data-color="1"/>
        <path d="M261.76 277.54c11.79.16 23.58.42 35.36.45 8.05 0 16.09.07 24.13.05 2.64 0 5.29 0 7.93-.14.82 0 1.81-.09 2.63-.18s3.05-.12 1.05-.12c6 0 6-9.31 0-9.31 2 0-.27 0-1.05-.11s-1.72-.15-2.54-.18c-2.64-.11-5.33-.14-8-.14-8 0-16.11 0-24.15.05-11.79 0-23.59.29-35.38.44-5.91.08-5.93 9.11 0 9.19z" fill="#2163c4" data-color="1"/>
        <path d="M391 207.79c4 .17 8 .4 11.94.45s8.81.71 12.54-1c3.05-1.41 3.05-6.62 0-8-3.73-1.74-8.53-1.07-12.54-1s-8 .28-11.94.45c-5.9.25-5.91 8.93 0 9.19z" fill="#2163c4" data-color="1"/>
        <path d="M352.21 207.79c4 .17 8 .4 11.94.45s8.81.71 12.54-1c3.05-1.41 3.05-6.62 0-8-3.73-1.74-8.53-1.07-12.54-1s-8 .28-11.94.45c-5.91.25-5.92 8.93 0 9.19z" fill="#2163c4" data-color="1"/>
        <path d="M313.38 207.79c4 .17 8 .4 11.94.45s8.8.71 12.54-1c3.05-1.41 3.05-6.62 0-8-3.74-1.74-8.53-1.07-12.54-1s-8 .28-11.94.45c-5.91.25-5.92 8.93 0 9.19z" fill="#2163c4" data-color="1"/>
        <path d="M274.55 207.79c4 .17 8 .4 11.94.45s8.8.71 12.54-1c3.05-1.41 3.05-6.62 0-8-3.74-1.74-8.53-1.07-12.54-1s-8 .28-11.94.45c-5.91.25-5.92 8.93 0 9.19z" fill="#2163c4" data-color="1"/>
        <path d="M261.76 189.54c43.78.28 87.58.93 131.36.48 4.56-.05 9.13-.05 13.69-.16 1.22 0 2.42-.08 3.64-.17.83-.06 4.41-.09 1.41-.09 6 0 6-9.31 0-9.31 2 0-.16 0-1-.06s-2-.12-2.94-.16c-3.62-.14-7.24-.11-10.86-.15-11.9-.13-23.8 0-35.71 0q-40.39 0-80.79.35l-18.79.11c-5.91 0-5.92 9.15 0 9.19z" fill="#2163c4" data-color="1"/>
        <path d="M390.18 302.54c3.74.17 7.48.41 11.22.45s8.46.73 11.93-1c3-1.53 3-6.51 0-8-3.47-1.75-8.16-1.07-11.93-1s-7.48.28-11.22.45c-5.91.27-5.92 8.92 0 9.19z" fill="#2163c4" data-color="1"/>
        <path d="M397.76 277.54c2.63.18 5.27.43 7.91.45 3.23 0 6.94.54 9.54-1.75a4.68 4.68 0 0 0 0-6.58c-2.6-2.3-6.31-1.79-9.54-1.76-2.64 0-5.28.28-7.91.45a4.6 4.6 0 0 0 0 9.19z" fill="#2163c4" data-color="1"/>
        <path d="m224.53 484.54 70 .32c37 .17 74 .44 111 .16 6.2 0 12.4 0 18.6-.16 1.72 0 3.45-.07 5.17-.17l1.21-.06c1.11-.06 2.34 0 .34 0 6 0 6-9.31 0-9.31 2 0-.17 0-1.23-.06-1.39-.09-2.7-.12-4.09-.16-5.05-.13-10.06-.12-15.11-.15-16.42-.13-32.82-.05-49.23 0q-55.51 0-111 .35l-25.66.11c-5.91 0-5.91 9.16 0 9.19z" fill="#2163c4" data-color="1"/>
        <path d="M278.83 464.54c44.16.28 88.35.93 132.51.48 4.56 0 9.13 0 13.69-.16 1.22 0 2.31-.08 3.53-.17.84-.06 4.3-.09 1.3-.09 6 0 6-9.31 0-9.31 3 0 0 0-.9-.06-1-.09-2-.12-3.06-.16-3.67-.14-7.3-.12-11-.15-12.12-.13-24.23-.05-36.35 0q-40.5 0-81 .35l-18.79.11c-5.91 0-5.91 9.15 0 9.19z" fill="#2163c4" data-color="1"/>
        <path d="M411.27 145.13A87.79 87.79 0 0 0 432 148c5.11 0 5.11-8 0-7.94-6.71.12-13.41.44-20.12.32-2.73 0-3.34 4.12-.65 4.78z" fill="#2163c4" data-color="1"/>
        <path d="M233.12 146a60.71 60.71 0 0 0-4.16-5.93c-1.52-2.06-3.12-4.51-5.85-4.78a2.58 2.58 0 0 0-2.48 3.24c.87 2.3 3.52 3.79 5.36 5.32s3.62 3.15 5.9 3.75a1.1 1.1 0 0 0 1.23-1.6z" fill="#2163c4" data-color="1"/>
        <path d="M458.24 133.85c-2.7 1.48-5 3.85-7.5 5.7s-5.1 3.74-7.76 5.47c-3.52 2.29-.27 7.95 3.31 5.67a38.43 38.43 0 0 0 7.69-6.94c2.19-2.42 4.75-4.91 6.44-7.72a1.61 1.61 0 0 0-2.18-2.18z" fill="#2163c4" data-color="1"/>
        <path d="M264.77 387.54q.15-40.64.32-81.26c.17-43.36.43-86.74.15-130.1 0-7.2 0-14.41-.16-21.61 0-2-.06-4-.17-6 0-.51 0-1.26-.06-1.77-.08-1.38 0-1.83 0-.83 0-6-9.31-6-9.31 0 0-2 0 .91-.07 2-.08 1.59-.12 3.3-.15 4.89-.13 5.89-.12 11.85-.16 17.74-.12 19 0 38.08 0 57.1q0 65.06.35 130.12l.12 29.79c0 5.91 9.16 5.93 9.19 0z" fill="#2163c4" data-color="1"/>
        <path d="M279.14 272.13c.16-11.49.42-23 .45-34.47 0-7.9.08-15.8.05-23.7 0-2.59 0-5.21-.15-7.81-.05-1-.18-2.17-.3-3.21-.07-.67 0-2 0 0 0-6-9.32-6-9.32 0 0-2 .1-.67 0 0-.12 1-.24 2.11-.3 3.15-.15 2.59-.14 5.24-.15 7.84 0 7.9 0 15.82.05 23.72 0 11.49.29 23 .45 34.48.08 5.91 9.1 5.92 9.18 0z" fill="#2163c4" data-color="1"/>
        <path d="M301.27 272.13c.16-11.49.42-23 .45-34.47 0-7.9.08-15.8 0-23.7 0-2.59 0-5.21-.15-7.81-.05-1-.18-2.17-.3-3.21-.07-.67 0-2 0 0 0-6-9.32-6-9.32 0 0-2 .1-.67 0 0-.12 1-.24 2.11-.3 3.15-.15 2.59-.14 5.24-.15 7.84 0 7.9 0 15.82.05 23.72 0 11.49.29 23 .45 34.48.08 5.91 9.1 5.92 9.18 0z" fill="#2163c4" data-color="1"/>
        <path d="M318 272.13c.15-11.49.41-23 .44-34.47 0-7.9.08-15.8.05-23.7 0-2.59 0-5.21-.15-7.81-.05-1-.18-2.17-.3-3.21-.07-.67 0-2 0 0 0-6-9.31-6-9.31 0 0-2 .09-.67 0 0-.11 1-.24 2.11-.3 3.15-.14 2.59-.14 5.24-.15 7.84v23.72c0 11.49.29 23 .45 34.48.08 5.91 9.1 5.92 9.19 0z" fill="#2163c4" data-color="1"/>
        <path d="M340.11 265.85c.15-10.44.4-20.89.44-31.33 0-7.05.07-14.11.05-21.16 0-2.45 0-5.05-.14-7.5-.06-1-.29-4.94-.29-2.94 0-6-9.31-6-9.31 0 0-3-.24 2-.29 2.94-.13 2.32-.14 4.73-.15 7.06 0 7.18 0 14.39.05 21.57 0 10.44.29 20.9.45 31.34.09 5.92 9.1 5.94 9.19 0z" fill="#2163c4" data-color="1"/>
        <path d="M356.81 241.3c.16-6.35.38-12.7.44-19.06 0-4.23.09-8.48.05-12.72 0-1.45 0-3-.13-4.49-.07-.91-.3-4.11-.3-2.11 0-6-9.31-6-9.31 0 0-2-.22 1-.29 1.89-.13 1.51-.13 3.12-.15 4.64 0 4.24 0 8.52.06 12.76.05 6.35.28 12.72.44 19.07.15 5.91 9 5.94 9.19 0z" fill="#2163c4" data-color="1"/>
        <path d="M378.94 246.09c.16-7.14.39-14.3.44-21.45 0-4.85.1-9.7.05-14.55 0-1.62 0-3.4-.14-5-.06-.88-.29-4.15-.29-2.15 0-6-9.31-6-9.31 0 0-2-.22 1-.29 1.93-.12 1.56-.13 3.22-.15 4.79-.06 5 0 10 .06 15 0 7.15.28 14.32.44 21.47.13 5.91 9.06 5.94 9.19 0z" fill="#2163c4" data-color="1"/>
        <path d="M395.64 243.44c.16-6.7.39-13.41.44-20.12 0-4.55.11-9.1.06-13.65 0-1.52 0-3.2-.15-4.72-.07-.91-.29-4-.29-2 0-6-9.31-6-9.31 0 0-2-.22 1.12-.29 2-.11 1.4-.13 2.88-.15 4.28-.06 4.67 0 9.38.06 14.05.05 6.71.28 13.44.44 20.14.14 5.92 9.05 5.94 9.19 0z" fill="#2163c4" data-color="1"/>
        <path d="m246.77 395.12.32-84.54c.17-44.73.43-89.47.15-134.2 0-7.47 0-15-.16-22.43 0-2.08-.09-4.16-.16-6.24 0-.54 0-.85-.07-1.39-.07-1.34 0-2.4 0-.4 0-6-9.31-6-9.31 0 0-3 0 .48-.07 1.53-.09 1.68-.12 3.25-.15 4.93-.13 6-.12 11.87-.16 17.83-.12 19.94 0 39.86 0 59.81q0 67.1.35 134.18l.12 30.92c0 5.92 9.17 5.92 9.19 0z" fill="#2163c4" data-color="1"/>
        <path d="m24.93 479.92 2.73-34.74q3.29-42 6.59-84 4-50.56 7.82-101.16c2.23-29.3 4.58-58.6 6.68-87.92.68-9.61 1.41-19.23 2.06-28.84.3-4.51.95-9.24.77-13.76v-.63c.45-6-8.87-6-9.32 0a.66.66 0 0 1 0 .14c.3-1.22.09-.75 0 .49-.07.61-.13 1.22-.19 1.83-.23 2.29-.47 4.58-.67 6.88-.76 8.46-1.41 16.93-2.09 25.4-2.24 28-4.29 56-6.4 84q-3.81 50.56-7.56 101.16-3.21 44-6.43 87.91l-2.11 28.85c-.33 4.51-1.11 9.24-1 13.76v.63c-.43 5.9 8.73 5.85 9.19 0z" fill="#2163c4" data-color="1"/>
        <path d="M9.2 479.76q1.37-17.4 2.71-34.82l6.51-83.65q3.93-50.61 7.74-101.24c2.21-29.2 4.53-58.39 6.59-87.59.68-9.64 1.4-19.28 2-28.92.3-4.52 1-9.26.77-13.79v-.63c.45-6-8.86-6-9.31 0a.71.71 0 0 1 0 .14c.4-1.61.06-.59-.05.49-.07.61-.13 1.22-.19 1.84-.23 2.29-.47 4.59-.67 6.89-.75 8.48-1.39 17-2.07 25.47-2.22 27.87-4.23 55.76-6.31 83.65q-3.72 50.61-7.43 101.24l-6.34 87.59q-1 14.46-2.09 28.91c-.33 4.52-1.11 9.26-1 13.8v.62c-.42 5.91 8.74 5.86 9.19 0z" fill="#2163c4" data-color="1"/>
        <path d="M490.84 484.51c6.07-1.1 14.42-3.44 19-7.75 2.39-2.25-.11-6.06-3.1-5.33-3.26.8-6.55 2.62-9.54 4.14a29.24 29.24 0 0 0-8.28 5.65 2 2 0 0 0 1.92 3.29z" fill="#2163c4" data-color="1"/>
        <path d="M21.38 106.28c-.66 3.3-.19 6.65-.32 10-.14 3.69-.53 7.36-.71 11-.23 4.79 7.73 4.78 7.44 0a70.67 70.67 0 0 0-1.61-11.11c-.77-3.44-1.2-7-2.8-10.2a1.1 1.1 0 0 0-2 .26z" fill="#2163c4" data-color="1"/>
        <path d="M2.33 483.82c6.11 1.69 12.19.89 18.42.75 5.28-.12 5.26-8.44 0-8.19A63.68 63.68 0 0 0 2.33 480a2 2 0 0 0 0 3.86z" fill="#2163c4" data-color="1"/>
        <path d="M76.37 417.13c4.81 18.22 24.7 22.38 41.13 22.74 14.12.31 38.63-2.78 44.06-18.77a2.44 2.44 0 0 0-3.54-2.72c-5.51 3.55-10.31 7.22-16.68 9.32-7.14 2.35-14.59 2.89-22.06 2.9-14 0-30.73-2.23-39-15.11a2.13 2.13 0 0 0-3.88 1.64z" fill="#2163c4" data-color="1"/>
        <path d="M84.55 405.71c3.32 14.58 18.72 18.4 31.8 18.92 12 .47 32.76-1.92 37-15.74a2.44 2.44 0 0 0-3.54-2.72c-4.51 2.64-8.51 5.5-13.59 7.12-5.85 1.87-12 2.15-18.1 2.12-10.62-.06-23.09-2-29.72-11.34a2.13 2.13 0 0 0-3.88 1.64z" fill="#2163c4" data-color="1"/>
        <path d="M161.22 419.28c-.62-2.54-1-4.84-2.21-7.2a29.79 29.79 0 0 0-4.41-6.31c-2.2-2.37-5.47 1.08-3.49 3.49 1.47 1.8 2.94 3.53 4.32 5.4s2.93 3.47 4.07 5.34a.94.94 0 0 0 1.72-.72z" fill="#2163c4" data-color="1"/>
        <path d="M79 417.66a70.54 70.54 0 0 0 4.2-5.75c1.45-1.94 4-3.48 5-5.62.88-1.8-.58-4.16-2.72-3.53-2.7.79-4.64 3.76-6.13 6s-2.73 5.35-2.54 8a1.3 1.3 0 0 0 2.19.9z" fill="#2163c4" data-color="1"/>
        <path d="M83.46 127.32c-1.46 2.73-1.42 6.73-1.81 9.77a57.94 57.94 0 0 0-.7 6.82c0 2.64 3.7 2.49 4 0 .25-2.13.21-4.29.27-6.43.1-3.12.86-6.86.18-9.91a1.07 1.07 0 0 0-1.94-.25z" fill="#2163c4" data-color="1"/>
        <path d="M88.74 128.61c-.53 2.46-.21 5.31-.23 7.81s-.38 5.57.48 8c.58 1.67 3.32 2 3.74 0 .52-2.55-.15-5.35-.51-7.92s-.39-5.51-1.25-7.9c-.36-1-2-1.2-2.23 0z" fill="#2163c4" data-color="1"/>
        <path d="M82.51 145.12a27.76 27.76 0 0 0 3.33 1.13c1.14.28 2.28.51 3.43.76 2.93.65 4.13-3.94 1.23-4.46a25.6 25.6 0 0 0-3.91-.35c-1.24 0-2.47.14-3.69.1-1.72-.06-1.83 2.28-.39 2.82z" fill="#2163c4" data-color="1"/>
        <path d="M85.27 417.16c2-13.55 1.1-28 1.31-41.67.35-22.35.73-44.69 1-67q.7-66.67 1.19-133.35c.06-9.73-.09-19.46 0-29.19 0-3.66-5.66-3.66-5.68 0-.21 27-.67 54.08-.88 81.12q-.57 70.53-.23 141.06c0 9.9 0 19.81.18 29.7.14 6.42-.14 13 .82 19.36a1.23 1.23 0 0 0 2.35 0z" fill="#2163c4" data-color="1"/>
        <path d="M151.46 127.32c-1.46 2.73-1.42 6.73-1.81 9.77a57.94 57.94 0 0 0-.7 6.82c0 2.64 3.7 2.49 4 0 .25-2.13.21-4.29.27-6.43.1-3.12.86-6.86.18-9.91a1.07 1.07 0 0 0-1.94-.25z" fill="#2163c4" data-color="1"/>
        <path d="M156.74 128.61c-.53 2.46-.21 5.31-.23 7.81s-.38 5.57.48 8c.58 1.67 3.32 2 3.74 0 .52-2.55-.15-5.35-.51-7.92s-.39-5.51-1.25-7.9c-.36-1-2-1.2-2.23 0z" fill="#2163c4" data-color="1"/>
        <path d="M150.51 145.12a27.76 27.76 0 0 0 3.33 1.13c1.14.28 2.28.51 3.43.76 2.93.65 4.13-3.94 1.23-4.46a25.6 25.6 0 0 0-3.91-.35c-1.24 0-2.47.14-3.69.1-1.72-.06-1.83 2.28-.39 2.82z" fill="#2163c4" data-color="1"/>
        <path d="M154.47 417.16c2-13.55 1.11-28 1.32-41.67.34-22.35.72-44.69 1-67q.69-66.67 1.18-133.35c.06-9.73-.09-19.46 0-29.19 0-3.66-5.65-3.66-5.68 0-.21 27-.66 54.08-.88 81.12q-.57 70.53-.23 141.06c0 9.9 0 19.81.18 29.7.14 6.42-.13 13 .82 19.36a1.23 1.23 0 0 0 2.35 0z" fill="#2163c4" data-color="1"/>
        <path d="M402.52 252.49c-2.91-4.92-8-10.84-14.29-10.28-9.57.86-13 15.44-14.74 23-2.72 11.63-4.11 23.48-7.22 35.07a222.31 222.31 0 0 1-12.44 35.35c-9.56 20.76-22.78 37.69-42.8 49.22-17.37 10-36 17.12-50.53 31.47-17.14 17-27.41 39.8-30.23 63.62-.67 5.62 9 7 9.94 1.35 3.39-19.93 10.37-38.84 24.09-54 12.18-13.49 27.89-21 43.76-29.22 18.51-9.64 34-22 45.21-39.78s18.57-38.31 23.66-58.74c2.91-11.7 3.83-24 7.16-35.5.7-2.45 2.77-12.8 5.74-12.28 1.93.34 4 3.69 5 5.26 3.06 4.8 10.6.47 7.66-4.47z" fill="#2163c4" data-color="1"/>
        <path d="M379.9 250.2c-6.44-4.23-14.1-7.58-21.78-8.52-13.8-1.71-21 8.67-24.88 20.66-2.57 7.88-3.77 16.15-5.69 24.2s-4.28 16.3-7 24.25c-5.21 15-12 29.73-21.26 42.73s-21.57 22.75-35.69 30.14c-13.64 7.14-28.28 12.43-41.24 20.84a104.31 104.31 0 0 0-30.05 29.73c-5.85 8.78-11.69 18.63-14.08 29-1.17 5.08-1.52 10.82 1.42 15.38 3.77 5.84 10.58 5.91 16.79 6.11 13.54.44 27.18.68 40.71 0 6.46-.33 6.56-10.2 0-10.13q-16.29.17-32.58-.07c-4.35-.06-10.2.72-14.42-.54-3.77-1.12-2.45-6.12-1.7-9 2.37-9.16 7.54-17.72 12.73-25.54a92.44 92.44 0 0 1 28.28-27.34c12-7.45 25.33-12.45 37.89-18.88s24.49-14.76 33.85-25.64c18.69-21.75 29.32-49.9 35.88-77.48 1.92-8.08 3.1-16.39 5.55-24.34 1.66-5.39 4.3-13.87 10.79-14.87 7.36-1.15 16 3 22.19 6.72 4.76 2.85 8.9-4.39 4.32-7.39z" fill="#2163c4" data-color="1"/>
        <path d="M259.81 479.44c7 3.38 13.53-4.05 16.76-9.57 5.21-8.88 7.62-18.72 14.34-26.81 10.65-12.84 28-18 41.82-26.66 31.88-20 45.09-55.69 54.92-90.3a441.42 441.42 0 0 0 11.76-52.69c.94-6.07-8.39-8.65-9.29-2.56-2.08 14.21-5.18 28.25-8.47 42.21-4 17.07-8.7 34.16-15.83 50.22-7 15.82-16.85 30.9-30.86 41.37-12.26 9.17-26.89 14.26-39.46 22.85-7.64 5.21-13.65 12.6-18.06 20.68-2.47 4.51-4.13 9.34-6 14.11-2 5-4.36 14.2-10.92 14.59-1.25.07-2 1.92-.69 2.56z" fill="#2163c4" data-color="1"/>
        <path d="M401.84 273.47c1.16-5.58 2.42-11.3 2.12-17-.27-5.4-8.71-5.43-8.43 0 .29 5.75 1.74 11.39 2.76 17 .32 1.79 3.19 1.74 3.55 0z" fill="#2163c4" data-color="1"/>
        <path d="M237.9 146.12c4.71 2.89 11.4 2.61 16.75 2.87 4.07.2 9.4.95 13.36-.23a4.25 4.25 0 0 0 0-8.13c-3.92-1.23-9.33-.54-13.36-.38-5.37.21-12-.12-16.75 2.79a1.8 1.8 0 0 0 0 3.08z" fill="#2163c4" data-color="1"/>
        <path d="M437.76 293.25c2.67-1 8.09-5.12 10.1-1.38 2.13 4-2.33 5.94-5 7.71-2.21 1.45-.85 5.05 1.83 4.34 6-1.59 11-8.59 7.26-14.42-1.75-2.73-4.13-3.93-7.37-3.27-3 .61-6.66 2.44-8.27 5.1-.56.91.38 2.34 1.48 1.92z" fill="#2163c4" data-color="1"/>
        <path d="M449.76 323.25c2.67-1 8.09-5.12 10.1-1.38 2.13 4-2.33 5.94-5 7.71-2.21 1.45-.85 5.05 1.83 4.34 6-1.59 11-8.59 7.26-14.42-1.75-2.73-4.13-3.93-7.37-3.27-3 .61-6.66 2.44-8.27 5.1-.56.91.38 2.34 1.48 1.92z" fill="#2163c4" data-color="1"/>
        <path d="M460.76 353.25c2.67-1 8.09-5.12 10.1-1.38 2.13 4-2.33 5.94-5 7.71-2.21 1.45-.85 5.05 1.83 4.34 6-1.59 11-8.59 7.26-14.42-1.75-2.73-4.13-3.93-7.37-3.27-3 .61-6.66 2.44-8.27 5.1-.56.91.38 2.34 1.48 1.92z" fill="#2163c4" data-color="1"/>
        <path d="M471.76 381.25c2.67-1 8.09-5.12 10.1-1.38 2.13 4-2.33 5.94-5 7.71-2.21 1.45-.85 5.05 1.83 4.34 6-1.59 11-8.59 7.26-14.42-1.75-2.73-4.13-3.93-7.37-3.27-3 .61-6.66 2.44-8.27 5.1-.56.91.38 2.34 1.48 1.92z" fill="#2163c4" data-color="1"/>
        <path d="M482.76 410.25c2.67-1 8.09-5.12 10.1-1.38 2.13 4-2.33 5.94-5 7.71-2.21 1.45-.85 5.05 1.83 4.34 6-1.59 11-8.59 7.26-14.42-1.75-2.73-4.13-3.93-7.37-3.27-3 .61-6.66 2.44-8.27 5.1-.56.91.38 2.34 1.48 1.92z" fill="#2163c4" data-color="1"/>
        <path d="M493.76 438.25c2.67-1 8.09-5.12 10.1-1.38 2.13 4-2.33 5.94-5 7.71-2.21 1.45-.85 5.05 1.83 4.34 6-1.59 11-8.59 7.26-14.42-1.75-2.73-4.13-3.93-7.37-3.27-3 .61-6.66 2.44-8.27 5.1-.56.91.38 2.34 1.48 1.92z" fill="#2163c4" data-color="1"/>
    </g>
</svg>
