<?xml version="1.0" encoding="UTF-8"?>
<svg data-bbox="-0.049 0.001 512.381 330.036" viewBox="0 0 512.34 330.04" xmlns="http://www.w3.org/2000/svg" data-type="color">
    <g>
        <path d="M71.25 156.65c-.33 9.31-.32 18.69-.12 28a.57.57 0 0 0 1.14 0c.2-9.31.2-18.69-.13-28a.45.45 0 0 0-.89 0z" fill="#fc8444" data-color="1"/>
        <path d="M195.47 112.65a173.12 173.12 0 0 0-.26 21 .52.52 0 0 0 1 0c.19-7 0-14 0-21a.4.4 0 0 0-.8 0z" fill="#fc8444" data-color="1"/>
        <path d="M194.87 59.32c0 4.2-.2 8.47.11 12.66a.44.44 0 0 0 .87 0c.13-4.2-.26-8.46-.42-12.66 0-.36-.57-.36-.56 0z" fill="#fc8444" data-color="1"/>
        <path d="M235.14 129.88c4.49 4.47 4 10.51 4 16.4 0 5.35-.11 10.7-.5 16-.06.77 1.15.77 1.2 0 .47-6.81.57-13.67.36-20.5-.15-5-.62-9.06-4.61-12.4-.31-.26-.76.16-.46.47z" fill="#fc8444" data-color="1"/>
        <path d="M238.74 193.65c.09 9.77 0 19.56.39 29.33a.62.62 0 0 0 1.23 0c-.08-9.78-.57-19.56-.92-29.33a.35.35 0 0 0-.7 0z" fill="#fc8444" data-color="1"/>
        <path d="M273.94 192.65c-.76 10.41-1.07 20.9-1.41 31.33 0 .89 1.34.88 1.38 0 .45-10.4.74-20.92.4-31.33a.19.19 0 0 0-.37 0z" fill="#fc8444" data-color="1"/>
        <path d="M273.7 137.24a102.14 102.14 0 0 0-1.65 23.41.62.62 0 0 0 1.23 0c.6-7.72.72-15.6.94-23.34 0-.29-.47-.37-.52-.07z" fill="#fc8444" data-color="1"/>
        <path d="M317.56 109.32c-.41 8.33-.76 16.67-1.28 25-.06 1 1.54 1 1.6 0 .46-8.32.64-16.67.32-25a.32.32 0 0 0-.64 0z" fill="#fc8444" data-color="1"/>
        <path d="M316.69 58c0 5.65-.11 11.34.1 17a.61.61 0 0 0 1.21 0c-.05-5.66-.41-11.34-.71-17a.31.31 0 0 0-.61 0z" fill="#fc8444" data-color="1"/>
        <path d="M440.7 153.65c-.12 9.91-.38 19.78-1.09 29.66-.07.9 1.32.89 1.39 0a220.74 220.74 0 0 0 .29-29.66.3.3 0 0 0-.59 0z" fill="#fc8444" data-color="1"/>
        <path d="M461.05 212c-.35 11.43-.05 22.9-.19 34.34a.82.82 0 0 0 1.64 0c.11-11.41.18-23-.84-34.34a.31.31 0 0 0-.61 0z" fill="#fc8444" data-color="1"/>
        <path d="M337.86 250c-.81 11.39-1.05 22.91-1.15 34.33a.76.76 0 0 0 1.51 0c.37-11.41.6-22.92.25-34.33a.31.31 0 0 0-.61 0z" fill="#fc8444" data-color="1"/>
        <path d="M174.32 255c-.33 9.66-.71 19.7.05 29.34a.74.74 0 0 0 1.47 0c.49-9.66-.16-19.69-.74-29.34a.39.39 0 0 0-.78 0z" fill="#fc8444" data-color="1"/>
        <path d="M50.34 216c-.65 9.57-1.23 19.42-.69 29a.74.74 0 0 0 1.48 0c.23-9.64-.16-19.35-.13-29a.33.33 0 0 0-.66 0z" fill="#fc8444" data-color="1"/>
        <path d="M154.35 12.32c-3.66.22-7.33.38-11 .7-.86.08-.84 1.44 0 1.33 3.69-.46 7.36-1.08 11-1.64.22 0 .17-.4-.05-.39z" fill="#fc8444" data-color="1"/>
        <path d="M149.66 15a29.53 29.53 0 0 0-4.3.24.55.55 0 1 0 .15 1.08 30.22 30.22 0 0 0 4.22-.81.26.26 0 0 0-.07-.51z" fill="#fc8444" data-color="1"/>
        <path d="M119.59 17.48c4.59-.3 9.2-.78 13.75-1.38.73-.1.76-1.26 0-1.18-4.61.53-9.25 1.18-13.82 2-.31.05-.24.57.07.55z" fill="#fc8444" data-color="1"/>
        <path d="M360.7 11.39c4.39.48 8.69 1.41 13.06 2 .55.08.81-.7.24-.85a73.57 73.57 0 0 0-13.3-1.86c-.45 0-.44.66 0 .71z" fill="#fc8444" data-color="1"/>
        <path d="M353.84 13.12c6.35.49 12.46 1.88 18.73 2.77a.39.39 0 0 0 .21-.76c-6-1.78-12.67-2.18-18.94-2.53-.33 0-.33.49 0 .52z" fill="#fc8444" data-color="1"/>
        <path d="M392.57 17.29c-4.11-.67-8.25-1.61-12.39-2a.52.52 0 0 0-.14 1c4.08.8 8.32 1 12.45 1.52.31 0 .39-.51.08-.56z" fill="#fc8444" data-color="1"/>
        <path d="M312.42 144.65c7.83-4.28 15.65-8.34 23.81-12 .48-.21.13-1-.35-.84a132.48 132.48 0 0 0-23.6 12.56.14.14 0 0 0 .14.24z" fill="#fc8444" data-color="1"/>
        <path d="M191.91 139.48c-5.45-3.21-10.89-6.55-16.44-9.58a.6.6 0 0 0-.61 1 151.94 151.94 0 0 0 16.8 9 .25.25 0 0 0 .25-.43z" fill="#fc8444" data-color="1"/>
        <path d="M469.06 274.54c14.76-7.63 32.51-17.46 39.33-33.61.3-.71-.84-1.14-1.22-.52-4.25 7.11-8.95 13.24-15.4 18.51-7.13 5.83-15.22 10.25-23.11 14.94a.39.39 0 0 0 .4.68z" fill="#fc8444" data-color="1"/>
        <path d="M36.87 268.35c-12-8.13-20.74-18.43-28.53-30.55a.74.74 0 0 0-1.27.74c6.44 12.64 17.45 23.09 29.45 30.41.39.23.71-.35.35-.6z" fill="#fc8444" data-color="1"/>
        <path d="M256.75 304c1.05-20.05.9-40.25 1-60.31q.25-48.1.27-96.19v-16c0-1.53.07-2.91 0-4.44 0-.58-.21-2.45-.21-1.45 0-3-3.84-3-3.84 0 0-1-.13.55-.16 1.06-.09 1.16-.08 2.24-.08 3.41v55.53c.07 32.07.11 64.12.72 96.18.14 7.38.12 14.79.51 22.16a.89.89 0 0 0 1.78 0z" fill="#fc8444" data-color="1"/>
        <path d="M279.94 200.78q12.69 0 25.38.05h17.26c1.92 0 3.69.08 5.61 0 .48 0 3.17-.24 2.17-.24 3 0 3-3.84 0-3.84 1 0-1.52-.21-2-.24-1.86-.1-3.67 0-5.53 0h-42.91c-2.73 0-2.72 4.24 0 4.25z" fill="#fc8444" data-color="1"/>
        <path d="M348.94 200.78c30.91 0 61.6.05 92.51 0 4.37 0 8.91-.24 12.91-.24 3 0 3-3.84 0-3.84-30 0-61.6-.26-92.5-.22h-13c-2.74 0-2.64 4.25.1 4.25z" fill="#fc8444" data-color="1"/>
        <path d="M502.12 196.53c-5.52 0-11-.05-16.55 0-5.06 0-11.13-.93-16.07.32a1.93 1.93 0 0 0 0 3.7c4.94 1.24 11 .31 16.07.32 5.52 0 11 0 16.55-.05 2.73 0 2.74-4.24 0-4.25z" fill="#fc8444" data-color="1"/>
        <path d="m247 200.65 18.48.1c2.7 0 2.7-4.2 0-4.19l-18.48.09a2 2 0 0 0 0 4z" fill="#fc8444" data-color="1"/>
        <path d="M181.11 199.54c16.63 1 33.25 1.11 50.25 1.11 2 0 2-4 0-4-17 0-33.58.07-50.2 1.11a.89.89 0 0 0 0 1.78z" fill="#fc8444" data-color="1"/>
        <path d="M44.15 196.86q-15.06-.08-30.12-.21c-2.57 0-2.58 4 0 4q15.06-.14 30.12-.2a1.8 1.8 0 0 0 0-3.59z" fill="#fc8444" data-color="1"/>
        <path d="M163.2 197.76c-30.3-.68-60.47-.64-90.77-.85-4.41 0-9.07-.09-13.07-.09-3 0-3 3.66 0 3.66 30 0 60.47-.47 90.77-.76 4.41 0 8.74-.08 13.14-.18a.89.89 0 0 0-.07-1.78z" fill="#fc8444" data-color="1"/>
        <path d="M267.32 289.57a5.09 5.09 0 0 0-3.78 0 3.56 3.56 0 0 0-2.16 2.76c-.26 2.61 3.32 4 5.44 3.48s4.35-3.14 2.58-5.21c-1.25-1.46-4.68-2.5-6-.73-.4.52.26 1.11.78 1 1.16-.23 2.24-.54 3.31.29s-.43 2.05-1.35 2.14c-.64.07-2.14-.3-2.13-1 0-1.24 2.33-1.68 3.17-1.6.66.06.77-1 .16-1.14z" fill="#fc8444" data-color="1"/>
        <path d="M247.32 289.57a5.09 5.09 0 0 0-3.78 0 3.56 3.56 0 0 0-2.16 2.76c-.26 2.61 3.32 4 5.44 3.48s4.35-3.14 2.58-5.21c-1.25-1.46-4.68-2.5-6-.73-.4.52.26 1.11.78 1 1.16-.23 2.24-.54 3.31.29s-.43 2.05-1.35 2.14c-.64.07-2.14-.3-2.13-1 0-1.24 2.33-1.68 3.17-1.6.66.06.77-1 .16-1.14z" fill="#fc8444" data-color="1"/>
        <path d="M23.32 201.57a5.09 5.09 0 0 0-3.78 0 3.56 3.56 0 0 0-2.16 2.76c-.26 2.61 3.32 4 5.44 3.48s4.35-3.14 2.58-5.21c-1.25-1.46-4.68-2.5-6-.73-.4.52.26 1.11.78 1 1.16-.23 2.24-.54 3.31.29s-.43 2.05-1.35 2.14c-.64.07-2.14-.3-2.13-1 0-1.24 2.33-1.68 3.17-1.6.66.06.77-1 .16-1.14z" fill="#fc8444" data-color="1"/>
        <path d="M29.32 189.57a5.09 5.09 0 0 0-3.78 0 3.56 3.56 0 0 0-2.16 2.76c-.26 2.61 3.32 4 5.44 3.48s4.35-3.14 2.58-5.21c-1.25-1.46-4.68-2.5-6-.73-.4.52.26 1.11.78 1 1.16-.23 2.24-.54 3.31.29s-.43 2.05-1.35 2.14c-.64.07-2.14-.3-2.13-1 0-1.24 2.33-1.68 3.17-1.6.66.06.77-1 .16-1.14z" fill="#fc8444" data-color="1"/>
        <path d="M489.42 202.71c.83-.08 3.16.36 3.17 1.6 0 .74-1.46 1.09-2.13 1-.89-.09-2.45-1.29-1.35-2.14s2.15-.52 3.31-.29c.52.09 1.18-.49.78-1-1.32-1.75-4.6-.74-5.92.61-2 2 .33 4.79 2.48 5.33s5.55-.81 5.46-3.31a3.52 3.52 0 0 0-2-2.86 5.08 5.08 0 0 0-3.94-.09c-.61.17-.52 1.2.15 1.14z" fill="#fc8444" data-color="1"/>
        <path d="M483.42 190.71c.83-.08 3.16.36 3.17 1.6 0 .74-1.46 1.09-2.13 1-.89-.09-2.45-1.29-1.35-2.14s2.15-.52 3.31-.29c.52.09 1.18-.49.78-1-1.32-1.75-4.6-.74-5.92.61-2 2 .33 4.79 2.48 5.33s5.55-.81 5.46-3.31a3.52 3.52 0 0 0-2-2.86 5.08 5.08 0 0 0-3.94-.09c-.61.17-.52 1.2.15 1.14z" fill="#fc8444" data-color="1"/>
        <path d="M267.32 133.57a5.09 5.09 0 0 0-3.78 0 3.56 3.56 0 0 0-2.16 2.76c-.26 2.61 3.32 4 5.44 3.48s4.35-3.14 2.58-5.21c-1.25-1.46-4.68-2.5-6-.73-.4.52.26 1.11.78 1 1.16-.23 2.24-.54 3.31.29s-.43 2.05-1.35 2.14c-.64.07-2.14-.3-2.13-1 0-1.24 2.33-1.68 3.17-1.6.66.06.77-1 .16-1.14z" fill="#fc8444" data-color="1"/>
        <path d="M247.32 133.57a5.09 5.09 0 0 0-3.78 0 3.56 3.56 0 0 0-2.16 2.76c-.26 2.61 3.32 4 5.44 3.48s4.35-3.14 2.58-5.21c-1.25-1.46-4.68-2.5-6-.73-.4.52.26 1.11.78 1 1.16-.23 2.24-.54 3.31.29s-.43 2.05-1.35 2.14c-.64.07-2.14-.3-2.13-1 0-1.24 2.33-1.68 3.17-1.6.66.06.77-1 .16-1.14z" fill="#fc8444" data-color="1"/>
        <path d="M456.29 153.27c-.84-.42-1.69-.81-2.54-1.21a6.6 6.6 0 0 0-4.55-.59 5.91 5.91 0 0 0-4.13 7.26 5.8 5.8 0 0 0 2.72 3.53c.85.4 1.7.79 2.54 1.21a6.27 6.27 0 0 0 4.55.59 5.91 5.91 0 0 0 4.12-7.26 5.86 5.86 0 0 0-2.72-3.53z" fill="#fc8444" data-color="1"/>
        <path d="M39.89 163.62C21.36 175-.84 193.19.55 217.43c.77 13.38 9.53 25.33 19.1 34.11 13.91 12.75 31.2 21.53 48.58 28.48 23.5 9.4 48.25 15.63 73.13 20.11 55.51 10 113.45 12.27 169.67 7.87 46.35-3.63 93.48-11.35 137-28.12 22.63-8.71 45.69-21.16 58.52-42.73 12.92-21.75 2-46.24-15.39-61.75a123 123 0 0 0-17.86-13c-6.5-4-12.45 6.24-6 10.2 17.08 10.42 40.42 30.55 31.69 53.44-4.22 11.08-14.52 20.42-23.83 27.33-8.25 6.12-18.07 10.5-27.56 14.28-40.09 16-83.32 23.78-126.12 28.07a683.48 683.48 0 0 1-153.44-2.28 447.76 447.76 0 0 1-73.8-15.38c-18.65-5.68-37.23-12.8-53.89-23-11.89-7.31-25.25-17.31-28.65-31.64-5.26-22.25 17.16-39.89 33.81-50 6.17-3.77.52-13.52-5.68-9.72z" fill="#fc8444" data-color="1"/>
        <path d="M60.21 153c-1.34.61-2.68 1.23-4 1.86a5.67 5.67 0 0 0-2.6 3.38 5.8 5.8 0 0 0 .57 4.35 5.72 5.72 0 0 0 3.38 2.6 6.35 6.35 0 0 0 4.36-.57c1.33-.63 2.67-1.24 4-1.85a5.66 5.66 0 0 0 2.6-3.38 5.66 5.66 0 0 0-4-7 6.48 6.48 0 0 0-4.36.57z" fill="#fc8444" data-color="1"/>
        <path d="M155.5 126.74c-9.22 1.8-18.47 3.48-27.71 5.16a286.78 286.78 0 0 0-48.93 13.83c-6.75 2.53-3.84 13.45 3 10.91a284.93 284.93 0 0 1 49-13.71c9.25-1.67 18.5-3.32 27.73-5.1 7.25-1.4 4.18-12.51-3.06-11.09z" fill="#fc8444" data-color="1"/>
        <path d="M219.41 120.44c-4.77.26-9.52.66-14.28 1a5.92 5.92 0 0 0-5.78 5.78c0 3 2.65 6 5.78 5.78 4.76-.32 9.51-.71 14.28-.94 7.45-.38 7.48-12 0-11.63z" fill="#fc8444" data-color="1"/>
        <path d="M270.36 119.48q-13.64-.15-27.28.17c-7.5.17-7.53 11.84 0 11.69q13.65-.28 27.28-.11c7.57.1 7.57-11.66 0-11.75z" fill="#fc8444" data-color="1"/>
        <path d="M307.86 121c-5.27-.33-10.54-.56-15.81-.79-7.61-.33-7.58 11.45 0 11.81 5.27.25 10.54.51 15.81.85 7.62.5 7.61-11.41 0-11.87z" fill="#fc8444" data-color="1"/>
        <path d="M434.42 143.93c-24.6-9.23-50.3-14.77-76.29-18.35-3.2-.44-6.33.78-7.3 4.15-.79 2.77 1 6.87 4.15 7.31 26 3.55 51.7 9.07 76.3 18.28 7.13 2.67 10.2-8.74 3.14-11.39z" fill="#fc8444" data-color="1"/>
        <path d="M502.06 218.52c1.7 8.52.8 17.8.06 26.39-.21 2.49-.3 4.14-1.33 6.07A49.76 49.76 0 0 1 490 264.59c-15.68 14.25-36.49 22.33-56.32 28.85-39.49 13-81 19.66-122.34 22.86a697.34 697.34 0 0 1-152.33-4.76c-40.25-5.8-82.92-14.68-118.4-35.52-10.54-6.2-22.66-14.73-27.4-25.83-1.73-4.05-1.65-6.78-1.7-11.45-.09-6.41-.62-12.82-.69-19.23-.07-6.59-10.32-6.61-10.25 0 .11 10.14-2 21.41 1 31.34 3.5 11.87 13.08 20.92 22.72 28.06 14 10.36 30.23 17.59 46.48 23.58 21.93 8.09 44.77 13.67 67.75 17.77 53.24 9.51 108.7 11.65 162.64 8.28 43.27-2.7 86.79-9.25 128.21-22.25 24-7.55 49.23-17 68-34.33 7.25-6.69 13.74-15.32 14.38-25.41s1.25-20.55-1.07-30.41c-1.31-5.63-9.74-3.22-8.62 2.38z" fill="#fc8444" data-color="1"/>
        <path d="M431 112.29q-.11 17.07-.2 34.15-.06 11.28-.13 22.54c0 3.87-.92 8.82 1.64 12a7.4 7.4 0 0 1-.94-2.43c0 4.43 7 4.43 7 0-1 .81-.8 1.62-1.13 2.43 2.53-3.12 1.59-7.91 1.6-11.68 0-7.63 0-15.26.06-22.9l.12-34.15c0-5.15-8-5.16-8 0z" fill="#fc8444" data-color="1"/>
        <path d="M383.3 25.81c16.36 2.55 37.58 5 43.8 23.28 4.85 14.27 3.77 30.8 3.85 45.66 0 5.18 8.13 5.19 8.06 0-.21-16.63 1.06-35.81-5.86-51.35-8.33-18.7-29.92-22-47.82-24.94-4.82-.8-6.86 6.6-2 7.35z" fill="#fc8444" data-color="1"/>
        <path d="M327.21 69.14c.1-11.86-1.83-26.47 4.82-36.85 3.29-5.13 7.66-9 13.81-9.89 6.88-1 14.28.38 21.11 1.2 4.84.58 4.76-7 0-7.56-7.77-1-15.9-2.45-23.71-1-6.88 1.25-12.26 5.46-16.38 11-9.18 12.22-7.45 28.71-7.28 43.17.06 4.91 7.58 4.92 7.63 0z" fill="#fc8444" data-color="1"/>
        <path d="M324.62 132.57c2.28-14.17 2.3-28.87 2.65-43.19.12-5-7.89-5-7.75 0 .4 14.32.28 29 2.63 43.19a1.29 1.29 0 0 0 2.47 0z" fill="#fc8444" data-color="1"/>
        <path d="m443.93 120-.18 29.15-.13 20a57.42 57.42 0 0 0 0 6.69c.07.67.52 4.33.53 2.42 0 4.42 6.85 4.43 6.88 0 0 1.93.41-1.25.5-1.88a52.79 52.79 0 0 0 .17-7.23q.06-10 .11-20L452 120c0-5.18-8-5.19-8.06 0z" fill="#fc8444" data-color="1"/>
        <path d="M315.81 81.89c.16-13.81-.37-27.82.6-41.6.65-9.41 3.42-16.91 10-23.75a27.52 27.52 0 0 1 16.06-8.46c7.48-1.09 15.29.06 22.71 1 10.5 1.29 20.94 3 31.34 4.87 9.94 1.82 20.07 3.16 28.82 8.59 8 5 12.71 12.15 15 21.22 4.55 18 3.32 37.15 3.63 55.51.09 5.22 8.23 5.24 8.13 0-.38-18.49.48-37.5-3.68-55.66-2-8.62-5.67-16.81-12.4-22.77-8.02-7.17-17.76-10.56-28.17-12.54Q390.39 5 372.79 2.5c-9.18-1.3-18.67-3-28-2.36a39.19 39.19 0 0 0-33.89 26c-3.23 9.56-2.72 20.28-2.61 30.23.08 8.51.21 17 .31 25.53.06 4.62 7.14 4.63 7.19 0z" fill="#fc8444" data-color="1"/>
        <path d="M313.47 138.06c1.07-12 1.4-24.13 2-36.19.22-4.26-6.83-4.27-6.63 0 .59 12.07.92 24.16 2 36.19a1.28 1.28 0 0 0 2.56 0z" fill="#fc8444" data-color="1"/>
        <path d="M57.67 244.23c1.82-22.8 2.11-45.76 2.38-68.62.13-10.55 0-21.14.33-31.68.32-9.11 1.83-18.5 9-24.88 5.15-4.58 11.79-4.39 18.27-3.81 10.79 1 21.57 2.46 32.25 4.26s22.31 2.82 31.29 9.35c6.58 4.79 9.28 11.8 10.61 19.52a170.52 170.52 0 0 1 1.91 22.57c.14 3.91-.55 8.65.44 12.48s6.67 3.73 7.71 0a5.56 5.56 0 0 0 .2-1.73h-8l-.39 87.2a75.09 75.09 0 0 0 .15 9.25c.1.83.23 1.7.41 2.53.41 1.93 0 .29 0 0 0 4.42 6.86 4.43 6.87 0 0-.72-.48 2.64 0 .31.13-.63.23-1.27.33-1.91a50.18 50.18 0 0 0 .35-7.56q0-11.83.08-23.66l.17-53.67v-12.4c0-5.19-7.73-4.94-8 .18 0 .61-.25.75.1-.25h7.71c.46 1 .08.22.09-.4 0-.91 0-1.94-.05-2.86-.07-3-.17-6-.3-8.95a185.84 185.84 0 0 0-2.16-22.6c-1.33-7.86-4.1-15.43-10-21.07-8.31-8-19-10.27-30-12.22-12.09-2.15-24.24-3.92-36.43-5.4-7.51-.91-15.52-2-22.69 1.06-19 8.17-18 31.94-17.83 49.12.36 28.61.14 57.37 2.54 85.9a1.29 1.29 0 0 0 2.57 0z" fill="#fc8444" data-color="1"/>
        <path d="M46.47 244.06c1.69-23.65 2.08-47.45 2.33-71.16.14-12.35-.13-24.76.45-37.1.54-11.42 3.65-20.71 12.45-28.4 6.25-5.46 14-6.87 22-6.64 12.55.35 25.22 2.57 37.57 4.68s26.18 3.28 37.09 10c9.08 5.63 13.6 14 15.6 24.22 1.82 9.33 2.31 18.93 2.66 28.4.13 3.51.21 7 .27 10.52 0 1.4-.24 3.44.26 4.81 1.09 3 5.64 4.28 7.32.95a4.38 4.38 0 0 0 .44-1.08l-7.87-1.07-.46 87.28a69.17 69.17 0 0 0 .2 9.22c.1.84.2 1.7.36 2.54.37 1.94 0 .28 0 0 0 4.42 6.86 4.43 6.88 0 0-.73-.44 2.64 0 .3.11-.64.2-1.28.29-1.92a51.55 51.55 0 0 0 .4-7.56l.1-23.68q.12-26.86.22-53.74l.05-12.42c0-4.38-7.08-5.63-7.87-1.07l.37-.82 7.33 1c.57 1.55.06.36.07-.53 0-1.17-.05-2.35-.07-3.52-.07-3.78-.17-7.55-.35-11.33a195.56 195.56 0 0 0-2.77-27.21c-1.88-10-5.91-19.31-13.94-25.91-10.83-8.89-23.82-11-37.2-13.37s-26.89-4.6-40.43-5.93c-8.9-.87-18.11-.9-26.33 3.08a41.55 41.55 0 0 0-19.49 21.2c-4.49 11.82-3.11 25.52-3 37.9.34 29.44.24 59 2.47 88.37a1.28 1.28 0 0 0 2.56 0z" fill="#fc8444" data-color="1"/>
        <path d="M165.37 283.67c2.78 2.7 6.18 4.63 10.19 4 3.53-.53 7.41-2.88 8.15-6.6a2.86 2.86 0 0 0-5.2-2.19c-1.45 2-2.6 3.18-5.12 3.51a17.51 17.51 0 0 1-6.9-.68 1.16 1.16 0 0 0-1.12 1.93z" fill="#fc8444" data-color="1"/>
        <path d="M44.47 244.91c2.06 4.54 11.08 5.56 13.19.58a1.43 1.43 0 0 0-1.21-2.12c-3.65-.14-7.26 2.18-10.91.47a.79.79 0 0 0-1.07 1.07z" fill="#fc8444" data-color="1"/>
        <path d="M311.07 149.16c1.51 4.53 11.11 6.28 13.38 1.64a1.91 1.91 0 0 0 0-1.92c-1.26-1.86-2.89-.28-4.52.09-2.77.62-5.4-.93-8.11-.8a.78.78 0 0 0-.75 1z" fill="#fc8444" data-color="1"/>
        <path d="M431.27 179.79c1 4.55 5.91 7.54 10.32 7.89 4.77.38 9.87-3.27 8.88-8.42-.43-2.26-4-2.68-5-.65-1.26 2.51-2.62 3.16-5.45 2.53-2.17-.48-4.57-1.19-6-3-1.13-1.38-3.09.15-2.77 1.61z" fill="#fc8444" data-color="1"/>
        <path d="M281.84 153.93c.17-3.8.06-7.73.52-11.51.79-6.52 7.67-11.1 11.94-15.61 9.65-10.22 18.84-20.85 28-31.48 9-10.42 18-20.89 27.14-31.19q8-9 16.32-17.85 4.81-5.11 9.71-10.15c3.24-3.33 7.41-6.49 9.49-10.67a3.46 3.46 0 0 0-4.7-4.7c-3.2 1.61-5.44 4.44-7.92 7q-4.42 4.53-8.77 9.11-7 7.39-13.83 14.94c-7.95 8.81-15.66 17.82-23.3 26.88-14.89 17.64-30.23 34.6-46.21 51.25-6.52 6.79-5.37 15.33-5.36 24 0 4.48 6.74 4.45 6.94 0z" fill="#fc8444" data-color="1"/>
        <path d="M270.8 175.44c.28-11.52.3-23.08.86-34.58.43-8.91 5.67-14.91 11.68-21.07 4.67-4.78 9.24-9.65 13.83-14.51 20.6-21.84 40.5-44.33 60.2-67q5.17-5.92 10.31-11.89c1.58-1.83 4.65-4.53 4.33-7.26l-1 2.43.09-.09c2.86-3.35-2-8.24-4.86-4.87l-.09.1 2.43-1c-2.58.08-4.42 2.38-6 4.16q-4.42 5.16-8.87 10.3-13.92 16.09-28 32c-10.93 12.38-21.88 24.73-33.1 36.86q-7.22 7.8-14.71 15.33c-5.06 5.07-11.24 11.33-13.16 18.4-2.06 7.63-1.26 16.6-1.17 24.46q.12 9.1.26 18.2c.07 4.47 6.82 4.46 6.94 0z" fill="#fc8444" data-color="1"/>
        <path d="M383.64 25.79c6.67-3.94 1-13.09-4.7-14.32-7.33-1.58-14.91 3.66-17.33 10.67-.95 2.76 2.4 4.93 4.73 3.64 3.08-1.72 5-6.24 8.67-6.82a4.73 4.73 0 0 1 4.55 1.46c1.22 1.36 1.08 2.59 1.46 4.31a1.8 1.8 0 0 0 2.62 1.06z" fill="#fc8444" data-color="1"/>
        <path d="m74.18 111.34.17 34.66q0 11.53.11 23.05c0 3.86-.76 8.78 1.79 12a7.25 7.25 0 0 1-.89-2.43c0 4.42 6.79 4.43 6.76 0 0 1.16-.63 2.36-.05.82a10.06 10.06 0 0 0 .57-3.44c.07-2.44 0-4.9-.06-7.34l-.16-23.18q-.12-17.07-.23-34.13c0-5.15-8-5.16-8 0z" fill="#fc8444" data-color="1"/>
        <path d="M127.9 18.46c-10 1.66-21.17 2.69-30.22 7.57-8.05 4.35-14.85 10.36-18.29 19-6.35 15.93-5 35-5.19 51.86-.08 5.19 8 5.19 8.06 0 .13-15.14-.92-31.41 3.34-46.1 5.66-19.51 27.16-22.29 44.33-25 4.82-.75 2.8-8.15-2-7.35z" fill="#fc8444" data-color="1"/>
        <path d="M193.65 69.14c.17-14.42 1.94-31-7.28-43.15-10.26-13.55-25.11-10.88-40.09-8.99-4.75.61-4.84 8.14 0 7.56 6.73-.81 13.77-2.12 20.57-1.62 6.39.47 10.94 4 14.35 9.31 6.66 10.36 4.72 25 4.82 36.85 0 4.91 7.57 4.92 7.63 0z" fill="#fc8444" data-color="1"/>
        <path d="M191.08 131.65c2.35-13.85 2.23-28.26 2.63-42.27.15-5-7.87-5-7.75 0 .35 14 .37 28.42 2.65 42.27a1.29 1.29 0 0 0 2.47 0z" fill="#fc8444" data-color="1"/>
        <path d="M61.22 118.86q.09 15.11.16 30.2.06 10.29.11 20.57c0 2.23-.14 4.54.07 6.75a27.12 27.12 0 0 0 .53 2.83c.11.58.09 1.58.08 0 0 4.42 6.9 4.43 6.88 0 0 2 .43-1.71.5-2.34a59.08 59.08 0 0 0 .06-7.29l-.13-20.57-.19-30.2c0-5.19-8.09-5.2-8.07 0z" fill="#fc8444" data-color="1"/>
        <path d="M204.61 81.89c.19-16.14 1.83-33.13-.74-49.11-2.47-15.3-15-29.39-30.57-32.06-8.08-1.39-16.3-.39-24.36.64q-17.67 2.24-35.22 5.39c-10.93 2-21.78 3.71-31.23 10A40 40 0 0 0 66.3 38c-6.44 19.35-4.8 41.19-5.22 61.28-.1 5.23 8 5.23 8.13 0 .28-16.45-.46-33.21 2.36-49.48 1.43-8.21 3.84-16.42 10-22.4 7.4-7.21 16.95-10 26.81-11.87 10.39-2 20.82-3.88 31.3-5.35 8.52-1.19 17.24-2.58 25.87-2.42a31.47 31.47 0 0 1 30.31 24.85c1.87 9 1.25 18.36 1.35 27.46l.24 21.86c.05 4.63 7.13 4.63 7.19 0z" fill="#fc8444" data-color="1"/>
        <path d="M202.32 136.65c1.12-11.56 1.45-23.18 2-34.78.21-4.27-6.86-4.27-6.63 0 .63 11.59 1 23.22 2 34.78a1.28 1.28 0 0 0 2.56 0z" fill="#fc8444" data-color="1"/>
        <path d="M340.34 178.17c0 1.38 0 2.76-.1 4.14l7.46-2 .49 1.43c-.33-5.1-8-5.21-8 0q.13 43.25.28 86.49a83.41 83.41 0 0 0 .2 9.49c.1.91.28 1.81.42 2.71.11.74.05 1.43.05.2 0 4.43 6.89 4.43 6.87 0 0 1.86.21-1.32.3-1.95a52.48 52.48 0 0 0 .29-7.83l-.11-23.51-.24-53.23c0-4.14 0-8.44-.05-12.44h-8a5.21 5.21 0 0 0 .61 2.65 4 4 0 0 0 7.46-2c.07-1.37.07-2.75.09-4.12.1-5.15-7.89-5.14-8 0z" fill="#fc8444" data-color="1"/>
        <path d="M456.13 244.23c1.82-23.46 2.68-47 3.21-70.52.25-10.66.82-21.43.27-32.09-.46-9-2.23-17.41-7.95-24.58-10.53-13.18-26.45-9.75-41.2-7.79q-16.79 2.22-33.44 5.34c-9.56 1.8-19.09 5.27-25.76 12.74-6 6.75-8 15.32-9.13 24a255.49 255.49 0 0 0-1.79 26.8c-.12 5.15 7.91 5.16 8 0 .13-6.59.36-13.18.91-19.75.59-7 1.18-14.75 4.47-21.12 4.21-8.14 12.89-12.7 21.53-14.64 10-2.26 20.29-3.79 30.47-5.18 12.9-1.77 31-7.22 40.25 5 5.16 6.82 5.78 15.42 5.94 23.68.17 9.8.1 19.62.09 29.42 0 22.87-.09 45.79 1.56 68.62a1.29 1.29 0 0 0 2.57 0z" fill="#fc8444" data-color="1"/>
        <path d="M327.28 179.09c0 1.08 0 2.16-.09 3.24l7.46-2v-.09c-1.89-3.55-7.47-1.86-7.46 2q.18 43.31.35 86.6a86.15 86.15 0 0 0 .2 9.51c.1.9.28 1.81.43 2.71.11.73.06 1.43.05.2 0 4.42 6.9 4.43 6.88 0 0 1.85.21-1.33.3-2a51.17 51.17 0 0 0 .27-7.83l-.12-23.54q-.15-26.64-.29-53.27l-.06-12.42-7.46 2 .05.09c2 3.71 7.22 1.71 7.46-2 .06-1.08.07-2.16.08-3.24.09-5.15-7.9-5.15-8 0z" fill="#fc8444" data-color="1"/>
        <path d="M469.32 244.06c1.61-24.23 1.53-48.53 1.47-72.8 0-12.88.81-25.95-.16-38.8-.83-11-4.15-20-11.84-28-14-14.7-33.2-11.62-51.42-9.08-13.58 1.89-27.25 4-40.66 6.87-10.83 2.34-21.66 7.91-28.41 16.92-6.52 8.7-8.22 19.69-9.4 30.22-1.1 9.87-1.46 19.81-1.68 29.73-.11 5.23 8.06 5.24 8.13 0 .18-15.4-.3-32.52 4.92-47.2 4-11.19 14-18.42 25.21-21.52 11.49-3.2 23.77-4.8 35.55-6.54 16.17-2.39 37.6-8 50.85 4.82 7.92 7.7 10.59 16.31 11.1 27.15.56 11.8.33 23.65.58 35.46.53 24.27 1.68 48.57 3.2 72.8a1.28 1.28 0 0 0 2.56 0z" fill="#fc8444" data-color="1"/>
        <path d="M345.74 281.74a17.48 17.48 0 0 1-6.89.68c-2.48-.34-3.7-1.56-5.13-3.51a2.86 2.86 0 0 0-5.2 2.19c.74 3.72 4.63 6.07 8.15 6.6 4 .6 7.41-1.33 10.19-4a1.16 1.16 0 0 0-1.12-1.93z" fill="#fc8444" data-color="1"/>
        <path d="M467.69 243.84c-3.8 2-8.95-.29-12.91-.47a1.42 1.42 0 0 0-1.21 2.12c2.66 4.92 12.66 4.22 15.19-.58a.79.79 0 0 0-1.07-1.07z" fill="#fc8444" data-color="1"/>
        <path d="M201.41 148.17c-2.72-.14-5.33 1.42-8.11.8-1.63-.37-3.26-1.95-4.52-.09a1.93 1.93 0 0 0 0 1.92c2.27 4.64 11.87 2.89 13.38-1.64a.78.78 0 0 0-.75-1z" fill="#fc8444" data-color="1"/>
        <path d="M79.2 178.18c-1.45 1.77-3.85 2.48-6 3-2.83.63-4.19 0-5.45-2.53-1-2-4.53-1.62-5 .65-1 5.15 4.11 8.8 8.88 8.42 4.42-.35 9.35-3.34 10.32-7.89.32-1.46-1.64-3-2.76-1.61z" fill="#fc8444" data-color="1"/>
        <path d="M237.88 155a72.33 72.33 0 0 0-1.07-18.11c-1.28-6.47-7.9-11.08-12.29-15.62q-14.65-15.2-28.24-31.27c-8.91-10.52-17.71-21.14-26.85-31.47q-8-9.06-16.28-17.89-4.82-5.13-9.7-10.18c-3.22-3.32-6.34-7.54-10.51-9.64a3.46 3.46 0 0 0-4.7 4.7c2.08 4.18 6.25 7.34 9.49 10.67q4.31 4.43 8.55 8.92 8.15 8.61 16 17.44c8.82 9.88 17.45 19.91 26.09 29.94 8.44 9.79 16.88 19.6 25.64 29.11 2.29 2.48 4.58 5 6.93 7.4 2.5 2.6 6.67 5.46 8.1 8.77 2.16 5 1.92 11.91 1.88 17.23 0 4.49 6.69 4.43 6.93 0z" fill="#fc8444" data-color="1"/>
        <path d="M248.61 173.34c.19-8.72.56-17.43.7-26.15.12-8.13.1-15.61-5-22.32-8.34-10.9-18.61-20.23-27.91-30.31-20-21.64-39.47-43.7-58.88-65.81q-5-5.68-9.94-11.36c-1.69-1.94-3.65-4.62-6.5-4.73l2.43 1-.08-.1c-2.9-3.34-7.75 1.54-4.86 4.87l.08.09-1-2.43c-.22 2.21 1.95 4.45 3.23 5.94 2.49 2.88 5 5.72 7.54 8.58q12.42 14.13 25 28.17c19 21.3 38.63 42.05 58.28 62.79a54.51 54.51 0 0 1 7.79 9.87c2.38 4.16 2.09 9.31 2.06 14q-.08 14 .21 27.94c.08 4.46 6.84 4.47 6.93 0z" fill="#fc8444" data-color="1"/>
        <path d="M282.79 221.43c.27-11.37.56-22.75.68-34.12 0-4-.73-9.28 1.19-13 1.35-2.61 4-3.91 6.48-5.33 14.78-8.66 29.39-17.59 44.06-26.42 4.4-2.65.2-9.72-4-6.85-14.49 9.87-30 18.23-45.09 27.09-3.44 2-6.69 4.29-8.54 8-2.18 4.31-1.91 9.41-1.94 14.1-.06 12.19.14 24.37.22 36.56 0 4.46 6.84 4.46 6.94 0z" fill="#fc8444" data-color="1"/>
        <path d="M271.62 221.18c.12-12.32.44-24.65.25-37-.08-5.1-.78-10.72 1-15.61s6.8-7.6 11.15-10.15c19.91-11.63 40.31-22.42 60.07-34.42 4.4-2.66.35-9.63-4-6.91-11.75 7.29-23.61 14.43-35.62 21.28-9.57 5.46-19.67 10.2-28.93 16.17-9.73 6.26-11.92 15-11.61 26 .39 13.52.5 27.05.79 40.58.1 4.46 6.9 4.47 6.94 0z" fill="#fc8444" data-color="1"/>
        <path d="M237 221.43c.08-12.19.28-24.37.22-36.56 0-4.69.24-9.79-1.94-14.1-1.85-3.66-5.09-5.93-8.54-8-15.13-8.81-30.61-17.23-45.09-27.09-4.2-2.86-8.41 4.2-4 6.85 14.67 8.83 29.28 17.76 44.06 26.42 2.28 1.33 4.83 2.55 6.25 4.9 2.23 3.69 1.38 9.28 1.42 13.41.12 11.37.41 22.75.68 34.12.1 4.45 6.91 4.47 6.94 0z" fill="#fc8444" data-color="1"/>
        <path d="M248.17 221.18c.28-13.29.39-26.58.77-39.86.32-11.34-1.55-20.28-11.59-26.75-9-5.82-18.86-10.45-28.19-15.75-12.27-7-24.37-14.26-36.36-21.7-4.38-2.72-8.45 4.24-4 6.91 19.76 11.95 40.15 22.76 60.07 34.43 4.38 2.57 9.26 5.12 11.15 10.15 1.74 4.64 1.11 10 1 14.88-.24 12.56.11 25.13.23 37.69 0 4.46 6.84 4.46 6.94 0z" fill="#fc8444" data-color="1"/>
        <path d="M265.45 222.16c1.14 3 4.58 4.27 7.56 4.19 2.27-.06 5.16-.22 7.1-1.47a1.77 1.77 0 0 0-.41-3.19c-2-.57-4 .07-6.06.31a12.67 12.67 0 0 1-3.74 0 23.52 23.52 0 0 0-3.7-.82.79.79 0 0 0-.75 1z" fill="#fc8444" data-color="1"/>
        <path d="M230.45 222.16c1.14 3 4.58 4.27 7.56 4.19 2.27-.06 5.16-.22 7.1-1.47a1.77 1.77 0 0 0-.41-3.19c-2-.57-4 .07-6.06.31a12.67 12.67 0 0 1-3.74 0 23.52 23.52 0 0 0-3.7-.82.79.79 0 0 0-.75 1z" fill="#fc8444" data-color="1"/>
        <path d="M132.43 24.47c.27-.91.41-2.17.67-2.89a11.58 11.58 0 0 1 2-2.36 10 10 0 0 1 2.5-.44 8.16 8.16 0 0 0 3.76-1c1.59-1.1 2.32-3.6.65-5.06-3.1-2.7-9.8-1.74-12.6 1.06-1.54 1.54-3.17 3.89-3.22 6.12a6.63 6.63 0 0 0 3 5.85 2.21 2.21 0 0 0 3.22-1.31z" fill="#fc8444" data-color="1"/>
        <path d="M177.54 126.58c3.4.83 6.92.38 10.38.26a2 2 0 0 0 0-4c-3.69-.16-7.31 0-10.65 1.68a1.14 1.14 0 0 0 .27 2.06z" fill="#fc8444" data-color="1"/>
        <path d="M201.56 133.45c4.5-.28 8.93-1.07 13.45-1.2 4.32-.11 8.68.47 13 .18a1.57 1.57 0 0 0 .42-3.07c-8.34-2.79-18.89-1.12-27.39.1-2.26.32-1.73 4.12.54 4z" fill="#fc8444" data-color="1"/>
        <path d="M237.29 121.38a6.64 6.64 0 0 0 6.8.16.76.76 0 0 0 0-1.29 6.64 6.64 0 0 0-6.8.16.57.57 0 0 0 0 1z" fill="#fc8444" data-color="1"/>
        <path d="M465.75 160.17c2 1.42 3.85 3 5.78 4.52s4.17 2.14 5.94 3.77a.44.44 0 0 0 .62-.62c-1.69-1.84-2.63-4.09-4.66-5.62a32.8 32.8 0 0 0-6.71-3.72 1 1 0 0 0-1 1.67z" fill="#fc8444" data-color="1"/>
        <path d="M334.42 122.77a38.06 38.06 0 0 0-5.74-.44c-2-.06-4.14-.58-6 .41a3 3 0 0 0 0 5.08c1.72 1.15 3.88.52 5.79.21a29.25 29.25 0 0 1 5.27-.53c2.64 0 3.36-4.24.64-4.73z" fill="#fc8444" data-color="1"/>
        <path d="M247.2 217.79c3.63 2.86 3.31 8.14-1.32 9.56a21.6 21.6 0 0 1-8 .51 18.62 18.62 0 0 1-6.76-1.63c-2.54-1.27-4.07-2.7-1.15-5a4.56 4.56 0 0 1 1.31-.53c2.64-.83 1.56-4.87-1.14-4.16-3.74 1-7.53 3.59-6.95 7.89.79 5.85 8.32 7.44 13.16 7.67s12.59-.33 15.35-5.07c2.55-4.36-.18-8-4.31-9.57-.17-.06-.33.2-.18.31z" fill="#fc8444" data-color="1"/>
        <path d="M182.2 279.79c3.63 2.86 3.31 8.14-1.32 9.56a21.6 21.6 0 0 1-8 .51 18.62 18.62 0 0 1-6.76-1.63c-2.54-1.27-4.07-2.7-1.15-5a4.56 4.56 0 0 1 1.31-.53c2.64-.83 1.56-4.87-1.14-4.16-3.74 1-7.53 3.59-6.95 7.89.79 5.85 8.32 7.44 13.16 7.67s12.59-.33 15.35-5.07c2.55-4.36-.18-8-4.31-9.57-.17-.06-.33.2-.18.31z" fill="#fc8444" data-color="1"/>
        <path d="M80.2 179.79c3.63 2.86 3.31 8.14-1.32 9.56a21.6 21.6 0 0 1-8 .51 18.62 18.62 0 0 1-6.76-1.63c-2.54-1.27-4.07-2.7-1.15-5a4.56 4.56 0 0 1 1.31-.53c2.64-.83 1.56-4.87-1.14-4.16-3.74 1-7.53 3.59-7 7.89.79 5.85 8.32 7.44 13.16 7.67s12.59-.33 15.35-5.07c2.55-4.36-.18-8-4.31-9.57-.17-.06-.33.2-.18.31z" fill="#fc8444" data-color="1"/>
        <path d="M282.2 217.79c3.63 2.86 3.31 8.14-1.32 9.56a21.6 21.6 0 0 1-8 .51 18.62 18.62 0 0 1-6.76-1.63c-2.54-1.27-4.07-2.7-1.15-5a4.56 4.56 0 0 1 1.31-.53c2.64-.83 1.56-4.87-1.14-4.16-3.74 1-7.53 3.59-6.95 7.89.79 5.85 8.32 7.44 13.16 7.67s12.59-.33 15.35-5.07c2.55-4.36-.18-8-4.31-9.57-.17-.06-.33.2-.18.31z" fill="#fc8444" data-color="1"/>
        <path d="M346.2 278.79c3.63 2.86 3.31 8.14-1.32 9.56a21.6 21.6 0 0 1-8 .51 18.62 18.62 0 0 1-6.76-1.63c-2.54-1.27-4.07-2.7-1.15-5a4.56 4.56 0 0 1 1.31-.53c2.64-.83 1.56-4.87-1.14-4.16-3.74 1-7.53 3.59-6.95 7.89.79 5.85 8.32 7.44 13.16 7.67s12.59-.33 15.35-5.07c2.55-4.36-.18-8-4.31-9.57-.17-.06-.33.2-.18.31z" fill="#fc8444" data-color="1"/>
        <path d="M469.2 240.79c3.63 2.86 3.31 8.14-1.32 9.56a21.6 21.6 0 0 1-8 .51 18.62 18.62 0 0 1-6.76-1.63c-2.54-1.27-4.07-2.7-1.15-5a4.56 4.56 0 0 1 1.31-.53c2.64-.83 1.56-4.87-1.14-4.16-3.74 1-7.53 3.59-6.95 7.89.79 5.85 8.32 7.44 13.16 7.67s12.59-.33 15.35-5.07c2.55-4.36-.18-8-4.31-9.57-.17-.06-.33.2-.18.31z" fill="#fc8444" data-color="1"/>
        <path d="M57.24 240.82c2.77 1.91 6.17 6 2.26 8.43a13.1 13.1 0 0 1-7.11 1.7 20.08 20.08 0 0 1-7.58-1.45c-2.28-1-5-2.61-2.41-5a5.46 5.46 0 0 1 1.87-.8c2.64-.83 1.56-4.87-1.14-4.16-3.93 1-8 4-6.87 8.54 1.42 5.89 9.62 7.07 14.61 7 4.42 0 11-1.6 13.23-6 2.43-4.88-2.93-7.52-6.72-8.65-.21-.07-.31.23-.14.34z" fill="#fc8444" data-color="1"/>
        <path d="M449.2 179.79c3.63 2.86 3.31 8.14-1.32 9.56a21.6 21.6 0 0 1-8 .51 18.62 18.62 0 0 1-6.76-1.63c-2.54-1.27-4.07-2.7-1.15-5a4.56 4.56 0 0 1 1.31-.53c2.64-.83 1.56-4.87-1.14-4.16-3.74 1-7.53 3.59-6.95 7.89.79 5.85 8.32 7.44 13.16 7.67s12.59-.33 15.35-5.07c2.55-4.36-.18-8-4.31-9.57-.17-.06-.33.2-.18.31z" fill="#fc8444" data-color="1"/>
    </g>
</svg>
