<?xml version="1.0" encoding="UTF-8"?>
<svg data-bbox="-0.002 0.001 511.761 210.32" viewBox="0 0 511.75 210.32" xmlns="http://www.w3.org/2000/svg" data-type="color">
    <g>
        <path d="M271 142.75c5.33 1.79 10.7 3.45 16.06 5.14.79.25 1.15-1 .34-1.25-5.4-1.52-10.8-3.06-16.23-4.47a.3.3 0 0 0-.17.58z" fill="#2163c4" data-color="1"/>
        <path d="M237.92 131.59c-7.38-2.24-14.58-4.84-21.81-7.49-.56-.2-1 .74-.41 1a129.44 129.44 0 0 0 22.09 7 .24.24 0 0 0 .13-.47z" fill="#2163c4" data-color="1"/>
        <path d="M223.08 141.23c-4.26-1.66-8.86-2.85-13.23-4.23-.71-.22-1 .83-.3 1.09a52.18 52.18 0 0 0 13.45 3.67c.32 0 .33-.43.07-.53z" fill="#2163c4" data-color="1"/>
        <path d="M274.65 158.54c3.26 1.22 6.46 2.53 9.7 3.8.5.2.84-.62.37-.87a40.19 40.19 0 0 0-9.9-3.53.31.31 0 0 0-.17.6z" fill="#2163c4" data-color="1"/>
        <path d="M262.49 171.91c-1.92-4.88-3.9-9.91-6.13-14.66-.23-.49-1-.14-.86.36a53.74 53.74 0 0 0 6.4 14.55c.19.29.73.1.59-.25z" fill="#2163c4" data-color="1"/>
        <path d="M254.91 173.15a10.08 10.08 0 0 0-1.21-3.61 32.78 32.78 0 0 0-2-4.47.55.55 0 0 0-1 .42 30 30 0 0 0 1.87 4 11.61 11.61 0 0 0 2.18 3.71.12.12 0 0 0 .2-.08z" fill="#2163c4" data-color="1"/>
        <path d="M234.34 175.16a30.57 30.57 0 0 0 2.25-4.85c.64-1.46 1.36-2.9 2-4.38.24-.6-.75-1-1-.44-1.49 2.81-3.24 6.38-3.66 9.54 0 .28.36.32.48.13z" fill="#2163c4" data-color="1"/>
        <path d="M227.44 167.78c1.47-2.92 3-5.83 4.39-8.76.31-.63-.6-1.18-.94-.56a61.3 61.3 0 0 0-4 9.08c-.12.33.41.55.57.24z" fill="#2163c4" data-color="1"/>
        <path d="M224.69 190.54a134.58 134.58 0 0 0-9.27 18.18c-.23.61.74 1 1 .44 3.22-5.91 5.89-12.21 8.84-18.26.19-.41-.38-.75-.61-.36z" fill="#2163c4" data-color="1"/>
        <path d="M263.19 190.73a171.62 171.62 0 0 1 7.1 17.6c.28.84 1.64.45 1.32-.37a177.79 177.79 0 0 0-7.94-17.51c-.17-.33-.64 0-.48.28z" fill="#2163c4" data-color="1"/>
        <path d="M255.92 124.92c27.76 9.17 55.65 17.93 83.51 26.76q66.32 21 132.62 42.11 15.27 4.85 30.52 9.7c1.12.35 1.59-1.4.48-1.75q-41.79-13.22-83.62-26.33-66.43-20.82-132.74-41.7-15.27-4.8-30.6-9.4c-.39-.12-.56.48-.17.61z" fill="#2163c4" data-color="1"/>
        <path d="M205.11 107.9c-9.37-3.4-18.92-6.41-28.46-9.3-.62-.19-.85.73-.27 1 9.35 3.48 19.09 5.86 28.6 8.83.31.1.43-.37.13-.48z" fill="#2163c4" data-color="1"/>
        <path d="M169.81 96.78c-12.13-4.68-24.95-8-37.33-11.93l-41.9-13.37Q55.23 60.17 19.93 48.73q-7-2.28-14.07-4.56c-1-.32-1.41 1.23-.43 1.55C46 58.93 86.49 72.1 127.23 84.62c14 4.31 28.13 9.48 42.46 12.6a.23.23 0 0 0 .12-.44z" fill="#2163c4" data-color="1"/>
        <path d="M488.4 192.34c5.78 1.82 11.38 4 17 6.28.7.29 1.22-.92.52-1.22a102.41 102.41 0 0 0-17.3-5.77.37.37 0 0 0-.2.71z" fill="#2163c4" data-color="1"/>
        <path d="M462 160a72.83 72.83 0 0 0-4.37 13.65.62.62 0 0 0 1.19.33c1.35-4.6 2.45-9.22 4-13.75.18-.53-.63-.73-.83-.23z" fill="#2163c4" data-color="1"/>
        <path d="M439.73 155.81c-1.07 3.48-2.37 7-3.18 10.53a.54.54 0 0 0 1 .29c1.22-3.44 2-7.09 2.94-10.6a.42.42 0 0 0-.8-.22z" fill="#2163c4" data-color="1"/>
        <path d="M91.38 50.36a56.81 56.81 0 0 0-3.18 7.91c-.19.62.8 1.07 1.07.45A57.59 57.59 0 0 0 92 50.61c.09-.35-.43-.6-.6-.25z" fill="#2163c4" data-color="1"/>
        <path d="M70.11 43.84c-.7 2.27-1.58 4.45-2.41 6.67-.27.71.91 1 1.14.31.74-2.23 1.27-4.54 1.84-6.83a.29.29 0 0 0-.57-.15z" fill="#2163c4" data-color="1"/>
        <path d="M18.19 45c-4.67-1.63-9.34-3.39-14.1-4.72a.58.58 0 0 0-.31 1.12C8.43 43 13.25 44.3 18 45.66c.45.13.62-.54.19-.69z" fill="#2163c4" data-color="1"/>
        <path d="M255.53 149.05c9.47 3 18.94 6.09 28.43 9.09 2.1.66 3-2.63.91-3.29-9.49-3-19-5.92-28.5-8.87-2-.61-2.79 2.45-.84 3.07z" fill="#2163c4" data-color="1"/>
        <path d="M211 134.06c3.94 2.43 8.86 3.61 13.22 5.05q7.08 2.37 14.17 4.69c2 .66 2.89-2.55.87-3.17q-7.14-2.16-14.28-4.28c-4.39-1.31-9.06-3.15-13.67-3.42a.61.61 0 0 0-.31 1.13z" fill="#2163c4" data-color="1"/>
        <path d="M101.11 6.67C92.64-2.41 77.34-2.55 70.43 8.3c-3.55 5.58-4.89 12.74-6.82 19s-4 12.36-5.66 18.63 7.34 8.49 9.46 2.61C70.63 39.63 73 30.36 75.8 21.3c1.45-4.74 2.87-10.18 8.06-12s9.94.66 14.88 1.41c2.32.36 4.15-2.16 2.37-4.07z" fill="#2163c4" data-color="1"/>
        <path d="M92.17 15.17c-3.29-2-8-2.64-10.72.58-2.1 2.44-2.83 6.84-3.72 9.85-2.43 8.21-5 16.42-7.2 24.7-.83 3.08 3.71 4.26 4.73 1.3 2.14-6.21 3.73-12.66 5.55-19 .92-3.18 1.85-6.36 2.73-9.55a21.57 21.57 0 0 1 .94-3.37c1.49-3.13 4.15-2.46 7.08-2.27a1.23 1.23 0 0 0 .61-2.27z" fill="#2163c4" data-color="1"/>
        <path d="M88.42 6.41c3.77 2.4 7.89 3.89 11 7.31 3.92 4.35 3.14 8.62 1.47 13.88-3 9.63-6.7 19.16-9.33 28.91-1.67 6.21 7.28 8.43 9.47 2.61 2.27-6.06 4.06-12.35 6-18.51s5.15-12.95 5.2-19.53c.09-11.23-11.6-20.57-22.6-19.22-2.32.29-3.42 3.15-1.23 4.55z" fill="#2163c4" data-color="1"/>
        <path d="M87.17 16.08c2.44 1.18 5.57 2 6.5 4.73.63 1.86.07 2.93-.52 4.66C92 28.74 91 32 89.87 35.29c-2.15 6.45-4.51 12.87-6.39 19.41-.88 3.07 3.68 4.24 4.74 1.3 3-8.37 5.6-16.91 8.37-25.37 1-3.07 3.17-7.45 2.16-10.68-1.32-4.24-7-6.2-11-6.15-1.15 0-1.75 1.73-.62 2.28z" fill="#2163c4" data-color="1"/>
        <path d="M469.66 122.8c-8.47-9.08-23.78-9.22-30.69 1.63-3.54 5.58-4.89 12.74-6.82 19s-4 12.37-5.65 18.64 7.34 8.48 9.46 2.61c3.22-8.91 5.61-18.19 8.38-27.24 1.45-4.74 2.88-10.18 8.06-12s9.94.66 14.89 1.41c2.32.36 4.15-2.16 2.37-4.07z" fill="#2163c4" data-color="1"/>
        <path d="M461 129.78c-4-2.41-8.9-2.3-11.3 2.09-1.59 2.92-2.37 6.6-3.38 9.74-2.77 8.64-5.82 17.25-8.22 26-.84 3.08 3.71 4.26 4.73 1.31 2.27-6.53 4.19-13.19 6.27-19.77 1.11-3.51 2.23-7 3.28-10.55.33-1.13.57-2.36 1-3.45 1.69-4.11 3.56-3.33 7-3.09 1.25.09 1.59-1.68.61-2.27z" fill="#2163c4" data-color="1"/>
        <path d="M457 122.53c3.77 2.41 7.9 3.9 11 7.31 3.92 4.36 3.14 8.63 1.48 13.89-3.06 9.63-6.71 19.16-9.33 28.91-1.67 6.2 7.28 8.43 9.46 2.61 2.28-6.06 4.06-12.35 6-18.52s5.15-12.94 5.2-19.52c.09-11.23-11.6-20.57-22.6-19.22-2.32.29-3.42 3.15-1.23 4.54z" fill="#2163c4" data-color="1"/>
        <path d="M456.12 130.73c2.53 1.23 6.79 2.39 6.71 5.9a14.92 14.92 0 0 1-1.17 3.55c-1.22 3.59-2.36 7.2-3.53 10.81-2.23 6.93-4.65 13.83-6.66 20.84-.88 3.07 3.69 4.24 4.73 1.3 3.16-8.86 5.78-17.94 8.63-26.9 1-3.07 3.13-7.55 2.65-10.82-.7-4.76-6.48-7-10.74-6.95-1.15 0-1.75 1.73-.62 2.27z" fill="#2163c4" data-color="1"/>
        <path d="M245.67 140.14c-8.77-1.44-16.19 4.43-16.93 13.45-.81 10 8.59 17.33 18.13 16s14.78-12.46 11.33-21.19-14.69-13.2-22.46-7.14c-1.91 1.5.56 4.61 2.58 3.34 6.36-4 15.41-1 16.9 6.84 1.2 6.34-3.52 13-10.24 13-14.77 0-13.73-21.33.37-21.94 1.29-.06 1.74-2.16.32-2.39z" fill="#2163c4" data-color="1"/>
        <path d="M230.18 148.84c-5.75 8.78-9.87 18.78-14.47 28.17s-9.37 19-13.85 28.54a2.93 2.93 0 0 0 2.5 4.35q9.09.25 18.19.42c3.87.06 3.87-5.94 0-6q-9.09-.15-18.19-.2l2.49 4.35c4.3-9.74 8.36-19.58 12.48-29.39s9-19.58 11.88-29.81a.57.57 0 0 0-1-.43z" fill="#2163c4" data-color="1"/>
        <path d="M241.15 166.18c-1.49 1.45-2.45 3.77-3.39 5.58-2.39 4.6-4.76 9.23-7 13.88-3.35 6.82-6.81 13.61-10.06 20.48-1.39 2.93 3 5.5 4.37 2.56.18-.39.24-.57.76-1.78.73-1.67 1.47-3.32 2.23-5 2.23-4.84 4.5-9.66 6.7-14.52 2.09-4.59 4.09-9.23 6.1-13.86.87-2 2.11-4.34 2.3-6.55a1.17 1.17 0 0 0-2-.82z" fill="#2163c4" data-color="1"/>
        <path d="M256.68 149.27c2.87 10.23 7.77 20 11.87 29.81s8.19 19.65 12.48 29.39q1.26-2.17 2.5-4.35-9.11.06-18.2.2c-3.85.06-3.87 6.06 0 6q9.1-.15 18.2-.42a2.93 2.93 0 0 0 2.5-4.35c-4.48-9.58-9.19-19-13.85-28.54s-8.72-19.39-14.47-28.17a.57.57 0 0 0-1 .43z" fill="#2163c4" data-color="1"/>
        <path d="M244.76 167c.19 2.1 1.34 4.32 2.17 6.23 2 4.74 4.1 9.48 6.24 14.18s4.36 9.45 6.54 14.18c.78 1.69 1.56 3.39 2.3 5.11.54 1.25.65 1.55.85 2 1.39 2.94 5.76.37 4.37-2.56-3.25-6.87-6.71-13.66-10.06-20.48-2.23-4.55-4.57-9-6.88-13.56-1-1.91-2-4.38-3.55-5.9-.67-.65-2.07-.22-2 .82z" fill="#2163c4" data-color="1"/>
        <path d="M230.11 153.8c-4-2.33-8.64-3.74-13-5.36-1.21-.46-3.21-1.69-4.51-1.7-2.49 0 1.4-.85-.33 1 .57-.6.78-2.43 1-3.2 2.32-7.31 4.41-14.69 6.73-22 1.27-4-5-5.7-6.27-1.73-2.57 8.1-5.42 16.11-8 24.23-1.89 6.05 2 7.58 7.23 8.89s10.64 3.1 16.08 3.55c2 .17 2.6-2.74 1-3.67z" fill="#2163c4" data-color="1"/>
        <path d="M264.72 169c3.62 3.05 10.11 4.58 14.59 5.88a3 3 0 0 0 3.59-2c2.87-9.85 5.66-19.7 8.9-29.43 1.06-3.17-4-4.55-5-1.38-3.18 9.74-6.75 19.39-9.53 29.25l3.59-2c-4.54-1.28-10.76-3.38-15.49-2.71a1.48 1.48 0 0 0-.65 2.45z" fill="#2163c4" data-color="1"/>
        <path d="M215.93 120.35c3 2.44 6.84 3.5 10.4 4.85 8.13 3.09 16.45 5.75 24.73 8.42 12.31 4 24.6 8 36.94 11.9 4.19 1.32 6-5.25 1.81-6.57-12.17-3.84-24.39-7.53-36.59-11.3-8.22-2.54-16.47-5.13-24.81-7.25-3.75-1-7.69-2.42-11.61-2.13-.94.07-1.76 1.35-.87 2.08z" fill="#2163c4" data-color="1"/>
        <path d="M503.14 207.36c-16.38-6.14-33-11.5-49.68-16.9q-59.37-19.25-118.85-38.11-71.85-22.92-143.81-45.53L65.68 67.26 24.74 54.32c-6.42-2-12.89-4.6-19.45-6.15-.29-.07-.58-.17-.86-.27-4.2-1.32-6 5.25-1.82 6.57q25 7.88 50 15.71l119 37.4c48 15.07 95.9 30.24 143.91 45.19 41.75 13 83.49 26.07 125.31 38.87 13.67 4.19 27.3 8.6 41.07 12.45 6.29 1.76 13.16 4.67 19.66 5.4a7.07 7.07 0 0 1 .88.22 1.22 1.22 0 0 0 .65-2.35z" fill="#2163c4" data-color="1"/>
        <path d="M8.86 34.38c16.38 6.15 33 11.5 49.68 16.9Q117.9 70.53 177.39 89.4q71.85 22.91 143.8 45.53l125.13 39.56 40.93 12.94c6.42 2 12.9 4.6 19.46 6.14.29.07.58.18.86.27 4.19 1.33 6-5.25 1.81-6.56q-25-7.89-50-15.72l-119-37.4c-48-15.07-95.9-30.24-143.9-45.19C154.67 76 112.93 62.9 71.11 50.1c-13.67-4.18-27.29-8.6-41.06-12.44-6.3-1.76-13.16-4.67-19.67-5.4a6.56 6.56 0 0 1-.87-.26 1.22 1.22 0 0 0-.65 2.35z" fill="#2163c4" data-color="1"/>
        <path d="M504.12 209.21c1.88-2.21 2.88-5.05 3.88-7.75a67.66 67.66 0 0 0 3.34-9.79c.63-3-3.5-5.07-5.14-2.17a43 43 0 0 0-3.51 9.83c-.79 2.95-1.52 6.19-1 9.23a1.47 1.47 0 0 0 2.45.65z" fill="#2163c4" data-color="1"/>
        <path d="M7.49 32.66c-3.55 5-6 11.7-7.39 17.63-.93 4 4.8 5.54 6.15 1.69 2-5.72 3.5-12.7 3.16-18.8a1 1 0 0 0-1.92-.52z" fill="#2163c4" data-color="1"/>
    </g>
</svg>
