<?xml version="1.0" encoding="UTF-8"?>
<svg data-bbox="-0.015 -0.004 743.522 661.057" viewBox="0 0 743.46 661.06" xmlns="http://www.w3.org/2000/svg" data-type="color">
    <g>
        <g>
            <path d="M743.23 517q-.88-12.37-1.78-24.76l-3.24-45.12-4.3-60q-2.45-34-4.88-68-2.52-35.16-5-70.34l-4.82-67.16-4.1-57q-1.48-20.76-3-41.52c-.47-6.58-.93-13.16-1.42-19.74a15.8 15.8 0 0 0-8.93-13.26 13.41 13.41 0 0 1 .9 3 14.25 14.25 0 0 1-.88 10.9c.05.29.1.59.13.89s0 .61.07.92l.48 6.77q1.11 15.39 2.21 30.79 1.77 24.48 3.52 49l4.41 61.43 4.89 68.14q2.49 34.54 5 69.09l4.62 64.31 3.87 53.93q1.35 18.71 2.69 37.42c.37 5.12.88 10.25 1.1 15.37.19 4.16-1.68 9.32-5.83 11a7.11 7.11 0 0 1-1.49.39l-.31.07a.93.93 0 0 0-.28 0 11.45 11.45 0 0 1-1.17 0 10.85 10.85 0 0 1-4.7-1.85 13.13 13.13 0 0 1-5.42-9.77q-.46-6.6-.94-13.19-1.29-17.88-2.57-35.74-1.89-26.27-3.77-52.54-2.28-31.78-4.57-63.59-2.48-34.44-4.94-68.9l-4.92-68.45-2.25-31.3a8 8 0 0 1 0 1c-1.69 14.36-4.8 28.56-4.94 43.06a13.58 13.58 0 0 1-.47 3.42l1.08 15 5.06 70.55q2.44 34.08 4.9 68.14l4.32 60.17q1.63 22.94 3.29 45.89l1.83 25.52.24 3.32c1.86 19.46 32.06 17.94 36.24.56a24.74 24.74 0 0 0 .07-7.82z" fill="#f58348" data-color="1"/>
            <path d="m691.46 186.6-.47-6.54c-.08 1.38-.17 2.77-.26 4.16a9.11 9.11 0 0 1 .73 2.38z" fill="#f58348" data-color="1"/>
            <path d="M636 654.31c-6.58-.62-10.1-6.76-9.58-12.87.13-1.53.28-3.06.43-4.58l2-21.07 7.5-79.73 10.53-112q5.79-61.44 11.56-122.88L669 188.92q3.76-40.12 7.54-80.25l2-21.08c.7-7.52 1-14.76-5.78-20.21-5-4-11.13-3.85-17.11-4.28l-24.95-1.77L542.28 55l-118.45-8.42L303.58 38l-96.34-6.86c-14.81-1.06-29.63-2.24-44.45-3.17-8-.5-15.83 2.75-19.62 10.12a24.12 24.12 0 0 0-1.91 6.26q-1.66 7.91-3.32 15.8-7.5 35.81-15 71.59l-22.42 106.92-25.35 120.91q-11.76 56.12-23.53 112.24-8.72 41.55-17.42 83.11l-4.92 23.46c-.72 3.42-1 7.69-2.78 10.81-3.52 6.32-11.75 5.69-15.66.13a12 12 0 0 1-1.74-9.4c.21-1.14.48-2.28.72-3.42l3.95-18.87q8-37.87 15.88-75.73 11.46-54.69 22.93-109.39 12.62-60.18 25.24-120.37 11.64-55.54 23.29-111.09l16.62-79.27 4.41-21.06c1.6-7.62 3.51-14.79 8.62-21.08C139 9.55 150.87 6 163.36 6.89l19.32 1.38 78.77 5.61L374.7 22l122.53 8.74 109 7.77 70.39 5c4.51.32 9 .6 13.53 1a11.19 11.19 0 0 1 10.55 12.23c0 .82-.15 1.64-.23 2.46q-2.19 23.31-4.39 46.63-4.3 45.84-8.62 91.68-5.46 58.1-10.9 116.28L665 436.64q-5.13 54.44-10.24 108.87l-7.14 75.83-1.78 18.93c-.57 6.11-1.41 14.54-9.83 14-2.12-.13-4.75.56-5.64 2.74a3 3 0 0 0 2.73 4c10.36.63 19.86-5.76 21.13-16.45.14-1.16.22-2.33.33-3.5l1.74-18.51q3.54-37.57 7.07-75.17 5.11-54.47 10.24-108.94l11.59-123.12 11.08-117.82q4.35-46.14 8.68-92.29l4.4-46.73c.07-.78.17-1.57.22-2.36.62-9.74-6.56-17.45-16.13-18.37-4-.37-8-.57-12-.85L612.32 32l-108.48-7.76-123.48-8.8L266.05 7.3l-80.16-5.72-19.5-1.39c-12.77-.91-25.1 1.24-35.53 9.3-9.76 7.51-14.67 18.11-17.13 29.82l-4 18.88L93.67 135q-11.52 55-23 110-12.78 60.68-25.5 121.36L21.86 477.53 5.4 556.07q-2.12 10-4.21 20c-.29 1.37-.59 2.75-.86 4.13a16.92 16.92 0 0 0 10.77 19.29 19.36 19.36 0 0 0 25.38-13.78c.26-1.11.47-2.24.71-3.36l3.93-18.75q8-38.36 16.09-76.72 11.52-55 23.06-110Q93 316.15 105.73 255.44 117.37 199.9 129 144.35l16.39-78.21q2.09-9.89 4.15-19.77c1.18-5.61 3-11.87 9.92-11.71 14 .32 28 2 42 3l95.44 6.8 120.92 8.62 119.15 8.49L627.06 68l25.29 1.8c5.49.39 12-.1 15.63 4.81 3.3 4.4 2 10 1.57 15q-1.08 11.45-2.15 22.89l-7.83 83.21-10.77 114.53Q643 372 637.18 433.73q-5.2 55.45-10.43 110.89l-7.2 76.57q-.84 9-1.69 18c-.1 1.11-.23 2.22-.31 3.32A17.23 17.23 0 0 0 633.11 661c2.1.2 4.77-.61 5.64-2.74a3 3 0 0 0-2.75-3.95z" fill="#f58348" data-color="1"/>
            <path d="m139.49 434.35 22.34-12.62 35.59-20.1 8.14-4.6-4.39 1.18 15.06 1.65 35.89 3.95 43.51 4.79 37.59 4.13 12.36 1.36c1.94.22 3.92.56 5.87.65a2.3 2.3 0 0 1 .26 0c-.4-1.5-.8-3-1.21-4.51l-24 13.61-37.94 21.52-8.7 4.94 4.39-1.18-14.59-1.93-34.76-4.59-42.26-5.6-36.35-4.8c-5.91-.79-11.83-1.73-17.76-2.35h-.25c-1.94-.25-4.72.73-5.69 2.53s.9 2.94 2.51 3.15l9.11 1.21 23.22 3.07 31 4.1 32.92 4.36 28.58 3.73 17.95 2.38c1 .13 2.09.34 3.14.41 2.52.18 4.63-1.27 6.73-2.46l20.78-11.79L337 424.46l18.22-10.34.93-.53a2.86 2.86 0 0 0 1.55-2.83c-.32-1.19-1.7-1.55-2.76-1.67l-8.85-1-22.59-2.49-30.6-3.37-33-3.63-29.35-3.23-20.36-2.24-4.92-.54-.82-.09a8.77 8.77 0 0 0-4.95 1.5l-17.44 9.85-28.27 16-18.93 10.7-1 .54c-1.47.83-2.29 3-.61 4 1.94 1.09 4.49.24 6.24-.74z" fill="#f58348" data-color="1"/>
            <path d="m180 352-4.88-68q-2.52-35.17-5.05-70.34-2.42-33.58-4.82-67.16-2.06-28.51-4.1-57-1.49-20.76-3-41.53c-.45-6.26-.88-12.52-1.35-18.78a11.23 11.23 0 0 1-8.34 7.28c0 .32.05.65.07 1q1.11 15.39 2.21 30.78 1.77 24.5 3.52 49l4.41 61.44 4.89 68.13q2.49 34.54 5 69.1 2.3 32.15 4.61 64.3 1.11 15.36 2.21 30.72l8.51-4.81Q181.91 379 180 352z" fill="#f58348" data-color="1"/>
            <path d="m154.3 385.19-4.56-63.59-5-68.9-4.92-68.46L135.4 122l-1.05-14.63a11.89 11.89 0 0 1-1.79 2.85 12.81 12.81 0 0 1-3.05 6.6c-.11.2-.24.4-.36.6a13.79 13.79 0 0 1-2.28 9.12l1.59 22.19q2.4 33.35 4.79 66.69l5.06 70.55q2.46 34.07 4.9 68.14l4.32 60.16q.42 5.92.85 11.84l8.51-4.81q-1.29-18.06-2.59-36.11z" fill="#f58348" data-color="1"/>
            <path d="m187.5 457-.21-3-8.95-1.18 1.34 18.64c.37 5.12.83 10.24 1.11 15.37.22 4.18-1.67 10.25-6.06 11.91-2.39.91-5.72-.74-7.61-2.11a13.63 13.63 0 0 1-5.53-10q-.48-6.58-1-13.19L159 450.32l-9-1.18c.27 3.66.53 7.33.79 11l1.83 25.53.24 3.32c.83 8.61 8.42 14 16.76 13.63 8.1-.35 17.38-4.76 19.43-13.27a23.8 23.8 0 0 0 .2-7.53q-.85-12.38-1.75-24.82z" fill="#f58348" data-color="1"/>
            <path d="m140.8 446.19.24-14.67-7.12 3.1 14.58 1.93 34.77 4.6 42.28 5.59 36.35 4.81 12.05 1.6c1.89.25 3.81.62 5.71.75h.24l-1.57-.77-.23 14.56 7.12-3.1-14.59-1.92-34.76-4.58-42.29-5.56-36.34-4.78c-5.92-.78-11.83-1.7-17.76-2.34a1.9 1.9 0 0 1-.25 0 9.38 9.38 0 0 0-6.14 1.65c-1.41 1-1.1 2 .59 2.23l14.59 1.92 34.73 4.58 42.29 5.56 36.34 4.78c5.91.78 11.83 1.74 17.77 2.34h.24a9.8 9.8 0 0 0 4.83-.95c.9-.39 2.27-1 2.29-2.16q.12-7.27.23-14.56c0-.58-1.3-.74-1.57-.78l-14.58-1.93-34.77-4.6-42.28-5.59-36.35-4.81c-5.91-.78-11.83-1.74-17.76-2.35h-.24a9.73 9.73 0 0 0-4.84.95c-.9.39-2.26 1-2.28 2.16l-.24 14.67c0 1.72 8.68.48 8.72-2.33z" fill="#f58348" data-color="1"/>
            <path d="m349 413.09-.32 16.91 1.84-1.74-23.92 12.79-38 20.28-8.66 4.67 6.85-.59q.12-7.27.23-14.56l-1 1.29 24-13.61q19-10.75 37.94-21.52l8.7-4.93c.31-.18 1.16-.78 1-1.3s-1.17-.59-1.53-.61a11.8 11.8 0 0 0-6.13 1.63l-9.6 5.45-21.81 12.37-23.48 13.32-14.64 8.3c-.34.2-.7.38-1 .59-1.24.79-1.07 1.57-1.09 2.83l-.2 12.07v1c0 .79 2.13.61 2.46.59a11.38 11.38 0 0 0 4.39-1.18l23.92-12.77 38-20.28 8.7-4.65c.67-.36 1.82-.82 1.84-1.74l.27-16.93c-.09-1.36-8.76-.2-8.76 2.32z" fill="#f58348" data-color="1"/>
            <path d="M173 414.1q.87-4.94 1.73-9.87l4.7-26.74 6.95-39.49 8.49-48.39 9.27-52.82q4.68-26.67 9.35-53.32 4.38-24.94 8.75-49.89 3.69-21 7.37-42l5.31-30.22c.83-4.78 1.8-9.55 2.51-14.35 0-.2.08-.41.11-.61.61-3.46-8.16-2-8.7 1l-1.74 9.87q-2.34 13.39-4.69 26.73l-6.93 39.53-8.48 48.4-9.27 52.83-9.36 53.32-8.76 49.92q-3.68 21-7.37 42-2.66 15.11-5.3 30.21c-.84 4.78-1.8 9.56-2.52 14.36 0 .2-.07.4-.1.6-.61 3.46 8.16 2 8.7-1z" fill="#f58348" data-color="1"/>
            <path d="m319.11 435.17 1.77-10.12q2.42-13.71 4.81-27.42l7.12-40.53 8.7-49.61 9.5-54.16q4.8-27.33 9.59-54.67l9-51.15q3.78-21.52 7.55-43.07 2.73-15.48 5.44-31c.86-4.89 1.88-9.79 2.58-14.71 0-.21.08-.42.11-.63.73-4.15-8.13-3-8.78.75-.59 3.37-1.19 6.75-1.78 10.12q-2.4 13.71-4.81 27.42l-7.11 40.52-8.7 49.62-9.51 54.16q-4.8 27.31-9.59 54.69l-9 51.14-7.56 43.07q-2.71 15.5-5.44 31c-.85 4.89-1.87 9.79-2.58 14.71 0 .21-.07.42-.11.63-.73 4.15 8.14 3 8.79-.75z" fill="#f58348" data-color="1"/>
            <path d="M215.65 36a65.54 65.54 0 0 0-1.33 11.42c-.23 6.2.05 13.37 4 18.52 4.94 6.52 15 5.68 21.24 1.75s9.7-10.68 12.24-17.24a71.14 71.14 0 0 0 3.78-13.26c.27-1.51-1.56-2-2.69-2l-9.32-.43a7.69 7.69 0 0 0-3.9.92c-.76.39-2.05 1.16-2.12 2.15a51 51 0 0 1-1.3 8.24c-.27 1.13-.57 2.26-.93 3.37-.18.57-.37 1.14-.58 1.7l-.33.85c-.06.16-.42 1-.21.51a22.48 22.48 0 0 1-1.76 3.19c-.29.43-.61.84-.94 1.25.53-.66 0 0-.15.14s-.44.43-.67.63c-.74.64 0 .12 0 0 0 .08-.57.35-.66.42-.4.32.87-.37.39-.19-.11 0-.2.11-.31.14-1 .32.59-.17.19-.05-.66.19 1.28-.18.5-.09s1.09 0 .49 0 1.08.2.42 0c0 0 .86.37.25.06-.43-.22 0-.2.15.14 0-.08-.21-.18-.27-.25s-.63-.88-.45-.55-.05-.13-.09-.23-.13-.32-.19-.49a9.36 9.36 0 0 1-.33-1.18 18.54 18.54 0 0 1-.35-2.68c0-.44 0-.89-.06-1.33v-1.18c.06-2.13.27-4.27.54-6.38.37-2.8.83-5.59 1.45-8.33.34-1.53-1.63-2-2.69-2l-7.99-.54c-1.92-.13-4.67.7-5.73 2.42s.95 2.61 2.4 2.71l7.94.56-2.69-2c-.58 2.57-1 5.18-1.37 7.8-.59 4.33-1.16 9.09-.21 13.4a6.57 6.57 0 0 0 2.83 4.47c2.62 1.53 6.32.71 8.89-.47 5.65-2.59 8.62-8.08 10.37-13.78a49.9 49.9 0 0 0 2.11-11.24l-6 3.08 9.32.44-2.69-2a71.13 71.13 0 0 1-2.64 10.08c-.48 1.44-1 2.86-1.57 4.26l-.45 1.08c-.3.71.15-.33 0 .1l-.24.54c-.34.73-.69 1.44-1.06 2.15a37 37 0 0 1-2.5 4.14c-.42.6-.88 1.16-1.32 1.73s.51-.52 0 0l-.3.33q-.45.48-.93.93c-.24.23-.48.44-.73.65-.06 0-.42.29-.42.34 0-.18.72-.5.28-.21L234 65c-.18.11-.37.2-.54.31-.62.39 1-.41.24-.12a3.88 3.88 0 0 0-1 .4s1.2-.36.55-.19l-.5.14c-1.24.33.88-.08-.05 0l-.52.06c-.58.08-.5-.19.24 0a6.71 6.71 0 0 0-1.1 0 1.83 1.83 0 0 1-.46 0c.88.35.44.07.1 0l-.94-.22c-.22 0-.69-.26.12.06-.19-.08-.38-.14-.56-.23a10 10 0 0 1-1.69-1c.66.45-.16-.16-.31-.3a10.36 10.36 0 0 1-.73-.75 11.33 11.33 0 0 1-1.11-1.47l-.26-.42c-.2-.35.27.54 0 0-.16-.33-.33-.66-.48-1a21.41 21.41 0 0 1-1.28-4.17 35.28 35.28 0 0 1-.62-4.45 43.1 43.1 0 0 1-.11-2.27v-1.86A65.83 65.83 0 0 1 224.36 35c.72-3.4-8.05-2.07-8.71 1z" fill="#f58348" data-color="1"/>
            <path d="M361.75 48.41a68 68 0 0 0-1.4 11.59c-.23 5.83 0 13 3.8 17.75 5.18 6.49 15.62 4.6 21.86.74 5.91-3.65 9.35-10.11 11.76-16.41a73.42 73.42 0 0 0 3.77-13.39c.08-.46-1.46-.48-1.49-.48l-9.32-.43a12.43 12.43 0 0 0-4.81 1c-.73.28-2.33.81-2.39 1.77a49 49 0 0 1-1.26 8c-1 4.33-2.71 9.57-6 12.44-.2.18-.42.33-.62.5-.39.32.33-.11-.13.08a2.22 2.22 0 0 0-.39.23s.69-.33.33-.17.88-.31.38-.15c-.24.09-.14.06.31-.08a5.77 5.77 0 0 1 .84-.23 6.42 6.42 0 0 1 1.72-.22c-.47 0 .71.11.16 0s.29.17 0 0a3.29 3.29 0 0 1-.42-.21c-.95-.58-1.44-2-1.72-3.28-.82-3.87-.35-8.06.14-11.93.25-2 .57-4 .94-5.92q.17-.93.36-1.86c-.05.24 0 0 .05-.23 0-.06 0-.13.05-.19.1-.48-.12-.73-.68-.77l-7.97-.56a13 13 0 0 0-6.06 1.18c-.53.24-3.12 1.86-1.14 2l7.94.57-.67-.78c-.59 2.63-1.05 5.28-1.42 8-.58 4.21-1.18 8.84-.22 13 .31 1.4.95 3 2.3 3.74a6.56 6.56 0 0 0 3.69.45 20.19 20.19 0 0 0 6.32-1.72c5.37-2.45 8.11-7.43 9.75-12.87a52.11 52.11 0 0 0 2.11-11.35L385 51l9.32.43-1.47-.43c-.05.27-.11.54-.16.81s-.09.43 0 .12c0 .17-.08.34-.11.51l-.3 1.3c-.57 2.43-1.26 4.83-2.05 7.2a59.12 59.12 0 0 1-3.59 8.58 29.41 29.41 0 0 1-5.13 7.28 19.74 19.74 0 0 1-1.64 1.39c-.65.51.28-.12-.42.3-.2.12-1.22.66-.68.4s-.15 0-.14 0l-.19.08.62-.24c-1.08.4 1.07-.24 0 0 1.42-.34.79-.17.46-.11-.54.09 1.12-.14.34 0a2 2 0 0 1-.43 0c.86.21.35 0 0 0h-.55c.64 0 .12 0 0 0-.33 0-.65-.09-1-.16a5.78 5.78 0 0 1-1.82-.62 9.28 9.28 0 0 1-2.9-2.22c-3.72-4.31-4.1-11-4-16.44a70.85 70.85 0 0 1 .71-8.85c.13-.93.28-1.85.44-2.77l.15-.78c0-.17.13-.65 0 0 .29-1.37-2.76-.74-3.42-.61a16.1 16.1 0 0 0-3.32 1c-.64.23-1.85.68-1.97 1.24z" fill="#f58348" data-color="1"/>
            <path d="m423.06 456.21 20.69-9.37L476.57 432l7.54-3.42-3.42.63 15.05 1.66 35.9 4 43.5 4.78 37.6 4.14 12.36 1.36c1.94.21 3.92.56 5.87.64h.26l-.24-5L610 451l-33.37 16.41-7.63 3.76 3.41-.63-14.9-1.93-35.74-4.61-43.26-5.6-37.29-4.83c-6-.78-12.08-1.72-18.14-2.35h-.26c-1.94-.25-4.72.72-5.69 2.53s.9 2.94 2.51 3.15l8.3 1.07 21.29 2.76 29.24 3.78 31.74 4.11 29.17 3.78 21.47 2.78c2.8.36 5.61.86 8.42 1.09 2.48.19 4.85-1.34 7-2.39l9.91-4.88 27.74-13.64 19.72-9.7 1-.5c1.11-.55 2.65-1.58 2.53-3s-1.53-1.91-2.77-2l-8.17-.9-21.13-2.33-28.84-3.17-31.7-3.49L515.2 427l-21.85-2.4c-3.12-.35-6.28-.86-9.42-1-2.26-.13-4.18.95-6.17 1.85l-9.39 4.25-27.85 12.62-20.09 9.11-1 .47c-1.36.61-3.47 2.39-2.17 4s4.23 1.03 5.8.31z" fill="#f58348" data-color="1"/>
            <path d="m425.34 467.51.24-14.67-7.12 3.16 14.9 1.93 35.78 4.63 43.27 5.6 37.28 4.83 12.31 1.54c1.93.25 3.88.62 5.82.75h.26l-1.57-.78-.24 14.57 7.13-3.07-14.9-1.92-35.78-4.6-43.26-5.57-37.29-4.8c-6-.78-12.08-1.7-18.14-2.34h-.26a9.43 9.43 0 0 0-6.15 1.65c-1.4 1-1.09 2 .6 2.23l14.91 1.92 35.77 4.6 43.27 5.57 37.29 4.8c6 .78 12.08 1.73 18.14 2.34h.26a9.71 9.71 0 0 0 4.83-.94c.9-.4 2.27-1 2.29-2.16q.1-7.29.23-14.57c0-.57-1.3-.74-1.57-.77l-14.9-1.93-35.74-4.63-43.27-5.6-37.28-4.83c-6-.78-12.08-1.74-18.14-2.35h-.26a9.72 9.72 0 0 0-4.84.94c-.9.4-2.27 1-2.28 2.16l-.24 14.67c-.07 1.7 8.61.42 8.65-2.36z" fill="#f58348" data-color="1"/>
            <path d="M628.47 444.07 628.2 461l1.84-1.75-21 9.54-33.24 15.09-7.68 3.48 6.86-.58q.1-7.29.23-14.57l-1.84 1.79 21-10.3 33.38-16.42 7.63-3.75c.74-.36 2.94-1.76 1.06-2.26s-4.45.31-6.08 1.11l-20.95 10.3L576 469.05l-7.63 3.75c-.68.33-1.83.83-1.84 1.74l-.24 14.57c0 .78 2.14.61 2.47.58a13.17 13.17 0 0 0 4.39-1.17l21-9.54 33.23-15.09 7.67-3.48c.69-.31 1.83-.85 1.84-1.74q.15-8.48.28-16.93c.02-1.35-8.66-.19-8.7 2.33z" fill="#f58348" data-color="1"/>
            <path d="m456.31 437.84.6-10.16q.81-13.83 1.63-27.66 1.2-20.29 2.39-40.58l2.94-49.84 3.22-54.59 3.24-54.92q1.51-25.6 3-51.21 1.29-21.7 2.56-43.42.93-15.55 1.84-31.11c.29-4.92.63-9.84.87-14.77v-.64c.21-3.65-8.53-2-8.71 1l-.6 10.17q-.75 13.89-1.57 27.69-1.2 20.3-2.39 40.59l-2.94 49.83q-1.62 27.3-3.22 54.6l-3.24 54.91q-1.51 25.61-3 51.21-1.29 21.72-2.57 43.42l-1.83 31.12c-.29 4.92-.63 9.84-.87 14.76v.64c-.22 3.66 8.53 2 8.71-1z" fill="#f58348" data-color="1"/>
            <path d="m602.39 458.91.65-10.42q.87-14.16 1.75-28.33 1.28-20.79 2.57-41.58l3.15-51.06q1.72-28 3.46-55.94 1.74-28.14 3.47-56.27 1.62-26.24 3.25-52.47l2.74-44.49 2-31.87c.32-5 .71-10.08.94-15.13v-.66c.27-4.32-8.55-3-8.79.75l-.64 10.41q-.87 14.18-1.75 28.34-1.29 20.79-2.57 41.58l-3.15 51.06q-1.74 28-3.46 55.94L602.54 315l-3.24 52.5q-1.37 22.25-2.75 44.49l-2 31.88c-.31 5-.7 10.08-.93 15.13v.65c-.27 4.33 8.55 3 8.78-.74z" fill="#f58348" data-color="1"/>
            <path d="M456.77 48.6a66.53 66.53 0 0 0-1.34 11.4c-.22 6.19.05 13.36 4 18.52 4.93 6.51 15 5.68 21.24 1.74s9.7-10.67 12.24-17.24a72.7 72.7 0 0 0 3.78-13.26c.26-1.51-1.56-2-2.69-2l-9.32-.43a7.69 7.69 0 0 0-3.9.92c-.76.39-2.05 1.16-2.12 2.16a50.92 50.92 0 0 1-1.31 8.23 42.961 42.961 0 0 1-1.5 5.07l-.33.85c-.07.16-.42 1-.22.52a21.88 21.88 0 0 1-1.75 3.18c-.3.43-.61.84-.94 1.25.53-.66 0 0-.15.14s-.44.43-.67.63c-.75.64 0 .13 0 0 0 .08-.57.35-.66.42-.4.32.87-.37.38-.19-.1 0-.2.11-.3.14-1 .32.59-.17.19 0-.66.19 1.28-.18.5-.09s1.09 0 .49 0 1.08.2.42 0c0 0 .85.37.25.06-.44-.22 0-.2.14.14 0-.08-.2-.17-.26-.25s-.64-.88-.45-.55-.05-.13-.09-.23-.13-.32-.19-.49a9.36 9.36 0 0 1-.33-1.18 16.12 16.12 0 0 1-.35-2.68c0-.44-.05-.89-.06-1.33v-1.18c.06-2.13.27-4.26.54-6.38.36-2.79.83-5.59 1.45-8.33.34-1.53-1.63-2-2.69-2l-7.94-.57c-1.92-.13-4.67.7-5.73 2.42s.95 2.61 2.4 2.71l7.94.57-2.69-2c-.58 2.57-1 5.19-1.38 7.8-.58 4.33-1.15 9.09-.2 13.4a6.57 6.57 0 0 0 2.83 4.35c2.62 1.53 6.31.71 8.89-.47 5.64-2.59 8.61-8.07 10.36-13.77a50.12 50.12 0 0 0 2.12-11.24l-6 3.07 9.32.44c-.9-.68-1.8-1.36-2.69-2a71.13 71.13 0 0 1-2.7 10.03c-.48 1.44-1 2.86-1.57 4.26l-.46 1.09c-.3.7.15-.34 0 .09-.08.18-.16.36-.25.54-.33.73-.68 1.44-1.05 2.15a37 37 0 0 1-2.5 4.14c-.42.6-.88 1.16-1.33 1.74s.51-.52 0 0l-.3.33c-.3.32-.61.63-.93.94l-.73.64c-.06.05-.42.29-.42.34 0-.18.72-.5.28-.21s-.58.4-.88.59-.36.2-.54.32c-.61.38 1-.42.24-.13a4.24 4.24 0 0 0-1 .4s1.2-.36.55-.19l-.49.14c-1.24.33.88-.08 0 0l-.53.06c-.57.08-.5-.19.25 0a6.8 6.8 0 0 0-1.11 0 1.79 1.79 0 0 1-.45 0c.88.35.44.08.1 0l-.94-.22c-.22 0-.69-.26.12.06l-.56-.22a10.38 10.38 0 0 1-1.69-1c.66.45-.16-.16-.31-.3a7.4 7.4 0 0 1-.73-.75 11.33 11.33 0 0 1-1.11-1.47l-.26-.42c-.2-.34.27.54 0 0-.16-.33-.33-.66-.48-1a21.44 21.44 0 0 1-1.29-4.17 34.76 34.76 0 0 1-.61-4.45c-.06-.75-.09-1.51-.12-2.27v-1.82a65.92 65.92 0 0 1 1.37-12.52c.63-3.42-8.14-2.08-8.8 1.01z" fill="#f58348" data-color="1"/>
            <path d="M602.87 61a68.12 68.12 0 0 0-1.4 11.55c-.23 5.83 0 13 3.8 17.75 5.18 6.49 15.62 4.6 21.86.74 5.91-3.65 9.34-10.11 11.76-16.41a73.42 73.42 0 0 0 3.77-13.39c.08-.45-1.47-.47-1.49-.48l-9.32-.43a12.43 12.43 0 0 0-4.81 1c-.73.29-2.33.81-2.39 1.77a50.39 50.39 0 0 1-1.26 8c-1 4.32-2.72 9.56-6 12.43-.2.18-.41.33-.62.5-.38.33.34-.11-.13.09a1.86 1.86 0 0 0-.38.22s.69-.33.33-.17.87-.31.38-.15c-.24.09-.14.06.31-.08a5.77 5.77 0 0 1 .84-.23 6.4 6.4 0 0 1 1.71-.22c-.47 0 .72.11.17 0s.29.17 0 0a10.34 10.34 0 0 1-2.18-3.49c-.82-3.87-.36-8.06.14-11.93q.38-3 .93-5.92c.12-.62.24-1.24.37-1.85v-.43c.11-.48-.11-.73-.67-.77l-7.94-.57a12.91 12.91 0 0 0-6.06 1.18c-.53.24-3.12 1.86-1.14 2l7.94.57-.67-.78c-.6 2.63-1 5.28-1.42 7.95-.58 4.21-1.18 8.84-.23 13 .32 1.4 1 3 2.31 3.74a6.56 6.56 0 0 0 3.69.45 20.19 20.19 0 0 0 6.41-1.64c5.37-2.45 8.11-7.43 9.75-12.87a52.72 52.72 0 0 0 2.11-11.35l-7.2 2.81 9.32.43-1.5-.47c0 .27-.1.54-.15.81s-.09.43 0 .12c0 .17-.07.34-.11.51-.09.44-.19.87-.29 1.3q-.87 3.64-2 7.2a59.12 59.12 0 0 1-3.59 8.58 29.41 29.41 0 0 1-5.13 7.28 19.74 19.74 0 0 1-1.69 1.39c-.65.51.28-.12-.43.3-.2.12-1.21.66-.67.4s-.15 0-.15 0l-.19.08.63-.24c-1.09.4 1.07-.24 0 0 1.42-.34.79-.17.45-.11-.53.09 1.12-.14.34 0a1.87 1.87 0 0 1-.42 0c.86.21.35 0 0 0h-.55c.64 0 .12 0 0 0-.33-.05-.66-.09-1-.16a5.7 5.7 0 0 1-1.82-.62 9.43 9.43 0 0 1-2.91-2.22c-3.71-4.31-4.1-11-4-16.44a70.85 70.85 0 0 1 .71-8.85c.13-.92.27-1.85.44-2.77l.15-.78c0-.17.13-.65 0 0 .29-1.36-2.75-.74-3.41-.61a15.92 15.92 0 0 0-3.32 1c-.65.28-1.85.7-1.98 1.28z" fill="#f58348" data-color="1"/>
        </g>
    </g>
</svg>
