<?xml version="1.0" encoding="UTF-8"?>
<svg data-bbox="93.14 59.711 615.495 689.369" xmlns="http://www.w3.org/2000/svg" viewBox="0 0 800 800" height="800" width="800" data-type="ugc">
    <g>
        <g clip-path="url(#5b1fa010-9003-474a-bd02-893ffea0330b)">
            <path fill="#F48120" d="M490.532 172.529c34.68-56.16 88.419-132.201 152.241-108.3 72.718 27.223 17.209 218.107-6.075 278.446"/>
            <path stroke-miterlimit="10" stroke-width="15" stroke="#000000" d="M490.532 172.529c34.68-56.16 88.419-132.201 152.241-108.3 72.718 27.223 17.209 218.107-6.075 278.446" fill="none"/>
            <path fill="#EA4974" d="M521.763 193.483c21.252-34.406 59.951-86.786 99.051-72.136 44.535 16.673 11.876 136.403-2.387 173.368"/>
            <path stroke-miterlimit="10" stroke-width="8" stroke="#000000" d="M521.763 193.483c21.252-34.406 59.951-86.786 99.051-72.136 44.535 16.673 11.876 136.403-2.387 173.368" fill="none"/>
            <path fill="#F48120" d="M313.088 172.529c-34.68-56.16-88.419-132.201-152.241-108.3-72.718 27.223-17.906 218.107 5.378 278.446"/>
            <path stroke-miterlimit="10" stroke-width="15" stroke="#000000" d="M313.088 172.529c-34.68-56.16-88.419-132.201-152.241-108.3-72.718 27.223-17.906 218.107 5.378 278.446" fill="none"/>
            <path fill="#EA4974" d="M278.705 192.512c-21.252-34.406-56.8-85.804-95.922-71.165-44.535 16.673-11.876 136.403 2.387 173.368"/>
            <path stroke-miterlimit="10" stroke-width="8" stroke="#000000" d="M278.705 192.512c-21.252-34.406-56.8-85.804-95.922-71.165-44.535 16.673-11.876 136.403 2.387 173.368" fill="none"/>
            <path fill="#F48120" d="M399.178 740.499a275.56 275.56 0 0 1-150.734-44.341l-2.284-1.507-2.764.137a137.36 137.36 0 0 1-6.851.171 134.745 134.745 0 0 1-134.23-147.594 134.749 134.749 0 0 1 26.957-68.823l1.645-2.147.114-2.707c2.763-70.582 33.664-149.854 82.652-212.055 53.374-67.75 119.263-105.091 185.495-105.091 65.512 0 130.841 36.621 183.941 103.138 48.68 60.968 80.083 139.315 84 209.555l.148 2.809 1.805 2.181a134.745 134.745 0 0 1 18.204 143.303 134.748 134.748 0 0 1-121.948 77.431c-3.198 0-6.486-.125-9.775-.354l-2.878-.217-2.421 1.588a275.56 275.56 0 0 1-151.076 44.523z"/>
            <path fill="#FFF7EE" d="M502.522 723.553c150.277-13.098 221.705-138.607 188.418-208.79-57.462-72.957-179.088-72.158-287.195-72.158-104.76 0-226.968-2.523-284.91 66.654-35.902 56.229-18.659 174.098 126.754 187.276 23.866 2.17 45.882 17.243 67.533 26.995l1.199.548c58.079 22.051 120.485 21.697 187.002 0a3.684 3.684 0 0 1 1.199-.525z"/>
            <path fill="#000000" d="M399.178 165.106c32.271 0 64.496 9.261 95.762 27.52 29.45 17.198 56.868 41.555 81.487 72.398 47.619 59.632 78.314 136.152 82.139 204.679l.308 5.641 3.609 4.351a126.177 126.177 0 0 1 17.031 134.184 126.18 126.18 0 0 1-114.186 72.504c-2.992 0-6.075-.114-9.136-.342l-5.709-.411-4.83 3.163a270.031 270.031 0 0 1-292.516.183l-4.693-3.027-5.55.286c-2.135.103-4.294.16-6.406.16A126.182 126.182 0 0 1 136.09 483.737l3.277-4.305.217-5.412c1.313-33.607 9.432-70.4 23.478-106.416a398.88 398.88 0 0 1 57.347-100.638c24.723-31.392 52.323-56.194 82.048-73.746 31.563-18.67 64.107-28.114 96.721-28.114zm0-17.129c-149.318 0-271.036 180.493-276.711 325.369a143.312 143.312 0 0 0 113.987 230.178c2.432 0 4.853-.069 7.262-.183a287.149 287.149 0 0 0 311.22-.16c3.426.24 6.852.377 10.392.377A143.313 143.313 0 0 0 675.661 468.79c-8.017-144.111-128.741-320.813-276.483-320.813z"/>
            <path stroke-miterlimit="10" stroke-width="15" stroke="#000000" d="M567.806 625.21c-23.684 9.444-53.488-9.489-66.563-42.251-13.075-32.762-4.454-67.031 19.241-76.509" fill="none"/>
            <path fill="#000000" d="M473.015 502.773c0 30.079-32.031 32.317-71.553 32.317s-71.553-2.284-71.553-32.317c0-30.032 31.974-54.47 71.553-54.47 39.579 0 71.553 24.381 71.553 54.47z"/>
            <path fill="#000000" d="M490.532 428.891c10.406 0 18.841-15.849 18.841-35.4s-8.435-35.4-18.841-35.4-18.842 15.849-18.842 35.4 8.436 35.4 18.842 35.4z"/>
            <path fill="#000000" d="M315.817 428.891c10.406 0 18.842-15.849 18.842-35.4s-8.436-35.4-18.842-35.4c-10.406 0-18.841 15.849-18.841 35.4s8.435 35.4 18.841 35.4z"/>
            <path stroke-miterlimit="10" stroke-width="15" stroke="#000000" d="M499.667 577.444c0 22.267-45.677 40.321-97.063 40.321-51.387 0-89.071-18.054-89.071-40.321" fill="none"/>
            <path stroke-miterlimit="10" stroke-width="15" stroke="#000000" d="M242.734 632.062c23.695 9.444 53.488-9.489 66.563-42.251 13.075-32.762 4.453-67.031-19.23-76.509" fill="none"/>
            <path fill="#754B22" d="M472.832 578.483a6.852 6.852 0 1 0 0-13.705 6.852 6.852 0 0 0 0 13.705z"/>
            <path fill="#754B22" d="M523.077 561.354c3.784 0 6.851-2.301 6.851-5.139s-3.067-5.138-6.851-5.138-6.852 2.3-6.852 5.138 3.068 5.139 6.852 5.139z"/>
            <path fill="#754B22" d="M559.618 609.315c3.784 0 6.852-2.556 6.852-5.71 0-3.153-3.068-5.709-6.852-5.709-3.784 0-6.851 2.556-6.851 5.709 0 3.154 3.067 5.71 6.851 5.71z"/>
            <path fill="#754B22" d="M336.372 577.341c3.469 0 6.28-2.301 6.28-5.139s-2.811-5.138-6.28-5.138c-3.469 0-6.281 2.3-6.281 5.138s2.812 5.139 6.281 5.139z"/>
            <path fill="#754B22" d="M294.485 578.398c.386-3.161-3.36-6.22-8.368-6.833-5.008-.612-9.382 1.455-9.768 4.616-.387 3.161 3.36 6.22 8.368 6.833 5.008.612 9.381-1.455 9.768-4.616z"/>
            <path fill="#754B22" d="M318.672 621.876c2.523 0 4.568-1.534 4.568-3.426 0-1.892-2.045-3.426-4.568-3.426-2.522 0-4.568 1.534-4.568 3.426 0 1.892 2.046 3.426 4.568 3.426z"/>
            <path fill="#754B22" d="M296.975 643.573a4.568 4.568 0 1 0 0-9.136 4.568 4.568 0 0 0 0 9.136z"/>
            <path fill="#754B22" d="M500.238 623.018a4.568 4.568 0 1 0 0-9.136 4.568 4.568 0 0 0 0 9.136z"/>
        </g>
        <defs fill="none">
            <clipPath id="5b1fa010-9003-474a-bd02-893ffea0330b">
                <path transform="translate(92 50)" fill="#ffffff" d="M616.639 0v700H0V0h616.639z"/>
            </clipPath>
        </defs>
    </g>
</svg>
