<?xml version="1.0" encoding="UTF-8"?>
<svg data-bbox="0 0 119.94 105.14" viewBox="0 0 119.99 105.14" xmlns="http://www.w3.org/2000/svg" data-type="color">
    <g>
        <g>
            <path d="M94.32 2.05a39.23 39.23 0 0 0-34 9.73A39.27 39.27 0 0 0 26.58 1.09C-.65 5.42-5.87 37.53 8.14 57.51c12.6 18 30.57 32.62 49.23 45.9l1.63 1.15 1.65-1.1C79.67 90.71 98.05 76.6 111.16 59c14.56-19.61 10.26-51.85-16.84-56.95z" fill="#e73628" data-color="1"/>
            <path d="M59 105.14a.59.59 0 0 1-.33-.11L57 103.88C26.79 82.37 14.76 68 7.66 57.85-.42 46.31-2.29 30.93 2.92 18.66 7.14 8.71 15.51 2.26 26.49.52A40.38 40.38 0 0 1 33 0a39.9 39.9 0 0 1 27.32 11A40 40 0 0 1 86.86.76a40.58 40.58 0 0 1 7.57.72c10.93 2.05 19.11 8.73 23 18.8 4.85 12.41 2.55 27.74-5.85 39-7.38 9.92-19.82 24-50.66 44.62l-1.6 1.1a.56.56 0 0 1-.32.14zM33 1.17a39.37 39.37 0 0 0-6.28.5C16.1 3.35 8.05 9.54 4 19.12c-5 11.72-3.11 27 4.62 38.06 7.05 10.05 19 24.34 49.1 45.76l1.29.91 1.32-.88c30.7-20.55 43.05-34.5 50.37-44.35 8-10.82 10.34-26 5.7-37.91C112.61 11 104.73 4.6 94.21 2.62a39.91 39.91 0 0 0-7.35-.69A38.85 38.85 0 0 0 60.7 12.21a.59.59 0 0 1-.8 0A38.7 38.7 0 0 0 33 1.17z" fill="#b71c1c" data-color="2"/>
            <path d="M118.18 24.37a44.85 44.85 0 0 1-6.05 28.31C104 66.16 89.64 75.75 74.78 80.38 67.18 82.75 59.08 84 51.13 83a54.08 54.08 0 0 1-21.52-7.84C23.07 71.05 16.8 66 12.23 59.78A57.15 57.15 0 0 1 2.79 38.6a41.46 41.46 0 0 1-.57-16.3C-1.21 33.6.89 47.18 8.14 57.51c12.6 18 30.57 32.62 49.23 45.9l1.63 1.15 1.65-1.1C79.67 90.71 98.05 76.6 111.16 59a41.81 41.81 0 0 0 7.02-34.63z" style="mix-blend-mode:multiply" fill="#e10b16" data-color="3"/>
            <path d="M36.64 64.55a81.26 81.26 0 0 0 32.92 1.89c11.14-1.6 23-5 31.75-12.43a27.83 27.83 0 0 0 8.92-13.12 34.85 34.85 0 0 0 1.13-12.74c-2-10.25-9-19-21.28-21.29a34.34 34.34 0 0 0-29.75 8.51A34.36 34.36 0 0 0 30.82 6C14.58 8.61 3.46 27 9 42.73c4.44 12.51 15.42 18.53 27.64 21.82z" style="mix-blend-mode:color-dodge" fill="#e73628" data-color="1"/>
            <path d="M45.7 13.83a12.69 12.69 0 0 0-5.94-4 20.25 20.25 0 0 0-7.6-.52c-4.69.34-8.72 2.62-12.1 5.77a18 18 0 0 0-5.27 11.7c-.37 5.09 3.64 8.56 8.27 9.44s10.07-.61 14.33-2.58c3.61-1.67 8-4.54 9.73-8.24a10.61 10.61 0 0 0-1.42-11.57z" style="mix-blend-mode:screen" fill="#fffdec" opacity=".9" data-color="4"/>
            <path d="M17.61 38.83a2 2 0 0 0-.9-.61 3 3 0 0 0-1.15-.08 3 3 0 0 0-1.82.87 2.72 2.72 0 0 0-.8 1.76 1.4 1.4 0 0 0 1.25 1.43 3.77 3.77 0 0 0 2.16-.39 3 3 0 0 0 1.47-1.24 1.61 1.61 0 0 0-.21-1.74z" style="mix-blend-mode:screen" fill="#fffdec" opacity=".9" data-color="4"/>
        </g>
    </g>
</svg>
