<?xml version="1.0" encoding="UTF-8"?>
<svg data-bbox="45.308 59.315 708.824 678.241" xmlns="http://www.w3.org/2000/svg" viewBox="0 0 800 800" height="800" width="800" data-type="ugc">
    <g>
        <path fill="#F48120" d="M268.238 167.543C234.98 113.668 183.427 40.721 122.202 63.649c-69.77 26.116-21.986 203.756.339 261.64"/>
        <path stroke-miterlimit="10" stroke-width="15" stroke="#000000" d="M268.238 167.543C234.98 113.668 183.427 40.721 122.202 63.649c-69.77 26.116-21.986 203.756.339 261.64" fill="none"/>
        <path fill="#F48120" d="M427.518 167.543c33.269-53.875 84.822-126.822 146.047-103.894 69.759 26.116 21.986 203.756-.351 261.64"/>
        <path stroke-miterlimit="10" stroke-width="15" stroke="#000000" d="M427.518 167.543c33.269-53.875 84.822-126.822 146.047-103.894 69.759 26.116 21.986 203.756-.351 261.64" fill="none"/>
        <path fill="#EA4974" d="M463.033 182.091c20.386-33.007 51.958-77.69 89.466-63.647 42.723 15.994 11.393 130.853-2.289 166.313"/>
        <path stroke-miterlimit="10" stroke-width="8" stroke="#000000" d="M463.033 182.091c20.386-33.007 51.958-77.69 89.466-63.647 42.723 15.994 11.393 130.853-2.289 166.313" fill="none"/>
        <path fill="#EA4974" d="M232.734 182.091c-20.365-33.007-51.958-77.69-89.466-63.647-42.723 15.994-11.393 130.853 2.289 166.313"/>
        <path stroke-miterlimit="10" stroke-width="8" stroke="#000000" d="M232.734 182.091c-20.365-33.007-51.958-77.69-89.466-63.647-42.723 15.994-11.393 130.853 2.289 166.313" fill="none"/>
        <path fill="#F5821F" d="M346.454 711.308c-68.828 0-133.526-25.655-182.165-72.245-48.638-46.59-75.269-108.287-75.269-174.004 0-68.302 28.482-146.353 76.124-208.795 24.177-31.68 52.582-57.884 82.16-75.762 32.239-19.51 65.596-29.391 99.15-29.391s66.911 9.859 99.15 29.391c29.578 17.878 57.972 44.082 82.16 75.762 47.663 62.442 76.123 140.493 76.123 208.795 0 65.728-26.729 127.501-75.269 174.004-48.54 46.502-113.336 72.245-182.164 72.245z"/>
        <path fill="#FFF7EE" d="M440.116 702.676c99.501-46.437 141.249-124.236 155.665-159.324-55.113-72.541-146.715-120.019-250.423-120.019-100.497 0-189.646 44.586-245.23 113.37 11.536 30.815 51.903 116.327 158.251 165.973l1.15.548h179.437l1.15-.548z"/>
        <path fill="#000000" d="M346.454 159.327c32.031 0 63.953 9.487 94.9 28.197 28.69 17.363 56.317 42.855 79.881 73.725a383.433 383.433 0 0 1 54.554 99.862c13.003 35.592 19.882 71.545 19.882 103.981a227.32 227.32 0 0 1-19.477 92.413 237.072 237.072 0 0 1-53.261 75.653 249.422 249.422 0 0 1-79.246 51.114 260.869 260.869 0 0 1-194.466 0 249.28 249.28 0 0 1-79.246-51.169 237.057 237.057 0 0 1-53.261-75.652 227.342 227.342 0 0 1-19.478-92.391c0-32.437 6.869-68.39 19.883-103.982a383.388 383.388 0 0 1 54.554-99.829c23.563-30.87 51.191-56.362 79.881-73.725 30.925-18.71 62.869-28.197 94.9-28.197zm0-16.432c-146.715 0-265.65 181.639-265.65 322.165 0 140.525 118.935 254.464 265.65 254.464 146.715 0 265.649-113.928 265.649-254.464 0-140.537-118.934-322.165-265.649-322.165z"/>
        <path fill="#000000" d="M415.096 484.35c0 28.855-30.728 31.002-68.642 31.002-37.914 0-68.642-2.191-68.642-31.002 0-28.81 30.673-52.253 68.642-52.253 37.969 0 68.642 23.388 68.642 52.253z"/>
        <path fill="#000000" d="M431.9 413.474c9.982 0 18.075-15.204 18.075-33.959 0-18.755-8.093-33.959-18.075-33.959-9.983 0-18.075 15.204-18.075 33.959 0 18.755 8.092 33.959 18.075 33.959z"/>
        <path fill="#000000" d="M264.294 413.474c9.983 0 18.075-15.204 18.075-33.959 0-18.755-8.092-33.959-18.075-33.959-9.982 0-18.075 15.204-18.075 33.959 0 18.755 8.093 33.959 18.075 33.959z"/>
        <path fill="#FFF7EE" d="M345.906 515.9a65.186 65.186 0 0 1-65.18 65.18 65.174 65.174 0 0 1-46.089-19.091 65.174 65.174 0 0 1-19.091-46.089"/>
        <path stroke-miterlimit="10" stroke-width="15" stroke="#000000" d="M345.906 515.9a65.186 65.186 0 0 1-65.18 65.18 65.174 65.174 0 0 1-46.089-19.091 65.174 65.174 0 0 1-19.091-46.089" fill="none"/>
        <path fill="#FFF7EE" d="M476.266 515.9a65.178 65.178 0 0 1-65.18 65.18 65.177 65.177 0 0 1-65.18-65.18"/>
        <path stroke-miterlimit="10" stroke-width="15" stroke="#000000" d="M476.266 515.9a65.178 65.178 0 0 1-65.18 65.18 65.177 65.177 0 0 1-65.18-65.18" fill="none"/>
        <path stroke-miterlimit="10" stroke-width="15" stroke="#000000" fill="#D93C53" d="M146.729 593.919c48.759-48.759 133.34 10.308 84.581 59.056l-84.581 84.581-84.58-84.581c-53.065-53.053 31.516-112.12 84.58-59.056z"/>
        <path stroke-miterlimit="10" stroke-width="15" stroke="#000000" fill="#D93C53" d="M605.432 496.269c73.067-73.067 199.823 15.446 126.756 88.513L605.432 711.538 478.676 584.782c-79.53-79.519 47.225-168.032 126.756-88.513z"/>
    </g>
</svg>
