<?xml version="1.0" encoding="UTF-8"?>
<svg data-bbox="164.856 33.198 467.545 734.379" xmlns="http://www.w3.org/2000/svg" viewBox="0 0 800 800" height="800" width="800" data-type="ugc">
    <g>
        <g clip-path="url(#0acc8a5a-824b-46bd-b5ea-a3a1a6a2d620)">
            <path fill="#F48120" d="M329.808 128.438c-29.277-47.41-74.644-111.603-128.522-91.426-61.388 22.982-19.348 179.305.308 230.244"/>
            <path stroke-miterlimit="10" stroke-width="15" stroke="#000000" d="M329.808 128.438c-29.277-47.41-74.644-111.603-128.522-91.426-61.388 22.982-19.348 179.305.308 230.244" fill="none"/>
            <path fill="#F48120" d="M469.965 128.438c29.277-47.41 74.643-111.603 128.522-91.426 61.388 22.982 19.348 179.305-.309 230.244"/>
            <path stroke-miterlimit="10" stroke-width="15" stroke="#000000" d="M469.965 128.438c29.277-47.41 74.643-111.603 128.522-91.426 61.388 22.982 19.348 179.305-.309 230.244" fill="none"/>
            <path fill="#EA4974" d="M501.219 141.24c17.94-29.045 45.722-68.367 78.73-56.009 37.597 14.075 10.026 115.151-2.015 146.356"/>
            <path stroke-miterlimit="10" stroke-width="8" stroke="#000000" d="M501.219 141.24c17.94-29.045 45.722-68.367 78.73-56.009 37.597 14.075 10.026 115.151-2.015 146.356" fill="none"/>
            <path fill="#EA4974" d="M298.555 141.24c-17.931-29.045-45.723-68.367-78.75-56.009-37.597 14.075-10.026 115.151 2.014 146.356"/>
            <path stroke-miterlimit="10" stroke-width="8" stroke="#000000" d="M298.555 141.24c-17.931-29.045-45.723-68.367-78.75-56.009-37.597 14.075-10.026 115.151 2.014 146.356" fill="none"/>
            <path fill="#F48120" d="M398.628 606.954c-60.568 0-117.503-22.577-160.305-63.577-42.802-40.999-66.237-95.292-66.237-153.123 0-60.106 25.064-128.792 66.989-183.741 21.276-27.879 46.273-50.938 72.301-66.67 28.371-17.169 57.725-25.865 87.252-25.865 29.528 0 58.882 8.676 87.253 25.865 26.028 15.732 51.025 38.791 72.301 66.67 41.944 54.949 66.989 123.635 66.989 183.741 0 57.84-23.522 112.201-66.237 153.123-42.716 40.922-99.737 63.577-160.306 63.577z"/>
            <path fill="#FFF7EE" d="M480.087 601.767c87.561-40.864 124.3-109.328 136.996-140.205-48.509-63.837-129.12-105.617-220.383-105.617-88.438 0-166.889 39.235-215.803 99.765 10.151 27.118 45.655 102.388 139.299 146.057l1.013.482h157.914l.964-.482z"/>
            <path fill="#000000" d="M398.628 121.208c28.188 0 56.279 8.349 83.513 24.814 25.247 15.279 49.559 37.712 70.295 64.878a337.378 337.378 0 0 1 48.008 87.879c11.452 31.292 17.497 62.931 17.497 91.475a200.072 200.072 0 0 1-17.14 81.324 208.636 208.636 0 0 1-46.87 66.574 219.38 219.38 0 0 1-69.737 45.01 229.57 229.57 0 0 1-171.131 0 219.38 219.38 0 0 1-69.737-45.01 208.636 208.636 0 0 1-46.87-66.574 200.072 200.072 0 0 1-17.14-81.324c0-28.544 6.044-60.183 17.497-91.504a337.399 337.399 0 0 1 48.056-87.85c20.736-27.166 45.048-49.599 70.295-64.878 27.234-16.465 55.325-24.814 83.513-24.814h-.049zm.049-14.46c-129.158 0-233.821 159.843-233.821 283.506 0 123.663 104.663 223.93 233.772 223.93 129.11 0 233.773-100.257 233.773-223.93S527.738 106.748 398.628 106.748h.049z"/>
            <path fill="#000000" d="M459.033 407.23c0 25.392-27.04 27.281-60.404 27.281-33.365 0-60.405-1.928-60.405-27.281 0-25.353 26.992-45.983 60.405-45.983 33.412 0 60.404 20.581 60.404 45.983z"/>
            <path fill="#000000" d="M473.821 344.859c8.785 0 15.906-13.38 15.906-29.885 0-16.504-7.121-29.884-15.906-29.884s-15.906 13.38-15.906 29.884c0 16.505 7.121 29.885 15.906 29.885z"/>
            <path fill="#000000" d="M326.328 344.859c8.784 0 15.906-13.38 15.906-29.885 0-16.504-7.122-29.884-15.906-29.884-8.785 0-15.907 13.38-15.907 29.884 0 16.505 7.122 29.885 15.907 29.885z"/>
            <path stroke-miterlimit="10" stroke-width="15" stroke="#000000" fill="#17479D" d="M391.398 767.577c87.581 0 158.58-70.998 158.58-158.58 0-87.581-70.999-158.579-158.58-158.579-87.581 0-158.579 70.998-158.579 158.579 0 87.582 70.998 158.58 158.579 158.58z"/>
            <path stroke-miterlimit="10" stroke-width="10" stroke="#000000" d="M390.434 738.657c71.609 0 129.66-58.051 129.66-129.66 0-71.608-58.051-129.659-129.66-129.659s-129.659 58.051-129.659 129.659c0 71.609 58.05 129.66 129.659 129.66z" fill="none"/>
            <path fill="#FFF7EE" d="M398.146 434.994a57.357 57.357 0 0 1-114.717 0"/>
            <path stroke-miterlimit="10" stroke-width="15" stroke="#000000" d="M398.146 434.994a57.357 57.357 0 0 1-114.717 0" fill="none"/>
            <path fill="#FFF7EE" d="M512.864 434.994a57.357 57.357 0 0 1-97.918 40.558 57.362 57.362 0 0 1-16.8-40.558"/>
            <path stroke-miterlimit="10" stroke-width="15" stroke="#000000" d="M512.864 434.994a57.357 57.357 0 0 1-97.918 40.558 57.362 57.362 0 0 1-16.8-40.558" fill="none"/>
        </g>
        <defs fill="none">
            <clipPath id="0acc8a5a-824b-46bd-b5ea-a3a1a6a2d620">
                <path transform="translate(161 25)" fill="#ffffff" d="M477.185 0v750H0V0h477.185z"/>
            </clipPath>
        </defs>
    </g>
</svg>
