<?xml version="1.0" encoding="UTF-8"?>
<svg data-bbox="0.003 -0.01 32.828 75.69" viewBox="0 0 32.82 75.67" xmlns="http://www.w3.org/2000/svg" data-type="color">
    <g>
        <path d="M15.97 25.29c.39.22.88.11 1.1-.28.23-.42.1-1-.46-1.18-1.01-.32-1.52.96-.64 1.46Zm.7-1.06c.53.18.09 1.04-.38.85-.49-.2.07-.95.38-.85Z" fill="#dead00" data-color="1"/>
        <path d="M20.05 22.95a.815.815 0 0 0-.64-1.01c-.8-.15-1.13.99-.52 1.37.44.28 1.04.1 1.16-.36Zm-.49-.56c.13.03.2.24.21.36.01.31-.35.49-.53.35-.4-.32.01-.78.32-.71Z" fill="#dead00" data-color="1"/>
        <path d="M18.8 27.61c.46.18 1.04-.23 1.07-.71.03-.48-.32-.95-.83-.98-1.01-.06-1.03 1.37-.23 1.69Zm.47-1.19c.16.04.22.25.22.43 0 .31-.38.5-.64.38-.04-.02-.09-.05-.11-.09-.19-.42.37-.75.52-.71Z" fill="#dead00" data-color="1"/>
        <path d="M32.18 73.24c-.27-.34-.69-.48-1-.77-.39-.74-.28-5.45-.39-7.31-.14-2.44.33-6.73.34-6.73.55-.27.79-1.11.35-1.46.2-.12.34-.3.36-.58.02-.41-.38-.57-.72-.54.02-4.21.06-8.41 0-12.63 0-.44-.35-.41-.42-.41 0-.11.01-.26.02-.37 1.1-.15 1.58-.84 1.71-1.86.02-.15 0-.27-.19-.33-.41-.14-.95-.66-1.35-1.03.04-.05.17-25.79 0-27.22-.15-1.21-.46-2.85-1.06-3.81-.87-1.39-1.69-2.41-2.85-3.54-2.09-2.02-4.46-3.17-7.38-3.32-.04-.55-.35-1.07-.89-1.28-.48-.18-1.04.07-1.16.42-.91-.27-1.7-.32-2.69-.33-1.59-.03-2.64.69-3.59.63-.86-.94-1.8.03-1.95 1.04-2.75.7-4.88 1.66-6.78 3.87C1.13 7.32-.16 9.66.02 11.85c.19 2.39.57 7.58.68 11.17.12 3.41.59 16.62.7 17.15.12.55.45.98.48 1 .02.46.52 1.04.85 1.29-.07.28.16 26.04.16 26.04-.41.15-.9.38-1.19.7-.08.08-.36.2-.32.28-.29.02.79 3.88 1.19 5.75.03.13.54.45.78.45 2.85-.03 27.93-.3 29.36-.67.38-.1-.23-1.39-.52-1.76Zm-4.8-30.98c-1.47.06-22.49.1-23.97-.15 0 0-.07-.52-.08-.79 1.42.1 25.7-.53 28.65-.58-.27 1.93-3.11 1.46-4.61 1.52Zm3.11 16.41c-.07 2.41-.35 11.14-.11 13.35-.51-.26-2.35-2.17-2.36-2.17 0 0 .16-12.13.16-12.87-.02-3.38.62-7.38-.08-10.77.96-.85 1.54-1.34 2.34-2.35.09 4.9.2 9.92.05 14.81ZM3.24 42.91c.23.37.81.66.82.68-.32 2.99.07 24.59.22 28.71-.17-.65-.66-2.48-.95-3.32.12-.67-.19-22.14-.09-26.07Zm.46-.3c1.31.15 24.32.12 26.52-.06v.26c-8.58 0-17.18.04-25.78.14-.03-.03-.55-.22-.73-.35Zm20.75 22.78c.51.03 1.36.74 1.32 1.26-.99.32-2.14.22-3.17.21-1.21 0-2.41-.05-3.62-.05v-1.26c1.75-.04 4.48-.22 5.48-.17Zm-5.49-.2c-.03-1.93.07-3.73.03-5.65 1.67-.03 3.23-.14 4.9-.12.04 1.89.14 3.78.15 5.68-1.69-.02-3.39.06-5.08.1Zm5.29-5.77h1.32c.16 1.19.22 2.37.31 3.57.07.96.17 1.96.04 2.89-.36-.33-.99-.8-1.48-.84-.01-1.89-.14-3.72-.18-5.61Zm-1.23 7.91c1.05 0 2.03.08 3.02-.31.01 0 .15.62.2.94-2.41.07-4.82.23-7.21.21H19c0-.3 0-.6-.01-.89 1.34-.01 2.69.04 4.03.05Zm-3.98 1.3c2.74.02 5.5-.2 8.24-.24 0 .39.01.88.03 1.28-2.65.36-5.48.42-8.28.4 0 0 0-1.44.01-1.44ZM27.3 68c-.25 0-.45-.03-.7-.02-.08-.47-.14-.95-.43-1.55.2-.93.18-1.97.1-2.93-.11-1.36-.21-2.73-.39-4.08h1.54c-.03 2.85-.14 5.74-.11 8.58Zm-8.42-9.06c0-.46-.02-.91-.02-1.37 2.85-.06 5.71-.16 8.56-.11v1.49c-2.85.04-5.69-.05-8.53-.01Zm4.92-5.3c-1.66 0-5 .03-5.02.04-.05-2.41-.09-4.82-.14-7.23 1.66-.12 3.4-.28 5.09-.27.15 1.56-.06 3.16-.01 4.73l.09 2.74Zm-4.96.49c1.66-.03 3.32-.03 4.97-.02 0 .34.03.69.04 1.03-1.68.03-3.35.09-5.03.12 0-.35-.03-.79-.03-1.13.02 0 .03.01.05.01Zm5.01 1.45c.02.45.03.9.04 1.35 0 .03-3.36.14-5.04.18-.01-.49 0-1.01-.01-1.5 1.68-.03 3.34 0 5.01-.03Zm1.63 1.4s-1.12-.02-1.12-.05c-.04-1.77-.07-3.53-.14-5.3-.07-1.8.15-3.65-.02-5.44.39 0 .77.03 1.15.06-.06 3.57.06 7.17.14 10.74Zm.41.02c-.08-3.55-.2-7.17-.15-10.72.48.05 1.66.22 1.7.21.77 3.23.16 7.12.06 10.52-.5 0-1.61.01-1.61 0ZM7.43 45.85c-.65-1-1.57-1.76-2.55-2.42 8.54-.1 17.08-.14 25.6-.14-.76 1.11-1.92 1.85-2.93 2.72-4.08-.71-16.28.27-20.12-.16Zm11.08 24.33s-.92-.04-1.36-.05c.14-1.12-.16-16.34-.28-23.56.42-.02.86-.04 1.31-.07.16 7.87.27 15.83.33 23.69ZM7.61 46.32c2.1.23 4.31.21 6.42.21l.05 7.48c-1.92-.24-5.45.07-6.58.11.1-2.56.15-5.1.12-7.8Zm6.45 8.03.04.88c-2.21.04-4.42.05-6.63.09 0-.28.01-.57.02-.85 1.14-.04 4.63-.42 6.57-.12Zm.05 1.35.03 1.45-6.66.13s-.04-.99-.03-1.49c2.22-.04 4.44-.05 6.65-.09Zm-6.62 1.93 9.14-.17c.01.46.01 1.05.02 1.51-3 .17-6.1 0-9.14.08-.03-.44-.04-1.42-.02-1.42Zm7.8-.51h-.69l-.21-10.51c.26 0 .52-.01.77-.01.07 3.47-.31 7.08.13 10.52Zm.34-10.53c.25 0 .51 0 .76-.01.04 2.42.13 4.86.22 7.29l-1.06.02c-.04-2.43.13-4.9.08-7.3Zm-.03 8.66c-.01-.3-.03-.59-.04-.89l1.07-.02.03.91c-.03-.01-1.06 0-1.06 0Zm1 1.86h-.85c-.06-.46-.1-.93-.13-1.4l.96-.02s0 .94.02 1.42Zm-1.92 8.3c-.04-1.94-.12-3.87-.22-5.81v-.03c.27 0 .55-.02.82-.04.02 1.97-.14 3.93.13 5.87h-.72Zm2.06.46s.02.77 0 1.16c-2.96 0-5.89-.02-8.84.06.01-.41.05-1.24.06-1.24 2.11-.03 8.08.03 8.79.02Zm-2.75-6.29s.18 3.89.22 5.83c-2.09-.01-4.18-.06-6.27-.03 0-.11-.25-4.03-.39-5.87 2.11-.05 4.3.09 6.45.07Zm-6.08 7.97c2.95-.08 5.88-.12 8.82-.12v1.03c-2.91.05-5.91-.02-8.82.03-.01-.3-.02-.66-.02-.96h.02Zm8.82 1.21c.05.43.04.86.05 1.29-2.93-.07-5.86-.21-8.7-.18-.07-.32-.16-.7-.19-1.02 2.91-.05 5.92-.02 8.83-.08Zm0-3.36h-.87c-.29-1.95-.12-5.6-.13-5.79.36-.03.7-.01 1.06-.06.04 2.01.05 3.86.01 5.86-.02 0-.04-.01-.07-.01ZM4.77 43.99c1.01.67 2.08 1.48 2.36 2.3.22 1.37-.27 8.56-.07 12.88.11 2.36.41 4.69.43 7.06.02 1.85-.24 2.25.19 3.93-.83 1.04-1.53 2.1-2.79 2.6.05-4.43-.32-25.72-.12-28.77Zm3.17 26.57c6.36-.05 13.6.69 19.9-.31.5.56 1.98 1.79 2.39 2.16-.5.62-2.19.42-4.4.44-2.51.02-5.4.08-6.59.09-4.66.03-9.09-.08-13.76 0 1.16-.65 1.67-1.39 2.45-2.38ZM30.9 39.97c-2.75.05-25.69.46-27.16.32 1.86-1.62 2.36-2.67 3.55-4.87 1.01-1.86 1.86-4.03 1.88-6.18 4.69-.03 9.38-.1 14.07-.2.03 0 .06-.01.08-.02.33 2.08 1.9 4.25 3 5.97 1.39 2.19 2.43 3.63 4.58 5ZM10.15 21.79c.12-.05.29-.15.37-.23 0 2.21.25 4.68.31 6.89 0 0-.28-.18-.35-.27-.04-1.35-.24-3.31-.32-6.39Zm.88-.07c3.43-.09 6.45-.1 9.88-.14.03 2.24.11 4.58.14 6.81-3.32.04-6.53.13-9.84.17 0 0-.17-4.63-.18-6.84ZM17.94.63c.13-.31.55-.27.79-.13.34.2.8 1.41 0 1.91-.27.17-.63-.08-.71-.31-.14-.37-.23-1.1-.08-1.47Zm-6.49.6c.86-.1 1.67-.41 2.54-.5 1.15-.11 2.31-.13 3.43.2 0 0-.05.93.24 1.41-.99.45-2.09.46-3.16.48-1.07.02-2.13-.25-3.18-.21.19-.42.26-.93.13-1.37Zm-.57-.29c.68.71-.17 2.5-.92 1.76-.13-.13-.24-.49-.26-.73-.03-.7.78-1.44 1.18-1.03ZM.98 11.65C.85 9.76 2.47 7.25 3.81 5.7c1.63-1.9 3.21-2.65 5.52-3.24.04.17.11.32.22.46.42.54.77.62 1.48.16 1.06-.16 2.58.22 3.84.2 1.06-.02 2.11-.1 3.08-.55l.02-.01.02.02c.67.43 1.32-.12 1.46-.78 3.11.12 4.7 1.46 6.88 3.57.95.92 3.1 3.41 3.48 6.78.3 2.67.46 26.37.46 26.37 0 .07-2.1-1.99-3.03-3.37-1.18-1.76-3.2-4.29-3.46-6.48.25-.16.58-.14.86-.17.45-.05.34-.53.04-.53-1.02.01-1.94-.01-2.96 0-.03-2.24 0-4.56-.04-6.8.36 0 .72-.01 1.09-.01.3 0 .29-.47-.01-.46-4.23.04-12.47.13-12.79.26-.26.1-.5.23-.77.32-.28.1-.11.46.11.47.12 0 .33 0 .47.02.07 2.09.25 4.18.3 6.27l-2.43.03c-.13 0-.2.1-.22.2-.08.15-.02.37.19.34.17-.02.32 0 .47.04-.29 2.08-1.25 4-2.37 5.76-.99 1.57-2.29 3.75-3.38 4.02-.12.03-1.11-23.27-1.37-26.93Zm.88 27.88c1.69-.7 2.65-2.31 3.62-3.79 1.37-2.07 2.67-4.22 3.04-6.73.06.04.12.08.18.14 0 0 .02 0 .03.01C8.72 33.17 5 39.27 2.62 40.77c-.17-.01-.32-.01-.45-.12-.32-.26-.36-.68-.31-1.12Zm.49 1.68c.17.02.34.03.52.04 0 .25.02.49.04.73-.3-.18-.51-.42-.55-.78Zm.84 33.53c-.34-1.66-.75-3.7-1.15-5.38.19-.19.63-.43.88-.54.01.02 1.29 4.31 1.3 4.32-.56.12-.85 1.2-1.03 1.61Zm.22.29c.05-.32.57-1.43.97-1.51.05-.01 10.79 0 16.03-.04 2.33-.01 4.66-.22 7-.16 1.25.03 2.38.09 3.49-.47.25.21 1.39.76 1.3 1.62-1.39.33-25.96.56-28.79.56Z" fill="#dead00" data-color="1"/>
        <path d="M12.61 27.6c.84.27 1.58-.98.57-1.34-.38-.14-.77.1-.92.48-.14.34-.02.75.35.87Zm.68-.91c.24.19-.14.77-.43.64-.27-.12.03-.8.43-.64Z" fill="#dead00" data-color="1"/>
        <path d="M12.97 23.24c.84.14.81-1.06.12-1.11-.58-.05-.81 1-.12 1.11Z" fill="#dead00" data-color="1"/>
    </g>
</svg>
