<?xml version="1.0" encoding="UTF-8"?>
<svg data-bbox="-0.004 0.001 91.737 50.116" viewBox="0 0 91.74 50.11" xmlns="http://www.w3.org/2000/svg" data-type="color">
    <g>
        <path d="M90.2 28.7c-4.21-10.07-14.92-10.26-14.79-10.38 2.85-2.67 6.2-4.74 9.12-7.33 1.14-1.01 2.07-2.48.51-2.97.17-.01.4-.34.3-.54-.31-.61-.9-1.16-1.42-1.35-.22-.07-.39.25-.52-.11-.57-1.66-3.36-2.19-5.45-2.59-3.69-.71-7.45-1.1-11.18-1.51L55.49.69c-2.07-.23-4.13-.56-6.2-.68-1.55-.09-3.08.51-4.46 1.11-1.63.71-2.24 1.71-2.71 2.86-2.26.46-4.55.58-6.79 1.19-.6.16-1.2.35-1.79.55 0-.02-.01-.04-.03-.06-1.87-2.73-6.2-1.23-8.88-1.03-.14 0-.69 1.25-.62 1.75-.27-.04-.55.22-.54.39-2.07.21-3.14 2.03-4.01 3.77-.85.11-1.68.38-2.32.99-.35.34.07 1.78.22 2.47-.03.01-.61.92-.87 1.34-.36-.16-4.95-3.58-7.01-4.59-2.91-1.44-6-1.4-8.79-.15-1.38.62-.5 3.19.89 2.88 1.46-.59 2.95-1.09 4.38-1.06 1.99.03 5.62 4.74 6.77 5.67 1.28 1.03 8.2 4.8 8.25 4.8-.07.72-.35 1.47-.16 2.18.51 1.9-1.57 6.47-1.21 10.41.11 1.23 2.7 1.22 2.74 1.21.75-.14 1.93-1.52 1.94-1.66.18-3.35.61-6.89 1.79-10.1.03.01 5.38 1.8 8.07 2.82.15.45.6.87 1.21.41 2.99.64 8.42 3.1 8.46 3.1.09.54.8 1.27 2.02.85.02.07 7.86 2.73 11.76 4.13.07.02 4.1 1.86 6.12 2.59 1.05 7.14 12.2 14.71 20.9 9.63 7.18-4.2 8.7-12.25 5.57-19.75Zm-23.53 5.36c-.01.14-.23.51.25.58 1.12.16 2.99.75 3.67 1.81-4.96-.94-9.83-4.24-14.75-6.13.23-.26.47-.52.7-.78 3.23.97 10.2 3.56 10.12 4.52Zm14.58 9.74c-.7-1.19-1.2-2.45-1.11-3.88.07-1.22-.34-2.67-.91-2.99.82-.75 1.58-1.61 2.2-2.05.14-.1.13-.93 0-1.29 1-.31 3.23-.28 3.27-.3.97 2.81 1.16 6.02-.11 8.62-.32.66-.78 1.22-1.34 1.69-.76.47-1.96.18-2 .18Zm.84.61c-.11.06-.23.12-.34.18-.04-.07-.09-.13-.13-.2.16.02.32.03.47.02Zm-12.62-4.34c.8.17 1.43.1 1.73-.93.5 1-.71 2.01-1.82 2.62.46-.4.44-1.18.09-1.69Zm9.03-5.44c.89-.11 1.63-.5 2.45-.85.08.27.08.54 0 .81-.6.47-1.14 1.03-1.7 1.54-.7.64-2.1 2.08-3.17 1.59h-.04c-1.68-.74-2.95 1.1-4.21 2.26.14-.51.02-1.03-.48-1.54.07-.73.02-1.52-.13-2.05-.12-.45-.8-.96-1.3-1.25.02-.02 1.47-2.18 2.6-2.73.06.11.25.58.7.56 1.81-.09 3.17-1.11 4.49-2.29.72.34-.09 1.73-.23 2.28-.18.74.2 1.72 1.03 1.68Zm-.94 6.62c.61.54.93 2.01 1.24 2.74-2.76-.39-4.52-2.07-6.52-3.77.77-.76 1.59-1.72 2.45-2.03-.01.06.68 1.15 2.82 3.07Zm-5.66-.67s3.58 3.79 7.08 3.8c.14.31.31.62.52.91-3.4.58-7.84-1.52-8.31-4.19.33-.15.47-.3.72-.52Zm5.94.42c-1.47-1.46-2.62-2.9-2.62-2.91.26-.01 1.44.27 1.68.23-.02.05 1.18 1.9 1.72 2.82.39.66 1.35 3.42 1.63 3.98-.07.02-.27.13-.33.14-.95-1.18-1.02-3.22-2.09-4.27Zm1.33.22c-.37-1.11-1.82-2.96-1.86-2.99.54-.19 1.15-.66 1.65-1.09.58.77.98 1.55.9 3.82-.05 1.32.67 2.74 1.39 3.84-.16.06-.31.12-.47.17-.6-1.21-1.18-2.47-1.61-3.75ZM81.71 33c-1.16.21-2.1.99-3.28 1.11-1.5-.63 1.04-2.95-.31-3.81 1.02-.92 2.04-1.84 3.26-2.34.03-.01.05-.03.07-.05.79.87 1.49 1.82 2.07 2.8.38.65.71 1.35 1 2.08-.94 0-1.87.03-2.8.2Zm-4.37-2.64c-2.88-2.76-3.32-5.3-3.72-6.33 2.63.39 5.51 1.53 7.45 3.49-1.37.61-2.53 1.79-3.73 2.84Zm-3-2.96c.61 1.15 2.65 3.19 2.74 3.18-.58.5-1.19.95-1.83 1.28 0-.04-.03-.08-.06-.12-1-1.03-.85-2.44-1.16-3.74-.3-1.32-.99-2.64-1.46-3.94l.48-.03c.5 1.1.73 2.29 1.3 3.35Zm-.75.82c.16 1.9.58 2.74 1.17 3.87-.49.19-1.6.35-1.62.35-.08-.16-.18-.31-.27-.47.02-.04-.29-5.34-1.4-7.74.18-.04.36-.07.55-.1.29.85 1.43 2.29 1.58 4.08Zm-1.34 3.66c-1.41 1.14-1.71 1.28-2.79 3.01-.55-.27-1.16-.47-1.7-.61.04-.04-.35-3.62-.42-5.35-.12-2.6 1.56-4 3.61-4.58 1.11 2.33 1.28 4.97 1.31 7.52ZM56.96 29.1c1.19-1.27 6.49-7.51 8.87-7.46-3.55 2.62-3.84 6.14-4.52 8.91-.96-.41-2.75-.95-4.34-1.44Zm7.92-8.43c1.71-1.61 3.76-2.6 5.67-3.99 1.27-.92 4.2-3.73 5.85-2.41.43.34 1.32-.77 1.64-1.26.6-.93 2.09-1.6 2.76-1.17.52.34-2.26 2.09-2.56 2.3-1.46.99-1.42 2.01-3.46 4.02-3.99-.3-6.93 1.38-8.4 2.29-.07-.06-1.01.13-1.49.22Zm17.04-8.26c-1.55 1.17-3.12 2.35-4.64 3.59.12-.14.84-1.37 2.5-2.22.71-.37 2.65-1.84 1.18-2.49-.75-.33-1.98.18-2.68.63-.7.45-1.1 2.16-1.86 1.7-1.57-.96-3.25.56-4.52 1.42-2.73 1.85-5.87 3.49-8.08 5.96-.01.02-.02.03-.03.05-.78.39-1.5 1-2.17 1.62-2.41 2.24-6.98 7.09-7.01 7.08-2.25-.54-28.05-9.68-28.17-9.6.02-.87.71-11.82.72-11.96 6 1.1 20.75 2.33 25.96 3.56 3.42.81 7.62 2.46 8.97 5.38-2.53 2.59-7.45 7.41-7.57 8.1-.13.79 1.23 2.17 1.8 1.85 1.64-.91 6.97-6.83 8.37-8.43.03 0 8.54-6.71 19.76-10.23 2.19.12-1.8 3.43-2.52 3.97ZM26.8 6.88c.9-.22 1.84-.13 2.72.24-.17.06-.33.12-.5.17-.74-.12-1.49-.26-2.22-.41Zm37.42 8.82c-.27.18-1.34.59-1.37.62-.7-.82-1.31-1.59-1.98-2.27 1.05.67 2.1 1.37 3.34 1.66Zm-1.31-1.1c2.81-2.29 9.75-6.67 19.05-7.95-3.08.89-12.34 4.13-17.27 8.72-.02-.07-1.36-.58-1.78-.77Zm20.81-7.72s.92.82.9.84c-1.57.97-11.6 2.98-20.09 10.29-1.57 1.35-2.86 2.97-4.33 4.42-1.36 1.34-2.44 2.94-4 4.06-.61-.18-.97-.68-1.16-1.27 2.52-3.09 5.52-5.72 8.26-8.62v-.01c.08.07 1.73-.49 3.48-2.19 1.43-1.39 3.31-2.14 5.05-3.09 3.72-2.03 11.86-4.42 11.87-4.43ZM49.28.54c1.66-.1 32.47 2.84 33.19 5.12-.24.01-.48.03-.71.05-3.83-2.03-28.63-4.25-34.99-4.64.78-.24 1.64-.47 2.51-.53Zm-6.36 3.31c.98-.27 2.13-.13 3.13-.08 1.16.06 2.39.1 3.52.41.28.07.4-.36.12-.43-1.06-.29-2.22-.33-3.31-.4-.96-.06-2.07-.18-3.07-.03.18-.22.39-.43.61-.63 1.07-.34 2.48-.09 3.56 0 1.17.1 2.34.27 3.51.39.29.03.28-.42 0-.45-1.28-.14-2.56-.31-3.85-.42-.74-.07-1.63-.19-2.45-.13.51-.33 1.02-.55 1.42-.57.03.01 32.32 3.17 34.74 4.3-4.62.64-15.48 4.54-18.86 8.31-1.36-.83-4.66-3.59-18.91-5.09 0-.12-.01-.24-.02-.38.25.02.49.04.74.05.29 0 .29-.44 0-.45-.26 0-.51-.02-.76-.05 0-.14-.02-.29-.03-.44.45 0 .89.04 1.33.1.28.04.4-.39.12-.43-.49-.07-.98-.11-1.48-.12 0-.15-.02-.31-.03-.46.86.02 1.72.14 2.58.22.29.03.28-.42 0-.45-.87-.08-1.73-.21-2.61-.22-.01-.21-.03-.41-.04-.61 1.27.02 2.54.11 3.82.22.29.03.28-.42 0-.45-1.28-.11-2.56-.21-3.85-.22-.01-.18-.03-.35-.04-.5 1.74-.09 3.62-.01 5.34.25.28.04.4-.39.12-.43-1.77-.28-3.69-.36-5.48-.27h-.03c-.02-.11-.03-.17-.04-.18.06-.13.14-.26.22-.39Zm-.68 1.16c-.02 1.32.22 2.63.29 3.95-3.41-.43-6.83-.74-10.24-1.19 3.05-1.65 6.59-2.04 9.94-2.76Zm-6.77.66c1.95-.63 4.02-.72 6.04-1.05-3.45.7-7.04 1.16-10.08 3.03l-1.27-.18c1.77-.6 3.53-1.22 5.31-1.79Zm-10.58-.54c2.4-.22 6.48-1.58 8.14.75-1 .35-2 .71-2.99 1.06-.22-.46-2.9-.88-4.22-.27-.42-.09-.84-.19-1.26-.29-.06-.41.33-1.22.33-1.25Zm-1.31 2.16s-.7.8-.92 1.29c-.56 1.24-.7 6.81-1.15 10.09-.02-.02-.6-.3-.87-.39.03 0 .66-.11.73-.3.34-.89-.03-2.03-.25-2.91-.34-1.36-1.12-4.24-1.18-4.27 0-.01 1.73-3.36 3.64-3.52Zm-5.91 4.47c.48-.48 1.2-.62 1.87-.7 0 .02 1.69 5.67 1.33 6.73-.04-.02-1.18.05-1.7.14-.57-1.97-1.85-5.78-1.5-6.17Zm-.13 2.87c.19.66.41 1.31.64 1.96-.07-.11-.14-.22-.23-.32-.26-.28-.59-.5-.96-.7.19-.31.34-.64.55-.94Zm-7.21-.51c-.75-1.09-2.45-2.23-3.8-2.43-2.68-.4-5.4.67-5.43.7-.26-.38.02-1.34.03-1.37 2.64-.82 5.7-1.39 8.11.23 1.83 1.24 6.66 4.39 7.51 4.84.89.47 1.26 1.48 1.91 2.23.44.5 2.14.58 2.62.81.11.06-.05 1.66-.15 2.55-2.07-.47-8.78-4.6-10.8-7.55Zm9.91 21.41c-.95-3.46 1.71-8.11 1.15-10.56.28-5.4 1.31-12.46 1.68-16.09.05-.54 1.08-1.33 1.12-1.33.37.09 1.46.43 1.62.54-.43.48-.72.9-1.05 1.45-.66 1.09-2.26 14.6-1.87 15.93-.82.77-1.18 1.75-1.33 2.95-.31 2.52-.66 5.06-.71 7.59-.26-.08-.47-.23-.61-.47Zm1.14.54c.04-1.86.26-9.3 1.9-10.25.71 1.4-.89 10.23-.8 10.28-.08.04-1.1-.01-1.1-.03Zm2.55-1.25c-.17.38-.73.73-1.03 1.01.56-2.15 1.45-9.23.92-10.36.97-1.99 1.8-15.32 1.79-15.38.3-.3.59-.6.88-.91 0 2.52-.56 13.28-1.04 15.27-.88 3.33-1.37 7.3-1.51 10.38Zm2.49-10.36c2.37-.95 5.43.89 7.53 1.91.06.26.11.52.16.77-2.53-.99-4.98-2.27-7.69-2.68Zm9.56 3.36c.06-.04.27-.36.33-.4 1.27.19 7.35 2.71 7.4 2.7.03.19.06.38.1.56-2.55-1.15-5.11-2.21-7.84-2.86Zm10.53 4.06c.16-.06.5-.34.65-.4.04.07 6.45 2.4 7.54 3.17-1.54-.48-6.6-2.4-8.19-2.77Zm.49-.87c-2.69 1.67-2.69-.52-2.77-1.13-.03-.18-7.99-3.07-8.12-2.98-.35.26-.74 1.02-1.16.9-.63-.18-.62-1.85-.62-1.85h-.01c-2.33-1.13-5.62-3.11-8.24-1.92.19-.95.29-1.9.34-2.86.05.03 28.6 10.09 28.87 9.78.06-.07.13-.15.2-.22 5.03 1.89 8.44 4.94 15.3 6.21.37.07-.18 2.39-.41 2.61-1.92.02-23.19-8.61-23.36-8.55Zm21.17 10.98c-1.86.2-1.66-1.81-1.34-2.27.57.12 1.16.21 1.75.27.02.02 1.2 1.83-.41 2Zm11.04 7.08c-11.32.38-13.65-8.2-14.15-9.82.41.12.81.24 1.23.34-.74 1.29.35 3.54 2.3 3.13.68-.14 1.52-.72 2.21-1.32 1.1 3.93 7.68 5.75 11.43 3.7 4.9-2.67 4.14-8.64 2.72-12.58-1.75-4.87-5.96-8.43-11.1-9.03-2.22-.25-4.49.45-5.99 2.1-2.02 2.22-.6 5.93-.55 8.5 0 .01-.15.09-.21-.1-.07-.22.04-.44-.3-.8-.02-.02-.08-.06-.16-.11-.24-.92-.19-1.87-.07-2.8.04-.29-.41-.28-.45 0-.11.84-.14 1.69.01 2.52-.19-.1-.41-.22-.66-.34 0-1.27.07-2.49.45-3.71.09-.28-.34-.39-.43-.12-.37 1.19-.45 2.38-.47 3.61-.19-.09-.39-.19-.58-.29-.1-.76.05-1.59.16-2.33.12-.79.24-1.76.7-2.43.16-.24-.23-.46-.39-.23-.49.72-.61 1.7-.75 2.54-.12.72-.23 1.49-.18 2.23-.21-.1-.42-.2-.62-.3.02-1.82.17-4.27 1.38-5.7.19-.22-.13-.54-.32-.32-1.26 1.48-1.47 3.89-1.51 5.81-.23-.11-.44-.2-.61-.28-.09-1.74 1.07-6.86 4.3-8.76 2.89-1.69 17.47-3.78 21.71 11.01 1.86 6.48-2.12 15.65-9.12 15.88Zm8.48-4.35c.47-.79 2.71-5.39 1.9-10.23-2.8-16.86-19.09-14.69-19.43-14.64 2.53-1.48 14.31-.5 18.69 7.44 3.22 5.85 2.81 12.81-1.17 17.43Z" fill="#dead00" data-color="1"/>
    </g>
</svg>
