<?xml version="1.0" encoding="UTF-8"?>
<svg data-bbox="0.006 -0.014 51.517 42.464" viewBox="0 0 51.53 42.47" xmlns="http://www.w3.org/2000/svg" data-type="color">
    <g>
        <path d="M50.49 21.89c-1.49-1.45-7.73-6.63-9.06-8.16-2.38-2.73-9.87-.48-12.79-.44-.04-.28-.31-3.31-.14-4.55.28-1.95-3.87-6.35-6.47-8.59-.22-.19-2.56-.33-2.61.26-.14 1.52.6 9.91.61 14.01-3.7.33-7.72.63-11.43.75-2.75.09-7.36.88-7.32 3.44.05 3.67-1.43 7.27-1.26 10.91.02.53.12 1.48.53 1.69 1.25 2.39 2.82 4.58 4.09 6.95.78 1.45 2.59 4.29 3.45 4.29 1.22 0 7.67-.91 9.36-1.11 2.65-.31 5.33-1.03 8-1 0 .18 2.34 1.24 3.95-.53 2.69-.25 5.39-.41 8.07-.75 2.68-.34 8.12-1.76 8.15-1.87.51-1.58 1.49-2.88 2.32-4.29.81-1.39 5.67-8 2.55-11.03ZM21.74.45c.02.05 4.29 3.74 6.01 7.73-.94-.04-2.11-.28-3.06-.24.53-1.36-1.05-3.06-1.8-3.98-.93-1.14-1.77-2.36-2.74-3.47.4-.02 1.19-.02 1.59-.04ZM19.8.7c.84.95 1.54 2 2.34 2.99.85 1.05 2.75 3.39 2.09 4.41-1.1-.8-3.95-5.67-4.34-6.11-.13-.41-.1-.85-.08-1.28Zm4.73 13.45c-.6.02-1.06.04-1.66.07-.01-1.38-.04-6.21-.19-7.24.38.57.8 1.09 1.4 1.51 0 .01 0 .02.01.03.22 1.99.31 3.74.43 5.63ZM19.74 2.44c.35.46 2.42 3.69 2.54 3.89-.06.04.17 6.52.19 7.91-.68.04-1.36.09-2.05.15-.01-4-.15-7.99-.69-11.96Zm-8.55 13.04c4.45-.34 9.06-.81 13.51-.93 0 .17.02.34.02.51-3.49-.03-7.03.68-10.52.74-11.51.19-11.68 2.15-11.99 2.94-.14-.07-.28-.12-.43-.13 1.62-3.39 6.27-2.89 9.4-3.13Zm-7.32 11.7c-.8.36-1.59.84-2.19 1.48.18-1.13.76-7.29.81-9.25.74.74 1.33 2.27 1.74 2.98-.03.03-.42 4.75-.36 4.79Zm.66-4.28c.76 1.35 1.18 2.82 2.5 3.79l-2.86.39c.19-1.39.24-2.79.36-4.18Zm-.37 4.59c.89-.21 20.91-2.55 20.93-2.56.01.24.03.49.04.73-4.37.17-8.87.7-13.2 1.34-2.89.42-8.09.33-10.45 2.68.26-.9 1.59-1.93 2.68-2.19Zm3.48-.85c-1.34-1.19-2.7-3.77-3.62-5.44-.32-.59-.79-1.66-1.45-2.23 1.08-2.54 9-2.61 12.62-2.83 3.14-.19 6.43-.7 9.56-.68.15 3.04.19 6.1.32 9.1-.02 0-17.43 2.09-17.43 2.09ZM.78 30.82c-.34-.05-.49-2.26.16-5.35.44-2.07.79-4.35.74-6.48h.01c.14 0 .28.05.42.12v.01a39.06 39.06 0 0 1-.44 5.4c-.24 1.63-.5 6.35-.89 6.29Zm7.09 11.03c-1.64-.92-2.48-3.16-3.35-4.73-1.11-2.01-2.44-3.88-3.52-5.91.07-.03.15-.08.23-.14.02-.02.04-.04.05-.06 1.4 1.82 2.9 3.56 4.09 5.53.97 1.62 1.62 3.28 2.97 4.6-.22.19-.37.44-.47.71Zm.36.18c.07-.24.4-.61.4-.61.34 0 2.12-.21 3.24-.34-.09.02.08.41.05.54-1.22.12-2.51.16-3.69.41Zm8.29-.96h-.02c-1.39.16-2.83.4-4.25.53.02-.12.06-.29 0-.55 1.42-.17 4.21-.57 4.28-.58v.61Zm.4-.05v-.73c1.33-.25 2.67-.51 4.01-.7 0 .02.08.55.09.79-1.37.22-2.74.47-4.09.65Zm8.59-1.06c-1.36-.02-2.73.14-4.1.35-.02-.25-.11-.77-.11-.78 1.42-.19 2.84-.31 4.28-.28-.01.24-.06.71-.07.71Zm.09-1.11c-2.83-.07-5.55.47-8.32.95-2.72.48-8.49 1.01-8.5 1.01-1.68-1.47-2.29-3.16-3.41-5.03-1.12-1.86-2.56-3.38-3.86-5.11 0 0 .56-1.23 2.86-2.01 2.05-.7 5.73-.97 7.67-1.26 4.29-.66 8.77-1.15 13.11-1.32.24 4.22.64 8.56.45 12.78Zm.34 1.09c.38-5.21-.25-10.64-.49-15.84-.23-5.04-.18-10.28-.91-15.29.03 0 .05.01.08.01.89-.04 1.76.14 2.65.2-.25 1.47-.14 2.87.08 4.36.45 2.93.72 5.83.81 8.79.18 5.78.34 17.39.35 17.43-.95.8-2.56.34-2.57.34Zm23.67-15.79c-1.81-.99-4.52-.51-9.12-.06-4.41.43-9.14.53-11 .99v-1.06c5.83-.09 15.98-1.44 18.59-1.44.77 0 1.89.85 1.52 1.58Zm-9.62-1.17c-1.02.1-2.03.19-3.05.27.28-.78.68-1.5 1.06-2.23.58.7 1.19 1.5 1.99 1.95Zm-1.79-2.33c.21-.4.98-2.41 1.17-3 1.62 1.56 3 3.37 4.63 4.88-1.16.15-2.33.28-3.5.41.01-.07-1.66-1.51-2.29-2.26l-.02-.02Zm10.98 1.73c-1.23-.74-3.94-.09-4.77.02.02-.08-3.2-3.59-4.89-5.18.28-.85.61-1.68 1.14-2.42.03.03 7.43 6.3 8.53 7.58Zm-20.46-8.5c2.85-.05 5.41-.58 8.24-.92 1.32-.16 2.31.16 3 .73-.84-.33-9.13.83-11.09.87 0 0-.12-.5-.15-.68Zm.2 1.23c3.8-.1 7.55-1.01 11.33-.46-.52.76-3.71 8.58-3.69 8.62-2.37.18-4.73.3-7.06.34 0-2.2-.48-7.87-.58-8.5Zm5.18 23.94s-3.11.25-4.65.38v-.59c1.56.06 3.11-.04 4.64-.23v.45Zm6.42-1.13c-.99.29-4.7 1.03-6.02 1.14v-.51c2.02-.26 4.03-.64 6.04-.93 0 .1-.02.2-.03.31Zm.44.01c0-.08-.01-.29 0-.37.5-.07 2.63-.35 3.13-.4-.5.13-2.62.63-3.12.77Zm-11.5.03c0-3.84.01-7.69.04-11.53 3.24-.84 7.02-1.07 10.36-1.44 2.49-.27 7.54-1.44 9.7-.02.03.02.06.03.09.05-.09.19-.17.38-.26.57-2.45-.96-5.01-.22-7.53-.09-.33.02-.33.53 0 .51 2.45-.13 4.95-.86 7.33.05-.12.27-.24.54-.36.8h-.01c-1.18-.34-2.28-.13-3.46.07-1.3.22-2.6-.17-3.89.15-.32.08-.18.57.13.49 1.11-.27 2.24 0 3.37-.08 1.27-.08 2.37-.49 3.65-.15-.18.4-.36.81-.54 1.21a.284.284 0 0 0-.13-.04c-2.21 0-4.41.08-6.62.17-.33.01-.33.52 0 .51 2.18-.08 4.36-.16 6.54-.17-.16.35-.32.69-.48 1.03-.02 0-.05-.02-.08-.02-2.1.01-4.19.16-6.28.17-.33 0-.33.51 0 .51 2.04-.01 4.08-.15 6.12-.17-.09.18-.17.36-.25.53-.04.08-.08.16-.12.25-.03-.01-.06-.02-.1-.02-1 0-1.97.25-2.97.25-.99 0-1.98-.04-2.97-.04-.33 0-.33.51 0 .51.99 0 1.98 0 2.97.04.95.04 1.88-.21 2.83-.25-.19.38-.37.78-.55 1.19-.02 0-.04-.01-.07-.01-1.87.02-3.73.24-5.6.25-.33 0-.33.51 0 .51 1.82-.02 3.64-.22 5.46-.25-.1.24-.19.49-.28.73-.03 0-.06-.02-.09-.02-1.86.03-3.7.39-5.56.42-.33 0-.33.51 0 .51 1.84-.03 3.65-.38 5.49-.42-.07.24-.14.48-.19.72h-.04c-1.03 0-1.99.35-3.01.46-.84.09-1.68-.02-2.53.1-.32.05-.19.54.14.49.91-.13 1.82-.02 2.73-.12.89-.09 1.72-.4 2.62-.42-.02.13-.04.27-.05.4-.04-.01-10.32 1.8-15.52 1.59Zm15.89-1.14s.17-2.15 1.25-4.23c.02.01.63.17.9.29-.46.75-1.66 2.62-2.14 3.94Zm2.34-4.29c-.29-.13-.59-.24-.91-.3h-.01c.31-.66.61-1.28.85-1.77.36-.72.69-1.46 1.02-2.2.25.13.8.22 1.07.24-.58 1.36-1.34 2.71-2.02 4.03Zm1.11-4.63c.42-.95 1.91-3.73 1.7-4.62 1.13.94.11 3.62-.56 4.9-.02 0-1.13-.28-1.14-.28Z" fill="#dead00" data-color="1"/>
    </g>
</svg>
