<?xml version="1.0" encoding="UTF-8"?>
<svg data-bbox="-0.02 -0.021 76.761 57.277" viewBox="0 0 76.76 57.3" xmlns="http://www.w3.org/2000/svg" data-type="color">
    <g>
        <path d="M7.68 18.28c.52 0 .52-.8 0-.8s-.52.8 0 .8Zm.06.99c-.52 0-.52.8 0 .8s.52-.8 0-.8Zm-.6 1.79c-.52 0-.52.8 0 .8s.52-.8 0-.8Zm-.89 1.43c-.52 0-.52.8 0 .8s.52-.8 0-.8Zm-.83 1.49c-.52 0-.52.8 0 .8s.52-.8 0-.8Zm-.84 1.31c-.52 0-.52.8 0 .8s.52-.8 0-.8Zm-1.07 1.07c-.52 0-.52.81 0 .81s.52-.81 0-.81Zm-1.25.89c-.52 0-.52.81 0 .81s.52-.81 0-.81ZM1.54 26c-.52 0-.52.8 0 .8s.52-.8 0-.8Zm1.79-1.25c-.52 0-.52.81 0 .81s.52-.81 0-.81Zm1.01-1.61c-.52 0-.52.81 0 .81s.52-.81 0-.81Zm.95-1.55c-.52 0-.52.81 0 .81s.52-.81 0-.81Zm.78-.81c.52 0 .52-.81 0-.81s-.52.81 0 .81Zm.18-2.24c-.52 0-.52.8 0 .8s.52-.8 0-.8Zm-3.88 5.31c-.52 0-.52.8 0 .8s.52-.8 0-.8Zm1.01-.93c.52 0 .52-.81 0-.81s-.52.81 0 .81Zm.95-1.85c.52 0 .52-.81 0-.81s-.52.81 0 .81Zm71.8-4.57c-.58-1.12-2.89-3.83-6.91-2.78-1.52.39-2.64 1.8-3.61 3.01.08-1.5.23-3.04-.14-4.48-1.54-5.87-5.83-9.06-6.52-9.3-1.76-.6-3.58-1.45-5.27-2.21-.52-.23-1.21-.7-1.8-.75-.86-.08-1.47.29-2.33.36-.04 0-.08.02-.11.03-.9-.25-1.77-.29-2.44.18-4.73 3.31-1.6 11.07-1.84 15.64-1.79.45-9.69 2.47-5.68 7.05-.06.04-.08 2.81.04 4.04-.04 0-10.08 4.52-11.25 4.67-.94-.27-1.17.44-1.26.64-.02-.01-12.44-6.61-15.35-7.87.04-.16-.32-.59-.69-.65.11-.63-.09-1.18-.51-1.7.53-1.27.66-2.59-.25-3.77-.01-.71-.29-1.85-1.78-2.07-2.38-.34-4.53 2.87-5.73 4.51-1.48 2-3.94 6.06-2.01 8.09.83.87 1.99.64 2.77.26 1.73.26 2.95-.87 3.95-2.19.32.32.94.12 1.3.06.2 1.08 1.23.57 1.25.55l.02.01c.27.11 13.68 9.26 13.81 9.22.24 1.03.97 1.3 1.78 1.15.03.03 12.03 8.15 15 9.53.08 1.97.04 3.44 1.51 4.9.68.68 1.48 1.27 2.29 1.78 3.62 2.25 8.73 3.03 12.9 2.81 3.66-.2 7.39-1.78 9.8-4.59 1.16-1.36 2.27-3.71.75-5.2.43-5.04.97-10.08 1.32-15.13 2.41-2.8 9.75-10.48 6.99-15.82Zm-.36.42c2.14 5.15-4.73 11.36-6.51 13.35.05-.94-.07-1.9-.03-2.84 10.15-10.54 4.14-12.55 2.33-12.5.51-.14 3.09-.7 4.21 1.99Zm-3.37-2.61c-3.28.04-4.51 2.95-4.82 3.92-.53-.37-1.17-.65-1.78-.87.91-1.15 3.37-4.73 6.59-3.05Zm-6.85 3.52c1.04.37 2.12.86 2.51 1.89.75 2.01-1.93 3.77-3.56 4.4 0-.04.9-4.39 1.05-6.29ZM52.1.54c.53.1 1.49.76 1.86.93 1.5.67 3.42 1.38 4.92 2.02.48.46 5.6 4.83 5.83 11.17.21 5.66-.92 10.75-1.27 11.19-1.18-.14-2.17.36-3.32.52.77-1.23 2.1-7.15 1.69-10.64-.98-8.55-3.61-10.51-3.7-10.46-1.3-1.75-6.62-4.08-7.65-4.52.02 0 .62-.43 1.64-.22Zm1.51 15.09c2.49.04 7.68.86 7.74.78.14 1.57-.15 3.07-.39 4.6-2.07-2.09-4.62-4.18-7.35-5.39Zm7.25 6.05c-.07.48-.13.95-.21 1.43-1.22-1.7-9.19-7.19-9.69-7.41.46-.04.91-.06 1.37-.07.03.05 6.23 3.69 8.53 6.05Zm-12.01-6.27c-.47-1.39-2.36-12.31.73-13.43 2.28 1.58 5.31 1.49 9.26 5.2.35.91 2.25 6.74 2.47 8.87-.03-.02-8.31-1.27-12.46-.64Zm1.39.6c1.65.45 9.95 6.83 10.28 7.82-.09.42-.38 1.23-.4 1.23-2.64.03-7.98.85-14.68-.39-2.74-.51-6.75-2.64-3.51-5.62 2.16-1.99 8.29-3.03 8.31-3.04Zm12.3 10.35c.04 1.53-.25 4.24-2.4 4.14-1.66-.08-.75-3.79-.68-3.73.1.08.52.21.61.19.84-.11 1.64-.51 2.47-.61ZM49.35.99c1.2.28 2.42 1.05 3.53 1.57 1.76.83 3.3 1.32 4.51 2.69-1.08-.8-2.24-1.47-3.49-2.03-.96-.43-1.98-.74-2.97-1.07-.91-.3-1.69-.84-2.54-1.24.3-.02.62 0 .96.07Zm-1.85.15c.51.15.9.5 1.4.73-3.41 2.81-.76 13.58-.75 13.66-.81.2-1.63.37-2.44.56.19-4.2-2.5-13.55 1.79-14.95Zm-5.21 16.61c1.27-.59 2.61-.97 3.99-1.27-1.86.51-3.64 1.18-5.11 2.54-1.6 1.48-1.17 3.44.38 4.73 1.8 1.49 4.62 1.63 6.84 1.82 1.8.16 3.59.36 5.39.47 2.1.13 4.07-.38 6.15-.43-.1.21-.22.42-.36.62-.3-.13-.5.05-.62.35-11.34 1.1-15.69-1.29-17.01-2-.73-.39-5.82-3.96.36-6.83Zm-2.66 9.95c.02.18.04.36.05.54-2.98 1.75-10.31 3.87-10.34 3.92-.14-.02-.28-.03-.42-.05 1.27-.33 8.47-3.22 10.71-4.41Zm.11 1.12c.15 1.48.28 2.96.23 4.43-3.09-.34-6.19-.61-9.29-.94 3.06-.79 6.35-1.94 9.05-3.49Zm10.18 6.01c.51.01 3.06-.09 2.98.76-.14 1.41-1.88.12-3.51-.14-1.82-.29-16.37-1.84-20.67-2.55-.03-.1-.06-.19-.1-.28 4.18.48 20.27 2.19 21.3 2.22Zm-9.66 4.73c-1.56-.95-9.15-4.4-11.14-6.07 3.59.56 10.83 1.29 10.83 1.3-.18 1.68.25 3.1.31 4.77Zm-12.42-7.11c.1.05.18.14.25.24-.17.13-.38.23-.6.21a.75.75 0 0 1 .35-.45ZM1.16 28.87c-1.81-1.34.39-4.89 1.41-6.63.97-1.65 4.07-5.98 5.98-5.14 2.35 1.03-.39 4.04-1.51 5.96-1.05 1.8-3.44 7.61-5.88 5.8Zm3.2.04c.08-.09.15-.18.23-.27.63-.59 1.18-1.35 1.65-2.11.94-1.31 1.79-2.67 2.63-4.07.62-1.03 1.11-1.98 1.29-2.94.8 1.78-.74 3.99-1.75 5.37-1.03 1.41-2.17 3.75-4.05 4.02Zm4.44-2.15c-.66.25-.71.04-1.06.03.31-.44 2.02-2.92 2.49-3.84.26.39.4 1.02.23 1.54-.26.77-.79 1.94-1.67 2.27Zm1.11.77c-.23.16-.82.09-.75-.46.58-.28 1.55-1.62 1.74-2.39.1-.18.4-.06.43.28.06.49-.7 2.06-1.43 2.57Zm.57.06c.69-.55 1-1.33 1.18-2.27 2.98 1.32 15.24 7.79 15.27 7.79.94 1.34-.81 4.15-2.63 3.57-.01-.02-13.7-9.04-13.81-9.09Zm14 9.71c2.05.39 4.01-1.91 3.2-3.87.21-.02.41-.09.6-.2 1.24 3.36-3.1 5.17-3.79 4.07Zm1.84.71c.75-.33 3.01-1.22 2.53-4.07.84.68 11.55 6.33 12.39 6.44.94 1.02 1.41 6.44.99 7.3-2.27-.73-15.8-9.61-15.92-9.67Zm29.16 18.75c-11.21-.19-13.76-5.44-14-6.19 1.88 3.62 10.78 6.8 20.49 3.54 3.89-1.31 5.69-5.94 5.68-5.98v-.03c1.3 1.7-1.92 8.84-12.18 8.67Zm11.83-18.81c-.33.76-1.01 1.42-1.57 1.99-.65.66-1.51 1.53-2.45 1.74-.3.07-.17.53.13.47.97-.21 1.82-1.05 2.51-1.71.43-.41.91-.89 1.3-1.41-.01.18-.03.36-.04.55-.42.72-.99 1.37-1.55 1.97-.71.76-1.61 1.75-2.65 2.03-.3.08-.17.55.13.47.99-.26 1.83-1.11 2.54-1.82.5-.49 1.02-1.04 1.46-1.63 0 .12-.02.25-.03.37-.31.55-.76 1.1-1.06 1.5-.95 1.29-2.19 2.54-3.73 3.09-.29.1-.17.57.13.47 1.58-.56 2.79-1.75 3.82-3.04.22-.28.49-.61.75-.96-.65 2.25-3.04 4.91-5.26 5.42-.31.07-.18.54.13.47 1.46-.33 2.62-1.4 3.58-2.5.52-.59 1.05-1.26 1.46-1.99-.01.16-.02.32-.04.48-1.13 2.45-3.18 4.91-5.73 5.79-.29.1-.17.57.13.47 2.34-.81 4.25-2.83 5.51-5.03l-.03.35c-.93 2.8-3.71 5.53-6.37 6.21-.3.08-.17.54.13.47 2.4-.61 4.83-2.74 6.12-5.17-.01.16-.03.33-.04.49-5.78 11.86-24.89 5.81-25.14.87 1.78.83 1.94-2.29 1.87-3.33-.14-2.11-.09-5.17-2.49-5.23v-.04c-.04-1.71-.47-3.38-.3-5.09 1.18.1 6.96.9 8.6 1.5 2.71.99 4.2.79 4.64-.1.26-.53.21-2.32-2.91-1.97-2.41.27-8.71-.55-10.32-.73.1-3.16-.58-6.33-.59-9.51.4.43 1.89 2.45 8.31 3.51 5.02.83 10.4-.2 10.56-.22-.08.45-.73 3.94 1.29 3.93 3.43 0 2.97-4.68 2.97-4.68.1 0 .31.09.55.04.25-.04.35-.34.43-.48.09.05 3.22-1.68 4.28-2.93 0 .03-.49 7.6-1.02 14.96Zm.43-15.06c-.95 1.03-2.3 1.59-3.43 2.39.05-.17.09-.35.12-.53 2.08-.7 3.95-2.16 4.23-4.46v-.19c.35.88-.29 2.1-.92 2.79Zm.3-4.25c.28-1.05.93-2.04 1.79-2.76.98-.41 2.2-.78 3.13-.26 4.76 2.63-3.14 10.4-3.74 11.13.03-1.02-.34-4.53-.28-4.65.59-1.14.67-3.15-.89-3.46Z" fill="#dead00" data-color="1"/>
    </g>
</svg>
