<?xml version="1.0" encoding="UTF-8"?>
<svg data-bbox="0.001 -0.003 44.241 42.288" viewBox="0 0 44.24 42.28" xmlns="http://www.w3.org/2000/svg" data-type="color">
    <g>
        <path d="M35.89 4.45c-.52-.91-.58-1.99-1.03-2.93-.43-.9-2 .84-2.01.85-1.56-.99-5.08-2.89-5.59-2.24-.79 1.01-.83 3.22-1.41 4.35-.39.77-.65 2.94-.7 3.17-4.19 1.43-8.31 1.99-12.54 4.17-1.94 1-4.03 1.44-6.22 1.61-7.35.56-2.44 3.9.7 3.33-.37.14-7.96 1.42-6.74 4.57.34.8 1.16 1.13 2.21 1.17-.35.17-3.37 1.62-2.35 3.4.89 1.55 5.58.47 7.89-.33-.6.34-1.19.68-1.79 1.01-.92.49-1.86 1.14-2.05 2.23-.02.03-.03.06-.03.1.09 2.54 4.51 1.15 5.95.16-.01.2-.55 3 2.75 1.1.91-.52 3.16-2.72 3.4-2.9-.47.44-2.76 3.77-3.96 4.9-.9.85-2.64 2.88-1.93 4.24v.08c.36 1.34 1.86 1.32 2.79.6.79-.62 1.42-1.63 2.06-2.39.63-.76 1.25-1.51 1.93-2.22-.51.66-6.64 8.5-2.35 8.54 1.61.02 3.16-1.51 3.92-2.81.58-.99 1.38-1.83 2.03-2.79.29-.35.56-.71.83-1.08.06-.07.12-.14.18-.2-.87 1.38-3.85 5.74-2.79 7.38.61.95 1.26.95 2.05.36 3.12-2.31 5.43-5.46 7.03-8.95 1.15-2.53 5.6-8.71 6.48-10.22 2.16.25 4.71.41 6.77-.37 1.32-.49-1.67-7.02-1.69-7.04.7-1.58 4.21-1.68 4.54-2.51.52-1.81-8.32-8.31-8.33-8.33ZM34.58 1.9c.23.71.4 1.45.68 2.14-.69-.49-1.36-.98-2.04-1.43.46-.23.88-.53 1.36-.71ZM9.98 28.5c-.8.31-4.87 1.87-5.12.35-.26-1.48 7.71-5.18 8.81-5.66.23-.1.12-.47-.12-.37C9.31 24.64 2.13 27.11.89 25.44c-1.07-1.43 1.2-2.46 3.22-3.06 2.68-.42 5.92-1.83 6.9-2.12.24-.07.13-.45-.11-.37-.61.18-9.64 3.59-10.11.88-.39-2.22 9.72-4.79 10.01-4.86.25-.06.13-.44-.12-.38-1.16.29-7.91 1.13-7.19-.61.52-1.26 6.16-.71 10.27-3.03 3.49-1.97 7.53-2.5 11.31-3.8-.2.89-.47 1.77-.62 2.67-2.59 3.14-5.73 5.56-7.47 9.33-1.21 2.63-2.83 3.86-4.91 5.76-.7.64-1.85 1.79-2.09 2.64Zm24.07-7.2c-.5-.88-1.6-1.53-2.44-1.92-.3-.14-.54.31-.24.45.84.4 2.03 1.06 2.36 2.01-.12.21-.25.42-.38.64-.52-.46-.99-.98-1.61-1.31-.29-.16-.53.29-.24.45.61.33 1.07.86 1.58 1.3-.12.2-.25.41-.37.62-.18-.28-.4-.5-.71-.66-.29-.15-.54.3-.24.45.31.16.51.4.65.71-1.43 2.36-2.98 4.91-3.58 5.83-2.53 3.89-4.37 8.93-8.57 11.46-2.09 1.25.88-4.85 1.68-6.45.45-.89 2.73-4.03 3.13-4.81.12-.22-.23-.41-.34-.19-.02.04-4.78 5.44-5.43 6.28-.31.4-3.2 4.48-4.75 3.94-1.5-.52 1.2-4.64 2.28-6.48 1.05-1.78 2.53-3.04 3.83-4.6.16-.19-.12-.46-.29-.27-.34.41-2.88 2.39-4.77 4.83-2.66 3.41-4.28 3.6-4.7 2.87-.85-1.47 2.28-3.99 3-4.96.67-.91 4.85-6.2 5.03-6.38.18-.18-.1-.45-.28-.27-1.06 1.05-7.68 7.02-7.98 5.04-.33-2.21 2.69-4.16 3.91-5.37 1.39-1.37 2.32-3.25 3.13-4.99 1.5-3.27 4.62-5.58 6.91-8.3 1.45 1.88 9.33 7.27 10.66 8.12-.02.02-.16.25-.39.62-.85-1.03-2.09-1.7-3.31-2.21-.3-.13-.55.32-.24.45 1.21.5 2.47 1.16 3.27 2.23-.16.26-.34.56-.54.89Zm6.85-.15c-.79.61-3.78.56-5.57.37.26-.38 1.21-1.27 1.14-2.04 1.53-.67 2.87-3.86 2.92-3.91.33.82 1.54 4.5 1.51 5.58Zm2.21-8.57c-.32-.92-1.09-1.77-1.89-2.27-.28-.18-.52.27-.24.45.69.43 1.34 1.15 1.64 1.94-.16.04-.34.09-.52.14-.43-.84-1.17-1.55-1.91-2.12-.26-.2-.61.17-.35.37.66.51 1.35 1.14 1.76 1.89-.19.06-.38.12-.58.19-.46-.89-1.2-1.63-2.11-2.05-.3-.13-.54.31-.24.45.8.36 1.47 1 1.88 1.77-.19.07-.38.15-.56.23-.68-.79-1.49-1.45-2.31-2.1-.26-.2-.61.17-.35.37.77.6 1.54 1.22 2.19 1.95-.23.12-.45.24-.64.37-.59-.83-1.59-1.3-2.45-1.8-.29-.16-.53.28-.24.45.81.46 1.74.88 2.29 1.66-.01.01-.03.02-.04.04-.17.16-.32.32-.46.49-1.04-.71-2.03-1.48-3.17-2.03-.3-.14-.54.31-.24.45 1.11.53 2.09 1.29 3.1 1.99-.14.2-.27.41-.39.62-1.1-.73-2.11-1.6-3.33-2.14-.3-.13-.55.31-.25.45 1.22.54 2.23 1.4 3.33 2.14-.1.18-.19.36-.29.55-.92-.94-2.11-1.55-3.31-2.09-.3-.13-.55.31-.24.45 1.2.53 2.42 1.13 3.31 2.11-.14.27-.29.54-.45.81-1.4-.85-10.07-6.64-10.85-7.5.14-.87.92-5.83 1.55-7.02.3-.57.16-2.86.8-3.06.98-.32 15.06 8.43 16.24 11.77-.03-.03-.27 0-.64.08Z" fill="#dead00" data-color="1"/>
    </g>
</svg>
