<?xml version="1.0" encoding="UTF-8"?>
<svg data-bbox="0 -0.001 981.387 1086.819" viewBox="0 0 981.39 1086.82" xmlns="http://www.w3.org/2000/svg" data-type="color">
    <g>
        <path d="M905.91 570.99c42.75 48.45 57.88 136.81-35.18 113.14-74.42-38.44-149.17-82.24-212.52-137.45-48.26-46.54-74.76-126.46 22.74-117.27 14.27-.09 26.45 6.53 38.49 12.98 65.98 37.41 136.08 69.65 186.47 128.6Zm16.14 97.17c4.43-2.55 4.44-3.62 1.37-9.93-5.67.72-10 3.72-14.39 8.64 3.97 5.74 8.1 3.85 13.03 1.29Zm1.83-23.54c6.83 4.63 5.33-3.4 4-7.62-5.83.95-6.49 3.79-4 7.62Zm-1.69 8.86c-3.79-5.51-5.33-7.74-7.15-10.37-4.73 3.07-8.5 5.51-11.91 7.73.23 12.53 10.59 4.77 19.05 2.65Zm-2.48-20.72c7.98-7.24 7.83-9.43-1.05-21.12-6.97 4.25-7.13 4.34-6.53 6.87 1.26 5.42 2.56 10.88 7.58 14.25Zm-14.92 41.16c-4.37-6.03-4.41-6.09-11.56-1.14-.36.24-.01 1.54.01 2.95 3.74-.58 7.38-1.15 11.55-1.81Zm8.57-36.19c-2.56-6.16-4.65-11.2-7.27-17.49-6.85 2-11.3 4.78-15.76 9.16 2.88 5.29 5.5 10.1 8.73 16.06 5.04-2.73 9.24-4.99 14.3-7.73Zm-3.82-30.2c2.71-1.83 4.88-3.29 7.23-4.87-3.3-6.91-5.62-13.29-12.89-18.98-.22 9.61 1.2 16.47 5.66 23.84Zm-10.87 54.21q-5.07-7.83-16.74-1.6 4.44 9.62 16.74 1.6Zm4.43-48.45c-1.07-9.52-2.66-17.72-7.6-25.6-5.4 3.47-10 6.44-15.68 10.1.72 9.2 2.34 16.94 8.26 24.65 5.06-3.08 10.04-6.12 15.03-9.16Zm-24.84 39.04c5.53-1.43 8.49-1.26 13.33-6.41-2.83-5.02-5.23-9.31-8.23-14.65-4.82 2.24-8.79 4.06-12.93 5.96 1.67 6.98 2.3 11.96 7.82 15.1Zm-15 14.69c4.02 4.55 7.82 7.37 14.04 4.71q-4.19-10.11-14.04-4.71Zm3.53-34.28c5.64-2.95 9.9-5.17 14.65-7.64-2.89-8.13-5.39-15.13-8.38-23.51-5.81 3.74-10.35 6.65-15.28 9.83 2.91 6.89 5.46 12.91 9.01 21.32Zm3.02 22.71c-2.05-4.87-3.73-8.88-6.1-14.49-5.31 2.63-8.7 4.3-13.07 6.46 3.01 4.8 5.3 8.46 7.82 12.48 4.12-1.61 7.23-2.83 11.34-4.45Zm7.81-64.38c25.25-13.13 20.95-17.7 1.83-34.24-16.32 7.09-5.07 21.13-1.83 34.24Zm-29.57 49.8c4.97-2.8 8.26-4.65 11.12-6.26-.08-8.06-2.63-13.84-7.38-18.57-5.35.33-8.95 2.41-10.93 8.3 1.94 4.45 4.14 9.49 7.19 16.53Zm8.37-37.15c6.61-2.08 11.6-5.15 15.5-10.97-2.53-8.06-3.96-16.53-8.67-24.55-6.2 3.64-11.4 6.69-17.8 10.45 3.11 9.82 4.1 18.58 10.97 25.08Zm-23.28 49.2c5.27 5.08 9.6 8.6 17.42 8.82-2.23-4.72-4.01-8.53-5.99-12.75-4.03 1.39-7.12 2.45-11.43 3.93Zm8.39-10.77c-2.29-5.35-4.58-10.69-7.7-17.98-6.88 5.08-11.58 8.55-16.88 12.47 2.92 4.46 5.32 8.13 7.72 11.81 6.12-.9 11.49-1.6 16.85-6.3Zm-4.93-28.42c12.31-4.1 12.79-4.54 10.27-13.41-1.64-5.76-2.33-12.05-7.28-17.04-5.7 1.3-9.62 5.07-14.52 9.65 3.93 7.11 7.79 14.07 11.52 20.81Zm8.39-42.96c7.07-3.82 13.43-6.86 17.74-12.71-.07-10.37-.68-20.05-12.32-27.07-5.42 4.04-10.61 7.92-16.47 12.3 4.51 9.23 4.96 19.17 11.06 27.48Zm-34.58 58.67c8.93-1.83 16.37-4.29 20.68-13.03-4.04-7.02-8.05-14.01-12.39-21.54-7.41 2.87-14.39 5.31-21.84 11.27 4.99 8.57 9.29 15.97 13.55 23.3Zm11.76-46.34c6.58-.19 11.17-2.93 15.27-8.09-.59-9.52-3.99-18.45-8.12-27.74-7.9 1.65-13.23 6.22-18.77 11.33 2.62 8.98 5.65 17.49 11.62 24.51Zm10.35-47.44c4.52-3.73 7.65-6.32 10.97-9.05-4-5.87-8.75-7.79-15.64-9.65 1.67 6.68 2.94 11.81 4.68 18.71Zm-38 96.44c2.07 1.91 5.5 3.16 8.38-2.09-3.92-6.73-8.2-14.1-12.92-22.23-4.34 1.41-7.93 2.58-14.62 4.75 7.85 8.11 13.25 14.13 19.16 19.57Zm32.93-92.34c-2.22-7.19-4.13-13.38-6.54-21.22-8.47 3.97-15.52 6.7-19.71 13.66 1.18 6.34 2.71 12.09 7.26 17.95 6.3-3.44 12.31-6.73 18.99-10.39Zm-33.8 57.51c8.35-1.46 15.77-3.87 22.03-10.66-3.79-8.12-7.41-15.89-11.24-24.09-8.9 2.97-14.85 8.59-22.6 13.28 3.62 8.39 6.22 15.53 11.81 21.47Zm4.98-74.21q12.03-5.6 18.84-14.53c-8.13-4.66-16.19-9.28-25.02-14.33-.85 11.31 1.22 20.39 6.18 28.86Zm2.48 30.55c-1.87-6.08-3.76-12.2-6.18-20.09-8.07 6.72-18.22 6.42-25.13 15.26 2.76 6.2 5.58 12.56 8.49 19.1 9.54-2.19 16.4-6.89 22.81-14.27Zm-28.18 52.18c4.22-1.75 7.9-3.28 12.92-5.36-2.31-8.57-5.74-15.14-12.07-22.75-4 2.24-7.86 4.4-11.42 6.38 1.06 9.95 5.21 15.95 10.56 21.72Zm19.8-77.43c-2.16-6.86-3.96-12.58-6.32-20.06-9.53 5.65-18.03 8.75-24.4 15.65.7 6.21 2.37 10.47 5.23 16.08 9.61-4.06 16.27-7.09 25.5-11.67Zm-27.19 78.9c-3.66-7.24-6.54-12.92-9.56-18.88-5.9.89-10.86.82-15.32 6.12 6.01 7.91 15.1 14.95 24.88 12.76Zm7.37-35c-2.49-8.68-5.02-15.06-9.85-20.61-6.03.92-10.56 3.3-13.97 7.67 1.73 7.52 4.08 14.02 9.51 20.05 4.67-2.32 9.02-4.48 14.31-7.11Zm-12.16-28.05c-.63-6.96-1.35-12.77-6.96-18.08-4.78 2.58-9.42 5.09-14.97 8.08 2.7 5.95 4.91 10.78 7.53 16.57 5.52-2.51 9.91-4.52 14.4-6.57Zm-1.73-28.47c21.49-7.7 39.76-21.96 8.62-31.37-4.61 3.67-8.89 7.09-14.12 11.27 1.7 6.22 3.38 12.38 5.5 20.1Zm-8.22 62.97c-2.42-5.28-4.96-10.8-7.79-16.96q-11.97 2.24-19.52 7.38c5.04 17.13 15.35 21.72 27.31 9.58Zm10.41-97.65c-3.94-1.23-6.19-1.93-9.56-2.98.32 3.22.54 5.46.93 9.3 3.3-2.41 5.38-3.94 8.63-6.32Zm-7 36.93c-2.27-6.78-4.18-12.45-6.33-18.84-7.51 2.94-14.52 4.21-19.57 9.99 1.61 6.97 3.91 12.93 9.58 18.16 5.47-3.12 10.62-6.06 16.32-9.31Zm-14.99 34.15c-1.79-6.2-3.75-10.16-7.04-15.8-7.51 2.58-14.15 4.87-21.68 7.46.92 7.73 2.99 12.63 8.04 16.64 7.14-1.99 14.86-2.15 20.69-8.3Zm-32.02 21.1c4.08 4.76 8.62 7.94 14.82 10.18-4.71-13.79-4.92-13.94-14.82-10.18Zm39.11-82.09c-.82-8.52-1.57-15.5-7.41-20.96-8.91 2.43-14.54 9.08-21.63 14.17 2.64 5.9 2.98 12.3 7.93 16.61 8.26-.46 14.1-5.29 21.12-9.83Zm-16.91 38.44c-1.62-7.03-4.47-12.76-8.8-18.47-8.6 2.98-14 5.22-21.85 10 2.42 5.61 4.59 10.63 7.35 17.01 7.95-4.05 16.49-2.94 23.29-8.54Zm-18.37 34.12c-2.98-6.57-5.38-11.84-8.2-18.03-4.94 1.82-8.81 3.25-12.72 4.7q5.88 14.67 20.93 13.33Zm6.63-88.22c4.76-3.34 9.59-6.73 16.09-11.3-7.42-6.68-13.92-10.93-22.41-11.16-1.66 11.24-1.05 13.5 6.32 22.46Zm.69 28.51c-1.67-6.3-2.59-12.37-8.57-17.03-6.27 2.41-12.7 4.89-19.01 7.32-.43 7.5 1.79 12.91 5.38 18.6 7.79-2.47 15.66-3.65 22.2-8.89Zm-18.95 33.11c-2.16-4.68-4.24-9.18-7.1-15.34-6.38 2.99-10.76 5.05-16.1 7.55 3.15 5.43 5.6 9.67 7.92 13.67 6.19-.75 11.27-.81 15.28-5.88Zm9.1-59.22c-.12-6.76-2.31-12.74-6.54-19.78-7.87 3.55-14.9 5.97-20.66 12.22 1.75 5.75 3.48 11.42 5.51 18.06 8.45-2.5 15.11-5.51 21.7-10.5Zm-34.11 67.93c.94-.47 1.87-.94 2.79-1.4-2.23-4.53-5.32-19.32-11.78-9.9 2.9 3.65 5.95 7.47 8.98 11.29Zm15.09-31.09c-.55-6.47-1.91-12.15-7.41-16.87-5.65 2.38-11.08 4.66-16.2 6.8.57 5.48 1.02 9.82 1.46 14.15l-.12-.06c0 .03-.02.05-.03.08-3.09-3.61-6.19-7.26-9.84-11.54-2.6 1.18-5.54 2.51-9.43 4.26 5.64 7.17 14.33 23.16 19.27 7.27.06.08.11.14.17.2-.01-.07-.01-.15-.02-.23 8.35 4.15 15.34 1.12 22.15-4.08Zm-10.42-53.91c8.2-2.33 15.47-4.29 20.89-11.81-8.53-7.79-10.73-7.23-23.82 5.38.88 1.96 1.86 4.08 2.93 6.43Zm2.26 28.11c-1.76-5.85-2.16-11.57-6.73-16.1-6.59 1.7-12.55 4.01-17.53 8.48.95 5.51 1.33 10 1.15 15.32-.04-.01-.08-.01-.12-.03l-.04.02c-2.31-4.19-4.63-8.39-7.28-13.19-5.85.19-11.28 1.8-15.84 6.41 2.15 5.92 4.59 10.77 10.71 14.41 4.02-2.47 8.22-5.04 12.41-7.63.05.09.09.18.15.26 0-.09 0-.17.01-.26 9.15 1.85 16.5-1.45 23.12-7.69Zm.19-46.48c-3.59-1.81-6.87-2.89-10.12 1.85 4.88.96 6.4.13 10.12-1.85Zm-26.88 30.33c6.95-3.06 12.38-5.45 18.6-8.19-1.88-3.6-3.18-6.08-4.71-8.99-6.41 2.31-12.02 4.34-18.49 6.67 1.57 3.61 2.72 6.22 4.6 10.51Zm-7.76-20.38c7.23.91 12.99-.46 18.24-5.95-6.15-6.71-12.68-7.21-22.03-5.49 1.58 4.75 2.66 8.01 3.8 11.44Zm-15.45 28.91c6.28-1.16 11.96-2.49 16.76-7.57-1.27-3.33-2.47-6.46-4.02-10.54-5.24 1.07-9.9 2.02-14.17 2.89-2.01 6.12-2.63 10.81 1.44 15.22Zm9.57-25.41c-2.22-4.99-3.5-7.88-5.05-11.35-5.75 2.74-8.81 5.59-5.86 12.16 2.98-.22 5.74-.43 10.91-.81Z" fill="#ed8d48" data-color="1"/>
        <path d="M530.21 378.93c9.49 8.03 21.22 11.61 32.37 16.13 12.26 4.96 25.02 8.52 38.58 7.7 5.58-.02 9.93.89 12.95 6.61-19.73 6.84-46.64-1.48-65.31-10.16-10.89-6.48-25.04-6.98-28.76-22.29 4.18.92 7.31 1.61 10.42 2.29l-.24-.28Z" fill="#ed8d48" data-color="1"/>
        <path d="M721.67 950.51c-6.2-2.37-12.08-9.85-19.02-6.1-4.77 2.54-10.26 4.06-13.97 9.37 6.86 8.29 14.11 15.01 23.95 19.47 6.73-3.6 14.87-4.81 20.17-11.94-4.27-4.2-7.81-7.66-11.33-11.13 6.13 2.38 12.25 4.75 18.84 7.3 5.6-2.65 12.1-4.13 16.86-10.66-9.27-6.33-17.91-12.25-27.07-18.5-5.67 3.65-11.11 7.17-16.7 10.78 3.09 4.27 5.65 7.79 8.28 11.42Zm-191.21-571.3c-36.07-29.48-78.74-48.85-113.12-80.75-68.42-48-140.34-92.01-209.14-138.94-.82 6-1.43 10.46-2.1 15.47 75.34 53.39 146.4 111.55 223.87 161.61 45.4 29.74 136.51 92.16 155.19 142.46 7.47-24 6.2-47.58 27.73-62.02 5.07-3.45 10.79-6.94 14.17-14.02-18.27-4.15-35.52-4.32-53.57-9.07-15.14-3.27-28.5-11.07-43.27-15.03l.24.28Zm449.68 290.78c-5.75 44.52-29.06 83.32-39.2 126.57-13.2 63.89-47.89 103.82-98.37 141.96-57.58 37.69-116.28 166.32-191.9 146.17-36.81-9.85-75.67-32.07-88.72-70.83-15.79-46.57-2.96-96.23 3.63-143.43 14.34-111.84-40.93-226.58-4.3-337.06l1.38.36c8.31-25.57 18.09-49.81-.64-73.25-66.56-73.96-154.59-122.13-234.09-180.1-64.42-47.81-127.91-97.26-195.3-140.77C91.8 110.94 46.77 87.22 10.44 52.65-2.87 39.52-5.29 9.92 14.07 2.44c38.78-25.05 193.76 150.42 243.72 175.28 62.19 44.99 129.31 82.36 192.78 125.39 124.28 106.93 125.78 67.36 263.54 100.31 17.36 6.99 32.73 18.95 48.75 28.66 23 15.5 49.46 24.08 72.37 39.7 59.68 47.82 158.42 110.74 144.9 198.21Zm-34.84 67.06c9.22-12.75 15.1-30.62 15.38-47.77-16.14 9.05-21.31 24.54-29.69 37.64 3.58 6.25 7.85 9.95 14.31 10.12Zm-40.65 113.71c1.99-2.82 3.98-5.64 5.99-8.47-.4-.32-.82-.65-1.23-.97-2.31 2.38-4.61 4.75-6.93 7.11.72.78 1.44 1.54 2.17 2.32Zm11.98-28.56c1.75-5.75 3.19-10.48 4.72-15.49-7.86-2.45-14.99-4.67-21.71-6.77q-12.47 8.15-16.69 17.65c11.05 1.53 21.22 6.66 33.68 4.61Zm6.84-23.55c6.57-14.24 6.69-14.77 5.57-26.42-8.29 6.85-15.93 12.39-21.46 22.82 5.94 1.35 10.57 2.4 15.9 3.6Zm43.27-143.14c2.63-6.67 3.48-13.01 1.06-19.45-17.26-50.63-24.45-47.92-59.75-83.46-32.64-35.53-68.31-68.4-112.75-88.23-54.4-26.95-124.94-87.49-181.33-32.37-54.12 96.15 76.44 158.61 140.56 202.97 47.95 22.09 79.52 85.37 139.51 70.34 33.04-2.9 60.48-16.75 72.71-49.79ZM927.5 763.72c4.85-6.09 12.37-9.93 15.35-18.69-5.71-4.11-10.97-7.88-17.94-12.91-5.89 7.89-10.98 14.71-16.26 21.78 4.88 6.26 10.55 9.73 18.85 9.82Zm-37.68 108.77c4.32-3.73 9.38-7.5 9.07-15.71-10.29-1.68-14.35 4.91-18.9 12.19 3.29 4.39 6.62 6.3 9.83 3.52Zm-3.5-24.12c9.02-.86 15.92-8.77 20.7-16.97-11.1-5.06-22.11-7.94-33.5-10.71-6.17 5.12-12.84 9.39-17.69 16.93 9.83 7.06 20.14 9.13 30.49 10.75Zm-16.02 45.69c5.75-4.81 7.47-6.77 11.51-13.11-14.3-4.94-14.7-4.81-25.05 7.47 4.8 2 9.23 3.84 13.54 5.64Zm49.01-122.43c-4.81-6.4-9.93-10.07-16.78-12.57-6.71 6.66-13.13 13.04-21.15 21.02 6.18 4.56 10.5 7.75 15.64 11.54 7.86-7.05 14.96-13.4 22.29-19.99Zm-15.56-22.89c6.69-7.73 13.94-14.14 17.07-25.59-13.51-2.92-32.99-8.37-35.6 9.73 5.27 5.11 9.54 12.73 18.53 15.86Zm-38.01 150.85c-8.3-2.59-13.9-4.33-19.32-6.02-6.92 5.72-14.96 9.15-20.4 17.34 7.38 2.3 13.52 4.21 19.7 6.14 6.22-5.42 11.92-10.39 20.03-17.46Zm1.82-31.21c5.08-4.15 10.42-7 12.39-13.27-10.9-4.71-21.08-9.11-31.69-13.71-5.52 4.21-10.08 6.49-13.94 12.76 10.11 7.42 20.3 12.48 33.24 14.22Zm4.38-55.97c6.74-5.5 14.29-8.73 18.61-17.66-4.66-3.53-8.95-6.79-13.9-10.56-8.33 5.75-14.8 10.35-19.59 18.38 5.26 3.48 9.77 6.46 14.88 9.84Zm4.56-38.18c7.02-5.77 14.66-11.39 19.8-20.26-4.65-7.79-10.95-13.32-17.75-18.43-9.31 5.12-15.16 12.68-21.44 20.89q8.47 11.76 19.38 17.8Zm-20.17 51.57c3.46-2.61 8.42-4.06 9.21-10.21-4.02-2.59-8.22-5.29-14.23-9.14-5.74 5.27-10.9 9.98-16.03 14.69 9.75 11.59 11.33 12.02 21.05 4.66Zm-19.89 95.96c-5.48-2.35-10.98-4.72-17.6-7.57-6.56 6.73-14.9 9.05-19.3 16.49 17.48 10.07 31.21 4.99 36.9-8.92Zm-1.62-39.56c9.35 4.23 16.58 1.15 22.99-7.5-10.67-5.5-20.84-10.74-31.48-16.22-4.29 4.06-7.93 7.5-12.38 11.72 6.04 7.77 14.01 8.9 20.88 12.01Zm-17.48 24.54c6.66-4.83 13.72-8.71 18.99-15.99-17.7-8.69-34.62-23.97-47.39.43 8.58 7.5 17.83 12.29 28.4 15.56Zm32.21-108.75c7.18-6.38 14.52-10.79 19.13-19.34-6-6.17-11.3-11.64-16.7-17.18-9.89 2.43-15.15 10.43-22.85 15.81 4.5 9.84 11.24 16.15 20.42 20.71Zm-23.18 50.7c5.27-4.02 9.98-7.62 15.72-12-4.66-3.93-8.47-7.12-13.17-11.07-6.37 3.39-11.69 6.04-14.81 12.63 4.07 3.48 7.83 6.68 12.26 10.44Zm25.73-97.73c8.18-7.82 15.02-14.37 21.76-20.82-5.06-14.37-17.02-14.64-27.4-17.71-5.27 3.84-10.38 7.2-11.72 15.33 5.01 6.68 10.46 13.99 17.36 23.2ZM785.33 972.4c3.33-1.72 7.09-3.84 6.6-9.48-8.63-3.49-17.42-7.02-26.46-10.65-5.3 2.68-10.76 5.01-16.2 12.6 12.95 2.92 24.87 12.11 36.06 7.53Zm44.91-156.35c4.24-3.97 8.27-7.73 13.54-12.68-7.81-7.79-14.27-14.22-21.04-20.95-6.62 2.75-12.58 6.02-16.82 12.8 7.45 8.12 12.58 17.88 24.32 20.84Zm-14.55 125.69c-16.03-1.56-30.41-11.5-40.56 8.48 18.71 6.19 28.61 13.34 40.56-8.48Zm-4.8-30.77c-11.08-6.08-20.3-11.14-29.64-16.26-7.2 5.11-13.64 7.01-17.47 14.96 24.46 14.54 25 25.02 47.11 1.3Zm9.3-56.44c-4.48-6.78-9.15-10.32-15.95-12.63-4.75 4.15-10.66 6.99-14.97 13.57 5.17 5.02 10.44 8.47 18.07 10.26 3.85-3.36 7.97-6.94 12.85-11.19Zm4.79-82.96c7.99-5.44 15.75-10.05 21.81-18.23-5.87-7.7-11.36-14.89-17.22-22.56q-12.12 6.76-19.18 16.29c4.18 8.21 6.81 17.64 14.59 24.5Zm-19.89 60.52c6.16-3.41 12.51-5.17 16.2-12.3-7.03-7.06-13.72-13.76-20.83-20.86q-11.02 5.18-17.13 13.16c6 7.88 13.91 13.77 21.75 20Zm-46.92 170.19c-8.77-5.32-18.22 6.67-25.81 10.9 12.09 6.54 16.16 4.73 25.81-10.9Zm3.01-60.58c7.79 2.1 17.27-4.99 23.38-12.43-9.64-6.1-18.1-11.47-27.16-17.2-6.99 4.25-13.33 8.11-20.23 12.3 6.39 9.55 15.51 13.1 24.01 17.33Zm38.37-71.29c-7.03-4.86-11.61-7.75-18.57-11.58-6.42 4.07-12.85 6.89-17.56 12.27 14.01 19.6 22.3 13.76 36.13-.69Zm30.1-152.43c2.35-2.56 4.48-4.89 7.43-8.08-5.48-3.57-9.87-6.44-15.27-9.96-.55 8.39 1.96 13.4 7.85 18.04Zm-28.64 69.76c5.99-3.9 12.02-5.57 15.72-11.87-2.46-9.34-7.98-17.16-13.73-26.07-6.54 4.79-12.57 9.2-18.89 13.83 4.04 9.46 8.56 17.17 16.9 24.1Zm-20.57 60.93c6.5-3.01 12.9-5.66 17.09-12.42-6.04-8.64-13.5-15.06-22.3-21.18-5.26 3.93-10.05 7.5-16.1 12.02 6.32 9.42 12.35 16.65 21.3 21.58Zm-8.51 130.88c-24.88-10.31-28.4-20.09-50.82-.35 19.09 16.57 27.05 16.72 50.82.35Zm-17.62-77.1c8.27-2.45 14.36-6.34 19.7-12.91-5.6-6.38-11.65-11.2-19.69-14.49-5.15 3.57-10.06 6.99-16.66 11.57 6.61 6.28 11.64 11.06 16.65 15.83Zm51.55-165.26q10.76-5.58 16.92-15.41c-4.64-10.38-9.32-20.81-14.27-31.9-8.42 4.84-12.82 11.63-18.53 18.43a51793 51793 0 0 0 15.88 28.88Zm-88.3 272.26c8.58-2.19 15.78-4.21 21.34-12.43-21.11-11.64-26.83-20.5-48.03-2.53 9.81 5.5 18.6 10.42 26.69 14.96Zm13.9 13.55c-4.35-3.92-9.32-6.35-14.94-4.35-4.7 1.67-10.78 2.06-12.83 8.38 15.79 7.48 15.9 7.46 27.77-4.03Zm-10.37 18.49q-9.18.83-17.36 5.83c8.2 5.85 13.65 1.88 17.36-5.83Zm73.45-249.02c-5.38-9.26-10.84-16.85-17.6-24.84-6.07 4.62-11.19 8.5-17.66 13.42 7.66 9.73 10.28 16.71 18.96 23.41 5.37-3.95 10.49-7.72 16.3-11.99Zm-22.36 61.7c-2.26-6.87-8.77-10.19-13.28-15.47-8.48-10.79-15.94-2.41-23.7 4.63 2.2 6.38 7.15 9.52 11.08 13.31 9.82 11.48 16.89 7.02 25.89-2.47Zm-41.28 65.31c6.03-3.53 12.36-7.24 19.99-11.71-6.64-8.39-12.23-13.95-19.36-18.35-7.03 4.33-14.98 6.27-20.1 13.42 5.18 7.34 11.09 12.55 19.47 16.63Zm-26.83 137.17c-11.98-6.4-20.19-5.15-27.4 4.43 10.52 8.04 17.77 1.17 27.4-4.43Zm95.98-313.48c-5.21-10.67-6.29-22.56-17.68-29.76-6.55 4.88-13.02 9.71-20.8 15.51 6.99 11.59 9.28 19.66 19.1 28.56 6.67-4.93 12.71-9.39 19.38-14.31Zm-46.6 77.89c6.83-1.97 12.78-5.34 17.45-12.98-5.5-7.05-11.07-14.2-17.32-22.23-6.38 4.53-12.03 8.54-18.48 13.11 6.96 8.2 9.73 17.24 18.35 22.11Zm-19.6 57.96c5.69-1.61 10.62-4.62 15.14-10.19-5.83-6.09-11.22-11.99-16.91-17.58-6.05-5.89-12.1.59-18.15 4.12 6.2 12.91 9.63 16.91 19.92 23.65Zm-27.19 158.23c-13.56-10.58-16.38-10.66-29.02-1.55q14.48 10.55 29.02 1.55Zm3.25-25.05c-8.44-7.1-18.41-10.81-27.03-16.79-4.54 2.38-8.75 3.29-11.57 7.27 1.28 4.89 5.94 6.87 9.35 10.06 11.78 8.95 14.61 8.92 29.25-.54Zm76.99-312.15c5.75-4.97 10.68-9.24 15.67-13.55-11.38-10.53-17.31-14.46-27.67-17.92.69 12.07 5.38 21.55 11.99 31.47Zm-33.14 74.76c7.45-2.66 13.5-6.84 19.34-13.78-6.37-9.53-10.03-20.58-18.95-28.52-6.82 5.4-12.68 10.03-18.54 14.68 4.44 10.96 10.09 19.89 18.15 27.62Zm-86.45 281.23c5.78-2.34 10.8-3.32 13.74-7.94-13.69-13.36-14.52-13.49-28.53-3.76 5.82 4.61 10.49 8.3 14.79 11.7Zm2.54 11.25c.11-.01.01-2.39-.1-2.4-2.79.14-5.06-1.27-7.13 1.52 2.27 2.62 4.45.97 7.23.88Zm12.07-80.73c7.35-1.87 15.17-3.22 22.13-10.4-7.98-7.01-15.39-13.51-23.15-20.33-7.1 3.16-13.34 5.94-20.89 9.3 7.57 8.24 12.41 16.7 21.91 21.43Zm45.46-148.91c7.58-2.91 13.85-5.72 18.9-12.63-5.79-7.37-11.32-14.43-17.07-21.77-8.4 3.57-14.91 7.83-21.26 14.27 6.95 7.19 13.23 13.7 19.43 20.14Zm32.58-115.54c6.86-5.51 13.11-10.53 20.35-16.35-5.55-10.06-5.81-20.37-12.79-28.05-10.04 4.28-14.61 14.17-22.85 19.31 2.68 10.35 7.41 18.29 15.28 25.08Zm-57.85 172.97c15.56-4.93 15.82-5.09 23.47-14.19-6.01-6.57-12.11-13.23-17.74-19.38-10.13.87-15.64 6.91-22.79 12.02 5.98 7.56 11.32 14.31 17.05 21.55Zm21.94 27.99c-6.53-6.45-12.88-12.73-19.13-18.9-7.2 2.4-13.1 4.7-17.4 8.85 3.05 5.96 5.7 11.1 8.35 16.24-.02-.02-.05-.03-.07-.04.03.08.08.15.11.23-14.31-11.8-16.96-16.49-33.94-3.91 5.4 9.01 12.13 15 18.81 21.25 7.24-2.48 13.94-4.43 18.61-10.04-1.37-2.87-2.43-5.1-3.48-7.3.03.02.06.05.09.07-.04-.08-.09-.18-.14-.26 10.94 6.55 19.75 2.83 28.18-6.2Zm21.77-141.78c.63-.56.62-1.84 1.1-3.43-5.72-8.6-11.63-17.46-18.25-27.38-8.33 4.69-15.67 7.02-20.35 13.78 2.23 5.9 5.32 10.01 9.05 14.77 12.55 15.57 13.8 15.66 28.45 2.26Zm-62.1 240.57c-8.37-6.68-15.37-12.27-22.9-18.29-5.55 2.74-10.77 5.3-17.6 8.66 14.3 9.17 23.37 22.37 40.49 9.63Zm-25.83 35.89c-4.46-4.63-8.52-8.03-13.94-11.77-4.35 1.45-8.46 2.83-14.26 4.76 15.43 14.57 17.38 14.99 28.19 7Zm51.44-207.25c3.7-2.43 7.77-5.1 12.4-8.15-7.42-7.81-12.08-16.5-21.37-22.11-4.18 2.23-8.48 4.5-14.37 7.65 8.42 7.84 12.69 17.46 23.34 22.61Zm20.43-111.09c9.08-2.41 15.36-7 22.07-13.51-5.21-7.62-6.39-17.11-14.33-23.31-7.98 3.37-14.97 7.76-21.13 14.5 4.65 7.74 8.97 14.93 13.39 22.32Zm-48.53 167.93 16.53-9.6c-6.87-7.77-12.85-14.55-19.34-21.89-6.17 3-11.52 5.59-18.95 9.2 7.96 8.89 11.94 18.01 21.76 22.28Zm-26.1 82.79c5.58 5.19 11.72 5.47 18.95-1.35-5.79-6.28-10.93-11.93-16.15-17.52-5.41-6.22-11.99-1-18.38 1.39 3.43 8.27 10.12 12.41 15.58 17.48Zm47.26-180.17c7.75-3.74 15.22-6.47 20.82-13.41-6.58-11.36-14.49-20.98-22.62-29.9-8.28 1.42-13.84 5.45-18.95 11.19 4.64 12.32 13.27 21.51 20.75 32.12Zm-65.16 221.2c7.72 6.41 9.02 6.3 20.45-1.09-10.74-7.11-19.68-23.58-33.25-10.55 4.66 4.26 8.57 8.14 12.79 11.64Zm16.76-73.29c8.23-1.09 15.02-2.26 20.9-8.22-14.68-13.19-16.9-29.51-37.64-13.71 6.09 7.98 11.53 15.1 16.74 21.94Zm88.25-267.29c7.86-7.09 15.7-14.15 23.07-20.79-.61-19.58-16.25-22.89-27.72-31.91-5.32 5.46-9.86 10.12-15.46 15.88 3.75 7.31 6.49 13.39 9.88 19.07 3.29 5.51 2.63 13.32 10.24 17.75Zm-63.33 177.54c7.78-4.12 14.79-7.84 23.31-12.35-7.28-10.21-13.62-18.51-22.5-24.84-6.89 3.8-13.27 7.32-20.76 11.46 7.01 9.04 13.13 16.93 19.95 25.73Zm-41.38 137.13c5.18-2.21 11.16-2.72 16.45-7.93-8.02-7.69-15.52-14.87-22.97-22-5.24 1.88-9.43 3.39-14.68 5.27 4.93 11.41 11.97 18.34 21.2 24.66Zm18.71-86.87c5.55-1.97 12.1-2.6 17.57-8.08-7.3-7.67-14.19-14.93-20.77-21.83-6.51-.68-11.26 1.39-15.19 6.09 3.68 9.65 8.22 18.52 18.39 23.82Zm46.47-161.56c8.18-5.13 15.68-7.15 20.98-13.67-3.04-8.61-7.95-15.61-13.36-22.77-9.12 2.07-15.74 7.06-22.12 14.61 4.66 7.01 9.13 13.74 14.5 21.83Zm-98.99 268.92c10.53 10.26 15.75 23.99 33.2 13.12-11.05-7.52-19.85-24.48-33.2-13.12ZM714.7 709.9c7.18-5.61 12.88-10.08 19.9-15.58-4.61-12.04-8.6-23.62-15.96-34.7q-14.18 7.44-22.68 20.5c5.78 10.94 10.66 18.51 18.74 29.77Zm-30.55 111.36c3.18-1.84 7-4.06 11.93-6.91-7.23-11.3-14.01-21.88-21.06-32.88-5.4 1.81-10.76 2.78-14.73 6.75 1.3 5.21 2.49 9.88 3.67 14.51a.36.36 0 0 1-.1-.07l.15.3c-4.13-3.5-8.27-6.99-12.8-10.83-6.69 3.47-13.97 5.52-19.56 12.35l22.69 30.5c8.02-2.39 15.29-4.27 20.24-10.04-3.72-7.73-7.15-14.85-10.56-21.98.01 0 0 .01.02.02-.02-.09-.04-.16-.06-.25 7.75 4.59 9.5 15.69 20.19 18.52Zm-28.68 56.84c6.18-1.61 12.1-2.69 16.82-8.59-5.32-9.07-10.9-17.39-19.57-25.25-6.28 3.27-12.6 4.08-16.1 10.51 4.35 9.37 10.16 17.41 18.85 23.32Zm-38.19 67.58c7 12.55 12.4 27.86 29.93 13.86-5.11-6.9-10.17-13.74-15-20.28-6.24-.43-10.76 1.13-14.93 6.41Zm16.78-17.9c5.51-.96 10.5-1.58 14.51-6.35-6.73-8.69-13.21-17.06-19.83-25.62-4.56 1.7-8.3 3.08-13.3 4.94 4.09 11.97 10.77 20.04 18.62 27.02Zm-38.58 59.21c6.28 13.1 17.71 31.87 33.31 20.27-7.28-8.47-14.09-16.38-21.06-24.48-4.53 1.56-8.16 2.81-12.26 4.21Zm125.51-340.87c4.5-5.26 6.89-8.09 9.57-11.22-4.69-3.65-7.64-7.86-14.21-7.8 1.46 5.99 2.67 10.89 4.65 19.02Zm-42.84 125.03c5.48-5.12 12.98-6.13 18.08-12.73-4.63-7.03-9.05-13.74-13.99-21.25-6.04 3.1-11.32 5.81-17.55 9 2.88 10.48 6.24 18.17 13.46 24.98Zm-92.9 255.51c8.25 14.79 14.23 19.07 25.46 17.4-8.02-6.91-13.34-22.37-25.46-17.4Zm23.52-53.21c5.91-.24 11.14-.77 15.51-5.32-11.52-15.27-10.55-26.74-31.61-16.33 6.42 8.62 11.21 15.07 16.1 21.65Zm99.05-260.89c-7.36-9.6-10.22-20.32-18.37-28.3-9.1 4.22-17.18 8.84-22.68 17.35 15.99 26.05 13.77 30.31 41.05 10.95Zm-76.67 173.75c8.36-1.49 8.36-1.52 14.53-6.25-5.05-8.47-9.52-17.4-18.73-23.8-3.71 1.71-7.25 3.35-13.1 6.05 7.19 9.97 12.39 17.19 17.3 24Zm82.99-236.58c-1.85-9.29-3.62-18.27-5.86-29.55-10.38 10.41-19.48 18.46-26.07 28.95 1.88 7.86 4.87 14.67 10.24 22.25 7.54-7.73 16.88-12.11 21.69-21.65ZM578.49 991.74c1.69 10.13 14.72 31.57 26.78 21.38-6.77-6.35-17.03-32.06-26.78-21.38ZM655.4 782.1c4.54-2.08 10.12-2.99 13.54-8.69-3.5-7.7-5.62-16.09-10.98-22.86-7.36 1.63-13.36 3.74-17.48 8.07 1.31 5.75 2.38 10.49 3.45 15.21-.04-.03-.06-.05-.1-.08.02.06.03.11.05.18-3.75-3.84-7.49-7.68-11.25-11.55-7.42 3.12-14.67 5.21-20.8 11.43 4.82 7.84 9.28 15.09 13.87 22.55 8.15-2.91 15.28-5.24 21.08-10.56-1.05-4.26-1.97-8.07-2.9-11.87.03.04.07.08.1.11-.01-.07-.04-.14-.05-.21 3.59 2.58 7.2 5.18 11.47 8.27Zm-42.32 154.47c4.49-1.65 8.63-3.18 13.57-5-4.57-10.85-12.23-18.52-17.62-27.66-5.43.2-10.4.35-15.19 4.05 5.58 10.44 10.36 20.5 19.24 28.62Zm48.71-197.59c5.43-2.06 10.91-3.33 14.57-9.48-4.86-7.97-9.78-16.03-15.13-24.8-5.2 3.01-9.46 5.49-14.53 8.43 3.53 10.92 6.72 19.92 15.09 25.85Zm-29.42 107.35c4.91-2.2 10.29-4.59 16.34-7.29-8.11-12.31-12.29-22.88-23.66-32.01-4.72 2.07-9.29 4.09-13.79 6.06 4.52 14.63 8.19 20.44 21.12 33.24Zm-52.36 170.05c.32.42 2.2-.36 4.38-.78-3.15-4.03-5.61-7.17-8.06-10.3-.9.49-1.79.98-2.69 1.47 2.09 3.23 4.07 6.54 6.37 9.6Zm31.6-123.4c3.7-.85 7.38-1.69 13.35-3.06-6.04-9.65-10.8-17.25-15.31-24.46-5.22.03-8.8.96-9.2 2.52 4.32 9.68 7.58 16.98 11.16 25.01Zm-22.56 87.11 11.79-4.8c-4.44-8.48-8.51-15.85-16.83-22.03-2.57 1.38-5.17 2.78-7.87 4.22 3.4 9.14 7.67 15.78 12.91 22.61Zm2.27-34.78c3.9-1.88 7.78-3.75 13.18-6.36-5.33-8.85-9.34-15.86-13.7-22.62-4.67-7.26-5.87-7.29-16.22-1.75 5.12 10.11 6.65 22.13 16.73 30.74Zm72.27-251.8c7.93-6.3 16.18-10.13 21.95-17.8-3.23-7.05-5.08-14.39-10.73-20.58-7.88 6.3-14.95 11.94-22.36 17.86 3.68 6.78 6.78 12.49 11.13 20.52Zm15.96-53.64c9.95-7.69 17.75-15.11 21.94-25.98-6.22-6.13-12.45-10.77-20.31-13.41l-11.33 15.4c2.76 7.98 3.21 16.29 9.7 23.99ZM613.8 855.42c3.59-2.26 6.76-4.27 10.62-6.69-8.07-10.93-12.45-22.97-21.44-31.54-4.63 1.09-5.8 1.62-8.92 5.02 5.39 11.52 6.83 25.3 19.74 33.2Zm-45.32 105.87c-3.99 9.7 3 28.48 11.64 17.41-3.33-4.98-6.67-9.99-11.64-17.41Zm20.47-61.55c5.72-1.68 9.89-2.91 14.65-4.33-2.18-9.94-6.12-17.77-12.37-24.08-5.28.1-9.8.11-13.31 6 3.2 6.51 6.73 13.66 11.03 22.41Zm47.67-147.87c5.73-2.9 11.01-5.55 17.35-8.74-4.87-8.86-9.17-16.7-14.01-25.5-7 3.74-13.09 7-20.61 11.01 5.15 9.51 9.78 17.08 17.27 23.24Zm36.03-104.76c-2.8-8.24-5.56-16.32-9.07-26.59-10.76 7.53-20.73 12.32-27.95 21.78 4.4 7.84 8.54 15.21 12.77 22.73 10.38-3.69 17.07-10.41 24.25-17.93ZM581.77 946.8c-3.24-6.81-6.45-13.55-9.65-20.3l-2.31.42c-.4 9.94-5.44 27.85 11.96 19.88Zm62.01-239.42c4.47-2.98 8.94-5.96 14.31-9.52-4-7.13-7.41-13.24-11.2-20.01-5.86 2.35-10.93 4.38-17.85 7.15 4.98 8.39 6.99 16.54 14.74 22.38Zm-48.06 153.87c2.46-1.06 5.11-2.19 8.01-3.44-6.94-11.87-8.38-25.91-19.53-33.62-4.94 14.23-2.24 22.54 11.52 37.06Zm9.57-54.38c6.39-.39 11.03-2.76 14.98-8-3.72-8.64-9.43-15.68-15.09-24.15-4.77 2.03-9.23 3.93-14.08 6 3.19 10.51 7.63 18.86 14.19 26.15Zm-31.72 98.81c3.23-.81 5.07-1.27 9.2-2.31-2.82-3.92-2.35-8.08-7.82-8.36-.46 3.61-.86 6.67-1.38 10.67Zm93.7-300.45c11.04-2.61 7.74-17.39-2.67-12.79.85 4.05 1.73 8.29 2.67 12.79Zm-61.12 159.28c9.47-1.89 16.49-5.18 24.05-10.75-7.71-6.89-9.71-16.85-18.59-21.44-6.08 1.77-10.98 4.95-15.67 10.3 3.32 7.11 6.52 13.97 10.21 21.89Zm9.39-42.7c7.27-2.65 13.88-5.89 20.43-11.4-4.09-6.87-7.91-13.29-12.28-20.64-9.26 2.98-16.8 5.29-22.75 11.27 2.83 8.89 6.33 16.46 14.6 20.76Zm45.41-108.74c-1.12-11.26-3.36-21.79-7.42-33.34-11.58 10.81-21.98 20.5-33.27 31.03 3.71 8.32 6.27 15.98 11.58 22.93 10.95-5.93 20.79-11.96 29.11-20.61Zm-73.41 196.39c3.24 3.75 4.36 3.67 11.56-.55-4.98-8.02-9.91-15.99-16-25.8-3.48 11.46-1.63 19.33 4.44 26.35Zm54.59-137.77c-2.86-10.88-7.22-19.57-15.34-26.33-5.68 2.29-10.65 4.42-13.99 10.54 4.21 7.29 8.44 14.65 13.24 23.01 5.88-2.64 10.78-4.83 16.09-7.22Zm-50.74 64.15c6.52-4.02 11.11-6.85 16.07-9.88-3.46-8.87-7.05-16.48-14.19-23.1-4.42 2.5-8.59 4.87-13.24 7.51 3.77 8.47 7.05 15.82 11.36 25.47Zm-13.7 13.98c1.81 14.88 6.33 32.11 23.08 16.86-4.13-7.58-7.92-14.54-11.97-21.99-3.91 1.8-6.99 3.23-11.11 5.13Zm20.6-57.84c7.32-2.96 14.74-4.59 20.36-11.95-5.54-7.26-6.98-16.89-15.07-22.38-7.45.54-11.58 6.6-19.12 9.4 4.71 9.49 5.18 19.3 13.83 24.93Zm50.17-116.5c-3.75-4.54-6.77-9.58-12.22-12.52-9.39 6.24-18.01 12.35-25.41 19.83 1.55 7.12 2.85 13.49 7.91 19.18 10.99-7.6 20.51-15.84 29.72-26.5Zm-23.88 61.99c-3.55-8.39-6.7-15.81-10.33-24.39-6.84 3.95-12.77 7.4-18.94 10.97 3.67 8.54 5.01 16.89 13.64 22.23 4.82-2.71 9.95-5.6 15.63-8.81Zm-52.03 78.04c1.05 6.13.51 32.79 11.37 20.99-3.51-7.42-5.8-14.97-11.37-20.99Zm3.91-14.73q8.04-1.77 14.18-7.33c-4.1-7.71-8.33-15.65-13.03-24.52-4.84 2.53-8.62 4.52-12.61 6.62 3.47 9.55 5.32 18.56 11.46 25.23ZM609 573.73c8.92-4.62 16.32-10.29 23.09-18.35-4.82-4.64-9.08-8.75-14.18-13.68-5.9 5.06-11.16 9.57-16.38 14.03 1.2 6.93 3.13 12.52 7.47 18Zm-28.1 84.81c7.78-.84 13.59-3.89 18.12-10.12-3.54-7.75-6.77-13.3-11.42-20.61-4.66 1.79-8.73 3.38-13.12 5.07-.62 9.74 3.03 17.43 6.42 25.66Zm29.74-53.03c-2.16-6.1-4.17-11.79-6.62-18.72-8.04 2.08-13.92 4.41-18.93 9.3 3.11 6.76 2.5 14.49 8.52 19.86 6.61-2.26 12.17-5.26 17.02-10.43Zm-45.48 60.13c3.8-1.45 6.44-2.45 9.86-3.75-4.32-10.03-3.06-19.41-11.92-25.92-3.14 10.72-2.84 19.42 2.06 29.67Zm33.72-119.73c6.32-.75 9.54-4.18 12.29-10.11-4.75-6.51-9.62-13.18-15.48-21.22-3.6 12.37-2.5 21.97 3.19 31.34Zm-15.46 40.76c7.09-1.17 13.01-3.22 17.35-9.41-1.95-5.82-3.86-11.53-6-17.92-6.96.83-13.17 1.47-18.58 5.74.1 8.34 2.49 15.23 7.23 21.6Zm-12.07 38.35c4.31-1.32 8.49-2.6 13.9-4.26-2.67-8.16-5-15.3-7.65-23.45-5.66 1.81-10.22 3.28-15.4 4.94 2.9 8.29 2.91 16.26 9.16 22.77Zm4.14-70.64c5.87-.09 11.22-.47 15.23-4.87-1.85-10.68-3.58-20.72-5.58-32.3-8.02 11.82-15.71 22.26-9.65 37.17Zm-10.63 38.41c2.94-1.01 6.01-2.05 9.58-3.27-2.04-7.22-3.82-13.51-5.48-19.37-1.55-.86-2.21-1.51-2.88.01-.13 6.82-5.07 17.04-1.21 22.63ZM193.69 164.7c1.65-5.42 3.07-10.08 4.4-14.43q-11.71-13.37-21.47-16.73c-1.07 5.45-2.12 10.79-3.12 15.85 5.85 6.83 11.97 11.69 20.19 15.3Zm-26.71-21.49c3.94-4.86 7.21-9.97 3.69-19.2-3.36 7.71-5.56 12.88-3.69 19.2Zm-9.71-1.68c10.81-17.56 5.64-29.53-8.56-39.15-5.26-3.57-8.91-9.66-16.18-10.88-13.35 38.94-7.15 26.51 24.74 50.03Zm-43.31-29.29c2.55 1.56 5.12-.41 5.89-3 1-9.02 13.07-27.15-2.71-28.61-1.52 8.49-11.13 25.7-3.17 31.61Zm-12.97-8.33c7.47-11.72 9.07-17.03 9.72-32.26C86.67 50.93 62.28 31.29 35.7 15.2c-12.25-7.28-25.33 9.43-17.95 20.6 8.15 11.84 20.66 19.73 31.51 28.84 17.43 12.45 32.31 30.31 51.73 39.26Z" fill="#ed8d48" data-color="1"/>
    </g>
</svg>
