<?xml version="1.0" encoding="UTF-8"?>
<svg data-bbox="0.003 0 763.652 587.302" viewBox="0 0 763.66 587.3" xmlns="http://www.w3.org/2000/svg" data-type="color">
    <g>
        <path d="M235.09 35.35c-1.4-.34-2.8-.68-4.21-1.02.02-.19.01-.39 0-.59-15.87 1.14-31.74 3-47.48 5.36 20.54-.92 41.08-1.81 61.63-2.6-3.22-.61-6.35-1.44-9.94-1.15Z" fill="#ed8d4a" data-color="1"/>
        <path d="M666.95 52.82c-.26 1.13-.76 2.1-1.48 2.92 13.19-1.08 27.16-1.71 39.71-6.21-13.78-.51-24.43 1.54-38.22 3.28Z" fill="#ed8d4a" data-color="1"/>
        <path d="M720.28 42.15c-.2.38-.42.74-.67 1.1l5.74-2.81-4.24-.4c-.18.74-.45 1.45-.83 2.11Z" fill="#ed8d4a" data-color="1"/>
        <path d="M93.32 40.56c.92-.56 1.85-1.12 2.77-1.69-2.11.15-40.62 1.13-41.42 4.71-.01.05 82.39-2.75 92.19-3.87 2.34-.31 4.68-.58 7.03-.82.07-.07.13-.15.2-.22 19.12.67 39.24-4.34 58.32-6.15-10.66.43-118.78 9.39-119.1 8.03Z" fill="#ed8d4a" data-color="1"/>
        <path d="M242.89 32.81c.47.59.93 1.18 1.4 1.77 1.66-.29 3.3-.14 4.93.45.04.38.09.75.13 1.13-1-.02-2.01-.03-3.01-.05-.07.12-.17.23-.25.35 49.87-1.56 99.74-3.89 149.63-4.85 1.17-1.01 2.26-1.03 3.27-.06 26.58-.48 53.22-1.01 79.8-.52-.01-.16.01-.32.05-.48-78.83-2.76-157.16-2.83-235.95 2.26Zm81.75-1.95-.38-.35.62-.05-.23.4Zm8.18-.04c-.3.37-.68.64-1.14.81.13.02.26.03.39.04-1.29-.03-3.75 1.11-4.75-.22-1.4-1.84 6.86-3.64 5.51-.63Z" fill="#ed8d4a" data-color="1"/>
        <path d="M675.44 36.36c2.74.35 24.19 2.72 23.92 3.99-.77 3.59-81.28-6.62-88.61-7.38-42.1-4.4-84.98-4.72-127.34-5.73 8.6.57 17.18 1.33 25.78 1.87 66 5.01 132.15 7.93 198.02 14.43-2.67 1.05-5.41 1.98-8.2 2.84 4.62.6 8.05 1.15 10.08 1.65 3.7-1.86 6.97-4.59 8.86-8.28-13.7-1.3-27.39-2.68-41.1-3.89-.48.25-.96.42-1.42.51Z" fill="#ed8d4a" data-color="1"/>
        <path d="M671.96 35.9c-2.53-.97-5.04-.84-7.83-1.05 2.61.32 5.22.67 7.83 1.05Z" fill="#ed8d4a" data-color="1"/>
        <path d="m489.27 31.27 4.41.12c-1.53-.56-3-.6-4.41-.12Z" fill="#ed8d4a" data-color="1"/>
        <path d="M661.2 53.5c-24.92 2.75-50.06 3.35-75.05 4.78l-.05-.08c-89.83 3.6-179.76.9-269.62-.14-42.86-.49-85.67-1.82-128.52-2.66-22.79-.44-45.6-.11-68.39-.62-5.13-.11-51.75-7.94-51.19-8.62-1.49 1.28 31.13 11.92 33.66 12.29 18.14 2.61 36.93 2.24 55.21 2.81 31.49.99 62.97 2.64 94.47 3.17 1.22-1.06 2.33-1.04 3.34.06 14.62.12 29.24.26 43.86.4-.06-.97-.11-1.94-.17-2.91 1.57-.16 3.15-.33 4.73-.48 1.67 1.14 3.26 2.29 4.38 3.5 51.8.65 103.57.84 155.33-.82 17.1-.55 141.81-3.96 141.81-3.9-.38 5.09-111.35 5.69-121.51 5.94 48.81-.2 97.59-1.54 146.3-4.82-2.35-.13-4.6-.71-6.75-1.74-.37-2.35 24.13-2.38 25.96-2.48-1.17-1.26 4.72-3.89 5.16-1.11-.16.28-.38.55-.66.79 2.99-.25 5.97-.53 8.96-.82-1.04-.5-1.45-1.35-1.24-2.53Zm-304.08 9.7c1.22-1.64 2.15-1.53 2.77.33-1.23 2.39-4.45 1.34-2.77-.33Zm32.01-1.14c.23-.06.5-.19.67-.15.17.03.23.22.34.34-.44.3-.78.24-1.01-.19Z" fill="#ed8d4a" data-color="1"/>
        <path d="M480.98 569.52c-.58 1.61-1.17 3.22-1.75 4.83 3.56-1.36 7.05-2.85 10.46-4.41-2.84-.81-5.75-.95-8.71-.41Z" fill="#ed8d4a" data-color="1"/>
        <path d="M339.91 431.02c.15.14.31.27.46.41.88-.14 1.76-.27 2.63-.41-.99.07-2.03.06-3.09 0Z" fill="#ed8d4a" data-color="1"/>
        <path d="M192.86 91.1c23.33.38 46.89 2.46 70.2 1.13-25.99-.33-51.97-1.04-77.96-1.33 2.59.08 5.17.15 7.77.2Z" fill="#ed8d4a" data-color="1"/>
        <path d="M437.56 436.72c.66.04 1.33.06 1.99.06v-.03s.05.02.07.02c.66-1.06 1.19-1.87 1.75-2.45-1.53.59-3.08 1.16-4.64 1.73.3.2.58.42.83.66Z" fill="#ed8d4a" data-color="1"/>
        <path d="M344.92 430.73c.15-.02.3-.05.45-.07-.02-.02-.03-.03-.05-.04l-.4.12Z" fill="#ed8d4a" data-color="1"/>
        <path d="M741.72 29.78c-.22-1.73-.56-3.43-1.04-5.11-.37-.15-11.28-2.92-10.99.32-.09-.98 13.7 6.16 12.02 4.79Z" fill="#ed8d4a" data-color="1"/>
        <path d="M594.88 291.25c.27-.03.53-.06.82-.1l-.06-.3c-.26.13-.5.27-.76.39Z" fill="#ed8d4a" data-color="1"/>
        <path d="M744.02 26.47c.52 2.14.82 4.33.91 6.55 11.22 14.02-1.94 32.1-15.31 38.67-.34-2.29-.78-3.98-1.34-5.06a47.756 47.756 0 0 1-5.16 3.25c-.52 1.4-1.04 3.09-1.54 5.08-25.75 8.45-56.28 9.45-83.03 12.58-35.68 4.17-71.49 6.44-107.41 6.62.41.31.86.68 1.34.99-1.78 1.51-3.79 2.49-6.03 2.92 5.75-.06 11.49-.06 17.23-.06 2.14 8.49 13.61 19.77 20.42 25.63-24.15 9.19-47.51 20.75-71.27 30.9-3.9-3.94-53.25-56.02-54.98-54.56-6.67 5.65 44.26 53.4 48.38 57.38-.19.08-.39.16-.58.25 4-1.41 6.78-.77 8.34 1.92-1.41.91-2.94 1.2-4.6.87 13.18 12.71 27.05 24.65 40.99 36.52-24.16 9.71-47.73 20.65-71.7 30.74 2.67.18 5.3.6 7.89 1.28 22.13-10.3 44.44-20.02 67.08-29.16 12.67 11.91 26.31 22.22 39.55 33.46-22.83 12.12-46.08 23.01-69.43 34.04-14.65-11.7-29.09-23.05-42.97-35.72.94-.41 1.86-.84 2.79-1.26-2.34-.17-4.29-.76-5.12-2.55-.46.19-.9.38-1.36.57-14.3-12.24-28.32-24.92-41.77-38.1 2.67-1.22 5.29-2.45 7.82-3.59 21.56-9.9 44.26-17.18 66.15-26.26-.52-.11-1.05-.27-1.59-.5-.7-.75-1.4-1.5-2.09-2.26-6.55 2.78-13.14 5.39-19.82 7.83 5.2 4.57-6.7 4.1-8.62 3.21-15.15 5.83-30.28 11.69-45.11 18.29-11.46-11.45-23.09-22.89-33.99-34.87-.39.52-.58.95-.56 1.34-.02-.39.17-.82.56-1.34-.94-1.03-1.84-2-2.67-2.9-1.03.07-2.05.13-3.08.19-.79.36-1.59.73-2.38 1.09-.49.59-.88 1.22-1.49 1.77 2.82 2.92 5.53 5.96 8.42 8.81.8-.54 1.53-1.18 2.18-1.91 3.07.83 3.1 2.16 2.05 3.66-.74.13-1.48.2-2.23.21 9.07 8.77 17.79 17.88 26.86 26.65-23.4 9.52-47.45 17.38-71.03 26.44-7.76-6.62-15.42-13.37-23-20.2-1.72 1.74-6.31-1.09-3.57-3.22-7.97-7.18-15.85-14.44-23.89-21.55 11.38-5.11 22.34-11.02 33.84-15.93-.33-.24-.69-.46-.96-.72-2.64.07-.14-2.15 1.75-.52.54.01.98.14 1.36.34a506.446 506.446 0 0 0 35.82-16.14c.85 1.24 1.77 2.43 2.75 3.57 2.32-.37 11.29 2.37 11.92 2.48-2.83-3-5.66-5.99-8.18-9.27 24.11-11.7 49.33-21.6 72.34-35.46 29.74.17 59.51-.93 89.25-1.41-4.5-.8.38-3.42 2.16-3.89-6.62.07-13.24.19-19.87.21-1.21 3.34-9.83 2.29-8.55.03-18.73.06-37.44.86-56.17.55.81-.96 1.61-1.93 2.42-2.89-3.57-.15-6.89.77-9.95 2.77-7.15-.12-14.31-.2-21.46-.36.45.79.81 1.62 1.28 2.41-1.07-.08-10.64-1.73-11.96-2.76-20.6-.82-41.2-.95-61.81-1.11 5 1.02 7.12 3.06 7.97 5.56 25.46-.04 50.89.67 76.34.82-21.55 10.72-43.3 20.95-64.69 31.96-8.19-10.7-18.24-24.84-29.06-32.75 2.07 0 4.18 0 6.27-.01.07-2.16 1.13-4.02 3.17-5.58h-.53c-.5-.35-15.18 1.32-18.31 1.3-11.54-.08-23.07-.35-34.61-.24-20.18.19-40.25.79-60.45.36-45.57-.98-93.71 2.94-138.83-4.59 8.76 1.54 17.52 3.15 26.34 4.39 2.08 4.7 4.78 9.31 7.35 13.73-16.76 6.03-34.22 10.94-50.79 17.63-1.6-8.69-2.81-17.47-4.32-26.18 5.93-3.94 12.8-6.44 18.6-10.09-1.6-.31-3.15-.64-4.65-.98-.9.32-1.68.13-2.31-.56-1.47-.37-18-6.03-17.09-7.27-.06.11 5.99.93 14.28 1.97-.18-.29-.19-.55.09-.7 1.34-.6 2.29-.24 2.84 1.07 16.42 2.05 39.16 4.74 42.74 5a511.86 511.86 0 0 1-19.09-2.63c1.31-.66 2.61-1.57 2.43-3.27-3.28-.12-6.57-.37-9.83-.73-1.27.74-2.41 1.67-3.72 2.34-13.01-1.95-27-4-39.06-9.51-3.7-1.69-18.18-17.05-18.06-17.04-4.95-.86 9.05 17.24 9.15 17.32 9.33 7.41 22.66 10.66 34 13.25-3.92 1.54-7.86 3.23-11.79 4.64-.17-3.18-1.37-5.76-3.62-7.74-2.35 2.85-3.37 6.22-3.08 10.13-1.59.99-2.02 1.92-.38 3.31-1.07 10.32-1.34 20.86-.86 31.24-1.51.53-9.53 2.58-8.99 4.55.77 2.83 7.21 2.16 9.34 1.9.71 11.37 2.33 22.76 4.3 33.98 1.05-.72 9.08.44 8.75 1.32-1.03 1.07-2.35 1.64-3.93 1.72-1.46-.06-2.91-.19-4.35-.39 3.01 16.98 7.05 33.74 10.35 50.66.33-.26 9.07-7.73 8.34.25-.19 2.07-6.33 2.46-7.78 2.59 8.33 42.01 23.96 82.32 40.71 121.64.19-.02 4.79.24 4.14 1.21-.98.53-1.97 1.05-2.95 1.57 19.27 45.09 33.28 94.97 64.34 133.78-.76.7-.52.98.7.85 32.43 39.99 89.65 74.39 140.89 84.96-.23-.78.19-2.44.16-2.34-1.64-1.19-4.04-2.16-3.85-3.87 1.28.03 2.55-.1 3.81-.39 1.84.78 2.43 2.07 1.76 3.87 1.8.97.48 1.79-.47 2.61-.16.13-.29.23-.42.31 2.54.51 5.06.98 7.57 1.37-.83.7-1.91 1.06-3.2 1.16 18.59 5.53 37.68 9.74 56.92 11.9-3.06-1.42-15.79-6.38-16.76-5.84 3.74-2.09 8.25 2.71 11.6-.38 3.88-3.59-6.52-3.89 1.72-6.86 3.99 4.23 5.86 4.85 12.56 7.14.16.67.32 1.35.48 2.03-4.62.27-6.21 2.53-9.01 3.98 28.6 3.15 57.51 1.76 85.56-6.58-.13-.04-.26-.07-.38-.11 1.45-2.87 10.56-3.26 9.08-8.43-2.76.35-5.28-.13-7.57-1.43-.27-.09-.48-.21-.63-.37.21.13.42.25.63.37 3.68 1.2 17.98-4.47 20.12-5.76 2.13.5 3.97.94 5.82 1.38.22 1.02.55 2.03.74 3.05 31.43-15.88 58.02-35.98 80.24-63.5.31.18 8.69 5.55 9.78 4.33 1.01-1.11-7.39-7.24-7.44-7.27 5.71-7.23 11.07-14.7 15.97-22.5-1.47.84-2.6 1.83-3.37 3-1.77-.44-3.25-1.04-3.86-2.1.39-.71.78-1.43 1.18-2.14 2.5-.08 4.89-1.14 7.42-.94 7.67-12.54 13.74-26.05 19.76-39.43.62-.49 5.33-4.82 1.98-4.42 1.97-4.43 3.9-8.84 5.82-13.24-.84.25-1.53-.11-2.07-1.1.86-.66 1.75-.75 2.67-.28 4.19-9.62 8.4-19.23 12.44-28.92 3.02-1.48 5.49-3.59 7.41-6.32-1.8-.16-3.5.11-5.11.79 13.23-31.91 25.33-64.41 39.07-96.09-2.9.78-4.86-.01-5.89-2.37 1.7-1.71 5.26-1.48 7.43-1.16 1.56-3.56 3.11-7.14 4.71-10.68-.59-1.3-.04-2.55 1.66-3.74 1.36-3.12 2.68-6.26 3.98-9.42-.14-.38.13-.91.45-1.09 16.93-41.43 29.64-85 35.93-129.34 2.63 2.92 1.64 9.06 6.77 10.17.27-2.06.5-4.13.66-6.2-2.28-3.55-3.37-6.58-6.65-9.51.73-5.16 1.5-10.26 1.91-15.46 2.15-1.47 2.2-2.15.15-2.01.08-1.13.16-2.24.23-3.33-.12-.22-.23-.44-.36-.65h-.04s.02-.02.03-.02v.01c.13.03.26.05.39.07.51-8.14.79-16.22.24-24.36a42.448 42.448 0 0 0 14.58-10.18c-4.19-3.08 1.56-5.51 4.25-5.47 7.25-11.31 6.83-27.39-5.01-35.24ZM402.34 182.02c-6.05-.82.51-2.15 1.31-2.1.25.76.51 1.51.76 2.27-.7-.05-1.4-.08-2.08-.17Zm-46.4-85.69c-1.69-1.39.23-.88 1.16-.58-.38.19-.77.38-1.16.58Zm49.68 15.08c1.3-.79 2.58-.7 3.86.26 0 1.42-4.48.89-3.86-.26ZM77.38 91.85c-.32.05-.65.1-.97.14h-.02c.33-.05.66-.1.99-.14Zm-11.72 34.01c-.29.28-.47.28-.53-.03.17 0 .35.02.53.03.04-.04.07-.06.11-.11l.1.12c-.07 0-.14 0-.21-.01Zm.23-.07c2.77.93 3.83 1.3 4.04 2.05-.21-.76-1.27-1.12-4.04-2.05Zm497.25-13.41c-4.54-5.34-10.64-10.36-16.37-14.38 31.29-.1 62.81-2.83 93.91-6.11-3.58 1.42-7.16 2.86-10.73 4.31-.77-1.28-1.89-1.92-3.35-1.93-.51 1.12-.6 2.26-.3 3.41-12.02 4.93-23.89 10.27-35.88 15.28-2.34 3.09-15.23 6.36-18.79 7.75-3.06-2.76-5.82-5.24-8.49-8.33Zm65.3-11.75c-1.79-1.02-1.78-2.13-.59-3.3 1.85.06 3.44.81 4.78 2.24-1.4.35-2.8.7-4.2 1.06Zm32.29 36.16c-2.82 1.32-5.71 2.66-8.67 4.01-13.71 6.25-27.59 12.05-41.12 18.69-11.49-11.75-22.84-23.98-35.13-34.89 17.67-6.87 35.04-14.38 52.29-22.21 8.43 13.38 21.35 23.38 32.62 34.4Zm-164.84 20.84c4.65-1.93 9.26-3.86 13.8-5.75 15.42-6.44 30.62-13.43 46.12-19.68l-.6-.67 1.67.05-.55.41c4-1.6 8.05-3.09 12.09-4.61 12.5 11.49 25.01 22.97 37.35 34.65-23.03 11.35-46.31 22.83-70.03 32.68-13.31-12.36-26.85-24.38-39.85-37.08Zm42.85 40.06c23.8-10.03 47.31-21.11 70.61-32.23 4.68 4.55 8.8 9.74 13.25 14.52 2.51.06 4.74.25 6.65.53-5.59-5.25-9.58-11.93-14.86-17.45 6.64-3.15 13.34-6.17 20.13-9-4.67-1.24 2.33-1.91 2.25-1.91.1.28.19.57.29.85 9.28-3.91 18.45-8.01 27.6-12.19 9.33 10.25 17.75 20.98 25.65 32.43-15.48 7.77-30.76 15.91-46.19 23.75-4.2-5.96-9.18-11.32-14.57-16.2-1.72.36-3.45.71-5.18 1.07 1.78 1.87 3.9 3.42 5.71 5.01 3.92 3.31 7.57 7.75 10.55 11.91-17.34 8.81-34.79 17.2-51.95 26.36-1.36-1.15-2.73-2.28-4.14-3.37-.61 1.91-.84 3.92-.72 5.92-2.33 1.2-4.66 2.42-6.98 3.64-12.77-11.19-26.32-21.33-38.1-33.62ZM619.43 173c1.1-1.02.51-.83 2.48-.38-.63.93-1.46 1.06-2.48.38Zm-119.74 96.22c-3.62 1.72-7.26 3.42-10.9 5.1.22.1.44.2.67.3-.97.33-1.94.67-2.91 1-.15-.02-.29-.04-.42-.06-13.76 6.41-27.1 13.57-40.95 19.83.03.13.06.27.07.4l-.15-.37c-2.51 1.13-5.03 2.27-7.53 3.4-17.2-11.31-32.41-25.17-48.39-38.04 22.07-9.11 44.31-17.75 66.34-26.97 14.55 12.24 29.15 23.78 44.17 35.4ZM317.86 407.14c.08-.1.15-.16.25-.28-12.28-10.96-25.15-21.23-37.09-32.55 23.71-9.99 47.24-20.37 70.69-30.97 3.98 3.1 8.07 6.06 12.27 8.87 1.15-.22 8.41.56 4.05 2.81 12.59 8.81 24.91 18.46 36.96 28-24.86 11.59-49.72 23.17-74.78 34.32-3.82-3.23-7.61-6.48-11.34-9.81-.31-.08-.61-.18-.88-.33l.03-.09-.15.03Zm-88.25-84.05a5151.11 5151.11 0 0 0 67.09-25.21c16.57 13.8 32.85 27.85 49.72 41.31a3284.513 3284.513 0 0 1-70.79 30.02c-14.01-13.27-27.46-27.16-40.96-40.95-1.7.43-3.38.32-5.05-.32-1.62-1 1.87-2.23 2.19-2.6-.73-.75-1.47-1.51-2.2-2.25Zm114.74 22.92c0 .11-.03.22-.03.33-.83.15-1.66.31-2.5.46.32-.81 2.67-2.82 2.52-.78Zm54.48 27.4c-14.19-10.66-28.56-21.25-42.59-32.1 20.07-9.03 39.68-19.16 59.93-27.78-.31-.11-.64-.24-1.01-.37-.44-1.5-2.37-1.53-4.52-1.33-.43-.62-.73-.67-1.3-.92-19.57 8.43-38.75 17.75-58.28 26.26-2.78-2.28-5.55-4.56-8.34-6.83-.72.23-8.07.11-5.86-1.99.36-1.07.45-1.28 1.75-1.37-12.35-10.12-23.99-21.03-36.25-31.27 27.27-10.46 54.28-21.49 81.28-32.63 16.44 12.63 31.9 26.52 49.34 37.84-5.07 2.29-10.19 4.43-15.34 6.54 2.88-.15 7.17-.1 10.02 1.16 3.36-1.51 6.7-3.06 10.04-4.62 18.42 12.18 35.45 26.35 53.69 38.79-27.46 12.86-54.95 25.64-82.46 38.42-3.23-2.56-6.57-5.19-10.09-7.79Zm-50.47-137.96c.23.18.45.36.68.54-.24-.28-.44-.59-.57-.95 1.97-1.28 4.18-1.85 6.61-1.7-1.86-1.46-3.69-2.96-5.48-4.51-1.06 1.1-6.18.86-5.58-1.85h-.15l-.38-.23.54.14s0 .06-.02.09c1.33-.09 2.6-.06 3.73.28-2.83-2.41-5.64-4.79-8.39-7.13l3.43-1.37c22.01-8.84 44.58-16.29 66.35-25.74 13.42 13.2 27.87 25.63 42.42 37.57-22.34 9.01-44.88 17.44-67.26 26.36-8.65-6.85-17.19-13.84-25.77-20.79-1.53 1.3-5.88 2.04-8.41.72 9.48 7.47 18.9 15.01 28.47 22.35-27.16 10.84-54.37 21.51-81.78 31.7-.36-.32-.72-.63-1.08-.95-1.35 2.15-3.51 2.61-5.89 2.07.4.34.79.68 1.19 1.03-18.36 6.85-36.78 13.66-55.23 20.28 2.16 1.56-2.18 4.24-2.98 1.05-3.2 1.11-6.09 2.16-8.72 3.11-12.62-12.89-24.96-26-37.12-39.34 20.46-7.58 40.87-15.28 61.35-22.79 12.18 11.2 24.52 22.06 37.06 32.85 3.35.12 6.66.59 9.93 1.4-13.69-12.06-27.32-24.09-40.6-36.6 26.16-9.84 52.19-19.97 78.16-30.33 5.01 4.15 10.15 8.39 15.44 12.76Zm-57.86-49.62c12.46 11.03 24.8 22.17 37.58 32.83-26.11 10.03-52.25 20.02-78.63 29.35-8.07-7.61-15.84-15.49-23.65-23.37-3.1 2.97-4.57 1.26-7.57 1.62 8.12 8.13 16.23 16.27 24.67 24.06-12.12 4.29-24.19 8.65-36.24 13.13-.63 1.38-3.06 2.99-4.48 1.63-6.78 2.41-13.55 4.83-20.31 7.29-12.92-14.9-25.43-30.12-38.24-45.1 18.52-6.9 37.1-13.66 55.5-20.87 4.48 4.8 8.91 9.63 13.54 14.28 2.23-1.81 4.63-2.51 7.2-2.11-4.78-4.87-9.37-9.84-13.97-14.87 23.8-9.61 47.63-19.37 71.21-29.48 4.42 3.9 8.96 7.68 13.37 11.59Zm-188.51 48.08c-.21.01 11.42-1.29 9.18 2.73 8.48-2.36 17.15-4.03 25.5-6.82 8.01 9.17 15.66 18.65 23.71 27.79 3.09-.39 6 .07 8.73 1.36.81.91-3.05 3.82-3.51 4.58 3.2 3.6 6.49 7.3 9.88 11.11-14.19 4.99-28.67 9.08-42.84 14.19-11.55-15.71-21.8-32.93-32.29-49.4.44-.1.9-.22 1.36-.33-1.93-1.59-3.11-3.23.29-5.21Zm69.55 30.33 1.71-.66c-.07.6-.43.97-1.71.66Zm17.78-125.61c1.11-2.33 7.96-7.92 11.33-5.18 6.71-2.95 13.61-5.32 20.24-8.45-.19-.74-.24-1.52-.14-2.34.9.44 1.82.81 2.78 1.11.78-.37 1.58-.74 2.35-1.11.74.82 1.5 1.66 2.29 2.53.96.15 1.49.71 1.58 1.69 14.23 15.11 28.43 29.74 43.58 43.93-23.82 9.62-47.88 18.9-71.89 28.05-14.13-15.04-29.15-30.1-41.27-46.87 9.62-4.43 20.23-7.38 29.35-12.8-.18-.2-.28-.41-.2-.57Zm88.42-40.04c17.2.06 34.39.11 51.58.08 1.3 12.7 16.89 26.04 24.17 36.03-23.46 12.15-48.35 23.33-72.92 33.19-16.96-15.46-32.72-32-49.24-47.9 11.91-5.96 24.71-9.88 36.5-16.01 3.29-1.76 6.73-3.42 9.9-5.39Zm-118.43-1.21c35.76 1.24 71.66 1.03 107.44 1.17-12.81 6.4-26.06 11.46-38.68 18.3-.89-.86-17.55-19-19.46-17.43-1.67 1.37 13.73 19.26 14.41 20.04-21.42 10.67-44.09 18.72-66.09 28.04-9.22-12.77-19.5-24.7-28.79-37.41 7.28-2.98 13.95-6.16 21.44-8.48 3.57-1.22 6.39-2.43 9.73-4.22Zm-41.1-.6c-.66-.82-1.25-1.53-1.79-2.16 10.18 1.33 20.43 1.91 30.68 2.32-7.14 2.82-14.04 7.73-21.36 9.85-2.95-4.04-5.49-7.5-7.53-10.01Zm-30.8 26.59c.1-.7 5.57-.1 2.18 1.48-1.59-.13-2.29-.69-2.18-1.48Zm-15.53 9.18c16.92-6.95 34.05-15.32 51.28-21.15 8.18 13.6 18.03 25.96 27.13 38.94-16.6 7.22-33.69 13.19-50.41 20.13-1.8-2.45-3.63-4.89-5.48-7.31-1.18.52-5.73 1.1-1.51-1.99-7.16-9.43-14-19.08-21-28.62Zm54.46 30.46s-.02.05-.04.07c-.3.79-1.02 1.06-2.17.79-4.56-2.88 1.65-.38 2.17-.79.01-.03.03-.04.04-.07Zm-51.71 1.05-.24-.18.23.18c2.04.53 3.08 1.44 3.39 2.62-2.27-.45-4.04-1.08-3.39-2.62Zm-.95-20.75c5.99 10.27 12.9 19.91 19.66 29.68-3.91 1.22-7.83 2.02-11.64 3.56-2.79-11.05-5.54-22.12-8.02-33.24Zm9.61 39.53c4.69-1.34 9.61-2 14.19-3.66 5.88 8.96 11.97 17.49 18.7 25.81 2.94-.29 5.89-.45 8.83-.47-7.34-9.17-14.28-18.37-20.93-28.07 16.53-7.08 33.24-13.71 49.5-21.39 5 7.13 10.87 13.62 16.64 20.12 2.3.32 5.81 1.14 2.1 2.37 7.24 8.16 14.52 16.08 22.11 23.93-18.55 6.79-37.19 13.32-55.78 19.98-3.79-4.44-7.32-9.02-10.96-13.59-3.59-.04-6.76-.14-9.4-.29 4.42 5.45 8.69 11.05 13.27 16.36-11.5 3.54-22.92 6.77-34.31 10.77-.44-.66-.89-1.31-1.36-1.94-2.36-10.01-4.53-20.08-7.25-30-1.77-6.65-3.55-13.29-5.36-19.93Zm12.74 61.27c-4.85-2.15 2.72-3.01 3.75-3.18-.43 1.34-1.12 2.59-3.75 3.18Zm7.78 70.89c-2.64-.28-1.4-1.33.32-2.35.54.5 1.08 1.01 1.62 1.52-.4.63-1.07.92-1.94.83Zm7.1-1.04c1.49-1.44 2.81-1.23 3.96.63-1.48 1.48-2.8 1.27-3.96-.63Zm4.56-19.68c-5.66-15.28-11.48-30.55-15.76-46.3 5.25 10.35 11.77 19.96 17.5 30.03h.1l-.05.08c2.61 4.59 5.29 9.01 8.35 13.31-3.29 1.22-6.58 2.39-9.9 3.53-.08-.21-.16-.43-.24-.65Zm.39 4.26 1.74.06-1.02.75-.72-.81Zm1.38 45.7c.45-.06.73-.48 1.08-.74-.35.26-.63.68-1.08.74Zm37.03 50.11c-2.11-5.53-4.09-10.76-6.05-15.94 8.22 10.92 16.7 21.53 25.28 32.15-3.69 1.55-7.4 3.06-11.13 4.52-2.85-7.02-5.52-13.96-8.1-20.74Zm25.2 63.47c-.61-.02-1.22-.05-1.83-.07.6-2.06 2.06.1 2.79-.59-.18.17-.69.46-.96.66Zm48.54 61.24c-2.52.57-4.97-4.01-3.47-5.89 4.06 1.55 5.21 3.51 3.47 5.89Zm4.09 6.32c-2.63.73-3.16-3.75-.89-3.47 2.86.76 3.16 1.92.89 3.47Zm33.57 16.23c-.83-.39-1.65-.78-2.47-1.17 2.92-.48 3.01-.44 2.47 1.17Zm-29.18-30.14c1.71-.34 3.43-.72 5.24-1.13.05-.33.09-.67.14-1 6.03 1.45 13.45-2.46 19.16-3.84 1.62 1.59 3.17 3.01 4.74 4.51 2.85.22 5.46 1.01 8.03 1.92-.99 1.18-2.05 2.01-3.2 2.54 5.81 5.35 11.8 10.51 17.86 15.58-4.38 1.5-8.74 3.06-13.14 4.49-13.36-6.88-26.5-14.47-38.83-23.08Zm45.88 26.63c4.07-.97 8.12-2.04 12.15-3.2 7.44 5.72 14.29 12.12 21.87 17.66-11.7-4.26-23.06-9.11-34.01-14.46Zm77.49 28.6c-.91.24-2 .28-2.87.39-6.74-1.85 6.71-1.42 2.87-.39Zm72.08 1.62c-2.59.8-4.93 1.84-7.34 3.08-22.2 1.33-43.63-1.25-65.19-6.49 14.42-4.86 27.7-10.65 41.7-16.74 10.85 6.92 21.91 13.48 33.39 19.31-.83.3-1.68.56-2.55.83Zm7.51-3.16c-10.66-6.62-21.59-12.78-32.22-19.45-2.8-.86-5.63-1.63-8.49-2.3 1.74-1.87 11.38-4.76 14.04-2.65.15 1.19-.25 2.12-1.19 2.8 15.86-7.09 31.39-14.83 46.88-22.7 9.73 6.71 19.72 12.97 29.79 19.15-14.52 7.91-29.14 16.09-44.24 22.85-1.54.73-3.07 1.5-4.57 2.3Zm7.84 8.83c1.51.14 3.17.04 4.38.72q-2.88.88-4.38-.72Zm55.77-25.01c-17.66 9.31-35.28 16.53-55.11 19.8 15.44-8.07 30.58-16.66 45.51-25.66 4.09 2.38 7.46 4.23 10.09 5.59-.16.09-.32.18-.49.26Zm55.78-42.33c-15.17 17-32.64 28.86-52.17 40.31-2.76-2.2-5.72-4.22-8.63-6.2 22.38-10.1 41.56-27.35 63.87-37.72-1.02 1.2-2.03 2.41-3.07 3.61Zm3.9-9.92c-23.33 13.56-45.23 29.11-69.66 40.69-9.71-6.47-19.56-12.73-29.17-19.34 23.07-11.82 46.73-22.69 69.46-35.18-.2-.73-.65-1.45-1.45-2.14 1.49-1.63 2.86-.64 3.68.91 1.43-.79 2.86-1.57 4.29-2.35 8.19 5.53 16.53 10.85 24.81 16.24-.65.38-1.3.77-1.97 1.17Zm26.16-31.16c-4.76 8.26-11.29 22.4-19.66 27.31-7.97-5.55-15.98-11.02-24.04-16.46 17.39-9.51 35.4-18.27 52.49-28.26-2.81 6.03-5.74 12.09-8.8 17.42Zm25.54-40.67c-1.25 1.23-5.12-1.63-3.57-3.18 1.88-1.87 4.49-.46 4.8 1.49-.26.38-.61 1.07-1.23 1.68Zm-2.14-9.99c-3.84-2.45-7.66-4.91-11.57-7.24 6.24-3.02 12.46-6.02 18.55-9.34-2.32 5.49-4.64 11.03-6.98 16.58Zm25.53-62.75c-.66 1.59-1.29 3.19-1.94 4.79-3.5-3.04-7.63-5.36-11.54-7.82 3.06-1.68 6.07-3.46 9.06-5.25-.15-.07-.33-.11-.48-.18 3.77-1.17 7.42-4.05 10.73-6.11a442.52 442.52 0 0 1-5.84 14.57Zm28.58-44.73c-1.33-3.12.42-2.34 2.66-.94-.89.31-1.77.63-2.66.94Zm11.71-58.9c-.31.81-.64 1.64-.96 2.46-1.25.58-2.57 1.2-3.96 1.87-.24 2-.67 3.97-1.26 5.9.93-.49 1.85-.99 2.76-1.51-1.16 2.91-2.38 5.87-3.66 8.86l6.76-.22-1.55.87-5.31-.44c-4.32 10.1-8.48 20.29-12.39 30.56-.61-.74-1.28-1.42-2.01-2.05-.42.91-2.84 1.37-3.01 1.44-1.75-.1-3.3-.65-4.67-1.65 2.75 1.91 5.68 3.82 8.68 4.91-3.85 10.27-7.41 20.64-11.2 30.93-7.84 4.3-15.55 8.82-23.32 13.25.54.53.63 1.19.75 1.85-.47 2.03-3.68 1.81-4.54.25-.04.02-.09.05-.13.07-2.2-1.31-4.51-2.68-6.9-4.1-.64 1.69-1.29 3.37-1.95 5.06 1.19.7 2.35 1.36 3.48 2-1.79.99-3.61 2.01-5.49 3.04-1.03 2.54-2.08 5.08-3.15 7.6 4.76-2.47 9.46-5.03 14.18-7.57 5.03 2.74 10.12 5.75 15.6 7.53-4.21 10.45-8.27 20.89-12.46 31.22-8.97 4.74-17.98 9.4-27.11 13.82-3.15-1.85-6.29-3.7-9.37-5.66-.88 1.57-1.76 3.12-2.66 4.67 2.04 1.33 4.11 2.59 6.23 3.79a619.86 619.86 0 0 0-11.73 5.35c-1.67 2.68-3.38 5.34-5.13 7.97 7.3-3.75 14.92-6.68 22.33-10.18 2.8 1.61 5.45 3.12 7.92 4.53-3.25-.61 6.51 7.97 6.14 7.66-2.43 5.69-4.9 11.37-7.45 17.04-17.03 10.01-34.64 18.8-51.52 29.07 1.93 1.98-1.17 2.25-2.51 1.96-.13-.05-.25-.13-.35-.23-1.93 1.16-3.87 2.28-5.83 3.38-2.84-1.92-5.64-3.91-8.47-5.86-1.33 1.25-2.68 2.48-4.04 3.7.92.65 1.85 1.3 2.77 1.94h.02c.98.14 1.73.67 2.25 1.58.76.53 1.53 1.06 2.27 1.58-24.06 13.7-50.93 27.85-76.46 38.43-.27-.19-.54-.37-.82-.56-1.85.89-3.71 1.78-5.56 2.67-6.83-4.75-13.69-9.5-20.28-14.59-1.48 0-2.98-.07-4.47-.09.29-.9.57-1.8.85-2.71-4-3.09-7.97-6.24-12.04-9.23-.59.25-1.17.5-1.76.75 4.29.42-.33 2.39-1.92 2.89 1.12.58 1.95 1.47 2.48 2.68 3.24.02 5.99.84 8.82 1.53-2.83-.69-5.59-1.51-8.83-1.53.38.28-4.44.36-4.67.24 0-.85.04-1.7.13-2.56l-.24-.12c.43-.63.87-1.25 1.3-1.88-17.67 7.51-35.58 14.55-53.66 21.01 9.29 6.1 18.55 12.18 27.62 18.61 21.36-1.3 42.51-5.82 62.64-13.07-13.27 6.35-26.62 12.57-40.19 18.24.31-.12.53-.02.68.31l-.68.18c-.32-.17-.4-.29-.24-.38-2.92 1.24-5.85 2.45-8.79 3.64-4.55-2.83-9.03-5.82-13.4-8.92-2.73.17-5.47.27-8.2.34 5.15 3.82 10.35 7.59 15.72 11.09-10.21 4.64-20.39 9.42-31.12 12.76-.51.69-1.03 1.38-1.54 2.07l.96 1.68c-3.07 1-6.03.94-8.9-.19-1.76.76-3.48 1.49-5.07 2.17-19.57-5.01-32.29-16.97-48.24-28.9 7.82-1.94 15.5-3.7 23.09-6.45-4.28-1-8.53-2.12-12.73-3.38-5.72 1.6-11.48 2.9-17.11 4.82-9.72-7.42-18.94-15.55-27.9-23.85.1-.02.21-.04.31-.07-2.29-1.31-4.27-3.8-5.97-5.68-.8.22-1.58.45-2.34.67a220.48 220.48 0 0 1-5.76-3.81c1.34 1.44 2.66 2.89 3.98 4.35-8.25 2.55-16.46 5.27-24.76 7.67-11.38-8.32-22.2-17.52-31.56-28.08 7.73-2.54 15.33-5.57 22.9-8.55-.18-.18-.35-.36-.53-.54-.29-.07-.58-.14-.87-.2.12-.09.26-.22.38-.31-1.29-1.3-2.57-2.61-3.82-3.94-7.15 3.18-14.26 6.45-21.44 9.56-13.74-16.78-23.76-36.28-32.04-56.23 4.45-1.26 8.86-2.66 13.22-4.2 2.7 3.21 5.44 6.39 8.24 9.52-9.65-14.84-17.51-30.59-27.92-44.9-1.34.89-5.08.22-1.37-1.88-6.07-8.34-14.65-16.63-18.58-26.22 3.55-.79 7.08-1.68 10.58-2.64-.23-1.81-.36-3.62-.36-5.43-3.94 1.4-7.9 2.74-11.86 4.1-6.6-16.01-12.64-32.16-18.71-48.37 3.94-.92 7.85-1.97 11.74-3.14 7.57 10.17 15.49 19.95 23.26 29.95l1.56-4.17c-.47-1.45.09-2.6 1.17-3.45-.55-.7-1.09-1.38-1.62-2.05.38-.42-6.13 2.7-5-.32l3.54-1.5c-5.4-6.73-10.46-13.69-15.57-20.64 9.81-2.99 19.6-6.02 29.47-8.8-.27-.77-.56-1.54-.83-2.31 5.28-.91 10.62-.65 15.63-2.4 5.98 6.49 12.09 12.87 18.15 19.28.19-.8.24-1.63.4-2.43-.17.8-.22 1.63-.4 2.43.04.04.08.08.12.13.36.03 5.89 1.98 1.64 1.74 5.79 6.13 11.79 12.04 17.76 18-7.09 2.58-14.16 5.22-21.39 7.42 3.11 1.42 6.17 2.96 9.19 4.6 5.97-2.02 11.88-4.23 17.8-6.43 15.49 15.45 30.88 31.15 46.96 45.98-3.25 1.39-6.29 2.72-9.13 3.96 1.77 1.75 3.52 3.51 5.25 5.27 3.11-1.44 6.24-2.82 9.4-4.15 16.06 14.81 33.09 28.82 49.85 42.84-4.93 2.21-9.87 4.39-14.84 6.52a347.8 347.8 0 0 0 5.3 4.88c4.99-2.22 9.96-4.49 14.91-6.79 2.17 1.92 4.33 3.84 6.49 5.77.57-1.2 1.22-2.35 1.94-3.47-1.52-1.36-3.05-2.71-4.58-4.06 24.86-11.41 49.47-23.33 74.1-35.24 17.2 13.68 35.56 25.94 53.59 38.49-6.25 2.65-12.5 5.31-18.76 7.92 1.5 0 3.59.43 6.87 1.2-.14.62-.47 1.12-.91 1.54 5.71-2.51 11.4-5.06 17.03-7.69 5.36 3.78 10.62 7.27 15.56 10.63 1.23-1.07 2.45-2.16 3.66-3.25-4.86-3.21-9.76-6.37-14.59-9.63 14.69-7.48 29.38-14.9 44.57-21.36 1.94-2.24 3.86-4.5 5.76-6.78-18.15 8.46-36.35 16.77-54.46 25.31-18.17-12.69-37.02-24.51-54.44-38.25 17.89-8.71 36.45-15.91 54.04-25.3-6.11-1.88 4.14-4.4 6.68-3.63 6.86-3.77 13.89-7.14 20.96-10.52 14.91 10.2 30.12 19.95 45.37 29.63.98-1.27 1.96-2.55 2.93-3.83-14.78-9.14-29.59-18.19-44.05-27.83.94-.45 1.87-.9 2.8-1.35-1.3-.83-2.71-1.59-4.36-2.25-.75.35-1.49.71-2.24 1.06-18.37-12.25-35.44-26.23-53.53-38.86 20.55-9.62 40.6-20.21 61.06-30.02 17.55 13.71 35.15 26.93 53.6 39.39-17.43 9.11-35.19 17.2-52.94 25.62 1.51-.02 5.7-.49 6.59 1.18 16.91-7.81 33.72-15.68 50.35-24.1 5.76 3.81 11.66 7.34 17.25 11.39 1.01-1.31 2.03-2.62 3.05-3.92-5.06-3.5-10.35-6.65-15.6-9.87 10.39-5.32 20.77-10.67 31.23-15.86-.17-.76-.32-1.52-.48-2.28-1.77-.19-3.31-.41-4.3-.63-10.22 5.37-20.41 10.78-30.64 16.12-18.78-12.19-36.63-24.96-54.12-38.94 14.86-7.12 29.9-13.76 44.66-21.12-3.75-3.93 6.41-4.89 8.66-4.32 5.41-2.7 10.8-5.44 16.18-8.21 4 3.8 8.06 7.35 12.36 10.8-.18-1.82-.34-3.64-.5-5.46-2.92-2.27-5.55-4.68-8.22-7.21 1.5-.77 2.99-1.52 4.46-2.25 1.17 3.27 3.45 5.96 3.76 9.46 10.79 8.37 22.53 15.85 32.91 24.69-7.33-14.26-17.21-27.21-29.06-38.02 16.99-8.82 34.35-16.73 51.46-25.27 11.94 14.43 22.92 29.56 34.92 43.87-.2.53-.39 1.06-.61 1.6ZM428.5 506.83c3.21.06 6.31.68 9.29 1.86.22 2.32-.84 3.89-3.18 4.71-2.32-.34-9.23-.17-8.03-3.96-.16-1.04.13-1.98 1.92-2.6ZM653.1 212.5c.64-.43 1.3-.38 1.98.14-.38.19-.77.38-1.15.58-.28-.24-.6-.46-.82-.71Zm42.7-17.31c-4.73 15.4-9.46 30.84-14.94 46-10.95-13.69-21.63-26.87-33.44-39.93 3.33-1.65 6.65-3.31 9.97-4.99.1-.4.36-.8.79-1.22.45.04.87.11 1.26.18 6.75-3.42 13.4-7.03 20.04-10.68-1.4-.2-2.33-1.01-2.8-2.41 2.97-2.2 6.39-2.77 10.28-1.71 2.09-1.12 4.17-2.27 6.22-3.46 2.09 2.72 3.38 6.65 5.05 9.72-.8 2.8-1.6 5.63-2.43 8.5Zm5.72-20.2c-.4 1.53-.82 3.05-1.26 4.56-.78-1.78-1.77-3.44-2.98-4.98a298.9 298.9 0 0 0 5.06-3.08c-.27 1.16-.55 2.33-.83 3.5Zm11.26-53.05c-2.98 15.06-5.97 30.12-9.41 45.08-2.43 1.03-5.47 2.46-9.01 4.2-8.2-10.66-17.63-21.31-24.89-32.61 14.96-6.84 29.8-14.08 44.34-21.79-.34 1.67-.68 3.36-1.03 5.11Zm6.99-38.38c-1.31 7.8-2.77 15.57-4.08 23.37-2.11-2.13-14.19-19.44-18.3-19.63-10.38-.48 2.72 12.36 5.72 15.53 1.91-1.34 5.76-.08 6.53 1.95-1.47 0-2.95 0-4.42.01 2.69 2.48 5.61 4.51 7.8 7.39-15.79 7.18-31.35 14.84-47.07 22.17-10.11-11.57-20.93-24.06-32.19-34.52 6.05-2.75 12.33-5.6 17.91-9.25 22.66-2.84 46.54-3.46 68.6-9.67-.16.85-.33 1.73-.49 2.64Z" fill="#ed8d4a" data-color="1"/>
        <path d="M470 567.91c-.21-.12-.42-.24-.63-.37.15.16.36.28.63.37Z" fill="#ed8d4a" data-color="1"/>
        <path d="M383.1 584.56c.07-.04.14-.07.21-.11-.2-.02-.39-.05-.59-.07.15.07.28.13.38.18Z" fill="#ed8d4a" data-color="1"/>
        <path d="M321.44 569.95c-.33-.07-.65-.13-.98-.2.12.39.4.56.98.2Z" fill="#ed8d4a" data-color="1"/>
        <path d="M489.34 160.36s-.03.01-.04.02c.03 0 .06.02.08.02l-.04-.04Z" fill="#ed8d4a" data-color="1"/>
        <path d="M77.86 83.02c-.02-.05-.04-.09-.06-.14-1-.13-1.98-.25-2.93-.37.53.85 2.57 1.87 2.99.5Z" fill="#ed8d4a" data-color="1"/>
        <path d="M648.87 294.62c-.06-.04-.11-.08-.17-.11.05.04.11.07.17.11Z" fill="#ed8d4a" data-color="1"/>
        <path d="M646.41 292.07c-.18.15-.35.31-.53.46.91.63 1.86 1.31 2.82 1.98-.84-.64-1.6-1.46-2.29-2.44Z" fill="#ed8d4a" data-color="1"/>
        <path d="M439.62 436.78h-.04c-1.24 2.87-6.1 4.48-8.24 1.24-17.07 6.23-33.61 13.89-50.61 20.32-8.15-6.13-16.18-12.43-24.29-18.62-1.21.74-2.42 1.47-3.65 2.17 7.76 6.06 15.49 12.17 23.26 18.21l-10.56 3.99c2.65 1.23 5.34 2.38 8.07 3.44 2.64-1.05 5.31-2.11 8.02-3.18 3.93 2.94 7.91 5.81 11.83 8.77 3.05.54 6.12.92 9.21 1.12-5.48-3.87-10.84-7.88-16.3-11.77 20.22-8.29 40.64-16.44 60.73-25.18-2.76.51-6.07.1-7.42-.52Z" fill="#ed8d4a" data-color="1"/>
        <path d="M450.4 435.82c-1.12.49-2.24.99-3.36 1.48 1.35-.25 2.56-.72 3.36-1.48Z" fill="#ed8d4a" data-color="1"/>
        <path d="M411.6 543.57c-.64.29-1.28.58-1.93.87.8-.22 1.43-.51 1.93-.87Z" fill="#ed8d4a" data-color="1"/>
        <path d="M126.35 163s-.03.04-.04.07c.02-.02.04-.04.04-.07Z" fill="#ed8d4a" data-color="1"/>
        <path d="m350.15 236.84-1.11-.87c.3.36.67.65 1.11.87Z" fill="#ed8d4a" data-color="1"/>
        <path d="M344.03 2.16c-31.68.65-63.55 1.86-95.11 4.59 1.49.2 3.71.69 3.15 2.69-3.19-.4-6.38-.79-9.56-1.19.32-.46.73-.79 1.19-1.05l-14.85 1.29c.21.23.42.5.66.79-1.42.31-2.04.94-2.57 1.6 10.95-.62 136.21-1.07 136.54-6.76.17-2.84-18.41-1.98-19.43-1.98Zm-79.27 6.1c-.64-.12-.7-1.35 1.19-.48-.39.16-.79.32-1.19.48Zm37.75-2.94c1.79-2.14 3.53-2.25 5.22-.34-1.8 1.7-3.54 1.81-5.22.34Z" fill="#ed8d4a" data-color="1"/>
        <path d="M219.08 9.37c-11.36 1.13-22.75 1.84-34.11 3.06.25.73.5 1.47.76 2.21 12.42-.42 24.51-2.36 36.84-3.46-.11-.7-.22-1.4-.33-2.11l-3.16.3Z" fill="#ed8d4a" data-color="1"/>
        <path d="M73.06 27.04c-.53-1.98 83.58-14.81 91.08-16.02-37.36 3.55-80.23 4.69-114.61 21.63 2.48-.36 4.12.37 4.92 2.18-.49 1.35-10.41 2.86-12.4 1.9-1.28.79-16.75 9.96-15.16 12.12.88 1.22 38.69-14.36 44.06-15.95-3.13-1.37 1.21-3.39 3.66-1.12 7.37-2.37 14.94-4.37 22.63-6.1-13.78 1.8-23.86 2.67-24.17 1.35Z" fill="#ed8d4a" data-color="1"/>
        <path d="M97.24 25.69c16.57-2.17 38.5-5.7 55.29-8.43-18.51 1.86-37.23 4.37-55.29 8.43Z" fill="#ed8d4a" data-color="1"/>
        <path d="M177.39 14.73c-.16-.45-.32-.9-.48-1.36-2.72.32-12.2 1.89-24.39 3.88 8.58-.86 17.11-1.59 25.5-2.26-.21-.08-.43-.16-.64-.26Z" fill="#ed8d4a" data-color="1"/>
        <path d="M643.65 9.98c-.68 1.04-1.13 2.05-.99 2.96.07.44.28.83.57 1.16 9.07.12 88.34 11.52 89.39 8.93 2.57-6.28-80.76-14.01-88.98-13.05Z" fill="#ed8d4a" data-color="1"/>
        <path d="M569.36 11.71v-.03c-8.04-.01-16.09.07-24.13.18 12.57.93 23.85 1.36 24.14-.14Z" fill="#ed8d4a" data-color="1"/>
        <path d="M590.45 8.44c-21.94-.06-43.75-1.55-65.7-1.87 9.04.67 18.06 1.54 27.09 2.37.12.01 17.48 1.45 17.52 2.75 14.59.02 29.13.35 43.5 1.44-.08-.03-.18-.05-.25-.08-.18-.38-.36-.76-.54-1.13 1.29-.71 2.57-1.43 3.86-2.14 1.83 1.55-.15 2.47-1.72 3.47 9.65.8 19.34.73 29.02.87-1.08-1.23-.52-2.69.41-4.12-13.13-5.06-38.86-1.5-53.2-1.54Z" fill="#ed8d4a" data-color="1"/>
        <path d="M511.28 11.82c-1.63-.26-2.2-1.32-1.71-3.16-2.12-.14-4.24-.3-6.36-.48.93.65-2.34 3.78-2.77 4.02 14.82.13 29.79-.14 44.78-.34-14.72-1.09-31.2-2.87-33.87-3.07 1.68 1.28 1.65 2.29-.07 3.03Z" fill="#ed8d4a" data-color="1"/>
        <path d="M498.96 8.52c.53-.19 1.02-.44 1.61-.56l-3.21-.27c.54.28 1.07.56 1.6.84Z" fill="#ed8d4a" data-color="1"/>
        <path d="M487.43 8.64c-1.62-.39-3.23-.79-4.85-1.18 1.04-.35 1.83-.6 2.44-.74-3.74-.21-95.64-6.51-95.93-3.19-.46 5.1 31.86 4.62 32.84 4.64 23.92 1.07 47.78 2.58 71.69 3.78.11-.36.23-.73.34-1.09-1.99-.06-5.21-.29-6.53-2.23Z" fill="#ed8d4a" data-color="1"/>
        <path d="M487.45 8.62c1.63-.3 2.97-.79 4.13-1.43-1.63-.15-3.26-.27-4.89-.38.37.29.56.88.76 1.81Z" fill="#ed8d4a" data-color="1"/>
        <path d="M630.48 274.1c1.19.95 2.35 1.87 3.49 2.78 7.57-5.31 15.14-10.62 22.72-15.93-4.29 2.21-8.58 4.4-12.88 6.58-4.44 2.18-8.89 4.37-13.32 6.57Z" fill="#ed8d4a" data-color="1"/>
        <path d="M629.79 280.33a753.24 753.24 0 0 1-22.16 10.27c7.44-.06 14.11.74 21.44 1.68-8.54 2.81-19.6 2.06-28.44 1.53-1.31.62-2.62 1.25-3.95 1.91.37 1.7.74 3.41 1.13 5.11-5.73 6.73-11.3 13.63-16.76 20.62 10.21 7.06 20.5 13.94 31.15 20.34 3.79-9.99 7.28-20.1 10.51-30.27 7.81-6.22 15.6-12.48 23.18-18.99-3.14-2.13-6.23-4.35-9.25-6.64-2.3-1.83-4.58-3.68-6.84-5.56Z" fill="#ed8d4a" data-color="1"/>
        <path d="M673.19 252.86c.14-1.2.22-2.41.22-3.63-5.58 3.91-11.16 7.82-16.73 11.73 5.46-2.8 10.97-5.45 16.51-8.1Z" fill="#ed8d4a" data-color="1"/>
        <path d="M522.38 397.74c8.26-3.82 16.29-8.37 24.35-12.59 1.63-.86 3.26-1.76 4.89-2.64-3.63-2.61-7.21-5.08-11.09-7.54-5.93 7.72-11.95 15.34-18.15 22.77Z" fill="#ed8d4a" data-color="1"/>
        <path d="M508.4 450.82c8.06 5.88 16.31 11.48 24.51 17.15 5.73-5.38 11.21-11.04 16.41-16.94-3.54-1.06 2.65-3.06 2.65-3.06 7.46-8.71 14.33-17.86 20.67-27.38-8.4 4.32-16.81 8.63-25.33 12.71-12.86 6.17-25.95 11.62-38.91 17.52Zm24.49 9.78c-.79-.35-.66-.69.42-1.01.34.22.67.45 1.01.67-.23.41-.72.54-1.42.34Z" fill="#ed8d4a" data-color="1"/>
        <path d="M356.43 439.73c6.62-4.06 12.93-8.64 18.81-13.72-9.96 1.55-19.91 3.09-29.87 4.64 3.6 3.14 7.27 6.18 11.06 9.07Z" fill="#ed8d4a" data-color="1"/>
        <path d="M652.21 270.32c-.63.93-1.46 1.06-2.48.38.08-.08.16-.18.24-.27-4.92 2.54-9.91 4.93-14.9 7.34 4.08 3.24 8.19 6.4 12.37 9.52 1.33-.18 2.6-.02 3.8.47 3.22-2.97 6.31-6.06 9.16-9.38-7.99 1.66-13.87 1.34-21.94.42 7.11.81 14.41-1.79 21.96-.45 4.96-5.76 9.28-12.24 11.5-19.58-7.04 3.75-14.05 7.56-21.12 11.23.45.03.94.22 1.4.32Z" fill="#ed8d4a" data-color="1"/>
        <path d="M612.55 265.49c-7.94-6.01-15.8-12.13-23.57-18.36 1.46 14.68 3.69 29.28 6.66 43.73 4.03-2.05 8.09-4 11.82-5.69 5.02-2.26 9.99-4.61 14.91-7.07-2.04-.77-25.6-13.26-9.82-12.61Z" fill="#ed8d4a" data-color="1"/>
        <path d="M567.38 378.96c.27.12.54.25.82.37-.97.33-1.94.67-2.91 1l-.4-.06c-1.44.75-2.9 1.52-4.36 2.31 8.29 5.66 16.95 10.83 25.41 16.23 7.1-12.69 13.44-25.85 19.16-39.33-3.63 1.9-7.31 3.7-11.02 5.43-9.13 4.26-17.79 9.37-26.69 14.06Z" fill="#ed8d4a" data-color="1"/>
        <path d="M148.27 348.99c2.79 21.38 16.46 40.9 29.58 57.22.5.63 1.02 1.28 1.53 1.91 11.16-4.64 22.31-9.16 33.72-13.15-16.25-16.51-31.94-33.47-46.7-51.34-6.02 1.87-12.06 3.7-18.14 5.36Zm21.74 14.66-1.02.75-.72-.81 1.74.06Z" fill="#ed8d4a" data-color="1"/>
        <path d="M155.06 318.47c2.9 3.68 5.69 7.45 8.52 11.19 1.63 2.13 3.37 4.28 5.15 6.48 9.33-3.33 18.76-6.24 28.24-9.13-8.86-4.06-32.71-15.79-41.91-8.54Z" fill="#ed8d4a" data-color="1"/>
        <path d="M503.08 453.2c-26.87 11.64-53.44 23.81-80.43 35.27 2.52 1.87 5.03 3.75 7.53 5.64 1.05-7.49 8.49.29 9.3-.33-2.03.95-4.08 1.85-6.16 2.69.53.4 1.04.78 1.56 1.17 2.01.12 3.48 1.21 4.39 3.26 3.98 2.9 7.99 5.74 12.04 8.53 2.09-.45 7.35.99 1.91 1.31 1.9 1.29 3.8 2.6 5.69 3.9 25.47-12.25 48.53-23.79 69.95-42.98-6.66-4.68-13.37-9.29-19.93-14.1-1.96-1.46-3.91-2.92-5.86-4.37Zm-36.71 20.23c-7.75 9.69-6.57.22-8.18 1.41 1.5-1.12 7.58-6.26 8.18-1.41Zm-16.9 12.05c.82-.03 1.62.05 2.38.22-.76-.16-1.56-.25-2.38-.22Zm-2.02-2.28v-.03c.33-.14.69-.15 1.03-.03-.41.03-.74.05-1.02.07.04.87.29 1.67.76 2.41-3.66 2.15-8.94 2.86-11.03-.87 1.95-.3 3.9-.59 5.86-.88.5-3.3 8.58-3.77 10.9-2.91 3.78 1.41-12 2.59-6.49 2.25Zm9.84 22.98c-1.49.09-2.86-.23-4.12-.97-.77-.96 7.66-4.37 8.7-1.46-.34 2.3-1.86 3.11-4.58 2.44Zm1.52-12.23c-3.18-.8.24-2.14 1.36-2.68q5.54.04 6.42 2.52c-2.63-.44-5.14.82-7.79.15Z" fill="#ed8d4a" data-color="1"/>
        <path d="M447.45 483.17v.03c.29-.02.61-.04 1.02-.07a1.41 1.41 0 0 0-1.03.03Z" fill="#ed8d4a" data-color="1"/>
        <path d="M248.22 371.63c1.13-2.92 9.5 2.99 5.08-3.73.31-.03.64-.04.96-.04-13.06-12.31-27.07-23.82-42.2-32.86-1.56.18-3.12.07-4.65-.32-.16.27-.41.51-.72.74-1.01.11-5.5 1.36-5.75-.64-.24-1.81 7.2-1.48 7.79-1.72-.85-.48-1.7-.97-2.56-1.44-4.76 1.61-9.58 3-14.42 4.38-6.24 1.77-12.44 3.6-18.63 5.55 14.58 17.75 29.83 34.78 45.7 51.4 8.11-3.03 16.04-6.54 24.03-9.86-4.16-1.92 6.08-2.65 6.28-2.57 3.11-1.25 6.19-2.55 9.27-3.89-.84-.75-11.41-1.75-10.17-4.97Z" fill="#ed8d4a" data-color="1"/>
        <path d="M260.43 375.71c.45-.2.9-.39 1.35-.59-.54-.54-1.09-1.07-1.64-1.6-.82.74-.58 1.41.29 2.2Z" fill="#ed8d4a" data-color="1"/>
        <path d="M267.03 380.39c-4.91 2.21-9.81 4.45-14.8 6.47-9.37 3.84-18.58 8.08-28.03 11.72 3.2 3.35 6.54 6.56 9.79 9.86 3.09-.46 20.83 5.88 20.62 8.43-.27 3.49-13.71-1.84-14.95-2.43 4.54 4.94 9.14 9.7 14.01 14.32.39-.31 1.2-.64 2.43-1.11-.02 1.12-.05 2.23-.07 3.35 4.6 4.37 9.17 8.85 14 12.97 13.85-6.01 27.55-12.35 41.4-18.37-15.41-14.47-29.61-30.14-44.42-45.21Z" fill="#ed8d4a" data-color="1"/>
        <path d="M243.67 425.84c-.71.02-1.42-.04-2.12-.18.41-.25.84-.47 1.29-.65-8.07-8.12-16.17-16.24-24.19-24.4-11.78 4.13-23.55 8.23-35.31 12.41 13.62 16.74 27.6 33.45 41.92 49.58 13.4-5.72 27.01-10.76 40.35-16.68-6.27-5.3-12.21-11.04-18.24-16.59-1.2-1.07-2.45-2.27-3.69-3.49Zm-20.86-3.66c.12 1.19.24 2.38.35 3.57-3.84-1.66-3.87-1.99-.35-3.57Zm10.67 4.98c-3.83.16.17-3.52 1.6-1.05 0 .15-.03.28-.09.4l5.29-.63s0-.02-.01-.03l.09-.06s.03.05.04.08c-.04 0-.08 0-.12.01.58.87.92 1.85 1.03 2.95-2.91-.21-6.2 0-7.82-1.67Zm19.89 8.69-.06 1.21c-.41.07-5.14 1.06-4.97-.71 1.65-1.07 3.32-1.24 5.03-.5Zm-12.07-7.02c2.87.1 5.14.67 6.23 2.22-2.84-.12-5.12-.69-6.23-2.22Z" fill="#ed8d4a" data-color="1"/>
        <path d="M147.91 343.56c4.74-1.69 9.48-3.38 14.23-5.07-3.36-4.06-6.57-8.24-9.8-12.4-2.61 5.34-4.43 11.52-4.43 17.47Z" fill="#ed8d4a" data-color="1"/>
        <path d="M577.99 325.37c-11.69 15.12-22.97 30.6-34.54 45.77 4.45 2.76 8.78 5.7 13.07 8.69 17.09-9.63 34.51-18.55 51.71-27.95.68-1.68 1.34-3.35 2-5.04a214.54 214.54 0 0 1-5.26-3.14 549.1 549.1 0 0 1-26.99-18.33Zm-.72 22.02c-1.67-.02-3.33-.18-4.99-.29-.43-.46-.86-.93-1.29-1.39-3-.56-4.89-1.01-.82-.88.27.29.54.59.82.88 4.11.76 10.33 1.73 6.28 1.68Zm32.21.93c-1.48 1.48-2.8 1.28-3.96-.62 1.48-1.44 2.8-1.23 3.96.62Z" fill="#ed8d4a" data-color="1"/>
        <path d="M570.99 345.7c-.27-.29-.54-.59-.82-.88-4.07-.13-2.19.32.82.88Z" fill="#ed8d4a" data-color="1"/>
        <path d="M402.61 474.26c4.9 3.46 9.81 6.91 14.71 10.39 12.32-5.03 24.75-9.63 37.16-14.4-2.21-1.08-4.2-1.54-6.87-1.72-.02.77-.04 1.53-.07 2.3l.06-2.3c.47-1.02 1.16-1.77 2.05-2.25 4.18 0 8.36-.01 12.54-.02-.06.34-.2.68-.38 1.02 12.75-5.2 25-11.37 37.65-16.79-5.39-4.06-10.9-7.95-16.47-11.74-22.32 19.5-49.43 37.56-80.38 35.5Zm25.92 2.32v-2.39c3.11 1.12 3.11 1.23 0 2.39Z" fill="#ed8d4a" data-color="1"/>
        <path d="M568.27 394.5c.27-.08.49-.15.72-.22-4.55-2.94-9.1-5.85-13.5-9-5.93 3.18-11.96 6.18-17.96 9.24-.13.41-.4.8-.56 1.15-.71.12-1.2.06-1.43-.13-6.24 3.18-12.46 6.23-18.91 8.98-1.17 1.36-2.38 2.68-3.57 4.02 2.08.79 3.23.33 1.84-1.78 2.82-.24 6.88 5.38 6.14 7.36-.94.46-1.91.91-2.4 1.57-.44.2-.88.41-1.33.61-1.53-2.29.6-1.89.28-2.94-.93-2.97-4.33-1.26-5.78-3.42-7.97 8.93-16.29 17.52-25.16 25.55 6.16 4.06 12.16 8.32 18.12 12.66 24.88-11.01 48.58-23.61 73-35.54 1.88-3.02 3.71-6.06 5.5-9.15-4.3-2.75-8.59-5.52-12.88-8.29-.76-.16-1.48-.38-2.12-.69Zm-46.47 45.55c-.53-.11-.54-.93-.8-1.45 2.76-1.92 1.95 1.7.8 1.45Zm19.06-41.56c1.48-1.44 2.8-1.23 3.96.62-1.48 1.48-2.8 1.28-3.96-.62Zm17.79-1.24c-6.45 7.27-1.51-12 .46-.88-.08.32-.22.62-.46.88Z" fill="#ed8d4a" data-color="1"/>
        <path d="M353.78 515.59c-10.18 3.64-20.24 7.61-30.4 11.3 18.03 4.23 36.6 6.19 55.11 5.77-4.11-3.06-8.31-5.99-12.58-8.82-3.81-2.62-7.94-5.32-12.12-8.25Z" fill="#ed8d4a" data-color="1"/>
        <path d="M410.85 485.9c-5.81-4.26-11.7-8.42-17.45-12.77-6.75-1.18-13.41-3.11-19.84-5.59-9.76 3.88-19.59 7.53-29.44 11.17-7.7 2.76-15.41 5.47-23.15 8.12.92.67 1.83 1.34 2.75 2.01-2.21-2.15.7-3.44 3.59-2.21 2.78 1.18 2.4 6.59 4.49 8.11 1.91.37 3.93.39 5.84-.04.08-.37.15-.73.22-1.1 6.68-.45 17.09-2.18 10.54 6.78-3.61-.06-7.26-.02-10.46-1.16 4.34 3.19 8.77 6.25 13.29 9.19.4.08.78.26 1.11.48 19.75-6.69 39.38-13.86 58.7-21.7-.48-.15-.95-.31-1.43-.46.43-.27.81-.56 1.24-.83Zm-40.39-4.3c-1.19-.44-1.3-.77-.34-1 .51.08.96.24 1.44.37-.37.21-.73.42-1.1.62Zm14.87 9.05c-3.01 1.25-7.02-1.65-2.16-1.39 2.33-.28 3.05.18 2.16 1.39Zm.84 2.9q3.52-.7 4.9 1.19c-2.01.05-3.6-.4-4.9-1.19Zm14.82-7.93c4.1.76-10.36-1.35-9.59-2.35 1.16-.48 2.32-.47 3.47.04.04 0 8.78-2.45 10.23-.05-.94 1.38-2.31 2.16-4.1 2.36Z" fill="#ed8d4a" data-color="1"/>
        <path d="M268.16 454.07c.09-.73.39-1.38.98-1.93-2.4 1.09-4.8 2.19-7.2 3.29 2.02-.21 4.11-.2 6.22-.19 3.63.15 5.98 1.64 7.05 4.46-1.42 5.58-16.08 1.91-17.43-2.38-9.05 4.06-18.38 7.22-27.67 10.67 9.92 10.32 20.24 20.09 29.88 30.73 2.81-.77 5.64-1.48 8.48-2.14 14.2-3.45 28.2-8.28 41.93-13.26-12.43-10.77-24.72-21.97-37.84-31.89.52 1.91.06 1.98-4.39 2.63Zm-19.52 27.84c-1.76-.1-3.15-.84-4.17-2.23-.35-2.72 7.95-3.05 8.21.01-.91 1.46-2.26 2.2-4.04 2.22Zm16.81-9.04c-.17.25-1.02.37-1.49.53-5.44-.66 3.24-3.06 1.49-.53Zm-2.84-7.3c-4.4 1.93-4.91 1.8-8.27-1.31 3.04-.57 5.8.02 8.27 1.31.12-.05.23-.1.35-.15 2.66 1.41 4.03 3.23 5.58 5-1.74-1.97-3.72-3.69-5.93-4.84Z" fill="#ed8d4a" data-color="1"/>
        <path d="M262.96 465.43c-.12.06-.23.1-.35.15 2.21 1.15 4.19 2.87 5.93 4.84-1.55-1.76-2.92-3.58-5.58-5Z" fill="#ed8d4a" data-color="1"/>
        <path d="M352.79 441.9c-4.27-3.33-8.37-6.87-12.42-10.47-6.4 1-12.8 1.99-19.21 2.98-1.49-1.29-2.95-2.62-4.41-3.95-6.88 3.09-13.77 6.16-20.65 9.22-6.64 3.04-13.17 6.31-19.84 9.27 13.16 10.48 25.47 22.02 38.35 32.85 6.23-2.21 12.55-4.15 18.8-6.29h-.25l.48-.36.19.21c10.59-3.64 21.19-7.3 31.66-11.27-9.18-4.28-17.93-9.52-26.19-15.37 4.61-2.04 9.11-4.33 13.49-6.83Zm-69.85 7.65c1.4 0 2.79-.02 4.19-.02-1.97 1.65-2.21 1.65-4.19.02Z" fill="#ed8d4a" data-color="1"/>
        <path d="M208.1 455.28c1.94 2.31 3.91 4.58 5.93 6.82-1.53-2.26-3.27-4.48-4.86-6.73-.38-.01-.74-.04-1.07-.09Z" fill="#ed8d4a" data-color="1"/>
        <path d="M216.96 460.35c-10.73-11.62-20.93-23.87-31.41-35.72 6.55 10.08 13.58 19.8 21.19 29.01.41-.4 1.28-.58 2.27-.65l.15 2.38c2.4 3.87 5.2 7.41 8.41 10.61 1.07-.48 2.15-.96 3.25-1.45-.89-.97-1.79-1.94-2.68-2.91-2.37 1.98-5.98-1.94-1.19-1.29Z" fill="#ed8d4a" data-color="1"/>
        <path d="M225.64 469.71c-1.07.43-2.14.85-3.21 1.27 9.06 9.08 18.86 17.36 29.44 24.61-2.06-2.22-4.17-4.39-6.32-6.53-6.44-6.64-13.58-12.63-19.91-19.35Z" fill="#ed8d4a" data-color="1"/>
        <path d="M321.61 502.89c.27-3.17 2.43-5.11 6.47-5.81-3.82-2.86-7.77-5.66-11.53-8.63-16.61 6.17-33.29 12.16-50.61 15.97 14.09 8.05 29.12 14.44 44.7 19.1 1.19-.32 2.37-.67 3.53-1.05 11-3.68 21.86-7.71 32.76-11.67-4.97-3.43-9.85-6.99-14.68-10.6-3.28 2.32-6.83 3.22-10.64 2.7Z" fill="#ed8d4a" data-color="1"/>
        <path d="M56.13 262.57c.08.32 2.2 12.13 5.16 11.73 2.81-.38.68-9.86.2-12.07-1.71.55-3.5.66-5.36.35Z" fill="#ed8d4a" data-color="1"/>
        <path d="M53.98 243.04c.02-.05.03-.1.04-.16l-.26.05h.01a23.59 23.59 0 0 0 1.68-4.47c-.07.01-.11.04-.17.05 0-.93.02-1.85.03-2.78.5.05 1 .11 1.49.16-8.83-36.82-14.61-78.97-13.8-116.7.04-1.44-.91-17.28-2.94-17.21-13.46.46 13.21 141.39 14.96 154.62 1.17 1.02 2.74 1.86 3.85 2.88.68-.04 1.36-.03 2.04.04-1.01-5.16-1.38-10.35-2.1-15.54-1.74-.08-3.49-.15-4.84-.93Z" fill="#ed8d4a" data-color="1"/>
        <path d="m95.54 352.05.05-.04c.16-.63.23-1.28.33-1.93-1.17-3.44-2.59-6.79-3.8-10.21-1.27-3.81-8.13-30.55-11.55-29.46-6.51 2.05 8.69 42.32 10.97 47.51.95.01 1.25.71.89 2.1 7.34 17.51 15.42 35.66 21.42 53.64 1.92.7 3.87 1.35 5.83 1.94-5.77-20.64-14.15-42.03-22.36-61.85-.95-.08-1.54-.65-1.78-1.71Z" fill="#ed8d4a" data-color="1"/>
        <path d="M161.79 498.21c1.69.67 3.13 1.74 2.68 2.33-.47.61-1.28.98-2.18 1.13 1.09.67 1.52 1.75 1.28 3.24 1.25 1.48 13.62 15.11 16.32 12.47 1.93-1.88-12.93-16.81-14.19-18.38-1.3-.28-2.59-.56-3.9-.79Z" fill="#ed8d4a" data-color="1"/>
        <path d="M119.68 415.61c-1.02-.33-2.05-.65-3.08-.98-.82.08-1.63.13-2.39.14 8.68 27.59 25.43 52.96 40.15 77.48 2.01 1.4 1.23 3.11 4.89 3.21-.14-1.15.09-2.17.68-3.07-.04-.18-.07-.36-.12-.53.1-.05.2-.1.3-.16-16.18-22.56-32.81-48.89-40.43-76.08Z" fill="#ed8d4a" data-color="1"/>
        <path d="M95.59 352.01c.35.04.71.06 1.07.09a58.6 58.6 0 0 1-.74-2.02c-.1.65-.17 1.3-.33 1.93Z" fill="#ed8d4a" data-color="1"/>
        <path d="M643.36 429.86c-5.37 13.69-11.88 27.46-19.4 40.63 1.09-.52 2.22-.24 3.38.87 7.24-13.35 14.33-26.62 20.15-40.66-1.28 0-2.56-.02-3.83-.03a3.98 3.98 0 0 0-.31-.81Z" fill="#ed8d4a" data-color="1"/>
        <path d="M597.12 509.31c-5.62 7.37-11.82 14.5-18.35 21.08.01.67.02 1.35.04 2.03-.71.03-1.42.05-2.13.08-23.8 23.83-52.84 40.32-85.2 49.08-1.75.47-12.76 2.16-12.58 3.98.42 4.34 21.68-.7 23-1.51.36.12.67.32.94.58 56.4-14.6 97.36-62.44 123.86-112.05-.55.04-2.82-.55-3.11-1.43-7 12.18-14.85 23.82-23.49 34.36.37 2.17-.62 3.43-2.97 3.8Z" fill="#ed8d4a" data-color="1"/>
        <path d="M623.58 471.16c.13-.22.26-.44.38-.66-.11.05-.22.1-.33.17-.1.17-.1.33-.05.49Z" fill="#ed8d4a" data-color="1"/>
        <path d="M675.66 347.45c-3.07-1.33-12.47 28.99-13.5 31.78.28.81.38 1.64.35 2.5 1.64-.15 3.19-.39 4.69-.69 1.39-3.61 12.58-31.81 8.46-33.58Z" fill="#ed8d4a" data-color="1"/>
        <path d="M661.75 380.37c-5.2 14.09-10.63 28.03-15.66 42.19 1.44.65 2.7 1.36 3.79 2.13.82-2.16 1.61-4.27 2.45-6.29 5.24-12.25 10.09-24.93 14.87-37.37-1.5.31-3.05.55-4.69.7-.26-.45-.51-.9-.77-1.36Z" fill="#ed8d4a" data-color="1"/>
        <path d="M741.68 93.71c-3.24-.6-6.74 25.52-6.77 27.89 1.34-1.51 3.21-2.77 5.44-3.85 1-3.16 6.48-23.08 1.33-24.03Z" fill="#ed8d4a" data-color="1"/>
        <path d="M734.86 124.27c-.14 2.78-.32 5.57-.59 8.34l1.14 1.71c.84 1.61 1.13 5.13-1.8 4.5-1.88 10.5-22.59 93.99-20.6 94.58 12.84 3.81 24.82-96.1 26.29-108.17-1.44.24-3.27-.22-4.44-.95Z" fill="#ed8d4a" data-color="1"/>
        <path d="M733.6 138.82c4.59.99 1.55-4.81.66-6.2-.17 2.07-.39 4.14-.66 6.2Z" fill="#ed8d4a" data-color="1"/>
        <path d="M753.35 28.43c-.6 2.6 2.85 6.74 3.37 9.45.88 4.59-2.21 14.43-.79 17.91 3.52 8.63 7.06 1.43 7.67-6.03.58-7.15-3.56-16.64-5.27-23.46-2.52-6.55-4.62.53-4.98 2.13Zm7.45 27.55-.52.81-1.11-.66 1.63-.15Z" fill="#ed8d4a" data-color="1"/>
        <path d="M6.76 83.19c-3.65-6.79-1.6-15.32-.73-22.6 1.07-8.93 8.14-22.01 8.2-30.37.09-14.08-9.94.72-10.83 8.2-1.53 12.42-5.24 25.89-2.29 38.36.9 3.82 12.76 27.64 19.59 26.81 7.79-.92-13.84-20.22-13.94-20.41Z" fill="#ed8d4a" data-color="1"/>
        <path d="M74.94 416.14c-8.75-26.78-16.87-54.28-26.69-80.62-1.28.54-2.79.54-4.32.41 3.93 9.1 29.22 106.43 36.91 104.29 3.16-.87-4.82-20.87-5.34-22.39-.49-.14-1.15-1.42-.56-1.69Z" fill="#ed8d4a" data-color="1"/>
        <path d="M22.01 187.95c-4.62-.08-3.71 26.92-3.87 29.39-2.09 35.73 12.9 76.15 22.57 110.14 1.51-.14 3.01-.27 4.51-.41-1.88-7.09-25.29-139.15-23.21-139.12Z" fill="#ed8d4a" data-color="1"/>
        <path d="M153.2 73.35c-23.06-1.48-47.56.31-70.13-5.26-6.27-1.55-12.64-3.52-18.17-6.94-3.31-2.05-15.19-17.19-15.63-17.14-4.28-.01 6.69 15.62 7.22 16.17 5.39 5.53 13.25 8.43 20.43 10.7 19.56 6.18 42.3 4.78 62.57 4.95 1.51-1.07 3.3-1.04 5.37.08 4.03.11 8.05.32 12.07.63 8.35.52 124.61 3.27 124.61.08 0-2.12-116.53-2.51-128.34-3.27Z" fill="#ed8d4a" data-color="1"/>
        <path d="M308.75 66.17c.59.96.82 1.98.49 3.06 30.18-.45 60.42-.26 90.6-1.12-.16-.62-.19-1.28-.14-1.96-30.31-.1-60.63-.18-90.94.03Z" fill="#ed8d4a" data-color="1"/>
        <path d="M399.69 66.14h.89c-.29-.11-.6-.22-.88-.34-.01.11 0 .22-.01.33Z" fill="#ed8d4a" data-color="1"/>
        <path d="M400.59 66.15c21.43 8.25 60.96.59 82.89.07-27.63.11-55.26.02-82.89-.07Z" fill="#ed8d4a" data-color="1"/>
        <path d="M255.38 65.69c.07 1.07-.78 2.28-1.44 3.51 11.06-.08 22.96-.94 33.99.1 3.75.01 7.49.01 11.23 0l-.18-3.14c-14.53-.1-29.07-.48-43.61-.47Z" fill="#ed8d4a" data-color="1"/>
        <path d="M87.69 60.13c.13.6-1.84.33-1.03-.18-1.65-.28-22.29-6.91-22.06-7.24-5.26 8.49 54.8 13.18 60.49 13.44 22.22 1.02 44.4 1.48 66.65 2.02.74-.41 2.01-.15 3.06-.09.02.06.04.11.06.17 14.23.53 28.35.87 42.6 1.01 1.74-1.2 3.35-1.2 4.84 0 2.61 0 5.2-.01 7.78-.03-.15-.14-.27-.27-.32-.41-.41-1.08-.38-2.16.41-3.14-52.13 0-111 2.7-162.49-5.56Z" fill="#ed8d4a" data-color="1"/>
        <path d="M498.76 65.71c6.98-.38 105.87-.7 106.22-5.43-.1 1.35-185.74 5.02-205.54 5.51 33 .37 66.35 1.72 99.32-.08Z" fill="#ed8d4a" data-color="1"/>
        <path d="M407.61 72.68c.27.47.42.96.62 1.45-1.46-.38-2.71-.82-3.78-1.31-16.15.68-32.42 1.08-48.58 1.29-5.2.07-41.92 4.36-43.4 2.92 5.91 5.75 51.18 1.62 59.05.87 1.91-1.27 4.08-1.87 6.52-1.79 1.08.05 1.81.42 2.26 1.54 9.69 0 19.43-.51 29.1-1 .2-.47.41-.93.61-1.4-.2.47-.41.93-.61 1.4 28.99-1.49 58.25-3.04 87.26-3.41-.1-.3-.19-.61-.25-.93 1.33-.73 2.67-1.47 4-2.2-30.87.08-61.96 1.28-92.82 2.58Z" fill="#ed8d4a" data-color="1"/>
        <path d="M645.98 63.56c-28.82 1.87-57.64 2.88-86.46 4.63.41.78.8 1.55 1.16 2.31 1.83-.13 3.63-.26 5.39-.41 26.84-2.2 53.91-2.26 80.85-3.7 4.78-.25 74.64-6 69.74-14.57 1.96 3.48-66.94 11.5-70.68 11.74Z" fill="#ed8d4a" data-color="1"/>
        <path d="M501.16 70.09c3.15.68 5.84 1.62 8.01 2.84 3.51-.15 6.96-.36 10.31-.56 11.03-.67 22.05-1.01 33.09-1.44-.46-.84-.4-1.65.16-2.45-17.17.5-34.4 1.55-51.57 1.61Z" fill="#ed8d4a" data-color="1"/>
        <path d="M94.04 81.25c.46-.26.98-.32 1.45-.26 2.12.17 7.98-2.74 8.38 1 11.6.45 117.03 3.67 116.96 2.78-.13-1.5-147.75-8.86-147.57-9.61-.8 3.3 19.75 5.99 20.79 6.1Z" fill="#ed8d4a" data-color="1"/>
        <path d="M94.04 81.25c1.17.14 2.34.25 3.52.34 2.1.19 4.2.32 6.31.4-.31-2.9-8.02-1.77-9.83-.73Z" fill="#ed8d4a" data-color="1"/>
        <path d="M393.58 82.09c-1.01-.4-2.46-.8-1.4.35.31-.03.61-.06.91-.08l.48-.27Z" fill="#ed8d4a" data-color="1"/>
        <path d="M735.41 28.46c-.43.03-.19 7-.46 7.68-4.15 10.2-5.75 17.08-15.75 23.28-16.67 10.33-41.24 11.91-60.3 13.04-48.34 2.89-96.74 4.07-145.14 5.7-1.25 3.23-10.91.5-11.25.38-30.02 1.03-59.98 2.67-90.03 2.67-.14.33-.3.65-.5.97-1.08.36-2.17.73-3.24 1.09-.99-.73-2.1-1.29-3.09-2.01-1.79.04-6.78.57-12.54 1.09-.21.12-.43.24-.65.36l-.27-.27c-10.2.91-22.41 1.73-23.79-.19-9.48.4-18.98.33-28.47.39.02.38-.35.77-1.11 1.16-.04-.38-.07-.77-.1-1.16-10.94.07-95.57-1.21-95.93 2.45-.27 2.79 122.37 1.24 135.14.72-.62-.22.89-.3 1.05-.34v-.01c.01 0 0 0 0 .01-.07.1-.14.21-.21.31 84.22-3.24 168.56-4.64 252.7-9.78.71-.82 2.37-.49 3.12-.17 16.79-.84 33.33-.72 50.04-3.04.09-.13.2-.25.36-.34 1.07-.44 2.13-.51 3.18-.22 13.1-2.24 29.27-5.27 39.19-14.92 2.1-2.04 16.19-29.47 8.04-28.85Z" fill="#ed8d4a" data-color="1"/>
        <path d="M378.99 85.46v.01c.02 0 .02 0 0-.01Z" fill="#ed8d4a" data-color="1"/>
        <path d="M304.19 90.96c-13.72.03-27.43.51-41.13 1.28 25.53.33 51.07.63 76.6.82-7.51-5.19-26.69-2.12-35.47-2.1Z" fill="#ed8d4a" data-color="1"/>
        <path d="M127.51 88.59c19.16 1.42 38.38 2.1 57.59 2.31-21.56-.64-43.04-1.55-64.56-3.02 2.32.29 4.64.53 6.98.71Z" fill="#ed8d4a" data-color="1"/>
        <path d="M84.64 89.36c.94.2 1.88.37 2.83.52-.94-.16-1.88-.34-2.81-.53 0 0-.01 0-.02.01Z" fill="#ed8d4a" data-color="1"/>
        <path d="M337.21 93.03c.82 0 1.63.02 2.45.02-.15-.1-1.07-.1-2.45-.02Z" fill="#ed8d4a" data-color="1"/>
        <path d="M60.58 80.54c-.91 1.24 15.61 6.89 17.09 7.27-.3-.74.4-1.02 2.1-.84 1.29.44 1.36.91.22 1.4 1.5.35 3.05.67 4.65.98l.01-.01c43.12 8.25 90.14 4.23 133.82 4.93 19.64.31 39.1.36 58.73-.1 13.76-.32 27.51.02 41.26.14 3.08.03 13.85-1.03 18.75-1.28-75.92-.61-151.45-2.86-227.28-5.72-3.7-.12-49.43-6.62-49.35-6.76Z" fill="#ed8d4a" data-color="1"/>
        <path d="M627.57 82.71c-1.29 2.49-4.45 1.32-2.56-.54-12.74.48-25.48.64-38.21 1.31.45 1.1.62 1.92.28 2.63 30.94-2.05 62.8-.9 93.5-5.35-3.67-1.07 6.75-2.66 7.04-3.99-19.58 3.75-40.21 4.27-60.1 5.28.03.2.03.43.05.65Zm29.91-1.62c.17.03.23.22.34.35-.44.3-.78.24-1.01-.19.23-.06.5-.19.67-.15Z" fill="#ed8d4a" data-color="1"/>
        <path d="M741.72 29.78c3.75 30.02-24.64 41.19-48.48 45.89.41.99.33 1.98-.23 2.96 10.24-1.93 20.85-3.7 30.11-8.76.46-1.23 3.12-7.21 5.16-3.25 10.67-7.72 17.25-20.3 16.65-33.6-.94-1.22-2.01-2.3-3.2-3.24Z" fill="#ed8d4a" data-color="1"/>
        <path d="M368.31 90.32c-.23 1.58 32.82 2.18 33.76 2.18.31-.47.91-.9 1.37-1.34 3.49-1.02 5.97-.1 7.62 1.31 55.43-.17 111.01-3.58 166.39-5.84.53-.95 1.21-1.88 1.68-2.81-14.53.48-209.97.25-210.83 6.5Z" fill="#ed8d4a" data-color="1"/>
        <path d="M734.44 10.78h-2.52c.52.48 1.07 1.04 1.7 1.65 3.42 3.22 5.73 7.8 7.07 12.25 1.08.45 2.2 1.04 3.33 1.8-1.27-5.99-4.78-11.88-9.57-15.7Z" fill="#ed8d4a" data-color="1"/>
        <path d="M730.09 9.22c.33.27.73.6 1.17.97.37-.32.82-.58 1.34-.78-.32-.19-5.87-3.09-2.51-.19Z" fill="#ed8d4a" data-color="1"/>
        <path d="M726.78 65.23c-1.21-.2-2.45 1.4-3.67 4.65 1.8-.99 3.53-2.07 5.16-3.25-.42-.82-.91-1.31-1.49-1.4Z" fill="#ed8d4a" data-color="1"/>
        <path d="M740.68 24.67c.25.85.49 1.72.63 2.61.17.82.3 1.65.41 2.5 1.2.94 2.27 2.02 3.2 3.24-.08-2.22-.39-4.41-.91-6.55-1.13-.76-2.25-1.35-3.33-1.8Z" fill="#ed8d4a" data-color="1"/>
        <path d="m717.96 39.74 3.15.3c.06-.25.11-.49.17-.71.97-5.96-2.72-.77-3.32.41Z" fill="#ed8d4a" data-color="1"/>
        <path d="M705.48 49.55c-24.05 8.62-50.44 10.14-75.71 11.84 21.24 2.09 77.23.34 89.84-18.13-3.42 1.69-6.94 3.38-10.43 4.79 6.71 1.68-4.9 1.46-3.7 1.5Z" fill="#ed8d4a" data-color="1"/>
        <path d="M717.07 41.33c-2.26 2.73-4.75 5.08-7.98 6.7.03 0 .06.02.09.02 3.49-1.41 7.01-3.1 10.43-4.79.65-.96 1.21-2.08 1.5-3.21l-3.15-.3c-.29.53-.58 1.06-.89 1.58Z" fill="#ed8d4a" data-color="1"/>
        <path d="M662.44 56.03c-2.98.3-5.97.57-8.96.82-1.48 1.17-2.98 1.27-4.5.31-2.41.14-26.31.28-25.96 2.48.7 4.75 35.05-.55 37.14-.79 13.99-1.63 28.03-3.75 41.46-8.13-11.71 3.12-24.11 4.01-36.17 5.01-1.04.77-2.05.87-3.02.29Z" fill="#ed8d4a" data-color="1"/>
        <path d="M188.6 18.85c1.3.92.37 1.78-2.79 2.58-1.76-.32-1.73-1.07.11-2.25-34.49 4.12-68.85 8.49-103.26 13.37.26.15.48.34.57.56 1.47 3.45-11.18-.63-8 .59-1.82.32-21.09 2.94-21.08 5.04 0 2.64 94.64-12.56 100.57-13.38 8.86-1.22 123.05-11.95 122.98-13.16-.25-4.34-83.72 6.03-89.09 6.66Z" fill="#ed8d4a" data-color="1"/>
        <path d="M76.33 33.75c.53-.16 1.06-.33 1.58-.5-.59.09-1.18.18-1.76.28.06.07.12.15.19.22Z" fill="#ed8d4a" data-color="1"/>
        <path d="M284.1 3.41c-.45.01-.89.03-1.34.05.4.15.85.13 1.34-.05Z" fill="#ed8d4a" data-color="1"/>
        <path d="M449.8 4.27c.5-.04.94-.1 1.34-.17-.61-.02-1.21-.04-1.82-.07.14.09.29.17.48.24Z" fill="#ed8d4a" data-color="1"/>
        <path d="M281.29 1.46c-38.87 1.53-78.68 3.39-117.15 9.57 3.47-.34 6.93-.66 10.41-.95 35.94-3.27 72.04-5.41 108.21-6.61-.62-.24-1.12-.88-1.47-2.01Z" fill="#ed8d4a" data-color="1"/>
        <path d="M448.83 2.36C394.79-.09 340.89-.91 286.81 1.24c-.97 1.13-1.89 1.88-2.71 2.18 55.07-1.8 110.28-1.39 165.23.62-.63-.39-.8-.95-.5-1.68Z" fill="#ed8d4a" data-color="1"/>
        <path d="M476.57 3.5c-7.35-.19-14.67-.55-22.02-.88-.74.62-1.68 1.19-3.41 1.49 8.78.33 17.56.68 26.33 1.09-.8-.43-.88-1.05-.9-1.69Z" fill="#ed8d4a" data-color="1"/>
        <path d="M480.52 5.33c3.48.17 6.96.3 10.45.38-.22-2.26 4.32-.54 5.12.17 9.55.32 19.1.53 28.66.67-13.96-1.04-27.98-2.38-41.97-2.89.21.87-1.06 1.26-2.26 1.66Z" fill="#ed8d4a" data-color="1"/>
        <path d="M73.06 27.04c.94 3.97 93.87-12.48 103.85-13.66l-.27-.78c.03-.64.07-1.28.1-1.92 2.52.63 5.2.87 7.95.95.09.27.19.54.28.81 12.41-1.34 24.84-2.18 37.26-3.36-.03-.21-.07-.43-.1-.64 4.01-1.63 5.11-1.74 6.71.06 4.95-.44 9.9-.87 14.85-1.29 1.65-.91 3.72-1.56 6.07-2.01-35.29 1.82-70.58 4.56-105.46 8.35-5.46.58-71.47 12.64-71.24 13.5Z" fill="#ed8d4a" data-color="1"/>
        <path d="M283.52 4.61c13.74-.69 27.49-1.46 41.24-1.94-18.87.3-37.83.85-56.8 1.66 5.98.16 11.66.48 15.56.28Z" fill="#ed8d4a" data-color="1"/>
        <path d="M249.77 5.19c6.06-.31 12.13-.6 18.19-.86-6.3-.17-12.93-.15-18.19.86Z" fill="#ed8d4a" data-color="1"/>
        <path d="M344.03 2.16c4.33 0 8.86.13 13.59.23-3.16-.13-6.32-.21-9.49-.24a62.26 62.26 0 0 0-4.1.01Z" fill="#ed8d4a" data-color="1"/>
        <path d="M423.76 3.83c12.22.51 24.44 1.1 36.65 1.75 2.78.15 8.74-.42 14.37-.52-22.84-1.1-46.11-2.62-68.92-2.47 5.97.3 11.93.87 17.9 1.24Z" fill="#ed8d4a" data-color="1"/>
        <path d="M474.78 5.06c.9.04 1.8.09 2.7.13.44.23 1.09.41 2.08.5.29-.13.63-.24.97-.36.7.04 1.41.06 2.11.09-2.24-.35-5-.42-7.86-.37Z" fill="#ed8d4a" data-color="1"/>
        <path d="M490.97 5.72c-2.78-.07-5.56-.17-8.33-.29 1.75.27 3.18.71 4.05 1.39 1.63.1 3.26.23 4.89.38.38-.21.75-.44 1.1-.68-.73-.18-1.67-.38-1.71-.8Z" fill="#ed8d4a" data-color="1"/>
        <path d="M392.93 2.52c-.67.04-1.25.1-1.76.17 2.55-.08 4.98-.17 7.35-.21-2.2-.04-4.1-.06-5.59.04Z" fill="#ed8d4a" data-color="1"/>
        <path d="M496.09 5.89c.55.49.86 1.07 1.05 1.67.08.04.15.08.22.12.54.05 5.13-.01 5.85.5 2.12.18 4.24.35 6.36.48.1-.17.21-.34.38-.52.65.16 1.08.39 1.4.65 5.08.37 57.39 6.15 58.01 2.92.52-2.69-67.88-5.64-73.27-5.82Z" fill="#ed8d4a" data-color="1"/>
        <path d="M496.34 12.8c-.98-.04-1.97-.06-2.96-.09.06-.2.12-.39.19-.59-31.69-.51-62.72-3.04-94.23-4.47-15.67-.71-31.53-.08-47.22.15-2.72.04-45.73 4.5-46.58 3.64 2.4 2.44 30.76.56 34.29.67 1-1.18 2.75-1 3.78.08 2.01.02 12.41-1.48 13.67-.22 58.16-1.26 115.75 3.29 173.78 5.04 4.21-2 18.32-1.85 22.52 1.43 5.84.67 7.77 1.27 12.78.78.23-.55.3-1.17.47-1.74-22.2-1.71-44.37-3.83-66.61-5.15-.97.45-2.31.55-3.89.48Z" fill="#ed8d4a" data-color="1"/>
        <path d="M653.64 25.25c.76-.5-4.73 1.45-2.93-.32-24.73-2.98-49.45-5.85-74.37-6.93.05.48.28.95.94 1.39-1.37.43-2.82.71-4.31.94 9.04.55 98.88 11.96 99.72 7.78.31-1.45-17.9-2.74-19.05-2.85Z" fill="#ed8d4a" data-color="1"/>
        <path d="M418.19 9.3c25.15 1.92 50.09 2.41 75.37 2.82.02-.05.03-.11.05-.16-30.26-1.52-60.46-3.63-90.77-4.27 5.1.69 10.22 1.22 15.35 1.61Z" fill="#ed8d4a" data-color="1"/>
        <path d="M96.09 38.88c10.49-.77 20.99-1.36 31.49-2.01 9.23-1.57 96.43-12.52 96.48-12.23-.96-5.23-115.61 9.81-127.97 14.24Z" fill="#ed8d4a" data-color="1"/>
        <path d="M93.32 40.56c.74 3.21 31.53-3.23 34.25-3.7-1.9.12-34.75 1.57-34.25 3.7Z" fill="#ed8d4a" data-color="1"/>
        <path d="M330.04 16.57c.02 1.4-3.41 1.23-3.88.07-5.71.15-11.38.56-17.07.83.05.22.09.45.11.67l-.28-.67c-6.71.24-65.29 1.46-65.3 5.61 0-1.49 154.8-2.82 166.76-2.51 74.09 1.92 147.61 9.48 221.59 12.15 10.73.48 21.45 1.31 32.16 2.12C554.1 20.88 440.9 14.76 330.04 16.57Z" fill="#ed8d4a" data-color="1"/>
        <path d="M601.4 31.57c5.76.97 11.55 1.74 17.37 2.33 6.24.62 79.91 9.59 80.58 6.45.69-3.17-92.88-8.55-97.95-8.78Z" fill="#ed8d4a" data-color="1"/>
        <path d="M169.94 40.94c4.5-.52 8.99-1.13 13.46-1.84-5.06.23-10.11.45-15.17.72.67.3 1.24.67 1.71 1.12Z" fill="#ed8d4a" data-color="1"/>
        <path d="M152.31 40.67c-5.28.29-65.81 4.2-65.24 10.61.16 1.81 60.99-7.8 66.57-8.44-.69-.44-1.32-.96-1.97-1.47.21-.24.42-.47.64-.71Z" fill="#ed8d4a" data-color="1"/>
        <path d="m321.36 25.61.27.3c2.19 1.74 1.83 2.08-1.06 1.04-1.85-.28-3.54-.73-4.7-1.57-23.14-.45-45.72 3.44-68.72 4.85-.03.19-.06.37-.08.56-.63.19-1.25.37-1.88.55 15.41-.49 30.64-1.73 46.03-2.35 6.04-.25 36.26 2.91 39.08-1.54.47-.74-8.25-1.79-8.95-1.84Z" fill="#ed8d4a" data-color="1"/>
        <path d="M212.42 32.54c6.69-.27 13.38-.54 20.08-.76 1.58-.41 9.4-.32 9.61-.32-.12-.3-.24-.59-.37-.89-9.77.64-19.57 1.05-29.32 1.97Z" fill="#ed8d4a" data-color="1"/>
        <path d="M242.41 32.17s.02.05.03.08l-.02-.03c.15.2.31.39.46.59 7.65-.49 15.25-1.03 22.87-1.94-6.85.1-13.71.26-20.56.47-.93.27-1.86.55-2.78.82Z" fill="#ed8d4a" data-color="1"/>
        <path d="M168.23 39.81c9.61-.51 18.94-1.34 28.49-2.48 11.38-1.46 22.71-2.78 34.15-3.59-.1-1.16.44-1.82 1.62-1.97-25.82.87-51.29 4.31-76.97 6.97 4.33-.38 8.57-.03 12.71 1.08Z" fill="#ed8d4a" data-color="1"/>
        <path d="m242.4 32.17-.3-.72c-1.98.07-3.94.13-5.88.2 2.03.31 3.89 1.15 6.22.6-.02-.03-.04-.05-.06-.08h.02Z" fill="#ed8d4a" data-color="1"/>
        <path d="M152.31 40.67c.53-.59 1.06-1.18 1.59-1.76-8.57.87-17.26 1.78-25.78 3.1 7.72-.43 15.82-.87 24.19-1.34Z" fill="#ed8d4a" data-color="1"/>
        <path d="M705.48 49.55c.32-.11.64-.22.94-.34.72-.28 1.38-.57 2.02-.87-1.08.43-2.17.83-3.27 1.2.1 0 .21 0 .31.01Z" fill="#ed8d4a" data-color="1"/>
        <path d="M355.62 24.3c-.47 3.4 66.68 2.77 71.31 2.71 18.82-.01 37.66-.23 56.47.23-11.55-.77-126.95-9.23-127.78-2.94Z" fill="#ed8d4a" data-color="1"/>
        <path d="M493.68 31.39c35.65 2.26 71.31 4.62 106.89 7.65 28.69 2.44 70.8 15.84 98.45 7.33-.12-.02-.24-.03-.36-.05-68.06-8.21-136.47-12.95-204.98-14.94Z" fill="#ed8d4a" data-color="1"/>
        <path d="M691.19 48.53c2.38.2 4.77.41 7.16.6 2.66.2 4.94.34 6.82.41 1.32-.47 2.67-.89 3.93-1.52-2.03-.5-5.46-1.05-10.08-1.65-2.56.79-5.17 1.51-7.83 2.16Z" fill="#ed8d4a" data-color="1"/>
        <path d="M391.15 27.46c29.24 1.03 58.46 2.06 87.69 3.08 1.05-4.69 9.63-.29 11.23.48-.13.04-.25.08-.38.11 14.4.9 28.91 1.23 43.33 1.59 12 .41 23.99.82 35.99 1.39-59.29-6.33-118.28-7.77-177.87-6.65Z" fill="#ed8d4a" data-color="1"/>
        <path d="M705.48 49.55h.02-.02Z" fill="#ed8d4a" data-color="1"/>
        <path d="M709.18 48.04c-1.23.5-2.44 1.05-3.69 1.5 1.03 0 9.7.01 3.69-1.5Z" fill="#ed8d4a" data-color="1"/>
        <path d="M708.44 48.34c.25-.1.5-.19.74-.29-.03 0-.06-.02-.09-.02-.21.11-.43.21-.66.32Z" fill="#ed8d4a" data-color="1"/>
        <path d="M588.13 12.64c-5.54.31 20.49 5.48 24.33 5.75 11.81.84 23.66 1.28 35.49 2.13-2.35-1.83 4.39-1.9 2.63.23 1.67.16 16.5 2.57 16.78 2.29 1.94.28 25.02 4.48 25.56 1.19.16-.99-92.74-12.39-104.8-11.59Z" fill="#ed8d4a" data-color="1"/>
        <path d="M586.02 12.78c3.18-.22 6.4-.27 9.59-.2-3.21-.44-6.41-.37-9.59.2Z" fill="#ed8d4a" data-color="1"/>
    </g>
</svg>
