<?xml version="1.0" encoding="UTF-8"?>
<svg data-bbox="-0.019 -0.049 1263.631 940.747" viewBox="0 0 1263.61 940.71" xmlns="http://www.w3.org/2000/svg" data-type="color">
    <g>
        <path d="M1247.42 387.59c34.74 5.37 5.63 46.03-13.55 53.62-36.5 20.21-56.71-22.18-91.39-10.51-36.61 9-71.98 21.84-107.03 35.76-40.84 13.88-89.8 25.62-112.93 66.05 5.97 6.83 13.69 7.75 14.03 19.6 1.49 18.21-15.9 42-33.36 25.48-9.56-13.66-10.27-34.42-31.23-28.4-37.17 6.11-71.6 27.32-88.51 62.3 38.97 39.56-22.14 79.67-27.51 25.51-69.72-6.18-137.91 36.8-156.93 106.14 12.14 11.45 15.17 21.61 9.21 36.72-4.43 12.89-28.19 12.15-31.13-1.62-1.46-5.44-2.45-11.02-3.86-17.54-49.74 3.41-135.81 42.53-164.07 87.01-7.64 25.84 10.45 56.94-6.18 81.25-24.33 35.21-55.53-17.54-43.69-43.59 8.14-26.45 25.12-53.26 16.23-81.58-23.89-128.75-149.39-205.39-240.84-286.67-14.68-9.36-35.33-26.83-53.41-22.64-28.78 5.03-62.8-2.57-77.5-30.4-14.82-23.34 17.16-54.01 38.62-35.44 13.58 12.93 62.63 39.54 80.21 29.61 42.9-17.61 90.68-31.11 120.5-69.58-53.29-52.39 41.56-83.81 26.53-15.76 55.59 18.54 192.72-23.67 201.4-90.7-35.61-11.15-33.3-40.21 1.71-48.66 13.93-.84 16.9 16.2 24.51 25.52 50.86-4.6 128.09-48.64 144.22-101.49-44.72-26.47 19.9-62.66 33.68-17.3 43.07-1.74 72.4-35.75 108.79-55.75-8-16.15-15.39-33.02-17.01-51.33-3.73-23.57 24.28-48.25 39.65-21.9 6.34 11.14 11.05 23.23 11.92 36.37 2.39 18.71-1.28 38.81 7.83 56.02 63.17 120.99 185.02 196.62 301.09 259.1 14.48 7.16 36.07 7.74 38.14 28.05.75 5.07 2.45 9.97 6.83 13.99 5.34 1.01 9.65-2.23 13.52-5.23 18.58-14.37 39.94-14.11 61.48-12.05Zm-65.64 28.85c42.69 38.87 78.63-13.08 54.14-16.36-20.52-3.5-36.05 6.81-54.14 16.36Zm-23.07-3.22c-1.24-14.09-8.84-22.85-20.5-30.81-8.29 11.39-14.93 21.85-14.41 36.71 12-1.22 23.04-4.07 34.91-5.9Zm-31.33-24.09c1.16-2.81 2.41-5.83 3.88-9.35-3.63-1.62-6.34-2.84-10.69-4.78 1.09 11.38 2.11 13.49 6.81 14.13Zm-25.07 32.38c19.46-20.67 19.82-20.29 8.42-48.25-.79-1.95-3.34-3.16-5.06-4.7l-11.55 10.85c1.31-4.82 2.62-9.63 4.05-14.88-7.42-5.07-13.82-10.69-21.7-13.46-4.58 4.6-5.96 8.75-3.86 14.47 3.32 8.6 3.3 17.8 8.22 25.92 3.39-2.18 5.93-3.82 8.46-5.45-2.29 5.78-6.85 11.83-7.97 17.76.84 8.52.73 17.26 3.73 25.63 8.27 2.14 12.94-3.31 17.26-7.89Zm-25.07 11.83c1.23-12.68 1.12-13.41-3.45-25.71-1.42.12-2.88.24-4.34.37.04-.06.09-.1.13-.15-.07.03-.13.07-.2.1 7.35-14.36 2.58-27.31-4.17-41.57-20.61 24.15-38.69 26.63-21.25 60.99 8.68-7.64 15.52-14.47 25.42-19.42-.01.02-.02.04-.03.07.03 0 .07-.01.1-.01-7.78 9.23-16.17 17.92-24.04 27.03-2.34 2.95-2.94 6.47.87 10.29 11.05-1.65 20.96-7.41 30.95-11.99Zm-14.53-78.01c-1.85-18.42-14.94-23.88-29.41-32.01-6.04 6.14-8.39 13.29-10.52 18.89 3.89 17.78 6.76 29.75 11.35 47.17 9.26-8.5 28.17-22.84 28.57-34.05Zm-32.26 95.41c3.25 2.19 9.58-3.17 6.5-5.85-1.79 1.85-6.8 3.17-6.5 5.85Zm2.95-12.7c4.95-4.77-.4-25.83-3.56-33.27-19.47 20-33.77 21.08-22.87 52.28 10.78-4.7 18.65-11.83 26.43-19.01Zm-31.07-15.29c8.93-10.64 28.89-20.55 25.62-33.26-3.35-14.69-3.71-29.26-11.8-43.25-7.43 10.61-25.18 21.67-22.57 34.8 2.47 15.14 3.01 26.62 8.74 41.71Zm17.73-91.26c3.4-4.93 5.48-7.94 8.15-11.79-4.97-3.43-8.96-6.18-12.95-8.94-.8.78-1.62 1.55-2.43 2.33 2.13 5.43 4.27 10.86 7.23 18.4ZM991.05 365c30.75-20.36 25.92-39.77 6.5-64.13-7.81 6.8-18.96 18.3-17.89 28.09 3.27 11.69 6.14 23.53 11.39 36.03Zm6.72 97.32c3.26-8.53.51-15.65-2.53-24.12-11.74 10.59-22.28 19.98-32.64 29.58-3.09 3.39-5.02 6.32-3.15 11.4 14.05-4 25.89-11.61 38.33-16.86Zm-2.66-36.9c-2.41-14.03-2.44-28.62-9.79-43.84-39.11 41.85-34.02 24.77-26.03 81.4 10.96-8.36 33.75-25.48 35.81-37.56Zm-18.18-109.71c6.17-7.08 12.32-12.28 15.29-20.69-9.98-5.43-17.12-13.66-28.92-18.19 3.28 14.35 6.36 26.72 13.63 38.88Zm7.33 58.88c-1.99-14.85-4.8-28.25-12.57-42.9-7.79 11.92-32.19 32-28.31 42.83 3.32 11.64 2.21 23.64 9.23 34.03 11.29-12.18 23.01-21.99 31.65-33.95Zm-13.25-50.32c-6.08-19.14-11.79-37.12-18.34-57.76-9.66 14.14-21.76 22.97-28.56 36.08 5.35 18.64 10.54 36.74 16.81 58.61 11.76-14.43 21.02-25.8 30.08-36.92ZM937.58 483.2c9.93-6.18 17.71-12.88 14.05-25.49-3.08-11.22-1.4-20.95-6.57-32.21-6.63 7.62-11.93 13.69-16.89 19.39 1.03 13.34 3.64 25.22 9.41 38.31Zm6.8-70.8c-.96-12.22-3.88-24.06-8.14-36.94-9.36 6.73-15.56 14.47-21.1 23.63 3.58 12.56 5.02 25.78 11.01 40.05 7.67-9.34 18.18-14.64 18.23-26.73Zm-22.39-119.34c10-9.31 18.07-18.74 25.24-29.8-9.4-6.76-16.1-15.36-25.98-18.58-22.11 9.42-5.71 32.7.74 48.38Zm-9.31 96.54c8.39-7.72 23.85-18.71 21.1-29.56-5.11-16.77-7.21-34.22-16.03-49.62-7.83 4.51-11.55 11.49-16.77 16.93-4.4 4.61-4.77 9.91-2.96 15.76 5.02 16.15 8.77 30.11 14.66 46.49Zm16.36 95.55c-2.12-10.39-2.64-21.27-7.89-31.61-27.98 16.46-19.43 23.47-13.82 52.12 7.93-7.08 21.31-11.17 21.71-20.51Zm-19.5 37.59c8.73-8.38 16.58-14.74 22.28-25.55-17.5 9.21-25.07 10.67-22.28 25.55Zm10.34-77.39c-1.77-14.93-5.44-28.06-11.43-42.93-7.64 9.47-21.66 14.38-19.04 26.4 3.73 12.46 4.09 24.22 10.15 36.14 7.55-7.29 14.04-13.55 20.33-19.62Zm-6.04 123.8c12.64 1.84 17.37-23.84-1.37-22.94-5.32 3.3-3.3 10.61-3.64 16.02.03 3.43 1.71 5.88 5.01 6.92ZM895.16 324.9c7.29-10.48 21.33-16.5 18.67-29.57-2.87-10.24-4.54-20.91-11.01-31.55-10.27 8.25-17.91 16.59-21.15 26.46 5.07 13.72 6.41 22.84 13.49 34.66Zm9.3-77.55c5.33-1.91 8.12-4.82 8.57-10.3-5-4.73-10.05-9.49-15.1-14.26.75 8.75 2.43 16.85 6.53 24.56Zm1.94 142.52c-3.93-16.31-8.78-32.38-16.16-48.53-7.9 4.74-12.98 10.84-17.51 18.23 4.15 17.71 8.33 35.56 13.26 56.63 8.85-9.87 20.29-14.02 20.41-26.32Zm-12.18 145.46c9.78.63 13.2-11.34 5.37-17.22-6.85 5.21-14.22 8.66-20.61 17.23 6.43 0 10.83.01 15.24-.01Zm6.85-27.29c-2.78-9.38-2.2-19.37-7.99-27.28-3.78 1-6.63 1.74-9.47 2.5.04-.07.09-.13.13-.2l-.13.07c2.61-4.2 5.23-8.41 8.37-13.48-3.99-12.61-3.19-27.22-10.56-40.38-34.48 24.7-30.97 28.76-19.49 68.52 7.66-6.37 13.33-10.58 21.68-14.67-.03.06-.07.1-.1.15.03-.01.07-.02.1-.02-13.42 20.78-29.33 17.44-13.45 48.3 11.82-6.75 21.65-14.51 30.92-23.52Zm.51-252.94c-6.7-10.39-7.44-22.6-14.98-33.11-7.5 9.1-14.52 17.63-21.68 26.31 3.55 10.92 4.75 22.21 13.98 31.12 7.8-8.37 15.01-16.11 22.68-24.32Zm-31.09 96.27c6.6-8.31 18.27-13.59 17.67-24.34-3.45-10.6-7.68-20.92-12.34-33.25-8.1 8.44-17.74 11.64-19 21.85 2.88 12.15 5.21 24.66 13.67 35.75Zm-20.35 97.48c9.11-8.94 30.27-21.98 28.9-33.61-2.77-14.1-6-28.1-9.33-42.08-.53-2.23-2.37-4.13-4.75-8.1-11.18 12.11-22.47 22.06-33.32 32.72 6.83 18.7 10.15 33.5 18.51 51.07Zm10.9-210.95c11.64-6.88 14.14-9.61 22.01-23.49-4.06-14.69-13.58-27.93-31.54-43.31-4.54 5.26-9.07 10.52-14.29 16.57 8.55 18.01 16.16 34.08 23.82 50.23Zm1.07 297.21-5.07-24.79c-10.71 8.86-19.21 15.88-27.68 22.89 1.25 5.02 2.21 8.86 3.45 13.85 9.69-5.06 20.47-4.19 29.3-11.95ZM855 303.95c26.33-22.1 14.86-18.97 4.33-49.85-8.53 5.97-15.35 11.64-20.75 18.59 4.27 11.2 7.65 21.91 16.42 31.26Zm9.56 53.94c-4.6-13.52-8.86-26.06-13.15-38.65-11.93 5.76-26.59 19.11-35.02 31.94 3.58 12.58 5.42 26.24 14 39.17 12.02-11.41 23.05-21.89 34.17-32.46Zm-8.24 144.4c-4.18-13.27-3.89-27.32-11.65-40.43-7.36 5.5-14.04 10.09-20.28 15.23-8.67 7.12-8.68 8.1-5.41 18.25 3.3 10.98 5.12 19.11 9.67 30.47 9.84-7.73 19.36-13.32 27.67-23.52Zm-20.26-236.73c6.91-7.42 15.1-11.97 19.48-20.37-4.85-18.3-13.31-34.51-22.79-52.09-10.95 10.52-25.68 21.08-13.76 36.87 3.64 12.49 8.86 24.38 17.06 35.59Zm-1.83-85.95c6.53-3.99 10.79-8.77 14.78-15.86-8.87-12.91-17.25-25.14-25.72-37.3-.48-.67-1.77-.77-3.75-1.57-3.16 3.98-6.53 8.22-9.76 12.29 8.46 14.68 16.29 28.28 24.45 42.43Zm3.56 279.49c6.11-4.89 6.62-6.66 4.03-14.6-5.07-13.89-8.03-27.79-15.23-40.88-9.49 5.33-16.24 13.07-23.96 19.56-5.17 4.33-5.91 9.25-3.74 15.1 5.22 12.51 8.06 26.17 15.74 37.47 8.8-4.73 15.29-10.79 23.16-16.65Zm-25.93-118.27c42.81-33.48 41.38-22.99 21.21-64.52-14.37 12.24-25.17 19.36-36.76 31.66 5.32 11.25 10.43 22.03 15.55 32.87Zm9.46 212.82c4.52-3.31 4.47-4.07-.05-15.23-9.79 7.16-18.61 13.18-26.94 19.82-6.18 4.93-5.97 6.07-1.36 15.76 9.47-6.78 18.98-13.48 28.35-20.35Zm7.16-284.84c-5.39-15.56-12.32-30.79-22.05-47.91-43.67 42.84-37.83 23.97-13.99 78.31 13.58-7.61 29.5-21.08 36.03-30.4Zm1.19-83.33c-7.85-15.42-13.63-30.72-24.96-42.63-10.88 6.85-18.02 14.15-22.22 21.99 9.12 14.47 18.03 28.61 27.41 43.49 6.92-7.42 13.32-14.83 19.77-22.85Zm-5.43 210.6c-4.65-14.48-8.53-28.02-16.34-41.49-11.12 8.82-21.37 16.94-32.51 25.77 4.68 14.62 11 27.61 19.25 41.21 10.11-8.71 19.3-16.63 29.59-25.5Zm-3.01 135.49c-2.45-14.85-5.93-28.08-11.59-43.75-11.96 9.88-23.99 16.95-34.51 27.19 4.52 13.27 6.51 26.92 13.71 40.31 11.57-8.66 21.24-15.76 32.39-23.75Zm-17-401.35c9.44-7.17 15.99-11 9.29-22.84-6.94-22.66-11.78-20.84-28.19-6.38 3.89 11.53 9.47 20.86 18.9 29.22Zm-4.88-57.98c4.37-1.24 7.56-3.98 7.5-8.52-.22-16.25.99-35.38-13.05-46.5-11.57 5.54-14.97 10.4-14.15 20.95.79 8.51 8.22 37.6 19.7 34.07Zm7.63 408.92c-2.77-16.45-10.25-30.86-16.54-46.92-12.37 8.74-23.87 16.88-36.71 25.95 4.74 16.86 11.92 31.33 19.51 47.01 12.41-8.41 23.96-15.62 33.74-26.04Zm-.72-134.51c-5.05-11.38-10-22.55-15.96-36.02-36.85 31.14-46.1 17.27-17.8 62.18 12.39-7.85 23.76-15.35 33.76-26.16Zm-2.57-130.9c-8.85-23.57-15.94-35.06-29.4-47.7-11.21 8.22-21.83 17.28-30.77 28.61 8.52 17.01 16.71 33.36 25.33 50.58 13.15-9.82 22.73-20.29 34.84-31.49Zm-28.4-58.11c10.23-5.29 17.77-12.17 23.3-22.73-6.63-10.12-13.26-20.21-19.79-30.19-11.71 4.86-17.48 10.2-25.95 24.16 7.17 9.18 14.61 18.71 22.45 28.76Zm10.45 424.92c-.97-4.66-1.85-8.87-3.22-15.45-13.29 8.41-24.12 15-34.65 22.05-6.43 4.31-6.32 7.81-.09 17.28 12.36-7.77 24.73-15.56 37.96-23.88Zm-14.32 58.2c1.87 15.83 17.33 4.64 10.58-5.61-4.11-5.12-11.17-.73-10.58 5.61Zm15.68-214.32c-4.3-15.05-9.55-29.12-19.02-42.09-13.56 7.3-24.99 16.13-35.48 25.72 7.67 25.96 11.82 35.03 19.49 42.15 12.24-7.41 25.13-14.21 35.01-25.77Zm-5.71 134.52c-4.22-14.09-5.29-27.98-13.61-41.01-12.67 8.53-24.8 16.7-36.52 24.6 1.04 14.62 6.01 32.5 11.34 40.57 13.68-6.47 25.53-15.92 38.78-24.16Zm-9.4 39.61c-.72-.65-1.44-1.29-2.15-1.94-5.73 5.41-23.31 11.56-21.84 20.35 13.69 11.72 18.62-9.16 23.99-18.42Zm-19.05-269.58c47.32-35.05 34.55-18.52 13.81-73.28-12.53 12.46-27.29 19.57-38.53 31.27 7.52 14.69 13.58 29.26 24.72 42.01Zm17.37-169.76c-4.33-5.18-8.08-9.94-12.12-14.43-4.31-4.77-5.93-11.94-13-15.17-10.68 7.82-20.03 16.74-28.56 27.29 7.25 10.51 11.99 21.9 22.6 29.8 11-8.3 22.13-15.9 31.07-27.49Zm-3.64 351.16c-5.47-16.35-10.09-32.34-21.07-46.32-12.33 8-23.79 15.44-35.78 23.21 5.83 20.9 14.22 41.39 19.75 48.14 12.4-7.64 25.08-15.01 37.1-25.03Zm-.47-135.66c-7.03-11.31-10.01-23.44-18.76-33.29-12.34 7.84-24.95 14.12-36.79 23.16 5.09 12.44 9.01 24.87 17.23 36.02 13.61-7.28 25.09-16.3 38.33-25.88Zm-3.09-124.4c-8.45-25.09-17.98-42.45-28.27-51.26-12.57 9.43-26.64 17.33-37.7 28.8 8.65 18.91 23.87 44.82 29.83 50.79 11.85-9.35 25.6-16.35 36.13-28.32Zm-27.26 362.64c5.2-5 1.29-10.95-1.12-17-11.17 5-20.25 11.52-29.1 18.34-7.55 16.75 25.46 4.27 30.22-1.34Zm7.4-157.8c-6.63-12.94-8.12-28.68-18.3-41.67-12.78 6.89-25.38 13.14-35.46 23.94 3.48 14.94 10.04 28.08 16.69 41.09 14.5-4.33 25.04-10.92 37.07-23.35Zm1.35-122.89c-8.15-13.19-11.4-29.3-22.76-41.83-11.95 7.72-23.46 15.14-36.08 23.28 7.5 15.44 14.17 29.13 20.76 42.68 13.61-4.77 29.02-14.59 38.08-24.14Zm-11.42 251.9c-2.08-11.96-4.69-23.89-11.93-35.39-10.92 5.56-21.1 10.84-30.33 19.47 3.65 12.74 7.29 25.39 11.56 40.31 9.45-7.34 30.17-14.49 30.7-24.39Zm-2.15-449.97c-8.66 2.34-16.97 4.31-23.11 10.42 5 5 5.07 5.08 7.3 3.2 5.32-4.49 10.55-9.07 15.81-13.62Zm-38.68 86.38c17.47-9.51 32.74-20.95 39.77-29.83-6.86-9.82-13.82-19.78-21.22-30.35-14.2 11.73-27.86 18.91-40.28 31.99 7.61 9.88 14.73 19.1 21.73 28.19Zm29.34 185.58c-6.13-13.59-8.96-26.03-16.67-37.88-13.36 6.73-26.94 11.96-38.1 20.58-1.12 9.06 4.87 14.28 7.53 20.78 2.86 7 5.25 14.38 11.28 20.73 12.09-8.15 23.76-16 35.97-24.21Zm-1.01 133.58c-5.17-16.74-11.08-32.21-18.01-47.87-13.41 3.61-21.53 14.06-33.23 20.07 6.05 15.71 11.83 30.77 18.48 48.06 13.3-6.95 21.32-11.8 32.76-20.25Zm-1.93-256.16c-6.59-18.48-15.87-36.56-29.48-50.5-12.75 8.27-24.43 16.12-35.41 27.04 9.95 15.75 19.66 31.13 29.77 47.13 12.12-7.42 24.58-13.06 35.13-23.66Zm-13.58-128.71c-8-17.23-18.95 3.77-40.69-1.27-6.08-1.3-8.82 3.73-11.41 8.28-5.75 9.58 7.09 16.64 11.62 23.41 16.09-7.43 31.56-19.19 40.48-30.42Zm-6.7 469.51c-3.4-9.64-30.61 10.4-36.76 13.55-.2.11.46 1.65 1.04 3.6 11.26-7.27 24.38-10.12 35.72-17.14Zm4.8-263.1c-9.19-13.91-13.71-28.2-22.43-40.66-8.37 1.8-13.7 7.73-20.12 11.59-6.78 4.08-15.34 5.83-19.79 14.77 3.47 5.63 6.82 11.31 10.42 16.83 3.8 5.84 4.84 13.57 11.65 17.96 12.9-6.55 25.55-13 40.27-20.48Zm-3.11 121.05c-7.86-12.71-8.08-28.15-18.42-39.72-12.36 7.49-24.05 14.58-36.57 22.17 7.97 13.43 11.72 28.49 21.85 39.44 12.86-4.16 21.98-13.74 33.14-21.89Zm-4.45 128.37c-2.03-13.25-5.09-25.87-11.7-38.07-14.44 4.19-25.08 13.59-37.63 21.57 3.88 11.97 7.61 23.49 12.13 37.4 13.43-6.97 26.04-12 37.21-20.9Zm-9.16-383.9c-6.63-13.78-12.22-20.98-22.59-29.54-18.35 8.88-31.39 19.23-37.4 29.93 6.26 9.73 14.29 17.93 24.31 25 12.87-7.7 24.49-16.43 35.68-25.39Zm-5.98 337.45c-2.6-17.56-10.15-31.58-16.92-45.84-7.82 1.62-29.85 13.69-40 21.94 3.12 7.25 6.47 14.67 9.53 22.2 3.22 7.92 4.52 16.81 11.66 23.62 12.5-7.41 25.6-12.84 35.74-21.91Zm-1.91-131.28c-7.68-12.77-9.78-28.15-20.07-40.09-14.64 6.64-28.06 14.42-41.56 24.33 8.97 13.24 13.53 28.15 24.74 40.34 12.19-8.32 28.68-12.19 36.88-24.59Zm-.72-121.15c-8.57-16.56-18.43-31.82-29.14-47.15-15.97 6.1-29.29 14.94-42.21 26.11 9.81 15.98 19.29 31.44 29.44 47.95 14.2-9.07 29.01-15.56 41.91-26.92Zm-23.23-168.57c6.62-16.02-5.74-18.13-17.49-7.95 4.08 6.82 9.89 9.25 17.49 7.95Zm4.45 45.84c-4.21-4.71-7.89-8.81-13.16-14.69-7.35 14.4-17.41 25.77-28.36 37.1-2.09 6.53 5.57 7.52 9.35 4.05 11.2-8.66 22.94-15.26 32.17-26.46Zm-7.04 459.28c.85-.71.12-3.33.12-6.37-14.1 7.75-27.51 11.23-39.22 20.62 1.22 3.88 2.51 7.99 4.49 14.32 12.96-10.61 23.91-19.45 34.61-28.57Zm7.99-140.46c-8.32-12.25-12.51-26.14-21.94-37.9-12.65 7.51-24.76 14.69-36.74 21.8 4.82 11.49 9.23 22.35 13.92 33.1 2.09 4.81 5.51 6.66 9.71 4.89 12.61-5.32 24.36-12.1 35.04-21.89Zm-5.6-122.7c-5.98-13.62-11.42-26.47-21.99-35.55-13.85 8.47-26.72 16.34-40.22 24.59 7.21 12.32 13.8 23.57 20.61 35.22 15.19-7.04 28.7-14.51 41.6-24.26ZM650.28 637c-1.06-16.46-5.89-29-13.58-35.85-36.59 17.13-48.37 13.88-25.5 54.74 14.89-2.76 26.34-11.4 39.09-18.89Zm-7.2-377.2c-8.22-12.74-14.89-19.62-26.19-26.82l-36.53 29.32c7.35 10.28 13.18 15.48 21.61 24.61 14.12-9.3 27.61-18.21 41.11-27.11Zm-7.09 331.58c-5.71-15.66-8.92-32.82-21.75-46.8-6.94 3.96-13.15 7.33-19.19 11-6.43 3.89-14.68 4.4-19.75 10.48 1.99 11.86 13.41 38.88 19.46 46.3 9.65-2.57 32.93-14.25 41.23-20.98Zm-2.19-128.59c-7.1-13.34-14.31-26.77-23.39-40.01-12.47 7.27-25.62 11.55-38.23 21.25 9.96 13.79 15.65 28.75 24.41 41.52 18.5-6.88 29.43-13.62 37.22-22.76Zm-4.23-120.55c-7.59-15.61-17.71-30.11-27.63-44.55-13.89 6.39-35.29 20.7-42.7 28.58 8.87 13.92 17.86 28.01 27.24 42.72 23.09-8.52 34.54-15.62 43.08-26.74Zm-14.8-116.18c-2.06-2.25-3.36-3.68-5.17-5.67-13.96 10.12-26.59 19.26-39.97 28.95 2.31 2.46 4.52 4.85 7.07 7.59 13.8-9.48 26.27-19.35 38.07-30.86Zm-3.32 454.45c-1.97-4.74-3.65-8.8-5.74-13.81-16.96 6.83-33.67 11.88-49.77 20.09 2.23 6.19 2.54 11.86 7.8 16.81 7.78-3.57 15.69-6.74 23.16-10.76 7.82-4.21 17.3-5.32 24.56-12.33Zm2.2-143.27c-6.86-13.87-12.93-26.13-18.88-38.14-13.13 3.45-30.83 13.63-39.09 22.3 4.5 11.95 7.78 24.73 15.62 36.03 16.13-4.94 26.22-11.9 42.35-20.19Zm-9.02 122.21c-5.57-12.48-6.23-24.75-14.24-33.6-17.63 3.87-37.61 14.17-47.67 24.5 2.87 9.53 5.84 19.23 10.5 29.16 17.46-5.72 34.19-11.2 51.41-20.06Zm2.63-243.41c-7.37-11.3-12.17-28.98-23.81-34.67-12.58 6.71-24.61 14.01-35.62 23.67 6.49 11.57 11.85 23.11 22.68 31.52 12.21-6.82 24.09-13.46 36.75-20.53ZM570.24 727.3c23.26-10.41 32.27-18.01 34.69-35.37-14.4 4.37-29.78 12.12-39.77 20.28 1.49 4.44 3.09 9.2 5.08 15.1Zm24.51 47.9c-.62-5.27-.95-7.97-1.26-10.69-4.14 3.44-3.97 6.31 1.26 10.69Zm-13.58-32.13c2.72-5.08 7.45-9.41 7.74-16.92-7.12 1.4-11.37 5.64-15.66 9.53-4.82 6.19 2.75 12.62 7.92 7.39Zm8.08-254.41c-7.05-13.76-13.28-28.2-22.94-40.95-10.83 2.48-34.17 15.31-37.91 24.62 8.15 12.6 13.18 26.58 22.2 37.84 17.58-5.11 30.57-12.34 38.65-21.51Zm-2.39 127.59c-4.61-16.42-12.18-30.46-18.96-45.52-10.29 1.54-36.33 13.13-46.82 20.78 5.95 15.91 10.88 32.5 19.13 48.85 15.86-8.2 31.85-14.34 46.65-24.11Zm-34.14-298.47c17.86-6.89 33.85-17.68 41.69-28.29l-19.08-22.52c-14.67 11.91-29.69 18.34-40.56 31.25 5.06 7.6 11.8 13.49 17.95 19.56Zm27.41 55.87c-7.92-17.83-20.45-36.56-29.82-44.67-12.74 7.35-27.04 13.44-39.33 21.87 6.78 14.46 25.01 38.62 34.62 45.79 11.87-6.97 24.44-13.36 34.53-22.98Zm-17.89 358.08c.33-6.19.12-12.13-5.63-17.33-14.93 6.67-30.42 12.49-44.82 21.54 2.23 5.85 1.99 11.83 7.54 15.7 14.11-7.06 30.24-9.04 42.92-19.91Zm3.72 10.97c-8.72-3.2-13.05 2.68-18.34 5.09 6.12.58 12.04.45 18.34-5.09Zm4.21-480.21c-8-9.21-7.92-8.96-15.69-6.1-10.44 3.84-21.09 7.11-31.55 10.89-4.01 1.45-8.74 1.66-12.4 5.61 5.69 6.64 9.76 13.69 16.88 18.23 16.03-6.62 28.48-17.86 42.76-28.62Zm-6.74 297.27c-7.74-25.07-10.17-29.83-18.55-35.93-14.38 6.95-28.94 13.99-44.27 21.39 5.59 12.72 10.69 24.31 16.12 36.66 19.46-5.83 39.16-15.32 46.7-22.11Zm-8.04 146.45c-1.46-5.17-2.11-10.8-7.52-15.77-13.83 7.55-30.34 9.05-43.79 18.59.96 7.27 2.98 10.67 5.86 17.44 13.06-2.14 33.04-11.2 45.44-20.26Zm6.43-266.09c-9.19-11.34-11.2-22-22.49-31.25-9.53 6.22-31.26 11.49-35.21 21.87 6.2 10.59 12.3 21.02 19.34 33.03 14.31-7.35 25.91-15.87 38.36-23.65Zm-15.09 241.71c-3.39-10.19-6.58-19.79-10.45-31.45-16.34 7.78-30.83 14.7-45.1 21.51 4.04 16.67 6.3 21.97 12.43 29.05 13.54-7.2 29.83-8.68 43.12-19.11Zm-1.13-360.95c-6.93-8.05-12.12-16.43-21.96-20.14-6.24 3.89-12.42 7.47-18.28 11.5-6.12 4.21-14.11 5.88-19.13 13.71 5.61 6.19 11.01 12.14 15.99 17.65 15.23-3.5 32.2-12.35 43.38-22.72Zm-2.06 193.92c-6.44-14.76-13.08-28.45-23.67-41.29-15.02 8.39-29.72 16.09-43.65 26.81 6.75 12.56 13.25 24.61 19.61 36.44 11.27-2.62 33.82-12.96 47.7-21.96Zm-11.13 127.51c-3.51-17.69-12.06-38.12-20.43-47.97-15.13 5.71-30.58 11.52-47.16 17.77 7.55 17.59 14.55 33.91 21.78 50.76 13.99-2.35 31.37-10.39 45.8-20.55Zm4.13-241.63c-13.46-13.87-19.67-32.8-34.84-44.42-11.49 1.91-27.94 10.47-40.51 21.4 14.26 14.79 25.25 27.8 37.53 43.97 13.67-7.76 26.37-11.25 37.82-20.95Zm-17.66-106.47c-3.4-8.69-10.54-14.52-17.46-20.2-17.67-11.27-21.57 26.76-27.01 37.43-1.39 20.26 37.83-12.13 44.46-17.23Zm-9.65 456.91c.4-5.05-.72-9.68-5.35-13.71-9.51 3.16-18.54 7.03-27.08 13.4 1.94 4.75 3.61 8.87 5.53 13.59q14.93-2.86 26.91-13.28Zm6.81-286c-6.37-10.75-11.63-21.78-20.4-32.02-17.25 5.5-33.72 12.28-50.82 22.5 10.81 11.79 15.74 26.15 27.66 37.01 7.74-4.19 15.45-7.93 22.72-12.42 7.11-4.4 15.86-6.74 20.85-15.06Zm-6.45 120.16c-3.81-13.52-9.14-25.5-17.72-37.24-16.72 7.38-34.5 11.46-50.56 21.41 6.7 12.11 11.56 23.99 20.99 35.15 16.09-7.1 33.32-8.35 47.29-19.32Zm-6.66 144.1q-2.43-11.77-7.96-18.92c-8.91 5.15-19.91 5.9-29.18 13.19 2.66 6.29 5.19 12.25 7.91 18.66 11.5-2.5 21.1-6.21 29.23-12.93Zm-7.99-27.79c-3.74-9.03-7.2-17.38-11.25-27.18-12.06 4.83-23.42 5.66-32.24 14.21 3.76 9.88 7.29 17.33 12.27 26.76 11.46-3.65 22.28-5.57 31.21-13.79Zm1.62-354.55c-6.28-6.44-11.83-12.14-18.09-18.54-13 10.13-28.13 15.49-38.03 29.41 5.57 4.64 10.18 8.49 15.31 12.77 13.37-8.38 28.04-12.8 40.81-23.64Zm-8.77 194.6c-5.06-16.2-13.28-30.17-23.6-39.8-14.65 7.88-30.69 14.12-46.27 24.28 6.36 11.89 10.88 24.39 20.25 36.46 17.15-7.24 33.44-14.11 49.62-20.94Zm-25.23-282.42c.66 11.16 17.49 8.47 16.38-1.53-1.62-12.03-17.19-10.52-16.38 1.53Zm15.27 515.96c-6.49-.84-49.59 15.81-28.8 18.59 8.03-5.33 24.25-10.89 28.8-18.59Zm11.16-351.29c-7.86-17.47-22.51-29.2-35.1-42.99-23.56 9.93-37.87 18.04-44.47 25.15 9.98 13.19 20.06 26.5 29.89 39.47 12.33-1.5 37.85-12.56 49.68-21.63ZM475.9 766.08c-1.67-4.73-3.12-8.83-4.8-13.56-13.2 4.24-25.87 6.83-38.53 13.05 2.2 5.11 4.12 9.56 6.17 14.32 14.27-.63 25.33-7.15 37.16-13.81Zm3.16-99.26c-3.35-16.31-14.36-41.22-22.48-50.71-10.52 2.72-20.53 6.78-29.12 15.35 5.74 14.1 11.28 27.85 16.99 41.53 4.19 11.78 28.26-.95 34.61-6.17Zm-23.48-331.4c5.69-3.1 11.62-5.7 17.03-13.41-11.05.79-12.94 8.75-17.03 13.41Zm12.29 408.42c-2.43-6.19-4.63-11.83-8-20.43-13.29 4.56-26.12 6.2-38.28 12.79 3.13 8.39 3.44 14.22 9.35 21.01 11.91-4.71 25.65-3.75 36.94-13.37Zm-11.27-27.49c-2.5-10.75-7.42-19.5-13.07-28.74-14.06 3.75-27.66 7.38-44.06 11.74 6.58 8.66 12.08 26.61 20.99 27.28 12.45-1.5 24.71-3.98 36.14-10.28Zm6.25-223.44c-9.92-11.5-15.44-25.11-26.44-34.02-18.67 2-36.84 9.23-48.81 19.76 7.09 11.57 13.58 22.54 20.48 33.25 3.48 5.39 6.94 6.41 13.2 3.66 14.32-7.22 29.57-11.33 41.57-22.65Zm-10.43 113.98c-4-12.62-10.34-23.34-17.72-33.73-11.84 1.78-21.05 7.81-31.41 13.41 7.43 12.06 8.61 26.72 20.17 36.26 10.88-5.53 19.98-8.13 28.95-15.94Zm-4.52-232.88c-5.87-5.12-10.68-9.31-15.13-13.21-16 6.55-31.16 11.88-44.56 22.97 4.99 4.7 9.32 8.76 14.19 13.34 15.79-5.82 30.26-13.49 45.49-23.1Zm-9.17 423.95c-2.03-3.21-3.53-5.55-4.98-7.83-15.54 3.64-30.79 5.08-43.82 13.37.66 8.3 1.27 15.83 1.89 23.56 3.28 1.92 6.25 3.67 9.86 5.79 12.08-11.38 23.89-22.51 37.04-34.9Zm2.56-119.14c-5.68-15.65-12.32-30.42-20.4-45.16-17.52 4.61-31.26 15.72-48 21.23 5.67 13.95 14.67 24.25 22.32 34.73 8.79 1.97 16.22-.43 23.33-2.85 7.46-2.54 16.1-2 22.75-7.96Zm-9.31 102.48c-1.91-6.04-2.19-11.92-7.98-16.06-13.53 3.1-26.56 8.15-38.5 15.81-.69 6.01-.02 10.7 5.97 14.72 11.96-8.27 27.93-5.99 40.51-14.47Zm-.99-216.41c-7.78-13.9-13.12-27.08-23.16-38.9-10.46 7.74-23.49 8.55-31.98 18.46 6.31 12.44 13.52 23.41 22.3 33.8 11.67-1.74 21.01-7.94 32.83-13.36Zm-8.34 193c-2.28-8.9-4.87-16.45-10.21-23.33-14.29-1.83-26.96 2.05-39.56 9.27 1.37 10.87 6.22 19.73 10.84 29.96 13.18-5.39 25.78-10.52 38.93-15.9Zm7.71-307.98c-5.93-15.44-19.26-33.11-30.69-41.04-15.69 4.97-30.87 11.66-44.57 21.5 5.69 10.56 23.23 33.4 29.85 39.03 14.79-6.36 29.68-12.74 45.41-19.5ZM415.8 625.54c-4.63-13-10.55-25.5-19.66-36.33-10.09 4.12-18.79 8.35-27.92 11.27-19.05 6.12-19.14 5.85-27.03 13.12 8.7 11.05 17.43 22.14 26.34 33.46 17.05-4.17 37.3-13.24 48.27-21.52Zm-7.34 100.33c-5.16-9.18-9.57-17.04-14.24-25.36-13.05 3.65-26.72.67-40.24 8.87 5.72 9.71 10.28 17.28 15.89 26.33 13.24-3.38 25.24-6.44 38.59-9.85ZM385 925.69c24.44-6.67 8.51-56.4 7.39-74.97-.12-.8-1.25-1.46-2.18-2.5-11.47 8.68-15.76 28.18-20.09 41.62-2.36 10.83.69 35.42 14.88 35.85Zm21.71-405.96c-10.88-13.6-16.14-28.42-27.1-39.02-12.51 3.1-33.25 12.63-40.75 18.89 5.48 5.97 10.87 11.99 16.41 17.83 5.5 5.79 7.22 14.93 16.75 19.02 10.36-5 21.26-10.25 34.69-16.72Zm-13.3-150.78c-4.45 1.44-8.9 2.87-13.34 4.3.28 1.09.57 2.17.86 3.25 5.32.52 9.44-2.01 12.49-7.55Zm.61 31.33c-5.56-9.41-12.64-16.17-23.73-10.76-13.33 6.52-27.68 8.81-40.05 17.55l18.71 17.69c16.15-8.75 30.53-14.55 45.07-24.48Zm-6.56 291.84c-3.22-8.18-15.77-26.25-24.38-34.91-13.39 4.4-28.91.21-42.17 8.87 4.4 11.58 15.02 19.34 21.8 29.6 6.51 9.8 33.87-2.78 44.75-3.56Zm4.31-111.49c-5.71-8.39-11.26-16.97-17.25-25.21-6.1-8.41-7.71-8.57-18.1-4.41-16.15 7.48-33.56 10.92-48.44 20.99 9.14 11.01 17.85 21.51 26.58 32.03 20.26-7.98 40.18-9.87 57.21-23.4Zm-25.58-196.2c1.87-.73 3.25-2.73 7.68-6.62-23.93 2.22-43.1 8.37-63.36 14.2 6.24 6.95 12.34 8.76 20 5.75 11.82-4.64 23.84-8.75 35.68-13.33Zm8.41 87.39c-9.18-17.37-18.53-28.79-30.31-37.14-17.28 7.75-34.75 15.58-54.33 24.35 14.47 11.85 27.39 22.44 40.9 33.51 14.66-7.78 30.35-11.66 43.73-20.73Zm-13.16 68.48c-6.93-16.69-20.03-26.64-32.15-38.69-23.31 8.81-46.78 11.18-66.82 23.13 10.76 11.05 21.32 21.36 31.23 32.28 5.73 6.31 11.65 7.24 19.14 4.2 16.04-7.39 33.88-10.96 48.6-20.92Zm-2.86 108.22c-7.43-14.16-16.8-25.27-27.81-35.12-15.61 4.21-31.19 6.22-47.27 12.99 7.54 13.87 18.94 21.86 28.25 33.04 15.01-6.12 31.74-3.66 46.83-10.91Zm-17.17-220.66c-10.39-7.6-15.69-22.19-28.73-16.49-19.15 9.53-37.79 16.5-57.89 24.04 11.79 8.27 20.74 17.79 35.38 13.28 17.28-4.42 33.16-12.19 51.25-20.83ZM283.5 618.11c14.5-4.37 28.79-6.15 42.56-13.11-37.75-46.39-20.12-32.14-88.39-20.23 8.67 11.91 19.5 18.41 29.2 28.85 4.98 5.19 10.32 6.12 16.63 4.49Zm-24-102.48c22-6.07 39.13-11.4 62.15-19.06-15.84-14.77-37.11-40.22-58.34-32.84-19.25 7.03-39.87 10.13-58.31 19.2 15.51 11.09 29.97 21.38 44.35 31.75 3.31 2.39 6.65 1.96 10.15.95Zm50.93-111.7c-15.98-12.92-45.05-27.41-59.07-4.32-5.7 9.2-15.48 15.81-24.17 24.29 16.8 16.69 65.13-9.42 83.23-19.97Zm-75.74 172.19c17.12-3.29 42.11-2.01 56.61-11.77-55.88-61.45-36.6-27.91-105.33-24.33.4 1.73.29 3.08.89 3.58 11.21 9.56 22.6 18.91 33.75 28.54 4.22 3.64 8.76 4.7 14.08 3.97Zm19.56-203.38c5.04-7.24 8.31-17.76 1.35-23.9-3.43-2.23-10.55-1-12.32 2.42-4.3 8.82.61 18.96 10.97 21.49ZM202.66 474.2c22.83-5.9 42.7-10.96 65.27-19.89-12.61-6.78-20.38-17.04-33.76-16.76-30.53 2.7-59.73 10.03-87.9 22.22-.09.86-.17 1.72-.26 2.57 17.54 3.49 39.43 16.42 56.65 11.85Zm40.37 45.24c-15.8-14.15-32.95-22.96-49.62-32.5-4.77-2.74-9.4-2.08-14.47-.03-14.94 5.49-28.39 8.68-44.19 13.58 36.04 39.69 61.36 36.26 108.27 18.96Zm-75.12-35.53c1.59-.33 2.9-1.96 5.49-3.82-23.05-10.43-45.19-11.39-68.5-6.87-6.54 13.84 14.4 20.09 24.54 18.4 12.81-2.61 25.67-5 38.47-7.71Zm-74.65-8.84c-5.25-11.17-14.25-13.13-21.96-16.23-10.02-4.01-19.04-9.39-27.58-15.82-7.56-6.75-18.2-12.71-26.7-3.75-5.42 5.2-6.47 11.22-3.25 18.05 7.46 17.77 28.59 20.06 44.89 24.53 11.72 2.24 22.36-3.31 34.61-6.78Z" fill="#ed8d48" data-color="1"/>
    </g>
</svg>
