<?xml version="1.0" encoding="UTF-8"?>
<svg data-bbox="0.016 -0.015 1988.528 3761.996" viewBox="0 0 1988.52 3762" xmlns="http://www.w3.org/2000/svg" data-type="color">
    <g>
        <path d="M1966.37 2868.93c-12.45-86.29-21.56-173.08-34.15-259.35-15.96-109.37-33.62-218.51-51.21-327.64-21.62-134.11-43.36-268.21-66.13-402.13-16.57-97.43-35.17-194.51-52.34-291.84-11.62-65.87-40.11-121.06-95.9-160.61-23.76-16.84-45.11-37.26-69.6-52.83-22.29-14.16-32.62-31.4-30.31-57.59 4.94-56.08 7.25-112.46 14.01-168.31 10.99-90.77 29.32-180.16 70.03-262.98 17.09-34.77 37.61-67.94 58-100.96 13.36-21.64 14.05-40.68-7.14-56.16-28-20.46-54.92-44.63-86.25-57.78-51.6-21.66-105.64-38.73-160-52.33-69.62-17.42-140.73-28.79-210.89-44.17-37.06-8.13-32.04-14.07-10.08-61.76 10.33-22.43 20.98-44.72 32.29-66.68 33.9-65.81 68.74-131.14 102.93-196.8 29.27-56.2 18.86-108.26-31.2-128.27-35.22-14.08-50.62-34.68-58.19-70.9-10.7-51.25-44.37-64.31-85.05-33.01-24.33 18.71-41.72 24.32-72.22 12.44-55.63-21.65-96.95-2.36-124.6 50.8-21.52 41.38-41.21 83.72-61.43 125.77-36.16 75.25-73.51 149.98-107.4 226.25-12.27 27.61-21.73 58.88-22.35 88.69-.93 44.52 3.55 42.45-45.47 53.3a505.142 505.142 0 0 1-36 6.64c-87.16 12.75-174.46 24.59-261.42 38.51-16.47 2.64-32.2 12.41-47.3 20.68-28.79 15.78-55.78 35.26-85.57 48.64-25.25 11.34-25.2 21.45-12.46 43.79 21.08 36.98 38.83 76.04 55.68 115.22 62.33 144.96 118.16 291.61 118.63 453.03.17 56.83.88 58.29-54.46 74.28-1.09.31-2.25.59-3.36.79-95.25 17.88-150.8 84.43-183.53 166.04-26.45 65.95-37.82 138.34-52.27 208.62-16.41 79.81-29.09 160.4-42.9 240.73-17.43 101.41-34.44 202.88-51.49 304.36-10.61 63.11-20.38 126.37-31.57 189.38-19.66 110.7-40.68 221.16-59.92 331.94-6.6 38.03-12.56 76.62-13.58 115.09-2.44 92.54 19.59 179.85 54.5 265.92 59.31 146.23 154.4 264.5 274.06 363.42 80.37 66.44 176.71 104.73 276.39 133.22 41 11.72 82.61 22.64 124.7 28.77 4.72.69 9.38 1.83 14.01 3.25 4.76 1.46 9.68 2.3 14.63 2.75 28.86 2.65 57.54 7.17 86.48 9.38.12.04.21.15.34.18.88.12 1.76.23 2.63.3.83.35 1.73.55 2.68.56 1.87.01 3.73.03 5.6.04.28 0 .52-.15.79-.18 25.95 1.63 51.56 4.05 76.98 8.26 5.29.88 10.62 1.57 15.98 1.82 5.29.25 10.53.69 15.39 1.07 38.44 3.01 76.76 7.57 102.45 10.46 7.2.81 14.47 1.11 21.71.85 153.84-5.58 286.28-28.08 417.03-62.73 121.65-32.23 217.97-97.12 282.58-207.54 44.13-75.41 92.64-148.23 137.75-223.08 38.66-64.15 62.32-132.02 61.65-209.43-.57-64.76-13.01-126.99-22.14-190.21Zm-30.79 43.19c1.51 5.41.81 11.43 1.51 24.33-1.4 3.1-5.44 12.03-9.47 20.97-10.4-7.94-21.45-15.21-30.87-24.18-3.43-3.26-5.83-12.09-3.85-15.78 8.78-16.42 19.32-31.91 29.22-47.74 4.55 14.12 9.49 28.13 13.47 42.41Zm-494.73 331.01c-4.55 4.1-22.24-5.5-33.43-10.02-7.07-2.85-13.7-7.34-19.76-12.08-34.16-26.69-27.6-72.92 13.18-89.25 5.96-2.39 16.49-1.21 21.29 2.73 17.97 14.75 34.56 31.21 51.34 47.36 2.6 2.5 3.5 6.76 6 11.88-12.2 16.43-23.14 35.42-38.62 49.36ZM898.8 3374.56c-14.52-7.32-33.71-14.94-50.2-26.43-5.78-4.03-9.47-23.02-6.21-25.74 8.43-7.05 23.6-14.75 31.81-11.48 15.25 6.08 27.99 19.19 40.75 30.52 8.1 7.19 14.36 16.45 21.44 24.78-10.41 2.32-20.83 4.63-37.58 8.36Zm28.39 251.68c.58 3.52-3.82 7.86-8.79 17.03-5.97-10.3-12.39-16.38-11.6-21.3.94-5.82 8.1-10.65 12.56-15.91 2.77 6.7 6.68 13.21 7.83 20.18ZM702.02 3359c-16.3-2.59-37.28-5.05-57.86-9.41-24.32-5.15-29.25-16.17-15.8-35.13 7.7-10.86 18.21-19.68 26.85-29.94 13.84-16.44 27.82-17.62 44.12-3.12 14.31 12.72 30.44 23.45 44.27 36.62 6.2 5.91 14.27 19.32 11.88 22.89-5.46 8.14-16.27 13.75-26.02 17.59-6.64 2.61-15.14.5-27.44.5Zm26.59 54.45c-6.21 13.28-16.64 24.59-25.63 36.57-9.1-13.16-18.2-26.33-27.3-39.49 7.57-5.17 15.15-10.34 27.01-18.44 10.46 8.44 27 19.02 25.91 21.36Zm-282.32-123.72c-3.66-1.87-4.36-13.56-2.93-19.93.9-4.04 8.26-6.64 17.04-13.02 22.47 19.04 45.32 38.31 67.77 58.05.41.36-5.26 9.25-5.92 8.97-25.6-10.74-51.27-21.44-75.95-34.06Zm68.69 86.43c-13.79 19.33-24.35 34.12-34.91 48.92-6.84-16.58-15.79-32.74-19.23-50-1.02-5.1 14.2-19.43 20.74-18.68 10.62 1.21 20.21 11.37 33.4 19.76Zm-395.22-335.58c-5.67-14.42 20.62-42.92 34.39-37.58 12.7 4.93 22.23 18.02 39.22 32.77-18.77 16.18-32.57 28.08-46.38 39.99-9.37-11.61-22.02-21.93-27.23-35.18Zm53.4 139.89c2.79 2.15 4.11 6.2 6.11 9.37-3.31.77-7.84 3.23-9.67 1.92-15.23-10.85-30.03-22.31-44.55-34.09-.51-.41 3.2-6.04 4.95-9.24 14.42 10.63 28.98 21.08 43.16 32.03Zm-31.45-347.89c17.25-11.32 22.63 6.7 29.72 16.32 6.56 8.9 10.74 19.55 17.88 33.05-11.07 10.59-20.86 21.76-32.87 29.49-1.81 1.16-14.42-13.38-21.15-21.4-3.56-4.23-4.72-10.39-7.8-15.12-13.17-20.21-.26-32.82 14.23-42.33Zm-36.83-18.16c-5.73-6.19-17.43-14.62-16.1-18.14 4.16-11.03 13.22-20.21 23.55-34.47 7.59 10.71 16.06 18.55 14.63 21.38-5.68 11.26-14.45 20.95-22.08 31.23Zm898-1840.05c13.68 13.31 26.46 28.44 35.82 44.95 5.64 9.96 8.25 25.2 5.1 36-20.12 69.05-32.28 71.9-82.67 22.18-8.22-8.11-16.69-15.98-24.63-24.35-24.99-26.38-17.6-72.53 14.67-90.41 4.81-2.67 10.96-2.92 22-5.64 7.89 4.41 20.89 8.7 29.72 17.29ZM896.89 769.44c-1.5 2.04-11.3 1.02-14.28-1.77-5.15-4.82-12.42-13.54-10.96-18.14 5.15-16.23 12.71-31.94 21.39-46.64 2.71-4.58 13.55-8.97 17.76-7.05 7.87 3.57 13.62 11.82 22.21 19.99-12.83 19.43-23.86 36.98-36.12 53.62Zm30.16 74.02c-3.07 2.71-6.58 6.68-7.24 6.25-5.12-3.32-9.68-7.49-14.42-11.4 2.95-1.57 6.73-5.13 8.68-4.31 4.64 1.94 8.42 5.95 12.98 9.46ZM813.04 697.19c-2.83-15.84 22.94-33.49 41.93-30.24 4.81.83 12.83 10.7 11.76 13.56-6.38 17.01-14.99 33.19-26.6 57.49-13.49-19.5-25.03-29.31-27.09-40.82Zm18.58 65.48c-11.28 16.74-19.55 31.68-30.85 43.8-2.7 2.9-16.45-2.03-23.51-6.14-20.05-11.66-8.61-26.97-.56-38.32 6.51-9.18 17.96-18.92 28.16-20.07 7.36-.83 16.25 12.06 26.76 20.72Zm1.68 61.74c7.17-13.51 18.19-24.99 27.79-37.21 4.18 7.59 12.98 16.23 11.55 22.55-2.86 12.62-11.34 23.97-20.32 41.27-9.83-13.31-20.76-23.32-19.02-26.6Zm113.54-69.91c5.51-5.85 17.32-12.93 22.24-10.65 9.18 4.25 15.4 14.91 24.08 24.22-10.73 19.01-19.43 36.17-30.24 51.88-1.77 2.57-16.24 1.22-18.84-2.5-7.02-10.08-14.88-22.49-14.65-33.81.21-9.96 9.65-20.89 17.41-29.13Zm-4.69-85.2c3.26-1.33 6.52-2.66 11.98-4.89 2.17 3.26 4.59 6.9 7.01 10.54-2.92 1.89-7.35 6.04-8.5 5.27-4.1-2.74-7.08-7.14-10.49-10.91Zm48.34 23c5.2-11.57 19.73-18.94 35.96-33.02 5.07 13.98 9.72 20.22 8.61 25.19-2.01 9.01-6.36 18.02-11.75 25.61-5.37 7.57-7.47 27.06-22.45 14.15-7.61-6.56-13.91-24.06-10.37-31.93Zm6.09 143.99c6.21-16.75 17.72-31.54 27.2-47.07 12.15 11.06 24.31 22.12 32.78 29.84-2.2 26.59-23.61 44.92-41.79 39.57-8.03-2.36-20-17.46-18.2-22.33Zm317.44 28.16c38.12-5.98 75.51-16.49 113.51-23.37 29.45-5.33 59.31-8.41 89-12.39-45.83 17.23-90.75 37.8-137.79 50.59-101.15 27.49-204.56 42.08-309.78 39.73-3.78-.08-7.53-1.82-11.28-3.71-3.17-1.6-3.68-5.92-.97-8.22 3.66-3.11 7.33-6.09 11.37-6.7 81.93-12.33 164.1-23.08 245.94-35.93Zm-195.15-70.57c20.07 9.52 35.47 16.59 50.64 24.11 11.2 5.55 22.11 11.71 33.15 17.6-14.41 4.23-30.13 14.19-42.9 11.27-16.94-3.87-32.27-16.94-46.58-28.23-2.56-2.02 3.17-14.54 5.7-24.75Zm194.24-41.85c-19.89 9.49-31.23 19.85-39.86 17.94-16.22-3.58-30.87-14.25-46.17-21.98-20.58-10.4-19.21-24.15-8.21-41.67 11.4-18.15 24.29-16.39 37.91-5.1 16.76 13.89 32.42 29.11 56.32 50.81Zm-7.63-55.64c2.59-1.64 5.17-3.29 9.07-5.76 3.62 2.35 7.76 5.05 11.91 7.74-3.32 3.05-7.96 9.26-9.72 8.53-4.44-1.84-7.59-6.8-11.25-10.51Zm62.98 97.33c2.08 1.34 1.6 6.68 2.67 12.01-4.16 1.72-10.88 6.41-12.75 4.94-11.21-8.83-21.42-18.95-31.44-29.15-.56-.57 4.97-8.47 5.25-8.33 12.33 6.41 24.59 13.02 36.27 20.53Zm-1.61-90.29c3.53-2.39 18.33 8.26 25.21 15.54 5.85 6.18 7.75 16.11 10.88 23.21-4.06 7.67-5.73 15.66-9.48 16.79-5.91 1.79-14.03.57-19.72-2.32-6.51-3.31-12.32-9.13-16.77-15.1-12.08-16.19-2.48-29.74 9.88-38.11Zm97.93 76.55c-12.16 7.04-20.22 13.87-29.36 15.97-3.84.88-9.97-8.25-15.07-12.84 9.06-7.29 17.77-15.15 27.64-21.09 1.16-.7 8.69 9.16 16.79 17.96Zm-10.37-52.66c-.41-.31 3.9-8.23 4.28-8.08 7.98 3.05 15.72 6.76 23.84 10.49l-6.98 11.73c-7.13-4.6-14.37-9.06-21.14-14.14ZM251.77 2717.61c13.24-18.65 31-34.14 47.34-50.47 2-2 7.36-2.05 10.63-1.13 29.07 8.16 43.04 57.36 21.94 79.19-11.79 12.2-25.61 22.43-35.68 31.1-19.9-1.71-52.4-47.18-44.23-58.69Zm-23.71-28.71c-4.98-.44-14.06-13.41-12.96-15.03 15.33-22.61 32.1-44.24 48.53-66.11 6.33 4.94 12.67 9.87 16.8 13.09-.91 19.57-40.06 69.13-52.37 68.05Zm301.09-1458.2c-4.34-22.34-5.16-45.36-8.01-73.96 3.68-1.31 12.05-7.35 16.43-5.21 10 4.88 17.89 13.97 26.92 20.98 40.28 31.29 41.77 48.37 9.57 86.85-10.63 12.7-19.81 9.62-28.01.11-7.22-8.37-14.88-18.41-16.9-28.78Zm43.42 272.36c1.14-1.31 3.43-1.61 8.6-3.88 10.35 16.96 31.26 35.86 28.97 51.34-2.86 19.41-24.31 36.4-39.28 53.06-1.19 1.32-17.06-6.37-21.37-12.96-7.87-12.03-20.24-29.85-16.28-39.02 7.95-18.42 25.58-32.69 39.36-48.54Zm484.47-392.85c8.88-14.21 18.39-28.02 27.64-42 16.85 12.6 34.01 24.82 50.33 38.07 3.91 3.17 5.07 9.74 8.45 16.71-16.14 23.94-32.11 48-48.7 71.62-1.45 2.07-7.26 2.39-10.6 1.6-17.23-4.08-42.83-48.49-37.34-65.07 2.42-7.31 6.12-14.37 10.22-20.93Zm-7.37-142.18c-.83-1.29 7.36-8.38 15.39-17.18 8.12 11.69 15.5 18.6 17.55 26.84 1.02 4.09-7.73 10.61-12.07 16.04-7.18-8.42-14.94-16.47-20.87-25.7Zm421.92 32.35c5.18-14.29 11.21-17.3 24.48-5.83 31.86 27.56 35.41 38.98 16.68 72.64-2.7 4.85-7.12 8.75-10.13 12.36-14.53 2.09-42.65-34.09-40.29-51.82 1.25-9.36 5.98-18.28 9.26-27.35Zm-6.85-94.73c3.05-1.4 6.25-4.08 9.11-3.77 2.08.23 3.72 4.43 5.56 6.86-2.13 2.39-4.27 4.76-6.4 7.13l-8.28-10.23ZM990.41 2795.6l-1.56-5.24c-11.62 0-24.03 2.6-34.68-.62-15.75-4.76-33.17-10.92-43.73-22.23-3.87-4.15 7.73-26.1 15.75-37.46 41.58-58.87 42.56-59.09 89.25-4.29 13.05 15.32 21.56 34.52 32.15 51.94-19.06 5.97-38.12 11.94-57.18 17.9ZM636.42 1433.99c-4.92-10.83-9.72-18.24-11.16-26.24-.53-2.96 6.86-7.35 10.64-11.08 4.67 7.45 10.35 14.52 13.37 22.59.83 2.23-6.25 7.42-12.85 14.74Zm12.81 66.82c-1.73 3.01-2.85 6.97-5.43 8.62-1.62 1.03-5.46-1.41-8.31-2.29 1.38-2.99 2.07-7.51 4.34-8.54 2.33-1.05 6.2 1.32 9.4 2.2Zm-.29 91.8c4.55 11.43 15.9 25.98 12.35 33.71-10.1 22.01-26.25 41.25-37.41 57.72-18.58 3.65-36.97-27.58-29.77-43.06 6.3-13.55 16.18-26.21 27.04-36.58 6.81-6.5 18.36-8.03 27.78-11.78Zm40.54-75.83c4.36-3.96 14.92-5.37 20.24-2.83 5.6 2.68 12.91 13.04 11.45 17.28-6.36 18.44-15.65 35.86-23.87 53.66l-12.66-.96c-5.21-13.23-14.23-26.43-14.34-39.7-.07-9.27 10.89-19.91 19.19-27.45Zm114.12 112.31c15.25 14.78 13.69 28.97 2.93 46.39-24.79 40.14-29.69 40.8-54.47 1.08-10.22-16.39-25.49-32.34-28.02-49.98-2.15-14.96 10.72-32.08 17.75-50.36 11.21 6.35 16.83 8.25 20.73 11.97 13.99 13.32 27.2 27.46 41.08 40.91Zm-27.64-83.97c-.43-1.8 3.17-4.55 6-8.22 3.04 5.45 5.58 9.99 8.11 14.53-2.67.84-6.27 3.16-7.81 2.2-2.87-1.79-5.54-5.27-6.3-8.51Zm96.39-75.69c17.38-15.32 26.13 7.67 37.53 14.36 7.34 4.31 15.37 19.1 12.98 25.32-2.89 7.54-16.43 10.99-21.3 13.83-10-2.2-13.85-2.74-17.5-3.91-12.04-3.87-24-7.98-35.99-11.99 7.92-12.74 13.51-28.12 24.28-37.61Zm-67.33-118.09c18.4-6.14 36.8-12.28 58.33-19.46 8.77 6.82 23.42 16.49 22.67 17.88-8.44 15.7-19.25 30.12-29.42 44.89l-51.58-43.3Zm624.31 1063.61c-9.78-8.88-21.64-29.6-17.72-36.84 12.51-23.17 31.99-42.57 48.71-63.34 9.18 4.74 14.66 6.58 18.94 9.95 16.72 13.17 33.88 25.94 49.34 40.5 28.13 26.48 28.6 27.71 5.74 55.96-55.8 68.97-38.08 54.53-105.01-6.23Zm75.61 113.06c39.75 26.37 75.33 59.06 112.38 89.45 2.41 1.98 2.49 6.78 4.59 13.03-8.38 10.58-16.03 24.87-27.88 33.17-5.53 3.88-21.14-1.13-28.79-6.73-32.5-23.81-64.33-48.65-94.93-74.83-6.37-5.45-11.83-23.21-8.54-26.71 11.8-12.6 21.11-42.01 43.18-27.37Zm-396.62-876.23c3.5 4.38-.19 17.25-4.11 24.24-8.1 14.46-18.57 27.59-31.84 46.7-21.64-30-41.21-46.77-45.73-66.92-3.21-14.31 13.48-33.41 22.52-49.68 1.08-1.94 11.83-1.6 14.94 1.2 15.57 13.97 31.22 28.21 44.22 44.46Zm18.32-199.93c3.45-4.06 14.74-7.18 17.92-4.78 16.65 12.57 33.54 25.66 46.65 41.61 4.74 5.77 1.77 21.26-2.48 29.98-3.51 7.2-14.09 10.95-19.23 14.59-38-7.17-62.84-57.85-42.85-81.4Zm-30.19-95.66c-5.92-4.41-7.19-15.05-10.55-22.9 7.35-1.38 14.69-2.76 27.98-5.27 6.95 4.12 18.74 8.69 26.3 17.07 2.21 2.45-7.57 22.67-11.95 22.71-10.72.09-22.89-4.99-31.78-11.61Zm179.41 81.3c12.41 9.27 24.81 18.55 41.66 31.14-14.27 18.9-23.87 31.62-33.48 44.34-10.62-11.6-28.45-22.41-29.84-35.03-1.38-12.54 13.76-26.89 21.66-40.45Zm106.48 37.43c-4.57-3.02-13.2-6.29-13.03-9.01.87-13.66 2.67-27.65 7.14-40.49 1.51-4.33 13.73-9.34 17.61-7.34 5.16 2.65 6.95 11.86 11.72 21.26-7.95 12.07-15.7 23.83-23.44 35.58Zm49.9 38.87c9.33-.13 18.92 17.61 31.7 30.84-13.28 11.73-27.21 27.85-30.2 26.03-13.8-8.43-24.56-21.84-36.41-33.46 11.63-8.47 23.17-23.24 34.91-23.4Zm-17.91 94.74c2.13 2.08 1.48 7.01 2.29 11.59-9.21 16.17-18.11 33.45-29.01 49.37-1.84 2.69-15.09 2.1-18.28-1.38-19.63-21.41-39.19-43.15-55.97-66.77-6.75-9.5-12.12-32.08-8.26-34.82 13.06-9.27 36.06-21.49 45.24-15.96 24.21 14.59 43.29 37.78 64 57.98Zm-661.85 572.83c-.07-7.71 9.24-16.97 16.48-22.87 7.65-6.23 21.83-15.43 26.22-12.59 12.1 7.82 20.58 21.25 33.93 36.36-17.17 18.41-32.24 35.33-48.64 50.84-1.47 1.39-14.8-4.97-17.04-10.14-5.69-13.13-10.83-27.61-10.96-41.6Zm7.01 88.54-42.09 35.68c-11.55-14.21-28.32-27.03-32.61-43.17-2.4-9.02 15.92-23.54 24.9-35.58 15.35 13.28 30.71 26.56 49.8 43.07Zm66.76-178.53c9.2-11.86 20.34-22.2 37.84-40.99 7.96 23.24 14.91 39.04 18.12 55.58 1 5.14-7.26 13.21-12.83 18.22-8.62 7.74-14.37 27.89-31.12 11.39-12.1-11.92-26.88-25.03-12.01-44.2Zm-11.15 160.57c6.59-11.61 14.72-22.49 23.28-32.77 2.9-3.48 12.09-7.03 13.6-5.57 21.55 20.88 42.29 42.61 66.6 67.62-17.66 22.32-31.5 39.91-45.54 57.34-.87 1.08-3.28 1.32-4.97 1.3-23.44-.33-64.44-67.71-52.96-87.91Zm67.94-69.84c-4.65-10.31 14.27-31.84 23.68-47.53 2.45-4.09 12.22-8.91 14.05-7.49 27.85 21.58 54.94 44.14 86.25 69.79-26.03 23.74-45.6 41.66-65.37 59.36-.82.74-4.27.1-5.1-.97-18.67-23.97-41.35-46.2-53.51-73.16Zm92.25 98.26c12.44-19 29.48-35 44.71-52.14 1.04-1.17 4.21-2.24 4.92-1.64 21.1 17.95 42.01 36.13 65.3 56.29-21.42 26.52-38.14 47.28-55.01 67.91-1.02 1.25-3.3 1.85-5.08 2.06-15.42 1.78-63.39-59.41-54.84-72.47Zm82.53-82.06c-7-10.53 25.25-43.72 35.2-36.57 17.95 12.89 35.66 30.1 44.7 49.58 3.98 8.57-13.51 27.11-25.62 49.02-22.69-25.31-40.98-42.01-54.28-62.03Zm73.8-92.77c7.69-11.09 15.6-22.53 25.55-31.41 7.71-6.87 22.37-16.5 27.64-13.57 16.04 8.93 29.02 23.35 45.09 37.28-14.8 21.07-25.56 39.31-39.3 54.92-9.16 10.41-12.41 38.03-37.69 17.88-31.88-25.4-37.8-41.32-21.3-65.11Zm-12.05-153.17c-46.99-49.44-47.47-65.68-1.28-116.59 4.72-5.2 19.85-9.11 23.34-5.99 27.45 24.49 53.45 50.64 79.32 76.84 3.59 3.64 4.02 10.39 7.63 20.51-17.56 20.32-35.82 42.47-55.67 63.09-2.44 2.54-14.95-1.17-20.07-5.33-11.99-9.74-22.58-21.27-33.27-32.52Zm84.11 78.24c-3.71-5.19 3.84-19.77 8.31-29.08 4.08-8.48 10.48-16.02 16.67-23.28 28.2-33.04 45.36-31.84 69.85 4.51 2.14 3.17 5.23 6.09 6.19 9.59 4.11 15.02-41.44 72.3-65.19 73.14-9.64-8.91-25.26-20.09-35.84-34.88Zm48.09-148.59c-2.11 2.33-14.86-1.37-19.62-5.66-18.58-16.78-36.17-34.68-53.68-52.61-29.91-30.61-28.48-59.86 4.91-85.4 4.5-3.44 15.58-4.48 19.58-1.4 28.95 22.33 57.03 45.8 84.89 69.49 3.88 3.3 5.01 9.82 9.58 19.4-14.5 18.29-29.23 38.01-45.66 56.18Zm-129.24-111.74c-8.94-19.49-18.54-30.63-16.01-36.82 6.37-15.61 16.94-30.23 28.77-42.37 2.91-2.99 17.11 5.01 26.11 7.96-11.23 20.59-22.47 41.17-38.87 71.23Zm-13.47 19.72c-17.99 26.3-32.78 48.69-48.73 70.22-1.92 2.59-12.74 2.72-14.92.15-5.7-6.71-14.55-19.47-12.17-22.9 14.27-20.56 30.72-39.79 48.24-57.7 2.31-2.36 14.88 5.31 27.59 10.22Zm-63.44 153.6c4.09-4.53 19.11-6.61 22.36-3.28 24.41 24.99 47.22 51.55 70.26 77.86 2.38 2.71 2.96 6.99 7.29 17.83-16.63 18.46-35.19 39.79-55.09 59.79-1.55 1.56-13.71-4.83-18.64-9.8-9.52-9.63-17.25-21-25.98-31.44-43.01-51.4-43.43-63.08-.2-110.95Zm-67.97 30.38c-2.98-2.27-9.14-4.59-10.88-8.76-4.82-11.53-13.31-25.55-10.23-35.43 4.95-15.88 17.11-29.96 27.92-43.44 14.46-18.03 29.1-15.36 38.49 5.69 6.8 15.25-26.5 78.2-45.3 81.94Zm27.69 85.51c14.95 14.95 29.11 30.71 43.21 46.49 4.93 5.52 8.6 12.18 14.46 20.65-10.64 12.29-18.9 25.99-30.98 33.77-4.9 3.16-19.77-4.6-27.19-10.85-16.13-13.59-30.21-29.58-45.46-44.25-13.37-12.86-12.98-25.58-3.57-41.1 18.08-29.84 23.2-31.03 49.53-4.7Zm-52.67-51.45c-10.45 19.05-28.32 34.03-43.33 50.59-8.73-11.08-27.04-26.05-24.41-32.52 7.97-19.6 24.04-35.92 41.94-60.31 12.31 19.33 29.07 36.27 25.8 42.24Zm-93.27-15.35c-15.74 9.77-56.07-41.15-46.8-59.09 7.91-15.31 19.72-28.65 30.29-42.49 1.83-2.4 6.09-2.95 12.35-5.75 15.37 18.42 40.52 35.97 44.1 57.17 2.46 14.59-21.99 39.03-39.93 50.17Zm-35.84 29.68c3.83 7.51-.9 22.08-6.15 30.81-5.51 9.15-16.28 15.13-28.47 25.73-13.13-20.82-29.66-37.44-33.57-56.62-2.56-12.6 12.75-29.12 21.16-43.22.83-1.39 11.2.18 14.12 3.24 11.95 12.57 25.21 24.99 32.9 40.06Zm-54.53 86.28-48.54 55.92c-13.57-17.96-38.59-36.49-37.72-53.72 1.01-19.96 24.78-38.76 38.67-58.07 14.88 17.47 29.76 34.94 47.59 55.87Zm-76.22 85.42c-12.96 16.15-23.52 29.31-34.09 42.46-9.71-8.07-22.17-14.46-28.42-24.66-7.18-11.73-14.93-28.83-11.28-39.91 3.79-11.5 28.77-27.97 30.99-26.11 15.66 13.08 27.84 30.32 42.79 48.22Zm-63.51 127.81c8.11-7.85 26.55-17.54 31.16-14.09 12.86 9.6 20.93 25.61 33.94 43.21-22.62 24.98-42.18 48.28-64.24 68.93-3 2.81-22.74-5.14-27.11-12.58-6.73-11.45-12.73-29.11-8.44-39.94 6.79-17.18 20.99-32.28 34.69-45.54Zm28.33 124.81c5.87-11.82 16.59-21.37 25.83-31.34 11.72-12.66 24.02-24.78 36.07-37.14 15.41 17.19 31.23 34.05 45.89 51.85 2.9 3.53 4.01 13.02 1.52 15.8-20.65 23.12-42.3 45.34-63.79 67.69-1.18 1.23-3.62 1.25-10.85 3.53-11.04-12.05-25.61-24.69-35.57-40.28-4.6-7.19-3.28-21.69.91-30.11Zm98.43-75.81c-19.04-23.05-14.34-45.36 12.38-61.34 3.13-1.87 8.83-4.99 9.91-3.95 21.68 20.76 42.85 42.05 65.3 64.41-14.45 15.61-23.38 29.22-35.94 36.89-4.97 3.04-18.98-5.77-27.1-11.62-9.25-6.67-17.21-15.51-24.54-24.39Zm87 49.26c19.9-20.27 33.64-11.16 48 4.56 14.14 15.48 27.73 31.45 44.87 50.98-15.56 14.65-28.13 28.98-43.5 39.05-3.48 2.28-17.72-9.16-25.13-16.25-9.68-9.27-16.56-21.48-26.31-30.66-18.45-17.39-14.68-30.63 2.06-47.67Zm79.6-8.55c-33.12-32.45-33-33.9-9.6-65.1 8.26-11.02 29.04-27.74 30.82-26.23 21.37 18.17 40.24 39.28 61.05 60.95-15.43 20.06-25.65 40.29-42.06 51.19-6.3 4.18-29.37-10.19-40.21-20.8Zm107.06 7.05 59.79 56.17c-19.29 21.43-34.27 38.07-49.25 54.7-18.21-18.24-46.49-34.27-51.17-55.5-3.25-14.75 25.93-36.66 40.62-55.37Zm28.83-35.84c6.42-25.61 30.94-46.97 49.22-69 2.71-3.27 14.3-3.03 19.14-.09 41.9 25.55 46.37 47.01 18.84 88.55-10.46 15.78-22.3 30.64-34.11 46.73-7.7-4.89-13.61-6.82-16.63-10.89-13.61-18.36-40.12-40.76-36.47-55.31Zm90.6-109.97c-1.55-3.5 26.74-26.53 29.42-24.56 18.86 13.95 36.34 30.91 49.51 50.15 1.97 2.88-20.87 22.75-38 40.86-16.72-25.74-31.4-44.96-40.93-66.46Zm58.35-53.97c-5.1-6.27 1.86-23.11 4.78-34.78 1.32-5.28 5.99-9.8 9.43-14.46 35.81-48.6 20.05-49.5 76.47-11.06 17.09 11.64 23.92 23.96 7.63 42.3-12.77 14.38-23.24 30.78-35.24 45.87-3.46 4.35-8.68 7.29-14.97 12.41-16.54-13.22-35.18-24.42-48.08-40.28Zm40.29 108.16c13.82-19.32 25.9-9.36 37.96 1.4 14.37 12.82 28.22 26.22 42.59 39.04 24 21.41 19.82 58.88-8.4 73.53-1.71.89-3.41 1.8-5.94 3.15-4.45-2.51-10.15-4.43-14.09-8.18-20.92-19.89-41.5-40.14-62-60.46-21.29-21.09-.82-33.53 9.88-48.48Zm59.59-22.55c-18.67-15.85-15.66-31.08-3.98-49.9 32.82-52.91 33.82-53.36 81.96-11.21 11.59 10.15 24.51 18.79 36.07 28.96 5.38 4.73 8.98 11.47 14.69 19.01-20.27 23.32-38.7 45.38-58.55 66.07-2.05 2.14-13.97-2.17-18.9-6.34-17.62-14.92-33.69-31.66-51.3-46.6Zm1.4-175.05c-38.42-32.48-33.42-36.23-7.9-62.82 1.32-1.37 2.42-2.97 3.48-4.56 32.74-49.16 26.5-49.12 72.28-3.84 15.46 15.3 14.61 29.32 2.85 45.48-12.19 16.75-23.87 33.88-37.76 53.7-13.34-11.32-23.13-19.65-32.95-27.95Zm18.53-165.28c-23.85-2.04-48.98-44.27-39.74-64.2 4.01-8.65 8.3-17.43 14.02-24.97 10.65-14.02 16.76-37.93 43.23-21.86 30.27 18.38 36.22 32.24 22.1 59.65-7.81 15.17-17.74 29.32-27.59 43.31-2.87 4.08-8.8 6-12.01 8.06Zm42.42-194.4c7.95-12.03 17.05-23.3 24.4-33.26 32.19 5.12 54.76 51.28 40.66 75.93-4.76 8.33-11.23 15.66-16.4 23.78-10.12 15.9-20.22 19.49-37.32 6.8-37.06-27.51-38.72-31.81-11.34-73.25Zm-23.2-431.46c-6.38-1.99-12.28-5.53-21.05-9.72 7.19-3 11.36-6.25 13.25-5.24 6.29 3.36 11.77 8.26 17.56 12.57-3.28.89-7.02 3.24-9.76 2.39Zm2.88 49.53c-1.51 13.98-15.17 26.66-23.76 39.88-11.56-14.32-24.05-28.07-33.5-43.67-1.17-1.93 13.82-13.66 25.18-24.54 13.03 10.91 32.89 20.73 32.07 28.32Zm-86.15 237.29c4.79-4.9 19.82-8.17 22.87-5.07 25.56 25.97 49.52 53.52 73.65 80.88 2.31 2.62 2.46 7.15 5.69 17.36-12.66 18.36-27.12 40.69-43.44 61.54-2.5 3.19-15.39 2.13-20.46-1.35-12.61-8.68-23.68-19.67-35-30.12-57.69-53.28-58.29-66.89-3.3-123.23Zm-25.54-23.12c-12.16 19.48-24.76 38.71-38.14 57.36-3.92 5.47-13.36 13.39-16.23 11.97-7.92-3.9-17.27-11.04-19.67-18.87-7.42-24.15 38.68-83.75 63.81-83.51 6.25.06 12.46 5.33 19.65 8.66-3.94 10.46-5.53 18.14-9.42 24.39Zm-15.03-153.03c-1.44 2.84-7.89 6.48-8.87 5.71-20.51-16.02-46.42-29.34-58.24-50.48-5.93-10.6 13.72-35.76 22.52-53.98 1-2.07 8.43-3.82 9.9-2.47 19.02 17.45 37.51 35.49 56.6 53.82-9.16 20.09-15.1 33.97-21.9 47.4Zm-96.39 124.47c9.44 6.23 17.32 11.44 25.21 16.65l-20.39 25.16c-8.92-8.74-17.85-17.47-26.77-26.21 6.47-4.6 12.94-9.2 21.95-15.61Zm-72.71 167.02c-16.2 25.17-29.6 46.39-43.58 67.22-1.77 2.63-6.82 4.91-9.95 4.47-19.24-2.7-45.56-56.52-36.06-73.24 3.83-6.75 7.59-13.79 12.7-19.52 9.37-10.49 19.72-20.11 29.65-30.09 15.42 16.7 30.84 33.4 47.23 51.16Zm-103.61 138.22c-7.77 8.26-16.84 15.29-22.57 20.44-19.59.37-51.95-37.57-44.72-50.03 11.54-19.9 27.47-37.33 42.52-54.98 1.65-1.93 10.47.22 14.57 2.74 41.27 25.32 43.86 46.06 10.21 81.84Zm-90.18-64.34c-1.74 2.08-12.48.71-14.53-2.22-15.4-21.95-39.11-43.83-41.27-67.46-1.7-18.59 23.58-39.69 37.12-59.51.64-.94 4.58-1.17 5.31-.31 19.41 22.82 38.59 45.82 59.2 70.44-17.7 23.2-31.18 41.62-45.82 59.06Zm-40.73 13.3c10.92 17.77-10.43 65.4-30.84 71.75-1.76.55-4.55 1.37-5.47.54-16.71-15.28-34.96-29.35-49.19-46.71-11.62-14.17-12.54-31.98 1.84-47.26 11.46-12.16 22.76-24.48 34.36-36.99 6.41 5.17 11.65 8.05 15.04 12.37 11.86 15.1 24.23 29.99 34.24 46.29Zm-57.12 110.3c-12.19 15.96-21.21 30.68-33.59 41.59-2.55 2.25-19.64-7.93-26.49-15.55-11.57-12.88-21.12-27.82-30.05-42.78-11.37-19.03-.18-33.42 12.91-45.85 3.24-3.07 12.86-4.92 15.03-2.77 20.35 20.22 39.71 41.42 62.19 65.36Zm-72.2 67.62c3.55 5.91 2.32 18.4-1.73 24.6-33.96 51.83-39.81 51.39-79.81-5.73-7.15-10.2-19.04-26.7-15.56-32.91 10.06-17.98 26.79-32.25 41.09-47.8.92-1 3.45-.51 6.23-.83 3.77 3.38 8.73 6.68 12.18 11.14 13.02 16.84 26.7 33.37 37.6 51.54Zm-73 108.03c-8.53 29.54-33.61 35.86-54.37 12.64-11.39-12.74-21.91-26.88-29.84-41.95-9.9-18.8 10.51-52.44 29.1-50.72 21.74 2 61.13 59.21 55.12 80.04Zm-41.41 109.4c3.42-4.07 9.3-6.07 13.15-8.47 17.83 3.23 43.25 58.03 33.31 71.48-11.38 15.4-23.57 30.77-38 43.14-10.73 9.2-17.41 34.55-40.53 15.21-27.07-22.64-32.1-38.58-14.75-63.03 14.41-20.3 30.76-39.26 46.81-58.33Zm-18.17 193.47c15.91 12.4 27.51 30.33 42.53 48.25-23.67 26.99-43.72 50.14-64.26 72.85-1.96 2.17-7.27 2.91-10.46 2.1-23.48-6-43.52-62.12-28.63-81.47 8.17-10.62 17.44-21.13 28.28-28.76 9.71-6.84 27.74-16.7 32.54-12.97Zm-46.45 198.97c3.83-3.67 18.36-2.12 23.16 2.35 10.93 10.18 18.83 23.6 28.98 37.06-7.55 9.14-12.34 18.32-19.91 22.82-4.58 2.73-15.5.49-20.03-3.52-9.98-8.85-21.2-19.09-25.09-30.99-2.42-7.4 5.75-20.87 12.9-27.72Zm50.42-50.29c15.15-22.44 33.74-42.61 51.74-63 3.04-3.44 10.46-6.28 14.48-5.03 25.13 7.84 38.33 50.25 21.55 70.26-16.14 19.25-33.93 37.12-53.58 58.41-12.46-12.15-23.82-19.82-30.11-30.47-4.92-8.33-8.45-23.68-4.08-30.16Zm19.04 132.75c2.58-3.14 20.14.84 26.01 6.56 14.91 14.53 27.31 31.69 40.15 48.23 3.24 4.18 4.37 9.99 5.56 12.88-1.82 18.65-27.17 29.52-41.18 17.17-16.84-14.85-31.99-32.98-42.88-52.47-3.82-6.84 5.11-23.55 12.34-32.38Zm71.22 0c-9.77-15.85-29.61-38.78-24.79-47.8 13.07-24.44 36.84-43.17 56.51-64.03 1.09-1.16 3.46-1.1 5.24-1.61 3.33 1.58 7.27 2.53 9.84 4.93 4.19 3.91 7.26 8.98 11.19 13.21 57.53 61.99 56.67 71.6-7.81 124.63-11.89 9.78-19.9 8.74-28.69-2.23-7.22-9-15.48-17.37-21.48-27.12Zm85.46-124.5c-2.63-2.79-5.8-5.6-7.14-9.02-18.62-47.45 35.74-49.14 49.42-77.12 9.47-19.35 25.25-9.84 36.61 3.74 15.9 19.02 32.13 37.77 48.59 57.08-4.63 9.34-6.52 17.43-11.5 22.45-20.23 20.38-41.42 39.82-62.25 59.61-17.92-18.91-35.87-37.79-53.74-56.75Zm99.51 63.33c3.4-6.59 9.94-11.72 15.57-16.98 12.01-11.22 33-33.11 35.21-31.38 19.31 15.16 35.97 34.01 51.61 53.23 2.62 3.22-1.67 14.79-5.76 20.27-14.95 20.06-30.92 39.38-47.11 58.47-3.29 3.88-9.2 5.54-18.4 10.8-15.11-20.26-32.2-38.8-43.27-60.43-3.8-7.43 6.51-23.03 12.15-33.98Zm85.84-92.98c9.07-37.99 36.26-41.32 64.02-11.58 9.19 9.84 17.79 20.23 28.39 32.34-13.54 14.78-24.7 31.21-40.01 41.39-5.44 3.61-24.95-5.04-31.03-13.27-10.57-14.31-24.74-34.8-21.38-48.88Zm80.59 92.22c13.99-40.93 31.43-44.2 62.58-13.3 15.04 14.92 30.54 29.37 45.17 44.66 4.97 5.19 7.93 12.31 13.94 21.97-16.25 17.62-31.04 34.72-47.45 50.09-2.06 1.93-14.83-3.53-18.97-8.57-18.24-22.21-35.92-44.98-52-68.77-4.46-6.6-5.88-18.48-3.28-26.09Zm119.41-4.86c-16.7-12.65-30.63-28.99-45.52-43.98-14.54-14.64-13.94-28.46-1.71-45.76 29.19-41.27 28.53-42.09 67.63-9.58 16.22 13.48 31.62 27.97 47.02 42.4 4.02 3.77 6.67 9.01 12.17 16.67-14.81 16.81-28.18 35.96-45.79 49.65-5.71 4.44-24.75-2.53-33.81-9.4Zm17.91-160.97c16.17-23.58 32.85-46.83 48.34-70.85 9.69-15.03 17.75-9.01 26.71-.11 9.56 9.48 19.46 18.63 28.74 28.37 15.81 16.59 46.83 37.73 43.66 49.46-6.87 25.46-31.07 46.35-48.73 68.68-3.22 4.07-9.05 6.08-14.69 9.7-7.05-4.21-14.86-6.82-19.71-12.13-21.9-23.95-42.96-48.67-64.33-73.11Zm139.55 79.16c9.4-12.36 18.68-24.84 28.73-36.66 3.43-4.04 9.05-6.23 17.77-11.95 24.29 24.96 49.43 48.65 70.91 75.29 3 3.72-10.95 22.64-18.76 33.28q-43.71 59.5-94.01 9.23-32.49-32.52-4.64-69.19Zm82.05-63.22c-5.93-7.47-11.45-21.01-8.56-28.51 5.2-13.55 16.85-24.62 27.07-38.45 9.11 6.18 15.78 9.56 21.02 14.47 15.51 14.54 31.32 28.91 45.4 44.78 18.36 20.7 15.76 33.87-4.98 53.47-19.81 18.71-30.45 2.84-42.82-9.2-12.46-12.13-26.41-23.05-37.13-36.55Zm106.86-245.32c-10.72 11.55-18.23 19.26-31.54 4.08-6.29-7.17-14.58-12.66-22.26-18.53-54.39-41.58-54.44-73.19.06-115.53 2.85-2.21 6.51-3.38 9.8-5.04 3.54 1.35 7.52 2.06 10.51 4.18 7.89 5.58 15.23 11.92 22.99 17.68 64.33 47.78 64.67 54.76 10.45 113.16Zm-61.32-197.98c-19.12-11.01-33.91-29.53-53.88-47.74 20.69-27.7 38.81-51.97 56.94-76.24 17.86 10.3 37.17 18.86 52.78 31.85 5.39 4.49 4.82 21.33 1.23 30.21-5.66 14.01-15.08 26.98-24.95 38.67-8.69 10.29-12.63 34.46-32.11 23.24Zm31.8-167.88c-8.04-11.25 34.78-64.36 44.17-58.37 20.06 12.78 37.81 29.19 62.02 48.52-20.92 23.23-37.14 55.08-52.35 54.61-18.81-.58-40.16-25.6-53.84-44.75Zm53-169.16c-.93 3.6-3.18 7.54-6.03 9.85-11.73 9.56-9.33 39.24-35.13 28.09-28.38-12.26-40.43-41.44-28.58-65.85 7.19-14.81 17.59-28.06 28-44.28 18.84 15.88 35.58 26.79 47.39 41.62 4.26 5.36-2.98 20.21-5.65 30.56Zm-20.51-384.8c-4.37 13.22-12.48 20.51-24.64 9.95-7.03-6.1-14.67-16.78-14.18-24.93.62-10.45 8.13-21.13 14.55-30.42 5.58-8.07 13.78-14.32 20.82-21.38 6.13 10.54 12.25 21.09 16.58 28.54-5.77 16.75-9.57 27.45-13.13 38.24Zm-75.03-24.62c-2.3 3.67-22.81 1.07-29.89-4.73-8.66-7.11-18.49-22.14-16.41-31.1 4.67-20.13 14.56-39.82 26-57.28 5.94-9.07 22.8-20.41 29.25-17.7 12.47 5.25 21.05 19.72 32.51 31.69-14.49 28.71-26.31 54.96-41.45 79.12Zm-28.45-134.18c-11.81 24.17-26.03 47.18-39.74 70.4-1.75 2.96-5.83 4.55-10.26 7.83-3.81-2.81-8.6-5.39-12.11-9.15-9.21-9.84-17.57-20.47-26.8-30.29-13.52-14.4-17.29-29.25-4.41-46.14 2.27-2.97 3-7.07 4.67-10.54 29.1-60.62 47-62.36 85.9-7.15 4.35 6.18 5.94 18.52 2.76 25.04Zm-79.71 91.65v12.45c-11.17-.23-23.85 2.77-33.09-1.56-10.1-4.74-19.58-15.14-24.1-25.38-1.88-4.26 9.78-14.5 15.28-22.02l41.91 36.51Zm-46.35 46.12c-4.38 2.35-7.44 5.33-10.52 5.35-5.47.03-10.95-1.73-16.42-2.74 3.2-2.18 6.33-6.06 9.6-6.16 5.37-.18 10.82 2.08 17.34 3.56Zm-77-53.64c-5.1-1.26-14.6-3.01-23.71-5.97-28.61-9.27-31.15-15-17.3-40.92 5.42-10.14 11.94-19.87 19.14-28.83 9.14-11.37 19.5-21.76 29.33-32.57 16.44 15.92 36.98 29.43 48.21 48.44 11.79 19.96-26.47 62.18-55.68 59.85Zm-40.08 41.88c-6.62 2.3-13.23 4.59-21.99 7.63-6.26-4.17-12.64-8.42-19.01-12.66 6.47-2.85 13.52-8.83 19.27-7.76 7.77 1.43 14.54 8.28 21.73 12.8Zm-17.39 128.02c-8.11 16.99-11.76 28.22-18.49 37.11-3.01 3.97-14.84 6.65-18.17 4.08-16.52-12.73-37.67-24.83-45.02-42.29-5.2-12.33 8.63-33 15.69-49.19.36-.83 19.1 3.18 25.81 8.96 15.07 12.97 27.95 28.48 40.18 41.33Zm-73.84-126.6c-3.19-4-6.53-8.19-9.87-12.37 3.69-.87 7.91-3.27 10.94-2.24 3.88 1.33 6.81 5.43 10.15 8.34-3.28 1.83-6.56 3.67-11.22 6.27Zm-8.29 171.07c14.27 11.52 25.51 26.79 34.54 36.68.96 26.2-21.53 41.53-38.71 31.79-13.08-7.41-25.89-16.72-35.91-27.81-17.09-18.91-2.9-36.48 9.07-50.05 3.14-3.56 22.82 2.78 31.02 9.39Zm-31.05 115.99c7.8 1.98 15.01 6.28 22.48 9.54-6.76 10.98-13.53 21.97-23.17 37.63-17.67-17.34-32.37-31.74-46.68-46.51-.09-.09 5.44-7.99 7.83-7.72 13.28 1.5 26.57 3.77 39.53 7.06Zm-27.38 86.59c-8.71 18.99-20.86 36.44-32.1 54.19-1.73 2.73-6.42 3.58-11 5.96-4.16-2.45-10.12-4.23-13.44-8.21-12.28-14.72-24.84-29.43-35.14-45.52-12.63-19.72 1.57-63.38 22.84-74.83 1.68-.91 3.41-2.01 5.24-2.31 14.48-2.41 69.73 57.37 63.61 70.71Zm-98.82-90.51c-8.46 14.33-16.93 28.66-29.63 50.16-15.03-18.77-27.81-30.29-33.55-44.63-1.67-4.16 16.63-23.01 26.09-23.26 12.19-.33 24.71 11.28 37.08 17.74ZM685.82 1457.3c-1.88-.81-1.28-9.58-.07-14.18.41-1.57 7.65-3.55 9.41-2.21 16.93 12.83 33.42 26.24 50 39.52-19.87-7.49-39.84-14.76-59.34-23.12Zm-2.69 207.71c3.85-2.7 13.26-4.36 14.84-2.36 18.74 23.74 47.38 46.85 50.82 73.08 2.46 18.81-29.1 42.11-45.66 63.27-1 1.28-3.55 1.34-5.51 2.01-2.85-2.22-6.19-4.1-8.57-6.81-7.64-8.71-15.55-17.29-22.24-26.71-29.76-41.88-24.73-73.73 16.33-102.48Zm-70.92 91.9c3.4 1.32 8.06 1.65 10 4.12 16.71 21.37 36.55 41.49 47.43 65.61 4.04 8.96-11.22 29.28-21.38 41.29-11.79 13.93-20.13.84-26.19-8.82-11.32-18.04-23.43-35.89-32.09-55.22-7.48-16.68 7.96-45.6 22.24-46.98Zm-8.76 128.15c13.22 16.11 11.96 29.54-.47 46.28-31.09 41.88-36.08 42.28-65.74-2.22-4.3-6.44-8.74-12.81-12.68-19.48-16.15-27.34-2.49-68.16 26.71-80.33 1.71-.71 3.29-1.73 7.49-3.97 3.01 3.89 6.63 8.39 10.06 13.03 11.52 15.58 22.35 31.73 34.63 46.69Zm-60.64 107.33c-13.98 15.43-24.79 28.19-36.8 39.71-1.73 1.66-11.08-1.2-13.75-4.51-15.58-19.37-31.66-38.63-44.31-59.87-3.95-6.64-1.02-21.83 4.35-28.78 20.91-27.03 29.88-26.51 51.51.56 12.86 16.09 24.5 33.14 38.99 52.9Zm-45.9 105.9c18.01 22.8 36.13 45.5 53.91 68.48 3.42 4.42 5.46 9.9 11.1 20.41-22.1 24.32-44.99 49.58-68.08 74.65-.87.94-4.72.84-5.55-.15-21.07-25.06-42.24-50.06-62.31-75.9-1.95-2.5 1.66-11.73 5.14-15.65 21.54-24.3 43.78-47.97 65.79-71.85Zm-3.89 246.11c12.12 8.55 21.34 21.21 32.96 33.9-4.56 7.44-7.55 14.44-12.38 19.79-11.54 12.79-22.83 26.29-36.46 36.54-7.18 5.4-25.75 8.74-27.58 5.8-6.33-10.16-12.91-25.36-9.49-35.2 5.43-15.66 18.02-29.24 29.15-42.37 6.67-7.86 21.3-20.23 23.81-18.46Zm-45.91 170.54c.73-1.28 3.42-1.43 9.87-3.88 9.9 14.35 19.73 30.33 31.3 44.93 14.35 18.12.24 27.62-9.94 38.66-1.25 1.35-4.39 3.15-4.77 2.78-15.71-15.15-34.06-28.78-45.11-46.86-3.62-5.92 11.7-23.53 18.65-35.63Zm-50.94-9.95c-7.25.86-25.49-22.83-23.71-25.53 8.54-12.97 22.23-22.54 34.09-33.32 8.27 9.87 16.55 19.74 28.35 33.83-14.94 10.43-26.15 23.53-38.73 25.02Zm-8.49 72.72c1.78-.71 4.46-3.05 4.92-2.64 16.76 15.09 33.31 30.41 49.79 45.62-15.93 20.16-28.66 36.76-41.91 52.92-18.74 22.85-24.8 22.24-41.9-3.38-23.92-35.84-11.1-76.56 29.1-92.52Zm-15.01 183.23c4.89-3.22 29.05 22.81 39.9 31.73 1.76 23.59-30.92 52.19-51.59 54.01-19.41 1.71-47.23-17.4-40.42-29.49 12.41-22.03 31.18-42.47 52.11-56.25Zm39.85-18.43c-9.36-14.7-7.29-23.64 3.59-34.44 8.13-8.08 14.25-18.54 23.24-25.31 9.36-7.05 26.44-18.15 30.84-14.9 14.88 11.01 25.64 27.6 38.12 42.22-3.92 6.25-6.22 11.45-9.86 15.41-7.77 8.44-16.22 16.26-24.42 24.31-33.23 32.63-36.88 31.37-61.51-7.29Zm64.46 52.54c11.56-12.83 25.1-23.92 36.12-37.15 12.21-14.64 22.04-12.55 31.69 1.47 7.51 10.91 14.26 22.36 21.35 33.56-11.68 5.28-22.93 12.15-35.15 15.44-14.73 3.97-30.27 4.9-49 7.66-1.63-.88-8.98-2.56-9.75-5.79-1.07-4.53 1.38-11.46 4.74-15.19Zm48.84 54.56c12.52-4.83 26.17-7.05 39.53-9.2 4.09-.66 8.79 2.5 19.62 5.95-19.06 17.8-33.11 33.22-50 44.31-2.67 1.75-18.18-16.06-27.75-24.82 6.13-5.59 11.38-13.46 18.59-16.25Zm88.91 18.17c3.1-1.86 6.88-2.6 12.38-4.61 8.96 8.48 18.85 17.39 28.24 26.81 60.24 60.45 54.63 35.89 4.73 108.52-12.95 18.86-27.54 25.69-44.54 3.7-4.66-6.03-10.82-10.89-16.12-16.46-45.5-47.89-40.81-84.27 15.31-117.96Zm52.97-15.01c-4.26-4.96-4.72-13.17-6.92-19.89 7.09-1.96 14.18-5.58 21.26-5.56 22.64.05 69.93 33.92 71.6 52.52-5.48 7.69-10.54 19.1-19.29 25.24-4.22 2.96-17.35-1.81-23.04-6.89-15.61-13.97-29.96-29.49-43.62-45.41Zm49.98-75c9.02-15.54 17.15-31.69 27.37-46.39 6.46-9.29 14.8-18.95 24.59-23.71 8.23-4 24.44-5.49 29.03-.56 17.6 18.92 31.94 40.88 47.5 61.71-24.26 8.2-48.53 16.41-71.39 24.14-22.11-5.88-39.6-10.54-57.1-15.19Zm50.2 146.64c3.06-4.21 7.17-7.66 10.65-11.31 4.47 2.73 8.35 4.13 10.91 6.81 22.73 23.73 45.63 47.33 67.64 71.72 11.08 12.29 9.47 27.15-4.42 34.34-7.07 3.66-22.31.06-29.06-5.8-18.91-16.38-35.46-35.51-52.66-53.81-12.21-12.98-13.74-27.25-3.06-41.96Zm65.33-12.2c-10.38-11.59-22.14-29.47-20.36-42.79 3.23-24.18 35.18-41.86 66.02-41.58 34.23-5.27 55.02 24.42 80.33 44.05 4.37 3.39 5.07 19.4 1.03 24.43-20.49 25.56-43.1 49.42-64.97 73.88-20.88-19.15-43.23-36.98-62.05-57.98Zm195.22-38.57c9.29-19.4 23.98-40.66 52.63-37.01 9.51 1.11 19.55.64 28.44 3.6 40.37 13.44 47.93 43.94 19.36 75.72-6.4 7.13-13.45 13.71-19.52 21.11-11.61 14.17-21.98 10.74-32.94-.87-7.88-8.35-17.72-15.06-24.62-24.08-9.46-12.35-26.94-30.97-23.35-38.47Zm103.95-138.9c12.03-17.26 21.43-27.17 38.6-5.31 11.96 15.22 27.25 27.79 39.56 42.77 5.52 6.71 12.21 21.93 10.09 23.78-7.8 6.79-18.93 9.94-29.1 13.68-3.42 1.26-7.7.2-10.01.2-7.39-.96-13.2-1.52-18.95-2.49-55.74-9.42-62.39-26.44-30.2-72.64Zm50.17-56.1c7.59-20.86 23.87-38.62 36.92-57.34 1.75-2.5 6.79-2.71 11.22-4.32 4.3 2.55 9.78 4.71 13.82 8.42 11.31 10.39 22.74 20.81 32.78 32.38 10.69 12.31 30.68 30.19 27.55 38.19-7.91 20.24-26.33 36.46-41.04 53.86-2.06 2.44-6.91 3.25-10.56 3.49-21.34 1.42-77.84-55.05-70.7-74.68Zm112.76 87.3c3.17-4.77 7.29-8.93 11.05-13.29 34.95-40.54 34.81-40.22 75.4-2.98 22.62 20.76 46.82 39.79 69.46 60.54 6.4 5.86 9.8 15 14.58 22.63-9.12 5.5-18.24 11-24.36 14.68-46.03-9.37-87.71-16.02-128.31-26.78-25.69-6.81-32.46-32.76-17.82-54.8Zm175.85 138.16c18.93 2.98 36.38 15.39 54.43 23.95-12.22 15.78-24.45 31.57-40.57 52.39-17.75-20.68-31.99-35.34-42.54-52.29-1.16-1.86 20.13-25.4 28.68-24.05Zm-48.09-160.12c-76.03-72.23-62.56-51.82-6.18-132.21 7.91-11.28 15.96-16.45 28.09-6.91 36.45 28.65 72.91 57.28 109.01 86.36 4.1 3.31 5.95 9.42 10.37 16.78-6.49 8.84-13.07 17.99-19.85 27-54.2 71.96-54.66 72.42-121.43 8.99Zm118.16 53.98c10.74-16.09 23.97-30.5 35.58-46.05 14.32-19.18 28.96-20.85 49.1-6.73 34.45 24.17 36 28.71 7.85 61.76-13.85 16.26-27.99 32.29-42.5 47.95-4.87 5.26-11.28 9.08-25.15 19.97-12.77-16.62-26.78-30.83-35.19-47.82-3.24-6.53 4.57-20.5 10.31-29.1Zm84.21 70.7c9.74-11.84 19.71-23.62 30.75-34.22 10.21-9.8 26.64-27.82 32.1-25.18 18.3 8.84 33.1 25.09 48.73 39.08 2.14 1.92 1.36 7.1 2.72 15.79-13.06 16.67-27.18 37.17-43.99 55.15-9.04 9.67-76.24-21.97-76.91-35.54-.24-4.96 3.19-10.93 6.6-15.08Zm87.94-99.46c-6.69-12.7 37.21-53.32 49.38-46.53 18.7 10.44 39.81 23.44 49.43 41.07 7.45 13.64-35.19 58.55-56.73 56.42-11.88-13.77-31.14-30.17-42.08-50.95Zm-36.43-30.95c-11.34 5.54-53.01-38.58-48.3-49.09 6.4-14.27 17.17-26.59 30.2-45.86 22.72 22.99 42.26 38.19 53.88 58.03 2.59 4.41-20.54 29.48-35.79 36.92Zm-71.97-172.19c-20.32-17.91-41.86-34.41-62.27-52.23-27.44-23.96-27.34-26.53-1.72-55.18 9.05-10.11 18.3-20.09 28.11-29.45 3.88-3.71 9.54-5.55 14.5-8.29 5.34 3.99 10.21 7.17 14.54 10.95 24.79 21.65 49.8 43.05 74.07 65.27 31.36 28.72 31.09 29.02 3.99 62.11-33.15 40.49-33.25 40.27-71.22 6.81Zm-27.82-205.54c-.81 1.21-3.52 1.13-5.82 1.78-4.26-3.42-8.95-6.79-13.17-10.66a5264.562 5264.562 0 0 1-46.5-43.17q-31.25-29.35-3.65-64.53 34.93-44.52 80.62-10.8c10.82 8 21.87 15.81 31.8 24.82 5.41 4.9 13.77 15.21 12.17 17.86-17.46 28.86-36.59 56.71-55.46 84.7Zm-73.29-234.57c-4.44-3.69-8.66-7.69-12.71-11.82-15.37-15.67-30.62-31.45-45.91-47.19 17.67-25.2 35.2-50.49 53.23-75.43 1.83-2.54 6.63-2.93 12.48-5.31 11.43 7.56 24.87 14.98 36.62 24.49 55.88 45.23 56.69 55.25 11.23 111.53-22.19 27.47-26.01 27.76-54.93 3.72Zm78.22-130.18c-9.22-6.86-19.38-12.85-27.27-21.01-9.99-10.32-27.38-25.04-25.09-33.27 4.8-17.22 20.16-31.61 31.79-46.71 1.87-2.43 6.82-2.48 12.12-4.2 5.42 3.46 12.52 6.69 17.97 11.72 16.87 15.6 34.32 30.87 48.99 48.4 5.67 6.78 8.87 21.19 5.55 28.78-6.74 15.38-18.69 28.47-28.49 42.51-11.85-8.74-23.73-17.43-35.55-26.22Zm-23.9-168.6c-1.23 1.79-8.47 2.07-10.43.3-16.94-15.27-45.57-30.33-46.72-47.11-1.43-20.89 19.9-43.37 31.6-65.06.78-1.45 4.06-3.26 4.73-2.8 21.34 14.66 42.5 29.57 66.06 46.11-17.63 27-31.09 48.01-45.24 68.56Zm-40.11-178.89c-15.93-17.07-32.92-33.35-46.6-52.06-1.99-2.72 11.91-17.05 22.63-31.72 16.12 21.1 31.21 37.54 41.41 56.6 2.47 4.62-11.2 17.88-17.45 27.17Zm-25.21-296.12c-1.54-3.95 2.64-11.12 5.81-15.69 4.84-6.99 11.08-13 16.72-19.43 3.33 8.73 6.67 17.47 9.76 25.57-1.44 6.73-2.33 12.35-3.86 17.79-2.84 10.08-6.05 20.06-9.11 30.08-6.62-12.7-14.15-25.05-19.32-38.33Zm15.08-120.04c-1.18 2.37-5.54 3.15-13.88 7.54-4.41-14.55-12.19-28-11.34-40.87.82-12.37 9.29-25.07 16.94-35.81 4.03-5.66 16.48-12.17 19.85-10.02 7.02 4.48 16.21 16.26 14.43 21.85-6.3 19.87-16.65 38.48-26 57.31Zm-20.83-114.67c-11.88 21.32-20.51 38.1-30.68 53.89-1.86 2.89-12.86 4.21-14.8 2-9.63-10.97-20.06-22.41-25.22-35.63-2.67-6.85 3.94-18.28 8.26-26.67 5.66-10.99 13.2-21.02 19.93-31.46 13.63 12.14 27.26 24.29 42.5 37.87Zm-36.48-153.39c-1.93 9.27-6.44 17.99-9.62 27.02-5.13 14.61-11.52 16.28-24.68 6.28-37.1-28.21-43.21-49.88-17.95-73.86 3.98-3.78 9.64-5.8 13.27-7.91 18.16-1.59 42.86 29.75 38.97 48.47Zm-34.64 85.11c-8.44 23.12-13.79 39.57-20.69 55.35-1.64 3.75-11.61 8.2-12.45 7.32-17.01-17.96-38.86-34.4-47.54-56.04-5.22-13 9.75-34.58 17.08-51.69 1.35-3.15 12.28-6.26 14.2-4.47 17.5 16.36 33.98 33.8 49.4 49.54Zm-117.78-26.89c-13.24-14.59-35.28-27.91-37.62-44.08-3.41-23.6 19.95-32.83 42.76-35.81 21.26-2.78 25.53 11.08 31.87 36.04-9.98 11.83-23.5 27.84-37.01 43.85Zm-16.68 53.68c-2.78 11.19-7.44 22.26-13.19 32.28-8.36 14.55-18.47 28.09-27.84 42.06-14.87-11.49-30.93-21.81-44.03-35.05-5.2-5.26-7.82-18.87-4.73-25.44 9.83-20.93 22.59-40.54 34.96-60.19 2.75-4.37 8.55-6.81 11.45-9.01 19.26-.28 47.88 37.22 43.37 55.36Zm-112.46-4.61c-1.68 2.66-7.77 5.97-8.59 5.25-17.46-15.13-36.85-29.02-50.34-47.24-5.32-7.18.16-25.4 5.15-36.62 18.99-42.6 56.49-47.65 84.63-12.31 4.55 5.71 7.5 12.68 12.23 20.85-14.7 24.05-28.66 47.2-43.07 70.06Zm-102.62 153.99c-10.64 4.39-21.28 8.79-33.04 13.64-10.84-4.31-19.91-7.91-28.98-11.51l22.47-41.37c13.18 13.08 26.36 26.16 39.55 39.24Zm-52.07 118.47c-6.34 14.31-22.32 38.27-27.58 36.57-16.69-5.38-30.19-20.69-44.92-32.16l46.33-32.46c12.17 12.64 27.88 24.2 26.18 28.04Zm-38.61 81.23c-14.58 13.86-28.02 31.31-31.81 29.42-17.62-8.79-32.57-22.94-48.48-35.16 10.18-11.52 25.23-34.45 29.69-32.55 17.35 7.4 31.34 22.68 50.6 38.29Zm-76.45-131.52c-4.26 1.34-10.19-2.67-15.37-4.26 8.41-5.32 16.83-10.64 23.83-15.06 8.54 2.9 13.45 4.56 18.36 6.22-8.89 4.53-17.43 10.16-26.82 13.1Zm9.33-55.02c-14.52 4.34-29.55 6.95-43.31 9.93-13-2.31-25.33-1.96-35.04-6.84-14.76-7.42-24.21-19.49-12.4-37.28 7.44-11.2 14-23.05 22.16-33.68 2.55-3.31 11.66-6.39 13.34-4.82 21.02 19.56 41.39 39.84 61.21 60.61 1.17 1.22-2.88 11.15-5.97 12.07Zm-92.34 52.85c4.28-.66 9.29 3.41 13.97 5.33-7.56 3.46-15.13 6.92-22.84 10.45-8.51-2.67-15.9-4.99-23.29-7.32 10.69-2.96 21.26-6.77 32.15-8.46Zm3.51 116.01c25.24 24.67 25.13 48.83.04 74.15-2.62 2.64-6.25 4.26-9.42 6.36-3.31-1.78-7-3-9.76-5.32-23.6-19.95-47.47-39.61-70.39-60.32-21.19-19.15-20.88-32.29-2.97-54.7 17.25-21.58 33.62-13.42 49.7.36 14.73 12.62 28.91 25.92 42.79 39.48Zm-114.08-143.59c-20.18-14.34-37.39-33.77-53.1-53.22-14.88-18.43 3.52-32.86 12.69-45.68 11.6-16.23 24.03-4.02 33.97 5.04 18.6 16.96 36.62 34.55 54.74 52.02 3.87 3.73 7.14 8.07 9.57 10.86 1.4 25.12-36.66 46.06-57.87 30.99Zm-31.03 7.58c-5.52 6.07-8.04 10.75-11.95 12.79-11.74 6.12-23.76 11.95-36.2 16.4-6.57 2.35-14.25 1.57-21.43 2.2-.13-8.43-1.03-16.95-.11-25.26.61-5.46 2.76-11.52 6.17-15.73 6.66-8.22 18.63-23.05 21.48-21.6 14.43 7.37 26.63 19.1 42.03 31.19Zm-114.86 412.09c10.32 12.62 28.21 24.86 28.84 37.95.64 13.22-15.82 27.27-30.18 49.17-13.89-22.44-30.1-37.01-29.04-50.21 1.04-13.03 19.54-24.66 30.39-36.91Zm-20.1 110.13c-17 19.3-31.86 36.18-46.73 53.06-13.79-16.67-38.91-33.77-38.29-49.89.66-17.38 25.42-33.84 39.67-50.69 13.98 14.65 27.95 29.29 45.35 47.53Zm-74.82 86.91c-18.82 16.62-32.37 28.6-45.93 40.58-12.81-18.43-32.31-35.7-35.8-55.75-1.93-11.05 23.04-26.78 35.88-40.4 13.93 16.89 27.87 33.78 45.85 55.58ZM412.7 1989.8c3.37 1.42 7.92 1.91 9.9 4.43 16.77 21.33 33.1 43.01 49.45 64.66 1.08 1.43 2.35 4.47 1.72 5.21-24.8 28.94-49.73 57.77-75.12 86.2-1 1.12-7.5-.89-9.84-3.12-5.59-5.34-10.94-11.22-15.12-17.7-13.34-20.67-26.1-41.71-39.08-62.61 24.22-25.03 48.41-50.08 72.73-75 1.21-1.25 3.54-1.4 5.35-2.07Zm-27.47 238.36c4.12-4.19 17.17-6.91 19.65-4.25 21.96 23.53 42.47 48.42 66.14 76.11-21.05 27.08-39.35 51.25-58.91 74.35-1.28 1.51-14.85-3.39-18.29-8.37a1029.3 1029.3 0 0 1-46.1-72.97c-3-5.22-2.61-15.76.8-20.66a343.516 343.516 0 0 1 36.71-44.21Zm-10.95 166c13.4 20.82-4.52 32.69-16.7 42.95-18.07 15.22-22.12-7.45-29.01-15.52-14.85-17.39-28.44-36.25-39.85-56.07-9.82-17.06 8.97-48.69 27.4-46.62 3.46 2.53 9.23 4.98 12.38 9.32 15.7 21.67 31.31 43.45 45.79 65.94Zm-40.68 126.69c11.05-10.82 30.57-1.55 33.33 14.55 2.9 16.9-36.27 60.18-61.23 59.56-2.73-8.76-12.13-22.84-8.37-30.11 8.56-16.54 22.66-30.68 36.26-44.01Zm-43.97 329.41c1.93 4.53 6.07 12.68 5.46 13.05-11.32 6.91-23.2 12.89-34.68 18.92-3.13-4.29-4.92-6.76-6.72-9.23l35.94-22.74ZM267 2920.02c16.27-10.12 33.44-18.78 50.57-27.44.6-.3 5.85 6.6 5.59 6.87-14.73 15.03-29.78 29.76-44.99 44.31-.81.78-3.31-.21-4.59-.33-2.96-2.85-7.42-5.14-8-8.17-.95-5-1.31-13.55 1.41-15.25Zm47.3 46.2c21.07-38.62 40.15-40.17 69.91-7.79 14.07 15.3 25.55 32.99 41.14 53.45-18.93 21.74-35.77 41.85-53.95 60.65-1.66 1.71-14.05-3.29-17.94-8.05-14.59-17.85-30.5-35.57-40.33-56.02-5.54-11.53-4.99-30.94 1.17-42.23Zm87.27-41.64c-20.62-29.49-17.73-37.59 16.87-47.25 7.43-2.07 15.07-3.35 19.36-4.29 21.54-.55 72.79 35.53 68.59 49.07-4.72 15.23-18.32 28.42-30.01 40.63-25.18 26.31-26.77 25.95-47.52-.56-9.54-12.19-18.41-24.91-27.29-37.6Zm123.22 30.9c10.14 8.38 14.92 11.49 18.66 15.56 20.87 22.76 41.73 45.53 62.11 68.72 15.91 18.1-1.52 28.03-11.6 37.66-9.93 9.48-19.85 29.3-37.5 12.94-24.04-22.28-46.03-46.76-68.84-70.36-1.32-1.36-3.4-4.07-2.97-4.73 12.93-19.61 26.13-39.05 40.15-59.79Zm91.9 145.44c12.94-12.28 22.22-20.02 37.48-2.7 16.66 18.92 35.93 35.53 53.83 53.38 4.02 4.01 7.09 8.96 12.83 16.34-9.62 11.38-17.64 25.14-29.52 33.19-6.43 4.36-22.12 2.5-28.97-2.7-16.9-12.83-30.56-29.82-46.53-44-21.09-18.73-18.64-34.99.89-53.52Zm97.32 7.11c-15.63-18.69-46.45-41.22-43.1-55.69 6.36-27.41 31.97-50.6 50.82-74.57 2.34-2.98 14.94-2.73 18.11.54 22.72 23.48 44.92 47.56 65.61 72.83 4.62 5.64 6.66 19.76 2.92 24.74-14.91 19.89-32.44 37.85-49.39 56.17-2.31 2.5-6.85 2.94-11.73 4.88-4.07-2.25-9.61-4.14-13.56-7.76-7.08-6.47-13.5-13.75-19.67-21.13Zm106.49 3.51c16.74-15.33 28.04-16.9 42.43.38 15.97 19.2 32.6 37.84 51.42 59.59-13.26 16.46-24.68 31.54-37.04 45.79-25.32 29.17-26.84 29.1-52.89 3.86-2.77-2.69-5.01-5.91-7.68-8.72-49.67-52.35-48.89-52.69 3.76-100.9Zm57.11-34.41c-4.54-6.62-2.57-21.45 1.82-29.64 8.07-15.06 19.3-6.97 27.98 1.39 16.58 15.96 33.6 31.62 48.63 48.97 9.62 11.12-4.17 38.15-20.18 38.81-3.52-1.98-9.45-3.75-13.1-7.65-15.69-16.76-32.25-33.09-45.14-51.88Zm49.01-71.86c-3.92-5.15-1.22-20.67 3.96-26.45 20.47-22.85 43.14-43.74 64.99-65.35 21.59 18.67 43.35 37.15 64.62 56.19 4.05 3.62 6.14 9.44 9.28 14.49-2.66 5.62-4.33 11.43-7.74 15.9-8.21 10.74-16.47 21.65-26.11 31.05-15.71 15.32-32.54 29.5-48.9 44.15-20.29-23.13-41.54-45.54-60.1-69.99Zm133.77 48.33c37.14-43.25 36.88-42.95 80.44-4.36 17.27 15.3 36.36 28.54 53.83 43.64 6.52 5.63 10.77 13.89 19.65 25.73-20.54 17.69-38.84 31.95-55.42 48-50.33 48.73-50.07 49-96.55-3.45q-48.78-55.04-1.95-109.57Zm146.19 7.67c-24.21-19.2-45.73-41.74-69-62.17-14.63-12.85-15.95-25.93-3.06-39.86 52.8-57.05 42.4-67.38 95.59-5.97 15.13 17.47 32.56 32.93 48.46 49.75 6.32 6.69 11.35 14.6 21.73 28.18-19.21 16.29-35.11 34.56-55.14 44.52-8.58 4.27-27.92-6.01-38.58-14.46Zm19.61-161.82c-6.25-7.44-10.58-24.18-6.44-30.6 4.62-7.15 19.92-7.39 21.35-7.83 44.81-.34 73.73 13.94 99.97 35.87 44.26 36.99 43.59 52.41-1.81 89.35-13.72 11.16-23.76 10.91-34.83-.98-26.39-28.33-53.37-56.19-78.23-85.82Zm134.36 117.22c13.83-18.39 29.57-35.37 45.1-52.42 2.02-2.22 6.93-1.8 10.51-2.6 27.84 4.24 42.15 40.75 24.78 63.51-4.67 6.13-9.88 11.84-14.72 17.85-22.56 28.01-47.79 26.32-64.65-5.25-3.09-5.79-4.35-16.65-1.02-21.08Zm79.92 77.21c9.49-22.23 26.61-41.31 41.78-60.84 1.43-1.84 11 .3 14.9 3.18 10.86 8.01 21.39 16.73 30.79 26.38 10.58 10.85 30.41 28.36 27.73 33.72-10.92 21.8-28.87 40.1-44.4 59.55-.99 1.23-3.39 1.34-8.43 3.15-11.99-9.21-26.71-18.38-38.64-30.33-10.17-10.2-26.77-27.7-23.74-34.81Zm85.8-84.09c-4.07-4.4-2.01-18.52 1.97-25.45 7.61-13.25 18.95-24.31 28.16-36.7 11.55-15.54 23.51-16.49 39.4-5.28 12.44 8.78 27.47 13.8 40.72 21.56 6.19 3.62 10.91 9.77 16.22 14.7-3.8 7.44-5.67 13.07-9.13 17.45a330.06 330.06 0 0 1-22.99 26.16c-12.8 13.09-33.19 38.79-38 36.2-21.42-11.54-39.42-30.33-56.36-48.63Zm109.61 52.06c3.35-6.86 8.95-12.6 13.48-18.89 35.38-49.02 34.67-48.24 81.18-6.73 14.38 12.84 18.91 23.54 7.56 38.91-14.9 20.19-30.22 40.09-45.82 59.76-3.44 4.34-8.75 7.18-15.37 12.44-18.51-17.32-38.49-32.92-53.61-52.3-3.83-4.91 7.19-22.18 12.57-33.2Zm91.29-118.76c14.13-19.9 28.27-39.81 45.77-64.45 21.71 18.1 50.2 30.61 52.97 47.36 2.7 16.37-20.85 37.08-32.88 55.88-21.95-12.93-43.9-25.86-65.86-38.79Zm86.3-115.39c6.03-9.73 12.87-18.96 19.18-28.52 11.31-17.12 24.28-22.69 42.75-9.05 16.02 11.83 32.75 21.78 17 45.4-9.52 14.28-17.14 29.86-26.86 43.99-3.83 5.56-11.08 8.77-14.25 11.16-28.89-2.69-50.44-42.62-37.82-62.98Zm23.37-111.06c-17.92-12.13-35.83-24.26-53.75-36.38 13.64-20.07 27.27-40.13 42.78-62.95 18.62 14.69 49.14 29.79 47.49 39.3-3.73 21.48-23.35 40.19-36.51 60.03Zm-101.33-59.8c-18.62-10.79-33.52-28-50.01-42.47 17.82-20.51 35.63-41.02 53.45-61.53 19.22 14.04 38.44 28.07 54.1 39.51-1.67 27.3-44.8 71.88-57.54 64.49Zm-6.69-169.74c-1.85 2.79-18.4.09-24.23-4.75-29.67-24.67-58.07-50.88-86.88-76.57-13.42-11.96-17.28-24.76-4.53-40 14.86-17.76 28.95-36.16 43.89-53.86 3.47-4.12 9-6.5 15.26-10.85 6.47 3.92 13.35 7.09 19.06 11.72 16.49 13.37 33.1 26.71 48.55 41.24 14.94 14.04 43.12 34.52 40.06 43.51-10.92 32.04-32.1 60.77-51.19 89.56Zm-52.49-258.29c-12.27 13.77-25.75 15.43-40.39 3.73-19.51-15.59-39.8-30.35-58-47.34-5.41-5.05-9.53-19.25-6.36-24.42 14.99-24.44 32.58-47.32 49.67-70.42 1.88-2.54 6.56-3 11.16-4.94 5.68 3.98 12.29 7.92 18.09 12.82 14.67 12.39 28.51 25.81 43.52 37.75 33.14 26.37 33.86 27.84 8.82 62.46-7.84 10.85-17.58 20.33-26.53 30.36Zm-15.3-167.96c-26.52-26.11 3.66-40.5 13.99-58 13.48-22.85 25.12-4.29 36.53 3.87 18.7 13.37 37.53 26.58 55.59 40.77 6.93 5.44 11.88 13.39 18.7 21.32-13.21 20.06-23.76 38.4-37.1 54.42-2.7 3.25-18.19.49-23.88-4.21-22.17-18.31-43.31-37.98-63.82-58.17Zm22.26-141.92c-8.79 10.33-17.51 14.49-28.79 3.92-11.24-10.53-23.46-20.16-33.68-31.59-12.35-13.81-33.49-30.23-32.07-43.51 2.26-21.09 19.87-40.63 31.5-60.52 1.7-2.91 6.23-4.18 9.87-6.48 4.63 3.17 9.6 6.11 14.05 9.7 8.99 7.24 17.42 15.18 26.56 22.2 46.86 35.93 49.94 62.31 12.55 106.28Zm-86.19-318.43c-1.93-2.03 9.99-17.22 20.15-34 19.79 18.83 37.37 31.99 49.21 49.12 3.32 4.8-10.25 21.28-16.07 32.4-18.1-15.52-36.96-30.32-53.29-47.52Zm42.75 83.83c-7.46 17.46-11.69 28.16-16.66 38.5-1.46 3.05-4.69 6.68-7.69 7.32-16.67 3.57-61.25-52.77-55.01-69.6 6-16.18 14.76-28.74 33.57-14.2 15.78 12.2 30.75 25.44 45.79 37.98Zm-65.37-126.52c-4.79 9.45-12.61 17.37-25.27 33.92-15.46-25.99-27.48-45.48-37.88-65.8-.53-1.04 15.09-14.8 19.41-13.09 15.55 6.17 30.14 15.56 43.55 25.77 3.27 2.49 2.88 13.9.2 19.19Zm-36.22-477.11c2.23-11.05 7.33-21.66 12.21-31.97 1.87-3.96 6.6-6.56 10.04-9.78.6 3.61 1.2 7.23 1.72 10.37-3.03 11.49-5.02 22.9-9.13 33.49-4.05 10.44-10.25 20.06-15.51 30.03.08-10.74-1.41-21.8.68-32.14Zm-4.74-104c-11.38-10.89-25.47-20.32-32.59-33.5-2.37-4.38 13.18-18.43 20.54-28.06 11.83 10.2 23.66 20.39 37.98 32.73-11.82 13.15-18.88 20.99-25.93 28.83Zm-22.34-208.45c7.85-5.57 15.25-12.16 23.87-16.04 2.29-1.03 8.33 6.26 15.89 12.34-10.96 4.78-18.95 9.5-27.57 11.4-3.34.73-8.08-4.94-12.19-7.69Zm-435.08 19.72-32.16-28.05c2.14-1.82 4.27-3.63 7.37-6.27 9.94 8.47 19.9 16.69 29.27 25.53.67.63-2.89 5.76-4.48 8.79Zm-89.68 356.21c3.71 3.75 4.91 9.99 8.77 18.32-9.08 19.4-18.53 40.34-29.27 60.59-.64 1.2-13.4-1.26-17.57-5.16-21.13-19.76-41.68-40.19-61.68-61.1-23.12-24.16-20.65-64.34 5.69-85.37 4.11-3.28 15.76-3.3 19.45.07 25.6 23.43 50.19 47.98 74.62 72.65ZM878.08 985.69c-13.44-5.69-24.56-17.1-35.98-26.94-1.04-.9 3.03-10.63 3.98-10.51 16.81 2.19 33.64 4.71 50.11 8.67 3.18.76 4.84 7.9 9.58 16.32-10.81 5.21-21.83 14.93-27.68 12.46Zm-18.66 37.6c7.9 11.86-4.96 39.45-12.32 58.36-2.03 5.21-22.61 10.08-27.2 6.22-21.96-18.51-42.54-39.05-61.19-60.93-10.64-12.47.48-56.01 14.75-68.25 2.54-2.18 6.51-2.69 14.78-5.9 23.27 21.97 52.62 42.63 71.17 70.49Zm-92.18 59.48c13.36 11.24 26.74 22.53 39.23 34.72 5.22 5.1 8.12 12.57 13.78 21.7-11.85 18-22.79 36.08-35.67 52.64-2.02 2.59-15.01.66-19.3-3.2-20.17-18.22-40.26-36.84-57.76-57.52-5.76-6.8-7.49-21.51-4.53-30.44 15.3-46.19 27.21-49.07 64.26-17.9Zm-48.78-96.54c-.81 1.25-14.06-3.1-19.22-7.54-15.9-13.69-31.03-28.33-45.61-43.43-3.23-3.35-3.83-10.11-3.74-15.27.03-1.71 6.05-3.31 10.59-5.59 21.01 5.8 43.25 11.2 64.89 18.42 5.57 1.86 13.99 11.1 12.95 14.14-4.76 13.81-11.91 26.96-19.86 39.28Zm-20.49 45.94c-7.44 14.4-16.84 33.1-26.88 51.44-1.6 2.93-8.13 6.7-8.99 5.98-19.1-15.78-39.14-30.85-55.55-49.16-4.92-5.49-1.08-20.76 1.73-30.71 3.08-10.9 8.88-21.29 14.98-30.96 2.62-4.16 8.81-7.95 13.71-8.43 14.09-1.36 60.05 42.24 60.99 61.83Zm-83.99 55.23c14.52 9.42 28.91 19.06 42.23 27.87-16.72 26.17-23.3 44.77-36.44 53.57-6.64 4.45-28.12-5.73-37.56-14.83-12.78-12.31-27.44-29.6-28.2-45.39-.65-13.66 15.36-30.01 27.74-40.95 2.78-2.46 21.17 12.55 32.23 19.73ZM593.3 960.09c-1.42 3.59-3.5 6.91-5.16 10.4-19.63 41.39-34.23 42.88-61.84 6.93-16.74-21.8 4.77-35.41 11.16-51.71 3.62-9.22 13.21-16.1 18.11-21.73 29.56 3.98 46.73 33.33 37.74 56.12Zm-49.59 76.89c1.01 16.22-13.92 33.53-22.63 50.03-.57 1.07-9.15.07-9.51-1.23-6.5-23.31-12.72-46.72-17.66-70.39-.54-2.6 7.2-6.93 14.1-13.15 13.24 12.06 34.95 22.74 35.7 34.73Zm-23.51 406.49c7.69-2.36 19.44 8.53 35.74 16.52-17.11 22.48-29.16 38.9-42.33 54.35-.89 1.05-13-3.77-15.24-8.21-9.72-19.25 2.07-56.6 21.84-62.66Zm-7.18 165.04c8.95 9.78 15.83 21.45 26.54 36.48-10.31 10.58-19.34 22.67-31.21 30.41-3.88 2.53-17.44-4.3-22.51-10.29-8.52-10.07-20.26-23.81-18.76-34.31 1.82-12.67 15.31-24.29 25.64-34.43 1.53-1.5 14.95 6.29 20.3 12.14Zm-39.12-53.23c-2.55 12.5-16.65 22.65-29.35 38.14-11.51-16.47-27.25-32.05-24.57-36.46 8.28-13.66 23.57-23.08 36.14-34.14 6.47 10.93 19.66 23.23 17.78 32.46Zm-40.39 105.59c17.17 8.39 29.77 26.11 49.55 44.72-20.22 19.17-36 34.12-51.78 49.08-12.75-15.51-28.23-29.58-37.39-46.98-7.21-13.69 26.37-53.29 39.61-46.81Zm-22.44-36.66c-4.88 15.8-24.13 27.17-37.29 40.42-10.19-12.85-29.56-26.69-28.3-38.3 1.65-15.19 19.59-28.61 36.67-50.75 13.84 21.92 32.03 38.56 28.93 48.63Zm-45.97 96.43c12.92 28.91 28.53 48.91 28.31 68.74-.14 12.56-23.85 24.86-37 37.28-11.99-19.23-30.4-37.52-33.44-58.08-1.68-11.38 22.36-26.56 42.13-47.95Zm-7.14 187.7c14.07 11.95 24.31 28.4 36.65 43.93-6.84 8.64-11.09 14.87-16.19 20.29-10.52 11.21-21.72 21.78-32.24 32.98-42.96 45.73-31.53 37.52-67.3-7-13.89-17.28-9.35-32.16 5.45-45.2 14.34-12.64 28.94-25.23 44.78-35.82 8.43-5.63 24.65-12.75 28.85-9.19Zm-79.26 211.49c23.16-21.82 26.65-22.03 47.8 5.6 6.98 9.12 14.56 17.89 20.54 27.64 7.63 12.44 22.44 28.92 19.03 37.94-7.1 18.76-24.11 33.78-37.17 50.24-1.13 1.43-3.12 2.18-14.32 9.69-1.81-4.74-3.54-12.36-7.38-18.71-10.87-17.98-21.11-36.66-34.35-52.81-18.82-22.97-14.14-40.75 5.85-59.58Zm7.08 146.42c11.13 19.58-3.63 34.7-17.3 43.61-5.11 3.33-24.37-6.8-30.91-15.51-16.23-21.58-30.21-45.19-42.45-69.33-8.34-16.44 11.1-41.64 30.78-40.07 3.23 1.99 9.65 3.85 12.55 8.11 16.36 24.01 32.98 47.97 47.32 73.19Zm-33.74 119.88c3.29-.28 8.06 1.71 10.12 4.28 19.33 24.07 48.82 46.64 53.53 73.48 3.14 17.9-29.18 42.04-46.05 63.06-.2.25-7.03-3.18-8.75-6.08-14.78-24.92-30.26-49.54-43.1-75.45-7.66-15.45 18.18-57.91 34.26-59.29Zm-16.13 193.89c-6.31 9.6-14.7 17.88-22.56 26.39q-27.73 30.02-52.86-4.98c-6.74-9.43-13-19.2-19.39-28.86-30.14-45.58-19.5-84.11 29.32-105.9 3.44-1.54 7.34-2.07 11.02-3.07 21.58 2.23 66.77 97.71 54.48 116.41Zm-56.69 123.7c1.15-1.26 11.4 5.77 25.38 13.15-19.39 16.58-33.91 29-48.43 41.42-3.41-4.34-10.58-11.23-9.64-12.62 9.94-14.68 20.76-28.86 32.7-41.95Zm5.46 90.69c-2.19-10.46 17.75-25.56 33.87-46.65 15.47 26.87 33.59 45.38 34.69 64.85.72 12.71-23.27 26.81-36.19 40.29-11.5-19.35-28.02-37.65-32.37-58.49Zm8.93 182.84c4.53-11.34 18.39-21.79 30.65-25.95 5.72-1.94 16.71 11.62 30.13 21.82-14.77 12.54-26.91 22.86-39.06 33.18-7.84-9.92-24.06-23.19-21.72-29.04Zm65.78 43.27c16.75-11.13 24.08 2.99 31.64 13.53 12.25 17.07 23.81 34.66 35.35 52.23 2.96 4.51 4.75 9.79 9.57 19.97-9.6 7.72-18.95 18.94-30.78 23.11-5.56 1.96-17.75-8.16-23.7-15.45-13.29-16.27-24.69-34.09-36.59-51.47-13.9-20.3-.65-31.86 14.5-41.93Zm20.34 183.67c6.84-4.15 23.3-1.08 29.98 4.82 18.75 16.57 34.75 36.27 51.68 54.88 2.53 2.78 4.2 6.32 6.29 9.55-3.55 1.13-7.95 4.18-10.34 3.03-25.51-12.18-51.8-23.31-75.47-38.48-10.58-6.78-18.21-24.06-2.15-33.8Zm69.73 116.04c35.89-.58 66.99 35.46 56.99 62.79-4.26 11.65-16.43 20.4-25.01 30.46-6.12-9.06-13.79-17.45-18.02-27.32-6.83-15.93-12.04-32.66-16.54-49.43-1.4-5.21 1.71-11.63 2.57-16.5Zm54.33-72.17c-25.74-22.98-50.23-47.76-71.77-74.65-3.61-4.51 7.05-23.64 15.04-32.47 2.63-2.91 20.6 2.64 26.38 9.02 18.14 19.99 33.95 42.11 50.33 63.65 3.35 4.41 5.24 9.93 10.95 21.07-11.37 5.15-27.53 16.41-30.93 13.38Zm5.95-107.82c-7.99-12.4-21.98-32.55-17.74-39.09 14.38-22.16 35.66-39.86 54.46-59.11 1.06-1.08 3.48-.82 6.73-1.49 5.21 4.29 11.61 8.72 17.02 14.14 19.17 19.22 37.81 38.97 57.03 58.14 14.47 14.43 11.83 26.89-2.83 39.04-58.91 48.82-59.2 74.37-114.66-11.62Zm86.84 97.47c-1.48-6.15.97-15.91 5.35-20.35 18.9-19.14 36.37-45.25 59.66-53.09 29.12-9.8 38.82 27.98 57.37 43.98 37.9 32.7 36.8 34.48.08 68.77-10.92 10.2-23.48 18.65-31.8 25.17-21 .88-86.58-47.52-90.66-64.49Zm227.85 15.27c-11.5-9.3-21.36-18.05-5.56-32.05 12.65-11.21 23.38-29.53 43.33-11.74 18.81 16.78 37.2 34.07 55.19 51.72 3.67 3.6 4.74 9.84 6.23 13.13-2.59 19.85-29.75 33.86-45.15 23.24-19.11-13.18-35.92-29.65-54.04-44.31Zm100.69 151.99c12.79 6.22 21.87 10.64 30.96 15.06l-30.69 40.83c-7.32-12.42-16.32-24.28-20.76-37.65-1.09-3.29 12.67-11.52 20.48-18.23Zm86.58-111.33c-20.29-15.48-22.84-30.2-6.43-52.71 33.51-45.96 31.96-46.95 72.78-3.34 11.78 12.58 24.42 24.37 36.23 36.93 3.58 3.81 5.69 8.99 7.63 12.17-3.31 30.16-51.54 51.95-74.1 35.23-12.28-9.1-23.95-19.02-36.11-28.29Zm63.36-116.46c-4.56-5.91 6.18-23.61 9.88-35.88 8.76 4.66 19.31 7.57 25.94 14.32 20.19 20.56 39.05 42.43 58 64.17 4.71 5.4 7.78 12.22 15.48 24.62-16.29 3.61-33.38 12.37-38.64 7.72-25.69-22.71-49.75-47.81-70.66-74.95Zm69.6 147.62c3.14-3.2 18.32 5.29 27.9 8.7 1.68.6 2.89 2.52 4.29 3.87 10.93 10.52 21.84 21.05 32.77 31.59-15.08 1.66-30.16 3.33-41.08 4.53-8.11 0-12.28.94-15.81-.18-10.33-3.26-20.41-7.34-30.58-11.11 7.17-12.8 12.59-27.31 22.51-37.4Zm46.49-28.8c-3.39-3.71.76-19.07 6.08-24.57 4.69-4.85 18.32-7.39 23.73-4.05 19.58 12.12 37.48 26.99 55.7 41.22 2.8 2.19 3.97 6.47 9.58 16.15-13.74 7.41-32.4 24.14-39.71 20.14-21.16-11.6-38.71-30.66-55.37-48.9Zm63.75-53.86c-16.27-16.18 5.14-26.47 14.86-36.85 11.91-12.73 24.34-25.05 37.33-36.67 32.33-28.93 61.82-23.01 80.13 15.69 1.54 3.26 2.03 7.01 4.64 16.4-23.99 25.74-50.14 53.8-76.29 81.86-20.49-13.21-43.77-23.62-60.68-40.43Zm123.34-129.37c7.91-22.33 32.1-38.9 49.67-57.81 16.32 14.72 32.63 29.44 53.45 48.23-24.23 22.2-43.36 39.72-62.49 57.24-14.56-16.24-44.13-37.81-40.64-47.65Zm192.25 161.88c6.69-22.05 24.56-40.71 40.91-65.72 24.04 21.86 44.96 38.16 61.17 58.26 2.75 3.4-12.73 25.46-23.39 34.74-13.84 12.05-82.99-13.11-78.68-27.29Zm87.98-67.48c-20.16-15.81-25.94-31.31-3.41-50.83 12.37-10.72 21.83-24.79 36.18-41.52 22.75 24.08 48.71 41.88 58.33 66.17 4.23 10.66-23.1 36.48-39.82 51.17-4.94 4.34-23.11-4.72-34.27-9.74-6.61-2.98-11-10.54-17.01-15.25Zm123.52 4.14c5.88-4.26 27.17 11.69 40.39 20.06 1.62 1.03-1.35 16.2-5.34 18.04-18.76 8.69-38.61 15.01-57.87 22.11-6.04-5.07-13.83-10.89-13.49-11.42 11.18-17.19 20.57-37.41 36.3-48.79Zm38.95-31.62c-17.04-12.43-.64-23.15 6.53-33.28 8.96-12.67 17.29-26.09 28.08-37.03 8.16-8.27 24.96-20.85 28.93-18.18 16.69 11.25 30 27.5 47.68 45.03-23.1 25.64-39.73 50.75-62.84 66.1-7.89 5.24-33.62-11.87-48.37-22.64Zm109.36-167.73c.49-17.73 22.62-34.87 35.45-52.26 15.88 12.84 31.75 25.68 52.75 42.67-17.63 19.4-32.1 35.33-46.57 51.26-14.89-13.92-42-28.17-41.63-41.67Zm70.2-304.48c4.68 14.2 9.35 28.41 14.46 43.93-4.85 4.16-10.99 10.54-11.78 9.93-9.9-7.56-27.06-16.82-26.42-24.29.89-10.45 15.18-19.77 23.74-29.57Zm-19.44-157.02c4 11.88 8 23.77 12.89 38.28-5.9 6.63-14.29 17.53-15.24 16.91-9.3-6.01-25.65-17.99-24.36-20.64 6.25-12.81 17.34-23.26 26.71-34.55Zm-7.59-76.66c-13.61 27.59-30.02 53.81-45.82 80.29-1.76 2.95-6.13 4.34-12.88 8.85-15.47-11.69-32.96-23.27-48.46-37.08-15.14-13.49-.07-23.89 6.63-34.42 8.3-13.04 17-25.84 25.99-38.41 7.59-10.62 17.68-30.38 23.44-29.28 15.93 3.05 31.47 13.31 44.48 24 5.8 4.77 9.77 19.67 6.62 26.06Zm-20.61-108.06c1.01 3.53 2.01 7.06 3.81 13.39-2.96 1.83-6.59 4.07-10.22 6.32-1.62-3.23-5.42-7.75-4.43-9.43 2.43-4.12 7.08-6.93 10.84-10.27Zm-34.85-23.92c-8.27 16.06-20.3 15.74-33.14 5.57-22.59-17.91-44.22-37.1-67.55-53.96-25.42-18.36-20.34-37.84-5.09-58.59 6.82-9.27 15.98-16.93 22.12-26.56 13.3-20.86 26.62-24.28 43.9-4.26 7.45 8.64 16.19 19.91 26.07 22.04 33.29 7.2 31.26 34.23 38.36 65.17-6.43 13.26-15.16 32.12-24.67 50.59Zm.48-209.65c3.12 14.97 4.44 30.32 7.08 49.79-.68.74-3.81 6.88-6.67 6.76-23.84-1.02-42.61-38.81-29.09-58.9 4.72-7.02 12.55-11.96 18.96-17.85 3.35 6.71 8.24 13.09 9.72 20.19Zm-40.27-233.05c3.51 3.97 4.56 10.65 5.46 16.31 4.28 26.74 8.12 53.56 12.72 84.39-.43 1.56-1.1 11.02-3.59 11.53-6.45 1.32-14.04-.36-20.54-2.64-5.29-1.86-9.59-6.44-14.46-9.62-56.77-37.13-57.97-40.58-26-100.16 4.74-8.84 15.52-22.13 21.2-21.06 9.48 1.77 17.79 12.87 25.21 21.27Zm-15.39-108.78c-14.49 7.51-33.6 25.03-43.12 20.83-23.8-10.49-46.45-28.23-62.94-48.47-7.12-8.74 1.45-30.94 4.53-46.71.55-2.81 11.29-7.17 13.69-5.52 26.69 18.29 52.9 37.31 78.59 56.99 3.87 2.97 4.38 10.32 9.25 22.88Zm-52.71-153.3c15.82 2.94 35.98 48.75 28.57 65-.8 1.75-2.69 4.87-2.81 4.81-10.05-5.02-21.82-8.45-29.42-16.05-8.47-8.48-16.15-20.21-18.24-31.6-1.11-6.07 10.19-14.56 16.24-21.65.88-1.03 3.72-.38 5.66-.51Zm-75.62-110c6.19-14.87 17.17-27.74 26.06-41.49 9.56 8.52 21.11 15.66 28.21 25.89 10.66 15.38 22.01 32.53 9.42 52.4-2.58 4.06-8.76 5.84-11.55 7.59-22.68-.99-57.73-30.98-52.14-44.39Zm-58.36-110.37c15.75 12.34 30.61 25.81 43.11 36.44-1.73 9.05-1.67 11.12-2.5 12.71-7.5 14.4-11.79 35.14-23.67 41.37-13.66 7.17-54.61-39.22-52.42-55.83.99-7.52 3.07-14.89 4.26-22.4 3.47-21.93 14.73-25.22 31.22-12.31ZM1564.81 912c-12.51-15.66-20.57-25.75-28.64-35.84 12.84-6.75 25.41-14.16 38.82-19.45 1.85-.73 12.31 10.79 11.19 13.81-4.86 13.04-12.54 25.04-21.38 41.47Zm75.92-177.31c2.56-3.14 21.74 7.15 33.12 11.6 1.25.49 1.58 3.31 3.4 7.5-6.76 5.01-13.62 11.03-21.33 15.61-11.4 6.78-23.25 12.86-35.26 18.48-2.61 1.22-6.74-.79-10.17-1.32 9.65-17.64 17.73-36.56 30.24-51.86Zm-409.42-127.1c42.55 8.52 82.69 15.81 122.47 24.69 54.95 12.27 109.7 25.47 164.38 38.86 15.03 3.68 30.4 7.78 44.06 14.74 13.97 7.11 39.82 10.68 29.66 33.99-11.81 27.1-29.99 4.9-43.02-1.96-82.67-43.5-171.79-59.02-263.67-64.82-27.01-1.7-53.87-6.78-80.61-11.44-6.56-1.14-12.33-6.74-18.47-10.29 6.35-6.46 11.67-15 19.34-18.81 8.27-4.1 18.74-3.77 25.86-4.97Zm-44.53 81.68c-6.55 5.74-13.11 11.48-19.66 17.23-2.09-2.75-6.45-7.26-5.9-7.97 5.21-6.7 11.25-12.76 17.05-19 2.16 2.48 4.33 4.95 8.51 9.74ZM851.53 482.55c5.28-16.58 12.56-32.61 19.97-48.4 45.7-97.45 91.67-194.78 137.64-292.1 6.27-13.27 12.93-26.36 20.1-39.18 28.46-50.86 36.58-53.59 92.95-30.19 32.69 13.57 57.62 13.47 83.13-15.07 18.17-20.32 38.48-13.69 38.96 13.32.89 50.14 31.45 70.58 70.19 89.57 36.77 18.02 43.15 33.46 26.31 70.08-19.43 42.24-46.46 80.95-66.32 123.01-51.32 108.67-99.62 218.77-151.22 327.31-12.15 25.56-6.67 39.07 15.52 51.98 45.05 26.22 89.61 53.28 134.32 80.09 4.94 2.96 9.52 6.49 14.27 9.76-7.07.23-15.4 3.03-21.03.29-50.6-24.65-101.29-49.22-150.82-75.91-42.9-23.12-47.8-33.56-29.3-79.47 26.07-64.71 56.37-127.71 84.65-191.52 23.58-53.19 46.97-106.47 70.19-159.82 5.43-12.46 10.03-25.3 14.69-38.09 34.38-94.37 26.86-105.01-70.26-142.52-13.85-5.35-27.52-11.13-41.35-16.53-45.58-17.81-81.38-6.22-102.99 38.39-29.54 61.01-55.52 123.74-83.34 185.59-14.32 31.83-29.89 63.09-43.82 95.08-4.12 9.45-7.58 19.19-10.87 28.89-5.3 15.63-5.36 32.6-.21 48.28 1.88 5.74 3.59 11.29 5.02 16.9a98.69 98.69 0 0 1 1.66 8c1.91 11.36-7.74 21.37-19.18 20.06-5.98-.68-11.69-1.86-16.66-4.47-17.13-8.99-29.04-51.84-22.19-73.34Zm203.45 88.02c-11.44-2.05-22.81-4.73-34.34-6.03-65.05-7.33-93.93-59.1-68.29-117.22 35.95-81.53 69.02-164.34 103.47-246.54 5.23-12.48 9.6-25.81 17.29-36.68 13.3-18.8 27.93-29.63 53.16-12.48 22.09 15.01 48.8 23.21 73.42 34.51q41.09 18.86 27.69 59.68c-4.84 14.74-8.85 29.85-14.97 44.05-36.04 83.63-73.33 166.71-108.47 250.71-9.95 23.78-23.99 33.77-48.96 30ZM454.29 671c9.24-8.89 22.23-16.23 34.8-18.87 49.14-10.29 98.55-19.54 148.16-27.2 61.16-9.45 122.62-16.94 183.95-25.28.05 1.27 95.19-2.29 142.73-2.71 24.88-.22 49.98 4.46 74.61 8.98 3.09.57 5.99 2.23 8.8 4.33 6.54 4.91 6.81 14.7.38 19.76-4.42 3.48-8.93 6.46-13.82 7.33-12.9 2.28-26.82-1.25-40.31-2.16-23.13-1.56-46.53-6.07-69.34-4-132.53 12-267.44 2.72-396.83 42.73-17.91 5.54-34.1 16.45-51.73 23.16-2.65 1.01-5.58 1.26-8.64 1.2-8.11-.16-14.74-6.76-15.18-14.86-.29-5.27-.06-10.01 2.43-12.41Zm232.9 35.8c-2.73-11.04 14.74-35.38 35.45-27.15 15.35 6.1 32.12 20.92 37.72 35.82 5.72 15.2-20.36 42.6-41.42 39.4-8.72-12.21-26.91-28.49-31.75-48.06Zm31.12 87.35c-8.18 9.92-10.82 16.32-15.15 17.81-16.49 5.67-55.49-25.22-51.95-42.12 1.54-7.36 16.41-19.03 17.26-18.38 17.07 13.11 32.98 27.73 49.84 42.69Zm-77.96-64.66c-11.39 9.16-19.37 15.59-27.35 22.01-3.12-5.9-10.22-13.61-8.53-17.32 3.49-7.67 11.02-14.23 18.4-18.86 1.71-1.07 9.45 7.48 17.49 14.17ZM581 702.06c-.96 4.5-5.77 12.13-7.65 11.74-5.97-1.24-11.3-5.56-16.87-8.69 4.24-3.09 8.47-6.18 14.38-10.48 3.65 2.56 10.5 5.77 10.14 7.43Zm-204.1-1.49c11.19-6.31 21.99-16.33 32.51 4.34 7.49 14.71 19.83 30.83 34.12 37.57 83.79 39.5 162.54 92.39 255.03 109.98 81.57 15.52 161.37 43.55 246.33 38.94 13.19-.71 26.9 3.61 39.98 7.07 5.58 1.47 10.88 4.02 16.17 6.64 3.64 1.8 3.7 6.96.11 8.84-.36.19-.7.37-1.04.54-3.07 1.6-6.49 2.41-9.95 2.35-185.78-3-352.03-35.96-505.6-118.6-37.33-20.09-71.44-46.31-106.36-70.67-9.98-6.96-17.61-17.81-1.3-27.01Zm64.69 159.1c-.73 2.45-5.18 3.79-7.92 5.65-2.88-2.17-6.94-3.71-8.38-6.58-7.62-15.14-15.09-30.4-21.35-46.13-1.32-3.33 2.62-8.76 4.14-13.22 13.59 9.67 29.39 17.51 39.7 29.91 4.19 5.04-3.16 20.13-6.19 30.37Zm33.7 77.72c-13.69-4.55-28.76-13.94-20.52-33.74 4.38-10.53 8.76-21.94 16.3-29.99 6.13-6.54 18.58-13.66 25.32-11.49 8.49 2.73 14.01 14.66 20.72 22.51-6.14 15.57-8.99 29.33-16.52 39.69-5.21 7.16-18.74 15.19-25.3 13.01Zm-20.54 478.88c14.31-9.08 29.57-16.67 43.5-24.17 3.28 1.72 6.08 2.43 6.15 3.36.27 3.34.93 7.93-.89 9.94-11.12 12.28-22.71 24.17-34.9 35.38-.68.63-9.44-5.22-11.92-9.51-2.44-4.22-3.87-13.78-1.95-15Zm-62.78 14.2c18.65 5.61 32.92 25.73 55.14 45.04-20.75 18.15-35.67 31.2-50.58 44.25-10.54-17.47-24.31-33.84-30.73-52.7-6.98-20.51 14.88-39.99 26.17-36.59Zm-94.31 115.56c4.96-16.72 20.93-30.18 32.3-45 11.48 14.11 22.96 28.23 38.73 47.62-20.17 13.37-35.41 23.46-50.64 33.56-7.4-12.24-23.13-26.95-20.39-36.18Zm-21.37 60.83 4.86 8.57c-1.71 2.88-3.41 5.75-5.12 8.62-1.46-2.8-4.15-5.64-4.06-8.4.09-2.97 2.77-5.86 4.32-8.79Zm28.22 45.24c11.38-.74 24.38 23.27 41.35 41.26-17.93 15.92-31.41 27.88-44.88 39.84-12.44-15.51-32.58-30.12-34.55-46.87-1.26-10.7 23.77-33.31 38.08-34.24Zm-67.17 113.96c4.75-10.09 11.55-19.21 17.58-28.7 3.86 6.27 7.73 12.54 13.66 22.15-8.97 6.78-17.15 12.97-25.33 19.16-2.14-4.28-7.17-9.93-5.91-12.61Zm31.85 39.71c4.92-2.63 10.43-4.16 20.39-8.03 11.87 16.28 23.99 32.97 36.18 49.6 11.44 15.61-.35 24.93-9.96 33.78-15.5 14.27-31.42 28.19-48.12 41.03-28.08 21.6-30.22 20.69-40.18-10.88-15.13-47.98-1.65-82.31 41.68-105.51Zm-32.89 198.02c9.96 11.93 24.33 25.16 33.26 41.38 5.22 9.48 4.96 24.88 1.23 35.53-3.52 10.03-15.45 16.84-22.56 25.94-9.18 11.74-16.08 7.28-22.14-2.22-9.34-14.65-18.73-29.34-26.83-44.68-9.85-18.66 11.13-54.77 37.04-55.95Zm-55.79 107.86c6.95 8.15 19.54 16.38 19.43 24.44-.14 10.17-10.64 20.19-19.66 35.27-6.41-9.5-11.27-13.48-10.7-16.4 2.86-14.59 7.15-28.91 10.94-43.32Zm-31.8 152.5c3.79-12.01 9.61-22.65 21.93-5.94 18.32 24.86 37.42 49.2 54.7 74.77 16.43 24.32-8.07 33.78-19.99 46.72-14.13 15.35-24.78 3.94-31.59-8.08-13.11-23.12-24.35-47.3-33.91-66.18 3.92-18.82 5.41-30.36 8.86-41.28Zm-28.53 149.28c4.29-9.08 10.48-17.25 15.88-25.81 6.77 12.73 14.33 25.14 19.63 38.45 1.05 2.65-5.86 9.69-10.35 13.04-7.34 5.47-15.7 9.56-23.63 14.23-1.48-7.49-2.96-14.99-3.86-19.56.87-8.93-.02-15.4 2.32-20.35Zm-21.44 176.28c7.92 6.79 16.79 12.76 23.55 20.56 13.6 15.69 26.04 32.37 40.64 50.75-10.87 11.53-18.33 23.83-29.2 29.02-4.87 2.33-19.94-7.64-24.41-15.45-9.34-16.28-17.15-34.36-20.71-52.65-1.89-9.72 6.43-21.42 10.13-32.22Zm-25.5 113c.35-1.99 3.93-3.41 7.3-6.13 3.59 7.84 10.29 15.4 9.05 21.3-2.19 10.42-9.21 19.82-14.21 29.64-2.67-1.66-7.77-3.55-7.64-4.96 1.25-13.35 3.16-26.65 5.51-39.85ZM56.93 2848.9c2.08-2.78 5.12-4.84 7.82-7.15l2.28 4.86c-1.92 2.72-3.86 5.43-5.79 8.13-1.53-2.02-4.72-5.29-4.31-5.85Zm28.47 41.47c1.69-.15 3.48-.73 5.07-.39 14.79 3.15 36.39 57.17 26.06 67.79-9.11 9.36-21.18 15.83-31.95 23.57-6.69-10.76-15.64-20.74-19.62-32.42-9.41-27.56 1.06-54.61 20.44-58.54Zm-6.77 200.03c-1.05-2.62 5.38-8.25 8.37-12.49l28.22 28.77c-8.6 7.09-14 11.55-19.41 16.01-5.92-10.68-12.65-21.04-17.18-32.29Zm42.7 136.53c-3.89-3.69-8.49-6.92-11.29-11.31-1.04-1.63 2.15-5.97 4.56-11.9 4.12 5.28 8.31 9.24 10.48 14.09.92 2.06-2.37 6.02-3.75 9.11Zm61.37 100.33c-1.54 1.72-7.95 2.1-9.25.57-14.85-17.39-34.11-33.19-28.08-60.02 1.14-5.07 5.68-10.3 10.13-13.2 1.56-1.02 9.48 3.84 11.16 7.53 7.96 17.47 14.77 35.47 20.47 49.54-2.2 8.54-2.18 13.08-4.43 15.58Zm34.77-44.61c-3.18-3.78-7.09-7.2-9.19-11.51-.85-1.74 2.26-5.41 4.41-10.03 3.46 4.63 7.32 8.14 8.81 12.47.79 2.29-2.56 6-4.03 9.06Zm-36.41-148.87c-16.5-18.64-4.59-31.63 9.24-43.89 17.4-15.43 27.4-3.48 37.35 10.06 13.73 18.68 27.94 37.01 43.27 57.25-7.64 9.8-13.08 21.03-22.05 26.71-5.58 3.54-19.27 1.74-24.47-3-15.73-14.31-29.18-31.13-43.34-47.13Zm78.44 233.26c-17.74 10.76-23.97-13.96-28.23-26.91-5.98-18.17 26.99-50.37 46.26-45.8 8.08 1.92 14.74 9.83 25.49 17.46-15.43 20.61-25.57 44.36-43.52 55.25Zm56.79 114.08c-2.81 2.33-13.41 1.1-14.38-1.13-10.49-23.97-26.68-48.42-26.87-72.86-.12-15.52 24.03-31.23 37.3-46.86 7.57 13.14 16.08 25.83 22.46 39.52 6.41 13.76 10.68 28.51 17.6 47.52-11.65 11.14-23.29 23.19-36.12 33.81Zm65.39 64.44c-12.72-7.56-26.73-14.94-35.41-26.18-2.88-3.74 8.68-18.61 13.64-28.4 6.62 4.03 15.41 6.6 19.36 12.44 6.34 9.36 9.47 20.89 14.71 33.27-4.38 3.27-10.61 9.88-12.3 8.87Zm35.77-44.32c-6.3-9.61-12.24-19.95-15.59-30.85-4.19-13.65 21.56-57.29 26.1-52.41 11.17 12 17.72 28.31 27.23 44.8-8.61 14.29-15.9 27.48-24.57 39.69-1.38 1.94-11.57 1.21-13.17-1.23Zm67.27 82.36c-.63 1.54-4.17 3.54-4.31 3.4-10.99-11.69-25.75-22.06-31.06-36.01-3.11-8.18 8.77-22.15 14.26-33.34.44-.9 3.59-.47 8.98-1.01 7.37 11.16 18.82 22.8 22.8 36.59 2.43 8.43-6.52 20.22-10.67 30.37Zm33.51 31.04c-2.65.78-6.19-1.44-9.34-2.36 1.86-2.68 3.21-6.42 5.77-7.68 1.85-.91 5.32 1.46 8.07 2.38-1.45 2.72-2.42 7.05-4.5 7.66Zm-1.11-91.6c-25.51-27.16-21.37-69.11 7.44-90.49 1.53-1.14 3.1-2.22 5-3.58 2.57 1.48 5.85 2.53 7.95 4.7 25.85 26.81 26.99 61.95 1.38 87.23-4.22 4.17-18.57 5.54-21.77 2.13Zm71.27 86.64c-.84 4.03-7.26 6.89-11.15 10.29-8.78-12.46-17.81-24.76-26.27-37.44-10.22-15.33-.21-24.72 10.6-33.64 9.14 11.64 19.57 22.58 26.57 35.39 3.64 6.66 1.96 17.15.25 25.4Zm-4.81-161.42c-9.09-20.59-18.23-41.15-27.11-61.83-.47-1.09 1.42-4.59 2.07-4.55 12.92.79 26.16.53 38.6 3.52 7.45 1.79 13.65 8.76 18.96 12.41-1.69 6.8-1.65 9.06-2.71 10.51-9.83 13.39-19.84 26.65-29.81 39.94Zm45.26 201.07c-5.01-.89-9.71-3.51-14.53-5.46 2.96-3.6 6.13-10.28 8.84-10.1 4.34.3 8.37 5.14 12.71 8.19-3.02 3.31-5.43 7.65-7.02 7.37Zm-8.36-107.2c-20.22-31.12-12-75.74 17.84-98.29 2.98-2.26 12.31-1.91 13.52.2 9.48 16.52 17.69 33.77 27.93 54.02-14.46 18.49-28.22 36.6-43.09 53.75-.81.93-12.98-4.72-16.21-9.68Zm84.5 55.42c-15.24-13.32-25.99-20.03-32.07-29.69-1.76-2.8 9.91-14.03 15.42-21.4 6.87 8.59 14.83 16.57 20.07 26.06 2.22 4.01-1.27 11.18-3.43 25.03Zm28.01 76.52c-2.32 1.01-6.63-2.56-10.04-4.07 3.27-4.27 6.54-8.54 9.77-12.77 4.31 2.98 7.32 5.06 10.33 7.13-3.29 3.39-6.06 7.97-10.06 9.7Zm11.25-99.74c-3.4-5.36-6.61-9.66-9.05-14.36-23.28-44.96-15.74-86.47 23.35-123.85 2.38-2.27 13.39-.67 14.99 2.16 27.63 49.05 22.86 87.12-14.85 124.78-3.97 3.97-8.89 6.98-14.44 11.26Zm68.53 109.86c-7.95-2.75-15.63-6.56-22.75-11.05-.98-.62 1.73-7.08 3.77-14.75 11.19 8.03 18.94 13.58 26.69 19.14-2.62 2.36-6.1 7.22-7.71 6.66Zm2.4-61.07c-14.88-5.69-28.48-14.75-42.53-22.61 11.53-14.69 23.06-29.38 34.59-44.08 8.42 15.33 16.84 30.66 26.84 48.88-7.94 7.73-15.8 19-18.91 17.81Zm45.27-32.59c-9.25-25.08-16.34-50.97-26.35-83 13.02-19.07 27.55-40.81 42.86-61.98 1.33-1.84 9.82-1.62 11.69.53 29.49 33.72 27.78 114.67-2.4 148.7-11.25 12.69-20.9 9.06-25.81-4.24Zm77.58 107.45c-8.71.46-17.95 2.88-25.94.7-5.29-1.44-8.79-9.45-13.09-14.52 7.37-.95 14.95-3.4 22.05-2.39 6.45.92 12.37 5.59 18.53 8.61-.51 2.54-1.02 5.08-1.53 7.61Zm-1.16-214.34c-3.6-10.8-8.44-21.75-9.02-32.84-.61-11.71-.82-27.43 5.97-34.53 8.45-8.83 31.93 11.85 30.88 31.11-.87 15.88-8.6 31.39-15.85 55.65-7.52-11.98-10.65-15.39-11.99-19.39Zm20.58 116.52c-3.17-9.02-8.42-20.07-5.74-27.8 5.95-17.21 16.29-32.91 24.84-49.22 4.55 13.96 9.26 27.87 13.53 41.92 1.1 3.61.79 7.64 1.64 17.2 0 1.97 2.26 10.62-.5 17.15-4.95 11.71-12.91 22.14-19.62 33.1-4.79-10.76-10.27-21.27-14.16-32.35Zm33.13 108.91c-5.04-2.09-7.92-9.42-11.74-14.45 5.05-1.23 10.55-4.32 15.02-3.21 6.07 1.51 11.34 6.23 25.65 14.76-16.49 2-23.77 5.03-28.92 2.9Zm27.56-171.29c-3.16-22.92-7.4-45.77-9.11-68.8-2.11-28.34 16.52-47.84 44.32-48.93 25.85-1.01 39.77 11.82 29.83 34.93-13.52 31.44-33.59 60.29-52.71 89.01-8.23 12.35-11.2 1.98-12.33-6.21Zm21.95 93.18c-5.16-1.77-4.71-20.27-6.49-31.16-.26-1.59 1.12-3.71 2.24-5.21 18.13-24.18 36.35-48.29 54.55-72.42 6.42 29.15 12.83 58.29 19.83 90.1-4.97 8.72-9.52 24.9-15.3 25.35-18.19 1.42-37.64-.75-54.84-6.66Zm65.85 88.84c-2.12 1.08-6.49-2.26-9.83-3.59 6.21-6.74 12.42-13.47 18.64-20.21 1.62 2.94 3.23 5.89 6.75 12.29-4.81 3.72-9.72 8.54-15.56 11.51Zm27.12-187.57c-2.88-22.86-3.78-45.97-6.19-77.58 1.91-4.42 4.54-19.14 13.19-27.93 8.01-8.13 22.84-14.13 33.95-13.12 8.2.74 19.17 13.02 22.11 22.31 11.85 37.33 3.72 72.42-18.56 104.15-10.8 15.37-22.59 30.05-33.93 45.04-3.61-17.61-8.33-35.07-10.57-52.85Zm38.38 192.24c-7.54-13.08-12.98-18.54-13.71-24.56-1.98-16.32 20.46-29.05 43.33-24.42 3.36.68 8.52 9.68 7.88 10.39-10.5 11.75-21.8 22.78-37.5 38.59Zm37.58-115.22c-6.73 9.39-18.62 15.52-29.17 21.52-4.23 2.41-10.77.76-16.26.96 3.11-10.14 5.13-20.8 9.63-30.28 4.97-10.45 11.61-20.29 18.7-29.48 4.18-5.42 10.64-9.08 16.07-13.53 1.82 7.34 3.64 14.67 4.19 16.87-1.03 15.16 1.65 27.23-3.16 33.94Zm61.45 89.38c-2.3 1.04-10.6-11.26-16.14-17.4 11.1-8.71 21.85-17.97 33.73-25.44 1.51-.95 8.91 7.45 20.46 17.51-16.14 11.32-26.32 20.05-38.05 25.33Zm22.75-150.65c-14.23 21.17-30.15 41.21-45.31 61.76-3.63-24.57-7.25-49.14-10.88-73.71-4.67-43.57 10.68-80.88 34.6-115.07 4.27-6.11 16-8.1 24.67-9.38 2.76-.41 9.66 7.56 9.77 11.82 1.05 42.04 13.32 85.64-12.85 124.58Zm-30.93-227.52c-3.76-5.15-4.43-13.76-3.81-20.51.49-5.28 4.49-10.77 8.15-15.15 18.42-22.06 37.23-43.78 55.9-65.62 26.46 18.67 53 37.22 79.25 56.17 2.86 2.06 4.08 6.38 6.22 9.91-3.16 4.72-5.82 9.96-9.64 14.13-9.12 9.99-18.58 19.7-28.27 29.15-36.65 35.7-77.96 32.86-107.81-8.07Zm124.11 361.96c-3.45 3.86-14.02 1.34-21.36 1.73.58-4.82.12-10.1 1.96-14.39 4.53-10.59 9.51-21.1 15.56-30.87 2.71-4.38 8.42-6.9 12.77-10.26 2.66 6.14 5.32 12.29 9.66 22.33-5.76 10.28-10.47 22.39-18.59 31.46Zm16.31-132.18c-5.61 14.58-21.9 26.22-35.55 36.18-11.89 8.67-23.17 3.18-23.42-12.24-.28-17.18-1.22-35.92 4.86-51.33 16.93-42.91 37.25-84.48 56.64-126.4 1.23-2.65 6-5.24 8.95-5.05 2.63.17 7.08 4.15 7.17 6.57.62 17.27.33 34.58.33 51.88 2.65.55 5.29 1.09 7.94 1.63-8.6 33.06-14.73 67.08-26.91 98.76Zm37.74 76.89c-6.23-13.01 17.31-53.69 31.74-54.92 1.73-.15 3.74 3 6.9 5.71-10.37 17.45-20.86 35.15-31.69 52.63-.17.27-6.03-1.5-6.95-3.42Zm52.36 11.72c-2.03 6.68-6.41 12.65-10.84 20.72-3.25-6.24-6.87-10.17-6.01-12.09 3.05-6.81 7.62-12.94 11.62-19.33 1.9 3.61 6.07 7.92 5.23 10.7Zm-15.9-105.43c-6.7 2.8-13.99 4.21-21.01 6.26-.21-7.28-2.71-15.46-.26-21.69 17.79-45.1 36.07-90.03 55.44-134.47 4.45-10.21 12.55-19.8 21.28-26.79 4.99-3.99 15.72-4.73 21.88-2.16 5.36 2.23 7.92 11.16 12.42 18.22-21.71 59.33-17.85 130.56-89.76 160.64Zm89.38 96.14c.03-1.62-.1-3.32.63-4.51 8.78-14.31 17.79-28.48 26.73-42.69 1.1 1.4 3.27 2.91 3.14 4.17-2.16 20.04-10.27 35.94-30.49 43.03Zm-3.34-46.15c-2.65 4.78-7.82 8.15-11.81 12.18-.46-4.66-2.29-9.67-1.18-13.91 20.8-79.66 30.87-163.05 80.04-233 3.27-4.66 3.93-11.71 7.94-15.15 5.23-4.49 13.2-9.68 18.87-8.61 5.24.99 8.99 9.84 13.17 14.94-8.34 32.33-11.72 64.03-24.57 91.28-24.59 52.13-54.44 101.79-82.47 152.27Zm109.86-13.02c-4.02 3.41-9.49 5.13-14.29 7.63.91-4.66.33-10.53 2.97-13.8 25.82-32.05 52.16-63.68 78.36-95.42-8.73 42.72-34.81 74.22-67.04 101.59Zm86.88-188.31c-25.03 43.3-54.65 83.96-82.73 125.46-2.79 4.12-8.51 6.25-12.87 9.3-.68-5.51-2.75-11.27-1.84-16.51 13.78-79.59 55.69-147.11 93.63-216.29 2.66-4.85 7.34-9.61 12.26-11.95 7.9-3.77 16.77-5.49 25.24-8.08 1.78 7.15 3.55 14.31 6.37 25.64-12.51 29.51-22.98 62.87-40.06 92.42Zm148.09-170.02c-26.28 44.46-52.64 88.88-79.25 133.14-1.84 3.07-5.8 4.87-8.78 7.26-1.05-3.12-3.92-7.14-2.89-9.22 24.47-49.2 38.76-104.4 82.76-142.12 2.66-2.28 7.37-2.17 13.61-3.84-2.81 7.75-3.58 11.59-5.46 14.78Zm27.26-108.98c-2.45 5.08-9.73 7.82-14.81 11.63-2.2-5.21-7.52-11.57-6.09-15.43 7.5-20.19 16.6-39.8 25.6-59.4.57-1.24 7.28-1.17 7.35-.88 1.21 5.52 1.85 11.16 3.68 24.74-3.45 8.91-8.62 24.6-15.72 39.34Z" fill="#ed8d48" data-color="1"/>
    </g>
</svg>
