<?xml version="1.0" encoding="UTF-8"?>
<svg data-bbox="0.001 0.001 1406.627 1380.777" viewBox="0 0 1406.63 1380.77" xmlns="http://www.w3.org/2000/svg" data-type="color">
    <g>
        <path d="M1282.9 871.33c2.58-5.66 5.82-11.28 5.41-17.86-6.23-3.75-10.88.36-16.73 1.53-2.06 7.61-4.07 15.02-6.09 22.47 12.56 2.47 13.57 2.29 17.41-6.14Zm46.06-14.95c-.87 5.19-1.74 10.4-2.73 16.32 11.14 2.22 22.76 1.48 26.08-11.09 4.67-15.29 10.96-26.83 13.13-43.46-28.96 15.65-22.71 11.22-36.68 38.5 1.07-6.54 2.13-13.08 3.37-20.64-23.46 7.02-43.72 13.15-44.92 39.91 9.7 2.72 19.12.6 29.2.02 3.68-6.73 7.75-13.12 12.34-19.28.08-.11.14-.19.21-.28Zm-73.53 44.33c.58 9.17 12 11.65 15.45 2.48.49-1.06 1.83-1.76 2.86-2.59 0 .04-.01.07-.01.12.05-.12.11-.22.23-.29l.97 8.66c8.62 3.98 17.02 3.86 25.52 2.7 4.58-7.93 8.85-15.58 13.3-23.15-1.97 8.17-3.96 16.36-6.18 25.55h22.54c6.87-11.4 14.07-22.79 15.01-35.94-12.12 2.88-23.5.27-31.37 10.39.01-.03.01-.06.02-.09-.06.1-.11.2-.18.29-1.36-1.78-2.61-5.03-4.08-5.12-9.31-.57-18.79-1.96-27.55 1.31-2.95 5.52-5.47 10.63-8.21 15.58.41-5.08.83-10.18 1.25-15.24-16.29-2.78-13.07 5.54-19.57 15.35Zm-33.68 29.53c2.39 8.9 8.99 8.86 17.6 7.53 2.87-7.52 5.76-15.11 9.08-23.8-5.63-1.63-10.2-2.95-15.37-4.43-3.57 8.21-6.55 13.82-11.31 20.69Zm33.67-29.51c-.07.05-.12.12-.18.17.48-5.15.94-10.31 1.49-16.38h-14.79c-4.75 6.31-5.85 12.75-5.5 19.49 7.77 4.56 13.55 2.03 18.8-3.11 0 .04-.01.07-.01.12.07-.09.13-.19.2-.28Zm-33.69 29.53c-.05.06-.11.12-.15.17 1.76-6.95 3.52-13.88 5.58-21.94-10.36-2.33-19.99-4.48-30.02-6.74-4.56 9.09-8.61 17.17-8.05 27.17 11.42 2.19 23.05 11.43 32.49 1.51l-.03.1c.07-.09.13-.18.18-.27Zm-.87 13.12c-9.03 5.91-12.29 18.01-14.41 29.01 4.83 1.63 9.33 3.14 13.3 4.47 3.28-3.32 5.66-5.72 8.02-8.09l-.03.09c.05-.12.15-.22.24-.3-.21 3.35-.41 6.7-.66 10.66 17.56 6.51 17.49-8.32 25.05-19.47-1.72 7.51-3.43 15.03-5.42 23.75 5.3 1.27 10 2.4 14.91 3.6 7.98-10.47 15.69-19.83 19.46-32.74-9.73-.93-19.91-7.45-26.34 1.53-.08-9.13-6.8-9.22-13.46-9.96-4.81 7.96-9.23 15.42-13.74 22.84 2.77-8.74 4.85-15.21 5.74-24.94-5.01-.29-9.27-1.56-12.65-.44Zm-20.46 25.15c6.17-7.43 8.44-16.53 12.3-24.71-7.35-6.51-10.09-7.46-26.78-9.3-4.22 7.83-10.13 15.23-10.07 25.6 7.67 3.84 14.8 8.32 24.55 8.42Zm-42.89-11.7c-.11-.07-.22-.14-.3-.23h12.8c3.74-8.19 7.32-16 10.92-23.86-6.08-4.92-11.7-7.51-19.66-7.71-3.39 10.1-16.62 23.6-3.8 31.81-3.45.27-6.87.56-10.06.81-4.13 5.4-6.05 10.74-4.56 18.3 4.13 1.89 8.94 4.08 14.88 6.8 3.34-6.7 6.11-12.24 8.84-17.67-3.55-3.19-6.33-5.73-9.1-8.24h.04Zm-147.08 41.57c.07-.06.12-.13.18-.19l-4.21 19.41c4.73 2.45 9.47 4.89 14.73 7.6 7.13-7.2 11.06-14.85 13.74-23.43-4.23-4.37-8.17-8.44-12.09-12.5.02 0 .05.01.08.01-.07-.06-.13-.14-.18-.2 4.99 1.63 9.98 3.25 15.53 5.07 3.57-8.82 7.65-16.5 8.28-24.7-10.44-12.36-22.15-13.01-25.83 3.94-2.07 7.16-3.4 10.02 2.02 15.7-.03-.01-.08-.02-.11-.03.08.07.14.15.22.22-7.09-.88-8.61 5.3-12.16 8.92.01-.03.01-.07.02-.1-.07.09-.14.2-.21.29Zm-.01.01V985.3c-14.19-7.7-11.52-10.23-25.5-1.24-6.42 1.53-14.23 2.86-18.03 8.79 2.16 7.39 11.35 3.06 15.19 9.72 2.99 5.18 10.42 8.84 18.37 9.89 3.4-4.8 6.7-9.43 9.97-14.05Zm-379.49-263c13.28-9.33 30.74-12.66 45.82-18.97 57.84-15.89 112.26-41.02 167.82-63.13 91.13-36.17 181.51-81.56 278.38-100.49 38.56 1.9 75.08 35.9 101.38 60.88 34.8 27.55 65.84 59.44 82.47 100.52 6.95 14.09 10.8 28.61 21.25 41 25.65-52.18-29.9-96.82-59.77-134.85-132.97-160.04-237.27-114.47-404.42-36.12-79.63 28.57-154.12 68.67-233.41 97.95-140.14 60.03-281.55 119.35-412.14 197.28-15.73 11.71-30.81 24.22-46.29 36.26-3.36 2.61-4.87 5.92-6.47 9.64-6.49 17.04-14.97 45.86-10.29 62.6 9.65-9.4 14.62-21.19 27.36-25.97-7.99 13.85-21.55 24.56-26.62 39.8 48.22-47.72 101.34-83.67 156.61-123.95-20.65.81-30.45 17.76-49.09 22.93.09-.07.17-.16.26-.23-.01 0-.02.01-.03.01 32.83-29.81 79.29-42.7 118.71-63.16 35.08-17.65 71.4-32.54 108.26-46.26-31.01 23.2-72.83 27.66-104.28 51.15 28.66 48.89 59.79 94.98 89.13 143.29 27.25 42.77 47.35 90.09 79.67 129.81 36.45-8.25 136.42-41.59 150.5-51.14-44.17-93.63-109.89-175.83-153.09-269.59-3.43-8.01-6.18-16.7-14.13-22.32-10.78 4.11-21.13 8.07-31.48 12.02 21.13-17.86 51.3-25.04 78.07-31.44-.08.06-.16.13-.24.19.03-.01.07-.01.1-.02-10.71 8.64-24.26 10.49-36.34 16.98 1.37 4.81 2.24 8.55 8.27 9.41 72.34-41.07 156.48-59.98 231.94-95.38-2.52-.5-3.63-1.1-4.35-.82-18.32 7.3-36.59 14.72-54.88 22.06-32.58 10.72-65.83 20.21-98.72 30.11.01-.01.02-.02.03-.04Zm760.95 90.74c25.5 32.12 15.66 78.85-12.16 106.79-50.06 40.93-63.01 116.18-125.69 142.88-89.11 34.97-64 73.24-177.6 82.84-64.62 8.59-104.15 66.41-161.54 91.62-115.77 55.73-239.01 95.79-363.44 128.89C410.28 1395.6 6.18 1284.49.04 1120.45c-1.08-29.56 20.45-52.64 35.55-76.59 76.45-98.56 168.87-189.19 288.76-236.58 9.69-3.13 17.11-8.32 23.41-15.7 71.43-81.41 154.81-152.13 231.5-228.94 95.45-93.55 202.15-176.17 293.32-273.65 9.23-8.65 9.81-19.94 9.08-31.4-.86-75.66 106.87-151.71 158.68-201.33 73.91-68.2 71.37-73.24 162.41-21.38 18.7 9.62 27.08 36.68 13.66 53.58-61.94 80.61-143.02 145.51-222.68 209.37-5.19 4.09-10.76 7.76-17.76 7.82-26.93.23-46.81 14.72-66.09 30.31C776.9 467.58 633.8 587.4 502.86 721.03c153.94-58.47 303.26-126.88 454.92-190.59 78.03-37.45 177.48-52.16 245.74 11.28 60.34 50.91 114.63 108.27 151.98 177.36 16.74 44.31-4.89 55.09 36.39 107.07Zm-3.59 71.03c3.84-11.2 6.59-22.58 3.94-36.42-3 2.32-4.76 2.98-5.17 4.1-4.74 13.23-9.28 26.53-14.28 41.02 7.99-.37 13.31-2.29 15.51-8.7Zm-14.55-33.41c9.61-3.13 15.32-16.92 10.52-25.53-3.06-5.47-7.12-10.42-12.39-17.98-2.63 11.8-18.94 40.03-12.78 46.35 4.73-.88 9.89-1.3 14.65-2.84Zm-9.65 44.68c7.95-12.37 13.76-25.68 16.37-42.1-10.7 3.94-19.55 7.2-27.57 10.15-5.49 12.83-10.48 24.51-16.18 37.82 11.35-.05 20.48 2.18 27.39-5.87Zm-5.37 29.4c7.85-8.47 14.83-15.99 21.82-23.52-15.05 2.26-20.19 8.4-21.82 23.52Zm6.29-129.12c-4.43-7.2-8.25-22.92-14.51-26.92-1.98 13.29-3.92 26.33-6.03 40.54 8.93-3.07 15.64-6.64 20.53-13.62Zm-21.51-32c4.27-3.48 6.43-7.42 5.74-12.81-2.08-12.04-.89-22.82-6.6-34.4-17.91 95.45-247.41 168.21-332.14 215.85-153.58 75.1-312.78 134.35-475.94 187.44 35.86-3.58 70.21-16.41 105.55-23.81 37.24-7.23 71.69-21.77 107.02-34.49 208.12-77.2 411.89-177.07 596.37-297.78Zm14.26 145.79c-8.67-2.77-16.04-1.9-24.72-.1-4.37 9.14-8.36 17.48-12.45 26.04q12.14 2.46 23.41 0c4.39-8.27 8.95-16.85 13.77-25.93Zm-19.58-101.03c3.71-10.62 7.22-21.22 5.34-35.18-34.41 25.69-32.02 13.11-43.22 54.07 12.54-6.02 32.75-7.37 37.88-18.89Zm-19.44 166.55c6.03-10.68 16.29-18.9 18.73-31.28-7.78-3.14-14.48-2.16-21.55.98-5.33 10.57-10.75 21.31-17.24 34.21 8.17-1.58 13.88-2.7 20.06-3.9Zm-5.29-38.4c4.87-9.27 10.83-17.14 12.7-27.83-9.94-1.1-19.2-3.01-27.85 2.58.01-.05.02-.1.03-.16-.08.09-.14.21-.24.28-.83-1.71-1.28-4.6-2.52-4.95-9.1-2.62-18.33-5.99-27.8-1.19 0-.06-.01-.13-.01-.19-.05.06-.11.14-.17.2-3.7-3.56-7.6-6.53-14.27-3.85-2.98 8.03-6.18 16.6-9.4 25.27 10.7 2.76 10.81 2.79 17.53-3.68v.14c.08-.06.15-.14.23-.22 2.02 9.77 2.38 10.39 10.27 11.24 4.37.47 8.84.08 13.89.08 3.57-8.45 6.78-15.98 12.46-22.97-1.98 8.8-3.95 16.24-6.68 25.25h21.83Zm8.66-183.86c-21.97-47.59-40.35-98.27-83.9-132.01-34.04-23.28-59.75-65.88-103.33-71.55-5.35 15.65-.29 33.71 1.17 49.96.94 6.04 4.45 10.35 9.02 14.77 8.2 7.93 16.21 16.48 22.27 25.96 30.04 53.88 58.98 106.29 93.38 158.27 22.17-12.68 43.78-26 61.38-45.4Zm-12.96 191.62c-8.78.5-19.33-4.64-24.78 3.24-5.07 8.77-10.83 17.22-15.15 27.8 8.07.88 14.95 1.64 22.4 2.45 6.83-10.7 13.81-20.63 17.52-33.49Zm2.78 39.28c-19.67-2.78-21.64 10.27-29.38 23.88 16.02 11.74 24.03-12.9 29.38-23.88Zm-16.1-160.51c2.33-5.82 5.21-11.61 4.92-20.09-15.63 5.68-23.51 14.92-23.99 29.88 13.86.77 15.05.27 19.08-9.79Zm-22.46 205.8c6.69-2.81 10.89-6.72 16.1-11.18-4.72-2.47-9.73-5.12-12.79-.49-1.99 3.01-6.78 6.02-3.31 11.67Zm14.29-44.83c-11.53-2.55-21.78-4.77-29.84 5.28.35-2.84.71-5.68 1.11-8.86-5.29-2.93-10.23-4.86-17.24-3.15-3.32 6.2-7.6 12.63-9.41 20.06 7.4 5.23 14.26 6.06 21.12.38.69 2.26.74 5.91 2.18 6.51 4.59 1.93 9.64 2.99 14.62 3.87 10.84 1.12 12.41-16.47 17.47-24.09Zm-17.05 28.32c-8.46.18-14.73-3.9-20.82-2.55-4.75 5.07-8.67 9.25-12.58 13.39-.08.05-.15.13-.23.19 1.56-5.23 3.1-10.45 4.82-16.26-5.63-1.28-10.31-2.34-14.53-3.3-4.34 4.99-7.87 9.39-11.67 13.59 1.57-5.02 3.13-10.03 4.96-15.88-3.38-1.45-6.86-2.95-10.92-4.7-6.31 10-14.74 17.94-16.41 29.4 10.21 7.67 15-3.68 22.37-8.83-.01.04-.02.08-.03.13.08-.09.15-.2.25-.27-1.83 4.93-3.64 9.85-5.75 15.55l10.31 5.39c5.97-5.33 11.3-10.08 16.61-14.84 0 .03-.01.05-.02.08.09-.09.17-.18.25-.27 1.1 7.18-8.17 9.75-7.97 16.53 8.48 4.81 15.24 6.45 19.52 3.23 10.01-7.53 16.69-17.46 21.85-30.6Zm-17.76-176.78c15.61 1.32 16.72.51 19.88-15.97-8.78 6.09-17.56 6.34-19.88 15.97Zm7.35 30.09c2.23-7.84 4.31-15.2 6.45-22.72-22.65-3.92-19.08 6.86-22.73 22.72h16.28Zm-9.59-61.15c-.65-8.42-4.89-13.9-8.6-19.75-11.4-18.01-22.65-36.11-33.64-54.36-21.3-34.87-37.65-73.56-62.96-105.62-8.41-10.37-15.77-10.57-27.49-3.27-24.25 16.23-51.39 26.99-77.91 39.25 39.26 64.17 69.1 134.23 109.39 197.17 36.05-14.26 68.89-33.56 101.2-53.41Zm-12.86 61.17c2.32-8.16 5.52-14.19 4.19-21.08-14.9-.99-27.7 4.65-36.09 16.07 10.43 1.64 20.33 3.2 31.9 5.02Zm-12.46 130.02c5.01-6.75 9.11-13.19 10.97-21.69-4.48-1.22-8.17-2.22-12.94-3.53-3.67 6.92-7.03 13.25-11.08 20.9 6.09 2.84 7.54 3.62 13.05 4.31Zm4.32-105.89c2.1-5.81 4.2-11.63 6.54-18.1-11.93-5.66-22.59-4.53-33.18-5.74-3.25 5.73-3.99 11.27-4.29 17.32 9.89 4.22 19.44 6.74 30.93 6.53Zm-19.73 175.63c11.59-4.11 20.04-8.02 27.97-14.74-7.23-4.26-13.43-4.73-19.95-2.2-.35-8.04-6.34-8.64-12.94-9.41-5.89 6.64-10.89 13.56-15.53 21.76 4.94 1.44 7.95 4.04 12.29 1.91 5.23-4.27 10.15-9.13 15.36-13.48-2.08 4.66-4.15 9.32-7.2 16.17Zm-3.35-76.3c4.48-6.76 8.48-12.75 10.71-19.72-11.63-7.89-15.01-4.55-22.99 3.75.01-.01.01-.03.01-.04-.07.1-.15.19-.24.28.72-3.71 1.42-7.43 2.23-11.61-7.52-4.51-15.32-7.5-24.95-8.93-2.72 5.71-5.38 11.29-8.41 17.66 7.97 4.38 14.31 9.17 25.07 10.84 1.55-2 3.92-5.19 6.29-8.21-.59 4.2-1.31 7.37-.66 11.84 4.31 1.37 8.47 2.71 12.94 4.13Zm-53.04-858.91c22.48-24.31 90.54-77.96 35.64-100.88-15.37-5.57-29.11-13.86-42.51-22.98-20.87-14.2-33.18-11.62-49.46 1.98-69.91 72.24-211.97 148.7-202.29 258.66.1 7.09-3.02 12.14-8.75 16.23-45.9 40.78-87.13 86.76-135.74 125.02C619.93 544 485.35 661.86 364.74 793.63c18.67-8.19 31.89-15.22 49.12-24.3 68.29-28.4 106.4-95.39 162.87-139.72 58.1-50.23 108.5-108.16 167.26-157.47 53.15-42.81 104.48-89.99 149.34-140.02l-19.42 14.83c15.79-22.23 42.86-51.89 72.39-53.33 48.56 15.74 166.15-117.6 207.2-150.28Zm38.02 751.4c3.99-5.72 7.1-10.38 3.13-17.45-6.29 3.39-11.88 6.41-20.79 11.24 8.48 2.98 13.02 4.58 17.66 6.21Zm11.77 114.05c-6.84-4.81-12.39-9.01-19.46-2.6-.55-2.3-.32-5.67-1.81-6.72-6.36-4.44-12.7-9.46-21.38-9.05-3.39 5.29-6.55 10.19-9.69 15.09 1.28-5.7 2.58-11.41 4.02-17.84-7.24-4.09-15.28-10.65-22.43-2.69 1.64-8.29-4.97-10.87-9.34-16.71 3.8.82 7.59 1.64 12.21 2.62 2.5-5.82 4.75-11.05 7.23-16.81-7.23-4.12-12.3-6.44-19.7-8.54q-6.08 12.06-3.39 20.96c-3.11.14-6.43.31-7.72 3.58-3.22 8.11-7.96 15.74-9.35 24.36 4.38 5.45 10.23 7.02 16.06 9.31 3.36-3.31 6.47-6.36 9.57-9.42-1.02 4.2-2.04 8.4-3.2 13.12 6.78 3.96 12.5 10.27 21.69 6.02 2.57 10.7 12.14 10.98 20.07 13.57 4.85-5.96 9.15-11.23 13.44-16.51-2.75 7.5-5.27 15.09-7.29 22.82-.1-.01-.21-.02-.3-.04.07.07.13.15.21.22-10.34 5.73-12.41 16.74-19.3 26.29 5.1 2.15 8.98 3.79 13.6 5.73 5.56-7.8 12.03-13.89 14.74-22.12-3.36-3.67-6.21-6.79-9.03-9.9.02-.01.03-.02.05-.03.01-.05.02-.09.04-.15 4.71.74 9.43 1.49 14.79 2.34l15.66-26.91Zm-3.75 41.28c-10.16-5.7-10.73-5.79-14.92.03-3.95 5.48-7.46 11.24-11.14 16.84 8.1 5.11 9.12 5.26 13 .5 4.34-5.33 8.28-10.97 13.06-17.38Zm-16.83-125.02c2.75-7.7 8.15-14.5 7.22-24.07-5.36-1.96-10.41-3.8-15.54-5.68-2.92 4.2-5.33 7.73-7.81 11.27-.48-3.65-.95-7.31-1.61-12.45-10.91 4.45-20.32 8.25-30.31 14.3 8.69 4.25 15.59 8.04 23.17 8.73 3.31-4 6.04-7.29 8.76-10.59v.02c.06-.1.15-.19.22-.28-.46 4.27-.91 8.53-1.44 13.48 5.58 1.92 10.25 6 17.35 5.26Zm12.55 158.04c-4.13-3-8.21-6.09-12.32-2.17-6.29 5.99-11.7 12.78-15.79 21.99 3.46.29 5.91 1.26 7.04.47 8.04-5.64 16.07-11.39 21.08-20.29Zm-31.63 13.78c3.5-6.72 20.49-20.7 4.45-23.4-4.87 8.17-13.28 13.52-16.09 22.71 7.28 3.99 8.85 4.29 11.64.69Zm-9.12 23.54c8.03-.24 10.4-4.9 11.4-12.18-9.16.5-8.52 7.88-11.4 12.18Zm-6.1-64.54c6.16-6.8 11.08-13.9 14.45-22.51-5.79-4.6-10.9-9.05-19.47-8.04-3.95 7.44-9.48 14.24-11.48 23.44 5.49 3.12 10.01 6.86 16.5 7.1Zm-4.35 38.17c6.88-7.95 14.21-14.41 18.14-24.48-4.27-1.56-7.84-2.88-11.06-4.05-4.48 3.52-8.24 6.49-12 9.43.02-.04.04-.08.05-.13l-.21.18c1.61-3.95 3.22-7.89 5.19-12.72-5.5-3.39-10.14-7.7-16.76-7.52-5.11 4.64-5.06 12.65-12.69 14.2.02-.08.04-.17.07-.25-.07.05-.13.09-.2.15 2.19-5.78 4.38-11.59 6.97-18.43-5.07-2.83-9.67-5.41-14.56-8.15-8.17 7.22-10.95 15.75-13.46 24.47 4.56 4.55 9.51 6.32 14.77 6.78 2.41-1.79 4.36-3.24 6.29-4.67-.02.05-.03.09-.05.15.07-.01.13-.02.18-.04-2.37 9.62-1.33 11.47 13.25 15.52 3.74-3.21 7.38-6.35 11.02-9.48-.01.03-.03.07-.04.1.07-.05.13-.1.2-.16-1.67 4.33-3.36 8.68-5.38 13.92 3.35 1.68 6.65 3.34 10.3 5.18Zm.42-145.22c6.22-9.17 8.4-17.51 11.29-26.56-8.54-2.19-14.82-8.31-24.29-5.88-3.97 7.72-8.62 15.26-6.18 25.23 6.16 2.31 12.16 4.58 19.17 7.21Zm1.81 169.51c-.11-7.17 7.3-7.44 7.86-13.66-3.1-.84-6.24-1.7-9.83-2.68-4.58 6.39-8.76 12.22-13.7 19.12 4.19 1.33 7.13 3.27 9.41 2.71 2.52-.62 6.16-3.46 6.26-5.49Zm-7.18-18.93c-3.56-2-6.44-3.64-10.69-6.04-5.21 7.19-9.41 12.99-14.13 19.51 3.97 2.18 6.88 3.78 9.83 5.39 7.6-4.61 11.51-11.04 14.99-18.86Zm-12.5-54.98c5.31-7.6 10.42-14.67 11.65-24.45-5.13-2.58-9.96-5.02-14.78-7.44-3.38 2.42-6.11 4.4-8.83 6.35.02-.05.03-.09.04-.15-.08.02-.15.04-.22.06.34-3.21.69-6.41 1.03-9.69-5.35-3.64-9.89-7.53-17.14-7.63-2.81 8.22-11.56 13.72-10.15 24.36 4.62 2.58 9.31 5.21 14.63 8.16 5.12-4.89 6.34-13.64 11.63-15.21-.01.07-.01.16-.02.23.07-.04.13-.09.2-.15-1.57 5.92-3.14 11.86-4.74 17.82 5.41 3.87 10.04 7.51 16.71 7.72ZM1122.42 624c5.27-3.71 6.66-7.94 6.1-13.84-1.84-15.37-.65-30.23-4.63-45.45-35.27 5.82-66.22 20.81-98.21 32.77-7.42 2.77-14.92 5.9-21.65 12.22 9.54 19.72 17.83 39.48 30.42 56.25 31.88-6.78 60.91-24.33 87.98-41.94Zm-4.05 314.07c2.71-8.25 7.5-15.43 6.43-25.34-10.56 3.85-18.97 8.71-29.1 15.15 8.4 4.13 14.3 8.33 22.68 10.19Zm-4.2 165.82c3.31-4.86 8.07-8.21 8.17-14.56-3.14-1.91-6.75-4.1-11.22-6.81-5.63 7.24-12.12 12.59-14.88 21.71 10.78 7.25 11.23 7.32 17.93-.35Zm-2.24-145.36c1.91-5.3 3.5-9.71 5.12-14.21-6.98-5.4-14.02-8.49-21.77-10.12-4.77 11.66-4.81 11.74 1.11 19.59-.07-.01-.12-.03-.18-.05.09.07.16.15.25.21-5.52-.75-9.11 2.26-12.41 5.82 0-.02.01-.05.01-.07-.06.11-.14.21-.23.3 2.98-13.73-16.25-20.91-27.53-15.13-5.82 3-11.33 5.91-15.84 10.23 2.41 6.37 6.21 7.79 11.74 4.53 3.18 10.03 6.6 12.79 21.97 17.71 3.32-5.86 6.52-11.77 9.88-17.58-1.2 7.63-2.37 15.26-3.64 23.38 4.57 3.78 9.53 6.78 15.29 8.23 8.43-11.78 11.14-18.43 11.67-28.03l-10.91-9.4c.02.01.03.01.05.01-.04-.06-.09-.12-.12-.17 4.92 1.5 9.85 3 15.54 4.73Zm-11.01 168.01c9.55 5.25 10.31 5.09 16.93-3.61q-10.08-5.47-16.93 3.61Zm-13.86-62.5c4.14-9.85 11.77-15.83 11.72-25.28-4.65-4.68-9.64-7.48-16.43-7.69-5.73 7.18-9.67 14.75-11.57 23.93 5.16 2.86 9.85 5.48 16.28 9.05Zm-.11 37.48c8.7-5.55 13.68-12.58 17.45-22.02-5.46-3.46-9.91-6.47-16.49-6.55-4.15 7.19-8.24 14.25-12.89 22.3 4.5 2.36 8.27 4.33 11.93 6.26Zm52.34-226.24c-32.25-66.17-66.2-129.91-104.46-192.83-1.25-2.03-2.01-5.88-7.07-3.89 7.21 16.44 15.55 31.87 23.3 48 1.33 2.75 3.52 5.9-.47 9.46-22.4-29.86-34.59-64.47-53.1-96.44-6.41-10.39-10.52-20.75-25.01-14.74-12.18 3.51-24.57 6.54-35.44 13.41-3.16 2-6.82 4.85-11.62.61 13.63-13.97 34.02-19.32 53.1-23.01 16.27-3.13 21.39 13.8 28.04 24.41 5.09 9.63 9.7 19.5 14.81 29.12.97 1.83 2.91 4.46 6.69.66-6.14-10.83-12.46-21.94-18.75-33.08-6.48-11.46-9.42-24.97-20.84-34.23-65.2 20.36-130.64 46.56-190.58 77.13 52.45 83.03 101.08 168.05 157.79 248.47 1.62-11.64-8.61-17.39-6.3-28.47 12.56 12.96 14.89 29.87 26.98 41.55 20.19-8.21 40.11-16.31 59.99-24.39 2.33 4.2-5.59 4.98-3.53 9.62 35.67-17.2 70.65-34.06 106.48-51.35Zm-52.72 264.21c4.5-1.6 7.59-2.68 12.62-4.45-7.58-5.32-11.07-1.54-12.62 4.45Zm13.81-24.17c-10.69-9.83-10.83-1-19.41 1.03-.02-.06-.03-.13-.05-.19-.07.01-.12.01-.17.01.71-3.19 1.42-6.4 2.28-10.25-4.03-2.11-7.9-4.12-12.32-6.43-2.53 4.6-4.62 8.37-6.69 12.11 8.36 5.28 8.43 5.32 16.73 4.58-.02.08-.03.16-.05.24.1-.02.2-.04.28-.06 3.2 10.59 16.19 8.92 19.41-1.03Zm-19.65-94.1c6.73-7.43 10.5-15.05 12.19-23.58-4.07-4.72-8.7-7.22-15.93-8.37-3.88 7.98-7.25 14.89-11.06 22.71 5.42 3.38 9.91 6.18 14.8 9.25Zm4.05-76.06c3.06-6.87 4.93-7.13 3.49-15.07-5.92 2.63-10.22 4.55-16.29 7.26 5.08 3.1 8.58 5.23 12.8 7.81Zm-13.28 144.46c4.11-6.55 8.16-13.01 13.74-21.91-8.35-1.67-11.96-7.32-19.5-7.19-3.02 6.81-9.45 11.93-10.84 19.83 4.72 4.59 9.27 8.04 16.61 9.27Zm13.85 39.99c-2.65-1.42-5.14-2.74-7.91-4.23-5.25 5.08-9.89 9.68-14.11 16.51q13.87-4.12 22.01-12.28Zm-20.41-78.58c4.65-8.72 8.73-16.36 13.19-24.71-5.07-3.28-9.17-5.94-14.81-9.6-3.99 10.16-10.27 16.84-12.44 26.49 4.57 2.54 8.73 4.87 14.06 7.83Zm-8.04 58.27c3.56-4.41 7.99-7.68 8.46-14.87-4.31-2.65-8.81-5.44-14.06-8.68-5.75 5.82-9.2 10.32-8.96 17.04 4.87 2.17 9.4 4.2 14.56 6.51Zm4.11-101.38c15.66-18.28 14.7-28.43-9.93-34.43-3.99 7.59-7.36 15.55-6.45 25.11 5.08 3.79 9.89 8.01 16.38 9.32Zm8.97 114.24c-4.07-1.71-7.99-3.37-12.25-5.16-4.57 5.97-8.64 11.29-12.75 16.69 11.7 6.44 13.28 5.7 24.99-11.52Zm-8.53-66.4c-4.64-2.96-8.64-5.51-14.49-9.25-4.44 8.66-7.71 15.05-10.91 21.29 4 4.5 7.29 7.94 13.52 7.82 3.84-6.43 7.58-12.69 11.88-19.87Zm-15.85-16.94c6.74-7.31 9.84-15.81 13.61-25.28-5.84-3.5-11.22-6.75-18.8-11.31-4.98 9.52-8.98 17.14-12.95 24.73 4.82 6.59 11.37 8.82 18.15 11.86Zm-11.43 58.97c4.94-4.4 8.12-9.11 9.8-15.59-3.02-2.36-6.05-4.72-9.15-7.15-3.36 2.17-6.17 3.99-8.95 5.79.01-.04.01-.08.02-.13-.07.05-.14.09-.21.14.42-3.22.85-6.45 1.33-10.22-7.16-5.01-15.67-13.14-24.39-6.11 4.46-8.4-7.07-13.48-14.61-14.98-3.82 5.83-7.54 11.52-11.56 17.66 7.29 5.9 14.43 13.71 22.74 5.88-1.26 11.55 8.07 12.68 15.23 15.6 4.23-2.95 7.75-5.39 11.27-7.84 0 .04-.01.07-.01.12.07-.04.13-.08.2-.13-.8 4.52-1.87 8.17-1.51 12.98 3.28 1.33 6.42 2.6 9.81 3.97Zm13.54 46.94q-10.33-5.22-16.74 6.07c6.99 1.28 12.58.04 16.74-6.07Zm4.12-30.24c-4.43-4.33-9.06-6.61-15.66-6.16-4 5.5-8 10.99-12.34 16.94 10.84 13.58 24.03.57 28.01-10.78Zm-21.22-49c6.08-6.5 9.78-13.11 10.88-22.33-5.24-3.23-10.59-6.54-16.03-9.9-2.81 2.14-4.75 3.62-6.7 5.11q-.42-10.82-15.43-15.45c-5.32 6.36-8.31 13.74-10.38 22.07 5.43 2.67 8.86 7.31 14.95 7.31 2.38-2.15 4.57-4.12 6.74-6.11-.53 3.3-1.08 6.59-1.63 9.96 6.23 3.88 11.06 6.35 17.6 9.33Zm-19.53 78.01c11.52 5.86 11.58 5.83 19.12-5q-11.21-5.74-19.12 5Zm20.25-37.47c-4.1-4.8-8.02-7.31-14.15-6.59-4 5.92-10.02 10.62-11.95 18.9 4.26 2.01 8.16 3.84 12.67 5.97 4.81-6.54 9.1-12.38 13.43-18.28Zm-15.04-135.22c-.91-.61-1.83-1.21-2.73-1.81-2.65 2.01-7.46 1.28-7.94 6.98 2.22 1.19 4.31 2.31 7.31 3.92 1.27-3.46 2.32-6.29 3.36-9.1Zm-17.88-369.09c12.13-5.44 15.16-6.59 26.48-12.94-14.86 2.96-18.8 4.85-26.48 12.94Zm6.16 538.6c2.74-3.98 6.71-5.74 6.46-10.16q-12.16-7.04-18.47 4.16c3.73 1.87 7.43 3.71 12.01 6Zm-5.13 18.34q9.53 2.03 15.45-5.22c-10.09-6.87-11.93-6.25-15.45 5.22Zm13.02-62.22c-5.64-5.74-11.33-9.2-19.29-10.78-3.69 6.7-7.18 13.04-10.67 19.39 4.35 5.39 9.3 7.61 16.52 10.04 4.68-6.49 8.93-12.4 13.44-18.66Zm-24.58-55.81c4.72-7.23 9.21-13.66 10.06-22.26-17.15-7.76-49.37-39.78-54.22-4.61q10.1 8.66 19.74 11.4c1.9-1.96 3.78-3.91 5.55-5.73v14.61c-2.85 1.52-5.69 3.05-8.53 4.59 2.35-10.58-10.9-12.94-17.93-17.94-3.01 3.47-5.7 6.56-8.37 9.65v-.03c-.08.07-.14.16-.22.23.7-4.26 1.39-8.52 2.08-12.72q-10.16-7.62-15.82-5.6c-7.8 2.76-13.19 7.21-12.34 16.71 5.33 4.03 10.72 8.32 18.1 10.11 2.81-2.97 5.41-5.73 7.99-8.49 0 .02-.01.04-.01.06.08-.08.15-.18.23-.26-.46 4.27-.92 8.54-1.49 13.81 5.49 2.79 11.13 5.65 16.79 8.53 3.8-4.67 6.86-8.45 9.92-12.23l-3.38 16.4c4.65 2.77 9.2 5.48 13.74 8.17 7.03-5.28 10.96-11.12 12.76-17.55-3.48-4.31-6.23-7.72-8.98-11.12 4.7 1.4 9.4 2.79 14.36 4.27Zm-1.79 89.42c2.44-3.6 4.23-6.26 6.73-9.95-5.01-2.58-9.21-4.73-14.17-7.29-2.43 3.9-4.34 6.99-6.91 11.13 5.35 2.28 9.64 4.1 14.35 6.11Zm-8.79 19.91c12.49 6.89 13.23 6.71 19.85-4.55q-10.57-7.39-19.85 4.55Zm-1.44-46.44c6.23-6.14 10.92-12.66 12.75-21.61-5.38-3.31-10.32-6.35-15.8-9.72-5.05 8.04-9.38 14.98-13.86 22.13 5.35 4.84 11.04 6.62 16.91 9.19Zm39.34 62.51c-28.57 6.08-52.26 18.22-81.72 19.27-6.7.37-13.43 4.2-19.67 7.32-41.44 24.3-87.23 40.31-132.79 55.86-82.54 27.18-166.6 47.93-252.45 62.88-43.85 6.22-86.54 18.57-131.07 19.69-22.19 1.74-42.91-.84-65.18 3 178.2 62.51 215.11 34.93 382.26-17.93 109.73-31.73 212.45-78.47 300.62-150.09Zm-34.8-216.88c-5.6-.88-7.04-1.13-12.53-1.48 3.6 7.26 7.29 5.7 12.53 1.48Zm1.95 213.05c-2.74-4.91-7.16-5.92-12.88-5.29-2.47 3.68-4.87 7.28-7.29 10.88 9.96 6.32 11.31 5.92 20.16-5.59Zm-3.57-26.56c-3.01-1.98-6.2-4.07-9.36-6.15-4.47 2.08-5.74 5.19-7.27 9.25-1.71 12.41 16.15 6.65 16.63-3.1Zm-11.31-15.2c1.89-3.34 3.64-6.43 5.33-9.4-14.15-9.55-14.25-9.61-23.33-9.53.01-.08.03-.18.04-.26-.09.05-.18.12-.27.17-4.61-9.92-7.83-11.97-18.24-11.66.02-.08.04-.16.07-.24-.09.07-.17.14-.26.2.4-6.67-5.73-8.28-9.65-11.69-4.92-4.28-9.66-3.59-14.53-.3 0-.04.01-.08.02-.13-.08.05-.15.1-.23.16.8-9.65-5.22-13.58-13.86-15.92-4.05 4.58-6.24 9.19-6.82 15.13 4.21 2.36 8.06 4.51 11.94 6.7 3.23-2.18 5.99-4.05 8.73-5.91 0 .04-.01.07-.01.12.08-.05.14-.1.22-.15-.67 3.14-1.33 6.28-2.01 9.54 11.67 7.04 14.32 11.75 26.19 2.46v.05c.07 0 .13 0 .2-.01-.86 3.13-1.73 6.25-2.69 9.68 3.3 3.73 7.9 5.51 12.38 7.36 3.05-1.92 5.8-3.65 8.55-5.37.01.03.03.06.04.09h.18c-.52 3.14-1.02 6.29-1.61 9.85 6.48 2.88 11.52 7.88 19.61 9.08Zm-14.52-28.52c6.93-6.24 11.52-13.03 14.63-21.99-6.91-3.79-13.38-11.88-21.38-6.72 1.74-9.62-10.6-10.63-17.17-14.3-3.68 2.93-6.94 5.52-10.18 8.1.01-.03.01-.06.02-.09-.08.06-.15.14-.23.2 1.22-3.98 2.43-7.95 3.67-12.07-5.69-4.02-9.83-9.26-17.88-9.42-2.87 6.54-5.75 13.09-8.97 20.43 5.24 3.46 9.65 6.37 13.91 9.19 3.6-3.16 6.45-5.65 9.28-8.13 0 .03-.01.05-.02.08.08-.06.15-.13.23-.19-.77 4.13-1.57 8.27-2.36 12.51 7.21 4.54 12.38 9.1 21.07 7.28 2.03 8.03 8.39 11.67 15.4 15.11Zm-.63 47.72c6.13-3.3 9.12-7.81 10.32-13.68-6.17-5.15-12.62-7.29-18.78-8.66-3.72 2.95-6.71 5.32-9.68 7.68-.01-.01-.01-.03-.01-.04-.05.02-.11.04-.16.05 1.33-3.9 2.66-7.82 4.35-12.74-4.49-2.65-8.92-5.28-12.74-7.53-4.15 2.37-7.05 4.02-9.92 5.66.01-.05.02-.1.03-.16l-.21.12c.74-3.14 1.47-6.3 2.38-10.16-6.46-2.07-10.78-7.67-18.08-6.78-4.15 3.9-7.46 7.97-8.52 13.61 4.01 5.25 9.89 6.54 15.17 8.55 3.28-1.9 6.16-3.56 9.04-5.23-.01.05-.02.1-.03.16.07-.04.14-.07.21-.12-.52 2.76-1.06 5.54-1.76 9.19 5.85 4.2 11.81 8.25 20.07 5.43-.02.06-.04.12-.07.18.08-.06.16-.13.24-.19 1.56 10.31 10.5 11.66 18.14 14.66Zm11.87 14.32c-12.02-9.91-14.07.19-19.66 7.74 9.43 5.8 10.22 5.5 19.66-7.74Zm-26.04 5.74c3.45-4.12 6.56-7.86 11.2-13.42-7.35-3.83-12.99-6.76-19.47-10.14-4.74 4.9-9.04 9.33-14.27 14.72 8.94 4.08 13.71 5.87 22.54 8.84Zm7.44 13.46c-3.06-3.81-6.08-5.53-10.6-3.78-3.38 1.32-6.79 2.58-4.95 7.74 5.6 1.48 10.53.42 15.55-3.97Zm-15.92-8.43c-5.87-3.12-11.13-5.92-17.4-9.26-5.75 3.57-11.14 6.11-13.5 12.36 11.15 4.9 21.31 8.19 30.9-3.11Zm-4.95-31.72c-5.7-3.05-10.42-5.57-14.81-7.92-4.73 3.33-8.62 6.09-12.5 8.82.01-.02.01-.05.02-.07-.08.04-.14.07-.22.1 1.6-3.94 3.19-7.88 4.91-12.14-4.34-4.46-9.52-6.92-15.87-8.17-6.2 4.89-10.03 10.84-12.25 17.53 7.34 8.72 15.17 6.91 23.21 2.79-.01.05-.03.09-.05.15.09-.06.16-.12.25-.18-.77 2.7-1.56 5.38-2.27 7.87 16.8 12.81 19.07 2.82 29.58-8.76Zm-68.21-126.68c36.51-14.3 71.44-30.03 106.26-48.27-39.51-67.71-85.95-131.51-124.55-200.9-83.75 30.14-159.9 71.36-244.18 99.73 41.84 67.51 83.23 135.27 120.97 205.25 48.4-15.02 94.45-37.08 141.5-55.81Zm34.52 46.3c4.2-6.76 9.2-12.2 8.85-20.47-12.5-9.5-21.27-.21-32.21 4.76 7.44 6.97 14.3 12.19 23.36 15.71Zm-.67 113.67c4.77-4.92 8.42-8.69 12.16-12.54-15.77-13.29-18.66-4.75-29.51 6.21 6.12 2.24 11.18 4.08 17.35 6.33Zm-4.76 15.7c7.59-.49 13.93-.91 22.74-1.49-8.04-7.18-21.22-10.72-22.74 1.49Zm-2.06 19.74c7.31-2.89 14.48-6.5 20.49-12.67-12.63 0-24.32.8-35.84-.23-24-3.15-47.64-12.4-72.29-9.47-11.04 1.63-22.06 3.48-33.14 4.85-29.85 6.86-57.07-19.5-83.61-16.14-21.63 7.67-43.72 11.36-64.7 20.93-1.35 11.22 1.19 21.78-7.96 29.86-29.01 29.37-73.03 38.25-93.5-4.54-34.55 11.66-70.69 17.03-106.18 23.69-17.8 48.91-89.24 66.08-114.97 14.09-46.57 5.05-89.33 13.4-137.01 18.66 41 21.99 82.79 34.38 126.48 48.97 24.32 9.32 48.99 5.52 73.87 4.55 181.17-5.14 361.09-57.06 528.37-122.54Zm.38-96.89c5.09-4.95 8.92-9.18 10.7-16.03-4.3-2.61-8.34-5.08-13.25-8.07-3.72 5.71-6.85 10.53-10.66 16.38 4.88 2.85 8.93 5.23 13.2 7.72Zm-3.37-32.27c2.65-4.54 5.02-8.62 7.96-13.64-11-5.02-25.43-21.94-36.62-15.13-3.58 2.24-5.97 5.28-4.57 10.61 9.82 6.65 20.14 13.43 33.23 18.17Zm-7.9 108.72c3.93-3.11 7.58-6 12.86-10.17-7.33-2.76-12.74-4.79-18.74-7.05-3 2.59-5.76 4.98-9.31 8.04 5.57 3.37 10.05 6.08 15.19 9.18Zm-6.56-86.65c4.01-5.33 7.9-9.63 9.28-15.9-8.67-8.86-19.9-12.97-31.74-18.49-2.35 6.06-4.4 11.37-6.49 16.74 8.59 8.14 18.64 11.33 28.95 17.65Zm15.24 49.83c-14.51-14.37-16.89-3.35-26.62 6.65 10.19 10.8 18.65.29 26.62-6.65Zm-.14-33.29c-4.71-3.25-8.67-5.98-12.31-8.51-3.31 1.9-5.81 3.34-8.29 4.76.01-.05.03-.1.04-.16-.08.07-.16.15-.24.23.37-2.34.76-4.68 1.22-7.45-7.98-7.03-17.66-11.41-27.54-16-3.13 3.97-5.51 6.98-7.89 9.99.75-4.23 1.5-8.46 2.41-13.57-7.31-3.05-14.63-5.28-20.99-9-6.57-3.84-10.04.07-14.2 3.24 0-.05.01-.09.02-.15-.08.08-.15.18-.22.26-1.03-2.64-1.61-6.17-5.73-5.13-7.05 1.77-14.07 3.81-21.3 8.15 6.08 5 11.04 8.58 17.58 8.27 3.44-4.1 6.45-7.7 9.45-11.29l.01.02c.07-.04.12-.09.18-.14-.9 5.14-1.78 10.32-2.85 16.44 8.37 4.54 16.58 8.98 24.56 13.32 3.71-2.82 6.44-4.89 9.17-6.97-.51 3.28-1.02 6.57-1.66 10.7 8.23 3.85 16.24 7.6 24.59 11.5 4.83-4.48 9.02-8.35 13.18-12.2-.01.01-.01.03-.01.04l.21-.12c-1.51 4.98-3.02 9.97-4.56 15.02 13.59 12.28 17.68-2.09 25.16-11.27Zm-31.65 36.1c3.94-3.8 9.38-6.77 11.34-13.76-3.65-1.94-6.96-3.69-10.28-5.47-6.06 4.24-10.16 8.91-13.65 14.33 3.55 4.04 7.08 6.27 12.58 4.89Zm7.67 13.62c-10.45-4.86-10.63-4.8-21.1 6.99q12.89 4.2 21.1-6.99Zm-25.98-21.78c3.99-4.26 7.95-8.48 13.48-14.38-9.68-4.52-17.23-8.05-25.18-11.76-5.8 5.71-8.76 11.38-7.66 19.21 5.8 3.46 11.47 7.29 19.36 6.93Zm10.54 14.94q-5.34-4.73-12.18-5.71c-4.44 3.71-8.94 7.49-13.43 11.26 8.76 13.84 16.94-.79 25.61-5.55Zm-9.47-79.5c2.25-5.24 4.33-10.04 7.18-16.63-14.58-7.58-23.88 1.02-34.23 6.18 9.04 3.02 16.32 9.58 27.05 10.45Zm-.72-325.61c-11.31-19.52-20.79-39.08-34.88-57.81-45.88 16.86-88.54 35.94-134.94 50.71-27.27 11.45-87.07 27.62-104.01 49.16 10.28 19.75 20.74 39.86 31.44 60.42 81.45-32.79 162.1-67.1 242.38-102.49Zm-28.39 422.76h13.77q-11.01-4.93-13.77 0Zm2.62-12.46c6.91-4.1 14.33-6.49 16.59-14.77-6.72-4.63-12.62-9.48-21.1-5.75-3.73-10.29-17.06-12.72-26.36-16.24-6.48-.36-10.92 7.23-15.25 11.25.01-.01.01-.02.01-.03-.07.04-.14.09-.21.13 1.95-4.9 3.88-9.8 5.79-14.6q-8.58-6.37-20.6-9.25c-5.62 5.4-9.43 11.97-12.13 19.94 9.02 4.81 17.01 10.27 26.94 3.9-.01.05-.03.09-.05.15.09-.07.16-.15.25-.24-2.55 13.22 16.44 13.12 24.79 17.26 4.75-2.57 8.7-4.7 12.66-6.84l-3.83 10.24c4.68 1.82 8.7 3.38 12.51 4.85Zm-2.66-30.68q7.41-9.71 9.35-18.77c-8.39-4.82-15.91-11.52-26.62-13.6-4.72 7.24-7 12.43-10.11 20.79 9.52 4.03 18.21 7.7 27.39 11.59Zm-23.93 38.2c11.29 6.81 11.54 6.76 16.93-2.52q-8.82-4.42-16.93 2.52Zm-8.29-52.48c4.11-8.12 9.65-13.27 9.17-22.12-6.4-3.45-12.29-7.79-21.2-7.52-3.31 5.85-6.61 11.68-10.54 18.63 7.45 3.64 14 6.83 22.57 11.02Zm9.32 42.82c-10.26-4.94-18.29-8.83-26.43-12.75-5.83 4.2-9.94 8.61-11.56 15.78 19.52 5.89 22.31 15.18 37.99-3.03Zm-37.57-55.66c4.11-6.43 7.96-12.44 13.03-20.35-12.53 1.21-21.71 4.11-30.81 9.78 5.04 5.15 10.92 7.53 17.78 10.57Zm-11.62 71.42c8.46 2.5 16.13 8.43 27.24 1.34-8.37-5.64-26.11-16.2-27.24-1.34Zm4.2-16.48c4.59-4.47 9.65-7.04 10.98-13.1-5.43-4.52-11.4-6.71-18.95-8.28-2.36 5.07-8.35 7.97-8.84 15.39 5.81 2.07 11.32 4.03 16.8 5.98Zm-8.65-31.56c6-5.11 9.42-11.21 11.42-18.85-6.48-3.49-11.53-8.38-19.74-8.93-3.53 5.96-6.98 11.78-10.73 18.13 4.96 6.34 11.19 9.27 19.05 9.64Zm-24.87 39.35c10.71 2.64 23.2 11.91 25.87-2.78-4.94-2.37-10.13-4.86-15.67-7.52-3.35 3.39-5.98 6.06-10.2 10.31Zm20.83-31.03c-5.95-6.11-12.68-8.04-20.09-10.77-4.17 4.25-8.27 8.44-14.26 14.57 8.56 3.81 14.79 6.57 21.8 9.69 4.56-4.9 8.46-9.1 12.55-13.48Zm-9.39-37.8c-9.92 3.87-17.37 5.96-23.48 11.29 14.52 14.09 16.6.34 23.48-11.29Zm-14.93 63.53c1.69-1.93 3.56-4.08 6.68-7.66-9.26-3.96-16.55-7.07-23.87-10.2-3.8 2.2-7.41 3.32-9.05 7.34 11.25 8.48 11.77 8.69 26.24 10.53Zm-16.99-25.49c6.6-3 10.59-7.57 13.99-13.41-3.69-4.3-7.8-6.32-13.62-5.91-3.96 3.88-9.42 6.61-12.18 12.9 4.18 2.27 7.99 4.34 11.81 6.42Zm-3.94-22.81c-10.9-1.24-18.95-.56-26.86 3.65 10.6 10.03 11.77 9.93 26.86-3.65Zm-15.03 34.38q5.81-3.28 10.43-9.63c-8.34-3.48-15.81-7.44-22.28 2.3 4.62 2.86 8.36 5.17 11.85 7.34Zm13.53 16.63c-16.63-10.27-32.23-19.92-47.37-29.28-17.12 7.95-33.89 14.32-52.87 12.39-1.59-.17-3.46 2.37-6.9 4.91 35.86 10.89 33.92 12.05 46.34 29.77 20.87-1.82 39.9-9.8 60.79-17.8Zm-43.92-42.09c7.62 14.63 8.97 15.12 23.21 7.35-9.35-3.88-13.81-9.9-23.21-7.35Zm-9.92 5.78c-6.99-5.39-37.29 4.86-46.82 8.04 5.66 6.23 11.89 4.89 17.63 3.46 9.83-2.45 20.43-3.54 29.19-11.5Zm-22.34 92.04c47.39-59.72-83.67-85.99-79.01-14.83 3.61 44.7 54.84 37.77 79.01 14.83Zm-60.24-95.34c1.77-.33 3.33-1.77 5.45-2.96-37.46-62.3-72.09-123.31-111.22-185.41-87.41 41.89-177.1 82.17-256.01 137.67-11.73 8.67 4.64 25.66 8.39 35.54 15.87 25.33 35.96 46.78 64.02 59.28 6.14 3.15 12.3 4.17 19.13 2.52 89.27-19.7 180.63-27.96 270.25-46.64Zm-7.22 38.19c-2.06-1.89-3.48-3.2-5.93-5.47-33.7 30.28-92.68 45.25-138.76 42.61 6.73 10.36 13.08 20.11 19.56 30.08 19.34 1.3 78.35-8.28 104.55-21.69 2.46-20.01 7.06-30.77 20.58-45.52Zm-6.04-24.19c-.17-.68-.34-1.36-.51-2.05-90.89 18.17-185.05 21.6-273.61 49.56-33.49 10.67-69.53 10.23-104.46 9.77-9.78.19-18.26-.86-27.73 3.33 138.29 14.3 273.92-26.78 406.32-60.61Zm-113.13 56.04c38.36-7.7 83.03-12.41 108.85-44.37-27.33 3.25-102.6 18.19-148.08 35.09 13.25 7.89 25.9 11.16 39.23 9.28Zm15.03-266.42c.66-5.17-2.85-8.96-5.43-13.09-5.5-8.82-10.87-17.74-16.61-26.4-7.35-11.09-12.88-23.34-22.18-34-75.32 28.4-139.07 80.82-199.55 131.33-38.65 39.18-27.81 35.67-16.6 84.67 79.39-59.75 174.07-94.33 260.36-142.51Zm-97.32 349.02c44.87 6.66 96.15-34.57 50.4-70.13-7.17-6.01-15.23-6.55-23.49-5.13-9.16 1.57-18.57 5.54-27.31 7.13-3.2 6.11-16.52 17.18-13.55 23.75 5.71-5.03 11.31-9.95 16.93-14.86 1.22-.97 1.67-.41 2.96.66-5.52 14.64-18.91 16.59-18.59 32.27 5.81-8.09 10.26-13.38 16.29-20.56-1.17 4.22 3.09 4.81 5.21 7.19-1.87 6.73-16.81 24.59-8.44 29.17 7.72 6.74 11.84-1.1 15.48-4.08 3.67 1.01 6.41 2.68 7.83 1.95 8.78-5.54 14.62-14.81 21.68-22.18q3.13 5.27-2.93 9.62c-13.3 17.99-20.08 21.38-42.47 25.21Zm-11.9-77.53c-96.66 6.18-195.66 28.1-286.3-18.25 72.7 102.35 149.34 86.65 259.37 62.8 4.24-8.93 7.38-16.71 11.53-23.95 3.99-6.99 12.57-11.02 15.4-20.6Zm1.46 71.91c-11.7-14.86-12.41-27.19-11.62-45.59-10.8 19.16-6.56 35.08 11.62 45.59Zm-169.29-159.94c15.66 30.18 54.72 85.25 95.92 66.6-85.32-45.59-115.3-153.13-94.09-240.36-45.98 28.14-19.29 133.17-1.83 173.76Zm-58.18 78.39c38.14-2.51 73.53-2.09 112.13-4.1-67.62-42.78-88.36-127.45-83.45-200.91.81-4.89 2.21-10.23-1-16.36-41.06 39.91-101.34 131.99-81.35 189.09 12.22 19.12 27.03 33.97 53.66 32.28Zm-57.99-98.55c2.25-5.24 5.3-10.42 4.92-17.39-22.88 27.34-28.64 56.26-13.38 87.73 1.5 3.98 5.19 6.7 11.85 8.75-16.96-24.54-12.8-53.5-3.39-79.09Z" fill="#ed8d48" data-color="1"/>
        <path d="M1313.77 888.52c0 .09-.08.15-.13.22.04-.07.09-.15.13-.22Z" fill="#ed8d48" data-color="1"/>
        <path d="M1298.34 924.25c-.01.05-.02.1-.03.16-.05.03-.11.06-.16.09.07-.08.13-.17.2-.25Z" fill="#ed8d48" data-color="1"/>
        <path d="M1273.83 900.51c-.03.06-.07.13-.1.19 0-.04.01-.07.01-.12.03-.02.07-.04.09-.07Z" fill="#ed8d48" data-color="1"/>
        <path d="M1267.78 918.39c.28 6.64-.74 12.87-6.09 17.66 0-.03-.01-.07-.02-.12-.08.07-.14.14-.21.2-.2-6.64 1.76-12.58 6.13-17.74l.05.05c.04-.02.09-.04.13-.06Z" fill="#ed8d48" data-color="1"/>
        <path d="M1267.76 918.2c0 .06.01.13.01.19-.04.02-.09.04-.13.06l-.05-.05c.07-.06.12-.14.17-.2Z" fill="#ed8d48" data-color="1"/>
        <path d="M1261.66 935.94s.02.08.02.12c-.08.08-.15.16-.23.22v-.14c.07-.06.13-.13.21-.2Z" fill="#ed8d48" data-color="1"/>
        <path d="M1255.42 900.72c-.07.09-.13.19-.2.28 0-.04.01-.07.01-.12.07-.05.12-.12.18-.17Z" fill="#ed8d48" data-color="1"/>
        <path d="M1237.21 1036.31c-.08.1-.16.19-.25.28.01-.03.02-.05.02-.08.08-.06.15-.14.23-.2Z" fill="#ed8d48" data-color="1"/>
        <path d="m1227.83 968.68-.1.17c.02-.06.05-.12.1-.17Z" fill="#ed8d48" data-color="1"/>
        <path d="M1221.73 930.25c-.05.09-.12.18-.18.27.02-.12.1-.18.18-.27Z" fill="#ed8d48" data-color="1"/>
        <path d="m1215.78 1030.44-.21.24c.01-.04.02-.08.03-.13.05-.04.12-.07.17-.12Z" fill="#ed8d48" data-color="1"/>
        <path d="M1186.91 50.45c8.05 4.6 18.7 9.83 15.73 20.66-2.46 11.29-6.43 21.61-16.26 29.17-33.61 31.59-61.32 68.68-95.39 100.05-1.44-.31-2.86-.64-5.46-1.23 22.36-26.03 47.89-49.43 69.36-76.42 10.45-16.1 58.47-42.81 33.12-62.19-26.92-16.22-59.99-45.08-91.87-22.23-3.36-3.12-.97-4.98.83-6.25 29-22.27 64.24 2.83 89.96 18.43Z" fill="#ed8d48" data-color="1"/>
        <path d="M1194.26 986.26c0 .07-.08.11-.13.17.04-.05.09-.12.13-.17Z" fill="#ed8d48" data-color="1"/>
        <path d="M1172.83 1033.38c-.02.05-.03.09-.04.15-.02.01-.03.02-.05.03-.08-.07-.14-.15-.21-.22.1.02.21.03.3.04Z" fill="#ed8d48" data-color="1"/>
        <path d="M1166.65 906.5s-.05.07-.08.12v-.02s.05-.06.08-.09Z" fill="#ed8d48" data-color="1"/>
        <path d="M1157.5 956.82h-.04c-.05-.04-.1-.08-.15-.13.07.04.13.08.2.13Z" fill="#ed8d48" data-color="1"/>
        <path d="M1141.5 64.12c-62.66 62.18-134.39 118.7-192.61 186.33-.89-.78-1.78-1.55-2.68-2.33 49.46-69.18 122.38-120.44 183.7-179.62 2.96-2.65 5.88-5.17 11.59-4.38Z" fill="#ed8d48" data-color="1"/>
        <path d="M1139.19 1074.84c-.02.13-.15.2-.25.28.03-.13.16-.19.25-.28Z" fill="#ed8d48" data-color="1"/>
        <path d="M1114.78 1068.72c-.02.08-.04.17-.07.25-.05.02-.12.03-.18.04.03-.15.14-.21.25-.29Z" fill="#ed8d48" data-color="1"/>
        <path d="M1114.68 1018.76c0 .14-.13.22-.24.29.01-.07.01-.16.02-.23.07-.02.14-.04.22-.06Z" fill="#ed8d48" data-color="1"/>
        <path d="M1103.97 840.24c3.93 6.66 4.92 12.07 4.14 20.15-8.78-10.17-25.58-43.3-45.81-90.13-3.2-7.41-7.31-14.64-6.31-23.75 20.26 28.54 31.46 62.91 47.97 93.73Z" fill="#ed8d48" data-color="1"/>
        <path d="M1096.4 953.81c.03.05.08.1.12.17-.12-.02-.2-.15-.3-.22.07.02.12.04.18.05Z" fill="#ed8d48" data-color="1"/>
        <path d="M1084.07 959.72s-.01.05-.01.07c-.02.02-.04.04-.08.07.03-.05.05-.09.09-.15Z" fill="#ed8d48" data-color="1"/>
        <path d="M1080.94 1116.17c.02.06.03.13.05.19-.09.02-.18.04-.28.06.02-.08.03-.16.05-.24.05 0 .11 0 .17-.01Z" fill="#ed8d48" data-color="1"/>
        <path d="M1073.57 830.88c.28-.61 1.64-.77 2.5-1.12-1.5 10.61-7.85 35.87-19.71 48.6-2.21-1.63-2.47-2.46-2.2-4.48 6.38-14.37 12.84-28.7 19.4-42.99Z" fill="#ed8d48" data-color="1"/>
        <path d="M1060.01 818.9c-.34 15.3-5.35 37.57-14.88 49.46-.99-2.06-1.96-3.1-1.73-3.74 5.46-15.27 11.05-30.5 16.61-45.72Z" fill="#ed8d48" data-color="1"/>
        <path d="M1047.81 777.34c.47 11.99-8.42 36.05-19.38 50.27 1-10.18 10.52-33.96 19.38-50.27Z" fill="#ed8d48" data-color="1"/>
        <path d="M1052.94 803.71c-1.75 20.9-10.8 42.82-18.9 48.05 1.09-7.47 11.44-34.32 18.9-48.05Z" fill="#ed8d48" data-color="1"/>
        <path d="M1032.8 92.55c2.73 3.63-.07 5.17-1.65 6.67-41.58 43.99-102.31 78.38-118.56 139.09-2.98 7.79.42 31.47-8.45 33.08-11.38-70.17 77.22-138.99 128.66-178.84Z" fill="#ed8d48" data-color="1"/>
        <path d="M1034.09 767.3c-.73 9.42-7.12 29.13-14.66 34.91 1.06-13.2 7.04-24.35 14.66-34.91Z" fill="#ed8d48" data-color="1"/>
        <path d="M1025.91 1080.74s-.01.08-.02.13c-.07.04-.13.08-.2.13 0-.04.01-.07.01-.12.07-.04.14-.08.21-.14Z" fill="#ed8d48" data-color="1"/>
        <path d="M1022.66 989.09c.05.06.12.14.18.2-.02 0-.05-.01-.08-.01-.08-.07-.14-.15-.22-.22.03.01.08.02.11.03Z" fill="#ed8d48" data-color="1"/>
        <path d="M1024.63 739.13c-.35 10.33-9.4 33.8-16.59 43.31-.41-15.45 8.99-28.91 16.59-43.31Z" fill="#ed8d48" data-color="1"/>
        <path d="M1013.78 694.76c1.32 3.46 2.08 4.41 1.88 5.1-3.95 13.6-8.02 27.16-12.05 40.74-4.23-16.73 5.68-29.35 10.17-45.84Z" fill="#ed8d48" data-color="1"/>
        <path d="M1010.63 998.09c0 .13-.12.2-.21.29.07-.09.14-.2.21-.29Z" fill="#ed8d48" data-color="1"/>
        <path d="M983.16 276.06c-7.13 9.43-18.46 9.25-28.3 12.45 7.52-8.55 18.87-8.28 28.3-12.45Z" fill="#ed8d48" data-color="1"/>
        <path d="M928.32 860.75c7.1 6.04 11.53 13.77 14.7 23.19-7.95-4.81-9.6-7.25-14.7-23.19Z" fill="#ed8d48" data-color="1"/>
        <path d="M934.19 1030.33v.03c-.08.08-.15.18-.23.26 0-.02.01-.04.01-.06.08-.07.14-.16.22-.23Z" fill="#ed8d48" data-color="1"/>
        <path d="M934.17 1124.97s0 .03.01.04c-.08.06-.16.13-.24.19.02-.06.04-.12.07-.18.05-.01.11-.03.16-.05Z" fill="#ed8d48" data-color="1"/>
        <path d="M931.08 1089.55c-.02.08-.04.16-.07.24-.07.01-.13.01-.2.01v-.05c.09-.06.17-.13.26-.2Z" fill="#ed8d48" data-color="1"/>
        <path d="M918.87 1056.96s-.01.06-.02.09c-.08.06-.15.13-.23.19.01-.03.02-.05.02-.08.08-.06.15-.14.23-.2Z" fill="#ed8d48" data-color="1"/>
        <path d="M914.79 837.27c1.78 2.64 5.24 5.15 2 9.38-7.45-5.49-12.82-12.41-17.74-19.97-23.14-35.46-46.94-70.84-70.24-106.15 3.02-2.9 4.4-.66 5.42.69 28.1 37.88 53.71 77.35 80.56 116.04Z" fill="#ed8d48" data-color="1"/>
        <path d="M915.74 1110.24c-.01.05-.02.1-.03.16-.07.04-.14.07-.21.12.01-.05.02-.1.03-.16.07-.03.14-.07.21-.12Z" fill="#ed8d48" data-color="1"/>
        <path d="M906.66 1077.63s-.02.08-.02.13c-.08.04-.14.09-.22.15 0-.04.01-.07.01-.12.08-.05.15-.1.23-.16Z" fill="#ed8d48" data-color="1"/>
        <path d="M897.44 1133.87c-.02.13-.18.17-.27.25.02-.05.04-.09.05-.15.08-.03.14-.06.22-.1Z" fill="#ed8d48" data-color="1"/>
        <path d="M860.63 1107.32c-.01.05-.03.1-.04.16-.07.03-.14.07-.21.12.03-.11.18-.19.25-.27Z" fill="#ed8d48" data-color="1"/>
        <path d="M793.43 1074.61c-.01.05-.02.09-.02.15-.07.04-.12.09-.18.14l-.01-.02c.07-.08.14-.18.22-.26Z" fill="#ed8d48" data-color="1"/>
        <path d="M759.69 1133.76c-.06.11-.18.19-.26.27.02-.05.04-.09.05-.15.07-.03.14-.08.21-.13Z" fill="#ed8d48" data-color="1"/>
        <path d="M647.14 1036.28c-2.07 9.25-5.46 17.76-12.14 28.13-.3-13.41 6.93-20.47 12.14-28.13Z" fill="#ed8d48" data-color="1"/>
        <path d="M637.8 1015.17c-3.32 15.72-7.37 23.79-15.68 31.81 1.59-13.41 9.07-22.39 15.68-31.81Z" fill="#ed8d48" data-color="1"/>
        <path d="M630.88 735.44s.03-.02.05-.04c-.01.02-.02.03-.03.04h-.02Z" fill="#ed8d48" data-color="1"/>
        <path d="M611.92 1027.87c5.46-9.04 10.93-18.06 16.39-27.1-.52 11.74-4.84 21.54-13.27 29.29-1.04-.73-2.09-1.46-3.12-2.19Z" fill="#ed8d48" data-color="1"/>
        <path d="M623.36 984.77c-3.28 11.89-7.71 22.92-17.05 33.64-.4-8.36 3.97-16.78 17.05-33.64Z" fill="#ed8d48" data-color="1"/>
        <path d="M630.9 735.44c-4.22 4.02-9.35 5.87-15.26 5.83.07-.06.13-.12.2-.18-.08.01-.15.03-.23.04 4.12-4.53 9.36-6.36 15.54-5.94-.09.09-.17.17-.27.24h.02Z" fill="#ed8d48" data-color="1"/>
        <path d="M615.83 741.09c-.07.06-.13.12-.2.18h-.15s.09-.09.12-.14c.08-.01.15-.03.23-.04Z" fill="#ed8d48" data-color="1"/>
        <path d="M615.49 741.27h.15c-8.62 7.78-19.61 9.86-30.66 11.81.08-.06.16-.13.24-.19-.03.01-.07.01-.1.02 8.83-7.11 19.62-9.55 30.49-11.77-.03.04-.08.09-.12.14Z" fill="#ed8d48" data-color="1"/>
        <path d="M608.32 980.74c-2.4 9.71-6.81 18.45-15.02 26.2.63-10.18 1.09-11.01 15.02-26.2Z" fill="#ed8d48" data-color="1"/>
        <path d="M606.56 948.9c-5.14 15.31-11.17 27.62-22.87 39.44-.92-7.2 3.47-10.25 5.41-14.08 5.71-8.76 7.74-18.75 17.47-25.35Z" fill="#ed8d48" data-color="1"/>
        <path d="M598.3 927.69c-1.04 12.32-11.45 31.28-23.5 42.12 4.71-15.06 14.81-27.13 23.5-42.12Z" fill="#ed8d48" data-color="1"/>
        <path d="M589.86 1164.57c10.78 15.1 18.18 27.5 5.08 46.75 5.67-28 1.54-27.92-17.46-46.72 4.58-.56 8.16-1.43 12.38-.03Z" fill="#ed8d48" data-color="1"/>
        <path d="M585.22 752.89c-.11.07-.2.2-.34.21.11-.07.2-.2.34-.21Z" fill="#ed8d48" data-color="1"/>
        <path d="M589.34 917.76c-1.01 8.65-15.7 37.61-24.31 39.23 4.97-15.01 14.89-26.95 24.31-39.23Z" fill="#ed8d48" data-color="1"/>
    </g>
</svg>
