<?xml version="1.0" encoding="UTF-8"?>
<svg data-bbox="0.003 0 265.536 361.618" viewBox="0 0 265.56 361.61" xmlns="http://www.w3.org/2000/svg" data-type="color">
    <g>
        <g>
            <path fill="#f8a442" d="M263 154.43a6.4 6.4 0 0 0-.29-.65 8 8 0 0 0-.38-.94c-18.48-35.49-55.16-21-79.89 1.82 9.7-47 6.88-97.66-29.67-132.75-32.1-30.85-71.18-25.12-107.44-7.33-32.91 16.14-50.1 55.9-44.17 91.34 7.82 46.76 44.29 76.4 85.23 94.87-30 5.28-59.16 22.33-50.58 55.54 13.53 52.41 72.37 10.19 100.07-9.19 13.71 43.72 22.69 127.66 83.94 112.72 25.27-6.17 30.27-37.81 24-58.66-9.28-30.6-35.39-54.46-53.2-80.83 33.22-9.96 87.27-22.45 72.38-65.94Zm-84.53 55.77c-4 1.35-6.3 5.93-4 9.79C187.4 241.52 278 343.64 207 348.46c-43.4 3-50.15-85.25-61.25-113.53-1.48-3.75-5.9-6.58-9.8-4-20.61 13.72-42.81 35.89-68.73 37.38q-21.48-6.22-19.51-27.47c1.35-9.34 10.89-15.42 18-19.83 15.19-9.36 35.36-10.87 52.51-8.13 8.34 1.34 11.91-10.22 3.54-12.86C76.37 185.74 29 160.24 15.67 111c-8.7-32.15 5.87-68.17 35-84.21 31.58-17.38 63.79-20.37 92.7 4.56C185.9 68 176.73 134 161.72 181.1c-2.31 7.24 8.57 11.75 12.19 5.14 12.14-22.22 56.65-63.75 76.51-27.42 11.11 35.45-48.49 43.44-71.95 51.38Z" data-color="1"/>
            <path fill="#f8a442" d="M67.67 53.49C46.42 63.92 39.6 90.78 49 111.85c13.75 30.92 46.78 46.3 77.08 56.6a5.63 5.63 0 0 0 6.64-1.88 6.65 6.65 0 0 0 1.57-2.78c9.3-32.49 15.23-70.23-4.21-100.26-16.27-25.09-39.93-21.07-62.41-10.04ZM74.4 65c58.54-28.73 57.62 49.1 48.76 88.3-18.72-6.85-36.28-15.67-50.72-29.84C56.43 107.75 50.43 76.77 74.4 65Z" data-color="1"/>
            <path fill="#f8a442" d="M231.66 154.62c-9-3.37-19.07 2.53-26.88 6.93-6.95 3.92-18.05 11.55-18.88 20.25a.31.31 0 0 0 .47.27c7.3-5 13.08-11.58 21-16.09s16.48-6.29 24.45-10.14c.57-.28.33-1.04-.16-1.22Z" data-color="1"/>
            <path fill="#f8a442" d="M56.68 240.4a.32.32 0 0 0 .43.43c8-4 14.83-8.92 23.58-11.69 7.1-2.24 14.52-2.88 21.19-6.36a.63.63 0 0 0-.15-1.14c-14.32-4.08-38.55 4.74-45.05 18.76Z" data-color="1"/>
            <path fill="#f8a442" d="M165.09 276.45c2.74 15.75 7.59 33.06 15.09 47.2 5.18 9.76 20.51 24 32 15.19a1 1 0 0 0 0-1.79c-5.61-2.83-11.76-2.29-17.33-5.7-7.34-4.5-11.22-13.9-14.36-21.47C176 299 173.88 285 165.89 276c-.35-.41-.89 0-.8.45Z" data-color="1"/>
            <path fill="#f8a442" d="M223 331.52a.78.78 0 0 0-.7-.4 4.72 4.72 0 0 0-2.64 1.34 20.48 20.48 0 0 0-3.23 2.55.62.62 0 0 0 0 .86c2.57 2.39 8.31-.87 6.57-4.35Z" data-color="1"/>
            <path fill="#f8a442" d="M68.74 30.64c19.86-8.26 41.28-6.35 60.1 3.65a.73.73 0 0 0 .88-1.15C113.11 16 88.29 17 67.16 24.91 48.61 31.84 24 50.61 23.88 72.62a.44.44 0 0 0 .81.22c5-8 8.59-15.82 15.15-22.92 7.86-8.5 18.28-14.86 28.9-19.28Z" data-color="1"/>
            <path fill="#f8a442" d="M135.25 37.18a.44.44 0 0 0-.37.66c1.49 2.31 3.87 4.12 5.67 6.22s3.39 6 6.2 7.26a.58.58 0 0 0 .85-.49c.25-3.09-2.59-6-4.43-8.16-1.96-2.35-4.7-5.2-7.92-5.49Z" data-color="1"/>
            <path fill="#f8a442" d="M62.85 158.39c-12.3-8.85-21.25-19.53-31.34-30.58a.52.52 0 0 0-.87.5c4.31 11.68 14.9 21.13 24.12 29 9.77 8.32 21.59 17.35 34.32 20.17.58.13 1.17-.64.63-1.07-8.36-6.79-18.12-11.74-26.86-18.02Z" data-color="1"/>
        </g>
    </g>
</svg>
