<?xml version="1.0" encoding="UTF-8"?>
<svg data-bbox="-0.004 -0.02 301.966 410.778" viewBox="0 0 301.96 410.76" xmlns="http://www.w3.org/2000/svg" data-type="color">
    <g>
        <path fill="#f8a442" d="M298.76 398.26a380.27 380.27 0 0 1-41.84-29.14c-.28-1.95-.71-3.88-1-5.67-.94-6.05-1.7-13.9-5.38-19a.34.34 0 0 0-.62.17c-.58 5 1.3 10.31 2.23 15.15a49.54 49.54 0 0 1 .64 6c-6.4-5.24-12.67-10.63-18.76-16.25 14.78-27.31 25.66-53.45 28.45-84.85 1.1-12.39 2.54-43.34-14.27-48-15.19-4.19-23.12 15.15-27.09 26.18-10.14 28.19-9.71 59-5.7 88.53q-14.48-15-27.63-31.37c.07-.26.16-.53.23-.78.75-2.58 2.51-6.08 1.82-8.77a.36.36 0 0 0-.52-.22c-2.18 1.14-2.77 4.15-3.55 6.3-.06.18-.16.39-.24.58q-10.83-13.62-20.74-28c.17-1.83.29-3.65.48-5.35.49-4.34 1.34-9.38-.68-13.41-.17-.35-.61-.19-.72.09-1.65 4.05-1.36 9-1.84 13.32 0 .39-.13.8-.18 1.19-3.69-5.43-7.26-10.95-10.75-16.51 14.79-27.32 25.67-53.46 28.46-84.86 1.1-12.39 2.54-43.35-14.26-48-15.2-4.19-23.13 15.15-27.1 26.18-8.19 22.78-9.49 47.31-7.57 71.45-9.36-17.4-17.85-35.18-25.51-53.14 1.24-3.51 1.87-7.32 2.79-10.86 1.28-4.94 3.25-10.05 2.76-15.21a.29.29 0 0 0-.54-.14c-2.64 4.37-3.69 9.68-5.23 14.51-.68 2.13-1.42 4.29-2 6.48q-4.11-9.87-7.88-19.77c9.7-31 15.75-60 11.48-92.63-1.76-13.47-5.76-37.81-21.82-42s-21.2 20.13-22.63 30.6c-4.7 34.42 4 68.87 16.31 100.78-3.15-2.58-6.5-4.93-10.4-6a.29.29 0 0 0-.28.49c4.6 4.25 9.64 8 14.29 12.19l.15.15q6.42 16.83 13.76 33.52a176 176 0 0 0-42.16-29.7c-12.44-6.19-38.12-17.89-50.19-4.81C-7.8 149.92 11 167.1 19.46 174.05c26.48 21.88 59.74 32.86 92.88 39.63a6.79 6.79 0 0 0 3.44-.16c3 5.64 6 11.23 9.16 16.78l-.85-.29c-3.45-1.17-7.6-3-11.24-2a.38.38 0 0 0-.16.63c2.4 2.2 6 2.91 9 4 1.94.68 3.83 1.49 5.75 2.15 4.29 7.46 8.77 14.81 13.37 22.09-2.81.77-6.64 1.32-8.66 3.52a.43.43 0 0 0 .19.7c2.64.92 5.75-.44 8.35-1.08.59-.14 1.25-.26 1.92-.38q9.43 14.73 19.7 28.87c-17-9.24-34.69-16.18-55-19.69-12.91-2.23-37.79-5.5-45.44 9.09-7.76 14.81 14.8 26.49 24.78 31.05 31.28 14.25 66.27 16.21 100.07 14.16a7.21 7.21 0 0 0 2.61-.67c4.32 5 8.76 9.83 13.27 14.62l-1-.11c-3.42-.39-8.65-.85-11.29 1.8a.24.24 0 0 0 .11.41c3.38 1.25 7.6.61 11.18 1.08 1.53.2 3.06.49 4.6.77 7.81 8.1 16 15.81 24.37 23.28a107.19 107.19 0 0 0-11 1.61c-.54.12-.35.86.12.91a91.83 91.83 0 0 0 11.25.55c1 0 2 0 3-.07A397.73 397.73 0 0 0 292 409.77c7.44 4.41 14.14-7.12 6.76-11.51Zm-68.95-136.17c.56-2.88 11.44-36.71 15.16-31.85 9.52 12.45 4.19 38.28 2 51.88-2.86 17.47-10 33.51-18.12 49.05-3.18-23.08-3.58-45.83.96-69.08ZM146.89 161c.56-2.88 11.44-36.72 15.16-31.85 9.52 12.45 4.19 38.27 2 51.88-2.86 17.47-10 33.5-18.13 49-3.17-23.03-3.57-45.76.97-69.03Zm-65-147.51C94 19 94.21 50.13 94.78 60.17c1.1 19.33-2.75 37.73-8 56C79.76 95.7 75 75 74.29 53c-.07-2.26 2.39-41.84 7.6-39.49Zm-67.1 132.38c14.81-5.06 37.87 10.65 49.53 17.59 15 8.9 27.08 21.32 38.4 34.39C83 193 64.08 186.46 46.19 176.22c-2.98-1.71-38.19-28.04-31.4-30.35Zm93.45 156.87c-2.9-.84-39.12-15.9-33.4-19.75 13-8.73 39.34.44 52.4 4.12 16.74 4.71 31.68 13.55 46 23.23-22.01.47-43.5-1.34-65-7.6Z" data-color="1"/>
    </g>
</svg>
