<?xml version="1.0" encoding="UTF-8"?>
<svg data-bbox="0.05 -0.022 1264.86 595.56" viewBox="0 0 1264.91 595.52" xmlns="http://www.w3.org/2000/svg" data-type="color">
    <g>
        <g>
            <path fill="#f8a442" d="M1262.79 465.12c-72-65.37-142.42-132.66-213.57-199Q998 218.34 946.66 170.58c-10.76-10-14.86-9.57-30.65-9-21.73.75-40 30.5-53.5 47C790.45 140.83 717 73.92 648.46 2.81a7.08 7.08 0 0 0-.72-.73l-.07-.08a6 6 0 0 0-5-2 6.1 6.1 0 0 0-4.37 2C598 43.41 555.47 83.43 517.47 127c-12.76-11.37-25.77-22.36-39.15-32.69-2.36-1.82-6.13-.84-8.07 1C359.39 202.55 246.4 308.07 138.46 418.24c-7-.64-14.86-.85-18.85 2.81-22.08 20.34-44.25 40.64-67.14 60.07a6 6 0 0 0-2 3.11c-9 14.2-17.36 28.91-27 42.69a7 7 0 0 0-.88 1.77 6.69 6.69 0 0 0-.48 2.49c0 4.43-.09 9-.21 13.57-1.95.21-3.9.53-5.77.63-5.35.28-11.12-.18-15.95 2.43a.3.3 0 0 0 .07.53c5 1.79 10.65 1.51 15.88 1.59 1.77 0 3.71.14 5.61.08a136.64 136.64 0 0 1-2.06 19c-1.6 8.4 11.25 12 12.86 3.54 2.08-10.94 2.62-22.55 2.81-33.85 87.59 5.92 177.06-1.39 264.88-1.67 2.53 10.66.64 22.52.55 33.31-.08 8.6 13.25 8.59 13.33 0 .1-11.47 1.78-23.72-.59-35.11a6.19 6.19 0 0 0-.92-7.84c-4.61-4.74-9.38-9.33-14.23-13.86.05-.1.12-.18.16-.28C360 380.37 415 244.16 479 112.5l.29.26c22.23 20.18 44.11 40.75 66.06 61.23q94.73 88.37 189 177.21 23.13 21.75 46.23 43.55c-42.83 44-88.41 85.47-132.1 128.64-5.21-6.55-11.21-11.19-18.37-11l-6.83.19c-8.91-11.79-16.85-24.42-25.06-36.7a13.58 13.58 0 0 0-6.12-4.84c0-.18 0-.35-.08-.54-6-23.76-28.59-18-42.71-34.42-12.91-15-25.53-42.19-47.23-40.42-9.14.74-27.32-2.42-35.19 2.19s-14.51 15.49-20.3 22.19c-10.12 11.69-16.54 21.91-31 28-9.73 4.13-17.08 9-22.93 17.33a5.63 5.63 0 0 0-3.49 2.83c-6.52 13-14.91 25.22-20.54 38.68l-1.93-.41c-3.2-.69-5.63.52-7.53 3.06-5 6.74-10.3 13.58-14.57 20.91l-1.23-.13c-3.28-.28-7.78-.35-10.27 2.09a.7.7 0 0 0 .14 1.11c2.52 1.23 5.88 1.48 8.8 1.73-.27.55-.61 1.07-.87 1.63-.08.18-.12.36-.19.54l-1.22.17c-3.9.47-8 .34-11.71 1.65a.81.81 0 0 0 0 1.56 35.52 35.52 0 0 0 13 1.72c2 4.65 9 6.84 11.62 1.09 3.39-7.27 8.22-13.75 12.84-20.27q2.07-2.89 4.2-5.76l.1.06c-1.72 4.52 21.28 7.94 22.42 8.2 12.26 2.78 24.64 5.93 37.25 5.57l83.69-2.39 99.17-2.82 21.22-.6c-3.46.09 5.85 10.64 8.51 14.75.52.79 1 1.6 1.51 2.4a.69.69 0 0 0 .32.54c2.7 4.29 5.33 8.62 8 12.9-71.67 8.19-146.55 8.89-218.39 9.37-8.6 0-8.61 13.39 0 13.33 75.72-.5 154.85-1.14 230-10.67a7.18 7.18 0 0 0 3-1.11c3.18-1.42 5.24-4.83 3-8.42a5.49 5.49 0 0 0-1.81-2.78c-2.17-3.38-4.43-7.65-6.85-12.2 2.35-.07 4.66-.38 6.46-1.86a.72.72 0 0 0 0-1c-2.39-2-5.87-2.15-9.13-2.06q-1.14-2.07-2.32-4.12c54.37-53.85 111.84-104.87 163.27-161.61C880.32 431 942 488.27 1002.25 547c6.15 6 15.59-3.42 9.42-9.43-61.87-60.35-125.32-119.15-188-178.67-2.52-2.39-7-2.76-9.42 0-8 8.9-16.13 17.62-24.37 26.26-52.31-49.63-105-98.84-157.65-148.15-15-14-29.76-28.56-44.62-43.18q12.21-36.56 24.49-73.09c38.3 6.48 72.54 27.6 109.2 39.63 12.65 4.14 23.93 3 33.66-6.19 6.19-5.86 6.86-11.23 17.19-10.8.41 0 .73-.08 1.12-.09 39.07 36.66 78.4 73.05 117 109.93q83.13 79.47 166.25 159c25.82 24.72 53.53 48.48 77.75 74.81 5.83 6.34 15.23-3.11 9.42-9.43-24.21-26.34-51.92-50.09-77.75-74.81q-79.64-76.26-159.36-152.4c4.58-25.19 8.49-51 15.24-75.73 2.15-.08 4.66-.14 7.78-.24 1 0 1.21-.31 1.22-.59a28 28 0 0 0 2.69 2.74l14 13q54 50.19 107.83 100.48c66 61.52 131.25 123.9 198.06 184.52 6.31 5.73 15.77-3.66 9.39-9.45Zm-817.63-22.49c6.49-8.3 13.48-16.2 20.46-24.08 8.4-9.47 7.92-8.21 20.33-8.59 5.17-.16 20-4 22.65-.88l20.46 23.81c6 7 12.92 19.12 21.42 23.21 7.93 3.82 20.69 5.15 26.36 13-9.92.39-20.66 2.7-27.39 2.9-30.8.95-61.62 1.2-92.42 1.91-16.5.38-32.41-3.05-48.49-6.35 10.83-9.72 26.99-12.56 36.62-24.93Zm11.38 74.71c-26.61.76-49.31-2.53-74.6-7.64 4.18-9.5 9.94-18.5 15-27.48 3.56-6.35 15.53-.52 25.78 1.49 22.31 4.38 43.22 3.28 66.05 2.87 17.33-.31 34.66-.62 52-1 4.14-.1 46.35-2.4 44.87-4.62 7.14 10.71 14.11 21.64 21.62 32.13l-52.18 1.49Zm146.63-411.87c-12 1.19-21.9 5.36-33.28 9.22-7.65 2.59-15.84 1.68-23.93.56 26.39-28.56 54.26-55.91 81.68-83.49q-12.18 36.87-24.47 73.71ZM40.3 525.64C47.94 514 55 501.85 62.49 490.09c0 0 0-.08.07-.13 20.74-17.62 40.85-36 60.93-54.38 7-6.44 7.24-3.51 19-3.29 14.58.27 29.18.65 43.74 1.66 8.28.57 18.75 14.75 24.92 20.3 11.51 10.34 23.14 20.56 34.75 30.79 14.55 12.84 29.62 25.36 43.85 38.66-82.75.77-166.93 7.04-249.45 1.94ZM288 504.15c-12.5-11.18-25.34-22-37.84-33q-19.29-17-38.41-34.18c-6.75-6.11-12.79-15.11-22.37-16-11-1-22.15-1.36-33.24-1.63 98.36-99.91 200.9-196 301.69-293.43C398.32 250.5 346 378.78 288 504.15ZM527.31 136q5-5.72 10.09-11.37c9.29 1 18.75 3.15 28 1.6 12.18-2 23.22-8.32 35-12.28q-11.65 34.77-23.29 69.53c-16.42-16.11-32.93-32.09-49.8-47.48ZM755 138.18c-3.46 3.56-6 7.77-9.61 11.22-8.48 8-23.52.78-32.34-2.65-32.05-12.5-63.77-29.85-98.29-34Q630.44 66 645.84 19.19c38 39.18 77.52 77.16 117.42 114.72a15.14 15.14 0 0 0-8.26 4.27Zm147 63.1-1.27.14c-3.17.38-6.36.39-9.44 1.3a.47.47 0 0 0 0 .89 21.27 21.27 0 0 0 10 1.23c-.29 1.51-.59 3-.87 4.52-1 0-2 .11-3 .2-3.66.32-7.53.4-11 1.61a.47.47 0 0 0 0 .89c3.55 1.14 7.35.62 11 .39.83 0 1.65-.12 2.47-.18-.3 1.63-.6 3.26-.89 4.9-2.73 0-5.46.07-8.24.2-3.57.17-7.48.08-10.62 2a.32.32 0 0 0 .08.58c3.84 1.37 8.29.7 12.31.58a51.66 51.66 0 0 0 6-.5c-.18 1-.36 2-.53 3l-.66.08c-2.33.3-4.86.46-7 1.5a.42.42 0 0 0 0 .72c2.21 1 4.6.74 7 .62h.14l-2.37 13.49q-5.84-5.57-11.7-11.1a5.7 5.7 0 0 0 3.84-1.12.81.81 0 0 0 0-1.15c-1.58-1.36-3.57-1-5.57-1.09h-1.82c-2.53-2.4-5-4.8-7.57-7.19 9-10.65 18.82-20.72 28.31-31 2.51-2.72 4.4-4.78 6-6.4-1.72 6.89-3.22 13.88-4.6 20.89Z" data-color="1"/>
            <path fill="#f8a442" d="M796.49 558.89c-7.15-1.36-14.21-.23-21.43 0-8.29.26-16.69-.5-24.89.94-.48.09-.39.75 0 .88 13.08 4.63 34.05 6.38 46.5-.46a.75.75 0 0 0-.18-1.36Z" data-color="1"/>
            <path fill="#f8a442" d="M801.92 558.27a1.41 1.41 0 0 0 0 2.69 9.11 9.11 0 0 0 10.18-2.21.67.67 0 0 0-.47-1.13c-3.3-.24-6.53-.57-9.71.65Z" data-color="1"/>
            <path fill="#f8a442" d="M834.29 547c-15-.75-31.29-1.79-46.08 1a.29.29 0 0 0 0 .56c14.81 3 31.64 3.83 46.25-.34a.63.63 0 0 0-.17-1.22Z" data-color="1"/>
            <path fill="#f8a442" d="M945.63 563c-22.84-.73-45.69 3.23-68.67 2.79-.61 0-.62.78-.13 1 20 8.18 48.91 3.66 69-2.55a.63.63 0 0 0-.2-1.24Z" data-color="1"/>
            <path fill="#f8a442" d="M966.55 554c-9.51-1.76-20.38-.59-29.71 1.81a.46.46 0 0 0 0 .88 56 56 0 0 0 29.71-.85c.83-.24.99-1.63 0-1.84Z" data-color="1"/>
            <path fill="#f8a442" d="M976.38 552.59c-1.88.4-3.31.86-4.48 2.41a1.22 1.22 0 0 0 .44 1.68 4.89 4.89 0 0 0 3.18.46 13.23 13.23 0 0 0 3-.7c1-.37 1.62-1.14 2.64-1.55a.63.63 0 0 0 0-1.21c-1.67-.56-2.98-1.47-4.78-1.09Z" data-color="1"/>
            <path fill="#f8a442" d="M1104.49 496.89c-18.6-2.6-37.14-2.07-55.86-1.71-18.34.34-37.83-.66-55.83 3.21a.59.59 0 0 0 0 1.12c18 3.81 37.5 2.12 55.83 1.88 18.7-.24 37.31-.39 55.86-3.05a.76.76 0 0 0 0-1.45Z" data-color="1"/>
            <path fill="#f8a442" d="M1114.61 494.75c-.73.09-5.23.72-4.62 2.28s3.07 1.93 4.62 2.12a13.31 13.31 0 0 0 8.71-1.59.72.72 0 0 0 0-1.22 13.31 13.31 0 0 0-8.71-1.59Z" data-color="1"/>
            <path fill="#f8a442" d="M1101 489.7a.75.75 0 0 0 0-1.5c-11.52-1.37-24.84-3-36.21 0a.81.81 0 0 0 0 1.56c11.33 2.91 24.65 1.3 36.21-.06Z" data-color="1"/>
            <path fill="#f8a442" d="M1253.14 481.62c-13.74-2-27.31-2.11-41.18-1.84-13.56.26-27.88-.56-41.08 2.87a.31.31 0 0 0 0 .6c13.21 3.39 27.53 2.27 41.08 2.2 13.85-.07 27.47-.47 41.18-2.51a.69.69 0 0 0 0-1.32Z" data-color="1"/>
            <path fill="#f8a442" d="M1187.81 472.94a.69.69 0 0 0-.18-1.35c-9.58-.66-20.17-2.22-29.47.87a.51.51 0 0 0 0 1c9.47 3.22 20.24 2.47 29.65-.52Z" data-color="1"/>
            <path fill="#f8a442" d="M405.23 562.61c-14.33-6-32.59-10.76-48.27-10.37-.66 0-1 1-.36 1.32 14.17 6.77 32.61 11.93 48.36 11.1a1 1 0 0 0 .27-2.05Z" data-color="1"/>
            <path fill="#f8a442" d="M412.26 557.06a22.63 22.63 0 0 0-9.49-.79.7.7 0 0 0-.42 1 14.67 14.67 0 0 0 7.27 5c2.85 1 6.71 2.23 9.17-.15a.69.69 0 0 0 .18-.69c-.97-2.97-3.97-3.6-6.71-4.37Z" data-color="1"/>
            <path fill="#f8a442" d="M168.1 575.29a.37.37 0 0 0 .09.68 60.18 60.18 0 0 0 12.1 2.87c5.14.59 8.2-.3 12.31-3.37a.61.61 0 0 0-.31-1.13c-8.01-.67-16.48-2.58-24.19.95Z" data-color="1"/>
            <path fill="#f8a442" d="M208.29 571.49c-3.71-.14-7.75.11-11 2.27a.62.62 0 0 0-.12 1 6.61 6.61 0 0 0 6.26 2c2.81-.4 4.2-1.66 5.51-4.07a.8.8 0 0 0-.65-1.2Z" data-color="1"/>
            <path fill="#f8a442" d="M263 568.24c-15.56.17-32.62-.57-47.86 2.82-1.95.44-1.78 3.25 0 3.78 15.31 4.51 33.9 1 48.22-5.28.64-.29.26-1.33-.36-1.32Z" data-color="1"/>
            <path fill="#f8a442" d="M133 576.41c-11.28-.74-22.11.27-33.34 1.23s-22.33 0-33.33 1.35a.63.63 0 0 0-.17 1.23c19.87 7.76 46.75 1.48 67-2.75.57-.13.38-1.03-.16-1.06Z" data-color="1"/>
            <path fill="#f8a442" d="M127.45 570.31a.67.67 0 0 0-.3 1.11c6.48 5.76 17.82 3.74 25.3 1.45a.61.61 0 0 0 0-1.17c-7.52-2.22-17.31-3.35-25-1.39Z" data-color="1"/>
            <path fill="#f8a442" d="M547.77 553.47c.45-.16.58-1 0-1-11.54-1.68-27-2.89-37.58 3a.21.21 0 0 0 .1.39c11.65 1.33 26.3 1.52 37.48-2.39Z" data-color="1"/>
            <path fill="#f8a442" d="M589.76 548.77a.51.51 0 0 0-.13-1c-12.13.62-25.27-1.62-36.22 4.81a.43.43 0 0 0 .22.78c12.27.96 24.3-1.48 36.13-4.59Z" data-color="1"/>
            <path fill="#f8a442" d="M770.44 549.74c-10.22-1.86-20.27-1.45-30.61-1-11.79.58-24.11.38-35.59 3.31a.19.19 0 0 0 0 .36c10 2.37 20.32 1.36 30.51.81 11.92-.64 23.86-.76 35.69-2.45.56-.02.56-.94 0-1.03Z" data-color="1"/>
            <path fill="#f8a442" d="M758.29 536.74a.46.46 0 0 0 0-.92c-14.92-1.57-29.84-1.2-44.83-1-13.22.21-26.87-.52-39.92 1.8a.31.31 0 0 0 0 .6c13.07 2.28 26.71 1.26 39.92 1.19 14.98-.06 29.93-.06 44.83-1.67Z" data-color="1"/>
            <path fill="#f8a442" d="M723.24 521.86c-12.59-.22-25.81-.54-37.74 4a.46.46 0 0 0 .13.9c14.12.1 28.22-.8 42.38-.53 12.74.24 25.58.83 37.76-3.41a.54.54 0 0 0-.14-1.06c-14.12-.39-28.26.35-42.39.1Z" data-color="1"/>
            <path fill="#f8a442" d="M699.52 517.33a50.23 50.23 0 0 0 31.69-.81c.94-.35.87-1.88-.25-1.84-10.37.37-21.21-.07-31.44 1.89-.41.08-.35.65 0 .76Z" data-color="1"/>
            <path fill="#f8a442" d="M709 508.55c9 .79 18.36.25 27.42.41 7.72.14 15.16-.21 22.27-3.4.66-.3.31-1.33-.36-1.32q-14.2.24-28.4 0c-7-.11-15-.08-21.07 3.78a.27.27 0 0 0 .14.53Z" data-color="1"/>
            <path fill="#f8a442" d="M762.29 491c-8.34 0-16.7.05-25 0-3 0-11.16-1.31-13.2 1.8a.29.29 0 0 0 .17.43c4.68 1.43 9.6 1.67 14.66 1.79 7.46.16 17.06 1.3 23.73-2.88a.61.61 0 0 0-.36-1.14Z" data-color="1"/>
            <path fill="#f8a442" d="M722.19 483.31a78.74 78.74 0 0 0 41.57-1.21c.52-.17.45-1-.13-1-13.45.57-28.31-1.72-41.44 1.47a.38.38 0 0 0 0 .74Z" data-color="1"/>
            <path fill="#f8a442" d="M774.29 481.8c-1.08 0-1.64 1.62-.58 2.14 8.4 4.1 20.33 3 28.75-.39a.63.63 0 0 0-.17-1.23c-9.21-.66-18.76-.65-28-.52Z" data-color="1"/>
            <path fill="#f8a442" d="M808.9 482.06a.22.22 0 0 0-.1.38c3.42 3.32 8.79 2.7 13.22 2.58 6-.15 11.85-1.39 17.72-2.32.53-.08.33-.8-.11-.86a94.36 94.36 0 0 0-15.59-.2c-4.88.2-10.43-.81-15.14.42Z" data-color="1"/>
            <path fill="#f8a442" d="M800.29 471.7c-18.23-.39-38.09-.89-56.09 2.24a.36.36 0 0 0 0 .69c18 3 38.3 1.07 56.25-1.79.67-.1.48-1.13-.16-1.14Z" data-color="1"/>
            <path fill="#f8a442" d="M742.77 464.25a.73.73 0 0 0 0 1.4c9.44 2.06 21.15 3.28 30.37-.06a.67.67 0 0 0-.18-1.31c-9.56-.19-20.96-2.9-30.19-.03Z" data-color="1"/>
            <path fill="#f8a442" d="M756 457.25c3.67 3 9.39 2.58 13.86 2.54a64.3 64.3 0 0 0 18.57-3 .52.52 0 0 0-.14-1c-5.51-.12-11-.1-16.5.23-5 .3-10.7-.72-15.61.56a.42.42 0 0 0-.18.67Z" data-color="1"/>
            <path fill="#f8a442" d="M392.16 507.15a.49.49 0 0 0 0 .93c6.08 1.27 12.41 1.15 18.59 1.72 7.31.66 14.39 1.37 21.69.34a.55.55 0 0 0 0-1.05c-12.32-2.09-28.1-5.3-40.28-1.94Z" data-color="1"/>
            <path fill="#f8a442" d="M417.16 500.34a.76.76 0 0 0 0-1.45c-6.5-1.49-14.56-2.63-21-.43a.51.51 0 0 0 0 1c6.37 2.25 14.45 2.3 21 .88Z" data-color="1"/>
            <path fill="#f8a442" d="M400.68 494.66a36.86 36.86 0 0 0 15.08-.54.52.52 0 0 0 0-1c-4.64-1.22-10.88-3.89-15.39-.84-.86.58-.88 2.15.31 2.38Z" data-color="1"/>
            <path fill="#f8a442" d="M360.76 546c4.92 2.33 10.48 1.92 15.84 1.86a67 67 0 0 0 20.49-3.05.51.51 0 0 0-.13-1 119.52 119.52 0 0 0-17.75-.15c-6 .37-12.6-.48-18.36 1.6-.29.08-.43.54-.09.74Z" data-color="1"/>
            <path fill="#f8a442" d="M372.91 539.35a17.11 17.11 0 0 0 7.7-1.86.64.64 0 0 0-.15-1.15 24.68 24.68 0 0 0-8.78-.44c-2.63.2-5.51.28-7.8 1.68a.82.82 0 0 0 .2 1.48c2.77.94 5.92.43 8.83.29Z" data-color="1"/>
            <path fill="#f8a442" d="M431.51 462.48c3.79 2.68 9.6 1.75 14.09 2a77.21 77.21 0 0 0 18.85-1 .58.58 0 0 0 0-1.12c-6.42-1.27-12.27-2.6-18.85-2.93-4.47-.23-10.86-.88-14.14 2.66a.24.24 0 0 0 .05.39Z" data-color="1"/>
            <path fill="#f8a442" d="M447.65 457c2.92.08 4.9-1 7.48-2a.65.65 0 0 0-.17-1.27c-2.74-.22-5-1.06-7.82-.5-1.67.33-3.91.52-4.56 2.37a.4.4 0 0 0 .1.39c1.26 1.2 3.32.91 4.97 1.01Z" data-color="1"/>
            <path fill="#f8a442" d="M121 515.59c-21.26 0-45-2.82-65.56 3.2-.9.26-.76 1.78.22 1.68 21.54-2.12 44.54 2 65.52-3.53a.69.69 0 0 0-.18-1.35Z" data-color="1"/>
            <path fill="#f8a442" d="M89.78 508.18a.59.59 0 0 0-.16-1.15c-9.66-1-21.32-1.73-30.77.87a.4.4 0 0 0 0 .76c9.49 2.71 21.61 2.86 30.93-.48Z" data-color="1"/>
            <path fill="#f8a442" d="M72.12 500.42c2.68 0 5.73-.09 7.38-2.49a.64.64 0 0 0-.23-.86c-2.49-1.27-5.46-.56-8.15-.4-2.48.13-5.07.42-7 2.1a.25.25 0 0 0 .06.39c2.42 1.24 5.27 1.29 7.94 1.26Z" data-color="1"/>
            <path fill="#f8a442" d="M69.29 494.72a14.84 14.84 0 0 0 7.27-1.3.54.54 0 0 0 0-.94 9.22 9.22 0 0 0-7.62-.36 1.33 1.33 0 0 0 .35 2.6Z" data-color="1"/>
            <path fill="#f8a442" d="M105.15 507.63a.71.71 0 0 0 .16-1.29c-3.77-2-9.67-2.69-12.88.74a.76.76 0 0 0 .15 1.18c3.73 1.99 8.71.16 12.57-.63Z" data-color="1"/>
            <path fill="#f8a442" d="M69.15 566.27c-6.21-1.88-12.39-.65-18.72-.09-1.27.11-10.53-.3-10.41 2.1v.19a1.49 1.49 0 0 0 1 1.38c4 1.52 8.6.88 12.79.53a64.36 64.36 0 0 0 15.28-2.75.71.71 0 0 0 .06-1.36Z" data-color="1"/>
            <path fill="#f8a442" d="M42.42 560.7a1.07 1.07 0 0 0 .26 1.94c4.85.93 12.07.65 16-2.58a.63.63 0 0 0-.27-1 23.14 23.14 0 0 0-8.09 0c-2.65.28-5.42.44-7.9 1.64Z" data-color="1"/>
            <path fill="#f8a442" d="M40.69 554.68a.38.38 0 0 0 0 .53c2.87 2.38 7.91.91 10.55-1.11a.57.57 0 0 0-.13-1c-3.11-.86-7.91-.67-10.42 1.58Z" data-color="1"/>
            <path fill="#f8a442" d="M590.63 134.2c-9.38-1.24-19 .16-28.38.7-8.14.47-16.34.32-24.38 1.71a.35.35 0 0 0 0 .68c8.06 1.58 16.21 1 24.38.6 9.48-.46 19.27-.48 28.49-2.87.49-.13.32-.76-.11-.82Z" data-color="1"/>
            <path fill="#f8a442" d="M566.42 142.76c-4.93.19-10.21-.21-14.92 1.39a.49.49 0 0 0 0 .93c4.7 1.6 10 1.2 14.92 1.06s10.26 0 14.82-2.37a.57.57 0 0 0-.13-1c-4.83-1.06-9.8-.21-14.69-.01Z" data-color="1"/>
            <path fill="#f8a442" d="M577.72 151.53a.5.5 0 0 0-.07-.6c-1.48-1.84-4.23-1.25-6.32-1.18s-4.7.07-6.13 1.77a.62.62 0 0 0 .12.95c1.95 1.22 4.79.77 7 .75 1.96 0 4.28.23 5.4-1.69Z" data-color="1"/>
            <path fill="#f8a442" d="M570.62 157.42a.35.35 0 0 0 0 .39c1.15 1.85 4.56 1.77 5.47-.26a.54.54 0 0 0-.08-.65 3.68 3.68 0 0 0-5.39.52Z" data-color="1"/>
            <path fill="#f8a442" d="M582.33 131.28c2.22-.06 4.32.09 6.23-1.22a.52.52 0 0 0 0-.89c-3-2-9.5-1.66-12.17.88a.33.33 0 0 0 .07.52c1.87.85 3.85.75 5.87.71Z" data-color="1"/>
            <path fill="#f8a442" d="M825.63 420.34a182.8 182.8 0 0 0-20.67.55c-6.77.55-14.39-.11-20.76 2.4a.34.34 0 0 0 0 .65c6.39 2.46 14 1.38 20.76 1.07a87.11 87.11 0 0 0 20.83-3.48.61.61 0 0 0-.16-1.19Z" data-color="1"/>
            <path fill="#f8a442" d="M779.69 431.31c2.7 1.11 5.64 1 8.52 1.06a16.21 16.21 0 0 0 7.46-1.2.52.52 0 0 0 0-.89 16.21 16.21 0 0 0-7.46-1.2c-2.88.06-5.82-.05-8.52 1.06a.61.61 0 0 0 0 1.17Z" data-color="1"/>
            <path fill="#f8a442" d="M762.11 438.91a.82.82 0 0 0 .19 1.49c5.28.71 10.67.07 16 0s10.77.26 16-1.48a.67.67 0 0 0 0-1.28c-5.17-1.76-10.55-1.64-16-1.48s-11.19.34-16.19 2.75Z" data-color="1"/>
            <path fill="#f8a442" d="M760.89 445.45c1.56 1.05 3.39 1.08 5.22 1.25s3.15.41 4.45-.82a.71.71 0 0 0 .11-.84c-1.7-2.72-7.43-2.16-9.78-.6a.59.59 0 0 0 0 1.01Z" data-color="1"/>
            <path fill="#f8a442" d="M734.22 474.69c2-.11 3.82-.07 5.46-1.27a.56.56 0 0 0 0-.94c-2.41-1.66-7.75-1.29-10 .48-.33.26-.15.75.13 1 1.31.94 2.76.81 4.41.73Z" data-color="1"/>
            <path fill="#f8a442" d="M707.05 493.48a.51.51 0 0 0 0 .71c1.34 1.19 8.58 2.75 8.58-.36s-7.24-1.54-8.58-.35Z" data-color="1"/>
            <path fill="#f8a442" d="M699.26 506.54c-2.82.14-6.23.22-8.61 1.89a.61.61 0 0 0 .15 1.1c2.75 1 6.05.69 8.89.25a1.6 1.6 0 0 0 1.15-1.15 1.57 1.57 0 0 0-.16-1.27 1.64 1.64 0 0 0-1.42-.82Z" data-color="1"/>
            <path fill="#f8a442" d="M682.38 517.35a.51.51 0 0 0 0 1c2.94 1.15 8.3 2.52 10.49-.59a.68.68 0 0 0-.24-.92c-2.71-1.43-7.48-.51-10.25.51Z" data-color="1"/>
            <path fill="#f8a442" d="M781 532.54a.57.57 0 0 0 0-1c-5-2.14-11.25-2-16.51-.8a.88.88 0 0 0-.21 1.6c4.95 2.87 11.85 3.28 16.72.2Z" data-color="1"/>
            <path fill="#f8a442" d="M854.35 533.28c-8.33-1.84-20.11-1.47-28 2.09-.25.1-.15.45.07.53 4.17 1.39 8.45 1.08 12.8.92a78.87 78.87 0 0 0 15.11-1.53 1 1 0 0 0 .02-2.01Z" data-color="1"/>
            <path fill="#f8a442" d="M886.39 537.82a.48.48 0 0 0 .12.94 65.81 65.81 0 0 0 11.49 0c2.82-.26 5.5-.36 7.76-2.18a.82.82 0 0 0-.17-1.28c-5.32-3.05-14.02.55-19.2 2.52Z" data-color="1"/>
            <path fill="#f8a442" d="M905.74 542.85c3.24 2.22 8.69 1 11.78-.88a.68.68 0 0 0-.16-1.22c-3.35-1.19-9.57-2.65-11.86 1.19a.67.67 0 0 0 .24.91Z" data-color="1"/>
            <path fill="#f8a442" d="M951.74 537.27c4.61-.39 9.21-.68 13.44-2.68.74-.35.44-1.37-.21-1.6-4.91-1.72-10.05-1.08-15.12-.43-4.41.56-9.48 1.16-13 4a.51.51 0 0 0 .22.84c4.57 1.38 9.93.26 14.67-.13Z" data-color="1"/>
            <path fill="#f8a442" d="M979.5 547a.6.6 0 0 0 0-.63c-1.72-2.47-6.54-1.28-8.8-.13a.52.52 0 0 0 0 .89c2.3 1.19 7.08 2.38 8.8-.13Z" data-color="1"/>
            <path fill="#f8a442" d="M957.5 368.49a.48.48 0 0 0-.21.8c3 2.53 8.5 3.39 11.06 0a.59.59 0 0 0-.21-.81c-3.14-1.48-7.29-.68-10.64.01Z" data-color="1"/>
            <path fill="#f8a442" d="M973 365.4a.52.52 0 0 0 0-.9 7.73 7.73 0 0 0-6.75-.49 1 1 0 0 0 0 1.88 7.73 7.73 0 0 0 6.75-.49Z" data-color="1"/>
            <path fill="#f8a442" d="M1019 401.32c3.37-.07 6.34-.1 9.24-2a.7.7 0 0 0-.17-1.26c-3-1-5.91-.77-9.07-.59s-6.55.28-9.35 1.8a.92.92 0 0 0 .21 1.67c2.91.67 6.14.44 9.14.38Z" data-color="1"/>
            <path fill="#f8a442" d="M1004.38 404.78a.72.72 0 0 0 0 1.22 4.72 4.72 0 0 0 6.1-.2.57.57 0 0 0 0-.82 4.73 4.73 0 0 0-6.1-.2Z" data-color="1"/>
            <path fill="#f8a442" d="M1055.22 490.73a.52.52 0 0 0-.12-1c-3.31-1.08-11.84-3.93-14.35-.2a.5.5 0 0 0 .08.61c1.38 1.52 4.29 1.52 6.24 1.73a15 15 0 0 0 8.15-1.14Z" data-color="1"/>
            <path fill="#f8a442" d="M1159.69 507.67c-4.42.58-9.13 1.16-12.86 3.71a.28.28 0 0 0 .06.5c4.67 2 10 1.14 14.9.58 4.56-.51 9-1.12 13.09-3.35a.71.71 0 0 0-.17-1.29c-4.97-1.55-9.95-.82-15.02-.15Z" data-color="1"/>
            <path fill="#f8a442" d="M1163.12 499.65c4 2.94 13 3 15.92-1.51a.61.61 0 0 0-.21-.83c-2.43-1.36-4.77-1.23-7.45-.85s-6 .53-8.26 2.22a.57.57 0 0 0 0 .97Z" data-color="1"/>
            <path fill="#f8a442" d="M1156.06 493.16a.33.33 0 0 0 .07.52c2.73 1.78 8.36 2.2 10.6-.52a1 1 0 0 0-.19-1.47c-2.69-1.92-8.35-1.05-10.48 1.47Z" data-color="1"/>
            <path fill="#f8a442" d="M1208.19 473.88a35.8 35.8 0 0 0 10.91-1.32c.46-.14.53-.91 0-1-6.15-1.11-14.63-2.3-20.48.37-.56.26-.33 1.05.16 1.22 3.02.98 6.22.7 9.41.73Z" data-color="1"/>
            <path fill="#f8a442" d="M861.85 476.5c0-3.43-8.76-1.7-10.44-.75a.88.88 0 0 0 0 1.51c1.68.94 10.44 2.67 10.44-.76Z" data-color="1"/>
            <path fill="#f8a442" d="M864.52 480.55a26.72 26.72 0 0 0-4.79.86.44.44 0 0 0-.1.8 8.57 8.57 0 0 0 4.89 1.13 9 9 0 0 0 4.89-1.57.44.44 0 0 0-.11-.8 13.69 13.69 0 0 0-4.78-.42Z" data-color="1"/>
            <path fill="#f8a442" d="M803.59 523.38c-4-1-7.65-.63-11.74-.15s-8.24.94-11.85 3a.59.59 0 0 0 .14 1.07c7 2.91 17.84 2.15 23.77-2.73a.71.71 0 0 0-.32-1.19Z" data-color="1"/>
            <path fill="#f8a442" d="M789.87 533.94a.4.4 0 0 0 0 .69c1.4.69 7.94 3 7.94-.35s-6.54-1.04-7.94-.34Z" data-color="1"/>
            <path fill="#f8a442" d="M423.53 502c2.44.91 5.44 1.33 7.47-.58a.69.69 0 0 0 0-1c-1.91-1.94-4.94-2.07-7.47-1.42a1.55 1.55 0 0 0 0 3Z" data-color="1"/>
            <path fill="#f8a442" d="M119.11 470.43c-3.26.15-7.37-.3-10.14 1.72a.42.42 0 0 0 0 .72c3.27 1.89 8 1.34 11.61 1.28 3.89-.06 7.47-.19 10.39-3a.65.65 0 0 0-.29-1.08c-3.88-.66-7.68.18-11.57.36Z" data-color="1"/>
            <path fill="#f8a442" d="M111.26 466c1.09 2.64 5.81 1.75 7.81.73 1.81-.91.76-3.34-.95-3.5-1.07-.09-7.77.55-6.86 2.77Z" data-color="1"/>
            <path fill="#f8a442" d="M111.17 460.46c1 .15 6.19.93 5.66-1.44-.69-3.11-4.58-1.42-6 0a.88.88 0 0 0 .34 1.44Z" data-color="1"/>
            <path fill="#f8a442" d="M279.6 576c-3 0-8.06.17-10.12 2.59a.85.85 0 0 0 0 1.18c2.16 2.45 7.19 1.87 10.12 1.72a2.78 2.78 0 0 0 2.37-1.36 2.65 2.65 0 0 0 0-2.77 2.7 2.7 0 0 0-2.37-1.36Z" data-color="1"/>
            <path fill="#f8a442" d="M246.65 591.45a9.09 9.09 0 0 0-5.51 2.35.69.69 0 0 0 .3 1.14 13.1 13.1 0 0 0 5.74.47A9.68 9.68 0 0 0 253 593c.34-.25.38-.88-.13-1-2.35-.5-3.74-.9-6.22-.55Z" data-color="1"/>
            <path fill="#f8a442" d="M335.8 563.82c-4.26.1-8.88.25-12.28 3-.29.23-.09.66.2.77 4.41 1.53 9.53.67 14.13.61a50 50 0 0 0 14.15-1.8.58.58 0 0 0 0-1.12 69.28 69.28 0 0 0-16.2-1.46Z" data-color="1"/>
            <path fill="#f8a442" d="M884 561c2.32 1.57 5.81 1.31 8.52 1.38a13.05 13.05 0 0 0 8.68-2.87.92.92 0 0 0-.46-1.71 39.74 39.74 0 0 0-8.78.44c-2.54.41-5.77.26-8 1.75A.59.59 0 0 0 884 561Z" data-color="1"/>
            <path fill="#f8a442" d="M714.26 411.63a.51.51 0 0 0 0 .86c2.92 1.82 8.2 3 11 .64a2 2 0 0 0-.4-3.12c-2.86-1.6-7.92-.01-10.6 1.62Z" data-color="1"/>
            <path fill="#f8a442" d="M736.75 404.52a.66.66 0 0 0-.46-1.11c-4-.32-9.69-1.7-13.33.78a.89.89 0 0 0 .21 1.6 38.88 38.88 0 0 0 7.77 1 6.26 6.26 0 0 0 5.81-2.27Z" data-color="1"/>
            <path fill="#f8a442" d="M563.85 295.33c-5.51.16-11.18-.07-16.56 1.22a.42.42 0 0 0 0 .8c4.67 1.11 9.45.94 14.22.95 5.49 0 11 0 16.24-1.8.38-.13.48-.8 0-.88-4.64-.79-9.22-.42-13.9-.29Z" data-color="1"/>
            <path fill="#f8a442" d="M552.09 305.94a.4.4 0 0 0 .1.72c5.34 1.54 12.24 1.68 17.35-.66a.71.71 0 0 0 0-1.22c-5.22-2.39-12.6-2.04-17.45 1.16Z" data-color="1"/>
            <path fill="#f8a442" d="M659.72 305a.63.63 0 0 0 .13-1c-3-2.78-6.35-2.61-10.29-2.66-3.76 0-8.31.07-11.67 1.91a.36.36 0 0 0 0 .61c3 1.61 6.69 1.57 10 1.77 4.11.3 8 1.06 11.83-.63Z" data-color="1"/>
            <path fill="#f8a442" d="M641 310.33a.46.46 0 0 0 0 .79c1.53.94 10.15 3.5 10.15-.4s-8.67-1.33-10.15-.39Z" data-color="1"/>
            <path fill="#f8a442" d="M518.19 197c-7.43-1.48-14.92-1-22.47-.78-8.75.28-17.57.15-26.2 1.73a.4.4 0 0 0 0 .76 140.1 140.1 0 0 0 48.67-.83.46.46 0 0 0 0-.88Z" data-color="1"/>
            <path fill="#f8a442" d="M496.87 204c-6.91-1.79-16.14-2.5-22.89.14a.34.34 0 0 0 0 .65c6.77 2.59 15.87 1.21 22.89.14.48-.03.43-.77 0-.93Z" data-color="1"/>
            <path fill="#f8a442" d="M438.42 337.92a.38.38 0 0 0 0 .72c7.74 1.2 15.48 1.27 23.32 1.34 9.26.08 19 .83 28-1.66a.51.51 0 0 0 0-1c-9.12-2-18.75-1-28-.88-7.83.16-15.59.28-23.32 1.48Z" data-color="1"/>
            <path fill="#f8a442" d="M476.08 328.75c-1.8.14-4.91-.22-6.16 1.39a.21.21 0 0 0 0 .25c1 2 4.37 1.7 6.19 1.71a16.37 16.37 0 0 0 8.52-1.75.61.61 0 0 0-.15-1.1c-2.86-.88-5.48-.72-8.4-.5Z" data-color="1"/>
            <path fill="#f8a442" d="M615.55 396.87c-12.76-3.15-29.19-.77-42 1.45a.42.42 0 0 0 0 .81c6.45 1 12.89.73 19.39.39 7.53-.4 15.24-.1 22.65-1.61a.54.54 0 0 0-.04-1.04Z" data-color="1"/>
            <path fill="#f8a442" d="M586.18 404.16a.48.48 0 0 0 .21.8c2.48.74 5.17.54 7.74.73a15.67 15.67 0 0 0 8.18-1.22c.41-.18.25-.76-.11-.88-4.54-1.42-12.11-3.05-16.02.57Z" data-color="1"/>
            <path fill="#f8a442" d="M554.18 238.26c-4.33.24-9 .36-13.1 1.88a.38.38 0 0 0 0 .72c4.13 1.5 8.75 1.38 13.1 1.39 4.1 0 8.05.27 11.77-1.63a.65.65 0 0 0 0-1.12c-3.76-1.88-7.66-1.5-11.77-1.24Z" data-color="1"/>
            <path fill="#f8a442" d="M557.78 244.65a.42.42 0 0 0-.11.41c1 2.82 6.81 2.23 8.7.84a.61.61 0 0 0 .11-.92c-1.64-2.08-6.88-2.4-8.7-.33Z" data-color="1"/>
            <path fill="#f8a442" d="M704.43 243.25c3.46 1.75 7.58 1.59 11.39 1.64 4.33.05 9.47.94 13.2-1.68a.57.57 0 0 0 0-1c-3.32-2.34-7.47-1.73-11.36-1.69-4.34 0-9.26-.35-13.23 1.65a.62.62 0 0 0 0 1.08Z" data-color="1"/>
            <path fill="#f8a442" d="M730.48 249.8a.57.57 0 0 0 0-.82 6.76 6.76 0 0 0-8.16.22.28.28 0 0 0 0 .38 6.73 6.73 0 0 0 8.16.22Z" data-color="1"/>
            <path fill="#f8a442" d="M844.35 268.2a.52.52 0 0 0-.24-.59c-1.91-1.35-4.53-.3-6.67-.18-3 .17-6 0-8.82 1.08a.46.46 0 0 0 0 .88 24.47 24.47 0 0 0 9.79 1.48c2.19-.05 5.25-.15 5.94-2.67Z" data-color="1"/>
            <path fill="#f8a442" d="M831.54 274.86c-.24.19-.11.53.09.69 2.06 1.56 6.16 1.85 8.13 0a.52.52 0 0 0 .08-.6c-1.57-2.82-6.27-1.76-8.3-.09Z" data-color="1"/>
            <path fill="#f8a442" d="M892.06 326.43c-3.37-.48-6.43.17-9.77.6s-6.75.59-9.73 2.05a.37.37 0 0 0 .08.66c3.1 1 6.44.64 9.65.46 3.5-.19 6.91-.53 10-2.36.46-.31.46-1.31-.23-1.41Z" data-color="1"/>
            <path fill="#f8a442" d="M878.18 334.53a.4.4 0 0 0 .06.48c1.68 2.11 6.07 1.09 6.88-1.39a.87.87 0 0 0-.6-1.05c-1.83-.74-5.22.34-6.34 1.96Z" data-color="1"/>
            <path fill="#f8a442" d="M875.85 320.16c-5.63-.71-12.38-.4-17.53 2.22a.4.4 0 0 0 .09.72c5.55 1.77 12.24.23 17.65-1.39a.79.79 0 0 0-.21-1.55Z" data-color="1"/>
            <path fill="#f8a442" d="M794.67 316.41c-7-1.42-14.19-.41-21.27.17s-14.5 1.14-21.18 3.69a.25.25 0 0 0 .07.49c7 .78 14.12-.32 21.11-.89s14.39-.45 21.27-2.38a.56.56 0 0 0 0-1.08Z" data-color="1"/>
            <path fill="#f8a442" d="M771.73 322.73a.47.47 0 0 0 0 .89c3.12 1 6.73 1.84 9.74 0a.57.57 0 0 0 0-1c-3.01-1.73-6.62-.93-9.74.11Z" data-color="1"/>
            <path fill="#f8a442" d="M1002.86 310.64a1.3 1.3 0 0 0 .57-2.16c-1.87-1.55-4.35-1.3-6.69-1.29s-5.29.13-7.31 1.41a.4.4 0 0 0 0 .69c1.84 1.14 4.2 1.08 6.31 1.18s4.98.85 7.12.17Z" data-color="1"/>
            <path fill="#f8a442" d="M992.1 314.53a.29.29 0 0 0 0 .39c1.42 1.78 5.2 2.11 6.53.13a.63.63 0 0 0 0-.65c-1.33-1.98-5.11-1.65-6.53.13Z" data-color="1"/>
            <path fill="#f8a442" d="M1136.79 428.52c-7.14.53-14.5.16-21.48 1.85a.37.37 0 0 0 0 .71c12.9 3.75 30.52 1.45 43.35-2.08a.52.52 0 0 0-.14-1c-7.28-.61-14.46 0-21.73.52Z" data-color="1"/>
            <path fill="#f8a442" d="M1140.52 439a25.17 25.17 0 0 0 8.39-1.4c.56-.2.68-1.11 0-1.25-5-1-12.52-2.15-16.9 1a.57.57 0 0 0 .13 1c2.66.95 5.61.65 8.38.65Z" data-color="1"/>
            <path fill="#f8a442" d="M315.63 414.89a.61.61 0 0 0 0-1.21c-24.52-2.63-49.77-1.18-74.39-1.17-22.81 0-47.87-2.7-70.38 1.41a.37.37 0 0 0 0 .72c22.51 4.11 47.57 1.4 70.38 1.41 24.62.01 49.87 1.46 74.39-1.16Z" data-color="1"/>
            <path fill="#f8a442" d="M257.44 404.77c19.85-.2 39.69.17 59.52-.65a.5.5 0 0 0 0-1c-19.79-2.15-39.64-1.8-59.52-1.62-16 .15-32.8-.91-48.61 1.65a.49.49 0 0 0 0 .93c15.81 2.5 32.67.84 48.61.69Z" data-color="1"/>
            <path fill="#f8a442" d="M255.48 429.2c15.17.14 30.36.46 45.48-.81a.44.44 0 0 0 0-.88c-14-1.2-28.06-1.11-42.13-1.18-13-.06-27.13-1.5-40 .93a.37.37 0 0 0 0 .71c11.85 2.25 24.68 1.12 36.65 1.23Z" data-color="1"/>
            <path fill="#f8a442" d="M249.86 436.6c-.33.06-.34.64 0 .69 18.29 2.8 40.66 1.83 58.9-1.19a.51.51 0 0 0 0-1c-18.3-2.81-40.64-1.48-58.9 1.5Z" data-color="1"/>
            <path fill="#f8a442" d="M269.43 446.12a.52.52 0 0 0 0-1c-7.5-1.75-16.53-.77-24.14 0-.39 0-.7.65-.23.85 7.24 3.1 16.94 2.03 24.37.15Z" data-color="1"/>
            <path fill="#f8a442" d="M288.81 446.28a.7.7 0 0 0 0-1.33 24.23 24.23 0 0 0-7.72-.93c-2.2 0-4.67-.12-6.62 1a.31.31 0 0 0 0 .54c1.95 1.15 4.4 1.1 6.62 1.29a19 19 0 0 0 7.72-.57Z" data-color="1"/>
            <path fill="#f8a442" d="M297.8 454.66c-6.71-1.24-13.23-1-20-.58-7.68.46-15.79.53-23.22 2.63a.25.25 0 0 0 0 .48c12.85 3.94 30.22 1.4 43.24-1.28a.65.65 0 0 0-.02-1.25Z" data-color="1"/>
            <path fill="#f8a442" d="M284.75 466.06a.47.47 0 0 0 0-.89c-5.89-1.37-15.42-3.65-20.62.62-.14.11-.05.33.1.38 3.11 1.05 6.84.68 10.1.77a43.32 43.32 0 0 0 10.42-.88Z" data-color="1"/>
            <path fill="#f8a442" d="M272.52 471.9a.4.4 0 0 0 0 .76c6.71 2.47 15.48 1.69 22.25-.19.49-.14.55-.94 0-1-6.88-1.34-15.57-2.03-22.25.43Z" data-color="1"/>
            <path fill="#f8a442" d="M287.3 481c-3.07-2.12-9.12-2.06-11.59 1-.13.16-.16.46.07.56 3.29 1.4 9 2.75 11.67-.49a.7.7 0 0 0-.15-1.07Z" data-color="1"/>
            <path fill="#f8a442" d="M282.7 488.55c-.56.43-.84 1.52 0 1.88 1.29.56 5.76 1.45 5.76-1.15s-4.61-1.6-5.76-.73Z" data-color="1"/>
            <path fill="#f8a442" d="M237 395.34c13.91.22 27.82.76 41.44-2.45a.63.63 0 0 0-.17-1.23c-24.66-.44-49.4.09-74 1.64a.32.32 0 0 0-.08.62c9.97 3.67 22.32 1.26 32.81 1.42Z" data-color="1"/>
            <path fill="#f8a442" d="M325 390.34c-7.41 0-14.81-.08-22.21-.06-6.35 0-13.09-.64-18.93 2.1a.28.28 0 0 0 .07.5c6.07 1.41 12.64.41 18.86.41 7.61 0 14.91-.14 22.37-1.76.64-.14.47-1.18-.16-1.19Z" data-color="1"/>
            <path fill="#f8a442" d="M301.62 384.72c-22.9-2.38-46.67-1.79-69.66-.83a.39.39 0 0 0-.11.77c9.2 2.67 19 1.76 28.51 1.83 13.78.09 27.53.73 41.26-.65a.56.56 0 0 0 0-1.12Z" data-color="1"/>
            <path fill="#f8a442" d="M265 376a.42.42 0 0 0 0-.83c-10.43-1-20.74-1.06-31.2-1.05-7.24 0-15.71-1.22-22.56 1.48a.33.33 0 0 0 .09.65A324.93 324.93 0 0 0 265 376Z" data-color="1"/>
            <path fill="#f8a442" d="M278.29 375.41a.21.21 0 0 0-.05.41c8.21 3.17 18.14 1.7 26.83 2.2 10.79.61 21.63 1.35 32.34-.3a.46.46 0 0 0 0-.88c-18.76-3.09-40.22-3.84-59.12-1.43Z" data-color="1"/>
            <path fill="#f8a442" d="M243.87 365a.31.31 0 0 0 0 .6c10.58 2.29 22.33.39 33.12.43 15.69.05 31.3.6 47-.58a.48.48 0 0 0 0-1c-25.88-2.12-54.5-4.55-80.12.55Z" data-color="1"/>
            <path fill="#f8a442" d="M258.43 354.88c6.83 0 13.33-.2 20-1.84a.44.44 0 0 0-.12-.86c-12.58-.08-24.8-.31-37.33 1a.42.42 0 0 0-.11.82c5.4 2.28 11.81.87 17.56.88Z" data-color="1"/>
            <path fill="#f8a442" d="M302.43 353.45a.52.52 0 0 0 0-1 68.59 68.59 0 0 0-8.43-1.39c-2.64-.28-6-.68-8.34.72a.59.59 0 0 0 0 1c2.2 1 4.79.81 7.18 1a33.14 33.14 0 0 0 9.59-.33Z" data-color="1"/>
            <path fill="#f8a442" d="M347.29 342.64c-24.22-3.08-49.76-1.31-74 1.1a.21.21 0 0 0-.05.41c10.61 3.34 22.6 1.25 33.6 1 13.52-.29 27 .42 40.45-1.24a.65.65 0 0 0 0-1.27Z" data-color="1"/>
            <path fill="#f8a442" d="M354.79 334c-15.67-2.7-32.82.45-48.5 2.19a.4.4 0 0 0 0 .79 205.65 205.65 0 0 0 48.5-1.81.61.61 0 0 0 0-1.17Z" data-color="1"/>
            <path fill="#f8a442" d="M275.62 326.87a.42.42 0 0 0-.21.77c4.79 2.64 10.57 2.53 15.9 2.69a96.43 96.43 0 0 0 21.12-1.53.54.54 0 0 0 0-1c-5.43-1-10.82-.69-16.31-.55-6.8.13-13.75-.85-20.5-.38Z" data-color="1"/>
            <path fill="#f8a442" d="M299 316.91a.37.37 0 0 0-.1.73c8.35 2.59 17.39 1.55 26.06 1.77 12 .3 23.79 1.17 35.71-.27a.53.53 0 0 0 0-1.05c-20.34-2.71-41.31-2.67-61.67-1.18Z" data-color="1"/>
            <path fill="#f8a442" d="M331.42 328.43a.51.51 0 0 0 0-1c-3.89-.93-10.09-2.9-13.7-.26a.49.49 0 0 0 0 .83c1.75 1 4 .87 5.94 1.07a23.58 23.58 0 0 0 7.76-.64Z" data-color="1"/>
            <path fill="#f8a442" d="M352 308.24a.63.63 0 0 0 0-1.25 251.25 251.25 0 0 0-65.74 1.36.28.28 0 0 0 0 .53c20.9 3.19 44.74 1.93 65.74-.64Z" data-color="1"/>
            <path fill="#f8a442" d="M330.57 297.4a.22.22 0 0 0-.06.41c3.53 1.9 7.62 2 11.55 2.28 5.27.44 10.53.61 15.7-.66a.51.51 0 0 0 0-1c-4.54-1.13-9.1-1.22-13.76-1.39-4.4-.11-9.15-.86-13.43.36Z" data-color="1"/>
            <path fill="#f8a442" d="M365.22 292.4a.52.52 0 0 0-.12-.95c-6-.95-12.41-.36-18.47-.19a.36.36 0 0 0-.1.7c5.94 1.49 12.88 3.23 18.69.44Z" data-color="1"/>
            <path fill="#f8a442" d="M358 285.49a.54.54 0 0 0 .14-1.06c-15.24-4-33.48-2-48.88.59-.27 0-.25.47 0 .52 15.34 3.38 33.02.16 48.74-.05Z" data-color="1"/>
            <path fill="#f8a442" d="M347 276.28a.34.34 0 0 0-.09.66c10.18 2.83 21.62 2.68 32.09 2 .38 0 .5-.6.09-.7-10.33-2.39-21.6-2.36-32.09-1.96Z" data-color="1"/>
            <path fill="#f8a442" d="M368.29 270.74a.46.46 0 0 0 0-.92c-11.61-1.54-24.83-3.11-36.41-.84a.31.31 0 0 0 0 .6c11.52 2.42 24.76 2.57 36.41 1.16Z" data-color="1"/>
            <path fill="#f8a442" d="M371.93 262.17c-5.24.17-10.44-1-15.64-.85a.3.3 0 0 0-.15.55c7.24 5.5 21.88 3.95 29.95 1.23a.5.5 0 0 0-.13-1c-4.7-.46-9.32-.1-14.03.07Z" data-color="1"/>
            <path fill="#f8a442" d="M375.75 255.06a.47.47 0 0 0 0-.89c-12.18-2.16-26.29-3.89-38.23.07-.41.13-.36.8.11.77 12.66-.86 25.59 1.92 38.12.05Z" data-color="1"/>
            <path fill="#f8a442" d="M370.63 244.87a.41.41 0 0 0-.12.81c8.4 3.22 18.56 3.46 27.25 1.42.58-.14.39-.93-.13-1a253.63 253.63 0 0 0-27-1.23Z" data-color="1"/>
            <path fill="#f8a442" d="M382 238.68a.4.4 0 0 0 .1-.78c-7.05-2.13-14.84-2.16-22.1-1.28-.34 0-.5.59-.09.65 7.19.97 14.76 2.22 22.09 1.41Z" data-color="1"/>
            <path fill="#f8a442" d="M380.17 229.53c-.47.07-.35.7 0 .84 7.31 2.94 16.73 1.31 23.9-1.35a.42.42 0 0 0-.11-.82 95.91 95.91 0 0 0-23.79 1.33Z" data-color="1"/>
            <path fill="#f8a442" d="M385.56 224.39c2.89.22 5.32.24 8-1a.52.52 0 0 0-.12-1 45.37 45.37 0 0 0-9-1.09c-2.64-.11-5.6-.1-7.69 1.71a.3.3 0 0 0 .13.49c2.76.84 5.83.67 8.68.89Z" data-color="1"/>
            <path fill="#f8a442" d="M396.25 212.38c-3.63-.33-7.16-.74-10.74.15a.44.44 0 0 0 0 .84 66.18 66.18 0 0 0 10.74 1.9c3.67.44 7.28.93 10.61-.93a.46.46 0 0 0-.11-.83c-3.41-.96-6.99-.82-10.5-1.13Z" data-color="1"/>
            <path fill="#f8a442" d="M407.75 204.84c-3.08.08-6.27-.23-9.2.83a.29.29 0 0 0 0 .56c2.89 1.09 6.14 1.08 9.2 1.24 3.23.17 6.22.1 9.1-1.47a.45.45 0 0 0-.11-.81 41.56 41.56 0 0 0-8.99-.35Z" data-color="1"/>
            <path fill="#f8a442" d="M412.14 199.92a.36.36 0 0 0-.09-.65 73.29 73.29 0 0 0-8.12-.51c-3.25-.08-6.62-.6-9.73.51a.36.36 0 0 0 0 .69c5.15 1.97 12.88 2.3 17.94-.04Z" data-color="1"/>
            <path fill="#f8a442" d="M412.69 191.57c-2.72-.07-5.21-.15-7.79.83a.22.22 0 0 0 0 .43 20.44 20.44 0 0 0 6.85 1.19c2.39.11 4.56.37 6.75-.71a.42.42 0 0 0 0-.72c-1.9-.96-3.72-.96-5.81-1.02Z" data-color="1"/>
            <path fill="#f8a442" d="M414.2 187.27a.37.37 0 0 0-.16.6c1.59 1.32 4.65 2.47 6.27.77a.51.51 0 0 0 .08-.61c-1.11-2.13-4.31-1.48-6.19-.76Z" data-color="1"/>
            <path fill="#f8a442" d="M414.08 179.92a.42.42 0 0 0 .1.76c3.24.79 8.4 1.63 11.12-.73.3-.26.09-.67-.21-.8-3.02-1.22-8.22-1-11.01.77Z" data-color="1"/>
            <path fill="#f8a442" d="M424.27 171.67a.71.71 0 0 0 0 1.22c2.05 1.11 6.39 2.1 8.12.15a.62.62 0 0 0 0-.85c-1.62-1.93-6.04-1.56-8.12-.52Z" data-color="1"/>
            <path fill="#f8a442" d="M342.64 264.2c2.95.21 6 .34 8.59-1.12a.54.54 0 0 0 0-.93c-2.38-1.33-4.7-1.16-7.38-1.13-2.87 0-6.1.08-8.76 1.25a.4.4 0 0 0 0 .69c2.36 1.04 5.01 1.04 7.55 1.24Z" data-color="1"/>
            <path fill="#f8a442" d="M306 298.74a59.31 59.31 0 0 0 11.45-1.27.54.54 0 0 0 0-1 41 41 0 0 0-11.45-.57c-3.31.21-6.82 0-9.84 1.47a.29.29 0 0 0 0 .5c3.05 1.48 6.49.97 9.84.87Z" data-color="1"/>
            <path fill="#f8a442" d="M283.24 319.43c4.34.25 8.37.45 12.52-1 .43-.15.52-.86 0-1a63.36 63.36 0 0 0-10.75-.85c-4.16-.1-8.5-.73-12.48.65a.37.37 0 0 0 0 .71c3.4 1.28 7.11 1.28 10.71 1.49Z" data-color="1"/>
            <path fill="#f8a442" d="M265.16 342.29c.32-.14.21-.65-.1-.72-5.88-1.42-13.74-1.14-19.3 1.37-.41.18-.14.7.2.74 5.95.75 13.61 1.13 19.2-1.39Z" data-color="1"/>
            <path fill="#f8a442" d="M322.44 353.82a.56.56 0 0 0 0-1.08c-3.67-1.09-9.17-2-12.38.64-.22.18-.06.47.14.56 3.52 1.47 8.65.9 12.24-.12Z" data-color="1"/>
            <path fill="#f8a442" d="M329.3 365.29a.46.46 0 0 0 .09.72c2.71 1.36 7.5 1.56 10.15 0a.51.51 0 0 0 0-.87c-2.6-1.58-7.93-2.32-10.24.15Z" data-color="1"/>
            <path fill="#f8a442" d="M217 384.67c2.32-.06 4.43 0 6.59-.94a.52.52 0 0 0 0-.9c-3.74-1.64-10.05-1.79-13.13 1.24a.29.29 0 0 0 .13.49 28.61 28.61 0 0 0 6.41.11Z" data-color="1"/>
            <path fill="#f8a442" d="M194.91 404.44c3.25-.32 6.21-.59 8.76-2.77a.54.54 0 0 0-.24-.91c-3.34-.6-6.41.15-9.76.54-3 .36-6 .54-8.54 2.38a.32.32 0 0 0 .08.57c3.19.99 6.43.51 9.7.19Z" data-color="1"/>
            <path fill="#f8a442" d="M357.53 308.19a.6.6 0 0 0 0 .85c2.52 2 7.33 1.9 10.12.52a.71.71 0 0 0 0-1.22c-2.76-1.43-7.5-2.18-10.12-.15Z" data-color="1"/>
            <path fill="#f8a442" d="M349.83 245.12c3.68 1.33 10.28 3.32 13.25-.05a.65.65 0 0 0-.13-1c-3.52-2-9.23-1.66-13.12-.61a.87.87 0 0 0 0 1.66Z" data-color="1"/>
            <path fill="#f8a442" d="M372.66 224.65a.53.53 0 0 0 .08-.63c-1.76-2.58-7-2.47-8.74.1a.34.34 0 0 0 .12.45c2.09 1.43 6.78 2.34 8.54.08Z" data-color="1"/>
            <path fill="#f8a442" d="M431.77 160.94c-.75.08-5.62.4-4.9 2.12s3.26 1.69 4.9 1.51c2.3-.25 2.33-3.87 0-3.63Z" data-color="1"/>
            <path fill="#f8a442" d="M439.32 154.18c-1.78 0-3.71.26-4.7 1.9a.38.38 0 0 0 .06.48 7 7 0 0 0 4.64 1.16c2.28.01 2.28-3.6 0-3.54Z" data-color="1"/>
            <path fill="#f8a442" d="M264.08 328.56c2.87-.07 6-.21 8.2-2.29a.46.46 0 0 0-.2-.76c-2.56-1-5.33-.43-8-.17s-5.65.21-8.26 1.37a.28.28 0 0 0 0 .47c2.52 1.48 5.43 1.45 8.26 1.38Z" data-color="1"/>
            <path fill="#f8a442" d="M226.58 366.7c2.53 0 5.11.13 7.33-1.27a.57.57 0 0 0 0-1c-2-1.21-4.08-1.11-6.31-1a27.06 27.06 0 0 0-8.43 1.37.46.46 0 0 0 0 .88 19.38 19.38 0 0 0 7.41 1.02Z" data-color="1"/>
            <path fill="#f8a442" d="M206 387.36a.59.59 0 0 0-.26-1 25.56 25.56 0 0 0-10.62.41.5.5 0 0 0-.12.91 8.72 8.72 0 0 0 11-.32Z" data-color="1"/>
            <path fill="#f8a442" d="M232.75 435.5c-2.89 0-6.34 0-8.65 1.92a.27.27 0 0 0 0 .39c2 1.66 4.68 1.75 7.23 1.92a26.77 26.77 0 0 0 11.43-1.28c.39-.13.57-.74.13-.95a21.87 21.87 0 0 0-10.14-2Z" data-color="1"/>
            <path fill="#f8a442" d="M312.55 421.2a30.41 30.41 0 0 0-7.4 1.25.53.53 0 0 0-.12.95c3.43 2.43 10.26 3.49 13.33.28a.57.57 0 0 0 0-.79c-1.76-1.81-3.36-1.89-5.81-1.69Z" data-color="1"/>
            <path fill="#f8a442" d="M326.88 382.27c-2.23 0-6.15.11-7.75 1.85a.22.22 0 0 0 0 .32c1.68 1.4 4.62 1.25 6.72 1.49 3.2.36 6.6.67 9.45-1.05a.69.69 0 0 0 0-1.19c-2.6-1.61-5.46-1.47-8.42-1.42Z" data-color="1"/>
            <path fill="#f8a442" d="M352 325c-2 .21-4.1.28-5.79 1.4a.25.25 0 0 0 0 .43c2.87 2 9.59 3 12.07.07a.89.89 0 0 0-.17-1.37c-2.02-1.21-3.94-.78-6.11-.53Z" data-color="1"/>
            <path fill="#f8a442" d="M330.3 277.54a.69.69 0 0 0 0-1.19c-2.16-1.42-4.82-1.32-7.33-1.42a29.18 29.18 0 0 0-9.4 1.13.23.23 0 0 0 0 .44c4.52 1.42 12.37 3.81 16.73 1.04Z" data-color="1"/>
            <path fill="#f8a442" d="M388.88 206.88a1.46 1.46 0 0 0 .88-2.15 1.46 1.46 0 0 0-1.27-.72c-2.38 0-5.3 0-7.36 1.33a.33.33 0 0 0 0 .55 9.58 9.58 0 0 0 7.75.99Z" data-color="1"/>
            <path fill="#f8a442" d="M555.46 151.7a.61.61 0 0 0-.26 1c1.63 1.52 6.66 2.82 7.38-.26.66-2.77-6.23-.96-7.12-.74Z" data-color="1"/>
            <path fill="#f8a442" d="M576.25 164.45a.65.65 0 0 0-.17-.63c-1.55-1.2-3.44-.45-5.24-.32s-3.92.05-5.66.92a.23.23 0 0 0 0 .36c1.82 2.3 10.12 3.28 11.07-.33Z" data-color="1"/>
            <path fill="#f8a442" d="M576.33 168.22c-.64 0-4.26.35-3.67 1.81.85 2.12 6.27 1.39 4.9-1.1a1.44 1.44 0 0 0-1.23-.71Z" data-color="1"/>
            <path fill="#f8a442" d="M660.63 179.68a46.23 46.23 0 0 0-10.76.79c-3.37.48-7 .57-10.12 2.12a.42.42 0 0 0 .1.76c3.29 1.21 7 .62 10.44.22a30.34 30.34 0 0 0 10.64-2.77c.58-.29.25-1.08-.3-1.12Z" data-color="1"/>
            <path fill="#f8a442" d="M668.4 185.35a.42.42 0 0 0 0-.8c-3-.86-6-1.61-8.94.11a.33.33 0 0 0 .08.61 14.2 14.2 0 0 0 8.86.08Z" data-color="1"/>
            <path fill="#f8a442" d="M816.44 208.76c-9.55-1.9-19.55-.65-29.23-.11-11.32.64-22.79.84-34 2.66-.37.07-.24.59.08.62 11.26 1 22.65 0 33.92-.41 9.7-.35 19.72.3 29.23-1.72a.54.54 0 0 0 0-1.04Z" data-color="1"/>
            <path fill="#f8a442" d="M800.63 217.14c3.09 0 5.75-.08 8.54-1.5a.42.42 0 0 0-.1-.76 27.82 27.82 0 0 0-8.44-.7c-2.94.11-6 .1-8.55 1.74a.42.42 0 0 0 .1.76c2.75.7 5.63.44 8.45.46Z" data-color="1"/>
            <path fill="#f8a442" d="M1047.32 515.61a1.39 1.39 0 0 0 .33-2.52c-1.76-1-4.16-.67-6.13-.66-1.55 0-3.66.14-5 1.12a.35.35 0 0 0 0 .58c1.16.88 2.75 1 4.15 1.13 2.08.26 4.68.89 6.65.35Z" data-color="1"/>
            <path fill="#f8a442" d="M1041.4 520.55c-.46.21-.18.83.23.86 2.26.17 5.84 1.53 7.51-.51a.57.57 0 0 0 0-.79c-1.83-2.22-5.61-.52-7.74.44Z" data-color="1"/>
            <path fill="#f8a442" d="M1136.18 521c-3.82 0-8.78.24-12 2.43a.27.27 0 0 0 0 .47c3.2 1.55 7 1.2 10.5 1.34 3.1.13 7.34 1.4 9.71-1.06a.73.73 0 0 0 .11-.88c-1.7-2.92-5.37-2.3-8.32-2.3Z" data-color="1"/>
            <path fill="#f8a442" d="M1139.44 527.78c-2.43.07-4.84.41-6.74 2a.69.69 0 0 0 .3 1.14 18.71 18.71 0 0 0 6.44 1c2.66.02 2.66-4.22 0-4.14Z" data-color="1"/>
            <path fill="#f8a442" d="M1195.48 543.72a2 2 0 0 0 1.76-1 1.8 1.8 0 0 0 .2-1.56 2 2 0 0 0-2-1.5c-5.81-.5-13.39 0-18.85 2.23a.42.42 0 0 0 0 .8c5.68 2.14 12.94.67 18.89 1.03Z" data-color="1"/>
            <path fill="#f8a442" d="M1191.91 545.6c-1.79 0-4.3 0-5.69 1.27a.42.42 0 0 0 0 .59c1.38 1.22 3.5 1.09 5.26 1.33 2.27.3 4.45.61 6.5-.58a.7.7 0 0 0 .13-1.08c-1.81-1.64-3.85-1.58-6.2-1.53Z" data-color="1"/>
            <path fill="#f8a442" d="M1194.62 551.14a7.19 7.19 0 0 0-5.73 2 .45.45 0 0 0 0 .6c1.54 1.68 4.7 1.45 6.51.34a1.56 1.56 0 0 0-.78-2.94Z" data-color="1"/>
            <path fill="#f8a442" d="M951 586.6c-2.33 0-5.53 0-7.47 1.42a.56.56 0 0 0 0 1c2 1.5 5.09 1.29 7.47 1.42s4.75.38 6.61-1.44a.66.66 0 0 0 0-.92c-1.88-1.9-4.07-1.52-6.61-1.48Z" data-color="1"/>
            <path fill="#f8a442" d="M1016.11 593.51a.37.37 0 0 0 .08.68c4.31 1.1 10 2.54 13.46-1.22a.66.66 0 0 0-.29-1.11 20.41 20.41 0 0 0-13.25 1.65Z" data-color="1"/>
            <path fill="#f8a442" d="M1023 574.09a.53.53 0 0 0-.31-.76c-2.79-.89-7.3-.75-9.65 1.22a.24.24 0 0 0 0 .35c2.69 2.4 7.96 2.43 9.96-.81Z" data-color="1"/>
            <path fill="#f8a442" d="M708.88 570c-4.29-.06-9-.51-13.11.93a.29.29 0 0 0-.07.53c3.48 1.7 7.72 2 11.54 2.22s8.65 1.36 12.08-1a.72.72 0 0 0 0-1.22c-3.04-2.12-6.9-1.46-10.44-1.46Z" data-color="1"/>
            <path fill="#f8a442" d="M724 571.46a.33.33 0 0 0 .11.43 6.69 6.69 0 0 0 5.31.89c.86-.21 2.84-.91 2.49-2.2-.82-3.03-6.75-.85-7.91.88Z" data-color="1"/>
            <path fill="#f8a442" d="M622.07 580.72c-34.37-4.49-70.51 1.3-104.89 3.94-.25 0-.44.41-.14.54 12.94 5.58 29.27 1.15 42.9.58 20.71-.87 41.77-.89 62.31-3.75.81-.11.49-1.22-.18-1.31Z" data-color="1"/>
            <path fill="#f8a442" d="M628.61 580.73a.25.25 0 0 0 0 .43c2.81 1.26 6.61 2.36 9-.23a.62.62 0 0 0-.12-.95c-2.8-1.66-6.14-.47-8.88.75Z" data-color="1"/>
            <path fill="#f8a442" d="M244.29 516c-23.58-2.33-49.36.77-72.89 3.26a.4.4 0 0 0 0 .79c23.58 2.13 49.63.49 73-3 .68-.12.45-1.05-.11-1.05Z" data-color="1"/>
            <path fill="#f8a442" d="M260.12 515.15c-2.71-1.25-7.63-1.84-9.77.75a.23.23 0 0 0 .05.36c2.51 1.81 7.08 1 9.72-.18a.54.54 0 0 0 0-.93Z" data-color="1"/>
            <path fill="#f8a442" d="M329.28 518.16c5.94-.19 11.61-.51 17.37-2a.52.52 0 0 0 0-1 49.44 49.44 0 0 0-14.91-1.19c-5.68.28-12 0-17.33 2.21a.38.38 0 0 0 0 .72c4.69 1.8 9.91 1.41 14.87 1.26Z" data-color="1"/>
            <path fill="#f8a442" d="M306.24 508.39a1 1 0 0 0 0 2c6.12 1.3 12.32.34 18.17-1.46.4-.12.48-.81 0-.88a50 50 0 0 0-18.17.34Z" data-color="1"/>
            <path fill="#f8a442" d="M331.74 505.07a.66.66 0 0 0-.16-1.21c-4.17-.73-10.41-1.77-14.13.78a.36.36 0 0 0 0 .62c3.85 2.74 10.39 2.08 14.29-.19Z" data-color="1"/>
            <path fill="#f8a442" d="M417.35 398.44a.63.63 0 0 0 0-1.21c-5.88-1.57-12.18-1.16-18.24-1.28-7.05-.13-14.17-.64-21.14.62a.39.39 0 0 0 0 .76c6 1.14 12.09 1.17 18.17 1.46 6.97.33 14.39 1.4 21.21-.35Z" data-color="1"/>
            <path fill="#f8a442" d="M430.05 398.26a.59.59 0 0 0 0-.85c-1.61-1.58-4.65-1-6.46 0a.51.51 0 0 0 0 .87c1.81.95 4.85 1.55 6.46-.02Z" data-color="1"/>
            <path fill="#f8a442" d="M492.51 276.57c-2.61-1.27-5.21-.75-8-.52-3.1.26-6.25.34-9.17 1.46a.34.34 0 0 0 0 .65c2.95 1.09 6.06 1 9.17.83 2.82-.12 5.63 0 8-1.66a.44.44 0 0 0 0-.76Z" data-color="1"/>
            <path fill="#f8a442" d="M504.12 277.42a.55.55 0 0 0 0-.94c-1.83-1.38-5.95-2-7.33.24a.43.43 0 0 0 0 .46c1.38 2.28 5.5 1.61 7.33.24Z" data-color="1"/>
            <path fill="#f8a442" d="M729.77 176.43c-3.09-.86-6.3-.63-9.48-.56-2.78.06-5.74-.28-8.26 1.07a.52.52 0 0 0 0 .9c2.48 1.37 5.5 1.2 8.26 1.29 3.35.11 6.67 0 9.61-1.71a.55.55 0 0 0-.13-.99Z" data-color="1"/>
            <path fill="#f8a442" d="M720 182.68a.56.56 0 0 0 0 1 6 6 0 0 0 6.33-.46.54.54 0 0 0 0-.93c-1.95-1.4-4.39-.77-6.33.39Z" data-color="1"/>
            <path fill="#f8a442" d="M790.34 276.08a.54.54 0 0 0-.27-1c-2.29 0-4.43 0-6.71.23-2 .18-3.88.05-5.65 1a.71.71 0 0 0 0 1.22c3.71 2.07 9.4 1.02 12.63-1.45Z" data-color="1"/>
            <path fill="#f8a442" d="M912.1 308.93a.5.5 0 0 0 0-.86 9.73 9.73 0 0 0-9.81.5.44.44 0 0 0 .11.8 23.16 23.16 0 0 0 5.3.78 7.32 7.32 0 0 0 4.4-1.22Z" data-color="1"/>
            <path fill="#f8a442" d="M938.75 231.26a.42.42 0 0 0 .1.76c3.44 1.4 8.41 1 11.85-.19a.69.69 0 0 0 0-1.32c-3.46-1.17-8.81-1.51-11.95.75Z" data-color="1"/>
            <path fill="#f8a442" d="M953 235.43a.66.66 0 0 0-.15 1.19 13.66 13.66 0 0 0 11.73-.06.58.58 0 0 0-.14-1.06 25.12 25.12 0 0 0-11.44-.07Z" data-color="1"/>
            <path fill="#f8a442" d="M1092.49 372.7a.36.36 0 0 0 .16.59c3.29.53 8.37 1.84 10.78-1.21a.65.65 0 0 0 0-.93c-3.14-2.51-8.12-.66-10.94 1.55Z" data-color="1"/>
            <path fill="#f8a442" d="M1055.25 345.12c-.29.15-.13.57.16.58 3.82.21 7 1.51 10.81.21a.54.54 0 0 0 0-1c-3.92-1.56-7.22-1.66-10.97.21Z" data-color="1"/>
            <path fill="#f8a442" d="M1012.29 270.16a28.2 28.2 0 0 0-6.85.68c-2.93.53-6 .7-8.78 1.83a.29.29 0 0 0 0 .56c4.64 1.76 11.82.69 15.92-2a.57.57 0 0 0-.29-1.07Z" data-color="1"/>
            <path fill="#f8a442" d="M1000.63 268a.48.48 0 0 0-.21-.8 7.67 7.67 0 0 0-6.49.66.29.29 0 0 0 0 .5 5.53 5.53 0 0 0 6.7-.36Z" data-color="1"/>
            <path fill="#f8a442" d="M922.38 402.35a.61.61 0 0 0 0-1c-4.28-2.57-11.47-3.52-15.7-.2a.4.4 0 0 0 .08.63c4.3 2.53 11.31 3.03 15.62.57Z" data-color="1"/>
            <path fill="#f8a442" d="M982.52 404.91c-8.5-.8-19.45-1.59-27.34 2.33-.42.21-.17.78.23.81 8.7.85 19.29 1.55 27.35-2.25.47-.22.18-.8-.24-.89Z" data-color="1"/>
            <path fill="#f8a442" d="M957 415.71a.4.4 0 0 0 .1.73c2.95.63 7.1 1.53 9.75-.28a.64.64 0 0 0 .13-1c-2.6-2.77-7.18-.96-9.98.55Z" data-color="1"/>
        </g>
    </g>
</svg>
