<?xml version="1.0" encoding="UTF-8"?>
<svg data-bbox="0.022 -0.003 615.883 670.098" viewBox="0 0 615.92 670.1" xmlns="http://www.w3.org/2000/svg" data-type="color">
    <g>
        <g>
            <path fill="#f8a442" d="M605.72 513.53c-56.29-38.5-112.12-77.9-169.29-115.1 3.7-6.38 5.42-14.06 4.36-23.13-2.33-20-25.25-27.1-41.52-31.38-32.35-8.51-61-13.81-89.51-30.31C461.06 288 641 208.34 613 25.52a5.21 5.21 0 0 0-4.46-4.74 6.26 6.26 0 0 0-3.75.08c-39.14 12.32-78 25.56-117.33 37.33a7 7 0 0 0-2.17 1.1c-14.87-7.59-48.92 11.24-59 16.24-7.41 3.69-15.06 7-22.8 10.14a2.87 2.87 0 0 0-.55.22c-30 12.13-61.9 21-91.79 32.73-36.1 14.16-72.64 22.76-110.52 30.35a5.73 5.73 0 0 0-3.86-1.24q-12.31.57-24.65.3c.15-.82.22-1.63.34-2.45 8-.58 15.74-2.42 22.4-6.27 12.93-7.46 24.68-29.47 20.56-44.46-2.78-10.1-11.4-14-12.57-25.59-.7-6.9 5.34-14.77 2.57-21.34C195.28 23.93 175.56 9.55 151 2.27c-45.8-13.6-80.63 36.78-95.7 72.58C28.58 138.37 27.34 208.64 27 276.62a7.74 7.74 0 0 0 .13 1.4 5.35 5.35 0 0 0 4.76 6.36c12.3 1.95 24.57 1.62 37 1.58-.2 12.25-.76 24.42-.49 35.75.84 34.11-1.85 68.33-5.58 102.21-5.4 49-7.12 96.83 26.93 135.51-27 21.26-55.15 40.7-82.71 61.2-7 5.24-10.41 16.54-2.33 22.54 14.84 11 38 8.31 55.13 5.56 10.48-1.68 21-8.1 30.39-12.69 15.76-7.68 31.17-6.93 47.56-9.14 9.26 10.82 21.09 14 35.47 16.15 22.43 3.39 45 2.89 67.61 3.51 29.91.81 59.21 9.13 88.26 15.54 44 9.71 87.56 13.69 129.27-6.39 24.6-11.84 36.85-44.11 30.6-69.28 43.81-8.21 82.53-33.3 118.08-62.43 3.53-2.9 1.92-8.26-1.36-10.47Zm-56.25 35c-5.19-4.93-11.29-9.08-16.52-14-9.92-9.25-19.16-19.26-28.62-29-18.67-19.18-40.27-35.22-58.2-55.09a124.7 124.7 0 0 0 23.3-14.31c40.85 27.45 81.23 55.67 121.8 83.49a350.57 350.57 0 0 1-41.76 28.94Zm-61.74 24c-12-14.69-22.43-31.8-33.47-47-14.9-20.51-27.11-42.92-39.82-64.86a136.57 136.57 0 0 0 24-6.83c16.84 19.27 37.33 34.6 55.48 52.56 9.66 9.55 18.92 19.51 28.53 29.11 5.79 5.77 13.7 11 20 16.89-17.45 9.41-35.64 16.48-54.72 20.17Zm-56.15.55c-3-14.31-14.4-31.16-19.84-42.81-9.22-19.76-21.22-44.73-26.63-66.78a163.45 163.45 0 0 0 20.89-1.4c13.3 22.8 26.09 46 41.34 67.52 10.2 14.39 20.23 30.26 31.37 44.39a154.65 154.65 0 0 1-47.13-.88Zm-356-401.35C81.69 187 90.11 201.41 103 212l.12.08c.5 12.38 1.07 24.75 1.43 37.12C80.92 230.66 37 188 75.57 171.77Zm69.1-28.73a100.93 100.93 0 0 0 14.49 2.4c-1.66 10-6.75 20.21-15 26.09.16-9.49.32-18.96.51-28.49Zm58.93 18.89 1.59-.35c-.88 10.55 3.28 20.75 5.43 31.3-7.41 2.47-14.77 5.07-22 7.88a63.94 63.94 0 0 0 14.98-38.8Zm28.35-6.5a57.69 57.69 0 0 0 4.81 28.89c-6.21 2-12.47 4.06-18.74 6.11-2.46-10.23-6.35-20.51-4.46-30.67q9.29-2.02 18.43-4.3Zm151.17-49.17c5.56-1.89 11.12-3.78 16.66-5.75a45.4 45.4 0 0 0 6.44 21.31q-8.69 2.47-17.27 5.1c-4.57-5.14-6.33-13.76-5.83-20.63ZM601.1 36a221.61 221.61 0 0 1 1.72 27c-37.31 4-74.13 12.83-111.45 16.39a24.74 24.74 0 0 0 .8-8.69C528.66 59.74 564.78 47.58 601.1 36Zm-1.75 64H484c.12-1.71.31-3.38.34-5.12a8.6 8.6 0 0 0-.08-.9 59.06 59.06 0 0 0 3.79-6.22c38.4-3.32 76.24-12.61 114.6-16.68a187.49 187.49 0 0 1-3.3 28.92Zm-12.54 39.1c-35.4-6.27-71.26-10.81-106.46-18.13a97.66 97.66 0 0 0 2.84-13h114.4a173.94 173.94 0 0 1-10.78 31.13Zm-21.16 35.15c-31.19-9.64-62.6-22.19-92.27-35.66a105.91 105.91 0 0 0 4.39-10c34.85 7.28 70.35 11.8 105.41 18a186.73 186.73 0 0 1-17.53 27.66Zm-96.24-64.58c-8.33 44-49.85 73.3-87.48 94-48.37 26.56-108.62 48.11-163.8 49.88a7.38 7.38 0 0 0-1.9.34c-9.54-6.63-18.85-13.52-27.76-20.81 19.1-1.14 37.59-6.22 56.17-11 26.74-6.93 53.22-13.54 78.88-23.95 26.09-10.57 70.92-31 79.09-61.8 21.91-6.14 43.84-11.18 63.32-24 1.12-.85 2.29-1.73 3.48-2.66Zm39.82 116.94c-19.78-18.41-37-40-57.64-57.41q4.2-4.47 8-9.23c25.39 14.14 49.65 31.77 73.5 48.44a279 279 0 0 1-23.86 18.2Zm-31.85 19.24q-10.45-14.92-21.07-29.75c-7.13-9.93-14-21.26-22.55-30.31 4.25-3.46 8.31-7.11 12.22-10.89 20.2 17.09 37.15 38.1 56.42 56.25q-12.06 7.85-25.02 14.7Zm-27.93 13.57c-7.07-9.34-12.68-20.29-18.79-30.17-5.44-8.78-10.76-20.21-18.11-28.1 5-3.26 10-6.69 14.83-10.33 8.35 8.69 15.06 19.66 22 29.32s14 19.59 20.85 29.43q-10.18 5.18-20.78 9.85ZM420.71 271c-11.15-18.27-19.31-38.48-29.09-57.53.9-.49 1.83-1 2.72-1.45 3.76-2.07 7.51-4.26 11.24-6.53 8.11 8 13.82 20.76 19.64 30.16 5.5 8.88 10.63 18.41 16.77 27q-10.51 4.41-21.28 8.35Zm-30.82 10.28c-8.74-17.84-17-36-24.82-54.29 6.62-3.15 13.14-6.4 19.51-9.74 9.61 18.67 17.65 38.48 28.45 56.5q-11.49 4.03-23.14 7.54Zm-29 8c-8.4-16.36-12.5-34.89-21.38-51q9.31-3.81 18.39-8c7.64 17.91 15.76 35.73 24.29 53.24q-10.69 3.12-21.34 5.8Zm-26.29 6.07c-5.62-16.07-10.29-33.08-17.42-48.58q7.49-2.62 14.87-5.48c8.89 15.67 13 33.74 20.89 49.94-6.17 1.5-12.3 2.88-18.38 4.16Zm-2.37 43.91c-6.31 7.62-10.49 18.39-12.52 28-2.33-1.78-4.63-3.49-6.9-5.06-2.59-1.79-5.22-3.51-7.86-5.24 1.77-9.46 4.64-18.21 11.13-25.24 5.25 2.7 10.62 5.28 16.11 7.58Zm-145.4-91c-10.92 8.68-15.83 24.23-19.96 37.74q-8.9-4.43-17.67-9.06c4.45-15.45 12.67-28.3 23.19-40.25q7.04 5.97 14.4 11.62Zm-45.1 47c0-2.41.06-4.81.08-7.22 61 32.57 125.35 57.25 181.55 98.18-32.39.27-67.81-17.21-95-30.85-31.53-15.84-62.7-31.3-88.65-55.45a6.32 6.32 0 0 0 1.98-4.63Zm156 57.1c-39.23-24.5-82.07-42.53-123.61-62.83 3.88-13 8.34-28.76 19.48-36.19 19 13.93 39.1 26.59 58.39 39.18s37.55 24.91 56.78 35.35c-5.9 7.02-9.11 15.48-11.05 24.52Zm-41.21-89.58c1.51 6.5 2.72 13 3.67 19.63-8.76-5.46-17.53-11-26.2-16.65q11.24-1 22.52-2.95ZM269 288a255.26 255.26 0 0 0-4.66-26.54q10.32-2 20.58-4.73c5.61 14.61 9.94 30.14 13.91 45.29l-4.27.67a6.79 6.79 0 0 0-1.54.42C285.14 298 277.1 293 269 288Zm37.76 12.71c-4-15.4-8.42-31.23-14.13-46.09 5.66-1.6 11.3-3.29 16.9-5.14 7.1 15.09 11.65 31.81 17.12 47.57q-10.01 1.95-19.87 3.61ZM386.88 141c2.07-.68 4.15-1.29 6.22-1.93-12.37 28.49-59.62 46.89-84.54 56.35-19.45 7.38-39.78 12.4-59.93 17.38-22.93 5.66-45.52 12.78-69.35 12.5-1.52-1.33-3-2.7-4.48-4.06 33.66-16.62 71.71-25.62 106.94-38.3 35.56-12.84 69.19-30.09 105.14-41.94Zm-230.32 81.16c3.18 3.17 6.42 6.28 9.78 9.29-10.86 12.38-19.5 25.79-24.35 41.61h-.06c.22-16 .57-32 1-48a71 71 0 0 0 13.63-2.9Zm-27.38 78.77a4 4 0 0 0 .35.52c28.88 28.74 65 45.92 101 64 30 15.06 68 31.84 102.57 28.11 19.6 15 45.55 33.64 71.81 26.35 8.65-2.4 16.53-6.15 22.73-11.3 10.08 6.54 20.07 13.21 30.07 19.87-40 29-91.4 24.82-136.87 11-90.5-27.41-169.84-92.26-239.33-153.79a6.49 6.49 0 0 0-.62-.45c.17-12.6.67-25.2-.83-37.59 8.08 6.79 16.73 12.82 24.74 18.33 0 8.22 0 16.44-.44 24.64a6.6 6.6 0 0 0 4.89 6.43ZM81.09 303q9.31 8.18 18.8 16.29c-1.82 5.88-4.79 11.35-7 17.14-2.4 6.45-5 12.87-7.51 19.28l-3.7-3.16c-.1-.09-.22-.14-.33-.23q.71-24.62-.26-49.32Zm19.57 35.55c1.87-4.57 4.09-9.06 5.83-13.71q6.51 5.49 13.1 10.9c-6.16 11.5-10.4 23.84-15.5 35.84q-6.15-5.19-12.26-10.4c2.98-7.51 5.75-15.12 8.83-22.61Zm25.23 2.35q8.33 6.74 16.77 13.34c-5.34 12.14-10.66 24.27-15.66 36.54q-8.33-6.88-16.59-13.84c5.21-12 9.43-24.43 15.48-36.02Zm23.26 18.3q7.57 5.79 15.27 11.42a249.84 249.84 0 0 1-15 38.4q-8-6.46-16-13c4.96-12.38 10.36-24.58 15.73-36.8Zm22.09 16.38q8.35 6 16.86 11.76c-5.06 13.75-9.33 27.76-13.12 41.9q-9.64-7.49-19.18-15.09a255.43 255.43 0 0 0 15.44-38.55ZM195 391.89q10.22 6.74 20.64 13.06c-5.42 14.3-10.64 28.67-16 43q-8.91-6.63-17.71-13.39c3.72-14.41 7.99-28.66 13.07-42.67Zm27.58 17.24q7.77 4.58 15.65 8.88c-4.31 16.55-7.49 33.35-10.74 50.14q-10.68-7.53-21.22-15.26c5.47-14.56 10.78-29.19 16.27-43.76Zm22.93 12.71q8.4 4.43 17 8.5c-2.81 18.47-8.66 36.44-9.8 55.12q-9.08-6-18-12.28c3.29-17.18 6.43-34.38 10.76-51.34Zm24.41 12.07q8.6 3.93 17.33 7.49c-2.86 20.66-3.61 41.53-6.38 62.21q-10.31-6.41-20.46-13.06c.17-19.24 6.2-37.76 9.47-56.64Zm24.93 10.39q9.4 3.63 19 6.77c1.34 12.42 1.77 24.85 2.11 37.35s2.83 24.87 2.22 37.23q-15.11-8.43-29.9-17.45c2.97-21.2 3.65-42.67 6.53-63.9Zm29.29 50.23c-.56-13.63-.78-27.19-2.05-40.75l.45.15c7.41 2.25 14.95 4.11 22.55 5.62 2.4 15.43 4.47 30.91 7 46.31 2.26 13.81 8.26 28.35 9.46 42.53-7.89-3.86-15.67-7.86-23.31-11.86-4.17-2.18-8.3-4.44-12.42-6.69 1.25-11.84-1.22-23.47-1.72-35.31Zm38.33 23.25c-4.41-18.61-6.47-37.78-9.2-56.78a198.1 198.1 0 0 0 23.6 2.35c4.51 19.47 14.63 38.4 21.85 57 2.71 7 6 13.75 9.16 20.53 4 8.5 11.73 20.18 15 30.55-18.21-4.13-35.94-11.06-53.11-19.09-.27-11.81-4.64-23.09-7.34-34.56ZM414.63 363c7.06 2.81 11.22 7.63 12.6 14.37-5.78-1.06-11.77-1.56-17.34-2.68-10.55-2.13-20.84-6-31.53-7.23-.58-.06-.63.7-.27 1 8.72 6.52 20.08 8.61 30.5 11 5.91 1.35 12.64 3.07 19.17 3.46a35.91 35.91 0 0 1-.2 3.67 21.49 21.49 0 0 1-1 4c-4-.66-8.64-.42-12-1-7-1.19-13.85-4.23-20.9-4.49a.23.23 0 0 0-.16.39c4.74 5.4 13.15 7.05 19.84 8.52a72.9 72.9 0 0 0 10.33 1.91 22.85 22.85 0 0 1-6.3 5.55c-1.19-.07-2.38-.14-3.56-.26-6.51-.66-12.94-2.65-19.48-2.88a.34.34 0 0 0-.24.57c4.38 3.59 10.15 5 15.66 6-9.09 2.89-19.7 2.89-27 1.64-20.14-3.43-38.87-19.83-56-33.69 1.42-9.82 6-22.88 13.43-30.32a202.17 202.17 0 0 0 31.72 9.34c14.48 2.97 29.01 5.23 42.73 11.13Zm124.61-160c-24.29-16.92-49-35-74.83-49.47q2.71-3.88 5.13-7.93c29.23 13.27 60 25.69 90.76 35.37A224.11 224.11 0 0 1 539.24 203ZM435.56 85.8c3.35-1.67 44.09-18.71 43.18-12.31-1.11 7.81-4.81 14.29-10 19.76-7.24-4-21.56-.54-27.56 2.53-.92.47-.42 1.77.5 1.82 5.06.27 10.08-.95 15.13-1.2a53.28 53.28 0 0 1 7.84.72c-13.92 11.79-35 18.1-49.85 22.24l-.65.18a36.92 36.92 0 0 1-6.35-22 286.88 286.88 0 0 0 27.76-11.74Zm-68.19 25.87c2.6-.92 5.2-1.81 7.81-2.71.07 7.09 1.83 14.63 5.66 20.47-14.48 4.6-28.81 9.64-43 15.64-31 13.12-61.63 25.83-93.48 36.66a49.44 49.44 0 0 1-4.11-28.42c43.2-11.41 84.18-26.49 127.12-41.64Zm-177.17 49.6c-1.19 26.13-20.85 47-47 50.38q.33-12.92.61-25.84a6.65 6.65 0 0 0 3.9-.77c9.54-5 16.32-13.79 20.49-23.73 7.34.29 14.67.2 22-.04Zm-13.4-29.7a83.7 83.7 0 0 1-31.34-2 4.71 4.71 0 0 0-.52-.09c.15-8.34.34-16.69.48-25 .43-26.3 20.47-37.21 44.53-40-.59 11.07.91 18.38 8.3 27.17 12.97 15.35-6.01 37.91-21.45 39.92ZM97.54 33.15c20.25-21.87 44.56-23.31 69.84-9.9 10.56 5.6 17.73 14.56 23.67 24.59a7.55 7.55 0 0 1 1 3c-21.47 1.88-40.65 8.23-53.61 26.56-10.57 15-6.53 37.68-6.85 54.65-1 51.71-2.77 103.45-3.15 155.17l-6.2-1.22c-2-.39-3.46-.61-4.49-.72.1-11.75-.37-23.53-.64-35.27-.66-28.21-2.1-56.54-1.42-84.75.2-8.61-13.13-8.58-13.33 0-.22 9-.12 18.1.1 27.17-7.37-9.1-12.59-19.74-16.56-30.94a7.3 7.3 0 0 0-1.07-1.93 5.92 5.92 0 0 0-7.14-2.73c-22.88 6.81-33.29 23.48-28.08 46.94A63.94 63.94 0 0 0 61.07 228a4.42 4.42 0 0 0-2.79 2 .76.76 0 0 0 .85 1.1c.7-.13 2.81-.21 3.58-1 .07.08.13.17.2.26a6.62 6.62 0 0 0 .35 2.71 98.51 98.51 0 0 1 3.81 16.09c-2.64-.09-5.3-.15-8-.25a6 6 0 0 0-.58-5.91.57.57 0 0 0-1 .14 15.89 15.89 0 0 0-.63 5.66 60.73 60.73 0 0 1-16.35-2.69v-1a1.4 1.4 0 0 0 1.51.52c1.63-.57 3.73-2.18 4.1-4a.57.57 0 0 0-.39-.69c-1.88-.36-4 .92-5.2 2.35.84-73.4 6.35-155.41 57.01-210.14ZM40.37 272.06q0-6 .05-12.06c9.08 2.32 18.73 2.13 28.06 2.54.22 3.34.35 6.7.41 10.08-9.49.04-19.06.38-28.52-.56Zm-10.1 365.11c-31.58-1.13 19-29.81 27.78-36.32 14-10.32 27.64-21.15 41.24-32 11 9.07 24.07 14.46 37.88 17.36-2 8-5.39 18.86-4.73 28-14.45 1.62-27.37.55-41.53 6.93-20.98 9.5-37.2 16.86-60.64 16.03Zm120.12-48.91a172.72 172.72 0 0 0 23.19.74c-5.5 12.07-4.87 26.83-3.05 40.2a68.21 68.21 0 0 1-17.07-5.2c-11.6-5.38-5.39-25.52-3.07-35.74Zm32.71 42.6c-1.46-.16-2.92-.28-4.38-.46-2.09-13.64-3.45-30.42 4.16-41.92q2.75-.19 5.46-.45c-5.88 13.11-5.21 28.25-5.24 42.83Zm292.83-41.8c10.37 38.59-25.44 59.38-57 66.29-34.1 7.47-71.2-2.63-104.39-10.15-27.74-6.27-54.73-11.46-83.21-12.23-13.53-.37-26.9-.34-40.31-1.31-.11-15-1.54-32 6.74-44.73 23.09-3 45.3-8.67 68.78-9.48 31.22-1.08 63 2.88 93.34 10.27 8.35 2 11.89-10.82 3.54-12.86-42.21-10.29-86.74-13.84-129.85-7.94-45.31 6.2-93.57 21.08-131.67-13.78-43.67-40-27.5-106.63-22.91-158 .78-8.64 1.34-17.29 1.78-25.94 81.34 69.45 167.21 136.9 263 185.15 30.93 15.58 64 30.66 98.8 34.1a162.07 162.07 0 0 0 33.2-.14 6.36 6.36 0 0 0 .16.75Z" data-color="1"/>
            <path fill="#f8a442" d="M173.89 77.27c-4.85.21-8.37 4.53-9.39 9-1.17 5 6.54 7.15 7.71 2.12.35-1.5 1.23-2.81 1.93-3.06.71.72.86 2.1 1 3.06.85 5.08 8.56 2.92 7.71-2.12-.75-4.65-3.78-9.27-8.96-9Z" data-color="1"/>
            <path fill="#f8a442" d="M228.36 554.52c-20.4.46-40.23 5.64-60.65 5.53-26.43-.15-45.23-14.88-68.35-24.67-.63-.27-1.45.52-.81 1 17.63 14.51 36.23 25.88 59.14 29.07 23.5 3.26 48.62-2.3 70.87-9.47a.77.77 0 0 0-.2-1.46Z" data-color="1"/>
            <path fill="#f8a442" d="M240 551.49c-2 .13-4.75.29-6.14 2a.69.69 0 0 0 .14 1c1.72 1 4.08.76 6 .73 2.24 0 4.49.3 6.18-1.46a.74.74 0 0 0 0-1c-1.67-1.76-3.92-1.42-6.18-1.27Z" data-color="1"/>
            <path fill="#f8a442" d="M331 638.91c-.35 0-.53.55-.19.7 21.88 9.58 49.45 11.15 73 9.32 20.59-1.61 46.78-9 52.56-31.46.16-.62-.69-1.23-1.15-.67C423.38 655.56 374 640.65 331 638.91Z" data-color="1"/>
            <path fill="#f8a442" d="M345.39 194.12a434.4 434.4 0 0 1-55.5 22.35c-17.73 5.83-36.89 8.21-54.28 14.53a.29.29 0 0 0 .08.57c17.84 2 38.63-5.54 55.37-10.86 19.35-6.14 38.47-13.51 54.92-25.6a.58.58 0 0 0-.59-.99Z" data-color="1"/>
            <path fill="#f8a442" d="M412.75 440c.76-.33.34-1.47-.39-1.47-11.78-.1-23.49 1.77-35.31 1.83-13.31.07-26.19-3.27-39.36-3.85a.14.14 0 0 0-.07.27c19.7 10.58 54.73 12.3 75.13 3.22Z" data-color="1"/>
            <path fill="#f8a442" d="M428.53 435.46a1.2 1.2 0 0 0-.84-2c-2.71.14-8.43 1.53-9.53 4.47a.19.19 0 0 0 0 .2c2.72 2.18 8.23-.84 10.37-2.67Z" data-color="1"/>
            <path fill="#f8a442" d="M48.29 237.29a8.05 8.05 0 0 0 1.79 2.84c.91.94 2.86 0 2.32-1.35-.62-1.54-1.49-2.6-3.25-2.62a.89.89 0 0 0-.86 1.13Z" data-color="1"/>
            <path fill="#f8a442" d="M50.93 228.68a3.43 3.43 0 0 0 2.27-.44c2-.9-.12-4.29-2-2.56a3.58 3.58 0 0 0-1.13 1.56 1 1 0 0 0 .86 1.44Z" data-color="1"/>
            <path fill="#f8a442" d="M59.69 236.11a9.46 9.46 0 0 0-2.38-1.39c-.38-.16-.72.22-.74.56a3.08 3.08 0 0 0 1.17 2.78c1.32 1.25 3.32-.87 1.95-1.95Z" data-color="1"/>
            <path fill="#f8a442" d="M44.86 233.83h.4a1.87 1.87 0 0 0 1.82-1.38c.05-.15.09-.31.14-.46a1.44 1.44 0 0 0-1-1.77 2.65 2.65 0 0 0-2.24.32 1.75 1.75 0 0 0 .88 3.29Z" data-color="1"/>
            <path fill="#f8a442" d="M45.44 218.56a.34.34 0 0 0-.15.36c.57 1.6 1.73 2 3.31 1.56a1.26 1.26 0 0 0 0-2.41 3.3 3.3 0 0 0-3.16.49Z" data-color="1"/>
            <path fill="#f8a442" d="M45.87 210.09a1.71 1.71 0 0 0 0 2.38l.41.34a1 1 0 0 0 1.11.15l.52-.23a1.63 1.63 0 0 0 .83-1.45 6.11 6.11 0 0 0-.26-2 .69.69 0 0 0-1-.41 3.13 3.13 0 0 0-1.61 1.22Z" data-color="1"/>
            <path fill="#f8a442" d="m47 202.65-.38-.42c-1.22-1.34-3 .36-2.34 1.8l.24.53c.92 1.97 4.17-.1 2.48-1.91Z" data-color="1"/>
            <path fill="#f8a442" d="M52.36 169.15a24.8 24.8 0 0 1 .79-3.41c.19-.61-.47-1.39-1.13-1.12a5.32 5.32 0 0 0-3.27 3.53c-.75 2.32 3.25 3.35 3.61 1Z" data-color="1"/>
            <path fill="#f8a442" d="M59.1 154.66a.65.65 0 0 0-.82.62 10.79 10.79 0 0 0 .7 3.16c.64 1.85 3.64 1 2.91-.81-.56-1.38-1.24-2.63-2.79-2.97Z" data-color="1"/>
            <path fill="#f8a442" d="M53 159.42a4.38 4.38 0 0 0 1.39-1.66A1.3 1.3 0 0 0 54 156a2.87 2.87 0 0 0-1.64-.43 2 2 0 0 0-1.9 2.5c0 .1 0 .21.05.31a1.75 1.75 0 0 0 2.49 1.04Z" data-color="1"/>
            <path fill="#f8a442" d="M60.16 147.19a4 4 0 0 0 .31 2c.43 1.06 2 1.93 2.93.77a4.75 4.75 0 0 0 1.1-2.15 2.2 2.2 0 1 0-4.34-.62Z" data-color="1"/>
            <path fill="#f8a442" d="M54.71 149.84a.83.83 0 0 0 1-.79c.07-1.47.39-2.68-.34-4a1.47 1.47 0 0 0-2.27-.29c-1.92 1.61-.76 4.61 1.61 5.08Z" data-color="1"/>
            <path fill="#f8a442" d="m96.77 105.69-.48-.26a1.51 1.51 0 0 0-2 2c.08.16.15.33.23.5 1.06 2.47 4.81-.8 2.25-2.24Z" data-color="1"/>
            <path fill="#f8a442" d="M96.15 129.54c-1.93.43-2.69 3.18-2.79 4.88-.11 1.9 2.6 2.07 3.16.43s1.2-3.84 0-5.2a.44.44 0 0 0-.37-.11Z" data-color="1"/>
            <path fill="#f8a442" d="M111.17 121.21a.92.92 0 0 0-1.35.55 2.34 2.34 0 0 0 .49 2.58 1.33 1.33 0 0 0 2.25-.93 2.45 2.45 0 0 0-1.39-2.2Z" data-color="1"/>
            <path fill="#f8a442" d="M65.82 121.43a.85.85 0 0 0 .6-1.05 28.64 28.64 0 0 1-1-2.74c-.62-2.62-4.45-1.49-4 1.1a3.5 3.5 0 0 0 4.4 2.69Z" data-color="1"/>
            <path fill="#f8a442" d="M71.8 103.58a1.82 1.82 0 0 0-.43 3.29c.39.28 1.24.76 1.69.32a5.89 5.89 0 0 0 .77-1 1.81 1.81 0 0 0-2.03-2.61Z" data-color="1"/>
            <path fill="#f8a442" d="M70.82 130.77a4.48 4.48 0 0 0-.61 4.1 1.68 1.68 0 0 0 3.22 0 6.34 6.34 0 0 0 0-3.76 1.47 1.47 0 0 0-2.61-.34Z" data-color="1"/>
            <path fill="#f8a442" d="M73.69 148.17a2.87 2.87 0 0 0-1 3.47 1.37 1.37 0 0 0 2.47.32 4.21 4.21 0 0 0 .69-2.87 1.31 1.31 0 0 0-2.16-.92Z" data-color="1"/>
            <path fill="#f8a442" d="M61.46 137.81c1.27-1.42-.75-3.47-2.09-2.1a22.91 22.91 0 0 1-2 1.54.36.36 0 0 0-.06.43c.82 1.79 3.03 1.38 4.15.13Z" data-color="1"/>
            <path fill="#f8a442" d="M60.46 130.88c2.68-.73-.49-3.79-1.25-4.77a1 1 0 0 0-1.6.21c-.82 1.73.39 5.24 2.85 4.56Z" data-color="1"/>
            <path fill="#f8a442" d="M79.78 138.1a7.87 7.87 0 0 0-3.08.85.9.9 0 0 0 0 1.54 7.89 7.89 0 0 0 3.08.86c2.09.23 2.09-3.48 0-3.25Z" data-color="1"/>
            <path fill="#f8a442" d="M83.88 148.23a.94.94 0 0 0-.3.15c-1 .77-.34 2.19.08 3.06.62 1.26 2.57.37 2.21-.93a4.44 4.44 0 0 0-1-2 1 1 0 0 0-.99-.28Z" data-color="1"/>
            <path fill="#f8a442" d="M72.35 143.55c.36.3-.66-.63-.64-.61a1.74 1.74 0 0 0-2.45 0l-.23.28a2.2 2.2 0 0 0 0 3l.17.18a2.09 2.09 0 0 0 2.57.33l.18-.13c.92-.6 1.46-2.19.4-3.05Z" data-color="1"/>
            <path fill="#f8a442" d="M91.92 142.44a3.43 3.43 0 0 0-3.63.77 1.59 1.59 0 0 0-.41 1.57 1.4 1.4 0 0 0 .34.65 5.71 5.71 0 0 0 3.19.74c2.19.18 2.5-3.17.51-3.73Z" data-color="1"/>
            <path fill="#f8a442" d="M93.88 154.19a.77.77 0 0 0-.93-.53 4.62 4.62 0 0 0-2 7 .63.63 0 0 0 .76.1c2.11-1.17 3.01-4.37 2.17-6.57Z" data-color="1"/>
            <path fill="#f8a442" d="M94.9 168.34a.84.84 0 0 0-1.25.71 6.06 6.06 0 0 0 1.57 4.16c1 1.16 2.89-.08 2.47-1.44a6 6 0 0 0-2.79-3.43Z" data-color="1"/>
            <path fill="#f8a442" d="M102 156.51a4.65 4.65 0 0 0-4.68 3.49.75.75 0 0 0 .52.92 4 4 0 0 0 4.74-3.84.55.55 0 0 0-.58-.57Z" data-color="1"/>
            <path fill="#f8a442" d="M107.2 149c-.77-.19-1.7.73-1.13 1.47 1.25 1.65 3.65 3.8 5.66 2.07a.52.52 0 0 0 .13-.49c-.53-1.94-2.93-2.64-4.66-3.05Z" data-color="1"/>
            <path fill="#f8a442" d="M122.53 163.34c-.35 1.45.42 6.09 2.8 4.71a1.52 1.52 0 0 0 .75-1.3 5 5 0 0 0-2-4 1 1 0 0 0-1.55.59Z" data-color="1"/>
            <path fill="#f8a442" d="M119.45 177.76a1.61 1.61 0 0 0 .44.06 1.72 1.72 0 0 0 1.59-1.21 9.16 9.16 0 0 0 .58-4.57.47.47 0 0 0-.59-.33 4.71 4.71 0 0 0-3.24 4.46 1.65 1.65 0 0 0 1.22 1.59Z" data-color="1"/>
            <path fill="#f8a442" d="M127.52 193c-.56-2.07-1.33-4.29-3.51-5.06-.49-.18-.87.27-.92.7-.23 1.82.54 3.58 1 5.3a1.76 1.76 0 0 0 3.43-.94Z" data-color="1"/>
            <path fill="#f8a442" d="M123.29 183.86a.56.56 0 0 0 .8.33 3.51 3.51 0 0 0 2.09-4.19.61.61 0 0 0-.74-.42 3.18 3.18 0 0 0-2.15 4.28Z" data-color="1"/>
            <path fill="#f8a442" d="M121.93 204.17c-.17 1.49 0 6.26 2.71 4.53a1.81 1.81 0 0 0 .82-2 6.9 6.9 0 0 0-1.82-3.23 1 1 0 0 0-1.71.7Z" data-color="1"/>
            <path fill="#f8a442" d="M119.38 201.05a.63.63 0 0 0 .88 0 4.2 4.2 0 0 0 1.23-4.65.81.81 0 0 0-1.19-.49c-1.66 1.25-2.51 3.49-.92 5.14Z" data-color="1"/>
            <path fill="#f8a442" d="M124.2 219.21a15.88 15.88 0 0 0-2.19-3.45 1.22 1.22 0 0 0-2.07.85 9.38 9.38 0 0 0 1.21 4.38c.97 2.01 4.07.26 3.05-1.78Z" data-color="1"/>
            <path fill="#f8a442" d="M120.71 212.87a3.24 3.24 0 0 0 .35-3.83.93.93 0 0 0-1.59 0 3.26 3.26 0 0 0 .34 3.83.52.52 0 0 0 .9 0Z" data-color="1"/>
            <path fill="#f8a442" d="M124.13 233.26c.26-1.55-.59-2.65-1.82-3.52a1.06 1.06 0 0 0-1.58.91c0 1.37.13 2.64 1.35 3.44a1.4 1.4 0 0 0 2.05-.83Z" data-color="1"/>
            <path fill="#f8a442" d="M124.71 227.88c1.8-.16 2.54-1.54 2.4-3.27a1.08 1.08 0 0 0-1.6-.92c-1.43.89-2.32 2.31-1.32 3.89a.59.59 0 0 0 .52.3Z" data-color="1"/>
            <path fill="#f8a442" d="M126.09 248.34c.64-2.36-1.78-3.86-3.4-5-.32-.22-.64.14-.59.45.31 1.9 0 4.13 1.81 5.39a1.49 1.49 0 0 0 2.18-.84Z" data-color="1"/>
            <path fill="#f8a442" d="M126.4 237.35a3 3 0 0 0-3 2.51 1.7 1.7 0 0 0 2.81 1.64 4.12 4.12 0 0 0 1.5-2.43 1.37 1.37 0 0 0-1.31-1.72Z" data-color="1"/>
            <path fill="#f8a442" d="M124.81 257.53a4.33 4.33 0 0 0-2.67-3 .36.36 0 0 0-.44.25 4.34 4.34 0 0 0 1 4.05c.78 1.03 2.43-.14 2.11-1.3Z" data-color="1"/>
            <path fill="#f8a442" d="M121.65 251.54c.33-.87-.74-1.46-1.44-1.11a3.6 3.6 0 0 0-2.14 3.21 1.31 1.31 0 0 0 .68 1.17c1.95.88 2.41-1.97 2.9-3.27Z" data-color="1"/>
            <path fill="#f8a442" d="M124.56 264.55a.59.59 0 0 0-.88.5c0 1.48-.09 6.71 2.63 5.3a1.45 1.45 0 0 0 .74-1.29c-.23-1.92-.78-3.48-2.49-4.51Z" data-color="1"/>
            <path fill="#f8a442" d="M122.45 274.55c-1 1.55-2.74 3.78-2.3 5.72a1.21 1.21 0 0 0 1.75.72c2-.95 1.69-4.38 1.59-6.16a.56.56 0 0 0-1.04-.28Z" data-color="1"/>
            <path fill="#f8a442" d="M121.31 264.44c-.36.64-1 .81-.87 1.77.14 1.15.25 2.13 1.45 2.52a.55.55 0 0 0 .56-.15c1.32-1.46.17-2.91-.56-4.14a.34.34 0 0 0-.58 0Z" data-color="1"/>
            <path fill="#f8a442" d="M120.49 236.65a3.33 3.33 0 0 0-.85-1.64 1 1 0 0 0-1.57.21 2.22 2.22 0 0 0-.44 2.21c.37 1.87 3.28 1.09 2.86-.78Z" data-color="1"/>
            <path fill="#f8a442" d="M119.73 186.33a2.86 2.86 0 0 0-.44-3.26.43.43 0 0 0-.57-.15 2.28 2.28 0 0 0-1.45 1.41 1.59 1.59 0 0 0 .24 1.87l.31.38a1.21 1.21 0 0 0 1.91-.25Z" data-color="1"/>
            <path fill="#f8a442" d="M125.15 153.38a6 6 0 0 0-.34 3.69 1.29 1.29 0 0 0 2.46 0 3.84 3.84 0 0 0-1.35-3.89.46.46 0 0 0-.77.2Z" data-color="1"/>
            <path fill="#f8a442" d="M121.47 158.56a1.45 1.45 0 0 0-1-1l-.49-.15a.59.59 0 0 0-.55.15 3.21 3.21 0 0 0 .56 4.67.4.4 0 0 0 .56 0c1.19-1.05 1.2-2.18.92-3.67Z" data-color="1"/>
            <path fill="#f8a442" d="M117.69 150.24a.56.56 0 0 0-.69-.39c-2.41.63-3.11 3.17-2.93 5.43a.42.42 0 0 0 .53.4c2.2-.83 4.05-3.03 3.09-5.44Z" data-color="1"/>
            <path fill="#f8a442" d="M99 148.72a5.69 5.69 0 0 0 2.1-3.14 1.47 1.47 0 0 0-2.1-1.65 4.42 4.42 0 0 0-2.37 3.79c-.14 1.38 1.57 1.67 2.37 1Z" data-color="1"/>
            <path fill="#f8a442" d="M106.79 139.22a4.94 4.94 0 0 0 .69 4.84.49.49 0 0 0 .68 0 7.81 7.81 0 0 0 2-3.9 1.76 1.76 0 0 0-3.37-.94Z" data-color="1"/>
            <path fill="#f8a442" d="M114.72 145.45c1.85-1.26 4.5-3.24 4.35-5.73a.6.6 0 0 0-.43-.56c-3.08-.88-5.56 3.37-4.6 6a.47.47 0 0 0 .68.29Z" data-color="1"/>
            <path fill="#f8a442" d="M124.37 143.59a3.84 3.84 0 0 0-1.71 5.62.32.32 0 0 0 .35.15 4.31 4.31 0 0 0 2.34-5.37.68.68 0 0 0-.98-.4Z" data-color="1"/>
            <path fill="#f8a442" d="M122.76 136a5.56 5.56 0 0 0 3.93 4.1.9.9 0 0 0 1.1-1.1 17.81 17.81 0 0 0-1.77-4.37c-.97-1.77-3.77-.52-3.26 1.37Z" data-color="1"/>
            <path fill="#f8a442" d="M117.8 128.2c-2.47 1.15-3.41 3-3.35 5.74 0 .28.31.59.61.47 2.63-1.11 4-3.07 3.44-5.93a.48.48 0 0 0-.7-.28Z" data-color="1"/>
            <path fill="#f8a442" d="M103.15 132.69c-1.88.66-2.57 2.44-2.73 4.36a.74.74 0 0 0 .92.71 4 4 0 0 0 2.87-4.26.86.86 0 0 0-1.06-.81Z" data-color="1"/>
            <path fill="#f8a442" d="M83.44 131.71a3.73 3.73 0 0 0 .83 4.45.63.63 0 0 0 .88 0 3.73 3.73 0 0 0 .83-4.45 1.48 1.48 0 0 0-2.54 0Z" data-color="1"/>
            <path fill="#f8a442" d="M78.78 148.59a2.49 2.49 0 0 0-.19 3.91.49.49 0 0 0 .58.08 4.55 4.55 0 0 0 2-2.61c.44-1.46-1.38-2.23-2.39-1.38Z" data-color="1"/>
            <path fill="#f8a442" d="M65.84 153.92c0 .82.3 3.07 1.67 2.75a2.74 2.74 0 0 0 1.88-1.79c1.3-2.99-3.48-3.94-3.55-.96Z" data-color="1"/>
            <path fill="#f8a442" d="M70 126c1.84.16 4.32.17 5.47-1.46a.68.68 0 0 0-.11-.81c-1.65-2-4.84-.42-5.75 1.58a.47.47 0 0 0 .39.69Z" data-color="1"/>
            <path fill="#f8a442" d="M78.77 128a.64.64 0 0 0 .77.77c2.2-.35 5.75-2.61 5.77-5.05a.57.57 0 0 0-.3-.52c-2.72-1.2-5.84 2.29-6.24 4.8Z" data-color="1"/>
            <path fill="#f8a442" d="M89.54 117.24c-.39 2.45-.14 4.93 2.11 6.33a.35.35 0 0 0 .46-.12c1-2.28.51-4.37-.78-6.45-.4-.65-1.65-.65-1.79.24Z" data-color="1"/>
            <path fill="#f8a442" d="M72.47 117.19a.29.29 0 0 0 .24.14 5 5 0 0 0 3.9-2.48.93.93 0 0 0-.55-1.35c-2.06-.61-5.06 1.4-3.59 3.69Z" data-color="1"/>
            <path fill="#f8a442" d="M80.23 116.92a.51.51 0 0 0 .61.62 4.23 4.23 0 0 0 3-2.52 1.46 1.46 0 0 0-.52-2l-.34-.14a1.44 1.44 0 0 0-1.63.66 9.58 9.58 0 0 0-1.12 3.38Z" data-color="1"/>
            <path fill="#f8a442" d="M65.21 108.46c.65-1.38 1.47-3.26.35-4.58a1.2 1.2 0 0 0-1.7 0c-1.13 1.32-.3 3.2.35 4.58a.58.58 0 0 0 1 0Z" data-color="1"/>
            <path fill="#f8a442" d="M66.62 129.22a1.07 1.07 0 0 0-2.05 0 10.5 10.5 0 0 0-.24 4.06c.1.68 1 .77 1.43.38 1.31-1.22 1.24-2.79.86-4.44Z" data-color="1"/>
            <path fill="#f8a442" d="M46.2 182.23c.44-1 .71-2.21 1.07-3.3.11-.33-.26-.52-.52-.4a4.81 4.81 0 0 0-2.64 3.13c-.42 1.34 1.57 1.82 2.09.57Z" data-color="1"/>
            <path fill="#f8a442" d="M45 192.34a9.1 9.1 0 0 0-.15 4.4c.27 1.84 3.16 1.09 2.81-.77a24.41 24.41 0 0 0-.65-3.63 1 1 0 0 0-2.01 0Z" data-color="1"/>
            <path fill="#f8a442" d="M100.72 178.46a1.4 1.4 0 0 0-2.74.37 3.85 3.85 0 0 0 .69 2.33 1.36 1.36 0 0 0 1.84.48l.28-.21a1.34 1.34 0 0 0 .34-1.31c-.13-.55-.28-1.12-.41-1.66Z" data-color="1"/>
            <path fill="#f8a442" d="M102.91 122.31c.79-1.24-1.13-2.77-2-1.59-.6.77-1.42 1.26-2.06 2-.36.41-.29 1.26.36 1.36a3.42 3.42 0 0 0 3.7-1.77Z" data-color="1"/>
            <path fill="#f8a442" d="M95.89 115.5a.44.44 0 0 0 .15.6c2.09 1.05 4.43-.56 5.53-2.36a.49.49 0 0 0-.42-.72 5.76 5.76 0 0 0-5.26 2.48Z" data-color="1"/>
            <path fill="#f8a442" d="M108.68 128.13a.59.59 0 0 0 0-.82c-1-1.06-2-.86-3.36-.59a1 1 0 0 0 0 2c1.38.28 2.34.47 3.36-.59Z" data-color="1"/>
            <path fill="#f8a442" d="M106.73 106.49c-2.37 1-1.35 6 1.09 6.26a.58.58 0 0 0 .5-.29c1-1.4 0-4.71-1.11-5.91a.41.41 0 0 0-.48-.06Z" data-color="1"/>
            <path fill="#f8a442" d="M122.34 112.85c-1.73.14-4.26 1.35-3.83 3.43a.43.43 0 0 0 .42.32c1.22 0 2.13-.85 3.41-.89 1.85-.06 1.82-3.02 0-2.86Z" data-color="1"/>
            <path fill="#f8a442" d="M123.62 122a1.54 1.54 0 0 0-1.09-1.44 3.65 3.65 0 0 0-4.42 1.44 1.18 1.18 0 0 0 1.13 1.95c1.26-.21 4.47.05 4.38-1.95Z" data-color="1"/>
            <path fill="#f8a442" d="M129.27 127.09c-.94-.1-1.84-.35-2.79-.37a1 1 0 0 0-.7 1.71 4.13 4.13 0 0 0 3.82 1.07c1.45-.32.97-2.28-.33-2.41Z" data-color="1"/>
            <path fill="#f8a442" d="M115.91 109.94a1 1 0 0 0-1.83-.49 11.08 11.08 0 0 0-2.25 5.38c0 .3.3.47.55.42 2.55-.49 3.68-2.89 3.53-5.31Z" data-color="1"/>
            <path fill="#f8a442" d="M82.5 107.71a.61.61 0 0 0 .73.09 8.66 8.66 0 0 0 2.34-2.69c1-1.5-1.38-3.37-2.52-1.94s-1.87 3.1-.55 4.54Z" data-color="1"/>
            <path fill="#f8a442" d="M90.16 111.16a.46.46 0 0 0 .65 0c1.24-1.48 1.76-3.61 0-4.81a.53.53 0 0 0-.57 0c-1.84 1.2-1.32 3.33-.08 4.81Z" data-color="1"/>
            <path fill="#f8a442" d="M67 100a5.78 5.78 0 0 0 3.45-5.65.89.89 0 0 0-1.32-.76 6.51 6.51 0 0 0-2.54 6.18.32.32 0 0 0 .41.23Z" data-color="1"/>
            <path fill="#f8a442" d="M76.39 93.63c-.86-1.08-2.71-.17-2.66 1.1.1 2.31 1.16 3.7 2.8 5.17a.26.26 0 0 0 .42-.11c.86-2.29 1.05-4.14-.56-6.16Z" data-color="1"/>
            <path fill="#f8a442" d="M69.37 84.06a11.66 11.66 0 0 0 3.85-1.7 1.51 1.51 0 0 0-1.53-2.61 6.54 6.54 0 0 0-3.32 3.31c-.25.61.46 1.13 1 1Z" data-color="1"/>
            <path fill="#f8a442" d="M80.36 85.05a3.79 3.79 0 0 0 2.84 3.76c.38.07.9-.18.84-.64a3.85 3.85 0 0 0-3.33-3.47.34.34 0 0 0-.35.35Z" data-color="1"/>
            <path fill="#f8a442" d="M84.26 98.59c1.68.06 4.15-.52 4.88-2.17a.53.53 0 0 0-.18-.69c-1.73-1.29-4.43.12-5.25 1.89a.65.65 0 0 0 .55.97Z" data-color="1"/>
            <path fill="#f8a442" d="M89.58 87.59c-.83 2 4 4.21 5.49 3.75a.54.54 0 0 0 .38-.51c-.16-1.61-4.95-5.43-5.87-3.24Z" data-color="1"/>
            <path fill="#f8a442" d="M94.72 95.19c-.63.4-4.14 2.76-2.72 3.91s3.23 0 4.44-1c1.71-1.25.19-4.1-1.72-2.91Z" data-color="1"/>
            <path fill="#f8a442" d="M105.82 98.65a.7.7 0 0 0-.49-.48c-2.24-.59-3.45 1.91-4 3.71a.25.25 0 0 0 .24.31c2.04.12 4.88-1.12 4.25-3.54Z" data-color="1"/>
            <path fill="#f8a442" d="M113.51 102.49c.66-1.84 1.37-3 1.35-5.09a1.71 1.71 0 0 0-3.42 0c0 2 .69 3.25 1.35 5.09a.38.38 0 0 0 .72 0Z" data-color="1"/>
            <path fill="#f8a442" d="M119.32 100.29c-.37.9.46 5.52 2.11 4.15 1.28-1 1.16-3.14.53-4.49s-2.23-.67-2.64.34Z" data-color="1"/>
            <path fill="#f8a442" d="M125.52 108a6.32 6.32 0 0 0 3.91.3 1.07 1.07 0 0 0 0-2c-1.66-.36-3.1-.18-4.09 1.32a.3.3 0 0 0 .18.38Z" data-color="1"/>
            <path fill="#f8a442" d="M128.47 88.31c-2.41-.5-3.91 2.22-4.71 4.16a.52.52 0 0 0 .5.66c2.22-.14 5.27-1.72 4.75-4.28a.76.76 0 0 0-.54-.54Z" data-color="1"/>
            <path fill="#f8a442" d="M127.7 98.58c.93-1.3 1.48-2.78 0-3.84a.6.6 0 0 0-.63 0c-1.48 1.06-.94 2.54 0 3.84a.38.38 0 0 0 .63 0Z" data-color="1"/>
            <path fill="#f8a442" d="M108.09 88.51a5.61 5.61 0 0 0-.41 3.37.61.61 0 0 0 .75.42 5.44 5.44 0 0 0 2.77-2.48c1.28-2.03-2.26-3.7-3.11-1.31Z" data-color="1"/>
            <path fill="#f8a442" d="M99 91.72a.42.42 0 0 0 .63.36c1.71-1 5.24-4.62 2.36-6.3-2.57-1.49-2.99 4.83-2.99 5.94Z" data-color="1"/>
            <path fill="#f8a442" d="M87.68 80.79a5.53 5.53 0 0 0 0-6.37c-1.34-2-4.47-.22-3.24 1.9a51.29 51.29 0 0 0 2.63 4.47.36.36 0 0 0 .61 0Z" data-color="1"/>
            <path fill="#f8a442" d="M80.08 75.76a.82.82 0 0 0-1.28-.17c-1.28 1.49-.68 3.12-1 5 0 .19.17.44.37.29 1.64-1.29 3.37-3.09 1.91-5.12Z" data-color="1"/>
            <path fill="#f8a442" d="M77.29 70c1.1-.39 5.9-3.22 4.23-4.89-2.06-2-4.89 2.69-4.91 4.37a.54.54 0 0 0 .68.52Z" data-color="1"/>
            <path fill="#f8a442" d="M92.69 80.17a.46.46 0 0 0 .78.32 12.69 12.69 0 0 0 4.44-7.22.8.8 0 0 0-1.16-.9c-3.01 1.63-3.92 4.54-4.06 7.8Z" data-color="1"/>
            <path fill="#f8a442" d="M103.07 77.86a.32.32 0 0 0 .46.36c1.33-.76 2.66-1.24 3.37-2.7a.48.48 0 0 0-.29-.7c-2.19-.82-3.2 1.25-3.54 3.04Z" data-color="1"/>
            <path fill="#f8a442" d="M113 76.92c-1.16 2-.7 3.89-.32 6 .07.41.64.4.84.1 1-1.56 2.32-2.9 2.75-4.77a1.8 1.8 0 0 0-3.27-1.33Z" data-color="1"/>
            <path fill="#f8a442" d="M120.67 85.12a5.19 5.19 0 0 0-2.18 6.28.46.46 0 0 0 .76.2 6.56 6.56 0 0 0 2.86-5.66 1 1 0 0 0-1.44-.82Z" data-color="1"/>
            <path fill="#f8a442" d="M128.64 72.94c-1.65 2.24-1 6.68 1.06 8.45a.49.49 0 0 0 .76-.09c1.36-2.11 1.62-6.3.09-8.36a1.13 1.13 0 0 0-1.91 0Z" data-color="1"/>
            <path fill="#f8a442" d="M123.37 73.5a.61.61 0 0 0-.75-.09 5.65 5.65 0 0 0-2 4.53 1 1 0 0 0 1.24 1 3.19 3.19 0 0 0 1.51-5.44Z" data-color="1"/>
            <path fill="#f8a442" d="M110.4 67.18c0 .7-.51 2.61.35 3.07l.11.06a1.08 1.08 0 0 0 1.1 0 3.58 3.58 0 0 0 1.61-3.13c.06-2.04-3.09-2.03-3.17 0Z" data-color="1"/>
            <path fill="#f8a442" d="M100.15 63.25h-.33a1 1 0 0 0-.83.47c-1.18 1.71.27 3.95 2 4.58a.55.55 0 0 0 .64-.26c.78-1.19.54-2.21.11-3.53a1.73 1.73 0 0 0-1.59-1.26Z" data-color="1"/>
            <path fill="#f8a442" d="M91.33 67.81a1.24 1.24 0 0 0 .67 1.07.53.53 0 0 0 .21.11c1.57.29 2.41-1.59 3-2.76.89-1.88-1.92-3.52-2.8-1.64a9.89 9.89 0 0 0-1.08 3.22Z" data-color="1"/>
            <path fill="#f8a442" d="M84.38 66.81a5.17 5.17 0 0 0 3.07-4.28.55.55 0 0 0-.66-.67c-2.05.42-4.08 2.6-2.9 4.75a.43.43 0 0 0 .49.2Z" data-color="1"/>
            <path fill="#f8a442" d="M87.19 56.67c1.81-.31 4.55-1.67 5.17-3.47a.56.56 0 0 0-.26-.63c-2-1.42-5 1-6 2.66a1 1 0 0 0 1.09 1.44Z" data-color="1"/>
            <path fill="#f8a442" d="M100.4 49.71C97.39 49 98 54.5 98.87 56a.59.59 0 0 0 .8.2c1.88-1.16 2.26-3.32 1.86-5.37a1.59 1.59 0 0 0-1.13-1.12Z" data-color="1"/>
            <path fill="#f8a442" d="M127.54 62.69c-2.54-1-5.48 1.1-5.83 3.7a.33.33 0 0 0 .33.33 9 9 0 0 0 5.76-3 .61.61 0 0 0-.26-1.03Z" data-color="1"/>
            <path fill="#f8a442" d="M134.89 67.28a12.3 12.3 0 0 0 .22 3.92 1.4 1.4 0 0 0 2.54.33 7.23 7.23 0 0 0 .87-4.25 1.82 1.82 0 0 0-3.63 0Z" data-color="1"/>
            <path fill="#f8a442" d="M131 66.74c0 .26.15.51.44.43a5.16 5.16 0 0 0 3.58-5.67.58.58 0 0 0-.85-.49c-1.99 1.22-2.81 3.44-3.17 5.73Z" data-color="1"/>
            <path fill="#f8a442" d="M107.4 57.71a.9.9 0 0 0 1.1 1.1c1.19-.44 4.31-2.83 2.8-4.34s-3.6 2.15-3.9 3.24Z" data-color="1"/>
            <path fill="#f8a442" d="m107.83 46.4 1-.48a.44.44 0 0 0 0-.84l-.14-.07c.83-1 2.12-1.59 1.69-3.28a.79.79 0 0 0-.57-.57c-2-.32-4.81 2.66-4.11 4.68a1.29 1.29 0 0 0 2.13.56Z" data-color="1"/>
            <path fill="#f8a442" d="M98.22 42.59a9.26 9.26 0 0 0 6.14-4.94.56.56 0 0 0-.54-.71c-2.57.23-5.8 2.19-6.42 4.83a.68.68 0 0 0 .82.82Z" data-color="1"/>
            <path fill="#f8a442" d="M113.37 33a.86.86 0 0 0 1-1.05c-.45-1.42-1.53-2.34-2.44-3.49a.86.86 0 0 0-1.46.6c.29 1.85 1.05 3.31 2.9 3.94Z" data-color="1"/>
            <path fill="#f8a442" d="M114.81 46.36c1.7.25 3.88.27 5.35-.71a.69.69 0 0 0 0-1.19c-1.77-.93-3.94 0-5.45 1.1-.26.19-.32.74.1.8Z" data-color="1"/>
            <path fill="#f8a442" d="M116.84 57.81c1.51 1.33 5.38 1.52 5.36-1.2 0-2.11-4.66 0-5.36.58a.44.44 0 0 0 0 .62Z" data-color="1"/>
            <path fill="#f8a442" d="M123.61 37.24c.47-1.69.25-4.82-1.4-5.81a.34.34 0 0 0-.34 0c-2.17 1.33-1.24 5.16.7 6.24a.72.72 0 0 0 1.04-.43Z" data-color="1"/>
            <path fill="#f8a442" d="M120.53 48.34c1.79 1.54 5.08 1.74 6.59-.25a.75.75 0 0 0 0-.74c-1.51-2-4.8-1.79-6.59-.25a.88.88 0 0 0 0 1.24Z" data-color="1"/>
            <path fill="#f8a442" d="M128.25 56.17a.46.46 0 0 0 .58.44c2.21-.63 5-2.46 5.31-4.89a.53.53 0 0 0-.4-.52c-2.74-.46-5.33 2.36-5.49 4.97Z" data-color="1"/>
            <path fill="#f8a442" d="M143.65 52.61c-.57-1.69-3.45-1.52-3.27.44.18 2.18 1.07 3.87 1.76 5.88a.36.36 0 0 0 .69 0c.75-2.21 1.62-3.93.82-6.32Z" data-color="1"/>
            <path fill="#f8a442" d="M143.56 63.2c-.07.16.1.35.26.35 2.08-.11 4.41-1 4.85-3.27a.43.43 0 0 0-.29-.51c-2.47-.98-4.01 1.47-4.82 3.43Z" data-color="1"/>
            <path fill="#f8a442" d="M148.84 48.82a18.9 18.9 0 0 0 3.87 6.46.64.64 0 0 0 1.07-.45 23.74 23.74 0 0 0-1-7.1c-.78-2.56-4.86-1.37-3.94 1.09Z" data-color="1"/>
            <path fill="#f8a442" d="M138.75 39.52a5.26 5.26 0 0 0-3.22 4.65c-.06.58.66.86 1.1.63a5.21 5.21 0 0 0 3-4.63.68.68 0 0 0-.88-.65Z" data-color="1"/>
            <path fill="#f8a442" d="M131.76 38.43a1 1 0 0 0-1.08-1.43c-1.77.29-2.57 1.46-3.66 2.79-.24.3-.13.91.36.86 1.85-.19 3.35-.57 4.38-2.22Z" data-color="1"/>
            <path fill="#f8a442" d="M119.93 25.9c1.87-.53 3.15-2.07 4.51-3.34a.88.88 0 0 0-.85-1.46c-2.14.45-4.91 1.8-4.17 4.51a.41.41 0 0 0 .51.29Z" data-color="1"/>
            <path fill="#f8a442" d="M133.46 24.61a.76.76 0 0 0-1.28-.53 7.2 7.2 0 0 0-2.83 5.42.25.25 0 0 0 .31.24c2.53-.37 3.76-2.74 3.8-5.13Z" data-color="1"/>
            <path fill="#f8a442" d="M134.93 19.48c1.67.17 3.33.36 5 .52a1.3 1.3 0 0 0 1.16-.66 1.06 1.06 0 0 0 .18-.67 1.34 1.34 0 0 0-1-1.29 8 8 0 0 0-5.67.9.65.65 0 0 0 .33 1.2Z" data-color="1"/>
            <path fill="#f8a442" d="M137.8 30.46c.42 1.65 1.63 2.32 3.29 2.44 1.4.1 1.59-2 .32-2.38a12 12 0 0 0-3.37-.38.25.25 0 0 0-.24.32Z" data-color="1"/>
            <path fill="#f8a442" d="M150.17 23c.35-.42.3-1.24-.36-1.36a9.8 9.8 0 0 0-7.24 1.95.72.72 0 0 0 .17 1.3c2.52.62 5.72.17 7.43-1.89Z" data-color="1"/>
            <path fill="#f8a442" d="M146.94 39.48a1.54 1.54 0 0 0 .74 0 1.41 1.41 0 0 0 1-1.72 6.83 6.83 0 0 0-2.12-3.86.7.7 0 0 0-1.15.31c-.29 1.52.23 2.82.58 4.29a1.37 1.37 0 0 0 .95.98Z" data-color="1"/>
            <path fill="#f8a442" d="M142.61 44.86a.39.39 0 0 0 0 .46c1.52 1.61 4.75.69 4.83-1.6a.54.54 0 0 0-.28-.48c-1.53-.77-3.56.25-4.55 1.62Z" data-color="1"/>
            <path fill="#f8a442" d="M155.09 34.11a.33.33 0 0 0 .45.12 3.86 3.86 0 0 0 2.11-2.88 1.53 1.53 0 0 0-.7-1.72c-2.62-1.63-2.45 3.1-1.86 4.48Z" data-color="1"/>
            <path fill="#f8a442" d="M150.49 28.49c2.12 0 5.72-1.56 6-3.88a.67.67 0 0 0-.34-.59c-2.14-1.18-5.46 1.4-6.35 3.31a.78.78 0 0 0 .69 1.16Z" data-color="1"/>
            <path fill="#f8a442" d="M154.31 38.56c.59 1.67 2.34 3.2 4.07 2.18a.67.67 0 0 0 .31-.75c-.56-1.52-2.09-1.86-3.59-2.22-.44-.11-.97.31-.79.79Z" data-color="1"/>
            <path fill="#f8a442" d="M163.38 28.81c1.54.08 4.94.8 4.58-1.68a1.44 1.44 0 0 0-1.38-1.05c-1.74-.14-2.87.24-3.76 1.76a.65.65 0 0 0 .56.97Z" data-color="1"/>
            <path fill="#f8a442" d="M158.22 46.65c.52.56 1.06 1.06 1.61 1.58 1.21 1.14 3.06-.73 1.82-1.82A5.8 5.8 0 0 0 159.2 45a1 1 0 0 0-.98 1.65Z" data-color="1"/>
            <path fill="#f8a442" d="M165.23 49.05a1.55 1.55 0 0 0-1.56 0 7.33 7.33 0 0 0-3.36 2.88.48.48 0 0 0 .28.68c1.62.66 3.24 0 4.64-.89a1.54 1.54 0 0 0 .77-1.34 1.41 1.41 0 0 0-.77-1.33Z" data-color="1"/>
            <path fill="#f8a442" d="M166.25 32.47c-1.33.91-3.6 3-2.36 4.81a.47.47 0 0 0 .49.2c1.26-.2 2.51-1.44 3.55-2.13a1.71 1.71 0 0 0 .76-1.89 1.44 1.44 0 0 0-.43-.73 1.64 1.64 0 0 0-2.01-.26Z" data-color="1"/>
            <path fill="#f8a442" d="M165.56 40.57a.69.69 0 0 0 .3 1.15c1.54.27 2.81.45 4.1-.48A.74.74 0 0 0 170 40a3.17 3.17 0 0 0-4.44.57Z" data-color="1"/>
            <path fill="#f8a442" d="M175.38 47.7c1.87.13 1.9-2.93 0-2.93-1.56 0-3.32.24-4.12 1.74a.66.66 0 0 0 .39 1 17.82 17.82 0 0 0 3.73.19Z" data-color="1"/>
            <path fill="#f8a442" d="M176.75 39.07a.8.8 0 0 0 1.19-.68 6.21 6.21 0 0 0-2.62-4.4c-1-.82-2.69.27-1.86 1.44.97 1.37 1.74 2.91 3.29 3.64Z" data-color="1"/>
            <path fill="#f8a442" d="M184.7 46.39c.46-1.83.43-3.07-1.12-4.23a1.22 1.22 0 0 0-1.3 0c-1.55 1.16-1.58 2.4-1.12 4.23a1.85 1.85 0 0 0 3.54 0Z" data-color="1"/>
            <path fill="#f8a442" d="M114.58 61.05c.15 1.7 1.13 4.21 2.73 4.94a.59.59 0 0 0 .77-.21c1.18-1.84-.59-4.5-2.31-5.41a.8.8 0 0 0-1.19.68Z" data-color="1"/>
            <path fill="#f8a442" d="M71.65 88.25a.72.72 0 0 0 .43 1c1.93.61 3.83-.92 4.62-2.65a.51.51 0 0 0-.44-.75 5.53 5.53 0 0 0-4.61 2.4Z" data-color="1"/>
            <path fill="#f8a442" d="M57.56 119.24c1.1-1.23 1.22-3.19 1.75-4.75.11-.31-.21-.53-.48-.49-2.19.35-3.54 3.32-2.18 5.13a.58.58 0 0 0 .91.11Z" data-color="1"/>
            <path fill="#f8a442" d="M110.8 35.59a.8.8 0 0 0-.21.79c.55 2 3 2.36 4.79 2.31a1.2 1.2 0 0 0 .83-2c-1.32-1.52-3.72-2.48-5.41-1.1Z" data-color="1"/>
        </g>
    </g>
</svg>
