<?xml version="1.0" encoding="UTF-8"?>
<svg data-bbox="0.002 -0.002 706.771 706.588" viewBox="0 0 706.77 706.59" xmlns="http://www.w3.org/2000/svg" data-type="color">
    <g>
        <g>
            <path fill="#f8a442" d="M668.39 29.4c-46.63-18.34-95.34 20.38-141 2.59a6.82 6.82 0 0 0-1.48-.4 64.63 64.63 0 0 0-11.62-19.88c-8.29-9.3-21.45-17.54-31.68-6.22-15.13 16.74-10.88 52 .64 74.25a1.79 1.79 0 0 0-.12.24c-16.52 42.34-36.84 140.94-99.77 128-.19 0-.37 0-.55-.06-11.2-21.62-36.06-22.4-56.92-32.85-9.87-4.94-19.34-12.09-28.5-19.92a6.88 6.88 0 0 0 .2-2.08c-.84-12.94-4.17-25.83-7.65-38.27-4.33-14.7-9.36-37.32-26.72-41.48-17.55-4.2-29.55 17.64-38.37 28.48-20.48 22.28-86.54 35.89-100.55-2.8-3.5-12-6.64-25.45-21.67-25.95-17.13-.57-21.29 17.08-21.82 30.71.28 21.18-19 44.39-27.13 63.86-2.2 5.28-4.23 10.57-6.14 15.88a7.49 7.49 0 0 0-1.49 1.53C24.16 216.3 5.14 244.93.76 283.58c-5.19 45.72 17.83 89.74 21.55 134.68 1.85 22.33-7.33 42-10.06 63.6-1.88 14.81 4.61 31.59 10.42 44.75 10 22.57 23.08 44.4 21.8 69.82-.54 10.87-5.08 23.37 0 33.92 9.54 20 33.77 21.73 53.16 15.84 21.24-6.45 11.71-31.36 4.65-44.46C92 582.78 81.33 563.5 75 542.86c-7-22.83 4.21-43.55 5.09-66.09.76-19.42-10.51-38.24-10.83-58-.18-11.28 3-22.65 7.27-33.7 8.81 18.33 14.8 38.4 16.05 58.6.68 10.95.09 20.81 2.41 31.65 3.37 15.75 10.25 29.81 12.11 46 2.33 20.23-12.43 39.72-3.41 59 5.68 12.1 26.61 12.25 37.3 11 28.18-3.22 15.36-37.3 8.94-53.17a217.85 217.85 0 0 1-8.72-26c-4.3-16.18 2.25-32.27 1.6-48.53-.71-18-7.84-31.31-4.35-50.28 2.25-12.26 2.93-24.71 6.43-36.61 29.57 7.89 55.53 20.33 63.95 56.14 2.16 35.59-12.69 69.13-8.14 104.69 4.87 38.11-9.16 73.89-12.89 111.53-2.22 22.41-5.51 44.75 21.56 53.78 15.61 5.21 41.5 7.25 51.45-9.74 9.26-15.81-7.75-37.91-12.76-52.26-6.07-17.38-4.5-41.32-1.52-59.14 2.62-15.7 13.35-26.79 19.28-40.87 12.56-29.8-8.06-60.42-5.94-91.5 1.33-19.47 8.22-34.19 18.62-45.78 1.15 8.86 3.18 17.62 4.15 26.66 2.05 19-.16 35.79-4.45 54.36-3 13-1 25.75 1.18 38.68 3.82 22.2 2.34 43.58 0 65.81-1.88 17.53-17.21 59.1-1.52 74.79 14.78 14.77 38 15.54 57.29 9.8 13.91-4.14 16.65-17.19 13.59-29.56-2.3-9.32-8.54-18.11-13.35-26.23-10.49-17.73-12-33.33-9.08-53.85 2.17-15.37 7.87-30.17 9.53-45.61 1.91-17.81-1.85-34-3.41-51.73-3.09-35 16.8-68.61 26.06-101 6.85-.37 13.78-.33 20.58-1 15.63-1.62 30.66-6.16 45.24-11.83 55.56-21.63 95.57-70.52 122-122.12 17.79-34.7 34.05-66.05 66.12-89.91 13.69-10.2 30.14-21 47.62-14.62 8 2.92 20.76-2.74 27.5-6.74 38.15-22.62 13.02-77.43-19.16-90.08ZM368.07 209.34c-10.82 2.19-20.23 6.33-27.82 15.75-10.11 12.55-3.89 37.19-27.28 31.21-32.52-8.31-62.39-41.22-85.39-64.82q1.28-3 2.62-5.89c18 21.45 45 45 70.32 54.92 7.4 2.88 12.65 3.64 18.33-2.32 4.17-4.38 6.91-11.62 10.6-16.32 7.72-9.83 20.1-15 31.63-18.77a29.8 29.8 0 0 1 6.99 6.24Zm-42.18-19.49c7.51 3 16.93 5.06 25.45 8.39-15.68 6.45-28 16-36.72 31.77-9.63 17.54-67.22-37.69-80.54-52.4 2.86-5.65 5.88-11.24 9.12-16.68a71.88 71.88 0 0 0 11.37 10.81c9.94 7.66 23.75 17.72 36.46 19.75a.42.42 0 0 0 .41-.69c-7.2-7.92-19.36-12.29-28.12-18.35a77.41 77.41 0 0 1-14.82-13 15.58 15.58 0 0 1-2.2-3.51c3.89-6.31 7.94-12.45 12.09-18.39q20.79 17.67 41.93 34.9c7.96 6.42 15.95 13.55 25.57 17.4Zm-64-66.8c-3.49-3-7.83-2.31-10.47 1.35-25.31 34.88-43.42 73.23-51.58 115.6-2.37 12.27-1.82 48.58-13.64 53.64-8.5 3.65-26.37.34-35.64.3a287.4 287.4 0 0 1-41.3-3.65c-10.08-1.52-51.05-1-56.63-10.89a44.46 44.46 0 0 1-3.44-7.82c13.56 8 34.48 7.4 48.2 7.89 18.92.67 37.48 4.93 56.42 5 6.82 0 20.83 2 25.93-4.47 18.64-23.71 15.09-63.4 24.51-91.27 6.7-19.82 18.09-38.66 31-55a95.56 95.56 0 0 1 21.93-20.26c10.4-7 17.69 5.09 22.68 15.21 1.15 4.46 2.18 9 3 13.5-7.19-6.69-14.19-13.31-21-19.13ZM198 132.16c-13.48 22.71-22.73 43.61-29.42 71-3.5 14.37-5.68 28.84-7.94 43.43-1.73 11.23-22.17 8.7-29.87 8.49-18.39-.5-37.72-2.11-55.37-7.45-14.59-4.41-6.55-21.18-4-31.94 8.14-34.53 23.34-72.25 49.77-97.12 17.61 18.98 49.72 21.54 76.83 13.59ZM94.14 103.79a48.84 48.84 0 0 1 1.76-11.9c1.27-4.41 3.68-5.58 8.11-5.43s6 10 7.06 14.56a7.24 7.24 0 0 0 .37 1.55 6.86 6.86 0 0 0 .62 1.48 47.91 47.91 0 0 0 4.21 8.2C86.79 139.4 71.37 181 62.4 219c-2 8.43-6 20-1.41 28.32 5.86 10.71 26.58 11.44 36.42 12.79 16.12 2.21 64.34 13.31 71-11.41 5.2-19.43 6.82-40 12.09-59.66 6.24-23.22 16.91-41.4 29.49-61.23 9.66-4.22 18.14-9.86 24.33-16.59 7-8.6 12.67-20.49 23.67-24.57 7.74-2.87 13.22 11.2 16.38 21.79-7.16-6.31-15.8-6.55-29.84 4.35-23.78 18.43-39.93 50-49.37 77.93C189.65 207 188 224.22 185 241c-1.5 8.42-4.54 31.31-13.63 34.85-6.13 2.38-17.76.61-24.17.59-17.73 0-35.69-4.45-53.56-5.09-13.35-.47-39.08.42-47-12.92-1.28-14.8 2.09-30.72 5.15-44.37 5.14-23 15.28-44.74 25.61-65.72 7.77-15.9 16.98-26.91 16.74-44.55Zm32.06 345.64c3.49 13.77 1.69 26.43.75 40.19-1.13 16.78 2.13 31.85 8.26 47.45 3.28 8.32 14.48 28.48 8.5 37.37-2.34-5.32-6.53-10.11-10.39-10.68a.7.7 0 0 0-.84.85c.84 3.76 3.58 7.09 4.84 10.76a17.47 17.47 0 0 1 .65 2.78 14.48 14.48 0 0 1-2.26.49c-30.87 3.53-17-32.09-15.28-48.8 2-19.85-7.21-39.47-12.54-58-5.18-18.08-2-38.14-6.4-56.81a183.47 183.47 0 0 0-18.22-46c1-2.39 2.07-4.75 3.08-7.09 14.37 5.05 30.14 8.12 45.5 11.65-4.77 15-6.79 32-8.13 47.16a80.38 80.38 0 0 0 2.48 28.68ZM323.38 432c-5.74 24.13-2.62 44.78-.12 69.07 1.28 12.34-1 25-3.92 37.78a15.08 15.08 0 0 1-4.27 4.78c-1.93 1.24-4.2.8-6.2 1.67a.55.55 0 0 0-.11.85c2 2.61 5.44 2.39 8.57 1.22-2.62 11-5.25 21.88-6 32.56-1.41 19.57 5.9 33.51 15.5 49.72 4.57 7.72 15.11 22.6 5.3 29.84-.57-1.43-1.22-2.77-1.73-3.79-2.95-5.89-7.93-11.51-13.87-14.49-1-.5-2.56.34-2.08 1.6 2.28 6 6.47 11.07 9.36 16.75.21.41.62 1.57 1.15 2.94a38.64 38.64 0 0 1-3.82.7c-22.74 2.89-36.28-11.59-33.32-35.43 3.58-28.86 8-57.51 7.33-86.67-.29-12.89-4-25.94-5.33-38.66-1.44-13.42 5.44-26.23 6.66-39.34 2.25-24.15-5.8-47.38-5.43-71 11.58-8.62 25.53-15.06 40.43-20.46-10.5 13.57-16.81 32.67-15.75 46.09.06.69 1 1.09 1.4.38 5.45-10.32 8.84-21.28 15.21-31.2a79 79 0 0 1 9.09-11.2c-6.14 18.66-13.43 36.85-18.05 56.29Zm238.79-258.35c-17.12 24.67-27.87 53.44-43.23 79.19-16.08 27-39.25 50.46-65 68.54-17.62 9.47-35.7 17.24-56.21 19.36-26.36 2.72-49-6.51-71.66-18.78-.57-.32-1 .38-.65.85 14.18 18.22 36.49 26.05 58.89 27.31a188.21 188.21 0 0 1-28.51 2.52c-22.7.24-46.38 11.69-65.91 22.64-46.1 25.82-50 83-35.75 128.35 5.07 16.15 0 29.78-6.63 43.35-.55.51-1.08 1.07-1.64 1.56-6.51 5.67-13.59 5.73-21.29 2.82a.42.42 0 0 0-.47.61c4.35 6.83 11.84 7.08 18.68 4.51-5 10-9.67 20.2-10.72 31.65-2.33 25.36-.66 50 10.1 73.15 5.55 12 7.36 22.64 1 28.11-2-9.29-9.12-20-14.22-22.44-.57-.27-1.5 0-1.41.81.53 4.9 3.28 9.64 4.65 14.37a56 56 0 0 1 2.13 10 7.48 7.48 0 0 1 0 .82 50.08 50.08 0 0 1-13.61-.32c-31.91-4.42-18.83-53.27-15.7-70.12 3.07-16.51 7.75-32.77 9.67-49.49 2.09-18.2-1.2-34.43-2.2-52.57-.87-15.9 5.2-33.2 8.21-48.71 2.91-15 2.22-30.55.92-45.71-3-35.06-13.83-68.62-14.68-104-.21-8.59-13.54-8.61-13.33 0a296.22 296.22 0 0 0 3.79 38.54c-7.27-13.4-20-28.12-35.57-29-.26 0-.32.34-.13.46 14.56 9.38 24.08 20.88 31.72 36.42 3.8 7.73 5.58 15.53 6.84 23.43-9.77-9.57-21.89-17-35.11-22.59-32.09-13.49-80.32-12-104.61-38.18-5.86-6.32-15.27 3.14-9.43 9.42a69.57 69.57 0 0 0 14.44 11.67h-1c-5.9-.59-12.39-2.71-18.16-.77a.38.38 0 0 0-.1.68c5.87 4.47 17.33 8 26.88 7.23-10.37 24.92-19.37 48.53-16 76.23 1.69 14 7.81 27.13 9.67 41.23C69 493 59.25 511 59.14 527.76 59 553.7 75.47 578.89 87 600.93c6 11.5 13.57 26 3.52 31.94-.07-.37-.13-.74-.18-1.08-.78-4.87-3.28-9.89-7.65-12.39a.43.43 0 0 0-.62.47c.56 4.06 2.1 7.92 3 11.93a14.5 14.5 0 0 1 .27 3 34.08 34.08 0 0 1-6.33.81c-28.91 1.13-21.63-30-20.73-48 1.38-27.49-21-57.55-29.41-82.47-10.28-30.52 10.25-65.49 5.75-98.14-5.3-38.43-19.87-74.48-20.92-113.6-.71-26.57 9.65-49.44 23-70.89a206 206 0 0 0-3.24 24.92c-1 15.94 1.1 27.12 8.56 40.39a12.25 12.25 0 0 0 2.35 2.83c-.64 1.83-1.18 3.69-1.8 5.18-1.81 4.38-3.94 9.91-1.72 14.46a.34.34 0 0 0 .58 0C44 306 44.91 300.54 46.91 296c.36-.82.8-1.7 1.24-2.61-.05.95-.07 1.86-.13 2.66-.35 4.71-.31 10.24 2.88 14a.35.35 0 0 0 .59-.16c1.18-4.45.71-9.27 1.23-13.84 0-.2.06-.42.09-.62 1.14.41 2.32.79 3.55 1.14 0 .19-.09.37-.12.56-.61 3.14-1 7.11.9 9.87a.41.41 0 0 0 .69 0c1.49-2.6 1.56-5.94 2.21-8.83 0-.21.12-.41.18-.63.33.08.65.17 1 .23-.06.46-.12.89-.18 1.28-.61 3.95-.66 8.65 2 11.84a.61.61 0 0 0 1-.26c1.35-3.66 1-7.87 1.63-11.69 0-.1 0-.22.08-.32l.94.14c-.38 5 1.06 10.69 3.52 13.29a.35.35 0 0 0 .59-.16c.58-3.21.09-6.49 0-9.73a17.31 17.31 0 0 1 .23-2.79c1.74.22 3.46.41 5.15.59-.12 1-.21 2-.31 2.87-.49 4.28-.24 9.46 2.68 12.84a.29.29 0 0 0 .49-.13c1.15-4.41.5-9.22 1.2-13.74a14.55 14.55 0 0 1 .3-1.43l2.2.18c0 .55-.09 1.1-.12 1.66-.23 3.91-.24 8.33 1.73 11.83a.48.48 0 0 0 .87-.12c1.15-3.24 1-6.89 1.23-10.29.06-.92.17-1.83.27-2.73 2 .17 3.76.35 5.24.54 0 .37 0 .76-.08 1.11-.56 4.5-1.21 9.25.91 13.43a.35.35 0 0 0 .64-.09c1.33-4.46 1.86-9.33 2.52-14l5.16.64c-.08.66-.15 1.31-.22 1.95-.41 4-1.11 8.43 1 12.08a.3.3 0 0 0 .51 0c1.78-3 1.89-6.65 2.44-10.06.18-1.1.45-2.26.71-3.43 1.4.17 2.81.37 4.21.53v1.65c0 3.38-.1 6.71 1.06 9.93a.36.36 0 0 0 .68 0 36.54 36.54 0 0 0 2.3-11.14c1.34.14 2.68.25 4 .39.38 5.7 2.32 11.78 4.33 14a.51.51 0 0 0 .84-.22c1-3.69-.22-8.25-.5-12 0-.42 0-.87.05-1.31 1.26.12 2.52.26 3.78.37v.42c.45 4.61 1.92 9.37 4.92 12.94a.32.32 0 0 0 .54-.21c-.23-3.87-1.15-7.62-1.61-11.47a11 11 0 0 1 0-1.29c2.26.19 4.55.28 6.82.44-.07 4.27-.5 8.7.73 12.76a.44.44 0 0 0 .8.11c2.15-3.8 2.4-8.34 2.67-12.61l.65.05v.36c-.25 4.8-1.27 10.22-.78 15 0 .3.36.59.66.38 3.1-2.16 3.76-6.38 4.29-9.86.12-.75.38-2.28.51-3.94.09.57.17 1.13.25 1.66.59 4.37 1 9.17 3.21 13.07a.61.61 0 0 0 1.1-.15c1.26-3.87.5-8 .18-12-.1-1.18-.06-2.58-.12-4 1.31.05 2.66 0 4 .07-.18 4.33.77 8.84 2.6 11.36a.53.53 0 0 0 1-.12c1.17-3 .78-6.45 1-9.65 0-.49.1-1 .16-1.5 1.94 0 3.87.1 5.82.1v.48c.27 3.56.82 9.52 4.28 11.44a.4.4 0 0 0 .54-.14c1.73-2.76.39-6.82.06-9.85a18.36 18.36 0 0 1-.07-1.85l2.53.07c.95 4.67 3.85 9.93 6 11.3a1.4 1.4 0 0 0 1.4 0 .42.42 0 0 0 .16-.11c1.81-1.54-1.08-6.81-1.56-8.55a15.89 15.89 0 0 1-.45-2.57c1.77 0 3.63-.06 5.52-.18.24 2.62.59 5.34 2.79 7a.54.54 0 0 0 .74-.2c1.42-2.06 1.25-4.75 1-7.28l1.58-.22c1.68 3.79 5.35 7.22 9.5 4.91a.41.41 0 0 0 0-.69 13.81 13.81 0 0 1-4.63-5.43 18.09 18.09 0 0 0 3.49-1.62 19.93 19.93 0 0 0 3.28 3.55 9.28 9.28 0 0 0 6 2.54c.63 0 2.76-.81 2.42-1.81-.81-2.39-4.23-3.5-5.91-5.26a23.81 23.81 0 0 1-2.1-2.69 7.26 7.26 0 0 0 .67-1.83c5.91-27.08 8.8-54.68 15.87-81.51.81-3.09 1.79-6.15 2.78-9.21a84.13 84.13 0 0 0 9.06 13.21c6.84 8.61 14.36 18.73 23.57 24.91.54.36 1-.32.8-.8-3.67-8.45-11.22-15.38-17-22.45a60.62 60.62 0 0 1-3.59-5.14c19.84 19.39 42 38.38 66.69 48.76 11.15 4.68 22.51 7.48 33.57 1.31 4.23-2.37 7.78-7.78 9.23-12.24 6.49-20 10-31.23 34.58-33.95a7.06 7.06 0 0 0 1.26-.26h.07c69.89 14.35 93.6-75 112.66-127.9 6 6 15.42-3.35 9.39-9.46C487 68.43 484.4 39 490 19.48c4.36-15.13 16.45 3.57 20 10.13 7.26 13.27 9.68 29.58 11.77 44.37 1.21 8.48 14.06 4.86 12.86-3.55-1-7.44-2.28-15.45-4.13-23.36 23.37 6.61 46.65.91 70.31-4.34 19.06-4.24 37.52-5.47 56.83-2.33 19.9 3.23 39.13 26.4 35.11 47.79a82.27 82.27 0 0 1-12.66 2.29c-5.92.44-11.92-.18-17.76.92a.37.37 0 0 0-.09.68c7.56 4.76 18.94 6.19 28.24 3.37-3.29 7.1-7.45 11.3-12.47 13.45-7.83 1.17-16 1.08-23.18-1.11-12.08-3.68-19.16-13-27.44-21.66a.42.42 0 0 0-.7.41c1.84 9 7.41 16.92 14.7 22.69-4.36 1.42-8.54 3.84-13.2 6.11a156.67 156.67 0 0 0-25.17 15.53c-9 4.76-19.54 7-29.59 7.82-20.05 1.68-39.89-5.21-55.88-17-.77-.56-1.63.5-1.23 1.23 13 23.57 42 29.24 68.54 23.66a194.21 194.21 0 0 0-22.69 27.07Z" data-color="1"/>
            <path fill="#f8a442" d="M509.65 80.65a.86.86 0 0 0 1.26.51c15.77-9.77-.1-36.78-13-41.78-.36-.14-.56.3-.44.58 2.74 6.42 7 12 9.58 18.62 2.89 7.32.68 14.7 2.6 22.07Z" data-color="1"/>
            <path fill="#f8a442" d="M561.29 75.78a3 3 0 0 0 .71 1.12c4.34 4.08 9.54 6.92 15.51 6.14a26.76 26.76 0 0 1-9.7 2.95.44.44 0 0 0-.22.81c6.31 4.39 15.7-1.38 19.42-6.72s5.16-17-3.87-17.76a.78.78 0 0 0-.74 1c.07.28.18.54.26.8a90.66 90.66 0 0 1-14.61 5.2c-4.35 1.15-8.74.94-13.07 1.88a.61.61 0 0 0-.26 1 11.4 11.4 0 0 0 6.57 3.58Z" data-color="1"/>
            <path fill="#f8a442" d="M663.07 57.69a3 3 0 0 0 .73-1.07c2.2.68 4.62 1.88 6.91 1.32a.87.87 0 0 0 .64-.85c-.43-3.46-4.4-5.67-7.32-6.84-4.84-1.94-9.63-1.92-14 1.06a3.68 3.68 0 0 0-.73 5.67c3.98 4.5 9.31 4.62 13.77.71Z" data-color="1"/>
            <path fill="#f8a442" d="M544.74 155.38c-5.77-1.83-10.57-5.34-16.13-7.45-.48-.19-.75.39-.58.76 2.31 5.25 8.42 9 13.59 11.05 5.43 2.11 12.54 4.89 18.18 2.49 1-.43.69-1.76 0-2.27-4.08-3.07-10.23-3.05-15.06-4.58Z" data-color="1"/>
            <path fill="#f8a442" d="M547.68 164.37a24.81 24.81 0 0 0-5.23-.44c-1.15 0-1.73.57-2.73.82a.36.36 0 0 0 0 .69c.87.3 1.81 1.21 2.71 1.62a33.52 33.52 0 0 0 6.19 2c3.32.77 7.46 1.61 10.31-.81a.65.65 0 0 0-.13-1c-3.24-2.04-7.47-2.17-11.12-2.88Z" data-color="1"/>
            <path fill="#f8a442" d="M306.5 300.92c-1.77 10.1-2.73 18.55-8.58 27.32-6.3 9.44-14.87 17.21-23.12 24.89-12.61 11.76-28.17 25.17-27.87 44a.88.88 0 0 0 1.63.44c11.06-19.13 28.13-33 43.33-48.61 11.42-11.76 24.66-31.41 15.83-48.17a.67.67 0 0 0-1.22.13Z" data-color="1"/>
            <path fill="#f8a442" d="M286.81 331.67c8.59-6 19-18 12.46-29a.92.92 0 0 0-1.71.46c-.39 10.93-6.55 18.5-11.66 27.66-.31.52.34 1.28.91.88Z" data-color="1"/>
            <path fill="#f8a442" d="M36.25 500.81c8 4.61 23.52-5.22 22.1-14.53a.56.56 0 0 0-.94-.25c-3.18 3-5.47 6.55-9.07 9.1s-8.08 3.09-12.09 4.92a.45.45 0 0 0 0 .76Z" data-color="1"/>
            <path fill="#f8a442" d="M54.82 498.53a19.61 19.61 0 0 0-5.35 2.83 31.62 31.62 0 0 0-4.84 4.55.73.73 0 0 0 .7 1.22 20.68 20.68 0 0 0 5.77-2.23c2.47-1.28 3.5-3.06 4.6-5.48a.65.65 0 0 0-.88-.89Z" data-color="1"/>
            <path fill="#f8a442" d="M368.14 239.09a.33.33 0 0 0-.57-.23c-14.78 18.71-4.95 58.81 11 74.12a.8.8 0 0 0 1.33-.76c-2.84-11.77-8.12-22.69-11.06-34.46-3.35-13.46-1.3-25.23-.7-38.67Z" data-color="1"/>
            <path fill="#f8a442" d="M377.35 238.22a.29.29 0 0 0-.46.06c-2.81 3.7-.56 11.39.44 15.45 1.36 5.55 3.63 11.44 9.66 12.57.4.07.84-.25.69-.69-1.64-5.06-4.37-9.51-6.24-14.55-1.44-3.83-1.5-9.69-4.09-12.84Z" data-color="1"/>
            <path fill="#f8a442" d="M420.82 247a.69.69 0 0 0 .32-.78c-.6-3.09-4.05-5-6.08-7.15-2.59-2.72-5-5.65-7.92-8-.66-.53-1.91-.07-1.57.91a35.8 35.8 0 0 0 6 10.54c2.01 2.48 5.77 6.34 9.25 4.48Z" data-color="1"/>
            <path fill="#f8a442" d="M417.85 233.21a9.56 9.56 0 0 0 6.63 3.28.75.75 0 0 0 .63-1.1c-1.08-2.4-2.75-3.75-4.91-5.22-1.61-1.11-3.83-2.44-5.84-2.17a.45.45 0 0 0-.31.54c.61 1.85 2.46 3.31 3.8 4.67Z" data-color="1"/>
            <path fill="#f8a442" d="M515.1 172.26c-7-7-11.86-15.4-17.56-23.4a.46.46 0 0 0-.84.35c2.19 9.78 8.85 18.75 15.2 26.25 5.37 6.35 14.92 15.83 24.1 13.65a.71.71 0 0 0 .17-1.29c-7.17-5.41-14.61-9.06-21.07-15.56Z" data-color="1"/>
            <path fill="#f8a442" d="M526.67 192.74a70.7 70.7 0 0 0-7.41-3.4.44.44 0 0 0-.5.64c2.65 4.07 8.11 7.67 13 7.84a.73.73 0 0 0 .51-1.24c-1.48-1.87-3.49-2.73-5.6-3.84Z" data-color="1"/>
            <path fill="#f8a442" d="M501.83 235.45c-3.3-2-6.54-4-9.86-6a.31.31 0 0 0-.46.35c1.18 4 4.37 6.74 7.5 9.26s6.42 4.7 10.35 4.13c.59-.09.69-.79.5-1.23-1.51-3.41-4.86-4.63-8.03-6.51Z" data-color="1"/>
            <path fill="#f8a442" d="M507.28 247.9c-2.56-1.83-5.28-3.5-7.93-5.17a.42.42 0 0 0-.61.47 11.66 11.66 0 0 0 7.17 7.93 1.55 1.55 0 0 0 2.12-1.4l.06.17a1.77 1.77 0 0 0-.81-2Z" data-color="1"/>
            <path fill="#f8a442" d="M283.67 193.9a.55.55 0 0 0-.24.91c1.86 2.16 5.37 2.46 8 2.71 3.08.29 5.67 0 8.1-2a.61.61 0 0 0-.27-1 51.16 51.16 0 0 0-7.83-.51c-2.43-.09-5.34-.94-7.76-.11Z" data-color="1"/>
            <path fill="#f8a442" d="M576.29 128.77a.38.38 0 0 0 0 .65c7.1 3.77 20.14-1.73 22.26-9.46a.78.78 0 0 0-.95-.95c-3.62.86-6.55 3.21-9.78 4.95-3.69 2.04-7.97 2.7-11.53 4.81Z" data-color="1"/>
            <path fill="#f8a442" d="M462 294.32c-7.07 4-13.3 9.14-19.68 14.16-7.34 5.77-15.39 9.65-23.41 14.25a.42.42 0 0 0 .1.76c16.72 2.93 34.62-16.31 44.08-27.76a.9.9 0 0 0-1.09-1.41Z" data-color="1"/>
            <path fill="#f8a442" d="M471.59 286.31c-1.64.34-3 2.3-4.09 3.48a1.46 1.46 0 0 0 1.41 2.42c2.26-.34 5.28-3.14 3.6-5.53a.85.85 0 0 0-.92-.37Z" data-color="1"/>
            <path fill="#f8a442" d="M94.1 198.22c20.62 5.54 44.89-14 55.26-30.15.39-.61-.45-1.17-1-.74-8 7.07-15.85 14.3-24.87 20-9.33 5.94-19.07 7.57-29.44 10.36a.25.25 0 0 0 .05.53Z" data-color="1"/>
            <path fill="#f8a442" d="M137.52 169.81c3.19-.09 5.43-2.11 7.29-4.51a10.2 10.2 0 0 0 1.87-9.24.53.53 0 0 0-1-.12c-1.34 2-2.66 3.85-3.82 6-1.27 2.32-3.34 3.91-5.34 5.56a1.37 1.37 0 0 0 1 2.31Z" data-color="1"/>
        </g>
    </g>
</svg>
