<?xml version="1.0" encoding="UTF-8"?>
<svg data-bbox="0 0 92.47 125.926" viewBox="0 0 92.53 125.93" xmlns:xlink="http://www.w3.org/1999/xlink" xmlns="http://www.w3.org/2000/svg" data-type="ugc">
    <g>
        <defs>
            <linearGradient gradientUnits="userSpaceOnUse" gradientTransform="matrix(-1 0 0 1 692.19 0)" y2="86.35" x2="650.62" y1="125.93" x1="650.62" id="731ee512-ad0c-4a16-954e-566cc3c4a104">
                <stop stop-color="#7e6677" offset="0"/>
                <stop stop-color="#c6c5d0" offset="1"/>
            </linearGradient>
            <linearGradient gradientUnits="userSpaceOnUse" gradientTransform="matrix(-1 0 0 1 692.19 0)" y2="99.05" x2="673.5" y1="99.05" x1="627.74" id="e7b09ec6-1201-4f36-b113-ddc663ef0702">
                <stop stop-color="#a3450b" offset="0"/>
                <stop offset="1"/>
            </linearGradient>
            <linearGradient gradientUnits="userSpaceOnUse" y2="86.53" x2="59.2" y1="86.53" x1="24.16" id="33ca7f8c-1042-46f0-9b69-90fac21accdb">
                <stop stop-color="#7d3a31" offset="0"/>
                <stop stop-color="#602736" offset="1"/>
            </linearGradient>
            <linearGradient gradientUnits="userSpaceOnUse" gradientTransform="matrix(-.81 .59 .59 .81 669.7 -168.18)" y2="-205.21" x2="626.31" y1="-154" x1="626.31" id="106eae47-a804-46a7-b407-1156164315ac">
                <stop stop-color="#8a8706" offset="0"/>
                <stop stop-color="#545c1e" offset="1"/>
            </linearGradient>
            <linearGradient gradientUnits="userSpaceOnUse" gradientTransform="matrix(-.81 .59 .59 .81 669.7 -168.18)" y2="-205.21" x2="626.2" y1="-154" x1="626.2" id="cbea2915-cfb8-4f43-af80-65c2949501e1">
                <stop stop-color="#385200" offset="0"/>
                <stop stop-color="#454819" offset="1"/>
            </linearGradient>
            <linearGradient xlink:href="#cbea2915-cfb8-4f43-af80-65c2949501e1" y2="-205.2" x2="628.14" y1="-154.01" x1="628.14" id="cef7efff-6705-46c8-83b7-00adbacd6869"/>
            <linearGradient xlink:href="#cbea2915-cfb8-4f43-af80-65c2949501e1" y2="-184.46" x2="619.98" y1="-172.47" x1="619.98" id="27ebd4d3-e9e0-4bc6-a835-c9d66d74c9e6"/>
            <linearGradient xlink:href="#cbea2915-cfb8-4f43-af80-65c2949501e1" y2="-190.6" x2="628.88" y1="-176.82" x1="628.88" id="0c8dcf71-91b2-4e7d-af96-00a9bb317087"/>
            <linearGradient xlink:href="#cbea2915-cfb8-4f43-af80-65c2949501e1" y2="-202.52" x2="631.75" y1="-189.86" x1="631.75" id="f9885820-e22f-4427-a528-f9d525a0d3d8"/>
            <linearGradient xlink:href="#cbea2915-cfb8-4f43-af80-65c2949501e1" y2="-174.38" x2="624.91" y1="-164.14" x1="624.91" id="4e6441f0-f68c-46c0-a887-ab027b99bf6a"/>
            <linearGradient xlink:href="#cbea2915-cfb8-4f43-af80-65c2949501e1" y2="-171.5" x2="630.58" y1="-171.19" x1="630.58" id="2a14e25b-0d49-4b2c-8676-cfe719430475"/>
            <linearGradient gradientUnits="userSpaceOnUse" y2="42.37" x2="41.91" y1="88.13" x1="41.91" id="82f6eda9-92e4-4501-8685-cf7ea32b0bcc">
                <stop stop-color="#962e25" offset="0"/>
                <stop stop-color="#ab424d" offset="1"/>
            </linearGradient>
            <linearGradient gradientUnits="userSpaceOnUse" gradientTransform="matrix(-.86 .52 .52 .86 689.55 -130.13)" y2="-185.27" x2="688.23" y1="-185.27" x1="646.47" id="e544a5eb-00d3-4009-86aa-b17f9249513e">
                <stop stop-color="#545c1e" offset="0"/>
                <stop stop-color="#8a8706" offset="1"/>
            </linearGradient>
            <linearGradient xlink:href="#cbea2915-cfb8-4f43-af80-65c2949501e1" gradientTransform="matrix(-.86 .52 .52 .86 689.55 -130.13)" y2="-192.18" x2="666.58" y1="-177.35" x1="666.58" id="e5726912-ca1c-4c0a-802d-94b6d6476514"/>
            <linearGradient xlink:href="#cbea2915-cfb8-4f43-af80-65c2949501e1" gradientTransform="matrix(-.86 .52 .52 .86 689.55 -130.13)" y2="-188.31" x2="667.56" y1="-177.35" x1="667.56" id="2c453273-6e80-4cab-be9f-833f56bf72e4"/>
            <linearGradient xlink:href="#cbea2915-cfb8-4f43-af80-65c2949501e1" gradientTransform="matrix(-.86 .52 .52 .86 689.55 -130.13)" y2="-190.31" x2="672.27" y1="-187.01" x1="672.27" id="34da3724-6fcc-4630-a05b-3b10431fa233"/>
            <linearGradient xlink:href="#cbea2915-cfb8-4f43-af80-65c2949501e1" gradientTransform="matrix(-.86 .52 .52 .86 689.55 -130.13)" y2="-185.59" x2="676.47" y1="-179.07" x1="676.47" id="9c0bc967-6d9b-4bf8-ac30-88cc8d78c878"/>
            <linearGradient xlink:href="#cbea2915-cfb8-4f43-af80-65c2949501e1" gradientTransform="matrix(-.86 .52 .52 .86 689.55 -130.13)" y2="-188.27" x2="663.03" y1="-181.45" x1="663.03" id="5f0e8d4f-e8f9-4034-83f8-672fa9c07a25"/>
            <linearGradient xlink:href="#e544a5eb-00d3-4009-86aa-b17f9249513e" gradientTransform="matrix(-.81 -.59 -.59 .81 592.88 54.44)" y2="316.31" x2="495.44" y1="316.31" x1="453.68" id="151a83f6-b702-44f4-afe9-c199d58976db"/>
            <linearGradient xlink:href="#cbea2915-cfb8-4f43-af80-65c2949501e1" gradientTransform="matrix(-.81 -.59 -.59 .81 592.88 54.44)" y2="309.41" x2="473.79" y1="324.24" x1="473.79" id="8301e3b9-a3ee-4754-9ca5-9cefdff1dda3"/>
            <linearGradient xlink:href="#cbea2915-cfb8-4f43-af80-65c2949501e1" gradientTransform="matrix(-.81 -.59 -.59 .81 592.88 54.44)" y2="313.27" x2="474.76" y1="324.24" x1="474.76" id="dd2a8332-9004-448e-927f-e0afb35f36db"/>
            <linearGradient xlink:href="#cbea2915-cfb8-4f43-af80-65c2949501e1" gradientTransform="matrix(-.81 -.59 -.59 .81 592.88 54.44)" y2="311.27" x2="479.48" y1="314.57" x1="479.48" id="1e85e711-ceca-4fee-9532-b2e95324ab81"/>
            <linearGradient xlink:href="#cbea2915-cfb8-4f43-af80-65c2949501e1" gradientTransform="matrix(-.81 -.59 -.59 .81 592.88 54.44)" y2="316" x2="483.68" y1="322.51" x1="483.68" id="34d4c15f-0f12-4cf6-b1b7-78f76cadc9d5"/>
            <linearGradient xlink:href="#cbea2915-cfb8-4f43-af80-65c2949501e1" gradientTransform="matrix(-.81 -.59 -.59 .81 592.88 54.44)" y2="313.32" x2="470.24" y1="320.14" x1="470.24" id="f9164250-4643-4970-94d6-54be60579902"/>
            <linearGradient xlink:href="#106eae47-a804-46a7-b407-1156164315ac" gradientTransform="matrix(-.38 -.92 -.92 .38 516.81 128.89)" y2="436.95" x2="273.29" y1="436.96" x1="273.29" id="7b15c18d-a017-49f8-b1c0-e3751f32eb70"/>
            <linearGradient xlink:href="#106eae47-a804-46a7-b407-1156164315ac" gradientTransform="matrix(-.38 -.92 -.92 .38 516.81 128.89)" y2="407.95" x2="274.97" y1="439.92" x1="274.97" id="2e11cc60-cee0-4699-b9da-ec50aa2e405c"/>
            <linearGradient xlink:href="#cbea2915-cfb8-4f43-af80-65c2949501e1" gradientTransform="matrix(-.38 -.92 -.92 .38 516.81 128.89)" y2="409.87" x2="274.31" y1="439.71" x1="274.31" id="6ce84bdc-7fcd-46c7-ab95-a3cb614bcb17"/>
            <linearGradient xlink:href="#cbea2915-cfb8-4f43-af80-65c2949501e1" gradientTransform="matrix(-.38 -.92 -.92 .38 516.81 128.89)" y2="410.7" x2="270.45" y1="438.34" x1="270.45" id="5237b1ab-07c0-4035-a2f0-fe45a9f346d0"/>
            <linearGradient xlink:href="#cbea2915-cfb8-4f43-af80-65c2949501e1" gradientTransform="matrix(-.38 -.92 -.92 .38 516.81 128.89)" y2="427.67" x2="271.2" y1="436.73" x1="271.2" id="c38f7fd3-eb5a-4ca3-a2f6-a9d259719508"/>
            <linearGradient xlink:href="#cbea2915-cfb8-4f43-af80-65c2949501e1" gradientTransform="matrix(-.38 -.92 -.92 .38 516.81 128.89)" y2="419.42" x2="271.15" y1="423.45" x1="271.15" id="65e13f1d-ef87-475d-b3c7-cbb15e14216e"/>
            <linearGradient xlink:href="#cbea2915-cfb8-4f43-af80-65c2949501e1" gradientTransform="matrix(-.38 -.92 -.92 .38 516.81 128.89)" y2="436.95" x2="273.29" y1="436.96" x1="273.29" id="8e00aa0a-8a53-4130-949b-24343004a7e1"/>
            <linearGradient xlink:href="#106eae47-a804-46a7-b407-1156164315ac" gradientTransform="rotate(83.7 341.77 110.374)" y2="402.61" x2="246.3" y1="402.61" x1="197.59" id="9bb975df-6a40-47a6-b1b3-2e68e7615ada"/>
            <linearGradient xlink:href="#cbea2915-cfb8-4f43-af80-65c2949501e1" gradientTransform="rotate(83.7 341.77 110.374)" y2="397.36" x2="202.44" y1="413.88" x1="242.55" id="a991afde-ec12-4acb-ad23-a6d4c10be54a"/>
            <linearGradient xlink:href="#cbea2915-cfb8-4f43-af80-65c2949501e1" gradientTransform="rotate(83.7 341.77 110.374)" y2="403.1" x2="223.61" y1="405.26" x1="228.86" id="69adfe48-8dae-4553-aa07-778275bcbfa2"/>
            <linearGradient xlink:href="#cbea2915-cfb8-4f43-af80-65c2949501e1" gradientTransform="rotate(83.7 341.77 110.374)" y2="397.17" x2="214.75" y1="400.54" x1="222.92" id="b26c4a5a-4ed9-49a2-8d68-5d157cd04629"/>
            <linearGradient xlink:href="#cbea2915-cfb8-4f43-af80-65c2949501e1" gradientTransform="rotate(83.7 341.77 110.374)" y2="402.23" x2="235.31" y1="404.05" x1="239.72" id="79d69990-c367-4178-95ff-61c7eb0df3e0"/>
            <linearGradient xlink:href="#106eae47-a804-46a7-b407-1156164315ac" gradientTransform="rotate(-102.21 402.653 -276.942)" y2="-673.38" x2="180.53" y1="-673.37" x1="180.53" id="0a0b28e8-0002-4703-87f5-9849de729f02"/>
            <linearGradient xlink:href="#106eae47-a804-46a7-b407-1156164315ac" gradientTransform="rotate(-102.21 402.653 -276.942)" y2="-702.38" x2="182.21" y1="-670.4" x1="182.21" id="a3be24cc-7ab5-49cf-aaac-05feb90e1a43"/>
            <linearGradient xlink:href="#cbea2915-cfb8-4f43-af80-65c2949501e1" gradientTransform="rotate(-102.21 402.653 -276.942)" y2="-700.46" x2="181.54" y1="-670.62" x1="181.54" id="c82c2662-1e4b-4a4a-add8-71ffe1b74f5f"/>
            <linearGradient xlink:href="#cbea2915-cfb8-4f43-af80-65c2949501e1" gradientTransform="rotate(-102.21 402.653 -276.942)" y2="-699.63" x2="177.69" y1="-671.99" x1="177.69" id="aacf8eb7-3a5b-486c-9f99-1cef549a8ddf"/>
            <linearGradient xlink:href="#cbea2915-cfb8-4f43-af80-65c2949501e1" gradientTransform="rotate(-102.21 402.653 -276.942)" y2="-682.65" x2="178.43" y1="-673.6" x1="178.43" id="c89f069c-b41d-4ea9-8f61-b47c27488b94"/>
            <linearGradient xlink:href="#cbea2915-cfb8-4f43-af80-65c2949501e1" gradientTransform="rotate(-102.21 402.653 -276.942)" y2="-690.9" x2="178.38" y1="-686.87" x1="178.38" id="f17a1d5b-9d53-4f1a-aeb7-7f982c6b193f"/>
            <linearGradient xlink:href="#cbea2915-cfb8-4f43-af80-65c2949501e1" gradientTransform="rotate(-102.21 402.653 -276.942)" y2="-673.38" x2="180.53" y1="-673.37" x1="180.53" id="ed3e2a6b-da32-4211-99a8-4298746d4b60"/>
            <linearGradient xlink:href="#106eae47-a804-46a7-b407-1156164315ac" gradientTransform="matrix(-1 0 0 1 690.79 0)" y2="43.95" x2="653.14" y1="43.95" x1="598.26" id="32b46884-eaf1-4a1d-9232-d428cfe0fa2a"/>
            <linearGradient xlink:href="#cbea2915-cfb8-4f43-af80-65c2949501e1" gradientTransform="matrix(-1 0 0 1 690.79 0)" y2="38.03" x2="603.73" y1="56.64" x1="648.91" id="822b82f7-65f2-48a3-9b32-0f964b721917"/>
            <linearGradient xlink:href="#cbea2915-cfb8-4f43-af80-65c2949501e1" gradientTransform="matrix(-1 0 0 1 690.79 0)" y2="44.5" x2="627.57" y1="46.93" x1="633.49" id="1e770ce1-2317-40eb-947f-80cb3ffeea86"/>
            <linearGradient xlink:href="#cbea2915-cfb8-4f43-af80-65c2949501e1" gradientTransform="matrix(-1 0 0 1 690.79 0)" y2="37.82" x2="617.59" y1="41.61" x1="626.8" id="31da93fa-eef9-4d65-b586-ad2537a7f360"/>
            <linearGradient xlink:href="#cbea2915-cfb8-4f43-af80-65c2949501e1" gradientTransform="matrix(-1 0 0 1 690.79 0)" y2="43.52" x2="640.75" y1="45.57" x1="645.73" id="fad2f44d-85de-4120-859c-7d125ac4224a"/>
            <linearGradient xlink:href="#cbea2915-cfb8-4f43-af80-65c2949501e1" gradientTransform="matrix(-1 0 0 1 690.79 0)" y2="36.6" x2="650.24" y1="44.01" x1="650.24" id="fedcc802-f96c-46bc-998a-48e4250225ea"/>
            <linearGradient xlink:href="#106eae47-a804-46a7-b407-1156164315ac" gradientTransform="matrix(-1 0 0 1 690.79 0)" y2="37.54" x2="666.57" y1="61.65" x1="652.64" id="32cc934e-bb96-47aa-8b9e-aaff6ba2644c"/>
            <linearGradient xlink:href="#cbea2915-cfb8-4f43-af80-65c2949501e1" gradientTransform="matrix(-1 0 0 1 690.79 0)" y2="48.38" x2="654.28" y1="55.2" x1="670.81" id="7ff865b7-221c-42e3-9266-f114daa88fbe"/>
            <linearGradient xlink:href="#cbea2915-cfb8-4f43-af80-65c2949501e1" gradientTransform="matrix(-1 0 0 1 690.79 0)" y2="50.21" x2="656.46" y1="51.74" x1="660.19" id="9932b05b-3f11-417f-bd79-1885e97124cb"/>
            <linearGradient xlink:href="#cbea2915-cfb8-4f43-af80-65c2949501e1" gradientTransform="matrix(-1 0 0 1 690.79 0)" y2="41.03" x2="659.7" y1="44.53" x1="668.2" id="ffcf12ed-a071-4b58-a4ce-761941430b1e"/>
            <linearGradient xlink:href="#cbea2915-cfb8-4f43-af80-65c2949501e1" gradientTransform="matrix(-1 0 0 1 690.79 0)" y2="58.44" x2="662.04" y1="59.23" x1="663.96" id="399ed6d7-d9c9-49c5-b480-f72c25b22bc8"/>
        </defs>
        <g>
            <path d="M18.74 98.85c.44 11.34 3.88 21.74 7.79 24.46 4.66 3.23 22.48 3.83 29.77-.26 2.48-1.82 4.66-6.25 6.14-11.88a63.63 63.63 0 0 0 1.42-24.35l-44.11-.47h-.18a56.61 56.61 0 0 0-.83 12.5Z" fill="url(#731ee512-ad0c-4a16-954e-566cc3c4a104)"/>
            <path d="M18.74 98.85c17 17 43.69 12.3 43.69 12.3a63.63 63.63 0 0 0 1.42-24.35l-44.11-.47h-.18a56.61 56.61 0 0 0-.82 12.52Z" style="mix-blend-mode:color-dodge" opacity=".25" fill="url(#e7b09ec6-1201-4f36-b113-ddc663ef0702)"/>
            <path fill="#fcfbfb" d="M63.87 86.54c0 1.325-9.935 2.4-22.19 2.4s-22.19-1.075-22.19-2.4 9.935-2.4 22.19-2.4 22.19 1.075 22.19 2.4z"/>
            <path d="M59.2 86.54c0 .73-5.4 1.35-12.76 1.53h-7.33c-8.46-.11-14.95-.77-14.95-1.58S30.58 85.08 39 85h7.08c7.55.17 13.12.8 13.12 1.54Z" fill="url(#33ca7f8c-1042-46f0-9b69-90fac21accdb)"/>
            <path d="M36.77 45.09c.82 1.12 4.17 4.91 7.66 8.65a114 114 0 0 0 8.16 8.18 15.89 15.89 0 0 0 2.22 1.38l.41.22c1 .55 2.26 1.17 3.61 1.81l.52.25c.66-1.48 1.91-3.73 3.33-3s2.17 3.93 2.44 5.67l.92.42 1.82.8c0-1.62.23-3.57.92-3.47s1.28 2.47 1.73 4.63l.72.31.48.21 4.59 2 .34.13.17.08.63.27.21.08.15.06v-.07c-.3-.74-2.43-5.94-4.44-10.74l-.76-.47c-2.84-1.76-6.43-4.18-5.74-4.69.48-.35 2.25.34 4.1 1.23l.93.47c-1.12-2.61-2-4.63-2.29-5s-2.06-2.38-4.22-4.65c-.63-.12-1.3-.25-1.95-.4-2.07-.47-4-1.06-3.88-1.65.06-.35.7-.5 1.61-.54h1.76c-3-3.08-6.16-6-7.14-6.15-2-.3-16.2-2-17.15-2.08h-.05s-3.39 3.9-1.81 6.06Z" fill="url(#106eae47-a804-46a7-b407-1156164315ac)"/>
            <path d="M44.43 53.74a114 114 0 0 0 8.16 8.18 15.89 15.89 0 0 0 2.22 1.38l.41.22c1 .55 2.26 1.17 3.61 1.81l.52.25c.66-1.48 1.91-3.73 3.33-3s2.17 3.93 2.44 5.67l.92.42 1.82.8c0-1.62.23-3.57.92-3.47s1.28 2.47 1.73 4.63l.72.31.48.21 4.59 2 .34.13.17.08.63.27.21.08.15.06v-.07c-.35-.76-2.92-6.35-5.2-11.21-2.84-1.76-6.43-4.18-5.74-4.69.48-.35 2.25.34 4.1 1.23l-1.11-2.28A17.25 17.25 0 0 0 69 55c-.26-.36-1.72-1.85-3.6-3.72l-1.94-1.91c-2.07-.47-4-1.06-3.88-1.65.06-.35.7-.5 1.61-.54a69.16 69.16 0 0 0-5.64-5.09c-1.41-.82-15.92-3-16.89-3.11h-.05v4.27Z" style="mix-blend-mode:multiply" fill="url(#cbea2915-cfb8-4f43-af80-65c2949501e1)" opacity=".5"/>
            <path d="M44.43 53.74a114 114 0 0 0 8.16 8.18 15.89 15.89 0 0 0 2.22 1.38l.41.22c1 .55 2.26 1.17 3.61 1.81l.52.26.32.15-.32-.16c.66-1.48 1.91-3.73 3.33-3s2.17 3.93 2.44 5.67l.92.42 1.82.8c0-1.62.23-3.57.92-3.47s1.28 2.47 1.73 4.63l.72.31.48.21 4.59 2 .34.13.17.08.63.27.21.08.15.06S56.08 48.18 53.21 46.42 39 39.19 38.6 39v4.27Z" style="mix-blend-mode:multiply" fill="url(#cef7efff-6705-46c8-83b7-00adbacd6869)" opacity=".2"/>
            <path d="m57.65 50.77 2.83 3.09 9.37 2.85A17.25 17.25 0 0 0 69 55c-.26-.36-1.72-1.85-3.6-3.72Z" style="mix-blend-mode:multiply" fill="url(#27ebd4d3-e9e0-4bc6-a835-c9d66d74c9e6)" opacity=".2"/>
            <path style="mix-blend-mode:multiply" fill="url(#0c8dcf71-91b2-4e7d-af96-00a9bb317087)" opacity=".2" d="m53.21 46.42-.03 15.92.87.53.01-15.76-.85-.69z"/>
            <path style="mix-blend-mode:multiply" fill="url(#f9885820-e22f-4427-a528-f9d525a0d3d8)" opacity=".2" d="m44.43 53.74 1.79-10.99-4.9-2.41-.48 7.03 3.59 6.37z"/>
            <path style="mix-blend-mode:multiply" fill="url(#4e6441f0-f68c-46c0-a887-ab027b99bf6a)" opacity=".2" d="m64.72 68.06-.28-9.77 1.61 1.82.97 8.98-2.3-1.03z"/>
            <path d="m59.35 65.59.32.15-.32-.16Z" fill="url(#2a14e25b-0d49-4b2c-8676-cfe719430475)"/>
            <path d="M46.44 88.07h-7.33L39 85v-1.17l-.24-6.22-.08-2-.49-12.37-.47-10.44-.06-1.63-.14-3.41v-1.81l-.07-1.86.17-.08h.06l.32-.21.66-.28h.11l.61-.25.16-.07 1-.42.12-.05h.08l.37-.16.22-.09.55 5 .27 2.41v.18l.18 1.56.94 8.6L45 75.05v.34l.07.68.93 7.53.1 1.4Z" fill="url(#82f6eda9-92e4-4501-8685-cf7ea32b0bcc)"/>
            <path style="mix-blend-mode:soft-light" fill="#ffffc2" opacity=".68" d="m45.14 76.07-6.45 1.5-.08-1.96 6.39-.56.14 1.02z"/>
            <path style="mix-blend-mode:multiply" fill="#7c1822" opacity=".21" d="m43.36 60.16-5.26 3.08-.73-19.18 4.03-1.69 1.96 17.79z"/>
            <path style="mix-blend-mode:multiply" fill="#7c1822" opacity=".21" d="m38.94 83.79 7-.19v.54l-6.96.71-.04-1.06z"/>
            <path d="M8.32 72.37c.1-.09 1.72-1.55 4-3.56.4-1.43 1.2-4 1.8-3.8.36.09.35 1 .23 2l5.35-4.79c.76-2 2.38-6.11 2.82-6.37s0 2.12-.34 4.16L26 56.52c2.54-2.29 8.26-6.54 11.36-8.8h.06l2-1.48-.1-.44-1.08-4.53s-.94.27-2.44.73h-.16c-2.72.83-7.15 2.24-11.27 3.71L25 46c.79.38 1.34.83 1.22 1.3-.21.85-2.32.35-3.91-.16-.33-.1-.63-.21-.89-.3a48.86 48.86 0 0 0-4.84 2.09c.51.08 1 .18 1.5.28 1.19.26 2.09.59 2 1-.16.63-2.73.87-4.79 1h-1.35c-3 5-5.32 19.27-5.59 21a.83.83 0 0 0 0 .13Z" fill="url(#e544a5eb-00d3-4009-86aa-b17f9249513e)"/>
            <path d="M8.32 72.37c.1-.09 1.72-1.55 4-3.56.4-1.43 1.2-4 1.8-3.8.36.09.35 1 .23 2l5.35-4.79c.76-2 2.38-6.11 2.82-6.37s0 2.12-.34 4.16L26 56.52c2.54-2.29 8.26-6.54 11.36-8.8l.06-.06 1.93-1.91.45-5-4 1.2h-.16c-.94.32-5.86 2-10.69 4 .79.38 1.34.83 1.22 1.3-.21.85-2.32.35-3.91-.16-1.56.69-3 1.39-4.24 2.07 1.19.26 2.09.59 2 1-.16.63-2.73.87-4.79 1l-.16.18C12.48 54.5 8.79 70.1 8.31 72.17a1.86 1.86 0 0 0 0 .19Z" style="mix-blend-mode:multiply" fill="url(#e5726912-ca1c-4c0a-802d-94b6d6476514)" opacity=".5"/>
            <path d="m38.26 42-.28.14-1.31.69-.2.1-.74.39-.91.5c-1.42.78-3.18 1.77-5 2.89l-.92.56-.2.13-.85.54-.33.21-1.36.85c-.92.61-1.82 1.24-2.69 1.87s-1.47 1.06-2.12 1.62l-.12.1a27.35 27.35 0 0 0-2.33 2.13 16.72 16.72 0 0 0-1.22 1.44c-.38.52-.77 1.07-1.16 1.65l-.82 1.24c-1.52 2.37-3 5-4.3 7.34s-2.33 4.43-3 5.69a.38.38 0 0 0 0 .1l1.76-1.57.66-.59 1.56-1.39.17-.56c.06-.2.12-.41.19-.62s.21-.64.33-.95.15-.4.23-.58c.3-.68.61-1.16.88-1.09s.35 1 .23 2l.87-.78 1.16-1 3.32-3c.29-.75.69-1.8 1.11-2.83a16.83 16.83 0 0 1 1.71-3.55c.33-.2 0 2.12-.34 4.16l1.44-1.29.37-.33.35-.21.25-.22.67-.6.2-.18.28-.25.25-.22.51-.45.13-.11a.39.39 0 0 0 .1-.08l.11-.09.4-.34.47-.39L29.13 54l1.53-1.19.41-.32 1-.76c.33-.26.67-.51 1-.76.8-.61 1.6-1.21 2.34-1.75l.67-.49c.12-.1.24-.2.37-.29L37 48l.4-.29v-.32l.14-.94v-.17l.46-2.47v-.32l.2-1.47Z" style="mix-blend-mode:multiply" fill="url(#2c453273-6e80-4cab-be9f-833f56bf72e4)" opacity=".2"/>
            <path style="mix-blend-mode:multiply" fill="url(#34da3724-6fcc-4630-a05b-3b10431fa233)" opacity=".2" d="m21.35 52.48-7.68 1.54-1.55 4.28 6.74-3.55 2.49-2.27z"/>
            <path style="mix-blend-mode:multiply" fill="url(#9c0bc967-6d9b-4bf8-ac30-88cc8d78c878)" opacity=".2" d="m16.36 65.19.09-7.32-.82 1.24-.43 7.11 1.16-1.03z"/>
            <path style="mix-blend-mode:multiply" fill="url(#5f0e8d4f-e8f9-4034-83f8-672fa9c07a25)" opacity=".2" d="m26.69 55.95.75-7.82-1.28.84-1.51 8.8 2.04-1.82z"/>
            <path d="m1.57 23.49 4.82 2.3c1.47-.18 4.11-.42 4.2.19.06.36-.78.7-1.75 1L15.33 30c2.13-.07 6.56-.18 7 .12s-1.95.83-4 1.3l4.72 2.23c3.09 1.46 9.22 5.09 12.51 7.07h.06l2.16 1.31.36-.27 3.77-2.75-1.63-2-.06-.07v-.06c-1.83-2.19-4.84-5.73-7.79-9v.64c0 .87-.25 1.55-.73 1.63-.87.13-1.22-2-1.37-3.67 0-.34-.05-.66-.07-.94A52.71 52.71 0 0 0 26.4 22c.12.51.24 1 .32 1.49.22 1.2.26 2.16-.13 2.22-.65.1-1.86-2.18-2.74-4-.22-.45-.4-.87-.56-1.24-5.78-.87-19.83 2.56-21.55 3h-.13Z" fill="url(#151a83f6-b702-44f4-afe9-c199d58976db)"/>
            <path d="m1.57 23.49 4.82 2.3c1.47-.18 4.11-.42 4.2.19.06.36-.78.7-1.75 1L15.33 30c2.13-.07 6.56-.18 7 .12s-1.95.83-4 1.3l4.72 2.23c3.09 1.46 9.22 5.09 12.51 7.07h.08l2.5 1 4.78-1.53s-1.63-2-2.64-3.18l-.06-.07v-.06c-.66-.75-4.11-4.63-7.8-8.32 0 .87-.25 1.55-.73 1.63-.87.13-1.22-2-1.37-3.67-1.24-1.17-2.45-2.25-3.55-3.11.22 1.2.26 2.16-.13 2.22-.65.1-1.86-2.18-2.74-4l-.23-.08c-3.91-1.17-19.73 1.47-21.83 1.83h-.19Z" style="mix-blend-mode:multiply" fill="url(#8301e3b9-a3ee-4754-9ca5-9cefdff1dda3)" opacity=".5"/>
            <path d="m41.19 39.32-.19-.17-.33-.27-.13-.11-.39-.32c-.24-.21-.53-.44-.85-.7l-.19-.15-.11-.07-.72-.59c-.32-.25-.66-.53-1-.81-.77-.61-1.64-1.27-2.56-2s-2.2-1.62-3.38-2.43l-1.27-.85A57 57 0 0 0 25 27.81c-1.05-.53-2.05-1-3-1.38h-.05a15.91 15.91 0 0 0-1.83-.58c-.63-.15-1.28-.3-2-.43l-1.46-.28A147.14 147.14 0 0 0 1.8 23.45h-.19.05l.25.12 1 .49 3.39 1.61c1.39-.17 3.8-.39 4.16.09a.19.19 0 0 1 0 .1.23.23 0 0 1 0 .17.35.35 0 0 1-.1.12.12.12 0 0 1-.07.05.91.91 0 0 1-.3.19 8.1 8.1 0 0 1-1.14.61l1.06.5 1.4.67.11.05.89.43.57.27 1.57.74.88.42c1.53-.05 4.23-.12 5.79-.05h.37a3.53 3.53 0 0 1 .59.07.56.56 0 0 1 .22.07s0 0 0 .09l-.07.06-.27.13-.41.15-.25.08-.57.17c-.71.2-1.58.42-2.41.61l2.43 1.15.6.29 1.28.6.22.1h.19l.38.18.23.12.17.08c.83.42 1.8.94 2.83 1.51l.39.21.45.26c.45.24.9.51 1.36.77l.8.46 1.47.86.68.4c.28.16.56.32.83.49l.58.34.21.13c.14.07.26.15.39.23.46.26.87.52 1.27.76l.12.07.31.2h.06l1.73-.45h.27l.32-.09.59-.15.34-.09.42-.11.61-.16.69-.18h.06l.28-.07h.17s.16-.04.14-.05Z" style="mix-blend-mode:multiply" fill="url(#dd2a8332-9004-448e-927f-e0afb35f36db)" opacity=".2"/>
            <path style="mix-blend-mode:multiply" fill="url(#1e85e711-ceca-4fee-9532-b2e95324ab81)" opacity=".2" d="m24.95 27.8-4.4-6.48-4.54.23 5.88 4.84 3.06 1.41z"/>
            <path style="mix-blend-mode:multiply" fill="url(#34d4c15f-0f12-4cf6-b1b7-78f76cadc9d5)" opacity=".2" d="m11.3 28.12 6.79-2.75-1.47-.27-6.72 2.36 1.4.66z"/>
            <path style="mix-blend-mode:multiply" fill="url(#f9164250-4643-4970-94d6-54be60579902)" opacity=".2" d="m23.82 34.07 7.5-2.34-1.27-.85-8.7 2.01 2.47 1.18z"/>
            <path d="M8.71 42.65Z" fill="url(#7b15c18d-a017-49f8-b1c0-e3751f32eb70)"/>
            <path d="M0 29.31s.25.42.7 1.14c.35.56.8 1.29 1.35 2.15l.57.9c.46.74 1 1.53 1.51 2.37l.44.67.34.52.67 1 1 1.45.69 1c1.34-.64 2.87-1.19 3.15-.52s-.64 1.6-1.68 2.63c.64.91 1.29 1.79 1.91 2.61l.28.37.46.59c.08.09.15.19.23.29l.71.86c2.19-1.47 6.46-4.15 7.12-3.1s-2.77 3.93-4.77 5.52l.19.14a3 3 0 0 0 1.1.43l.39.06h.59a13.43 13.43 0 0 0 1.92-.12l.49-.07.52-.09.42-.08.82-.17 1.11-.27.48-.13.17-.05c.28-.07.57-.15.85-.24 2.53-.73 5.24-1.71 7.72-2.69l.63-.24c.94-.38 1.85-.75 2.69-1.11l1.23-.47.36-.15 2-.9c1.1-.49 1.75-.8 1.75-.8S23 35 9.29 31.22c.39.52.77 1.05 1.11 1.55.88 1.3 1.5 2.36 1.2 2.48s-2-1.36-3.69-3.07c-.57-.58-1.15-1.18-1.68-1.74A48.71 48.71 0 0 0 0 29.31Z" fill="url(#2e11cc60-cee0-4699-b9da-ec50aa2e405c)"/>
            <path d="M.7 30.45c.35.56.8 1.29 1.35 2.15l.57.9c.46.74 1 1.53 1.51 2.37l.44.67.34.52.67 1 1 1.45.69 1c1.34-.64 2.87-1.19 3.15-.52s-.64 1.6-1.68 2.63c.64.91 1.29 1.79 1.91 2.61l.28.37.46.59c.08.09.15.19.23.29l.71.86c2.19-1.47 6.46-4.15 7.12-3.1s-2.77 3.93-4.77 5.52l.19.14a3 3 0 0 0 1.1.43l.39.06h.59a13.43 13.43 0 0 0 1.92-.12l.49-.07.52-.09.42-.08.82-.17 1.11-.27.48-.13.17-.05c.28-.07.57-.15.85-.24 2.53-.73 5.24-1.71 7.72-2.69l.63-.24c.94-.38 1.85-.75 2.69-1.11l1.23-.47.36-.15 2-.9c-3.49-1.66-17.88-8.35-28-10.85.88 1.3 1.5 2.36 1.2 2.48s-2-1.36-3.69-3.07Z" style="mix-blend-mode:multiply" fill="url(#6ce84bdc-7fcd-46c7-ab95-a3cb614bcb17)" opacity=".2"/>
            <path d="m4.91 37.06.67 1 1 1.45.69 1c1.34-.64 2.87-1.19 3.15-.52s-.64 1.6-1.68 2.63c.64.91 1.29 1.79 1.91 2.61l.28.37.46.59c.08.09.15.19.23.29l.71.86c2.19-1.47 6.46-4.15 7.12-3.1s-2.77 3.93-4.77 5.52l.19.14a3 3 0 0 0 1.1.43l.39.06h.59a13.43 13.43 0 0 0 1.92-.12l.49-.07.52-.09.42-.08.82-.17 1.11-.27.48-.13.17-.05c.28-.07.57-.15.85-.24 2.53-.73 5.24-1.71 7.72-2.69l.63-.24c.94-.38 1.85-.75 2.69-1.11l1.23-.47.36-.15 1.15-.84Z" style="mix-blend-mode:multiply" fill="url(#5237b1ab-07c0-4035-a2f0-fe45a9f346d0)" opacity=".2"/>
            <path style="mix-blend-mode:multiply" fill="url(#c38f7fd3-eb5a-4ca3-a2f6-a9d259719508)" opacity=".2" d="m17.49 39.61-5.3 7.64-2.9-3.79 4.79-4.55 3.41.7z"/>
            <path style="mix-blend-mode:multiply" fill="url(#65e13f1d-ef87-475d-b3c7-cbb15e14216e)" opacity=".2" d="m27.23 41.58-5.14-4.99-1.58-.74 4.53 5.29 2.19.44z"/>
            <path d="M8.7 42.63Z" fill="url(#8e00aa0a-8a53-4130-949b-24343004a7e1)"/>
            <path d="M36.24 48a.31.31 0 0 1 0-.07.36.36 0 0 1 0-.09l-.32-.93-.06-.18c0-.09-.07-.2-.11-.31l-.09-.26-.09-.27a2.31 2.31 0 0 1-.1-.28c-.19-.56-.42-1.2-.66-1.91-.07-.18-.13-.36-.19-.54l-.07-.2c-.11-.3-.22-.62-.34-.94l-.39-1.13-.54-1.5c0-.15-.1-.3-.16-.46 1-.71 2.11-1.61 1.8-1.86a7.43 7.43 0 0 0-2.6-.41c-.16-.42-.31-.84-.46-1.27 1.81-.54 4.15-1.47 3.72-2.55s-3-1.45-4.6-1.49c0-.23-.08-.46-.12-.71s-.06-.32-.08-.49c-.07-.43-.14-.86-.21-1.32l-.06-.38c-.07-.48-.15-1-.22-1.49l-.09-.59c-.13-.84-.26-1.72-.38-2.64 0-.16-.05-.34-.08-.51l-.09-.61c-.08-.63-.17-1.27-.26-1.92 0-.26-.07-.52-.11-.78s-.07-.52-.11-.78 0-.27-.05-.4-.07-.52-.11-.78 0-.34-.07-.5c2.08.5 5.37 1.2 5.3.53S30.58 15.2 28.43 14c-.24-1.87-.48-3.68-.69-5.34 0-.17 0-.34-.07-.5s0-.23 0-.34-.06-.43-.08-.64c-.1-.76-.19-1.48-.27-2.15 0-.18-.05-.36-.07-.53-.15-1.2-.28-2.21-.37-3v-.31C26.7.44 26.65 0 26.65 0s4.44 4.58 8.21 8.93c.55 2.41 1.36 5.61 1.66 5.24s-.06-2.12-.41-3.77a28 28 0 0 1 3.74 5.21A48.79 48.79 0 0 1 41.76 23c-.37 1.55-.65 3.22-.36 3.94s.75.48 1.1 0c.76 4.48 1.23 8.6.81 9.12s-1.71 4.1-2.6 6.81c-.61 1.84-1.07 3.32-1.07 3.32Z" fill="url(#9bb975df-6a40-47a6-b1b3-2e68e7615ada)"/>
            <path d="M36.24 48a.31.31 0 0 1 0-.07.36.36 0 0 1 0-.09l-.32-.93-.06-.18c0-.09-.07-.2-.11-.31l-.09-.26-.09-.27a2.31 2.31 0 0 1-.1-.28c-.19-.56-.42-1.2-.66-1.91-.07-.18-.13-.36-.19-.54l-.07-.2c-.11-.3-.22-.62-.34-.94l-.39-1.13-.54-1.5c0-.15-.1-.3-.16-.46 1-.71 2.11-1.61 1.8-1.86a7.43 7.43 0 0 0-2.6-.41c-.16-.42-.31-.84-.46-1.27 1.81-.54 4.15-1.47 3.72-2.55s-3-1.45-4.6-1.49c0-.23-.08-.46-.12-.71s-.06-.32-.08-.49c-.07-.43-.14-.86-.21-1.32l-.06-.38c-.07-.48-.15-1-.22-1.49l-.09-.59c-.13-.84-.26-1.72-.38-2.64 0-.16-.05-.34-.08-.51l-.09-.61c-.08-.63-.17-1.27-.26-1.92 0-.26-.07-.52-.11-.78s-.07-.52-.11-.78 0-.27-.05-.4-.07-.52-.11-.78 0-.34-.07-.5c2.08.5 5.37 1.2 5.3.53S30.58 15.2 28.43 14c-.24-1.87-.48-3.68-.69-5.34 0-.17 0-.34-.07-.5s0-.23 0-.34-.06-.43-.08-.64c-.1-.76-.19-1.48-.27-2.15 0-.18-.05-.36-.07-.53-.15-1.2-.28-2.21-.37-3v-.31C26.7.44 26.65 0 26.65 0s9.66 16.68 10.87 20.23 3.06 18.35 3.23 20.56a13 13 0 0 1 0 2.14c-.61 1.84-1.07 3.32-1.07 3.32Z" style="mix-blend-mode:multiply" fill="url(#a991afde-ec12-4acb-ad23-a6d4c10be54a)" opacity=".2"/>
            <path style="mix-blend-mode:multiply" fill="url(#69adfe48-8dae-4553-aa07-778275bcbfa2)" opacity=".2" d="m38.91 26.22-8.68-.11.43 3.63 8.58-.44-.33-3.08z"/>
            <path style="mix-blend-mode:multiply" fill="url(#b26c4a5a-4ed9-49a2-8d68-5d157cd04629)" opacity=".2" d="m39.85 15.61-1.71 7.07.33 1.74 1.83-7.51-.45-1.3z"/>
            <path style="mix-blend-mode:multiply" fill="url(#79d69990-c367-4178-95ff-61c7eb0df3e0)" opacity=".2" d="m40.51 37.61-7.61.83.77 2.15 7.14-.53-.3-2.45z"/>
            <path d="M62.16 24Z" fill="url(#0a0b28e8-0002-4703-87f5-9849de729f02)"/>
            <path d="M61.74 8.08s0 .49.08 1.34c0 .65.07 1.52.11 2.53v1.07c0 .86.06 1.81.09 2.8v5.62c-1.46.23-3 .65-2.88 1.35s1.43 1 2.87 1.22c0 1.11 0 2.2-.09 3.23v1.58c0 .38 0 .75-.09 1.11-2.64 0-7.68.25-7.62 1.49s4.51 1.67 7.06 1.84c0 .08 0 .15-.08.22a2.87 2.87 0 0 1-.66 1l-.29.27-.16.13-.3.23a12.82 12.82 0 0 1-1.65 1l-.44.22-.48.22-.4.17-.71.28-1.1.43-.47.17-.17.06-.84.29c-2.49.83-5.28 1.56-7.88 2.17l-.65.15c-1 .23-2 .43-2.84.62l-1.35.27-.39.08c-.83.17-1.57.31-2.18.42-1.18.22-1.89.33-1.89.33S46 25.86 55.18 14.92v1.91c0 1.57.11 2.79.42 2.72s.87-2.26 1.29-4.62c.14-.81.28-1.63.4-2.4a49.1 49.1 0 0 1 4.45-4.45Z" fill="url(#a3be24cc-7ab5-49cf-aaac-05feb90e1a43)"/>
            <path d="M61.82 9.42c0 .65.07 1.52.11 2.53v1.07c0 .86.06 1.81.09 2.8v5.62c-1.46.23-3 .65-2.88 1.35s1.43 1 2.87 1.22c0 1.11 0 2.2-.09 3.23v1.58c0 .38 0 .75-.09 1.11-2.64 0-7.68.25-7.62 1.49s4.51 1.67 7.06 1.84c0 .08 0 .15-.08.22a2.87 2.87 0 0 1-.66 1l-.29.27-.16.13-.3.23a12.82 12.82 0 0 1-1.65 1l-.44.22-.48.22-.4.17-.71.28-1.1.43-.47.17-.17.06-.84.29c-2.49.83-5.28 1.56-7.88 2.17l-.65.15c-1 .23-2 .43-2.84.62l-1.35.27-.39.08c-.83.17-1.57.31-2.18.42 1.93-3.35 10-17 16.89-24.83 0 1.57.11 2.79.42 2.72s.87-2.26 1.29-4.62Z" style="mix-blend-mode:multiply" fill="url(#c82c2662-1e4b-4a4a-add8-71ffe1b74f5f)" opacity=".2"/>
            <path d="M62.11 17.24v4.2c-1.46.23-3 .65-2.88 1.35s1.43 1 2.87 1.22c0 1.11 0 2.2-.09 3.23v1.58c0 .38 0 .75-.09 1.11-2.64 0-7.68.25-7.62 1.49s4.51 1.67 7.06 1.84c0 .08 0 .15-.08.22a2.87 2.87 0 0 1-.66 1l-.29.27-.16.13-.3.23a12.82 12.82 0 0 1-1.65 1l-.44.22-.48.22-.4.17-.8.28-1.1.43-.47.17-.17.06-.84.29c-2.49.83-5.28 1.56-7.88 2.17l-.65.15c-1 .23-2 .43-2.84.62l-1.35.27-.39.08L39 41.2Z" style="mix-blend-mode:multiply" fill="url(#aacf8eb7-3a5b-486c-9f99-1cef549a8ddf)" opacity=".2"/>
            <path style="mix-blend-mode:multiply" fill="url(#c89f069c-b41d-4ea9-8f61-b47c27488b94)" opacity=".2" d="m53.2 26.49 8.7 3.28.24-4.77-6.53-1.02-2.41 2.51z"/>
            <path style="mix-blend-mode:multiply" fill="url(#f17a1d5b-9d53-4f1a-aeb7-7f982c6b193f)" opacity=".2" d="m46.3 33.64 1.4-7.03.88-1.5-.73 6.92-1.55 1.61z"/>
            <path d="M62.15 24s.01 0 0 0Z" fill="url(#ed3e2a6b-da32-4211-99a8-4298746d4b60)"/>
            <path d="M37.65 46.38h.2l1.07.24h.2l.37.08.3.07.32.08.32.07 2.22.51.63.15h.23l1.1.26 1.31.31 1.75.41.52.13c.68-1.2 1.55-2.56 1.87-2.24a8.25 8.25 0 0 1 .77 2.87l1.48.35c.39-2.1 1.15-4.83 2.41-4.47s2 3.21 2.22 5h1.37l1.5.07h.43l1.7.07h.66l3 .1h1.27l2.19.06h3.68C72 48.65 70.77 45 71.53 45s3.5 3.7 5.1 6l6 .13h4.73l3.37.05h1.74s-5.67-4.42-11-8.11c-2.77-.33-6.45-.85-6.07-1.23s2.38-.19 4.27 0a31.7 31.7 0 0 0-6.29-3.55 54.32 54.32 0 0 0-8.54-1.24c-1.69.61-3.52 1.13-4.37.89s-.63-.79-.15-1.23c-5.11-.31-9.78-.33-10.31.19s-4.39 2.42-7.32 3.75c-2 .9-3.59 1.6-3.59 1.6Z" fill="url(#32b46884-eaf1-4a1d-9232-d428cfe0fa2a)"/>
            <path d="M37.65 46.38h.2l1.07.24h.2l.37.08.3.07.32.08.32.07 2.22.51.63.15h.23l1.1.26 1.31.31 1.75.41.52.13c.68-1.2 1.55-2.56 1.87-2.24a8.25 8.25 0 0 1 .77 2.87l1.48.35c.39-2.1 1.15-4.83 2.41-4.47s2 3.21 2.22 5h1.37l1.5.07h.43l1.7.07h.66l3 .1h1.27l2.19.06h3.68C72 48.65 70.77 45 71.53 45s3.5 3.7 5.1 6l6 .13h4.73l3.37.05h1.74s-19.86-8.8-24-9.72-20.91-1.19-23.41-1.12a14.11 14.11 0 0 0-2.4.31c-2 .9-3.59 1.6-3.59 1.6Z" style="mix-blend-mode:multiply" fill="url(#822b82f7-65f2-48a3-9b32-0f964b721917)" opacity=".2"/>
            <path style="mix-blend-mode:multiply" fill="url(#1e770ce1-2317-40eb-947f-80cb3ffeea86)" opacity=".2" d="M58.19 40.75h3.48l1.19 9.71-4.13-.04-.54-9.67z"/>
            <path style="mix-blend-mode:multiply" fill="url(#31da93fa-eef9-4d65-b586-ad2537a7f360)" opacity=".2" d="m73.44 38.41-7.71 2.78-1.98-.17 8.19-2.96 1.5.35z"/>
            <path style="mix-blend-mode:multiply" fill="url(#fad2f44d-85de-4120-859c-7d125ac4224a)" opacity=".2" d="M48.73 40.34v8.62l-2.51-.59-.28-8.07 2.79.04z"/>
            <path d="M43.12 41.09s-3.72-4.49-4.56-4.49S38 44 38 44Z" fill="url(#fedcc802-f96c-46bc-998a-48e4250225ea)"/>
            <path d="M23.44 52.21c0 1.45 0 2.93.06 4.38 0 .38 0 .75.05 1.12 0 .36 0 .72.06 1.08v.37c0 .21 0 .41.05.62.73-1.19 1.43-2.17 1.66-1.94s-.67 2.34-1.47 3.8c0 .17 0 .35.06.52l.06.47c.05.36.11.71.17 1.06 0 .16 0 .33.09.49s.06.33.09.48.09.43.14.64.06.28.1.42.05.22.08.33 0 .21.08.31.11.37.16.55.07.24.11.35c.1.31.2.6.31.88s.2.48.3.7c0 0 1.88-2.25 4.15-5.1a14.41 14.41 0 0 1-1.12-2c-.27-.63-.37-1.16 0-1.3a1.37 1.37 0 0 1 1 .19 8.11 8.11 0 0 1 1.63 1.16l1.34-1.71c-1.15-1.18-3.29-3.61-2-4.2s2.83 1.07 3.66 2c1.84-2.45 3.29-4.56 3.49-5.37a8.76 8.76 0 0 0 .19-1c-1.37-2-3.09-4.69-2.45-4.93s1.88.88 2.83 1.84c.44-4.77.7-11.35.7-11.35l3.59 3.34c-.18-.23-3.2-4-3.59-4.36-.21-.21-3.85.07-7.4.39-3.29.3-6.5.63-6.8.63-.05 0-.11.16-.19.45a.36.36 0 0 1 0 .1.29.29 0 0 1 0 .09v.15c-.08.37-.16.88-.25 1.5a2.17 2.17 0 0 1 0 .25v.17l-.06.41a2.66 2.66 0 0 1 0 .28c0 .16 0 .33-.06.5v.05c0 .21-.05.42-.07.63a.49.49 0 0 0 0 .12l-.06.56c-.09.87-.17 1.81-.24 2.81v.84c1.17-.46 2.78-.94 3.2-.34s-2.09 2.05-3.54 2.77v1.19c-.07.86-.1 1.73-.11 2.61Z" fill="url(#32cc934e-bb96-47aa-8b9e-aaff6ba2644c)"/>
            <path d="M23.5 56.59c0 .38 0 .75.05 1.12 0 .36 0 .72.06 1.08v.37c0 .21 0 .41.05.62.73-1.19 1.43-2.17 1.66-1.94s-.67 2.34-1.47 3.8c0 .17 0 .35.06.52l.06.47c.05.36.11.71.17 1.06 0 .16 0 .33.09.49s.06.33.09.48.09.43.14.64.06.28.1.42.05.22.08.33 0 .21.08.31.11.37.16.55.07.24.11.35c.1.31.2.6.31.88s.2.48.3.7c0-14.28 6-32.33 6-32.33-3.29.3-6.5.63-6.8.63-.05 0-.11.16-.19.45a.36.36 0 0 1 0 .1.29.29 0 0 1 0 .09v.15c-.08.37-.16.88-.25 1.5a2.17 2.17 0 0 1 0 .25v.17l-.06.41a2.66 2.66 0 0 1 0 .28l-.06.5v.05c0 .21-.05.42-.07.63a.49.49 0 0 0 0 .12l-.06.56c-.09.87-.17 1.81-.24 2.81v.84c1.17-.46 2.78-.94 3.2-.34s-2.07 1.98-3.52 2.7v1.19c0 .85-.05 1.72-.06 2.6-.06 1.46-.05 2.94.01 4.39Z" style="mix-blend-mode:multiply" fill="url(#7ff865b7-221c-42e3-9266-f114daa88fbe)" opacity=".2"/>
            <path style="mix-blend-mode:multiply" fill="url(#9932b05b-3f11-417f-bd79-1885e97124cb)" opacity=".2" d="m29.03 45.75 7.32 9.37-.87 1.25L28.65 47l.38-1.25z"/>
            <path style="mix-blend-mode:multiply" fill="url(#ffcf12ed-a071-4b58-a4ce-761941430b1e)" opacity=".2" d="m30.62 39.88-6.48 1.07-.52 6.09 6.22-4.39.78-2.77z"/>
            <path d="M28.66 61.81c-.27-.63-.37-1.16 0-1.3a1.37 1.37 0 0 1 1 .19l-3-4.75-.21 2.43Z" style="mix-blend-mode:multiply" fill="url(#399ed6d7-d9c9-49c5-b480-f72c25b22bc8)" opacity=".2"/>
            <path d="M46.4 88.07h-1.89L44.25 85l-.06-.64v-.67l-.61-7.21-.11-1.26-1.27-14.38-.89-10.49v-.13l.59-1L42 49l.08.66.2 1.83 1 8.74L45 75.05l.11 1 .84 7.51v.4l.11 1Z" style="mix-blend-mode:soft-light" fill="#ffffc2" opacity=".68"/>
            <g style="mix-blend-mode:soft-light" opacity=".5">
                <path d="M23.57 106.08c0-.14.06-.28.21-.29v.34a.23.23 0 0 0-.21-.05Z" fill="#ffffff" fill-rule="evenodd"/>
                <path d="M26.16 96.28a.3.3 0 0 1 .25-.1c.02.15-.18.18-.25.1Z" fill="#ffffff" fill-rule="evenodd"/>
                <path d="M26.4 107.46c0-.07.06-.15.17-.14s0 .19 0 .34c-.21.01-.01-.17-.17-.2Z" fill="#ffffff" fill-rule="evenodd"/>
                <path d="M26.2 104.51c0-.11.21 0 .29-.06-.03.19-.16.04-.29.06Z" fill="#ffffff" fill-rule="evenodd"/>
                <path d="M26.34 112.09c0-.08.31-.2.3 0-.14-.09-.14-.01-.3 0Z" fill="#ffffff" fill-rule="evenodd"/>
                <path d="M26.38 102c0-.17.32-.07.29.09s-.16-.09-.29-.09Z" fill="#ffffff" fill-rule="evenodd"/>
                <path d="M26.8 112c.34-.2.32-.11.79-.16-.13.23-.49.16-.79.16Z" fill="#ffffff" fill-rule="evenodd"/>
                <path d="M28.09 111.77c.16.2.41.09.67.09-.15.14-.59.28-.67-.09Z" fill="#ffffff" fill-rule="evenodd"/>
                <path d="M32 100.6c.12-.23.36.09.28.31-.37.09-.05-.33-.28-.31Z" fill="#ffffff" fill-rule="evenodd"/>
                <path d="M29.28 110.06c0-.22.27-.22.41-.15-.08.19-.29-.02-.41.15Z" fill="#ffffff" fill-rule="evenodd"/>
                <path d="M29.42 111.26s.11-.07 0-.09.18 0 .17.14a.23.23 0 0 1-.17 0c.05-.01.03-.04 0-.05Z" fill="#ffffff" fill-rule="evenodd"/>
                <path d="M30.1 109.46c-.13-.07.24-.07.25 0s0 0 0 .05-.12-.1-.25-.05Z" fill="#ffffff" fill-rule="evenodd"/>
                <path d="M26 97.64c.17-.17.07.57.11.78-.32-.21-.11-.42-.11-.78Z" fill="#ffffff" fill-rule="evenodd"/>
                <path d="M28.12 105.74v.31c-.34.07-.35-.37 0-.31Z" fill="#ffffff" fill-rule="evenodd"/>
                <path d="M28.34 107.3c.5.13-.11.53 0 .85-.16-.15-.11-.71 0-.85Z" fill="#ffffff" fill-rule="evenodd"/>
                <path d="M22.57 98.36c0-.16.37 0 .54-.11-.11.15-.46.12-.54.11Z" fill="#ffffff" fill-rule="evenodd"/>
                <path d="M23.62 98.73c0-.18.25-.14.42-.16 0 .13-.29.09-.13.2-.05.12-.18-.07-.29-.04Z" fill="#ffffff" fill-rule="evenodd"/>
                <path d="M24.37 98.52c.08.1 0 .09 0 .19s-.22 0-.21-.14a.17.17 0 0 0 .12.05c.01-.03.01-.11.09-.1Z" fill="#ffffff" fill-rule="evenodd"/>
                <path d="M24.33 98.47c.11-.14.26.15.41 0-.05.23-.34.14-.41 0Z" fill="#ffffff" fill-rule="evenodd"/>
                <path d="M29.35 96.88a6.43 6.43 0 0 1 1.75 0c-.58.53-1.17-.15-1.75 0Z" fill="#ffffff" fill-rule="evenodd"/>
                <path d="M27.64 112c.05 0 .36-.21.37 0-.17-.08-.18 0-.37 0Z" fill="#ffffff" fill-rule="evenodd"/>
                <path d="M28.11 97.56c0-.07.48.07.58-.06.12.16-.49.12-.58.06Z" fill="#ffffff" fill-rule="evenodd"/>
                <path d="M25 102.45c.07-.07.11-.17.25-.15s.14.1.13.24c-.17-.11-.24-.17-.38-.09Z" fill="#ffffff" fill-rule="evenodd"/>
                <path d="M27.58 106.82c.09.19-.23.42-.46.53-.12-.15.36-.35.46-.53Z" fill="#ffffff" fill-rule="evenodd"/>
                <path d="M27.41 104.73c-.11.67-.31-.47-.38.19-.07 0 0-.31 0-.48a2.72 2.72 0 0 0 .38.29Z" fill="#ffffff" fill-rule="evenodd"/>
                <path d="M27.53 100.44c0 .26-.21 0-.3.08a1.47 1.47 0 0 0 .05-.59c.13.07.12.41.25.51Z" fill="#ffffff" fill-rule="evenodd"/>
                <path d="M27.11 101.22c-.09.29-.29.55-.32.2.07-.17.21-.24.32-.2Z" fill="#ffffff" fill-rule="evenodd"/>
                <path d="M26.59 100.32c-.19.24-.62.53-.73.14.13-.23.22 0 .16-.46.07.29.32.3.57.32Z" fill="#ffffff" fill-rule="evenodd"/>
                <path d="M25 99.86c.05.65-1.13.4-.86-.35.06 0 0 .22 0 .36.24-.21.54.31.86-.01Z" fill="#ffffff" fill-rule="evenodd"/>
                <path d="M26.88 104.66a1.44 1.44 0 0 1-.1.46c-.13-.08 0-.83-.31-.52-.18-.14.14-.17.14-.34.08.15.09.4.27.4Z" fill="#ffffff" fill-rule="evenodd"/>
                <path d="M27.14 100.15c-.12.48-.38-.08-.52-.19a.88.88 0 0 0 .09-.35c-.26.26-.14-.28-.33-.4s-.05.23-.13.22-.26-.13-.2-.5c.29.24.25.19.59.08v.35a.27.27 0 0 1 .29.16c0-.31 0-.43.1-.58s-.27 0-.14-.38l.32.4c-.27.12-.14.38-.13.82-.09-.24-.14 0-.29 0-.11.43.21.33.35.37Z" fill="#ffffff" fill-rule="evenodd"/>
                <path d="M26.48 105.08c-.14-.17-.15-.28-.34-.16 0-.2 0-.31-.09-.37a.54.54 0 0 1 .43.53Z" fill="#ffffff" fill-rule="evenodd"/>
                <path d="M26.06 99.53c-.21.4-.29-.28-.31-.52-.07.07-.09.26-.2.21.2-.79.31.2.51.31Z" fill="#ffffff" fill-rule="evenodd"/>
                <path d="M23.37 104.68a.88.88 0 0 1 .76.27c-.13.12-.46-.22-.76-.27Z" fill="#ffffff" fill-rule="evenodd"/>
                <path d="M23.58 104.09c0-.1.14 0 .2 0a.39.39 0 0 0 0 .24c-.09-.08-.11-.21-.2-.24Z" fill="#ffffff" fill-rule="evenodd"/>
                <path d="M23.82 103.75c0-.12.17-.24.21-.1a.2.2 0 0 1-.21.1Z" fill="#ffffff" fill-rule="evenodd"/>
                <path d="M24.24 104.08c.12-.11.4-.26.5-.1-.07.1-.15 0-.08.19-.07-.11-.24-.1-.42-.09Z" fill="#ffffff" fill-rule="evenodd"/>
                <path d="M25.41 104.16c-.07-.26.76-.24.63.08-.05 0 0-.09-.05-.14-.16.1-.41-.1-.58.06Z" fill="#ffffff" fill-rule="evenodd"/>
                <path d="M33.72 99.18c.2 0 0 .39.1.55-.23-.08-.2-.32-.1-.55Z" fill="#ffffff" fill-rule="evenodd"/>
                <path d="M27.75 100.52a.2.2 0 0 1 .24-.15c.01.12-.15.11-.24.15Z" fill="#ffffff" fill-rule="evenodd"/>
                <path d="M30.29 100.33c.05-.18.35 0 .54 0 0 .13-.24 0-.17.15-.1-.18-.18-.1-.37-.15Z" fill="#ffffff" fill-rule="evenodd"/>
                <path d="M23.87 104.18c.05-.2.27 0 .37 0a.29.29 0 0 0 0 .14c.17-.12.12.11.26.14s0-.09.08-.1.19 0 .17.19c-.22-.07-.19-.06-.42 0v-.14a.27.27 0 0 1-.21 0c0 .13.06.17 0 .24s.19 0 .13.15l-.25-.14c.18-.07.07-.17 0-.34.08.09.11 0 .21 0-.02-.19-.21-.13-.34-.14Z" fill="#ffffff" fill-rule="evenodd"/>
                <path d="M24.66 104.36c.13-.17.22.1.26.19s0-.11.12-.1c-.04.33-.23-.06-.38-.09Z" fill="#ffffff" fill-rule="evenodd"/>
                <path d="M25 104.59c0-.21.2-.08.21 0s-.16-.07-.21 0Z" fill="#ffffff" fill-rule="evenodd"/>
                <path d="M25.4 103.3c0-.12.31.07.46 0-.12.19-.33.01-.46 0Z" fill="#ffffff" fill-rule="evenodd"/>
                <path d="M23 105.39c0-.26.24 0 .38-.15-.07.17-.33.07-.38.15Z" fill="#ffffff" fill-rule="evenodd"/>
                <path d="M23.1 106.48v-.15c0 .11.29 0 .25.14Z" fill="#ffffff" fill-rule="evenodd"/>
                <path d="M23.28 92.64c0-.28.29-.1.3 0s-.15-.09-.3 0Z" fill="#ffffff" fill-rule="evenodd"/>
                <path d="M24.37 103c.07-.26.51 0 .77 0 0 .19-.33-.06-.23.22-.16-.22-.26-.12-.54-.22Z" fill="#ffffff" fill-rule="evenodd"/>
                <path d="M36.29 99.83c-.06-.12-.31 0-.25.14.14.03.06-.22.25-.14Z" fill="#ffffff" fill-rule="evenodd"/>
                <path d="M31.79 99.9a.8.8 0 0 0 .46-.46c-.13 0-.22.3-.27.08a.36.36 0 0 0-.19.38Z" fill="#ffffff" fill-rule="evenodd"/>
                <path d="M27.27 105.76a.29.29 0 0 1 0-.14c-.21.15-.23.07-.54 0 .07.26.37.22.54.14Z" fill="#ffffff" fill-rule="evenodd"/>
                <path d="M27.05 104c-.06-.15-.32-.09-.5-.11.1.11.24.05.5.11Z" fill="#ffffff" fill-rule="evenodd"/>
                <path d="M26.61 105.75c0-.28-.28.06-.21-.15s-.14 0-.12.05c-.58-.05-.19.11 0 0v.09c0 .03.2-.03.33.01Z" fill="#ffffff" fill-rule="evenodd"/>
                <path d="M25.73 105.73c0-.13-.17-.09-.29-.1.04.1.16.11.29.1Z" fill="#ffffff" fill-rule="evenodd"/>
                <path d="M25.36 105.78c0-.15-.09-.16-.21-.15s.06.18.21.15Z" fill="#ffffff" fill-rule="evenodd"/>
                <path d="M25.07 105.67c0-.23-.56.24-.46-.15a.26.26 0 0 0-.05.29c.25-.05.25-.09.51-.14Z" fill="#ffffff" fill-rule="evenodd"/>
                <path d="M23.15 105.3c0-.1-.1-.1-.2-.1s0 .18 0 .29.1-.17.2-.19Z" fill="#ffffff" fill-rule="evenodd"/>
                <path d="M35.39 98.16c-.26 0-.1.15 0 .16s-.09-.08 0-.16Z" fill="#ffffff" fill-rule="evenodd"/>
                <path d="M26.61 100a.15.15 0 0 0-.13.13h.25a.38.38 0 0 1 0-.1c-.11.04-.14.02-.12-.03Z" fill="#ffffff" fill-rule="evenodd"/>
                <path d="M32.93 101.34c-.21 0-.29.17 0 .16Z" fill="#ffffff" fill-rule="evenodd"/>
                <path d="M30.19 101.54c-.14 0-.07.19 0 .22s-.06-.14 0-.22Z" fill="#ffffff" fill-rule="evenodd"/>
                <path d="M31 101.78a.41.41 0 0 0-.41-.25c-.06.47.27.16.41.25Z" fill="#ffffff" fill-rule="evenodd"/>
                <path d="M30.23 100.33c.27-.22-.4-.48-.3 0 .15.16.25-.33.3 0Z" fill="#ffffff" fill-rule="evenodd"/>
                <path d="M29.82 100.32c0-.3-.52-.44-.48 0 .18-.17.21.05.48 0Z" fill="#ffffff" fill-rule="evenodd"/>
                <path d="M29.16 96.86a.21.21 0 0 0-.13.19c.2.01.23-.14.13-.19Z" fill="#ffffff" fill-rule="evenodd"/>
                <path d="M27.15 99.77c0-.12-.12-.08-.12-.24-.11.34-.14.27-.29.35.09.33.35.03.41-.11Z" fill="#ffffff" fill-rule="evenodd"/>
                <path d="M26.55 104.11c-.25 0-.09.15-.14.22.18 0 .12-.13.14-.22Z" fill="#ffffff" fill-rule="evenodd"/>
                <path d="M26.51 99h.19c0-.2-.4-.34-.17-.54.14 0 0 .17.12.19s-.06-.13.07-.25h-.38c-.08.27 0 .24 0 .57.23-.09.09.18.19.16-.25 0-.21.12 0 .19-.06.09-.16 0-.25 0 .14.11-.11.37.18.32 0 0 0 .06.06.07s-.28-.07-.26.09c.22-.11.17.08.25.13.39-.17.11-.58.28-.79a.82.82 0 0 0-.28-.14Z" fill="#ffffff" fill-rule="evenodd"/>
                <path d="M33.72 98.49c-.15 0 .09.24.05.35.23-.09-.04-.25-.05-.35Z" fill="#ffffff" fill-rule="evenodd"/>
                <path d="M28.93 100.3a.39.39 0 0 0-.53-.25c.11.2.36.14.53.25Z" fill="#ffffff" fill-rule="evenodd"/>
                <path d="M27.16 97c-.1-.23-.41-.06-.41-.49-.17.31.3.79.41.49Z" fill="#ffffff" fill-rule="evenodd"/>
                <path d="M27.58 104.75c-.35-.21-.95.09-1.25-.26 0 .12-.21.08-.21.24.41-.12.57.15.88 0 .12.14.43.03.58.02Z" fill="#ffffff" fill-rule="evenodd"/>
                <path d="M26 104.53c.06-.12-.2.09-.34 0 .05.14.23.13.38.15-.1-.02-.25-.1-.04-.15Z" fill="#ffffff" fill-rule="evenodd"/>
                <path d="M24.65 105.28c-.09-.11-.39 0-.49-.1s.56.4.58.1a.07.07 0 0 0-.09 0Z" fill="#ffffff" fill-rule="evenodd"/>
                <path d="M24.07 105.37c.05.12-.23.19-.34.28 0-.14-.43-.08-.75-.11.15.15.94.29 1 0h.46a2.51 2.51 0 0 0-1.2-.17c.11.08.62-.03.83 0Z" fill="#ffffff" fill-rule="evenodd"/>
                <path d="M22.82 105.3a.79.79 0 0 1-.17.14c0 .06.1 0 .17 0s0-.15.08-.14c-.1-.07-.09-.25-.25-.25-.05.24.12.18.17.25Z" fill="#ffffff" fill-rule="evenodd"/>
                <path d="M26.83 109.91a.37.37 0 0 0 .27-.47c-.22.04-.2.29-.27.47Z" fill="#ffffff" fill-rule="evenodd"/>
                <path d="M27.16 105.15c.34-.1 0-.66 0-1-.24 0 .08.44-.28.31.35.19.19.33.28.69Z" fill="#ffffff" fill-rule="evenodd"/>
                <path d="M23.48 107.11a.41.41 0 0 0 0 .35.3.3 0 0 0 0-.35Z" fill="#ffffff" fill-rule="evenodd"/>
                <path d="M29 96c0 .19-.19 0-.33.06-.07-.12.19-.06.33-.06Z" fill="#ffffff" fill-rule="evenodd"/>
                <path d="M33.81 100.54c.07.07-.28-.07-.37 0 .11-.09-.09-.11-.17-.15.08-.1.21 0 .37 0-.19.05.08.11.17.15Z" fill="#ffffff" fill-rule="evenodd"/>
                <path d="M28.37 102.7c.12 0 0 .28.06.39-.26 0-.33-.35-.39-.69Z" fill="#ffffff" fill-rule="evenodd"/>
                <path d="M30.26 100.3c0 .07.19.06.37.09l.09-.06c.09-.06-.3.03-.46-.03Z" fill="#ffffff" fill-rule="evenodd"/>
                <path d="M28.56 96c0 .19.19 0 .33.06.03-.12-.22-.06-.33-.06Z" fill="#ffffff" fill-rule="evenodd"/>
                <path d="M31.66 95.51c.15-.06.19 0 .33 0s-.32-.17-.33 0Z" fill="#ffffff" fill-rule="evenodd"/>
                <path d="M36.12 95.53c0 .16.22 0 .25.11.08 0-.13-.16 0-.23-.1-.1-.12.12-.25.12Z" fill="#ffffff" fill-rule="evenodd"/>
                <path d="M36.91 96.63v-.08c-.27 0-.45.18-.71.08 0-.07.22 0 .25-.06s-.17 0-.33 0v.17h.75c-.12-.1.24 0 .21-.09 0 .12.16.1.25 0s-.06.07 0 .11.48 0 .42-.08.08 0 .09 0-.09.13.12.12c-.14-.1.1-.08.17-.11-.22-.18-.76-.05-1-.13a.75.75 0 0 0-.22.07Z" fill="#ffffff" fill-rule="evenodd"/>
                <path d="M29.29 100.75h-.12c-.07 0 .13.06-.05.06s.24.06.34 0-.31-.01-.17-.06Z" fill="#ffffff" fill-rule="evenodd"/>
                <path d="M29.43 99c0 .15.14.19 0 .32v-.09a.19.19 0 0 0-.2-.1c.01-.08.07-.13.2-.13Z" fill="#ffffff" fill-rule="evenodd"/>
                <path d="M29.18 99.07c-.23.2-.06.53-.43.68.11-.12.09-.6.43-.68Z" fill="#ffffff" fill-rule="evenodd"/>
                <path d="M43 96.83c.2 0 .4.07.42.22a1.17 1.17 0 0 1-.49 0 .21.21 0 0 0 .07-.22Z" fill="#ffffff" fill-rule="evenodd"/>
                <path d="M31.2 98.71c.19 0 .07.15.1.22-.14 0-.09-.13-.1-.22Z" fill="#ffffff" fill-rule="evenodd"/>
                <path d="M26.92 102.71c-.05.53-.36-.32-.36.2-.09 0-.06-.23-.07-.37a2.09 2.09 0 0 0 .43.17Z" fill="#ffffff" fill-rule="evenodd"/>
                <path d="M35.67 92.68c.25.06 0 .39 0 .59-.18 0 .06-.25-.21-.18.26-.09.14-.2.21-.41Z" fill="#ffffff" fill-rule="evenodd"/>
                <path d="M28.29 98.57c.1.06 0 .23.2.23-.11.09-.31-.16-.2-.23Z" fill="#ffffff" fill-rule="evenodd"/>
                <path d="M26.37 102.73c0 .19 0 .24-.05.37-.15 0-.12-.64-.37-.36-.19-.09.13-.15.11-.28.1.1.13.3.31.27Z" fill="#ffffff" fill-rule="evenodd"/>
                <path d="M26 103.11c-.16-.12-.18-.2-.36-.08 0-.16 0-.24-.13-.28s.49.05.49.36Z" fill="#ffffff" fill-rule="evenodd"/>
                <path d="M28.32 109.5c.29 0-.17.19.11.19h-.2a1.49 1.49 0 0 0 .09-.19Z" fill="#ffffff" fill-rule="evenodd"/>
                <path d="M28.33 109.79a.56.56 0 0 1 .2 0c0 .08-.34.06-.2.2 0 .1-.08-.07-.15-.06s.16-.04.15-.14Z" fill="#ffffff" fill-rule="evenodd"/>
                <path d="M28.53 110c-.06.08-.11.09 0 .19-.09 0-.13 0-.15.07s-.01-.26.15-.26Z" fill="#ffffff" fill-rule="evenodd"/>
                <path d="M41 99.92c.1 0 .22.07.21.18s-.27 0-.48 0c0-.22.27 0 .27-.18Z" fill="#ffffff" fill-rule="evenodd"/>
                <path d="M41 102.89c.15 0 0 .23.08.32-.25-.04-.08-.21-.08-.32Z" fill="#ffffff" fill-rule="evenodd"/>
                <path d="M44.55 103.08c.24 0 .09.36-.13.32-.05-.16.14-.17.13-.32Z" fill="#ffffff" fill-rule="evenodd"/>
                <path d="M25.33 97.66c-.32-.54-.82-.23-1.37-.22.31-.39 1.2-.77 1.37.22Z" fill="#ffffff" fill-rule="evenodd"/>
                <path d="M40.8 105.31c.1-.13.28 0 .21.18-.27.08-.01-.19-.21-.18Z" fill="#ffffff" fill-rule="evenodd"/>
                <path d="M29 109.34c0 .59-.56.59-.84.41.19-.5.62.05.84-.41Z" fill="#ffffff" fill-rule="evenodd"/>
                <path d="M28.73 106.12c0 .12-.23.2-.08.26-.08.33-.38-.09-.35-.38a.37.37 0 0 1 .34-.13c-.01.13.03.23.09.25Z" fill="#ffffff" fill-rule="evenodd"/>
                <path d="M27.35 110.94c.27.18-.49.2-.51 0s0-.12.08-.13.08 0 .09-.13.07.42.34.26Z" fill="#ffffff" fill-rule="evenodd"/>
                <path d="M40.86 107.73c.13-.1 0 .33.08.45-.22-.11-.03-.18-.08-.45Z" fill="#ffffff" fill-rule="evenodd"/>
                <path d="M31.72 101.21v.18c-.26.04-.27-.21 0-.18Z" fill="#ffffff" fill-rule="evenodd"/>
                <path d="M31.88 102.12c.38.08-.09.31 0 .5-.12-.07-.09-.42 0-.5Z" fill="#ffffff" fill-rule="evenodd"/>
                <path d="M49.79 98.24c.21.06.19.3.15.41-.12-.09-.08-.29-.15-.41Z" fill="#ffffff" fill-rule="evenodd"/>
                <path d="M49.81 98.92c.23 0 0 .4.15.59-.21-.08-.17-.51-.15-.59Z" fill="#ffffff" fill-rule="evenodd"/>
                <path d="M49.28 100.07c.25 0 .19.27.22.45-.18 0-.12-.31-.28-.13-.22-.06.1-.21.06-.32Z" fill="#ffffff" fill-rule="evenodd"/>
                <path d="M49.58 100.88c-.14.1-.14 0-.28 0 .06-.08 0-.24.2-.23 0 0-.07.08-.06.14s.16.01.14.09Z" fill="#ffffff" fill-rule="evenodd"/>
                <path d="M49.65 100.84c.2.13-.22.29 0 .45-.33-.05-.2-.37 0-.45Z" fill="#ffffff" fill-rule="evenodd"/>
                <path d="M51 105c.09 0-.11.53.09.64-.29.1-.23-.56-.09-.64Z" fill="#ffffff" fill-rule="evenodd"/>
                <path d="M25.39 110.74c-.15.16-.22.44-.51.4 0-.35-.27-.28-.27-.64.25.29.39.43.78.24Z" fill="#ffffff" fill-rule="evenodd"/>
                <path d="M31.6 97.3c-.27.1-.61-.25-.76-.5.22-.14.46.39.76.5Z" fill="#ffffff" fill-rule="evenodd"/>
                <path d="M31.18 100.62c-.09.39-.24-.28-.29.11-.06 0 0-.18 0-.28a2.59 2.59 0 0 0 .29.17Z" fill="#ffffff" fill-rule="evenodd"/>
                <path d="M31.28 98.11c0 .15-.16 0-.23 0a.57.57 0 0 0 0-.34c.14.09.13.28.23.34Z" fill="#ffffff" fill-rule="evenodd"/>
                <path d="M31 98.56c-.07.17-.22.33-.24.12a.2.2 0 0 1 .24-.12Z" fill="#ffffff" fill-rule="evenodd"/>
                <path d="M30.56 98c-.14.14-.47.32-.55.08.09-.13.17 0 .12-.26.05.18.24.18.43.18Z" fill="#ffffff" fill-rule="evenodd"/>
                <path d="M29.32 97.76c0 .38-.87.24-.66-.21.05 0 0 .13 0 .22.21-.13.45.23.66-.01Z" fill="#ffffff" fill-rule="evenodd"/>
                <path d="M30.77 100.57c0 .15-.05.18-.08.28s0-.49-.24-.31c-.13-.08.12-.1.12-.2.06.09.07.24.2.23Z" fill="#ffffff" fill-rule="evenodd"/>
                <path d="M31 97.94c-.09.28-.29 0-.39-.11a.52.52 0 0 0 .07-.21c-.2.15-.11-.17-.25-.23s-.05.13-.11.13-.19-.09-.14-.3c.21.14.19.11.45 0v.2a.22.22 0 0 1 .22.1c0-.18 0-.25.08-.34s-.21 0-.11-.23l.25.24c-.21.07-.11.22-.1.48-.07-.14-.11 0-.23 0-.11.33.1.24.26.27Z" fill="#ffffff" fill-rule="evenodd"/>
                <path d="M30.47 100.82c-.11-.1-.12-.16-.26-.09 0-.12 0-.19-.07-.22s.35.08.33.31Z" fill="#ffffff" fill-rule="evenodd"/>
                <path d="M30.16 97.57c-.16.23-.22-.16-.24-.3-.05 0-.06.15-.15.12.16-.46.23.12.39.18Z" fill="#ffffff" fill-rule="evenodd"/>
                <path d="M45 96.61c.13.27-.16.65-.39.83-.17-.2.32-.51.39-.83Z" fill="#ffffff" fill-rule="evenodd"/>
                <path d="M48.32 96.63c.4 0-.24.26.15.27 0 .06-.18 0-.28 0a2.69 2.69 0 0 0 .13-.27Z" fill="#ffffff" fill-rule="evenodd"/>
                <path d="M45.84 96.83c.15 0 0 .16.07.23a.65.65 0 0 0-.34 0c.04-.06.22-.12.27-.23Z" fill="#ffffff" fill-rule="evenodd"/>
                <path d="M46.33 97.1c.17.05.34.18.14.23a.2.2 0 0 1-.14-.23Z" fill="#ffffff" fill-rule="evenodd"/>
                <path d="M45.86 97.56c.15.13.36.44.15.55-.15-.08 0-.17-.28-.09.16-.08.14-.27.13-.46Z" fill="#ffffff" fill-rule="evenodd"/>
                <path d="M45.75 98.84c.36-.08.33.84-.12.69 0-.06.12 0 .2 0-.14-.23.17-.53-.08-.69Z" fill="#ffffff" fill-rule="evenodd"/>
                <path d="M46.36 101.3c.15 0 0 .22.07.32-.17-.05-.15-.19-.07-.32Z" fill="#ffffff" fill-rule="evenodd"/>
                <path d="M46.71 104.58c.15 0 .25.11.22.27-.17-.02-.16-.17-.22-.27Z" fill="#ffffff" fill-rule="evenodd"/>
                <path d="M47 107.36c.26.06 0 .39 0 .6-.18 0 .06-.26-.21-.19.21-.11.12-.19.21-.41Z" fill="#ffffff" fill-rule="evenodd"/>
                <path d="M48.33 97h.28c.09 0-.48.09-.27.28-.07.14-.12-.1-.21-.09.08 0 .22-.02.2-.19Z" fill="#ffffff" fill-rule="evenodd"/>
                <path d="M45.71 97.15c.29.06 0 .3-.06.41a.56.56 0 0 0-.21 0c.17.18-.15.13-.2.28s.14 0 .14.09-.06.2-.27.18c.11-.23.08-.2 0-.45h.2a.21.21 0 0 1 .07-.22c-.18 0-.24.06-.35 0s0 .21-.2.14l.2-.27c.09.2.23.08.48 0-.12.09 0 .11 0 .23.27-.04.19-.24.2-.39Z" fill="#ffffff" fill-rule="evenodd"/>
                <path d="M48.61 97.31c-.08.12-.14.14-.06.27-.12 0-.18 0-.2.09s.03-.36.26-.36Z" fill="#ffffff" fill-rule="evenodd"/>
                <path d="M45.45 98c.25.14-.13.25-.27.28 0 0 .16 0 .14.14-.47-.08.09-.24.13-.42Z" fill="#ffffff" fill-rule="evenodd"/>
                <path d="M29.82 102.28c-.35.17-.85-.22-1.1-.53.28-.22.68.43 1.1.53Z" fill="#ffffff" fill-rule="evenodd"/>
                <path d="M29.37 95.48c.28 0-.18.19.1.19h-.2a1.78 1.78 0 0 0 .1-.19Z" fill="#ffffff" fill-rule="evenodd"/>
                <path d="M29.53 103.39c0 .2-.21 0-.3.1a.9.9 0 0 0 0-.46c.14.06.16.3.3.36Z" fill="#ffffff" fill-rule="evenodd"/>
                <path d="M29.18 104c-.06.24-.24.47-.3.2a.27.27 0 0 1 .3-.2Z" fill="#ffffff" fill-rule="evenodd"/>
                <path d="M28.56 103.42c-.17.21-.58.49-.73.2.11-.19.23 0 .12-.37.1.21.36.19.61.17Z" fill="#ffffff" fill-rule="evenodd"/>
                <path d="M26.86 103.28c.11.49-1.11.45-.92-.16.07 0 .06.17.07.27.24-.19.6.17.85-.11Z" fill="#ffffff" fill-rule="evenodd"/>
                <path d="M29.7 111.2c0 .21-.3 0-.43.11.06-.24.25-.21.43-.11Z" fill="#ffffff" fill-rule="evenodd"/>
                <path d="M25.32 111.69c-.05.2-.14.33-.36.29.04-.23.23-.21.36-.29Z" fill="#ffffff" fill-rule="evenodd"/>
                <path d="M28.41 103.13c.18 0 0 .28 0 .43-.13 0 0-.19-.15-.13.19-.09.1-.14.15-.3Z" fill="#ffffff" fill-rule="evenodd"/>
                <path d="M46.74 93.22c.14 0 0 .2.14.23a.47.47 0 0 0 .14-.14c.2.08 0 .24-.27.18.05-.16-.14-.19-.01-.27Z" fill="#ffffff" fill-rule="evenodd"/>
                <path d="M29.37 95.77a.53.53 0 0 1 .2 0c0 .08-.34.06-.19.2-.05.1-.08-.07-.15-.06s.16-.04.14-.14Z" fill="#ffffff" fill-rule="evenodd"/>
                <path d="M29.11 103.22c-.08.38-.4 0-.55-.08a.65.65 0 0 0 .06-.28c-.24.23-.17-.2-.37-.26s0 .18-.12.18-.28-.07-.25-.36c.31.15.28.11.61 0v.28a.32.32 0 0 1 .31.08c0-.23-.09-.32.05-.46s-.28.06-.19-.27l.37.27c-.26.13-.11.31-.05.64-.12-.17-.15 0-.3 0-.04.36.23.25.43.26Z" fill="#ffffff" fill-rule="evenodd"/>
                <path d="M29.57 96c-.06.09-.1.1 0 .2a.16.16 0 0 0-.15.07s-.01-.27.15-.27Z" fill="#ffffff" fill-rule="evenodd"/>
                <path d="M28 102.88c-.18.34-.33-.18-.37-.36-.06.06-.06.22-.18.19.08-.63.28.12.55.17Z" fill="#ffffff" fill-rule="evenodd"/>
                <path d="M46.66 92.63c0-.12.23-.26.34-.14s-.22.05-.34.14Z" fill="#ffffff" fill-rule="evenodd"/>
                <path d="M47.13 95c.16-.07-.17.31 0 .41-.2-.12-.27.1-.34.19-.25-.09-.06-.23-.08-.41.18.24.29-.04.42-.19Z" fill="#ffffff" fill-rule="evenodd"/>
                <path d="M27 97.53c.11 0 .2.07.21.23h-.25a.34.34 0 0 0 .04-.23Z" fill="#ffffff" fill-rule="evenodd"/>
                <path d="M23.22 93.38c.13.06 0 .39 0 .6-.1 0 0-.26-.11-.18.14-.12.07-.2.11-.42Z" fill="#ffffff" fill-rule="evenodd"/>
                <path d="M28 100.33a.86.86 0 0 1-.51.14c-.06-.22.34-.25.51-.14Z" fill="#ffffff" fill-rule="evenodd"/>
                <path d="M26 100.63a.2.2 0 0 1 .11.18c-.08.11-.14 0-.25 0-.02-.23.14-.01.14-.18Z" fill="#ffffff" fill-rule="evenodd"/>
                <path d="M26 103.6c.08 0 0 .22 0 .31-.11-.03 0-.18 0-.31Z" fill="#ffffff" fill-rule="evenodd"/>
                <path d="M33.61 99.47c0 .24-.67.09-.6-.12.31-.05.33.14.6.12Z" fill="#ffffff" fill-rule="evenodd"/>
                <path d="M23.53 108.62c-.15.17-.07.45-.06.74-.11-.17-.22-.65.06-.74Z" fill="#ffffff" fill-rule="evenodd"/>
                <path d="M25.87 106c.05-.14.15 0 .11.18s.02-.18-.11-.18Z" fill="#ffffff" fill-rule="evenodd"/>
                <path d="M25.9 108.44c.07-.11 0 .33 0 .45-.07-.12.03-.22 0-.45Z" fill="#ffffff" fill-rule="evenodd"/>
                <path d="M24.34 109v.19c-.14.04-.14-.19 0-.19Z" fill="#ffffff" fill-rule="evenodd"/>
                <path d="M24.42 109.92c.2.09 0 .32 0 .51a.81.81 0 0 1 0-.51Z" fill="#ffffff" fill-rule="evenodd"/>
                <path d="M30.52 98.94c.11.06.1.31.08.41-.07-.09-.05-.28-.08-.41Z" fill="#ffffff" fill-rule="evenodd"/>
                <path d="M30.53 99.63c.12 0 0 .4.08.59-.11-.08-.09-.51-.08-.59Z" fill="#ffffff" fill-rule="evenodd"/>
                <path d="M30.26 100.77c.12 0 .1.27.11.46-.09 0-.06-.31-.15-.14-.09-.09.05-.2.04-.32Z" fill="#ffffff" fill-rule="evenodd"/>
                <path d="M30.41 101.59c-.07.09-.07 0-.14 0s0-.25.1-.23a.2.2 0 0 0 0 .14s.05 0 .04.09Z" fill="#ffffff" fill-rule="evenodd"/>
                <path d="M31.71 97.28c-.23.2-.53-.21-.85 0 .14-.28.71-.18.85 0Z" fill="#ffffff" fill-rule="evenodd"/>
                <path d="M27.55 106.61a19.48 19.48 0 0 1-3.58 0c1.19-.72 2.41.22 3.58 0Z" fill="#ffffff" fill-rule="evenodd"/>
                <path d="M30.09 105.67c-.09.09-1-.1-1.19.09-.24-.23 1.01-.17 1.19-.09Z" fill="#ffffff" fill-rule="evenodd"/>
                <path d="M31.83 97.73c0-.16.12-.11.1-.28.08 0 0 .29-.07.23s.05.1.11.09c-.04.23-.11.04-.14-.04Z" fill="#ffffff" fill-rule="evenodd"/>
                <path d="M27.19 108.06c-.14.1-.32-.24-.4-.5.12-.14.21.44.4.5Z" fill="#ffffff" fill-rule="evenodd"/>
                <path d="M24.06 108.42c0 .39-.12-.28-.15.11v-.28a.9.9 0 0 0 .15.17Z" fill="#ffffff" fill-rule="evenodd"/>
                <path d="M27 108.87c0 .15-.08 0-.12 0a1 1 0 0 0 0-.35c.12.11.12.29.12.35Z" fill="#ffffff" fill-rule="evenodd"/>
                <path d="M23.94 106.37c0 .16-.11.32-.12.11s.07-.14.12-.11Z" fill="#ffffff" fill-rule="evenodd"/>
                <path d="M26.65 108.8c-.07.14-.25.31-.29.08s.09 0 .07-.27c.02.17.12.18.22.19Z" fill="#ffffff" fill-rule="evenodd"/>
                <path d="M26 108.53c0 .37-.45.23-.34-.21v.21c.12-.12.24.18.34 0Z" fill="#ffffff" fill-rule="evenodd"/>
                <path d="M23.85 108.38a1.42 1.42 0 0 1 0 .27c0-.05 0-.49-.13-.31-.06-.08.06-.1.06-.19-.01.08 0 .23.07.23Z" fill="#ffffff" fill-rule="evenodd"/>
                <path d="M26.87 108.7c-.05.28-.15 0-.21-.11a.87.87 0 0 0 0-.21c-.1.15-.06-.16-.13-.23s0 .13-.05.13-.1-.08-.08-.3c.11.14.1.11.23 0v.21c.06 0 .09 0 .11.09 0-.18 0-.25.05-.34s-.11 0-.06-.22c0 .07.08.16.13.23-.11.07-.06.23-.06.48 0-.14 0 0-.11 0 0 .3.1.24.18.27Z" fill="#ffffff" fill-rule="evenodd"/>
                <path d="M23.69 108.63c-.05-.1-.06-.17-.13-.1a.37.37 0 0 0 0-.22s.14.08.13.32Z" fill="#ffffff" fill-rule="evenodd"/>
                <path d="M26.44 108.33c-.08.24-.11-.16-.12-.3 0 0 0 .15-.08.12.08-.46.12.12.2.18Z" fill="#ffffff" fill-rule="evenodd"/>
                <path d="M28.05 97.32a1.27 1.27 0 0 1-.21.82c-.09-.2.16-.5.21-.82Z" fill="#ffffff" fill-rule="evenodd"/>
                <path d="M29.76 97.33c.21 0-.12.27.08.27 0 .07-.09 0-.15.05.04-.17.05-.2.07-.32Z" fill="#ffffff" fill-rule="evenodd"/>
                <path d="M28.48 97.54c.07 0 0 .16 0 .23s-.07 0-.18 0 .15-.12.18-.23Z" fill="#ffffff" fill-rule="evenodd"/>
                <path d="M28.73 97.81c.09 0 .18.18.07.22s-.07-.11-.07-.22Z" fill="#ffffff" fill-rule="evenodd"/>
                <path d="M28.49 98.27c.08.13.19.44.07.55-.07-.08 0-.17-.14-.09.08-.08.07-.27.07-.46Z" fill="#ffffff" fill-rule="evenodd"/>
                <path d="M28.43 99.55c.19-.08.17.83-.06.68h.1c-.07-.23.07-.49-.04-.68Z" fill="#ffffff" fill-rule="evenodd"/>
                <path d="M37 101.2c0 .16-.42 0-.59.08.03-.17.29-.15.59-.08Z" fill="#ffffff" fill-rule="evenodd"/>
                <path d="M30.82 101.57c-.07.15-.21.24-.51.21.05-.16.32-.15.51-.21Z" fill="#ffffff" fill-rule="evenodd"/>
                <path d="M25.62 101.86c-.11.24-.73 0-1.11 0 0-.17.48.06.34-.2.22.25.37.13.77.2Z" fill="#ffffff" fill-rule="evenodd"/>
                <path d="M29.76 97.74h.15c.05 0-.25.09-.14.28s-.06-.1-.11-.09.12-.06.1-.19Z" fill="#ffffff" fill-rule="evenodd"/>
                <path d="M28.41 97.86c.15.06 0 .3 0 .41a.14.14 0 0 0-.11 0c.09.18-.08.12-.1.27s.07 0 .07.09 0 .21-.14.19a.66.66 0 0 0 0-.46h.11a.38.38 0 0 1 0-.23c-.09 0-.12.06-.18 0s0 .21-.1.14c0-.1.07-.18.1-.28.05.2.12.09.25 0-.06.09 0 .12 0 .23s.1-.22.1-.36Z" fill="#ffffff" fill-rule="evenodd"/>
                <path d="M29.91 98c0 .12-.08.14 0 .28s-.09 0-.11.09-.01-.37.11-.37Z" fill="#ffffff" fill-rule="evenodd"/>
                <path d="M28.28 98.73c.13.13-.07.24-.14.28s.08 0 .07.13c-.21-.14.05-.25.07-.41Z" fill="#ffffff" fill-rule="evenodd"/>
                <path d="M22.78 110.73c.09 0 0 .28 0 .43s0-.19-.08-.13c.1-.09.05-.14.08-.3Z" fill="#ffffff" fill-rule="evenodd"/>
                <path d="M34.39 95.94c.11 0 .21.07.22.23h-.25a.5.5 0 0 0 .03-.23Z" fill="#ffffff" fill-rule="evenodd"/>
                <path d="M30.6 91.79c.14.06 0 .39 0 .6-.09 0 0-.26-.11-.19.14-.11.08-.2.11-.41Z" fill="#ffffff" fill-rule="evenodd"/>
                <path d="M33.37 99c.05 0 .11.06.11.18s-.14 0-.25 0c-.01-.18.12.03.14-.18Z" fill="#ffffff" fill-rule="evenodd"/>
                <path d="M30.88 102.75c0 .15-.42 0-.6.08.07-.25.34-.05.6-.08Z" fill="#ffffff" fill-rule="evenodd"/>
                <path d="M29.08 95.1c.13 0 .05.36-.06.32s.07-.18.06-.32Z" fill="#ffffff" fill-rule="evenodd"/>
                <path d="M33.08 99.83c-.32-.28-.83-.12-1.37-.11.29-.2 1.2-.4 1.37.11Z" fill="#ffffff" fill-rule="evenodd"/>
                <path d="M26.35 102.56c.26.09-.09.27-.33.21-.15-.26.36-.03.33-.21Z" fill="#ffffff" fill-rule="evenodd"/>
                <path d="M30.66 102.21c0 .3-.56.3-.84.21.18-.26.59.03.84-.21Z" fill="#ffffff" fill-rule="evenodd"/>
                <path d="M30.37 100.54c-.05.07-.24.11-.08.14-.09.17-.38-.05-.35-.2a.62.62 0 0 1 .34-.07c-.01.08.02.12.09.13Z" fill="#ffffff" fill-rule="evenodd"/>
                <path d="M29 103c.26.09-.49.1-.51 0s0-.06.08-.06.08 0 .08-.07.06.25.35.13Z" fill="#ffffff" fill-rule="evenodd"/>
                <path d="M27.94 109.73c.19.13-.62 0-.85.08.22-.21.42-.03.85-.08Z" fill="#ffffff" fill-rule="evenodd"/>
                <path d="M26.85 106.81h-.34c-.08-.25.4-.26.34 0Z" fill="#ffffff" fill-rule="evenodd"/>
                <path d="M27 102.93c-.14.09-.22.23-.51.21 0-.18-.27-.14-.26-.33a.81.81 0 0 0 .77.12Z" fill="#ffffff" fill-rule="evenodd"/>
                <path d="M28.05 99.57c-.18-.26.46-.59.93-.74.26.17-.73.45-.93.74Z" fill="#ffffff" fill-rule="evenodd"/>
                <path d="M28 106.28c-.74-.08.51-.23-.21-.28h.53a2.58 2.58 0 0 0-.32.28Z" fill="#ffffff" fill-rule="evenodd"/>
                <path d="M26.54 99.27c-.28 0 0-.16-.09-.23a2 2 0 0 0 .65 0c-.1.14-.45.13-.56.23Z" fill="#ffffff" fill-rule="evenodd"/>
                <path d="M25.68 99c-.31-.07-.6-.21-.21-.24q.27.03.21.24Z" fill="#ffffff" fill-rule="evenodd"/>
                <path d="M26.68 98.57c-.27-.14-.59-.46-.16-.54.25.1 0 .17.5.12-.32.06-.33.24-.34.42Z" fill="#ffffff" fill-rule="evenodd"/>
                <path d="M27.17 97.37c-.7 0-.43-.84.39-.64h-.39c.23.21-.34.43 0 .64Z" fill="#ffffff" fill-rule="evenodd"/>
                <path d="M28 105.89a2.48 2.48 0 0 1-.5-.07c.09-.1.91 0 .56-.24.16-.12.2.11.38.11-.13.06-.44.07-.44.2Z" fill="#ffffff" fill-rule="evenodd"/>
                <path d="M26.86 99c-.53-.09.08-.28.2-.39a1.52 1.52 0 0 0 .38.07c-.27-.19.32-.1.44-.24s-.25 0-.24-.1.15-.19.55-.15c-.26.21-.21.19-.08.44h-.39c0 .1 0 .16-.17.21.33 0 .46 0 .63.08s0-.21.42-.11l-.44.24c-.13-.2-.42-.11-.9-.1.26-.07 0-.11 0-.21-.47-.1-.36.1-.4.26Z" fill="#ffffff" fill-rule="evenodd"/>
                <path d="M27.57 105.6c.19-.11.31-.12.18-.26a.56.56 0 0 0 .4-.06.55.55 0 0 1-.58.32Z" fill="#ffffff" fill-rule="evenodd"/>
                <path d="M27.54 98.18c-.44-.16.3-.22.57-.23-.08 0-.29-.06-.24-.15.87.2-.22.2-.33.38Z" fill="#ffffff" fill-rule="evenodd"/>
                <path d="M35.43 95.73a1.21 1.21 0 0 1-.21.82c-.08-.2.17-.5.21-.82Z" fill="#ffffff" fill-rule="evenodd"/>
                <path d="M35.79 96.27c.15.06 0 .29 0 .41a.14.14 0 0 0-.11-.05c.09.18-.07.13-.1.28s.07 0 .07.09 0 .2-.14.19a.66.66 0 0 0 0-.46h.1a.37.37 0 0 1 0-.23c-.09 0-.13.06-.18 0s0 .2-.11.14c0-.1.07-.19.11-.28.05.2.12.08.25 0-.07.09 0 .12 0 .23s.11-.18.11-.32Z" fill="#ffffff" fill-rule="evenodd"/>
                <path d="M35.66 97.14c.13.13-.07.24-.14.27s.08 0 .07.14c-.24-.1.05-.25.07-.41Z" fill="#ffffff" fill-rule="evenodd"/>
                <path d="M28.94 93.92c.08 0 0 .2.08.23a.37.37 0 0 0 .07-.14c.1.08 0 .25-.14.19s-.07-.2-.01-.28Z" fill="#ffffff" fill-rule="evenodd"/>
                <path d="M28.9 93.33c0-.11.12-.26.18-.14s-.08.05-.18.14Z" fill="#ffffff" fill-rule="evenodd"/>
                <path d="M29.14 95.75c.09-.07-.09.3 0 .41-.1-.12-.14.09-.18.18-.13-.08 0-.23 0-.41.04.21.13-.08.18-.18Z" fill="#ffffff" fill-rule="evenodd"/>
                <path d="M30.92 101.08c0 .19-.29.15-.34.28s.06-.36.34-.28Z" fill="#ffffff" fill-rule="evenodd"/>
                <path d="M40.52 113.46c.17-.18.07.57.11.77-.29-.23-.04-.38-.11-.77Z" fill="#ffffff" fill-rule="evenodd"/>
                <path d="M39.5 118.26c.07-.06.11-.16.25-.15s.13.11.13.24a.3.3 0 0 0-.38-.09Z" fill="#ffffff" fill-rule="evenodd"/>
                <path d="M45.54 117.6a.41.41 0 0 0-.41-.25c-.05.45.28.16.41.25Z" fill="#ffffff" fill-rule="evenodd"/>
                <path d="M44.78 116.15c.27-.22-.4-.48-.3 0 .15.15.25-.35.3 0Z" fill="#ffffff" fill-rule="evenodd"/>
                <path d="M44.36 116.14c0-.3-.51-.44-.47 0 .18-.14.21.05.47 0Z" fill="#ffffff" fill-rule="evenodd"/>
                <path d="M43.71 112.68a.19.19 0 0 0-.13.18c.2.02.23-.13.13-.18Z" fill="#ffffff" fill-rule="evenodd"/>
                <path d="M41.7 115.59c0-.13-.12-.08-.12-.24-.11.34-.14.27-.29.35.09.3.35.02.41-.11Z" fill="#ffffff" fill-rule="evenodd"/>
                <path d="M43.48 116.12a.4.4 0 0 0-.54-.25c.12.2.37.13.54.25Z" fill="#ffffff" fill-rule="evenodd"/>
                <path d="M41.71 112.86c-.1-.23-.41-.06-.41-.49-.17.27.3.75.41.49Z" fill="#ffffff" fill-rule="evenodd"/>
                <path d="M42.92 118.52c.12 0 0 .27.06.39-.26 0-.33-.35-.39-.69a3.35 3.35 0 0 1 .33.3Z" fill="#ffffff" fill-rule="evenodd"/>
                <path d="M39.88 113.48c-.32-.54-.83-.23-1.37-.22.31-.39 1.2-.77 1.37.22Z" fill="#ffffff" fill-rule="evenodd"/>
                <path d="M46.27 117v.18c-.27.07-.27-.18 0-.18Z" fill="#ffffff" fill-rule="evenodd"/>
                <path d="M46.43 117.94c.38.08-.09.31 0 .5-.12-.07-.09-.44 0-.5Z" fill="#ffffff" fill-rule="evenodd"/>
                <path d="M46.15 113.12c-.27.1-.61-.25-.76-.5.22-.14.46.38.76.5Z" fill="#ffffff" fill-rule="evenodd"/>
                <path d="M45.73 116.44c-.09.39-.24-.28-.29.11-.06 0 0-.18 0-.29Z" fill="#ffffff" fill-rule="evenodd"/>
                <path d="M45.83 113.93c0 .15-.16 0-.23 0a.57.57 0 0 0 0-.34c.14.09.13.28.23.34Z" fill="#ffffff" fill-rule="evenodd"/>
                <path d="M45.51 114.38c-.07.17-.22.33-.24.12a.2.2 0 0 1 .24-.12Z" fill="#ffffff" fill-rule="evenodd"/>
                <path d="M45.11 113.85c-.14.14-.47.31-.55.08.09-.13.17 0 .12-.26.05.17.24.17.43.18Z" fill="#ffffff" fill-rule="evenodd"/>
                <path d="M43.87 113.58c0 .38-.87.23-.66-.21v.22c.21-.13.45.18.66-.01Z" fill="#ffffff" fill-rule="evenodd"/>
                <path d="M45.32 116.39a.58.58 0 0 1-.08.27c-.1 0 0-.48-.24-.3-.13-.08.12-.1.12-.2.06.09.07.24.2.23Z" fill="#ffffff" fill-rule="evenodd"/>
                <path d="M45.53 113.75c-.09.29-.29 0-.39-.11a.42.42 0 0 0 .07-.2c-.2.15-.11-.17-.25-.24s-.05.14-.11.13-.19-.08-.14-.29c.21.14.19.11.45 0v.2a.22.22 0 0 1 .22.1c0-.18 0-.25.08-.35s-.21 0-.11-.22l.25.24c-.21.07-.11.22-.1.48-.07-.14-.11 0-.23 0-.09.3.12.24.26.26Z" fill="#ffffff" fill-rule="evenodd"/>
                <path d="M45 116.64c-.11-.1-.12-.16-.26-.1 0-.11 0-.18-.07-.21s.33.08.33.31Z" fill="#ffffff" fill-rule="evenodd"/>
                <path d="M44.71 113.39c-.16.23-.22-.16-.24-.31 0 0-.06.16-.15.13.16-.46.24.12.39.18Z" fill="#ffffff" fill-rule="evenodd"/>
                <path d="M44.37 118.09c-.35.18-.85-.21-1.1-.52.27-.22.73.43 1.1.52Z" fill="#ffffff" fill-rule="evenodd"/>
                <path d="M43.92 111.3c.28 0-.18.19.1.19 0 .05-.12 0-.2 0a1.78 1.78 0 0 0 .1-.19Z" fill="#ffffff" fill-rule="evenodd"/>
                <path d="M44.08 119.21c0 .2-.21.05-.3.1a.9.9 0 0 0 0-.46c.14.06.16.3.3.36Z" fill="#ffffff" fill-rule="evenodd"/>
                <path d="M43.73 119.86c-.06.23-.24.46-.3.19a.28.28 0 0 1 .3-.19Z" fill="#ffffff" fill-rule="evenodd"/>
                <path d="M43.11 119.23c-.17.22-.58.5-.73.21.11-.19.23 0 .12-.37.1.21.36.19.61.16Z" fill="#ffffff" fill-rule="evenodd"/>
                <path d="M41.41 119.1c.11.49-1.11.45-.92-.16.07 0 .06.16.07.27.24-.21.6.17.85-.11Z" fill="#ffffff" fill-rule="evenodd"/>
                <path d="M43 119c.18 0 0 .28 0 .42-.13 0 0-.18-.15-.12.15-.14.06-.2.15-.3Z" fill="#ffffff" fill-rule="evenodd"/>
                <path d="M43.92 111.59h.2c.07 0-.34.06-.19.2 0 .1-.08-.07-.15-.07s.16-.04.14-.13Z" fill="#ffffff" fill-rule="evenodd"/>
                <path d="M43.66 119c-.08.38-.4 0-.55-.08a.56.56 0 0 0 0-.28c-.23.23-.16-.2-.36-.27s0 .19-.12.19-.28-.07-.25-.36c.31.15.28.11.61 0v.28a.32.32 0 0 1 .31.08c0-.23-.09-.32 0-.46s-.28.06-.19-.27c.13.08.25.18.37.27-.26.13-.11.31 0 .64-.12-.17-.15 0-.3 0 .01.4.28.26.48.26Z" fill="#ffffff" fill-rule="evenodd"/>
                <path d="M44.12 111.78c-.06.09-.1.1 0 .2s-.13 0-.15.07.03-.26.15-.27Z" fill="#ffffff" fill-rule="evenodd"/>
                <path d="M42.5 118.7c-.18.33-.33-.18-.37-.36-.06.06-.06.21-.18.19.13-.63.33.11.55.17Z" fill="#ffffff" fill-rule="evenodd"/>
                <path d="M42.52 116.14a.79.79 0 0 1-.51.15c-.01-.22.37-.29.51-.15Z" fill="#ffffff" fill-rule="evenodd"/>
                <path d="M46.26 113.1c-.23.19-.53-.21-.85 0 .1-.31.71-.19.85 0Z" fill="#ffffff" fill-rule="evenodd"/>
                <path d="M45.43 118.57c0 .15-.42 0-.6.08.07-.25.34-.05.6-.08Z" fill="#ffffff" fill-rule="evenodd"/>
                <path d="M43.63 110.92c.13 0 0 .36-.06.32s.07-.18.06-.32Z" fill="#ffffff" fill-rule="evenodd"/>
                <path d="M40.9 118.38c.26.09-.09.27-.34.21-.14-.27.37-.03.34-.21Z" fill="#ffffff" fill-rule="evenodd"/>
                <path d="M42.6 115.39c-.18-.26.46-.59.93-.74.26.21-.73.45-.93.74Z" fill="#ffffff" fill-rule="evenodd"/>
                <path d="M41.09 115.09c-.28 0 0-.16-.09-.23a2 2 0 0 0 .65 0c-.11.14-.45.14-.56.23Z" fill="#ffffff" fill-rule="evenodd"/>
                <path d="M40.23 114.78c-.31-.07-.6-.21-.21-.24q.27.08.21.24Z" fill="#ffffff" fill-rule="evenodd"/>
                <path d="M41.23 114.39c-.27-.14-.59-.46-.16-.54.25.1 0 .17.5.12-.32.03-.33.24-.34.42Z" fill="#ffffff" fill-rule="evenodd"/>
                <path d="M41.72 113.19c-.7 0-.43-.84.39-.64h-.39c.22.21-.34.45 0 .64Z" fill="#ffffff" fill-rule="evenodd"/>
                <path d="M41.41 114.8c-.53-.09.08-.28.2-.39a1.52 1.52 0 0 0 .38.07c-.27-.19.32-.1.44-.24s-.25 0-.24-.1.15-.19.55-.15c-.26.21-.21.19-.08.44h-.39c0 .11-.06.17-.17.22.33 0 .46 0 .63.07s0-.2.42-.1c-.14.08-.3.15-.44.24-.13-.21-.42-.11-.9-.1.26-.07 0-.11 0-.22-.47-.08-.36.12-.4.26Z" fill="#ffffff" fill-rule="evenodd"/>
                <path d="M42.09 114c-.44-.16.3-.22.57-.23-.08 0-.29-.07-.24-.15.87.15-.22.23-.33.38Z" fill="#ffffff" fill-rule="evenodd"/>
                <path d="M45.47 116.9c0 .19-.29.14-.34.28s.06-.33.34-.28Z" fill="#ffffff" fill-rule="evenodd"/>
                <path d="M51.4 94c.35-.35.14 1.16.22 1.58-.57-.45-.08-.82-.22-1.58Z" fill="#ffffff" fill-rule="evenodd"/>
                <path d="M49.35 103.7c.14-.12.21-.33.5-.3 0 .26.27.21.26.49a.6.6 0 0 0-.76-.19Z" fill="#ffffff" fill-rule="evenodd"/>
                <path d="M61.58 102.36a.8.8 0 0 0-.83-.5c-.1.91.56.32.83.5Z" fill="#ffffff" fill-rule="evenodd"/>
                <path d="M60 99.43c.55-.45-.81-1-.61 0 .34.3.55-.71.61 0Z" fill="#ffffff" fill-rule="evenodd"/>
                <path d="M59.2 99.4c0-.6-1-.89-1 0 .4-.34.47.11 1 0Z" fill="#ffffff" fill-rule="evenodd"/>
                <path d="M57.87 92.38a.43.43 0 0 0-.27.38c.4.02.48-.27.27-.38Z" fill="#ffffff" fill-rule="evenodd"/>
                <path d="M53.8 98.29c0-.26-.24-.17-.24-.48-.22.68-.3.53-.6.7.18.67.72.05.84-.22Z" fill="#ffffff" fill-rule="evenodd"/>
                <path d="M57.4 99.36a.82.82 0 0 0-1.08-.52c.23.42.75.29 1.08.52Z" fill="#ffffff" fill-rule="evenodd"/>
                <path d="M53.82 92.75c-.21-.47-.83-.12-.84-1-.33.56.61 1.53.84 1Z" fill="#ffffff" fill-rule="evenodd"/>
                <path d="M56.27 104.22c.24 0 .06.56.12.79-.53-.06-.67-.71-.78-1.4Z" fill="#ffffff" fill-rule="evenodd"/>
                <path d="M50.11 94c-.64-1.09-1.67-.46-2.77-.45.66-.78 2.43-1.55 2.77.45Z" fill="#ffffff" fill-rule="evenodd"/>
                <path d="M63.06 101.2v.37c-.53.08-.55-.43 0-.37Z" fill="#ffffff" fill-rule="evenodd"/>
                <path d="M63.38 103.05c.78.17-.18.63 0 1-.25-.14-.18-.84 0-1Z" fill="#ffffff" fill-rule="evenodd"/>
                <path d="M62.82 93.28c-.55.19-1.24-.5-1.54-1 .44-.28.92.78 1.54 1Z" fill="#ffffff" fill-rule="evenodd"/>
                <path d="M62 100c-.17.8-.47-.56-.58.22-.12 0 0-.36 0-.57a4.88 4.88 0 0 0 .58.35Z" fill="#ffffff" fill-rule="evenodd"/>
                <path d="M62.17 94.91c0 .31-.33 0-.47.1a1.41 1.41 0 0 0 .08-.7c.22.11.22.49.39.6Z" fill="#ffffff" fill-rule="evenodd"/>
                <path d="M61.51 95.84c-.13.34-.45.65-.49.23a.4.4 0 0 1 .49-.23Z" fill="#ffffff" fill-rule="evenodd"/>
                <path d="M60.71 94.76c-.29.29-1 .64-1.13.17.2-.27.35 0 .25-.54.11.34.5.36.88.37Z" fill="#ffffff" fill-rule="evenodd"/>
                <path d="M58.19 94.22c.07.76-1.75.47-1.34-.43.11 0 0 .27 0 .43.44-.22.91.37 1.34 0Z" fill="#ffffff" fill-rule="evenodd"/>
                <path d="M61.13 99.91c0 .3-.1.37-.15.55-.2-.1-.06-1-.49-.61-.26-.17.23-.21.23-.41.13.18.14.48.41.47Z" fill="#ffffff" fill-rule="evenodd"/>
                <path d="M61.57 94.57c-.2.57-.59-.1-.81-.23a1 1 0 0 0 .14-.41c-.4.3-.21-.34-.5-.48-.1 0-.09.28-.21.26-.3 0-.4-.16-.3-.59.44.28.39.22.91.09v.42a.44.44 0 0 1 .44.19c0-.37-.06-.5.17-.69s-.42 0-.22-.45c.17.15.33.32.5.48-.43.14-.23.45-.21 1-.14-.28-.23 0-.45 0-.18.47.25.36.54.41Z" fill="#ffffff" fill-rule="evenodd"/>
                <path d="M60.52 100.42c-.22-.21-.24-.34-.53-.2 0-.24 0-.37-.14-.44s.72.22.67.64Z" fill="#ffffff" fill-rule="evenodd"/>
                <path d="M59.9 93.83c-.34.47-.45-.33-.49-.62-.1.08-.13.31-.3.25.32-.93.48.24.79.37Z" fill="#ffffff" fill-rule="evenodd"/>
                <path d="M59.21 103.36c-.71.35-1.73-.44-2.23-1.06.54-.45 1.37.88 2.23 1.06Z" fill="#ffffff" fill-rule="evenodd"/>
                <path d="M58.29 89.59c.57 0-.35.38.21.39 0 .09-.25.06-.4.07.11-.24.13-.3.19-.46Z" fill="#ffffff" fill-rule="evenodd"/>
                <path d="M58.63 105.61c0 .41-.44.1-.61.21a1.73 1.73 0 0 0 0-.93c.27.11.32.61.61.72Z" fill="#ffffff" fill-rule="evenodd"/>
                <path d="M57.91 106.94c-.12.47-.48.94-.61.39a.55.55 0 0 1 .61-.39Z" fill="#ffffff" fill-rule="evenodd"/>
                <path d="M56.66 105.67c-.34.43-1.18 1-1.48.41.22-.38.46-.06.24-.75.21.43.72.39 1.24.34Z" fill="#ffffff" fill-rule="evenodd"/>
                <path d="M53.2 105.39c.22 1-2.25.92-1.85-.32.14 0 .11.34.13.56.52-.4 1.22.37 1.72-.24Z" fill="#ffffff" fill-rule="evenodd"/>
                <path d="M56.36 105.1c.36.08 0 .56 0 .85-.27 0 .08-.37-.31-.26.38-.17.2-.28.31-.59Z" fill="#ffffff" fill-rule="evenodd"/>
                <path d="M58.3 90.18a.89.89 0 0 1 .4.06c-.05.15-.69.13-.39.4-.09.21-.17-.14-.3-.13.11-.1.32-.14.29-.33Z" fill="#ffffff" fill-rule="evenodd"/>
                <path d="M57.76 105.27c-.16.78-.8 0-1.11-.16a1.24 1.24 0 0 0 .11-.56c-.48.46-.33-.41-.74-.54-.14 0-.08.37-.24.38-.39.1-.56-.15-.51-.73.64.29.56.23 1.23 0v.56a.59.59 0 0 1 .62.17c-.07-.48-.17-.65.11-.93 0-.45-.56.11-.38-.56.26.18.5.37.75.54-.54.27-.22.64-.1 1.31-.24-.34-.31 0-.62 0-.06.73.49.5.88.52Z" fill="#ffffff" fill-rule="evenodd"/>
                <path d="M58.71 90.57c-.12.17-.21.2-.09.4-.17 0-.26 0-.3.13s.06-.52.39-.53Z" fill="#ffffff" fill-rule="evenodd"/>
                <path d="M55.41 104.58c-.36.68-.66-.35-.75-.72-.12.12-.12.43-.37.38.27-1.24.71.23 1.12.34Z" fill="#ffffff" fill-rule="evenodd"/>
                <path d="M55.46 99.41a1.71 1.71 0 0 1-1 .29c-.09-.44.71-.51 1-.29Z" fill="#ffffff" fill-rule="evenodd"/>
                <path d="M63.05 93.24c-.48.39-1.09-.42-1.73 0 .2-.63 1.43-.38 1.73 0Z" fill="#ffffff" fill-rule="evenodd"/>
                <path d="M61.35 104.33c-.07.3-.85.07-1.2.16.14-.49.69-.11 1.2-.16Z" fill="#ffffff" fill-rule="evenodd"/>
                <path d="M57.71 88.82c.26-.06.1.73-.13.65-.05-.34.15-.36.13-.65Z" fill="#ffffff" fill-rule="evenodd"/>
                <path d="M52.18 103.94c.51.19-.19.55-.68.41-.29-.52.74-.05.68-.41Z" fill="#ffffff" fill-rule="evenodd"/>
                <path d="M55.61 97.88c-.36-.53.93-1.2 1.89-1.5.5.43-1.5.9-1.89 1.5Z" fill="#ffffff" fill-rule="evenodd"/>
                <path d="M52.56 97.27c-.57 0-.06-.32-.18-.46a4.39 4.39 0 0 0 1.31.07c-.22.2-.92.19-1.13.39Z" fill="#ffffff" fill-rule="evenodd"/>
                <path d="M50.83 96.64c-.64-.13-1.23-.43-.44-.48.37.1.52.26.44.48Z" fill="#ffffff" fill-rule="evenodd"/>
                <path d="M52.83 95.86c-.54-.29-1.19-.93-.31-1.09.5.18 0 .33 1 .23-.63.11-.66.49-.69.86Z" fill="#ffffff" fill-rule="evenodd"/>
                <path d="M53.84 93.41c-1.42.07-.88-1.68.79-1.29-.06.1-.49 0-.8 0 .46.42-.69.88.01 1.29Z" fill="#ffffff" fill-rule="evenodd"/>
                <path d="M53.2 96.68c-1.06-.18.18-.57.42-.78a3 3 0 0 0 .77.13c-.56-.38.63-.2.89-.48-.05-.1-.51-.09-.49-.21-.07-.28.31-.38 1.12-.29-.53.42-.42.38-.17.88l-.74-.05c0 .21-.11.34-.35.43.68 0 .94-.07 1.29.16.63.07-.06-.41.84-.22-.28.17-.6.32-.89.49-.27-.41-.85-.22-1.82-.19.53-.14.08-.22.09-.44-1.08-.11-.87.29-.96.57Z" fill="#ffffff" fill-rule="evenodd"/>
                <path d="M54.58 95.06c-.89-.32.62-.44 1.16-.47-.16-.1-.59-.12-.48-.29 1.74.3-.45.46-.68.76Z" fill="#ffffff" fill-rule="evenodd"/>
                <path d="M61.44 100.94c.06.38-.59.29-.69.56s.12-.66.69-.56Z" fill="#ffffff" fill-rule="evenodd"/>
                <path d="M29.76 98.64c0 .13-.23.11-.29.19s.14-.19.29-.19Z" fill="#ffffff" fill-rule="evenodd"/>
                <path d="M36.18 99.09c.12 0-.09.09 0 .16a.18.18 0 0 1-.15-.16c.04.03.11.11.15 0Z" fill="#ffffff" fill-rule="evenodd"/>
                <path d="M29.29 99.65a.28.28 0 0 1-.19.29c.08-.15.05-.18.19-.29Z" fill="#ffffff" fill-rule="evenodd"/>
                <path d="M28.8 99.75c.17.07-.08.14-.09.2-.09.23-.01-.17.09-.2Z" fill="#ffffff" fill-rule="evenodd"/>
            </g>
        </g>
    </g>
</svg>
