<?xml version="1.0" encoding="UTF-8"?>
<svg data-bbox="0 -0.03 92.53 125.956" viewBox="0 0 92.53 125.93" xmlns:xlink="http://www.w3.org/1999/xlink" xmlns="http://www.w3.org/2000/svg" data-type="ugc">
    <g>
        <defs>
            <linearGradient gradientUnits="userSpaceOnUse" gradientTransform="translate(-599.66)" y2="86.35" x2="650.62" y1="125.93" x1="650.62" id="50d33943-4b0b-4908-808f-101581a63bcc">
                <stop stop-color="#7e6677" offset="0"/>
                <stop stop-color="#c6c5d0" offset="1"/>
            </linearGradient>
            <linearGradient gradientUnits="userSpaceOnUse" gradientTransform="translate(-599.66)" y2="99.05" x2="673.5" y1="99.05" x1="627.74" id="75ee5be4-9685-4ba7-8697-40b7cc064d4a">
                <stop stop-color="#a3450b" offset="0"/>
                <stop offset="1"/>
            </linearGradient>
            <linearGradient gradientUnits="userSpaceOnUse" gradientTransform="matrix(-1 0 0 1 92.53 0)" y2="86.53" x2="59.2" y1="86.53" x1="24.16" id="2985e523-2851-4236-9fa0-51ac0f2018d8">
                <stop stop-color="#7d3a31" offset="0"/>
                <stop stop-color="#602736" offset="1"/>
            </linearGradient>
            <linearGradient gradientUnits="userSpaceOnUse" gradientTransform="rotate(35.9 -27.168 -969.522)" y2="-205.21" x2="626.31" y1="-154" x1="626.31" id="ead48f95-a495-4404-a947-ef4e4a622a2b">
                <stop stop-color="#8a8706" offset="0"/>
                <stop stop-color="#545c1e" offset="1"/>
            </linearGradient>
            <linearGradient gradientUnits="userSpaceOnUse" gradientTransform="rotate(35.9 -27.168 -969.522)" y2="-205.21" x2="626.2" y1="-154" x1="626.2" id="2c417075-cf35-4478-87e1-2a484d44179b">
                <stop stop-color="#385200" offset="0"/>
                <stop stop-color="#454819" offset="1"/>
            </linearGradient>
            <linearGradient xlink:href="#2c417075-cf35-4478-87e1-2a484d44179b" y2="-205.2" x2="628.14" y1="-154.01" x1="628.14" id="f81deafd-be7b-46cc-ac1e-cb8c35769cad"/>
            <linearGradient xlink:href="#2c417075-cf35-4478-87e1-2a484d44179b" y2="-184.46" x2="619.98" y1="-172.47" x1="619.98" id="e9059141-dea7-4a4c-9531-1c0a9a153051"/>
            <linearGradient xlink:href="#2c417075-cf35-4478-87e1-2a484d44179b" y2="-190.6" x2="628.88" y1="-176.82" x1="628.88" id="c8781156-b222-42a2-8c78-3ff73401cae7"/>
            <linearGradient xlink:href="#2c417075-cf35-4478-87e1-2a484d44179b" y2="-202.52" x2="631.75" y1="-189.86" x1="631.75" id="27775903-7bf3-4b84-a55c-506bca232c0d"/>
            <linearGradient xlink:href="#2c417075-cf35-4478-87e1-2a484d44179b" y2="-174.38" x2="624.91" y1="-164.14" x1="624.91" id="592ef967-0689-42d7-a6c9-5fc8d5bb4303"/>
            <linearGradient xlink:href="#2c417075-cf35-4478-87e1-2a484d44179b" y2="-171.5" x2="630.58" y1="-171.19" x1="630.58" id="7ceff823-e5ae-48e8-8c9b-77aeccd48a50"/>
            <linearGradient gradientUnits="userSpaceOnUse" gradientTransform="matrix(-1 0 0 1 92.53 0)" y2="42.37" x2="41.91" y1="88.13" x1="41.91" id="8e96bd66-7212-450d-ba3e-05de9b928017">
                <stop stop-color="#962e25" offset="0"/>
                <stop stop-color="#ab424d" offset="1"/>
            </linearGradient>
            <linearGradient gradientUnits="userSpaceOnUse" gradientTransform="rotate(31.01 -63.973 -1141.093)" y2="-185.27" x2="688.23" y1="-185.27" x1="646.47" id="9399f7e1-782f-4bf8-b65e-9bda74fc1fb9">
                <stop stop-color="#545c1e" offset="0"/>
                <stop stop-color="#8a8706" offset="1"/>
            </linearGradient>
            <linearGradient xlink:href="#2c417075-cf35-4478-87e1-2a484d44179b" gradientTransform="rotate(31.01 -63.973 -1141.093)" y2="-192.18" x2="666.58" y1="-177.35" x1="666.58" id="bae5c445-bdd9-4194-90c3-11c42f557b68"/>
            <linearGradient xlink:href="#2c417075-cf35-4478-87e1-2a484d44179b" gradientTransform="rotate(31.01 -63.973 -1141.093)" y2="-188.31" x2="667.56" y1="-177.35" x1="667.56" id="8ec422ea-18ee-4971-85c4-1f5984cc704a"/>
            <linearGradient xlink:href="#2c417075-cf35-4478-87e1-2a484d44179b" gradientTransform="rotate(31.01 -63.973 -1141.093)" y2="-190.31" x2="672.27" y1="-187.01" x1="672.27" id="c8d56700-45f1-4c8e-9b21-ae0096851a18"/>
            <linearGradient xlink:href="#2c417075-cf35-4478-87e1-2a484d44179b" gradientTransform="rotate(31.01 -63.973 -1141.093)" y2="-185.59" x2="676.47" y1="-179.07" x1="676.47" id="acea12fa-c397-4128-9031-d3cd98983937"/>
            <linearGradient xlink:href="#2c417075-cf35-4478-87e1-2a484d44179b" gradientTransform="rotate(31.01 -63.973 -1141.093)" y2="-188.27" x2="663.03" y1="-181.45" x1="663.03" id="22d9dd11-dd65-455b-aa50-365bcfa4156e"/>
            <linearGradient xlink:href="#9399f7e1-782f-4bf8-b65e-9bda74fc1fb9" gradientTransform="rotate(-35.9 -163.839 795.29)" y2="316.31" x2="495.44" y1="316.31" x1="453.68" id="6943ab31-fb9d-4c9d-8460-d1cefe6dd4cd"/>
            <linearGradient xlink:href="#2c417075-cf35-4478-87e1-2a484d44179b" gradientTransform="rotate(-35.9 -163.839 795.29)" y2="309.41" x2="473.79" y1="324.24" x1="473.79" id="11f7b2ee-d457-480b-b63f-2cee5f685cc8"/>
            <linearGradient xlink:href="#2c417075-cf35-4478-87e1-2a484d44179b" gradientTransform="rotate(-35.9 -163.839 795.29)" y2="313.27" x2="474.76" y1="324.24" x1="474.76" id="13d1bddd-f116-4ad4-b05f-bd2dd3aa1d3b"/>
            <linearGradient xlink:href="#2c417075-cf35-4478-87e1-2a484d44179b" gradientTransform="rotate(-35.9 -163.839 795.29)" y2="311.27" x2="479.48" y1="314.57" x1="479.48" id="470213e0-c1ed-4bee-b652-7276aace473c"/>
            <linearGradient xlink:href="#2c417075-cf35-4478-87e1-2a484d44179b" gradientTransform="rotate(-35.9 -163.839 795.29)" y2="316" x2="483.68" y1="322.51" x1="483.68" id="562201c0-e41a-4f4c-92b0-ec3d6465d4d9"/>
            <linearGradient xlink:href="#2c417075-cf35-4478-87e1-2a484d44179b" gradientTransform="rotate(-35.9 -163.839 795.29)" y2="313.32" x2="470.24" y1="320.14" x1="470.24" id="9bd4a37b-fa2a-4991-9c86-7f5a7bb036e4"/>
            <linearGradient xlink:href="#ead48f95-a495-4404-a947-ef4e4a622a2b" gradientTransform="rotate(-67.61 -115.891 381.276)" y2="436.95" x2="273.29" y1="436.96" x1="273.29" id="b502d827-3cf7-42c3-94a6-e59af47a0cf2"/>
            <linearGradient xlink:href="#ead48f95-a495-4404-a947-ef4e4a622a2b" gradientTransform="rotate(-67.61 -115.891 381.276)" y2="407.95" x2="274.97" y1="439.92" x1="274.97" id="7f7e0cfb-2c14-4c47-90f6-ea4d47e3bff8"/>
            <linearGradient xlink:href="#2c417075-cf35-4478-87e1-2a484d44179b" gradientTransform="rotate(-67.61 -115.891 381.276)" y2="409.87" x2="274.31" y1="439.71" x1="274.31" id="ae990c32-7a61-404c-8b64-4fbd8d5718cc"/>
            <linearGradient xlink:href="#2c417075-cf35-4478-87e1-2a484d44179b" gradientTransform="rotate(-67.61 -115.891 381.276)" y2="410.7" x2="270.45" y1="438.34" x1="270.45" id="c37ea0eb-a007-45a1-9ccd-6176306b41c3"/>
            <linearGradient xlink:href="#2c417075-cf35-4478-87e1-2a484d44179b" gradientTransform="rotate(-67.61 -115.891 381.276)" y2="427.67" x2="271.2" y1="436.73" x1="271.2" id="fec02d80-2cbd-407e-88de-071643aafff6"/>
            <linearGradient xlink:href="#2c417075-cf35-4478-87e1-2a484d44179b" gradientTransform="rotate(-67.61 -115.891 381.276)" y2="419.42" x2="271.15" y1="423.45" x1="271.15" id="989a8b41-55a6-4489-89d3-cfc2a1ea042a"/>
            <linearGradient xlink:href="#2c417075-cf35-4478-87e1-2a484d44179b" gradientTransform="rotate(-67.61 -115.891 381.276)" y2="436.95" x2="273.29" y1="436.96" x1="273.29" id="2a3a4c20-6c98-4a87-b3fa-1c78965113d7"/>
            <linearGradient xlink:href="#ead48f95-a495-4404-a947-ef4e4a622a2b" gradientTransform="scale(-1 1) rotate(83.7 295.323 58.481)" y2="402.61" x2="246.3" y1="402.61" x1="197.59" id="ada33adf-a9ae-42ad-835d-b3cf132f4837"/>
            <linearGradient xlink:href="#2c417075-cf35-4478-87e1-2a484d44179b" gradientTransform="scale(-1 1) rotate(83.7 295.323 58.481)" y2="397.36" x2="202.44" y1="413.88" x1="242.55" id="52f6b92b-7574-4f5f-bfef-2aae01c24b71"/>
            <linearGradient xlink:href="#2c417075-cf35-4478-87e1-2a484d44179b" gradientTransform="scale(-1 1) rotate(83.7 295.323 58.481)" y2="403.1" x2="223.61" y1="405.26" x1="228.86" id="d2ae1f83-bd96-461c-80f3-ebf22e131b11"/>
            <linearGradient xlink:href="#2c417075-cf35-4478-87e1-2a484d44179b" gradientTransform="scale(-1 1) rotate(83.7 295.323 58.481)" y2="397.17" x2="214.75" y1="400.54" x1="222.92" id="0842a939-b52d-42ec-9362-a63876fcbf45"/>
            <linearGradient xlink:href="#2c417075-cf35-4478-87e1-2a484d44179b" gradientTransform="scale(-1 1) rotate(83.7 295.323 58.481)" y2="402.23" x2="235.31" y1="404.05" x1="239.72" id="832343b3-a2fa-421a-864d-5ede3c30a4ee"/>
            <linearGradient xlink:href="#ead48f95-a495-4404-a947-ef4e4a622a2b" gradientTransform="scale(1 -1) rotate(78 -296.423 -439.918)" y2="-673.38" x2="180.53" y1="-673.37" x1="180.53" id="985a770a-4f3b-406c-8f37-ef5ebbb00fa8"/>
            <linearGradient xlink:href="#ead48f95-a495-4404-a947-ef4e4a622a2b" gradientTransform="scale(1 -1) rotate(78 -296.423 -439.918)" y2="-702.38" x2="182.21" y1="-670.4" x1="182.21" id="71f89387-ecc1-43d4-91e3-bee6f8188ec4"/>
            <linearGradient xlink:href="#2c417075-cf35-4478-87e1-2a484d44179b" gradientTransform="scale(1 -1) rotate(78 -296.423 -439.918)" y2="-700.46" x2="181.54" y1="-670.62" x1="181.54" id="7ea2b8b0-5933-4384-a07a-7f80de55fb94"/>
            <linearGradient xlink:href="#2c417075-cf35-4478-87e1-2a484d44179b" gradientTransform="scale(1 -1) rotate(78 -296.423 -439.918)" y2="-699.63" x2="177.69" y1="-671.99" x1="177.69" id="2f75df72-8611-4593-9526-307a2ea1e5ed"/>
            <linearGradient xlink:href="#2c417075-cf35-4478-87e1-2a484d44179b" gradientTransform="scale(1 -1) rotate(78 -296.423 -439.918)" y2="-682.65" x2="178.43" y1="-673.6" x1="178.43" id="f36f78a2-da39-4d51-b7ce-05ab22a7fa07"/>
            <linearGradient xlink:href="#2c417075-cf35-4478-87e1-2a484d44179b" gradientTransform="scale(1 -1) rotate(78 -296.423 -439.918)" y2="-690.9" x2="178.38" y1="-686.87" x1="178.38" id="a0bd65ce-3f8f-4e49-a152-b0c46a216c79"/>
            <linearGradient xlink:href="#2c417075-cf35-4478-87e1-2a484d44179b" gradientTransform="scale(1 -1) rotate(78 -296.423 -439.918)" y2="-673.38" x2="180.53" y1="-673.37" x1="180.53" id="b91647c8-b9aa-440e-849e-56674ead9b22"/>
            <linearGradient xlink:href="#ead48f95-a495-4404-a947-ef4e4a622a2b" gradientTransform="translate(-598.26)" y2="43.95" x2="653.14" y1="43.95" x1="598.26" id="b90db0e9-63c7-49db-a85f-add05be20efe"/>
            <linearGradient xlink:href="#2c417075-cf35-4478-87e1-2a484d44179b" gradientTransform="translate(-598.26)" y2="38.03" x2="603.73" y1="56.64" x1="648.91" id="4aafc18d-fe6b-43a9-b313-fe277df30914"/>
            <linearGradient xlink:href="#2c417075-cf35-4478-87e1-2a484d44179b" gradientTransform="translate(-598.26)" y2="44.5" x2="627.57" y1="46.93" x1="633.49" id="75d2f77d-fc3b-4337-b5b3-cbe5c216e3c0"/>
            <linearGradient xlink:href="#2c417075-cf35-4478-87e1-2a484d44179b" gradientTransform="translate(-598.26)" y2="37.82" x2="617.59" y1="41.61" x1="626.8" id="baab7623-f923-4cdd-82c4-95820adab7eb"/>
            <linearGradient xlink:href="#2c417075-cf35-4478-87e1-2a484d44179b" gradientTransform="translate(-598.26)" y2="43.52" x2="640.75" y1="45.57" x1="645.73" id="ac935bd8-e82a-45e6-a9b7-d0bb9ba0a584"/>
            <linearGradient xlink:href="#2c417075-cf35-4478-87e1-2a484d44179b" gradientTransform="translate(-598.26)" y2="36.6" x2="650.24" y1="44.01" x1="650.24" id="8a1f7308-98a3-4622-8aa6-a9a1a583d135"/>
            <linearGradient xlink:href="#ead48f95-a495-4404-a947-ef4e4a622a2b" gradientTransform="translate(-598.26)" y2="37.54" x2="666.57" y1="61.65" x1="652.64" id="a8afc51e-6ead-4fe6-8668-78244edfd70c"/>
            <linearGradient xlink:href="#2c417075-cf35-4478-87e1-2a484d44179b" gradientTransform="translate(-598.26)" y2="48.38" x2="654.28" y1="55.2" x1="670.81" id="1f998151-bc76-4e9d-837e-256d3fe50081"/>
            <linearGradient xlink:href="#2c417075-cf35-4478-87e1-2a484d44179b" gradientTransform="translate(-598.26)" y2="50.21" x2="656.46" y1="51.74" x1="660.19" id="e02e6b33-99d1-4ed6-99f7-bec2eac49e07"/>
            <linearGradient xlink:href="#2c417075-cf35-4478-87e1-2a484d44179b" gradientTransform="translate(-598.26)" y2="41.03" x2="659.7" y1="44.53" x1="668.2" id="ccf89aa5-78f6-434d-acb5-1ad0810248e9"/>
            <linearGradient xlink:href="#2c417075-cf35-4478-87e1-2a484d44179b" gradientTransform="translate(-598.26)" y2="58.44" x2="662.04" y1="59.23" x1="663.96" id="58ad2a93-8cbb-4509-9609-2354a6f86647"/>
        </defs>
        <g>
            <path d="M73.79 98.85c-.44 11.34-3.88 21.74-7.8 24.46-4.66 3.23-22.47 3.83-29.76-.26-2.48-1.82-4.66-6.25-6.14-11.88a63.63 63.63 0 0 1-1.43-24.35l44.12-.47H73a57.23 57.23 0 0 1 .79 12.5Z" fill="url(#50d33943-4b0b-4908-808f-101581a63bcc)"/>
            <path d="M73.79 98.85c-17 17-43.69 12.3-43.69 12.3a63.63 63.63 0 0 1-1.43-24.35l44.12-.47h.18a57.23 57.23 0 0 1 .82 12.52Z" style="mix-blend-mode:color-dodge" opacity=".25" fill="url(#75ee5be4-9685-4ba7-8697-40b7cc064d4a)"/>
            <path fill="#fcfbfb" d="M73.04 86.54c0 1.325-9.935 2.4-22.19 2.4s-22.19-1.075-22.19-2.4 9.935-2.4 22.19-2.4 22.19 1.075 22.19 2.4z"/>
            <path d="M33.33 86.54c0 .73 5.4 1.35 12.76 1.53h7.29c8.46-.11 15-.77 15-1.58S62 85.08 53.55 85h-7.08c-7.57.17-13.14.8-13.14 1.54Z" fill="url(#2985e523-2851-4236-9fa0-51ac0f2018d8)"/>
            <path d="M55.76 45.09c-.82 1.12-4.18 4.91-7.66 8.65a114 114 0 0 1-8.16 8.18 16.53 16.53 0 0 1-2.22 1.38l-.41.22c-1 .55-2.26 1.17-3.61 1.81l-.52.25c-.66-1.48-1.91-3.73-3.33-3s-2.17 3.93-2.44 5.67l-.92.42-1.83.8c0-1.62-.22-3.57-.91-3.47s-1.28 2.46-1.75 4.62l-.72.31-.48.21-4.6 2-.33.13-.17.08-.64.27-.2.08-.15.06v-.07c.3-.74 2.42-5.94 4.44-10.74l.76-.47c2.84-1.76 6.43-4.18 5.74-4.69-.48-.35-2.25.34-4.1 1.23l-.93.47c1.12-2.61 2-4.63 2.29-5s2.06-2.38 4.22-4.65l2-.4c2.07-.47 4-1.06 3.88-1.65-.06-.35-.7-.5-1.62-.54h-1.75c3-3.08 6.16-6 7.14-6.15 2-.3 16.2-2 17.15-2.08H54s3.34 3.91 1.76 6.07Z" fill="url(#ead48f95-a495-4404-a947-ef4e4a622a2b)"/>
            <path d="M48.1 53.74a114 114 0 0 1-8.16 8.18 16.53 16.53 0 0 1-2.22 1.38l-.41.22c-1 .55-2.26 1.17-3.61 1.81l-.52.25c-.66-1.48-1.91-3.73-3.33-3s-2.17 3.93-2.44 5.67l-.92.42-1.83.8c0-1.62-.22-3.57-.91-3.47s-1.28 2.46-1.75 4.62l-.72.31-.48.21-4.6 2-.33.13-.17.08-.64.27-.2.08-.15.06v-.07c.35-.76 2.92-6.35 5.2-11.21 2.84-1.76 6.43-4.18 5.74-4.69-.48-.35-2.25.34-4.1 1.23.42-.87.79-1.65 1.11-2.28a17.25 17.25 0 0 1 .9-1.74c.26-.36 1.72-1.85 3.6-3.72l1.94-1.91c2.07-.47 4-1.06 3.88-1.65-.06-.35-.7-.5-1.62-.54A70.41 70.41 0 0 1 37 42.13c1.41-.82 15.92-3 16.89-3.11H54v4.27Z" style="mix-blend-mode:multiply" fill="url(#2c417075-cf35-4478-87e1-2a484d44179b)" opacity=".5"/>
            <path d="M48.1 53.74a114 114 0 0 1-8.16 8.18 16.53 16.53 0 0 1-2.22 1.38l-.41.22c-1 .55-2.26 1.17-3.61 1.81l-.52.26-.32.15.32-.16c-.66-1.48-1.91-3.73-3.33-3s-2.17 3.93-2.44 5.67l-.92.42-1.83.8c0-1.62-.22-3.57-.91-3.47s-1.28 2.46-1.75 4.62l-.72.31-.48.21-4.6 2-.33.13-.17.08-.64.27-.2.08-.15.06s21.74-25.58 24.61-27.34S53.58 39.19 53.93 39v4.27Z" style="mix-blend-mode:multiply" fill="url(#f81deafd-be7b-46cc-ac1e-cb8c35769cad)" opacity=".2"/>
            <path d="m34.88 50.77-2.83 3.09-9.37 2.85a17.25 17.25 0 0 1 .88-1.71c.26-.36 1.72-1.85 3.6-3.72Z" style="mix-blend-mode:multiply" fill="url(#e9059141-dea7-4a4c-9531-1c0a9a153051)" opacity=".2"/>
            <path style="mix-blend-mode:multiply" fill="url(#c8781156-b222-42a2-8c78-3ff73401cae7)" opacity=".2" d="m39.32 46.42.03 15.92-.87.53-.01-15.76.85-.69z"/>
            <path style="mix-blend-mode:multiply" fill="url(#27775903-7bf3-4b84-a55c-506bca232c0d)" opacity=".2" d="m48.1 53.74-1.79-10.99 4.9-2.41.47 7.03-3.58 6.37z"/>
            <path style="mix-blend-mode:multiply" fill="url(#592ef967-0689-42d7-a6c9-5fc8d5bb4303)" opacity=".2" d="m27.81 68.06.27-9.77-1.6 1.82-.98 8.98 2.31-1.03z"/>
            <path d="m33.18 65.59-.32.15.32-.16Z" fill="url(#7ceff823-e5ae-48e8-8c9b-77aeccd48a50)"/>
            <path d="M46.09 88.07h7.29l.17-3.07v-1.17l.24-6.22.08-2 .49-12.37.41-10.43.06-1.63.17-3.42v-1.81l.07-1.86L55 44h-.06l-.41-.17-.66-.28h-.18l-.61-.25-.16-.07-1-.42-.12-.05h-.08l-.37-.16-.22-.09-.55 5-.27 2.41v.18l-.18 1.56-.94 8.6-1.66 14.79v.34l-.07.68-.83 7.52-.2 1.41Z" fill="url(#8e96bd66-7212-450d-ba3e-05de9b928017)"/>
            <path style="mix-blend-mode:soft-light" fill="#ffffc2" opacity=".68" d="m47.39 76.07 6.45 1.5.07-1.96-6.38-.56-.14 1.02z"/>
            <path style="mix-blend-mode:multiply" fill="#7c1822" opacity=".21" d="m49.17 60.16 5.25 3.08.74-19.18-4.03-1.69-1.96 17.79z"/>
            <path style="mix-blend-mode:multiply" fill="#7c1822" opacity=".21" d="m53.59 83.79-7-.19v.54l6.96.71.04-1.06z"/>
            <path d="M84.21 72.37c-.1-.09-1.72-1.55-4-3.56-.4-1.43-1.21-4-1.8-3.8-.36.09-.35 1-.23 2-1.71-1.52-3.58-3.2-5.35-4.79-.76-2-2.38-6.11-2.82-6.37S70 58 70.37 60l-3.88-3.48C64 54.23 58.23 50 55.13 47.72h-.06l-2-1.48.1-.44 1.08-4.53s.94.27 2.44.73h.16c2.72.83 7.15 2.24 11.27 3.71l-.58.26c-.79.38-1.34.83-1.22 1.3.21.85 2.32.35 3.91-.16.33-.1.63-.21.89-.3a48.13 48.13 0 0 1 4.85 2.09c-.51.08-1 .18-1.5.28-1.19.26-2.09.59-2 1 .15.63 2.72.87 4.79 1h1.35c3 5 5.33 19.27 5.6 21a.83.83 0 0 1 0 .13Z" fill="url(#9399f7e1-782f-4bf8-b65e-9bda74fc1fb9)"/>
            <path d="M84.21 72.37c-.1-.09-1.72-1.55-4-3.56-.4-1.43-1.21-4-1.8-3.8-.36.09-.35 1-.23 2-1.71-1.52-3.58-3.2-5.35-4.79-.76-2-2.38-6.11-2.82-6.37S70 58 70.37 60l-3.88-3.48C64 54.23 58.23 50 55.13 47.72l-.06-.06-1.93-1.91-.45-5 4 1.2h.16c.94.32 5.86 2 10.69 4-.79.38-1.34.83-1.22 1.3.21.85 2.32.35 3.91-.16 1.56.69 3 1.39 4.24 2.07-1.19.26-2.09.59-2 1 .15.63 2.72.87 4.79 1l.16.18c2.59 3.16 6.28 18.76 6.76 20.83a1.86 1.86 0 0 1 0 .19Z" style="mix-blend-mode:multiply" fill="url(#bae5c445-bdd9-4194-90c3-11c42f557b68)" opacity=".5"/>
            <path d="m54.26 42 .2 1.47v.32l.35 2.39v.17l.14.94v.32l.4.29.5.37c.13.09.25.19.37.29l.67.49c.74.54 1.54 1.14 2.34 1.75.34.25.68.5 1 .76l1 .76.41.32L63.4 54l1.36 1.09.47.39.4.34.11.09a.39.39 0 0 0 .1.08l.13.11.51.45.25.22.27.23.2.18.67.6.25.22.43.39.37.33L70.37 60c-.34-2-.67-4.36-.34-4.16a16.83 16.83 0 0 1 1.71 3.55c.42 1 .82 2.08 1.11 2.83l3.32 3 1.16 1 .87.78c-.12-1-.13-1.9.23-2s.58.41.88 1.09c.08.18.16.38.23.58s.23.63.33.95.13.42.19.62l.17.56 1.56 1.39.66.59 1.76 1.57a.38.38 0 0 0 0-.1c-.63-1.26-1.68-3.34-3-5.69s-2.78-5-4.3-7.34l-.82-1.24c-.39-.58-.78-1.13-1.16-1.65a16.72 16.72 0 0 0-1.22-1.44 27.35 27.35 0 0 0-2.33-2.13l-.12-.1c-.67-.56-1.38-1.1-2.12-1.65s-1.85-1.43-2.77-2.01l-1.28-.83-.33-.21-.85-.54-.2-.13-.92-.56c-1.85-1.12-3.61-2.11-5-2.89l-.91-.5-.74-.39-.2-.1-1.31-.69-.36-.16Z" style="mix-blend-mode:multiply" fill="url(#8ec422ea-18ee-4971-85c4-1f5984cc704a)" opacity=".2"/>
            <path style="mix-blend-mode:multiply" fill="url(#c8d56700-45f1-4c8e-9b21-ae0096851a18)" opacity=".2" d="m71.18 52.48 7.68 1.54 1.55 4.28-6.74-3.55-2.49-2.27z"/>
            <path style="mix-blend-mode:multiply" fill="url(#acea12fa-c397-4128-9031-d3cd98983937)" opacity=".2" d="m76.17 65.19-.09-7.32.82 1.24.43 7.11-1.16-1.03z"/>
            <path style="mix-blend-mode:multiply" fill="url(#22d9dd11-dd65-455b-aa50-365bcfa4156e)" opacity=".2" d="m65.84 55.95-.75-7.82 1.28.84 1.51 8.8-2.04-1.82z"/>
            <path d="m91 23.49-4.82 2.3c-1.48-.18-4.11-.42-4.2.19-.06.36.78.7 1.74 1L77.2 30c-2.13-.07-6.56-.18-7 .12s2 .83 4 1.3l-4.72 2.23c-3.09 1.46-9.22 5.09-12.51 7.07h-.06l-2.16 1.38-.36-.27-3.77-2.75 1.63-2 .06-.07v-.06c1.83-2.19 4.84-5.73 7.79-9v.64c.05.87.25 1.55.73 1.63.86.13 1.22-2 1.37-3.67 0-.34.05-.66.07-.94A50.71 50.71 0 0 1 66.13 22c-.12.51-.24 1-.32 1.49-.22 1.2-.27 2.16.13 2.22.64.1 1.86-2.18 2.74-4 .21-.45.4-.87.56-1.24 5.78-.87 19.82 2.56 21.55 3h.13Z" fill="url(#6943ab31-fb9d-4c9d-8460-d1cefe6dd4cd)"/>
            <path d="m91 23.49-4.82 2.3c-1.48-.18-4.11-.42-4.2.19-.06.36.78.7 1.74 1L77.2 30c-2.13-.07-6.56-.18-7 .12s2 .83 4 1.3l-4.72 2.23c-3.09 1.46-9.22 5.09-12.51 7.07h-.08l-2.5 1-4.78-1.42s1.63-2 2.64-3.18l.06-.07v-.06c.66-.75 4.11-4.63 7.8-8.32.05.87.25 1.55.73 1.63.86.13 1.22-2 1.37-3.67 1.24-1.17 2.45-2.25 3.55-3.11-.22 1.2-.27 2.16.13 2.22.64.1 1.86-2.18 2.74-4l.23-.08c3.91-1.17 19.73 1.47 21.83 1.83h.19Z" style="mix-blend-mode:multiply" fill="url(#11f7b2ee-d457-480b-b63f-2cee5f685cc8)" opacity=".5"/>
            <path d="M51.32 39.34h.17l.28.07h.06l.69.18.61.16.42.11.45.14.59.15.32.09h.27l1.73.45h.06l.31-.2.12-.07c.4-.24.81-.5 1.27-.76.13-.08.25-.16.39-.23l.21-.13.58-.34c.27-.17.55-.33.83-.49l.68-.4 1.47-.86.8-.46c.46-.26.91-.53 1.36-.77l.45-.26.39-.21c1-.57 2-1.09 2.83-1.51l.17-.08.23-.12.38-.18h.19l.22-.1 1.28-.6.6-.29 2.43-1.15c-.83-.19-1.7-.41-2.41-.61l-.57-.17-.18-.1-.41-.15-.27-.13-.07-.06v-.09c0-.02 0 0 0 0a.56.56 0 0 1 .22-.07A3.53 3.53 0 0 1 71 30h.37c1.56-.07 4.26 0 5.79.05l.88-.42 1.57-.74.57-.27.89-.43.11-.05 1.4-.67 1.06-.5a8.1 8.1 0 0 1-1.23-.45.91.91 0 0 1-.3-.19.12.12 0 0 1-.07-.05.35.35 0 0 1-.1-.12.23.23 0 0 1 0-.17.19.19 0 0 1 0-.1c.36-.48 2.77-.26 4.16-.09l3.39-1.61 1-.49.25-.12h-.19a147.14 147.14 0 0 0-14.64 1.52l-1.46.28c-.69.13-1.34.28-2 .43a15.91 15.91 0 0 0-1.83.58c-1 .37-2 .85-3 1.38a57 57 0 0 0-5.1 3.07l-1.27.85c-1.18.81-2.32 1.64-3.38 2.43s-1.79 1.35-2.56 2c-.37.28-.71.56-1 .81l-.72.59-.07.06-.19.15c-.32.26-.61.49-.85.7l-.39.32-.13.11-.33.27-.19.17-.12.04Z" style="mix-blend-mode:multiply" fill="url(#13d1bddd-f116-4ad4-b05f-bd2dd3aa1d3b)" opacity=".2"/>
            <path style="mix-blend-mode:multiply" fill="url(#470213e0-c1ed-4bee-b652-7276aace473c)" opacity=".2" d="m67.58 27.8 4.39-6.48 4.55.23-5.88 4.84-3.06 1.41z"/>
            <path style="mix-blend-mode:multiply" fill="url(#562201c0-e41a-4f4c-92b0-ec3d6465d4d9)" opacity=".2" d="m81.22 28.12-6.78-2.75 1.47-.27 6.72 2.36-1.41.66z"/>
            <path style="mix-blend-mode:multiply" fill="url(#9bd4a37b-fa2a-4991-9c86-7f5a7bb036e4)" opacity=".2" d="m68.71 34.07-7.5-2.34 1.27-.85 8.69 2.01-2.46 1.18z"/>
            <path d="M83.82 42.65Z" fill="url(#b502d827-3cf7-42c3-94a6-e59af47a0cf2)"/>
            <path d="m92.53 29.31-.7 1.14-1.35 2.15-.57.9c-.46.74-1 1.53-1.51 2.37l-.44.67c-.12.17-.23.35-.34.52l-.67 1-1 1.45-.69 1c-1.26-.61-2.84-1.16-3.12-.51s.64 1.6 1.68 2.63c-.65.91-1.29 1.79-1.91 2.61l-.28.37-.46.59c-.08.09-.15.19-.23.29l-.71.86c-2.19-1.47-6.47-4.15-7.12-3.1s2.77 3.93 4.77 5.52l-.19.14a3 3 0 0 1-1.1.43l-.4.06h-.58a13.43 13.43 0 0 1-1.92-.12l-.49-.07-.52-.09-.42-.08-.82-.17-1.11-.27-.48-.13-.17-.05-.86-.24c-2.52-.73-5.24-1.71-7.72-2.69l-.62-.24c-.94-.38-1.85-.75-2.69-1.11l-1.27-.54-.36-.15-2-.9c-1.1-.49-1.75-.8-1.75-.8S69.49 35 83.24 31.22c-.39.52-.77 1.05-1.11 1.55-.89 1.3-1.5 2.36-1.2 2.48s2-1.36 3.69-3.07c.57-.58 1.15-1.18 1.68-1.74a48.71 48.71 0 0 1 6.23-1.13Z" fill="url(#7f7e0cfb-2c14-4c47-90f6-ea4d47e3bff8)"/>
            <path d="m91.83 30.45-1.35 2.15-.57.9c-.46.74-1 1.53-1.51 2.37l-.44.67c-.12.17-.23.35-.34.52l-.67 1-1 1.45-.69 1c-1.26-.61-2.84-1.16-3.12-.51s.64 1.6 1.68 2.63c-.65.91-1.29 1.79-1.91 2.61l-.28.37-.46.59c-.08.09-.15.19-.23.29l-.71.86c-2.19-1.47-6.47-4.15-7.12-3.1s2.77 3.93 4.77 5.52l-.19.14a3 3 0 0 1-1.1.43l-.4.06h-.58a13.43 13.43 0 0 1-1.92-.12l-.49-.07-.52-.09-.42-.08-.82-.17-1.11-.27-.48-.13-.17-.05-.86-.24c-2.52-.73-5.24-1.71-7.72-2.69l-.62-.24c-.94-.38-1.85-.75-2.69-1.11l-1.27-.54-.36-.15-2-.9C57.62 42 72 35.26 82.13 32.76c-.89 1.3-1.5 2.36-1.2 2.48s2-1.36 3.69-3.07Z" style="mix-blend-mode:multiply" fill="url(#ae990c32-7a61-404c-8b64-4fbd8d5718cc)" opacity=".2"/>
            <path d="m87.62 37.06-.67 1-1 1.45-.69 1c-1.26-.61-2.84-1.16-3.12-.51s.64 1.6 1.68 2.63c-.65.91-1.29 1.79-1.91 2.61l-.28.37-.46.59c-.08.09-.15.19-.23.29l-.71.86c-2.19-1.47-6.47-4.15-7.12-3.1s2.77 3.93 4.77 5.52l-.19.14a3 3 0 0 1-1.1.43l-.4.06h-.58a13.43 13.43 0 0 1-1.92-.12l-.49-.07-.52-.09-.42-.08-.82-.17-1.11-.27-.48-.13-.17-.05-.86-.24c-2.52-.73-5.24-1.71-7.72-2.69l-.62-.24c-.94-.38-1.85-.75-2.69-1.11l-1.27-.54-.36-.15-1.16-.78Z" style="mix-blend-mode:multiply" fill="url(#c37ea0eb-a007-45a1-9ccd-6176306b41c3)" opacity=".2"/>
            <path style="mix-blend-mode:multiply" fill="url(#fec02d80-2cbd-407e-88de-071643aafff6)" opacity=".2" d="m75.03 39.61 5.31 7.64 2.9-3.79-4.79-4.55-3.42.7z"/>
            <path style="mix-blend-mode:multiply" fill="url(#989a8b41-55a6-4489-89d3-cfc2a1ea042a)" opacity=".2" d="m65.3 41.58 5.14-4.99 1.58-.74-4.53 5.29-2.19.44z"/>
            <path d="M83.83 42.63Z" fill="url(#2a3a4c20-6c98-4a87-b3fa-1c78965113d7)"/>
            <path d="M56.29 48a.31.31 0 0 0 0-.07v-.09l.32-.93.06-.18.11-.31.09-.26.09-.27a2.31 2.31 0 0 0 .1-.28c.19-.56.42-1.2.66-1.91.07-.18.13-.36.19-.54l.07-.2c.11-.3.22-.62.33-.94s.27-.75.4-1.13.35-1 .54-1.5c0-.15.1-.3.16-.46-1-.71-2.11-1.61-1.8-1.86a7.43 7.43 0 0 1 2.6-.41c.16-.42.31-.84.46-1.27-1.82-.54-4.15-1.47-3.72-2.55s3-1.45 4.6-1.49c0-.23.08-.46.12-.71s.05-.32.08-.49c.07-.43.14-.86.21-1.32l.06-.38c.07-.48.15-1 .22-1.49l.09-.59c.13-.84.25-1.72.38-2.64 0-.16 0-.34.08-.51s0-.41.08-.61q.14-.95.27-1.92c0-.26.07-.52.11-.78s.07-.52.1-.78l.06-.4c0-.26.07-.52.11-.78s0-.34.07-.5c-2.08.5-5.37 1.2-5.3.53S62 15.2 64.1 14c.24-1.87.48-3.68.69-5.34l.06-.5c0-.12 0-.23.05-.34s0-.43.08-.64c.1-.76.19-1.48.27-2.15 0-.18 0-.36.07-.53.15-1.2.28-2.21.37-3v-.31c.1-.78.15-1.22.15-1.22S61.4 4.55 57.63 8.9c-.55 2.41-1.36 5.61-1.67 5.24s.07-2.12.42-3.77a27.51 27.51 0 0 0-3.74 5.21A48.79 48.79 0 0 0 50.77 23c.37 1.55.65 3.22.36 3.94s-.75.48-1.1 0c-.76 4.48-1.23 8.6-.81 9.12s1.71 4.1 2.6 6.81c.61 1.84 1.07 3.32 1.07 3.32Z" fill="url(#ada33adf-a9ae-42ad-835d-b3cf132f4837)"/>
            <path d="M56.29 48a.31.31 0 0 0 0-.07v-.09l.32-.93.06-.18.11-.31.09-.26.09-.27a2.31 2.31 0 0 0 .1-.28c.19-.56.42-1.2.66-1.91.07-.18.13-.36.19-.54l.07-.2c.11-.3.22-.62.33-.94s.27-.75.4-1.13.35-1 .54-1.5c0-.15.1-.3.16-.46-1-.71-2.11-1.61-1.8-1.86a7.43 7.43 0 0 1 2.6-.41c.16-.42.31-.84.46-1.27-1.82-.54-4.15-1.47-3.72-2.55s3-1.45 4.6-1.49c0-.23.08-.46.12-.71s.05-.32.08-.49c.07-.43.14-.86.21-1.32l.06-.38c.07-.48.15-1 .22-1.49l.09-.59c.13-.84.25-1.72.38-2.64 0-.16 0-.34.08-.51s0-.41.08-.61q.14-.95.27-1.92c0-.26.07-.52.11-.78s.07-.52.1-.78l.06-.4c0-.26.07-.52.11-.78s0-.34.07-.5c-2.08.5-5.37 1.2-5.3.53S62 15.2 64.1 14c.24-1.87.48-3.68.69-5.34l.06-.5c0-.12 0-.23.05-.34s0-.43.08-.64c.1-.76.19-1.48.27-2.15 0-.18 0-.36.07-.53.15-1.2.28-2.21.37-3v-.31c.1-.78.15-1.22.15-1.22S56.22 16.68 55 20.23s-3 18.35-3.22 20.56a12 12 0 0 0 0 2.14c.61 1.84 1.07 3.32 1.07 3.32Z" style="mix-blend-mode:multiply" fill="url(#52f6b92b-7574-4f5f-bfef-2aae01c24b71)" opacity=".2"/>
            <path style="mix-blend-mode:multiply" fill="url(#d2ae1f83-bd96-461c-80f3-ebf22e131b11)" opacity=".2" d="m53.62 26.22 8.68-.11-.43 3.63-8.58-.44.33-3.08z"/>
            <path style="mix-blend-mode:multiply" fill="url(#0842a939-b52d-42ec-9362-a63876fcbf45)" opacity=".2" d="m52.68 15.61 1.71 7.07-.33 1.73-1.83-7.5.45-1.3z"/>
            <path style="mix-blend-mode:multiply" fill="url(#832343b3-a2fa-421a-864d-5ede3c30a4ee)" opacity=".2" d="m52.02 37.61 7.61.83-.77 2.15-7.14-.53.3-2.45z"/>
            <path d="M30.37 24Z" fill="url(#985a770a-4f3b-406c-8f37-ef5ebbb00fa8)"/>
            <path d="M30.78 8.08s0 .49-.07 1.34c0 .65-.07 1.52-.11 2.53 0 .34 0 .7-.05 1.07 0 .86-.06 1.81-.09 2.8v5.62c1.47.23 3 .65 2.89 1.35s-1.43 1-2.87 1.22c0 1.11 0 2.2.09 3.23v1.58q0 .57.09 1.11c2.64 0 7.68.25 7.62 1.49s-4.51 1.67-7.06 1.84c0 .08.05.15.08.22a2.87 2.87 0 0 0 .66 1 3.84 3.84 0 0 0 .29.27l.16.13a3.4 3.4 0 0 0 .3.23 12.82 12.82 0 0 0 1.65 1l.44.22.48.22.4.17.76.32c.35.14.7.28 1.07.41l.47.17.16.06.86.32c2.5.83 5.29 1.56 7.89 2.17l.65.15c1 .23 2 .43 2.84.62l1.35.27.38.08c.83.17 1.57.31 2.18.42l1.89.33S46.5 25.86 37.34 14.92v1.91c0 1.57-.11 2.79-.42 2.72s-.87-2.26-1.29-4.62c-.14-.81-.28-1.63-.4-2.4a47.88 47.88 0 0 0-4.45-4.45Z" fill="url(#71f89387-ecc1-43d4-91e3-bee6f8188ec4)"/>
            <path d="M30.71 9.42c0 .65-.07 1.52-.11 2.53 0 .34 0 .7-.05 1.07 0 .86-.06 1.81-.09 2.8v5.62c1.47.23 3 .65 2.89 1.35s-1.43 1-2.87 1.22c0 1.11 0 2.2.09 3.23v1.58q0 .57.09 1.11c2.64 0 7.68.25 7.62 1.49s-4.51 1.67-7.06 1.84c0 .08.05.15.08.22a2.87 2.87 0 0 0 .66 1 3.84 3.84 0 0 0 .29.27l.16.13a3.4 3.4 0 0 0 .3.23 12.82 12.82 0 0 0 1.65 1l.44.22.48.22.4.17.76.32c.35.14.7.28 1.07.41l.47.17.16.06.86.32c2.5.83 5.29 1.56 7.89 2.17l.65.15c1 .23 2 .43 2.84.62l1.35.27.38.08c.83.17 1.57.31 2.18.42-1.93-3.35-10-17-16.89-24.83 0 1.57-.11 2.79-.42 2.72s-.87-2.26-1.29-4.62Z" style="mix-blend-mode:multiply" fill="url(#7ea2b8b0-5933-4384-a07a-7f80de55fb94)" opacity=".2"/>
            <path d="M30.42 17.24v4.2c1.47.23 3 .65 2.89 1.35s-1.43 1-2.87 1.22c0 1.11 0 2.2.09 3.23v1.58q0 .57.09 1.11c2.64 0 7.68.25 7.62 1.49s-4.51 1.67-7.06 1.84c0 .08.05.15.08.22a2.87 2.87 0 0 0 .66 1 3.84 3.84 0 0 0 .29.27l.16.13a3.4 3.4 0 0 0 .3.23 12.82 12.82 0 0 0 1.65 1l.44.22.48.22.4.17.76.32c.35.14.7.28 1.07.41l.47.17.16.06.9.32c2.5.83 5.29 1.56 7.89 2.17l.65.15c1 .23 2 .43 2.84.62l1.35.27.38.08h1.43Z" style="mix-blend-mode:multiply" fill="url(#2f75df72-8611-4593-9526-307a2ea1e5ed)" opacity=".2"/>
            <path style="mix-blend-mode:multiply" fill="url(#f36f78a2-da39-4d51-b7ce-05ab22a7fa07)" opacity=".2" d="m39.33 26.49-8.7 3.28-.24-4.77 6.53-1.02 2.41 2.51z"/>
            <path style="mix-blend-mode:multiply" fill="url(#a0bd65ce-3f8f-4e49-a152-b0c46a216c79)" opacity=".2" d="m46.23 33.64-1.4-7.03-.88-1.5.73 6.92 1.55 1.61z"/>
            <path d="M30.37 24Z" fill="url(#b91647c8-b9aa-440e-849e-56674ead9b22)"/>
            <path d="M54.88 46.38h-.2l-1.07.24h-.21l-.4.18-.3.07-.32.08-.28.05-2.22.51-.63.15h-.23l-1.1.26-1.31.31-1.75.41-.53.13c-.67-1.2-1.54-2.56-1.86-2.24a8.43 8.43 0 0 0-.78 2.87l-1.47.35c-.39-2.1-1.15-4.83-2.41-4.47s-2 3.21-2.23 5h-1.37l-1.5.07h-.43l-1.7.07h-.66l-3 .1h-1.28l-2.18.06h-3.68c.81-2.26 2-5.87 1.23-5.87s-3.51 3.7-5.11 6l-6.05.13H5.11l-3.37.05h-.35L0 51.3s5.67-4.42 11-8.11c2.77-.33 6.45-.85 6.07-1.23s-2.39-.19-4.27 0a31.7 31.7 0 0 1 6.29-3.55 54.13 54.13 0 0 1 8.54-1.24c1.68.61 3.52 1.13 4.37.89s.63-.79.15-1.23c5.11-.31 9.78-.33 10.31.19s4.39 2.42 7.31 3.75c2 .9 3.6 1.6 3.6 1.6Z" fill="url(#b90db0e9-63c7-49db-a85f-add05be20efe)"/>
            <path d="M54.88 46.38h-.2l-1.07.24h-.21l-.4.18-.3.07-.32.08-.28.05-2.22.51-.63.15h-.23l-1.1.26-1.31.31-1.75.41-.53.13c-.67-1.2-1.54-2.56-1.86-2.24a8.43 8.43 0 0 0-.78 2.87l-1.47.35c-.39-2.1-1.15-4.83-2.41-4.47s-2 3.21-2.23 5h-1.37l-1.5.07h-.43l-1.7.07h-.66l-3 .1h-1.28l-2.18.06h-3.68c.81-2.26 2-5.87 1.23-5.87s-3.51 3.7-5.11 6l-6.05.13H5.11l-3.37.05h-.35L0 51.3s19.85-8.8 24-9.72 20.91-1.19 23.41-1.12a13.88 13.88 0 0 1 2.39.31c2 .9 3.6 1.6 3.6 1.6Z" style="mix-blend-mode:multiply" fill="url(#4aafc18d-fe6b-43a9-b313-fe277df30914)" opacity=".2"/>
            <path style="mix-blend-mode:multiply" fill="url(#75d2f77d-fc3b-4337-b5b3-cbe5c216e3c0)" opacity=".2" d="M34.34 40.75h-3.48l-1.19 9.71 4.13-.04.54-9.67z"/>
            <path style="mix-blend-mode:multiply" fill="url(#baab7623-f923-4cdd-82c4-95820adab7eb)" opacity=".2" d="m19.09 38.41 7.71 2.78 1.98-.17-8.19-2.96-1.5.35z"/>
            <path style="mix-blend-mode:multiply" fill="url(#ac935bd8-e82a-45e6-a9b7-d0bb9ba0a584)" opacity=".2" d="M43.8 40.34v8.62l2.51-.59.28-8.07-2.79.04z"/>
            <path d="M49.41 41.09S53.12 36.6 54 36.6s.5 7.4.5 7.4Z" fill="url(#8a1f7308-98a3-4622-8aa6-a9a1a583d135)"/>
            <path d="M69.08 52.21v5.5c0 .36 0 .72-.06 1.08v.99c-.73-1.19-1.43-2.17-1.66-1.94s.67 2.34 1.47 3.8c0 .17 0 .35-.06.52l-.06.47c-.06.36-.11.71-.17 1.06 0 .16 0 .33-.09.49l-.09.48c0 .22-.09.43-.14.64s-.06.28-.1.42 0 .22-.08.33 0 .21-.08.31-.11.37-.16.55-.08.24-.11.35c-.1.31-.2.6-.31.88s-.2.48-.3.7c0 0-1.88-2.25-4.15-5.1a14.41 14.41 0 0 0 1.12-2c.27-.63.37-1.16 0-1.3a1.37 1.37 0 0 0-1 .19 8.11 8.11 0 0 0-1.63 1.16c-.45-.56-.89-1.14-1.34-1.71 1.15-1.18 3.29-3.61 2-4.2s-3 1.12-3.84 2.12c-1.83-2.45-3.28-4.56-3.48-5.37-.07-.28-.14-.62-.2-1 1.38-2 3.1-4.69 2.46-4.93s-1.88.88-2.83 1.84c-.44-4.77-.7-11.35-.7-11.35l-3.6 3.34c.19-.23 3.21-4 3.6-4.36.21-.21 3.85.07 7.4.39 3.29.3 6.5.63 6.8.63 0 0 .11.16.18.45v.1a.29.29 0 0 0 0 .09L68 38c.08.37.16.88.25 1.5a2.17 2.17 0 0 0 0 .25v.86a4.53 4.53 0 0 0 .06.5v.05c0 .21 0 .42.07.63a.49.49 0 0 1 0 .12l.06.56c.09.87.17 1.81.24 2.81v.84c-1.17-.46-2.78-.94-3.2-.34s1.84 1.94 3.33 2.66v1.19c.24.83.27 1.7.27 2.58Z" fill="url(#a8afc51e-6ead-4fe6-8668-78244edfd70c)"/>
            <path d="M69 56.59v1.12c0 .36 0 .72-.06 1.08v.99c-.73-1.19-1.43-2.17-1.66-1.94s.67 2.34 1.47 3.8c0 .17 0 .35-.06.52l-.06.47c-.06.36-.11.71-.17 1.06 0 .16 0 .33-.09.49l-.09.48c0 .22-.09.43-.14.64s-.06.28-.1.42 0 .22-.08.33 0 .21-.08.31-.11.37-.16.55-.08.24-.11.35c-.1.31-.2.6-.31.88s-.2.48-.3.7c0-14.28-6-32.33-6-32.33 3.29.3 6.5.63 6.8.63 0 0 .11.16.18.45v.1a.29.29 0 0 0 0 .09L68 38c.08.37.16.88.25 1.5a2.17 2.17 0 0 0 0 .25v.86l.06.5v.05c0 .21 0 .42.07.63a.49.49 0 0 1 0 .12l.06.56c.09.87.17 1.81.24 2.81v.84c-1.17-.46-2.78-.94-3.2-.34s1.84 1.94 3.33 2.66v1.19c0 .85.06 1.72.06 2.6.23 1.43.22 2.91.13 4.36Z" style="mix-blend-mode:multiply" fill="url(#1f998151-bc76-4e9d-837e-256d3fe50081)" opacity=".2"/>
            <path style="mix-blend-mode:multiply" fill="url(#e02e6b33-99d1-4ed6-99f7-bec2eac49e07)" opacity=".2" d="m63.5 45.75-7.32 9.37.87 1.25L63.88 47l-.38-1.25z"/>
            <path style="mix-blend-mode:multiply" fill="url(#ccf89aa5-78f6-434d-acb5-1ad0810248e9)" opacity=".2" d="m61.91 39.88 6.48 1.07.52 6.09-6.22-4.39-.78-2.77z"/>
            <path d="M63.87 61.81c.27-.63.37-1.16 0-1.3a1.37 1.37 0 0 0-1 .19l3-4.75.21 2.43Z" style="mix-blend-mode:multiply" fill="url(#58ad2a93-8cbb-4509-9609-2354a6f86647)" opacity=".2"/>
            <path d="M46.13 88.07h1.89l.26-3.07.06-.64v-.67l.66-7.25.11-1.26 1.22-14.34.88-10.49v-.13l-.58-1-.14-.22-.08.66-.2 1.83-1 8.74-1.63 14.82-.11 1-.84 7.51v.4l-.11 1Z" style="mix-blend-mode:soft-light" fill="#ffffc2" opacity=".68"/>
            <g style="mix-blend-mode:soft-light" opacity=".5">
                <path d="M69 106.08c0-.14-.06-.28-.21-.29v.34a.23.23 0 0 1 .21-.05Z" fill="#ffffff" fill-rule="evenodd"/>
                <path d="M66.37 96.28a.3.3 0 0 0-.25-.1c-.02.15.18.18.25.1Z" fill="#ffffff" fill-rule="evenodd"/>
                <path d="M66.13 107.46c0-.07-.06-.15-.17-.14s0 .19 0 .34c.21.01.04-.17.17-.2Z" fill="#ffffff" fill-rule="evenodd"/>
                <path d="M66.33 104.51c0-.11-.21 0-.29-.06.03.19.16.04.29.06Z" fill="#ffffff" fill-rule="evenodd"/>
                <path d="M66.18 112.09c0-.08-.3-.2-.29 0 .11-.09.11-.01.29 0Z" fill="#ffffff" fill-rule="evenodd"/>
                <path d="M66.15 102c0-.17-.33-.07-.29.09s.14-.09.29-.09Z" fill="#ffffff" fill-rule="evenodd"/>
                <path d="M65.73 112c-.34-.2-.32-.11-.79-.16.13.23.48.16.79.16Z" fill="#ffffff" fill-rule="evenodd"/>
                <path d="M64.44 111.77c-.16.2-.41.09-.67.09.15.14.59.28.67-.09Z" fill="#ffffff" fill-rule="evenodd"/>
                <path d="M60.54 100.6c-.13-.23-.37.09-.28.31.36.09.04-.33.28-.31Z" fill="#ffffff" fill-rule="evenodd"/>
                <path d="M63.25 110.06c0-.22-.28-.22-.41-.15.08.19.29-.02.41.15Z" fill="#ffffff" fill-rule="evenodd"/>
                <path d="M63.11 111.26s-.12-.07 0-.09-.19 0-.17.14a.22.22 0 0 0 .17 0c-.05-.01-.03-.04 0-.05Z" fill="#ffffff" fill-rule="evenodd"/>
                <path d="M62.43 109.46c.12-.07-.25-.07-.25 0v.05c0 .05 0 0 0 0s.11-.1.25-.05Z" fill="#ffffff" fill-rule="evenodd"/>
                <path d="M66.56 97.64c-.17-.17-.07.57-.11.78.28-.21.04-.42.11-.78Z" fill="#ffffff" fill-rule="evenodd"/>
                <path d="M64.41 105.74v.31c.33.07.34-.37 0-.31Z" fill="#ffffff" fill-rule="evenodd"/>
                <path d="M64.19 107.3c-.5.13.11.53 0 .85.16-.15.11-.71 0-.85Z" fill="#ffffff" fill-rule="evenodd"/>
                <path d="M70 98.36c0-.16-.37 0-.55-.11.04.15.43.12.55.11Z" fill="#ffffff" fill-rule="evenodd"/>
                <path d="M68.91 98.73c0-.18-.25-.14-.42-.16 0 .13.29.09.13.2.05.12.18-.07.29-.04Z" fill="#ffffff" fill-rule="evenodd"/>
                <path d="M68.16 98.52c-.08.1 0 .09 0 .19s.22 0 .21-.14a.17.17 0 0 1-.13.05s0-.11-.08-.1Z" fill="#ffffff" fill-rule="evenodd"/>
                <path d="M68.2 98.47c-.11-.14-.26.15-.41 0 .04.23.34.14.41 0Z" fill="#ffffff" fill-rule="evenodd"/>
                <path d="M63.18 96.88a6.43 6.43 0 0 0-1.75 0c.57.53 1.17-.15 1.75 0Z" fill="#ffffff" fill-rule="evenodd"/>
                <path d="M64.89 112c-.06 0-.36-.21-.37 0 .17-.08.18 0 .37 0Z" fill="#ffffff" fill-rule="evenodd"/>
                <path d="M64.42 97.56c0-.07-.48.07-.58-.06-.12.16.49.12.58.06Z" fill="#ffffff" fill-rule="evenodd"/>
                <path d="M67.58 102.45c-.08-.07-.11-.17-.25-.15s-.14.1-.13.24c.12-.11.19-.17.38-.09Z" fill="#ffffff" fill-rule="evenodd"/>
                <path d="M65 106.82c-.09.19.23.42.46.53.08-.15-.41-.35-.46-.53Z" fill="#ffffff" fill-rule="evenodd"/>
                <path d="M65.12 104.73c.11.67.31-.47.37.19.08 0 0-.31 0-.48a2.72 2.72 0 0 1-.37.29Z" fill="#ffffff" fill-rule="evenodd"/>
                <path d="M65 100.44c0 .26.21 0 .3.08a1.47 1.47 0 0 1 0-.59c-.18.07-.17.41-.3.51Z" fill="#ffffff" fill-rule="evenodd"/>
                <path d="M65.42 101.22c.09.29.29.55.32.2-.07-.17-.18-.24-.32-.2Z" fill="#ffffff" fill-rule="evenodd"/>
                <path d="M65.94 100.32c.19.24.62.53.73.14-.13-.23-.22 0-.16-.46-.08.29-.32.3-.57.32Z" fill="#ffffff" fill-rule="evenodd"/>
                <path d="M67.57 99.86c0 .65 1.13.4.86-.35-.06 0 0 .22 0 .36-.28-.21-.58.31-.86-.01Z" fill="#ffffff" fill-rule="evenodd"/>
                <path d="M65.65 104.66a1.44 1.44 0 0 0 .1.46c.13-.08 0-.83.31-.52.18-.14-.14-.17-.14-.34-.08.15-.09.4-.27.4Z" fill="#ffffff" fill-rule="evenodd"/>
                <path d="M65.39 100.15c.12.48.38-.08.52-.19a.88.88 0 0 1-.09-.35c.26.26.14-.28.32-.4s.06.23.14.22.26-.13.2-.5c-.29.24-.26.19-.59.08v.35a.27.27 0 0 0-.29.16c0-.31.05-.43-.1-.58s.27 0 .14-.38l-.32.4c.27.12.14.38.13.82.09-.24.14 0 .29 0 .11.43-.16.33-.35.37Z" fill="#ffffff" fill-rule="evenodd"/>
                <path d="M66 105.08c.15-.17.16-.28.35-.16 0-.2 0-.31.09-.37a.54.54 0 0 0-.44.53Z" fill="#ffffff" fill-rule="evenodd"/>
                <path d="M66.47 99.53c.21.4.29-.28.31-.52.07.07.09.26.2.21-.2-.79-.31.2-.51.31Z" fill="#ffffff" fill-rule="evenodd"/>
                <path d="M69.15 104.68c-.24-.09-.58.11-.75.27.18.12.46-.22.75-.27Z" fill="#ffffff" fill-rule="evenodd"/>
                <path d="M69 104.09c0-.1-.14 0-.2 0a.39.39 0 0 1 0 .24c.04-.08.06-.21.2-.24Z" fill="#ffffff" fill-rule="evenodd"/>
                <path d="M68.71 103.75c0-.12-.17-.24-.21-.1a.19.19 0 0 0 .21.1Z" fill="#ffffff" fill-rule="evenodd"/>
                <path d="M68.29 104.08c-.12-.11-.4-.26-.5-.1.07.1.15 0 .08.19.07-.11.24-.1.42-.09Z" fill="#ffffff" fill-rule="evenodd"/>
                <path d="M67.12 104.16c.07-.26-.76-.24-.63.08.05 0 0-.09 0-.14.21.1.51-.1.63.06Z" fill="#ffffff" fill-rule="evenodd"/>
                <path d="M58.81 99.18c-.2 0-.05.39-.1.55.23-.08.2-.32.1-.55Z" fill="#ffffff" fill-rule="evenodd"/>
                <path d="M64.78 100.52a.2.2 0 0 0-.25-.15c.03.12.16.11.25.15Z" fill="#ffffff" fill-rule="evenodd"/>
                <path d="M62.24 100.33c-.05-.18-.35 0-.54 0 0 .13.23 0 .16.15.14-.18.14-.1.38-.15Z" fill="#ffffff" fill-rule="evenodd"/>
                <path d="M68.66 104.18c0-.2-.27 0-.38 0a.17.17 0 0 1 0 .14c-.16-.12-.11.11-.25.14s0-.09-.08-.1-.19 0-.17.19c.22-.07.19-.06.42 0v-.14a.27.27 0 0 0 .21 0c0 .13-.06.17 0 .24s-.19 0-.13.15l.25-.14c-.18-.07-.07-.17 0-.34-.09.09-.11 0-.21 0 .02-.19.21-.13.34-.14Z" fill="#ffffff" fill-rule="evenodd"/>
                <path d="M67.87 104.36c-.13-.17-.23.1-.26.19s0-.11-.12-.1c.09.34.23-.06.38-.09Z" fill="#ffffff" fill-rule="evenodd"/>
                <path d="M67.58 104.59c0-.21-.2-.08-.21 0s.11-.07.21 0Z" fill="#ffffff" fill-rule="evenodd"/>
                <path d="M67.13 103.3c.05-.12-.31.07-.46 0 .12.19.33.01.46 0Z" fill="#ffffff" fill-rule="evenodd"/>
                <path d="M69.57 105.39c0-.26-.24 0-.38-.15.03.17.29.07.38.15Z" fill="#ffffff" fill-rule="evenodd"/>
                <path d="M69.43 106.48v-.15c0 .11-.29 0-.25.14Z" fill="#ffffff" fill-rule="evenodd"/>
                <path d="M69.25 92.64c0-.28-.29-.1-.3 0s.15-.09.3 0Z" fill="#ffffff" fill-rule="evenodd"/>
                <path d="M68.16 103c-.08-.26-.51 0-.77 0 0 .19.33-.06.23.22.16-.22.26-.12.54-.22Z" fill="#ffffff" fill-rule="evenodd"/>
                <path d="M56.24 99.83c.06-.12.31 0 .25.14-.14.03-.07-.22-.25-.14Z" fill="#ffffff" fill-rule="evenodd"/>
                <path d="M60.73 99.9a.81.81 0 0 1-.45-.46c.13 0 .22.3.27.08a.34.34 0 0 1 .18.38Z" fill="#ffffff" fill-rule="evenodd"/>
                <path d="M65.25 105.76a.17.17 0 0 0 0-.14c.22.15.24.07.55 0-.07.26-.37.22-.55.14Z" fill="#ffffff" fill-rule="evenodd"/>
                <path d="M65.48 104c.06-.15.32-.09.5-.11-.11.11-.24.05-.5.11Z" fill="#ffffff" fill-rule="evenodd"/>
                <path d="M65.92 105.75c0-.28.28.06.21-.15s.14 0 .12.05c.58-.05.19.11 0 0v.09c0 .03-.2-.03-.33.01Z" fill="#ffffff" fill-rule="evenodd"/>
                <path d="M66.8 105.73c0-.13.17-.09.29-.1-.04.1-.16.11-.29.1Z" fill="#ffffff" fill-rule="evenodd"/>
                <path d="M67.17 105.78c0-.15.09-.16.21-.15s-.06.18-.21.15Z" fill="#ffffff" fill-rule="evenodd"/>
                <path d="M67.46 105.67c0-.23.56.24.46-.15a.26.26 0 0 1 0 .29c-.2-.05-.2-.09-.46-.14Z" fill="#ffffff" fill-rule="evenodd"/>
                <path d="M69.38 105.3c0-.1.1-.1.2-.1s0 .18 0 .29-.1-.17-.2-.19Z" fill="#ffffff" fill-rule="evenodd"/>
                <path d="M57.14 98.16c.26 0 .1.15 0 .16s.09-.08 0-.16Z" fill="#ffffff" fill-rule="evenodd"/>
                <path d="M65.92 100a.16.16 0 0 1 .13.13h-.25c-.12 0 0-.06 0-.1s.14.02.12-.03Z" fill="#ffffff" fill-rule="evenodd"/>
                <path d="M59.6 101.34c.2 0 .29.17 0 .16Z" fill="#ffffff" fill-rule="evenodd"/>
                <path d="M62.34 101.54c.14 0 .06.19 0 .22-.19-.05.05-.14 0-.22Z" fill="#ffffff" fill-rule="evenodd"/>
                <path d="M61.54 101.78a.41.41 0 0 1 .41-.25c.05.47-.28.16-.41.25Z" fill="#ffffff" fill-rule="evenodd"/>
                <path d="M62.3 100.33c-.27-.22.4-.48.3 0-.15.16-.25-.33-.3 0Z" fill="#ffffff" fill-rule="evenodd"/>
                <path d="M62.71 100.32c0-.3.52-.44.48 0-.19-.17-.19.05-.48 0Z" fill="#ffffff" fill-rule="evenodd"/>
                <path d="M63.37 96.86a.21.21 0 0 1 .13.19c-.2.01-.23-.14-.13-.19Z" fill="#ffffff" fill-rule="evenodd"/>
                <path d="M65.38 99.77c0-.12.11-.08.11-.24.11.34.15.27.3.35-.09.33-.35.03-.41-.11Z" fill="#ffffff" fill-rule="evenodd"/>
                <path d="M66 104.11c.25 0 .09.15.14.22-.2 0-.14-.13-.14-.22Z" fill="#ffffff" fill-rule="evenodd"/>
                <path d="M66 99h-.2c0-.2.41-.34.18-.54-.14 0 0 .17-.12.19s.06-.13-.07-.25h.38c.08.27 0 .24 0 .57-.23-.09-.1.18-.19.16.25 0 .21.12 0 .19.07.09.17 0 .26 0-.14.11.11.37-.18.32 0 0 0 .06-.06.07s.28-.07.26.09c-.22-.11-.17.08-.26.13-.38-.17-.1-.58-.27-.79A.82.82 0 0 1 66 99Z" fill="#ffffff" fill-rule="evenodd"/>
                <path d="M58.81 98.49c.15 0-.09.24-.06.35-.19-.09.05-.25.06-.35Z" fill="#ffffff" fill-rule="evenodd"/>
                <path d="M63.6 100.3a.39.39 0 0 1 .53-.25c-.13.2-.36.14-.53.25Z" fill="#ffffff" fill-rule="evenodd"/>
                <path d="M65.37 97c.1-.23.41-.06.41-.49.22.31-.3.79-.41.49Z" fill="#ffffff" fill-rule="evenodd"/>
                <path d="M65 104.75c.35-.21 1 .09 1.25-.26 0 .12.21.08.21.24-.42-.12-.57.15-.88 0-.17.14-.48.03-.58.02Z" fill="#ffffff" fill-rule="evenodd"/>
                <path d="M66.57 104.53c-.06-.12.2.09.34 0 0 .14-.23.13-.38.15.06-.02.21-.1.04-.15Z" fill="#ffffff" fill-rule="evenodd"/>
                <path d="M67.88 105.28s.4 0 .5-.1-.56.4-.58.1a.07.07 0 0 1 .08 0Z" fill="#ffffff" fill-rule="evenodd"/>
                <path d="M68.46 105.37c0 .12.23.19.34.28 0-.14.43-.08.75-.11-.15.15-.94.29-1 0h-.46a2.57 2.57 0 0 1 1.21-.17c-.12.08-.63-.03-.84 0Z" fill="#ffffff" fill-rule="evenodd"/>
                <path d="M69.71 105.3a.79.79 0 0 0 .17.14c0 .06-.1 0-.17 0s0-.15-.08-.14c.1-.07.09-.25.24-.25.06.24-.11.18-.16.25Z" fill="#ffffff" fill-rule="evenodd"/>
                <path d="M65.7 109.91a.38.38 0 0 1-.28-.47c.22.04.21.29.28.47Z" fill="#ffffff" fill-rule="evenodd"/>
                <path d="M65.36 105.15c-.33-.1 0-.66 0-1 .24 0-.08.44.28.31-.34.19-.18.33-.28.69Z" fill="#ffffff" fill-rule="evenodd"/>
                <path d="M69.05 107.11a.38.38 0 0 1 0 .35.31.31 0 0 1 0-.35Z" fill="#ffffff" fill-rule="evenodd"/>
                <path d="M63.57 96c0 .19.19 0 .33.06.03-.12-.23-.06-.33-.06Z" fill="#ffffff" fill-rule="evenodd"/>
                <path d="M58.71 100.54c-.06.07.28-.07.38 0-.11-.09.09-.11.17-.15-.08-.1-.21 0-.38 0 .19.05-.07.11-.17.15Z" fill="#ffffff" fill-rule="evenodd"/>
                <path d="M64.16 102.7c-.12 0 0 .28-.06.39.26 0 .33-.35.38-.69Z" fill="#ffffff" fill-rule="evenodd"/>
                <path d="M62.27 100.3c0 .07-.19.06-.37.09l-.09-.06c-.09-.06.3.03.46-.03Z" fill="#ffffff" fill-rule="evenodd"/>
                <path d="M64 96c0 .19-.19 0-.34.06-.05-.12.2-.06.34-.06Z" fill="#ffffff" fill-rule="evenodd"/>
                <path d="M60.87 95.51c-.15-.06-.19 0-.33 0s.32-.17.33 0Z" fill="#ffffff" fill-rule="evenodd"/>
                <path d="M56.41 95.53c0 .16-.22 0-.25.11-.08 0 .13-.16 0-.23.1-.1.12.12.25.12Z" fill="#ffffff" fill-rule="evenodd"/>
                <path d="M55.62 96.63c.05 0 0 0 0-.08.27 0 .45.18.71.08 0-.07-.22 0-.25-.06s.17 0 .33 0v.17h-.76c.13-.1-.23 0-.21-.09 0 .12-.15.1-.25 0s.07.07 0 .11-.48 0-.42-.08-.08 0-.09 0 .09.13-.12.12c.14-.1-.1-.08-.17-.11.22-.18.76-.05 1-.13.16-.01.18.04.23.07Z" fill="#ffffff" fill-rule="evenodd"/>
                <path d="M63.24 100.75h.12c.12 0-.13.06 0 .06s-.24.06-.34 0 .36-.01.22-.06Z" fill="#ffffff" fill-rule="evenodd"/>
                <path d="M63.1 99c0 .15-.14.19 0 .32s.07-.09 0-.09a.19.19 0 0 1 .2-.1c-.01-.08-.07-.13-.2-.13Z" fill="#ffffff" fill-rule="evenodd"/>
                <path d="M63.35 99.07c.23.2.06.53.43.68-.11-.12-.09-.6-.43-.68Z" fill="#ffffff" fill-rule="evenodd"/>
                <path d="M49.53 96.83c-.21 0-.4.07-.42.22a1.17 1.17 0 0 0 .49 0 .21.21 0 0 1-.07-.22Z" fill="#ffffff" fill-rule="evenodd"/>
                <path d="M61.33 98.71c-.19 0-.07.15-.1.22.14 0 .09-.13.1-.22Z" fill="#ffffff" fill-rule="evenodd"/>
                <path d="M65.61 102.71c0 .53.36-.32.36.2.09 0 .06-.23.07-.37a2.33 2.33 0 0 1-.43.17Z" fill="#ffffff" fill-rule="evenodd"/>
                <path d="M56.86 92.68c-.25.06 0 .39 0 .59.18 0-.06-.25.21-.18-.26-.09-.14-.2-.21-.41Z" fill="#ffffff" fill-rule="evenodd"/>
                <path d="M64.24 98.57c-.1.06 0 .23-.2.23.11.09.31-.16.2-.23Z" fill="#ffffff" fill-rule="evenodd"/>
                <path d="M66.16 102.73v.37c.14 0 .12-.64.37-.36.19-.09-.13-.15-.11-.28-.05.1-.08.3-.26.27Z" fill="#ffffff" fill-rule="evenodd"/>
                <path d="M66.52 103.11c.16-.12.18-.2.36-.08 0-.16.05-.24.13-.28s-.49.05-.49.36Z" fill="#ffffff" fill-rule="evenodd"/>
                <path d="M64.21 109.5c-.29 0 .17.19-.11.19h.2a.88.88 0 0 1-.09-.19Z" fill="#ffffff" fill-rule="evenodd"/>
                <path d="M64.2 109.79a.56.56 0 0 0-.2 0c0 .08.34.06.19.2 0 .1.09-.07.15-.06s-.15-.04-.14-.14Z" fill="#ffffff" fill-rule="evenodd"/>
                <path d="M64 110c.06.09.1.1 0 .2s.13 0 .15.07.01-.27-.15-.27Z" fill="#ffffff" fill-rule="evenodd"/>
                <path d="M51.51 99.92c-.1 0-.22.07-.21.18s.27 0 .48 0c.02-.22-.23 0-.27-.18Z" fill="#ffffff" fill-rule="evenodd"/>
                <path d="M51.51 102.89c-.16 0 0 .23-.08.32.27-.04.06-.21.08-.32Z" fill="#ffffff" fill-rule="evenodd"/>
                <path d="M48 103.08c-.24 0-.09.36.13.32.03-.16-.13-.17-.13-.32Z" fill="#ffffff" fill-rule="evenodd"/>
                <path d="M67.2 97.66c.32-.54.82-.23 1.36-.22-.3-.39-1.19-.77-1.36.22Z" fill="#ffffff" fill-rule="evenodd"/>
                <path d="M51.73 105.31c-.1-.13-.28 0-.21.18.27.08.03-.2.21-.18Z" fill="#ffffff" fill-rule="evenodd"/>
                <path d="M63.5 109.34c0 .59.56.59.84.41-.16-.5-.59.05-.84-.41Z" fill="#ffffff" fill-rule="evenodd"/>
                <path d="M63.8 106.12c0 .12.23.2.08.26.08.33.38-.09.35-.38a.38.38 0 0 0-.34-.13c.01.13-.03.23-.09.25Z" fill="#ffffff" fill-rule="evenodd"/>
                <path d="M65.18 110.94c-.27.18.49.2.51 0s0-.12-.08-.13-.08 0-.09-.13-.07.42-.34.26Z" fill="#ffffff" fill-rule="evenodd"/>
                <path d="M51.67 107.73c-.13-.1-.05.33-.08.45.22-.11.03-.18.08-.45Z" fill="#ffffff" fill-rule="evenodd"/>
                <path d="M60.81 101.21a1.09 1.09 0 0 1 0 .18c.26.04.27-.21 0-.18Z" fill="#ffffff" fill-rule="evenodd"/>
                <path d="M60.65 102.12c-.38.08.09.31 0 .5.12-.07.09-.42 0-.5Z" fill="#ffffff" fill-rule="evenodd"/>
                <path d="M42.74 98.24c-.21.06-.19.3-.15.41.12-.09.08-.29.15-.41Z" fill="#ffffff" fill-rule="evenodd"/>
                <path d="M42.72 98.92c-.23 0 0 .4-.15.59.21-.08.17-.51.15-.59Z" fill="#ffffff" fill-rule="evenodd"/>
                <path d="M43.25 100.07c-.25 0-.2.27-.22.45.17 0 .12-.31.28-.13.18-.06-.1-.21-.06-.32Z" fill="#ffffff" fill-rule="evenodd"/>
                <path d="M43 100.88c.14.1.14 0 .28 0-.06-.08 0-.24-.2-.23 0 0 .07.08.06.14s-.21.01-.14.09Z" fill="#ffffff" fill-rule="evenodd"/>
                <path d="M42.88 100.84c-.2.13.22.29 0 .45.33-.05.2-.37 0-.45Z" fill="#ffffff" fill-rule="evenodd"/>
                <path d="M41.58 105c-.09 0 .11.53-.09.64.24.1.17-.56.09-.64Z" fill="#ffffff" fill-rule="evenodd"/>
                <path d="M67.14 110.74c.15.16.22.44.51.4 0-.35.27-.28.27-.64-.25.29-.41.43-.78.24Z" fill="#ffffff" fill-rule="evenodd"/>
                <path d="M60.92 97.3c.28.1.62-.25.77-.5-.22-.14-.46.39-.77.5Z" fill="#ffffff" fill-rule="evenodd"/>
                <path d="M61.35 100.62c.09.39.24-.28.29.11.06 0 0-.18 0-.28a2.59 2.59 0 0 1-.29.17Z" fill="#ffffff" fill-rule="evenodd"/>
                <path d="M61.25 98.11c0 .15.16 0 .23 0a.57.57 0 0 1 0-.34c-.14.09-.14.28-.23.34Z" fill="#ffffff" fill-rule="evenodd"/>
                <path d="M61.57 98.56c.07.17.22.33.24.12a.2.2 0 0 0-.24-.12Z" fill="#ffffff" fill-rule="evenodd"/>
                <path d="M62 98c.14.14.47.32.55.08-.09-.13-.17 0-.12-.26-.09.18-.28.18-.43.18Z" fill="#ffffff" fill-rule="evenodd"/>
                <path d="M63.21 97.76c0 .38.86.24.66-.21v.22c-.22-.13-.45.23-.66-.01Z" fill="#ffffff" fill-rule="evenodd"/>
                <path d="M61.76 100.57c0 .15.05.18.08.28s0-.49.23-.31c.14-.08-.11-.1-.11-.2-.06.09-.07.24-.2.23Z" fill="#ffffff" fill-rule="evenodd"/>
                <path d="M61.54 97.94c.1.28.29 0 .4-.11a.52.52 0 0 1-.07-.21c.2.15.11-.17.25-.23s.05.13.1.13.2-.09.15-.3c-.21.14-.19.11-.45 0v.2a.22.22 0 0 0-.22.1c0-.18 0-.25-.09-.34s.21 0 .12-.23l-.25.24c.21.07.11.22.1.48.07-.14.11 0 .23 0 .09.33-.12.24-.27.27Z" fill="#ffffff" fill-rule="evenodd"/>
                <path d="M62.06 100.82c.11-.1.12-.16.26-.09 0-.12 0-.19.07-.22s-.39.08-.33.31Z" fill="#ffffff" fill-rule="evenodd"/>
                <path d="M62.37 97.57c.16.23.22-.16.24-.3 0 0 .06.15.15.12-.16-.46-.24.12-.39.18Z" fill="#ffffff" fill-rule="evenodd"/>
                <path d="M47.52 96.61c-.12.27.17.65.4.83.17-.2-.33-.51-.4-.83Z" fill="#ffffff" fill-rule="evenodd"/>
                <path d="M44.21 96.63c-.4 0 .24.26-.15.27 0 .06.17 0 .28 0a2.69 2.69 0 0 1-.13-.27Z" fill="#ffffff" fill-rule="evenodd"/>
                <path d="M46.69 96.83c-.15 0 0 .16-.07.23a.65.65 0 0 1 .34 0c-.04-.06-.23-.12-.27-.23Z" fill="#ffffff" fill-rule="evenodd"/>
                <path d="M46.2 97.1c-.17.05-.35.18-.14.23a.2.2 0 0 0 .14-.23Z" fill="#ffffff" fill-rule="evenodd"/>
                <path d="M46.67 97.56c-.16.13-.37.44-.15.55.15-.08 0-.17.28-.09-.16-.08-.14-.27-.13-.46Z" fill="#ffffff" fill-rule="evenodd"/>
                <path d="M46.78 98.84c-.37-.08-.34.84.12.69 0-.06-.12 0-.2 0 .14-.23-.13-.53.08-.69Z" fill="#ffffff" fill-rule="evenodd"/>
                <path d="M46.17 101.3c-.15 0 0 .22-.08.32.18-.05.16-.19.08-.32Z" fill="#ffffff" fill-rule="evenodd"/>
                <path d="M45.82 104.58c-.15 0-.25.11-.22.27.17-.02.16-.17.22-.27Z" fill="#ffffff" fill-rule="evenodd"/>
                <path d="M45.54 107.36c-.25.06 0 .39 0 .6.18 0-.06-.26.21-.19-.26-.11-.13-.19-.21-.41Z" fill="#ffffff" fill-rule="evenodd"/>
                <path d="M44.2 97h-.28c-.09 0 .48.09.27.28.07.14.12-.1.21-.09-.08 0-.22-.02-.2-.19Z" fill="#ffffff" fill-rule="evenodd"/>
                <path d="M46.82 97.15c-.29.06 0 .3.06.41a.56.56 0 0 1 .21 0c-.17.18.15.13.2.28s-.14 0-.14.09.06.2.27.18c-.11-.23-.08-.2 0-.45h-.21a.19.19 0 0 0-.06-.22c.18 0 .24.06.35 0s0 .21.2.14l-.2-.27c-.1.2-.23.08-.48 0 .12.09 0 .11 0 .23-.28-.04-.19-.24-.2-.39Z" fill="#ffffff" fill-rule="evenodd"/>
                <path d="M43.91 97.31c.09.12.15.14.07.27.12 0 .18 0 .2.09s-.03-.36-.27-.36Z" fill="#ffffff" fill-rule="evenodd"/>
                <path d="M47.08 98c-.25.14.13.25.27.28-.05 0-.16 0-.14.14.47-.08-.09-.24-.13-.42Z" fill="#ffffff" fill-rule="evenodd"/>
                <path d="M62.71 102.28c.35.17.85-.22 1.1-.53-.27-.22-.68.43-1.1.53Z" fill="#ffffff" fill-rule="evenodd"/>
                <path d="M63.16 95.48c-.28 0 .17.19-.1.19h.2a1.78 1.78 0 0 1-.1-.19Z" fill="#ffffff" fill-rule="evenodd"/>
                <path d="M63 103.39c0 .2.22 0 .31.1a.9.9 0 0 1 0-.46c-.15.06-.17.3-.31.36Z" fill="#ffffff" fill-rule="evenodd"/>
                <path d="M63.35 104c.06.24.24.47.3.2a.27.27 0 0 0-.3-.2Z" fill="#ffffff" fill-rule="evenodd"/>
                <path d="M64 103.42c.16.21.58.49.72.2-.1-.19-.22 0-.11-.37-.14.21-.39.19-.61.17Z" fill="#ffffff" fill-rule="evenodd"/>
                <path d="M65.67 103.28c-.11.49 1.11.45.92-.16-.08 0-.06.17-.07.27-.24-.19-.6.17-.85-.11Z" fill="#ffffff" fill-rule="evenodd"/>
                <path d="M62.83 111.2c0 .21.3 0 .43.11-.06-.24-.26-.21-.43-.11Z" fill="#ffffff" fill-rule="evenodd"/>
                <path d="M67.21 111.69c0 .2.14.33.36.29-.04-.23-.23-.21-.36-.29Z" fill="#ffffff" fill-rule="evenodd"/>
                <path d="M64.12 103.13c-.19 0 0 .28 0 .43.13 0 0-.19.15-.13-.19-.09-.1-.14-.15-.3Z" fill="#ffffff" fill-rule="evenodd"/>
                <path d="M45.79 93.22c-.14 0 0 .2-.14.23a.37.37 0 0 1-.14-.14c-.21.08 0 .24.27.18-.05-.16.14-.19.01-.27Z" fill="#ffffff" fill-rule="evenodd"/>
                <path d="M63.16 95.77a.49.49 0 0 0-.2 0c0 .08.34.06.19.2.05.1.08-.07.15-.06s-.16-.04-.14-.14Z" fill="#ffffff" fill-rule="evenodd"/>
                <path d="M63.42 103.22c.08.38.4 0 .55-.08a.69.69 0 0 1-.06-.28c.24.23.17-.2.37-.26s0 .18.12.18.27-.07.25-.36c-.31.15-.28.11-.61 0v.28a.32.32 0 0 0-.31.08c0-.23.09-.32 0-.46s.27.06.18-.27l-.36.27c.26.13.11.31 0 .64.12-.17.15 0 .3 0 .04.36-.23.25-.43.26Z" fill="#ffffff" fill-rule="evenodd"/>
                <path d="M63 96c.06.09.11.1 0 .2a.16.16 0 0 1 .15.07S63.12 96 63 96Z" fill="#ffffff" fill-rule="evenodd"/>
                <path d="M64.58 102.88c.18.34.33-.18.37-.36.06.06.06.22.18.19-.13-.63-.33.12-.55.17Z" fill="#ffffff" fill-rule="evenodd"/>
                <path d="M45.87 92.63c0-.12-.23-.26-.34-.14s.22.05.34.14Z" fill="#ffffff" fill-rule="evenodd"/>
                <path d="M45.4 95c-.16-.07.17.31 0 .41.2-.12.27.1.34.19.25-.09.06-.23.08-.41-.18.24-.33-.04-.42-.19Z" fill="#ffffff" fill-rule="evenodd"/>
                <path d="M65.52 97.53c-.11 0-.21.07-.22.23h.26a.34.34 0 0 1-.04-.23Z" fill="#ffffff" fill-rule="evenodd"/>
                <path d="M69.31 93.38c-.13.06 0 .39 0 .6.09 0 0-.26.11-.18-.14-.12-.07-.2-.11-.42Z" fill="#ffffff" fill-rule="evenodd"/>
                <path d="M64.56 100.33a.86.86 0 0 0 .51.14c.03-.22-.37-.25-.51-.14Z" fill="#ffffff" fill-rule="evenodd"/>
                <path d="M66.54 100.63a.2.2 0 0 0-.11.18c.08.11.14 0 .25 0 .01-.23-.12-.01-.14-.18Z" fill="#ffffff" fill-rule="evenodd"/>
                <path d="M66.54 103.6c-.08 0 0 .22 0 .31.1-.03-.01-.18 0-.31Z" fill="#ffffff" fill-rule="evenodd"/>
                <path d="M58.92 99.47c-.05.24.67.09.6-.12-.31-.05-.33.14-.6.12Z" fill="#ffffff" fill-rule="evenodd"/>
                <path d="M69 108.62c.15.17.07.45.06.74.11-.17.21-.65-.06-.74Z" fill="#ffffff" fill-rule="evenodd"/>
                <path d="M66.66 106c0-.14-.15 0-.11.18s.01-.18.11-.18Z" fill="#ffffff" fill-rule="evenodd"/>
                <path d="M66.63 108.44c-.07-.11 0 .33 0 .45.07-.12-.03-.22 0-.45Z" fill="#ffffff" fill-rule="evenodd"/>
                <path d="M68.19 109v.19c.14.04.14-.19 0-.19Z" fill="#ffffff" fill-rule="evenodd"/>
                <path d="M68.11 109.92c-.2.09 0 .32 0 .51a.81.81 0 0 0 0-.51Z" fill="#ffffff" fill-rule="evenodd"/>
                <path d="M62 98.94c-.11.06-.1.31-.08.41a1.57 1.57 0 0 0 .08-.41Z" fill="#ffffff" fill-rule="evenodd"/>
                <path d="M62 99.63c-.12 0 0 .4-.08.59.08-.08.08-.51.08-.59Z" fill="#ffffff" fill-rule="evenodd"/>
                <path d="M62.27 100.77c-.12 0-.1.27-.11.46.09 0 .06-.31.14-.14.1-.09-.05-.2-.03-.32Z" fill="#ffffff" fill-rule="evenodd"/>
                <path d="M62.12 101.59c.07.09.07 0 .14 0s0-.25-.1-.23a.2.2 0 0 1 0 .14s-.05 0-.04.09Z" fill="#ffffff" fill-rule="evenodd"/>
                <path d="M60.81 97.28c.24.2.54-.21.86 0-.1-.28-.67-.18-.86 0Z" fill="#ffffff" fill-rule="evenodd"/>
                <path d="M65 106.61a19.59 19.59 0 0 0 3.59 0c-1.22-.72-2.44.22-3.59 0Z" fill="#ffffff" fill-rule="evenodd"/>
                <path d="M62.44 105.67c.08.09 1-.1 1.19.09.24-.23-1.01-.17-1.19-.09Z" fill="#ffffff" fill-rule="evenodd"/>
                <path d="M60.7 97.73c0-.16-.12-.11-.1-.28-.08 0 0 .29.07.23s-.05.1-.11.09c.04.23.11.04.14-.04Z" fill="#ffffff" fill-rule="evenodd"/>
                <path d="M65.34 108.06c.14.1.32-.24.39-.5-.11-.14-.23.44-.39.5Z" fill="#ffffff" fill-rule="evenodd"/>
                <path d="M68.47 108.42c0 .39.12-.28.15.11v-.28a.9.9 0 0 1-.15.17Z" fill="#ffffff" fill-rule="evenodd"/>
                <path d="M65.51 108.87c0 .15.08 0 .12 0a1 1 0 0 1 0-.35c-.07.11-.07.29-.12.35Z" fill="#ffffff" fill-rule="evenodd"/>
                <path d="M68.58 106.37c0 .16.12.32.13.11s-.07-.14-.13-.11Z" fill="#ffffff" fill-rule="evenodd"/>
                <path d="M65.88 108.8c.07.14.24.31.29.08s-.09 0-.07-.27c-.03.17-.1.18-.22.19Z" fill="#ffffff" fill-rule="evenodd"/>
                <path d="M66.52 108.53c0 .37.45.23.34-.21v.21c-.11-.12-.23.18-.34 0Z" fill="#ffffff" fill-rule="evenodd"/>
                <path d="M68.68 108.38a1.42 1.42 0 0 0 0 .27c0-.05 0-.49.12-.31.07-.08 0-.1 0-.19-.05.08-.05.23-.12.23Z" fill="#ffffff" fill-rule="evenodd"/>
                <path d="M65.66 108.7c0 .28.15 0 .21-.11a.87.87 0 0 1 0-.21c.1.15 0-.16.13-.23s0 .13.05.13.1-.08.08-.3c-.11.14-.1.11-.23 0v.21c-.06 0-.09 0-.11.09 0-.18 0-.25-.05-.34s.11 0 .06-.22c0 .07-.08.16-.13.23.11.07.06.23.06.48 0-.14 0 0 .11 0 0 .3-.1.24-.18.27Z" fill="#ffffff" fill-rule="evenodd"/>
                <path d="M68.84 108.63c0-.1.06-.17.13-.1a.37.37 0 0 1 0-.22s-.14.08-.13.32Z" fill="#ffffff" fill-rule="evenodd"/>
                <path d="M66.09 108.33c.08.24.11-.16.12-.3 0 0 0 .15.08.12-.08-.46-.12.12-.2.18Z" fill="#ffffff" fill-rule="evenodd"/>
                <path d="M64.48 97.32a1.27 1.27 0 0 0 .21.82c.08-.2-.17-.5-.21-.82Z" fill="#ffffff" fill-rule="evenodd"/>
                <path d="M62.77 97.33c-.21 0 .12.27-.08.27 0 .07.09 0 .15.05-.04-.17-.05-.2-.07-.32Z" fill="#ffffff" fill-rule="evenodd"/>
                <path d="M64.05 97.54c-.08 0 0 .16 0 .23s.07 0 .18 0-.16-.12-.18-.23Z" fill="#ffffff" fill-rule="evenodd"/>
                <path d="M63.8 97.81c-.09 0-.18.18-.08.22s.08-.11.08-.22Z" fill="#ffffff" fill-rule="evenodd"/>
                <path d="M64 98.27c-.08.13-.19.44-.07.55.07-.09 0-.17.14-.09-.07-.08-.07-.27-.07-.46Z" fill="#ffffff" fill-rule="evenodd"/>
                <path d="M64.1 99.55c-.19-.08-.17.83.06.68h-.1c.07-.23-.06-.49.04-.68Z" fill="#ffffff" fill-rule="evenodd"/>
                <path d="M55.58 101.2c0 .16.42 0 .59.08-.09-.17-.34-.15-.59-.08Z" fill="#ffffff" fill-rule="evenodd"/>
                <path d="M61.71 101.57c.07.15.21.24.51.21-.05-.16-.32-.15-.51-.21Z" fill="#ffffff" fill-rule="evenodd"/>
                <path d="M66.91 101.86c.11.24.73 0 1.11 0 0-.17-.48.06-.34-.2-.22.25-.37.13-.77.2Z" fill="#ffffff" fill-rule="evenodd"/>
                <path d="M62.76 97.74h-.14c-.05 0 .25.09.14.28s.06-.1.11-.09-.12-.06-.11-.19Z" fill="#ffffff" fill-rule="evenodd"/>
                <path d="M64.12 97.86c-.15.06 0 .3 0 .41a.14.14 0 0 1 .11 0c-.09.18.08.12.1.27s-.07 0-.07.09 0 .21.14.19a.66.66 0 0 1 0-.46h-.11a.47.47 0 0 0 0-.23c.09 0 .12.06.17 0s0 .21.11.14c0-.1-.07-.18-.1-.28 0 .2-.12.09-.25 0 .06.09 0 .12 0 .23s-.1-.22-.1-.36Z" fill="#ffffff" fill-rule="evenodd"/>
                <path d="M62.62 98c0 .12.07.14 0 .28s.09 0 .11.09.01-.37-.11-.37Z" fill="#ffffff" fill-rule="evenodd"/>
                <path d="M64.25 98.73c-.13.13.07.24.14.28s-.08 0-.07.13c.24-.14-.05-.25-.07-.41Z" fill="#ffffff" fill-rule="evenodd"/>
                <path d="M69.75 110.73c-.09 0 0 .28 0 .43s0-.19.08-.13c-.1-.09-.05-.14-.08-.3Z" fill="#ffffff" fill-rule="evenodd"/>
                <path d="M58.14 95.94c-.11 0-.21.07-.22.23h.25a.25.25 0 0 1-.03-.23Z" fill="#ffffff" fill-rule="evenodd"/>
                <path d="M61.92 91.79c-.13.06 0 .39 0 .59.09 0 0-.25.11-.18-.13-.12-.03-.2-.11-.41Z" fill="#ffffff" fill-rule="evenodd"/>
                <path d="M59.16 99s-.11.06-.11.18.14 0 .25 0c.01-.18-.12.03-.14-.18Z" fill="#ffffff" fill-rule="evenodd"/>
                <path d="M61.65 102.75c0 .15.42 0 .6.08-.08-.25-.35-.05-.6-.08Z" fill="#ffffff" fill-rule="evenodd"/>
                <path d="M63.45 95.1c-.13 0-.05.36.06.32s-.07-.18-.06-.32Z" fill="#ffffff" fill-rule="evenodd"/>
                <path d="M59.45 99.83c.32-.28.82-.12 1.37-.11-.31-.2-1.2-.4-1.37.11Z" fill="#ffffff" fill-rule="evenodd"/>
                <path d="M66.18 102.56c-.26.09.09.27.33.21.15-.26-.36-.03-.33-.21Z" fill="#ffffff" fill-rule="evenodd"/>
                <path d="M61.87 102.21c0 .3.56.3.84.21-.16-.26-.59.03-.84-.21Z" fill="#ffffff" fill-rule="evenodd"/>
                <path d="M62.16 100.54c.05.07.24.11.08.14.08.17.38-.05.35-.2a.64.64 0 0 0-.34-.07c.01.08-.02.12-.09.13Z" fill="#ffffff" fill-rule="evenodd"/>
                <path d="M63.55 103c-.26.09.49.1.51 0s-.06 0-.06 0-.08 0-.08-.07-.1.19-.37.07Z" fill="#ffffff" fill-rule="evenodd"/>
                <path d="M64.59 109.73c-.19.13.62 0 .85.08-.22-.21-.44-.03-.85-.08Z" fill="#ffffff" fill-rule="evenodd"/>
                <path d="M65.68 106.81H66c.1-.25-.38-.26-.32 0Z" fill="#ffffff" fill-rule="evenodd"/>
                <path d="M65.52 102.93c.14.09.21.23.5.21 0-.18.28-.14.27-.33a.81.81 0 0 1-.77.12Z" fill="#ffffff" fill-rule="evenodd"/>
                <path d="M64.48 99.57c.18-.26-.46-.59-.93-.74-.27.17.73.45.93.74Z" fill="#ffffff" fill-rule="evenodd"/>
                <path d="M64.57 106.28c.74-.08-.51-.23.21-.28h-.53a2 2 0 0 1 .32.28Z" fill="#ffffff" fill-rule="evenodd"/>
                <path d="M66 99.27c.28 0 0-.16.09-.23a2 2 0 0 1-.65 0c.1.14.44.13.56.23Z" fill="#ffffff" fill-rule="evenodd"/>
                <path d="M66.84 99c.32-.07.61-.21.22-.24-.18.01-.26.09-.22.24Z" fill="#ffffff" fill-rule="evenodd"/>
                <path d="M65.85 98.57c.27-.14.59-.46.16-.54-.25.1 0 .17-.5.12.32.06.33.24.34.42Z" fill="#ffffff" fill-rule="evenodd"/>
                <path d="M65.36 97.37c.7 0 .43-.84-.39-.64h.39c-.23.21.34.43 0 .64Z" fill="#ffffff" fill-rule="evenodd"/>
                <path d="M64.49 105.89a2.49 2.49 0 0 0 .51-.07c-.09-.1-.91 0-.57-.24-.15-.12-.19.11-.37.11.16.06.44.07.43.2Z" fill="#ffffff" fill-rule="evenodd"/>
                <path d="M65.67 99c.53-.09-.08-.28-.2-.39a1.52 1.52 0 0 1-.38.07c.27-.19-.32-.1-.44-.24s.25 0 .24-.1-.15-.19-.55-.15c.26.21.21.19.08.44h.39c0 .1 0 .16.17.21-.33 0-.46 0-.64.08s0-.21-.41-.11l.44.24c.13-.21.42-.11.9-.1-.26-.07 0-.11 0-.21.46-.1.36.1.4.26Z" fill="#ffffff" fill-rule="evenodd"/>
                <path d="M65 105.6c-.19-.11-.31-.12-.18-.26a.61.61 0 0 1-.41-.06.59.59 0 0 0 .59.32Z" fill="#ffffff" fill-rule="evenodd"/>
                <path d="M65 98.18c.44-.16-.3-.22-.57-.23.08 0 .29-.06.24-.15-.88.2.21.2.33.38Z" fill="#ffffff" fill-rule="evenodd"/>
                <path d="M57.1 95.73a1.26 1.26 0 0 0 .2.82c.09-.2-.16-.5-.2-.82Z" fill="#ffffff" fill-rule="evenodd"/>
                <path d="M56.74 96.27c-.15.06 0 .29 0 .41a.14.14 0 0 1 .1-.05c-.08.18.08.13.11.28s-.07 0-.07.09 0 .2.14.19a.66.66 0 0 1 0-.46h-.11a.31.31 0 0 0 0-.23c.09 0 .13.06.18 0s0 .2.11.14c0-.1-.07-.19-.11-.28-.05.2-.12.08-.25 0 .07.09 0 .11 0 .23s-.1-.18-.1-.32Z" fill="#ffffff" fill-rule="evenodd"/>
                <path d="M56.87 97.14c-.13.13.07.24.14.27s-.08 0-.08.14c.25-.1-.04-.25-.06-.41Z" fill="#ffffff" fill-rule="evenodd"/>
                <path d="M63.59 93.92c-.08 0 0 .2-.08.23a.37.37 0 0 1-.07-.14c-.1.08 0 .25.14.19s.07-.2.01-.28Z" fill="#ffffff" fill-rule="evenodd"/>
                <path d="M63.63 93.33c0-.11-.12-.26-.18-.14s.12.05.18.14Z" fill="#ffffff" fill-rule="evenodd"/>
                <path d="M63.39 95.75c-.09-.07.08.3 0 .41.1-.12.14.09.18.18.12-.08 0-.23 0-.41-.06.21-.14-.08-.18-.18Z" fill="#ffffff" fill-rule="evenodd"/>
                <path d="M61.61 101.08c0 .19.29.15.34.28s-.06-.36-.34-.28Z" fill="#ffffff" fill-rule="evenodd"/>
                <path d="M52 113.46c-.17-.18-.07.57-.11.77.29-.23.05-.38.11-.77Z" fill="#ffffff" fill-rule="evenodd"/>
                <path d="M53 118.26c-.08-.06-.11-.16-.25-.15s-.14.11-.13.24a.3.3 0 0 1 .38-.09Z" fill="#ffffff" fill-rule="evenodd"/>
                <path d="M47 117.6a.41.41 0 0 1 .41-.25c.04.45-.29.16-.41.25Z" fill="#ffffff" fill-rule="evenodd"/>
                <path d="M47.75 116.15c-.27-.22.4-.48.3 0-.15.15-.25-.35-.3 0Z" fill="#ffffff" fill-rule="evenodd"/>
                <path d="M48.16 116.14c0-.3.52-.44.48 0-.18-.14-.21.05-.48 0Z" fill="#ffffff" fill-rule="evenodd"/>
                <path d="M48.82 112.68a.19.19 0 0 1 .13.18c-.2.01-.23-.13-.13-.18Z" fill="#ffffff" fill-rule="evenodd"/>
                <path d="M50.83 115.59c0-.13.11-.08.11-.24.11.34.15.27.3.35-.09.3-.35.02-.41-.11Z" fill="#ffffff" fill-rule="evenodd"/>
                <path d="M49.05 116.12a.39.39 0 0 1 .53-.25c-.11.2-.36.13-.53.25Z" fill="#ffffff" fill-rule="evenodd"/>
                <path d="M50.82 112.86c.1-.24.41-.06.41-.49.17.27-.3.75-.41.49Z" fill="#ffffff" fill-rule="evenodd"/>
                <path d="M49.61 118.52c-.12 0 0 .27-.06.39.26 0 .33-.35.38-.69a4 4 0 0 0-.32.3Z" fill="#ffffff" fill-rule="evenodd"/>
                <path d="M52.65 113.48c.32-.54.82-.23 1.36-.22-.3-.39-1.19-.77-1.36.22Z" fill="#ffffff" fill-rule="evenodd"/>
                <path d="M46.26 117v.18c.26.07.27-.18 0-.18Z" fill="#ffffff" fill-rule="evenodd"/>
                <path d="M46.1 117.94c-.38.08.09.31 0 .5.12-.07.09-.44 0-.5Z" fill="#ffffff" fill-rule="evenodd"/>
                <path d="M46.37 113.12c.28.1.62-.25.77-.5-.22-.14-.46.38-.77.5Z" fill="#ffffff" fill-rule="evenodd"/>
                <path d="M46.8 116.44c.09.39.24-.28.29.11.06 0 0-.18 0-.29a2.94 2.94 0 0 1-.29.18Z" fill="#ffffff" fill-rule="evenodd"/>
                <path d="M46.7 113.93c0 .15.16 0 .23 0a.57.57 0 0 1 0-.34c-.14.09-.14.28-.23.34Z" fill="#ffffff" fill-rule="evenodd"/>
                <path d="M47 114.38c.07.17.22.33.24.12a.2.2 0 0 0-.24-.12Z" fill="#ffffff" fill-rule="evenodd"/>
                <path d="M47.42 113.85c.14.14.47.31.55.08-.09-.13-.17 0-.12-.26-.06.17-.25.17-.43.18Z" fill="#ffffff" fill-rule="evenodd"/>
                <path d="M48.66 113.58c0 .38.86.23.66-.21v.22c-.22-.13-.45.18-.66-.01Z" fill="#ffffff" fill-rule="evenodd"/>
                <path d="M47.21 116.39a.58.58 0 0 0 .08.27c.09 0 0-.48.23-.3.14-.08-.11-.1-.11-.2-.06.09-.07.24-.2.23Z" fill="#ffffff" fill-rule="evenodd"/>
                <path d="M47 113.75c.1.29.3 0 .4-.11a.42.42 0 0 1-.07-.2c.2.15.11-.17.25-.24s0 .14.11.13.19-.08.14-.29c-.21.14-.19.11-.45 0v.2a.22.22 0 0 0-.22.1c0-.18 0-.25-.08-.35s.2 0 .11-.22l-.25.24c.21.07.11.22.1.48.07-.14.11 0 .23 0 .08.3-.13.24-.27.26Z" fill="#ffffff" fill-rule="evenodd"/>
                <path d="M47.51 116.64c.11-.1.12-.16.26-.1 0-.11 0-.18.07-.21s-.35.08-.33.31Z" fill="#ffffff" fill-rule="evenodd"/>
                <path d="M47.82 113.39c.16.23.22-.16.24-.31 0 0 .06.16.15.13-.16-.46-.21.12-.39.18Z" fill="#ffffff" fill-rule="evenodd"/>
                <path d="M48.16 118.09c.35.18.85-.21 1.1-.52-.26-.22-.68.43-1.1.52Z" fill="#ffffff" fill-rule="evenodd"/>
                <path d="M48.61 111.3c-.28 0 .17.19-.1.19 0 .05.12 0 .2 0a1.78 1.78 0 0 1-.1-.19Z" fill="#ffffff" fill-rule="evenodd"/>
                <path d="M48.44 119.21c0 .2.22.05.31.1a.9.9 0 0 1 0-.46c-.14.06-.16.3-.31.36Z" fill="#ffffff" fill-rule="evenodd"/>
                <path d="M48.8 119.86c.06.23.24.46.3.19a.28.28 0 0 0-.3-.19Z" fill="#ffffff" fill-rule="evenodd"/>
                <path d="M49.42 119.23c.16.22.58.5.72.21-.1-.19-.22 0-.11-.37-.11.21-.36.19-.61.16Z" fill="#ffffff" fill-rule="evenodd"/>
                <path d="M51.12 119.1c-.11.49 1.11.45.92-.16-.08 0-.06.16-.07.27-.24-.21-.6.17-.85-.11Z" fill="#ffffff" fill-rule="evenodd"/>
                <path d="M49.57 119c-.19 0 0 .28 0 .42.13 0-.05-.18.15-.13-.19-.13-.1-.19-.15-.29Z" fill="#ffffff" fill-rule="evenodd"/>
                <path d="M48.61 111.59h-.2c-.06 0 .34.06.19.2 0 .1.08-.07.15-.07s-.16-.04-.14-.13Z" fill="#ffffff" fill-rule="evenodd"/>
                <path d="M48.87 119c.08.38.4 0 .55-.08a.69.69 0 0 1-.06-.28c.24.23.17-.2.37-.27s0 .19.12.19.27-.07.25-.36c-.31.15-.28.11-.61 0v.28a.32.32 0 0 0-.31.08c0-.23.09-.32 0-.46s.28.06.18-.27l-.36.27c.26.13.11.31 0 .64.12-.17.15 0 .3 0 .04.4-.23.26-.43.26Z" fill="#ffffff" fill-rule="evenodd"/>
                <path d="M48.4 111.78c.06.09.11.1.05.2s.13 0 .15.07-.03-.26-.2-.27Z" fill="#ffffff" fill-rule="evenodd"/>
                <path d="M50 118.7c.18.33.33-.18.37-.36.06.06.06.21.18.19-.1-.63-.3.11-.55.17Z" fill="#ffffff" fill-rule="evenodd"/>
                <path d="M50 116.14a.79.79 0 0 0 .51.15c.04-.22-.36-.29-.51-.15Z" fill="#ffffff" fill-rule="evenodd"/>
                <path d="M46.26 113.1c.24.19.54-.21.86 0-.12-.31-.71-.19-.86 0Z" fill="#ffffff" fill-rule="evenodd"/>
                <path d="M47.1 118.57c0 .15.42 0 .6.08-.08-.25-.35-.05-.6-.08Z" fill="#ffffff" fill-rule="evenodd"/>
                <path d="M48.9 110.92c-.13 0 0 .36.06.32s-.07-.18-.06-.32Z" fill="#ffffff" fill-rule="evenodd"/>
                <path d="M51.63 118.38c-.26.09.09.27.33.2.15-.26-.36-.02-.33-.2Z" fill="#ffffff" fill-rule="evenodd"/>
                <path d="M49.93 115.39c.18-.26-.46-.59-.93-.74-.27.21.73.45.93.74Z" fill="#ffffff" fill-rule="evenodd"/>
                <path d="M51.44 115.09c.28 0 0-.16.09-.23a2 2 0 0 1-.65 0c.12.14.45.14.56.23Z" fill="#ffffff" fill-rule="evenodd"/>
                <path d="M52.29 114.78c.32-.07.61-.21.22-.24-.18.05-.26.13-.22.24Z" fill="#ffffff" fill-rule="evenodd"/>
                <path d="M51.3 114.39c.27-.14.59-.46.16-.54-.25.1 0 .17-.5.12.32.03.33.24.34.42Z" fill="#ffffff" fill-rule="evenodd"/>
                <path d="M50.81 113.19c.7 0 .43-.84-.39-.64h.39c-.23.21.34.45 0 .64Z" fill="#ffffff" fill-rule="evenodd"/>
                <path d="M51.12 114.8c.53-.09-.08-.28-.2-.39a1.52 1.52 0 0 1-.38.07c.27-.19-.32-.1-.44-.24s.25 0 .24-.1-.15-.19-.55-.15c.26.21.21.19.08.44h.39c0 .11.05.17.17.22-.33 0-.46 0-.64.07s0-.2-.41-.1c.14.08.3.15.44.24.13-.21.42-.11.9-.1-.26-.07 0-.11 0-.22.46-.08.36.12.4.26Z" fill="#ffffff" fill-rule="evenodd"/>
                <path d="M50.44 114c.44-.16-.3-.22-.57-.23.08 0 .29-.07.24-.15-.87.15.22.23.33.38Z" fill="#ffffff" fill-rule="evenodd"/>
                <path d="M47.06 116.9c0 .19.29.14.34.28s-.06-.33-.34-.28Z" fill="#ffffff" fill-rule="evenodd"/>
                <path d="M41.13 94c-.35-.35-.14 1.16-.22 1.58.57-.45.09-.82.22-1.58Z" fill="#ffffff" fill-rule="evenodd"/>
                <path d="M43.18 103.7c-.14-.12-.21-.33-.5-.3 0 .26-.27.21-.26.49a.6.6 0 0 1 .76-.19Z" fill="#ffffff" fill-rule="evenodd"/>
                <path d="M31 102.36a.8.8 0 0 1 .83-.5c.05.91-.61.32-.83.5Z" fill="#ffffff" fill-rule="evenodd"/>
                <path d="M32.49 99.43c-.55-.45.81-1 .6 0-.29.3-.5-.71-.6 0Z" fill="#ffffff" fill-rule="evenodd"/>
                <path d="M33.33 99.4c0-.6 1-.89 1 0-.4-.34-.47.11-1 0Z" fill="#ffffff" fill-rule="evenodd"/>
                <path d="M34.66 92.38a.43.43 0 0 1 .27.38c-.41.02-.48-.27-.27-.38Z" fill="#ffffff" fill-rule="evenodd"/>
                <path d="M38.73 98.29c0-.26.24-.17.24-.49.22.69.3.54.6.71-.18.67-.72.05-.84-.22Z" fill="#ffffff" fill-rule="evenodd"/>
                <path d="M35.13 99.36a.82.82 0 0 1 1.08-.52c-.21.42-.75.29-1.08.52Z" fill="#ffffff" fill-rule="evenodd"/>
                <path d="M38.71 92.75c.21-.47.83-.12.83-1 .34.56-.6 1.53-.83 1Z" fill="#ffffff" fill-rule="evenodd"/>
                <path d="M36.26 104.22c-.24 0-.06.56-.12.79.53-.06.67-.71.78-1.4Z" fill="#ffffff" fill-rule="evenodd"/>
                <path d="M42.42 94c.64-1.09 1.67-.46 2.77-.45-.62-.78-2.43-1.55-2.77.45Z" fill="#ffffff" fill-rule="evenodd"/>
                <path d="M29.47 101.2v.37c.53.08.53-.44 0-.37Z" fill="#ffffff" fill-rule="evenodd"/>
                <path d="M29.15 103.05c-.78.17.17.63 0 1 .25-.14.18-.84 0-1Z" fill="#ffffff" fill-rule="evenodd"/>
                <path d="M29.71 93.28c.55.19 1.23-.5 1.54-1-.44-.28-.93.78-1.54 1Z" fill="#ffffff" fill-rule="evenodd"/>
                <path d="M30.58 100c.17.8.47-.56.58.22.12 0 0-.36 0-.57a4.88 4.88 0 0 1-.58.35Z" fill="#ffffff" fill-rule="evenodd"/>
                <path d="M30.36 94.91c0 .31.33 0 .47.1a1.31 1.31 0 0 1-.08-.7c-.2.11-.19.49-.39.6Z" fill="#ffffff" fill-rule="evenodd"/>
                <path d="M31 95.84c.13.34.44.65.49.23a.41.41 0 0 0-.49-.23Z" fill="#ffffff" fill-rule="evenodd"/>
                <path d="M31.82 94.76c.29.29 1 .64 1.12.17-.19-.27-.34 0-.24-.54-.12.34-.5.36-.88.37Z" fill="#ffffff" fill-rule="evenodd"/>
                <path d="M34.34 94.22c-.07.76 1.75.47 1.34-.43-.11 0 0 .27 0 .43-.44-.22-.91.37-1.34 0Z" fill="#ffffff" fill-rule="evenodd"/>
                <path d="M31.4 99.91c0 .3.1.37.15.55.2-.1.05-1 .49-.61.26-.17-.23-.21-.23-.41-.13.18-.14.48-.41.47Z" fill="#ffffff" fill-rule="evenodd"/>
                <path d="M31 94.57c.19.57.59-.1.81-.23a1 1 0 0 1-.14-.41c.4.3.21-.34.5-.48.1 0 .09.28.21.26.3 0 .4-.16.3-.59-.44.28-.39.22-.91.09l.05.42a.44.44 0 0 0-.44.19c0-.37.06-.5-.17-.69s.42 0 .22-.45c-.17.15-.33.32-.5.48.43.14.23.45.21 1 .14-.28.22 0 .45 0 .09.47-.34.36-.59.41Z" fill="#ffffff" fill-rule="evenodd"/>
                <path d="M32 100.42c.22-.21.24-.34.53-.2 0-.24 0-.37.14-.44s-.67.22-.67.64Z" fill="#ffffff" fill-rule="evenodd"/>
                <path d="M32.63 93.83c.33.47.45-.33.48-.62.11.08.14.31.31.25-.32-.93-.48.24-.79.37Z" fill="#ffffff" fill-rule="evenodd"/>
                <path d="M33.32 103.36c.71.35 1.73-.44 2.23-1.06-.55-.45-1.37.88-2.23 1.06Z" fill="#ffffff" fill-rule="evenodd"/>
                <path d="M34.24 89.59c-.57 0 .35.38-.21.39 0 .09.25.06.4.07-.11-.24-.13-.3-.19-.46Z" fill="#ffffff" fill-rule="evenodd"/>
                <path d="M33.9 105.61c0 .41.44.1.61.21a1.73 1.73 0 0 1 0-.93c-.27.11-.32.61-.61.72Z" fill="#ffffff" fill-rule="evenodd"/>
                <path d="M34.62 106.94c.12.47.48.94.61.39a.55.55 0 0 0-.61-.39Z" fill="#ffffff" fill-rule="evenodd"/>
                <path d="M35.87 105.67c.34.43 1.18 1 1.48.41-.22-.38-.46-.06-.24-.75-.21.43-.73.39-1.24.34Z" fill="#ffffff" fill-rule="evenodd"/>
                <path d="M39.33 105.39c-.23 1 2.25.92 1.85-.32-.15 0-.11.34-.13.56-.49-.4-1.22.37-1.72-.24Z" fill="#ffffff" fill-rule="evenodd"/>
                <path d="M36.17 105.1c-.36.08 0 .56 0 .85.27 0-.08-.37.31-.26-.38-.17-.2-.28-.31-.59Z" fill="#ffffff" fill-rule="evenodd"/>
                <path d="M34.23 90.18a.89.89 0 0 0-.4.06c.05.15.69.13.39.4.09.21.16-.14.3-.13-.11-.1-.32-.14-.29-.33Z" fill="#ffffff" fill-rule="evenodd"/>
                <path d="M34.77 105.27c.15.78.8 0 1.11-.16a1.37 1.37 0 0 1-.12-.56c.49.46.34-.41.75-.54.13 0 .08.37.24.38.39.1.55-.15.51-.73-.64.29-.56.23-1.24 0v.56a.59.59 0 0 0-.62.17c.07-.48.17-.65-.11-.93 0-.45.56.11.37-.56-.25.18-.49.37-.74.54.54.27.22.64.1 1.31.24-.34.31 0 .62 0 .07.73-.48.5-.87.52Z" fill="#ffffff" fill-rule="evenodd"/>
                <path d="M33.82 90.57c.12.17.21.2.09.4.17 0 .26 0 .3.13s-.06-.52-.39-.53Z" fill="#ffffff" fill-rule="evenodd"/>
                <path d="M37.12 104.58c.36.68.65-.35.75-.72.12.12.12.43.36.38-.23-1.24-.68.23-1.11.34Z" fill="#ffffff" fill-rule="evenodd"/>
                <path d="M37.07 99.41a1.71 1.71 0 0 0 1 .29c.09-.44-.71-.51-1-.29Z" fill="#ffffff" fill-rule="evenodd"/>
                <path d="M29.48 93.24c.48.39 1.09-.43 1.73 0-.21-.63-1.43-.38-1.73 0Z" fill="#ffffff" fill-rule="evenodd"/>
                <path d="M31.18 104.33c.06.3.85.07 1.2.16-.14-.49-.69-.11-1.2-.16Z" fill="#ffffff" fill-rule="evenodd"/>
                <path d="M34.81 88.82c-.25-.06-.09.73.14.65.05-.34-.15-.36-.14-.65Z" fill="#ffffff" fill-rule="evenodd"/>
                <path d="M40.35 103.94c-.51.19.19.55.68.41.29-.52-.74-.05-.68-.41Z" fill="#ffffff" fill-rule="evenodd"/>
                <path d="M36.91 97.88c.37-.53-.93-1.2-1.88-1.5-.54.43 1.47.9 1.88 1.5Z" fill="#ffffff" fill-rule="evenodd"/>
                <path d="M40 97.27c.57 0 .06-.32.18-.46a4.41 4.41 0 0 1-1.31.07c.18.2.88.19 1.13.39Z" fill="#ffffff" fill-rule="evenodd"/>
                <path d="M41.7 96.64c.64-.13 1.23-.43.44-.48-.37.1-.52.26-.44.48Z" fill="#ffffff" fill-rule="evenodd"/>
                <path d="M39.69 95.86c.54-.29 1.19-.93.32-1.09-.51.18 0 .33-1 .23.63.11.66.49.68.86Z" fill="#ffffff" fill-rule="evenodd"/>
                <path d="M38.68 93.41c1.43.07.89-1.68-.78-1.29.06.1.49 0 .8 0-.46.42.69.88-.02 1.29Z" fill="#ffffff" fill-rule="evenodd"/>
                <path d="M39.33 96.68c1.06-.18-.18-.57-.42-.78a3 3 0 0 1-.77.13c.56-.38-.63-.2-.89-.48 0-.1.51-.09.49-.21.07-.28-.31-.38-1.12-.29.53.42.42.38.17.88l.79-.05c0 .21.11.34.35.43-.68 0-.94-.07-1.29.16-.63.07.06-.41-.84-.22.28.17.6.32.89.49.27-.41.84-.22 1.82-.19-.53-.14-.08-.22-.09-.44 1.03-.11.82.29.91.57Z" fill="#ffffff" fill-rule="evenodd"/>
                <path d="M38 95.06c.89-.32-.62-.44-1.16-.47.16-.1.59-.12.48-.29-1.8.3.39.46.68.76Z" fill="#ffffff" fill-rule="evenodd"/>
                <path d="M31.09 100.94c-.06.38.59.29.69.56s-.12-.66-.69-.56Z" fill="#ffffff" fill-rule="evenodd"/>
                <path d="M62.77 98.64c0 .13.23.11.29.19s-.14-.19-.29-.19Z" fill="#ffffff" fill-rule="evenodd"/>
                <path d="M56.35 99.09c-.12 0 .09.09 0 .16a.19.19 0 0 0 .15-.16c-.04.03-.11.11-.15 0Z" fill="#ffffff" fill-rule="evenodd"/>
                <path d="M63.24 99.65a.27.27 0 0 0 .19.29c-.08-.15-.05-.18-.19-.29Z" fill="#ffffff" fill-rule="evenodd"/>
                <path d="M63.73 99.75c-.17.07.08.14.09.2.09.23.01-.17-.09-.2Z" fill="#ffffff" fill-rule="evenodd"/>
            </g>
        </g>
    </g>
</svg>
