<?xml version="1.0" encoding="UTF-8"?>
<svg data-bbox="-0.012 -0.043 2356.298 140.993" viewBox="0 0 2356.24 140.95" xmlns="http://www.w3.org/2000/svg" data-type="color">
    <g>
        <path d="M2266.28 111.42c.56.45 4.93 0 5.32-.31 10.38-9 18.33-18.79 20.25-28.48q5.39 9.12 12 18.18a154 154 0 0 0 20.73 23.48c5.58 5.13 12 10.58 22.83 15.07q3.29.72 6.32 1.53c1.35-.1 3.14-.3 2.37-.58-13.1-4.7-19.88-10.79-26.18-16.42a147.13 147.13 0 0 1-20.72-23.48 190.66 190.66 0 0 1-18.42-30.13s-.13-.08-.29-.11c-1.16-.2-5.26.1-5.06.52 5.24 12.61-3.14 26-16.33 38.19-17.38-14.78-23.37-31-22-46.55 0-.47-4.63.09-5.13.23-24.23 6.61-38.06 16.84-51.41 25.37q-11 7-20.86 14.21c9.22-17.93 8.35-37-7.2-54.49-.38-.42-5.62 0-5.34.41 9.87 16.33-3 34.23-25.91 49.64 3.39-13-6.41-26.75-16.44-39.23-.35-.44-5.35 0-5.34.4.32 10.81-6.08 22.07-19.88 32.25-21.4-23-13.74-49.9 25.2-71.2.76-.42-4.42-.07-5.1.14-38.94 11.92-61.28 28.13-81 43.12a328.5 328.5 0 0 0-35 30.72c2.61-12.15-5.14-25.07-30.62-34.73-.79-.3-5.64.08-5.17.48 16.15 13.7 3.74 29.85-16.65 43.06-1.09-14.14-8.23-28.24-25.77-41.54a95.38 95.38 0 0 0-26.1-14.37c-.84-.3-5.79.14-5.17.48 32.81 18.22 21.69 42.55 2.27 61.87-18.8-11.91-23.09-26.19-10.59-38.78.48-.48-4.5-.12-5.1.14-15.06 6.6-24.36 14-29.8 21.62-1.22-6.59-5-13.14-13.78-19.28a47.71 47.71 0 0 0-17-7.5c-1-.23-5.43 0-5.18.48 6.16 11.52 6.64 23.5 1.62 35.11-26.44-23.35-22.68-51 14.62-73.29.76-.46-4.25-.06-4.75 0-35.62 7.39-47.33 21.48-54.8 33.09a56.48 56.48 0 0 0-6.66 14.15c-10.59-25.46-39.58-51-70.21-74.75-.56-.44-5.83 0-5.34.41 26.54 22 33.17 45.76 36.16 68.82a122.5 122.5 0 0 1-.27 36.47c-20.28-9-26.76-20.65-19.65-31.1.36-.53-4.48-.08-5.11.14-23.2 8.11-37.4 18.86-48.55 29.37 4.83-13.73-.34-28.41-22.73-40.41-.75-.4-5.62-.06-5.35.4 9 15.29.74 32-19.56 46.58 3.84-8.89 4.61-18.22-2.38-26.89-.36-.44-5.3 0-5.34.41-.92 10.49-16.08 21.07-37.15 29.78 14.35-28 1.12-59.07-39.38-85.06-.67-.43-5.86 0-5.34.41 23.88 17.68 23.32 37.45 17.41 56a88.88 88.88 0 0 1-15.62 29c-24-13-38.88-30-19.68-44.19.6-.44-4.46-.13-5.1.14-17.8 7.33-29.92 16.12-34.77 25.09-5-12.13-15.42-24.83-38.35-34.81-.87-.38-5.92 0-5.34.4 18.26 12.63 16.6 27.72 7.5 41.49-.81-10.14-12-20.39-31.68-28.75l-.17-.08c-.79-.33-5.28.06-5.17.48 2.94 11.21-7.37 23-22.86 33.38-9.89-27.16-15.95-54.6-10.44-81.88C1342.36 17.4 1344 8.46 1352 .27c.49-.5-4.67-.08-5.31.23-39.43 19.32-44.82 44.28-48.92 66.05a126.29 126.29 0 0 0-2.25 26.39c-15.61-28-50.37-55.88-95-80.84-.74-.41-5.85 0-5.35.41 30.6 24.45 48.78 50 55.44 75.83 1.94 7.53 3.22 15.2 2.76 22.83-5-10.13-16.24-20.24-35.12-28.74-.83-.38-5.66-.07-5.35.4 5.84 8.62 13.12 19.87 4.92 29.07-2-11.27-11.19-23.6-35.21-32.64-.81-.3-5.5.06-5.18.48 8.15 10.59 8.17 21.24 1.23 31.82a190.46 190.46 0 0 1-27.29-41.28c-.2-.4-5.54-.07-5.35.41 5.24 12.61-3.14 26-16.33 38.19-17.37-14.78-23.37-31-22-46.55 0-.47-4.63.09-5.13.23-24.23 6.61-38.06 16.84-51.41 25.37q-11 7-20.85 14.21c9.21-17.93 8.34-37-7.21-54.49-.37-.42-5.62 0-5.34.41 9.87 16.33-3 34.23-25.91 49.64 3.39-13-6.4-26.75-16.43-39.23-.35-.44-5.36 0-5.35.4.33 10.81-6.08 22.07-19.88 32.25-21.4-23-13.74-49.9 25.21-71.2.75-.42-4.43-.07-5.11.14-38.94 11.92-61.28 28.13-81 43.12a329.62 329.62 0 0 0-35 30.72c2.61-12.15-5.14-25.07-30.62-34.73-.79-.3-5.64.08-5.17.48 16.15 13.7 3.74 29.85-16.64 43.06-1.1-14.14-8.24-28.24-25.78-41.54a95.23 95.23 0 0 0-26.1-14.37c-.84-.3-5.79.14-5.17.48 32.81 18.22 21.69 42.55 2.27 61.87-18.65-11.91-22.96-26.15-10.45-38.78.47-.48-4.51-.12-5.11.14-15 6.6-24.34 14-29.79 21.62-1.22-6.6-5-13.14-13.78-19.28a47.69 47.69 0 0 0-17-7.5c-1-.23-5.42 0-5.17.48 6.16 11.52 6.64 23.49 1.62 35.11C641 77.59 644.74 49.91 682 27.65c.77-.46-4.25-.06-4.74 0-35.59 7.43-47.26 21.52-54.77 33.13a56.48 56.48 0 0 0-6.66 14.15C605.24 49.47 576.24 24 545.62.18c-.56-.44-5.83 0-5.34.41 26.54 22 33.17 45.76 36.15 68.82a122.16 122.16 0 0 1-.26 36.47c-20.27-9-26.76-20.65-19.65-31.1.36-.53-4.49-.08-5.11.14-23.2 8.08-37.41 18.86-48.55 29.37 4.83-13.74-.35-28.41-22.73-40.41-.75-.4-5.61-.06-5.35.4 9 15.28.74 32-19.55 46.57 3.83-8.89 4.6-18.21-2.39-26.88-.36-.44-5.3 0-5.34.41-.92 10.49-16.08 21.07-37.15 29.78 14.35-28 1.12-59.07-39.37-85.06-.68-.43-5.87 0-5.35.41C389.52 47.19 389 67 383.05 85.54a88.92 88.92 0 0 1-15.63 29c-24-13-38.87-30-19.67-44.19.59-.44-4.47-.13-5.11.14-17.79 7.33-29.92 16.11-34.77 25.09-5-12.14-15.42-24.83-38.35-34.81-.87-.38-5.92 0-5.34.4 18.27 12.63 16.6 27.72 7.5 41.49-.81-10.14-12-20.39-31.69-28.75l-.16-.08c-.79-.33-5.28.06-5.17.48 2.94 11.21-7.37 23-22.87 33.38-9.88-27.16-15.94-54.6-10.43-81.88 1.7-8.43 3.35-17.37 11.33-25.56.49-.5-4.66-.08-5.3.23-39.39 19.34-44.83 44.3-48.93 66.07a126.29 126.29 0 0 0-2.25 26.39c-15.62-28-50.38-55.88-95-80.84-.75-.41-5.85 0-5.35.41 30.6 24.45 48.78 50 55.44 75.83 1.94 7.53 3.22 15.2 2.76 22.83C109.11 101 97.87 90.93 79 82.43c-.83-.38-5.66-.07-5.34.4 5.83 8.62 13.11 19.87 4.91 29.07-2-11.27-11.19-23.6-35.21-32.64-.81-.3-5.5.06-5.18.48 15.56 20.11 2.57 43.48-38 60.87-.67.29.57.34 1.35.34H3c1.25-.42 2.55-.83 3.91-1.22 4.6-2.12 8.63-4.34 12.44-6.57 16.77-9.82 26.76-20.52 30-31.38 1.86-6.24.47-12.51-3.29-18.67 20.41 9.66 27.1 22.11 27.55 33 0 .44 4.86 0 5.32-.32 13.21-8.37 8.74-19.53 3-28.79 20.2 11 29.37 23.94 29.9 36.07 0 .36 5.19.08 5.33-.32 3.64-10.61 2.35-21.44.15-32.06-4.74-22.79-19.2-45.41-42.9-67.22 44.58 27.58 76.39 58.06 83.81 88 .1.39 5.45.09 5.35-.4-2.88-14.12-2.41-28.34-.21-42.45 3.22-20.6 7.93-44.25 40.2-63.38-4.55 6.61-6 13.52-7.38 20.12-6.07 28.44.62 57.05 11.16 85.34.18.47 4.86 0 5.32-.32 16.54-10.25 28.42-22 27.76-33.37C262 87.38 271 100.34 264.2 112.11c-.28.49 4.92.18 5.3-.23 12.43-13.48 19.88-29.49 8.36-43.54C296.48 80 303 93.81 305.6 106c.08.39 5.4.09 5.34-.4-1.24-10.43 8.62-21.35 26.65-30.6-11.88 13.95 4.48 29.83 28 41.79.77.39 5 .09 5.33-.31a92.59 92.59 0 0 0 17.39-31.21c4.43-13.09 5.81-26.84-2.07-40 24.74 23 30.76 48.34 17.57 71.44-.3.53 4.49.09 5.11-.14 20.51-7.71 36.51-17.1 41.92-26.75 3.85 8.64 1.3 17.69-3.36 26.11-.3.53 4.74.12 5.3-.23 23.38-14.22 34.93-31 29.6-46.75 20.91 14.57 20.25 32.13 8.76 47-.36.47 4.89.2 5.3-.23 12.31-12.61 26-27.51 53.41-38.45-5.26 10.77 3.34 22.39 26 31.12.91.35 5.09-.07 5.18-.48 2.56-13 2.22-26 .68-38.93-1.93-16.13-5.92-32.66-17.22-48.65 25 21.56 45.25 44.07 49.39 66.35.08.38 5.35.08 5.35-.41.05-7.87 2.88-15.78 7.19-23.55 6.18-11.14 16.63-25.09 47.45-33.13-36.29 23-37.87 51.46-8.14 74.86.53.41 5.13.06 5.33-.32 6.34-11.94 6.69-24.36 1.13-36.34a51.18 51.18 0 0 1 10.33 5.45c13.72 8.95 15 19.3 14.08 28.89 0 .35 5.2.1 5.33-.32 3-9.43 10.49-18.86 26-27.26-8.65 12.29-2.42 25.77 16.92 36.85.72.42 4.92.07 5.32-.31 17.59-16.64 29.82-37.65 12.41-55.17 3 1.88 5.66 3.78 8.19 5.64C790.09 75.67 796.47 91 796.79 106c0 .45 4.84 0 5.32-.31 21-12.35 36-28 26.14-41.8 23.71 12.06 25.32 27.82 16 40.77-.34.46 4.92.19 5.3-.23A341.34 341.34 0 0 1 893 64.27c17.69-13.84 38.09-28.78 71-40.51-34.65 21.38-39.76 47.63-17.12 69.89.48.47 4.85 0 5.33-.32 13.32-8.88 20.64-18.67 22.68-28.36 9.11 12.1 16.2 25.03 10.2 37.09-.26.54 4.74.11 5.31-.23 20.64-12.45 35.09-26.89 36.06-41 7.76 16 5 32.69-5.28 48.2-.33.49 4.81.15 5.31-.23 8.19-6.38 17.22-12.68 26.68-18.91 12.93-8.52 26.52-18.78 49.17-25.84-1 15.86 5.76 32.46 24.64 47.38.56.45 4.92 0 5.32-.31 10.31-9 18.24-18.68 20.22-28.32a196.85 196.85 0 0 0 23.62 32.39c.39.43 5 0 5.33-.32 8.48-10.56 10.14-21.17 3.88-31.77 20.45 9.66 27.16 22.12 27.6 33 0 .44 4.87 0 5.33-.32 13.21-8.37 8.74-19.53 3-28.79 20.21 11 29.38 23.94 29.91 36.07 0 .36 5.19.08 5.33-.32 3.64-10.61 2.35-21.44.15-32.06-4.74-22.78-19.2-45.41-42.89-67.22 44.57 27.58 76.38 58.06 83.8 88 .1.39 5.45.09 5.35-.4-2.88-14.12-2.41-28.34-.2-42.45 3.22-20.61 7.92-44.25 40.19-63.38-4.55 6.61-6 13.52-7.38 20.12-6.07 28.44.62 57.05 11.16 85.34.18.47 4.87 0 5.33-.32 16.54-10.25 28.42-22 27.75-33.37 21.52 10.42 30.55 23.38 23.76 35.15-.28.49 4.92.18 5.3-.23 12.42-13.48 19.88-29.5 8.36-43.54 18.62 11.64 25.17 25.47 27.74 37.67.08.39 5.4.09 5.34-.4-1.24-10.44 8.61-21.36 26.65-30.56-11.88 13.94 4.48 29.82 28 41.78.76.39 5 .09 5.32-.31a92.63 92.63 0 0 0 17.4-31.21c4.43-13.09 5.81-26.84-2.07-40 24.74 23 30.75 48.34 17.58 71.44-.31.53 4.48.09 5.1-.14 20.5-7.71 36.51-17.09 41.92-26.75 3.85 8.64 1.3 17.69-3.36 26.11-.29.53 4.74.12 5.3-.23 23.38-14.22 34.93-31 29.61-46.74 20.9 14.57 20.24 32.13 8.75 47-.36.47 4.89.2 5.3-.23 12.31-12.61 26-27.51 53.42-38.45-5.27 10.76 3.32 22.39 26 31.12.91.35 5.09-.07 5.18-.48 2.56-13 2.22-26 .68-38.93-1.93-16.13-5.91-32.65-17.21-48.64 25 21.56 45.24 44.06 49.39 66.34.07.38 5.34.08 5.34-.41.05-7.87 2.88-15.78 7.19-23.55 6.18-11.14 16.63-25.09 47.46-33.13-36.31 23-37.88 51.46-8.15 74.86.53.41 5.13.06 5.33-.32 6.35-11.94 6.7-24.36 1.13-36.34a51.18 51.18 0 0 1 10.33 5.45c13.72 8.95 15 19.3 14.08 28.9 0 .35 5.19.09 5.33-.32 3-9.44 10.48-18.87 26-27.27-8.65 12.29-2.42 25.77 16.92 36.85.72.42 4.92.07 5.32-.31 17.59-16.64 29.82-37.65 12.4-55.17 3 1.87 5.66 3.78 8.2 5.64 19.28 14.02 25.66 29.35 25.97 44.35 0 .45 4.85 0 5.32-.31 21-12.36 36-28 26.15-41.8 23.71 12.05 25.32 27.82 16 40.76-.34.47 4.92.2 5.3-.23a342 342 0 0 1 43.42-40.16c17.7-13.84 38.09-28.79 71-40.51-34.65 21.38-39.76 47.63-17.12 69.89.48.47 4.86 0 5.33-.32 13.32-8.88 20.63-18.67 22.68-28.36 9.09 12.09 16.2 25.06 10.22 37.09-.27.54 4.73.11 5.3-.23 20.64-12.45 35.08-26.89 36.05-41 7.77 16 5 32.69-5.27 48.2-.33.49 4.81.15 5.3-.23 8.2-6.38 17.23-12.68 26.69-18.91 12.95-8.52 26.54-18.78 49.19-25.88-1 15.9 5.76 32.5 24.63 47.42z" fill="#ffffff" data-color="1"/>
    </g>
</svg>
