<?xml version="1.0" encoding="UTF-8"?>
<svg data-bbox="0 0 83.154 68.898" viewBox="0 0 83.19 68.89" xmlns="http://www.w3.org/2000/svg" data-type="color">
    <g>
        <g>
            <path d="M7.4 31.91c-.33.21-.58.39-.86.54s-.81.42-1.23.6a1.64 1.64 0 0 1-.61.14 1 1 0 0 1-1.15-.86 9.21 9.21 0 0 1-.08-1L2.6 32a8.52 8.52 0 0 1-.87.61 1.18 1.18 0 0 1-1.73-1 4.51 4.51 0 0 1 .34-1.65 37.82 37.82 0 0 1 2.42-5.3 102.33 102.33 0 0 1 11.45-17l1.7-2a13.3 13.3 0 0 1 2-2 4.19 4.19 0 0 1 .72-.46.4.4 0 0 1 .48.11.42.42 0 0 1 .08.49 6.44 6.44 0 0 1-.59.88c-.74.9-1.49 1.8-2.25 2.69A114.8 114.8 0 0 0 3.2 26.65c-.68 1.23-1.2 2.53-1.85 3.81a1.61 1.61 0 0 0-.24 1.17 10.91 10.91 0 0 0 1.45-1.31 6.49 6.49 0 0 1 .79-.7.81.81 0 0 1 1.29.66v1.06a2.33 2.33 0 0 0 .06.43 2.29 2.29 0 0 0 1.15-.55c.33-.22.62-.48 1-.67a1.81 1.81 0 0 1 1.66-.24c0 .43 0 .88.06 1.4a4.08 4.08 0 0 0 .6-.32 11.5 11.5 0 0 0 1.15-.94 1.38 1.38 0 0 1 1.76-.3c.3.49 0 1.17.32 1.72a3.57 3.57 0 0 0 1-.82 10.57 10.57 0 0 1 .77-.73.91.91 0 0 1 1.57.61c.05.2.05.42.09.63a4.36 4.36 0 0 0 .16.54 3.6 3.6 0 0 0 1.24-.85 10.8 10.8 0 0 1 1-.81.87.87 0 0 1 1.36.59c0 .23 0 .5.3.69a2.62 2.62 0 0 0 1-.69c.33-.27.65-.55 1-.8a1.47 1.47 0 0 1 .47-.23.68.68 0 0 1 .84.58c0 .35 0 .7.05 1 .36.09.5-.14.66-.31.36-.39.69-.81 1.05-1.2a2.4 2.4 0 0 1 .47-.43.56.56 0 0 1 .81.22 3.25 3.25 0 0 1 .2.6c.1.41.19.82.3 1.3a3.4 3.4 0 0 0 .49-.18c.43-.26.85-.52 1.26-.8s.93-.3 1.28-.68c.1-.12.38 0 .38.22v.52a1.54 1.54 0 0 0 .07.42 2.19 2.19 0 0 0 .16.29 4.5 4.5 0 0 0 1.2-.66c.19-.1.4-.28.57-.25a.94.94 0 0 0 .86-.22c.17-.14.42 0 .45.26s0 .5.07.74a1.68 1.68 0 0 0 .22.41c.43-.46.81-.87 1.21-1.27s.4-.37 1.17-.21c.23.44.18 1 .46 1.45.39 0 .5-.3.67-.51s.58-.72.91-1 .91-.32 1.18.27c.1.22.16.46.25.7s.17.38.24.54c.26.08.36-.09.47-.22s.28-.4.43-.6l.54-.65a1.31 1.31 0 0 1 1.04-.33c.34 0 .4.38.51.63a1.73 1.73 0 0 0 .56.81c.42-.24.57-.69.85-1s.38-.51.59-.75a.45.45 0 0 1 .59 0 6.57 6.57 0 0 1 .63.84c.24.38.45.79.7 1.23a1.51 1.51 0 0 0 .58-.89 4.12 4.12 0 0 1 .67-1.21c.32-.33.39-.35.93-.14l.24.11c.41.68.62 1.55 1.38 2 .34-.05.45-.34.61-.56s.44-.64.67-1 .48-.43 1-.25a1.26 1.26 0 0 1 .22.12c.32.57.6 1.1.9 1.62 0 .07.17.1.3.17.22-.43.42-.84.63-1.24a6.72 6.72 0 0 1 .42-.74.53.53 0 0 1 .94.07c.13.25.23.51.35.77a2.53 2.53 0 0 0 .87 1.09c.74-.47.81-1.47 1.54-2l1 .34a6.84 6.84 0 0 0 1.08 1.79 4 4 0 0 0 .35-.4c.3-.47.58-1 .88-1.45a1.29 1.29 0 0 1 1.46.63 1.54 1.54 0 0 0 .89.82c.17-.18.36-.39.55-.58a8.85 8.85 0 0 1 .76-.74.53.53 0 0 1 .88.17c.12.22.2.46.32.67a2.5 2.5 0 0 0 1 1.15 2.3 2.3 0 0 0 .33-.38c.22-.44.42-.9.64-1.34a2.37 2.37 0 0 1 .35-.52.45.45 0 0 1 .72.1c.11.26.18.54.29.8a2.44 2.44 0 0 0 1 1.25c.16-.27.33-.54.48-.81s.23-.45.37-.65a.87.87 0 0 1 1.44-.08c.3.34.59.71.91 1a.4.4 0 0 0 .64 0c.28-.32.52-.68.81-1s.63-.26.84.15.42.89.67 1.32.65.49 1 .05c.2-.25.35-.53.54-.79a8.47 8.47 0 0 1 .58-.76.34.34 0 0 1 .54.08c.16.27.3.55.47.81a3.55 3.55 0 0 0 .38.41c.14-.06.32-.08.38-.18a.74.74 0 0 0 .1-.48 47.28 47.28 0 0 0-1.39-6.75 71.86 71.86 0 0 0-7.69-17.62 40.94 40.94 0 0 0-2.73-3.92c-.15-.19-.31-.38-.51-.61h-.82l-7.32-.32h-.74c-5.17-.07-10.34-.35-15.51-.22-2.69.07-5.38.11-8.07.21-2.9.1-5.8.25-8.7.42-2 .11-4 .27-5.93.41-.42 0-.84.12-1.26.16a1.15 1.15 0 0 1-.52-.06.53.53 0 0 1-.23-.31.29.29 0 0 1 .1-.28 2.73 2.73 0 0 1 .75-.36A17.17 17.17 0 0 1 23 1.4c1.58-.18 3.17-.34 4.75-.49 1.34-.13 2.68-.24 4-.34s2.68-.19 4-.25Q43.39 0 51 0c2.16 0 4.32 0 6.47.09 2.73.09 5.45.23 8.17.34h1.6a6.36 6.36 0 0 1 2.93.8 3.27 3.27 0 0 1 1 .82 29.66 29.66 0 0 1 1.92 2.54 63.72 63.72 0 0 1 5.75 10.91 74.29 74.29 0 0 1 3.45 10.14 29.34 29.34 0 0 1 .85 4.36v.42a2.32 2.32 0 0 1-1.51 2.43.92.92 0 0 1-1.16-.21c-.12-.12-.22-.25-.37-.43a4.46 4.46 0 0 1-.4.54 4.73 4.73 0 0 1-.78.71A1.37 1.37 0 0 1 77 33c-.15-.24-.25-.5-.4-.8a7.06 7.06 0 0 1-.74.55 1.27 1.27 0 0 1-1.58-.11c-.24-.19-.46-.42-.78-.71a5.48 5.48 0 0 0 0 .58 39.15 39.15 0 0 1 .38 5.19v7.8c2.87 2.24 5.29 4.88 7.9 7.32a4.26 4.26 0 0 1 .58.62 1.83 1.83 0 0 1 .23 2 5.24 5.24 0 0 1-.62 1 1 1 0 0 1-.53.32 9.08 9.08 0 0 1-1.36.19l-6 .24a1.75 1.75 0 0 0-.34.06c-.15.26 0 .54 0 .81a6.13 6.13 0 0 0 0 .74c.06.81.14 1.62.16 2.43v3.29a10.12 10.12 0 0 1-.28 2.2 1 1 0 0 1-.48.67 2 2 0 0 1-2.54-.25c-.15-.13-.33-.4-.29-.54.19-.61-.31-1.06-.33-1.61s.02-1.11.02-1.67v-4.36c0-.49 0-1 .08-1.54a3.27 3.27 0 0 0-.6-.1c-2.65 0-5.31 0-8 .11-3.86.09-7.72.23-11.57.35h-.75c-3.08.1-6.16.16-9.23.29q-7.48.33-15 .43c-2.34 0-4.67.12-7 .18-.24 0-.48 0-.67.07s-.09.11-.09.14c0 .81.06 1.62.1 2.44.06 1.69.13 3.39.21 5.09a2.79 2.79 0 0 1-.48 1.71 1.63 1.63 0 0 1-1.54.76 1.3 1.3 0 0 1-1.27-1 3.87 3.87 0 0 0-.39-1 1.83 1.83 0 0 1-.2-.7 14.2 14.2 0 0 1-.13-1.59 48.41 48.41 0 0 1 0-5.52 1.48 1.48 0 0 0-.06-.36c-.28 0-.55-.06-.82-.07H8.13c-.57 0-1.13-.1-1.69-.14a.85.85 0 0 1-.73-.51 1.75 1.75 0 0 1 .09-1.9 3 3 0 0 1 .27-.33 38.11 38.11 0 0 1 5-4.62c.68-.51 1.36-1 2.07-1.52l-.36-16.26c-.13 0-.23-.05-.31 0a1 1 0 0 1-.9-.21 1.1 1.1 0 0 1-.39-.73c-.05-.27-.08-.55-.14-.91-.22.19-.36.34-.52.46-.43.31-.86.61-1.31.89a1.51 1.51 0 0 1-.6.19.82.82 0 0 1-1-.57 4.85 4.85 0 0 1-.21-.58zm59.15-.16a.93.93 0 0 0-.48 1c.06.74.13 1.48.17 2.22a62.19 62.19 0 0 1 .11 6.69v2.55a5.05 5.05 0 0 0 .07.63l2.14.27a1.52 1.52 0 0 1 1 .38c.12.13.13.4 0 .47a2.55 2.55 0 0 1-.86.36 19.94 19.94 0 0 1-2.44.12c-3.19-.1-6.37-.06-9.56.09-3.89.19-7.78.31-11.67.43s-7.93.2-11.9.3h-1.48l-11.37.22h-1.06a.8.8 0 0 1-.41-.1.45.45 0 0 1-.2-.32.41.41 0 0 1 .22-.32 2.36 2.36 0 0 1 .61-.14l.54-.13a51.13 51.13 0 0 1-.3-6.63 54.57 54.57 0 0 1 .15-6.53 5.41 5.41 0 0 1-.83-.58 3.73 3.73 0 0 1-.44-.78l-2.13 1.55c0 .4.05.82.07 1.24 0 .7.1 1.41.13 2.12.1 3 .19 5.94.29 8.92 0 .24 0 .49.05.74a5 5 0 0 0 .11.58 3.75 3.75 0 0 1 .68-.09.39.39 0 0 1 .28.57 2.22 2.22 0 0 1-.32.42c-.22.22-.47.41-.63.55v2a.15.15 0 0 0 0 .1h.16l.77-.79 1.08-1.06a.9.9 0 0 1 .76-.31.53.53 0 0 1 .35.19.42.42 0 0 1 0 .38 4.71 4.71 0 0 1-.64.7l-2.39 2.07c-.23.74-.38 1.28-.57 1.8a.51.51 0 0 1-.42.25.52.52 0 0 1-.4-.28 3.54 3.54 0 0 1-.31-1.54q-.09-4-.19-8.07c0-.93 0-1.85-.07-2.77 0-2.19-.15-4.39-.11-6.58a10.68 10.68 0 0 0-.48-2.92c-.32.33-.57.61-.73.79.11 1.12.26 2.1.3 3.09.1 1.91.14 3.82.19 5.73.1 4.13.19 8.27.29 12.46a1.44 1.44 0 0 1 1.14.41.33.33 0 0 1-.11.53 1.57 1.57 0 0 1-1.59-.29 1.94 1.94 0 0 1-.79-1.55 5.33 5.33 0 0 0-.2-1.64c-.26.22-.47.4-.67.59-.59.57-1.15 1.15-1.75 1.71l-3.28 3a3.78 3.78 0 0 0-.58.62c-.08.11 0 .3-.07.49a3.66 3.66 0 0 0 .37 0c1.67 0 3.33-.06 5-.11 2.54-.07 5.09-.14 7.64-.23 2.76-.1 5.52-.23 8.28-.34 1.77-.07 3.53-.12 5.3-.2l10.3-.43c3.71-.14 7.42-.31 11.14-.41 4.39-.12 8.78-.18 13.17-.26 1.81 0 3.61 0 5.42-.09 2.44 0 4.88-.12 7.32-.19l.51-.05a1.55 1.55 0 0 0-.54-1.36c-2.25-2.16-4.35-4.46-6.47-6.75-.09-.1-.19-.21-.4-.09V51a10.29 10.29 0 0 1 .71.81c.18.27.47.56.1 1l-.77-.43c-.06.27-.1.47-.16.67a1 1 0 0 1-1 .81 8.13 8.13 0 0 1-1.48 0 1.22 1.22 0 0 1-1.12-1 7.57 7.57 0 0 1-.2-1.25v-1.8a1.3 1.3 0 0 0-.39-1.16 1.46 1.46 0 0 1-.34-.53c-.13-.28-.28-.59 0-.89s.47.07.72 0v-.4c.07-2.83.11-5.66.19-8.5a49.63 49.63 0 0 1 .2-5.72.37.37 0 0 0-.34-.45l-.26.45a1.44 1.44 0 0 1-2.64 0c-.12-.17-.2-.37-.32-.55a1.92 1.92 0 0 0-.17-.31zm-31.34.38a10.92 10.92 0 0 1-.87.83 1.09 1.09 0 0 1-1.83-.73 2.4 2.4 0 0 0-.12-.84c-.26.3-.46.54-.68.77a2.1 2.1 0 0 1-1.28.68 1 1 0 0 1-1.14-.58 7.19 7.19 0 0 1-.31-.84c-.14.13-.26.25-.37.37a7.38 7.38 0 0 1-.63.72 3.36 3.36 0 0 1-1 .64 1 1 0 0 1-1.42-.7c-.09-.26-.12-.53-.21-.92a3.61 3.61 0 0 1-2.63 1.56c0 1.14.12 2.23.15 3.31s0 2.2 0 3.3.1 2.19.12 3.29 0 2.18 0 3.32a2 2 0 0 0 .38.07c.49 0 1 0 1.48-.05l8.49-.39h1l7-.33 10-.41 9.33-.33h1.6a5.4 5.4 0 0 0 .58-.09c0-.94-.1-1.82-.09-2.7 0-2.86.08-5.73.13-8.6 0-.49.12-1 .17-1.47 0-.15.12-.32-.1-.44-.06.1-.12.18-.17.27s-.07.2-.12.3a3.65 3.65 0 0 1-.32.54 1.31 1.31 0 0 1-2.23 0 6.79 6.79 0 0 1-.41-.75c-.09-.16-.2-.31-.33-.51a5 5 0 0 1-.33.75 2.59 2.59 0 0 1-.54.64 1.28 1.28 0 0 1-2-.24c-.17-.25-.36-.5-.56-.77a9.08 9.08 0 0 1-.51.76 1.31 1.31 0 0 1-2.29-.07c-.22-.32-.4-.67-.62-1.05l-.35.54c-.13.21-.23.44-.37.64a1.22 1.22 0 0 1-1.77.32 2.79 2.79 0 0 1-.91-1c-.14-.27-.27-.55-.45-.91-.13.32-.21.55-.31.77a4.82 4.82 0 0 1-.45.84 1.12 1.12 0 0 1-2 0 4.32 4.32 0 0 1-.3-.56c-.1-.19-.19-.38-.31-.63-.14.19-.23.33-.34.46a4.74 4.74 0 0 1-.65.69 1.35 1.35 0 0 1-2-.21c-.18-.2-.26-.48-.5-.62a11 11 0 0 1-.82.96 1.33 1.33 0 0 1-2.32-.4c-.06-.16-.09-.34-.36-.33a3.66 3.66 0 0 1-.32.39 6.83 6.83 0 0 1-.74.59 1.18 1.18 0 0 1-1.74-.39c-.1-.15-.2-.29-.31-.46zM72.13 52.5v-4c0-1.32.07-2.62.1-3.93s0-2.54.08-3.82.07-2.61.08-3.92.08-2.54 0-3.84l-1 .28V52.5zM64.3 32.79a2 2 0 0 0-.11.31v6.67a31.51 31.51 0 0 1 0 4.76.12.12 0 0 0 0 .1c.07.06.15.15.24.16s.25 0 .27-.1a2.16 2.16 0 0 0 .1-.61c.08-1.91.14-3.81.21-5.71 0-.92.08-1.84.1-2.75s0-1.76 0-2.69zm-42.43 13.6a96 96 0 0 1 0-14.39 4.23 4.23 0 0 0-1 .8c.06 1.9.12 3.74.17 5.58.05 1.59.1 3.18.16 4.77a15.19 15.19 0 0 1-.11 2.85 1.7 1.7 0 0 0 .05.42zm50.57 10.89a1.93 1.93 0 0 0-1.25.14c0 .4.12.78.13 1.16.08 2 .14 4 .21 6a1.91 1.91 0 0 1-.2 1 1.68 1.68 0 0 0-.11.42c.44.08.8.24 1.14-.08.02-2.82.05-5.67.08-8.64zM16 58.73l-1 .05a1.05 1.05 0 0 0-.11.27c0 1.66.09 3.31.13 5v3.39c.89-.09 1.07-.25 1-.9a61.31 61.31 0 0 1 0-7.3 3 3 0 0 0-.02-.51z" fill="#742823" data-color="1"/>
            <path d="M28.73 10.12c-.24.22-.46.44-.71.63a2.89 2.89 0 0 1-.64.37.85.85 0 0 1-1.18-.36 3.54 3.54 0 0 1-.22-.51c-.3.18-.55.37-.83.51a.74.74 0 0 1-1.15-.69 2 2 0 0 1 .25-1.32.31.31 0 0 1 .26-.12.29.29 0 0 1 .2.19v1.15c.32-.18.56-.3.79-.44s.39-.29.6-.42a.43.43 0 0 1 .57.14c.14.28.25.57.39.89.8-.27 1.3-1.21 2.34-1.09l.4.85 1.57-1.05c.3.06.36.26.26.41a4.12 4.12 0 0 1-1.27 1.39c-.67.39-1 .31-1.47-.37z" fill="#742823" data-color="1"/>
            <path d="M70.84 21.15c-.12.14-.18.22-.26.3-.64.69-1.12.67-1.73-.07l-.3-.42-.18.16c-.74.68-1.33.58-1.72-.3a1.83 1.83 0 0 1-.17-1.23.42.42 0 0 1 .28-.26.38.38 0 0 1 .3.22 1.92 1.92 0 0 0 .46 1.08l1.27-.76.77.92c.38-.07.35-.43.5-.65.25-.37.53-.46.88-.21s.43.34.64.52c.4-.25.38-.69.58-1 .1-.16.23-.29.42-.22a.55.55 0 0 1 .27.29 1.69 1.69 0 0 1-.08 1.34 1.08 1.08 0 0 1-1.42.57 4.34 4.34 0 0 1-.51-.28z" fill="#742823" data-color="1"/>
            <path d="M66.39 9.32c.69-.88.69-.88 1.72-.3.09.05.19.08.35.15.22-.25.44-.51.67-.75a.34.34 0 0 1 .53.13 1.1 1.1 0 0 1-1.17 1.52 5.53 5.53 0 0 1-.95-.34c-.25.18-.43.63-.85.6a7.06 7.06 0 0 1-1.17-.33l-.21.09c-.54.19-.8.15-1.1-.28a5.45 5.45 0 0 1-.5-1 .3.3 0 0 1 .19-.42.43.43 0 0 1 .33.17c.22.27.41.56.66.91l.78-.68z" fill="#742823" data-color="1"/>
            <path d="M43.79 8.32l.46.82c.43-.27.8-.53 1.2-.75a.46.46 0 0 1 .37.07s.06.2 0 .28a2.75 2.75 0 0 1-1.16 1.2c-.52.3-1 .13-1.32-.43 0-.09-.09-.18-.15-.28a5.38 5.38 0 0 1-.79.34.87.87 0 0 1-1.14-1c0-.26 0-.58.49-.62l.33.76a1.08 1.08 0 0 0 .3 0z" fill="#742823" data-color="1"/>
            <path d="M59.71 21.12a2.74 2.74 0 0 1-.32.12 1 1 0 0 1-1.25-1.18c0-.08.12-.16.21-.2a.17.17 0 0 1 .18 0c.16.19.29.39.46.61L60 20l.68.85a6.68 6.68 0 0 1 .4-.76.42.42 0 0 1 .35-.17.62.62 0 0 1 .37.32 1.6 1.6 0 0 1-.11 1.23.88.88 0 0 1-1.34.32 6.51 6.51 0 0 1-.64-.67z" fill="#742823" data-color="1"/>
            <path d="M32 20.59a11 11 0 0 1-1.2.53c-.79.26-1.32-.17-1.24-1a1.57 1.57 0 0 1 .19-.59c.05-.08.22-.09.41-.16 0 .38.07.68.11 1 .85.17 1.54-.7 2.43-.22l.32.66c.52.1.84-.44 1.32-.3 0 0 .06 0 .13.1A1.74 1.74 0 0 1 33 21.68a.72.72 0 0 1-.72-.36 5.74 5.74 0 0 1-.28-.73z" fill="#742823" data-color="1"/>
            <path d="M47.8 20.34l.72-.45.14.07a.41.41 0 0 1 .16.47 1.37 1.37 0 0 1-.57.86.74.74 0 0 1-1.11-.19 1.52 1.52 0 0 1-.14-1.51.32.32 0 0 1 .24-.17.49.49 0 0 1 .33.2 5.1 5.1 0 0 1 .23.72z" fill="#742823" data-color="1"/>
            <path d="M56.4 7.94c.15.29.3.56.48.89a3.56 3.56 0 0 0 .45-.27c.15-.13.28-.3.44-.43s.34.06.32.16a2.69 2.69 0 0 1-.2.8c-.42.82-1.15.92-1.7.1a2.08 2.08 0 0 1-.26-.68c-.04-.26.07-.51.47-.57z" fill="#742823" data-color="1"/>
            <path d="M17.49 20.6a.9.9 0 0 0 .9-.18c.21-.11.4-.24.7-.43 0 .23.05.38 0 .47a2.38 2.38 0 0 1-1.35.95.66.66 0 0 1-.73-.28 1.34 1.34 0 0 1 .3-1.63.31.31 0 0 1 .28 0 .3.3 0 0 1 .1.27c-.05.23-.13.53-.2.83z" fill="#742823" data-color="1"/>
            <path d="M75.4 24.87a1.27 1.27 0 0 1 .84-1.24.23.23 0 0 1 .3.2 2.52 2.52 0 0 1-.65 1.42.41.41 0 0 1-.28.05.24.24 0 0 1-.14-.14 1.53 1.53 0 0 1-.07-.29z" fill="#742823" data-color="1"/>
            <path d="M77.28 24.82a1.66 1.66 0 0 1-.52.88.31.31 0 0 1-.28 0 .3.3 0 0 1-.16-.24 1 1 0 0 1 .58-.92.42.42 0 0 1 .28.06s.06.15.1.22z" fill="#742823" data-color="1"/>
            <path d="M8.76 56.2a2.42 2.42 0 0 1 .44-.2 6 6 0 0 1 .74 0l8-.25 11.35-.36c.85 0 1.7 0 2.55-.06l9.71-.33 7.11-.21c3.36-.09 6.72-.16 10.08-.23a4.79 4.79 0 0 1 .83.09s.09.1.08.15a.19.19 0 0 1-.1.15 2.32 2.32 0 0 1-.52.07c-3.22.09-6.44.15-9.66.26-2.68.09-5.37.22-8 .34h-.43l-9.81.38c-3 .08-5.94.13-8.91.23s-5.8.23-8.7.32h-4a.68.68 0 0 1-.76-.35z" fill="#742823" data-color="1"/>
            <path d="M61 54.78c.07-.1.1-.19.15-.2a2.17 2.17 0 0 1 .51-.08c2.83-.09 5.66-.16 8.49-.24l8.28-.26a5.63 5.63 0 0 1 .71 0 .34.34 0 0 1-.37.35c-.91.08-1.83.18-2.75.23-4.62.22-9.26.31-13.89.27a2.27 2.27 0 0 1-1.13-.07z" fill="#742823" data-color="1"/>
            <path d="M24.15 48.11a1 1 0 0 1-.09.23c-.26.37-.5.76-.8 1.11-1.22 1.42-2.45 2.82-3.69 4.23a3.14 3.14 0 0 1-.53.5.48.48 0 0 1-.39 0c-.15-.07-.12-.23 0-.36a4.72 4.72 0 0 1 .35-.52l3.32-4.3a3.68 3.68 0 0 1 1.34-1.17.36.36 0 0 1 .49.28z" fill="#742823" data-color="1"/>
            <path d="M32.8 54.1a1.85 1.85 0 0 1-.14-.46 5.39 5.39 0 0 1 .15-1.14c.43-1.38.89-2.75 1.36-4.11a2.45 2.45 0 0 1 .43-.71.45.45 0 0 1 .57-.13.5.5 0 0 1 .32.5 2.48 2.48 0 0 1-.15.82q-1.11 2.52-2.25 5c-.02.07-.09.13-.29.23z" fill="#742823" data-color="1"/>
            <path d="M31.57 47.41c.44.19.54.43.43.74a2.56 2.56 0 0 1-.23.47q-1.61 2.63-3.22 5.24a2.65 2.65 0 0 1-.25.3c-.29 0-.3-.22-.27-.38a2.5 2.5 0 0 1 .2-.71c.28-.61.55-1.22.88-1.81.6-1 1.23-2.06 1.86-3.08a8.06 8.06 0 0 1 .6-.77z" fill="#742823" data-color="1"/>
            <path d="M23.57 53.9a1 1 0 0 1 0-.39 37.82 37.82 0 0 1 2.55-4.62 5.15 5.15 0 0 1 .71-.77 1.11 1.11 0 0 1 .46-.23.46.46 0 0 1 .38.08.41.41 0 0 1 .09.37 5.8 5.8 0 0 1-.52.91c-.41.58-.85 1.13-1.26 1.7-.63.85-1.24 1.71-1.86 2.57-.12.16-.27.3-.4.46z" fill="#742823" data-color="1"/>
            <path d="M56.1 47.52a1.26 1.26 0 0 1 .78.71 30 30 0 0 1 1.89 4.12 1.68 1.68 0 0 1 .08.63c0 .12-.09.32-.18.33a.61.61 0 0 1-.47-.09 1.23 1.23 0 0 1-.38-.49q-.94-2.23-1.82-4.48a.57.57 0 0 1 .1-.73z" fill="#742823" data-color="1"/>
            <path d="M53.46 47.69a2.32 2.32 0 0 1 .38.44q.36.7.66 1.44c.35.89.7 1.77 1 2.67a2.85 2.85 0 0 1 .14.92.39.39 0 0 1-.64.26 1.19 1.19 0 0 1-.4-.47q-.77-2.31-1.47-4.63a.46.46 0 0 1 .33-.63z" fill="#742823" data-color="1"/>
            <path d="M45.07 50.6c0 .7 0 1.41-.09 2.12a2.27 2.27 0 0 1-.22.8.42.42 0 0 1-.7-.05 1.74 1.74 0 0 1-.13-.51 21.63 21.63 0 0 1 .28-4.75c.07-.4.3-.63.52-.56s.31.37.31.62v2.33z" fill="#742823" data-color="1"/>
            <path d="M64.9 53.15a.53.53 0 0 1-.23-.11 2.66 2.66 0 0 1-.34-.53q-1.11-2.26-2.2-4.55a2.22 2.22 0 0 1-.2-.48.34.34 0 0 1 .07-.28c.13-.13.27 0 .35.07a19.84 19.84 0 0 1 1.54 2.13c.53 1 .93 2 1.38 3a1.16 1.16 0 0 1 .09.41.4.4 0 0 1-.46.34z" fill="#742823" data-color="1"/>
            <path d="M41.9 50.68c-.07.76-.16 1.74-.27 2.73a1.37 1.37 0 0 1-.13.5.44.44 0 0 1-.33.22.42.42 0 0 1-.31-.22 2.27 2.27 0 0 1-.11-.73c0-.74 0-1.48.08-2.23s.11-1.55.17-2.32a1.62 1.62 0 0 1 0-.22c.06-.44.29-.75.51-.67s.37.41.38.7c.02.67.01 1.34.01 2.24z" fill="#742823" data-color="1"/>
            <path d="M38.5 49.19c-.18 1.34-.37 2.67-.56 4a3.25 3.25 0 0 1-.17.61c-.06.18-.18.35-.38.28a.59.59 0 0 1-.35-.34 3 3 0 0 1-.07-1c.05-.63.14-1.26.24-1.89s.27-1.39.41-2.08a1.74 1.74 0 0 1 .17-.5.9.9 0 0 1 .37-.33c.13-.06.33.22.34.46s0 .6 0 .79z" fill="#742823" data-color="1"/>
            <path d="M48.61 52.49v.74a.44.44 0 0 1-.33.38.46.46 0 0 1-.52-.27 1.86 1.86 0 0 1-.17-.6c-.08-1.38-.14-2.75-.21-4.13a1 1 0 0 1 0-.42.53.53 0 0 1 .28-.25c.06 0 .2.09.24.17a1.72 1.72 0 0 1 .16.5 24.24 24.24 0 0 1 .55 3.88z" fill="#742823" data-color="1"/>
            <path d="M61.89 53.61c-.13-.07-.32-.11-.42-.23a3.26 3.26 0 0 1-.37-.63c-.53-1.14-1.07-2.29-1.58-3.45a10.71 10.71 0 0 1-.44-1.39c0-.06.09-.17.16-.23a.21.21 0 0 1 .2 0 5 5 0 0 1 .69.91c.64 1.37 1.24 2.75 1.83 4.14a.75.75 0 0 1-.07.88z" fill="#742823" data-color="1"/>
            <path d="M68.65 52a1.19 1.19 0 0 1-.23.31.37.37 0 0 1-.49-.06 1.79 1.79 0 0 1-.3-.42c-.64-1.14-1.27-2.29-1.89-3.43a3.61 3.61 0 0 1-.28-.68.3.3 0 0 1 .1-.27.36.36 0 0 1 .29 0 .64.64 0 0 1 .25.19 12.65 12.65 0 0 1 2.41 3.83 4.65 4.65 0 0 1 .14.53z" fill="#742823" data-color="1"/>
            <path d="M52.3 52.55a1.29 1.29 0 0 1-.27.37c-.15.11-.42 0-.53-.21a2.58 2.58 0 0 1-.21-.48c-.35-1.1-.7-2.2-1-3.31a3.32 3.32 0 0 1-.11-.83.41.41 0 0 1 .24-.29.46.46 0 0 1 .36.13.77.77 0 0 1 .21.36c.42 1.19.83 2.38 1.23 3.58a5.09 5.09 0 0 1 .08.68z" fill="#742823" data-color="1"/>
        </g>
    </g>
</svg>
