<?xml version="1.0" encoding="UTF-8"?>
<svg data-bbox="-0.001 -0.003 90.27 75.02" viewBox="0 0 90.27 75.01" xmlns="http://www.w3.org/2000/svg" data-type="color">
    <g>
        <g>
            <path d="M11.66 74.14c.07.65 0 .78-.58.85a1.64 1.64 0 0 1-1.38-.38.94.94 0 0 1-.31-.42 15.48 15.48 0 0 1-.51-2.36c-.05-6.09-.19-12.18-.23-18.27q0-5.89.08-11.79c.1-4.35.28-8.7.46-13.05 0-.54-.31-.93-.29-1.41-.31-.07-.39.18-.55.28a6.65 6.65 0 0 1-.63.39 1.23 1.23 0 0 1-1.59-.41c-.11-.13-.21-.27-.32-.42-.29.23-.53.44-.79.62a2.78 2.78 0 0 1-.73.41 1 1 0 0 1-1.15-.29 5.21 5.21 0 0 1-.3-.4c-.34.21-.64.41-.95.58a1.11 1.11 0 0 1-1.64-.79A9.17 9.17 0 0 1 0 25.83 2 2 0 0 1 .16 25c.38-1 .74-2 1.2-2.94 1.29-2.64 2.64-5.23 4.19-7.75q1.86-3.09 3.75-6.17c.55-.9 1.15-1.79 1.76-2.65a3.51 3.51 0 0 1 .85-.78c.24-.17.57.06.59.37a2.13 2.13 0 0 1-.34 1.21c-.53.92-1.06 1.84-1.6 2.75-1.88 3.17-3.79 6.31-5.63 9.5A67.73 67.73 0 0 0 1.54 25c-.14.32-.28.65-.41 1a.66.66 0 0 0 .18.83 2.84 2.84 0 0 0 1.08-.52c.37-.19.73-.41 1.16-.65a2.41 2.41 0 0 1 .27.41 6.53 6.53 0 0 1 .22.76c.23-.17.41-.28.56-.41s.4-.4.61-.59c.71-.61 1.21-.73 1.61.27a4.14 4.14 0 0 0 .24.43c.34.13.49-.1.67-.25s.59-.52.89-.76a2.74 2.74 0 0 1 .44-.19l.72.52c.05.39.07.74.13 1.09s.33.57.76.34a5.08 5.08 0 0 0 .61-.42c.25-.2.5-.4.73-.62a1.76 1.76 0 0 1 1.8-.47c.06.19.13.42.21.65s.15.46.24.75c.86-.61 1.48-1.52 2.6-1.65.52.4.41 1.08.68 1.67l.79-.55a7.22 7.22 0 0 1 1-.75 4.36 4.36 0 0 1 1.12-.21c.59.48.08 1.31.58 1.88.81-.55 1.29-1.54 2.35-1.75.43.5.18 1.23.57 1.84.19-.18.35-.3.48-.45.57-.62 1.14-1.26 1.7-1.89l.08-.07c.49-.46.78-.4 1 .23.13.44.24.89.39 1.32a2.38 2.38 0 0 0 .31.48c.35-.27.64-.52 1-.73a2 2 0 0 1 .84-.41c.36 0 .42-.29.61-.6a1.92 1.92 0 0 1 .22.43 4.52 4.52 0 0 0 .36 1.4c.27-.24.51-.45.72-.67s.53-.57.8-.85c.56-.55.86-.45 1.08.32.09.31.15.62.26.92a4.1 4.1 0 0 0 .35.6c.65-.66 1-1.57 1.84-1.92a2.67 2.67 0 0 1 .8 1.12 1.3 1.3 0 0 0 .66.87 5.72 5.72 0 0 0 .37-.46c.27-.41.51-.85.79-1.26.47-.67.58-.68 1.42-.27a3.76 3.76 0 0 0 .88 1.76 7.23 7.23 0 0 0 .61-.91 3.46 3.46 0 0 1 1.7-1.4c.41.68.16 1.54.78 2.14.31-.12.39-.46.58-.68s.44-.56.67-.83l.62-.72a.84.84 0 0 1 .89.64 2.72 2.72 0 0 0 .71 1.45c.62-.62 1-1.48 2.12-1.55.23.19.2.58.3.9a2.28 2.28 0 0 0 .51 1.08 5.29 5.29 0 0 0 .53-.53c.25-.34.47-.71.72-1.05a4.35 4.35 0 0 1 .5-.55.42.42 0 0 1 .64.1c.14.24.25.51.37.76l.44 1a3.81 3.81 0 0 0 1-.93l.84-.89c.28 0 .34.15.4.31a5.1 5.1 0 0 0 .76 1.69l.44-.43c.39-.41.76-.84 1.16-1.23a.53.53 0 0 1 .8.11 3.81 3.81 0 0 1 .29.57 1.51 1.51 0 0 0 .71.84 2.38 2.38 0 0 0 .33-.31c.3-.39.57-.82.89-1.19a.53.53 0 0 1 .93.18c.08.2.12.41.2.61a1.61 1.61 0 0 0 .82.92c.42 0 .57-.41.77-.68a1.72 1.72 0 0 1 1.35-.75l1.11 1.34a3 3 0 0 0 1.11-1.27c.06-.13.07-.29.16-.39a.62.62 0 0 1 .35-.18c.06 0 .17.11.22.2s.09.34.17.5c.18.36.32.46 1 .81l.41-.44c.15-.2.29-.41.45-.59a.77.77 0 0 1 1.21-.08 3.19 3.19 0 0 1 .44.46c.2.25.38.51.58.78.39-.17.51-.57.77-.84.55-.61.77-.77 1.58-.06.21.18.38.4.61.64l2.08-1.79c.78.28.51 1.21 1.11 1.53.33 0 .51-.22.71-.41s.43-.47.66-.68.59-.3.89.06.73.86 1.11 1.28a1.13 1.13 0 0 0 .26.16c.36-.19.39-.58.58-.88.55-.89 1.09-.88 1.65 0a2.66 2.66 0 0 0 .6.87c.34-.11.47-.43.7-.64s.44-.44.69-.69a2.93 2.93 0 0 1 .44.36c.14.15.24.35.38.51.38.49.53.53 1.07.26a4.3 4.3 0 0 1 .57-.28.44.44 0 0 1 .39.06.39.39 0 0 1 .13.36 2.38 2.38 0 0 1-.4.85 1.44 1.44 0 0 1-2 .3c-.2-.13-.38-.3-.57-.45a8.38 8.38 0 0 1-.66.57 1.07 1.07 0 0 1-1.37-.06 8 8 0 0 1-.69-.72 5.47 5.47 0 0 1-.68.75 4.58 4.58 0 0 1-.91.4 7.05 7.05 0 0 0 0 1.52c0 1 .09 1.91.14 2.87q.19 3.49.37 7c.07 1.23.17 2.47.22 3.71.1 2.26.22 4.52.25 6.79q.09 6.95.1 13.91c0 2.66-.08 5.31-.1 8a2.36 2.36 0 0 1-.82 2 1.49 1.49 0 0 1-.54.32 3.18 3.18 0 0 1-1.82-.08.86.86 0 0 1-.56-.58 4.82 4.82 0 0 1-.21-1.46v-9.61l-.54.08a12.53 12.53 0 0 1-2.74.24c-4.32 0-8.64-.1-13-.09-5.56 0-11.12.08-16.68.13h-4.28c-.71 0-1.39-.12-2.12-.2-.22.32-.09.68-.09 1 0 1.94.08 3.89.08 5.84 0 .88-.11 1.76-.13 2.65 0 1.37-1.24 1.91-2.42 1.24a1.35 1.35 0 0 1-.79-1.28 8.51 8.51 0 0 0-.07-1 81.39 81.39 0 0 1-10.45.43c0 .39-.07.7-.11 1a1.48 1.48 0 0 1-2.06 1.33h-.1c-.8-.39-1.13-.26-1.23-1.6-.18-2.48-.15-5-.21-7.43a6.66 6.66 0 0 0-.09-1.31c-1.05-.12-2 .23-3.06.18s-2.12 0-3.18 0-2-.11-3.09-.17c-.22.17-.16.44-.16.67v5.84a17.75 17.75 0 0 1-.25 2.64.86.86 0 0 1-.83.81 8.66 8.66 0 0 1-.25-1.18 16.65 16.65 0 0 1-.16-2.11q-.06-4.79-.08-9.56L11 33.22c0-1.28.12-2.55.19-3.82v-.74c0-.06-.08-.12-.15-.22l-.8.27v6.02c-.1 8-.19 16-.06 24q.11 6.1.19 12.21a9.24 9.24 0 0 1 0 1.49 8.45 8.45 0 0 1-.37 1.24 6.39 6.39 0 0 0 1.66.47zm29.41-13.86a3.53 3.53 0 0 0 .38 0c3.51.08 7-.12 10.51-.25h.11c3-.21 5.93-.34 8.91-.34 3.79 0 7.58-.1 11.36-.16h3.4a23.3 23.3 0 0 1 3.43.09v-1.08c0-3.44.06-6.87.08-10.31v-6.37c-.07-4.28-.17-8.57-.26-12.85 0-.24 0-.48-.06-.75a2 2 0 0 1-1.74-1.11 10.29 10.29 0 0 1-.74.82 1.25 1.25 0 0 1-2-.08c-.14-.14-.17-.41-.5-.4-.11.19-.23.4-.36.6a3.17 3.17 0 0 1-.37.51.94.94 0 0 1-1.48-.1c-.16-.23-.26-.5-.4-.75s-.22-.31-.36-.51c-.09.17-.13.26-.19.35a1.41 1.41 0 0 1-2.29.56c-.16-.1-.27-.34-.54-.25a6.06 6.06 0 0 1-.47.56 1.3 1.3 0 0 1-2 0c-.18-.19-.34-.4-.52-.61-1 1.2-1.85 1.74-3.5 0a2.21 2.21 0 0 1-.23.36 1.46 1.46 0 0 1-2.44-.12c-.13-.15-.17-.39-.43-.38-.23.27-.44.57-.69.81a1.34 1.34 0 0 1-2.23-.3c-.15-.23-.26-.49-.4-.75a7.68 7.68 0 0 1-.64.77 1.11 1.11 0 0 1-1.68-.14c-.16-.2-.31-.43-.45-.62a12.72 12.72 0 0 1-1.14 1.17 1.2 1.2 0 0 1-2-.58c-.08-.21 0-.5-.36-.59a6 6 0 0 1-.54.66 1.07 1.07 0 0 1-1.6-.14 5.29 5.29 0 0 1-.39-.75l-.3-.57a4 4 0 0 1-1.08 1.68 1.07 1.07 0 0 1-1.74-.15c-.16-.21-.29-.46-.49-.78a6.67 6.67 0 0 1-.4.7 3.53 3.53 0 0 1-.61.72 1.07 1.07 0 0 1-1.63-.28 3.53 3.53 0 0 1-.36-.76c-.08-.2-.13-.42-.2-.63a11.55 11.55 0 0 1-1 1.42 1.24 1.24 0 0 1-2.07-.2c-.15-.22-.26-.48-.43-.8a5.28 5.28 0 0 1-.45.52 3.73 3.73 0 0 1-.65.54 1 1 0 0 1-1.41-.28 3.3 3.3 0 0 1-.4-.74 6.8 6.8 0 0 1-.18-.79 3 3 0 0 0-.32.35c-.19.3-.35.61-.54.91a1.12 1.12 0 0 1-1.25.59c-.53-.12-.69-.55-.75-1 0-.18.09-.4-.16-.56-.32.35-.61.71-.94 1a1.2 1.2 0 0 1-2.06-.44c-.12-.28-.2-.56-.31-.87-.42.53-.77 1-1.17 1.46a2.65 2.65 0 0 1-.75.58 1.07 1.07 0 0 1-1.42-.28c-.13-.14-.12-.42-.41-.42a6.3 6.3 0 0 1-.55.48 4.48 4.48 0 0 1-.81.49 1.05 1.05 0 0 1-1.5-.73 6.13 6.13 0 0 1-.11-1.05c0-.15.09-.35-.18-.44l-.6.87a2.62 2.62 0 0 1-1.11.95 1 1 0 0 1-1.53-.62c-.08-.21 0-.51-.28-.59a13.45 13.45 0 0 1-1.15.81 1.09 1.09 0 0 1-1.6-.51 3.82 3.82 0 0 1-.19-.6A.81.81 0 0 0 13 27c-.24.25-.46.47-.64.67 0 4.66.1 9.26.15 13.86l.2 18.81a1 1 0 0 0 .22.86c2.5-.13 5.07-.24 7.66-.51a28.31 28.31 0 0 1-.11-4.3q.06-6 .11-12a45.52 45.52 0 0 1 .23-5.09 10.7 10.7 0 0 1 .25-1.3 1.76 1.76 0 0 1 1.61-1.46c1-.13 2-.29 2.95-.33 3.61-.15 7.22-.14 10.83 0a10 10 0 0 1 3.51.76 1.54 1.54 0 0 1 1 1.35c.06.71.15 1.41.15 2.12v16.15a21.62 21.62 0 0 1-.14 3.5c.02.01.02.08.09.19zm-15.42.54l11-.59c.82-1.13 1.62-1.07 2.92.28a1.68 1.68 0 0 0 0-.42c0-.35-.11-.7-.11-1.05 0-4.14.06-8.28.09-12.42 0-2.76.06-5.53.07-8.29a3.73 3.73 0 0 0-.15-.69 5.41 5.41 0 0 0-.7 0 14.33 14.33 0 0 1-3.07.13c-1.77-.05-3.54-.13-5.31-.11-2.19 0-4.38.1-6.58.17a9 9 0 0 0-1.21.17c-.54.09-.75.31-.75.84 0 1.31 0 2.63.08 3.93.19 3.82.22 7.65.17 11.47 0 2.13-.06 4.25-.09 6.41a5.45 5.45 0 0 0 .66-.72.9.9 0 0 1 .71-.4c1.19-.14 1.53 0 2.1 1.13zm54.27-32.94a1 1 0 0 0 0 .27 42.84 42.84 0 0 1 .39 5.18c0 .64 0 1.28.07 1.91.17 3.78.39 7.56.38 11.35v26.65a1.11 1.11 0 0 0 .1.29.89.89 0 0 0 .93-.21V50c0-1.17 0-2.33-.06-3.5q-.15-5.52-.32-11c-.07-2.29-.15-4.59-.21-6.89a1.68 1.68 0 0 0-.65-1.39zM26 69.43c3.48-.26 7-.47 10.51-.44a18.12 18.12 0 0 0 .14-3.54h-.76c-.78.05-1.55.12-2.32.18-.39 0-.78 0-1.17.06a58.92 58.92 0 0 1-5.94.17 2.53 2.53 0 0 0-.57.08v3.14a1.32 1.32 0 0 0 .11.35zm13.74-7.17h3.16l9.1-.2c2.62-.06 5.24-.12 7.86-.15 6.4-.09 12.8-.14 19.24.22a2.1 2.1 0 0 0 0-1.29c-.5 0-.95.11-1.41.11q-6.48.12-13 .2H58.1c-1.13 0-2.26 0-3.4.09-2.72.1-5.44.26-8.16.33a50.64 50.64 0 0 1-6.16-.17c-.26 0-.56-.15-.8.12.07.21.1.42.15.74zM23.3 60.58c0 1.51.07 2.92.16 4.33s.09 2.76.15 4.13.17 2.81.26 4.2c.61 0 .71 0 .74-.37a14.82 14.82 0 0 0 0-1.49c-.08-2.76-.17-5.51-.28-8.27 0-.67-.1-1.34-.18-2-.02-.39-.15-.45-.85-.53zm14.3 0a5.34 5.34 0 0 0-.05.69c.09 1.94.24 3.88.21 5.82v5.62c0 .28.11.28.27.24a.6.6 0 0 0 .34-.2.47.47 0 0 0 .09-.3c0-.59.12-1.19.14-1.79.11-2.69-.11-5.37-.21-8.05a10.62 10.62 0 0 0-.23-1.57.51.51 0 0 0-.56-.42zM25.83 64.8a42.89 42.89 0 0 0 5.22-.22c1.83-.09 3.66-.29 5.48-.45 0 0 .06 0 .09-.06a.34.34 0 0 0 .06-.06v-.56c-1.23.09-2.41.2-3.6.26s-2.47.08-3.7.11-2.38-.12-3.58-.08a1.35 1.35 0 0 0 .03 1.06zm-.14-2.07a97 97 0 0 0 11-.55.45.45 0 0 0-.07-.65 72.44 72.44 0 0 1-7.8.3h-2.54a4.88 4.88 0 0 0-.62.09c0 .28.01.52.03.81zm10.71 7.34c-.75.09-1.45.19-2.14.23s-1.41 0-2.12.07-1.34.07-2 .07h-2.11a8.84 8.84 0 0 0-2.11.08c0 .24-.08.45.13.62a.76.76 0 0 0 .2.06l6.87-.26c.17 0 .35-.07.52-.08a23.06 23.06 0 0 1 2.63-.16c.05 0 .11-.06.17-.09a.73.73 0 0 0 0-.2 1.69 1.69 0 0 0-.04-.34zm-14.33-8.13a55.55 55.55 0 0 1-9.24.37c-.15.22-.18.38 0 .58h.46l8.58-.06s.06 0 .09-.05l.12-.09z" fill="#742823" data-color="1"/>
            <path d="M53.26 0c7.57.08 14.29.15 21 .24a19.75 19.75 0 0 1 2.43.21 6.27 6.27 0 0 1 1.64.55 2.46 2.46 0 0 1 .79.69 19.31 19.31 0 0 1 1.16 1.64 61.29 61.29 0 0 1 3.63 6.6c1.94 4 3.85 8.12 5.41 12.34.32.86.6 1.73.85 2.62a3.66 3.66 0 0 1 .09 1.11.55.55 0 0 1-.44.53.51.51 0 0 1-.55-.23 4.49 4.49 0 0 1-.46-.83c-.3-.75-.57-1.52-.85-2.28A144.26 144.26 0 0 0 79.4 4.36c-.41-.75-.89-1.45-1.33-2.17A1.08 1.08 0 0 0 77 1.66c-1.35.06-2.69.12-4 .14h-5.3c-1.28 0-2.55-.06-3.83-.06-8 0-16.07-.07-24.11 0-3.36 0-6.72.23-10.08.37-1.66.07-3.32.16-5 .28-1.27.08-2.54.21-3.8.33-1.44.15-2.88.34-4.33.46a7.2 7.2 0 0 0-2.14.56 5.77 5.77 0 0 1-.81.26.33.33 0 0 1-.43-.21.74.74 0 0 1 .08-.48c.05-.11.2-.19.32-.27A6.33 6.33 0 0 1 16 2c1.46-.25 2.93-.5 4.4-.67 2-.24 3.94-.42 5.91-.6C27.42.6 28.55.52 29.68.47c2.23-.11 4.46-.16 6.69-.28C42.28-.12 48.19.05 53.26 0z" fill="#742823" data-color="1"/>
            <path d="M57.59 9.46c.27.32.45.57.67.79s.44.34.7.54a3.32 3.32 0 0 0 .24-.52c.06-.2.08-.41.15-.61s.13-.57.46-.66.46.25.56.67a2.16 2.16 0 0 1-.44 1.8.92.92 0 0 1-1.23.28 4.32 4.32 0 0 1-.53-.34c-.15-.09-.29-.19-.44-.3-.22.15-.42.3-.62.42a1 1 0 0 1-1 0 2.07 2.07 0 0 1-1.05-1.85.48.48 0 0 1 .09-.29.67.67 0 0 1 .33-.22c.05 0 .18.1.22.18.12.25.21.52.33.78a1.63 1.63 0 0 0 .23.35.34.34 0 0 0 .55 0c.14-.2.27-.42.41-.62a5.51 5.51 0 0 1 .37-.4z" fill="#742823" data-color="1"/>
            <path d="M21.63 11.77a10.84 10.84 0 0 1-1 .77.91.91 0 0 1-1.46-.63 2.06 2.06 0 0 1 .28-1.62.45.45 0 0 1 .65-.22c0 .43.05.88.08 1.42a2.32 2.32 0 0 0 .49-.22c.3-.25.56-.54.86-.79a3 3 0 0 1 .4-.26c.5.24.36.79.66 1.1.35-.14.5-.48.74-.74.09-.1.17-.24.29-.3a.55.55 0 0 1 .38 0 .3.3 0 0 1 .14.26 2.21 2.21 0 0 1-1 1.66.89.89 0 0 1-1.09 0z" fill="#742823" data-color="1"/>
            <path d="M36.94 9.68l.74 1.05c.47-.13.68-.53 1-.82s.49-.51.76-.74a.3.3 0 0 1 .43.28 3.22 3.22 0 0 1-1.37 2.18 1.07 1.07 0 0 1-1.37-.05l-.34-.3-.82.45a.85.85 0 0 1-1.25-.57 2.36 2.36 0 0 1-.06-.84 1.06 1.06 0 0 1 .31-.89c.51.27.23.94.66 1.27.37-.3.79-.62 1.31-1.02z" fill="#742823" data-color="1"/>
            <path d="M46.2 18.69a3.83 3.83 0 0 0 .61-1.21c.09-.19.15-.42.41-.44s.32.29.3.61a2.69 2.69 0 0 1-.62 1.55.93.93 0 0 1-1.32.17c-.26-.18-.48-.41-.74-.63a5.88 5.88 0 0 1-.51.36.78.78 0 0 1-1.06-.1 2 2 0 0 1-.63-1.73v-.1c0-.02.18-.26.29-.29a.53.53 0 0 1 .36.14 1.45 1.45 0 0 1 .22.36c.09.18.18.37.29.58l.8-.67c.48 0 .61.39.82.66s.35.66.78.74z" fill="#742823" data-color="1"/>
            <path d="M24.68 18.5c.43-.4.76-.71 1.1-1a2.52 2.52 0 0 1 .44-.28.2.2 0 0 1 .2 0 .64.64 0 0 1 .13.26.4.4 0 0 1 0 .21 2.9 2.9 0 0 1-1.35 1.55.86.86 0 0 1-1.38-.7 2.35 2.35 0 0 1 .08-.83c0-.09.19-.18.31-.21s.19.09.23.17.12.47.24.83z" fill="#742823" data-color="1"/>
            <path d="M70.73 10.87c.38-.38.36-.79.5-1.15 0-.11.21-.27.28-.25a.58.58 0 0 1 .39.28 1.61 1.61 0 0 1-.72 1.82 1 1 0 0 1-.3.09A1.58 1.58 0 0 1 69.26 10a.31.31 0 0 1 .2-.2.32.32 0 0 1 .28.08c.17.17.3.39.47.56a5.14 5.14 0 0 0 .52.43z" fill="#742823" data-color="1"/>
            <path d="M65.51 19.32a1.37 1.37 0 0 1-.4-.14 1.64 1.64 0 0 1-.76-1.43c0-.09.14-.22.25-.27a.28.28 0 0 1 .26.11 2.91 2.91 0 0 1 .21.48c.22.48.41.53.79.23.2-.15.38-.32.58-.46a.35.35 0 0 1 .3 0 .49.49 0 0 1 .17.34 1.32 1.32 0 0 1-1.4 1.14z" fill="#742823" data-color="1"/>
            <path d="M61.46 51.81h-7.87a17.41 17.41 0 0 1-1.9-.17 1.65 1.65 0 0 1-.68-.25c-.16-.11-.35-.35-.33-.5a6.91 6.91 0 0 0-.12-1.37 106.13 106.13 0 0 1 0-11.14 2.21 2.21 0 0 1 .06-.63c.2-.61.44-1.19 1.24-1.26 1.05-.09 2.1-.26 3.15-.35 3.85-.3 7.71-.3 11.57-.22 1.16 0 2.33.13 3.49.22a3.77 3.77 0 0 1 .93.2 1.28 1.28 0 0 1 1 1.23c.08 1.2.21 2.4.23 3.6v7.64a3.77 3.77 0 0 1-.67 2 .79.79 0 0 1-.41.33 6.1 6.1 0 0 1-1 .29 16.12 16.12 0 0 1-1.69.17zM52 50.32h5.81a16.59 16.59 0 0 0 2.82-.09 46.5 46.5 0 0 1 0-5.15c.09-2.36.21-4.73.31-7.1a5.3 5.3 0 0 0-.09-.63H58.9c-2.3.14-4.59.31-6.88.47l-.08.07-.11.1c.17 4.07.27 8.13.17 12.33zm19.14-12.73c-.58 0-1 0-1.49-.08-2.33-.21-4.67-.16-7-.17a3.15 3.15 0 0 0-.63.12 23.19 23.19 0 0 1 .14 4.7c0 1.74-.11 3.47-.17 5.2A13 13 0 0 1 61.8 50c0 .05 0 .12.08.24h.7l4.67-.14c1 0 2-.09 3.08-.15a3.47 3.47 0 0 0 .53-.12 82.7 82.7 0 0 1 .28-12.24z" fill="#742823" data-color="1"/>
            <path d="M75.22 56.58c-.07-.11-.2-.22-.2-.32a.82.82 0 0 1 .53-.73.26.26 0 0 1 .25.1.69.69 0 0 1-.24.84 1.69 1.69 0 0 1-.34.11z" fill="#742823" data-color="1"/>
            <path d="M74.4 55.89c-.06 0-.19-.09-.21-.17a.55.55 0 0 1 .47-.66.19.19 0 0 1 .16.1.59.59 0 0 1-.42.73z" fill="#742823" data-color="1"/>
            <path d="M35.55 49.76a3.75 3.75 0 0 1-.54-.09 1.16 1.16 0 0 1-.82-1.21 1.11 1.11 0 0 1 1.08-1 3.7 3.7 0 0 1 1.24.19 1.06 1.06 0 0 1 .42 1.51 1.54 1.54 0 0 1-1.38.6zm.22-1.7c-.41 0-.72.23-.71.46a.64.64 0 0 0 .64.46 1 1 0 0 0 .47-.19.39.39 0 0 0-.07-.63c-.1-.05-.27-.08-.33-.1z" fill="#742823" data-color="1"/>
            <path d="M58.46 44.69a1.28 1.28 0 0 1-1.1-.49.9.9 0 0 1-.13-1 1 1 0 0 1 1-.48 3.64 3.64 0 0 1 .71.22.77.77 0 0 1 .54.71.88.88 0 0 1-.49.88 1.82 1.82 0 0 1-.53.16zm-.29-1.41c-.11.12-.21.18-.22.26a.36.36 0 0 0 .45.4c.07 0 .18-.18.16-.2a3.82 3.82 0 0 0-.39-.46z" fill="#742823" data-color="1"/>
            <path d="M63.92 44.78a1.26 1.26 0 0 1-1.13-1 1.07 1.07 0 0 1 .69-1.18 1 1 0 0 1 .3-.09c.66 0 1 .53 1.16 1.28.06.53-.45 1.02-1.02.99zm.08-1.55a1.1 1.1 0 0 0-.29.09.28.28 0 0 0-.11.43.44.44 0 0 0 .33.16c.21 0 .22-.22.2-.39a1.45 1.45 0 0 0-.13-.29z" fill="#742823" data-color="1"/>
        </g>
    </g>
</svg>
