<?xml version="1.0" encoding="UTF-8"?>
<svg data-bbox="-0.043 0 86.875 77.691" viewBox="0 0 86.89 77.66" xmlns="http://www.w3.org/2000/svg" data-type="color">
    <g>
        <g>
            <path d="M8.6 31.51c.43 0 .53-.37.73-.6l1.08-1.3a.85.85 0 0 1 1.21-.27 1.43 1.43 0 0 0 .44.09c.36.79 0 1.78.63 2.56a5.55 5.55 0 0 0 .54-.34l1.62-1.36a4.6 4.6 0 0 1 .51-.39.53.53 0 0 1 .81.38c0 .24 0 .5.07.74a3.06 3.06 0 0 0 .19.49 4.07 4.07 0 0 0 1.24-1.07c.28-.32.55-.65.84-1a.89.89 0 0 1 .65-.32.59.59 0 0 1 .53.28.38.38 0 0 0 .25.14c.36-.08.43.11.44.4s0 .85 0 1.27c0 .21 0 .42.07.72a1.93 1.93 0 0 0 .47-.28 13.18 13.18 0 0 0 .95-1.15 2.42 2.42 0 0 1 1.58-1.15 2.24 2.24 0 0 0 .41-.18c.58.85.19 1.92.74 2.79a1.71 1.71 0 0 0 .41-.27c.27-.29.49-.61.75-.9a10.31 10.31 0 0 1 1-1 .66.66 0 0 1 1.05.29 4.48 4.48 0 0 1 .21.82 2.29 2.29 0 0 0 .29 1 2.3 2.3 0 0 0 .82-.79c.24-.3.46-.63.7-.93a4.27 4.27 0 0 1 .5-.54.72.72 0 0 1 .88-.13 3.18 3.18 0 0 0 .65.18c.11.21.23.47.37.71a.49.49 0 0 0 .8.17c.26-.19.49-.4.74-.61l.73-.61a.58.58 0 0 1 .69-.1c.25.16.46 0 .69-.07.41.69.45 1.47.9 2.13a2.06 2.06 0 0 0 .58-1.12 2.93 2.93 0 0 1 .62-1.1.78.78 0 0 1 1-.2.76.76 0 0 1 .36.35 5.29 5.29 0 0 1 .2.71 3 3 0 0 0 .65 1.32c.41.44.78.45 1.14 0s.5-.77.77-1.14a3.06 3.06 0 0 1 .58-.61.54.54 0 0 1 .82.18c.2.37.38.75.6 1.12a1.33 1.33 0 0 0 .75.74 2.67 2.67 0 0 0 .66-1.18 2.11 2.11 0 0 1 1.16-1.17h.19c.54.72.9 1.7 1.94 2.06a10.75 10.75 0 0 0 1.2-1.52 6.64 6.64 0 0 1 .55-.64.35.35 0 0 1 .53.14c.11.29.18.61.29.9a6.93 6.93 0 0 0 .42 1 .36.36 0 0 0 .67 0c.11-.23.18-.46.27-.69s.2-.54.33-.79a.74.74 0 0 1 1.35 0c.25.43.47.87.74 1.28a.9.9 0 0 0 .65.51c.35-.21.46-.61.69-.92s.45-.63.71-.92a.37.37 0 0 1 .62.1c.1.19.16.4.25.59a2.89 2.89 0 0 0 1 1.19.41.41 0 0 0 .63-.15c.16-.31.27-.65.43-1a8.48 8.48 0 0 1 .63-1.1.46.46 0 0 1 .74 0 2.22 2.22 0 0 1 .34.52c.18.35.31.72.5 1.06s.54.46.78.05.29-.57.44-.85a4.4 4.4 0 0 1 .31-.56.59.59 0 0 1 .92-.06 3.64 3.64 0 0 1 .47.81c.21.45.38.92.58 1.37a2.82 2.82 0 0 0 .35.47 3.1 3.1 0 0 0 .36-.41c.26-.43.48-.87.74-1.3a3.11 3.11 0 0 1 .45-.58.41.41 0 0 1 .57 0c.14.16.24.35.38.51a2.67 2.67 0 0 0 1.43 1 2.86 2.86 0 0 0 .49-.45 10.82 10.82 0 0 0 .67-1.08.58.58 0 0 1 1.08 0 5.89 5.89 0 0 0 1.25 1.53 2.8 2.8 0 0 1 2-2c.33.36.28.9.48 1.33a2.6 2.6 0 0 0 .91 1.13 3.92 3.92 0 0 0 .35-.38c.17-.23.33-.46.48-.71a1.15 1.15 0 0 1 1.52-.57c.38.51.39 1.2.85 1.76a4.41 4.41 0 0 0 .39-.54c.17-.31.28-.65.45-1a.7.7 0 0 1 1.21-.22l.14.16a1.58 1.58 0 0 0 1.77.34c.33-.11.65-.27 1-.43a2.8 2.8 0 0 0 0-.57 63.46 63.46 0 0 0-2-6.6 135 135 0 0 0-5.74-13.89q-1.47-3-3.23-5.86A7.45 7.45 0 0 0 73 1.62c-2.53.2-5 0-7.55 0H50.26c-5.56.09-11.12.16-16.68.29-2.76.06-5.51.22-8.27.35-1.27.06-2.55.13-3.81.27s-2.24.34-3.35.54c-.35.06-.69.17-1 .22a.47.47 0 0 1-.36-.15.37.37 0 0 1 0-.49 1.78 1.78 0 0 1 .55-.48 13 13 0 0 1 1.89-.69 27.66 27.66 0 0 1 4-.57C25.66.69 28.1.6 30.54.49 39.39.11 48.24.07 57.1 0c4.39 0 8.78 0 13.17.08h1.17a4.77 4.77 0 0 1 3.86 2.11c.35.48.68 1 1 1.49a55.12 55.12 0 0 1 3.78 7.12 138.31 138.31 0 0 1 5.7 14.86c.4 1.28.72 2.59 1 3.89a2.65 2.65 0 0 1 0 1.05 1.22 1.22 0 0 1-1.92.87l-.44-.31a2.1 2.1 0 0 1-2.62.43A3.21 3.21 0 0 1 80 33c.47 6 .38 12.09.27 18.14-.07 4.67-.26 9.34-.41 14 0 1.77-.11 3.54-.19 5.31 0 .82-.11 1.63-.16 2.44a1.73 1.73 0 0 1-.41 1.07.6.6 0 0 1-1-.17 1.5 1.5 0 0 1-.09-.42v-1c.11-3.79.18-7.58.35-11.36.38-8.78.4-17.56.38-26.34a14.23 14.23 0 0 1 .18-3.06c0-.06-.05-.13-.1-.25-.11.1-.22.17-.31.27s-.3.4-.48.57a1.21 1.21 0 0 1-1.64.11 4.23 4.23 0 0 1-.68-.66 6.05 6.05 0 0 1-.41-.55c-.27.24-.34.56-.54.78s-.45.44-.7.69c0 .46 0 1 .07 1.45.7.24 1.44.07 2.06.38a.29.29 0 0 1-.26.41 9.1 9.1 0 0 1-1 .1c-4.38.32-8.78.18-13.17.22h-1.24a1.9 1.9 0 0 0-.15 1.08v1a4.85 4.85 0 0 0 .72.11q3 .08 6.06.11c2.16 0 4.32 0 6.48.05a4.58 4.58 0 0 1 .74 0c.15 0 .39.12.42.23.08.29-.19.3-.39.35s-.2.06-.3.09c0 .81 0 1.6-.08 2.43.51.06 1.07.12 1.63.2a2 2 0 0 1 .49.16.25.25 0 0 1 .1.18.26.26 0 0 1-.11.17 2.1 2.1 0 0 1-.6.14h-5.2c-1.56 0-3.12-.11-4.67-.15s-3.19-.08-4.78-.11h-.63c-.21.59.07 1.26-.46 1.74-.62-.44-.36-1.11-.52-1.66-.26-.25-.6-.16-.9-.17-3 0-5.95-.07-8.93-.06-5 0-9.91.06-14.87.11-1.2 0-2.41 0-3.61.09-.21 0-.41.05-.64.07A5.89 5.89 0 0 1 29.9 43a.26.26 0 0 1-.32-.22c-.1-.44-.19-.89-.3-1.39-.21 0-.41-.06-.61-.06l-3 .11-1.28.07-10 .38a5.14 5.14 0 0 1-1 0c-.15 0-.28-.15-.5-.27.39-.35.8-.25 1.16-.3s.85-.09 1.27-.13a4.45 4.45 0 0 0 1.21-.19c0-.12.11-.18.11-.24 0-.74-.05-1.48-.08-2.29a5.18 5.18 0 0 0-.73-.09c-.81 0-1.62.08-2.44.1a6 6 0 0 1-.94-.1 2.75 2.75 0 0 1-.45-.18l.36-.27a.2.2 0 0 1 .11 0c1.94-.07 3.89-.15 5.83-.2 3.47-.08 6.94-.13 10.41-.2l.66-.06a16.84 16.84 0 0 0 0-1.88H18.05c-1.48 0-3-.11-4.45-.18a1.45 1.45 0 0 1-.41-.1s-.06-.11-.07-.17 0-.07.05-.09a1.06 1.06 0 0 1 .81-.17l2.12.05h.57c.08-.39.14-.77.22-1.14a1.43 1.43 0 0 1 .17-.38.24.24 0 0 1 .19-.06.21.21 0 0 1 .16.1c.05.32.09.63.13.94v.47a4.49 4.49 0 0 0 .61.09h2.23l4.46-.11 13.91-.35c1.63 0 3.26 0 4.89-.06h1A3.55 3.55 0 0 0 45 33c-1-.43-1-.43-2-1.64l-.3.44a6.57 6.57 0 0 1-.51.67 1.71 1.71 0 0 1-2.4.15 4.06 4.06 0 0 1-.72-.77c-.16-.23-.27-.49-.44-.8a1.83 1.83 0 0 0-.42.56 5.17 5.17 0 0 1-.49.56 1.14 1.14 0 0 1-1.89-.24 4 4 0 0 1-.32-.66c-.09-.19-.17-.38-.29-.65a7.55 7.55 0 0 1-.7.75 4.36 4.36 0 0 1-1 .63 1.42 1.42 0 0 1-1.87-.52 5.89 5.89 0 0 1-.32-.54c-.3-.07-.37.18-.47.34a5.31 5.31 0 0 1-1.53 1.6 2.52 2.52 0 0 1-.86.37 1 1 0 0 1-1.22-.63c-.12-.25-.2-.52-.33-.86l-.76.77a3.13 3.13 0 0 1-1.11.79 1 1 0 0 1-1.29-.4 4 4 0 0 1-.37-1 6 6 0 0 1-.13-.69c-.28-.11-.34.1-.46.22-.43.41-.85.84-1.29 1.25a2.4 2.4 0 0 1-.51.3.94.94 0 0 1-1.42-.61 2.62 2.62 0 0 1-.11-1.36c.05-.23.05-.47.09-.88-.32.38-.51.63-.71.87a4.79 4.79 0 0 1-1.67 1.29c-.79.36-1.18.23-1.67-.53a3.25 3.25 0 0 0-.23-.28c-.3.29-.56.57-.85.82a5.08 5.08 0 0 1-.91.71 1.37 1.37 0 0 1-2.16-.88 8.77 8.77 0 0 1-.2-1.14c-.34 0-.4.26-.57.42s-.33.37-.48.55a12.6 12.6 0 0 1 .26 2.65c.17 5.88.29 11.75.16 17.63-.07 3.05-.08 6.09 0 9.14s.19 6.08.29 9.13c0 1 0 1.91.06 2.87 0 .38-.05.77-.07 1.18.1.2.33.19.53.21l1.38.07 3.08.14h.9c.25-.24.11-.5.12-.73s0-.48 0-.78h-.88c-.53 0-1.07.06-1.6 0a1.12 1.12 0 0 1-1-.48.93.93 0 0 1 .32-.1 30.25 30.25 0 0 0 4.66-.32 13.15 13.15 0 0 1 3.49.14c.11 0 .19.15.29.23a1 1 0 0 1-.91.33l-2.55.09h-1.1c0 .54.06 1 .09 1.52a.78.78 0 0 0 .27.09l6.26.25c2.69.1 5.38.23 8.07.32 1.95.06 3.89.09 5.84.1q15.93.23 31.84.34h5.53a3.23 3.23 0 0 0 2.48-.83c.29 0 .36.19.34.37a1.56 1.56 0 0 1-.83 1.29 3.36 3.36 0 0 1-1.18.43c-1.33.17-2.67.32-4 .4-1.16.07-2.33 0-3.5 0q-10.15 0-20.29-.09c-4.5 0-9-.08-13.5-.18-3.15-.07-6.29-.22-9.44-.34h-.64c-2.69-.1-5.38-.18-8.07-.29-1.55 0-3.11-.12-4.66-.21a6.89 6.89 0 0 1-1.36-.22c-.49-.14-.93-.35-1-1a1.59 1.59 0 0 0-.22-.48 3.19 3.19 0 0 1-.35-1.53c-.13-3.8-.22-7.62-.36-11.44v-2.87C8.9 53.16 9 47.32 9 41.48c0-2.48.19-4.95.28-7.43v-1.13c-.09 0-.15-.1-.21-.1-1.06 0-1.11 0-1.49-.95-.06-.16-.13-.31-.2-.48-.43.39-.81.76-1.21 1.1a4.59 4.59 0 0 1-.78.55 1.19 1.19 0 0 1-1.74-.43c-.06-.09-.09-.19-.15-.28a1.37 1.37 0 0 0-.2-.16c-.22.2-.43.43-.67.62a1.43 1.43 0 0 1-2.4-.63 4 4 0 0 1-.13-2.51 21.57 21.57 0 0 1 .9-2.73 49.74 49.74 0 0 1 3.16-6.48A168.78 168.78 0 0 1 13.21 6.2c.51-.73 1.08-1.41 1.63-2.1a2 2 0 0 1 .53-.51.94.94 0 0 1 .6 0 .51.51 0 0 1 .26.63 4.4 4.4 0 0 1-.34.77c-.55.91-1.09 1.83-1.69 2.7-2.84 4.11-5.55 8.29-8 12.62a58.46 58.46 0 0 0-3.67 7.18c-.32.78-.58 1.59-.84 2.4a3.47 3.47 0 0 0-.1 1.78.32.32 0 0 0 .55.22 2.71 2.71 0 0 0 .84-1.2 1.26 1.26 0 0 1 .72-.73.51.51 0 0 1 .78.42c.05.27 0 .56.07.84a4.59 4.59 0 0 0 .18.56c.44 0 .6-.3.84-.49l1.6-1.39a1 1 0 0 1 1.14-.09c.06.54.17 1.12.29 1.7zm36 6.62h-1.21c-4.35 0-8.7.13-13 .17-3.83 0-7.65 0-11.47.06a2.64 2.64 0 0 0-1.2.11v1.14a5.59 5.59 0 0 0-.14 1.23 1.62 1.62 0 0 0 .37.06c.95 0 1.91 0 2.86-.09 2.2-.1 4.38-.26 6.58-.32 3.82-.1 7.64-.15 11.46-.21h5a1.35 1.35 0 0 0 .85-.12c0-.47.06-1 .08-1.45a.74.74 0 0 0 0-.21v-.1c0-.03-.14-.09-.21-.27zm15.1-.83c-.1-.79-.18-1.44-.27-2.16h-1.22l-13.69.13-10.83.11c-1 0-2 .06-3 .11a3.06 3.06 0 0 0-.59.11 8.51 8.51 0 0 1 .1.9c0 .31 0 .61-.05.93h1.94c1.45 0 2.9-.13 4.35-.13h23.2zm13.41.87c-.9 0-1.71.14-2.51.13-4.32 0-8.63 0-12.95-.06-3.81 0-7.63-.07-11.45-.1a3.57 3.57 0 0 0-.62.09c0 .67-.07 1.3-.11 1.92a.69.69 0 0 0 .2.07c9.09 0 18.18 0 27.26.26h.1l.08-.06zM54 31.3c-.47.65-.88 1.3-1.74 1.27a2.07 2.07 0 0 1-1.73-1.27 7.79 7.79 0 0 1-.53.7 1.43 1.43 0 0 1-1.93.17 7.85 7.85 0 0 1-.89-.75c-.12-.11-.21-.29-.36-.24-.35.55-.67 1-1 1.63 0 .42-.08.94-.13 1.51h1.21c8.56 0 17.12 0 25.68-.22a3.81 3.81 0 0 0 .59-.08c0-.3.08-.55.12-.79s.11-.46.16-.66a7.43 7.43 0 0 1-.69-.6 7.33 7.33 0 0 1-.54-.77l-.29.38a1.86 1.86 0 0 1-2.92.48c-.11-.08-.22-.19-.33-.27s-.27-.18-.43-.29a5.88 5.88 0 0 1-.43.8 3 3 0 0 1-.65.68 1.29 1.29 0 0 1-1.66-.1 2.8 2.8 0 0 1-.53-.66 6.15 6.15 0 0 1-.39-.81c-.21.19-.38.36-.57.51a1.41 1.41 0 0 1-2.15-.18c-.16-.18-.29-.38-.44-.57-.28.35-.51.71-.8 1a1.37 1.37 0 0 1-1.75.22 5.41 5.41 0 0 1-.69-.49l-.49-.42a9.36 9.36 0 0 1-.7.85 1.39 1.39 0 0 1-2 .07 5.07 5.07 0 0 1-.49-.55c-.21-.16-.33-.33-.51-.55z" fill="#742823" data-color="1"/>
            <path d="M69.55 58.72c-.09.23-.16.46-.25.69a7.32 7.32 0 0 1-.35.88.75.75 0 0 1-.7.39.59.59 0 0 1-.61-.49 1.67 1.67 0 0 1 0-.63 25.37 25.37 0 0 0 .55-5.06c.14-2.33.16-4.67.25-7a2.1 2.1 0 0 0-.59-1.68c-.84-.08-1.71-.18-2.59-.23s-1.7-.09-2.55-.08a11.19 11.19 0 0 0-2.65 0c0 5.31 0 10.58.08 15.91a4.44 4.44 0 0 0 .57.07 28.87 28.87 0 0 0 5.08-.35 4.1 4.1 0 0 1 1.16 0 .5.5 0 0 1 .3.82 1.87 1.87 0 0 1-1 .71 6.53 6.53 0 0 1-1.24.27 35.84 35.84 0 0 1-7.1.1c-1.62-.16-3.24-.31-4.86-.5-.73-.09-1.46-.26-2.18-.42a3.78 3.78 0 0 1-.79-.3 2 2 0 0 1-1.19-1.4c0-.27-.14-.54-.22-.85-2.16 0-4.3.48-6.49 0a5.62 5.62 0 0 0-.08.58 12 12 0 0 0 0 1.69 1.82 1.82 0 0 0 .35.05l4.12-.38c.49 0 1 0 1.48-.11a1.43 1.43 0 0 1 1 .17.54.54 0 0 1 .24.42.53.53 0 0 1-.26.41 1.57 1.57 0 0 1-.71.16h-2.8c-.16.79.15 1.57-.13 2.36-.58-.17-.65-.61-.73-1s-.1-.83-.14-1.23a6.09 6.09 0 0 0-2.45-.07 11.94 11.94 0 0 0-.19 2.31c0 .46 0 .92-.06 1.37-.18 2.08-.39 4.16-.58 6.24a2.11 2.11 0 0 1-.29 1 .63.63 0 0 1-.64.29.52.52 0 0 1-.42-.43 3.75 3.75 0 0 1-.09-.94c.07-1.38.14-2.76.24-4.13a89.54 89.54 0 0 0 .32-9.55 34.36 34.36 0 0 0-.55-5.78 12.14 12.14 0 0 0-.81-2.43 5.49 5.49 0 0 0-3.82-3.26 10.34 10.34 0 0 0-7 .55 7.26 7.26 0 0 0-4.4 5.83 42 42 0 0 0-.48 7.09c0 3.36.08 6.72.12 10.09v1.91c0 .4-.22.62-.46.6s-.4-.15-.48-.49-.11-.62-.17-.94-.07-.4-.1-.6a1.3 1.3 0 0 0-.36 0 36.82 36.82 0 0 1-5.94.08c-.64 0-1.27-.08-1.91-.12a1.53 1.53 0 0 1-.52-.08.42.42 0 0 1-.25-.29.43.43 0 0 1 .22-.32 2.48 2.48 0 0 1 .72-.06c.71 0 1.41.07 2.12.1h.55c-.12-.52-.24-1-.36-1.52-1.14-.13-2.35.29-3.58-.15.17-.18.23-.31.31-.33a8.92 8.92 0 0 1 1.25-.25 58.61 58.61 0 0 1 6.36-.27h.85a1.92 1.92 0 0 0 .16-.14.36.36 0 0 0 0-.11v-.63c-.28-2.36-.07-4.73-.21-7.14a4.69 4.69 0 0 0-.56-.06l-4.57.14c-1.16 0-2.33.06-3.5.07a1.89 1.89 0 0 1-.6-.15.25.25 0 0 1-.08-.18.24.24 0 0 1 .09-.17 1.86 1.86 0 0 1 .41-.08l3.59-.3c.26-.28.1-.61.11-.91s0-.55 0-.89a6 6 0 0 0-.66-.06h-1.49a4.25 4.25 0 0 1-.93-.18.54.54 0 0 1-.25-.3c-.05-.14.14-.29.35-.31h.11c2.41.07 4.81-.17 7.22-.26h.87a12 12 0 0 0 .27-1.84 3.18 3.18 0 0 0-.63-.09L14 54.51a5 5 0 0 1-.94-.08c-.09 0-.18-.2-.21-.32a.31.31 0 0 1 .12-.26 1.3 1.3 0 0 1 .48-.19c.81-.09 1.62-.16 2.43-.23l1.7-.11a11.93 11.93 0 0 1 4.56.25 3.51 3.51 0 0 0 .18-.51 8.77 8.77 0 0 1 6.05-7 11.71 11.71 0 0 1 7-.37 7.21 7.21 0 0 1 5.26 4.52c.38.95.65 1.93 1 3 .45.13 1-.16 1.47-.16a3.84 3.84 0 0 0 1.6-.28c-.1-.58-.2-1.13-.3-1.73a4.28 4.28 0 0 0-.59-.1h-1.49a1.18 1.18 0 0 1-.55-.27.33.33 0 0 1 .13-.52h.21c1.23-.13 2.46-.28 3.69-.37.92-.08 1.84-.07 2.83-.11a20.87 20.87 0 0 0 .25-2.1 1.84 1.84 0 0 1 .44-1.27.32.32 0 0 0 .1-.18 2.05 2.05 0 0 1 1.66-1.48 15.83 15.83 0 0 1 2.07-.43c.77-.1 1.55-.15 2.33-.19 3-.12 6-.15 9 0a10.81 10.81 0 0 1 2.83.41 1.77 1.77 0 0 1 1.11.76 1.36 1.36 0 0 0 .53.48 1.68 1.68 0 0 1 .9 1.58v2.23c0 .27 0 .54.07.86l.58-.07a22.92 22.92 0 0 1 5.16-.56 2.18 2.18 0 0 1 1.34.19.47.47 0 0 1 .17.34.41.41 0 0 1-.24.31 12.29 12.29 0 0 1-1.36.15c-.71 0-1.41.06-2.16.09v1.68H74c.67 0 1.34-.07 2-.07a1.62 1.62 0 0 1 .61.12.43.43 0 0 1 .33.48.57.57 0 0 1-.3.39 2.67 2.67 0 0 1-.92.2 37.6 37.6 0 0 1-5.41-.13h-.41a4.78 4.78 0 0 0-.07 2.28c.79-.1 1.59-.23 2.39-.29 1-.07 1.9-.1 2.86-.12a2 2 0 0 1 .72.15.48.48 0 0 1 .34.48.46.46 0 0 1-.37.46 2.85 2.85 0 0 1-1.36.1l-1.06-.1v1.1a.38.38 0 0 1-.33.36.42.42 0 0 1-.49-.31c0-.35-.06-.7-.09-1.1a13.27 13.27 0 0 0-2.75-.06 7.76 7.76 0 0 0-.17 2.34zM50 46.48c-.08 1.67-.17 3.25-.22 4.84v2.33c.09 1.7.22 3.39.33 5.09s.25 1.65 1.7 1.91 2.94.43 4.41.62c.35 0 .7 0 1.06.06l1.13.08c0-.08.43-15.42.43-15.43s0-.26-.07-.4a1.32 1.32 0 0 0-.32-.09 52.65 52.65 0 0 0-6.15.29 5.13 5.13 0 0 0-2.3.7zm-8.1 9.66l6.58-.43a15.1 15.1 0 0 0-.07-2.34 5.34 5.34 0 0 1-2.11.45l-4 .19a5 5 0 0 0-.64.14c.11.67.19 1.29.28 1.99zM22 69a22.88 22.88 0 0 0-4.41.1v1.4a17.38 17.38 0 0 0 4.54-.17A3.39 3.39 0 0 0 22 69zm-4.49-9.8a26.28 26.28 0 0 0 4.13-.28c.14-1 .14-1-.06-1.6-1.35.27-2.73.06-4.16.26a10.4 10.4 0 0 0 .11 1.59zm24.6-.39a8.59 8.59 0 0 0 2.89-.12c-.11-.6-.21-1.15-.31-1.67A5.49 5.49 0 0 0 42 57a5.41 5.41 0 0 0 .13 1.78zm3.31-6.08a5.36 5.36 0 0 1 3 .25c0-.4.06-.72.05-1a1.82 1.82 0 0 0-.1-1.07H46.9a6.11 6.11 0 0 0-1.59.08 6.93 6.93 0 0 0 .13 1.71zm.13 6c.61-.07 1.08-.14 1.56-.18s1-.07 1.5-.1v-.95a6.21 6.21 0 0 0-.12-.76l-2.43.17a2.12 2.12 0 0 0-.33.11c-.04.51-.09.98-.16 1.7zm27-6.19v-1.65a12.05 12.05 0 0 0-2.68 0 3.78 3.78 0 0 0 0 1.8 13.63 13.63 0 0 0 2.72-.16z" fill="#742823" data-color="1"/>
            <path d="M77.88 64.94c-.26.17-.42.34-.6.37-.62.09-1.26.15-1.89.2-4.74.34-9.48.22-14.23.3h-.95A1.28 1.28 0 0 0 60 66c0 .31-.08.65-.12 1 .27.32.57.23.84.23l11.57.12c1.13 0 2.26.12 3.39.18h.21a.53.53 0 0 1 .48.35c0 .2-.12.43-.43.51a7.65 7.65 0 0 1-1 .17c-.52.06-1 .09-1.57.12-.18.26-.34.47-.55.76l-.7-.76h-1c-7.61-.23-15.22-.36-22.83-.33-.78 0-1.56 0-2.33-.08h-.66c0 .37-.07.68-.1 1a1.51 1.51 0 0 1-.1.42.31.31 0 0 1-.2.19.28.28 0 0 1-.23-.15 7 7 0 0 1-.2-.82c0-.2-.07-.4-.1-.55-.51-.34-1.12 0-1.6-.4.11-.08.18-.18.25-.19.67-.06 1.34-.16 2-.16 1.94 0 3.89-.07 5.83-.18 2.37-.13 4.74-.13 7.12-.2h1.05a1.3 1.3 0 0 0-.1-1.07 2 2 0 0 0-1-.11c-3.15 0-6.3.07-9.45.06-1.92 0-3.83-.09-5.74-.15a1.78 1.78 0 0 1-.5-.1s-.05-.12-.06-.18a.1.1 0 0 1 0-.08 1.38 1.38 0 0 1 .39-.13c1-.07 2-.13 3-.18l2.52-.29c.32 0 .64 0 1-.06 3.22-.08 6.44-.19 9.66-.24 5.45-.07 10.9-.1 16.35-.15h1.59a1.76 1.76 0 0 1 1.2.39z" fill="#742823" data-color="1"/>
            <path d="M45.72 73.61v1.54c0 .19-.08.38-.29.38s-.3-.17-.34-.35C45 74.8 45 74.41 44.9 74v-.45c-.36-.32-.94 0-1.16-.6 2.51-.18 5-.14 7.44-.3s4.95 0 7.47-.31v-.69c0-.2-.05-.34-.09-.57h-1.07L44.66 71a10.34 10.34 0 0 1-1.47-.17c-.09 0-.18-.2-.2-.32s.11-.2.19-.22a2.16 2.16 0 0 1 .62-.09h2.44l18.8-.18c2.06 0 4.11-.11 6.16-.11 1.63 0 3.26.08 4.88.13a.79.79 0 0 1 .41.07.58.58 0 0 1 .23.32.3.3 0 0 1-.15.24 3 3 0 0 1-.71.19c-1.73.14-3.46.24-5.2.23H59.59a3 3 0 0 0 0 1.22h13.53c1.17 0 2.34.08 3.5.14a1.57 1.57 0 0 1 .61.15.54.54 0 0 1 .18.35.3.3 0 0 1-.17.24 9.05 9.05 0 0 1-1.45.28c-.77.06-1.55 0-2.33.07a5 5 0 0 0-.59.07c0 .57-.1 1.1-.16 1.62 0 0-.09.13-.14.13s-.24 0-.27-.09a6.88 6.88 0 0 1-.36-1 3.33 3.33 0 0 1-.08-.67c-.18 0-.35-.08-.51-.09-6.13-.16-12.25-.33-18.37-.17-2.27.06-4.53 0-6.8.06a2.32 2.32 0 0 0-.46.21z" fill="#742823" data-color="1"/>
            <path d="M16.73 47.52a3 3 0 0 0 .09-.34c0-.6-.05-1.2-.07-1.78-.28-.3-.62-.17-.92-.18l-1.91-.07a2 2 0 0 1-.37-.1.28.28 0 0 1 .18-.44 3.1 3.1 0 0 1 .62-.07l7.21-.41q2.22-.13 4.44-.21a4.17 4.17 0 0 1 1.42.19c0 .3-.1.4-.29.43-.9.13-1.81.3-2.73.35-2.08.12-4.17.18-6.25.26-.17 0-.34.05-.56.08-.08.73 0 1.43-.09 2.18a5 5 0 0 0 .56.07l2.23-.12c.95 0 1.91-.06 2.86-.08a.89.89 0 0 1 .81.32c-.09.08-.16.22-.27.24a9.06 9.06 0 0 1-1.56.25q-4.08.15-8.17.24a9 9 0 0 1-1.25-.12s-.08-.12-.08-.17a.23.23 0 0 1 .08-.18 1 1 0 0 1 .3-.07z" fill="#742823" data-color="1"/>
            <path d="M44.39 44.31h-.58l-5.4-.23a1.31 1.31 0 0 1-1.12-.38c.12-.08.21-.19.33-.21a2.24 2.24 0 0 1 .52-.05l8.28-.15a3.25 3.25 0 0 1 1.24.19c.27.11.43.29.38.45a.49.49 0 0 1-.48.34c-.32 0-.64 0-1 .06s-.77 0-1.07 0a.45.45 0 0 0-.21.54c.06.48.15 1 .23 1.48h.86a2.26 2.26 0 0 1 1.23.22.42.42 0 0 1 .21.33.42.42 0 0 1-.19.33 2.69 2.69 0 0 1-.91.25h-4.77a3.22 3.22 0 0 1-.91-.24.36.36 0 0 1-.14-.27.33.33 0 0 1 .18-.23 2.34 2.34 0 0 1 .52-.08c1-.06 1.91-.11 2.86-.18a1.25 1.25 0 0 0 .31-.07c-.08-.72-.22-1.36-.37-2.1z" fill="#742823" data-color="1"/>
            <path d="M12.25 65.91a1 1 0 0 1 1-.57l3.06-.22.65-.08c-.15-.54-.28-1.05-.43-1.63-.18 0-.38-.06-.58-.07l-2.87-.13a4.48 4.48 0 0 1-.63-.06.34.34 0 0 1-.28-.39c0-.2.18-.37.34-.33a11.24 11.24 0 0 0 2.49-.08c.85 0 1.7-.07 2.55-.12a15.13 15.13 0 0 1 3.15.28 1.85 1.85 0 0 1 .43.23c-.16.14-.24.26-.35.29a3.73 3.73 0 0 1-.73.13l-2.46.22c-.21.55 0 1 .09 1.61a3.62 3.62 0 0 0 .73 0 5.38 5.38 0 0 1 1.79.13.66.66 0 0 1 .37.19.59.59 0 0 1 .13.36.32.32 0 0 1-.2.22 5.28 5.28 0 0 1-1.36.17c-2-.15-4 .09-5.94.06a4.56 4.56 0 0 1-.64 0 1.31 1.31 0 0 1-.31-.21z" fill="#742823" data-color="1"/>
            <path d="M61.13 11.51c.26-.46.42-.77.6-1.06a.36.36 0 0 1 .55 0 1 1 0 0 1 .15.91 1.27 1.27 0 0 1-1.85.8l-.35-.16c-1.21.66-1.39.65-2.46 0a4.45 4.45 0 0 1-.51.33 1.12 1.12 0 0 1-1.67-.73 1.9 1.9 0 0 1 .1-1.44c0-.08.14-.14.23-.22.48.41.26 1.12.76 1.54l1-1a.59.59 0 0 1 .56.37 6.58 6.58 0 0 0 .38.63c0 .06.12.08.24.15a2.15 2.15 0 0 0 .32-.35c.14-.24.24-.51.38-.76a.4.4 0 0 1 .7-.06c.16.19.29.4.43.6z" fill="#742823" data-color="1"/>
            <path d="M36.36 62a5.86 5.86 0 0 1-1-.29 1.6 1.6 0 0 1-.1-2.83 2.6 2.6 0 0 1 2.52 0 1.63 1.63 0 0 1 .76 1.72 1.57 1.57 0 0 1-1.22 1.31 6.58 6.58 0 0 1-.96.09zm.8-2a1.58 1.58 0 0 0-.1-.26.87.87 0 0 0-1.34.19.37.37 0 0 0 .14.47.88.88 0 0 0 1.07 0 1.21 1.21 0 0 0 .23-.4z" fill="#742823" data-color="1"/>
            <path d="M17.8 51.39c-.39.5-.1 1.1-.42 1.61-.53-.41-.26-1.09-.66-1.6-.15 0-.39-.07-.62-.08L13 51.3a3 3 0 0 1-.73-.07.32.32 0 0 1-.28-.38c0-.11.17-.21.27-.29a.36.36 0 0 1 .21 0l6.78-.07a2.07 2.07 0 0 1 1.12.25 1.63 1.63 0 0 1 .38.36.3.3 0 0 1-.17.42 3.35 3.35 0 0 1-.63 0l-1.69-.12z" fill="#742823" data-color="1"/>
            <path d="M72.24 62.08h-1.42c-.08 0-.19-.12-.21-.2a.32.32 0 0 1 .09-.27 2.8 2.8 0 0 1 .67-.28 4.88 4.88 0 0 1 .84-.13c1.27-.12 2.53-.24 3.8-.34a1.33 1.33 0 0 1 1 .21.59.59 0 0 1 .22.43.52.52 0 0 1-.33.35 4.23 4.23 0 0 1-.94.1h-1.91c-.28 0-.56.06-.87.1 0 .49 0 .94-.07 1.39A1.25 1.25 0 0 1 73 64a.3.3 0 0 1-.25.15.38.38 0 0 1-.26-.14.93.93 0 0 1-.15-.39c-.05-.48-.07-.94-.1-1.54z" fill="#742823" data-color="1"/>
            <path d="M69.52 58.75a2.67 2.67 0 0 1 .69-.23 53 53 0 0 1 6-.17 3.69 3.69 0 0 1 .92.2.29.29 0 0 1 .17.24c0 .12-.09.29-.19.33a2 2 0 0 1-.7.19 48.42 48.42 0 0 1-6.26-.09 1.21 1.21 0 0 1-.5-.15c-.09 0-.1-.23-.14-.35z" fill="#742823" data-color="1"/>
            <path d="M60.71 21.94c-1.08.73-1.68.57-2.17-.56a2 2 0 0 1-.23-1.23.45.45 0 0 1 .25-.29.5.5 0 0 1 .37.12 2 2 0 0 1 .26.46c.16.3.22.67.55.87.46-.18.46-.18 1-.75l1 .86c.19-.37.34-.68.51-1a.34.34 0 0 1 .54 0 1.39 1.39 0 0 1-.15 1.58 1.1 1.1 0 0 1-1.34.29 5.38 5.38 0 0 1-.59-.35z" fill="#742823" data-color="1"/>
            <path d="M71.27 47.55c.35-.52 1-.37 1.53-.64 0-.34.06-.69.13-1a1.37 1.37 0 0 1 .21-.46c.07-.11.31-.07.36 0a1.76 1.76 0 0 1 .13.5 4.91 4.91 0 0 1 0 .75 1.86 1.86 0 0 0 1.14.05c.42 0 .84-.09 1.27-.12a1.34 1.34 0 0 1 .52.07.5.5 0 0 1 .4.44.47.47 0 0 1-.35.48 4.18 4.18 0 0 1-1 .21h-3.6c-.33.03-.59.03-.74-.28z" fill="#742823" data-color="1"/>
            <path d="M23.66 11.35c.2.43.34.74.49 1.08a4.52 4.52 0 0 0 1.31-.94.3.3 0 0 1 .49.07 3.14 3.14 0 0 1-1.19 1.51c-.5.34-.85.25-1.24-.29a2.58 2.58 0 0 1-.18-.31 5.57 5.57 0 0 1-.67.48 4.56 4.56 0 0 1-1 .43.91.91 0 0 1-1.18-.75 2.3 2.3 0 0 1 .54-1.86c.05-.07.23-.11.27-.07a.47.47 0 0 1 .16.34c0 .16-.13.32-.16.49a6 6 0 0 0-.08.84.29.29 0 0 0 .38.25 3.23 3.23 0 0 0 .57-.26c.29-.19.57-.41.86-.62z" fill="#742823" data-color="1"/>
            <path d="M70.25 12.29c-.63.39-1.26.57-1.84 0a2.45 2.45 0 0 1-.52-.9.68.68 0 0 1 .18-.82 2.09 2.09 0 0 1 .29.23c.1.14.17.31.26.46.25.37.65.56 1 .06a4.38 4.38 0 0 1 .37-.4l.48.27.42.26c.11-.25.21-.45.3-.67s.23-.4.45-.36a.81.81 0 0 1 .5.34 1.24 1.24 0 0 1-.08 1.24 1 1 0 0 1-1.1.45 5.39 5.39 0 0 1-.71-.16z" fill="#742823" data-color="1"/>
            <path d="M62.77 51.34a1.28 1.28 0 0 1 1.29 1.45A1.3 1.3 0 0 1 62.74 54a1.49 1.49 0 0 1-1.49-1.46 1.29 1.29 0 0 1 1.52-1.2zM62.7 53a1.2 1.2 0 0 0 .25-.33c.08-.32-.05-.53-.3-.54a.43.43 0 0 0-.45.34.52.52 0 0 0 .5.53z" fill="#742823" data-color="1"/>
            <path d="M71.13 44.84c.1-.38.43-.45.73-.51.52-.11 1-.16 1.58-.22s1.26-.15 1.89-.2a2.29 2.29 0 0 1 .74 0c.11 0 .22.17.27.28a.38.38 0 0 1-.16.46 1.16 1.16 0 0 1-.49.2c-.81.09-1.62.19-2.43.24h-1.59a1.47 1.47 0 0 1-.4-.1s-.09-.1-.14-.15z" fill="#742823" data-color="1"/>
            <path d="M41.35 11.49a2.22 2.22 0 0 0 .86-.66c.21-.2.4-.4.62-.59s.31-.21.46 0a.45.45 0 0 1 .09.38 2.84 2.84 0 0 1-1.58 1.76 1.3 1.3 0 0 1-.52.09.6.6 0 0 1-.62-.46A2.45 2.45 0 0 1 41 10a.32.32 0 0 1 .28-.07c.06 0 .11.18.09.26a2.56 2.56 0 0 0-.02 1.3z" fill="#742823" data-color="1"/>
            <path d="M44.7 21.42l.44-.69c.14-.24.27-.5.43-.73a.33.33 0 0 1 .27-.09c.08 0 .19.14.19.21a2.64 2.64 0 0 1-.9 2.16.72.72 0 0 1-1.13-.37 3.39 3.39 0 0 1 0-2 .35.35 0 0 1 .22-.21c.16 0 .24.11.26.26s0 .56.09.83a4.13 4.13 0 0 0 .13.63z" fill="#742823" data-color="1"/>
            <path d="M26.05 19.89c.3.41 0 .67-.06 1s0 .55 0 .79c.28.14.39 0 .51-.13.32-.28.62-.58.94-.86a.37.37 0 0 1 .58.44 2.87 2.87 0 0 1-1.65 1.41.73.73 0 0 1-.93-.48 1.07 1.07 0 0 1-.06-.31 2.44 2.44 0 0 1 .67-1.86z" fill="#742823" data-color="1"/>
            <path d="M69.63 20.72l.49 1.08c.35.05.43-.25.63-.37s.35-.17.47 0a.6.6 0 0 1 .11.47 1.57 1.57 0 0 1-.31.65 1 1 0 0 1-1.71-.25 2.18 2.18 0 0 1-.15-.91 1.91 1.91 0 0 1 .24-.65z" fill="#742823" data-color="1"/>
            <path d="M56.18 51.35c.78 0 1.3.35 1.28 1.42A1.36 1.36 0 0 1 56 54.08a1.32 1.32 0 0 1-1.32-1.34 1.39 1.39 0 0 1 1.5-1.39zm.19 1c-.06-.07-.1-.18-.17-.22a.38.38 0 0 0-.49.24c-.08.21 0 .48.17.53s.32-.07.4-.23a2.07 2.07 0 0 0 .09-.29z" fill="#742823" data-color="1"/>
        </g>
    </g>
</svg>
