<?xml version="1.0" encoding="UTF-8"?>
<svg data-bbox="-0.016 0 85.386 68.502" viewBox="0 0 85.4 68.44" xmlns="http://www.w3.org/2000/svg" data-type="color">
    <g>
        <g>
            <path d="M33.33 27.25a1.91 1.91 0 0 0-.45 1.57 37.48 37.48 0 0 1 .12 4.24c-.07 3.5-.16 7-.19 10.51s0 7 .06 10.52c.06 4 .16 7.93.25 11.89v.56a7.3 7.3 0 0 0 .73.15c.53 0 1.06.06 1.59.06H58.6c2.76 0 5.52-.1 8.28-.17.92 0 1.84-.12 2.76-.13h6.37a3.69 3.69 0 0 1 .93.15.36.36 0 0 1 .27.41.63.63 0 0 1-.28.4 4.61 4.61 0 0 1-1 .25c-2.11.27-4.22.43-6.35.5-6.33.21-12.67.36-19 .34-4.71 0-9.41-.14-14.12-.23-.92 0-1.84-.12-2.76-.2a4.86 4.86 0 0 1-.83-.16 1.8 1.8 0 0 1-1.31-1.5v-.64c-.09-3.82-.19-7.64-.26-11.47-.06-3.54-.11-7.08-.09-10.62 0-2.37.12-4.74.21-7.11.08-2 .21-4.1.31-6.15v-.31c-.19-.17-.33 0-.48 0a1.33 1.33 0 0 1-1.93-.72c-.09-.17-.17-.36-.3-.61-.17.2-.28.34-.4.46a6.38 6.38 0 0 1-.52.52 1.26 1.26 0 0 1-2.06-.35 3 3 0 0 1-.23-.48l-.24-.55c-.19.22-.36.39-.5.58A4.36 4.36 0 0 1 23.79 30a1.23 1.23 0 0 1-2-1c0-.17 0-.35-.05-.6-.56.29-.81.84-1.28 1.14s-.89.53-1.42.85c0 .59.07 1.26.11 1.93 0 .39.07.77.08 1.16q.18 8.4 0 16.78a7.94 7.94 0 0 1 0 .85 1.6 1.6 0 0 1-.57 1.21 1 1 0 0 0-.27.44 1.46 1.46 0 0 1-1.73.66 1.14 1.14 0 0 1-.6-.41 3.35 3.35 0 0 1-.61-1.66Q15 45.75 15 40.12c0-3.22-.09-6.44-.15-9.67v-.49c-1-.57-1-.57-1.42-1.76-.23-.09-.29.11-.4.23a3.74 3.74 0 0 1-.51.54 1.09 1.09 0 0 1-1.65-.29 8 8 0 0 1-.36-.72 4.15 4.15 0 0 0-.79.65l-.86.71v.71c.09 3.08.14 6.16.3 9.23.24 4.46.36 8.92.41 13.38 0 3.15.11 6.3.19 9.45a13.94 13.94 0 0 1-.45 3.35 1.35 1.35 0 0 1-1.16 1.1 4.1 4.1 0 0 1-1.05 0 .94.94 0 0 1-.7-.44.49.49 0 0 1 .33-.8h.63a1.06 1.06 0 0 0 .73-.3.62.62 0 0 0 .23-.56 73.84 73.84 0 0 1-.32-9.8C7.89 48.8 7.84 43 7.81 37.11c0-2.33.08-4.67.13-7a2 2 0 0 0-.06-.27l-1.27-.42v1.11c0 .92.09 1.84.12 2.76.28 7.82.17 15.65.21 23.47v3.61a19.72 19.72 0 0 1-.23 3.17 2.12 2.12 0 0 1-.25.69.43.43 0 0 1-.72 0 3.21 3.21 0 0 1-.24-.8 21.2 21.2 0 0 1-.23-3.28c.06-3.47.09-6.94.11-10.41q.08-9.72.12-19.44c0-.27 0-.54-.06-.86-.26.1-.45.19-.65.25a1 1 0 0 1-1.26-.49 6 6 0 0 1-.29-.74c-.24.14-.46.29-.7.41a3.77 3.77 0 0 1-.78.32.93.93 0 0 1-1-.24A2.64 2.64 0 0 1 0 26.79c.22-1 .43-2 .67-3a86 86 0 0 1 4-12.52C5.44 9.46 6.2 7.67 7 5.9a16.41 16.41 0 0 1 1.25-2.09 1.6 1.6 0 0 1 .63-.55.57.57 0 0 1 .79.65 4.11 4.11 0 0 1-.34.88C8 7.58 6.82 10.41 5.7 13.28c-1.22 3.13-2.19 6.35-3.2 9.55-.45 1.42-.89 2.84-1.36 4.25a.82.82 0 0 0 .18 1c.37.05.59-.21.8-.42a3.93 3.93 0 0 1 1.77-.93c.49.49.18 1.26.63 1.78a5.22 5.22 0 0 0 1.13-1.12c.26-.3.5-.65 1-.52s.48.48.57.83.15.46.22.65a.5.5 0 0 0 .56-.16c.32-.27.63-.57 1-.84s.6-.5.91-.73a1.58 1.58 0 0 1 1-.27.48.48 0 0 1 .54.4c.1.34.17.68.27 1.05a2.53 2.53 0 0 0 .91-.9 1.29 1.29 0 0 1 1.1-.52c.36 0 .55.11.61.44 0 .18 0 .36.07.53a7.48 7.48 0 0 0 .18.82c.12.37.34.47.64.29a6.71 6.71 0 0 0 .71-.47c.29-.21.56-.43.85-.63a4.47 4.47 0 0 1 2-.76c.27.7 0 1.46.44 2.14a2.21 2.21 0 0 0 .39-.26q.48-.5.93-1a2.37 2.37 0 0 1 2-1A25.49 25.49 0 0 0 23 29a3.24 3.24 0 0 0 .47-.28c.4-.4.8-.8 1.17-1.23a1.91 1.91 0 0 1 1.49-.73c.5.56.44 1.41.95 1.94.25.06.35-.11.45-.24.21-.29.4-.59.61-.87a6.7 6.7 0 0 1 .51-.68c.54-.59 1.07-.57 1.4.34.14.4.17.83.28 1.24a2.13 2.13 0 0 0 .28.49c.49-.57.92-1.08 1.36-1.58a5.27 5.27 0 0 1 .51-.55c.26-.24.46-.19.68.14a1.28 1.28 0 0 1 .13.29zM17.94 51.92a14.5 14.5 0 0 1-.21-3.12q.09-8 .19-16c0-1 0-2 .09-3a3.91 3.91 0 0 0-.27-1.57l-1.63 1.32a1.86 1.86 0 0 0 0 .26c.11 3.53.19 7.07.32 10.6.09 2.72.24 5.44.37 8.16 0 .67.07 1.34.1 2v1.75a1.23 1.23 0 0 0 1.04-.4z" fill="#742823" data-color="1"/>
            <path d="M33.29 27.29c.16-.09.3-.19.46-.26s.13 0 .28 0c.19.68-.07 1.56.75 2.11a2.31 2.31 0 0 0 .46-.33c.3-.35.56-.73.84-1.09.59-.77.59-.76 1.72-.92.28.71 0 1.62.68 2.21a.79.79 0 0 0 .72-.44c.28-.4.54-.83.82-1.23s.46-.56 1.14-.37c.2.06.41.09.59.13.44.71.07 1.68.77 2.26.38-.07.53-.37.71-.63s.55-.83.86-1.21a.92.92 0 0 1 1.55.28 7.36 7.36 0 0 1 .21.71 2.22 2.22 0 0 0 .42 1c.11-.11.23-.18.28-.29a16.08 16.08 0 0 0 .78-1.62 1.19 1.19 0 0 1 1.28-.87c.36.17.41.55.58.86s.3.64.49.93a.46.46 0 0 0 .8 0c.24-.31.43-.65.64-1s.28-.5.44-.72a.57.57 0 0 1 .66-.24.58.58 0 0 1 .39.57v.42a.74.74 0 0 0 .11.39 2 2 0 0 0 1 .78 5.56 5.56 0 0 0 .41-.58c.21-.37.38-.76.59-1.13a.8.8 0 0 1 1.05-.47l.45.12c.49.63.4 1.5 1.08 2a2 2 0 0 0 .42-.27 3.48 3.48 0 0 0 .58-.76 1.42 1.42 0 0 1 1.7-.75 8 8 0 0 1 .35 1.17 6.32 6.32 0 0 0 .44 1.07.44.44 0 0 0 .83 0c.19-.34.33-.71.52-1.05a2.08 2.08 0 0 1 1.11-1.16c.35.07.4.32.44.57A2.23 2.23 0 0 0 64.4 29a4.36 4.36 0 0 0 .39.26c.16-.16.32-.28.45-.44.37-.47.72-1 1.09-1.43a4.34 4.34 0 0 1 .52-.53.44.44 0 0 1 .76.19c.11.29.18.61.29.9a2.59 2.59 0 0 0 .82 1.28 2.85 2.85 0 0 0 .49-.34c.48-.56.94-1.14 1.4-1.72.23-.28.53-.28.68 0a7.2 7.2 0 0 0 .94 1.64c.29 0 .34-.22.44-.39.28-.45.55-.91.85-1.35a.53.53 0 0 1 1 .09c.13.28.2.6.33.89a2.52 2.52 0 0 0 .9 1.32 13.73 13.73 0 0 0 1.59-2.23v-.1A.36.36 0 0 1 78 27c.14.25.24.51.39.75s.27.51.59.58.46-.39.67-.62.55-.65.84-.95a.4.4 0 0 1 .57 0 3.1 3.1 0 0 1 .44.71 7 7 0 0 1 .26.81 1.25 1.25 0 0 0 .64.84c.72-.09 1.17-.73 1.81-1 .27.09.4.26.28.49a5.09 5.09 0 0 1-.69 1.06 1.55 1.55 0 0 1-2.61-.14c-.18-.26-.33-.53-.47-.75l-1 .94c0 .67.07 1.41.08 2.15l.06 17.42v15.72a4.73 4.73 0 0 1-.26 1.23.67.67 0 0 1-.77.43.67.67 0 0 1-.54-.59 8.93 8.93 0 0 1 0-1.16c0-3.68.12-7.36.16-11.05V45.7c0-5.21.12-10.41.18-15.62v-.34l-1-.8c-.23 0-.26.2-.35.35a6 6 0 0 1-.51.8 1.31 1.31 0 0 1-1.9.19 8.06 8.06 0 0 1-.78-.86c-.09-.1-.17-.21-.27-.33-.24.26-.44.51-.67.72a1 1 0 0 1-1.37.09 7.86 7.86 0 0 1-.87-.77c-.25 0-.3.24-.45.38s-.34.36-.53.51a1.57 1.57 0 0 1-2.27-.24 10 10 0 0 1-.68-1c-.1.13-.2.26-.31.38a9.92 9.92 0 0 1-.94 1 1.2 1.2 0 0 1-1.48 0 4.82 4.82 0 0 1-.62-.57 6.26 6.26 0 0 1-.46-.6c-.22.3-.38.57-.58.81a1.63 1.63 0 0 1-2.65 0 7.91 7.91 0 0 1-.59-.88l-.6.64a1.72 1.72 0 0 1-2.91-.42c-.07-.15-.17-.3-.27-.49-.24.28-.42.54-.64.77a1.4 1.4 0 0 1-1.91.29 9.6 9.6 0 0 1-1-.72c-.22 0-.28.22-.43.35s-.1.1-.15.15a1.63 1.63 0 0 1-2.65-.18c-.11-.13-.2-.28-.29-.41-.26 0-.3.18-.4.31a8.72 8.72 0 0 1-.76 1 1.3 1.3 0 0 1-2.22-.26c-.16-.26-.28-.54-.45-.86a4.29 4.29 0 0 1-.39.57 5.23 5.23 0 0 1-.76.73 1.45 1.45 0 0 1-2.29-.63c-.14-.3-.23-.64-.36-1-.21.27-.37.5-.56.7a3.92 3.92 0 0 1-.72.63 1.49 1.49 0 0 1-2.25-.6c-.11-.22-.18-.46-.31-.76-.14.17-.27.3-.38.45a3.1 3.1 0 0 1-1 .94A1.35 1.35 0 0 1 34 30a1.82 1.82 0 0 1-.68-1.28v-1.48z" fill="#742823" data-color="1"/>
            <path d="M74.33 2.4a30.8 30.8 0 0 1-5.92.16c-2.33-.08-4.66-.21-7-.32h-.95c-2.65-.09-5.31-.16-8-.28-6.22-.3-12.45-.34-18.68-.33-3.64 0-7.29.1-10.93.2-1.88.06-3.75.21-5.62.31-.64 0-1.27 0-1.91.08-.92 0-1.83.12-2.75.18a1.91 1.91 0 0 0-1 .29.92.92 0 0 1-.28.14c-.18.06-.39 0-.46-.13a.6.6 0 0 1 0-.49A1.73 1.73 0 0 1 12 1.27 10.4 10.4 0 0 1 13.53 1C16.6.66 19.66.4 22.74.24 27.65 0 32.57 0 37.49 0c3.26 0 6.51 0 9.77.09s6.22.22 9.33.34h.43l8.06.29C67 .8 68.9.85 70.81 1c1.2.07 2.39.24 3.58.38.18 0 .41 0 .5.13a2.3 2.3 0 0 0 1.18.62 2.24 2.24 0 0 1 .83.63 5.9 5.9 0 0 1 .78 1.14c.52 1 1 2 1.48 3.05A147.17 147.17 0 0 1 85 24.28a9.37 9.37 0 0 1 .37 2.4 2.22 2.22 0 0 1-.18.92.56.56 0 0 1-1 0 3.06 3.06 0 0 1-.35-.88 146.06 146.06 0 0 0-6.46-19.89C77 6 76.64 5.15 76.26 4.31A2.54 2.54 0 0 0 75 2.85a3 3 0 0 1-.67-.45z" fill="#742823" data-color="1"/>
            <path d="M63.75 39.49a20.83 20.83 0 0 1-3.87 0c-1.3-.09-2.61-.11-4-.11a5.5 5.5 0 0 0-.07.63q-.07 3.51-.13 7c0 1.7-.05 3.4-.07 5.1a6 6 0 0 1 0 .74 1.46 1.46 0 0 1-.12.51.36.36 0 0 1-.41.26.47.47 0 0 1-.29-.26 3.41 3.41 0 0 1-.15-.94v-1.8c0-1.56.05-3.12.1-4.68.05-1.8.12-3.6.18-5.41v-1.1a5.58 5.58 0 0 0-.64-.08H47.8a3.2 3.2 0 0 0-.53 0c-.59.09-.78.33-.77.92l.15 10c0 .64.06 1.28.06 1.91a10.69 10.69 0 0 1-.1 1.27.55.55 0 0 1-.4.45.59.59 0 0 1-.62-.31 1.74 1.74 0 0 1-.22-.48 7.52 7.52 0 0 1-.17-1.25 67 67 0 0 1 .3-8.38c.1-1 .18-2.05.22-3.07A4.83 4.83 0 0 1 46.3 39c.14-.43.64-.53 1.05-.61s1.12-.17 1.68-.24a53.22 53.22 0 0 1 6.68-.26c1.7 0 3.4 0 5.1.05a15.28 15.28 0 0 1 1.9.19 1.63 1.63 0 0 1 1.27.66c.14.21.45.3.73.47 0 .33.1.68.1 1v5.1c0 2-.07 4-.09 6.05a13.86 13.86 0 0 1-.41 2.72 1.38 1.38 0 0 1-1.25 1.13 11.93 11.93 0 0 1-1.79.18h-13a9 9 0 0 1-1.26-.14 1.09 1.09 0 0 1-.39-.15c-.18-.09-.32-.4-.21-.54a.65.65 0 0 1 .41-.26c.88-.06 1.77-.07 2.65-.1 3.53-.1 6.99-.25 10.46-.25 1 0 2-.08 3.13-.13.19-2.42.22-4.81.36-7.2s.22-4.67.33-7.18z" fill="#742823" data-color="1"/>
            <path d="M46.72 19.07c.4-.41.7-.71 1-1a3.63 3.63 0 0 1 .47-.41.28.28 0 0 1 .41.19A2.17 2.17 0 0 1 47.18 20a1.09 1.09 0 0 1-1.18-.38 7 7 0 0 1-.45-.69 4.3 4.3 0 0 1-.51.61 2.68 2.68 0 0 1-.72.44.89.89 0 0 1-1.17-.43c-.08-.14-.13-.3-.21-.47a6.41 6.41 0 0 1-.67.56.66.66 0 0 1-1-.21 2.09 2.09 0 0 1-.11-1.93.44.44 0 0 1 .32-.21.4.4 0 0 1 .3.22c.1.33.14.68.21 1a1.87 1.87 0 0 0 1.1-.66c.09-.09.24-.2.33-.17a.42.42 0 0 1 .24.29c.05.24.05.49.09.73a1.69 1.69 0 0 0 .13.36c.27.07.36-.11.47-.22s.42-.48.63-.71c.62-.71.78-.68 1.23.2a6.36 6.36 0 0 0 .51.74z" fill="#742823" data-color="1"/>
            <path d="M58.76 9.59c-.32.39-.6.8-.94 1.14a2.4 2.4 0 0 1-.83.46 1.07 1.07 0 0 1-1.39-.43 3.23 3.23 0 0 1-.27-.44c-.34.15-.65.32-1 .43a1 1 0 0 1-1.33-.59 2.26 2.26 0 0 1 0-1.56.33.33 0 0 1 .39-.27.45.45 0 0 1 .31.24c.12.4.2.81.3 1.23a2.39 2.39 0 0 0 1.16-.26c.67-.23.69-.23 1.12.37a2.48 2.48 0 0 0 .19.26 1 1 0 0 0 .16.08c.36-.05.59-.37.86-.63l.8-.79A6.83 6.83 0 0 1 59 9a.87.87 0 0 1 .31.23 4.32 4.32 0 0 0 .5.54.64.64 0 0 0 .87-.06c.2-.19.39-.41.6-.59a.3.3 0 0 1 .28-.06.7.7 0 0 1 .24.32.55.55 0 0 1 0 .31 1.49 1.49 0 0 1-1.16 1.12 1.38 1.38 0 0 1-1.5-.56 4.7 4.7 0 0 1-.38-.66z" fill="#742823" data-color="1"/>
            <path d="M23.42 19a2.93 2.93 0 0 0 1.22-.73.57.57 0 0 1 .76 0c.11.07.32 0 .49 0 .18.38-.08.86.33 1.25.29-.12.6-.27.93-.38a.31.31 0 0 1 .28.05.29.29 0 0 1 0 .27 2.44 2.44 0 0 1-1 .87.77.77 0 0 1-1.16-.64v-.62a4.36 4.36 0 0 1-.51.44 3.15 3.15 0 0 1-.84.42 1.19 1.19 0 0 1-1.53-.78 2.4 2.4 0 0 1-.13-.46 5.59 5.59 0 0 1-.66.58 3.73 3.73 0 0 1-.93.48.9.9 0 0 1-1.22-.91 6.08 6.08 0 0 1 .33-1.32c0-.07.16-.1.27-.16.3.47 0 1 .27 1.49a1.7 1.7 0 0 0 .45-.15 7.54 7.54 0 0 0 .87-.61 1.13 1.13 0 0 1 1.24-.21c.12.23.05.78.54 1.12z" fill="#742823" data-color="1"/>
            <path d="M18 11.61c-.51.32-.92.58-1.34.83a.9.9 0 0 1-1.19-.44 3.61 3.61 0 0 1-.11-2.18.48.48 0 0 1 .18-.26.4.4 0 0 1 .28-.06c.09 0 .21.13.21.21v.84c0 .28.05.56.08.84 0 .06.08.11.17.22a1.79 1.79 0 0 0 .44-.16c.53-.34 1.06-.7 1.63-1.08a3.9 3.9 0 0 1 .39.52c.13.28.23.58.38 1l1.4-1.38c.4-.38.68-.48.79-.28s-.07.53-.22.75a5.38 5.38 0 0 1-.62.86 5 5 0 0 1-1 .83.83.83 0 0 1-1.3-.43 4.52 4.52 0 0 1-.17-.63z" fill="#742823" data-color="1"/>
            <path d="M65.28 19.23c-.15.05-.27.12-.4.15a1.71 1.71 0 0 1-2-1.21.81.81 0 0 1 0-.31.32.32 0 0 1 .48-.23l.32.28c.16.14.3.29.47.42.42.31.57.3 1-.06l.38-.3c.12.15.26.26.29.4a1.08 1.08 0 0 0 .54.75A.46.46 0 0 0 67 19c.21-.45.37-.91.55-1.37s.29-.54.46-.48.33.35.36.6a2.56 2.56 0 0 1-.26 1.54 1.47 1.47 0 0 1-2.53.34z" fill="#742823" data-color="1"/>
            <path d="M59.05 46a1.05 1.05 0 0 1-1.26 1.06 1.17 1.17 0 0 1-1-.78A1.13 1.13 0 0 1 57 45a.88.88 0 0 1 1.14-.2c.12.07.22.2.35.23.51.15.56.54.56.97zm-.76-.63a1.53 1.53 0 0 0-.44-.06.34.34 0 0 0-.3.37.44.44 0 0 0 .35.45c.22 0 .29-.15.33-.32s.03-.25.06-.43z" fill="#742823" data-color="1"/>
            <path d="M34 8.41c.42.42.11 1.12.58 1.53a2.32 2.32 0 0 0 1-.53 10.28 10.28 0 0 1 .91-.53c.08 0 .25 0 .34.12a.28.28 0 0 1 0 .28 4.55 4.55 0 0 1-2 1.37.87.87 0 0 1-1.18-.72 2.56 2.56 0 0 1 .11-1.45s.24-.04.24-.07z" fill="#742823" data-color="1"/>
            <path d="M68.86 10.5a6.27 6.27 0 0 1 .64-.57.64.64 0 0 1 .49 0 .42.42 0 0 1 .21.54 1.55 1.55 0 0 1-1.12 1 .9.9 0 0 1-1-.4 1.61 1.61 0 0 1-.25-1.41.32.32 0 0 1 .2-.21.29.29 0 0 1 .27.12c.12.17.19.37.3.56a4 4 0 0 0 .26.37z" fill="#742823" data-color="1"/>
            <path d="M52.92 45.15a4.27 4.27 0 0 0-.62.33.22.22 0 0 0 0 .36.43.43 0 0 0 .36 0c.14-.1.21-.29.34-.4a.43.43 0 0 1 .37-.11.46.46 0 0 1 .26.3 1 1 0 0 1-1 1.28 1.33 1.33 0 0 1-1.23-1.13.79.79 0 0 1 .67-.92.81.81 0 0 1 .85.29z" fill="#742823" data-color="1"/>
            <path d="M37.56 8.79l.54.74a5 5 0 0 1 .58-.11.43.43 0 0 1 .35.13.45.45 0 0 1 0 .39 1 1 0 0 1-1.15.53.85.85 0 0 1-.67-.61.78.78 0 0 1 .35-1.07z" fill="#742823" data-color="1"/>
            <path d="M75.41 18.34c0 .07.16.17.17.28a1 1 0 0 1-.41.9.49.49 0 0 1-.38 0 .34.34 0 0 1-.17-.23.93.93 0 0 1 .62-1z" fill="#742823" data-color="1"/>
            <path d="M76.22 19.18c.06.05.18.1.19.17a.8.8 0 0 1-.59.87.29.29 0 0 1-.3-.23.81.81 0 0 1 .7-.81z" fill="#742823" data-color="1"/>
            <path d="M69.93 56.31c0-.07-.15-.15-.14-.22a1.19 1.19 0 0 1 .58-.92.21.21 0 0 1 .19 0 .22.22 0 0 1 .09.17 1.44 1.44 0 0 1-.59.93s-.06.03-.13.04z" fill="#742823" data-color="1"/>
            <path d="M69.66 54.51a1.11 1.11 0 0 1 0 .24c-.2.39-.5.61-.7.51a.33.33 0 0 1-.13-.26.79.79 0 0 1 .7-.67c.01 0 .08.13.13.18z" fill="#742823" data-color="1"/>
        </g>
    </g>
</svg>
