<?xml version="1.0" encoding="UTF-8"?>
<svg data-bbox="-0.023 -0.013 90.383 72.939" viewBox="0 0 90.36 72.87" xmlns="http://www.w3.org/2000/svg" data-type="color">
    <g>
        <g>
            <path d="M79.79 32.59a89.28 89.28 0 0 1 .55 12v12.54c0 2.26.21 4.52.33 6.79.07 1.41.18 2.82.25 4.24a14.61 14.61 0 0 1 0 1.48 1.61 1.61 0 0 1-.51 1.24c-.15.13-.14.28-.14.46a1.69 1.69 0 0 1-1.36 1.54 1.62 1.62 0 0 1-1.9-1 13.57 13.57 0 0 1-.74-3.41c-.27-8.21-.27-16.39-.1-24.56.08-3.41 0-6.8 0-10.2v-.6c-.27-.14-.34.09-.46.18a1.26 1.26 0 0 1-1.73-.07c-.28-.26-.52-.57-.78-.86-.31 0-.34.32-.49.5a1.28 1.28 0 0 1-2.22 0c-.2-.24-.37-.51-.63-.86v.75c0 .56.05 1.13 0 1.7 0 1.87-.1 3.75-.12 5.62v13.18c0 1-.12 2.05-.21 3.07a4 4 0 0 1-.23 1 1.79 1.79 0 0 1-2.56.87 1.13 1.13 0 0 1-.54-.76 6.11 6.11 0 0 1 0-1c0-.08.11-.23.17-.23a.5.5 0 0 1 .35.14 4.86 4.86 0 0 1 .35.53.55.55 0 0 0 1-.1 3.65 3.65 0 0 0 .23-.92c.09-.92.18-1.84.21-2.76V33.32l-1.24.82a.66.66 0 0 0-.06.2c0 2.62-.11 5.24-.12 7.85v10.73c0 .53 0 1.06-.07 1.59a1.53 1.53 0 0 1-.13.51.48.48 0 0 1-.8.08 2.52 2.52 0 0 1-.32-.78 13.49 13.49 0 0 1-.19-1.68c-.1-3.44-.13-6.87.09-10.3 0-.46 0-.92.06-1.38L66 33.7a.67.67 0 0 0 0-.4 10.44 10.44 0 0 0-1-1.4c-.16.31-.26.57-.41.81a3.31 3.31 0 0 1-.5.68 1.25 1.25 0 0 1-1.88 0c-.28-.26-.51-.57-.8-.9-.21.33-.38.63-.58.9a1.39 1.39 0 0 1-2.13.23 10.15 10.15 0 0 1-.79-.9c-.18.25-.35.52-.55.76a1.2 1.2 0 0 1-2-.13 10.86 10.86 0 0 1-.57-1.09 7.35 7.35 0 0 1-.42.62 6.35 6.35 0 0 1-.87.92 1.25 1.25 0 0 1-1.66-.1c-.21-.18-.39-.41-.61-.64-.28.16-.33.49-.51.73a1.19 1.19 0 0 1-1.91.26 13.9 13.9 0 0 1-1.24-1.37l-.32.49c-.06.09-.11.18-.18.27a1.26 1.26 0 0 1-2.26-.06 7.51 7.51 0 0 1-.42-.68l-.42.47a4.49 4.49 0 0 1-.36.39 1.19 1.19 0 0 1-1.86-.1c-.21-.23-.38-.5-.56-.74-.25 0-.3.18-.41.31a8.44 8.44 0 0 1-.87.92 1.31 1.31 0 0 1-2.2-.43 5.14 5.14 0 0 1-.27-.58c-.07-.16-.13-.33-.2-.49s0 0-.09-.08c-.16.23-.3.48-.47.69a3.92 3.92 0 0 1-.67.68 1.27 1.27 0 0 1-1.85-.35 10 10 0 0 1-.57-1.09c-.18.23-.33.45-.51.64a4.48 4.48 0 0 1-.87.76 1.08 1.08 0 0 1-1.57-.36c-.17-.25-.3-.53-.46-.82a11 11 0 0 1-.6 1 2.85 2.85 0 0 1-.59.61 1.1 1.1 0 0 1-1.66-.28 5.92 5.92 0 0 1-.44-1c-.1-.26-.17-.53-.28-.9a12.09 12.09 0 0 1-1 1.47 9.35 9.35 0 0 1-1.22 1c.24 4.11.24 8.25.38 12.39.09 3.11.14 6.23.19 9.34a7.94 7.94 0 0 1-.09 1.38 1.07 1.07 0 0 1-.7 1c-.15 0-.24.24-.38.34a1.87 1.87 0 0 1-.53.33.75.75 0 0 1-1.05-.57c-.06-.32-.13-.5-.45-.62s-.45-.51-.46-.88c0-1.17-.08-2.34-.1-3.5 0-1.95 0-3.9-.08-5.85-.11-4.14-.21-8.28-.19-12.42v-.49c-1-.58-1.06-.65-1.38-2.43-.22.31-.41.56-.56.82a4.13 4.13 0 0 1-1.05 1.19 1.24 1.24 0 0 1-2.09-.65c-.11-.3-.17-.61-.27-1a2.13 2.13 0 0 0-.75.9 1 1 0 0 0-.06.61c.42 2.78.43 5.58.6 8.37s.27 5.3.37 8c.06 1.49.08 3 .1 4.47 0 2.4 0 4.81.05 7.22 0 1.84.08 3.68.1 5.52a9.06 9.06 0 0 1-.16 1.47 1 1 0 0 1-.24.46.59.59 0 0 1-1-.09 2.31 2.31 0 0 1-.24-.8 11.45 11.45 0 0 1 0-1.17l-.18-18.48c0-2.09-.14-4.18-.19-6.27 0-2.44-.07-4.88-.11-7.32v-.61l-1.59.46a2.3 2.3 0 0 0 0 .46 37.49 37.49 0 0 1 .34 5.29c.06 4.57.08 9.14.13 13.71 0 3.22.09 6.44.16 9.66 0 1.91.11 3.82.18 5.73 0 .07 0 .13.11.26a2.64 2.64 0 0 0 .55-.15 2 2 0 0 1 1-.31.49.49 0 0 1 .48.65 1.46 1.46 0 0 1-.41.59 2.06 2.06 0 0 1-3-.37 1.26 1.26 0 0 1-.23-.48 6.06 6.06 0 0 1-.15-1c-.08-2.26-.18-4.53-.21-6.8-.23-5.01-.23-10.07-.31-15.13 0-2.13.06-4.25.08-6.38v-3.61a8.72 8.72 0 0 1 .24-3 .85.85 0 0 0 .06-.31c-.09-.54-.19-1.08-.31-1.75-.26.29-.43.5-.61.69a8.51 8.51 0 0 1-.89.91.79.79 0 0 1-1.3-.35c-.06-.13-.07-.28-.12-.41a1.8 1.8 0 0 0-.18-.3 7.62 7.62 0 0 1-.65.55 2.51 2.51 0 0 1-.81.48 1.69 1.69 0 0 1-2.12-.75c-.12-.2-.24-.42-.37-.65-.24.14-.44.28-.65.38a.32.32 0 0 1-.3 0 .93.93 0 0 1-.15-.37.24.24 0 0 1 .05-.2 15.22 15.22 0 0 1 .89-1.32.67.67 0 0 1 1.19.19c.14.29.21.6.32.9.2.49.46.58.91.34a4.26 4.26 0 0 0 1.28-1.11 1.13 1.13 0 0 1 1.24-.4c.3.56 0 1.2.19 1.74.22.08.28-.07.35-.18s.3-.48.45-.72a1.74 1.74 0 0 1 1.52-1c.58 0 .68 0 .74.54s.11 1.06.2 1.58c0 .35.15.68.26 1.12a3.82 3.82 0 0 0 .52-.4c.51-.59 1-1.18 1.5-1.8a1.77 1.77 0 0 1 1.9-.7c.09.38.18.75.24 1.13a1.92 1.92 0 0 0 .39 1.11l.85-.83c.28-.26.58-.51.86-.78a1.27 1.27 0 0 1 1.31-.45c.32.56.13 1.38.72 1.91a2.69 2.69 0 0 0 .53-1c.11-.22.18-.46.29-.68.39-.88.56-1 1.53-.91.4 0 .5.1.57.47s.14.84.23 1.25a4.36 4.36 0 0 0 .24.54c.17-.16.31-.26.41-.38.29-.36.56-.73.84-1.09.64-.83.64-.83 1.82-.8.41.73.34 1.7 1 2.44.38-.54.72-1 1.05-1.52a2.37 2.37 0 0 1 1.47-1.1c.29.09.35.32.37.58a1.7 1.7 0 0 0 .37 1.22 1.63 1.63 0 0 0 .31-.27c.16-.19.3-.4.44-.6.73-1.07.73-1.07 2.14-1l.63 1.79a.4.4 0 0 0 .51-.22c.19-.29.38-.6.59-.88a.87.87 0 0 1 1-.42 1.86 1.86 0 0 0 .63-.07c.08.23.14.42.2.62.15.47.26 1 .43 1.42s.62.67 1 .16.58-.89.88-1.33a8.33 8.33 0 0 1 .54-.78.49.49 0 0 1 .81.09c.13.21.21.44.33.66s.38.67.54.95a.4.4 0 0 0 .48-.27c.25-.43.49-.87.75-1.29a1.62 1.62 0 0 1 .32-.41.49.49 0 0 1 .74.1c.15.28.25.59.37.88s.22.52.35.77a1.87 1.87 0 0 0 .25.29c.32 0 .38-.22.49-.39.26-.42.49-.86.78-1.26a.58.58 0 0 1 1-.06 5.42 5.42 0 0 1 .56.77 7.7 7.7 0 0 0 1 1.32c.24-.49.44-.9.66-1.3a5.07 5.07 0 0 1 .51-.79.47.47 0 0 1 .75 0 6.71 6.71 0 0 1 .35.65 2.7 2.7 0 0 0 .9 1.19c.27-.36.54-.69.78-1 1-1.37 1.78-.92 2.32.12.13.24.3.47.5.79l.91-1.48a4.39 4.39 0 0 1 .42-.61.49.49 0 0 1 .8.11c.12.26.19.53.32.79a1.68 1.68 0 0 0 .76.95c.36-.07.41-.39.58-.6.27-.37.51-.77.81-1.12a.54.54 0 0 1 .94.17 3.26 3.26 0 0 0 1 1.51c.26 0 .33-.18.4-.33.17-.36.31-.72.49-1.07.33-.65.78-1.11 1.65-.82a6.9 6.9 0 0 0 1.19 2 5.19 5.19 0 0 0 .52.47c.22-.45.4-.83.59-1.2s.38-.68.57-1a1.81 1.81 0 0 1 .87-.75.83.83 0 0 1 1.25.78 2.24 2.24 0 0 0 1 1.8.59.59 0 0 0 .2.06c.36-.23.42-.63.58-1s.45-.88.71-1.3a.38.38 0 0 1 .63.05c.13.25.21.52.33.78a8.36 8.36 0 0 0 .46.83 4.75 4.75 0 0 0 .42.49c.42-.19.46-.58.56-.88a5.75 5.75 0 0 1 .76-1.39.37.37 0 0 1 .63 0c.19.26.34.54.53.8s.36.69.73.89c.36-.27.47-.71.74-1a11.59 11.59 0 0 1 .93-.91c.22.42.4.8.61 1.16s.31.71.75.92c.25-.53.49-1 .74-1.54a6.71 6.71 0 0 1 .35-.65.43.43 0 0 1 .54-.22.61.61 0 0 1 .31.38 5.51 5.51 0 0 0 .61 1.69 3.2 3.2 0 0 0 .37.44 3.59 3.59 0 0 1 2-2.34c.84.38.77 1.35 1.25 2 .18-.16.35-.34.54-.48a1 1 0 0 1 1.18-.08 5.57 5.57 0 0 1 .88.58.31.31 0 0 1-.15.5c-.38 0-.77 0-1.25.08-.17.15-.39.37-.63.57a.8.8 0 0 1-1.22-.13 4.12 4.12 0 0 1-.48-.81c-.12-.21-.2-.44-.34-.73a4.14 4.14 0 0 0-.53 1.17 2.12 2.12 0 0 1-.67.94.76.76 0 0 1-1 0 3.65 3.65 0 0 1-.52-.52c-.16-.19-.28-.4-.47-.67l-.49.54c-.66.67-1 .72-1.86.25zm-2.63.53c.06.64.12 1.23.17 1.83.23 3 .31 6 .28 9-.06 6.62.06 13.24.19 19.86 0 1.1.09 2.19.12 3.29a18.84 18.84 0 0 1-.07 3.6.62.62 0 0 0 .75.75 1.84 1.84 0 0 0 1.12-.55 3.66 3.66 0 0 1-.38-1.66c-.15-2.58-.34-5.16-.43-7.74-.12-3.32-.17-6.65-.24-10v-3.61q0-7-.11-14a6.57 6.57 0 0 0-.07-.67zm-54.51-.35l-.22.32a2 2 0 0 0-.36 2.16 1.12 1.12 0 0 1 0 .32c.13 1.62.3 3.24.37 4.86.12 2.69.19 5.37.25 8.06.06 2.26.07 4.52.09 6.79 0 .7-.05 1.41-.05 2.12 0 .19-.22.39 0 .58.65-.09.69-.12.68-.64-.08-4.63-.19-9.27-.24-13.9v-8.27a4.35 4.35 0 0 0-.52-2.4z" fill="#742823" data-color="1"/>
            <path d="M90.36 30.37a1.87 1.87 0 0 1-.34.39.45.45 0 0 1-.58-.09 2.41 2.41 0 0 1-.36-.52c-.64-1.3-1.31-2.59-1.9-3.91-2.33-5.2-4.5-10.46-7-15.57-1.37-2.73-2.66-5.49-4.18-8.12-.72-1.23-.55-1.49-2.29-1.16a18.28 18.28 0 0 1-3 .24c-1.35.05-2.69 0-4 .05L55 2l-1.7.05c-3.22.09-6.44.15-9.66.27s-6.43.27-9.65.43c-2.44.12-4.88.25-7.32.41s-4.65.37-7 .56L17 4h-.85c-.28 0-.52-.14-.54-.38a.54.54 0 0 1 .39-.56c.52-.12 1-.21 1.56-.28 1.58-.21 3.16-.41 4.74-.59 1-.12 2-.2 3-.28l4.23-.35q1.8-.14 3.6-.24c1.81-.1 3.61-.17 5.41-.27l6.8-.35h.64C49 .58 52.07.5 55.11.4 58.54.3 62 .15 65.41.08 68.31 0 71.22 0 74.12 0a1.54 1.54 0 0 1 1.27.42 3.87 3.87 0 0 1 1.8 1.71 49.39 49.39 0 0 1 3.12 5.3c2.19 4.09 4.09 8.32 6 12.57.59 1.36 1.16 2.73 1.79 4.08a49.67 49.67 0 0 1 2.07 5.45c.04.26.1.54.19.84z" fill="#742823" data-color="1"/>
            <path d="M2.12 33.18a.64.64 0 0 1-.72.54A1.38 1.38 0 0 1 0 32.48a3.2 3.2 0 0 1 .2-1.56c.34-.89.66-1.8 1-2.68C2.73 24.58 4.5 21 6.27 17.48c1.35-2.72 2.73-5.42 4.18-8.11.63-1.19 1.33-2.34 2-3.48a8.44 8.44 0 0 1 .92-1.17 1.16 1.16 0 0 1 .44-.27.5.5 0 0 1 .66.48 1.76 1.76 0 0 1-.14.61c-.2.45-.43.9-.67 1.33q-6.07 11-11.21 22.39c-.28.61-.53 1.23-.78 1.86-.11.26-.17.54-.26.8a.74.74 0 0 0 .31.93c.16.15.28.22.4.33z" fill="#742823" data-color="1"/>
            <path d="M53.53 21.08l.74.2a3.09 3.09 0 0 0 1.11 1.39c.25-.31.49-.62.75-.9a.47.47 0 0 1 .38-.09.42.42 0 0 1 .21.32 2 2 0 0 1-.42 1.28 1 1 0 0 1-1.65.17 7.15 7.15 0 0 1-.61-.73c-.08-.11-.17-.21-.29-.35a7.05 7.05 0 0 1-.52.68.75.75 0 0 1-1.13 0 2 2 0 0 1-.52-1.66.44.44 0 0 1 .26-.29.56.56 0 0 1 .36.15c.07.06.09.19.14.28s.15.32.23.48c.48-.12.5-.66.96-.93z" fill="#742823" data-color="1"/>
            <path d="M41.2 9.91a4.16 4.16 0 0 1 .6-.59 1.41 1.41 0 0 1 .58-.18c.15 0 .33.23.31.37a1 1 0 0 1-.12.4 9.31 9.31 0 0 1-.87 1.19c-.46.51-.93.42-1.27-.18a3.6 3.6 0 0 1-.14-.4c-.27.22-.47.42-.7.57a.67.67 0 0 1-1.12-.45 4.62 4.62 0 0 1 .15-2c.05-.17.18-.29.46-.24V10c.27.18.37 0 .5-.11a4.15 4.15 0 0 0 .32-.27c.81-.68.84-.68 1.3.29z" fill="#742823" data-color="1"/>
            <path d="M25.18 10.55l.74-.59a2.51 2.51 0 0 1 .45-.26.18.18 0 0 1 .19 0c.06.07.15.2.12.26a2.73 2.73 0 0 1-1.24 1.51.72.72 0 0 1-1.07-.33 5.73 5.73 0 0 1-.22-.77l-.54.5a4.11 4.11 0 0 1-.55.48.47.47 0 0 1-.69-.26 2.56 2.56 0 0 1 .17-1.74c0-.05.11-.08.17-.08s.15.06.16.11c.05.24.07.48.1.75L24.83 9c.32.47-.02 1.06.35 1.55z" fill="#742823" data-color="1"/>
            <path d="M36.12 23a5.26 5.26 0 0 1-.78.52.8.8 0 0 1-1.16-.52 2 2 0 0 1 0-1.35.3.3 0 0 1 .23-.17c.12 0 .31.06.35.15a10.59 10.59 0 0 1 .34 1 3.62 3.62 0 0 1 1-.24c.4 0 .38-.54.78-.44s.08.72.41 1l.63-.28c.06.13.15.23.13.3a1.76 1.76 0 0 1-.61 1 .63.63 0 0 1-1-.23 3.11 3.11 0 0 1-.11-.41c-.09-.08-.14-.16-.21-.33z" fill="#742823" data-color="1"/>
            <path d="M43.79 8.86a3.84 3.84 0 0 0 .33 1.69 13.29 13.29 0 0 0 1.27-1.18c.29-.27.51-.34.63-.19s0 .41-.08.57a13.06 13.06 0 0 1-.88 1.19 2 2 0 0 1-.6.44.85.85 0 0 1-1.05-.25 1.53 1.53 0 0 1-.28-1.1 1.22 1.22 0 0 1 .66-1.17z" fill="#742823" data-color="1"/>
            <path d="M74.4 21.59c.25-.46.41-.78.6-1.06a.49.49 0 0 1 .36-.17c.2 0 .3.17.31.36a2.19 2.19 0 0 1-.35 1.61.94.94 0 0 1-1.4.16 1.64 1.64 0 0 1-.63-1.5c0-.18.09-.37.3-.38a.52.52 0 0 1 .34.18 7.8 7.8 0 0 1 .47.8z" fill="#742823" data-color="1"/>
            <path d="M71.89 21.65c.25-.4.41-.67.59-.92s.32 0 .35.07a2.23 2.23 0 0 1-.37 1.89.62.62 0 0 1-.85.12 2.3 2.3 0 0 1-1-2 .56.56 0 0 1 .12-.29.4.4 0 0 1 .63 0c.19.34.33.69.53 1.13z" fill="#742823" data-color="1"/>
            <path d="M18.74 21.53c.8.13 1.19-.81 1.94-.63 0 0 0 .05.06.08a3.63 3.63 0 0 1-1.6 1.43.92.92 0 0 1-1.25-.77 4.35 4.35 0 0 1 .25-1.86.41.41 0 0 1 .33-.18.4.4 0 0 1 .25.27 4.56 4.56 0 0 1 0 .74c.01.31.02.62.02.92z" fill="#742823" data-color="1"/>
            <path d="M61.78 8.83a7.18 7.18 0 0 0 .24.74 3.06 3.06 0 0 0 .37.63.4.4 0 0 0 .7 0c.17-.23.3-.48.46-.72a1.58 1.58 0 0 1 .28-.3.24.24 0 0 1 .34.11 1.85 1.85 0 0 1-.92 1.87 1.06 1.06 0 0 1-.92 0 1.68 1.68 0 0 1-.75-2.24s.06-.03.2-.09z" fill="#742823" data-color="1"/>
            <path d="M61 8.81c.07.09.2.18.22.3a2.61 2.61 0 0 1-.47 1.69.68.68 0 0 1-1 .14 1.57 1.57 0 0 1-.58-.87A1.3 1.3 0 0 1 59.19 9c.47.12.35.71.81.87.32-.34.4-.87 1-1.06z" fill="#742823" data-color="1"/>
            <path d="M21.29 20.94l.25 1c.34-.28.62-.53.92-.76a.28.28 0 0 1 .28 0 .33.33 0 0 1 .08.27 2.21 2.21 0 0 1-.66 1.08 1.37 1.37 0 0 1-.55.28.63.63 0 0 1-.74-.58 1.89 1.89 0 0 1 .42-1.29z" fill="#742823" data-color="1"/>
            <path d="M78 14.17a2 2 0 0 1-.08.31 1.61 1.61 0 0 1-.24.34c-.15.17-.23.45-.54.41s-.24-.42 0-.82a1.67 1.67 0 0 1 .39-.45.36.36 0 0 1 .29 0c.06.04.11.14.18.21z" fill="#742823" data-color="1"/>
            <path d="M77.87 16.24c-.07-.09-.22-.19-.22-.29a1 1 0 0 1 .36-.83.48.48 0 0 1 .39 0 .29.29 0 0 1 .15.24 1 1 0 0 1-.43.8 1.81 1.81 0 0 1-.25.08z" fill="#742823" data-color="1"/>
        </g>
    </g>
</svg>
