<?xml version="1.0" encoding="UTF-8"?>
<svg data-bbox="0.021 -0.003 449.19 433.318" viewBox="0 0 449.22 433.31" xmlns="http://www.w3.org/2000/svg" data-type="ugc">
    <g>
        <g>
            <path d="M449 179.5c-2.19-11.56-19.8-16-104.72-26.58-18.26-2.28-40.45-5-48.4-6.94C232.39-2.8 225.59-1.26 218.37.32 210 2.2 204.82 13.59 181.66 81.59c-8.76 25.7-20.61 60.5-25.58 67.88-5.45 1.14-23.2 3.1-39 4.84-91.8 10.12-113.62 15-116.69 26.3-2.79 10.21 9.13 21.38 75 70.31 14.46 10.74 30.63 22.75 35.91 27.61-1.43 6-6.73 21.15-11.48 34.7-26.12 74.46-34.95 107.24-22 117.43a12.78 12.78 0 0 0 8.18 2.65c15.12 0 43.57-19 103.33-63.52 16.12-12 34.11-25.39 41.46-29.65 135.09 95 142.62 89.74 147.64 86.25 9.34-6.47 6.45-25.61-17.14-113.79-4.5-16.84-9.52-35.59-11-43.42 101.8-73.4 99.64-84.79 98.71-89.68ZM337.47 259l-2.47 1.81-.61 3.05c-.93 4.61 1.39 14.13 11.74 52.81 7.34 27.44 20.21 75.56 21.61 93.47-19.92-9.52-78.88-48.44-131.39-85.43l-2.8-2-3.35.7c-6.31 1.32-18.1 9.8-50.21 33.71-27.64 20.57-78.08 58.13-92.22 60.32-2.92-13.74 17.89-73.08 27-99 11.2-31.95 13.51-39.25 12.51-44S123.5 267 84.8 238.26c-20.33-15.1-56.18-41.73-66.6-53.11 16.59-5.9 72.36-12 100.59-15.16 30.78-3.38 41-4.63 45.23-6.6 7-3.76 12.85-18.83 32.57-76.72 7.75-22.75 17.81-52.26 24-65.64 11.63 20 38.78 79.51 62.17 134.4l1.16 2.72 2.65 1.28c5.54 2.7 20.47 4.76 55.77 9.14 26.86 3.34 74.58 9.27 89 14.72-10.73 12.86-54.64 47.53-93.87 75.71Z" fill="#ffca98"/>
            <path d="M271.42 176.36c-40.53-104.51-43.85-103.7-52.35-101.85-7.66 1.7-9.8 7.19-23 58.77-4.14 16.14-9.65 37.62-12.63 45.07-5.13.81-15.92 2.11-25.66 3.29-78.2 9.48-86.7 12.5-89.1 21.27-2.66 9.76 3.51 14.18 60 43 9.24 4.73 20.17 10.32 26.13 13.68-2.38 5.76-6.81 15.41-10.81 24.28-31 67.76-35.36 83-25.75 90.52s22-.21 83-51.63c10.15-8.55 22.26-18.75 28.69-23.58 76.7 65.55 95.17 77.82 102.78 77.82a7.73 7.73 0 0 0 4.69-1.83c8.09-5.62 7.35-12.08-20.51-88.56-4.27-11.72-9-24.58-11.34-31.88 86.37-41.77 85.15-48.16 83.87-54.91-1.78-9.4-8.59-11.9-82.73-19.48-13.04-1.34-28.7-2.98-35.28-3.98Zm20 65.56-4 1.91-.86 4.3c-.79 3.93-.08 6.66 13.7 44.48 5.77 15.85 15 41.1 20.09 57.7-18.85-14.18-52.99-42.31-83.85-68.69l-3.29-2.82-4.25.89c-4.84 1-11.26 6.14-39.1 29.58-15.64 13.18-41.86 35.26-56.46 45 5.22-16.42 19.09-46.72 26.59-63.1 13.65-29.82 14.68-32.57 13.77-36.9-1.15-5.44-2.88-6.57-37.08-24-12.23-6.25-30.09-15.38-41.53-22 17.37-3.36 47.84-7.05 64.73-9.1 26.23-3.18 30.22-3.78 33.27-5.23 5.66-3 8.09-9.89 20-56.27 2.68-10.47 6.18-24.11 9.15-34.38 8.44 18.61 22.23 52.4 34.33 83.68l1.25 3.23 3.12 1.51c3.82 1.86 12.29 2.92 43.92 6.16 17.11 1.75 42.47 4.35 57.82 6.91-15.6 9.32-45.04 24.55-71.28 37.14Z" fill="#ffca98"/>
            <text transform="translate(162.45 231.55)" font-size="25.53" font-family="SSSoapyHands-Bold,SS Soapy Hands" font-weight="700" fill="#ffca98"><tspan letter-spacing="-.03em">L</tspan><tspan y="0" x="8.35">ady &amp; the </tspan><tspan y="0" x="89.32" letter-spacing="-.03em">T</tspan><tspan y="0" x="98.36" letter-spacing="-.04em">r</tspan><tspan y="0" x="105.2" letter-spacing="0">amp</tspan></text>
        </g>
    </g>
</svg>
