<?xml version="1.0" encoding="UTF-8"?>
<svg data-bbox="0.003 0.023 189.074 189.054" viewBox="0 0 189.08 189.08" xmlns:xlink="http://www.w3.org/1999/xlink" xmlns="http://www.w3.org/2000/svg" data-type="ugc">
    <g>
        <defs>
            <linearGradient gradientUnits="userSpaceOnUse" y2="93.06" x2="134.39" y1="93.06" x1="50.53" id="fa182e21-2967-421e-9a6c-63851a9edc3d">
                <stop stop-color="#fbcd1a" offset="0"/>
                <stop stop-color="#fac41d" offset=".44"/>
            </linearGradient>
            <linearGradient xlink:href="#fa182e21-2967-421e-9a6c-63851a9edc3d" y2="38.16" x2="59.76" y1="38.16" x1="33.04" id="5f6a2235-b830-41cc-8d7e-d86175397b04"/>
            <linearGradient xlink:href="#fa182e21-2967-421e-9a6c-63851a9edc3d" y2="88.81" x2="41.17" y1="88.81" x1="0" id="6ce57b33-15f7-4227-9bdd-0f7a281d52b4"/>
            <linearGradient xlink:href="#fa182e21-2967-421e-9a6c-63851a9edc3d" y2="142.68" x2="57.02" y1="142.68" x1="19.31" id="7742819c-b48b-48d8-a2a4-caaaec936d28"/>
            <linearGradient xlink:href="#fa182e21-2967-421e-9a6c-63851a9edc3d" y2="168.49" x2="97.2" y1="168.49" x1="80.42" id="28cf82e9-1ce8-486e-a657-dd4e4425416f"/>
            <linearGradient xlink:href="#fa182e21-2967-421e-9a6c-63851a9edc3d" y2="150.91" x2="156.03" y1="150.91" x1="129.32" id="175f9ca3-a37e-42c1-b700-bb4ced84d001"/>
            <linearGradient xlink:href="#fa182e21-2967-421e-9a6c-63851a9edc3d" y2="100.27" x2="189.08" y1="100.27" x1="147.91" id="d1012da3-9ae9-4e21-ba87-1a9ec63dedc9"/>
            <linearGradient xlink:href="#fa182e21-2967-421e-9a6c-63851a9edc3d" y2="46.4" x2="169.77" y1="46.4" x1="132.06" id="ac6c2283-3eba-4c23-9ea7-e6a575f45c9c"/>
            <linearGradient xlink:href="#fa182e21-2967-421e-9a6c-63851a9edc3d" y2="20.59" x2="108.65" y1="20.59" x1="91.88" id="f13b659e-9a87-45c0-ae35-3b053b55f59b"/>
        </defs>
        <g>
            <path d="M59.28 98.64c-2.17-15.32 10-29.73 24-34.12a33.14 33.14 0 0 1 41 20.94c5.29 15.61-4.43 36.9-22.51 37.4C85 123.33 68 106.5 74.43 89.41c2.53-6.7 11.24-10 17.92-10.28 10.35-.52 19.32 7.78 20.49 18.1.7 6.17-3.89 9.94-9.83 10.34-6.56.44-12.1-4.33-15.44-9.51A12.8 12.8 0 0 1 86 94.31c-.32-1.2.51-1.9-.52-.86 1.28-1.29 3.6-1 5.22-.77a12.93 12.93 0 0 1 5.71 2.66 6.39 6.39 0 0 1 1.35 1.58c.17-.08.23.08.17.47l1.37-4c1-.78 1-.91.09-.36a8.71 8.71 0 0 0-4.26 7.38c0 2.66 2.14 3.73 4.43 2.55 6.14-3.15 9.69-11.62 4.11-16.92-4.85-4.6-12.32-6-18.22-2.65-8.7 4.87-10 15.82-5.39 23.81 4.66 8.14 14 12.78 23.13 10.9 9.5-2 16.91-11.31 18.16-20.62 1.37-10.29-3.92-20-12.06-26-9.8-7.23-25.02-2.48-33.5 4.52-12.71 10.53-14.92 31.15-5.32 44.43 5.15 7.13 14.19 11.57 22.64 13.08 9.23 1.66 18.1-2.17 25-8.12 14-12.14 20.47-32.38 13.46-49.88-6.69-16.69-23.73-25.33-41.21-23-24.06 3.24-42.76 29.7-39.41 53.26.41 2.92 3.94 1.83 5.36.61a8.65 8.65 0 0 0 3-7.79Z" fill="url(#fa182e21-2967-421e-9a6c-63851a9edc3d)"/>
            <path d="M58.27 55.05C64.88 43 47.72 28.91 40.87 20.93c-2.62-3-6.42-1.48-7.41 2-1.25 4.39.46 9 3.31 12.34 2.35 2.73 4.84 5.35 7.23 8.06 1.18 1.35 1.93 2.25 3.21 3.91.62.81 1.19 1.64 1.75 2.48s.47.75-.16-.33q2 4.57.16-8c-2.08 3.8-1 9 1.32 12.45 1.78 2.6 5.93 5 8 1.21Z" fill="url(#5f6a2235-b830-41cc-8d7e-d86175397b04)"/>
            <path d="M41 92.26C37.11 79.05 15 81.24 4.54 80.44c-4-.3-5.58 3.49-3.83 6.64 2.21 4 6.7 6.06 11.07 6.4 3.59.27 7.21.36 10.81.59 1.79.12 3 .23 5 .5 1 .13 2 .31 3 .51s.87.2-.35-.12q4.66 1.82-5.54-5.76c1.22 4.15 5.65 7.1 9.74 7.87 3.1.58 7.73-.67 6.51-4.81Z" fill="url(#6ce57b33-15f7-4227-9bdd-0f7a281d52b4)"/>
            <path d="M55.05 130.8c-12.05-6.6-26.14 10.56-34.12 17.41-3 2.61-1.48 6.41 2 7.41 4.39 1.25 9-.46 12.34-3.31 2.74-2.35 5.36-4.85 8.07-7.22a66.99 66.99 0 0 1 3.91-3.21c.81-.62 1.64-1.19 2.48-1.75s.75-.48-.33.15q4.57-2-8-.15c3.8 2.08 9 1 12.45-1.32 2.6-1.78 5-5.94 1.21-8Z" fill="url(#7742819c-b48b-48d8-a2a4-caaaec936d28)"/>
            <path d="M92.26 148.1c-13.21 3.87-11 26-11.82 36.44-.3 4 3.49 5.58 6.64 3.83 4-2.22 6.06-6.7 6.4-11.07.27-3.6.35-7.21.59-10.81.12-1.79.23-3 .5-5 .13-1 .31-2 .51-3s.2-.87-.12.34q1.82-4.65-5.76 5.55c4.15-1.22 7.1-5.66 7.87-9.74.58-3.1-.67-7.73-4.81-6.52Z" fill="url(#28cf82e9-1ce8-486e-a657-dd4e4425416f)"/>
            <path d="M130.8 134c-6.6 12.08 10.56 26.15 17.41 34.13 2.61 3 6.42 1.47 7.41-2 1.25-4.39-.46-9-3.31-12.35-2.35-2.73-4.85-5.35-7.23-8.07a60.957 60.957 0 0 1-3.2-3.91c-.62-.8-1.2-1.63-1.75-2.47s-.47-.75.15.33q-2-4.58-.15 8c2.08-3.8 1-9-1.32-12.45-1.78-2.61-5.94-5-8-1.22Z" fill="url(#175f9ca3-a37e-42c1-b700-bb4ced84d001)"/>
            <path d="M148.1 96.82c3.87 13.2 26 11 36.44 11.82 4 .3 5.58-3.49 3.83-6.65-2.22-4-6.7-6-11.07-6.39-3.6-.27-7.21-.36-10.81-.59-1.79-.12-3-.23-5-.5-1-.13-2-.31-3-.51s-.87-.2.35.12q-4.66-1.82 5.54 5.76c-1.22-4.15-5.65-7.1-9.74-7.87-3.1-.58-7.73.67-6.52 4.81Z" fill="url(#d1012da3-9ae9-4e21-ba87-1a9ec63dedc9)"/>
            <path d="M134 58.27c12.07 6.61 26.14-10.55 34.12-17.4 3-2.62 1.48-6.42-2-7.41-4.39-1.25-9 .46-12.35 3.31-2.74 2.35-5.35 4.84-8.07 7.22-1.34 1.18-2.25 1.93-3.91 3.21-.8.62-1.63 1.19-2.47 1.75s-.75.47.33-.16q-4.58 2 8 .16c-3.8-2.08-9-1-12.45 1.32-2.61 1.78-5 5.93-1.21 8Z" fill="url(#ac6c2283-3eba-4c23-9ea7-e6a575f45c9c)"/>
            <path d="M96.82 41c13.21-3.87 11-26 11.82-36.44.3-4-3.49-5.58-6.64-3.83-4 2.21-6.06 6.7-6.4 11.07-.27 3.59-.36 7.21-.6 10.81-.11 1.79-.22 3-.49 5-.13 1-.31 2-.51 3s-.2.87.12-.35q-1.82 4.66 5.76-5.54c-4.15 1.22-7.1 5.65-7.87 9.74-.58 3.1.67 7.73 4.81 6.52Z" fill="url(#f13b659e-9a87-45c0-ae35-3b053b55f59b)"/>
        </g>
    </g>
</svg>
