<?xml version="1.0" encoding="UTF-8"?>
<svg data-bbox="-0.027 -0.001 435.537 143.027" viewBox="0 0 435.67 143.09" xmlns="http://www.w3.org/2000/svg" data-type="color">
    <g>
        <g>
            <path d="M144.4 64.25a20.16 20.16 0 0 0-23.46 12.6c-1.66 4.7-2 10.44.28 15a9.48 9.48 0 0 0 2.71 3.49 27.67 27.67 0 0 0 3.69 2.14l.6.34c.17.11.71.47.27.16.47.33.95.65 1.41 1a26 26 0 0 1 2.51 2.18l.65.66c-.4-.42.18.22.28.34q.57.66 1.08 1.35c.37.49.72 1 1.06 1.51.16.26.33.52.48.79l.24.4s.27.48.11.19.06.12.1.19l.21.42.39.83c.25.56.48 1.14.69 1.71s.4 1.17.56 1.76l.09.34c.2.71-.06-.34 0 .08l.21 1a2.76 2.76 0 0 0 5.26.85c4.77-10.07 9.48-20.53 9.21-31.94a31.12 31.12 0 0 0-3.95-14.74c-1.56-2.74-4-4.57-7.24-4.43-2.61.12-5.07 1.52-7.29 2.81A41.94 41.94 0 0 0 118 83.87a43.94 43.94 0 0 0-3.82 24.8c.73 4.84 2.56 9.24 4.37 13.74.49 1.24 1 2.48 1.37 3.75.2.61.37 1.23.54 1.85.09.33 0 0 0-.07 0 .16.07.33.11.5q.11.51.18 1a18 18 0 0 1 .21 1.8v1.29c0 .17 0 .31 0 0a17.85 17.85 0 0 1-.17 1.78c0 .29-.1.58-.16.87s-.08.33-.11.49c-.08.43.14-.4 0 0a13.35 13.35 0 0 1-.65 1.62 8 8 0 0 1-.42.77c.29-.47-.26.34-.33.43a2.81 2.81 0 0 0 3.14 4.38c11-3.74 19.33-13.28 22.56-24.39a34.37 34.37 0 0 0 1.31-9.57c0-2.73-4.39-3.38-5.26-.85a82.86 82.86 0 0 1-5.67 12.82c-.54 1-1.1 2-1.68 2.93 0 0-.33.53-.17.26s-.08.14-.09.15l-.43.69q-.46.73-1 1.47a78.51 78.51 0 0 1-4.13 5.65c-1.65 2.07-3.41 4-5.25 5.95-1.67 1.72.15 5 2.44 4.55 10.12-1.79 20.87-3.76 29-10.59a27.13 27.13 0 0 0 8.47-11.76 20.76 20.76 0 0 0-.07-13.87c-1.72-4.7-5.36-8.94-10.18-10.48a2.82 2.82 0 0 0-3.66 1.38 2.88 2.88 0 0 0 1.37 3.7 2.85 2.85 0 0 1 .51.3c-.52-.48-.13-.07 0 0s.52.37.76.57.58.49.86.75c.09.09.17.18.26.26s.18.18-.09-.11l.25.28a15.57 15.57 0 0 1 1.24 1.66c.17.26.33.54.48.81.34.57-.26-.56 0 0 .1.2.2.4.29.6a17.83 17.83 0 0 1 .73 1.88 4.93 4.93 0 0 1 .32 1.12c0-.61-.06-.27 0 0s.1.44.14.67c.13.71.22 1.42.28 2.14v2-.16a23.54 23.54 0 0 1-.63 4.34l-.15.58c-.18.67.21-.61 0 0-.11.32-.21.63-.33.94a21 21 0 0 1-1 2.17c-.15.29-.32.57-.48.86-.33.58.33-.49-.09.15-.14.19-.26.39-.39.59-.49.7-1 1.38-1.56 2s-1.13 1.27-1.74 1.87.42-.36-.16.14l-.32.68c-.35.3-.7.6-1.07.89a39.91 39.91 0 0 1-4.36 2.92c-.4.24.57-.3-.1.06l-.63.33-1.06.52c-.85.42-1.72.8-2.6 1.15a52.56 52.56 0 0 1-5.18 1.73l-1.13.31-.69.18c.53-.14.12 0 0 0-1.07.25-2.13.49-3.21.68a40 40 0 0 1-6.45.67h-.9c-.51 0-1-.06-1.53-.11a24.16 24.16 0 0 1-3.14-.51c-.27-.06-.53-.14-.8-.21-.86-.22.49.19-.35-.11-.44-.15-.87-.31-1.3-.49s-.82-.35-1.21-.55l-.49-.27c-.12-.06-.92-.58-.34-.19a17.72 17.72 0 0 1-2-1.5c-.28-.25-.55-.52-.82-.78-.53-.52.35.44-.12-.14l-.43-.51a18.55 18.55 0 0 1-1.39-2c-.39-.62.23.52-.08-.15-.1-.2-.2-.39-.29-.59-.18-.4-.34-.81-.48-1.22-.06-.2-.33-1.21-.18-.55-.1-.42-.17-.85-.23-1.28a9.45 9.45 0 0 1-.07-1.07c0-.22-.16-.76 0-.12a2.82 2.82 0 0 1 .06-.76 9.43 9.43 0 0 1 .22-1.18c0-.11.26-.82 0-.22 0-.16.11-.31.16-.47a17 17 0 0 1 1.32-2.67c-.32.53.11-.18.15-.23s.23-.35.34-.52c.26-.39.52-.77.79-1.14.59-.83 1.18-1.65 1.75-2.49a23.17 23.17 0 0 0 2.86-5.41 33.11 33.11 0 0 0 1.44-6.66c.25-2 .41-4.08.74-6.1a27.51 27.51 0 0 1 .63-3c-.16.57.1-.3.11-.33.09-.26.18-.52.29-.78.18-.47.39-.93.61-1.39 1.7-3.53 4.12-6.7 5-10.6a10.26 10.26 0 0 0-.51-6.22 15.29 15.29 0 0 0-4-5 60.2 60.2 0 0 0-20.46-12.2c-16.26-5.72-33.79-5.25-50.5-1.86-2 .41-4.09.87-6.13 1.36a2.85 2.85 0 0 0-2.43 2.72 2.75 2.75 0 0 0 2.3 2.82 315.34 315.34 0 0 1 38.27 4.43q9.45 1.68 18.79 3.94 4.71 1.14 9.37 2.43c1.43.39 2.86.79 4.28 1.21l.2.06.21.06.78.25c.63.21 1.27.43 1.89.66a30.77 30.77 0 0 1 3.43 1.51l.71.39c.14.08.87.55.37.21.54.36 1.06.73 1.56 1.14a13.51 13.51 0 0 1 1.24 1.15c-.41-.43.16.2.27.33s.37.48.54.73.34.51.5.77c-.26-.42 0-.08 0 0a3.47 3.47 0 0 1 .17.45c0-.15-.05-.46 0 0a1.13 1.13 0 0 1 .09-.66c0 .13-.18.27 0 0s.14-.22 0 0l.28-.26s-.27.17-.27.19c0-.21.55-.22.17-.1 0 0-.33.13-.34.12s.7-.12.16 0l-.66.08h-.39c-.58 0 0 .09.07 0a2.84 2.84 0 0 1-.75-.07l-1.1-.14-2.19-.29c-2.94-.41-5.87-.86-8.8-1.33-11.65-1.86-23.25-4.06-35-5.29s-23.55-1.5-35.13.61c-1.44.26-2.88.57-4.31.9a2.87 2.87 0 0 0-2.44 3.09 2.83 2.83 0 0 0 3 2.47q8.52-.39 17.05-.23h1.45l2.22.07c1.43 0 2.87.12 4.3.19q4.21.23 8.43.59a259.32 259.32 0 0 1 33.71 5.14q9.36 2.06 18.53 4.8l.87-5.52a281.84 281.84 0 0 0-39.95-.08 278.83 278.83 0 0 0-39.12 5.51q-11.13 2.38-22 5.65a2.8 2.8 0 0 0 1.3 5.38q18-1 36.05-1.72t36.07-1.14c1.71 0 3.42-.08 5.12-.1h2.4c.59 0 1.2 0 2.1.08a44.62 44.62 0 0 1 4.88.52c.77.14 1.55.3 2.31.49l.58.15.5.14.21.07c.28.1.56.19.84.3l.84-5.33q-19.56 2.55-39.07 5.41t-39 6q-10.84 1.83-21.76 3.72a2.8 2.8 0 0 0-2.43 2.71 2.83 2.83 0 0 0 2.3 2.82c5.91 1.63 12.12 1.64 18.19 1.26s12-1 18-1.56q18-1.73 36-4 10.2-1.27 20.36-2.7c-.43-1.79-.87-3.59-1.31-5.38-12.91 6.09-25.85 12.19-39.28 17-3.38 1.21-6.78 2.35-10.22 3.38-1.67.5-3.34 1-5 1.42l-1.22.33-.68.17c-.06 0-.52.13-.13 0-.91.23-1.83.45-2.74.65a129.17 129.17 0 0 1-20.59 3.06q-2.94.18-5.89.21h-3.88l-1.54-.07a95.73 95.73 0 0 1-11.69-1.34l-.87 5.52c15.37.46 30.8.95 46.13-.56 13.62-1.34 27.25-4.33 39.77-10a87 87 0 0 0 19.27-11.91l-4.2-1.25c.1.21.18.42.26.64-.21-.61 0 0 0 .18.1.64.09-.34 0 0a5.43 5.43 0 0 0-.09.56c-.12.68.25-.48-.06.16-.09.17-.16.36-.24.54s-.19.36-.29.53c.3-.53-.23.33-.3.42a10.58 10.58 0 0 1-.79 1c-.16.19-.33.37-.5.55 0 0-.56.55-.26.26s-.3.27-.28.26l-.55.49c-.36.33-.73.65-1.11 1a66 66 0 0 1-8.93 6.4c-.35.21-.7.42-1.06.62l-.64.36-.23.13c-.79.43-1.59.84-2.39 1.23-1.69.83-3.4 1.58-5.15 2.26s-3.36 1.24-5.07 1.75c-.86.26-1.72.5-2.59.72-.51.14-.12 0 0 0l-.71.17-1.43.32a66.45 66.45 0 0 1-12.33 1.4l2.45 4.55c.27-.3.56-.59.84-.88-.36.36-.07.06 0 0l.54-.48c.61-.52 1.25-1 1.91-1.46s1.21-.79 1.84-1.16c.06 0 .76-.43.22-.13.14-.08.28-.16.43-.23.39-.21.79-.41 1.19-.61 2.91-1.43 5.94-2.56 8.92-3.82A95.32 95.32 0 0 0 94 119.91a96.26 96.26 0 0 0 27-28.4c3.3-5.36 6-11.44 6.61-17.79a23.94 23.94 0 0 0-.88-9.56 20.33 20.33 0 0 0-5.46-8.52c-5.13-4.91-12.36-7.54-19-9.4a80.3 80.3 0 0 0-21.92-2.69c-15.09.06-30 3.53-44.45 7.54q-2.59.7-5.18 1.46a2.8 2.8 0 0 0-1.57 3.61 2.82 2.82 0 0 0 3.57 1.6c3.51-1 7-2 10.55-2.91l2.63-.67c.05 0 .51-.13.14 0l.56-.14 1.67-.41q2.65-.63 5.31-1.2a146.08 146.08 0 0 1 21.52-3.12c1.77-.11 3.54-.18 5.31-.19h3.3l1.66.07a79.1 79.1 0 0 1 10.4 1.23c1.71.33 3.42.72 5.1 1.17l1.33.37.53.16c-.43-.13 0 0 .09 0 .88.29 1.76.57 2.63.89 1.66.61 3.31 1.28 4.91 2 .72.33 1.42.68 2.12 1.06q.43.23.87.48l.54.31.31.2c-.22-.14-.24-.16-.08 0a25.76 25.76 0 0 1 3.79 3l.34.35c.38.37.1.09 0 0 .28.3.55.61.8.93a18.26 18.26 0 0 1 1.37 2c.27.44 0 .06 0 0 .09.16.18.33.26.5s.28.6.41.91a19 19 0 0 1 .71 2.09c.15.49 0 0 0-.07 0 .22.1.43.14.65s.11.57.15.86a20.2 20.2 0 0 1 .2 2.2v1.59c0 .72-.12 1.43-.23 2.14s-.24 1.44-.4 2.15c-.08.34-.16.68-.25 1l-.15.56-.09.34c.09-.31.1-.36 0-.16a46.77 46.77 0 0 1-3.58 8.36q-.51.93-1 1.83l-.24.39c.31-.5 0-.05 0 .08-.24.38-.48.76-.73 1.13q-1.27 2-2.66 3.87-2.76 3.8-5.88 7.3c-1.07 1.2-2.16 2.37-3.29 3.51l-1.67 1.64c-.06.07-.38.37 0 0l-.35.34-1.09 1q-3.47 3.15-7.22 5.94c-2.5 1.86-5.1 3.6-7.77 5.2-.67.4-1.34.79-2 1.17-.17.11-.35.21-.53.31.09-.06.44-.25 0 0l-1.19.64c-1.37.72-2.77 1.41-4.18 2.07-5.77 2.67-12 4.5-17.23 8.29a26.23 26.23 0 0 0-3.75 3.39 2.81 2.81 0 0 0 2.45 4.55 69.21 69.21 0 0 0 43.36-16.56c3.54-3 8.37-7.75 6-13-.71-1.53-2.73-2.46-4.2-1.25a79.67 79.67 0 0 1-8 5.81q-2 1.27-4.13 2.45c-.46.26-.14.08 0 0l-.55.3-1 .53c-.75.39-1.5.77-2.26 1.14A103.79 103.79 0 0 1 70 125.42l-2.21.58c.49-.13-.05 0-.17 0l-.62.15-1.24.29c-1.57.35-3.15.68-4.73 1-3.49.65-7 1.17-10.55 1.57a216.81 216.81 0 0 1-22.35 1.28c-4.2.05-8.41 0-12.61-.08-2.3 0-3.65-.07-5.86-.14l-6.45-.18A2.83 2.83 0 0 0 0 132.23a2.86 2.86 0 0 0 2.29 3.2c14.09 2.53 28.63 1.69 42.59-1.24 14.13-3 27.72-8 41-13.7 7.47-3.25 14.85-6.73 22.22-10.2a2.84 2.84 0 0 0 1.66-3.27 2.77 2.77 0 0 0-3-2.12q-17.85 2.52-35.76 4.53c-11.89 1.33-23.81 2.54-35.74 3.48-1.69.14-3.38.26-5.08.33-.85 0-1.69.06-2.54.07h-1.99a41.5 41.5 0 0 1-10-1.41l-.12 5.54q19.47-3.34 38.95-6.38t39-5.76q11-1.53 22-3a2.8 2.8 0 0 0 .84-5.32c-6-2.18-12.24-2.31-18.51-2.19-6.09.12-12.17.29-18.25.47q-18.28.6-36.56 1.44-10.33.49-20.68 1.07c.44 1.79.87 3.59 1.31 5.38q4.74-1.41 9.52-2.67l2.19-.56.55-.14c-.38.1.08 0 .13 0l1.37-.33c1.6-.39 3.21-.76 4.82-1.12q9.51-2.11 19.16-3.56a277.6 277.6 0 0 1 39-3.06h10.55q5.51.18 11 .58a2.84 2.84 0 0 0 3.17-2.32 2.88 2.88 0 0 0-2.3-3.2 259.73 259.73 0 0 0-67.49-10.8c-6.57-.18-13.15-.14-19.72.16.2 1.85.41 3.71.61 5.56A94.62 94.62 0 0 1 54 79.42c1.5-.06 3-.09 4.51-.09h4.04c3 .1 6 .3 8.92.57 12.15 1.11 24.17 3.38 36.21 5.33 3 .49 6.05 1 9.08 1.39 2.82.4 5.86 1.14 8.66.32a5.16 5.16 0 0 0 3.28-2.76c.84-1.89.24-3.82-.74-5.5a17.18 17.18 0 0 0-6.04-5.68 31.4 31.4 0 0 0-7-3c-3.07-1-6.2-1.83-9.32-2.65q-9.58-2.55-19.3-4.47a313.22 313.22 0 0 0-39.53-5.28q-2.41-.16-4.83-.3c0 1.85-.08 3.69-.13 5.54a131.41 131.41 0 0 1 26.22-3.85h6.11q3.25.12 6.51.5a73.92 73.92 0 0 1 11.86 2.38l.3.09.5.16c.5.15 1 .32 1.5.49q1.5.51 3 1.08 2.81 1.11 5.51 2.48c.85.44 1.7.9 2.53 1.38.42.24.84.48 1.25.73l.56.34c-.46-.28.41.27.49.32a55.27 55.27 0 0 1 4.85 3.52c.74.61 1.47 1.25 2.17 1.9l.55.52s.62.64.22.21a10.89 10.89 0 0 1 1 1.18 6.73 6.73 0 0 1 .4.63c-.29-.52.07.22.09.28s.11.3.16.46c.25.69 0-.51 0 .2 0 .23.07.45.09.68s0 .87 0 .16a10.38 10.38 0 0 1-.17 1.35c-.05.23-.11.45-.16.68.17-.68 0 .07-.07.18-.14.38-.29.75-.45 1.12-.4.93-.88 1.82-1.36 2.7-1 1.71-2 3.38-2.81 5.17-1.84 4.05-2.08 8.47-2.62 12.82-.13 1-.28 2-.48 3-.11.54-.24 1.08-.39 1.61.16-.57-.09.29-.11.33-.09.26-.18.52-.28.77a19.36 19.36 0 0 1-1.26 2.54c-.41.72.31-.44-.15.24l-.42.64-.86 1.24c-2.34 3.31-4.89 6.78-5.15 11A16.32 16.32 0 0 0 104.4 135a19.32 19.32 0 0 0 9.38 6.68 31.21 31.21 0 0 0 13.62 1 51 51 0 0 0 21.93-7.93c5.95-4.05 10.63-10.05 11.88-17.31 1.13-6.58-.44-13.71-5.09-18.59a16.29 16.29 0 0 0-3.9-3c-.76 1.69-1.52 3.39-2.29 5.08a15.51 15.51 0 0 1 2.56 1.15c.28.15-.15-.1-.17-.11l.26.17.58.43a12.25 12.25 0 0 1 1.09.94l.44.45c-.38-.4 0 0 .14.17.29.35.56.71.82 1.09s.48.77.72 1.16-.21-.43 0-.07l.15.28c.11.22.21.45.31.68a19.9 19.9 0 0 1 .95 2.72c-.13-.46 0-.11 0 .14s.1.49.14.74q.12.75.18 1.5c0 .46.05.93.06 1.39s0-.44 0 .11c0 .29 0 .58-.07.86a21.09 21.09 0 0 1-.55 2.85c.15-.62 0 .16-.1.31l-.24.67c-.2.52-.41 1-.65 1.53s-.45.92-.71 1.36c-.06.11-.45.76-.29.51l-.06.1-.26.39a25.79 25.79 0 0 1-2 2.54c-.34.39-.7.77-1.06 1.14l-.18.18-.71.65a31 31 0 0 1-5.19 3.7l-.31.18c.45-.25.08 0 0 0l-.67.35c-.56.28-1.14.55-1.72.81-1.11.5-2.25 1-3.4 1.35s-2.58.86-3.89 1.22l-.92.24-.53.14c.29-.07.05 0-.1 0-.66.16-1.33.32-2 .46-2.72.6-5.45 1.08-8.19 1.56.82 1.52 1.63 3 2.45 4.55A84.6 84.6 0 0 0 143 118q1.7-3.69 3-7.52l-5.27-.85v.37-.08c0 .34 0 .67-.05 1 0 .67-.12 1.34-.21 2a31 31 0 0 1-.74 3.72c0 .17-.33 1.17-.12.47l-.27.85q-.31 1-.69 1.89a32.58 32.58 0 0 1-1.6 3.44c-.28.53-.58 1-.88 1.56s.21-.33 0 0l-.24.38c-.18.28-.37.55-.56.83a33.91 33.91 0 0 1-2.4 3.08c-.42.47-.85.94-1.29 1.39l-.63.63c-.09.08-.39.35 0 0l-.49.45a33.5 33.5 0 0 1-2.95 2.36c-.57.4-1.16.79-1.76 1.15-.31.2-.63.38-1 .57s.4-.21 0 0l-.5.26a29.9 29.9 0 0 1-4.08 1.73l3.14 4.38c3.19-4.23 3.66-9.85 2.48-14.91s-3.68-9.65-5.21-14.61c-.15-.47-.28-.94-.41-1.42-.06-.26-.14-.59 0-.11-.06-.28-.13-.55-.19-.83-.2-1-.37-1.93-.49-2.9s-.21-1.88-.26-2.83v-3.7c0-.53.08-1 .13-1.58.1-1 .23-2 .4-2.92s.36-1.87.59-2.79c.11-.48.24-1 .37-1.43l.09-.31c.09-.31 0 .21-.06.22s.2-.65.25-.81a42.73 42.73 0 0 1 2.22-5.48q.65-1.34 1.38-2.61l.32-.55c.08-.12.15-.24.22-.36s-.27.43-.1.17L126 81a40.52 40.52 0 0 1 3.64-4.61c.31-.34.62-.67.94-1l.51-.52.23-.22c-.15.15-.3.28-.06.06.71-.67 1.45-1.31 2.21-1.91a36.78 36.78 0 0 1 4.85-3.27c-.41.24-.1.06.12 0l.66-.34a16.55 16.55 0 0 1 1.78-.78 5.07 5.07 0 0 1 .78-.25c-.45.11.36-.05.48-.06h.39c-.13 0-.49-.07 0 0 .12 0 .25 0 .38.06.33 0-.25-.17 0 0 .06 0 .54.28.22.09s0 0 .08.07a3 3 0 0 0 .27.23c.32.21-.25-.33 0 0a11.44 11.44 0 0 1 .95 1.36c.08.13.44.79.21.35.11.22.23.44.34.67.27.56.52 1.14.75 1.72a30.42 30.42 0 0 1 1.05 3.23c-.15-.52 0 .26.08.39.06.29.12.58.17.87.11.58.2 1.16.27 1.75a32.22 32.22 0 0 1 .25 3.54v1.27-.11c0 .64-.06 1.28-.11 1.91a44.94 44.94 0 0 1-1.22 7.2c-.17.67-.35 1.33-.54 2-.09.32 0 0 0 0 0 .14-.08.28-.13.42-.11.37-.23.75-.36 1.12-.43 1.31-.91 2.6-1.41 3.88-1 2.52-2.09 5-3.23 7.46-.58 1.25-1.17 2.5-1.76 3.74l5.26.85a28.51 28.51 0 0 0-10.13-17 41 41 0 0 0-5.89-3.65l-.35-.2c.05 0 .3.22.05 0s-.5-.37-.74-.57c0 0-.33-.33-.12-.1s-.06-.09-.08-.12a7.33 7.33 0 0 1-.55-.82c.23.39 0-.12-.11-.27s-.22-.54-.31-.82-.16-.48-.22-.72c0-.07-.16-.57-.07-.23s0-.19 0-.24a16.18 16.18 0 0 1-.36-3.25v-.36c0-.44 0 .45 0 0v-.73c0-.56.12-1.13.22-1.68s.22-1 .34-1.54c0-.12.17-.53 0 0 0-.12.08-.24.11-.35.09-.27.19-.54.29-.8q.28-.73.63-1.44c.12-.26.25-.51.39-.76l.18-.31s.29-.48.12-.21l.34-.5.43-.59c.35-.44.71-.87 1.1-1.28.07-.07.62-.6.41-.41s.36-.31.43-.37c.42-.35.85-.67 1.29-1l.68-.44.3-.18c.63-.39-.3.13.08-.06s1-.51 1.57-.73 1.09-.42 1.64-.59l.33-.09c.71-.21-.33.06.09 0l.79-.17q.92-.16 1.83-.24h2.03l.91.1a18.3 18.3 0 0 1 1.82.36 2.78 2.78 0 0 0 3.16-2.32 2.87 2.87 0 0 0-2.29-3.2Z" fill="#fac41d" data-color="1"/>
            <path d="M323.85 41.72a29.3 29.3 0 0 0-18.54-10 28.58 28.58 0 0 0-19.49 4.92 28.19 28.19 0 0 0-7.76 8 2.9 2.9 0 0 0-.1 3.41 2.84 2.84 0 0 0 3.24 1c1.55-.56 3.11-1.07 4.7-1.52l1.33-.35c.06 0 .51-.13.1 0l.53-.13c.85-.2 1.7-.38 2.55-.55a67.23 67.23 0 0 1 9.8-1.18c.78 0 1.55-.06 2.33-.07h2.28c1.64.06 3.29.17 4.92.34s3.27.42 4.89.72c.62.11 1.23.24 1.84.39.32.07.63.16.94.25.14 0 .52.17-.08 0l.62.2a18.32 18.32 0 0 1 2 .83c.32.16.62.35.93.51-.6-.31.25.17.43.32a8.14 8.14 0 0 1 .78.65s.48.51.19.18.17.21.22.28c.21.27.37.57.56.84s-.18-.44-.05-.08.19.45.28.68l3-3.77c-13.86-3.1-29.24-6.16-42.52.76a30.67 30.67 0 0 0-9 6.94 2.81 2.81 0 0 0 2.44 4.55h3.34c1.25 0 2.51.12 3.77.23a72.57 72.57 0 0 1 7.47 1.06c1.28.25 2.56.54 3.82.86l1.76.47.81.23.4.12c-.38-.11.08 0 .23.08a69.31 69.31 0 0 1 7.08 2.65 71.09 71.09 0 0 1 6.76 3.39c2.33 1.33 4.58 2.74 7.22 3.32 5 1.09 9.64-2.17 11.09-7 1.68-5.53-.78-11-4.4-15.1l-4 3.8c-.35-.37-.06-.06 0 0l.33.37c.21.24.42.49.62.74.41.5.8 1 1.18 1.54a34.9 34.9 0 0 1 2.08 3.28c-.26-.44-.05-.07 0 0s.15.29.22.43.29.58.43.88c.29.62.56 1.25.82 1.9a33.32 33.32 0 0 1 1.21 3.7l.06.23v.13c.07.31.14.63.2 1 .14.68.25 1.36.34 2a31.66 31.66 0 0 1 .28 3.89v1.44c-.09.54 0 .17 0 0-.15.55-.11.09 0 0-.46.27.24 0 .15-.1.16.13-.69.23-.11.12.37-.06 0 0-.07 0-.28.09-.19.2-.07 0s.22 0-.09 0a2.3 2.3 0 0 0-.37 0h.27-.38c-.33 0-.65-.12-1-.2-.49-.11.51.2-.16 0-.25-.1-.5-.19-.75-.3-.68-.29-1.34-.63-2-1l-4.41-2.14-8.82-4.27-17.64-8.56a31.08 31.08 0 0 0-7.51-3 8.86 8.86 0 0 0-6.77 1c-2.61 1.87-2.86 5.43-1.44 8.12a43.22 43.22 0 0 0 4.93 6.94C290.91 80.47 300.25 88 311.23 89c9.33.88 19.82-2.67 25-11a21.85 21.85 0 0 0 1.77-3.34l-4.75.48a47.61 47.61 0 0 1 2.94 5.48 31.78 31.78 0 0 1 1.2 3c.18.49.33 1 .48 1.5 0 0 .22.88.08.3.08.33.15.66.21 1a16.52 16.52 0 0 1 .27 3v.23c0 .25 0 .49-.07.73a13.59 13.59 0 0 1-.29 1.44c.16-.64-.05.14-.08.23s-.18.47-.28.7a4.46 4.46 0 0 1-.64 1.27c.46-.47.07-.12-.05 0l-.35.48c-.27.35-.57.68-.88 1s.47-.38 0 0l-.44.36a10.25 10.25 0 0 1-.91.68l-.48.3c-.19.12-.52.47 0 0a4.89 4.89 0 0 1-1.22.58 20.27 20.27 0 0 1-2.23.77c-.17 0-.73.29-.09 0a3.87 3.87 0 0 1-.59.13c-.4.08-.8.16-1.21.22a33.62 33.62 0 0 1-5.21.35h-.73l-1.26-.06c-.89-.06-1.77-.15-2.66-.25a85.56 85.56 0 0 1-11.45-2l-1.38-.38-.69-.2c.66.2-.1 0-.19-.07-1-.31-1.94-.65-2.9-1a37.5 37.5 0 0 1-5-2.42l-.59-.35c-.67-.39.46.32-.18-.1-.38-.26-.76-.51-1.13-.78a27.92 27.92 0 0 1-2.33-1.86c-.34-.31-.68-.63-1-1l-.49-.5c.45.47-.08-.09-.14-.16a24.82 24.82 0 0 1-1.89-2.44c-.27-.41-.53-.82-.78-1.24-.13-.21-.25-.42-.37-.63-.4-.69.23.49-.12-.23-.43-.87-.84-1.75-1.2-2.65s-.68-1.83-1-2.77c-.14-.47-.28-.94-.4-1.42 0-.07-.22-.86-.07-.25-.08-.32-.15-.64-.22-1a99.51 99.51 0 0 1-1.69-13.67q-.66-8.64-1.31-17.28c-.18-2.3-3.51-3.43-4.89-1.46a25.88 25.88 0 0 0-4.66 16.38l5.49-.62a15.89 15.89 0 0 1-.38-3 3.08 3.08 0 0 1 0-.43v.22c0-.33 0-.5.05-.75A14.29 14.29 0 0 1 278 53c0-.08.31-1.35.32-1.35s-.17.54 0 .11c0-.1.07-.21.1-.31l.3-.8a20.5 20.5 0 0 1 1.39-2.82c.27-.47-.22.32.08-.13.15-.21.29-.43.43-.64.32-.45.66-.89 1-1.31s.67-.79 1-1.17c.16-.16.31-.32.47-.47s.21-.21.32-.32c-.17.17-.25.24 0 0a25.54 25.54 0 0 1 2.53-2c.39-.27.8-.53 1.21-.77l.38-.23s-.41.22-.13.08l.78-.4a24.33 24.33 0 0 1 3.23-1.27l.74-.22.5-.14h.15c-.31.08.22-.05.28-.06l.38-.09 1-.2a33.48 33.48 0 0 1 3.59-.43c.6 0 1.21-.07 1.82-.08h1.47a70.49 70.49 0 0 1 14.78 2.35c5.51 1.39 10.95 3.07 16.53 4.17a54.91 54.91 0 0 0 15.87.91c9.12-.89 17.83-4.19 26.21-7.79s16.72-7.62 25.54-10.08l1.51-.41c.16 0 .86-.21.35-.09l.93-.22c-.44-1.8-.87-3.59-1.31-5.39L345.66 45l-15.86 6.61a2.8 2.8 0 0 0-1.66 3.26 2.75 2.75 0 0 0 3 2.12l55.22-8.93 15.58-2.52c-.43-1.8-.87-3.59-1.3-5.39l-46.47 19.46-13 5.46a2.84 2.84 0 0 0-1.57 3.61 2.8 2.8 0 0 0 3.58 1.6 108 108 0 0 1 13.68-4.65l.9-.23c.12 0 .75-.19.33-.09l1.81-.43c1.2-.27 2.41-.53 3.63-.77q3.51-.68 7.07-1.13a112.17 112.17 0 0 1 14.54-.89h3.1c1.19 0 2.38.11 3.57.19 2.43.18 4.84.43 7.25.76A108 108 0 0 1 415 66.56c.05-1.85.09-3.69.13-5.54l-33.41 3.25c-10.41 1-20.83 2-31.13 3.91a159.75 159.75 0 0 0-17.67 4.2 2.78 2.78 0 0 0-1.66 3.26 2.81 2.81 0 0 0 3 2.12c5.89-.11 11.78-.22 17.67-.16 3 0 5.34.09 8.46.25 2.91.14 5.82.34 8.72.63a120.71 120.71 0 0 1 16.37 2.71c1.27.31 2.54.64 3.8 1l.91.26.3.09c-.29-.08.14 0 .16 0 .69.21 1.38.43 2.06.66q3.72 1.25 7.31 2.82a75.6 75.6 0 0 1 7.91 4.06l.92.56.34.21c.25.15-.22-.15.19.12.61.39 1.21.79 1.8 1.19 1.26.87 2.49 1.79 3.69 2.74L417 90c-9.94-1-19.66-3.33-29.35-5.66s-19.22-4.62-29.05-5.48a82.44 82.44 0 0 0-17.06.13 2.81 2.81 0 0 0-.13 5.54q6.67 1.43 13.23 3.37l.67.2c-.53-.16.35.11.37.12l1.61.5c1.16.37 2.32.76 3.47 1.15 2.14.73 4.25 1.5 6.36 2.32a175.91 175.91 0 0 1 24.39 11.66c4.47 2.58 8.15 4.92 12.47 8l2.19-4.92c-1.69-.39-3.38-.8-5-1.24l-2.31-.63-1.21-.35-.68-.2-.37-.11c-3.22-1-6.42-2.08-9.57-3.28a149.82 149.82 0 0 1-18.63-8.64q-2.28-1.26-4.52-2.6l-2.05-1.24-.59-.38c-.4-.25.29.19-.11-.06l-1.31-.84c-2.71-1.76-5.37-3.61-7.95-5.56a71.19 71.19 0 0 1-6.93-5.94l-.69-.69-.34-.36s-.53-.57-.26-.27l-.17-.19-.41-.46-.79-.93a38.81 38.81 0 0 1-2.6-3.51c-.39-.61-.76-1.23-1.13-1.86-.05-.09-.25-.47 0 0l-.22-.43c-.2-.4-.4-.8-.58-1.2A30.29 30.29 0 0 1 336.2 62c-.79-2.55-1.37-5.18-2.3-7.68a17.26 17.26 0 0 0-4.64-7.14c-.46-.39-.95-.72-1.44-1.06-.29-.21-.56-.44-.85-.64s-.23-.36.06.08c-.08-.12-.43-.67-.08 0-.09-.16 0-.44 0 .13a1.24 1.24 0 0 1-.13.66c.25-.57-.32.28 0 0 .06-.07.37-.38.1-.14s.24-.16.25-.17l.38-.23c-.47.27-.12.07 0 0l.62-.26c6.5-2.51 13.07-4.8 19.54-7.38s12.91-5.32 19.23-8.3a189.23 189.23 0 0 0 18.18-9.52c5.13-3.13 10.11-7 13.34-12.17a24.76 24.76 0 0 0 2.19-4.29 2.86 2.86 0 0 0-.77-3.29 2.88 2.88 0 0 0-3.37-.11c-9.86 5.76-18.85 12.85-27.88 19.8-4.48 3.45-9 6.88-13.62 10.11-2.28 1.58-4.59 3.12-6.94 4.58-1.19.73-2.39 1.45-3.6 2.14l-.9.52-.51.28c.09-.05.47-.25 0 0-.61.34-1.22.66-1.84 1a86 86 0 0 1-8.4 3.84c-1.47.57-3 1.1-4.47 1.58-.74.24-1.49.46-2.23.67l-1.13.31-.45.12a3 3 0 0 1-.33.08 2.85 2.85 0 0 0-2.43 2.72 2.79 2.79 0 0 0 2.3 2.82c14.05 2.57 28.41 2.62 42.62 1.72s28.34-2.72 42.53-3.89c8-.65 16-1.09 24-1-.2-1.86-.41-3.71-.61-5.56q-19.86 4.56-39.66 9.47Q373 56.7 353 62q-11.1 2.94-22.16 6c-2.61.72-2.1 5.18.57 5.37a319.58 319.58 0 0 1 49.13 7.27q6.81 1.56 13.53 3.41a2.78 2.78 0 0 0 3.17-2.32 2.88 2.88 0 0 0-2.3-3.2 321.2 321.2 0 0 0-48.78-9.42q-6.92-.78-13.88-1.26l.57 5.36q19.5-5.39 39.1-10.44c13.2-3.41 25.76-6.54 39-9.72q11.1-2.66 22.2-5.21a2.8 2.8 0 0 0-.61-5.56c-14.15-.09-28.23 1.37-42.29 2.79S362.16 47.9 348 47.7h-2.47c-1 0-1.95-.07-2.93-.12q-2.92-.15-5.85-.41c-4-.36-7.9-.88-11.81-1.6 0 1.85-.08 3.69-.13 5.54 11.29-2.74 21.58-8.12 31.19-14.6s18.39-13.77 27.61-20.61A177.1 177.1 0 0 1 399.75 5l-4.14-3.4a20.74 20.74 0 0 1-.88 2c-.16.33-.33.64-.5 1l-.3.52c.25-.43 0 0-.13.19a26.29 26.29 0 0 1-2.74 3.47l-.75.79c-.13.12-.75.72-.35.35-.6.55-1.21 1.09-1.83 1.6q-1.77 1.44-3.66 2.71a73.8 73.8 0 0 1-3.87 2.43l-1.92 1.09c-.46.26-.11.07 0 0l-.55.31-1.39.75q-4.68 2.51-9.47 4.8c-12.8 6.17-26.07 11.32-39.4 16.18a13.5 13.5 0 0 0-4.44 2.17 5 5 0 0 0-1.53 5.83c.73 1.54 2 2.34 3.3 3.31a8.6 8.6 0 0 1 .8.67c.18.16.64.67.24.21a13 13 0 0 1 1.23 1.64l.21.35s.33.63.14.23.1.22.11.25a2.64 2.64 0 0 1 .18.38 18 18 0 0 1 .76 1.88c.46 1.27.84 2.57 1.2 3.88a46.42 46.42 0 0 0 2.72 8 45.93 45.93 0 0 0 12.06 14.82 123.15 123.15 0 0 0 16.55 11.48 150.32 150.32 0 0 0 39 16.34q2.44.64 4.92 1.21a2.77 2.77 0 0 0 3-1.61 2.85 2.85 0 0 0-.76-3.31 177.75 177.75 0 0 0-49.79-24.45c-5.09-1.56-10.22-2.92-15.42-4 0 1.85-.09 3.7-.13 5.54 2.41-.29 4.83-.45 7.26-.5h3.23c1.22 0 2.45.1 3.68.19a127 127 0 0 1 14.39 2c9.71 1.87 19.25 4.51 28.92 6.58a150.8 150.8 0 0 0 16.5 2.68 2.82 2.82 0 0 0 2.95-1.6 2.9 2.9 0 0 0-.76-3.32c-8.73-6.95-19-11.5-29.67-14.35-11.31-3-23-4-34.67-4.19-6.8-.14-13.6 0-20.39.11.43 1.8.87 3.59 1.3 5.39 1.24-.38 2.48-.73 3.72-1.07l1.8-.47.55-.14s.45-.11.21-.06h.21l.55-.13c2.55-.61 5.12-1.16 7.69-1.64 5.12-1 10.27-1.73 15.43-2.37 10.6-1.31 21.24-2.22 31.87-3.26l18.8-1.82a2.8 2.8 0 0 0 2.43-2.72 2.84 2.84 0 0 0-2.4-2.92 113.16 113.16 0 0 0-74.68 4l2 5.21 46.44-19.46 13-5.45a2.82 2.82 0 0 0 1.66-3.27 2.75 2.75 0 0 0-3-2.12l-55.22 8.93-15.52 2.59c.43 1.8.87 3.59 1.3 5.39l56.09-23.52 15.87-6.66a2.8 2.8 0 0 0 1.65-3.26 2.72 2.72 0 0 0-3-2.12c-9.31 2.15-18 6.06-26.72 9.87-4.27 1.87-8.56 3.71-13 5.25-2.16.76-4.35 1.45-6.56 2l-.57.14a5.56 5.56 0 0 1-.57.14l-1.72.37c-1.11.23-2.23.42-3.35.58a48.89 48.89 0 0 1-6.83.47h-1.41c-.74 0-1.48-.09-2.22-.16-1.43-.14-2.85-.34-4.27-.58-5.7-1-11.25-2.66-16.84-4.12-10-2.6-21-4.44-30.88-.49-8.53 3.4-15.45 11.85-15.31 21.37a14.78 14.78 0 0 0 .38 3.11 2.76 2.76 0 1 0 5.49-.62v-1.41q0-.81.12-1.62a29.15 29.15 0 0 1 .69-3.59c.06-.2.05-.17 0 .07.05-.17.11-.34.16-.52s.18-.51.28-.76c.2-.55.43-1.09.68-1.62s.52-1.05.81-1.56c0-.08.43-.71.17-.31l.61-.9-4.89-1.46q.61 8 1.22 16.05a124.45 124.45 0 0 0 1.45 13.2 39.73 39.73 0 0 0 4.51 13 27.79 27.79 0 0 0 8.63 9.09c7.16 4.76 15.68 6.75 24.08 7.83a48.39 48.39 0 0 0 11.47.31 20.21 20.21 0 0 0 10.53-3.91A14.82 14.82 0 0 0 344 88.51c-.05-4.86-2.21-9.5-4.49-13.67-.54-1-1.12-2-1.71-3-1.07-1.79-4-1.37-4.75.49-.2.48-.41 1-.64 1.42l-.39.73c-.07.12-.14.23-.21.36-.18.34.38-.56 0 0a20.18 20.18 0 0 1-1.94 2.48c-.18.2-.37.4-.56.59l-.22.21c.45-.44.18-.16.07-.07-.43.38-.87.75-1.33 1.11a23.26 23.26 0 0 1-2.65 1.74c.62-.35-.17.07-.3.14l-.65.31c-.53.25-1.08.48-1.63.69s-1 .35-1.48.51l-.7.21-.41.11c-.51.14.32-.07 0 0a22.15 22.15 0 0 1-6.58.7c.64.07-.08 0-.32 0h-.73c-.59-.05-1.18-.12-1.77-.22s-1-.16-1.44-.27l-.81-.19-.48-.13-.36-.1c.27.08-.47-.14-.59-.19l-.94-.32c-.61-.23-1.22-.48-1.83-.74a36.28 36.28 0 0 1-3.51-1.8l-.85-.51-.33-.21c-.55-.36-1.1-.74-1.63-1.13-1.08-.79-2.12-1.62-3.12-2.5s-1.93-1.75-2.84-2.68l-.71-.72-.35-.37s.27.29.06.06c-.48-.54-1-1.07-1.43-1.62a70 70 0 0 1-4.75-6.22c-.18-.28-.36-.56-.53-.85.27.44-.16-.35-.21-.48a3.68 3.68 0 0 1-.15-.47c0 .1 0 .39.05.12v-.22c0 .36.09-.27.08-.27.19.06-.42.6-.06.26 0 0 .09-.28.14-.28l-.11.18c-.14.22-.15.24 0 .06a1.77 1.77 0 0 1 .14-.16c.16-.27-.48.32-.2.2a1 1 0 0 0 .24-.17c.2-.21-.3.23-.3.16a2.54 2.54 0 0 1 .41-.18l.23-.07c.3-.14-.58.09-.24.06s.44-.07.66-.08.49 0 .61 0c-.21.13-.58 0-.21 0h.45a10.76 10.76 0 0 1 1.38.24 3 3 0 0 1 .73.19s-.69-.24-.18 0l.35.12c1.25.46 2.43 1.11 3.63 1.69l4.41 2.14 17.22 8.36 8.69 4.21c2.34 1.14 4.78 2.59 7.44 2.77a6.46 6.46 0 0 0 4.18-1 5.87 5.87 0 0 0 2.38-4.34 29.08 29.08 0 0 0-.53-8.22 36.29 36.29 0 0 0-6.45-14.79 38.16 38.16 0 0 0-2.75-3.21 2.71 2.71 0 0 0-3.63.14 2.8 2.8 0 0 0-.36 3.66 22.09 22.09 0 0 1 2 2.54c.28.41.53.83.78 1.26-.23-.4 0 .1.11.25s.24.52.35.78a13.29 13.29 0 0 1 .49 1.38l.09.35s-.07-.42 0-.11.11.64.15 1 0 .49.05.74V62v-.23a12.18 12.18 0 0 1-.19 1.35c0 .11-.05.21-.07.31-.06.32 0-.2.07-.21a3 3 0 0 0-.21.6A10.71 10.71 0 0 1 325 65c.23-.42.08-.15-.08.07s-.26.33-.39.48-.41.41-.05.1c-.18.15-.36.31-.55.45s-.34.21-.49.34.15-.09.18-.1l-.37.17c-.1 0-.46.24-.57.2s.53-.09.21 0-.34.07-.51.09h-1.13c-.26 0-.52-.12-.79-.16s0 0 .06 0l-.52-.19a51.52 51.52 0 0 1-6.31-3.35 70.35 70.35 0 0 0-6.43-3.1 76 76 0 0 0-14.21-4.37 75 75 0 0 0-16.45-1.41q1.23 2.28 2.44 4.56c.47-.54 1-1.05 1.47-1.55-.4.39 0 0 .08-.07l.44-.39c.3-.26.6-.51.91-.75.55-.44 1.12-.85 1.71-1.24.32-.22.65-.43 1-.63l.41-.25c.05 0 .74-.42.19-.12a31.92 31.92 0 0 1 4.08-1.86c.67-.25 1.34-.48 2-.69.34-.11.69-.21 1-.3l.58-.16c.57-.15-.41.09.22 0a46 46 0 0 1 9.21-1.07h2.2q1.39.06 2.79.18c1.86.16 3.72.4 5.56.68 4.19.66 8.34 1.58 12.48 2.51 2.11.47 3.7-1.89 3-3.77-2.34-6.39-9.71-8.12-15.65-9a69.59 69.59 0 0 0-21.51.3 71.57 71.57 0 0 0-12.09 3.2c1.05 1.45 2.09 2.91 3.14 4.37a25.53 25.53 0 0 1 2.74-3.56c.23-.26.47-.51.71-.75l.33-.32c-.46.45.09-.08.16-.14.54-.49 1.1-1 1.68-1.4s1.17-.87 1.78-1.26c.29-.19.59-.37.88-.54l.5-.29c-.42.24 0 0 .19-.09a26.67 26.67 0 0 1 4-1.68l1-.3.55-.14c-.1 0-.54.12 0 0 .75-.16 1.5-.3 2.26-.4s1.39-.15 2.09-.18h1.94a25.49 25.49 0 0 1 4.68.74c.16 0 1.17.33.57.15.35.1.7.22 1 .34.77.27 1.52.58 2.26.92s1.53.75 2.27 1.18l.52.31c.17.11.14.09-.09 0l.4.26c.34.23.67.47 1 .71a22.5 22.5 0 0 1 2.06 1.71c.3.27.6.56.88.85 0 0 .54.56.27.27l.41.47a2.82 2.82 0 0 0 3.86.62 2.86 2.86 0 0 0 .61-3.91Z" fill="#fac41d" data-color="1"/>
            <path d="M271.09 56.32a32.21 32.21 0 0 0-18 11.31c-2.51 3.19-4.36 6.84-6.42 10.33l-.43.72c-.29.48-.13.2-.06.1-.27.43-.55.87-.84 1.29-.52.78-1.07 1.55-1.65 2.29a42.65 42.65 0 0 1-3.74 4.2c-.62.62.38-.34-.26.25l-.4.37c-.36.32-.73.65-1.11 1a12.47 12.47 0 0 0-2.18 2 4.67 4.67 0 0 0 .66 6.36 7.72 7.72 0 0 0 4.67 1.69A33.81 33.81 0 0 0 247 98a36 36 0 0 0 19.26-8.93A43 43 0 0 0 279 66.88l-5.3.57c.23.75 0-.28.05.18 0 .17.05.33.07.5s0 .43 0 .64c0-.13 0-.51 0 0-.05.34-.09.68-.16 1 0 0-.21.8-.1.4s-.11.34-.14.4a29 29 0 0 1-2.13 4.43c-.67 1.19-1.35 2.37-2.05 3.54-.09.14-.63 1-.28.46-.17.26-.33.52-.49.78-.39.61-.79 1.22-1.2 1.82a41.07 41.07 0 0 1-5.22 6.32c.43-.41-.13.11-.28.25l-.75.64c-.53.43-1.08.85-1.64 1.24l-.72.47-.46.28c-.08 0-.47.28-.16.1s-.24.12-.25.13l-.39.19c-.32.16-.65.31-1 .45-.68.28-1.37.5-2.07.72-.43.13-.15 0 0 0-.27.07-.54.12-.81.17-.46.09-.91.16-1.37.22a51.15 51.15 0 0 1-5.81.3 2.79 2.79 0 0 0-2.42 2.34 2.92 2.92 0 0 0 1.59 3c6 3.25 13 3.43 19.57 2.3a77.88 77.88 0 0 0 9.85-2.45 34.75 34.75 0 0 0 7.74-3.36 14.64 14.64 0 0 0 6.25-7.09 2.85 2.85 0 0 0-1.37-3.7 2.78 2.78 0 0 0-3.66 1.38 15 15 0 0 1-.74 1.57c.31-.59-.09.11-.21.27a10.57 10.57 0 0 1-.67.83l-.51.54c-.28.28.35-.3 0 0l-.32.28A17.88 17.88 0 0 1 280 90l-.75.46-.39.22c.5-.27.14-.07 0 0-.61.3-1.22.6-1.84.87-1.1.47-2.24.88-3.38 1.25-1.39.45-2.8.87-4.22 1.25l-1.07.28-.65.15c-.77.18-1.54.34-2.31.49-1.49.28-3 .51-4.51.65-.72.06-1.45.11-2.17.13h-1.82A25.89 25.89 0 0 1 252 95l-.51-.13c-.51-.14.12 0-.18-.06s-.75-.25-1.13-.4a22.28 22.28 0 0 1-2.43-1.13l-.84 5.32a32.18 32.18 0 0 0 10.68-1.46 23.28 23.28 0 0 0 7.56-4.65c4.63-4.19 7.92-9.53 11-14.93 2.12-3.76 4.07-7.79 2.7-12.18a2.78 2.78 0 0 0-2.85-1.72 2.92 2.92 0 0 0-2.46 2.34c-.09.42-.2.84-.31 1.26 0 .17-.09.33-.13.5 0 0-.23.79-.11.39s-.13.42-.12.39l-.16.49c-.17.5-.34 1-.52 1.48a39.4 39.4 0 0 1-2 4.51c-.35.69-.73 1.37-1.13 2 0 0-.42.69-.21.36s-.25.38-.23.35c-.23.36-.47.72-.72 1.07a35.85 35.85 0 0 1-3.23 4l-.71.75c-.19.18-.37.36-.55.55s-.39.35-.05 0c-.62.57-1.25 1.13-1.9 1.65a33.52 33.52 0 0 1-3.82 2.67l-.63.37c-.09 0-.46.26 0 0l-1.08.57c-.74.36-1.48.7-2.24 1s-1.36.53-2.06.76l-1.16.37-.47.13c-.06 0-.84.22-.25.07a31 31 0 0 1-4.69.78c-.77.06-1.54.1-2.31.11h-.48a7.61 7.61 0 0 1-1.17-.12 2.49 2.49 0 0 1-.38-.08s.59.24.07 0a4 4 0 0 0-.43-.19c-.39-.16.19 0 .15.1s-.24-.23-.27-.21l.25.28c-.17-.24-.14-.16.08.23-.08-.2-.07-.38 0 .24 0-.23 0-.21 0 0a.83.83 0 0 1-.09.49l-.16.23a3.17 3.17 0 0 1 .21-.27c.2-.34-.45.35.07-.08.26-.21.52-.42.77-.64.78-.64 1.53-1.32 2.26-2a42.58 42.58 0 0 0 6.72-8.17c1-1.66 2-3.36 3-5.07.44-.77.88-1.54 1.33-2.3.09-.16.19-.32.29-.48.46-.77-.15.23.13-.22s.55-.86.83-1.28a31.11 31.11 0 0 1 3.46-4.31l.42-.42c.42-.42-.29.25.19-.18.3-.27.59-.54.9-.8q1-.85 2.1-1.62c.72-.51 1.47-1 2.23-1.43.45-.26.1-.06 0 0l.74-.39c.39-.2.79-.39 1.19-.57.81-.36 1.63-.69 2.46-1l1.14-.37.58-.16.35-.1a2.86 2.86 0 0 0 2.44-3.08c-.21-1.35-1.55-2.83-3.05-2.47Z" fill="#fac41d" data-color="1"/>
            <path d="M160.68 77.25a40.8 40.8 0 0 1 4.77-3.73c.84-.57 1.7-1.08 2.57-1.59h-.09l.32-.17.65-.34c.46-.24.93-.46 1.41-.68a40.1 40.1 0 0 1 5.77-2.16l.7-.2.47-.12.47-.11.83-.18c1-.2 2-.37 3-.49s2.24-.24 3.36-.29h2.04l1 .05c-.39-1.68-.79-3.35-1.19-5a134.38 134.38 0 0 0-24.93 26.15c-2.09 2.89-4 5.88-5.91 8.92a2.79 2.79 0 0 0 1.07 3.51 2.74 2.74 0 0 0 3.58-.58l12-14.59q3-3.63 5.95-7.24a48.22 48.22 0 0 0 5.16-6.75 10.47 10.47 0 0 0 1.5-6.38 5.81 5.81 0 0 0-6.34-4.93 14.07 14.07 0 0 0-4.24 1.2c-1.23.49-2.45 1-3.65 1.57a71.93 71.93 0 0 0-7.38 4 69.67 69.67 0 0 0-14 11.49 2.84 2.84 0 0 0 .39 3.94 2.81 2.81 0 0 0 3.89-.39l1-1c.29-.28-.33.3 0 0l.25-.23.66-.6c.75-.66 1.53-1.3 2.32-1.91a47.68 47.68 0 0 1 5-3.4l.67-.38.29-.16s-.42.22-.14.08l1.46-.77c.89-.44 1.79-.86 2.7-1.25a56 56 0 0 1 5.72-2.11c1-.31 2-.59 3-.85.53-.14-.35.08.18 0l.76-.18 1.54-.34q3.06-.63 6.15-1a91.07 91.07 0 0 1 12.59-.67h1.22l1.83.09c1.14.07 2.29.15 3.43.25 2.37.21 4.74.51 7.1.86-.4-1.67-.79-3.35-1.19-5q-10.22 9.48-20.88 18.48c-3.1 2.61-6.2 5.23-9.46 7.63q-2.31 1.69-4.72 3.2l-1.06.63-.64.37c-.7.4.48-.25-.23.12-.87.45-1.73.89-2.61 1.29s-1.92.81-2.9 1.14c-.45.16-.9.3-1.36.43l-.68.19-.46.11a24 24 0 0 1-3 .47c-.47 0-.95.08-1.42.09h-1.2c.33 0 .34 0 0 0a2.79 2.79 0 0 0-.87 5.52 81.07 81.07 0 0 0 42.08-5.63 83.29 83.29 0 0 0 18.32-10.56 80.19 80.19 0 0 0 8.26-7.26q1.91-1.91 3.68-4a12.59 12.59 0 0 0 3-5.13 5.39 5.39 0 0 0-3.24-6.33 21.89 21.89 0 0 0-7-1 38.84 38.84 0 0 0-14.67 2.35 2.81 2.81 0 0 0 1.31 5.39c7.33-.43 14.45-2.47 21.49-4.45 1.68-.47 3.36-.94 5-1.39l1.32-.34.59-.16c.07 0 .86-.21.26-.06.87-.22 1.75-.43 2.63-.62a59.31 59.31 0 0 1 10.18-1.45h2.32c.94 0 1.87.09 2.81.2s1.87.25 2.8.44c.51.1 1 .22 1.51.35l.58.16.47.13c-.32-.1-.33-.1 0 0 0-1.72.09-3.43.14-5.15C256.21 62 252 67.77 248.23 73.9c-.88 1.44-1.73 2.9-2.59 4.36q-.63 1.09-1.29 2.19l-.68 1.12-.15.26s.28-.45.11-.19l-.37.6a44.71 44.71 0 0 1-6 7.86c-.13.14-.27.27-.41.41s.17-.16.17-.16a1.29 1.29 0 0 1-.21.19c-.3.28-.61.56-.93.82a24 24 0 0 1-2 1.49c-.32.21-.65.42-1 .61s-.42.3-.05 0a5.41 5.41 0 0 1-.63.33 22 22 0 0 1-2.9 1.18l-.71.23-.35.1-.26.07-.49.11-.86.17q-1.53.28-3.09.42c-1.05.09-2.1.14-3.15.17h-2.84c-4.67-.14-9.34-.47-14-.41A117.64 117.64 0 0 0 189 97a140.67 140.67 0 0 0-14.24 2.85 72.65 72.65 0 0 1-7.16 1.46 31.2 31.2 0 0 1-3.49.31h-.83.05-.56c-.59 0-1.19-.1-1.78-.19s-1.08-.18-1.62-.31L159 101h-.18l-.18-.06-.52-.19a2.81 2.81 0 0 0-3.67 1.38 2.87 2.87 0 0 0 1.38 3.71c4.83 1.81 9.95 1.62 14.95.65 4.84-.94 9.58-2.33 14.44-3.19a119.79 119.79 0 0 1 14.62-1.65q3.75-.18 7.5-.13h1.3l1.69.07 3.32.15a60.56 60.56 0 0 0 13.39-.38 25.69 25.69 0 0 0 11.42-4.87c5.65-4.36 9.24-10.72 12.8-16.81.43-.73.85-1.45 1.29-2.18.2-.35.41-.7.62-1s.24-.41.37-.6c-.3.47 0 .06.1-.16.9-1.43 1.83-2.84 2.84-4.2a35.89 35.89 0 0 1 3.2-3.76l.41-.41c.21-.22-.17.16-.17.16a2.33 2.33 0 0 1 .28-.26c.3-.28.61-.55.93-.82a22.08 22.08 0 0 1 1.87-1.54c.34-.23.7-.45 1.05-.67.09 0 .63-.34.28-.16l.38-.19a2.86 2.86 0 0 0 1.74-2.54 2.75 2.75 0 0 0-1.6-2.61c-7.08-2.25-14.42-2.08-21.65-.65-3.7.72-7.34 1.7-11 2.71-1.76.49-3.52 1-5.29 1.47-.88.25-1.76.49-2.65.72l-1.2.31-.28.07-.72.18a69.26 69.26 0 0 1-12.12 2c.43 1.8.87 3.59 1.31 5.39.9-.34 1.82-.64 2.75-.9l.66-.18.24-.06 1.48-.31a35.21 35.21 0 0 1 5.89-.59h2.32c1 .07 2 .19 3 .35.41.06.81.15 1.21.23h.12c-.33-.11-.35-.1-.05 0l.21.1c-.27-.2-.28-.2 0 0 0 0-.36-.45 0 0l-.14-.27c.1.29.1.25 0-.13a2.88 2.88 0 0 1 0 .39v-.14c0 .32-.06.27 0 0 .07-.43-.07.2-.1.26s-.2.41-.29.61-.29.45 0 0c-.12.19-.25.38-.39.56-.5.68-1.07 1.31-1.63 1.95q-1.63 1.84-3.37 3.58l-.84.82c-.08.08-.38.36 0 0l-.52.48c-.63.58-1.26 1.15-1.91 1.72q-1.86 1.6-3.81 3.1A78.27 78.27 0 0 1 207.9 88l-1 .59s-.66.36-.3.17-.31.17-.31.16c-.75.41-1.51.81-2.28 1.19q-2.19 1.1-4.45 2.06a79.17 79.17 0 0 1-9.23 3.3c-.74.22-1.49.43-2.24.62-.09 0-.85.22-.21.06l-.46.11-1.36.31c-1.59.36-3.2.66-4.81.92a78 78 0 0 1-10.89 1h-3.69l-1.39-.07q-2.79-.18-5.57-.56l-.87 5.52a30 30 0 0 0 12.15-2 50.58 50.58 0 0 0 10.45-5.73c3.29-2.28 6.38-4.83 9.44-7.4q5.52-4.61 10.93-9.36 6-5.25 11.8-10.65a2.91 2.91 0 0 0 1-2.93 2.8 2.8 0 0 0-2.23-2.1 104.57 104.57 0 0 0-26.27-.84 65.25 65.25 0 0 0-24.56 7.2 50.92 50.92 0 0 0-12.08 9.12l4.28 3.55c.41-.44.83-.87 1.25-1.29.18-.19.36-.37.55-.55s.76-.73.41-.4c.9-.85 1.83-1.68 2.78-2.48a66.05 66.05 0 0 1 5.84-4.4q1.48-1 3-1.92c.51-.31 1-.61 1.55-.9-.38.22.16-.09.28-.15l.91-.48a65 65 0 0 1 6.65-3l.85-.32.38-.13c.06 0 .6-.19.31-.11s.16 0 .17 0l.53-.08h.15c-.31 0 .44.06 0 0s.12.07.22.09c.25.06-.22-.12-.24-.17s.58.53.23.14-.1-.1 0 0c.24.39-.11-.25-.11-.25s.15.53.21.56-.09-.59-.09-.33v.55-.33c0 .29-.12.86-.21 1.3s.21-.52 0 .08c-.08.21-.15.42-.24.63-.18.41-.38.82-.6 1.21a1.68 1.68 0 0 1-.2.34s.32-.46.13-.21-.25.37-.38.54c-.35.49-.74 1-1.12 1.41l-2.73 3.32-5.57 6.77-12.49 15.19 4.65 2.93c-.23.38 0 0 .05-.08l.28-.45.58-.92c.41-.64.83-1.28 1.25-1.92.79-1.2 1.61-2.38 2.44-3.55q2.55-3.57 5.31-7t5.76-6.59q1.51-1.62 3.09-3.19c.47-.48.95-1 1.43-1.42l.39-.37.23-.22.23-.22.49-.46q3.65-3.39 7.53-6.5a2.86 2.86 0 0 0 1-2.93 2.72 2.72 0 0 0-2.23-2.09 43.61 43.61 0 0 0-25.54 6.59 39.88 39.88 0 0 0-5.78 4.4 2.89 2.89 0 0 0-.62 3.9c.85 1.08 2.72 1.67 3.86.62Z" fill="#fac41d" data-color="1"/>
        </g>
    </g>
</svg>
