<?xml version="1.0" encoding="UTF-8"?>
<svg data-bbox="0.008 -0.003 287.019 157.763" viewBox="0 0 287.03 157.75" xmlns="http://www.w3.org/2000/svg" data-type="color">
    <g>
        <path d="M281.4 80.93a107.6 107.6 0 0 0-16.57-29.1A103.43 103.43 0 0 0 253.69 40c-2-1.83-4-3.58-6.13-5.23s-4.14-3.08-6.31-4.48a1.76 1.76 0 0 0-2.39.29 19.25 19.25 0 0 0-2.53-2.4c-.86-.68-1.79-1.29-2.7-1.91-5.19-5.25-12.25-8.77-19.06-11.49-24.4-9.78-50.9-12-76.82-13.92C124-.16 110.12-.83 96.5 2.16c-12.64 2.78-24.66 7.94-36.56 13-10.38 4.38-20.82 9.06-29.8 16a59.34 59.34 0 0 0-11.76 12 60.62 60.62 0 0 0-8 16c-4.17 12.18-5.84 25.29-7.51 38q-1.38 10.45-2.25 21c-.47 5.67-1.37 12 .64 17.44a13.79 13.79 0 0 0 5 6.64 35.59 35.59 0 0 0 8.2 3.76 153.77 153.77 0 0 0 18.27 5.55A226.65 226.65 0 0 0 71.18 157c12.95.81 25.92.83 38.89.7s26-.3 39-.7c26.06-.8 52.23-2.67 77.75-8.31a211.53 211.53 0 0 0 36.47-11.24c10.29-4.33 20.19-10.85 22.84-22.54 2.56-11.21-.78-23.5-4.73-33.98ZM121.78 6.4a247.28 247.28 0 0 1 39.41 1.91A242.5 242.5 0 0 1 197 15.16a132.35 132.35 0 0 1 33.37 14c.25.14.47.3.71.45a23.87 23.87 0 0 1 3.61 4.93c2.33 4.37 3.27 9.85 1.42 14.58-2.11 5.4-7.65 8.57-12.63 10.81-2.44 1.11-5 2.07-7.5 3a2.56 2.56 0 0 0-1.38-1c-10.92-3-22-5.62-33.11-7.62a291.58 291.58 0 0 0-34.09-4.16 235.69 235.69 0 0 0-33.19.29A207.85 207.85 0 0 0 82 55.58a180.21 180.21 0 0 0-30.8 10.53c-.82.36-1.62.74-2.43 1.12-1.07-.33-2.15-.63-3.21-1-4.82-1.56-10.29-3-14.32-6.24a12.26 12.26 0 0 1-1.5-1.47 12.17 12.17 0 0 1-1.9-8.08 15.15 15.15 0 0 1 1.37-3.39c2.74-5 7.29-8.88 11.54-12.47A103.81 103.81 0 0 1 54.27 25C74.64 12.72 98.26 7.31 121.78 6.4Zm-5.49 54.37-6.55.91c2.28-.4 4.41-.73 6.57-1-.01.02-.01.06-.02.09Zm105 4.85c-.06-.08-.08-.18-.14-.25.95-.39 1.92-.74 2.87-1.15-.51.28-1 .58-1.52.83s-.77.37-1.17.57Zm37.85 69c-23.14 9-47.7 13.62-72.32 16-24.91 2.38-50 2.62-75 2.9-24.73.28-49.76.17-74.06-5.05a163.63 163.63 0 0 1-17.67-4.83c-2.85-1-5.71-2-8.47-3.17-2.46-1.08-4.67-2.49-5.95-4.95-2.42-4.63-1.47-10.68-1.08-15.66q.8-10.11 2.06-20.16c1.55-12.32 3.2-25 6.86-36.85a61 61 0 0 1 7.09-15.62 52.56 52.56 0 0 1 10.69-11.69 77.93 77.93 0 0 1 10.92-7.32c-1.35 1-2.72 2-4 3.1l-1 .85a2.47 2.47 0 0 0-1.21.53C31.88 36.15 27.56 40 25.22 45a17.08 17.08 0 0 0-1.43 4.91 12.64 12.64 0 0 0 2 10.35c.13.17.31.3.45.47s.05.1.08.14c6.51 9.89 18.8 13.36 29.68 15.54 25.28 5.07 51.07 8.6 76.87 9 25.51.44 51.28-2.34 75.61-10.36 10.95-3.61 23.07-7.93 30.23-17.61a24.76 24.76 0 0 0 4.84-15.2 19.13 19.13 0 0 0-1.21-6.1 95.65 95.65 0 0 1 8.89 7.19 92 92 0 0 1 27.6 50.78q.68 3.66 1 7.38c.21 2.37.89 5.2-1.5 6.58a84.6 84.6 0 0 1-8 3.76c-2.67 1.17-5.37 2.29-8.08 3.36-5.52 2.17-11.13 4.14-16.78 5.94-22.72 7.22-46.2 11.63-69.7 15.36-12.57 2-25.23 3.8-38 3.72s-25.47-1.79-38.14-3.24l-38.25-4.37-19.12-2.19c-5.37-.61-10.9-1-16-2.73a18.48 18.48 0 0 1-6.3-3.56c-2-1.78-5 1.18-2.94 3 4.13 3.66 9.33 5.33 14.67 6.21 6.18 1 12.45 1.53 18.66 2.24l39.35 4.5c13.24 1.51 26.5 3.36 39.82 4.11 13.16.74 26.19-.44 39.21-2.35 24.54-3.59 49.14-8 73-15.09a256.88 256.88 0 0 0 34.79-13.06c2.19-1 4.72-2 6.28-4a27.33 27.33 0 0 1-.89 5.39c-3.1 10.64-13.31 15.86-22.73 19.53Z" fill="#fac41d" data-color="1"/>
    </g>
</svg>
