<?xml version="1.0" encoding="UTF-8"?>
<svg data-bbox="57.407 53.848 382.693 353.505" xmlns="http://www.w3.org/2000/svg" viewBox="0 0 479 457" height="457" width="479" data-type="color">
    <g>
        <path fill="#484819" d="M244.867 395.012c-.091.04-.091.04 0 0z" data-color="1"/>
        <path fill="#484819" d="M242.59 392.082c-2.034 1.335-3.977 2.63-5.919 3.924.837 2.145 1.319 4.228 3.916 5.158.667-2.699.938-5.551 4.189-6.111-.251-1.311-.542-2.713-2.186-2.971z" data-color="1"/>
        <path fill="#484819" d="M136.992 388.844c3.224 1.856 6.876 3.196 10.406 4.261 1.542.522 3.442.121 5.118-.291 1.86-.493 3.619-1.707 5.479-2.2 6.025-1.456 11.393-4.153 16.144-8 10.674-8.755 21.307-17.601 32.032-26.488 1.862-1.478 3.592-3.007 5.505-4.616 1.865 1.253 3.466 2.405 5.25 3.476 3.873 2.335 7.939 4.366 10.569 8.343.374.6 1.784 1.07 2.201.777 2.492-1.537 4.58-.272 6.873.465 2.516.747 5.032 1.495 7.599 2.111.883.266 1.857.492 3.278.739-.826 1.349-1.418 2.484-2.09 3.437-5.373 8.383-12.417 15.208-19.633 21.891-.936.85-1.913 1.609-2.809 2.551-2.066 2.005-1.845 3.001.649 4.195 1.228.552 2.546 1.063 3.876 1.351 4.068 1.046 7.841 2.66 11.257 5.197 2.675 2.098 4.036 1.716 5.486-1.438 1.297-2.758 2.238-5.578 3.667-8.286a122.671 122.671 0 0 0 9.941-27.998c.35-1.684 1.286-2.535 2.709-3.272 3.528-1.666 6.033-4.412 7.728-8.002.306-.791.877-1.48 1.366-2.352 6.682 3.5 11.96 8.276 16.342 13.993 2.691 3.622 5.149 7.456 7.697 11.25.921 1.343 1.841 2.685 3.036 3.907.983.987 2.019.858 2.794-.358.387-.609.602-1.359.817-2.11 2.106-5.63 4.213-11.26 6.542-16.879 1.227-3.164 1.116-3.662-2.089-4.98-3.732-1.523-7.373-3.086-11.004-4.872a1645.857 1645.857 0 0 1-17.532-8.767c-.568-.296-1.125-.815-1.814-1.386.419-1.278.747-2.516 1.207-3.703 1.932-4.787 1.436-9.378-.949-13.791-.95-1.657-1.809-3.355-2.993-4.8-1.609-1.913-1.96-3.944-1.801-6.31.338-5.177.27-10.284-.874-15.354-.331-1.493.11-3.218.54-4.72 1.668-4.89 3.467-9.728 5.307-14.475.153-.396.53-.781.917-1.389 3.512.527 6.984.962 10.455 1.398 11.886 1.422 23.845 2.265 35.556 4.529 12.198 2.377 24.431 3.099 36.788 3.11 11.504.061 22.76-2.175 33.975-4.501 2.215-.431 4.4-1.177 6.453-1.974 9.482-3.529 17.508-9.367 24.948-16.039 5.943-5.355 11.33-11.231 13.898-19.032 3.981-12.032 3.229-23.395-5.884-33.146-6.896-7.45-13.038-15.67-21.337-21.845-1.47-1.1-2.614-2.453-1.694-4.827-2.279 1.771-3.971.66-5.847-.37-3.356-1.908-6.661-3.947-9.293-6.939-.85-.936-1.935-1.66-3.03-2.16-4.656-1.88-9.26-3.893-14.018-5.509-6.919-2.303-13.816-5.052-20.92-6.288-8.749-1.495-17.68-2.909-26.627-2.13-.63.059-1.158-.146-2.315-.291 1.321-4.19 2.671-8.065 3.666-12.002.995-3.937 1.818-8.016 2.641-12.096 2.669.352 4.209 1.859 5.891 3.193 1.337 1.05 3.151 2.435 4.502 2.276 3.789-.579 7.268.618 10.893.658 2.193.016 4.427.123 6.843.149-.139 2.904-1.616 4.758-3.266 6.47-2.26 2.309-2.05 3.528 1.137 4.308 3.186.78 6.383 1.336 9.58 1.893 2.486.433 3.533.08 4.453-2.293.664-1.715 1.024-3.623 1.202-5.45.147-2.142.163-4.335-.095-6.407-.359-2.793.51-5.035 2.272-7.233 1.997-2.412 3.385-5.21 5.037-7.907.336-.476.764-.993 1.243-1.642 4.33 2.134 7.083 5.4 8.809 9.557.565 1.281.611 3.119 2.702 3.398.285-.344.702-.637.855-1.033 1.168-3.794 2.741-7.659 3.421-11.566.99-5.684-1.395-10.096-6.169-13.236a18.791 18.791 0 0 0-4.777-2.155c-2.12-.594-3.062-1.49-3.442-3.836a23.747 23.747 0 0 0-2.205-7.225c-2.312-4.992-5.521-9.041-11.336-10.081-1.684-.35-3.347-1.146-5.021-1.72-2.425-.787-3.913-2.426-5.106-4.632-3.243-6.111-6.853-12.06-10.33-17.958-.455-.783-1.276-1.405-2.167-2.432-1.662 2.92-2.908 5.546-4.67 7.745-1.671 2.158-3.818 3.98-5.844 6.077 2.92 1.662 5.598 2.776 7.705 4.579 2.239 1.853 4.416 4.062 5.343 7.151-3.512 3.19-7.182 1.312-11.03 1.261-.119-1.259-.208-2.204-.388-3.108-1.369-8.796-3.652-17.189-8.252-24.887-2.446-4.057-5.851-6.818-10.539-8.028-2.607-.707-5.226-1.191-7.804-1.584l-6.495 2.867c4.02.193 8.019.833 11.956 1.828 5.134 1.232 8.62 4.175 11.034 8.903 3.486 6.66 5.153 13.903 6.636 21.227.663 2.987.052 3.585-3.075 3.435-12.233-.722-23.774 1.857-35.005 6.377-3.243 1.322-6.404 2.826-9.525 4.423-2.939 1.515-3.869 4.112-3.218 7.322 1.215 5.476 4.423 9.525 8.74 12.867 2.158 1.671 4.642 3.088 7.045 4.323 7.92 3.828 15.636 8.184 24.629 9.242 3.248.425 3.633.802 3.878 4.082.138 1.798-.486 3.603-.664 5.43l.041.092-.092.04-.032.67c-.134.934-.228 1.959-.333 3.208-1.44-.786-1.906-1.345-1.05-2.379.194-.304.519-.557.753-.769l.703-.638-.041-.092-.04-.091-1.938-4.391c-.713.861-1.273 1.326-1.386 1.813-.554 2.212-.632 4.761-1.581 6.819-1.286 2.536-.844 4.527.714 6.572.253.325.455.783.148 1.574-.455-.783-.91-1.566-1.547-2.268-.638-.703-1.287-1.182-2.493-2.18-.588 3.867 2.229 5.794 2.921 9.095-1.046.353-2.144.837-3.22.875-7.941.335-15.861.223-23.812.781-4.672.313-8.404-1.209-11.86-3.838-2.543-2.047-4.761-4.348-7.253-6.527-.597-.611-1.297-.958-2.158-1.671.022 3.27.022 3.27 11.067 11.949-2.124.391-3.891.843-4.992-1.404-.041-.091-.213-.234-.305-.193-5.863-1.894-9.812-6.382-14.137-10.485l-.131-.051c-.132-.051-.356-.062-.579-.073.059.63.078 1.168.321 1.717.524 1.189 1.811 2.371 6.036 5.752 1.378 1.141 3.152 2.435 5.31 4.106-1.604-.167-2.812-.18-4.01-.416-10.575-1.673-21.317-1.741-31.979-1.626-6.539.044-13.097-.451-19.574-.762-.538.019-1.036.13-1.574.148.062-.355.124-.71.145-1.157 1.028-.89 1.924-1.832 3.003-2.855-.663-2.987 1.11-5.409 2.568-7.802 8.413-13.878 17.13-27.563 25.542-41.441 6.516-10.746 12.515-21.92 19.203-32.523 1.071-1.784 2.314-3.426 3.648-5.108l-5.031 2.221c-2.172 3.254-4.17 6.65-6.129 10.138-4.447 7.756-8.894 15.511-13.605 23.165-9.472 15.44-19.208 30.777-28.813 46.165-1.651 2.696-3.08 5.404-4.845 8.587-1.208-.013-2.954-.007-4.782-.185-6.77-.728-13.489-1.588-20.311-2.184-8.385-.672-16.792-.897-25.268-1.528-6.203-.432-12.395-1.088-18.42.369-5.526 1.346-9.149.321-12.914-4.247-4.139-5.169-8.879-9.963-13.812-14.454l-3.019 1.333a287.704 287.704 0 0 1 6.513 6.088c3.596 3.441 6.855 7.359 10.074 11.185a646.368 646.368 0 0 1 12.216 15.049c.638.702 1.042 1.617 1.75 2.725-1.311.251-2.266.563-3.211.652-2.203.207-4.579.272-6.783.48-5.891.523-6.033.695-10.175-3.489-3.97-4.041-7.472-8.507-11.492-12.417a581.568 581.568 0 0 0-14.445-13.409l-2.195.969c8.773 7.496 16.611 15.842 24.163 24.532a224.142 224.142 0 0 1 4.494 5.231c-4.216 1.096-7.62 2.051-10.973 2.875-5.293 1.134-10.667 2.085-15.919 3.31-6.472 1.435-12.989 1.032-19.539 1.3-1.838.046-3.054-.729-3.1-2.567-.016-1.523-.552-2.489-1.575-3.568-.931-1.119-1.303-2.704-1.908-4.076-1.979-4.483-3.906-9.098-5.885-13.581l-1.646.727a140.585 140.585 0 0 1 6.145 14.668c.867 2.459.862 4.429-1.164 6.525-3.767 3.849-5.039 8.892-5.784 14.139-.486 3.603.338 6.956 2.29 10.139 2.538 4.018 5.555 7.386 9.731 9.915 6.57 3.987 13.138 7.974 19.565 12.133 3.345 2.131 6.661 3.947 10.455 5.114 3.267.963 6.278 2.585 9.494 3.68 8.37 2.865 16.607 5.678 24.987 8.319 4.454 1.423 9.152 2.41 13.972 3.671-.632 1.045-.797 1.663-1.133 2.14-5.634 7.296-11.135 14.643-16.81 21.847-4.573 5.735-9.572 11.002-14.014 16.788-7.977 10.407-15.65 21.008-23.364 31.517-4.167 5.665-8.294 11.422-12.461 17.087l2.866 6.495c.113-.487.277-1.106.024-1.431-1.383-2.887.409-4.771 1.845-6.717l11.922-16.083c4.84-6.617 9.548-13.286 14.6-19.67 7.203-9.191 14.669-18.279 21.911-27.378 5.389-6.86 10.514-13.822 15.812-20.642 4.91-6.211 10.124-12.229 15.115-18.257l2.292-2.98c1.824-2.554 4.254-3.735 7.461-3.402 8.598.906 17.072 2.522 25.441 5.386 8.765 3.018 17.888 5.113 26.857 7.603 8.837 2.44 17.726 4.747 26.553 7.41 4.149 1.229 8.226 3.037 12.314 4.621.659.256 1.187.46 1.663.796 1.429 1.009 2.299 2.484 2.425 4.505-.193.304-.347.699-.54 1.004-.361 1.907-.813 3.856-1.235 6.119-1.176-.683-1.916-1.122-2.615-1.469-2.261 2.309.616 4.865-.629 7.492-.872-.49-1.704-.888-2.575-1.378-2.169 2.269 1.066 3.902.461 6.246a49.86 49.86 0 0 1-2.296-3.468c-1.375 1.59-2.597 2.785-3.554 4.082-.337.477-.42 1.279-.31 1.776.493 1.86.752 3.932 1.896 5.285 1.811 2.371 1.147 4.085-.678 6.639-.635-1.687-1.16-2.877-1.502-4.147-.533-1.951-.974-3.942-1.599-5.852-.786-2.277-2.562-2.586-3.907-.681-2.405 3.467-5.559 5.733-9.35 7.297-2.236.878-2.36 1.588-1.168 3.794 2.305 4.23 3.287 8.934 4.381 14.135-2.253-.645-4.058-1.269-5.915-1.762-4.82-1.261-9.782-2.35-14.591-3.835-6.087-1.904-12.341-2.204-18.635-2.596-3.837-.274-7.643-1.218-11.458-1.939-1.645-.258-3.227-.871-4.75-.855-6.041-.066-12.093.091-18.145.248-1.208-.013-2.478.328-3.708.762-3.374 1.27-4.741 3.623-3.968 7.107 1.153 5.831 3.86 10.976 7.768 15.372 7.999 8.712 16.232 17.212 24.465 25.711 3.969 4.042 4.273 4.235.203 7.89-7.765 6.925-15.875 13.565-23.812 20.347-2.29 1.994-4.66 3.806-6.91 5.892-3.551 3.097-6.93 6.338-12.148 5.908-.447-.021-1.168.078-1.362.382-3.554 4.083-8.871 2.932-13.311 4.017-1.362.382-3.055-.729-4.739-1.078a68.272 68.272 0 0 1-.186-2.651c-.03-.315-.06-.629-.049-.853l-.121-.274c-.799-1.068-1.507-2.177-2.307-3.245.275-.121.509-.334.692-.415.172.143.304.194.385.377.81.845.654 2.225 1.139 3.323.04.092.08.183.172.143l.04.091c1.674.573 2.592 2.901 5.366 2.004-1.356-1.587-2.592-2.9-4.12-4.63 3.605-.499 6.8 1.043 9.751-1.681-1.237-.328-1.937-.675-2.779-.85-5.592-1.03-10.918-2.942-16.08-5.474-10.191-5.011-20.24-10.195-29.36-16.991-.304-.194-.751-.215-1.147-.369-.957 1.298-.118 2.457.714 2.855 3.792 2.153 4.847 6.278 6.869 9.867-1.085-.724-2.221-1.316-3.214-2.08-3.393-2.983-6.838-5.835-10.18-8.951l2.947 6.679c3.749 3.045 7.589 6.05 11.623 8.752 8.09 4.955 16.099 9.728 24.108 14.5zM370.45 137.915c-.054 1.117-.067 2.325.337 3.24 1.593 4.106.862 8.145-.093 12.173-.226.975-.777 2.202-1.953 1.518-.568-.295-.878-2.236-.552-2.489 2.645-1.932.373-3.116-.485-4.814-1.303 1.012-2.462 1.852-3.856 2.905.433 1.229.826 2.367 1.381 3.872-1.461-.339-2.567-.616-4.252-.966 4.324-7.045 7.256-14.023 8.342-21.717 1.02 2.064 1.238 4.044 1.131 6.278zm3.255-2.53c-.403-.915-.778-1.515-.969-2.196-.735-2.408-1.378-4.857-2.022-7.305-.684-2.54.406-3.787 2.963-2.947 2.161.685 4.168 1.767 6.491 2.819-1.361 4.098-3.207 7.099-6.463 9.629zm-16.668-40.738c.234-.213.509-.334.743-.547 3.732 1.523 4.79 4.663 5.012 9.375-2.256-3.377-4.005-6.103-5.755-8.828zm11.889 23.718c-.142.173-.365.162-.548.243-.081-.183-.294-.417-.243-.549.143-.172.366-.162.641-.283-.011.223.202.458.15.589zm-4.171-24.064c8.963.744 12.349 2.966 15.192 10.893.242.549.301 1.179.492 1.86 1.217 4.491 1.166 4.623-3.042 6.48-1.647.727-3.243 1.322-3.573 3.544 2.543 2.048 4.518.083 6.662-.754.689.57 1.419 1.232 2.28 1.945.713-.861 1.415-1.499 2.22-2.4 3.501.75 6.848 1.896 9.115 5.049 2.478 3.388 2.363 8.576-.257 12.793-.304-.194-.751-.215-.963-.449-4.097-6.062-10.098-9.754-16.538-12.705-1.927-.898-3.173-1.988-4.336-3.879-1.041-1.617-3.1-2.567-5.35-4.197-.482-5.799-1.167-12.056-1.902-18.18zm-19.751-14.784c-1.195-1.221-1.416-2.217-.407-3.646 1.049-1.337 2.058-2.766 3.261-4.5.769.754 1.458 1.324 1.873 2.016 2.204 3.508 4.409 7.017 6.338 10.647 1.476 2.846.975 3.942-1.882 5.64-1.185-1.445-2.197-2.747-3.26-3.917-1.913-2.107-3.827-4.214-5.923-6.24zm12.677 21.294c2.032 3.366 3.933 6.681 4.867 10.532.643 2.449 1.064 4.887.448 7.454-.452 1.948-.223 3.705 1.042 5.333 2.53 3.256 2.003 6.768 1.118 11.202-2.099-1.041-3.59-1.694-5.385-2.542-.86 3.003 1.443 3.517 2.964 4.486 1.997 1.304 1.93 3.629-.226 4.69-.823.363-1.687.635-2.54.684-2.335.156-4.814.485-7.168.103-3.948-.772-7.794-1.807-11.577-3.198-2.729-.982-4.266-3.473-5.397-6.035-1.009-2.287-2.15-4.625-2.662-7.023-.471-2.306-.708-4.824-.286-7.088 1.664-7.621 4.424-14.741 10.155-20.331 4.59-4.212 11.493-3.433 14.647 1.733zm-33.083 32.528c-2.134.614-4.031.03-5.877-.685-7.871-2.975-15.681-6.306-22.613-11.116-2.382-1.681-4.742-3.81-6.371-6.261-3.59-5.411-2.393-8.89 2.547-11.071 11.933-5.157 24.179-9.36 37.518-8.36 3.746.314 7.382.13 11.676.202-2.243 3.832-4.633 5.106-8.47 4.832-5.35-.481-10.823-.252-16.194-.286-1.747.006-3.504.235-5.22.555-.813.14-1.566.91-2.148 1.822 2.84 1.48 5.595.045 8.315.265 2.853.272 5.727.097 8.681.104 2.823-.043 5.737-.127 8.784-.16-1.504 4.271-2.986 8.095-4.153 11.889-1.577 4.85-1.772 9.855-.13 14.814.423 1.453.845 2.906-.438 4.456-1.876-1.03-3.609-2.233-4.64-4.073-.99-1.749-1.655-3.751-2.829-5.419-1.633 3.234 1.123 5.516 1.562 8.492zm.975 19.792c.355.061.853-.049 1.025.094.172.142.059.629-.013 1.208-.488-.113-.934-.134-1.015-.317-.121-.275.032-.671.003-.985zm82.733 42.076c5.969 4.361 10.86 9.745 15.607 15.301 2.46 2.85 5.103 5.618 7.38 8.548 6.204 7.865 6.679 16.619 3.914 25.709-2.324 7.365-7.345 13.079-12.75 18.416-2.066 2.005-4.517 3.633-6.624 5.547-2.015 1.873-4.047 2.223-6.286.37-.861-.713-2.099-1.042-3.722-1.746.154 3.32 2.936 3.185 3.744 5.015-.969 1.52-2.037 2.32-3.993 1.107-2.261-1.407-4.664-2.642-6.976-3.917-.839 2.556-.505 3.065 5.101 6.602-.194.304-.307.792-.622.821-5.274 1.672-10.548 3.344-15.771 4.884-1.138.393-2.153.076-2.901-1.124-1.214-1.76-2.519-3.479-3.784-5.107-.506-.651-1.063-1.171-2.086-2.25-.112 4.204 2.746 6.221 3.957 8.966-5.01 1.774-5.893 1.508-8.329-2.773-5.741-10.036-6.617-20.69-4.517-31.782.597-3.106 1.458-6.109 2.318-9.112 1.014-3.399 1.695-3.59 5.217-3.286 5.969.645 11.989 1.158 18.019 1.447 8.081.478 13.96-3.538 18.302-10.045 2.172-3.254 3.643-6.854 4.191-10.813.662-4.445-.628-8.358-3.89-11.29-2.705-2.414-5.695-4.483-8.542-6.724-.689-.57-1.429-1.009-2.077-1.487 1.754-2.961 2.617-3.233 5.12-1.277zm-41.645 33.684c-1.728.543-2.182-.24-2.697-1.652-.907-2.551-2.089-4.981-3.26-7.634-2.217 1.416-1.296 2.758-.822 4.08.473 1.321 1.079 2.693 1.644 3.974l-.731.323c-.294-.417-.77-.753-1.012-1.302-1.395-2.664-1.812-6.087-5.72-6.767-.446-.022-.759-.977-1.001-1.526-.455-.783-.95-1.657-1.405-2.44-2.247 1.101-.242 3.167-1.942 5.01-.138-1.797-.48-3.067-.294-4.133.839-6.272 3.392-11.881 7.252-16.755.479-.648 1.851-1.254 2.511-.998 5.57 1.476 11.038 3.216 16.73 4.967-1.705 3.814-3.521 7.129-4.678 10.7-1.156 3.571-1.603 7.266-2.466 11.254-2.333-.828-1.898-4.3-4.25-5.666-2.009 3.619 1.834 5.64 2.141 8.565zm-27.493-13.007c-1.122-1.8-2.164-3.417-3.528-5.766-.339 1.461-.92 2.373-.638 3.014.908 2.551 1.489 5.354 4.858 6.054 1.066.185 1.844 1.7 3.16 3.196a19.28 19.28 0 0 1-1.523.016c-1.025-.094-1.868-.268-2.659-.575-2.069-.726-3.67-1.878-5.506-2.817l-.264-.102c-1.003-.541-2.007-1.081-2.96-1.754-1.561-1.06-2.562-2.586-2.293-4.453.373-3.116.311-6.477 1.384-9.246 3.556-8.784 9.443-15.755 17.852-20.231 2.023-1.111 4.329-1.583 6.611-.622 3.601 1.471 7.15 3.074 10.923 4.688-2.86 2.684-5.405 5.337-8.254 7.797-.611.598-2.083.482-3.149.297-1.42-.248-2.779-.85-4.241-1.189-.102.264-.296.568-.398.831 1.704.888 3.448 1.867 5.547 2.909-.98 1.743-1.999 3.396-2.795 5.059-1.41 3.245-2.951 6.44-4.006 9.747-.624 1.806-.933 3.582-3.675 3.808 1.039 2.602 1.825 4.879 2.703 7.115l-.732.323c-.899-1.79-1.707-3.619-2.646-5.5l-2.786-6.313c-.339 1.462-.565 2.436-.985 3.714zm65.334-14.188c2.25 1.63 4.5 3.26 6.607 5.063 3.434 3.075 4.277 6.966 2.722 11.369-.675 1.937-1.522 3.732-2.238 5.579-1.472-.116-2.761-.312-4.679-.449 1.001 1.525 1.577 2.583 2.245 3.6-.52.557-.907 1.165-1.467 1.631-1.313 1.235-2.532 1.445-3.899.081-.81-.845-1.895-1.568-3.009-2.607-.551 1.227-.949 2.059-1.399 3.022-.931-1.119-1.69-2.096-2.621-3.215-2.225.654-1.326 2.444-1.646 4.443a211.624 211.624 0 0 0-3.825-5.198c-2.241 2.847.119 4.975 1.209 7.445-3.005.124-2.47-2.626-3.625-3.756-1.286-1.181-2.145-2.879-3.227-4.587-1.264 2.088-1.264 2.088 2.02 8.29l-2.681-.129c-1.687-3.08-3.254-5.887-4.993-8.836-1.692 2.605-1.692 2.605 2.211 8.971-3.095-.82-5.753-1.395-8.493-2.154.49-.872 1.1-1.469 1.133-2.139.032-.67-.423-1.453-.889-2.013-1.569-1.822-1.564-3.791-1.233-6.014.559-4.182 1.909-8.057 4.01-11.717 1.867-3.447 2.457-3.598 6.394-2.603 1.988.543 4.12.914 6.2 1.417l-.041-.091c-1.531-.745-3.011-1.623-4.634-2.327-1.227-.552-2.505-.971-4.179-1.544 3.982-4.6 8.142-7.31 14.11-6.665.353 1.047.665 2.002 1.139 3.323 3.579-1.798 6.224-.014 8.778 1.81zm-25.636-.381c-.794.678-2.075 1.243-2.958.977-5.215-1.415-10.328-3.093-15.492-4.64-.264-.102-.557-.519-.77-.753 2.838-5.953 9.242-8.779 15.278-6.743 3.744 1.299 7.527 2.69 11.575 4.183-2.901 2.591-5.161 4.901-7.633 6.976zm-21.968 25.763c-2.395-.473-4.171-.782-6.698-1.307.947-1.073 1.762-2.198 1.934-2.056 1.715.665 3.97.325 4.764 3.363zm-90.388 20.328c-7.893-2.529-15.99-4.53-23.894-6.835-13.119-3.719-26.157-7.256-39.265-11.199-6.443-1.966-13.041-2.552-19.669-3.452-1.867-.269-3.412.194-4.989 1.327-2.604 2.024-4.985 4.059-6.952 6.785-3.352 4.54-7.181 8.744-10.888 13.222-8.978-3.252-18.541-3.622-26.916-8.233-2.08-.503-4.303-.833-6.383-1.336-.132-.051-.355-.062-.487-.113l-2.253-.646c-5.417-1.872-10.915-3.927-16.168-6.418-4.249-1.95-8.202-4.468-12.115-6.895-5.313-3.12-10.574-6.373-15.744-9.666-3.994-2.61-7.925-5.574-9.487-10.351-.624-1.91-1.238-4.044-.93-5.82.62-3.552 1.816-7.032 3.185-10.369.46-1.186 1.894-2.147 3.259-3.514 1.644 3.974 4.335 3.879 7.352 3.532 2.072-.259 4.243.204 6.447-.004 4.906-.525 9.76-.919 14.596-1.851 10.168-1.974 20.135-4.405 30.334-6.064 5.82-.929 11.81-.731 17.69-1.031.091-.04.263.102.355.062.864-.272 2.123-.39 2.51-.999.684-1.176-.258-2.072-1.211-2.744-4.763-3.363-8.397-7.881-11.939-12.439-.081-.183-.11-.497-.261-1.087.864-.272 1.738-.767 2.632-.724 5.656-.31 11.323-.844 16.958-.708 8.447.317 16.843.765 25.246 1.975 14.19 1.935 28.514 2.937 42.798 3.847 7.989.518 16.153.194 24.154.488 5.228.207 10.589.464 15.785 1.341 8.261 1.382 16.495 1.464 24.843 1.059 8.885-.424 17.892-.573 26.807-.682.761-.008 1.421.247 3.024.414-2.147 1.822-3.602 3.23-5.19 4.586-6.207 5.254-12.891 10.171-18.075 16.504-3.239 4.053-6.347 8.157-9.018 12.506-4.528 7.573-8.924 15.197-12.924 22.974-2.959 5.678-5.087 11.755-6.2 18.149-.011.223-.113.487-.215.751-1.243 5.357-1.557 5.387-6.802 3.658zm13.592 20.89c1.41-3.246 2.687-6.542 2.504-10.178-.165-3.097-1.266-5.344-4.401-6.255-1.146-.369-2.282-.961-3.418-1.552 1.272-8.76 3.588-16.887 7.365-24.675 5.501-11.063 11.61-21.739 18.764-31.782 4.749-6.578 11.381-11.363 17.497-16.577 3.175-2.712 6.471-5.151 9.818-7.721 1.811-1.346 3.802-1.788 5.995-1.772 15.696.396 30.653 4.07 45.158 9.692 2.901 1.124 5.587 2.999 8.477 4.347 5.081 2.348 9.519 5.964 14.161 9.053-2.12 3.122-3.218 3.606-6.038 2.665-7.618-2.65-15.145-5.339-22.815-7.857-4.23-1.412-8.482-2.378-12.672-3.698-2.029-.635-3.905-1.665-5.78-2.696-1.268-.643-2.097-2.026-4.048-1.493-2.408.735-4.997.566-6.931 2.622-1.701 1.844-3.441 3.596-5.274 5.388-5.394 5.114-9.572 11.002-12.058 18.002-1.606 4.534-2.237 9.295-.676 14.071.514 1.413 1.193 2.206 2.592 2.9 11.287 5.512 23.361 8.6 35.436 11.687 2.08.503 4.109 1.138 6.493 1.834-5.74 16.962-7.072 33.509 2.755 49.831-1.402.291-2.357.603-3.393.732-9.781 1.366-19.609.894-29.425.198-6.203-.432-12.414-1.626-18.646-2.373-6.588-.809-13.226-1.486-19.854-2.387-6.72-.86-13.439-1.72-20.199-2.671-1.512-.207-2.922-.678-5.002-1.181 1.318-3.205 2.512-5.7 3.615-8.154zm-64.834 80.207c3.277.74 5.638 2.868 8.394 5.15-3.3-.293-5.824-1.802-8.394-5.15zm35.939 32.889c-1.167.078-2.72-.22-2.873.175-.49.872-.737 2.293-.283 3.076.819 1.607.897 2.774-.152 4.112-1.041 2.099-1.991 4.158-3.032 6.257-.307.791-.745 1.531-1.052 2.322-.898 1.927-1.797 3.854-2.787 5.821-5.172-2.308-9.817-4.411-14.989-6.719 1.415-1.5 2.596-2.786 3.858-3.889 7.033-6.602 13.59-13.541 18.769-21.62 2.13-3.345 3.917-6.975 6.303-10.979 1.045 8.064-2.18 14.625-3.762 21.444zm7.007-20.035c-.256-3.057-.574-5.758-.577-8.49.056-2.101 1.125-2.901 3.256-2.53 2.354.382 4.596 1.251 6.337 3.215-2.222 3.386-3.785 7.027-9.016 7.805zm23.257-9.718c6.814 3.551 13.536 7.143 20.35 10.694.568.296.953.672 1.865 1.254-2.165 5-4.148 9.919-6.518 15.446-.891-1.027-1.62-1.689-2.166-2.432-2.773-3.804-5.413-7.558-8.094-11.403-.586-.834-.99-1.749-1.262-2.613-.934-3.85-3.478-5.898-7.294-6.618-.578-.073-1.289-.196-1.765-.533l-11.432-8.071c-.304-.194-.374-.6-.657-1.24 3.808-.041 7.053 1.368 10.269 2.463 2.465.88 4.605 2.012 6.704 3.053zm-8.194-15.84a9.066 9.066 0 0 1-.207 1.512c-1.134 6.841-3.788 8.012-10.012 4.31 1.74-5.468 3.572-10.977 5.363-16.577 3.001 1.846 5.141 6.694 4.856 10.755zm-19.034-40.897c-.783-3.261-.783-3.261 1.953-5.234 1.577-1.133 3.205-2.398 5.199-3.824 1.572 4.552 3.165 8.659 3.489 13.107.224 3.727 1.392 7.365 1.748 11.143.175 2.873.919 6.043-1.576 8.565-.234.213-.306.791-.185 1.066 2.038 5.112-1.912 9.041-2.046 13.691-.223-.01-.538.019-.802-.083-.528-3.921-.832-7.83-1.635-11.63-1.987-8.96-4.066-17.881-6.145-26.801zm2.073 23.024c-1.978-.767-3.864-1.574-5.751-2.381-.132-.051-.325.253-.61.598.331 1.493 1.711 1.649 2.766 2.058 3.652 1.339 5.321 3.882 5.362 7.69.062 3.361.48 6.783.674 10.195.097 1.706-.414 3.025-2.031 4.067-2.583 1.577-3.361 3.778-2.669 7.08.552 2.489-.44 5.441-1.016 8.1-.123.71-1.323 1.459-2.096 1.69-1.138.393-2.397.512-3.508 2.204 1.523-.016 2.548.078 3.665.132.03.315.1.721-.003.985-1.552 3.417-2.203 3.923-5.825 2.899-5.215-1.415-10.369-3.185-15.39-4.904-.791-.306-1.642-1.243-2.005-2.066a17.349 17.349 0 0 1-1.268-4.359c-2.085-10.667 1.208-19.553 8.518-27.261 4.571-4.75 9.476-8.991 15.969-10.873 4.359-1.268 5.139-.738 5.218 4.146zm-72.9-.727c-.293-.417-.495-.874-.748-1.2l-.041-.091c-2.815-2.912-4.653-6.582-5.902-10.403-1.239-4.044-.179-5.605 4.097-6.071 9.273-1.032 18.583-.988 27.674 1.777 1.765.533 3.765.853 5.602.807 7.118.028 13.969.939 20.796 3.282 3.876 1.351 8.047 2.133 12.024 3.22 1.106.277 2.242.868 3.956 1.533-1.2.748-1.8 1.122-2.441 1.405-3.923 1.513-7.391 3.809-10.485 6.705-1.547 1.447-2.807 1.566-4.682.536-9.653-5.031-19.226-9.879-28.93-14.777-1.927-.899-3.945-1.757-5.974-2.392-1.766-.532-3.633-.801-5.11 1.053.385.377.627.926.85.937 4.61.042 8.493 2.154 12.428 4.134 7.341 3.755 14.357 7.764 21.596 11.783 1.48.877 2.858 2.018 4.591 3.22-1.162 1.825-1.958 3.488-3.099 4.866-5.152 5.662-6.865 12.43-6.864 19.863.019.538-.013 1.208-.624 1.805-.504-1.636-.916-3.312-1.5-5.131-1.808.361-2.831-.718-3.536-2.812-.775 1.217-1.305 1.997-2.131 3.346-.684-2.541-1.206-4.715-1.85-7.163l-2.744 1.211c-.261-1.087-.584-1.819-.724-2.632-.2-1.442-.125-3.005-2.307-3.245-.71-.123-1.265-1.627-1.933-2.645-.589.151-1.27.342-2.174.523-.393-1.138-.654-2.225-1.047-3.364-.71-.123-1.472-.115-1.959-.228-1.51-1.192.174-4.559-3.389-4.954.18-2.812-3.781-2.375-5.014-4.673-2.925.307-2.947-2.962-4.965-3.82-.286-3.372-3.636-3.533-5.528-6.087-1.065 3.531 1.101 5.963 1.288 8.614l.04.091c3.138-.073 4.074 2.793 5.826 4.534 4.102 4.092 7.267 9.035 12.163 12.449 1.865 1.254 3.006 3.592 4.626 5.282 1.793 1.832 3.819 3.452 5.703 5.243.557.52.972 1.211 1.437 1.771-.142.172-.336.476-.479.648-.75-.215-1.644-.258-2.069-.726-9.175-9.395-18.28-18.384-26.448-28.224zm-48.598 60.034c1.963 2.96 3.925 5.92 5.836 9.011-.234.213-.337.476-.571.689-1.703-.888-3.315-1.816-5.059-2.795l-.091.04-.081-.183c-.517-.427-1.125-.815-1.642-1.243.143-.172.326-.253.468-.425.374.6.84 1.16 1.214 1.76 0 0 .041.091.132.051 1.596-.595 2.045-1.558 1.044-3.084-.708-1.109-1.416-2.217-1.992-3.275.194-.304.468-.425.742-.546zm-3.185 2.936c-1.244-2.074-2.113-3.549-3.235-5.349 3.614.263 3.775.629 3.235 5.349zm-5.706-4.259a192.507 192.507 0 0 1-2.984-4.038c3.673.893 3.673.893 2.984 4.038zm-2.803.582c-.477-.336-.862-.713-1.298-.958.143-.172.377-.385.479-.648.385.376.77.753 1.063 1.17.132.051-.102.264-.244.436zm-2.517-4.464c-1.063-1.17-1.873-2.015-2.896-3.094 2.659.576 2.659.576 2.896 3.094zm-7.102-5.938a193.475 193.475 0 0 0 4.734 6.765c-2.922-.678-3.003-.861-4.734-6.765z" data-color="1"/>
        <path fill="#484819" d="M277.986 258.299c-.39 1.593-.199 2.274 1.181 2.43.194-.304.347-.7.541-1.004-.608-.387-1.125-.815-1.722-1.426z" data-color="1"/>
        <path fill="#484819" d="M199.091 176.38c5.331-.057 10.541-.389 15.82-.314 14.367.108 28.546 2.266 42.663 4.78 4.75.855 9.653 1.315 14.453 2.038.062-.355.124-.71.226-.974-25.521-5.569-51.239-9.849-78.315-7.3 1.964 1.975 3.63 1.786 5.153 1.77z" data-color="1"/>
        <path fill="#484819" d="M233.214 221.002c-.11-.498-.049-.853-.221-.996-4.282-4.996-8.432-9.941-12.714-14.938-6.742-7.845-13.535-15.559-20.328-23.273-.81-.845-1.763-1.518-2.664-2.322-.326.253-.611.597-.937.85 1.236 1.313 2.562 2.586 3.747 4.031 8.311 9.667 16.581 19.243 24.801 28.951 2.419 2.757 4.879 5.607 8.316 7.697z" data-color="1"/>
        <path fill="#484819" d="M95.099 219.873l-4.805-10.886a51.285 51.285 0 0 0-1.165 2.809c-1.792-1.832-1.693-4.827-4.086-6.285-.438.74-.734 1.308-1.122 1.916-1.66-1.781-.76-4.693-2.917-6.364-.48.649-.907 1.165-1.243 1.642.533 1.951 1.157 3.861 1.69 5.812 1.064 1.17 1.83 2.909 3.19 3.511 1.227.552 1.905 1.345 2.95 1.978 2.432 1.549 3.99 3.594 5.447 5.903.293.417 1.003.54 1.44.785.376-.385.661-.729.62-.821z" data-color="1"/>
        <path fill="#484819" d="M122.967 225.063c-.005 1.969.011 3.492.057 5.33-2.401-2.219-3.012-5.338-6.013-7.184-.238 5.899 7.225 13.645 12.881 13.335-1.243-2.075-2.274-3.915-3.488-5.675-1.305-1.719-.496-4.591-3.437-5.806z" data-color="1"/>
        <path fill="#484819" d="M237.628 213.916c-1.022-1.079-1.994-2.29-3.017-3.369-7.433-7.431-14.215-15.368-19.187-24.651-.414-.692-.972-1.211-1.478-1.862-.274.121-.548.242-.782.455.565 1.28.947 2.642 1.695 3.842 4.347 7.372 9.569 14.25 15.635 20.317 2.137 2.117 4.753 3.586 7.175 5.359l-.041-.091z" data-color="1"/>
        <path fill="#484819" d="M149.991 238.494c-3.194-1.541-2.799-5.104-4.732-7.749-1.178 4.018.273 8.296 3.051 10.131.476.336 1.176.683 1.765.532 1.453-.422 1.989.544 2.758 1.297.426.468 1.187.46 2.333.829-1.512-3.924-2.823-7.389-4.256-11.13-1.934 2.057-.335 4.193-.919 6.09z" data-color="1"/>
        <path fill="#484819" d="M248.225 211.425c-8.06-8.357-16.212-16.673-22.217-26.812.482 5.799 15.18 23.251 22.217 26.812z" data-color="1"/>
        <path fill="#484819" d="M137.642 235.528c-.697-1.331-1.303-2.704-2-4.036-.616-1.149-.135-2.782-2.153-3.64-.971 2.505-.276 4.822.795 6.754 1.071 1.932 1.846 4.432 4.882 4.622.492-1.857-.948-2.642-1.524-3.7z" data-color="1"/>
        <path fill="#484819" d="M114.366 225.141c-.858-1.697-.832-4.114-3.103-5.297-.742 4.262 1.874 9.447 5.566 10.878.433-2.486-1.564-3.791-2.463-5.581z" data-color="1"/>
        <path fill="#484819" d="M130.876 229.114c-.283-.641-.931-1.12-1.701-1.873-.672 4.669 1.215 9.192 4.711 11.912.083-.802.441-1.725.25-2.406-1.039-2.602-2.13-5.072-3.26-7.633z" data-color="1"/>
        <path fill="#484819" d="M100.542 215.613c-1.087 3.977 1.064 8.603 4.929 10.176-.38-2.346-3.804-9.361-4.929-10.176z" data-color="1"/>
        <path fill="#484819" d="M95.603 213.092c-1.084 2.992-.33 5.939 1.988 8.96.718.885 1.375 2.126 3.267.963-1.729-3.172-3.365-6.385-5.255-9.923z" data-color="1"/>
        <path fill="#484819" d="M106.629 217.517c-1.359 3.113.356 7.494 3.65 9.756-.081-3.899-2.094-6.727-3.65-9.756z" data-color="1"/>
        <path fill="#484819" d="M144.346 238.582c-1.709-2.635-3.55-5.32-5.381-8.228-1.005 4.16 1.148 7.8 5.381 8.228z" data-color="1"/>
        <path fill="#484819" d="M159.057 242.691c.436.245 1.33.288 1.615-.057.325-.253.236-1.197.035-1.655-1.204-1.983-2.549-3.794-3.965-6.011-.933 3.582-.088 6.488 2.315 7.723z" data-color="1"/>
        <path fill="#484819" d="M79.76 202.705c-.971-1.211-.64-3.434-3.157-4.182.041 3.808 1.465 6.786 3.204 9.735.04.092.172.143.304.194 0 0 .091-.04.132.051.355.062.802.083 1.248.105l.092-.04c-.665-2.002-1.198-3.953-1.822-5.863z" data-color="1"/>
        <path fill="#484819" d="M81.451 208.517c-.355-.062-.893-.043-1.249-.105.356.062.803.083 1.25.105z" data-color="1"/>
        <path fill="#484819" d="M80.07 208.361c-.131-.051-.263-.102-.303-.194.08.183.172.143.304.194z" data-color="1"/>
        <path fill="#484819" d="M81.543 208.477c-.533-1.951-1.158-3.862-1.691-5.813.533 1.951 1.066 3.902 1.69 5.813z" data-color="1"/>
        <path fill="#484819" d="M81.583 208.568c-.04-.092-.04-.092 0 0z" data-color="1"/>
        <path fill="#484819" d="M171.817 181.204c.161.366.506.651.972 1.211.295-.568.632-1.044.591-1.136-.253-.325-.689-.57-1.033-.855-.102.263-.519.557-.53.78z" data-color="1"/>
        <path fill="#484819" d="M237.577 214.048c.283.64.566 1.281 1.499 1.415.356.062.671.032 1.168-.078-1.308-.734-1.916-1.122-2.616-1.469l-.051.132z" data-color="1"/>
        <path fill="#484819" d="M249.323 269.638c1.462.339 3.187.78 4.349-1.045-.476-.336-.77-.753-.993-.764-3.673-.893-7.347-1.785-10.98-2.587-1.552-.298-2.779-.85-3.843-2.02-4.171-4.499-8.526-8.917-12.84-13.243-.557-.519-1.216-.775-1.865-1.254a2.988 2.988 0 0 0-.57.689c3.641 5.279 9.013 9.03 13.193 14.29-3.35-.161-5.998-.96-8.004-3.026l-14.065-14.779c-.769-.754-1.55-1.284-2.411-1.997-.234.213-.468.426-.57.689 3.862 6.275 9.831 10.636 14.974 16.345-.984-.002-1.35.159-1.706.098-12.397-3.82-25.072-6.533-37.87-8.536-1.289-.196-2.689-.89-3.617.722.321 1.717 1.631 1.466 2.697 1.652 7.987 1.503 16.076 2.742 24.041 4.692 8.321 2.011 16.426 4.774 24.696 6.917 5.094 1.14 10.239 2.149 15.384 3.157z" data-color="1"/>
        <path fill="#484819" d="M157.129 356.456c-5.448-9.619-10.988-19.198-16.527-28.777-2.931-5.156-5.913-10.179-8.936-15.294-.455-.783-1.235-1.313-1.833-1.924-.234.213-.56.466-.834.587 9.149 15.528 18.257 30.964 27.406 46.492l.732-.323c.062-.355.072-.578-.008-.761z" data-color="1"/>
        <path fill="#484819" d="M162.125 348.458c-7.389-13.026-14.645-26.001-22.034-39.026.302 4.895 17.098 35.52 22.034 39.026z" data-color="1"/>
        <path fill="#484819" d="M147.057 305.154c-.326.253-.692.415-.926.627 1.564 3.792 4.043 7.179 6.248 10.688 6.653 10.617 15.295 21.778 18.094 23.166-7.393-11.056-15.896-21.404-22.13-33.3-.201-.457-.901-.804-1.286-1.181z" data-color="1"/>
        <path fill="#484819" d="M207.488 255.091c.072-.578.226-.974.185-1.065-6.227-6.433-12.415-12.775-18.694-19.076-.212-.234-.659-.256-1.674-.573.221.995.149 1.574.493 1.859 5.722 5.782 11.484 11.656 17.206 17.438.557.519 1.48.877 2.484 1.417z" data-color="1"/>
        <path fill="#484819" d="M244.073 262.446c-3.039-2.922-5.55-5.639-8.295-8.144-2.837-2.465-4.36-6.164-7.614-8.336.273 4.58 10.774 15.248 15.909 16.48z" data-color="1"/>
        <path fill="#484819" d="M215.319 254.259c-2.746-2.505-5.399-5.05-8.144-7.555-2.614-2.454-4.657-5.596-7.84-7.361 4.086 6.285 9.21 11.456 15.088 15.858.285-.345.61-.597.896-.942z" data-color="1"/>
        <path fill="#484819" d="M239.24 246.543c2.815 2.912 5.165 5.263 8.41 6.673-3.095-4.537-5.081-6.065-8.41-6.673z" data-color="1"/>
        <path fill="#484819" d="M329.805 259.804c-8.664-14.43-17.086-28.312-25.508-42.193-.253-.326-.689-.57-1.682-1.334 1.478 5.578 23.713 41.345 27.19 43.527z" data-color="1"/>
        <path fill="#484819" d="M314.422 228.665c6.094 11.083 12.696 21.832 20.824 31.58-7.129-10.954-13.945-21.937-19.783-33.679-.161-.366-.729-.662-1.074-.947-.274.121-.549.242-.783.454.272.864.361 1.809.816 2.592z" data-color="1"/>
        <path fill="#484819" d="M330.578 279.138c.759.977 5.274 2.045 7.306 1.695a2528.886 2528.886 0 0 0-5.572-8.909c-.274.121-.589.15-.864.272.068 1.391.176 2.873.354 4.762-1.64-2.227-2.864-3.764-4.129-5.392-1.34 3.652 1.265 5.344 2.905 7.572z" data-color="1"/>
        <path fill="#484819" d="M282.241 269.428c1.508 2.177 2.905 3.856 3.987 5.565 1.496 2.4 3.557 2.364 6.493 1.834-2.204-3.509-4.207-6.56-6.25-9.703-1.579 2.118-1.671 2.159-4.23 2.304z" data-color="1"/>
        <path fill="#484819" d="M360.714 282.78c-2.632-2.992-3.445-6.568-6.037-9.468-1.412 4.23 1.529 9.162 6.037 9.468z" data-color="1"/>
        <path fill="#484819" d="M327.335 280.46c-2.368-2.89-3.394-6.7-6.29-9.794-.397 4.548 2.353 8.799 6.29 9.794z" data-color="1"/>
        <path fill="#484819" d="M348.406 283.622c.396.153 1.138-.393 1.687-.636a791.172 791.172 0 0 0-5.671-9.63c-1.006 4.161 1.215 9.192 3.984 10.266z" data-color="1"/>
        <path fill="#484819" d="M365.17 283.218c-.42-2.438-4.417-7.779-6.252-8.718-.344 3.431 2.205 7.225 6.252 8.718z" data-color="1"/>
        <path fill="#484819" d="M344.843 283.226c-2.256-3.377-4.218-6.336-6.393-9.53-1.046 4.069 1.958 8.646 6.393 9.53z" data-color="1"/>
        <path fill="#484819" d="M351.853 281.772c.769.754 1.579 1.599 2.841.495-1.779-3.04-3.426-6.03-5.539-9.579-.984 3.714.044 6.539 2.698 9.084z" data-color="1"/>
        <path fill="#484819" d="M311.44 278.622c-1.89-3.538-3.526-6.751-5.163-9.964-1.017 4.384 1.541 8.939 5.163 9.964z" data-color="1"/>
        <path fill="#484819" d="M296.053 276.45c-1.699-2.858-2.614-6.17-5.564-8.148.316 3.687 2.065 6.413 5.564 8.148z" data-color="1"/>
        <path fill="#484819" d="M299.493 269.138c-.04 3.624 2.733 7.429 6.072 7.813-1.871-3-3.58-5.634-5.289-8.268-.274.121-.549.242-.783.455z" data-color="1"/>
        <path fill="#484819" d="M295.099 268.345c-.051 3.848 1.578 6.299 5.251 7.192-.748-1.2-1.537-2.491-2.285-3.691-.789-1.292-.967-3.181-2.966-3.501z" data-color="1"/>
        <path fill="#484819" d="M315.901 277.09c-2.065-2.696-2.87-5.511-5.281-7.507-1.014 3.399.857 6.399 5.281 7.507z" data-color="1"/>
        <path fill="#484819" d="M321.127 278.281c-1.669-2.542-3.216-4.81-5.219-7.862-.397 4.548 1.616 7.376 5.219 7.862z" data-color="1"/>
        <path fill="#484819" d="M367.505 279.345c.137-1.918-.56-3.25-2.802-4.119.154 3.32.154 3.32 2.802 4.119z" data-color="1"/>
        <path fill="#484819" d="M250.288 147.991c.059.63 1.316 1.496 2.118 1.579 1.827.178 3.807-.041 5.686.005 14.934.404 29.91.9 44.804 1.212 2.325.067 4.763-.353 7.15-.641.629-.06 1.189-.525 1.789-.899.011-.224-.11-.498-.1-.721a71.69 71.69 0 0 0-3.167-.242c-4.741-.094-9.574-.147-14.356-.332-2.01-.096-4.01-.416-6.02-.513-9.604-.461-19.299-.882-28.995-1.303a167.388 167.388 0 0 0-6.751-.19c-1.26.118-2.358.603-2.158 2.045z" data-color="1"/>
        <path fill="#484819" d="M255.274 151.365c.999 2.51 4.22 5.351 9.28 8.147 1.308.734 2.583 2.139 5.39.572-1.836-.939-3.063-1.49-4.107-2.123-1.176-.683-2.352-1.366-3.477-2.181-1.257-.867-2.371-1.905-3.536-2.812-1.176-.683-1.873-2.015-3.55-1.603z" data-color="1"/>
        <path fill="#484819" d="M256.454 158.496c.476.336 1.249.105 2.761.312-4.185-3.291-7.64-5.919-11.096-8.548a21.402 21.402 0 0 0-2.473-1.641c-.436-.245-.923-.358-1.41-.471-.224-.01-.498.111-.721.1-.092.041-.143.172-.52.557 3.284 2.486 6.303 4.87 9.465 7.081a30.237 30.237 0 0 0 3.994 2.61z" data-color="1"/>
        <path fill="#484819" d="M284.725 153.452a3035.79 3035.79 0 0 1 14.029 9.002c.193-.304.427-.517.53-.781-3.779-3.36-7.985-6.204-12.243-8.916-.212-.234-.904.181-2.316.695z" data-color="1"/>
        <path fill="#484819" d="M115.853 141.085l-.366.162c.689.57 1.47 1.1 2.199 1.762-.689-.57-1.235-1.313-1.833-1.924z" data-color="1"/>
        <path fill="#484819" d="M92.322 166.774c-5.46-.979-10.92-1.958-16.34-2.845-.153.396-.215.751-.409 1.055 2.511 2.717 6.158 2.31 9.406 2.735 5.734.858 5.785.726 7.343-.945z" data-color="1"/>
        <path fill="#484819" d="M96.2 170.855c-6.547-.718-12.648-1.414-18.616-2.059l-.366.162c-.051.132-.102.264-.347.699 3.151 2.435 6.97 2.171 10.635 2.302 2.731-.003 5.632 1.122 8.694-1.104z" data-color="1"/>
        <path fill="#484819" d="M97.59 175.489c-2.944-.231-5.929-.554-8.924-.653-2.995-.099-5.936-1.315-9.076-.257 5.853 2.117 11.832 2.539 17.946 2.027l.053-1.117z" data-color="1"/>
        <path fill="#484819" d="M87.927 162.264c-2.25-1.63-4.82-1.261-7.225-1.511-1.868-.269-3.54-1.826-5.469-1.74l-1.28.565c2.58 3.124 9.593 4.401 13.974 2.686z" data-color="1"/>
        <path fill="#484819" d="M83.85 156.741c-.843-.175-1.553-.299-2.396-.474l-3.202 1.414c2.05.188 4.123-.071 5.597-.94z" data-color="1"/>
        <path fill="#484819" d="M98.736 179.573c-5.969-.645-11.897-1.198-17.957-1.803.03.315-.032.67-.043.894 5.896 1.223 11.865 1.868 17.825 1.751.143-.172.113-.487.175-.842z" data-color="1"/>
        <path fill="#484819" d="M128.163 155.108c.143-.172.417-.293.56-.466-2.834-3.449-5.76-6.858-8.594-10.307l-.977.759c3.017 3.368 6.034 6.737 9.011 10.014z" data-color="1"/>
        <path fill="#484819" d="M384.779 278.609c.901.804 2.026 1.619 3.258.201-1.69-2.096-3.431-4.06-5.374-6.482-1.004 3.176.393 4.855 2.116 6.281z" data-color="1"/>
        <path fill="#484819" d="M398.93 275.751c-2.107-1.802-3.738-3.269-5.329-4.643-.172-.143-.447-.022-.67-.033-.486 3.604 1.529 5.447 5.999 4.676z" data-color="1"/>
        <path fill="#484819" d="M393.254 275.523l-6.386-4.068c.202 4.174 1.591 5.091 6.386 4.068z" data-color="1"/>
        <path fill="#484819" d="M349.485 137.221c.446.022 1.025.094 1.37.38 2.319 2.036 5.005.195 7.763 1.492-.49-2.844-2.132-4.087-3.814-5.422-.662.73-1.181 1.287-1.843 2.016-.84-1.16-1.598-2.136-2.479-3.388-.844.811-1.415 1.5-2.351 2.35-.84-1.16-1.507-2.177-2.266-3.153-.719-.886-1.438-1.771-2.065-2.696-.559.465-.651.506-.702.637-.314 3.746 2.692 7.338 6.387 7.784z" data-color="1"/>
        <path fill="#484819" d="M342.313 134.593c-.012-3.493-2.194-7.448-4.8-9.141.163 4.083 2.227 6.779 4.8 9.141z" data-color="1"/>
        <path fill="#484819" d="M236.058 350.039c-.745 1.532-1.235 2.404-1.826 3.539-1.155-1.13-.835-3.129-2.915-3.632-1.044 3.084.189 5.382 2.073 7.174 1.58 1.598 3.541.841 5.656-.311l-2.988-6.77z" data-color="1"/>
        <path fill="#484819" d="M239.802 351.339c-1.093 2.231-1.023 2.637.304 3.91 1.752 1.74 2.909 1.886 5.522.623-2.158-1.671-3.972-3.056-5.826-4.533z" data-color="1"/>
        <path fill="#484819" d="M228.475 349.452c-1.38 3.56-.421 5.979 2.458 7.55.901-2.912-.932-4.835-2.458-7.55z" data-color="1"/>
        <path fill="#484819" d="M300.828 122.078c1.326 1.273 2.255-.339 2.822-.043 1.327 1.272 2.229 2.077 3.556 3.349.039-3.624-1.88-7.477-4.969-10.267-.207 1.512-.393 2.578-.559 4.181-2.062-3.681-4.482-6.438-8.731-8.389.351 5.748 4.721 7.973 7.881 11.169z" data-color="1"/>
        <path fill="#484819" d="M313.586 127.706c-2.032-3.366-3.65-6.041-5.509-9.264-1.24 4.373.862 8.145 5.509 9.264z" data-color="1"/>
        <path fill="#484819" d="M317.206 129.715c-1.058-3.14-1.71-6.35-3.57-9.574-1.463 4.363-.123 8.143 3.57 9.574z" data-color="1"/>
        <path fill="#484819" d="M321.283 131.523c.403-2.801-1.102-5.963-3.524-7.736-.952 3.044-.064 5.056 3.524 7.736z" data-color="1"/>
        <path fill="#484819" d="M404.138 213.006c-2.96-1.754-5.942-3.061-9.107-4.288-1.846-.715-3.805-.944-5.753-1.395l.04.091c4.532 2.591 9.656 4.046 14.82 5.592z" data-color="1"/>
        <path fill="#484819" d="M378.771 230.323c.026-2.416.026-2.416-1.947-5.153-1.915 2.595-1.118 4.648 1.947 5.153z" data-color="1"/>
        <path fill="#484819" d="M334.223 216.318c-.899-1.789-1.798-3.578-2.748-5.236-.202-.457-.821-.621-1.642-1.243.041 3.808 2.116 6.28 3.235 9.065l.264.102c1.281-.565 1.507-1.539.891-2.688z" data-color="1"/>
        <path fill="#484819" d="M384.015 122.09c.87 1.475 1.83 2.909 4.217 2.62.646-2.252-.864-3.444-2.293-4.453-.345-.285-1.461-.339-1.655-.034-.296.567-.562 1.45-.269 1.867z" data-color="1"/>
        <path fill="#484819" d="M244.995 388.616c.789 1.291 1.846.715 2.904.139l-1.736-3.934c-2.035 1.335-1.916 2.595-1.168 3.795z" data-color="1"/>
        <path fill="#484819" d="M288.544 360.979c-.546 2.973.361 5.524 2.275 7.631.253.325.923.357 1.805.624-.823-3.353-1.903-6.047-4.08-8.255z" data-color="1"/>
        <path fill="#484819" d="M67.82 155.836c-2.849-5.958-5.656-11.824-7.457-18.133-.574-2.043-.184-3.636 1.19-5.226 5.387-5.876 11.613-10.591 19.689-11.86 3.382-.509 7.128-.194 10.406.545 4.962 1.089 9.413 3.497 13.232 6.949 4.376 3.971 8.844 7.902 13.169 12.005l3.019-1.333c-1.591-1.374-3.13-2.881-4.812-4.216-5.076-4.318-9.765-9.244-15.37-12.782-7.299-4.649-15.67-6.529-24.432-3.099-6.89 2.713-12.7 7.136-17.75 12.534-1.232 1.419-1.53 2.971-1.13 4.871 1.476 6.563 4.05 12.641 7.304 18.529 1.273 2.389 2.587 4.87 3.768 7.3l1.647-.727c-.767-1.738-1.575-3.568-2.474-5.357z" data-color="1"/>
        <path fill="#484819" d="M279.022 61.528c-3.573 3.544-6.589 7.608-9.341 11.774l5.032-2.22c2.384-3.02 4.98-5.806 7.576-8.591 2.597-2.786 6.305-3.548 9.921-4.27a53.837 53.837 0 0 1 13.882-.99l6.313-2.785c-8.272-1.159-16.356-.652-24.616 1.682-3.404.956-6.181 2.838-8.767 5.4z" data-color="1"/>
        <path fill="#484819" d="M74.54 136.145c-3.29.468-6.49.897-9.649 1.417-.63.059-1.24.656-1.84 1.03.506.652.818 1.607 1.477 1.862 1.4.694 2.993 1.084 4.89 1.668.271-2.852 2.241-2.847 4.1-3.34 8.525-2.232 15.89.092 22.619 5.43a86.144 86.144 0 0 1 4.518 3.799l2.196-.97-6.443-5.682c-6.413-5.367-13.883-6.443-21.867-5.214z" data-color="1"/>
        <path fill="#484819" d="M95.268 126.888c-2.901-1.125-5.956-1.853-8.918-2.622-.974-.226-1.93.086-2.411 1.719 12.464 1.495 22.225 8.008 31.497 15.393l.366-.161c-4.395-4.51-9.218-8.502-14.856-11.37-1.835-.939-3.609-2.233-5.678-2.959z" data-color="1"/>
        <path fill="#484819" d="M73.993 159.669l1.28-.565c-.446-.021-.944.089-1.493.331.132.052.173.143.213.234z" data-color="1"/>
        <path fill="#484819" d="M76.349 151.634c-1.593-.39-3.186-.78-4.688-1.211-1.37-.379-2.637-1.022-4.26-1.727.673 2.764.765 2.724 2.296 3.469 3.418 1.552 8.331 1.788 11.584.243-2.09-.28-3.511-.527-4.932-.774z" data-color="1"/>
        <path fill="#484819" d="M78.293 157.772l3.202-1.413c-3.633-.802-7.317-1.471-11.529-2.345 1.65 2.004 5.028 3.465 8.327 3.758z" data-color="1"/>
        <path fill="#484819" d="M79.037 148.808c.102-.263.072-.578.175-.842a2145.786 2145.786 0 0 1-11.922-3.483c.116 2.244 1.435 2.755 2.673 3.084 2.912.901 5.934 2.299 9.074 1.241z" data-color="1"/>
        <path fill="#484819" d="M97.07 356.839c-2.866-2.779-4.767-6.094-3.933-10.397l.153-.396-2.867-6.495c-.244.436-.621.821-.866 1.257-1.436 1.945-2.712 4.257-1.977 6.665 1.067 3.902 2.488 7.865 5.629 10.524a462.02 462.02 0 0 0 8.612 7.129l-2.948-6.678c-.648-.479-1.246-1.09-1.803-1.609z" data-color="1"/>
    </g>
</svg>
