<?xml version="1.0" encoding="UTF-8"?>
<svg data-bbox="0.487 0 611.512 250.557" xmlns="http://www.w3.org/2000/svg" viewBox="0 0 612 251" height="251" width="612" data-type="color">
    <g>
        <path fill="#484819" d="M162.855 191.289c-3.5-5.5-7.3-10.7-11.1-16.2-9.4 6.7-13.2 17.5-10.6 28.5.9 3.6 1.8 7.3 2.9 10.9.8 2.6.4 4.8-1.4 6.8-2.9 3.3-6.2 5.8-10.5 7.4-8.2 3.1-16.3 6.5-24.4 10-7.7 3.3-15.2 7-22.9 10.3-7.1 3-11.2 1.8-15.7-4.5-5.4-7.7-11.4-14.9-17.9-21.6-4.8-5-10.4-8.7-16.7-11.4-1.7-.7-3.8-.5-6-.7-.8-1.8.2-3.5 1.4-4.8 2.2-2.6 4.6-5.1 7.1-7.5 5.7-5.5 11.7-10.8 17.3-16.3 5.6-5.5 11-11.1 16.3-16.7 3.4-3.6 6.5-7.4 9.8-11 1.2-1.3 1.7-2.7 1.7-4.6 0-3 .8-6 1.1-9 .1-.7 0-1.4-.1-2.5h-3.9c-6.9.4-13.9 1.2-20.7 1-3.7-.1-7.4-2-11-3.5-3.7-1.5-7.2-3.7-10.9-5.2-7.2-3-14.6-5.5-21.7-8.6-4.1-1.8-8-4-11.8-6.4-3.3-2-3.3-3.4-1.3-6.7.8-1.3 1.3-2.8 2.1-4.6 4.6-1 7.7-4.7 11.3-7.7 5.4-4.4 11-8.4 17.2-11.6 2.8-1.4 5.3-3.4 7.7-5.4 3.4-2.9 5.2-3.2 8.7-.4 1.7 1.3 3 3.1 4.5 4.7 1.2 1.3 2.5 2.6 4 4.2 2.4-3 2.7-6.2 3.4-9.2 4.4-18.7 8.7-37.4 13-56.1 1.1-4.8 4.9-7.1 8.8-8.9 6.2-3 12.5-5.8 19.6-6.4 6.3-.5 12.5-2.5 18.8-3.2 5-.5 10.1-.2 15.1.3 6.4.7 9.6 5 8.8 11.4-.3 2.4-.8 4.8-1.1 7.3-.2 1.2-.2 2.5-.4 4.4 1.8-.1 3.2 0 4.5-.3 10.9-2.9 22.1-4 33.4-4.9 4.9-.4 5.3-.1 7.6 4.5 3.6 7.3 9.2 12.9 15.4 17.9 2 1.6 4.9 2.5 7.5 3.2 7.1 1.8 14.5 2.9 21.5 5.1 10.3 3.3 20.8 4.8 31.4 5.8 11.8 1.1 23.3-.4 34.9-2.4 1.8-.3 3.7-.5 5.5-1 7.1-1.9 14.3-3.6 21.2-6 10.2-3.4 20.4-7.2 30.5-11.1 4.7-1.8 9.4-3.9 13.6-6.6 6.6-4.1 13.4-7.8 20.9-10.3 8.1-2.7 15.9-6 24-8.6 3.5-1.2 7.4-1.4 11-2.4 19.3-5.2 38.7-9.4 58.7-10.5 8.2-.4 16.4-.1 24.6.3 4.1.2 8.1 1.8 10.9 4.8 3.4 3.6 7.8 4.8 12.1 6.2 1.1.4 2.3.3 3.4.8 9.8 4.2 20.2 6 30.4 8.3 13.6 3 27.3 5.1 41.2 4.3 4.3-.2 5.1 1 4 5.1-1.6 5.8-4.8 10.6-10.2 13.5-7.1 3.8-14.4 7.2-21.8 10.6-4.8 2.2-10 3.8-14.7 6.3-7.5 3.9-15.7 5.9-23.7 8.3-9.7 2.9-19.3 6-29 8.9-12.5 3.7-24.9 7.4-37.5 10.7-13.8 3.7-27.7 7-41.6 10.4-2.2.6-4.5 1.1-6.7 1.7-4.9 1.3-9.4 3.1-13 7.2-2.7 3.1-6.4 5.3-9.8 7.7-2.9 2.1-6.1 3.8-9.1 5.9-8.7 6.1-18.8 8.7-28.7 11.7-13 3.9-26 7.8-38.9 11.8-11.7 3.7-23.1 8.3-33.8 14.5-2.9 1.6-5.7 3.5-8.2 5.6-1.2 1-2.1 2.7-2.6 4.3-1.9 6-3.9 12.1-5.3 18.3-.9 4-1 8.3-1 12.5 0 5.7-2.1 9.5-6.8 13-10.7 7.9-22.8 13-34.4 19.2-7.3 3.9-14.8 7.2-23 8.7-3.4.6-6.8 1-10.3 1.6-3 .5-5.3-.4-7-3-1.8-2.8-3.8-5.4-5.7-8.1-6-8.5-12.2-16.9-18-25.5-2.9-5-5.1-10-7.9-14.5zm61.7 38l-3 3.3c.3.3.7.6 1 .9 2-.5 2.2-2.3 2-4.2zm-6.2 3.9c-.2-.1-.5-.2-.7-.3-.3.6-.5 1.2-.8 1.8.2.1.5.2.7.3.3-.6.6-1.2.8-1.8zm15-7.5c-2.2.2-3 1.8-2.9 4.2 1.2-1.1 2.4-2.2 3.7-3.3-.3-.3-.6-.7-.8-.9zm9.9-4.3c-1.2.4-2.8.4-2.8 3.5 1.5-1.3 2.5-2 3.4-2.8-.2-.3-.4-.5-.6-.7zm17.2-8.5c-9.2 4-9.2 4-10.2 6.1 3-.3 5.1-1.5 10.2-6.1zm48.7-69.8c-1.8 1.9-3.1 3.4-5 5.5 4.7-1.1 4.7-1.1 5-5.5zm-7.2 4.7c-.2-.3-.5-.5-.7-.8-2.1 1.1-3.4 2.8-4.3 4.9.2.2.5.4.7.6 1.5-1.6 2.9-3.2 4.3-4.7zm12.3-4.4c2.6-.4 3.1-2.3 3.6-4.1-2.1.6-3.7 1.4-3.6 4.1zm11.5-6.6c-2.9.6-4.2 2.8-5.6 5.5 3.6-.5 4.5-3.2 5.6-5.5zm7.4-2.7c-2.7.6-3.5 2.9-4.7 5.4 3.9-.3 3.5-3.5 4.7-5.4zm7-2.3l-5.3 5.3c6.2-1 6.8-1.5 5.3-5.3zm9.3-2.1c-3.8.8-4.4 1.3-5.1 4.9 3.2-.1 4.1-2.3 5.1-4.9zm13.3-4.7c-3.2.1-4.7 2.1-5.8 5.3 5.1-.5 5.4-.8 5.8-5.3zm10-2.7c-4.4.4-6.3 2.1-6.7 5.8 4 .2 4.3-3.3 6.7-5.8zm11.4-3.8c-5.4.5-8.4 3.2-10.1 7.5 3.8-1.8 9.2-1.2 10.1-7.5zm31.1-19.3c3.4-4.1 6.8-8.2 10-12.5 1.3-1.7 2-3.7 3.3-6.1-5 .5-8.9 1.4-11.3 5.5-2.2 3.7-4.4 7.5-6.9 10.9-2.4 3.3-5 6.8-8.1 9.4-3.7 3.2-8 5.6-12.1 8.3-1.9 1.3-3.1 2.9-3.7 5.9 1.5-.7 2.4-1.1 3.2-1.6 5.1-3 10.3-5.8 15.1-9.2 2.8-1.9 5-4.7 7.4-7.1 1.2-1 2.1-2.3 3.1-3.5zm15.5-4.6c4.4-4.3 8-9.3 11.4-15.7-4 .1-7.2.1-9.2 2.8-3.5 4.8-6.8 9.9-10.5 15.3 3.5 0 6.4-.5 8.3-2.4zm4.8-1.3c4.7-4.4 8.3-9.6 12.3-15.4-1.5 0-1.8-.1-2 0-.5.3-.9.7-1.2 1.1-2.7 4.1-5.3 8.2-7.9 12.3-.5.7-.8 1.4-1.2 2zm10.5-3.1c2.7-3.9 5.4-7.8 8-11.8.3-.5.4-1.2.6-1.8-.4-.3-.7-.5-1.1-.8-5.2 4.6-8.7 10.6-13.5 16.8 3.2-.1 4.8-.7 6-2.4zm9.2-3.6c.3-.9 1.1-1.7 1.6-2.5 1.9-3 3.8-5.9 5.9-9.2-2.3-.5-3.4.6-4.4 1.8-2.8 3.6-5.5 7.3-8.2 11-.5.7-.8 1.6-1.3 2.7 3.2 0 5.3-.9 6.4-3.8zm6.7-.5c1.3-1.9 2.8-3.6 4.2-5.4 1.9-2.4 3.9-4.8 5.8-7.2-.2-.3-.3-.5-.5-.8-1.1.3-2.4.4-3.3 1.1-4.9 3.8-8.2 8.9-11.5 14.6 2.5-.2 4.1-.6 5.3-2.3zm30.2-8.5c1.8-2.2 3.6-4.5 5.4-6.7 1.3-1.6 2.8-3.1 4.7-5.2-3.6.1-5.6 1.5-7.2 3.3-2 2.2-3.9 4.6-6 6.8-.6.6-1.5 1-2.9 1.9 1-4.4 4.4-6.1 6-9.1-.3-.2-.5-.5-.8-.7-1.3 1.1-2.7 2-3.9 3.2-2.8 2.9-5.5 5.9-8.2 8.9-.7.8-1.3 1.9-3 1.1 1.8-4.5 6.4-6.7 8-11.1-2.3 1.7-4.1 3.8-6.2 5.5-2.2 1.8-3.3 4.8-6.9 5.2 1.7-2.3 3.3-4.6 5-6.9-4 3.4-8.3 6.4-10.4 11.6.8.2 1.1.4 1.4.4 7.6-2.1 15.3-4.2 22.9-6.4.8-.2 1.5-1.1 2.1-1.8zm28.8-16.5c-1.9-.5-3 .7-4.1 1.7-3.5 3.1-6.8 6.2-10.3 9.3-.7.6-1.5 1-3 1.9 1.4-4.7 5.4-6.5 7.4-10.2-1 .1-1.7-.1-2.1.2-3.8 3.3-7.6 6.6-11.4 10-1 .9-1.8 2.1-3 3.6 12.3-1 20.6-6.8 26.5-16.5zm10-3.3c-6.1 3-10.4 7.8-14.3 13.2 6.5-2.5 9.7-8.6 14.3-13.2zm2.5 6.1c.5-1.3 1.9-2.1 2.8-3.2 1.3-1.5 2.5-2.9 3.7-4.4-6.1 2-9.7 6.8-13.7 11.3 3.2 0 5.9-.4 7.2-3.7zm37.2-14.2c.4-1 1.6-1.6 2.5-2.4.7-.6 1.4-1.1 2.1-1.7-5.1 0-6.5.6-9.2 3.2-1.8 1.7-3.5 3.5-5.3 5.1-.5.5-1.4.6-2.1.9l-.6-.6 3-5c-6 3.3-9.2 9.1-14.7 11.9-.2-.4-.5-.7-.7-1.1 2.5-2.6 4.9-5.2 7.9-8.5-7.1 1.3-15.1 7.9-17.3 13.7 8.3-2.2 16.4-4 23.9-7.8 4.1-1.8 8.6-2.9 10.5-7.7zm23.5-11.5c-8.4 1.5-14.8 6.3-20.9 12.8 9.4-1.1 14.5-8 20.9-12.8zm11.7-6.2c-2.1.9-4.7 1.7-5.7 3.4-2 3.4-5.2 5.2-7.7 7.9 5.6-2.4 11.2-4.8 13.4-11.3zm-203.8.7c5.2.5 10.4 1.1 15.5.7 8.6-.5 17.2-2.1 25.8-2.6 12-.7 23.2-4.2 34.6-7.5 4.4-1.3 8.8-2.8 13.1-4.3 1.8-.6 3.1-1.6 4.1-3.4 1.7-2.9 4.1-5.3 8.2-5.3-2.2 1.9-4.4 3.8-6.5 5.7l.3.6c4.8-1.7 9.5-3.5 15.2-5.5-2.1-1.1-3.2-1.6-4.3-2.2 0-.3.1-.6.1-.8 2.3-.4 4.6-.8 7.1-1.2-5.1-4.3-28.8-6.1-35.3-2.8.4 3.6.7 7.2 1.1 10.9 2 .3 3.5-2.4 5.6-.3-2.2 2.1-4.3 4.2-6.5 6.3-.9-1.2-1.6-2.2-2.6-3.6-2.4 2.2-4.6 4.2-7.3 6.8.1-1.5-.1-2.5.3-3 1-1.4 2.1-2.9 3.5-3.8 3.3-2 4.2-4.5 2.7-8-.2-.4-.2-.8-.3-1.3-.9-4.7-.9-4.8-5.6-4.1-13.2 1.8-26.2 4.2-39 7.7-4.6 1.3-9.2 2.3-13.8 3.6-3.2.9-3.6 1.8-3.3 5 .3 2.9 1.2 5.7 3.7 7.6.5.4.8 1 1.2 1.5-6.7-1.1-8.2-6.3-9.3-12.4-4.1 1.5-7.6 2.8-11.1 4.1-3.6 1.4-7.3 2.7-10.9 4.3-3.3 1.4-7 2.2-9.6 4.9 8.2.8 15.7 1.7 23.3 2.4zm-297.3-20.8c9.1-.9 18.1-1.8 27.5-4.3-8-1.8-23.7.6-27.5 4.3zm-9.1 1c.2.3.3.5.5.8 3.2-.5 3.2-.5 4-3.5-1.8 1-3.2 1.9-4.5 2.7zm-5.4.7c-3.5 1.4-6.6 2.8-9.2 5.7 4.5.4 6.9-1 9.2-5.7zm-14.2 19.2c.1-.9.2-1.8.2-2.6-.2 0-.5 0-.7-.1-.1.9-.2 1.7-.3 2.6.3 0 .6 0 .8.1zm-6 22.5l.3-3h-.8c0 1-.1 2-.1 3h.6zm-63.1 57.6l.5-.5c-.5-.5-1.1-1-1.6-1.5-.2.2-.3.3-.4.5.4.4 1 .9 1.5 1.5zm4.7 1.8c.3-4.4.3-4.4-2.7-5.2.9 1.6 1.6 3 2.7 5.2zm4.4.3c.6-1 .5-1.9.2-2.6-.1-.3-.6-.4-1.8-1.1.7 1.8 1.1 2.7 1.6 3.7zm4.8 2.9c.4-1.3 1-2.8-1.3-3.5.5 1.4.9 2.4 1.3 3.5zm5.1 2.4c.3-.1.6-.3.9-.5-.5-1.1-1.1-2.2-1.6-3.4-.3.2-.6.3-.9.5.5 1.2 1.1 2.3 1.6 3.4zm10.7 5.5l.6-.3c-.4-.7-.7-1.5-1.1-2.2-.2.1-.5.2-.7.3.4.7.8 1.4 1.2 2.2zm12.3.3c.6-.9.9-1.2 1-1.4 2.1-9.6 4.3-19.1 6.3-28.7.2-1.2.1-2.8-.5-3.7-2.4-3.4-5-6.7-7.8-9.8-2.1-2.3-3-2.2-5.6-.5-2.5 1.7-4.9 3.7-7.6 5-8.7 4.2-15.9 10.4-23.1 16.6-.6.5-.9 1.3-1.8 2.5 2.7 1.1 5 2.2 7.4 3.1 1.9.7 4 1 5.7 2 6.3 3.7 12.3 7.7 18.6 11.4 2.2 1.5 4.8 2.4 7.4 3.5zm9.9-21.6c.1 0 .3 0 .4.1.1-.5.3-1 .4-1.5-.2-.1-.5-.2-.7-.2 0 .4 0 1-.1 1.6zm-1.5 8.2h.5c0-.7.1-1.4.2-2h-.9c.1.6.1 1.3.2 2zm-9.5 17.9c-2.2-1.3-4.2-2.5-6.2-3.7 2.1 3.3 3 3.7 6.2 3.7zm25 1.2c.5-1.3 1.7-2.3 2.5-3.5 2.9-4.2 5-8.8 5.4-14 .7-9.1 2-18 4.4-26.8 2.3-8.3 4.3-16.7 8.1-24.6 2-4.2 4.1-8.6 3.4-13.8-.5-5.2-2.1-6.5-7.6-6.1-3 .2-6 .4-9.1.7-3.3.4-3.8.8-4.6 4.1-2.6 11.1-5.4 22.1-7.8 33.2-3.3 15.5-6.3 31.1-9.4 46.6-1.2 6.3-.6 7 5.6 7.5.4 0 .9.1 1.3.1 3.4.5 6.4.5 7.8-3.4zm2 3.8c2.6-.5 4.7-.9 6.8-1.3 2.3-.4 3.2-1.8 3.7-4.1 1-5.1 2.4-10.1 3.4-15.2.5-2.5.6-5.1 1.2-7.7.8-3.5 1.9-6.9 2.8-10.4 1.5-6.2 2.5-12.5 4.3-18.6 2.3-7.7 5.2-15.3 7.8-23 2-5.9 9.7-11.5 16-11.5.7 0 1.4.3 2.1.4 2 .2 3.9.6 5.9.4 2.6-.2 5.1-.9 8.2-1.6 1.1-2.5 1.9-5 1.2-7.8-.3-1.2 0-2.5.2-3.8 1-5.5 2.2-11 3.2-16.5.1-.7 0-1.5-.1-2.2-.6-3.4-2.7-4.4-5.9-3.2-2.7 1-5.5 1.9-8.3 2.4-6.8 1.2-13.7 2-20.6 3.1-6 1-11.8 2.5-17.3 5.2-8.3 4-9.3 11.7-11.4 19.4 1.2.2 1.9.4 2.6.3 3-.2 6.1-.4 9-.8 6.3-.9 10.4 2.1 10.9 8.5.3 3.6-.2 7.2-1.7 10.6-1.7 3.8-3.6 7.6-4.9 11.5-2.5 7.7-5 15.4-6.8 23.3-1.4 6.1-2 12.5-2.7 18.8-.5 4.3-1 8.6-3.2 12.5-2 3.7-4 7.1-6.4 11.3zm53.8-68.5c3.9 0 5.4 2.2 4.6 6-.2.7-.4 1.4-.7 2.1-4.6 10.3-8 21-10.6 32-2.2 9.3-4.4 18.5-6.3 27.8-.8 3.7-1.2 7.4-3.8 10.4-.5.6-.5 1.5-1.1 3.2 2-.4 3.1-.4 4.1-.8 7.8-2.9 15.8-5.2 24-6.8 9-1.8 18-4.1 26.9-6.6 4.1-1.2 8-3.3 11.7-5.4 4-2.2 5.8-5.8 5.1-10.5-.9-6.3-2-12.5-2.6-18.8-1-9.6-2.8-19-5.8-28.3-2.5-7.8-4.3-15.9-3.3-24.3.3-2.7-.6-3.4-3.2-3.2-1.1.1-2.3.3-3.4.4-5.9.7-11.7 1.7-17.6 2.1-3.2.2-6 .6-7.5 3.8-.1.3-.8.3-1.6.6-1.5-4.5-4.9-3.3-8.1-2.5-1.4.3-2.8.7-4.2.8-5 .6-8.7 3.1-10.9 7.5-1.7 3.3-3 6.8-4.3 10.3-.3.8-.2 1.9-.3 3.3 1.6-.3 2.9-.4 4.1-.7 2.1-.5 4.2-1.2 6.3-1.5 2.8-.5 5.6-1 8.5-.9zm-16-16.4c-4.1 4.2-6.7 9-6.8 15 2.3-5 4.6-10 6.8-15zm-11.2 28.1h.7c.4-1.6 1.3-3.2 0-4.9-.2 1.6-.4 3.2-.7 4.9zm-3.2 16.3c.2-.6.4-1.1.6-1.7h-.9c.1.6.2 1.2.3 1.7zm-2.9 10h.8c0-.5 0-1-.1-1.5h-.6c0 .5 0 1-.1 1.5zm-1.9 11.6c.3 0 .6 0 .8-.1 0-1.4-.1-2.8-.1-4.1-.4 0-.8.1-1.1.1.1 1.4.2 2.8.4 4.1zm-1 7.8c-.1.2-.2.5-.1.7 0 .1.3.2.6.4 0-.4.1-.8.1-1.2-.2.1-.5 0-.6.1zm-.7 11.4c0-.5 0-1 .1-1.6h-.9c.1.5.2 1.1.3 1.6h.5zm-6 11.5c2.9-2.7 2.9-2.7 1.1-6.1-.4 1.8-.7 3.4-1.1 6.1zm18.9 2.5c.2-.2.5-.4.6-.6 2.1-3.9 4.9-7.7 6-11.8 3.2-11.8 5.5-23.9 8.5-35.8 1.9-7.5 4.6-14.9 7-22.3.8-2.6 2-5 3.2-8-1.5-.4-2.3-.8-2.9-.7-5.5 1.2-11 2.3-16.4 3.7-2.9.7-4.5 3-5.1 5.9-.8 3.7-1.5 7.3-2.3 11-1.7 7.6-3.8 15.1-5.1 22.8-1.7 10.1-2.7 20.3-3.9 30.5-.3 2.6-1.1 6 1.9 7.4 2.9 1.4 5.9-.3 8.5-2.1zm-61.6 49.3c1.3-1.5 2.5-3.1 3.8-4.6-.3-.2-.6-.4-1-.7-1.4 1.4-3.4 2.4-3.6 4.6.2.3.5.5.8.7zm-5.5 9.2c-.8-1.4-1.2-2.2-1.7-3-1.4 2.1-.3 2.5 1.7 3zm70.1 24.1c-.4.7-.8 1.4-1.3 2.1.4.3.8.6 1.3.9.5-.6 1.1-1.2 1.6-1.8-.5-.4-1-.8-1.6-1.2zm32-15.2c-1.9.9-3.7 1.9-5.5 2.8-5.5 2.7-10.7 5.4-16 8h-.2v.1c-1.8.4-3.7.7-3.9 3.4 2.4-.3 3.5-1.5 3.9-3.4h.2c1.1 0 2.2 0 3.3-.1 6.7-.8 14.1-4.3 17.1-8.5.5-.9.9-1.6 1.1-2.3zm7.4-43.5c1.2-1.7 1.9-3.1.6-5.1-4.5-6.7-8.9-13.5-13.3-20.2-1.2-1.8-2.6-2.5-4.7-1.8-5.5 1.8-11 3.6-16.5 5.3-4 1.3-8 2.6-11.9 3.9-3.5 1.1-6.8.8-10.2-.5-.9-.4-1.9-.8-2.8-1.1-1.4-.5-2.5-.2-3.3 1.1-1.4 2.2-2.8 4.4-4.4 6.4-6 7.4-11.7 15.1-18.1 22-5.5 5.9-12 10.8-16.7 17.5-2.9 4.1-3.4 5.9 0 9.8 8.6 9.8 17.4 19.3 27.2 27.9 2.2 1.9 2.2 1.9.8 4.9 3.3 2.8 4.7 3.4 8.2 2.2 4.6-1.6 9.1-3.7 13.6-5.7 1-.4 1.6-1.6 2.4-2.5l-.6-.9c-2.7 1.2-5.5 2.4-8.2 3.4-1.3.5-2.7.9-4.1 1.1-.5.1-1.3-.7-1.4-1.2-.1-.5.4-1.4.9-1.7.7-.4 1.6-.5 2.5-.7 4.5-1.6 9.1-2.8 13.5-4.8 11.9-5.2 23.7-10.7 35.5-16.1 1.4-.6 2.7-1.5 4.1-2.2-.9-4.2-1.6-8-2.4-11.8-1.4-6.6-.9-13 2.6-18.9 1.7-3.6 4.2-6.9 6.7-10.3zm14.3 7.3c-.2-2.4.3-4.9-.7-5.8-2.7-2.4-2.2-5.5-2.9-8.3-.2-.8-.5-1.6-.9-2.7-1.1 2.1 1.1 4.2-1.3 5.9-2.7-5.8-2.7-11.7-2.9-17.7 1.4 1.6 2.5 3.4 3.5 5.2 6 11.2 12.5 22.1 20.6 32 5.3 6.4 9.9 13.5 14.7 20.4.6.8.8 1.9 1.2 2.8-.3.1-.5.3-.8.4-.8-1.1-1.6-2.2-2.5-3.3-2.7-3.5-5.3-7.1-8-10.6v-.1c-.1-.2-.2-.3-.2-.5-.1-.1-.1-.2-.2-.4 0 0 0-.1-.1-.1-.1-.1-.1-.2-.2-.3l-.1-.1-.3-.3-.1-.1c-.1-.1-.2-.2-.4-.3l-.1-.1c-.1-.1-.3-.2-.5-.3 0 0-.1 0-.1-.1-.2-.1-.4-.2-.7-.2-.3-.1-.5-.1-.8-.2.7 3.8 1.2 7.2 2 10.5.6 2.5 0 5.3 2.4 7.2.3.2.5.5.8.7 3.5 5.1 6.9 10.2 10.5 15.2 1.2 1.7 2.4 3.3 3.6 5 2.4 3.3 7.2 4 10.9 2.2.5-.3.6-1.2 1-1.9-2.2-.6-4.6 1.3-6.3-1.4.6-.4 1-.9 1.5-1 5.3-1.8 10.7-3.3 16-5.3 10.4-4 20.7-8 30.9-12.4 4.8-2 9.4-4.4 13.8-7.2 2-1.3 3.5-2 5.4-.7 2.6-3.4 2.9-4.1 2.6-8.2-.6-8.2.7-16.1 3.7-23.7 1.5-3.8 3.1-7.6 3.5-11.6.5-4.5 1.9-8.1 4.7-11.8 5.3-6.8 9.7-14.3 14.5-21.5.4-.6 1.4-.7 2.1-1.1.3.9 1.1 1.9.9 2.5-.5 1.5-1.4 2.8-2.3 4.1-2.1 3-4.2 6-7 9.9 2.6-.9 4.2-1.3 5.7-2.1 7.5-3.8 15-7.4 23.1-9.9 9.5-2.9 19-5.9 28.5-8.9 4.6-1.4 9.7-1.9 12.7-6.7l2.2 2.2c12.5-2.8 23.7-7.7 33.7-15.5 4-3.1 7.5-6.3 10.1-10.6 1.3-2.1 2.6-4.2 3.8-6.3.7-1.2 1.5-2.4.6-4-1.1-2 .1-3 1.9-3.4 2.7-.6 4.5-2.4 6.2-4.5 1-1.2 2.4-2.2 4-3.7.7 1.8 1.1 3 1.6 4.4 1.1-.1 2.3-.2 3.4-.3 5.7-1 11.3-2 17-3.1 10.5-2 21-3.9 31.4-6.2 5.2-1.1 10.7-1.4 15-5.1.3-.3 1-.6 1.2-.4 2.4 1.6 4.4-.5 6.5-.6 6.5-.3 12.3-2.8 18.4-4.4 11.4-2.9 22.2-7.7 33.8-10.1 10.3-2.1 20.2-5.9 30.2-9.1 2.5-.8 4.8-2 7.3-3.1-.1-.3-.2-.6-.3-.8-1.2.2-2.5.4-3.7.5l-.3-.9 9-4.2c-2.2-1.2-4.4-1.5-6.6-1.9-7.6-1.2-15.2-1.9-22.7-3.6-10.3-2.3-20.4-5.4-30.5-8.1-2.9-.8-6.1-1-8.7-2.4-4.5-2.4-8.6-1.6-12.8.4-11.1 5.4-22.6 9.4-34.4 13.1-1.3.4-2.6.9-3.6 1.3 3.3 6 7 11.4 9.4 17.4 3.1 7.8 2.6 14.9-.4 19.4-.2-7.1-.2-13.4-2.6-19.3-2.5-6.1-6.7-11-11-16.1-1.1.3-2.2.5-3.3.8-7.6 2.3-15.4 3.8-23.4 4.3-6 .4-12.1 1-18 1.9-11.3 1.7-22.5.6-33.6-1.1-9.4-1.4-18.8-.8-27.8 2.4-10.3 3.7-20.5 7.8-30.7 11.9-13.2 5.3-26.6 9.1-40.9 10.6-12.2 1.3-24.4 2.3-36.7 1-7.4-.8-15-.3-21.8-4.2-.5-.3-1.1-.3-1.7-.5-7.3-1.7-14.6-3.4-21.9-4.9-4.8-1-8.9-3.3-12.6-6.4-5.4-4.5-10-9.6-13.4-15.7-1.8-3.3-4.1-4.5-7.7-4-5.7.7-11.5 1-17.2 2-5.1.8-10.1 2.3-15.2 3.5-1.5.4-3.2.9-3.4 2.8-.3 3-.6 5.9-.9 9.4 2 0 3.5.3 4.8.1 7.3-1.1 14.5-2.2 21.8-3.6 4.2-.8 6.4.6 6.7 4.9.1 1-.1 2-.1 3-.6 8.6.9 16.9 3.6 25.1 1.4 4.4 2.7 8.8 3.6 13.3 1.3 6.8 2.3 13.7 3.3 20.5.6 4.3 1 8.6 1.4 12.9.3 4.6-1.3 8.3-5 11.4-4 3.3-8.6 5.5-13.4 6.8-8.8 2.4-17.7 4.4-26.5 6.5-1.4.4-2.8 1-4.2 1.4 1.4 5.4 18.5 31 23.7 35.8zm6.4 1.7c1 2.8 1.6 4.9 2.5 7.5.7-3.1.9-5.5-2.5-7.5zm-4.2-.7c0 .9.2 1.7.3 2.5.4 2 1.1 4 2.1 5.8.1.3.3.5.5.8.2.4.4.8.7 1.1.4.6.9 1.2 1.4 1.8v.1s.1 0 .1.1c1.3 2.1 2.7 4.3 4 6.4v.2h.1c.7 1.8 1.3 3.6 3.1 4.6.3-4.1.6-7.9.7-11.7 0-1.6-1.1-2.7-3.4-3.5.6 3.1 1 5.6 1.6 8.1.4 1.8 0 2.8-2 2.6l-.1-.1c-.5-2.7-1.6-4.9-4-6.4 0 0 0-.1-.1-.1 0 0 0-.1-.1-.1-1.5-5.6-3.1-11.1-4.6-16.7-.2.8-.3 1.6-.3 2.4v2.1z" data-color="1"/>
        <path fill="#484819" d="M182.656 214.589c1.5-.7 1.3-1.9 1-3.3-.8-4-1.6-8-2.4-12.1v-.1c-1.2.7-1.6 1.8-1.6 3v.6c0 .2 0 .4.1.6.6 3.5 1.4 7 2.1 10.6.3.2.5.4.8.7z" data-color="1"/>
        <path fill="#484819" d="M182.656 214.589c-.3-.2-.5-.5-.8-.7.3.2.5.4.8.7z" data-color="1"/>
        <path fill="#484819" d="M183.656 211.289c-.8-4-1.6-8-2.4-12.1.9 4 1.6 8 2.4 12.1z" data-color="1"/>
        <path fill="#484819" d="M179.656 202.089c0-1.2.5-2.2 1.6-3-1.2.7-1.6 1.8-1.6 3z" data-color="1"/>
        <path fill="#484819" d="M253.156 95.29c.7-.3 1.5-.3 3-.6-2 3.1-3.7 5.4-5.1 7.9-1.4 2.4-4.2 4.2-3.8 7.7 1.4-.8 2.5-1.8 3.3-3.1 2.9-4.1 5.9-8.2 8.4-12.6 1.5-2.5 3.4-3.6 6.5-4.3-2.7 4.8-6.5 8.2-7.8 13.1 1.1-.2 2-.7 2.5-1.3 2.8-3.9 5.5-7.8 8.2-11.7 2.2-3.3 6.2-5.2 10.5-5-1 3.1-4.1 5.3-4.6 8.9.9 0 1.5-.1 2.2-.1-1.8 3.4-4.5 5.9-4.7 9.8 4.8-6.4 9.8-12.7 14.3-20.2-1.8.2-2.9.3-3.9.4-.1-.3-.1-.6-.2-.9l19.8-7.2c-1.7 3.6-3.8 6.5-5.8 9.5-2 2.8-4.5 5.3-4.8 9 2.2-2.2 4.1-4.7 6-7.2 2.3-3.1 5.3-6 6.8-9.5 1.4-3.3 3.3-3.7 6.6-3.8-2.2 3.3-4.2 6.1-5.8 9.1-1.6 3-4.1 5.7-4.1 9.6 1.3-1 2.2-2.2 3-3.4 3.3-5.2 6.6-10.5 10-15.7.6-.9 1.6-1.6 2.6-1.9 6.9-2.2 13.8-4.3 20.7-6.3 1.3-.4 2.7-.5 4.7-.9-2.5 2.9-4.5 5.1-6.5 7.4-4.7 5.4-4.6 5.4-4.5 8.1 4.4-4.8 9.1-8.9 12.1-13.9 2.1-3.5 4.6-3.4 7.6-3.9-1.6 2.3-3.4 4.3-5.1 6.4-1.8 2.1-4.2 3.7-4.4 6.9 1.3-.7 2.3-1.7 3.2-2.7 3.4-3.6 6.7-7.2 10.1-10.7 1.6-1.6 3.3-2.8 6.3-1.9-2.1 5.2-6.7 8.9-8.4 14.1.3.2.6.4.8.5 4.3-6 8.6-11.9 13.1-18.2-1-.2-1.8-.6-2.4-.5-4.5.8-9.1 1.5-13.6 2.7-9.2 2.5-18.2 5.5-27.4 8.1-17.9 5.1-35.5 11.3-52.7 18.4-9.2 3.8-18.3 7.8-27.4 11.9-5.3 2.4-10.4 5-15.6 7.6-1.3.7-3 1.3-2.9 3.3 2 1.4 3.4-.3 4.8-.9 8-4.2 16.2-8.2 24.4-12z" data-color="1"/>
        <path fill="#484819" d="M273.755 136.589l-9 13.2c-7.8 11.3-12.9 23.5-13.6 37.3-.2 3.8-2.3 6.1-5.4 7.7-3.9 1.9-7.799 3.7-11.699 5.7l-27.301 14.1c-1.1.6-1.9 1.4-3 2.2 1.3 2.1 2.7 1.7 4 .9 1.5-.9 2.9-2 4.4-2.7 8.1-4.1 16.301-8 24.401-12 4.4-2.2 8.799-4.4 13.099-6.7 3.2-1.7 4.601-4.4 4.901-8.1.9-11.8 4.099-23 10.599-33 3.9-6 8.1-11.9 12.2-17.9.7-1 1.4-1.8 2-2.8 1.1-1.9.8-2.9-1.2-3.7-1.5-.6-3-1.1-4.5-1.4-3.9-.8-6-3.3-6.5-7.1-.4-2.7-.699-5.4-1.099-8.2-.3-1.7-.5-3.4-3.1-3.6-.2.8-.5 1.5-.4 2.1.7 4.6 1.5 9.1 2.4 13.6.5 2.6 2.399 4.2 4.699 5.3 1.8.9 3.501 1.8 5.401 2.9-.7 1-.901 1.6-1.301 2.2z" data-color="1"/>
        <path fill="#484819" d="M237.355 75.99c-1.1-.3-2.3-.4-3.4-.6-9.4-1.5-18.8-3-27.6-7.1-2.2-1-4.3-2.3-6.6-3.3-.9-.4-2.7-.7-3-.2-1.1 1.5.5 2.2 1.5 2.9.9.7 1.9 1.3 2.9 1.8 9.3 4.5 19.1 7.3 29.5 7.8 2.3.1 4.8.7 7.1-.4-.1-.5-.2-.9-.4-.9z" data-color="1"/>
        <path fill="#484819" d="M215.256 191.489c.5.2.9.5 1.4.7 8.1-18.7 17.4-36.8 23-56.6-2.6 1.4-3.2 4-3.8 6.4-3.3 12.5-9.6 23.8-14.4 35.7-1.9 4.7-4.1 9.2-6.2 13.8z" data-color="1"/>
        <path fill="#484819" d="M243.155 137.789c-.7 1.4-1.5 2.7-2 4.1l-18 45.9c-.2.6-.1 1.4-.1 2.1 9.2-16.5 14.1-34.5 21.5-51.5-.5-.2-1-.4-1.4-.6z" data-color="1"/>
        <path fill="#484819" d="M253.355 141.39c-3.9 4-13.2 26.2-12.7 29.8 4.2-9.9 8.5-19.8 12.7-29.8z" data-color="1"/>
        <path fill="#484819" d="M335.055 67.29c-4.3 1.9-12.5 11.8-14 16.5.3.2.5.4.8.6 2.2-2.8 4.5-5.4 6.6-8.3 2-2.9 5.5-4.7 6.6-8.8z" data-color="1"/>
        <path fill="#484819" d="M322.555 72.089c-4.1 1.5-11 10.9-12.2 15.9.2.2.5.4.7.6 1.9-2.6 3.8-5.2 5.6-7.8 2-2.8 4.7-4.9 5.9-8.7z" data-color="1"/>
        <path fill="#484819" d="M295.355 81.589c-3.1 1.1-11.6 12.9-12.3 16.8 6-4.8 8-11.6 12.3-16.8z" data-color="1"/>
        <path fill="#484819" d="M243.755 101.39c-3 1.7-5.9 7.3-5.5 10.8 2.6-2.4 5.4-8 5.5-10.8z" data-color="1"/>
        <path fill="#484819" d="M535.355 19.89c-3.4 1.7-5.9 4.3-7.5 7.8 3.4-1.7 6-4.2 7.5-7.8z" data-color="1"/>
        <path fill="#484819" d="M541.855 21.089c-2.7 1-4.2 2.3-4.3 4.9 2.1-.9 3.8-2.1 4.3-4.9z" data-color="1"/>
        <path fill="#484819" d="M557.556 23.99c-2.6 1.5-4.4 2.4-4.8 5 2.1-.7 4-1.6 4.8-5z" data-color="1"/>
        <path fill="#484819" d="M187.556 213.489c.3 1.3.499 2.7.799 4 .4-.1.801-.1 1.101-.2.6-1.6.3-2.9-1.9-3.8z" data-color="1"/>
        <path fill="#484819" d="M548.056 21.89c-2.2 1-3.5 1.7-3.2 4.7 1.8-1.2 3-2.1 3.2-4.7z" data-color="1"/>
        <path fill="#484819" d="M97.455 173.589c-1.8 2.8-3.6 5.6-5.5 8.3-1.4 1.9-2 3.7-1.7 6.3 1 8.9 1.5 17.8 2.2 26.7.2 2 .6 3.9.8 5.9l-1.2.3c-2.2-3.1-1.5-7-2-10.5-.5-3.6-.7-7.2-1-10.8-.4-3.7-.7-7.4-1.1-11.5-2.6 3.2-5.1 6.2-7.6 9.3-.4.5-.6 1.3-.6 2 .1 5.4 1.1 10.6 3.1 15.6.2.6.9 1 2.1 1.3-.5-3.3-1.1-6.5-1.4-9.8-.3-3.2-.3-6.5-.5-9.7.3-.1.7-.1 1-.2.2.7.6 1.3.7 2 .8 6.3 1.5 12.6 2.4 18.9.1 1 .9 2.1 1.6 2.8 1.6 1.3 3.4 2.2 5.1 3.3.8.5 1.5 1.2 2.9 2.3-1.7.3-2.7.8-3.4.6-1.5-.5-3-1.2-4.2-2.2-6.3-5.3-12.5-10.7-18.7-16.1-.6-.6-1.1-1.3-1.6-2-1.1-1.5-1-2.9.6-4.1 1.2-.9 2.2-1.8 3.4-2.7 7.4-5.3 11.9-12.9 16.8-20.2 1.7-2.5 3.2-5.1 5-7.6.5-.7 1.8-1.4 2.4-1.2 1.3.6 1.1 1.9.4 3zm-21.4 27.6c-1.3 1.1-2.5 2.1-3.9 3.3 2 2.8 3.6 4.9 6.7 6.3-.8-3.5-.2-6.7-2.8-9.6z" data-color="1"/>
        <path fill="#484819" d="M94.155 191.289c.3 3 .7 6 1 9l.9 9c.4 2.8-.4 5.9 2.4 9-.9-12.1-1.6-23.2-2.5-34.4 0-.5-.5-1-1.2-2.4-1.7 3.9-.9 6.9-.6 9.8z" data-color="1"/>
        <path fill="#484819" d="M104.855 205.089c-.6-7.7-1.4-15.4-2.2-23.1 0-.3-.4-.6-.7-1-.3.1-.6.1-.9.1.3 8.2 1.8 16.1 3.8 24z" data-color="1"/>
        <path fill="#484819" d="M453.255 27.79c3.1-2.7 6.2-5.5 9.3-8.2-.2-.3-.4-.6-.5-.8-1 .4-2 .7-3 1.1-.8.3-1.9 1.2-2.3.9-2.9-1.8-4.5.9-6.6 1.7-.1.2-.3.4-.4.6-.3 1.1-1.5 2.1-1.5 3.5v.1c0 .2.1.5.2.8.1.3.3.6.5.9 1.6-1.8 3-3.4 4.7-5.3.1 2-2.1 2.9-.4 4.7z" data-color="1"/>
        <path fill="#484819" d="M448.355 27.49c-.1-.3-.2-.5-.2-.8.1.2.1.5.2.8z" data-color="1"/>
        <path fill="#484819" d="M450.155 22.49c-.4-2.3-.999-2.8-2.299-1.5-2.1 1.9-3.9 4.1-5.8 6.3-.4.5-.3 1.4-.5 3 3.2-2.8 5.699-5 8.199-7.2.1-.2.3-.4.4-.6z" data-color="1"/>
        <path fill="#484819" d="M435.755 30.39c2.8-3 5.3-5.6 8-8.5-4.5-.1-8 3.5-8 8.5z" data-color="1"/>
        <path fill="#484819" d="M463.756 24.789c2.6-2.5 4.9-4.7 7.4-7.1-4.5-.5-8 2.8-7.4 7.1z" data-color="1"/>
        <path fill="#484819" d="M434.355 26.39c1.1-1.4 3-2.6 1.9-5.4-2.8 2.9-5.5 5.3-7.1 8.6.4.3.7.7 1.1 1 1.4-1.4 2.9-2.7 4.1-4.2z" data-color="1"/>
        <path fill="#484819" d="M88.255 58.39c-2 2.6-4 5.3-6 7.9-3.7 4.8-4.1 5.6-3.6 8.2 6.1-7.2 11.2-14.6 15.9-22.5-3.6.8-4.5 4-6.3 6.4z" data-color="1"/>
        <path fill="#484819" d="M87.755 68.79c-2.2-.2-3.3 1.2-4.1 2.6-3.1 5.1-7.7 9.4-9 15.6 5-5.6 9.3-11.6 13.1-18.2z" data-color="1"/>
        <path fill="#484819" d="M117.656 82.39c-.4.1-1 0-1.2.3-5 8.1-9.9 16.1-14.8 24.3-.3.5-.2 1.3-.4 2.9 5.3-5.3 16.2-23.8 16.4-27.5z" data-color="1"/>
        <path fill="#484819" d="M116.355 96.19c.1-.7-.3-1.5-.5-2.2-.3-.1-.6-.1-.9-.2-2.4 5.4-4.7 10.699-7.1 16.099 3.3-2 7.9-10.2 8.5-13.7z" data-color="1"/>
    </g>
</svg>
