<?xml version="1.0" encoding="UTF-8"?>
<svg data-bbox="45.223 114.949 544.126 357.863" xmlns="http://www.w3.org/2000/svg" viewBox="0 0 624 521" height="521" width="624" data-type="color">
    <g>
        <path fill="#484819" d="M228.846 182.641l-5.38 24.926c-.218 1.201-.751 2.436-1.276 3.448-.148.398-1 .459-1.587.619-.118-.496-.41-1.132-.305-1.621 1.786-8.085 3.796-16.163 5.582-24.248 1.821-7.771 3.285-15.598 5.329-23.361 1.784-6.654 4.28-13.194 6.42-19.791.147-.398.469-.656 1.029-1.354 1.12 2.677.16 4.659-.527 6.516-4.131 11.364-6.662 23.094-9.285 34.866z" data-color="1"/>
        <path fill="#484819" d="M241.383 168.733c.272-.126.412-.3.685-.425l.53.196c.216.231.523.42.649.692l19.414 34.329c.167.364.243.769.41 1.132a.216.216 0 0 1-.098.266l-.545.25c-8.176-11.32-13.835-24.347-21.045-36.44z" data-color="1"/>
        <path fill="#484819" d="M258.342 209.693c-2.167-3.517-3.95-6.439-5.867-9.41-1.783-2.922-3.385-5.928-5.441-8.725-3.722-5.222-4.781-7.047-4.855-8.884 2.979 1.932 15.939 22.939 16.163 27.019z" data-color="1"/>
        <path fill="#484819" d="M287.064 179.758c-4.201-6.983-8.451-13.834-12.778-21.09 3.28 2.344 12.672 17.507 12.778 21.09z" data-color="1"/>
        <path fill="#484819" d="M281.338 160.599c.899 1.238 1.665 2.426 2.565 3.664-.231.216-.504.341-.735.557-.808-1.279-1.616-2.558-2.334-3.88.182-.083.364-.167.504-.341z" data-color="1"/>
        <path fill="#484819" d="M254.35 118.416c9.92-.928 19.866-1.318 29.778-2.023 2.647-.226 5.302-.676 7.915-1.217 2.116-.423 2.654-.45 3.077 1.666.625 2.795 1.067 5.673 1.419 8.593.325 2.382-.64 3.156-2.853 2.413-3.895-1.291-7.758-.836-11.67-.248-2.159.332-2.488.813-2.065 2.93.846 4.234 1.733 8.558 2.761 12.709 3.611 14.078 7.089 28.108 10.881 42.103 2.903 11.103 6.212 22.129 7.941 33.551.29 2.068.73 2.306 2.657 2.19 2.424-.234 4.897-.601 7.412-.876 5.526-.669 11.093-1.248 16.619-1.917 1.124-.187 2.249-.374 3.249-.833 4.088-1.88 8.184-3.983 12.231-5.954 10.274-4.943 21.202-7.986 32.234-10.086 13.776-2.592 27.691-3.926 41.813-3.374 9.966.371 19.524 2.25 28.507 6.705 2.023 1.051 4.069 1.431 6.228 1.099 8.089-1.077 16.331-1.344 24.551-.941 8.667.418 17.398.256 26.121.318 5.86.058 11.629.157 17.447.124 8.102-.093 16.108-1.352 24.229-.683 2.989.276 6.027.421 8.918.963 8.456 1.395 17.186 1.234 25.368 4.186 2.876.989 5.29 2.411 6.676 5.185.752 1.636 1.553 3.139 2.214 4.816 1.926 5.388 2.072 10.493-1.532 15.342-2.057 2.707-4.707 4.365-7.698 5.52a618.73 618.73 0 0 1-18.071 6.657c-7.239 2.448-14.528 5.028-21.893 7.203-12.968 3.871-26.111 7.603-39.205 11.201-7.903 2.202-15.881 3.999-23.826 6.111-12.549 3.347-24.972 6.968-37.472 10.183-8.664 2.222-17.355 3.906-26.144 5.856-.587.16-1.132.41-1.761.479-1.669.438-3.305 1.19-5.051 1.222-10.7.186-21.243 2.392-31.764 3.927-6.517.905-12.868 2.174-19.386 3.079-13.258 1.803-26.468 3.474-39.727 5.277-2.697.359-5.4.942-8.237 1.475-.127 1.159-.206 2.186-.326 3.122-.537 4.099-.941 8.247-1.701 12.338-1.887 9.783-4.171 19.417-7.524 28.883-2.51 6.988-4.979 14.066-7.581 21.096-2.013 5.437-4.158 10.826-6.17 16.264-3.738 10.303-7.169 20.795-11.04 31.05-2.847 7.692-6.225 15.188-9.246 22.741-.434.97-.695 2.08-1.144 3.497 5.617-.711 10.695-1.395 15.683-2.037 1.125-.187 2.341-.415 3.269-.072 2.611.891 4.291 2.87 4.783 5.616.575 2.927-.93 5.16-2.393 7.483-.28.349-.867.509-1.363.627-2.976.708-5.82 1.465-8.838 2.082-21.044 4.502-42.178 9.045-63.305 13.365-7.252 1.463-14.523 2.164-21.81 3.313-1.348.179-2.647.226-3.728-.928-1.123-1.245-2.204-2.399-3.466-3.469-2.176-1.861-2.697-3.713-1.716-6.366.982-2.652 2.514-4.347 5.525-4.741 3.416-.469 6.847-1.386 10.228-2.17-.206-1.887-.379-3.458-.509-4.939-1.486-10.653-3.195-21.314-4.499-32.051-1.725-14.285-3.045-28.647-4.77-42.932-1.587-13.029-3.53-26.113-5.249-39.19-.761-5.484-1.248-11.093-2.05-16.668-.325-2.382-.848-2.802-3.265-2.792a9.186 9.186 0 0 0-2.465.143c-4.31.441-8.711.923-12.979 1.455-.943.103-1.901.654-2.593 1.302-.882.956-1.867.968-2.746.492-1.758-.953-3.603-.655-5.489-.448-2.291.283-4.492.524-6.783.807-6.999.576-14.082.971-21.046 1.861-12.044 1.575-24.003 3.331-35.963 5.087-2.787.401-5.526.669-8.313 1.07-1.257.138-2.473.367-3.64.463-3.185.254-6.412.416-9.555.761-.629.069-1.587.619-1.874 1.191-.763 1.452-1.832 1.283-2.844.758-3.699-1.822-7.348-3.776-10.291-6.826-.649-.692-1.2-1.65-1.568-2.691-1.767-4.801-.158-15.666 6.63-19.336 1.139-.634 1.998-.919 2.946.186.907 1.014 1.766.729 2.648-.227.37-.391.832-.823 1.434-1.43 1.415 1.881 3.259 1.584 5.103 1.286 1.935-.339 3.912-.588 5.848-.927 3.241-.61 6.642-.633 9.481-2.598.413-.3 1.348-.18 2.102.024 2.486.618 6.663.129 9.48-1.166-1.766-.729-3.267-1.36-4.726-1.9-1.326-.491-2.792-.807-4.16-1.389-4.642-1.718-9.277-3.66-13.968-5.245-1.46-.54-3.183-1.178-4.497-.684-2.851.98-5.28.006-7.85-.794-7.615-2.442-9.714-9.402-8.517-15.895.704-3.736 1.76-4.551 5.539-5.188 1.034-.146 1.984-.472 3.06-.527 2.151-.108 4.135-.58 5.284-2.869 2.093 1.679 4.308.991 6.383.477 2.257-.597 4.48-1.509 6.91-1.966 3.647-.686 7.447-.562 10.774-2.422.363-.167.761-.019 1.208-.005 1.837-.074 3.758.034 5.56-.355 4.5-.747 8.915-1.677 13.421-2.648 8.74-1.817 17.522-3.543 26.171-5.318 2.208-.465 4.29-1.202 6.729-1.883-.425-.685-.592-1.048-.85-1.37-2.518-2.364-5.036-4.729-7.603-6.96-11.454-9.593-24.231-17.036-36.959-24.612-3.203-1.94-6.531-4.152-10.596-4.374-.58-.064-1.095-.707-1.576-1.036.91-1.85 1.59-3.483 2.486-4.886.378-.614 1.112-1.171 1.923-1.324 2.571-.631 5.267-.991 7.93-1.664 5.952-1.416 11.905-2.832 17.732-4.521 1.943-.562 3.515-.735 5.168.707.781.741 2.024 1.05 3.036 1.575 6.211 2.978 12.43 5.732 18.502 8.884 7.132 3.545 14.552 6.517 21.447 10.502 5.799 3.277 11.745 6.156 17.643 9.168 4.752 2.438 9.547 4.966 14.341 7.495 2.771 1.478 6.621.038 7.569-2.929 1.192-3.63 2.252-7.31 3.271-11.08 2.9-10.688 5.759-21.468 8.701-32.066 1.328-5.012 3.318-9.78 4.513-14.842 2.488-10.388 5.862-20.525 9.279-30.57 1.234-3.539 2.245-7.086 2.893-10.465-1.074-1.378-3.262-.152-3.719-2.583.678-.201 1.363-.626 2.173-.779 1.977-.248 3.905-.364 5.882-.613.314-.034.545-.25.818-.376a70.603 70.603 0 0 1-2.078-2.126c3.821-.546 6.275 2.398 9.566 1.655 2.976-.707 6.112-.829 9.123-1.222.049-.133-.034-.315.015-.447-1.194-.442-2.339-1.016-4.105-1.745 3.942-1.482 6.668 1.337 10.119 1.181-.956-.881-1.604-1.574-2.211-2.175.818-.376 1.579-.396 2.11-.2 1.061.393 2.073.918 3.085 1.444 1.277.623 2.394.66 3.855-.232-1.228-.756-2.107-1.232-3.377-2.079 2.306-.73 3.856-.232 5.202 1.02 1.52 1.392 1.429 1.434 3.296.466-.838-.385-1.717-.862-2.729-1.387.42-.523.658-.963.881-.956l4.797 1.097c.552-.474 1.029-1.353 1.476-1.339 2.814.137 5.722-1.199 8.576.46 2.854 1.66 5.747.77 8.807.244a84.392 84.392 0 0 0-.468-4.848c-.58-.064-1.11-.26-1.557-.275-8.515.393-17.022.561-25.453 1.136-6.503.458-12.971 1.231-19.531 2.045a948.057 948.057 0 0 0-16.353 2.015c-2.292.283-3.934 1.258-4.503 3.611-.415 1.732.071 3.269 1.236 4.605.69.783 1.786 1.49 1.113 2.9-4.6-1.627-6.264-5.485-4.538-10.351.736-1.989 1.981-3.112 4.09-3.311 10.234-.963 20.615-2.323 31.022-3.146zm48.545 105.354c.998.972 2.088.471 3.122.326 3.499-.288 7.006-.8 10.548-.997 1.927-.116 3.897-.141 5.557 1.077-.009 1.655-1.217 1.66-2.244 1.582-12.326-.717-24.315 1.933-36.255 4.451-9.327 1.976-18.62 4.267-27.821 6.517-2.795.624-5.562 1.786-8.315 2.502-9.391 2.556-18.74 5.203-28.172 7.668-7.134 1.959-14.177 3.876-21.346 5.521-13.526 3.137-27.178 6.001-40.655 9.005-2.208.465-4.381 1.244-6.554 2.023-1.992.695-2.286 1.491-1.269 3.225.85 1.37 1.833 2.789 3.004 3.902.649.692 1.843 1.134 2.695 1.072 8.249-.49 16.589-1.023 24.796-1.604.538-.027 1.125-.187 1.867-.968-2.039-.604-4.127-1.075-6.165-1.679.007-.223.056-.356.064-.579.496-.118.908-.418 1.264-.362 2.221.52 4.63.734 6.472 1.868 2.198 1.19 4.035 1.116 6.606.485-2.775-2.687-6.577-1.379-9.291-3.213 2.161-1.764 8.682-.029 11.485 3.195 1.39-.089 2.961-.261 4.889-.377-1.248-1.518-2.532-1.917-3.998-2.234-1.243-.309-2.535-.486-4.357-.859 2.524-1.93 4.499-.747 6.363-.283 2.576.576 2.701.849 3.962 3.351 2.598-.094 5.378-.271 8.472-.483-2.279-2.804-5.857-1.49-8.466-3.812 1.299-.047 1.928-.116 2.598-.094 1.16.127 2.145.115 3.242-.61.685-.425 1.852-.521 2.606-.318 3.197.732 6.43 1.777 9.095 3.744.656.469 1.675.77 2.527.709 9.359-.231 18.719-.461 27.994-.873 7.258-.255 14.515-.51 21.737-1.079 11.616-.827 23.08-2.466 34.399-5.138 2.298-.506 4.521-1.418 6.736-2.106.007-.224.105-.489.112-.712-1.542-.722-2.994-1.485-4.494-2.116-.049.132-.231.216-.28.349.299.412.732.874.85 1.37.327.95-.506 1.773-1.385 1.297-2.024-1.051-3.999-2.234-6.106-3.466 1.461-.892 1.461-.892 3.905-.365 1.421-2.414 3.305-1.189 4.98-.418 1.675.77 3.119 1.757 5.318 2.948 2.893-.89 6.421-2.072 10.446-3.372-.774-.965-1.199-1.65-1.764-2.161-3.249-3.238-4.508-7.172-4.452-11.6.092-5.546 1.378-10.649 5.449-14.722 1.112-1.172 2.14-2.525 3.491-4.137-8.213-.627-15.668 1.59-23.262 2.55zm-88.814 43.583c-2.429-.975-4.907-1.817-7.337-2.791 1.799 2.475 3.793 4.42 7.337 2.791zm233.634-57.993c-1.075.054-1.64-.456-2.24-1.281-.599-.825-1.464-1.749-2.434-2.183-7.454-3.287-15.316-5.065-23.494-5.378-9.47-.489-18.844.189-28.225 1.089-13.335 1.398-26.484 3.921-39.035 8.701-6.841 2.595-13.773 5.231-19.821 9.553-3.804 2.739-6.959 6.17-9.591 10.022-2.821 4.158-3.289 8.886-2.597 13.741.649 4.764 3.766 7.954 7.87 9.699 2.073.918 4.721.692 7.012.409 5.84-.704 11.695-1.855 18.038-2.9-2.938-1.841-6.088-1.273-8.692-2.388.189-.307.155-.621.245-.663 3.542-.197 6.978.095 9.901 2.383.481.329 1.095.707 1.542.721 5.246-.32 10.582-.682 15.786-1.094.091-.041.224.008.406-.076.405-.076.726-.334 1.09-.501 2.745-.492 5.449-1.074 8.195-1.566 9.089-1.537 18.136-3.165 27.315-4.744 2.25-.374 4.549-.88 6.847-1.387.007-.223-.027-.537.071-.803-2.031-.827-4.021-1.563-5.87-2.474-1.849-.911-4.273-.677-5.617-3.361.894.03 1.431.002 1.962.199 3.225 1.269 6.582 2.587 9.849 3.947.663.245 1.319.714 1.842 1.134 1.486 1.078 1.619 1.127 3.988-.183-3.279-2.345-7.294-2.7-10.895-4.786 3.291-.743 11.555 2.391 13.884 5.063 6.407-1.625 12.947-3.201 17.816-8.411 1.994-2.127 4.162-4.114 5.848-6.43 3.317-4.277 3.743-9.095 1.893-14.078-.641-.916-1.457-1.972-2.889-1.974zm-76.523 63.136c7.169-1.644 14.135-3.967 21.269-5.926 4.109-1.118 8.293-1.831 12.402-2.95 4.737-1.187 9.391-2.556 14.044-3.925 1.174-.319 2.313-.953 3.362-1.545 2.649-1.659 3.707-3.906 2.909-6.841-.431-1.893-1.357-3.668-2.102-5.527-.619-1.587-1.763-2.161-3.475-1.814-5.086.907-10.255 1.633-15.341 2.54-9.544 1.746-19.254 3.128-28.644 5.684-5.961 1.64-12.12 1.17-18.26 1.461-2.284.059-4.484.301-6.95.444.076 9.98-.057 19.507-4.652 28.663 1.09-.501 2.041-.828 2.907-1.336 7.033-4.334 14.552-7.131 22.531-8.928zm83.27-62.826c-.315.035-.587.16-1.265.362.777 3.605 1.868 7.176 1.032 10.862-.837 3.686-2.951 6.749-5.512 9.798 2.255.834 4.07 1.431 5.836 2.16.705.336 1.724.638.926 1.775-.886-.253-1.815-.596-2.701-.849-1.285-.4-2.702-.849-3.945-1.158-1.508-.408-2.822.086-3.383 2.216 3.526.249 6.788.401 10.162-.16l.133.049c2.374-.101 4.658-.161 6.901-.311.761-.02 1.48-.13 2.333-.192 4.582-.566 9.172-1.355 13.804-2.054.314-.034.545-.25.957-.55-2.154-2.532-5.744-2.202-8.046-4.335 2.984-.932 8.1 1.339 10.986 4.744 4.624-.475 9.43-1.033 14.774-1.619-1.756-2.384-3.718-2.583-5.953-2.656.334.727.494 1.314.911 2.223-.886-.253-1.773-.506-2.527-.71-1.375-.358-2.66-.758-4.035-1.116-.887-.253-1.683-.547-2.569-.8-.452-1.223-.116-1.928 1.217-1.661 1.069.17 2.123.786 3.274 1.137.518-.789.897-1.403 1.505-2.233 3.085 1.443 6.219 2.754 9.304 4.197 1.103.484 2.1 1.456 3.527.25-2.999-2.693-7.938-2.184-10.523-6.609 1.16.128 1.656.01 2.054.157 2.421 1.198 4.843 2.396 7.223 3.503.705.336 1.641.456 2.247 1.058 1.779 1.714 3.79 1.779 6.047 1.182 1.579-.396 3.242-.61 4.863-.915 2.389-.548 4.046-1.97 4.623-4.546.113-.713.358-1.376.429-2.179.566-4.993.141-5.678-4.886-6.558-8.009-1.381-15.92-3.027-24.022-2.935a7.867 7.867 0 0 1-2.095-.247c-11.422-2.343-22.515-1.095-33.606-1.28zm82.903 42.672c-2.631-1.652-4.905-3.248-7.236-4.487-.614-.378-1.704.123-2.557.184-.007.224-.147.398-.154.622a416.987 416.987 0 0 1 7.459 4.495c.364-.167 1.132-.411 2.488-.814zm-23.999.467l3.183 1.179c1.941.869 3.881 1.737 6.394 2.894 2.711-.807 6.009-1.772 9.398-2.78.007-.224.014-.447.063-.58-.921-.567-1.842-1.134-2.812-1.568-1.452-.764-3.043-1.353-4.495-2.116-1.493-.855-2.716-.403-3.961.72 1.024 1.51 3.399 1.409 4.171 3.806a390.888 390.888 0 0 1-7.454-3.287c-1.042.369-2.719 1.03-4.487 1.732-.95.327-1.851.522-2.802.848l-.022.671c2.903 1.527 5.708 3.319 9.159 3.163-1.017-1.733-2.889-1.973-4.473-2.786-.747-.427-1.997-.513-1.862-1.896zm1.492 6.358c.008-.223.106-.488.071-.803-2.512-1.156-4.976-2.445-7.496-3.377-.663-.246-1.621.305-2.522.499-.007.223-.105.489-.113.712 1.975 1.183 3.852 2.632 5.974 3.417 1.193.442 2.738-.268 4.086-.448zm-16.221-2.007c4.89 3.695 7.236 4.487 10.143 3.151-3.112-1.981-5.826-3.815-10.143-3.151zm-9.316 8.465c3.885-1.126 7.846-1.846 11.724-2.749.587-.159 1.132-.41 2.446-.904-3.392-1.632-5.834-3.592-8.963-3.694l-.392 1.061c1.179.889 2.449 1.736 3.586 2.534-.008.223-.147.398-.155.621-.538.027-1.083.278-1.522.04-1.103-.484-2.199-1.191-3.302-1.674-1.807-.82-3.546-1.011-5.469.313.865.923 1.688 1.755 2.553 2.679-.14.174-.148.397-.288.572-3.274-1.137-6.447-3.97-10.125-.958 3.168 1.625 6.113 3.243 9.907 2.159zm-6.309 1.359c-4.097-1.968-8.235-4.028-13.149-1.549 2.289 1.149 4.313 2.2 6.693 3.307 1.943-.563 4.199-1.16 6.456-1.758zm-156.32 30.813c6.427-.863 12.861-1.95 20.057-3.057-4.524-1.222-8.652-.865-12.359-2.463.008-.224.106-.489.113-.712.629-.069 1.348-.18 1.928-.116a253.1 253.1 0 0 1 10.153 1.496c.58.063 1.341.044 1.822.373 3.726 2.359 7.326.374 11 .225.008-.223.106-.488.113-.712l-10.514-2.76c.498-1.55 1.385-1.297 2.139-1.094 3.902 1.068 8.289 1.032 11.693 3.65.349.28 1.201.218 1.788.058a261.29 261.29 0 0 0 4.499-.747c.007-.224.014-.448.071-.804-2.129-.562-4.301-1.214-6.43-1.776-1.997-.513-4.183-.719-5.983-1.762.007-.224.106-.489.113-.712.761-.02 1.572-.173 2.193-.018 4.126 1.075 8.301 2.017 12.28 3.489 2.695 1.073 4.91.385 7.454-.785-2.213-.743-4.475-1.354-6.73-2.189-2.08-.694-4.504-.461-6.597-2.14 1.336-1.164 2.389-.548 3.409-.246 4.475 1.354 8.999 2.576 13.383 3.973 2.038.603 3.799.124 5.643-.173.008-.224.064-.58.071-.804-4.838-1.187-9.676-2.375-14.606-3.52.008-.224.064-.58.071-.803.762-.02 1.489-.354 2.152-.109 4.175.942 8.497 1.486 12.287 3.266 3.616 1.64 7.024 1.393 10.49.791a926.811 926.811 0 0 0 24.096-4.804c.992-.236 1.942-.563 2.892-.89.008-.224-.027-.538-.019-.761-2.827-1.122-5.654-2.244-8.656-3.506 1.302-1.478 2.355-.862 3.325-.428 2.52.933 4.942 2.131 7.462 3.064 1.501.63 3.092 1.22 4.966.028-1.582-2.244-4.6-1.627-6.288-3.383.491-1.326 1.419-.982 2.124-.646 1.724.638 3.539 1.234 5.215 2.005 2.156 1.1 4.391 1.173 6.648.576 10.292-2.751 20.584-5.501 30.967-8.293.768-.244 1.412-.76 2.551-1.393-2.805-1.793-5.816-1.399-8.616-1.983.74.651 1.521 1.392 2.26 2.043-.14.174-.238.44-.287.572-1.815-.596-3.539-1.234-5.396-1.922-1.948-.645-3.541.198-5.457 1.298 1.452.764 2.994 1.486 4.446 2.249-.049.133-.057.356-.106.489-.537.027-1.124.187-1.522.039-1.906-.554-3.763-1.242-5.578-1.838-2.304-.702-3.981-.041-4.975 1.627-2.871.219-5.651.397-8.299.623-.007.224-.056.356-.063.58 1.633.68 3.266 1.36 4.809 2.081-.098.266-.106.489-.204.754-4.133-.851-8.267-1.702-13.063-2.799 1.181-.543 1.726-.793 2.222-.911 3.745-.952 7.483-1.679 11.186-2.722 1.67-.437 3.222-1.371 4.808-1.99.454-.209 1-.459 1.488-.354 2.179.429 4.038-.315 5.988-1.102.999-.459 2.291-.282 3.374-.56 5.407-1.166 10.682-2.38 16.048-3.636 1.307-.271 2.537-.946 3.718-1.489.454-.209.999-.46 1.446-.445 3.702.389 6.889-1.296 10.278-2.304 14.778-4.483 29.473-9.147 44.301-13.763 1.041-.368 2.117-.423 3.367-.337-1.652 2.631-5.165 1.934-7.109 3.929 4.61 4.043 8.395 4.615 14.203 2.165a63.686 63.686 0 0 1-2.673-1.743c1.28-.808 2.019-.158 2.766.269 1.311.938 2.652.982 4.148.405 8.742-3.249 17.568-6.316 26.31-9.565 3.941-1.481 7.067-4.019 8.498-8.089.638-1.724 1.151-3.721.713-5.391-.659-3.109-1.946-6.149-3.101-9.14-.745-1.859-2.272-3.027-4.137-3.491-3.679-1.06-7.4-2.211-11.093-2.824-7.479-1.185-14.965-2.146-22.499-2.974-4.016-.355-8.13-.445-12.167-.13-10.813.899-21.548.771-32.324.553-5.546-.092-11.098.039-16.798.568 1.78.282 3.554.788 5.209.797 7.647.116 15.077 1.434 22.506 2.751 1.913.331 3.868.753 5.831.951 2.185.206 3.35 1.542 3.731 3.568.644 3.556.038 7.026-1.545 10.285-.82 1.808-2.463 2.783-4.272 3.395a41.91 41.91 0 0 1-4.828 1.229c-10.57 1.668-21.14 3.335-31.813 4.06-4.575.342-8.998 1.495-13.573 1.838-7.223.568-14.522.732-21.737 1.078-1.837.074-3.374.56-5.093 1.131-3.76 1.398-7.603 2.614-11.537 3.873-.587.159-1.132.41-2.041.828.411 1.132.779 2.173 1.239 3.173 3.459 7.764 1.56 12.49-6.365 15.362a130.042 130.042 0 0 1-11.927 3.503c-7.979 1.797-15.958 3.594-23.826 6.111-5.157 1.71-10.606 2.784-15.93 4.132-5.457 1.297-10.712 3.273-15.382 6.521-5.034 3.415-10.429 5.565-16.633 6.436-9.081 1.313-18.185 3.297-27.232 4.925-1.439.221-2.222.912-2.183 2.434l-.006 4.296c6.525-1.129 13.085-1.943 19.511-2.807zM181.479 463.612c-.338 2.137 1.379 2.998 2.725 4.251 1.827 1.581 3.866 2.184 6.339 1.818 2.249-.374 4.583-.566 7.593-.96-2.638-1.428-5.251-.887-7.643-2.979 1.167-.096 1.893-.43 2.424-.234 2.709.626 5.418 1.251 8.119 2.1 1.55.498 2.8.584 4.492-.524a214.757 214.757 0 0 1-5.934-1.894c.378-.615.484-1.103.707-1.096 2.473-.366 5.015-.104 6.661 1.561 1.604 1.573 2.653.981 4.826.202-2.031-.827-3.399-1.409-5.347-2.054.867-.509 1.238-.899 1.594-.843 1.78.282 3.799.125 5.111 1.062 2.707 2.058 4.993.567 7.655-.107-1.199-1.65-3.512-.697-4.306-2.423 2.09-.961 4.855-.691 7.171.996 1.221.979 2.122.785 3.625-.016-1.94-.869-3.483-1.591-5.688-2.558.957-.55 1.328-.941 1.593-.843 1.906.555 4.183.719 5.487 1.88 2.177 1.861 3.918.621 5.867-.165l-6.896-2.553c1.09-.501 1.593-.843 1.949-.786 2.353.569 4.944.698 6.806 2.594.998.972 2.032.827 3.22.061-.634-1.14-1.653-1.442-2.714-1.834-.887-.253-1.815-.597-2.702-.849.008-.224.106-.489.155-.622.538-.027 1.174-.319 1.662-.214 1.11.26 2.262.611 3.183 1.178 2.575 2.009 5.355 1.831 8.198 1.074 2.662-.673 5.234-1.305 7.805-1.937 1.125-.187 2.2-.241 3.325-.428.587-.16 1.132-.41 1.81-.612-1.233-1.964-4.392-1.173-5.065-3.835.496-.118.908-.418 1.174-.319 1.989.736 4.209 1.256 5.912 2.565.174.14.348.28.481.329.042.09.133.049.174.14.133.049.175.14.266.098l.265.098c.091-.042.133.049.223.007.133.049.133.049.224.008.091-.042.133.049.223.007.091-.042.224.007.224.007.091-.042.133.049.223.008.091-.042.182-.084.315-.035l.091-.042.272-.125.091-.042.363-.167c1.083-.278 2.208-.465 3.291-.742.315-.035.678-.202.992-.236l.133.049.091-.042a16.343 16.343 0 0 0 5.407-1.165l1.818-.836a1094.38 1094.38 0 0 1-1.959-7.134c-.713-.112-1.285-.4-1.872-.24-4.673.608-9.43 1.034-14.111 1.865-7.741 1.357-15.439 2.806-23.229 4.296-13.148 2.522-26.297 5.045-39.354 7.526-3.423.693-6.847 1.387-10.361 2.122-.405.076-.81.152-1.174.319-1.935.34-3.661 1.133-4 3.27zM86.771 323.68c-2.45-1.736-5.04-1.865-7.617-2.442 1.946 2.078 4.073 4.071 7.617 2.442zm-37.095-13.653c-1.568 2.812-1.894 5.933-1.773 9.07.06 2.283 1.126 3.884 3.52 4.545 1.11.26 2.304.701 3.365 1.094-1.658-2.649-2.695-5.144-3.005-7.973-.318-2.606-.363-5.337-.574-8.431-.742.781-1.245 1.122-1.533 1.695zm8.052-4.032c-1.64-.457-2.605.317-3.194 1.909-2.818 6.798.87 15.778 7.642 18.058 1.591.589 3.575.117 5.992.107-2.25-3.698-5.968-2.209-8.437-4.706 1.306-.27 2.299-.506 3.067-.75-1.676-4.842-3.352-9.685-5.07-14.618zm8.559-1.734c-1.754.256-3.465.603-5.582 1.026.423 2.116.671 4.093 1.192 5.945 1.028 4.15 3.286 7.625 6.277 10.542 1.172 1.112 3.267 1.36 3.74 3.344.083.181.746.427 1.06.392 1.481-.13 3.053-.302 4.939-.509-1.184-2.097-2.882-2.197-4.39-2.605-1.507-.407-3.148-.863-4.656-1.271.056-.356.113-.712.078-1.026 1.167-.096 2.242-.151 3.409-.247-.076-.405-.069-.628-.194-.901-2.565-3.664-3.236-7.757-3.14-12.094.13-2.591-.351-2.92-2.733-2.596zm5.676 1.573c-.635 4.364.26 8.466 2.964 11.955.732.874 1.472 1.525 2.903 1.527 1.39-.089 2.857.227 4.463.37-1.924-2.748-4.127-5.147-5.157-7.866-.988-2.627-.794-5.798-1.146-8.718-2.766-.269-3.632.239-4.027 2.732zm10.832-4.209c-2.068.29-2.999 1.378-3.511 3.375-1.308 5.774 2.866 12.22 8.647 13.304l6.138 1.141c.845.161 1.871.24 2.358 1.777-3.136.121-5.9-1.58-9.176-1.285 2.071 2.35 3.815 3.75 7.015 3.049 6.351-1.269 12.91-2.083 19.295-3.037.943-.104 1.894-.431 3.382-.785-3.628-2.624-7.617-2.442-10.967-3.983 1.518-1.248 1.518-1.248 8.66.641-.202-.677-.32-1.173-.521-1.851 2.068-.291 7.687 1.639 10.178 3.465-.413.3-.693.649-1.014.907l-.091.041-4.112-1.521c-.351 1.152-.331 1.913.836 1.817 1.075-.054 2.2-.241 3.234-.386l.091-.042c2.807.36 4.065.222 6.825-.716-3.636-2.401-8.253-2.15-11.713-4.411.407-1.508 1.335-1.164 2.089-.961 4.161 1.389 8.329 2.555 12.391 4.209 1.766.729 3.498 1.144 5.391.714 1.439-.222 2.92-.352 4.492-.524l.022-.671c-.573-.287-1.187-.665-1.85-.911-10.296-3.961-20.501-7.964-30.755-11.835-3.714-1.374-7.435-2.525-11.246-3.634-1.02-.302-2.27-.388-3.345-.334-4.109 1.119-8.475 1.915-12.743 2.447zm-10.52-13.544a293.555 293.555 0 0 0 10.478 3.877c3.714 1.375 7.476 2.617 11.19 3.991 1.724.638 3.316 1.227 5.167.706 1.083-.277 1.879.017 2.653.982.599.825 1.744 1.399 2.805 1.792 9.193 3.478 18.435 6.823 27.719 10.259 4.51 1.669 8.977 3.248 13.445 4.826 2.213.743 4.357.858 6.705.219 6.414-1.848 12.863-3.382 19.27-5.007 1.67-.437 3.416-.47 5.13-2.248-1.683-.547-2.96-1.171-4.294-1.438-10.759-2.098-20.881-5.919-31.086-9.922-5.521-2.195-11.197-3.768-16.817-5.697-6.324-2.265-12.599-4.663-18.966-7.019-1.989-.736-4.153-1.613-6.326-.834-9.6-1.97-18.805 1.711-28.346 2.025-.76.02-1.439.222-2.116.423-.406.077-.769.244-1.768.703 1.849.911 3.433 1.723 5.157 2.362zm95.071 14.075c-.836-1.818-4.414-4.575-7.514-5.571 2.82 1.345 3.722 5.223 7.514 5.571zm-9.68-5.015c.038 2.954.038 2.954 3.355 2.749a151.962 151.962 0 0 1-3.355-2.749zm18.03 6.899c-2.679-1.52-4.652-4.135-7.71-5.04 2.26 2.043 4.002 4.874 7.71 5.04zm-27.854-8.877c-1.437-1.21-2.832-2.33-4.576-3.729.163 3.227 2.02 3.914 4.576 3.729zm-7.393-2.434c-1.486-1.078-2.454-2.944-4.934-2.354-.678.201-1.633-.68-2.422-1.198-1.095-.707-2.233-1.505-3.37-2.303-.307-.189-.788-.518-1.193-.442-2.628.988-4.078-1.207-6.018-2.076-.796-.295-1.948-.646-2.584-.353-1.461.892-2.333.192-3.288-.69-1.521-1.392-3.272-2.568-5.856-2.921 1.457 1.972 2.663 3.399 4.562 4.177l18.177 6.501c2.122.786 4.294 1.438 6.465 2.091.314-.034.321-.258.461-.432zm9.476 1.697c2.262.611 2.012 4.138 5.204 3.661-1.653-1.442-3.215-2.925-4.868-4.366-.007.224-.238.44-.336.705zm-43.736-14.453c-1.542-.721-2.994-1.485-4.711-2.346.382 2.026.382 2.026 4.711 2.346zm-8.152-3.846a80.902 80.902 0 0 1-4.98.418c2.923 2.289 4.131 2.284 4.98-.418zm-35.009 7.4c8.593-1.419 17.422-1.846 26.574-3.962-2.282-1.373-4.055-1.878-6.04-1.406-4.058.985-7.943 2.111-12.003 3.097-1.893.43-3.912.588-5.847.927-1.034.145-1.943.563-2.935.799l.251.545zm-12.57-5.557c.26 2.961 1.8 5.115 5.193 6.747-1.12-2.676-4.095-3.4-4-6.305 2.996.053 3.564 3.204 5.993 4.178.386-.837.771-1.675 1.108-2.38-1.29-1.608-2.538-3.126-3.604-4.727-1.067-1.601-1.86-3.327-2.87-5.284-2.49 2.245-2.047 5.123-1.82 7.771zm9.268-9.765c-1.208.006-2.34.416-3.96.721.27 1.306.366 2.473.874 3.34a46.288 46.288 0 0 0 4.14 6.131c1.373 1.79 2.937 1.841 5.258.665-1.413-3.313-2.784-6.535-4.379-9.764-.341-.503-1.262-1.071-1.933-1.093zm12.989-3.109a253.31 253.31 0 0 0-8.392 2.097c.35 4.351 2.077 7.63 4.532 10.574.474.552 1.535.945 2.163.876 2.292-.283 4.548-.88 7.252-1.463-1.358-2.237-2.599-3.978-3.476-5.886-.745-1.859-1.217-3.843-2.08-6.198zm11.289-1.778c-2.346-.793-4.163.042-6.014.563-1.356.404-1.616 1.514-1.478 2.771.477 3.193 1.549 6.002 3.752 8.401.607.601 1.619 1.127 2.38 1.107 1.837-.074 3.598-.554 5.4-.942l.246-.663c-3.258-3.015-3.929-7.109-4.286-11.237zm4.926-1.495c-.678.202-1.42.983-1.441 1.653-.34 3.569-.094 6.978 2.905 9.671 1.611 1.35 3.21 1.716 5.712.456-3.11-3.413-4.144-7.34-3.502-11.928-1.564-.051-2.724-.178-3.674.148zm11.108-1.694c-4.08.224-4.597 1.013-4.687 5.126-.034 3.758 1.492 6.358 4.793 8.032l5.674 3.005c.14-.174.329-.481.469-.656-4.024-4.203-6.958-8.908-5.279-15.073-.44-.238-.747-.427-.97-.434zm-13.046-52.556c.217.231.474.553.656.469 2.97-.484 5.897-1.06 8.824-1.635 1.306-.27 1.314-.494.785-2.122-5.302.677-8.782 1.726-10.265 3.288zm14.555-4.49c.85 1.37 2.115 1.009 3.134 1.311.008-.224.106-.489.113-.712-.977-.211-2.087-.471-3.247-.599zm7.51-1.141c.899 1.237 1.975 1.183 3.232 1.045-.653-1.9-.653-1.9-3.232-1.045zm40.381 15.775c-1.368-.582-2.827-1.122-4.237-1.795-.098.266-.196.531-.336.705 1.368.582 2.778 1.255 4.237 1.795.14-.175.238-.44.336-.705zm5.694 3.766c.125.272.25.545.425.685.041.091.314-.035.768-.244l-1.193-.441zm14.957 6.441c-1.466-.317-2.841-.675-4.307-.992l-.133-.049-.091.042c-.796-.294-1.591-.589-2.296-.925.543 1.181 1.395 1.119 2.296.925l.133.049c1.368.582 2.736 1.164 4.013 1.787.231-.216.329-.481.385-.837zm-16.386-3.803c-5.89-3.236-11.78-6.471-17.761-9.665-4.703-2.57-9.547-4.966-14.251-7.536-2.637-1.429-5.346-2.055-8.365-1.438-7.342 1.505-14.678 2.786-21.971 4.158-.72.111-1.356.403-2.439.681.83.609 1.395 1.12 1.968 1.407 8.854 5.614 17.898 10.922 26.522 16.753 8.101 5.411 15.872 11.303 22.714 18.283 1.255 1.294 2.638 1.429 4.217 1.033 8.474-1.915 16.991-3.739 25.466-5.654 2.208-.465 4.506-.971 6.672-1.526 1.036-1.577.353-2.584-1-3.613-6.726-5.053-14.389-8.794-21.772-12.883zm21.832 9.663c.482.329.956.882 1.486 1.078 1.634.68 3.274 1.137 4.999 1.775 1.061.392 2.213.743 2.21 2.175l-.09.042c-.713-.113-1.334-.267-2.046-.38.626 1.363 1.368.581 2.046.38l.09-.042c.853-.061 1.796-.165 3.276-.295-3.633-3.833-7.641-4.412-11.971-4.733zm10.354 7.678c-4.325.887-8.699 1.907-12.981 2.886-7.616 1.63-15.231 3.26-22.805 4.981-1.397.312-2.858 1.204-3.921 2.243-1.154 1.081-2.07 1.722-3.465.602-.956-.881-2.031-.827-3.205-.507-4.2 1.16-8.441 2.229-12.64 3.389-3.298.966-6.554 2.023-9.761 2.947-1.356.403-2.697.359-4.205-.048-2.974-.724-5.867.166-8.126 2.195-2.119 1.854-2.025 4.453-1.079 6.989.661 1.678 1.636 3.32 2.57 4.872 2.899 4.391 6.743 7.246 12.267 8.009 3.03.367 5.793 2.069 8.802 3.107 4.028 1.34 8.105 2.547 12.091 3.796 4.964 1.46 9.928 2.921 14.842 4.513 4.426 1.488 8.754 3.24 13.187 4.504 4.789 1.32 9.458 3.576 14.599 3.744 1.208-.005 2.232 1.505 2.321 2.895.254 3.185-1.637 6.256-4.802 7.271-3.529 1.182-7.225 2-10.788 2.868l-6.225 1.541c-.008.224.076.406.11.72a791.755 791.755 0 0 1 15.229-1.828c.243.768.71 1.544.862 2.355.699 4.631 1.488 9.221 2.054 13.804.891 6.964 1.509 14.054 2.49 20.977 1.334 9.843 2.981 19.652 4.224 29.536 1.801 14.691 3.287 29.416 5.039 44.239.869 7.636 2.052 15.236 3.193 22.746.18 1.348.45 2.655.944 3.969.966 3.298 1.846 3.774 5.178 3.122 14.315-2.618 28.588-5.328 42.812-7.905 2.34-.416 4.764-.65 7.021-1.247 2.166-.555 4.255-1.516 6.345-2.477.636-.292 1.203-1.213 1.449-1.876 5.041-13.214 10.969-26.175 15.529-39.718 3.824-11.553 7.829-23.19 12.539-34.491 4.031-9.667 7.133-19.678 10.102-29.738 2.162-7.267 3.479-14.697 4.887-22.168.753-3.868 1.506-7.736.562-11.705-.076-.405.211-.977.317-1.466.743-2.213.787-3.554.17-6.572-.985.013-1.97.025-3.003.17-4.492.524-9.033 1.181-13.566 1.614-5.568.579-11.169.843-16.737 1.421-6.825.716-13.608 1.523-20.39 2.331-9.885 1.242-19.77 2.484-29.613 3.818-1.348.179-2.654.45-4.003.629-.628.069-1.291-.176-2.004-.289.422-1.955 1.763-1.911 2.979-2.14 3.507-.511 6.964-.89 10.471-1.402 10.248-1.41 20.504-3.043 30.794-4.361 6.783-.807 13.684-1.118 20.417-1.793 7.14-.75 14.271-1.278 21.334-2.434 3.151-.568 6.427-.863 9.62-1.34 7.782-1.267 15.564-2.533 23.187-4.387 4.465-1.062 8.226-3.892 11.249-7.372.65-.74 1.043-1.801 1.254-2.778.766-2.884 1.49-5.858 1.99-8.839.304-2.451.252-4.959.332-7.417.059-1.788.068-3.443.134-5.455-1.034.145-1.886.207-2.829.31-3.374.561-6.756 1.345-10.123 1.682-2.424.234-4.966-.028-7.473.024-2.151.109-4.394.259-6.469.773-2.753.715-5.513 1.654-8.231 2.684-10.113 4.098-20.808 5.493-31.461 6.979-12.407 1.741-24.993 2.135-37.579 2.528-11.916.415-23.817.384-35.741 1.023-12.146.631-24.175 1.759-36.287 2.704-5.742.439-11.351.926-17.051 1.456-1.704.123-3.129-.103-4.202-1.48-1.374-1.79-2.879-3.629-3.98-5.545-1.867-3.103-1.04-5.135 2.44-6.184 6.051-1.681 12.234-3.313 18.41-4.722 12.667-2.852 25.368-5.389 38.035-8.241 3.696-.819 7.448-1.993 11.11-3.126 12.514-3.662 25.078-7.457 37.585-10.896 8.531-2.271 17.18-4.046 25.788-5.912 5.589-1.249 11.171-2.274 16.711-3.39.587-.16 1.216-.229 2.075-.514-.99-1.196-2.031-.827-2.932-.633-6.022.787-12.176 1.525-18.156 2.403-18.031 2.676-36.061 5.353-54.099 8.252-6.658 1.08-13.232 2.341-19.889 3.421-1.621.305-2.844.757-3.615 2.432-.96 1.982-1.854 1.953-2.954.037a9.246 9.246 0 0 1-.536-1.404c-3.654.909-7.21 1.554-10.724 2.289zm81.549-112.773c-11.366 1.373-22.78 2.878-34.237 4.293-1.572.172-2.355.862-2.895 2.321-1.845 5.802-3.558 11.652-5.718 17.488-4.123 11.14-6.026 22.801-9.794 33.999-4.322 13.103-7.135 26.613-10.836 39.871-.554 1.906-1.151 3.721-1.705 5.627-.302 1.019-.513 1.996-.83 3.463 1.39-.089 2.193-.018 3.004-.17 11.429-1.953 22.782-4.311 34.337-5.991 15.599-2.219 31.233-4.123 46.825-6.118 3.639-.463 7.146-.974 10.744-1.528 2.564-.408 2.843-.757 2.435-3.321-1.06-5.896-2.119-11.792-3.494-17.654-2.36-9.922-4.901-19.759-7.534-29.555-2.381-9.251-4.945-18.418-7.418-27.627-1.118-4.109-2.146-8.259-3.222-12.276-.236-.992-.654-1.901-1.057-3.257-2.913.129-5.818.034-8.605.435z" data-color="1"/>
        <path fill="#484819" d="M486.72 230.28c-2.808-.36-7.973-2.498-9.228-3.792 2.139-1.094 3.743.48 5.474.895.887.253 1.683.547 2.569.8.342.503.725 1.098 1.185 2.097z" data-color="1"/>
        <path fill="#484819" d="M265.197 362.498c1.391-5.592 3.006-11.177 4.621-16.762 1.72-6.074 3.705-12.05 5.426-18.123.807-2.793 1.349-5.684 2.065-8.434.197-.531.658-.963 1.078-1.486.266.098.489.105.663.245.013.985.025 1.97-.095 2.905-1.033 4.217-1.8 8.532-3.099 12.651-4.491 14.172-8.667 28.309-11.783 42.838-.429 2.179-.684 4.497-.981 6.725-.105.489-.302 1.019-.407 1.508-.449 1.417-1.073 2.694-1.298 4.119-1.772 7.638-3.501 15.367-5.273 23.005-.878 3.596-1.847 7.233-2.991 10.731-.407 1.508-.955 3.19-3.204 3.564.022-.671-.005-1.208.1-1.697 2.402-9.139 4.979-18.138 7.248-27.326 2.658-11.457 5.182-22.964 7.93-34.463z" data-color="1"/>
        <path fill="#484819" d="M199.659 351.136c.4 8.291 1.023 16.589 1.29 24.831.278 10.658.423 21.268.518 32.01.135 8.192.269 16.385 1.57 24.482.069.629-.24 1.871-.603 2.038-1.083.278-1.228-.756-1.381-1.566-.076-.405-.152-.811-.138-1.258-.411-5.203-1.004-10.324-1.192-15.52-.349-13.928-.343-27.799-.783-41.684-.258-9.897-1.011-19.676-1.451-29.49-.202-4.749-.628-9.506-.831-14.256-.047-1.299-.491-2.746 1.64-3.615.243.768.452 1.222.479 1.76.206 7.39.544 14.829.882 22.268z" data-color="1"/>
        <path fill="#484819" d="M247.627 360.671c-8.665-15.497-18.428-30.27-27.96-45.258 1.704-.124 2.247 1.058 2.888 1.973 4.216 6.537 8.341 13.116 12.466 19.694 3.017 4.886 6.166 9.822 9.134 14.841 1.519 2.824 3.177 5.474 3.472 8.75z" data-color="1"/>
        <path fill="#484819" d="M243.74 382.379c-5.6-10.743-10.563-21.779-17.12-31.971 3.866 2.184 17.357 27.46 17.12 31.971z" data-color="1"/>
        <path fill="#484819" d="M277.097 344.811c-.327-.95-.688-2.215.417-3.163 2.112 2.441 4.961 22.043 3.486 27.453-.229-1.215-.325-2.382-.554-3.597-.758-6.916-1.019-13.949-3.349-20.693z" data-color="1"/>
        <path fill="#484819" d="M222.382 334.965c.523.42 1.228.756 1.57 1.26 5.589 8.326 11.178 16.653 16.676 25.021.125.273.111.72.145 1.034-3.94-4.022-6.461-9.026-9.625-13.515-3.164-4.488-6.196-8.928-9.269-13.458.091-.042.322-.258.503-.342z" data-color="1"/>
        <path fill="#484819" d="M280.371 336.372c-.034-.314.113-.712.26-1.11.224.007.405-.076.629-.069 3.332 8.924 4.498 18.403 6.342 27.681-.314.035-.587.16-.992.236-2.124-8.929-4.248-17.858-6.239-26.738z" data-color="1"/>
        <path fill="#484819" d="M224.177 363.527c.272-.126.587-.16.859-.285 3.767 7.953 8.442 15.49 12.027 23.527-.796-.295-1.41-.673-1.66-1.218-3.804-6.836-7.516-13.714-11.228-20.592-.168-.364-.013-.985.002-1.432z" data-color="1"/>
        <path fill="#484819" d="M263.141 382.925c1.83.149 1.737 1.623 1.924 2.747.883 7.189 1.676 14.419 2.426 21.558-.007.223-.196.53-.294.795-.836-1.817-1.266-3.71-1.473-5.596-.13-1.481-.302-3.053-.433-4.534-.524-4.491-1.09-9.074-2.557-13.462.105-.489.211-.978.407-1.508z" data-color="1"/>
        <path fill="#484819" d="M265.2 397.937c-.524-4.491-1.09-9.074-2.557-13.462 1.467 4.388 2.124 8.929 2.557 13.462z" data-color="1"/>
        <path fill="#484819" d="M282.889 329.161c-.376-.818-.43-1.894-.652-3.333.789.518 1.145.574 1.229.756 1.978 7.895 3.999 15.881 5.978 23.777.194.901.255 1.753.317 2.605-.223-.007-.496.118-.72.111-2.97-7.659-3.049-16.208-6.152-23.916z" data-color="1"/>
        <path fill="#484819" d="M277.544 377.624l-4.176-24.165c2.823 3.985 5.683 20.501 4.176 24.165z" data-color="1"/>
        <path fill="#484819" d="M284.3 314.754c2.8 10.159 5.69 20.277 8.49 30.436.034.315-.113.712-.177 1.292-1.408-2.104-8.681-28.697-8.313-31.728z" data-color="1"/>
        <path fill="#484819" d="M267.081 373.299l.545-.251c3.879 7.242 4.07 15.078 3.947 22.949-1.498-7.566-2.143-15.194-4.632-22.524 0 0 .049-.132.14-.174z" data-color="1"/>
        <path fill="#484819" d="M269.988 362.387c.049-.133.322-.258.784-.691 3.11 7.485 2.317 15.334 2.871 23.004-2.239-6.785-1.194-14.089-3.748-20.84-.167-.363-.012-.985.093-1.473z" data-color="1"/>
        <path fill="#484819" d="M219.052 376.559c1.8 1.043 7.311 10.397 9.53 16.42-3.751-4.328-9.512-14.227-9.53-16.42z" data-color="1"/>
        <path fill="#484819" d="M394.41 280.862c-1.683-.547-3.618-.208-4.851-2.172 3.548-.421 13.328 2.897 15.183 5.016l-.245.663c-1.725-.638-3.407-1.185-5.131-1.823-1.682-.547-3.274-1.136-4.956-1.684z" data-color="1"/>
        <path fill="#484819" d="M556.12 231.612c1.085-5.781-.388-11.378-1.231-17.044 3.151 3.504 3.868 14.401 1.231 17.044z" data-color="1"/>
        <path fill="#484819" d="M398.235 277.453c4.61-.028 8.79 2.122 13.091 3.337.754.203 1.864.463 1.54 2.153-5.005-1.551-9.92-3.144-14.793-4.645a3.03 3.03 0 0 1 .162-.845z" data-color="1"/>
        <path fill="#484819" d="M548.893 217.326c-.218 5.273-.393 10.636-.611 15.909-1.295-2.816-1.359-15.884-.399-17.866.265.098.663.245.746.427.118.496.236.992.264 1.53z" data-color="1"/>
        <path fill="#484819" d="M407.833 276.783c.098-.265.196-.531.336-.705 3.91.844 7.378 2.882 11.092 4.256.439.238.781.742 1.255 1.294-.587.16-.909.418-1.132.41l-11.266-4.396c-.175-.14-.16-.587-.285-.859z" data-color="1"/>
        <path fill="#484819" d="M396.066 284.944c-.099.265-.197.53-.253.886a126.415 126.415 0 0 0-7.051-1.931c-5.328-1.293-5.286-1.202-6.735-3.397 5.194 1.244 9.907 2.159 14.039 4.442z" data-color="1"/>
        <path fill="#484819" d="M563.572 241.835c-1.823-.373-3.694-.613-4.64-3.15 2.171.653 3.713 1.374 4.64 3.15z" data-color="1"/>
        <path fill="#484819" d="M553.658 243.971c-.44-.238-.838-.385-1.277-.623a1.38 1.38 0 0 1 .238-.44c.439.238.837.385 1.277.624-.14.174-.189.307-.238.439z" data-color="1"/>
        <path fill="#484819" d="M275.182 153.193c-1.158-1.559-1.58-3.676-3.722-5.222.047 1.299.108 2.151.219 2.871 1.832 12.364 3.707 24.82 5.448 37.227.623 4.226.889 8.396 1.197 12.657.103.943.423 2.117-1.296 2.687-.244-.768-.578-1.495-.689-2.215-.615-4.45-1.006-8.892-1.67-13.209-1.038-6.567-2.167-13.092-3.205-19.659a915.533 915.533 0 0 1-3.274-24.359c-.221-1.439-.037-2.955.23-4.288.105-.489.98-1.221 1.468-1.116.489.106 1.179.889 1.206 1.427.187 1.125-.031 2.326.114 3.36.187 1.124.374 2.249 1.015 3.165 2.084 3.335 4.349 6.586 6.523 9.879.3.412.278 1.083.486 1.537l-.545.25c-1.199-1.65-2.307-3.341-3.505-4.992z" data-color="1"/>
        <path fill="#484819" d="M276.93 170.881c-.258-.322-.104-.943-.131-1.481.273-.125.545-.251.86-.285 5.414 8.187 9.78 16.965 14.279 25.793-.273.126-.503.342-.867.509-.467-.776-1.024-1.51-1.491-2.286-4.228-7.522-7.506-15.37-12.65-22.25z" data-color="1"/>
        <path fill="#484819" d="M240.271 193.127c-.118-.496.211-.978.316-1.466 4.415 8.646 9.879 16.7 12.03 26.167-.467-.776-.843-1.594-1.31-2.37-3.28-6.416-6.601-12.924-9.791-19.382-.459-.999-.919-1.999-1.245-2.949z" data-color="1"/>
        <path fill="#484819" d="M280.221 183.785c.181-.083.412-.3.594-.383.307.189.796.294.963.658 3.378 6.151 6.756 12.302 10.176 18.544.167.364.195.902.18 1.349l-.636.292c-3.56-6.068-7.12-12.135-10.589-18.245-.383-.594-.445-1.446-.688-2.215z" data-color="1"/>
        <path fill="#484819" d="M283.52 200.538c.647 2.124 2.558 3.887 2.072 6.422-2.285-4.012-5.164-7.642-5.226-12.566 2.051 1.589 2.508 4.02 3.154 6.144z" data-color="1"/>
        <path fill="#484819" d="M371.576 221.14c-6.442 1.311-12.633 3.166-18.587 6.014-5.592 2.681-11.392 4.907-17.109 7.315-.727.334-1.579.396-2.795.625.43-2.179 1.785-2.582 2.966-3.125 5.221-2.29 10.484-4.489 15.746-6.688 3.222-1.371 6.493-2.875 9.874-3.659a415.295 415.295 0 0 1 22.21-4.598c11.339-1.911 22.918-1.621 34.358-1.157 1.341.044 2.633.22 4.008.579.621.154 1.228.756 2.107 1.232-2.089.961-2.089.961-3.605.777-16.459-1.568-32.867-.629-49.173 2.685z" data-color="1"/>
        <path fill="#484819" d="M430.782 220.887c-1.518-2.824-.445-5.519 2.244-5.654 2.018-.158 3.826.662 5.256 2.096 1.122 1.245 1.12 2.676.539 4.044-.533 1.236-1.366 2.059-2.756 2.147-2.283.06-4.133-.851-5.283-2.633zm5.233-1.306c-.375-.817-1.046-.839-2.856-.228.042.091-.007.224.035.315.543 1.181 1.422 1.657 2.694 1.072.14-.174.295-.795.127-1.159z" data-color="1"/>
        <path fill="#484819" d="M380.757 246.856a2371.757 2371.757 0 0 1-15.778-4.633c-.133-.049-.083-.181-.125-.272-.042-.091.007-.224-.035-.315 1.768-.702 1.992-.695 3.723-.28 7.01 1.84 10.318 3.29 12.215 5.5z" data-color="1"/>
        <path fill="#484819" d="M380.867 243.504c-1.599-.365-3.1-.996-4.601-1.627-1.458-.54-3.17-.193-4.558-1.536 3.605-.777 11.27 1.532 13.823 4.211-2.286 1.491-3.198-.731-4.664-1.048z" data-color="1"/>
        <path fill="#484819" d="M394.347 243.141c.349.279.509.866 1.101 1.915-5.173-1.915-9.773-3.542-14.324-5.302 2.397-.771 10.642 1.602 13.223 3.387z" data-color="1"/>
        <path fill="#484819" d="M361.485 243.72c4.016.355 7.54 2.037 11.114 3.586.97.434.99 1.196.828 2.04-4.419-1.71-8.837-3.421-13.563-5.321.72-.111 1.174-.319 1.621-.305z" data-color="1"/>
        <path fill="#484819" d="M373.468 249.437c-.09.042-.09.042 0 0z" data-color="1"/>
        <path fill="#484819" d="M400.439 237.478c2.659.758 5.656.811 7.398 3.643-4.301-1.215-8.643-2.521-13.474-3.932 2.593-1.302 4.435-.168 6.076.289z" data-color="1"/>
        <path fill="#484819" d="M398.772 240.556c.572.287.948 1.105 1.331 1.699-.14.174-.412.3-.552.474-5.138-1.6-8.356-3.092-9.471-4.561 3.261.152 6.005 1.092 8.692 2.388z" data-color="1"/>
        <path fill="#484819" d="M361.883 247.939c.978.211 2.277.164 2.302 2.133-3.149-.863-6.074-1.72-8.957-2.485.007-.224.105-.489.113-.713 1.068.17 2.095.248 3.163.417 1.159.128 2.269.388 3.379.648z" data-color="1"/>
        <path fill="#484819" d="M419.805 233.638c3.519.473 6.422 2 7.648 4.188-2.512-1.157-5.305-1.964-7.648-4.188z" data-color="1"/>
        <path fill="#484819" d="M294.13 246.839c-5.707.753-11.539 1.233-17.094 2.796-2.348.639-3.618-.208-4.844-2.395l-.334-.727c-1.705-3.949-.655-5.973 3.579-6.819 4.101-.895 8.293-1.831 12.394-2.726 1.803-.388 3.605-.777 5.533-.893 2.019-.157 2.933.633 3.09 2.652.109 2.151-.097 4.337-.303 6.523-.211.977-.945 1.535-2.021 1.589zm-11.057-3.941c.614.378 1.361.805 1.975 1.183.049-.133.189-.307.28-.349-.614-.378-1.27-.847-1.884-1.225a.764.764 0 0 1-.371.391zm-8.291.399c-.189.307-.329.482-.518.789.838.385 1.584.812 2.422 1.198.14-.175.189-.307.329-.482-.788-.518-1.535-.945-2.233-1.505zm10.118-2.89c-.14.174-.189.307-.329.481.523.42 1.137.798 1.66 1.218l.42-.523c-.656-.469-1.27-.847-1.751-1.176zm2.704-.583c1.974 1.184 3.551 2.219 5.261 3.305-.31-2.83-1.713-3.726-5.261-3.305z" data-color="1"/>
        <path fill="#484819" d="M232.89 266.849c-1.284-.4-2.436-.751-3.679-1.06-1.417-.449-2.604-1.115-4.421-.279-1.635.752-3.737.728-5.651.397-2.136-.339-4.168-1.166-6.157-1.902-.53-.197-.914-.791-1.437-1.211.14-.174.147-.398.287-.572 3.296.466 6.543 1.064 10.195 1.587.164-2.277 1.623-1.737 2.998-1.379 2.13.562 4.168 1.166 6.207 1.769.648.693 2.122.786 1.658 2.65z" data-color="1"/>
        <path fill="#484819" d="M231.232 264.199c.041.091.041.091 0 0z" data-color="1"/>
        <path fill="#484819" d="M276.369 256.326c1.125-.187 1.719-.57 2.208-.465 3.721 1.151 7.393 2.435 11.065 3.718.265.098.292.636.41 1.132-3.087-.011-10.661-2.362-13.683-4.385z" data-color="1"/>
        <path fill="#484819" d="M265.781 261.304c-.663-.245-1.228-.756-1.884-1.225 4.442-.391 11.256 1.979 13.194 4.28-4.224-.809-7.722-1.953-11.31-3.055z" data-color="1"/>
        <path fill="#484819" d="M279.737 260.06c1.103.484 2.709.626 2.825 2.554-.405.076-.908.418-1.174.32-3.154-2.073-7.176-2.204-10.406-4.682 1.942-.562 4.833-.02 8.755 1.808z" data-color="1"/>
        <path fill="#484819" d="M242.145 261.604c5.767 1.531 6.604 1.916 7.865 4.418a904.826 904.826 0 0 1-11.114-3.585c1.127-1.619 2.272-1.044 3.249-.833z" data-color="1"/>
        <path fill="#484819" d="M248.912 262.676c-.531-.197-.774-.965-1.116-1.469.189-.307.329-.481.518-.788 3.085 1.443 6.605 1.916 9.437 4.246-3.178.031-6.062-.735-8.839-1.989z" data-color="1"/>
        <path fill="#484819" d="M240.155 266.371c-1.587.62-2.724-.178-4.008-.578-1.683-.548-3.233-1.046-4.915-1.594-.43-1.893-.143-2.465 1.183-1.974 2.479.842 4.817 1.858 7.197 2.965.307.189.334.727.543 1.181z" data-color="1"/>
        <path fill="#484819" d="M291.247 255.649c2.613-.541 8.149 1.207 9.632 3.716-1.64-.456-3.33-.78-4.921-1.369-1.592-.589-3.66-.299-4.711-2.347z" data-color="1"/>
        <path fill="#484819" d="M257.554 261.124c2.961-.261 7.603 1.457 9.144 3.611-2.913.128-5.46-1.343-8.162-2.192-.398-.147-.599-.825-.982-1.419z" data-color="1"/>
        <path fill="#484819" d="M285.031 255.535c3.129.102 5.823 1.175 8.132 3.085-.098.266-.196.531-.204.754l-4.251-1.347c-3.323-1.004-3.323-1.004-3.677-2.492z" data-color="1"/>
        <path fill="#484819" d="M129.713 294.032c3.616 5.712 8.114 10.468 12.982 14.833.349.28.516.644.683 1.007.084.182-.056.356-.162.845-.572-.287-1.102-.483-1.493-.854-1.221-.98-2.442-1.959-3.481-3.023-2.852-3.091-5.655-6.315-8.416-9.448-.774-.965-1.547-1.93-.113-3.36z" data-color="1"/>
        <path fill="#484819" d="M120.437 294.445c2.353.569 10.128 9.101 11.074 11.638-4.201-2.912-6.947-6.492-9.973-9.723-.475-.552-.676-1.23-1.101-1.915z" data-color="1"/>
        <path fill="#484819" d="M114.974 300.038c-2.289-1.149-8.455-6.899-9.116-8.576 2.724.179 7.02 4.257 9.116 8.576z" data-color="1"/>
        <path fill="#484819" d="M510.75 217.911c1.01 1.957.244 4.841-1.44 5.725-1.685.885-4.819-.426-5.829-2.383-1.009-1.957-.357-4.128 1.65-5.271 2.278-1.268 4.268-.531 5.619 1.929zm-4.815 2.214c.118.496.913.791 1.876 1.449.128-1.16.464-1.864.255-2.319-.167-.363-.879-.476-1.361-.805-.329.481-.888 1.179-.77 1.675z" data-color="1"/>
        <path fill="#484819" d="M461.858 228.392c2.972-1.916 8.117-.54 9.181 2.493-1.592-.589-2.96-1.171-4.468-1.578-1.326-.491-2.799-.584-4.713-.915z" data-color="1"/>
        <path fill="#484819" d="M464.123 231.643c-1.571.172-7.373-1.673-9.124-2.849 2.704-.583 7.444.87 9.124 2.849z" data-color="1"/>
        <path fill="#484819" d="M252.647 456.098c-1.203 1.213-2.341.415-3.451.155-1.508-.407-3.016-.815-4.475-1.355-.397-.147-.739-.65-1.13-1.021l.246-.663c1.068.169 2.235.073 3.205.508 1.626.903 1.964-1.234 3.214-1.148.133.049.224.007.357.056 1.94.869 4.126 1.075 5.855 2.921-.552.475-1.014.907-1.476 1.339-.837-.385-2.065-1.141-2.345-.792z" data-color="1"/>
        <path fill="#484819" d="M254.951 456.8c.09-.042.09-.042 0 0z" data-color="1"/>
        <path fill="#484819" d="M245.842 457.575c-3.144.345-6.054-.959-7.629-3.427 3.163.417 5.445 1.789 7.629 3.427z" data-color="1"/>
        <path fill="#484819" d="M265.846 452.01c.467.776.752 1.636.052 2.508-1.053-.617-2.156-1.1-3.252-1.807-.174-.14-.349-.28-.481-.329l-.133-.049-.523-.42s-.042-.091-.133-.049c-.216-.231-.39-.371-.516-.644 1.692-1.108 2.906.096 4.149.405.265.098.488.105.754.203-.133-.049 0 0 .083.182z" data-color="1"/>
        <path fill="#484819" d="M261.858 452.193l.132.049s-.091.042-.132-.049z" data-color="1"/>
        <path fill="#484819" d="M265.846 452.01c.467.776.752 1.636.052 2.508.567-.922.415-1.732-.052-2.508z" data-color="1"/>
        <path fill="#484819" d="M270.23 453.406c-.091.042-.091.042 0 0-.265-.098-.53-.196-.754-.203-1.326-.491-2.562-1.024-3.93-1.605-.265-.099-.488-.106-.754-.204-.368-1.041-.423-2.117 1.044-1.801a21.11 21.11 0 0 1 4.767 1.991c.133.049.174.14.307.189l.042.091.083.182.042.091.042.09s.042.091-.049.133c0 0 .042.091-.049.133l-.049.132-.091.042c-.091.042-.049.133-.14.175-.091.041-.14.174-.231.216-.007.223-.056.356-.28.348.042.091.042.091 0 0z" data-color="1"/>
        <path fill="#484819" d="M270.272 453.497l-.091.042.091-.042z" data-color="1"/>
        <path fill="#484819" d="M270.994 451.955l-.042-.091.042.091z" data-color="1"/>
        <path fill="#484819" d="M271.056 452.808c.09-.042.049-.133.049-.133l-.049.133z" data-color="1"/>
        <path fill="#484819" d="M270.594 453.24l-.273.125c.133.049.182-.083.273-.125z" data-color="1"/>
        <path fill="#484819" d="M270.824 453.024c.091-.042.14-.175.14-.175.042.091-.049.133-.14.175z" data-color="1"/>
        <path fill="#484819" d="M271.077 452.137l.042.09-.042-.09z" data-color="1"/>
        <path fill="#484819" d="M270.23 453.406c-.091.042-.049.133 0 0-.091.042-.091.042 0 0z" data-color="1"/>
        <path fill="#484819" d="M100.06 315.479c2.746-.492 8.903 1.41 10.416 3.026-1.901.653-7.576-.92-10.416-3.026z" data-color="1"/>
        <path fill="#484819" d="M103.615 320.339c-2.954.037-9.02-1.906-10.409-3.25 2.606-.317 8.274 1.479 10.409 3.25z" data-color="1"/>
    </g>
</svg>
