<?xml version="1.0" encoding="UTF-8"?>
<svg data-bbox="-0.001 0.948 222.585 22.747" xmlns="http://www.w3.org/2000/svg" viewBox="0 0 223 24" height="24" width="223" data-type="color">
    <g>
        <path fill="#ffffff" d="M59.11 4.777c3.1.4 5.7 2 8.4 3.4 1.5.8 3.4.9 5 .7 1.8-.3 3.5-1.4 5.3-2 3.3-1.1 6.5-1.6 9.9-1.8 2.8-.2 5.1-.1 7.5 1.4 1.4.8 2.6 1.6 4.2 1.9 1.699.4 3.199.1 4.899-.3 1.5-.3 3-.7 4.5-1.1 1.7-.4 3.401-.5 5.101-.8 3.5-.5 6.699-1.7 10-2.9 2.8-1 6-1.2 9-.8 3.4.5 6.799.1 10.199.8 1.3.3 2.6.7 3.9 1.1.8.3 1.6.5 2.401.7 1 .3 2.099.2 3.099.1 1.6-.1 3.201-.4 4.901-.6 1.7-.2 3.399-.6 5.099-.7 3.3-.2 6.5 1.2 9.7 1.8 1.1.2 2.1.3 3.1 0 .7-.2 1.3-.7 1.9-1 1.3-.6 2.9-.5 4.3-.8l4.2-.9c1.5-.3 2.8-.1 4.3-.1 1.8.1 3.1-.8 4.7-1.2 1.6-.4 3.2-.5 4.9-.7 1.9-.2 3.4.7 5.2 1.1.2-.2.5-.4.8-.5.2-.1.3.2.1.3l-.6.3h.1c1.3.2 2.6.5 4 .5.6 0 1.2-.1 1.9-.1.2 0 .5 0 .7-.1.6-.1.6-.3 1.2-.5.7-.2.9-.6 1.6-.3 1.2.4 2.6.7 3.8 1.1.8.3 1.5.7 2.3.8.7.1 1.3.3 1.8.8.1.1.1.2 0 .3-.8.8-1.9.9-2.9 1.3-1.4.5-2.8 1-4.3 1.2-1.2.2-2.5-.2-3.6-.5-1.6-.4-3-.3-4.7-.2-1.4.1-2.9.4-4.3.3-1.8-.1-3.5-.5-5.3-.4-1.7 0-3.5.2-5.1.8-.8.3-1.7.6-2.5.9-.6.2-1.3.7-2 .5-1-.2-2.1-.6-3.2-.3-.7.2-1.3.5-2 .8-1.3.7-2.5 1.3-3.9 1.8-1.2.4-2.5.5-3.7.1-.5-.1-.9-.2-1.4-.3l-.4.4c-2 1.8-3.9 2.7-6.6 2.5-1 0-1.9-.4-2.8-.7-.6.2-1.2.2-1.9.2-1.4-.1-2.299-.8-3.499-1.5-.301 0-.501 0-.801.1-1.5.2-2.7 1.3-4 2.1-1.1.7-2.3 1.3-3.6 1.5-3 .5-5.3-3.2-8.3-2.2-1 .3-1.6 1.7-2.299 2.5-.7 1-1.901 1.4-3.101 1.6-1.3.2-2.6-.4-3.7-.8-1.6-.6-3-1.4-4.5-2.1-1.5-.8-3.1-1.6-4.8-1.9-1.8-.3-3.3.8-5 1-1.5.1-2.8.3-4.2 0-1.4-.3-2.899-.8-4.199-1.4-1.6-.7-3.5-.1-5 .4s-3.101.6-4.701.8c-3.1.3-6 1-8.8 2.3-1.4.6-2.8 1.4-3.9 2.5-.9.9-2.1 1.5-3.3 1.8-1.6.4-3.4.4-5.1.6-1.8.2-3.5.3-5.3.5-1.3.1-2.7.4-4 .1-1.6-.4-3.1-.7-4.7-.8-.9 0-1.8 0-2.7.1-1 .1-1.8.7-2.7.9-1.4.4-2.7.8-4.2.9-3.1.3-6.4.3-9.4-.4-1.6-.4-3.3-.7-5-.6-1.9.1-3.6.8-5.4 1.4-1.5.5-3 .6-4.6.9-1.8.3-3.5.3-5.4.3-.7 0-1.3-.1-1.9-.2-.9-.2-1.7.1-2.7.2-1 .1-1.8-.2-2.4-1-.6-.7-.7-1.4-1.8-1.6-.6-.2-1.2-.2-1.9-.2-1.7.1-3.3.1-5 .1-1.7 0-3.4.3-5.1.4-.7.1-1.5.2-2.2.3-.6 0-1.1-.2-1.7-.4-.4-.1-1.1-.7-1-1.2.1-.9 1.2-.8 1.9-.9 1.5-.1 3.3 0 4.7-.5 1.4-.4 2.7-1.2 4.1-1.5 1.4-.4 2.9.1 4.3.4 1.7.3 3.4.1 5.1.2 1.7 0 3.8.2 5.3-.8.5-.4 1-.9 1.5-1.3.6-.5 1.2-.8 1.9-1.1 2.9-1.3 5.6-1.9 8.8-2.2 3.1-.3 6.4-.4 9.5-.9.7-.1.9-.7 1.2-1.2.2-.5.7-1.1 1-1.6.7-1.1 1.7-2.2 2.7-3.1 1.6-1.2 4.8-1.1 7.1-.8z" data-color="1"/>
    </g>
</svg>
