<svg xmlns="http://www.w3.org/2000/svg" viewBox="0 0 621.51 621.51"><defs><style>.cls-1{fill:#193d92;}.cls-2{fill:#fff;}</style></defs><g id="Layer_2" data-name="Layer 2"><g id="Layer_1-2" data-name="Layer 1"><circle class="cls-1" cx="310.76" cy="310.76" r="310.76"/><path class="cls-2" d="M310.75,527.28a16.15,16.15,0,0,1-8.05-2.15l-91.28-52.7a180.89,180.89,0,0,1-90.19-156.21V156.65a16.18,16.18,0,0,1,8-14,364,364,0,0,1,362.94,0h0a16.18,16.18,0,0,1,8,14V316.22a180.89,180.89,0,0,1-90.19,156.21l-91.28,52.7A16.19,16.19,0,0,1,310.75,527.28Zm-167.09-367V316.22a158.39,158.39,0,0,0,79,136.79l88.11,50.87L398.88,453a158.4,158.4,0,0,0,79-136.79V160.31A341.55,341.55,0,0,0,143.66,160.31Z"/><path class="cls-2" d="M284.41,388.05a12.77,12.77,0,0,1-9.32-4.05l-47.77-51.06a12.13,12.13,0,0,1,.56-17.12l16.71-15.62a12.12,12.12,0,0,1,17.13.57l21.78,23.28,79.75-91.59a12.12,12.12,0,0,1,17.1-1.18l17.23,15a12.12,12.12,0,0,1,1.18,17.09L294.05,383.66A12.79,12.79,0,0,1,284.41,388.05Z"/></g></g></svg>