<?xml version="1.0" encoding="UTF-8"?>
<svg data-bbox="0 0 395.99 53.74" viewBox="0 0 395.99 53.74" xmlns:xlink="http://www.w3.org/1999/xlink" xmlns="http://www.w3.org/2000/svg" data-type="ugc">
    <g>
        <defs>
            <linearGradient gradientUnits="userSpaceOnUse" y2="10.58" x2="143.88" y1="137.4" x1="408.22" id="3fe1ed0c-a51e-4802-bd78-a86ac99c0589">
                <stop stop-color="#ed9758" offset="0"/>
                <stop stop-opacity=".7" stop-color="#f5821f" offset="1"/>
            </linearGradient>
            <linearGradient gradientUnits="userSpaceOnUse" y2="8.87" x2="143.46" y1="135.7" x1="407.79" id="c12cbc7c-a08c-43c2-98ef-881ab59345de">
                <stop stop-color="#f5821f" offset="0"/>
                <stop stop-color="#ed9654" offset="1"/>
            </linearGradient>
            <linearGradient gradientUnits="userSpaceOnUse" y2="49.91" x2="319.47" y1="29.48" x1="260.75" id="fcb9dbc3-aaf8-49e6-972a-dc94641b5447">
                <stop stop-color="#bcaa9a" offset="0"/>
                <stop stop-opacity=".7" stop-color="#c9c3b3" offset="1"/>
            </linearGradient>
            <linearGradient gradientUnits="userSpaceOnUse" gradientTransform="rotate(180 241.42 25.715)" y2="25.72" x2="243.61" y1="25.72" x1="239.23" id="b1e0c58d-6e33-40d8-b40f-69739b0bfde9">
                <stop stop-color="#6994c9" offset="0"/>
                <stop stop-color="#e1e4e7" offset="1"/>
            </linearGradient>
            <linearGradient gradientUnits="userSpaceOnUse" y2="25.72" x2="256.54" y1="25.72" x1="240.06" id="391d0369-821a-4ae1-b337-b49957bc8390">
                <stop stop-color="#2b5a89" offset="0"/>
                <stop stop-color="#152843" offset="1"/>
            </linearGradient>
            <linearGradient gradientUnits="userSpaceOnUse" y2="25.72" x2="263.45" y1="25.72" x1="241.64" id="ce039bed-48eb-4844-bae4-43fee1bea29b">
                <stop stop-color="#2a486b" offset="0"/>
                <stop stop-color="#4e8fc4" offset="1"/>
            </linearGradient>
            <linearGradient xlink:href="#391d0369-821a-4ae1-b337-b49957bc8390" y2="25.72" x2="266.34" y1="25.72" x1="244.54" id="1e50b8bc-d83e-4df7-9e8e-305f4c644fd8"/>
            <linearGradient xlink:href="#ce039bed-48eb-4844-bae4-43fee1bea29b" y2="25.72" x2="268.7" y1="25.72" x1="246.9" id="1155544c-db1c-43b7-96b4-50880a846c00"/>
            <linearGradient xlink:href="#391d0369-821a-4ae1-b337-b49957bc8390" y2="25.72" x2="271.59" y1="25.72" x1="249.79" id="5ffbeeac-416e-4521-bc27-cce89bc08ef7"/>
            <linearGradient xlink:href="#b1e0c58d-6e33-40d8-b40f-69739b0bfde9" y2="23.83" x2="281.01" y1="27.44" x1="281.01" id="fdc740b5-48e1-4bb1-ba7e-9ebd10194f97"/>
            <linearGradient xlink:href="#391d0369-821a-4ae1-b337-b49957bc8390" y2="25.72" x2="304.17" y1="25.72" x1="282.36" id="345de55a-6b8d-43c8-ac35-32fe51788bb9"/>
            <linearGradient xlink:href="#ce039bed-48eb-4844-bae4-43fee1bea29b" y2="25.72" x2="285.25" y1="25.72" x1="307.06" id="1e9dde88-910b-4de1-bc94-914e78ecbe65"/>
            <linearGradient xlink:href="#391d0369-821a-4ae1-b337-b49957bc8390" y2="25.72" x2="309.13" y1="25.72" x1="287.32" id="e285ced6-2eae-45ae-bdd0-997fbf99f8e9"/>
            <linearGradient xlink:href="#ce039bed-48eb-4844-bae4-43fee1bea29b" y2="25.72" x2="290.22" y1="25.72" x1="312.02" id="71388a81-0561-43fc-85bb-807fb1195174"/>
            <linearGradient xlink:href="#391d0369-821a-4ae1-b337-b49957bc8390" y2="25.72" x2="310.08" y1="25.72" x1="293.61" id="22de886b-8e3d-4b46-aaf7-1a1ab161d4e1"/>
            <linearGradient xlink:href="#ce039bed-48eb-4844-bae4-43fee1bea29b" y2="25.72" x2="297.56" y1="25.72" x1="311.06" id="8d4ee103-5372-4600-a0e4-724bc0cd5d95"/>
            <linearGradient xlink:href="#391d0369-821a-4ae1-b337-b49957bc8390" y2="25.72" x2="307.4" y1="25.72" x1="301.22" id="c28e2839-2f6f-41ab-bd3e-f96ebac5498e"/>
            <linearGradient xlink:href="#b1e0c58d-6e33-40d8-b40f-69739b0bfde9" y2="25.72" x2="308.09" y1="25.72" x1="303.7" id="2b58162b-75cc-45b7-809c-37603925be96"/>
            <linearGradient xlink:href="#fcb9dbc3-aaf8-49e6-972a-dc94641b5447" y2="55.23" x2="143.85" y1="22.72" x1="136.52" id="15b69bbe-3e2f-4e13-8179-807429618f27"/>
            <linearGradient xlink:href="#b1e0c58d-6e33-40d8-b40f-69739b0bfde9" gradientTransform="matrix(-1 0 0 1 396.11 0)" y2="20.35" x2="215.65" y1="20.35" x1="209.46" id="6e54fac3-4363-4c44-9718-f005e30dea74"/>
            <linearGradient xlink:href="#391d0369-821a-4ae1-b337-b49957bc8390" gradientTransform="matrix(-1 0 0 1 396.11 0)" y2="20.35" x2="233.88" y1="20.35" x1="210.64" id="cc5bffb3-3627-4f89-82ed-fc3a78d12e11"/>
            <linearGradient xlink:href="#ce039bed-48eb-4844-bae4-43fee1bea29b" gradientTransform="matrix(-1 0 0 1 396.11 0)" y2="20.35" x2="243.63" y1="20.35" x1="212.87" id="4fc5fa51-8b11-46c4-8b3a-6226b916a72d"/>
            <linearGradient xlink:href="#391d0369-821a-4ae1-b337-b49957bc8390" gradientTransform="matrix(-1 0 0 1 396.11 0)" y2="20.35" x2="247.71" y1="20.35" x1="216.95" id="c1161017-15d1-40f5-9f48-edd2f39122a5"/>
            <linearGradient xlink:href="#ce039bed-48eb-4844-bae4-43fee1bea29b" gradientTransform="matrix(-1 0 0 1 396.11 0)" y2="20.35" x2="251.05" y1="20.35" x1="220.28" id="ea5840fa-6eb1-47b8-afd9-8de571fb8803"/>
            <linearGradient xlink:href="#391d0369-821a-4ae1-b337-b49957bc8390" gradientTransform="matrix(-1 0 0 1 396.11 0)" y2="20.35" x2="255.13" y1="20.35" x1="224.36" id="da370a28-ca5e-4786-9334-a90b2bb00bb1"/>
            <linearGradient xlink:href="#b1e0c58d-6e33-40d8-b40f-69739b0bfde9" gradientTransform="matrix(1 0 0 -1 -140.73 40.42)" y2="17.68" x2="268.42" y1="22.77" x1="268.42" id="5cb7d974-4cec-40ab-8489-ff4c1d38e4a3"/>
            <linearGradient xlink:href="#391d0369-821a-4ae1-b337-b49957bc8390" gradientTransform="matrix(-1 0 0 1 396.11 0)" y2="20.35" x2="301.08" y1="20.35" x1="270.32" id="47880da7-c625-4dbc-b465-0717c688f196"/>
            <linearGradient xlink:href="#ce039bed-48eb-4844-bae4-43fee1bea29b" gradientTransform="matrix(-1 0 0 1 396.11 0)" y2="20.35" x2="274.4" y1="20.35" x1="305.17" id="bd4ce2b0-92d4-4e22-973d-9fb17229f38b"/>
            <linearGradient xlink:href="#391d0369-821a-4ae1-b337-b49957bc8390" gradientTransform="matrix(-1 0 0 1 396.11 0)" y2="20.35" x2="308.09" y1="20.35" x1="277.32" id="e015eebb-84a1-4478-9704-2e7aadf1ab9c"/>
            <linearGradient xlink:href="#ce039bed-48eb-4844-bae4-43fee1bea29b" gradientTransform="matrix(-1 0 0 1 396.11 0)" y2="20.35" x2="281.4" y1="20.35" x1="312.17" id="981066ae-75a7-45e1-9bb4-6f5face0c96e"/>
            <linearGradient xlink:href="#391d0369-821a-4ae1-b337-b49957bc8390" gradientTransform="matrix(-1 0 0 1 396.11 0)" y2="20.35" x2="309.43" y1="20.35" x1="286.19" id="39c158cf-37f8-4903-b985-371cf63d495b"/>
            <linearGradient xlink:href="#ce039bed-48eb-4844-bae4-43fee1bea29b" gradientTransform="matrix(-1 0 0 1 396.11 0)" y2="20.35" x2="291.76" y1="20.35" x1="310.81" id="ee772d5c-38ba-427c-a365-c6b11dadeaa2"/>
            <linearGradient xlink:href="#391d0369-821a-4ae1-b337-b49957bc8390" gradientTransform="matrix(-1 0 0 1 396.11 0)" y2="20.35" x2="305.65" y1="20.35" x1="296.93" id="acea7980-69e2-443e-81a8-de2984a280a5"/>
            <linearGradient xlink:href="#b1e0c58d-6e33-40d8-b40f-69739b0bfde9" gradientTransform="matrix(1 0 0 -1 -210.94 40.69)" y2="20.35" x2="306.62" y1="20.35" x1="300.43" id="e55892c1-bfdb-444e-9a70-4721d156f270"/>
        </defs>
        <g>
            <path style="mix-blend-mode:multiply" fill="url(#3fe1ed0c-a51e-4802-bd78-a86ac99c0589)" opacity=".5" d="M275.81 53.74H.43l128.53-34.21h267.03L275.81 53.74z"/>
            <path fill="url(#c12cbc7c-a08c-43c2-98ef-881ab59345de)" d="M275.38 52.04H0l128.53-34.21h267.03L275.38 52.04z"/>
            <path d="M332.3 37.73c0 2.65-21.42 4.79-47.84 4.79s-47.83-2.14-47.83-4.79 21.42-4.79 47.83-4.79 47.84 2.15 47.84 4.79z" style="mix-blend-mode:multiply" fill="url(#fcb9dbc3-aaf8-49e6-972a-dc94641b5447)" opacity=".5"/>
            <path transform="rotate(-180 241.42 25.715)" d="M240.08 23.95h1.76a1.77 1.77 0 0 1 1.77 1.77 1.77 1.77 0 0 1-1.77 1.77h-1.76a.85.85 0 0 1-.85-.85v-1.85a.85.85 0 0 1 .85-.85z" fill="url(#b1e0c58d-6e33-40d8-b40f-69739b0bfde9)"/>
            <path fill="url(#391d0369-821a-4ae1-b337-b49957bc8390)" d="M256.54 25.72c0 6.02-3.69 10.9-8.24 10.9-4.55 0-8.24-4.88-8.24-10.9 0-6.02 3.69-10.9 8.24-10.9 4.55 0 8.24 4.88 8.24 10.9z"/>
            <path d="M263.45 25.72c0 3.88-2.81 8.83-4.77 11.8a5.83 5.83 0 0 1-4.87 2.62h-1.26c-6 0-10.91-6.46-10.91-14.42s4.88-14.42 10.91-14.42h1.26a5.82 5.82 0 0 1 4.87 2.61c1.96 2.97 4.77 7.91 4.77 11.81z" fill="url(#ce039bed-48eb-4844-bae4-43fee1bea29b)"/>
            <path fill="url(#1e50b8bc-d83e-4df7-9e8e-305f4c644fd8)" d="M266.34 25.72c0 7.964-4.88 14.42-10.9 14.42-6.02 0-10.9-6.456-10.9-14.42 0-7.964 4.88-14.42 10.9-14.42 6.02 0 10.9 6.456 10.9 14.42z"/>
            <path d="M268.7 25.72c0 3.88-2.81 8.83-4.77 11.8a5.81 5.81 0 0 1-4.87 2.62h-1.26c-6 0-10.9-6.46-10.9-14.42s4.88-14.42 10.9-14.42h1.26a5.8 5.8 0 0 1 4.87 2.61c1.96 2.97 4.77 7.91 4.77 11.81z" fill="url(#1155544c-db1c-43b7-96b4-50880a846c00)"/>
            <path fill="url(#5ffbeeac-416e-4521-bc27-cce89bc08ef7)" d="M271.59 25.72c0 7.964-4.88 14.42-10.9 14.42-6.02 0-10.9-6.456-10.9-14.42 0-7.964 4.88-14.42 10.9-14.42 6.02 0 10.9 6.456 10.9 14.42z"/>
            <path fill="url(#fdc740b5-48e1-4bb1-ba7e-9ebd10194f97)" d="M302.59 25.62v.01a2.38 2.38 0 0 1-2.38 2.38h-38.38a2.38 2.38 0 0 1-2.38-2.38v-.01a2.38 2.38 0 0 1 2.38-2.38h38.38a2.38 2.38 0 0 1 2.38 2.38z"/>
            <path d="M304.17 25.72c0 3.88-2.82 8.83-4.77 11.8a5.83 5.83 0 0 1-4.88 2.62h-1.26c-6 0-10.9-6.46-10.9-14.42s4.88-14.42 10.9-14.42h1.27a5.82 5.82 0 0 1 4.87 2.61c1.96 2.97 4.77 7.91 4.77 11.81z" fill="url(#345de55a-6b8d-43c8-ac35-32fe51788bb9)"/>
            <path fill="url(#1e9dde88-910b-4de1-bc94-914e78ecbe65)" d="M307.06 25.72c0 7.964-4.88 14.42-10.9 14.42-6.02 0-10.9-6.456-10.9-14.42 0-7.964 4.88-14.42 10.9-14.42 6.02 0 10.9 6.456 10.9 14.42z"/>
            <path d="M309.13 25.72c0 3.88-2.81 8.83-4.77 11.8a5.83 5.83 0 0 1-4.87 2.62h-1.26c-6 0-10.91-6.46-10.91-14.42s4.89-14.42 10.91-14.42h1.26a5.82 5.82 0 0 1 4.87 2.61c1.96 2.97 4.77 7.91 4.77 11.81z" fill="url(#e285ced6-2eae-45ae-bdd0-997fbf99f8e9)"/>
            <path fill="url(#71388a81-0561-43fc-85bb-807fb1195174)" d="M312.02 25.72c0 7.964-4.88 14.42-10.9 14.42-6.02 0-10.9-6.456-10.9-14.42 0-7.964 4.88-14.42 10.9-14.42 6.02 0 10.9 6.456 10.9 14.42z"/>
            <path fill="url(#22de886b-8e3d-4b46-aaf7-1a1ab161d4e1)" d="M310.09 25.72c0 6.02-3.69 10.9-8.24 10.9-4.55 0-8.24-4.88-8.24-10.9 0-6.02 3.69-10.9 8.24-10.9 4.55 0 8.24 4.88 8.24 10.9z"/>
            <path fill="url(#8d4ee103-5372-4600-a0e4-724bc0cd5d95)" d="M311.06 25.72c0 4.932-3.022 8.93-6.75 8.93s-6.75-3.998-6.75-8.93c0-4.932 3.022-8.93 6.75-8.93s6.75 3.998 6.75 8.93z"/>
            <path d="M307.4 25.72c0 2.25-1.38 4.08-3.09 4.08s-3.09-1.83-3.09-4.08 1.38-4.09 3.09-4.09 3.09 1.83 3.09 4.09z" fill="url(#c28e2839-2f6f-41ab-bd3e-f96ebac5498e)"/>
            <path d="M304.55 23.95h1.76a1.77 1.77 0 0 1 1.77 1.77 1.77 1.77 0 0 1-1.77 1.77h-1.76a.85.85 0 0 1-.85-.85v-1.85a.85.85 0 0 1 .85-.84z" fill="url(#2b58162b-75cc-45b7-809c-37603925be96)"/>
            <path d="M208.88 37.36c0 2.85-30.92 5.16-69.06 5.16s-69.06-2.31-69.06-5.16 30.92-5.17 69.06-5.17 69.06 2.31 69.06 5.17z" style="mix-blend-mode:multiply" fill="url(#15b69bbe-3e2f-4e13-8179-807429618f27)" opacity=".5"/>
            <path d="M181.66 17.84h2.49a2.5 2.5 0 0 1 2.5 2.5 2.5 2.5 0 0 1-2.5 2.5h-2.49a1.2 1.2 0 0 1-1.2-1.2V19a1.2 1.2 0 0 1 1.2-1.2z" fill="url(#6e54fac3-4363-4c44-9718-f005e30dea74)"/>
            <path fill="url(#cc5bffb3-3627-4f89-82ed-fc3a78d12e11)" d="M185.47 20.35c0 8.489-5.202 15.37-11.62 15.37-6.418 0-11.62-6.881-11.62-15.37 0-8.489 5.202-15.37 11.62-15.37 6.418 0 11.62 6.881 11.62 15.37z"/>
            <path d="M152.47 20.35c0 5.47 4 12.45 6.73 16.65a8.23 8.23 0 0 0 6.88 3.69h1.78c8.49 0 15.38-9.11 15.38-20.34S176.35 0 167.86 0h-1.79a8.22 8.22 0 0 0-6.87 3.69c-2.76 4.19-6.73 11.16-6.73 16.66z" fill="url(#4fc5fa51-8b11-46c4-8b3a-6226b916a72d)"/>
            <path fill="url(#c1161017-15d1-40f5-9f48-edd2f39122a5)" d="M179.16 20.35c0 11.239-6.886 20.35-15.38 20.35s-15.38-9.111-15.38-20.35S155.286 0 163.78 0s15.38 9.111 15.38 20.35z"/>
            <path d="M145.06 20.35c0 5.47 4 12.45 6.73 16.65a8.22 8.22 0 0 0 6.87 3.69h1.78c8.5 0 15.38-9.11 15.38-20.34S168.94 0 160.44 0h-1.78a8.21 8.21 0 0 0-6.87 3.69c-2.79 4.19-6.73 11.16-6.73 16.66z" fill="url(#ea5840fa-6eb1-47b8-afd9-8de571fb8803)"/>
            <path fill="url(#da370a28-ca5e-4786-9334-a90b2bb00bb1)" d="M171.74 20.35c0 11.239-6.886 20.35-15.38 20.35s-15.38-9.111-15.38-20.35S147.866 0 156.36 0s15.38 9.111 15.38 20.35z"/>
            <path transform="rotate(180 127.69 20.21)" fill="url(#5cb7d974-4cec-40ab-8489-ff4c1d38e4a3)" d="M158.12 20.21v.01a3.36 3.36 0 0 1-3.36 3.36h-54.14a3.36 3.36 0 0 1-3.36-3.36v-.01a3.36 3.36 0 0 1 3.36-3.36h54.14a3.36 3.36 0 0 1 3.36 3.36z"/>
            <path d="M95 20.35c0 5.47 4 12.45 6.73 16.65a8.23 8.23 0 0 0 6.88 3.69h1.78c8.49 0 15.38-9.11 15.38-20.34S118.9 0 110.41 0h-1.79a8.22 8.22 0 0 0-6.87 3.69C99 7.88 95 14.85 95 20.35z" fill="url(#47880da7-c625-4dbc-b465-0717c688f196)"/>
            <path fill="url(#bd4ce2b0-92d4-4e22-973d-9fb17229f38b)" d="M121.7 20.35c0 11.239-6.886 20.35-15.38 20.35s-15.38-9.111-15.38-20.35S97.826 0 106.32 0s15.38 9.111 15.38 20.35z"/>
            <path d="M88 20.35c0 5.47 4 12.45 6.75 16.65a8.23 8.23 0 0 0 6.88 3.69h1.77c8.5 0 15.39-9.11 15.39-20.34S111.9 0 103.4 0h-1.78a8.22 8.22 0 0 0-6.87 3.69C92 7.88 88 14.85 88 20.35z" fill="url(#e015eebb-84a1-4478-9704-2e7aadf1ab9c)"/>
            <path fill="url(#981066ae-75a7-45e1-9bb4-6f5face0c96e)" d="M114.7 20.35c0 11.239-6.886 20.35-15.38 20.35s-15.38-9.111-15.38-20.35S90.826 0 99.32 0s15.38 9.111 15.38 20.35z"/>
            <path fill="url(#39c158cf-37f8-4903-b985-371cf63d495b)" d="M109.92 20.35c0 8.489-5.202 15.37-11.62 15.37-6.418 0-11.62-6.881-11.62-15.37 0-8.489 5.202-15.37 11.62-15.37 6.418 0 11.62 6.881 11.62 15.37z"/>
            <path fill="url(#ee772d5c-38ba-427c-a365-c6b11dadeaa2)" d="M104.34 20.35c0 6.953-4.262 12.59-9.52 12.59s-9.52-5.637-9.52-12.59 4.262-12.59 9.52-12.59 9.52 5.637 9.52 12.59z"/>
            <path d="M90.46 20.35c0 3.18 2 5.76 4.36 5.76s4.36-2.58 4.36-5.76-2-5.77-4.36-5.77-4.36 2.58-4.36 5.77z" fill="url(#acea7980-69e2-443e-81a8-de2984a280a5)"/>
            <path transform="rotate(180 92.585 20.345)" d="M90.69 17.84h2.49a2.5 2.5 0 0 1 2.5 2.5 2.5 2.5 0 0 1-2.5 2.5h-2.49a1.2 1.2 0 0 1-1.2-1.2V19a1.2 1.2 0 0 1 1.2-1.16z" fill="url(#e55892c1-bfdb-444e-9a70-4721d156f270)"/>
        </g>
    </g>
</svg>
