<?xml version="1.0" encoding="UTF-8"?>
<svg data-bbox="0.002 0.008 193.516 159.425" viewBox="0 0 193.52 158.16" xmlns:xlink="http://www.w3.org/1999/xlink" xmlns="http://www.w3.org/2000/svg" data-type="ugc">
    <g>
        <defs>
            <linearGradient gradientUnits="userSpaceOnUse" gradientTransform="matrix(.5 -.55 -.74 -.67 -120.58 -227.8)" y2="-341.69" x2="-5.84" y1="-341.69" x1="-91.21" id="9594c09f-1919-48ed-865b-1813c87cc84f">
                <stop stop-color="#152843" offset=".01"/>
                <stop stop-color="#254d7c" offset=".97"/>
            </linearGradient>
            <linearGradient xlink:href="#9594c09f-1919-48ed-865b-1813c87cc84f" gradientTransform="rotate(-1.56 -135.284 34.89)" y2="23.39" x2="126.65" y1="140.77" x1="126.65" id="217f2a7c-f265-4564-878a-a974fe2da7c2"/>
            <linearGradient gradientUnits="userSpaceOnUse" gradientTransform="rotate(-1.56 -135.284 34.89)" y2="24.54" x2="120.92" y1="140.78" x1="120.92" id="b79587d7-e5f2-4387-9a55-1600c32a7bb8">
                <stop stop-color="#375c89" offset=".01"/>
                <stop stop-color="#4d73a0" offset=".97"/>
            </linearGradient>
            <linearGradient xlink:href="#9594c09f-1919-48ed-865b-1813c87cc84f" gradientTransform="rotate(-1.56 -135.284 34.89)" y2="127.47" x2="129.44" y1="143.19" x1="129.44" id="c42d20ae-d571-4ddf-9188-2180ffe9b262"/>
            <linearGradient gradientUnits="userSpaceOnUse" gradientTransform="rotate(-1.56 -135.284 34.89)" y2="127.47" x2="129.44" y1="129.83" x1="129.44" id="c16955dd-77df-400f-8d14-1e803b94b02c">
                <stop stop-color="#bbd0ea" offset=".01"/>
                <stop stop-color="#305f96" offset="1"/>
            </linearGradient>
            <linearGradient gradientUnits="userSpaceOnUse" gradientTransform="rotate(-1.56 -135.284 34.89)" y2="138.61" x2="164.07" y1="138.61" x1="4.67" id="187c3a5d-c7bb-4e53-9c53-baa076f86d64">
                <stop stop-color="#254d7c" offset=".03"/>
                <stop stop-color="#152843" offset=".99"/>
            </linearGradient>
            <linearGradient gradientUnits="userSpaceOnUse" gradientTransform="rotate(-1.56 -135.284 34.89)" y2="132.43" x2="2.31" y1="144.54" x1="2.31" id="bd8968b1-9be2-4e75-a2f2-3814c6f035b5">
                <stop stop-color="#274e7c" offset=".01"/>
                <stop stop-color="#4d73a0" offset=".97"/>
            </linearGradient>
            <linearGradient xlink:href="#c16955dd-77df-400f-8d14-1e803b94b02c" y2="133.57" x2="164.06" y1="133.57" x1="-2.11" id="fbe11693-c85b-45ef-a89f-1445f2ed3812"/>
            <linearGradient gradientUnits="userSpaceOnUse" gradientTransform="rotate(-1.56 -135.284 34.89)" y2="142.66" x2="178.66" y1="142.66" x1="7" id="87eff293-7ec0-4ec3-a07b-72e976ecd62b">
                <stop stop-color="#152843" offset=".01"/>
                <stop stop-color="#225c8c" offset=".97"/>
            </linearGradient>
            <linearGradient xlink:href="#187c3a5d-c7bb-4e53-9c53-baa076f86d64" y2="146.08" x2="190.75" y1="146.08" x1="31.31" id="6d218403-461e-4358-9d94-bc72a0331377"/>
            <linearGradient xlink:href="#bd8968b1-9be2-4e75-a2f2-3814c6f035b5" y2="139.54" x2="28.95" y1="152.22" x1="28.95" id="a168f268-603f-4001-927f-d49c0d3258e7"/>
            <linearGradient xlink:href="#c16955dd-77df-400f-8d14-1e803b94b02c" y2="140.58" x2="190.75" y1="140.58" x1="24.53" id="6aeda318-e8c9-4231-9513-948ab62b6241"/>
            <linearGradient xlink:href="#c16955dd-77df-400f-8d14-1e803b94b02c" y2="136.78" x2="190.75" y1="136.78" x1="139.11" id="c18572a5-fd52-4d52-9c37-51ce58221786"/>
            <linearGradient gradientUnits="userSpaceOnUse" gradientTransform="rotate(-1.56 -135.284 34.89)" y2="146.83" x2="190.07" y1="146.83" x1="23.97" id="b5767790-d64e-4837-b720-4cbc75747fb3">
                <stop stop-color="#ffd916" offset="0"/>
                <stop stop-color="#f4944d" offset="1"/>
            </linearGradient>
            <linearGradient xlink:href="#b5767790-d64e-4837-b720-4cbc75747fb3" y2="138.99" x2="5.74" y1="138.99" x1="-2.75" id="958bc669-b4a4-4807-8e9c-4c428f4622a4"/>
            <linearGradient gradientUnits="userSpaceOnUse" y2="132.79" x2="23.4" y1="135.18" x1="23.4" id="96d66f8c-7d52-4e57-8150-45b815537221">
                <stop offset="0"/>
                <stop stop-color="#4d3b2c" offset="1"/>
            </linearGradient>
            <linearGradient xlink:href="#96d66f8c-7d52-4e57-8150-45b815537221" y2="132.7" x2="91.31" y1="135.88" x1="91.31" id="c03ee280-458d-4343-bb31-f14ba2555bc0"/>
            <linearGradient xlink:href="#96d66f8c-7d52-4e57-8150-45b815537221" y2="127.73" x2="99.88" y1="133.7" x1="99.88" id="9a9b9b96-06b7-4e7e-a216-5d7c0f2347f8"/>
            <linearGradient xlink:href="#96d66f8c-7d52-4e57-8150-45b815537221" y2="126.9" x2="95.75" y1="129.77" x1="95.75" id="e3e125da-a846-427a-bd85-f74c402f4fdd"/>
            <linearGradient xlink:href="#9594c09f-1919-48ed-865b-1813c87cc84f" gradientTransform="rotate(-1.56 -135.284 34.89)" y2="36.29" x2="156.96" y1="153.67" x1="156.96" id="49ea0181-d0cb-4884-8c9a-086815c2b3ee"/>
            <linearGradient xlink:href="#b79587d7-e5f2-4387-9a55-1600c32a7bb8" y2="37.43" x2="151.23" y1="153.67" x1="151.23" id="ed6ab9f7-2291-451a-992f-e6a78aa3ab99"/>
            <linearGradient xlink:href="#9594c09f-1919-48ed-865b-1813c87cc84f" gradientTransform="rotate(-1.56 -135.284 34.89)" y2="140.36" x2="159.75" y1="156.08" x1="159.75" id="13807d30-149e-494b-a204-71fd164d8e49"/>
            <linearGradient xlink:href="#c16955dd-77df-400f-8d14-1e803b94b02c" y2="140.36" x2="159.75" y1="142.72" x1="159.75" id="5d2f57e3-fc49-4b4a-a5b2-999f701bfa31"/>
            <linearGradient gradientUnits="userSpaceOnUse" gradientTransform="rotate(-1.56 -135.284 34.89)" y2="30.5" x2="179.89" y1="30.5" x1="97.75" id="cb2845dd-5109-44f2-bf25-3b9f7627f5de">
                <stop stop-color="#5b7089" offset="0"/>
                <stop stop-color="#cde1f9" offset="1"/>
            </linearGradient>
            <linearGradient gradientUnits="userSpaceOnUse" gradientTransform="rotate(-1.56 -135.284 34.89)" y2="23.52" x2="179.89" y1="23.52" x1="97.75" id="586f8ce1-480e-4029-b324-143bbbb29381">
                <stop stop-color="#a5cbf9" offset="0"/>
                <stop stop-color="#dee2e1" offset="1"/>
            </linearGradient>
            <linearGradient gradientUnits="userSpaceOnUse" gradientTransform="rotate(-1.56 -135.284 34.89)" y2="35.16" x2="130.2" y1="35.16" x1="107.93" id="283a6cf2-f40f-4820-bd3b-a55a33aeaf9f">
                <stop stop-color="#4d73a0" offset=".03"/>
                <stop stop-color="#375c89" offset=".99"/>
            </linearGradient>
            <linearGradient xlink:href="#9594c09f-1919-48ed-865b-1813c87cc84f" gradientTransform="rotate(-1.56 -135.284 34.89)" y2="39.07" x2="130.2" y1="39.07" x1="107.93" id="b3840dce-8f26-4a2c-9b0e-6594623ce2d8"/>
            <linearGradient xlink:href="#9594c09f-1919-48ed-865b-1813c87cc84f" gradientTransform="rotate(-1.56 -135.284 34.89)" y2="20.61" x2="172.38" y1="20.61" x1="107.93" id="38f68501-54fc-4e0d-9ed9-87dd6eda96bb"/>
            <linearGradient gradientUnits="userSpaceOnUse" gradientTransform="rotate(-1.56 -135.284 34.89)" y2="21.46" x2="168.23" y1="21.46" x1="112.95" id="28147174-dd3d-4512-ac4d-23ed9bf34d2b">
                <stop stop-color="#4d3b2c" offset="0"/>
                <stop offset="1"/>
            </linearGradient>
            <linearGradient xlink:href="#cb2845dd-5109-44f2-bf25-3b9f7627f5de" y2="18.71" x2="172.38" y1="18.71" x1="107.93" id="a28699dc-a3e6-4e56-8301-70cffe9e61c0"/>
            <linearGradient xlink:href="#28147174-dd3d-4512-ac4d-23ed9bf34d2b" gradientTransform="rotate(7.51 -110.06 -91.477)" y2="4.48" x2="124.22" y1="1.61" x1="90.76" id="0d1c0e4c-6ca2-46f8-9ff9-a9b6ce8e56aa"/>
            <linearGradient xlink:href="#9594c09f-1919-48ed-865b-1813c87cc84f" gradientTransform="rotate(-7 -82.15 -59.627)" y2="52.58" x2="125.94" y1="51.79" x1="116.81" id="5616a22e-7224-4c1a-9a3c-6e8e7dc3b6ec"/>
            <linearGradient xlink:href="#283a6cf2-f40f-4820-bd3b-a55a33aeaf9f" gradientTransform="rotate(-7 -82.15 -59.627)" y2="52.02" x2="125.91" y1="51.25" x1="116.86" id="e442ad7d-7db0-4d15-b541-e35b43ded80f"/>
            <linearGradient xlink:href="#9594c09f-1919-48ed-865b-1813c87cc84f" gradientTransform="rotate(-4.88 -93.438 -58.29)" y2="43.42" x2="133.72" y1="42.63" x1="124.6" id="052a86a4-0b74-4844-a073-deddc85e2d00"/>
            <linearGradient xlink:href="#283a6cf2-f40f-4820-bd3b-a55a33aeaf9f" gradientTransform="rotate(-4.88 -93.438 -58.29)" y2="42.86" x2="133.69" y1="42.09" x1="124.64" id="3e1bb608-85b1-4051-bb0a-64bbe023995f"/>
            <linearGradient xlink:href="#b5767790-d64e-4837-b720-4cbc75747fb3" gradientTransform="rotate(7.51 -110.06 -91.477)" y2="9.75" x2="108.35" y1="9.75" x1="88" id="fa458904-3429-4ff5-b243-a819dd4c9aaf"/>
            <linearGradient gradientUnits="userSpaceOnUse" gradientTransform="rotate(7.51 -110.06 -91.477)" y2="10.62" x2="108.88" y1="10.62" x1="94.4" id="65095307-29d5-42e7-8efb-49552f85b22d">
                <stop stop-color="#99623d" offset="0"/>
                <stop stop-color="#f5821f" offset="1"/>
            </linearGradient>
            <linearGradient xlink:href="#9594c09f-1919-48ed-865b-1813c87cc84f" gradientTransform="matrix(.89 -.07 .07 1 3.47 -6.54)" y2="48.06" x2="195.83" y1="48.06" x1="115.75" id="cc87eb7a-edcb-400f-8bad-1eef99f0bbc0"/>
            <linearGradient xlink:href="#28147174-dd3d-4512-ac4d-23ed9bf34d2b" gradientTransform="matrix(.89 -.07 .07 1 3.47 -6.54)" y2="49.08" x2="193.95" y1="42.53" x1="117.66" id="a55e7a80-8c59-4010-a670-b2aa8e86698c"/>
            <linearGradient xlink:href="#b5767790-d64e-4837-b720-4cbc75747fb3" y2="50.32" x2="140.31" y1="50.32" x1="110.45" id="74d209f7-31d2-4720-b043-3c1150630348"/>
            <linearGradient xlink:href="#65095307-29d5-42e7-8efb-49552f85b22d" gradientTransform="rotate(-1.56 -135.284 34.89)" y2="51.5" x2="140.33" y1="51.5" x1="116.61" id="5dceb030-8157-4f04-973b-8c31555941d5"/>
            <linearGradient xlink:href="#96d66f8c-7d52-4e57-8150-45b815537221" gradientTransform="rotate(-1.56 -135.284 34.89)" y2="10.52" x2="150.28" y1="29.62" x1="150.28" id="9a4f0057-54e5-4e6a-8fa7-c177e746de7f"/>
            <linearGradient xlink:href="#9594c09f-1919-48ed-865b-1813c87cc84f" y2="17.67" x2="165.58" y1="38.78" x1="165.58" id="7a9ae5d7-309c-4ca2-990e-17d66cc65b57"/>
            <linearGradient xlink:href="#b79587d7-e5f2-4387-9a55-1600c32a7bb8" y2="17.67" x2="165.12" y1="33.02" x1="165.12" id="29d9d5d8-756a-48f3-9bb5-fd0216cab3e2"/>
            <linearGradient xlink:href="#9594c09f-1919-48ed-865b-1813c87cc84f" y2="27.83" x2="163.36" y1="32.02" x1="163.36" id="9f0c8508-6390-4836-9037-f2dfed419c9c"/>
            <linearGradient xlink:href="#96d66f8c-7d52-4e57-8150-45b815537221" y2="31.74" x2="164.42" y1="38.45" x1="164.42" id="7e9a2b30-249c-4a3f-a459-347c35c9f619"/>
            <linearGradient gradientUnits="userSpaceOnUse" y2="61.13" x2="152.33" y1="112.5" x1="152.33" id="4e60be2e-9669-4ea7-b60b-0f57410926a5">
                <stop stop-color="#152843" offset="0"/>
                <stop stop-color="#3b4048" offset="1"/>
            </linearGradient>
            <linearGradient xlink:href="#4e60be2e-9669-4ea7-b60b-0f57410926a5" y2="63.01" x2="121.33" y1="81.23" x1="121.33" id="550c65df-27fb-47a2-9179-ab1aa1d9be87"/>
            <radialGradient gradientUnits="userSpaceOnUse" gradientTransform="matrix(0 1.55 -2.5 0 -304.14 852.11)" r="9.47" cy="-141.48" cx="-457.64" id="f9302bce-c9ea-4b3a-b978-b736f8f75032">
                <stop stop-color="#c57c00" offset="0"/>
                <stop stop-color="#b97500" offset=".02"/>
                <stop stop-color="#8e5900" offset=".1"/>
                <stop stop-color="#684100" offset=".19"/>
                <stop stop-color="#472d00" offset=".28"/>
                <stop stop-color="#2d1d00" offset=".37"/>
                <stop stop-color="#191000" offset=".48"/>
                <stop stop-color="#0b0700" offset=".6"/>
                <stop stop-color="#030200" offset=".75"/>
                <stop offset="1"/>
            </radialGradient>
        </defs>
        <g>
            <g>
                <path d="M133.86 12.46s-21.36-3-57.27 23.59c0 0-3.89 2.21-2.47 6.15.31.87 4.91 1.73 4.91 1.73s30.73-21.2 60.12-22.1c0 0 2.23-2.45 1.19-5-.62-1.6-2.34-3.19-6.48-4.37z" fill="url(#9594c09f-1919-48ed-865b-1813c87cc84f)" fill-rule="evenodd"/>
                <path fill="url(#217f2a7c-f265-4564-878a-a974fe2da7c2)" d="M139.49 133.31 124.64 16.29l-8.41 1.38 13.51 115.9 9.75-.26z"/>
                <path fill="url(#b79587d7-e5f2-4387-9a55-1600c32a7bb8)" d="m116.23 17.67-1.71.18 11.03 115.85 4.19-.13-13.51-115.9z"/>
                <path fill="url(#c42d20ae-d571-4ddf-9188-2180ffe9b262)" d="m121.45 121.56 1.99 13.59 5.79.85 12.92-1.07.21-13.29-4.81-1.59.21 1.45-9.6.71-3.97-.39-.09-.76-2.65.5z"/>
                <path fill="url(#c16955dd-77df-400f-8d14-1e803b94b02c)" d="m121.45 121.56 6.55 1.11 14.36-1.03-4.81-1.59.21 1.45-9.6.71-3.98-.8-.08-.35-2.65.5z"/>
                <path fill="#00061b" d="m128 122.67 1.23 13.33 12.92-1.07.21-13.29-14.36 1.03z"/>
                <path d="m7.78 140.68 152.37-7s7-.72 6.5-7.69L9.94 128.74s-3.21 8.51-2.16 11.94z" fill="url(#187c3a5d-c7bb-4e53-9c53-baa076f86d64)"/>
                <path d="M9.94 128.74H.5a22.16 22.16 0 0 0 .28 10.09l7 1.83s.41-7.99 2.16-11.92z" fill="url(#bd8968b1-9be2-4e75-a2f2-3814c6f035b5)"/>
                <path fill="url(#fbe11693-c85b-45ef-a89f-1445f2ed3812)" d="m.5 128.76 156.32-3.23 9.83.48-157.58 4.8-8.57-2.05z"/>
                <path d="M27.22 144.18 10.28 141S9 136 11 132.79l145.79-3.67 24.64 2.5z" fill="url(#87eff293-7ec0-4ec3-a07b-72e976ecd62b)"/>
                <path d="m34.62 147.63 152.4-4s7-5.5 6.47-12.47l-156.72 4s-3.2 9.04-2.15 12.47z" fill="url(#6d218403-461e-4358-9d94-bc72a0331377)"/>
                <path d="M36.77 135.12h-9.45a25.12 25.12 0 0 0 .3 10.66l7 1.83s.38-8.56 2.15-12.49z" fill="url(#a168f268-603f-4001-927f-d49c0d3258e7)"/>
                <path fill="url(#6aeda318-e8c9-4231-9513-948ab62b6241)" d="m27.32 135.14 156.34-4.46 9.83.47-157.6 6.04-8.57-2.05z"/>
                <path fill="url(#c18572a5-fd52-4d52-9c37-51ce58221786)" d="m141.69 126.03 22.87 5.19 28.93-.07-28.94-5.83-22.86.71z"/>
                <path fill="#00061b" d="m144.1 126.95.07 2.52 18.81 1.86 8.09-.13-26.97-4.25z"/>
                <path d="m26.93 138.34 8.07 2.93 157.91-5.89a19.85 19.85 0 0 1-4.32 6.76l-153.83 3.42-7.69-2.4a42 42 0 0 1-.14-4.82z" fill="url(#b5767790-d64e-4837-b720-4cbc75747fb3)"/>
                <path d="m.06 131.92 8.44 2.24s-.5 3.43-.5 4.37l-7.79-2.39a18.47 18.47 0 0 1-.15-4.22z" fill="url(#958bc669-b4a4-4807-8e9c-4c428f4622a4)"/>
                <path style="mix-blend-mode:screen" fill="url(#96d66f8c-7d52-4e57-8150-45b815537221)" d="M10.99 132.79 29 135.18l6.81-.29-21.59-2.1h-3.23z"/>
                <path style="mix-blend-mode:screen" fill="url(#c03ee280-458d-4343-bb31-f14ba2555bc0)" d="M112.67 132.7v1.55l-42.71 1.63v-1.96l42.71-1.22z"/>
                <path style="mix-blend-mode:screen" fill="url(#9a9b9b96-06b7-4e7e-a216-5d7c0f2347f8)" opacity=".5" d="M120.09 130.5v1.99l-40.43 1.21v-5.97l40.43 2.77z"/>
                <path style="mix-blend-mode:screen" fill="url(#e3e125da-a846-427a-bd85-f74c402f4fdd)" d="M76.99 128.1v1.67l36.97-1.55.56-1.32-37.53 1.2z"/>
                <path transform="rotate(-3.23 50.083 143.574)" style="mix-blend-mode:screen" fill="url(#f9302bce-c9ea-4b3a-b978-b736f8f75032)" d="M73.8 143.46c0 8.096-10.615 14.66-23.71 14.66s-23.71-6.564-23.71-14.66 10.615-14.66 23.71-14.66 23.71 6.564 23.71 14.66z"/>
                <path fill="url(#49ea0181-d0cb-4884-8c9a-086815c2b3ee)" d="M170.14 145.37 155.28 28.36l-8.41 1.37 13.51 115.9 9.76-.26z"/>
                <path fill="url(#ed6ab9f7-2291-451a-992f-e6a78aa3ab99)" d="m146.87 29.73-1.71.18 11.04 115.85 4.18-.13-13.51-115.9z"/>
                <path fill="url(#13807d30-149e-494b-a204-71fd164d8e49)" d="m152.1 133.63 1.99 13.58 5.79.86 12.91-1.07.21-13.3-4.81-1.58.22 1.44-9.6.71-3.98-.39-.08-.76-2.65.51z"/>
                <path fill="url(#5d2f57e3-fc49-4b4a-a5b2-999f701bfa31)" d="m152.1 133.63 6.55 1.11L173 133.7l-4.81-1.58.22 1.44-9.6.71-3.99-.79-.07-.36-2.65.51z"/>
                <path fill="#00061b" d="m158.65 134.74 1.23 13.33 12.91-1.07.21-13.3-14.35 1.04z"/>
                <path d="M179.28 8.37a58.69 58.69 0 0 1-.77 9.9L140.73 36.5l-43-5.38-.08-3z" fill="url(#cb2845dd-5109-44f2-bf25-3b9f7627f5de)" fill-rule="evenodd"/>
                <path d="m139.9 31.72 39.38-23.35S168.37-7.06 122.31 4L97.65 28.11z" fill="url(#586f8ce1-480e-4029-b324-143bbbb29381)" fill-rule="evenodd"/>
                <path d="M107.85 28.86s15.63-9.81 22.34 2.18z" fill="url(#283a6cf2-f40f-4820-bd3b-a55a33aeaf9f)" fill-rule="evenodd"/>
                <path fill="url(#b3840dce-8f26-4a2c-9b0e-6594623ce2d8)" fill-rule="evenodd" d="m107.85 28.86 1.4 3.47 21.06 3.07-.12-4.36-22.34-2.18z"/>
                <path d="m107.65 21.57 16.16-15.81s24.31-9.41 47.91.8l-26.15 17.49s-3.85-4.59-17-4.87a71.05 71.05 0 0 0-20.92 2.39z" fill="url(#38f68501-54fc-4e0d-9ed9-87dd6eda96bb)" fill-rule="evenodd"/>
                <path d="m112.62 19.81 12.49-12.16s19.2-8.85 42.53 1.64l-21.18 14.17s-5.12-5.06-16.57-5.53a56.31 56.31 0 0 0-17.27 1.88z" style="mix-blend-mode:screen" fill="url(#28147174-dd3d-4512-ac4d-23ed9bf34d2b)" fill-rule="evenodd"/>
                <path d="m107.65 21.57 2.54-.7 14.42-14s22-9.31 45.06 1.08l2.05-1.37s-19-10.8-47.91-.8z" fill="url(#a28699dc-a3e6-4e56-8301-70cffe9e61c0)" fill-rule="evenodd"/>
                <path d="m139.9 31.72.83 4.78 37.78-18.23s1.25-5.85.77-9.9z" style="mix-blend-mode:multiply" fill="#4470a5" opacity=".5" fill-rule="evenodd"/>
                <path d="M74.38 38.33s-.9 4.28 4.13 2.2a224.22 224.22 0 0 1 34.16-19.86l-9.67-.43S80.78 31.09 74.38 38.33z" style="mix-blend-mode:screen" fill="url(#0d1c0e4c-6ca2-46f8-9ff9-a9b6ce8e56aa)"/>
                <path d="m129 27-.11-.88 1.51-1.27s4.81-.26 7.57 1l.12.92-1.9 1.34S133.91 27 129 27z" fill="url(#5616a22e-7224-4c1a-9a3c-6e8e7dc3b6ec)"/>
                <path d="M128.87 26.08A24.36 24.36 0 0 1 136 27l2-1.16s-2.43-1.36-7.57-1z" fill="url(#e442ad7d-7db0-4d15-b541-e35b43ded80f)"/>
                <path d="m132.47 24.06-.08-.88 1.55-1.18s4.82-.06 7.53 1.33l.08.93-2 1.26s-2.17-1.2-7.08-1.46z" fill="url(#052a86a4-0b74-4844-a073-deddc85e2d00)"/>
                <path d="M132.39 23.18a24.41 24.41 0 0 1 7.11 1.21l2-1.1s-2.38-1.45-7.53-1.33z" fill="url(#3e1bb608-85b1-4051-bb0a-64bbe023995f)"/>
                <path d="M88.46 28a9.37 9.37 0 0 1 5 2.86s1.35 3.94-1.28 5.32L79 43.93s-8.13 1.13-6.56-4.11c.03 0 4.95-5.82 16.02-11.82z" fill="url(#fa458904-3429-4ff5-b243-a819dd4c9aaf)"/>
                <path d="M79 43.93a3.64 3.64 0 0 1 .14-3.83s3.86-3.79 14.3-9.28a5.77 5.77 0 0 1 .6 4.35S86.25 39.75 79 43.93z" fill="url(#65095307-29d5-42e7-8efb-49552f85b22d)"/>
                <path style="mix-blend-mode:multiply" fill="#4470a5" fill-rule="evenodd" d="m146.74 46.4 2.41 2.88 10.17 10.86-3.23-25.42-10.12 2.65.77 9.03z"/>
                <path style="mix-blend-mode:multiply" fill="#4470a5" fill-rule="evenodd" d="m117.91 53.45 2.71 1.93 10.66 13.26-4.2-33.85-11.09-1.48 1.92 20.14z"/>
                <path d="M179.44 21.39s-14.13 17.15-62.33 28.76l-5.29-1.23a4.59 4.59 0 0 1-.28-3.71c4.91-7.12 42.12-11.73 63.47-33 0 0 3.68-.27 5.21 2 .91 1.26 1.06 3.49-.78 7.18z" fill="url(#cc87eb7a-edcb-400f-8bad-1eef99f0bbc0)" fill-rule="evenodd"/>
                <path d="M180.22 14.14c-18.74 18.49-54.49 30.21-60.78 31.1s-7.9 0-7.9 0 1.5-2.43 7.37-4.52c15.18-5.39 41.15-13.6 56.1-28.53-.01-.03 3.68-.3 5.21 1.95z" style="mix-blend-mode:screen" fill="url(#a55e7a80-8c59-4010-a670-b2aa8e86698c)"/>
                <path d="M130.34 36.47a14.69 14.69 0 0 1 9.75 2 7.68 7.68 0 0 1 .13 4.93s-14.37 6-23.11 6.77a20.25 20.25 0 0 1-5.29-1.23s-2-2.46-.3-4.68 18.82-7.79 18.82-7.79z" fill="url(#74d209f7-31d2-4720-b043-3c1150630348)"/>
                <path d="M140.09 38.45s-11.2 5.07-20.65 6.79c0 0-2.18 2.42-2.33 4.91 0 0 8.36-.8 23.11-6.77a7.23 7.23 0 0 0-.13-4.93z" fill="url(#5dceb030-8157-4f04-973b-8c31555941d5)"/>
                <path d="m111.52 44.24 7.92 1 3.13-.69a30.38 30.38 0 0 0-11.05-.31z" fill="#edc6a9" fill-rule="evenodd"/>
                <path d="M73.78 39.52a9 9 0 0 0 5.25 1l.63-.79s-3.35-.28-5.88-.21z" fill="#edc6a9" fill-rule="evenodd"/>
                <path d="m129.55 5.24 19.29 16.62 20.83-13.93a57.59 57.59 0 0 0-40.12-2.69z" style="mix-blend-mode:screen" fill="url(#9a4f0057-54e5-4e6a-8fa7-c177e746de7f)" fill-rule="evenodd"/>
                <path d="M152.78 32.7v5.75s16.86 2.93 24.69-8.72c1.42-3 1.29-8.37-1.12-12.06-7.71 6.42-13.2 9.71-23.57 15.03z" fill="url(#7a9ae5d7-309c-4ca2-990e-17d66cc65b57)"/>
                <path d="M152.78 32.7a33.1 33.1 0 0 0 18.94-3c9.16-4.65 4.63-12.06 4.63-12.06a266.89 266.89 0 0 1-23.57 15.06z" fill="url(#29d9d5d8-756a-48f3-9bb5-fd0216cab3e2)"/>
                <path d="M166.6 30.94a10.61 10.61 0 0 1-2.91.91 7.89 7.89 0 0 1-4.37-.26 1.23 1.23 0 0 1-.8-.85c-.18-1.06 1.84-2.29 4.51-2.74s5 0 5.17 1.1c.11.62-.53 1.29-1.6 1.84z" fill="url(#9f0c8508-6390-4836-9037-f2dfed419c9c)"/>
                <path d="M166.6 30.94a10.61 10.61 0 0 1-2.91.91 7.89 7.89 0 0 1-4.37-.26 8 8 0 0 1 3.1-1.13c1.87-.32 3.58-.1 4.18.48z" style="mix-blend-mode:multiply" fill="#4470a5"/>
                <path d="M162.25 38.45v-5.79a32.47 32.47 0 0 0 4.35-.92l-1.48 6.16s-2.12.45-2.87.55z" style="mix-blend-mode:screen" fill="url(#7e9a2b30-249c-4a3f-a459-347c35c9f619)" opacity=".5"/>
                <path style="mix-blend-mode:screen" fill="url(#4e60be2e-9669-4ea7-b60b-0f57410926a5)" opacity=".5" d="m156.52 112.5-5.21-18.07-3.17-33.3 2.61 1.86 5.77 49.51z"/>
                <path style="mix-blend-mode:screen" fill="url(#550c65df-27fb-47a2-9179-ab1aa1d9be87)" opacity=".5" d="m120.29 78.48 3.35 2.75-1.81-15.48-2.81-2.74 1.27 15.47z"/>
            </g>
        </g>
    </g>
</svg>
