<?xml version="1.0" encoding="UTF-8"?>
<svg data-bbox="0 0.026 142.123 128.154" viewBox="0 0 142.12 128.18" xmlns:xlink="http://www.w3.org/1999/xlink" xmlns="http://www.w3.org/2000/svg" data-type="ugc">
    <g>
        <defs>
            <linearGradient gradientUnits="userSpaceOnUse" y2="123.6" x2="138.46" y1="123.6" x1="96.55" id="957b7179-a507-4c40-926a-2013e4777bcd">
                <stop stop-color="#79b1f2" offset="0"/>
                <stop stop-color="#97c5fc" offset="1"/>
            </linearGradient>
            <linearGradient gradientUnits="userSpaceOnUse" y2="120.67" x2="98.86" y1="127.56" x1="98.86" id="6edad0c8-675d-4fc8-953d-0fe0d5944bfc">
                <stop stop-color="#152843" offset=".01"/>
                <stop stop-color="#436691" offset=".97"/>
            </linearGradient>
            <linearGradient xlink:href="#6edad0c8-675d-4fc8-953d-0fe0d5944bfc" gradientTransform="matrix(-1 0 0 1 273.58 0)" y2="120.67" x2="136.24" y1="127.56" x1="136.24" id="134a10da-4b85-4e38-b86f-0304a7302ee3"/>
            <linearGradient xlink:href="#6edad0c8-675d-4fc8-953d-0fe0d5944bfc" gradientTransform="matrix(-.68 .74 .74 .68 125.6 -36.05)" y2="-62.79" x2="120.12" y1="-8.61" x1="120.12" id="b9a08f3f-4ede-4393-9061-8278ea9581fe"/>
            <linearGradient xlink:href="#957b7179-a507-4c40-926a-2013e4777bcd" y2="50.19" x2="107.9" y1="75.2" x1="107.9" id="607027d7-bbe7-407c-bbcf-99f225802523"/>
            <linearGradient gradientUnits="userSpaceOnUse" y2="74.22" x2="73.91" y1="125.84" x1="73.91" id="1e738029-152b-4a48-9a72-b8de921bdfc6">
                <stop stop-color="#1c4575" offset=".01"/>
                <stop stop-color="#3569a8" offset=".97"/>
            </linearGradient>
            <linearGradient xlink:href="#6edad0c8-675d-4fc8-953d-0fe0d5944bfc" y2="61" x2="106.66" y1="75.08" x1="106.66" id="e605e07b-cd3d-4b14-9d97-5d3feb5024a5"/>
            <linearGradient xlink:href="#6edad0c8-675d-4fc8-953d-0fe0d5944bfc" y2="74.32" x2="90.32" y1="125.84" x1="90.32" id="15d5b473-c9d1-4dc0-b198-4898c5973b8b"/>
            <linearGradient gradientUnits="userSpaceOnUse" y2="78.82" x2="105.83" y1="117.75" x1="105.83" id="179c6e3c-cf9c-40d5-8f51-4f14cc2cebc6">
                <stop stop-color="#205491" offset=".03"/>
                <stop stop-color="#1c4575" offset=".99"/>
            </linearGradient>
            <linearGradient gradientUnits="userSpaceOnUse" y2="78.09" x2="106.35" y1="117.02" x1="106.35" id="d7ba45cc-f723-4f26-92e4-43d2c7b0493a">
                <stop stop-color="#ae9b16" offset="0"/>
                <stop stop-color="#f5821f" offset="1"/>
            </linearGradient>
            <linearGradient gradientUnits="userSpaceOnUse" y2="78.09" x2="105.67" y1="117.02" x1="105.67" id="32cdeb35-6b3e-490e-95db-ffb6d10f9019">
                <stop stop-color="#ffd916" offset="0"/>
                <stop stop-color="#f5821f" offset="1"/>
            </linearGradient>
            <linearGradient xlink:href="#6edad0c8-675d-4fc8-953d-0fe0d5944bfc" y2="97.56" x2="120.67" y1="97.56" x1="91.54" id="b08dde29-24ac-4dda-849b-1a5c490c03b9"/>
            <linearGradient xlink:href="#6edad0c8-675d-4fc8-953d-0fe0d5944bfc" y2="81.16" x2="106.81" y1="113.95" x1="106.81" id="01ce57f1-5862-4671-a817-6f4631c68571"/>
            <linearGradient gradientUnits="userSpaceOnUse" y2="93.78" x2="88.37" y1="93.78" x1="39.31" id="bd6046e9-ff44-4593-8415-968c54703254">
                <stop stop-color="#4d3b2c" offset="0"/>
                <stop offset="1"/>
            </linearGradient>
            <linearGradient xlink:href="#6edad0c8-675d-4fc8-953d-0fe0d5944bfc" y2="93.43" x2="46.86" y1="109.29" x1="46.86" id="014d3178-7b18-453a-ae55-4dd3295ecdb4"/>
            <linearGradient gradientUnits="userSpaceOnUse" y2="93.19" x2="45.85" y1="100.33" x1="45.85" id="2dbea295-4094-417b-8b7a-b32c606937e0">
                <stop stop-color="#58697a" offset=".01"/>
                <stop stop-color="#5a505a" offset=".97"/>
            </linearGradient>
            <linearGradient xlink:href="#957b7179-a507-4c40-926a-2013e4777bcd" gradientTransform="rotate(5.13 41.358 -25.45)" y2="32.48" x2="46.34" y1="96.51" x1="46.34" id="5b7d5b1b-b52f-4055-b016-b5dd186ef889"/>
            <linearGradient xlink:href="#6edad0c8-675d-4fc8-953d-0fe0d5944bfc" y2="26.86" x2="32.16" y1="50.94" x1="32.16" id="c4e20503-b7d6-4dc3-808f-c1c81fb31483"/>
            <linearGradient gradientUnits="userSpaceOnUse" y2="8.32" x2="27.92" y1="33.17" x1="27.92" id="94c42d94-6239-444b-b0db-c3e9b753600f">
                <stop stop-color="#1c4575" offset=".01"/>
                <stop stop-color="#205491" offset=".97"/>
            </linearGradient>
            <linearGradient xlink:href="#6edad0c8-675d-4fc8-953d-0fe0d5944bfc" y2="6.14" x2="28.58" y1="33.17" x1="28.58" id="4e282be7-2b29-47d8-bdee-f2f6de892872"/>
            <linearGradient xlink:href="#32cdeb35-6b3e-490e-95db-ffb6d10f9019" y2="12.31" x2="42.63" y1="28.55" x1="42.63" id="ba4d3074-a4f8-466f-8627-9fdd7c3f4615"/>
            <linearGradient xlink:href="#32cdeb35-6b3e-490e-95db-ffb6d10f9019" y2="13.36" x2="12.9" y1="29.14" x1="12.9" id="7466ef7a-b7df-490a-95cc-943b81d1e4a3"/>
            <linearGradient xlink:href="#d7ba45cc-f723-4f26-92e4-43d2c7b0493a" y2="19.48" x2="39.8" y1="19.48" x1="48.45" id="6e5914e1-1657-4b56-953a-3b3b88876686"/>
            <linearGradient xlink:href="#6edad0c8-675d-4fc8-953d-0fe0d5944bfc" y2="38.9" x2="39.3" y1="48.56" x1="39.3" id="06de2391-d565-4ddb-9bfd-fdbb81864a26"/>
            <linearGradient xlink:href="#6edad0c8-675d-4fc8-953d-0fe0d5944bfc" y2=".19" x2="47.39" y1="46.43" x1="47.39" id="1a0a981a-5412-48a4-bc40-103bf4421819"/>
            <linearGradient gradientUnits="userSpaceOnUse" y2="45.41" x2="102.35" y1="53.96" x1="102.35" id="46271e95-0e20-43c7-8b7c-24c33f0b3b37">
                <stop stop-color="#456182" offset=".01"/>
                <stop stop-color="#5a505a" offset="1"/>
            </linearGradient>
            <linearGradient gradientUnits="userSpaceOnUse" y2="49.86" x2="117.92" y1="49.86" x1="103.77" id="40989f3b-7847-40d4-a775-33772db84a42">
                <stop stop-color="#2a2a39" offset="0"/>
                <stop stop-color="#152843" offset=".99"/>
            </linearGradient>
            <linearGradient gradientUnits="userSpaceOnUse" gradientTransform="matrix(1 -.09 .09 1 9.79 22.04)" y2="29.05" x2="118.05" y1="29.05" x1="78.58" id="50e20006-b60f-4097-8ff2-557db30ef925">
                <stop stop-color="#344c68" offset=".03"/>
                <stop stop-color="#152843" offset=".99"/>
            </linearGradient>
            <linearGradient gradientUnits="userSpaceOnUse" gradientTransform="matrix(1 -.09 .09 1 9.79 22.04)" y2="26.28" x2="116.6" y1="23.06" x1="79.11" id="ee969d4a-bca5-4c88-8255-c117d229cec5">
                <stop stop-color="#889fbc" offset=".01"/>
                <stop stop-color="#22528c" offset="1"/>
            </linearGradient>
            <linearGradient xlink:href="#957b7179-a507-4c40-926a-2013e4777bcd" y2="124.22" x2="70.62" y1="124.22" x1="28.72" id="705e1f8c-8609-408a-941f-83d95a7ab075"/>
            <linearGradient xlink:href="#6edad0c8-675d-4fc8-953d-0fe0d5944bfc" y2="121.29" x2="31.03" y1="128.18" x1="31.03" id="cf312e4c-fdc2-44f0-8770-48a51947f804"/>
            <linearGradient xlink:href="#6edad0c8-675d-4fc8-953d-0fe0d5944bfc" gradientTransform="matrix(-1 0 0 1 273.58 0)" y2="121.29" x2="204.07" y1="128.18" x1="204.07" id="67b7b9d0-814e-4dc6-959c-2ceb3aa5d14c"/>
            <linearGradient xlink:href="#6edad0c8-675d-4fc8-953d-0fe0d5944bfc" y2="118.94" x2="116.48" y1="126.63" x1="116.48" id="2b179f62-4597-45ed-8dde-756be7ffa5ca"/>
            <linearGradient gradientUnits="userSpaceOnUse" gradientTransform="matrix(.99 -.11 .11 .99 -4.05 16.87)" y2="90.23" x2="104.45" y1="105.46" x1="104.45" id="e9458639-bb6b-4906-b682-601899deafa3">
                <stop stop-color="#97c5fc" offset="0"/>
                <stop stop-color="#ece8ed" offset="1"/>
            </linearGradient>
            <linearGradient gradientUnits="userSpaceOnUse" gradientTransform="matrix(.99 -.11 .11 .99 -4.05 16.87)" y2="90.22" x2="105.03" y1="105.46" x1="105.03" id="b27a6190-8570-4764-87a9-a1f719068cee">
                <stop stop-color="#729cce" offset="0"/>
                <stop stop-color="#79b1f2" offset="1"/>
            </linearGradient>
            <linearGradient gradientUnits="userSpaceOnUse" gradientTransform="matrix(1.27 -.11 .08 1 -71.27 25.1)" y2="103.12" x2="136.61" y1="100.47" x1="133.67" id="434674be-bf42-4446-a10b-a055100212c6">
                <stop stop-color="#205491" offset=".03"/>
                <stop stop-color="#4a5f77" offset=".99"/>
            </linearGradient>
            <linearGradient gradientUnits="userSpaceOnUse" y2="8.08" x2="39.96" y1="8.08" x1="6.68" id="3031a92a-ed26-46d9-8cfd-ebc887af1dc2">
                <stop stop-color="#406189" offset=".01"/>
                <stop stop-color="#22528c" offset="1"/>
            </linearGradient>
            <linearGradient gradientUnits="userSpaceOnUse" y2="81.46" x2="67.86" y1="91.03" x1="67.86" id="c92a4351-9f11-4aed-9fb1-6d6133ed39b3">
                <stop stop-color="#152843" offset="0"/>
                <stop stop-color="#3b4048" offset="1"/>
            </linearGradient>
            <linearGradient gradientUnits="userSpaceOnUse" y2="39.49" x2="106.69" y1="47.7" x1="106.69" id="98539606-85cd-4202-992b-c4eb97775a5c">
                <stop offset="0"/>
                <stop stop-color="#4d3b2c" offset="1"/>
            </linearGradient>
            <linearGradient gradientUnits="userSpaceOnUse" y2="58.79" x2="41.28" y1="96.75" x1="41.28" id="1aa3936b-e5ad-4344-a21f-7d796c847c3e">
                <stop stop-color="#729cce" offset="0"/>
                <stop stop-color="#ffffff" offset="1"/>
            </linearGradient>
            <linearGradient xlink:href="#1aa3936b-e5ad-4344-a21f-7d796c847c3e" y2="54.87" x2="110.24" y1="61.45" x1="110.24" id="6fe3b47f-d43c-44a9-b5da-d3bdabc90e38"/>
            <linearGradient gradientUnits="userSpaceOnUse" y2="62.7" x2="108.37" y1="74.63" x1="108.37" id="ac713ba6-4545-4adf-a5fc-a9a146854b12">
                <stop stop-color="#285993" offset="0"/>
                <stop stop-color="#ffffff" offset="1"/>
            </linearGradient>
            <linearGradient xlink:href="#ac713ba6-4545-4adf-a5fc-a9a146854b12" y2="94.74" x2="51.36" y1="107.31" x1="51.36" id="0006d188-8e09-49f4-8791-23b5c3599201"/>
            <linearGradient xlink:href="#c92a4351-9f11-4aed-9fb1-6d6133ed39b3" y2="8.28" x2="29.65" y1="8.28" x1="11.61" id="2563a6db-7266-4c93-a749-65f7855c9048"/>
            <linearGradient xlink:href="#bd6046e9-ff44-4593-8415-968c54703254" y2="21.3" x2="38.39" y1="21.3" x1="11.61" id="546a4bd1-d97c-4b15-8f72-311e348d47b0"/>
            <linearGradient xlink:href="#ee969d4a-bca5-4c88-8255-c117d229cec5" y2="6.65" x2="5.84" y1="6.65" x1=".02" id="b0871547-2281-4237-ac12-88b1f9384102"/>
            <linearGradient xlink:href="#ee969d4a-bca5-4c88-8255-c117d229cec5" y2="1.88" x2="46.42" y1="1.88" x1="39.87" id="fbcc5815-9130-4ef7-ad72-4e2d80f50d6c"/>
            <linearGradient xlink:href="#98539606-85cd-4202-992b-c4eb97775a5c" y2="7.71" x2="7.32" y1="30.43" x1="7.32" id="0d2acdd6-8d3f-47a7-8de4-ca781cbb27be"/>
            <linearGradient xlink:href="#98539606-85cd-4202-992b-c4eb97775a5c" y2="3.27" x2="46.69" y1="28.55" x1="46.69" id="fa49642e-9bbc-4c89-b593-f0346408c166"/>
            <linearGradient gradientUnits="userSpaceOnUse" y2="123.46" x2="62.89" y1="123.46" x1="35.02" id="5c689104-3f4e-4420-8f41-80104dc96c81">
                <stop stop-color="#bfb8b3" offset="0"/>
                <stop offset="1"/>
            </linearGradient>
            <linearGradient gradientUnits="userSpaceOnUse" y2="60.26" x2="35.3" y1="84.99" x1="35.3" id="510e5895-027e-4113-a146-a19f5aaffa1c">
                <stop offset="0"/>
                <stop stop-color="#bfb8b3" offset="1"/>
            </linearGradient>
            <radialGradient gradientUnits="userSpaceOnUse" gradientTransform="matrix(1.54 -.16 .22 2.06 -22.29 9.65)" r="8.33" cy="48.36" cx="66.32" id="f6e78b17-152c-4941-bd1a-6b9f43bfda13">
                <stop stop-color="#c57c00" offset="0"/>
                <stop stop-color="#b97500" offset=".02"/>
                <stop stop-color="#8e5900" offset=".1"/>
                <stop stop-color="#684100" offset=".19"/>
                <stop stop-color="#472d00" offset=".28"/>
                <stop stop-color="#2d1d00" offset=".37"/>
                <stop stop-color="#191000" offset=".48"/>
                <stop stop-color="#0b0700" offset=".6"/>
                <stop stop-color="#030200" offset=".75"/>
                <stop offset="1"/>
            </radialGradient>
            <radialGradient xlink:href="#f6e78b17-152c-4941-bd1a-6b9f43bfda13" gradientTransform="matrix(1.43 .6 -.81 1.91 38.12 -116.1)" r="4.02" cy="84.28" cx="104.82" id="05377c8e-8f67-4469-99a3-b5704bcd9e27"/>
        </defs>
        <g>
            <g>
                <path d="M96.55 126a9.78 9.78 0 0 1 2.81-4.82h37.17a7.41 7.41 0 0 1 1.92 4.82z" fill="url(#957b7179-a507-4c40-926a-2013e4777bcd)"/>
                <path d="M103.4 120.67h-5.71a15 15 0 0 0-3.36 6.89h8.2l.39-1.55h-1.42s-.08-3.12 1.42-4.84h.48z" fill="url(#6edad0c8-675d-4fc8-953d-0fe0d5944bfc)"/>
                <path d="M133.05 120.67h5.71a15 15 0 0 1 3.36 6.89h-8.82a10.13 10.13 0 0 1-.25-6.89z" fill="url(#134a10da-4b85-4e38-b86f-0304a7302ee3)"/>
                <path d="M138.76 120.67s-1.22 1.76-.3 6.89h3.66s.22-3.21-3.36-6.89z" fill="#00061b"/>
                <path d="M34.69 39.9a7.45 7.45 0 0 1 3.43 2.33c1.44 1.77-.1 4.2-.1 4.2S28.6 45.86 22.29 43 0 8.5 0 8.5a5.26 5.26 0 0 1 3-3.28 2.33 2.33 0 0 1 3.1 1s13.58 29.87 17.26 32.52 11.33 1.16 11.33 1.16z" fill="url(#b9a08f3f-4ede-4393-9061-8278ea9581fe)"/>
                <path fill="url(#607027d7-bbe7-407c-bbcf-99f225802523)" d="m102.55 75.2 3.8-25.01h6.91l-4.97 24.39-5.74.62z"/>
                <path d="M56.79 125.84H46.25l-6.94-15.25s22.57-39.93 69.2-36.11z" fill="url(#1e738029-152b-4a48-9a72-b8de921bdfc6)"/>
                <path d="M101.24 75.08 103.55 61l8.52.55-1.64 13.23a62.85 62.85 0 0 0-9.19.3z" fill="url(#e605e07b-cd3d-4b14-9d97-5d3feb5024a5)"/>
                <path d="M85 121.89s13.49-2.87 19.15 4h9.94s-6.55-10.13-29.09-4z" fill="#00061b"/>
                <path d="m56.79 125.84-3.51-15.54s14-36.23 52.61-36c30.36.2 19.62 51.52 19.62 51.52h-11.42s-5.72-5.08-17-5.08-31.67 5.08-31.67 5.08z" fill="url(#15d5b473-c9d1-4dc0-b198-4898c5973b8b)"/>
                <path fill="url(#179c6e3c-cf9c-40d5-8f51-4f14cc2cebc6)" d="M123.13 98.29c0 10.747-7.745 19.46-17.3 19.46s-17.3-8.713-17.3-19.46c0-10.747 7.745-19.46 17.3-19.46s17.3 8.713 17.3 19.46z"/>
                <path fill="url(#d7ba45cc-f723-4f26-92e4-43d2c7b0493a)" d="M123.65 97.56c0 10.747-7.745 19.46-17.3 19.46s-17.3-8.713-17.3-19.46c0-10.747 7.745-19.46 17.3-19.46s17.3 8.713 17.3 19.46z"/>
                <path fill="url(#32cdeb35-6b3e-490e-95db-ffb6d10f9019)" d="M122.97 97.56c0 10.747-7.745 19.46-17.3 19.46s-17.3-8.713-17.3-19.46c0-10.747 7.745-19.46 17.3-19.46s17.3 8.713 17.3 19.46z"/>
                <path fill="url(#b08dde29-24ac-4dda-849b-1a5c490c03b9)" d="M120.68 97.56c0 9.052-6.523 16.39-14.57 16.39s-14.57-7.338-14.57-16.39 6.523-16.39 14.57-16.39 14.57 7.338 14.57 16.39z"/>
                <path fill="url(#01ce57f1-5862-4671-a817-6f4631c68571)" d="M121.38 97.56c0 9.052-6.523 16.39-14.57 16.39s-14.57-7.338-14.57-16.39 6.523-16.39 14.57-16.39 14.57 7.338 14.57 16.39z"/>
                <path d="M111.2 96.76a2.7 2.7 0 1 1-2.69-3 2.87 2.87 0 0 1 2.69 3z" fill="#00061b"/>
                <path d="m39.31 110.59 14-.29S63.22 85.62 88.37 77l-11 1.77s-20.54 6.55-38.06 31.82z" style="mix-blend-mode:screen" fill="url(#bd6046e9-ff44-4593-8415-968c54703254)"/>
                <path d="M42.84 108.56 39.31 100s1.76-7.52 13.09-6.5l2 11.49s-3.46 6.42-11.56 3.57z" fill="url(#014d3178-7b18-453a-ae55-4dd3295ecdb4)"/>
                <path d="M39.31 100s3.24 1.08 7.81-.88 5.28-5.62 5.28-5.62-3.26-1.19-8.16.91c-4.69 2.04-4.93 5.59-4.93 5.59z" fill="url(#2dbea295-4094-417b-8b7a-b32c606937e0)"/>
                <path d="M42.23 96.58s-12.38-25.36-13.3-64.53c0 0 3.8-.68 6 .54 0 0-.49 37.71 12.88 61.66.29 1.99-3.71 4.09-5.58 2.33z" fill="url(#5b7d5b1b-b52f-4055-b016-b5dd186ef889)"/>
                <path d="M29.09 50.2s2.19 1.53 7.41.19a164.9 164.9 0 0 1-.72-23.07l-8-.46s.79 17.72 1.31 23.34z" fill="url(#c4e20503-b7d6-4dc3-808f-c1c81fb31483)"/>
                <path fill="url(#94c42d94-6239-444b-b0db-c3e9b753600f)" d="m6.68 10.02 12.54 23.13 29.95.02L38.02 8.32l-31.34 1.7z"/>
                <path fill="url(#4e282be7-2b29-47d8-bdee-f2f6de892872)" d="m49.17 33.17 1.32-1.31L39.96 6.14 9.59 7.75l-2.91 2.27 31.71-.89 10.78 24.04z"/>
                <path d="M39.8 12.31s-6.6 11.6 7.2 16.24z" fill="url(#ba4d3074-a4f8-466f-8627-9fdd7c3f4615)"/>
                <path d="M8.51 13.36s10.86 5.42 8.42 15.78z" fill="url(#7466ef7a-b7df-490a-95cc-943b81d1e4a3)"/>
                <path fill="url(#6e5914e1-1657-4b56-953a-3b3b88876686)" d="m39.8 12.31 1.9-1.91 6.75 16.46-1.42 1.69-7.23-16.24z"/>
                <path d="M35.74 38.9h5.65s2.38 4.8 1.1 8.29l-6.75 1.37z" fill="url(#06de2391-d565-4ddb-9bfd-fdbb81864a26)"/>
                <path d="M39.3 40.33a3.49 3.49 0 0 0-1.57 3.4c.32 2.26 1.58 2.7 1.58 2.7s12.68-1.33 17-5.36S46.42.55 46.42.55s-2.89-.93-5 .23A2.32 2.32 0 0 0 40 3.72s13.9 29.36 13 33.8c-.57 2.93-13.7 2.81-13.7 2.81z" fill="url(#1a0a981a-5412-48a4-bc40-103bf4421819)"/>
                <path fill="url(#46271e95-0e20-43c7-8b7c-24c33f0b3b37)" d="m100.11 45.41.72 8.55h2.94l.82-8.55h-4.48z"/>
                <path fill="url(#40989f3b-7847-40d4-a775-33772db84a42)" d="m104.59 45.41 13.33 1.74-1.44 7.16-12.71-.35.82-8.55z"/>
                <path d="M90.58 41.65A8.2 8.2 0 0 0 92.22 48l37-.87s2-7.31-1.06-12.26a136.79 136.79 0 0 1-37.58 6.78z" fill="url(#50e20006-b60f-4097-8ff2-557db30ef925)"/>
                <path d="M120.39 35.13s-16.49 1.1-29.81 6.52c0 0 20-.22 37.62-6.81z" fill="url(#ee969d4a-bca5-4c88-8255-c117d229cec5)"/>
                <path d="M28.72 126.63a9.78 9.78 0 0 1 2.81-4.82H68.7a7.37 7.37 0 0 1 1.91 4.82z" fill="url(#705e1f8c-8609-408a-941f-83d95a7ab075)"/>
                <path d="M35.56 121.29h-5.7a14.85 14.85 0 0 0-3.36 6.89h8.2l.39-1.55h-1.42s-.09-3.12 1.42-4.84h.47z" fill="url(#cf312e4c-fdc2-44f0-8770-48a51947f804)"/>
                <path d="M65.22 121.29h5.71a15 15 0 0 1 3.36 6.89h-8.82a10.13 10.13 0 0 1-.25-6.89z" fill="url(#67b7b9d0-814e-4dc6-959c-2ceb3aa5d14c)"/>
                <path d="M70.93 121.29s-1.22 1.76-.31 6.89h3.67s.22-3.18-3.36-6.89z" fill="#00061b"/>
                <path d="M128.32 126a4 4 0 0 1-.47-4.82l1 .1-2.22-2.35-1.07 6.9h-21.41l1.13.79H128z" fill="url(#2b179f62-4597-45ed-8dde-756be7ffa5ca)"/>
                <path d="M106.81 96.58s1.74-2.38 5.65-.63l-.52 14.24-2.77.48z" fill="url(#e9458639-bb6b-4906-b682-601899deafa3)"/>
                <path d="m107.92 95.87 2.41 14.67 1.61-.35.52-14.19a4.19 4.19 0 0 0-4.54-.13z" fill="url(#b27a6190-8570-4764-87a9-a1f719068cee)"/>
                <path d="M107 110.3a6.24 6.24 0 0 0 .35 4.21l1.5.29a16.86 16.86 0 0 1 .22-4.79z" fill="url(#434674be-bf42-4446-a10b-a055100212c6)"/>
                <path d="M109.1 110a22.49 22.49 0 0 1 7.52-.51s1.24 2.45.36 4.39c0 0-2.38 1.08-8.1.91 0 .01-.88-2.94.22-4.79z" fill="#00061b"/>
                <path fill="url(#3031a92a-ed26-46d9-8cfd-ebc887af1dc2)" d="m38.39 9.13 1.57-2.99L9.59 7.75l-2.91 2.27 31.71-.89z"/>
                <path d="M57.06 91h9.16a57 57 0 0 1 12.43-9.57H71.2s-5.91 2.4-14.14 9.57z" style="mix-blend-mode:screen" fill="url(#c92a4351-9f11-4aed-9fb1-6d6133ed39b3)" opacity=".5"/>
                <path d="M57.06 103.14s7.74-17.49 29.25-25.41c0 0-15.5 5.69-29.25 25.41z" fill="#3a8cdd"/>
                <path d="M30.69 54a7.89 7.89 0 0 1 5.89 2l-.65-5.44-5.67.14z" style="mix-blend-mode:multiply" fill="#336699" opacity=".5"/>
                <path d="M105.65 54.78s4.95-.09 6.1 2.82l.69-3.4-6.79-.2z" style="mix-blend-mode:multiply" fill="#336699" opacity=".5"/>
                <path d="M28.19 35.06a11.51 11.51 0 0 1 7.51 2.73l-.06-4.63H28.1z" style="mix-blend-mode:multiply" fill="#09213a" opacity=".5"/>
                <path style="mix-blend-mode:screen" fill="url(#98539606-85cd-4202-992b-c4eb97775a5c)" opacity=".5" d="m103.77 47.7-1.22-7.08 8.29-1.13-1.45 8.21h-5.62z"/>
                <path d="M96.91 41.31s3.72-.13 11.64-1 11.37-2.8 11.37-2.8a188.13 188.13 0 0 1-23.01 3.8z" fill="#3a8cdd"/>
                <path style="mix-blend-mode:multiply" fill="#336699" opacity=".5" d="m100.33 48.62 3.96-.06 12.87 2.38.76-3.79-17.59.63v.84z"/>
                <path d="M100 116.62a12.87 12.87 0 0 0 5.83 1.6 9.22 9.22 0 0 0 5.37-1.43 12.38 12.38 0 0 1-5.37 1 17.46 17.46 0 0 1-5.83-1.17z" fill="#3a8cdd"/>
                <path d="M46 96.75a102.91 102.91 0 0 1-11-38h1.5s3.36 24.23 11 36.07a2.46 2.46 0 0 1-1.5 1.93z" style="mix-blend-mode:multiply" fill="url(#1aa3936b-e5ad-4344-a21f-7d796c847c3e)" opacity=".5"/>
                <path style="mix-blend-mode:multiply" fill="url(#6fe3b47f-d43c-44a9-b5da-d3bdabc90e38)" opacity=".5" d="m108.41 61.31 1.78-6.44h1.88l-1.48 6.58-2.18-.14z"/>
                <path style="mix-blend-mode:multiply" fill="url(#ac713ba6-4545-4adf-a5fc-a9a146854b12)" d="m105.89 74.32 2.62-11.62h2.33l-1.21 11.94-3.74-.32z"/>
                <path d="m52.4 107.31-3.64-9A7.75 7.75 0 0 0 52 94.74l2 10.93z" style="mix-blend-mode:multiply" fill="url(#0006d188-8e09-49f4-8791-23b5c3599201)"/>
                <path style="mix-blend-mode:screen" fill="url(#2563a6db-7266-4c93-a749-65f7855c9048)" opacity=".5" d="m11.61 9.88 1.87-2.34 16.17-.86-1.83 2.75-16.21.45z"/>
                <path style="mix-blend-mode:screen" fill="url(#546a4bd1-d97c-4b15-8f72-311e348d47b0)" opacity=".5" d="M11.61 9.88 31.9 33.17l6.49-.01L27.82 9.43l-16.21.45z"/>
                <path d="M10.39 9.88s6.05-.86 9.8-.24c0 0-6.43.36-9.8.24z" fill="#3a8cdd"/>
                <path d="M.1 8.42A7.74 7.74 0 0 0 3.56 8a3.22 3.22 0 0 0 2.28-2.21A3.13 3.13 0 0 0 2 5.24 2.83 2.83 0 0 0 .1 8.42z" fill="url(#b0871547-2281-4237-ac12-88b1f9384102)"/>
                <path d="M40 3.72a7.75 7.75 0 0 0 3.46-.45A5.71 5.71 0 0 0 46.42.55 6.24 6.24 0 0 0 41.53.5 2.57 2.57 0 0 0 40 3.72z" fill="url(#fbcc5815-9130-4ef7-ad72-4e2d80f50d6c)"/>
                <path d="m.1 8.42 13.22 22 1.22-.73L4.16 7.71a11.75 11.75 0 0 1-4.06.71z" style="mix-blend-mode:screen" fill="url(#0d2acdd6-8d3f-47a7-8de4-ca781cbb27be)" opacity=".68"/>
                <path d="m40.79 3.76 11 24.79h.79l-9.1-25.28a8 8 0 0 1-2.69.49z" style="mix-blend-mode:screen" fill="url(#fa49642e-9bbc-4c89-b593-f0346408c166)" opacity=".68"/>
                <path d="M35 122.88s1.37 1.51 11.84 1.85 16-2.48 16-2.48l-27.5-.09z" style="mix-blend-mode:screen" fill="url(#5c689104-3f4e-4420-8f41-80104dc96c81)"/>
                <path d="M32.16 60.26S34.5 75.54 38.39 85c0 0 .91-14-6.23-24.74z" style="mix-blend-mode:screen" fill="url(#510e5895-027e-4113-a146-a19f5aaffa1c)"/>
                <path d="M103.15 97.06c1 9.48-3.94 17.76-11 18.5s-13.63-6.32-14.63-15.79 3.94-17.76 11-18.5 13.63 6.32 14.63 15.79z" style="mix-blend-mode:screen" fill="url(#f6e78b17-152c-4941-bd1a-6b9f43bfda13)" fill-rule="evenodd"/>
                <path d="M125.24 110.25c-1.79 4.23-5.81 6.57-9 5.23s-4.27-5.86-2.48-10.09 5.81-6.57 9-5.23 4.24 5.84 2.48 10.09z" style="mix-blend-mode:screen" fill="url(#05377c8e-8f67-4469-99a3-b5704bcd9e27)" fill-rule="evenodd"/>
            </g>
        </g>
    </g>
</svg>
