<?xml version="1.0" encoding="UTF-8"?>
<svg data-bbox="0 0 672.48 269.15" viewBox="0 0 672.48 269.15" xmlns:xlink="http://www.w3.org/1999/xlink" xmlns="http://www.w3.org/2000/svg" data-type="ugc">
    <g>
        <defs>
            <linearGradient gradientUnits="userSpaceOnUse" y2="22.47" x2="332.64" y1="215.89" x1="332.64" id="04daad2e-2cad-47be-8aac-08fb79607a05">
                <stop stop-color="#ceb3cb" offset="0"/>
                <stop stop-color="#dee2e1" offset="1"/>
            </linearGradient>
            <linearGradient gradientUnits="userSpaceOnUse" y2="25.72" x2="321.2" y1="269.15" x1="321.2" id="f13ef8de-31c0-496a-876c-3566ba35043a">
                <stop stop-color="#d6d1ef" offset="0"/>
                <stop stop-color="#ffffff" offset="1"/>
            </linearGradient>
            <linearGradient xlink:href="#04daad2e-2cad-47be-8aac-08fb79607a05" y2="127.02" x2="640.8" y1="127.02" x1="22.18" id="9ae016c9-4f4c-4d2f-af73-397f7315dd47"/>
            <linearGradient xlink:href="#04daad2e-2cad-47be-8aac-08fb79607a05" y2="28.06" x2="131.22" y1="213.27" x1="131.22" id="f6efa724-8892-4880-9f5b-5d3c6e6e809a"/>
            <linearGradient xlink:href="#04daad2e-2cad-47be-8aac-08fb79607a05" y2="28.06" x2="257.46" y1="213.27" x1="257.46" id="a1b84620-a044-401f-9a00-098595e9471d"/>
            <linearGradient xlink:href="#04daad2e-2cad-47be-8aac-08fb79607a05" y2="26.77" x2="405.06" y1="213.27" x1="405.06" id="b55018ed-f67c-4732-8136-df4fe2503f0e"/>
            <linearGradient xlink:href="#04daad2e-2cad-47be-8aac-08fb79607a05" y2="25.66" x2="528.18" y1="213.27" x1="528.18" id="6028ddff-305c-40ff-9dea-3dce642dcfa7"/>
            <linearGradient gradientUnits="userSpaceOnUse" y2="11.76" x2="668.81" y1="11.76" x1="3.39" id="8de06b39-6469-4426-95c2-7c21d69747c4">
                <stop stop-color="#e09497" offset="0"/>
                <stop stop-color="#ff958d" offset="1"/>
            </linearGradient>
            <linearGradient gradientUnits="userSpaceOnUse" y2="13.42" x2="47.03" y1="228.96" x1="56.89" id="c09f0052-8dd5-4a10-9e5c-8406db32b0bb">
                <stop stop-color="#ffc5b3" offset="0"/>
                <stop stop-color="#ffdec2" offset="1"/>
            </linearGradient>
            <linearGradient gradientUnits="userSpaceOnUse" y2="120.44" x2="21.06" y1="120.44" x1="12.57" id="df174da8-5f2a-4d46-94b2-ed4de85e50e7">
                <stop stop-color="#ffd1d1" offset="0"/>
                <stop stop-color="#d490aa" offset="1"/>
            </linearGradient>
            <linearGradient gradientUnits="userSpaceOnUse" y2="122.13" x2="31.7" y1="122.13" x1="21.06" id="73165d0b-4f1f-4219-918c-0d26c0af9f17">
                <stop stop-color="#d490aa" offset="0"/>
                <stop stop-color="#ffd1d1" offset="1"/>
            </linearGradient>
            <linearGradient xlink:href="#73165d0b-4f1f-4219-918c-0d26c0af9f17" y2="122.08" x2="42.51" y1="122.08" x1="31.7" id="76319139-bdae-4d49-ada4-c34ba2cd52df"/>
            <linearGradient xlink:href="#73165d0b-4f1f-4219-918c-0d26c0af9f17" y2="121.2" x2="51.47" y1="121.2" x1="43.71" id="dc3fc954-3493-46a9-bd62-51767a7ad82f"/>
            <linearGradient xlink:href="#73165d0b-4f1f-4219-918c-0d26c0af9f17" y2="122.03" x2="61.54" y1="122.03" x1="53.42" id="22ef36ba-733c-44cd-a41e-ca43819e409e"/>
            <linearGradient xlink:href="#73165d0b-4f1f-4219-918c-0d26c0af9f17" y2="121.38" x2="68.37" y1="121.38" x1="61.54" id="d62fa595-213e-458c-82c9-5b3f71cd6e67"/>
            <linearGradient xlink:href="#73165d0b-4f1f-4219-918c-0d26c0af9f17" y2="121.35" x2="76.69" y1="121.35" x1="70.06" id="0f452d12-15af-4c12-bc42-816bf7792326"/>
            <linearGradient xlink:href="#73165d0b-4f1f-4219-918c-0d26c0af9f17" y2="121.25" x2="83.89" y1="121.25" x1="76.7" id="52724aa2-3523-43e6-bbb5-fd604c3836bb"/>
            <linearGradient xlink:href="#c09f0052-8dd5-4a10-9e5c-8406db32b0bb" gradientTransform="rotate(1.35 624.77 105.968)" y2="8.57" x2="617.46" y1="224.14" x1="627.32" id="af714df0-006e-4247-9aea-727cb34f088c"/>
            <linearGradient xlink:href="#df174da8-5f2a-4d46-94b2-ed4de85e50e7" gradientTransform="rotate(1.35 624.77 105.968)" y2="115.37" x2="591.96" y1="115.37" x1="582.46" id="782a7b86-10cc-4dd5-b742-348c6ef8a0a5"/>
            <linearGradient xlink:href="#73165d0b-4f1f-4219-918c-0d26c0af9f17" gradientTransform="rotate(1.35 624.77 105.968)" y2="117.09" x2="602.61" y1="117.09" x1="590.96" id="9d348e24-a0fe-4cf4-9731-ca90a5788277"/>
            <linearGradient xlink:href="#73165d0b-4f1f-4219-918c-0d26c0af9f17" gradientTransform="rotate(1.35 624.77 105.968)" y2="117.06" x2="613.42" y1="117.06" x1="602.61" id="a43bcd67-4fd1-4b86-91b2-458a7ec40535"/>
            <linearGradient xlink:href="#73165d0b-4f1f-4219-918c-0d26c0af9f17" gradientTransform="rotate(1.35 624.77 105.968)" y2="115.97" x2="622.38" y1="115.97" x1="614.62" id="9a1dd0b2-5920-4ab4-8312-9060a34c3f20"/>
            <linearGradient xlink:href="#73165d0b-4f1f-4219-918c-0d26c0af9f17" gradientTransform="rotate(1.35 624.77 105.968)" y2="116.87" x2="632.45" y1="116.87" x1="624.33" id="87ab09fe-f88c-45a8-9918-1d0a7b6b8d8d"/>
            <linearGradient xlink:href="#73165d0b-4f1f-4219-918c-0d26c0af9f17" gradientTransform="rotate(1.35 624.77 105.968)" y2="116.1" x2="639.28" y1="116.1" x1="632.45" id="5479eece-207e-46a7-89f5-ff6c832e2245"/>
            <linearGradient xlink:href="#73165d0b-4f1f-4219-918c-0d26c0af9f17" gradientTransform="rotate(1.35 624.77 105.968)" y2="116" x2="647.3" y1="116" x1="640.97" id="7d6fc4dc-0b9b-483c-8333-28621c797cfb"/>
            <linearGradient xlink:href="#73165d0b-4f1f-4219-918c-0d26c0af9f17" gradientTransform="rotate(1.35 624.77 105.968)" y2="116.06" x2="654.8" y1="116.06" x1="647.6" id="5edf7456-ec08-430e-8445-7ce71e8dd6cb"/>
            <radialGradient gradientUnits="userSpaceOnUse" r="237.81" cy="6.9" cx="336.24" id="825d6e42-d198-4163-9687-eb963b11bac7">
                <stop stop-color="#ffe2e1" offset="0"/>
                <stop stop-color="#fec7cb" offset="1"/>
            </radialGradient>
            <clipPath id="5bf50d93-44b5-47fa-b16e-9b565ac24e29">
                <path fill="#ffffff" d="m20.06 28.57 5.66 184.12 610.6-1.65 8.48-185.38-624.74 2.91z"/>
            </clipPath>
        </defs>
        <g>
            <g>
                <path fill="url(#04daad2e-2cad-47be-8aac-08fb79607a05)" d="m16.8 25.41 5.01 190.48 622.11-1.67 4.55-191.75L16.8 25.41z"/>
                <path fill="#ffffff" d="m20.06 28.57 5.66 184.12 610.6-1.65 8.48-185.38-624.74 2.91z"/>
                <g clip-path="url(#5bf50d93-44b5-47fa-b16e-9b565ac24e29)">
                    <path fill="url(#f13ef8de-31c0-496a-876c-3566ba35043a)" fill-rule="evenodd" d="m535.61 266.87-.07-3.17 1.61-121.3.32-.93-.49-.65-13.85-52.7-.37-1.96-.14.02-.97-3.68-.06-.78-.14.01-.91-3.46.01-.51h-.14l-.31-1.16.05-.3-.13-.02-.43-1.64-.3.61-.13-.04-.31.93-12.43 25.14-.22.17.14.19-1.15 5.36-.12.08.08.12-2.92 13.6-.12.07.07.13-2.48 11.56-.13.05.08.18-5.94 27.64-.14.04.08.24-4.3 19.98-13.67-2.45-.37-12.49h.02l.07-.29-.1-.03-.42-13.85.04-.15-.05-.01-.43-14.29.09-.26-.1-.04-.47-15.61.05-.14-.05-.02-.92-30.29.06-.14-.06-.02-.94-31.02.07-.14-.07-.03-.87-28.83-.11-4.87-18.63 6.07-35.91 34.61-1.12 24.66-21.4-8.9-6 1.45-.02 1.96-2.43.67-.03-2.45-2.7-1.17-3.15.99h-.17v.06l-6.03 1.91h-.17v.05l-4.44 1.4h-.17v.06l-5.46 1.73h-.18v.05l-3.5 1.11h-.17v.05l-2.76.88v1.49l-2.65-.33-5.14 1.24.92 173.56h-1.52l-5.18-111.49.29-.95-.66-.19-21.3-6.27-.23-5.88.04-.16-.05-.02-.43-10.95.04-.16-.05-.02-.39-10.09.04-.16-.05-.02-.45-11.33.06-.16-.06-.02-.4-10.11.07-.16-.08-.04-.25-6.21.08-.15-.08-.04-.44-11.16.24-.28-.26-.22-.27-.23-.03.04-51.45-32.17-.37-.6-.59.37.28.45-.48 18.91-.06.02.05.16-.43 16.88-.23.05.03.17-4.43 182.19h-6.84l3.54-212.12-3.54-.88-8.36 3.54-.17-.01v.08l-8.47 3.59-.17-.01-.01.08-6.12 2.59-.17-.01v.09l-6.13 2.59-.17-.01-.01.08-6.12 2.59h-.17v.08l-17.68 7.48.21-8.75-4.48-3.05-9.24-.46-23.35-6.34-13.32 8.38-1.66 34.89-2.61 45.37-10.41-1.84-3.5 1.01-.17-.01v.06l-2.54.74-.18-.01v.06l-2.86.83-.17-.01-.01.06-3.49 1.01-.22 3.2.02-.31-.52.18-8.55-2.26-4.03 1.29-.17-.01v.07l-2.28.73-.17-.01-.01.06-2.38.77.01-.29-.34-.02-.03.42-1.83.59-7.16 113.9H46.24v2.28h549.93v-2.28h-60.56z"/>
                </g>
                <path fill="url(#9ae016c9-4f4c-4d2f-af73-397f7315dd47)" d="m22.18 126.97 617.9 2.04.72-3.98H22.18v1.94z"/>
                <path fill="url(#f6efa724-8892-4880-9f5b-5d3c6e6e809a)" d="m128.76 28.06 3.58 185.21h1.34l-.69-185.21h-4.23z"/>
                <path fill="url(#a1b84620-a044-401f-9a00-098595e9471d)" d="m255 28.06 3.59 185.21h1.34l-.69-185.21H255z"/>
                <path fill="url(#b55018ed-f67c-4732-8136-df4fe2503f0e)" d="m403.32 26.77 2.14 186.5h1.34V26.77h-3.48z"/>
                <path fill="url(#6028ddff-305c-40ff-9dea-3dce642dcfa7)" d="m527.08 25.66-2.03 187.61h1.34l4.92-187.61h-4.23z"/>
                <path style="mix-blend-mode:multiply" opacity=".5" fill="#d16a75" d="m8.06 20.22 12 5.64 628.41-3.83 13.24-6.76L8.06 20.22z"/>
                <path fill="url(#825d6e42-d198-4163-9687-eb963b11bac7)" fill-rule="evenodd" d="M0 3.21 3.39 13.8l665.42-5.56L672.48 0 0 3.21z"/>
                <path fill="url(#8de06b39-6469-4426-95c2-7c21d69747c4)" fill-rule="evenodd" d="m3.39 13.8 3.16 1.47 658-4.41 4.26-2.62L3.39 13.8z"/>
                <path fill="url(#c09f0052-8dd5-4a10-9e5c-8406db32b0bb)" fill-rule="evenodd" d="m6.55 15.27 7.52 211.41 6.98-1.46 1.13 3.9 9.52-3.9v3.9l10.82-3.9 1.19 2.2 8.2-3.4 1.51 5.1 8.12-5.1v3.86l6.83-3.86 1.69 3.86 6.33-3.86v3.86l7.5-3.86v3.4l5.92-2.84V14.71l-83.26.56z"/>
                <path style="mix-blend-mode:multiply" fill="url(#df174da8-5f2a-4d46-94b2-ed4de85e50e7)" opacity=".5" d="M21.05 225.22 16.58 15.2l-4.01.07 6.24 210.42 2.24-.47z"/>
                <path style="mix-blend-mode:multiply" fill="url(#73165d0b-4f1f-4219-918c-0d26c0af9f17)" opacity=".5" d="M22.18 229.12 21.05 15.27l5.77-.14 4.88 210.09-9.52 3.9z"/>
                <path style="mix-blend-mode:multiply" fill="url(#76319139-bdae-4d49-ada4-c34ba2cd52df)" opacity=".5" d="M42.52 225.22 40.83 15.04l-7.95.09-1.18 213.99 10.82-3.9z"/>
                <path style="mix-blend-mode:multiply" fill="url(#dc3fc954-3493-46a9-bd62-51767a7ad82f)" opacity=".5" d="M51.47 223.45 50.35 14.98l-4.24.03-2.4 212.41 7.76-3.97z"/>
                <path style="mix-blend-mode:multiply" fill="url(#22ef36ba-733c-44cd-a41e-ca43819e409e)" opacity=".5" d="M61.54 224.02 60.05 14.94h-4.21l-2.42 214.18 8.12-5.1z"/>
                <path style="mix-blend-mode:multiply" fill="url(#d62fa595-213e-458c-82c9-5b3f71cd6e67)" opacity=".5" d="m68.37 224.02-.19-209.08-4.23-.05-2.41 212.99 6.83-3.86z"/>
                <path style="mix-blend-mode:multiply" fill="url(#0f452d12-15af-4c12-bc42-816bf7792326)" opacity=".5" d="m76.39 224.02.3-209.13-4.23-.06-2.4 213.05 6.33-3.86z"/>
                <path style="mix-blend-mode:multiply" fill="url(#52724aa2-3523-43e6-bbb5-fd604c3836bb)" opacity=".5" d="m83.89 224.02-.15-209.4-4.64.09-2.41 213.17 7.2-3.86z"/>
                <path fill="url(#af714df0-006e-4247-9aea-727cb34f088c)" fill-rule="evenodd" d="m578.71 9.3 3.55 211.53 7.02-1.3 1.03 3.93 9.61-3.68-.09 3.9 10.9-3.65 1.15 2.24 8.28-3.21 1.39 5.13 8.23-4.91-.09 3.86 6.92-3.7 1.59 3.9 6.42-3.71-.09 3.86 7.59-3.68-.08 3.4 5.98-2.7 3.95-210.92-83.26-.29z"/>
                <path style="mix-blend-mode:multiply" fill="url(#782a7b86-10cc-4dd5-b742-348c6ef8a0a5)" opacity=".5" d="m589.28 219.53-.54-210.55-4.02-.1 2.3 211.07 2.26-.42z"/>
                <path style="mix-blend-mode:multiply" fill="url(#9d348e24-a0fe-4cf4-9731-ca90a5788277)" opacity=".5" d="m590.31 223.46 2.9-213.82 5.76-.42.95 210.56-9.61 3.68z"/>
                <path style="mix-blend-mode:multiply" fill="url(#a43bcd67-4fd1-4b86-91b2-458a7ec40535)" opacity=".5" d="m610.73 220.03 2.26-210.48-7.95-.25-5.21 214.38 10.9-3.65z"/>
                <path style="mix-blend-mode:multiply" fill="url(#9a1dd0b2-5920-4ab4-8312-9060a34c3f20)" opacity=".5" d="m619.73 218.47 2.79-209.24-4.24.07-6.4 212.97 7.85-3.8z"/>
                <path style="mix-blend-mode:multiply" fill="url(#87ab09fe-f88c-45a8-9918-1d0a7b6b8d8d)" opacity=".5" d="m629.78 219.28 2.43-209.69-4.2-.12-6.46 214.72 8.23-4.91z"/>
                <path style="mix-blend-mode:multiply" fill="url(#5479eece-207e-46a7-89f5-ff6c832e2245)" opacity=".5" d="m636.61 219.44 3.74-209.97-4.23-.08-6.43 213.75 6.92-3.7z"/>
                <path style="mix-blend-mode:multiply" fill="url(#7d6fc4dc-0b9b-483c-8333-28621c797cfb)" opacity=".5" d="m644.62 219.63 4.24-210.16-4.22.12-6.44 213.75 6.42-3.71z"/>
                <path style="mix-blend-mode:multiply" fill="url(#5edf7456-ec08-430e-8445-7ce71e8dd6cb)" opacity=".5" d="m652.12 219.81 3.37-210.07h-4.22l-6.43 213.75 7.28-3.68z"/>
            </g>
        </g>
    </g>
</svg>
