<?xml version="1.0" encoding="UTF-8"?>
<svg data-bbox="-0.003 0 2268.896 257.64" xmlns="http://www.w3.org/2000/svg" viewBox="0 0 2269 258" height="258" width="2269" data-type="color">
    <g>
        <g clip-path="url(#6d2c0caf-8398-490f-9da1-e90dce5858e9)">
            <path fill="#EADBE6" d="M118.36 257.64c-37.1 0-71.33-18.38-93.93-50.43A135.15 135.15 0 0 1 0 128.82C0 87.45 18.44 48.33 49.33 24.17 69.55 8.36 93.42 0 118.36 0h2032.17c31.62 0 61.34 13.4 83.7 37.73s34.66 56.68 34.66 91.09c0 34.41-12.3 66.75-34.66 91.09-22.36 24.34-52.08 37.73-83.7 37.73H118.36z" data-color="1"/>
            <path fill="#ffffff" d="M118.36 236.72A118.362 118.362 0 0 1 5.71 154.603 118.36 118.36 0 0 1 49.359 22.21a117.6 117.6 0 0 1 69-22.21h2032.17c23.41 0 46.29 6.94 65.76 19.945a118.385 118.385 0 0 1 43.59 53.117 118.322 118.322 0 0 1 6.74 68.385 118.409 118.409 0 0 1-32.39 60.603 117.606 117.606 0 0 1-83.7 34.67H118.36z" data-color="2"/>
            <path fill="#C66914" d="M118.36 194.88a76.523 76.523 0 0 1-74.77-76.5 76.52 76.52 0 0 1 74.77-76.5h2032.17a76.567 76.567 0 0 1 29.82 5.313 76.661 76.661 0 0 1 25.42 16.464 76.608 76.608 0 0 1 17.04 25.036 76.62 76.62 0 0 1 5.99 29.687 76.624 76.624 0 0 1-5.99 29.687 76.615 76.615 0 0 1-17.04 25.036 76.662 76.662 0 0 1-25.42 16.464 76.564 76.564 0 0 1-29.82 5.313H118.36z" data-color="3"/>
            <path fill="#F19022" d="M2150.63 182.92H118.46A64.454 64.454 0 0 1 54 118.46 64.46 64.46 0 0 1 118.46 54h2032.17a64.433 64.433 0 0 1 24.67 4.903 64.532 64.532 0 0 1 20.92 13.973 64.55 64.55 0 0 1 13.97 20.913 64.456 64.456 0 0 1-59.55 89.13h-.01z" data-color="4"/>
            <path fill="#F5AE3C" d="M1352 118.46c0 35.6-28.86 64.46-64.46 64.46H118.46c-35.6 0-64.46-28.86-64.46-64.46C54 82.86 82.86 54 118.46 54h1169.08c35.6 0 64.46 28.86 64.46 64.46z" data-color="5"/>
            <path fill="#EFE9F4" d="M167.435 129.593c40.079-1.505 72.029-17.118 71.362-34.872-.666-17.755-33.697-30.928-73.775-29.423-40.079 1.504-72.029 17.117-71.362 34.872.666 17.754 33.697 30.927 73.775 29.423z" data-color="6"/>
        </g>
        <defs fill="none">
            <clipPath id="6d2c0caf-8398-490f-9da1-e90dce5858e9">
                <path fill="#ffffff" d="M2268.89 0v257.64H0V0h2268.89z"/>
            </clipPath>
        </defs>
    </g>
</svg>
