<?xml version="1.0" encoding="UTF-8"?>
<svg data-bbox="0 0 2969.2 711.9" viewBox="0 0 2969.2 711.9" xmlns="http://www.w3.org/2000/svg" data-type="ugc">
    <g>
        <g>
            <path fill="#ffffff" d="M2969.2 193.96v316.82H377.9V193.96h2591.3z"/>
            <path fill="#ececec" d="M2909.98 253.18v198.38H437.12V253.18h2472.86z"/>
            <path fill="#ff4348" d="M2088.86 253.18v198.38H437.12V253.18h1651.74z"/>
            <path d="M512.69 0A237.82 237.82 0 0 0 377.9 42.3 237.66 237.66 0 0 0 243.12 0C177.67 0 116.29 26.53 70.26 74.69 25 122.12 0 185 0 251.71A327.2 327.2 0 0 0 16.11 352.2c1.53 4.7 9.25 28 17.58 44.55 85.53 182.58 308 296.82 317.46 301.6l26.75 13.55 26.75-13.55c9.46-4.79 232.75-119.46 317.92-302.62l.15-.33.15-.33c1.18-2.63 11.71-26.18 17.08-43.74 10.67-35 15.85-67.61 15.85-99.62C755.8 112.93 646.74 0 512.69 0z" fill="#ffffff"/>
            <path d="M512.69 59.22c-53.26 0-101.2 23.72-134.79 61.59-33.57-37.88-81.53-61.59-134.8-61.59-101.53 0-183.88 86.18-183.88 192.49A267.32 267.32 0 0 0 72.47 334s7.68 23.68 14.45 36.74c77.5 166.67 291 274.76 291 274.76s213.47-108.09 291-274.76c0 0 10-22.25 14.45-36.74 8-26.39 13.26-53.76 13.26-82.31 0-106.29-82.31-192.49-183.89-192.49" fill="#ea0011"/>
            <path d="M318.68 196.85L307 183.66C290 164.52 267.34 154 243.12 154c-23 0-44.84 9.62-61.52 27.08-17.82 18.62-27.6 43.71-27.6 70.63a173.38 173.38 0 0 0 8.67 53.22c2.58 7.91 6.74 18.88 8.47 22.36l.93 1.79.79 1.73c29.7 63.91 90.05 121.57 145.82 164.19z" stroke="#ffffff" stroke-linecap="round" stroke-linejoin="round" stroke-width="10" opacity=".25" fill="#ffffff"/>
            <path fill="#efe9f4" d="M253.257 128.312c6.273 13.6-13.532 36.106-44.234 50.267s-60.677 14.614-66.95 1.013c-6.273-13.601 13.532-36.107 44.233-50.267s60.678-14.614 66.95-1.013z"/>
        </g>
    </g>
</svg>
