<?xml version="1.0" encoding="UTF-8"?>
<svg data-bbox="0 0 2236.803 699" xmlns="http://www.w3.org/2000/svg" viewBox="0 0 2237 699" height="699" width="2237" data-type="color">
    <g>
        <g clip-path="url(#aecde344-f0b2-4771-bdb0-9b45bfdfe263)">
            <path fill="#EADBE6" d="M178.456 699c-53.245 0-103.297-25.701-137.312-70.496C14.62 593.565 0 549.257 0 503.748v-308.48c0-50.656 17.633-98.665 49.64-135.196C83.606 21.334 129.36 0 178.456 0H2058.34c48.52 0 93.85 20.912 127.75 58.871 32.7 36.677 50.71 85.108 50.71 136.381v308.48c0 51.273-18.01 99.704-50.71 136.381-33.87 37.959-79.23 58.871-127.75 58.871L178.456 699z" data-color="1"/>
            <path fill="#FBFDFC" d="M191.297 654.174c-52.916 0-102.654-23.964-136.456-65.755-26.558-33.125-40.972-74.135-40.897-116.362V184.293c-.21-46.655 17.428-91.674 49.393-126.07 33.702-36.142 79.16-56.047 127.96-56.047H2059.45c48.22 0 93.3 19.483 126.95 54.926 32.63 34.513 50.65 80.009 50.4 127.191v287.764c.27 47.18-17.74 92.683-50.35 127.207-33.65 35.41-78.73 54.91-126.95 54.91H191.297z" data-color="2"/>
            <path fill="#C66914" d="M191.3 603.615c-37.225 0-72.36-17.031-96.381-46.726-19.299-24.172-29.743-54.068-29.636-84.833V184.293c-.217-33.925 12.54-66.685 35.727-91.748 23.923-25.637 55.979-39.746 90.29-39.746h1868.15c33.9 0 65.69 13.833 89.55 38.966 23.7 25.157 36.77 58.288 36.53 92.626v287.665c.24 34.338-12.83 67.468-36.53 92.626-23.86 25.1-55.67 38.966-89.55 38.966l-1868.15-.033z" data-color="3"/>
            <path fill="#F19022" d="M2059.45 586.762H191.297c-33.258 0-63.025-15.684-83.013-40.395-16.95-21.15-26.105-47.354-25.964-74.311V184.292c-.17-29.716 10.996-58.409 31.282-80.383 19.757-21.107 47.302-34.306 77.728-34.306h1868.12c14.5.07 28.82 3.093 42.09 8.876a105.359 105.359 0 0 1 34.98 24.732c20.72 22.072 32.13 51.1 31.92 81.179v287.666c.21 30.077-11.21 59.103-31.92 81.179a105.405 105.405 0 0 1-34.99 24.688 106.642 106.642 0 0 1-42.08 8.839z" data-color="4"/>
            <path fill="#F5AE3C" d="M108.284 546.367c-16.95-21.15-26.105-47.354-25.964-74.311V184.292c-.17-29.716 10.996-58.409 31.282-80.383 19.757-21.107 47.302-34.306 77.728-34.306h1868.12c26.32.069 51.66 9.925 70.94 27.6 2.11 1.9 6.13 5.975 6.13 5.975C218.809 188.871 108.284 546.367 108.284 546.367z" data-color="5"/>
            <path fill="#EFE9F4" d="M205.316 185.163c32.888-32.431 47.738-70.369 33.168-84.737-14.57-14.367-53.042.276-85.929 32.708-32.888 32.431-47.738 70.37-33.168 84.737 14.569 14.368 53.041-.276 85.929-32.708z" data-color="6"/>
        </g>
        <defs fill="none">
            <clipPath id="aecde344-f0b2-4771-bdb0-9b45bfdfe263">
                <path fill="#ffffff" d="M2236.8 0v699H0V0h2236.8z"/>
            </clipPath>
        </defs>
    </g>
</svg>
