<?xml version="1.0" encoding="UTF-8"?>
<svg data-bbox="0.001 0 187.316 177.9" viewBox="0 0 187.32 177.89" xmlns="http://www.w3.org/2000/svg" data-type="color">
    <g>
        <g>
            <path d="M138.48 177.89c-13.27 0-32.11-9-44.63-15.92-12.53 6.92-31.37 15.92-44.63 15.92a22.56 22.56 0 0 1-13.22-3.8c-8.81-6.17-11.53-18.45-8.84-39.82.81-6.42 1.95-12.46 2.93-17-3.57-3.14-8.18-7.38-12.74-12.11C2.13 89.36-2.3 77.88 1.06 67.9s13.78-16.29 35.68-20.42c6.57-1.24 12.89-2.06 17.69-2.58 2-4.24 76.84-4.24 78.84 0 4.8.52 11.11 1.34 17.68 2.58 21.9 4.13 31.9 10.43 35.26 20.42s-.65 21.46-15.84 37.23c-4.56 4.73-9.17 9-12.74 12.11 1 4.57 2.12 10.61 2.92 17 2.7 21.37 0 33.65-8.83 39.82a22.6 22.6 0 0 1-13.24 3.8z" fill="#e6dceb" data-color="1"/>
            <path d="M135.74 170.85c-12.46 0-30.14-8.75-41.89-15.49-11.76 6.74-29.44 15.49-41.85 15.49a20.65 20.65 0 0 1-12.43-3.69c-8.26-6-10.82-17.95-8.29-38.74.75-6.24 1.83-12.12 2.74-16.57-3.35-3-7.67-7.18-11.95-11.78C7.76 84.74 2.81 73.56 6 63.85S19.7 48 40.25 44c6.17-1.21 12.09-2 16.6-2.51 1.87-4.13 4.46-9.52 7.51-15C74.54 8.16 83.63 0 93.85 0s19.31 8.16 29.48 26.47c3.06 5.49 5.65 10.88 7.51 15 4.51.5 10.44 1.3 16.6 2.51 20.56 4 31.13 10.15 34.29 19.86s-1.8 20.89-16.06 36.22c-4.28 4.6-8.61 8.73-12 11.78.92 4.45 2 10.33 2.75 16.57 2.52 20.79 0 32.74-8.3 38.74a20.64 20.64 0 0 1-12.42 3.69z" fill="#fbfdfc" data-color="2"/>
            <path d="M135.74 162c-12.94 0-35.68-13.16-41.89-16.91C87.63 148.82 64.89 162 52 162a12 12 0 0 1-7.21-2c-5.2-3.78-6.74-13.75-4.7-30.49a206.54 206.54 0 0 1 3.71-20.81A209.37 209.37 0 0 1 28.52 94C17 81.68 12.42 72.7 14.41 66.59S25.4 55.93 42 52.7a205.87 205.87 0 0 1 20.94-2.9 208.22 208.22 0 0 1 9.23-19C80.31 16 87.42 8.87 93.85 8.87s13.53 7.13 21.73 21.91a210.19 210.19 0 0 1 9.22 19 205.49 205.49 0 0 1 20.94 2.9c16.55 3.23 25.56 7.78 27.55 13.89S170.66 81.68 159.17 94a209.37 209.37 0 0 1-15.24 14.65 205.83 205.83 0 0 1 3.72 20.81c2 16.74.49 26.71-4.7 30.49a12 12 0 0 1-7.21 2.05z" fill="#c66914" data-color="3"/>
            <path d="M93.85 11.83c12.49 0 28.91 40.77 28.91 40.77s43.85 3 47.72 14.91-29.84 40.1-29.84 40.1 10.68 42.63.57 50-47.36-16-47.36-16-37.25 23.33-47.36 16 .57-50 .57-50-33.7-28.22-29.84-40.1S64.93 52.6 64.93 52.6s16.42-40.77 28.92-40.77z" fill="#fdc837" data-color="4"/>
            <path d="M93.85 11.83c12.49 0 28.91 40.77 28.91 40.77s7.85.54 17.2 2.07c1 .16 3.07.52 3.07.52C61 61 42.66 132.78 42.66 132.78a200.72 200.72 0 0 1 4.4-25.17s-33.7-28.22-29.84-40.1S64.93 52.6 64.93 52.6s16.42-40.77 28.92-40.77z" fill="#ffd364" data-color="5"/>
            <path d="M42.7 77.27c-10 1.21-18.5-1.4-19-5.82s7.12-9 17.1-10.19 18.5 1.4 19 5.82-7.12 8.98-17.1 10.19z" fill="#efe9f4" data-color="6"/>
        </g>
    </g>
</svg>
