<?xml version="1.0" encoding="UTF-8"?>
<svg data-bbox="-0.017 0 535.819 508.85" viewBox="0 0 535.83 508.85" xmlns="http://www.w3.org/2000/svg" data-type="color">
    <g>
        <g>
            <path d="M396.12 508.85c-37.95 0-91.83-25.74-127.67-45.54-35.83 19.8-89.71 45.54-127.67 45.54-14.85 0-27.59-3.65-37.86-10.85-25.19-17.65-33-52.79-25.29-113.93 2.31-18.35 5.59-35.64 8.38-48.7-10.22-9-23.4-21.11-36.45-34.65C6.09 255.63-6.59 222.78 3 194.22s39.43-46.58 102.07-58.41c18.8-3.55 36.86-5.89 50.59-7.37 5.7-12.14 219.82-12.14 225.52 0 13.73 1.48 31.79 3.82 50.59 7.37 62.64 11.83 91.24 29.84 100.86 58.41s-1.85 61.41-45.32 106.5c-13 13.54-26.23 25.67-36.44 34.65 2.79 13.06 6.06 30.35 8.37 48.7 7.7 61.14-.1 96.28-25.29 113.93-10.27 7.2-23 10.85-37.86 10.85z" fill="#e6dceb" data-color="1"/>
            <path d="M388.28 488.72c-35.62 0-86.2-25-119.83-44.3-33.63 19.26-84.2 44.3-119.83 44.3-13.94 0-25.89-3.55-35.53-10.55-23.64-17.18-31-51.36-23.74-110.83 2.17-17.85 5.24-34.68 7.86-47.38-9.58-8.73-22-20.54-34.2-33.7C22.2 242.39 8 210.43 17.06 182.64s39.28-45.31 98.07-56.82c17.65-3.45 34.6-5.73 47.49-7.16 5.35-11.82 12.75-27.23 21.49-42.95C213.22 23.35 239.23 0 268.45 0s55.23 23.35 84.35 75.71c8.73 15.72 16.14 31.13 21.48 43 12.89 1.43 29.84 3.71 47.49 7.16 58.79 11.51 89 29 98.07 56.82s-5.14 59.75-45.94 103.62c-12.25 13.16-24.62 25-34.21 33.7 2.62 12.7 5.69 29.53 7.86 47.38 7.23 59.47-.09 93.65-23.73 110.83-9.64 7-21.6 10.55-35.54 10.55z" fill="#fbfdfc" data-color="2"/>
            <path d="M388.28 463.34c-37 0-102-37.64-119.83-48.37-17.78 10.73-82.82 48.37-119.83 48.37-8.46 0-15.4-1.92-20.61-5.71-14.88-10.8-19.28-39.34-13.46-87.23a594.3 594.3 0 0 1 10.63-59.52A596.2 596.2 0 0 1 81.59 269c-32.85-35.33-46.06-61-40.38-78.48S72.66 160 120 150.74a596.68 596.68 0 0 1 59.89-8.29 598.18 598.18 0 0 1 26.39-54.4c23.45-42.17 43.78-62.67 62.16-62.67s38.72 20.5 62.16 62.67a598.18 598.18 0 0 1 26.4 54.4 596.3 596.3 0 0 1 59.89 8.29C464.24 160 490 173 495.7 190.49s-7.53 43.15-40.39 78.48a596.2 596.2 0 0 1-43.59 41.91 594.3 594.3 0 0 1 10.63 59.52c5.82 47.89 1.42 76.43-13.45 87.23-5.22 3.79-12.15 5.71-20.62 5.71z" fill="#c66914" data-color="3"/>
            <path d="M268.45 33.85c35.75 0 82.72 116.62 82.72 116.62s125.43 8.64 136.48 42.63-85.36 114.71-85.36 114.71 30.55 122 1.63 143-135.47-45.74-135.47-45.74S161.9 471.8 133 450.79s1.63-143 1.63-143S38.21 227.1 49.25 193.1s136.48-42.63 136.48-42.63 46.98-116.62 82.72-116.62z" fill="#f19022" data-color="4"/>
            <path d="M268.45 33.85c35.75 0 82.72 116.62 82.72 116.62s22.45 1.55 49.2 5.91c2.88.47 8.77 1.51 8.77 1.51C174.62 174.57 122 379.82 122 379.82c3.61-36.17 12.59-72 12.59-72S38.21 227.1 49.25 193.1s136.48-42.63 136.48-42.63 46.98-116.62 82.72-116.62z" fill="#f5ae3c" data-color="5"/>
            <path fill="#efe9f4" d="M147.963 178.785c4.272 9.262-9.213 24.59-30.122 34.233s-41.32 9.95-45.593.688 9.214-24.59 30.122-34.232 41.321-9.951 45.593-.689z" data-color="6"/>
        </g>
    </g>
</svg>
