<?xml version="1.0" encoding="UTF-8"?>
<svg data-bbox="0 0 1488.87 1080.73" xmlns="http://www.w3.org/2000/svg" viewBox="0 0 1489 1081" height="1081" width="1489" data-type="color">
    <g>
        <g clip-path="url(#bbeb01f6-cb20-4831-a9d7-d62d3f0767ea)">
            <path fill="#EADBE6" d="M416.68 1080.73a416.296 416.296 0 0 1-159.502-31.64A416.387 416.387 0 0 1 0 664.05V450.39A416.396 416.396 0 0 1 257.18 65.353a416.403 416.403 0 0 1 159.5-31.643h655.51a416.396 416.396 0 0 1 294.72 121.961 416.434 416.434 0 0 1 90.32 135.219 416.466 416.466 0 0 1 31.64 159.5v213.66c0 54.72-10.77 108.905-31.71 159.461a416.705 416.705 0 0 1-90.32 135.185 416.674 416.674 0 0 1-294.65 122.034H416.68z" data-color="1"/>
            <path fill="#FBFDFC" d="M416.68 1047a416.271 416.271 0 0 1-159.497-31.64A416.385 416.385 0 0 1 0 630.34V416.68A416.396 416.396 0 0 1 257.18 31.643 416.403 416.403 0 0 1 416.68 0h655.51a416.396 416.396 0 0 1 294.72 121.961 416.434 416.434 0 0 1 90.32 135.219 416.466 416.466 0 0 1 31.64 159.5v213.66a416.674 416.674 0 0 1-31.72 159.455 416.611 416.611 0 0 1-225.5 225.495 416.712 416.712 0 0 1-159.46 31.71H416.68z" data-color="2"/>
            <path fill="#C66914" d="M416.68 984.56a353.997 353.997 0 0 1-250.536-103.684A354.009 354.009 0 0 1 62.46 630.34V416.68A353.95 353.95 0 0 1 416.68 62.46h655.51a354.016 354.016 0 0 1 250.54 103.684 354.274 354.274 0 0 1 76.78 114.948 353.992 353.992 0 0 1 26.9 135.588v213.66a354.23 354.23 0 0 1-103.74 250.477 354.346 354.346 0 0 1-114.92 76.785 354.214 354.214 0 0 1-135.56 26.958H416.68z" data-color="3"/>
            <path fill="#F5AE3C" d="M1072.19 969.68H416.68A339.321 339.321 0 0 1 77.34 630.34V416.68a339.326 339.326 0 0 1 209.479-313.512A339.328 339.328 0 0 1 416.68 77.34h655.51a339.328 339.328 0 0 1 129.86 25.828 339.475 339.475 0 0 1 110.1 73.559 339.46 339.46 0 0 1 73.56 110.091 339.411 339.411 0 0 1 25.83 129.862v213.66c0 44.564-8.77 88.693-25.83 129.865a339.293 339.293 0 0 1-73.56 110.094 339.291 339.291 0 0 1-239.96 99.381z" data-color="4"/>
            <path fill="#F5AE3C" d="M177 870.57a338.264 338.264 0 0 1-73.839-110.155 338.269 338.269 0 0 1-25.82-130.075V416.68A339.331 339.331 0 0 1 416.68 77.34h655.51a337.986 337.986 0 0 1 215.66 77.32c3.86 3.19 11.38 9.81 11.38 9.81C297.9 182.44 177 870.57 177 870.57z" data-color="4"/>
        </g>
        <defs fill="none">
            <clipPath id="bbeb01f6-cb20-4831-a9d7-d62d3f0767ea">
                <path fill="#ffffff" d="M1488.87 0v1080.73H0V0h1488.87z"/>
            </clipPath>
        </defs>
    </g>
</svg>
