<?xml version="1.0" encoding="UTF-8"?>
<svg data-bbox="-0.002 0 1567.783 1914" xmlns="http://www.w3.org/2000/svg" viewBox="0 0 1568 1915" height="1915" width="1568" data-type="color">
    <g>
        <g clip-path="url(#16f0309e-87af-4613-82cf-4675639c8efd)">
            <path fill="#EADBE6" d="M439.159 1914c-117.3 0-227.59-45.68-310.53-128.62-82.94-82.94-128.63-193.22-128.63-310.53V474.75a436.63 436.63 0 0 1 126.3-308.19c83.21-84.45 194.31-131 312.86-131h689.461a439.125 439.125 0 0 1 310.53 128.618 439.146 439.146 0 0 1 128.63 310.532v1000.1a439.222 439.222 0 0 1-128.61 310.56 439.208 439.208 0 0 1-142.48 95.2 439.249 439.249 0 0 1-168.07 33.43H439.159z" data-color="1"/>
            <path fill="#FBFDFC" d="M439.159 1878.41c-117.3 0-227.59-45.68-310.53-128.62-82.94-82.94-128.63-193.23-128.63-310.53V439.16A436.64 436.64 0 0 1 126.3 131C209.51 46.51 320.61 0 439.16 0h689.461a439.127 439.127 0 0 1 168.06 33.424 439.18 439.18 0 0 1 142.48 95.197 439.163 439.163 0 0 1 95.2 142.477 439.35 439.35 0 0 1 33.42 168.062v1000.1c0 57.67-11.36 114.78-33.43 168.06a439.165 439.165 0 0 1-95.2 142.47 438.978 438.978 0 0 1-142.47 95.19 439.162 439.162 0 0 1-168.06 33.43H439.159z" data-color="2"/>
            <path fill="#C66914" d="M439.16 1816.12a376.85 376.85 0 0 1-266.486-110.37 376.844 376.844 0 0 1-81.693-122.27A376.82 376.82 0 0 1 62.3 1439.26V439.16a374.63 374.63 0 0 1 108.38-264.47C242.08 102.21 337.43 62.3 439.16 62.3h689.46c49.49-.004 98.5 9.741 144.22 28.679a376.823 376.823 0 0 1 122.27 81.692 376.949 376.949 0 0 1 81.69 122.266 376.863 376.863 0 0 1 28.68 144.223v1000.1c0 99.95-39.71 195.8-110.38 266.48-70.68 70.67-166.53 110.38-266.48 110.38H439.16z" data-color="3"/>
            <path fill="#F5AE3C" d="M1128.62 1795.35H439.159a356.105 356.105 0 0 1-251.798-104.3 356.095 356.095 0 0 1-104.302-251.79V439.16a356.1 356.1 0 0 1 356.1-356.1h689.461a356.06 356.06 0 0 1 136.27 27.104 355.96 355.96 0 0 1 115.53 77.192 355.962 355.962 0 0 1 77.19 115.529 356.032 356.032 0 0 1 27.11 136.275v1000.1c0 46.76-9.21 93.07-27.11 136.27a355.934 355.934 0 0 1-77.19 115.53 356.252 356.252 0 0 1-115.53 77.19 356.182 356.182 0 0 1-136.27 27.1z" data-color="4"/>
            <path fill="#F5AE3C" d="M83.059 1439.26V439.16a356.1 356.1 0 0 1 356.1-356.1h689.461a354.827 354.827 0 0 1 238.22 91.41S275.789 323.48 83.059 1439.26z" data-color="4"/>
        </g>
        <defs fill="none">
            <clipPath id="16f0309e-87af-4613-82cf-4675639c8efd">
                <path fill="#ffffff" d="M1567.78 0v1914.01H0V0h1567.78z"/>
            </clipPath>
        </defs>
    </g>
</svg>
