<?xml version="1.0" encoding="UTF-8"?>
<svg data-bbox="0 0 1358.582 430.53" viewBox="0 0 1358.58 430.53" xmlns="http://www.w3.org/2000/svg" data-type="color">
    <g>
        <g>
            <path d="M108.39 430.53c-32.34 0-62.74-15.83-83.4-43.42C8.88 365.59 0 338.3 0 310.27v-190C0 89.07 10.71 59.5 30.15 37 50.78 13.14 78.57 0 108.39 0h1141.8c29.47 0 57 12.88 77.59 36.26 19.86 22.59 30.8 52.42 30.8 84v190c0 31.58-10.94 61.41-30.8 84-20.57 23.38-48.12 36.26-77.59 36.26z" fill="#eadbe6" data-color="1"/>
            <path d="M116.19 402.92c-32.14 0-62.35-14.76-82.88-40.5a115.23 115.23 0 0 1-24.84-71.67V113.51a114.18 114.18 0 0 1 30-77.65C58.94 13.6 86.55 1.34 116.19 1.34h1134.67c29.29 0 56.67 12 77.11 33.83a114 114 0 0 1 30.61 78.34v177.24A114 114 0 0 1 1328 369.1c-20.44 21.81-47.82 33.82-77.11 33.82z" fill="#fbfdfc" data-color="2"/>
            <path d="M116.19 371.78c-22.61 0-43.95-10.49-58.54-28.78a84 84 0 0 1-18-52.25V113.51A83.07 83.07 0 0 1 61.35 57c14.53-15.79 34-24.48 54.84-24.48h1134.67c20.59 0 39.9 8.52 54.39 24a83 83 0 0 1 22.19 57.05v177.18a83 83 0 0 1-22.19 57.05c-14.49 15.46-33.81 24-54.39 24z" fill="#133e83" data-color="3"/>
            <path d="M1250.86 361.4H116.19c-20.2 0-38.28-9.66-50.42-24.88A73.21 73.21 0 0 1 50 290.75V113.51A72.93 72.93 0 0 1 69 64c12-13 28.73-21.13 47.21-21.13h1134.65a64 64 0 0 1 46.81 20.7 72.85 72.85 0 0 1 19.39 50v177.18a72.89 72.89 0 0 1-19.39 50 64 64 0 0 1-46.81 20.65z" fill="#16469d" data-color="4"/>
            <path d="M65.77 336.52A73.21 73.21 0 0 1 50 290.75V113.51A72.93 72.93 0 0 1 69 64c12-13 28.73-21.13 47.21-21.13h1134.65a63.54 63.54 0 0 1 43.09 17c1.28 1.17 3.72 3.68 3.72 3.68C132.9 116.33 65.77 336.52 65.77 336.52z" fill="#2163c4" data-color="5"/>
            <path fill="#efe9f4" d="M144.848 61.853c8.85 8.85-.17 32.216-20.146 52.192S81.36 143.04 72.511 134.191s.17-32.216 20.145-52.192 43.342-28.995 52.192-20.146z" data-color="6"/>
        </g>
    </g>
</svg>
