<?xml version="1.0" encoding="UTF-8"?>
<svg data-bbox="0.004 0.002 425.92 716.779" viewBox="0 0 425.93 716.75" xmlns="http://www.w3.org/2000/svg" data-type="color">
    <g>
        <path d="M269.96 94.36c8.97 1.86 15.77-.82 22.47-3.97 7.1-3.34 13.65-7.65 19.6-12.68 14.06-11.88 30.5-15.86 48.38-15.35 9.09.26 18.19.48 27.08 2.87 10.21 2.75 19.55 7.06 27.15 14.6 12.61 12.5 14.77 28.51 5.88 43.9-5.07 8.77-12.14 15.76-20.05 21.95-15.4 12.05-33.11 18.84-52.2 21.8-15.9 2.46-31.95 2.76-47.87-.53-13.76-2.84-26.45-8.11-37.67-16.74-2.92-2.25-5.02-1.24-5.08 2.21-.7 38.75 1.62 77.11 14.17 114.24 3.23 9.55 8.08 18.16 13.27 26.69 1.89 3.11 4.73 5.01 7.62 6.92 14.83 9.79 29.46 19.95 45.51 27.67 18.93 9.11 32.87 23.19 44.87 40.28 21.15 30.12 30.6 63.96 33.36 99.83 2.34 30.39-.87 60.66-7.03 90.46-5.79 28.01-17.4 53.44-36.44 75.2-7.42 8.48-14.4 17.34-21.49 26.09-8.85 10.92-19.45 19.71-31.76 26.46-7.22 3.95-14.61 7.61-21.69 11.8-24.68 14.6-51.32 20.08-79.8 18.44-31.67-1.82-62.85-6.22-93.5-14.67-27.97-7.71-51.76-21.81-71.01-43.47-6.33-7.12-12.64-14.31-18.37-21.91C8.62 600.98-2.03 560.66.32 516.74c2.65-49.62 19.31-94.75 45-136.84 8.2-13.42 18.44-25.19 30.38-35.39 7.02-6 12.77-12.9 17.59-20.7 5.93-9.6 12.13-19.11 19.94-27.24 14.96-15.58 20.57-34.79 22.66-55.44 1.89-18.69-.24-37.27-3.21-55.68-2.41-14.96-5.63-29.81-9.1-44.56-2.27-9.67-5.39-19.17-8.56-28.6-2.92-8.66-4.96-17.42-6.15-26.5-2.85-21.77 3.4-41.16 14.56-59.36 9-14.68 22.06-22.92 39.43-23.87 17.29-.94 34.51-3.98 51.89-1.77 7.72.98 15.43 2.16 23.07 3.66 14.83 2.92 24.92 11.86 30.3 25.75 7.2 18.56 10.8 37.49 3.49 57.03-.75 2-.98 4.18-1.65 7.13Zm-62.11 568.51c10.95-.37 21.85-1.98 32.42-4.92 31.33-8.7 59.21-28.09 80.21-52.91 30.85-36.46 47.08-85.71 40.75-133.04-6.33-47.34-36.13-91.63-79.06-112.57-43.72-21.33-98.03-16.99-139.77 7.99-85.35 51.08-116.28 181.56-41.17 254.87 27.99 27.32 67.61 41.9 106.61 40.59ZM156.7 19.8c-9.68 1.65-14.65 6.97-18.72 13.18-11.06 16.89-16.98 35.04-12.64 55.46.9 4.23 1.57 8.61 3.19 12.58 8.25 20.2 12.14 41.53 16.73 62.7 6 27.71 8.63 55.6 6.36 83.97-1.31 16.4-5.65 31.49-15.59 44.76-3.38 4.51-6.87 8.93-10.24 13.44-3.89 5.21-8.12 10.22-11.44 15.78-7.87 13.17-17.67 24.59-29.23 34.62-11.89 10.31-21.74 22.39-29.67 35.97-21.94 37.56-36.33 77.63-39.44 121.3-2.3 32.34 3.68 62.95 19.8 91.39 9.06 15.98 20.69 29.86 33.38 43.02 16.98 17.61 37.24 29.2 60.78 35.89 55.91 15.89 118.88 23.15 170.95-7.57 45.9-27.08 84.05-76.31 92.75-129.26 2.25-13.7 2.99-27.56 4.32-41.35 2.75-28.5-.85-56.12-8.95-83.47-11.8-39.85-36.22-64.22-71.53-83.82a536.985 536.985 0 0 1-31.5-18.93c-13.86-8.99-21.27-23.08-26.48-38.54-7.47-22.2-13.74-44.65-15.93-68.16-2.46-26.4-3.24-52.79-1.88-79.23.3-5.74-1.35-9.99-5.14-14.01-6.55-6.93-12.82-14.12-19.3-21.12-2.01-2.17-3.58-5.63-6.86-5.41-2.32.15-4.43 2.4-6.77 3.35-2.79 1.13-5.68 2.25-8.63 2.73-12.73 2.07-25.63-6.1-28.98-18.72-3.88-14.63-1.02-22.54 13.32-29.71 8.03-4.01 16.81-3.8 25.28-.59 7.49 2.84 12.97 8.24 13.05 16.24.08 7.52 3.97 11.9 8.59 16.59 5.48 5.55 10.61 11.44 15.97 17.11 1.38 1.46 2.57 3.5 6.03 2.79 1.77-5.75 3.39-12.01 5.62-18.03 5.58-15.05 3.85-29.8-1.07-44.55-3.58-10.73-10.53-17.21-21.75-20.11-18.4-4.74-36.87-4.62-55.52-2.82-3.4.33-5.42 2.19-6.95 5.07-7.85 14.75-13.21 30.12-12.46 47.16.65 14.75 2.29 29.4 5.02 43.89 5.04 26.8 11.41 53.37 12.85 80.75.09 1.72.72 3.41.8 5.13.27 5.37 2.27 8.32 8.26 9.43 10.71 1.97 16.04 9.58 17.2 20.14.86 7.79.84 15.54-1.32 23.22-1.68 5.98-3.92 11.63-8.97 15.44-3.88 2.93-5.04 6.42-5.05 11.14-.04 16.5-1.23 32.91-5.09 49.03-.41 1.73-.45 3.4 1.62 4.46 1.13-.14 2.44-.2 3.7-.47 95.43-20.46 183.84 44.05 194.87 139.65 6.81 58.95-11.96 110.8-52.39 153.73-37.91 40.25-85.15 60.41-141.09 56.59-40.61-2.78-75.52-18.9-102.9-49.28-38.8-43.05-50.72-94.29-40.05-150.08 12.45-65.14 49.53-112.53 110.21-140.41 7.01-3.22 9.99-7.31 10.14-14.58.16-8.28 2.2-16.28 4.31-24.26 1.77-6.7 3.27-13.47 4.67-20.26.89-4.35 1.38-8.37-4.17-10.81-4.09-1.8-5.74-6.19-6.89-10.54-2.85-10.75-2.63-21.51.05-32.17 1.06-4.23 2.1-8.35 2.02-12.75-.29-16.47-.24-32.96-4.68-49.05-1.15-4.17-2.18-8.47-2.41-12.76-.83-15.72-5.27-30.65-8.88-45.83-6.78-28.54-6.09-56.76 7.08-83.78.55-1.12.77-2.4 1.64-5.2Zm172.59 133.23c3.88-.13 7.81.05 11.65-.45 20.15-2.67 38.54-9.57 53.62-23.66 3.75-3.51 7.22-7.52 9.99-11.84 6.24-9.72 4.9-17.85-3.59-25.32-4.62-4.07-10.08-6.55-15.95-8.31-7.99-2.39-16.2-2.37-24.4-2.64-14.68-.47-28.15 2.33-39.79 12.35-7.52 6.47-16.18 11.55-25.59 15.04-8.53 3.17-17.14 6.23-26.47 3.92-3.28-.81-4.64.85-5.82 3.49-1.98 4.41-1.38 8.11 1.64 11.99 7.95 10.22 17.97 17.34 30.23 21.34 11.21 3.65 22.72 5.14 34.49 4.09Zm-145.26 86.76c-.56-2.76-1.19-6.56-2.17-10.27-.26-1-1.42-2.15-2.42-2.5-2.06-.72-3.31 1.13-3.89 2.53-3.56 8.59-4.01 17.44-1.57 26.42.11.4.38.77.56 1.15.81 1.67 2.16 2.89 3.98 2.49 1.04-.23 2.21-1.35 2.7-2.36 2.51-5.17 2.21-10.83 2.8-17.45Zm8.46-154.25c.43-.05.86-.06 1.28-.16 2.07-.47 4.49-.63 5.1-3.18.46-1.92-1.04-3.09-2.4-4.14-3.71-2.86-7.87-5.08-8.86-10.52-.6-3.3-2.63-3.65-5.54-1.93-7.09 4.19-7.67 8.22-2.1 14.43 3.35 3.74 7.37 5.89 12.52 5.5Z" fill="#eaa040" data-color="1"/>
    </g>
</svg>
