<?xml version="1.0" encoding="UTF-8"?>
<svg data-bbox="0 0 1666 1516.82" viewBox="0 0 1666 1516.82" xmlns="http://www.w3.org/2000/svg" data-type="color">
    <g>
        <path d="M962.98 796.51h.17c1.05-.1 1.82-1.03 1.72-2.08-1.92-20.86-1.98-38.92-.18-60.37.08-1.05-.69-1.97-1.74-2.06-1.11-.09-1.97.69-2.06 1.74-1.81 21.69-1.75 39.94.19 61.04.09.99.92 1.73 1.9 1.73Z" fill="#eaa040" data-color="1"/>
        <path d="m962.98 796.51.34 7.99h.17l.2-.02.2-.02a9.91 9.91 0 0 0 8.99-9.86c0-.32-.01-.55-.02-.7v-.11l-.02-.1c-.97-10.56-1.45-20.33-1.46-30.19 0-9.24.42-18.59 1.28-28.78v-.08a9.924 9.924 0 0 0-2.57-7.44 9.976 9.976 0 0 0-2.88-2.17 9.81 9.81 0 0 0-3.61-1.01h.03c-.24-.02-.52-.03-.86-.03-1.24 0-2.49.23-3.65.69a9.81 9.81 0 0 0-4.33 3.34 9.904 9.904 0 0 0-1.88 5.06c-.89 10.66-1.34 20.57-1.34 30.4 0 10.51.51 20.92 1.54 32.04.11 1.25.47 2.47 1.03 3.56a9.9 9.9 0 0 0 8.84 5.43h.34l-.34-8v-1.91l4.09-4.51a6.116 6.116 0 0 0-4.09-1.58v6.09l4.09-4.51-4.1 4.52 5.44-2.76c-.34-.68-.8-1.27-1.34-1.76l-4.1 4.52 5.44-2.76-5.44 2.76 6.08-.55c-.07-.77-.29-1.53-.63-2.2l-5.44 2.76 6.08-.55c-.99-10.71-1.47-20.59-1.48-30.58 0-9.34.43-18.78 1.29-29.07s-6.07-.51-6.07-.51l4.15 4.44c1.13-1.05 1.81-2.51 1.92-3.94l-6.07-.5 4.15 4.44-4.21-4.5 2.26 5.73c.72-.28 1.39-.71 1.95-1.23l-4.21-4.5 2.26 5.73-2.22-5.62v6.05c.73 0 1.5-.14 2.22-.42l-2.22-5.62v6.05-6.03l-.52 6.01c.12.01.29.02.52.02v-6.03l-.52 6.01h.03l.5-6.09-2.73 5.46c.68.34 1.45.56 2.23.62l.5-6.09-2.73 5.46 2.72-5.45-5.16 3.24c.59.93 1.41 1.7 2.44 2.21l2.72-5.45-5.16 3.24 5.16-3.24h-6.09c0 1.17.34 2.31.93 3.24l5.16-3.24h-6.09 5.87l-5.86-.43c-.01.14-.02.29-.02.43h5.87l-5.86-.43v-.08c-.88 10.56-1.33 20.38-1.33 30.11 0 10.39.51 20.68 1.52 31.66l7.97-.73-7.98.52 5.23-.34h-5.24v.34l5.23-.34h-5.24 6.1l-4.52-4.1a6.084 6.084 0 0 0-1.58 4.1h6.1l-4.52-4.1 4.51 4.1-.56-6.07c-1.56.14-2.99.9-3.95 1.97l4.51 4.1-.56-6.07.74 7.97-.34-7.99h-.17l.34 8Z" fill="#eaa040" data-color="1"/>
        <path d="M1001.33 795.63h.17c1.05-.1 1.82-1.03 1.72-2.08l-5.52-60.58c-.09-1.04-.9-1.79-2.07-1.73a1.893 1.893 0 0 0-1.72 2.07l5.52 60.58c.09.99.92 1.73 1.9 1.73Z" fill="#eaa040" data-color="1"/>
        <path d="m1001.33 795.63.34 7.99h.17l.19-.02.19-.02c1.27-.11 2.49-.47 3.58-1.03a9.943 9.943 0 0 0 3.93-3.59c.95-1.51 1.5-3.34 1.5-5.24 0-.32-.01-.55-.02-.7v-.11l-5.53-60.67a9.815 9.815 0 0 0-4.69-7.56c-1.62-.99-3.49-1.45-5.22-1.44-.11 0-.35 0-.79.03h-.05a9.959 9.959 0 0 0-6.43 3.19 9.856 9.856 0 0 0-2.49 7.97l7.92-1.11-7.97.73 5.52 60.58a9.947 9.947 0 0 0 3.2 6.43 9.923 9.923 0 0 0 6.67 2.58h.34l-.34-8v-1.91l4.1-4.51a6.131 6.131 0 0 0-4.1-1.59v6.09l4.1-4.51-4.1 4.51 6.07-.55a6.156 6.156 0 0 0-1.97-3.96l-4.1 4.51 6.07-.55-5.53-60.77-.03-.21-6.63.93h6.7s0-.37-.07-.93l-6.63.93h.59l4.51 4.12a6.125 6.125 0 0 0 1.59-4.12h-6.11l4.51 4.12-4.5-4.11 2.75 5.44a6.1 6.1 0 0 0 1.76-1.33l-4.5-4.11 2.75 5.44-2.75-5.44.54 6.07c.77-.07 1.53-.29 2.2-.63l-2.75-5.44.54 6.07h-.05l-.54-6.43v6.46s.17 0 .54-.02l-.54-6.44v6.46-5.84l-2.02 5.47c.71.26 1.42.37 2.02.37v-5.84l-2.02 5.47 2.15-5.82-4.98 3.69c.71.97 1.76 1.74 2.83 2.13l2.15-5.82-4.98 3.69 4.85-3.6-6.03.55c.08.97.46 2.08 1.17 3.05l4.85-3.6-6.03.55 5.52 60.58 7.97-.73-7.98.52 5.2-.34h-5.21v.34l5.2-.34h-5.21 6.1l-4.52-4.11a6.118 6.118 0 0 0-1.59 4.11h6.1l-4.52-4.11 4.51 4.1-2.75-5.44c-.67.34-1.27.8-1.76 1.34l4.51 4.1-2.75-5.44 2.76 5.45-.55-6.08c-.77.07-1.53.29-2.21.63l2.76 5.45-.55-6.08.72 7.97-.34-7.99h-.17l.34 8Z" fill="#eaa040" data-color="1"/>
        <path d="M1032.12 794.92c.1 0 .2 0 .31-.02a1.903 1.903 0 0 0 1.57-2.19c-3.02-18.27-4.34-40.79-3.53-60.24.04-1.05-.77-1.94-1.83-1.98-1.24-.17-1.94.77-1.98 1.82-.81 19.69.53 42.5 3.58 61.02.15.93.96 1.6 1.88 1.6Z" fill="#eaa040" data-color="1"/>
        <path d="M1032.12 794.92v8c.49 0 1.03-.04 1.59-.13h.03c2.41-.4 4.53-1.68 5.98-3.42a9.906 9.906 0 0 0 2.31-6.36c0-.56-.05-1.06-.11-1.51l-.02-.1c-2.35-14.21-3.66-31.39-3.66-47.39 0-3.83.07-7.58.22-11.21v-.4a9.907 9.907 0 0 0-9.51-9.9l-.31 7.99 1.08-7.93c-.44-.06-.89-.09-1.36-.09-1.36 0-2.82.3-4.11.91-.97.46-1.84 1.07-2.56 1.76a9.705 9.705 0 0 0-2.28 3.39 10.2 10.2 0 0 0-.74 3.47v-.02c-.16 3.91-.24 7.93-.24 12.02 0 17.08 1.37 35.16 3.93 50.64a9.93 9.93 0 0 0 3.4 5.97 9.887 9.887 0 0 0 6.37 2.32v-9.91l3.92-4.66a6.104 6.104 0 0 0-3.92-1.43v6.09l3.92-4.66-3.92 4.67 6.02-.99a6.094 6.094 0 0 0-2.1-3.68l-3.92 4.67 6.02-.99c-2.39-14.41-3.72-31.83-3.71-48.03 0-3.87.08-7.67.23-11.35v-.02l-5.66-.22 5.33 1.91c.21-.6.31-1.16.33-1.69l-5.66-.22 5.33 1.91-5.69-2.04 4.96 3.45c.33-.48.56-.96.73-1.41l-5.69-2.04 4.96 3.45-5.26-3.65 3.04 5.62c.97-.52 1.72-1.26 2.22-1.98l-5.26-3.65 3.04 5.62-3.01-5.58v6.35c.93 0 2.06-.24 3.01-.77l-3.01-5.58v.42l-.8 5.88c.25.03.51.05.8.05v-5.93l-.8 5.88.38.05.39.02.24-6.11-2.56 5.55c.71.33 1.51.53 2.32.56l.24-6.11-2.56 5.55 2.55-5.53-5.11 3.32c.62.95 1.49 1.72 2.56 2.22l2.55-5.53-5.11 3.32 5.11-3.31h-6.09c0 1.2.36 2.37.98 3.31l5.11-3.31h-6.09v.08h8l-7.99-.34c-.16 3.88-.24 7.85-.24 11.88 0 16.87 1.35 34.71 3.87 49.99l7.89-1.3-7.91 1.2 5.87-.89h-5.94c0 .35.03.65.07.89l5.87-.89h-5.94 6.09l-4.67-3.91a6.069 6.069 0 0 0-1.42 3.91h6.09l-4.67-3.91 4.68 3.92-1-6.02c-1.48.24-2.8 1.04-3.68 2.1l4.68 3.92-1-6.02h.03l.97 5.97v-6.05c-.29 0-.62.02-.97.08l.97 5.97v1.95Z" fill="#eaa040" data-color="1"/>
        <path d="M1098.86 809.96c0-1.04-.86-1.89-1.91-1.89-1.07 0-1.92.87-1.91 1.93.07 6.9.22 11.71.36 16.53.14 4.76.29 9.52.36 16.33 0 1.04.86 1.89 1.91 1.89 1.07 0 1.92-.87 1.91-1.93-.07-6.84-.22-11.62-.36-16.4-.15-4.8-.29-9.59-.36-16.45Z" fill="#eaa040" data-color="1"/>
        <path d="m1098.86 809.96 8-.08c-.01-1.34-.3-2.66-.81-3.84a9.973 9.973 0 0 0-3.58-4.3 9.863 9.863 0 0 0-5.51-1.67h-.07c-1.33.01-2.64.29-3.83.8a9.935 9.935 0 0 0-4.35 3.62 9.873 9.873 0 0 0-1.66 5.51v.08c.07 6.97.22 11.87.37 16.69.14 4.77.29 9.44.36 16.17.01 1.33.3 2.65.81 3.83a9.973 9.973 0 0 0 3.58 4.3 9.863 9.863 0 0 0 5.51 1.67h.07c1.33-.01 2.64-.29 3.83-.8a10.01 10.01 0 0 0 4.34-3.61 9.873 9.873 0 0 0 1.66-5.51v-.08c-.07-6.91-.22-11.79-.37-16.56-.15-4.8-.29-9.5-.36-16.29s-8 .08-8 .08l-8 .08c.07 6.94.22 11.82.37 16.62.14 4.78.29 9.48.36 16.24l8-.08h-1.94l-5.59-2.33c-.3.73-.47 1.53-.46 2.33h6.06l-5.59-2.33 5.62 2.34-3.43-5.03c-.97.66-1.73 1.59-2.19 2.69l5.62 2.34-3.43-5.03 3.42 5.01-.06-6.07c-1.2 0-2.4.4-3.37 1.06l3.42 5.01-.06-6.07h.07v6.1l2.36-5.62a6.07 6.07 0 0 0-2.36-.48v6.1l2.36-5.62-2.36 5.61 5.02-3.44a6.082 6.082 0 0 0-2.66-2.17l-2.36 5.61 5.02-3.44-5.03 3.45 6.1-.06c0-1.24-.41-2.44-1.07-3.4l-5.03 3.45 6.1-.06c-.07-6.89-.22-11.74-.37-16.49-.14-4.83-.29-9.55-.36-16.37l-8 .08h1.95l5.59 2.32c.3-.73.46-1.53.46-2.32h-6.05l5.59 2.32-5.63-2.34 3.44 5.03c.97-.66 1.74-1.6 2.19-2.7l-5.63-2.34 3.44 5.03-3.42-5.01.05 6.07c1.19 0 2.4-.39 3.37-1.06l-3.42-5.01.05 6.07h-.07v-6.1l-2.36 5.63c.73.31 1.54.48 2.36.48v-6.1l-2.36 5.63 2.36-5.61-5.02 3.45c.66.96 1.57 1.71 2.66 2.17l2.36-5.61-5.02 3.45 5.03-3.45-6.1.06c0 1.24.41 2.44 1.07 3.4l5.03-3.45-6.1.06 8-.07Z" fill="#eaa040" data-color="1"/>
        <path d="M1134.88 809.44c-1.2-.19-1.94.78-1.97 1.83l-1.17 32.79c-.03 1.05.78 1.94 1.84 1.97h.07c1.02 0 1.87-.81 1.91-1.83l1.17-32.79c.04-1.05-.78-1.94-1.84-1.97Z" fill="#eaa040" data-color="1"/>
        <path d="m1134.88 809.44 1.25-7.9c-.47-.07-.98-.12-1.55-.12-1.42 0-2.92.33-4.2.97-.96.47-1.81 1.09-2.5 1.77a9.922 9.922 0 0 0-2.22 3.32c-.47 1.15-.71 2.33-.75 3.52l-1.17 32.78 8 .29-7.99-.37 6.92.32-6.92-.42v.1l6.92.32-6.92-.42 2.35.14-2.35-.15 2.35.15-2.35-.15s-.02.19-.02.54a9.91 9.91 0 0 0 2.76 6.86c.86.89 1.88 1.63 3.04 2.15 1.15.53 2.44.84 3.75.89h.36c1.31 0 2.6-.26 3.77-.74a9.877 9.877 0 0 0 6.13-8.78v-.03l1.18-32.92v-.21c0-2.64-1.06-5.1-2.76-6.86a9.696 9.696 0 0 0-3.04-2.15 9.93 9.93 0 0 0-3.77-.89l-.27 8 1.25-7.9-1.25 7.9-.27 8 .21-6.11-2.53 5.56c.71.33 1.52.52 2.33.55l.21-6.11-2.53 5.56 2.53-5.54-5.1 3.33c.62.95 1.5 1.72 2.58 2.21l2.53-5.54-5.1 3.33 5.1-3.33h-6.09c0 1.2.37 2.38.99 3.33l5.1-3.33h-6.09v.07h8l-8-.29-1.17 32.79v-.03l6.08.24-5.54-2.53c-.32.71-.52 1.5-.55 2.29l6.08.24-5.54-2.53 5.54 2.53-3.33-5.09c-.95.63-1.71 1.5-2.2 2.56l5.54 2.53-3.33-5.09 3.34 5.1v-6.1c-1.21 0-2.39.37-3.34 1l3.34 5.1v1.9l.28-8h-.07.01l-.22 6.08 2.53-5.54c-.71-.33-1.51-.52-2.3-.55l-.22 6.08 2.53-5.54-2.53 5.54 5.1-3.33c-.62-.96-1.5-1.73-2.57-2.22l-2.53 5.54 5.1-3.33-5.1 3.32h6.09c0-1.2-.36-2.37-.99-3.32l-5.1 3.32h6.09-7.46l7.45.44s.01-.19.01-.44h-7.46l7.45.44-5.75-.34 5.74.36v-.02l-5.74-.34 5.74.36v-.15l1.17-32.87-5.71-.2 5.37 1.94c.21-.59.32-1.16.34-1.74l-5.71-.2 5.37 1.94-5.79-2.09 3.83 4.8a6.218 6.218 0 0 0 1.96-2.71l-5.79-2.09 3.83 4.8-4.04-5.07 2.16 6.11a6.7 6.7 0 0 0 1.88-1.04l-4.04-5.07 2.16 6.11-2.14-6.04v6.41c.68 0 1.44-.12 2.14-.37l-2.14-6.04v6.41-6.12l-.96 6.05c.27.04.58.07.96.07v-6.12l-.96 6.05.49.08.49.02.27-8Z" fill="#eaa040" data-color="1"/>
        <path d="M1183.48 811.18h-.07c-1.02 0-1.87.81-1.91 1.84l-1.18 32.78c-.04 1.05.78 1.93 1.84 1.97h.07c1.02 0 1.87-.81 1.91-1.84l1.18-32.78c.04-1.05-.78-1.93-1.84-1.97Z" fill="#eaa040" data-color="1"/>
        <path d="m1183.48 811.18.28-8h-.35c-1.31 0-2.6.26-3.77.74a9.89 9.89 0 0 0-4.31 3.43 9.877 9.877 0 0 0-1.82 5.36v.02l-1.18 32.78v-.08l6.9.31-6.89-.41v.1l6.89.31-6.89-.41 1.88.11-1.88-.11 1.88.11-1.88-.11s-.01.19-.02.53c0 1.31.26 2.59.74 3.76a9.94 9.94 0 0 0 3.42 4.31 9.887 9.887 0 0 0 5.36 1.83h.39c1.31 0 2.6-.26 3.77-.74a9.89 9.89 0 0 0 4.31-3.43 9.872 9.872 0 0 0 1.82-5.35v-.02l1.18-32.92v-.22c0-1.31-.26-2.6-.74-3.76a9.94 9.94 0 0 0-3.42-4.31 9.93 9.93 0 0 0-5.39-1.83l-.28 8-.28 7.99.21-6.11-2.53 5.56c.71.33 1.51.52 2.32.55l.21-6.11-2.53 5.56 2.53-5.54-5.1 3.33c.62.95 1.5 1.72 2.57 2.21l2.53-5.54-5.1 3.33 5.1-3.33h-6.09c0 1.21.37 2.39.99 3.33l5.1-3.33h-6.09v.07h8l-8-.29-1.18 32.78v-.02l6.08.24-5.53-2.52c-.32.71-.51 1.49-.54 2.29l6.08.24-5.53-2.52 5.54 2.52-3.33-5.09c-.96.63-1.72 1.51-2.2 2.57l5.54 2.52-3.33-5.09 3.34 5.1v-6.1c-1.21 0-2.39.37-3.34 1l3.34 5.1v-6.1h-.07v8l.32-7.99-.24 6.07 2.53-5.53c-.71-.32-1.5-.52-2.29-.55l-.24 6.07 2.53-5.53-2.53 5.53 5.1-3.32c-.62-.95-1.5-1.72-2.56-2.21l-2.53 5.53 5.1-3.32-5.1 3.33h6.09c0-1.2-.37-2.38-.99-3.33l-5.1 3.33h-1.35l7.43.42s.01-.19.01-.42h-7.44l7.43.42-5.66-.32 5.66.34v-.02l-5.66-.32 5.66.34v-.14l1.18-32.86v.02l-6.08-.23 5.54 2.52c.32-.71.52-1.5.54-2.29l-6.08-.23 5.54 2.52-5.54-2.52 3.33 5.09c.96-.63 1.72-1.51 2.2-2.57l-5.54-2.52 3.33 5.09-3.34-5.1v6.1c1.21 0 2.39-.37 3.34-1l-3.34-5.1v6.1-8l-.28 7.99h.07l.28-7.99Z" fill="#eaa040" data-color="1"/>
        <path d="M1226.26 812.71c-1.1-.1-1.97.68-2.07 1.72l-3.03 32.72c-.1 1.05.67 1.98 1.72 2.07h.18c.98 0 1.81-.73 1.9-1.72l3.03-32.72c.1-1.05-.67-1.98-1.72-2.07Z" fill="#eaa040" data-color="1"/>
        <path d="m1226.26 812.71.72-7.97c-.26-.02-.56-.04-.91-.04-1.24 0-2.49.23-3.64.69a9.893 9.893 0 0 0-4.31 3.31 9.941 9.941 0 0 0-1.9 5.02v-.03l-3.03 32.72v-.03c0 .14-.04.45-.04.95a9.897 9.897 0 0 0 5.41 8.82c1.09.56 2.31.92 3.57 1.03l.21.02.38.02h.32c2.53 0 4.9-.97 6.66-2.57.88-.8 1.63-1.77 2.18-2.86.55-1.09.91-2.32 1.03-3.58v.02l3.03-32.72v-.11c.03-.31.04-.58.04-.82 0-2.54-.97-4.9-2.57-6.65-.8-.88-1.76-1.62-2.85-2.18-1.09-.55-2.31-.91-3.58-1.03l-.72 7.97-.73 7.97.55-6.08-2.76 5.44c.67.34 1.43.57 2.21.63l.55-6.08-2.76 5.44 2.76-5.44-5.17 3.22c.58.93 1.4 1.7 2.42 2.21l2.76-5.44-5.17 3.22 5.18-3.23h-6.1c0 1.17.34 2.3.92 3.23l5.18-3.23h-6.1 5.69l-5.67-.45c-.01.19-.02.34-.02.45h5.69l-5.67-.45 7.98.63-7.97-.74-3.03 32.72v.02l6.08.55-5.45-2.76c-.34.68-.57 1.44-.63 2.21l6.08.55-5.45-2.76 5.44 2.75-3.22-5.18c-.93.58-1.71 1.41-2.22 2.43l5.44 2.75-3.22-5.18 3.22 5.18v-6.09c-1.16 0-2.29.34-3.22.92l3.22 5.18v1.91l.33-7.99h-.18l-.33 7.99.75-7.97-.57 6.07 2.77-5.43c-.67-.34-1.43-.57-2.2-.64l-.57 6.07 2.77-5.43-2.76 5.43 5.18-3.21c-.58-.93-1.4-1.7-2.41-2.22l-2.76 5.43 5.18-3.21-5.18 3.22h6.1c0-1.16-.34-2.29-.92-3.22l-5.18 3.22h6.1-6.12l6.1.59s.03-.21.03-.59h-6.12l6.1.59v-.03l3.04-32.72v-.03l-6.07-.54 4.15 4.45a6.09 6.09 0 0 0 1.92-3.91l-6.07-.54 4.15 4.45-4.2-4.51 2.26 5.73c.72-.28 1.38-.71 1.94-1.22l-4.2-4.51 2.26 5.73-2.23-5.65v6.07c.73 0 1.51-.14 2.23-.43l-2.23-5.65v6.07-5.91l-.54 5.88c.13.01.3.02.54.02v-5.91l-.54 5.88.72-7.97Z" fill="#eaa040" data-color="1"/>
        <path d="M1288.6 851.58h.16c.98 0 1.82-.74 1.9-1.74.33-3.89.66-8.96.99-14.03.32-4.96.64-9.9.96-13.71.08-1.05-.69-1.97-1.74-2.06-1.11-.09-1.97.69-2.06 1.74-.32 3.83-.65 8.8-.97 13.79-.32 5.03-.65 10.08-.98 13.95-.09 1.05.69 1.97 1.74 2.06Z" fill="#eaa040" data-color="1"/>
        <path d="m1288.6 851.58-.36 7.99h.16l.17.02h.19c2.54 0 4.92-.98 6.68-2.59.88-.81 1.63-1.78 2.18-2.88.55-1.1.91-2.33 1.01-3.6.34-4.02.67-9.11 1-14.18.32-4.95.64-9.87.95-13.55v-.17.08c.02-.24.03-.49.03-.74 0-2.54-.98-4.92-2.59-6.68a9.746 9.746 0 0 0-2.89-2.18 9.86 9.86 0 0 0-3.62-1.01h.02c-.23-.02-.5-.03-.84-.03-1.24 0-2.5.23-3.65.69a9.792 9.792 0 0 0-4.33 3.35 9.96 9.96 0 0 0-1.88 5.04c-.33 3.95-.66 8.95-.98 13.94-.32 5.03-.65 10.05-.97 13.78v-.03c0 .15-.04.43-.04.87 0 2.55.99 4.93 2.6 6.68a9.883 9.883 0 0 0 6.46 3.18l.17.02h.16l.36-7.98.69-7.97-.53 6.06 4.49-4.11a6.145 6.145 0 0 0-3.96-1.96l-.53 6.06 4.49-4.11-4.5 4.12h6.1c0-1.57-.61-3.05-1.6-4.12l-4.5 4.12h-.08l6.15.55s.02-.21.02-.55h-6.18l6.15.55v-.03c.35-4.01.67-9.08 1-14.12.32-4.97.64-9.92.96-13.63l-6.07-.51 4.16 4.43c1.13-1.05 1.8-2.51 1.91-3.92l-6.07-.51 4.16 4.43-4.22-4.5 2.27 5.74c.72-.29 1.39-.71 1.96-1.24l-4.22-4.5 2.27 5.74-2.22-5.63v6.05c.72 0 1.5-.14 2.22-.42l-2.22-5.63v6.05-5.92l-.49 5.9c.11 0 .27.02.49.02v-5.92l-.49 5.9h.02l.49-6.08-2.73 5.46c.68.34 1.46.56 2.24.63l.49-6.09-2.73 5.46 2.72-5.45-5.17 3.23c.58.94 1.42 1.71 2.45 2.22l2.72-5.45-5.17 3.23 5.17-3.22h-6.09c0 1.16.34 2.29.92 3.22l5.17-3.22h-6.09 5.84l-5.83-.43c0 .14-.02.28-.01.43h5.84l-5.83-.43 7.98.59-7.97-.68c-.33 3.93-.66 8.91-.97 13.87-.33 5.05-.66 10.1-.98 13.87l6.08.51-5.45-2.73a6.08 6.08 0 0 0-.62 2.22l6.08.51-5.45-2.73 5.45 2.73-3.23-5.17a6.02 6.02 0 0 0-2.22 2.44l5.45 2.73-3.23-5.17 3.23 5.17v-6.09c-1.16 0-2.29.34-3.23.92l3.23 5.17v1.91l.36-7.99h-.16l-.36 7.98.69-7.97-.69 7.97Z" fill="#eaa040" data-color="1"/>
        <path d="M1649.7 1058.06c-22-76.43-84.8-141.76-167.98-174.76-57.81-22.93-119.28-25.41-171.86-21.51 2.83-3.98 5.99-14.89 11.19-43.79 23.18-129.06 67.08-518.94 85.43-698.99 2.46-24.1 6.56-65.26 6.45-70.19-.13-5.73-4.5-10.91-12.98-15.38-60.06-31.68-322.18-34.61-369.04-4.12-6.26 4.07-9.24 8.83-8.88 14.15.5 7.29 1.51 32.43 2.88 67.15l.36 9.42c.9 22.82 1.96 49.75 3.18 79.5-35.89.05-72.81.48-107.42 1.25-.15-27.02-.32-51.68-.46-73.02l-.1-14.72c-.23-34.78-.39-59.96-.23-67.24.12-5.33-3.09-9.94-9.53-13.72C862.49 3.8 600.78 18.81 542.25 53.23c-8.26 4.86-12.38 10.22-12.25 15.96.1 4.64 5.32 40.53 9.68 69.82 26.65 179.07 88.48 566.51 117.58 694.3 9.18 40.32 12.7 45.23 16.71 45.23.37 0 .74-.04 1.12-.1 9.32-1.45 26.8-3.29 51.8-5.45l2.58 14.51c-7.87 2.51-10.74 4.96-13.52 7.84-13.75 14.21-36.75 19.58-54.67 12.77-21.06-8-37.45-28.71-50.69-47.91a581.413 581.413 0 0 1-61.83-115.71c-8.01-20.2-15.11-41.49-21.99-62.12-11.52-34.53-23.42-70.24-40.47-103.96-19.61-38.81-63.84-106.77-139.71-125.97-89.53-22.67-175.86 33.92-226.82 94.44-105.62 125.45-138.9 321.04-89.04 523.21 28.15 114.1 74.62 207.36 138.1 277.18 91.97 101.16 234.33 161.55 380.8 161.54 28.09 0 56.15-2.26 83.4-6.7 86.85-14.17 168.36-48.64 247.19-81.98 68.81-29.1 139.96-59.19 212.89-74.65 72.76-15.42 149.59-16.78 223.9-18.08 34.65-.61 70.49-1.24 105.85-3.27 50.55-2.9 103.43-9.49 147.8-37.74 70.88-45.15 104.12-141.17 79.04-228.32Zm-345.33-201.92c-10.34-1.03-28.57-2.05-54.23-3.05-42.7-1.66-98.13-2.96-137.12-3.76l-27.91-.55c-1.17-1.18-5.15-7.55-10.31-41.35 75.19-2.86 142.16 1.73 188.9 6.75-.65.22-1.14.76-1.26 1.48-1.63 9.9-2.48 22.58-2.21 33.11a1.9 1.9 0 0 0 1.91 1.86c1.1-.03 1.93-.9 1.91-1.95-.26-10.3.57-22.72 2.16-32.39.13-.78-.23-1.52-.86-1.92 19.94 2.17 36.12 4.4 47.51 6.13-4.65 25.31-7.29 33.2-8.47 35.65Zm-8.99 6.89c-15.42 1.51-29.86 3.47-43.07 5.52l1.01-7.71c18 .72 32.1 1.46 42.07 2.19Zm-49.72-2.49-1.07 8.17c-30.01-7.98-94.5-9.22-127.55-2.51l-.21-9.17c37.41.77 88.23 1.98 128.83 3.51Zm-152.23 36.03c2.68 7.53 9.27 12.81 17.02 14l.16 7.14c-30.88 1.56-33.82 4.86-35.22 6.48-10.72 12.4-4.83 54.56 2.42 62.83 6.62 7.56 110.2 15.73 165.2 15.73 10.03 0 18.46-.27 24.37-.87 10.21-1.03 15.11-2.75 16.92-5.92 7.24-12.69 6.07-37.3 5.29-53.58l-.2-4.48c-.23-5.45-5.92-11.11-44.07-15.71l1.2-9.19c.84-.03 1.68-.07 2.48-.21 57.54-9.53 142.62-18.79 216.79 10.64 70.84 28.1 124.07 82.89 142.4 146.56 19.58 68.05-6.53 145.41-60.74 179.94-36.02 22.94-82.37 28.49-127.08 31.06-34.51 1.98-69.9 2.61-104.19 3.21-76.33 1.35-155.25 2.74-232.03 19.02-76.98 16.31-150.07 47.23-220.79 77.14-76.48 32.34-155.57 65.79-237.29 79.12-157.02 25.61-323.96-29.83-425.28-141.27-58.6-64.45-101.71-151.42-128.12-258.48-46.58-188.8-16.61-370.13 80.15-485.04 42.52-50.51 112.96-98.15 183.18-80.39 59.28 15 95.46 71.34 111.76 103.58 15.62 30.9 26.51 63.56 38.06 98.19 7.05 21.15 14.34 43.01 22.79 64.33a624.782 624.782 0 0 0 66.43 124.32c17.02 24.67 38.76 51.54 70.89 63.76 14.73 5.6 30.93 6.93 46.67 4.49 0 .18-.04.37-.03.55l.08 4.46c.23 16.31.58 40.95 8.63 53.18 2 3.04 7 4.45 17.25 4.85 1.5.06 3.16.09 4.96.09 44.65 0 177.27-17.57 184.31-26.63 6.76-8.71 10.05-51.16-1.46-62.87-1.47-1.5-4.5-4.5-34.29-4.29l-.17-7.45c7.42-2.51 13.03-8.89 14.37-16.73 1.88-10.93-4.9-21.28-15.31-24.29l-.26-11.47 24.73-1.62c5.17-.34 10.62-4.69 15.38-52.82 2.03-20.44 3.8-47.8 5.26-81.22 6.34-.06 12.75-.14 19.22-.23.42 22.78 1.34 58.73 3.11 70.97 1.82 12.58 32.43 14.54 51.26 14.54 2.6 0 4.97-.04 7.02-.09 13.74-.35 58.66-2.62 60.02-17.2 1.05-11.34-.29-48.06-1.31-71.44l2.25-.09c3.01 33.42 6.05 60.75 9.03 81.15 6.98 47.86 12.63 51.96 17.8 52.05l24.78.48.26 11.14c-1.05.31-2.04.63-2.96.96-11.21 4-17.08 16.39-13.07 27.6Zm147.18 32.73c36.91 4.14 40.94 8.88 41.16 8.92l.2 4.52c.68 14.46 1.83 38.68-4.06 49.13-11.47 9.74-180.7-2.83-194.59-10.14-5.09-6.65-10.23-43.24-2.33-52.4.4-.3 4.74-2.96 33.67-4.19 37.3-1.59 90.27.16 125.94 4.16Zm-122.54-18.89c1.03-.19 2.02-.44 2.97-.78 23.97-8.57 98.15-4.09 113.54.5 1.36.79 2.83 1.38 4.38 1.85l-1.22 9.34c-34.66-3.63-83.44-5.23-119.51-3.96l-.16-6.97ZM742.9 941.57c36.01-6.13 88.78-11.01 125.47-11.6 27.84-.49 32.27 1.86 32.51 1.98 8.65 8.8 5.76 45.63 1.08 52.58-13.46 8.17-182.47 31.21-194.33 22.45-6.82-10.37-7.17-34.61-7.38-49.1l-.07-4.15c.8-1.03 6.39-5.96 42.72-12.15Zm-7.24-6.45c.66-.49 1.34-.95 2-1.45l.19 1.06c-.73.13-1.48.26-2.18.39Zm8.74-7.06c18.92-5.58 105.64-12.96 117.6-12.18.73.1 1.5.1 2.26.12l.15 6.43c-35.52.83-84.12 5.33-119.05 11.02l-.96-5.38Zm177.08-591.83c36.65-.73 75.38-1.81 112.64-3.13 4.03 89.4 8.13 168.32 12.18 234.72-42.87-.04-86.31.53-126.14 1.72.97-66.18 1.41-144.62 1.32-233.32Zm126.24 387.32c.87 19.99 2.37 59.25 1.33 70.42-1.51 5.43-37.68 12.25-73.48 9.96-21.8-1.4-29.42-5.7-29.68-7.56-1.75-12.15-2.67-50.46-3.03-70 33.89-.54 69.93-1.51 104.86-2.82ZM968.7 576.04c13.68-.23 27.56-.39 41.5-.49l9.81 141.33c-16.55.53-33.13.97-49.46 1.33l-1.85-142.17Zm55.13 140.73-9.8-141.24c12.1-.08 24.24-.1 36.32-.08 117.55.29 185.44 5.2 191.69 9.88 16.23 14.5 15.26 99.51 2.59 114.43-5.62 4.21-65.51 10.91-183.72 15.67l-9.69.38c-9.06.34-18.22.67-27.39.97Zm-58.94-140.66 1.85 142.2c-9.4.2-18.7.37-27.82.51-8.98.13-17.85.24-26.58.32-114.39 1-160.91-3.49-166.28-8.02-20.36-17.18-10.64-94.75-4.98-115.73.86-1.32 13.12-13.05 175.33-18.11 15.65-.49 31.9-.88 48.47-1.17Zm349.29 236.87c-38.33-5.84-130.79-17.37-240.49-13.14-2.79-19.79-5.64-45.63-8.47-76.97 67.55-2.78 177.1-8.69 185.03-18 13.58-15.96 17.25-107.03-3.13-125.24-11.49-10.26-146.3-11.64-193.18-11.8-4.05-66.44-8.16-145.46-12.2-235 88.25-3.22 192.81-8.46 199.41-15.37 7.35-7.7 9.8-33.41 9.66-53.09-.07-10.22-1.16-44.38-12.15-54.88-9.6-9.16-152.98-9.98-202.61-9.97-1.21-29.87-2.28-56.89-3.18-79.78l-.24-5.99c177.33-27.99 304.15-7.63 365.91 7.77-18.36 179.68-61.2 559.89-84.36 691.47ZM1035.05 35.72c44.3-28.82 304.32-25.61 361.33 4.47 5.68 3 8.85 6.13 8.91 8.81.03 1.19-.33 9.39-5.96 64.86-39.97-9.88-106.21-21.65-194.95-21.65-50.33 0-107.93 3.79-172.04 13.86-1.29-32.58-2.23-56.03-2.72-63.11-.16-2.35 1.67-4.79 5.43-7.24Zm-2.65 171.44c123.46-.17 194.66 3.96 201 7.86 5.69 5.43 9.63 25.29 9.79 49.41.18 25.23-3.61 43.12-7.34 47.53-6.92 3.28-71.48 8.84-198.23 13.4-13.54.49-27.32.93-41.13 1.35l-8.29-119.32c14.78-.13 29.58-.23 44.19-.24Zm-48.01.27 8.29 119.4c-9.18.28-18.33.53-27.48.77l-1.56-119.93c6.9-.09 13.79-.17 20.75-.24Zm-67.08 1.07c13.83-.32 28.11-.56 42.52-.77l1.56 119.97c-14.79.38-29.49.73-43.8 1.01-147.73 2.88-206.92-.55-212.58-4.25-13.65-13.03-7.89-77.48-1.55-98.31 5-5.99 63.99-14.21 213.85-17.64ZM537.61 69.03c-.06-2.68 2.95-5.96 8.49-9.21 35.79-21.05 156.3-34.85 249.68-34.85 51.54 0 94.83 4.21 111.05 13.72 3.88 2.27 5.82 4.62 5.77 6.98-.15 7.08-.02 30.55.2 63.17-178.2-19.61-304.37 6.36-366.24 24.71-8.19-55.21-8.92-63.34-8.95-64.52Zm10.09 72.14c60.98-18.24 186.73-44.42 365.15-24.64l.07 11.32c.14 21.37.31 46.06.47 73.13-211.58 5.01-215.68 18.19-217.02 22.54-4.86 15.79-15.56 88.36 3.38 106.45 5.22 4.98 44.86 7.48 118.2 7.48 27.3 0 59.32-.35 95.92-1.04.09 88.75-.36 167.22-1.33 233.4-173.81 5.61-177.4 18.51-178.72 23.4-3.24 11.92-19.35 101.25 7.33 123.76 7.85 6.62 54.55 9.96 138.98 9.96 8.97 0 18.44-.04 28.26-.12-1.38 31.31-3.02 57.16-4.9 76.99-109.76.82-201.6 16.6-239.63 24.21-29.2-130.32-89.54-508.17-116.17-686.83Zm127.96 729.49c-1.29-2.39-4.29-10.15-10.11-35.22 37.82-7.55 128.61-23.14 237.19-24.03-3.6 34.01-7.28 40.56-8.39 41.79l-27.85 1.83c-39 2.6-94.4 6.46-136.81 10.08-25.57 2.18-43.73 4.04-54.04 5.55Zm187.61 2.17c-17.72-.49-62.24 3.81-67.75 4.35-27.11 2.71-46.35 5.45-58.67 8.35l-2.34-13.17c40.34-3.39 91.13-6.95 128.54-9.45l.23 9.92Zm703.28 407.13c-42.89 27.32-94.62 33.72-144.13 36.56-35.22 2.02-70.97 2.65-105.55 3.26-74.66 1.31-151.87 2.68-225.34 18.25-73.65 15.61-145.14 45.85-214.28 75.09-78.41 33.17-159.5 67.46-245.45 81.48-26.85 4.38-54.5 6.6-82.17 6.6-144.36 0-284.6-59.45-375.16-159.05-62.62-68.88-108.49-161.02-136.33-273.88-49.29-199.81-16.58-392.89 87.47-516.47 49.48-58.75 133.02-113.77 219.12-91.96 72.94 18.46 115.75 84.37 134.78 122.02 16.79 33.22 28.6 68.66 40.05 102.98 6.9 20.68 14.03 42.07 22.12 62.47a589.318 589.318 0 0 0 62.64 117.23c13.91 20.17 31.24 41.96 54.26 50.71 20.64 7.84 47.08 1.71 62.86-14.6 2.1-2.18 4.09-4.23 13.39-6.77 11.56-3.16 31.66-6.14 61.49-9.13 21.45-2.1 60.41-5.32 70.39-4.1l.62.08c7.59 1.3 12.71 8.54 11.41 16.14-.99 5.76-5.56 10.31-11.39 11.33-1.6.28-2.99.33-4.56.12h-.18c-.17-.07-.33-.02-.5-.02-15.04-.59-103.46 6.96-121.08 12.86-.54.18-1.03.48-1.44.88-.33.32-.67.62-1.02.92l-.87.77c-23.95 21.71-59.74 28.81-89.05 17.66-30.19-11.47-50.97-37.25-67.33-60.96a617.667 617.667 0 0 1-65.62-122.8c-8.37-21.12-15.63-42.88-22.66-63.98-11.62-34.85-22.6-67.77-38.47-99.17-16.88-33.4-54.48-91.79-116.69-107.53-73.63-18.64-146.87 30.6-190.88 82.87C48.68 686.59 18.13 870.43 65.28 1061.6c26.72 108.3 70.42 196.38 129.88 261.78 86.32 94.95 219.44 149.93 354.19 149.93 26.03 0 52.13-2.05 77.96-6.27 82.62-13.48 162.13-47.11 239.07-79.64 70.35-29.75 143.1-60.52 219.36-76.68 76.07-16.12 154.62-17.51 230.65-18.85 34.3-.6 69.77-1.23 104.43-3.22 45.74-2.63 93.24-8.35 130.74-32.24 56.95-36.27 84.45-117.3 63.97-188.48-18.98-65.92-73.9-122.57-146.92-151.54-75.94-30.13-162.41-20.75-220.84-11.07-1.23.2-2.57.2-4.08 0-2.08-.27-3.94-.91-5.54-1.89-.26-.16-.54-.29-.83-.39-15.45-4.96-92.89-9.83-118.84-.54-1.27.45-2.7.69-4.37.73-6.02.1-11.47-3.56-13.49-9.19-1.26-3.52-1.07-7.31.53-10.68s4.41-5.92 7.93-7.18c1.54-.55 3.28-1.07 5.21-1.55 30.81-7.72 103.27-6.45 131.41 2.3.3.09.73.13 1.16.13.35 0 .7-.03.95-.07l.69-.11c60.01-9.62 149.2-18.7 230.43 13.52 81 32.14 142.11 95.61 163.46 169.79 24.17 83.97-7.72 176.4-75.82 219.78Z" fill="#eaa040" data-color="1"/>
        <path d="m1649.7 1058.06 7.69-2.21c-11.39-39.58-33.3-76.13-62.97-107-29.67-30.87-67.12-56.07-109.75-72.99-45.1-17.88-92.08-23.58-135.36-23.58-13.78 0-27.18.58-40.04 1.53l.59 7.98 6.52 4.64c1.29-1.84 2.24-3.82 3.17-6.25 1.38-3.64 2.7-8.32 4.22-14.88 1.51-6.55 3.19-14.97 5.15-25.88 5.84-32.51 12.93-81.13 20.6-138.7 23.01-172.7 51.14-425.76 64.91-560.89 1.21-11.9 2.83-27.96 4.14-41.79.66-6.92 1.24-13.27 1.66-18.3.21-2.51.38-4.69.5-6.47.06-.89.11-1.67.14-2.37.03-.7.05-1.28.05-1.87v-.4c-.05-2.42-.58-4.83-1.49-7.05-1.38-3.34-3.58-6.22-6.25-8.69-2.68-2.48-5.85-4.6-9.5-6.52-4.51-2.38-9.74-4.48-15.66-6.42-10.35-3.39-22.8-6.28-36.89-8.77-21.12-3.72-45.9-6.51-72.27-8.37C1252.49.94 1224.54 0 1197.13 0c-37.31 0-73.58 1.74-103.56 5.33-14.99 1.8-28.41 4.05-39.7 6.83-5.65 1.4-10.76 2.92-15.32 4.63-4.56 1.71-8.55 3.59-12 5.83-3.62 2.36-6.69 5.1-8.96 8.47a21.491 21.491 0 0 0-2.66 5.47c-.62 1.95-.93 4-.93 6.05 0 .45.01.93.05 1.45v-.05c.11 1.7.27 4.62.45 8.52.56 11.71 1.38 32.37 2.41 58.41s.36 9.41.36 9.41c.9 22.83 1.96 49.76 3.18 79.52l7.99-.33v-8c-35.96.05-72.93.48-107.6 1.25l.18 8 8-.05c-.15-27.02-.32-51.69-.46-73.03l-.1-14.72c-.17-24.86-.3-44.82-.3-56.79 0-4.77.02-8.29.07-10.21v-.48c0-2.12-.33-4.26-1-6.28-1-3.04-2.72-5.77-4.86-8.08-2.15-2.32-4.72-4.27-7.62-5.98-2.73-1.6-5.78-2.97-9.14-4.2-5.89-2.15-12.8-3.9-20.64-5.38-11.76-2.21-25.64-3.79-41.06-4.83-15.42-1.04-32.37-1.53-50.18-1.53-47.63 0-101.44 3.53-148.25 9.84-23.41 3.16-45.06 7-63.39 11.5-9.17 2.25-17.51 4.66-24.86 7.26-7.36 2.6-13.72 5.37-19.02 8.49-4.66 2.75-8.51 5.79-11.43 9.5-1.45 1.86-2.65 3.9-3.49 6.11a19.49 19.49 0 0 0-1.28 6.98c0 .09 0 .33.02.7l7.99-.44-8 .18c.01.6.05 1.11.1 1.73.1 1.15.25 2.58.47 4.35.74 6.16 2.13 16.28 3.8 27.94 1.67 11.65 3.6 24.78 5.39 36.8 13.33 89.59 35.46 231.24 57.89 366.51 11.22 67.63 22.51 133.67 32.83 190.82 10.32 57.15 19.64 105.38 26.97 137.57 2.31 10.15 4.28 18.12 6 24.41 1.3 4.73 2.46 8.52 3.57 11.63.83 2.34 1.63 4.29 2.47 6.01.63 1.29 1.29 2.45 2.05 3.54.57.81 1.2 1.59 1.95 2.32 1.1 1.09 2.51 2.08 4.06 2.7 1.55.63 3.15.84 4.4.83.95 0 1.73-.1 2.35-.19 4.43-.69 11.04-1.51 19.63-2.41 8.59-.9 19.17-1.9 31.63-2.98l-.69-7.97-7.88 1.4 2.58 14.51 7.88-1.4-2.43-7.62c-2.19.7-4.12 1.42-5.85 2.19-2.59 1.14-4.76 2.42-6.58 3.77-1.82 1.35-3.24 2.74-4.4 3.94-4.02 4.16-9.12 7.5-14.73 9.78-5.61 2.28-11.7 3.49-17.59 3.49-4.84 0-9.54-.81-13.76-2.41-4.51-1.72-8.89-4.16-13.13-7.19-6.36-4.55-12.4-10.44-18.04-16.98-5.65-6.54-10.9-13.73-15.78-20.8a573.268 573.268 0 0 1-60.97-114.12c-7.9-19.92-14.96-41.07-21.83-61.7-11.52-34.53-23.53-70.62-40.92-105.04-10.06-19.88-26.36-47.2-50.09-72.23-11.87-12.51-25.6-24.45-41.36-34.54-15.76-10.09-33.55-18.31-53.43-23.34a174.28 174.28 0 0 0-43.07-5.35c-19.43 0-38.41 3.17-56.6 8.7-27.29 8.31-52.81 21.94-75.65 38.36-22.84 16.43-43 35.66-59.57 55.33-37.39 44.4-65.8 97.32-84.87 155.97C9.72 756.35 0 820.74 0 888.21c0 59.48 7.55 121.35 22.96 183.8 14.2 57.55 33.04 109.95 56.41 156.85 23.37 46.9 51.26 88.3 83.54 123.8 46.84 51.51 106.37 92.53 172.75 120.69 66.38 28.16 139.62 43.47 213.97 43.47 28.51 0 57-2.29 84.69-6.81 88.11-14.39 170.19-49.19 249.02-82.51 68.8-29.11 139.53-58.96 211.43-74.19 71.74-15.22 148.08-16.62 222.38-17.91 34.65-.61 70.59-1.24 106.17-3.29 25.46-1.46 51.74-3.86 77.48-9.54 25.74-5.69 50.98-14.69 74.15-29.44 28.82-18.36 51.59-44.66 67.13-75.16 15.55-30.51 23.92-65.24 23.92-100.7 0-20.46-2.79-41.16-8.62-61.41l-7.69 2.21-7.69 2.21c5.4 18.77 7.99 37.98 7.99 56.99 0 32.94-7.8 65.24-22.17 93.43-14.38 28.2-35.29 52.26-61.47 68.94-21.2 13.5-44.58 21.92-69.01 27.31-24.42 5.4-49.86 7.75-74.95 9.19-35.15 2.02-70.88 2.65-105.53 3.26-74.31 1.32-151.63 2.63-225.42 18.26-73.95 15.69-145.53 46.02-214.34 75.11-78.82 33.36-159.76 67.51-245.36 81.46-26.82 4.38-54.46 6.6-82.11 6.6-72.14 0-143.31-14.88-207.72-42.2s-122.03-67.08-167.16-116.72c-31.2-34.32-58.28-74.46-81.06-120.17-22.78-45.71-41.24-97-55.19-153.55C23.39 1006.94 16 946.34 16 888.22c0-65.93 9.51-128.67 28-185.56 18.5-56.9 45.97-107.94 81.89-150.61 21-24.95 48.26-49.27 79.08-67.21 15.41-8.97 31.71-16.36 48.56-21.49 16.86-5.13 34.26-8.01 51.94-8.01 12.91 0 25.98 1.53 39.14 4.87 18.06 4.57 34.24 12.04 48.73 21.31 21.72 13.9 39.6 31.89 53.83 50 14.23 18.11 24.8 36.32 31.97 50.51 16.7 33.03 28.51 68.35 40.02 102.88 6.88 20.63 14.02 42.05 22.14 62.54a589.593 589.593 0 0 0 62.68 117.31c6.74 9.76 14.38 20.09 23.28 29.2 4.45 4.55 9.23 8.81 14.4 12.51 5.17 3.7 10.74 6.85 16.76 9.14 6.22 2.36 12.83 3.46 19.44 3.46 8.04 0 16.11-1.61 23.62-4.66 7.5-3.05 14.47-7.56 20.2-13.48.61-.64 1.13-1.14 1.65-1.58.78-.66 1.56-1.23 2.85-1.92 1.29-.68 3.09-1.45 5.7-2.28l6.67-2.13-5.09-28.61-7.28.63c-12.53 1.08-23.2 2.09-31.93 3.01-8.74.92-15.52 1.75-20.42 2.51h-.07l-.01.01.19 1.89v-1.89h-.19l.19 1.89v2l.71-3.82c-.3-.06-.55-.07-.71-.07v3.89l.71-3.82-.79 4.24 2.44-3.57c-.39-.28-1.09-.58-1.65-.67l-.79 4.24 2.44-3.57-1.66 2.43 2.03-2.14a2.5 2.5 0 0 0-.37-.29l-1.66 2.43 2.03-2.14-1 1.05 1.06-.98-.07-.07-1 1.05 1.06-.98-.35.32.36-.31-.35.31.36-.31-.02-.03c-.12-.14-.68-.99-1.37-2.6-1.06-2.42-2.47-6.51-4.17-12.6-1.71-6.1-3.72-14.22-6.15-24.88-7.22-31.71-16.54-79.83-26.83-136.86-30.89-171.12-70.67-422.62-90.64-556.84-2.18-14.63-4.57-30.92-6.42-44.09-.93-6.59-1.72-12.4-2.29-16.82-.28-2.21-.51-4.07-.66-5.47-.08-.7-.13-1.29-.17-1.72-.02-.22-.03-.4-.04-.53v-.46l-4.8.26 4.8-.07v-.2l-4.79.26 4.8-.07-1.73.02h1.73v-.02l-1.73.02h1.73v-.04c0-.43.07-.82.26-1.33.28-.76.91-1.83 2.22-3.13 1.29-1.3 3.23-2.8 5.83-4.33 4.02-2.37 9.55-4.83 16.24-7.19 11.73-4.15 27.01-8.02 44.52-11.42 26.27-5.11 57.59-9.18 89.99-11.97 32.41-2.79 65.92-4.29 96.66-4.29 26.69 0 51.3 1.14 71.17 3.51 9.93 1.18 18.67 2.68 25.8 4.44 3.57.88 6.73 1.83 9.42 2.81 2.69.98 4.9 2.01 6.54 2.97 2.46 1.44 3.92 2.84 4.66 3.89.38.53.59.97.72 1.38.13.41.2.79.2 1.27v.12-.03c-.05 2.23-.07 5.77-.07 10.59 0 12.07.13 32.03.3 56.89l.1 14.72c.14 21.33.31 45.99.46 73.01l.04 8.13 8.13-.18c34.55-.77 71.42-1.19 107.26-1.25h8.32l-.34-8.33c-1.22-29.75-2.27-56.67-3.18-79.49s-.36-9.41-.36-9.41c-.68-17.37-1.28-32.34-1.77-43.9a2280 2280 0 0 0-.65-14.65c-.19-3.95-.34-6.91-.48-8.85v-.05c0-.06-.01-.15-.01-.27 0-.44.06-.81.19-1.22.19-.6.56-1.33 1.36-2.25.79-.92 2.01-2 3.73-3.11 2.08-1.36 5.1-2.84 8.9-4.26 6.64-2.5 15.6-4.82 26.21-6.8 15.92-2.98 35.56-5.24 57.22-6.73 21.67-1.5 45.37-2.24 69.52-2.24 41.21 0 83.74 2.17 119.7 6.39 17.98 2.11 34.32 4.74 47.95 7.82 6.82 1.54 12.96 3.2 18.26 4.94 5.3 1.74 9.76 3.57 13.18 5.37 3.62 1.9 6 3.82 7.24 5.3.63.74.98 1.36 1.18 1.86.2.5.28.89.29 1.33l8-.19h-8v.21c0 .14 0 .55-.04 1.09-.05 1.03-.15 2.58-.3 4.48-.51 6.67-1.53 17.74-2.68 29.52-1.14 11.79-2.41 24.33-3.4 34.08-9.17 89.97-24.73 232.43-40.88 368.48-8.08 68.03-16.31 134.46-23.96 191.91-7.65 57.45-14.74 105.96-20.49 137.99-2.57 14.33-4.64 24.14-6.34 30.62-.85 3.23-1.6 5.63-2.23 7.27-.62 1.64-1.13 2.51-1.26 2.67l-9.88 13.88 16.99-1.26c12.52-.93 25.53-1.49 38.86-1.49 41.9 0 86.85 5.55 129.46 22.46 40.55 16.09 76.09 40.05 104.12 69.21 28.03 29.16 48.52 63.49 59.12 100.34l7.69-2.21Zm-345.33-201.92.79-7.96c-5.36-.53-12.58-1.05-21.71-1.56-9.12-.51-20.13-1.02-33-1.52-42.8-1.67-98.26-2.97-137.27-3.76l-27.91-.55-.16 8 5.69-5.63-2.43 2.4 2.87-1.88s-.12-.2-.45-.53l-2.43 2.4 2.87-1.88-.06-.1c-.15-.26-.54-1.04-1.06-2.48-.79-2.15-1.87-5.76-3.14-11.38-1.26-5.62-2.71-13.25-4.28-23.5l-7.91 1.21.3 7.99c15.93-.61 31.5-.88 46.58-.88 55.61 0 104.62 3.66 141.16 7.59l.86-7.95-2.59-7.57a9.924 9.924 0 0 0-4.28 2.88 9.833 9.833 0 0 0-2.28 4.86v.02c-1.52 9.24-2.36 20.36-2.37 30.46 0 1.4.01 2.79.05 4.17v-.04c.03 1.33.33 2.63.85 3.79a9.854 9.854 0 0 0 3.6 4.24 9.965 9.965 0 0 0 5.46 1.64h.2c1.29-.03 2.57-.32 3.74-.82a9.904 9.904 0 0 0 4.3-3.59 9.808 9.808 0 0 0 1.66-5.49v-.14l-7.5.12 7.5.15v-.26l-7.5.12 7.5.15-7.86-.16 7.79 1.04c.05-.41.06-.7.07-.88l-7.86-.16 7.79 1.04.08-.63-.02-.63c-.03-1.19-.05-2.42-.05-3.67 0-8.97.79-19.28 2.1-27.22v-.06c.09-.53.13-1.05.13-1.55 0-1.73-.46-3.39-1.26-4.82-.8-1.43-1.95-2.65-3.36-3.55l-4.27 6.77-.86 7.95c19.82 2.15 35.89 4.37 47.17 6.09l1.2-7.91-7.87-1.45c-2.3 12.53-4.1 20.68-5.42 25.86-.66 2.59-1.2 4.44-1.62 5.69-.41 1.25-.7 1.92-.78 2.09l7.22 3.45.79-7.96-.79 7.96 7.22 3.45c.5-1.06.98-2.3 1.54-4 .84-2.55 1.83-6.15 3.08-11.54 1.24-5.38 2.73-12.53 4.49-22.11l1.49-8.12-8.16-1.24c-11.49-1.75-27.78-4-47.85-6.18l-34.4-3.73 29.26 18.45 3.25-5.16-5.32 2.97c.49.88 1.19 1.63 2.07 2.18l3.25-5.16-5.32 2.97 5.33-2.98h-6.11c0 1.07.28 2.1.77 2.98l5.33-2.98h-6.11 5.97l-5.89-.92c-.05.31-.07.63-.07.92h5.97l-5.89-.92v-.06c-1.47 9.04-2.3 19.93-2.3 29.82 0 1.38.02 2.75.05 4.08l8-.2-7.93-1.06c-.07.56-.07.91-.07 1.08v.14l7.21-.11h-7.21v.11l7.21-.11h-7.21 6.11l-5.63-2.35c-.31.73-.47 1.55-.47 2.35h6.11l-5.63-2.35 5.63 2.35-3.45-5.04a6.02 6.02 0 0 0-2.18 2.69l5.63 2.35-3.45-5.04 3.39 4.95-.15-6.01c-1.12.02-2.29.4-3.24 1.05l3.39 4.95-.15-6.01.2 8v-1.91l2.33-5.63c-.72-.3-1.53-.46-2.33-.46v6.09l2.33-5.63-2.33 5.63 4.99-3.49a6.073 6.073 0 0 0-2.66-2.14l-2.33 5.63 4.99-3.49-5 3.5 6.1-.14a6.17 6.17 0 0 0-1.1-3.35l-5 3.5 6.1-.14v-.04c-.03-1.2-.05-2.44-.05-3.72 0-9.18.81-19.73 2.15-27.86v.02l-6.04-1.01 4.62 4.01a6.23 6.23 0 0 0 1.42-3.01l-6.04-1.01 4.62 4.01-4.59-3.99 1.97 5.76c.98-.34 1.9-.94 2.62-1.77l-4.59-3.99 1.97 5.76 34.14-11.67-35.87-3.85c-37-3.97-86.56-7.68-142.87-7.68-15.27 0-31.04.27-47.18.89l-8.96.34 1.36 8.86c2.62 17.13 4.95 27.47 6.9 33.99.98 3.27 1.86 5.59 2.73 7.4.43.91.86 1.68 1.33 2.4.47.71.97 1.36 1.58 1.98l2.28 2.31 31.16.61c38.96.79 94.38 2.09 136.97 3.75 12.8.5 23.73 1 32.73 1.51 8.99.51 16.05 1.02 21.03 1.51l5.59.56 2.42-5.07-7.22-3.45Zm-8.99 6.89-.78-7.96c-15.61 1.53-30.2 3.51-43.52 5.58l1.23 7.91 7.93 1.04 1.01-7.71-7.93-1.04-.32 7.99c17.95.72 31.99 1.45 41.8 2.17l.59-7.98-.78-7.96.78 7.96.59-7.98c-10.12-.74-24.28-1.48-42.33-2.2l-7.31-.29-3.34 25.54 10.54-1.64c13.1-2.03 27.39-3.97 42.62-5.46l-.19-15.94-.59 7.98Zm-49.72-2.49-7.93-1.04-1.07 8.17 7.93 1.04 2.06-7.73c-4.58-1.22-9.74-2.25-15.36-3.14-8.42-1.33-17.88-2.32-27.81-2.98-9.94-.66-20.35-1-30.65-1s-21.17.36-30.93 1.1c-9.77.74-18.76 1.85-26.44 3.41l1.59 7.84 8-.18-.21-9.17-8 .18-.17 8c37.38.77 88.19 1.98 128.69 3.51l.3-7.99-7.93-1.04 7.93 1.04.3-7.99c-40.68-1.54-91.53-2.74-128.96-3.51l-8.35-.17.62 27.08 9.37-1.9c6.74-1.37 15.18-2.43 24.46-3.13 9.29-.7 19.44-1.05 29.73-1.05 13.27 0 26.77.58 38.93 1.71 6.08.56 11.83 1.26 17.04 2.08 5.2.82 9.87 1.77 13.74 2.8l8.81 2.34 3.38-25.91-8.76-.33-.3 7.99Zm-152.23 36.03-7.54 2.69c1.84 5.16 5.04 9.58 9.09 12.88a29.59 29.59 0 0 0 14.25 6.33l1.21-7.91-8 .18.16 7.14 8-.18-.4-7.99c-7.86.4-14 .91-18.88 1.49-3.66.44-6.62.92-9.07 1.43-3.68.79-6.27 1.64-8.47 2.78a15.28 15.28 0 0 0-2.87 1.93c-.79.68-1.38 1.36-1.59 1.61-1.73 2-2.99 4.21-3.99 6.53-1.49 3.48-2.4 7.22-2.99 11.13-.58 3.92-.83 8.02-.83 12.18 0 8.53 1.03 17.28 2.68 24.84.83 3.78 1.81 7.26 2.98 10.34.59 1.54 1.22 2.99 1.95 4.36.74 1.37 1.55 2.67 2.66 3.94 1.01 1.13 1.93 1.75 2.78 2.28.83.5 1.61.87 2.42 1.22 1.55.65 3.2 1.18 5.06 1.68 3.47.94 7.68 1.8 12.64 2.64 8.65 1.46 19.5 2.84 31.66 4.11 18.23 1.9 39.35 3.52 59.94 4.68 20.59 1.16 40.63 1.84 56.73 1.85 5.09 0 9.79-.07 14.01-.22 4.22-.15 7.96-.37 11.17-.7 2.71-.27 5.13-.6 7.34-1.01 3.32-.62 6.17-1.39 8.85-2.7 1.33-.66 2.63-1.47 3.82-2.5s2.25-2.3 3.05-3.71c1.58-2.77 2.74-5.73 3.64-8.81 1.36-4.63 2.15-9.55 2.63-14.58.48-5.03.64-10.17.64-15.17 0-7.01-.32-13.74-.59-19.35s-.2-4.47-.2-4.47v.03c-.05-1.34-.3-2.9-.88-4.48-.5-1.38-1.26-2.74-2.21-3.96a17 17 0 0 0-2.87-2.88c-1.87-1.5-4.03-2.72-6.58-3.82-3.82-1.65-8.56-3.06-14.81-4.41-6.25-1.34-14-2.59-23.75-3.77l-.96 7.94 7.93 1.03 1.2-9.19-7.93-1.03.25 8c.97-.03 2.15-.08 3.52-.31h.02c28.04-4.65 62.51-9.19 98.84-9.19 37.65 0 77.22 4.89 113.7 19.37 34.4 13.65 64.48 33.76 88.1 58.08 23.63 24.32 40.8 52.82 49.56 83.26 4.17 14.48 6.17 29.44 6.17 44.31 0 25.77-6.02 51.25-17 73.35-10.98 22.12-26.88 40.81-46.52 53.31-16.93 10.79-36.59 17.65-57.63 22.09-21.04 4.44-43.42 6.46-65.6 7.73-34.3 1.97-69.59 2.59-103.87 3.2-76.33 1.36-155.77 2.71-233.55 19.19-77.98 16.54-151.52 47.69-222.25 77.59-38.24 16.17-76.99 32.56-116.24 46.52-39.25 13.97-79 25.51-119.22 32.07-25 4.08-50.28 6.07-75.5 6.07-65.22 0-130.09-13.3-189.04-38.08-58.95-24.77-111.95-61-153.54-106.74-28.75-31.62-53.77-68.84-74.88-111.43-21.11-42.59-38.3-90.54-51.39-143.58-14.31-58.01-21.31-115.25-21.31-169.97 0-60.79 8.64-118.44 25.44-170.56 16.8-52.12 41.75-98.7 74.37-137.44 17.64-20.96 40.31-41.46 65.54-56.56 12.61-7.55 25.86-13.76 39.43-18.07 13.57-4.31 27.45-6.71 41.41-6.71 9.54 0 19.13 1.12 28.72 3.55 13.85 3.51 26.4 9.43 37.74 16.9 17.01 11.2 31.28 25.91 42.75 40.81 11.48 14.9 20.15 29.96 26.09 41.72 15.27 30.2 26.06 62.47 37.61 97.11 7.05 21.15 14.38 43.15 22.94 64.75 17.57 44.32 40.21 86.67 67.28 125.92 8.65 12.53 18.62 25.83 30.77 37.73 12.14 11.88 26.52 22.38 43.87 28.97 11.04 4.19 22.75 6.18 34.47 6.18 5.44 0 10.88-.43 16.27-1.26l-1.22-7.91-7.99-.47 4.23.25-4.22-.32v.07l4.22.25-4.22-.32 1.8.14-1.8-.15v.02l1.8.14-1.8-.15s-.05.36-.05 1.06h7.35l-7.35-.07v.07h7.35l-7.35-.07 3.55.03-3.55-.04 3.55.04-3.55-.04s0 .21.01.54c.02.33.07.82.19 1.36l7.8-1.78-8 .13.08 4.46v-.02c.12 8.17.25 18.65 1.44 28.92.6 5.14 1.45 10.25 2.76 15.07 1.32 4.82 3.08 9.39 5.74 13.47 1.18 1.81 2.82 3.31 4.56 4.38 1.31.81 2.67 1.42 4.07 1.9 2.11.72 4.32 1.17 6.78 1.51 2.46.33 5.16.54 8.22.66 1.64.06 3.39.09 5.28.09 5.84 0 12.93-.28 20.95-.79 28.06-1.77 67.58-6.27 101.09-11.34 16.76-2.54 31.97-5.21 43.6-7.8 5.82-1.3 10.73-2.57 14.66-3.87 1.97-.66 3.7-1.31 5.3-2.1.81-.4 1.59-.83 2.41-1.39.81-.57 1.69-1.25 2.62-2.43.89-1.16 1.56-2.33 2.16-3.54 1.02-2.11 1.81-4.39 2.49-6.88 1.02-3.74 1.79-7.97 2.33-12.51s.83-9.37.83-14.24c0-6.72-.55-13.49-1.94-19.68-.7-3.1-1.62-6.07-2.87-8.85-1.26-2.78-2.85-5.41-5.09-7.69-.19-.19-.68-.69-1.33-1.21-.57-.46-1.26-.94-2.02-1.36-1.34-.75-2.84-1.33-4.61-1.82-2.66-.73-5.95-1.27-10.61-1.67-4.65-.4-10.65-.63-18.61-.63-.93 0-1.89 0-2.89.01l.07 8 8-.19-.17-7.45-8 .19 2.56 7.58c5.08-1.72 9.54-4.76 12.96-8.71 3.42-3.95 5.82-8.85 6.74-14.24.29-1.67.43-3.34.42-4.99 0-6.56-2.2-12.74-5.96-17.71a29.66 29.66 0 0 0-15.43-10.62l-2.23 7.68 8-.18-.09-3.8 17.08-1.12c1.15-.07 2.65-.29 4.24-.89 1.39-.52 2.81-1.34 4.05-2.38 1.08-.91 2.03-1.97 2.87-3.13 1.46-2.04 2.59-4.37 3.64-7.21 1.56-4.26 2.92-9.71 4.24-17.19 1.32-7.48 2.58-16.98 3.79-29.21 2.05-20.68 3.82-48.14 5.29-81.65l-7.99-.35.08 8a4343 4343 0 0 0 19.25-.23l-.11-8-8 .15c.21 11.42.55 26.14 1.05 39.59.25 6.73.55 13.13.9 18.68.17 2.77.36 5.33.56 7.63.2 2.29.42 4.31.67 6.07.22 1.57.69 3.09 1.33 4.47.61 1.3 1.37 2.48 2.22 3.53 1.6 1.98 3.49 3.5 5.48 4.75 3.5 2.18 7.37 3.61 11.5 4.74 6.19 1.67 13.01 2.61 19.73 3.17 6.72.56 13.33.72 18.92.72 2.67 0 5.12-.04 7.22-.09 3.54-.09 9.06-.3 15.41-.81 4.77-.38 10-.92 15.25-1.71 3.94-.59 7.89-1.32 11.68-2.25 2.84-.69 5.6-1.49 8.21-2.45 1.96-.72 3.85-1.52 5.64-2.46 2.68-1.41 5.2-3.11 7.36-5.48 1.07-1.19 2.04-2.56 2.79-4.14a15.38 15.38 0 0 0 1.43-5.17c.16-1.74.26-3.75.32-6.07.06-2.32.09-4.94.09-7.8 0-8.26-.24-18.55-.56-28.98-.33-10.42-.75-20.97-1.13-29.68l-7.99.35.32 7.99 2.25-.09-.32-7.99-7.97.72c3.02 33.52 6.07 60.96 9.08 81.59 1.77 12.1 3.46 21.51 5.11 28.9 1.24 5.55 2.46 9.97 3.72 13.59.95 2.72 1.92 4.99 2.99 6.98.81 1.49 1.68 2.82 2.69 4.02.76.9 1.59 1.72 2.52 2.44 1.38 1.08 2.97 1.89 4.5 2.35 1.53.46 2.94.59 4.04.61s17.12.33 17.12.33l.08 3.47 8-.19-2.26-7.68c-1.18.35-2.31.71-3.4 1.1a29.464 29.464 0 0 0-14.36 11.01 29.704 29.704 0 0 0-5.28 16.87c0 3.3.56 6.68 1.73 9.95s7.54-2.7 7.54-2.7l7.53-2.7a13.5 13.5 0 0 1-.79-4.55c0-2.77.87-5.5 2.44-7.77 1.58-2.27 3.79-4.05 6.59-5.05.76-.27 1.61-.55 2.53-.82l5.88-1.73-.58-24.93-32.45-.63h-.04l-.14 1.9.73-1.74c-.29-.12-.58-.16-.59-.16l-.14 1.9.73-1.74-.65 1.54 1.12-1.27s-.22-.17-.47-.27l-.65 1.54 1.12-1.27s-.6-.62-1.37-2.21c-1.17-2.37-2.72-6.8-4.36-13.82-1.65-7.03-3.44-16.66-5.32-29.61-2.94-20.16-5.97-47.38-8.98-80.71l-.68-7.58-17.88.71.35 8.02c.38 8.66.8 19.15 1.12 29.49.33 10.33.56 20.51.56 28.47 0 2.76-.03 5.24-.09 7.36-.06 2.11-.15 3.86-.26 5.04s.64.05.64.05l-.58-.29s-.05.13-.06.23l.64.06-.58-.29s-.06.11-.25.33c-.36.41-1.25 1.13-2.63 1.86-1.2.65-2.75 1.32-4.54 1.95-3.14 1.1-7.01 2.06-11.14 2.84-6.2 1.17-12.98 1.94-19.02 2.42a274.444 274.444 0 0 1-21.53.86c-4.57 0-9.84-.12-15.15-.48-3.98-.27-7.98-.68-11.69-1.27-2.78-.44-5.39-.97-7.69-1.6-1.72-.47-3.26-.99-4.54-1.53-1.93-.8-3.24-1.68-3.81-2.24-.29-.28-.41-.46-.44-.52l-.02-.04-.04.02h.05v-.02l-.04.02h.05c-.19-1.31-.39-3.1-.57-5.2-.33-3.69-.63-8.37-.89-13.6-.8-15.69-1.29-36.28-1.56-51.18l-.15-7.97-7.96.11c-6.46.09-12.86.17-19.18.23l-7.58.07-.33 7.58c-1.46 33.32-3.22 60.57-5.23 80.77-1.18 11.89-2.39 21.01-3.6 27.91-.91 5.17-1.82 9.1-2.67 11.96-.64 2.15-1.24 3.69-1.73 4.69-.36.75-.66 1.2-.81 1.4l-.11.13 1.26 1.31-.65-1.66c-.3.11-.61.34-.61.36l1.26 1.3-.65-1.66.76 1.94-.4-2.05c-.07.01-.21.05-.36.11l.76 1.94-.4-2.05.17.88-.11-.89h-.06l.17.89-.11-.89h-.05l-32.38 2.13.57 25 5.64 1.63c2.92.85 5.38 2.6 7.12 4.9 1.74 2.31 2.73 5.11 2.73 8.06 0 .75-.06 1.52-.2 2.29-.42 2.44-1.5 4.65-3.07 6.48a13.773 13.773 0 0 1-5.98 4.02l-5.57 1.88.49 21.21 7.88-.06c.94 0 1.86-.01 2.76-.01 6.65 0 11.75.18 15.61.45 5.79.4 8.81 1.07 9.91 1.45.27.09.43.16.49.19h.03l.77-1.43-1.03 1.27c.11.09.25.18.26.18l.77-1.45-1.03 1.27 1.26-1.55-1.38 1.45.12.1 1.26-1.55-1.38 1.45.25-.26-.25.26.25-.26-.25.26.09.09c.5.51 1.23 1.53 1.91 3.06 1.04 2.28 1.95 5.62 2.53 9.44.59 3.83.87 8.16.87 12.52 0 6.41-.61 12.92-1.6 18.11-.49 2.59-1.07 4.85-1.65 6.52-.29.83-.57 1.52-.8 1.99-.12.24-.22.42-.29.55l-.09.14-.02.03 3.97 3.09-3.27-3.83c-.15.13-.39.35-.7.74l3.97 3.09-3.27-3.83 1.46 1.71-1.24-1.89s-.08.05-.23.18l1.46 1.71-1.24-1.89-.04.02c-.11.07-.44.24-.91.45-.93.41-2.42.94-4.29 1.51-3.52 1.07-8.4 2.28-14.19 3.52-10.16 2.17-23.18 4.46-37.47 6.65-21.43 3.29-45.74 6.38-67.81 8.63-11.03 1.13-21.51 2.05-30.78 2.69-9.26.64-17.33.99-23.43.99-1.72 0-3.28-.03-4.64-.08-2.41-.09-4.44-.25-6.09-.45-2.48-.29-4.09-.73-4.76-1.03-.17-.07-.28-.13-.35-.16l-.06-.04-.88 1.24 1.25-.82c-.15-.24-.36-.42-.37-.42l-.88 1.24 1.25-.82c-1.36-2.04-2.66-5.13-3.67-8.88-1.54-5.62-2.45-12.63-2.95-19.7-.5-7.08-.61-14.21-.69-20.32v-.02l-.09-5.3-.18-.81-7.67 1.75 7.87-.24c0-.31-.04-.86-.19-1.51l-7.67 1.75 7.87-.24-7.69.23 7.69.06v-.29l-7.69.23 7.69.06-6.8-.05 6.8.07v-.02l-6.8-.05 6.8.07v-.09h-5.73l5.72.32v-.32h-5.73l5.72.32-3.97-.22 3.97.32v-.09l-3.97-.22 3.97.32-.79-.06.79.07-.79-.07.79.07s.02-.16.04-.46l.58-9.89-9.79 1.52a90.51 90.51 0 0 1-13.82 1.07c-9.92 0-19.7-1.68-28.78-5.14-7.4-2.81-14.23-6.48-20.6-10.79-9.54-6.47-18.05-14.4-25.73-23.02s-14.54-17.91-20.82-27.01a616.165 616.165 0 0 1-65.58-122.73c-8.34-21.04-15.59-42.76-22.64-63.91-11.55-34.62-22.54-67.67-38.5-99.26-8.38-16.57-21.82-39.31-41.03-60.08-9.61-10.38-20.66-20.27-33.29-28.59-12.62-8.32-26.83-15.06-42.62-19.05a132.845 132.845 0 0 0-32.64-4.04c-15.8 0-31.32 2.72-46.25 7.46-22.4 7.11-43.48 18.73-62.47 32.68-18.99 13.96-35.9 30.25-49.9 46.89-34.11 40.5-60 88.96-77.36 142.83-17.36 53.88-26.21 113.17-26.21 175.47 0 56.08 7.17 114.6 21.77 173.81 13.33 54.02 30.89 103.08 52.59 146.85 21.7 43.77 47.53 82.26 77.38 115.09 43.32 47.64 98.26 85.13 159.18 110.73 60.92 25.6 127.85 39.32 195.24 39.33 26.06 0 52.2-2.05 78.08-6.27 41.51-6.77 82.16-18.62 122-32.79 39.84-14.18 78.87-30.69 117.11-46.86 70.72-29.92 143.36-60.59 219.34-76.68 75.78-16.08 154.19-17.51 230.51-18.84 34.29-.6 69.78-1.23 104.51-3.22 22.53-1.3 45.67-3.34 67.99-8.05 22.31-4.71 43.84-12.1 62.92-24.25 22.43-14.3 40.14-35.3 52.25-59.69 12.11-24.4 18.66-52.22 18.67-80.47 0-16.3-2.19-32.75-6.79-48.74-9.57-33.23-28.19-63.96-53.46-89.98-25.28-26.02-57.24-47.35-93.68-61.81-39.03-15.48-80.59-20.49-119.6-20.5-37.65 0-72.98 4.69-101.45 9.4h.02c-.24.04-.73.08-1.45.1l-6.8.22-3.11 23.94 8.02.97c9.37 1.13 16.66 2.31 22.23 3.51 4.18.89 7.39 1.79 9.75 2.63 1.77.63 3.05 1.22 3.91 1.69.64.36 1.03.65 1.24.82l.16.14.04.04.98-.8-1.17.42c.07.2.19.38.19.38l.98-.8-1.17.42 1.57-.56-1.64.3c.01.07.04.16.07.26l1.57-.56-1.64.3 1.04-.19-1.05.11v.08l1.05-.19-1.05.11.32-.03h-.32v.03l.32-.03h-.32v.04l.2 4.48c.26 5.62.57 12.09.57 18.61 0 6.19-.28 12.42-1.08 17.85-.39 2.71-.92 5.22-1.56 7.39s-1.4 4.01-2.19 5.4 1.67.95 1.67.95l-1.41-1.31c-.07.08-.18.21-.26.36l1.67.95-1.41-1.31.82.76-.75-.83-.07.07.82.76-.75-.83.32.36-.3-.37h-.02l.32.37-.3-.37s-.22.16-.68.36c-.68.3-1.91.69-3.66 1.04-1.75.36-4.01.68-6.78.96-2.7.27-6.14.49-10.12.62-3.98.14-8.51.21-13.45.21-13.56 0-30.24-.51-47.68-1.39-26.17-1.32-54.09-3.48-75.92-6-10.91-1.26-20.31-2.61-27.05-3.94-3.36-.66-6.07-1.33-7.78-1.89-.85-.27-1.46-.52-1.66-.63l-.06-.03h-.01l-1.1 1.93 1.34-1.77c-.16-.12-.24-.16-.24-.16l-1.1 1.94 1.34-1.77-3.04 4.04 3.79-3.33c-.34-.38-.59-.59-.75-.71l-3.04 4.04 3.79-3.33v-.01c-.06-.07-.35-.48-.68-1.13-.59-1.14-1.32-3-2-5.26-1.02-3.4-1.95-7.72-2.6-12.34-.65-4.62-1.03-9.54-1.03-14.2 0-4.68.39-9.11 1.16-12.59.38-1.74.86-3.24 1.36-4.39.5-1.16 1.02-1.96 1.4-2.4s.08-.1.08-.1h.01l-1.17-1.06 1.09 1.13.08-.08-1.17-1.05 1.09 1.13-1.26-1.31 1 1.52.25-.21-1.26-1.31 1 1.52-.12-.18.11.18-.12-.18.11.18s.41-.24 1.42-.56c1.5-.48 4.32-1.14 8.89-1.74 4.57-.61 10.89-1.18 19.51-1.61l7.77-.39-.5-21.63-6.63-1.01c-2.45-.37-4.7-1.4-6.55-2.91-1.85-1.52-3.29-3.5-4.14-5.87s-7.53 2.69-7.53 2.69Zm147.18 32.73-.89 7.95c18.15 2.03 27.99 4.21 32.92 5.71 2.47.74 3.69 1.31 4.1 1.53.1.05.16.09.18.1s.6-.94.6-.94l-.64.92.04.03.6-.94-.64.92.97-1.39-1 1.37.03.02.97-1.39-1 1.37s.03.02.23.17c.11.08.26.19.62.4.19.11.43.25.82.42.4.17.93.4 1.89.57l1.36-7.88-7.99.36.2 4.52v.02c.25 5.34.56 11.9.56 18.48 0 5.6-.23 11.23-.86 15.99-.31 2.38-.72 4.53-1.21 6.31-.48 1.78-1.05 3.18-1.54 4.04l6.97 3.93-5.18-6.1 2.56 3.02-1.9-3.48c-.1.06-.32.18-.66.46l2.56 3.02-1.9-3.48.62 1.13-.54-1.17-.08.04.62 1.13-.54-1.17-.05.02c-.13.06-.53.19-1.11.33-1.01.25-2.55.52-4.46.75-2.87.35-6.56.62-10.85.8-4.29.18-9.2.26-14.54.26-13.18 0-29.07-.51-45.59-1.37-24.79-1.28-51.04-3.34-71.95-5.57-10.45-1.11-19.57-2.27-26.41-3.38-3.42-.55-6.27-1.09-8.35-1.58a33.6 33.6 0 0 1-2.45-.65c-.29-.09-.5-.17-.62-.22l-.11-.04-.65 1.4.72-1.36-.07-.03-.65 1.4.72-1.36-3.72 7.08 6.36-4.86-.88.67.92-.6-.05-.07-.88.67.92-.6s-.23-.39-.48-.98c-.44-1.04-1-2.74-1.52-4.77-.78-3.06-1.5-6.91-2.01-10.95-.51-4.04-.81-8.3-.81-12.22 0-3.65.27-7.02.78-9.51.25-1.24.55-2.26.83-2.95.14-.34.27-.6.37-.77l.12-.18.04-.05-6.06-5.23 4.76 6.43-3.37-4.55 2.48 5.11c.15-.07.46-.24.89-.55l-3.37-4.55 2.48 5.11-.79-1.62.69 1.66.1-.05-.79-1.62.69 1.66s.46-.18 1.48-.43c1.55-.37 4.37-.9 8.99-1.41 4.61-.51 11.02-1.02 19.78-1.39 9.1-.39 19.21-.58 29.78-.58 16.04 0 33.18.43 49.6 1.24 16.42.8 32.15 1.98 45.33 3.46l.89-7.95.89-7.95c-13.64-1.53-29.65-2.73-46.33-3.54-16.69-.82-34.05-1.25-50.38-1.25-10.76 0-21.07.19-30.46.59-14.7.63-23.31 1.61-28.61 2.56-2.66.48-4.5.95-5.93 1.43-1.43.49-2.48.97-3.55 1.75l-.71.53-.59.68c-1.48 1.72-2.47 3.57-3.24 5.45-1.13 2.82-1.77 5.76-2.2 8.85-.41 3.09-.58 6.32-.58 9.62 0 7.42.86 15.19 2.15 21.9.65 3.36 1.41 6.45 2.3 9.18.45 1.37.92 2.64 1.48 3.86.57 1.22 1.18 2.39 2.11 3.63l1.07 1.4 1.56.82c.79.41 1.5.7 2.22.96 1.39.5 2.86.9 4.55 1.3 3.16.74 7.07 1.45 11.72 2.17 8.13 1.25 18.48 2.5 30.15 3.68 17.51 1.78 37.97 3.4 58.1 4.58 20.13 1.18 39.91 1.93 56.11 1.93 9.56 0 17.85-.25 24.4-.86 3.29-.31 6.14-.7 8.66-1.27 1.27-.29 2.46-.62 3.67-1.09.61-.24 1.22-.51 1.86-.86.64-.35 1.31-.78 2.03-1.38l1.09-.93.7-1.25c1.37-2.43 2.31-5.01 3.04-7.7 1.09-4.04 1.72-8.37 2.11-12.86.38-4.48.52-9.11.52-13.64 0-7.07-.32-13.88-.58-19.24v.02l-.49-10.96-6.35-1.09-1.35 7.85 2.93-7.41c-.37-.14-.85-.31-1.58-.44l-1.35 7.85 2.93-7.41-2.9 7.34 4.14-6.72c-.23-.13-.53-.33-1.24-.62l-2.9 7.34 4.14-6.72-3.97 6.44 4.36-6.18c-.07-.05-.18-.13-.39-.26l-3.97 6.44 4.36-6.18-3.72 5.28 3.84-5.19-.12-.09-3.72 5.28 3.84-5.19c-.06-.04-.24-.18-.46-.33-.41-.29-.96-.63-1.6-.98-2.28-1.22-5.84-2.63-12.4-4.2-6.56-1.56-16.16-3.27-30.5-4.88l-.89 7.95Zm-122.54-18.89 1.47 7.86c1.32-.25 2.73-.59 4.21-1.12h-.02c1.88-.67 4.51-1.34 7.64-1.91 4.69-.85 10.5-1.48 16.88-1.89 6.38-.4 13.36-.59 20.47-.59 13.5 0 27.52.66 39.18 1.64 5.83.49 11.07 1.06 15.32 1.66 2.12.3 4 .61 5.55.91 1.54.3 2.78.59 3.52.81l2.29-7.67-4.03 6.91c2.04 1.19 4.1 1.99 6.05 2.59l2.35-7.65-7.93-1.03-1.22 9.34 7.93 1.03.83-7.96c-27.1-2.83-62.35-4.43-93.83-4.43-9.37 0-18.41.14-26.8.44l.29 8 8-.18-.16-6.97-8 .18 1.47 7.86-1.47-7.86-8 .18.34 15.07 8.1-.29c8.16-.29 17.02-.43 26.23-.43 30.92 0 65.85 1.59 92.17 4.35l7.76.81 3.09-23.78-6.46-1.98c-1.13-.35-2.03-.73-2.7-1.12l-.83-.48-.91-.27c-1.52-.45-3.18-.83-5.07-1.2-3.3-.64-7.31-1.21-11.9-1.75-13.76-1.59-32.77-2.75-51.17-2.75-9.85 0-19.51.33-28.13 1.13-4.31.4-8.36.92-12.08 1.6-3.72.68-7.11 1.5-10.17 2.59h-.02c-.42.16-.99.31-1.73.45l-6.68 1.25.16 6.79 8-.18ZM742.9 941.57l1.34 7.89c17.72-3.02 39.76-5.75 61.87-7.8s44.32-3.4 62.38-3.7h.01c2.58-.05 4.94-.07 7.12-.07 10.44 0 16.39.48 19.47.91 1.54.21 2.35.41 2.6.48l.09.03.86-2.59-1.07 2.51c.13.06.21.08.21.08l.86-2.59-1.07 2.51 2.12-4.97-2.35 4.87.23.1 2.12-4.97-2.35 4.87 2.68-5.56-2.8 5.51.12.06 2.68-5.56-2.8 5.51 2.79-5.5-2.83 5.47.04.02 2.79-5.5-2.83 5.47 2.59-5.02-2.6 5.01 2.59-5.01-2.6 5.01 3.69-7.09-5.71 5.61s.46.55.9 1.61c.67 1.58 1.34 4.2 1.75 7.28.42 3.08.62 6.64.62 10.26 0 5.51-.47 11.19-1.2 15.71-.36 2.25-.79 4.22-1.21 5.64-.21.71-.41 1.28-.56 1.65-.08.18-.14.31-.17.38l-.02.04 1.09.64-1.05-.71-.04.07 1.09.64-1.05-.71 6.64 4.46-4.15-6.84.76 1.26-.7-1.3-.06.04.76 1.26-.7-1.3-.04.02c-.11.06-.44.2-.92.37-.92.34-2.36.79-4.17 1.28-3.39.92-8.06 1.97-13.62 3.09-9.74 1.96-22.25 4.11-36.03 6.22-20.67 3.17-44.22 6.25-65.82 8.54-10.8 1.14-21.11 2.09-30.31 2.74-9.2.66-17.3 1.02-23.59 1.02-3.93 0-7.17-.15-9.34-.41-1.08-.13-1.88-.29-2.26-.39a.702.702 0 0 1-.19-.06h-.02l-.25.68.29-.68-.04-.02-.25.69.29-.68-1.51 3.54 2.28-3.08c-.44-.32-.68-.42-.77-.46l-1.51 3.54 2.28-3.08-4.75 6.44 6.68-4.4c-.47-.71-1-1.74-1.51-3.03-.89-2.25-1.69-5.27-2.3-8.66-.93-5.1-1.48-11.05-1.79-16.86-.31-5.82-.4-11.52-.46-16.27v-.02l-.07-4.15-8 .14 6.32 4.9-3.49-2.71 2.81 3.43c.08-.07.34-.29.68-.73l-3.49-2.71 2.81 3.43-.64-.78.61.81.03-.02-.64-.78.61.81h.02c.11-.1.75-.5 2.09-1.09 2.02-.89 5.61-2.18 11.44-3.69 5.83-1.52 13.89-3.26 24.91-5.14l-1.34-7.89-1.34-7.89c-18.45 3.15-29.29 5.98-36.01 8.35-3.36 1.19-5.7 2.26-7.5 3.31-1.79 1.06-3.1 2.08-4.19 3.47l-1.72 2.22.12 6.96v-.02c.05 3.62.11 7.92.29 12.51.26 6.89.76 14.41 1.92 21.49.58 3.54 1.33 6.98 2.34 10.23 1.02 3.25 2.3 6.32 4.15 9.15l.78 1.19 1.15.85c.91.66 1.73 1.08 2.51 1.41 1.36.57 2.59.88 3.89 1.14 1.94.38 4.01.6 6.35.75 2.33.15 4.92.21 7.75.21 5.87 0 12.83-.28 20.61-.78 27.2-1.75 64.43-6.17 96.29-10.92 15.93-2.38 30.5-4.83 41.83-7.1 5.67-1.14 10.53-2.22 14.44-3.26 1.96-.52 3.68-1.03 5.21-1.56.77-.27 1.49-.54 2.19-.84.71-.31 1.4-.64 2.16-1.1l1.5-.91.98-1.46c.74-1.1 1.23-2.13 1.67-3.19.75-1.84 1.32-3.79 1.82-5.95.74-3.22 1.32-6.88 1.72-10.82.4-3.93.63-8.12.63-12.33 0-5.61-.39-11.21-1.42-16.34-.52-2.57-1.2-5.03-2.18-7.37-.99-2.34-2.26-4.61-4.25-6.66l-.89-.9-1.12-.58c-.08-.04-.28-.15-.47-.23-.75-.34-1.66-.65-2.87-.94-1.82-.44-4.39-.86-8.43-1.2-4.04-.33-9.54-.57-17.17-.57-2.27 0-4.73.02-7.4.07h.01c-18.63.3-41.15 1.69-63.59 3.76-22.45 2.08-44.79 4.84-63.08 7.96l1.34 7.89Zm-7.24-6.45 4.76 6.43c.46-.34 1.2-.84 2.15-1.57l-4.91-6.31-7.88 1.39.19 1.06 7.88-1.39-1.42-7.87c-.69.12-1.44.25-2.2.39l1.44 7.87 4.76 6.43-4.76-6.43 1.44 7.87c.65-.12 1.39-.25 2.17-.39l7.84-1.42-1.58-8.91-2.32-13.08-10.48 8.16c-.35.28-.98.7-1.84 1.34l-27.68 20.49 33.88-6.19-1.44-7.87Zm8.74-7.06 2.26 7.67c.86-.25 2.06-.55 3.5-.87 2.71-.59 6.27-1.23 10.39-1.87 7.22-1.12 16.18-2.27 25.74-3.35 14.35-1.62 30.08-3.08 43.56-4.14 6.74-.53 12.92-.96 18.07-1.25 5.14-.29 9.29-.45 11.77-.45.83 0 1.47.02 1.77.04l.53-7.98-1.08 7.93c1.44.19 2.49.17 3.2.19l.13-8-8 .18.15 6.43 8-.18-.19-8c-36.01.85-84.73 5.36-120.14 11.12l1.29 7.9 7.88-1.4-.96-5.38-7.88 1.4 2.26 7.67-2.26-7.67-7.88 1.4 2.34 13.15 7.78-1.27c34.44-5.62 82.91-10.1 117.95-10.91l7.99-.19-.51-22.12-7.69-.13c-.81 0-1.29-.04-1.31-.04l-.28-.04-.27-.02c-.89-.06-1.79-.07-2.83-.08-2.5 0-5.8.12-9.81.32-13.99.71-36.58 2.54-57.8 4.79-10.61 1.12-20.85 2.35-29.52 3.59-4.33.62-8.27 1.25-11.7 1.89-3.43.64-6.32 1.27-8.74 1.98l-6.87 2.02 1.25 7.05 7.88-1.4Zm177.08-591.83.16 8c36.69-.74 75.46-1.81 112.76-3.13l-.28-7.99-7.99.36c4.04 89.43 8.13 168.39 12.18 234.85l7.99-.49v-8h-4.39c-41.51 0-83.43.57-121.99 1.73l.24 8 8 .12c.89-60.68 1.33-131.65 1.33-211.35v-22.09h-8l.16 8-.16-8h-8v22.09c0 79.64-.44 150.53-1.33 211.12l-.12 8.36 8.36-.25c38.37-1.15 80.14-1.72 121.51-1.72h12.89l-.52-8.49c-4.04-66.35-8.14-145.23-12.17-234.6l-.36-7.92-7.92.28c-37.22 1.32-75.91 2.39-112.52 3.13l-7.84.16v7.85h8Zm126.24 387.32-7.99.35c.33 7.57.75 17.92 1.09 28.44.34 10.51.59 21.21.59 29.38 0 2.58-.03 4.91-.08 6.88-.05 1.96-.14 3.58-.24 4.65l7.97.73-7.71-2.15 6.01 1.68-5.33-3.26c-.24.39-.5.91-.68 1.58l6.01 1.68-5.33-3.26 3.78 2.31-2.84-3.45c-.12.11-.48.39-.95 1.14l3.78 2.31-2.84-3.45.94 1.15-.88-1.19-.06.05.94 1.15-.88-1.19v.02-.02l.01.02v-.02c-.09.06-.72.42-1.7.8-1.72.69-4.47 1.53-7.86 2.3-5.11 1.17-11.71 2.24-19.13 3-7.42.76-15.68 1.23-24.17 1.23-4.66 0-9.39-.14-14.1-.44-5.22-.34-9.52-.84-13-1.42-2.61-.43-4.75-.91-6.45-1.37a33.03 33.03 0 0 1-3.09-.99c-.59-.23-1.03-.43-1.33-.58-.22-.11-.36-.2-.41-.23h-.02l-.37.52.4-.52-.03-.02-.37.53.4-.52-2.43 3.15 3.14-2.42c-.4-.51-.63-.68-.71-.74l-2.43 3.15 3.14-2.42-4.91 3.78 5.59-2.67c-.24-.5-.48-.85-.68-1.11l-4.91 3.78 5.59-2.67-6.32 3.02 6.92-.99c-.12-.86-.37-1.52-.61-2.03l-6.32 3.02 6.92-.99a98.63 98.63 0 0 1-.56-5.24c-.32-3.77-.62-8.62-.88-13.99-.79-16.13-1.26-37-1.5-49.78l-8 .15.13 8c33.95-.54 70.04-1.51 105.03-2.82l-.3-7.99-7.99.35 7.99-.35-.3-7.99c-34.87 1.3-70.86 2.27-104.69 2.81l-8.02.13.15 8.02c.18 9.8.5 24.29 1 37.91.25 6.81.54 13.4.88 19.1.17 2.85.36 5.48.56 7.83.2 2.35.42 4.39.67 6.15.2 1.33.64 2.37 1.09 3.17.43.76.88 1.34 1.33 1.83.83.92 1.65 1.55 2.49 2.12 1.47.98 3.05 1.75 4.95 2.48 2.83 1.09 6.34 2.06 10.81 2.89 4.46.83 9.88 1.5 16.43 1.93 5.08.32 10.15.47 15.12.47 15.72 0 30.5-1.46 41.83-3.59 2.84-.53 5.46-1.11 7.86-1.73 1.8-.46 3.46-.95 5.01-1.47 1.16-.39 2.24-.8 3.28-1.24 1.55-.68 2.97-1.39 4.42-2.46.72-.54 1.47-1.18 2.21-2.07.37-.45.74-.97 1.09-1.58.34-.61.66-1.32.88-2.13l.19-.7.07-.72c.15-1.62.24-3.5.3-5.67s.08-4.63.08-7.32c0-8.49-.26-19.29-.6-29.89-.34-10.6-.76-21-1.09-28.62l-.35-7.94-7.95.3.3 7.99ZM968.7 576.04l.13 8c13.65-.23 27.5-.39 41.43-.49l-.06-8-7.98.55 9.81 141.33 7.98-.55-.26-8c-16.52.53-33.08.97-49.38 1.33l.18 8 8-.1-1.85-142.17-8 .1.13 8-.13-8-8 .1 1.96 150.25 8.07-.18c16.35-.36 32.96-.81 49.54-1.33l8.3-.26-10.9-157.12-7.52.05c-13.97.1-27.88.26-41.58.49l-7.97.13.1 7.97 8-.1Zm55.13 140.73 7.98-.55-9.8-141.24-7.98.55.05 8c9.18-.06 18.39-.09 27.57-.09h8.67c58.67.15 104.91 1.45 137.15 3.28 16.11.92 28.73 1.97 37.52 3.06 4.39.54 7.83 1.1 10.14 1.6 1.15.25 2.01.49 2.46.64.11.04.2.07.25.09l.07.03 1.41-3.18-2.06 2.77c.49.35.66.41.66.41l1.41-3.18-2.06 2.77 4.79-6.41-5.33 5.97c.29.25.83.86 1.42 1.84 1.05 1.7 2.24 4.48 3.26 7.97 1.55 5.24 2.78 12.05 3.58 19.54.81 7.5 1.21 15.69 1.21 23.84 0 11.73-.83 23.39-2.36 32.7-.76 4.65-1.7 8.71-2.7 11.79-.5 1.54-1.02 2.83-1.49 3.79s-.9 1.59-1.09 1.81l6.1 5.18-4.79-6.4 2.31 3.08-1.68-3.48s-.22.1-.62.4l2.31 3.08-1.68-3.48.28.59-.27-.59.28.59-.27-.59-.08.03c-.21.09-.8.29-1.64.51-1.58.42-4.02.94-7.18 1.48-5.54.95-13.31 1.98-23.22 3.05-29.75 3.19-78.81 6.64-147.77 9.41s-9.69.38-9.69.38h.01c-9.05.34-18.19.67-27.35.97l.26 8 7.98-.55-7.98.55.26 8c9.19-.3 18.36-.62 27.44-.97h.01l9.69-.38c59.21-2.39 103.83-5.26 134.49-8.07 15.34-1.41 27.17-2.8 35.69-4.14 4.27-.67 7.71-1.32 10.48-2.01 1.39-.34 2.61-.69 3.77-1.11.58-.21 1.16-.44 1.76-.73.61-.3 1.24-.64 2-1.2l.72-.54.58-.69c1.35-1.59 2.36-3.3 3.26-5.12 1.55-3.19 2.73-6.78 3.74-10.8 1.5-6.03 2.59-13.03 3.33-20.61.74-7.58 1.11-15.72 1.11-23.91 0-13.21-.96-26.52-3.08-37.86-1.07-5.68-2.41-10.87-4.2-15.44-.9-2.29-1.91-4.42-3.12-6.4-1.21-1.98-2.62-3.82-4.42-5.43l-.26-.23-.28-.21c-.82-.61-1.52-.97-2.19-1.29-1.28-.59-2.46-.96-3.8-1.32-2.48-.66-5.46-1.22-9.18-1.76-6.48-.95-15.12-1.84-25.99-2.66-32.57-2.45-85.1-4.26-155.3-4.44-2.91 0-5.81-.01-8.71 0-9.22 0-18.46.03-27.68.09l-8.52.05 10.93 157.44 7.71-.25-.26-8Zm-58.94-140.66-8 .1 1.85 142.2 8-.1-.17-8c-9.38.2-18.67.37-27.77.51-8.96.13-17.82.24-26.53.32-10.93.1-21.24.14-30.95.14-45.83 0-78.29-1.02-99.71-2.52-10.7-.75-18.65-1.63-23.97-2.52-2.65-.44-4.65-.89-5.87-1.25-.6-.18-1.01-.34-1.14-.4l-.04-.02-1.52 3 2.16-2.56c-.43-.35-.62-.43-.63-.44l-1.52 3 2.16-2.56c-.59-.49-1.22-1.17-1.86-2.07-1.13-1.56-2.27-3.8-3.25-6.59-1.49-4.19-2.62-9.6-3.33-15.67-.72-6.08-1.04-12.82-1.04-19.76 0-12.58 1.04-25.84 2.46-37.27.71-5.71 1.51-10.97 2.32-15.46.8-4.48 1.62-8.2 2.3-10.71l-7.72-2.09 6.69 4.38-5.08-3.33 4.08 4.52c.24-.22.61-.6 1-1.19l-5.08-3.33 4.08 4.52-2.49-2.76 2.23 2.98c.06-.04.15-.11.26-.22l-2.49-2.76 2.23 2.98-1.18-1.58 1.12 1.63.06-.04-1.18-1.58 1.12 1.63-.32-.47.31.48h.02l-.32-.48.31.48s.52-.31 1.63-.74c1.95-.76 5.76-1.92 12.24-3.22 9.73-1.95 25.48-4.24 50.45-6.38 24.97-2.15 59.18-4.16 105.91-5.62 15.61-.49 31.82-.88 48.36-1.17l-.14-8-8 .1 8-.1-.14-8c-16.61.29-32.9.69-48.58 1.18-40.65 1.27-71.94 2.96-96.06 4.8-18.1 1.38-32.16 2.85-43.13 4.31-16.47 2.19-25.94 4.31-31.8 6.17-2.94.94-4.98 1.81-6.64 2.76-.83.48-1.56.98-2.25 1.56-.68.59-1.33 1.27-1.89 2.12l-.7 1.06-.33 1.23c-.86 3.19-1.73 7.25-2.6 12.06-2.58 14.39-5.02 35.37-5.03 55.55 0 11.33.76 22.38 2.86 32.08 1.06 4.85 2.45 9.38 4.39 13.48.97 2.05 2.08 4 3.39 5.81 1.3 1.81 2.8 3.49 4.54 4.96 1.18.98 2.2 1.5 3.21 1.96.95.42 1.89.75 2.91 1.06 1.9.57 4.05 1.06 6.61 1.52 4.48.8 10.2 1.53 17.44 2.19 10.86.99 25.12 1.81 43.32 2.39 18.2.58 40.35.92 66.92.92 9.76 0 20.11-.04 31.09-.14 8.74-.08 17.63-.18 26.63-.32 9.14-.14 18.45-.31 27.87-.51l7.93-.17-2.06-158.18-8.04.14.14 8Zm349.29 236.87 1.21-7.91c-32.9-5.01-105.02-14.14-193.79-14.14-15.6 0-31.72.28-48.22.92l.31 7.99 7.92-1.12c-2.77-19.58-5.6-45.32-8.42-76.57l-7.97.72.33 7.99c33.83-1.39 78.17-3.57 115.19-6.57 18.52-1.5 35.19-3.21 47.97-5.17 6.4-.98 11.81-2.02 16.19-3.21 2.2-.6 4.14-1.23 5.95-2.03.91-.4 1.79-.85 2.7-1.43.9-.59 1.84-1.29 2.8-2.4 1.43-1.7 2.54-3.53 3.52-5.52 1.71-3.47 3.05-7.45 4.22-11.95 1.74-6.74 3.05-14.63 3.96-23.18.9-8.54 1.38-17.73 1.38-26.95 0-13.84-1.06-27.72-3.52-39.7-1.24-6-2.82-11.53-4.93-16.43-1.06-2.45-2.25-4.75-3.64-6.88-1.39-2.12-2.98-4.08-4.88-5.78-1.08-.96-2.1-1.57-3.12-2.09-.98-.5-1.97-.91-3-1.27-2-.71-4.18-1.28-6.64-1.82-4.6-.99-10.17-1.82-16.61-2.57-11.25-1.3-25.12-2.3-40.24-3.1-45.31-2.39-101.74-2.89-128.87-2.98l-.03 8 7.98-.49c-4.05-66.39-8.15-145.37-12.19-234.88l-7.99.36.29 7.99c44.17-1.61 92.43-3.73 130.58-6.31 19.08-1.29 35.62-2.7 48-4.25 6.2-.78 11.34-1.58 15.43-2.48 2.05-.46 3.83-.93 5.5-1.53.84-.31 1.65-.65 2.52-1.11.86-.48 1.81-1.05 2.89-2.16 1.57-1.64 2.75-3.45 3.76-5.35 1.75-3.34 3-7.04 4.03-11.08 1.53-6.05 2.53-12.86 3.17-19.85.64-6.99.92-14.14.92-20.75v-1.63c-.04-5.34-.32-16.71-2.07-28.46-.88-5.88-2.11-11.86-3.99-17.38-.94-2.76-2.05-5.41-3.42-7.9-1.38-2.48-3.02-4.83-5.15-6.87-1.2-1.12-2.27-1.72-3.29-2.23-.99-.48-1.96-.85-2.98-1.18-1.96-.63-4.11-1.14-6.57-1.6-4.59-.87-10.25-1.59-16.85-2.23-11.54-1.12-25.94-1.98-41.73-2.65-47.32-2.01-107.01-2.29-136.07-2.29h-.7l.06 8 7.99-.32c-1.21-29.86-2.28-56.88-3.18-79.78l-.24-6-7.99.32 1.25 7.9c63.69-10.05 120.77-13.82 170.59-13.82 87.97 0 153.27 11.76 192.13 21.45l1.94-7.76-7.96-.81c-9.17 89.78-24.47 229.73-40.36 363.64-7.95 66.95-16.04 132.4-23.6 189.3-7.55 56.89-14.57 105.28-20.32 137.95l7.88 1.39 1.21-7.91-1.21 7.91 7.88 1.39c5.83-33.12 12.86-81.6 20.43-138.62 22.7-171.02 50.24-418.58 64.02-553.42l.7-6.9-6.73-1.68c-40-9.98-106.6-21.93-196-21.93-50.62 0-108.55 3.83-173.08 14.02l-7.03 1.11.52 13.1c.9 22.89 1.97 49.92 3.18 79.79l.31 7.73 7.74-.05h.59c25.06 0 73.11.21 115.97 1.56 21.42.67 41.57 1.63 56.75 2.97 7.58.67 13.94 1.44 18.43 2.26 2.23.41 4 .83 5.06 1.18.53.17.87.32.95.36s1.8-3.23 1.8-3.23l-2.54 2.66c.45.42.68.54.74.57l1.8-3.23-2.54 2.66c.62.58 1.41 1.6 2.2 3.04 1.39 2.5 2.72 6.2 3.75 10.38 1.56 6.29 2.52 13.66 3.04 20.21.54 6.56.66 12.31.69 15.52v-.04 1.56c0 9.38-.62 20.07-2.05 28.98-.71 4.45-1.63 8.45-2.66 11.49-.51 1.52-1.06 2.8-1.56 3.74-.5.95-.96 1.55-1.18 1.78s3.21 3.07 3.21 3.07l-2.13-3.94c-.08.05-.42.19-1.08.87l3.21 3.06-2.13-3.94.44.81-.42-.82h-.02l.44.82-.42-.82s-.26.12-.62.24c-.7.24-1.9.57-3.43.9-2.88.63-6.94 1.3-11.87 1.94-8.65 1.14-20.01 2.23-33.18 3.26-39.55 3.09-95.41 5.6-145.92 7.44l-8.06.29.36 8.06c4.04 89.58 8.15 168.63 12.2 235.13l.46 7.49 7.5.03c23.38.08 68.75.47 109.57 2.11 20.4.82 39.68 1.96 54.36 3.5 7.33.77 13.53 1.65 17.96 2.58 2.21.46 3.98.94 5.11 1.34.56.2.96.37 1.13.46l.08.04 1.39-2.19-1.72 1.93c.2.18.31.25.34.26l1.39-2.19-1.72 1.93c.63.56 1.38 1.42 2.15 2.6 1.36 2.07 2.76 5.11 3.97 8.84 1.82 5.6 3.24 12.72 4.15 20.53.92 7.82 1.36 16.35 1.36 24.88 0 13.2-1.06 26.43-2.9 37.05-.92 5.3-2.03 9.96-3.22 13.52-.59 1.78-1.21 3.28-1.77 4.43-.56 1.14-1.09 1.92-1.37 2.23s2.57 2.18 2.57 2.18l-1.84-2.86s-.26.15-.72.68l2.57 2.19-1.84-2.86s-.25.14-.61.3c-.7.3-1.91.73-3.47 1.15-2.94.81-7.11 1.67-12.14 2.48-8.82 1.44-20.3 2.79-33.29 4.02-39.02 3.69-91.71 6.33-130.48 7.92l-8.39.35.76 8.37c2.84 31.42 5.69 57.37 8.51 77.37l1.01 7.15 7.22-.28c16.29-.63 32.2-.91 47.6-.91 87.67 0 159.06 9.03 191.37 13.96l7.73 1.18 1.36-7.7-7.88-1.39ZM1035.05 35.72l4.36 6.71c1.88-1.23 4.71-2.61 8.3-3.93 6.29-2.33 14.88-4.5 25.1-6.34 15.34-2.79 34.35-4.9 55.38-6.29 21.03-1.4 44.1-2.09 67.63-2.09 40.86 0 83.17 2.09 118.84 6.15 17.83 2.03 34 4.55 47.42 7.51 6.71 1.48 12.73 3.06 17.89 4.73 5.16 1.66 9.46 3.41 12.68 5.11 2.37 1.24 4 2.45 4.67 3.14.17.17.28.3.33.36l.04.05 1.53-1.01-1.72.61c.1.27.18.4.18.4l1.53-1.01-1.72.61 3.73-1.33-3.95.09c.01.54.12.97.22 1.24l3.73-1.33-3.95.09 8-.18h-3.19l-4.81-.04v.04h4.81l-4.81-.04v.17s0 .22-.02.66c-.07 1.56-.36 5.69-1.22 15.23-.86 9.55-2.3 24.54-4.68 48.03l7.96.81 1.92-7.77c-40.53-10.02-107.42-21.89-196.87-21.89-50.74 0-108.75 3.82-173.28 13.96l1.24 7.9 7.99-.32c-.64-16.29-1.2-30.3-1.66-41.14-.23-5.42-.43-10.04-.61-13.77-.18-3.73-.33-6.55-.46-8.43v-.03l-4.09.3h4.1v-.3l-4.09.3h4.1-3.34l3.12 1.24c.11-.26.22-.72.22-1.24h-3.34l3.12 1.24-1.86-.74 1.76.96s.06-.12.1-.22l-1.86-.74 1.76.96-.71-.39.68.45.04-.06-.71-.39.68.45.02-.03c.12-.17.82-.89 2.14-1.74s-4.36-6.71-4.36-6.71l-4.36-6.71c-2.3 1.51-4.32 3.14-6.02 5.29-.84 1.08-1.6 2.3-2.16 3.71-.56 1.41-.91 3.01-.91 4.66 0 .37.02.66.03.86v-.03c.11 1.65.26 4.43.44 8.1.53 11.05 1.3 30.35 2.27 54.78l.35 8.98 8.88-1.4c63.68-10 120.87-13.77 170.8-13.77 88.03 0 153.62 11.68 193.03 21.42l8.95 2.21.93-9.17c2.73-26.89 4.22-42.7 5.04-52.02.41-4.66.64-7.71.78-9.73.07-1.01.11-1.77.14-2.36.03-.6.04-1.01.04-1.42h-3.07l3.07.02v-.02h-3.07l3.07.02v-.34c-.03-1.11-.21-2.16-.5-3.13-.51-1.69-1.29-3.09-2.17-4.3-1.33-1.81-2.89-3.26-4.63-4.59-1.75-1.33-3.7-2.54-5.87-3.69-4.37-2.3-9.46-4.32-15.24-6.19-10.11-3.26-22.37-6.02-36.29-8.41-20.87-3.57-45.45-6.25-71.63-8.04-26.18-1.79-53.95-2.7-81.12-2.7-36.35 0-71.6 1.62-100.62 4.97-14.51 1.68-27.46 3.78-38.32 6.39-5.43 1.31-10.34 2.74-14.71 4.35-4.37 1.61-8.19 3.38-11.49 5.53s4.36 6.71 4.36 6.71Zm-2.65 171.44v8h7.27c59.4 0 106.18 1.01 138.79 2.49 16.3.74 29.06 1.6 37.98 2.49 4.45.44 7.96.9 10.34 1.32 1.19.21 2.09.41 2.61.55.25.07.41.12.41.12l1.25-3.29-1.84 2.99c.43.26.58.3.59.31l1.25-3.29-1.84 2.99 4.19-6.82-5.53 5.78s.08.08.2.24c.23.3.61.9 1.01 1.74.72 1.48 1.53 3.69 2.26 6.42 1.1 4.1 2.06 9.37 2.73 15.37.67 6.01 1.07 12.76 1.12 19.92v1.66c0 11.75-.9 21.73-2.19 29.03-.64 3.65-1.38 6.63-2.07 8.72-.34 1.04-.68 1.86-.93 2.38-.12.26-.23.44-.29.54l-.05.07.98.7-.92-.78-.06.08.98.7-.92-.78 6.11 5.16-3.43-7.23 1.18 2.49-.99-2.57s-.08.03-.19.08l1.18 2.49-.99-2.57c-.08.03-.64.2-1.45.37-1.55.34-4.07.77-7.38 1.21-5.8.78-14.07 1.65-24.73 2.56-32.01 2.73-85.65 5.83-161.72 8.57-13.52.49-27.29.93-41.08 1.35l.24 8 7.98-.55-8.29-119.32-7.98.55.07 8c14.77-.13 29.55-.23 44.13-.24v-8l-.02-8c-14.64.01-29.46.1-44.26.24l-8.5.08 9.41 135.47 7.69-.23c13.81-.42 27.61-.86 41.17-1.35 63.44-2.28 111.34-4.82 144.34-7.19 16.5-1.19 29.27-2.34 38.46-3.42 4.6-.54 8.31-1.06 11.23-1.57 1.47-.26 2.73-.52 3.88-.81.58-.15 1.12-.3 1.68-.48.56-.18 1.11-.38 1.77-.7l1.56-.74 1.12-1.32c1.08-1.29 1.8-2.55 2.45-3.89 1.12-2.34 2-4.96 2.81-8.04 1.19-4.61 2.17-10.22 2.87-16.77.7-6.55 1.11-14.03 1.11-22.28v-1.77c-.09-12.49-1.13-23.9-2.98-33.22-.93-4.67-2.05-8.81-3.46-12.43-.71-1.81-1.49-3.49-2.42-5.07-.93-1.58-2-3.06-3.42-4.43l-.62-.59-.72-.44c-.82-.5-1.48-.78-2.12-1.02-1.21-.46-2.34-.74-3.65-1.03-2.42-.52-5.38-.97-9.09-1.42-6.47-.77-15.17-1.49-26.12-2.16-32.83-1.99-85.92-3.42-156.95-3.42h-7.28v8Zm-48 .27-7.98.55 8.29 119.4 7.98-.55-.24-8c-9.17.27-18.3.53-27.45.77l.21 8 8-.1-1.56-119.93-8 .1.11 8c6.89-.09 13.77-.17 20.72-.24l-.08-8-7.98.55 7.98-.55-.08-8c-6.96.07-13.86.15-20.78.24l-8 .11 1.77 136.03 8.11-.21a8655 8655 0 0 0 27.5-.77l8.32-.25-9.38-135.22-7.54.08.08 8Zm-67.08 1.07.18 8c13.79-.32 28.06-.56 42.45-.77l-.11-8-8 .1 1.56 119.97 8-.1-.21-8c-14.78.38-29.46.73-43.75 1.01-38.45.75-70.89 1.07-97.92 1.07-38.34 0-65.82-.65-84.08-1.62-9.12-.49-15.96-1.06-20.57-1.65-2.3-.29-4.04-.59-5.12-.84-.53-.12-.9-.23-1.01-.27h-.03v-.01l-.29.77.32-.76h-.03l-.29.76.32-.76-1.62 3.84 2.28-3.48c-.39-.25-.59-.33-.66-.36l-1.62 3.84 2.28-3.48-4.38 6.7 5.52-5.79c-.19-.18-.5-.53-.85-1.11-.63-1-1.38-2.66-2.02-4.81-.98-3.22-1.77-7.51-2.26-12.39-.5-4.88-.73-10.35-.73-16.04 0-10.62.8-22.03 2.03-32.08.61-5.03 1.33-9.72 2.1-13.79.76-4.06 1.58-7.53 2.33-9.97l-7.65-2.33 6.14 5.12-3.49-2.91 2.69 3.69c.13-.1.41-.31.81-.77l-3.49-2.91 2.69 3.69-.97-1.33.86 1.41.11-.07-.97-1.33.86 1.41c.08-.05.55-.29 1.3-.56 1.42-.52 3.81-1.19 7.02-1.87 5.63-1.21 13.8-2.5 24.62-3.76 16.23-1.9 38.44-3.76 67.46-5.39 29.02-1.63 64.85-3.03 108.4-4.03l-.18-8-.18-8c-75.05 1.72-127.4 4.64-161.82 7.9-17.22 1.63-29.93 3.34-38.92 5.09-4.51.88-8.08 1.75-11 2.74-1.47.5-2.78 1.02-4.06 1.69-.64.34-1.28.71-1.94 1.2-.66.48-1.36 1.07-2.06 1.91l-1.04 1.24-.47 1.55c-1 3.29-1.9 7.21-2.75 11.68-1.26 6.7-2.35 14.61-3.14 23s-1.27 17.25-1.27 25.82c0 9.34.56 18.3 2.01 26.1.73 3.9 1.69 7.52 3.04 10.84.68 1.66 1.45 3.25 2.39 4.75.94 1.5 2.04 2.94 3.39 4.23l.53.51.62.4c.58.38 1.09.63 1.56.85.92.41 1.72.67 2.58.91 1.59.44 3.32.77 5.43 1.1 3.67.56 8.43 1.06 14.56 1.51 9.17.67 21.37 1.24 37.03 1.64 15.66.4 34.77.63 57.73.63 27.15 0 59.69-.32 98.23-1.07 14.33-.28 29.05-.63 43.85-1.01l7.9-.2-1.77-135.87-8.01.12c-14.43.21-28.73.45-42.59.77l.18 8ZM537.61 69.03l8-.28v-.12l-6.94.31h6.94v-.31l-6.94.31h2.95l3.87 1.03c.07-.25.13-.61.13-1.03h-3.99l3.87 1.03-2.49-.66 2.33 1.11c.04-.08.1-.23.16-.45l-2.49-.66 2.33 1.11-.99-.47.95.54.03-.07-.99-.47.95.54c.04-.08.46-.63 1.29-1.32.83-.7 2.04-1.55 3.57-2.45 3.8-2.24 9.17-4.61 15.74-6.88 11.51-3.99 26.67-7.74 44.09-11.03 26.15-4.95 57.42-8.92 89.73-11.64 32.31-2.72 65.68-4.2 96.06-4.2 25.55 0 49.01 1.05 67.85 3.24 9.41 1.09 17.67 2.47 24.37 4.1 3.35.81 6.3 1.68 8.79 2.58 2.49.9 4.52 1.83 5.98 2.7.69.41 1.23.78 1.6 1.07.28.22.46.4.56.5l.07.08h.01v.01l1.54-1.11-1.77.64c.11.3.22.46.23.47l1.54-1.11-1.77.64 3.35-1.21h-3.55c0 .46.09.91.2 1.21l3.35-1.21h-3.55 5.47l-5.47-.05v.05h5.47l-5.47-.05v.38l8-.23-8-.18c-.05 2.25-.07 5.84-.07 10.71 0 11.43.11 29.8.27 52.68l8-.05.88-7.95c-45.25-4.98-87.18-7.04-125.6-7.04-113.89 0-196.88 18.12-243.79 32.04l2.28 7.67 7.91-1.17c-4.09-27.58-6.32-43.39-7.52-52.4-.6-4.5-.95-7.31-1.13-9.02-.1-.85-.15-1.42-.18-1.77-.02-.17-.02-.29-.03-.35v-.04l-2.7.12 2.7-.06v-.07l-2.7.12 2.7-.06v-.11l-8 .28-8 .17c.01.46.04.83.08 1.37.08.94.23 2.35.52 4.74.88 7.17 3.04 23.14 8.42 59.41l1.35 9.12 8.84-2.62c45.61-13.53 127.05-31.38 239.24-31.38 37.85 0 79.2 2.03 123.85 6.95l8.93.98-.06-8.99c-.15-22.87-.27-41.25-.27-52.58 0-4.82.02-8.38.07-10.36v-.42l-6.66.2 6.67.05v-.25l-6.66.2 6.67.05-2.87-.02 2.87.03-2.87-.03 2.87.03v-.12c0-1.7-.37-3.37-.98-4.82-.46-1.09-1.03-2.07-1.67-2.94-.96-1.31-2.06-2.4-3.24-3.38-1.18-.97-2.45-1.83-3.83-2.64-2.59-1.51-5.46-2.79-8.64-3.94-5.56-2.01-12.08-3.63-19.51-5-11.14-2.05-24.32-3.5-39.01-4.46-14.69-.96-30.87-1.41-47.93-1.41-47.08 0-100.81 3.47-147.48 9.6-23.34 3.07-44.91 6.8-63.08 11.15-9.09 2.17-17.33 4.5-24.56 7.01-7.24 2.51-13.46 5.18-18.61 8.21-3.2 1.89-5.89 3.85-8.11 6.22-1.11 1.19-2.11 2.51-2.92 4.1-.4.8-.75 1.67-1.01 2.62-.25.95-.41 1.99-.41 3.08v.43l6.01-.27-6.01.21v.06l6.01-.27-6.01.21 8-.28-8 .17 8-.17Zm10.09 72.14 2.29 7.66c44.92-13.44 125.9-31.37 237.93-31.37 37.86 0 79.27 2.05 124.04 7.01l.88-7.95-8 .05.07 11.32c.14 21.37.31 46.06.47 73.13l8-.05-.19-8c-52.98 1.26-93.01 3.02-123.32 5.04-22.74 1.51-40.01 3.17-53.21 4.87-9.9 1.27-17.52 2.57-23.47 3.87-4.46.98-7.99 1.96-10.88 2.96-2.17.76-3.98 1.53-5.57 2.38-1.19.64-2.25 1.31-3.21 2.07-1.44 1.12-2.65 2.49-3.48 3.89-.83 1.37-1.22 2.71-1.34 3.1-.42 1.37-.83 2.92-1.25 4.71-.74 3.12-1.5 6.92-2.25 11.27-2.23 13.02-4.28 30.85-4.29 48.08 0 9.92.67 19.64 2.53 28.3.94 4.33 2.17 8.42 3.87 12.17 1.71 3.75 3.9 7.2 6.89 10.06 1.19 1.12 2.3 1.76 3.38 2.3 1.02.5 2.03.88 3.09 1.23 1.99.64 4.19 1.15 6.74 1.61 4.45.81 9.97 1.47 16.71 2.04 10.1.85 22.93 1.47 38.56 1.89 15.62.42 34.04.63 55.24.63 27.37 0 59.43-.35 96.07-1.05l-.15-8h-8v21.91c0 79.76-.45 150.74-1.33 211.37l8 .12-.26-8c-43.55 1.41-76.49 3.27-101.47 5.36-18.74 1.57-33.01 3.26-43.97 5-8.22 1.31-14.58 2.64-19.61 3.99-3.77 1.02-6.8 2.05-9.32 3.13-1.89.82-3.51 1.67-4.93 2.6-1.07.7-2.02 1.46-2.87 2.29-1.27 1.23-2.29 2.66-2.94 3.99-.65 1.32-.95 2.49-1.07 2.94-.29 1.06-.6 2.38-.96 4.04-.62 2.89-1.37 6.76-2.15 11.39-2.33 13.89-4.94 34.58-4.95 55.05 0 12 .88 23.92 3.43 34.57 1.28 5.33 2.98 10.35 5.31 14.92 2.33 4.56 5.32 8.7 9.22 11.99 1.18.99 2.35 1.68 3.57 2.27 2.28 1.1 4.74 1.89 7.64 2.62 5.05 1.26 11.41 2.26 19.34 3.12 11.88 1.29 27.23 2.24 46.15 2.88 18.92.63 41.4.95 67.44.95 8.99 0 18.49-.04 28.32-.12l-.06-8-7.99-.35c-1.38 31.23-3.01 56.97-4.87 76.59l7.96.75-.06-8c-110.49.83-202.76 16.69-241.14 24.36l1.57 7.84 7.81-1.75c-7.25-32.36-16.49-80.36-26.66-136.84-30.51-169.47-69.44-415.51-89.4-549.43l-7.91 1.18 2.29 7.66-2.29-7.66-7.91 1.18c13.32 89.39 35.07 228.54 57.14 361.68 11.04 66.57 22.15 131.63 32.34 188.23 10.19 56.6 19.44 104.7 26.79 137.5l1.71 7.63 7.67-1.53c37.69-7.54 129.09-23.25 238.12-24.05l7.22-.05.68-7.19c1.9-20.03 3.54-45.99 4.93-77.39l.37-8.42-8.42.06c-9.8.07-19.26.12-28.2.12-42.1 0-74.76-.84-97.64-2.48-11.43-.82-20.42-1.84-26.75-3-3.16-.58-5.65-1.19-7.32-1.75-.83-.27-1.46-.53-1.83-.72-.19-.09-.31-.16-.36-.19h-.02v-.01l-.8 1.14.9-1.06-.09-.07-.8 1.14.9-1.06c-1.9-1.59-3.7-3.92-5.29-7.04-2.39-4.66-4.22-11.03-5.35-18.32-1.14-7.29-1.63-15.5-1.63-23.89 0-14.56 1.45-29.67 3.13-41.89.84-6.11 1.74-11.51 2.53-15.75.39-2.12.76-3.95 1.08-5.43.32-1.47.59-2.61.76-3.23.04-.16.06-.23.07-.26s-1.18-.39-1.18-.39l1.14.47.04-.09-1.18-.38 1.14.47-1.99-.82 1.77 1.22c.08-.11.17-.29.22-.41l-1.99-.82 1.77 1.22-1.12-.77 1.03.88.09-.11-1.12-.77 1.03.88c.07-.07.53-.47 1.66-1.04 1.97-1.02 5.91-2.49 12.56-4 9.99-2.3 26.06-4.77 51.22-7.01 25.17-2.25 59.46-4.28 106.08-5.78l7.63-.25.11-7.63c.88-60.73 1.33-131.78 1.33-211.6v-30.07l-8.15.16c-36.56.69-68.54 1.04-95.76 1.04-36.57 0-64.71-.63-84.14-1.86-9.7-.61-17.25-1.38-22.38-2.24-2.56-.42-4.52-.88-5.7-1.26a8.41 8.41 0 0 1-1.07-.4h-.03l-1.58 2.82 2.22-2.33c-.41-.38-.62-.49-.64-.5l-1.58 2.83 2.22-2.33c-1.09-1.03-2.29-2.72-3.37-5.12-1.64-3.57-2.96-8.62-3.77-14.47-.83-5.85-1.19-12.5-1.19-19.38 0-12.15 1.13-25.03 2.61-35.88.74-5.42 1.56-10.35 2.35-14.41.4-2.03.79-3.84 1.15-5.38.36-1.53.7-2.8.97-3.68l.04-.13v-.02l-1.05-.35 1.04.39v-.04l-1.04-.35 1.04.39-2.87-1.07 2.56 1.67c.15-.22.28-.51.31-.61l-2.87-1.07 2.56 1.67-1.74-1.14 1.43 1.52s.17-.17.31-.39l-1.74-1.14 1.43 1.52s.62-.48 1.99-1.08c2.39-1.06 7.14-2.56 15.17-4.1 12.06-2.33 31.53-4.81 62.34-7.04 30.82-2.23 72.99-4.2 130.65-5.56l7.85-.19-.04-7.86c-.16-27.07-.32-51.77-.47-73.14l-.12-18.43-7.07-.78c-45.37-5.03-87.37-7.11-125.81-7.11-113.75 0-196.29 18.21-242.52 32.04l-6.64 1.99 1.02 6.86 7.91-1.18Zm127.96 729.49 7.05-3.78c-.09-.16-.41-.81-.87-2.05-.71-1.85-1.76-5.02-3.16-10.02-1.41-5.01-3.17-11.87-5.33-21.18l-7.79 1.81 1.57 7.84c37.48-7.49 127.84-23 235.69-23.87l-.06-8-7.96-.84c-1.77 16.77-3.56 26.61-4.94 32.09-.68 2.73-1.26 4.37-1.59 5.16-.08.2-.15.34-.2.43l-.07.13 3.01 1.79-2.58-2.33c-.3.34-.42.54-.43.55l3.01 1.78-2.58-2.33 5.93 5.37-.53-7.98-27.85 1.83c-39.03 2.6-94.45 6.46-136.96 10.09-12.82 1.09-23.79 2.11-32.88 3.04-9.09.93-16.29 1.78-21.63 2.57l1.16 7.92 7.05-3.78-7.05 3.78 1.16 7.92c4.96-.73 12-1.56 20.95-2.48 8.96-.92 19.85-1.93 32.6-3.01 42.31-3.61 97.68-7.47 136.66-10.07s31.09-2.04 31.09-2.04l2.17-2.4c.59-.65 1.06-1.33 1.49-2.06.75-1.29 1.41-2.77 2.09-4.77 1.02-3 2.11-7.19 3.26-13.49 1.15-6.29 2.37-14.68 3.56-25.99l.94-8.92-8.96.07c-109.31.89-200.54 16.56-238.7 24.18l-8.09 1.62 1.87 8.04c2.94 12.66 5.18 21.01 6.9 26.64.86 2.82 1.59 4.95 2.22 6.63.64 1.68 1.18 2.89 1.73 3.93l2.65 4.94 5.55-.81-1.16-7.92Zm187.61 2.17.22-8c-1.05-.03-2.15-.04-3.31-.04-5.09 0-11.32.25-17.97.63-19.92 1.13-43.5 3.41-47.48 3.8-13.64 1.36-25.32 2.74-35.21 4.15-9.89 1.41-17.98 2.85-24.49 4.37l1.83 7.79 7.88-1.4-2.34-13.17-7.88 1.4.67 7.97c40.25-3.38 91.02-6.94 128.4-9.44l-.53-7.98-8 .18.23 9.92 8-.18.22-8-.22 8 8-.18-.42-18.28-8.34.56c-37.44 2.5-88.24 6.06-128.68 9.46l-8.74.74 5.36 30.12 8.23-1.93c5.81-1.37 13.51-2.75 23.09-4.11 9.59-1.36 21.07-2.72 34.55-4.07 2.56-.25 13.86-1.35 26.88-2.37 6.51-.51 13.45-1.01 19.92-1.38 6.47-.37 12.5-.6 17.07-.6 1.04 0 2 .01 2.86.04l8.42.24-.19-8.42-8 .18Zm703.28 407.13-4.3-6.75c-20.45 13.02-43.17 21.16-67 26.39s-48.72 7.52-73.3 8.93c-35 2.01-70.65 2.64-105.23 3.25-74.66 1.33-152.36 2.65-226.86 18.42-74.67 15.84-146.59 46.31-215.73 75.54-78.41 33.18-158.93 67.16-243.62 80.95-26.41 4.31-53.64 6.5-80.88 6.5-71.09 0-141.2-14.65-204.64-41.54s-120.18-66.03-164.6-114.89c-30.77-33.84-57.48-73.47-79.97-118.63-22.48-45.16-40.72-95.86-54.52-151.79-14.97-60.68-22.29-120.68-22.29-178.2 0-65.02 9.35-126.87 27.55-182.92 18.2-56.06 45.22-106.31 80.56-148.28 20.41-24.25 46.86-47.89 76.71-65.32 14.92-8.72 30.68-15.9 46.96-20.88 16.28-4.99 33.06-7.78 50.09-7.78 12.31 0 24.76 1.46 37.28 4.63 17.32 4.38 32.86 11.58 46.79 20.53 20.89 13.42 38.13 30.83 51.88 48.38 13.75 17.54 23.98 35.2 30.93 48.96 16.44 32.52 28.16 67.58 39.6 101.9 6.9 20.68 14.07 42.21 22.27 62.89a596.87 596.87 0 0 0 63.49 118.82c7.08 10.25 15.13 21.11 24.61 30.72 4.74 4.8 9.84 9.29 15.39 13.21 5.54 3.92 11.53 7.26 18.01 9.72 7.03 2.67 14.51 3.91 22.01 3.91 9.08 0 18.19-1.81 26.67-5.25 8.47-3.44 16.33-8.52 22.77-15.17.53-.55.84-.87 1.13-1.11.22-.18.42-.34.74-.55.47-.3 1.21-.71 2.47-1.21 1.25-.5 3.01-1.1 5.4-1.75 5.27-1.44 12.95-2.95 22.96-4.43 10.02-1.49 22.39-2.97 37.22-4.45h-.02c9.04-.88 21.25-1.97 33.01-2.84 5.88-.43 11.66-.81 16.86-1.07 5.2-.27 9.84-.42 13.37-.42 1.26 0 2.37.02 3.3.06.92.04 1.66.1 2.1.15h-.05l.62.07 1.03-7.93-1.35 7.88a5.9 5.9 0 0 1 3.56 2.06 5.99 5.99 0 0 1 1.4 3.82c0 .33-.03.67-.09 1.04v-.02c-.2 1.19-.77 2.27-1.63 3.12a6.11 6.11 0 0 1-3.24 1.68c-.58.1-.96.13-1.32.13-.25 0-.5-.02-.82-.06l-.37-.05-.54-.02-.33 7.99 2.81-7.49c-.61-.23-1.21-.37-1.73-.45-.52-.08-.95-.09-1.28-.09-.47 0-.71.03-.74.03s.43 6.03.43 6.03v-6.04c-.24 0-.41.01-.43.01l.43 6.02v1.96l.32-7.99c-.7-.03-1.45-.04-2.27-.04-2.68 0-6.18.12-10.42.33-14.8.74-38.42 2.65-60.36 5-10.97 1.18-21.5 2.47-30.32 3.79-4.41.66-8.39 1.33-11.83 2.01-1.72.34-3.3.69-4.75 1.04-1.45.36-2.76.72-3.99 1.13h.03c-1.71.55-3.25 1.5-4.51 2.73h.01c-.09.08-.33.29-.73.63h-.02l-.87.78-.08.07c-7.41 6.72-16.13 11.93-25.47 15.46-9.34 3.52-19.29 5.35-29.11 5.35-9.05 0-17.98-1.55-26.25-4.7-6.9-2.62-13.3-6.08-19.29-10.16-8.98-6.13-17.05-13.7-24.37-21.95s-13.9-17.16-19.93-25.91a609.007 609.007 0 0 1-64.76-121.21c-8.26-20.84-15.48-42.47-22.51-63.56-11.62-34.84-22.71-68.16-38.92-100.25-8.68-17.16-22.62-40.7-42.62-62.23-10.01-10.76-21.54-21.01-34.72-29.64-13.18-8.63-28.01-15.63-44.53-19.81-11.54-2.92-23.08-4.27-34.48-4.27-16.44 0-32.57 2.8-48.08 7.68-23.26 7.32-45.13 19.3-64.8 33.69-19.67 14.39-37.15 31.21-51.6 48.38-34.68 41.19-61.02 90.44-78.68 145.16-17.66 54.72-26.66 114.92-26.66 178.13 0 56.68 7.23 115.78 21.98 175.56 13.48 54.65 31.27 104.29 53.26 148.62 21.99 44.32 48.19 83.32 78.47 116.63 44.03 48.42 99.86 86.53 161.75 112.56 61.9 26.03 129.89 39.98 198.35 39.98 26.45 0 52.98-2.09 79.25-6.37 41.95-6.85 82.94-18.77 123.06-33.03 40.12-14.26 79.37-30.87 117.84-47.14 70.34-29.76 142.64-60.28 217.9-76.22 75.07-15.92 153.11-17.35 229.13-18.68 34.3-.6 69.87-1.23 104.75-3.23 23.05-1.33 46.75-3.43 69.67-8.31 22.91-4.88 45.1-12.55 64.91-25.16 23.52-14.99 42.1-36.99 54.81-62.52 12.71-25.54 19.6-54.67 19.61-84.22 0-16.96-2.28-34.07-7.06-50.7-9.89-34.35-29.08-66.11-55.14-92.98-26.06-26.87-58.99-48.89-96.52-63.78-40.06-15.88-82.59-21.03-122.41-21.04-38.15 0-73.88 4.74-102.68 9.51h.03c-.15.02-.36.04-.65.04-.29 0-.67-.02-1.14-.08h.03c-1.09-.14-1.83-.43-2.37-.77h-.01c-.75-.47-1.61-.88-2.57-1.19-1.57-.5-3.26-.91-5.21-1.31-3.39-.69-7.52-1.32-12.28-1.89-14.24-1.72-34.06-2.97-53.36-2.98-10.32 0-20.48.36-29.57 1.23-4.55.43-8.83 1-12.78 1.72-3.95.73-7.54 1.61-10.79 2.77-.32.11-.85.24-1.86.27l.18 8-.1-8h-.14c-1.32 0-2.56-.4-3.56-1.09-1-.7-1.74-1.63-2.16-2.79-.24-.69-.36-1.36-.36-2.02 0-.86.19-1.7.58-2.53.36-.76.82-1.38 1.38-1.89.56-.51 1.22-.91 2-1.19 1.24-.44 2.74-.89 4.46-1.32 3.09-.78 6.81-1.49 10.96-2.09 12.47-1.84 28.84-2.77 45.55-2.76 13.84 0 27.96.63 40.42 1.84 6.23.61 12.04 1.36 17.17 2.24 5.12.88 9.58 1.89 12.99 2.96.89.27 1.51.35 2.07.42.55.06 1.02.07 1.47.07.77 0 1.42-.05 2.17-.16s.69-.11.69-.11h.05c28.15-4.52 62.61-8.88 99.47-8.88 41.12 0 85.16 5.43 126.74 21.94 39.47 15.66 74.04 38.94 101.29 67.24 27.25 28.31 47.16 61.61 57.44 97.32 5.21 18.11 7.71 36.64 7.71 54.96 0 31.65-7.47 62.68-21.25 89.74-13.77 27.07-33.81 50.14-58.89 66.11l4.3 6.75 4.3 6.75c27.72-17.66 49.61-42.98 64.56-72.35 14.95-29.38 22.99-62.83 22.99-97 0-19.78-2.7-39.8-8.33-59.39-11.07-38.46-32.4-73.98-61.29-103.99-28.9-30.01-65.38-54.53-106.91-71.02-44.08-17.48-90.14-23.06-132.64-23.06-38.11 0-73.42 4.49-102 9.08l-.64.1.26 1.7v-1.72c-.07 0-.03 0-.26.03l.26 1.7v.38l.22-2.09c-.15-.02-.2-.01-.22-.01v2.1l.22-2.09-.55 5.2 1.55-4.99c-.59-.18-.84-.19-1-.22l-.55 5.2 1.55-4.99c-4.38-1.36-9.42-2.48-15.04-3.45-8.41-1.44-18.09-2.51-28.38-3.23-10.28-.72-21.17-1.08-31.91-1.08-11.54 0-22.92.42-33.25 1.29-5.17.43-10.08.98-14.63 1.65-4.55.67-8.75 1.46-12.52 2.4-2.12.53-4.1 1.12-5.95 1.77-2.74.98-5.24 2.48-7.36 4.4a21.893 21.893 0 0 0-5.1 6.89 21.818 21.818 0 0 0-2.13 9.4c0 2.51.44 5.02 1.29 7.41 1.57 4.4 4.49 8.06 8.14 10.57 3.64 2.52 8.04 3.93 12.64 3.93h.42c2.33-.05 4.66-.4 6.88-1.19 2.1-.76 4.95-1.49 8.3-2.1 5.03-.93 11.18-1.61 17.92-2.05 6.74-.44 14.07-.64 21.53-.64 14.16 0 28.81.71 40.92 1.77 6.05.53 11.48 1.15 15.85 1.8 2.18.32 4.1.65 5.68.98 1.57.32 2.81.64 3.51.86s1.27-3.94 1.27-3.94l-2.17 3.53c.23.14.53.29.9.41l1.27-3.94-2.17 3.53h-.01c2.65 1.63 5.64 2.61 8.7 3.01h.03c1.03.13 2.08.21 3.14.21s2.14-.08 3.22-.25h.03c28.36-4.71 63.23-9.3 100.07-9.3 38.46 0 78.99 5.01 116.51 19.91 35.49 14.08 66.53 34.87 90.93 60.04 24.41 25.18 42.16 54.7 51.25 86.27 4.35 15.12 6.44 30.74 6.44 46.27 0 27.05-6.34 53.83-17.93 77.09-11.58 23.26-28.36 42.96-49.09 56.16-17.69 11.27-38 18.4-59.64 23.01-21.64 4.61-44.56 6.68-67.25 7.98-34.45 1.98-69.82 2.61-104.11 3.21-76.02 1.35-155.09 2.7-232.17 19.03-77.26 16.39-150.46 47.4-220.82 77.14-38.47 16.27-77.44 32.75-116.97 46.8-39.53 14.06-79.61 25.68-120.27 32.32-25.4 4.14-51.06 6.16-76.67 6.16-66.28 0-132.23-13.53-192.15-38.73-59.93-25.2-113.82-62.05-156.12-108.58-29.19-32.1-54.57-69.83-75.98-112.97-21.4-43.14-38.82-91.68-52.06-145.34-14.45-58.57-21.52-116.41-21.52-171.73 0-61.7 8.79-120.25 25.89-173.22s42.49-100.33 75.7-139.77c18.23-21.66 41.7-42.83 67.92-58.43 13.11-7.8 26.89-14.22 41.04-18.67 14.15-4.45 28.66-6.94 43.27-6.94 10.14 0 20.34 1.2 30.55 3.78 14.6 3.69 27.79 9.89 39.69 17.68 17.84 11.68 32.75 26.96 44.7 42.43 11.96 15.46 20.97 31.08 27.12 43.26 15.53 30.7 26.41 63.23 38.02 98.09 7.03 21.09 14.34 43 22.82 64.39a625.057 625.057 0 0 0 66.47 124.4c8.31 12.04 17.87 24.82 29.45 36.23 5.79 5.7 12.09 11.05 19 15.77 6.91 4.71 14.43 8.79 22.62 11.9 10.22 3.88 21.07 5.74 31.94 5.74 11.8 0 23.62-2.18 34.76-6.38 11.13-4.2 21.58-10.43 30.57-18.57l-5.37-5.93 5.29 6 .87-.77h-.02c.29-.24.74-.62 1.31-1.17h.01l-2.97-3.06 1.33 4.04c.62-.21 1.18-.55 1.64-.99l-2.97-3.05 1.33 4.04h.03c.72-.25 1.84-.57 3.22-.89 2.6-.62 6.14-1.29 10.29-1.97 7.27-1.19 16.43-2.4 26.28-3.53 14.78-1.7 31.13-3.23 45.24-4.33 7.05-.55 13.55-1 18.99-1.3 5.43-.31 9.85-.47 12.57-.47.67 0 1.23.01 1.64.03h.32c.39 0 .68-.02.75-.03h.02l-.23-3.07.21 3.07h.02l-.23-3.07.21 3.07-.45-6.61v6.63c.25 0 .4-.01.45-.01l-.45-6.61v6.63-7.32l-1.08 7.24c.45.07.82.08 1.08.08v-7.32l-1.08 7.24 1.11-7.43-2.64 7.03c.55.21 1.08.33 1.53.4l1.11-7.43-2.64 7.03 1.2.45 1.46.06.33-7.99-1.05 7.93c.96.13 1.94.2 2.92.2 1.39 0 2.76-.14 4.06-.37 4.57-.79 8.65-2.98 11.79-6.09a21.78 21.78 0 0 0 6.12-11.77v-.02c.21-1.23.32-2.47.32-3.7 0-5.27-1.9-10.22-5.11-14.07a21.941 21.941 0 0 0-13.14-7.58l-.16-.03-.78-.1h-.05c-1.07-.14-2.18-.21-3.4-.26-1.21-.05-2.53-.07-3.95-.07-3.98 0-8.82.17-14.19.44-16.08.82-36.87 2.62-50.61 3.97h-.02c-15 1.5-27.6 3.01-37.98 4.55-10.39 1.54-18.54 3.11-24.83 4.82-2.52.69-4.63 1.37-6.47 2.07-1.38.53-2.6 1.07-3.72 1.65-1.67.86-3.1 1.82-4.25 2.77-1.16.95-2 1.84-2.59 2.44-4.73 4.88-10.71 8.8-17.29 11.47-6.57 2.67-13.72 4.08-20.65 4.08-5.73 0-11.3-.95-16.33-2.87-5.03-1.91-9.84-4.57-14.46-7.83-6.92-4.89-13.39-11.14-19.39-18.05s-11.54-14.46-16.67-21.9A581.413 581.413 0 0 1 549.1 744.4c-7.98-20.12-15.07-41.37-21.96-62.05-11.45-34.32-23.37-70.14-40.5-104.06-9.76-19.3-25.56-45.81-48.5-70.09-11.47-12.14-24.73-23.72-39.94-33.49-15.2-9.77-32.36-17.74-51.52-22.58-13.84-3.51-27.63-5.12-41.21-5.12-18.79 0-37.16 3.09-54.78 8.48-26.43 8.1-51.17 21.37-73.34 37.36-22.17 15.99-41.76 34.7-57.88 53.84-36.81 43.72-64.78 95.84-83.54 153.65C17.17 758.15 7.6 821.64 7.6 888.2c0 58.88 7.49 120.16 22.75 182.04 14.05 56.93 32.66 108.74 55.73 155.08 23.07 46.35 50.6 87.23 82.45 122.27 46.13 50.73 104.79 91.12 170.19 118.85 65.41 27.73 137.6 42.81 210.89 42.81 28.1 0 56.17-2.26 83.46-6.71 87.21-14.24 168.86-48.86 247.28-82.01 69.13-29.25 140.19-59.25 212.82-74.63 72.45-15.37 149.17-16.77 223.82-18.08 34.58-.61 70.44-1.24 105.87-3.27 24.94-1.44 50.66-3.77 75.81-9.28 25.13-5.51 49.72-14.23 72.17-28.53l-4.3-6.75Z" fill="#eaa040" data-color="1"/>
    </g>
</svg>
