<?xml version="1.0" encoding="UTF-8"?>
<svg data-bbox="0.003 -0.007 648 828.124" viewBox="0 0 648 828.13" xmlns="http://www.w3.org/2000/svg" data-type="color">
    <g>
        <path d="M249.77 361.93c11.23-7.8 21.29-14.88 31.45-21.81 11.31-7.72 23.97-13.98 33.7-23.32 9.79-9.4 16.68-21.81 24.88-32.87 20.32-27.4 42.84-50.62 79.56-55.83 24.3-3.45 48.05-11 71.93-17.14 48.18-12.38 88.1-37.83 121.39-74.89 23.74-26.44 42.05-58.06 32.94-91.7-2.08-3.5-3.76-7.15-6.18-10.23C620.08 9.42 608.42 6.12 578.19 14c-12.29 3.21-25.2 4.24-37.91 5.56-19.61 2.04-39.25 3.95-58.93 5.06-42.97 2.43-151.95-8.53-163.74-9.61-40.11-3.67-80.97-3.56-120.15-11.64-31.45-6.49-60.58-2.69-90.25 3.52-34.88 7.3-58.82 30.67-77.77 58.47C14.4 62.05-3.83 69.69.71 83.82c23.79 35.24 399.7 587 486.02 690.86 10.32 16.17 41.46 61.23 56.09 52.27 20.42-13.82 10.58-33.38 1.88-48.81-16.46-29.2-278.86-387.6-294.93-416.21ZM277.12 331c-11.1 6.23-23.28 10.55-40.47 18.17-12.43-13.24-24.43-32.16-35.17-43.59 1.51-21.39 4.68-31.83 16.53-44.96 23.6-26.15 46.49-53.15 81.52-71.59 14.32 28.71 24.79 56.17 24.43 85.81-.36 29.83-24.22 43.47-46.84 56.16Zm12.95-152.35c-36.01 32.18-80.66 61.15-102.6 109.22-11.97-19.12-59.76-86.63-98.07-141.01 8.96-9.6 68.29-51.6 95.63-59.39 12.1-3.45 22.91-3.67 34.41 1.72 26.6 12.47 53.68 51.83 70.63 89.46ZM235.4 85.28c50.7 5.72 113.34 19.64 156.25 19.38 7.95 15.94 11.65 29.55 6.01 44.15-27.71 10.42-55.8 16.87-95.38 18.87-12.97-18.18-30.95-52.1-66.88-82.4ZM386.23 227.6c-16.51 7.11-30.8 19.4-49.39 31.6-8.34-26.2-15.58-48.94-23.7-74.43 29.28-13.47 60.12-16.4 91.8-22.79 12.83 15.74 25.56 31.36 40.74 49.98-22.71 5.71-42.15 8.2-59.44 15.65Zm20.11-119.39c5.97-2.48 10.92-5.48 16.27-6.61 30.64-6.47 61.34-12.65 92.11-18.51 4.57-.87 9.57.49 13.92.78 13.77 15.07 13.59 28.53-.86 41.55-28.14 8.36-56.19 17.09-84.52 24.8-6.89 1.87-14.69.37-22.56.43-5.77-17.05-9.78-28.91-14.35-42.44Zm150.57 65.59c-27.09 9.63-68.45 25.67-96.02 35.48-13.61-13.72-23.78-35.27-36.99-48.59 51.97-4.4 78.14-17.19 118.27-25.76 12.3 13.68 22.45 21.61 14.73 38.87Zm11.85-14.91c-5.06-10.1-9.15-18.28-13.65-27.26 17.65-21.43 37.6-32.26 66.58-30.27-12.49 24.87-31.09 40.11-52.93 57.53ZM610.7 29.65c19.11 8.61 21.56 17.28 24.3 46.14-32.92 12.71-62.24 27.59-87.5 44.72 2.3-15.98-1.01-31.43-6.44-40.73 19.94-23.46 45.46-36.29 69.65-50.13Zm-9.04-8.21c-27.71 15.36-58.2 43.49-72.31 51.82-9.21-7.39-26.55-17.89-30.13-33.02 19.99-12.9 49.96-16.23 102.45-18.8ZM484.2 35.66c8.59 11.65 16.02 21.73 25.81 35.02-36.78 13.69-71.32 20.74-108.91 20.61-15.31-17.04-32.52-40.25-49.46-59.1 47.03-1.96 91.8 5.18 132.56 3.47ZM178.4 11.68c42.06 3.41 83.93 9.36 126.01 12.37 21.47 1.54 37.88 9.19 50.22 26.39 8.89 12.4 17.8 24.79 28.21 39.28-32.2 7.12-155.94-16.57-175.11-21.75-27.19-15.8-63.04-47.54-65.22-56.15 10.22-2.08 26.06-.93 35.89-.14Zm-56 6.23c10.99 7.01 37.31 29.96 41.51 34.38 6.6 6.93 14.04 13.06 23.68 21.87-33.26 15.22-74.68 33.76-104.56 63.66C62.15 108.18 47.6 87.41 42.1 78.91c14.59-35.57 40.54-57.68 80.29-61.01Zm415.51 796.58c-5.76 3.45-21.54-15.12-24.64-19.89-9.68-14.86-467.79-667.06-479.5-678.83-5.65-8.48-24.34-29.02-16.43-36 9.25-7.2 19.89 13.35 23.38 19.57C53.41 122.02 462.03 687.28 541.95 796c5.59 10.24-2.36 17.52-4.03 18.5Z" fill="#eaa03f" data-color="1"/>
    </g>
</svg>
