<?xml version="1.0" encoding="UTF-8"?>
<svg data-bbox="0.006 -0.01 1210.585 496.581" viewBox="0 0 1210.61 496.58" xmlns="http://www.w3.org/2000/svg" data-type="color">
    <g>
        <path d="M6.89 155c3.04 3.59 2.98 6.17 1.42 9.97-2.45 5.95-5.64 12.4-2.4 18.59 3.99 7.61 3.75 15.32 3.51 23.37-.09 3.09 1.02 6.32 2.1 9.3 1.15 3.17 1.91 6.1.03 9.2-4.9 8.08-2.18 15.67 2.15 22.71 3.07 4.98 7.11 9.38 10.83 13.95 1.77 2.17 2.91 4.3 2.23 7.27-2.13 9.3 1.49 16.83 7.73 23.38 2.32 2.44 3.92 4.72 3.11 8.46-2.29 10.51 3.6 17.33 11.25 23.04 4.78 3.57 10.31 5.68 16.02 7.35 4.08 1.19 6.22 3.52 5.7 8.24-1.3 11.98 5.05 20.45 13.59 27.64 7.02 5.91 14.9 10.56 23.25 14.31 5.13 2.3 8.61 5.34 10.52 11.05 5.22 15.55 17.18 24.27 32.28 28.89 8.2 2.51 16.67 4.03 25.33 4.43 16.78.77 33.26-1.34 49.52-5.09 18.3-4.22 36.64-8.42 54.67-13.63 78.06-22.52 157.6-37.62 238-48.63 5.1-.7 9.13-.54 13.47 2.65 11.38 8.37 23.85 8.76 36.65 3.51 3.52-1.44 6.97-2.6 10.87-2.41 7.79.38 14.97-2.16 21.29-6.31 5.26-3.46 10.11-5.02 16.54-3.52 9.11 2.13 18.27.92 26.55-3.69 4.17-2.32 7.96-2.5 12.26-.83 2.48.96 5.24 2.07 7.76 1.86 10.42-.87 18.76 4.14 26.92 9.26 8.63 5.4 17.34 10.89 25.12 17.42 22.23 18.66 45.87 35.52 68.2 53.98 26.44 21.86 55.64 38.22 87.84 49.61 9.61 3.4 19.06 7.25 28.68 10.63 7.6 2.67 15.31 5.17 23.45 5.49 4.26.17 8.68.3 12.8-.61 9.7-2.13 16.6-11.42 14.34-20.18-3.83-14.81-11.92-26.5-27.66-30.68-4.61-1.23-9.55-1.51-14.36-1.64-8.21-.23-16.07-1.97-23.32-5.6-25.45-12.75-50.8-25.7-73.19-43.6-13-10.39-26.1-20.67-39.12-31.03-1.92-1.53-4.45-2.84-3.2-6.6 2.04.38 4.12.71 6.17 1.16 49.88 11.05 97.72 29 146.44 43.93 26.78 8.2 53.56 15.78 81.27 19.55 24.5 3.33 49.1 5.16 73.87 2.29 27.66-3.2 47.89-17.76 62.59-40.52 3.57-5.53 7.48-10.1 12.65-14.13 12.55-9.78 19.66-22.49 18.91-38.92-.14-3.19-.61-6.75.52-9.55 3.3-8.19 4.31-16.55 3.84-25.24-.16-2.88 1.13-5.04 3.62-6.67 2.69-1.76 5.3-3.68 7.71-5.81 11.28-9.93 17.7-21.59 12.34-37.05-.98-2.81-.78-5.18 1.03-7.48 1.33-1.69 2.8-3.29 3.93-5.1 10.18-16.22 7.44-33.69-7.18-45.96-2.02-1.69-4.18-3.22-7.06-5.42 7.18-14.03 8.51-16.1 4.78-23.87-3.09-6.45-1.49-9.71 3.29-13.5 2.91-2.31 5.61-5.07 7.79-8.08 5.84-8.06 3.97-15.26-4.89-19.86-1.41-.73-3.04-1.04-4.6-1.44-3.76-.96-5.2-3.5-4.83-7.15.91-8.97-1.35-17.06-6.79-24.2-2.27-2.98-2.48-5.71-.13-8.69.99-1.25 1.9-2.63 2.5-4.1 3.14-7.75.65-13.97-7.06-16.82-4.51-1.67-9.32-2.52-13.93-3.95-6.93-2.15-6.91-2.23-4.6-9.87 3.11-10.28-.06-16.9-9.96-19.88-3.56-1.07-7.37-1.52-11.1-1.75-10.73-.67-21.47-.59-32.17.66-10.13 1.18-20.27 2.24-30.41 3.38-4 .45-7.26-.44-9.76-3.99-4.8-6.81-11.56-11.01-19.32-13.84-7.15-2.61-14.51-3.73-22.05-4.29-14-1.03-27.9.4-41.83 1.2-28.45 1.62-56.77 4.38-84.42 11.59-32.19 8.4-64.27 17.23-96.36 26.01C754.23 52.89 703.36 64.3 654.4 82.31c-3.83 1.41-7.2.77-10.85-.53-4.52-1.62-9.26-3.98-13.83-3.84-9.7.3-17.39-3.41-25.26-8.41-8.91-5.66-18.87-8.34-28.99-2.85-4.61 2.5-8.12.66-12.1-1.01-12.34-5.2-25.03-6.88-37.47-.95-5.69 2.71-9.71 2.11-14.57-1.57-8.62-6.53-18.23-11.26-28.95-13.54-7.78-1.65-15.79-1.25-21.32 4.18-6.42 6.31-12.82 6.35-20.44 4.3-4.65-1.25-9.42-2.19-14.2-2.86-25.52-3.6-51.08-6.94-76.59-10.62-45.19-6.51-90.14-14.13-133.81-28.07-24.18-7.72-49.13-11.37-74.57-11.37-6.48 0-12.87.36-19.16 2.01-16.75 4.4-28.43 14.43-33.75 31.07-1.02 3.17-2.62 4.37-5.45 4.64-3.2.31-6.42.55-9.64.65-7.6.23-14.96 1.6-21.91 4.66-9.19 4.04-15.19 10.56-13.57 21.21.83 5.5-.26 8.94-4.94 12.19-10.05 6.97-14.9 16.71-12.96 29.16.66 4.23-.51 7.21-4.32 9.34-2.33 1.3-4.54 2.9-6.55 4.66-11.36 9.93-12.27 18.45-2.3 30.22Zm25.86 97.02c-3.53-5.71-11.8-10.79-7.99-17.89 3-5.58 11.52-4.31 17.87-4.59 36.47-1.6 72.97-2.56 109.4-4.73 33.35-1.99 66.55-.22 104.57 1.94 46.16 5.74 97.1 2.41 148.03-.56 38.58-2.25 77.14-4.77 115.72-7.14 5.62-.34 9.19 5.37 6.98 11.06-.9 2.31-2.87 2.95-5.09 3.1-9.64.63-19.29 1.16-28.92 1.89-29.97 2.27-59.92 4.72-89.9 6.91-32.65 2.39-65.3 4.88-97.99 6.73-27.32 1.55-54.62 4.09-82.04 3.58-11.8-.22-23.6-.71-35.39-1.41-20.37-1.21-40.7-3.35-61.08-3.89-28.46-.76-56.94-.23-84.52 8.36-4.25 1.32-7.42.29-9.66-3.35ZM510.11 172c-57.77 3.54-115.32 12.07-175.41 7.87-28.68-.59-58.92-5.48-89.23-9.41-27.87-3.62-55.63-3.39-83.51-1.49-32.13 2.18-64 6.56-95.78 11.65-7.4 1.19-14.91 1.8-22.38 2.46-3.19.28-6.45.28-9.63-.05-10.52-1.07-12.91-5.96-7.76-15.22 1.46-2.63 3.53-3.87 6.43-3.85 36.58.21 72.57-6.81 108.99-8.85 39.84-2.23 79.3-1.06 118.58 6.31 44.02 8.26 88.41 10.2 133.03 6.23 30.44-2.71 60.87-5.58 91.32-8.21 6.93-.6 13.93-.44 20.9-.68 4.46-.16 6.84 2.26 8.15 6.23 1.31 3.95.06 6.77-3.7 7Zm6.21 19.23c3.67.05 6.45 4.01 5.93 8.07-.19 1.49-.65 3.23-2.6 3.63-1.56.32-3.13.74-4.71.82-35.92 1.71-71.84 3.5-107.77 5-25.74 1.08-51.49 2.05-77.25 2.55-24.18.46-48.28-1.68-72.35-3.77-43.42-3.65-86.83-4.25-130.3-.56-21.38 1.81-42.86 2.52-64.26 4.14-10.15.77-20.22 2.52-30.33 3.75-3.5.43-5.61-2.4-4.78-6.21 1.06-4.87 3.56-7.35 8.72-7.86 6.4-.64 12.86-.68 19.25-1.41 25.06-2.85 50.07-6.07 75.14-8.79 46.68-5.06 93.17-3.55 139.66 3.22 51.17 7.45 102.58 9.4 154.17 4.06 24.02-2.49 48.11-4.25 72.18-6.16 6.41-.51 12.88-.56 19.31-.47ZM41.61 280.51c-4.48-5.45-3.22-9.98 3.65-12.04 13.01-3.91 26.51-4.03 39.91-4.17 26.88-.29 53.67 1.76 85.28 4.64 38.52 6.37 81.96 2.83 125.37.19 31.08-1.89 62.17-3.74 93.19-6.36 43.86-3.7 87.65-8.11 131.48-12.16 2.63-.24 5.38-.36 7.91.21.98.22 1.85 2.42 2.14 3.84.31 1.49.2 3.46-1.63 4.1-1.97.7-4.08 1.17-6.16 1.34-23.54 1.91-47.11 3.54-70.64 5.64-42.24 3.78-84.48 7.56-126.67 11.86-33.1 3.37-66.1 7.81-99.2 11.25-26.77 2.79-53.55 2.94-80.32-1.12-28.79-4.37-57.71-6.4-86.44.56-8.26 2-13.28-2.19-17.9-7.8Zm449.82 71.72c-8.65-.31-17.18.96-25.71 2.22-8.15 1.21-16.29 2.35-24.4 3.81-16.46 2.97-32.83 6.34-49.32 9.13-27.03 4.59-54.36 7.45-81.26 12.7-18.46 4.51-36.9 9.15-55.36 13.7-15.62 3.85-31.44 6.96-47.26 9.9-14.92 2.77-29.96 2-44.9-.35-6.96-1.1-13.59-3.25-18.74-8.43-.61-.61-.66-1.89-.74-2.87-.1-1.23.71-1.77 2.07-1.85 15-.96 30.02-1.67 44.98-2.99 37.48-3.3 74.42-10.21 111.26-17.61 29.47-5.92 58.87-12.24 88.88-14.88 11.37-1 22.79-1.57 34.19-2.27 5.97-1.15 11.95-2.27 17.94-3.32 16.04-2.8 32.85-6.13 49.18-5.55 5.6.2 4.76 8.86-.82 8.66Zm38.83-26.6c-.27 2.73-1.22 5.07-4.34 6.01-4.7 1.42-9.45 1.86-14.31 1.58-41.41-2.43-82.64 1.12-123.85 4.12-27.86 2.03-55.21 7.93-82.6 13.27-28.44 5.55-56.9 10.96-85.42 16.08-20.66 3.7-41.62 4.35-64.59 4.76-19.81 1.83-39.25-4.7-56.98-17.01-2.6-1.81-4.74-4.29-7.03-6.53-.3-.29-.43-1.26-.22-1.46.64-.58 1.65-1.46 2.22-1.28 7.64 2.44 15.11 5.48 22.85 7.52 19.59 5.16 39.5 4.1 59.19 1.06 33.93-5.24 67.75-11.22 101.62-16.9 43.44-7.28 87.17-12.03 131.07-15.31 33.18-2.48 66.39-4.72 99.59-7.02 5.89-.41 11.8-.66 17.7-.78 1.48-.03 3.45.27 4.37 1.22 3.13 3.2 1.09 7.08.73 10.68Zm-6.61-32.44c-26.84.82-53.63 2.15-80.42 4.09-64.85 4.7-129.23 12.74-193.13 24.8-28.47 5.38-57.01 10.43-85.6 15.13-15.45 2.54-31.09 2.06-46.53-.61-6.3-1.09-13-2.27-18.47-5.3-10.9-6.04-22.5-10.03-34.1-14.21-4.52-1.62-9.05-3.57-12.46-7.18-1.04-1.1-2.22-2.73-2.17-4.07.09-2.32 2.23-3.6 4.34-3.92 6.88-1.06 13.79-2.39 20.72-2.63 7.48-.26 15.01.6 22.51.97 16.78-.42 33.05 3.56 49.5 5.94 31.64 4.58 63.22 3.73 94.77-.1 62.36-7.57 124.89-13.33 187.43-19.06 32.07-2.94 64.14-6.02 96.21-8.98 4.29-.4 5.54.88 5.94 5.33.69 7.74-.65 9.56-8.53 9.8ZM799.6 406.27c23.56 18.96 49.85 33.19 77.11 45.86 9.34 4.34 19.12 6.83 29.48 6.99 4.28.07 8.58.3 12.83.81 8.98 1.08 14.43 6.32 16.91 14.89.94 3.24-1.07 6.3-4.56 7-4.33.87-8.53.25-12.7-.86-31.14-8.29-61.36-19.06-89.58-34.76-8.36-4.65-16.02-10.71-23.59-16.64-26.12-20.5-51.97-41.35-78.13-61.8-5.81-4.55-11.9-8.75-18.61-13.37-3.59-2.47-1.56-8.17 2.77-7.72 10.55 1.08 19.21 5.28 27.42 12 19.88 16.28 40.63 31.5 60.65 47.61Zm327.89-36.18c-1.94 8.75-7.52 16.53-14.51 22.21-16.69 13.56-39.78 15.59-61.27 15.28-68.44-1.01-135.32-19.88-200.22-41.65-38.23-12.82-76.56-26.81-116.69-30.77a238.576 238.576 0 0 0-37.99-.72c-3.64.22-8.49-.36-9.11-3.95-.73-4.21 5.16-6 9.43-5.94 127.39 1.76 246.89 78.46 373.97 69.46 9.4-.67 19.12-1.92 27.13-6.88 8.86-5.49 14.79-15.45 15.38-25.86.59-10.41-4.17-20.98-12.35-27.44-7.43-5.87-16.98-8.2-26.23-10.26-110.61-24.6-224.46-31.11-337.76-32.23-11.77-.12-23.92-.26-34.66-5.06-.25-2.62 3.27-3.68 5.9-3.8a1302.494 1302.494 0 0 1 182.58 4.99c16.72 1.64 32.87 1.78 49.25 5.51 2.04.46 4.07.94 6.13 1.29l36.35 5.82c23.83 3.82 47.66 7.63 71.49 11.45 19.01 3.04 38.79 6.4 54.4 17.66 12.16 8.77 21.23 23.37 19.26 38.23-.12.89-.28 1.78-.47 2.65Zm-237.51-35.74c15.47 3.68 30.93 7.31 46.39 10.61 28.36 6.04 57.04 10.92 86.02 12.7 17.98 1.1 36.34 1.05 53.61-4.08 7.49-2.22 17.2-4.73 21.83 1.57 3.52 4.78 1.07 12.04-3.65 15.62-4.73 3.58-10.95 4.4-16.86 4.86-21.51 1.68-43.16.31-64.58-2.3-50.21-6.13-99.32-19.08-147.91-33.13-51.57-14.91-104.73-31.3-157.96-24.32-2.87.38-6.48.47-7.87-2.07-1.15-2.11.19-4.89 2.25-6.13 2.06-1.24 4.59-1.34 6.99-1.38 61.79-1.15 121.89 13.81 181.75 28.05Zm-22.85-25.93c.66-.03 1.32 0 1.92.09l181 26.22c11.75 1.7 4.14 9.98-4.32 9.17-57.46-5.47-114.33-15.83-171.12-26.19-3.53-.64-7.15-1.32-10.19-3.2-1-.62-2-1.47-2.18-2.64-.36-2.33 2.31-3.35 4.89-3.45ZM693.29 157.86c.81-1.97 2.43-1.99 3.9-2.07 11.79-.59 23.59-1.02 35.38-1.58 28.95-1.37 57.89-3.08 86.85-4.12 75.62-2.72 151.22-7.79 226.9-2.08 32.17 1.59 64.35 3.06 96.52 4.82 10.71.58 21.46 1.46 31.71 4.98 2.9 1 6.68 1.59 7.29 5.44.74 4.65-3.2 6.4-6.28 8.35-3.26 2.07-6.79 2.38-10.77 1.77-65.46-10.05-131.4-12.37-197.5-12.31-27.91.03-55.83-.07-83.74-.35-34.38-.35-68.66 2.28-102.99 3.46-26.27.9-52.58 1.57-78.67 5.36-5.6.81-10.71-6.51-8.6-11.67Zm450.51 190.75c-1.55 1.8-4.17 1.57-5.12-.61-.64-1.47-1.04-3.04-1.58-4.56-6.53-18.51-19.68-30.06-37.82-36.79-17.68-6.55-36.08-10.23-54.38-14.29-42.46-9.41-85.66-14.19-128.68-20.07-41.51-5.67-83.25-8.39-125.11-8.91-24.66-.31-49.33.34-74 .58-2.68.03-5.36.43-8.03.32-3.11-.13-4.83-1.95-4.85-5.13-.02-3.31.14-6.95 4.23-7.51 4.21-.58 8.55-.38 12.82-.24 48.24 1.6 96.48 3.25 121.77 4.11 70.58 4.12 118.33 5.65 165.7 11.99 36.72 4.92 73.03 11.6 107.8 25.13 14.34 5.58 24.72 14.79 30.64 28.89 4.02 9.57 3.74 18.8-3.41 27.08Zm18.18-47.66c-2.09-1.81-3.48-2.69-4.45-3.9-8.72-10.85-20.26-17.13-33.17-21.77-29.93-10.76-60.69-18.25-92.11-22.51-76.18-10.32-152.79-14.87-229.63-15.83-29.53-.37-59.05-.09-88.49 2.75-.53.05-1.07.09-1.61.1-6.76.2-9.38-3.05-8.11-10.08.42-2.35 1.89-4.12 4.11-4.21 5.88-.24 11.8-.25 17.68 0 43.99 1.89 87.99 3.59 131.96 5.89 35.96 1.87 71.94.78 107.9 1.48 32.8.64 65.42 3.28 97.8 8.61 27.92 4.59 53.67 14.96 77.55 30.03 6.38 4.02 12.43 8.57 16.85 14.79 2.73 3.83 5.96 7.71 3.72 14.66Zm24.01-41.7c-3.74 7.96-9.78 13.78-16.72 18.8-30.58-31.43-68.76-45.72-110.22-53.23-45.67-8.27-91.81-9.68-138.03-8.86-24.18.43-48.33.12-72.47-1.02-43.99-2.08-88-3.6-132.03-4.15-3.65-.05-7.54.93-10.88-1.57.64-2.8 2.91-2.37 4.77-2.33 34.91.86 69.75-.43 104.6-2.64 35.89-2.27 71.81-4.18 107.82-3.96 26.94.17 53.57 3.33 80.21 6.7 45.29 5.73 90.07 14.6 135.06 22.18 8.43 1.42 16.6 4.38 25.01 6 9.66 1.87 14.87 9.89 22.04 15.14 2.77 2.03 2.31 5.78.83 8.94Zm3.48-39.41c-2.22 6.74-5.22 8.23-11.89 4.98-19.63-9.58-41.04-12.11-62.08-16.15-40.59-7.8-81.63-12.72-122.52-18.51-38.89-5.51-78.05-6.67-117.27-4.8-45.02 2.15-90.02 4.63-135.04 6.69-10.7.49-21.46-.06-32.19-.26-2.11-.04-4.49-.13-6.25-1.11-2.5-1.39-2.98-4.36-3-7.03-.02-2.45 1.82-3.92 4.05-4.16 3.72-.4 7.49-.47 11.24-.47 43.47 0 86.91-.64 130.35-2.47 21.97-.93 44-.64 66-.49 27.9.19 55.81.8 83.71 1.22 47.83.42 95.35 5.2 142.86 10.12 11.74 1.22 23.4 3.23 34.53 7.41 3.01 1.13 6.02 2.31 8.85 3.82 9.57 5.11 11.96 11.13 8.63 21.22Zm-4.49-89.6c.44.71.61 1.65.4 2.91-.7 4.13-8.36 6.89-11.74 7.6-5.85 1.23-11.91.43-17.85-.28-33.51-4-67.31-4.93-101.04-5.85-39.32-1.07-78.66-2.15-117.99-1.71-54.71.61-109.34 4.15-163.94 7.75-2.96.19-6.92-.38-7.31-3.31-.41-3.08 3.6-4.58 6.68-4.96 80-9.83 160.76-11.21 241.26-9.68 42.47.81 84.92 2.43 127.37 4.05 11.56.44 23.13.89 34.69 1.33 2.92.11 7.91-.38 9.48 2.15Zm-13.74-44.16c1.73-.14 3.02.68 3.77 1.86.73.73 1.44 1.66 2.19 2.8 2.46 3.77 3.18 7.89 3.31 12.22.2 6.39-1.95 8.64-8.47 8.56-29.99-.36-59.97-.84-89.96-1.16-19.28-.2-38.56-.16-57.83-.28-2.8-.02-5.59-.23-8.39-.39l-5.52.36c-9.02.6-18.1.98-27.09 1.95-8.58.92-17.05 2.37-25.7 2.47-5.59.07-4.73-8.6.82-8.66 8.95-.11 17.74-1.97 26.64-2.7 8.78-.71 17.59-1.22 26.38-1.8 17.61-1.15 35.23-2.22 52.84-3.46 34.54-2.43 69.03-5.6 103.22-11.18 1.47-.49 2.7-.69 3.79-.6Zm-4.36-23.22c.74.15 1.69 1.3 1.79 2.08.11.89-.34 2.29-1.03 2.77-5.37 3.75-11.58 5.46-17.88 6.84-17.33 3.78-34.95 5.44-52.57 6.97-32.58 2.84-65.27 4.64-97.75 8.31-100.68 11.35-201.31 23.11-300.21 46.09-3.13.73-6.26 1.51-9.43 2.03-3.94.65-8.08-4.16-6.96-8.27.35-1.28 1.82-2.89 3.04-3.17 6.79-1.55 13.65-2.79 20.51-4.03 40.61-7.3 80.77-17.05 121.65-22.89 14.32-2.05 28.72-3.5 43.11-5.01 40.53-4.25 80.83-10.23 121.1-16.33 42.92-6.5 85.76-13.48 128.65-20.2 4.75-.74 9.56-1.08 14.01-1.58 10.96 2.16 21.48 4.2 31.97 6.38Zm-447.02 11.8c1.81-1.51 4.67-2.3 7.12-2.68 48.24-7.55 94.48-24.43 142.04-35.47 55.14-12.8 111.96-17.7 168.56-16.87 2.47.04 7.92.95 7.93 4.37.02 3.85-9.62 4.55-12.39 4.97C931.87 44.28 828.97 52.8 730.91 82.3c-2.53.76-5.17 1.54-7.77 1.09-2.6-.45-5.12-2.56-5.08-5.2.02-1.48.73-2.63 1.8-3.53Zm-43.03 28.16c68.38-7.27 135.22-23.87 203.2-33.58 46.75-6.67 93.47-13.59 140.18-20.51 29.72-4.4 59.4-9.15 89.14-13.41 7.4-1.06 14.98-.94 22.49-1.19 1.89-.06 4.21-.41 5.45 3.04-4.05 2.35-8.63 3.12-13.3 3.81-70.07 10.35-140.14 20.73-210.2 31.13-36.09 5.36-72.64 7.24-108.52 14.18-40.54 7.84-81.04 15.94-121.55 23.94-2.09.41-4.23 1.42-6.22 1.17-2.14-.27-3.61-2.22-4.07-4.48-.56-2.7.9-3.83 3.41-4.09Zm-37.04-3.15c6.27 2.12 10.17 6.97 13.29 12.45 2.11 3.7 3.85 7.67 5.26 11.7 5.3 15.17 10.36 30.43 15.57 45.63 6.35 18.52 6.88 37.89 8.34 57.1 1.75 23.11-.55 46.09-3.27 69-1.08 9.06-3.58 17.87-7.2 26.28-1.04 2.42-2.39 4.81-4.08 6.8-.85 1.01-2.87 1.68-4.19 1.47-1.59-.25-2.16-2.02-1.83-3.73.2-1.05.36-2.13.76-3.1 12.54-30.68 13.74-62.65 9.93-94.94-3.58-30.35-8.93-60.43-18.43-89.6-3.65-11.21-7.44-22.37-13.32-32.69-.95-1.67-2.74-3.4-.84-6.38Zm-40.94-21.6c1.1.47 2.16 1.19 3.08 1.92 10.29 8.29 17.22 19.98 23.18 31.78 16.2 32.07 26.69 66.96 31.17 102.6 4.24 33.73 5.87 72.87-7 104.82-1.19 2.96-2.58 5.84-4.36 8.49-4.32 6.45-11.33 11.61-19.08 11.64-1.9 0-4.15-.55-4.79-2.34-.51-1.42.23-2.94.93-4.28a148.585 148.585 0 0 0 15.69-48.37c3.39-23.76.97-47.95-2.56-71.68-3.69-24.81-8.59-49.47-15.46-73.59-5.03-17.65-11.36-35.44-23.21-49.45-1.46-1.73-3.04-3.45-3.72-5.61-.68-2.15-.16-4.89 1.81-5.99 1.35-.76 2.88-.56 4.33.06Zm-65.26.8c.94-1.51 3.39-1.78 5.32-1.57 17.48 1.82 33.04 12.96 43.35 27.19s15.93 31.33 19.72 48.49c9.02 40.8 17.83 84.19 13.38 126.12-2.59 24.42-9.99 48.62-23.77 68.95-.91 1.35-2.02 2.78-3.62 3.06-2.2.38-4.18-1.79-4.46-4.01-.28-2.22.62-4.39 1.49-6.45 6.06-14.33 11.37-29.09 13.92-44.43 5.7-34.24-2.55-69.18-12.41-102.46-11.59-39.12-25.93-78.4-51.61-110.11-.95-1.17-1.97-2.57-1.62-4.03.07-.27.17-.52.31-.74Zm-54.67-12.4c12.9 6.74 25.85 13.73 36.43 23.7 16.46 15.51 25.84 36.91 34.43 57.83 11.08 26.99 21.61 54.34 27.96 82.82 7.24 32.48 12.93 77.05-6.01 106.78-3.88 6.09-9.9 11.21-17.05 12.28-3.39.51-7.66-.52-8.55-3.83-.37-1.38-.04-2.85.28-4.24 4.86-21.54 5.59-43.81 4.96-65.89-1.1-38.62-6.33-77.22-17.04-114.34-4.89-16.95-10.99-33.7-20.14-48.78-9.15-15.09-21.54-28.51-37.02-36.98-2.34-1.28-4.88-2.57-6.16-4.91-1.28-2.34-.39-6.01 2.24-6.45 1.32-.22 2.61.42 3.8 1.03.63.33 1.25.65 1.88.98ZM106.21 29.99c7.68-6.76 16.95-8.81 26.82-8.8 20.44.02 40.6 2.16 60.28 7.99 6.85 2.03 13.68 4.11 20.52 6.17 14.06 1.49 27.94 4.22 41.76 7.22 13.74 2.98 27.45 6.17 41.33 8.49 14.23 2.37 28.64 3.85 42.95 5.63 28.87 3.59 57.93 5.47 86.77 9.17 5.54.71 4.75 9.38-.82 8.66-16.32-2.09-32.75-3.16-49.12-4.83-14.56-1.48-29.1-3.26-43.62-5.09-14.25-1.79-28.57-3.3-42.7-5.89-4.79-.88-9.57-1.84-14.34-2.85-51.2-5.13-102.44-9.79-153.86-12.18-5.84-.27-11.8.12-16.03-5.41-2.39-3.13-2.69-5.86.06-8.29ZM59.77 66.3c4.93-2.48 10.25-3.08 15.63-3.04 15.01.1 30.06-.33 45.02.63 48.16 3.07 96.28 6.66 144.41 10.05 60.91 4.94 121.63 12.75 182.87 12.79 4.86 0 9.71.03 13.85 3.06.76.56 1.53 1.69 1.53 2.55 0 .73-1.01 1.72-1.8 2.09-.92.42-2.09.38-3.15.37-39.13-.36-78.22-.27-117.32-3.58C286.86 86.66 233 80.79 178.86 78.53c-28.96-1.21-57.87-1.43-86.79.71-9.11.67-18.3.81-26.87-3.15-2.35-1.09-4.44-2.82-6.48-4.47-1.56-1.26-.79-4.39 1.05-5.31Zm-22.09 34.54c1.55-3.51 3.92-6.35 6.85-8.79 3.49-2.91 7.05-4.6 11.74-2.56 9.58 4.15 19.79 4.56 30.02 4.27 68.83-2 137.18 4.42 205.53 11.25 53.4 5.34 106.88 9.35 160.65 7.33 10.7-.4 21.45.19 32.17.44 2.18.05 4.43.86 4.21 3.61-.14 1.71-1.86 2.21-3.48 2.38-13.33 1.42-26.64 3-39.98 4.26-26.48 2.5-60.74 2.62-95.96-.04-23.54-1.1-54.44-4.56-85.28-8.86-55.53-7.75-111.19-7.86-166.95-2.52-11.73 1.12-23.56 1.32-35.35 1.69-7.01.22-13.93-.72-20.53-3.27-3.94-1.52-5.37-5.29-3.65-9.18Zm-12.33 33.23c2.03-1.73 4.31-3.2 6.58-4.62 2.79-1.73 5.73-3.06 8.38-1.94 18.38 4.11 36.1 1.36 53.7.4 24.11-1.31 48.2-2.62 72.36-3.04 32.35-.56 64.36 2.91 96.17 7.75 45.22 6.88 90.63 10.54 136.3 10.72 25.78.11 51.35-3.56 76.9-6.75 7.95-.99 16-1.34 24.01-1.7 1.37-.06 3 1.18 2.85 3.22-.13 1.68-.72 3.15-2.62 3.29-8.02.58-16.06.92-24.07 1.6-32.6 2.77-65.06 6.98-97.84 7.78-29.58.72-59.01-.26-88.3-4.61-15.92-2.36-31.89-4.42-47.78-7.01-46.1-7.51-92.05-3.27-137.99 1.52-18.66 1.94-37.1 5.83-55.96 6.19-7.01.13-13.95-.09-20.81-1.6-2.59-.57-5.74-.85-6.63-3.75-1.19-3.9 2.41-5.49 4.73-7.46Z" fill="#eaa040" data-color="1"/>
    </g>
</svg>
