<?xml version="1.0" encoding="UTF-8"?>
<svg data-bbox="-0.039 0.032 1168.099 953.212" viewBox="0 0 1168.07 953.25" xmlns="http://www.w3.org/2000/svg" data-type="color">
    <g>
        <path d="M777.58 276.79c.1 7.66 4.28 14.79 10.95 18.55 14.42 8.12 31.25 7.74 46.6 8.18 35.66 1.02 71.43-2.13 107.16-3.48 9.62-.36 19.25-.66 28.88-.72 24.41-.15 48.83-.25 73.24-.19 22.08.06 32.53-.15 42.65 17.66 10.26 23.59 7.14 49.03 4.06 74.02-4.53 36.65-6.26 73.04 2.3 109.25l.04.16c2.39 9.9 13.39 15.01 22.47 10.42 17.48-8.83 27.2-26.13 40.15-39.19-2.53 24.07 4.27 54.35 11.98 72.88-19.57-7.2-18.47-22.82-24.05-35.2-7.08 5.3-13.58 11.17-21.02 15.46-17.46 10.07-36.53 1.48-41.62-18.02-4.45-17.07-7.99-34.94-7.94-52.42.11-36.54 2.95-73.08 4.89-109.61.45-8.48-.25-16.28-6.27-22.99-4.59-5.11-11.21-7.92-18.08-8.14-42.57-1.41-195.21 5.7-221.4 4.86-13.84-.44-28.05-1.87-41.29-5.67-29.14-8.38-39-36.85-22.21-62.5 4.68-7.16 10.86-14.19 17.98-18.75 27.45-19.5 53.42-34.56 87.72-37.11 30.69-2.29 58.54-16.1 82.23-36.72 18.96-16.5 25.57-38.09 20.65-61.6-4.06-19.4-19.65-32.34-34.33-44.83-64.12-64.12-167.76-24.76-207.23-8.93-7.12 2.86-14.42 5.17-21.83 7.18-59.97 16.33-209.03 101.78-289.23 160.2-62.6 35.37-367.68 318.31-378.48 328.4-9.13 8.53-18.26 12.08-29.21 8.85-5.71-1.69-10.47-5.73-13.28-10.98-1.68-3.13-3.01-6.53-3.73-9.91-1.24-5.79.72-11.82 4.8-16.11 49.65-52.19 97.08-92.92 145.88-137.4 92.38-84.2 184.98-168.5 291.78-234.56 67.63-41.83 139-76.77 215.03-101.36C672.76 31.64 777 3.3 790.58 1.89 894.22-7.92 936.26 22.54 970.7 59.72c11.89 12.84 22.55 26.41 22.97 45.71.65 29.63-10.83 53.46-34.65 69.72-28.27 19.3-59.44 31.16-94.44 34.71-32.22 3.27-58.18 21.72-79.94 45.36-5.88 6.38-7.19 13.83-7.09 21.61ZM641.92 66.9c2.67-1.36 31.57-17.09-.88-11-.26-.02-19.92 6.84-26.85 9.84-88.27 38.13-172.81 83.15-248.86 142.37-50.87 39.61-100.93 81.73-149.2 124.45-65.32 57.8-128.6 117.9-192.69 177.08-5.62 5.19-8.16 11.26-1.77 20.41 5.36 5.01 12.64 1.83 17.22-.92 7.41-4.46 355.63-361.15 583.65-452.97 3.77-1.94 12.43-5.7 19.38-9.24Z" fill="#eaa03f" data-color="1"/>
        <path d="M1001.47 637.13c-29.13 12.95-59.44 19.4-90.14 25.54-8.92 1.78-17.04 4.58-23.67 10.96-5.95 5.73-6.78 14.97-2.06 21.74l3.41 4.89c3.64 5.22 9.43 8.47 15.77 9.02 52.84 4.65 90.56 28.08 106.57 81.12 35.47-.31 60.19 15.39 76.12 44.35 12.18 22.14 23.61 44.69 23.37 71.3-.08 9.21-9.99 15.02-18.01 10.47-15.28-8.67-23.9-26.83-41.93-29.29-8.77 18.13-5.15 39.9-12.92 59.13-2.84 7.03-11.74 9.17-17.38 4.1-22.86-20.54-43.45-40.46-51.36-71.16-9.24-21.35-.87-42.94-8.14-63.3-3-8.39-9.77-14.86-18.29-17.44-46.81-14.17-128.59-14.85-165.35-46.5-9.52-6.85-17.95-16.65-31.7-16.88-3.3-.06-8.02-4.72-9.53-8.34-9.57-22.8-24.63-45.43-5.43-70.13-3.07-5.1-6.06-10.06-9.07-15.06-4.66-7.74-5.73-17.14-2.89-25.71 1.71-5.16 3.59-9.96 6.65-13.83 21.65-22.25 20.49-35.61 24.17-56.78 2.94-16.93 11.78-22.59 29.54-23.98 18.24-1.44 37.5-9.88 53.6-10.84 11.8 2.82 6.8 12.88 28.99 13.46 5.14.13 10.25-.85 15-2.8 19.45-7.97 50.35-14.33 80.5-3.85 18.34 6.73 32.37 13.59 43.51 27.15 26.39 27.6 37.42 76.32.64 92.67ZM894.49 527.69c-27.07 8.65-49.95 12.46-70.52 28.29-33.04 25.43-56.86 56.91-56.75 100.81.04 17.28 2.8 34.68 5.67 51.79 3.92 23.38 18.67 39.38 39.88 48.04 29.91 12.21 45.18 16.92 79.36 21.27 26.28.41 56.1 3.8 75.45 23.72 3.38 3.48 8.34 14.55 7.6 19.35-6.17 40.15 12.83 84.45 43.19 105.5 2.68 1.93 6.43 1.25 8.16-1.56 6.87-11.14 3.99-26.06 6.45-39 2.64-13.88 18.89-20.31 30.58-12.36 8.4 5.71 17.25 11.73 27.38 18.62 1.18.8 2.72-.32 2.3-1.69-10.56-35-37.66-82.4-73.13-86.46-10.31-1.18-19.38-7.19-24.05-16.46-25.5-50.57-58.02-61.34-95.8-66.95-9.74-1.93-18.1-6.29-21.4-8.92-10.27-8.17-14.97-21.88-10.84-34.33 1.34-4.04 3.49-7.79 6.41-10.93 9.91-10.67 22.65-15.47 36.79-18.31 30.67-6.16 61.6-11.79 89.5-27.05 7.27-3.98 11.3-12.06 10.23-20.28-3.19-24.5-28.53-62.75-50.53-68.95-19.13-5.62-36.45-12.04-65.94-4.13Zm-115.39 3.27c-8.2 1.65-14.61 8.12-16.02 16.37-2.13 12.54-3.1 24.83-8.02 35.36-5.55 11.89-15.88 22.27-24.84 34.13-2.7 3.57-2.54 8.55.31 12 5.27 6.36-5.46 21.52 18.15 22.23 14.25-50.52 46.46-93.37 91.06-120.93-14.3-11.92-41.14-3.08-60.64.85ZM750.98 664c-8.44-3.85-13.27.98-15.3 12.77-3.24 13.25-1.92 37.42 26.85 51.03-2.57-17.48-8.66-44.1-11.55-63.81Z" fill="#eaa03f" data-color="1"/>
        <path d="m838.15 639.73-9.46 13.25a24.454 24.454 0 0 0-4.55 14.21v6.48c0 19.31-23.58 28.7-36.86 14.68-.14-.14-.27-.29-.41-.43-6.69-7.05-7.89-17.65-3.05-26.08 7.9-13.76 18.49-26.69 14.83-43.33-.28-1.28.06-2.64 1.05-3.51 5.29-4.64 10.73-7.28 16.28-8.71 19.08-4.91 33.62 17.4 22.17 33.44Zm-31.58 48.1c12.42-3.67 9.18-37.73 25.29-54.74 3.31-3.49 4.64-8.59 2.92-13.08-2.24-5.83-9.1-10.41-25.34-4.1a6.28 6.28 0 0 0-3.98 5.67c-.94 30.67-16.13 28.24-16.96 52.19 1.26 13.23 6.7 15.45 18.07 14.06Z" fill="#eaa03f" data-color="1"/>
        <path d="M894.66 536.54c16.47-4.01 25.59 3.24 31.69 14.24 4.88 10.71 5.4 29.96-8.58 36.06-23.56 6.53-30.85-7.2-35.2-20.37-5.49-21.42 6.15-27.9 12.08-29.92Zm11.8 38.03c6.87-.96 9.27-6.08 9.84-7.99 2.6-8.83-8.68-19.88-18.91-13.03-9.1 7.54.02 23.46 9.07 21.02Z" fill="#eaa03f" data-color="1"/>
    </g>
</svg>
