<?xml version="1.0" encoding="UTF-8"?>
<svg data-bbox="0.008 0.001 2827.18 2141.757" viewBox="0 0 2827.18 2141.79" xmlns="http://www.w3.org/2000/svg" data-type="color">
    <g>
        <g>
            <path d="M121.57 142.79c-7.48 8.62-18.16 7.53-23.42-1.32a138 138 0 0 0-10.44-15.41C77.89 113.69 74.09 99.8 77 84.38 79.4 72 85.57 61.69 98.84 59.06c13.62-2.7 25.72 2 33.13 13.74 4.56 7.21 6.22 16.26 9.18 24.48-.73 18.32-8.48 32.72-19.58 45.51zM107 86.21c-6.28 9.77-5.9 13.21 2.09 23 3.44-8.14 3.52-15.41-2.09-23z" fill="#bdabd3" data-color="1"/>
            <path d="M2823.83 793.6c9-38 .29-69.05-30.71-91.34-.74-16.79-.61-31.23-2.15-45.49-5.82-53.72-7.45-108-19.36-160.91-14.49-64.33-30.76-128.25-46.28-192.35-1-4.11-2.13-8.19-3.24-12.43 11.67-10.71 10.42-24.75 9.64-38.19-.95-16.21-4.23-32.14-11.55-46.83-2.8-5.61-2.27-9.92 1.17-15.17 9.35-14.23 18.59-28.58 26.78-43.49a163.63 163.63 0 0 0 13.31-31.64c5.09-17 2.68-33.76-5.43-49.55-6.55-12.77-16.9-20.47-31.5-20.18-14 .28-22.51 9.15-27.73 21.25-10.25 23.77-14.4 48.91-15.38 74.6-.45 11.9-.07 23.83-.07 36.35-28.59 14.7-43.83 40.11-54.49 69.18-1.11 3-3.61 5.73-5.92 8.14q-55.32 57.6-110.76 115.07c-36.16 37.51-76 70.74-117.32 102.39-35.15 26.92-69.23 55.23-103.8 82.91-17.62 14.1-35.6 27.77-52.82 42.35-16.19 13.71-31.52 28.45-47.4 42.54-4.75 4.21-10.12 7.72-15.1 11.68-31.17 24.77-58.67 53.32-83.51 84.23-29.08 36.16-57.18 73.12-85.21 110.11-61.83 81.59-128.46 159-201.12 231.13-26.9 26.71-53.39 53.83-79.87 81-75.64 77.46-155.23 150.71-236.55 222.08-19.14 16.79-40.19 31.52-61.06 46.2-16.09 11.31-34.34 18.73-53.25 24.24-15.52 4.52-29 2.66-42.85-7.73-100.4-75-195.88-156-289.5-239.18a856.55 856.55 0 0 1-100.06-105.64c-34-42.57-67.78-85.4-102.36-127.53-15.1-18.39-31.66-35.61-48.11-52.83-15-15.73-34.24-25-54.29-32.57-5.14-1.94-10.78-4.22-16-3.84-12.55.9-21.15-5.14-28.6-13.77-23.11-26.78-46.38-53.39-68.95-80.52-76.59-92.21-141.07-193.25-211-290.27q-93-129-186.41-257.76c-15-20.59-30.72-40.68-47.05-60.22-7.7-9.21-9.29-17.16-5.24-28.77 10.55-30.24 13.4-61.56 6.14-93.06-7-30.48-25.19-50.5-56.82-56.88-10.5-2.11-20.52-.3-30.2 2.92-35.56 11.83-58.46 35.84-66.24 72.72-2.87 13.63-4.84 28-3.95 41.77 2.15 33.24 19.78 57.2 48.93 72.88 3.67 2 7.43 3.79 11.68 6-2.15 11.34-4.37 22.13-6.19 33-2.32 13.84-4.9 27.69-6.2 41.64-.7 7.46-.52 15.75 2.09 22.59 2.92 7.65 3 14.83 2.15 22.39-7.05 62.6-14.41 125.18-21.23 187.81C46 568 39.12 631.5 33.06 695.06c-7.19 75.47-10.72 151.17-12.45 227a29.62 29.62 0 0 1-4.52 14 54.76 54.76 0 0 0-8.39 28.87c-.11 9.66-.72 20-4.16 28.78-4.11 10.57-3.89 20.78-3 31.34 11.65 142.47 56.18 273.56 135.22 392.95 55 83.08 116.34 160.71 190.43 227.77 31.32 28.35 65.07 53.56 99.51 77.94 25.37 18 50.9 35.75 75.38 54.88 22.44 17.53 43.58 36.74 65.26 55.25a68.47 68.47 0 0 1 7.4 7c23.68 27.32 53.35 47.5 82.08 68.76 48.31 35.75 103.16 57.1 160.54 73.33 44.95 12.73 90.45 20.3 137.19 20.39 21.48 0 42.33 4.18 62.55 11.33 17.29 6.11 34.6 11.14 53.25 12.2 9.83.55 19.34 6.07 29.07 9.11 6.43 2 13.14 3.19 19.47 5.48a160.36 160.36 0 0 1 22.18 9.5c87.41 47.59 180.43 77.92 279.42 88.16 33.33 3.44 67.16 2.56 100.76 2.55 46.93 0 93.4-6.31 139.9-11.81 33.16-3.92 66.36-1.73 99.54-1 17 .37 34 1.25 51 2.41a453.13 453.13 0 0 0 86.65-2.5c41-5.06 82.08-9 123.17-13 87.66-8.42 173.31-26 256.66-54.66 29.91-10.27 58.25-23.95 85.77-39.34 5-2.79 8.82-7.67 13.28-11.48 3.16-2.71 6.14-5.9 9.77-7.76 81.64-41.78 141.85-106.45 192.16-181.21 57.2-85 105.88-174.7 145.07-269.47 39.42-95.3 64.44-194.43 81-296.08 13.87-85 15.46-170.23 12.88-255.95-1.53-50.62-1.18-101.33-.38-152a255.82 255.82 0 0 1 7.11-54.2zm-47.2-61.86c0-1.34 1.08-2.69 1.73-4.23 10.86 8 10.89 8 10.86 19.06 0 3.83-.06 7.67-.31 11.49-4.32 67.19-13.76 133.8-25 200.07-11.85 69.67-30.2 137.91-50.51 205.59-2 6.52-4.13 13-5.56 19.63-.42 1.93 1.39 4.35 2.18 6.54 2.22-1.37 5.08-2.28 6.5-4.24 1.66-2.31 2.17-5.49 3-8.34 5.61-18.74 11.66-37.37 16.68-56.27 15.83-59.62 31.51-119.28 41-180.35 2.59-16.73 4.84-33.52 7.25-50.28 1.87 1.39 2.7 2.86 2.7 4.34.07 25.12 1.68 50.36-.31 75.32-5.44 68.33-14.45 136.21-28.87 203.34-22.62 105.37-50.43 209.19-87 310.7-41.16 114.34-94.62 222.28-162.85 322.87-2.34 3.44-4.89 6.72-7.35 10.08-2.89-32.74-5-64.28 5.22-95.49q27.5-83.65 52.54-168.09 39.12-132.17 76.48-264.84c17.5-62.23 32.45-125.2 50.52-187.26 24.15-82.91 50.52-165.15 71.06-249.09 9.72-39.71 20.06-79.24 20.04-120.55zm-51.43-659.2c10.86 11.45 11.82 23.08 9.37 34.88-3.78 18.12-14.31 33-25.3 47.75a183 183 0 0 1 15.93-82.63zm-6.81 319.8c6.65 23.62 12.85 47.36 18 71.33s10 48.28 13.6 72.63 5.49 49 8.24 73.46c2.71 24 8.17 47.84 8 71.41l-58.16-17.81zm-20.26 310.07c9.86-8.15 20.06-10.42 32.45-3-5 26.65-9.23 53.53-15.21 80-17.15 75.92-35 151.68-52.57 227.52a61.08 61.08 0 0 0-1.64 11.24c0 1.18 1.67 3.15 2.9 3.46s3.7-.6 4.21-1.66a60.28 60.28 0 0 0 3.89-10.73c24.09-88.72 43.88-178.42 60.43-268.84 2.26-12.38 4.21-24.82 6.49-38.3 4.15 1.88 7.1 3.31 10.12 4.57 10.25 4.25 15.17 11.49 13.77 22.91-2.27 18.56-2.41 37.57-6.6 55.65-12.69 54.69-26 109.27-40.77 163.42-12.89 47.17-28.91 93.47-42.18 140.55-22.75 80.65-43.77 161.78-66.72 242.38-33.19 116.6-65.1 233.59-104 348.51-1.15 3.41-2.39 6.8-3.59 10.2l-2-.43c0-4.56-.1-9.13 0-13.69 1-37.45 1.85-74.9 3-112.35.67-22.54.91-45.15 2.77-67.61 4.68-56.82 9.49-113.65 15.56-170.34 4.66-43.52 10.12-86.91 22.13-129.38 21.39-75.68 31.72-154 54.2-229.51 14.2-47.68 26.05-96.07 40.79-143.57 8.16-26.31 19.6-51.67 30.51-77.05 7.25-16.88 17.6-32 32.06-43.95zm-938.32 1011c-2.47 1.23-6.25 2.55-8.25 1.54a295.9 295.9 0 0 1-35.92-21.31c18-10 34.43-18.89 50.6-28.28a97.14 97.14 0 0 0 15.17-11.54c2.94-2.6 4.88-6.13.15-10.34-1.91.94-4.35 1.62-6.15 3.1-19.28 15.8-41.6 26.44-63.64 37.52-2.8 1.4-7.26 2.82-9.44 1.58-9.4-5.37-19.62-9.71-28.44-18.65 89-49.06 168.87-109.47 248.57-171.2-.8 2.21-1.44 4.5-2.42 6.63q-31.93 69.6-64 139.15c-1.57 3.4-3.44 7.08-6.19 9.46-27.74 24.01-57.05 45.85-90.04 62.31zm79.08-32-24.89 69.66-44.57-25.46zm-128.67-105.67c-4.37-4.58-7.3 1.12-10.25 3.63-24.22 20.63-52.16 35.12-80.6 48.72-2.75 1.32-7.17 2-9.56.7-10.65-5.85-20.84-12.53-32.41-19.66 5.2-2.86 8.43-4.89 11.86-6.49a368.76 368.76 0 0 0 72.6-44.94c32.14-25.25 64.59-50.13 96.09-76.16 97.54-80.61 188.25-168.88 282.8-252.86 6-5.31 11.78-10.82 17.67-16.24l1.78 2c-1.64 3.87-3.14 7.8-5 11.58-33.74 69.72-67.7 139.33-101.14 209.19-6.42 13.42-15.26 24.18-26.49 33.7a1993.22 1993.22 0 0 1-184.4 139.09c-27.21 18.11-55.44 34.68-83.36 52-12.37-7.34-24-14.54-35.79-22.29 21.9-12.52 42.37-23.84 62.41-35.87 7.22-4.33 13.67-10.09 20-15.74 2.84-2.48 7.83-6.18 3.79-10.42zM1605.94 1521c-2.47 0-5-.66-7 .16-2.67 1.11-4.8 3.48-7.31 5.07-20.83 13.21-41.53 26.64-62.69 39.32-4.26 2.55-11.69 4.69-15.23 2.7-15.81-8.89-30.74-19.33-47.46-30.17 5.62-3.45 9.43-5.91 13.35-8.17 63.59-36.68 124.35-77.55 180-125.5q89.52-77.13 177.41-156.17c86.35-78.09 165-163.79 243-250 46.66-51.59 87.52-107.59 125.33-166 29.86-46.13 56.36-94 82.06-143.48l58.72 5.51c-.58 1.89-.64 2.83-1.11 3.47-2.24 3.1-4.56 6.15-6.92 9.17-57.35 73.27-109.8 149.85-151.21 233.3q-48.23 97.2-92.06 196.55c-11.16 25.29-25.13 47-46.22 64.39-1 .81-1.89 1.72-2.83 2.58q-93.46 85.24-186.93 170.46c-70 63.68-142.26 124.55-218.28 180.95-24 17.84-50.18 31.92-77.65 44.92l-35.54-22.38c4.81-2.76 8.12-4.51 11.28-6.49 19.46-12.19 39-24.24 58.25-36.81 4.2-2.8 9.97-5.53 9.04-13.38zm240.43 223.17c9.35-25.12 18.5-50.34 28.7-75.12 36.28-88.15 79.89-172.84 122.2-258.15q46-92.65 89.27-186.61c27.88-60.25 53.72-121.45 81.44-181.77 34.52-75.12 72.25-148.52 118.75-217.16 42.82-63.19 88.87-123.85 139.58-180.92 3.76-4.23 8.05-8 12.09-11.94l2 1.61c-1.1 2.55-2 5.2-3.33 7.64-8.82 16.52-17.16 33.34-26.71 49.42-25.7 43.26-48.08 88.08-68.3 134.18s-41.72 91.4-64.33 136.23c-72.85 144.48-142.12 290.59-202.72 440.7q-67.44 167.09-150.29 327.08c-9.63 18.49-18.28 37.49-27.41 56.24-1.43 2.94-3 5.81-5.06 9.67l-52-29.48c2.2-7.85 3.64-14.93 6.12-21.62zm100.53-25.36c42.5-83.48 83-167.91 118.43-254.66 60.35-147.84 124.15-294.1 196.15-436.7 35.31-69.91 71-139.66 101.39-211.92 13.57-32.22 29.55-63.18 46.83-93.58 15.34-27 29.28-54.79 43.86-82.22 1.37-2.57 2.93-5 4.82-8.23 26.27 9.58 50.45 22.4 76.56 35.3-10.8 26.09-20.9 50.85-31.29 75.48-14.39 34.11-30.59 67.55-43.21 102.3-32.29 88.9-69.55 175.64-108.63 261.72-50.67 111.64-100.44 223.67-158.51 331.78-18.52 34.49-36 69.57-52.91 104.9q-71.66 149.94-157.16 292.38c-1.47 2.46-3.28 4.71-5.43 7.78l-72.55-40.41c14.44-29.14 27.75-56.67 41.65-83.92zm526.61-1113.62c31.12-39.52 62.32-78.78 93.12-118.36A823.09 823.09 0 0 0 2648 359.12l2.93 1.42-61.73 302.79zM2000.4 1835.3c56.73-94.63 107.88-192.23 156.26-291.38 32.28-66.16 68.12-130.61 100-197 39.81-82.84 77.18-166.86 115.65-250.35 30.65-66.49 59.52-133.72 85.53-202.2 16.6-43.74 34.71-86.91 52.14-130.33q16.64-41.45 33.27-82.89c1-2.54 2.5-4.9 4.67-9.1 14 10.12 27.28 19.26 40 29.08a27.24 27.24 0 0 1 10.5 19.77c2.64 30.29 1.87 60.29-5.26 90.09-12.31 51.5-30.8 100.88-50.07 150-50 127.64-102.54 254.23-165.79 376q-92.14 177.43-196.74 347.88c-38.34 62.5-81 122-127.09 179-2.67 3.3-5.3 6.87-8.69 9.27-2.36 1.67-6.79 3.09-8.91 2-14.6-7.62-28.84-15.93-44.06-24.52 3.29-5.81 5.79-10.62 8.59-15.32zm94.71 0c62.68-82 115.88-170.14 167.66-259.27 101.47-174.64 194.22-353.49 267.12-542.17 8.41-21.78 17.5-43.31 26.28-65l1.9.41c-.31 1.6-.57 3.21-.93 4.81q-20.23 89.61-40.44 179.24c-4.37 19.5-6.15 39.84-12.7 58.53-14.77 42.12-29.45 84.53-48.28 124.89a3954.24 3954.24 0 0 1-248.17 451.71 552 552 0 0 1-85.09 103.21c-7.49 7.15-15.24 13.41-26 16.32l-41.46-21.76c13.92-17.68 27.26-34.12 40.11-50.93zm586.45-1484.95c.64-3.2 1.84-6.29 2.79-9.43 7.09 67.62 2.27 265-6.45 319.93-10.7-3.53-17.92 2.43-23.66 10.1a189.11 189.11 0 0 0-15.64 24.61c-3.33 6.29-5.11 13.39-8.45 22.51-4.51-9.17-7.39-16.72-11.72-23.32-3.92-6-4-11.61-2.7-18.14q32.98-163.11 65.83-326.26zm-31.84-64.25c1.24-2.21 2.36-4.71 4.21-6.29 1.17-1 3.6-.52 6-.76-51.11 101.51-111.64 195.43-188.11 278.95 1.92-3.53 3.55-7.26 5.78-10.59 24.69-36.76 49.14-73.68 74.29-110.12 34.11-49.46 68.38-98.76 97.83-151.19zm-410.85 345.51c21-16.68 42.15-33.17 63.11-49.91 37.93-30.27 75.23-61.35 113.75-90.85 44.07-33.74 85.61-70.15 123.94-110.25 13.53-14.15 26.94-28.43 40.47-42.59 2.14-2.24 4.63-4.15 7-6.21a47.84 47.84 0 0 1-6.87 13.85q-76.44 114-152.86 228.05c-9.92 14.85-20.3 29.67-27.87 45.73-5.39 11.42-12.91 20.83-20 30.76a28.64 28.64 0 0 1-20.15 12.29c-8 1-16.08 2.27-24.08 2-13.15-.52-26.27-2.15-39.4-3.43-23.73-2.3-46.32-9.3-71.49-16.74 5.77-5.17 9.95-9.12 14.45-12.7zm-853.6 843.68a242.81 242.81 0 0 0 85.47-44.64c23.84-19.25 47.57-38.72 70.36-59.19 91.9-82.54 179.6-169.42 266.64-257.07 89.32-90 172-185.27 247.29-287.2 22.24-30.11 46.07-59.08 70-87.9a473.48 473.48 0 0 1 65.46-64.43c5.83-4.75 11.35-6.47 18.69-4.51 20.49 5.48 41.11 10.51 63.57 16.2-3.3 6.85-5.62 12.28-8.44 17.44a1909.25 1909.25 0 0 1-114.76 184.12c-10.05 14.26-20.51 28.26-31.5 41.81-69 85.13-145 163.89-222.08 241.59-69.92 70.49-145.46 134.91-220.24 200.12a1273.56 1273.56 0 0 1-159.57 119c-20.85 13.1-42.24 25.34-63.83 38.24l-32.62-21.71c2.23-1.54 3.17-2.34 4.23-2.91 23.66-12.58 47.35-25.1 71-37.77 3.47-1.85 8.33-3.15 6.15-10.77-4.35 1.2-8.9 1.67-12.67 3.63-11.32 5.89-22.23 12.57-33.5 18.54-14.93 7.9-30.06 15.43-44.81 23l-31.58-22.73c3.62-1.58 5.13-2.4 6.74-2.86zM735 915.7c10.54 5.32 21.1 11.08 30.35 18.31 10.17 7.94 18.85 17.79 28.17 26.81l-1 2.42c-15.67-1.42-31.55-3.93-44.17 7.91-11.89-10-22.63-19.62-34-28.45-11.6-9-23.81-17.28-36.7-26.54 19.97-8.16 38.81-9.8 57.35-.46zm-458.72 96.41c-5-13.83-8.64-25.1-13.15-36-3.28-7.91-.61-12.9 6.89-17.93 3.31 6.19 7.16 11.14 8.56 16.7s.63 11.85.32 17.79c-.3 5.49 1.1 11.33-2.63 19.44zm-16 37.83a58.82 58.82 0 0 1-14.22 8.31c-19.89 8.42-40.5 9.34-61.3 4.21a15.15 15.15 0 0 1-8.57-6.45c-7.9-13.57-15.17-27.5-24.14-44 41.22 7.3 72.39-9 101.25-34.91 5.5 15.13 10.44 28.62 15.31 42.12 5.44 14.99 4.12 20.6-8.3 30.72zm9.94-208.12c-4.91 7.13-8.05 15.48-13 25.31-.86-4.08-1.29-5.94-1.65-7.82-15.15-79.84-29.39-159.87-45.71-239.48-14.6-71.27-31.53-142.06-47.34-213.08-2.45-11-4.39-22.18-6.57-33.27 47 148.92 93.64 297.78 132.32 448-6.33 7.04-13.04 13.09-18.02 20.34zM221.53 338a38.78 38.78 0 0 1 3.93 4.19C263.71 397 302.6 451.32 340 506.71c79 117.13 151.19 238.83 234.37 353.22 8 11 14.64 22.84 20.7 32.36l-32.31 65.27c-2-3.86-2.72-6-4-7.63-31.17-39.48-60.48-80.35-85.63-123.87-51.94-89.9-103.5-180-153.9-270.82a1530 1530 0 0 1-95-204.8c-1.45-3.87-2.62-7.84-3.92-11.77zm336.15 763.85c-8.71 14.31-20.91 24.29-35.69 31.73-8.9 4.48-17 3.88-25.37-1a89.25 89.25 0 0 1-28.77-26.65c-6.48-9.47-11.88-19.93-19.57-28.27-8.77-9.5-9.59-19.37-5.67-30.29 2.84-7.91 6.87-15.41 10.54-23 2.9-6 7.61-8.2 14.47-7.92 24.11 1 47.1-4.84 70.09-11.5 25-7.27 44.4-20.82 55.74-44.78.71-1.5 1.92-2.76 3.75-5.33-6.14 30.12-11.84 58.81-17.87 87.43-4.4 20.8-10.4 41.09-21.65 59.55zm11.38 34.69 52.69 42.29c-8.63 11.33-15.91 21.81-24.12 31.49-18.94 22.3-43.32 30.29-72.06 26.17-5.46-.78-9.48-3.07-12.51-7.68-17.75-27-35.64-53.89-53.35-80.91-1.86-2.84-2.86-6.25-5.27-11.68 9.84 7.4 17.06 13.37 24.81 18.53 18.59 12.37 38 14.4 57.62 2.56 10.48-6.31 20.58-13.31 32.19-20.8zm-271-561q56 101.73 113.62 202.61c38.48 67.54 79.93 133.2 130.49 195.94-15.25 4.24-27.7 8.21-40.4 11.08-10.06 2.27-20.79 6-29.42-4.09-.72-.83-2.33-.94-3.55-1.31-17.23-5.23-27-16.19-28.83-34.68-2-19.65-8.74-38-17.28-55.8-4.17-8.68-9.78-16.09-18.34-20.63-5.74-3-8.47-7.85-10.82-13.5-7.53-18.06-14.39-36.46-23.13-53.92C338.76 738 311.2 673 284.9 607.49c-30.08-75-61-149.71-83.53-227.47-1.39-4.8-2.69-9.63-4-14.44 30.34 71.66 63.23 141.93 100.71 209.96zM440.32 994 422 1019.74c-2.1-2.84-4-4.58-4.9-6.73-5.94-14-13.84-27.66-17-42.3-4.65-21.87-5.91-44.45-8.52-66.74-.06-.52 1-1.17 1.58-1.85 6.06-1 6.87 4.23 8 7.86 4.67 14.95 9.48 29.9 13 45.14 3.3 14.15 8.63 26.59 20.78 35.28 1.77 1.23 3.58 2.35 5.38 3.6zM273.59 660.85l1.55-.4c23.05 51.23 46.1 102.45 69.48 154.43l-28.81-1.45zm23.69 194.45c.1-2.46 4.41-5.5 7.41-6.92 3.26-1.55 8.17-.37 10.79-2.41 8.89-6.89 17.78-3.77 26.68-1.16 4.48 1.31 8.24 3.43 8.74 9.49.26 3.3 3.46 6.44 5.56 9.5 3.35 4.88 7.45 9.33 10.23 14.5a103.05 103.05 0 0 1 12 45.19c1.28 33.07 7 65 23.62 94.26.42.72 0 2-.26 6.24-3.8-6.54-6.47-10.24-8.23-14.34-5.52-12.87-10.45-26-16.09-38.84-6.9-15.67-15.81-30.07-28.51-41.86-10-9.31-21.71-12.92-35.21-10.54-2.5.44-5 .85-8 1.34a19.76 19.76 0 0 1-2.14-2.89c-8.16-19.86-7.36-40.77-6.59-61.56zm41.4 84.18c11.84 10.24 19.8 23.32 26.23 37.32 5.15 11.21 10.1 22.54 14.43 34.07a62.47 62.47 0 0 0 18 25.91c4.75 4.07 10.25 7.28 15.37 10.85-.5 11.88-1.65 23.75-1.36 35.57.74 30.62 11.28 58.47 27.25 84 16.89 27 35.31 53.13 53 79.66 8.26 12.37 17.17 24.39 24.47 37.3 15.91 28.14 31.57 56.46 46.26 85.24 34.62 67.82 68.4 136.07 103 203.91 10.79 21.17 23 41.61 35.83 64.64-2.77-1.47-3.62-1.67-4.11-2.22-2.83-3.16-5.63-6.37-8.35-9.63-62.2-74.3-115.67-154.65-165-237.89-45.79-77.32-84-158.61-125.61-238.16-31.19-59.69-58-121.24-79.34-185.12-3.19-9.55-6.16-19.17-9.18-28.62 12.98-5.47 20.1-4.63 29.11 3.17zm338.1 623.9c-37.94-74.3-75.24-148.93-112.75-223.44-.67-1.32-.69-3-1.52-6.84l10.26 11.19Q662.85 1442 753 1539.52c10.22 11 19.44 22.45 27.09 35.35 22.42 37.8 41 77.47 58.16 117.85 25.2 59.19 51.57 117.81 89.21 170.52.45.63.47 1.56 1.49 5.24-4.26-3.41-6.58-5.23-8.86-7.09-39.43-32-75.61-67.42-111.57-103.18-20.92-20.8-38.91-43.73-55.47-67.94-27.87-40.81-53.79-82.86-76.27-126.89zM545 1269c-4-4.7-7.82-9.62-13-16 8.27-.52 14.11-.59 19.85-1.31 22.57-2.84 41-13.6 55.85-30.48 8.64-9.85 16.37-20.48 26.69-33.53 4.27 5.58 7.56 10.61 11.56 15 29.2 32.13 58.24 64.42 87.91 96.11 52.66 56.26 106.77 111.2 158.34 168.43a2415.94 2415.94 0 0 0 173.8 174.61c71.35 64.54 140.36 131.66 214 193.65 83.47 70.21 168.9 137.77 261.13 196.31 1.09.7 1.87 1.88 4.88 5-8.13-2.87-13.33-4.55-18.42-6.53-42.81-16.71-85.77-33-128.35-50.29-127.8-51.83-247.5-118-353.35-206.94-53.74-45.17-104.79-93.55-156.69-140.89C765.7 1519.45 653.78 1395.7 545 1269zm83.91-103.77-52.09-41.77c17.34-24.24 25-51.53 31.27-80.41 23.53 12.54 45.23 23.9 64 38.87-14.62 28.16-28.79 55.48-43.23 83.35zm-17.34-138.51c6.16-39.3 14.9-77.06 27.56-114.78 32.68 17.92 62.34 36.8 88.36 61 5.12 4.76 7.37 17.15 4.52 23.76-3.69 8.58-7.3 17.21-11.12 25.73-8.64 19.25-21.66 35.19-36.32 49.68zM201.24 255.19c5.22 6.1 10.34 12.27 13.32 20l.47.4 7.68 10.24-.23.21.23-.21.39.88c1.78 1.7 3.7 3.3 5.36 5.09a19.29 19.29 0 0 1 1.73 2.1c79.28 110.76 159.46 220.9 237.31 332.66q70.89 101.76 148.6 198.14c15.49 19.16 32.94 36.73 49.48 55 1.79 2 3.51 4 7.37 8.53l-53-6.82C593.41 841.57 567 802 540.69 762.23c-24.42-36.91-49-73.72-73-110.93C411.27 563.62 355 475.82 294.21 391c-22.82-31.82-44.94-64.14-67.27-96.31-.23-.33-.45-.68-.66-1a65.7 65.7 0 0 1-3.18-7l-.66-.64-7.64-10.27.11-.1-.11.1-.24-.61c-9.67-7.95-19-20.51-20.46-28.66 2.26 3 4.71 5.84 7.14 8.68zm-151.49-148c.63-9.72 1.67-19.61 4.25-28.95 7.17-26 24.36-42.34 50.58-48.61a36.39 36.39 0 0 1 40.89 18.75 75.93 75.93 0 0 1 5.78 15.47c4.64 17.19 3.54 34.69.94 51.93-1.88 12.53-5.3 24.91-8.91 37.1-3.84 13-2.17 24.2 7.17 34.27 6.35 6.85 12.32 14.06 18.44 21.14 3.79 4.39 7.54 8.82 11.58 13.56-9.06 8.5-17 16.13-25.14 23.5-3.4 3.07-7.65 5.22-10.87 8.44-5.67 5.65-10.61 12-16.26 17.68-8.25 8.29-17.91 11-30.07 5.38.23-3.71.1-7.92.81-12 3.5-20.09 6.85-40.21 11-60.16 4.72-22.78 3-26.52-19.14-35.26a61.71 61.71 0 0 1-5.87-2.43C60.68 154.43 48 134.92 49.75 107.22zm98.75 187.1-8.87 11.51c-3.5-9.33 4-9.83 7.15-13.28zm-98.9 606.3c1.48-68.08 5.07-136.07 11.75-203.84 7-70.68 14.71-141.29 22.14-211.93 4.63-44 9.38-88 13.91-132 1.52-14.72 2.56-29.49 3.89-45.12l12.44 1.15c.8 2.82 1.22 4 1.48 5.26 10.72 52.5 20.27 105.28 32.35 157.46 29.44 127.27 58.5 254.56 78.84 383.66 4.31 27.31 9.15 54.53 13.89 81.77 1.07 6.18.78 11.5-3.94 16.47-12.24 12.84-26.07 23-43 28.83-17.79 6.07-34.64 4.77-49.52-7.07-10.61-8.45-20.61-17.75-30.34-27.22-17.85-17.37-35.88-34.13-63.88-34-.02-5.01-.1-9.24-.01-13.42zm-3 48.21c7.5-6.84 10.29-8 18.79-3.16a125.71 125.71 0 0 1 20.5 15c14.41 12.55 28.46 25.52 42.54 38.45a25.51 25.51 0 0 1 5.4 7c8.13 15.88 16.06 31.86 24.4 48.49-2.54.35-3.5.8-4.16.52-28.52-12.18-57.06-24.31-85.42-36.84-2.67-1.18-4.84-4.68-6.12-7.6-8-18.18-15.62-36.51-23.74-55.63 1.97-1.61 5.07-3.72 7.81-6.23zM37 983.94c3.4 9 6.17 16.37 9 23.72l-2.21 2.47c-3.07-1.51-7.55-2.23-8.93-4.69-3.64-6.44-3.6-13.36 2.14-21.5zm365.21 687.18a105.31 105.31 0 0 1-8.94-6c-17.36-14.41-35.22-28.27-51.81-43.52-87.23-80.26-158.09-173.5-216.59-276.28-55.65-97.77-85.17-203.6-95.49-315.17-.19-2 .27-4 .47-6.71 3.18.25 5.61.5 8 .62 11 .5 17.57 5.73 21 16.64 4.74 15 11.22 29.41 16.51 44.23 25 70.17 52 139.53 85.08 206.38 35.56 71.69 75.15 141.19 117.4 209.21 36 58 73.7 114.58 121.42 163.82a63.64 63.64 0 0 1 4.23 5.37zm84.18 61.36c-5.93-5-12.31-9.65-17.71-15.22-11-11.3-21.33-23.18-32.07-34.69-32.84-35.18-66.31-69.78-93.61-109.69a2361.69 2361.69 0 0 1-178.17-306.67c-35-72.55-61.49-148.57-89.49-224-.24-.65.19-1.55.5-3.61 6 2.38 11.85 4.35 17.4 7 23 11.1 46.16 21.77 71.11 28.11 3.79 1 7.51 5.31 9.69 9 32.9 55.77 63 113 89.38 172.17 44.5 99.91 88.27 200.14 132.69 300.08 26.12 58.77 53.89 116.72 89.67 170.44a42.36 42.36 0 0 1 2.53 5.2zm331 221c-8.79-2.42-18-3.49-25.45-9.88-43-37.06-84.68-75.6-115.23-124q-39.51-62.59-76.12-127c-41.65-73.25-82.19-147.13-123.25-220.72a131.07 131.07 0 0 0-9.47-15.14c-1.34-1.78-4.4-2.26-6.68-3.34-1 4.76-.44 7.94 1 10.67 3.54 6.79 7.51 13.35 11.25 20q81.42 145.37 162.9 290.69c32.45 57.53 72.21 109.38 122.43 152.76 2.64 2.27 4.86 5 7.27 7.56a33.89 33.89 0 0 1-12.75-2.93c-32.63-13.07-62.09-31.61-90.58-52-46.93-33.57-88.43-73.36-130.37-112.66a47.06 47.06 0 0 1-6.43-7.89c-37.56-54.91-71.74-111.77-98.89-172.63-34.15-76.56-68.39-153.08-102-229.88-40.12-91.64-80.34-183.21-131-269.74-1.22-2.1-2.05-4.42-3.62-7.83 34 3 64.71-1.79 89.54-27.21 1.67 4.07 3 7.1 4.16 10.18 16.92 44.54 33.67 89.15 50.85 133.59 3.81 9.88 8.95 19.28 13.89 28.68 1.36 2.6 4.22 4.42 6.22 6.42 5.89-4 3.48-7.56 1.94-11-4.22-9.3-9.08-18.34-12.74-27.84-16.26-42.34-31.75-85.24-48.79-127.43-6.51-16.11-9.55-31.21-1-50 2.47 5.61 4.18 9.35 5.77 13.13 35.64 84.73 70.72 169.67 111.44 252.19 52.34 106.1 103 213.07 160.94 316.3s120.9 203.47 191.7 298.55c14.56 19.55 30.53 37.75 50 52.61 1.62 1.24 3.87 1.66 5.83 2.46zm140.71 22.31c-22-1.54-44-3.17-65.95-4.59-15.38-1-28.62-7.34-41.35-15.46-27.56-17.57-52.05-38.49-71.27-65.1-21.43-29.69-43.28-59.11-63.7-89.49-76.06-113.15-144.74-230.75-204.91-353.24-17.42-35.47-35.24-70.74-52.88-106.1l1.37-1.43a19 19 0 0 1 2.34 3c31.68 63.24 69.14 123.18 105.06 184 31.83 53.89 63.67 107.86 100.9 158.27 30.34 41.08 60.62 82.38 93.6 121.31 53.2 62.8 115.69 115.36 186.19 158.14 4.06 2.47 7.9 5.3 11.84 8zm69.21 10.27c-2.7.28-5.73 1.49-8 .66-8.77-3.15-17.83-6-25.8-10.71-18.37-10.73-36.19-22.41-54.21-33.75-57.34-36.07-108.22-80-153.7-129.92-55.76-61.24-103.21-128.89-148.55-198-2.2-3.36-3.78-7.13-5.66-10.71l2-1.44q170.82 217.83 394.36 381c-.09.98-.25 1.94-.4 2.9zm269.7 99.43c-2.46-.68-4.93-1.32-7.36-2.07-103.23-32-196.2-83.15-281.24-149.44-17.58-13.71-33-28.92-46-47.21-26.46-37.12-52.85-74.24-72.11-115.73-23.28-50.13-45.75-100.64-68.52-151-.25-.56.22-1.45.54-3.23 3.41 3.18 6.7 5.71 9.35 8.79 15.8 18.39 31.88 36.57 47.09 55.44a3525 3525 0 0 0 235.09 264c53.36 54 112.54 99.92 179.88 135.14 3 1.59 5.84 3.64 8.74 5.48a8.41 8.41 0 0 1-5.42-.14zm301.21 23.15c-18.87 3.41-36.18-.45-53.58-6.9-59.82-22.15-120.76-41.48-177.61-71.07-3.75-2-7.64-3.86-11.5-.11-.58 5.89 4.11 7.23 7.69 9 13.71 6.81 27.22 14.23 41.43 19.8 42 16.46 84.26 32.13 126.41 48.16 2.51.95 4.85 2.35 7.27 3.54-13.07 2.25-25.67 2.51-38.27 3-18.15.73-35.6.59-53.59-5.78-46-16.28-90.75-34.38-130.26-63.57-31.85-23.52-63.54-47.25-95.3-70.89-4.78-3.56-9.32-7.52-14.4-10.56-2-1.22-5.27-.47-8-.62.65 2.52.71 5.46 2.12 7.46 1.65 2.35 4.4 4 6.78 5.75q49 36.86 98 73.62a395.43 395.43 0 0 0 105.64 56 77.37 77.37 0 0 1 7.49 3.54c-17.61 1-34-2.43-49.79-9.26-86.79-37.5-165.69-86.62-233-153.88-75.09-75-146-153.81-213.9-235.28-6.52-7.82-12.82-15.81-19.22-23.72l1.65-1.85c3.12 2.71 6.29 5.36 9.34 8.15q28.75 26.3 57.46 52.64c84.88 77.88 178.17 143.75 280.62 196.51 124.87 64.3 255.74 113.6 389.68 155.15 3 .93 5.92 2.24 8.87 3.38-17.5 3.75-34.93 4.74-51.99 7.82zm290.15-6.87c-13.9 1-27.8 1.89-41.7 2.88a84.22 84.22 0 0 1-50.07-12c-11.35-6.73-23.26-12.54-34.36-19.63-44.48-28.42-88.75-57.17-133.09-85.81-2.14-1.39-4-3.48-6.38-4.14s-5.19 0-7.81.08c.93 2.53 1.14 5.9 2.92 7.42a179.11 179.11 0 0 0 18.4 13.77c31.37 20.48 62.71 41 94.35 61.06 18.24 11.57 37 22.25 55.59 33.33l-.48 3c-10.47-1.28-21.07-1.92-31.37-4-13.75-2.78-27.33-6.47-40.87-10.15-23.4-6.36-47.86-10.41-69.82-20.09-40.84-18-80.69-38.33-118-63.26-97.6-65.16-189.18-138.08-277-215.74-59.31-52.47-116.54-107.3-175.42-160.29a2182 2182 0 0 1-162.48-162.55c-49-54.44-100.48-106.59-150.54-160.06-39.28-42-78.06-84.4-117-126.66a33.37 33.37 0 0 1-2.68-4.4c16.67-25.79 24.8-56.89 44.71-81.63 2.18 1 3.51 1.22 4.44 2 6.61 5.38 13.2 10.77 19.67 16.3 90.43 77.21 176.51 159.09 261.5 242.16 90.17 88.13 181.89 174.56 277.65 256.68Q1346 1693.69 1442 1779c54.89 48.5 108.82 98.08 163.74 146.56 25.2 22.25 51.31 43.54 77.76 64.31 57.72 45.34 120.87 80.9 191.09 103.28 4.88 1.55 9.56 3.73 14.33 5.61zm59.67-14.82c-11.62-6.21-23.13-12.76-34.06-20.09-28.64-19.21-56.9-39-85.4-58.4a209.13 209.13 0 0 0-20.61-12.73c-2.41-1.27-7.49-1.5-8.79 0-3.1 3.59.88 5.85 3.64 7.72 6.35 4.28 12.79 8.44 19.18 12.67q57 37.66 113.91 75.42c.74.49.88 1.92 1.86 4.24-5.65-1-10.34-1.23-14.66-2.63-19.42-6.29-38.69-13-58.09-19.39-59.34-19.45-112.72-50.17-162-87.87q-48.66-37.23-94.68-77.87c-81.67-72.21-162.22-145.68-243.89-217.88-63.81-56.4-130-110.19-192.68-167.78-82.47-75.74-162.5-154.13-243.71-231.25-73.76-70.04-147.06-140.67-226.58-204.44-1.65-1.32-3.41-2.52-6.43-4.75 27.16-23.68 40.57-54.56 54.09-87.52 4.29 4 6.57 5.83 8.59 8 35.19 37.05 70.94 73.58 105.34 111.34 35.55 39 68.76 80.21 104.78 118.78a3290.64 3290.64 0 0 0 360.22 332.37c137.82 109.33 272.47 222.43 406.54 336.23a2358.06 2358.06 0 0 0 247 183.28c2 1.3 3.88 2.86 6.33 4.68-17.84 5.62-25.67 5.48-39.86-2.08zm148.21-9.68c-4.24.69-9.48-.78-13.41-2.86-17.65-9.32-35.8-18-52.26-29.18-31.71-21.47-62.38-44.48-93.54-66.78-3.26-2.33-6.85-4.19-10.28-6.27l-2.4 1.69c.44 2.48.14 5.53 1.5 7.31 2.28 3 5.46 5.37 8.54 7.62 42.61 31.09 83.85 64.22 131.06 88.5 1 .53 1.81 1.55 4.7 4.12-15.08 1.83-27.79 2.76-40.25 5.09-9 1.68-16.86-.18-24.44-4.38-7.07-3.91-14.12-7.93-20.83-12.42-20.52-13.73-41.29-27.14-61.2-41.71-44.3-32.44-88.82-64.64-132-98.58-36.12-28.41-70.22-59.38-105.53-88.83-89.27-74.45-177.88-149.73-268.33-222.71-85.84-69.26-171.49-138.55-253.07-212.94-78.44-71.53-154.49-145.32-224.18-225.35-55.58-63.9-111.41-127.59-171.64-187.31-2.25-2.23-4.08-4.88-6.75-8.12 4.18-.84 7.15-2.18 9.95-1.88 23.31 2.48 45.47 8.23 61.1 27.41 30.39 37.29 60.3 75 90.51 112.43a817.08 817.08 0 0 0 87.39 93c80.19 72.62 162.57 142.69 248 209.12 47.05 36.58 94.8 72.25 142.2 108.39 25.72 19.62 50.74 40.23 77.15 58.87 100.53 70.94 201.89 140.7 302.15 212 62.09 44.16 122.53 90.64 184.15 135.47 62 45.13 125.42 88.1 196 119.25 2.1.93 3.89 2.56 8.67 5.77-26.4 4.93-49.6 9.5-72.92 13.31zm141.5-33.48c-3.31.94-7.72-.09-11.09-1.48-17.28-7.12-34.91-13.66-51.42-22.3-23.74-12.42-46.59-26.55-69.92-39.78-4.14-2.34-8-6.7-13.72-4.25.53 7.35.43 7.51 7.1 11.67 35.43 22.09 71.39 43.2 110.25 58.88 1.82.73 3.48 1.83 6.06 3.2-13.44 6.83-24.46 6.44-37.83.46-73.17-32.71-140.3-75.41-203.95-123.42q-158.14-119.31-321.59-231.1c-15.44-10.55-30.57-21.58-45.84-32.38l1.34-2.15c3.2 1.79 6.5 3.44 9.6 5.38 141.49 88.72 288.24 168.31 434.35 249 39.78 22 81.08 42 123.52 58.06 41.62 15.78 85.57 25.44 128.5 37.77 3.3 1 6.62 1.85 12.17 3.39-26.28 13.52-51.75 21.74-77.49 29.08zm226.53-152.58c-1.3 8.66-5.11 15.92-10.68 22.69-18 21.84-37.71 41.49-63.55 54.12-8 3.91-15.77 8.35-23.46 12.87a49.89 49.89 0 0 1-29.35 6.92c-11.78-.83-23.47-2.8-35.2-4.28v-3.3c2.87-1.63 5.77-3.21 8.6-4.9 18.6-11.07 37.72-21.37 55.65-33.43 34.69-23.33 65.53-51.34 94.51-81.41a82.48 82.48 0 0 1 6.77-5.72c.36 13.08-1.51 24.77-3.25 36.47zm5.81-70.83c-.11 4.71-2.43 9.73-4.91 13.92s-6.35 8-9.92 11.6c-49 49.7-102 93.78-165.73 123.89-12.26 5.79-22 4.74-33.75-1 86-58.48 156.45-130.56 210.58-218.43l3.95 1.17c.04 23 .31 45.95-.18 68.88zm-1.45-106.73a33 33 0 0 1-5 15.3c-42.49 69.67-94.81 131.09-157.37 183.41-20.5 17.14-43.25 31.61-65.26 46.88a16.65 16.65 0 0 1-11.72 2.39c-8.59-1.85-16.88-5.09-26.75-8.22 2.27-2.61 3-3.73 3.94-4.47 36.21-27.31 67.1-60.27 98.54-92.67 67.35-69.41 122.59-147 161.48-235.89a34.43 34.43 0 0 0 1.14-3.52c2.53 3.48 2.86 5.45 2.82 7.4-.46 29.83-.79 59.64-1.78 89.42zm17.36-351.48c-7.23 66-12.49 132.13-14.33 198.53a51.82 51.82 0 0 1-3.52 17.31c-29.23 73.58-66.47 142.64-117.11 203.91-32.84 39.73-67.65 77.72-105.09 113.14-18.21 17.21-38.16 32.57-57.27 48.83-5.51 4.68-10.72 5.33-17.38 1.51-9.57-5.49-19.83-9.77-29.73-14.7-3.94-2-7.72-4.26-12.35-6.84 4.11-3.91 6.85-6.55 9.63-9.15 33.13-30.94 62.68-65 87-103.21 57.21-89.72 112-180.88 161.25-275.26 33.81-64.82 66.46-130.24 100.86-197.81-.75 9.44-1.19 16.57-1.96 23.74zm304.17-255.38c-.75 49.48-6.47 98.48-14.37 147.26-11.71 72.34-27.29 143.73-50.93 213.25-43.08 126.65-105.2 243.57-180.39 353.74-14.34 21-31.45 40.14-47.28 60.14l-3.43-1.42c.33-4.06.4-8.15 1-12.16 1.41-8.64 1.55-17.17 7.15-25.2 73.65-105.56 133.58-218.22 177.83-339.37 47.89-131.09 83.09-265.36 106.79-402.77.39-2.26 1.52-4.39 2.31-6.57a45 45 0 0 1 1.31 13.1z" fill="#bdabd3" data-color="1"/>
            <path d="m215 275.6-.09.08z" fill="#bdabd3" data-color="1"/>
        </g>
    </g>
</svg>
