<?xml version="1.0" encoding="UTF-8"?>
<svg data-bbox="0.006 0.003 3563.757 2709.535" viewBox="0 0 3563.74 2709.57" xmlns="http://www.w3.org/2000/svg" data-type="color">
    <g>
        <path d="M462.13 1233.91c-8.37-7.69-16.49-15.11-24.56-22.58-41.13-38.11-68.33-84.51-81.93-138.79-10.3-41.14-8.07-82.13 3.36-122.7 13.22-46.88 61.16-90.58 125.63-81.9 25 3.36 49 9.11 70.8 22.68 33.36 20.81 53.13 51.13 59.69 89.16 12.88 74.6-.07 145.91-30.86 214.45-1.15 2.56-2.2 5.16-3.7 8.73l919.91 757.21c3.56-4.42 6.74-8 9.48-11.83 40.37-56.78 81.13-113.29 120.91-170.48 58.27-83.77 115.89-168 173.69-252.09 57.38-83.48 107.87-171.26 160.46-257.74 70.08-115.24 135.37-233.14 197.46-352.85 15.09-29.09 29.54-58.51 44.23-87.82 2.54-5.08 4.79-10.3 7.67-16.54-3.65-.81-6.22-1.78-8.82-1.87-7-.27-14 .24-20.89-.29-9.82-.74-14.58-5.85-15.58-15.66v-1.22c-1.92-23.43 2-30.72 24.23-39 12.57-4.7 26.06-6.89 39-10.67 5.33-1.56 11-3.38 15.32-6.7q291.62-225.87 583-452.1c3.51-2.72 6.87-5.62 10.78-8.82-2.45-5.46-4.61-10.26-6.75-15.07-12.51-28.1-24.61-56.31-29.72-87-6.48-38.91-5.12-76.89 13.76-112.59s47.78-56.18 88.52-59.54c24.61-2 45.58 6.53 62.64 23.08 42.45 41.2 59.89 90.21 42 148.58-9.7 31.61-25.74 60.18-44.41 87.33-2.55 3.71-5.14 7.38-8.5 12.19 2.9 2.73 5.6 5.61 8.64 8.09 56.52 46.1 112.83 92.47 169.7 138.15 80.19 64.43 160.39 128.88 241.41 192.26 44.84 35.08 91.32 68.08 137.24 101.77 4.48 3.28 10.17 5 15.4 7.14 6 2.5 12.42 4.23 18.2 7.19 10.38 5.31 16.71 20 13.29 32.62-4.54 16.79-9.89 30.51-30.78 29.24-1.88-.12-3.84 1.1-6.93 2.06-1.14 11.26-2.46 22.56-3.41 33.89-5.64 67.56-20.4 133.61-34.24 199.72-26 124.29-52 248.62-80.88 372.25-27 115.22-54.91 230.26-89.9 343.47-29.82 96.46-70.19 187.75-123.11 273.83-54.26 88.25-113.22 172.7-185.32 247.5-46.52 48.26-97 91.72-152.35 129.67-24.32 16.68-47.66 34.78-71.6 52-94.5 68.12-196.45 123-303.11 169.31-18.76 8.15-37.52 16.86-57.1 22.45-46.43 13.25-92.18 29-139.84 37.88-54 10-108.31 18.09-163 22.55-52.65 4.28-105.39 7.53-158.13 10.57-89.66 5.17-179.44 5.09-269.17 3.51q-81.06-1.41-162-7.25c-146.21-10.38-290.34-34.07-432.61-69.43-85.16-21.17-169.5-44.79-251.12-77.34C709 2499.14 576.76 2431.18 455.87 2342c-64.64-47.69-130.51-93.7-192.28-145.19-66.17-55.17-129.82-113-188.7-176-1.12-1.2-2.56-2.24-3.28-3.65-6.57-13-17.81-14.84-30.93-14.16-11.86.62-23-1.62-28.2-14.81-1.14-2.87-4.35-4.86-6.27-7.5-9.47-13-8.07-27.82 4-38.58 11.42-10.21 23.84-19 39.53-21.11 8.23-1.07 11.37-6.86 15-12.93q85.82-145.62 171.77-291.17 109-184.74 218.05-369.49c2.44-4.2 4.72-8.48 7.57-13.5zm1994.23 1254.86c3 .4 3.82.76 4.55.58q14.31-3.53 28.59-7.2c68.3-17.53 133-43.83 193.32-80.44 80.2-48.69 150.25-109.53 211.65-180.24 39.78-45.81 76.93-93.77 112.12-143.23a155.88 155.88 0 0 1 13.19-16.13c2.7-2.88 7.15-4 9.84-.61a12.63 12.63 0 0 1 2.16 9.7c-1 3.77-3.84 7.18-6.31 10.42-32 42-63.71 84.36-96.36 125.92-34.53 43.95-74 83.3-116 120.11-78.22 68.55-165.27 122-264.18 155.42-2.28.77-4.48 1.81-7.36 3 1.49.45 2.19.88 2.85.82a44.29 44.29 0 0 0 4.84-.77c78.33-15.07 151.82-43.13 221.83-81.16 38.75-21 73.2-48.1 108.76-73.72 36.05-26 69-55.36 100-87.12 70.77-72.61 128.92-154.6 182.25-240.55 54.83-88.37 96.25-182.24 126.54-281.62 31.8-104.31 57.48-210.19 82.8-316.12 35.72-149.38 67.72-299.62 97.1-450.4 10-51.09 19.53-102.18 23.09-154.21.29-4.25 0-8.54 0-12.67-22.87-2.17-238 2.42-247.13 5.3v10.71c-.11 36.06 1.19 72.2-.7 108.17-2.39 45.78-6.48 91.52-11.44 137.1-6.74 61.88-13.3 123.86-22.92 185.33a3571.27 3571.27 0 0 1-85.81 398.6c-19.2 69.52-40.18 138.53-70.08 204.37-61.93 136.33-142.66 260.81-238.64 375.46-97.2 116.12-214.12 207-351.34 271.39-1.81.82-3.57 1.84-7.21 3.79zm-288.52-38.06c8.15 6 15.6 5 23.71 1.95 74.73-27.89 142.57-68 205.92-116 62.3-47.25 116.36-103.33 170.58-159.24 6.27-6.47 12.32-13.17 18.83-19.4 7.11-6.8 12-7.91 16-4.48 4.4 3.75 3.51 9.1-4.07 16.72-42.77 43-84.35 87.27-128.89 128.34-75 69.12-158.77 125.29-254.18 162.93-1.18.46-2.07 1.65-4.62 3.76 4.54 0 7 .4 9.39-.06 22.47-4.33 45.15-7.48 66.57-16.53 71.3-30.17 138.18-68 199.59-115.13 69.9-53.7 130.7-116.75 187.33-184 42.85-50.89 79.36-106.38 117-161.06 112.35-163.31 197.84-339.35 252.58-530.2 25.08-87.47 48.76-175.22 63.53-265.08 12.09-73.57 22.86-147.37 24-222.13.79-53.66.86-107.33 1.1-161 0-5.17-1-10.34-1.69-17-33.46 2-66-.47-98.84 3.25-.42 2.92-.86 4.88-1 6.86-1.46 24.11-2.29 48.28-4.45 72.34-3.37 37.52-6.73 75.07-11.7 112.4-9.27 69.5-25.58 137.67-41.58 205.85-19.31 82.29-47.16 161.94-75.19 241.54-81.53 231.55-195.23 446.27-338.22 645.56-69.76 97.23-148.38 186.66-239.48 264.66-46.16 39.52-93.91 76.81-149.45 102.74-.7.26-1.21.99-2.77 2.41zm-12.12-76.18.39 1.26c3.47-2 7-3.86 10.39-5.87a756.34 756.34 0 0 0 188.55-156.15c25.88-29.59 50-60.72 75-91.06a212.49 212.49 0 0 1 14.87-16.3c3.16-3.11 7.33-4.09 11-.64s2.91 7.36.66 11.21a32 32 0 0 1-2.92 3.95c-26.85 33.08-52.85 66.91-80.75 99.08-74.83 86.33-163.67 154.38-268 201.7-2.83 1.28-5.4 3.1-8.53 4.92 12.54 8.34 24.71 10.24 37.65 3.83 18.32-9.07 37.35-16.94 54.83-27.4 40.89-24.47 78.22-53.94 114.2-85.12 85.62-74.19 160.15-158.49 226.35-250.15A2567 2567 0 0 0 2867.72 1425c57.5-161 102.57-324.88 121.39-495.2 4.5-40.67 6.17-81.66 9-122.51.24-3.48-.4-7-.72-11.82l-142.14 2.88c-3.39 29.76-5.95 57.88-9.89 85.81-9.56 67.86-25.63 134.33-44.71 200.07-77.86 268.29-175.51 529.39-286.12 785.74-36.08 83.62-77 164.8-126.41 241.48-52.11 80.94-111.23 156.19-182.74 221.09-16.03 14.57-33.07 28.03-49.66 41.99zm381.54-1570.92c-2.59 11.13-4.71 21.52-7.43 31.76-20.72 78-45.61 154.77-73.51 230.51-46.88 127.28-100.21 251.95-152.59 377-44.48 106.18-90 212-141.27 315-56.27 113.09-121 221.46-191.88 326.06-45.78 67.52-98.94 128.48-160.85 181.73-1.68 1.45-2.87 3.49-4.8 5.91l14.22 9.63c4.53-2.72 8.72-5.21 12.88-7.75 46.75-28.6 88.61-63.31 127.74-101.51 41.18-40.22 76.65-85.3 111.93-130.57 4.78-6.14 9.42-12.42 14.61-18.2 6.14-6.86 11.84-8.2 15.75-4.55 3.62 3.37 3 8.12-2.54 15.22-20.5 26.11-40.79 52.38-61.78 78.09-56.09 68.74-119.47 129.41-196.15 175.14-1.92 1.15-3.44 3-5.88 5.11 5.27 3.43 10.11 5.84 14 9.29 10.72 9.38 21 7.11 31-.61 13.66-10.46 27.57-20.65 40.62-31.83a1167.76 1167.76 0 0 0 175.9-188.33c100.36-134.27 186.25-277.67 261.22-427.38 80.69-161.11 145.86-328.55 196.95-501.48 32.85-111.2 63.67-222.88 89.15-336 .95-4.22 1.37-8.55 2.27-14.32zm-849.52 1370.17c2-1.43 4.47-2.91 6.64-4.7 47.82-39.46 93.61-81.3 133.7-128.54 87.43-103 165.8-212.56 231.78-330.76 39.4-70.56 74.21-143.37 107.7-216.81 41.82-91.67 84.74-182.89 118.83-277.91 25.87-72.1 53.26-143.65 78.9-215.83 21.11-59.43 40.68-119.41 60.86-179.18 1.41-4.17 2.28-8.54 3.45-13-1.91-.65-3-1.36-4.1-1.35-27.05.2-54.1.57-81.15.69-6.41 0-8 4.19-9.77 9.06-5.5 15.43-10.73 31-17 46.11-14.62 35.18-30.65 69.8-44.56 105.25-50.06 127.59-108.77 251.09-174 371.53-27.13 50.07-53.88 100.37-81.72 150.05-47.87 85.43-96.59 170.39-144.67 255.7a1084.53 1084.53 0 0 1-72.81 112.39 1403.09 1403.09 0 0 1-133.42 155.86c-2.85 2.86-5.47 5.94-8.24 9 1 3.21 1.91 5.9 2.77 8.6 10.11 31.5-11.77 52.35-38.32 49.72-7-.69-14.11-.1-21.94-.1 8.52 15.28 33.82 44.15 44.54 51.13 3.92-2.45 8.13-4.94 12.2-7.65a485.52 485.52 0 0 0 109.44-100c36-44.69 70.78-90.31 106.1-135.52 3.53-4.51 6.9-9.18 10.79-13.37 3.08-3.32 7.7-4.6 10.82-1 1.92 2.24 2.86 7.19 1.7 9.8a81.18 81.18 0 0 1-10.43 16.58c-35.5 45.59-70.69 91.44-106.9 136.45a470.52 470.52 0 0 1-115.26 102.56c-2.37 1.5-4.57 3.26-7.22 5.17zM1927 2346.59c35.11 21.07 28 24.49 63.83 3.77 26.83-15.52 52.2-34 76.53-53.32 51.17-40.6 96.07-87.95 140.66-135.49a778.66 778.66 0 0 0 98.88-129.86c68.35-113 130.3-229.32 183.91-350.11 48.89-110.18 94.32-221.66 129.87-336.88 37.46-121.36 68.17-244.58 96.83-368.28 11.92-51.45 22.3-103.26 33.21-154.94 1.4-6.61 2.91-13.46.64-20h-70.17c-.86 2.55-1.5 4-1.87 5.6-9.13 38.65-17.77 77.43-27.41 116-35.23 140.72-75.36 280-124.33 416.62-83.37 232.51-195.05 450.86-331.28 656.82-58.28 88.12-122.71 171.14-198 245.46-30.37 30-62.06 58.43-97.9 81.92-1.81 1.19-3.13 3.11-4.55 4.57 6.8 7.53 13.89 7.43 21.71 3.53 8.42-4.2 17.21-7.7 25.52-12.12a429.09 429.09 0 0 0 89.66-64.3c48.78-45.1 95.92-91.81 139.29-142.21a118.71 118.71 0 0 1 8.36-9c3.55-3.37 7.82-5.19 12-1.44s3 8.26.11 12.17c-4.4 5.91-8.91 11.76-13.77 17.29a1683.84 1683.84 0 0 1-145.63 146.29 378.92 378.92 0 0 1-99.75 64.47c-1.76.77-3.45 1.85-6.35 3.44zm-992.11-300c2.68 5.2 4.35 8.8 6.33 12.22 19.36 33.38 41.39 65 65.1 95.37 68.88 88.34 151.12 162.59 242.13 227.2a2304.57 2304.57 0 0 0 376.26 217.26c57.42 26.25 116.16 49.2 175.38 70.94 9.85 3.62 20.58 6.87 30.89 6.84 41.78-.13 83.56-1.58 125.34-2.59 3-.08 6.06-.51 9.09-.78a6.65 6.65 0 0 0-4.3-3.16c-33.45-9.57-67.26-18.06-100.3-28.9-116.7-38.26-228.33-88.49-336.82-145.76-91-48-175.85-105-250.64-176.18a74.56 74.56 0 0 1-7.71-7.89c-2.53-3.24-2.87-7.42.61-9.82 2.23-1.54 6.53-2.22 8.81-1.08 4.29 2.14 7.94 5.7 11.58 9a1155.15 1155.15 0 0 0 172.14 128.52c88.78 54 182.47 98.2 278.17 138.25 71.49 29.91 144.32 56.05 219.67 74.63 14.61 3.6 29.41 6.41 44.12 9.59-2.26-3.25-5.11-4.41-8-5.5-26.81-10.13-54.1-19.16-80.37-30.56-127.79-55.46-248.66-123.34-363.32-202.58-138.78-95.92-256.74-213.61-362.05-344.54-10.45-13-19.53-23.34-37.52-20.29-3.11.53-6.49-.7-9.76-.85q-93.3-4.29-186.59-8.5zM2248.16 808.36c-14.47 31.35-27.58 61.85-42.42 91.48q-94.45 188.56-204 368.84c-47.56 78.49-94.1 157.68-144.2 234.53-102.73 157.59-212.45 310.41-321.52 463.65-2.75 3.87-5.35 7.83-8.86 13 7.85 1.26 13.82 2.29 19.82 3.16 26 3.77 51.9 8 76.57 17.19 7.87 2.94 12.66 1.79 18-4.37 19.33-22.29 39.32-44 58.61-66.34 47.48-55 92.26-112 129.24-174.71 32.68-55.4 65.42-110.8 96.56-167.07 57.35-103.59 114.57-207.26 169.88-311.94 43.63-82.56 84.9-166.38 119.72-253.21 18.75-46.76 38.84-93 58.18-139.5 8.49-20.42 16.69-41 24.86-61.51 1.58-3.95 2.43-8.19 3.87-13.18zm52 1670.08c1.36.5 1.78.83 2.08.74 65.84-19.75 128.78-45.74 186.52-83.78 80.55-53.06 153.8-114.42 217.41-187.1 16.19-18.51 32.74-36.7 49.28-54.9a83.86 83.86 0 0 1 11.79-10.65c3.37-2.5 7.65-1.93 9.76 1.57a11.17 11.17 0 0 1 .58 8.9c-1.56 3.63-4.58 6.73-7.32 9.75-28.88 31.9-56.64 64.93-87 95.38-100.86 101.18-212.15 186.87-351.39 229.53-1.47.45-2.65 1.83-4 2.78 8.39 1.54 16.41 2.18 23.68.16 20.88-5.81 42.07-11.2 62.05-19.4 131-53.76 243.71-134 340.22-237.2 58.39-62.46 109.08-130.93 156-202.3 73.06-111.27 132.27-229 169-357.54 28.81-100.91 54.47-202.55 73.82-305.67 11.93-63.59 23-127.38 32.5-191.37 7.41-49.81 11.57-100.09 17.65-150.1 8.87-73 11.37-146.19 9.26-219.62-.14-4.74-1.41-9.45-2.13-14h-48.31c.71 22.45 1.25 43.31 2.06 64.16 4.12 106.44-4.29 212-20.95 317.13-14.21 89.56-35.23 177.53-60.42 264.58-25.08 86.64-52.95 172.29-89.74 254.8-52.22 117.13-116.2 227.52-189 333.06-52.46 76-107.36 149.81-171.06 217-92.24 97.28-197.81 175.4-321.13 228.84-3.58 1.52-7.04 3.29-11.19 5.25zm-32.57 142.71.28-2.52c-1.5-.29-3-.54-4.51-.87-27.59-6-55.57-10.72-82.72-18.34Q1944 2533 1739.05 2397c-70.37-46.9-137.7-97.71-198.17-157.06-50.15-49.23-95.94-102.15-132.86-162.23-4.11-6.68-9-9.56-16.86-9.71-17.6-.33-35.19-1.48-52.77-2.34-31.91-1.57-63.8-3.35-95.72-4.64-8.64-.35-17.47-2-27.45.56 3.55 4.58 6.14 8.21 9 11.59 15.44 18.07 30.76 36.24 46.47 54.08 70.54 80.16 146.26 154.91 231.14 220 111.94 85.87 232.55 157.42 359.38 219 80.77 39.19 164.49 69.29 252.57 86.84 15.14 3 30.94 6.2 46.1 5 28.94-2.25 57.65-7.45 86.41-11.71 10.37-1.53 20.62-3.87 31.25-5.9-30.65-3.56-60.83-5.44-90.38-10.79-101.12-18.32-199.16-47.48-293.14-89.25-88.64-39.39-171.48-89.26-251-144.52-28.54-19.83-55-42.67-82.32-64.24a55.35 55.35 0 0 1-8.62-8.69c-2.56-3.17-2.77-6.82.19-10.06s6.49-3.24 10-.94c2.37 1.58 4.47 3.57 6.7 5.37 14 11.3 27.88 22.87 42.18 33.84 52.09 40 107.78 74.52 164.2 108 137 81.31 284.68 132.45 441.78 157.07 16.67 2.57 33.64 3.29 50.48 4.88zm-575 54c-31.47-8.49-64.7-16-97-26.45a1768.26 1768.26 0 0 1-241.84-99.41c-81.64-40.65-160.53-85.67-230.13-145.3-33.6-28.78-66.71-58.13-99.83-87.47a129.18 129.18 0 0 1-15.62-17.31c-4.68-6-4.51-11.2-.27-14.09 5.56-3.77 8.94.13 12.51 3.77 10 10.24 19.55 21.1 30.45 30.34 38.76 32.84 77.37 65.93 117.3 97.3a763.08 763.08 0 0 0 79.85 55.11c108.73 64.86 223.66 116.5 343.38 157.56 8.51 2.92 17.22 5.3 25.89 7.73s17.26 4.55 25.89 6.81a19.39 19.39 0 0 0-7.27-5c-102.41-45.43-200.78-98.34-295.8-157.73-89.53-56-175.29-116.84-251.91-189.74-73.67-70.15-138.19-147.77-186.19-238.1-3.58-6.73-8.12-9.39-15.38-9.62-19.24-.63-38.47-1.63-57.69-2.56-31.09-1.51-62.17-3.15-93.27-4.61-6.25-.29-12.53 0-21.5 0 8.09 14.22 14.18 26.22 21.45 37.47 50 77.39 106.67 149.29 174.44 212.11 73.19 67.86 152.1 128.46 234.08 185.17 70.76 48.95 146.11 89.06 227.22 118.16 69.78 25 139.32 50.75 210.68 71 20 5.68 40.18 11.5 60.68 14.39 16.83 2.37 34.29.48 49.91.48zm-980.73-742.1 274.91 19.83-411-655.51a13 13 0 0 0-.87 8.68q61.35 280.82 122.77 561.6c4.63 21.14 9.2 42.29 14.22 65.41zm1066.64 320.11c4.49-3.72 7.84-6.09 10.71-9 18-17.92 35.77-36 53.79-53.93a689.38 689.38 0 0 0 84.31-100.78c31.85-46.69 63.35-93.73 92.61-142.07 45.17-74.65 90.06-149.62 126.27-229.21 38.34-84.26 76.66-168.56 113.22-253.6 57.28-133.22 113.56-266.89 164.26-402.8 28.94-77.56 54.5-156.24 75.58-236.33 1.72-6.56 2.81-13.29 4.44-21.11-15.37-.37-29.09-1.46-42.73 1.56-1.35 4.82-2.42 8.75-3.56 12.67-7.88 27.13-14.68 54.64-23.91 81.31-20 57.66-41.13 114.9-61.89 172.28-25 68.94-48.36 138.5-75.37 206.63-42.14 106.27-90.74 209.78-139.77 313a2121.37 2121.37 0 0 1-247 399.66c-57.4 73.26-120.42 140.61-192 200-1.86 1.54-4.19 2.51-7.45 4.43 7.52 6.74 13 11.56 18.34 16.44 3.42 3.1 6.81 2.2 10.05-.09 8.69-6.14 17.66-12 25.89-18.68A778.66 778.66 0 0 0 1892.64 2060q27.85-36.74 55.92-73.32a101.17 101.17 0 0 1 9.61-11.15c3.55-3.44 8-4.6 12.12-1 3.74 3.28 3 7.33.59 11.14a86.98 86.98 0 0 1-4.93 7c-23.88 31.27-47.46 62.77-71.76 93.71-36.36 46.27-77.38 88-124.06 124-7.4 5.7-15.11 11-24 17.4zm721.41 315.16-.36-1.4c-3.5.16-7 .24-10.49.49-20.83 1.48-41.63 3.9-62.47 4.33-60.53 1.25-120-8.32-179.37-18.82-78.25-13.85-152.65-39.91-226-69.95q-194.37-79.58-357.16-211.7c-3.15-2.54-6.6-5.29-8.41-8.73-1.19-2.28-.75-6.94.91-8.75s5.75-1.8 8.71-1.59c1.73.12 3.34 2.18 5 3.39q14.35 10.56 28.71 21.13c48.55 35.67 97.07 71.36 149.21 101.79 69.18 40.39 142.21 72.64 216.19 102.92 101.05 41.38 206.8 62.24 315.11 71.49 35.61 3 71.26.93 106.75-2.84 32.15-3.42 64.43-6.64 93.92-21.63 16.67-8.47 33.2-17.22 49.79-25.84a11.42 11.42 0 0 0-8.61-.79c-24.33 5.64-48.48 12.25-73 16.82-85 15.82-170.21 17.1-255.23-.39-89.35-18.38-176.32-45-259.92-81.29-101.87-44.18-196.88-100.88-285.56-167.66a915.63 915.63 0 0 1-139.26-129.65c-16.93-19.41-32.84-39.65-45.31-62.65-39.73-2.44-79.09-4.56-121.25-5.53 4.66 7 7.67 11.75 10.87 16.35A839.62 839.62 0 0 0 1569 2222.49c136.6 127.69 293.2 223.87 466.15 294.18 113.53 46.15 231.39 74.42 353 87.58 7.55.81 15.95 1.14 22.91-1.3 27.42-9.62 54.42-20.42 81.55-30.86a69.79 69.79 0 0 0 7.33-3.76zM678.77 1931q-72.84-333.1-145.18-663.88c-22.67 218.08-43.4 436-63.7 654.82zm-58.13-627.36-1.91 1.45c1.54 2.68 3 5.41 4.64 8q18.25 29.19 36.56 58.33 178.27 284.29 356.18 568.81c8 12.77 16.46 17.46 30.93 18.2 60.94 3.1 121.81 7.37 182.72 11.13 2.58.16 5.21-.55 9.74-1.07q-310.79-333.88-618.86-664.85zM2015 2392.74c9.3 7.31 18 10.14 29.08 6.71 18.59-5.75 35.69-14.29 52.16-24.39 58.2-35.68 107.79-81.3 152.92-132.13 78.36-88.28 140.88-187 192.87-292.65 42.35-86.08 79-174.65 114.59-263.66 70.77-176.89 136.12-355.73 191.71-538 29.65-97.21 57.38-194.91 68.86-296.36 2-17.34 3.39-34.75 5.07-52.26h-37.91c-5.42 33.62-9 66.31-16.16 98.18-17.36 77.09-35.92 153.93-54.93 230.64-22.26 89.85-45.55 179.48-75.4 267.15-75.26 221-171.81 432.24-291.55 632.78-32.25 54-68.5 105-111.57 151q-36.57 39-74.48 76.75c-39.89 39.64-82 76.68-129.43 107.3a52.41 52.41 0 0 0-4.53 3.68c5.63-.13 10.38-2.06 15-4.18 71.63-32.67 131.28-81.68 185.33-137.81 23.27-24.16 44.17-50.6 66.22-75.95 3.75-4.32 7.37-9 12-12.21 2.3-1.61 7.78-1.63 9.74.06s2 6.51 1.51 9.73c-.42 2.56-2.86 4.88-4.64 7.11q-11.1 13.93-22.37 27.76c-45.17 55.07-95.69 104.57-153.39 146.5-34.31 24.92-71.07 45.42-110.91 60.2-3.01 1.06-5.92 2.42-9.79 4.05zm-533.94 272.39v-2.64c-30.07-10.72-60-21.89-90.25-32.09-91.42-30.82-177.24-72.9-256.83-127.47q-92.34-63.3-178.79-134.46c-90.6-74.48-169.1-159.75-233.8-257.63-14.91-22.57-30-45.07-39-70.86-1.9-5.45-5.47-6.31-10.32-6.51-16.37-.68-32.73-1.67-49.1-2.32-7.29-.29-14.59-.05-23.35-.05 2.64 6.27 4.81 11.89 7.34 17.35 26.65 57.53 60.91 110.48 98.1 161.58 60.31 82.89 130.56 156.87 206.24 225.62 79.69 72.41 168.43 131.57 267 175.51 1.49.66 3.33 1.17 4.28 2.34 5.68 7 13.89 7.94 21.9 9.55 9.63 1.94 19.2 4.23 28.84 6.11 14.69 2.88 29.41 5.54 44.12 8.28-3-3.6-6.51-5.51-10.11-7.25a1816.4 1816.4 0 0 1-229.9-132.39c-32.76-22.21-61.6-48.88-88.17-78.06a67.91 67.91 0 0 1-10.52-15c-1.06-2.1.16-6.88 2-8.5s6.5-2 8.7-.72c3.78 2.14 6.83 5.76 9.81 9.1 28.26 31.63 59.56 59.69 94.9 83.32 45.69 30.54 92.35 59.54 141 85.13 45.66 24 92.09 46.64 138.43 69.38 7.93 3.89 16.93 6.22 25.69 7.64 21.43 3.48 43 6.22 64.52 8.86 19.05 2.35 38.21 4.14 57.27 6.18zM1464.43 1975l1.46-1.86-750.53-617.81c1.35 4.49 4.06 7.47 6.81 10.42q137 147.13 273.89 294.25 140.7 151.18 281.32 302.45c5.24 5.64 10.45 9.56 18.74 9.67 56.11.75 112.21 1.88 168.31 2.88zm-544.36 571.6c-.67-1.71-.74-2.61-1.22-3-2-1.48-4-2.81-6.05-4.17-115.8-77.64-217.1-170.4-296.54-285.7-17.19-24.95-32.88-50.93-49.07-76.55a55.56 55.56 0 0 1-6.07-13.36c-1.4-4.63-.31-9.25 4.78-11.26s8.66.51 11 5.07c1.86 3.64 3.47 7.43 5.54 10.95 49.73 84.55 108.72 162 180.24 229.22A1237 1237 0 0 0 990 2567a84.07 84.07 0 0 0 18 7.74c14.91 4.47 30 8.37 45 12.33 2.28.6 4.8.31 7.21.43-8.1-6.84-16.48-11.87-24.73-17.1s-16.59-10.57-24.68-16.15c-133.26-92.09-244.17-206.84-339.64-336.91-41.05-55.92-76.91-115.15-103.88-179.36-2.44-5.81-4.79-10.13-13-10.42-40.51-1.45-81-3.87-121.48-5.82-2.14-.11-4.34 1-6.74 1.52a31.9 31.9 0 0 0 1.63 4.27c11.5 19.85 22.45 40.05 34.69 59.44 95.36 151.16 210.24 285.27 347.27 400.5 29.76 25 61.16 44.75 98.34 55.45 3.79 1.13 7.58 2.32 12.08 3.68zm712-500.58c1.4-6.48-2.36-9.49-7.17-11.45a170.23 170.23 0 0 0-18.46-6.68c-40.42-11.27-81.76-17.41-123.56-19.46q-66.29-3.26-132.69-4c-68-.63-136-3-203.84-7.69-52.3-3.6-104.61-7.14-156.89-11-70.25-5.21-140.46-11-210.73-16-35.95-2.58-72-4.24-108-6.07-58.91-3-117.81-6.24-176.74-8.54-61.82-2.41-123.67-4.66-185.53-5.49-72.92-1-145.87-.42-218.8-.26-10.62 0-21.27 1.22-31.82 2.52-8.6 1-16.37 4.35-22 11.58 4 5.62 9 7.32 15 7.61 20.05.94 40.07 2.28 60.12 3.32 24.14 1.24 48.29 2.26 72.43 3.53 4.41.24 7.29-.9 10.39-4.5 4.55-5.28 8.86-5.2 13.15.62 3.55 4.82 7.72 5.43 12.7 5.6 11.47.4 22.94.68 34.4 1.25 57.28 2.85 114.55 5.87 171.83 8.66 44.19 2.16 88.41 4 132.6 6.11 56.46 2.76 112.91 5.84 169.38 8.59 44.6 2.17 89.22 3.91 133.82 6.09 55.65 2.73 111.27 5.78 166.91 8.58q75.49 3.79 151 7.34 102.51 5 205 9.9c67.11 3.26 134.21 6.67 201.32 9.71 15.16.71 30.29.11 46.23.11zm-1380-130c7-12.35 205.91-602.56 205.8-611.62C337.59 1508.38 217.75 1711.47 97 1916zM495 1311.27l-2.82-.6c-68.12 201.41-136.24 402.82-205 606.06l150.45 4.69c19.28-204.53 38.37-407.34 57.37-610.15zm2470.31-592.59c-21.25-131.41-42.24-261.31-63.38-392-39.54 129.74-71.24 260.37-92.38 394.71zm-347.93 10c6.13 0 10.48.16 14.82 0q65-2.67 130-5.45c13-.56 13.31-.59 15.77-13.2 5.86-30.13 11.33-60.32 17.14-90.46 15.74-81.61 34.87-162.41 58.87-242 1.19-3.95 2.17-8 3.24-11.95-89.47 114.38-162.76 238.73-239.84 363.08zm528.66-18c-3.41-11.79-199.08-346.62-207.25-353.64 22.46 120.46 35.19 241 61.08 360.38zm-159.71-346.9-1.95 1.89c.92 1.79 1.76 3.62 2.77 5.35q96.57 165.53 193 331.11c3.88 6.69 8.39 8.73 15.77 8.51 36-1.06 72-1.65 108.07-2.49 2.69-.06 5.37-.8 10.33-1.58zM354.42 2019.19a11.23 11.23 0 0 0-.1 3c.7 2.34 1.48 4.68 2.41 6.94 47.39 115 109.82 220.65 197.35 310 52.14 53.21 109.06 100.45 178.34 130.52 3.13 1.35 6.31 2.59 9.47 3.88-6.18-7.74-13.25-13.89-20-20.38-126.43-121.7-237-255.88-322.34-409.89-4.49-8.1-8.47-18.47-15.66-22.54s-18.31-1.79-27.7-2.26c-.35-.04-.74.28-1.77.73zM2451.18 731.11l.9 2.82c3.12 0 6.25.08 9.37 0 33.58-.89 67.15-2.2 100.73-2.49 10.16-.09 16.9-3.23 22.19-11.83 12-19.53 24.73-38.64 36.91-58.08 53.07-84.67 103.18-171.25 162.79-251.69 2.08-2.8 3.8-5.87 5.68-8.81l-1.2-.92zm314-353.9-1.56-1.55-464.3 360.25c1.48 1.61 1.73 2.12 2 2.12 31.11-.68 62.22-1.34 93.33-2.2a11.43 11.43 0 0 0 6.58-2.38c6.27-5.22 12.4-10.63 18.26-16.3 32.07-31.09 64.19-62.14 96-93.48 47.32-46.56 94.32-93.46 141.65-140 33-32.47 66.37-64.59 99.52-96.92 3.06-2.98 5.71-6.35 8.55-9.54zM519.7 1161.43c2.15-5.66 3.95-9.27 4.91-13.09 3.59-14.26 7.64-28.45 10.18-42.9 5.48-31.1 8.32-62.41 3.77-94-2.31-16-6.82-31.26-17.29-44C508.5 952 491.54 946.34 472 948.7c-18.84 2.3-29.5 14.77-35.93 31.3a94.43 94.43 0 0 0-5.85 48.19c7.31 50.5 34.9 89 72.76 121.16 4.62 3.96 9.86 7.17 16.72 12.08zM2233 773.77V776c3.4.2 6.8.61 10.2.56q51.49-.87 103-1.88c20.89-.41 41.77-1.07 62.66-1.43q145.6-2.52 291.23-4.94l292.45-4.93q145.62-2.46 291.23-4.89c65.13-1 130.27-1.82 195.4-2.75 12.29-.17 24.58-.41 36.86-.86 2.43-.09 4.82-1.29 7.22-2l.06-2.65c-5.79-1.16-11.54-2.94-17.39-3.39-47-3.64-93.88-7.59-141.05-7-50 .68-99.95.93-149.92 1.78-38.08.65-76.18 1.56-114.24 3-46.24 1.79-92.42 5-138.67 6.37-72 2.21-144.13 3.19-216.18 5.19-47.89 1.34-95.76 3.65-143.64 5.34q-70 2.46-140 4.53c-65.1 1.83-130.22 3.33-195.32 5.16-11.29.43-22.58 1.72-33.9 2.56zM492.74 1182.44c-2.39-2.18-3.49-3.4-4.78-4.33-29.58-21.3-51.23-49.47-68.51-81-16.49-30.09-24.93-62.3-20.95-97 2.23-19.43 7.8-37.69 19.68-53.57 10.4-13.89 23.64-23.83 40.69-28 36.47-8.92 73.6 6.17 93.78 37.91a112.22 112.22 0 0 1 16.13 42.21c6.43 38.89 4.78 77.67-3.85 116-4.57 20.29-11.11 40.13-17 61.18l11.52 9.1c2.44-5.26 4.43-9.17 6.1-13.21 9.46-22.87 14.17-47 18.87-71.15 7.26-37.3 9.59-74.79 3.25-112.46-5.8-34.39-23-61-54.46-77.35-16.61-8.67-34.67-12.06-53.07-14.35-52.14-6.49-87.7 30.67-95.87 69.35-6.08 28.77-8.56 57.68-3.34 86.67 9.53 52.88 34.28 97.81 73 135 7.27 7 14.87 13.6 23.23 21.22 5.66-9.53 10.41-17.52 15.58-26.22zm2591.92-762.83a33.57 33.57 0 0 0 2.18 2.82q133.71 139.82 267.35 279.7c4.38 4.59 9 6.18 15.13 6.19 19.65 0 39.3.39 58.94.89 8.77.23 17.53 1.1 26.29 1.67-125.74-94.65-243.81-197.83-369.89-291.27zm-146.56-166a46.7 46.7 0 0 0 4.5-4.84 334.6 334.6 0 0 0 42.78-88.1c5.19-16.6 6.72-33.65 2.74-50.94-6.36-27.65-19.53-51.15-41.89-69-13.18-10.5-28-14-44.95-11-27.88 5-46.28 21.15-58.54 45.68-14 28-14.12 57.63-10.17 87.71 3.9 29.64 15.7 56.68 27.77 83.62 1.27 2.84 3 5.45 5.2 9.27l18.46-14.69c-1.51-3-2.37-4.82-3.36-6.59a248.12 248.12 0 0 1-28.88-84.38c-1.74-11.63-2.51-23.87-.91-35.45 3.84-27.68 15.94-50.78 42.82-63.08 19.21-8.79 36.94-5.15 51.54 10.11 10.18 10.63 16.32 23.49 19.31 37.81 4.88 23.4 2.64 46.62-4 69.23-7 23.94-15.44 47.46-23.12 71.21-1.27 3.9-5.18 7.94.7 13.41zM562.58 2376.43c.43-.53.86-1 1.28-1.58-1.72-2-3.31-4.07-5.18-5.89-89.58-86.75-154.74-190.09-205.68-303.06-6.05-13.43-11.25-27.23-16.92-40.83-1.55-3.71-2.6-8.22-7.83-8.32-8.87-.15-17.74 0-27.85 0 1.52 4.34 2.53 8.23 4.2 11.81 9.87 21.14 19.05 42.64 30 63.2 29.55 55.37 65.45 106.76 101.33 158.12 11.26 16.1 23.16 31.77 35.22 47.29 20.39 26.24 42.8 50.39 72.17 67.06 6.68 3.7 12.87 8.1 19.26 12.2zm-341.29-363c2.54 6.62 4.44 12.82 7.22 18.6a1091.86 1091.86 0 0 0 79.95 139.46c24.18 35.75 53.19 66.39 89.86 89.46 2.5 1.57 5 3.1 9.3 5.73L346 2173.45a781.38 781.38 0 0 1-77.1-147.87c-.89-2.29-1.33-5-2.86-6.74-2-2.21-4.76-5-7.32-5.16-11.79-.55-23.59-.24-37.43-.24zm-113.19-7.26c12.12 21 153.64 152.36 178.51 166.2-30.91-52.88-64.42-103.77-85.77-161.62zM2908.33 223.12c2.15-4.21 3.75-6.52 4.56-9.08 6.05-19.12 13.08-38 17.51-57.53 3.13-13.78 3.7-28.4 3.43-42.6-.16-7.79-3.34-16.07-7.09-23.11-7.26-13.67-17.39-14.8-28.85-4.15a44.06 44.06 0 0 0-7.56 9.6c-7.24 12-9.81 25-8.41 38.91 2.41 23.83 8.92 46.63 17.28 68.93 2.25 6.01 5.55 11.63 9.13 19.03z" fill="#bdabd3" data-color="1"/>
    </g>
</svg>
