<?xml version="1.0" encoding="UTF-8"?>
<svg data-bbox="0.016 -0.001 664.987 504.097" viewBox="0 0 664.95 504.1" xmlns="http://www.w3.org/2000/svg" data-type="color">
    <g>
        <g>
            <path d="M299.49 504.06c-39.77-.94-78.86-5.79-116.44-19.9a249.61 249.61 0 0 1-44.91-21.8c-22.55-14.1-43.38-30.49-63.37-47.89-27.26-23.71-46.66-52.77-56.92-87.69-1.85-6.19-4.77-11.38-10.62-15.66-11.06-8.07-9-21 3.42-26.46 3-1.32 4.52-3.61 6.23-5.92 18.71-25.22 36.37-51.24 56.94-75.05 2.57-3 3-4.65-.25-7.89-8.62-8.62-8.75-15-.13-23.44 4.12-4 3.66-6.5.71-10.56-9.42-13-18.63-26.1-27.76-39.28q-11.74-16.93-23.12-34.13c-2.63-4-6.94-8.8-.94-12.61 5.55-3.53 7.9 2.35 10.37 6q26 38.1 51.84 76.33c2.62 3.88 5 7.16 10.57 7.4 15.85.7 23.08 14.76 13.19 27.23-5.42 6.83-3.92 10.33.71 16 31.32 38.24 58.43 79.7 89.79 117.91 8.72 10.62 17.89 20.87 26.53 31.56 3.1 3.83 5.11 3.69 8.42.35 14.76-14.9 28.93-30.09 39.5-48.56C297 268.43 319 226.13 333.58 180.34c2.09-6.54 4.05-13.12 6.07-19.68 2.09-6.8 2.92-12.16-4.79-17.41-8.9-6.05-7.69-15.51.12-23.31 6.09-6.08 13.52-9 21.47-11.06Q436.19 88.2 516 67.67c6.31-1.62 12.73-1.78 8.58-11.81-2.46-5.94.45-12.47 5.55-16.78C548.64 23.43 570 12.3 591.58 1.63c3.12-1.55 7.73-2.92 9.84.48S599.36 7.8 597 9.84c-9.55 8.24-21.65 12.07-32.32 18.41-4.57 2.71-7.9 3.61-1 8.64 11.29 8.28 8.25 25.17-6.14 31.73-9 4.11-5.72 6-.87 10.29 33.12 29.25 64.23 60.64 96.1 91.21 3.95 3.79 8.71 6.68 10.76 12.32 3.63 10 .58 18.91-9.49 22.22-5.15 1.69-6.14 5.25-7.78 9-24.83 57-54.68 110.82-95.46 158.23-27.48 32-59.75 58.44-92.22 85-32.07 26.22-70.62 34.32-109.24 42.82-16.34 3.58-33.09 4.6-49.85 4.35zm61.86-31.56c34.38-.93 64.28-12.51 92.43-29.47 30.91-18.61 56.34-43.64 80.45-70 43.35-47.4 74.56-102.46 99.91-161.08.83-1.92 4.2-5 .45-6.54s-8.43-2.64-12.4-2-.29 4.92-1.41 7.48-1.52 5.68-2.51 8.44c-6.56 18.23-16 35.07-25.08 52.1-15.75 29.57-34.57 57.04-57.52 81.57a55.28 55.28 0 0 1-6.37 6.07c-2.25 1.74-4.91 2-7.12-.21s-2-4.88-.35-7.18a83 83 0 0 1 6.27-7.52c36.27-40.77 63.67-86.84 83.21-137.77 2.7-7-.89-6.37-4.91-7.2-45.47-9.36-90.58-20.53-136.56-27.31-3.74-.55-7.77-1.31-7.37-6 .43-4.94 4.7-4.55 8.36-4.28 2.29.16 4.58.34 6.84.67 26.88 3.87 53.51 9.08 80.1 14.6 23.68 4.92 47 11.25 70.84 15.71 8.22 1.54 8.09-3 8.21-7.83s-4.7-3.92-7.38-4.55c-29.61-6.89-59.25-13.69-89-20.13-53.7-11.67-108.38-17.84-162.44-27.57-9.62-1.72-18.9-5.71-28.86-5-3.18.24-8.36-.8-8.59 4.2-.19 4.19 4.24 5.67 7.71 6.3 9.33 1.69 18.79 2.63 28.1 4.35 20.58 3.79 41.12 7.82 61.65 11.88 4.15.82 9.39 1.78 8.33 7.51-1.26 6.75-6.88 4.17-11.21 3.74a14.74 14.74 0 0 1-1.9-.49c-24.17-5.88-48.71-9.86-73.22-14-4.59-.78-6.7-.46-8.2 4.89-22.06 78.56-52.92 152.59-111.37 212-3.46 3.52-2.79 5.81 0 9 5.11 5.81 12 7.48 19.07 9 11.82 2.56 17.4 17.75 8.09 24.77-7.85 5.92-4.4 9.82-1.25 15.08a70.14 70.14 0 0 0 14.69 17c23.39 20.27 51.01 28.63 80.31 29.77zm-64.66 20c21.25 0 40.12-1.45 58.69-5.84 1.21-.29 3.39-1.16 3.34-1.4-.44-2.13-2.4-1.22-3.7-1.32a148.26 148.26 0 0 1-48.43-11.62c-24.11-10.48-44.14-25.74-54.62-50.77-2.45-5.85-6-8.62-11.64-10.36-51.67-15.9-100.87-38.07-150.39-59.41a33.13 33.13 0 0 1-4.44-2.05c-2.51-1.53-3.65-3.78-2.41-6.65a4.51 4.51 0 0 1 5.77-2.49 144.49 144.49 0 0 1 13.84 4.85c40.52 16.59 80.35 34.94 122.2 48.14 5.3 1.67 10.5 3.66 15.76 5.44 1.88.64 4 1.25 4.88-1.34.84-2.33-.44-3.63-2.59-4.38-2.46-.86-4.89-1.84-7.34-2.75-19.3-7.16-38.93-13.56-57.85-21.63-49.58-21.13-101-38.11-148.39-64.24-2.06-1.14-4.36-3.38-6.9-1.74-.73.47-.63 3.21-.06 4.55 9.45 22.18 15.31 46 30.25 65.67 24.72 32.62 57.08 56.39 90.69 78.72 13.13 8.72 27.35 15.22 42.1 20.84 36.55 13.89 74.66 18.78 111.24 19.75zm-78-124.18c-1.08-1.33-2.29-2.86-3.55-4.35-8.84-10.51-17.73-21-26.54-31.51-23.1-27.63-43.16-57.54-64.85-86.22a51.09 51.09 0 0 0-4-4.23c-1.7 2.43.41 4.22 1.26 6 14.43 30.06 30 59.61 43.15 90.21 10.14 23.58 32.78 24.35 51.5 32.69 1.92.8 3.16-.09 3.07-2.62zM69.21 308c-1.08 2.79 1 4.84 4.48 6.24q15.9 6.36 31.73 12.87c4.44 1.83 5.16.36 3.91-3.77a307.51 307.51 0 0 1-9-36.05c-3.34-19-6.83-37.89-10.35-56.82-.29-1.52-1.3-2.91-2-4.36a21.4 21.4 0 0 0-2.17 4.08C78.7 255.34 74.39 281.1 69.21 308zm7.27-85.45a14.9 14.9 0 0 0-.37-1.84c-1.8.11-2.71 1.5-3.68 2.77-15.6 20.48-31.12 41-46.85 61.4-3 3.91-1.49 5.47 2.16 7.15 7.69 3.53 15.43 7 22.86 11 5.58 3 7.67 2.22 8.74-4.36a634.74 634.74 0 0 1 16-72.47c.36-1.2.76-2.46 1.14-3.67zm26.81 15.33c.19 2.71.17 3.72.35 4.68 5.46 28.83 10 57.88 19.21 85.86 1.14 3.48 2.44 6.57 6.35 8 7 2.63 13.88 5.68 20.83 8.48 1.4.56 3.08 2 4.34.33.45-.6-.47-2.38-1-3.51-15.52-33.07-32.52-65.43-47.06-99a54.71 54.71 0 0 0-3.02-4.86zm358.09-103.59c1.74.51 3.6-.53 5.29-2.34 14-15 28.09-30 42.08-45.06.9-1 3.16-2 1.45-3.77-.43-.46-2.42.26-3.52.81-24.58 12.19-47.79 26.72-70.78 41.64-1 .65-2.21 1.82-2.3 2.84-.12 1.5 1.56 1.74 2.85 2zm-51.57-7.88c4 .2 6.36.77 8.33-.87 13.14-10.87 27.9-19.34 42.11-28.64a14 14 0 0 0 2.47-2.9 14 14 0 0 0-3.67.06c-29.15 8.58-58.78 15.19-88.34 22.12-1.23.29-3.46 1.15-3.41 1.39.36 1.82 2.21 2 3.65 2.27 13.51 2.37 27.05 4.6 38.86 6.57zm149-30.64-1.82.28a22.28 22.28 0 0 0 1.55 3.44q19.08 28.56 38.25 57.06c1.66 2.46 3.62 4.58 6.76 5.32 8 1.88 15.86 3.95 23.83 5.78 1.47.33 4 .45 4.49-.29.93-1.56-.91-2.87-2.1-3.9-23.69-20.68-44.86-44-68-65.24-1.01-.88-2.06-1.67-3.01-2.45zm-18.09 45.77c-2-13.36-4.12-27.82-6.3-42.28-.22-1.44.27-3.66-2-3.64-.75 0-1.71 1.75-2.19 2.87q-4.83 11.17-9.47 22.44c-9.43 22.95-9.4 22.85 15.53 26.44 4.48.63 6.29 0 4.38-5.83zm6-33.22c1.41 8 2.7 16 4.24 24 3.87 20.09 3.91 20.08 23.77 23.37a5.35 5.35 0 0 0 1 .16c1.59 0 3.84.51 4.61-.32 1.13-1.21-.42-2.92-1.27-4.23q-14.36-22.06-28.78-44.07c-.69-1-1.34-2.69-2.81-2.2s-.75 2.12-.81 3.29zm-51.52 31.16c5.36 1.41 7.05-.44 8.25-3.63 4.73-12.51 9.63-24.95 14.41-37.43.32-.83.62-2.34.23-2.65-1.37-1.1-2.16.45-2.93 1.23-8.44 8.63-17 17.18-25.17 26-3.87 4.17-12.2 8.58-10.3 12.69 2.24 4.87 11.4 2.2 15.51 3.79zM86.49 177.53c-4.71.53-7.86 2.82-7.62 6.76.34 5.74 5 8.09 10.11 8.84 5.28.79 12.76-5.3 12.16-10.28-1.41-11.68-12.27 2.94-14.65-5.32zM546.3 60.29c5 .06 8.63-2.38 11.37-6.27 1.11-1.58 2-3.59.3-5.29s-3.48-.55-5 .84c-3.75 3.48-7.37 3.74-10.69-.56-1.38-1.79-2.68-4.33-5.19-1.82s-3.5 5.62-1.17 8.74c2.56 3.39 6.42 4.13 10.38 4.36zM260.87 400.62l-2.15-1.88a8.81 8.81 0 0 0-.9 2.26c-.09.85.06 2.11 1.35 1.73.65-.19 1.05-1.26 1.7-2.11z" fill="#bdabd3" data-color="1"/>
            <path d="M360.44 453.05c-16.54 1.65-33.29-4.69-50.41-8.76-3.36-.8-6.22-2.86-5.42-6.92.94-4.8 4.77-4.74 8.5-4.16a42.3 42.3 0 0 1 6.65 1.67c42 13.84 81.36 5 119.35-14.17a275.75 275.75 0 0 0 59.75-40.87c3-2.64 6.09-6.28 9.91-2.29s.1 7.36-2.7 9.94c-35.66 32.88-90.24 65.85-145.63 65.56z" fill="#bdabd3" data-color="1"/>
            <path d="M59.2 329.42c-.53 3.69-2.79 5.74-6 4.92-6-1.51-11.4-4.61-16.54-8A4.41 4.41 0 0 1 35 321.1c.67-2 2.31-3.74 4.25-3.36a40.84 40.84 0 0 1 19 9.16c.63.54.68 1.75.95 2.52z" fill="#bdabd3" data-color="1"/>
        </g>
    </g>
</svg>
