<?xml version="1.0" encoding="UTF-8"?>
<svg data-bbox="0 0.003 154.878 103.974" viewBox="0 0 154.82 103.97" xmlns="http://www.w3.org/2000/svg" data-type="color">
    <g>
        <g>
            <path d="M153 59.46a2 2 0 0 1-.53-.21c-1.65-1.09-3.31-2.15-4.93-3.29-1.43-1-2.77-2.16-4.21-3.16-2.62-1.83-5.42-3.4-8-5.27-1.89-1.36-3.9-2.53-5.89-3.73s-4.13-2.31-6.16-3.5a1.24 1.24 0 0 1-.68-1.1 10.91 10.91 0 0 1 .32-2.61 1 1 0 0 1 .72-.8 5.27 5.27 0 0 0 2.94-2.42c1-1.69 1.25-3.68-.27-5.14a3.26 3.26 0 0 0-1.62-.8c-.38-.1-.5-.29-.36-.67.08-.21.08-.46.18-.66a23.75 23.75 0 0 0 1.14-4 13.07 13.07 0 0 0 .4-2.91 10.24 10.24 0 0 1 .43-2.57c.19-.59-.12-.91-.77-1-.48-.06-.68.14-.75.75-.1.84-.21 1.67-.29 2.5a24 24 0 0 1-1.78 7.65.92.92 0 0 1-.72.59 3.19 3.19 0 0 0-1.4.44 4.07 4.07 0 0 0-1.77 3.6 5.74 5.74 0 0 0 1.29 3.46c.16.19.48.33.4.65-.35 1.45-.27 3-.54 4.41a1 1 0 0 1-.44.74 21 21 0 0 0-1.91 1.46 49.5 49.5 0 0 1-6 4.35c-2.57 1.65-5 3.43-7.55 5.19A261.92 261.92 0 0 1 94.34 58c-1.64 1-3.27 2.1-4.81 3.3-1.38 1.08-2.84 2.06-4.27 3.07-.61.44-.63.43-1.08-.14-.58-.75-1.16-1.51-1.7-2.29-1.31-1.87-2.59-3.77-3.89-5.65-1.17-1.7-2.07-3.55-3.15-5.31C74.17 49 73 47.05 72 45c-1.19-2.43-2.39-4.86-3.47-7.33-.67-1.54-1.52-3-2.18-4.53a1.61 1.61 0 0 1-.05-1.2c.31-1 .23-2.08-.88-2.49-.5-.19-1.08-.15-1.59-.34-.67-.25-1.21-.76-1.86-1.06-.92-.43-1.88-.8-2.82-1.2-1.82-.77-3.63-1.57-5.4-2.45-3-1.48-6-2.79-8.89-4.44-2.12-1.21-4.41-2.07-6.53-3.28a18.14 18.14 0 0 1-4.61-3.06c-1.09-.25-.84-1.16-.93-1.91a.62.62 0 0 1 .33-.66c1.07-.69 1.09-1.76 1-2.85a2.14 2.14 0 0 0-1.91-2.06c-1.31-.28-1.28-.27-1.32-1.6a22.45 22.45 0 0 0-.74-3.81A1.08 1.08 0 0 0 30 .31c-.22-.36-.58-.39-1.12-.16s-.31.47-.15.75a9.71 9.71 0 0 1 .87 4.22c.05.68-.47 1-.76 1.48a3.39 3.39 0 0 0-.33 2c.09 1.43.59 2.74 2.06 3.22.18 0 .38.13.41.35.09.68.17 1.36.25 2a.6.6 0 0 1-.33.57c-1.18.79-2.06 1.92-3.17 2.79-1.29 1-2.53 2.1-3.78 3.17-1.54 1.31-3 2.67-4.59 4s-3.22 2.68-4.86 4c-1.91 1.53-3.68 3.22-5.7 4.62-1.66 1.15-3.32 2.33-4.86 3.63a3.46 3.46 0 0 1-2.84 1.12 1.29 1.29 0 0 0-.66.14.61.61 0 0 0-.44.59A4.73 4.73 0 0 0 .54 41c.18.34.48.71.87.67.68-.06.85.38 1.06.83.72 1.56 1.31 3.17 1.92 4.77 1.13 3 2.38 6 3.6 8.91 1.45 3.49 3.09 6.89 4.73 10.28 1.5 3.1 3.23 6.07 4.94 9 1.43 2.48 2.9 4.93 4.55 7.27 1.31 1.84 2.88 3.45 4.29 5.2a27.07 27.07 0 0 0 4 4.08 19.94 19.94 0 0 0 3.5 2.61c1.4.69 2.72 1.54 4.17 2.12a9 9 0 0 1 1.82 1A25.77 25.77 0 0 0 47 101a53.09 53.09 0 0 0 8.71 2.36c1.58.24 3.18.31 4.78.42 1.11.08 2.23-.15 3.33 0a13.73 13.73 0 0 0 3 .18 64.9 64.9 0 0 0 7.79-.68c2.79-.4 5.59-.74 8.39-1.08a105.33 105.33 0 0 0 17.61-4c3.36-1 6.69-2.12 10-3.42a72.5 72.5 0 0 0 9.49-4.54 127.36 127.36 0 0 0 11.26-7 69.84 69.84 0 0 0 9.69-8c.5-.52 1.11-.93 1.59-1.47 1.42-1.64 2.82-3.29 4.2-5a5.23 5.23 0 0 0 1.15-1.74c.2-.58.36-1.41 1.09-1.52a32.8 32.8 0 0 0 4.59-1c1-.31 1-.28 1.08-1.34 0-.38.1-.76.12-1.14a2.44 2.44 0 0 0-1.87-2.57zm-23.88-14.67c.89.69 1.92 1.15 2.84 1.81 3.07 2.2 6.25 4.23 9.44 6.26 1.12.71 2.18 1.53 3.23 2.35 1.79 1.42 3.66 2.73 5.58 4 .27.18.73.3.67.67s-.5.29-.78.35c-1.57.34-3.14.64-4.7 1a1.4 1.4 0 0 1-1.51-.49c-2-2.16-4.14-4.25-6-6.53-1.32-1.57-2.89-2.93-4.29-4.43s-2.85-2.94-4.31-4.37a.46.46 0 0 1-.17-.62zm-1.94.31c1.92 1.84 3.71 3.82 5.64 5.65 2.41 2.29 4.6 4.77 6.77 7.28.77.89 1.66 1.68 2.49 2.52a3.44 3.44 0 0 1 .3.35c.65.78.65.8-.32 1s-1.75.24-2.59.48c-.68.19-1-.18-1.32-.6a52.88 52.88 0 0 1-3.36-5A84.53 84.53 0 0 0 128 46.5a3.15 3.15 0 0 1-.78-1.39zM123 42.3c.36-.19.55.38.77.67.44.58.88 1.15 1.33 1.72a66.11 66.11 0 0 1 5.72 7.72c1.49 2.53 3.21 4.92 4.59 7.52a24.52 24.52 0 0 0 1.59 2.25c.18.27.34.56-.17.67l-4.72 1c-.32 0-.46-.11-.57-.42-1.05-2.74-2.18-5.45-3.18-8.21-.84-2.33-1.78-4.63-2.76-6.91-.72-1.68-1.56-3.31-2.34-5-.19-.31-.55-.86-.26-1.01zm-.41 2.05c.92 1.84 1.75 3.73 2.53 5.63 1.51 3.63 2.79 7.34 4.12 11 .31.86.67 1.7 1 2.55.15.4.17.61-.33.72-1.53.34-3 .82-4.56 1.08h-.34c-.56.06-1 .48-1.65.34 0-.57 0-1.14-.14-1.7-.28-1.85-.34-3.72-.52-5.58v-.45c-.17-1.52-.1-3-.16-4.57-.11-3-.23-6-.34-9 0-.14-.08-.35.1-.38s.2.22.27.36zm-1-15.61a2 2 0 0 1 1.31-.52 5.48 5.48 0 0 1 2.3.71 1.7 1.7 0 0 1 .73 1.79A5.08 5.08 0 0 1 124 34a1.88 1.88 0 0 1-2.93-.42 3.52 3.52 0 0 1 .52-4.84zm-1.13 18a3.25 3.25 0 0 1 .08-.45c.15-.42.33-.83.5-1.25.31.38.09.83.15 1.25a14.3 14.3 0 0 1 0 1.64c.28 2.85.18 6 .41 9.1.12 1.67.13 3.35.27 5 .11 1.17.19 2.35.26 3.53 0 .47 0 .58-.42.67l-3.71.87c-.37.08-.74.18-1.12.24s-.61 0-.53-.55c.16-1.09.37-2.18.52-3.27.63-4.5 1.8-8.88 2.8-13.3.33-1.15.54-2.31.79-3.46zm-1.23-.74c.1-.19.14-.62.32-.53s0 .46 0 .68c-.66 2.82-1.36 5.64-2 8.46-.91 4-1.76 8-2.33 12 0 .15-.09.3-.1.45 0 .54-.28.77-.82.89-1.83.4-3.64.86-5.46 1.3-.2.05-.44.16-.52-.16a23.2 23.2 0 0 1 1-2.45c1.08-2 1.86-4.17 2.82-6.24.77-1.66 1.66-3.25 2.37-4.94.41-1 .9-1.93 1.31-2.91s1-1.95 1.54-2.93c.58-1.22 1.22-2.43 1.87-3.62zm-1.7.65.1.1a7.87 7.87 0 0 0-.87 1.52c-1.72 2.76-2.88 5.8-4.36 8.68-1.11 2.16-2 4.44-3 6.66-.74 1.62-1.52 3.23-2.3 4.85-.11.23-.35.44-.21.73.22.46 0 .61-.43.69-1.11.25-2.23.51-3.35.73-1.57.31-3.15.6-4.72.88-.36.06-.84.37-1 0s.23-.68.44-1c.93-1.35 1.9-2.67 2.87-4 1.64-2.25 3.59-4.24 5.34-6.4 1-1.24 2-2.51 3-3.77a61.73 61.73 0 0 1 4.88-5.6 30.93 30.93 0 0 0 3.09-3.67c.05-.2.19-.5.52-.41zm-3.33 1.25a2.62 2.62 0 0 1 1-.61 9.92 9.92 0 0 0-1.2 1.41c-2.81 3-5.31 6.2-7.89 9.37-1.58 2-3.26 3.83-4.89 5.75-1.77 2.1-3.38 4.33-5 6.57a1 1 0 0 1-1 .55 13.9 13.9 0 0 1-3.41-.87c-.36-.14-.36-.29-.1-.56 1.73-1.83 3.52-3.58 5.37-5.28s3.37-3.21 5-4.83c1.86-1.8 3.73-3.59 5.58-5.41 2.15-2.09 4.34-4.07 6.54-6.09zm-30 25.26c-.17-.15-.33-.31-.44-.42a.3.3 0 0 1 .1-.36l3.07-2.9a.67.67 0 0 1 1-.09c1.29.81 1.3.77.25 1.83A21.24 21.24 0 0 0 85.32 74a.7.7 0 0 1-.52.18c-.35 0-.11-.27-.11-.42-.01-.34-.29-.43-.49-.6zm-18.46 2.57a40.89 40.89 0 0 1-3.18-4.45 92.3 92.3 0 0 1-5.47-9c-1.54-3.06-3-6.14-4.55-9.2-1.21-2.43-2.23-4.93-3.29-7.42-1.22-2.89-2.31-5.81-3.32-8.77-.52-1.5-.54-1.51 1-1.74.53-.08 1.07-.07 1.6-.13 1.4-.16 1.16-.39 1.79 1.11.91 2.14 1.67 4.34 2.58 6.47s2 4.37 3 6.55c1.47 3.14 2.91 6.3 4.46 9.4 1.23 2.45 2.45 4.91 3.9 7.24s2.72 4.41 4.11 6.6a11 11 0 0 0 1.34 1.7c.32.33.43.47 0 .74a30.94 30.94 0 0 0-2.9 2.05.48.48 0 0 1-.48.12c.11-.55-.33-.93-.59-1.27zm-7.84 8.56c.53.6 1.06 1.2 1.57 1.81.07.08.14.22.11.27s-.2 0-.29 0a11.18 11.18 0 0 1-2.75-2.56A61.3 61.3 0 0 1 52.65 79a31.72 31.72 0 0 1-2-3.19c-.84-1.65-1.85-3.22-2.72-4.86s-1.85-3.23-2.7-4.89c-1.08-2.14-2-4.35-3.16-6.46a23.43 23.43 0 0 1-1-2.42c-1-2.47-2.34-4.78-3.21-7.3s-1.86-5.16-2.73-7.76c-.47-1.41-.82-2.86-1.26-4.28-.14-.46-.11-.72.44-.79.94-.12 1.88-.29 2.57-.39 1 0 1 0 1.29.72.76 1.88 1.24 3.84 1.87 5.76 1 3.08 2.11 6.13 3.28 9.15a121.18 121.18 0 0 0 6.7 14 62.89 62.89 0 0 0 4.88 7.46 51.94 51.94 0 0 0 4.46 5.36 1.35 1.35 0 0 1 .41 1.41 4.29 4.29 0 0 0 .75 3.26 4.14 4.14 0 0 1 .41.67 1 1 0 0 1-.39 1.26c-.21.13-.36 0-.48-.13-.36-.49-.72-1-1.06-1.48-.13-.19-.19-.42-.41-.54s-.58-.26-.84 0-.03.52.15.73zm-4.19 1.16a19.32 19.32 0 0 0 3 3.16c.55.48.56.55 0 1s-.63.71-1.3 0c-1.1-1.21-2.19-2.43-3.21-3.72-.24-.3-.35-.82-.9-.74-.26 0-.2.63.2 1.21a13.38 13.38 0 0 0 1.29 1.61c.73.78 1.51 1.51 2.27 2.26.15.16.44.32.24.55s-.45.68-.93.48a2.94 2.94 0 0 1-.58-.36 15.21 15.21 0 0 1-3.52-3.68c-1.46-2.28-3.09-4.45-4.62-6.68a69.36 69.36 0 0 1-5.22-8.58c-1.55-3.18-3.32-6.24-4.89-9.41S32.4 56.12 31 52.84a87 87 0 0 1-4-12.27c-.12-.48-.19-1-.28-1.46-.14-.86-.11-.92.69-1 1.1-.16 2.2-.29 3.29-.45.49-.07 1-.17 1.47-.26s.62.21.73.56c.34 1 .72 2 1 3 .54 2 1.19 3.94 1.91 5.86 1 2.72 1.91 5.48 3.17 8.1.64 1.34 1.16 2.74 1.79 4.08 1 2.24 2.19 4.45 3.23 6.69 1.67 3.57 3.82 6.87 5.75 10.29a37 37 0 0 0 4.47 6.2 52 52 0 0 0 4.51 4.87c.23.2.27.35 0 .55 0 .06-.11.11-.16.16-.78.84-.78.84-1.6.07a34.39 34.39 0 0 1-2.75-2.91c-.19-.23-.45-.59-.74-.38s.04.65.23.91zm-7 1.43a3.55 3.55 0 0 0 .42 1.05 15.47 15.47 0 0 0 4.72 4.43c.41.22.44.42 0 .64-.89.49-1.82.92-2.74 1.38a.42.42 0 0 1-.5-.1 35.82 35.82 0 0 1-4.21-3.86c-.25-.29-.5-.58-.78-.85s-.4-.7-.77-.42 0 .58.19.81a5 5 0 0 0 .89 1.19 18 18 0 0 0 3.69 3 2.33 2.33 0 0 1 .38.26c.21.17.16.37-.06.42a2.34 2.34 0 0 1-2.42-.28 31.26 31.26 0 0 1-5.21-5.39 2.45 2.45 0 0 0-.29-.35.28.28 0 0 0-.4 0 .41.41 0 0 0-.08.31 2.75 2.75 0 0 0 .62 1.21 18.07 18.07 0 0 0 4.54 4.47c.16.09.35.23.26.45s-.33.11-.5.13a2.53 2.53 0 0 1-2-.75c-1-.87-1.94-1.71-2.87-2.62a53.28 53.28 0 0 1-8.13-9.83c-1.54-2.5-3.1-5-4.61-7.5-.69-1.14-1.16-2.4-1.78-3.58A155 155 0 0 1 17.39 54a55.22 55.22 0 0 1-2.55-8.3c-.36-1.72-.84-3.41-1-5.17-.05-.47.06-.66.57-.73 1.62-.22 3.24-.48 4.86-.75.46-.08.7 0 .82.5.3 1.18.64 2.35 1 3.53a102.17 102.17 0 0 0 3.19 10.85C25.13 56.21 26 58.5 27 60.7c1.7 3.46 3.45 6.89 5.44 10.2.92 1.54 1.74 3.14 2.71 4.64 1.49 2.29 2.86 4.66 4.53 6.85 1 1.27 1.86 2.59 2.94 3.77v.06l.13-.07a3.54 3.54 0 0 0-.75-1.53c-.93-1.31-2-2.53-2.86-3.86-1.33-2-2.58-4.05-3.83-6.1a28.32 28.32 0 0 1-1.81-3.16c-1-2.11-2.26-4-3.28-6.11-.94-1.91-1.95-3.79-2.9-5.7-.34-.68-.59-1.4-.89-2.11a85.09 85.09 0 0 1-4.94-15.92c-.16-.75-.35-1.49-.54-2.23-.08-.29 0-.45.3-.49 1.32-.17 2.65-.32 4-.48.36 0 .43.23.48.5.31 1.62.88 3.16 1.29 4.75a65.37 65.37 0 0 0 3.2 9.29c1 2.46 2 4.92 3.24 7.31 1.93 3.86 3.89 7.7 6 11.49a97.32 97.32 0 0 0 6.9 10.91c1.58 2.14 3.09 4.34 4.68 6.48a12.74 12.74 0 0 0 2.31 2.33c.14.1.53.2.22.48s-.49.48-.77.22c-1.3-1.08-2.8-1.9-3.8-3.29-.56-.78-1.25-1.45-1.74-2.27-.11-.17-.23-.32-.45-.18a.33.33 0 0 0-.14.4zm14.73-6c.37-.28.64-.22.78.23a2.64 2.64 0 0 1 .24 1.11.91.91 0 0 1-.55.92c-.32.2-.55.1-.58-.32A2.31 2.31 0 0 0 61 82c-.2-.53.05-.84.4-1.11zm.05-1.64c-.67.4-1.15.11-1.58-.41-1-1.25-2.22-2.38-3.14-3.73-1-1.55-2.26-3-3.31-4.52a45.68 45.68 0 0 1-2.64-4.26c-1.14-2.23-2.2-4.49-3.3-6.74-.53-1.1-1.09-2.18-1.58-3.3-.69-1.57-1.32-3.16-2-4.75a91.779 91.779 0 0 1-3-8.38Q40 40.1 39.08 37c-.19-.65-.15-.69.54-.79 1.43-.22 2.86-.41 4.29-.66.5-.08.68.15.82.55.91 2.68 1.88 5.33 3 7.94 1.37 3.31 2.64 6.66 4.3 9.85 1 1.86 1.75 3.81 2.73 5.66a88 88 0 0 0 4.78 8.6C60.77 70 62 72 63.25 73.8c.67.94 1.36 1.86 2 2.8a.88.88 0 0 0 1 .45 4.68 4.68 0 0 1-3.8 2.1 2 2 0 0 0-1 .1zm-2.56-37.33c2.36 5.34 4.94 10.57 7.49 15.82a61.14 61.14 0 0 0 7 11.14c.52.66 1.09 1.27 1.65 1.9.24.28.28.5-.08.74q-1.77 1.17-3.51 2.37a.64.64 0 0 1-1-.16 12.21 12.21 0 0 1-1.56-2 49.18 49.18 0 0 0-2.41-3.87c-2-2.9-3.36-6.14-5.12-9.16-1-1.77-1.77-3.71-2.66-5.57-.7-1.48-1.44-2.94-2.13-4.43a85.86 85.86 0 0 1-4.31-9.95c-.38-1.2-.88-2.35-1.34-3.52-.17-.41-.13-.61.38-.66 1.17-.14 2.34-.32 3.63-.5.39-.12.62.13.84.57 1.14 2.37 2.07 4.88 3.13 7.28zm-1.81-8.19c.94-.17 1.88-.32 2.68-.45.53-.12.67.13.8.44.54 1.3 1.07 2.61 1.64 3.9 1.25 2.82 2.5 5.64 3.84 8.43.75 1.54 1.4 3.13 2.08 4.71a68.14 68.14 0 0 0 4.63 9.19c1.72 2.74 3.5 5.46 5.41 8.08.14.18.26.37.39.56a.33.33 0 0 1-.11.49c-.28.21-.55.42-.83.61s-.81.83-1.25.73a2.78 2.78 0 0 1-1.6-1c-1-1.23-2-2.42-2.85-3.72-1-1.53-2-3.14-2.92-4.75-1.08-1.88-2-3.88-2.92-5.82s-2-4.18-3-6.28q-2.79-5.76-5.22-11.69c-.37-.88-.77-1.74-1.13-2.63-.26-.58-.18-.7.36-.8zm10.29 44.41a20.62 20.62 0 0 1 3.21-2.37.56.56 0 0 1 .81.14 10.1 10.1 0 0 0 .68.77c.15.14.36.36.57.1s0-.34-.13-.48-.45-.52-.67-.78-.23-.4.05-.56c1.39-.79 2.68-1.74 4-2.62a1.39 1.39 0 0 1 .38-.17 1.17 1.17 0 0 1 .58.4c.57.61 1.12 1.24 1.7 1.84.24.24.27.41 0 .65a3 3 0 0 1-1.45.85c-1.59.4-3.18.77-4.74 1.26s-2.91.84-4.4 1.11l-.45.09c-.1 0-.22.07-.27-.06s.08-.12.13-.17zm10-6.14c-.22-.23-.25-.45.06-.64.09-.06.18-.15.27-.21a6.24 6.24 0 0 1 2-1.22 17 17 0 0 1 2.15 2.18.24.24 0 0 1 0 .1c0 .19-.1.27-.21.36L80 73.88c-.22.18-.45.31-.7.05zm3.88 2.54a15.24 15.24 0 0 1 1.31-1.07c.29-.21.51-.27.78 0s.81.45.76.75-.61.3-1 .36c-.6.09-1.19.2-1.79.31-.1 0-.2.07-.29-.07a2.26 2.26 0 0 1 .18-.28zm6.61-1.19a.88.88 0 0 1 .12-.17c.7-.7 1.41-1.38 2.12-2.08a.53.53 0 0 1 .56-.09l3.14 1a1.21 1.21 0 0 1 .28.18 1.73 1.73 0 0 1-.3.16L88 73.51c-.08.02-.22.03-.15-.17zm18.63-20.16c.18-.31.41-.49.78-.29-.32 0-.45.32-.74.36a22 22 0 0 1-2.83 3q-4.39 4.27-8.84 8.47-2 1.88-3.93 3.84c-.27.27-.57.68-.9.62a2.73 2.73 0 0 1-1.36-.8.34.34 0 0 1 0-.51c.35-.35.71-.7 1.08-1 2.12-1.8 4.28-3.55 6.36-5.38s4.17-3.68 6.38-5.37a33.8 33.8 0 0 1 3.95-2.94zm-19.8 11.65c2.89-2.12 5.76-4.26 8.8-6.17 2.33-1.46 4.58-3 6.89-4.52.4-.26.74-.75 1.32-.64-1.31 1.13-2.73 2.14-4 3.29Q95 60.93 90.15 65c-.76.64-1.54 1.25-2.27 1.92s-.59.43-1.12 0-1.1-.72-1.18-1.17.75-.62 1.15-.92zm-2.47 1.73a1.16 1.16 0 0 1 .15.07c.6.53 1.21 1.05 1.79 1.59.12.11 0 .28-.11.39l-3 2.81a.49.49 0 0 1-.71 0 14 14 0 0 1-1.7-1.83.37.37 0 0 1 .07-.59 7.77 7.77 0 0 1 .74-.54 23.22 23.22 0 0 0 2.25-1.57c.16-.12.36-.22.52-.33zM70.57 45.23A68.1 68.1 0 0 0 74 51.41c1 1.58 1.88 3.22 2.84 4.83a33.92 33.92 0 0 0 2.3 3.41c1.32 1.72 2.45 3.59 3.83 5.28.47.57.45.63-.13 1-1 .69-2 1.33-2.9 2-.47.35-.74.2-1-.2l-3-4.34c-.78-1.14-1.39-2.38-2.27-3.44a24.24 24.24 0 0 1-2-3.83c-1.44-2.56-2.5-5.3-3.77-8-.74-1.54-1.34-3.15-2.07-4.71-1.07-2.27-2.09-4.57-3.11-6.88-.46-1-.85-2.11-1.29-3.17-.15-.36 0-.47.32-.51.76-.07 1.52-.16 2.34-.25.45-.13.68.13.89.58 1.86 4.12 3.68 8.11 5.59 12.05zM40.31 18.82c1.89 1 3.77 2 5.67 3 1.69.88 3.42 1.69 5.12 2.55 3.23 1.64 6.63 2.91 9.88 4.5.34.17 1 .22.9.7s-.66.2-1 .25l-3 .39a11.74 11.74 0 0 1-2.74.34c-1.28-.21-2.8-1.65-3.72-2.52-1.76-1.66-3.86-2.86-5.72-4.37a84.38 84.38 0 0 0-6.85-5.34 4.39 4.39 0 0 1 1.46.5zm-4.84-1.27a4 4 0 0 0 1.9 1.34 16 16 0 0 1 2.77 1.82c1.67 1.33 3.3 2.7 5 4 .8.64 1.64 1.24 2.47 1.83 1.55 1.1 2.91 2.46 4.39 3.65.13.12.36.22.33.43s-.3.21-.47.24c-2.15.3-4.3.59-6.45.9-.19 0-.3 0-.45-.17-2.06-2.83-3.76-5.89-5.91-8.67-1.11-1.44-2.19-2.92-3.24-4.41-.21-.28-.53-.51-.34-.96zm-1.37.53c.38.09.5.45.68.7 1.9 2.62 3.8 5.24 5.63 7.91 1.05 1.54 2 3.16 3 4.75.31.51.29.62-.23.68a25.27 25.27 0 0 1-3.92.66c-1.12-.06-.78-.69-1.16-1.51a23.93 23.93 0 0 1-1.34-3.87c-.79-2.79-1.63-5.56-2.43-8.34a2.17 2.17 0 0 1-.23-.98zM34 22.5c.77 2.24 1.41 4.51 2 6.81.24.93.81 1.87 1 2.85.3 1.38-1.34 1.12-2.44 1.32-.38.07-.58 0-.64-.41a12 12 0 0 1-.25-1.46c-.13-2.69-.42-5.37-.42-8.06 0-1.41-.12-2.82-.19-4.22A19.54 19.54 0 0 1 34 22.5zm-3.12-11.91a.7.7 0 0 1-.71-.46c-.27-.7-1-1.59-.45-2.31 1-1.27 3.08-.87 3 .82a1.77 1.77 0 0 1-1.84 1.95zm.63 8.65c0-.14.11-.32.27-.32s.13.22.15.35a36.62 36.62 0 0 1 .24 4.91c.08 2.9.14 5.79.38 8.69.06.67 0 .8-.69.91-1.35.22-2.72.39-4.07.58-.36.06-.47-.07-.42-.44a27.28 27.28 0 0 1 1.82-7.53c.65-1.56 1-3.19 1.55-4.76.26-.79.51-1.63.77-2.39zM30 20.8c-.62 2-1.23 4.08-2 6.07a33.39 33.39 0 0 0-1.69 6.29c0 .22-.09.45-.11.68a1.1 1.1 0 0 1-1.06 1.08c-1.23.22-2.45.53-3.69.71-.16 0-.33.1-.43 0s0-.34.1-.5c.32-.56.63-1.13 1-1.68 1.23-2 2.47-4 3.63-6.1 1-1.73 2.08-3.37 3.09-5.08.45-.77.82-1.6 1.22-2.4.13.29 0 .61-.06.93zM19.52 35.32a1.09 1.09 0 0 1-.8.55c-1.47.26-2.94.46-4.42.59h-.33c-.05 0 0-.29.11-.4.73-.78 1.47-1.54 2.2-2.32 1.19-1.29 2.34-2.61 3.56-3.86 1-1.06 2-2.18 3.08-3.23a62.65 62.65 0 0 1 4.65-4.85 8.26 8.26 0 0 1-1.05 2c-1.6 2.69-3.23 5.35-4.86 8-.66 1.2-1.44 2.34-2.14 3.52zM5.73 37.16c1.33-1 2.64-2 4-3 1.74-1.25 3.3-2.7 4.94-4.06 1.46-1.22 2.84-2.54 4.35-3.69 1.67-1.27 3.12-2.8 4.77-4.07s3.07-3 4.92-4l.4-.22a1.78 1.78 0 0 1 .17-.27c.07-.06.24-.12.25-.1s0 .2-.08.27a1.6 1.6 0 0 1-.25.18 4.28 4.28 0 0 1-1.3 1.7c-3.27 3.19-6.2 6.72-9.52 9.87-1 .91-1.83 1.94-2.71 2.94-.63.72-1.3 1.39-2 2.06a6.27 6.27 0 0 0-.94 1 2.51 2.51 0 0 1-2.19 1.21 25.83 25.83 0 0 0-4.63.66H5.5c-.03 0 .11-.39.23-.48zm-2.94 3.21h-.57c-.52 0-.75-.29-.85-.74-.05-.27 0-.46.33-.48s.69 0 1-.06a31.13 31.13 0 0 0 4.06-.63c2.54-.54 5.13-.7 7.71-1 1.21-.14 2.43-.26 3.63-.47a12.36 12.36 0 0 1 1.71-.16 49.6 49.6 0 0 0 7.64-1.31c1.53-.31 3.08-.5 4.63-.7 2.46-.31 4.92-.68 7.37-1 4.49-.62 9-1.49 13.46-2 3.44-.39 6.88-.82 10.32-1.22a3.42 3.42 0 0 1 1.59 0c.15.05.29.11.3.29a.38.38 0 0 1-.21.38 6.9 6.9 0 0 1-1 .23c-2.2.27-4.39.55-6.58.93-2.51.44-5 .83-7.56 1.22-2.26.36-4.55.49-6.81.89-1.77.3-3.55.52-5.32.79-4.63.72-9.27 1.47-13.91 2.16-1.2.19-2.43.25-3.64.35-3.47.3-6.87 1-10.3 1.52-2.34.37-4.68.68-7 1zm36.07 54.55a.93.93 0 0 1-.45-.08c-1.56-1.31-3.52-2.11-4.81-3.75-.33-.42-.68-.83-1-1.23-.15-.17-.34-.37-.58-.18a.51.51 0 0 0 0 .64 3.33 3.33 0 0 0 .68.91c.7.69 1.39 1.39 2.08 2.09a.43.43 0 0 1 .38.15s.11.14.1.18-.16.1-.26 0-.25-.14-.28-.3a6.12 6.12 0 0 1-1.85-1.11 47.52 47.52 0 0 1-6.44-6.48A57.12 57.12 0 0 1 19.49 76c-1.83-3.26-3.72-6.48-5.41-9.8-1-1.9-1.78-3.88-2.72-5.8-1.36-2.89-2.49-5.91-3.75-8.85-.83-1.92-1.48-3.92-2.22-5.87C5 44.59 4.45 43.52 4 42.44c-.42-.91-.43-.93.61-1 .8-.08 1.56-.33 2.35-.46s.93-.13 1.1.69A44.78 44.78 0 0 0 10 48c.65 1.74 1.43 3.43 2.1 5.17 1.06 2.74 2.36 5.37 3.35 8.14a36.4 36.4 0 0 0 2.17 4.66c.47.88.73 1.83 1.19 2.71 1.76 3.33 3.47 6.7 5.47 9.9a50.11 50.11 0 0 0 4.27 5.65c1.65 1.95 3.23 3.95 5 5.78a24.66 24.66 0 0 0 1.86 1.69 42.67 42.67 0 0 0 3.64 2.92c.08.06.2.2.18.26s-.23.05-.37.04zm-3.24-3.74A31 31 0 0 1 32 87.51c-1.62-1.88-3.21-3.78-4.73-5.73a41.27 41.27 0 0 1-3.11-4.53 48.69 48.69 0 0 1-2.72-4.74c-.94-2.16-2.17-4.17-3.05-6.36C18 65 17.38 64 16.89 62.84s-1-2.4-1.52-3.57c-1.38-3-2.38-6.18-3.73-9.21a75 75 0 0 1-2.72-7.89 2.24 2.24 0 0 1-.09-.45c-.17-1-.17-1 .91-1.16.84-.11 1.66-.26 2.49-.41.46-.08.66.05.74.55a74.79 74.79 0 0 0 2.34 9.78A102.19 102.19 0 0 0 19.8 62c.82 1.84 1.59 3.72 2.49 5.52 1.38 2.76 2.81 5.48 4.41 8.13 1.16 1.92 2.36 3.83 3.51 5.76a30 30 0 0 0 2.06 3.16c1.4 1.83 2.85 3.63 4.4 5.36 1.27 1.41 2.69 2.67 4 4a5.57 5.57 0 0 0 .9.7c.18.14.3.28.24.5 0 0-.08 0 0 0a2.07 2.07 0 0 1-1.68-.5 52.793 52.793 0 0 1-4.51-3.45zm11.51 8.58c-.27 0-.65 0-.69-.26s.37-.3.59-.4c1.91-.88 3.65-2.06 5.46-3.11.24-.14.67-.37.51-.65s-.52 0-.79.14a50.86 50.86 0 0 1-5 2.54 10.65 10.65 0 0 1-2.42.57 1.84 1.84 0 0 1-.33 0c.05-.13.19-.09.29-.13l1.88-.91a7.76 7.76 0 0 0-2.8.29 2.6 2.6 0 0 1-2.06-.39c-.15-.11-.34-.17-.49-.29-.32-.24-1-.26-.9-.71 0-.23.71-.11 1.06 0 2 .36 3.89-.07 5.82-.16a5.24 5.24 0 0 0 2.18-.65c1.75-.92 3.53-1.81 5.22-2.83a25.5 25.5 0 0 0 2.57-2.09c1.62-1.29 3-2.84 4.49-4.23a4.34 4.34 0 0 0 1.28-1.7.87.87 0 0 1 .55-.54 16.58 16.58 0 0 1 3.08-.86c.38 0 .46.07.31.45a14.25 14.25 0 0 1-3.05 4.52 38.37 38.37 0 0 1-7.08 6.13c-1.5 1-2.88 2.14-4.31 3.22a23 23 0 0 1-4.21 2 2.31 2.31 0 0 1-1.16.05zm10.21 1.47a10.7 10.7 0 0 0 2.51-1.93 31 31 0 0 0 2.66-2.47 2 2 0 0 0 .72-1.09c-.59-.21-.81.32-1.1.61a32.57 32.57 0 0 1-4.46 3.75 13.73 13.73 0 0 1-2.67 1.57 2.21 2.21 0 0 1-.64.22c-.37 0-.9.06-1-.29s.37-.47.64-.64a57.78 57.78 0 0 0 4.69-3.41 13.06 13.06 0 0 0 1.52-1.7c.1-.12.17-.28 0-.37a.38.38 0 0 0-.31 0c-.1 0-.16.16-.24.25a20.77 20.77 0 0 1-5.26 4c-.61.36-1.26.69-1.9 1a2.68 2.68 0 0 1-2.4.08c-.27-.12-.74-.06-.75-.4s.44-.33.71-.43a19.71 19.71 0 0 0 4.62-2.92c1.65-1.24 3.31-2.45 5-3.66a35.44 35.44 0 0 0 5.21-5A11.17 11.17 0 0 0 67.4 85a3 3 0 0 1 3-2.27 19.64 19.64 0 0 0 3.23-.76c.31-.07.7-.31 1 0s-.07.57-.16.85a16.85 16.85 0 0 1-2.6 4.81c-1.36 1.84-2.57 3.79-4.06 5.54-1.35 1.48-2.81 2.83-4.25 4.2s-3.08 2.22-4.54 3.44c-.46.37-1.02.76-1.68.42zm6.43 1.32a1.3 1.3 0 0 1-.43.15c-.18 0-.42.06-.51-.13s.12-.32.26-.43a40.74 40.74 0 0 0 5-4.8 2.15 2.15 0 0 0 .44-.64c.11-.23.66-.33.34-.66-.13-.13-.5.22-.72.45a46 46 0 0 1-5.33 4.64c-.61.46-1.28.84-1.93 1.24s-1.57.09-2.35.13c-.1 0-.16 0-.15-.12a.26.26 0 0 1 .09-.19 13.78 13.78 0 0 1 1.69-1.19 21.2 21.2 0 0 0 4.17-3.18 43.82 43.82 0 0 0 7.51-8.73c.52-.79 1.06-1.57 1.6-2.35A21.08 21.08 0 0 0 75.68 82c.12-.32.23-.51.59-.58l9.5-2.06.55-.11c.4.05.27.28.18.5a18.77 18.77 0 0 1-2.35 4q-2.88 3.57-6.1 6.83c-1.53 1.54-3.07 3.06-4.57 4.64a38.87 38.87 0 0 1-4.18 3.71 48.65 48.65 0 0 1-5.53 3.62zm9.84-1.55a.62.62 0 0 0 .36-.18 45.5 45.5 0 0 0 4.46-4.75 6.65 6.65 0 0 0 .48-.77c0-.07.2-.17 0-.26s-.27-.06-.33 0c-.43.42-.86.84-1.27 1.29a26.37 26.37 0 0 1-5.87 5.18c-.29.18-.55.42-.83.61a2.08 2.08 0 0 1-1.16.44c-.14 0-.33 0-.38-.13s.1-.19.18-.26c.24-.18.51-.34.74-.53 1.8-1.47 3.53-3 5.22-4.62a1.29 1.29 0 0 0 .23-.24.2.2 0 0 0-.07-.3.19.19 0 0 0-.19 0A12.21 12.21 0 0 1 73.35 98c-1.83 1.62-3.92 2.89-5.84 4.4a1.74 1.74 0 0 1-.39.23c-.41.18-1.05.29-1.18 0-.22-.4.4-.52.68-.71a55.79 55.79 0 0 0 5.62-4.31c.49-.43.93-.9 1.38-1.37 2.56-2.62 5.15-5.2 7.64-7.88 1.49-1.61 2.93-3.28 4.27-5a31 31 0 0 0 2.15-3.91 1.4 1.4 0 0 1 1-.82l7-1.37h.34c.35 0 .54.06.37.44a6.92 6.92 0 0 1-.42.81 49.23 49.23 0 0 1-4.72 6.32c-1.76 2.11-3.64 4.11-5.47 6.15a74.81 74.81 0 0 1-8 7.48c-.9.76-1.85 1.46-2.78 2.17-.48.26-.87.59-1.39.37zm9.5-1.28a.35.35 0 0 1 .12-.3c1.35-1 2.42-2.3 3.68-3.4a8.29 8.29 0 0 0 1.16-1.41.35.35 0 0 0-.18-.56c-.26 0-.4.21-.54.37-.65.7-1.32 1.37-2 2a66.94 66.94 0 0 1-5.22 4.42 2.84 2.84 0 0 1-.68.42c-.28.1-.72.25-.86 0s.26-.45.46-.63l4.67-4 .34-.31c.08-.08.15-.19 0-.27a.28.28 0 0 0-.22 0 10.44 10.44 0 0 0-1.49 1 48.56 48.56 0 0 1-4.37 3.3c-.33.25-.67.48-1 .76a2.09 2.09 0 0 1-1.19.62c-.26 0-.67.19-.75 0s.3-.35.5-.5c1.74-1.3 3.37-2.73 5-4.15a98.07 98.07 0 0 0 11-11.59c1.08-1.28 2.2-2.52 3.22-3.85a13.84 13.84 0 0 0 2.34-4 1.22 1.22 0 0 1 1-.91c1.13-.21 2.24-.48 3.36-.73s2.52-.59 3.78-.9c.37-.09.51-.06.38.37a11.53 11.53 0 0 1-.8 2 41.42 41.42 0 0 1-4.25 5.94c-1.82 2.25-3.54 4.6-5.49 6.74a44.53 44.53 0 0 1-5.67 5.14c-2 1.51-4 3-6 4.35-.07.13-.2.36-.3.08zm8.17-.44a.26.26 0 0 1-.21 0c-.16-.08-.06-.2 0-.27.52-.56 1-1.12 1.59-1.65a47.6 47.6 0 0 0 3.41-3.69c.12-.15.22-.31.33-.46s.12-.19 0-.3a.25.25 0 0 0-.4 0 7.94 7.94 0 0 0-1.16 1.08 31.43 31.43 0 0 1-3.52 3.59 11.09 11.09 0 0 1-7.11 3.22c-.18 0-.26 0-.27-.12s.17-.23.29-.31C86.21 99 88.15 97.62 90 96.1a64.17 64.17 0 0 0 5.35-4.81A38.33 38.33 0 0 0 99 86.92c.91-1.3 2-2.51 3-3.73a51.16 51.16 0 0 0 3.86-5.38 10.22 10.22 0 0 0 .87-2.23 1.48 1.48 0 0 1 1.27-1.09c1.38-.26 2.74-.66 4.11-1 .29-.07.6-.1.9-.15s.45.06.34.36a13 13 0 0 1-.55 1.26 63.77 63.77 0 0 1-6.48 9.7 76.29 76.29 0 0 1-6.08 7.13A74.32 74.32 0 0 1 91.78 99a2.59 2.59 0 0 1-.5.28zm9.7-2.59a6.64 6.64 0 0 1-2 .45c.19-.64.78-.94 1.21-1.38.94-1 1.85-1.92 2.81-2.84a8.12 8.12 0 0 0 .74-1.13c.07-.09.1-.23 0-.28a.37.37 0 0 0-.31 0c-.52.5-1 1-1.52 1.53a33 33 0 0 1-5.53 4.76 2.13 2.13 0 0 1-2.11.42 40.83 40.83 0 0 0 4.14-3.53 66 66 0 0 0 6.55-7.12c1.35-1.73 2.77-3.42 4.07-5.19s2.35-3.56 3.52-5.35a15.26 15.26 0 0 0 1.84-3.65.94.94 0 0 1 .76-.61l6.59-1.5c.15 0 .33-.06.41.09s-.06.27-.13.4a37.57 37.57 0 0 1-4.09 5.92c-1.75 2.26-3.47 4.55-5.19 6.84-2 2.71-4.3 5.26-6.6 7.75a31.71 31.71 0 0 1-4.75 4.12 1.29 1.29 0 0 1-.39.3zm10.91-3.91c-.24-.44.15-.69.36-1a13.24 13.24 0 0 1 1.08-1.17c.82-.86 1.42-1.87 2.15-2.8.08-.1.25-.25 0-.38s-.28 0-.4.12a4.45 4.45 0 0 0-.49.48 33.88 33.88 0 0 1-4.55 4.8 5.88 5.88 0 0 1-2.13 1.5c-.11 0-.22.12-.31 0s0-.21.1-.28c.91-.93 1.79-1.88 2.74-2.75s1.59-1.93 2.47-2.81c.05 0 .12-.16.1-.18s-.2-.08-.3 0-.54.2-.68.4a23 23 0 0 1-2.03 2.12 26 26 0 0 1-4.4 3.92c-.35.23-.65.52-1 .76a.31.31 0 0 1-.31 0c-.16-.14 0-.31.07-.38a15.29 15.29 0 0 0 1.25-1.13 25.85 25.85 0 0 0 3.29-3.49c1.75-2 3.49-4 5.08-6.15 1.2-1.62 2.47-3.19 3.56-4.89a15.53 15.53 0 0 1 1.14-1.47 28.8 28.8 0 0 0 3.69-5.2 16.23 16.23 0 0 0 1-1.67c.1-.25.32-.29.55-.34l5.45-1.28c.18 0 .41-.13.54 0s0 .35-.11.51a48.43 48.43 0 0 1-3.5 5.77c-1.64 2.25-3.31 4.47-5.07 6.63s-3.77 4.61-5.79 6.79c-1.15 1.28-2.37 2.41-3.55 3.57zm12.18-6.61c-.08.06-.2.16-.29 0s0-.21.09-.29c.9-.89 1.43-2.06 2.29-3 .06-.07.11-.24.07-.29s-.29-.07-.39 0c-.79.88-1.56 1.77-2.35 2.65a29.09 29.09 0 0 1-2.32 2.51 13.06 13.06 0 0 1-2.33 1.42c-.23.13-.45.52-.76.22a1.56 1.56 0 0 1 .48-.7 22.33 22.33 0 0 0 2.72-2.69 12.48 12.48 0 0 0 1.15-1.53v-.2c0-.05-.16-.09-.19-.06a4.89 4.89 0 0 0-.72.55l-3 3.12s0 .07-.07.09c-.53.5-.93 1.16-1.69 1.38.41-.54.81-1.09 1.23-1.62 1.67-2.07 3.37-4.12 5-6.22 1.38-1.76 2.69-3.58 4-5.37a44.37 44.37 0 0 0 4-6.53.92.92 0 0 1 .67-.56l6.88-1.41c.53 0 .64.13.46.49a12.87 12.87 0 0 1-.79 1.4c-1.44 2.14-2.81 4.35-4.39 6.41a91.55 91.55 0 0 1-6 7.63 22.52 22.52 0 0 1-3.75 2.6zm22.33-19.4a22 22 0 0 1-2.65 3.57 82.09 82.09 0 0 1-6.78 6.8 49 49 0 0 1-5.48 4.15 1 1 0 0 1-.39.12 6.65 6.65 0 0 1 1.36-2.28c1.72-2 3.11-4.31 4.66-6.47 1.12-1.55 2.11-3.17 3.08-4.81a1.22 1.22 0 0 1 .87-.67c1.65-.31 3.29-.64 4.94-1 .14 0 .3-.11.43 0s.05.43-.04.59zm6.28-3.27c-.88.25-1.77.47-2.66.65-2.69.55-5.37 1.17-8.07 1.65-3.61.64-7.2 1.31-10.79 2-2.24.45-4.45 1-6.68 1.55l-2.76.68c.31-.52.93-.42 1.37-.67.26-.14.77-.15.69-.46s-.51-.07-.78 0c-1.78.39-3.54.85-5.33 1.17-3.9.72-7.81 1.37-11.71 2-.68.11-1.37.14-2 .25-2.19.36-4.24 1.22-6.42 1.61-3.08.54-6.08 1.46-9.14 2.07-2.1.42-4.14 1-6.19 1.57a24.56 24.56 0 0 1-3.84.6 47.24 47.24 0 0 0-5.51 1c-.61.13-1.2 0-1.81.17-1.27.25-2.5.64-3.76.94a1.75 1.75 0 0 0-.64.23c-.2.14-.53.26-.4.6s.38.22.6.27.36-.09.54-.14a35.31 35.31 0 0 1 5.32-1.19c2.11-.24 4.15-.89 6.25-1.24a17.47 17.47 0 0 0 3.94-.6c.25-.1.52-.13.77-.22a16.93 16.93 0 0 1 4.51-.99 20.89 20.89 0 0 0 3.1-.75c3.16-.73 6.29-1.51 9.45-2.25a16.26 16.26 0 0 0 3-.82 5.92 5.92 0 0 1 1.69-.16c2.62-.28 5.19-.88 7.79-1.25a.93.93 0 0 1 .23 0 .47.47 0 0 1 .16.1s-.1.11-.16.13c-2.81.7-5.61 1.42-8.43 2.07-3.8.87-7.58 1.8-11.41 2.48-4.18.74-8.3 1.7-12.44 2.6-3.39.73-6.8 1.4-10.18 2.22-.74.18-1.5.29-2.25.4a26.84 26.84 0 0 0-4.26.88c-.47.14-.72.06-.82-.44-.45-2.14-1-1.91 1.35-2.22 3.24-.43 6.34-1.36 9.49-2.1 1.63-.39 3.23-.91 4.85-1.34 2.1-.57 4.25-.89 6.38-1.35s4.16-1 6.26-1.37c3.86-.73 7.74-1.38 11.6-2.1 1.84-.34 3.64-.85 5.45-1.35 2.24-.62 4.52-1.09 6.79-1.59 3.08-.68 6.2-1.21 9.25-2.1 2-.59 4.06-1 6.12-1.46 2.87-.58 5.74-1.22 8.63-1.73 2.47-.44 4.95-.87 7.43-1.33 1.27-.24 2.52-.55 3.79-.83.37-.08.74-.17 1.12-.24 1-.17 1.3 0 1.47.6a1.47 1.47 0 0 1-.95 1.8z" fill="#bdabdc" data-color="1"/>
            <path d="M47.65 92c.54.47 1.11.91 1.67 1.35a.35.35 0 0 0 .51 0s.05-.13.08-.19-.06-.16-.12-.19a14.73 14.73 0 0 1-2.55-2 .32.32 0 0 0-.29-.06c-.11.05-.1.21 0 .3a6.64 6.64 0 0 0 .7.79z" fill="#bdabdc" data-color="1"/>
            <path d="M150.78 62.11a3.91 3.91 0 0 0-.43 0 32.38 32.38 0 0 0-4.37 1c-2.32.61-4.63 1.17-7 1.67-3.27.69-6.56 1.31-9.78 2.25a3.42 3.42 0 0 0-1 .34c-.24.15-.68.3-.61.58s.5.16.77.14a3.51 3.51 0 0 0 .79-.12c.81-.21 1.6-.5 2.42-.64 2.06-.35 4-1.12 6.08-1.47 1.41-.23 2.83-.62 4.25-.88a80.79 80.79 0 0 0 8.25-2.19 4.32 4.32 0 0 0 .62-.29.24.24 0 0 0 .13-.28c.1-.07-.05-.1-.12-.11z" fill="#bdabdc" data-color="1"/>
        </g>
    </g>
</svg>
