<?xml version="1.0" encoding="UTF-8"?>
<svg data-bbox="0.046 0 128.384 117.013" viewBox="0 0 128.41 116.99" xmlns="http://www.w3.org/2000/svg" data-type="color">
    <g>
        <path d="M4.21 87.46c-1-.38-3.4-.13-4-1.08S.79 83.22 1.55 83s1.88.49 2.56.4A14 14 0 0 0 7 81.86c6.4-3.59 13.62-7.58 19.85-11-.28-1-.94-1.62-.78-2.66.07-.49.55-.69.59-1.18.06-.73-1.48-1.53-1.18-3.34.11-.69.44-.82 1-1.47-2.87-8.81-5.91-18.14-6.74-29.21a33.93 33.93 0 0 1 0-5.8c.14-1.5.53-3.91 1.86-4C24 23 24.94 29 25.34 31c1.66 8 1.91 16.78 2.85 25.7.09.8.13 1.78.2 2.66a14.3 14.3 0 0 0 .19 2.64c.34.9 1.52 1.3 1.57 2.75 0 .92-.58 1.35-.29 2.45.11.4.95-.15 1.08.39a9.28 9.28 0 0 1-.19 3.25C37.7 75.8 45 80.39 52.07 85.2c6.64-7.51 11.78-16.44 16.71-25.74a85.06 85.06 0 0 0 3.43-7.18c.32-.75.32-1.88 1.19-2.36-.41-.18-1.06-.12-1.19-.59.14-.91.16-1.71.69-2.06.69-.44 1.7 0 2.66-.1s2.16-1 3.24-1.57c7.3-3.59 15.39-7.52 22.41-11-.29-2.39-.52-5.14 1.47-6a60.27 60.27 0 0 1 2-23.79c.46-1.57 1.13-4.81 2.92-4.81 3.06 0 1.4 7.05 1 9.24-1.22 6.32-2.77 13.25-4.13 19.36.21.44.84.86.88 1.77a2.28 2.28 0 0 1-.88 2.06 3.47 3.47 0 0 1-.78 2.26c7 5.45 14.24 10.72 21.32 16.12 2.31-.67 4.67 1.47 2.66 3.14-.37 0-.89.29-1.19 0 .81.83-.94 4.11-1.56 5.41a202.06 202.06 0 0 1-17 28.89c-3.79 5.35-6.51 11-10.81 15.43s-9.07 8.4-15.33 10.91-15.61 2.86-23.49 2c-19.4-2.21-32.75-10.88-45.6-20-1.19-.84-2.5-1.75-3.83-2.75C7.73 93 5.68 91.91 5.19 91s-.47-2.46-.98-3.54zm100-66.23c1-6.11 3-11.74 3.24-18.28 0-.06 0-.12-.1-.1a55.39 55.39 0 0 0-3.19 18.38zM26 55.23C24.92 45.2 25 34 21.9 25.94 20.81 37 23.94 46.35 26 55.23zm76.55-23.88a1 1 0 0 0 1.09-1.18c-.59-.17-1.13.37-1.06 1.18zm3.84 18c1 .06 1.94.22 3 .2-2-3.79-4-7.55-6.09-11.2 1.07 3.65 2.07 7.35 3.12 10.98zm-8.06-.58c1.13 0 2 .21 3.14.19-.14-3.48.28-6.93 0-10.22-.94 3.39-2.06 6.66-3.11 10.01zM114.77 50c1.1 0 2 .13 3 .2-3.52-3.66-7.88-7.84-11.69-11.21 3.03 3.59 5.72 7.45 8.69 11.01zm-27.52-2.14c.57.16 1.43 0 2 .2 2.76-2.68 5.27-5.61 8.06-8.26 0-.12.15-.2-.1-.2-3.21 2.85-6.71 5.45-9.96 8.26zm7.47.59c.87 0 1.7.14 2.56.2.89-3 2.1-6.22 2.85-9-1.76 2.94-3.63 5.83-5.41 8.8zm-3-1.28c-.29.31-.85.54-.78 1 .75.11 1.61.1 2.35.2 1.89-2.73 3.85-5.91 5.41-8.65-2.22 2.35-4.7 5.12-6.93 7.45zm-8.84.49c2.68.6 3.48-.72 4.91-1.86 2.63-2.08 5.24-4.08 7.28-6-3.92 2.71-8.29 5.03-12.14 7.86zm28 2.07c.8-.14 1.56.27 2.16 0-2.59-3.18-5.1-6.95-7.66-9.83 1.98 3.18 3.62 6.61 5.56 9.83zm-8.3-.73a12.13 12.13 0 0 0 2.66.1c-1-2.83-1.57-6.1-2.56-8.94.05 3.24-.17 5.61-.1 8.84zm-24.37-1.63c1-.07 1.74.16 2.75.1 3.57-2.37 7.69-4.7 10.91-7.08-4.48 2.4-9.15 4.61-13.66 6.98zm41.67 3.05c1-.08 2.14.21 2.85.09-4.48-3.24-9-7-13.37-10 3.53 3.27 6.99 6.62 10.52 9.91zm-43.24-.3c-1.31-.11-.94.29 0 0zm12 1.28c.84-.13 2.08.61 2.46 0-.79.06-1.99-.4-2.47 0zm3.44.29c0 .08.08.12.19.1a18.36 18.36 0 0 0 2.17.3c.71.07 1.63.35 2-.1a8.91 8.91 0 0 0-4.37-.3zM53.74 86.38c3 1.93 5.95 3.84 8.94 5.8a15.16 15.16 0 0 0 2.95 2c1.39.46 2.85.28 4.33.88 1.33 1.26.06 2.77-1 3.54 3.26 3.63 6.48 7.48 13.16 7.47a16.77 16.77 0 0 0 8.75-2.85c7.2-4.44 12.32-11.39 16.8-18.09a256.1 256.1 0 0 0 16.22-27.41 4.19 4.19 0 0 0 .69-1.87c-9 .27-17.52-.67-25.85-1.38s-16.43-2.1-24.66-2.85a127.71 127.71 0 0 1-20.33 34.76zm43.64-34.1a25.75 25.75 0 0 0 3.53.39v-.48a25.81 25.81 0 0 0-3.53-.3zm4.61.49c1.1-.21 3.1.71 3.54-.19-1-.36-2.42-.19-3.54-.39zm4.53.3c.5 0 1.1 0 1.76.1.81.07 2 .58 2.16-.3a32.59 32.59 0 0 0-3.83-.29c.08.28-.13.25-.09.49zm4.91.39c1 0 2.51.56 3.34.1.1-.69-.83-.45-1.37-.49s-1.5-.14-1.87-.2c0 .23-.17.29-.1.59zm4.42.4c1 0 2.69.38 3.44 0v-.3a17.52 17.52 0 0 0-3.44-.29zm8 .09h.79c-.07-.22-.55 0-.79-.09-1-.2-2.24-.19-3.34-.3-.08 0-.11.08-.1.2V54zm-97 9.44a1.57 1.57 0 0 0 2 2.36 1.7 1.7 0 0 0-.69-2.46c-.32.48-1.16-.04-1.35.1zm1 3.44c-.16.14-.09.5-.1.78h1.08v-.88a3.28 3.28 0 0 0-1.03.1zm.39 2c1.38.12 0 1.35-.39 1.09.62 0 1.36-.12 1.27.58.05.38-.34.31-.49.5 1.41.49 1.23-1.38 1.38-2.46-.54.1-1.7.07-1.82.25zm-2.51 18.24c1.19.26 2.51.39 3.64.69-.3-4.61-.42-9.41-1-13.76-.78 4.45-1.79 8.67-2.64 13.07zm.89-9.92c.19-1 .74-2.42.59-3v.11c-2.3 3.89-4.49 7.89-6.68 11.89 1.47.17 2.75.51 4.22.69.56-2.84 1.25-6.53 1.87-9.69zM5.88 83.73c1.39.21 2.84.37 4.13.69 4.33-3.26 9-6.78 12.87-10.12-5.59 3.22-11.42 6.2-17 9.43zm8.85-1.47a13.72 13.72 0 0 0-3 2.45c1.22.06 2.21.35 3.34.49 2.99-3.34 6.29-6.85 8.93-10.2-3 2.39-6.27 5-9.27 7.26zm1.86 3.24c1 0 1.74.36 2.75.4 2-3.3 4-7 5.7-10.33-2.78 3.35-5.78 6.48-8.45 9.93zm14 2.46c1.29.21 2.62.39 3.83.69-1.52-4.41-3.07-8.79-4.72-13.08q.35 6.24.85 12.43zm20-.79c.21-.41.62-.62.78-1.08-5-3.22-10.06-6.9-14.94-9.93 4.67 3.64 9.32 7.37 14.07 11.01zm-10.31 2.46c1.08.29 2.37.38 3.44.68.14-.3-.25-.58-.39-.78-3.49-4.5-7.68-9.09-11.11-13.17 2.78 4.3 5.18 9.04 8.06 13.27zm-4.62-.79a13.68 13.68 0 0 0 3 .39c-2.48-3.94-4.83-8.53-7.28-12.18q2.23 5.79 4.28 11.79zm11.5-1.18c1.12 1.07 1.57 1.93 2.36.3-4.19-3.23-8.49-6.85-12.58-9.83C40 81 43.88 84.57 47.16 87.66zm-3.74.2c1 1.21 2.93 4.34 4.23 2-4.15-3.86-8.26-8.15-12.39-11.63 2.52 2.77 5.49 6.44 8.16 9.63zM1.65 85.5a13.31 13.31 0 0 0 1.87.29 5.68 5.68 0 0 0 .2-.88c-.86-.09-2.15-.74-2.07.59zm2.95.5 3.74.59c-.07-.36.21-.38.2-.68-1.19-.34-2.57-.45-3.74-.8a1.59 1.59 0 0 0-.2.89zm7.77.59c-.9-.18-2-.32-2.66-.49 0 .29-.34.31-.29.69 1.64.25 3.3.49 4.92.78.07-.87-1.24-.84-1.97-.99zm2.94 1.18a10.77 10.77 0 0 1 1.87.3c.57.1 1.52.52 1.58-.3-1.2-.15-2.3-.39-3.45-.59zm37.55-.49c-.18.48-.65.67-.89 1.08.86.72 1.81 1.36 2.85 2.16s1.85 1.87 2.85 2.26c1.36.52 3.08.38 4.62.69-3.29-1.97-6.18-4.25-9.43-6.2zm-47 2.16c1.14.14 2.28.27 3.34.49a4.63 4.63 0 0 1-.2-1.48c-1.21-.22-2.39-.49-3.63-.69a13.57 13.57 0 0 0 .51 1.67zm13.76-1c1.58.19 3.63 1 5 .69-.38-.65-1.46-.55-2.26-.69s-2-.39-2.65-.49a.66.66 0 0 1-.07.5zM10.3 90c1.24.24 2.6.35 3.83.59-.07-.5.14-.71.11-1.18-1.45-.22-2.82-.53-4.23-.78.09.48.22.9.29 1.37zm15.34-.88v.29a10.68 10.68 0 0 0 3.73.59.39.39 0 0 1 .1-.29 17.38 17.38 0 0 0-3.83-.57zm29.28 3c-1.3-.93-2.52-1.94-3.73-3A2.74 2.74 0 0 0 50 90.41c.78 1.39 3.24 1.59 4.92 1.77zm-39.8-1.47c1.41.22 2.8.47 4.33.59 0-.4-.2-.59-.2-1-1.41-.16-2.7-.44-4-.68a3.63 3.63 0 0 1-.13 1.15zm15.23-.3c1.67.17 3.12.55 4.72.79 0-.87-1.29-.77-2-.89-.89-.15-1.8-.3-2.56-.39 0-.06 0-.11-.1-.1.11.37-.13.35-.06.65zm-9.73 1.08a37.54 37.54 0 0 0 4.62.6c-.18-.18-.12-.6-.29-.79-1.63-.12-2.91-.57-4.52-.69a5.69 5.69 0 0 0 .19.94zm15.43-.19c1.17.25 3 .83 4 .59-.18-.64-1.1-.47-1.77-.59a15.69 15.69 0 0 0-2.16-.4c.05.25-.12.28-.07.46zm-9.73 1.08c1.86.05 4.14.81 5.6.59-.45-.69-1.64-.72-2.55-.88s-2.14-.26-3.05-.5h-.2c.06.34.15.57.2.85zm14.74-.2a15.26 15.26 0 0 0 2.36.49c.79.14 1.76.56 2.16.1-.42-.48-1.33-.47-2.06-.59s-1.76-.36-2.46-.39zm9.44 21c8.28 2 19.82 2.84 28 .48 8-2.3 13.64-7.39 18.47-12.77.16 0 0-.12-.1 0-3.9 3.18-7.64 6.54-13.66 7-6.58.47-11-2.89-13.85-6.19-.4-.46-1.21-1.59-1.67-1.77a21.08 21.08 0 0 0-3.69-.31c-18.45-2.33-36.48-5.24-54.44-7.67 11.37 8.67 24.19 17.33 40.94 21.33zM33 93.26c.85.11 2.37.56 2.94.3-.13-.49-.88-.41-1.37-.49l-1.57-.3c-.06 0-.12 0-.1.1s.1.24.1.39zm13.56-.09a20.16 20.16 0 0 0 2.36.49c.77.13 1.77.52 2.16.1-.42-.52-1.33-.47-2.07-.59a20.07 20.07 0 0 0-2.45-.4zm-9.56.68a16.36 16.36 0 0 0 3.64.4c-1-.44-2.5-.45-3.64-.79zm19.86.69a16.93 16.93 0 0 0-4.79-.54c.17.49.86.42 1.28.5 1.55.27 3.2.56 4.72.78.03-.68-.71-.63-1.18-.74zM45.49 95c.19.24.19 0 0-.1-1.25-.12-2.39-.36-3.54-.58.79.68 2.34.51 3.54.68zm13.56.3c2 .61 4.42.81 6.58 1.27.07-.74-.8-.59-1.28-.68-1.6-.33-3.8-.74-5.3-1zm7.66 1.47a3.58 3.58 0 0 1 1.48.4c.08-.31.51-.28.59-.6-.82 0-1.4-.24-2.16-.29-.08.31.13.28.09.52z" fill="#bdabdc" fill-rule="evenodd" data-color="1"/>
    </g>
</svg>
