<?xml version="1.0" encoding="UTF-8"?>
<svg data-bbox="-0.004 -0.003 211.318 212.119" xmlns="http://www.w3.org/2000/svg" viewBox="0 0 212 213" height="213" width="212" data-type="color">
    <g>
        <g clip-path="url(#ff37485a-f8e7-4b3a-b9ca-9e8953cb40ca)">
            <path fill="#DFAA3C" d="M179.36 4.14c9.92 10.26 20.23 19.86 30.22 30.41.6.64 1.81 1.59 1.73 2.31-.06.55-2 1.5-3.27 2.21a158.987 158.987 0 0 0-23.29 15c-4.09 3.29-8 6.65-11.83 10-3.83 3.35-7.46 7.17-11.07 10.77a191.302 191.302 0 0 0-19.82 24c-3.05 4.26-6.06 8.5-8.95 12.9-2.89 4.4-5.74 8.82-8.66 13.18-5.92 8.86-12.33 17.17-18 25.79a64.451 64.451 0 0 1-4.62 6.35c-1.66 2-3.37 3.85-5 5.87S93.6 167 91.9 169c-1.7 2-3.57 3.65-5.29 5.58-12.74 14.28-27.87 26.78-46.19 35.89-1.18.59-3.1 1.74-3.94 1.64-.84-.1-1.73-1.38-2.48-2.11L1.84 177.82c-.59-.59-1.93-1.67-1.84-2.7.09-1.03 2.06-1.65 3.28-2.21 3.86-1.76 7.69-3.41 11.06-5.29a57.667 57.667 0 0 0 6.45-4.52c2.14-1.62 4.35-3.18 6.16-4.72 2-1.71 4.19-3.1 6.26-4.71a65.779 65.779 0 0 0 5.77-5.1c3.67-3.67 7.43-7 10.87-10.88 3.44-3.88 6.73-7.83 10.15-11.69 3.42-3.86 6.39-8.16 9.43-12.32s6.28-8.34 9.15-12.7C81.45 96.62 84 92 86.9 87.56c5.69-8.75 12.14-16.89 18.28-25.4 3.09-4.29 5.69-8.8 9.24-12.6 3.55-3.8 6.63-7.79 10.29-11.45a271.389 271.389 0 0 1 22.9-20.69 149.756 149.756 0 0 1 22.71-15.49c1.09-.58 3-2 3.94-1.93 2.08.19 3.48 2.92 5.1 4.14zM209 35.7c-11.06-10.37-21.58-21.48-32.23-32.14-.49-.48-1.71-2.09-2.51-2a18.932 18.932 0 0 0-3.56 1.83 158.52 158.52 0 0 0-22.42 15.4 234.015 234.015 0 0 0-22.71 20.59 202.385 202.385 0 0 0-19.43 23.86c-3 4.24-6 8.41-9.14 12.51C90.7 84 85.49 93.1 79.77 101.81c-2.84 4.34-6.06 8.42-9 12.6a181.51 181.51 0 0 1-9.43 12.22c-3.3 3.93-6.74 7.67-10 11.64-1.62 2-3.47 3.68-5.2 5.58s-3.7 3.5-5.57 5.3A123.227 123.227 0 0 1 28.68 159c-4.07 3-8 6.54-12.41 9.24-4.63 2.76-9.6 4.76-14.72 6.88a34.73 34.73 0 0 0 4.23 4.43l4.43 4.45c7.36 7.36 15 14.65 22 22.23a27.554 27.554 0 0 0 4.52 4.32C61.33 198.91 80 181.46 96 161.46c3.24-4 6.75-7.83 9.52-12.12 2.77-4.29 5.94-8.49 9-12.7 9.07-12.68 17.15-26.25 26.27-38.78A231.355 231.355 0 0 1 183 53.41a142.63 142.63 0 0 1 26.75-16.65c.11-.49-.49-.76-.75-1.06z" clip-rule="evenodd" fill-rule="evenodd" data-color="1"/>
            <path fill="#DFAA3C" d="M175.71 2.6c.43.25 2.06 2 2.12 2.7A1.68 1.68 0 0 1 176 7c-.83 0-1.31-.83-1.83-1.35-.52-.52-1.37-.9-1.45-1.64-.17-1.57 1.87-2.01 2.99-1.41zm-1.64 1.16a5.65 5.65 0 0 0 2.12 2.11c.1-.13.32-.12.39-.28-.53-.78-1.58-2.44-2.51-1.83z" clip-rule="evenodd" fill-rule="evenodd" data-color="1"/>
            <path fill="#DFAA3C" d="M168.39 5.68c1.33-.33 3.64 1.94 3.66 2.69a1.712 1.712 0 0 1-2.4 1.54c-.73-.24-2.45-1.88-2.51-2.69a1.52 1.52 0 0 1 1.25-1.54zm0 1.25c.55.75 1.27 2.2 2.41 1.73-.54-.75-1.36-2.09-2.41-1.73z" clip-rule="evenodd" fill-rule="evenodd" data-color="1"/>
            <path fill="#DFAA3C" d="M161.56 11c.24-1.44.69-2.54 2.31-2.11a5.15 5.15 0 0 1 2.5 2.5 1.717 1.717 0 0 1-.449 1.49 1.705 1.705 0 0 1-1.471.51c-1.45-.09-1.95-1.59-2.89-2.39zm3.08-.09c-.43-.53-1.78-1.49-1.73-.29 0 .31 1.66 2.35 2.12 1.35-.51.03-.37-.62-.39-1.09v.03z" clip-rule="evenodd" fill-rule="evenodd" data-color="1"/>
            <path fill="#DFAA3C" d="M176.29 9.53c1.931-.15 3.87.144 5.67.86 1.33.65 3.44 3.3 4.62 4.43 3.36 3.24 5.61 5.61 9 9.05 1.44 1.44 3.63 3 4.42 4.62 2.08 4.22-2.23 6.69-5.1 8.18a98.66 98.66 0 0 0-13.9 8.56c-2 1.47-4.28 3.86-6.54 4.62a9.88 9.88 0 0 1-5.1.09c-1.62-.55-3.55-3.27-4.81-4.42-4.09-3.73-7.74-7.36-11.74-11.36a12.233 12.233 0 0 1-2.22-2.4 8.576 8.576 0 0 1 .2-5.49c.91-2.07 2.89-3.47 4.9-4.91 3.49-2.47 8-5.44 11.84-7.79 2.65-1.64 5.01-3.66 8.76-4.04zm-2.51 1.93A51.77 51.77 0 0 0 168 15c-3.66 2.24-7.75 4.87-11.26 7.41-1.91 1.39-3.85 2.73-4.61 4.72a6.159 6.159 0 0 0-.2 3.85c.23.65 1.47 1.56 2.12 2.21 4.48 4.48 8.76 8.57 13 13.18a10.01 10.01 0 0 0 2.32 2.12 9.23 9.23 0 0 0 4.52-.1c2.21-.71 4.33-3 6.25-4.42a82.896 82.896 0 0 1 13.28-8.09c1.84-.89 5.64-2.5 6-4.81.37-2.62-2.63-4.31-3.95-5.58-4.47-4.26-7.97-7.49-12.26-11.82-.707-.89-1.512-1.7-2.4-2.41a10.49 10.49 0 0 0-7 .2h-.03z" clip-rule="evenodd" fill-rule="evenodd" data-color="1"/>
            <path fill="#DFAA3C" d="M157.52 12.51a2 2 0 0 1 1.15 0 6.763 6.763 0 0 1 2.22 2.41c.26 1.42-1.24 2.21-2.4 1.92a5.927 5.927 0 0 1-2.31-2.21 1.636 1.636 0 0 1 .676-1.874c.201-.13.427-.213.664-.246zm-.19 1.64c.67.5 1.16 1.94 2.31 1.35-.23-.91-1.71-2.61-2.31-1.35z" clip-rule="evenodd" fill-rule="evenodd" data-color="1"/>
            <path fill="#DFAA3C" d="M153.19 16.17c.64.91 2.17 1.33 2.41 2.4a1.742 1.742 0 0 1-2 2.12 6.218 6.218 0 0 1-2.7-2.12c-.42-1.1.42-2.57 2.29-2.4zM152 18c.48.49 1.8 2.3 2.4.86-.63-.38-1.8-2.42-2.4-.86z" clip-rule="evenodd" fill-rule="evenodd" data-color="1"/>
            <path fill="#DFAA3C" d="M147.61 20.21c.76-.07 2.95 1.77 3.08 2.79a1.659 1.659 0 0 1-.398 1.354 1.67 1.67 0 0 1-1.292.566 5.53 5.53 0 0 1-2.7-2.21 1.731 1.731 0 0 1 1.31-2.5zm1.64 3.47c.073-.146.171-.278.29-.39a5 5 0 0 0-1.93-1.93c-.48 1.08.67 2.06 1.64 2.32z" clip-rule="evenodd" fill-rule="evenodd" data-color="1"/>
            <path fill="#DFAA3C" d="M142.61 24.35c1-.19 1.27.31 2 1.06.46.46 1.36 1.12 1.44 1.53a1.818 1.818 0 0 1-2.41 1.93 6.45 6.45 0 0 1-2.4-2.5 1.613 1.613 0 0 1-.038-.688 1.613 1.613 0 0 1 .755-1.113c.199-.12.422-.194.653-.219zm-.1 1.73c0 .45 1.57 2.25 2.31 1.25-.03-.23-2.39-3.04-2.31-1.25z" clip-rule="evenodd" fill-rule="evenodd" data-color="1"/>
            <path fill="#DFAA3C" d="M137.7 28.49c.417-.091.851-.06 1.25.09a7.936 7.936 0 0 1 2.12 2.31 2.007 2.007 0 0 1-1.072 2.204c-.264.13-.554.2-.848.206a5.6 5.6 0 0 1-3-2.6 1.752 1.752 0 0 1 .259-1.467 1.763 1.763 0 0 1 1.291-.743zm1.54 3.56c2-.11-1.76-4-1.93-1.73.53.24 1.16 1.77 1.93 1.73z" clip-rule="evenodd" fill-rule="evenodd" data-color="1"/>
            <path fill="#DFAA3C" d="M131.83 35.51c.1-1.38.42-2.54 1.64-2.6.88 0 1.38.64 1.82 1.06.44.42 1.23.85 1.35 1.44a1.896 1.896 0 0 1-1.105 2.052 1.89 1.89 0 0 1-.815.158c-1.31-.03-1.96-1.62-2.89-2.11zm1.73-1.35c-1.34.27 1.2 3.34 1.83 1.73-.15-.27-1.23-1.89-1.83-1.73z" clip-rule="evenodd" fill-rule="evenodd" data-color="1"/>
            <path fill="#DFAA3C" d="M204.67 33.1c1.09-.3 1.57.39 2.41 1.16.49.45 1.36 1.06 1.44 1.44a1.54 1.54 0 0 1-.022.763 1.54 1.54 0 0 1-1.045 1.045 1.54 1.54 0 0 1-.763.022 6.431 6.431 0 0 1-3.08-2.6 1.542 1.542 0 0 1 1.06-1.83zm2.7 3.08a6.265 6.265 0 0 0-2.37-1.92c.09.65 1.57 2.37 2.37 1.92z" clip-rule="evenodd" fill-rule="evenodd" data-color="1"/>
            <path fill="#DFAA3C" d="M143.48 33.58a9.511 9.511 0 0 1 3.36.2c1.88.65 3.64 3 5 4.42 3.85 3.86 8 7.71 11.93 11.65 1.14 1.15 2.67 2.29 2.79 4.52.18 3.54-2.61 5.93-4.62 8-3.42 3.5-6.72 7.23-10 11-1.54 1.76-3.28 4.1-5.19 5.2a8.14 8.14 0 0 1-5.11 1c-1.75-.39-4-3.33-5.19-4.52-1.76-1.75-3.26-3-5-4.62-1.74-1.62-3-3.26-4.81-4.9-1.81-1.64-4-3.16-4.62-5-1.69-5 2.43-8.78 4.62-11.35 3-3.53 6-7.18 9.33-10.68 1.85-2.05 4.16-4.57 7.51-4.92zm-7.7 7.22c-2.88 3.16-5.43 6.1-8.18 9.33a25.534 25.534 0 0 0-3.76 5 8.546 8.546 0 0 0-.38 4.81c.34.94 1.28 1.57 2.11 2.4L137 73.81c1.3 1.3 3.11 3.82 5 4.23 3.09.67 5.13-1.66 6.54-3.27 2.44-2.79 4.54-5.35 7-8 2.46-2.65 5.19-4.92 7.41-7.6 1.15-1.39 2.57-2.76 1.92-5.39-.48-2-2.56-3.57-4-4.9-4.1-4-7.52-7.25-11.35-10.78-1.66-1.53-3.2-3.29-6.15-2.89-3.68.53-5.53 3.33-7.59 5.59z" clip-rule="evenodd" fill-rule="evenodd" data-color="1"/>
            <path fill="#DFAA3C" d="M199.09 36.09c.92-.15 1.43.38 2.12 1.06.526.431 1.009.913 1.44 1.44a2.001 2.001 0 0 1-1.35 2.31c-1.05.15-3.46-2.08-3.56-3.18a1.423 1.423 0 0 1 .775-1.484c.18-.089.375-.138.575-.146zm-.1 1.34a3.567 3.567 0 0 0 2.31 2.12c.32-.55-1.38-2.55-2.3-2.12h-.01z" clip-rule="evenodd" fill-rule="evenodd" data-color="1"/>
            <path fill="#DFAA3C" d="M129.14 37.53a5.823 5.823 0 0 1 3.08 2.4 1.99 1.99 0 0 1-1.153 2.144c-.266.12-.555.18-.847.176a6.332 6.332 0 0 1-2.5-2.12 1.806 1.806 0 0 1 .613-2.304 1.81 1.81 0 0 1 .807-.296zm-.1 1.25c-.4 1.21.73 1.7 1.35 2.22a1.135 1.135 0 0 0 .67-.68c-.77-.42-.94-1.43-2.06-1.54h.04z" clip-rule="evenodd" fill-rule="evenodd" data-color="1"/>
            <path fill="#DFAA3C" d="M193.41 39.17c.92-.19 1.51.36 2.22 1.15.53.59 1.29 1.31 1.34 1.93a1.478 1.478 0 0 1-1.54 1.75c-.71 0-3.22-1.86-3.27-3.27a1.422 1.422 0 0 1 1.25-1.56zm.29 1.15h-.19c-.35.72 1.57 2.75 2.31 2.31a5.84 5.84 0 0 0-2.12-2.31z" clip-rule="evenodd" fill-rule="evenodd" data-color="1"/>
            <path fill="#DFAA3C" d="M124.61 42.15c1-.17 3 1.65 3.18 2.79a1.666 1.666 0 0 1-.361 1.494A1.675 1.675 0 0 1 126 47c-.66-.05-2.67-1.62-2.79-2.69a1.747 1.747 0 0 1 .23-1.384 1.772 1.772 0 0 1 1.17-.776zm0 1.15c-.69 1.26 1 2.12 1.54 2.41 1.23-.85-.76-2.03-1.54-2.41z" clip-rule="evenodd" fill-rule="evenodd" data-color="1"/>
            <path fill="#DFAA3C" d="M188.12 42.82c1-.18 1.27.43 2 1.25.49.54 1.36 1.11 1.45 1.64a1.704 1.704 0 0 1-.764 1.572 1.697 1.697 0 0 1-1.746.068 17.505 17.505 0 0 1-1.35-1.45c-.88-.9-1.59-2.72.41-3.08zm.1 1.16c0 .15-.25.07-.2.29.61.71 1.18 2.36 2.41 1.82a7.005 7.005 0 0 0-2.21-2.09v-.02z" clip-rule="evenodd" fill-rule="evenodd" data-color="1"/>
            <path fill="#DFAA3C" d="M182.63 46.67a2.08 2.08 0 0 1 1.06.1 8.711 8.711 0 0 1 2.51 2.6 1.584 1.584 0 0 1-.993 1.835 1.578 1.578 0 0 1-.747.085c-.59-.07-3.06-2.14-3.17-3a1.518 1.518 0 0 1 1.34-1.62zm-.09 1.25c.62.83 1.33 2.07 2.41 2.12.05-.65-1.65-2.47-2.41-2.12z" clip-rule="evenodd" fill-rule="evenodd" data-color="1"/>
            <path fill="#DFAA3C" d="M119.32 49.65c-.24-1.78.63-2.66 1.45-2.69.82-.03 4.22 2.94 2.5 4.43-1.44 1.23-3.13-.78-3.95-1.74zm3.27.58a4.64 4.64 0 0 0-1.82-2c-.77.9.89 2.82 1.82 2z" clip-rule="evenodd" fill-rule="evenodd" data-color="1"/>
            <path fill="#DFAA3C" d="M177.83 50.62c1.14-.17 3.37 1.94 3.46 3a1.653 1.653 0 0 1-.967 1.687 1.65 1.65 0 0 1-.673.143c-.89 0-3.19-1.85-3.27-3a1.501 1.501 0 0 1 .009-.66 1.517 1.517 0 0 1 1.441-1.17zm-.2 1.63c-.16.73 1.51 1.47 1.93 2 .24-.13.54-.22.57-.57-.28-.29-2.2-2.74-2.5-1.43z" clip-rule="evenodd" fill-rule="evenodd" data-color="1"/>
            <path fill="#DFAA3C" d="M116.44 52c.93-.2 1.35.22 2.11 1.06.433.408.822.86 1.16 1.35a1.914 1.914 0 0 1-.959 2.296 1.91 1.91 0 0 1-.871.204c-.66 0-2.74-1.74-2.89-2.7a1.837 1.837 0 0 1 .26-1.41 1.856 1.856 0 0 1 1.19-.8zm-.2 1.93c.07.75 1.16 1.16 1.83 1.73 1.63-.54-2.01-3.96-1.83-1.77v.04z" clip-rule="evenodd" fill-rule="evenodd" data-color="1"/>
            <path fill="#DFAA3C" d="M172.82 54.85c1.36-.33 3.79 1.76 3.66 3.17a1.86 1.86 0 0 1-2.12 1.45c-1.14-.22-4.44-3.92-1.54-4.62zm.1 1.54c.57.55 1.44 2.53 2.4 1.44-.51-.6-1.58-2.39-2.4-1.44z" clip-rule="evenodd" fill-rule="evenodd" data-color="1"/>
            <path fill="#DFAA3C" d="M112.3 57.06c1.29-.38 3.28 1.41 3.46 2.51a1.727 1.727 0 0 1-.216 1.344 1.718 1.718 0 0 1-1.124.766c-.8.1-3-1.5-3.18-2.31a1.705 1.705 0 0 1 .44-1.962 1.71 1.71 0 0 1 .62-.348zm.48 1.16c-.81 1 .77 1.87 1.44 2.31.97-.91-.62-1.98-1.44-2.31z" clip-rule="evenodd" fill-rule="evenodd" data-color="1"/>
            <path fill="#DFAA3C" d="M168.3 59c1.16-.18 3.42 2.1 3.46 3.08a1.631 1.631 0 0 1-1.82 1.63c-.53-.06-2.85-2-3-2.79a1.472 1.472 0 0 1 .205-1.296A1.478 1.478 0 0 1 168.3 59zm.19 1.06c-.15.13-.33.24-.38.48.76.56 1.41 2.11 2.4 1.82a5.49 5.49 0 0 0-2.02-2.31v.01z" clip-rule="evenodd" fill-rule="evenodd" data-color="1"/>
            <path fill="#DFAA3C" d="M108.64 62.07c.79-.1 1.06.29 1.83 1.06.45.45 1.26 1.06 1.35 1.44a1.992 1.992 0 0 1-.267 1.523 2.005 2.005 0 0 1-1.273.877c-1 0-4-2.58-2.79-4.33a1.554 1.554 0 0 1 1.15-.57zm1.54 3.66c1.18-.93-.74-2-1.44-2.51-.61 1.2.85 1.87 1.44 2.51z" clip-rule="evenodd" fill-rule="evenodd" data-color="1"/>
            <path fill="#DFAA3C" d="M164.74 63.51c.63 1.14 2.29 1.58 2.5 2.69a1.755 1.755 0 0 1-.473 1.468 1.756 1.756 0 0 1-1.447.532c-.66-.1-2.92-2.24-3-3-.1-1.15.91-1.88 2.42-1.69zm-1.06 1.25c0 .08 0 .19-.1.19.68.77 1.16 1.73 2.32 2 .21-.76-1.56-2.47-2.22-2.19z" clip-rule="evenodd" fill-rule="evenodd" data-color="1"/>
            <path fill="#DFAA3C" d="M116.24 63.9c4.5-.68 7 2.65 9.33 5 3.55 3.54 6.36 6.19 9.92 10.1 1.74 1.91 4.38 4.8 3.56 8.76-.45 2.17-2.84 5.41-4 7.12-3 4.3-6.24 8-9.44 12.7-1.44 2.13-3 5.37-5.29 5.77-2.29.4-3.53-.83-4.9-1.82-4.66-3.39-9-8.58-13-12.61-1.61-1.61-3.92-3.57-4.71-5.49a9.361 9.361 0 0 1-.49-4.71c.22-1 1.25-2.09 2-3.18 4.49-6.31 8.33-11.94 12.9-18.18 1.25-1.73 1.76-3.11 4.12-3.46zm-15.59 22.32c-.77 1.1-1.69 2-1.92 3-.92 4.09 2.31 6.26 4.33 8.28 3.12 3.12 5.86 6 8.76 8.94 1.3 1.31 3.11 3.45 4.62 4.33a7.185 7.185 0 0 0 3.56 1.06c1-.12 2.11-1.62 2.69-2.5 2.2-3.32 4.32-6.39 6.54-9.33 2.22-2.94 4.71-5.76 6.83-9a11.34 11.34 0 0 0 1.83-3.46c.67-3.52-2-6-3.75-7.8-3.28-3.27-6.42-6.51-9.43-9.52-2.49-2.49-5.53-6.38-10.1-4.23-4.69 6.65-9.21 13.54-13.96 20.23z" clip-rule="evenodd" fill-rule="evenodd" data-color="1"/>
            <path fill="#DFAA3C" d="M104.89 67.36a4.07 4.07 0 0 1 3.18 2.21 1.903 1.903 0 0 1-1.018 2.347 1.9 1.9 0 0 1-.912.163 5.188 5.188 0 0 1-2.6-2.31 1.755 1.755 0 0 1 .086-1.535 1.75 1.75 0 0 1 1.264-.875zm.19 1.15c-.7.86.38 2.09 1.44 2.31.32-.13.43-.46.39-1-.62-.4-.98-1.09-1.83-1.31z" clip-rule="evenodd" fill-rule="evenodd" data-color="1"/>
            <path fill="#DFAA3C" d="M160.12 67.84c.35.64 2.44 1.85 2.6 2.79a1.885 1.885 0 0 1-1.097 1.832c-.231.105-.48.162-.733.168-.85 0-3-2.12-3.08-3.08-.08-.96.71-1.81 2.31-1.71zm-1.06 1.44a4.662 4.662 0 0 0 2 2.12c.19-.14.43-.21.39-.58-.79-.39-1.45-2.22-2.39-1.54z" clip-rule="evenodd" fill-rule="evenodd" data-color="1"/>
            <path fill="#DFAA3C" d="M101.23 72.55c.89-.15 3 1.6 3.18 2.6a1.802 1.802 0 0 1-1.64 2.21A5.101 5.101 0 0 1 99.88 75a1.74 1.74 0 0 1 1.35-2.45zm2 3c0-.6-1.67-1.89-1.82-1.83-1.28.5 1.78 3.61 1.84 1.82l-.02.01z" clip-rule="evenodd" fill-rule="evenodd" data-color="1"/>
            <path fill="#DFAA3C" d="M154.54 72.55a1.09 1.09 0 0 1 .58-.09 6.676 6.676 0 0 1 3.08 2.89 1.718 1.718 0 0 1-2 1.82c-.57-.1-2.72-2-2.8-2.79a1.755 1.755 0 0 1 1.14-1.83zm.29 1.16c0 .19-.27.12-.2.39a5.988 5.988 0 0 0 2 1.92.515.515 0 0 1 .29-.29 4.74 4.74 0 0 0-2.09-2.02z" clip-rule="evenodd" fill-rule="evenodd" data-color="1"/>
            <path fill="#DFAA3C" d="M150.21 77.17c1.08-.35 1.59.54 2.21 1.16.62.62 1.45 1.22 1.54 1.73a1.784 1.784 0 0 1-1.01 1.832 1.778 1.778 0 0 1-.72.168 6.596 6.596 0 0 1-3.08-2.89 1.79 1.79 0 0 1 1.06-2zm2.31 3.66a.457.457 0 0 1 .29-.29c-.46-1.05-1.51-1.5-2.22-2.31-.48 1.26 1.12 2 1.93 2.6z" clip-rule="evenodd" fill-rule="evenodd" data-color="1"/>
            <path fill="#DFAA3C" d="M96.13 80.25c-.35-1.71.48-2.68 1.73-2.5 1.2.54 2.16 1.5 2.7 2.7a1.884 1.884 0 0 1-2 2.11c-1.09-.16-1.65-1.96-2.43-2.31zm2.7 1.06a.8.8 0 0 0 .58-.67A7.281 7.281 0 0 0 97.48 79c-.54 1.07.8 1.71 1.35 2.31z" clip-rule="evenodd" fill-rule="evenodd" data-color="1"/>
            <path fill="#DFAA3C" d="M146 81.79c1.11-.23 1.65.49 2.51 1.35a5.4 5.4 0 0 1 1.25 1.54 1.762 1.762 0 0 1-1.93 2.12c-.57-.08-1.54-1.09-1.92-1.45-.91-.84-2.29-3.06.09-3.56zm1.61 2.21c-.43-.42-1-1.24-1.73-.87a3.853 3.853 0 0 0 2.5 2.4c.51-.53-.38-1.14-.77-1.53z" clip-rule="evenodd" fill-rule="evenodd" data-color="1"/>
            <path fill="#DFAA3C" d="M93.53 83.23c.248-.08.51-.11.77-.09a5.16 5.16 0 0 1 2.51 2.69 1.76 1.76 0 0 1-1.64 2c-.86.05-2.83-1.7-3-2.4a1.77 1.77 0 0 1 1.36-2.2zm-.09 1.83c0 .61 1.23 1.33 1.64 1.54.36 0 .43-.27.58-.48-.31-.8-2.36-2.62-2.22-1.06z" clip-rule="evenodd" fill-rule="evenodd" data-color="1"/>
            <path fill="#DFAA3C" d="M145.88 89.68a2.498 2.498 0 0 1-2.11 2.32c-.64-.94-2.87-1.92-3.19-3.17a1.874 1.874 0 0 1 .335-1.71 1.887 1.887 0 0 1 1.595-.7c1.33.19 2.37 2.58 3.37 3.26zm-3.95-2c-.29 1.34 1.33 2.2 2.22 3 .06-.2.29-.22.38-.39a5.56 5.56 0 0 0-2.6-2.63v.02z" clip-rule="evenodd" fill-rule="evenodd" data-color="1"/>
            <path fill="#DFAA3C" d="M89.88 88.43c.82-.22 2.71 1 3.08 2.12a1.78 1.78 0 0 1-1.83 2.5 5.86 5.86 0 0 1-2.41-2.21 1.94 1.94 0 0 1 1.16-2.41zm1.63 3.46c1.08-1-.67-1.78-1.25-2.31-.58 1.07.55 1.92 1.25 2.31z" clip-rule="evenodd" fill-rule="evenodd" data-color="1"/>
            <path fill="#DFAA3C" d="M138.66 92.18c.7-.07 1.31.55 2 1.25.47.47 1.31 1.28 1.35 1.74a1.852 1.852 0 0 1-1.73 1.92c-.57 0-3.58-2.45-2.89-4.13a1.446 1.446 0 0 1 1.27-.78zm-.09 1.64c.65.61 1.1 1.9 2.11 1.83 0-1.06-1.25-1.63-2-2.22-.05.14-.15.19-.11.39z" clip-rule="evenodd" fill-rule="evenodd" data-color="1"/>
            <path fill="#DFAA3C" d="M86.8 93.63c.6 0 2.66 1.49 2.79 2.5a2.14 2.14 0 0 1-1.83 2.31 4.86 4.86 0 0 1-2.69-2.31 1.79 1.79 0 0 1 1.73-2.5zm-.29 1.15c-1 .43.66 2.31 1.25 2.41a1.79 1.79 0 0 0 .67-.77c-.29-.34-1.3-1.91-1.92-1.64z" clip-rule="evenodd" fill-rule="evenodd" data-color="1"/>
            <path fill="#DFAA3C" d="M134.53 97.09c1.15-.24 1.43.39 2.3 1.35.45.48 1.25 1.15 1.35 1.54a1.843 1.843 0 0 1-1.032 2.041c-.25.115-.523.173-.798.169-1.17-.1-5.2-4.39-1.82-5.1zm.38 1.16c-.12.14-.37.14-.48.28a4.817 4.817 0 0 0 2.21 2.41c0-.08.08-.11.19-.1.17-1.3-1.32-1.75-1.92-2.59z" clip-rule="evenodd" fill-rule="evenodd" data-color="1"/>
            <path fill="#DFAA3C" d="M92.57 98.34c3.55-.52 5.75 2.57 7.6 4.33 3.28 3.1 6.41 6.22 9.53 9.34 1.68 1.67 3.6 2.88 4.62 4.8a9.397 9.397 0 0 1 .19 7.13 22.516 22.516 0 0 1-2.21 2.88c-4.26 5.91-8.28 11.47-12.7 17.52a8.101 8.101 0 0 1-2.41 2.59 6.72 6.72 0 0 1-4.62-.19c-1.7-.77-3.29-3.08-4.9-4.52-4.2-3.75-8-7.33-12.13-11.45-1.72-1.72-3.19-3.05-3-6.64.14-2.47 1.65-3.65 2.88-5.39 3.93-5.51 7.83-10.94 11.84-16.36 1.37-1.83 2.58-3.64 5.31-4.04zm-4.71 5.77c-2 2.73-3.8 5.2-5.78 8-1.14 1.63-2.42 3.37-3.84 5.29s-3.11 3.86-3.56 5.58a9.31 9.31 0 0 0 .47 5.11c.8 1.58 2.89 2.88 4.34 4.33l8.75 8.75c1.52 1.51 3 3.48 4.62 4.14 3.16 1.27 4.62-.59 6-2.41 3.56-4.78 6.75-9.23 10.29-13.85 1.33-1.74 3.37-3.79 4-5.68a8 8 0 0 0-.48-6 16.588 16.588 0 0 0-4.14-4.81c-3.4-2.89-6.18-5.58-9.33-8.66-1.39-1.36-3.7-4.57-6.35-4.14-2.45.43-3.74 2.68-4.99 4.35z" clip-rule="evenodd" fill-rule="evenodd" data-color="1"/>
            <path fill="#DFAA3C" d="M81.5 101.52c-.16-2 .88-2.79 2.13-2.5a5.21 5.21 0 0 1 2.3 2.5 2 2 0 0 1-1.34 2c-1.66.38-2.08-1.44-3.09-2zm1.16-.68c0 .64 1.08 1 1.54 1.54a1.091 1.091 0 0 0 .58-.77c-.46-.61-2.17-2.13-2.12-.77z" clip-rule="evenodd" fill-rule="evenodd" data-color="1"/>
            <path fill="#DFAA3C" d="M130.68 102.29c1-.18 1.27.4 2.11 1.25.6.6 1.37 1.16 1.45 1.73a1.88 1.88 0 0 1-1.54 2.12c-.67 0-3.14-2.27-3.27-3.18a1.477 1.477 0 0 1 .17-1.256c.12-.184.279-.339.465-.454.187-.114.397-.186.615-.21zm.86 2.69c.36.39 1.5 1.84 1.54.58 0-.59-1.75-1.71-2.21-2.21-.17.06-.16.29-.29.38.17.54.49.74.96 1.27v-.02z" clip-rule="evenodd" fill-rule="evenodd" data-color="1"/>
            <path fill="#DFAA3C" d="M78.91 104.4c1.12-.29 3.15 1.32 3.27 2.41a1.796 1.796 0 0 1-1.302 1.881 1.797 1.797 0 0 1-.818.039 5.278 5.278 0 0 1-2.21-2.11c-.29-1.15.15-1.98 1.06-2.22zm.19 1.93c.07.49 1 .93 1.44 1.25a2.49 2.49 0 0 0 .49-.48c-.25-.75-2.16-2.37-1.93-.77z" clip-rule="evenodd" fill-rule="evenodd" data-color="1"/>
            <path fill="#DFAA3C" d="M127.12 107.49c.91-.22 1.38.62 2.21 1.44.65.64 1.39 1.28 1.44 1.82a1.807 1.807 0 0 1-1.034 1.758 1.789 1.789 0 0 1-.696.172 7.937 7.937 0 0 1-3-2.69 1.808 1.808 0 0 1-.022-1.493 1.826 1.826 0 0 1 1.102-1.007zm2.21 3.94c.39-1.28-1.41-1.89-2-2.79-.46 1.36 1.15 2.11 2 2.79z" clip-rule="evenodd" fill-rule="evenodd" data-color="1"/>
            <path fill="#DFAA3C" d="M74.1 112.1c-.31-1.55.55-2.7 1.54-2.69.74 0 2.64 1.61 2.69 2.69a1.881 1.881 0 0 1-1.16 1.83c-1.68.44-2.09-1.3-3.07-1.83zm1.15-.57c.52.4.84 1 1.54 1.24 1.04-.77-1.63-3.2-1.54-1.24z" clip-rule="evenodd" fill-rule="evenodd" data-color="1"/>
            <path fill="#DFAA3C" d="M123.27 113c0-.07.38-.17.77-.1.94.17 3.08 2.57 3.17 3.08a1.803 1.803 0 0 1-1.54 2.12c-.54 0-3.14-2.28-3.36-2.89a1.78 1.78 0 0 1 .96-2.21zm2.5 3.84c.64-1.2-1.43-2-2.12-2.78-.35 1.22 1.35 1.94 2.12 2.75v.03z" clip-rule="evenodd" fill-rule="evenodd" data-color="1"/>
            <path fill="#DFAA3C" d="M71.4 114.79c.28-.09.577-.12.87-.09a5.2 5.2 0 0 1 2.41 2.69 1.76 1.76 0 0 1-1.93 1.73 5.117 5.117 0 0 1-2.4-2.21 1.72 1.72 0 0 1 1.05-2.12zm2 2.89a3.223 3.223 0 0 0-1.73-1.82c-.29 1.08 1.02 2.37 1.75 1.82h-.02z" clip-rule="evenodd" fill-rule="evenodd" data-color="1"/>
            <path fill="#DFAA3C" d="M119.61 117.88c1-.18 4 2.61 4 3.84a1.682 1.682 0 0 1-.554 1.318 1.69 1.69 0 0 1-1.366.422 9.476 9.476 0 0 1-3.37-3.18c-.38-1.28.19-2.22 1.29-2.4zm2.5 4.42c.11-.21.32-.32.39-.58a9.518 9.518 0 0 0-2.89-2.69c-.34 1.32 1.85 2.75 2.5 3.27z" clip-rule="evenodd" fill-rule="evenodd" data-color="1"/>
            <path fill="#DFAA3C" d="M67.85 119.9a.734.734 0 0 1 .38-.1 4.817 4.817 0 0 1 2.5 2.6 1.65 1.65 0 0 1-1.44 1.83c-.83 0-2.69-1.75-2.79-2.31a1.62 1.62 0 0 1 1.35-2.02zm1.44 3.1c.37-.78-.71-1.62-1.44-1.92-.24.98.76 1.49 1.44 1.92z" clip-rule="evenodd" fill-rule="evenodd" data-color="1"/>
            <path fill="#DFAA3C" d="M116.44 123.46c.85-.08 1.19.65 2 1.53.6.65 1.45 1.24 1.54 1.83a1.699 1.699 0 0 1-.363 1.375 1.7 1.7 0 0 1-1.277.625 8.005 8.005 0 0 1-3.27-3.17c-.33-1.35.35-2.11 1.37-2.19zm2.11 4.13c.67-1.23-1.44-1.87-1.92-2.88-.12 0-.14-.13-.29-.1.15 1.58 1.3 2.16 2.21 2.98z" clip-rule="evenodd" fill-rule="evenodd" data-color="1"/>
            <path fill="#DFAA3C" d="M64 124.9a4.114 4.114 0 0 1 2.69 2.5 1.728 1.728 0 0 1-2 2 5.39 5.39 0 0 1-2.4-2.21A1.75 1.75 0 0 1 64 124.9zm1 3.37c.16-.16.48-.16.57-.39-.28-.93-1.08-1.36-1.83-1.82-.63 1.06.6 1.73 1.26 2.21z" clip-rule="evenodd" fill-rule="evenodd" data-color="1"/>
            <path fill="#DFAA3C" d="M113.36 128.84c.64 0 1.13.82 1.82 1.55.49.5 1.29 1.23 1.35 1.73.067.265.064.544-.008.808a1.59 1.59 0 0 1-.406.698 1.58 1.58 0 0 1-1.506.414c-.73-.13-2.87-2.38-3-2.89a1.78 1.78 0 0 1-.06-.839 1.76 1.76 0 0 1 .987-1.301 1.77 1.77 0 0 1 .823-.17zm1.73 4c.61-1.23-1.28-2.1-2-2.89-.53 1.47 1.15 2.24 2 2.94v-.05z" clip-rule="evenodd" fill-rule="evenodd" data-color="1"/>
            <path fill="#DFAA3C" d="M59.47 129.9c.278-.103.577-.134.87-.09.72.16 2.42 1.91 2.31 3.08a1.628 1.628 0 0 1-1.83 1.44 5.36 5.36 0 0 1-2.6-2.31 1.62 1.62 0 0 1 1.25-2.12zm0 1.25a2.06 2.06 0 0 0 1.83 1.93c.32-1.08-1-2.26-1.83-1.93z" clip-rule="evenodd" fill-rule="evenodd" data-color="1"/>
            <path fill="#DFAA3C" d="M67.75 131.63c4-.15 6.53 3.38 8.66 5.59 3.14 3.26 6.36 6.07 9.62 9.62 2.1 2.28 4.7 4.4 4.23 8.08-.33 2.59-2.64 4.85-4.13 6.64a128.682 128.682 0 0 1-13 13.95c-2.07 1.85-4.43 3.26-8.17 1.54-2-.92-3.72-2.85-5.3-4.43-3-3-6.41-6.6-9.52-9.71-1.54-1.55-3.52-3.52-4.14-5.49-1.38-4.4 2.51-6.35 4.91-8.76 1.84-1.83 3.71-3.8 5.1-5.38 2.32-2.65 4.75-5.67 7.12-8.66 1.31-1.62 1.97-2.88 4.62-2.99zm11.93 35.22c1.39-1.64 2.94-3.4 4.52-5.29 1.33-1.59 3.54-3.81 4.14-5.68a7.41 7.41 0 0 0 0-3.94c-.52-1.54-2.74-3.6-4-4.91-3.16-3.15-6.13-5.83-9.15-8.85-1.93-1.94-3.87-5.37-7.6-5.1-1.75.12-2.63 1.61-3.55 2.79-3.6 4.59-7.25 9.34-11.46 13.09-1.57 1.4-4 3.19-4.81 5-1.51 3.4 1.56 5.94 3.47 7.89 3.34 3.42 6.11 6.49 9.33 9.72 2.27 2.27 4.49 5.35 9.24 5 3.97-2.82 6.75-6.03 9.87-9.72z" clip-rule="evenodd" fill-rule="evenodd" data-color="1"/>
            <path fill="#DFAA3C" d="M54.18 137c-.14-1.87.45-2.85 1.64-2.79.74 0 2.84 2.31 2.88 3.08a1.93 1.93 0 0 1-1.7 1.95c-1.3.01-2.15-1.68-2.82-2.24zm3.37.39a10.005 10.005 0 0 0-2-1.93c-.68 1.2 1.28 3.34 2 1.95v-.02z" clip-rule="evenodd" fill-rule="evenodd" data-color="1"/>
            <path fill="#DFAA3C" d="M108.93 134.43c1.31-.38 1.77.59 2.6 1.44a4.001 4.001 0 0 1 1.25 1.82 1.7 1.7 0 0 1-2 1.83 9.846 9.846 0 0 1-3-3 1.802 1.802 0 0 1 1.15-2.09zm1 2.69c.39.41.8 1.28 1.54 1.15.28-1.24-1.33-2.08-2.21-2.79-.57.72.23 1.22.63 1.64h.04z" clip-rule="evenodd" fill-rule="evenodd" data-color="1"/>
            <path fill="#DFAA3C" d="M51.39 139.52c1-.18 3.08 1.54 3.18 2.6a1.78 1.78 0 0 1-1.74 1.88 5.417 5.417 0 0 1-2.83-2.46 1.55 1.55 0 0 1 1.39-2.02zm-.19 1.74c.66.33 1.47 2.19 2.21 1-.61-.43-1.64-2.36-2.21-1z" clip-rule="evenodd" fill-rule="evenodd" data-color="1"/>
            <path fill="#DFAA3C" d="M105.56 139.52c.293-.048.595-.014.87.1a9.002 9.002 0 0 1 2.5 2.79 1.766 1.766 0 0 1-.944 2.039 1.763 1.763 0 0 1-.786.171c-.64-.05-2.91-2-3.08-2.88a1.697 1.697 0 0 1 .728-1.979c.216-.132.459-.215.712-.241zm.29 1.16h-.29c-.8 1 1.52 2.64 2 2.6.51-1.2-1.28-1.69-1.71-2.6z" clip-rule="evenodd" fill-rule="evenodd" data-color="1"/>
            <path fill="#DFAA3C" d="M45.42 146.55c-.25-1.65.58-3.07 2.22-2.7a8.006 8.006 0 0 1 2.4 2.51 1.769 1.769 0 0 1-2.11 2.21c-1.15-.15-1.8-1.57-2.51-2.02zm3.47.09c0-.42-2.6-2.75-2.31-.57.23.62 2.42 2.18 2.31.57z" clip-rule="evenodd" fill-rule="evenodd" data-color="1"/>
            <path fill="#DFAA3C" d="M101.43 144.72c1.18-.51 3.65 2 3.75 3.08a1.55 1.55 0 0 1-.365 1.323 1.549 1.549 0 0 1-.578.404 1.55 1.55 0 0 1-.697.103c-.77 0-3-1.93-3.17-3a1.797 1.797 0 0 1 1.06-1.91zm.19 1.73c.08.58 1.85 2.07 2.21 1.93 0-.11.11-.15.2-.2-.36-1.18-1.43-1.65-2.22-2.4a.76.76 0 0 0-.19.67z" clip-rule="evenodd" fill-rule="evenodd" data-color="1"/>
            <path fill="#DFAA3C" d="M42.15 148.47c.83-.18 2.21.81 2.89 1.73a1.66 1.66 0 0 1-2 2.51 7.06 7.06 0 0 1-2.21-2.22 1.76 1.76 0 0 1 1.32-2.02zm-.1 1.54a6.007 6.007 0 0 0 1.74 1.74c.19-.17.41-.3.48-.58-.54-.62-1.24-1.07-1.83-1.64-.2.09-.27.31-.39.47v.01z" clip-rule="evenodd" fill-rule="evenodd" data-color="1"/>
            <path fill="#DFAA3C" d="M97.58 149.44c.73 0 1.41.85 2.12 1.63.51.57 1.47 1.47 1.53 2a1.555 1.555 0 0 1-.495 1.381 1.546 1.546 0 0 1-1.425.349c-.64-.14-3.26-2.65-3.37-3.36a1.642 1.642 0 0 1 1.64-2zm.86 3.07c.52.54.93 1.46 1.54 1.06-.18-1.21-1.73-1.85-2.3-3h-.3c-.56.8.52 1.43 1.06 1.94z" clip-rule="evenodd" fill-rule="evenodd" data-color="1"/>
            <path fill="#DFAA3C" d="M37.92 152.71c.68 0 1 .55 1.64 1.15.4.4 1.13 1 1.15 1.54a1.996 1.996 0 0 1-1.51 1.699 1.997 1.997 0 0 1-.8.031 7.77 7.77 0 0 1-2.4-2.31 1.83 1.83 0 0 1 1.92-2.11zm-.67 1.82c.62.4 1.27 1.89 2.21 1.07-.33-.69-1.75-2.6-2.21-1.07z" clip-rule="evenodd" fill-rule="evenodd" data-color="1"/>
            <path fill="#DFAA3C" d="M93.82 154.53c.82-.1 1.28.71 2 1.45.56.56 1.47 1.22 1.54 1.83a1.732 1.732 0 0 1-1.72 2c-.87 0-3.36-2.46-3.48-3.08a2.001 2.001 0 0 1 1.66-2.2zm1.45 2.41c-.5-.5-1.13-1.2-1.64-1.15-.43.81.4 1.25.77 1.63.37.38.82 1.2 1.54 1.15.63-.57-.25-1.21-.67-1.63z" clip-rule="evenodd" fill-rule="evenodd" data-color="1"/>
            <path fill="#DFAA3C" d="M31.19 159c.17-1.55.9-2.5 2.2-2.12.52.15 2.56 2.12 2.6 2.8.07 1.06-1.39 2-2.6 1.54-.94-.39-1.53-1.79-2.2-2.22zm1.34-.29c.65.54 1.14 1.88 2.21 1.16-.45-.83-1.29-1.27-1.92-1.93-.13.18-.39.28-.29.73v.04z" clip-rule="evenodd" fill-rule="evenodd" data-color="1"/>
            <path fill="#DFAA3C" d="M89.69 159.92c1.11-.23 1.48.62 2.31 1.45.55.54 1.36 1.14 1.44 1.63a1.75 1.75 0 0 1-2 2 9.993 9.993 0 0 1-3-2.88 1.691 1.691 0 0 1 1.25-2.2zm.09 1.16c-.13.06 0 .37-.19.38a5.548 5.548 0 0 0 2.41 2.31c.09-.12.15-.29.28-.38a6.618 6.618 0 0 0-2.5-2.31z" clip-rule="evenodd" fill-rule="evenodd" data-color="1"/>
            <path fill="#DFAA3C" d="M27.62 160.69c.398-.048.801.022 1.16.2a9.8 9.8 0 0 1 2 2.4 1.638 1.638 0 0 1-1.18 1.922 1.64 1.64 0 0 1-.82.008 6.707 6.707 0 0 1-2.6-2.51 1.649 1.649 0 0 1 1.44-2.02zm.1 1.06c-.69.95.82 1.85 1.54 2.31 0-.18.32-.06.38-.19a7.364 7.364 0 0 0-1.92-2.12z" clip-rule="evenodd" fill-rule="evenodd" data-color="1"/>
            <path fill="#DFAA3C" d="M39.27 161.18c4.62-.31 6.47 2.81 8.85 5.19 3.94 3.94 7.28 7.18 11.35 11.26.81.667 1.524 1.445 2.12 2.31 2.53 4.88-1.82 8-4.81 10.58A92.16 92.16 0 0 1 44.27 199c-2.26 1.35-4.73 3.26-7.6 3.56a13.137 13.137 0 0 1-5.3-.67c-1.78-.74-3.5-3.23-5-4.72-4.11-4.11-8-7.77-12.22-12-1.21-1.23-2.47-2.11-2.4-4.42.09-3.11 3-4.46 5.39-5.87a142.346 142.346 0 0 0 13.56-9c2-1.52 4.4-3.64 6.74-4.43a7.652 7.652 0 0 1 1.83-.27zm-1.55 1.63c-2.25.89-4.2 2.93-6.25 4.43-4.24 3.1-8 5.43-12.89 8.46-2.06 1.29-5.53 2.49-5.29 5.49.08 1.09 1 1.91 1.82 2.79 3.72 4.02 7.89 7.72 11.46 11.64 2.41 2.63 5 6 10.19 5.39 2.26-.28 4.94-2.22 6.84-3.37a126.089 126.089 0 0 0 12.22-8.27c1.64-1.28 4.43-3.08 5.1-5.2.88-2.84-1-4.45-2.41-5.77-4.23-3.91-7.63-7.15-11.55-11.07-2.05-2.05-4.23-5.36-8-4.81a6.593 6.593 0 0 0-1.24.29z" clip-rule="evenodd" fill-rule="evenodd" data-color="1"/>
            <path fill="#DFAA3C" d="M23.58 168.87c-.67-1-2.5-1.4-2.6-2.69a1.813 1.813 0 0 1 1.351-1.698c.251-.066.513-.077.769-.032.92.08 2.85 2.19 2.89 2.88.04.69-.72 1.75-2.41 1.54zm-1.25-2.79c.64.55 1.31 2 2.41 1.44-.55-.59-1.4-2.25-2.41-1.44z" clip-rule="evenodd" fill-rule="evenodd" data-color="1"/>
            <path fill="#DFAA3C" d="M85.36 165c1.37-.64 3.93 2.07 4 2.7a1.81 1.81 0 0 1-2 2.11c-.62-.1-1.3-1.06-1.73-1.53-.73-.8-2.1-2.45-.27-3.28zm.29 1.16a.5.5 0 0 1-.1.29c.703.806 1.51 1.516 2.4 2.11.53-.79-1.6-2.7-2.3-2.38v-.02z" clip-rule="evenodd" fill-rule="evenodd" data-color="1"/>
            <path fill="#DFAA3C" d="M16.56 168.3c.41-.107.84-.107 1.25 0a7.638 7.638 0 0 1 2.4 2.59c.19 1.26-1.17 1.83-2.11 1.64-.42-.09-2.48-1.74-2.6-2.41a1.741 1.741 0 0 1 1.06-1.82zm2.4 3a3.34 3.34 0 0 0-2-1.83 2 2 0 0 0 2.04 1.81l-.04.02z" clip-rule="evenodd" fill-rule="evenodd" data-color="1"/>
            <path fill="#DFAA3C" d="M85.07 172.15c.06 1.62-.87 3-2.5 2.3a10.891 10.891 0 0 1-2.41-3 1.691 1.691 0 0 1 2-1.83c1.22.24 2 2.08 2.91 2.53zm-3.37-1.35c0 .23-.34.17-.29.48a7.257 7.257 0 0 0 2 2.11c.98-1.01-.87-2.13-1.71-2.59z" clip-rule="evenodd" fill-rule="evenodd" data-color="1"/>
            <path fill="#DFAA3C" d="M11.27 171.57c.91-.15 3.11 1.58 3.27 2.4a1.442 1.442 0 0 1-1.25 1.73c-1.2.16-3.25-1.71-3.37-2.4a1.498 1.498 0 0 1 1.35-1.73zm0 1.53c.58.5 1 1.56 2 1.35-.17-.65-1.09-1.34-1.83-1.73.02.19-.24.12-.17.38z" clip-rule="evenodd" fill-rule="evenodd" data-color="1"/>
            <path fill="#DFAA3C" d="M77.46 174.26c.62 0 1.06.5 1.84 1.25.49.48 1.25 1.09 1.34 1.54a1.781 1.781 0 0 1-1.64 2.21c-.87 0-3.17-2.14-3.28-3.07a1.638 1.638 0 0 1 1.74-1.93zm-.57 1.83c.77.57 1.32 1.37 2.12 1.92.36.05.29-.34.48-.48-.66-.6-1.9-2.98-2.6-1.44z" clip-rule="evenodd" fill-rule="evenodd" data-color="1"/>
            <path fill="#DFAA3C" d="M72.85 178.88a1.46 1.46 0 0 1 .57-.1 4.731 4.731 0 0 1 2.8 2.79 1.745 1.745 0 0 1-.466 1.481 1.739 1.739 0 0 1-1.464.519c-.72-.08-1.11-.68-1.63-1.25-.38-.4-1.16-.73-1.26-1.54a1.912 1.912 0 0 1 1.45-1.9zm.38 1.06c-.21.2-.55.28-.57.67.66.62 1.12 1.45 2 1.83.86-1.09-.94-1.81-1.43-2.5z" clip-rule="evenodd" fill-rule="evenodd" data-color="1"/>
            <path fill="#DFAA3C" d="M68.13 183c.218-.07.452-.07.67 0 .63.19 2.6 2 2.7 2.79a1.816 1.816 0 0 1-.56 1.531 1.827 1.827 0 0 1-1.56.469 6.648 6.648 0 0 1-2.6-2.7 1.602 1.602 0 0 1 1.35-2.09zm.2 1.15c-1.14.7 1 2.24 1.73 2.41 0-.11.11-.15.19-.19-.25-1.08-1.15-1.59-1.92-2.2v-.02z" clip-rule="evenodd" fill-rule="evenodd" data-color="1"/>
            <path fill="#DFAA3C" d="M63.32 187.35c.82-.11 3 1.31 3.18 2.3a1.89 1.89 0 0 1-1.93 2.22c-.53-.06-1.11-.87-1.54-1.25-.43-.38-1.16-.64-1.25-1.44a1.588 1.588 0 0 1 1.54-1.83zm-.38 1.54c.67.55 1.2 1.73 2.31 1.54-.25-.94-1.44-2.43-2.31-1.54z" clip-rule="evenodd" fill-rule="evenodd" data-color="1"/>
            <path fill="#DFAA3C" d="M61.49 193.51c0 1.36-.49 2.09-1.35 2.21-1.26.17-3.46-1.86-3.27-3.08a1.86 1.86 0 0 1 2.22-1.35c1.06.2 1.91 1.85 2.4 2.22zm-3.49-.77a3.76 3.76 0 0 0 2 1.82c.54-.96-.91-2.4-2-1.82z" clip-rule="evenodd" fill-rule="evenodd" data-color="1"/>
            <path fill="#DFAA3C" d="M53.22 195.14c.79 0 1 .48 1.83 1.15.46.4 1.36.89 1.44 1.35a1.76 1.76 0 0 1-1.44 1.83c-1.14.16-3.21-1.73-3.37-2.5-.29-1.34.6-1.79 1.54-1.83zm-.39 1.44c.72.51 1.28 1.66 2.22 1.64.02-.43-1.72-2.58-2.22-1.64z" clip-rule="evenodd" fill-rule="evenodd" data-color="1"/>
            <path fill="#DFAA3C" d="M51 201.3c-.24 1.36-1.27 2.34-2.7 1.54a6.181 6.181 0 0 1-2-2.22 1.78 1.78 0 0 1 .48-1.63c1.59-1.28 3.52 1.61 4.22 2.31zm-3.57-1.25c.49.7 1.22 2.07 2.22 1.63-.49-.68-1.14-1.79-2.21-1.63h-.01z" clip-rule="evenodd" fill-rule="evenodd" data-color="1"/>
            <path fill="#DFAA3C" d="M45.42 204.09c.24 2.26-1.51 2.95-3 2a5.698 5.698 0 0 1-1.92-2.4 1.916 1.916 0 0 1 1.452-1.662c.255-.062.52-.072.778-.028 1.15.14 1.91 1.67 2.69 2.09zm-3.66-.38a5.697 5.697 0 0 0 2 1.63.409.409 0 0 1 .38-.19c-.03-1.15-1.7-2.61-2.38-1.44z" clip-rule="evenodd" fill-rule="evenodd" data-color="1"/>
        </g>
        <defs fill="none">
            <clipPath id="ff37485a-f8e7-4b3a-b9ca-9e8953cb40ca">
                <path fill="#ffffff" d="M211.31 0v212.08H0V0h211.31z"/>
            </clipPath>
        </defs>
    </g>
</svg>
