<?xml version="1.0" encoding="UTF-8"?>
<svg data-bbox="-0.005 -0.011 171.575 140.121" xmlns="http://www.w3.org/2000/svg" viewBox="0 0 172 141" height="141" width="172" data-type="color">
    <g>
        <g clip-path="url(#f7a11b3e-c2c3-4564-be65-42fff15e3a2b)">
            <path fill="#DFAA3C" d="M32.57 12.71c-.59-.69-.26-2.27-.39-3.17 1-.7 3.25-4.56 3.85-1.25.13.502.165 1.025.1 1.54-.19.55-1.15 1.14-1.64 1.63s-.94 1.33-1.92 1.25zm.77-1.83c.61-.57 2-1.16 1.44-2.31-.49.76-1.65.85-1.44 2.31z" clip-rule="evenodd" fill-rule="evenodd" data-color="1"/>
            <path fill="#DFAA3C" d="M34.49 20.8c-.44-1.29.48-1.93 1.44-2.89.69-.69 1.37-1.65 2.31-1.44.57.12 1.8 2.48 1.73 3.27-.07.79-1.13 1.43-1.63 1.92s-1.25 1.54-1.92 1.54c-.67 0-1.58-1.39-1.93-2.4zm3.27-3c-.62.89-1.68 1.34-2.21 2.31.35.55.45 1.35 1 1.73.72-.82 1.55-1.53 2.21-2.4-.42-.44-.46-1.3-1-1.63v-.01z" clip-rule="evenodd" fill-rule="evenodd" data-color="1"/>
            <path fill="#DFAA3C" d="M40.36 21.37c.228-.015.456.02.67.1a6.74 6.74 0 0 1 1.54 2.89c0 .72-1.11 1.55-1.73 2.11-.62.56-1.71 1.66-2.21 1.64-.5-.02-2.12-2.65-2-3.46.04-.55 3.12-3.2 3.73-3.28zm-.1 1.35c-.805.681-1.56 1.42-2.26 2.21.198.59.492 1.145.87 1.64.77-.84 1.81-1.4 2.5-2.31-.37-.52-.55-1.26-1.11-1.54z" clip-rule="evenodd" fill-rule="evenodd" data-color="1"/>
            <path fill="#DFAA3C" d="M39.11 29.45c1.07-1 2.56-3.08 3.94-3.65.6-.24 2.33 2.48 2.31 3.08 0 .8-1.3 1.59-1.82 2.12s-1.24 1.8-2.22 1.73c-1.22-.1-1.58-2.29-2.21-3.28zM43 27.34c-.71.92-1.91 1.36-2.5 2.4.34.53.66 1.07 1 1.64a11.86 11.86 0 0 0 2.5-2.69c-.41-.38-.47-1.12-1-1.35z" clip-rule="evenodd" fill-rule="evenodd" data-color="1"/>
            <path fill="#DFAA3C" d="M45.94 30.61c.93-.15 1.28 1.14 1.93 2.12.39.6.75.77.76 1.15 0 .76-1.17 1.38-1.73 1.92s-1.19 1.66-2 1.64c-.81-.02-2.47-2.55-2.4-3.37a13.232 13.232 0 0 1 3.44-3.46zm-.09 1.44c-.6.82-1.51 1.32-2 2.22.39.57.72 1.2 1.06 1.82a10.328 10.328 0 0 0 2.31-2.31c-.59-.46-.59-1.48-1.37-1.73z" clip-rule="evenodd" fill-rule="evenodd" data-color="1"/>
            <path fill="#DFAA3C" d="M49.6 35.8c.83-.11.9.54 1.54 1.45.37.53 1.16 1.17 1.15 1.64-.01.47-1.12 1.46-1.63 1.92-.51.46-1.4 1.53-2 1.54-.6.01-2.66-2.35-2.66-3.17 0-.82 1-1.36 1.54-1.83.78-.66 1.32-1.44 2.06-1.55zm.19 1.35a11.91 11.91 0 0 0-2.41 2.12A6.07 6.07 0 0 0 48.73 41a26.38 26.38 0 0 1 2.12-2.11c-.29-.65-.8-1.07-1.06-1.74z" clip-rule="evenodd" fill-rule="evenodd" data-color="1"/>
            <path fill="#DFAA3C" d="M67.49 40.23c-.06.86-.77 1.45-1.44 2.12-.52.51-1.43 1.48-2 1.54-.85.09-2.87-.86-3-1.54-.19-1.13 2.5-2.64 3-3.46 1.21.26 2.372.713 3.44 1.34zm-5 1.83c.464.257.945.481 1.44.67a13.516 13.516 0 0 0 1.83-2c-1.56-1.12-2.4.43-3.27 1.33z" clip-rule="evenodd" fill-rule="evenodd" data-color="1"/>
            <path fill="#DFAA3C" d="M6 43c-1.17 1.1-1.81 2.75-3.75 3.08a3.91 3.91 0 0 1-.48-2.69 9.46 9.46 0 0 1 2.69-2.7C5.54 40.61 5.57 42 6 43zm-3 1.27a4.29 4.29 0 0 0 1.63-1.73c-.18 0-.07-.31-.29-.29-.34.75-1.59 1-1.34 2.02z" clip-rule="evenodd" fill-rule="evenodd" data-color="1"/>
            <path fill="#DFAA3C" d="M53.73 41c.78-.12 1.2.54 1.83 1.35.4.51 1.25 1.35 1.25 1.83 0 .77-1.23 1.57-1.73 2-.5.43-1.35 1.65-2.21 1.54-.53-.07-1.12-1-1.44-1.35a4.24 4.24 0 0 1-1.06-1.64c-.06-.84.86-1.42 1.44-2 .58-.58 1.04-1.59 1.92-1.73zm.1 1.35a17.633 17.633 0 0 1-2.21 2.11 7.561 7.561 0 0 0 1.54 2c.73-.8 1.5-1.57 2.31-2.3a7 7 0 0 0-1.64-1.81z" clip-rule="evenodd" fill-rule="evenodd" data-color="1"/>
            <path fill="#DFAA3C" d="M5.91 44.27c.28.8 1.37 1.83 1.25 2.79-.07.58-1.2 1.49-1.54 1.83-.48.5-1.28 1.44-1.92 1.35-.64-.09-1.33-1.71-1.06-2.79.36-1.36 2.64-2.17 3.27-3.18zm-.48 1.93C5 47.06 3.31 47.35 4 48.7c.5-.7 2.34-1.64 1.43-2.5z" clip-rule="evenodd" fill-rule="evenodd" data-color="1"/>
            <path fill="#DFAA3C" d="M58.26 46c.82-.1 1.33.89 1.83 1.45.5.56 1.27 1.2 1.25 1.83-.02.63-1.17 1.51-1.64 1.92-.47.41-1.4 1.51-2.12 1.44a6.82 6.82 0 0 1-2.79-3c0-.54 2.26-2.73 2.7-3.08.44-.35.61-.15.77-.56zm.1 1.45c-.6.85-1.56 1.33-2.12 2.21.453.624.966 1.204 1.53 1.73A30.874 30.874 0 0 1 60 49.18a5.399 5.399 0 0 0-1.64-1.73z" clip-rule="evenodd" fill-rule="evenodd" data-color="1"/>
            <path fill="#DFAA3C" d="M7 48.6c.17-.05.24-.14.48-.09.52.12 1.57 2.12 1.52 2.69-.05.57-2.58 3.31-3.56 3.08-.57-.14-1.42-1.9-1.34-2.6A11.729 11.729 0 0 1 7 48.6zm-1.66 3.28c.27.27.16.92.57 1 .51-.77 1.32-1.25 1.73-2.11-.2-.22-.26-.57-.48-.77-.57.69-1.31 1.18-1.82 1.88z" clip-rule="evenodd" fill-rule="evenodd" data-color="1"/>
            <path fill="#DFAA3C" d="M63.26 51.49c0-.11.1-.05.1 0 .89.45 3.12 2.16 3.17 3.08 0 .76-.88 1.46-1.44 2-.4.4-1.21 1.43-1.93 1.44-.72.01-1.39-.92-1.82-1.35-.43-.43-1.43-1-1.45-1.73-.02-.73 2.73-3.27 3.37-3.44zm.1 1.34a11.783 11.783 0 0 1-2.12 1.93 12.114 12.114 0 0 0 1.83 2 9.46 9.46 0 0 0 2.21-2.21c-.71-.49-1.13-1.29-1.92-1.72z" clip-rule="evenodd" fill-rule="evenodd" data-color="1"/>
            <path fill="#DFAA3C" d="M108.49 52.64c1.5.22 3.06 1 3 2 0 .48-2.6 3.23-3.27 3.28-.42 0-2.73-1.22-2.79-1.73-.06-.51 2.57-2.9 3.06-3.55zM107 56c.38.2.69.47 1.06.67.66-.74 1.35-1.46 2-2.21-.42-.15-.75-.41-1.16-.57-.5.78-1.37 1.26-1.9 2.11z" clip-rule="evenodd" fill-rule="evenodd" data-color="1"/>
            <path fill="#DFAA3C" d="M9 52.83a.82.82 0 0 1 .39-.09c.61.08 1.77 1.92 1.73 2.6-.04.68-2.83 3.47-3.48 3.46-.81 0-1.79-1.74-1.73-2.59C6 55.61 8.5 53 9 52.83zM7.16 56.4c.16.32.33.64.48 1a9.921 9.921 0 0 0 2.12-2.31c-.21-.24-.3-.59-.57-.77a13.998 13.998 0 0 0-2.03 2.08z" clip-rule="evenodd" fill-rule="evenodd" data-color="1"/>
            <path fill="#DFAA3C" d="M99 54.18c.65-.17 1.68.72 1.54 2-.08.69-2.55 3.31-3.47 3.17-.63-.1-1.23-1.14-1.15-1.93.08-.79 2.45-3.09 3.08-3.24zM97.22 58a8 8 0 0 0 2-2c-.18 0-.07-.32-.29-.29-.37.91-1.93 1.12-1.71 2.29z" clip-rule="evenodd" fill-rule="evenodd" data-color="1"/>
            <path fill="#DFAA3C" d="M113.68 55.72c.57-.08 2.64 1 2.69 1.93 0 .6-.92 1.4-1.53 1.92-.44.38-1.55 1.33-2 1.35-.45.02-2.45-1.16-2.51-1.83-.06-.67 2.35-3 2.89-3.27.151-.045.304-.078.46-.1zM111.76 59a4.1 4.1 0 0 0 1.06.68 13.126 13.126 0 0 0 2-2.12c-.34-.244-.694-.468-1.06-.67-.6.75-1.52 1.21-2 2.11z" clip-rule="evenodd" fill-rule="evenodd" data-color="1"/>
            <path fill="#DFAA3C" d="M11.49 57.36c1.07-.3 1.17.55 1.74 1.44.43.69 1 1.13 1 1.64 0 .76-1.06 1.4-1.64 1.92-.58.52-1.3 1.55-2.11 1.45-.81-.1-2-2.36-1.93-3.28.03-.66 2.29-2.99 2.94-3.17zm.1 1.35c-.54.74-1.37 1.19-1.83 2a4.999 4.999 0 0 0 1 1.73l2.22-2.12c-.57-.44-.72-1.32-1.39-1.61z" clip-rule="evenodd" fill-rule="evenodd" data-color="1"/>
            <path fill="#DFAA3C" d="M69.61 57.36c.72 0 1.27.88 2 1.63.42.42 1.61 1.38 1.64 1.74.06.75-2.86 3.57-3.66 3.56-.63 0-1.56-1.08-1.92-1.45-.36-.37-1.48-1.06-1.54-1.73-.06-.67.94-1.6 1.34-2 .72-.75 1.25-1.69 2.14-1.75zm-.1 1.35c-.15.73-2 1.72-2 2.21 0 .19.87.86 1.06 1.06.43.43.79.74 1.16 1.05.665-.74 1.37-1.445 2.11-2.11a7.739 7.739 0 0 0-2.33-2.21z" clip-rule="evenodd" fill-rule="evenodd" data-color="1"/>
            <path fill="#DFAA3C" d="M101.17 57.65c.5.66 1.31 1.18 1.35 2 .04.82-1 1.64-1.44 2.12-.44.48-1.47 1.51-1.93 1.53-.8 0-1.8-1.26-1.63-2.31.17-1.05 2.71-2.99 3.65-3.34zm-.38 1.54c-.58.86-1.6 1.28-2.12 2.21.22.13.22.48.48.58a28.9 28.9 0 0 0 2.12-2.31c-.27-.1-.16-.48-.48-.48z" clip-rule="evenodd" fill-rule="evenodd" data-color="1"/>
            <path fill="#DFAA3C" d="M117.82 64.58c-.87-.66-2.87-1-2.79-2.31 0-.27 2.88-3.5 3.37-3.28.78.38 2.76 1.23 2.79 2.12 0 .66-1.09 1.48-1.55 1.92a8.006 8.006 0 0 1-1.82 1.55zm.48-4.24c-.57.78-1.44 1.26-1.93 2.12.55.16.79.63 1.45.67.59-.63 1.63-1.31 1.82-2-.48-.23-.64-.76-1.34-.79z" clip-rule="evenodd" fill-rule="evenodd" data-color="1"/>
            <path fill="#DFAA3C" d="M101.46 68.23a3.583 3.583 0 0 1-1.64-2.79c0-.18 2.51-3.83 3.56-3.65.5.08.86 1 1.07 1.34.21.34.8.91.76 1.54-.04.63-2.22 2.79-2.78 3.18-.31.2-.67.15-.97.38zm1.64-4.91a28.558 28.558 0 0 0-2.1 2.41c.31.33.38.9.77 1.15.78-.759 1.518-1.56 2.21-2.4-.39-.3-.37-.99-.88-1.16z" clip-rule="evenodd" fill-rule="evenodd" data-color="1"/>
            <path fill="#DFAA3C" d="M14.48 62.17c1-.31 1.31.45 1.92 1.25.43.57 1 1.11 1 1.54 0 .86-.87 1.35-1.44 1.92-.57.57-1.05 1.49-1.73 1.55-.68.06-2.62-2.29-2.6-3.18-.03-.63 2.23-2.9 2.85-3.08zm.28 1.25c-.53.71-1.41 1.09-1.82 1.92.36.58.72 1.14 1.06 1.74A14.27 14.27 0 0 0 16.21 65c-.59-.45-.84-1.19-1.45-1.58z" clip-rule="evenodd" fill-rule="evenodd" data-color="1"/>
            <path fill="#DFAA3C" d="M123 63.13a2.56 2.56 0 0 1 2.8 2.21c-.06.66-.72 1-1.35 1.54-.43.39-1.12 1.28-1.54 1.35-.82.13-2.7-1.31-2.7-2.11 0-.8 2.32-2.83 2.79-2.99zm.49 1.16c-.52.76-1.48 1.09-1.93 1.92.47.17.67.61 1.16.77.55-.7 1.27-1.22 1.82-1.92-.35-.24-.54-.63-1.04-.77h-.01z" clip-rule="evenodd" fill-rule="evenodd" data-color="1"/>
            <path fill="#DFAA3C" d="M75.86 63.42c.69-.15 1.55.82 2.12 1.35.57.53 1.54 1.29 1.54 1.73 0 .64-1 1.33-1.54 1.93-.54.6-1.12 1.46-1.83 1.57-.71.11-1.48-.84-1.92-1.25-.44-.41-1.37-.93-1.44-1.63-.07-.7.8-1.47 1.25-1.93.63-.69 1.15-1.62 1.82-1.77zm.2 1.35c-.603.68-1.247 1.32-1.93 1.92a6.32 6.32 0 0 0 1.93 2 23.238 23.238 0 0 0 2-2.3 17.853 17.853 0 0 0-2-1.62z" clip-rule="evenodd" fill-rule="evenodd" data-color="1"/>
            <path fill="#DFAA3C" d="M130.61 68.91c-.64.57-1.94 3-3.27 3-.71 0-.87-.54-1.35-1-.32-.3-1.11-.6-1.15-1.16-.04-.56 2.57-2.66 3.17-3.17a4.996 4.996 0 0 1 2.6 2.33zm-4.23.67c.34.36.64 1.17 1.06 1.16.42-.01 1.45-1.86 1.73-1.93-.95-1.52-1.9.11-2.79.77z" clip-rule="evenodd" fill-rule="evenodd" data-color="1"/>
            <path fill="#DFAA3C" d="M18.32 67.08c.74-.17 1.11.54 1.74 1.35.45.57 1.09 1.24 1.06 1.82-.05.75-1.05 1.34-1.64 1.93-.59.59-1.17 1.63-1.83 1.63-.66 0-2.52-2.59-2.5-3.36.02-.77 2.55-3.23 3.17-3.37zm.1 1.44a18.53 18.53 0 0 1-2 1.83 7.93 7.93 0 0 0 1.35 2 31.012 31.012 0 0 0 2.12-2.31c-.52-.48-.8-1.2-1.47-1.52z" clip-rule="evenodd" fill-rule="evenodd" data-color="1"/>
            <path fill="#DFAA3C" d="M106.08 67.17c.22-.055.45-.055.67 0a8.11 8.11 0 0 1 2.12 2.7c0 .78-1.05 1.66-1.64 2.21-.59.55-1.54 1.69-2.21 1.64-.67-.05-2.19-2.36-2.21-3-.02-.64 2.72-3.41 3.27-3.55zm-2 3.37a4.104 4.104 0 0 0 1.25 1.73 31.454 31.454 0 0 0 2.21-2.4c-.49-.4-.73-1.06-1.25-1.44a14.717 14.717 0 0 1-2.23 2.11h.02z" clip-rule="evenodd" fill-rule="evenodd" data-color="1"/>
            <path fill="#DFAA3C" d="M81.93 68.71c.93-.22 3.23 1.81 3.27 2.6.04.79-.75 1.33-1.35 1.92-.41.42-1.13 1.41-1.82 1.45-.69.04-1.46-.68-1.93-1.06s-1.41-1-1.44-1.54c0-.69 2.65-3 3.08-3.27a.67.67 0 0 1 .19-.1zm.19 1.29c-.58.77-1.39 1.3-2 2 .57.49 1.18.94 1.73 1.45a8.002 8.002 0 0 0 2-2.12A5.5 5.5 0 0 0 82.12 70z" clip-rule="evenodd" fill-rule="evenodd" data-color="1"/>
            <path fill="#DFAA3C" d="M132.16 70.25c.65-.1 2.49 1.2 2.49 2.12 0 .74-2.52 3.19-3.36 3.17a3.422 3.422 0 0 1-2.21-2.11c-.08-.74 2.46-3.08 3.08-3.18zm.09 1.25a11.072 11.072 0 0 1-1.83 1.73c.268.438.606.83 1 1.16.599-.68 1.241-1.32 1.92-1.92a1.693 1.693 0 0 0-1.09-.97z" clip-rule="evenodd" fill-rule="evenodd" data-color="1"/>
            <path fill="#DFAA3C" d="M22.46 72.18c.74-.05.92.65 1.54 1.54.34.48 1.17 1.22 1.16 1.73-.01.51-1.16 1.55-1.54 1.92-.6.64-1.18 1.54-1.93 1.45-.53-.07-2.47-2.49-2.5-3.08-.03-.83 2.53-3.51 3.27-3.56zm-1.92 3.46c.29.73 1 1.08 1.25 1.83a8.2 8.2 0 0 0 2-2.21c-.55-.51-.83-1.29-1.44-1.74-.52.78-1.35 1.31-1.81 2.12z" clip-rule="evenodd" fill-rule="evenodd" data-color="1"/>
            <path fill="#DFAA3C" d="M90.59 75.16A4.929 4.929 0 0 1 89.14 77c-.43.43-1.25 1.39-1.82 1.44-.8.08-3-1.39-3.09-2.21-.09-.82 2.15-3.06 2.8-3.37 1.18-.57 2.87 1.72 3.56 2.3zm-3.18-1.06c-.58.73-1.34 1.29-1.92 2 .67.26 1 .86 1.73 1.06.66-.66 1.29-1.33 1.92-2-.68-.24-1.04-.82-1.73-1.06z" clip-rule="evenodd" fill-rule="evenodd" data-color="1"/>
            <path fill="#DFAA3C" d="M110.51 73.81c.238-.106.503-.138.76-.09.63.13 2 2.49 2 3 0 .79-1.23 1.52-1.82 2.12-.59.6-1.38 1.83-2.22 1.73-.64-.07-2-2.34-1.92-3.08.08-.74 2.62-3.49 3.2-3.68zm-2 3.85c.359.465.693.95 1 1.45a12.33 12.33 0 0 0 2.5-2.6c-.44-.43-.61-1.13-1.06-1.54-.69 1.03-1.83 1.63-2.46 2.69h.02z" clip-rule="evenodd" fill-rule="evenodd" data-color="1"/>
            <path fill="#DFAA3C" d="M136 73.91c.73-.23 2.67 1.31 2.7 2.21 0 .68-2.22 3-3.08 3.08-.66 0-2.29-1.35-2.31-2.11-.02-.76.93-1.41 1.25-1.74.32-.33.96-1.29 1.44-1.44zm.29 1.35a14.83 14.83 0 0 1-1.64 1.63c.84 2 1.7 0 2.7-.67a1.572 1.572 0 0 0-1.06-.96z" clip-rule="evenodd" fill-rule="evenodd" data-color="1"/>
            <path fill="#DFAA3C" d="M91.74 81.8c-.9-.61-2.36-1-2.4-1.93 0-.49 2.47-3.3 3.27-3.36.6-.05 2.67 1.14 2.79 1.83.17.91-2.41 3.24-3.08 3.46a.75.75 0 0 1-.58 0zm1-4c-.57.77-1.44 1.26-1.93 2.11.385.214.741.476 1.06.78A8.71 8.71 0 0 0 94 78.53a9.315 9.315 0 0 0-1.29-.77l.03.04z" clip-rule="evenodd" fill-rule="evenodd" data-color="1"/>
            <path fill="#DFAA3C" d="M26.5 77.37c.95-.24 1.16.63 1.83 1.45.54.65 1.27 1.16 1.25 1.83-.02.67-2.27 3.22-3.27 3.17-.7 0-2.78-2.31-2.79-3.08-.01-.59 2.48-3.23 2.98-3.37zm-1.63 3.37c.41.25 1.11 1.85 1.63 1.83.52-.02 1.45-1.94 1.83-2.12-.64-.48-1-1.22-1.63-1.73-.54.75-1.37 1.2-1.83 2.02z" clip-rule="evenodd" fill-rule="evenodd" data-color="1"/>
            <path fill="#DFAA3C" d="M140.62 77.76s.09-.11.2-.1a3.775 3.775 0 0 1 2.18 2.21c0 .77-1 1.5-1.35 1.83-.35.33-1.17 1.36-1.83 1.35-.66-.01-2-1.38-2-2-.05-.88 2.01-3.13 2.8-3.29zm-1.54 3.18c.27.28.45.64.87.76.67-.48 1.11-1.2 1.73-1.73-.68-1.76-1.99.16-2.6.97z" clip-rule="evenodd" fill-rule="evenodd" data-color="1"/>
            <path fill="#DFAA3C" d="M95.69 84.3c-.7-.25-1.56-.76-1.64-1.25-.11-.67 2.29-3.35 3.08-3.47.79-.12 2.57.77 2.69 1.45.18.9-.74 1.26-1.44 1.93-.9.84-1.24 1.86-2.69 1.34zm-.19-1.44c.39 0 .56.33 1 .38.68-.6 1.32-1.24 1.92-1.92-1.27-1.15-2.17.77-2.92 1.54z" clip-rule="evenodd" fill-rule="evenodd" data-color="1"/>
            <path fill="#DFAA3C" d="M144.76 81.61c.82-.23 2.56 1.43 2.6 2.11.04.68-2.21 3.15-3.08 3.18a3.55 3.55 0 0 1-2.21-1.9c-.08-.58.93-1.69 1.15-1.93.22-.24.97-1.31 1.54-1.46zm-1.44 3.17c.42.22.55.73 1.05.87.45-.74 1.18-1.2 1.64-1.93-.94-1.56-2.01.28-2.69 1.06z" clip-rule="evenodd" fill-rule="evenodd" data-color="1"/>
            <path fill="#DFAA3C" d="M104.63 82.86c.36 1-.48 1.68-1.25 2.5a5.638 5.638 0 0 1-1.63 1.44c-1.09.26-2.7-.69-2.79-1.34-.09-.65 2.27-3.57 3.27-3.66 1-.09 1.61.77 2.4 1.06zm-4.23 2.4c.33.16.64.33 1 .48.64-.8 1.45-1.44 2-2.3-1.4-.89-2.29.86-3 1.82z" clip-rule="evenodd" fill-rule="evenodd" data-color="1"/>
            <path fill="#DFAA3C" d="M31.6 82.76c.66-.1 1.2.75 1.93 1.54.52.57 1.47 1.35 1.47 1.7 0 .61-1.07 1.35-1.44 1.73-.37.38-1 1.5-1.64 1.55-.64.05-1.42-.82-1.92-1.42s-1.35-1.38-1.35-1.92a9.47 9.47 0 0 1 2.95-3.18zM30 85.94a21.459 21.459 0 0 1 1.63 2 6.53 6.53 0 0 0 1.93-2c-.67-.52-1.16-1.21-1.83-1.74-.5.69-1.25 1.1-1.73 1.74z" clip-rule="evenodd" fill-rule="evenodd" data-color="1"/>
            <path fill="#DFAA3C" d="M106.66 83.82c.68-.22 2.79.14 3 1.06.21.92-1.08 1.75-1.54 2.21-.63.63-1.31 1.59-2.12 1.64-.81.05-2.39-.71-2.5-1.25-.16-.81.94-1.52 1.35-1.93.54-.55 1.15-1.55 1.81-1.73zM105 87.19c.285.058.55.19.77.38a8.794 8.794 0 0 0 2.31-2.4c-1.59-.55-2.19 1.23-3.08 2.02z" clip-rule="evenodd" fill-rule="evenodd" data-color="1"/>
            <path fill="#DFAA3C" d="M111.85 85c.83-.14 2.21.23 2.21 1.15 0 .76-3.16 3.92-3.84 4a2.803 2.803 0 0 1-2.31-.86c-.25-.81 1.12-1.88 1.63-2.41.79-.78 1.37-1.76 2.31-1.88zm.1 1.15c-.81 1-1.79 1.74-2.6 2.69.201.042.396.11.58.2.92-.88 1.77-1.83 2.6-2.8-.23-.01-.29-.18-.53-.11l-.05.02z" clip-rule="evenodd" fill-rule="evenodd" data-color="1"/>
            <path fill="#DFAA3C" d="M148.9 85.36s0-.08.09-.1a3.336 3.336 0 0 1 2.79 2.12c.09.81-.79 1.47-1.34 2s-1.22 1.51-1.83 1.54c-.61.03-2.4-1.79-2.4-2.5 0-1.09 1.92-2.34 2.49-2.89.09-.06.07-.12.2-.17zm-1.45 3.08c.51.26.67 1.18 1.16 1.15.49-.03 1.57-2 1.83-2.11-.33-.35-.57-.78-1.06-1a23.393 23.393 0 0 0-1.93 1.96z" clip-rule="evenodd" fill-rule="evenodd" data-color="1"/>
            <path fill="#DFAA3C" d="M37.67 88.82c.95-.18 1.37.88 2.21 1.64.53.49 1.49 1.09 1.54 1.63.06.75-.91 1.49-1.35 1.93-.44.44-1.16 1.5-1.73 1.54-.57.04-1.53-1-2-1.54s-1.58-1.23-1.64-1.93c-.06-.7 2.3-3.09 2.97-3.27zm0 1.35A6.39 6.39 0 0 1 36 91.81a8 8 0 0 0 2.21 2.3 9.802 9.802 0 0 0 1.83-1.92 13.737 13.737 0 0 0-2.37-2.02z" clip-rule="evenodd" fill-rule="evenodd" data-color="1"/>
            <path fill="#DFAA3C" d="M153.32 88.82c.08 0 .1 0 .1.1.61.28 2.57 1.54 2.6 2.21.03.67-1 1.54-1.44 1.93-.44.39-1.34 1.42-1.93 1.44-.59.02-2.44-1.43-2.4-2.31.04-.88 2.5-2.57 3.07-3.37zm-1.83 3.56c.47.21.73.63 1.16.87.57-.78 1.43-1.26 1.93-2.12-.47-.2-.68-.67-1.16-.86-.57.73-1.42 1.26-1.93 2.11z" clip-rule="evenodd" fill-rule="evenodd" data-color="1"/>
            <path fill="#DFAA3C" d="M157.27 92.38c.48 0 2.5 1.48 2.5 2.41 0 .73-1 1.55-1.54 2-.54.45-1.4 1.45-2 1.44-.6-.01-2.18-1.47-2.23-2.23-.05-.76 2.51-3.53 3.27-3.62zm0 1.35c-.6.81-1.5 1.32-2 2.21.266.415.63.759 1.06 1a14.305 14.305 0 0 0 2.11-2.22c-.44-.32-.67-.79-1.17-.99z" clip-rule="evenodd" fill-rule="evenodd" data-color="1"/>
            <path fill="#DFAA3C" d="M44 95c.277-.09.57-.125.86-.1a8.732 8.732 0 0 1 3 2.8c.1.89-1 1.53-1.35 1.92-.35.39-1 1.4-1.73 1.44-1.12.08-3.47-2.43-3.27-3.36A8.939 8.939 0 0 1 44 95zm2.5 2.79a12.134 12.134 0 0 0-2.12-1.63c-.47.68-1.24 1.06-1.63 1.83a10.05 10.05 0 0 0 1.92 1.82c.26-.41 1.9-1.54 1.85-2.04l-.02.02z" clip-rule="evenodd" fill-rule="evenodd" data-color="1"/>
            <path fill="#DFAA3C" d="M160.54 95.85c.05 0 .08-.09.19-.1a3.824 3.824 0 0 1 2.6 2.12c.07.79-1 1.69-1.44 2.12-.44.43-1.37 1.49-1.93 1.54-.87.06-2.3-1.45-2.31-2.22-.01-.77 2.28-3.31 2.89-3.46zm.29 1.25c-.54.83-1.41 1.34-1.92 2.21.34.33.56.79 1.05 1 .61-.87 1.47-1.48 2-2.4-.5-.16-.52-.78-1.13-.81z" clip-rule="evenodd" fill-rule="evenodd" data-color="1"/>
            <path fill="#DFAA3C" d="M164.2 99c.05 0 .08-.09.19-.09a4.42 4.42 0 0 1 2.5 2.11c.06.71-1.26 1.75-1.54 2-.41.42-1.33 1.6-1.92 1.64-.84 0-2.33-1.61-2.31-2.31A13.476 13.476 0 0 1 164.2 99zm-.77 4.33c.7-.74 1.36-1.52 2-2.31-.35-.18-.54-.54-.95-.67-.76 1.12-3.28 2.18-1.05 3v-.02z" clip-rule="evenodd" fill-rule="evenodd" data-color="1"/>
            <path fill="#DFAA3C" d="M50.27 100c.76-.19 3.44 2 3.46 2.78.02.78-1.08 1.32-1.53 1.74-.45.42-1.07 1.29-1.93 1.25-.56 0-2.86-1.91-2.89-2.6-.03-.69 2.37-3.06 2.89-3.17zm-1.44 3.17c.52.439 1.001.921 1.44 1.44a6.388 6.388 0 0 0 2-1.92 18.453 18.453 0 0 0-1.83-1.44c-.44.69-1.17 1.16-1.61 1.91v.01z" clip-rule="evenodd" fill-rule="evenodd" data-color="1"/>
            <path fill="#DFAA3C" d="M55.27 109.9c-.51-.19-2.6-2.17-2.59-2.6 0-.76 1.16-1.36 1.54-1.73.52-.54 1-1.47 1.63-1.54.81-.1 3.47 2 3.47 2.79 0 .64-2.43 3.05-3.08 3.17a7.506 7.506 0 0 1-.97-.09zm.68-4.53c-.54.75-1.37 1.2-1.83 2 .69.41 1.13 1.06 1.83 1.45.62-.76 1.4-1.36 2-2.12a12.291 12.291 0 0 0-1.95-1.33h-.05z" clip-rule="evenodd" fill-rule="evenodd" data-color="1"/>
            <path fill="#DFAA3C" d="M105.5 104.41s0-.09.1-.09a4.53 4.53 0 0 1 2.69 2.21c.16 1-1.14 1.84-1.54 2.21-.4.37-1.26 1.65-2.12 1.54-.51-.06-2.31-1.91-2.3-2.5.01-.59 2.79-3.25 3.17-3.37zm.19 1.35c-.28.61-2 1.74-2 2.12 0 .38.93.7 1.25 1.05.57-.77 1.44-1.25 1.93-2.11a2.055 2.055 0 0 0-1.18-1.06z" clip-rule="evenodd" fill-rule="evenodd" data-color="1"/>
            <path fill="#DFAA3C" d="M61.72 113.55c-1-.75-3.55-.92-3.56-2.4 0-.51 2.73-3.4 3.37-3.27.64.13 3.12 1.37 3.27 2 .23 1-.88 1.55-1.35 2a8.257 8.257 0 0 1-1.73 1.67zm-.1-4.43c-.59.82-1.64 1.18-2.11 2.12.673.358 1.38.65 2.11.87a6.935 6.935 0 0 0 1.74-1.92 20.121 20.121 0 0 1-1.74-1.07z" clip-rule="evenodd" fill-rule="evenodd" data-color="1"/>
            <path fill="#DFAA3C" d="M109.83 108.07c.87-.29 2.79 1.85 2.79 2.5 0 .65-.9 1.45-1.53 2-.43.37-1.57 1.42-2 1.44-.68 0-2.48-1.49-2.5-2.31-.06-1.17 2.65-2.7 3.24-3.63zm.19 1.34c-.58.9-1.51 1.44-2.11 2.31 1 2.31 2.47-.48 3.36-1.15a2.197 2.197 0 0 0-1.27-1.16h.02z" clip-rule="evenodd" fill-rule="evenodd" data-color="1"/>
            <path fill="#DFAA3C" d="M67.78 111.24c1.77 1 1.27 1.82-.09 3.18-.37.36-1.35 1.48-1.74 1.54-1 .15-2.78-1.06-2.79-1.93 0-.63 2.47-3.19 3.18-3.27a2.48 2.48 0 0 1 1.44.48zM64.51 114c.28.3.75.41 1.06.68a8.893 8.893 0 0 0 2.12-2.12c-1.37-1.29-2.26.68-3.18 1.44z" clip-rule="evenodd" fill-rule="evenodd" data-color="1"/>
            <path fill="#DFAA3C" d="M114.06 111.82c.85-.23 3 1.65 3 2.41 0 .76-2.87 3.67-3.76 3.65-.7 0-2.51-1.63-2.4-2.69.1-.71 2.58-3.19 3.16-3.37zm.2 1.25c-.12.59-2.24 1.76-2.21 2.31.03.55 1 .61 1.24 1.16a11.472 11.472 0 0 0 2.41-2.41c-.55-.28-.77-.89-1.44-1.06z" clip-rule="evenodd" fill-rule="evenodd" data-color="1"/>
            <path fill="#DFAA3C" d="M76.54 120.29c-1 0-2 0-2.21-.68-.21-.68 2.67-3.61 3.37-3.75.7-.14 1.81.51 1.82 1.16.01.65-1.22 1.5-1.44 1.73a9.752 9.752 0 0 1-1.54 1.54zm-.68-1.16a4.842 4.842 0 0 0 2-2c-.6.7-1.42 1.24-2 2z" clip-rule="evenodd" fill-rule="evenodd" data-color="1"/>
            <path fill="#DFAA3C" d="M121.09 118.08c-.62 1.66-2.11 2.44-3.27 3.55-.48-.39-2.25-1.27-2.41-2-.34-1.57 2.36-2.46 3-3.65 1.4.17 1.92 1.25 2.68 2.1zm-4.33 1c.221.465.595.84 1.06 1.06.58-.73 1.34-1.29 1.92-2-1.06-1.6-2.09.28-2.98.99v-.05z" clip-rule="evenodd" fill-rule="evenodd" data-color="1"/>
            <path fill="#DFAA3C" d="M80.19 121.15c-4.11.4.22-4 1.26-4.13a1.33 1.33 0 0 1 1.63 1c.09 1.3-2.35 2.22-2.89 3.13z" clip-rule="evenodd" fill-rule="evenodd" data-color="1"/>
            <path fill="#DFAA3C" d="M122.15 119.71c.74-.25 2.77 1.09 2.79 2 .02.91-1.12 1.51-1.44 1.83-.32.32-1.06 1.42-1.74 1.44-.87 0-2.29-1.59-2.3-2.21-.01-.62 2.09-2.85 2.69-3.06zm.38 1.16c-.5.71-1.3 1.12-1.73 1.92.264.359.606.653 1 .86a20.574 20.574 0 0 0 1.93-1.92c-.57-.15-.66-.73-1.2-.86z" clip-rule="evenodd" fill-rule="evenodd" data-color="1"/>
            <path fill="#DFAA3C" d="M128.69 125.29c-.53.65-2.19 3.29-3.37 3.27a3.008 3.008 0 0 1-2-1.82c-.09-.75 2.19-3.47 3.08-3.47.89 0 1.66 1.46 2.29 2.02zm-4.23 1.25c.36.19.54.55 1 .68.66-.52 1.16-1.22 1.83-1.74-.83-1.85-2.06.39-2.83 1.06z" clip-rule="evenodd" fill-rule="evenodd" data-color="1"/>
            <path fill="#DFAA3C" d="M129.65 126.93c.58-.15 2.55 1.22 2.6 1.92.05.7-1 1.45-1.35 1.83-.35.38-1.13 1.35-1.82 1.35a2.828 2.828 0 0 1-2-1.74c-.18-.89 1.92-3.2 2.57-3.36zm-1.44 3.17c.45.1.5.59 1 .68.55-.64 1.19-1.19 1.73-1.83a12.02 12.02 0 0 0-1-.77c-.5.71-1.31 1.13-1.73 1.92z" clip-rule="evenodd" fill-rule="evenodd" data-color="1"/>
            <path fill="#DFAA3C" d="M133.31 130a2.093 2.093 0 0 1 2.21 1.73c0 .91-1 1.46-1.54 2s-1.19 1.6-1.82 1.64a2.996 2.996 0 0 1-2-1.83c-.07-.83 1-1.52 1.44-1.93.44-.41.95-1.39 1.71-1.61zm.29 1.25c-.68.79-1.58 1.38-2.21 2.21.29.16.41.48.77.58a19.495 19.495 0 0 0 2.11-2.41c-.27-.03-.34-.35-.67-.37v-.01z" clip-rule="evenodd" fill-rule="evenodd" data-color="1"/>
            <path fill="#DFAA3C" d="M63.36 47.64A257.103 257.103 0 0 0 83 66.5c4.83-4.79 9.06-9 14-13.86.63-.63 1.46-1.49 2.21-2.4a6.847 6.847 0 0 1 2.5-2.12c2-.56 4.47.64 6.16 1.54a109.357 109.357 0 0 1 14 9.53c6.19 4.64 11.7 9.51 17.13 14.33 9.5 8.45 19.85 16.78 29 26 .94.94 3.55 3.17 3.57 4.24 0 .73-1.41 1.79-2.12 2.5-8.54 8.53-16.7 16.6-25.21 25.11-2.15 2.16-4.64 4.36-7 6.74-.63.63-1.83 2-2.51 2-.68 0-1.83-1.25-2.5-1.93-5.09-5.09-10.87-9.86-16.07-14.62-6.25-5.72-12.35-11.08-18.38-16.74-4.87 4.91-9.61 9.32-14.62 14.33-.6.6-1.63 1.82-2.21 1.93-1 .19-3.07-.34-4.53-.67-4.16-1-7.47-2.83-10.87-4.53a103.082 103.082 0 0 1-12.8-7.79c-8.28-5.76-14.84-12.44-22.13-19A141.546 141.546 0 0 1 11.4 69.1C7.27 63.32 3.12 57 .91 48.7a23.74 23.74 0 0 1-.77-4.43 15.19 15.19 0 0 1 .1-4.81c.22-.73 1.54-1.82 2.31-2.59C13.92 25.26 24.74 14.09 36.22 2.61 37.36 1.47 38.14.14 39.88 0c2-.15 4.46 1.3 6.16 2.31C55 7.65 61.24 15.1 67.49 23.1c2.47 3.15 5.2 6.3 5.88 11 .68 4.7-3 6.38-5.3 8.66-1.6 1.58-3 3.24-4.71 4.88zM60.09 34c2.21 1.71 5 3.75 8.08 3.94 5.69.36 3.45-5.55 2-8.47a25.433 25.433 0 0 0-3.27-4.71c-2.47-3.16-4.81-5.85-7.2-8.76A51.478 51.478 0 0 0 47 4.72a28.326 28.326 0 0 0-5-3C39.21.69 37.49 2.16 37.38 5c1.086.45 2.145.965 3.17 1.54.94-.62 1.43-1.63 2.7-1.73C44.8 4.7 46.73 6 48 6.75a30.528 30.528 0 0 1 3.85 2.79 99.788 99.788 0 0 1 13.24 13.37c1.82 2.29 4.24 5.24 5.2 8.18.196.59.29 1.209.28 1.83-.23 3.87-5 3-7.41 1.73-3.7-1.88-6.53-5.45-9.33-8.95-3.53-4.41-6.3-8.34-8-13.37-.6.24-.85.82-1.26 1.25 3.74 7.73 8.65 15.1 15.52 20.42zm-24-9.33c4.32 9.18 10.26 16.73 16.55 23.86 3.2 3.63 6.71 6.8 10.1 10.2 3.39 3.4 6.91 6.46 10.59 9.62a111.842 111.842 0 0 0 11.25 9c7.07 4.66 14.07 9.58 22.9 12.51 1.27.41 3.24 1.06 4 .86 1-.24 2.21-1.92 3-2.69a17.887 17.887 0 0 0 2.6-2.89c-11.69-.66-19.78-5.7-27.24-11.16-3.68-2.7-7.16-5.63-10.58-8.66a250.583 250.583 0 0 1-19.44-19 154.416 154.416 0 0 1-16.48-21.96 49.063 49.063 0 0 1-6.25-13c-.27 1.21.95 2.12.77 3.36-.12.81-1.3 1.43-1.73 1.83-.71.65-1.29 1.67-2 1.54-1.11-.19-1-2.46-1.35-3.65A20.514 20.514 0 0 1 36.32 11c.42-.2.72.54.77.1-.46-1.87-1.25-3.87-1-6.16a51.011 51.011 0 0 0-4.24 4.33C32 14.79 34 20.1 36.13 24.65l-.04.02zm32.71 9c.85-1.37-.75-3.62-1.44-4.81-4.07-7-10-12.58-15.69-17.51A38.576 38.576 0 0 0 48 8.48c-1.39-1-3.61-2.38-5-1.93-.72 1.73.55 4 1.06 5.68.84-.23 1.41-2.09 2.69-2.31 2-.34 4.47 2.26 5.87 3.47A111.8 111.8 0 0 1 62 22.63 19.928 19.928 0 0 1 66 28c.227.519.36 1.074.39 1.64-.11 1.69-2.73 2.26-2.89 3.46.99.39 4.35 2.2 5.34.59l-.04-.02zM38 8.67c.55 0 1.2-.78 1.54-1.35-.68-.24-1.1-.75-1.92-.86.04.77.29 1.39.38 2.21zm31.38 30.7c0 .06 0 .11-.11.09-4.51-.15-7.86-2.53-10.67-4.81A54.07 54.07 0 0 1 43.15 14c-.95-2.13-2-4.37-1.73-6.64a3.64 3.64 0 0 0-1.35 1.35c1 .33.87 1.48 1.25 2.6.312.593.54 1.225.68 1.88-.11 1.16-1.49 1.41-1.83 2.41.23.32.3.79.57 1.06.61-.53 1-1.71 1.83-1.64.57.05 1.07 1.36 1.45 2.12.28.58 1.11 1.81 1 2.5-.09 1.17-1.44 1.19-1.63 2.12.28.23.36.66.67.87.59-.46 1-1.53 1.93-1.36.73.14 1.1 1.39 1.54 2 .44.61 1.3 1.54 1.34 2.21.13 1.76-2.66 2.09-1 3.18.74-.48 1.09-1.76 2-1.74.62 0 1.2 1.06 1.73 1.74.35.43 1.55 1.43 1.54 2C53.25 32 51.09 32 51 33.3c.22.14.31.4.48.58 1.16-.37 1.36-2.05 2.6-2.12.81 0 1.28.8 1.83 1.35s1.49 1.08 1.44 1.73c-.05.65-1.09 1.25-1.34 1.54-.53.59-.82 1-1.35 1.54.48.45.94 1.44 1.44 1.54-.21-.23 0-.61.1-.86.33-.6 2.2-2.6 2.8-2.6 1.1-.07 1.82 1.19 2.79 1.63 2 .38.19 1.73-.58 2.5-.36.36-1.19 1.49-1.83 1.55-1.28.11-2.09-1.55-2.89-1.64a21.921 21.921 0 0 0 8.09 4.52c1.55-1.71 3.51-3.51 4.75-5.19h.05zm-30.7-28.2a30.232 30.232 0 0 0 1.15 3.08c.25-.49.75-.72 1-1.25-.45-.89-.65-2-1.15-2.88-.32.44-.94.5-1.05 1.05h.05zM6.11 34.94c.86 1.93.61 5 1.44 6.93A20.4 20.4 0 0 0 10.63 39c6.06-6.32 11.84-12.73 18.09-19 .87-.87 2.87-2.44 3-3.28a23.824 23.824 0 0 0-.58-3.08c-.18-1.29-.29-2.79-.38-3.46-8.21 8.3-16.28 16.68-24.65 24.76zm48.11-16.36c1.7-.24 3.41 2 4.71 3.18a25.352 25.352 0 0 1 1.92 2c.52.56 1.69 1.67 1.55 2.5-.35 2-3.2-.77-3.47-1.06a10.61 10.61 0 0 1-2.31-3.66c-.5-.17-.92-.94-1.35-.86a23.172 23.172 0 0 0 4 5.29c1.5 1.51 3 3.39 5.48 3.66-.44-2.29-2.1-3.88-3.46-5.49-1.36-1.61-2.93-3.1-4.33-4.62a39.399 39.399 0 0 0-9.82-8.08c.85 3.73 2.87 6.31 4.72 9.05.92-.77 1.46-1.78 2.36-1.91zM34 14.73a6.05 6.05 0 0 0 .48 1.83 30.988 30.988 0 0 0 2.12-2.31c-.31-.37-.26-1.09-.58-1.44A14.117 14.117 0 0 0 34 14.73zm7.22 3.08c.462.958.976 1.89 1.54 2.79a3.23 3.23 0 0 0 1-1.15 12.767 12.767 0 0 0-1.63-2.79c-.13.53-.66.69-.9 1.15h-.01zM25.93 25c-2 2-4 4.17-6 6.16-3.4 3.4-7.19 7-10.49 10.68-.54.6-1.4 1.31-1.44 1.63a12.27 12.27 0 0 0 1 2.6c2.46 6.14 6 11.33 9.33 16.26 7.87-8.3 16.1-16.23 24.06-24.44a69.911 69.911 0 0 1-10.3-19.21c-1.8 2.01-3.99 4.18-6.16 6.32zm27.61-4.4c-.392.29-.748.625-1.06 1 3 3.9 5.92 7.88 9.92 10.78.31-.52.92-.74 1.15-1.34C58.89 28.85 56 25 53.54 20.6zm-8 2.12c-.22.42-.73.55-.87 1.06.81.89 1.27 2.12 2.12 3 .25-.46.79-.62 1-1.16a28.488 28.488 0 0 0-2.23-2.9h-.02zm4.52 5.77c-.76.17-1.07.79-1.54 1.25.58.77 1.11 1.58 1.63 2.41a7.5 7.5 0 0 0 1.64-1.54 8.69 8.69 0 0 1-1.71-2.12h-.02zm4 4.62c-.48.71-1.35 1-1.73 1.83.484.703 1.044 1.35 1.67 1.93a11.077 11.077 0 0 0 2-2.22c-.75-.43-1-1.27-1.88-1.54h-.06zm13.57 77.94a170.35 170.35 0 0 1-52.48-50.71C10.5 53.4 6.05 45.76 5.24 35.8c-.4.79.07 2.2-.1 3.38-.7.41-1.76 2.48-2.79 2.3-.74-.13-.66-1.27-.67-2.11-1.1 7.12 1.59 12.82 4 17.8A75.605 75.605 0 0 0 12.36 68c2.51 3.48 4.92 6.81 7.51 9.9 2.59 3.09 5.64 5.94 8.56 8.86 11.68 11.68 24 23.13 39.06 30.4a1.004 1.004 0 0 1-.47-.86c0-.72 2.81-3.14 3.36-3.18a2.543 2.543 0 0 1 2.21 1.35 12.7 12.7 0 0 1-3.08 3.37c-.36.13-.69-.26-.86 0 .77.19 1.5.93 2.21.86-.28-.1-.31-.46-.29-.86a17.506 17.506 0 0 1 3.43-3.23c2.72.42 2 1.51.57 3-.93.94-1.73 2.12-3.08 1.54a28.974 28.974 0 0 0 6.74 2.12c.882.221 1.79.319 2.7.29.63-.15 1.72-1.53 2.21-2 .34-.34.74-.72 1-1.06.26-.34.73-.73.68-1.06a48.92 48.92 0 0 1-17.13-6.39h-.06zM2.93 39.56a1.84 1.84 0 0 0 1-2.41 2.43 2.43 0 0 0-1 2.41zm56.19-2.21c-.52.66-1.34 1-1.73 1.83.69.36 1.19.92 1.93 1.24a24.156 24.156 0 0 0 1.73-2c-.73-.28-1.18-.83-1.93-1.07zm-15.87 1.92c-8.15 8-16.08 16.19-24.35 24A148.33 148.33 0 0 0 34.11 81.7c8-8.39 16-16.81 24.25-25a178.22 178.22 0 0 1-15.11-17.43zm19.34 7.5c.27-.53.81-.78 1.06-1.34a16.338 16.338 0 0 1-3.56-1.35c.732.985 1.57 1.887 2.5 2.69zm91.7 42.15c-10.86-9.25-21.11-19.34-32.72-28.1a117.912 117.912 0 0 0-13.47-9.33 14.53 14.53 0 0 0-5.49-2.12c-1.84-.15-1.92 2.14-1.53 3.75 1.26-.4 1.85-2.74 3.55-2.79 1 0 2.49.86 2.51 1.64.02.78-1.14 1.36-1.64 1.83s-1.22 1.58-1.92 1.63c-.7.05-1.2-.69-1.93-.77.3 1 1.39 1.2 2.12 1.55a50.089 50.089 0 0 1 6.93 4 206.777 206.777 0 0 1 24.63 19.53c5.12 4.66 10.26 9.29 15.3 14 3.79 3.58 7.56 7.23 11.45 10.58 1.28 1.11 2.57 2.28 3.94 3.27 0-1.08-1.25-.76-1.25-1.92 0-.88 2.63-3.48 3.27-3.47.85 0 1.23 1.52 1.83 1.35-4.49-5.13-10.09-9.96-15.58-14.63zm-49.75-37.43c-.58.86-1.59 1.3-2.11 2.21.317.193.652.353 1 .48a25.643 25.643 0 0 0 2.26-2.18 7.463 7.463 0 0 0-1.15-.51zM95.21 57c3.82 9.56 9.31 17.44 14.53 25.6a7.7 7.7 0 0 0 2 .58c1.37-.44 2-2.72 3.46-2.6 1.46.12 1.39 2.85 3 3.27a37.537 37.537 0 0 0-4.42-7.89c-1.67-2.54-3.4-5-5.1-7.5-3.38-5-7.2-9.82-9.05-16.17 0-.06 0-.11-.09-.1A43.01 43.01 0 0 0 95.21 57zM112 70.64a41.02 41.02 0 0 0 4.52-4.52c-4.3-3.05-8.37-6.32-13.18-8.86 2.66 4.68 5.66 9 8.66 13.38zm-52.54-13C51.3 66.09 43 74.36 34.87 82.76a175.53 175.53 0 0 0 21.37 18.57C64.4 93 72.84 84.91 81 76.51 73.15 70.85 66.5 64 59.41 57.65l.05-.01zm34.35.19c-3.24 3.21-6.66 6.23-9.81 9.52 2 1.65 4 3.33 6.16 4.82 2.3-2.51 4.9-4.73 7.11-7.32a55.866 55.866 0 0 1-3.51-7.01l.05-.01zm4.14 8.47c-2.27 2.21-4.73 4.25-6.83 6.64a65.269 65.269 0 0 0 16.55 8.94c-3.13-4.95-6.8-10.17-9.77-15.57l.05-.01zm19.72.77c-1.6 1.57-3.29 3-4.8 4.71A101.284 101.284 0 0 1 118.3 81c.58 1 1.52 2.51 1.25 3.75-.13.62-1.23 1.42-1.83 2-4.61 4.62-9.39 9.38-13.66 13.86 2.19 1.43 4.15 3.1 6.25 4.62 8-8.15 16.09-16.24 24.06-24.44a200.436 200.436 0 0 0-16.75-13.71l.05-.01zM57.2 102.2c5.36 3.88 10.66 7.81 17.13 10.58 7.88-8 16.32-16.15 24.15-24.15.17-.18.57-.45.48-.77-6-3-11.25-6.78-16.75-10.3A5126.498 5126.498 0 0 1 57.2 102.2zM115 81.89a20.788 20.788 0 0 0-1.74 1.64c1.06.07 2 .26 3 .38a4.992 4.992 0 0 0-1.26-2.02zm20.59.1c-8.07 7.65-16.05 16.22-24.35 24 2.57 2.42 5.15 4.6 8 7 2 1.71 3.77 3.62 5.78 5.49.55.52 1.66 1.84 1.92 1.83a14.77 14.77 0 0 0 1.44-1.54c7.28-7.89 15.33-15 22.52-22.61-5.11-4.71-10.14-9.49-15.28-14.16l-.03-.01zM88 101.14c-3.09 3.09-6.31 6.11-9.33 9.14a20.006 20.006 0 0 0-2.89 3.08 49.586 49.586 0 0 0 7.6 2.21 10.59 10.59 0 0 0 2.88.48c.74-.15 2.33-2.13 3.09-2.88l18.09-18.09a21.067 21.067 0 0 0 2.78-3.08c-3.65-.68-6.54-2.13-9.63-3.37-4.17 4.14-8.4 8.31-12.59 12.51zm64.08-3.75c-8 7.59-16.19 15.94-24.34 23.76 4.32 3.89 8.12 8.31 12.7 11.94 8-8.27 16.41-16 24.34-24.35-4.21-3.81-8.57-7.47-12.71-11.35h.01zm-13.76 36c-.38-.32-.7-.73-1.05-1.06-11.27-10.26-21.59-21.65-33.88-30.78-.09 0-.11-.08-.19-.1-.08-.02-.11.08-.19.1-.08.02-.11.14-.19.19.07.78.9.61.86 1.54 0 .64-2.57 3-3.17 3.08-1.11 0-1.13-1.64-1.83-.48a9.467 9.467 0 0 0 2.12 2c2.28 2.06 4.54 4.15 6.92 6.06 3.19 2.55 6.05 5.52 9.15 8.18 6.21 5.33 12 11.2 18.18 16.45-.13-.88-1.41-1-1.35-2 0-.54 1.11-1.45 1.45-1.83.58-.65 1.22-1.49 1.83-1.54 1.12-.09 1.25 1.17 2.21 1.25.12-.6-.56-.81-.88-1.08l.01.02zm-38.2-28.67a.275.275 0 0 1 .151.11.274.274 0 0 1 .049.18 11.492 11.492 0 0 0 2-1.93c-.89-.6-1.7.92-2.21 1.62l.01.02zm67.84-1c-.21.73-1.95 1.38-1.93 2 0 .35.83.49 1 1 .7-1.08 3.09-2.21.97-2.98l-.04-.02zm-97.48 10.6c-.58.78-1.51 1.19-2 2 .3 0 .32.26.67.2a11.89 11.89 0 0 0 1.93-2 2.312 2.312 0 0 1-.6-.2zm1.63 3.68c.57.27 1-.46 1.35-.87.35-.41 1-.89.87-1.15a7.945 7.945 0 0 0-2.22 2.02zm65 16.45c-.65.75-1.41 1.42-2 2.22.38.29.55.8 1 1a31.49 31.49 0 0 0 2.22-2.4c-.6-.16-.76-.67-1.27-.84l.05.02z" clip-rule="evenodd" fill-rule="evenodd" data-color="1"/>
        </g>
        <defs fill="none">
            <clipPath id="f7a11b3e-c2c3-4564-be65-42fff15e3a2b">
                <path fill="#ffffff" d="M171.61 0v140.11H0V0h171.61z"/>
            </clipPath>
        </defs>
    </g>
</svg>
