<?xml version="1.0" encoding="UTF-8"?>
<svg data-bbox="-0.001 -0.014 110.271 93.1" xmlns="http://www.w3.org/2000/svg" viewBox="0 0 111 94" height="94" width="111" data-type="color">
    <g>
        <g clip-path="url(#5c8b918b-f91d-4ff8-a3f6-c3e0d7614272)">
            <path fill="#DFAA3C" d="M62.93 51.49c.87-.1 1.51-.93 2.4-1.15a15.65 15.65 0 0 1 5.2-.29 13.92 13.92 0 0 1 8.28 4 25.179 25.179 0 0 1 5.09 7.12c3.52 7 9.13 12.84 19.06 13.66 1.311.115 2.629.115 3.94 0 1-.09 2.37-.56 3.37.29-1.15 3-2.55 5.78-4 8.57-1.45 2.79-2.78 5.53-4.23 8.27-5.51 2.81-14-.24-18.48-2.6A26.8 26.8 0 0 1 74.38 81c-5-6.92-7.73-15.87-15.4-19.92-3.59 5.17-8.17 10.8-16.84 10.39a20.45 20.45 0 0 1-13.85 3.76 23.49 23.49 0 0 1-12.7-5C5.68 62.59 0 49.87 0 32.73A33.64 33.64 0 0 1 3.17 18.2C6.63 10.88 11 5.82 19.53 3.57a16 16 0 0 1 1.83-.38c.64-.1 1.4.06 2.12-.1.72-.16 1.25-.8 1.92-1.15A18.31 18.31 0 0 1 32.91 0c6.48-.25 11.49 3 15.4 5.78a38.301 38.301 0 0 1 10 11.22A36.4 36.4 0 0 1 64 32.44c.77 6.39.84 13.32-1.07 19.05zm-5.2-32.81A39.401 39.401 0 0 0 48.4 7.81c-3.7-2.92-8.42-5.95-14-6.26a15.81 15.81 0 0 0-8.27 1.83c3.28.69 6 2.51 8.37 3.75 4.44-1 8.43 2.06 11 4.43 7 6.57 11.87 17 11.83 29.73a43.78 43.78 0 0 1-2.41 14.53c2.28-1.13 4.57-2.23 6.74-3.46C64.68 41 62.8 27 57.73 18.68zM15.3 6.75C9.69 9.48 6.54 14.29 4 19.93.56 27.3 1.17 40 3.37 48.41a39.72 39.72 0 0 0 12.51 20.21c5.94 4.88 16.43 7.63 24.63 2.21a25.318 25.318 0 0 0 4.71-4.52 22.471 22.471 0 0 0 4-5.39c3.58-7.71 3.91-18.78 1.63-27.23a46.09 46.09 0 0 0-11.44-20.3c-3.31-3.5-7.7-6.95-13-8.28A18.05 18.05 0 0 0 15.3 6.75zM35.7 8.1c1.83 1.53 4 3.54 5.87 5.38.62-.59 1.4-1 2-1.63-2.15-1.66-4.36-3.76-7.87-3.75zm8.66 4.71c-.63.56-1.43.95-2 1.54a73.52 73.52 0 0 1 4.91 6.83c.88-.52 1.82-1 2.69-1.54a25.43 25.43 0 0 0-5.6-6.83zm6.15 7.89c-.847.543-1.749.995-2.69 1.35 1.39 2.69 2.57 5.58 3.76 8.46a11.795 11.795 0 0 1 2.59-1.05 26.07 26.07 0 0 0-3.66-8.76zm3.86 9.91c-.842.36-1.711.651-2.6.87A48.426 48.426 0 0 1 53.6 40c.73-.11 1.35-.32 2.11-.39-.32-3.16-.47-6.45-1.34-9zm-.68 10.49a59.79 59.79 0 0 1-.29 9.62c.51-.08 1.25 0 1.35-.19a36.828 36.828 0 0 0 .87-9.82c-.633.176-1.278.306-1.93.39zm24.54 17.8c2.07 3.4 3.77 7.31 6.06 10.2 5.06 6.4 11.59 9.76 23.19 9.14.45-.61 1.27-1.86 1.15-2.41a24.23 24.23 0 0 1-15.1-2.11 25.21 25.21 0 0 1-7.7-6.54c-2.18-2.81-3.48-6.05-5.39-8.86-2.39-3.52-5.86-6.76-11.44-6.73 4.32.77 7.18 3.94 9.23 7.31zm-23.77-7c-.28-.18-.84.18-1.35.09-.25 1.93-1 3.87-1.25 5.48 1.55-1.19 2.04-3.47 2.6-5.59v.02zm4.33 3.55a13.06 13.06 0 0 1 4.52 1.45c1.94-1.31 4.14-2.34 5.68-4-4.12-1.19-7.63.91-10.2 2.53v.02zm11.45-2.11a25.941 25.941 0 0 1-5.77 4.33c3.53 2.66 6.08 6.3 8.46 10.1 2.3-1.24 4.73-2.32 6.17-4.42-2.24-4.07-4.42-8.18-8.86-10.03v.02zM76 76.89c-3.53-6-6.3-12.8-11.54-17.32-1.65-1.41-3.94-3.14-6.54-3.07-2.15 0-3.24 1.29-4.91 2-.05 0-.11.07 0 .09a11.181 11.181 0 0 1 4.52.29c5.17 1.55 9.14 6.6 11.74 10.68 3 4.67 5.31 9.9 8.76 13.76A23.92 23.92 0 0 0 86.21 89c3 1.31 7.07 2.84 11 3 2 .07 3.89-.2 4.23-2-13.32.17-20.59-4.84-25.44-13.11zM50.9 60.34a38.532 38.532 0 0 1-6.25 8.76c-.35.37-.91.77-.77 1.06 6.87-1 10.8-4.85 13.95-9.53-1.83-.86-4.73-.71-6.93-.29zm28.77 4.24a18.56 18.56 0 0 1-6.16 4.33C76.55 74.85 79.42 81 85 84.4c2.3-2.36 4.85-4.46 6.36-7.6-5.36-2.6-8.83-7.13-11.69-12.22zm12.6 12.8c-1.45 3.19-3.81 5.48-6.15 7.79 4 2.42 9.73 3.58 16.07 3.36 1.48-2.94 3.1-5.74 4.52-8.75-5.88.22-10.71-.52-14.44-2.4z" clip-rule="evenodd" fill-rule="evenodd" data-color="1"/>
            <path fill="#DFAA3C" d="M19.92 8.39c4.25-.6 7.75 1.2 10.49 2.88a29.68 29.68 0 0 1 7.31 6.06c3.69 4.32 7.09 11.36 8.56 18.09a34.492 34.492 0 0 1 .58 12.22 35.003 35.003 0 0 1-3.37 9.91c-2.18 4.61-4.6 8.34-9.33 10.68-1.42.71-3.65 1.75-5.39 1.64a21.43 21.43 0 0 1-14.62-6.64c-3.41-3.55-5.94-8.7-7.6-13.66A42.4 42.4 0 0 1 4.33 30.9c.69-6 2.4-11.66 5.39-15.78 1.92-2.65 6.13-6.12 10.2-6.73zm4.52 24.43a5.65 5.65 0 0 1 3.46 1.73c3.77-4.15 7.69-8.15 11.46-12.31a25.29 25.29 0 0 0-6.84-7.7c-3.13-2.33-6.53-5-11.83-4.71C22 17.42 23.35 25 24.44 32.82zm-4.52-20c-.18-1.28.07-3-1.16-2.6C10.72 13 7.32 21.29 5.58 30.8c4.69 1.77 9.49 3.41 14.24 5.1A7.71 7.71 0 0 1 23 33c-.94-6.22-2.17-13.54-3.08-20.19v.01zm20.3 11c0-.06 0-.11-.1-.1-2.9 3.09-6 6.2-8.94 9.14a19.408 19.408 0 0 0-2.7 3 7.27 7.27 0 0 1 .39 4.42c5.57 2.23 10.9 4.69 16.55 6.83 1.1-9.57-1.83-17.34-5.2-23.33v.04zm-30.89 29c3.74-3.3 7.37-7.46 11.26-10.82a6.39 6.39 0 0 1-1.25-4.62c-4.67-1.65-9-3.59-13.76-5.2C5 40.44 7 47 9.33 52.74v.08zm12.13-16.63c-1.37 2.54.47 6.06 2.89 6.06 4 0 4.2-6.37 1-7.7-1.94.03-3.29.52-3.89 1.64zm4.42 7.41a690.6 690.6 0 0 1 3.18 24.63c5.31-.44 8.46-3.53 10.77-7a40.912 40.912 0 0 0 5.3-12.61c-5.79-2.16-11-4.94-16.65-7.21a11.91 11.91 0 0 1-2.6 2.19zm-4-.67C18 46.38 13.73 50.27 9.91 54.09c3.72 6.83 7.85 13.26 17.61 14C26.63 60 25.6 52 24.82 43.7a4.41 4.41 0 0 1-2.98-.77h.04z" clip-rule="evenodd" fill-rule="evenodd" data-color="1"/>
            <path fill="#DFAA3C" d="M25.69 13.58c2.34.07 4.74 1.68 6.16 3A9.23 9.23 0 0 1 35 21.76c-1.75 2.46-2.86 5.25-4.72 8-.39.59-1.37 2.18-1.92 2.22-.55.04-1.16-.94-1.74-1.25-.58-.31-1.6-.44-1.92-1-.32-.56-.16-2.32-.1-3.65s0-2.48.1-3.75c.14-3.1 0-5.44.29-7.51 0-.3.21-.87.38-1a.52.52 0 0 1 .32-.24zm2.41 4.33c-.1 0-.12.08-.2.09-.83-.64-1.08-1.86-1.73-2.69-.17 2.19 1.16 2.89 1.45 4.62-.2 0-.13.26-.39.19-.64-.25-.59-1.21-1.06-1.63.09.67-.11 1.17 0 1.73.23 1.14 1.73 2 .77 2.89-.48-.23-.52-.9-.86-1.26-.18 1.51 1.37 2.27.86 3.47-.69.11-.51-.64-.86-.87-.21 1.24.53 1.52.57 2.5 0 .47-.61.06-.57.39 0 .8.76 1.4 0 1.92a11.3 11.3 0 0 1 2.11 1c2-2.73 3.7-5.79 5.58-8.65a13.4 13.4 0 0 0-6.83-6.64c.27.97 1.47 2.03 1.16 2.94z" clip-rule="evenodd" fill-rule="evenodd" data-color="1"/>
            <path fill="#DFAA3C" d="M15.1 15.41c1.32-.32 1.69 2.18 2 3.27.87 2.84 1.51 4.84 2.5 7.79.47 1.41 1.25 2.84 1.15 4-.05.67-2 3.12-2.59 3.18-.59.06-1.72-1.17-2.41-1.74-1.73-1.43-2.66-2.28-4.43-3.85-.54-.48-1.88-1.37-2-2-.19-.94.47-2.48.77-3.27a17.771 17.771 0 0 1 4.82-7.22.28.28 0 0 1 .19-.16zm1.55 14.33c0 .45-.75.16-1 .39.45.26 1.41 0 1.64.48.23.48-.15.43-.29.58.4.24.67.62 1.16.77.25-.68.9-1 1.15-1.64-1.38-4.3-2.653-8.74-3.82-13.32a16.451 16.451 0 0 0-4.81 7.8c.89.2 2.28-.1 2.4.86-.7.5-1.62-.24-2.59-.09.61 1.11 3.42 0 3.66 1.54-.66.34-1.62-.3-2.12-.1.47 1.1 2.93.21 3.36 1.35-.15.56-1.23 0-1.53.19.34 1 2.44.23 2.79 1.19z" clip-rule="evenodd" fill-rule="evenodd" data-color="1"/>
            <path fill="#DFAA3C" d="M39.55 29.65c1.77 2.66 2.79 7.78 1.83 11.93-2.63 0-5.12-.92-7.8-1.54-.87-.2-2-.25-2.4-.67-.4-.42-.27-1.3-.39-2.12a8.15 8.15 0 0 1-.29-1.44c.17-1 2.69-2.34 4-3.18 1.81-1.21 2.94-2 4.23-2.79a1.06 1.06 0 0 1 .82-.19zm-7.32 6.92c-.52-.06-.09-.77-.19-.86-.65.6.21 1.72 0 2.79 2.7.61 5.38 1.23 8.28 1.64a22.121 22.121 0 0 0-1-8.57c-.94.86-1.17 2.43-2.31 3.08a.46.46 0 0 1-.29-.29c.18-1 1.21-1.67 1.25-2.5-1.08.75-1.17 2.5-2.41 3.08 0-.08-.08-.11-.19-.1-.15-.85.74-1.18.58-1.73-1 .6-1.09 2.19-2.22 2.7a.58.58 0 0 1-.29-.29c-.09-.51.62-.73.39-1.06-.55.66-.71 1.76-1.6 2.11z" clip-rule="evenodd" fill-rule="evenodd" data-color="1"/>
            <path fill="#DFAA3C" d="M18.09 37.54c.34.37.3 1 .48 1.73.23.89.84 1.5.58 2.31S16 44 15.2 44.47c-.6.4-1.27.76-2.12 1.35-.56.39-1.53 1.4-2 1.34-.91-.12-1.72-3.55-1.92-4.52a31.88 31.88 0 0 1-.39-6c.23-.21.51-.69.87-.67 2.36.14 6.08 1.23 8.45 1.57zm-4.52 6.54c1.18-.36.77-2.31 1.73-2.88.69.21-.09 1.18.19 1.53 1-.25.49-2.07 1.54-2.31.4.13 0 .94.19 1.06.214-.177.442-.337.68-.48a5.76 5.76 0 0 1-.58-2.5c-2.52-.33-4.94-.77-7.41-1.15a17 17 0 0 0 1.35 7.31c.25-.77.22-1.83.86-2.21.24 0 .31.14.39.28 0 .9-.65 1.72-.48 2.51 1-.62.56-2.65 1.63-3.18.71.43-.25 1.57-.09 2.02z" clip-rule="evenodd" fill-rule="evenodd" data-color="1"/>
            <path fill="#DFAA3C" d="M51.19 42.83c-.11 0-.17 0-.19.1-.79-.27-.89-1.23-1.06-2.12.87-.51 1.26 1.35 1.25 2.02z" clip-rule="evenodd" fill-rule="evenodd" data-color="1"/>
            <path fill="#DFAA3C" d="M49.84 42.64a5.4 5.4 0 0 1 1.35 3.56c-.84.08-.85-.92-1.06-1.45a11.87 11.87 0 0 1-.67-1.82.701.701 0 0 0 .19-.29h.19z" clip-rule="evenodd" fill-rule="evenodd" data-color="1"/>
            <path fill="#DFAA3C" d="M51.19 50.15c-.73.1-.89-.88-1.06-1.35-.58-1.61-1.39-3.56-1.82-5.1-.08-.21.35-.4.38-.19a10 10 0 0 1 1.54 3.26c.43 1.08 1.25 2.23.96 3.38z" clip-rule="evenodd" fill-rule="evenodd" data-color="1"/>
            <path fill="#DFAA3C" d="M39.93 51.3c.15 4.9-2.23 7.09-4.9 9.53-.65.58-1.85 2.07-2.7 2-1-.07-1.21-2.16-1.54-3.47-.74-3-1.31-4.83-2-8-.28-1.24-.92-3.09-.77-4.13.1-.67.73-1 1.15-1.73.3-.55.56-2.24 1.55-1.83.875.505 1.681 1.12 2.4 1.83.81.64 1.64 1.23 2.4 1.82 1.64 1.31 3.38 2.46 4.41 3.98zm-7.5-4.81c-.65-.44-1.16-1-1.83-1.45-.24 1.08-1 1.62-1.45 2.51 1 4.74 2.41 9.08 3.57 13.66 2.35-2 4.82-3.9 5.58-7.51-.67-.32-2 0-2.12-.86.4-.62 1.53.07 2.21.09-.07-.29.17-.28.1-.57-.8-.55-2.76.06-3-1.06.71-.57 1.91.36 2.7 0-.89-1.07-3.61-.3-4.33-1.54.49-.68 1.84.27 2.5 0-.81-1.08-3.33-.45-4-1.64.37-.7 1.39.22 1.92-.09-.6-.84-2.59-.3-3-1.35.09-.59.98-.05 1.15-.19z" clip-rule="evenodd" fill-rule="evenodd" data-color="1"/>
            <path fill="#DFAA3C" d="M22.23 62.17c-2.13 0-3.3-1.46-4.72-2.79a19.621 19.621 0 0 1-1.83-2c-.47-.59-1.46-1.66-1.44-2.41.02-.75 1-1.56 1.44-2.21 1.56-2.13 3.09-4.16 4.62-6.16a4.09 4.09 0 0 1 3.18 1.26c0 3.38-.47 7.17-.68 11-.06 1.14.04 2.41-.57 3.31zm-1.35-14.43c-1.73 2.41-3.5 4.77-5.1 7.31a17.191 17.191 0 0 0 4.81 5.39c-.11-.95-1.63-2.21-.67-3 .67.59.81 1.7 1.35 2.41.49-1.5-1.67-2.71-.68-3.75.58.12.49.92.87 1.25.39-1.44-.8-2-1-3.17.16-.09.24-.27.57-.2.33.07.31.79.68 1 .32-1.4-1.18-1.93-.58-3 .56-.08.5.46.77.68.45-1-1.24-2-.39-2.79.43 0 .43.47.68.67.18-1.2-.85-1.71-.48-2.5-.39.02-.46-.29-.83-.3z" clip-rule="evenodd" fill-rule="evenodd" data-color="1"/>
            <path fill="#DFAA3C" d="M50.51 53.61c-.66.07-.86-.8-1-1.25a28.515 28.515 0 0 1-1.64-5.1c-.07-.22.36-.4.38-.2a12.481 12.481 0 0 1 1.36 3.28c.39 1.07 1.2 2.19.9 3.27z" clip-rule="evenodd" fill-rule="evenodd" data-color="1"/>
            <path fill="#DFAA3C" d="M49.65 56.88c-1.16-.27-1.34-2.13-1.73-3.27A12.27 12.27 0 0 1 46.86 50c.08-.08.26-.05.29-.19a.48.48 0 0 0 .29.1c.38 1.14.82 2.38 1.25 3.55.43 1.17 1.09 2.31.96 3.42z" clip-rule="evenodd" fill-rule="evenodd" data-color="1"/>
            <path fill="#DFAA3C" d="M46.28 52.93a8 8 0 0 1 1.25 3 8.121 8.121 0 0 1 .78 3.27c-1.12-.25-1.12-1.73-1.45-2.69-.33-.96-.71-2.18-1-3.18-.07-.26.19-.2.19-.39l.23-.01z" clip-rule="evenodd" fill-rule="evenodd" data-color="1"/>
            <path fill="#DFAA3C" d="M45.51 55.82c.65.53.85 1.74 1.16 2.7.31.96.87 2 .38 2.78-.79-.38-.89-1.52-1.15-2.4-.26-.88-.51-1.88-.77-2.69-.07-.27.19-.2.19-.39h.19z" clip-rule="evenodd" fill-rule="evenodd" data-color="1"/>
            <path fill="#DFAA3C" d="M44.93 58.52c.61 1.298.973 2.699 1.07 4.13-.68.26-.86-.82-1.07-1.54a6.449 6.449 0 0 1-.48-2.59h.48z" clip-rule="evenodd" fill-rule="evenodd" data-color="1"/>
            <path fill="#DFAA3C" d="M43.78 60.05a7.2 7.2 0 0 1 .87 2.32c.24.74.84 1.75.19 2.21-.68-.27-.76-1.24-1-1.93s-.41-1.51-.58-2.21c-.07-.26.19-.19.19-.39h.33z" clip-rule="evenodd" fill-rule="evenodd" data-color="1"/>
        </g>
        <defs fill="none">
            <clipPath id="5c8b918b-f91d-4ff8-a3f6-c3e0d7614272">
                <path fill="#ffffff" d="M110.27 0v93.13H0V0h110.27z"/>
            </clipPath>
        </defs>
    </g>
</svg>
