<?xml version="1.0" encoding="UTF-8"?>
<svg data-bbox="0 0 107.3 130.825" xmlns="http://www.w3.org/2000/svg" viewBox="0 0 108 131" height="131" width="108" data-type="color">
    <g>
        <g clip-path="url(#20875a87-ec9e-4480-a27c-f552021178c1)">
            <path fill="#DFAA3C" d="M0 27c2.29-1.56 5-2.4 7.5-3.56 15.11-6.94 30.69-13.24 46.19-20 1.17-.52 2.55-1.08 3.85-1.64A24 24 0 0 1 61.39.11c.11 0 .27-.15.38-.1.294.045.584.108.87.19.65.36 1.16 2 1.64 3.08C77 32.46 89.11 61.58 101.9 90.84c1.33 3 2.69 6.37 4.14 9.72.42 1 1.37 2.83 1.25 3.37-.18.78-2.77 1.62-3.66 2-18.24 8.07-36.43 15.56-54.94 23.5-1.22.52-3.07 1.63-4 1.35-.8-.24-1.2-1.76-1.72-3C28.31 93.91 14.17 61.17 0 27zM61.58 3.57c-.44 1.3-4.08 3-5.67 2.79-1-.14-1.41-1.42-2.12-1.35-.25 0-.35.32-.77.29 1.28 4.86 4.65 8.42 4.91 14.44-1.26 1.17-3 1.67-4.62 2.4-9.75 4.44-19.5 8.66-29.54 12.86-2.69 1.13-5.5 3.17-7.41.38-1.15-1.67-1.84-3.94-2.79-6s-1.79-4.16-2.79-6c-.47.11-.8.36-1.25.48.72 2-.87 2.8-2.41 3.46-.9.39-2.5 1.16-3.37 1.06-1.34-.15-1-1.66-2.21-1.25-.22.5.2 1 .38 1.45 1.68 3.77 3.3 7.41 4.91 11.16 12.4 28.76 24.86 57.44 37.05 86.31.28.67 1 3.07 1.53 3.08.78 0 .43-1.2.78-1.93.35-.73 1.34-1.09 2.3-1.44.96-.35 2.08-1 2.8-1 .92.07 1 1.06 1.73 1 .35 0 .44-.33 1-.38-1.09-2.93-2.8-6.68-4.23-9.82a14.914 14.914 0 0 1-1.44-3.36 4.389 4.389 0 0 1 1.63-4c10.22-4.29 22.19-9.12 33.1-13.47 1.36-.55 3.5-1.88 4.91-1.83 1.41.05 2.48 1.51 3.08 2.6 1.76 3.16 3.25 7.21 4.71 10.48.21.45.33 1.15.87 1.35 1.11-.16.43-1.15.68-1.92.25-.77 1.73-1.45 2.49-1.83 1.18-.58 2.34-1.24 3.38-1.06 1.04.18 1 1.63 2.3 1.15.2-.51-.19-1-.38-1.44C91 68.76 76.18 35.21 62.26 1.46h-.2c-.98.21-.2 1.27-.48 2.11zm-6.35.77c.19.75.89 1 1.83.67.94-.33 3.33-1.47 3.18-2.6-1.64.3-3.24 1.43-5.01 1.93zM12.31 22.82c1.46 3.45 2.66 6.7 4.33 10.1.45.89 1.3 2.53 2.22 2.6a9.273 9.273 0 0 0 2.31-1C31.51 30 41.57 26 51.67 21.27c1.27-.59 4.14-1.44 4.42-2.3.28-.86-.46-2.6-.76-3.56a47.442 47.442 0 0 0-3.95-9.34c-13.05 5.56-26 11.21-39.07 16.75zm-8.85 3.65c0 .35.28.43.39.68 1.07-.5 5.16-1.1 4.42-2.7-1.53.74-3.19 1.37-4.81 2.02zm87.18 71.78c-.86-1.75-1.3-3.73-3.56-3.36a22.721 22.721 0 0 0-5.68 2c-8.62 3.63-17.55 7.38-26.46 11.06-1.34.56-3.7 1.24-4.33 1.93-1.42 1.57-.12 3.75.58 5.38 1.46 3.45 2.72 6.49 4 9.72 13.41-5.64 26.71-11.39 40.13-17-1.32-2.98-3.13-6.56-4.68-9.73zm11.83 5.75c-1 0-3.45 1.66-4 2.11.14 0 .09.24.1.39 1.57-.29 3.24-1.31 4.91-1.83-.1-.56-.57-.67-1.01-.67zm-53.21 22.9c-1.1.43-2 .46-2 1.44 1.5-.504 2.95-1.146 4.33-1.92-.65-.59-1.4.14-2.33.51v-.03z" clip-rule="evenodd" fill-rule="evenodd" data-color="1"/>
            <path fill="#DFAA3C" d="M57.35 10.88a18.148 18.148 0 0 1 5.09-2.4c1.54-.43 2.14 1.2 2.7 2.4a5.78 5.78 0 0 1 .87 2.6c-.14 1.35-3 2.21-4.33 2.7a7.289 7.289 0 0 1-1.73.57c-.77-.08-1.68-1.77-1.93-2.31a7.999 7.999 0 0 1-.67-3.56zm5.87-1.25a30.26 30.26 0 0 0-4.72 1.74 5.718 5.718 0 0 0 1.83 4c1.49-.7 3.21-1.16 4.42-2.12a15.07 15.07 0 0 0-1.53-3.62z" clip-rule="evenodd" fill-rule="evenodd" data-color="1"/>
            <path fill="#DFAA3C" d="M70.53 24.45c-.66.78-1.76 1-2.89 1.54-.79.37-2.21 1.35-3.07 1.25-.86-.1-1.41-1.51-1.74-2.24-.41-.86-1.1-2.15-1-3 .17-1.07 4.27-2.71 5.39-2.89 1.35-.22 1.9 1.44 2.31 2.31a9.49 9.49 0 0 1 1 3.03zm-2.79-3.94A13.93 13.93 0 0 0 63 22.34c.57 1.31 1 2.77 2 3.66 1.33-.72 2.73-1.37 4.13-2a10.2 10.2 0 0 0-1.39-3.49z" clip-rule="evenodd" fill-rule="evenodd" data-color="1"/>
            <path fill="#DFAA3C" d="M58.6 24.65c2.64-.4 3.79 3.78 4.71 5.86 2.61 5.89 5.3 12.28 7.89 18.38.82 1.94 1.88 4.14.39 6-.68.84-3.18 1.72-4.53 2.31-9.52 4.24-18.75 8.12-28.38 12.42-1.32.59-3.6 1.9-4.91 1.83-2.86-.17-3.86-3.73-4.81-6-2.69-6.37-5-12.51-7.79-19.15-.74-1.77-1.62-4-.1-5.77.79-.9 3-1.46 4.52-2.12 10.7-4.48 22.1-9.74 32.81-13.66.06-.03.09-.09.2-.1zm-1.06 1.73c-10 4.35-20.87 8.82-31.27 13.27-1.61.69-3.65 1.36-4.14 2.31-.75 1.47.07 2.95.58 4.24 2.44 6.15 4.7 11.78 7 17.8.78 2 1.61 5.75 4 5.87 1.33.06 3.46-1.33 4.81-1.93 9.68-4.26 18.46-8 28.29-12.12 1.64-.68 3.78-1.3 4.14-2.69.31-1.21-.33-2.48-.87-3.66-2.88-6.47-5.83-13.09-8.59-19.63A14.154 14.154 0 0 0 60 26.67a3.81 3.81 0 0 0-2.22-.39c-.16.02-.18.07-.24.1z" clip-rule="evenodd" fill-rule="evenodd" data-color="1"/>
            <path fill="#DFAA3C" d="M75.05 35.13C73.5 36.56 71 37 68.89 37.92a6.199 6.199 0 0 1-1.83-2.31c-.36-.77-1.06-2.35-.86-3.27.2-.92 4.2-2.44 5.68-2.79 1-.24 1.86 1.53 2.21 2.21a7.62 7.62 0 0 1 .96 3.37zM72 30.71c-.75.52-4.3 1.32-4.52 2.21-.26 1 1.29 3.08 1.83 3.46a40.829 40.829 0 0 0 4.52-1.63A9.29 9.29 0 0 0 72 30.71z" clip-rule="evenodd" fill-rule="evenodd" data-color="1"/>
            <path fill="#DFAA3C" d="M11.26 31s.1-.11.19-.1c.71.08 1.2 1.79 1.54 2.5.34.71 1.2 2.34 1.06 3-.14.66-1.78 1.16-2.6 1.54-.82.38-2.06 1.23-3 1.16-1.29-.1-2.1-2.47-2.6-3.66a3.33 3.33 0 0 1-.39-1.64c.21-.73 1.94-1.2 2.7-1.53 1.14-.52 2.18-1.27 3.1-1.27zm-4.53 3.46c.67 1.07 1 2.5 1.93 3.27 1.4-.49 2.62-1.17 4-1.64a15.873 15.873 0 0 0-1.64-3.84c-1.33.81-3.02 1.32-4.29 2.21z" clip-rule="evenodd" fill-rule="evenodd" data-color="1"/>
            <path fill="#DFAA3C" d="M70.72 42.83c1.31-1.52 3.88-2.28 6-2.7.94.35 1.29 1.26 1.73 2.12.44.86 1.08 1.94.87 2.89-.3 1.29-3.21 2.07-4.33 2.5-.44.17-1.22.66-1.64.58-.66-.13-1.42-1.64-1.73-2.31a10.078 10.078 0 0 1-.9-3.08zm5.78-1.54c-1.64.61-3.52 1-4.53 2.21.48 1.23.8 2.61 1.83 3.27a17 17 0 0 0 4.2-1.92 8.43 8.43 0 0 0-1.5-3.56z" clip-rule="evenodd" fill-rule="evenodd" data-color="1"/>
            <path fill="#DFAA3C" d="M10.58 43.79a16.8 16.8 0 0 1 5-2.31c1.18-.41 1.66 1.47 2.11 2.6.3.73 1.06 1.91.87 2.69-.19.78-1.75 1-2.5 1.35-.75.35-1.89 1.15-2.79 1.06-.9-.09-1.37-1.45-1.73-2.31a9.299 9.299 0 0 1-.96-3.08zm5.1-1.15a37.826 37.826 0 0 1-3.84 1.63c.343 1.252.857 2.45 1.53 3.56 1.42-.31 2.46-1 3.85-1.35a10.062 10.062 0 0 0-1.54-3.84z" clip-rule="evenodd" fill-rule="evenodd" data-color="1"/>
            <path fill="#DFAA3C" d="M75.43 52.74a24.115 24.115 0 0 1 4.82-2.12c1.3-.46 2 1 2.6 2.12.38.76 1.08 2.1.86 3-.22.9-1.89 1.26-2.79 1.62-.9.36-2 1.35-3.08 1.25-1.67-.16-2.84-3.79-2.41-5.87zm5.2-1.06c-1.33.66-2.82 1.16-4.13 1.83 0 1.76.55 3 1.63 3.75a46.099 46.099 0 0 0 4.33-1.92c-.39-1.44-.77-2.89-1.83-3.66z" clip-rule="evenodd" fill-rule="evenodd" data-color="1"/>
            <path fill="#DFAA3C" d="M19.34 51.78c1.32-.22 1.88 1.17 2.41 2.4.41 1 1.12 2.52 1 3.27-.12.75-1.56 1.16-2.21 1.45-.65.29-1.91 1.1-2.64 1.1-1.1-.07-3.6-4.8-2.79-6.16.34-.63 3.33-1.92 4.23-2.06zm.19 1.06c-1.05.67-2.32 1.13-3.46 1.73a12.26 12.26 0 0 0 2 4 29.066 29.066 0 0 1 3.27-1.35c-.34-1.65-.74-3.36-1.81-4.38z" clip-rule="evenodd" fill-rule="evenodd" data-color="1"/>
            <path fill="#DFAA3C" d="M35.7 74.2c6.06-2.5 12.26-5 18.47-7.6 6.21-2.6 12.71-4.76 18.77-7.32 2.56-1.08 4.12 4.46 4.81 6.06 2.77 6.45 5.13 12 7.89 18.57.52 1.26 1.49 2.71 1.34 4-.19 1.57-2.26 2.19-4 3-9.81 4.39-19.43 8.47-29.34 12.8-2 .89-4.89 2.74-7.13 1.44-1.42-.82-2.57-4.64-3.27-6.25-2.58-6-4.61-10.87-7-16.74-.97-2.27-2.61-5.77-.54-7.96zm36.75-13.47c-10 4.31-20.81 8.61-31.27 12.79-1.47.59-3.84 1.33-4.42 1.93-1.4 1.44-.09 3.58.57 5.2 2.52 6.06 4.64 11.66 7 17.6.81 2 1.55 5.67 4.24 5.68 1.29 0 3.44-1.24 4.81-1.83 9.53-4 18.36-7.92 28.1-11.93 1.3-.53 4.15-1.39 4.33-2.41.13-.78-.9-2.67-1.35-3.65-3-6.7-6.26-14-9.23-20.88-.63-1.46-1.22-2.77-2.6-2.6-.1.02-.12.07-.18.1z" clip-rule="evenodd" fill-rule="evenodd" data-color="1"/>
            <path fill="#DFAA3C" d="M80.06 63.32c1.19-1 3.43-1.6 5.09-2.31.8-.33 1.89 1.21 2.22 1.83.55.93.817 2 .77 3.08-.18.75-1.76 1.35-2.6 1.73-.84.38-2.14 1.25-3.08 1.16-1.72-.17-3.04-3.54-2.4-5.49zm5.48-1A19.232 19.232 0 0 0 81 64.1c.12 1.48.62 3.27 1.73 3.36.48 0 1.42-.61 2-.86.79-.34 1.48-.64 2.12-.87a6.31 6.31 0 0 0-1.31-3.46v.05z" clip-rule="evenodd" fill-rule="evenodd" data-color="1"/>
            <path fill="#DFAA3C" d="M27.23 67.85c-1.27 1.26-3.33 1.74-5.1 2.5a5.82 5.82 0 0 1-1.73-2.5c-.36-.78-1.13-2.24-.87-3.27.26-1.03 3.41-1.85 4.53-2.31.86-.36 1.89 1.59 2.21 2.21a7.12 7.12 0 0 1 .96 3.37zm-3.08-4.33c-1.2.47-2.32 1-3.47 1.53a12.87 12.87 0 0 0 1.74 3.86c1.23-.44 2.4-.93 3.56-1.45a7.62 7.62 0 0 0-1.83-3.94z" clip-rule="evenodd" fill-rule="evenodd" data-color="1"/>
            <path fill="#DFAA3C" d="M91.79 77.66c-.734.426-1.508.781-2.31 1.06-.7.475-1.484.814-2.31 1-2 0-4.74-4.21-2.69-6.16.7-.41 1.44-.746 2.21-1 .91-.41 1.84-1.09 2.51-1a4.24 4.24 0 0 1 2.59 6.1zm-4.62.77A9.17 9.17 0 0 0 91 76.51c.78-1.37-.82-3.11-2-3.56a28.09 28.09 0 0 0-3.57 1.44c-.76 1.8.27 3.98 1.74 4.04z" clip-rule="evenodd" fill-rule="evenodd" data-color="1"/>
            <path fill="#DFAA3C" d="M31.85 78.34a14.71 14.71 0 0 1-2.51 1.34c-.79.37-1.9 1.07-2.59 1-1-.16-1.41-1.48-1.83-2.41a6.61 6.61 0 0 1-.86-3.27c1.12-.93 3-1.44 4.23-2 2-1 3.35 3.58 3.56 5.34zm-3.08-4.43c-1.12.68-2.51 1.08-3.56 1.83.51 1.28.84 2.75 1.82 3.56 1.19-.46 2.28-1 3.47-1.45a8.24 8.24 0 0 0-1.73-3.94z" clip-rule="evenodd" fill-rule="evenodd" data-color="1"/>
            <path fill="#DFAA3C" d="M88.81 83.82c1.83-.35 3-1.74 4.62-1.93 2.48-.28 4.57 4.26 3 6.07a7.932 7.932 0 0 1-2.31 1.15 7.372 7.372 0 0 1-2.4 1.06c-2.24.07-4.41-4.17-2.91-6.35zm2.79 5.1c1.23.06 3.18-1.79 4.05-2.12.36-1.63-1.05-4-2.22-3.56a33.779 33.779 0 0 0-3.75 1.64c-.26 1.85.51 3.96 1.92 4.04z" clip-rule="evenodd" fill-rule="evenodd" data-color="1"/>
            <path fill="#DFAA3C" d="M32.62 83.24c1-.15 1.6 1 2.21 2.22.47 1 1.32 2.73 1 3.56-.23.53-1.7 1-2.3 1.34-.6.34-1.69 1.15-2.7 1-1.01-.15-1.47-1.58-1.83-2.44-.36-.86-1.19-2.12-1-3.18.12-.57 3.43-2.32 4.62-2.5zm.09 1.16c-1.06.67-2.35 1.1-3.46 1.73a9.22 9.22 0 0 0 1.93 3.94c1.08-.55 2.23-1 3.36-1.54a8 8 0 0 0-1.83-4.13z" clip-rule="evenodd" fill-rule="evenodd" data-color="1"/>
            <path fill="#DFAA3C" d="M100.84 98.16c-.832.486-1.701.904-2.6 1.25-.8.39-1.78 1.21-2.69 1.15-1.72-.1-3.76-4-2.6-5.87 1.48-.73 3.34-1.6 4.71-2.21 1.91-.84 4.18 2.99 3.18 5.68zm-2.12-4.24c-1.29-.84-3.26 1.32-4.71 1.54a3.71 3.71 0 0 0 1.73 4c1.29-.86 3-1.3 4.13-2.31-.05-1.56-.37-2.72-1.15-3.23z" clip-rule="evenodd" fill-rule="evenodd" data-color="1"/>
            <path fill="#DFAA3C" d="M40.31 99.7a13.77 13.77 0 0 1-2.4 1.15c-.71.32-1.73 1.15-2.5 1.06-1-.12-1.62-1.7-2-2.5-.49-1-1.23-2.39-.76-3.47a12.198 12.198 0 0 1 4.35-2.4c.82 0 1.6.93 2 1.64a7.82 7.82 0 0 1 1.31 4.52zm-3.07-4.91a33.657 33.657 0 0 0-3.57 1.73 6.82 6.82 0 0 0 2 4c1.1-.56 2.38-1 3.46-1.54a9.82 9.82 0 0 0-1.89-4.19z" clip-rule="evenodd" fill-rule="evenodd" data-color="1"/>
            <path fill="#DFAA3C" d="M44.55 110a6.672 6.672 0 0 1-2.21 1.16c-.68.31-1.52 1.08-2.22 1.06-1.14 0-1.78-1.48-2.21-2.31-.43-.83-1.31-2.38-1.06-3.37.13-.53 4-2.55 4.91-2.5.91.05 1.59 1.66 1.92 2.5.453 1.106.745 2.271.87 3.46zm-3-4.71c-1.15.59-2.41 1.06-3.47 1.73a7.55 7.55 0 0 0 2 3.85c1.06-.42 2.06-.9 3.08-1.35-.29-1.63-.53-3.35-1.59-4.24l-.02.01z" clip-rule="evenodd" fill-rule="evenodd" data-color="1"/>
            <path fill="#DFAA3C" d="M49.07 120.39a7.352 7.352 0 0 1-2.4 1.15c-1.59.67-2.79 1.46-4-.1-.74-1-1.7-3.87-.77-4.9a17.076 17.076 0 0 1 4.24-1.83c1 0 1.82 1.42 2.21 2.21a5.69 5.69 0 0 1 .72 3.47zM46.28 116a24.62 24.62 0 0 0-3.56 1.63 4.639 4.639 0 0 0 1.63 3.56c1.22-.42 2.36-.92 3.57-1.34a6.749 6.749 0 0 0-1.64-3.85z" clip-rule="evenodd" fill-rule="evenodd" data-color="1"/>
        </g>
        <defs fill="none">
            <clipPath id="20875a87-ec9e-4480-a27c-f552021178c1">
                <path fill="#ffffff" d="M107.3 0v130.82H0V0h107.3z"/>
            </clipPath>
        </defs>
    </g>
</svg>
