<?xml version="1.0" encoding="UTF-8"?>
<svg data-bbox="0 0 147.67 168.268" xmlns="http://www.w3.org/2000/svg" viewBox="0 0 148 169" height="169" width="148" data-type="color">
    <g>
        <g clip-path="url(#9eca762c-95d5-4cec-9855-d3d88c4968af)">
            <path fill="#DFAA3C" d="M111.63 6.93c.61-.15 1.42-1.48 2.31-1.45.52 0 1.6 1.23 1.55 1.73a3.942 3.942 0 0 1-2.22 1.64c-.89-.03-1.27-1.22-1.64-1.92zm1 .19c.06.42.5.46.57.87.6-.11.79-.63 1.35-.78-.07-.44-.39-.63-.67-.86a6.238 6.238 0 0 1-1.28.77h.03z" clip-rule="evenodd" fill-rule="evenodd" data-color="1"/>
            <path fill="#DFAA3C" d="M116.64 9.52a1.69 1.69 0 0 1 1.63 1.74 3.68 3.68 0 0 1-2 1.54 1.902 1.902 0 0 1-1.54-1.74c.03-.56 1.42-1.44 1.91-1.54zm-1.06 1.54c0 .4.34.57.48.87.62-.12.88-.6 1.44-.77a2.084 2.084 0 0 0-.67-1c-.349.384-.775.69-1.25.9z" clip-rule="evenodd" fill-rule="evenodd" data-color="1"/>
            <path fill="#DFAA3C" d="M117.7 14.82c.64-.22 1.34-1.52 2.3-1.35a2.075 2.075 0 0 1 1.16 1.92 4.413 4.413 0 0 1-2.16 1.45c-.83-.06-1-1.25-1.3-2.02zm.86.38c.28.18.28.62.58.77.34-.36.93-.48 1.25-.87-.29-.22-.29-.74-.67-.86-.3.41-.88.54-1.16.96z" clip-rule="evenodd" fill-rule="evenodd" data-color="1"/>
            <path fill="#DFAA3C" d="M120.29 19.34c.45-.58 1.43-1.84 2.31-1.73a2.183 2.183 0 0 1 1.26 1.73 2.783 2.783 0 0 1-2.41 1.54c-.65-.16-.66-1.04-1.16-1.54zm1-.1c0 .46.37.47.39.87.56-.14.87-.54 1.35-.77-.25-1.34-1.14-.58-1.78-.1h.04z" clip-rule="evenodd" fill-rule="evenodd" data-color="1"/>
            <path fill="#DFAA3C" d="M124.05 25.21a6.02 6.02 0 0 1-1.05-1.73c.51-.56 1.39-1.79 2.21-1.74.5 0 1.39 1.31 1.35 1.83-.08.91-1.7 1.43-2.51 1.64zm-.19-1.73c.124.303.282.592.47.86.512-.175.975-.47 1.35-.86-.24-.25-.34-.63-.58-.87-.38.33-.84.57-1.24.87z" clip-rule="evenodd" fill-rule="evenodd" data-color="1"/>
            <path fill="#DFAA3C" d="M86.42 25.69c-.43.44-1.23 1.6-2.11 1.54A1.84 1.84 0 0 1 83 25.69c.08-.91 1.44-1 2-1.64a3 3 0 0 1 1.42 1.64zm-2.59 0c.086.322.294.599.58.77.315-.28.65-.537 1-.77 0-.38-.31-.52-.48-.77a7.694 7.694 0 0 1-1.1.77z" clip-rule="evenodd" fill-rule="evenodd" data-color="1"/>
            <path fill="#DFAA3C" d="M129 27.9c-.51.6-1.41 1.66-2.21 1.54-.8-.12-1-1.27-1.35-2 .64-.42 1.44-1.53 2.22-1.44.78.09.87 1.19 1.34 1.9zm-2.69-.19c.22.26.37.6.58.87.5-.14.76-.52 1.25-.68-.2-1.39-1.27-.9-1.88-.19h.05z" clip-rule="evenodd" fill-rule="evenodd" data-color="1"/>
            <path fill="#DFAA3C" d="M89.5 29.73a3.9 3.9 0 0 1-2.4 1.54c-.33-.76-1.31-1.06-1.16-1.92.15-.86 1.57-1.17 2.22-1.35a3.39 3.39 0 0 1 1.34 1.73zm-2.79-.1c.35.17.48.55.77.78a4.47 4.47 0 0 1 1.06-.68 1.429 1.429 0 0 0-.67-1c-.3.42-.87.51-1.16.9z" clip-rule="evenodd" fill-rule="evenodd" data-color="1"/>
            <path fill="#DFAA3C" d="M63.72 29.15a2 2 0 0 1-3 1.16c-.15-1.47 2.16-2.18 3-1.16zm-1.93.68a.81.81 0 0 0 .77-.39.65.65 0 0 0-.77.39z" clip-rule="evenodd" fill-rule="evenodd" data-color="1"/>
            <path fill="#DFAA3C" d="M64.1 30.79c-.5-1.45 3.1-2.51 3.27-1.06.11.86-2.32 2.27-3.27 1.06zm1-.38c.62.24 1-.22 1.26-.58a1.23 1.23 0 0 0-1.3.58h.04z" clip-rule="evenodd" fill-rule="evenodd" data-color="1"/>
            <path fill="#DFAA3C" d="M71.13 30.79c-.67 1.4-2.34 2.35-3.76.87.42-1.4 2.69-2.25 3.76-.87zm-2.6.67a1 1 0 0 0 1.47-.57 1.17 1.17 0 0 0-1.47.57z" clip-rule="evenodd" fill-rule="evenodd" data-color="1"/>
            <path fill="#DFAA3C" d="M129.72 30.41a1.434 1.434 0 0 1 1.37.947c.066.187.094.385.08.583 0 .64-1.45 1.73-2 1.74-.55.01-1.44-1.1-1.35-1.83.09-.73 1.31-1.35 1.9-1.44zm-1.15 1.44c.097.38.298.727.58 1 .36-.35.9-.51 1.25-.87-.3-1.25-1.02-.4-1.83-.13z" clip-rule="evenodd" fill-rule="evenodd" data-color="1"/>
            <path fill="#DFAA3C" d="M72.57 31.66c.62-.18 2 .15 2 .86 0 .37-1.18 1.4-1.73 1.44-.55.04-1.56-.44-1.64-.86-.14-.77.8-1.3 1.37-1.44zm-.39 1.25c.53.46 1.13-.07 1.45-.39-.56-.47-1.08-.06-1.45.39z" clip-rule="evenodd" fill-rule="evenodd" data-color="1"/>
            <path fill="#DFAA3C" d="M90.66 32c.07 0 .2-.13.39-.1a2.579 2.579 0 0 1 1.24 1.83c-.06.54-1.36 1.47-1.92 1.45a2.18 2.18 0 0 1-1.45-1.83C89 32.94 90 32.14 90.66 32zm-.87 1.54c.25.23.27.7.68.77.34-.24.76-.39 1-.77-.3-.98-1.26-.68-1.68.04v-.04z" clip-rule="evenodd" fill-rule="evenodd" data-color="1"/>
            <path fill="#DFAA3C" d="M78.44 34.35c-.41.46-1.12 1.57-1.83 1.63-.71.06-1.3-.61-1.83-1a2.06 2.06 0 0 1 3.66-.63zm-2.6.48c.24.08.38.27.67.29.27-.25.62-.41.87-.67a3.36 3.36 0 0 1-.67-.39c-.21.34-.71.38-.87.77z" clip-rule="evenodd" fill-rule="evenodd" data-color="1"/>
            <path fill="#DFAA3C" d="M133.28 36.76c-.7.29-1.5 1.56-2.31 1.44-.46-.07-1.23-1.4-1.15-1.93.12-.85 1.92-1.53 2.7-1.44.379.586.638 1.242.76 1.93zm-2.6-.49c.066.39.235.757.49 1.06.361-.338.786-.6 1.25-.77a1.693 1.693 0 0 0-.48-1.05 2.9 2.9 0 0 1-1.26.76z" clip-rule="evenodd" fill-rule="evenodd" data-color="1"/>
            <path fill="#DFAA3C" d="M82.09 36.85c-.39.73-1.29.95-1.82 1.54-1.27-.63-2.57-1-1-2.12.24-.17.72-.64 1-.67.89-.09 1.39.8 1.82 1.25zm-2.59.29c.51.56 1.21 0 1.54-.38-.52-.56-1.19-.03-1.54.38z" clip-rule="evenodd" fill-rule="evenodd" data-color="1"/>
            <path fill="#DFAA3C" d="M92.87 39.35c-.34-.51-1.2-1.19-1.15-1.82.05-.63 1.67-1.73 2.5-1.35a2.38 2.38 0 0 1 .87 1.63c-.09.9-1.28 1.08-2.22 1.54zm-.29-1.73c.24.24.34.62.58.87a7.69 7.69 0 0 1 1.15-.68c-.16-1.11-1.21-.81-1.73-.19z" clip-rule="evenodd" fill-rule="evenodd" data-color="1"/>
            <path fill="#DFAA3C" d="M83.73 38.2c.49-.1 1.85.54 1.83 1.25a3.4 3.4 0 0 1-2 1.64c-.58 0-1.54-.76-1.54-1.35 0-.59 1.13-1.42 1.71-1.54zm-.87 1.44c.09.34.39.45.68.58.423-.238.813-.53 1.16-.87-.36-.06-.47-.36-.78-.48-.3.322-.66.584-1.06.77z" clip-rule="evenodd" fill-rule="evenodd" data-color="1"/>
            <path fill="#DFAA3C" d="M135.4 41.09a6.482 6.482 0 0 1-2.5 1.44c-.52-.44-.66-1.27-1-1.93.54-.45 1.56-1.62 2.31-1.53.75.09.88 1.18 1.19 2.02zm-2.59-.29c.16.22.22.54.38.77.56-.12.82-.53 1.35-.68-.11-.37-.19-.77-.48-1-.35.4-.89.56-1.25.91z" clip-rule="evenodd" fill-rule="evenodd" data-color="1"/>
            <path fill="#DFAA3C" d="M114.71 85.92A113.942 113.942 0 0 0 107 59.27c-.83-2-1.67-3.4-.49-5.39.87-1.44 3.5-2.63 5.1-3.65 4.48-2.86 8.8-5.67 13.28-8.47 1.37-.85 3.53-2.69 5.59-1.54.71.4 1.34 2.15 1.82 3.27a136.274 136.274 0 0 1 6.26 19.15c.3 1.16.72 2.59 1 4 .456 1.34.748 2.73.87 4.14a6.186 6.186 0 0 1-2.12 3.36 51.843 51.843 0 0 1-5.1 3.28c-3.18 2.07-6.84 4.37-10.19 6.54-2.28 1.56-5.59 4.8-8.31 1.96zM125.2 43.1c-4.49 3-8.75 5.82-13.28 8.76-2 1.3-4.41 2.2-4.33 4.53a15.1 15.1 0 0 0 1.25 3.46 109.617 109.617 0 0 1 6.65 21.74c.17 1 .35 3.43 1 3.85 1 .69 2.2-.39 3.08-1 5-3.22 9-5.61 13.95-8.66 1.66-1 4.38-2.33 5.1-3.94.72-1.61-.14-3.32-.58-5.2-2.11-8.93-4.89-18-8.37-25.21-2.08-.34-3.05.73-4.47 1.67z" clip-rule="evenodd" fill-rule="evenodd" data-color="1"/>
            <path fill="#DFAA3C" d="M97.78 42.14a3.78 3.78 0 0 1-2.22 1.55 4.78 4.78 0 0 1-1.15-1.93 3.249 3.249 0 0 1 2.22-1.45c.57.42.72 1.27 1.15 1.83zm-2.51-.38c.17.38.22.88.68 1 .268-.197.56-.358.87-.48-.05-1.28-.82-1.07-1.55-.52z" clip-rule="evenodd" fill-rule="evenodd" data-color="1"/>
            <path fill="#DFAA3C" d="M87.19 41.28a1.53 1.53 0 0 1 1.93 1.35A3.6 3.6 0 0 1 87 44.26a2.782 2.782 0 0 1-1.63-1.44c-.04-.66 1.26-1.41 1.82-1.54zm-.86 1.54c.32.12.36.53.77.58a4.64 4.64 0 0 1 1.15-.77c-.38-1.12-1.4-.34-1.92.19z" clip-rule="evenodd" fill-rule="evenodd" data-color="1"/>
            <path fill="#DFAA3C" d="M68 71.59a60.386 60.386 0 0 0-7-9.24c-.79-.87-2.26-1.81-2.5-2.79-.63-2.59 1.58-3.68 3.18-4.72C67 51.41 72.5 47.77 77.86 44.36c1.66-1.06 3.49-2.41 6.06-1.54 1.11.37 2.12 1.65 3 2.6a52.762 52.762 0 0 1 10.88 17c.46 1.16 1 2.6 1.54 4 .82 2.34 1.81 4.59.29 6.64a10.701 10.701 0 0 1-2.79 2C91 78.85 85.48 82.49 79.4 86.41c-1.44.92-3.34 2.38-4.81.77-.7-.77-1-3.15-1.35-4.24A59.706 59.706 0 0 0 68 71.59zm11.21 13.28c5-3.23 9.56-6.19 14.72-9.34 1.81-1.1 4.81-2.49 5-4.71.1-1.09-.61-2.87-1.06-4.14a69.86 69.86 0 0 0-4.9-11 48.575 48.575 0 0 0-6.93-9c-.85-.93-1.76-2.24-2.69-2.6-2.5-.92-4.32 1-5.78 1.93-4.47 2.95-8.49 5.66-13 8.66-1.44 1-4.59 2.33-4.52 4.13 0 .94 1.68 2.08 2.4 2.89 1 1.07 1.85 2.11 2.51 2.89 5 6 8.3 13.33 10.87 21.26 1.33.6 2.45-.37 3.38-.97z" clip-rule="evenodd" fill-rule="evenodd" data-color="1"/>
            <path fill="#DFAA3C" d="M137 45.71c-.62.52-1.46.84-2.11 1.34a2.074 2.074 0 0 1-1.06-2 6.47 6.47 0 0 1 2.31-1.44c.415.64.707 1.353.86 2.1zm-2.4-.39c0 .3.22.42.2.77a4.318 4.318 0 0 0 1.34-.77c-.25-.13-.16-.61-.38-.77a8.355 8.355 0 0 1-1.13.77h-.03z" clip-rule="evenodd" fill-rule="evenodd" data-color="1"/>
            <path fill="#DFAA3C" d="M90.66 44.55c.57-.1 1.78.76 1.73 1.54a3.33 3.33 0 0 1-2.12 1.64 2.58 2.58 0 0 1-1.53-1.55c-.04-.76 1.26-1.52 1.92-1.63zm-1.06 1.63c.31.17.46.51.77.68.37-.27.78-.5 1.15-.77-.25-1.23-1.44-.5-1.92.09z" clip-rule="evenodd" fill-rule="evenodd" data-color="1"/>
            <path fill="#DFAA3C" d="M98.07 47.92a3.41 3.41 0 0 1-1.25-2.12c.54-.42 1.17-1.41 1.92-1.35a2.33 2.33 0 0 1 1.26 2.31c-.32.76-1.38.66-1.93 1.16zm.48-2.6a2.29 2.29 0 0 1-.87.58c.056.404.222.784.48 1.1.45-.06.65-.37 1.06-.48-.22-.47-.22-.99-.67-1.2z" clip-rule="evenodd" fill-rule="evenodd" data-color="1"/>
            <path fill="#DFAA3C" d="M37.26 46.38a2.12 2.12 0 0 1-1.83 2.5c-.16-.13-.31-.27-.48-.39-.05-1.42 1.31-2.66 2.31-2.11zM36 47.82a.9.9 0 0 0 .38-.58c-.25.01-.64.38-.38.58z" clip-rule="evenodd" fill-rule="evenodd" data-color="1"/>
            <path fill="#DFAA3C" d="M137.9 48.11c.18.69.9 1.19.77 1.93s-2 1.57-2.31 1.53c-.74-.08-.8-1.1-1.06-1.92a4.51 4.51 0 0 1 2.6-1.54zm-1.73 1.73c0 .38.22.49.19.87.54-.2.93-.54 1.45-.77-.12-.33-.15-.75-.39-1-.42.36-.84.61-1.25.9z" clip-rule="evenodd" fill-rule="evenodd" data-color="1"/>
            <path fill="#DFAA3C" d="M93.07 51.67c-.54-.51-1.61-1.31-1.45-2 .16-.69 1.68-.82 2.21-1.44.57.49 1.51 1.11 1.44 1.83-.07.94-1.52 1.03-2.2 1.61zm-.49-1.83c0 .43.39.51.49.87a6.99 6.99 0 0 0 1.34-.71c-.11-.45-.45-.65-.67-1a4.42 4.42 0 0 1-1.16.84z" clip-rule="evenodd" fill-rule="evenodd" data-color="1"/>
            <path fill="#DFAA3C" d="M39.66 51.38c-.4-.3-1-.39-1.25-.87a3.391 3.391 0 0 1 2-1.82c.64-.17 1.64.09 1.73.67.21 1.14-1.82 1.43-2.48 2.02zm-.29-1c.74.14 1.36-.54 1.83-1-.76-.1-1.32.62-1.83 1.04v-.04z" clip-rule="evenodd" fill-rule="evenodd" data-color="1"/>
            <path fill="#DFAA3C" d="M102.3 50.9a2.843 2.843 0 0 1-2 1.06c-.32-.55-1-1.13-1-1.83a2 2 0 0 1 2-1.25c.7.22.92 1.05 1 2.02zm-2.21-.67c.27.24.3.72.58 1 .22-.26.59-.36.86-.58-.08-1.11-.9-1.08-1.44-.42z" clip-rule="evenodd" fill-rule="evenodd" data-color="1"/>
            <path fill="#DFAA3C" d="M34 52.44c-1.14-1.45 1.27-3.27 2.22-2.31 0 .61-.27.88-.29 1.44a3.83 3.83 0 0 1-1.93.87zm.48-1c.35 0 .43-.28.78-.29 0-.14 0-.35-.1-.39-.23.29-.67.29-.7.72l.02-.04z" clip-rule="evenodd" fill-rule="evenodd" data-color="1"/>
            <path fill="#DFAA3C" d="M45.63 51c-.74 1.25-2.86 2.58-4 1 .52-1.52 2.81-2.5 4-1zm-3 .87c.3 0 .37.14.57.2.33-.42.93-.55 1.25-1-.72-.41-1.36.35-1.8.79l-.02.01z" clip-rule="evenodd" fill-rule="evenodd" data-color="1"/>
            <path fill="#DFAA3C" d="M33.41 51.77a56.232 56.232 0 0 0-1.74 25.69c.364 1.184.53 2.421.49 3.66-.38 1.85-3.56 3.29-5.3 4.42-5.16 3.36-9.48 6.1-14.72 9.46-1.54 1-3.38 2.68-5.39 1.15-1.65-6-1.56-13.65-1-20.49.37-4.17 1-7.61 3.08-9.91 1.35-1.45 3.82-2.62 5.58-3.76 3.91-2.53 7.35-4.92 11.26-7.4A61.43 61.43 0 0 1 31.39 51c.78-.38 1.55.21 2.02.77zm-20.5 13a19.282 19.282 0 0 0-2.69 1.73c-2.05 2-2.67 5.52-3 9.24a79.159 79.159 0 0 0 .19 16.45c.12.92.15 2.1.86 2.69 1.25.41 2.22-.6 3.08-1.15 4.72-3 9.12-5.71 14-8.66 1.58-1 4.72-2.36 5.19-3.85.52-1.66-.54-4.35-.77-6.16a56.73 56.73 0 0 1 2-22.8c0-.06 0-.12-.1-.1-5.79 3.93-12.67 8.6-18.76 12.6v.01z" clip-rule="evenodd" fill-rule="evenodd" data-color="1"/>
            <path fill="#DFAA3C" d="M49.09 53c-.65 1.3-2.65 2.36-3.75.86.27-1.63 2.88-2.44 3.75-.86zm-2.79.67c.71.45 1.37-.2 1.73-.67-.68-.45-1.34.27-1.73.69v-.02z" clip-rule="evenodd" fill-rule="evenodd" data-color="1"/>
            <path fill="#DFAA3C" d="M97.78 54.27a6.83 6.83 0 0 1-2.31 1.54c-.27-.63-1.15-1.08-1.16-1.73-.01-.65 1.83-2.13 2.6-1.64.6.38.42 1.04.87 1.83zm-2.6-.39c0 .5.45.51.48 1a3.72 3.72 0 0 0 1.25-.88c-.27-.21-.25-.71-.57-.87a2.55 2.55 0 0 1-1.16.75z" clip-rule="evenodd" fill-rule="evenodd" data-color="1"/>
            <path fill="#DFAA3C" d="M139.63 52.73c.263.61.428 1.258.49 1.92a4.2 4.2 0 0 1-2.6 1.35 3.59 3.59 0 0 1-.49-2.31c.81-.34 1.48-1.25 2.6-.96zm-1.92 1.44c0 .34.22.56.19 1a2.94 2.94 0 0 0 1.44-.86 1.348 1.348 0 0 1-.18-.77c-.66.01-.91.46-1.45.63z" clip-rule="evenodd" fill-rule="evenodd" data-color="1"/>
            <path fill="#DFAA3C" d="M104.42 55.13c-.43.54-1.26 1.48-1.93 1.35-.67-.13-.8-1.37-1-2.21.56-.36 1.16-1.22 1.82-1.16.66.06.97 1.34 1.11 2.02zm-2.22-.48c.28.25.31.72.58 1a2 2 0 0 1 .87-.58c-.19-.36-.17-.92-.58-1.06-.18.3-.69.3-.87.64z" clip-rule="evenodd" fill-rule="evenodd" data-color="1"/>
            <path fill="#DFAA3C" d="M32.83 56.67c-.67-1.69.79-2.84 2-3.27 1 .27.38 1.59.19 2.31-.74.29-1.2.89-2.19.96zm.67-1.05c.55-.1 1.24-.56 1-1.16-.41.33-1.03.42-1 1.16z" clip-rule="evenodd" fill-rule="evenodd" data-color="1"/>
            <path fill="#DFAA3C" d="M52.65 55.71c-.615.6-1.33 1.09-2.11 1.45-.54-.36-1.46-.44-1.54-1.06-.18-1.24 3.52-2.71 3.65-.39zM50 56c.25 0 .29.29.58.29.406-.222.79-.48 1.15-.77-.55-.77-1.34.07-1.73.48z" clip-rule="evenodd" fill-rule="evenodd" data-color="1"/>
            <path fill="#DFAA3C" d="M99.42 56.58c.12.68.81 1.2.67 1.92S98.24 60.07 98 60c-.77-.07-.9-1.25-1.15-2.11.74-.51 1.25-1.31 2.57-1.31zm-1.74 1.54c.03.38.165.743.39 1.05a6.94 6.94 0 0 1 1.15-.76 1.452 1.452 0 0 0-.38-1.06 3.62 3.62 0 0 1-1.16.77z" clip-rule="evenodd" fill-rule="evenodd" data-color="1"/>
            <path fill="#DFAA3C" d="M56.4 58.21c-.47.75-1.4 1-2 1.64-.53-.42-1.61-.73-1.63-1.35 0-.81 1.61-1.34 2.4-1.73.4.48 1.04.74 1.23 1.44zm-2.69.29c.25.11.36.35.67.38a4.068 4.068 0 0 1 1.06-.67c-.3-1.1-1.25-.07-1.73.29z" clip-rule="evenodd" fill-rule="evenodd" data-color="1"/>
            <path fill="#DFAA3C" d="M138.38 58.6a4.652 4.652 0 0 1 2.22-1.35 2.11 2.11 0 0 1 .67 1.83c-.19.85-2 1.48-2.31 1.35-.45-.22-.51-1-.58-1.83zm.78.19c-.07.36.16.41.09.77.5-.1.79-.43 1.25-.58-.06-.32-.07-.7-.29-.86a1.92 1.92 0 0 1-1.05.67z" clip-rule="evenodd" fill-rule="evenodd" data-color="1"/>
            <path fill="#DFAA3C" d="M105.77 57.83a2.004 2.004 0 0 1 .202 2.009A2.007 2.007 0 0 1 104.32 61c-.42-.55-1-1.39-.86-2.12.14-.73 1.45-1.22 2.31-1.05zm-1.55 1.25c.06.36.31.53.29 1 .4-.08.57-.4 1-.48-.1-.39-.08-.88-.39-1.06a3.573 3.573 0 0 1-.9.54z" clip-rule="evenodd" fill-rule="evenodd" data-color="1"/>
            <path fill="#DFAA3C" d="M34.46 58.12a9.261 9.261 0 0 1-.19 1.73c-.73.32-1.19.92-2.21 1a1.91 1.91 0 0 1 2.4-2.73zm-1.82 1.15c0 .17-.12.57.09.58.27-.193.562-.354.87-.48.17-1.04-.66-.25-.96-.1z" clip-rule="evenodd" fill-rule="evenodd" data-color="1"/>
            <path fill="#DFAA3C" d="M59.77 61.77c-.67.45-1.42.83-2.11 1.25A3 3 0 0 1 56 61.49C56.52 61 57.3 60 58 60s1.36 1.1 1.77 1.77zM57 61.49c.26.92 1.29.41 1.73 0-.52-.8-1.07-.41-1.73 0z" clip-rule="evenodd" fill-rule="evenodd" data-color="1"/>
            <path fill="#DFAA3C" d="M99.61 64.56c-.39-.5-1-1.32-.87-1.92.14-.83 1.8-1.5 2.6-1.44 1.24 1.5.04 3.26-1.73 3.36zm0-1.82c0 .42.23.59.28 1 .5-.14.76-.52 1.26-.68 0-.38-.17-.67-.2-1.06-.59.07-.82.55-1.34.74z" clip-rule="evenodd" fill-rule="evenodd" data-color="1"/>
            <path fill="#DFAA3C" d="M141.94 61.77a3.19 3.19 0 0 1 .49 2 4.281 4.281 0 0 1-2.51 1.35 4.494 4.494 0 0 1-.38-2 3.999 3.999 0 0 1 2.4-1.35zm-1.63 1.54c-.08.4.15.5.1.87.52-.08.74-.47 1.25-.58 0-.39.05-.88-.3-1a2.377 2.377 0 0 1-1.05.71z" clip-rule="evenodd" fill-rule="evenodd" data-color="1"/>
            <path fill="#DFAA3C" d="M34.18 62.16a2.63 2.63 0 0 1-2.7 3.08c-.76-1.83 1.13-3.88 2.7-3.08zm-2 1.34v.78c.57-.18 1.57-.92 1.05-1.54a4 4 0 0 1-1.07.76h.02z" clip-rule="evenodd" fill-rule="evenodd" data-color="1"/>
            <path fill="#DFAA3C" d="M107.4 62.25a1.855 1.855 0 0 1 .411 2.08 1.85 1.85 0 0 1-1.811 1.1 1.796 1.796 0 0 1-.516-2.126 1.8 1.8 0 0 1 1.916-1.054zm-1.16 2.31a1.83 1.83 0 0 0 1.06-.67c-.15-.17-.12-.51-.19-.77-.83.06-1.48.72-.87 1.44z" clip-rule="evenodd" fill-rule="evenodd" data-color="1"/>
            <path fill="#DFAA3C" d="M60.83 66.39c-.67-.27-1.55-1-1.54-1.54 0-.86 1.43-1 2.12-1.54.55.38 1.44.85 1.44 1.45 0 .89-1.45.98-2.02 1.63zm-.58-1.63c.12.29.21.62.58.67.39-.16.67-.42 1.06-.58-.18-1.11-1.05-.37-1.64-.09z" clip-rule="evenodd" fill-rule="evenodd" data-color="1"/>
            <path fill="#DFAA3C" d="M7.24 65.33c.55 1.42-.65 2.59-2.22 2.51-.35-1.55.9-2.31 2.22-2.51zm-1.35 1.54c.25 0 .73-.28.48-.48-.1.23-.48.16-.48.48z" clip-rule="evenodd" fill-rule="evenodd" data-color="1"/>
            <path fill="#DFAA3C" d="M103.46 67.74c-.71.65-1.58 1.6-2.79 1.44-.09-.76-.56-1.34-.39-2a3.53 3.53 0 0 1 2.31-1.54c.78.14.59 1.13.87 2.1zm-2.41-.39c.045.337.108.67.19 1 .57-.12.83-.53 1.35-.68a1.427 1.427 0 0 0-.29-1.15c-.38.29-.84.54-1.25.83z" clip-rule="evenodd" fill-rule="evenodd" data-color="1"/>
            <path fill="#DFAA3C" d="M143 66.3a3.92 3.92 0 0 1 .38 2.11 22.5 22.5 0 0 1-2.11 1.16c-.62-.31-.67-1.19-.67-2.12a4.86 4.86 0 0 1 2.4-1.15zm-1.64 1.54c-.012.27.057.54.2.77.309-.265.67-.462 1.06-.58a1.181 1.181 0 0 0-.19-.87c-.26.32-.73.43-1.07.68z" clip-rule="evenodd" fill-rule="evenodd" data-color="1"/>
            <path fill="#DFAA3C" d="M33.79 66.49a5.6 5.6 0 0 1 .21 2.12 5.44 5.44 0 0 1-1.92 1.24c-1.66-1.21.06-3.38 1.71-3.36zm-1.63 1.64c0 .28-.11.74.19.76.242-.183.5-.344.77-.48-.14-.34.25-.92-.1-.86a4.788 4.788 0 0 1-.86.58z" clip-rule="evenodd" fill-rule="evenodd" data-color="1"/>
            <path fill="#DFAA3C" d="M109.23 66.78c.416.622.62 1.362.58 2.11A5.083 5.083 0 0 1 107.4 70a3.002 3.002 0 0 1-.77-2 3.25 3.25 0 0 1 2.6-1.22zm-1.83 1.44c0 .34.26.51.29.87.61 0 .87-.42 1.35-.58.03-1.42-1.04-.75-1.64-.29z" clip-rule="evenodd" fill-rule="evenodd" data-color="1"/>
            <path fill="#DFAA3C" d="M63.81 70.24c-.52-.57-1.39-1-1.25-1.83.14-.83 1.36-1 2-1.35.4.63 1.28 1.11 1.16 1.83-.12.72-1.3.88-1.91 1.35zm-.38-1.54c.13.25.23.54.58.58.34-.11.48-.41.86-.48-.07-1.03-1.13-.8-1.44-.1z" clip-rule="evenodd" fill-rule="evenodd" data-color="1"/>
            <path fill="#DFAA3C" d="M6.37 69.09A2.72 2.72 0 0 1 6 70.82c-.74.15-1.35.84-2.11.67a1.94 1.94 0 0 1 2.48-2.4zm-1.64 1.44c.22-.26.84-.13.78-.68-.31.15-1.08.28-.78.68z" clip-rule="evenodd" fill-rule="evenodd" data-color="1"/>
            <path fill="#DFAA3C" d="M104 70.63c1 2.07-.76 2.89-2 3.55-2-1.36.32-4.38 2-3.55zm-2.12 1.54c.046.346.144.683.29 1 .433-.356.883-.69 1.35-1a3.578 3.578 0 0 1-.09-1c-.66.24-.92.83-1.52 1h-.03z" clip-rule="evenodd" fill-rule="evenodd" data-color="1"/>
            <path fill="#DFAA3C" d="M34.27 72.94c-.65.31-1.27 1.5-2.11 1.34-.62-.11-.85-1.22-.68-1.92.21-.89 2.07-2.07 2.7-1.25a9.808 9.808 0 0 0 .09 1.83zm-2-.48c0 .36-.07.84.19 1 .26-.38.84-.45 1.06-.86-.27-.07.09-.79-.19-.87a8.93 8.93 0 0 0-1.08.73h.02z" clip-rule="evenodd" fill-rule="evenodd" data-color="1"/>
            <path fill="#DFAA3C" d="M143.77 70.91c.232.64.33 1.32.29 2a8.78 8.78 0 0 1-2.21 1.24c-.64-.25-.52-1.26-.67-2 .74-.48 1.52-1.39 2.59-1.24zm-1.83 1.64c.22 0 0 .47.1.67.441-.175.86-.4 1.25-.67a.943.943 0 0 0-.19-.77c-.34.3-.83.45-1.16.77z" clip-rule="evenodd" fill-rule="evenodd" data-color="1"/>
            <path fill="#DFAA3C" d="M66.6 74.57c-.53-.54-1.39-1.34-1.25-2.11.14-.77 1.34-.94 1.93-1.45a2.471 2.471 0 0 1 1.15 2.12c-.16.8-1.28.99-1.83 1.44zm-.39-1.83c.164.273.295.566.39.87.47-.08.66-.44 1.06-.58-.01-1.21-1.06-1.18-1.45-.29z" clip-rule="evenodd" fill-rule="evenodd" data-color="1"/>
            <path fill="#DFAA3C" d="M110.67 71.3c.414.66.616 1.431.58 2.21-.79.29-1.51 1.32-2.21 1.16a1.858 1.858 0 0 1-1-2c.23-.83 1.78-1.28 2.63-1.37zm-1.83 1.54c.073.353.204.691.39 1a4.758 4.758 0 0 1 1.25-.76c0-.38-.19-.58-.19-1-.67.13-.94.56-1.45.76z" clip-rule="evenodd" fill-rule="evenodd" data-color="1"/>
            <path fill="#DFAA3C" d="M5.6 72.84a5.41 5.41 0 0 1-.2 1.73 9.35 9.35 0 0 1-2.49 1.06 2.21 2.21 0 0 1 2.69-2.79zm-1.83 1.73a2.71 2.71 0 0 1 1-.48.63.63 0 0 1 .1-.48c-.55.11-1.37.39-1.1.96z" clip-rule="evenodd" fill-rule="evenodd" data-color="1"/>
            <path fill="#DFAA3C" d="M104.71 75.63c.072.607.102 1.219.09 1.83-.72.48-1.52 1.34-2.69 1.06-1.03-1.97 1.17-3.79 2.6-2.89zm-2.12 1.25c.088.278.122.57.1.86a3.002 3.002 0 0 0 1.34-.67c0-.33.15-.91-.19-1-.399.296-.817.566-1.25.81z" clip-rule="evenodd" fill-rule="evenodd" data-color="1"/>
            <path fill="#DFAA3C" d="M144.54 75.24c.26.678.295 1.42.1 2.12a3.19 3.19 0 0 1-2.12 1.06c-.47-.3-.22-1.31-.28-2a6.151 6.151 0 0 1 2.3-1.18zM143 76.78v.68c.4 0 .57-.34 1-.39v-.77c-.43.09-.6.4-1 .48z" clip-rule="evenodd" fill-rule="evenodd" data-color="1"/>
            <path fill="#DFAA3C" d="M70.54 77.55a3.2 3.2 0 0 1-2.11 1.16 5.716 5.716 0 0 0-.86-1.71c.35-.62 1.14-1.6 1.82-1.54.68.06 1.03 1.13 1.15 2.09zM68.43 77c.207.22.37.479.48.76.4 0 .56-.33.87-.48a2.878 2.878 0 0 0-.48-1c-.23.3-.67.38-.87.72z" clip-rule="evenodd" fill-rule="evenodd" data-color="1"/>
            <path fill="#DFAA3C" d="M34.66 75.63c.19.755.22 1.542.09 2.31-.52.37-1.17.62-1.73 1-2.02-.94-.32-3.87 1.64-3.31zm-1.83 1.44c.028.297.092.589.19.87.51 0 .68-.35 1.06-.48a1.69 1.69 0 0 0-.19-1.06c-.33.25-.74.41-1.06.67z" clip-rule="evenodd" fill-rule="evenodd" data-color="1"/>
            <path fill="#DFAA3C" d="M112.12 75.82c.259.607.388 1.26.38 1.92A4.908 4.908 0 0 1 110 79a2.718 2.718 0 0 1-.48-2.12c.79-.38 1.48-1.31 2.6-1.06zm-1.93 1.44c-.09.45.24.47.19.87.59-.09.79-.56 1.35-.67 0-.35 0-.75-.29-.87-.378.29-.8.516-1.25.67z" clip-rule="evenodd" fill-rule="evenodd" data-color="1"/>
            <path fill="#DFAA3C" d="M139.34 76c.33-.06 1.62-.2 2.12.39.5.59.54 2.2.68 3.27.14 1.07.29 2.55.38 3.47a91.84 91.84 0 0 1 .19 14.43 39.141 39.141 0 0 1-.67 7c-1 3.84-4.83 5.35-7.89 7.31-4.17 2.68-8.24 5-12.7 7.8a7.23 7.23 0 0 1-2.7 1.35 2.795 2.795 0 0 1-2.4-1.83c-.31-1.18.22-5 .29-6.45a131.843 131.843 0 0 0-.58-16.65 14.263 14.263 0 0 1-.19-3.17c.55-3.67 4.85-5.35 7.6-7.12 3.24-2.09 7-4.38 10.39-6.54a38.973 38.973 0 0 1 5.2-3.28c.08.02.2.02.28.02zm-.28 1.45a33.919 33.919 0 0 0-5.1 3.27c-3.29 2.17-6.68 4.4-10 6.54-1.9 1.23-4 2.13-5.1 3.27a6.317 6.317 0 0 0-1.54 2.8c.02 1.03.116 2.055.29 3.07.41 5.46.51 11 .48 16.65 0 1.36-.69 5.6.1 6.16 1 .74 3.73-1.63 5-2.41 3.56-2.16 6.54-3.84 9.91-5.87 2.65-1.59 6.3-3.06 7.32-6.06.513-2.176.771-4.404.77-6.64.47-7.33.32-14.65-1.06-20.88-.361-.038-.725 0-1.07.11v-.01z" clip-rule="evenodd" fill-rule="evenodd" data-color="1"/>
            <path fill="#DFAA3C" d="M5.22 76.88v1.73a5.3 5.3 0 0 1-2.8 1.16c-1.11-1.77 1.49-3.53 2.8-2.89zm-1 .67c-.36.54-1.41.39-1.34 1.35.65-.08 1-.47 1.53-.67-.04-.23.21-.75-.16-.68h-.03z" clip-rule="evenodd" fill-rule="evenodd" data-color="1"/>
            <path fill="#DFAA3C" d="M145.22 81.88A5.8 5.8 0 0 1 143.1 83c-.42-.41-.36-1.31-.39-2.12.63-.4 1.45-1.41 2.31-1a5.63 5.63 0 0 1 .2 2zm-1.73-.67c0 .28-.06.63.09.77.309-.124.601-.285.87-.48v-.77c-.45.03-.55.42-.96.48z" clip-rule="evenodd" fill-rule="evenodd" data-color="1"/>
            <path fill="#DFAA3C" d="M72 80.05a5.27 5.27 0 0 1 .57 1.95c-.61.29-1.17 1.29-1.93 1.16-.49-.09-1.12-1.28-1-1.93A2.31 2.31 0 0 1 72 80.05zm-1.54 1.54a.92.92 0 0 1 .29.68 2.85 2.85 0 0 0 1.06-.68c-.26-.15-.07-.76-.48-.76-.17.38-.75.36-.88.76h.01z" clip-rule="evenodd" fill-rule="evenodd" data-color="1"/>
            <path fill="#DFAA3C" d="M104.42 79.86c.5.4.17 1.63.38 2.31a3.689 3.689 0 0 1-2.4 1c-.35-.46-.13-1.48-.2-2.22a5.404 5.404 0 0 1 2.22-1.09zm-1.54 1.45c.076.328.11.664.1 1 .47 0 .57-.32 1-.39-.05-.32.13-.89-.09-1a2.79 2.79 0 0 1-1.01.39z" clip-rule="evenodd" fill-rule="evenodd" data-color="1"/>
            <path fill="#DFAA3C" d="M35.33 80.35a13 13 0 0 1 .39 1.92 5 5 0 0 1-2.12 1.25c-1.49-1.32-.05-3.84 1.73-3.17zm-1.64 1.24c.09.33 0 .8.29 1a4.54 4.54 0 0 1 .87-.49c0-.4 0-.94-.29-1a1.9 1.9 0 0 1-.87.49z" clip-rule="evenodd" fill-rule="evenodd" data-color="1"/>
            <path fill="#DFAA3C" d="M113 80.25a2.877 2.877 0 0 1 .58 2.31c-.77.38-1.26 1-2.4 1.06-1.3-1.62-.02-3.27 1.82-3.37zm-1.63 1.54c0 .41.25.52.19 1 .52-.09.8-.42 1.25-.58.19-1.64-.81-.77-1.46-.42h.02z" clip-rule="evenodd" fill-rule="evenodd" data-color="1"/>
            <path fill="#DFAA3C" d="M5 81v1.54C4.06 83 3.26 84 2.13 84c-.82-1.9 1.54-3.87 2.87-3zm-2.19 1.36v.58c.55-.18.89-.58 1.44-.77.06-1.17-1.01.13-1.44.19z" clip-rule="evenodd" fill-rule="evenodd" data-color="1"/>
            <path fill="#DFAA3C" d="M145.22 84.19c.4.3.26 1.15.29 1.83a3.33 3.33 0 0 1-2.22 1.16c-.4-.31 0-1.38-.29-1.83a3.452 3.452 0 0 1 2.22-1.16zm-1.35 1.35c0 .2-.12.63.09.67.225-.19.493-.32.78-.38-.06-.23.12-.7-.1-.77-.206.23-.473.396-.77.48z" clip-rule="evenodd" fill-rule="evenodd" data-color="1"/>
            <path fill="#DFAA3C" d="M102.2 87a5.98 5.98 0 0 1 .1-1.82c.51-.4 1.77-1.29 2.31-.49a6.988 6.988 0 0 1-.29 1.74c-.6.3-1.32.94-2.12.57zm.78-1.44v.67a.73.73 0 0 0 .67-1 1 1 0 0 1-.65.31l-.02.02z" clip-rule="evenodd" fill-rule="evenodd" data-color="1"/>
            <path fill="#DFAA3C" d="M71.22 85.73a3.87 3.87 0 0 1 1.92-1.25 2.16 2.16 0 0 1 .88 2 2.738 2.738 0 0 1-1.74 1.25c-.73-.11-.67-1.32-1.06-2zm.87.19c.06.335.229.64.48.87.209-.18.433-.34.67-.48-.13-.32-.07-.82-.38-1-.18.31-.53.41-.77.61z" clip-rule="evenodd" fill-rule="evenodd" data-color="1"/>
            <path fill="#DFAA3C" d="M36.68 87.27c-.79.18-1.29 1.23-2.22.67-1.05-1.68.92-3.62 2.13-2.69-.04.75.41 1.34.09 2.02zm-1.73-1c-.024.344.041.689.19 1a1.84 1.84 0 0 1 .87-.48c.12-1.17-.52-.93-1.01-.48l-.05-.04z" clip-rule="evenodd" fill-rule="evenodd" data-color="1"/>
            <path fill="#DFAA3C" d="M4.93 86.89c-.95.46-1.48 1.34-2.7 1.53-1.56-2.06 3.4-5.52 2.7-1.53zm-2.22.48c.54-.33 1.22-.51 1.44-1.16a1.17 1.17 0 0 0-1.44 1.16z" clip-rule="evenodd" fill-rule="evenodd" data-color="1"/>
            <path fill="#DFAA3C" d="M113.94 85c.374.64.512 1.39.39 2.12-.74.38-1.4 1.15-2.41 1-1.03-1.71.39-3.05 2.02-3.12zm-1.63 1.54c-.07.36.16.41.09.77.47-.11.73-.43 1.16-.57 0-.32.12-.84-.19-.87-.322.258-.679.47-1.06.63v.04z" clip-rule="evenodd" fill-rule="evenodd" data-color="1"/>
            <path fill="#DFAA3C" d="M31.29 85.25c2.5-.52 2.62 2.44 3.17 4.33 1.45 4.93 3 7.57 4.91 12a70.088 70.088 0 0 0 6.93 12.8c.475.538.775 1.208.86 1.92.05 2.54-3.45 3.81-5.09 4.91-5.22 3.49-9.82 6.41-15.21 9.81-1 .61-2.08 1.68-3.17 1.74-3.05.13-4.49-4.07-5.59-6a99.001 99.001 0 0 1-8.75-20.11c-.7-2.22-1.79-4.18-.87-6.35.78-1.81 3.27-3 5.2-4.24 4.66-2.93 9.77-6.18 14.43-9.14a12.668 12.668 0 0 1 3.18-1.67zm-.1 1.54c-1.8.44-3.64 2.14-5.19 3.18-4.09 2.72-8.48 5.46-12.61 8.08a11.608 11.608 0 0 0-2.5 1.73c-1.72 2.08-.73 4.66 0 7a88.991 88.991 0 0 0 9.81 21.37c.7 1.09 1.34 2.66 2.31 2.88.97.22 2.29-.68 3.18-1.25 4.94-3.17 9.27-5.94 14.34-9 1-.63 5.2-2.63 5.19-4.14 0-.59-.66-1.28-1-1.73A77.175 77.175 0 0 1 38 102.28c-1.77-4.06-3.44-7.21-4.81-11.64a31.872 31.872 0 0 0-.86-3.27c-.31-.71-.5-.6-1-.58a1.362 1.362 0 0 0-.14 0z" clip-rule="evenodd" fill-rule="evenodd" data-color="1"/>
            <path fill="#DFAA3C" d="M145.69 90.45c-.62.4-1.31.73-1.92 1.15-.78-.09-.55-1.17-.57-2 .59-.11 1.49-1.32 2.11-1.16.62.16.53 1.12.38 2.01zm-1.69-.29c0 .14 0 .35.1.38.3-.3 1.29-.43.87-1.15-.28.34-.86.33-.97.77z" clip-rule="evenodd" fill-rule="evenodd" data-color="1"/>
            <path fill="#DFAA3C" d="M75 89a3.18 3.18 0 0 1 .68 1.83 3.57 3.57 0 0 1-2.31 1.35c-1.12-1.53-.24-3.07 1.63-3.18zm-1.34 1.45c-.012.27.054.537.19.77.4-.08.56-.4 1-.48.09-1.32-.76-.63-1.22-.29h.03z" clip-rule="evenodd" fill-rule="evenodd" data-color="1"/>
            <path fill="#DFAA3C" d="M115.29 91.41a4.65 4.65 0 0 1-2.12 1.35 1.89 1.89 0 0 1-.77-1.93c.2-.81 1.5-1 2-1.44.75.24.83 1.12.89 2.02zm-2.12-.48c0 .37.18.47.1.87.58 0 .79-.44 1.25-.58.05-1.32-.75-.59-1.35-.29z" clip-rule="evenodd" fill-rule="evenodd" data-color="1"/>
            <path fill="#DFAA3C" d="M4.93 89.49c.49.31.18 1.41.38 2a4.5 4.5 0 0 1-2.69 1.63c-1.2-1.92.59-3.41 2.31-3.63zM3 91.32c0 .36-.08.84.19 1 .36-.44 1-.62 1.35-1-.3 0 .16-.87-.29-.77a7.123 7.123 0 0 1-1.25.77z" clip-rule="evenodd" fill-rule="evenodd" data-color="1"/>
            <path fill="#DFAA3C" d="M37.54 89.77a4 4 0 0 1 .68 1.83c-.62.46-1.35 1.25-2.41 1-.89-1.46.19-2.78 1.73-2.83zm-1.34 1.35c.06.29 0 .68.29.77a1.52 1.52 0 0 1 .86-.48 2.411 2.411 0 0 0-.19-.77c-.41.07-.59.36-.96.48z" clip-rule="evenodd" fill-rule="evenodd" data-color="1"/>
            <path fill="#DFAA3C" d="M145.69 92.85c.113.505.146 1.025.1 1.54a4.002 4.002 0 0 1-2.41 1.35c-.35-.32-.12-1.22-.18-1.83.58-.55 1.52-1.5 2.49-1.06zM144 94.1c.06.2-.11.64.1.68.2-.32.66-.37 1-.58v-.58c-.53.07-.73.38-1.1.48z" clip-rule="evenodd" fill-rule="evenodd" data-color="1"/>
            <path fill="#DFAA3C" d="M6.08 95.93c-.81.68-1.77 1.68-3.08 1.54-.14-.69-.54-1.4-.29-2 .25-.6 2.56-2.1 3.08-1.06.02.59.21.97.29 1.52zm-2.7-.19c.13.29.07.77.29 1a15 15 0 0 1 1.55-1c-.07-.35 0-.83-.29-1-.49.374-1.007.709-1.55 1z" clip-rule="evenodd" fill-rule="evenodd" data-color="1"/>
            <path fill="#DFAA3C" d="M115.29 93.91c.359.645.496 1.39.39 2.12a3.292 3.292 0 0 1-2.22 1.15c-.39-.41-.21-1.39-.38-2a3.77 3.77 0 0 1 2.21-1.27zm-1.35 1.45c.06.29-.12.82.1 1 .272-.22.563-.414.87-.58.23-1.27-.51-.78-.97-.42z" clip-rule="evenodd" fill-rule="evenodd" data-color="1"/>
            <path fill="#DFAA3C" d="M39.28 94.39c.15.57.67 1 .57 1.54-.1.54-1.58 1.41-1.92 1.35-.62-.12-.62-.93-.87-1.64a3.002 3.002 0 0 1 2.22-1.25zm-1.35 1.35c0 .34.06.57.29.67a2 2 0 0 1 .77-.48c.11-1.11-.64-.37-1.06-.19z" clip-rule="evenodd" fill-rule="evenodd" data-color="1"/>
            <path fill="#DFAA3C" d="M145.41 96.7c.08.65.47 1.41.1 2.12a4.418 4.418 0 0 1-2 1.15c-.79-.14-.56-1.07-.49-2.11a8.55 8.55 0 0 1 2.39-1.16zm-1.64 2.3c.39-.38 1.19-.35 1.06-1.25-.47.25-1.42.51-1.06 1.25z" clip-rule="evenodd" fill-rule="evenodd" data-color="1"/>
            <path fill="#DFAA3C" d="M6.56 98.63c.21.79.65 1.66.1 2.4a5.692 5.692 0 0 1-2.22 1.44c-.76 0-1.29-1.58-1-2.4a3.39 3.39 0 0 1 3.12-1.44zm-2.41 1.73c0 .44.25.65.2 1.15.79-.16 1.19-.73 1.83-1.06-.11-.37 0-.91-.29-1.15-.58.35-1.14.7-1.74 1.06z" clip-rule="evenodd" fill-rule="evenodd" data-color="1"/>
            <path fill="#DFAA3C" d="M116 98.72c.091.542.125 1.091.1 1.64-.76.41-1.56 1.24-2.41 1.25-.98-1.84.93-3.61 2.31-2.89zm-1.73 1.16v.67c.44-.3 1.19-.29 1.06-1.15-.51.04-.7.36-1.1.48h.04z" clip-rule="evenodd" fill-rule="evenodd" data-color="1"/>
            <path fill="#DFAA3C" d="M41.2 98.92c.26.493.483 1.005.67 1.53-.6.37-1.06 1.39-2 1.16-1.58-.38-.66-3.37 1.33-2.69zm-1.44 1.34a1 1 0 0 1 .29.58c.371-.16.71-.387 1-.67-.22-.11-.17-.48-.38-.58-.3.26-.78.3-.91.67z" clip-rule="evenodd" fill-rule="evenodd" data-color="1"/>
            <path fill="#DFAA3C" d="M72.28 101.51c-.48 0-1.39-.79-1.35-1.34.04-.55 1.26-1.34 1.74-1.35.48-.01 1.55.76 1.53 1.25a2.65 2.65 0 0 1-1.92 1.44zm-.39-1.15c.15.11.4.12.49.28.41 0 .47-.42.86-.47-.24-.91-1.09-.37-1.35.19z" clip-rule="evenodd" fill-rule="evenodd" data-color="1"/>
            <path fill="#DFAA3C" d="M144.74 101.13a5 5 0 0 1-.1 2.21c-.66.27-1.07.79-1.93.87-.35-.5 0-1.62.1-2.31.66-.24.98-.82 1.93-.77zm-1.25 1.25c.13.34-.28.61 0 .77.14-.11.23-.28.47-.29 0-.26 0-.55.1-.67-.36-.11-.28.24-.57.19z" clip-rule="evenodd" fill-rule="evenodd" data-color="1"/>
            <path fill="#DFAA3C" d="M116.16 105.07c-.65.38-1.1 1-2.12 1a3.385 3.385 0 0 1-.29-1.93c.35-1.2 3.36-2.14 2.41.93zm-1.64-.86c0 .3-.06.7.1.86.282-.067.545-.197.77-.38-.06-.26.12-.76-.1-.87-.221.19-.486.324-.77.39z" clip-rule="evenodd" fill-rule="evenodd" data-color="1"/>
            <path fill="#DFAA3C" d="M42.65 103.15a1.472 1.472 0 0 1 1.077.5 1.474 1.474 0 0 1 .363 1.13 2.52 2.52 0 0 1-2.09 1.35 1.57 1.57 0 0 1-1-1.44c0-.82 1.14-1.46 1.65-1.54zm-.87 1.44a1.058 1.058 0 0 0 .48.77 2.37 2.37 0 0 1 1-.58c-.09-1.25-.94-.64-1.48-.19z" clip-rule="evenodd" fill-rule="evenodd" data-color="1"/>
            <path fill="#DFAA3C" d="M7 103.34c.83.33 1 1.6.87 2.6-1 .47-1.61 1.35-2.79 1.63a2.92 2.92 0 0 1-.68-2.5c.41-.9 2.03-1.13 2.6-1.73zm-1.92 2.21c.131.338.196.698.19 1.06a20.611 20.611 0 0 0 1.93-1.15c.08-2.02-1.44-.46-2.08.09h-.04z" clip-rule="evenodd" fill-rule="evenodd" data-color="1"/>
            <path fill="#DFAA3C" d="M144.06 107.29c-.89.3-1.68 1.17-2.7 1.06a4.287 4.287 0 0 1 .39-2.22c.87-.19 1.32-.79 2.21-1 .51.52.15 1.43.1 2.16zm-1.82 0c.44-.21 1.41-.38 1-1.06-.15.51-1.17.19-1 1.06z" clip-rule="evenodd" fill-rule="evenodd" data-color="1"/>
            <path fill="#DFAA3C" d="M46.69 109c-.49.54-1.23 1.6-1.93 1.54-.7-.06-.89-1.21-1.35-1.83a4.14 4.14 0 0 1 2.12-1.54 9.5 9.5 0 0 1 1.16 1.83zm-2.31-.1c.18.24.2.63.58.68.25-.26.64-.39.86-.68-.3-.9-1.05-.78-1.44.02v-.02z" clip-rule="evenodd" fill-rule="evenodd" data-color="1"/>
            <path fill="#DFAA3C" d="M116.16 107.57c.114.475.177.961.19 1.45a2.994 2.994 0 0 1-2.21 1.16 1.794 1.794 0 0 1 .986-2.576 1.786 1.786 0 0 1 1.034-.034zm-1.45 1.64c.42-.07.79-.17.87-.58-.09-.52-1.03-.04-.87.58z" clip-rule="evenodd" fill-rule="evenodd" data-color="1"/>
            <path fill="#DFAA3C" d="M8.39 108.06a2.26 2.26 0 0 1 1 2.21C9.17 111 7.08 112 6.85 112c-.87 0-1-1.07-1.06-2.31.87-.54 1.68-1.14 2.6-1.63zm-1.83 2c0 .44.19.64.19 1a13.002 13.002 0 0 0 1.83-1c-.06-1.88-1.19-.26-2.02.02v-.02z" clip-rule="evenodd" fill-rule="evenodd" data-color="1"/>
            <path fill="#DFAA3C" d="M143.29 111.23c-.74.26-1.43 1-2.21.87a3.631 3.631 0 0 1 .1-1.92 6.916 6.916 0 0 1 2-1.07c.54.52.07 1.52.11 2.12zm-1.54-.19c.49-.06.88-.22.87-.77a1.004 1.004 0 0 0-.87.73v.04z" clip-rule="evenodd" fill-rule="evenodd" data-color="1"/>
            <path fill="#DFAA3C" d="M49.47 113.15c-.56.45-1.32 1.72-2.11 1.64-.57-.06-1.41-1.49-1.35-2a2.597 2.597 0 0 1 2.12-1.44c.8.12.87 1.2 1.34 1.8zm-2.69-.15c.265.235.465.535.58.87a1.94 1.94 0 0 0 1.15-.87c-.24-.27-.34-.68-.67-.86-.26.34-.84.41-1.06.86z" clip-rule="evenodd" fill-rule="evenodd" data-color="1"/>
            <path fill="#DFAA3C" d="M116.16 113.54a4.327 4.327 0 0 1-1.83.87c-1.66-2.08 2.78-4.6 1.83-.87zm-1.35-.77c.06.2-.12.63.1.67.22.04 1-.66.38-1-.09.21-.29.22-.48.33z" clip-rule="evenodd" fill-rule="evenodd" data-color="1"/>
            <path fill="#DFAA3C" d="M10.51 112.48c1.74 1.88-.5 3.63-2.51 3.85a3.15 3.15 0 0 1-.67-2.11c.89-.75 1.67-1.63 3.18-1.74zm-.58.77c-.6.52-1.45.8-1.93 1.45.193.254.326.548.39.86.85-.46 2.78-1.18 1.54-2.31z" clip-rule="evenodd" fill-rule="evenodd" data-color="1"/>
            <path fill="#DFAA3C" d="M142.62 113.25c.22 2.06-1.52 2.64-2.89 2.79-.16-.63.34-1.29.39-2 .71-.37 1.69-1.42 2.5-.79zm-1.83 1.75c.32-.15 1.34-.54.77-1-.3.24-1.05.51-.77 1z" clip-rule="evenodd" fill-rule="evenodd" data-color="1"/>
            <path fill="#DFAA3C" d="M50.73 115.17c.65.38 1.45.83 1.34 1.74a3 3 0 0 1-2 1.73 2 2 0 0 1-1.65-1.64c-.01-1 1.48-1.54 2.31-1.83zm-1.44 1.74c.06.45.42.6.57 1a4.23 4.23 0 0 0 1.45-1.15c-.49-1.26-1.31-.43-2.02.15z" clip-rule="evenodd" fill-rule="evenodd" data-color="1"/>
            <path fill="#DFAA3C" d="M141.36 116.72c.21.61-.36 1.12-.28 1.92a6.253 6.253 0 0 1-2.31 1c-.59-1.64 1.07-3.11 2.59-2.92zm-1.73 1.83c.31-.15 1-.44.68-.87-.31.16-.89.52-.68.87z" clip-rule="evenodd" fill-rule="evenodd" data-color="1"/>
            <path fill="#DFAA3C" d="M13 119.22c-.89.94-4.14 3.13-3.75-.39.82-.19 1.86-1.67 2.69-1.54.83.13.71 1.18 1.06 1.93zm-3.08.09c.18.21.13.64.38.77a13.48 13.48 0 0 0 1.83-1.15c-.33-1.37-1.46.15-2.2.38h-.01z" clip-rule="evenodd" fill-rule="evenodd" data-color="1"/>
            <path fill="#DFAA3C" d="M55.64 120.66c-.67.78-1.26 1.64-2.7 1.64-.41-.52-1-.87-1.25-1.54.52-.58 1.35-1.74 2.21-1.74.86 0 1.27.98 1.74 1.64zm-3 .1c.13.42.49.6.77.86a5.53 5.53 0 0 1 1.25-.86c-.09-.49-.46-.7-.77-1-.4.36-.89.63-1.24 1h-.01z" clip-rule="evenodd" fill-rule="evenodd" data-color="1"/>
            <path fill="#DFAA3C" d="M48.42 119.79c2.45-.39 3 1.38 4.33 2.8a123.64 123.64 0 0 0 17.51 15.77c.69.53 2.78 1.41 3 2.51.48 2.51-3.28 4-4.62 4.91-4.95 3.22-9.38 6.22-14.45 9.42-1.83 1.17-3.32 2.62-6.35 1.64a18.323 18.323 0 0 1-3.37-2.12 85.796 85.796 0 0 1-17.32-15.1c-.88-1-2.22-2.11-2.21-3.57 0-2.58 3.22-3.73 5-4.9 5.08-3.34 9.91-6.39 15-9.63a9.791 9.791 0 0 1 3.48-1.73zm-.87 1.64a37.138 37.138 0 0 0-5.29 3.47c-4.68 3.12-8.6 5.51-13.47 8.65-1.05.68-2.21 1.35-2.31 2.12-.17 1.27 1.21 2.25 2 3.18a88.71 88.71 0 0 0 16.64 14.53 12.15 12.15 0 0 0 3.28 1.92c2.68.62 3.72-.62 5.29-1.63 4.54-2.95 8.7-5.48 13.18-8.28 1-.61 4.88-2.39 4.62-4-.08-.5-.88-.91-1.35-1.25a112.247 112.247 0 0 1-18.28-16.36c-.7-.78-1.89-2.6-3-2.6-.447.011-.89.095-1.31.25z" clip-rule="evenodd" fill-rule="evenodd" data-color="1"/>
            <path fill="#DFAA3C" d="M115.49 119.79c.69.06.48 1.26.38 1.83-.57.39-1.34 1.17-2.22.68a2.014 2.014 0 0 1 .32-1.695 2.001 2.001 0 0 1 1.52-.815zm-1.16 1.83c.4 0 .51-.32.87-.38-.06-.17.11-.57-.1-.58-.33.25-.78.34-.77.96z" clip-rule="evenodd" fill-rule="evenodd" data-color="1"/>
            <path fill="#DFAA3C" d="M137.42 123c-.59-1.55 1.49-3.24 2.79-2.6.19 1.6-1.21 2.39-2.79 2.6zm.87-1.06c.47-.14 1-.26 1.05-.77-.4.17-1.01.17-1.05.74v.03z" clip-rule="evenodd" fill-rule="evenodd" data-color="1"/>
            <path fill="#DFAA3C" d="M14.06 121.43c.41.69 1.27 1.11 1.16 1.92a6.307 6.307 0 0 1-2.69 2c-.53 0-1.17-1-1.16-1.54.02-1.17 2-1.87 2.69-2.38zm-1.92 2.21c.093.305.224.597.39.87.65-.38 1.16-.89 1.82-1.25-.35-1.68-1.43.03-2.21.38z" clip-rule="evenodd" fill-rule="evenodd" data-color="1"/>
            <path fill="#DFAA3C" d="M56.88 122.59c.51-.06 1.62.61 1.64 1.24.02.63-1.59 1.8-2.31 1.74a1.35 1.35 0 0 1-1.15-1.45 2.27 2.27 0 0 1 1.82-1.53zm-1.06 1.73c.17.19.26.44.58.48.36-.38 1-.5 1.16-1.06-.33 0-.28-.43-.58-.48-.3.44-.98.53-1.16 1.06z" clip-rule="evenodd" fill-rule="evenodd" data-color="1"/>
            <path fill="#DFAA3C" d="M115.49 124.12c.14 1.82-.88 2.46-2.41 2.6-.63-1.78 1.14-3.63 2.41-2.6zm-1.64.87a1.8 1.8 0 0 1-.1.77c.305-.095.597-.226.87-.39-.14-.33.27-.61 0-.76a1.695 1.695 0 0 1-.77.39v-.01z" clip-rule="evenodd" fill-rule="evenodd" data-color="1"/>
            <path fill="#DFAA3C" d="M16.28 125.86a1.557 1.557 0 0 1 1.414 1.171c.054.212.063.433.026.649a4.843 4.843 0 0 1-2.72 1.93c-.58-.08-1.28-1.18-1.25-1.73.08-.88 1.97-1.95 2.53-2.02zM14.55 128c.26.25.42.61.67.87a10.398 10.398 0 0 1 1.78-1.38c-.42-1.66-1.75-.01-2.45.51z" clip-rule="evenodd" fill-rule="evenodd" data-color="1"/>
            <path fill="#DFAA3C" d="M61.79 127.3c-.52.36-1.28 1.7-2.21 1.64a1.659 1.659 0 0 1-1.25-1.26c-.06-1.06 1.34-1.17 1.92-1.82a2.492 2.492 0 0 1 1.54 1.44zm-2.6.19c0 .35.28.44.39.68.51-.2.74-.68 1.25-.87-.3-1.09-1.11-.11-1.64.19z" clip-rule="evenodd" fill-rule="evenodd" data-color="1"/>
            <path fill="#DFAA3C" d="M114.23 127.88a1.995 1.995 0 0 1-.136 1.847 2.003 2.003 0 0 1-1.594.943 4.49 4.49 0 0 0-.48-.39 2.143 2.143 0 0 1 .554-1.708 2.153 2.153 0 0 1 1.656-.692zM113 129.7c.37-.08.83-.58.58-.95-.34.13-.84.59-.58.95z" clip-rule="evenodd" fill-rule="evenodd" data-color="1"/>
            <path fill="#DFAA3C" d="M61.5 130.76c.47-.41 1.31-1.8 2.31-1.73a2.245 2.245 0 0 1 1.45 1.35c0 .46-1.32 1.77-1.93 1.83-.88.08-1.45-.76-1.83-1.45zm1 .2c.31.11.42.41.78.48a5.283 5.283 0 0 1 1.15-.87c-.43-1.29-1.55-.35-1.97.43l.04-.04z" clip-rule="evenodd" fill-rule="evenodd" data-color="1"/>
            <path fill="#DFAA3C" d="M19 129.9c.48.58 1.24 1.08 1.26 1.83.02.75-1.87 2.1-2.51 2a2.395 2.395 0 0 1-1.35-1.83c.06-1 2.07-1.46 2.6-2zm-1.73 2c.13.407.364.773.68 1.06.43-.5 1.15-.71 1.54-1.25-.57-1.39-1.37-.29-2.25.21l.03-.02z" clip-rule="evenodd" fill-rule="evenodd" data-color="1"/>
            <path fill="#DFAA3C" d="M113.17 133.75a3.575 3.575 0 0 1-2.11.48c-.26-.6.21-1.08.19-1.73a3.608 3.608 0 0 1 2.12-.77c.43.57-.04 1.44-.2 2.02zm-1.25-.87c.06.17-.12.57.1.58.22.01.86-.48.58-.87a1.75 1.75 0 0 1-.68.29z" clip-rule="evenodd" fill-rule="evenodd" data-color="1"/>
            <path fill="#DFAA3C" d="M66.89 132c.7-.16 2 .48 2 1.16 0 .68-1.5 1.84-2.19 1.84a1.84 1.84 0 0 1-1.64-1.25c-.06-.53 1.23-1.6 1.83-1.75zm-1 1.54a1.002 1.002 0 0 0 .67.68c.53-.21.81-.67 1.35-.87-.45-1.18-1.27-.17-1.98.2l-.04-.01z" clip-rule="evenodd" fill-rule="evenodd" data-color="1"/>
            <path fill="#DFAA3C" d="M21.48 134.23c.8.39 1.57 1.25 1.44 1.92a3.656 3.656 0 0 1-2.41 1.64 2.321 2.321 0 0 1-1.44-1.79c.05-1 1.75-1.46 2.41-1.77zm-1.64 1.82c.267.35.554.683.86 1 .42-.43 1.08-.6 1.35-1.16-.38-1.46-1.54-.43-2.21.16z" clip-rule="evenodd" fill-rule="evenodd" data-color="1"/>
            <path fill="#DFAA3C" d="M72.38 136.15c-.57.25-1.33 1.52-2.22 1.54a2.146 2.146 0 0 1-1.73-1.44c0-.95 1.43-1 1.93-1.73a3.622 3.622 0 0 1 2.02 1.63zm-3.08 0a1.188 1.188 0 0 0 .86.68c.37-.31.88-.47 1.16-.87-.71-.89-1.27-.27-2.02.19z" clip-rule="evenodd" fill-rule="evenodd" data-color="1"/>
            <path fill="#DFAA3C" d="M75.84 138.27c-.31.58-1.26 1.77-2.21 1.83-.7 0-1.82-.75-1.83-1.25-.01-.5 1.49-1.62 2.22-1.64.73-.02 1.36.73 1.82 1.06zm-3.08.48c.12.33.46.44.77.58.47-.2.73-.62 1.25-.77-.49-1.08-1.34-.13-2.02.19z" clip-rule="evenodd" fill-rule="evenodd" data-color="1"/>
            <path fill="#DFAA3C" d="M24.56 138.08c1.05 1.1 1.65 1.51.19 2.59-.85.63-1.22 1.09-2.12.1-.19-.2-.67-.65-.67-1 .04-.56 1.68-1.7 2.6-1.69zm-1.64 1.83c.23.25.38.58.77.67.34-.4.9-.58 1.25-1-.52-1.06-1.49-.5-2.02.33z" clip-rule="evenodd" fill-rule="evenodd" data-color="1"/>
            <path fill="#DFAA3C" d="M75.26 140.58c.6-.53 1.31-.94 1.93-1.44.88.21 2 .52 2 1.34a3.644 3.644 0 0 1-2.19 1.73c-.94.05-1.53-.7-1.74-1.63zm.87.19c.1.41.48.54.86.68.41-.4 1-.66 1.35-1.07-.88-.81-1.34-.02-2.21.39z" clip-rule="evenodd" fill-rule="evenodd" data-color="1"/>
            <path fill="#DFAA3C" d="M111.06 139.52a1.461 1.461 0 0 1-2.31 1.54 1.498 1.498 0 0 1 1.475-1.797c.298.001.588.09.835.257zm-1.35.58c.08.27-.14.25-.1.48h.49c-.11-.25.29-.46 0-.58-.02.14-.24.09-.39.1z" clip-rule="evenodd" fill-rule="evenodd" data-color="1"/>
            <path fill="#DFAA3C" d="M83.06 142c-.3.58-1.15 1.93-2 2-.68.08-1.81-.65-1.83-1.15-.02-.5 1.34-1.77 2-1.83.66-.06 1.31.7 1.83.98zm-2.89.87c.79.7 1.43-.24 1.92-.68-.77-.7-1.41.12-1.92.7v-.02z" clip-rule="evenodd" fill-rule="evenodd" data-color="1"/>
            <path fill="#DFAA3C" d="M27.15 141.83a1.573 1.573 0 0 1 1.588.909c.09.198.139.413.142.631-.05.57-1.43 1.57-2.12 1.54a2.14 2.14 0 0 1-1.53-1.54c.02-.68 1.14-1.37 1.92-1.54zm-1.06 1.44a1.247 1.247 0 0 0 .77.77c.41-.26 1-.38 1.16-.86a2.75 2.75 0 0 0-.68-.68 4.603 4.603 0 0 1-1.25.77z" clip-rule="evenodd" fill-rule="evenodd" data-color="1"/>
            <path fill="#DFAA3C" d="M86.81 143.56c-.37.55-1.15 1.83-2.11 1.93-.72.07-1.84-.51-1.84-1.06a3.623 3.623 0 0 1 2.31-1.74c.7.02 1.16.6 1.64.87zm-2.89 1c.27.06.5.14.78.19.32-.34.72-.61 1-1-.7-.64-1.46.16-1.78.77v.04z" clip-rule="evenodd" fill-rule="evenodd" data-color="1"/>
            <path fill="#DFAA3C" d="M90.47 144.71a2.436 2.436 0 0 1-1.493 1.589 2.445 2.445 0 0 1-2.167-.239c-.07-1.58 2.39-2.64 3.66-1.35zm-2.7 1c.32-.06.45.06.68.1.27-.27.66-.43.86-.78-.72-.45-1.15.21-1.54.65v.03z" clip-rule="evenodd" fill-rule="evenodd" data-color="1"/>
            <path fill="#DFAA3C" d="M30.62 145c.66.53 1.75.87 1.73 1.64a2.998 2.998 0 0 1-2 1.54c-.8 0-1.87-1.05-1.83-1.64.04-.89 1.4-1.04 2.1-1.54zm-1.26 1.54c.24.383.588.686 1 .87.316-.28.674-.509 1.06-.68-.42-1.14-1.33-.73-2.06-.19z" clip-rule="evenodd" fill-rule="evenodd" data-color="1"/>
            <path fill="#DFAA3C" d="M94.22 145.58c0 1-.84 1.21-1.35 1.74-.87-.07-1.73-.14-2.11-.68.44-1.12 2.24-2.1 3.46-1.06zm-2.22.87c.66.29.9-.21 1.25-.48-.56-.28-.99.15-1.25.48z" clip-rule="evenodd" fill-rule="evenodd" data-color="1"/>
            <path fill="#DFAA3C" d="M98.16 146.16a2.374 2.374 0 0 1-1.44 1.571 2.365 2.365 0 0 1-2.12-.221 2.313 2.313 0 0 1 1.425-1.611c.35-.133.728-.179 1.1-.133.372.045.727.18 1.035.394zm-2.4 1a1.172 1.172 0 0 0 1.25-.58c-.59-.31-1.01.22-1.25.54v.04z" clip-rule="evenodd" fill-rule="evenodd" data-color="1"/>
            <path fill="#DFAA3C" d="M101.82 146.45a2.067 2.067 0 0 1-1.291 1.526 2.07 2.07 0 0 1-1.98-.276c.02-1.03 1.961-2.1 3.271-1.25zm-2 .87c.4.22.58-.14.77-.39a.64.64 0 0 0-.79.39h.02z" clip-rule="evenodd" fill-rule="evenodd" data-color="1"/>
            <path fill="#DFAA3C" d="M105.19 146.45c.31 1-.84 1.33-1.16 2-.73 0-1.68.15-2-.29.42-1.08 1.57-2.39 3.16-1.71zm-1.93 1.25c.59 0 .68-.41 1-.67-.62-.03-.72.41-1 .67z" clip-rule="evenodd" fill-rule="evenodd" data-color="1"/>
            <path fill="#DFAA3C" d="M31.67 150c.42-.46 1.14-1.51 1.93-1.73a1.808 1.808 0 0 1 2 1.06c.12.66-1.39 2-2.12 2-.73 0-1.35-.84-1.81-1.33zm1 0c.269.173.526.363.77.57.39-.44 1.14-.52 1.34-1.15-.78-.9-1.52.08-2.14.58h.03z" clip-rule="evenodd" fill-rule="evenodd" data-color="1"/>
            <path fill="#DFAA3C" d="M37.06 154.24c-.79-.46-2.1-.85-2-1.73a4.109 4.109 0 0 1 2.22-1.64c.8 0 2.15 1.1 2 1.83-.15.73-1.62.93-2.22 1.54zM36 152.51a1.495 1.495 0 0 0 1.05.87c.44-.33 1-.52 1.35-1-.8-.99-1.49-.52-2.4.13z" clip-rule="evenodd" fill-rule="evenodd" data-color="1"/>
            <path fill="#DFAA3C" d="M42.94 155c-.49.93-1.56 1.27-2.51 1.73-.68-.41-1.8-.76-1.73-1.54.07-.78 1.59-1 2.21-1.53a7.88 7.88 0 0 1 2.03 1.34zm-3.28.19c.11.44.55.54.87.78.378-.317.799-.58 1.25-.78-.52-1-1.37-.4-2.12.01v-.01z" clip-rule="evenodd" fill-rule="evenodd" data-color="1"/>
            <path fill="#DFAA3C" d="M44.28 156.17c.57-.11 1.92.41 1.92 1.15a3.33 3.33 0 0 1-.91 1.107 3.32 3.32 0 0 1-1.29.623c-.6 0-1.91-.72-1.92-1.25-.01-.53 1.72-1.54 2.2-1.63zm-1.16 1.63c.271.195.563.359.87.49.4-.37.94-.6 1.35-1-.71-.86-1.59.01-2.22.51z" clip-rule="evenodd" fill-rule="evenodd" data-color="1"/>
            <path fill="#DFAA3C" d="M50 159.25c-.78 1.29-2.78 2.63-4.05 1.05a2.354 2.354 0 0 1 1.707-1.752 2.36 2.36 0 0 1 2.343.702zm-3.08.86c.3 0 .32.26.67.19a5.631 5.631 0 0 0 1.25-1c-.79-.55-1.44.34-1.96.81h.04z" clip-rule="evenodd" fill-rule="evenodd" data-color="1"/>
            <path fill="#DFAA3C" d="M53.51 160.78c-.44 1.53-2.46 2.82-3.75 1.35 0-.84 1.2-1.83 1.93-2a1.933 1.933 0 0 1 1.82.65zm-2.88 1.06c.85.52 1.48-.39 1.92-.86-.75-.4-1.32.52-1.92.86z" clip-rule="evenodd" fill-rule="evenodd" data-color="1"/>
            <path fill="#DFAA3C" d="M53.33 163.38c.38-.49 1.23-1.63 2.11-1.73.63-.06 1.68.4 1.73.87.05.47-1.16 1.61-1.82 1.73a2.253 2.253 0 0 1-2.02-.87zm1.15-.09c.69.46 1.27-.25 1.63-.68-.71-.46-1.2.3-1.63.68z" clip-rule="evenodd" fill-rule="evenodd" data-color="1"/>
            <path fill="#DFAA3C" d="M61.22 163.57c-.44.89-1.37 1.27-2 1.93-4.05.07.49-4.34 2-1.93zm-2.8 1c.86.35 1.22-.57 1.73-.87-.94-.41-1.15.53-1.73.84v.03z" clip-rule="evenodd" fill-rule="evenodd" data-color="1"/>
            <path fill="#DFAA3C" d="M64.87 164.35c-.21 1.42-2.71 2.46-3.75 1.05.4-1.21 2.57-2.35 3.75-1.05zm-2.6 1a1.181 1.181 0 0 0 1.45-.77 1.297 1.297 0 0 0-1.45.73v.04z" clip-rule="evenodd" fill-rule="evenodd" data-color="1"/>
            <path fill="#DFAA3C" d="M65.16 166.08a2.482 2.482 0 0 1 1.84-1.83c.58-.07 1.56.18 1.63.67.15.98-2.46 2.44-3.47 1.16zm1.16-.29c.73.13 1.22-.42 1.15-.77-.72-.08-.94.34-1.15.77z" clip-rule="evenodd" fill-rule="evenodd" data-color="1"/>
            <path fill="#DFAA3C" d="M111.92 0a44.698 44.698 0 0 1 7.8 8.56 150.79 150.79 0 0 1 12.22 20.31 136.602 136.602 0 0 1 9.72 22.9 131.77 131.77 0 0 1 5.1 27.42c.42 4.94 1.1 10 .86 15.39a111.11 111.11 0 0 1-1.93 14.42c-2.78 15.89-11.79 26.33-23.28 33.67-1.65 1.06-3.13 2.32-4.81 3.28-3.38 1.91-6.5 4.26-9.81 6.44-4.76 3.14-9.71 6.53-14.63 9.82a39.745 39.745 0 0 1-4.91 3.17 32.306 32.306 0 0 1-8.46 2.22c-9.53 1.45-20.36.49-27.81-2.41a74.22 74.22 0 0 1-25.31-17A101.686 101.686 0 0 1 9 123.55C4.08 114.22 1.21 103 .21 90c-1.09-14.4 2.1-26 8.85-33.13 3.3-3.48 8.18-6.11 12.42-8.76C28.09 44 34.33 40 41 35.89a59.624 59.624 0 0 0 6.44-4.14c3.94-3.16 9.68-5 16.36-4.62 6.39.41 11.2 2.87 15.79 5.39a49.89 49.89 0 0 1 9.33 6.55C90 40 91 40.94 92 42a119.992 119.992 0 0 0-10.58-14.87c-.49-.6-1.25-1.44-2-2.3-.57-.65-1.81-1.74-1.73-2.51.08-.77 3.38-2.51 4.14-3C91.85 13.08 102.28 6.6 111.92 0zm2.41 130c.202-1.069.459-2.127.77-3.17.75-2 2.9-3.77 5-5.1 5.49-3.47 10.11-6.46 15.59-9.82.93-.56 2.35-1.74 3.47-1.63 2.33.21.78 3.19.38 4.52-1.09 3.59-2.36 6.93-3.47 9.82a4.753 4.753 0 0 1 2-.78c.35.13.35.72.39.87a52.171 52.171 0 0 0 5.58-15.2 100.504 100.504 0 0 0 2.12-18.67 124.812 124.812 0 0 0-1.83-19 155.67 155.67 0 0 0-3.46-17.42C138 44.11 133.2 34.24 128.28 25.4c-2.42-4.34-5-8.8-7.79-13a82.864 82.864 0 0 0-6.84-8.75c-.64-.73-1.77-2.58-2.78-1.54 0 .62.86.69.76 1.44-.1.75-1.42 1-1.92 1.54-.76-.28-1.07-1.42-1.73-.77-.2.2-.42 0 .1.87.2.304.424.592.67.86 1.54 1.77 3.17 3.48 4.42 5.1a138.59 138.59 0 0 1 12.51 19.05 22.034 22.034 0 0 1 2.12 4.24c.54 2.21-1.09 3.31-1.92 4.33-4.48 2.79-9.73 6.3-14.34 9.33a30.37 30.37 0 0 1-4.91 3.08 3.838 3.838 0 0 1-3.37-.39c-5.35-10.34-10.83-21.34-18.85-29-.53-.49-1-1.2-1.84-1.25-.27.57.84.49.58 1.35-.72.44-1.38 1.49-2.31 1.44-.74 0-.8-1.06-1.54-.67a38.694 38.694 0 0 0 3.56 4.23c1.2 1.48 2.45 2.93 3.66 4.43a85.898 85.898 0 0 1 6.64 9.52c4.09 6.69 8 13.49 10.77 21.46 2.68 7.76 5.77 15.77 7.42 24.83a166.344 166.344 0 0 1 2.5 29.73 2.506 2.506 0 0 1 1.83-1.06c.43.24.41.94.38 1.63a2.775 2.775 0 0 1-2 1.07c-.35 0-.06-1.22-.29-1.07-.61 9.85-3.21 17.7-6 25.41.5-.41 2.1-.53 2.11.38a26.018 26.018 0 0 0 2-5.77c-.4.39-1.74.44-2-.1-.17-1.5 1.73-2.56 2.7-1.44.7-1.91 1.21-3.91 1.75-5.91zm-5.2-126.54c.33.13.36.54.77.58.26-.29.72-.38 1-.67-.33-.18-.48-.56-.87-.68-.2.38-.73.39-.9.77zM84.21 19.53c7.41 7.09 12.93 16.23 18 25.79.41.76 1.64 3.78 2.22 4.14 1 .62 2.43-.18 3.37-.77 4.94-3.15 9.06-5.74 13.85-8.76 1.65-1 4.46-2.32 4.62-4.52.11-1.48-1-3.13-1.73-4.43-.73-1.3-1.76-2.72-2.4-3.85a75.075 75.075 0 0 0-4.82-7.6c-3.73-5-6.63-9.56-10.87-13.95C99.2 10 91.7 15 84.21 19.53zm-3.85 2.7c.34 0 .32.32.58.38a10.64 10.64 0 0 0 1.35-1c-.5-.82-1.5.04-1.93.62zm23.39 67.35A36.932 36.932 0 0 0 105 82c.47-10.7-1.67-17.66-4.81-25.11-4.54-10.77-12.55-18.16-22.14-23.5-4.88-2.72-10.57-5.33-17.8-4.81.26 1.14-1.57 2.08-2.69 1.25-.22-.7 1.11-.78.67-1.06-1.988.288-3.928.84-5.77 1.64a50.859 50.859 0 0 1 5.48-.1 39.11 39.11 0 0 1 17 5.2 17.995 17.995 0 0 1 4.33 3.07 2.25 2.25 0 0 1 .42 2.42c-.52 1.25-3.54 2.81-5.1 3.85-4.667 3.12-9.22 6.07-13.66 8.85-1.38.86-2.93 2.1-4.93 2.3-2.91.3-4.05-1.56-5.68-2.69-1.13-.79-2.4-1.44-3.56-2.12A26 26 0 0 0 39 47.63a32.48 32.48 0 0 0-1.06 3.46C52.83 56.43 62.74 67 69 80.83c2.1 4.64 4.12 9.82 4.43 15.87a10.78 10.78 0 0 0 3 2.12 13.504 13.504 0 0 0-.43-3.75c.1 1.41-1.23 1.39-2.11 1.82-.43-.31-.42-1.06-.39-1.82.57-.48 1.45-1.51 2.41-1-.68-1.67.44-3.58 1.44-4.52.85-.65 1.754-1.229 2.7-1.73l16.38-10.36c1-.64 2.21-1.58 2.89-1.64 2.8-.22 2.49 3.06 2.59 5.49 0 1 .1 2.1.1 3A33.343 33.343 0 0 1 97.87 100a17.472 17.472 0 0 0 4.24-5.87c-.41.1-1 .51-1.35.1-.11-1.3.65-2.23 1.64-2.12.5.06.08.68.29.87.27-.82.53-1.65.86-2.41-.25-.29-1.09.84-1.73.49a1.78 1.78 0 0 1 1.73-2.61c.45.18-.01 1.88.2 1.13zM51.4 52.25c.93.63 2.11 1.84 3 2 2.65.54 4.27-.93 5.68-1.83 4.65-3 8.5-5.45 13.28-8.37 1-.6 4.9-2.56 4.9-3.85s-3.67-3.13-4.61-3.66a35.89 35.89 0 0 0-20-4.81 22.669 22.669 0 0 0-5.49 1 9.62 9.62 0 0 0-2.7 2.89 44.765 44.765 0 0 0-6 10.87 44.76 44.76 0 0 1 11.94 5.76zm-8.95-15.69c.16.58-.37 1.3-.58 1.83-.69.14-1 .69-1.82.68-.49-.12-.11-.76-.2-.87a15 15 0 0 0-1.54 2.69c.31-.73 1.6-1.71 2.32-.86a2.681 2.681 0 0 1-2.32 2.11c-.41-.32-.08-.86-.19-1.15-.445.768-.82 1.575-1.12 2.41.5-.27 1.17-.85 1.73-.48a2.088 2.088 0 0 1-2.11 2.3c-.37-.14-.05-.82-.2-1-1.08 3.6-4.18 5.28-7.22 7.31-5.06 3.39-9.89 6.27-15 9.53-1.07.68-2 1.69-3.08 1.83a1.54 1.54 0 0 1-1.82-1.06c-.3-1.27 1.6-3.56 1.7-4.77C4.32 63.32.94 74.29 1.56 87.94c.51 11.23 2.92 22.11 6.54 30.41a87.214 87.214 0 0 0 6.64 11.84 106.114 106.114 0 0 0 7.6 10.87 83.065 83.065 0 0 0 19.53 17.42c7.6 4.75 16.88 8.5 28.49 8.27-2.54-.28 1.16-3.14 2.21-1.54-.24.73-.85 1.08-1.25 1.64a75.342 75.342 0 0 0 9-.77c0-.39-.68 0-.48-.58 0-1 1.53-1.92 2.3-1 .08.65-.39.76-.48 1.25 1.07-.21 1.94-.63 3.09-.77-.38-.27-.78-.28-1-.67a2.432 2.432 0 0 1 0-1.26c.32-1.15 2-2 3.08-2.69 2.94-1.9 5.73-3.68 8.57-5.48 4.2-2.68 7.87-5.36 11.73-6.93-.47 0-1.17.14-1.25-.29a3.093 3.093 0 0 1 1.44-1.54 52.311 52.311 0 0 1-32.42-9.24 108.35 108.35 0 0 1-19.24-16.84c-8.48-9.25-15.72-20.82-18.87-35.31C35.42 78.53 34 71.92 34.27 65c.54-12.28 3.93-22.22 9.73-29.49.06 0 .11-.08 0-.1-.43.48-1.13.68-1.55 1.15zm-1.64 1.06c.12 0 .11.15.1.29.42 0 .79-.56.58-.86-.12.29-.55.28-.68.57zM13.49 54.94c-.8 2.22-1.79 4.24-2.6 6.45 6-3.72 12.59-7.91 18.67-11.64.968-.48 1.9-1.027 2.79-1.64 2-1.77 3.58-6.37 4.91-8.28a1186 1186 0 0 1-23.77 15.11zm53.88 25.79c-6.14-13.09-15.86-23-29.64-28.48-.17-.19-.15.07-.19.19a42.11 42.11 0 0 0-1.44 7.7c-1.15 9.06.62 17.31 2.21 24.53A70.422 70.422 0 0 0 49.67 110c7-5 14.23-9.64 21.26-14.53.45-.2.95.39 1 0a49.997 49.997 0 0 0-4.56-14.74zm39.07 2.41a28.283 28.283 0 0 1-5.77 16.07 15.399 15.399 0 0 1-2 2.4c-1.36 1-3 1.92-4.53 2.89-10.47 6.72-21.31 13.64-31.75 20.11 10.68 10.4 22.39 19.85 43 20.1 3.93-9.5 7.47-20.84 6.83-34.34-.62-13.16-2.08-25.81-5.68-36 0-.06 0-.12-.09-.1.1 3.12.15 6.12-.01 8.87zm-6 1.15c0-2 .4-7.75-1.73-6.74a42.26 42.26 0 0 0-5.1 3.18c-3.23 2.17-6.49 4.41-9.81 6.54-1.73 1.11-3.84 2-5 3.18a6.52 6.52 0 0 0-1.54 2.79c-.09 1.11.5 2.53.58 3.75-.035.931-.001 1.864.1 2.79 4 2.56 12.33 3.85 17.51 1.54a29.78 29.78 0 0 0 5.02-17.03h-.03zm2 5.2v.57c.38 0 .53-.62.39-.77a.456.456 0 0 1-.34.2h-.05zM74.4 95.93c.22-.23.59-.3.86-.48-.05-.2.12-.63-.09-.67-.27.31-1.17.46-.77 1.15zm7.31 7c-.27.16.32.21.29.67-.09 1.2-2.81 1.75-3.27.19a2.742 2.742 0 0 1 2-1.15c-3.88-1.29-6.7-3.63-9.82-5.68.07.35.43.41.29 1-.66.63-1.78 1.65-2.69.68a16.877 16.877 0 0 0 6.54 4.23c-.25-.07-.33-.31-.29-.67a6.558 6.558 0 0 1 1.75-1.2c.62.32 1.45.41 1.64 1.16a5.271 5.271 0 0 1-1.73 1.44c2.69 1 7 2.69 10.58 2.79 1.83 0 2.62-.66 3.76-1.35.69-.42 1.35-.9 2-1.34-1.24.39-3.11.17-4.53.38 3.4 0-1.34 3.63-2 1.35a7.89 7.89 0 0 1 1.54-1.43 10.884 10.884 0 0 0-2.31-.09c.36-.07.43.15.39.48.27 1.3-3.36 2.06-3.37.58 0-.74 1.33-1 2-1.35a11.958 11.958 0 0 1-2.77-.62v-.07zM69.2 98.24c.44.24.68-.44 1.16-.48v-.19c-.1 0-.12-.08-.2-.1-.26.31-.71.45-.96.77zm-2.11 1.45c-5.49 3.91-11.09 7.73-16.65 11.54a57.333 57.333 0 0 0 7.89 9.62 19.328 19.328 0 0 0 3 2.7c8.4-5.34 16.87-10.59 25.21-16a34.754 34.754 0 0 1-19.45-7.86zm8.75 2.78a.792.792 0 0 0 .723.134.801.801 0 0 0 .527-.514.792.792 0 0 0-.723-.134.802.802 0 0 0-.527.514zm4 1.45c.31 0 .41.17.77.09 0-.19.26-.19.29-.38a.65.65 0 0 0-1.02.29h-.04zm3.7 1.08c.67.07 1 0 1.25-.48-.64-.23-.91.12-1.25.48zm3.85.38c.43.21.71-.22 1-.48-.48-.23-.75.21-1 .46v.02zm35.7 34.93a20.564 20.564 0 0 0 2.59-3c.8-1 1.73-1.91 2.6-3 4.64-5.73 7.59-12.69 10-20.68.32-1.06.73-2.37-.39-1.64-4.55 3-9.55 6.25-14.24 9.24a49.98 49.98 0 0 0-4.81 3.08c-2.4 2-2.5 4.54-3.46 7.79a89.54 89.54 0 0 1-3.56 10.49c-.29.65-.77 1.33-.67 1.83 4.67-.76 8.85-1.69 11.94-4.13v.02zm-8.47-22.71c.34 0 .35-.29.67-.29-.05-.17.12-.56-.09-.57-.2.26-.73.26-.58.84v.02zm21.94 8c.29-.17 1.05-.36.76-.77-.22.17-1.07.3-.76.74v.03zm1.15.29a6.205 6.205 0 0 1-1.83.67c-.37-.08-.27-.62-.48-.87a42.678 42.678 0 0 1-7.31 11.07 47.398 47.398 0 0 0 7-7.41c-.32.16-.7.44-1.05.29 0-.14-.17-.16-.2-.29a2.468 2.468 0 0 1 2.21-2.21c.3 0 .24.47.39.67.38-.6 1.19-1.73 1.27-1.95v.03zM110.77 137h.58c.139-.238.234-.498.28-.77a.783.783 0 0 0-.597.198.796.796 0 0 0-.263.572zm-2.51 6.83c.51.13.55-.23.68-.48h-.58c.09.29-.13.27-.1.5v-.02zm-1.24.86c.38-.06 1.06.17 1.15-.19-.54.07-.7-.26-.87-.57a2.461 2.461 0 0 1-.3.78l.02-.02zm8.47.78c.24-.13 1.4-.82 1.15-.87a39.273 39.273 0 0 1-8.08 1.64c.3 0 .23.34.38.47-.291.421-.627.81-1 1.16a35.753 35.753 0 0 0 7.55-2.38v-.02zm-8.28 1.73c.42.06.53-.17.67-.39-.42-.04-.53.19-.67.41v-.02zm-2.41 3.08a51.63 51.63 0 0 0-4.91 3.27l-13.56 9c-.39.26-1.16.45-1 .77a20.717 20.717 0 0 0 4.42-.77 18.5 18.5 0 0 0 2.5-1.73c6.12-4 12.35-8.07 18-12-1.84.5-3.8.63-5.45 1.48v-.02zm-34.26 15.8c.52.09.66-.18.78-.49-.51-.09-.66.19-.78.49z" clip-rule="evenodd" fill-rule="evenodd" data-color="1"/>
            <path fill="#DFAA3C" d="M8.58 62.54c0 1.39-1 1.74-1.83 2.22-.34 0-.35-.29-.67-.29C6 63 7.61 61.78 8.58 62.54z" clip-rule="evenodd" fill-rule="evenodd" data-color="1"/>
            <path fill="#DFAA3C" d="M76.61 166.08c0-.75.52-1 1-1.35-.67.1-1.38.16-2 .29.86.76-1 2.28-2.31 1.44-.11-.64.56-1.21 1.06-1.54-8.27-.8-15.85-2.3-21.75-5.48-.19-.32 0-1-.09-1.44 1.16-1.74 4.26-3.26 6.25-4.53 3.83-2.42 7.24-4.67 11.16-7.12 1.71-1.06 4.18-2.8 6.07-3.08a7.993 7.993 0 0 1 2.79.2c1.6.49 3.17 1.33 4.9 1.92a61.812 61.812 0 0 0 11.17 2.5c2 .26 4 0 6 .77.57 1.07-.16 2.13-1 2.79-1.42 1.17-3.15 2-4.71 3.08-3 2-6.18 4.1-9.34 6.16-2.62 1.71-4.49 3.52-8.08 3.95.36.21 1.17 0 1.44.28.12 1.31-1.54 1.67-2.56 1.16zm19.92-16.55a58.973 58.973 0 0 1-13.67-2.8c-1.68-.56-3.28-1.49-4.81-1.82a6.87 6.87 0 0 0-1.92-.1c-2.3.32-4.31 1.88-6.16 3.08-5.38 3.5-11 7.24-16.26 10.59A59.575 59.575 0 0 0 70.26 163a36.04 36.04 0 0 0 6.45.57c3.5-.24 5.82-2.57 8.27-4.13 1.56-1 3.16-2.09 4.72-3.08 3.33-2.12 6.67-4 9.43-6.16-.68-.77-1.73-.6-2.6-.67z" clip-rule="evenodd" fill-rule="evenodd" data-color="1"/>
        </g>
        <defs fill="none">
            <clipPath id="9eca762c-95d5-4cec-9855-d3d88c4968af">
                <path fill="#ffffff" d="M147.67 0v168.29H0V0h147.67z"/>
            </clipPath>
        </defs>
    </g>
</svg>
