<?xml version="1.0" encoding="UTF-8"?>
<svg data-bbox="0 0 61.15 61.15" xmlns="http://www.w3.org/2000/svg" viewBox="0 0 62 62" height="62" width="62" data-type="color">
    <g>
        <g clip-path="url(#19eb9275-3807-4e9d-928a-7c81f22bd4fc)">
            <path fill="#F8CA42" d="M36.31 36.31l24.84-5.73-24.84-5.74L30.58 0l-5.74 24.84L0 30.58l24.84 5.73 5.74 24.84 5.73-24.84z" data-color="1"/>
            <path fill="#F8CA42" d="M45.89 14.23c.6-.6 3.21-.74 3.21-.74s-2.7-.23-3.21-.74c-.51-.51-.74-3.21-.74-3.21s-.19 2.65-.75 3.21-3.21.74-3.21.74 2.66.19 3.21.74c.55.55.75 3.21.75 3.21s.13-2.6.74-3.21z" data-color="1"/>
            <path fill="#F8CA42" d="M49.56 50.8c1.91-1.9 10.14-2.34 10.14-2.34s-8.52-.72-10.14-2.34C47.94 44.5 47.22 36 47.22 36s-.58 8.37-2.34 10.13c-1.76 1.76-10.14 2.34-10.14 2.34s8.39.59 10.14 2.34 2.34 10.14 2.34 10.14.43-8.24 2.34-10.15z" data-color="1"/>
            <path fill="#F8CA42" d="M15.39 11.78c.36-.36 1.93-.45 1.93-.45a5.53 5.53 0 0 1-1.93-.44A5.529 5.529 0 0 1 15 9s-.11 1.59-.45 1.93a5.23 5.23 0 0 1-1.93.44s1.6.11 1.93.45a5.24 5.24 0 0 1 .45 1.89s0-1.57.39-1.93z" data-color="1"/>
            <path fill="#F8CA42" d="M18.52 19.94c.56-.57 3-.7 3-.7s-2.53-.21-3-.69c-.47-.48-.7-3-.7-3s-.17 2.48-.69 3c-.52.52-3 .69-3 .69s2.49.18 3 .7c.51.52.69 3 .69 3s.18-2.44.7-3z" data-color="1"/>
            <path fill="#F8CA42" d="M13.75 44.11c1.31-1.3 6.94-1.6 6.94-1.6s-5.83-.49-6.94-1.6c-1.11-1.11-1.6-6.91-1.6-6.91s-.4 5.74-1.6 6.94c-1.2 1.2-6.94 1.6-6.94 1.6s5.74.4 6.94 1.6c1.2 1.2 1.6 6.94 1.6 6.94s.3-5.66 1.6-6.97z" data-color="1"/>
            <path fill="#F8CA42" d="M22.34 55.57c.67-.67 3.56-.82 3.56-.82s-3-.25-3.56-.82-.82-3.56-.82-3.56-.21 2.94-.83 3.56c-.62.62-3.56.82-3.56.82s2.95.21 3.56.82c.61.61.83 3.57.83 3.57s.15-2.9.82-3.57z" data-color="1"/>
        </g>
        <defs fill="none">
            <clipPath id="19eb9275-3807-4e9d-928a-7c81f22bd4fc">
                <path fill="#ffffff" d="M61.15 0v61.15H0V0h61.15z"/>
            </clipPath>
        </defs>
    </g>
</svg>
