<?xml version="1.0" encoding="UTF-8"?>
<svg data-bbox="-0.014 0 77.88 43.18" viewBox="0 0 77.85 43.22" xmlns="http://www.w3.org/2000/svg" data-type="color">
    <g>
        <path d="M45.6 0c6.59.3 13.67.61 20.28 3.51a33.87 33.87 0 0 1 7 3.94 11.65 11.65 0 0 1 4.83 11.46c-.64 4.83-.86 9.72-1 14.59a6 6 0 0 1-2.41 4.73c-3.44 2.82-7.51 4.06-11.81 4.67A39.76 39.76 0 0 1 45 41.07a121.13 121.13 0 0 1-11.79-4.42 42.82 42.82 0 0 0-16.61-3.77 74.17 74.17 0 0 1-8.3-.57 14.16 14.16 0 0 1-4.26-1.46A5.18 5.18 0 0 1 1 26.32c-.25-2.92-.82-5.83-1-8.75-.19-3.42 1.61-5.74 4.35-7.73C9.22 6.31 15 5.47 20.52 3.82A92.84 92.84 0 0 1 45.6 0ZM70 7l-2.56-1.4A47.74 47.74 0 0 0 61.25 3a66.55 66.55 0 0 0-29.48-.75C25.35 3.49 19 5.31 12.69 6.93A27.39 27.39 0 0 0 4 11.3c-3.65 2.52-3.22 6.34.7 8.39a16.16 16.16 0 0 0 8.53 1.83c5.27-.35 10.52-1 15.77-1.62 5.89-.73 11.56-.26 16.93 2.48 1.65.83 3.33 1.61 5 2.47A30.12 30.12 0 0 0 60.16 28c4.67.76 9.07.15 12.78-3.09C78.16 20.35 79 11.47 70 7ZM7 25.14l-5.17-1c.41 1.67.41 1.7 1.39 2 1.57.47 3.16.9 4.73 1.34l-.15.62-5.68-1.34a4.4 4.4 0 0 0 2.73 3.18 14.42 14.42 0 0 0 6.6 1.37c8.84 0 17.32 1.35 25.41 5.28a52.2 52.2 0 0 0 18.4 5c6.56.56 12.72-.5 18.21-4.4a4.75 4.75 0 0 0 2.28-4.16c0-2.51.31-5 .47-7.54v-1.88l-.68-.42a2.83 2.83 0 0 1-.35.95 14.6 14.6 0 0 1-11.81 5.21 27.9 27.9 0 0 1-11.89-2.94c-2.43-1.15-4.78-2.49-7.25-3.53a34.79 34.79 0 0 0-5.75-1.78c-4.19-.95-8.35-.25-12.53.26-4.41.53-8.85 1-13.28 1.16a16.3 16.3 0 0 1-8.95-2.22c-.88-.5-1.73-1.14-2.63-1.8.07 2.5.06 2.5 1.9 3.1 1.23.41 2.46.79 3.69 1.19l-.12.36-5.02-1.32c0 .48-.08.89 0 .93 1.73.76 3.45 1.49 5.5 2.35Z" fill="#bc678f" data-color="1"/>
        <path d="M70 7c1.1 1.14 2.2 2.27 3.29 3.41 4.89 5 2.15 12.91-3.38 15.09-5.31 2.09-10.69 2.68-16.05-.3-3.22-1.79-6.69-3.15-10-4.71a23.45 23.45 0 0 0-17.18-1.27A45.89 45.89 0 0 1 11 20.68a11 11 0 0 1-6-1.86c-3.31-2.34-3.25-5.38.29-7.29a41 41 0 0 1 6.49-2.72 140.72 140.72 0 0 1 29.44-6.69 55.92 55.92 0 0 1 23.35 2.69c1 .3 1.94.51 2.91.76ZM47.21 2.44c-1.53.12-3.37.27-5.21.4-11.35.77-22.12 4-32.77 7.71a18.67 18.67 0 0 0-4.42 2.37c-1.49 1-1.58 2.19-.56 3.71a6.36 6.36 0 0 0 3.68 2.5 21.54 21.54 0 0 0 9 .77c3.74-.52 7.46-1.19 11.13-2A24.75 24.75 0 0 1 43.12 19a116 116 0 0 1 11.61 5.5c5.08 2.73 10.13 2 15.1.09 4.46-1.74 6.59-7.74 4.25-11.6a15.11 15.11 0 0 0-7.38-6.61 60.39 60.39 0 0 0-19.49-3.94Z" fill="#bc678f" data-color="1"/>
        <path d="M70.77 32.7a9.23 9.23 0 0 1-5.37 2 10.53 10.53 0 0 1 5.37-2Z" fill="#bc678f" data-color="1"/>
        <path d="m69.4 35.37-2.5.57-.14-.54 2.5-.7c.05.22.09.45.14.67Z" fill="#bc678f" data-color="1"/>
        <path d="M55.68 7.31c1.92.2 3.83.49 5.75.59A4.08 4.08 0 0 1 65 10.34c1 1.93.45 3.7-1.65 4.45a13.43 13.43 0 0 1-3.43.71 23.66 23.66 0 0 1-9-1.09 10.32 10.32 0 0 1-3.29-1.78c-1.91-1.53-1.65-3.2.63-4.22a17 17 0 0 1 3.14-.83 5.76 5.76 0 0 1 1.25-.12h3Zm7 1.76a39.18 39.18 0 0 0-11.45-.44 9 9 0 0 0-3.09 1c-1 .5-1.09 1.28-.22 2a10 10 0 0 0 3 1.78 22.38 22.38 0 0 0 9.44 1.09 9.47 9.47 0 0 0 2.67-.64A1.76 1.76 0 0 0 64 11c-.34-.63-.8-1.23-1.28-1.93Z" fill="#bc678f" data-color="1"/>
        <path d="M15.11 16.56q9.57-4 18.76-8.91c.43-.22.05-.87-.38-.64q-9.1 4.82-18.58 8.82c-.44.19-.25.92.2.73Z" fill="#bc678f" data-color="1"/>
        <path d="m25.88 14.76 16.44-6.12c.45-.16.26-.89-.2-.72L25.69 14c-.45.16-.26.89.19.72Z" fill="#bc678f" data-color="1"/>
        <path d="M25.2 10.29 43 15.62a.37.37 0 0 0 .2-.72L25.39 9.57a.37.37 0 0 0-.19.72Z" fill="#bc678f" data-color="1"/>
        <path d="M30 7.34A82.77 82.77 0 0 0 42.8 12a.38.38 0 0 0 .2-.73A81.38 81.38 0 0 1 30.38 6.7c-.44-.2-.82.45-.38.64Z" fill="#bc678f" data-color="1"/>
        <path d="M31.19 23.43v6.92a.38.38 0 0 0 .75 0v-6.92a.38.38 0 0 0-.75 0Z" fill="#bc678f" data-color="1"/>
        <path d="M33 23.43a55.34 55.34 0 0 1 .25 6.69.38.38 0 0 0 .75 0 55.34 55.34 0 0 0-.25-6.69c-.05-.48-.8-.48-.75 0Z" fill="#bc678f" data-color="1"/>
        <path d="m35 22.74-.54 10.38c0 .48.72.48.75 0l.54-10.38c0-.49-.72-.48-.75 0Z" fill="#bc678f" data-color="1"/>
        <path d="M37.91 24.58q-.34 5.19-.25 10.39a.38.38 0 0 0 .75 0q-.09-5.2.25-10.39c0-.48-.72-.48-.75 0Z" fill="#bc678f" data-color="1"/>
        <path d="M41.58 27.35v5.77a.38.38 0 0 0 .75 0v-5.77a.38.38 0 0 0-.75 0Z" fill="#bc678f" data-color="1"/>
        <path d="M45.11 26q-.15 6.93.07 13.85a.38.38 0 0 0 .75 0q-.23-6.93-.07-13.85a.38.38 0 0 0-.75 0Z" fill="#bc678f" data-color="1"/>
        <path d="M48.52 28.74a64.12 64.12 0 0 0 .42 11.08c.06.47.81.48.75 0a64.12 64.12 0 0 1-.42-11.08c0-.48-.72-.48-.75 0Z" fill="#bc678f" data-color="1"/>
        <path d="M50.34 32.89c-.09 1.31-.17 2.62-.25 3.92 0 .49.72.48.75 0 .08-1.3.16-2.61.25-3.92 0-.48-.72-.48-.75 0Z" fill="#bc678f" data-color="1"/>
        <path d="M52.21 32.43a20.4 20.4 0 0 1-.27 3.82c-.07.47.65.67.73.2a21.64 21.64 0 0 0 .29-4c0-.48-.77-.48-.75 0Z" fill="#bc678f" data-color="1"/>
        <path d="M17.8 24.12v3.69a.38.38 0 0 0 .75 0v-3.69a.38.38 0 0 0-.75 0Z" fill="#bc678f" data-color="1"/>
        <path d="m72.68 28.51-.09 7.61a.38.38 0 0 0 .75 0l.09-7.61a.38.38 0 0 0-.75 0Z" fill="#bc678f" data-color="1"/>
        <path d="M73.67 29v4.85a.38.38 0 0 0 .75 0V29a.38.38 0 0 0-.75 0Z" fill="#bc678f" data-color="1"/>
        <path d="M50.11 9.9a48.09 48.09 0 0 1 5.63.09c.92.08 1.84.19 2.75.32 1.23.18 2.67-.09 2.61 1.35s-1.25 1.15-2.45 1.23a19.83 19.83 0 0 1-2.67 0 16.41 16.41 0 0 1-3.41-.56c-.65-.18-4.2-1.17-1.89-2.57a.37.37 0 0 0-.38-.64c-1.7 1-1.22 2.61.38 3.37 3 1.41 7.89 1.84 11 .61 1.52-.6 2.25-1.78.64-2.7-1.28-.73-3.22-.78-4.68-1a47 47 0 0 0-7.5-.28.38.38 0 0 0 0 .75Z" fill="#bc678f" data-color="1"/>
        <path d="M55.43 20.07a114.8 114.8 0 0 0 11.65-2.31c.47-.11.27-.84-.2-.72a112.08 112.08 0 0 1-11.65 2.3c-.47.07-.27.79.2.73Z" fill="#bc678f" data-color="1"/>
        <path d="M59.47 21.26 71 19.64c.47-.07.27-.79-.2-.73l-11.53 1.62c-.48.07-.27.79.2.73Z" fill="#bc678f" data-color="1"/>
        <path d="m58.61 17.8 9.33 3.67c.45.17.64-.55.2-.73l-9.33-3.66c-.45-.18-.65.54-.2.72Z" fill="#bc678f" data-color="1"/>
    </g>
</svg>
