<?xml version="1.0" encoding="UTF-8"?>
<svg data-bbox="0.004 0 96.187 48.801" viewBox="0 0 96.22 48.8" xmlns="http://www.w3.org/2000/svg" data-type="color">
    <g>
        <path d="m81 28.64 9 12.42a15.71 15.71 0 0 1 1.19 1.53c.61 1.06.13 1.87-1.11 2a5.39 5.39 0 0 1-1-.09A45.55 45.55 0 0 1 74.34 41a53.86 53.86 0 0 1-6.12-3.82c-1.41 1.19-2.9 2.58-4.53 3.78-8.27 6.09-17.61 8.31-27.78 7.76a52.32 52.32 0 0 1-22.7-6.93 28 28 0 0 1-12-12C-.34 26.64-.38 24.88 1 21.87c2.93.82 5.11-.91 7.47-2.47a54 54 0 0 1 20-8 9 9 0 0 0 4.28-2A42.21 42.21 0 0 1 49.82.57 40.49 40.49 0 0 1 54.23 0c.67 2.56-1.61 3.5-2 5.53 1.21 1.86 2.69 4 1 6.7a57.09 57.09 0 0 1 17 9.49c7.3-6.21 16.49-7.88 25.41-10.42 1.07 1.58.34 2.89-.17 4.12A22.08 22.08 0 0 1 83 27.81c-.72.27-1.39.56-2 .83Zm-10.5-5.3c-9.33-7.12-19.35-11.62-31-11.48a54.22 54.22 0 0 0-31.3 9.78l1.67 1.25-.14.54-8.2.22c-.63 2.93.6 5.23 2 7.41A27.89 27.89 0 0 0 14 40.57c6.33 3.36 13 5.87 20.21 6.49 11.74 1 22.3-1.69 31.35-9.47 1-.91 2.06-1.86 3.14-2.84 5.39 6.58 13.22 6.53 21 8.46-2.17-3-3.84-5.52-5.65-7.89s-3.83-4.8-5.84-7.29c8.69-2.76 14.38-7.22 16.54-15.31C86.37 15.63 77.6 17 70.47 23.34ZM51.74 11.68c.86-2.48 1-2.55-.13-4a3.34 3.34 0 0 1-.38-3.89c.28-.52.51-1.07.89-1.9-6.73 1.38-12.29 4.32-17.89 8.42 2.6.4 4.32.13 6-1.24a8.22 8.22 0 0 1 5.43-2.12l-4.25 3c3 1.55 4.2-2.59 7-1.62l-2.63 2.34Z" fill="#bc678f" data-color="1"/>
        <path d="M40.68 42.22c.93-2.29 1.35-4 .31-6.11a51.58 51.58 0 0 1-2.41-6.68 1.62 1.62 0 0 1 .45-1.6c.95 2.33 1.9 4.66 3.11 7.61.65-2.11 1.09-3.58 1.54-5h.47a4.42 4.42 0 0 1 .3 1.59c-.6 3.18-1.23 6.36-2 9.51-.52 2.26-1.56 2.68-3.43 1.42a8.53 8.53 0 0 1-2.6-2.39c-1.84-3-3.52-6.14-5.16-9.28a3.18 3.18 0 0 1 .11-2.5l5.46 10.33.64-.28c-.15-1.85-1.31-3.39-1.92-5.09s-1.38-3.6-2.25-5.75c1.75 1.35 1.75 1.35 3 4.2q1.11 2.52 2.21 5c.69 1.55 1.34 3.09 2.17 5.02Z" fill="#bc678f" data-color="1"/>
        <path d="M49.44 40.08c1.51-.4 3-.79 4.53-1.21 1.15-.32 2.44-.62 2.61-2s-1-2.34-2.06-3a31.48 31.48 0 0 0-3.27-1.5c1.08-.9 1.91-1.5 2.65-2.21 1.84-1.75 1.57-3.45-.76-4.53a29.64 29.64 0 0 0-3.49-1.09 20.16 20.16 0 0 0 1.7-1.88c.46-.66 1.16-1.47 1.08-2.14-.16-1.3-1.24-1.69-2.43-1.52a1.56 1.56 0 0 1-.56-.17c1.56-.83 2.33-.83 3.19-.08 1.85 1.65.49 3.32-.08 4.93 4.79 3 5.05 4.4 1.41 8.28.85.63 1.74 1.17 2.5 1.85 2.54 2.28 2 5.19-1.21 6.19a19.62 19.62 0 0 1-3.15.68c-.82.13-1.65.12-2.48.18Z" fill="#bc678f" data-color="1"/>
        <path d="M25.89 37.69c3.09-5 2.18-5.47-1.62-8.48 3.55-4.33 3.55-4.33.72-6.62 1.4-1.27 2.78-2.52 4.05-3.69-.5-2-2.18-1.31-3.34-1.8 1.73-1 3.56-.91 4.22.23 1.55 2.65-1.29 3.42-2.23 4.86.24 1.31.76 2.58.57 3.72s-1.08 2-1.77 3.22c1.58 1.37 3 3.08 2.45 5.44a3.65 3.65 0 0 1-3.05 3.12Z" fill="#bc678f" data-color="1"/>
        <path d="M38.07 21.71c3-4.28 2.76-5-1.64-5.82 1.21-1.44 2.52-1.18 3.7-.34 2.43 1.73.95 3.81.26 5.77 1.53 1.16 3.78 1.67 3.54 4.18-.12 1.26-.77 1.7-3.41 2.35l2.11-2.59c-.54-2.4-2.88-2.39-4.56-3.55Z" fill="#bc678f" data-color="1"/>
        <path d="M71.68 30.88c2.09 1 5.69 4.67 7.36 7.55-2.49-.75-6.1-4.43-7.36-7.55Z" fill="#bc678f" data-color="1"/>
        <path d="M14.21 23.22a4.86 4.86 0 0 1-.6-1.85c.06-1.06 1.6-1.79 2.74-1.45a1.45 1.45 0 0 1 1.13 1.92 2.6 2.6 0 0 1-3.27 1.38Z" fill="#bc678f" data-color="1"/>
        <path d="M84.16 19.22 73.6 23.46c2.17-2.19 7.25-4.24 10.56-4.24Z" fill="#bc678f" data-color="1"/>
        <path d="m81.49 37.32-5.41-6 .49-.46a20.23 20.23 0 0 1 5.62 5.89Z" fill="#bc678f" data-color="1"/>
        <path d="M84.43 22.68 76.65 25a13.62 13.62 0 0 1 7.58-3Z" fill="#bc678f" data-color="1"/>
    </g>
</svg>
