<?xml version="1.0" encoding="UTF-8"?>
<svg data-bbox="-0.031 -0.033 115.057 56.585" viewBox="0 0 115.02 56.56" xmlns="http://www.w3.org/2000/svg" data-type="color">
    <g>
        <path d="M6.73 28.08c-.72-1-1.44-1.93-.43-3a4.19 4.19 0 0 1 4.51-1.41 3.82 3.82 0 0 0 3-.06c-.27-.85-.57-1.71-.79-2.59a4.73 4.73 0 0 1-.21-1.7 1.13 1.13 0 0 1 1.9-.85 5 5 0 0 1 .79.74l.75.78c.54-.84.87-2 2.14-1.69s1.15 1.5 1.46 2.52l1.92.3c.78-1.21 1.5-2.46 2.35-3.61A25.66 25.66 0 0 1 41.27 7.07 47.35 47.35 0 0 1 57.89 7a3.74 3.74 0 0 0 2.22-.46 21.67 21.67 0 0 1 14.12-2.13 11.12 11.12 0 0 1 4.93 2.15c3 2.31 4.38 1.22 6-1.12a30.6 30.6 0 0 1 3.29-3.73A5.88 5.88 0 0 1 93.67.06a3.51 3.51 0 0 1 3 5.08 7.89 7.89 0 0 1-4 4.15c-1.1.54-2.24 1-3.65 1.58l1.76.48a22 22 0 0 1 2.69.8 5 5 0 0 1 2.71 6.67c-.75 1.89-2.36 2.47-4.17 2.54a10.22 10.22 0 0 1-5.4-1.36c-1.57-.88-3.17-1.69-5-2.65l-2.11 4.34c2.27.52 4.36 1 6.44 1.49a129.15 129.15 0 0 1 20.22 6.52 17 17 0 0 1 5.68 3.52 16.24 16.24 0 0 1 1.84 2.14c2.12 3.13 1.75 6.32-1.22 8.65-3.14 2.45-6.5 4.61-9.68 7a28.12 28.12 0 0 1-17.27 5.53c-8.47.05-16.94-.07-25.41-.22-4.63-.09-9.26-.37-13.88-.59A92.05 92.05 0 0 1 24 52.22a23.86 23.86 0 0 1-10.41-6.06 33.19 33.19 0 0 0-8.07-5.77A18.18 18.18 0 0 1 1 36.68c-1.4-1.52-1.32-2.89-.09-4.53a9.54 9.54 0 0 1 5.82-4.07Zm21.72 13.53.19-.44c-2-1.81-2.55-2.75-2.46-4.32.11-1.87 2.42-6.53 4-8 .3.62.57 1.21 1 2.17 1.08-1.39 2-2.46 2.81-3.65A19 19 0 0 1 42.72 20c.63-.27 1.3-.46 2.35-.83-.36.83-.54 1.25-.72 1.68A13.11 13.11 0 0 0 43.1 24a19.54 19.54 0 0 1-4 9.5c-.45.61-.83 1.28-1.28 2 2.59.63 5.07.72 7.18 2l-.12.48L36 36.14c1.63-2.55 3.34-4.67 4.41-7.07S42 23.87 42.8 21a18.06 18.06 0 0 0-7.89 6.72 26.09 26.09 0 0 1-3.28 3.7c-.6.61-1.37.77-2.07-.6-.84 2-1.62 3.5-2.17 5.12a3.16 3.16 0 0 0 1.42 3.94 6.8 6.8 0 0 0 4.09 1.2A95.68 95.68 0 0 0 48.49 40a9.59 9.59 0 0 1 1.7-.12 23.64 23.64 0 0 0 2.52.07c.93-.08 1.84-.47 2.77-.51a1.69 1.69 0 0 1 1.32.73 7.7 7.7 0 0 1 .34 2.17l-.47.12-1.14-2-4.81.83c-.62 4.91-2.22 7.1-5.69 7.5 3.19-1.86 5.35-4 4.37-7.58l-21.85 1.35c.33 1.38.63 2.42.81 3.47a1.48 1.48 0 0 0 1.26 1.29 80.13 80.13 0 0 0 8.69 1.87c7 .72 14.12 1.37 21.2 1.64 5.56.2 11.15-.22 16.72-.38.09 0 .18-.18.31-.32-.59-.79-1.13-1.64-1.8-2.38a1.92 1.92 0 0 0-1.29-.57c-2.07 0-4.15.12-6.09.19-.54 1-.19 2.21-1.55 2.6v-2.19a3.49 3.49 0 0 0-1.18-2.91 2.29 2.29 0 0 0-1.71-.48c-4.55 1.17-9.17 2.14-13.35 4.45a6.69 6.69 0 0 1-1.27.39c3.83-3.48 8.8-4.26 13.44-5.75-.93-1-1.7-1.86-2.48-2.7-3.84-4.09-6.59-8.63-6.13-14.54.5-6.52 3.54-11.95 10.29-14.15.7-.23 1.38-.54 2.46-1-1.28-.6-2.17-1.06-3.09-1.44-6.87-2.79-13.95-2.85-21.13-1.5a26.09 26.09 0 0 0-8.46 2.62 26 26 0 0 0-10.66 11.41 20.85 20.85 0 0 0-2.07 10.76c.16 2.21.52 4.44 3 5.52.64.28 1.11.93 1.73 1.3 1.04.66 2.15 1.24 3.25 1.85Zm40.86-7.86a11.34 11.34 0 0 1 1-1.27 53.12 53.12 0 0 0 10.07-14.85 15.36 15.36 0 0 1 9-8 24.24 24.24 0 0 0 3.18-1.38A6.89 6.89 0 0 0 95.64 5a2.61 2.61 0 0 0-2.15-4 4.52 4.52 0 0 0-4.18 1.31 45.43 45.43 0 0 0-4 4.57 4.36 4.36 0 0 1-2.54 1.86c-2.17.53-4.37 1-6.57 1.39-4.41.82-8.87 1.43-13.08 3.08A12.85 12.85 0 0 0 56.29 19a16.6 16.6 0 0 0-2 10.26c.68 5.93 4.4 9.9 8.72 13.48a2.35 2.35 0 0 0 .39.19l3.21 1.79a11.69 11.69 0 0 1 12.78-5.05 16.54 16.54 0 0 1 2.22-3.43c1.86-1.73 1.89-3.62 1.07-5.74a10.54 10.54 0 0 0-5.14-5.39c-2.4 3.22-4.4 6.77-8.23 8.64ZM12.88 43.88c.51.64.73 1 1 1.26a24.94 24.94 0 0 0 11.22 6.31c8.07 2.3 16.36 2.94 24.68 3.36 5.2.26 10.41.44 15.62.69a177.76 177.76 0 0 0 23.65-.27 21.86 21.86 0 0 0 10.43-3.38c1.63-1.08 3.27-2.14 4.89-3.23a13 13 0 0 0 1.13-1.06c-7.58 1.56-14.78 3.22-22.16 3.6-6.36.33-12.73.61-19.1.58-6.22 0-12.43-.45-18.65-.76-7.42-.36-14.55-2.3-21.69-4.16-3.54-.92-7.08-1.89-11.02-2.94Zm82.66 4.43a2.26 2.26 0 0 0 .71.1c3.6-.77 7.24-1.44 10.79-2.4a11.82 11.82 0 0 0 5.79-3.69 3.87 3.87 0 0 0 1-3.81 9.11 9.11 0 0 0-1.83-3.6 15.69 15.69 0 0 0-4.62-3.5 94.18 94.18 0 0 0-11.12-4.29c-5.25-1.61-10.6-2.88-15.91-4.29-1-.27-1.92-.33-2 1.17l3.8 2.91c3.85-.91 7.15-.11 9.54 3.17 4.71-1 6.72-.19 9.31 3.85l6.58-1.8a5 5 0 0 1 .51.55 2.27 2.27 0 0 1 .26.6c.82 3.44.6 6.63-2.39 9.07a2.5 2.5 0 0 0-1.2 2.57 1.92 1.92 0 0 1-.14.72c-1-2.56-2.24-4.72-5.29-4.65a7.67 7.67 0 0 0-6.22 2.78c.59.15.85.22 1.11.27s.59 0 .87.09c1.24.24 1.63.76 1.31 2a18.06 18.06 0 0 1-.86 2.18Zm-70.42-2.2c.89.24 1.56.77 2.39.27l-1.05-4.6c-2.62-1.63-4.9-3.7-7.93-4.49a47.24 47.24 0 0 0-8.84-1c-.78 1.28-.17 2.32-.11 3.37a2.32 2.32 0 0 0 1.82 2.35c2.62.8 5.22 1.66 7.82 2.52 2.07.69 4.14 1.28 6.3.31.11-.06.33.13.55.23ZM75 45c.19 2.41 1.85 3.74 2.77 5.49a86.86 86.86 0 0 0 16.38-1.73c.55-1.24 1-2.33 1.61-3.69C88.72 44.6 82 44 75 45Zm16-1.52c.83.49 1.16.32 1.45-.24a5.6 5.6 0 0 1 3.36-2.57c3.21-1.13 6.22-1.12 8.5 1.89 3.66-3.1 4.63-6.42 2.83-9.34l-14.66 3.91A5.76 5.76 0 0 1 91 43.51Zm-8.71-27.11c2.22 1.14 4.28 2.3 6.44 3.25a8.76 8.76 0 0 0 3.16.55c2.08.06 3.1-.72 3.5-2.45.45-2-.22-4-2-4.52a59.08 59.08 0 0 0-6.06-1.38 1.41 1.41 0 0 0-1 .26 13.88 13.88 0 0 0-4.04 4.29Zm7.83 27.23c.54-.84.95-1.51 1.39-2.15a3.12 3.12 0 0 0 .06-3.81 5.2 5.2 0 0 0-5.2-2.41 5.63 5.63 0 0 0-5.09 3.11 3.39 3.39 0 0 0-.18.39 1.44 1.44 0 0 0 .75 2.14 4.91 4.91 0 0 1 1.91 1.37 3.24 3.24 0 0 0 3.17 1.36c1.07-.03 2.16 0 3.19 0Zm-29.31-36c2 .94 3.84 1.73 5.58 2.69a3.25 3.25 0 0 0 2.43.37c3.1-.66 6.18-1.23 9.33-1.83a14.57 14.57 0 0 0 1.42-.42C75.62 4 65.28 4.52 60.81 7.56Zm13 38.73c.44-2.16.44-2.19 2.35-2.35 2.35-.2 4.69-.34 7.47-.53-2.58-2.86-5.58-3.3-8.69-2.9A9.76 9.76 0 0 0 67 46.29ZM11 31.92l8.07 1.33.11.52-3 1.86 4.21 1c-1.4-3.23-.79-6.33-.68-9.36-4-.65-7.41 1.19-8.71 4.65Zm79.44 2.74c1-2.32.77-4.21-1-5.54a7.21 7.21 0 0 0-6.34-1.42c.58 2.31 1.12 4.5 1.62 6.51Zm-83-1.76-2-4c-1.4 1.4-2.66 2.48-3.69 3.74s-1 2.14 0 3.51a12.77 12.77 0 0 0 6.69 4.45c-.12-1.43-.23-2.68-.35-4.11H2.93c.98-1.94 2.82-2.31 4.48-3.59ZM20.06 26a20.6 20.6 0 0 0 .76-2.37 5.32 5.32 0 0 0-.1-1.58l-1.5.27c-.84-.85.15-2.35-1.12-3.12-1.41.84-.51 2.4-1.09 3.55-1.45-1-1.39-3.3-3.73-3.85A30.26 30.26 0 0 0 14 22a27.06 27.06 0 0 0 1.3 2.67c-1.19.36-2.6-.8-3.19.9a3 3 0 0 0 2.94.93c1.58-.22 3.16-.34 5.01-.5Zm79.68 8.27c-1.57-3.43-4.63-4.58-7.52-3.18-.24 1.7-.47 3.3-.75 5.31 2.84-.64 5.47-1.4 8.27-2.16ZM13 27.71a14.41 14.41 0 0 1-1.68-2.4 1.43 1.43 0 0 0-1.47-1 3.26 3.26 0 0 0-3.32 2.16l2.62 1.23-2.51 1.76 1.84.89a7.51 7.51 0 0 1-.32.86c-.29.55-.23 1.12.34 1.23s1.41-.22 1.44-.44c.27-2.07 1.74-3.24 3.06-4.29ZM16.65 34c-4-1.31-7.87-1.28-11.26 1.6 3.77-.44 7.61-.14 11.26-1.6Z" fill="#bc678f" data-color="1"/>
        <path d="M49.17 25.25c-.57-.69-1.63-.9-1-1.83.2-.31.83-.36 1.59-.67-.26 1.05-.41 1.7-.59 2.5Z" fill="#bc678f" data-color="1"/>
        <path d="m42.72 14.77.81-1.35.44.25-.74 1.39Z" fill="#bc678f" data-color="1"/>
        <path d="M73 18.07c-.47.8-.82 1.38-1.39 2.36-.27-1-.42-1.64-.64-2.47Z" fill="#bc678f" data-color="1"/>
        <path d="m28.69 16.72 5.49 4.18c.39.3.76-.36.38-.64l-5.49-4.19c-.38-.29-.75.36-.38.65Z" fill="#bc678f" data-color="1"/>
        <path d="M30.85 14.33a13.59 13.59 0 0 1 3.22 3c.29.37 1 0 .65-.38a14.79 14.79 0 0 0-3.5-3.29c-.4-.27-.77.38-.37.65Z" fill="#bc678f" data-color="1"/>
        <path d="M34.45 12.93a18 18 0 0 0-4.92 5.25c-.25.41.4.79.65.38a17 17 0 0 1 4.65-5c.39-.28 0-.93-.38-.65Z" fill="#bc678f" data-color="1"/>
        <path d="M54.21 30.92a7.7 7.7 0 0 0 7.36 2.84c.47-.07.27-.8-.2-.72a7 7 0 0 1-6.63-2.65c-.3-.38-.83.15-.53.53Z" fill="#bc678f" data-color="1"/>
        <path d="M53.74 28a7.65 7.65 0 0 0 5.06 2.31c.48 0 .48-.72 0-.75a6.83 6.83 0 0 1-4.53-2.09c-.34-.35-.87.19-.53.53Z" fill="#bc678f" data-color="1"/>
        <path d="m54 24 1.67 1a.37.37 0 0 0 .38-.64l-1.68-1c-.41-.25-.79.4-.37.65Z" fill="#bc678f" data-color="1"/>
        <path d="m79 16.22 1.45 1.2c.37.31.9-.22.53-.53l-1.45-1.2c-.37-.31-.9.22-.53.53Z" fill="#bc678f" data-color="1"/>
        <path d="M83.23 8.3a6.67 6.67 0 0 1 2.32 3.37.37.37 0 0 0 .72-.2 7.48 7.48 0 0 0-2.66-3.82c-.38-.29-.76.36-.38.65Z" fill="#bc678f" data-color="1"/>
        <path d="M88 11.44a11.25 11.25 0 0 0-2 6.43.38.38 0 0 0 .75 0 10.47 10.47 0 0 1 1.86-6.05c.27-.4-.37-.78-.65-.38Z" fill="#bc678f" data-color="1"/>
        <path d="M36.59 32.25a.38.38 0 0 0 0-.75.38.38 0 0 0 0 .75Z" fill="#bc678f" data-color="1"/>
        <path d="M49.86 15.83a.38.38 0 0 0 0-.75.38.38 0 0 0 0 .75Z" fill="#bc678f" data-color="1"/>
        <path d="M50.11 33.21a.38.38 0 0 0 0-.75.38.38 0 0 0 0 .75Z" fill="#bc678f" data-color="1"/>
        <path d="M45.76 34.18a.38.38 0 0 0 0-.75.38.38 0 0 0 0 .75Z" fill="#bc678f" data-color="1"/>
        <path d="M51.8 38a.38.38 0 0 0 0-.75.38.38 0 0 0 0 .75Z" fill="#bc678f" data-color="1"/>
        <path d="M52.52 34.18a.38.38 0 0 0 0-.75.38.38 0 0 0 0 .75Z" fill="#bc678f" data-color="1"/>
        <path d="M66 38.77a.38.38 0 0 0 0-.77.38.38 0 0 0 0 .75Z" fill="#bc678f" data-color="1"/>
        <path d="M69.18 37.08a.38.38 0 0 0 0-.75.38.38 0 0 0 0 .75Z" fill="#bc678f" data-color="1"/>
        <path d="M75 37.32a.38.38 0 0 0 0-.75.38.38 0 0 0 0 .75Z" fill="#bc678f" data-color="1"/>
        <path d="M76.9 34.66a.38.38 0 0 0 0-.75.38.38 0 0 0 0 .75Z" fill="#bc678f" data-color="1"/>
        <path d="M78.84 33.46a.38.38 0 0 0 0-.75.38.38 0 0 0 0 .75Z" fill="#bc678f" data-color="1"/>
        <path d="m28.64 28.47-.24-.24a.38.38 0 0 0-.53.53l.24.24c.34.34.88-.19.53-.53Z" fill="#bc678f" data-color="1"/>
        <path d="M24.27 27.66a.38.38 0 0 0 0-.75.38.38 0 0 0 0 .75Z" fill="#bc678f" data-color="1"/>
        <path d="M24 32.25a.38.38 0 0 0 0-.75.38.38 0 0 0 0 .75Z" fill="#bc678f" data-color="1"/>
        <path d="M63.14 18.49a.38.38 0 0 0 0-.75.38.38 0 0 0 0 .75Z" fill="#bc678f" data-color="1"/>
        <path d="M49.34 7.53a24.48 24.48 0 0 1 5.34 6.14c.25.42.9 0 .65-.37A25.13 25.13 0 0 0 49.87 7c-.36-.31-.9.22-.53.53Z" fill="#bc678f" data-color="1"/>
        <path d="M53.66 7.56A11.29 11.29 0 0 1 57 12.64c.15.46.87.26.72-.2A12 12 0 0 0 54.19 7c-.36-.31-.89.22-.53.53Z" fill="#bc678f" data-color="1"/>
        <path d="m58.9 8.91 1.23 2.41c.22.43.87 0 .65-.38l-1.23-2.4c-.22-.43-.87 0-.65.37Z" fill="#bc678f" data-color="1"/>
        <path d="M66.24 5.84a7.22 7.22 0 0 1 2.63 4.64c.08.47.8.27.73-.2a7.85 7.85 0 0 0-2.83-5c-.37-.3-.9.22-.53.53Z" fill="#bc678f" data-color="1"/>
        <path d="M69.57 5.51a14.45 14.45 0 0 1 2.2 4.72.37.37 0 0 0 .72-.2 14.81 14.81 0 0 0-2.27-4.9c-.27-.39-.92 0-.65.38Z" fill="#bc678f" data-color="1"/>
        <path d="M74.66 7a11 11 0 0 1 .92 4.16.38.38 0 0 0 .75 0 12.06 12.06 0 0 0-1-4.54c-.19-.44-.84-.06-.65.38Z" fill="#bc678f" data-color="1"/>
    </g>
</svg>
