<?xml version="1.0" encoding="UTF-8"?>
<svg data-bbox="0 0 1326.92 976.52" viewBox="0 0 1326.99 976.52" xmlns="http://www.w3.org/2000/svg" data-type="color">
    <g>
        <path d="M1266.34 367.41c-19.2-29.87-43.2-58-71.74-84-5.15-13.4-8.83-22.56-9.87-25.14l-.06-.16q-10.44-30.81-31.53-60.07c-26.66-36.94-64.78-70.09-113.31-98.54C940.31 41.13 808 9 667.37 9S394.43 41.13 294.9 99.48c-48.52 28.45-86.64 61.6-113.29 98.54q-5.84 8.1-10.86 16.33c-11.35 17.49-21.61 39-30.75 62.23-31.91 27.94-58.46 58.32-79.33 90.8C26.38 420.75 9 477.41 9 535.85S26.38 651 60.65 704.28c33 51.4 80.29 97.55 140.48 137.15s130 70.61 207.93 92.29c80.59 22.42 166.2 33.8 254.43 33.8s173.84-11.38 254.44-33.8c77.89-21.72 147.84-52.72 207.93-92.29s107.45-85.75 140.48-137.15c34.27-53.32 51.65-110 51.65-168.43s-17.38-115.1-51.65-168.44Zm-41.21 18.9c.27.89.55 1.78.82 2.67.42 1.33.83 2.67 1.23 4s.84 2.74 1.25 4.1c.21.68.41 1.36.61 2s.41 1.35.61 2c.41 1.36.81 2.71 1.2 4.07s.79 2.7 1.16 4q.81 2.83 1.59 5.64c.21.71.4 1.44.6 2.15.11.36.2.71.29 1.07l.87 3.2.57 2.12c.18.7.36 1.4.55 2.1s.37 1.4.54 2.09l.53 2.09q.79 3.09 1.52 6.15c.19.77.37 1.54.55 2.32q.7 2.94 1.33 5.8c.22.95.42 1.91.62 2.85s.38 1.75.55 2.61.32 1.6.49 2.39.34 1.76.5 2.64.34 1.73.49 2.59.27 1.51.4 2.26.25 1.48.37 2.21c.28 1.71.54 3.39.76 5 0 .31.09.64.13.95.08.55.16 1.1.22 1.65s.11.83.15 1.24c0 .18 0 .35.07.54a76 76 0 0 1 .22 2.06c0 .31.07.63.1.94a1.59 1.59 0 0 0 .07.38 262.45 262.45 0 0 1 2 32.13c0 102.7-60.08 199.35-169.17 272.11-109.41 73-255 113.19-409.79 113.19s-300.37-40.2-409.79-113.19C150.22 705.81 90.15 609.16 90.15 506.46q0-11.46 1-22.81s0 0 0-.08c.25-1.52 3.68-22.61 10.2-53.11 2.48-11.61 5.39-24.57 8.77-38.35 8.42-34.5 19.59-74.07 33.43-109.91a188.41 188.41 0 0 0-2.68 56.88c.27 2.61.61 5.2 1 7.79 4.8 32.39 18.1 63.84 39.74 93.82 26.65 36.94 64.77 70.09 113.29 98.54 99.53 58.35 231.81 90.48 372.47 90.48s272.94-32.13 372.46-90.48c48.53-28.45 86.65-61.6 113.31-98.54 22.56-31.27 36.07-64.15 40.29-98q.51-3.92.82-7.85.63-7.71.64-15.47a186.29 186.29 0 0 0-1.56-24.11c9.06 23.92 21.06 56.92 31.37 89.71ZM667.37 14.4c261.32 0 478.41 112.72 516.26 259.27q1.17 4.44 2.07 8.93a180.53 180.53 0 0 1 3.79 36.75c0 2.94-.08 5.88-.23 8.8-.12 2.68-.3 5.35-.56 8-15 160.37-243.09 288.15-521.33 288.15-275.84 0-502.41-125.59-520.89-284-.31-2.63-.57-5.26-.75-7.9-.32-4.34-.48-8.68-.48-13.06a181.71 181.71 0 0 1 5.75-45.08c.76-3.06 1.62-6.09 2.56-9.11C197.42 122.77 411.14 14.4 667.37 14.4Zm455.53 822.52c-122.68 80.74-285.83 125.2-459.41 125.2s-336.73-44.46-459.4-125.2C81.77 756.42 14.4 649.49 14.4 535.85c0-90.31 42.54-176.37 121.39-248.32-18.09 48.72-31.4 102.91-39.71 141.83a267.79 267.79 0 0 0-11.33 77.1c0 52.9 15.52 104.2 46.13 152.47 29.49 46.53 71.69 88.29 125.43 124.14S372.43 847 442 866.57c71.95 20.29 148.38 30.59 227.14 30.59s155.2-10.3 227.15-30.59c69.53-19.62 132-47.72 185.65-83.5s95.94-77.61 125.43-124.14c30.62-48.27 46.14-99.57 46.14-152.47a264.8 264.8 0 0 0-2.14-33.72c0-.25-.06-.51-.09-.76-4.91-46.33-34.17-129.18-52.31-177.21 73.89 70.44 113.65 153.77 113.65 241.08-.04 113.64-67.4 220.57-189.72 301.07Z" fill="#000000" data-color="1"/>
        <path d="M334.43 505c90.42 51.9 210.57 80.47 338.36 80.47S920.72 556.9 1011.14 505c44.11-25.3 78.74-54.79 103-87.66 25.21-34.19 38-70.54 38-108q0-8.16-.81-16.25-.42-4.29-1.07-8.55a170.83 170.83 0 0 0-10.64-38.35q-1.92-4.76-4.14-9.46a212.21 212.21 0 0 0-21.32-35.43c-24.23-32.88-58.86-62.37-103-87.68-90.44-51.92-210.6-80.49-338.37-80.49S424.85 61.7 334.43 113.58c-44.1 25.31-78.75 54.8-103 87.68q-6.22 8.44-11.43 17.06-3 4.88-5.58 9.8a178.55 178.55 0 0 0-17.57 48c-.62 2.93-1.14 5.87-1.58 8.81a163.59 163.59 0 0 0-1.82 24.34c0 37.51 12.78 73.86 38 108.05 24.23 32.9 58.88 62.39 102.98 87.68ZM201.85 278.9c.59-3 1.27-6 2-9A180.56 180.56 0 0 1 224 222.21c2-3.4 4.17-6.79 6.44-10.13C299 110.67 471.41 38.54 672.79 38.54c213.36 0 394.24 81 453.44 192q2.58 4.84 4.84 9.76a170.47 170.47 0 0 1 12.53 38c.58 2.92 1.08 5.83 1.49 8.77a155.93 155.93 0 0 1 1.6 22.28c0 149.3-212.59 270.77-473.9 270.77S198.88 458.6 198.88 309.3a156.66 156.66 0 0 1 2.97-30.4Z" fill="#000000" data-color="1"/>
        <path d="M1146.31 348.53c-5.65-12.08-18.9-20.23-32.2-20.1a51 51 0 0 0-5.21-17.71c-5-10-12.44-18.18-19.11-24.91-6.4-6.46-13.53-13-22.34-17.27-9.74-4.7-20.22-5.54-28.74-2.3a33.57 33.57 0 0 0-11.9 8 3 3 0 0 0-.46.49 51.08 51.08 0 0 0-4.78 5.8 89.16 89.16 0 0 0-29.11-22.89 94.87 94.87 0 0 0-18.22-6.6 33.91 33.91 0 0 0-4.57-21.24c-3.3-5.78-8.15-11.13-14.84-16.37A93.53 93.53 0 0 0 881 195.31a21.79 21.79 0 0 0-3.58-12.11c-3.85-5.79-10.17-9.08-16.41-11.79-18.81-8.14-38.37-12.85-53.32-16-6.83-1.46-13.53-2.72-20.33-2.07-8.07.77-15 4.36-18.93 9.84a21.55 21.55 0 0 0-4 14.53c-13.24-5.93-27-8.7-39.86-8-15.12.83-29 6.38-39.35 15.64L685 185a31 31 0 0 0-28.36-12c-9.16 1.17-16.84 6.28-24.26 11.22-6.74 4.49-13.1 8.73-20.41 10.17-4.53.89-9.19.66-14.13.4-1.44-.07-2.9-.14-4.37-.19a47.17 47.17 0 0 0-20-17.91c-7.44-3.69-16.11-6-26.51-7.19-19.55-2.15-38.08.74-53.58 8.35-17.49 8.59-30.7 23.23-36.25 40.16a165.16 165.16 0 0 0-29.95 11.11L427 229a84.29 84.29 0 0 0-104 22.61 2.64 2.64 0 0 0-.23.35 93.84 93.84 0 0 0-14.24 5.85c-25.62 13-44 36.74-48.07 61.94a2.37 2.37 0 0 0 0 .65 65.24 65.24 0 0 0-11.46 3.83c-6.72 3.09-12 7.5-15.22 12.76-3 4.94-4.6 11-4.66 18.14-.06 6.09 1 12.06 2 17.84 0 .1 0 .19.08.29a44.39 44.39 0 0 0-13.28 18.94 2.7 2.7 0 1 0 5.08 1.86 38.36 38.36 0 0 1 15.85-19.66 33.52 33.52 0 0 1 24.5-4.24 30.68 30.68 0 0 1 5.8 1.95l.64.3a40.54 40.54 0 0 1 19.13 20.27c4.44 10 5.68 22 3.7 35.68-1.79 12.28-5.92 24.31-9.92 35.95a2.7 2.7 0 1 0 5.11 1.76c4.08-11.88 8.3-24.16 10.16-36.94s1-24.58-2.55-34.69a63 63 0 0 1 5 9.05c8 17.82 6.35 51.13-3.58 71.3a2.7 2.7 0 0 0 1.23 3.62 2.79 2.79 0 0 0 1.19.27 2.7 2.7 0 0 0 2.43-1.5c4-8.09 6.71-18 8.13-28.18 14.55-.45 28.37 2.31 40 8 12.9 6.33 23.18 16.34 28.93 28.18 6.12 12.57 6.88 27.32 2 39.45a2.7 2.7 0 0 0 5 2 52 52 0 0 0 3.39-22.78 87.41 87.41 0 0 0 21.14-8.25c12.33-3.12 26.76 2.73 35.18 14.32 7.61 10.48 10.45 25.13 7.79 40.2a2.7 2.7 0 0 0 2.19 3.13 2.49 2.49 0 0 0 .47 0 2.7 2.7 0 0 0 2.66-2.23 66.45 66.45 0 0 0 .59-19.44 70.57 70.57 0 0 1 71.89 29.06 1.5 1.5 0 0 0 .11.13 79.43 79.43 0 0 0-4.8 7.45 2.7 2.7 0 0 0 4.69 2.67 78 78 0 0 1 47.22-36.23 76.17 76.17 0 0 1 55.38 6.5 67.49 67.49 0 0 0-15.06 39.5 2.69 2.69 0 0 0 2.58 2.81h.12a2.71 2.71 0 0 0 2.7-2.59 62 62 0 0 1 15.83-38.61 57.76 57.76 0 0 1 12.38-10.42c16.93-10.48 38.9-11.26 56-2s28.33 29.19 27.15 48.26a2.71 2.71 0 0 0 5.4.33 55.71 55.71 0 0 0-5.83-28 109.09 109.09 0 0 1 67.71-26.73c13.63-.42 24.69 2.15 32.88 7.62 9.55 6.39 15.25 19.24 13 29.26a2.71 2.71 0 0 0 2 3.24 3.05 3.05 0 0 0 .6.06 2.7 2.7 0 0 0 2.63-2.1c2.78-12.26-3.78-27.28-15.25-35A47.4 47.4 0 0 0 825 520.8a3.05 3.05 0 0 0-.14-.77c-1.67-4.83-3.39-9.84-3.91-14.87-.55-5.31.42-10.14 2.74-13.62 2.72-4.1 7.24-6.71 13.19-9.36a171.8 171.8 0 0 1 32.77-10.86c5.28-1.18 11.48-2.28 17.41-1.58s11.16 3.34 14.17 7.22c3.87 5 4.49 12 4.78 18.77a402 402 0 0 1-.87 49.33 2.69 2.69 0 0 0 2.48 2.9h.21a2.69 2.69 0 0 0 2.69-2.49 406.81 406.81 0 0 0 .89-50c-.26-6-.77-12.14-3.3-17.54 6.56-3.79 13.56-7.59 20.93-9.63 8.25-2.29 16.25-2 22.54.74 7.46 3.27 13.78 10.67 17.35 20.28 3.33 9 4.19 18.82 5 28.34a2.71 2.71 0 0 0 2.69 2.46h.24a2.69 2.69 0 0 0 2.45-2.93c-.86-9.87-1.76-20.08-5.34-29.74a46 46 0 0 0-9.16-15.3c6.75-9.62 13.79-19.44 22.23-27.72 7.86-7.71 16.09-13.2 24.54-16.39 10.36-.87 16.44.71 20.29 5.27 4.78 5.66 6.13 14.59 3.54 23.3-2.49 8.38-7.91 15.64-13.39 22.24A240.23 240.23 0 0 1 990.89 510a2.7 2.7 0 1 0 3.45 4.15 245.29 245.29 0 0 0 31.84-31.8c5.85-7 11.65-14.84 14.42-24.16 3.11-10.43 1.35-21.29-4.59-28.32a19 19 0 0 0-6.48-5 36.92 36.92 0 0 1 22.76 8c9.31 7.73 13 21.19 8.69 31.32a2.7 2.7 0 0 0 5 2.14c4.79-11.14 1.85-24.95-6.88-34.44 4.73-5.47 9.16-10.35 14.39-14.39 6.06-4.68 12.49-7.46 18.58-8 6.9-.65 13.73 1.7 17.82 6.15a2.7 2.7 0 0 0 4-3.66c-5.18-5.63-13.28-8.56-21.76-7.9a71.43 71.43 0 0 0 1.39-16.85 31.27 31.27 0 0 0-4.14-14c9.15-7.81 20-17.49 23.7-30.86a37.61 37.61 0 0 0 1.25-8.53 30.46 30.46 0 0 1 27.14 17 2.72 2.72 0 0 0 2.45 1.56 2.61 2.61 0 0 0 1.15-.26 2.7 2.7 0 0 0 1.24-3.62Zm-83.57 12a86.35 86.35 0 0 0-48.57 12.68 62.81 62.81 0 0 0-8.27 6c-5-8.59-4.47-19.63-3.39-28.38a172 172 0 0 1 17.27-56.69c1.21-2.41 2.59-4.95 4.15-7.45a2 2 0 0 0 .12-.19 50.92 50.92 0 0 1 6-7.85c6.76-2.68 15.44-1.57 23.34 3 7.6 4.42 13.7 11.19 19.6 17.73 8.7 9.66 16.55 19.25 17 30.44.45 11.69-7.16 22-15.85 32.34a49.63 49.63 0 0 0-11.4-1.67ZM987 358.7a37.47 37.47 0 0 0 2.38-17.08c2.89.79 5.76 1.55 8.62 2.3q-.49 3.1-.89 6.24c-.36 2.9-.65 6-.74 9.27a21.38 21.38 0 0 0-9.37-.73Zm-19.43 41c-24.24 27.69-52.2 36.21-69.16 32.39-7.74-1.75-12.92-5.94-14.57-11.79a16 16 0 0 1-.57-4.82 24.23 24.23 0 0 0 10.51 7.83 31 31 0 0 0 10.41 1.66 53.75 53.75 0 0 0 8.94-.84 87.63 87.63 0 0 0 50.55-27.83c3.71-4.14 7.53-8.83 9.11-14.4 1.65 5.79-.14 12.01-5.18 17.76Zm-277 78.23a95.29 95.29 0 0 1 106.58 11 26.94 26.94 0 0 0-1 2.83 94.21 94.21 0 0 0-100.08-6.06 72.16 72.16 0 0 0-5.49-7.81Zm-53.15-25.15a61.26 61.26 0 0 0-13.95 1.82c4.52-11.66 15.14-21.69 29.61-27.8 16.4-6.94 34.17-7.56 48.76-1.72 15.71 6.29 27.5 20.8 29.45 36.17a101.78 101.78 0 0 0-44.4 12.52c-12.89-13.43-31.38-21.26-49.46-21.03Zm-54.14 33.37c-7.16-6.36-16.84-10.72-28.84-13a84.86 84.86 0 0 0-38.35 1.41c-1.3-14.25 5.44-29 17.38-37.72s28.12-11.12 42.58-6.44c13.93 4.52 26 15.55 32.23 29.51a2.51 2.51 0 0 0 .26.45 60 60 0 0 0-19.35 16.22 56.63 56.63 0 0 0-5.9 9.53Zm-104.8 26.46c5.46-12.7 16.17-23.35 29.77-29.48a70.8 70.8 0 0 1 24.9-6 79.1 79.1 0 0 0-15.94 6.16 76.49 76.49 0 0 0-31.06 30q-3.8-.52-7.66-.72Zm7.86-32.31a54.1 54.1 0 0 0 18.32-17.1 48 48 0 0 0 4.23-8.1 22.36 22.36 0 0 0 3.83.35h.56a46 46 0 0 0-2.47 20.75.29.29 0 0 0 0 .09c-1.63.6-3.24 1.23-4.8 1.94a66.72 66.72 0 0 0-15.13 9.43 16.42 16.42 0 0 0-4.53-7.4Zm-50.11-53.11c-2.71-5-7.35-10.13-14.92-14.8l-.2-.11c-1.24-.64-2.53-1.21-3.83-1.74 4.88-5.64 12.36-9.87 22.27-12.58 13.53-3.7 26.69-3.58 38.06.35a45.75 45.75 0 0 1 23.94 18.67c4.41 9.13 3.24 21-3.08 30.33-5.79 8.59-15.48 15-27.28 18.1-9 2.35-19.05 2.86-31.38 1.58a43.16 43.16 0 0 0 2.59-6.54c3.36-11.09-1.82-25.87-6.16-33.3ZM323.15 322.67c-4.47-4.26-10.71-5.63-15-6.29a93.49 93.49 0 0 0-24-.22c8.09-15.11 19.17-27.36 32.29-35.57 15.58-9.77 34-13.49 50.61-10.22 5.48 1.09 15.32 4.06 19.66 11.86a31.18 31.18 0 0 1 1.29 11.38v.2A107.07 107.07 0 0 0 353.76 335a56.53 56.53 0 0 0-17.55-1.26 55.27 55.27 0 0 0-8.39 1.42 15.4 15.4 0 0 0-4.67-12.49Zm76.24-29.84a101.54 101.54 0 0 1 53.91-13.43c-7.22 5.42-13 11.17-16.81 17-4 6-6 12.12-6 18.11v.41c.32 9.89 3.58 17.86 6.73 24.35a39.45 39.45 0 0 0 12.48 15.08 90.06 90.06 0 0 1-50.42 27 47.25 47.25 0 0 0-3.56-12.54c-6.81-15.41-20.69-27.19-36.63-32.39a101.37 101.37 0 0 1 40.3-43.59Zm77.39-73.44a57.4 57.4 0 0 1 10-.84l-.82.21c-22.76 6-39.32 12.28-53.69 20.49-5.4 3.08-11.32 7.07-14.34 13.23-4.23 8.64-1.44 18.67 1.41 25.94a106.75 106.75 0 0 0-11.92 4.35 65.89 65.89 0 0 1-6.31-12.41c-1.16-3.42-2.2-8.52-.56-13.37 2-5.84 7.38-10.09 12.42-13.48 17.91-12.09 40.03-20.44 63.81-24.12ZM572.92 245a26.33 26.33 0 0 0-1.69 7.32 2.34 2.34 0 0 0-.09.54c-1.23 17.16 4 31.22 14.63 39.57 13.18 10.31 30.45 13.12 42.29 14.34 4.56.46 8.9.74 13.07.84a63.76 63.76 0 0 1-24 15.08c-9.7 3.53-20.7 5.38-33.65 5.64-13.72.29-24.35-1.38-33.46-5.24-11.09-4.7-19.44-12.9-22.91-22.5-4.12-11.38-1.8-24.08 5.52-32.23A89.46 89.46 0 0 1 572.92 245Zm120-21.82.17.09c10.32 5.4 17.09 15.43 17.67 26.18.51 9.59-3.92 18-12.49 23.74-29.68 19.82-65.56 16.16-90.44 9.59a56.48 56.48 0 0 1-13.86-5.6c-11.48-6.65-17.51-14.64-17.42-23.11.1-10.32 9.27-21.51 24.53-29.93 13.13-7.25 30.9-12.29 49.11-12.29 14.68-.05 29.66 3.23 42.72 11.28ZM824.66 227A72.71 72.71 0 0 1 867 255a75 75 0 0 0-11.51 22.8q-2.28-1.71-4.75-3.21C840 268 827 264.35 812.09 263.65a2.85 2.85 0 0 0-.77.09c-.18-.29-.35-.58-.55-.87a85.4 85.4 0 0 0-34.37-30 72.81 72.81 0 0 1 48.26-5.87Zm105.79 58.77c4 7.82 10.78 13.67 16.29 17.9a151.2 151.2 0 0 0 54.11 26.33q-1.05 4.28-1.88 8.63c-11.44-3-23.19-6.15-34.16-10.8-12.61-5.36-22.71-12.19-30-20.29-4.94-5.49-7.87-10.93-8.71-16.19a29.33 29.33 0 0 1 1.5-14.52 30.17 30.17 0 0 0 2.85 8.89Zm.18-25c-8.13 10.19-11.55 21.06-9.89 31.45.89 5.51 3.58 11.08 8 16.58A85.71 85.71 0 0 0 898 328.94a31 31 0 0 0-20.9-12.13 43.24 43.24 0 0 0-.36-4.81 41.66 41.66 0 0 0-1.1-5.6 52.33 52.33 0 0 0-15.58-24.82c3.43-12.05 9.3-22.32 17.05-29.79 9-8.7 20.63-13.5 31.91-13.17 11.67.35 22.51 6.49 28 15.76a21.76 21.76 0 0 0-6.39 6.32Zm-54.23 105.5a91.45 91.45 0 0 0-46.4 15.19 43 43 0 0 0-6.73-22.7c1.76.13 3.71.22 5.83.22 11.25 0 26.71-2.37 37.37-13.47a39.75 39.75 0 0 0 10.42-23.28A26 26 0 0 1 894.25 333a85.66 85.66 0 0 0-17.85 33.27Zm-63.4 49.4a1.29 1.29 0 0 0-.09.16 103.89 103.89 0 0 0-60.36 17.84 28.3 28.3 0 0 0-2.37 1.84c-10-5.09-17.45-14.15-19.94-24.27-2.55-10.4.06-20.6 2.71-27.32 7.69-19.55 25.61-34.66 45.66-38.5a2.76 2.76 0 0 0 .51-.16A105.69 105.69 0 0 0 815.84 358l.06.09c5.41 6.08 8.48 14.44 8.65 23.53.15 8-2 16.74-6.2 25.2a55.31 55.31 0 0 1-5.35 8.85Zm-71.81 45.56c-1.5-.08-3-.12-4.5-.13v-.18c-2.07-17.68-15-33.73-32.86-40.9a59.45 59.45 0 0 0-9.29-2.84 91.85 91.85 0 0 1-1.85-65.43c1.34-3.79 3.32-8.58 6.7-12.08 3.2-3.32 7.48-5 11.17-4.44h.3a32.3 32.3 0 0 1 10.16 6.32c7.3 6.76 11.69 16.09 15.29 25.25a67.34 67.34 0 0 0-8.31 15.14c-2.93 7.45-5.82 18.81-2.92 30.59 2.73 11.14 10.65 21.13 21.32 27a27.16 27.16 0 0 0-5.17 21.7Zm-81-42.69a19.34 19.34 0 0 0-4.67-8.35c.32-.35.63-.69.93-1.05 6.07-7.19 8.57-16.44 7.63-28.29a1.38 1.38 0 0 0 0-.2 28.53 28.53 0 0 0-10.48-19.9c-6.11-5.12-14.31-8.35-24.36-9.6a73.89 73.89 0 0 0-73.75 37.54c-.34.61-.64 1.21-1 1.8h-.18A59.3 59.3 0 0 1 493 360.63c14.65-2.8 28.53-9.27 42.11-19.59 11.3 6.21 26.53 8.85 42.24 8.85a149.84 149.84 0 0 0 44.79-6.89c21.1-6.87 38-22 41.48-37 1-.17 1.93-.36 2.87-.56a50 50 0 0 0 17.09 30 47.92 47.92 0 0 0-9.86 13.81 87.44 87.44 0 0 0-4.05 67.26 77.25 77.25 0 0 0-9.44 2.03Zm-61 19.55a59.34 59.34 0 0 0-7.91-6.27 29.06 29.06 0 0 0 10.94-8c1-1.12 2-2.28 2.95-3.4 3.06-3.59 5.94-7 9.71-9 4.38-2.33 9.55-2.56 15-2.82a76.86 76.86 0 0 0 9.14-.78 32.54 32.54 0 0 0 17.2-8.46 26 26 0 0 1-3.9 6.24 26.4 26.4 0 0 1-16.94 9.09c-1.55.18-3.14.22-4.83.27-3.9.12-7.93.24-11.73 2-5.14 2.44-8.17 7.09-11.1 11.6-2.52 4.01-4.95 7.71-8.52 9.53Zm-83.48 11.65h-.12a16.17 16.17 0 0 1-4.91.11 45.77 45.77 0 0 0-1-28.67 42.1 42.1 0 0 0-3.38-6.83c-.07-.14-.13-.29-.2-.43a2.59 2.59 0 0 0-.53-.69 51.28 51.28 0 0 0-26.2-20.07 64 64 0 0 0-24.37-3.22 35.38 35.38 0 0 0-5.5-11.94 48 48 0 0 1 33.95-.83 54.2 54.2 0 0 0 21.05 22.42 71.91 71.91 0 0 0 26.8 9 20.07 20.07 0 0 1 4.25 19.8 2.81 2.81 0 0 0-.13.75 47.93 47.93 0 0 0-19.7 20.57Zm6.33-147.36c4 11 13.41 20.35 25.89 25.63 9.14 3.88 19.58 5.71 32.67 5.71h3c13.55-.28 25.13-2.23 35.39-6 12.07-4.4 22.22-11.38 29.38-20.18q4.86-.15 9.39-.68c-4.12 12.43-19.23 25.15-37.3 31-26.64 8.67-65.92 10.32-86.24-3.7-10.51-7.25-16.68-15.81-18.34-25.44-1.57-9.11 1.22-17.6 4-23.31a39.4 39.4 0 0 0 2.17 16.97Zm348.36 5.37a39.14 39.14 0 0 1 1 4.75c-.6 16.2-11 22-21 25.47-9.47 3.29-20.76 3.09-34.55-.6a125.41 125.41 0 0 1-39.19-18.32 82.68 82.68 0 0 0 15.06-1.84c11-2.41 18.81-7 23.3-13.65 3.87-5.73 5.35-13.48 4-21.26a40.75 40.75 0 0 0-2.33-8.26c-.18-.47-.36-.94-.56-1.42l-.06-.13v-.06c-.46-1.06-1-2.13-1.53-3.2 12.88.94 24.14 4.3 33.5 10 11.17 6.77 19.35 17.22 22.37 28.52Zm-116.75 9.1a95 95 0 0 0 13.64 2 130.6 130.6 0 0 0 47.07 23.72 82.85 82.85 0 0 0 21.28 3.11 49.68 49.68 0 0 0 16.44-2.63c5.09-1.76 11-4.39 15.81-9a31.33 31.33 0 0 1-5.37 7.71c-11.48 12-29.87 12.36-39.81 11.54a100.71 100.71 0 0 1-69.05-36.45ZM740.23 362a85.41 85.41 0 0 0-8.41-16.1c1.12-.13 2.23-.32 3.33-.52 2.37-.41 4.61-.81 6.42-.45 2.13.41 4.1 1.94 6.19 3.56a35.94 35.94 0 0 0 4.15 2.91 70.27 70.27 0 0 0-11.68 10.6Zm17.25-14.22c-2.2-.31-4.25-1.89-6.41-3.56-2.38-1.85-5.08-3.94-8.47-4.6-2.79-.54-5.64 0-8.39.44-2.48.44-4.82.84-6.68.39-.89-1-1.82-1.93-2.81-2.85-9.41-8.72-22.05-11.82-32.2-7.91a26.4 26.4 0 0 0-4.58 2.34 44.47 44.47 0 0 1-16.17-27.82c9.83-2.55 21.63-6.9 30.55-14.2a3 3 0 0 0 .44.5c13.06 11 26.94 19 41.26 23.72l1.12.35a104.64 104.64 0 0 0 27.56 26.71 65.39 65.39 0 0 0-15.22 6.48Zm53-47.23c-3.69 5.46-10.41 9.29-20 11.4-13.46 3-28.12 2.2-42.54-2.15a2.56 2.56 0 0 0-.77-.24l-1.47-.46c-13.65-4.49-26.92-12.13-39.45-22.72a37.24 37.24 0 0 0 4.73-6.12c11.9 7.59 24.22 15.38 37.7 20.69a86.65 86.65 0 0 0 31.48 6.43 62.24 62.24 0 0 0 12.65-1.26c8.36-1.73 14.9-5.08 19.44-9.95.22-.24.43-.49.64-.73a20.05 20.05 0 0 1-2.43 5.1ZM700.55 284.4c-9.66 8.8-24.27 13.39-34.82 15.68s-22.78 2.73-37.12 1.26c-11.18-1.15-27.43-3.77-39.51-13.22a31.92 31.92 0 0 1-10.94-16.67 51.13 51.13 0 0 0 13.09 10.35 62 62 0 0 0 15.19 6.2 155.52 155.52 0 0 0 39.27 5.4c18.36 0 37.93-4 55.55-15.72a35.55 35.55 0 0 0 8.57-8 31.38 31.38 0 0 1-9.28 14.72Zm-177.62 47.53a63.51 63.51 0 0 0 7.28 6c-15.64 11.48-31.64 17.62-48.84 18.73-10.14.65-18.61-.94-25.38-4.69a1.83 1.83 0 0 0-.33-.35 2.61 2.61 0 0 0-1.31-.62 33.16 33.16 0 0 1-11.44-12.49c7.48 5.66 17.37 8 28 8 17.91 0 37.9-6.51 52.02-14.58Zm27 72c-16.5.87-31.24-2.22-42.65-9-12.82-7.59-21.38-20.13-22.82-33.14 1-.09 1.94-.2 2.9-.32a64.69 64.69 0 0 0 64.64 34.8 39.33 39.33 0 0 0-2.1 7.73Zm-95.58-46.73c6.41 3.31 14 5 22.76 5h1.93a43.49 43.49 0 0 0 1.82 8.6 53.43 53.43 0 0 0-35 2.93 35.05 35.05 0 0 0-5.11-4.3 93.82 93.82 0 0 0 13.6-12.23Zm84.18 52.13c2 .12 3.94.18 6 .18 1.65 0 3.32-.05 5-.13a25.91 25.91 0 0 0 4 13.81 54 54 0 0 0-11.87 3.08 25.56 25.56 0 0 0-3.13-16.94ZM560 422.67c-.06-.07-.11-.16-.18-.23-3.44-3.61-5.21-9.06-4.86-14.94.3-5 2-10.29 5.3-16.19a68.52 68.52 0 0 1 68.35-34.8c9 1.12 16.26 3.94 21.56 8.38 6.1 5.12 9.4 12.8 8.41 19.56-1.46 9.9-11.35 16.59-20.37 18.09a73.91 73.91 0 0 1-8.51.72c-5.83.26-11.86.54-17.31 3.43-4.69 2.49-8.05 6.45-11.3 10.27-.92 1.09-1.87 2.22-2.82 3.26-3.33 3.66-8.42 7.87-13.78 7.2a2.47 2.47 0 0 0-1 .06 54.51 54.51 0 0 0-5.76-2.25 54 54 0 0 0-17.73-2.56Zm115.21-6.8a81.87 81.87 0 0 1 3.37-64.22c4.44-8.86 9.79-14.56 15.92-16.93a19 19 0 0 1 3.48-1 23.24 23.24 0 0 0-2.42 2.16c-4.1 4.25-6.38 9.73-7.9 14a97.34 97.34 0 0 0 .73 66.2 68.9 68.9 0 0 0-13.21-.21Zm131.08-150a57.19 57.19 0 0 1 4.84 8.84c.13.29.24.59.36.88l.12.32a15.65 15.65 0 0 1-3.28 16.59c-3.77 4-9.34 6.85-16.58 8.35-12.25 2.54-26.46.84-41.06-4.91-13.16-5.18-25.38-13-37.2-20.49 3.24-7.64 4.11-16.84 2.71-28a2.59 2.59 0 0 0-.28-.88 35 35 0 0 0-3.75-11.68 79.64 79.64 0 0 1 94.12 31ZM532 261.44l-.1.06a32.65 32.65 0 0 0-3.1 3 91.67 91.67 0 0 0-9.27 10.88c-2.81 3.9-11.79 17.9-9 34.28a38.62 38.62 0 0 0 8.6 18.18c-10 5.51-25.69 11.54-41.61 13-12.26 1.13-28.66-.16-37.19-12.76-6.18-9.14-6-18.81.63-28.75 8.34-12.56 26.44-25 49.65-34 18-7 36.33-10.77 49.05-10.23a97.16 97.16 0 0 0-7.66 6.34Zm-43.32-1.14a161.35 161.35 0 0 0-28.27 14.17l-.23-.05a106.58 106.58 0 0 0-35.63 2.58c-2.54-6.34-5.22-15.18-1.8-22.15 2.36-4.84 7.24-8.11 12.16-10.92 13.94-8 30.09-14.12 52.38-19.95 3.59-.94 6.81-1.69 9.83-1.24a9.25 9.25 0 0 1 5.18 3 25.6 25.6 0 0 1 4.36 9.44c1.47 6.05 1.27 12.46 1.07 18.66a1.23 1.23 0 0 0 0 .2 180.93 180.93 0 0 0-19.05 6.26Zm-89 126.46A95.15 95.15 0 0 0 436 372.71c.11.08.21.17.32.24a30.26 30.26 0 0 1 13.26 17.48 83.43 83.43 0 0 0-11.43 2.28c-11.87 3.25-20.71 8.59-26.27 15.89a64.51 64.51 0 0 0-17.68-2.55c3.96-5.61 5.55-12.44 5.46-19.29Zm37.26 85.3a128.81 128.81 0 0 0 15.23 1 80.29 80.29 0 0 0 20.42-2.44c13.07-3.42 23.87-10.63 30.39-20.31a38.89 38.89 0 0 0 3.59-6.61 43.28 43.28 0 0 1-6.4 16.53c-6.9 10.58-18.49 18.36-31.79 21.33-11.49 2.57-24.37 1.58-36.54-2.79a55.88 55.88 0 0 0 5.08-6.71ZM613.33 458a2.13 2.13 0 0 0-.11-.33 60.87 60.87 0 0 0-10.11-15.59c4-2.57 6.63-6.58 9.17-10.49s5.13-7.87 8.89-9.65c2.78-1.32 6.09-1.42 9.58-1.53 1.73-.05 3.51-.1 5.28-.31a31.67 31.67 0 0 0 15.52-6.29 13.87 13.87 0 0 1 3.53 6.33s0 0 0 .05c-1.38.49-2.75 1-4.11 1.59-17.07 7.21-29.33 19.59-33.63 34a3 3 0 0 0-.1.71c-1.31.44-2.62.95-3.91 1.51Zm186.41 26a101.82 101.82 0 0 0-52.94-22.31 2.52 2.52 0 0 0-.08-.53v-.19a21.71 21.71 0 0 1 9-22.83 98.38 98.38 0 0 1 60.26-16.81l1.15.05c4 .16 13.28.51 18.17 6.63a30.38 30.38 0 0 1 4.44 7.5c3.11 7.63 3.6 16.05 4 24.23a72.51 72.51 0 0 0-18.85 5.7c-11.2 5.06-19.81 10.27-25.15 18.56ZM849 459c-.13-2.71-.28-5.44-.53-8.18a23.65 23.65 0 0 0 3.76.31 22.38 22.38 0 0 0 3-.2 34.65 34.65 0 0 0-.4 7.48c-2.03.16-3.95.35-5.83.59Zm7.6-13.83a17.84 17.84 0 0 1-8.83 0 52.09 52.09 0 0 0-3.14-11.66 35.83 35.83 0 0 0-5.22-8.84c-5.58-7-14.92-8.23-20.11-8.55a66.35 66.35 0 0 0 3.87-6.9 63 63 0 0 0 6.43-20.89 1.32 1.32 0 0 0 .2-.12c21.35-16 50.91-20.86 76.34-12.79a69.12 69.12 0 0 0-10.59 8.4c-7.66 7.47-12.9 14.89-15.59 21.86l-.11.27c-2.12 5.65-2.56 11-1.19 15.82.1.37.23.73.35 1.09a35.48 35.48 0 0 0-22.41 22.33ZM968 373.78a2.91 2.91 0 0 0 0 .51c1 6.44-2.43 11.8-8.32 18.36a82.26 82.26 0 0 1-47.42 26.11c-7 1.18-12.25 1-16.64-.58s-9.53-6.21-10.48-11.09c2.44-6.06 7.22-12.66 14.18-19.44 12.1-11.78 30.27-19.23 49.87-20.43a24.76 24.76 0 0 1 18.81 6.56Zm4.22-3.39a30.14 30.14 0 0 0-23.33-8.56 91 91 0 0 0-36.69 10 3.29 3.29 0 0 0-.61-.34 88 88 0 0 0-29.53-5.36c7.2-24.15 26.79-44.8 50.58-53.09 7.64 7.83 17.74 14.45 30.07 19.68a186.33 186.33 0 0 0 21 7.28 32.56 32.56 0 0 1-11.5 30.39Zm46.24-85.08c-1.33 2.22-2.49 4.39-3.5 6.38a177.67 177.67 0 0 0-12.75 33A146 146 0 0 1 950 299.34c-5-3.88-11.29-9.21-14.75-16.06-3.38-6.68-3.45-14.34-.19-19.53 5-8 16.21-9.21 20.78-9.37 10.66-.34 22.18 2.4 34.27 8.15a83.78 83.78 0 0 1 28.34 22.78Zm-67-67.62c6.13 4.8 10.54 9.64 13.49 14.8a28.67 28.67 0 0 1 3.94 17.44 65.81 65.81 0 0 0-13.22-1 39.45 39.45 0 0 0-13.9 2.83c-6.39-10.95-19-18.23-32.63-18.63-12.69-.37-25.76 5-35.82 14.68-1 .91-1.86 1.86-2.75 2.84a77.93 77.93 0 0 0-19.14-18c7.52-4.36 17-10.64 23-18.51a33 33 0 0 0 5.94-13.29 88 88 0 0 1 71.12 16.84Zm-78.6-31.49c5.15 7.73 2.2 18.25-2.73 24.75-6 8-16.55 14.4-23.91 18.52a78.44 78.44 0 0 0-10.09-4.72c6-3.53 12.29-7.94 17-14 6.41-8.25 8.62-18.24 5.92-26.71a26.65 26.65 0 0 0-6.14-10.11q3 1.19 5.91 2.44c5.49 2.37 10.99 5.21 14.07 9.83Zm-100.09-19.91c3.05-4.22 8.54-7 15.06-7.62 6-.57 12.29.61 18.69 2s12.45 2.79 18 4.24a73.76 73.76 0 0 1 17.36 7.27c6.06 3.48 10.32 8.28 12 13.53 2.12 6.67.19 15-5 21.75s-12.77 11.32-19.47 14.94a1.53 1.53 0 0 0-.21.14c-1.1-.3-2.21-.59-3.33-.84a77.89 77.89 0 0 0-34.54.15c3.32-7.1 2.84-16.29-1.65-24.1-3.66-6.35-9.63-11.79-18.19-16.55-3.22-3.68-1.88-10.52 1.28-14.91Zm-47.95 8.78c13-.71 27 2.38 40.41 9 9.66 4.73 16.11 10.1 19.74 16.41 3.78 6.56 4.68 16.46-.9 22.69a2.71 2.71 0 0 0-.53.91 75.77 75.77 0 0 0-13.49 6.1c-1.46-.56-2.94-1.1-4.44-1.58a85.4 85.4 0 0 0-56.4 1.58 39.55 39.55 0 0 0-13.55-11.65 77.55 77.55 0 0 0-6.86-3.74 31.06 31.06 0 0 0-.8-24.68c9.38-8.81 22.75-14.27 36.82-15.04ZM613 199.68c8.36-1.65 15.47-6.39 22.36-11 7.22-4.81 14-9.35 22-10.36a25.14 25.14 0 0 1 26.55 34.19c-29-11.71-62.7-5.72-85.41 6.82-10.1 5.57-17.67 12.21-22.26 19.25a93 93 0 0 0-14.82 4.46 30.51 30.51 0 0 1 23.24-42.7 63.88 63.88 0 0 1 12.93-.19c5.01.29 10.23.55 15.41-.47Zm-117.26-17c14.58-7.16 32.08-9.87 50.61-7.83 9.76 1.08 17.84 3.25 24.7 6.66a43.07 43.07 0 0 1 16 13.16c-1.08.07-2.15.18-3.23.35a35.92 35.92 0 0 0-27.41 50.15 93.89 93.89 0 0 0-9.78 5.26c-8.49-1.61-20.32-.74-33.45 2.26.18-5.92.27-12.49-1.26-18.78a32.26 32.26 0 0 0-3.44-8.71 14.1 14.1 0 0 0-1.59-2.43 22.92 22.92 0 0 0-6.82-6.27c-7.33-4.32-16.3-3.67-24.11-2.46-4.22.65-8.4 1.46-12.51 2.4 5.65-14.18 17.25-26.36 32.3-33.75Zm-123.65 44.39a79.24 79.24 0 0 1 49.07 5.13q-5.84 3.2-11.25 6.83c-5.79 3.89-12 8.87-14.52 16.23-2.12 6.29-.86 12.63.57 16.84a66.94 66.94 0 0 0 6.5 13c-1.95 1-3.88 2-5.77 3.08-1.1.63-2.18 1.29-3.26 2-.34-11-5.79-22.12-14.82-29.75s-21.51-12-34.78-11.88a67.88 67.88 0 0 0-12 1.18 79.2 79.2 0 0 1 40.26-22.66Zm-61.16 35.54c11.28-5.72 22.35-8.65 32.93-8.71 12-.11 23.11 3.69 31.26 10.59a37.35 37.35 0 0 1 4.27 4.26 46.57 46.57 0 0 0-11.28-3.68c-17.91-3.53-37.78.45-54.52 10.94-14.89 9.33-27.29 23.5-35.94 41-3.55.54-7 1.18-10.29 1.84l-1.36.27c4.24-22.97 21.32-44.52 44.93-56.51ZM236 369.78a84 84 0 0 1-1.52-14.61c.05-6.09 1.35-11.26 3.86-15.35 3.38-5.49 8.87-8.84 12.88-10.68 5.57-2.55 11.79-3.92 17.18-5 11.73-2.35 25.52-4.46 38.91-2.42 3.57.54 8.72 1.64 12.09 4.85 2.91 2.78 3.93 7.32 2.35 10.41-17.19 6.34-31.43 20.75-37 38.27a69.08 69.08 0 0 0-11-6.9c-.92-.49-1.85-.93-2.8-1.34a37 37 0 0 0-6.46-2.12 39 39 0 0 0-28.49 4.89Zm69.3 31.49a67.62 67.62 0 0 0-16-22.22c5.65-21.28 25.41-38 47.36-40 22.28-2 45 11.45 54.05 31.9 4.81 10.88 5.65 25.83-3.31 34.7a2.73 2.73 0 0 0-.48.65 72.2 72.2 0 0 0-24.92 6.9c-10.35 5-18.33 12.15-23.44 20.7a59.08 59.08 0 0 1-27.7.2c.19-12.33-1.62-24.1-5.54-32.83Zm5.09 42.31c.13-1.32.22-2.64.3-4a63.92 63.92 0 0 0 24.79.47 45 45 0 0 0-1.88 5.68 97.15 97.15 0 0 0-23.19-2.15Zm41.75 8.58a80 80 0 0 0-13.3-5.08c3.19-12.28 12.18-22.53 25.54-29 17.46-8.48 38.71-8.9 54.17-1.06q8.65 5.37 12.49 12l.08.16c.15.24.3.51.45.76a22.35 22.35 0 0 1 2 15.31c-4 19.59-28.93 37.57-48.66 40.67-.42-1-.88-2.06-1.37-3.07-6.25-12.94-17.4-23.85-31.38-30.69Zm34.64 38.89c20.2-3.6 44.76-20.75 51.17-41.2a24.5 24.5 0 0 1-.73 9c-2.6 8.59-8.48 16.64-17.45 23.92a81.76 81.76 0 0 1-31.26 15.68 56.14 56.14 0 0 0-1.71-7.4Zm33.09-1.56c1.12-.82 2.23-1.66 3.31-2.53 1.6-1.3 3.1-2.63 4.53-4a75.81 75.81 0 0 0 27.64 5.36 64.36 64.36 0 0 0 14.17-1.53A59.53 59.53 0 0 0 481 483a10.9 10.9 0 0 1 5.14 8.91 59.67 59.67 0 0 0-13.45 20.56 78.2 78.2 0 0 0-17.91 2.45l-.19.06a47.63 47.63 0 0 0-4.76-8.24 42 42 0 0 0-29.94-17.25ZM501 530.17a76.78 76.78 0 0 0-42.65-3.87 55.22 55.22 0 0 0-1.7-6.25 73.82 73.82 0 0 1 46.72 3.68 71.92 71.92 0 0 1 34 29.58c-.93 1-1.84 2-2.72 3.09A76.94 76.94 0 0 0 501 530.17Zm76-.69a82.3 82.3 0 0 0-35.64 19.84 78.55 78.55 0 0 0-49.49-34.94 71 71 0 0 1 27.92-26.29 75.1 75.1 0 0 1 40.83-8c8.47 2.46 15.33 6.23 20.47 11.25a56.62 56.62 0 0 0-1 37.38c-1.09.28-2.09.49-3.17.76Zm8.46-1.73v-.07c-5.38-15.6-2.2-34.38 8.12-47.84 10.08-13.15 26.95-21.46 44-21.7h1.84a53.6 53.6 0 0 0-27.86 18.2c-10.86 13.66-14.85 32.77-10.76 50.52a83.15 83.15 0 0 0-15.42.89Zm64-.45a62.77 62.77 0 0 0-12.07 9.77 79.86 79.86 0 0 0-30.87-9.79c-4.36-16.63-.85-34.8 9.26-47.55 10.68-13.48 28.66-20.38 44.76-17.17a.78.78 0 0 0 .22 0 64.16 64.16 0 0 1 22.42 15 70.42 70.42 0 0 1 18.93 43.75 62.59 62.59 0 0 0-52.71 5.99Zm61.39-2.12c-1-.57-2.13-1.11-3.21-1.61a77.53 77.53 0 0 0-8.76-33.25 88.86 88.86 0 0 1 95.88 7 3.33 3.33 0 0 0 .48.28c-.51 6.84 1 14 2.92 21.05a114.89 114.89 0 0 0-65.84 27.07 57.9 57.9 0 0 0-21.53-20.54ZM868.45 466a178 178 0 0 0-33.79 11.2c-5.89 2.63-11.85 5.82-15.49 11.3-3.86 5.8-4.1 12.54-3.62 17.17a63.11 63.11 0 0 0 3.38 13.73 80.83 80.83 0 0 0-15.3-1.08c-2.88-10.47-5-20.53-.84-28.85 4.37-8.73 12.86-14 24.25-19.15 10.81-4.92 19.89-5.94 32.51-6.94 8.49-.67 15.22-1 21.77.75a73.91 73.91 0 0 0-12.87 1.87Zm59.13-2.93c-8 2.23-15.44 6.25-22.35 10.25a20.44 20.44 0 0 0-1.91-2.05 3 3 0 0 0-.24-.26C888 457.19 876.68 456.7 860.19 458a30.07 30.07 0 0 1 21.37-30.25c3.33 4.66 8.77 8.05 15.7 9.62a43.63 43.63 0 0 0 9.53 1c11.3 0 25.56-3.76 40.42-13.48a2.61 2.61 0 0 0 .42.16 29 29 0 0 1 21.16 32.17v.27c-2.74 3.64-5.37 7.33-7.95 11a32.1 32.1 0 0 0-7.09-4.33c-7.44-3.31-16.75-3.66-26.17-1.05Zm55.68-22.52a130 130 0 0 0-8.89 9.75 34.24 34.24 0 0 0-21.69-29.3 124.87 124.87 0 0 0 19-17.78c7.33-8.37 9.12-18.11 4.89-26.71a21 21 0 0 0-1-1.86 36.65 36.65 0 0 0 8.37-9.56 3.18 3.18 0 0 0 .38-.11 15.73 15.73 0 0 1 12.23.24 37 37 0 0 0 5.41 17.85 33.84 33.84 0 0 0-7.74 13.38c-3.12 10.84.39 22.17 4.46 32a86 86 0 0 0-15.42 12.14Zm86.89-27.37c-5.56 4.29-10.32 9.52-15.05 15-9.93-7.87-24-10.68-37.92-7.5a59.87 59.87 0 0 0-13.79 5.07c-3.61-8.8-6.62-18.78-4-27.83 2.16-7.51 8.1-14.29 17.63-20.18a81 81 0 0 1 45.51-11.88c9 .38 15.38 2.54 19.48 6.59 3.5 3.47 5.66 8.83 6.08 15.08.38 5.76-.64 11.69-1.66 17.43a45.32 45.32 0 0 0-16.28 8.26Zm37.65-72.28c-3.19 11.69-13.22 20.69-21.75 28l-.26-.28a24.16 24.16 0 0 0-6.33-4.45c8.59-10.38 16.4-21.6 15.9-34.57s-9-23.42-18.37-33.84c-6.18-6.86-12.57-13.94-20.89-18.79a37.15 37.15 0 0 0-16.76-5.15c.43-.19.85-.38 1.29-.55 7.14-2.71 16.06-1.94 24.47 2.12 8.07 3.9 14.79 10.09 20.86 16.2 6.36 6.43 13.49 14.24 18.1 23.52 4.72 9.52 6.05 19.4 3.74 27.83Z" fill="#000000" data-color="1"/>
        <path d="M663.49 976.52c-89 0-175.44-11.48-256.84-34.13C327.86 920.46 257.05 889 196.18 849c-61.24-40.29-109.38-87.33-143.1-139.8C17.86 654.35 0 596 0 535.85s17.86-118.49 53.08-173.3C74 330 100.65 299.34 132.41 271.28c9.41-23.62 19.27-43.62 29.32-59.54v-1l1.86-1.91c3.32-5.39 6.93-10.79 10.72-16 27.39-38 66.43-72 116-101C391.23 32.57 525.13 0 667.37 0s276.13 32.57 377 91.72c49.6 29.07 88.64 63.07 116 101a237.92 237.92 0 0 1 32.67 62.2c1.61 4 4.86 12.15 9.13 23.23 28.39 26.14 52.5 54.51 71.67 84.36 35.22 54.81 53.08 113.12 53.08 173.3s-17.86 118.5-53.08 173.3c-33.71 52.46-81.86 99.5-143.1 139.8-60.87 40.07-131.69 71.51-210.47 93.44-81.34 22.65-167.75 34.17-256.78 34.17ZM114.93 320.84c-60 64.67-91.53 138.36-91.53 215 0 110.53 65.93 214.78 185.6 293.57 121.22 79.77 282.62 123.71 454.45 123.71S996.73 909.18 1118 829.4c119.71-78.79 185.63-183 185.63-293.56 0-72.06-28-141.77-81.4-203.67 16.16 45.84 34.18 102.84 38 138.77v.64a273.64 273.64 0 0 1 2.22 34.87c0 54.64-16 107.56-47.54 157.29-30.16 47.59-73.24 90.25-128 126.81-54.46 36.32-117.78 64.81-188.2 84.67-72.76 20.53-150 30.93-229.59 30.93s-156.82-10.4-229.58-30.93c-70.42-19.86-133.74-48.35-188.2-84.67-54.8-36.56-97.88-79.22-128-126.81C91.74 614 75.75 561.09 75.75 506.46a277.84 277.84 0 0 1 11.6-79.33c6.13-28.67 15.38-67.47 27.58-106.29ZM100.06 485c-.6 7.13-.91 14.34-.91 21.45 0 99.61 58.66 193.59 165.16 264.63 108 72 251.72 111.67 404.79 111.67s296.84-39.66 404.8-111.67c106.51-71.05 165.16-165 165.16-264.63a253.09 253.09 0 0 0-1.86-30.69c-.06-.31-.11-.64-.14-1l-.09-.89c-.06-.65-.13-1.26-.2-1.86l-.09-.73c0-.3-.07-.61-.11-.91v-.21c0-.45-.11-.9-.17-1.36l-.15-1.07c-.22-1.54-.46-3.14-.73-4.77v-.22c-.1-.64-.2-1.27-.32-1.92l-.05-.32c-.11-.61-.21-1.22-.33-1.83-.15-.89-.3-1.69-.46-2.48v-.12c-.13-.71-.26-1.41-.4-2.12l-.26-1.29c-.09-.45-.18-.91-.28-1.36v-.13q-.24-1.22-.51-2.43v-.13q-.27-1.34-.57-2.67c-.43-1.92-.86-3.81-1.31-5.72l-.56-2.34c-.47-1.95-1-4-1.48-6-.18-.71-.34-1.37-.52-2v-.12c-.16-.64-.33-1.29-.5-1.94l-2-7.61c0-.19-.1-.39-.16-.58l-.17-.62c-.15-.55-.31-1.1-.46-1.65-.54-1.94-1.07-3.8-1.6-5.67-.37-1.33-.75-2.64-1.14-4s-.79-2.69-1.19-4v-.13c-.18-.62-.36-1.25-.55-1.87l-.23-.74q-.17-.6-.36-1.2l-.22-.74c-.35-1.15-.69-2.29-1.05-3.43-.4-1.35-.8-2.65-1.21-3.94v-.12q-.21-.74-.45-1.47l-.1-.34-1.07-1.07v-2.35c-4.37-13.83-9-27.67-13.58-40.71-4.66 34.68-18.68 68.42-41.68 100.31-27.41 38-66.45 72-116 101-100.89 59.15-234.78 91.72-377 91.72s-276.14-32.57-377-91.72c-49.61-29.08-88.65-63.07-116-101C151.88 414.88 138 382 133 348.18c-.22-1.51-.42-3-.59-4.37q-7 23.76-13.5 50.43c-3 12.29-5.94 25.1-8.71 38.1-5.88 27.53-9.27 47.54-10 52v.28ZM667.37 23.4c-121.63 0-239.74 25.24-332.57 71.06-90.69 44.76-152 106.32-172.68 173.34-.89 2.86-1.71 5.76-2.43 8.65a173.39 173.39 0 0 0-5.44 42.9c0 4.08.15 8.26.45 12.41.17 2.39.4 4.83.72 7.48 8.62 73.91 65.2 143 159.32 194.58 95.9 52.55 221.13 81.49 352.63 81.49 132.73 0 258.81-29.41 355-82.81 94.49-52.44 150.37-122.47 157.35-197.18.24-2.46.41-5 .53-7.57.14-2.81.22-5.62.22-8.4a172.27 172.27 0 0 0-3.6-34.92c-.58-2.87-1.24-5.71-2-8.48-17.78-68.85-78-132.36-169.69-178.85-93.65-47.52-213.64-73.7-337.81-73.7Z" fill="#bc678f" data-color="2"/>
        <path d="M672.79 594.47c-129.32 0-251.08-29-342.84-81.65-45.19-25.93-80.77-56.25-105.74-90.13-26.37-35.77-39.74-73.92-39.74-113.39a173.56 173.56 0 0 1 1.92-25.68c.49-3.24 1.05-6.37 1.67-9.32a187.76 187.76 0 0 1 18.44-50.41c1.79-3.38 3.75-6.83 5.83-10.24 3.59-5.94 7.59-11.91 11.88-17.73 25-33.88 60.54-64.21 105.74-90.14 91.75-52.65 213.51-81.65 342.84-81.65s251.09 29 342.83 81.65c45.19 25.92 80.76 56.25 105.74 90.14a222.46 222.46 0 0 1 22.21 36.94c1.55 3.29 3 6.63 4.35 9.93a181.21 181.21 0 0 1 11.19 40.34c.45 3 .83 6 1.13 9.05.56 5.63.85 11.4.85 17.12 0 39.47-13.37 77.62-39.73 113.39-25 33.89-60.56 64.21-105.74 90.13-91.76 52.66-213.51 81.65-342.83 81.65Zm0-546.93c-96.36 0-188.91 16.63-267.65 48.1-76.3 30.49-134.13 72.5-167.21 121.48-2.17 3.18-4.23 6.44-6.17 9.69a171.77 171.77 0 0 0-19.15 45.3c-.72 2.82-1.37 5.69-1.93 8.52a148.58 148.58 0 0 0-2.8 28.66c0 68.84 47.74 134 134.42 183.56 88.28 50.45 205.7 78.22 330.49 78.22S915 543.3 1003.27 492.86c86.68-49.53 134.42-114.72 134.42-183.56a147.66 147.66 0 0 0-1.51-21c-.39-2.77-.86-5.55-1.41-8.3l-.13-.65A162.19 162.19 0 0 0 1122.9 244c-1.39-3-2.94-6.16-4.62-9.31-28-52.53-86.45-100-164.52-133.56-81.54-35.05-178.69-53.59-280.97-53.59Z" fill="#bc678f" data-color="2"/>
        <path d="M621.31 592.53h-.51a11.7 11.7 0 0 1-11.18-12.18A76.46 76.46 0 0 1 620.11 545a67.73 67.73 0 0 0-81.21 30.37 11.7 11.7 0 1 1-20.35-11.56c.5-.88 1-1.76 1.57-2.64a61.47 61.47 0 0 0-51.49-21.75 76.65 76.65 0 0 1-1.18 13.2 11.68 11.68 0 0 1-11.52 9.67 11.86 11.86 0 0 1-2.06-.18 11.71 11.71 0 0 1-9.47-13.56c2.24-12.67 0-24.83-6.2-33.34-5.95-8.19-16.18-12.74-24.71-11.1a96.61 96.61 0 0 1-15.27 6.5 59.68 59.68 0 0 1-4.09 19.39 11.7 11.7 0 1 1-21.73-8.68c3.91-9.81 3.25-21.84-1.78-32.18-4.88-10-13.69-18.58-24.8-24a73.24 73.24 0 0 0-28.46-7 96.5 96.5 0 0 1-7.63 23.08 11.7 11.7 0 0 1-15.66 5.33 11.73 11.73 0 0 1-6.52-9.82 11.83 11.83 0 0 1-6.12-.4 11.69 11.69 0 0 1-7.27-14.87c3.86-11.26 7.86-22.89 9.52-34.33 1.74-11.93.72-22.28-3-30.75a31.46 31.46 0 0 0-14.75-15.76l-.54-.26a21.84 21.84 0 0 0-4-1.35 24.45 24.45 0 0 0-17.85 3.15 29.39 29.39 0 0 0-12.08 15.06 11.7 11.7 0 1 1-22-8 53.79 53.79 0 0 1 12-19.13 89.2 89.2 0 0 1-1.35-14.93c.07-8.75 2.09-16.41 6-22.77 4.17-6.78 10.78-12.39 19.14-16.23a64.92 64.92 0 0 1 7.27-2.79c6-26.08 25.47-50.07 51.91-63.49a104.24 104.24 0 0 1 12.92-5.52 93.31 93.31 0 0 1 109.9-25.12 174.25 174.25 0 0 1 23-8.55c7.05-17.25 21.08-32 39.13-40.82 17.05-8.37 37.28-11.55 58.53-9.21 11.47 1.26 21.13 3.9 29.53 8.07a57.67 57.67 0 0 1 21 17.18c4.5.23 8.39.42 11.8-.25 5.55-1.1 10.93-4.68 17.16-8.83 7.9-5.26 16.86-11.22 28.12-12.66a40.24 40.24 0 0 1 30.6 9.14A74.73 74.73 0 0 1 724 160.69a91.93 91.93 0 0 1 33.14 4.57 31.43 31.43 0 0 1 3.92-7.4c5.48-7.58 14.72-12.51 25.38-13.53 8.07-.77 15.51.62 23.06 2.23 15.36 3.28 35.48 8.14 55 16.59 7.16 3.1 15.17 7.31 20.33 15.06a29.71 29.71 0 0 1 3.44 7 103.18 103.18 0 0 1 72.07 21.12c7.62 6 13.22 12.19 17.11 19a45.08 45.08 0 0 1 5.91 19 110.26 110.26 0 0 1 12.93 5.21 97.77 97.77 0 0 1 25 17.5 42 42 0 0 1 14.19-9.2c10.82-4.12 23.89-3.17 35.86 2.61 10 4.84 17.85 12 24.81 19 7.18 7.24 15.26 16.14 20.78 27.25a62.14 62.14 0 0 1 4.86 13.36 44.78 44.78 0 0 1 32.64 24.64 11.73 11.73 0 0 1-5.64 15.56 11.59 11.59 0 0 1-5 1.1 11.75 11.75 0 0 1-10.59-6.73 21.35 21.35 0 0 0-11.45-10.36l-.12.45c-3.71 13.55-13.27 23.59-21.42 30.9a43.21 43.21 0 0 1 2.16 11 59.35 59.35 0 0 1-.15 9.17 34.27 34.27 0 0 1 18.16 10.07 11.7 11.7 0 1 1-17.22 15.85c-2.15-2.34-6.32-3.66-10.35-3.28-4.4.42-9.21 2.57-13.94 6.21a69 69 0 0 0-8.27 7.74c7.1 11.47 8.62 25.71 3.54 37.52a11.7 11.7 0 0 1-21.5-9.26c2-4.63 1.19-10.62-1.71-15.56a44.46 44.46 0 0 1-1.77 15.66c-3.23 10.87-9.66 19.56-16.13 27.34a253.42 253.42 0 0 1-33 33 11.71 11.71 0 0 1-12.86 1.39 11.87 11.87 0 0 1-1.57 2.53 11.68 11.68 0 0 1-7.94 4.14h-1A11.63 11.63 0 0 1 965 518.46c-.79-8.94-1.6-18.16-4.51-26-2.68-7.23-7.36-12.9-12.52-15.17-4.34-1.9-10.36-2-16.52-.31a64.78 64.78 0 0 0-12.5 5.22 73.11 73.11 0 0 1 1.45 12.88 417.1 417.1 0 0 1-.9 51.11 11.78 11.78 0 0 1-12.6 10.74 11.73 11.73 0 0 1-10.74-12.6 389.86 389.86 0 0 0 .86-48.22c-.22-5.08-.65-10.74-2.9-13.64-1.49-1.93-4.61-3.38-8.12-3.8-4.59-.55-9.86.41-14.4 1.42a163.17 163.17 0 0 0-31.05 10.3c-5.35 2.39-8.07 4.16-9.37 6.12-1.12 1.69-1.6 4.58-1.28 7.72a45.53 45.53 0 0 0 2.31 9.45 54 54 0 0 1 11.33 5.74c14.64 9.78 22.64 28.46 19 44.42a11.65 11.65 0 0 1-11.4 9.16 11.39 11.39 0 0 1-2.6-.29 11.7 11.7 0 0 1-8.81-14c1.45-6.42-2.77-15.48-9.21-19.78-6.6-4.41-15.88-6.47-27.61-6.12a100.36 100.36 0 0 0-57 20.41 63.93 63.93 0 0 1 3.88 25.89 11.7 11.7 0 0 1-23.36-1.43c1-15.71-8.28-32.08-22.48-39.81s-32.69-7.1-46.92 1.71a49 49 0 0 0-10.33 8.67l-.27.3A52.77 52.77 0 0 0 633 581.33a11.68 11.68 0 0 1-11.69 11.2Zm-114.74-83c.81.32 1.62.65 2.42 1a87.14 87.14 0 0 1 34 25.65 91.28 91.28 0 0 1 26.25-13.75 66 66 0 0 1 1.37-27.93 43.28 43.28 0 0 0-11.81-5.5 66.14 66.14 0 0 0-34.94 7.08 61.93 61.93 0 0 0-17.29 13.41Zm209.66 8.42A66.24 66.24 0 0 1 734 532.81a123.57 123.57 0 0 1 53.05-22 64.43 64.43 0 0 1-1-8.61 79.72 79.72 0 0 0-75.46-7.58 86.69 86.69 0 0 1 5.64 23.29ZM614 519.27a87.94 87.94 0 0 1 21.75 6.89 70.59 70.59 0 0 1 8.87-6.51 71.63 71.63 0 0 1 46.33-10 60.21 60.21 0 0 0-14.36-25.78 55.23 55.23 0 0 0-18.41-12.54c-12.75-2.32-26.93 3.28-35.45 14-7.18 9.09-10.33 21.67-8.73 33.94Zm-160.22-21.94a46.23 46.23 0 0 1 3.35 4.14c.77 1 1.5 2.15 2.21 3.28 2.42-.42 4.88-.74 7.35-.95a67.25 67.25 0 0 1 4.78-8.19 74.66 74.66 0 0 1-17.69 1.72Zm522.27-25.46a58 58 0 0 1 6.37 12.47 86.38 86.38 0 0 1 4.28 17.39 230 230 0 0 0 28.41-28.63c4.87-5.85 9.66-12.22 11.69-19 1.71-5.75 1-11.62-1.8-14.94-.65-.77-2.34-2.77-11.39-2.2-6.88 2.82-13.69 7.5-20.26 13.95-6.26 6.09-11.7 13.15-17.3 20.96Zm-619.92-27.79a77.68 77.68 0 0 1 33.74 31.37c15-4.9 32.15-18.47 34.91-32a13.34 13.34 0 0 0-1.08-9.19l-.19-.32c-.15-.24-.26-.45-.36-.63-1.79-3-4.81-5.79-9-8.43-13-6.43-31-5.93-45.83 1.29-7.86 3.83-13.89 9.19-17.58 15.52 1.84.75 3.64 1.56 5.38 2.41Zm181.93 18.5a97.87 97.87 0 0 1 18.06 1.7 75.3 75.3 0 0 1 24.46 8.8q.72-1 1.47-2a68 68 0 0 1 14.54-13.9 44.8 44.8 0 0 0-23.3-18.23c-11.76-3.81-25-1.84-34.49 5.13a34.48 34.48 0 0 0-12.91 19.3 92.7 92.7 0 0 1 12.17-.8Zm217.25-8.73a111.82 111.82 0 0 1 43 17.8c6.54-6.42 14.71-10.72 22.8-14.4a79.14 79.14 0 0 1 13.11-4.7 47.6 47.6 0 0 0-2.88-13.64 21.36 21.36 0 0 0-3.13-5.28c-2.32-2.9-9-3.16-11.48-3.25-.54 0-1 0-1.37-.07a89.35 89.35 0 0 0-54.65 15.28 12.75 12.75 0 0 0-5.4 8.26Zm-113.14-10a78.45 78.45 0 0 1 46.28 19 110.91 110.91 0 0 1 31.3-9.51 40 40 0 0 0-21.24-19.91c-12.41-5-27.69-4.37-41.92 1.65a54.5 54.5 0 0 0-14.42 8.77Zm228.57 4.66c11.89.11 23.11 2.8 35.94 13.71a89.62 89.62 0 0 1 18.49-7.78c11.44-3.17 22.86-2.66 32.18 1.43q.52.22 1 .48c.54-.75 1.1-1.52 1.67-2.29a20 20 0 0 0-11.78-19.29c-13.65 8.11-28.24 12.55-41.5 12.55a52.42 52.42 0 0 1-11.51-1.22 37 37 0 0 1-15.93-7.64 21.21 21.21 0 0 0-6.37 5.93 20.8 20.8 0 0 0-2.19 4.12ZM452 458.64h.13a66 66 0 0 0 16.77-2c9.68-2.53 17.53-7.65 22.09-14.42 4.43-6.56 5.44-14.74 2.62-21a37 37 0 0 0-19-14.48c-9.65-3.34-21-3.4-32.75-.18a52.92 52.92 0 0 0-8.75 3.19 44.59 44.59 0 0 1 10.91 13c4.32 7.33 10.17 22.25 7.98 35.89Zm516-38.79a42.92 42.92 0 0 1 8.3 9.3 43.83 43.83 0 0 1 2.11 3.56 99.12 99.12 0 0 1 9.22-7.73c-2.53-7.35-4.39-15.74-3.46-24.37a40.56 40.56 0 0 1-5.78 8.54 144.58 144.58 0 0 1-10.33 10.7Zm-135.08-10.24a29.88 29.88 0 0 1 13.54 9.4 45 45 0 0 1 6.54 11.06c.18.44.35.88.52 1.33.1-.16.21-.31.32-.47a45 45 0 0 1 15.09-13.47 36.77 36.77 0 0 1 2.53-14.71 5.77 5.77 0 0 1 .23-.58 51.85 51.85 0 0 1 3.07-6.47l.14-6 2 2.54a81.79 81.79 0 0 1 9.11-11.5c-16.84-1.05-34.24 3.41-48 12.69a72.6 72.6 0 0 1-5.09 16.18Zm-316.25 5c.52 1.1 1 2.2 1.42 3.31a51.08 51.08 0 0 1 2.79 10.55c1.31-1.17 2.68-2.27 4.09-3.31.82-.6 1.68-1.19 2.55-1.76a11.56 11.56 0 0 0-1.26-6.51 85.44 85.44 0 0 1-9.59-2.25Zm-196.92 11.82a50.08 50.08 0 0 0 13.34-.55 64.8 64.8 0 0 1 25-20.77 81.18 81.18 0 0 1 24.25-7.3c4.44-6.08 3.32-16 .15-23.18-7.53-17-26.46-28.21-45-26.57-16.49 1.46-31.69 13.14-37.86 28.52a76.93 76.93 0 0 1 13.9 21c4.18 9.29 5.76 19.91 6.22 28.85Zm458.1-71.62c-16.07 4-30.22 16.48-36.49 32.4-2.17 5.51-4.36 13.79-2.36 21.88a28.3 28.3 0 0 0 10.8 15.63 113.56 113.56 0 0 1 58.3-17.89c.73-1.24 1.4-2.52 2.17-4.07 3.57-7.17 5.39-14.44 5.26-21a28.27 28.27 0 0 0-4.63-15.48 114.16 114.16 0 0 1-33.05-11.47Zm-192.54 63.65h.32c.28.06 2.54-.58 6-4.32.84-.93 1.74-2 2.61-3 3.63-4.27 7.73-9.11 13.95-12.41 7.24-3.84 14.61-4.18 21.12-4.47a66.37 66.37 0 0 0 7.45-.61c5.73-1 12.14-5.15 12.93-10.52.54-3.63-1.64-8.29-5.28-11.35-4-3.31-9.63-5.44-16.89-6.34a59.49 59.49 0 0 0-59.37 30.22c-2.6 4.7-4 8.75-4.19 12.37a13.24 13.24 0 0 0 .85 5.72 62.33 62.33 0 0 1 15.74 2.91c1.55.53 3.16 1.13 4.76 1.8Zm443-8a53.83 53.83 0 0 1 25.15 6 93.22 93.22 0 0 1 11.15-10.38 56.73 56.73 0 0 1 13.79-8 48.31 48.31 0 0 0 .65-10c-.27-4-1.52-7.39-3.43-9.28-2.4-2.38-7-3.72-13.53-4a71.81 71.81 0 0 0-40.4 10.55c-7.57 4.67-12.19 9.72-13.71 15-1.17 4.06-.58 8.77.68 13.34a64.61 64.61 0 0 1 6.47-1.84 58.83 58.83 0 0 1 13.22-1.41Zm-327.06-.82c2 .6 4 1.28 5.92 2.05a63.75 63.75 0 0 1 9.56 4.8c-.17-.6-.33-1.19-.47-1.79-3.47-14.08-.13-27.37 3.28-36a75.29 75.29 0 0 1 6.6-12.92c-2.82-6.58-6.26-13-11.25-17.57a23.37 23.37 0 0 0-6.08-4 5.77 5.77 0 0 0-3 1.78c-2.19 2.26-3.66 5.91-4.7 8.84a82.85 82.85 0 0 0 .18 54.79Zm193.83-2.48a9.72 9.72 0 0 0 3.55 2.57c2.84 1 6.8 1.07 12.11.18A73.21 73.21 0 0 0 953 386.64c3.66-4.07 5.3-6.62 5.9-8.49a16.82 16.82 0 0 0-9.13-1.94c-17.49 1.06-33.57 7.58-44.15 17.89a59.88 59.88 0 0 0-10.5 13.04Zm-487.75-8.85 1.37.26a49.5 49.5 0 0 1 9.38-7.21 103.54 103.54 0 0 1-9.95 2.9c-.13 1.35-.43 2.74-.76 4.03Zm579-21.51a30.21 30.21 0 0 1 1.37 11.38 42.07 42.07 0 0 1 3.52-6.09 44.73 44.73 0 0 1-2.56-8.07c-.72.98-1.5 1.87-2.31 2.76Zm-551 6.8c-.72.41-1.44.8-2.17 1.19.84-.26 1.69-.51 2.55-.74h.05Zm72.55-17.6a50.13 50.13 0 0 0 41 16.11 84 84 0 0 1 20.85-23.41c-10.37-.55-22.7-2.39-33.74-7.19A111.57 111.57 0 0 1 507.88 366Zm-136.14-34c14.28 7.2 25.94 19.1 32.18 33.21a57.83 57.83 0 0 1 2.07 5.48 80.69 80.69 0 0 0 30.51-16.2 50.32 50.32 0 0 1-7.41-11.27c-3.57-7.34-7.27-16.41-7.63-28a8.56 8.56 0 0 1 0-1.16c.1-7.67 2.62-15.28 7.5-22.62.16-.25.33-.5.5-.74a91.64 91.64 0 0 0-25.59 10 92.58 92.58 0 0 0-32.13 31.3Zm659.76-40.4c-1.21 1.93-2.41 4.1-3.69 6.63a163 163 0 0 0-16.36 53.73 64.73 64.73 0 0 0-.55 12.7 95.49 95.49 0 0 1 52.22-13.12 67.14 67.14 0 0 1 7.51.72c5.78-7.25 10.62-14.78 10.34-22.05-.32-8.17-7.13-16.37-14.68-24.75-5.43-6-11-12.27-17.43-16-4.69-2.72-9.77-3.79-13.75-3a47.8 47.8 0 0 0-3.38 4.71ZM808.38 363Zm86.49-4.87a93.61 93.61 0 0 1 16.85 3.87 101 101 0 0 1 36.62-9.19 40.49 40.49 0 0 1 22 4.93l2.65-9.27 1.07 3.91a23.88 23.88 0 0 0 1.1-5.58c-6-1.89-11.18-3.77-16-5.81a105.11 105.11 0 0 1-28.58-17.49 74.61 74.61 0 0 0-35.71 34.61Zm-616.94 2.25c.94.47 1.86 1 2.78 1.48a71.83 71.83 0 0 1 30.39-30 24.48 24.48 0 0 0-5.13-1.26c-12-1.83-24.83.16-35.79 2.35-4.89 1-10.5 2.2-15.19 4.35-2.35 1.08-6.65 3.46-9 7.21-1.64 2.68-2.49 6.28-2.53 10.72v1.56a47 47 0 0 1 23-.7 45.48 45.48 0 0 1 7.9 2.57l.43.18c1.09.49 2.14.99 3.14 1.52Zm593.4-7a46.84 46.84 0 0 1-6.42 5.09c1.57-.24 3.14-.45 4.72-.63.53-1.56 1.1-3.04 1.7-4.52Zm-230.1-8.89a49.49 49.49 0 0 1 18.16 9.42 44.2 44.2 0 0 1 1.9 1.7 90.38 90.38 0 0 1 4.38-10.33 67.06 67.06 0 0 1 5.59-9.31 58.8 58.8 0 0 1-7.37-10.65 74.77 74.77 0 0 1-22.66 19.11ZM514.4 267.24a162.07 162.07 0 0 0-20.48 6.48c-21.22 8.28-38.2 19.73-45.43 30.62-4.57 6.89-4.78 12.66-.68 18.72 6.07 9 19.06 9.75 28.91 8.84a100.42 100.42 0 0 0 29.28-7.71 45.28 45.28 0 0 1-4.33-13c-3.42-19.85 7.2-36.46 10.54-41.08q1.08-1.45 2.19-2.87ZM740 330.38a22.56 22.56 0 0 1 4.32.4 21.22 21.22 0 0 1 3.14.86 109.16 109.16 0 0 1-7.88-9.42 131.41 131.41 0 0 1-37.69-20.84 89.11 89.11 0 0 1-19.17 8.95 36.08 36.08 0 0 0 6.78 10.87c13.29-5 29.49-1.19 41.34 9.79l.45.43 1.37-.23a41.15 41.15 0 0 1 7.34-.81Zm-10.69 1.26Zm73.39-8.32a113.75 113.75 0 0 0 15.4 5.35c12 3.21 21.56 3.47 29.26.8 9-3.12 14.35-6.86 15-16.54a28.77 28.77 0 0 0-.61-2.85c-2.43-9.09-9.15-17.54-18.43-23.19a58 58 0 0 0-15.48-6.45l.06.38c1.67 10-.32 20.16-5.47 27.78-4.43 6.51-11.04 11.4-19.73 14.72ZM341 324.5a65.29 65.29 0 0 1 7.76.47A115.77 115.77 0 0 1 379 289.32a24.85 24.85 0 0 0-.58-3.45c-2.15-3-6.94-5.46-13.07-6.67-14.36-2.83-30.43.45-44.09 9a79.68 79.68 0 0 0-20.18 18.42 84.27 84.27 0 0 1 8.44.86c5.5.84 13.55 2.65 19.86 8.67a24.3 24.3 0 0 1 5.81 8.61h.25c1.82-.18 3.68-.26 5.56-.26Zm198.23-50c-5.06 5.77-6.52 15-3.61 23 2.62 7.25 9.16 13.55 18 17.27 7.9 3.35 17.36 4.79 29.76 4.54 11.94-.25 22-1.91 30.75-5.1l.7-.27c-11.11-2.08-23.84-6.07-34.55-14.46-11.7-9.17-18.07-23.56-18.26-41a80.48 80.48 0 0 0-22.81 15.99Zm346.26 35a40 40 0 0 1 12.82 6.91 96.37 96.37 0 0 1 17.25-11.58 38.81 38.81 0 0 1-3.68-11.25c-2.06-12.83 1.91-26 11.47-38.15.42-.63.88-1.25 1.35-1.86a26.19 26.19 0 0 0-15.93-6c-8.85-.27-18.12 3.62-25.41 10.65a54.88 54.88 0 0 0-13 20.83 59.89 59.89 0 0 1 14 25 53.33 53.33 0 0 1 1.11 5.44Zm72.22-46.14h-1.52c-5 .17-11.23 1.61-13.46 5.15-1.28 2-1.64 6.26.6 10.69 2.64 5.23 7.91 9.68 12.2 13a136.94 136.94 0 0 0 40.65 21.39 188 188 0 0 1 10.76-26l.63-1.23a76.46 76.46 0 0 0-21.28-15.74c-10.2-4.81-19.81-7.27-28.6-7.27Zm-233.51 8.22c9.56 6 19.43 11.89 29.78 16 13 5.1 25.4 6.65 35.93 4.47 5.38-1.12 9.35-3 11.82-5.67a6.64 6.64 0 0 0 1.44-7.3l-.1-.25c-.06-.17-.12-.33-.19-.5a50.69 50.69 0 0 0-4.12-7.51 70.61 70.61 0 0 0-74.79-30.09c.29 1.17.52 2.35.71 3.54a11.11 11.11 0 0 1 .45 2c1.16 9.55.87 17.9-.95 25.3Zm-74-50.77c-15.58 0-31.89 4.07-44.75 11.17-12 6.63-19.82 15.32-19.89 22.14s8.08 12.41 12.94 15.22a47.56 47.56 0 0 0 11.64 4.7c23.09 6.09 56.26 9.58 83.15-8.37 4.12-2.75 8.93-7.72 8.5-15.77-.41-7.6-5.33-14.76-12.85-18.69l-.72-.41c-10.64-6.54-23.79-10-38.05-10Zm-154.96 10.8a27.37 27.37 0 0 0-5.68 1.08c-21.48 5.63-37 11.51-50.19 19.07-3.49 2-7.24 4.4-8.54 7.05-.88 1.79-.94 4.38-.2 7.75a114.6 114.6 0 0 1 27.59-1.34 173.59 173.59 0 0 1 27.19-13.3c4.44-1.74 8.94-3.3 13.46-4.69a42.58 42.58 0 0 0-.95-9.92 17.33 17.33 0 0 0-2.48-5.69h-.2Zm321 23.29a90.19 90.19 0 0 1 34.76 9.51 83.44 83.44 0 0 1 4.81-9 63.84 63.84 0 0 0-33.19-19.7 63.36 63.36 0 0 0-25.3-.44 94.05 94.05 0 0 1 18.9 19.63Zm-457.4-13.85a59.3 59.3 0 0 1 25.61 12.44q.85.73 1.68 1.5c.21-.87.46-1.73.75-2.6 2.54-7.55 7.76-13 13-17.21a70 70 0 0 0-25.88.69 69.91 69.91 0 0 0-15.18 5.18Zm157.55-20.16a41.78 41.78 0 0 1 4.29 10.91 57 57 0 0 1 1.45 10 87.87 87.87 0 0 1 22.69-.79l.67-.38a44.69 44.69 0 0 1 23.43-50.12c-.6-.34-1.21-.67-1.84-1-5.9-2.93-13-4.81-21.69-5.77-16.82-1.85-32.61.55-45.65 7a60.74 60.74 0 0 0-18.13 13.56c7.4-.54 15.66.08 23 4.43a31.63 31.63 0 0 1 9.38 8.53 23 23 0 0 1 2.38 3.63Zm391.56 3.27h1.5a48.8 48.8 0 0 1 35.92 17.07 52.21 52.21 0 0 1 10-1.27c1.07 0 2.14-.05 3.22 0a23.1 23.1 0 0 0-1.46-3c-2.35-4.12-6-8.11-11.22-12.18a79.15 79.15 0 0 0-58.45-15.92 41.76 41.76 0 0 1-5.84 10.79A68.51 68.51 0 0 1 867 233.43q2.24 2 4.34 4.23c10.66-8.66 23.71-13.5 36.59-13.5Zm-412.65 7.35ZM590.85 209a31.62 31.62 0 0 0-4.87.32 22.21 22.21 0 0 0-15.82 11.26 21.8 21.8 0 0 0-2.4 10.9c1-.29 2.06-.56 3.09-.82 5.48-7.15 13.45-13.72 23.26-19.13q2.07-1.14 4.32-2.24l-1.3-.07c-2.25-.16-4.33-.22-6.28-.22Zm148.84 6.57a94 94 0 0 1 28.67 4.43l.95.31a85.89 85.89 0 0 1 8.53-3.78c2-3 1.29-8.19-.67-11.59-2.7-4.71-7.91-8.9-15.9-12.82-12-5.89-24.43-8.67-35.95-8a51.75 51.75 0 0 0-26.69 8.88 40.18 40.18 0 0 1 .77 17.21l.72.44a48.73 48.73 0 0 1 12 9 94.57 94.57 0 0 1 27.57-4.13Zm69.33-4.7a85.08 85.08 0 0 1 18.82 2.08h.06c5.07-2.9 10.31-6.44 13.85-11 3.4-4.37 4.8-9.67 3.58-13.5-1-3-3.85-6.13-7.9-8.45a65.08 65.08 0 0 0-15.24-6.4c-5.45-1.41-11.19-2.76-17.55-4.12-5.69-1.22-11.18-2.27-15.95-1.82-3.89.37-7.11 1.84-8.62 3.93a8.38 8.38 0 0 0-1.39 3.4c8.55 5.21 14.71 11.21 18.78 18.28a37.45 37.45 0 0 1 5 17.83c2.17-.2 4.37-.28 6.54-.28Zm-158.66-13.58a101.57 101.57 0 0 1 25.95 3.28 15.87 15.87 0 0 0-2.87-6.92 16.84 16.84 0 0 0-15-6.37c-5.82.74-11.51 4.53-18.11 8.92l-2.7 1.8a113.52 113.52 0 0 1 12.73-.71Z" fill="#bc678f" data-color="2"/>
    </g>
</svg>
