<?xml version="1.0" encoding="UTF-8"?>
<svg data-bbox="0.003 -0.013 142.765 141.575" viewBox="0 0 142.76 141.56" xmlns="http://www.w3.org/2000/svg" data-type="color">
    <g>
        <path d="M68.2 1.05c-.66.59-1.89 2.72-2.71 4.7C60.11 18.66 46.45 31.14 35.1 33.5c-6.55 1.36-12.81-.33-22.93-6.2q-7.52-4.36-9.49-3.54C.01 24.86-.22 26.13.13 37.45c1.03 33.38 9.91 60.15 26.52 79.92 11.64 13.85 27.87 22.49 45.31 24.12 8.18.77 23.27-4.78 33.1-12.16 19.75-14.83 32.32-38.66 37.12-70.36.77-5.11.79-25.4.02-30.35-.69-4.43-1.46-5.84-3.76-6.79-2.33-.97-3.47-.51-6.89 2.77-6.11 5.86-12 8.59-18.5 8.58-12.15-.02-24.2-9.04-35.83-26.82C75.27 3.37 73.28.74 72.78.47c-1.49-.81-3.29-.59-4.58.57Zm15.17 25.94c13.78 13.59 29.3 17.71 42.59 11.3 1.88-.91 4.43-2.39 5.76-3.36 2.07-1.51 2.44-1.63 2.84-.94.26.46.34 5.52.17 11.92-.29 11.08-1.07 17.67-3.04 25.53l-.77 3.08-28.01-.24c-15.42-.13-28.29-.33-28.64-.44-.69-.22-.78-14.74-.27-41.18l.31-16.19 2.91 3.66c1.61 2.02 4.36 5.09 6.14 6.84ZM63.88 77.81l5.85.29.29 9.71c.16 5.35.38 17.68.48 27.46l.19 17.75-2.75-.32c-4.37-.5-9.63-2.09-14.4-4.35-16.14-7.64-28.96-22.99-36.83-44.09-.93-2.5-1.85-5.12-2.02-5.78l-.31-1.2 21.82.12c12 .07 24.46.25 27.68.41Z" fill="#92b3de" data-color="1"/>
        <path d="M82.65 35.58c-4.38.3-5.53 1.13-3.95 2.87.8.88 1.49 1.01 5.44 1.01 4.87 0 6.41-.46 6.41-1.93 0-1.12-1.78-2.43-3.13-2.31-.52.05-2.7.21-4.77.35Z" fill="#92b3de" data-color="1"/>
        <path d="M101.68 44.62c-13.78.1-19.66.31-20.14.7-.36.3-.61 1.13-.53 1.81.11.96.48 1.32 1.59 1.56 2.31.49 43.74-.1 44.42-.63.35-.27.63-.88.63-1.36 0-2.19-.82-2.26-25.97-2.07Z" fill="#92b3de" data-color="1"/>
        <path d="M94.69 54.84c-11.8.26-13.01.36-13.49 1.15-.43.7-.31 1.05.6 1.81 1.07.89 2.05.94 17.85.94 12.38 0 16.87-.15 17.29-.58.86-.86.72-2.63-.24-3.02-1.27-.52-7.61-.61-22.02-.29Z" fill="#92b3de" data-color="1"/>
        <path d="M84.29 64.41c-3.32.19-4.34.68-4.34 2.08 0 1.78 1.45 1.94 14.74 1.59 11.27-.3 12.82-.43 13.2-1.15.3-.57.22-1.13-.29-1.85-.7-1.01-.96-1.03-10.45-.94-5.35.05-11.14.18-12.86.28Z" fill="#92b3de" data-color="1"/>
        <path d="M28.07 82.65c-.85.34-.77 2.89.1 3.23.8.31 25.77 1.5 31.79 1.52 3.81.01 3.86 0 4-1.29.1-.87-.14-1.45-.72-1.76-1.83-.98-33.19-2.49-35.17-1.69Z" fill="#92b3de" data-color="1"/>
        <path d="M34.09 95.21c-1.77.43-1.59 3.22.24 3.65.58.14 7.39.41 15.1.61 13.87.36 14.05.35 14.57-.65.61-1.16.3-2.32-.72-2.71-.4-.15-6.41-.4-13.34-.54-6.94-.15-13.16-.33-13.83-.41-.67-.08-1.56-.06-2.02.05Z" fill="#92b3de" data-color="1"/>
        <path d="M43.92 107.49c-.31.31-.58.96-.58 1.4 0 1.78 1.11 1.98 11.42 2.05l10.02.07.14-1.3c.1-.87-.14-1.45-.72-1.75-1.45-.75-19.58-1.16-20.28-.47Z" fill="#92b3de" data-color="1"/>
        <path d="M52.39 120.91c-1.01.59-1.14 2.04-.24 2.77.32.26 3.08.63 6.17.82 6.46.39 7.8.02 7.57-2.07-.13-1.13-.44-1.34-2.31-1.63-3.32-.5-10.24-.43-11.18.11Z" fill="#92b3de" data-color="1"/>
    </g>
</svg>
