<?xml version="1.0" encoding="UTF-8"?>
<svg data-bbox="0.005 -0.001 142.718 141.939" viewBox="0 0 142.72 141.94" xmlns="http://www.w3.org/2000/svg" data-type="color">
    <g>
        <path d="M68.88.59c-.82.42-2.12 2.45-4.09 6.4-4.89 9.78-12.28 18.12-19.99 22.56-6.99 4.03-11.27 5.04-17.49 4.16-4.6-.65-7.71-1.95-15.75-6.57-7.51-4.32-9.31-4.59-10.85-1.61-.94 1.82-.94 15.56 0 24.76 3.21 31.26 13.84 56.08 31.17 72.76 9.87 9.49 20.43 15.02 33.53 17.56 2.75.53 5.21 1.09 5.44 1.24.83.51 11.18-1.28 15.61-2.7 22.94-7.36 42.69-30.37 51.23-59.71 1.88-6.46 3.77-15.84 4.48-22.21 1.11-9.97.45-29.47-1.11-32.9-.63-1.38-3.1-2.7-5.08-2.7-1.02 0-2.26.87-5.15 3.61-11.44 10.87-24.33 10.82-37.86-.13-5.25-4.24-10.11-9.85-15.25-17.56-5.1-7.64-6.05-8.39-8.84-6.96Zm5.6 16.32c8.56 11.56 18.38 19.49 28.37 22.91 3.39 1.16 4.58 1.32 9.88 1.32 4.67 0 6.62-.21 8.67-.92 3.71-1.28 8.03-3.51 10.6-5.47l2.17-1.65.33 1.83c.99 5.46.01 22.55-1.8 31.46-4.9 24.09-15.98 43.8-31.29 55.69-7.62 5.92-14.36 9.1-22.93 10.84-4.29.87-5.39.93-8.09.47-10.55-1.82-18.93-5.06-25.87-9.99-20.97-14.92-34.49-45.02-36.33-80.81-.22-4.24-.31-7.79-.2-7.9.1-.1 1.25.41 2.5 1.13 7.56 4.33 13.22 6.05 19.99 6.05 7.56 0 13.01-1.86 21.24-7.23 6.03-3.94 14.31-13.05 18.07-19.89.69-1.25 1.28-2.26 1.32-2.26s1.54 1.98 3.36 4.43Z" fill="#92b3de" data-color="1"/>
        <path d="M69.61 29.48c-.51 1.25-.66 10.5-.78 48.51-.08 25.82.04 47.62.26 48.41.88 3.16 1.76 3.29 7.83 1.16 10.79-3.8 19.03-9.11 27.86-17.97 14.71-14.75 22.94-32.71 24.82-54.19.57-6.55.32-11.23-.65-11.99-1.52-1.2-3.18-1.04-6.7.62-4 1.9-12.18 3.41-15.56 2.87-11.27-1.78-21.06-6.64-29.19-14.51-5.3-5.12-6.76-5.66-7.89-2.91Zm11.5 11.72c5.64 4.29 10.65 6.92 16.52 8.69 3.64 1.09 5.15 1.28 10.74 1.3 6.39.02 8.91-.41 16.28-2.81 1.03-.33 1.06-.25 1.06 2.83s-.07 3.18-1.08 3.18c-.59 0-2.29.33-3.73.72-7.27 1.98-18.38 1.83-25.44-.35-6.79-2.1-14.76-7.21-19.79-12.71-2.2-2.41-2.47-2.93-2.47-4.89v-2.19l1.57 1.3c.85.71 3.73 2.95 6.33 4.93Zm1.4 12.06c4.61 3.09 10.07 5.36 15.66 6.52 6.26 1.3 18.26 1.05 23.46-.49 1.88-.56 3.44-.93 3.52-.85.4.4-1.25 6.76-1.73 6.66-.29-.06-2.75.21-5.49.6-10.84 1.56-19.4.67-28.42-2.93-6.55-2.61-10.26-4.87-14.45-8.79-1.78-1.66-1.83-1.81-1.83-5.04v-3.32l2.94 2.67c1.61 1.47 4.48 3.71 6.36 4.96Zm-1.06 10.48c10.64 5.82 23.07 8.07 35.12 6.36 3.03-.43 5.75-.78 6.07-.78.43 0 .39.65-.14 2.53-.4 1.4-.86 2.68-1.04 2.87-.17.19-2.96.71-6.19 1.16-5.51.77-6.26.77-12.04.03-9.1-1.17-16.51-2.99-23.12-5.7-3.28-1.34-6.01-2.56-6.12-2.74-.11-.17-.35-2.34-.55-4.84l-.36-4.53 2.6 1.95c1.42 1.06 4.05 2.74 5.78 3.69Zm-2.17 10.65c5.69 2.29 14.93 4.62 22.11 5.57 4.34.57 15.59.38 17.25-.29 1.28-.52 1.03.59-1.14 5.07l-1.94 4-7.8-.29c-10.65-.39-18.15-2.23-28.23-6.9-6.07-2.82-6.31-3.06-6.31-6.49 0-1.54.15-2.84.34-2.84s2.75.97 5.73 2.18Zm-1.16 11.07c9.5 4.49 18.69 6.84 28.71 7.33 3.23.16 5.88.38 5.88.48s-.63 1.11-1.42 2.26l-1.42 2.07-6.21-.13c-10.5-.21-21.47-2.22-27.46-5.03l-2.99-1.4v-3.88c0-2.12.08-3.88.17-3.88s2.24.98 4.74 2.16Zm6.17 13.97c6.26 1.31 9.91 1.78 16.14 2.09l6.26.32-2.96 3.11-2.96 3.11-3.08-.11c-9.44-.35-18.01-1.74-22.69-3.68l-1.78-.74v-7.66l3.93 1.45c2.17.8 5.37 1.75 7.15 2.12Zm-4.34 10.65c2.96.78 6.58 1.31 10.24 1.49 3.13.16 5.65.42 5.64.58-.01.16-1.3 1.22-2.84 2.34-2.75 1.99-2.91 2.05-6.58 2.05-4 0-8.96-.64-11.61-1.51q-1.59-.52-1.59-3.65c0-3.03.03-3.12 1.08-2.82.59.17 3.16.86 5.66 1.52Zm-4.02 9.59c1.54.4 3.59.72 4.62.72s1.75.19 1.61.41c-.13.23-2.1 1.13-4.41 2.02-3.47 1.34-4.24 1.5-4.59.94-.42-.67-.6-4.82-.21-4.82.11 0 1.42.32 2.96.72Z" fill="#92b3de" data-color="1"/>
    </g>
</svg>
