<?xml version="1.0" encoding="UTF-8"?>
<svg data-bbox="0 -0.006 130.791 170.406" viewBox="0 0 130.79 170.39" xmlns="http://www.w3.org/2000/svg" data-type="color">
    <g>
        <path d="M63.98.14c-.36.14-2.64 1.59-5.06 3.21-2.42 1.62-7.76 5.04-11.89 7.6s-8.97 5.71-10.79 7.01c-2.54 1.81-25.58 17.2-33.67 22.49-.76.5-1.74 1.67-2.14 2.55-.91 2.02-.81 2.33 4.71 13.98 6 12.66 12.93 33.64 14.6 44.22.92 5.81 1.65 22.51 1.55 35.61-.06 7.43.07 10.84.44 11.52.6 1.12 42.3 22.07 43.92 22.07 1.09 0 17.23-7.97 26.15-12.92 3.21-1.78 8.16-4.43 11.08-5.92 4.31-2.21 5.51-3.04 6.56-4.55 1.54-2.22 1.57-2.77.54-11.56-2.09-17.85-2-36.98.2-47.47 1.87-8.88 3.65-14.25 7.02-21.1 2.9-5.89 9.97-17.39 12.17-19.78 1.54-1.67 1.82-3.24.88-4.88-.55-.96-7.36-5.74-18.92-13.29-3.58-2.34-11.39-7.48-17.36-11.45C79.59 7.94 67.19.27 65.79.05c-.62-.1-1.45-.06-1.8.08Zm8.09 11.65c2.45 1.5 9.49 6.09 15.69 10.22 6.2 4.13 13.5 8.91 16.26 10.64 2.76 1.73 7.91 5.17 11.47 7.65l6.46 4.51-1.6 2.46c-4.06 6.24-7.39 11.9-9.57 16.22-4.41 8.76-7.6 19.91-8.83 30.86-1.12 10-.59 31.34 1.1 44.4.62 4.79.67 4.63-1.86 5.69-1.25.52-6.95 3.5-12.62 6.6-11.3 6.18-20.54 10.85-20.83 10.53-.28-.31-.64-152.49-.36-152.49.12 0 2.2 1.21 4.66 2.73Zm-8.53 73.76c0 41.85-.08 76.05-.18 76.05s-2.53-1.14-5.38-2.53l-5.21-2.53 3.91-.13c4-.14 5.09-.52 5.08-1.8-.02-1.92-.46-2.03-9.12-2.25l-8.26-.21-3.36-1.54c-1.85-.84-3.37-1.67-3.38-1.82-.01-.16 5.08-.36 11.32-.45 12.13-.17 13.03-.34 12.76-2.3-.25-1.75-1.64-1.89-14.21-1.51-6.55.2-13.42.31-15.34.25l-3.47-.11v-6.59l6.11-.29c3.37-.16 10.15-.3 15.12-.33 9.54-.04 10.11-.16 10.11-2.07s-.92-2.05-16.4-1.72c-12 .26-14.53.21-14.86-.28-.22-.32-.4-1.87-.4-3.41v-2.81l15.32.26c13.28.23 15.45.17 16.29-.41 1.1-.77 1.22-2.01.26-2.78-.44-.36-4.84-.55-15.25-.68-8.04-.1-15.08-.19-15.63-.2-.93-.02-.99-.2-.99-3.14v-3.12l15.1.33 15.1.33.97-.97c.88-.88.91-1.06.35-1.93-.59-.93-.97-.98-10.68-1.23-5.54-.15-12.57-.29-15.63-.33l-5.56-.07-.15-3.12-.15-3.12 15.82.13c8.7.07 16.08-.03 16.4-.22.76-.46.7-2.22-.09-2.88-.47-.4-5.17-.63-16.59-.84l-15.93-.29-.48-2.99-.48-2.99 16.59.07c9.14.04 16.8-.06 17.06-.22.26-.16.46-.73.46-1.3 0-2.21-.26-2.25-18.2-2.47l-16.7-.21-.97-3.19-.97-3.19h18.11c18.77 0 19.17-.04 19.17-1.8 0-1.88-.57-1.94-19.91-2.16l-18.46-.21-1.03-3.03c-.57-1.67-.93-3.13-.81-3.25.12-.12 8.84.03 19.34.33 20.13.58 20.44.56 20.44-1.3 0-1.99-.48-2.04-30.77-2.97l-10.77-.33-.99-2.77-.99-2.77 22 .09c15.3.06 22.15-.06 22.48-.4.66-.66.13-2.55-.84-2.99-.44-.2-10.79-.43-23.01-.53l-22.22-.18-1.19-2.92c-.66-1.63-1.19-3.09-1.19-3.3s2.73-.32 6.02-.26c4.4.08 37.91-.28 41.1-.44.69-.04 1.26-1.78.84-2.57-.4-.75-1.32-.87-9.15-1.14-4.95-.18-13.63-.09-20.13.2-6.29.28-13.62.37-16.31.2l-4.88-.31L9.25 49c-.68-1.41-1.15-2.69-1.03-2.81s11.3-.25 24.88-.29c13.58-.04 25.42-.18 26.35-.33 1.41-.22 1.71-.46 1.82-1.41.07-.62-.15-1.38-.48-1.65-.44-.36-7.08-.54-23.87-.62l-23.25-.11 4.84-3.3 4.84-3.3 18.46-.24c10.15-.13 18.5-.28 18.55-.33.7-.7.96-1.98.56-2.73-.46-.85-1.02-.88-15.62-.99l-15.14-.11 4.07-2.68 4.07-2.68 11.21-.31c8.62-.24 11.44-.46 12.22-.96 1.1-.71 1.29-1.89.44-2.74-.58-.58-7.52-.66-14.07-.16-2.11.16-3.87.19-3.87.07s1.65-1.25 3.63-2.48l3.63-2.26 5.28-.07c2.9-.04 5.44-.23 5.65-.44.21-.21.31-.92.22-1.63-.14-1.12-.37-1.29-2.26-1.63l-2.11-.37 2.11-1.47c1.14-.8 2.36-1.48 2.66-1.49.44-.02.55 15.45.55 76.02Z" fill="#92b3de" data-color="1"/>
    </g>
</svg>
