<?xml version="1.0" encoding="UTF-8"?>
<svg data-bbox="0 0 137.597 142.28" viewBox="0 0 137.6 142.28" xmlns="http://www.w3.org/2000/svg" data-type="color">
    <g>
        <path d="M58.77 1.66c-3.32.9-7.86 2.32-10.12 3.16-2.26.84-10.69 3.76-18.79 6.5C6.79 19.15 1.78 21.03.83 22.18c-.52.64-.83 1.81-.83 3.16 0 1.18 2.4 12.16 5.32 24.4 2.93 12.24 7.6 31.8 10.38 43.45 2.78 11.66 5.28 21.76 5.54 22.45.81 2.09 2.17 3.03 11.99 8.28 5.17 2.76 15.03 8.02 21.92 11.69 9.25 4.93 12.97 6.67 14.21 6.67 2.36 0 45.78-23.35 47.48-25.53 1.09-1.4 3.13-9.49 8.04-31.99.62-2.82.45-2.07 6.14-27.46 2.7-12.04 5.11-22.79 5.35-23.85 1.47-6.55 1.55-7.8.61-9.73-.73-1.5-1.33-1.98-3.3-2.65-1.32-.45-16.31-5.39-33.26-10.96C76.33 2.2 69.04-.02 67.18 0c-1.32.01-5.08.76-8.41 1.66ZM126.7 40.2c0 .96-4.44 19.76-4.72 20.01-.25.22-89.8 37.46-95.77 39.83-.67.27-.92-.53-3.4-11.03-.99-4.19-1.67-7.74-1.51-7.9.33-.33 104.44-41.07 105.07-41.12.2-.02.34.07.34.22Z" fill="#92b3de" data-color="1"/>
    </g>
</svg>
