<?xml version="1.0" encoding="UTF-8"?>
<svg data-bbox="0.001 0.007 136.975 162.882" viewBox="0 0 136.98 162.89" xmlns="http://www.w3.org/2000/svg" data-type="color">
    <g>
        <path d="M68.98.32c-1.71.48-2.1.88-3.46 3.57-6.36 12.61-23.09 24.14-50.06 34.53-3.85 1.48-8.55 3-10.38 3.36-2.17.42-3.57.96-3.99 1.52-1.63 2.2-1.39 15.8.45 25.48 7.13 37.43 33.98 77.66 60.5 90.65 1.98.97 4.14 2.15 4.87 2.65 1.75 1.21 3.03 1.1 6.65-.59 1.71-.8 4.77-2.14 6.74-2.95 12.73-5.22 25.18-16.01 33.85-29.35 11.83-18.2 18.97-41.09 21.54-69.08.29-3.18.75-7.32 1.02-9.2.6-4.19.18-7.07-1.21-8.33-.55-.5-2.65-1.29-4.62-1.73-14.21-3.21-23.63-7.68-36.13-17.16-9.78-7.42-15.92-13.77-19.7-20.37-1.79-3.13-3.17-3.81-6.07-3Zm3.81 12.08c1.03 1.45 2.51 3.23 3.28 3.96 1.7 1.63 1.72 2.08.17 3.91-.7.82-1.23 1.67-1.23 1.98 0 .77-.71.67-1.43-.19-.32-.39-1.29-.72-2.11-.72-1.27 0-1.85-.43-3.56-2.65l-2.05-2.65 2.29-3.13c1.27-1.73 2.4-3.13 2.53-3.13s1.09 1.18 2.12 2.63Zm-7.37 9.47 1.93 2.6-2.26 2.07c-2.12 1.94-2.32 2.02-3.11 1.3-.47-.43-1.35-1.73-1.98-2.94l-1.13-2.17 2.17-1.85c1.2-1.03 2.23-1.8 2.31-1.73.08.07 1 1.28 2.07 2.72Zm17.7 1.49 1.95 1.78-.77 1.95c-.42 1.06-.99 1.95-1.25 1.95-.37 0-2.84-1.69-6.02-4.12-.25-.19 3.52-3.56 3.85-3.44.16.06 1.18.92 2.24 1.88Zm-26.52 3.4c.29.58.98 1.78 1.52 2.6l.99 1.52-4.34 2.7c-2.41 1.5-4.42 2.7-4.53 2.7-.42 0-3.23-4.38-3.08-4.82.2-.57 7.66-5.69 8.38-5.74.28-.02.78.47 1.06 1.04Zm15.71-.17c.49.79 11.51 8.96 17.38 12.89 7.19 4.81 12.77 8.05 22.64 13.17 4.24 2.2 7.87 4.24 8.08 4.53.76 1.09-.7 7.9-6.67 31.12-2.72 10.55-10.07 27.89-14.92 35.17-2.25 3.38-7.93 9.06-12.7 12.69-3.8 2.9-7.8 5.23-12.53 7.3q-4.82 2.11-10.94-2.03c-6.97-4.72-13.82-12.67-23.55-27.37-6.83-10.31-15.05-25.94-17.52-33.34-1.26-3.76-4.88-19.78-4.88-21.58 0-.32 2.22-1.51 4.96-2.67 10.53-4.45 20.86-10.08 35.89-19.57 8.09-5.11 11.18-7.37 12.68-9.26 1.22-1.54 1.64-1.75 2.07-1.06Zm20.37 4.29 3.47 2.6-1.23 1.64c-1.41 1.87-.74 2.04-6.23-1.6l-2.46-1.63 1.01-2.07c.56-1.16 1.22-1.95 1.49-1.81.27.15 2.02 1.42 3.95 2.87Zm-47.67 4.91c.88 1.35 1.57 2.49 1.57 2.6 0 .34-5.64 3.66-6.21 3.66-.64 0-3.42-3.76-3.42-4.62 0-.48 5.15-3.77 6.26-4 .13-.03.93 1.01 1.81 2.36Zm57.57 1.54c1.4.85 2.59 1.59 2.67 1.65.19.14-.6 1.53-1.54 2.74-.69.88-.84.85-3.87-.92l-3.16-1.83 1.54-1.59c.84-.87 1.61-1.59 1.69-1.59s1.28.69 2.67 1.54Zm-67.92 4.22c1.24 2.07 1.56 2.98 1.18 3.29-.63.5-9.32 4.92-9.68 4.92-.43 0-3.69-6.47-3.32-6.61.21-.08 2.46-1.1 4.96-2.26 2.5-1.16 4.71-2.14 4.87-2.17.16-.03 1.05 1.23 2 2.82Zm77.34.75c1.4.67 2.7 1.2 2.94 1.2 1.08 0 1.02 1.16-.16 2.94l-1.24 1.88-2.75-1.42c-4.38-2.27-4.28-2.13-3.06-4.07.6-.96 1.24-1.73 1.42-1.73s1.45.53 2.84 1.2Zm-91.46 5.76c.9 1.69 1.54 3.23 1.4 3.37-.14.14-2 1.02-4.07 1.93-2.84 1.24-3.96 1.53-4.43 1.14-.67-.56-4.1-6.21-3.85-6.37.63-.39 8.03-3.09 8.57-3.13.43-.03 1.41 1.22 2.38 3.06Zm104.56-1.45c5.01 1.23 4.64.77 4.43 5.57-.1 2.22-1.29 3.12-3.47 2.63-.96-.21-1.54-.71-1.74-1.48-.37-1.45-1.79-2.29-3.13-1.86-.61.2-1.64 0-2.6-.52l-1.59-.84 1.52-2.31c.82-1.25 1.63-2.31 1.76-2.31s2.31.51 4.82 1.13ZM10.93 57.6c1.3.91 2.83 7.49 1.88 8.08-.72.44-4.27 1.1-4.53.84-.39-.39-1.2-7.95-1.2-11.13v-3.47l1.45 2.51c.81 1.4 1.87 2.8 2.41 3.18Zm117.86 2.63c-.15.73-.4 2.63-.56 4.22-.55 5.35-.63 5.54-2.3 5.54-2.74 0-2.98-.43-2.14-3.9.41-1.69.9-4.01 1.08-5.13.33-2.02.36-2.05 2.26-2.05s1.91.07 1.66 1.32ZM15 73.33c.41 1.93.68 3.6.6 3.66-.43.37-4.33 2.17-4.42 2.05-.5-.63-2.09-7.89-1.79-8.19.34-.34 4.45-1.3 4.77-1.12.05.03.44 1.67.84 3.6Zm111.62.94c.17.16-.02 2.1-.43 4.31l-.75 4.02-2.34-.22c-1.3-.12-2.48-.36-2.65-.53-.17-.17.09-2.17.58-4.38l.89-4.07 2.19.29c1.2.16 2.33.42 2.5.58ZM17.94 83.59c.47 1.4 1.24 3.33 1.73 4.31.48.96.89 1.89.89 2.02 0 .48-4.5 2.24-4.82 1.88-.47-.54-2.89-7.32-2.89-8.09 0-.58 2.94-2.56 3.9-2.63.19-.01.71 1.11 1.18 2.51Zm105.28 2.77h1.35l-1.45 5.32c-.8 2.94-1.79 6.19-2.21 7.25-.81 2.04-.87 2.05-4.34.61l-1.59-.66.7-1.78c.67-1.71 1.44-4.38 2.67-9.2.51-2.02.61-2.11 2.03-1.83.82.16 2.1.29 2.84.29ZM24.78 98.11c1.14 2.07 2 4.07 1.88 4.38-.12.32-1.28 1.01-2.63 1.57l-2.41.99-1.98-4.17c-1.1-2.31-1.98-4.4-1.98-4.7 0-.64 3.23-2.14 4.29-1.98.39.06 1.68 1.84 2.82 3.91Zm91.79 5.59c2.44 1.06 2.42.77.39 5.39l-1.98 4.5-.96 2.19-1.3-.77c-3.4-2.03-3.35-1.63-1.06-7.22 1.14-2.79 2.21-5.06 2.38-5.06s1.32.44 2.53.97Zm-85.58 5.78c1.05 1.73 2.27 3.69 2.72 4.38q.82 1.25-1.3 2.77c-1.16.83-2.34 1.52-2.6 1.52-.46 0-4.97-7.03-5.66-8.82-.24-.63.26-1.09 2.24-2 1.4-.65 2.59-1.14 2.63-1.08.04.05.92 1.49 1.98 3.23Zm79.17 8.5 1.93 1.28-1.28 2.22c-.71 1.23-2.34 3.76-3.67 5.68-2.56 3.71-2.92 3.82-4.93 1.59-.74-.82-.8-1.17-.33-1.83.32-.45 1.78-2.91 3.28-5.52 1.49-2.6 2.78-4.7 2.89-4.7s1.06.57 2.12 1.28Zm-70.62 4.5 2.7 3.61-2.05 1.81c-1.11.98-2.2 1.75-2.38 1.69-.48-.17-5.68-7.16-5.68-7.64 0-.43 3.96-3.31 4.38-3.19.18.06 1.56 1.74 3.03 3.72Zm8.5 11.34c1.92 2.26 3.41 4.18 3.3 4.26-.11.08-.99.73-1.95 1.45l-1.76 1.3-3.42-3.73c-1.9-2.07-3.42-3.88-3.42-4.07 0-.31 3.23-3.32 3.56-3.32.11 0 1.77 1.85 3.69 4.12Zm52.48-1.23 1.69 1.4-3.11 3.16c-1.71 1.73-3.27 3.16-3.47 3.16s-1.16-.7-2.12-1.54l-1.76-1.54 3.3-3.01c1.83-1.67 3.41-3.01 3.54-3.01s1.01.64 1.93 1.4Zm-8.24 10.8c-1.11.91-7.4 5.09-7.66 5.09-.43 0-3.09-3.84-2.84-4.09.1-.11 1.8-1.24 3.78-2.53l3.59-2.34 1.66 1.85c.91 1.01 1.57 1.93 1.47 2.01Zm-35.34-.59 2.72 2.02-1.61 1.32c-.87.71-1.76 1.34-1.93 1.35-.17.01-1.47-.88-2.87-1.98l-2.55-2 1.64-1.37c.92-.77 1.69-1.37 1.76-1.37s1.35.91 2.84 2.02Zm22.62 5.68c.74 1.06 1.24 2.04 1.11 2.17-.34.34-8.19 3.61-8.67 3.61s-.44-3.28.05-4.53c.37-.94 4.09-3.12 5.39-3.16.42-.01 1.38.84 2.12 1.9Zm-14.09-.02c2.24 1.16 2.29 1.23 2.29 3.49 0 1.25-.13 2.31-.29 2.31s-2-.89-4.12-2l-3.83-2 1.57-1.61c.84-.87 1.69-1.56 1.83-1.49.15.07 1.3.65 2.55 1.3Z" fill="#92b3de" data-color="1"/>
        <path d="M70.38 32.6c-.87.64-.93 1.66-1.25 22.76-.19 12.14-.55 35.43-.82 51.71-.46 28.52-.45 29.66.43 30.54 1.32 1.32 3.56.71 8.04-2.19 4.86-3.14 14.29-12.65 18.57-18.72 10.18-14.44 17.3-32.08 19.65-48.7.81-5.73.29-6.61-5.27-8.87-7.85-3.19-15.84-7.82-22.45-13-3.95-3.1-11.05-9.83-13.36-12.68-1.41-1.73-2.12-1.91-3.54-.86Z" fill="#92b3de" data-color="1"/>
    </g>
</svg>
