<?xml version="1.0" encoding="UTF-8"?>
<svg data-bbox="-0.012 0.02 73.925 69.932" viewBox="0 0 73.91 69.98" xmlns="http://www.w3.org/2000/svg" data-type="color">
    <g>
        <g>
            <path fill="#fbb233" d="M73.84 25.71a12.73 12.73 0 0 0-5.14-.44 15.84 15.84 0 0 0-5.59 2.05 26.65 26.65 0 0 0-4.79 3.3c-.28.25-.55.5-.81.76l-.38.27A13.78 13.78 0 0 0 58.61 28a11.4 11.4 0 0 0 .33-3.58v-.22a6.7 6.7 0 0 0-2-4.81l-.14-.12a3.23 3.23 0 0 0-.87-.63 4.09 4.09 0 0 0-.73-.4 1.78 1.78 0 0 0-.65-.24c-.09 0-.19.1-.17.18.17 1 0 2 .2 2.92a.09.09 0 0 0 .06.09 3.06 3.06 0 0 1 1.55 1.43 2.42 2.42 0 0 0-1.19-.86c-.09 0-.17.11-.12.18a7 7 0 0 1 .67.88 1.5 1.5 0 0 0-.73-.34.15.15 0 0 0-.15.19 3.84 3.84 0 0 1 .34 1 14.84 14.84 0 0 1 0 2c0 .57.64 1.15.77 1.73-.29-.23-.54-.51-.85-.73-.12-.08-.33.1-.25.23a2.58 2.58 0 0 1 .49 1.46v2a13.43 13.43 0 0 1-.33 1.79 9.28 9.28 0 0 0-4.69-7.46c-3.69-2-7.81-.27-10.39 2.66a2 2 0 0 0-.3.34c0 .07 0 .21.07.21a5.31 5.31 0 0 0 2.1 0 7.18 7.18 0 0 0 .91-.68c.38-.27.78-.52 1.19-.76-.5.46-1.2.75-1.55 1.35-.05.08-.06.23.07.23a10.75 10.75 0 0 1 2.81.76c.5.16 1.2.45 1.67.06A7.41 7.41 0 0 1 48 28l.33-.19-.19.16c-.47.4-1.14.8-1.36 1.39a.12.12 0 0 0 .13.18c.44-.11 1.21.33 1.61.48a4.14 4.14 0 0 0 1 .31c.25 0 .64-.43.82-.58.65-.53-.12.24-.22.35-.36.4.08.79.43 1a12 12 0 0 1 1.73 1.18 10.78 10.78 0 0 0-5.72-.45 12.46 12.46 0 0 0-4.92 2 16.34 16.34 0 0 0-2.33 1.84 5.83 5.83 0 0 0-2.23 3c0 .16.06.25.22.2.8-.27 1.6-.59 2.42-.78.36-.08.76-.95.94-1.18l.53-.66a6.81 6.81 0 0 0-.74 1.54c0 .15.09.22.2.13a4.51 4.51 0 0 1 1.22-.35l1.31-.37c.46-.13.86-1 1.12-1.35a6.45 6.45 0 0 1 .63-.65l-.2.25a4.21 4.21 0 0 0-.73 1.3c0 .09 0 .18.12.16.78-.14 1.55-.36 2.35-.47a6.8 6.8 0 0 1 .68 0c-.71.27-1.42.56-2.13.89A36.21 36.21 0 0 0 35.31 44a28.29 28.29 0 0 0-6.26 9.37 27.46 27.46 0 0 0-1.75 5.68 38.31 38.31 0 0 0-.43 5.76l-.12.08a5.11 5.11 0 0 0-1.18-.75 92.09 92.09 0 0 1-3-11.81 86.24 86.24 0 0 1-1-13.72 100.8 100.8 0 0 1 1.13-13.23 56.41 56.41 0 0 1 1.17-6.46c.09-.38.2-.75.32-1.12a15.63 15.63 0 0 1 1 2.08c.22.46.45.91.64 1.38a2.13 2.13 0 0 0 .43.88c.08.08.2 0 .21-.12l.15-1c0-.18.07-.37.11-.55.23-1.06 0-.2 0 0 0 .62-.35 1.66-.11 2.25.36.88.62 1.8.95 2.7.13.34.21 1.17.55 1.4.11.08.25 0 .28-.13.24-.66.39-1.35.57-2 0 .41-.09.81-.14 1.22a5.09 5.09 0 0 0 0 2.23c.27.77.57 1.51.85 2.27a5.17 5.17 0 0 0 .9 1.89.15.15 0 0 0 .18 0c.61-.33.72-1.37.88-2s.26-1.1.4-1.65c-.12 1.72-.13 3.44-.39 5.14a5.7 5.7 0 0 0 .36 2.48 7.76 7.76 0 0 0 .73 2.29c.11.15.29.09.4 0a3.25 3.25 0 0 0 .67-1.56c.08-.3.15-.63.23-.95-.12.76-.24 1.52-.34 2.28s-.37 2.18.13 2.71a.21.21 0 0 0 .26 0 5.8 5.8 0 0 0 1.35-2.09 8.47 8.47 0 0 0 1-3 18.31 18.31 0 0 0-1.09-10.77 18.71 18.71 0 0 0-2.13-3.74 16.14 16.14 0 0 0-3.06-2.89l-.4-.3h.29a8.68 8.68 0 0 1 2.74.06c.12 0 .3-.1.26-.23-.11-.37-.23-.74-.34-1.11a2.14 2.14 0 0 1-.13-.63h.08a2.52 2.52 0 0 1 .29.41c.27.44.62 1.64 1.22 1.78a25.73 25.73 0 0 0 2.78.34 13.55 13.55 0 0 1 2.76.58.2.2 0 0 0 .21-.09 3.52 3.52 0 0 0 .37-1.77c.06.45.11.91.13 1.37a2.11 2.11 0 0 0 .28 1.24c.2.27 1.19.31 1.47.4a12.4 12.4 0 0 0 1.5.28c.07 0 .15-.06.19-.12a1.86 1.86 0 0 0 .27-1.06 4.27 4.27 0 0 0 .3 1c.14.28.29.3.6.34a5.33 5.33 0 0 0 1.12.12.26.26 0 0 0 .18-.17c.27-.68-.16-1.68-.34-2.34-.07-.23-.4-1.36 0-.62.26.49.55 1 .79 1.45.34.68.49 1.84 1.24 2.18.42.19.89.3 1.33.45s.46.35.87.3a.21.21 0 0 0 .15-.14s.05-.13 0-.15h-.06s.08-.09 0-.14a.16.16 0 0 0 0-.07.14.14 0 0 0 .08-.17 4.66 4.66 0 0 0-.52-1.29v-.06a13.63 13.63 0 0 0-.88-2.3 13.62 13.62 0 0 0-2.71-3.39 13.45 13.45 0 0 0-7.86-3.42A19.3 19.3 0 0 0 29 12.37a13.23 13.23 0 0 0-2.67 1.31.13.13 0 0 1 0 .05c-.29.21-.59.41-.9.62l-.07.06-.09.08a16.4 16.4 0 0 1 1.53-2.24s.06-.16 0-.2a3.39 3.39 0 0 0-.87-.26 4.34 4.34 0 0 1 .91-.19 1.11 1.11 0 0 0 .66-.19 7.21 7.21 0 0 1 1.86-1.59.25.25 0 0 0 .12-.13c.66-.09 1.37-.93 1.86-1.29s.94-.64 1.42-1c.27-.19.45-.18.62-.44a.2.2 0 0 0 0-.15c-.11-.2-.23-.4-.35-.6.43.39.56.93 1.36.56s1.28-.72 1.94-1.05c.42-.2.89-.24 1.31-.44.07 0 .15-.13.1-.21A6.25 6.25 0 0 0 37 4a5.58 5.58 0 0 1 .71.43c.26.19.58.66.93.7.69.08 1.52-.47 2.17-.69.08 0 .18-.17.13-.26l-.22-.33c.11.13.22.25.32.38.23.31.36.49.74.44a12.58 12.58 0 0 1 2.53 0 6.82 6.82 0 0 0 1.69.25l.18.12c.14.1.38-.16.24-.27s-.5-.4-.76-.59A8.26 8.26 0 0 0 43.2 1.7 12.54 12.54 0 0 0 38.89.18a14.19 14.19 0 0 0-9.11 1.68A14.77 14.77 0 0 0 24 8.06a12.59 12.59 0 0 0-1.2 4.06 13.3 13.3 0 0 0-1-2.95A11.89 11.89 0 0 0 16.05 4 12.18 12.18 0 0 0 8.3 3a16.56 16.56 0 0 0-3.86 1.3 14 14 0 0 0-2 1.09.41.41 0 0 1-.11.07A3.6 3.6 0 0 0 1 6.63c0 .07-.06.16 0 .2a12.6 12.6 0 0 1 3.3 1.54.13.13 0 0 0 .19 0 6.52 6.52 0 0 1 2.12-1.69l-.68.62a2.78 2.78 0 0 0-.9 1v.18c1.13.4 1.97 1.52 3.11 1.6a1 1 0 0 0 .74-.29c.2-.16.41-.31.62-.46a11.43 11.43 0 0 0-.78 1c-.07.1-.06.26.08.27a2.81 2.81 0 0 0 1.32 0c.78-.27 1.57-.86 2.38-1.1-.48.44-1.06.8-1.5 1.27-.05.05-.1.17 0 .22a19.72 19.72 0 0 1 1.68 1.06 1.84 1.84 0 0 0 1.19.49c.37 0 .7-.33 1-.53a5.43 5.43 0 0 1 1.27-.74c-.55.4-1.2.92-1.15 1.35a.16.16 0 0 0 .09.12c.77.29 1.49.61 2.28.84.28.09.55.2.82.31L17 13.75a14.93 14.93 0 0 0-8.93 1.89c-4.64 2.49-7.73 8-8 13.24A14.42 14.42 0 0 0 0 31a.1.1 0 0 0 .13.09c.68-.11 1.31-1.09 1.73-1.57a4 4 0 0 0 .76-2.28.67.67 0 0 0 .09.21.15.15 0 0 0 .22 0 22.22 22.22 0 0 0 1.92-1.84 5.08 5.08 0 0 0 1.7-2.21c.43-1.17.82-2.35 1.26-3.52a10.31 10.31 0 0 0-.2 2.44c0 .1.1.12.18.12.28 0 .44-.33.61-.52a9.89 9.89 0 0 1 1.94-1.38c.38-.26.44-.75.59-1.15a7.38 7.38 0 0 1 .88-1.95 10.06 10.06 0 0 1-.28 1 7.52 7.52 0 0 0-.23 1.24.12.12 0 0 0 .21.09c1.12-1 3-.54 4-1.67a5.45 5.45 0 0 0 1-1.56c-.06.48-.34.91-.36 1.39 0 .1.05.17.15.15a24.42 24.42 0 0 1 2.7-.58l1.85-.16a38.34 38.34 0 0 0-4 1.85 17.68 17.68 0 0 0-6.25 5.75A16.14 16.14 0 0 0 8 32.7a16.66 16.66 0 0 0 .11 4.3 10.76 10.76 0 0 0 1 3.83c0 .05.09.05.12 0l.16-.24a.19.19 0 0 0 .1-.13A17.89 17.89 0 0 0 11 38.1a2 2 0 0 0 .15-1c0-.72 0-1.41.05-2.13s.07-1.16.09-1.74v.19c0 .13 0 .35.07.53.09.68.12 1.36.18 2 0 .17.25.07.3 0a8.08 8.08 0 0 1 1.06-1.6 1.36 1.36 0 0 0 .37-1 18 18 0 0 1 .14-2.55c.07-.63 0-1.43.05-2.11a17.59 17.59 0 0 1 .29 3.12c0 .22.29 0 .33-.07.34-.78 1.27-1.18 1.49-2a6.65 6.65 0 0 0 0-1.41c0-.66.12-1.32.17-2v-.24l.07-.1v.07c.05.52 0 1.76.43 2.1a.22.22 0 0 0 .3-.1 26.37 26.37 0 0 1 3.5-5 13.58 13.58 0 0 0 1.06-1.37c-.13.5-.25 1-.35 1.49-.44 2.17-1.05 4.32-1.39 6.51s-.59 4.55-.74 6.85a79.8 79.8 0 0 0 2.54 27.22 10.67 10.67 0 0 0-3.16 1.4c-1 .64-2.71 1.91-2.75 3.27 0 1.7 1.56 1.6 2.82 1.44 0 0 .09-.1 0-.1a6 6 0 0 1-1.68-.25c-1.34-.48-.27-2 .29-2.56a7.67 7.67 0 0 1 2.63-1.73c-.29.15-.56.3-.81.46a6.57 6.57 0 0 0-1.43 1.15c.53-.32 1.11-.56 1.65-.86h.06c.24-.13.47-.24.71-.35a6.54 6.54 0 0 1 .87-.34 8.69 8.69 0 0 0-2.1 1.49A10.32 10.32 0 0 1 21.68 65a16.78 16.78 0 0 0-2.75 1.74c.52-.28 1-.54 1.57-.78a6.3 6.3 0 0 0-1.72 1.27 16.26 16.26 0 0 1 3.05-1.63 10.19 10.19 0 0 1 1.17-.36l.13.07-.31.15c-.58.3-1.15.62-1.71 1a8.27 8.27 0 0 1-1.07.71 5.64 5.64 0 0 0 1.38-.61A15.88 15.88 0 0 1 23 65.9a17.12 17.12 0 0 0-3.45 2 30.37 30.37 0 0 1 3.22-1.63c.4-.17.79-.32 1.2-.45l.11.09c-1.24.64-2.44 1.4-3.64 2.1v.05c.92-.37 1.82-.77 2.76-1.09a27.2 27.2 0 0 0-2.71 1.69c1-.59 2-1.14 3-1.64a9.11 9.11 0 0 1 .91-.37 2.9 2.9 0 0 0 .19.29l.05.06a11.1 11.1 0 0 0-1.39.79 4.9 4.9 0 0 0-1.55 1.15 7.93 7.93 0 0 1 1.82-1c.45-.23.92-.41 1.38-.6 0 .13-.08.26-.11.39-.37.17-.73.4-1.09.59a6.83 6.83 0 0 0-1.22.85c.71-.38 1.51-.67 2.23-1.07a2.07 2.07 0 0 0 0 .43 2.71 2.71 0 0 0-.41.23c-.06.05-.57.37-.56.38a1.31 1.31 0 0 0 .58-.21c.14-.08.3-.13.43-.21a1.82 1.82 0 0 0 .32.92s.08 0 .07 0a4.16 4.16 0 0 1 .9-3.2 3.86 3.86 0 0 1 .86-.9 3 3 0 0 1 .71-.18A5.64 5.64 0 0 0 26.13 67a5.4 5.4 0 0 1 2-1.68h.37a12.31 12.31 0 0 0-1.83 1.29c.37-.12.74-.27 1.1-.42a8.78 8.78 0 0 0-1.74 1.44c.58-.27 1.21-.5 1.85-.74a8.86 8.86 0 0 0-1.14.93s0 .07 0 0c.76-.34 1.54-.61 2.31-.92.25-.1.54-.19.84-.28-.5.33-1 .69-1.49 1l-1 .56a18.27 18.27 0 0 0 3.09-1.08c-.51.26-1 .55-1.5.83A10.77 10.77 0 0 0 31 68l.31-.07-.15.08-.23.1c-.36.16-.7.34-1.05.52l-.47.27c-.55.32 0-.05-.31.33v-.07h-.08c-.05 0-.08.14 0 .12a13.75 13.75 0 0 0 2.87-.88 18.74 18.74 0 0 0-2 1.1l-.09.06h.11c.3.21 1.24-.15 1.54-.21l.46-.1c-.12.07-.24.14-.37.2a.09.09 0 0 0-.07 0c-.05 0-.16.18-.05.21a3.27 3.27 0 0 0 1.08 0 7.22 7.22 0 0 0 1.19-.2 2.47 2.47 0 0 0 .3.42c.16.19.41-.12.44-.26a1.46 1.46 0 0 0 0-.51c.06 0 .14-.08.12-.14a6.63 6.63 0 0 0-2.25-3.44 7.3 7.3 0 0 0-1.7-1v-1c0-1 .13-2 .24-2.94a30.94 30.94 0 0 1 1.31-6 26.89 26.89 0 0 1 6.55-10.07 34.9 34.9 0 0 1 10-6.81c1.64-.79 3.38-1.47 5.08-2.11l.46-.15h.14a7.2 7.2 0 0 1-.67 1.55 7.74 7.74 0 0 1-1.24 2c-.06.07-.07.24.07.21a6.41 6.41 0 0 0 .78-.23 4 4 0 0 0-1 .55 5.35 5.35 0 0 0-.8 1.37 8.36 8.36 0 0 1-1.26 2c-.06 0-.1.2 0 .18a5.86 5.86 0 0 0 2.16-.84c-.51.32-1 .68-1.52 1a3.54 3.54 0 0 0-1.17.88 12.16 12.16 0 0 0-.65 1.36 13.69 13.69 0 0 0-.64 1.34c0 .08 0 .2.13.17a5.38 5.38 0 0 0 1.26-.6l-.46.34c-.36.26-.94.52-1.18.92-.62 1-1 2.1-1.71 3h-.19c-.11 0-.32.2-.18.3.53.39 1 .15 1.6-.12a15 15 0 0 0 2.44-1.67 15.75 15.75 0 0 0 3.74-4.46 13.79 13.79 0 0 0 1.89-5.7 7.67 7.67 0 0 0-.25-2.51l.19.21a9.29 9.29 0 0 1 .47 1.12 15.36 15.36 0 0 1 .81 3.71c0 .12.16.12.23.06a2.62 2.62 0 0 0 .52-1c.08-.23.15-.46.22-.69l.06.19c0 .25-.07.5-.1.75s-.31 1-.2 1.19a5.74 5.74 0 0 1 .59 1.78 3.18 3.18 0 0 0 .3 1.22.16.16 0 0 0 .22 0c.42-.33.54-1.14.76-1.61l.21-.47v.62c-.11.36-.23.71-.34 1.07A4.77 4.77 0 0 0 59 45.9c0 .34.23.6.29.94a6.06 6.06 0 0 0 .25 1.16c.06.15.25 0 .3-.06a12.23 12.23 0 0 0 .94-2.36c.07-.16.17-.39.25-.59v.12a11.4 11.4 0 0 1-.42 1.52c-.17.48-.36.94-.54 1.41-.05.13-.27.61-.2.76.46 1 .37 2.05.73 3 0 .13.23.08.31 0a2.87 2.87 0 0 0 1-1.09.17.17 0 0 0 .17-.09 12.26 12.26 0 0 0 .36-10.42 11 11 0 0 0-1.21-2.12 3.88 3.88 0 0 1 1.67.46s.14 0 .17-.06c.32-.4.13-1 .14-1.45.18.57.14 1.28.63 1.63s.81.43 1.17.74.37.48.64.6.27-.09.27-.2a10.39 10.39 0 0 0-.08-1.37 3.56 3.56 0 0 0-.06-.58c-.25-.67.26.44.31.55.22.53.41 1.06.63 1.58a3.36 3.36 0 0 0 .59 1.18.18.18 0 0 0 .23 0c.38-.46.12-1.11.13-1.67 0 .21.09.43.13.65a5.11 5.11 0 0 0 .2 1.25 5.54 5.54 0 0 0 1 1.18 5.5 5.5 0 0 1 1 1.61c0 .1.17 0 .22 0a3.79 3.79 0 0 0 .57-2.53 5.36 5.36 0 0 0-.39-1.75 8.18 8.18 0 0 0-1.59-2.84 9.79 9.79 0 0 0-4.31-3.12 11.42 11.42 0 0 0-5.84-.41l1.75-.78c.44-.2 1.33-.44 1.6-.89a.37.37 0 0 0 0-.23 2.4 2.4 0 0 0 1-.36c.71-.35 1.46-.64 2.17-1 .35-.17.72-.15.89-.52s-.2-.63-.35-.92c.41.26.63.83 1.11.78a3.24 3.24 0 0 0 .73-.42 3.28 3.28 0 0 1 1.24-.54.19.19 0 0 0 .14-.23 7.09 7.09 0 0 0-.56-1h.09a3.7 3.7 0 0 1 1 .61.17.17 0 0 0 .22 0 25.9 25.9 0 0 1 2.38-1.11c.54-.3 1.43-.42 1.81-.95.04-.09.06-.23-.04-.26ZM42.1 27.22a3 3 0 0 1-2.31.41c.31-.3.71-.54 1-.81s.44-.34.67-.51a8.27 8.27 0 0 1 1-.48 3.35 3.35 0 0 0-1.12 1s0 .1 0 .07v-.06h-.06c.11-.22 1.06-.52 1.31-.63s.45-.17.68-.24a8.69 8.69 0 0 0-1.14.76s0 .06 0 .05c.43-.18.84-.36 1.26-.51-.3.28-.8.6-1.29.95ZM40.4 37a2.15 2.15 0 0 1-1.4 1l-1.34.32a8.51 8.51 0 0 1 2.28-1.83l-.31.31c-.28.29-.61 1-1 1.19-.05 0-.07.12 0 .1s.13 0 .26-.14a18.39 18.39 0 0 1 1.41-1.24l.7-.49c-.23.25-.42.53-.6.78Zm7.92-17.26a22.7 22.7 0 0 1-1.46-2.12c.49.48 1 1 1.49 1.39a5.24 5.24 0 0 1 1 1.38l.21.32c.14.41.27.82.4 1.24a6.17 6.17 0 0 0-1-.51c-.25-.09-.5-.2-.76-.27-.45-.11-.62-.78-.79-1.12a15.72 15.72 0 0 0-1.08-1.81l-.09-.24a17.63 17.63 0 0 0 2 1.78s.11-.01.08-.04Zm-6.5-2.45c-.41-.47-.82-.93-1.22-1.4l.66.59a5.74 5.74 0 0 0 1.07 1s.05 0 0-.05a6 6 0 0 1-1-1.36 1.36 1.36 0 0 0 .61.37c.2.19.4.38.61.56s.4.44.66.47c.05 0 .1-.07.05-.1-.2-.09-.42-.52-.57-.82a.46.46 0 0 0 .33.06.38.38 0 0 0 .21-.13c.33.27.67.53 1 .77.06.05.16 0 .13-.11s0-.05 0-.08a.79.79 0 0 0 .25.14c.11 0 .27-.09.24-.22a2 2 0 0 0-.08-.26l.36.31.45.43c-.16.39.06.9.13 1.28s.61 2.15 0 1.87c-.28-.12-.78.06-.9-.39s-.18-.71-.28-1.06a5.42 5.42 0 0 0-.53-1.7c-.09-.12-.3 0-.3.14 0 .71.07 1.41 0 2.12 0 .4.15.73-.3.62a9.71 9.71 0 0 1-1-.26 6.74 6.74 0 0 0-.88-.24c-.55-.11-.64-.32-.68-.82a14.28 14.28 0 0 0-.36-2.53c.4.3.8.62 1.19 1 .08.03.21-.12.15-.2ZM36 16.51a6.16 6.16 0 0 1-2.09-.67 11.15 11.15 0 0 1 2.21.71c.05 0 .13-.07.08-.11l-.7-.44v-.05l-.18-.08a9.86 9.86 0 0 0-1-.53l.41.12c.71.22 2.07.62 2.4 1.38 0 .06.12 0 .11-.06a1.62 1.62 0 0 0-.35-.64 4.71 4.71 0 0 0 1.49.7.08.08 0 0 0 .09 0 .25.25 0 0 0 0-.07s0-.09-.06-.06-.45-.69-.5-.75a2.48 2.48 0 0 0-.19-.26l.27.22a7.79 7.79 0 0 1 1.28 1.15c.06.08.17 0 .17-.1a2.88 2.88 0 0 0-.44-1.25 4.21 4.21 0 0 1 1 .64c.05.05.13 0 .11-.09h.07a.35.35 0 0 0-.13.14 14 14 0 0 0-.34 2.25c.09.4 0 .45-.29.16a1.63 1.63 0 0 0-.43-.18 7.71 7.71 0 0 0-1.64-.34l-1.64-.25c-.76-.12-1.47.12-2-.62a12.12 12.12 0 0 0-.77-1.16 12.93 12.93 0 0 0 2.86.35c.2.03.25-.1.2-.11Zm-6 6.21a1.3 1.3 0 0 0 .17-.44v3.32c0 .15.18.05.2 0a18.1 18.1 0 0 1 .48-2.79c0 1-.18 2-.21 2.89a6.18 6.18 0 0 0 0 2.27c0 .09.17 0 .19 0a9.67 9.67 0 0 0 .57-2.19 10.21 10.21 0 0 1 .28-1v2.13a6.45 6.45 0 0 0 0 1.3s-.07 0-.05.05v.05h.07a13 13 0 0 0 .66-2.6 5 5 0 0 0 .34 1.93.09.09 0 0 0 .11 0 .35.35 0 0 0 .14-.06c.06.58.1 1.17.12 1.76.06 1.89-.26 3.83-.06 5.7 0 .1.16 0 .17 0a44.53 44.53 0 0 1 .72-5.22 21.7 21.7 0 0 1 .1 2.51 5.22 5.22 0 0 0 .07 1.81c.06.14.26 0 .29-.1a9.21 9.21 0 0 0 .29-1.82c0-.11 0-.22.05-.33 0 .29 0 .58.07.86.08 1.33-.21 2.94.22 4.21 0 .06.12 0 .11-.06a14.74 14.74 0 0 1 .2-4c0 .42.08.83.1 1.25a35.07 35.07 0 0 1-.4 4.46c0 .08 0 .1.1.1-.16.36-.33.71-.51 1.06l-.13.23-.09.18a1.77 1.77 0 0 1-.21.32 4.58 4.58 0 0 1-.16-1.12 8.18 8.18 0 0 1 .15-1.78c.15-1.09.31-2.19.4-3.28 0-.24-.26-.1-.32 0a9.44 9.44 0 0 0-.45 1.68 9.26 9.26 0 0 1-.65 1.92 20.08 20.08 0 0 1-.52-1.92c-.12-.37-.21-.75-.34-1.12a4 4 0 0 1 0-1.72c.19-1.92 0-3.87.25-5.79 0-.14-.16-.13-.23-.05a6.49 6.49 0 0 0-.69 2.34 12.23 12.23 0 0 1-.45 1.57c-.11.27-.25.77-.42.24-.09-.27-.19-.53-.3-.79-.19-.48-.36-1-.55-1.45a10.81 10.81 0 0 1-.73-1.82 10.67 10.67 0 0 1 .13-2.25c0-.53.08-1.07.16-1.59.07.33.15.66.25 1 0 .05.1 0 .09-.05a.29.29 0 0 0 0-.09s-.05 0-.05 0a5.19 5.19 0 0 0 .26-1.28c-.05-.15-.06-.29-.07-.43Zm-.79-5.53c1.09 0 2.15-.22 3.24-.14 0 0 .08-.07 0-.09a17.36 17.36 0 0 0-2-.61 14.11 14.11 0 0 0 1.45-.09s.08-.08 0-.09l-1-.09h.49l.84.09h.14a7.27 7.27 0 0 0 .29 1.55 3.43 3.43 0 0 0-1.41-.18c-.44.05-.93.08-1.38.09-.24 0-.52.06-.78.07a8.59 8.59 0 0 0-1-.48c.39.02.75-.02 1.04-.03ZM27 19.86c.17.35.34.7.5 1.05 0 .05.11 0 .1-.06-.12-.42-.23-.84-.36-1.25.26.69.46 1.4.69 2.09.12.38.7 1.55.5 1.94 0 .05 0 .08.07 0a.94.94 0 0 0 .13-.75c0-.75-.07-1.5-.14-2.25.11.26.23.51.33.77a12.76 12.76 0 0 1 .55 1.92.2.2 0 0 0-.16.1c-.36.93-.57 1.92-.89 2.87-.07-.2-.07-.45-.13-.63-.2-.62-.44-1.24-.66-1.86a6.17 6.17 0 0 1-.53-2.15v-1.79Zm-1.66-2.62c.29.4.62.79.88 1.21s.49.83.71 1.26c0 0-.08.05-.08.07a8.36 8.36 0 0 0-.49 1.91c-.13-.37-.12-.94-.2-1.24a7.79 7.79 0 0 0-.72-1.86 6.31 6.31 0 0 0-.77-1.16h.15a2.07 2.07 0 0 0 .51-.19Zm-2.09-1.76a.54.54 0 0 0 .07-.61c.07-.42.18-.85.28-1.24a1.41 1.41 0 0 0 .27.73s.09 0 .08-.06a3.33 3.33 0 0 1 .05-1.4c0-.33.09-.66.13-1a5 5 0 0 0 .32 2.1s.1 0 .09-.06c-.46-1.35.12-2.75.21-4.12v.63a15.26 15.26 0 0 0 .06 1.66c0 .2.29.05.33-.07a7.62 7.62 0 0 0 .29-2c.06-.45.08-1 .16-1.61a4.15 4.15 0 0 0 .59 2.46s.11 0 .11-.07v-.12c.13-.19 0-.82.06-1v-.12l.09.17a.15.15 0 0 0 .21 0c.4-.33.38-1.38.49-1.81a18.12 18.12 0 0 1 .63-2.05c-.09.41-.17.81-.24 1.21-.16.8-.63 2.16-.26 3h.06a3.41 3.41 0 0 1 .18-1.3c.14-.67.3-1.32.47-2 .11-.39.23-.78.37-1.16v.89c0 .33-.11.75.15 1 .09.09.22 0 .26-.12.44-1 .6-2.11 1-3.13a1.35 1.35 0 0 1 .14-.31 8.42 8.42 0 0 0-.67 4.15s0 0 .05 0a17.4 17.4 0 0 1 .64-2.86c0-.1.07-.21.11-.31V5a10.88 10.88 0 0 0 .06 1.14c0 .13.18.09.24 0a3 3 0 0 0 .42-1c0-.08.09-.31.19-.59-.05.2-.09.39-.14.58a4.24 4.24 0 0 0-.19 2.33c0 .09.16 0 .15-.08-.12-.91.58-2 .89-2.86v-.07c0 .41 0 .81.06 1.14 0 .08.1 0 .11 0 .1-.57.25-1.12.4-1.67a1.43 1.43 0 0 1 .09-.27c.36.44.75.9 1.37.69.3-.1.33-.45.28-.82a2 2 0 0 1 .9.58S35 4 35 4a1.37 1.37 0 0 0-.39-.92l-.19-.24.09.05a3.09 3.09 0 0 0 .84.34 1.35 1.35 0 0 0 1 0 .25.25 0 0 0 .12-.11.31.31 0 0 1 .09.11s.09 0 .09 0a1.17 1.17 0 0 0-.26-.69 2.45 2.45 0 0 1 .6.36s.09 0 .06-.07a6.53 6.53 0 0 1-.54-.64 5.77 5.77 0 0 0 2.09.42c.14 0 .35-.25.16-.34a8 8 0 0 1-1-.55l.22.05a17.21 17.21 0 0 1 2.44.86s.09-.05.06-.08c-.17-.18-.34-.34-.51-.5h.15c.71.19 1.42.38 2.12.62a2.08 2.08 0 0 1 .3.13 28.4 28.4 0 0 1 2.87 1.69 26.39 26.39 0 0 0-2.77-.17c-.6 0-.88.15-1.37-.26s-.82-.82-1.27-1.15c-.08-.05-.22.07-.16.15a9.47 9.47 0 0 1 .65 1.11 1.18 1.18 0 0 0-.4.06c-.48.17-1.08.64-1.6.17a6.78 6.78 0 0 0-2.1-1c-.09 0-.22.11-.14.19a5.69 5.69 0 0 1 1.16 1.5c-.25.07-.54.11-.78.17A8.42 8.42 0 0 0 35.1 6c-.5.26-1 .68-1.5.19a1.86 1.86 0 0 0-1-.57c-.13 0-.27.16-.21.28.13.28.77 1 .39 1.16a10.07 10.07 0 0 0-1.63 1.09l-1 .74c-.2.16-.58.63-.69.23a1 1 0 0 0-.62-.73c-.14-.06-.28.11-.27.24a2.72 2.72 0 0 0 .45 1 3 3 0 0 0-1 .79c-.73.86-1.7.81-2.64 1.23-.1 0-.21.2-.11.29.33.32 1.28.07.7.74a7.44 7.44 0 0 0-1.24 2.06.14.14 0 0 0 0 .13 6 6 0 0 0-1 .83c-.16.16-.31.33-.46.51h-.07a3 3 0 0 1 .04-.73Zm-7.47-1.28a12.59 12.59 0 0 0-1.93.25 16.35 16.35 0 0 0-4 1.35c-.08 0-.13.2 0 .19a8.87 8.87 0 0 0 1.15-.18l-.43.16A15.16 15.16 0 0 0 6.68 18s0 .06 0 0l1.2-.52-.19.1c-.08 0-.1.2 0 .16a15.39 15.39 0 0 1 1.63-.51c-.39.19-.75.39-1.06.58a47.52 47.52 0 0 0-4 2.69s0 .05 0 0c.64-.26 1.21-.67 1.82-1l-.07.11-.5.33-.41.3s-.34.28-.43.39a10.37 10.37 0 0 1 .91-.54A10.85 10.85 0 0 0 2.87 23a.43.43 0 0 0-.07.1s0 .07 0 0c1-.76 1.79-1.63 2.79-2.33a9.81 9.81 0 0 0-1 1.69c0 .09 0 .15.13.12a1.53 1.53 0 0 0 .45-.25c.13-.09 1.15-.75.47-.26a5.43 5.43 0 0 0-.91 1.15 12.28 12.28 0 0 0-1.05 2.08 7.87 7.87 0 0 1-.52 1.41.13.13 0 0 0 0 .13c-.11.05-.17 0-.14-.22a14 14 0 0 0 .15-3c0-.11-.14 0-.17 0a7.3 7.3 0 0 0-.32 1.76 11.31 11.31 0 0 1-.74 3.4 4.24 4.24 0 0 1-.8 1c-.11.11-.85 1-.83.64a.86.86 0 0 1 0-.16 18.78 18.78 0 0 1 2-8 15.63 15.63 0 0 1 5.35-5.89 15 15 0 0 1 8.21-2.25h.55Zm-4.63-4.52c-.51.22-1.15.72-1.74.5a.49.49 0 0 0-.22 0 5.7 5.7 0 0 1 .44-.65c.07-.09.38-.42.52-.63l.42-.31c.08-.07 0-.21-.07-.13l-.36.27a1 1 0 0 0-.31.12 6.61 6.61 0 0 0-.83.6c-.69.54-1.23.18-1.83-.25a16 16 0 0 0-1.72-1.1 14.28 14.28 0 0 1 1.29-1.29L7 6.58c.13-.12.22-.2.28-.27l.27-.14c.09 0 .1-.23 0-.17a3.87 3.87 0 0 0-.34.21 4.12 4.12 0 0 0-.45.24 12.14 12.14 0 0 0-1.95 1.18c-.23.2-.31.48-.56.16a2.31 2.31 0 0 0-.94-.5l-1.18-.47c-.68-.25-.77-.28-.17-.75a10.45 10.45 0 0 1 1.39-.92c-.08 0-.14.21 0 .2A10.65 10.65 0 0 0 5 4.88c.3-.08.61-.14.92-.21-.93.38-1.82.85-2.72 1.27 0 0-.06.09 0 .08s.07-.08 0-.08a3.75 3.75 0 0 0 1.44-.47 16.16 16.16 0 0 1 2.37-.71 4.12 4.12 0 0 0-1 .48c-.08 0-.12.25 0 .21 1-.25 2-.46 3-.61l1.29-.17-.66.13a14.34 14.34 0 0 0-4.76 1.7s0 .1 0 .07a13.77 13.77 0 0 1 4.44-1.18 3.81 3.81 0 0 0-1.81 1c-.06.08 0 .2.09.18 1.2-.2 2.38-.61 3.59-.84.72-.14 1.45-.26 2.19-.35-.72.18-1.44.41-2.14.62a21.71 21.71 0 0 0-4.42 1.73s-.06.12 0 .09a31.26 31.26 0 0 1 3.55-1 13.37 13.37 0 0 0-1.64.85c-.14.1-.11.33.08.27a27.35 27.35 0 0 1 6.74-1.25c-.32 0-.63.09-.94.15-1.54.26-3.47.42-4.82 1.25v.07h.1a2.5 2.5 0 0 0 .69-.16c.42-.07.83-.14 1.25-.19l1.57-.19a2.29 2.29 0 0 0-1 .53c-.07.07-.11.25 0 .25 1.13 0 2.27-.26 3.42-.27h.61l-.7.16a20.72 20.72 0 0 0-3.21.93 6.64 6.64 0 0 0-1.37.46Zm3.52 2.08c-1 .67-1.4.2-2.18-.35a6.64 6.64 0 0 0-1.15-.61c.51-.53 1.16-.93 1.7-1.44.05-.06.08-.19 0-.24a10.1 10.1 0 0 1 1.46-.24 2.81 2.81 0 0 0-.51.29c-.06.05-.16.2-.07.27.62.43 1.76.2 2.48.22h.55l-.51.08a17.7 17.7 0 0 0-2.29.53 2.42 2.42 0 0 0-1 .41h.1a4.13 4.13 0 0 1 1.16-.24 13.83 13.83 0 0 1 1.92-.17.2.2 0 0 0-.06.13.48.48 0 0 0 .26.4 6.09 6.09 0 0 0-1.86.96Zm4.56 2.37a23.17 23.17 0 0 0-2.68-1.35 2.66 2.66 0 0 1-.77-.29c-.28-.16-.27-.15-.45 0A12 12 0 0 1 16.86 11a8.48 8.48 0 0 0 1 .28l.87.23a3 3 0 0 0-2 .63s0 .07 0 0a2.26 2.26 0 0 1 1.45-.25.18.18 0 0 0 0 .16c.1.31.58.38.84.47h.1a8.35 8.35 0 0 0-1.5.11c-.08 0-.16.19-.05.19a8.29 8.29 0 0 1 1.93.24c-.31.25-.47.73-.09.92l.5.26c-.19.01-.43-.06-.68-.11ZM13.88 22a.13.13 0 0 0 0 .06c-.34.28-.67.58-1 .89.34-.37.66-.69 1-.95Zm1.9.16a23.13 23.13 0 0 0-2.06 1.51 2.92 2.92 0 0 0-.93.92.13.13 0 0 0 .14.19 8.42 8.42 0 0 0 1.71-.83c-.56.43-1.1.88-1.63 1.35A24.41 24.41 0 0 1 11.2 27s0 .07 0 .06a7.36 7.36 0 0 0 1.26-1c.56-.45 1.14-.87 1.74-1.27-.3.26-.6.53-.89.82a13.94 13.94 0 0 0-1.66 1.94 2.9 2.9 0 0 0-.74 1.45c0 .11.1.14.18.08A7.9 7.9 0 0 0 12.21 28a8.07 8.07 0 0 1 1.57-1.37l-.59.63c-.47.43-.91.88-1.32 1.27a22.87 22.87 0 0 0-3.22 4.3s0 .06 0 0c.69-.85 1.38-1.67 2.12-2.44a.61.61 0 0 0-.05.12l-.24.35A9.86 9.86 0 0 0 9 34c0 .14.13.11.17 0l.06-.14a.14.14 0 0 0 .13-.08c.24-.33.48-.65.73-1s.47-.6.71-.89a16.26 16.26 0 0 0-1.13 3.26c-.42 1.71-.17 3.54-.36 5.28v.12a18.48 18.48 0 0 1-.69-8 15.29 15.29 0 0 1 2.53-7.44q.63-.88 1.35-1.71a17 17 0 0 1 2.5-1.8l.67-.25c-.63.41-1.25.85-1.85 1.32a10.27 10.27 0 0 0-.8.68c-.17.14-.32.3-.47.45a5.91 5.91 0 0 1-.53.69 26.22 26.22 0 0 1 4.21-2.86c.4-.21.81-.41 1.22-.6-.57.38-1.12.73-1.67 1.09Zm5.74 41.64a123.5 123.5 0 0 1-2-13.39 107.79 107.79 0 0 1-.09-13.57 75.17 75.17 0 0 1 1.13-9A98.74 98.74 0 0 0 19.71 41c0 1.82.29 3.61.46 5.42a3.7 3.7 0 0 0-.42.66c-.08.14.1.18.17.07a3.73 3.73 0 0 1 .28-.38c0 .38.06.76.08 1.14v.07c-.1.16-.2.32-.28.48s-.45.76-.37 1.09c0 .06.09 0 .13 0a.19.19 0 0 0 .07-.11 6.44 6.44 0 0 1 .5-.7c.17 2.07.57 4.13.9 6.18-.22.44-.42.88-.6 1.35 0 .09.09.1.13 0a6.37 6.37 0 0 1 .55-.9c.08.46.17.93.26 1.4-.16.31-.32.62-.47.93s-.35.62-.23.93H21s.1-.09 0-.11a9.51 9.51 0 0 1 .66-1.06c.18.8.37 1.6.59 2.4a6.65 6.65 0 0 0-.51 1.76c0 .1.13 0 .14 0a6 6 0 0 1 .52-1.19l.24.82a6 6 0 0 0-.4 1.67h.06a.11.11 0 0 0 .07-.09v-.05l.08-.07.16-.36c.07-.17.15-.33.23-.49.19.59.4 1.18.58 1.78a7.15 7.15 0 0 0-1.9.12Zm28.81-34.31c-.51.24-.54.44-1.11.28s-1.35-.71-2-.66a6.38 6.38 0 0 1 1.57-1.47c.06 0 .08-.16 0-.15-1.24.12-1.92 1.83-3.33 1.13a8 8 0 0 0-3-.89c.48-.62 1.33-.92 1.72-1.59a.12.12 0 0 0 0-.1 9.94 9.94 0 0 1 1.38-.34c.49-.09 1-.11 1.5-.16A6.83 6.83 0 0 0 43.75 27s0 .07 0 0a8.3 8.3 0 0 1 4.58-1l-.45.09a8.39 8.39 0 0 0-2.27.79c-.18.1-.49.18-.59.39 0 0 0 .05.07 0A3.08 3.08 0 0 1 46 27a7.61 7.61 0 0 1 1.76-.29 11.22 11.22 0 0 1 2.58.15.39.39 0 0 1 .1.08 12 12 0 0 0-3.14.06c-.06 0-.12.12 0 .12a7.57 7.57 0 0 1 3.1.31 8 8 0 0 1 .91.38l.33.4a11.17 11.17 0 0 0-3-.82s-.07.06 0 .07A7.61 7.61 0 0 1 51.69 29l.29.26c-.76-.35-1.57-.62-2.27-.9-.05 0-.12.07-.07.1a5.53 5.53 0 0 1 1.21.72c-.18.1-.32.21-.52.31ZM51.65 31c-.45-.25-1.75-.45-1-1.18l.18-.17a8.27 8.27 0 0 0 1.17 1.4c.09.11.17.22.25.34a3.79 3.79 0 0 0-.6-.39Zm-9.89 4.66 1.16-.75a12.34 12.34 0 0 0-1.56 1.42c.13-.2.26-.42.4-.64Zm.71.52s0 .07 0 0A14 14 0 0 1 44.6 35a4 4 0 0 0-.84.68s0 .06 0 0a3.79 3.79 0 0 1 .87-.52 9 9 0 0 0-1 1.17c-.64.89-1.9.6-2.79 1a6.32 6.32 0 0 1 .34-.81 16.65 16.65 0 0 1 3.05-1.85c.42-.23.87-.42 1.31-.64h.08a16.21 16.21 0 0 0-3.15 2.18Zm2.9-1.18a22.09 22.09 0 0 1 2.54-.56 11.55 11.55 0 0 1 1.2-.17 14.1 14.1 0 0 0-4.17 1.26 5.25 5.25 0 0 0 .43-.53Zm1.49 1a10.36 10.36 0 0 0-2.27.38 1.73 1.73 0 0 0-.31.14c.2-.14.29-.46.39-.65a1.3 1.3 0 0 1 .1-.15 13.92 13.92 0 0 1 4.7-1c.71-.06 1.42-.1 2.14-.11-1.51.22-3 .66-4.51.88 0 0-.08.1 0 .09 1.15 0 2.32-.26 3.47-.38h.37l-.28.07c-.84.22-1.66.47-2.47.75-.45.05-.94-.02-1.33-.02ZM27.24 64.61c.05-.48.06-1 .08-1.45a3.41 3.41 0 0 0 .61-.53 5.74 5.74 0 0 1 .45-.41 8.6 8.6 0 0 0 .15 2 4.42 4.42 0 0 0-1.29.39Zm3-.21a3.79 3.79 0 0 1-.11-1.57c.06-.28.11-.56.16-.83a13 13 0 0 0-.05 2.4Zm21.63-28.77a16.41 16.41 0 0 0-2 .68 52.48 52.48 0 0 0-5.39 2.47 35.62 35.62 0 0 0-8.49 6.5 30.8 30.8 0 0 0-5.89 9 17.89 17.89 0 0 0-1.25 4.35l-.21.16c-.11.09-.06.27.08.17l.09-.06c0 .13-.05.26-.07.38-.07.46-.14 1-.2 1.48l-.5.4c-.07.06 0 .16.05.1l.43-.3c0 .26-.06.53-.07.8l-.43.37c-.23.22-.41.52-.64.76v-.26a21 21 0 0 1 .4-2.72 31.73 31.73 0 0 1 1.74-5.56A29.2 29.2 0 0 1 35.4 45a37.53 37.53 0 0 1 9.38-6.87 29.77 29.77 0 0 1 5.48-2.28c.74-.22 1.54-.48 2.35-.7h1c-.61.11-1.17.29-1.74.48Zm1.72-3a8.29 8.29 0 0 0-1.06-1.45c-.26-.28-.54-.55-.82-.81a3.85 3.85 0 0 1-.82-.74 1.9 1.9 0 0 0 .19-.21c.28.24.56.5.83.78a5.89 5.89 0 0 0 1.36 1.21 12.66 12.66 0 0 1 .39 1.29.23.23 0 0 0-.07-.1Zm-2.43 13.21c-.18.15-.35.31-.49.44-.65.6-1.29 1.19-1.91 1.82 0 0 0 .12.06.08l.93-.62-.19.24a9.76 9.76 0 0 1-1 1s0 .11 0 .09a15.64 15.64 0 0 1-1.41 1.41c.37-.58.65-1.22 1-1.84a4.29 4.29 0 0 0 .24-.59c.13-.36.78-.68 1.07-.89.49-.37 1-.73 1.46-1.13a.21.21 0 0 0 .07-.22 4 4 0 0 1 .59-.39ZM53.32 42a9.71 9.71 0 0 0-.74.63c-.66.55-1.27 1.12-1.91 1.68v.09c.6-.29 1.21-.59 1.78-.94l.34-.21-.09.19-.56.48a8.92 8.92 0 0 0-1.68 1.56c0 .07 0 .13.09.08a11.75 11.75 0 0 1 1.56-1l-.19.29a4 4 0 0 0-1.14.88c-.66.23-1.29.79-2 1 .2-.35.45-.68.65-1s.44-1.21.69-1.35a8.46 8.46 0 0 0 2.57-2.15v-.05a5.86 5.86 0 0 0 .69-.28 1.27 1.27 0 0 1-.06.1Zm.68-2.41c-.32.29-.62.61-.92.89l-.76.76c-.09.11-.31.42-.43.47s-.09.1 0 .11c.27.07.94-.5 1.13-.61s.49-.27.73-.42v.06a15.9 15.9 0 0 0-1.25 1.21s0 .06 0 .07c-.56.23-1.14.43-1.68.67-.3.13-.3.25-.1-.07s.41-.66.62-1 .37-.66.56-1 .4-1.05.75-1.19a7.81 7.81 0 0 0 1-.47 15.22 15.22 0 0 1-1.36 1.83c-.05.06 0 .14.07.09a9 9 0 0 0 1.67-1.7L54 39.2v.39Zm.51-3.19v.08c-.3.47-.47 1-.77 1.49 0 .05 0 .08.07 0 .22-.24.42-.5.62-.76v.2l-.07.08-.44.52a5.74 5.74 0 0 1-.41.45s0 .11 0 .09a2 2 0 0 0 .81-.52s0 0 0 .07a4.57 4.57 0 0 0-.35.48c-.33.1-.67.21-1 .29a8.52 8.52 0 0 0 1.22-2.21 4.64 4.64 0 0 0 .38-1.25c0 .06 0 .13.07.2-.11.29-.14.54-.18.79Zm15.29 3.38c.11.4.23.82.33 1.16a5.66 5.66 0 0 1 .17 1.76 12.55 12.55 0 0 0-.88-3.39c0-.15-.11-.29-.16-.43a10.2 10.2 0 0 1 .54.9Zm-.51 1.84s.1 0 .08-.07a5 5 0 0 1-.43-1.31 7.94 7.94 0 0 1 1 3.25 8.46 8.46 0 0 0-1.17-1.63 3.68 3.68 0 0 1-.8-2.12 4.8 4.8 0 0 0 1.32 1.88ZM66.36 38c.21.3.39.6.57.92s.14.37.35.43a1.94 1.94 0 0 1-.16-.72s0 0 0-.08l.43.32a.14.14 0 0 0 0 .07c-.35.52.09 1.37-.13 1.92a5.41 5.41 0 0 1-.29-.69c-.21-.49-.4-1-.61-1.48a4.31 4.31 0 0 0-.42-.83ZM55.13 21c-.34-.13-.19-.82-.21-1.14a8.94 8.94 0 0 0-.12-1.16c.12.21.24.44.27.47.46.64 1 1.23 1.37 1.9.08.13.15.26.22.4-.4-.58-.84-1.13-1.28-1.67 0 0-.09 0-.07.07l.17.31-.38-.51h-.06a28 28 0 0 1 1.48 3 .54.54 0 0 1-.05-.11c-.35-.69-.85-1.46-1.34-1.63Zm.09 4.37c0-.57.05-1.13 0-1.7a1.89 1.89 0 0 0-.25-.82c.28.11.49.34.77.47.1.05.19-.09.17-.17a3.23 3.23 0 0 0-.65-1 7.72 7.72 0 0 1 1.17 1c.11.37.25.74.39 1.11l-.6-1c0-.07-.14 0-.12.08.25.53.47 1.08.67 1.63a3.12 3.12 0 0 0-.76-.74s-.1 0-.07.07a5 5 0 0 1 .88 2.93c-.22-.58-.47-1.15-.71-1.71 0-.05-.08 0-.09 0l-.15-.25c-.06-.09-.19 0-.16.12a12.1 12.1 0 0 1 .6 2.35 5.41 5.41 0 0 1-.24-.63c0-.07-.1 0-.1 0v.11c-.16-.63-.75-1.29-.75-1.92Zm.06 6.62-.12.36c.06-.3.12-.59.16-.88-.01.09-.03.27-.04.45Zm.25-2.72a3 3 0 0 1 0 .31c0-.52-.07-1-.08-1.54a1.57 1.57 0 0 0-.08-.4 4 4 0 0 0 .41.31c.11.07.21 0 .25-.12v.3a4.35 4.35 0 0 0-.14 1.61v.73a.69.69 0 0 0-.05.13v-1.38c-.03-.28-.29-.16-.31-.02Zm2.19 10.55a10 10 0 0 1-.43 1.32 15.49 15.49 0 0 0-.54-2.59 8.3 8.3 0 0 0-.53-1.27l.51.45c.05 0 .13 0 .1-.08l-.28-.47a1.11 1.11 0 0 0 .27.26.06.06 0 0 0 .06 0 8.92 8.92 0 0 0 .76 2.27c0 .07.14 0 .13-.07 0-.08-.11 0-.12 0 0-.17.06-.32.08-.47l.11.33c-.04.04-.08.14-.12.25Zm1.34 4.19c-.06.12-.13.4-.22.6a7 7 0 0 1-.2-1.23 3.33 3.33 0 0 0-.52-1.47c-.11-.13 0-.64.09-1 .13.65.34 1.67.7 1.79a.08.08 0 0 0 .09-.1 2.7 2.7 0 0 1 0-.82c0 .35.07.71.11 1.05a2.09 2.09 0 0 0 .08.51c0 .09.1.09.16.05-.1.15-.2.35-.29.55Zm.42-.84a5.17 5.17 0 0 1 .46-1.48v.64c0 .21-.33.51-.46.77Zm.81 3c-.22.43-.32 1-.53 1.44a9.73 9.73 0 0 0-.24-1.07 2.42 2.42 0 0 1 .1-1.81l.09-.31a7.72 7.72 0 0 0 0 1c0 .15.2 0 .22-.08a12.35 12.35 0 0 1 .61-1.75 1.09 1.09 0 0 0 0 .17 6.72 6.72 0 0 0-.22 2.24Zm.19-.35a8 8 0 0 1 .41-1.22c0 .1 0 .2.07.29Zm2 .85a14.74 14.74 0 0 1-.14 1.76c-.18.55-.43 1.07-.63 1.61a4.3 4.3 0 0 1-.21.51 15.29 15.29 0 0 0 1-3.69 1.25 1.25 0 0 0-.05-.29Zm-1.13.48c-.07.23-.13.47-.18.71a4 4 0 0 0-.17 2c0 .07.11 0 .11-.06a5.14 5.14 0 0 1 .5-1.79c0 .12 0 .25.05.37.16.88-.42 1.81-.63 2.64 0 .11.06.14.13.11a1.13 1.13 0 0 1-.15.21c-.08-.32-.11-.67-.22-1a4.21 4.21 0 0 1-.44-2.2c.16-.55.33-1.08.49-1.61-.13.66-.2 1.33-.26 2 0 .13.17.07.2 0 .12-.53.33-1.02.54-1.48ZM63 36.56c-.11.23 0 1.7-.19 1.59a3.79 3.79 0 0 0-1.91-.43A9.18 9.18 0 0 0 59.08 36a6.24 6.24 0 0 0-.83-.49l.72.13a12.15 12.15 0 0 1 1.18.33 17.25 17.25 0 0 0 1.64.75s.08 0 0-.07a7.31 7.31 0 0 1-1.19-.77l.24.06a6.91 6.91 0 0 1 1.58.74s.08 0 .07-.07a2 2 0 0 0-.2-.42c.26.06.53.13.79.21a.34.34 0 0 0-.08.16Zm1.11.21.44.2c.19.32.37.64.58 1 0 0 .1 0 .09-.06l-.22-.7.48.26a.54.54 0 0 0 0 .45 6.54 6.54 0 0 1 .12 1.55l-.31-.35a3.92 3.92 0 0 0-.91-.66c-.63-.31-.62-1-.83-1.59a5.08 5.08 0 0 1 .92 1.22c0 .07.13 0 .12-.07a4.69 4.69 0 0 0-.48-1.25Zm-5.49-2.4a11.12 11.12 0 0 1 4.63.16 10.44 10.44 0 0 0-1.61-.17 21 21 0 0 0-2.63.15l-1.36.12h-.39c.32-.08.63-.16.94-.22Zm2.57-2.48c-.4.17-.79.37-1.2.55-.81.37-1.63.71-2.45 1.05-.58.24-1.21.55-1.84.78a1.09 1.09 0 0 1 .17-.13c.35-.18.7-.37 1.05-.52 1.29-.59 2.56-1.17 3.9-1.65.16 0 .22-.42 0-.35-.8.24-1.59.5-2.38.77.35-.18.69-.37 1-.53.68-.32 1.4-.56 2.1-.83.03.41.09.69-.35.86Zm3.74-3.35.36-.09v.12l-.57.11Zm.35.44a2.26 2.26 0 0 0 .11.22l-.54.17a4.21 4.21 0 0 1-1.3.18c.54-.22 1.13-.41 1.73-.55Zm.08.76c-.37.14-.72.32-1.08.48a14.25 14.25 0 0 0-1.62.79c-.45.28-.4.09-.54-.21l.52-.25v-.08a2.71 2.71 0 0 1-.59.18.21.21 0 0 0 0-.06c1.14-.45 2.35-.77 3.43-1.31.39.72.14.36-.12.46Zm3.25-1.3a5 5 0 0 0-1.39.64c-.31.19-.64-.09-1-.37l1.41-.36s.09-.11 0-.1c-.59.06-1.17.13-1.75.21l-.18-.1c.67-.14 1.34-.26 2-.39 0 0 .07-.08 0-.08h-.68l1-.32c.19.29.44.57.59.87Zm2.86-1.74a10.18 10.18 0 0 0-1.81.9 3.26 3.26 0 0 0-.64-.37 16.52 16.52 0 0 1 2.64-.68c.1 0 .17-.2 0-.19a22.12 22.12 0 0 0-3.09.51c.55-.2 1.11-.37 1.68-.52s1.11-.07 1.67-.17c0 0 .08-.11 0-.1a7.2 7.2 0 0 1-.8.07 13.57 13.57 0 0 1 1.89-.24.27.27 0 0 0 .18-.11l.19.1c-.55.32-1.33.52-1.91.8Z" data-color="1"/>
        </g>
    </g>
</svg>
