<?xml version="1.0" encoding="UTF-8"?>
<svg data-bbox="-0.006 -0.001 234.641 86.863" viewBox="0 0 234.63 86.87" xmlns="http://www.w3.org/2000/svg" data-type="color">
    <g>
        <g>
            <path fill="#e06230" d="M234.35 77c-4.5.4-9 0-13.56 0a3.26 3.26 0 0 1 1.23-.06c.31.06.64-.48.32-.66a4.06 4.06 0 0 0-2.19-.13c-1.63.14-3.27.14-4.89.38-.57.08-1.15.13-1.72.16.87-9.23-.09-18.44-4.08-26.87a118.76 118.76 0 0 0-6.29-12.31 41.32 41.32 0 0 1-3.1-5.23 7.51 7.51 0 0 0-.43-.84 6.59 6.59 0 0 0-1.3-2c-.19-.19-.53.06-.6.3-1.48-.1-2.22 4.37-2.49 5.17-1.19 3.53-2.42 7-3.56 10.56a16 16 0 0 0-1.33-3.8 28.29 28.29 0 0 0-3-6.92c-.87-1.4-1.82-2.75-2.8-4.09l-1-2.08c-1.19-2.31-2.49-4.57-3.71-6.86l-.4-.75a15.72 15.72 0 0 0-1.58-3.36c-.63-1-1.33-2-2-3l-2.41-4.09c-.52-1.17-.93-2.38-1.46-3.54a9.24 9.24 0 0 0-2-2.26 12.73 12.73 0 0 1-1.25-1.56A5.75 5.75 0 0 0 167 1.12a4 4 0 0 0-1.65-1.06c-1.5-.43-3.7 1.52-4.79 2.31a43 43 0 0 0-6.21 5.7c-4 4.31-7.93 8.62-11.49 13.31-1.59 2.09-3.22 4.17-4.79 6.29a14 14 0 0 0-2.4 4.22 39.47 39.47 0 0 0-6.36-8.26c-1-1-2.09-2-3.1-3a15.37 15.37 0 0 0-2.6-2.68c-1.55-.93-2.89 1-3.67 2.15-1.81 2.64-4.11 4.89-5.7 7.69s-2.9 5.92-4.35 8.85a46 46 0 0 0-2.65 7.36 7.23 7.23 0 0 0-.63-1.06c-.12-.34-.25-.67-.39-1-.85-2.16-1.9-4.26-2.92-6.34-.92-1.89-1.88-3.75-2.86-5.61-2.08-3.67-4.19-7.32-6.12-11.07s-3.71-7.64-5.65-11.42c-.5-1-1-1.95-1.58-2.94q-3.95.15-7.89.43c-3.25.25-6.51.43-9.77.71-.9.07-1.81.16-2.72.27h-.06C62.36 8 58.31 10.5 54.24 13s-8.24 4.83-12.3 7.41c-3.4 2.19-6.79 4.43-10.35 6.35l-.13.21a37 37 0 0 1-2.24 3.45A29.27 29.27 0 0 0 26 36.93c-1 2.65-2.28 5.23-3.17 7.92-1 2.94-2.23 6-3.45 8.83-1.12 2.63-1.94 5.34-3 8-1.15 2.84-2.08 5.79-3 8.73-.47 1.57-1 3.12-1.48 4.68-.13.44-.24 1-.34 1.44s-.27 1.13-.43 1.69c-1.48.13-3 .3-4.45.44-1.81.18-5.07.78-6.61-.54 0 0-.1 0-.07.08 1.57 1.94 5.93 2 8.21 2.26a51.16 51.16 0 0 0 6.19.11 47.59 47.59 0 0 0 6-.22c1.89-.24 3.66.14 5.53.06s4-.22 6.06-.3c3.83-.16 7.59.35 11.38-.25 3.95-.62 7.84-2.27 11.87-2.14a25 25 0 0 1 6.28 1.38 13 13 0 0 0 1.74.38c-.7.11-1.4.24-2.11.37a145.44 145.44 0 0 0-19.7.42c-4.09.43-8.22.43-12.31.94-2 .25-4.05.64-6.1.81-1.17.09-2.36.1-3.52.22a12.49 12.49 0 0 1-4.13.24c-.08 0-.2.12-.1.16 1.54.54 3.16.19 4.76.28a47.74 47.74 0 0 0 6.33.06c4.27-.31 8.55 0 12.78-.69 2.11-.33 4.17-1 6.27-1.34a43.21 43.21 0 0 1 7.28-.44h5c-.73.14-1.46.27-2.19.38-2.14.34-4.29.62-6.43.94a23.9 23.9 0 0 0-3.49.67 6.79 6.79 0 0 1-2.78.27c-.06 0-.13.08-.07.11 1.14.48 2.84 0 4-.1 2.1-.14 4.2-.24 6.3-.34 4.47-.22 8.93-.63 13.4-.9 9.14-.56 18.34-.64 27.47-1.3.25 0 .55-.5.2-.52-4.38-.33-8.8-.31-13.18-.54-3.57-.18-7.09-.26-10.63-.22.3-.16.6-.34 1-.5a27.22 27.22 0 0 1 6.6-1.55 29.37 29.37 0 0 1 3.5-.32.44.44 0 0 0 .19.24 2.46 2.46 0 0 0 1.56-.08 22.5 22.5 0 0 1 4.84.05c2.62.08 5.2.94 7.84.72 3.3-.29 6.64-.39 10-.43-3.08.23-5.94-.07-8.92 1-.1 0-.14.24 0 .21 3.17-.6 6.14.24 9.28.49a84.16 84.16 0 0 0 8.7 0c1.24 0 2.57.46 3.83.49a21.33 21.33 0 0 0 4.3-.42c3-.56 6-1.67 9-2.32a33.67 33.67 0 0 1 9.47-.4 24 24 0 0 0-2.72.59c-.06 0-.11.14 0 .13a39.25 39.25 0 0 1 10.81.84 35 35 0 0 0 10.16.57c1.31-.11 2.63-.2 3.94-.28l-.76.12c-2.27.37-4.53.69-6.82 1a17.3 17.3 0 0 0-5 1c-.11 0-.18.32 0 .27a20.77 20.77 0 0 1 5.4-.39c2.1 0 4.17-.14 6.27-.31s4-.21 6-.45a24 24 0 0 1 6.5.17 29.28 29.28 0 0 0 6-.12c2.09-.16 4.17-1.22 6.24-1.58a37.63 37.63 0 0 1 7.18-.67c1.42 0 2.83.08 4.23 0-1.31.19-2.61.4-3.91.62-2.07.36-5.36.16-7 1.75-.06.06-.06.2.05.17.45-.08.36 0 .57-.35.26 0 1.18-.06 1.24-.07a17.8 17.8 0 0 1 2.2-.17c1.37 0 2.74-.09 4.11-.22a75.14 75.14 0 0 1 9.6-.52c.55 0 1.1 0 1.64.09-1.28.1-2.56.17-3.84.24-1.79.09-3.6 0-5.39.1a17.68 17.68 0 0 0-2.28.47.13.13 0 0 0 0 .05c.86.14 1.85-.06 2.77 0 1.73.2 3.43.47 5.18.55a39.75 39.75 0 0 0 10-.83c3.28-.7 7.09-.29 10.43-.33s6.9 0 10.09-1c.19.01.46-.58-.04-.58Zm-112-58.17a.41.41 0 0 0-.09.1 13.34 13.34 0 0 1-1.06 1.81c.33-.61.66-1.22 1-1.84a.67.67 0 0 1 .12-.04Zm-3.26 4.31c.6-.92 1.27-1.78 1.83-2.72a6.35 6.35 0 0 1 .89-1.24 105.44 105.44 0 0 0-5.55 9 46 46 0 0 1 2.8-5.01ZM36.45 79.35l-.06.06-1.39-.06c-3.73 0-7.49.49-11.16-.25-1.66-.34-3.33-.83-5-1.09a29.32 29.32 0 0 0-6.35.08l-1.09.09c2.24-5.18 3.96-10.58 6.16-15.76 2.29-5.36 4.33-10.81 6.69-16.14 2.24-5.05 3.78-10.43 6.67-15.17a28.93 28.93 0 0 0 1.89-2.78 3 3 0 0 1 .88-1.13 34 34 0 0 1 1.66 3.2c.47.92.91 1.86 1.33 2.8a12.78 12.78 0 0 0-2.3 1.8c-1.22 1-2.51 2-3.71 3a.05.05 0 1 0 .06.09c1.16-.8 2.35-1.55 3.53-2.31.88-.57 1.88-1.13 2.76-1.76l.39.93a13.67 13.67 0 0 0-1.8 1.38 20 20 0 0 0-2.22 1.88c-.07.09 0 .21.1.13.82-.6 1.79-1.06 2.64-1.64.5-.33 1.07-.61 1.59-1l.15.4a118.24 118.24 0 0 1 4.27 13.34c.34 1.44.69 2.88 1 4.32l-.36-.66c-.83-1.56-1.56-3.18-2.46-4.7-.58-1-2.48-4.73-4-4.11-1.35.55-2.21 3.95-2.81 5.1a86.29 86.29 0 0 0-4.26 9.64 62 62 0 0 0-2.85 10.51 41.16 41.16 0 0 0-.34 4.16 67.29 67.29 0 0 1 1.6-7.16 65.23 65.23 0 0 1 3.22-9.09 72.25 72.25 0 0 1 3.31-7.81c-.27.62-.53 1.24-.78 1.85-.43 1.07-.88 2.18-1.2 3.28a5.15 5.15 0 0 0-.49 1.77c0 .17.2.19.32.14.72-.29 1.1-1 1.68-1.54A14.85 14.85 0 0 0 36.25 53c-1.12 1.74-2.14 3.55-3.16 5.35a49.93 49.93 0 0 0-1.73 3.33c-.25.52-1.18 1.88-.83 2.51.1.19.33.14.47 0a16.16 16.16 0 0 0 2.31-2.09c-.26.4-.52.79-.79 1.18-1.56 2.3-3.45 4.86-4.31 7.53 0 .12.11.11.15 0a30.3 30.3 0 0 1 4.46-5.36 48 48 0 0 0-1.65 4.53c-.28.89-1.34 3.24-.31 3.86.11.07.28 0 .38-.07a55.71 55.71 0 0 1 4.82-3.18 11.79 11.79 0 0 1 2.75-1.26l.28-.05c-.73.5-1.46 1-2.18 1.53-2.91 2.19-5.69 4.56-8.65 6.65-.07.06-.07.2 0 .15A39.43 39.43 0 0 0 33 75c1.06-.61 2.14-1.19 3.2-1.79a20.37 20.37 0 0 0-3 3.06.23.23 0 0 0 .06.36c.48.29 1.3-.1 1.8-.17 1.75-.23 3.56-.44 5.32-.51 0 0 2.32.09 1.11.59-.73.31-1.45.68-2.17 1a19.56 19.56 0 0 0-2.87 1.81Zm5 .18a12.54 12.54 0 0 1-2.21.08q1.41-.24 2.82-.51a26.7 26.7 0 0 1 3.68-.28c-1.39.31-2.84.52-4.27.71Zm23.21-2.35c-2 .11-4.21-.55-6.21-.66-3.65-.2-6.86.75-10.27 1.68a11.76 11.76 0 0 0 0-2.22v-1.71a4.82 4.82 0 0 1 .14 1.82c0 .17.22.1.25 0a6.7 6.7 0 0 0 .07-2.89c-.25-1.67-.26-3.35-.61-5s-.77-3.28-1.24-4.91c-.18-1.1-.35-2.19-.5-3.29a141 141 0 0 0-2.71-14.14c-.52-2.21-1.37-4.33-2-6.51a33.09 33.09 0 0 0-2.28-5.75 37.67 37.67 0 0 0-3.57-5c-.41-.57-.79-1.25-1.25-1.86.28-.13.57-.24.9-.36A32.85 32.85 0 0 0 42 22.47c0 .12.05.22.18.23a4.14 4.14 0 0 0 1.82-.35 91.13 91.13 0 0 0-7.51 5.33s0 .08 0 .05a112.38 112.38 0 0 1 10.64-5.47l1.32-.6c-1 .78-2 1.51-3 2.23A15.56 15.56 0 0 0 41.59 27c-.36.49-.3.83 0 1l-1.61 1.17v.05l1.72-1.12a2 2 0 0 0 1.26.13c.78-.16 1.5-.53 2.28-.71a2 2 0 0 1 .81-.05l-1.58 1a24.26 24.26 0 0 1-3 2c-.07 0-.12.2 0 .17a36.53 36.53 0 0 0 5.11-2.58 15.26 15.26 0 0 1-.32 2.38c-.12 2.34 2.1 4.51 3 6.53A44.23 44.23 0 0 1 52 45.22c.6 2.44 1 4.93 1.84 7.31 0 .07 0 .14.07.21C52 50.13 50.05 47.62 48.3 45a.28.28 0 0 0-.28-.14c1.18 3.76 3.41 7.33 5.07 10.78.72 1.1 1.47 2.19 2.22 3.25A86.15 86.15 0 0 1 60.6 67c.3.53.59 1.08.87 1.62-1.07-3.08-2.22-6.13-3.57-9.1-.37-.81-.78-1.61-1.22-2.39 0-1.05-.13-2.11-.18-3.17-.13-2.61.16-5.29.29-7.9.22-4.79.8-9.6 1.35-14.36a45.88 45.88 0 0 1 1.26-6.55 31.13 31.13 0 0 1 2.06-6.5c1-1.89 1.86-3.83 2.76-5.77.69-1.51 1.44-3 2-4.55.6.08 11.19-.81 13.85-.72l4 .14h2.12c.88 0 .57-.09.6.89a5.63 5.63 0 0 0 .11.93c0 1.65-.21 3.37-.17 4.87.1 3.26.22 6.54.4 9.79a71 71 0 0 0 .79 7.13 3 3 0 0 0 .3 1.71c0 .23.08.47.13.71.29 1.5.67 3 .94 4.5 0 .22.08.44.1.66l-.63-.68c-1.86-1.92-3.72-3.78-5.7-5.57s-3.45-4.21-5.4-6.15c-1-1-3-2.79-4.56-2.89s-1.89 2.19-2 3.29c-.17 1.7-.45 3.41-.74 5.11a97.8 97.8 0 0 0-8.8 5.76c-.2.12-.1.41.13.27 2.8-1.64 6-3.15 8.53-5.22L70 34.49c0 .23-.07.46-.1.69A71 71 0 0 0 62 40.4s0 .11 0 .07c1.62-1.07 3.35-1.91 5-2.9.83-.5 1.83-.89 2.75-1.37-.27 2.45-.33 4.93-.7 7.37-.43 2.79-.92 5.56-1.17 8.37-.28 3.13-.31 6.25-.68 9.37-.34 2.82-.72 5.62-.93 8.44a69.88 69.88 0 0 1-.71 7.37Zm26.6-5.32-4 1.52a34.31 34.31 0 0 0-5.58 2.47c-.72 0-1.44 0-2.16.07-1.68.11-3.35.39-5 .61-.9.13-1.8.28-2.69.46a11.79 11.79 0 0 1-2.22-.09c-1.3 0-2.58.12-3.86.21 1-3.56 1.26-7.38 1.89-11 .84-4.86 1.54-9.68 2.23-14.55s1.94-9.33 2.3-14.1c.17-2.26.48-4.43.83-6.67.16-1 .16-2.11.28-3.14a5.51 5.51 0 0 0 0-.83c.77 2.34 1.58 4.67 2.37 7a.43.43 0 0 1 0 .05 3.46 3.46 0 0 1-.46.32c-.11 0-.14.26 0 .21a2.55 2.55 0 0 0 .52-.27 4 4 0 0 0 .59 1.27c1.11 1.35.16 2.9-.43 4.11s-1.26 2.29-1.9 3.42c-.15.27-1.21 2.48 0 1.93a10.12 10.12 0 0 0 2.27-2.16 18.88 18.88 0 0 1 4-3.29 8.93 8.93 0 0 1-.78 1.11 12.63 12.63 0 0 1-2.92 2.18s0 .09 0 .08a5.63 5.63 0 0 0 2-1.12l-.29.4c-.91 1.36-1.78 2.73-2.55 4.17a66.72 66.72 0 0 0-1.88 3.79c-.29.64-.75 1.44-.41 2.14a.29.29 0 0 0 .25.15 1.9 1.9 0 0 0 1.34-.8 32.66 32.66 0 0 1 3.31-3l.69-.53c-.25.29-.5.58-.74.88a53.722 53.722 0 0 0-3.12 4.2 30.36 30.36 0 0 0-2.77 4.46c-.06.21.17.36.34.15.93-1.22 2.21-2.22 3.22-3.39 1.21-1.4 2.49-2.74 3.79-4.06l1.73-1.75c-1 1.68-2 3.39-2.85 5.16s-1.78 3.75-2.6 5.71c-.57 1.43-1.61 3.36-1.3 5 .45 2.36 5.89-3.24 6.42-3.71s1.28-1.07 2-1.57l-.74.71a38.11 38.11 0 0 0-4.05 4.74c-.73 1-2.2 2.18-2.34 3.5 0 .12.14.07.17 0 .41-1.3 2.66-2.85 3.66-3.69 1.54-1.28 3-2.61 4.61-3.85l.73-.58c-1.15 1.15-2.48 2.59-2.51 4a.28.28 0 0 0 .24.33c2 .37 4.19-.63 6.11-1.13l-.12.06c-1.68.83-3.34 1.69-5 2.61-.58.32-1.15.69-1.71 1a19.34 19.34 0 0 1-2.51 1.86c.12 0 .18-.28 0-.26s-.22.11-.33.25 0 .26.12.24a22.91 22.91 0 0 0 4.08-1.54c1.68-.62 3.39-1.11 5-1.75.8-.31 1.61-.61 2.42-.9l-.75.35A68.25 68.25 0 0 0 84 68.6c-1.14.69-2.24 1.45-3.4 2.12A3.62 3.62 0 0 0 79.17 72c-.12.22-.19.6.11.71a5 5 0 0 0 2.17-.07c1.07-.06 2.15-.27 3.21-.42 2.43-.34 4.9-.5 7.34-.68h.27ZM153.49 26c-1.09 1.52-2.19 3-3.21 4.59s-2.09 3.14-3.09 4.74a6.28 6.28 0 0 0-1.34 2.67c0 .15.07.35.26.34 1.16-.08 1.88-1.09 2.71-1.82a28.18 28.18 0 0 1 2.35-1.71c.33-.22.64-.49 1-.74-.79 1.13-1.72 2.2-2.46 3.34a38.31 38.31 0 0 0-3 5.22c-1.35 2.22-2.67 4.46-4.11 6.62-.05.08 0 .12.1.06a42.42 42.42 0 0 0 3.51-3.58 2.77 2.77 0 0 0 .52.92 2.23 2.23 0 0 0 .7.48c-.36.42-.71.83-1.08 1.24s-.89 1.08-1.3 1.64c-.23.31-.46.63-.68.95l-.29.49c-.26.21-.34.42-.24.65-.25.11-.24.13-.33.41s.11.27.25.16c1.46-1.17 2.95-2.31 4.4-3.48-1 1.33-2 2.69-2.92 4.13-.13.19.06.33.24.21l.11-.07c.87-.57 1.73-1.19 2.56-1.85a12.31 12.31 0 0 0 .12 4.32 38.25 38.25 0 0 0-5 7c-.08.14.07.22.17.11a31.26 31.26 0 0 1 3.16-2.7l1.81-1.62a9.74 9.74 0 0 1-.51 1.75l-.09.1c-1.5 1.54-2.33 3.69-4 5.07-.06 0-.07.21 0 .15a10.12 10.12 0 0 0 2.59-2c-.59 1.46-1.08 3-1.64 4.43-.64 1.7-2.08 3.55-2.14 5.39 0 .36.19.52.53.49.66-.05 1-.45 1.64-.73a8.39 8.39 0 0 1 2.21-.57s.7-.15.63-.07c-.59.65-2 2.07-1.6 3.08-.87 0-1.74 0-2.61.07a64.08 64.08 0 0 0-10.73 0c-3.18.34-6.19 1.62-9.41 1.68-2.87.06-5.69-1.3-8.52-1.06-1 .1-2.1.16-3.14.23-.25-.58-.45-1.21-.62-1.72a37.47 37.47 0 0 0-1.76-3.75c-1.17-2.52-2.24-5.1-3.45-7.61s-2.47-5.06-3.61-7.63c-1-2.27-1.43-4.79-3.15-6.66l-.11-.11A15.17 15.17 0 0 0 95.83 46q-.73-.77-1.5-1.5c-1.71-1.63-3.11-3.52-4.68-5.28-.06-1.69-.2-3.36-.43-5.11 0-.38-.09-.76-.13-1.14a5.94 5.94 0 0 0 1.16-2.74c.45-1.62 1-3.23 1.52-4.84a25.39 25.39 0 0 1-.13 3 18.4 18.4 0 0 0 .15 3.4c.32 1.95 2.61 2.46 4 3.44a60.31 60.31 0 0 1 5.75 5.22c.89.81 1.8 1.62 2.67 2.46a7.62 7.62 0 0 1 1.21 1.33c.27.42.3.92.56 1.34a.41.41 0 0 0 .24.18s0 .1 0 .15a.39.39 0 0 0 0 .17.49.49 0 0 0 .1.53c-.09.32-.19.65-.28 1-.3.86-.55 1.71-.79 2.53-.41 1.45-1.67 4.89 0 5.87l.65.41a6.75 6.75 0 0 1-.8.51c-.1.06-.12.25 0 .19a6.08 6.08 0 0 0 1.06-.51 13.74 13.74 0 0 1 5 6c-.16 2.37 0 4.72-.22 7.09 0 .12.12.06.15 0a18.81 18.81 0 0 0 .7-3.51c.09-.53.2-1.06.32-1.58l.18.34c.09 1.56.25 3.13.42 4.68.14 1.35-.09 3.71.75 4.83.1.14.32-.12.27-.25a6.2 6.2 0 0 1 .12-2.42l.24-2.29c.08.28.16.57.23.86.35 1.27.52 3 1.22 4.14.2.33.65 0 .68-.31a4.21 4.21 0 0 0-.1-1.32c0-.72-.08-1.45-.13-2.17.17.77.36 1.53.55 2.29s1 0 .93-.42c-.46-6.62-1.69-13.14-2.58-19.7a120.38 120.38 0 0 1-1-12.29 27 27 0 0 1 1.93-9.58 63.31 63.31 0 0 1 3.58-7.07.38.38 0 0 0 .22 0c.6-.09 2.36-1.45 3.2-1.66-.47.6-1 1.15-1.46 1.77a.37.37 0 0 0 .2.61c.39 0-.65 1-.86 1.29a8.16 8.16 0 0 0-1.4 1.75c-.13.25-.15.57.2.63 1.19.17 2.25-.68 3.39-.82-.25.25-.57.42-.83.7-.43.45-.76 1.09-1.15 1.59-.2.26-.4.9.14.92a2.68 2.68 0 0 0 1.59-.46c.27-.16.64-.42.84-.07a10.62 10.62 0 0 1 .74 2.16c.54 2.54 1.62 5 2.37 7.54a50.94 50.94 0 0 1 1.22 7.38c.14 1 .26 2.09.42 3.12s-.07 1.62.59 2.34a.17.17 0 0 0 .12.06v.29l-.32.46c-1.42 2-2.28 4.34-3.86 6.23-.12.15 0 .36.17.23a22.94 22.94 0 0 0 3.7-3.87c-.06.32-.13.64-.19 1 0 .1 0 .2-.07.3l-.28.42a62.33 62.33 0 0 0-3.24 5.67c-.32.61-1.31 2.11-.95 2.79.06.11.24 0 .22-.13-.12-.47.63-1.22.88-1.58.68-.93 1.39-1.83 2.13-2.72q1.44-1.76 2.92-3.5a10.94 10.94 0 0 0 .83-.84c.36-.4.77-.74 1.15-1.11.78-.76.36-.46 0 .3-.48 1-.9 2.12-1.46 3.08a2.62 2.62 0 0 0-.52 1.24c0 .26.18.35.41.27s1.75-.92 1.67-.7a5.77 5.77 0 0 0-.21 2.48c.12 1.21.88 2.34 1 3.58a3.54 3.54 0 0 1 0 .65 24.85 24.85 0 0 0-2.41 1.57 22.41 22.41 0 0 0-3.9 3.08c-.1.11 0 .27.13.17 1.31-.93 2.77-1.66 4.12-2.53.67-.44 1.47-.85 2.17-1.35a.51.51 0 0 0 .15.21 26.69 26.69 0 0 0-.81 6c0 .23.29.11.3-.06.49-4.67 2.44-9 3-13.63.61-5 2.38-9.7 3.88-14.5 1.41-4.5 4.16-8 6.86-11.78a134.83 134.83 0 0 1 8.46-11.14 6.82 6.82 0 0 0 1-1.53h.13a14.89 14.89 0 0 1-2.51 4.17ZM183 77.26a.16.16 0 0 0-.16-.17 87.71 87.71 0 0 0-20.8-.84 13.08 13.08 0 0 0 .7-3.41.23.23 0 0 0 .08-.12 69.78 69.78 0 0 0 1.84-26.1 59 59 0 0 0-3.29-12.86c-.66-1.9-1-3.91-1.66-5.82a30.27 30.27 0 0 0-1.35-3.1c-.29-1.05-.58-2.09-.9-3.13a1.09 1.09 0 0 0-1.83-.61c-.62.45-1.09 1.22-1.68 1.74-.78.69-1.49 1.38-2.2 2.13a54.61 54.61 0 0 0-5 5.61c-.82 1.15-1.61 2.32-2.42 3.47a11.83 11.83 0 0 0-2.56 1.5c-1.18.78-2.38 1.52-3.58 2.27a26.91 26.91 0 0 0-1.84-4.71c.18-.15.36-.44.2-.57a30.39 30.39 0 0 1 3.76-5c1.61-1.87 3.14-3.78 4.69-5.71 1.75-2.19 3.6-4.29 5.49-6.37a1.17 1.17 0 0 0-.19.55c0 .09 0 .19.14.19a1.52 1.52 0 0 0 1-.4 21.56 21.56 0 0 1 4.29-2.43 14.18 14.18 0 0 1 1.58-.58v.05a18.58 18.58 0 0 1-3.76 2.72s-.1.14 0 .14a4 4 0 0 0 1.84-.87 23.63 23.63 0 0 0-2.15 1.81c-.2.2-.23.8.2.66.91-.29 1.79-.64 2.66-1a6.41 6.41 0 0 1 2.27-.55c1.15 0 .89 1.4 1 2 .43 2.29 2 2.81 4 3.57a4.41 4.41 0 0 1 .59.26 28.49 28.49 0 0 0-1.78 2.23c-.15.21.08.37.27.25.83-.56 1.72-1.07 2.59-1.59a1.64 1.64 0 0 1 .26.57 4.63 4.63 0 0 1-.18 1.88c-.06.27-.11.53-.15.79a16.82 16.82 0 0 1-2.82 3.05c-.08.07-.08.25 0 .18a21.61 21.61 0 0 0 2.65-1.56v.29c.16 1.84 3.09 1.51 4.52 1.81-1.52 1.82-2.73 3.92-4.35 5.64-.11.12 0 .23.14.13a42.4 42.4 0 0 1 3.44-2.49c.2-.15.4-.31.59-.48-.6 1.06-1.34 2.07-2 3.07-.82 1.24-2.72 3.28-2.12 4.92.5 1.33 3.38-.5 3.89-.84 1.8-1.21 3.7-2.28 5.52-3.46a6.8 6.8 0 0 0-.17.92c-.23.28-.43.54-.61.75-1.5 1.79-3 3.62-4.37 5.5-.14.19 0 .48.26.35a23.6 23.6 0 0 0 4.58-3.32 5.57 5.57 0 0 0 .77 3.24c.46.67 1.26 1 1.73 1.69a11.06 11.06 0 0 1 1.16 2.9c.65 2 1.34 4.07 2.09 6.08.85 2.3 2.37 5.1 1.13 7.47-.92 1.76-2.23 3.38-3.24 5.11-.59 1-1.61 2.52-1.51 3.72a.35.35 0 0 0 .43.28 5.39 5.39 0 0 0 2.19-1.66c.67-.61 1.3-1.24 2-1.82.24-.2.51-.58.8-.88a8.89 8.89 0 0 0 .53 3.43c.7 2 1.25 4 1.76 6.06a.31.31 0 0 0 .43.23v1.11Zm5.78-.68c-1.32.18-2.63.35-3.94.5a279.25 279.25 0 0 0-1.65-35.17c-.34-2.87-1-5.7-1.34-8.58-.21-1.78-.58-3.52-.94-5.26.16.31.33.63.51.94 1.36 2.35 2.82 4.63 4.17 7a61.18 61.18 0 0 1 3.49 7.64 17.06 17.06 0 0 1 .87 3.08c-1.26 1-2.44 2.05-3.55 3-.06 0 0 .14 0 .09 1-.73 2.1-1.41 3.18-2.08l.47-.28c0 .22.07.44.11.66l-1.1 1.15c-1.1 1.16-2 2.48-3.09 3.64-.06.07 0 .22.08.16a20 20 0 0 0 2.95-2.62c.42-.38.92-.76 1.43-1.14a2.38 2.38 0 0 0 .05.26c-.87 3.89-.46 8.12-.33 12 .18 4.91.63 9.75 1 14.64v.1c-.77.09-1.57.16-2.38.27Zm16.15-.13c-1.4 0-2.79.15-4.19.31.15-.13.25-.41 0-.41-3 .05-5.94-.15-8.91 0A.53.53 0 0 0 192 76c.26-4-.16-8.14-.17-12.19 0-3.88-.15-7.76-.26-11.63V52a.43.43 0 0 0 0-.11v-.5a18.22 18.22 0 0 1 .45-3.43 5.57 5.57 0 0 0 1.14-1.45c.13-.25 0-.58-.32-.43l-.41.22c.59-2.16 1.36-4.29 1.88-6.42.15-.61.32-1.21.51-1.82a4.64 4.64 0 0 0 1.94-.73.91.91 0 0 1 .52-.13c-.37.57-.72 1.16-1.07 1.72a10.85 10.85 0 0 0-1.74 3.42c0 .19.19.25.35.09.63-.63 1.22-1.3 1.81-2a.28.28 0 0 0 .28.26c.34 0 1-.27.9.31s-.17 1.25-.23 1.88l-.16.07c-.12 0-.18.3 0 .27h.14c0 .43-.06.85-.08 1.28a13.73 13.73 0 0 0 .06 2 3 3 0 0 1-1 .69c-.12 0-.17.28 0 .25a2.8 2.8 0 0 0 1.09-.46c.11.82.28 1.63.47 2.44a37.83 37.83 0 0 0-3.51 4.46c-.09.15.05.27.18.17 1.25-.92 2.61-1.82 3.8-2.86l.14.47a25.69 25.69 0 0 0-1.61 2.26c-.26.39-1.14 2.27-1.63 2.36-.16 0-.3.24-.23.37a.1.1 0 0 0 .1.07c1 .19 3-2.36 3.62-3 .07-.08.16-.15.24-.23a9.34 9.34 0 0 0 .62 1.8 17.76 17.76 0 0 1 1.47 4.26q.57 2.55 1.05 5.11a22.77 22.77 0 0 0-2.54 5.08c-.1.18.08.39.29.23a28.73 28.73 0 0 0 4.91-5.19c.52-.67 1.29-1.46 2-2.32 0 .15.08.29.11.44a17.55 17.55 0 0 0-1.17 1.38c-.5.61-1 1.18-1.53 1.8a4.13 4.13 0 0 0-.84 1.17c0 .09 0 .16.12.12s.16-.11.22-.28a.39.39 0 0 0 .37-.14c.22-.15.5-.47.69-.63.51-.41 1.06-.77 1.57-1.21l.92-.78a7.25 7.25 0 0 0 .44 1.26 1.2 1.2 0 0 1 .12.66c-.92.74-1.84 1.48-2.72 2.26a50.64 50.64 0 0 0-3.79 3.68c-.65.71-1.65 1.54-1.83 2.53 0 .19.21.08.25 0 .1 0 .15-.24 0-.22a.22.22 0 0 0-.14.06c.36-.39 1.13-.94 1.64-1.38.92-.81 1.87-1.59 2.83-2.36a.31.31 0 0 0 .49.18 11.23 11.23 0 0 1 1.78-.79c-.46.48-.89 1-1.3 1.5a8.11 8.11 0 0 0-1.82 2.42c-.18.43.29.6.6.38A17.9 17.9 0 0 1 209 72.1c.39-.1 1.63-.65.92.05a2 2 0 0 0-.65 1c0 1 .3.79 1.06 1.29A5.93 5.93 0 0 1 212 76.7c-2.37-.03-4.72-.32-7.08-.25Z" data-color="1"/>
            <path fill="#e06230" d="M231.24 78.9c-4 .44-8.15.14-12.21.35s-7.89.31-11.86.76-7.72.18-11.6.49c-4.57.36-9.14.71-13.71 1-.28 0-.49.48-.18.5 4.28.26 8.56.17 12.84 0 2-.07 4 0 6 0a25.74 25.74 0 0 0 5.15-.91A86.78 86.78 0 0 1 218.75 80c2.07-.1 4.12-.22 6.19-.17a23.63 23.63 0 0 0 6.23-.4c.28-.05.47-.58.07-.53Z" data-color="1"/>
            <path fill="#e06230" d="M179.67 80c-6.32-.22-12.64-.87-19-1.09-2.84-.11-5.68.41-8.54.17-3-.25-6.22.9-9.19.22-.06 0-.13.08-.07.11a11.61 11.61 0 0 0 4 .88c-2.82.06-5.63.26-8.45.36-3.17.1-6.31-.12-9.46-.33l.57-.1c3.91-.64 7.82-.89 11.77-1.23.25 0 .49-.54.14-.58-3.77-.33-7.6-.38-11.38-.37a47.68 47.68 0 0 0-5.34.32c-2 .23-4 1-6 1.06-1.58.06-3.08-.14-4.69 0-1.89.21-3.77.38-5.67.53s-3.9.3-5.84.51a18 18 0 0 0-2.44.41c-.39.1-.78.21-1.16.34s-.73.66-.25.09c.06-.07 0-.18-.08-.11l-.28.23c-.07.06-.12.23 0 .21a48.54 48.54 0 0 1 8.69 0c-.08.1-.11.24 0 .28a36.66 36.66 0 0 0 9.67 2c3.33.17 6.22-.79 9.45-1.37 7.6-1.35 15.48-1 23.16-1.93a.37.37 0 0 0 .25-.34h1c2.82.14 5.48.67 8.31.11 3.2-.62 6.74-.39 10-.48 3.56-.11 7.08.2 10.64.18.23.13.37-.08.19-.08Z" data-color="1"/>
            <path fill="#e06230" d="M97.72 82.82c-1.35-.07-2.71 0-4.06-.11a38.67 38.67 0 0 1-4.12-.87 25 25 0 0 0-4 .08h-5a159 159 0 0 0-18.89 1.46c-.15 0-.24.31 0 .29h.5a.15.15 0 0 0 .11-.07c.32.13.89.28.8.28l2.17.13c1.68.09 3.37.14 5.06.16h9.48c6 0 11.9-.47 17.86-.92.18.02.37-.41.09-.43Z" data-color="1"/>
            <path fill="#e06230" d="M48.27 84.39c-6.12.14-12.23.5-18.36.55-3.29 0-6.54.63-9.82.65-1.24 0-2.47 0-3.71.1-.46 0-.8.36-.74-.06 0-.09-.1 0-.12 0l-.22.16c-.07 0-.15.2 0 .22 2 .25 4.43.92 6.43.76a76.58 76.58 0 0 1 9.7.07c5.65.21 11.2-1.14 16.76-2 .15-.05.34-.45.08-.45Z" data-color="1"/>
            <path fill="#e06230" d="M191.51 82.68c-4.51-.11-9-.2-13.54-.4-4.33-.19-8.76.43-13.07-.18a58.83 58.83 0 0 0-13.51-.78c-2.45.23-4.91.38-7.37.59s-5 1-7.49 1.22c0 0-.09.11 0 .11 2.16.11 4.33-.15 6.5-.15 2.41 0 4.82.07 7.23 0A71 71 0 0 1 164 84.71c4.27.8 8.84-.9 13.07-1.33 4.75-.49 9.63-.35 14.41-.47.06 0 .18-.22.03-.23Z" data-color="1"/>
        </g>
    </g>
</svg>
