<?xml version="1.0" encoding="UTF-8"?>
<svg data-bbox="0.012 -0.009 111.486 91.629" viewBox="0 0 111.5 91.62" xmlns="http://www.w3.org/2000/svg" data-type="color">
    <g>
        <g>
            <path fill="#e06230" d="M70.67 77.62c-1.24 1.57-2.64 3-3.87 4.58-.22.29 0 .57.32.3a29.11 29.11 0 0 0 3.68-4.8c.06-.1-.06-.16-.13-.08Z" data-color="1"/>
            <path fill="#e06230" d="M103.4 82.43c-4.57.11-9.14.51-13.71.59a18.77 18.77 0 0 1-2.5-.13 5.91 5.91 0 0 0 .22-1.89c0-.32.07-.64.09-1a9.44 9.44 0 0 0 2-.15c1-.1 1.94-.26 2.92-.4.08 0 .15-.16 0-.17-.81-.08-1.63-.07-2.45-.09a10.59 10.59 0 0 0-2.45.1v-3.27q.25-5.84.55-11.66a77.93 77.93 0 0 0 .28-9.16 16.84 16.84 0 0 0-1.29-5.12c-.54-4-2.17-7.86-3.47-11.63-1.69-5-3.24-10-4.94-14.9-.83-2.42-1.68-4.86-2.71-7.2a20.29 20.29 0 0 1-1.54-3.63c0-.16-.23-1.45-.48-1.6a55.69 55.69 0 0 0-5.09-2.48c-2.21-1.1-4.52-1.92-6.82-2.8C57.93 4.29 54 2.23 49.62 1.33a41.87 41.87 0 0 0-7.41-.78A18.78 18.78 0 0 1 38.34 0a1.36 1.36 0 0 0-1.05.33c-1.46 1.06-2.36 3.2-3.25 4.7-1.19 2-2.26 4.1-3.27 6.21s-1.86 4.31-2.77 6.48c-.4 1-.93 2.1-1.29 3.23-.16.21-.32.42-.46.64a1.65 1.65 0 0 0-.21.83c-.51 0-1 .07-1.55.13-1.56.15-3.08.37-4.65.38a2.51 2.51 0 0 0-2 .78 8 8 0 0 0-1.3 2.29A36.73 36.73 0 0 0 13 32.51c-1.47 3.45-3.38 7.8-2.9 11.7a.89.89 0 0 0 .14.78 7.75 7.75 0 0 0 .48 1.53c.72 1.92 1.92 3.68 2.61 5.59.48 1.34 1 2.65 1.59 4a.25.25 0 0 0 .08.18c.35.78.7 1.57 1.07 2.36s.84 2 1.39 3c-3 5.06-4.2 11.09-4.72 16.86 0 .1 0 .15.07.17-.07.38-.13.76-.19 1.14 0 .16-.07.34-.1.52-.19-.13-.39-.08-.64-.05s-.7 0-1.09 0a6.1 6.1 0 0 0-2.15.71l-.14.07c-.1 0-.17.2-.06.24a5.48 5.48 0 0 0 1.81 0c.33 0 .59.2.91.16a3 3 0 0 0 1.15-.31 12.09 12.09 0 0 0-.25 2c-.22.06-.43.11-.64.18a17 17 0 0 1-3.56 1.16c-.07 0-.16.14-.06.16 1.7.36 3.76-.33 5.52-.26 2.42.11 4.54 1 6.88 1.33 2.11.28 4.25-.21 6.38-.07a41.44 41.44 0 0 0 6 0c.6 0 1.21-.14 1.8-.23a.22.22 0 0 0 .24 0c.87-.15 1.73-.33 2.58-.49l.06.17c.12.29.48-.06.51-.27.29 0 .59-.11.89-.15 2.28-.34 4.16 1.63 6.43 1.76h.4c1.22-.35 2.38-.88 3.59-1.23a.8.8 0 0 0 .86-.13l.11-.07a15 15 0 0 1 3.13.11c1.34.12 2.7 0 4 .17.54 0 1.08.14 1.61.22H59a.6.6 0 0 0 .37-.23 13.07 13.07 0 0 1 1.82.31c.88-.11 1.75-.3 2.61-.47a1.4 1.4 0 0 1 .57-.1l.33-.07c2-.3 4-.28 5.92-.39a7.49 7.49 0 0 1 2.12-.2h.13a33.36 33.36 0 0 1 4-.45c1.39 0 2.77.13 4.16.22a36.51 36.51 0 0 0 9-.4c2.74-.46 5.51-.64 8.28-.83 1.28-.09 2.56-.17 3.83-.31a8 8 0 0 1 1.34-.11ZM73.34 13v.24c-.34 1.59-1.06 3.24-1.46 4.73a14.44 14.44 0 0 0-.61 3.63 3.22 3.22 0 0 0-.37-.6c.62-2.73 1.83-5.3 2.44-8ZM34 84.93a29.09 29.09 0 0 1-12.12-1.29c.1-.28.23-.53.33-.81s-.13-.13-.19 0-.2.24-.31.37a2.57 2.57 0 0 1-.28.37l-.77-.26-.39-.12c.32-.54.67-1.06 1-1.57a13.42 13.42 0 0 0 1.37-1.83c.05-.12-.11-.1-.16 0a15.56 15.56 0 0 1-2 1.72c-.5.46-1 1-1.42 1.45h-.18c.69-1 1.36-1.91 2-2.85a37.42 37.42 0 0 0 2.84-3.94s0 0 0-.06 0 0-.06 0a13 13 0 0 0-2.67 2.67c-.89.95-1.8 1.91-2.68 2.88.45-.66.88-1.33 1.33-2 1.23-1.79 2.62-3.48 3.86-5.26.09-.12-.07-.19-.16-.1-1.43 1.47-3.11 2.7-4.55 4.16-.32.32-.64.65-1 1a11 11 0 0 1 .7-1.07c.61-.8 1.17-1.63 1.75-2.45a11.32 11.32 0 0 0 1.47-2.12c0-.09-.08-.08-.12 0a17.45 17.45 0 0 1-2.63 2.67c-.52.54-1.06 1.05-1.58 1.59a25.2 25.2 0 0 1 1.35-2.44c1.07-1.65 2.5-3.14 3.45-4.85.06-.11-.06-.17-.14-.08-1.46 1.67-3 3.19-4.42 4.95q-.19.24-.39.51c1.45-2.67 3.58-5 5.16-7.55a.06.06 0 1 0-.1-.07c-1.29 1.6-2.75 3-4 4.63.2-.44.4-.88.61-1.32 1.42-1.9 2.82-3.82 4.28-5.7a16.39 16.39 0 0 1 3.63 2.85A22.71 22.71 0 0 1 28.77 71c.66.82 1.48 1.49 2.09 2.34 1.28 1.8 1.59 4.08 2 6.19.39 1.79.78 3.62 1.28 5.38ZM21.11 67.85c.2-.28.39-.55.58-.84l.92-1.29a5.49 5.49 0 0 1 .51.21c-.68.61-1.36 1.25-2.01 1.92Zm19.69 16.2c-1 .09-2 .22-3 .36-.14-2.48-.43-4.94-.74-7.41-.1-.83-.18-1.66-.25-2.49a47.13 47.13 0 0 1-1.36-4.63c-1.59-1.19-3.19-2.37-4.83-3.49-1.94-1.32-4-2.46-6-3.72-1.45.08-2.17 1.63-3.05 2.62a28.61 28.61 0 0 0-3.84 5.78A32.85 32.85 0 0 0 16 75.39l-.06.18c-.23.68-.46 1.37-.71 2a20 20 0 0 0-1.28 5.28 13.18 13.18 0 0 0-1.4.23c.54-2.6 2.15-9.42 2.4-10.18a66.85 66.85 0 0 1 3.54-8.34c.57-.87 1.16-1.72 1.75-2.58 1.57-2.27 3.21-4.52 4.84-6.74.78-1.06 1.4-2.23 2.16-3.3a10.12 10.12 0 0 1 .95-1.45c.94.69 1.7 1.81 2.51 2.51 1.49 1.29 2.93 2.61 4.44 3.87 1.13.93 2.33 1.89 3.36 2.93.65.64.62 2.15.77 3s.38 1.87.54 2.82c.58 3.56 1.23 7.19 1.49 10.79.15 2.59-.48 5.11-.5 7.64Zm19 .55-.72.14-2.72-.19a10.75 10.75 0 0 1-2-.43 1 1 0 0 0 .4-.3c.16-.17.29-.38.46-.54s.13-.24 0-.32-.24 0-.31.06a4.58 4.58 0 0 0-.34.43 2.73 2.73 0 0 1-.23.25h-.07s-.16.14-.08.08-.13.16-.07.23l-.54-.13a59.12 59.12 0 0 0 4.17-4.37c.09-.1 0-.26-.12-.16-1.65 1.34-3.61 2.52-5.16 4V83a17 17 0 0 0 2.19-2.28c1.59-1.55 3.42-2.83 5-4.35.07-.06 0-.17-.08-.1-1.1.87-2.22 1.68-3.33 2.5.54-.5 1.07-1 1.59-1.52.13-.13 0-.35-.16-.21A51.37 51.37 0 0 1 53 80.5h-.06l.75-.74c1.67-1.61 3.17-3.34 4.73-5.06.07-.08 0-.15-.09-.08a26.07 26.07 0 0 1-3.56 2.86 44.1 44.1 0 0 1 3.33-3.37c.17-.14.09-.43-.13-.27-1.83 1.31-3.69 2.63-5.42 4.07l-.23.2c-.15-1.17-.29-2.34-.44-3.51s-.21-2.15-.32-3.23A66.08 66.08 0 0 0 48.72 62c-.73-2-2-4.4-1.89-6.48a1.5 1.5 0 0 0-.28-1 .21.21 0 0 0-.17-.21 6.24 6.24 0 0 0-1.79-1.08 53 53 0 0 0-11.36-4.46c-1.15-.28-3.37-1.38-4.58-1.09-1.41.34-2.12 1.58-3 2.69-.52.68-1 1.38-1.53 2.08a42.69 42.69 0 0 0-4.12 5.3 5.5 5.5 0 0 1 .28-.6c.29-.52.58-1 .89-1.57.14-.23.27-.48.39-.73l.27-.47v-.08h.07c.15-.08.1-.31-.05-.2a9 9 0 0 0-.82.68c.49-.67 1-1.35 1.43-2a12 12 0 0 0 1.08-1.41c0-.06-.05-.07-.09 0A12.19 12.19 0 0 1 22 52.45c-.64.61-1.28 1.2-1.9 1.83-.28.29-.59.58-.9.88a2.23 2.23 0 0 1 .2-.3c1.29-1.83 3-3.37 4.2-5.25.05-.08-.05-.12-.1-.06-1.73 1.85-3.79 3.39-5.62 5.17.13-.22.24-.44.36-.63.53-.88 1.17-1.68 1.75-2.52s1.22-1.66 1.88-2.44A5.86 5.86 0 0 0 23 47.88c0-.08-.08-.07-.11 0a13.3 13.3 0 0 1-2 1.6 22.12 22.12 0 0 0-1.87 2c-.16.19-.33.37-.5.56a20.5 20.5 0 0 1-1.94 1.55c1-1.73 2.5-3.18 3.59-4.85.24-.22.47-.45.7-.68s0-.38-.18-.23l-.34.28a.19.19 0 0 0-.24 0c-1.55.8-2.62 2.38-4.05 3.31a20 20 0 0 1 1.15-1.76c.54-.87 1-1.76 1.59-2.6s1.22-1.69 1.85-2.52a8.35 8.35 0 0 0 1.4-1.85l.39-.51c.2-.28-.1-.48-.35-.32-2.59 1.62-4.73 4.08-6.92 6.18-.38.37-.76.74-1.15 1.09s-.3.27 0-.09.5-.84.8-1.25c.85-1.18 1.69-2.44 2.51-3.65a.3.3 0 0 0-.14-.47c.46-.59.92-1.19 1.41-1.77a9.35 9.35 0 0 1 2-2c.06 0 .12-.17 0-.16a1.58 1.58 0 0 0-1 .53c-1 .89-2.07 1.64-3.07 2.5l-.42.38-.27.21c1-1.19 2.13-2.21 3-3.43.17-.24 0-.57-.32-.42-2.39 1.25-4.2 3.55-6.42 5.1 0-.08.08-.16.12-.24a32.71 32.71 0 0 0 3.11-3.73c1.67-2 3.25-4.13 4.83-6.2.15-.2 0-.38-.22-.2-1 1-2.12 2-3.21 3a.31.31 0 0 0-.38-.11l-.29.13 2.11-2.34a20.76 20.76 0 0 1 3.16-3.45s0-.16 0-.11c-2.1 1.1-3.82 3.26-5.57 4.83l-.09.08c1.51-1.8 3.2-3.45 4.73-5.23.2-.24.13-.5-.08-.53.54-.6 1.07-1.2 1.62-1.8.05-.05 0-.14-.06-.08-1.81 1.4-3.68 2.73-5.5 4.12.06-.15.13-.29.19-.44 1.3-1.32 2.89-2.44 3.79-4.07 0-.07 0-.12-.09-.06a15.15 15.15 0 0 1-3 2.47c.34-.85.67-1.7 1-2.54s.79-1.74 1.13-2.63a1.27 1.27 0 0 1 .91-.77 25.49 25.49 0 0 1 4.18 2.09c3.06 1.62 6.18 3.1 9.28 4.66 2.44 1.23 5.29 2.27 7.59 3.85-1.31 1.11-2.58 2.26-3.82 3.42-.07.07 0 .19.09.12 1.39-1.09 2.81-2.13 4.22-3.18l.41.32a4.76 4.76 0 0 1 1 1.2q-1.61 1.47-3.12 3.08c-.09.09 0 .18.11.1 1.05-1 2.14-1.87 3.25-2.76.48.88.89 1.86 1.31 2.56a39.05 39.05 0 0 1 2.27 4.86c2.14 4.81 4.12 9.72 6.33 14.5 2.58 4.77 5.33 9.44 7.48 14.39.5 1 1 2 1.38 3 0 .74-.08 1.48-.13 2.23-.06 1 0 2 0 3a9.47 9.47 0 0 0 0 1.41 3 3 0 0 0 .23.55v.35a16.46 16.46 0 0 1-2.55.14Zm5-2.09v-.36a.74.74 0 0 0 .21-.07c-.01.14-.14.28-.22.43Zm12.94-19.65c-.32 2.26-.81 4.5-1.19 6.74s-.53 4.62-.84 6.93c-.23 1.72-.86 3.68-.24 5.38a7.5 7.5 0 0 0-.38 1.09c-1 .2-2 .07-2.91.25a16.24 16.24 0 0 1-2.7-.07 15.47 15.47 0 0 1-3.47-.1 2.89 2.89 0 0 0-.5-.08c1.21-1.3 2.22-2.82 3.36-4.18 1-1.2 2.1-2.37 3-3.66.09-.13-.08-.22-.17-.11a43.37 43.37 0 0 1-3.7 3.73c.36-.48.71-.94 1.09-1.37.78-.9 1.5-1.84 2.24-2.77a12.8 12.8 0 0 0 1.58-2c.08-.14-.09-.18-.16-.07a18 18 0 0 1-2.23 2.13c-.71.67-1.4 1.36-2.11 2-1.16 1.1-2.16 2.36-3.25 3.53.1-.61.2-1.21.31-1.81 1.26-1.37 2.37-2.87 3.65-4.21l.64-.67c.89-.77 1.79-1.53 2.69-2.29.07-.06 0-.18-.05-.11l-1.19.86c1.17-1.24 2.33-2.5 3.44-3.8.07-.08 0-.16-.09-.09-2.13 2-4.39 3.8-6.61 5.68-.71.6-1.37 1.28-2 2 .09-.47.17-.94.25-1.41a13.41 13.41 0 0 0 3-3.12l.69-.66c1.73-1.71 3.57-3.33 5.21-5.12.08-.08 0-.22-.1-.13-.87.76-1.75 1.55-2.62 2.34a22.4 22.4 0 0 0 3.31-3.81s0-.07-.06 0c-1.73 2.11-4.31 3.69-6.35 5.51A31.16 31.16 0 0 0 66.55 72a43.91 43.91 0 0 0 .52-5.51q-.24-3.18-.47-6.37c-.14-1.95-.23-3.93-.34-5.91V54a46.8 46.8 0 0 0-.68-6.71c.46-.46.92-.91 1.4-1.33 1.52-1.32 3.78-2.9 4.69-4.71.07-.14-.08-.17-.16-.07A13.8 13.8 0 0 1 69 43.31c-1.13.9-2.3 1.75-3.45 2.64l-.29.24c-.06-.23-.12-.45-.19-.68s-.11-.31-.17-.46c1.07-1 2.16-1.92 3.15-3 .1-.12 0-.32-.15-.19-1 .91-2.17 1.69-3.23 2.58-.11-.29-.22-.58-.34-.86l.45-.44c1-1.06 2.07-2.12 3.06-3.22A10.2 10.2 0 0 0 70 37.15c.06-.15-.15-.15-.21 0C68.56 39.31 66 41 64 42.64c-.06-.11-.11-.23-.16-.34a36.65 36.65 0 0 0-2.26-3.95c-.45-.71-.93-1.42-1.41-2.11-.9-1.3-1.76-2.67-2.66-4 2-1.9 3.9-3.83 5.93-5.66.06-.05 0-.14-.06-.09-2.22 1.57-4.38 3.21-6.48 4.88-.52-.77-1.06-1.53-1.62-2.26 1-.92 1.92-1.84 2.9-2.75a26.93 26.93 0 0 0 3.88-3.74c.06-.09-.05-.14-.12-.07a32.88 32.88 0 0 1-4.77 3.56c-.9.65-1.78 1.35-2.65 2A23.05 23.05 0 0 0 52 25.52c-.05-.06-.1-.13-.16-.19 2-1.79 3.92-3.81 6-5.42.08-.06 0-.17 0-.11-1.76 1.11-3.42 2.45-5.09 3.69-.52.39-1.07.76-1.62 1.15a1.61 1.61 0 0 0-.64-.32 76.78 76.78 0 0 0-13-1.89c1-1 2-2.05 3-3 .08-.08 0-.21-.1-.13-1.36 1.07-2.88 1.93-4.17 3.09h-.59A48.17 48.17 0 0 1 40.44 17c.11-.11 0-.28-.13-.18-1.87 1.51-3.76 3-5.6 4.54-.34.28-.74.58-1.15.89h-.06l1.15-1.35c1-1.14 2-2.24 2.9-3.38.57-.68 1.51-1.3 1.75-2.19 0-.13-.13-.11-.16 0-.42 1.2-2.32 2.26-3.29 3l-1.4 1.12 2-2.28c.91-1 1.49-2.26 2.31-3.34v-.06l-1.26 1-.54.37a15 15 0 0 1 1.95-2.1c.05 0 0-.14 0-.09a33.59 33.59 0 0 0-3.31 2.64c-1 .76-2 1.49-3 2.26a62 62 0 0 1 4.75-5.61c.08-.07 0-.17-.08-.12a41.85 41.85 0 0 0-5.89 4.55l-.28.24c.2-.44.4-.87.62-1.3a1.17 1.17 0 0 1 .05-.11c1-1.26 2-2.48 3-3.7 1.56-2 3.16-4 4.88-5.84.08-.09 0-.17-.1-.09-2.09 2-4.16 3.93-6.08 6.06l.33-.72c.48-.67 1-1.32 1.45-2 1.39-2 2.94-4 4.28-6v-.07h-.12s-.06.06 0 .07c-.44-.08-1.67 1.56-2 1.85L35.93 6.6c.32-.66.64-1.32.93-2 .41-.91.68-2 1.16-2.95a2.78 2.78 0 0 1 1.15.07c.54.28 1.14.54 1.48.69a34.44 34.44 0 0 1 5 2.75 17.47 17.47 0 0 0-2.75 1.95c-1.3 1.11-3 2.67-4.75 3 0 0-.09.11 0 .1 1.47-.15 2.86-1.21 4-2 .93-.64 1.79-1.35 2.74-2a10.82 10.82 0 0 0 1.23-.75l.55.37h.06a8.16 8.16 0 0 0-1.27 1c-1.1.93-2.42 1.61-3.6 2.45-.06 0 0 .15.05.1a44.78 44.78 0 0 0 5.38-3.19c2.21 1.47 4.55 2.66 6.84 4A19.79 19.79 0 0 0 51 12.61c-1.71 1.3-3.39 2.67-5.12 3.95-.09.06 0 .19.06.12 3-1.88 5.89-4.12 8.93-6 .56.33 1.1.67 1.65 1-2.25.93-3.73 3.25-5.9 4.29-.09 0-.1.21 0 .16A17.6 17.6 0 0 0 53.77 14c1.06-.69 2.21-1.3 3.22-2l.27.18c3.41 2.32 6.64 4.86 10 7.23a11.25 11.25 0 0 1 2.22 2c-.8.58-1.59 1.17-2.38 1.78a11.19 11.19 0 0 1-2.32 1.88c-.08 0-.12.2 0 .17a7.1 7.1 0 0 0 2-1.23 28.41 28.41 0 0 0 3-2.2 6.75 6.75 0 0 1 .71 1.19 70.26 70.26 0 0 1-5.34 4.75c-.09.06 0 .2.07.14a35.71 35.71 0 0 0 5.48-4.33c0 .06 0 .13.07.2.7 2.31 1.61 4.55 2.3 6.87 1.5 5 2.61 10.14 3.61 15.27-1 1-1.86 2-2.8 3-.15.16 0 .32.19.17.9-.85 1.83-1.69 2.74-2.54.58 3 1.13 6.07 1.69 9.12a14.46 14.46 0 0 1 .22 2.94c-.26 1.41-.78 2.86-.98 4.27Z" data-color="1"/>
            <path fill="#e06230" d="M111.4 86.88c-3.73-.17-7.45 0-11.18-.13s-7.48.39-11.24.57c-1.58.07-3.18 0-4.76-.09-1.88-.06-3.77.15-5.65 0-3.61-.24-7.18.61-10.76.46-.13 0-.26.23-.1.26 3.17.56 6.49.22 9.69.74a36.36 36.36 0 0 0 10.6-.06 87 87 0 0 1 11.28-1.3c4 0 8 0 12-.14.16-.01.33-.3.12-.31Z" data-color="1"/>
            <path fill="#e06230" d="M100.05 84.32c-2.57 0-5.18.26-7.75.18-.06 0-.16.14-.07.16 2.34.53 5.27 1.1 7.62.45.29-.11.73-.79.2-.79Z" data-color="1"/>
            <path fill="#e06230" d="M27.51 89a23.63 23.63 0 0 1-5.87-.51c-2.28-.49-4.88.08-7.2.12-2.59.06-5.17-.24-7.76-.29a12.3 12.3 0 0 0-3.08.36 22.09 22.09 0 0 1-3.51 1c-.06 0-.14.12 0 .14 2 .25 4.19-.72 6.31-.57 2.52.18 5 .89 7.5 1a77.17 77.17 0 0 0 13.57-.88c.11.01.27-.37.04-.37Z" data-color="1"/>
            <path fill="#e06230" d="M60.76 89.67c-5.47-1.49-11.12-.93-16.71-.85a76.69 76.69 0 0 0-18.5 2.62c-.09 0-.15.19 0 .18 5.81-.72 11.8-.48 17.64-.39s11.49-.69 17.24-.83c.25 0 .76-.61.33-.73Z" data-color="1"/>
            <path fill="#e06230" d="M59.8 87.77c-2-.23-3.93.24-5.89.11-.11 0-.22.19-.08.22a21.77 21.77 0 0 0 5.87.1c.18-.02.37-.4.1-.43Z" data-color="1"/>
        </g>
    </g>
</svg>
