<?xml version="1.0" encoding="UTF-8"?>
<svg data-bbox="0 -0.002 392.593 343.512" viewBox="0 0 392.59 343.51" xmlns="http://www.w3.org/2000/svg" data-type="color">
    <g>
        <path d="M392.53 118.45c-1.48-3.16-2.42-6.64-6.5-8-5-1.69-9.63-4.25-14.54-6.12-4.57-1.74-9.2-3.88-14-4.4-6.33-.68-12.1-3-18.15-4.47-3.38-.82-3.54-1.57-1.72-4.53.59-1 1.35-1.81 2-2.73 3-4.4 6.18-8.73 9.05-13.23 3.05-4.79 5.39-10.11 8.91-14.5a12.63 12.63 0 0 0 3.05-8.3c.06-2.94-.44-3.67-3.26-3.53-1.89.09-4.5-.23-5.48.83-1.79 2-4.49-.15-4.72.68-.81 3-2.21 1.26-3.68 1.14a9.52 9.52 0 0 0-3.79 1.07c-2.28.89-4.5 2-6.81 2.8-9 3.24-18 6.4-27.25 9.68.82-4.54 1.78-9.25 2.49-14 1.51-10.09 2.85-20.2 4.33-30.3.32-2.24-.45-3.48-2.59-3.33-4.69.33-9.21 2.47-11.39 6-2.32 3.8-5.71 6.17-8.52 9.19-5.9 6.3-12.37 12.07-18.64 18-1.79 1.7-3.23 1.36-3.63-.89-1.49-8.31-2.69-16.67-4.35-24.94-1.34-6.66-1.76-13.64-5.92-19.57-2.45-3.48-6.08-3.79-8.55-.22-.88 1.26-1.15 3-2.21 4.06-7.74 7.51-13 16.73-18.46 25.88-2.14 3.63-4.4 7.18-7.15 11.64-1.49-2.33-2.63-3.87-3.52-5.55-1.51-2.88-2.19-6.59-4.43-8.63-4.25-3.87-5.28-9.18-7.79-13.8.3-.72.92-1.69.77-1.83-1.74-1.62-3.62-3.09-5.46-4.6 1.31-3-1.76-4.29-2.55-6.47a4.88 4.88 0 0 0-1.27-1.56c-4.29-4.29-7.75-4.12-10.66 1.19a153.86 153.86 0 0 0-8.08 17.43c-2.73 6.88-4.95 14-7.77 22.05a44.13 44.13 0 0 1-2.9-4.5c-1.19-2.61-2-5.42-3.29-8-3-5.84-6.8-11.39-9.57-17.24A42 42 0 0 0 146 3.39c-5.45-5.56-10.51-4.13-12.53 3.15-1.83 6.62-3.19 13.42-5.64 19.79-2.9 7.53-3.37 15.47-5.23 23.15-8.77-9-17.49-18-26.32-26.92A28.41 28.41 0 0 0 90 17.63c-4.61-2.55-7.37-1.39-7.85 3.65a58.4 58.4 0 0 0 .34 14.83c.86 5.23 3 10.25 4.39 15.4a54.63 54.63 0 0 1 1.64 7.78 5.75 5.75 0 0 1-.88 3.61c-.23.35-2.1 0-3-.53-9.91-5.2-20.42-9-30.76-13.17a31.13 31.13 0 0 0-8.41-2.2c-2.77-.28-4.28 1.3-4.23 4a12.82 12.82 0 0 0 1.23 5.08c2 4.18 4.3 8.18 6.27 12.35 4 8.51 7.94 17.07 11.91 25.65-3.85 0-7.66.12-11.46 0-4.55-.19-9.09-1-13.63-.9-5.12.06-10.24.71-15.36 1.17-6.22.55-12.44.85-17.57 5.4-3.16 2.8-3.64 3.53-.52 5.87 3.36 2.53 7.14 4.51 10.44 7.1 4.95 3.87 9.93 7.52 16.24 8.87a4.87 4.87 0 0 1 2.32 1.22c5.78 5.65 13.45 8.11 20.81 12.06-5.76 4.06-11.26 7.71-16.51 11.69-6.65 5-14 9.29-18.37 16.87.7.51 1.85 1.14 1.77 1.44-.58 2.12-1.45 4.15-2.26 6.3.83.09 1.28.11 1.72.19 9.47 1.78 18.81-3.1 28.31-.57.34.09.8-.41 1.23-.47q9.54-1.4 19.1-2.75c-1.21 3.27-2.22 6.64-3.7 9.78-4.55 9.65-9.21 19.17-11.07 29.81a8.18 8.18 0 0 1-1.34 3c-2.25 3.37-2.45 6.5-.83 10.48 1 2.34 1.35 2.75 3.3 1.87 5.68-2.55 11.47-4.9 17-7.78 7.28-3.78 14.34-8 21.51-12a30.26 30.26 0 0 1 3.46-1.34c.54 6.31 1.71 12.23 1.39 18.07-.48 8.44 1.68 16.5 2.51 24.73.21 2 2.32 4.5 4.23 5.62 2.35 1.4 4.54-.35 6.38-2.32 8.65-9.23 17.41-18.35 26.11-27.53 1.14-1.2 2.12-2.55 3.17-3.83-2.73 19.42-10.67 37.05-16.15 55.62-7.61-8-15.88-12.66-26.94-9.54-6.58 1.86-11.88 5.81-14.84 11.63-2.4 4.71-5.29 9.71-4.6 15.53-1.29 4.07-.16 8.67 2.85 10.83.28.2.79.09 1.22.08.5 4.71 4.43 5.83 7.85 7.75 9.11 5.11 16.71 4.48 24.15-2.38a8 8 0 0 1 1.65-.82c-1 4-1.93 7.35-2.66 10.79q-2.05 9.64-3.88 19.34c-.39 2 .23 3.49 2.83 3.24 2.17-.21-1.91 4.06.93 2.08 3.19-2.21 6.19-2 9.41-2.13 9.39-.27 18.81.86 28.16-1.18a14.07 14.07 0 0 1 7.35.15c5 1.78 10 1.5 15.07 1.07 1.83 1.74 3.52 1.84 5.36-.28.57-.66 1.71-.83 2.63-1.19v-1.28c-8.16-1.4-16.32-2.82-24.49-4.18-1.46-.24-3-.05-4.47-.29-6.34-1-12.39 1.64-18.69 1.37-5.07-.22-10.16 0-15.13 0 .56-2.34 1.14-4.59 1.64-6.85 1.9-8.69 4.12-17.34 5.55-26.11a117.36 117.36 0 0 1 5.42-21.91c3.54-9.59 7.37-19.2 9.16-29.19 1.63-9.13 5.12-17.48 7.83-26.45 1.63 6.61 3 12.94 4.83 19.11a39.34 39.34 0 0 0 4.45 9c1.22 2 2.85 2 5.1.63 3.34-2.05 5.19-5 7.28-8.12 3.73-5.52 8.57-10.3 10.45-17a10 10 0 0 1 2.1-3.4c1.78-2.15 3.69-4.2 5.18-5.9 1.9 4.42 3.79 9.43 6.17 14.19 2.87 5.75 6.12 11.32 9.3 16.92 1.08 1.89 2.43 3.64 3.66 5.45 2.6-1.6 5.31-3 7.74-4.87 1-.73 1.33-2.28 1.89-3.49 3.07-6.65 6-13.35 9.18-20 1.92-4.05 3.24-8.53 7.9-12.15.31 4.61 2.91 7.53 5 10.77a6.67 6.67 0 0 1 2.08 1.4c3.32 4.72 7.4 8.79 10.48 13.82s8 8.73 12.69 13.61c2.21-3.64 5-6.42 5.61-9.62 1.15-5.87 3.87-11.49 3.29-17.69 0-.38.84-.84 1.83-1.77 1.13 5.85 1.95 11.21 3.22 16.47 2.85 11.84 5.73 23.67 8.95 35.41 3.91 14.25 8.28 28.37 12.23 42.61 1.09 4 1.39 8.14 2 12.2-3 .16-5.2.67-7.28.31-10.37-1.81-20.66.84-31 .38-5.33-.25-10.53 2.95-16 .79-5.47 2.14-11.24 1.43-16.89 1.87-3.32.26-6.61 1-9.9 1.62-.27.05-.72.58-.66.75.12.38.53 1 .79 1 1.27-.06 2.53-.34 3.79-.4.3 0 .81.48.88.82s-.31 1-.55 1c-2 .29-4 .47-6 .68-4.1 2.05-8.5 2.45-13 2.67a7.71 7.71 0 0 0-2.86 1.28c6.12-.34 12.32-.24 18.33-1.23a115.2 115.2 0 0 1 19.5-1.41c3.15 0 6.46.58 9.44-.16 9.08-2.27 18.24-.3 27.32-1.11 5.74-.51 11.49-.8 17.23-1.27 3.56-.29 7.1-.83 10.34 1.43.58.4 2.16.48 2.32.19 1.05-1.91 2.58-4 2.53-5.95a48.56 48.56 0 0 0-1.88-10.76c-1.89-7.3-4.05-14.53-6-21.81a3.41 3.41 0 0 1 .45-2.34c.16-.26 1.39-.22 1.86.1 8.29 5.53 15.88 3 23.6-1.56 5.28-3.1 8.38-8 11.24-12.92 2.35-4 4.51-8.51 3-13.77a24.41 24.41 0 0 0-12.63-15.52c-3.41-1.76-8.08-3.28-11.49-2.36-10.31 2.78-19.74 7.42-23 20.34-5.17-22.56-10.13-44.13-15.33-66.84 3.17 1.53 5.72 2.3 7.72 3.8 9.46 7.11 18.46 14.87 28.23 21.5 6.68 4.53 8.46 5.91 10.1-4a14.84 14.84 0 0 0 .1-4.7c-.83-5-1.76-10-2.83-14.94-1.68-7.73-3.51-15.44-5.28-23.15a62.87 62.87 0 0 1 7 1.31c4.81 1.42 10-.07 14.62 2a10.59 10.59 0 0 0 4.81.87c3.21 0 7.34-.79 9.45.85 4.05 3.16 6.66.47 9.73-.76 1.39-.56 2.46-1.87 3.82-2.55 1.88-.93 1.86-1.91 1.05-3.72a174.14 174.14 0 0 0-12.79-24.15c-1.3-2-3.71-3.38-4.67-5.47-1.69-3.71-3.69-7-7.24-9.66l13.78-5.66c3.69-1.51 7.33-4.07 11.09-4.27 5.84-.3 10.61-3.24 15.81-4.93 3.57-1.17 7.74-2.6 9.95-6.4.55-.81 1.38-2.11 1.08-2.75Zm-47.28-59c.05 0 .25.29.38.44-.57.19-1.14.41-1.72.56a.76.76 0 0 1-.35-.06c.56-.33 1.12-.66 1.69-.95ZM76.73 289.76c.08 0 .2.09.32.22-.11-.07-.27-.12-.32-.22Zm1.66-6.35.06-.38.31.24ZM81 299.86c.06-.09.13-.17.2-.26a1.79 1.79 0 0 1-.2.26ZM174.75 337l.41.44-.41.3Zm-3.32-.09.83.5-.83.56Zm-.32-.6c-.08.06-.22 0-.36-.15.13.04.3.05.36.14Zm-53.53-51.15c-1.79 7.57-6.77 12.41-12.45 16.62a9.62 9.62 0 0 1-9.37 1.22c-4.33-1.66-8.08-4-10.76-7.59-1.33-1.79-1.47-4.45-2.15-6.72.28-6.31 2-12 6.81-15.78 6-4.78 12.85-7 20.54-3.84 9.53 3.98 10.18 4.29 7.38 16.08Zm108.67 49.77-.34-.24.39-.16Zm3.54.94c.11-.11.27 0 .42.18-.14-.05-.36-.05-.42-.19Zm16.82.36-.35-.19.4-.08Zm2.61.07-.16-.33.4.06Zm29.84.19-.33-.44h.82Zm4.88-1.16.59-.83.48.85Zm1.84 1.05-.53-.9h1.14Zm13.5-1h-12.56c.84-1.9 2.57-1 3.93-1a21.74 21.74 0 0 1 8.63.99Zm3.36-70.18a34.22 34.22 0 0 1 8-4.92c5.47-2.75 10.33-.89 14.84 2.47.89.67 1.5 1.75 2.42 2.34 5.06 3.23 6.31 8.32 2.8 14.66-1.93 3.5-3.7 7.52-6.67 9.9a17.73 17.73 0 0 1-17.09 3.05c-5.88-1.95-8.65-6.64-9.48-12.57a34.34 34.34 0 0 1 0-4c-1.37-4.61 1.92-7.95 5.18-10.94Zm31.55-200.83c3.08-1.18 6.08-2.57 9.11-3.86 0 1.05.29 2.26-.16 3.05-3.38 6-6.95 11.79-10.42 17.69-1.91 3.24-3.73 6.53-5.77 10.1-5.19-6.71-12.21-11-19-17.1 9.05-3.42 17.68-6.61 26.24-9.88Zm-26.27 15-.87 1-4.12-3.49.56-.69Zm-3.27-50.66a1.27 1.27 0 0 1-.18.27Zm-25.84 25.54c6.36-3.3 9.85-9.45 14.64-14.3 3.47-3.5 7-6.92 10.52-10.38-.7 4-1.48 7.92-2.08 11.9-1.3 8.56-2.49 17.14-3.8 26.17-6.3-2.93-12.73-5.87-19.11-8.92-2.46-1.17-2.61-3.2-.17-4.47ZM249.66 18c-.07 0-.18-.07-.3-.17.1.1.24.17.3.17Zm-3.87 4.6v1.15c-.29-.19-.58-.38-.88-.56Zm.06 1.25c.71-.48 1.14-.95.11-1.38l3.92-4a8.89 8.89 0 0 1 1.59-2c1.44-1.06 2.89-1.38 3.66.83a6 6 0 0 1 .32 1.31c.79 6.39 4.13 12.11 4.8 18.57.29 2.81 1.53 5.53 2.38 8.27.44 1.46 1 2.9-.44 4.07.6 1.3 3 2.09 1.29 4.06-1.46.1-3 .58-4.35.21-5.32-1.5-10.54-3.37-15.87-4.87-1.89-.54-4-.33-6-.66-2.82-.48-5.61-1.14-9.23-1.89Zm18.3 30.41c-.16 0-.4 0-.47-.09a.88.88 0 0 1-.1-.37ZM205 17.93c-.08.09-.23 0-.38-.18.11.06.3.08.38.18Zm-12.67-5.87.33.44-.4.37c-.12-.15-.33-.31-.32-.44s.23-.25.37-.37Zm-2.26 7.31a1.84 1.84 0 0 1-.29-.22c.08.07.22.12.27.22Zm-2.9 5.49c.13.55.25 1.09.38 1.63h-1.16Zm-1 1.91v2.44l-1.72-.44Zm-2.86 7.17-.48.47-.29-.43Zm-1.75 3.72.17.48h-.41Zm4.76-8.42c.41-.92.88-1.83 1.36-2.75s1.2-1.77 1.82-2.66c-3-2.06.34-2.73.86-4a5.83 5.83 0 0 0 .94-.69c1.2-1.22-2.17-3.7 1-4.12.93-.12 2.19 1.57 3.17 2.55a25.49 25.49 0 0 1 6 10.18c1.85 5.4 5.21 10.28 7.86 15.4 1.11 2.14.16 4-1.82 3.28-3.38-1.19-6.4.68-9.64.35-4.95-.5-9.94-.54-14.9-1-1.17-.11-2.27-1.06-3.41-1.63 4.67-3.85 6.12-9.15 6.78-14.91Zm-6.92 12.44v2.37c-1.58-.79-1.1-1.58 0-2.37Zm-46.83 5.7c2.43-7.38 4.73-14.77 6.88-22.21 1.1-3.79 1.73-7.72 2.83-12.75 3.16 6 6 11 8.48 16.15s4.56 10.61 7.07 15.8c1.13 2.34.5 3.25-1.76 3.68-4.88.94-9.76 1.91-14.65 2.8-.6.11-1.68 0-1.84-.28-1.7-3.42-2.3.62-3.48.46.13-.13-.2-.4-.2-.4s.13.24.19.37c-.68.4-1.54 1.14-1.85 1a3.54 3.54 0 0 1-1.67-4.62Zm-15.84 8.5c-9 .9-13.82 7-20.65 9.69C93.2 54.59 95 43 89.9 31.12c11.1 7 17.68 16.37 26.83 24.76ZM77.78 68.49h-1.12c.34-.81.75-.7 1.12 0ZM48.32 57.84c-.27-.48 0-1.27.07-1.63 4 1.6 8 3.06 11.93 4.83 1.94.88 4.61.35 5.59 3.58.37 1.23 3.71 1.57 5.71 2.29 1.65.6 3.31 1.16 5 1.73.33.25.65.53 1 .8l.36-.78 10.42 4.77c-9.31 3.88-14.12 12-19.86 20.32-7.06-12.5-13.67-24.19-20.22-35.91Zm-11.39 57.7c-6.3-3.91-14.18-4.89-20.93-11.17 9.35-.72 17.1-.7 24.6-2.06 7.67-1.39 15.38 2.37 23.34-1.64-2 9.22-6.81 16.76-6.42 26.72-7.42-4.25-14.13-7.84-20.59-11.85Zm25.57 45c-7.84-.52-15.53.73-23.27 1.79-3 .42-6.24-.12-10.11-.24 9.17-7.78 17.62-14.91 26-22.09 2-1.66 3-.23 3.54 1.17a78.25 78.25 0 0 1 2.24 7.65c1 3.61 2 7.22 3 11.2-.58.23-1 .54-1.4.51ZM94.14 193c-2.81 1.79-5.57 3.69-8.48 5.3-9.1 5-18.26 10-27.41 14.9-.32.18-.81 0-1.86 0 5-15 9.91-29.48 15-44.54C75 172.5 78.3 176 81.67 179.43c2.92 3 5.52 6.39 10.07 7.2a6 6 0 0 1 2.67 2c1.48 1.47 1.82 3.04-.27 4.37Zm-26.95-25.64c.35-.74.71-1.13 1.07 0Zm1.47.36.4.25c-.11 0-.26-.05-.33-.13s-.04-.08-.07-.12Zm9.5 4.11.38.3c-.11-.06-.26-.09-.32-.18a.67.67 0 0 1-.06-.12Zm26.77 52.4-.93-.61.94-.57c0 .39-.01.78-.01 1.18ZM137.2 209c-3.58 3.83-8.23 6.69-10.48 11.71-.17.4-.22 1.09-.49 1.19-8.24 2.86-12.36 10.82-19.85 15.89-.47-4.72-.9-9.08-1.33-13.42.86-.45.78-.91 0-1.38-.68-2.23-1.33-4.47-2-6.69-.6-1.84 0-3.61-1.48-5.74-1.77-2.57-.78-6.81.84-10.09.84-1.68-.36-1.63-1.26-1.87 4.41-4.48 4.51-4.61 9.33-2.14 7.25 3.73 15.31 4.59 23 6.79.83.23 1.81 0 2.6.29a41 41 0 0 1 3.91 2 41.82 41.82 0 0 1-2.79 3.46Zm-36.9-9.72c0-.15 0-.37.12-.44a1 1 0 0 1 .3-.09Zm76.44 13.43c-.59.87-1.71 1.36-2.43 2.17-1.46 1.63-3.8 3.24-4 5.08-.83 6.65-6.1 10.62-8.81 17.22-1.14-1.86-1.82-2.56-2-3.37-2-7.94-4.1-15.86-7.54-23.36-1.22-2.67-.59-3.72 1.72-3.53 7.1.61 14.21 1.22 21.31 1.9.94.09 2.43.44 2.62 1a4 4 0 0 1-.87 2.86ZM171 204.5a12.76 12.76 0 0 1 1.84-.27c.22 0 .46.34.88.69a17.15 17.15 0 0 1-2 .08c-.3 0-.52-.32-.72-.5Zm6.17.49a7.76 7.76 0 0 1-1.1-.42c.16-.13.34-.39.46-.36a6.29 6.29 0 0 1 1.09.42c-.17.13-.35.37-.47.37Zm13.8-.19c.14-.15.35-.44.4-.42.5.27 1 .59 1.47.89Zm31.31 4.33a6.36 6.36 0 0 1-.82 1.83l-14 25.86-14.52-26.92a44.23 44.23 0 0 1 5 0c2.55.32 4.17-.48 4.6-3.09 5.69 1.38 11.25.22 16.82-.89a13.82 13.82 0 0 1 3.14.08 26.45 26.45 0 0 1-.24 3.13Zm-29.18-3.78 2.58-1.31c.05.05 3.86 1.5 3.86 1.5-2.35.68-4.63 2.15-6.46-.19Zm8.52.39.85-.27v1.08Zm1-.64c.09-.48.17-1 .26-1.44l.69.41Zm4.2-.44c.16-.12.33-.33.48-.32s.27.26.4.4c-.14.1-.31.31-.46.3s-.24-.25-.4-.38Zm57.09 19.05c-.29 2.45-.22 4.94-.53 7.39-.33 2.61-.93 5.18-1.44 7.94-5.62-3-18.36-18.66-29.68-36.36 5 1.87 8.92-.76 13.11-1.66 4-.85 7.88-2.41 11.91-3 2.9-.45 5.85-1.34 8.86-.69.32.55.84 1.13.78 1.64-.92 8.24-2.01 16.49-2.99 24.74Zm2.51-26.66.33-.39c0 .11-.08.28-.17.34a1 1 0 0 1-.14.05Zm5.6 24.44a6.56 6.56 0 0 1-1.15-.46c.27-.24.53-.66.75-.64s.55.41.79.67c.04.02-.28.45-.41.43Zm42.12-.87c-13.12-7.92-24.52-17.36-36.37-26.48 7.92-3.86 16.26-6.38 23.07-11.92 2-1.66 3.3-1.38 4.12.93 1.18 3.36 2 6.84 3 10.28q3.41 12.48 6.72 25c.09.35-.18.81-.52 2.19Zm.14-37.53c.14 0 .33 0 .4.11a1.08 1.08 0 0 1 .1.27Zm-.71-24.26c-.39 1.43-2.47 2.33-3.52 3.66-4.54 5.74-10.7 9.33-16.95 12.74-5.13 2.79-10.78 4.73-15.6 7.94s-10.65 4.07-15.95 5.47c-14.78 3.88-29.85 6.74-44.88 9.64-5 1-10.3.4-15.32 1.34s-10.24 1.75-15.5 1.25a51.58 51.58 0 0 0-8-.31c-3.92.26-8 .39-11.67 1.57a9.62 9.62 0 0 1-4.88.66 93.08 93.08 0 0 0-10.43-.91 25.29 25.29 0 0 1-9.3-2.26c-6.07-2.91-13.07-2.67-18.82-6.28a9.85 9.85 0 0 0-3.82-1.26c-11.6-1.64-21-7.44-29.53-15.14-4.49-4.07-9.15-8-13.41-12.29a74.71 74.71 0 0 1-9-10.85c-2.9-4.35-3.32-9.63-4-14.73-1.51-11.63 1.91-22.26 6.29-32.83 2.51-6.07 7.21-10.49 10.43-16 2.59-4.4 6.42-7.25 10.79-9.57.39-.21 1.06-.15 1.23-.44 3.69-6.05 10.58-7.73 15.81-11.66 7.41-5 15.82-7.75 24.32-10 6.22-1.63 12.75-2 19-3.55 6.44-1.55 13-.58 19.36-1.61 7.87-1.28 15.6-.44 23.39-.24 5.54.14 11.12.05 16.63.58 6.11.59 12.17 1.67 18.23 2.7a215.43 215.43 0 0 1 27.33 6.39c3.6 1.1 7.43 1.41 11 2.51C282.82 70.27 296.39 79 309 89.8a57.26 57.26 0 0 1 16.43 23.2 31.37 31.37 0 0 1 1.71 18c-1 4.78-1.42 9.57-4.55 13.58-.28.36-.12 1.12 0 1.68.36 3-1.44 4.68-3.47 6.28-2.49 1.51-4.66 3.15-5.53 6.29Zm6-5.71c-.12-.05-.29-.07-.34-.16s.19.04.32.16ZM353 178.2c-12.32-.26-23.37-3.83-35.31-5.72l16.62-24.64Zm-15.3-44.81c2.8-4.56 1.32-8.61.32-12.67-.85-3.45-2.22-6.86-2.46-10.34-.17-2.47-5-3.38-2.17-6 2.1-1.94 3.84 1.31 5.85 1.87 1.72.47 3.62.33 5.28.91 6 2.12 11.92 4.47 17.9 6.63 2.92 1.06 5.95 1.83 8.88 2.87.73.26 1.26 1.06 2.62 2.27ZM207.48 338.05h8.46c-2.59-3.65-5.61-.74-8.46 0Zm-13.38 5.46 5.11-1.25H194Zm5.11-1.25h.7c.1 0 .19-.11.29-.16h-.41Zm-18.15-7.74-1.66.8a6.23 6.23 0 0 0 1.66-.8Zm.14 2.63-1.64-.3v1.09Zm54.87-114 .4-.16a.38.38 0 0 0-.4.2Zm-.26.31a3.88 3.88 0 0 0 .26-.31.81.81 0 0 0-.26.35Zm-51.73 111.43.4-.11-.35-.22Zm-4.94 3.73.43-.48c-.23.07-.33.27-.43.48Zm30.24-192.78a29 29 0 0 0-2.78 6.09c-1.85 6.73-7.29 8.6-13.09 9.94a5.88 5.88 0 0 1-6-2.08c-2.78-3.16-6.4-5.61-7.32-10.19-.29-1.43-1.33-3.32-3.28-2.42-1.2.55-2 2.08-2.79 3.3-.31.48-.05 1.32-.05 2.73.62 4.72 2.26 9.37 7.23 12.77 5.94 4.06 11.3 7.37 18.85 3.3 7.24-3.91 13.59-7.86 14.91-17a7.9 7.9 0 0 0-1.89-6.69c-1.29-1.53-2.76-1.59-3.79.25Zm45.52-42.15c-4.86-.06-7.72 3.46-7.67 9.56a18.62 18.62 0 0 0 0 3.34c.77 4.41 4.87 6.41 8.91 4.41 3.44-1.67 6.32-6.64 6.05-10.45-.31-4.47-2.79-6.8-7.29-6.86Zm-124.75 3.45a14.29 14.29 0 0 0-7.66 6.2c-1.32 4.19-.59 9.37 1.77 11.61 2.07 2 6.37 1.34 7.89-1.12q1.56-2.53 3.23-5a8.06 8.06 0 0 0-.55-10.35c-1.26-1.48-2.51-2.13-4.68-1.34Zm-7.24 6.52c.06 0 .18 0 .31.13-.11-.04-.22-.05-.31-.13Zm-20 94 .23-.36-.34-.05Zm155.45-8.47c0 .15.21.3.33.45.14-.13.39-.26.4-.4s-.22-.3-.34-.45c-.13.13-.37.26-.38.4Zm1.78-147.26a6.1 6.1 0 0 0 .5-1.11 4.76 4.76 0 0 0 0-1.07c-.35.18-.82.35-.84.56a5 5 0 0 0 .35 1.62Zm.74-2.39H262c-.37-.95-.74-.71-1.11 0Zm-3.5-9.75c.13 0 .28-.2.43-.31-.12-.13-.24-.36-.37-.37s-.28.19-.42.3c.13.13.24.36.37.38ZM135.59 50.38l.31.25a.76.76 0 0 0-.31-.25Z" fill="#344286" data-color="1"/>
    </g>
</svg>
