<?xml version="1.0" encoding="UTF-8"?>
<svg data-bbox="-0.001 0.003 843.501 1121.176" viewBox="0 0 843.51 1121.16" xmlns="http://www.w3.org/2000/svg" data-type="color">
    <g>
        <path d="M366.38 1114.74c.38-.19 1-.62 1.12-.52 3 2.91 6.29 1.51 9.7 1.07 3.8-.49 7.7-.18 11.55-.24A158.76 158.76 0 0 0 408 1114l-6.44-1.92c1.78-.44 4.13-2.09 5-1.51 2.74 1.86 4.71.28 6.93-.55.59-.22 1.21-1 1.61-.93 5 1.5 9.91-.06 14.86 0 7.19.11 14.29 1 21.58.07s14.54.07 21.81-.05c4.53-.07 9 .89 13.63-.25 4.16-1 8.69-.73 13-.72 7.76 0 15.52.45 23.27.37 7.93-.09 15.89.09 23.77.32 6.88.2 13.68.68 20.52-.35a4.81 4.81 0 0 1 1.93.06c10.65 3 21.44.66 32.16.82 6.6.09 13.16-1.24 19.82.33 2.93.7 6.24.14 9.33-.24 7.31-.9 14.6-2.81 21.9-2.84 5.7 0 10.88-3.32 16.68-1.85a6.62 6.62 0 0 0 4.4-.66c6.78-3.85 14.47-2.72 21.69-4.09 8.38-1.58 17-2 25.36-3.69 7.94-1.61 15.68-4.2 23.51-6.36 1-.29 2.11-1 3.05-.89 5.27.87 9-2.27 13-4.76.88-.55 1.67-1.55 2.6-1.67 1.86-.27 4-.75 5.41 1.12 1.2 1.56 1.13 5.07-.61 6.58-4.85 4.22-9.92 8.22-16.41 9.7-1.26.28-2.7.08-3.82.61-9.81 4.64-20.65 5.4-31 8.14-6.11 1.63-12.73 1.36-19.12 1.91-4.7.4-9.5.25-14.08 1.2-7.47 1.55-15 2-22.57 2.57-4 .28-8 1.79-12 1.84a128.4 128.4 0 0 0-13.74.79c-6.39.76-12.67 1.61-19.22.33-3.82-.74-8 .74-12.08 1-7.53.47-15.07.91-22.61 1.09-2.95.07-5.92-.75-8.89-.85-4.19-.14-8.33-.32-12.56.72-2.52.62-5.48-.88-8.23-.81-12.68.32-25.37-1.2-38.08.6-5.11.73-10.49-.64-15.71-.31s-10.23-.66-15.24.7c-.64.17-1.09 1.06-1.63 1.61h-2.6c-.81-.47-1.61-1.36-2.42-1.37q-13.54-.19-27.07-.07c-.57 0-1.14.94-1.71 1.44h-1.3c-3-3-6.07-1.67-9.1 0h-1.3c-.52-2.23-2.56-2.15-4.08-2.25-6.5-.41-13 .65-19.55-.08-5.34-.6-10.93 1.07-16.29.56-7.17-.69-14.23.37-21.35.22-1.36 0-3.16-.57-3.72 1.55H369c-1-.52-2-1.44-3.08-1.51-3.21-.21-6.45 0-9.67-.14-4.43-.23-8.85-.66-13.28-1a35.43 35.43 0 0 0 4-2.48c-8.29-.22-15.67-.37-23-.62-3.2-.1-6.4-.46-9.6-.59-3.66-.14-7.46-.84-10.94-.11-6.67 1.41-13.27.14-19.88.52a21.5 21.5 0 0 0-3 .58c-.25-.33-.52-1-1-1.17a2.67 2.67 0 0 0-3.44 1.75c-.75-.78-1.07-2.46-2.72-1.33a3.8 3.8 0 0 0-.71 1c-1.46-.3-3.12-.24-4.67-.64-2.1-.54-1.73.89-1.89 2-7.75-.18-15.67-2.87-23.56.08-.68.25-1.6-.22-2.42-.23-2.45 0-4.74-1-7.42 0-1.62.6-4.2-1.75-6-1.35-6.85 1.49-13.53-1.08-20.28-.38-3 .31-6.05 1.63-8.76 1s-5.33-2-8.46-2.06c-5.78-.15-11.38-2.86-17.41-.5-1.48.58-3.91-1.18-5.88-1.94-7.1-2.75-14.78-2.42-22.07-4.16-3.15-.75-6.24-1.67-9.37-2.48-6.78-1.75-13.65-3.21-20.32-5.28-6.94-2.15-13.66-5-20.56-7.29-3.13-1-4.34-3.62-5.87-6.32l5.3 2.57 1.38.58-.52-1.44a14.63 14.63 0 0 1-1.41-2.14c-.31-.71-.73-2-.45-2.22a4.06 4.06 0 0 1 2.81-1.1 31.13 31.13 0 0 1 4.81 1.66q7.45 2.52 14.93 5a10.87 10.87 0 0 0 3.75.9c6.59-.39 12.58 2.21 18.54 4.18 2.7.9 5.42-1 8.19 1.41 1.77 1.54 5.59.72 8.49 1 1.06.09 2.31-.07 3.13.44 4.14 2.59 8.63 2.79 13.39 3.16 8.94.7 17.79 2.5 26.7 3.71a17.14 17.14 0 0 0 5.76-.18c5.85-1.26 11.54 0 17.28.75a74.83 74.83 0 0 0 8.25 1c8.17.17 16.46-.69 24.5.35 10.14 1.31 20.16 1.09 30.26.64a19.81 19.81 0 0 1 8 .9c3.46 1.39 6.77.6 10.16.58 15.14-.08 30.28.32 45.41.83a7.8 7.8 0 0 1 1.78.51 13.6 13.6 0 0 0 .43 1.41l1-1.56c3.88-2.07 7.68.31 11.57.58l-1.18 2.21a8.16 8.16 0 0 0-1.69-.75c-.23 0-.58.39-.87.61.36.36.79 1.07 1.05 1 .52-.12.94-.66 1.41-1l5.26 2.73a15 15 0 0 0 .56 1.42l.78-1.58Zm-11.61-2.53h-1.48l-.9-2.24-1.12 1.37 2.19.69c.19.57.37 1.13.56 1.69l.6-1.61.4-.31Zm-250.93-19.72a9.26 9.26 0 0 0 .86.8c.13.1.36.08.55.12-.13-.19-.23-.47-.41-.54a7.29 7.29 0 0 0-1.15-.21l-2.57-1.32-2-1.22-.42 1c.67.12 1.35.26 2 .34.18 0 .37-.14.55-.21Zm333 22.91c-.08-.15-.12-.39-.24-.44s-.38 0-.58 0c.11.24.22.48.32.72Zm-328.44-21.31-.45.38c.13.14.25.4.39.41s.3-.22.45-.35Zm303.11 19.79c-.12-.06-.27-.2-.35-.17s-.27.23-.39.35l.74.21Zm-60 3 .25-.38h-.43Z" fill="#344286" data-color="1"/>
        <path d="M394.88 633.64c.67.54 1.32 1.11 2 1.62 1.06.8 2 1.06 1.79-.79-.11-1-.28-1.45 1.11-1.28 7.59 1 15.2 1.79 22.87 1a12.37 12.37 0 0 1 3.89.08c9.19 2 18.5.86 27.75 1.15 4.28.13 8.55 1.17 12.81 1.15 5.73 0 11.45-.81 17.19-1 2.5-.09 5 .57 7.55.68 6.39.28 12.71.87 19.17-.52 4-.87 8.46.36 12.71.37a203.62 203.62 0 0 0 38.49-3.18 5.66 5.66 0 0 1 2.58-.09c7.76 2.38 15.2-.12 22.76-1.25 4.85-.73 9.8-.69 14.68-1.24 10.59-1.2 21.14-3.24 31.75-3.53 5.18-.15 10.47-1 15.68-.27 3.46.51 6.55-.34 9.84-1.31 4.41-1.3 9.08-1.64 13.61-2.54a105.84 105.84 0 0 0 11-2.56c4.1-1.28 8.07-2.43 12.49-1.77 2.46.36 5.17.54 7.43-1.39a6.41 6.41 0 0 1 3-1c5.48-1 11-1.56 16.43-2.85 4.11-1 8-3 12-4.21 3.47-1 7.14-1.24 10.66-2.08 2.67-.64 5.19-2.13 7.88-2.47 6.86-.86 13.39-2.92 20-4.84a21.47 21.47 0 0 1 4.47-.59c1.72-.13 4-.42 4.31 1.68.18 1.3-1 3.28-2.22 4.18a37.28 37.28 0 0 1-8.26 4.94 205.51 205.51 0 0 1-21.05 7.81c-6.78 1.95-13.87 2.79-20.78 4.29-6.48 1.41-12.85 3.52-19.39 4.41-5.24.71-10.3 2.44-15.91 1.79-4.23-.48-8.71 1.38-13.09 2.1-7.16 1.18-14.34 2.23-21.48 3.47a5.83 5.83 0 0 0-3 1.71c-.23.24.61 1.86 1.28 2.52 4.81 4.78 7 10.71 8.91 17.13 1.64 5.62 2.91 11.1 2.75 16.93-.14 5.11.07 10.15-2.26 15-1.72 3.61-2.33 7.75-3.82 11.5-.76 1.9-2.07 4.46-3.67 4.95-2.49.76-1.66 2.93-2.86 4.15-1.45 1.46-1.91 3.83-3.16 5.54-3.45 4.7-7.64 8-14 7.72-4.68-.18-9.4.76-14.1.77-7 0-13.61-2.42-20.22-4.6-6.89-2.27-11.27-7.22-15.1-13a21.1 21.1 0 0 0-3.38-3.87c-3.44-3.12-6.54-6.29-4.88-11.57.21-.68-.29-1.56-.33-2.36-.56-10 .77-19.53 7.7-27.52a81.39 81.39 0 0 0 5.67-7.84c2.64-3.91 5.18-7.87 10-9.83a23.58 23.58 0 0 0-12.64-.39c-8.86 2.4-17.81 2.54-26.86 1.69a19 19 0 0 0-3.11 0c-8.51.54-17 1.08-25.52 1.69-1.48.11-2.93.68-4.41.79-4.34.29-8.5 1.75-13.12.32-3-.92-6.55.18-10.3.4 1.47 2.71 3 4.81 3.82 7.15 3.15 8.79 5.41 17.69 4 27.25-.45 2.89-.08 5.83-.84 8.87-.43 1.73-1.62 2.53-2.11 3.92-.41 1.16-.64 2.06 1 2.25a35 35 0 0 0-7.62 11c-.61 1.34-.83 4.87-4.19 4.19l-2.49 5.51a4.14 4.14 0 0 1-1.45.16l-2.53 3.92-.77-.54.93.38c-4.85 2.88-9.75 5.41-15.41 6.71-8.69 2-17.19 1.78-25.89.38-6.92-1.12-12.7-4.71-18.57-8-4.51-2.51-8.15-6.1-9.31-11.75-1.63-7.88-3-14.56-1.32-21.76.39-1.66.31-3.43.57-5.14 1-6.43 2.61-12.48 6.92-17.75 4.71-5.75 8.53-12.23 15.31-17.67-16.83-1.72-32.8-1.42-48.42-4.43l-1.14-.81.8 1.15c-1.21.24-2.84 1.09-3.53.6-2.36-1.66-4.75-1.72-7.34-1.18-2.86-3.61-6.44.5-9.9-1s-7.55-1-11.39-1.21-7.76-.16-11.65-.23l-.91-.45c.16.3.31.6.46.91 4.37 6.5 8.12 13.33 10.08 20.94.72 2.78.46 5.82.64 8.74l-.4.34.27-.47c-.07 4.46-.28 8.9-2 13.12 1.88 2.08-1.13 3.13-1.14 5.06s-1.94 4-3 6-2 3.75-3.08 5.55c-1.22 2-2.5 3.94-3.91 5.79-3.09 4.06-6.41 7.75-11.91 8.64-1.83.3-3.52 1.5-5.24 2.34-2.36 1.16-12.15 2.2-15.17 1.57a4.13 4.13 0 0 1-1.41.18c-5.63-1.92-11.5-3.31-17-5.53a48.61 48.61 0 0 1-15.4-9.13 15.29 15.29 0 0 1-4.81-8.55c-.91-4.56-3.61-8.69-3.07-13.64a62.48 62.48 0 0 0 0-7.37c.62-.51 2.15-1.31 2-1.79a7.42 7.42 0 0 1 2-6.79c-1.29-5.16 2.64-8.49 4.42-12.58 1.92-4.42 5.39-7.51 8.76-10.75a53.74 53.74 0 0 0 4.69-5.88l1.36-.85-1.23 1c-2.82-.73-5.74.16-8.61-.83a42 42 0 0 0-9.3-2.16c-4.36-.45-8.89-1-13.14-.3-4.58.77-8.44-.78-12.55-1.79-1-.24-2.52-1.2-2.87-.87-3 2.92-6.26.42-9.06 0a54.62 54.62 0 0 0-11.06-.19c-.6 0-1.42.42-1.76.16-5.64-4.34-12.47-2.64-18.73-3.78a61.6 61.6 0 0 0-6.43-.44 95.8 95.8 0 0 0 10.63 11.88c.61.56 1.51 1 1.76 1.75 2.89 8.28 7.66 16.15 7.25 25.22a58.49 58.49 0 0 1-3 15.92c-2.51 7.44-5.53 14.79-11.51 20.37l-1.38-1c-.11.21-.22.42-.34.62l1.74.35c-4.33 6.58-10.18 10.12-18.29 9.34-.41 0-.91.73-1.36 1.12-6.28-.64-12.88-.44-19.13-1.8a34.19 34.19 0 0 1-18.6-10.8c-1.27-1.44-2.88-2.59-4.14-4-3.59-4.11-7.09-8.29-10.6-12.47a4.54 4.54 0 0 1-.9-1.71c-.49-1.87-.27-4.61-1.44-5.44-2-1.41-1.48-2.81-1.71-4.59a44.31 44.31 0 0 1 4.23-24.54 54.9 54.9 0 0 1 18.11-20.57c2.19-1.49 3.69-4 5.5-6-1.72-3-5.09-1.72-7.59-2.75-1.31-.54-3-.24-4.48-.27-3.84-.06-7.63 0-11.46-.94-8.11-2-16.29-3.68-24.5-5.26-10-1.92-19.45-6.21-29.56-7.58a61.77 61.77 0 0 1-19.59-5.92c-4.14-2.07-8.68-3.3-12.4-6.28-1.63-1.3-3-.55-3.64 1.61a35.35 35.35 0 0 0-1.13 4.39c-.49 3.18.22 4 3.46 4.76 12.09 3 21.95 9.39 29 19.79a3.33 3.33 0 0 0 .35.54c5.06 5.48 7.22 12.25 8.37 19.38a39.37 39.37 0 0 1 .07 6.43 38.47 38.47 0 0 0 0 4.92c.32 2.45.33 4.54-1.71 6.5-1.54 1.49-.86 4.39-2.88 5.85a2 2 0 0 0-.44.22c-.08.06-.1.19-.14.28.14-.22.28-.44.41-.66.22.74.87 1.75.59 2.16-5 7.46-10.18 15-17.55 20.16-5.79 4.08-12.46 7-20 6.09-1.7-.21-3.42-.35-5.68-.57-.17 1.87-.43 3.74-.49 5.61-.25 8 .37 15.85-.95 23.86-1.09 6.63-.12 13.59-.35 20.4-.25 7.42-.77 14.83-1.27 22.24-.64 9.29.87 18.45 1.35 27.67.2 3.8.52 7.84-.53 11.39-1.76 6-.84 11.88-.7 17.81.1 3.92.83 7.83 1.21 11.75.81 8.32 1.87 16.64.2 25 2.44 6.73-.82 13.66.87 20.57.87 3.56-.43 7.63-.66 11.48a9 9 0 0 0 .35 3.09c1.49 4.87 1.55 9.9 1.9 14.9s.75 10.07 1.06 15.11a28.68 28.68 0 0 1-.23 3.19c-.24 4.81-1 9.66-.58 14.41.78 9.31 3 18.55 3.12 27.84a125.43 125.43 0 0 0 2.5 24.32c.86 4.25-.07 8.85 0 13.29 0 3.13-.22 6.42.63 9.36 1.35 4.66 1.11 9.68 3.9 14.08a18 18 0 0 1 2.34 9c.15 7.73 3.59 14.4 6.13 21.36 3.1 8.49 7.23 16.45 13.48 23.16.2.22 0 .79 0 2-2.61-1.49-5.28-2.43-7.15-4.21a55.7 55.7 0 0 1-11.57-14.51c-5.17-9.94-9.92-20-10.94-31.43a14.74 14.74 0 0 0-1.35-4.27 68.87 68.87 0 0 1-5.22-28.93 37.42 37.42 0 0 0-1.15-9.82 119.72 119.72 0 0 1-2.22-16.29c-.61-6.74 0-13.72-1.64-20.2-1.2-4.88.9-10.57-3.33-14.71 1.17-2.6-.14-5.44.36-7.84.94-4.56.53-8.87 0-13.34-.32-2.67.17-5.43.3-8.16 0-.62.3-1.41 0-1.85-3.21-5.06-1-11.07-3-16.34 1.79-4.1 1.19-8.46.6-12.56-1-6.92 0-13.87-1-20.8-.6-3.94.35-8.12.54-12.19.13-2.66.66-5.43.13-8-2.25-10.82-2.36-21.75-2.1-32.7.11-4.6.72-9.18.86-13.78.08-2.7-.35-5.41-.49-8.12-.14-2.55-.06-5.12-.34-7.65a81.69 81.69 0 0 1 .93-22.77c.94-5.67.2-11.61.38-17.42.32-10.75.78-21.48 1.17-32.22.15-4-.88-8 0-12.1.41-2-.08-3.82-2.51-4.61-1.38-.44-2.51-1.6-3.88-2.12-7.94-3.06-13.34-9.27-18.26-15.64C5 664.56 3.35 659.62 2.11 655c-.68-2.57-2.61-5.27-1.22-8.26-2.47-6.93.76-13.05 2.86-19.29 2.51-7.45 7.47-13.47 12.19-19.57 3-3.81 7.12-5.94 11.54-7.72 3.37-1.36 6.55-3 10.41-2.69.76.06 2.23-1.43 2.38-2.37a51.88 51.88 0 0 1 3.49-11.91 7.15 7.15 0 0 0-.4-6.16 72.47 72.47 0 0 1-6.5-37.74c.16-1.67-.22-3.39-.22-5.09 0-9.71-1.41-19.67.31-29.06s-1.08-17.34-2.58-25.88a6.5 6.5 0 0 1-.31-2.54c1.69-6.27-.48-12.22-1.38-18.28a40.45 40.45 0 0 1-.31-6.23c.06-7.55.06-15.11.32-22.66s1.6-15.39 1-23c-.62-8 2.58-15.1 3.52-22.67s3.26-14.64 5.8-21.71c.36-1 .55-2.27 1.28-2.86a118.75 118.75 0 0 1 10-7.56c4-2.61 13.34-1.65 17.4 1.66s7.79 6.89 10.29 12a110.18 110.18 0 0 1 9.38 28.35c1.37 7.14 3.15 14.2 4.71 21.3 2.78 12.71 5.54 25.43 8.44 38.78 17.79-8.69 37.75-9.82 57.17-15.49a44.73 44.73 0 0 0-2.33-6.23c-5.08-9.36-7.24-19.75-10.53-29.73-.65-2-.38-4.28-.53-6.44-.12-1.72.15-3.58-.42-5.14a19.26 19.26 0 0 1-.91-9.42 10.32 10.32 0 0 0-.06-3.88c-2.15-8.34-.43-16.42 1.14-24.6 1-5 .91-10.26 1.59-15.36a140.79 140.79 0 0 1 5.9-24.85c1.26-3.86 1.84-8 3.38-11.69 2.87-6.91 6.08-13.7 9.45-20.4a43 43 0 0 1 5.22-7.18c3.32-4.14 4.11-8.13 1.38-12.38-4.48-6.94-7.36-14.52-10.12-22.22-2.68-7.45-5.79-14.76-8.29-22.26-3.67-11-7.68-21.94-10.17-33.21-1.74-7.86-5.21-15.42-4.76-23.83.16-3-1.87-6.12-2.31-9.27-1-7.41-1-15-2.68-22.27-1.42-6.21.24-12.29-1-18.5-1.2-6-.35-12.51-.36-18.79 0-6.49-.28-13 .16-19.46A65.79 65.79 0 0 1 138 58c2.2-7.83 3-15.93 5.8-23.69 4.12-11.3 16-12.15 23.62-5.5a31.45 31.45 0 0 1 8.95 11.77c5.44 13.31 11 26.59 16.07 40 2.94 7.76 5.36 15.74 7.55 23.74 1.61 5.86 2.52 11.91 3.63 17.9 1.6 8.58 3.17 17.17 4.61 25.78.56 3.37-.06 7.14 1.21 10.16 3.3 7.82 2.27 16.55 5.7 24.26-1 6 2.07 11.62 1.71 17.68-.22 3.53 1.17 7.16 1.88 10.73 1.13 5.71 2.2 11.44 3.5 17.11.71 3.1 1.58 3.51 4.52 2.77 4.55-1.14 9.11-2.22 13.6-3.55 6.63-2 13.47-.24 20.13-1.39 1.27-.22 2.63 0 3.85-.28 2.2-.57 3.76-1.53 3.33-4.49a81.78 81.78 0 0 1-.49-10.86c-.18-18.57-.65-37.15-.34-55.71a315.65 315.65 0 0 1 2.6-35.43c1.35-10.35 1-21 4.87-31-.86-7.43 3.23-13.94 3.9-21.16.51-5.44 2.94-10.68 4.42-16A147.19 147.19 0 0 1 291 27.31c4.16-8.86 9.13-17.06 16.29-23.77C310 1.05 313-1.29 317 .83c5.13 4 8.32 9.46 10.29 15.77a28 28 0 0 0 2.16 4.69c5.13 9.64 6.58 20.23 8.14 30.83 1.05 7.18 2.46 14.31 3.78 21.44 1.79 9.74 1.45 19.58 1.3 29.38-.14 9.46-.77 18.92-1.34 28.37-.24 4.09-1.65 8-2.14 12.12-1.15 9.51-3.71 18.84-5.62 28.26-1 4.83-1.94 9.67-2.65 14.54-2 13.38-7 25.93-10.33 38.93-.54 2.08-.74 4.26-1.34 6.32a43.89 43.89 0 0 1-2.74 7.74c-2.47 4.86-2.25 6.54 1.43 10.54 9.67 10.53 19.27 21.11 26.33 33.73 3.75 6.7 9 12.65 12.15 19.58 5 11 10.76 21.87 12.07 34.28.52 4.88 2.32 9.64 2.63 14.52.67 10.74 3 21.46.46 32.32-.75 3.22-.09 6.74-.35 10.1a41.67 41.67 0 0 1-1.58 9.26c-1.56 5-1.68 10.48-3.58 15.52-.14.38 1.63 2.16 2.28 2 4-.75 7.91-.24 11.9.45 2.34.41 4.89-.22 7.32-.56 5.67-.8 11.55-.12 17-2.33.45-.18 1.17.38 1.78.54 2.06.56 4.1 1.48 6.18 1.56 5.58.22 11.17.07 16.78.07 0-1 .15-1.46 0-1.73-6-9.11-10.23-19.19-15.49-28.69-4.49-8.1-8.82-16.31-11.53-25.06s-7.93-16.54-8.47-25.92a7.56 7.56 0 0 0-1.12-3c-3-5.42-3-11.52-3.93-17.39a16.84 16.84 0 0 0-.56-3.82c-1.84-4.49-2-9.18-2.16-13.91-.12-3.19-.87-6.34-1-9.53-.38-7.85 1.59-14.74 8.38-19.63a35.81 35.81 0 0 0 5-4.8c2.17-2.36 4.53-2 7.37-1.3 7.46 2 13.55 6.32 19.67 10.64 9 6.35 16.87 14 24.5 21.9 3 3.06 5.64 6.39 8.5 9.55 6.45 7.16 12.7 14.49 20.16 20.69 3.06 2.54 5.58 5.72 8.35 8.61 6.58-6.36 8.87-13.39 7.55-22.52-.43-2.93-.62-5.89-1-8.83-.45-3.61-2.26-6.79-3.32-10.18-3.31-10.62-6.18-21.37-9.26-32.06-.65-2.26-1.63-4.42-2.15-6.7a71.94 71.94 0 0 1-1.58-9.45c-.56-6.2-1-12.42-1.25-18.64a72.69 72.69 0 0 1 6.36-31.83c2.19-5.06 3.85-10.37 5.57-15.62.2-.6-.5-1.73-1.08-2.32-3.55-3.65-7.48-6.84-10.58-11-3.58-4.83-5.42-10.18-6.88-15.8a28.29 28.29 0 0 1 2.43-21.24 16.49 16.49 0 0 0 1.38-4.28c1.19-5.57 4.45-9.67 9-12.84 1.75-1.21 3.76-2.09 5.34-3.48 6.84-6 14.56-5.08 22.49-3.2 12.31 2.91 20.34 11.14 26.78 21.38a24.12 24.12 0 0 0 2.46 3.81c1.34 1.45 2.8 1.77 5.1 1.26 8.15-1.82 16.23-4.07 24.72-4.31 5.07-.14 10.09-1.9 15.15-2 6.53-.11 13.09.69 19.63 1.17 2.77.2 5.54.85 8.31.83a155.08 155.08 0 0 1 30.75 3.28c5.7 1.1 11.45 1.88 16.72 4.59 2 1 4.19 1.83 6.29 2.74 3.23-10.56 12-20.27 21.37-22.69 6.16-1.59 12.45-1.45 18.92-.48a28.91 28.91 0 0 1 16.17 8c8.51 8 11.23 18 10.18 29.28a77.74 77.74 0 0 1-2 9.45 28.69 28.69 0 0 1-8.16 14.38c-3.64 3.62-6.31 8.16-11.39 10.22-1.88.76-2 2.54-1.43 4.43 1.88 5.88 1.69 12 2.27 18.07.69 7.13-.1 14.26.31 21.37.3 5.41-1.2 10.47-2.54 15.51-2.07 7.84-4.62 15.57-7.19 23.27a33.77 33.77 0 0 1-3.84 8.12c-4.48 6.67-9 13.38-14 19.62a62.08 62.08 0 0 0-13 26.89 5.66 5.66 0 0 0-.1 1.3c.15 4.84.19 9.7.51 14.54.17 2.56 2 3.16 4 1.52 5.76-4.76 11.06-10.26 17.36-14.14 12.38-7.62 23.15-17.68 36.55-23.72 4.65-2.1 8.84-5.24 13.54-7.15 8.22-3.33 15.9-8.24 24.84-9.46 3.9-.54 8.51-1.13 11.81.42 4.88 2.29 9.34 6 9.63 12.54.42 9.54-.13 18.87-3.6 27.92-4.32 11.26-10.17 21.6-16.57 31.85-7.75 12.41-16.3 24.16-24.94 35.89-7.39 10-14.74 20.1-22.16 30.1-1 1.37-2.54 2.36-3.58 3.72-3.38 4.45-6.73 8.91-9.91 13.5-1.24 1.79-.48 3.18 1.81 3.59 10.08 1.83 20.17 3.55 30.25 5.37a40.37 40.37 0 0 1 7.5 1.79c2.57 1 3.65.09 4.21-2.23 1.28-5.18 2.4-10.39 3.84-15.52 2.08-7.39 3.46-15.19 6.88-21.94 3.18-6.27 6.32-12.47 8.87-19 .91-2.34 3.07-4.2 4.47-6.51 3.51-5.82 8.2-10.93 12.41-16.33 4.23-1 6.32-5.08 9.93-7 6-3.24 15.36-1.89 20.43 2.6 9 8 13 18.44 15.52 29.69a22.93 22.93 0 0 1 .1 5.18 228.68 228.68 0 0 1-2.41 35c-1.29 8-1.42 16.27-3 24.24-1.32 6.77-.61 14-3.9 20.3-.94 1.81 2.78 2.76.51 4.39s-.54 2.82.08 4.36-.3 1.84-1.58 1c-.3.81-1.09 1.9-.82 2.4 3.7 6.64 4.45 13.78 3.93 21.18 0 .21-.23.44-.19.61 2.84 10.78 1.42 21.65.53 32.47-.57 7-1.82 13.93-2.55 20.92-.6 5.72-2.23 10.8-6.77 14.69a4.74 4.74 0 0 0-1.63 3.35c.31 4.25 1.19 8.47 1.5 12.73a8 8 0 0 0 6 7.45c4.5 1.4 6.79 5.17 9.94 8 1.87 1.66 3.09 4.05 4.55 6.16A7.19 7.19 0 0 1 841 626c1 8.43 3.7 16.66 1.89 25.37-2.18 10.45-5.32 20.37-12.19 28.8a54 54 0 0 0-4.74 7c-.32.56.39 1.72.62 2.61a18.45 18.45 0 0 0-2.51 1.6l-1.8 1.33c3.35 2-.95 3.07-.69 4.94.35 2.49-.38 5.12-.51 7.7-.11 2.37-.06 4.75-.05 7.13s.07 4.68.08 7c0 8.33 0 16.65.08 25 .07 5.48.15 11 .66 16.41.42 4.53.91 8.91-.38 13.43a16.69 16.69 0 0 0-.12 7.7c.75 3.62.34 7.26 1.52 11s.31 8.26-.85 12.09c-1.29 4.29-.27 8.28-.19 12.41.13 6.15.67 12.2-.46 18.47s-.45 12.95.11 19.39c.48 5.53-.19 10.87-.49 16.32-.33 5.86-1.35 11.82.22 17.87a22.77 22.77 0 0 1-.28 11.53c-1.74 6-1 11.82-1 17.74a16.35 16.35 0 0 1 .05 2.88 179.51 179.51 0 0 0-2.88 36.59 13.42 13.42 0 0 1-1.65 7.27c-1.54 2.79-1.19 6.65-1.5 10.06-.29 3.19-.47 6.4-.5 9.61s.24 6.46.23 9.69a3 3 0 0 1-1.06 1.93c-1.83 1.59-2 2.37-1.27 5.48a2.17 2.17 0 0 1-.33 1.48c-2.5.13-2.36 1.9-2.59 3.68-.69 5.33-1.31 10.68-2.36 15.94-2.31 11.63-6.74 22.53-12.1 33-2.79 5.46-5.38 11-9.65 15.69-2.26 2.49-4.39 4.5-7.51 5.62a49.13 49.13 0 0 0-5.28 2.61c2.9-6.62 4.65-13.3 9.68-18.39 1.29-1.31 1.83-3.38 2.68-5.12 1.31-2.69 2.49-5.43 3.89-8.06a58.91 58.91 0 0 0 6.1-16.24 26.89 26.89 0 0 1 2-5.39 28.48 28.48 0 0 0 2.34-11.9c-.05-5.73 1.71-11.24 2.89-16.79a30.44 30.44 0 0 0 .46-7.5c-.25-9.63.2-19.27 2.4-28.74a23 23 0 0 0 .78-5.69c-.25-9 1-17.93 2.85-26.72a14.38 14.38 0 0 0 .2-4.8 48.91 48.91 0 0 1 0-11.28c.45-3.52-.62-7.34.23-10.32 2.09-7.35 0-14.5.44-21.7.15-2.47-1-5.06-.62-7.46.47-3.18 2.5-6.15 1-9.54 3.28-4 .94-7.76.08-11.81-.57-2.73.45-5.79.76-8.7l.27.43-.36-.33c2-10.9 2.39-21.82.1-32.72a22.41 22.41 0 0 1 .54-10c.53-2.25 1.1-4.73.68-6.93-.81-4.33-.12-8.79-2-13.1-1-2.35-.71-5.68 0-8.32a38.81 38.81 0 0 0 0-18.43 29 29 0 0 1-.2-7.1A196.62 196.62 0 0 0 808 719c-.57-5 0-10.1.25-15.14.08-1.64-.22-2.34-2-2.43-5.66-.28-11.38-.28-17-1.12-7-1.06-13.79-3.16-19.3-7.87-3.7-3.16-6.93-6.88-10.54-10.16-5-4.53-6.58-10.9-8.94-16.76-1-2.55-.48-5.8-.47-8.73.06-11 5.63-19.59 12.42-27.54 3-3.53 6.65-6.52 9.71-10 7-8 16-12.09 26.21-13.83 2.4-.41 4.42-2.66 7.22-1.53a3.87 3.87 0 0 0 1.43-2.24 55.76 55.76 0 0 0-.69-6.44c-3.07 1.2-6.17 2.56-9.37 3.58-1 .32-3.18-.16-3.23-.51-.29-1.9-2.94-3.78-.47-5.77a25.3 25.3 0 0 1 5.32-3.63c5.41-2.42 9.28-6.88 14-10.13 5.41-3.69 6.91-9.08 7.23-15 .36-6.66.33-13.34.57-20 .08-2.33.72-4.67.66-7-.23-8.56-.64-17.11-1-26.52-3 2.89-5.33 5.47-8 7.59-5 4-9.51 8.55-16 10.62-3.8 1.22-7.11 4-10.61 6.09-7.09 4.28-15.3 5.26-23 7.83-2.87 1-5.69 2.08-8.62 2.81-6.82 1.68-13.64 3.41-20.55 4.68-10.62 1.95-21.24 3.92-31.81 6.16-7.73 1.64-15.63 4.44-23.29 4-9.94-.6-18.8 3.47-28.33 3.87-4.52.2-9.06.69-13.55.41-2.21-.14-4.33-1.73-6.94-2.86a17.72 17.72 0 0 1 11.79-4.69c8.73-.13 16.71-3.63 25.2-4.51a18.23 18.23 0 0 1 4.33-.3c7 1 13.8-.22 20.62-1.25 2-.31 5.17-.94 3.2-4.57 4.21-17.64 2.1-35.58 2-53.37 0-8.64-2.27-17.32-3.94-25.9-.9-4.63.57-8.5 2.76-12.12 4-6.59 8.31-13 12.65-19.36a48.84 48.84 0 0 1 5-5.73c5.76-6.06 11.28-12.3 15.08-19.85.57-1.14 1-2.56 1.93-3.3 4.63-3.69 6.2-9.46 9.74-13.9s6.51-9.08 9.84-13.58c3.9-5.25 7.9-10.43 11.86-15.64a1.71 1.71 0 0 0 .19.46c.06.08.21.09.32.13l-.58-.52c2.84-5 6.07-9.84 8.43-15.07 3.47-7.7 8.34-14.76 10.3-23.22a85.84 85.84 0 0 1 3-10.14c2-5.46.29-10.36-1-15.1-1-3.42-5-5.42-8.78-5.5a39.11 39.11 0 0 0-11.25 1.4 77.41 77.41 0 0 0-12.55 5.12c-12.13 6-23.43 13.28-34.68 20.79s-21 16.49-32.62 23.17c-2.19 1.25-3.83 3.45-5.8 5.11a26.91 26.91 0 0 1-4.16 3 2.21 2.21 0 0 1-2.09-.29c-1.13-2-2.49-4.13-2.91-6.37-2.09-11.07-2.1-22.14 1.2-33 2-6.47 5.89-11.95 9.77-17.32 3.75-5.19 7.91-10 11.29-15.55 3-4.92 6.71-9.4 8.78-14.89 3-8 6.17-15.84 6.54-24.52.23-5.59 1.46-11.21 1.07-16.73-.48-6.61 1.06-13.51-2.11-19.84 1.26-4.34-.83-8.24-1.53-12.34s.41-6 4.39-7.47c3.48-1.25 5.59-3.61 7.87-6.31 3.94-4.65 7.48-9.44 9.42-15.26a34.54 34.54 0 0 0 1.5-5.44c.51-3.11 1.31-6.31 1-9.38a38.71 38.71 0 0 0-2.76-9.69 33.3 33.3 0 0 0-3.62-6.79c-2.84-4.16-6.41-7.24-11.78-7.92a64.15 64.15 0 0 0-15.81-.43c-5.87.66-9.45 3.9-13.11 7.18s-7.24 7.18-9.3 12.06c-1.3 3.1-2 3.1-5.56 2-9.41-2.85-18.71-6.18-28.28-8.34a99.22 99.22 0 0 0-24.2-2.26c-8.81.2-17.63-.61-26.44.22-11.71 1.11-23.44 2-35 4.62-2.91.66-5.86 1.15-8.78 1.76a4.88 4.88 0 0 1-5.78-3.14c-4.45-10.22-12.81-16.38-22.08-21.62-6-3.4-12.52-2.47-18.95-2.21-7.58 4.48-15.46 8.68-18.24 18-1 3.27-1.74 6.61-2.72 9.87s1.95 6.16.32 9.32c2.29 4.57 4.24 9.36 7 13.63 2 3.11 5.06 5.56 7.7 8.25a44.06 44.06 0 0 0 3.35 3c2.34 2 2.51 4.09 1.42 6.93-2.44 6.39-5 12.8-6.61 19.44a127.12 127.12 0 0 0-3.34 29.93c0 13.65 3.52 26.35 6.8 39.28 2.63 10.36 6 20.5 9 30.72 2.74 9.06 3.65 18.86 0 27.83-2.05 5.05-3 11.29-8.72 14.45-2.92 1.6-4.74 2.05-6.86-.19-5.91-6.27-11.46-12.87-17.46-19-4.33-4.44-8.55-8.93-12.47-13.75-3-3.75-6.83-6.9-10.37-10.24a237.48 237.48 0 0 0-26.56-21.9c-4.53-3.18-9.37-5.44-14.16-8l.82-.89-1.37.35c-8.73 1.87-10.39 8.92-11.49 16.12-.44 2.89.1 5.92.19 8.88l-.44.31.29-.45c.32.52 1 1.08.92 1.57-.91 9.85 3.68 18.88 4.29 28.51.15 2.46 1.89 4.76 2.45 7.24 2.38 10.38 6.63 20.18 9.3 30.5 1.52 5.88 4.86 11.32 7.62 16.85 5 10.09 10.18 20.11 15.38 30.11 1.17 2.27 2.77 4.31 4.1 6.5 3.17 5.18 6.23 10.42 9.46 15.55 2.35 3.74 3.12 8 1.64 11.8-2.81 7.34-3.27 15-4.69 22.59a16.83 16.83 0 0 1-.7 3.12c-2.41 6-3.15 12.32-3.53 18.81-.39 6.79-2.08 13.51-3.12 20.27-1.1 7.19-1.52 14.44-2.05 21.7-.75 10.45-.16 21-2.16 31.38-.82 4.31.33 5.75 4.6 5.64 5.56-.15 11.12-.25 16.67 0 5.79.21 11.57 1.2 17.35 1.13s11.38.8 17.07-.75c2-.55 4.5.53 6.77.88a47.59 47.59 0 0 0 5.48-.37c.37-.17.65-.61 1-.66 1.55-.26 2.06 3.76 4.25 1a5.24 5.24 0 0 1 3.83-1.8c1.82 0 3.65.17 5.47.09a41.09 41.09 0 0 0 5.53-.65c1.89-.34 3.73-1.1 5.63-1.3 5.3-.57 10.65-1.57 15.92-1.25 9.45.58 18.72-.66 28.06-1.36 4.51-.34 9 0 13.58-.05 8.32 0 16.57-.46 24.72-2.51 2.65-.67 5.59-.14 8.39-.3s2.76 2 3.23 3.83c.62 2.4-1.53 2.53-2.69 2.78-5.67 1.2-11.39 2.18-17.11 3.11a99 99 0 0 1-11.15 1.43c-6.83.31-13.68.2-20.51.44-3.39.12-6.77.88-10.15.89-6.8 0-13.6-.28-20.4-.46a102.22 102.22 0 0 0-17 1.22 152.08 152.08 0 0 1-25.07 2c-5.44-.13-10.91.75-16.38 1-3.88.2-7.79.32-11.67.15-5.26-.22-10.5-.78-15.75-1.13a13.93 13.93 0 0 0-3.87.21 50.57 50.57 0 0 1-20.43 0 58.63 58.63 0 0 0-13.51-.65c-6.59.32-13.06-.49-19.57-1.13-7.52-.75-15-1.94-22.57-2-12.41 0-24.52-2.52-36.79-3.58-3-.26-6-.55-9-.71-10.68-.57-21.39-.82-32.05-1.75-5.94-.53-11.78-2.18-17.67-3.32a4.45 4.45 0 0 1-1.46.16c-.51 0-1.36.55-1.71.32-7-4.67-15.22-3.27-22.85-4.64-6.33-1.14-12.76-1.66-19.13-2.58-3.57-.52-6.75-2.26-10.43-2.91-12-2.11-24.38-2.34-36-5.67-10.48-3-21.31-3.68-31.74-6.69-4.25-1.22-9.24.23-13.44-1.91s-9.41-1.66-13.4-4.58a3.55 3.55 0 0 0-2.35-.91c-6.75 1.64-12.65-2.93-19.47-2.42-3.79.28-7.76-3.09-11.78-4.45-6-2-12.11-3.63-18.12-5.59-4.66-1.52-9.3-3.12-13.21-6.28-3.52-2.84-8-4.38-11-8-1.12-1.34-2.62-.3-2.73 1.17-.24 3.17.06 6.39-.16 9.57-.87 12.68-.28 25.37.1 38 .18 5.89 2.42 11.73 3.9 17.55a5.89 5.89 0 0 0 4.36 4.39c6.31 1.74 12 4.83 17.47 8.31 4.64 2.94 10.1 3.28 15.2 4.68 6.8 1.87 13.82 2.95 20.75 4.38a3 3 0 0 1 1.18.52c5.2 4.16 11.59 3.93 17.69 5 5.87 1 11.59 2.91 17.42 4.22 3 .68 6.22 1.48 9.27 1.27a55.75 55.75 0 0 1 18.78 2.33 58.3 58.3 0 0 0 13.29 2.11c5.32.23 10.58 1.6 15.88 2.43 8 1.24 15.83 3.61 24.05 2.15a3.6 3.6 0 0 1 2.38.1c5.42 3.77 11.68 3.58 17.75 3.41 7.14-.2 14 1.67 20.92 2.45 1.9.21 3.79.9 5.67.88a91.65 91.65 0 0 1 28.28 3.66 3.82 3.82 0 0 0 1.9 0c7.83-1.8 15.22.61 22.7 2.23a22.22 22.22 0 0 0 5.74.53c8.68-.39 17 1.83 25.49 3 6.57.93 13.18 1.49 19.78 2.2 4.65.49 9.3 1.11 14 1.32 1.51.07 3.07-1 4.61-1.49a9.46 9.46 0 0 0 0 1.28 1.41 1.41 0 0 0-.47.11c-.09 0-.11.21-.16.33l.57-.5 1.39.11Zm34 5.18a2.26 2.26 0 0 1-1-.39Zm352.26 430.48-1.48.51c.17.07.43.24.5.18a7.41 7.41 0 0 0 .83-.85 1.9 1.9 0 0 0 .55-.21c.09-.06.08-.25.12-.38ZM431.33 677.82c.25-.63.5-1.26.74-1.89l-1-.08.42 2.12-.56.82c.13-.33.26-.65.4-.97Zm16.94 36.42a58.79 58.79 0 0 0 17.54 5.59c8.58 1.26 16.45-.23 24.34-2.85a10.67 10.67 0 0 0 4-3 54.23 54.23 0 0 0 6.2-7.38c4-6.25 8.61-12.18 10.11-19.82 1.28-6.58 1.82-13.29.25-19.6a40.53 40.53 0 0 0-9.64-17.22 3.93 3.93 0 0 0-1.74-.79c-10.55-3.11-21.16-5.83-32.21-2.69-4.53 1.29-9.59 2-13.29 4.56a44.21 44.21 0 0 0-13 14.94c-6.63 11.87-6.76 24.44-3.6 37.2 1.42 5.72 6.17 8.67 11.1 11.18l-.35.26Zm306.8-178.1 19.51-6.46.27.35-.37-.26c5.1-2.69 10-5.82 15.33-8a47 47 0 0 0 15.89-10.48c1.37-1.37 2.58-3.2 4.25-3.95 4.12-1.85 4.56-5.23 4.55-9 0-4-1.91-6.68-5.69-8.23a18.81 18.81 0 0 1-4.09-3c-2.17-1.76-4.11-3.89-6.49-5.28-6.5-3.81-13-7.66-19.83-10.83a72.27 72.27 0 0 0-15.78-5.2c-8.82-1.8-17.87-2.52-26.7-4.32-10.06-2.06-19.86-5.65-30.4-3.77-.56.1-1.21-.46-1.84-.51a4.91 4.91 0 0 0-4.94 5.67c1.41 7.54 2.89 15.08 4 22.67 1.43 9.73 1.26 19.45.57 29.31-.75 10.91-.58 21.89-2.6 33.19a32.45 32.45 0 0 0 5.34 0c11.39-2 22.43-5.65 34-6.95 4.89-.55 9.82-1.46 13.72-5ZM256 230.65c-2.49.24-5 .43-7.46.75-9.05 1.17-18 3.09-26.88 5-3.08.65-4 .09-4.38-2.81-.17-1.28 0-2.61-.21-3.88-.88-5.91-1.46-11.9-2.89-17.67-.76-3.08-2-6-2.36-9.24-.84-6.88-2.36-13.67-3.66-20.48s-2.8-13.79-4-20.71c-1-5.88-1.78-11.81-2.76-17.7-.8-4.85-1.72-9.68-2.65-14.51-.79-4.12-1.64-8.22-2.5-12.33-.31-1.45-.73-2.87-1.08-4.31-1.92-7.87-3-16.06-5.91-23.55-5.48-14.15-10-28.65-15.62-42.75-3.21-8-7.53-13-15.59-15.28-4-1.13-5.93-.61-7.68 3.25-1.5 3.31-3.31 6.7-3.76 10.21-1.3 10.33-5.3 20.23-4.45 30.93.41 5.25-.81 10.61-.73 15.91.11 7.43-.39 14.83 1 22.31s1.1 15.42 1.59 23.14a29 29 0 0 0 .6 3.81c1 5.24 2.56 10.43 3 15.72 1.05 11.53 3.7 22.69 6.85 33.77.58 2.05 1.92 3.94 2.27 6 2.69 16 10.59 30.18 15.46 45.42 2.4 7.49 6.46 14.43 9.57 21.71 2 4.62 1.76 9-1.58 13.27a63.08 63.08 0 0 0-7.34 11.37 133.4 133.4 0 0 0-7.4 18.4c-1.37 4.46-3.44 8.82-4.3 13.21-2.08 10.51-4.72 20.95-5.61 31.7-.59 7.11-1.9 14.17-2.18 21.28-.23 5.92.49 11.88.95 17.81.24 3.19.81 6.35 1.23 9.52a33.19 33.19 0 0 0 .59 4.46c2.94 10.92 6.62 21.56 12.43 31.36 1.29 2.18 1.91 4.79 3.36 6.83 3 4.17 6.17 8.16 9.46 12.07 3.14 3.72 5.7 8 10.37 10.28 3.89 1.9 4.41 3.65 2.7 7.54a41.15 41.15 0 0 1-2.58 4.43c-2.53 4.21-5.56 8.2-7.51 12.66-3.76 8.63-6.79 17.58-10.38 26.29-2.41 5.84-2.13 12.08-3.33 18.1-.73 3.66-.6 3.75 3 4.84a77 77 0 0 0 8.7 2.52c6.46 1.14 12.65 5.31 19.58 2 .13-.07.38.19.59.22 4.2.72 8.38 1.55 12.59 2.12 14.52 2 29.06 3.77 43.56 5.9 4.37.64 8.56 2.55 12.93 3.17 13.14 1.86 26.33 3.39 39.51 5 4.91.61 9.83 1.2 14.75 1.65 5.94.54 12 .39 17.81 1.51 5.15 1 10.21.94 15.35 1.08 9.2.26 18.4.78 27.6 1.1 2.79.09 5.6-.11 8.4-.18l.49.34-.52-.3A93.19 93.19 0 0 0 394 542c-.48-3.17-.83-6.35-1.29-9.53a35.84 35.84 0 0 0-1-5.69 250.57 250.57 0 0 0-14.44-37c-1.8-3.6-2.76-7.73-5-10.95-5.31-7.52-11.33-14.55-16.78-22a79.33 79.33 0 0 1-6.08-10.62 5.26 5.26 0 0 1-.57-3.72c1.56-4.4 2.8-9.14 5.4-12.9a52.81 52.81 0 0 0 6.06-12.67c3.87-10.95 6.61-22.13 6.53-33.87 0-2.52 1-5.08.78-7.54-1-9.51-2.14-19-3.47-28.47-.87-6.12-1.56-12.37-3.36-18.25a119.21 119.21 0 0 0-13.17-28.55c-2.73-4.33-5.2-8.83-7.77-13.26-1.5-2.59-2.7-5.41-4.51-7.76-5.4-7-11-13.74-16.57-20.58-2-2.5-3.69-5.66-6.29-7.28-3.21-2-3.18-4.58-2.59-7.19a122.87 122.87 0 0 1 5-17.87c1.74-4.44 2.61-9 3.8-13.53a34.56 34.56 0 0 1 1.14-4.34c5.43-13.38 7.5-27.62 10.3-41.61 2.15-10.69 2.76-21.68 4.24-32.52a335 335 0 0 0 2.53-34.66 153.22 153.22 0 0 0-2.55-34.73c-.7-3.52-1.71-7-1.93-10.58-.81-11.33-3.66-22.24-7.41-32.9a68.62 68.62 0 0 0-6-12c-1.94-3.26-2.47-3-6.12-1.63-7.32 2.74-10.64 9-13.81 15.34a160.34 160.34 0 0 0-6.74 15.79c-2 5.39-4.64 10.87-5.09 16.46-.5 6.25-4.76 11.53-3.77 17.94-4.19 7.52-3.4 16.21-5.46 24.27-2.63 10.24-3.7 20.93-4.18 31.59-.35 7.68-1 15.35-1.28 23-.27 7 .26 14-.5 20.9a119.24 119.24 0 0 0 .16 30.84 22.11 22.11 0 0 1-.07 7.74c-.9 4.28-.25 8.46.42 12.55 1 6.19.56 7-5.9 6.44a8 8 0 0 0-2.57-.26c-2.75.76-5.63-1.35-8.3.42ZM62.21 365.74c-2.86 0-7.2 3.91-8.1 6.95-2.06 6.95-4 13.94-6.15 20.86-2 6.41-3.41 12.81-2.62 19.61a48.77 48.77 0 0 1-.17 8.45c-.34 5.68-2 11.64-.85 17 1.61 7.17.23 14.28 1.46 21.35a40.48 40.48 0 0 1 .41 12.61c-.62 4.25-.14 8.29.15 12.43.15 2.08.06 4.13 3.23 2.86.56-.22 1.63.3 2.21.77 2.27 1.85 2.6 3.48 1.2 6.82-.78 1.86-1.67 3.49.42 5.09 5.72 4.39 11.71 8.27 18.61 10.62 6.6 2.25 13.07 4.9 19.72 7 4.66 1.46 8.85 3.87 14 4.39 8 .79 15.91 3 23.76 5.07 5 1.28 9.69 4 14.71 4.74 6.58 1 13.22 1.31 19.51 3.77 1.59.62 2.46-.21 2.47-1.85s-.09-3.22-.06-4.83c.07-5.87 2.14-11.21 4-16.73 4.09-12.4 7.42-25 15-35.95a8.78 8.78 0 0 0 .68-1.1c1.94-4.18 1.75-5-1.85-8.55-.76-.76-1.4-1.64-2.1-2.47-4.6-5.43-9.17-10.88-13.81-16.27-.65-.74-2.19-1.83-2.42-1.65-3.25 2.6-7.14.06-10.59 1.52-3.28 1.39-6.88 2.85-10.34 2.84-8.86 0-16.85 3-25 5.71-3 1-6.25 1.55-9.32 2.5a25 25 0 0 0-5.83 2.44 165.82 165.82 0 0 1-26.82 13.82 79.83 79.83 0 0 0-8.51 4.44q-4.21 2.28-8.39 4.66c-2.77 1.58-4-.95-5.27-2.29-1.5-1.64.68-2.7 1.74-3.37A137.33 137.33 0 0 1 70 471.44c7.86-3.89 16-7.15 23.32-12.18 3.29-2.27 3.75-2.1 1.47-5.32a25 25 0 0 1-5-16.3 12.11 12.11 0 0 0-.65-3.78c-1.32-4.73-3.36-9.37-3.94-14.18-1-8.57-2.21-17-6.67-24.55-.14-.25.4-.84.32-1.21A77.89 77.89 0 0 0 71.11 373a14.83 14.83 0 0 0-8.9-7.26ZM373.85 432c-3.46 0-6.91.06-10.37 0a5.15 5.15 0 0 0-5.15 3.19c-.74 1.54-1.32 3.18-2.2 4.63-2.1 3.44-1.31 6.32 1.1 9.31 4.17 5.17 8.12 10.53 12.13 15.83 2.71 3.61 5.76 7 8 10.93 3.86 6.84 7.18 14 10.74 21a38.88 38.88 0 0 1 2.65 5.07c1.49 4.44 2.52 9.05 4.1 13.46a116.19 116.19 0 0 1 6.4 39.89c0 2.81 0 5.63.05 8.44 0 1.86.88 2.59 2.8 2.61 5.61.05 11.21.22 16.81.45 3.65.15 4.18 0 4.23-3.62.15-9.85.84-19.69 1.1-29.52.33-12.69 1.6-25.24 3.06-37.8.29-2.48 1-4.94 1.1-7.42A67.16 67.16 0 0 1 434 469a28.3 28.3 0 0 0 2-9.83c0-3.55.28-7.51 2.24-11a24.87 24.87 0 0 0 2.38-7.94 7.19 7.19 0 0 0-7-8.25c-8.88-.46-17.77-1-26.66-1.25a52.5 52.5 0 0 0-14.09 1c-6.18 1.52-12.66-.05-19.02.27Zm464.23 211.3c.35-9.38-4.07-16.32-11.13-21.94-6.51-5.18-14.16-6.51-22.2-6.79a8.33 8.33 0 0 0-5.37 1.26c-1.38 1-2.43 2.13-4.56 1.17-1-.47-2.83.44-4.17 1a65.1 65.1 0 0 0-21 14.54c-1.52 1.51-3.33 3.12-4 5-2 5.78-6.23 10.65-6.05 17.45.09 3.12-1.08 6.13.94 9.08.55.81.5 2 .73 3.07 1.15 5.14 1.76 10.58 7.88 12.69.49.17.52 1.44 1 2.06a20.08 20.08 0 0 0 14.14 8.37 130.68 130.68 0 0 1 13 2.27c7.78 2 14.77.1 21.12-4.18 6.83-4.61 11.12-11.74 14.58-18.78 3.83-8.05 4.84-17.21 5.09-26.31ZM663 673.36c.91-4.51-1.48-9.26-2.29-14.27-1.36-8.41-6-14.21-13-18.08-9.14-5.12-18.67-5.69-28 .14-2.54 1.6-5.33 2.83-7.78 4.55-2.94 2.06-6.08 4.09-8.33 6.81a120.43 120.43 0 0 0-9.07 13.2 14.83 14.83 0 0 0-2.41 5.86c-.64 5.46-.88 11-1.18 16.46a6.14 6.14 0 0 0 3.05 5.93 18.61 18.61 0 0 1 4.52 4.59c2.66 3.45 5.49 6.45 9.49 8.22 3.17 1.38 6.39 2.67 9.63 3.89 2.66 1 5.19 2.31 8.34 1.48 1.49-.39 3.31.51 5 .8 6.32 1.1 12.41-.51 16.71-4.67 9.5-9.19 15.91-20.21 15.32-34.91Zm-442.39-10c-.23-10-4.26-17.92-10.88-24.81a41 41 0 0 0-3.18-3c-9.53-8.12-19.39-14.61-33-10.15a28.08 28.08 0 0 0-8.86 4.8c-1.36 1.06-2.59 2.27-4 3.24-8.39 5.77-12.26 14.07-12.84 23.9-.23 3.79 1.17 7.66 1.05 11.47a12.07 12.07 0 0 0 3.78 9.29c3 3 5.27 6.4 8.4 9.31 6.72 6.25 13.56 11.11 23 12.29a33.29 33.29 0 0 0 17.13-2.26c4.27-1.71 6.56-5.49 9.58-8.46 3.5-3.44 7-7.07 6.6-12.67-.05-.59.45-1.2.6-1.82.88-3.71 1.76-7.42 2.65-11.13ZM85.2 641.06c-.73-3.24-.6-7.11-2.37-9.62-5.52-7.84-11.7-15.45-20.36-19.92a42.41 42.41 0 0 0-24.73-4.89c-3.57.43-7.23 1.22-10.07 3.69A55.73 55.73 0 0 0 16.58 624c-3.06 5.1-4.36 10.93-5.39 16.8-.81 4.56-1.29 9 1.73 13a5.47 5.47 0 0 1 1 2.35c.66 4.15 3.46 6.82 6.34 9.46 1.06 1 2 2.08 3.17 3 8.29 6.39 17 11.59 28.09 11.06 4-.19 7-3.22 10.51-3.5 7.18-.59 10.09-5.79 13.76-10.44a27.87 27.87 0 0 1 1.84-2.73c5.96-6.12 6.48-14 7.57-21.94Zm734.16-153.65a8.16 8.16 0 0 0 .53-1.93c.18-8.32.2-16.65.51-25 .17-4.71 1-9.4 1.16-14.11q.33-10.07 0-20.13a157.16 157.16 0 0 0-.73-16c-.58-4.55-2.21-9.23-1.63-13.71.81-6.13-2.46-10.67-4.5-15.69-1.29-3.17-8.83-4.76-11.54-2.6-6.19 4.95-11.77 10.42-15.68 17.52a142.12 142.12 0 0 0-7.11 14.31c-2.57 6.22-7.55 11.45-7.73 18.66 0 .28-.81.47-.92.81-1.44 4.26-1.69 9-4.9 12.55 1.29 4.2-3 7.5-1.84 11.73.41 1.5-2.71 3-.52 4.51 1.3.91 3.14 1.06 4.74 1.54a64.34 64.34 0 0 1 7.94 2.38c5.48 2.43 10.82 5.19 16.23 7.79 6 2.86 11.85 5.78 16.58 10.62 2.71 2.74 5.31 5.74 9.41 6.75ZM359.18 665c.23-4.63-.1-9.12-3-12.9-2.7-3.47-5.37-7.13-8.73-9.87-2.55-2.07-6.35-2.52-9.26-4.25-4.72-2.8-10-2.89-15.08-3.52a11.79 11.79 0 0 0-4.32.48 36.91 36.91 0 0 0-18.16 10.42c-3.87 4.13-8 8.06-9.91 13.43-2.3 6.37-5.23 12.75-3 19.84-2 6.49 3.48 10 6 14.66a12.69 12.69 0 0 0 5.77 4.91c4.81 2.15 9.86 3.76 14.86 5.46s10 2.91 15.19 1.58c3.29-.85 6.37-2.5 9.66-3.4 10.75-2.93 14.41-12.16 17.88-21 1.92-4.77 1.47-10.5 2.1-15.84Zm66.58-25.88.05-1.79c-6.68-.79-13.36-1.59-20-2.33a1.21 1.21 0 0 0-1 .65 1.34 1.34 0 0 0 .45 1.09c2.12 1.69 5.63.13 7.24 3.07 1.54-2.07 3.84.52 5.55-.92a3.5 3.5 0 0 1 2.12-.51c1.83 4.14 3.83-.5 5.59.75ZM140.17 445.71v.39l.55-.16ZM402 636.17l.4-.45a6.64 6.64 0 0 0-1-.46c-.1 0-.29.25-.44.39Zm411 333.27-.27.39h.44Zm-449.52-283-.38-.26-.05.42Z" fill="#344286" data-color="1"/>
        <path d="M695.23 874.25a13 13 0 0 0 .57-3.48c-.37-2.95-1.39-5.87-1.45-8.81-.18-8 .16-16 0-24-.08-2.92 2.74-5.71.32-8.67 1.59-8.61-.29-17.2-.09-25.77a252.72 252.72 0 0 1 2.2-28.71c1.36-9.88 1.37-19.75 1.43-29.65 0-4.76 0-9.53.19-14.28.11-2.3.76-4.58 1.43-8.38 1.46 2.4 2.59 3.47 2.75 4.67a122 122 0 0 1 1.42 14.76c.18 13.25 0 26.5 0 39.75 0 10.18-.68 20.34-1 30.5 0 1.66.54 3.34.55 5 0 6.61 0 13.23-.08 19.85-.13 7.19-.5 14.37-.61 21.56-.12 6.91-.37 13.85 0 20.74.53 9-.69 18-.21 27 .2 3.65.51 7.3.58 11s-.36 7.22-.1 10.8c.48 6.73.64 13.52.45 20.2-.19 6.9.38 13.77.09 20.64-.25 5.88.46 11.78-.83 17.66-.38 1.72.85 3.74.89 5.63.13 5.76.16 11.52-.06 17.27 0 1.29-1.24 2.55-1.91 3.82l-.53.79.37-.94c3.27.46.41 2.83 1.26 4-.22.5-1.08 1.42-.9 1.72 2.05 3.44.46 6.08-1.66 8.66 0 0-.25.15-.23.27a6.18 6.18 0 0 0 .35 1.08 6.06 6.06 0 0 0 0 1.25l-.37.45c.07-.21.14-.41.2-.61.45.68 1.29 1.38 1.25 2a13.73 13.73 0 0 1-1.07 3.35 2.89 2.89 0 0 0-.47.2c-.08.06-.1.2-.14.3l.44-.66 1.29 4a3.81 3.81 0 0 0-1.22.08l-.24-.33.39.18a14.39 14.39 0 0 0-1.35 2.87c-.49 2 .73 2.65 2.54 2.54-2.21 1.15-2.45 3.32-2.75 5.43-1.08 7.46-2.13 14.93-3.26 22.89-4.09-3.34-4.35-7.43-4.46-11.59l.32-.42c-.09.16-.18.31-.28.46-.17-.14-.48-.27-.48-.41 0-4.09 1.65-8.12.46-12.27 1.74-1.42.5-3.07.52-4.69.08-5.61.59-11.21.91-16.81.11-1.94.18-3.89.17-5.83 0-8.25.7-16.48.86-24.69.15-7.89 1-15.75.84-23.65-.22-12.65-.17-25.3-.13-37.95q.06-16.27.36-32.55c.07-3.4.63-6.79.79-10.2.21-4.43-.09-8.91.49-13.28.26-1.94-3-2.94-.85-4.91ZM700 968c0-.16-.06-.31-.1-.46l-.21.58Zm1 3.35.28-.39h-.44Zm-1.18 3.38-.23.35.34.05Zm.18 5.44-.27-.21v.33Zm.07 2.64-.3-.21v.33Zm.13 5.15h-.78l.34.41Zm-.44 12.52v.91c.14-.13.39-.26.4-.4s-.16-.33-.37-.54Zm-.23 21.21.34.24.05-.38Z" fill="#344286" data-color="1"/>
        <path d="M514.59 783.16c-2.89.25-2.59 2.5-2.55 4.36 0 1.62-1.36 4.32 2.28 4 0 0 .35 1.1.23 1.17-1.7 1-1 1.95-.47 3.4 2.08 5.27 1.37 10.92 1.61 16.42.17 3.86-.35 7.75-.19 11.62.52 12.89.1 25.77 0 38.65 0 4.63-.48 9.25-.7 13.88-.06 1.25 0 2.5.05 3.76 0 2.75.2 5.51 0 8.26-.22 3.57-.86 7.12-1.07 10.7-.38 6.33-.3 12.7-.9 19a103 103 0 0 0-.11 21.36 48.28 48.28 0 0 1-.67 13.4c-1.24 7.28.05 14.54-.47 21.78-.23 3.19-.94 6.35-1.08 9.53-.17 4.06.23 8.15 0 12.2-.44 8.56-1.11 17.1-1.68 25.64-.21 3.16-.41 6.33-.59 9.49-.17 2.91-.12 5.84-.52 8.71-.78 5.75-1.4 11.45-.35 17.26a15.2 15.2 0 0 1-.41 6.39c-2.24 8.37-2.51 16.95-3.17 25.5a15.62 15.62 0 0 1-.79 4.44 11.1 11.1 0 0 1-2.23 2.72c-.64-1-1.9-2.15-1.83-3.16.5-7.83-2-15.64.13-23.51a49.69 49.69 0 0 0 1.3-10.85c.51-13.36.14-26.8 1.45-40.09 1.35-13.79.73-27.58 1.54-41.35.69-11.77-.32-23.63 1.94-35.31-2.23-8.78-.16-17.49.18-26.25.31-8-.27-16.08-.46-24.13 0-.21-.16-.44-.11-.62 2.7-9.5 0-19.19 1.05-28.78a219.22 219.22 0 0 0 1-22.06c.08-7.44-.8-14.94-.23-22.34a106.74 106.74 0 0 0 .14-17c-.73-8.79.82-17.5.25-26.26-.5-7.67-1.14-15.36 1.13-22.92a7.06 7.06 0 0 0-.09-2.58c-.56-5.33-.57-5.33 1.82-9.85 2.49 6.31 1.36 12.55 1.48 18.68.16 7.27.25 14.55.63 21.81 0 1 1.51 2 2.32 3Z" fill="#344286" data-color="1"/>
        <path d="M595.75 991.77a13.22 13.22 0 0 1-1.45-3.19c-1.13-8.14-2.11-16.25-1.82-24.56.29-8.06 1.72-16 .71-24.25-.74-6.09.63-12.43 1-18.66.12-2.13-.15-4.29.07-6.4.5-5.06-1.19-10.39 1.87-15.16.28-.43-.12-1.26-.08-1.89.67-10.75 1.19-21.5 2.12-32.22.37-4.2-1.35-8.2 0-12.56 1.16-3.89 1.08-8.2 1.15-12.33.17-9.94.27-19.89.09-29.83-.13-7.31-1.53-14.68-.92-21.91s-1.54-13.8-1.59-20.73a7 7 0 0 1 0-1.29c1.88-8.78-.43-17.2-2.12-25.68a4.27 4.27 0 0 1-.05-1.91 20 20 0 0 0 0-11.44 10.62 10.62 0 0 1 .3-5c.22-.89.43-2.29 2.55-1.46 4.87 1.93 5.18 6.33 6.21 10.28.53 2 .06 4.32.27 6.46.37 3.8.92 7.58 1.36 11.37.4 3.39.88 6.78 1.1 10.18.8 12.57 1.63 25.14 2.22 37.72.36 7.84.3 15.7.42 23.55 0 3.63-.2 7.29.18 10.88s-1.92 7.09-.15 10.65c-2.42 12.56 0 25.48-3 38-.78 3.28-1.45 6.67 0 10.1.43 1.07.06 2.5-.09 3.75-1 8.34-3.12 16.74-2.67 25 .34 6.23-.17 12.44 0 18.63.25 8.5-1.48 17-2.32 25.58-.34 3.4-.73 6.8-.82 10.21-.23 6.21-.53 12.34-4.54 18.11Z" fill="#344286" data-color="1"/>
        <path d="M197.76 1055.4c2.51-6.66-.36-14.13-1.1-21.76-.49-5-1.39-10.13-.33-15.22-2.94-11-.1-22.27-2.07-33.41-1.14-6.42.19-13.27.31-19.94 0-1.41-.62-2.84-.6-4.26.1-6.38.21-12.69-1.16-19.06-.71-3.36.86-7.15.95-10.76.09-3.41-.53-6.83-.6-10.26 0-2.65.28-5.32.43-8 .25-4.52.76-9.06.64-13.57-.08-2.94-1.63-5.87-1.56-8.78.14-6 .88-12 1.45-17.95.26-2.76.65-5.5 1-8.24.25-1.68.42-3.28 2.78-3.68a3.83 3.83 0 0 1 4.7 2.49 26.05 26.05 0 0 1 2 14.42c-.61 5.51-1.48 11.31-.43 16.62 1.24 6.28.36 12.34.26 18.46-.2 12-1.81 24 .26 36.09a49 49 0 0 1 0 14.7 55.15 55.15 0 0 0 0 16.82c.59 3.59.22 7.34.15 11-.22 11.23 1 22.38 1.64 33.56a37.39 37.39 0 0 1 .06 6.52c-.48 3.88.39 7.48 1.63 11.09a20.31 20.31 0 0 1 .57 3.13c.83 4.83-1.16 9.56-.25 14.45a86.42 86.42 0 0 1 1.47 14.43c.08 6.41-.4 12.82-.76 19.22 0 .52-.91 1.29-1.51 1.42a3 3 0 0 1-3.73-1.79c-.81-2-2.12-4-2.22-6-.44-9.48-2.68-18.67-4-28a34.82 34.82 0 0 1 .02-3.74Z" fill="#344286" data-color="1"/>
        <path d="M750.32 834.67c.89 1.62 2.19 3.15 2.58 4.88a60.45 60.45 0 0 1 1.66 11.45 142.37 142.37 0 0 0 2.44 21.74 17.83 17.83 0 0 1 .23 1.93c.49 9 .85 18 1.5 27.05.67 9.27 1.73 18.51 2.38 27.78a86.11 86.11 0 0 1 0 14 48.72 48.72 0 0 0 .12 8.2 41.28 41.28 0 0 1 0 10.06c-.62 3.69-.26 7.52-.52 11.22-.53 7.76-.26 15.57-.29 23.26 0 8.07-1.53 16.08-.69 24.21.47 4.55-.69 9.26-1 13.9-.47 5.81-.68 11.64-1.36 17.41-.64 5.52-1.73 11-2.69 16.48-.14.82-.69 1.57-.91 2.4-.66 2.39-2 3.82-4.65 3.44-3-.43-3.12-2.83-3-4.95.37-4.69.2-9.36 1-14.1s1.44-9.92.71-15.09c-.55-3.9.76-8 1.07-12.08.5-6.66 1-13.32 1.22-20s0-13.42 0-20.13v-45.7c0-9.95.9-19.92-1.05-29.8 2.29-4-1.59-8.35.91-12.34.39-.63.15-1.7.11-2.56-.34-8.33-.71-16.66-1.06-25-.36-8.54-.87-17.08-1-25.62 0-3.83.68-7.67 1.06-11.51Z" fill="#344286" data-color="1"/>
        <path d="M509.27 590.93c1.52-3.65 4.86-2.71 7.24-2.15 8.93 2.08 17.56.76 26.21-1.36a34.5 34.5 0 0 1 7.58-1.4c9.67-.15 19.33-.11 29 0a45.43 45.43 0 0 1 7.57 1c.43.09 1 1 1 1.53a1.83 1.83 0 0 1-1 1.39 18.22 18.22 0 0 1-3.15.7 131.68 131.68 0 0 1-28.72 2.68c-6.46-.22-12.65 1.53-19 2-5.69.46-11.35 1.06-17.11.54a121 121 0 0 0-25.38.22c-5.26.62-10.69-.42-16-.42-3.85 0-7.7.48-11.56.74a24.57 24.57 0 0 1-5 .26c-8.76-1.25-17.45-.72-26.24-.24-7.43.41-14.95-.89-22.42-1.46-.63 0-1.24-.43-1.87-.47-8.13-.49-16.25-1.07-24.39-1.37-7-.26-14.06.1-21.14-.7-6.45-.72-13.12-.12-19.64.46-8.53.76-16.92 1-25.39-.87-3.72-.82-7.76-.24-11.66-.27-6.22 0-12.56.61-18.57-1.37-7.83-2.56-16.15-1.59-24-3.68-.41-.11-.88 0-1.29-.12-2.05-.57-4.89-.87-4.77-3.48.13-3 3.1-2.42 5.11-2.35 4.3.17 8.61 1.05 12.88.83 8.24-.41 16.11 1.47 24.07 3a4.88 4.88 0 0 0 1.94 0 36 36 0 0 1 16.57 0c2.93.63 6 .75 8.86 1.44a38.22 38.22 0 0 0 17.89.22 30.34 30.34 0 0 1 10.29-.24c8.85 1 17.69.26 26.53.31 6.57 0 13.13.68 19.7.64 11.41-.05 22.67 2.51 34.15 1.52 4.84-.41 9.79.82 14.69.9 6 .11 12-.6 17.9-.25 6.9.4 13.75 1.57 20.62 2.4 1.65.2 3.54 1 4.89.43 4.53-1.82 9.31.52 13.76-1.19h2.65c.63.5 1.2 1.32 1.9 1.43 3.35.55 6.74 1 10.13 1.31.76.07 1.57-.3 3.5-.71-5.88-1.73-10.6-2.78-15.6-1.89h-1.16Z" fill="#344286" data-color="1"/>
        <path d="M151.15 1010.28c-2.66-2.63-3.06-5.4-3.55-8.42a186.29 186.29 0 0 1-2-34.35 100.22 100.22 0 0 0-2.07-21 6.37 6.37 0 0 1-.22-2.54c2.36-9.59.73-19.31 1.1-29-2.36-5 1.87-10.53-1.21-15.48 2.24-15.33.51-30.77 1.34-46.12.38-7-.28-14-.09-20.93.16-5.94.6-11.86.93-17.8a116 116 0 0 0-.44-12.79c-.37-6.7 1.2-13.52 2.11-20.27.21-1.56 3.16-2.17 4.69-1a8.28 8.28 0 0 1 3.76 7.08c-.11 8.63.15 17.27 0 25.9-.08 4.28-1 8.54-1.06 12.81-.09 4 .37 7.92.62 11.88.1 1.72.7 3.52.36 5.13-2.44 11.56-.68 23.24-1.13 34.84-.14 3.42-.45 6.83-.72 10.24-.05.63-.56 1.33-.39 1.85 2 5.87.79 11.67 0 17.56-.36 2.63 1 5.45 1 8.18 0 9.73-.39 19.45-.28 29.18.06 4.81 1.07 9.61 1.37 14.43.25 4.08.78 8.33-.11 12.22a40 40 0 0 0-.7 10.82c.34 8.54.07 17-2 25.35a10.44 10.44 0 0 1-1.31 2.23Z" fill="#344286" data-color="1"/>
        <path d="M457.38 849.43c2.72 3.74 2.4 8.14 2.44 12.37q.12 15.24-.18 30.49c-.11 5.53-.7 11-1 16.56-.16 3.24-.24 6.5-.09 9.74.34 7.53.93 15.06 1.26 22.59.41 9.17.69 18.35 1 27.52.15 5.16.12 10.33.19 15.49 0 3.12.8 6.14.4 9.38-1.14 9.12-.64 18.31-.05 27.47a20.18 20.18 0 0 1-.6 3.71c-.31 2.31-1.22 4.81-.66 6.91.88 3.31.09 6.35-.43 9.41a164.51 164.51 0 0 0-2 23.35c-.14 5-1.72 10.06-2.59 15.1-.57 3.34-.94 6.71-1.57 10-.35 1.85-.7 4.34-3.28 3.87-2.05-.37-2.74-2.28-2.6-4.56.33-5.55.4-11.13.56-16.7a43.89 43.89 0 0 0 0-5.5c-.58-5.88.48-11.61 1.2-17.41a89.69 89.69 0 0 0 .47-17.64c-.39-5.08 1.17-9.86 1-14.83-.1-3.42-.24-6.85-.2-10.27s.4-6.74.42-10.11c.08-19.61.23-39.23.05-58.84-.06-5.74.88-11.39.36-17.19-.49-5.48.44-11.07.64-16.62 0-1-.61-2.06-.61-3.1 0-2.78.1-5.57.24-8.35s.56-5.55.54-8.32c0-6.13-.51-12.27-.32-18.39a136.61 136.61 0 0 1 1.62-14.52 41.41 41.41 0 0 1 1.61-5.44c1 1.72 1.67 2.82 2.31 3.92l-.39.34c.08-.12.17-.28.26-.43Z" fill="#344286" data-color="1"/>
        <path d="M655 932.79c-2.53-2.6-2.54-4.44 0-6.71l.25.39-.39-.25c-2.66-4.17-.54-8.72-1.06-13.06 1-.37 1.16-.87-.18-1.38.11-5.64 0-11.38 0-17.12a113 113 0 0 1 1.38-17.89c.36-2.23-.3-4.6-.28-6.91.1-10.73.32-21.46.4-32.2.09-12.75 0-25.51.17-38.27 0-3.63.58-7.26 1-12.3a19 19 0 0 1 3.4 10.59 26.15 26.15 0 0 0 .19 5.1c1.6 6.6 1.24 13.29 1.3 20 .08 9.61.48 19.22.26 28.83-.13 5.28.55 10.5.34 15.79s.57 10.6.48 15.9c-.19 11-.83 22-1 32.94-.22 15.78-.17 31.56-.23 47.34 0 1.29.09 2.58.15 3.87.1 2 2.79 4.31-.9 5.7a9.61 9.61 0 0 0 .14 1.17c.24 7.87.74 15.75.65 23.62s-.68 15.55-1.26 23.3q-1 13.44-2.51 26.84c-.17 1.5-1.56 2.86-2.38 4.28v-2.68c.17-.12.49-.3.47-.35a6.71 6.71 0 0 0-.48-.92v-2.64a2.5 2.5 0 0 0 .5-.21c.08-.06.1-.21.14-.33l-.48.7c-1.41.81-.88 1.57.06 2.32 0 .51-.05 1-.07 1.52l-1.28.93 1.27 1.56c0 .46-.09.92-.14 1.38-2 .87-2 1.2.17 4a23 23 0 0 0-.14 5.63c.4 2.56-.77 2.89-2.79 2.52l.09 2.22c-2.51 1.06-2.24 3.55-2.61 5.88-.46 2.9-1.27 5.75-2.19 9.73-1.65-5-1.63-5-1.3-8.71.24-2.78.36-5.58.67-8.35.62-5.7 1.46-11.38 2-17.09.54-6 .88-11.91 1.15-17.88.52-11.73.7-23.48 1.54-35.19a65.48 65.48 0 0 1 1.19-10.47c1.07-4.61.29-9.64.49-14.48.26-6.42.72-12.85 1-19.27.18-3.6.36-7.2.34-10.79 0-1.66-.7-3.31-.68-5a14.86 14.86 0 0 1 1.07-3.73l.35-.39Zm.82 104.76-.78.13c.06 1.13.11 2.27.16 3.4h.62Zm-.28-5.82a7.24 7.24 0 0 0 .43-1c0-.17-.09-.38-.14-.57-.21.14-.59.28-.59.42a4.81 4.81 0 0 0 .33 1.15Zm-2 31.32c-.16-.37-.32-.73-.49-1.09-.16.13-.45.27-.46.41a6.17 6.17 0 0 0 .16 1.12Zm-2.12-5 .44.27v-.44Z" fill="#344286" data-color="1"/>
        <path d="M296.24 605.14c1.85-.67 3.26-2.28 5.75-1.33a27.93 27.93 0 0 0 8.24 1.58c5.89.37 11.8.62 17.7.53a43.16 43.16 0 0 1 14.34 2 20 20 0 0 0 5.52 1.4c11.77.3 23.46.72 35 3.62 4.45 1.12 9.41.14 14.12.37 7 .35 14.07.61 21 1.55 2.42.33 4.59-.12 6.85-.07 6.87.17 13.76.62 20.59 1.42 5.11.59 10.1 1.59 15.22.09a12.74 12.74 0 0 1 4.49-.07c5.72.51 11.5 1.86 17.13 1.4 4-.33 8-1.14 12.07-1.72 9.21-1.32 18.42-2.66 27.67-3.61a64.89 64.89 0 0 1 12.92.18 67 67 0 0 0 21.55-1.26 48.91 48.91 0 0 1 21-.46c.43.09.95.06 1.25.3.95.78 1.82 1.67 2.72 2.51-.86.85-1.6 2.19-2.62 2.46-2.9.77-6 1.78-8.88 1.48-6.22-.64-11.65 2.24-17.51 3.14a49.38 49.38 0 0 1-9.34.49c-4.83-.17-9.59-2.38-14.49-.78-7.42-2.46-14.84.24-22.27.16-6.63-.07-13.27 1.18-19.92 1.56-6 .34-12 .23-17.93.45-2.65.09-5.44 0-7.9.86-6.44 2.17-12.75.45-19-.34a70.67 70.67 0 0 0-14.69.13 80.22 80.22 0 0 1-17.43-.84 105.54 105.54 0 0 0-23.26-.92 26.43 26.43 0 0 1-11.34-1.68c-6.56-2.55-13.38-2-20.08-2.87-4.58-.6-9.42-1-13.52-2.87-6.52-3-13.35-2.79-20.09-3.76-4-.57-8-.82-12-1.66-4.32-.93-8.53-2.38-12.78-3.6Z" fill="#344286" data-color="1"/>
        <path d="M90 974.13c.17 5.88.48 11.76.44 17.65a37.78 37.78 0 0 1-1.21 7.62c-.15.71-1.08 1.89-1.37 1.82a4.82 4.82 0 0 1-2.48-1.59 6.77 6.77 0 0 1-1.11-3c-.79-5.31-1.8-10.62-2.14-16-.65-10.52-.29-21.14-1.56-31.57a105.6 105.6 0 0 1-1-20c1-14.2-.6-28.35-.17-42.53s-.44-28.71.68-43c.82-10.37 0-20.49-.66-30.72-.28-4.26.53-8.58.8-12.87.2-3.22 1.16-6.7.28-9.62-1.55-5.13-.27-9.59 1.38-14.18A7 7 0 0 1 83 774c1.93-2.21 4.34-1.81 5.5.9a5.81 5.81 0 0 1 .64 2.46c-.63 8.91.9 17.78-.83 26.81-1.4 7.32-.19 15.1-.4 22.67-.13 4.48-1.07 8.94-1.1 13.41 0 6.21.61 12.41.68 18.63.14 12.74.09 25.5.11 38.25 0 3.35-.4 6.75.07 10 .83 5.72.54 11.4.24 17.1a94.22 94.22 0 0 0 1 22.36 48.67 48.67 0 0 1 .55 11.41c-.31 5.34.44 10.75.73 16.13Z" fill="#344286" data-color="1"/>
        <path d="M261.15 900.08c-.48 1.36-1 2.71-1.44 4.1-1.45 5.14-2.78 10.32-4.33 15.43a1.27 1.27 0 0 1-2.44.18 16.79 16.79 0 0 1-1.83-6c-.33-5.46-.21-10.94-.37-16.41-.18-6.36.91-12.63 1.23-18.91.42-8.12 2.44-16.3.57-24.51-.75-3.28 1.81-6.61 0-9.91 2-7.67-.3-15.64 1.31-23.22 1.21-5.69 0-11.41 1.11-16.8 1.23-6.24 1-12.42 1.43-18.62.28-3.73.3-7.49.76-11.2.91-7.34 1.87-14.69 3.25-22 .29-1.5 2.32-3.24 3.89-3.72.91-.28 3.08 1.49 3.69 2.8a20.64 20.64 0 0 1 1.9 7.35 83.18 83.18 0 0 1-2 22.32c-.79 3.77 0 7.84-.45 11.81-.92 7.46-1.41 15-2 22.47-.28 3.43-.4 6.87-.67 10.3-.18 2.35-.49 4.69-.77 7-.1.85-.66 1.82-.4 2.51 2.79 7.45-.38 14.83-.29 22.25.12 9.16-.93 18.34-1.46 27.51-.29 5.1-.52 10.21-.78 15.31Z" fill="#344286" data-color="1"/>
        <path d="M315.71 1093.88c-.81.66-1.63 1.85-2.42 1.84a3.1 3.1 0 0 1-2.25-2c-1-5.18-3.58-9.93-3.42-15.51.14-4.62-1.28-9.26-1.75-13.91a136.74 136.74 0 0 1-.88-14.15c0-8.61.08-17.24.69-25.82 1-14.94 1.18-29.92 3.13-44.82 1.6-12.27 2.05-24.69 3-37 .6-7.9 1.13-15.8 1.72-23.7a12.83 12.83 0 0 1 .61-3.15c.18-.55.89-1.4 1.18-1.33.78.18 1.82.63 2.08 1.26a10 10 0 0 1 .63 3.78c.05 10.95.89 22-.29 32.82-.75 6.91.84 14.08-2 20.76 1.16 6.31-1.18 12.52-.36 18.89 1.25 9.77.07 19.6.07 29.41 0 13.81-.26 27.64.16 41.45.26 8.56 1.57 17.1 2.37 25.66.21 2.18.38 4.42-2.21 5.52a2 2 0 0 0-.22-.52c-.08-.08-.27-.06-.41-.09Z" fill="#344286" data-color="1"/>
        <path d="M227.23 581.55c-5.87-1-11.58-2-17.32-2.86a81.2 81.2 0 0 0-9.55-1.11 52.54 52.54 0 0 1-15.53-3.19c-8.27-2.83-16.73-5.44-25.61-6a31 31 0 0 1-5.62-1.27c-1.23-.33-2.45-1.21-3.64-1.15-8 .44-14.7-3.08-21.77-6a49.13 49.13 0 0 0-18.6-3.14 23 23 0 0 1-12-3.76c-5.45-3.32-11.59-4.41-17.16-7.07a73 73 0 0 1-7.87-4.18c-3.75-2.44-7.36-5.11-11-7.8a11.69 11.69 0 0 1-2.55-2.91 1.88 1.88 0 0 1 0-1.74 2.14 2.14 0 0 1 1.7-.62 6.44 6.44 0 0 1 2.33 1c1.08.69 2.06 1.56 3.12 2.29 6.49 4.47 12.9 9 20.8 10.92 2.83.69 5.28 2.79 8 3.93 4.7 2 9.46 3.81 14.31 5.37a4.74 4.74 0 0 0 4.14-.94c2.13-2.52 4.89-1.92 7.13-1.47 7.7 1.55 15.3 3.59 22.92 5.48 2.62.65 5 2.24 8 1.1.76-.3 2 .59 3 .9a48.5 48.5 0 0 0 12.19 2.11c5.57.3 11.16 2.54 16.5 4.59a51.39 51.39 0 0 0 18 3.85c6.85.08 13.51 1.71 20.09 3.62 3 .88 5.68 2.84 9.16 2.06 1-.23 2.6.68 3.43 1.54a6.42 6.42 0 0 1 1.77 3.75c0 .56-1.74 1.5-2.82 1.8a48.6 48.6 0 0 1-5.55.9Zm-109.66-27.87c.53-.63 1.25-1.15 1.18-1.49a5.73 5.73 0 0 0-1.15-1.76c-.42.31-1.23.73-1.18.92a12.75 12.75 0 0 0 1.15 2.33Zm2.78 1.43-.33-.22v.36Zm10.16 2.89.27-.42h-.47Zm4.22.8c-.12-.07-.27-.22-.36-.19a1.35 1.35 0 0 0-.4.33l.74.23c0-.12.01-.25.02-.37Z" fill="#344286" data-color="1"/>
        <path d="M597.24 612.28c1.73-3 3.64-4.18 6.9-4.47a150.78 150.78 0 0 1 20.51-.77c3 .15 6.43.51 9.62-.44 3-.88 6.21-1.05 9.09-2.17 7-2.7 14.34-2.09 21.56-2.61 1-.07 2.05-.1 3.06-.23 14.59-1.85 29-4.68 43.47-7.24 5.52-1 10.9-2.93 16.86-2.4 3.54.31 7.29-2.14 11-3.06a10.19 10.19 0 0 1 5 .06c1.82.51 2 2.88.51 4.17a2.4 2.4 0 0 1-.53.37c-9.06 4.46-18 9.12-28.34 10.09-4 .38-8 1.3-12 2.06-3.8.72-7.61 1.39-11.34 2.36a69 69 0 0 1-17.88 2.1c-2.93 0-5.85 1.11-8.79 1.22-5.52.2-11.06 0-16.59 0-4 .06-8.19-.86-11.72 2.15-.53.46-1.65.29-2.5.32-10 .36-20 .9-30.07.93-2.56.06-5.13-1.54-7.82-2.44Z" fill="#344286" data-color="1"/>
        <path d="M363.7 1006.62c-.29 4.43-1 11.71-1.17 19a90.82 90.82 0 0 0 1 13.46c.59 4.61-1.43 9.62 2 13.79-1.77 4.06 0 8 .46 12 .8 6.45.56 13 1.4 19.41.3 2.32.95 4.6 1.23 6.92.25 2.13-.15 3.9-3 3.78a3.81 3.81 0 0 0-2.3.93c-1.32 1.09-2.44.85-3.23-.43-1.79-2.89-3.78-5.63-3.89-9.36-.18-6.23-.73-12.45-1.27-18.66-.25-3-.92-5.9-1.24-8.87a78.48 78.48 0 0 1-.22-12.27c.13-2.71-.93-5.47-1.05-8.22-.46-9.83-.2-19.69.11-29.51.26-7.89 1.43-15.74 2.13-23.61.11-1.27-.29-2.58-.14-3.84a34.53 34.53 0 0 1 1.08-4.29c2.73 2.26 1.31-1.55 2.41-1.64.57-.05 1.45-.28 1.64 0a14 14 0 0 1 2.11 3.61c2.89 8.11 1.39 16.58 1.94 27.8ZM357.08 980l-.4-.44-.43.42.62.44Z" fill="#344286" data-color="1"/>
        <path d="M90.69 572.55c2.65 1.12 5.33 2.26 8.28 1.7 3.51-.67 6.69.59 10 1.42.62.16 1.31.76 1.8.61 4.32-1.29 8.1 1.22 12.18 1.63s8 1.32 12.08 1.79c4.25.49 8.58.44 12.79 1.11 7.15 1.13 14.29 2.43 21.34 4.06 5 1.14 9.58 2.67 14.95 1.32 3-.76 6.68.74 10 1.4s6.66 2 10 2.2c3.2.16 5.08 2.23 7.33 3.69a2.8 2.8 0 0 1-.77 5 28.5 28.5 0 0 1-8.23 1c-2.75-.06-5.47-.83-8.22-1.21-5-.69-9.92-1.52-14.91-1.93-6.58-.55-12.79-2.48-19-4.44-9.25-2.92-18.94-3.52-28.39-5.36-6-1.17-12.35-1.38-17.73-4.91l11.55 1.59c-6-3.36-20.14-7-25-7 1.36 2.89 4.27 2.39 6.58 3.16s4.72 1.62 7.08 2.44a34.64 34.64 0 0 1-14.87-2c-3.77-1.4-8-1.72-11.57-3.47C81.07 573 74.5 569 67.81 565.19c-1.11-.63-2.24-2.17-3.19-2-5 .72-6.41-4.42-10-6-.62-.27-1-1.85-.91-2.8 0-.69.84-1.44 1.48-1.93.18-.14 1 .49 1.49.81 2.13 1.36 4.27 2.73 6.39 4.11 4.85 3.14 9.66 6.35 14.54 9.44 2.9 1.84 5.85 3.64 8.91 5.18 1.25.62 2.87.5 4.32.71Zm41.77 11.73 2.34 1.26.41-.81c-.76-.15-1.52-.3-2.28-.42a1.66 1.66 0 0 0-.6.13c-1.16-1.58-2.54-1.85-4.15-.16Z" fill="#344286" data-color="1"/>
        <path d="M411.32 861.41c-.56-1.25-1.5-2.45-1.63-3.74-1.11-10.89-4.46-21.52-3.88-32.61.29-5.55 1-11.12.79-16.66-.5-15.4.45-30.78.58-46.17.07-7.17 0-14.32 0-21.49 0-4 .25-7.91.44-11.86a5.83 5.83 0 0 1 .49-2.36c.88-1.7 2-3.87 4.13-3.15a5.38 5.38 0 0 1 2.89 3.82c.71 5.95 1.14 11.94 1.35 17.94.2 5.81.09 11.64 0 17.46-.07 3.72-.49 7.44-.58 11.16-.18 8-.12 15.91-.37 23.86q-.56 17.35-1.42 34.7a26.25 26.25 0 0 1-1.27 8.24c-1 2.47.09 4.59-.08 6.84a28.16 28.16 0 0 1-1.24 6 6.22 6.22 0 0 0 .91 5.47c.32.53-.12 1.52-.21 2.3Z" fill="#344286" data-color="1"/>
        <path d="M204.63 830.61a5.12 5.12 0 0 1 .13 1.92c-.74 2.13-1.63 4.21-2.46 6.3-2.84-.76-2.8-3.4-3.44-5.5a80.58 80.58 0 0 1-2.18-8.69 22.46 22.46 0 0 1-.21-5.62c.48-6.2 1.16-12.38 1.64-18.58.57-7.42 1-14.84 1.53-22.27 0-.62.58-1.31.42-1.84-2.24-7.56.35-14.8 1.67-22.06.91-4.92.15-9.73 0-14.54-.31-7.75 1.63-15 3.62-22.28a5.54 5.54 0 0 1 2.92-3.94c2.45-1.25 4.29-.33 4.45 2.41a35.18 35.18 0 0 1-.25 7.11 119.84 119.84 0 0 0-1.37 21.77c.19 5.66-1.88 11.37-2.55 17.1a58 58 0 0 0-.36 13.22 29 29 0 0 1 0 7.45c-.76 5.69-.56 11.5-1.3 17.19-1 7.55.14 15.29-2.58 22.73-.86 2.34.26 5.39.48 8.11Z" fill="#344286" data-color="1"/>
        <path d="M317.07 772.77c-.34 6.32-.7 12.64-1 19 0 .56.28 1.54.63 1.64a2.38 2.38 0 0 0 1.86-.5c1.14-1 2.13-2.09 3.18-3.15 2 2-.69 3.29-.78 4.89-.17 2.8.31 5.63.38 8.46 0 .61-.35 1.61-.8 1.79-2.65 1.07-.71 2.91-.86 4.38l-1.12 1 .65.47c.1-.54.21-1.09.31-1.63.34 1.17 1.13 2.42 1 3.49-.48 2.71-2.63 5.84-1.82 7.9 1.11 2.84-.75 4.72-.51 7.09a77.59 77.59 0 0 1-.09 8.35c0 3.21-.16 6.42 0 9.61.6 11.06-1.2 21.91-2.79 32.77a4.69 4.69 0 0 1-2.52 3.14 3.45 3.45 0 0 1-4.7-2.29c-1-3.69-2.18-7.47-2.27-11.23a68 68 0 0 1 1.23-15.2c1.45-7-.25-14.1 1-21.1.72-4.12 2.88-8.28.31-12.51 2.44-7.92-.55-16.36 2.63-24.34 1.34-3.38.8-7.51 1.13-11.3.13-1.63-.55-3.61 1.85-4.29.16-.05.16-.62.23-1-5.27.12-1.33-3-1.24-4.27a90.94 90.94 0 0 1 2-12.22c.15-.73 1.41-1.23 2.16-1.84l1.35 1.33c-.59 3.81-1 7.74-1.45 11.66l-.55-1-.64 1-.39.39c.08-.19.16-.38.23-.57Zm-1.32 28.57a2.52 2.52 0 0 0 .21.54c.06.08.25.08.37.13l-.71-.54-1.94-2.11c-.13.61-.5 1.29-.34 1.8.59 1.9 1.59.15 2.41.18Zm-1.56 6.52-.81.12V813h.81Zm2.74-11c-.16.31-.51.7-.42.91s.57.41.87.6c.15-.31.48-.69.4-.93s-.55-.37-.85-.56Zm-.35-30.18c0-.17 0-.33-.07-.5-.12 0-.35.06-.35.09a2.26 2.26 0 0 0 .08.51Zm-1.39 9.77.43-.39-.4-.42-.44.6Zm3.58 37.25.3.22.06-.32Z" fill="#344286" data-color="1"/>
        <path d="M614.51 588.57c6.24-7.31 14.75-7.54 22.85-8.42s16.2-.84 24.28-1.5a79.47 79.47 0 0 0 13.93-2.14c9.23-2.43 18.62-3 28.06-3.88a128.17 128.17 0 0 0 26.12-5.63c4.2-1.31 8.79-1.35 13.18-2.11 2.54-.43 5-1.22 7.55-1.7 1.44-.28 3.06-.69 4.38-.3s2.31 1.71 3.45 2.62c-1 1-1.76 2.41-2.94 2.89-8.74 3.57-17.49 7.16-27.14 7.47a7 7 0 0 0-1.89.11c-7.78 2.48-15.82 3.22-23.9 3.68-4 .23-8.08.17-12.08.62-5.5.61-11 1.61-16.42 2.38-7.18 1-14.38 1.9-21.56 2.92a18.21 18.21 0 0 0-3.59 1.13c-.58.21-1.16.93-1.65.85-8.7-1.55-16.9 1.52-25.3 2.71-2.79.41-5.33.06-7.33-1.7Z" fill="#344286" data-color="1"/>
        <path d="M547.12 1035.39a82.93 82.93 0 0 1 .08-20.16c.59-4 1.3-8.49-1.34-12.36 2.34-.51 1.4-2.36 1.34-3.9a3.58 3.58 0 0 1-.18-1.44c-.57-2 1.34-4.75-1.29-6.5-2.06-5.7.33-11.68-.2-17.59a7.28 7.28 0 0 1 1.64-.52 14.07 14.07 0 0 0 0 2.51c0 .23.72.38 1.11.56 0-1.13 1.89-3.06-1.21-2.93v-1.36c1.24-2.32 1.24-2.32-.13-6 .16 3 .24 4.52.33 6.1-2.38.32-2.35-1.53-2.33-2.92 0-2.55.65-5.1.55-7.64s-1-4.88 1.42-6.76a1 1 0 0 0 0-.93c-3.4-5.71-2-12-2.07-18.07-.19-12.86 1.22-25.78-.31-38.56-.9-7.49-.06-14.86-.45-22.28-.27-5.24.3-10.53.65-15.78.09-1.32-.27-3.62 1.89-3.37 1 .13 2.47 1.94 2.67 3.16.74 4.5.78 9.11 1.57 13.59.86 4.9-.42 9.68-.22 14.52.39 9.52.91 19 1 28.57.11 9.31 1.22 18.63-.25 28-.45 2.86.69 5.92.58 8.87-.41 10.75-1.59 21.5-1.41 32.23.13 7.42-1.81 14.76-.35 22.23.47 2.38-.58 5-.75 7.59-.44 6.34-.73 12.7-1.19 19 0 .7-.83 1.34-1.27 2Zm.61-56.78a13.06 13.06 0 0 0-.62 2c0 .32.23.68.36 1 .28-.34.78-.67.8-1a7.07 7.07 0 0 0-.54-2Zm-.43-33.86v1.66c0 .15.26.28.4.41a9.81 9.81 0 0 0 .59-1.47c.04-.08-.47-.3-.99-.6Zm0 18.18a14.15 14.15 0 0 0 0 1.63c0 .15.25.27.39.4a9.57 9.57 0 0 0 .61-1.44 5.62 5.62 0 0 0-1.01-.59Zm.55 21.92a1.94 1.94 0 0 0 .17-.55c0-.07-.25-.13-.39-.2a1.85 1.85 0 0 0-.15.53c-.01.08.23.15.36.22Zm-.41-43.73.39.27v-.45Zm0 7.77.42.27v-.46Zm.74 7.72-.4-.43-.43.41.62.44Zm-.18-45.35-.35-.24v.41Z" fill="#344286" data-color="1"/>
        <path d="M405.51 910.59c1.68-5.93 3.62-11.77 3.36-18.12a21.42 21.42 0 0 1 1.75-8.34c.25 2.64.52 5.29.75 7.94.36 3.92 1.07 7.86.94 11.77-.19 5.72-1.5 11.44-1.36 17.14a116.9 116.9 0 0 1-.57 13.12c-.83 9.64.14 19.35-1.92 29-.85 4-.13 8.46-1.65 12.53l-.38.39.22-.55c2 4.47 1 9.12.73 13.7-.12 2-.51 4-.78 5.94a7 7 0 0 1-.71.88l.89.5c-.19 1.27-.07 2.71-.24 4.11-.22 1.85-1 3.66-1 5.5-.23 10.06-.22 20.12-.48 30.18-.25 9.86 1.1 19.75.43 29.51-.48 7 1.38 13.68.83 20.56-.22 2.74-.17 5.45-1.48 8.22-.64-.76-1.38-1.24-1.4-1.73-.32-8.87-1.21-17.78-.63-26.6.54-8.31-1.3-16.41-.88-24.63.17-3.17.7-6.32.94-9.49.06-.8-.51-1.62-.56-2.44-.22-3.33-.39-6.66-.49-10a78.36 78.36 0 0 1 .24-10.07c.71-7.19-1.22-14.38.74-21.6.78-2.86-1-6.31-.9-9.48.18-7.32 1-14.62 1.17-21.94.26-8.72.46-17.41 1.07-26.13.44-6.45 1.12-12.81 2.11-19.17 0-.22-.57-.54-.87-.81Zm5.83-10-.24.31.37.06Z" fill="#344286" data-color="1"/>
        <path d="M556.28 729.78c-.54 4.22-1.74 8.49-1.46 12.67.34 5.22-.42 10.33-.62 15.47-.3 7.85-1.61 15.66-2.12 23.51-.34 5.3 0 10.64 0 16 0 4.26-.18 8.52-.46 12.77a4.48 4.48 0 0 1-4.78 4.54c-1 0-3.09.95-2.89-2.41.41-7-.34-14-.64-21 0-1-.54-2.1-.33-3 1.88-8.41 1.66-17 2.24-25.53.4-5.93.58-11.89 1-17.82.3-4.06 1.11-8.09 1.32-12.15.41-7.86.48-15.75.86-23.61a22.94 22.94 0 0 1 1.35-6.08 2.61 2.61 0 0 1 2.18-1.06c.57 0 1.33 1 1.53 1.62a22.56 22.56 0 0 1 1 5.05c.47 7 .81 14 1.2 21Z" fill="#344286" data-color="1"/>
        <path d="M362.61 827.46c-3.75-8-2.41-16.35-1.8-24.64s1.57-16.62 2.14-25c.88-12.74.56-25.58 3.09-38.21.53-2.65.46-5.42.78-8.12.2-1.62 0-3.54 2.69-3.52 2.2 0 3.05 1 3.23 3.07.32 3.82 1.13 7.62 1.14 11.43 0 5.29-.45 10.58-.81 15.87-.41 5.85-1.42 11.71-1.26 17.54.1 4 .91 7.8-.23 11.93-1.05 3.76.38 7.9-.22 11.93-1.12 7.56-1.78 15.19-2.86 22.76-.47 3.36-2.62 4.83-6 4.78Z" fill="#344286" data-color="1"/>
        <path d="M362.42 960a12.9 12.9 0 0 0-2.18 1.32c-2.37 2.16-3.88 2.12-4.69-.46a15.63 15.63 0 0 1-.51-5.11c.38-11 .58-21.92 1.37-32.84a311.22 311.22 0 0 1 4.59-37.47c.78-4 .22-8.16.56-12.23s.82-8.17 3.75-11.37c1.72-1.88 3.42-1.46 4.34 1a5.28 5.28 0 0 1 .48 1.87c-.22 7.06.09 14.19-.87 21.14-1.62 11.63-3.25 23.2-3.43 35a153 153 0 0 1-2.48 26.73c-.27 1.41-.12 2.89-.25 4.33-.21 2.29-.48 4.57-.73 6.86-.71.39-1.12.91.18 1.39Z" fill="#344286" data-color="1"/>
        <path d="m259.83 1062.68 1.23 5.24c-.18-.32-.54-.49-.82-.76s-.75-.86-1.12-1.3c-.17.52-.62 1.33-.44 1.51a18.56 18.56 0 0 0 2.55 1.9 2.73 2.73 0 0 0-.22 1.21c-1.52.07-2.64.42-2.21 2.69a38.86 38.86 0 0 1 .49 8.14 2 2 0 0 1-4 .48c-.88-3.1-1.47-6.29-2.15-9.45-2-9.23-3.34-18.46-2.39-28 .48-4.84-.43-9.82-.51-14.73 0-2.08.66-4.17.71-6.25.32-12.34.5-24.69.81-37 .1-3.84 0-7.79.81-11.49.6-2.63 2.67-4.92 4.41-7.93.56 2 1.26 3.44 1.29 4.87.16 6.43.11 12.87.17 19.3 0 4.36.78 8.83 0 13s1.85 8.22-.56 12.12c1.87 2.29.16 4.84.46 7.28.17 1.32-.74 2.78-1.16 4.17l-.29-.4.44.25c.94 1.68.52 2.64-1.47 2.76.33 2.34.78 4.8 1 7.28a55.53 55.53 0 0 1-.14 6.94c-.1 2.65-.35 5.31-.33 8a22.44 22.44 0 0 0 .66 6.19c.45 1.47 1.79 2.68 2.73 4l-2.21.59.69.86Zm-4.08-88.89c-.15-.34-.3-.69-.46-1-.21.3-.57.59-.6.91s.3.66.47 1Z" fill="#344286" data-color="1"/>
        <path d="M589.86 1019.55c1.51 1.72 3.2 2.78 3.5 4.14 1.17 5.43 2 11 2.79 16.46s-.3 10.92-.71 16.38c-.46 6.06-.37 12.15-.58 18.23-.13 3.6.08 7.2-2.17 10.49-1 1.49-1.17 3.63-1.48 5.51-.86 5.2-.81 5.2-7.05 6.42v-12.47c0-.85-.44-1.94-.06-2.51 3.21-4.89.8-10.17 1.23-15.24.68-8 1.38-16 1.86-24.09.14-2.26-.64-4.55-.72-6.85-.2-5.41 1.53-10.46 3.39-16.47Z" fill="#344286" data-color="1"/>
        <path d="M454.76 815.72c-.84-3.61-2.06-6.66-2.15-9.74-.17-6.16-.46-12.48.65-18.48a143.88 143.88 0 0 0 2.23-26c0-4.11 1.62-8.25 2.74-12.31a3.16 3.16 0 0 1 2.41-1.73c.62 0 1.63 1.26 1.85 2.12 1.4 5.27 2.22 10.59 1.42 16.1a40 40 0 0 0-.26 8.68c.69 9-1 17.93-1.48 26.89a28.38 28.38 0 0 1-2.48 9.59c-.77 1.72-2.87 2.9-4.93 4.88Z" fill="#344286" data-color="1"/>
        <path d="M749.14 792.3c-2.25-6.39-1.61-13.13-1.8-19.78-.23-8 .17-16-.34-23.95-.8-12.62-2.15-25.21-3.24-37.82a12.7 12.7 0 0 1 .33-2.37c2.83 1.35 3.45 3.78 4.11 6.12a127.72 127.72 0 0 1 4.49 27.2c.81 13.55 1.11 27.13 1.46 40.69.11 4.07-.53 8.05-5.01 9.91Z" fill="#344286" data-color="1"/>
        <path d="M150.6 1032.09c1 .94 2 1.42 2.15 2.11 2 6.9 5.22 13.32 5.21 21a135.25 135.25 0 0 0 2.69 28.67 9.84 9.84 0 0 1 .06 4.45 4.49 4.49 0 0 1-2.31 2.56c-1.65.76-2.2-.68-2.55-2-.51-1.84-1-3.68-1.41-5.55-1.52-7.49-1.62-15.24-4.27-22.52 1.41-6.4-1.11-12.59-1.06-19 .02-3.13-1.11-6.33 1.49-9.72Z" fill="#344286" data-color="1"/>
        <path d="M86.88 747.6c-.73-3.71-1.83-7.38-2.11-11.12a92.05 92.05 0 0 1 1.9-28.79c.59-2.41.07-5.08.15-7.63.07-2.72.29-5.44.37-8.16s2.37-2.2 3.82-2.25c.57 0 1.7 1.78 1.74 2.78.4 9.58 1.25 19.05-1.39 28.65-1.55 5.64-.64 11.95-.8 18-.11 3.92-.08 3.92-3.68 8.52Z" fill="#344286" data-color="1"/>
        <path d="M97.08 1064a12.33 12.33 0 0 1 0 2.58c-.38 1.69.83 4.54-1.93 4.55-1 0-2.5-2.71-3-4.41-1-3.66-1.27-7.56-2.41-11.18-3-9.45-2.28-19.48-4.89-29a3.39 3.39 0 0 1 0-.64c-.42-4.15.7-8.06 2.33-8.13 1.24-.05 5.28 5.11 5.52 7.38.67 6.37 1.15 12.76 1.81 19.13.42 4 1 8.07 1.55 12.08.37 2.53.92 5 1.39 7.54Z" fill="#344286" data-color="1"/>
        <path d="M111.34 674c-.6-3.17-1.39-5.36-1.35-7.54.13-7 .48-14 .9-21.06.32-5.45.93-10.89 1.3-16.35.1-1.51.46-2.41 2.12-2.51 1.49-.09 2.16.4 2.67 1.94 2.64 7.9 2.22 16 1.89 24.11-.12 2.86-.41 5.72-.56 8.58C118 668 118 668 111.34 674Z" fill="#344286" data-color="1"/>
        <path d="M404 674.49c-.07 6 0 12-.28 18a64.37 64.37 0 0 1-1.46 9.53c-.13.69-1 1.72-1.57 1.72-.94 0-2.47-.45-2.71-1.09-1-2.7-2.15-5.54-2.2-8.34-.09-5.76.38-11.55.84-17.3.32-4 .94-8.08 1.59-12.09a4.67 4.67 0 0 1 1.53-2.75 2.82 2.82 0 0 1 2.42.38c.9 3.95 1.59 8 2.33 11.95Z" fill="#344286" data-color="1"/>
        <path d="M786.17 896.33c-.29-5.25-.9-10.52-.77-15.77.11-4.22-1.4-8.81 1.88-12.65.12-.14-.6-1-.93-1.56 1.3-3 2.21-7.66 1.51-10.33s-1-5.11.92-7.43c1.16 1.06 2.44 1.86 3.1 3 .29.51-1.26 2.21-1 2.55 1.14 1.38 1.13 1.91-.17 3.43-.87 1 .16 3.56.11 5.41-.29 11.41-.55 22.83-1 34.25-.49 12.2-1.19 24.4-2.31 36.61v-33.47l-1-.06-.51 10.13c-.24-4.77-1.68-9.55.27-14.23l.36.37Zm.88-7.89v-1.1h-.29v1.09Z" fill="#344286" data-color="1"/>
        <path d="M785.7 755.61q.42-10.74.83-21.47c0-.22-.09-.48 0-.64.8-1.4 1.49-3.8 2.49-4 2.53-.37 2 2.18 2.21 3.73 1.09 7 2.91 13.87 1.4 21 2.27 4.75.24 9.2-.94 13.7a7.68 7.68 0 0 1-.78 2.44c-.44.63-1.48 1.48-2 1.32-.83-.28-2-1.18-2.05-1.94-.37-3-.38-6-.52-9-.08-1.72-.15-3.43-.23-5.15Z" fill="#344286" data-color="1"/>
        <path d="m541.78 1056.23-1.07-2.67c1.63.56 3.38 1 5.13 1.45-.57 8.09-1.6 16.34-1.25 24.54.28 6.5-1.85 12.59-1.78 19 0 .76-1.11 1.53-1.71 2.29-.58-.58-1.59-1.1-1.69-1.76-.75-4.85-3.95-9.7.07-14.62.62-.76.28-2.43.17-3.66-.37-4-.74-7.91 1.09-11.66-1.89-3 .61-5.86.23-8.85-.16-1.33.61-2.78 1-4.18a2.19 2.19 0 0 0 .18.47c0 .09.2.11.31.15-.26-.18-.46-.34-.68-.5Z" fill="#344286" data-color="1"/>
        <path d="M781.53 560.63c-.48-.39-2-1-2.39-2.12-.29-.7.75-2.22 1.55-3a15.16 15.16 0 0 1 3.32-2c7.27-4.09 14.52-8.23 21.85-12.24 1.15-.63 3.29-1.34 3.83-.82 1.52 1.46 1.38 3.5-.22 5.12a55 55 0 0 1-5.11 4.91c-5.77 4.51-12.66 6.87-19.28 9.73-.75.36-1.69.24-3.55.42Z" fill="#344286" data-color="1"/>
        <path d="M705.33 687c-.18 3.68-.21 6.16-.43 8.61a6.78 6.78 0 0 1-3.5 5.7c-1.79 1-2.77.76-3.25-1.27a44.39 44.39 0 0 1-1.25-5 128 128 0 0 1-1.12-12.81 42.55 42.55 0 0 1 1.14-9.24 4 4 0 0 1 2.53-2.2c1.78-.54 2.65.59 3 2.35.99 5.07 2.07 10.07 2.88 13.86Z" fill="#344286" data-color="1"/>
        <path d="M651.54 748.84c0-2.16-.12-4.31 0-6.45a5.09 5.09 0 0 1 7.59-4 2.9 2.9 0 0 1 1.27 2.07c0 6.53 0 13.06-.16 19.59a5.14 5.14 0 0 1-.79 2.37c-.64 1.07-1.48 2-2.23 3-1.56-1.3-4.1-2.34-4.5-3.93-1-4.08-1.1-8.41-1.55-12.64Z" fill="#344286" data-color="1"/>
        <path d="M152.27 723.1a15 15 0 0 1 .63 3c.1 8 .14 15.94.17 23.9 0 .86.18 2-.28 2.53A35 35 0 0 1 149 756c-.27-1.06-.51-2.12-.81-3.17a42.67 42.67 0 0 1-.52-21.75c.67-2.84 2.21-5.48 3.35-8.21Z" fill="#344286" data-color="1"/>
        <path d="M770.91 583.81c5.29-2.35 9.9-4.5 14.6-6.44 3.22-1.33 6.55-2.43 9.88-3.47a8.6 8.6 0 0 1 2.88.14c-.11 1.18.2 2.63-.38 3.5-3.11 4.7-17.95 10.17-23.33 8.65-1.13-.31-2.06-1.31-3.65-2.38Z" fill="#344286" data-color="1"/>
        <path d="m271.54 725.92-2.67 1.45-.79-1.34.89 1.26c-3.18 2.27-3.44 2.3-3.78-.81-.7-6.41-1.67-12.85-.42-19.29.13-.71 1-1.28 1.51-1.92.41.55.83 1.09 1.22 1.65.72 1 1.18 2 2.93 1.13 2-1 3.41-.16 3.2 1.54-.67 5.5-1.48 11-2.24 16.48Z" fill="#344286" data-color="1"/>
        <path d="M263.42 654.16c1.32 2.13 2.53 3.22 2.63 4.4.58 6.85.93 13.72 1.26 20.59.07 1.47-2.57 3.84-3.78 3.28a3.93 3.93 0 0 1-1.94-2.83c-.39-8.09-.34-16.18 1.83-25.44Z" fill="#344286" data-color="1"/>
        <path d="M699.26 372.64c1.7-7.5 7-11.18 13-14.16a4.08 4.08 0 0 1 2.48.1c2 .52 2.61 2.24 1.14 3.77-4.51 4.7-8.88 9.65-16.62 10.29Z" fill="#344286" data-color="1"/>
        <path d="M493.2 245.67c-3.2-1.86-3-4.5-3-7.13-.05-3.47-.16-7 2-9.95a3.15 3.15 0 0 1 2.68-1.16c1 .38 2.33 1.61 2.37 2.52.11 2.53-1.11 5.31-.45 7.59 1.11 4.04-1.08 5.98-3.6 8.13Z" fill="#344286" data-color="1"/>
        <path d="M409.39 1092.5c1-18.52-1.69-37.27.92-55.94 0 3.8-.12 7.61 0 11.42.19 5 .63 10 .87 15 .05 1-.44 2-.47 3-.1 3-.6 6.09 0 9a31.42 31.42 0 0 1-1.32 17.52Z" fill="#344286" data-color="1"/>
        <path d="M709.28 345.1c-.43-.47-1.38-1.07-1.69-1.91-.82-2.22-.35-4.39 1.78-5.59 3.13-1.75 6.4-3.24 9.69-4.69a2.29 2.29 0 0 1 2.14.52c.45 1 1 3 .51 3.34-3.62 2.89-7.46 5.49-11.25 8.17-.15.11-.41.06-1.18.16Z" fill="#344286" data-color="1"/>
        <path d="M694 353.4c.35.25 1.17.51 1.3 1a2.51 2.51 0 0 1-.27 2.15q-6.22 5.5-12.67 10.76c-.39.32-1.56.07-2.11-.3s-1.09-1.46-.89-1.81c3.18-5.56 8.19-9 13.78-11.8.12-.12.37-.02.86 0Z" fill="#344286" data-color="1"/>
        <path d="M454.16 471.52a8.73 8.73 0 0 1-1.44-7.79 76 76 0 0 1 3.71-10.89c.31-.78 1.58-1.19 2.41-1.76.39.89 1.14 1.8 1.1 2.67-.25 6.09-2.59 11.51-5.78 17.77Z" fill="#344286" data-color="1"/>
        <path d="M450.83 505.38c1.13-4.32 2-8 3.15-11.7a2.3 2.3 0 0 1 1.87-1.27 3.87 3.87 0 0 1 2.47 1.57 5 5 0 0 1 .32 3.1 80.78 80.78 0 0 1-2 8.71c-.48 1.6-1.45 3.56-3.6 2.61-1.04-.46-1.58-2.11-2.21-3.02Z" fill="#344286" data-color="1"/>
        <path d="M497 205.39c-3.55-5.47-.58-10.15 1.85-14.79a1.55 1.55 0 0 1 2.95.19 18.23 18.23 0 0 1 .19 7.35c-1.11 5.25-1.32 5.21-4.99 7.25Z" fill="#344286" data-color="1"/>
        <path d="M457.33 542.89a38.1 38.1 0 0 1-.71 5.9c-.21.83-1.55 1.37-2.37 2.05-.59-.78-1.55-1.48-1.7-2.33a88.09 88.09 0 0 1-1.12-9.58 3.93 3.93 0 0 1 1.24-2.86 4 4 0 0 1 3-.59c.54.08 1.24 1.09 1.35 1.77a55.25 55.25 0 0 1 .31 5.64Z" fill="#344286" data-color="1"/>
        <path d="M472.09 525.09c0-1.08-.32-2.29.07-3.2.55-1.26 1.54-3.13 2.5-3.23 2-.22 1.87 1.92 2.09 3.34.59 3.65 1.94 7.35-.25 10.92-.31.5-1.05 1.23-1.37 1.13a2.81 2.81 0 0 1-1.77-1.4c-.71-2.45-1.18-5-1.74-7.47Z" fill="#344286" data-color="1"/>
        <path d="M791.56 839c.32 3 .63 5.9 1 9.52a16.76 16.76 0 0 1-1.71-1.34c-1.11-1.25-3.87 0-4-2.2-.08-1.16 1.54-2.34 1.8-3.64a14.08 14.08 0 0 0 .22-5.91c-.37-1.5.37-1.47 1.07-1.42s1.88.57 1.9.92a25 25 0 0 1-.43 4.2l-.43-.3Z" fill="#344286" data-color="1"/>
        <path d="M343 1118.51c-3.93 1-7.75-.39-11.62-.69 3.91.17 7.92-1.53 11.71.83Z" fill="#344286" data-color="1"/>
        <path d="m296.39 604.93-9.19 1.79c4.05-2.86 4.74-2.93 9-1.58Z" fill="#344286" data-color="1"/>
        <path d="M547 1035.31c2.27 2.76.46 5.34-.41 8-.14-2.64-1.9-5.4.54-7.88Z" fill="#344286" data-color="1"/>
        <path d="M388.82 1112.28h7.69v.6h-7.7Z" fill="#344286" data-color="1"/>
        <path d="M543.3 1051.07c.91-1.36 1.81-2.73 3.39-5.12a24.91 24.91 0 0 0 0 3.21c.57 3-1.5 1-2.35 1.28-.4.14-.8.31-1.2.47Z" fill="#344286" data-color="1"/>
        <path d="m543.65 1045.15-1.72 1.35c-.19-.51-.69-1.27-.52-1.46a8 8 0 0 1 1.86-1.27c.09.36.19.72.38 1.38Z" fill="#344286" data-color="1"/>
        <path d="m259.23 1053.63.63 4.6-.62.09c-.21-1.5-.41-3-.61-4.48Z" fill="#344286" data-color="1"/>
        <path d="M318.27 749.4c-.87 1.72 2.35 3.4 0 5.13-1.08-1.54-2.62-3.27.14-5Z" fill="#344286" data-color="1"/>
        <path d="m321 783.35.33-3.84h.34v3.86Z" fill="#344286" data-color="1"/>
        <path d="m323.21 771-.72 1.32-.91-.52 1.24-2Z" fill="#344286" data-color="1"/>
        <path d="M317.05 759.91a1.72 1.72 0 0 1 .16-.61c.43-.55.9-1.08 1.36-1.61-.11.71-.23 1.43-.34 2.15a4.51 4.51 0 0 0-1.35-.11Z" fill="#344286" data-color="1"/>
        <path d="M318.31 754.53c-.29.3-.53.81-.86.87a6.63 6.63 0 0 1-1.76-.13 12.18 12.18 0 0 1 1.5-.53 6 6 0 0 1 1.27 0Z" fill="#344286" data-color="1"/>
        <path d="m283.39 606.1-1.5-.24.7-.24s.03.03.8.48Z" fill="#344286" data-color="1"/>
        <path d="M318.45 749.52a4.91 4.91 0 0 1-.48-1.11 3.45 3.45 0 0 1 .13-1 4.06 4.06 0 0 1 .88 1.15c.06.2-.45.58-.71.88Z" fill="#344286" data-color="1"/>
        <path d="m401.51 1112.06-1.92.48v-1l2.09.76Z" fill="#344286" data-color="1"/>
        <path d="M654.88 1053.61c1.5 1.28 1.59 2.57 0 3.86a36.68 36.68 0 0 0 .17-4Z" fill="#344286" data-color="1"/>
        <path d="M323 764.82v1.2a1.9 1.9 0 0 1-.24-1.11s.13-.06.24-.09Z" fill="#344286" data-color="1"/>
        <path d="m541.85 1050.94-.75-1.34.44-.1c.06.54.12 1.08.17 1.62Z" fill="#344286" data-color="1"/>
        <path d="M652.21 1068a8 8 0 0 1 1.22.27c.18.08.26.39.38.59-.2 0-.45 0-.59-.11a10.64 10.64 0 0 1-.85-.92Z" fill="#344286" data-color="1"/>
        <path d="m700.39 1027.6 1.58.86-1.54.38a6.6 6.6 0 0 0 .13-1.4Z" fill="#344286" data-color="1"/>
        <path fill="#344286" d="m372.09 1110.19-.59.07.08-.3.51.23z" data-color="1"/>
        <path d="M266.17 1117.36a7.58 7.58 0 0 1 1.19.19c.18.07.28.36.42.54-.2 0-.45 0-.59-.06a10 10 0 0 1-.88-.84Z" fill="#344286" data-color="1"/>
        <path d="m321.43 1117.84-.17.29-.33-.41Z" fill="#344286" data-color="1"/>
        <path d="M514.76 788.8c0 .12.07.23.1.35a2.73 2.73 0 0 1-.48.1s-.07-.22-.1-.34Z" fill="#344286" data-color="1"/>
        <path fill="#344286" d="M791.27 828.28v-.38l.58.2-.58.18z" data-color="1"/>
        <path d="m786.35 866.35-.91-1.28c.25.47.49.95.74 1.43Z" fill="#344286" data-color="1"/>
        <path d="m547.2 999-1.74-.64 1.73-.65a3.78 3.78 0 0 0-.17 1.44Z" fill="#344286" data-color="1"/>
        <path d="M545.86 1002.87c-.23-.42-.45-.85-.67-1.28.06.12.12.23.17.35.13.35.25.7.38 1Z" fill="#344286" data-color="1"/>
        <path d="M507.22 588.89c-.05.13-.09.35-.16.36a1.7 1.7 0 0 1-.52-.1c0-.13.09-.36.15-.37a2.09 2.09 0 0 1 .53.11Z" fill="#344286" data-color="1"/>
        <path d="M703 1017.22a7.76 7.76 0 0 1 .73.79c.06.08-.07.3-.1.46-.16-.46-.32-.93-.47-1.39Z" fill="#344286" data-color="1"/>
        <path d="M411.05 1021.44a3 3 0 0 1-.12-.64s.2-.07.31-.1Z" fill="#344286" data-color="1"/>
        <path d="M410 1026.43c-.1-.07-.27-.13-.27-.21a1.54 1.54 0 0 1 .11-.46c.1.06.29.12.29.18a1.69 1.69 0 0 1-.13.49Z" fill="#344286" data-color="1"/>
        <path fill="#344286" d="m317.04.83.25-.37-.4.23.15.14z" data-color="1"/>
        <path d="m60.93 553.05-.43-.27.31.39Z" fill="#344286" data-color="1"/>
        <path d="M274.13 562.15h-1.35a4.32 4.32 0 0 0 1.47.13Z" fill="#344286" data-color="1"/>
        <path d="M90.85 572.72c.12-.18.25-.35.38-.53l-.54.36Z" fill="#344286" data-color="1"/>
        <path d="M393.72 632.48h1.2a4.85 4.85 0 0 0-1.26-.08Z" fill="#344286" data-color="1"/>
        <path d="M394.92 632.46c.17.4 1.55.84 0 1.18a2.55 2.55 0 0 0 .2-1.28Z" fill="#344286" data-color="1"/>
        <path fill="#344286" d="m60.81 553.17.42.24-.3-.36-.12.12z" data-color="1"/>
        <path d="M362.41 958.72a3 3 0 0 1 .38.82c0 .13-.24.3-.37.46a3.74 3.74 0 0 0 .14-1.41Z" fill="#344286" data-color="1"/>
        <path d="M362.48 827.33c-.07.14-.14.28-.22.41l.35-.28Z" fill="#344286" data-color="1"/>
        <path d="m514.52 783.22.18.41-.11-.47Z" fill="#344286" data-color="1"/>
        <path d="m545.73 991-.24.56.4-.4Z" fill="#344286" data-color="1"/>
        <path d="M406.6 995.1c.65.41 1.37.83 0 1.23a2.92 2.92 0 0 0 .2-1.37Z" fill="#344286" data-color="1"/>
        <path fill="#344286" d="m410.62 1011.88-.37-.25.23.38.14-.13z" data-color="1"/>
        <path d="m410.48 1012 .33.3c-.06-.15-.13-.29-.19-.43Z" fill="#344286" data-color="1"/>
        <path d="M318.23 759.84a5.28 5.28 0 0 1 .46.88c0 .08-.3.27-.46.41a3.89 3.89 0 0 0 .19-1.41Z" fill="#344286" data-color="1"/>
        <path d="m271.39 726.07.4.18-.25-.33Z" fill="#344286" data-color="1"/>
        <path fill="#344286" d="m701.69 1039.28.31.32-.17-.46-.14.14z" data-color="1"/>
        <path d="M501.61 715.53h-1.34a4.5 4.5 0 0 0 1.47.17Z" fill="#344286" data-color="1"/>
        <path fill="#344286" d="m701.81 1044.62.23-.44-.36.3.13.14z" data-color="1"/>
        <path d="M322.2 715.52h-1.31a3.87 3.87 0 0 0 1.43.14Z" fill="#344286" data-color="1"/>
        <path d="m695.32 874.15-.6-.5c.13 0 .34 0 .39.08a1.65 1.65 0 0 1 .12.52Z" fill="#344286" data-color="1"/>
        <path d="M541.71 1051.12h1.59a4.81 4.81 0 0 0-1.45-.13Z" fill="#344286" data-color="1"/>
        <path fill="#344286" d="m540.71 1053.56-.39-.27.28.38.11-.11z" data-color="1"/>
        <path fill="#344286" d="m545.84 1055.01.21-.41-.35.27.14.14z" data-color="1"/>
        <path d="M261.06 1067.92v1.24a3.54 3.54 0 0 0 .15-1.34Z" fill="#344286" data-color="1"/>
        <path fill="#344286" d="m261.01 900.22.34.21-.2-.35-.14.14z" data-color="1"/>
        <path fill="#344286" d="m261.01 1070.48.35.26-.21-.4-.14.14z" data-color="1"/>
        <path fill="#344286" d="m652.25 1071.72-.23.45.39-.28-.16-.17z" data-color="1"/>
        <path d="m194.69 709.17.52.23-.36-.39Z" fill="#344286" data-color="1"/>
        <path d="m515.91 694.85.37-.2-.41.16Z" fill="#344286" data-color="1"/>
        <path d="M348.21 1109.54h1.29a4.15 4.15 0 0 0-1.4-.16Z" fill="#344286" data-color="1"/>
        <path fill="#344286" d="m405.38 910.47-.27.4.4-.28-.13-.12z" data-color="1"/>
        <path d="m826.59 689.76.29-.27-.39.15Z" fill="#344286" data-color="1"/>
        <path d="m383.32 1112.07.41-.19-.43.17Z" fill="#344286" data-color="1"/>
        <path d="M653.78 913.16a2.86 2.86 0 0 1-.36-.8c0-.14.22-.32.35-.48a3.8 3.8 0 0 0-.17 1.42Z" fill="#344286" data-color="1"/>
        <path d="m371.63 1113.26-.51-.21.36.35Z" fill="#344286" data-color="1"/>
        <path d="m383.3 1112.05-.41.17.43-.15Z" fill="#344286" data-color="1"/>
        <path d="M365.15 1114.75h1.23a4.12 4.12 0 0 0-1.36-.17Z" fill="#344286" data-color="1"/>
        <path fill="#344286" d="m371.48 1113.4.45.3-.3-.44-.15.14z" data-color="1"/>
        <path d="m272.73 1116 .6.48c-.1 0-.25-.07-.3-.16a1.9 1.9 0 0 1-.14-.48Z" fill="#344286" data-color="1"/>
        <path fill="#344286" d="m280.57 1115.81-.21.42.32-.3-.11-.12z" data-color="1"/>
        <path d="M280.66 671.43a6 6 0 0 1-.38-.87c0-.08.24-.23.38-.35a3.53 3.53 0 0 0-.16 1.36Z" fill="#344286" data-color="1"/>
        <path d="m280.66 670.21.28-.55-.43.4Z" fill="#344286" data-color="1"/>
        <path d="M652.41 1071.89c.09-.2.17-.39.26-.58l-.42.41Z" fill="#344286" data-color="1"/>
        <path d="M374.08 516.06c1.11 1.07 2.75 1.9 3.09 3.09 1.28 4.49 2.22 9.07 3.05 13.67.12.65-1 1.85-1.75 2.23a3.2 3.2 0 0 1-2.81-.09c-2.71-2.2-4.93-14.85-3.24-17.78.26-.44.93-.64 1.66-1.12Z" fill="#344286" data-color="1"/>
        <path d="M349 413.85c.24 3.35-4.14 11.52-6.61 12.47a4.76 4.76 0 0 1-3.57-.26c-.56-.3-.9-2.07-.56-2.84a95 95 0 0 1 5.12-10.12 3.69 3.69 0 0 1 3.16-1.11c1.07.19 1.91 1.38 2.46 1.86Z" fill="#344286" data-color="1"/>
        <path d="M207.64 486.59a23 23 0 0 1-1.36 3.23 56.58 56.58 0 0 1-4.08 6.45c-.65.87-2.22 2-2.85 1.73-1.16-.48-2-1.83-2.8-3a2 2 0 0 1 .08-1.87 108.41 108.41 0 0 1 7.57-9.48c1.32-1.37 3.44 0 3.44 2.94Z" fill="#344286" data-color="1"/>
        <path d="M342.9 452.3a12.67 12.67 0 0 1-2.69 2.11 2.33 2.33 0 0 1-2.14-.43c-2.19-3.68-4.35-7.4-6.19-11.25-.7-1.45.51-2.47 2.09-2.28 1 .13 2.38.43 2.82 1.13 2.13 3.42 4 6.96 6.11 10.72Z" fill="#344286" data-color="1"/>
        <path d="M322.93 153.22c-2.76-5.48-2.18-10.39 1.8-14.71.39-.42 1.25-.9 1.6-.74.71.33 1.84 1.24 1.74 1.64-1.25 4.76.58 10.72-5.14 13.81Z" fill="#344286" data-color="1"/>
        <path d="M187.78 526.3c-1.47-5-.27-9.62 2.47-13.95 1-1.55 2.19-1.89 3.76-.76 1.17.84 1.68 1.47.84 3.08-2 3.93-3.76 8.05-5.61 12.08Z" fill="#344286" data-color="1"/>
        <path d="M318.72 179.17c-3.52-3.78-1.12-7.39-1-10.76 0-.74 2.62-1.42 4-2.13.49 1.05 1.34 2.09 1.42 3.17.27 3.86-1.38 6.96-4.42 9.72Z" fill="#344286" data-color="1"/>
        <path d="m255.83 230.8.5.27-.34-.42Z" fill="#344286" data-color="1"/>
        <path d="M325.75 354.31c-2.42 2.18-4.45 5.31-8.5 3.34-3.67-1.78-3.23-5.15-3.21-8.34v-1.93c.16-2.89.84-5.77 3.68-6.94a6.39 6.39 0 0 1 8 2.17Z" fill="#344286" data-color="1"/>
        <path d="M199.66 354.31a29.45 29.45 0 0 1 3.45-3.6c3.91-2.91 8.91-.65 9.46 4.24a25.87 25.87 0 0 1 0 5.13c-.28 3-1.87 5-4.39 5.64a5.83 5.83 0 0 1-6.7-2.53c-.56-.83-1.22-1.59-1.83-2.38Z" fill="#344286" data-color="1"/>
        <path d="M268.42 401.91c3.71-1.55 6.4-2.69 9.11-3.79 2.25-.9 4.56-.31 4.75 1.5.14 1.28-.43 3.3-1.38 3.89a38.48 38.48 0 0 1-9.18 4.43c-5.9 1.75-12 1.86-17.65-.88a17.11 17.11 0 0 1-5.67-5.06c-.59-.77-.1-2.95.63-4 .44-.6 2.48-.59 3.47-.14 2.88 1.29 5.59 3 9.37 5 .05-5.15.1-9.19.13-13.23a56 56 0 0 1 .05-6.48c.55-4.29-.91-7-5.21-8.28-3.28-1-5.28-3.58-6.7-6.63-1.51-3.27-1.33-5.41.65-7.05s4.33-1.76 7.11.35 5.05 4.65 7.83 7.26c2.21-1.89 4.34-4 6.74-5.7 3.66-2.63 6.65-3 8.21-1.27s1.39 5.94-1.29 8.89a43.5 43.5 0 0 1-7.91 6.49c-1.48 1-3.05 1.61-3.06 3.69Z" fill="#344286" data-color="1"/>
        <path d="M581.9 288.5c-5.4-2.59-10.78-5.19-14.67-10-3.5-4.35-5.81-9-4.61-15.15 1-.21 2.16-.84 2.94-.52a7 7 0 0 1 2.74 2.44c.48.63.44 1.64.71 2.46a18.83 18.83 0 0 0 12.31 12.6c1-6 2.16-11.86 2.71-17.77a8.2 8.2 0 0 0-2.26-5.7c-3.16-3.18-4.88-7.08-6.61-11-2.19-5-.68-9.11 4.56-10.76a32.52 32.52 0 0 1 24.51 1.7c4.62 2.24 5.44 9.88 1.6 13.43a82.65 82.65 0 0 1-10.71 8.25c-2.49 1.64-4.12 3.28-4.53 6.47-.71 5.48-2.4 10.83-2 16.85 2.61-.87 4.81-1.64 7-2.33 4-1.23 6.83-3.64 8.12-7.65.91-2.81 2.3-4.67 5.77-3.6 1.77 2 1.21 4.35.34 6.58a16.91 16.91 0 0 1-9 9.73c-2.88 1.29-5.73 2.66-8.6 4Z" fill="#344286" data-color="1"/>
        <path d="M528.61 207.91c.78-1.41 1.46-2.89 2.35-4.23 2.15-3.25 5.6-4.43 8.94-3.16 2.68 1 4.32 4.48 3.76 8.06-.1.63-.48 1.22-.54 1.85-.42 3.72-2.07 6.59-5.78 7.7s-6.57-.71-8.73-3.72Z" fill="#344286" data-color="1"/>
        <path d="M663.79 217c-.67 1-1.43 1.94-2 3-2.21 4.06-4.12 3.55-7.57 3.27-2.66-.22-4.55-2.66-4.35-6.25a26 26 0 0 1 2.11-9.27c2-4.41 5.64-4.87 9.42-1.79l2.39 1.95Z" fill="#344286" data-color="1"/>
    </g>
</svg>
