<?xml version="1.0" encoding="UTF-8"?>
<svg data-bbox="-0.03 -0.1 728.63 591.36" viewBox="0 0 728.59 591.3" xmlns="http://www.w3.org/2000/svg" data-type="color">
    <g style="isolation:isolate">
        <g style="mix-blend-mode:multiply">
            <path d="M447.7 549.41a8 8 0 0 0-1.29-4.67c-2.76-4-2.83-8.81-1-13.42 1.08-2.75 3.05-3.3 5.7-1.75 4.22 2.47 6.83 9.3 5.08 13.77a6.28 6.28 0 0 1-2.21 2.71c-1.26.85-2.19 1.68-2.07 3.3Z" fill="#344286" data-color="1"/>
            <path d="M606.6 65a24.6 24.6 0 0 1-12.55 5.51c-2.79.47-4.32-.14-5.15-2.06-1.38-3.17-1.33-4 1-5.91 2.62-2 5.41-3.88 8.13-5.82h1c.39.32.82 1 1.15.92 2.89-.46 4.61 1.28 6.27 3.17v1c-1.57.73-.9 1.42 0 2.1Z" fill="#344286" data-color="1"/>
            <path d="M524.26 136.33c-5.15.1-7.55-3.05-6-7.1a25.11 25.11 0 0 1 6.14-9.48c2.35-2.2 4.34-4.78 6.65-7a17.91 17.91 0 0 1 4.5-3.31c2.22-1.09 4.49-1.57 6.47.94.77 1 2.53 1.15 3.5 2.06.45.42.07 1.72.07 2.62-2.56-1-1.62 1.39-2.3 2.28-4.83 6.19-9.62 12.43-16 17.22a25.05 25.05 0 0 1-3.03 1.77Z" fill="#344286" data-color="1"/>
            <path d="M414.84 174.57c.78 2.54-.94 3.88-3.22 5.28-4.89 3-10 2.19-15.06 1.17a5.36 5.36 0 0 1-4.29-5.18c0-2.62 2.24-6.16 5.14-6.45 3.51-.35 6.92-2.47 10.59-.92a2.8 2.8 0 0 0 1 .16c5.6.02 5.8.2 5.84 5.94Z" fill="#344286" data-color="1"/>
            <path d="M320.3 399.43c-4.89-.54-6.11-1-6.64-4a8.19 8.19 0 0 1 1.06-5.32c2.2-3.45 4.31-7.13 8.3-9a7.39 7.39 0 0 1 2.3-1c2.43-.22 5.2-.41 6.5 2.06s1.58 5.27-.25 7.7a58.49 58.49 0 0 1-6.33 7.51c-1.24 1.18-3.24 1.41-4.94 2.05Z" fill="#344286" data-color="1"/>
            <path d="M305.93 196.9c.16 4.19-.63 5.33-4.07 6.88-3.14 1.42-6.22 3-9.35 4.44a10.62 10.62 0 0 1-2.93 1c-1.9.27-3.7.45-4.9-1.81s-1.48-4.19 0-6.25c2.58-3.65 6.36-5.7 10.29-7.5.47-.22 1-.31 1.47-.5 1.25-.49 2.72-1.68 3.7-1.36a17.59 17.59 0 0 1 5.24 3.26c.5.4.47 1.54.55 1.84Z" fill="#344286" data-color="1"/>
            <path d="M386.4 193.89c4.64-1.24 5 3.1 6.62 5.27 1.09 1.42.17 4.61-1.53 5.54-3 1.63-6.12 3.36-9.4 4-2.09.42-4.57-1-6.84-1.64-.8-.24-1.48-1-2.27-1.11-1.81-.26-1.71-1.52-1.54-2.71s.66-2.29.93-3.45c.91-3.89.9-3.86 5.07-4.29 1.18-.12 2.33-.57 3.51-.78 1.81-.31 3.63-.55 5.45-.83Z" fill="#344286" data-color="1"/>
            <path d="M363.59 179.19c-2.41-.52-6.6-3.2-7.12-5.24a3.59 3.59 0 0 1 .51-2.88c2.24-2.31 4.41-5.46 7.19-6.28 3.19-.94 7-1.57 10.59.14 4.23 2 5.41 5.34 2.93 9.15a2.54 2.54 0 0 1-1.12 1c-4.31 1.43-8.65 2.76-12.98 4.11Z" fill="#344286" data-color="1"/>
            <path d="M348.48 311.43c-.13 4.81-1.23 6.62-4.3 8s-5.52.44-7-2.79q-1.59-3.5-3.38-6.92a6.27 6.27 0 0 1 1.2-7.42 17.62 17.62 0 0 1 2.94-2.13c2.85-1.64 6.75-.8 7.94 2.14a77.46 77.46 0 0 1 2.6 9.12Z" fill="#344286" data-color="1"/>
            <path d="M281.11 490.76c-1.25 2.95 0 8-4.17 10.91-3.73 2.61-5.94 3.18-8.18-1.58-1-2.07-1.95-4-.64-6.35.46-.82 0-2.08.33-3.05a37.66 37.66 0 0 1 2.38-6.79c.72-1.4 1.83-3 3.93-2.68 2.65.47 5.06 1.43 5.84 4.33a35.13 35.13 0 0 1 .51 5.21Z" fill="#344286" data-color="1"/>
            <path d="M532.77 173.12c-5.17.18-6.77-1.48-6.48-5.61a8.37 8.37 0 0 1 3.12-6.32c2.57-2 5.19-4 7.93-5.75 2.42-1.56 4.55-1.23 6.6.58a4.49 4.49 0 0 1 .57 6.09 76.1 76.1 0 0 1-8.06 9.41c-1.09 1.1-3.05 1.34-3.68 1.6Z" fill="#344286" data-color="1"/>
            <path d="M452.42 162.75a5.93 5.93 0 0 1-5.6-3.82 4.35 4.35 0 0 1 1.37-5.15c4.4-3.16 8.89-6.47 14.65-6.67 2.46-.09 4.15 1.55 5.51 3.36.89 1.18.13 3.93-1.54 5.54-4.15 3.99-9.51 5.42-14.39 6.74Z" fill="#344286" data-color="1"/>
            <path d="M501.91 157.55c1.66 3.68-.86 5.19-3.46 6.74-3.38 2-6.46 4.46-10.73 4.68-3 .16-3.54.29-4.67-2.33-1.71-4-1.53-3.8 1.23-7.06 3.37-4 7.89-5.53 12.64-6.57 1.33-.3 3.05.35 4.36 1s1.77 2.1.63 3.54Z" fill="#344286" data-color="1"/>
            <path d="m86.78 412.65 4.31 1c1.85.45 3.88.67 3.81 3.35s.47 5-2.94 6.35c-3.1 1.22-5.74 3.57-8.69 5.23s-3.92 1.57-5.93-.43c-2.51-2.49-2.82-3.9-1.06-6.85a19.1 19.1 0 0 1 6.48-7 29.93 29.93 0 0 1 4.02-1.65Z" fill="#344286" data-color="1"/>
            <path d="M426.42 207.44c3.93-.07 5.21 1 5.82 4.37.15.84.25 1.7.45 2.53.79 3.27-.9 5.8-4.18 6a44.82 44.82 0 0 0-10.51 1.5c-.84.25-2.21-.53-3.07-1.18a7.76 7.76 0 0 1-1.79-2.55c-1.12-2-.93-3.5.81-5.13a21.69 21.69 0 0 1 12.47-5.54Z" fill="#344286" data-color="1"/>
            <path d="M556.08 91.17c0-10.45 6.68-12.44 14.32-12.85 2-.1 4.37 3.79 3.66 6-.52 1.64-.59 3.54-2.83 4.58s-3.61 3.11-5.48 4.61c-3.37 2.71-5.73 2.65-8.6-.32a5.4 5.4 0 0 1-1.07-2.02Z" fill="#344286" data-color="1"/>
            <path d="M191.06 343a10 10 0 0 1-2.55-2c-2.64-3.91-1-9.2 2.62-12.35 1-.89 2.21-1.62 3.21-2.55 1.47-1.34 2.73-2.72 4.79-.68.47.46 1.94-.21 2.93-.14 2.6.17 4.55 3.4 3.16 5.6-3 4.73-7.13 8.38-11.63 11.63-.48.29-1.26.22-2.53.49Z" fill="#344286" data-color="1"/>
            <path d="M199.9 300.45c-5.18.16-7.3-2.78-5.69-6.11 1.2-2.47 2.37-4.83 5.2-6.12a10.61 10.61 0 0 0 3.93-3.94c1.34-2 2.74-2.15 4.79-1.23 4.31 1.92 5.4 5.1 3.11 9.14-2.81 4.95-7.85 6.41-11.34 8.26Z" fill="#344286" data-color="1"/>
            <path d="M456.74 379c-.93 1.52-2.27 4-3.9 6.28-1.45 2-3.28 3.74-4.86 5.65-1.38 1.67-3.2 1-4.63.6-1.18-.3-2.19-1.58-3.08-2.59-1.26-1.43.12-2.38.71-3.6 1.4-2.94 2.37-6.08 3.74-9a7.85 7.85 0 0 1 7.47-4.06c3.53.4 4.54 1.62 4.55 6.72Z" fill="#344286" data-color="1"/>
            <path d="M437.29 191.92c-.79 0-2.63 1.14-4.2-.93-2.38-3.18-2.29-6.12 1-8.29 4.35-2.85 9.12-4.49 14.42-3.23a4.46 4.46 0 0 1 2.08 1.66c1.52 1.88.19 7.9-2.05 8.78-3.26 1.29-6.62 2.48-11.25 2.01Z" fill="#344286" data-color="1"/>
            <path d="M281.44 236.72c-.23.44-.58 2.31-1.49 2.63-2 .73-2.51 3.19-5 3.56-2 .29-3.74 2.29-5.72 3.27a5.16 5.16 0 0 1-6.47-1.34c-1.47-1.57-1.44-3.07 0-5.72 1.55-2.93 4.45-4.24 7.06-5.83a25.22 25.22 0 0 1 5.19-2c4.09-1.42 6.24.1 6.43 5.43Z" fill="#344286" data-color="1"/>
            <path d="M311.17 254a8.89 8.89 0 0 1 1-2.59 77.11 77.11 0 0 1 5.73-7.69 5.51 5.51 0 0 1 7.41-.84c1.7 1.14 2.71 5.39 1.7 7.53a22.41 22.41 0 0 1-9 9.51c-3.26 1.94-6.68-.78-6.84-5.92Z" fill="#344286" data-color="1"/>
            <path d="m291.21 408.9 1.13-.87c2.47 3.51 5 1.24 7.92 0 .48 3.1 1.24 6-.73 8.79-1.85 2.62-3.75 5-7.51 4.65-.95-.1-1.95.47-2.95.61-3.26.45-5.67-.78-6.74-3.37a6.81 6.81 0 0 1 2-7.1c2.05-1.49 4.08-3.34 7-2.77l.79.47Zm-1.3 1.57-.27-.18v.28Z" fill="#344286" data-color="1"/>
            <path d="M438.34 467.42c-.73 3.18-1.61 6.34-2.14 9.55a5.35 5.35 0 0 1-3.88 4.15c-2.12.77-3.44-1.21-4.71-2.6-2.19-2.38-2.21-5.34-2.08-8.33.12-2.76.58-5 2.91-7.24 2-2 3.65-2.19 5.45-1.28 2.11 1.09 5.11 2.13 4.45 5.75Z" fill="#344286" data-color="1"/>
            <path d="M268.35 286.2c-3.58.06-7.06-4-6.08-7.13.67-2.11 1.17-4.58 4.05-5.43 1.37-.4 2.33-2 3.64-2.8 2-1.14 4.48-2.43 6.26-.8 1.62 1.5 2.36 4.07 3.12 6.3.19.54-1 1.62-1.64 2.37-.88 1-2.5 1.85-2.68 3-.72 4.29-4.35 3.65-6.67 4.49Z" fill="#344286" data-color="1"/>
            <path d="M150.82 351c.09-2.73 2.7-2.89 4.28-4a22.08 22.08 0 0 1 3.8-1.67c.94-.42 1.95-1.43 2.74-1.27a7 7 0 0 1 3.22 2 5.07 5.07 0 0 1-.13 6.91c-3 3.33-5.72 6.87-10.13 8.53-2.94 1.11-4.69.17-4.63-3 0-2.19-.74-4.55.86-6.56a3.31 3.31 0 0 0 .59-.32l-.72-.76Z" fill="#344286" data-color="1"/>
            <path d="M453 403.12c.09-4 5.54-10.77 9.3-11.33 1.14-.17 3.05-.11 1.78 2.17-.05.09.6.8.75.74a17.3 17.3 0 0 0 2.29-1.12c1.41-.78 2.19.26 2 1.22-.78 3.52-.86 7.44-4.58 9.64-.63.38-.91 1.34-1.38 2-1.71 2.51-4.24 3.57-6.6 2.79s-3.56-2.91-3.56-6.11Z" fill="#344286" data-color="1"/>
            <path d="M576.84 260.48c0 1.76.2 3.55-1.92 4.39-1.86.75-3.64.92-5.32-.42-4.29-3.44-5.9-8.45-7.27-13.4-.51-1.84 1.07-3.73 3.1-4.93s2.84-.17 4 .88c.64.55 1.63.82 2.06 1.48 2.45 3.71 5.12 7.33 5.35 12Z" fill="#344286" data-color="1"/>
            <path d="M502.06 197.73c-3.54.09-7.24-3.89-6.83-6.83a4 4 0 0 1 1.77-2.33c3.13-2 6.36-4 9.57-5.91 1.22-.73 5.85.6 7 2 2.54 3 2.45 3.52-.77 5.91-2.87 2.12-5.64 4.38-8.55 6.45a6.24 6.24 0 0 1-2.19.71Z" fill="#344286" data-color="1"/>
            <path d="M490.3 289.28c-2.62.33-4.49-.78-5.49-3.43s-2.13-5-3-7.61c-.65-2 1.21-6.74 2.67-7.46 3.05-1.49 7.54.54 8.34 3.87s1.54 6.63 2.11 10c.5 2.71-1.45 4.6-4.63 4.63Z" fill="#344286" data-color="1"/>
            <path d="M506.49 117.9c2.82 3.32 3 4 .41 6.4a93.1 93.1 0 0 1-8.75 7.09c-2.5 1.79-5.71.72-7.33-2a3.57 3.57 0 0 1 0-4.33c.78-1.1 6.26-6.78 7.49-7.41 1.73-.89 3.39-2.69 5.36-.13.56.73 2.17-1.45 2.95.43a2 2 0 0 0-.46.21c-.07.06-.06.22-.08.34Z" fill="#344286" data-color="1"/>
            <path d="M341.38 356.22c-4.38-3.93-6.26-11.22-4.38-16.29 1-2.68 3.33-4.07 5.73-3 1.28.59 2 2.33 3.92 1.42a5.68 5.68 0 0 1 1.21 2c1.97 7.05-.3 13-6.48 15.87Z" fill="#344286" data-color="1"/>
            <path d="M315 300.23c-4.18 0-7.25-2.51-6.89-6.38.34-3.65.23-7.53 2.29-10.93 1.57-2.59 3.05-3 5.39-1.24a10.6 10.6 0 0 1 3.38 11.52c-.45 1.43-1.79 2.92-1.56 4.18.56 3.13-1.24 2.9-2.61 2.85Z" fill="#344286" data-color="1"/>
            <path d="M334.85 204.84c-2.24-.15-4.1-.2-6-.43a3.07 3.07 0 0 1-2.32-3.77c.6-1.85 1.51-3.6 3.47-4.28q6.46-2.22 13-4.22c1.69-.51 2.25.75 3 2.1 1.73 3.14 2 3.28-.48 5.28-3.2 2.65-6.28 5.82-10.67 5.32Z" fill="#344286" data-color="1"/>
            <path d="M342 270.06c-.54 2.51-.94 5.06-1.68 7.52-.64 2.13-4.29 4.59-6.47 4.35a3.49 3.49 0 0 1-2.26-1.66 12.46 12.46 0 0 1-1.38-8.31c.38-2.17-.28-4.44 1.49-6.42s3.7-2.71 6-2a5.14 5.14 0 0 1 4 4.89V270Z" fill="#344286" data-color="1"/>
            <path d="M485.85 356.7c3.08 4.49 2.95 11.4-.64 14.68-2.56 2.34-6 2.81-9.38 2.77a2.22 2.22 0 0 1-2.19-2.9c1-2.9.91-6 2.69-8.8 1.33-2.05 2.66-3.42 5-4a36.23 36.23 0 0 0 4.61-1.83Z" fill="#344286" data-color="1"/>
            <path d="M528.16 99.55c-1.6-.8-3.81-1.22-4.59-2.51-.66-1.09-.15-3.56.73-4.76a18.21 18.21 0 0 1 8.7-6.83c2.09-.72 7.91 1.44 8.47 3.41a5.21 5.21 0 0 1-.67 4.24c-3.21 3.55-8 4.35-12.12 6.43-.14.07-.35.01-.52.02Z" fill="#344286" data-color="1"/>
            <path d="M234.6 317.38c3.5-.1 5.69 2.32 4.74 5a35.48 35.48 0 0 1-4.21 8.72c-3.12 4.47-8.59 3.61-10.55-1.44a3.5 3.5 0 0 1-.22-2.44c1.8-3.78 4.16-7.16 7.94-9.24a7.75 7.75 0 0 1 2.3-.6Z" fill="#344286" data-color="1"/>
            <path d="M184.6 369.11c0-4.74 3.43-7.95 7.54-10.19 1.28-.7 3.34-.61 4.85-1.62.27-.18 1 0 1.32.27 2.6 1.83 3.42 5.47 1.33 7.56a99.1 99.1 0 0 1-9.29 8.07c-1.08.85-2.51 1.88-4.22.49-1.32-1.08-1.64-1.34-1.53-4.58Z" fill="#344286" data-color="1"/>
            <path d="M243.21 291.68c.44 5.69-6.16 9.68-9.46 9.66a1.77 1.77 0 0 1-1.35-.58c-.92-1.55-2.06-1.43-3.56-1-.47.16-1.87-.82-1.82-1.05.49-2.11.66-4.64 2-6.13a25.21 25.21 0 0 1 7-5.05c1.19-.64 3.43-.89 4.3-.19 1.47 1.18 2.2 3.23 2.89 4.34Z" fill="#344286" data-color="1"/>
            <path d="M442.48 502.33c-.23 1.65.08 3.57-.73 4.42-1.48 1.56-3.62 2.49-5.49 3.68-1.09-1.3-2.24-2.56-3.26-3.91-3-3.94-2.15-8.12-.63-12.29.83-2.27 2.94-3.16 5-1.87 2.59 1.63 5.23 3.39 4.85 7.16a13.14 13.14 0 0 0 .26 2.81Z" fill="#344286" data-color="1"/>
            <path d="M320.23 322.41a6.15 6.15 0 0 1 6.59 5.83c.27 2.55.65 5.09 1 7.64s-2.23 3.31-3.34 5c-1 1.48-2 .2-3.11-.16-.76-.25-1.4.09-1.65-1.17a55.07 55.07 0 0 0-2.06-6.42c-.21-.62-.46-1.23-.69-1.85l-1.33.63a6.67 6.67 0 0 1 0-1.55c.16-.67.51-1.3.73-2a9.14 9.14 0 0 0 .66-2.4c.13-3.15.35-3.45 3.2-3.55Z" fill="#344286" data-color="1"/>
            <path d="M565.56 126.51a9.3 9.3 0 0 1 5.31-8.23c3.87-1.77 7.67-2.12 11 1 .58.54 1 2.12.66 2.63a20 20 0 0 1-4.39 4.85 36.92 36.92 0 0 1-6.86 3.5 4 4 0 0 1-5.72-3.75Z" fill="#344286" data-color="1"/>
            <path d="M425.15 439.49a7.26 7.26 0 0 0 .47-.92c.17-.46.28-.95.41-1.43-.39 0-.85-.17-1.15 0-1.2.64-2.32 1.44-3.56 2-.19.09-1.22-.93-1.15-1.06 1.42-2.74 3.1-5.36 4.42-8.15 1.64-3.45 4.88-2.34 7.5-2.84 1.21-.23 3.73 3.86 3.08 5.2-1.11 2.29-.66 5.1-3 7-1.52 1.28-2.35 3.37-3.49 5.09a43.06 43.06 0 0 0-4.54-1.14c-.78-.11-1.95.53-1.74-.89.1-.67 1.08-1.2 1.65-1.79a12 12 0 0 1 1.5.44c-.17-.54-.35-1.09-.52-1.64Zm4.92-9.75.77-.35c-.11-.11-.2-.3-.31-.31a4.27 4.27 0 0 0-.79.1Z" fill="#344286" data-color="1"/>
            <path d="M132.59 409.62c.14 4.43-2.36 8.2-6.62 8.39a8.39 8.39 0 0 0-5.48 1.94c-1.29 1.06-2.2.42-3.09-.57s-1.89-2-.83-3.12c1.4-1.43 2.59-2.67 1.7-4.82-.1-.24.15-.65.31-.94 1.28-2.24 8.09-5.1 10.73-4.52 2.91.64 3.2.96 3.28 3.64Z" fill="#344286" data-color="1"/>
            <path d="M392 222.75c2.34.23 3.91.12 5.3.57 3.38 1.07 4.14 2.33 3.57 5.76a3.91 3.91 0 0 1-1.5 2.48 18.51 18.51 0 0 1-10.96 2.44c-2.36-.16-3-2.26-3.77-3.87a4.08 4.08 0 0 1 1.07-5.19c2.08-1.66 4.29-2.94 6.29-2.19Z" fill="#344286" data-color="1"/>
            <path d="M321 219.71c.09 2.59-1.39 4.75-4.5 5.56a34.21 34.21 0 0 1-8.07 1 3.77 3.77 0 0 1-4-2.6 5.26 5.26 0 0 1 .39-4.51 9.13 9.13 0 0 1 4.85-3.42c2.35-.64 4.67-2 7.49-.67s3.72 1.85 3.84 4.64Z" fill="#344286" data-color="1"/>
            <path d="M154 389c-1.81-.51-3.14-.85-4.46-1.26-.77-.24-1.85-.38-2.18-.93a5.78 5.78 0 0 1-1-3.42c.5-3.74 7-8.45 11-8.27 1.59.07 2.65.63 3.09 2.23a24.49 24.49 0 0 0 1.15 3.45 3.14 3.14 0 0 1-1.38 4.39c-1 .65-1.91 1.47-2.94 2.09S155 388.49 154 389Z" fill="#344286" data-color="1"/>
            <path d="M478 240.58c0-1.39-.1-2.79-.05-4.17.11-2.5 1.35-4.14 3.39-4.52s3.48.33 4.65 2.32a13.74 13.74 0 0 1 2.22 8.13 12.52 12.52 0 0 1-1.38 4.87c-1.14 2.11-2.49 2-5.8 1.45-2.56-.43-3.09-1.75-3-3.91v-4.17Z" fill="#344286" data-color="1"/>
            <path d="M584.45 272.28c-.35-2.71 1.37-4.14 3.56-4a40.3 40.3 0 0 1 10.42 1.81c2.21.71 2.66 3.13 2.61 5.55s-2 2.73-3.4 3.3a10.33 10.33 0 0 1-13.17-5.62c.68-.31.68-.71-.12-1.1Z" fill="#344286" data-color="1"/>
            <path d="M351.7 223c-2.87 0-6.16-3-6.24-5.9a2.2 2.2 0 0 1 .84-1.75c2.83-1.2 5.66-2.7 8.63-3.19s5.59 1 7.07 3.94a2.81 2.81 0 0 0 .73.73c2.15 1.84 2.15 1.84.22 3A24.53 24.53 0 0 1 351.7 223Z" fill="#344286" data-color="1"/>
            <path d="M269 538.56c-2.23-2.66-3.28-4.94-5.52-6.44-1.55-1-1.79-9.17-.72-10.78.26-.38.81-.55 1.21-.84 2.17-1.6 4.26-1 6.31.25a4.84 4.84 0 0 1 2.66 5.17c-.35 2.51-.34 5.1-1 7.52-.47 1.7-1.79 3.16-2.94 5.12Z" fill="#344286" data-color="1"/>
            <path d="M255.22 261.81a15.68 15.68 0 0 1-.59 3.25c-.65 1.62 1.17 4.61-2.49 4.64-1.78 0-3.23 1.89-5.39.51-1.16-.74-3.05-.25-4.55-.57a2.12 2.12 0 0 1-1.06-3.52c2.33-2.68 4.9-5.19 7-8a4 4 0 0 1 4.76-1.41c1.52.5 3.05 1.86 2.17 4.07-.13.32-.24.65-.36 1Z" fill="#344286" data-color="1"/>
            <path d="M500 258.9c0 1.69.09 3.39.07 5.09 0 1.88-.73 2.28-2.71 1.84-3.38-.75-5.71-2.64-6.11-6.16a33 33 0 0 1-.11-8.53c.15-1 2.17-2.34 3.46-2.48a4.77 4.77 0 0 1 5.28 4 56.72 56.72 0 0 1 .13 6.26Z" fill="#344286" data-color="1"/>
            <path d="M504.26 299.7a10.66 10.66 0 0 1 3.05 1.72 56.29 56.29 0 0 1 4.88 6 6.14 6.14 0 0 1-.09 6.23 3.33 3.33 0 0 1-4.88.57 19.22 19.22 0 0 1-7.24-8.66c-1.08-2.74-1.32-2.64 1-4.3.56-.4 1.06-.89 1.65-1.26a6.23 6.23 0 0 1 1.63-.3Z" fill="#344286" data-color="1"/>
            <path d="M266.32 448.38a58.91 58.91 0 0 1 1.92-7.39 2.53 2.53 0 0 1 3.12-1.69c5.6.86 6 1 5.11 6.67-.36 2.36-.45 4.78-1 7.11-.18.84-1.2 1.5-1.83 2.24-.66-.68-1.73-1.28-1.9-2.06-.42-2-.6-3.37-2.18-.57-.27.46-1.12 1-1.49.89a2.21 2.21 0 0 1-1.22-1.46 24.39 24.39 0 0 1-.11-3.63Z" fill="#344286" data-color="1"/>
            <path d="m485.94 356.58-2.66-.15c.06-.21.12-.43.19-.64l2.38.91Z" fill="#344286" data-color="1"/>
            <path d="M150.83 352c-1.12-.31-.49-.65 0-1a3 3 0 0 0-.1 1.1Z" fill="#344286" data-color="1"/>
            <path d="M424.08 440.59c.36-.37.71-.74 1.07-1.1a5.85 5.85 0 0 0-1.17 1Z" fill="#344286" data-color="1"/>
            <path d="M584.47 273.29c-.77-.32-.9-.66 0-1a3.89 3.89 0 0 0-.08 1.11Z" fill="#344286" data-color="1"/>
        </g>
        <path d="M599.69 364.39a5.62 5.62 0 0 0-1.55-.19c-6.28 1-12.07-1.09-17.73-3.21a58.6 58.6 0 0 1-10-5.4c-6.12-3.77-12.34-7-19.7-7.77-3-.3-5.83-1.75-8.74-2.66-2.29-.71-4.58-1.42-6.87-2.1-5.66-1.7-11.32-3.38-17.26-5.15-.25 3.38-.42 6.25-.7 9.12-.45 4.63-1 9.25-1.46 13.88-.53 5.62-3 10.62-4.82 15.86-.78 2.3-1.49 4.63-2.33 6.91a24.73 24.73 0 0 1-1.73 3.64c-1.66 3-3.7 5.78-5 8.9-2.05 4.9-6.3 8.25-8.59 13-.72 1.48-2.19 2.6-3.28 3.91-3.87 4.69-7.17 10-11.73 13.91-5.42 4.59-9.66 10.52-16.12 14-2.95 1.57-4.86 4.14-4.37 8.1.42 3.43-.24 7 .11 10.44a119.71 119.71 0 0 0 2.42 15.81c.65 2.73 2.49 5.22 4 7.67 1 1.61 3.17 2.78 3.55 4.43 1 4.1 3 3.25 6 2.56a35.28 35.28 0 0 1 10.52-.54c3.14.25 6.1-.53 9.14-.7a73.59 73.59 0 0 1 9.73.25c7.05.56 14.21.69 21.12 2.06s14 3.81 19.3 8.39c4.27 3.65 8.25 8.51 6.53 15.33-.85 3.35-2.38 6.11-5.4 7.79-2.41 1.35-5 2.33-7.46 3.63s-2.72 3.24-.55 4.92c2 1.53 3.11 3.5 4.53 5.43 2 2.67 1.08 5.58 1.85 8.28a1.92 1.92 0 0 1-.4 1.43c-4.55 5.65-9.19 11.2-16.95 12.47-1.8.3-3.64.42-5.43.62 3.28 5.7 1.79 10.54-3.61 14.88-6.31 5.07-13.82 5.7-21.24 6.6-3.88.47-7.89.8-11.75-1.36-1.75-1-4.33-.37-6.48-.76-8.14-1.55-16.32-2.77-24.24-4.77-9.19-2.36-18.45-5-25.73-11.66a29.61 29.61 0 0 1-4.54-5.65c-1-1.46-.87-3 1.16-3.76 0 .35.05.69.1 1a1.66 1.66 0 0 0-.39.15c-.07 0-.07.19-.1.28l.42-.49c.15-.1.42-.23.41-.27a5.41 5.41 0 0 0-.34-.78c-1-2.17-1.73-4.16-4.26-5.7s-3.7-5-5-7.8c-3.47-7.73-7.24-15.39-9.77-23.43-1.74-5.52-4.56-10.68-5.48-16.5-.34-2.16-1.56-4.19-2.38-6.29-1.72-4.39-1.28-9.14-2.27-13.67s-1.63-9.22-2.57-13.81c-.55-2.7-1.64-5.3-2-8-.87-5.94-3.61-11.52-3.22-17.72a54.2 54.2 0 0 0-.5-7.28c.9-.7 1.28-1.44-.12-2.15.16-2.72.13-5.51.33-8.28a5.32 5.32 0 0 1 3.41-4.81 10.2 10.2 0 0 0 3-1.83c.74-.7.54-1.57-.63-1.89 1-.7 2.27-1.16 2.9-2.08 4.12-6 10.33-10.16 14.7-15.81 4.24-5.47 8.51-11.16 10.41-18.16 1.16-4.26 3-8.34 4.45-12.51a7.2 7.2 0 0 0 .15-1.93 5.39 5.39 0 0 0-1.87-.06c-5.37 1.85-10.63 4.13-16.11 5.55-5 1.31-10.24 1.78-15.39 2.51-3.65.52-4.66 1.3-5.34 4.31a51.9 51.9 0 0 1-7 16.52c-2.88 4.53-6.35 8.68-9.46 13.06-1 1.4-1.63 3.05-2.52 4.53-3.24 5.33-8.16 8.83-13.17 12.29-3.28 2.28-6.31 4.91-9.44 7.38-6.28 5-13.41 8.46-20.57 11.88-4.4 2.11-8.77 4.29-13.17 6.4-1.72.82-3.51 1.5-5.23 2.33-3.31 1.6-5.6 3.67-5.53 7.94.11 6.09-.41 12.2-.62 18.3-.09 2.58 3.83 14.73 5.18 17a12.47 12.47 0 0 0 9.17 6.16c3.85.68 7.75 1.15 11.61 1.77a44 44 0 0 1 5.1 1.08 105.82 105.82 0 0 1 23.55 9.57c3.28 1.9 6.35 4.14 9.87 5.67a4.57 4.57 0 0 1 2.27 2c1.75 3.91 6 6.57 5.73 11.46 2.72 3.24 1.88 6.72.94 10.35-1.58 6.13-4.06 8.48-10.32 9-2.26.2-4.54.09-6.8.3-1.9.18-3.07 1-2.08 3.58a43.06 43.06 0 0 1 2.06 8.65 7.2 7.2 0 0 1-1.9 6.07 19 19 0 0 1-8.68 6.2c-3.5 1-7.51.54-11.28.36-1.46-.07-2.38-.16-2.57 1.5-.77 6.88-4.82 11.16-10.94 13.82-.1 0-.1.32-.15.49h-1.05c-.72-1.42-1.41-.65-2.1 0l-8.4.12c-1.68-.78-3.29-2-5-2.25a41 41 0 0 1-11.7-3.72c-5.78-2.78-12-4.77-17.62-7.76-5.47-2.89-10.51-6.61-15.71-10-1.74-1.15-3.31-2.55-5.07-3.66-4.7-3-8.5-6.68-10.12-12.17-1.38-4.65-3-9.27-5.81-13.18a10.51 10.51 0 0 1-1.95-6.76 3 3 0 0 0 0-.52c-1-5-.45-9.84.34-14.82.49-3.13-.38-6.5-.74-9.76-.59-5.27.42-10.44 1.18-15.59a58.13 58.13 0 0 0 .25-17.42 25.73 25.73 0 0 1 .32-9.3c.92-4.17.35-8.34.85-12.44.77-6.36-.19-12.78 1.33-19.14 1.23-5.18 1.47-10.59 2.14-15.9.25-2 .54-4.06 3.16-3.95 2.82.11 2.48 2.41 2.55 4.3.26 7.41.82 14.82-1.44 22.1a11.31 11.31 0 0 0 .06 4.63c.8 6.18 1.18 12.3 0 18.54-.89 4.63-1.46 9.29 0 14.17.87 3 .12 6.48-.25 9.72-.5 4.45-1.35 8.87-2 13.3a12.64 12.64 0 0 0 0 2.61q.59 8.85 1.22 17.7c0 .66.43 1.4.25 2-1.72 5.56-.4 10.94.78 16.35.14.67 0 1.42.14 2.08.66 2.47-3.06 5.2 1.08 7.72 2.26 1.37 3.14 4.87 5 7.16s4.78 3.34 7.34 4.81c3.24 1.86 6.92 2.7 9.88 5.44 2.55 2.37 6.39 3.37 9.7 4.88 4.09 1.87 8.35 3.38 12.3 5.5 5.79 3.1 12.17 3.83 18.4 5.21 1.52.33 3.05.62 4.58 1a6.76 6.76 0 0 0 6.3-1.8c1.7-1.61 2.61-3.58 1.3-6.1-.52-1-.34-2.4-.31-3.62.07-3.13 2-5.39 5.09-5.37a65.53 65.53 0 0 1 7.7 1c2.73.36 5.48 1 8.18.88 4.57-.24 6.1-2.27 5.11-6.76-.82-3.67-2.27-7.19-3.39-10.8-1.5-4.85-.05-6.83 5.05-6.75 3.95.06 7.9.13 11.86-.2 2.11-.18 3.31-1.22 3.64-3.08.41-2.34 1-4.66-.57-7-1.2-1.83-1.18-4.64-2.64-6.07a50.34 50.34 0 0 0-9.83-7.52 110.13 110.13 0 0 0-12.17-5.61c-2.35-1-4.79-1.8-7.2-2.69a4.32 4.32 0 0 1-1.44-.59c-3.34-3-7.34-2.47-11.3-2.17-5.19.39-9.89-1.79-14.48-3.52-2.6-1-4.56-4.17-6.36-6.69-3.52-4.92-5-10.8-6.61-16.51-.81-2.93-.4-6.23-.37-9.37.07-5.9-.07-11.77.49-17.71.48-5.11 3.43-7.67 6.86-9.71 5.32-3.18 10.53-6.76 16.71-8.29a3.42 3.42 0 0 0 1.78-1c2.68-3.25 6.63-4.38 10.14-6.27a39.61 39.61 0 0 0 8.24-5.34c4.69-4.35 10.46-7.17 15.24-11.27a46 46 0 0 0 11.23-13.36c2-3.83 4.59-7.89 8.31-10.8a6 6 0 0 0 2-4c.41-2.55 2.1-4.9 3.22-7.34 2.57-5.6 5.47-11.07 7.55-16.84 1.31-3.63 1.53-7.68 2-11.56.89-7.38 1.92-14.76 2.3-22.16.18-3.55 1.39-7.25-.27-10.79 1.94-4.37-1-8.64-.16-13.12.75-3.95-1.38-7.71-2.86-11.29-1.18-2.85-2.12-5.74-3.13-8.63-1.73-4.94-3.86-9.79-7.47-13.86-1.77-2-3.69-4.49-4.07-7-.48-3.2-2.57-4.61-4.33-6.68a58.41 58.41 0 0 0-8.88-8.69c-3.33-2.55-7.09-3.79-10.78-5.11-9.94-3.59-20.18-2.77-30.38-1.06-2.21.37-4.57.44-6.58 1.29-3.82 1.61-7.72 3.33-9.12 7.89-.18.6-.86 1.09-1.39 1.54-5 4.24-6.81 10-8.76 16-2.33 7.19-1.61 14.2-1 21.35a29.44 29.44 0 0 0 .15 3c.45 2.36.61 4.89 1.64 7 1.8 3.7 1.84 8 4.35 11.43-1.44 2.66 1.12 4.08 1.8 6.09 1 2.9 2.45 6 2.18 8.88-.5 5.22 2.18 9.47 3.17 14.19 1.35 6.37 3.77 12.52 5.17 18.89 1.07 4.92-.76 9.7-3 14-3.26 6.24-9.09 10.35-13.95 15.26-.92.93-2.43 1.27-3.65 1.91-3.36 1.76-6.72 3.52-10.06 5.33-5.6 3-11.09 6.27-16.82 9-2.87 1.38-6.17 1.87-9.27 2.78-.85.25-1.76 1.78-2.52.24-.46-1-.71-2.67-.17-3.33 1.27-1.56 2.87-3.3 4.68-3.88 7.76-2.47 13.8-7.84 20.7-11.73 2.26-1.27 4.33-2.91 6.68-4 4.58-2.08 8.36-4.94 10.89-9.35.26-.45.67-.81 1-1.24.91-1.35 3.4-2.25 2.23-4.15-.53-.84-2.87-.8-4.37-.73-2.23.1-4.44.59-6.66.88a9.17 9.17 0 0 1-2.6.18c-6.28-1-11.83 1.65-17.56 3.4a55.68 55.68 0 0 1-5.56 1.37c-3.89.78-7.66 2.05-11.46 3a53.38 53.38 0 0 0-13.49 5.9c-5.63 3.25-11.77 5.39-17.25 9.05-5.2 3.47-10.57 6.77-15.81 10.24-4.42 2.93-9.13 5.43-13.71 8.11a3.86 3.86 0 0 1-.94.45c-6.2 1.68-10.95 6-16.44 9-2.72 1.47-5.2 3.09-8.35 3.94-3.6 1-6.8 3.43-10.2 5.19A69.33 69.33 0 0 1 135 434.2a47.87 47.87 0 0 0-10.56 4.29c-4.5 2.41-9.27 3.84-14.09 5.32-5.44 1.67-10.63 4.17-16.07 5.81-6.31 1.91-12.72 3.66-19.46 3a4.57 4.57 0 0 1-4-4.57c.09-1.49 1.16-1.92 2.51-2.14 3.41-.56 6.78-1.35 10.2-1.83 5.4-.77 10.12-3.48 15.19-5.15 5.75-1.88 11.58-3.51 17.37-5.27 1.49-.45 3.25-.6 4.4-1.5 5.71-4.51 13-5.09 19.35-7.82.63-.27 1.48-.2 2-.59 5.92-4.68 13.37-6.4 19.74-10.24 3.34-2 7.11-3.32 10.69-4.94a18 18 0 0 0 2.86-1.28c7.89-5.42 16.67-9.32 24.7-14.52 8.75-5.67 17.82-10.89 27-15.85 6.24-3.36 12.66-6.81 19.43-8.65 8.3-2.27 16.41-5.65 24.87-6.8 5.88-.79 11.92-2.25 18.06-1.13 2.25.41 4.69-.21 7.53-.38a23.7 23.7 0 0 0-1-4.45c-4.37-10.09-5.94-21-8.84-31.48-1.2-4.35-2.84-8.47-4.19-12.71-2.12-6.72-5.39-13.22-5.13-20.58.05-1.32-.82-2.67-.79-4 .12-5.45-.59-11.2.9-16.29 2.25-7.66 4-15.89 10.41-21.68 2.27-5.07 8.08-7.12 10.4-12.14 3.68-1.79 6.47-5.41 11.08-5.28a5.07 5.07 0 0 0 2.57-.31c3.35-1.91 6.94-.84 10.42-1a19.14 19.14 0 0 0 2.62 0c6.51-1.15 13 .41 19.53-.12a3.67 3.67 0 0 1 2.46.55c2.71 2.36 6.2 3.05 9.26 4.63a31.36 31.36 0 0 1 5.24 3.48c4 3.27 8.06 6.59 11.94 10.06 1.08 1 1.51 2.63 2.44 3.81 3.07 3.9 5.39 8.3 8 12.47s4.35 9.05 6.24 13.71c1.38 3.37 2.3 6.93 3.6 10.34 2 5.26 2.35 10.8 3.08 16.29.71 5.22-.05 10.52 1.2 15.71.3 1.27-.24 2.73-.35 4.11-.22 2.75-.4 5.5-.62 8.24-.1 1.19-.27 2.37-.41 3.55-.18 1.53-.47 3.06-.53 4.6-.21 5-.74 9.86-2.66 14.56a18.48 18.48 0 0 0-.89 5.59c-.09 1.26.64 1.69 2 1.53 8.48-1 16.35-4.24 24.45-6.57 5.57-1.61 10.7-4.71 16.25-6.44 5.75-1.8 10.67-5.59 16.72-6.59.78-.12 1.28-1.46 2.07-2s1.85-.6 2.6-1.14q10.11-7.24 20.14-14.6c2.83-2.07 3-2.88.22-4.35-5.77-3-8.09-8.65-11.13-13.68-3.5-5.78-5.37-12.31-7.62-18.66-2.48-7-3.15-14.37-4.72-21.56a4.41 4.41 0 0 0 0-.52c-2-7-2.15-14.11-1.88-21.27.06-1.68.26-3.35.29-5a92.35 92.35 0 0 0 0-10.39c-.55-6.09 1.23-11.75 3-17.35.74-2.32 1.19-4.79 3.11-7 3.78-4.28 8.72-6 13.75-7.26 3.06-.78 6.54.42 9.3 2.33 3.45 2.39 6.73 5 7.82 9.44a19.78 19.78 0 0 0 2.79 5.45 23.78 23.78 0 0 1 2.91 7.15 1.5 1.5 0 0 0-.44.13c-.08.05-.07.22-.1.33l.46-.54c.55.42 1.37.72 1.61 1.27 1.56 3.58 3.53 7.12 4.23 10.88a34.7 34.7 0 0 0 1.63 5.66 20.18 20.18 0 0 1 1.64 6.13c.14 3 2.32 6 3.29 9 1.75 5.58 3.12 11.28 4.91 16.85.73 2.26 2.14 4.3 3.24 6.43-.06.23-.13.45-.2.68l.67-.24a28.07 28.07 0 0 0 8.56-12.61c1.49-4.24 4.65-7.9 7.12-11.79.63-1 1.48-1.86 2.09-2.87 1.6-2.63 2.95-5.42 4.7-7.93 4.11-5.91 6.7-12.71 10.78-18.56 3.11-4.46 5.39-9.56 9.54-13.35 1.47-1.33 2.2-3.48 3.26-5.25 1.45-2.3 2.48-5.45 4.64-6.86 2.67-1.75 3.52-4.59 5.64-6.6s3-5 4.81-7.32c4.27-5.48 8.34-11.22 13.25-16.08 5.79-5.74 12.34-10.71 18.63-15.92 2.36-1.95 3.19-1.4 5.58.83 6.39 5.95 11.78 13.08 20 17 2.45 1.16 4.5 3.13 6.87 4.48a73.84 73.84 0 0 0 22.17 8.52 84 84 0 0 0 18.87 1.24c2.08-.06 4.12-1.39 7.14-2.49-5-3.09-9.13-5.56-13.17-8.2-2.58-1.69-5-3.61-7.49-5.45-2.64-2-5.28-3.93-7.88-5.94a18.84 18.84 0 0 1-3.54-3.09c-4.26-5.54-10.29-9.21-14.91-14.36a18.92 18.92 0 0 0-4.38-3.7 7.6 7.6 0 0 1-3.78-5.86c-.52-3.2.63-4.57 3.66-4.22 4.76.54 8.86 2.91 13.1 4.74a166.79 166.79 0 0 0 22 7.47c6.18 1.7 12.49 2.71 18.68 4.28 2.31.59 4.85.29 7.28.41 2.27.11 2.36.39 1 2.76a6.27 6.27 0 0 0-.37 1 10.08 10.08 0 0 1-6.32 1.93c-6.4-.44-12.87-.22-19.21-1-4.66-.59-9.16-2.39-14.87-4a23.27 23.27 0 0 0 1.91 2.57c3.55 3.21 7 6.53 10.75 9.53s7.48 5.52 11.3 8.16c3.66 2.53 7.61 4.68 11 7.47 1.88 1.53 3.86 3.92 4.15 6.14a5.79 5.79 0 0 1-4.14 6c-8.41 2.75-16.8 5.61-25.89 3.32a41 41 0 0 0-6.68-.55l-.46-.43c-.8-.16-.81-.15-1.55-1a4.89 4.89 0 0 1-.42-.69c-2.57 1.71-4-.32-6-1.45-1.5-.88-3.72-.4-5.45-1a90.55 90.55 0 0 1-22.13-11.27A53.65 53.65 0 0 1 612 164.06c-1.63-2.46-2.21-2.39-4.3-.46a88.75 88.75 0 0 1-9 7.92c-4.46 3.14-7.27 7.63-9.92 12-1.92 3.18-3.28 6.39-6.82 8.16-.85.43-1.39 1.83-1.71 2.89-2.23 7.39-8.18 12.34-12.1 18.61-2.69.82-1 3.73-2.59 5.28-1.9 1.91.33 3.52 1.1 5.1 3 6.15 7.92 10.84 12.7 15.58.75.74 1.53 1.44 2.32 2.12 3.41 3 6.76 5.74 11.58 6.51s9.4 3.42 14.41 3.8c5.27.39 10.58 1.26 15.83-.2a4 4 0 0 1 1.5-.27c2.28.28 4.32.32 5.41-2.35.25-.61 1.45-.82 2.19-1.25a25 25 0 0 0 4.44-2.7c5.39-4.9 12.25-6.86 18.69-9.68a2.1 2.1 0 0 1 1-.21c2.81.28 6.7 5.2 6.08 8.09a13.63 13.63 0 0 1-2.33 5.09 67.72 67.72 0 0 1-12.23 12.4c-.17.26-.33.53-.5.8l1.14-.2a31.39 31.39 0 0 0 3.92.82c.61.05 1.3-.76 1.91-.7 8.09.77 16.21 1.65 22.29 7.94 2.55 2.63.08 9.88-3.88 10.6s-7.64 2.74-12 1.79c-3.11-.67-6.55.2-10.76.43 5.78 4.3 11 7.82 14.51 13.23a1.25 1.25 0 0 0-.35.16c-.07.05-.06.18-.09.27l.43-.44c1.18 2.09 3.26 4.17 3.3 6.28.05 2.28-.65 4.79-1 7.19-.26 1.5-2.09 2.06-3.84 2.14a21.35 21.35 0 0 1-10.56-2.1c-4.64-2.3-9.17-4.81-13.73-7.26a107.5 107.5 0 0 1-16.13-10.22c-2-1.6-5.55-1.68-8.41-1.81-4.83-.24-9.67.1-14.51.08-2.23 0-4.47-.28-7.2-.47a8.31 8.31 0 0 0 .64 2.36c2.89 4.42 2.48 8.93-1.27 12.53-2.85 2.75-5.73 5.46-8.55 8.25-.26.25-.19.91-.12 1.37 0 .13.55.32.82.28 6.84-1.09 13.51 1.28 20.36 1.08 2.94-.08 6.06 2.4 8.84 4.14.77.48 1 2.51.81 3.74-.49 3.66-3.39 5.95-6.23 7.24-3.74 1.7-7.71 4.17-12.29 2.14a2.09 2.09 0 0 0-1.89.18c-2.37 2.7-5.63 2.43-8.71 2.85a31.61 31.61 0 0 0-3.5.91l-.94-.19.52.63q7.26 4.93 14.5 9.85a19.46 19.46 0 0 1 6.65 6.9c2.08 3.9 1.71 7.35-1.62 11.09a9.51 9.51 0 0 1-1.09.07ZM491.1 325.94l-1-.32.74.64.65.34c-.15-.22-.27-.44-.39-.66Zm-3.32-.83.75.39-.72-.41a1.42 1.42 0 0 0-.19-.39c-.06-.07-.21-.05-.31-.08Zm-7.37-4.11.37.28-.45-.2-1.06-1-2-1.11-.81-1 .73 1.08 2.17.93Zm-6.36-4.12.26.27-.35-.18-.36-.29Zm47-19.59 1.07 1.07 2.11 2.06 2.12 1 .35.28-.43-.19-2.11-1c-.18-1.21-.62-2.17-2.1-2.08l-1.1-1-.31-.27Zm-3.21-3.08.34.26-.4-.2a1.44 1.44 0 0 0-.15-.47c-.05-.07-.23-.06-.35-.08.17.12.36.28.54.45Zm-18.46 36.06-3.15-1a4.64 4.64 0 0 0-.79-1.23 14.66 14.66 0 0 0-1.9-1.17c.13.74.25 1.48.37 2.22a34.16 34.16 0 0 1-4.53-1.16c-2.2-.91-4.37-.65-5.76 1-2.54 2.95-5.88 4.82-8.69 7.34-4.86 4.36-9.83 8.84-15.59 11.57-7.82 3.7-15.4 8.12-23.88 10.33a3.71 3.71 0 0 0-3.13 3.58 36.23 36.23 0 0 1-1.75 7c-1.29 3.75-2.69 7.47-4.24 11.11-1.36 3.18-2.53 6.61-4.6 9.29-4.86 6.26-8.48 13.48-14.82 18.62-3.35 2.7-5.67 6.9-9.28 9-4 2.32-4.72 5.54-4.6 9.14.19 5.7 1 11.4 1.66 17.08.31 2.54 1.09 5 1.53 7.55 1.62 9.36 3.65 18.67 5.75 27.9 1.91 8.35 3.1 17.1 7.35 24.83a7.53 7.53 0 0 1 .43 1.42c1 3.41 1.88 6.83 2.89 10.22 1.56 5.26 4.47 10 5.58 15.49.61 3 2.57 5.7 3.7 8.61 1.76 4.53 3.21 9.18 5 13.66a8.8 8.8 0 0 0 3 3.44c1.81 1.3 4 2.07 5.81 3.37a44.1 44.1 0 0 0 14.35 6.88c7.95 2.11 16.1 3.43 24.18 5 1.86.36 3.78.46 5.67.64 6 .58 11.95 2 18 .52 1-.24 2.09-.09 3.08-.34a93.5 93.5 0 0 0 10.49-2.91c3.26-1.26 3.82-3.55 2.1-6.74-.82-1.52-2.05-2.83-2.81-4.38-1.53-3.11.16-6 3.57-6.17 2.62-.13 5.25 0 7.87-.16a14 14 0 0 0 10-4.66c1.14-1.27 3.38-2.54 3.32-3.71-.21-3.86.38-8.24-3.26-11.08-2.18-1.69-4.58-3.1-6.89-4.62-1.44-1-2.47-2.39-1.83-4 .43-1.06 1.9-1.75 3-2.47.38-.26 1 0 1.54-.17a65.86 65.86 0 0 0 8.5-2.21c5.14-2 7.34-7.78 4-11.28-2.43-2.54-5-5.52-8.85-6.21-4.7-.85-9.06-3.38-14-2.71a8.5 8.5 0 0 1-2.61-.14c-8-1.54-16.05-.82-24-.3a106.68 106.68 0 0 1-14.75-.15c-2.14-.16-4.2-1.45-6.3-2.22-.26-3.58-3.05-2.3-5.05-2.81a11.22 11.22 0 0 1-4.34-2.41c-4.94-4.25-6.44-10.37-8.3-16.21-1-3.12-1.44-6.4-2.18-9.6-.59-2.51-1.35-4.83-.41-7.62.66-2-.25-4.43-.32-6.68s-.59-4.57.24-6.34c1.8-3.85 3.67-7.67 7.39-10.45 3.13-2.32 6.65-4.42 8.77-8a6.06 6.06 0 0 1 3.64-2.75c2.41-.39 3.62-1.86 4.83-3.58 2-2.8 3.84-5.67 5.91-8.39 1.34-1.77 3-3.32 4.46-5a1.19 1.19 0 0 0 .17.38c.05.07.19.06.3.09l-.5-.45c2.33-2.79 4.94-5.4 6.93-8.42a145.41 145.41 0 0 0 15-29.63c1-2.8 2.08-5.52 2-8.57a10.42 10.42 0 0 1 .61-3.49c1.88-5.34 1.26-11 2.12-16.43.36-2.26-.67-3.56-2.84-4.28-2.58-.86-5.16-1.84-7.06-4Zm148.7-31.67c3.75 1.4 7.09 4.14 11.33 3.68-.11-3.94-2.4-5.9-5.35-7.87-4.12-2.77-7.78-6.26-11.56-9.51a8.92 8.92 0 0 1-1.8-2.51c-1.84-3.4-.79-5.88 3-6.38 4.16-.55 8.39-.61 12.6-.89 3.77-.25 7.55-.4 11.3-.84.77-.09 1.59-1.19 2-2 .13-.26-.91-1.54-1.57-1.69-4.53-1.08-9.07-2.57-13.66-2.77-5.16-.22-10.37.88-15.57 1.21-3.32.21-4.87-2.49-3.15-5.4a16.08 16.08 0 0 1 2.87-3 15.23 15.23 0 0 0 2.27-2c2.42-3.55 5.85-5.92 9.25-8.37 1.54-1.11 3-2.34 4.49-3.52-1.23-2.21-2.6-3.82-5.09-2.44-3.31 1.84-6.47 3.95-9.78 5.81-9.12 5.13-18.49 8.81-29.43 8.16-8-.47-15.75-2.3-23.62-3.43a15.25 15.25 0 0 1-9.35-5.35 46.25 46.25 0 0 0-6.78-7.12 15.12 15.12 0 0 1-3.93-4.68c-1.52-2.63-3.19-5.19-4.78-7.79-1-1.59-2.24-1.59-3.45-.47a13.27 13.27 0 0 0-2.16 2.86c-1.71 2.83-3.3 5.74-5 8.56-3.59 5.9-7.22 11.76-10.89 17.73l4.36 2.78c3 4.44 6.77 8.48 10.28 12.69a19.12 19.12 0 0 0 10 6.09c3.06.85 6.38.76 9.59 1.07 2.76.28 5.52.75 8.28.76 4.75 0 9.47.53 14.25.35 6.68-.25 13.43 1.11 20.07.63a10.83 10.83 0 0 1 7.47 2c2.85 1.9 5.57 4.15 8.67 5.5 4.77 2.06 8.37 6.32 13.75 7.17.43.07.77.68 1.15 1l-.24.35Zm-172 12c4.52 4.66 9.24 9.18 16.29 10a7 7 0 0 1 2.8 1.31c1 .67 1.81 2.08 2.84 2.23 4.73.67 8.61 3.59 13.43 4.4 4.57.77 8.77 3.57 13.76 3.68 1.89 0 3.71 1.68 5.64 2.37s4.08 1.12 6.1 1.74c4.11 1.26 8.14 3.32 12.32 3.68a38.77 38.77 0 0 1 19.21 7c5 3.58 10.06 6.74 15.83 8.73 3.57 1.23 6.94 3.29 11 2.82 2.51-.29 3.36-1.29 2.13-3.23a15.11 15.11 0 0 0-3.74-4.31c-3.68-2.61-7.53-5-11.4-7.3-3.59-2.14-7.4-3.92-10.87-6.22a6.34 6.34 0 0 1-2.69-4.17c-.11-1.9 2-2.38 3.72-3 5.62-2 11.52-2.1 17.29-3a11.32 11.32 0 0 1 3 .29c.68.08 1.44.46 2 .26 4.34-1.51 8.65-3.12 13.27-4.82-.85-.75-1.28-1.41-1.88-1.63-5.66-2.06-11.61-1.44-17.41-1.43s-11.76 1-17.64 1.53c-2.06.19-4-.21-4.69-2.4s1.3-3 2.61-4c5.14-4.11 10.4-8.08 15.4-12.35a16.72 16.72 0 0 0 4-5.87 118.64 118.64 0 0 0-29.39 12.81c-2.66 1.57-5.43 2.72-8.2 2.25a171.15 171.15 0 0 1-17.7-4.22c-9.55-2.74-16.84-8.36-20.51-17.82-3.23-8.33-7.17-16.34-9.71-25-2.48-8.4-5.43-16.7-8.67-24.87-1.33-3.37-2.09-7-3.36-10.36-1.07-2.83-3-5.41-3.68-8.3-1-4.22-3.2-7.55-5.77-10.81-3.75-4.75-10-5.54-15.07-2.19a16.14 16.14 0 0 0-6.72 9c-1.42 4.48-3.2 8.85-1.95 13.71a5.44 5.44 0 0 1 0 2.09c-1 7.74 0 15.42 1 23.05a194.16 194.16 0 0 0 6 29.43c2 7 4.47 13.84 7.1 20.61.75 1.71 2.84 2.9 4.28 4.33Zm110.66-20.85a15.94 15.94 0 0 0-7.87-1.42c-8.64.28-17.24.06-24.34-6.07a8.46 8.46 0 0 0-3.21-1.68 5.61 5.61 0 0 1-3.73-3.64c-1.57-4.79-7-7.14-7.62-12.43-.06-.5-1-1-1.57-1.29a1.48 1.48 0 0 0-1.39.22c-1.78 2.72-4.05 5.31-5.06 8.31a34.18 34.18 0 0 1-6.58 10.94 37.38 37.38 0 0 0-4 6.05 2.86 2.86 0 0 0 .26 2.69c2.37 2.28 4.67 4.94 7.54 6.33a164.3 164.3 0 0 0 16.9 6.67c4 1.44 8.14 2.28 11.14-2.18.26-.39.92-.5 1.31-.84 3.73-3.27 8.75-4.05 12.83-6.66a15 15 0 0 1 3.57-2c3.6-1.01 7.27-1.84 11.79-2.98Zm-44.63 18.59.39-.28-.32-.35-.5.48Zm5.15.74a1.66 1.66 0 0 0 .42.12c.05 0 .1-.2.14-.31a1.39 1.39 0 0 0-.41-.13c-.09.03-.13.24-.18.34Zm125.29-115.3-.32-.2v.34ZM482.23 410.6l-.16.23h.25Z" fill="#344286" data-color="1"/>
        <path d="M704.56 151.57c-1-1.23-.59-2.28.49-3.14 3-2.36 5.88-4.91 9.08-7 4.53-2.9 5.63-7.61 6-12.14.44-4.76-.55-9.67-1-14.51a10.7 10.7 0 0 0-.9-3c-4.45-10.85-9.91-20.95-20-27.76-2.59-1.74-4.93-3.85-7.39-5.79-1.46-1.14-1.87-2.42-.66-4a45.25 45.25 0 0 1 3.12-4.2c4.54-4.69 7-10.68 10.41-16.1a122.53 122.53 0 0 0 6.39-11.2c-13.82 5.06-26.69 12.14-41.47 17.38.6-2.44.73-4 1.34-5.28 1.08-2.32 2.45-4.5 3.71-6.74 1.44-2.55 3-5 4.29-7.66a59.8 59.8 0 0 1 4.07-7.11c2.39-3.63 3.81-7.92 5.56-12 .2-.46-.16-1.15-.26-1.74a6.81 6.81 0 0 0-1.46.39c-4 2-8 4.09-12 6.21a38 38 0 0 0-4.41 2.77c-3.62 2.63-7.87 3.85-11.88 5.64a96.47 96.47 0 0 0-9.28 5.41c-2.25 1.31-4.42 2.74-6.7 4a2.24 2.24 0 0 1-1.84-.33c-.28-.18-.31-1-.2-1.46a5.8 5.8 0 0 1 .83-1.89c4.58-6.84 6.85-14.61 9.18-22.37.89-3 2-5.89 3.09-8.84.13-.39.25-.78.38-1.16l-1.16.41a35.6 35.6 0 0 0-10.56 7.48 29.23 29.23 0 0 1-4.08 3.2L625 28.29c-1 .71-2 1.47-3 2.15s-2 .93-2.61 1.72c-3.19 4.51-8.46 6.45-12.32 10.15a12 12 0 0 1-5.52 2.55c-5.91 1.3-12 2-17.8 3.56-3.63 1-7 3-10.43 4.56-3.78 1.75-7.41 3.88-11.32 5.25a44.07 44.07 0 0 0-10.1 5.38c-4.61 3.13-9.28 6.17-13.69 9.55-5 3.79-9.65 7.94-14.48 11.91a52.54 52.54 0 0 1-6.13 4.77c-5.43 3.23-8.5 8.62-12.54 13.13-.81.89-1.46 2.18-2.47 2.59-4.67 1.94-8 5.54-11.18 9.12a102.78 102.78 0 0 1-14.94 13.73c-4.68 3.53-8.83 7.84-13.76 10.92-9.26 5.76-18.66 11.45-29.6 13.63-2.05.41-4.16.49-6.24.76s-3.23-.73-3.94-2.62c-.45-1.2-.38-2.07.88-2.5 2-.68 4-1.69 6-1.76 3.15-.11 5.56-1.71 8.29-2.82 7.69-3.12 13.78-9 21.48-12.09a10.59 10.59 0 0 0 3.6-3 43.66 43.66 0 0 1 7.92-6.55c6.59-4.61 11.95-10.53 17-16.76a20.49 20.49 0 0 1 3-2.83c5.13-4.14 10.55-7.85 14.26-13.62a18.77 18.77 0 0 1 6.43-5.75c3.06-1.76 5.7-4.28 8.44-6.55 3.83-3.18 7.56-6.45 11.38-9.63a9.32 9.32 0 0 1 3-2c3.86-1.12 6.79-3.78 9.37-6.44 2.74-2.82 6.42-4 9.14-6.71a2.3 2.3 0 0 1 1.37-.68c6.26-.13 11-4.16 16.33-6.55 7.15-3.2 14.39-5.69 22.25-6.23a14.15 14.15 0 0 0 3.46-1c1.32-.46 2.67-1.55 3.89-1.4 6.45.78 10.09-3.86 14.32-7.21 4.84-3.82 9.4-8 14.15-11.91 2.24-1.85 5.2-2.49 7.4-4.66s5.34-3.77 8-5.72c2.24-1.66 4.28-3.58 6.53-5.22 3-2.17 3-2.1 6.18-.07 3.68 2.38 3.89 2.44 2.69 6.38-2 6.61-4.34 13.12-6.5 19.68-.32 1-.49 2-.72 3l-.39.64.61-.42a23.24 23.24 0 0 0 8.8-5.26c1-1.07 2.68-1.54 4-2.37 1.58-1 3.1-2.08 4.64-3.14a22.07 22.07 0 0 1 2.54-1.8c4-2 8.06-3.88 12.05-5.88 1.9-1 3.7-1.76 5.85-.7s3.6 2.73 3.25 5.33c-.3 2.16-.37 4.47-1.23 6.41-2.77 6.31-4.55 13.09-8.74 18.76-.69.94-.92 2.22-1.57 3.88a17.06 17.06 0 0 0 3.1-.58q7.15-3 14.24-6c1.1-.48 2.07-1.26 3.16-1.78 3.67-1.75 7.33-3.55 11.08-5.13 2.07-.86 6.42.78 7.35 2.73a4.5 4.5 0 0 1 .08 3 17.74 17.74 0 0 1-1.91 4.29c-4 6.48-8.12 12.91-12.22 19.34-.83 1.31-1.76 2.57-2.64 3.84-.29.65-.65 1.38-1 2.12a9.23 9.23 0 0 0-1.44 2c-1.72 4.87-2.32 3.77 2 7a59.75 59.75 0 0 1 7.53 7.23c5.26 5.65 7.77 13 11.58 19.5 1 1.73 1.25 4 1.62 6 .91 5 1.64 10 2.55 14.92a13.08 13.08 0 0 0 1.24 2.8v1.05a10 10 0 0 0-1.16 2.08c-1 3.63-2 7.28-2.92 10.94-1 4.06-4 6.44-7.22 8.48s-6.42 4.22-10.3 4.65c-1.55.17-2.84-.27-2-2.34a1.35 1.35 0 0 0 .5-.08c.53-.26 1.05-.56 1.57-.84a9.4 9.4 0 0 0-1.74-.21c-.25.04-.51.39-.77.61ZM658.92 32.74a1.19 1.19 0 0 0 .4-.15c.07-.05.06-.2.09-.3l-.46.47a1.32 1.32 0 0 0-.42.17c-.07.06 0 .21-.07.33Zm4.41-1.93L665 30c-.12-.12-.28-.37-.34-.34-.59.22-1.16.5-1.73.76l-.56.88ZM676.62 23l1.49-.21c-.09-.21-.19-.42-.28-.62l-1.13.91-.27.28Zm-67.2 15.54c0-.24.07-.48.11-.72l-4.21.06v.72Zm-14.92 2.24v-.54h-3.16v.55Zm4.84-1.38c-.25-.16-.51-.45-.76-.45s-.53.29-.8.45c.26.16.52.45.78.44s.52-.28.78-.44Zm74.28-15-.46.13.6.24Zm8.74-3.89.17-.25h-.27Zm-2.07 1.22c.11-.11.23-.21.35-.31-.11-.12-.21-.32-.32-.33s-.23.19-.35.29c.1.13.21.24.32.36Zm-12.74 6.13.32.2v-.33Z" fill="#344286" data-color="1"/>
        <path d="M0 436.16c2.21-2.2 4.46-4.26 8-3.29a2 2 0 0 0 1.46-.29c5.26-3.84 12-4.26 17.53-7.6 2.69-1.62 6.21-2.25 9.43-2.56 5.33-.51 9.94-2.94 14.83-4.65a2.41 2.41 0 0 0 1.32-.76c1.92-3.28 5.72-3.8 8.63-5.31s5.49-3.78 8.1-5.71c7.78-5.77 15.36-11.85 21.9-19.07a12.17 12.17 0 0 1 2.36-2.06c4.88-3.14 8.31-7.67 12-12a112.84 112.84 0 0 1 9.9-9.78 5.28 5.28 0 0 1 6.09-.35c1.62 1.32 2 3.68.78 6.05a31.44 31.44 0 0 1-6 8.49c-3 2.92-5.49 6.27-8.26 9.39a74.51 74.51 0 0 1-12.87 11.83 64.08 64.08 0 0 0-7.45 6.51 86.33 86.33 0 0 1-18.65 13.56c-4.69 2.57-8.89 6.13-13.74 8.26-3.55 1.55-6.87 3.6-11 4.38a170.16 170.16 0 0 0-28.58 7.69c-.29.11-.51.44-.92.8.43.49.77 1.2 1.31 1.43 8.89 3.85 18.22 6.27 27.64 8.38 2.46.55 4.69-1.55 7.36-.25 1.77.87 4.05.63 6.07 1.05 1.83.38 4 .53 5.26 1.66.75.71 0 3.07-.11 4.6-4.65.07-9.29.18-13.92.18-2.85 0-5.7-.16-8.55-.26-8.43-.32-16-4-23.83-6.48-5-1.59-9.48-4.82-13.41-8.46-1.2-1.12-1.82-2.87-2.71-4.33.03-.35.03-.7.03-1.05Z" fill="#344286" data-color="1"/>
        <path d="M320.65 168.93c4.61.89 8.3-1.86 12.35-3.16 4.36-1.39 8.26-4.16 13.06-4.27a6.93 6.93 0 0 0 3-.68c6.86-3.59 14.4-5 21.82-6.48 5.55-1.14 11.33-1.14 17-1.77 3.43-.38 6.83-1 10.24-1.52.7 1.6 1.43.95 2.15-.1.78.23 2 .81 2.39.46 2.73-2.56 6.08-1.2 9.11-1.68l.38.25-.44-.19c3-.75 5.28-.34 6 1.07s-.8 4.57-3.37 5.18c-2.74.65-5.25 2-8.18 2.18-3.17.23-6.24 1.27-9.54 1.4-4.9.19-9.79.8-14.73.92a56 56 0 0 0-10.77 1.5c-8.92 2-17.78 4.25-26.66 6.42a10.79 10.79 0 0 0-2.43 1c-6.56 3.42-13.69 5.21-20.8 6.89a75.81 75.81 0 0 0-18.36 7.41c-4.11 2.21-7.87 5.07-11.83 7.58a23.48 23.48 0 0 1-4.13 2.22 27.26 27.26 0 0 0-9.43 6.31c-4.06 4-8.44 7.71-12.69 11.54a3.1 3.1 0 0 1-.84.62c-5.9 2.27-9.45 7.54-14.23 11.23a63 63 0 0 0-6.2 6.14c-11.06 11.2-21.42 23-32 34.68-7.14 7.85-13.49 16.32-20.41 24.34-5.5 6.38-10.76 13-16.64 19-6.8 6.95-14 13.72-19.65 21.45-5.8 7.89-13.07 14.28-19.05 21.89-.74.94-1.18 2.11-1.93 3a30.33 30.33 0 0 1-4.15 4.53c-.73.6-2.7.91-3.12.45-1-1.13-2.35-2.56-1.1-4.45 3.17-4.78 6.3-9.59 9.49-14.36a4.48 4.48 0 0 1 1.62-1.29c4.82-2.54 7.47-7.07 10.52-11.26 1.73-2.38 3.63-4.64 5.56-6.87 5.77-6.67 11.25-13.64 17.48-19.86 9.76-9.75 17.69-21.08 27.47-30.78 2.2-2.18 3.87-4.89 5.89-7.27 4.45-5.21 9-10.33 13.44-15.57 2.54-3 4.74-6.32 7.35-9.27a116.05 116.05 0 0 1 10.12-10.44c2.93-2.59 6-4.91 8-8.39a7 7 0 0 1 2.64-2.4 12.86 12.86 0 0 0 4.12-3.79c.88-1.2 2.38-2 3.61-2.89s2.72-2.13 4.14-3.12c1.09-.75 2.3-1.34 3.4-2.08a43.2 43.2 0 0 0 4.64-3.24c4.18-3.59 8.24-7.31 12.4-10.93.48-.42 1.28-.45 1.9-.74 2.8-1.36 5.62-2.69 8.36-4.16 4-2.11 7.72-4.53 11.79-6.52 4.64-2.27 9.44-4.27 14-6.7 2.37-1.26 5.53-.84 7.22-3.44Zm92.94-16.54-.32-.2v.34Z" fill="#344286" data-color="1"/>
        <path d="M635.26 78.27c-.69 5.21-2.82 9.62-7.35 12.59-2.55 1.68-5 .85-7.28-.73a5.48 5.48 0 0 1-2.45-6.38 18.35 18.35 0 0 1 8-10.57c3.82-2.38 9.71 1.01 9.08 5.09Z" fill="#344286" data-color="1"/>
        <path d="M703.64 117.61A6.31 6.31 0 0 1 702 117c-3.14-2.3-5.8-5-6.58-9a3.71 3.71 0 0 1 1-3.13 3.49 3.49 0 0 1 3.21 0c3.13 1.9 6 4.18 7 8 .58 2.2-.75 4.57-2.99 4.74Z" fill="#344286" data-color="1"/>
        <path d="M398.1 151.05c.69-.73 1.38-1 2.09 0A18.9 18.9 0 0 0 398 151Z" fill="#344286" data-color="1"/>
        <path d="M386.48 432.63v-2.09a16.93 16.93 0 0 0 0 2.15Z" fill="#344286" data-color="1"/>
        <path d="m561.76 207.41-.35-.13.27.21Z" fill="#344286" data-color="1"/>
        <path fill="#344286" d="m704.52 65.71.28.24-.2-.32-.08.08z" data-color="1"/>
        <path d="M600.73 364.39h-1a5.33 5.33 0 0 0 1.07 0Z" fill="#344286" data-color="1"/>
        <path fill="#344286" d="m703.5 67.83.24.19-.17-.27-.07.08z" data-color="1"/>
        <path fill="#344286" d="m699.5 154.01.31.24-.24-.31-.07.07z" data-color="1"/>
        <path fill="#344286" d="m320.62 168.95-.26-.28.28.26-.02.02z" data-color="1"/>
        <path fill="#344286" d="m392.47 413.67-.22.21.19-.24.03.03z" data-color="1"/>
        <path d="m499.45 330.13 2.13 1c-.4.41-1 1.23-1.15 1.15-1.43-.59-2.79-1.37-4.16-2.09Z" fill="#344286" data-color="1"/>
        <path d="M496.3 329.13v1.1l-1.77-.8Z" fill="#344286" data-color="1"/>
        <path fill="#344286" d="m476.05 310.62.26-.29-.35.21.09.08z" data-color="1"/>
        <path fill="#344286" d="m544.65 261.31.25-.28-.34.2.09.08z" data-color="1"/>
    </g>
</svg>
