<?xml version="1.0" encoding="UTF-8"?>
<svg data-bbox="-0.01 0 523.011 473.21" viewBox="0 0 523.02 473.16" xmlns="http://www.w3.org/2000/svg" data-type="color">
    <g>
        <path d="M160.34 327.9c.08-.41.19-.78.29-1.17-12.74 4.14-25.54 8-38.54 11.25-4.59 1.14-8.82 2.87-13.19 4.37s-7.24-.84-6.61-5.6c2.12-16.22 1.53-32.56 2.48-48.83.29-5.08.82-10.16 1.22-15.24.9-11.22-1-22.27-2-33.38-.34-4 .41-5.05 4.15-6 5.87-1.41 11.64-2.64 17.91-2.37 5.28.23 10.74-1 16.09-2.82 15.47-5.19 31.18-9.64 46.83-14.28 3.43-1 4.89.15 6 3.73 2.32 7.28 1.83 14.83 2.16 22.27.38 8.4.09 16.84.09 25.73.92 7.36.81 14.89.84 22.48a11 11 0 0 1 10.26-1.04v-9.16h.33c-.29-10.3-.6-20.61-.87-30.92-.31-11.7-2.69-23.15-4-34.72-1-8.78-5.91-14.6-12.84-19q-24.78-15.6-49.85-30.74c-5.58-3.36-11.57-6-17.46-8.84a15.58 15.58 0 0 0-5.38-1.22 2.92 2.92 0 0 0-2.25 1.33 3.09 3.09 0 0 0 0 2.59 9 9 0 0 0 2.67 3.17 133.09 133.09 0 0 0 12 7.3c13.71 7 27.57 13.78 41.28 20.83a139.13 139.13 0 0 1 13.23 8c4.29 2.86 4.2 6.44-.17 8.47-3.81 1.76-7.77 3.19-11.68 4.71-21.82 8.51-44.85 13.12-66.92 20.82-4.44 1.55-8.32 1.14-11.77-2-4-3.57-9-4.77-13.8-6.67q-14.29-5.7-28.5-11.63c-6.89-2.9-13.7-6-20.55-9-2-.9-5.62-1.53-5.82-2.73-.62-3.64 3.18-3.92 5.62-4.94 7.34-3.06 14.73-6 22.12-9l53.4-21.3a19.67 19.67 0 0 0 3.63-2.1c.32-.22.66-.94.53-1.22-.32-.71-.88-1.81-1.4-1.84-9.05-.59-17.45 2.35-25.85 5.06-9.24 3-18.3 6.47-27.42 9.78-11.87 4.29-23.29 9.83-35.16 14.15C11.73 189.71 8.1 198.79 2 205.6a4.69 4.69 0 0 0-.63 2.6C1 212.8.6 217.42.33 222c-.81 13.94.85 27.9-.18 41.85a33.94 33.94 0 0 0 .23 8.43c2.31 13 2.59 26.09 2.78 39.19.09 6.55 2.68 10.58 8.71 12.86 14 5.28 27.91 10.8 41.93 16 8.76 3.27 17.57 6.41 26.5 9.18 10.64 3.31 21.28 7.74 32.69 2.94 16.13-2 31.61-6.71 47-11.52a50.8 50.8 0 0 1 .35-13.03ZM93.7 279.72c-1.67 12.46-.82 25.27-.79 37.93 0 7.92.11 15.81-.43 24.64-3.85-1.12-7.18-1.41-9.72-3-7.29-4.49-15.53-6.37-23.38-9.31-13.11-4.92-26.25-9.79-39.24-15a9 9 0 0 1-4.39-5c-1-3-1.15-6.37-1.5-9.59-.65-6-1.21-12.06-1.78-18.09q-.92-9.7-1.77-19.42c-.21-2.34 0-4.76-.56-7-3.24-13-2.22-26-.57-39 .49-3.86-3.13-8.4 1.66-11.63 3.44 1.19 6.92 2.28 10.3 3.6q31.28 12.27 62.47 24.6c1.74.69 3.43 1.49 5.17 2.19a5.66 5.66 0 0 1 3.92 5.27c.31 12.92 2.38 25.68.61 38.81Z" fill="#344286" data-color="1"/>
        <path d="M141 301.31a7.51 7.51 0 0 1-3-.41c-1.1-.51-2.54-1.76-2.61-2.76-.21-3.2-.4-6.59.39-9.65q3.84-14.81 8.55-29.37c.62-1.91 2.89-3.67 4.84-4.64a5.56 5.56 0 0 1 5 .52 21.13 21.13 0 0 1 5 6.56q6.17 12.48 11.83 25.2c2.07 4.64.57 8-4.46 9.76a77.32 77.32 0 0 1-25.54 4.79Z" fill="#344286" data-color="1"/>
        <path d="M52.62 287.8c-10.27-.05-16.4-8.81-14.27-19 1.46-7 5.74-10.3 11.76-12.32 5.06-1.71 10.77.23 13 5.27s3.72 10.51 2.6 16.12c-1.28 6.7-5.84 9.96-13.09 9.93Z" fill="#344286" data-color="1"/>
        <path d="M350.23 411c0 7.35.11 14.7 0 22s-.5 14.86-.85 22.28a18.32 18.32 0 0 1-.8 5.51 4.59 4.59 0 0 1-2.74 2.75c-9.19 1.49-18.42 2.72-27.64 4l-9.71 1.46a69.57 69.57 0 0 1-8.32 1.14c-11.23.27-22.47.4-33.71.46a116.18 116.18 0 0 0-16.62 1.53c-9.19 1.38-18.66 1-28 1.08-5 0-8.91-3.17-12.42-6.06-15.17-12.49-29.87-25.53-42.71-40.49a14 14 0 0 1-3.16-6.1c-1.63-8.71-3.55-17.34-3.53-26.36 0-12.6-.42-25.17-1.51-37.8-1.45-16.75-.56-33.71-.46-50.58 0-2.73 1-5.49 1.81-8.16 1.31-4.36 4-7.22 8.79-7.9 6-.86 11.61-3 17.81-3.21 6.93-.27 13.8-2.23 20.69-3.45a56.35 56.35 0 0 1 6.87-1.17c12.19-.58 24-3.44 36-5.45 9.18-1.55 18.48-2.62 27.77-3.36s17.49 3.08 24.59 8.67a289.13 289.13 0 0 1 31.07 28.43c8 8.48 11.92 18.13 13.48 29.91 1.92 14.44 2 28.93 3.49 43.35.94 9.1.17 18.37.17 27.57Zm-6.94-3.18c1.33-22.54-.65-44.94-2.57-67.37-1.16-13.52-1.48-11.42-13.47-11.43-3.26 0-6.51.7-9.78 1-4.63.47-9.25 1-13.89 1.29-20.08 1.29-40.17 2.5-60.25 3.74-5.51.33-10.6 2.75-16.59 1.26-5.25-1.3-8.11 2-8.59 8-.64 7.91-1.64 15.9-1.15 23.78 1.61 25.66 3.86 51.28 5.8 76.93.42 5.5.67 11 .81 16.54 0 2.34 1.24 3.59 3.27 3.54 6.49-.16 12.93.78 19.5 0 12.05-1.51 24.19-2.34 36.31-3.23 13-1 26.1-1.63 39.14-2.48 5.15-.34 10.3-.74 15.42-1.3 3.31-.36 5.27-2.25 5.64-5.28a58.31 58.31 0 0 0 .38-7q.05-19.02.02-38ZM230.45 329c1.16-.17 3.44-.6 5.75-.84 12.49-1.34 25-2.95 37.48-3.86 18.1-1.3 36.24-2.08 54.36-3.11a5.23 5.23 0 0 0 2.6-.76c.58-.42 1.29-1.68 1.08-2-1.73-2.71-3.28-5.7-5.6-7.85-11-10.17-22.16-20.09-33.25-30.14a4.65 4.65 0 0 0-5.09-1.07 23.8 23.8 0 0 1-5.39 1.5c-19 1.75-37.77 6.06-57 6.51-7.9.19-15.79 1.56-23.64 2.64-6.45.89-12.85 2.13-19.26 3.26-1.71.3-2.66 3-1.62 4.45a19.24 19.24 0 0 0 2.53 3.35c7.4 6.42 15.07 12.54 22.28 19.17 6.78 6.18 14.97 7.84 24.77 8.75Zm-19.91 127c.68-5.29 1.72-9.36 1.64-13.41-.39-19.14-.8-38.29-1.81-57.41-.42-7.91.8-15.78-.08-23.61-.42-3.72-.91-7.23.27-10.89 1.3-4.06-2-8-.16-12.35 1.25-2.94.1-4.95-3.48-6.12-2.94-1-5.5-3.36-8-5.41-8.62-7.15-17.11-14.44-25.72-21.6a3 3 0 0 0-2.59-.4 2.84 2.84 0 0 0-1.48 2.09q-.19 14-.17 28.05c0 8.41-1 17 .52 25.17 2 11.23 1.63 22.4 1.23 33.54-.27 7.47.66 14.82.53 22.23a9 9 0 0 0 4.33 8.34c7.4 4.36 12.7 11 18.58 16.95 4.9 4.94 10.16 9.42 16.39 14.83Z" fill="#344286" data-color="1"/>
        <path d="M301.87 393.31a5.07 5.07 0 0 1 .4 1.33A47.08 47.08 0 0 1 300.1 411a36.88 36.88 0 0 1-18.27 5.79c-4.18.19-8.37.25-12.5.76-5.89.73-7.84.05-9.55-4.7-3.69-10.24-4.39-20.89-3.82-31.65.15-2.74 2.48-5.55 5.25-5.78 9.68-.83 19-4.38 28.9-3.62 5.95.45 9.68 3.21 10.61 9 .66 4.13.79 8.34 1.15 12.51Z" fill="#344286" data-color="1"/>
        <path d="M316.53 184.56c0-10.76.29-21.53-.12-32.27-.22-5.85 1.17-9.6 7-11.94 4.69-1.88 8.88-5.12 13.18-7.93 10.69-7 22.48-11.34 34.52-15.34 10.63-3.52 21-7.88 31.52-11.66a116.74 116.74 0 0 1 13.41-3.72c1.15-.27 2.67.42 3.84 1 2.06 1 3.86 3 6 3.41 11.65 2 22.33 6.8 33.15 11.16 13 5.23 25.87 10.74 38.8 16.1 11.23 4.66 17.82 12.81 19.28 25 .34 2.76 1.6 5.43 1.8 8.18 2.25 30.76 4.93 61.51 3.84 92.41-.14 3.91-.63 7.46-4.95 9.1-1.16.45-2.21 2.18-3.14 2.06-7.06-.91-12.27 3.41-18.26 5.73-10.42 4-21.17 7.23-31.79 10.75-4 1.32-8.1 2.33-12 3.91-13.19 5.34-27 6.45-41 6.39a32.4 32.4 0 0 1-6.84-1.15c-5.9-1.37-11.85-2.63-17.66-4.34-6.25-1.84-12.39-4.09-18.53-6.28a322.72 322.72 0 0 1-43.73-19c-2.77-1.48-4.47-3.22-4.62-6.34-.86-17.67-4.12-35.17-3.52-53 .25-7.39-.62-14.82-1-22.23Zm103.91 56.79h.47v18.24c.06 8.44.13 16.87.32 25.29a3.73 3.73 0 0 0 4.63 3.81c2.26-.56 4.48-1.28 6.7-2 8.89-2.83 17.69-6 26.67-8.47 16.59-4.61 33-9.69 49.41-14.95 3.06-1 4.8-3 4.89-6.07.14-4.67.65-9.5-.28-14-2-9.74-2-19.52-2-29.35 0-4.21.59-8.6-.39-12.6-2.83-11.6-1.47-23.08-.21-34.63a52.52 52.52 0 0 0 .23-5.61c0-3.22-2.33-5-5.64-4.11-13.93 3.92-27.84 7.93-41.75 11.94-4.93 1.43-9.88 2.81-14.74 4.44-8.83 3-17.6 6.13-26.67 8.33-2.69.65-3.77 2.69-3.51 5.26.53 5.11 1.7 10.18 1.8 15.28.24 13.08.07 26.14.07 39.2Zm-7.25-1.93h-.91c0-10.78.09-21.56 0-32.34-.08-6.06-.41-12.13-.87-18.18a7.2 7.2 0 0 0-5.81-7c-23-6.21-45.54-14-67.91-22.29-2.2-.8-4.35-1.73-6.58-2.43-3.63-1.14-5.45.07-5.53 3.62-.08 3.29 0 6.57 0 9.85.06 6.56 0 13.13.26 19.68.21 6 .56 12.09 1.13 18.11.6 6.42-.31 12.8.43 19.31 1.17 10.2.71 20.59 1 30.9a4.15 4.15 0 0 0 3.08 4.16 292.68 292.68 0 0 1 33.14 11.06c13.71 5.69 28.42 9 42.72 13.25a4.43 4.43 0 0 0 5.82-4.14c.07-14.51.03-28.98.03-43.56Zm5.22-128.65c-2 .61-3.73 1.13-5.48 1.72-11.48 3.9-22.77 8.58-34.5 11.53-16 4-30.53 11.44-45.33 18.3-.4.19-1 .57-1 .92-.1.78-.19 2.1.2 2.3a98.35 98.35 0 0 0 11.24 5.53q26.83 10.25 53.8 20.15c3.91 1.45 8 2.33 11.92 3.82 3 1.15 5.28.21 8-.92 9.44-4 18.71-9.09 28.59-11 15.69-3.06 29.36-12.19 45.35-13.9a2.93 2.93 0 0 0 1.8-1.92c.15-.51-.59-1.66-1.2-2-15.63-7.36-31.22-14.8-47-21.86-7.24-3.24-14.84-5.64-21.3-10.49-1.42-1.02-3.33-1.43-5.09-2.18Z" fill="#344286" data-color="1"/>
        <path d="M447.07 207.07a22.81 22.81 0 0 1 4.46 1.05c2.52 1.22 4.88 2.75 7.35 4.07 5.49 2.95 5.56 2.86 8.86-1.95a90.34 90.34 0 0 1 6.68-8.88c.55-.62 2.69-.61 3.53 0s2.1 2.62 1.76 3.39c-2.06 4.65-4.5 9.13-6.86 13.65a3.73 3.73 0 0 0 .93 4.93c3.06 2.83 6.27 5.53 9.11 8.56.72.76.84 3.14.21 3.85-1.07 1.21-3.33 2.68-4.45 2.28-3-1.07-5.61-3.07-8.36-4.73-3-1.81-4.63-1.34-6.87 1.78-2.7 3.76-5.4 7.54-8.39 11.05-.56.65-2.86.59-3.77 0a4 4 0 0 1-1.41-3.5 96.52 96.52 0 0 1 3.84-9c1.29-3 3.46-5.87 3.61-8.88.2-3.86-4.43-4.22-6.87-6.17a12.52 12.52 0 0 1-4.82-8.22c-.14-.99.91-2.13 1.46-3.28Z" fill="#344286" data-color="1"/>
        <path d="M381.91 219.53c-.1 9.07-4 14.45-10.59 15.76a16 16 0 0 1-17.21-9.22 6.58 6.58 0 0 1-.66-2.69c.07-6.46 2.65-11.89 7.87-15.6 4.35-3.08 12.66-2.21 17 1.42a10 10 0 0 1 2.83 4.65 29.94 29.94 0 0 1 .76 5.68Z" fill="#344286" data-color="1"/>
        <path d="M289.93 107.25c-.12-7.49.17-15.09-1.08-22.42a126.32 126.32 0 0 1-1.54-19.57 250.66 250.66 0 0 0-6.2-50.07 12.75 12.75 0 0 0-7.47-9.46c-3.94-1.91-8-2.31-12.22-2.68-19.13-1.69-38.49 1.24-57.51-2.76a7.36 7.36 0 0 0-1.41 0C185.62.19 168.74.15 151.86 0c-4 0-7 1.38-10.23 3.75-7.12 5.25-12.15 13.14-20.86 16.39-1.16.43-1.88 2-2.82 3-3.83 4.11-7.85 8-11.45 12.33a220.14 220.14 0 0 0-13.75 17.69 15.7 15.7 0 0 0-2.66 9.26c1.12 15.4-1.51 30.93 2 46.27 1.15 4.94.56 10.27.86 15.42.19 3.25.49 6.5.86 9.73.64 5.57 1.91 11.12 1.93 16.68a61.7 61.7 0 0 0 1 10.92 10.55 10.55 0 0 1 8.26-1.14c-1.44-9-1.51-18.25-2.26-27.37 0-.46-.35-.89-.4-1.35-.27-2.78-.63-5.55-.73-8.34-.65-18.73-1.34-37.47-1.75-56.21a80.37 80.37 0 0 1 1.3-13.8c.32-2.13 2.27-3 4.25-2.25 8.47 3.31 17.09 3.73 26.11 2.85 6.43-.62 13.05-1 19.53 1.18 3 1 6.49.9 9.76 1q19 .32 38 .38c6.54 0 13.09-.43 19.63-.25 4.08.12 7.08-.87 9.69-4.27 6.91-9 18.22-13 25.55-21.72 2.33-2.78 6-4.46 9.12-6.53 1.95-1.3 4-2.43 6.06-3.56a3 3 0 0 1 4.36 1.74c3.53 13.68 3.59 27.83 5.09 41.76 1.26 11.62.6 23.44.94 35.16a73.89 73.89 0 0 0 1.12 9.7c1.73 10.74.65 21.45-.34 32.14-.21 2.18-1.2 4.9-2.78 6.23-8.24 6.91-14.54 16-24.24 21.28a68.83 68.83 0 0 0-9 6.56c-4 3.15-8 6.42-12.54 10.16-2.36-11.69-1.07-22.81-1.77-33.8-.27-4.18-.07-8.39-.29-12.57-.35-7-1.07-14-1.25-21-.21-8 .34-15.92-1.89-23.75-.76-2.64-1.4-5.91-.52-8.3 2.68-7.24-1.45-13.8-1.34-20.72 0-.73-1.93-2-3.09-2.13-2-.33-3.83.77-3.8 3 .12 7.42.43 14.84.77 22.25q.69 14.73 1.56 29.45c.24 4.18.61 8.36 1.07 12.53.4 3.71 1.16 7.38 1.47 11.1.58 7 .79 13.91 2.11 20.89 1.37 7.3.82 15 1 22.46.07 2.06-1 3.84-3 4.09-8.81 1.08-17.65 1.92-26.49 2.84-3.37.35-6.76.52-10.15.59a11 11 0 0 1 5.91 8.89c10.67-1 21.05-4.41 31.9-3.74 3.44.22 6.28-1 9.07-3.09 10.93-8 22.2-15.55 32.93-23.8 6.63-5.09 12.34-11.38 18.83-16.67a14.52 14.52 0 0 0 5.69-12.21c-.13-11.31-.07-22.58-.26-33.85Zm-42.43-82.7c-3.79 4.39-8.56 7-13.18 10.13a22.26 22.26 0 0 0-6.84 7c-3.38 5.91-8.25 6.33-14.3 6-13-.73-26.11-.8-39.17-1.05-3.2-.06-6.41.25-9.61.36-2.8.1-5.81.85-8.36.09-12-3.57-24.14-1.58-36.23-1.66-3.17 0-6.33-.48-9.75-.76.71-1.42.91-2.47 1.55-3 5.29-4.56 10.28-9.42 15.25-14.34S138.07 19 142.8 13.68a16.33 16.33 0 0 1 12.55-5.38c5.15 0 10.29-.44 15.44-.45 9.82 0 19.63.15 29.45.27 2.81 0 5.68-.2 8.4.34 8.76 1.73 17.46 3.55 26.24.24 8.57 1.08 17.37.44 26.27 3.38-4.87 4.36-9.77 7.97-13.65 12.47Z" fill="#344286" data-color="1"/>
        <path d="M150.61 125.43c-2.25-3.81-4.77-7.26-6.37-11.09-1-2.41-.79-5.4-.79-8.13 0-1.65 3.34-2.82 4.53-1.6 2.86 3 5.58 6 8.77 9.55 1.92-2.62 3.56-5.44 5.76-7.69a29.69 29.69 0 0 1 6.73-4.74c2-1.13 5.13.9 5 3.18a25.33 25.33 0 0 1-1 6.8 60 60 0 0 1-3.62 7.55c-3.55 7.12-3.46 7 1.45 12.94a13.84 13.84 0 0 1 3 5.93 6.92 6.92 0 0 1-1.48 4.91c-.55.7-2.57.3-3.92.31a5.58 5.58 0 0 1-1.32-.41c-3.56-1-5.42-6.36-9.41-4.84-2.67 1-4.37 4.51-6.58 6.82a6.42 6.42 0 0 1-2.28 1.55c-1.29.5-2.86 1.3-4 .92a4 4 0 0 1-1.95-3.24c.18-3.16.36-6.52 1.55-9.38 1.5-3.37 3.98-6.3 5.93-9.34Z" fill="#344286" data-color="1"/>
        <path d="M267.38 101.13c.43 8.86-6.42 15.93-18 14.15a7.61 7.61 0 0 1-4.42-3 16.41 16.41 0 0 1 2-21.68 25.66 25.66 0 0 1 5.81-3.89 5.29 5.29 0 0 1 3.86-.29c7.76 3.07 11.64 9.35 10.75 14.71Z" fill="#344286" data-color="1"/>
    </g>
</svg>
