<?xml version="1.0" encoding="UTF-8"?>
<svg data-bbox="0.019 0.004 571.651 558.506" viewBox="0 0 571.67 558.51" xmlns="http://www.w3.org/2000/svg" data-type="color">
    <g>
        <path d="M571.67 310.87a43.24 43.24 0 0 1-22.79 13.62c-22 5.53-43.43 13.39-65.81 17.72-21.84 4.23-43.52 9.27-65.3 13.8-3.25.67-6.69.41-10 .76-5.84.63-10 4.28-10.83 9.94a135.74 135.74 0 0 0-1.27 34.66c2.05 19.69 2.39 39.42 3 59.12.68 21.16.83 42.39-1.56 63.52-.81 7.16-.78 14.33-2.7 21.46-2.87 10.68-9.58 15.1-22.19 12.14-12.8-3-22.15-11.4-31.3-20.17-13.7-13.12-24.76-28.31-35.4-43.89a346 346 0 0 0-24.44-32.3c-8.5-9.75-15.3-21.08-22.15-32.14-5.07-8.17-11.41-15.42-15.93-24-4.15-7.91-13.95-10.28-22.65-7.29-5.93 2-11.91 3.89-17.87 5.81a160.61 160.61 0 0 0-16.16 6.16c-12.76 5.67-26.1 10-39.23 14.88-2.27.84-4.76 1.15-6.9 2.22a155.2 155.2 0 0 1-26.55 10.37C103 440.3 93.43 446.54 82.2 448c-13 7-27.62 8.64-41.73 11.8-6.07 1.36-12.45 1.55-18.71 1.72-4.55.13-8.07-2.06-10.81-6-5-7.35-6.68-14.91-3-23.25 2.51-5.73 5.62-11.11 8.67-16.58 16.55-29.63 37-56.5 57.27-83.54 10.43-13.91 20.19-28.34 30-42.71 4.69-6.87 3.42-17.71-2.44-23.9-15.24-16.11-29.62-33-45.37-48.67-2.73-2.71-4.85-6-7.41-8.93-6-6.9-12.19-13.72-18.3-20.56a57.14 57.14 0 0 1-4.84-5.4c-5.72-8.43-12.71-15.73-19.59-23.18-8-8.67-7.84-19.06.16-27.25a16.25 16.25 0 0 1 7.29-4.23 55.55 55.55 0 0 1 14.28-2c17.35.34 34.72-.63 52.07.84 5.71.48 11.56-1 17.31-.69 16.81.82 33.57 2.28 50.25 4.66 15.28 2.18 30.77 2.9 45.7 7.24a6.78 6.78 0 0 0 2.87.17c5.25-.84 10.42 2.33 15.76 0s6.77-7.84 10.13-11.77c3.12-3.65 6.3-7.27 9.6-10.77 9.24-9.81 16.62-21.27 26.86-30.2a20.39 20.39 0 0 0 2.78-3.4 253.49 253.49 0 0 1 25.72-29.3c16.12-15.9 32.57-31.36 50.37-45.36 1.14-.89 2-2.12 3.25-2.88 14.52-9.1 28.65-.71 31.55 10.8 3.88 15.35 9.7 30.31 8.77 46.82-.53 9.51 1.76 19.2 3 28.78 3.1 24.86 6.71 49.68 6.09 74.83-.23 9.35 2.46 18.13 4.27 27.11.84 4.2 3.11 7.35 7 8.56 8.31 2.59 14.73 9 23.51 10.88 4 .84 7.92 3.74 11.11 6.58a56.82 56.82 0 0 0 17.17 10.38c4 1.58 8.15 3.49 11.33 6.27 7.1 6.23 15.72 9.44 24 13.17 20.64 9.24 41.19 18.7 59.77 31.68 8.25 5.76 16.27 12.29 19.44 22.75.34 1.12 2 1.83 3.1 2.72.39 1.9.8 3.81 1.22 5.68Zm-74.11 16.65c18.15-5.07 35.81-10 53.47-14.93a17.75 17.75 0 0 0 2.66-1.14c2.56-1.22 3.42-5 1.72-7.49a13.71 13.71 0 0 0-1.68-2.35c-5.5-5.37-10.8-10.81-17.45-15.07-21.56-13.78-43.52-26.75-66.64-37.78-10.87-5.18-21.34-11.23-31.95-17-2.52-1.37-4.87-3-7.32-4.54s-4.78-3.62-7.46-4.36c-10.89-3-19.94-9.73-30-14.28-9.35-4.21-10.58-12.9-13.8-20.69 1.06-12.07-3.22-23.65-2.81-35.83.43-12.9-2.09-25.88-2.4-38.85a163.46 163.46 0 0 0-2.43-24.42c-1.48-8.52-3.05-17-3.06-25.78a137.44 137.44 0 0 0-5-35.73c-1.43-5.28-3.95-9.84-6.54-14.44a3.31 3.31 0 0 0-4.9-1.35c-4.48 2.78-9.21 5.29-13.29 8.58-13.53 10.93-27.11 21.76-37.63 35.78a14.65 14.65 0 0 1-2.06 2C283.07 72 269.86 88.68 255.6 104.37c-10 11-20 22.11-30.45 32.79-8.26 8.47-18.58 11.85-30.43 9.87-2.38-.39-4.75-1-7.14-1.19-37-2.85-73.85-7.59-111-8q-26.71-.28-53.44-.35a25.3 25.3 0 0 0-5.73.75 7.28 7.28 0 0 0-5.56 8.79c1.09 4 1.55 8.28 6.64 10.34 2.81 1.14 4.69 4.65 6.89 7.19 4.72 5.47 8.91 11.5 14.17 16.37 6.37 5.9 13.82 10.94 18.24 18.42 4.6 7.79 12.54 11.84 18 18.59 7.28 8.95 16.73 16 23.27 25.74 2.64 3.93 5.35 7.73 9.55 10.64 4.75 3.29 7.43 8.86 9.56 14.28 1.82 4.6 2.42 9.29-.32 14-3.17 5.41-5.59 11.29-9.1 16.46-14.35 21.17-28.64 42.41-43.66 63.11-10 13.72-19.11 27.91-28 42.29-6.84 11.09-12.79 22.76-18.75 34.36-2.48 4.84.87 10.54 6 10.57a110.31 110.31 0 0 0 18.72-1.13c17.22-2.84 33.21-10.07 50-14.42a6.85 6.85 0 0 0 2.67-1.11c4.25-3.63 9.71-4.14 14.68-5.93a104.68 104.68 0 0 0 10.67-4.22c17.78-8.75 37-13.61 55.23-21.27a103.43 103.43 0 0 1 20.45-6.48c7.14-1.38 13.89-4 20.46-6.55 6.15-2.35 12.14-.11 18-2 1.77-.58 4.9 1 6.53 2.46a73.56 73.56 0 0 1 9.5 10.82c3.08 4.3 5.3 9.2 8.32 13.54 12.39 17.82 24.29 36 37.75 53 5.95 7.54 10.67 16 16.56 23.64 5.31 6.84 10 14.12 15.16 21a139.82 139.82 0 0 0 27.62 27.08 71.65 71.65 0 0 0 12.39 7.44c14.62 6.9 16.57 4.6 18.43-10.37 1.64-13.27 2.68-26.82 1.62-40.33-.67-8.63-1.4-17.27-1.76-25.92-.34-8.19-.3-16.4-.3-24.6 0-14-1.56-27.86-2-41.82-.41-13.62.69-27 1.77-40.43.88-11 3.83-14.05 14.78-16.4 10.4-2.23 20.95-3.9 31.2-6.66 12-3.23 24.61-2.42 36.62-6.5 9.15-3.01 19.09-3.23 28.15-4.71Z" fill="#344286" data-color="1"/>
        <path d="M282.94 305.82c-13.77.54-26.67-3.07-39-8.8-4.09-1.9-5.81-7.26-3.95-11.34a223.46 223.46 0 0 1 10.66-20.56c6.62-11.26 13.52-22.35 20.52-33.37a114.36 114.36 0 0 1 8.83-11.53c2-2.46 3.11-6.73 7.29-6.07s8.85 7.55 9 12.07c0 1.43-.46 2.88-.44 4.32.07 6.26.39 12.52.33 18.78a106.77 106.77 0 0 1-.9 14.42c-1.77 11.94-3.91 23.83-5.85 35.74-.77 4.28-1.89 5.45-6.49 6.34Z" fill="#344286" data-color="1"/>
        <path d="M339 365.07c-1.46.17-3.85.49-6.25.74a11.8 11.8 0 0 1-9.3-3.23 41.6 41.6 0 0 1-11.57-18c-2.7-7.79 1.21-17.89 8.19-22.77 1.58-1.1 3.13-2.25 4.74-3.32 13.36-8.88 34.05-1.44 39.41 14a14.86 14.86 0 0 1 .45 7.05c-2.09 12.6-12.18 22.79-25.67 25.53Zm-1.51-8.37c7.58-1.26 11.66-3.6 15-7.38 6.47-7.33 5.48-15.07-2.56-20.73-3.61-2.54-7.14-5.15-11.76-5.08-13.39.21-22.16 12.87-17.5 25.14a12.85 12.85 0 0 0 12.25 8.48 26.39 26.39 0 0 0 4.57-.43Z" fill="#344286" data-color="1"/>
        <path d="M188.94 313c-11.46 2.76-21.23-2.36-25.78-13.41-6.92-16.74.44-31.44 17.73-37.25 12.24-4.12 27 4.49 31 14.48a18.57 18.57 0 0 1-.27 15.37c-2.89 6.12-6.77 11.83-12.38 15.81-3.11 2.16-6.86 3.35-10.3 5Zm-.37-9.54c8.53-.83 12.89-7 15.75-14.56 2-5.28.41-9.52-4.17-12.63-2.39-1.63-5.05-2.86-7.49-4.43-5.72-3.69-19.07.86-22.84 5.11a11.15 11.15 0 0 0-2 3.83c-2 6 .76 16 5.38 20 4.44 3.84 9.49 4.36 15.37 2.66Z" fill="#344286" data-color="1"/>
        <path d="M233.74 328.89c.79.35 2 .49 2.29 1.08a25.29 25.29 0 0 1 2.7 6.6c.69 3.65 3 6 5.65 8.07 5.16 4.12 9.14 4.25 14.26.21 3.37-2.66 6.34-5.83 9.73-8.46.83-.64 2.9-.49 3.9.13a4.88 4.88 0 0 1 2 3.46 11.12 11.12 0 0 1-1.17 5.46c-5.86 10.77-19.9 18.41-31.27 10.58-7.59-5.23-12.09-12.23-12-21.71.06-2.65 2-5.23 3.91-5.42Z" fill="#344286" data-color="1"/>
        <path d="M371.4 270.47c1.27 5-2.47 14-6.84 16.5-3.05 1.71-9.71.71-12.21-1.83-1.9-1.93-2.31-6.32-.89-9.55a13.45 13.45 0 0 1 17.91-7.11c.81.35 1.36 1.31 2.03 1.99Z" fill="#344286" data-color="1"/>
        <path d="M197.88 231.56a7.26 7.26 0 0 1-2.58-.69c-7.47-5.58-7.84-15.1 1.79-21 2.22-1.35 8.23-.55 9.28 1.5 1.23 2.39 2.3 5.37 2 7.92-.6 4.89-3.87 8.56-7.67 11.57-.7.56-1.81.48-2.82.7Z" fill="#344286" data-color="1"/>
    </g>
</svg>
