<?xml version="1.0" encoding="UTF-8"?>
<svg data-bbox="0 -0.03 76.22 68.46" viewBox="0 0 76.2 68.43" xmlns="http://www.w3.org/2000/svg" data-type="color">
    <g>
        <g>
            <path d="M12.92 30.64c-.51-.66-1.46.09-.92.82.55.27 1-.09.92-.82Z" fill="#eaa842" fill-rule="evenodd" data-color="1"/>
            <path d="M21.27 39.16a7.51 7.51 0 0 0-2.9-3.95 27 27 0 0 0-3.37-.33c-.09 0-.16 0-.14.13h-.26a8.06 8.06 0 0 0-4.33 4.24c-.4 2.35.31 4.68 1.6 5.73 4.35 1.52 10-.5 9.4-5.82ZM13 45c-1.86-.77-3.12-3.47-2.28-6 .48-1.42 2.19-2.26 2.88-3.15.68.18-.63.47-.37 1.08 3-2.62 8.45-.91 7.71 4-1.08 2.87-3.8 4.15-7.94 4.07Z" fill="#eaa842" fill-rule="evenodd" data-color="1"/>
            <path d="M46.26 36.75c4.47 1.36 8.83-.64 10.36-3.7.62-3.9-1-6.58-3.25-8-1.48-.42-3.45-1.06-5.37-.56h-.26c-1.45.44-2.12 1.64-3.16 2.47-.38 1.5-1.42 3.44-1.08 6.05a5.64 5.64 0 0 0 2.76 3.74Zm1.89-11.55c1.71-.51 3.39.19 4.83.43 2 1.28 4 4.2 2.83 7.17-1.27 3.26-7.63 4.8-10.66 2.24-2.41-3.34-.63-9.12 3-9.84Z" fill="#eaa842" fill-rule="evenodd" data-color="1"/>
            <path d="M5.11 16.21c-.39 1.46.73 2.52 1.41 3.32a5.9 5.9 0 0 0 1 2.65 10.37 10.37 0 0 0-2.15-6.38c-.01.2-.37.11-.26.41Z" fill="#eaa842" fill-rule="evenodd" data-color="1"/>
            <path d="M32.47 43.21a44.12 44.12 0 0 0-6.95.55 22.77 22.77 0 0 0-3.82 3.29 39.68 39.68 0 0 0-5-.29c1.21.71 3.24.54 4.71 1-3 5.85 1.08 13.67 8.44 12.67 2.7-.38 4.29-1.83 6.23-2.94 4.7-3.34 3.67-14.71-3.61-14.28Zm3 13.73c-2.36 1-4.93 3.35-8.24 2.85-1.47-.22-2.42-1.08-3.66-1.8a9.77 9.77 0 0 1-2.69-7.3 7.65 7.65 0 0 1 1.14-3c4.55.35 8.76-.67 11.32-2.65-3.14.61-6.27 2.37-10.8 2.1a8.05 8.05 0 0 1 3-3c3-.78 7.32-.9 9.92.19.12.19.21.42.54.39 3.45 2.48 2.85 10.28-.56 12.22Z" fill="#eaa842" fill-rule="evenodd" data-color="1"/>
            <path d="M75 41.63c-.88-4.2-.54-8-1.19-11.63a39 39 0 0 0-3-9.84c-2.92-6.19-4.65-12.28-6.43-19A3.81 3.81 0 0 0 61.14 0c-.09 0-.14 0-.14.15h-.27c-1 .44-2 .93-3.05 1.4C49.26 4 42.77 8.33 33.5 10c-5.89-.47-12.82-2.46-19.44-1.06-1.25.26-2.57.83-3.86 1.15-4 1-9.11 1.39-10.2 5.18.89 2.94 2.78 4.85 4 7.41.78 5.82-.21 12.88 2.24 17.09.22 7.65 5.45 12.13 6.76 18.45.24 1.16.16 2.5.35 3.74s.83 2.21.61 3.34c1.11 1.16 1.81 2.75 3.68 3.13 3.27-1.27 5.51-3.54 8.46-5.13A212.7 212.7 0 0 1 47 58c7.23-1.46 14.36-3 19.81-6.32 1.64-1.09 3.17-2.3 4.89-3.31 1 .26 2 .76 3.08.19.82-.3 1-1.18 1.44-1.9-.01-1.85-.84-3.28-1.22-5.03Zm-2.5-11.06c-3.27 5-12.21-.25-9-6.1 1.72.15 2.53 1.27 4.57 1.1-.43-1-2.57-1.41-3.92-1.92.76-1 2.1-1.49 4-1.43-1.49-1-3.66.32-4.52 1.17-1.09-.24-2-.69-3.1-.87a6.43 6.43 0 0 0 3.24-4.89c1.84.18 3 1.1 4.45 1.65a90.73 90.73 0 0 1 4.28 11.29Zm-33.62-6.65c-2.65 0-5.67.36-6.2-1.87.45-1 1.87-.89 2.79-1A40 40 0 0 0 44.81 19h.4a8.83 8.83 0 0 1-1 3.91c-1.72.36-3.54.67-5.33 1.01Zm4 .32c-1.77 1.94-7.93 2-9.77.21 2.41.9 6.89.55 9.8-.21Zm2.7-5.42a23.42 23.42 0 0 1 4.12-1 6 6 0 0 0 2.76 3.82c-2.48.29-5 .54-7.34 1a7.6 7.6 0 0 0 .49-3.82ZM53 9.43c2.82-.85 6 .09 8.05.89a12.57 12.57 0 0 1 2.47 2.9 9 9 0 0 1 .07 3.07c-4.17-.49-9.68-.95-13.52.43A7.87 7.87 0 0 1 53 9.43Zm-2.91 8.23a29.08 29.08 0 0 1 13.12-.28 5.73 5.73 0 0 1-3.65 4.76 23.9 23.9 0 0 0-6-.41 7.26 7.26 0 0 1-3.43-4.07ZM62.24 1.73a3.36 3.36 0 0 1 1.08.38c1.4 5.07 2.43 10.51 4.08 15.31a16.6 16.6 0 0 0-3.37-1c1-5.93-4.3-8.34-10.07-7.68-.29 0-.21-.07-.17-.19-2.59 1.29-4.28 4.24-4.21 8.31-1.34.34-2.56.78-4 1a6.36 6.36 0 0 0-.31-1.74A7.52 7.52 0 0 0 39 12a20.37 20.37 0 0 0 5.61-.92A5.8 5.8 0 0 0 46 10c-2 .55-4.57.17-7.49.29 8-2.75 15.79-5.73 23.73-8.56ZM7.72 38c-.62-.29-.06-1.25.1-1.61.35.37-.28.93-.1 1.61Zm27.49 20.82c-3.61 1.16-7 2.68-10.64 3.3a13.67 13.67 0 0 1-7.26-1.18c.91 1.38 3.38 2.31 5.82 2.55a19 19 0 0 0-5.29 3.2 8.86 8.86 0 0 1-1.9-1 7.59 7.59 0 0 0-.56-1.33c.07-8.75-4.87-13.43-6.48-20.88-.17-3.58-.42-7.5 1-9.94.38-.66 1.22-.77 1.17-1.63C9 32.13 8.28 34.8 6.74 36c0-1.18-.58-1.86-.6-3.06A20 20 0 0 1 12 29.18a7.21 7.21 0 0 0 6.88 2.27A10 10 0 0 0 27.57 21a12.5 12.5 0 0 0-3.21-6.22c-1.56-1.56-6.3-1.65-8.72-.62.64.34 1.56-.16 2.28-.18 5.62-.68 7.57 2.49 8.84 6.37.34 4.22-1.3 6.53-3.17 8.64-2.16 1-6.18 2.89-8.94 1.26 2-.58 7.21-1.19 7.29-3.24a1 1 0 0 0-1.75-.9c-.25.89.73.51.82 1.06-1.8 1.46-4.69 1.89-6.9 2.95-.39-.44-1.39-.88-1.23-1.44 1.86-.88 4.21-1.29 6-2.27-2.29-1-5 .73-6.8 1.48-3.22-3.89-1.44-11.82 2.5-13.49-4.95 1.14-6.13 9.54-3.32 13.86a44.11 44.11 0 0 0-5 3.19c.3-6.69-1.1-12.6-4.26-16.11a15.64 15.64 0 0 1 1-1.9 40.5 40.5 0 0 1 6-1.33c2-.4 4-1.21 5.86-1.47 7.9-1.08 14.6 1.26 22 1.41-1.85.46-3.62 1-4.64 2.24 4-3 12.82-2.12 12.94 3.74-2.82 1.17-7.53 1.75-11.07 2.11a4.24 4.24 0 0 0-2.52 1.13c-.32-3.46.79-5.54 2.53-7-3.29 1.12-3.85 7.77-1.52 10.48 2.52 2.48 10.07 2.12 11.76-.93a36.28 36.28 0 0 1 9.89-1.14c.63.2 1.37.3 2 .49a13.48 13.48 0 0 1 6.85 1.06c-2.26 5 1.71 10.11 7.42 8.94.9-.27 1.63-1.41 2.11-1.65.53 2.68.24 6.22.72 9a15.27 15.27 0 0 1-1.73-5.72c-.77 0-.58 1-.63 1.75-1.21-.78-2.27-1.73-4.45-1.51-5.39.43-8.22 7.58-4.95 12.29.57.63 1.47.92 2 1.57a26.62 26.62 0 0 1-7.31 2.43 10.47 10.47 0 0 0 1.21-6.19c-.86-6.54-13.29-7.72-16-2.07 0 .92-.52 1.59-.61 2.56-.77 7.49 6.89 11.68 13.16 8.16a22.49 22.49 0 0 0 1.71-1.51 19.37 19.37 0 0 0 9-3.14 11.61 11.61 0 0 0 2.67.07c-8.22 5.97-21.31 6.1-32.19 9.61Zm19.15-6.44c-1.25 1.34-3.33 1.89-6 1.87-4.79-.68-7.92-4.89-6.65-10.57 1.49-2.81 4.45-4.14 8.63-3.67 2.9.33 5.57 2.17 6.38 4.42.34 2.66-.1 5.42-1.32 7-1.09.23-2.16.47-3.2.74.28.53 1.47.1 2.16.21Zm20.11-5.12c-3.21-1.32-4.75 1.65-8.28 1.25 1.82-1.85 5-3.09 5.51-5.74-1.25.3-2.19 2-3.29 2.88-1.3.85-2.51 1.79-3.83 2.63a5.54 5.54 0 0 1-3.85-4.87 7.59 7.59 0 0 1 3.85-7.58A5.84 5.84 0 0 1 71 37.29c0 .44.39.51.29 1.07.13-.09.13-.31.39-.28a11.45 11.45 0 0 1 1.47 5.73c.5-.22.33-1.08.36-1.75a11.58 11.58 0 0 0 1.56 4 5.06 5.06 0 0 0-.6 1.2Z" fill="#eaa842" fill-rule="evenodd" data-color="1"/>
            <path d="M29.5 30.34a.84.84 0 0 1-.38.22c.12-.08.26-.14.38-.22s.38-.4 0-.19c-4 1.29-4.63 8.57-1.23 11.14 5.45 2.15 12.74-.44 11.89-7.22-1.22-3.72-6.66-5.94-10.66-3.73Zm-.7 10.4a6.56 6.56 0 0 1-2-6.79c1.17-2.07 3.3-3.21 6.08-3.74 3-.08 6.29 1.78 6.66 4.55.62 4.79-5.86 7.86-10.74 5.98Z" fill="#eaa842" fill-rule="evenodd" data-color="1"/>
            <path d="M69.74 26.48c.05-.26.28-.35.25-.68a.62.62 0 0 0-1.2.29c.11.35.44.46.95.39Z" fill="#eaa842" fill-rule="evenodd" data-color="1"/>
        </g>
    </g>
</svg>
