<?xml version="1.0" encoding="UTF-8"?>
<svg data-bbox="-0.04 0 88.46 79.174" viewBox="0 0 88.42 79.14" xmlns="http://www.w3.org/2000/svg" data-type="color">
    <g>
        <g>
            <path d="M74 4.45c.57-2.29-3.32-2-2 .19a1.61 1.61 0 0 0 2-.19Z" fill="#cd6713" fill-rule="evenodd" data-color="1"/>
            <path d="M71.55 61.57a1.13 1.13 0 0 0 1.85-1.3 1.13 1.13 0 0 0-1.85 1.3Z" fill="#cd6713" fill-rule="evenodd" data-color="1"/>
            <path d="M8.88 15.19c-1.66-.76-.21 1.81 0 0Z" fill="#cd6713" fill-rule="evenodd" data-color="1"/>
            <path d="M87.07 65.29c-2.37-.92-6 1.2-9.22 2.41-.61-1.65-1.36-2.93-2-4.47.17-1 .88-1.9.53-3.15s-1.38-1.72-2.26-2.51c.1-17.06 2.28-33.27 1-50.91a5.54 5.54 0 0 0 1.6-3.46A3.67 3.67 0 0 0 73.21 0a7.52 7.52 0 0 0-2.65 1c-9.23 1.87-18.71 3.45-28.12 5.81s-18.87 3.7-28 5.5a19.92 19.92 0 0 0-1.21-3.21c-2.44-1.66-6-.49-9.79 1.06-2.81 2.31.1 7 .46 10.57A21.49 21.49 0 0 0 .38 37.36a6.56 6.56 0 0 0 2.88 2.12 33.83 33.83 0 0 0 14.59-2.28 37.87 37.87 0 0 0 5.32-3.2c1.54-1.07 3.43-2 3.49-3.73-.24-1.25-1.13-.89-1.53-1.74-2-4.23-4-7.61-6.77-9.79-1.07-.84-3-1-2.83-2.93C33 14 51.79 9.13 69.92 5.77a3.41 3.41 0 0 0 1 1.05 393.13 393.13 0 0 0-.78 51.64 5 5 0 0 0-1.28 2 8.83 8.83 0 0 0 .89 3.08c.68.87 1.71.86 2.42 1.64a19 19 0 0 1 1.48 4.16 26.56 26.56 0 0 0-3.46 1.59c-.44-.43-.63-1.51-1.21-1.62a9.52 9.52 0 0 0-3 1.28c-.3.5.58 1.49.47 2.06-2.11 1-4.56 1.95-5.61 3.42A14.35 14.35 0 0 0 62.11 79c4.89 1 12.35-2.52 18.7-5.46 3.19-1.54 6.36-3.16 7.61-5.36a6.67 6.67 0 0 0-1.35-2.89ZM12.2 9.8c-2.91 1.51-7 2.83-8.72 1.4 2.9-1.29 6.58-2.7 8.72-1.4Zm-8.87 2.93a13.22 13.22 0 0 0 9.45-1.84c.36.67.22 1.15.49 1.79-1.78.38-3.74 1.21-5.09.54-3.6.72-1.45 6.09 1.53 4.27.67-.25.7-.77 1.12-1.13a21 21 0 0 1 3.48-.26c-.31.8-1.72 1.16-2.46 1.43A37.45 37.45 0 0 1 4.78 19c-.56-2.1-1.02-4.19-1.45-6.27Zm6.13 3.54a1.58 1.58 0 0 1-1.75-.06c-.59-1.17.61-2.14 1.52-1.44a1.89 1.89 0 0 1 .23 1.5Zm5.3 1.23c-.13 1.16-2.61 1.37-3.76 2.11a13.3 13.3 0 0 1-3.86.29c2.05-.73 5.03-1.62 7.62-2.4ZM4.4 21.32c.52-.35.74.05 1.17-.09-1.82 4.41-3.18 9-2 14.65A5.56 5.56 0 0 1 1.36 35c-.57-5.24 1.31-9.43 3.04-13.68Zm-.94 16.74c-.54-.43-1.23-.49-1.68-1.15-.12-.19 0-.28.07-.16 5 2.39 12.27-.62 19-3.2C16 37.48 8.42 38.27 3.46 38.06ZM16 18.57c3.26 2.18 5.83 6.06 8 10.86-5 4.43-13.21 6.37-19.19 6.86a19.63 19.63 0 0 1 1.43-15c2.69.16 7.24-.18 9.76-2.72Zm-4.85-4-.09-.22c-.07-.13-.06-.21 0-.27 19.21-3.43 39-8.22 58.23-11.7-.74 1-2.24 1-3.33 1.27C57.79 5.47 48.65 7.47 40.32 9c-9.76 2-19.54 4-29.16 5.62ZM63 6c-15.25 3.32-31.1 7.09-45.92 8.8 4.13-1.31 8.6-1.5 12.85-2.34 13.22-2.89 26.36-5.57 39.48-8.21C67.48 5.38 65.15 5.56 63 6Zm13.65 62.34c-1-.8-1.45-2.7-2.2-4 .38-.07.25-.34.63-.4.24 1.36 1.35 3.06 1.57 4.4ZM73.2 51.57c0 1.08-.09 2.09 0 3.19-.25.86.48 2.53-.24 2.9-1-.31-.37-2-.37-2.77a24.28 24.28 0 0 1 0-3.19c-.1-2.13.07-4.16-.13-6.32.19-4.11 0-8.37.22-12.46a199.13 199.13 0 0 0 .23-25.08c.06-.14-.06-.34.09-.44s.35 0 .61-.12c.59.84.48 2.08.51 3.1.08 3.07 0 6.45 0 9.57.57 10.89-1.02 20.91-.92 31.62ZM70.43 3.83c0-.79.6-1.32 1.38-1.78a2.09 2.09 0 0 1 3.31.6c1.35 2.87-4.12 4.76-4.69 1.18Zm.35 25.5c.32-7.33.84-14.64.85-22 .15 8.15.39 17.14-.14 25.31-.16 6.3-.34 12.6-.27 19 .09 1.54.12 3.24.18 4.85 0 .45.4 1.27-.32 1.46-.51-.69-.33-2-.35-3.05s-.07-2.23 0-3.18c.27-7.58-.28-14.99.05-22.39Zm.42 30.13c2.82-1.91 5.07 1.41 2.74 3.37-2.59 1.83-5.06-1.98-2.74-3.37Zm2 5.68c0-.11-.09-.22-.14-.34.36-.25.51 0 .84-.22.55 1.71 1.39 3 1.78 4.57-1.1.3-1.2-1.93-1.94-3-.18-.41-.44-.52-.56-1.01ZM68 70.51c.21.49.42 1 .62 1.47l-.79.33-.62-1.47Zm4.75.53a2.94 2.94 0 0 1 2.61-.43c2.77-1.34 5.09-3.06 8.27-3.73-5.27 4-14.55 6.92-21.15 9.14 2.59-1.84 7.22-3.43 10.26-5.02Zm12.19-1.66a62.68 62.68 0 0 1-22.14 8.37c-.36-.66.68-.21 1-.43 7.25-2.5 16.54-6 22.25-10 .19 0 .15-.19.29-.25s.13 0 .16.06c.61 1.2-.92 1.55-1.57 2.25Z" fill="#cd6713" fill-rule="evenodd" data-color="1"/>
        </g>
    </g>
</svg>
