<?xml version="1.0" encoding="UTF-8"?>
<svg data-bbox="0 0.025 171.943 88.657" viewBox="0 0 171.94 88.67" xmlns="http://www.w3.org/2000/svg" data-type="color">
    <g>
        <path d="M171.78 37.21c-9.36-2.31-17.11-6.74-26.89-8.63-10.27-2-20.88-4.2-31.47-6.76s-21-5.76-31.77-7.82C60.19 9.88 38.77 2.13 18.49.29a41.68 41.68 0 0 0-7.2-.19C8.41 16.48.82 35.54 0 51.49c13.91 4.44 29.61 5.28 43.84 9.61 2.49.76 7.61 1.82 11.11 2.83C67.54 67.57 81.1 69.48 93 73.28c17.25 5.5 35.47 12.19 54.33 15 3-.22 6.68.59 9.71.36 3.53-6.7 5.1-15.49 7.42-23.63 2.38-8.37 4.63-16.77 6.64-25.1.03-1.49 1.28-1.78.68-2.7ZM153.6 33.1c1.34.33 2.29.88 3.52 1.28a18.56 18.56 0 0 1-3.68-.61c.05-.22.1-.45.16-.67Zm-2.35-.85a5.64 5.64 0 0 1 1.71.55c-.07.27-.13.54-.2.81-.42.18-1.19-.2-1.78-.29Zm-6-1.6 5.37 1.3-.3 1.21-5.32-1.3c0-.4.14-.81.24-1.21Zm-6.88-1.52c2.11.58 3.94.7 6.07 1.33-.11.44-.39.61-.42 1.17-2.37-.76-5.19-1.26-7.45-2.08-.03-1.16 1.25-.18 1.79-.42Zm-7-1.42c1.49.78 4.26.21 4.6 1.54-.72.63-2.07-.13-3.19-.34-1-.19-2.06-.12-2.68-.65-.16-1.05.81-.34 1.22-.55Zm-1.81-.15c0 .43-.33.34-.33.77-.53-.24-.74 0-1.24-.16-.54-1.1.94-1.25 1.52-.61Zm-7.82-1.75c1.94.61 4.07.55 5.77 1.39-.07 1.33-1.4.59-2.37.43-1.17-.11-2.45-.39-3.69-.61.05-.4.15-.81.24-1.21ZM115 24.19l5.91 1.43c-.1.4-.2.8-.29 1.2-1.89-.22-4-.79-6-1.16.13-.49.25-.98.38-1.47Zm-7.11-1.72a64.7 64.7 0 0 1 6.54 1.72 4.79 4.79 0 0 1-.43 1.31c-2.2-.41-4.24-.56-6.54-1.15Zm-2.25-.69a5.35 5.35 0 0 0 1.72.56c.1.41-.41 1.13-.46 1.88-.47.17-1.29-.23-1.91-.32.21-.68.24-1.7.63-2.12ZM96 19.31c3.11.66 5.86 1.54 8.83 2.28.16.54-.28 1.46-.39 2.18-2.91-.52-6.05-1.42-8.92-1.88a9.26 9.26 0 0 1 .48-2.58Zm-6.84-1.65 6.17 1.49c-.19.8-.39 1.61-.58 2.41-2.06-.53-4.33-.94-6.14-1.62.17-.76.39-1.52.54-2.28Zm-.68-.17a4.13 4.13 0 0 1-.55 2.28c-1.89-.48-3.67-1-5.43-1.59.2-.6.22-1.52.59-1.85 1.91.57 3.49.67 5.38 1.16Zm-6.34-1.39.4.1c-.24.67-.2 1.79-.86 1.78.15-.62.32-1.25.46-1.88Zm-.42 2.9c-1.72 7.7-3.63 15.44-5.18 23.17s-3 15.41-4.71 22.43c-.93-.27-.23-1.53-.12-2.44 3.49-14.48 5.71-28.19 9.68-43l.1-.4c.16.04.23.11.23.24Zm-3.07-3.72a12.57 12.57 0 0 1 2.92.85c-.31.43-.35 1.31-.69 1.68a11.36 11.36 0 0 0-2.65-.81ZM68.25 13c3.06.38 6.65 1.64 9.73 2.07-.19.56-.21 1.41-.56 1.71-3.08-.84-6.84-1.78-9.42-2.54.06-.41.15-.81.25-1.24Zm-2.69-.65c.61 0 1.48.54 1.92.32.43.18 0 1.28-.22 1.51l-2.15-.52a3.53 3.53 0 0 1 .45-1.28Zm-7-1.69 6.3 1.53a5.14 5.14 0 0 0-.45 1.31L58.26 12Zm-2.42-.58 1.88.45c-.15.45-.16 1.12-.46 1.31l-1.74-.42c.18-.42.24-.87.35-1.31Zm-.35 2a5.74 5.74 0 0 0 1.58.53c-3.44 14.93-7 30-10.37 44.65L45.82 57c1.52-10.42 4.18-21.87 6.94-33.37.91-3.75 1.64-7.9 2.83-11.11.03-.19.07-.38.23-.37ZM55.5 10c-.1.4-.19.8-.29 1.2l-1.34-.32c.01-1.23.64-1.36 1.63-.88Zm-7.92-2 6 1.46c0 .58-.37.64-.42 1.18-2.09-.45-3.73-1.16-5.88-1.57.13-.32.22-.68.3-1.07Zm-6.3-1.52 5.63 1.36c-.08.36-.17.71-.26 1.07C44.91 8.82 42.7 8 41 7.85a1.54 1.54 0 0 1 .28-1.34ZM12.3 1.2c2.11.45 3.89.36 5.94.73l-.39 1.61c-1.94-.36-3.74-.5-5.74-1-.17-.28.12-.87.19-1.34ZM17.45 4c.55 0 0 .77 0 1.14A3.41 3.41 0 0 0 16.08 5c-.66-.17-1.61-.38-2.41-.59s-1.85-.11-1.78-.85c1.34-.12 4.2 1.08 5.56.44Zm-5.82.58c1.46.27 4.1 1.23 5.6 1.5-.6.79-1.88 0-2.92-.28s-2.06-.43-2.68-.65c.08-.23-.09-.31 0-.56Zm-.16 1.24 3.08.74c.86.21 2.26.21 2.32 1-.42.7-1.45 0-2.11-.08a27.75 27.75 0 0 1-3.52-.71c.08-.32.15-.63.23-.94Zm-.22 1.51 5.37 1.3-.36 1.47c-1.9-.54-3.59-.75-5.4-1.16Zm-.52 2.14c1.52.71 4.09.79 5.27 1.71-.43.76-1.64.16-2.55 0s-2.11-.52-2.95-.71c.08-.36.15-.67.23-.99Zm-.39 1.62c1.88.53 3.6.78 5.4 1.16 0 .34-.41.93-.13 1.11-1.74-.1-3.84-.79-5.6-.93Zm4.51 3.07c.15.07.24 0 .3-.06.1.09.21.17.2.33-.66.64-1.92-.09-3-.31s-2.28-.05-2.68-.65c.8-1.04 3.62.65 5.18.7Zm-5.49.38c1.55-.14 3.8.86 5.46.9.48.51-.28 1.78-.34 2.61A23.73 23.73 0 0 1 8.78 17c.22-.84.38-1.64.58-2.45Zm-.75 3.09a19.63 19.63 0 0 0 5.67 1.23c.06.77-.7.23-1 .48-1.65-.35-3.3-.68-4.89-.9.09-.26.16-.53.22-.8ZM8.29 19a47.85 47.85 0 0 0 5.7 1.1c-.21.85-.41 1.7-.62 2.55-2.09-.6-3.63-1-5.77-1.4A9.32 9.32 0 0 0 8.29 19Zm-.88 3a20.56 20.56 0 0 1 5.73 1.52c-.38 1.63-2.87-.21-4.22-.16-.55-.14-1.35 0-1.74-.43.08-.27.15-.58.23-.93ZM7 23.78c1.8.61 4.45.71 5.7 1.66-.41.88-1.9.11-2.95-.14s-2.32-.48-2.95-.72c.06-.26.12-.53.2-.8Zm-.36 1.48c.11 0 .16-.11.3-.07 1.67.66 4.56.57 5.4 1.73-2-.66-4.22-.68-5.8-1.26.02-.14.06-.27.09-.4Zm-.23.93a29.11 29.11 0 0 1 5.77 1.4c-.29 1.21-.58 2.42-.88 3.62a45.71 45.71 0 0 1-5.86-1c.31-1.33.64-2.67.96-4.02Zm-1.13 4.7c2 .46 4 1.08 5.59.93.44.24 0 1.48-.28 1.78l-5.65-1.37Zm-.46 1.88a27.77 27.77 0 0 0 5.77 1.4c-.09.36-.17.71-.26 1.07-2-.52-3.76-.66-5.8-1.26.09-.4.18-.81.28-1.21Zm5.35 3.14c-1.28.65-3.82-.75-5.6-.93-.16 0-.23-.08-.24-.2 1.28-.11 4.1 1.1 5.83 1.13Zm-6-.45C5.92 36 8.38 36.62 9.9 37c-.42 1-2.21 0-3.35-.24a22.75 22.75 0 0 1-2.61-.35c.06-.33.15-.64.22-.95Zm-.29 1.2 5.77 1.4-.34 1.34a40.86 40.86 0 0 0-5.83-1.13Zm5 3.35a.36.36 0 0 1 .17.46 14.41 14.41 0 0 1-5.86-1c1.09-1.13 4.01.72 5.69.53Zm0 1.27c-.63.67-2.22.08-3.38-.11-.92-.15-2 0-2.38-.72 1.55-.16 4.33.65 5.74.83Zm-3.55.56c1.21.22 2.76 0 3.26.64-.45.8-1.71.11-2.68-.07-1.16-.22-2.61-.09-3.09-.75.49-.66 1.62.02 2.49.18Zm2.76 1.52a.38.38 0 0 1 .17.47 30.1 30.1 0 0 1-5.7-1.1c1.49-.34 3.81.65 5.51.63Zm-1.36 8.48A7.3 7.3 0 0 1 3.68 51c-1-.36-2.22-.5-2.52-1.32 1.8.27 3.82.89 5.56 1.06.28.18-.29.91.01 1.1Zm-5.25-3c0-.81 1 0 1.21-.28 1.44.58 3.61.48 4.4 1.21-1.34.48-4.02-.3-5.61-.9Zm5.67.16c-1.94-.42-3.76-.66-5.61-.93.18-.52.19-1.32.53-1.58 1.71.25 3.52.65 5.2.84.47.2-.09 1.08-.12 1.67Zm-1.46-2.81C4.37 46 2.85 46 2 45.58l.09-.4a11.65 11.65 0 0 1 5.71 1.1c-.45.72-1.43.03-2.11-.09Zm.82-1.07c-1.39-.16-2.81-.37-4.25-.61.07-.31.15-.63.22-.94 1.9.61 4 .58 5.54 1.2-.02.96-.86.47-1.51.35Zm2.61 7.44c-1.73 0-.66-1.87-.53-2.54 3.14-15.5 8-32.85 10.88-47.94.27.13.38 0 .57 0s.11.17.24.2c-3.54 16-7.28 33-10.64 49.27-.31.45.28 1.29-.52 1.01Zm7.33.21c.73 0 2.07-.32 2 .62s-1.26.06-1.77.29c-2.1-.39-4.07-.54-6.17-.93C13.26 36.38 17.87 18.89 21 2.31a50.5 50.5 0 0 1 7.25 1.18c-3.62 16.58-7.4 33.26-9.74 49.07a26.25 26.25 0 0 0-4.65-.13 6.29 6.29 0 0 0 2.59.34Zm3.36 1.38-.67-.15a2.38 2.38 0 0 1 .13-1.11l.93.23c-.11.37-.14.88-.39 1.03Zm-.21-1.47c-.76 0-.1-.85-.11-1.3 0-1.37.65-3.15.67-4.53 2.24-14 5.85-28.74 8.54-43a.37.37 0 0 1 .36-.34l1.75.49c-2.56 11.91-4.6 24.91-7.58 37.23-.76 3.11-1.45 6.28-2.27 9.4-.19.67-.11 2.24-1.36 2.05Zm7.55 2.82c-2.23-.59-4.23-.81-6.37-1.25-.16-.27.26-.54.26-1.08 2.14.45 4.06.53 6.27 1.09-.1.45.07.74-.16 1.24Zm-6-2.73c4.2-16.14 7.13-32.39 10.24-48.23 0-.2.07-.39.24-.37l7 1.69c-3.24 15.66-7.25 31.8-11.15 47.86a53.81 53.81 0 0 1-6.34-.95Zm8.33 3.15L28 55.56c.24-.52 0-.73.16-1.24l1.74.43c-.13.41-.15 1-.43 1.17ZM28.52 54c3-15.53 8-32 10.65-47.56 0-.19.07-.38.23-.37l.94.23c.4.47 0 1.56-.18 2.51-2.4 14-6.38 29.47-9.68 44.11-.13 1.2-.76 1.6-1.96 1.08Zm7 3.27a38.15 38.15 0 0 0-5-1.07c0-.34.17-.77.19-1.37 1.77.46 3.31.55 5.13 1.1-.09.42-.19.87-.3 1.32Zm-4.68-3c3.66-15.46 7.28-30.91 9.93-45.75 0-.2.07-.39.23-.37 1.92.43 3.47 1.08 5.47 1.46C42.8 24.94 39.52 40 36 55.23c-1.63-.32-3.81-.54-5.14-.96Zm11.42 4.47c-2-.56-3.75-.66-5.8-1.26l.38-1.48c2 .57 3.66.64 5.66 1.23-.25.61-.07.96-.22 1.51ZM37 55.46c3.34-15 6.8-30.16 10.23-45.25 0-.19.07-.38.23-.37 1.89.45 3.47 1.08 5.47 1.46-3.58 14.83-7.47 30.88-10.37 45.22-1.95-.47-3.72-.67-5.56-1.06Zm7.32 3.76L43 58.9c.37-.56.18-.88.39-1.61l1.34.32ZM44 56.75c-1.18-.36-.25-1.83-.12-2.45C46.72 40.92 50 26.06 53.57 12c0-.19.07-.38.23-.36l.81.19c-3 12.86-6.44 27-8.83 40.05-.16.88-.35 1.94-.55 2.85-.11.55-.02 2.27-1.23 2.02Zm2.67 3.06-1.61-.39c.21-.63 0-1 .26-1.64.42-.18 1.18.2 1.77.28Zm8.39 2.31c-2.48-.7-5-1.4-7.62-2 .15-.63.31-1.26.46-1.88a72.29 72.29 0 0 1 7.58 2.12Zm-7-4.53C50.83 42.9 54.93 28 58 13.24c0-.19.07-.38.23-.37l6 1.46C61.44 29.39 57.75 45 55.71 59.57c-2.47-.7-4.95-1.39-7.61-1.98Zm9 5L56 62.35l.42-1.75 1.07.26c-.11.72 0 1.14-.38 1.75Zm.18-2.52c-1.25-.2-.5-1.79-.42-2.37 2.06-13.62 5.73-29 8.08-42.79 0-.19.07-.39.23-.37l1.88.45c-3.69 15-5.89 29.07-9 43.7-.22.47-.01 1.73-.72 1.4Zm9.42 4.55c-2.44.07-5.75-1.29-8.52-1.77-.18-.39.17-1.1.25-1.65 2.8.92 6.1 1.54 8.43 2.75-.01.25-.06.47-.11.69Zm-8.08-4.22c3.17-15.05 5.52-29.6 9-44.84 0-.2.07-.39.24-.37 3.28.7 6.2 1.63 9.36 2.4C74 32.6 69.47 48.43 67 63c-2.71-.93-5.67-1.67-8.37-2.58Zm11.63 5.37-2.68-.65c.09-.36.17-.72.26-1.08.69.46 2.13.46 2.59 1.06-.01.24-.06.46-.12.69Zm-2.31-2.54c2.35-14.4 6.82-30.09 10-45 0-.19.06-.38.23-.37a19.77 19.77 0 0 1 2.65.78C76.9 34 74.12 48.8 70.65 64.18a13.62 13.62 0 0 1-2.75-.95Zm3.84 2.91-.81-.14c.07-.27.13-.54.2-.81.33.07.65.14.77.33-.05.18-.11.4-.16.62Zm.7 0c0-.18.09-.36.13-.53 1.54.47 3.43.72 4.47 1.5-1.04.34-3.45-.52-4.6-.94Zm.33-1.34C75.55 49.9 79 34.57 82.2 19.38a.37.37 0 0 1 .36-.34c1.58.64 3.63 1 5.31 1.57C84.14 36 80.63 50.7 77.3 66.07a42.35 42.35 0 0 1-4.53-1.24Zm5.28 2.84c-.3 0-.4-.21-.31-.5l6.18 1.49c-1.39.64-3.99-.75-5.87-.96Zm-.11-1.3C81.11 51.46 85.13 36 88.3 21.15c0-.2.08-.39.24-.38 2 .55 3.86 1.15 6 1.6C90.73 37.7 87.82 53 84.11 67.86ZM92 71l-3.89-.94c-1.31-.31-2.85-.34-3.39-1.24 3 1 6.63 1 9.09 2.34-.15.84-1.39-.03-1.81-.16Zm-7.08-3c3.57-15 6.72-30.21 10.29-45.52 2.87.57 5.88 1.37 8.66 1.81-.62 7-3.17 14-4.56 21.2-1.6 8.31-4 16.56-5.4 24.69Zm11.45 4.33a6.6 6.6 0 0 1-2-.61c0-.23.1-.45.16-.68.79.38 2.47.16 1.84 1.34Zm-1.69-1.83c2.67-14.78 6.85-30.48 10-45.58 0-.19.07-.38.23-.37l1.75.42c-3.74 15.44-7.22 30.89-10 46Zm4.57 2.82c-.8-.27-2.06-.23-2.14-1.09.55-.93 3.52.62 4.76.87-.71-1.13-3.15-1.21-4.51-2 3-15.14 6.46-30.62 9.86-46.05 2.16.36 4.25.6 6.54 1.16-3.66 16.27-7.9 31.94-12 47.94-.76-.08-1.63-.49-2.51-.78Zm3.53 1.28c3.45-16 8.16-32 11.69-48.31 2.09.61 3.87.73 5.93 1.29-4.27 16.22-8.48 32.26-12.35 48.72-1.74-.53-3.42-1.15-5.27-1.65Zm6.35 2c4-16.29 8.18-33 11.94-48.82 1.78.16 3.79.71 5.6.93-1.49 8.24-4.29 16.59-6.34 25s-3 17-5.16 24.89c-1.94-.68-4.17-1.21-6.04-1.99Zm7.52-.6c1.63-7 2.5-14.56 4.39-21.66 2.23-8.38 4.36-17 6.57-25.4.27.12.38 0 .57 0 .95 0 .79.59.55 1.27-4.62 15.95-7.91 32.94-12.22 48.75-.71-.5-.1-1.9.14-2.96Zm1.17 3.41c3.42-16.73 7.78-33.3 12-50.09a50.26 50.26 0 0 1 5.84 1.13c-3.47 17-8.84 33.8-12.07 50.49-1.84-.12-3.92-1.04-5.77-1.52Zm6.78 1.92c2.75-16.41 8.75-33.6 11.73-50.28 0-.2.08-.39.24-.37 2.36.65 5.12 1.07 7.21 1.88-4.58 16.57-8.65 34-12 50.66-2.4-.6-4.99-1.12-7.18-1.88Zm8.15 2.12C135.62 67 140.42 50 144.62 33.2c0-.19.07-.38.23-.37l5.24 1.27c-3.77 16.21-8.51 33.5-12.51 50.53Zm6.13-.08c3.68-16.33 8.44-32.58 11.91-48.68 0-.2.07-.39.24-.37l1.34.32C147.91 51 143.32 68.5 139 84.82c-.83-.02-.1-.96-.12-1.44Zm8.12 2.69a62.76 62.76 0 0 1-6.61-.89c4-16.81 8.43-33.4 12.61-50.36 2.45.65 4.68.93 7 1.42-4.24 15.9-8.73 33.16-13 49.83Zm1.47.36c2.88-16.57 8.14-33.31 12.14-49.62 0-.2.07-.39.24-.37l.54.13c.66.31-.08 1.57-.32 2.48-1.76 6.56-3.5 13.29-5.1 19.93-2.27 9.5-4.97 19.37-7.46 27.45Zm5.13.53c-1.18-.25-2.08 0-3.21-.21a3.13 3.13 0 0 0 .42-1.18 26.26 26.26 0 0 1 5.7 1.1c-.51.7-2.08-.11-2.87.34Zm.52-1.58c-1.07-.2-2.41-.11-3.11-.61-.06-.78.69-.23 1-.48 1.66.69 3.88.38 4.94 1.34-.66.61-1.79-.07-2.79-.25Zm3-.69c-1.92-.59-4.1-.61-5.66-1.23 0-.76.85-.1 1.3-.11a22.1 22.1 0 0 0 4.19.3l.54.13c.01.44-.31.42-.32.91Zm-1.95-1.9c-1.21-.12-2.49-.36-3.46-.41l.29-1.07c1.95.14 4.05.53 6.06.76-.14 1.35-1.82.82-2.84.72Zm1.69-1.72c-1.58-.22-3.12-.36-4.69-.57.07-.31.15-.62.23-.94 1.85.53 4.44.31 5.9 1.43.03.79-.91.02-1.39.08Zm-4.37-1.91c.08-.31.16-.62.23-.94 1.9.56 4.25.84 5.87 1.57-1.67.22-4.52-.51-6.05-.63Zm6.33-.32c-2.07-.57-4-.87-5.94-1.29.08-.75.43-1 .56-1.71a29.92 29.92 0 0 0 5.7 1.09c.55.24-.06 1.62-.27 1.91Zm.75-2.51c-2-.35-3.89-.5-6-1 .33-1.38.67-2.77 1-4.16a60.2 60.2 0 0 0 6.13 1.06 29 29 0 0 0-1.08 4.1ZM156.94 71a7.36 7.36 0 0 1-2.19-.38c.13-1.28 1.63-.46 2.62-.23a12.55 12.55 0 0 0 3.11.62c.21.06.53.06.51.26-.93.56-2.62-.07-4.05-.27Zm4.24-.53c-1.84-.63-4.55-.73-5.84-1.7.3-.92 1.7-.16 2.55 0l3 .71c.15.06.25 0 .3-.07.49.05-.03.71-.01 1.04Zm.36-1.48c-1.64-.83-4.36-.94-5.87-1.56.06-.27.13-.54.19-.81 1.88.14 4.14.91 5.8.69.56.18-.15 1.14-.12 1.69Zm.55-2.28a43.37 43.37 0 0 1-5.87-1c.31-1.26.61-2.51.91-3.76 1.92.06 4 1 5.91 1.43a17.43 17.43 0 0 0-.95 3.31Zm1.14-4.13a52.85 52.85 0 0 0-5.8-1.26 1.87 1.87 0 0 1 .36-1.48c1.78.59 3.74 1.07 5.73 1.53-.09.39-.19.79-.29 1.19Zm.49-2c-1.9-.48-4.45-1-5.91-1.43.19-.76.37-1.52.56-2.28 1.92.34 4.23 1.31 5.83 1.13.17.62-.37 1.72-.48 2.55Zm.94-3.32a38.45 38.45 0 0 1-6.1-1.19l.75-3.09 6.17 1.49a15.1 15.1 0 0 0-.82 2.76ZM161 52.5c-.57-.24-.81 0-1.38-.19-.16-.25.05-.72.13-1.11a62 62 0 0 1 6.25 1.66c-.67 1.52-3.4-.32-5-.36Zm-1.09-2c.06-.22.11-.44.16-.67.12 0 .17-.1.3-.07a35.29 35.29 0 0 1 4.13 1.14c.57.18 1.93.06 1.75 1-1.38.02-4.83-1.07-6.36-1.37Zm6.77.22c-1.91-.67-4.14-1.14-6.28-1.66.19-.76.37-1.52.55-2.28 2 .21 4.32.95 6.48 1.42a14.7 14.7 0 0 0-.77 2.55Zm.94-3.32a52.88 52.88 0 0 0-6.5-1.29c.33-1.39.67-2.78 1-4.16 2.13.29 4.48 1 6.74 1.48a37.77 37.77 0 0 1-1.26 4Zm-5.3-6.26c.06-.27.13-.54.19-.8a54.82 54.82 0 0 1 6.75 2.05c-1.99.19-4.78-1.02-6.96-1.22Zm7.33.21c-2.4-.55-4.45-1.32-6.94-1.82.08-.36.17-.71.26-1.07 2 .59 4.84 2.16 6.84 1.65.25.25-.17.89-.18 1.27Zm.56-1.71a27.38 27.38 0 0 1-7.05-2c.21-.35-.1-.39 0-.7 2.11-.37 5 1.33 7.48 1.38-.08.59-.41.73-.45 1.35Z" fill="#eaa842" fill-rule="evenodd" data-color="1"/>
    </g>
</svg>
