<?xml version="1.0" encoding="UTF-8"?>
<svg data-bbox="0 -0.016 73.81 93.366" viewBox="0 0 73.78 93.35" xmlns="http://www.w3.org/2000/svg" data-type="color">
    <g>
        <g>
            <path d="M3.48 72.59c.53.24 1 .34 1.13-.25-.02-.83-1.48-.76-1.13.25Z" fill="#cd6713" fill-rule="evenodd" data-color="1"/>
            <path d="M36.25 9.27c.2-.66-.82-1.19-1-.21a.35.35 0 0 1 .15.31c.42.21.6-.01.85-.1Z" fill="#cd6713" fill-rule="evenodd" data-color="1"/>
            <path d="M26.06 6.1c.73-1.22-1.51-1.77-1.19-.29.29.28.88.52 1.19.29Z" fill="#cd6713" fill-rule="evenodd" data-color="1"/>
            <path d="M16.4 33.75a.34.34 0 0 0-.15-.31c-1.36 1.71-2.92 5.41-2.31 7.37a38.75 38.75 0 0 1 2.46-7.06Z" fill="#cd6713" fill-rule="evenodd" data-color="1"/>
            <path d="M19.55 24.72a.88.88 0 0 0 .21-1c-1.08-.72-1.42 1.03-.21 1Z" fill="#cd6713" fill-rule="evenodd" data-color="1"/>
            <path d="M37.64 9.75a.59.59 0 0 0 .24-.69.81.81 0 0 0-.62-.06c-.21.29.06.36-.09.62Z" fill="#cd6713" fill-rule="evenodd" data-color="1"/>
            <path d="M17 32.28c.21-.32.16-.19.2-.57a.54.54 0 0 0-1 .29.75.75 0 0 0 .8.28Z" fill="#cd6713" fill-rule="evenodd" data-color="1"/>
            <path d="M68.06 23c.19-.09.28-.37.36-.65a.75.75 0 0 0-.81-.29 1 1 0 0 0-.12.74c.32.2.19.13.57.2Z" fill="#cd6713" fill-rule="evenodd" data-color="1"/>
            <path d="M68.9 21.32c0-.76-1.1-.54-.85.22.41.2.71.15.85-.22Z" fill="#cd6713" fill-rule="evenodd" data-color="1"/>
            <path d="M69.39 19.55c-.55-.44-.88.26-.74.65a.59.59 0 0 0 .74-.65Z" fill="#cd6713" fill-rule="evenodd" data-color="1"/>
            <path d="m45.39 12.07.21-.58c-.27-.5-1.28-.8-1.36.18a.87.87 0 0 0 1.15.4Z" fill="#cd6713" fill-rule="evenodd" data-color="1"/>
            <path d="M13.94 43.4a.76.76 0 0 0 .28-.81c-.81-.52-1.22.71-.28.81Z" fill="#cd6713" fill-rule="evenodd" data-color="1"/>
            <path d="M47.67 12.61c.21-.33 0-.46.13-.74a.67.67 0 0 0-1.21.49.9.9 0 0 0 1.08.25Z" fill="#cd6713" fill-rule="evenodd" data-color="1"/>
            <path d="M63 18.49c1.78 0-.42-1.73 0 0Z" fill="#cd6713" fill-rule="evenodd" data-color="1"/>
            <path d="M27.91 6.74a.62.62 0 1 0-1.2-.28c0 .46 1 .96 1.2.28Z" fill="#cd6713" fill-rule="evenodd" data-color="1"/>
            <path d="M11.78 50.31c1-.05 1-1.48 1.24-2.42a10.14 10.14 0 0 0 .58-2.79c0-.1 0-.17-.19-.19-.44 1.27-.89 2.54-1.33 3.82-.26.51-1 1.27-.3 1.58Z" fill="#cd6713" fill-rule="evenodd" data-color="1"/>
            <path d="M56 57.57c-.24.5-.09.82.45.94a.53.53 0 1 0-.45-.94Z" fill="#cd6713" fill-rule="evenodd" data-color="1"/>
            <path d="M51.74 69.72c0 2.89-2.34 6-2.8 8.37.66-.17.8-1.09 1.11-1.69C51 74.5 52.32 72 52 70c-.1-.1-.06-.25-.26-.28Z" fill="#cd6713" fill-rule="evenodd" data-color="1"/>
            <path d="M7.69 71.33c12.09 4.08 24 8.44 36.33 12.31 7.69-20.06 14.71-41.2 21.19-61.79-12.06-4.5-25.82-9.54-37.81-12.17-3.74 11.12-7.27 22.76-11.14 34.14-3.09 9.06-6.26 18.61-8.57 27.51Zm20.44-60.75C40 14.33 52.52 18 64 22.73c-6.53 20-13.27 40.14-20.74 59.73-11.48-4.24-23-8.39-34.18-11.41 5.4-19.44 13.3-41.34 19.05-60.47Z" fill="#cd6713" fill-rule="evenodd" data-color="1"/>
            <path d="M26.38 7.77C22.51 18.07 19.25 29.14 16 40.1s-7.71 22-10.35 32.6c13 4.59 26.52 9.41 39.46 13 8-21.92 16-43.13 22.25-64.8a144.8 144.8 0 0 0-16.65-6.2c-8.39-2.49-16.65-5.88-24.33-6.93Zm18.17 77c-12.75-4-25.18-8.48-37.89-12.32C13.31 51 20.55 29.34 26.61 8.24c13 3.87 27.18 7.73 40 13.21C60 42.23 52.24 63.66 44.55 84.73Z" fill="#cd6713" fill-rule="evenodd" data-color="1"/>
            <path d="M72.16 15.71c-.07 0-.14 0-.15.08l-.23-.08c-4.49-1.13-7.25 1.34-12.05-.45-4.14-2-6.73-4.77-10.41-7-5.9-2.34-9.62-.14-15.58-2.59C31 3.6 28.55-.3 23.9 0c-.94.65-2 1-2.55 2.48-.83 3.09.92 4.94 1.13 7.54.09 5.43-3.79 8.6-5.4 14-.27 1.38-.09 2.55-.64 4.06-1.78 2.68-3.65 5.2-4.78 9.23-.45 2.37.57 4.67.13 7.06-.79 4.1-4.66 6.75-5.47 11.56-.27 1.55 0 3.1-.19 4.61a27.55 27.55 0 0 1-2.67 8C2.21 70.31.38 71.86 0 74.75a9.94 9.94 0 0 0 .52 1.48c.7 1.18 3.44 2 4.82 1.81 2.15.13 3-1.5 5.1-1.2 5 .71 6 7.07 12.17 7.5 2.92-.07 5.3-1.26 8.69-.34s5.12 2.41 7.39 3.74c1.89 1.93 2.89 5.26 6.74 5.61 4.4-2 1.48-8 3.5-11.89 2.37-4 5.56-9.18 5.32-14.11 1.3-4.6 3.94-6.38 4.93-11.13.22-1.87.09-3.57 1-5.76 1.13-1.91 2.72-2.87 3.87-4.75 2.57-6.31-.25-10.93 3.38-17.12 2-3.24 5.3-4.83 6.38-9.33-.09-1.42-.31-2.75-1.65-3.55Zm-1 6.15c.41-1.54.44-2.91-.49-3.8-2.64-1.15-4.4-.49-6.31-.14 1.65 1.42 4.13-.77 6.07 1.22.94 2.82-2.68 4.07-3 6.74-4.23 6-2.36 11.94-3.9 17.85a7.4 7.4 0 0 1-3.19 3.94c1.21-3.59 4.43-8 3.26-11.19-.64 1.81-.65 3.84-1.52 5.83-.67 1.54-1.7 2.93-2.35 4.5-1.64 4-1.83 7.95-2.42 11.75-.35.73-.71 1.44-1 2.23a14.12 14.12 0 0 0-3.14 5.65c-.75 2.67-.12 4.84-1.55 8.16a47 47 0 0 1-3.5 5.92 13.25 13.25 0 0 0-1.2 5.68c-.64 1-1 2.66-1.87 3.11-3.23-.79-3.16-4-6.86-4.87.28 1 2 1.4 2.56 2.33A20.76 20.76 0 0 1 43 89.24a8.64 8.64 0 0 0 1.73 1c1 .19 1.42-.78 2.11-1.21-.37 1.36-.93 2.32-1.9 2.45-3.88-2.11-4.91-5.58-9-7.57-5-2-8.92-2-12.39-1-5.63-.08-7.12-4.88-11.38-6.83a16 16 0 0 1-3.43-.94c-1.48-.27-2.64.13-4 0-1.09-.31-1.1-1.14-1.75-1.66-.69 2.68 3.12 2.52 4.59 2.23.48.27-.63.32-.82.5a10.65 10.65 0 0 1-1.17.37c-1.08 0-2.74-.12-3.66-1a9.21 9.21 0 0 1-.37-1.16c.84-2.71 2.57-3.57 3.61-5.88C7 64 8.12 59.77 7.75 56.3c.86-3.32 2.76-5.89 4.19-8.66 1.67-4.08.93-7 1.16-10.37 1.07-3.75 2.86-6 4.46-8.7.28-1.64.46-3.24.65-4.83 1.09-3.46 3-5.25 4.31-8.24 2-5.11.24-8.39.06-12.44.34-1 1-1.33 1.58-1.91 3.52.23 5.17 2.75 7 4.4-2.37-.4-3-2.47-5.39-3.18-2.77.63-2.1 5.08-1.46 6.88C25 7.52 23.78 5 25.48 3.3c2.28.9 3.66 3 6.69 3.89a4.5 4.5 0 0 0 1.62.18C39.65 9.66 43.11 7 49 9.45a16.2 16.2 0 0 1 3 2.06C48 9 43.09 9.15 39.23 9.27c2.39.76 5 .31 7.7 1 4.51 1.61 7.57 3.92 11.62 5.75 5.5 3.14 10.43-1.64 13.92 2.14.23 1.27-.69 2.5-1.29 3.7Z" fill="#cd6713" fill-rule="evenodd" data-color="1"/>
            <path d="M22.89 80.93c.35.18.51 0 .78 0 .21-.32 0-.46.13-.73-.8-.58-1.23.25-.91.73Z" fill="#cd6713" fill-rule="evenodd" data-color="1"/>
            <path d="M14.15 77a8.66 8.66 0 0 0 2.58 1.55c-.05-.83-1.73-2.09-2.58-1.55Z" fill="#cd6713" fill-rule="evenodd" data-color="1"/>
            <path d="M17.23 79a.39.39 0 0 0-.32.15c1.4 1.41 4.23 3.81 6.55 2.81-.5-.5-1.41-.32-2.05-.46-2.14-.5-2.77-2.1-4.18-2.5Z" fill="#cd6713" fill-rule="evenodd" data-color="1"/>
            <path d="M21.78 80.41c.48-2.51-2.38.27 0 0Z" fill="#cd6713" fill-rule="evenodd" data-color="1"/>
            <path d="M11.34 51.58c-.15-.09-.13-.26-.27-.35C9.59 52.86 8 57.05 8.6 59.06c.56-2.71 1.89-4.8 2.74-7.48Z" fill="#cd6713" fill-rule="evenodd" data-color="1"/>
            <path d="M20.21 79.34c.1-.32-.45-.46-.66-.35l-.12.34c.11.24.72.49.78.01Z" fill="#cd6713" fill-rule="evenodd" data-color="1"/>
        </g>
    </g>
</svg>
