<?xml version="1.0" encoding="UTF-8"?>
<svg data-bbox="0 0.014 56.176 59.099" viewBox="0 0 56.18 59.15" xmlns="http://www.w3.org/2000/svg" data-type="color">
    <g>
        <path d="M55.74 11.5C53.51 8.1 48.85 6.82 44.23 5A138.61 138.61 0 0 0 29.3.61c-4.88-.69-9.55-1-13.23.3a10.32 10.32 0 0 0-2.15 2c-.27 1.23-.85 2.66-.51 3.53A13.54 13.54 0 0 0 17.17 9c2.25 5.92 1.84 13.43 2 20.61a4.83 4.83 0 0 0-.45 1.27 8.93 8.93 0 0 1 .17 1.82C16.46 40.49 12.71 46 5.65 45.93a4.55 4.55 0 0 0 1.68-4.63 3.83 3.83 0 0 0-3-1.64A6.36 6.36 0 0 0 0 45.26c.57 2.31 2.4 3.88 5.81 4.51 1.93-.37 3.89-.35 5.47-1.14a17.75 17.75 0 0 0 3.34-2.69c3-2.76 4.82-6.9 6.73-11.06 1.69 1.21 4.08 2 6 3-.49 2.48-1.15 5.06-1.51 7.46-1.08 3.19-4.21 9.78-.55 11.11 1.48-.24 1.62-2.28 2-3.92a33.57 33.57 0 0 0 .91-5.07c1-2.73 1.59-6 2.59-8.7 1.76.42 3.85.48 5.14.67-1.64 8.17-.34 14.58 4.71 18.77a6.07 6.07 0 0 0 8.12-1.6 11.12 11.12 0 0 0 1-3.53c-.2-1.51-2.17-2.46-4.15-2.58A4.32 4.32 0 0 0 42.17 54c-3.8-3.25-3.92-8.69-2.94-14.78 1.63-.71 3.53-1 4-3.68a12.31 12.31 0 0 0-1.09-3.18c2.69-5.3 5.13-11 9.15-14.11A7.31 7.31 0 0 0 55.48 17c.69-2.2 1.02-4.17.26-5.5ZM1.07 45c.08-2.88 2.84-5.2 4.86-3.19 0 1.33-.64 3-2 2.52-.52-.91.34-.83.57-1.75 0-.17-.16-.24-.15-.42-2.69-.31-2.22 4-.82 4.73 2.25.77 4.29.31 5.83.46-2.28 1.56-7.59.59-8.29-2.35Zm9.15 1.82c.08-.25.36-.18.65-.09-.14.27-.48.42-.65.11Zm4.53-41.69c.67.37 1 1 1.54 1.4a2.39 2.39 0 0 1-1.54-1.4Zm3.84 4.77c.39-.29.75.28 1.19.3.23 1.37.74 2.59.88 4 0 1 1.21 3.36-.37 3.44a39.71 39.71 0 0 0-1.7-7.74Zm15.32 5.41c0-.11.08-.1.15-.09.43.15 1.08.16 1.27.45-1.22 5.17-2.65 10-3.95 15.05.09.66-.37 1.64-.33 2.32-.33.63-.24 2-1.08 1.75-.71-.06 0-1.11.09-1.37a4.77 4.77 0 0 1 .52-1.51c1.18-5.48 2.44-11 3.39-16.34.03-.13.03-.21-.06-.26Zm-.61 12.87c.81-4.23 2.21-8.18 3.37-12.3A98.53 98.53 0 0 0 46.5 18c0 .57-1.38 1.74-1.82 2.7-1.89 3.22-4.07 5.93-5.63 9.7a40.26 40.26 0 0 0-5.75-2.22Zm5.12 3.7c-1.15-1.16-3.79-1.44-5.49-2.28a.69.69 0 0 1 0-.39c.11 0 .15-.09.27-.05 1.18.46 2.53.87 3.68 1.44.58.29 1.6.56 1.54 1.28Zm-16.27-3.12a18.26 18.26 0 0 1 7.7-.45 71.35 71.35 0 0 0-7.7.45Zm6.13 5.73c-3-1-6.63-1.57-6.31-4.52a15.57 15.57 0 0 1 7.37-.15c.23 1.18-.66 3.41-1.06 4.67Zm1.81-7.13c-2.81-.43-5.65 0-7.85 0 1-6.18-.06-11.19-.77-16.38A87.35 87.35 0 0 0 33 14.83c-1 4.17-2 8.37-2.91 12.53Zm-9.34 2.94c-1-.12-.14-1.34-.41-1.88a15.39 15.39 0 0 0 0-2.14c.53-2.23 0-4.37.29-6.12a.54.54 0 0 0 .57-.16c.68 2.9.18 7-.45 10.3ZM21.2 19a.6.6 0 0 0-.65.09c-.46-.5.24-.61.57-.74.25.11.18.39.08.65Zm-9.46 27.34c2.93-3 7-6.54 8-12.9.2 0 .18.17.33.21-1.38 5.97-4.47 10.43-8.33 12.69Zm13.55 8.38a19.47 19.47 0 0 1 1.9-8.5 27.38 27.38 0 0 1-1.9 8.5Zm3.26-12.83c-.28 1.1-.26 2.68-1.32 2.7a29.06 29.06 0 0 1 1.48-6.33l.71.18c-.25.98-.57 2.26-.87 3.45Zm3.79-4c-3.72-.66-7.2-2.39-10-3.54a8.64 8.64 0 0 1-2.3-2.87c0-.1.07-.1.15-.09a4 4 0 0 0 1.09.66c2.3 3.28 9 4.64 13.68 5.38-.26 1.08-1.85.63-2.62.49Zm-.71-2.71c.39-1.5.77-3 1.15-4.51a19 19 0 0 1 5.14 2.19 13.57 13.57 0 0 1-.92 2.58c-1.28.77-3.34.24-5.37-.23Zm7.66 18.64a6.14 6.14 0 0 0 3.83 2.87 4.58 4.58 0 0 0 3.54-1c.25-.89.28-1.65-.23-2.08-1-.25-1.24.63-1.7 1.21a1.39 1.39 0 0 1-1.16-.93 3.61 3.61 0 0 1 2.09-2.25c1.24 0 2.89.53 3.18 1.44-.72 3.32-2.68 4.55-5.34 4.59-5.54-2.19-7.22-7.06-7-12.9a16.62 16.62 0 0 1 .77-5.49c.06-.12.25 0 .29-.18l.36.09c-1.09 4.81-1.05 11.26 1.37 14.66Zm-3.45-15.8.15-.59c1.57-.66 4 .2 5-1.38-.65 1.76-3.06 2.05-5.15 2Zm5.83-8c-1.1 1.53-1.34 4.52-2.87 5.34 0-1.85 1.18-3.73 2-5.55a31.73 31.73 0 0 1 2.9-5.46c.37 0 .27.25.57.27-.47 1.78-1.87 3.49-2.6 5.43Zm3.17-6c-.16-.11-.25-.25-.41-.36.06-.36.36-.3.42-.65.61.18.29.72-.01.99Zm.84-1.31c-.46-.78.59-1.66 1.11-2.37s1.21-1.57 1.7-2.22a1.76 1.76 0 0 0 1.13 0c-.98 1.44-2.91 2.72-3.94 4.6Zm6.09-6a40 40 0 0 1-6.36-.35c-8.23-1.68-17.9-3.93-24.62-7.14-.91-.43-2.09-.7-2.63-1.55 6.51 2.63 16.52 5.33 25.11 7.11A46.69 46.69 0 0 0 51.44 16a7.74 7.74 0 0 0 2.77-.44c-.29.56-1.61.88-2.44 1.12Zm.6-1.87c-10.58-1.65-24.26-4.57-33.37-9-1.5-.52-2.7-1.22-2.76-2.6 1.48-1.89 4.2-1.38 6.66-1.34a34.76 34.76 0 0 1 7.88.86c.18.08.23-.06.38 0a124.58 124.58 0 0 1 13.9 4c4.22 1.52 9.06 2.56 9.61 6.49a6.48 6.48 0 0 1-2.3 1.56Z" fill="#cd6713" fill-rule="evenodd" data-color="1"/>
    </g>
</svg>
