<?xml version="1.0" encoding="UTF-8"?>
<svg data-bbox="0 -0.044 1579.3 1687.384" viewBox="0 0 1579.28 1687.4" xmlns="http://www.w3.org/2000/svg" data-type="color">
    <g>
        <path d="M0 1673.44c3.27-10.28 5.69-19.47 9.08-28.3 61.79-160.94 111.33-325.63 145.43-494.56 19.05-94.32 34-189.55 48.15-284.76 11.57-78 20.6-156.48 28.21-235 14.62-151 27-302.16 24.87-454.11-.16-11.21.72-22.45 1.28-33.67.44-8.85 4.48-14.64 12.88-18.88 29.21-14.76 60.56-22 92.39-27.71 3.29-.59 7.27.33 10.44 1.69 13.68 5.82 27.18 12.08 40.74 18.17 2.22 1 4.44 2 8 3.54-1-11-1.86-20.7-2.89-30.34-.86-8.1 0-14.44 9.11-18.28 14.92-6.31 29-14.69 43.94-20.85 24.11-9.93 48.71-18.69 73-28.14 6-2.35 10.43-1.85 14.39 3.93 5.89 8.61 14.19 14.35 23 20.16 12.67 8.37 23.56 19.45 34.17 28.49V28.68c0-3.93-.37-7.88-.15-11.79.55-9.49 4-12.14 13.34-12.18 48.3-.19 96.6-.42 144.89-1 15.9-.18 22.05 6.65 18.81 22.31a31.77 31.77 0 0 0-.57 6.69q.32 56.46.75 112.92a41.48 41.48 0 0 0 .57 4.54h10c0-17.14.1-33.89 0-50.63-.13-17.11-.66-34.22-.68-51.32 0-7.93 3.84-12.67 11.41-16.74 12.76-6.85 24.09-16.32 36.43-24 4.74-3 10.55-5.82 15.93-5.94C907.28.63 947.71.44 988.14 0c3.09 0 6.19-.1 9.27 0 11.78.56 15.78 4.1 16.07 15.79 1.14 45.76 2.25 91.53 2.72 137.31.09 8.64 2.46 11.79 11.13 12s17.23 2.15 27.11 3.5c-.28-5.69-.63-10.85-.79-16-.74-23.57-1.54-47.15-2.05-70.72a76.39 76.39 0 0 1 1.5-15.06c1.21-6.6 5.11-11.78 11.76-12.94 26.53-4.61 53-10.19 79.78-12.4 12.79-1.06 26.08 4.84 39.22 7.17 29.3 5.19 58.68 9.9 88 15.25 19.16 3.5 25.66 11.76 25.38 31.37-1 75.12 5.62 149.83 12 224.55 6 69.68 11.48 139.4 18.48 209 5.73 57 12.07 114 20.4 170.61 14.05 95.54 28.9 191 45.23 286.16 19.75 115.15 46.1 228.92 76.09 341.84 28 105.55 59 210.22 94.12 313.65 2.5 7.36 5.69 14.48 8.21 21.83s4.62 14.9 7.53 24.43c-14.17-.77-27.1-1.43-40-2.18-6.71-.4-13.4-1.11-20.11-1.41-267.28-11.7-534.71-10.5-802.14-10.57-195 0-389.9-.84-584.86-1.08-40.71-.05-81.42.83-122.13 1.28-3.06.09-6.06.06-10.06.06zM865.46 454.79l-.07-.08-1.83-1.64-3.11-3.24c-.48-1.28-.56-3.08-1.48-3.78-15.64-11.81-31.37-23.49-47.09-35.2l-2.06-1.61-3.36-1.66c-9.52-5.77-18.45-12.33-31-9.23-87.58 21.65-148.97 75.51-190.62 153.9-22.07 41.53-29.69 86.56-31 132.82-.66 23.78.09 47.69 1.77 71.43 1.11 15.75 5 31.3 7.59 47 1 6 4.44 7.66 10.12 7.14 8.9-.82 17.84-1.49 26.78-1.69 33.08-.72 66.16-1.41 99.24-1.77 28.92-.32 57.84-.19 86.76-.26 35.32-.48 70.65-1.08 106-1.42 23-.21 46.07-.32 69.09.1 7.09.13 9.38-2 8.84-9-2.48-32.59-4.32-65.23-7.16-97.78-.93-10.67-4.22-21.13-6.43-31.68v-1.47L948 628.42q-1.68-7.56-3.35-15.12-1.67-5.06-3.35-10.1c-.56-2.3-1.12-4.59-1.67-6.89v-1.39c-.56-1.17-1.11-2.34-1.67-3.5-.56-2.24-1.11-4.47-1.67-6.71l-5-13.45q-1.68-5-3.35-10.08l-3.36-6.73-1.68-5-1.65-3.33v-.05l-1.65-5q-2.52-5-5-10.07c-.55-1.67-1.11-3.34-1.66-5l-1.65-1.88v-1.35l-1.66-1.79-1.67-3.33-1.75-3.35c-3.74-6.23-7.21-12.64-11.28-18.65-4.31-6.36-9.18-12.33-13.81-18.47l-3.45-6.55-1.7-3.53-1.66-1.66-2.31-2.25-4.91-6.54zm-256.27-292.2 1.63-.16 15-1.6c-1.09-3.43-1.83-5.78-2.57-8.14-1.16-12-2.77-23.94-3.3-35.95-.27-5.94-2.44-9.55-6.95-13.21-15-12.15-29.5-24.84-44.21-37.3-1.71-1.46-3.5-2.82-5.92-4.75V168.3l41.36-5.46zM1183.94 196l35.54 12.33 6.57 2.71 44.57 22.21c-.74-27.6-1.81-53.6-2-79.61-.13-16.52.84-33.06 1.73-49.57.3-5.59-1.28-8-7.08-8.8-10.78-1.52-21.44-3.94-32.15-6l-40.47-8.43-26.7-8.82c-.67 1.07-1.18 1.5-1.18 2q-.36 53.82-.65 107.65c-1.85 6.48.35 9.87 7.27 10.77 4.92.63 9.7 2.35 14.55 3.56zm-200.63-5.36-24.2-2.64c.47 9 .86 16.46 1.25 23.89v102.35l11.37 1.36q90.46 16.51 180.9 33.08c10.63 2 21.11 4.74 32.69 7.38-.29-6.4-.71-11.63-.73-16.85-.15-34.23-.37-68.47-.16-102.7 0-6.47-1.94-9.58-8.33-11.11-21.79-5.19-43.38-11.22-65.22-16.17-11.94-2.7-24.23-3.87-36.36-5.73zm314.54 963.53c.54 3.3.67 6.73 1.68 9.88q28 87.48 56.41 174.86c.7 2.14 3.25 3.67 4.94 5.48h74.48c-.31-1.78-.58-4.49-1.25-7.11-6.87-26.87-14.08-53.66-20.65-80.6-7.5-30.75-14.36-61.65-21.82-92.4-.62-2.53-3.59-6.25-5.66-6.38-24.61-1.5-49.25-2.42-73.89-3.5l-3-.41zM290.63 279.72c-.47 1.78-1.31 3.55-1.36 5.34q-1.36 48.7-2.54 97.41a52.47 52.47 0 0 0 .56 5.71l40.58-17.37c15.87-5.26 31.79-10.38 47.55-15.95 1.95-.69 4.33-3.74 4.37-5.73.35-19.82.25-39.64.28-59.46v-55.11l-55.64 24.72zM96.75 1521.94c-2.22 2.2-5.5 4-6.51 6.66-9.36 24.63-18.2 49.46-27.48 74.12-4.8 12.77-10.18 25.32-15.72 39l14.39-1.1 30.2-1.4c14.22-.37 28.44-.67 42.65-1.14 11.12-.37 22.24-1 33.36-1.45 11.19 0 22.4-.34 33.57.21 6.8.33 9.22-2.16 10.11-8.75 3-21.92 6.53-43.77 9.8-65.65 2-13.75 4-27.53 6.08-42h-26.06l-15.13.08-41.9.32-22.05.57-15.25.36zM540.06 55.38c-29.88 9.56-59.79 19-89.57 28.89-2 .65-4.29 4.36-4.18 6.54 1.44 30.25 3.28 60.49 5 90.73-1.09 5 1.62 4.93 5.29 4.25 11.56-2.12 23.16-4.09 34.75-6.06 17.32-2.94 34.65-5.83 50-8.4V62l.1-4.94c-.45-.59-.93-1.13-1.39-1.68zM120.72 1435.79l-.69 2.64-1 2.43-4.2 14.2c-.32.89-.63 1.78-.94 2.67l-2.55 8.28c-4.53 13.31-9 26.63-13.61 39.92-1.57 4.53.59 4.77 4 3.77l11.85-.3 4.85-.1 8.57-.3 79.14-1.07a14.12 14.12 0 0 0 2.47.46c48 .24 96.05.39 144.08.77 5.39 0 6.58-2.42 7-7 3.79-44.19 7.79-88.36 11.5-132.55.62-7.43.09-15 .09-22.33-.75-.33-1.25-.74-1.74-.74q-60.65.33-121.28.73l-84.4 3.16h-.26l-4.47-.2-8.58.5-2.63.39c-1.39.89-3.68 1.52-4 2.7-5.29 18.67-10.32 37.42-15.41 56.14l-1 2.28q-.57 2.74-1.13 5.49c-.37 1-.73 2-1.09 3-.73 2.41-1.45 4.82-2.18 7.23l-.87 2.84a1.1 1.1 0 0 0-.37 1.42zM326.58 226.25c12.86-5.43 25.79-10.68 38.48-16.47 1.71-.78 3.16-4.24 3.11-6.42-.44-21.23-1.26-42.44-1.89-63.67-.15-4.89 0-9.8 0-15.36l-45.48 9c-10 2.61-19.91 5.45-30 7.74-5.35 1.22-6.2 4-5.84 9 1.2 16.19 2.24 32.4 2.65 48.62.44 17.19.1 34.4.1 52.88zm696 1125.34c.1 2.25.21 4.5.31 6.75l.57 2.08c.7 6.11 1.25 12.25 2.12 18.34 6.05 42.65 12.25 85.28 18.15 127.94.73 5.3 2.76 7.16 8 6.93 9.22-.38 18.47-.18 27.71-.22h212.71c-.51-2.21-1-4.87-1.72-7.49-12.12-47.51-24.59-94.94-36.06-142.6-2.06-8.53-5.31-10.47-13.28-10.35-20.2.29-40.41-.36-60.62-.53q-70.71-.6-141.4-1.09a1.86 1.86 0 0 0-1.35-.15l-2-.44-11.91-.07zM314.26 645.38c10.52-1.47 21-3.3 31.57-4.28 6.1-.57 7.73-3 7.82-9 .47-32.78 1.43-65.54 2.21-98.31.07-3.17 0-6.35 0-11.15l-34.95 11.17c-12.87 3.76-25.65 7.86-38.64 11.14-5.75 1.46-7.49 4.49-7.86 9.93-1.16 17.07-2.64 34.13-4.12 51.17-1.38 15.83-2.92 31.64-4.52 48.86zm562-615.95-1.16 1.8q-.69 6.14-1.37 12.28l-.12 8.37V153h23.8a.77.77 0 0 0 1.09.57l2.23.36 87 5.63a9.93 9.93 0 0 0 .9-2.62q.78-60.12 1.49-120.24c.21-2.4.41-4.8.63-7.3zm349.84 337.91 55.59 17.79c0-4.44.15-6.92 0-9.38-2.26-32.35-4.38-64.71-6.94-97-1.12-14.17-1.59-14.1-16.52-18.35-2.66-.76-5.11-2.28-7.64-3.47l-24.22-11.44-31.56-14.49c-.34 3.55-.6 4.93-.58 6.3.58 33.95.93 67.91 1.91 101.85.59 20.28 1 20.29 21 26 2.94.85 5.97 1.47 8.96 2.19zm11.83 277.84 68 5.09c-3.19-31.74-6.06-61.74-9.45-91.69-.31-2.77-3.52-7-6-7.45-19.14-3.82-38.43-6.89-57.68-10.19l-35.19-6.44c.94 37.34 1.83 73 2.78 110.68zm-276.61 486.37 3.67.07 18.34.31 15.25.18 180.37 4.74a49.89 49.89 0 0 0 0-6.3c-7.26-52.74-14.66-105.46-21.77-158.22-.8-6-3.8-7-9-7.23-25.21-1.24-50.39-3.07-75.6-4.19-30.25-1.35-60.53-2.19-90.79-3.24h-46.34c2.51 25.68 5.18 51.26 7.44 76.88 2.56 29 4.64 58 7.25 87 .3 3.31 2.69 6.43 4.11 9.64zM393.56 284.49v63.83a12.45 12.45 0 0 0 3 .25c47.41-10.2 94.83-20.38 142.18-30.86 1.84-.41 4.33-3.66 4.35-5.62.22-18.79 0-37.58-.14-56.37v-53.94c-8.55 1.34-15.49 2.16-22.3 3.54-40.32 8.22-80.59 16.64-120.92 24.78-5.41 1.09-7.43 3.38-7.2 9 .64 15.12.73 30.26 1.03 45.39zm160.19-32.06v61l162.09-14.2V232c-.35-15.84-.7-31.67-1.09-49.2l-163.41 16.41c.87 19.13 1.66 36.17 2.41 53.22zM717.41 34.68l-73-4.2v128.66l23.75-2.86c22.09-1.3 44.18-2.64 66.28-3.88 9.72-.55 19.46-.89 30.89-1.4V34.68zM298.92 960.21c6.13-.47 12.25-1.31 18.38-1.31 5.6 0 7-2.38 7-7.66.51-52.48 1.26-105 1.9-157.44 0-2.37-.37-4.75-.63-7.8l-18.39 1.72c-15.36 1.31-30.7 3.39-46.08 3.64-9.19.14-11.51 3.66-12.57 12-5.08 40.05-10.8 80-16.35 120-2.1 15.15-4.37 30.28-6.74 46.67zm970.72 2.39q31.75 2.35 63.52 4.68c6.28.46 12.58.77 19.78 1.2-.46-4-.68-7-1.18-9.94-2.46-14.62-5.13-29.2-7.5-43.83-5.62-34.78-11-69.6-16.85-104.35-.41-2.42-3.53-6.14-5.59-6.27-23.46-1.5-47-2.43-70.45-3.52L1238 800c1.33 54.14 2.62 106.91 3.94 160.65zm-274.5-251.53c1.71 22.77 3.41 45.55 5.13 68.49 35.34 1.33 69.49 2.73 103.65 3.65 1.86 0 5.46-3.8 5.51-5.89.92-40.67 1.39-81.35 2.09-122 .08-4.6-1.52-6.67-6.24-6.73-5.88-.08-11.75-.7-17.63-1q-48.74-2.07-97.47-4.07l-6.29-.56c3.87 23.47 7.56 45.79 11.25 68.11zm249.23 77.79 21.91 1.69a45.1 45.1 0 0 0 .49-5.08c-2.14-35.73-4.24-71.46-6.52-107.18-.42-6.61.7-15.51-3-19.1s-12.56-1.79-19.16-2.35l-6.95-.86-6.65-.29-103.2-6c-.79 2-1.17 2.5-1.17 3-.13 41.83-.19 83.66-.4 125.49 0 4.52 2 5.63 6.09 5.79q59.27 2.35 118.56 4.89zm-992.51 547.59c12.29.77 12.44.79 14.2-10.65 7-45.13 14-90.26 20.61-135.44 1.91-12.89 2.71-25.95 4.11-39.78l-10.37.6c-3.8.47-7.58 1.22-11.38 1.36-20.17.73-40.34 1.24-60.51 2-16.36.6-16.37.69-20 16.79q-10.56 46.28-21.08 92.57c-6.69 25.43-13.37 50.86-20.35 77.42l22.14-1.78zm1110.84 18.74h-100.82a12.45 12.45 0 0 0 .24 2.74c13.75 50.59 27.47 101.19 41.54 151.7.62 2.24 4.44 5.1 6.79 5.12 35.93.31 71.87.19 107.81.17h65.68c-.48-2.26-.68-3.61-1.06-4.91-6.25-21.19-12.71-42.32-18.74-63.58-7.78-27.42-15.07-55-23-82.37-.85-2.94-4.56-7.09-7.08-7.2-23.78-.99-47.57-1.22-71.36-1.67zM314 655.92c-6.09-.91-5.91 3.42-6.31 7.42q-4 40.62-8.16 81.22c-1.13 11.27-2.26 22.54-3.47 34.52l11.25-1.08c38.6-2.89 77.19-5.84 115.8-8.63 11.14-.81 22.3-1.13 34.39-1.72a412.32 412.32 0 0 1 .31-127.2c-48.87 3.38-96.6 6.76-143.81 15.47zm636.85-444v-24.79c-75.4-4.54-150.49-8.35-226.09-3.7 1 16.31 1.9 31.66 2.82 47V301c75.67-1.67 148.73 2.72 223.27 12.09zM321.61 521.41c2.47-.46 5-.79 7.41-1.39 28.84-7.12 57.64-14.44 86.53-21.36 12.16-2.91 24.52-5 36.83-7.46 1.27-48.7 2.52-96.55 3.78-144.62-2.39 0-3.54-.21-4.59 0-43.49 9.84-86.31 21.94-127.77 38.51-10.45 4.06-20.83 8.31-31.38 12.1-5.21 1.87-7 4.85-7.39 10.48-2.35 37.81-5.18 75.59-7.75 113.38-.33 4.83 0 9.7 0 15.68zm653-29q48.79 5.69 97.6 11.37c4.57.53 9.16.94 13.85 1.41a35.09 35.09 0 0 0 .7-4.27c1.07-49.37 2-98.75 3.24-148.13.12-4.79-2.07-6.43-6.17-7.15-8.57-1.48-17.07-3.28-25.66-4.61-28.23-4.36-56.49-8.56-84.74-12.82l-106-12.49c-1.05 2.2-1.49 2.7-1.48 3.19.41 30 .77 60.08 1.45 90.11.06 2.43 1.76 5.38 3.61 7.11 20.99 19.7 38.38 42.27 53.32 66.87 1.67 2.76 5.87 5.14 9.17 5.55 13.64 1.74 27.38 2.63 41.08 3.82zm332.64 650.5a39.32 39.32 0 0 0 5.71 1.16c12.57.69 25.15 1.29 37.73 1.87 12.21.57 24.42 1.08 36.84 1.62a26.57 26.57 0 0 0 0-4.2c-5.6-27.1-11.47-54.15-16.81-81.31-4.84-24.68-9-49.48-13.73-74.19-.71-3.72-.14-8.72-6.5-9.09-25.13-1.48-50.24-3.2-75.36-4.84a3 3 0 0 0-1.45-.21l-7-1.06-100.92-6.41c1.71 8.3 3.47 15.08 4.47 22q10.41 71.51 20.47 143.05c.6 4.29 1.65 6.47 6.48 6.67 36.66 1.46 73.35 3.22 110.04 4.9zm-79.59-763.3-126.94-31.74c-.74 2.72-1.14 3.51-1.15 4.32-.67 49.69-1.25 99.38-2.06 149.06-.08 5 2.2 6.23 6.34 6.79 12.22 1.65 24.44 3.36 36.62 5.29 29.62 4.7 59.22 9.53 88.83 14.3l64.45 12.3c0-4.56.2-7.32 0-10-1-12-2.28-23.91-3.21-35.88-2.42-31.19-4.59-62.41-7.28-93.58-.2-2.41-3.23-5.85-5.62-6.59-16.64-5.16-33.34-9.64-50.01-14.31zM297.19 971c-22.86 2.69-45.74 5.23-68.54 8.32-2.17.3-5.15 3.89-5.6 6.34-6.39 35.07-12.32 70.23-18.57 105.33-3.13 17.59-6.69 35.1-10.28 53.8l88.19-5.29 123.61-4.23c2.67-58.32 5.3-116.08 8-175.41zm684.56-140-3.46.12-10.51.82-168.87 2.85c0 3.88.05 6.91 0 9.95-.57 30-.84 60.07-2 90.08-.26 7 1.51 8.54 8.09 8.59 30.32.25 60.63.95 91 1.54q44.53.85 89.08 1.8l37.31 2.18v-10.74q-.86-65.67-1.7-131.34c-.22-17.8-.18-17.81-18.26-16.25-.48.05-.91.58-1.5 1 0 6.84.59 13.82-.12 20.68-1.81 17.49-2.08 17.47-19.06 18.72zm102.6 695.05c-1.39-.14-2.78-.4-4.17-.41q-81.65-.39-163.29-.71c-1.88 0-3.76.38-6.42.66 0 3.12-.05 5.85 0 8.58.67 31.13 1.64 62.26 1.86 93.4.06 7.76 2.86 9.16 9.86 9.11 36.19-.28 72.38-.13 108.57 0 30.29.1 60.58.38 90.87.58h85.86a16.69 16.69 0 0 0 .16-3.88c-6.41-33.79-12.93-67.55-19.26-101.36-1-5.1-3.91-5.78-8.35-5.8-17.35-.06-34.71-.6-52.07-.66-14.53-.01-29.08.35-43.62.53zm-84.09-383H841.32c2.28 64.57-.63 129.06 5.18 193a26.21 26.21 0 0 0 3.85.89q91 1.17 181.94 2.29h62.32a48.74 48.74 0 0 0-.31-6.19c-5.55-31.47-11-63-16.81-94.39-5.34-28.66-11.07-57.25-16.88-85.82-.73-3.56.23-8.78-6.5-8.81-17.95-.02-35.9-.58-53.85-.93zm-166.44 193v-192.7H543.38c-1.1 65.05-2.18 128.54-3.28 192.77zm-132.25 176.29h331.68c-.1-1.21-.16-2.56-.33-3.9-6.33-50.41-12.83-100.79-18.81-151.24-.81-6.83-4-7.26-9.33-7.3q-148.34-1.2-296.66-2.57c-3 0-6 .25-9.49.41.98 54.82 1.95 108.88 2.94 164.6zm-13.74-165.22H382.19c-4.17 54.2-8.29 107.79-12.55 163.13h318.19zM418 1134.82l263.21-4.17c1.41-59.83 2.79-118.6 4.18-177.89-88.08.31-174.64 1.53-261 7.31-2.17 58.66-4.26 116.08-6.39 174.75zm116.77 9.3h-9.51c-21.9.38-43.8.63-65.69 1.19-51.08 1.33-102.15 2.86-153.23 4.14-5 .13-7.12 1.14-7.78 6.89-4.89 42.35-10.17 84.65-15.58 126.94-2.23 17.43-5.07 34.79-7.65 52.25h253.46l5.98-191.41zm532.05 0c1.66 7.22 3 12.61 4.11 18.05q17.1 85.71 34.09 171.44c.85 4.32 2.35 6.89 7.58 6.84 11.21-.1 22.42.66 33.64.81q92.17 1.26 184.36 2.38c5 .07 9.93 0 15.45 0a36.79 36.79 0 0 0-.8-5.69c-3.58-11.8-7.44-23.51-10.89-35.35-14.11-48.4-28.06-96.85-42.34-145.2-.6-2-3.91-4.46-6.09-4.6-20.7-1.38-41.42-2.57-62.15-3.31-44-1.55-88-2.78-132.06-4.19-7.79-.3-15.57-.75-24.9-1.2zm-126-13c-1.08-14.91-2-28.59-3.06-42.27-3.21-42-6.55-83.91-9.55-125.89-.42-5.83-2.52-7.45-8.17-7.52q-109.47-1.31-219-3.06c-5.18-.08-7.45 1-7.49 6.9q-.54 80.85-1.76 161.69c-.13 8.26 2.53 10.14 10.47 10.11 76.37-.22 152.73 0 229.1 0zM901 1635.67v-110.89H540.18c-1.54 36.6-3.07 73.2-4.66 110.89zm-664-116c-5.25 39.42-10.34 77.62-15.48 116.22a47.49 47.49 0 0 0 4.89.59q145.68-.49 291.38-.92c6 0 6.83-3 7.1-7.78 1-17.09 2.65-34.15 3.2-51.24.57-17.28.13-34.59.13-52.63zm792-728.28c1.41 53.39 2.78 105.14 4.15 157.06l196.75 11V798.94zM534.44 943.62V839.33c-14.62 0-29.23-.87-43.66.36-7.33.63-11.73-1.16-13.93-7.31-5.61-15.75-10.92-31.63-15.78-47.63-1.46-4.79-3-7-8.43-6.65q-55.42 3.49-110.87 6.44c-5.4.28-6.91 2.07-6.89 7.61.19 47.7 0 95.4-.06 143.09v20.52zm662.12 582.77c-.4 1.83-.86 2.67-.71 3.39 7.22 34.84 14.43 69.68 22 104.44.38 1.76 3.67 4 5.73 4.11 11.19.76 22.41 1.05 33.62 1.28 40.67.83 81.35 1.41 122 2.41 19.33.48 38.64 1.82 58 2.55 8.21.31 16.45 0 25.94 0-1.72-4-2.85-6.8-4.08-9.53-15.4-34.27-31-68.47-46.08-102.86-2.27-5.17-4.78-7.14-10.5-7-26.36.61-52.73.9-79.1 1-39.29.17-78.57.11-117.86.15zM787.43 835.17a27.11 27.11 0 0 0-4.65-.68Q667.37 836.08 552 837.7c-5.82.07-7.61 2.31-7.55 8.1.3 30.34.2 60.68.29 91 0 2.14.45 4.29.76 7.06h9.59c27.81-.51 55.61-1.35 83.41-1.47 45.51-.21 91 0 136.53.12 10.82 0 10.76.06 11.13-11.11.36-10.67 1.15-21.32 1.25-32 .16-21.26.02-42.55.02-64.23zM983.16 505c1.24 17.32 2.49 32.94 3.45 48.58 1.4 23 2.63 45.92 3.86 68.88.34 6.24 1.73 9.91 9.69 10 20.74.27 41.47 1.71 62.19 2.86 25.76 1.44 51.5 3.12 77.26 4.56 16.12.9 32.26 1.54 47.55 2.25 1.06-1.31 1.38-1.53 1.39-1.74.11-34.25.29-68.49 0-102.73 0-1.89-3.26-5-5.43-5.42-9.86-2.1-19.84-3.66-29.83-5.06q-64.93-9.09-129.91-17.92c-12.92-1.69-25.97-2.73-40.22-4.26zM729.75 388.75h-6.55c-53.09 1-98.58 21.65-136.44 57.35-71.85 67.76-103.39 153.68-107.34 250.81a378.68 378.68 0 0 0 1.83 54.61c2.09 20 6.23 39.78 9.87 59.58.33 1.79 3.58 4.43 5.36 4.35 17-.78 33.92-2.06 51.65-3.25-9-26.83-12-53.38-13.58-80.35-2.6-42.78-1.52-85.21 8.25-127.05 10.66-45.67 32.76-85.83 61.9-122.08 22.47-27.94 48.66-52.09 79.93-70.1 14.43-8.31 29.45-15.62 45.12-23.87zm-102.17-70.09c-3.76 0-6.31-.34-8.75 0-48.44 7.63-96.85 15.42-145.3 23-5.68.88-8 2.74-8 9-.24 42.92-.92 85.84-1.45 128.76v9.78c18.29-2.35 35.5-4.4 52.64-6.94 2.34-.35 4.86-2.8 6.37-4.93 26.62-37.71 59-68.9 100.36-90.26 1.83-.95 3.93-3.6 4-5.49.23-20.73.13-41.45.13-62.92zM365.26 637.71a15.65 15.65 0 0 0 3.13.48c28.5-2.6 57-5.37 85.51-7.74 4.7-.39 6.05-2.46 7-6.52 3.21-13.93 6.78-27.78 10.15-41.68 1.65-6.79 4.25-13.57 4.5-20.42.67-18.52.34-37.07.32-55.61a45.29 45.29 0 0 0-.94-6.47 23.84 23.84 0 0 0-4 0c-33.58 6.56-67.14 13.21-100.73 19.73-4.85.94-5.06 4-5 8.06.13 23.3.06 46.6.06 69.9zm271.92-257.26c37.77-16.2 75.13-22 113.82-19.77 39.54 2.32 72 22.32 104.85 42.06v-86.51c-33.91-5.44-197.47-4.88-218.67 1.82zm781.68 1144.42c1.34 4.13 1.84 6.54 2.86 8.7 15.51 33 31.59 65.71 46.39 99 4.83 10.85 10.7 15.41 22.62 14.29 11.56-1.09 23.29-.24 36.1-.24-1.84-5.6-3.74-11.32-5.6-17.06-10.64-32.76-21.18-65.55-32.07-98.22-.85-2.56-4-6.14-6.22-6.19-20.71-.47-41.44-.28-64.08-.28zM1139 68.91c-13 2.09-27.5 4.26-42 6.8-18.66 3.27-18.63 3.4-19.71 22.08-.1 1.68-.51 3.35-.5 5 .07 21.29.25 42.59.27 63.88 0 4.48 1.77 6.19 6.32 6.88 10.51 1.59 20.89 4 31.34 6 7.78 1.49 15.58 2.87 21.64 4 1-6.81 2.47-12.14 2.51-17.49.22-32.15.13-64.3.13-97.15zm126.11 589.38c0 3.5-.15 5.68 0 7.84 2.18 27.9 4.47 55.79 6.58 83.7.8 10.61.86 21.29 2 31.85.36 3.21 3.08 8.55 5.2 8.79 15.18 1.76 30.48 2.45 46.69 3.55-2.36-16.36-4.68-31.21-6.61-46.12-3.57-27.46-6.85-55-10.53-82.41-.25-1.83-2.77-4.65-4.43-4.79-12.48-1.09-25.01-1.62-38.92-2.41zM251.46 784c10.16-1 19-2.06 27.92-2.6 5.34-.33 7-2.88 7.52-7.89 2.55-24.57 5.46-49.1 8.14-73.66 1.48-13.56 2.74-27.15 4.19-41.66-8.8 1.5-16.43 3.24-24.16 4-8 .78-11.62 4.06-11.68 12.52-.08 8.94-1.64 17.88-2.64 26.8-3.02 26.98-6.08 54-9.29 82.49zM385 203.27l45.86-12.22c-2-14.6-4-28.61-5.66-40.86L385 137.58zm548.79 297.18c22.07 41.55 36.5 84.22 47.21 128.32.07-12.2-.65-24.2-1.32-36.21-1.51-27.41-2.88-54.84-4.7-82.23-.15-2.32-3-6.08-5.07-6.36-11.29-1.59-22.74-2.32-36.12-3.52zM847.71 40.77c-7.28 3.95-12.17 7.26-17.54 9.34-5.67 2.21-7.43 5.48-6.91 11.46 2.12 24.56 3.81 49.15 5.7 73.73.4 5.2 1 10.38 1.48 15.61h17.27zm-363.5 456.76v44.55l1.51.06 25.52-48z" fill="#c6919a" data-color="1"/>
    </g>
</svg>
