<?xml version="1.0" encoding="UTF-8"?>
<svg data-bbox="0.049 -0.04 2084.271 2011.24" viewBox="0 0 2084.33 2011.23" xmlns="http://www.w3.org/2000/svg" data-type="color">
    <g>
        <path d="M905.63 902.87 914 907c10.41-16 19.83-31.6 30.45-46.35 8.54-11.87 14.47-13.08 28-7.77a280 280 0 0 1 26.82 12.18c8.78 4.57 14.86 11.46 16.79 21.82.56 3 3.48 6.56 6.27 7.94 9.95 4.9 20.28 9 30.49 13.35 12.69 5.39 16.24 11.16 14.24 24.36-17.29 114.63-19.48 230-17.66 345.63.26 16.47 2.77 32.91 3.33 49.39.26 7.71 3.35 9.71 10.45 11.12 59.75 11.79 120 21.7 179 36.73 158.59 40.43 297.73 119.56 425.8 219.74 79.61 62.27 148 135.2 205.91 217.82 13.39 19.09 23.65 40.37 36.39 62.43-11-.51-20.39-.28-29.6-1.46-148.5-19-297.73-27.71-447.27-32.29-175.61-5.38-351.22-5.28-526.6 5-116.28 6.84-232.43 16.68-348.41 27.65a2081.73 2081.73 0 0 0-340.75 61 1162.44 1162.44 0 0 0-188.49 68.57c-5.41 2.5-10.91 4.81-16.68 7.34-12.67-27.29-14.59-55.37-10.5-84.06 19.67-138.33 84.52-252.46 186.24-346.72 47.4-43.92 98-83.65 154.41-115.5a13.91 13.91 0 0 0 2.17-1.63c-8.12-26.62-17.05-52.36-23.81-78.67q-33.06-128.6-64.49-257.6c-4.6-19-6-38.69-15-56.64-3.6-7.14 0-14.19 7.07-17.61 22.28-10.74 44.62-21.42 67.36-31.15 11.76-5 23.27-.81 31.52 11.06 8.84 12.72 16.42 26.32 25.16 40.52l24.74-13.63c-7.83-17-15.44-33.27-22.86-49.64-9-19.82-7.18-26 12.9-34.9 22.3-9.93 45-18.93 67.83-27.66 14.21-5.44 25.23-2 32.45 11.35 7.44 13.71 12.86 28.51 19.68 44 5.09-1 11-4.24 11.74-13.45a47.9 47.9 0 0 1 2.15-10.23c5.44-17.39 5.74-34.44.15-52.16-5-15.71-2-19.25 13-26.39 2.89-1.37 5.23-5.91 6-9.4 12-52.26 23.38-104.67 35.63-156.88 24.87-106 49.57-212 75.5-317.65 22.91-93.35 46.31-186.62 77.35-277.73.92-2.7 1.65-5.49 2.8-8.09 5.49-12.51 8.13-22.17-5.74-33.77-17.67-14.78-17.85-46.16-5-67.12 13.76-22.5 36-33.67 57.24-28.74 22.26 5.16 38.19 29.54 37.3 56.68-.55 16.71-6.28 31.54-17.24 46.68 8.66-1.17 15.59-2 22.48-3.05 57.4-8.84 114.76-17.94 172.2-26.46a366.17 366.17 0 0 1 48.32-4.33c28.76-.4 44.36 15.47 41.58 44.18-2.06 21.35-8 42.32-12 63.5-5.39 28.68-11.23 57.31-15.64 86.15-3.34 21.84.33 24.28 21.39 17.64 63.52-20 126.84-40.74 190.64-59.82 41.39-12.38 83.94-20 127-23.95 4.42-.4 8.87-.75 13.31-.71 18 .16 27.64 13.39 19.81 29.49-8.27 17-18.7 33.08-28.71 49.23-14.7 23.7-29.85 47.11-45.42 71.6 18.78 9 37.78 13.45 57 13.07 36.14-.73 72.31-2.74 108.36-5.6 87.35-6.95 174.64-14.6 262-22.16 68.63-5.94 137.31-11.6 205.84-18.53 31-3.14 61.38-1.91 91.57 5.43 1.17.29 2.26.88 6.36 2.52-22.48 10.38-42.39 20.49-63 28.94-168.29 69.09-333 145.83-494.8 229-48.5 24.92-97.87 48.16-147.36 71.08-15.39 7.12-32.24 11.59-48.83 15.53-21 5-33.3-4.07-33.78-25.45-.86-37.76-.22-75.54-.21-113.32v-12.3c-3.94 1.85-6.86 3.21-9.77 4.59-89 42-179.21 80.93-275.33 104a255.91 255.91 0 0 1-40.45 5.86c-22 1.67-37.1-13.5-32.4-34.82 5-22.49 13.55-44.18 20.38-66.27 9.65-31.22 19.28-62.44 28.59-93.76 2.24-7.52 3.21-15.43 5-24.56-7.92 0-14.88-1.14-21.35.18-69.63 14.26-139.42 28.34-204.79 57.44-20.77 9.25-40.16 21.67-59.87 33.16-2.89 1.69-5.48 6.21-5.82 9.65q-15.45 154-30.32 308c-.58 6-.68 12-1 18.44 14.46-4.49 28.06-9.46 42-12.88 18.47-4.51 37.12-8.67 55.92-11.35 17.36-2.47 25.51 3.75 29.8 20.71 2.54 10.06 3.77 20.47 5.62 30.88 10.38-.27 17.46-4.65 20.48-16.89 2.55-10.3 8.18-19.89 12.82-29.62s10.93-13.65 21.58-10.88c19 4.94 38 10.28 56.35 17.11 16.71 6.23 21.41 18.91 13.91 35.43-6.33 14.13-14.25 27.52-22.06 42.3zm108.45 57.29 20.42 12.07c3.07-13.94 5.9-25.88 8.14-37.93.39-2-1.11-5.83-2.78-6.64-9.26-4.46-18.83-8.24-29.09-12.59-1.15 3.88-2.12 7.13-3.09 10.38-4.43 8.08-8.87 16.15-13.73 25zm-125-85.83 13.57-24.56c-12.54-4.24-23.46-8.15-34.51-11.61-15.23-4.77-15.29-4.62-21.06 11.29l-10.3 18.79 45 22.49c2.69-6.12 4.99-11.26 7.29-16.4zm79.58 61.26 6.65 4.34c2.11-8.1 3.66-15.16 5.81-22s5.31-13.57 7.2-20.56c.88-3.23 1.12-9-.64-10.16-9.12-6-19-10.93-28.56-16.23q-8.43 10.68-16.86 21.35c-.17.22-.11.61-.16.93-3.36 6.27-7 12.4-9.83 18.92-.62 1.46 1.3 5.32 3 6.27 10.99 5.98 22.23 11.48 33.38 17.14zm-224.07-896c-10.05 13.34-7 27.29-2.45 41.62 2 6.4 5.15 10.54 11.83 11.66 11.22 7.26 20 6.34 28.36-3.38 9.57-11.12 13.1-24.29 12-38.72-1-13-6.7-24-19.6-27.44-13.36-3.57-22.63 4.92-29.91 15.35a2.83 2.83 0 0 0-.24.93zM319.14 1053.44c-15.32 6.68-30.73 13.17-45.87 20.24-2.19 1-4.78 5.23-4.3 7.29 3.58 15.34 7.89 30.5 12 45.71 1.47 5.5 5.23 6.55 9.28 3.54 13.62-10.13 26.92-20.68 40.35-31.07 3.52-2.07 7.52-3.66 10.38-6.42 1.6-1.53 2.59-5.68 1.65-7.53-4.9-9.59-10.28-19-16.07-28.06-1.3-1.99-4.89-2.51-7.42-3.7zm1587.25-699.5h-.09c-3.16 0-6.34-.14-9.49.09q-66.32 4.95-132.62 10c-19.24 1.49-38.46 3.32-57.69 5-7.92.17-15.87 0-23.76.57-48.94 3.58-97.85 7.47-146.8 11-25.58 1.84-51.2 3.18-76.81 4.62-40.5 2.27-80.34.69-117.85-21.22l-16.74 26.05c-3.09 5-6.34 9.83-9.2 14.91-2.06 3.65-3.74 5.22-6 .31 1.82-10.87 2.84-21.95 5.6-32.58 10.28-39.68 32.56-73.36 54.6-107.1l23.47-36c-7.74.65-13 .89-18.19 1.56-52 6.63-102.82 18.91-153 33.82-40.94 12.17-81.35 26.17-122 39.35-4.21 1.28-8.37 2.73-12.63 3.81-7.63 1.92-15.23 4.26-23 5.27-21.36 2.78-37.51-11.52-37.76-34.64-.15-14.71 2.23-29.44 3.48-44.16a39.59 39.59 0 0 0 1.89-5.24q8.69-40.37 17.25-80.74c2.56-12.06 5.82-24 7.28-36.24 1.57-13.1-2.7-17.45-16-17.37a306.51 306.51 0 0 0-36 2.18q-110.64 13.86-221.21 28.25c-24.8 3.19-24.81 3.25-29.28 27.6a15.85 15.85 0 0 0 0 2.84c-8.86 47.16-18.44 94.2-26.32 141.52-5.34 32-8.29 64.48-12.31 96.74-3.85 29.17-7.7 58.34-11.41 86.39 22-12 42.76-24.81 64.75-35.05 42.43-19.76 87.88-30.68 133.11-41.84 25.19-6.21 50.53-12.26 76.13-16.31 26.47-4.18 44.21 9.06 37.3 37.51C1006 462.7 994.77 500 983.7 537.32c-5.76 19.43-13.4 38.29-19.64 57.58-2.81 8.68-.1 11.47 8.69 10.09 12.19-1.91 24.44-3.65 36.47-6.33 58.15-13 112.67-36.37 167.48-58.9 39.89-16.4 79.87-32.59 122.65-40 7-1.21 14.29-.17 21-.17-2.16 5-5 8.52-5 12.14-.64 22.77-.84 45.56-.86 68.35 0 19.32-.05 38.67.86 58 .5 10.59 3 12.31 13.17 8.54 19-7 38.24-13.91 56.13-23.25 61-31.85 121.14-65.3 182.18-97q73-37.95 147.32-73.26c57.8-27.55 116.18-53.88 174.37-80.61 15.1-6.94 30.41-13.43 45.63-20.13l-.5-1.52-15.83 1.73zm-1275 393.9 18.08 6.58c.41-2.42.84-4.18 1-6 2.43-25.5 4.79-51 7.26-76.51 2.3-23.75 4.72-47.49 7-71.24 1.09-11.08 2.11-22.17 3.16-33.25a17.6 17.6 0 0 0 1.2-3.54q11.7-97.57 23.24-195.18c1.05-8.93 1.15-18 1.7-27-4.15 8.78-6.37 17.8-8.48 26.84q-11.79 50.9-23.55 101.74a19.48 19.48 0 0 0-1.51 3.42q-27.67 119.79-55.19 239.59c-3 13.27-5.73 26.62-8.28 38.58zm-43.51 492.22c15.46 8.51 28.06 19.79 34.4 37.17 2-51.8 3.11-102.77 4-153.75 0-2.25-1.9-5.68-3.86-6.62-8.8-4.22-17.94-7.73-27-11.5l-34.31 1.64c-11.53 5-23.4 9.3-34.48 15.12-9.32 4.89-14.42 13.26-16.51 24.13-6.18 32-13.19 63.92-19.85 95.87-1.22 5.87-2.37 11.76-4 20 21.59-17.62 44.12-26 69.08-28zm5.67 118.94c1.24-.24 2.5-.41 3.73-.71 26.11-6.33 26.19-6.33 26.14-33 0-8.78.35-17.73-1.14-26.31-2.88-16.61-15.1-26.3-28.44-34.73-16.72-13.16-35.2-17.55-55.84-11.3-21.62 1.9-38.71 12.91-53.95 27.29-2.32 2.19-3.71 5.93-4.41 9.2q-10.86 51-21.27 102.11c-1 5-1.55 10.14-2.47 16.31l73.1-28.4zm287.75-195.14c-2.57 29.23-6.37 58.42-7.34 87.71-.78 23.81 1.82 47.74 3 72.82h25.16c8.18.5 16.35 1 24.53 1.48 7.35.42 10.18-3.27 10.06-10.41-.83-48.83-.63-97.71-2.62-146.49-1-24.86-5.36-49.65-9.33-74.28-1.55-9.62-6.21-18.74-9.45-28.09l-3.88.09c-18.08 29.73-25 63.15-30.13 97.17zm-286.14-74.08 31.8 11.13a38.16 38.16 0 0 0 .73-4q9.77-155.81 19.51-311.61c1.06-16.93-8.42-25.83-25.4-23.72-18.8.63-28.73 8.22-32.8 25.42-2.75 11.68-5.29 23.41-7.88 35.13Q550.47 961 519.85 1099.86c-.57 2.59-.4 5.35-.57 8.11l45.72-17.48zm-186 339.42a16 16 0 0 0 3.51-1.42c6.2-4.46 15.3-4 17.53-14.9 21.49-105.51 43.59-210.89 65.54-316.3 4-19.12 8.08-38.21 12.44-58.76-4.32 1.94-7.19 3.12-10 4.49-21.28 10.56-42.8 20.65-63.73 31.84-32.39 17.31-64.37 35.37-96.52 53.11-12.84 7.49-25.86 14.69-38.35 22.72-2.11 1.36-3.25 6.5-2.64 9.44 2.82 13.62 6.57 27 9.72 40.6q20.61 88.74 41 177.52c5.62 24.58 10.67 49.28 16.27 75.29zm411.7-520.82c-.46 9.5-.9 19-1.37 28.5-2.8 57-6.54 114-8.17 171-1.91 66.59-2 133.23-2.84 199.86-.07 5.26 0 10.52 0 15.71H859c-.29-4.12-.38-7.26-.73-10.37-5.52-48.46-5.35-96.83 2-145.13 5.07-33.31 11.58-66.24 26-97a66.21 66.21 0 0 1 11.46-17.29c10.75-11.39 24.73-10.73 32.88 2.45a114.52 114.52 0 0 1 13.08 31.34c11.57 44.9 12.13 91 13.38 137 .93 34.1 1.88 68.38-7.65 102.6l50 4 20.42 2.49c.48-2 .92-2.85.87-3.72q-.5-9.49-1.17-19c-7.22-99.69-2.57-199 10.69-297.91 1-7.56-.73-10.29-6.76-13.72Q923.1 942.1 823 884.55c-.65-.37-1.7 0-2.13 0zm765.39 766c6.85.94 13.68 2.19 20.56 2.72 6.26.48 9-2.6 6.52-8.82s-4.25-12.88-8-18.24c-22-31.8-44.43-63.29-66.81-94.81a17.62 17.62 0 0 0-5.06-4.27c-79.12-50-161.77-92.51-251.38-120.83a1317.77 1317.77 0 0 0-203.65-47.24c-38.21-5.68-76.81-8.82-115.23-13.11l-57.2-3.67c-14.24-.63-28.54-2.41-42.7-1.66-48.66 2.55-97.49 4.16-145.84 9.71-33.46 3.84-66.25 13.57-99.34 20.67a28.67 28.67 0 0 0-3.72.49 1135.2 1135.2 0 0 0-204 77.72c-77.35 38.34-146.6 87.87-209.22 147a590.88 590.88 0 0 0-88.75 106.34c-10.3 15.73-19.22 32.35-28.76 48.57l2.38 2.14c75-37.15 143.07-86 215-128.18 72.32-42.42 143.34-87.05 217.08-132 0 8.91.24 15.33 0 21.72-.89 20.47-2 40.93-3 61.4.67 8.83 0 18 2.3 26.41 5 17.9 10.56 35.78 17.81 52.86 4.77 11.23 12.19 13.75 22.5 7.93 12.83-7.25 25.56-15.65 36.09-25.87 57.3-55.61 107-117.66 152.89-182.89 2-2.8 4.14-5.77 6.91-7.62 7.57-5.07 10.68-4 12.52 4.93a190.14 190.14 0 0 1 3.94 27.25c3.34 55.35 19.92 106.36 50.28 152.68 13.39 20.42 27.81 40.15 48.78 53.94 12.69 8.35 21.61 7.4 29.41-5.68 6.28-10.54 10.91-22.07 16.28-33.16 7.94-29 17.05-57.78 23.5-87.13 6-27.2 8.88-55.08 13.75-82.54.85-4.8 4.77-9 8.55-15.85 9.63 11.57 16.94 20.64 24.55 29.45 59 68.24 127.3 125.53 203.91 172.89 12.55 7.76 26.57 13.42 40.42 18.69 8.89 3.39 11.67.74 11.91-8.66a76.93 76.93 0 0 0-1.2-17 581.32 581.32 0 0 0-42.42-130c-6.63-14.25-13-28.62-20.37-44.92 9.14 0 17-2.08 23 .35 32.87 13.31 66 26.41 97.76 42 77.18 37.9 153.84 76.86 234.12 108 17.68 6.82 35.92 12.2 53.9 18.26zM525 1704.64c-5.53-8.76-12.2-17-16.39-26.36a178.64 178.64 0 0 1-15.92-76.43c.36-20.78 2.64-41.52 4.07-62.28.09-.67.17-1.34.26-2l-1.38.91a39.91 39.91 0 0 0-5.79 3.07q-28.8 21.84-57.48 43.82c-95.14 73.15-193.56 141.44-298.44 200-17.84 10-37.23 17.52-56.58 24.22-7.7 2.67-12.2 5.55-15.16 12.94-16.82 42-28.31 85.41-36.06 129.88-.87 5-.72 10.17-1.12 16.47 3.33-1.29 4.81-1.73 6.17-2.41 54.56-27.45 111.37-48.87 170.12-65.6 86.16-24.54 173.75-41.94 262.31-54.79 26.31-3.82 52.65-7.37 79-11 29-3 57.93-6.54 87-8.92q117.48-9.6 235-18.29c38.54-2.8 77.18-4.28 115.78-6.36 24.1-.79 48.19-2.13 72.3-2.28 100.32-.63 200.66-2 301-.93 77.74.84 155.49 4.22 233.18 7.73 53.24 2.41 106.38 7 159.57 10.57l110.65 12c-3.93-5-6.3-8.6-9.28-11.62-25.8-26.21-51.1-53-77.73-78.3-47.35-45.06-96.5-88.11-149-127.14-4.48-3.33-9.6-5.8-14.42-8.67-.89 3.14-.43 4.25.18 5.27 9.08 15.15 19.62 29.64 26.94 45.6 10.42 22.73 6.84 32.66-12.5 47.1-17.54 3.81-34.61 1.13-51.44-4-7.58-2.29-15.08-4.85-22.5-7.59-90-33.26-175-77-259.23-122.44-27-14.57-54.59-28-81.91-42l-2-.39c.25.59.49 1.19.74 1.79a26.76 26.76 0 0 0 1.06 4.6c13.38 31.85 27 63.62 40.18 95.52a330.65 330.65 0 0 1 11.66 32.19c4.8 16.14 9 32.51 5.3 49.62-3.59 16.41-15.62 25.62-32 22.2a148.9 148.9 0 0 1-36.71-12.5c-46.12-23.45-87-54.77-125.83-88.53-40.76-35.39-80.63-71.78-111.16-117-.15-.22-1 .06-1.87.13 0 4.12.1 8.25 0 12.37-.84 28.55-1.06 57.14-2.78 85.64-2.14 35.25-12.18 68.55-27.92 100.14-3 4-5.9 8.17-9.09 12.07-15 18.32-33.74 22-54.06 9.91a100.28 100.28 0 0 1-19.68-14.83c-49.71-49.78-77.36-110.62-88.16-179.49-2.57-16.37-3.11-33.06-4.72-51.14-2 2.81-3.35 4.41-4.41 6.18-11.73 19.57-23.31 39.25-35.15 58.75-28.41 46.78-59.68 91.43-100.75 128.14a225.42 225.42 0 0 1-38.49 27.48c-15.16 8.59-31.07 9.01-45.36-3.02zm274.81-813.33c-13.47 7.93-24.26 15.13-35.77 20.89-32.34 16.2-65 31.66-97.38 47.88-3.12 1.57-5.46 6.15-6.6 9.82-1.39 4.44-1.31 9.39-1.52 14.13-2.58 59.6-5.77 119.18-7.45 178.81-1.61 57.42-1.65 114.9-2.37 172.35v8.61l135.41-19.86c0-70.81-.54-142.8.15-214.78s5.21-143.76 15.53-217.85zM412.57 1051.5l72.37-37.36c-6.27-13-12.23-24.76-17.64-36.78-2.35-5.21-5.08-6.22-10.3-4.13-19.11 7.65-38.28 15.18-57.6 22.28-6.18 2.27-6.54 5.23-4.32 10.7 5.92 14.64 11.43 29.48 17.49 45.29zm283.88-142.28 79.75-35.07c-2.41-8.68-5.11-16.49-6.62-24.52-1-5.43-3.45-7.12-8.37-5.94-22.49 5.38-45 10.71-67.39 16.51-2.07.54-5 4.49-4.68 6.46 1.99 14.02 4.71 27.94 7.31 42.56zm-28.29-27.66-2.72.57c-1 14.31-2 28.62-3.1 44.58l18.5-9.29c-4.44-12.54-8.56-24.2-12.68-35.86z" fill="#c6919a" data-color="1"/>
    </g>
</svg>
