<?xml version="1.0" encoding="UTF-8"?>
<svg data-bbox="-0.001 0 957.931 1936.188" viewBox="0 0 957.93 1936.16" xmlns="http://www.w3.org/2000/svg" data-type="color">
    <g>
        <path d="M96.39 1249.79c-7.83-19.81-9.2-43.54-7.11-67.24 1.73-19.69 6-39.16 9.06-58.73a10.26 10.26 0 0 0 .35-3.73c-7.55-30.83-3.74-62.13-3.89-93.27-.06-11-.06-22.09-.09-33.69-3.18-.25-5.68-.49-8.19-.63-39.24-2.24-61.81-19.67-73.63-57.19C4 907 1.22 877.72.42 848.26c-1.1-40.52-.43-81 6.71-121.06.55-3.05 1.28-6.06 2.09-9.05 9.45-34.85 29.56-51.83 65.77-51.6 38.89.26 77.8 2.37 116.64 4.79A84.47 84.47 0 0 1 238.87 689c4.11 3.2 8.63 5.9 13.56 9.22 3.72-1 9.14-3.14 14.75-3.9 53.77-7.37 107.7-12.09 162-7.9 23.83 1.84 46.94 6.69 65.36 17.37 8.25-3.25 14.21-6.9 20.57-7.89 61.63-9.63 123.49-14.57 185.75-6.63 7.15.91 14.51 1.81 21.2 4.27C734.17 698 746 698 758.28 695c9.46-2.36 19.18-3.63 28.77-5.38-5.67-37.87-3.62-75.52-3.94-113.06-.33-37.39.1-74.78.2-112-22.56-4.22-44.38-9-66.42-12.26-32.54-4.88-62 2.49-87.17 24.6-4.84 4.25-10.14 8-15.22 11.95-28.13 21.95-60 28.66-94.16 20.1-18.39-4.59-36.11-12.1-53.73-19.27-4-1.64-7.44-6.84-9.37-11.19-25.78-58-23.58-119.22-19.71-180.39 1.92-30.33 6.4-60.5 9.54-90.77a23.5 23.5 0 0 0-1.1-9.56c-2.85-8.56 1.73-15.91 10.73-14.73 14.52 1.92 29.15 4.13 43.19 8.14 17.33 4.95 34 12.27 51.14 17.8a340.74 340.74 0 0 0 38.84 10.2c19.51 3.81 37.35-1.11 53.3-12.93 3.73-2.76 7.67-5.29 11.19-8.3 26.13-22.33 56.1-28.13 89.15-21l26 5.56c-2.86-4.34-4.68-7.21-6.61-10-8.47-12.25-10.18-24.6-4.87-39.25 11.93-33 22.19-66.54 33.46-99.75A284.6 284.6 0 0 1 803.3 5c1.08-2.34 4.43-5 6.74-5 2 0 4.91 3.22 5.8 5.62a124.41 124.41 0 0 1 5.34 19C827 53.41 832.63 82.26 838 111.16c2.6 13.84 5.76 27.84 6.17 41.84.26 8.89-4.06 17.9-6.28 26.87-.73 2.94-1.95 5.93-1.91 8.88.79 53.9 2 107.79 2.61 161.69q1.83 155.16 3.15 310.3c.07 7.17-.52 14.35-.82 22.1 15.64.13 31.12 1.27 46.44.17 28.51-2 52.2 11.42 60.29 39 5.16 17.61 7.82 36.35 8.77 54.72 2.38 46.17 2.64 92.42-4.42 138.27a183.31 183.31 0 0 1-11.3 40.85c-10.5 25.81-30 42.25-57.43 48.23-6.87 1.5-9 4.44-9.53 11.12-2 25.19-3.28 50.58-7.68 75.39-2.51 14.11 1.08 27.21.68 40.77-.93 31.69 0 63.57-3.38 95-1.76 16.6-1.35 32.66-.78 49.05 1.08 31.68 2.55 63.4 2 95.08-.26 14.17-5.14 28.25-7.84 42.39a18 18 0 0 0-.41 6.55c1.17 6.1 4.08 12.15 3.95 18.17q-1.32 61.88-3.79 123.73a87.91 87.91 0 0 1-4.17 23.41c-4 12.31-2.17 24.64-1.06 36.77 4.31 47.19 3.14 94.32.31 141.49-.86 14.42-1.77 28.85-2 43.29-.1 6.62 1.16 13.31 2.26 19.89 3.5 20.85 7.54 41.61 10.59 62.52.73 5-.67 10.82-2.8 15.49-1.42 3.14-5.49 6-9 7.13-34.23 10.81-69.81 13.81-105.28 16.52-139.9 10.67-280 10.34-420 3.36-53.29-2.65-106.53-7.09-159.65-12.16-20.68-2-41-7.93-61.46-12-7.76-1.56-12.21-5.94-13-14.08-2.69-26.79-6.79-53.52-8-80.38-1.22-27 .08-54.16.81-81.24 1.24-46.15 3.22-92.29 4.16-138.45.24-11.74-3.14-23.52-3.31-35.3-.53-34.81-1-69.65-.19-104.45 1.25-54 3.54-108 5.45-162a216 216 0 0 1 1.46-21.61c.83-5.88 2.75-11.53 4.78-19.74zm311 469.23h.1q-1 2.13-2 4.27l-1 1.37a10.08 10.08 0 0 0-2.94.88c-13.77 9.47-27 9.43-40.16-1.47-4.43-3.66-7.3.55-7.16 4.17.62 16.06 1.95 32.09 3 48.12a1.15 1.15 0 0 1 .09 1.08c.13 2.24.27 4.48.4 6.71.36 1.36.73 2.71 1.09 4.06-.31.81-.62 1.62-.94 2.43.2.84.39 1.68.58 2.52-.13 1.29-.26 2.58-.4 3.87l.54 2.51c-.36 10.38-.89 20.75-1 31.14 0 4 .94 8.06 1.45 12.1l-.42 9.69c-.82 1.15-2.31 2.27-2.36 3.45q-.54 13.47-.5 27c0 1.18 1.59 2.35 2.44 3.53.12 1.55.23 3.1.34 4.65q-.36 4.08-.7 8.16l5-1.32 17.78.59c1.39 1 2.75 2.68 4.18 2.75 10.48.51 21 .76 31.47.93 8.87.15 10.08-1.43 9.12-10.21-.81-7.37-1.79-14.78-1.78-22.17.07-50.53 0-101.06.74-151.59.8-54.9 2.5-109.79 3.67-164.69.34-15.65.11-31.3.32-46.94 0-3.7-.72-7-4.93-5.25-9.7 3.92-18.72 9.06-23.66 19l-3.61 2.73-1.55 2a1.33 1.33 0 0 1-1 .39l-4 4.44q-4.11 5-8.21 10.07c-3.68.68-6.23 2.18-4.83 6.59l-8.37 14.72-2.26 5.53-1.83 3.57c-1 2.46-2.07 4.91-3.1 7.36l.08-.07q-.94 2.69-1.87 5.37v-.1l-1.83 5.4v-.17l-1.05 2.33a1.1 1.1 0 0 1 .11 1c-.16.19-.49.46-.45.54a7.48 7.48 0 0 0 .71 1l-.21 6.49c0 1.09 0 2.19-.07 3.29s.09 2.07.13 3.11l-1.3 4.07c.38.81.75 1.61 1.13 2.41l.73 1.35a1.31 1.31 0 0 1-.76.33c-.9 1.88-2.59 3.77-2.58 5.65q.23 38.79 1 77.56c0 1.92 1.47 3.81 2.26 5.72 2-.88 4.39-1.32 5.88-2.72 5.17-4.88 9.81-10.44 17.58-11.2l2.48-.37 2.35.7.51-.17.52.12 2.38.73.5-.16.51.12 2.26.79 9.15 5.12 6.94 13.25c.13 2.58.25 5.16.38 7.75-.34.63-.72 1.32-1.1 2zm505.15-793.58 3.11-.67-2.74-1.3c.74-4.3 1.56-8.59 2.21-12.9 6.75-45 6.82-90.34 5.7-135.66a201.56 201.56 0 0 0-5-39.68c-1.49-6.53-6.78-12.38-11.13-17.92-1.18-1.51-5.27-1.25-7.93-1-5.23.57-10.41 2.65-15.56 2.48-17.23-.57-34.42-2.52-51.64-2.7-19.41-.2-38.83 1-57.81 1.5.68 13.15 1.58 24.92 1.83 36.7.44 20.26.47 40.53.68 60.8-2.88 1.75-6.26 5.4-8.49 4.8-3-.8-6.31-4.56-7.19-7.7a216.42 216.42 0 0 1-6.17-29.19c-2-14.44-3-29-4.5-43.49.25-3.59.51-7.18.76-10.8-5.27-.2-9.11-.25-12.95-.52a114.9 114.9 0 0 1-12.3-1.26c-60.13-10.73-120.68-9.6-181.29-6.51-11.3.57-22.6 2.85-33.82 2.39-6.12-.25-7.16 1.46-7.39 6.29-.41 8.76-.44 17.57-1.46 26.26-1.61 13.8-3.81 27.52-6 41.24-.63 4-2.15 7.69-7.5 6.77-1.07-3.15-2.23-6.27-3.18-9.45-5.77-19.26-4.85-39-4.63-58.78.31-2.44.62-4.88.93-7.29a9.62 9.62 0 0 0-2.34-1.22c-61.54-10.25-123.45-11.79-185.59-7.86-10.69.67-21.39 1.13-32.08 1.7-1.83-2.33-3.25-5.37-5.63-6.72-1.43-.81-6.33 1.1-6.3 1.66.31 8.22 1.19 16.41 1.93 24.61l.18 2.89-.09 3.48c.11 1 .21 1.91.31 2.87-.25.83-.51 1.66-.77 2.49l.51 2.39c-1.91 2.59-3.83 5.18-5.94 8-.76-3.86-2-8-2.33-12.24-.64-8.43-.22-17-1.4-25.3-.53-3.65-3.12-8.74-6.12-10-12.93-5.53-26-11.67-39.68-14.26a663.64 663.64 0 0 0-71.51-9.26c-18.83-1.49-37.86-.72-56.79-.46-9.1.13-18.07 7.81-18.67 14.79l-1.89 3.36c-5.09 1.56-5.92 5-4.22 9.56a1.36 1.36 0 0 1 .16.95l-1.05 2.06h.12a30.91 30.91 0 0 0-4.33 25.59 2 2 0 0 1 .27 1c-1.31 5.12-3.41 10.19-3.72 15.37-.41 7 .57 14 1 21 .13 1 .26 1.92.4 2.87-.28.76-.56 1.52-.83 2.28l-.09 6-.4 14.8.45 2.81c-4.27 4.82-3.36 9.8-.46 14.84.1 1 .2 1.93.31 2.89-.06 1.16-.13 2.33-.19 3.49.11 1 .21 1.93.32 2.9-3.13 6-3.68 12 .51 17.8.27 1.42.54 2.85.82 4.27-.1 1.19-.21 2.39-.31 3.59l.36 2.84c-4.11 2.54-2.52 4.59.55 6.52.25 1.46.49 2.91.73 4.37-4 2.55-2.46 4.58.61 6.47.12 1 .25 1.92.37 2.89-4.49 4.87-1 8.56 1.84 12.34.24 1 .48 2 .73 3-.7 1.19-2.21 2.6-2 3.55 4 15.25 6.41 31.17 16.87 43.89 1.23 1.5 3.64 2 5.5 3q1.69 8 9.5 5.44v-.06l5.64 1.71a1.83 1.83 0 0 1 1.06-.11l2 1v-.11l7.14 1.3.47-.2.51-.06c3.72 4.09 7.69 5.19 12.1 1l4.55.27c2.37 4.4 5.2 4.77 8.52 1l2.7-.21 2.68 3.8 2.92-2.59 2.72-.17c2.84 4.68 13.82 7.81 18.33 5.13.35-.21.12-1.42.15-2.16l3.42.19 2.25 2.45.72-2.71 3.41.19c4.64 4.41 11.5 4.29 14.24-.24l3.24.46c.84.86 1.69 2.49 2.53 2.48q15.63-.13 31.26-.8c.46 0 .84-2 1.25-3l3.14-.22c1.41 1.06 2.85 3.08 4.21 3q21-.74 41.89-2.19c1.75-.12 3.35-2.24 5-3.44l2.61-.18 2.44 2.32.69-2.76 3.12-.33c2.89 6.87 8.34 1.51 12.48 2.34 1.89.37 4.34-2.06 6.53-3.21l3.37-.13c3.25 3.67 14.45 3.68 17.35 0 .11-.14 0-.49-.06-.74l3.13-.2 2 3.07 1.27-3.09 3.09-.23c3.15 4.09 13.81 4.11 18.1 0l2.65-.14c4.06 4.09 6.22 4 8.08-.33l3.1-.17 2.31 3c.32-1 .65-2 1-3l3.11-.16 2.3 3c.32-1 .65-2 1-3h3.36l1.83 2.74c.39-.95.77-1.9 1.16-2.84h3.39l1.83 2.73 1.17-2.82h3.38c.69 1 1.36 2.86 2.07 2.88 7.91.17 15.82.11 23.73-.11.45 0 .85-2 1.27-3l3.12-.16 1.95 3.09 1.31-3 3.13-.16 1.95 3.06c.43-1 .87-2 1.3-3h3.37l1.82 2.71 1.17-2.8 3.38-.07c3.93 4.28 13 4.14 15.78-.23h3.4l2.1 2.58 1.46-2.34 2.63-.15c1.83 1 3.65 2.86 5.48 2.86q30 0 59.89-.57c1.2 0 2.37-2 3.56-3l3.36.06c4.1 4.76 11.67 4.75 14.29 0l3.18.33c4 4.17 6.19 4.1 8.09-.24l3.13-.1a35.39 35.39 0 0 0 5.64 3.31c.37.15 1.65-2 2.51-3.11l3.11-.08 1.93 3.09c.44-1 .89-2 1.33-3h8l1.94 3.12c.44-1 .89-2 1.34-3l3.18.32c4 4.11 6.15 4.06 8.09-.2l3.37.08c3.48 4.37 5.9 4.38 7.9 0l3.38.09c4.16 4.68 10.52 4.77 12.79.18h3.1a36.32 36.32 0 0 0 5.63 3.35c.37.15 1.67-2 2.54-3.08l3.36.11c1.45 1.07 2.87 3 4.37 3.07q23.83 1.18 47.7 1.73c.91 0 1.88-1.95 2.82-3l4.82.29c1.73 1.2 3.39 3.31 5.21 3.46 10.22.87 20.49 1.37 30.75 1.71 1.24.05 2.53-1.56 3.79-2.41l7.72.29 4.07.49 2.68.13c3.73 4.55 9.08 5 13.36 1.14l4.71.33c3.14 4 13.94 5.52 17.69 2.49.24-.19 0-1 0-1.48l5.29.75a36 36 0 0 0 5.41 3.36c.34.14 1.64-2 2.49-3l4.81.31 4.08.42 2.74.15c3.22 3.89 14.08 5.4 17.71 2.39.23-.2 0-1 0-1.48l3.42.19c4.69 5.14 13.63 5.52 16.16.68l3.35.1c4.31 4.91 12.67 4.7 17.12-.44l1.73-.89 1.63.75c4.69 4.23 23.56-.56 25.24-6.43.06-.21-.12-.48-.19-.73l3-1.78 3.65 1.14 1.56-5.48c1.64-1.92 3.28-3.85 4.93-5.77l2.16 1.68c0-1.62-.05-3.24-.07-4.86l7.84-18 2.93.13-1.67-3.77zM482.83 213.72l-7.2-2.85c-6-3.92-8-3.2-8.9 3.46-.8 6.11-1.44 12.26-1.92 18.4-2.37 30.22-5.61 60.42-6.66 90.69-.8 23 .38 46.16 2.21 69.12 1.88 23.69 5.54 47.23 8.68 70.8.21 1.58 2.28 3.46 3.94 4.19 20 8.87 40.41 17 62.52 18.21 11.65.61 24.56 1.52 34.87-2.68 14.93-6.06 29.18-15.27 41.63-25.63 34.4-28.61 73-38.3 116.55-30.09 15.53 2.92 30.26 7.94 43.91 16.21 8.18 4.95 13.29 1.77 13.23-7.74-.2-29.23-.71-58.46-.81-87.69q-.25-69.67 0-139.35c0-5.05-1.79-7.1-6.13-8-11.57-2.33-23.06-5.65-34.75-6.68a178.58 178.58 0 0 0-36 .62c-16.43 1.93-28.17 13-39.87 23.55-21.84 19.7-46.48 32-76.82 28.62-24.47-2.71-47.29-11.25-70.06-20.09-10.18-4-20.78-6.84-31.2-10.2zm101.53 1625.47c-.55 5.18-1.57 10.37-1.56 15.56 0 13.33.23 26.67.94 40 .18 3.43-.09 9.41 6.93 6.77l.47-.19.49.08 1.54-.3 3-.89c1.44.7 2.86 2 4.32 2 5.64.19 11.3.18 16.93-.07 13.42-.6 13.4-.67 12.6-14.24-.09-1.53.25-3.09.18-4.63-1.51-33-2.18-66-4.88-99-2-25-7.35-49.62-10-74.54-4-37.34-9.1-74.4-20.74-110.24-2.6-8-6.15-15.72-9.58-23.42-.68-1.52-2.86-2.37-4.35-3.53-1 1.88-2.7 3.76-2.72 5.65-.27 41.06-1 82.14-.29 123.2.6 35.33 2.78 70.64 4.41 106 .46 10.21 1.42 20.39 2.15 30.59a4.16 4.16 0 0 1 .16 1.2zm-412 1.32 10.15 5.43c.1.68.19 1.35.28 2-7.85.87-15.69 2.09-23.57 2.54-13.49.76-27 1.07-40.51 1.52-2.89.09-5.79 0-8.68-.08q.8 5.88 1.61 11.76c.15.94.29 1.89.44 2.84-.12 1.17-.23 2.35-.35 3.52 0 2.59.09 5.19.13 7.78-1.77 3.76-1.8 3.94 3.81 5 49 9 98.59 11.35 148.17 14.12 6 .34 6.91-3.08 6.81-8.43-.86-44.18-1.71-88.4 2.86-132.45 2.65-25.53 4.84-51.21 9.53-76.39 7.23-38.78 15.51-77.42 25.21-115.65 4.38-17.23 11.88-34 20.42-49.72 12-22.08 30.93-38.14 52.32-51.27 29.78-18.26 62.06-29.61 96.94-28.39 60.78 2.14 109.26 27.88 141.88 80.54 2.19 3.53 4.07 4.84 8.66 2.87 11.32-4.84 22.08-1.06 32.63 2.68l-.09 2-34 2.84c3.35 9.4 6.37 17 8.78 24.77a581.1 581.1 0 0 1 22.52 111.58c.43 4 2.12 8 3.22 12 .32 1.5.65 3 1 4.49-.41 3.49-1.58 7.09-1.06 10.42.94 6 2.89 11.84 4.41 17.75.1 1 .21 2 .31 2.93-.27 4.76-1.17 9.59-.71 14.28 2.73 28 6.6 55.87 8.48 83.9 1.91 28.36 2.06 56.83 2.75 85.26.13 5.69 2.22 7.87 7.94 7.4 8.41-.68 16.91-.52 25.31-1.37q59.51-6 119-12.6c1.81-.2 4.83-2.66 4.83-4.06 0-9 2.39-18.42-4.21-26.33l-.15-1.54c5-7.51 1.64-15-.13-22.45-1.05-4.38-2.59-8.65-3.53-13-1.11-5.23-1.81-10.54-2.69-15.82a26 26 0 0 1-.37-3.82c1.4-27.55 3.3-55.08 4.17-82.65 1.3-40.71 1.87-81.45 2.74-122.18.22-10.3-.49-11-10.42-11.12h-7.74c-27.33 0-54.66.27-82-.11-3 0-7-3-8.5-5.72-.89-1.64 1.72-5.91 3.73-8.12 1.26-1.38 4.31-1.48 6.57-1.54 29.89-.84 59.78-1.65 89.68-2.21 4.5-.08 6.94-.25 7.13-6 1.14-34 2.9-68 4.13-102 .74-20.25-.64-40.69 1.61-60.75 5.33-47.69 5.07-95.13 0-143.39l-54 6.16.13.05-5.2-1c-12.08-.09-15.8-5.67-10.77-16.14 5.5-.88 11-2.48 16.5-2.5 17.58-.07 35.17.46 53.56.77 2.34-45.8 6.8-92.57 2.54-140.39l-43.89 3.19a31.82 31.82 0 0 0-4.88-.74c-5.35 0-9.65-1.54-10.66-7.46-1.08-6.32 2.5-9.34 8.17-10.6l52.08.31c2.2-15.06 4.41-30.23 6.63-45.4l3-1.54-2.56-1.41q.84-5.85 1.69-11.71l3.36-2.09-2.69-1.27 1.72-10.2c4.65-1.93 2-4 .15-6.15l-2.59 2.26-3.43.12-6.25-3.49c-.44 1.4-.87 2.8-1.3 4.2l-24.55-.81c0-1.25.09-3.56-.13-3.59-4.3-.65-8.63-1.14-13-1.46-31.66-2.34-63.31-4.78-95-6.88-15.83-1.05-31.7-1.55-47.56-2-1.44 0-2.95 1.84-4.42 2.83l-3.41-.23c-4.49-4.3-10.2-4.38-12.75-.18l-3.26-.48c-5-4.07-10.45-4-12.9.07l-3.25-.49c-5.09-4.1-10.52-4-12.91.13l-3.41-.22c-1.76-1-3.51-2.94-5.29-3q-36.48-.61-73-.64c-1.21 0-2.42 1.9-3.63 2.93l-3.41-.22c-4.27-4.24-16.7-4.56-21.31-.54l-2.59.32c-5.14-4.11-11.68-3.91-14.39.45l-3.41-.18c-4.59-4.42-11.47-4.32-14.24.21l-3.41-.19c-2-1-4-3-6.06-3q-43.23-.22-86.46.13c-1.21 0-2.41 1.88-3.61 2.89l-3.42-.22c-2.55-1.08-5.08-3.07-7.64-3.1-40.56-.43-81.11-.32-121.66-.92-32.84-.49-65.66-1.81-98.49-2.61-2 0-4.76.72-6 2.13-3 3.31-.12 34.68 3.07 38.21.13.88.25 1.76.38 2.64l-2.13 2.42 2.59.7c-.07 1.13-.13 2.26-.2 3.39-1 2.07-2.76 4.11-2.82 6.21q-.67 22.88-.65 45.78c0 2.65 1.53 5.3 2.35 8 0 .93.1 1.86.14 2.79-4.58 3.08-6.76 12.74-3.49 16.86 1.35 1.69 3.54 3.79 5.4 3.84 17.17.45 34.36.54 51.54.52 1 0 1.95-1.9 2.92-2.92l1.67-.84 1.71.8c3.47 4.38 5.92 4.4 7.87 0h3.4c3.43 4.42 5.88 4.46 7.87.11l8.28.29a10.24 10.24 0 0 0 14.86.91l3.21.45 2 2.84 1.63-2.25 13 2.18c-.38 4.28-2.21 6.14-7 6a179.08 179.08 0 0 0-21.44 1.22c-1.62.16-3.1 1.74-4.65 2.67l-2.76.09c-1.86-1.06-3.71-3-5.6-3q-38.43-.7-76.87-.81c-2.35 0-6.49 1.66-6.75 3.1-1.8 9.69-2.76 19.52-4 29.31h.09q-.6 6.75-1.19 13.51l.29 7.44-.86 2.4c.22.81.43 1.63.65 2.45l-.36 3.61.45 2.8c-.11 1.19-.22 2.38-.34 3.57l.48 2.8c-.77.92-2.25 1.86-2.21 2.74.52 12.54 1 25.09 2.17 37.58.16 1.73 3.54 4.34 5.58 4.49 6.37.47 12.84-.5 19.21-.08 9.92.65 19.79 2 29.69 3 0 .86-.09 1.73-.13 2.59-5.55 1.51-11 3.83-16.67 4.36-11.47 1.07-23 1-34.53 1.86-2 .15-5.4 2.51-5.52 4-.61 7.88-.37 15.83-.42 23.76q-.37 68.9-.79 137.79c-.07 9.48.49 10.22 10 11.52 9.93 1.36 19.85 2.85 29.7 4.72 2.76.52 5.22 2.58 9.6 4.87-3.88 1.61-5.24 2.65-6.62 2.68-12.28.22-24.57.59-36.84.18-4.59-.15-7 1-9 5.09-6.18 12.08-4.53 24.91-4.25 37.62 0 .9 1.53 1.77 2.34 2.65.28 1.43.56 2.86.83 4.29-.38 5.23-1.29 10.48-1.06 15.68 1.14 25.56 2.54 51.11 3.94 76.66.35 6.46 3 9.92 10.46 10.4 11.74.74 23.42 2.78 35 4.8 4.81.84 9.39 3 14.07 4.61-.13.8-.27 1.59-.4 2.39-18.41 6.11-37.07-.48-56.45-.18-.41 2.52-1.21 5.19-1.2 7.87 0 5.88.64 11.77.65 17.65.08 43.35 0 86.7.17 130 0 6.82 1.25 13.64 1.93 20.46.14.93.29 1.86.44 2.79l-.36 3.62c.15.93.29 1.87.43 2.81l-.57 8.42c.14 1 .29 1.9.43 2.85-.74.64-2.09 1.25-2.12 1.93-.57 9.91-1.11 19.83-1.22 29.75 0 1.38 2.49 4.1 3.54 4 7.75-1 15.42-2.54 23.11-3.92l2.84-.32 3.54.2 2.85-.32 2.37.81 2.63-.35zm144 52.34 1.16 2.75c.68 1.13 1.3 3.19 2 3.24 7.93.51 15.91 1.1 23.82.69 1.85-.1 4.69-3.73 5-6 .74-5.28.08-10.73.21-16.11.65-25.89 1.9-51.78 1.94-77.67.07-41-.77-82-1-123-.07-14.32.7-28.65.74-43 0-1.93-2-3.86-3.15-5.79-1.35 1.93-3.37 3.69-3.93 5.83-9.88 37.44-17.66 75.3-22.09 113.79-1 9.08-.8 18.3-1.15 27.46l.57 3c-.14.39-.28.79-.41 1.18-.09.71-.18 1.42-.26 2.12l-1.16 1.66c-.36 2.38-.73 4.77-1.09 7.15a2.37 2.37 0 0 1 .15 1.15l-1.38 12c.22.87.43 1.74.64 2.61-.31.76-.63 1.52-.95 2.28.22.88.43 1.76.64 2.63l-.91 2.25c.21.88.43 1.75.65 2.63l-.93 2.25c.24.87.47 1.74.71 2.61l-1 2.31c.26.84.52 1.68.77 2.52-.33.81-.67 1.62-1 2.43a2.08 2.08 0 0 1 .07 1.16v5.09c.24.88.49 1.75.73 2.63-.32.78-.65 1.57-1 2.36a2.22 2.22 0 0 1 .07 1.2v5.1c.27.87.53 1.74.8 2.62l-.63 3.57 1 4.38-.92 2.15c.25.89.49 1.79.74 2.69l-.93 2.32a2.57 2.57 0 0 1 .08 1.2c0 1.72 0 3.45.07 5.17a2.33 2.33 0 0 1 .08 1.2l.06 5.21a2 2 0 0 1 .08 1.15c-.14.21-.44.53-.39.6a7 7 0 0 0 .89.92c.27 1 .55 1.92.83 2.88l-.94 2.26c.29 1.41.58 2.83.88 4.24l-.72 2.18a2.41 2.41 0 0 1 .08 1.19c-.14.19-.44.47-.39.56a6.08 6.08 0 0 0 .83 1zM814.08 191.07c3.64 1.27 4.95.27 4.6-3.81-.4-4.72 0-9.51 0-14.27.37-.35.95-.64 1.09-1.06 3-9.21 6-18.41 8.82-27.66a5.27 5.27 0 0 0-.51-2.89q-9-25.81-18.07-51.6l-.93-3.65c.06-.21.22-.46.16-.61a7.66 7.66 0 0 0-.64-1.06l.15-2.06c-.35-1.6-.69-3.2-1-4.8l-3.66-20.39-1.51.21-9.33 27.5c-1.59 2-3.76 3.82-4.67 6.11-7.2 18.06-13.91 36.31-21.35 54.27-2 4.83-1.62 8.24 1.66 11.86 7.91 8.73 15.24 18.06 23.83 26.05 5.6 5.23 12.52 9.94 21.36 7.86zM495.19 1901.59c5.41 1.58 5.05-2.38 5-5.53 0-6.38-.42-12.76-.56-19.14-1.19-54.81-2.71-109.62-3.42-164.44-.43-33.62.28-67.25.66-100.87.44-39 .95-78 1.74-117.06.14-6.69-2.57-9.66-8.78-9.64-16.17.06-32.33.59-47.71 6.35-5.54 2.08-10.15 4.56-10 12.42.68 30.23 1.21 60.5.68 90.74-.47 26.94-3.58 53.87-3.45 80.8.23 47.68 2.37 95.36 3.06 143 .36 25.14-.7 50.31-1 75.47 0 2.58.67 5.18 1 7.78l11.2-1.6 3.18.16 8 .2h3.29l8 .16h3.29l8 .15h3.3l4.35.68 5.26-.62 4.13 1.37a1.17 1.17 0 0 1 .78-.38zm29.29.21 1.38-.87h12.74l4.36.62 3.61-.61 3.42.5 3-.37c5.82.8 11.62 1.78 17.47 2.34 4.18.39 6.18-1.88 5.88-6.13-.45-6.37-1.18-12.75-1.23-19.13-.22-26.69.31-53.4-.45-80.07-.92-32.25-3.88-64.45-4.13-96.69-.35-45.69 1.13-91.39 1.42-137.09a57.34 57.34 0 0 0-3.47-20.82c-2.36-6-7.3-11.12-11.19-16.55-11.15-15.58-25-28-42.61-35.88-2.1-.94-5.55-1.55-7-.48s-1.68 4.43-1.68 6.85c-.09 3.56.63 7.14.67 10.72.92 86.68-2.06 173.36 1.94 260.06 1.91 41.47.48 83.11.39 124.67 0 10.53 5.38 13.84 15.48 8.93zm287.7-1697.44-14.64-3.57c-.84 3.48-2.5 7-2.4 10.45 1.34 48.17 3.22 96.32 4.35 144.5.86 36.91 1 73.85 1.17 110.78q.38 80.07.29 160.13c0 19.43 1.89 39-4.93 58-1.34 3.71 1 6.83 5.53 5.8 2.63-.61 5-2.41 7.47-3.68l13.88-2.26c-1.91-160.84-4.36-320.63-3.65-480.91zM386.83 1507.81v.11c2.39-1.41 4.81-2.78 7.18-4.23 4.32-2.65 8.61-5.34 12.92-8l1.38.49-1.17-.88c.66-1 1.08-2.49 2-3 11.67-5.95 22.89-13.41 35.23-17.31 49.86-15.76 95.18.58 125.58 43.27a303.36 303.36 0 0 1 50.9 119.23c7.37 37.88 12.9 76.14 18.29 114.38a870.81 870.81 0 0 1 8.3 137.13c-.16 9.47 1.61 10.66 10.78 6.48-.67-6.58-1.51-13.2-2-19.85-2.28-32.62-3.48-65.36-6.92-97.86-4.4-41.46-10.44-82.75-16-124.08-4.92-36.28-10.26-72.49-23.92-106.82-20.73-52.15-61-79.82-114.66-88.75-15.95-2.66-32.77-.06-49.19.12-2.18-.51-4.62-1.93-6.49-1.39-10.59 3.06-21.28 6-31.49 10.06-44.23 17.7-71.81 50.57-83.17 96.24q-15.06 60.51-26.55 121.9c-5.28 28.16-8.18 56.82-11.11 85.36-2.41 23.43-3.61 47-4.72 70.52-.58 12.48.19 25 .35 37.51.18.86.36 1.72.55 2.58-.29.76-.59 1.53-.88 2.3.2.87.4 1.74.59 2.61-4.77 7-3.2 11 4.68 11.73 3.32.32 6.7.19 10 .62 5.92.77 8.09-1 8-7.56-.47-28.17-1.8-56.46.09-84.51a979.55 979.55 0 0 1 11.81-100.93c5.82-33.64 14.48-66.82 22.61-100 8.29-33.86 22.07-65.13 46.6-90.77.25-.26-.37-1.37-.59-2.08v-2.24c.33-.79.68-1.58 1.02-2.38zm2.44 211.72c.93-1.51 4.44-4.79 4.88-8.46.55-4.45-11.54-12.17-15.87-11.16-5.07 1.2-11 9.89-9.73 14.33 1.36 4.76 9.87 7.76 20.72 5.29zm440.89-712.94c0-.7 0-1.39.07-2.09l-6.44-.12c0 .55 0 1.11-.08 1.67zm-12.6-1.27 1.4.51a6.88 6.88 0 0 0-.11-1.29c0-.12-.56-.28-.64-.2a5.75 5.75 0 0 0-.65.98z" fill="#c6919a" data-color="1"/>
    </g>
</svg>
