<?xml version="1.0" encoding="UTF-8"?>
<svg data-bbox="-0.08 -0.013 1720.11 1958.14" viewBox="0 0 1720.11 1958.11" xmlns="http://www.w3.org/2000/svg" data-type="color">
    <g>
        <path d="M318.82 1463.88c-5.72-43.34-11.11-86.72-17.21-130q-14.13-100.3-29.1-200.5c-6-40.26-13-80.38-19.16-120.61-2.6-16.83-4.32-33.81-6.65-52.42l163.91-19.13 48.66 164.58 17.67-.87c-2.29-23.19-4.41-45.64-6.76-68.07-2.63-25.19-5.56-50.35-8.17-75.55-1.3-12.55 4.42-18.68 18.08-18.91q50.67-.85 101.34-1.19 44.33-.36 88.67-.38c16.22 0 20.85 8.4 14.94 23.6-3.43 8.82-5.1 18.65-5.75 28.15-1.65 24-2.19 48.17-3.35 72.25-.51 10.5-1.47 21-2.32 32.75l81.49-4c-1.48-12.67-3.61-25.72-4.43-38.85-1.84-29.48-3.44-59-4.31-88.5-.46-16 7.09-25.06 22.91-28.84a263 263 0 0 1 36.47-6.47c31.22-2.91 62.51-5.28 93.8-7.28 17.3-1.11 23.32 6.77 21.54 23.78a390.85 390.85 0 0 0-2 45.13c.43 36.7 1.56 73.4 2.42 110.4l50.94-.18c-1.1-22.3-1.7-44.17-3.34-66-2.42-32.15-5.56-64.26-8.44-96.38-.89-9.94 4-16.15 13.93-17.4 2.34-.29 4.72-.26 7.93-.42C967.26 782 974.18 641 964 499.85l123.5-6.05 1.74 109c16.13-.79 30.25-.73 44.11-2.64 3.89-.53 9.46-6.56 10-10.59 1.26-10.34.31-21-.13-31.48-.87-20.71-2-41.41-3.06-63.37l90.49.12c.53 37.34 1.05 73.92 1.59 111.54l33.14-1.62c-6.1-174.5-12.62-349.06 4.62-524.65-2.86-1.56-7.46-3.77-11.76-6.46-11.6-7.25-20.45-16.75-24.15-30.37-3.09-11.4.24-24.29 9.84-30.78 18.9-12.77 41.35-17.95 64.83-5 25.46 14 34.22 52.9-.26 72.64 17.22 6 33.51 11.8 49.92 17.24q129.54 42.95 259.12 85.72c20.93 6.94 41.65 14.34 58.84 33.24-15.3 4.37-29.67 8.91-44.26 12.58q-125.83 31.6-251.77 62.81c-20.77 5.14-41.61 10.07-62.61 14.12-7.15 1.37-8.51 4.08-8.17 10.63 3.09 59 5.9 118 8.84 178.16l30 .52c2.33 17.58 4.27 35.1 7 52.48s6.44 34.33 9.51 51.52c1.14 6.38 4.51 8.14 10.75 7.5 10.79-1.1 21.67-1.43 32.51-2.1 14.64-.92 14.6-1 13.71-15.33-1.76-28.58-3.35-57.16-5-85.74-.14-2.37 0-4.75 0-8.64l87.19.32c-1.06 28.87-1.93 56.79-3.15 84.69-3 67.77-6.77 135.51-8.92 203.3-1.64 51.82-1.27 103.71-1.77 155.56 0 2.67.24 5.34.4 8.63 9.24.89 18.21 1.52 27.11 2.69 13 1.71 17.8 7.8 17.3 20.74-1.82 47.3-2.64 94.66-5.66 141.88-3.2 50.21-8.8 100.26-12.72 150.44-3.14 40.26-7 80.57-7.56 120.9-.91 62.09.67 124.21 1.22 186.32 0 3.47.32 6.94.44 9.34 12.61-9.37 24.47-19.43 37.58-27.45 7.46-4.55 16.78-6.85 25.57-8.26 20.39-3.26 38.58 10.35 42 30.78 4.1 24.48-4.83 46.28-14.76 67.79-1.37 3-2.91 5.88-4.33 8.84-.11.22.08.57-.24-1.34 20.17.4 40.12-.83 59.55 1.8 11.34 1.53 22.86 7.79 32.49 14.51 16.32 11.4 20.09 33.76 10.54 53-10.58 21.25-27.51 36.33-48 47.7-2.51 1.4-5.12 2.62-8.94 4.55 12.11 3.92 23.29 6.4 33.41 11.13 11.06 5.16 22.25 11.14 31.4 19 16.33 14.1 16.79 32.91 2 48.52-12.74 13.49-27.37 24.55-48.23 28.26 23 21.54 44.2 43.45 59.22 73.12-29.66 1.45-58.06 3.66-86.48 4.08-84.74 1.25-169.49 2.54-254.24 2.43-98.3-.13-196.61-1.56-294.91-2.73-73-.87-146-1.84-218.91-3.49-102.49-2.33-205-5.51-307.46-8-110-2.67-220.06-5.35-330.1-7.26-74.17-1.28-148.36-1.24-222.53-1.8-1.48 0-3 0-5.48-.1 1.58-22.69 5.15-44.24 15-64.63 15.56-32.26 40-56.67 68.9-76.41 29.77-20.35 61-38.54 90.52-57-26.37-9.22-45.58-28.14-47-59.34-1.19-25.42 13.94-42.53 36.27-54.5-6.82-7.5-14.61-14.25-20.08-22.54-7.54-11.44-15.75-23.35-19.42-36.27-10.42-36.73 13.56-67.48 53.93-70.28 12.66-.88 25.53 1.17 38 1.86-3.44-9.41-8-19.25-10.64-29.6-6.67-26.56 12.85-48.37 40.22-45.66 23.87 2.36 41.81 15.95 58.69 31.39 4.62 4.23 8.88 8.87 13.31 13.32l1.49 1.07zm1304.57 379.46 1.89 1.76h-.08l3.88 3.47v-.08l2 1.74h-.1l7.59 7.13 5.65 5 3.72 1.34 37.19-21.59c16.83-11 17.3-19.55 1.3-31.06a67.42 67.42 0 0 0-15.63-8.72c-12.9-4.8-26-9-39.19-13.08-10.24-3.13-20.68-5.61-31-8.39 4-4.38 7.51-9.29 12-13 11.38-9.46 23.19-18.39 34.83-27.53l3.67-3.54c8.68-9.38 18.56-17.94 25.7-28.37s3.38-21.62-7.43-27.82c-24.66-14.14-51.11-12.82-77.83-8-6-.58-10.45.92-14.22 6.58-4.41 6.62-10.36 12.26-16 17.94-2.11 2.1-5.32 3.1-8 4.6l14.78-31.35c4.71-13.85 10-27.54 14-41.6a365.72 365.72 0 0 0 9.74-42.82c1.82-11.65-6.66-20.08-16.93-16.88-9.78 3-18.74 8.73-28.06 13.25l-11.84 11.41c-13.07 12.94-19.89 28.72-19.13 47 .73 17.41 2.57 34.8 4.44 52.14q4.32 39.87 9.58 79.63c.39 2.92 3.45 6.06 6.07 8 8.93 6.63 18.33 12.61 27.34 19.13 17 12.33 33.9 24.85 50.84 37.29l3.77 3.16 3.77 1.73v-.08zM75.19 1841l.11-.13-3.55 2.13c-20.94 17.15-34.68 39.08-44.18 65.34l5.51-.74 6.12-.28 18.8-.85c21.33-.26 42.66-.79 64-.72 52.54.19 105.09.66 157.63 1 57.2.9 114.41 1.65 171.61 2.74q89 1.69 177.89 3.94c57.5 1.35 115 3 172.5 4.21q95.75 2 191.5 3.36c50.28.75 100.57 1.18 150.86 1.67 62.94.6 125.88 1.3 188.83 1.61 43.37.22 86.75-.15 130.13-.27 15.67 0 31.34 0 47-.2q60.54-.63 121.07-1.4l21.71-.89c.1.21.21.42.32.63.12-.24.23-.49.35-.73l-.69.11c-1.35-2.12-2.29-4.71-4.12-6.28-26.17-22.6-51.5-46.31-78.94-67.26-51.61-39.42-105.56-75.44-164.8-102.77l-48.34-21.84c-22.19-8.47-44.16-17.58-66.61-25.28-55.06-18.88-111.16-34.62-168.59-43.69-55.18-8.7-110.86-14.89-166.54-19.5-43.7-3.62-87.76-4.75-131.62-4.12-80.49 1.17-160.75 6.91-240.28 20.2-35.28 5.9-70.88 10.75-105.56 19.25-48.45 11.87-96.6 25.37-144.1 40.6-70.35 22.55-138.9 49.93-202.17 88.69-18.86 11.54-36.04 25.83-54.04 38.88zm253.42-862.46-1.94-.17-3.49.26-16.18 1-27 1.37 41.66 271.08 47.53-2.33c73.21 0 146.43-.22 219.64.21 85.86.51 171.72 1.66 257.59 2.48 44.88.43 89.77.67 134.66 1.18q127.44 1.46 254.86 3.11c35.55.45 71.09 1 106.63 1.5q60.09.79 120.17 1.52l24.42 1.18c9.76-95.09 16.51-189.16 17.95-283.82l-85.52-7.72-26.57-2.6c.26 5.43.46 9.5.66 13.58 2.79 41.87 5.31 83.77 8.58 125.62.79 10.15 3.09 19.84-7.5 26.37-10.49.31-21 .83-31.47.88-15.12.07-30.23-.2-45.34-.33-3.31-9.75-9.09-19.4-9.47-29.27-1.28-32.72-.66-65.53-.68-98.3 0-17.3.17-34.6.26-52.18-6.55-.4-11.61-.81-16.68-1-26.44-1-52.88-1.91-79.32-3-4.47-.18-8.12-.06-6.69 6 1.38 21.93 2.39 43.89 4.22 65.79 2.51 30 5 60 8.76 89.89 1.92 15.38-.74 20.87-15.66 22.73l-2 .07c-25.09-3-50.2-5.74-75.22-9.24-3.15-.44-7.78-4.4-8.29-7.33-3.07-17.71-6.33-35.54-7.29-53.45-2-36.62-2.5-73.31-3.67-111.3l-116.9-2.81c.72 3.92 1.2 6.55 1.69 9.17 1.94 29.35 3.73 58.72 5.88 88 1.5 20.35 3.84 40.64 5.05 61 .36 6.12-1.79 12.38-2.8 18.57l-32.49 2.36c-16.48-.74-33-.79-49.39-2.57-5.7-.62-14.32-.15-16.28-8.45-3.39-14.33-7.85-28.74-8.59-43.28-1.87-36.69-1.93-73.47-2.73-110.22-.06-2.86-.27-5.73-.46-9.66l-114.65 5.61c.09 1.78.21 4.37.34 7 1.4 29.62 2.25 59.28 4.42 88.84a245.27 245.27 0 0 0 7.34 43.36c2.61 10.06 1.84 17.56-7 23.49l-43.45.84-74.46-5.93c-23.39-49.5-11.36-99.22-8.63-148.82a6.3 6.3 0 0 0-2-.52q-66.36.31-132.73.7l-29.74-.71c.6 5.31 1 9.14 1.48 13 3.17 37.46 6.41 74.92 9.46 112.39.83 10.14 1.05 20.33 1.56 30.49.94 11.28-8.67 5-12.84 7.71-10.23-.23-20.45-.57-30.68-.67-17.4-.17-17.4-.11-23.25-16.18-.52-1.42-1.08-2.82-1.48-4.27q-16.23-58.69-32.42-117.39C398.79 987 399.11 977.8 395 975c-4.29-2.89-12.76.42-19.4 1-.6 0-1.19.2-1.78.3l-18.23 1-7 .35-7.25-.07zm974-919.9c11.06-5.49 10.16-20.37 1.86-28.54-7.63-7.51-16.85-10.14-27.36-8.47-5.66 1.54-12 2.06-16.76 5-3.14 1.91-6.26 7.62-5.75 11.11 2.64 17.94 32.4 30.51 48.05 20.9zM1183.6 521.5c-5.87-.22-11.75-.72-17.6-.45-1.16.05-2.19 3-3.28 4.67 1.19 16.42 2.23 32.86 3.61 49.27 1.35 16.11-2.32 30.36-14.4 41.77-6.49 2.16-12.84 5.49-19.49 6.24-14.23 1.6-28.62 1.82-42.94 2.69-7.76.46-14-2.11-18.49-8.63-1.88-17.52-4.46-35-5.44-52.59-.83-14.85.2-29.81.41-45.42l-34.61-.44-16.74-.11-23.41-.85c.23 4.9.42 8.42.58 12 1.24 27.42 3 54.83 3.59 82.26.91 44.23 1 88.48 1.43 132.72l.18 5.17c.92 57.77.39 115.61 6.74 173.78l31 .38 36.28.59 5.6.48c13 .28 25.89.43 38.83.88 13.47.47 19.73 7.06 19.87 19.37q.87 76.77 2.27 153.54c0 2 2.27 5.58 3.65 5.67 15.51 1 31.06 1.41 48 2-1.34-13.44-2.9-25.9-3.79-38.41q-4.24-60.4-8.06-120.85c-1.13-17.89 4.08-24.48 21.84-24.18 38.2.64 76.39 2.14 114.56 3.87 12.12.55 19.48 9.08 21.09 22.16.73 6 .92 12 1.36 18l.15 7.32c-.61 43.89-1.23 87.79-1.85 132.29l38.9-1.91c-.16-3.22-.24-6.15-.46-9.07-1.2-15.92-2.65-31.84-3.62-47.78-1.49-24.37-2.66-48.76-4-73.15-.06-2.39-.13-4.78-.19-7.17-.12-3.3-.24-6.59-.34-9.89-.43-14.64 6.6-20.7 21.15-19 12.49 1.45 25.07 2.21 37.61 3.27l7.29.48 33.81 3.18c-.19-34-.36-66.47-.53-98.95 0-1.79 0-3.58.05-5.36.36-10.21.85-20.41 1.07-30.62.45-20.72.74-41.44 1.1-62.15q-1-5.9-2-11.77c.18-.14.53-.35.51-.4a8.82 8.82 0 0 0-.59-1c1.1-1.61 3-3.16 3.15-4.85.61-8.28.53-16.61 1.08-24.9 2.63-40.44 5.16-80.89 8.21-121.3 1.52-20.17 4.07-40.25 6.26-61.34l-16.45.81-27.08-1.19c.25 5.16.34 8.67.61 12.17 1.48 19.7 3.73 39.38 4.14 59.1.17 7.89-3.71 15.86-5.75 23.8-6.82 2.72-13.48 7.11-20.5 7.81-14.34 1.45-28.88 1.35-43.32 1.07-18.71-.35-21.71-3-27.73-20.81-4.24-27.52-8.49-55-13.06-84.6-9.09.45-19 .8-28.81 1.58-1.18.09-2.18 2.43-3.27 3.73 2.18 18.18 4.16 36.39 6.59 54.54 1.88 14 0 26.88-9.53 37.93-15.93 11.9-34.51 9.13-52.37 8.81-11.39-.2-23.69 3-33.86-5.53-.61-14.59-1.73-29.18-1.69-43.77.07-18.81 1.07-37.6 1.73-58.36zm160.46 1135.82c-1.3 5-3.28 9.85-3.64 14.86-.19 2.67 1.71 7.12 3.85 8.07 25.58 11.37 51.39 22.22 77.14 33.21l7.23 3.62 57.87 31.36 8.93 5.9c-3.91-37.44-8.44-73-11.21-108.66-8.06-104-10.59-208-3.15-312.19 1.13-15.74 2.14-31.49 3.21-47.24.35-2.2.71-4.4 1.34-8.36l-25.27 1.24c-23.43-.31-46.86-.66-70.29-.92q-80.27-.87-160.52-1.66l-7.41-.74c-6 .08-12.07.31-18.1.21-45.12-.7-90.23-1.51-135.36-2.19-22-.33-43.92-.39-65.88-.7-46-.64-92.06-1.4-138.08-2-21.67-.31-43.33-.36-65-.72q-79.41-1.33-158.82-2.83c-20.45-.36-40.91-.59-61.36-.87l-110.09-1.51-8.76.23-89.21-.92-49.56-1.81c1.54 10.25 2.73 18.13 3.92 26 .86 6.85 1.61 13.72 2.6 20.56 2.49 17.24 5.09 34.47 7.65 51.7l.45 4.92q6 48.86 11.9 97.69c.12 1.68.25 3.36.38 5q5.57 53.16 11.11 106.32c.09 1.94.17 3.87.26 5.81 1.37 28 2.74 56 4.14 84.69l60.5-17.44c15.74-3.71 31.44-7.66 47.25-11.08 21.66-4.69 43.41-9 65.27-13.47-3.54-16.78-7-33.18-10.46-49.57q-.6-4.36-1.21-8.72c-1.84-18.18-4.39-36.31-5.3-54.54-.84-16.71.1-33.51.26-50.27.05-1.19.1-2.37.16-3.56 1.33-8.91 2.43-17.87 4.06-26.73 6.6-35.88 17.76-69.39 47.17-94 26.13-21.85 58.62-24 84.9-4.39 6.46 4.82 11.8 11.13 17.66 16.74q2.05 3.13 4.12 6.25l3.47 5.53 5.77 10.89q10.42 33.57 20.84 67.15l1.62 7.35 5.66 112 .06 3.72-3.95 40.52 145.89-7.14-4.85-32.63q-.44-3.69-.85-7.38c-2.13-35.22-1.21-70.31 4.45-105.2.33-2.34.65-4.67 1-7 6.68-26.23 13.38-52.46 30.52-74.39q4.3-4.62 8.62-9.22c14-12.34 29.45-21.71 48.32-24.06 23.66-3 42.41 7.49 59.41 22.41l7.59 8.48c5.58 9.56 12.39 18.62 16.45 28.78 6.66 16.62 11.53 34 17.16 51l1.92 8.95c1.87 12.43 4.08 24.81 5.51 37.29 2.36 20.51 4.21 41.07 6.27 61.62l.57 7.51q-.2 24.23-.38 48.37l114.22 19.49-3.32-67.77.26-9c3.57-33 12.4-64.66 24.08-95.61l3.78-8.78c4.71-8 9-16.23 14.18-23.9 14.73-21.82 32-40.5 59.62-45.58l12.9.82c16.78 4.14 31.37 12.36 39.74 27.6 7.77 14.13 13.15 29.57 19.58 44.43.64 2.82 1.27 5.63 1.91 8.45q2.9 46.21 5.78 92.43v9.28q-3.6 44.54-7.19 89.09zm-34.72-1382.81c-.2 5-.41 10.09-.67 16.56L1335 282a13.41 13.41 0 0 0 2.7-.12q113.77-30.18 227.55-60.38c17.81-4.72 35.68-9.21 53.52-13.81l-.06-1.9-61.48-16.37c-7-2.47-14.13-4.87-21.15-7.43Q1439 146.47 1342 110.89c-14.81-5.45-29.39-11.52-43.45-17.06 1.79 22.31 3.72 44.1 5.24 65.92 1.57 22.52 2.74 45.06 4.09 67.6zm-676.4 1335.6c17.57-1.88 35.12-4 52.72-5.52 5.36-.47 7.21-2.1 7-7.64-1-27-1.06-54.1-2.68-81.09-1.53-25.43-3.93-50.86-7.17-76.14-3.5-27.35-12.38-53-27.79-76.25-18.91-28.52-54.42-29.85-75.72-2.57-11.73 9.77-18.45 22.81-23.51 36.77-13 35.9-16.55 73.43-13.94 111 2.41 34.62 9.08 68.95 13.74 103.42 1.08 8 5.94 8.17 12.29 7.23 21.66-3.25 43.37-6.17 65.06-9.21zm338.65-9.11 62.26 5.87c-1.11-22.78-1.48-44.68-3.42-66.43-2.52-28-5.62-56.09-9.74-83.94-3.47-23.51-10.16-46.32-22.32-67.07-24.24-41.38-64.52-41-90.19-10-6.62 11.33-15.4 21.93-19.48 34.11-19.31 57.71-20.81 116.74-10.23 176.39 1.12 6.3 4.49 6.46 9.43 6.69 27.9 1.31 55.79 2.91 83.69 4.38zm262.11-166.6c-5.06 8.86-10.84 17.38-15 26.62-24.33 53.38-30.8 109.48-24.07 167.34.33 2.84 3.74 6.77 6.52 7.64 12.29 3.84 24.88 6.75 37.37 10l83.73 26c.37-3.37.71-5.39.8-7.43.67-14.09 1.34-28.18 1.92-42.28 1.32-32 3.33-64.1 3.6-96.16.15-17.67-1.83-35.48-4.32-53-2.83-20-7.59-39.59-20.31-56.19-13.53-17.65-32.53-20.41-49.3-5.86-7.88 6.75-14.03 15.47-20.94 23.32zm-961.17 101.35 3 4-.93 2.15c-5.42-1.81-11-3.31-16.24-5.48-16.88-7-33.23-15.53-50.58-20.93s-35-4-50.44 7.73a29.4 29.4 0 0 0-12.11 30.58c3.8 16.47 13 29.84 25 41.13 19.44 18.4 33.77 43.4 63.19 50.14-3.73 1.83-7.51 3.61-10.87 3-8.51-1.54-16.72-4.79-25.24-6.13-8.33-1.32-17.68-3.55-25.22-1.14-19.22 6.2-28.09 33.85-18.09 51.25 10.37 18.06 28.41 25.3 46.14 32.93 1.59.68 4.15-.12 6-.9 5.77-2.48 11.41-5.27 17.1-7.95l103.24-38.62c4.88-2.94 14.12-.59 13.82-9.82-.7-21-1.25-42.12-3.34-63-3-29.5-8-58.8-10.7-88.32-1.35-14.69-8-25.32-18.06-34.84-11.94-16.09-27.39-27.66-45.72-35.51-6.34-1.56-12.64-4.29-19-4.44-12.35-.3-19.19 8.86-14.64 20.16 6.13 15.22 12.87 30.35 21.06 44.52 6.1 10.62 14.98 19.74 22.63 29.49zm1032-1040.42c-14.51-92.5-14.15-184.34-19.71-275.74h-2.2Q1281 357 1279.31 494.73zm-20.66 104.11 1.82-.13q-1.17-23.8-2.33-47.6l-1.82.09q1.17 23.82 2.33 47.64z" fill="#c6919a" data-color="1"/>
    </g>
</svg>
