<?xml version="1.0" encoding="UTF-8"?>
<svg data-bbox="-0.001 0 2949.692 2923.261" viewBox="0 0 2949.64 2923.3" xmlns="http://www.w3.org/2000/svg" data-type="color">
    <g>
        <g>
            <path d="M611.71 532.29h48.65c0-34.66 1.56-68.19-.36-101.52-3.19-55.7 2.64-62.35 59.18-54.39 32 4.51 63.79 11 96.15 16.66 2.12-6.06 5.35-10.51 4.82-14.46-14.71-108.58 1.31-216.88 2.78-325.29.1-7.73.27-15.64 1.91-23.13C830.52 4.29 843-4.87 868.3 2.42c84.85 24.42 169.59 49.31 253.74 76 19.27 6.12 47 11.69 45.15 39.47-1.82 26.69-28.8 29.5-49 35.26-87.84 25-175.93 49.14-269.73 75.19 3.6 104.06 7.1 205.11 10.74 310.31l61.14 3.12c.66-32 1.32-60.95 1.81-89.87.23-13.95-.67-28 .34-41.85 1.63-22.57 15.39-34.07 37.18-32.26 27.75 2.31 55.3 7.09 82.9 11.11 23.89 3.49 34.63 17.93 34.43 41.72-.28 32.25-.07 64.5-.07 99.39h61.48c2.26-32.21 4.49-62.81 6.53-93.42 2.57-38.47 7.47-44.92 44.15-41.8 95.2 8.1 91 3.44 86.25 94.08-3.19 60.35-8.85 120.63-15.43 180.73-5.44 49.64-16.44 57.17-66.21 53.6-16.7-1.2-33.46-1.58-53.1-2.47-17.69 113-9.8 223.81-12.48 339.32h622.25c-3.78-99-7.53-197.2-11.28-295.31-62.86-.08-62.28-.08-62-62.42.26-65.17-.77-130.34-1.18-195.51-.11-16.86 0-33.72 0-51.13 39.16-21.23 77.94-17.62 115.78-12.86 22.32 2.8 27 22.8 27 42.85v96.81l56.52-13.23c0-29.55-.21-58.5 0-87.44.41-45.71 9.19-54.15 54.69-53.83 22.8.15 45.6 0 71.22 0 1-15.94 2.36-29.45 2.46-43 .65-88.44 1-176.88 1.53-265.32.06-9.3-.07-18.75 1.52-27.85 5.3-30.47 19.27-40.56 49.3-31.31 71.09 21.89 141.62 45.6 212.36 68.62 2.94 1 6.61 1.62 8.44 3.73 8.66 10 23.24 20.36 23.28 30.66.05 9.88-13.22 24.31-24 29-62.52 27.18-125.41 53.75-189.41 77.18-49.67 18.2-50.58 16-50.64 66.87-.11 75.77 0 151.54 0 230.72h44.67c2.18-4.79 5.79-9 5.62-12.94-1.2-27.87-3.83-55.67-4.75-83.54-1.24-37.19 8.45-49.41 45.36-47.58 33.75 1.68 67.31 9.09 100.72 15.23 21.65 4 30.37 18.83 29.72 40.57-.69 22.95-.16 45.93-.16 71.68h53c1.43-24.71 1.89-49.11 4.48-73.28 3.94-36.77 10-41.31 47.64-39.82 7.75.3 15.46 1.31 23.19 1.92 49.5 3.91 58.21 11.47 54.33 58.81-5.58 68-13 135.82-21.78 203.44-5.05 38.91-8.09 39.69-47.91 40-26 .17-52 0-75.5 0 0 104-.06 202.81.15 301.65 0 6.06.93 12.75 3.57 18.08 42.73 86.4 31.56 182.48 49.05 273.39 5.93 30.84-3.91 55.83-38.67 62 2.25 47.54 4.35 92 6.66 140.83 8.83 1 18.92 2 29 3.28 47.51 6 56.62 15.87 60.78 65.35 1.93 23 3.93 45.94 6 70.48 14.88 2.22 26.86 4.37 38.92 5.69 10.73 1.17 21.55 1.4 38.53 2.43 1.25-24.84 2.66-48.72 3.58-72.62.59-15.49-.26-31.06.82-46.51 1.37-19.83 11.39-31.42 32.79-30.74 23.25.73 46.56.16 69.76 1.65 32.83 2.11 45.43 11.58 48.52 44.87 6.3 67.85 9.38 136 13.85 204 1.53 23.34-8.34 41.71-23.5 58.6-22.78 25.39-44 52.23-67.24 77.15-12.2 13.08-15.31 25.85-9 42.08 18.59 47.55 33.33 97 56 142.52C2699 2276.6 2786.4 2446 2873 2615.82c4.22 8.28 8.33 16.79 13.8 24.23 45.09 61.31 59.41 131.93 62.64 205.86 2.63 60.36-14.9 77.79-76 76.36-192.33-4.48-384.65-11.67-577-12.74-176.84-1-353.71 4.61-530.57 7.29-15.52.23-31.07-.25-46.55.6-37.54 2.07-70.13-2.94-72.25-52.78-67-3.8-130.19-9.19-193.44-10.52-89.95-1.88-180-1.08-269.95-.72-22.82.09-43.64 1.53-62.51 22.13-10.93 11.92-36.74 13.68-55.93 13.94-86.82 1.18-173.73-2.08-260.49.49-161.25 4.79-322.44 12-483.62 19.23-83.57 3.74-167 10-250.61 14-14.76.71-29.79-4.12-45.76-6.55-9.22-45.53-22.27-87.64-24.64-130.31-1.45-26 10.45-54.27 21.74-79.07 46.9-103 98.49-203.92 143.37-307.77 52.26-120.95 99.33-244.16 148.55-366.43A161.83 161.83 0 0 0 319 2017c-41.17-40.8-80.28-77.91-117.4-116.91-25-26.26-32-57.9-25-94.78 9.85-51.73 13.9-104.55 23.21-156.41 8.19-45.59 11.19-46 57-38 9.1 1.58 18.53 1.55 27.82 1.7 68 1.08 67.93 1 65.18 71.67-.47 12-.07 24.07-.07 42.08l81.46-8c-2.94-34.63-6.72-63.73-7.54-92.91-.9-31.94 5.62-37.62 36.59-41 38.23-4.12 76.42-8.67 119.37-13.57-4.7-50.51-9.23-99.13-13.76-147.7-6.15-2.12-10.25-4.17-14.58-4.93-37.7-6.65-36.64-6.87-39.34-43-3.11-41.55-9.66-82.83-13-124.36-4.53-55.56-9-111.21-10.58-166.9-1.36-47.26 11.5-57.43 58.22-53.9 9 .68 18 .95 26.12 1.36V695.35c-20.38-3.62-35.37-6-50.24-9-34.19-6.81-43.86-14.1-46.19-47.88-4.49-65-5.89-130.13-8.4-195.22-.75-19.33 10.37-28.48 28.31-29.61 26.3-1.66 52.67-2.46 79-3.44 23-.85 35.17 11.92 36.27 33.44 1.33 27.74.26 55.58.26 88.65zm1645.38 865.3c-10.26-1.54-16.26-2.93-22.32-3.28-49.78-2.81-48.36-3.27-65.66-51.2-7.11-19.7-18.7-40-33.8-54.09-25.51-23.79-54.92-13.44-63.08 20.26-3.56 14.73-2.29 30.74-2.4 46.17-.25 36.12-9.28 47.87-45.11 50.37-30.9 2.16-62.06 2-93 1.17-38.41-1.1-44.43-8.3-49.69-46.09-3.18-22.87-6.2-46.4-14.13-67.84-11.33-30.61-38.51-47.36-64-44.84-28.44 2.81-53.52 25.54-59.16 57.27-3.49 19.64-3.1 40-3.86 60.1-1.26 33.56-10.91 44.26-44.79 45.12-35.66.91-71.36.15-107 .44-24.3.19-36.68-11.5-40.16-35.59-3.32-22.94-6.86-46.23-14.06-68.13-15.54-47.31-44.35-59.35-90.48-40-39.12 16.45-53.75 48.09-55.89 88.65-3 57.55-14.54 67.13-71.62 62.36-34-2.84-67.83-7.17-101.83-9.73-24.4-1.85-35.74-14.49-38.29-38.15-2.65-24.6-6.19-49.16-10.63-73.5-4.28-23.43-20.9-33-43.35-34.57-50.18-3.6-92 38.15-90.09 90.08 2.14 58.46-7.49 68.93-64.78 65.57-29.34-1.71-58.51-6.52-87.76-10-36.28-4.25-40.13-8.11-45.13-46-3-23-3.7-46.57-9.29-68.92-8-31.81-23.43-39.15-55.44-31-48 12.14-74 46.23-78.7 102.83-5.2 63.26-5.2 63.21-68.72 63.39-2.59 0-5.16 2.68-11.7 6.31 6.25 86.59 12.64 175.07 19.49 270l129.16-20.14c-1.69-35.11-5.26-64.42-3.92-93.5 1.54-33.58 14-43.92 46.85-44.28 24.81-.27 49.66.4 74.44 1.71 46.21 2.43 61.91 19.2 65.52 66.76 2.22 29.32 6.47 58.5 8.28 87.84 2.2 35.55 5.16 71.35 3.08 106.77-1 17.11-9.84 35.74-20.22 50-32.59 44.75-67.6 87.73-100.88 130.38 17.69 31.58 35.5 59 49.09 88.41 69.64 150.49 137.73 301.7 207.33 452.21 35.57 76.93 62.22 155.35 55.51 241.9-.76 9.82 3.6 20 6.13 32.8l50.64-10.74c-8.66-87-18-168.61-24.15-250.45-1.67-22.14 1.36-47.19 10.42-67.19Q1279 2276 1374.11 2076.69c22.63-47.65 49.75-48.9 77.09-5 76.22 122.36 153.85 243.94 202 381.37 8.48 24.23 13.87 46.74 8.65 72.21-12.12 59.22-24 118.53-34 178.13-5.79 34.4-15.54 68.92-9.68 107 9.89-.93 20.14 1.06 23.71-2.92 5.41-6.05 7.25-16.07 8.72-24.72 4.61-27.17 2.18-57.44 13.56-81.19 34.75-72.57 71.71-144.57 113.35-213.57 94.63-156.6 192.57-311.2 289.09-466.66 10.33-16.64 20.22-33.54 32.05-53.22-39.15-21.3-74.17-40.73-109.55-59.49-29.24-15.49-33.35-22.63-30.07-55.07s6.3-64.72 9.11-97.11c4-46.32 7.11-92.73 11.79-139 3.94-39 14.06-48.81 53.09-49.11a551.91 551.91 0 0 1 83.34 5.72c42.9 6.25 51.77 18.61 51 62-.41 22.75-.08 45.5-.08 72.81l57.67-4.23c1.75-35.58 2.46-66.43 5-97.13 2.45-29.41 5.66-59.3 42.88-70-5.42-48.31-10.58-94.1-15.74-139.92zm-535.91 1297.89 1150.93 8.39c-128.33-246.44-258.81-485.15-367.65-732.85H2155c-141.06 242.7-304.18 469.98-433.82 724.46zm-1658.51 49c342.14-52.61 680.17-61 1027.54-62.5-91.21-230.41-202.91-440.6-293.5-657.13l-440.4-7.58c-65.84 253.08-181.41 486.34-293.64 727.24zm2189.2-1657.59c-576.58 55.21-1149 44-1721.26-9.12-11.16 60.87 5.35 235.71 29.32 302.85l81.25-3.68c2.11-15.87 3.35-28.14 5.41-40.28 10.73-63 52.61-107.07 114.19-120.44 57.88-12.56 92.83 8.23 107.73 65.77 6.49 25.06 10.25 50.84 15.41 77.11 17.77 2 33 4 48.31 5.5 14.82 1.5 29.68 2.61 46.41 4 1.32-13.66 2.3-22.68 3-31.71 3.41-41.44 24.06-73.44 56.33-97.71 70.52-53 155.66-22.52 175.89 62.3 4.26 17.87 8.41 35.77 13.4 57l96.3 7.56c16-38.42 25-71.84 42.62-99.76 29.69-46.93 78-58 130.61-53 48.07 4.58 66.65 40.42 81.39 79.25 7.62 20.06 13.35 40.85 19.7 60.59h81.86c6-28 8.59-53 16.9-76 30.58-84.54 134.11-102.63 189.76-32.34 15.74 19.89 23.14 46.61 33.15 70.69 5.09 12.25 7.51 25.61 11.66 40.34l78.08-3.68c4.39-23.06 5.85-40.31 11-56.36 21.59-67 85.59-86 139.27-40.13 15.94 13.61 27.12 33.4 38.4 51.65 7.94 12.83 12.36 27.84 17.72 40.4h85.53c-19.93-89.83-21.69-178.26-49.34-260.77zM2892.14 2760c-68.53-19-1108.52-19.14-1180.55-2.61V2875c199.43-5.44 396-12.9 592.74-15.59 196.14-2.69 392.35-.59 593-.59-1.81-34.09-3.47-65.88-5.19-98.82zM1711.39 481.33v233c72.94 0 141.09 3.34 208.8-.7 137.7-8.21 275.2-17.21 413.17-7.1 16.26 1.19 32.69.16 50.69.16 4.09-80.74 29.43-153.88 19.82-231.86-9.51-1.85-16.86-3.95-24.34-4.56-8.83-.73-17.76-.17-28.79-.17-1.47 13.77-3 24.19-3.63 34.67-5 82.92-4.93 82.92-85.11 85.31-40.17 1.2-46.09-4.88-45.2-44.33.55-24.24.1-48.51.1-72.47-32.54-11.94-63.17-20.33-99.39-9.78 1.42 25.5 2.93 49.9 4.11 74.31 2.65 55-6.22 64.86-61.42 68.63-46.63 3.18-56.53-6.9-55.81-55.7.4-27.43.07-54.86.07-84.64l-93.2-5.05c0 20.9-.66 36.14.11 51.32 5.09 100.8-11.19 81.83-82.44 103.49-32.57 9.91-45-1.31-46.76-36.93-1.05-21.62.64-43.36.51-65-.06-11.61-1.37-23.22-2.29-37.48zm-492 201.25c10.44-79.2 27.37-159.85 20-245.48H1182c-1 16.5-2.08 31.55-2.79 46.62-.8 17-.46 34.15-2.08 51.1-2.82 29.56-7.44 33.62-37.31 35.32-21.65 1.24-43.32 2.37-65 2.75-33 .59-41.09-7.57-39.94-41 1.16-33.66 3.39-67.29 5.38-105.34l-78.69-7.37c0 20 .06 35.15 0 50.32-.1 21.7.79 43.48-.72 65.08-2.81 40.38-12.1 47.94-52 46.18-15.47-.68-31-.94-46.45-1.3-48.77-1.13-56.83-11.38-48.4-59.4 4.69-26.68 8-53.6 12.12-81.62-44.5-11.46-82.11-22.69-123.89-21 0 23.64-.92 43.62.16 63.49 4.68 85.56-8 98.86-92.46 95.45-29.25-1.18-38.1-9.74-38.74-39.57-.59-27.37-.13-54.76-.13-84.11l-66.56 4.74c-3.24 66.7-1 129 10.05 192.78zm306 2122.27c11-76.82 20.79-147.09 31.12-217.28 8.59-58.43 2.62-112.79-33.65-162.76-17-23.44-25.9-52.6-40.14-78.26-22.67-40.88-46.73-81-75.43-130.41-41.06 109.86-78.5 209.39-115.15 309.21-3 8.13-1.46 18.28-.7 27.38q3.85 46.26 8.72 92.41c5.24 50.13 10.8 100.23 16.41 152zm-440-69.62c-11.94-1.09-20.88-2.45-29.84-2.65-282.08-6.2-563.63 3.18-844.47 30.31-51.68 5-102.89 14.75-153.9 22.25 3.47 35.47 6.26 64 9.05 92.43 27.73-3.76 52.07-8.23 76.62-10.23 298-24.36 596.42-38.59 895.55-33.29 16.14.29 32.33-2.76 47-4.12zm-90.03-1682.14h98.2V711.88l-478.17-17v342.84l92.45 6.77c1.25-24.18 2.32-42.51 3.13-60.85 3.39-76.93 29-145.33 78.08-204.86 37.52-45.54 69.1-47.8 114.12-8.54 36.73 32 57.06 73.86 66.6 120 10.64 51.36 16.54 103.76 25.59 162.85zm909.9 5.43c2.44-8.2 4.48-12.44 4.9-16.85 8.69-92.53 48.76-171.76 104.23-244.19 22.28-29.08 34.1-29.28 59.76-3.89 46.58 46.08 73.09 103 88.46 165.73 6.18 25.21 10.7 50.82 16.72 79.79l82.16-9.67c-2.32-97.26 7.44-190.87-6.59-290.79l-483.74 20.73c5.24 101 10.4 200.38 15.53 299.14zM227.84 1825.28c226.8 8 447.32 21.48 672.48-14.13l-18.53-204.07h-79.41c1.75 23.35 3.59 43.22 4.66 63.14 1.87 34.85-6.53 50.16-39.26 58.67-40.33 10.5-81.37 19.79-122.69 24.68-52.23 6.18-71-12.44-72.85-64.56-.68-19.35-.79-38.71-1.25-62.48L468.81 1639c3.05 25.67 5.85 46.67 8 67.74 3.56 35.49-6.2 48.79-41 54-24.48 3.64-49.19 5.86-73.85 8.1-38.19 3.49-51-7.22-53-45.62-1.16-22.44-.21-45-.21-69.07h-65.87c-4.88 55.72-9.73 110.62-15.04 171.13zm1789.16 5.87 594.29-41.71c-5.92-73.12-11.36-140.26-16.89-208.6h-62.31c0 35.43 1.19 67.8-.33 100.05-1.59 33.86-12.17 43.25-46.13 44.18-18.56.51-37.16-.54-55.74-1.08-49.21-1.42-59.42-10.76-64-59.2-2.55-27.22-4.5-54.5-7.18-87.27l-91.78 9.34c0 30.81.08 58.35 0 85.9-.22 65.35-11.81 77.24-78.34 80.53-4.64.23-9.29.42-13.94.44-46 .17-56.59-10.25-57.39-57.59-.43-25.64-.07-51.29-.07-79H2027c-3.3 71.19-6.46 138.86-10 214.01zM853 1866c-73.26 2.8-133.63 7.29-194 7-114.74-.65-229.45-4.4-344.19-6-18.54-.26-38.78-6.43-59 7.57 30.5 32.8 58.22 64 87.74 93.3 6.5 6.46 19.4 9 29.37 9q186.19.34 372.39-1.23c12.66-.12 29.79-3.84 37-12.45 23.69-27.98 43.56-59.04 70.69-97.19zm703.3 936.7c23.67 6.49 25.52-5.9 27.63-19 10.1-62.7 17.71-126 31.58-187.84 13.72-61.18 8.28-114.92-18.43-174.07-51.25-113.48-124.3-213-183-321.46-6.07 3.78-10 4.77-11 7.06q-88.47 192.06-176.2 384.48c-5 11-9.18 24.16-8.29 35.91 6.77 89.37 14.9 178.63 23 272.07l41.08-5.9c-6.92-72.91-11.85-140.87-20.33-208.39-5.36-42.64-4.71-82.64 15.79-121.89 12.12-23.2 18.87-49.16 28.87-73.54 25.29-61.67 50.34-123.46 77.27-184.41 5-11.36 17.88-25.76 28-26.48 9.48-.67 23.93 12.89 29.66 23.67 47.22 88.91 93.91 178.14 138.26 268.5 8.86 18.07 11.63 41.9 9.32 62.18-7.35 64.65-19 128.79-27.77 193.29-3.53 25.45-3.8 51.31-5.44 75.82zm1005.92-968.31c-67.13 5-124 9-180.79 13.58-57.16 4.58-114.2 11.59-171.44 14.08-56.06 2.44-112.32.53-175.48.53 59.34 50.05 116 78.28 188.62 67.72 38-5.52 77.37-1.34 116.12-1.39 52.4-.08 104.8 0 150.86 0zM762.58 1047.34l8-5.34c8.24-36 15.32-72.36 25.21-107.91 5.33-19.15 13.13-38.5 24-55 16.21-24.61 40-24.51 56.46-.16 9.3 13.75 15.78 30.43 19.52 46.71 9.28 40.32 16.25 81.17 24.62 124.24l29.67-1.82c11.5-126.66-33.87-236.5-107-263.09-57.72 49.16-96.15 148.27-91.63 239.1.44 7.93 7.3 15.52 11.15 23.27zM860 44.61C857.15 89 854.45 131 851.56 176l244.56-58.2q-.27-4.56-.53-9.12zM2258.06 162 2047 92.7c-14.24 54.45-14.93 104.48-1.4 146.45zm-318.85 891.08c27.22 4.33 25.14-10.15 29.07-21.68 14.88-43.63 27.53-88.59 48-129.58 19.75-39.61 42.63-38 59.85 3 16.64 39.64 27.64 81.76 39.52 123.25 4.55 15.89 10.55 20.41 24.77 12.58-5.86-96.26-44.42-184.53-102.1-232.47-58.32 71.11-90.67 151.82-99.11 244.87zm145.8-1.28c-5.61-54.42-16-99.72-41.54-148.76-30.35 49.48-46.18 95.89-48.86 148.76zm-1277.4-5.8h69c1.82-50.07-5.83-95.55-27.42-141.58-25.86 41.48-38.49 84.78-41.58 141.58z" fill="#c6919a" data-color="1"/>
            <path d="M1400.58 1803c-.84-71.13-4.51-137.55 17.41-201.91 9.64-28.31 22.32-54.72 49.55-70.55 28.74-16.72 51.37-12.11 65.38 17.83 11 23.44 21.28 49.68 21.91 74.92 1.25 49.3-2.83 99-8.49 148-1.41 12.25-15.44 30.09-26.73 32.87-38.85 9.62-78.61 7.05-119.03-1.16zm94.3-247.93c-64.71 58.18-54.33 132.67-63.64 207.38l77.11 7c1.14-74.45 24.28-142.65-13.47-214.34z" fill="#c6919a" data-color="1"/>
            <path d="M1271.2 1672c-3 38.32-5.65 66-7.15 93.78-1.24 23.13-12.75 37.36-34.4 44-10.31 3.15-20.58 6.87-31.16 8.66-58.68 9.9-68.81 2.53-71.18-55.86-2.46-60.39-3.22-121 21.74-178 11.16-25.5 22.18-52.91 56.82-53.49 26.23-.44 45.51 18.49 54.93 59.64 6.82 29.75 7.94 60.84 10.4 81.27zm-64.2-103.14c-50.78 61.16-46.11 132.69-46.12 209.86l68.16-6.39c-.04-71.5 18.25-139.2-22.04-203.47z" fill="#c6919a" data-color="1"/>
            <path d="M1822.59 1669.74c-1.47 21.65-2.41 43.35-4.53 64.93-3.35 34.26-9.55 42.83-43.19 51.17a414.72 414.72 0 0 1-73.31 11.29c-21.73 1.38-36-11.2-35.14-33.86 2.53-66.77 10.54-132.83 33.35-196.15 3-8.44 9.37-16.13 15.53-22.94 16-17.74 34.42-32.22 60.42-27.28 27.6 5.24 36.88 28.57 40.79 51.16 5.78 33.3 6.46 67.49 9.3 101.3zm-37.59 78.44c-1.47-72.13 24.06-138.4-11.76-203-51.55 25.68-72.7 94.44-66.72 208.86z" fill="#c6919a" data-color="1"/>
            <path d="M1445.89 1908.58c-26.94 34.15-39.43 36.9-135.42 29.61-19.66-1.5-44 2.11-53.56-31.88 51.59-12.21 101.48-14 151.49-11.56 12.15.58 23.95 8.62 37.49 13.83z" fill="#c6919a" data-color="1"/>
            <path d="M1531.63 1913c51-26.51 132.07-26.3 175.46-.51-6.09 20.45-24.73 19.41-40 22.2-42.75 7.78-105.49-1.87-135.46-21.69z" fill="#c6919a" data-color="1"/>
            <path d="M984.05 1924.22c14.57-7.09 20.75-12.35 27.35-12.92 38.29-3.36 76.66-6.08 115.05-7.86a52.77 52.77 0 0 1 26.2 6.23c12.75 6.88 11.2 22.85-2.27 28.64a43.91 43.91 0 0 1-18 3.45c-41.51-1.08-83-2.39-124.5-4.45-5.15-.26-10.1-5.31-23.83-13.09z" fill="#c6919a" data-color="1"/>
            <path d="M1944 1917.43c-29.54 35.6-93.31 38.35-130.66 8.45 26.25-27.88 87.43-32.67 130.66-8.45z" fill="#c6919a" data-color="1"/>
            <path d="M2525.25 2200.7c-59.23 15.69-121.5 2.18-184.11 10.55 3.14 33.28 6.13 64.89 9.51 100.72 41.09 1 80.94 1.6 120.76 3.2 31 1.24 61.89 3.37 92.76 5.94 13.3 1.11 28.22 1.53 32.65 22.38-29.84 18.93-63.31 1.53-97.63 9-2.4 34.77-4.79 69.41-7.22 104.47 33.3 13.31 72-8.27 97.78 21.53-6.3 23.15-23.74 21.64-38.27 22.05-52.64 1.48-105.32 1.39-158 2.45q-185.93 3.72-371.82 8.25c-18.31.48-35.69 1.53-58.39-13.33 59-26.15 116.3-14.78 173.68-30.21v-118.94h-131.23l-2.37-8.39c8.27-3.92 16.33-10.7 24.83-11.32 77.18-5.63 154.42-10.37 231.68-14.92 16.56-1 33.23-.14 51.68-.14v-102.51h-181.89l-1.41-11.74c13.74-3.14 27.37-8.27 41.25-9.09 105.17-6.19 210.38-11.94 315.63-16.64 13.54-.61 27.39 5.55 41.1 8.58q-.48 9.06-.97 18.11zm-59.75 146.46h-281.76c2.75 42 5.32 81.3 8 122.82 89.3-1.89 173.75 6.54 258.95-3.41 5.05-40.57 9.41-75.76 14.81-119.41z" fill="#c6919a" data-color="1"/>
            <path d="M408.9 2560.51v-104.07c-39.49-21.42-88.22 10.14-135.55-23.8 50.95-21.36 96.63-16 141.31-16.44s89.64-.11 139.64-.11v-84.24c-49.73-14.92-101.5 9.64-151.89-7.58-.68-29.18 18.61-30.65 36.76-31.73 52.52-3.13 105.06-6.1 157.63-8 40.23-1.43 80.54-2.1 120.77-1.13 17.22.42 34.32 5.84 57.13 10-27 38.18-60.53 26.16-88.73 28.73-30.41 2.77-61.27.62-94 .62V2412c64.32 11.07 132.36-10.84 199.42 20.82C768 2458 738.47 2443.49 713.8 2456c-1.55 28.86-3.19 59.39-4.95 92.29l71.62 8.83c-19.53 26-40.46 24.86-59.16 26-64.94 4-129.93 7-194.93 9.71-82 3.45-164 6.36-246.07 9.2-10.52.36-21.11-1.15-41-2.36 10.94-12.37 15.94-23.48 23.08-25.09 24-5.41 48.59-8.23 73.11-10.52 22.87-2.12 45.91-2.3 73.4-3.55zm33.82 3.78 229.79-9.29c4.7-37.19 8.64-68.34 13-102.56H442.72z" fill="#c6919a" data-color="1"/>
        </g>
    </g>
</svg>
