<?xml version="1.0" encoding="UTF-8"?>
<svg data-bbox="-0.015 0.021 106.7 67.911" viewBox="0 0 106.69 67.86" xmlns="http://www.w3.org/2000/svg" data-type="color">
    <g>
        <g>
            <path d="M58.48 22.07c5.45-1.66 12.71.8 18.86 1.55a29.53 29.53 0 0 0 8.8-.09c2.55-.48 4.75-1.66 7.35-2 6-.88 9.09 4.18 6.86 9.67-1.88 4.66-7.79 7.59-14.41 7.45a47.29 47.29 0 0 0 2.81 3.87c6.67-.31 14 2.29 16.73 6.29.92 1.34 1.92 3.94.48 5.41a3.61 3.61 0 0 1-.19 4c1.43 4.35-3.3 4.53-7.16 4.83-2.2.18-4.59-.22-6.48 0-2.89.35-5.44 1.14-8.8 1.16-9.53.07-19-3.41-27.37-1.25a13.6 13.6 0 0 1-7.83 4.74c-3.48.63-7.5-.2-11.61-.39-3.76-.18-8 .26-12 0-3.63-.23-8.77-.74-11-2.42-.63-.47-1.17-1.6-1.65-1.74a11.34 11.34 0 0 0-2.8.1c-2.86 0-5.06-.41-6.77-1.65a4.87 4.87 0 0 1-2.24-5c.36-2.45 2.44-4.47 4.07-5.9a26.43 26.43 0 0 1 14.79-6.19 10.56 10.56 0 0 1 .1-4.25 15.43 15.43 0 0 1-10.45-2.91 37.37 37.37 0 0 1-3-2.7c-1.42-1.28-3-2.28-3.1-4.45a10.64 10.64 0 0 1 5.8-9.77c-.09-1.57.67-3.38 1.26-5 1.29-3.57 2.77-7 5.22-9.48 3.35-3.34 8-5.51 14-5.9 4.25-.3 8.97 1.79 11.64 3.36 3.55 2.08 6.29 5.84 9.58 8.8a57.34 57.34 0 0 1 8.51 9.86zm-20-7.83c1.94 5.34 0 12.1-1.36 16.44a27.57 27.57 0 0 0-1.64 6.09 8.28 8.28 0 0 0 1.45 5.61c4.39 5.62 13.51 1 17-2.22 2.58-2.37 5.06-5.23 5.32-9.67s-2-7.94-4.54-10.93a73 73 0 0 0-6.87-7.25c-2.58-2.31-4.41-4.88-7.25-6.87a21.09 21.09 0 0 0-10.26-3.87 20 20 0 0 0-9.76 2c-2.19 1-4.92 2.7-6.19 4.55-2.17 3.16-2.89 7-4.45 11 0 .11-.14.15 0 .2.51-.52 1.36-.71 1.84-1.26a1.85 1.85 0 0 1 1.45-2.61c.95-.15 1.28.37 1.54.19.14-.65-.12-1.35.58-1.35.87 0 .55 1.25.68 2a12.28 12.28 0 0 1 7.16 2.51c.44-.32 2.21-1.83 2.51-.77.18.61-.46.84-1.06 1.26-1.5 1-2 .83-3.39-.1a8.65 8.65 0 0 0-1.74-1c-1.09-.44-2.84-1.19-4.35-.77-.48.13-1.1.86-1.93 1.35C9.71 21 6.55 22.33 4.9 25.94a8.71 8.71 0 0 0-.9 4.55c.18 1 1.4 2.1 2.22 2.8 2.66 2.28 5.51 5.1 9.77 5.52a19.32 19.32 0 0 0 5.51-.49c1.75-.35 3.63-.49 4.84-1.16 1.51-.83 1.79-2.85 1.16-4.64-.42-1.18-3.06-4.15-1.45-4.45.85-.16 2.4 2.68 2.8 3.77.81 2.17.49 4.82-.87 6A5.78 5.78 0 0 0 34.2 40c-.9-4.35 1-8 2.13-11.9 1.22-4.08 2.42-9.35 1.06-13.44-.24-.76-1.16-1.48-.58-2.42 1.08-.15 1.36 1.21 1.65 2zm-25.55 3.39c.09-.18.37-.6 0-.68-.09.05-.21.62 0 .68zm65.76 11.7c2 2.64 3.62 5.59 5.9 7.73 6 .56 11.71-1.8 14-5.61 1.11-1.81 1.41-5.38 0-7-2.73-3.27-8.58-.09-12 .58-5.61 1.09-12.17-.25-17-1.16-3.62-.68-7.47-1.77-10.54-.68 3.85 7.24.44 14.06-4.06 18.18a18.25 18.25 0 0 1-10.64 5.13c-5.53.42-8-1.83-9.87-5.13-3.53.81-6-1-7.54-2.8-1.92.81-4.45 1-6.67 1.54-1 4.65 1.27 8.41 4.93 9.38a29.18 29.18 0 0 1 10.06-2.12c1.27-.06 3.34-.27 3.28.77 0 .89-2.37.72-3.19.77a33 33 0 0 0-10 2.13c-3.57 1.53-7.43 3.7-9.87 6.29-.7.74-2.1 2.37-2.22 3.77-.28 3.19 3.82 3.61 6.38 4.06a47.58 47.58 0 0 0 8.8.77c3.29 0 6.39-.3 9.28-.09 2.53.18 6 .8 9 .58a10.16 10.16 0 0 0 5.8-2.32c3.36-2.68 4.7-5.06 4.35-10.93 0-.77-.48-2.51.49-2.52s.86 3.19.87 4.36a15.64 15.64 0 0 1-.49 4.74c-.23.69-.89 1.51-.77 1.93 10-2.51 19.49 2 30.08.77-2.22-.51-5.05-1-7.16-2.41-.65-.45-1.27-1.24-2.13-1.94-.3-.24-2.39-1.88-.77-2.22.62-.13 1.51 1 1.93 1.35s1.4 1.25 1.84 1.55C84 61 91.29 61.63 96.39 61.63c2.36 0 8-.05 8.22-2 0-.48-.52-1.14-.48-1.65.05-.73.84-1.23.87-1.83s-.71-1.4-.68-2 .84-1.24.87-1.94a5.31 5.31 0 0 0-1.16-2.8 12.27 12.27 0 0 0-3.1-2.42 19.92 19.92 0 0 0-8-3c-1.48-.22-3.35 0-4.84-.48-1.3-.4-2.43-2.67-3.48-4s-2.22-2.71-3.09-3.87c-1.65-2.18-2.66-4.14-4.16-6.19-.39-.52-1.43-1.19-1-2.12 1.21-.13 1.77 1.24 2.33 2zM3.93 53c-1.2 1.23-2.64 3.2-2.42 4.93.46 3.53 6 4 10.16 3.68.33-3.51 2.67-5.61 4.93-7.33a58.76 58.76 0 0 1 6.48-4c-1.84-1-2.72-2.88-3.77-4.64A25.68 25.68 0 0 0 3.93 53z" fill="#f09021" fill-rule="evenodd" data-color="1"/>
            <path d="M36.62 4.67c.27.27.37 1.61-.1 1.74-.76-.06-.68-1.8.1-1.74z" fill="#f09021" fill-rule="evenodd" data-color="1"/>
            <path d="M37.3 7.08c0-.68-.64-2.56.48-2.12.09.55.68 2.31-.48 2.12z" fill="#f09021" fill-rule="evenodd" data-color="1"/>
            <path d="M39 5.25c.34.46.26 1.86-.19 2.12-.76.02-.57-2.23.19-2.12z" fill="#f09021" fill-rule="evenodd" data-color="1"/>
            <path d="M40.2 6.12a2.49 2.49 0 0 1-.2 2.32c-.77-.07-.62-2.36.2-2.32z" fill="#f09021" fill-rule="evenodd" data-color="1"/>
            <path d="M41.36 7c.25.43.41 2-.1 2.32-.74.04-.81-2.52.1-2.32z" fill="#f09021" fill-rule="evenodd" data-color="1"/>
            <path d="M42.52 7.86c.33.67.32 3-.39 2.9-.44-.44-.52-2.87.39-2.9z" fill="#f09021" fill-rule="evenodd" data-color="1"/>
            <path d="M26.56 24.69c-4.43.81-2.68-6.77.78-4.55 1.45.94.97 4.03-.78 4.55zm-.77-2.62c.26.25.55 0 .48-.38-.12 0-.13-.13-.29-.1.07.3-.26.19-.19.48z" fill="#f09021" fill-rule="evenodd" data-color="1"/>
            <path d="M9.93 28.26c.11.91-.16 1.58 0 2.13.4 1.34 2.41 1 3.09 2-.73 1.55-2.89-.15-3.67-.68-.61.27-1.37 1.08-2.13.59-.45-1.17 1.09-1.08 1.55-1.65v-2.19c-.35-.62-1.2-.73-1.26-1.65-1.73 0-1.53-2.4-.77-3.38a4.85 4.85 0 0 1 4.93-1.26 4.43 4.43 0 0 1 2.61 2.9c.4 2.76-2.7 2.28-4.35 3.19zM11.67 25a.46.46 0 0 1 .29.29c.35 0 .47-.18.77-.2-.05-.72-1.14-1.32-1.06-.09z" fill="#f09021" fill-rule="evenodd" data-color="1"/>
            <path d="M93.39 25.17A4.64 4.64 0 0 1 92 28.26c-.91-.82.66-2.13.87-3.09z" fill="#f09021" fill-rule="evenodd" data-color="1"/>
            <path d="M94.26 25.17c.4.81-.36 1.89-.77 2.51-.18 0-.21-.11-.39-.09 0-.82.29-2.16 1.16-2.42z" fill="#f09021" fill-rule="evenodd" data-color="1"/>
            <path d="M95.52 25.27c-.06.68 0 1.45-.87 1.35-.21-.54.1-1.8.87-1.35z" fill="#f09021" fill-rule="evenodd" data-color="1"/>
            <path d="M40 28.84a3.21 3.21 0 0 1-1.94 2.23A2.17 2.17 0 0 1 40 28.84z" fill="#f09021" fill-rule="evenodd" data-color="1"/>
            <path d="M38.46 31.65a13 13 0 0 0 1.74-2.13" fill="#f09021" fill-rule="evenodd" data-color="1"/>
            <path d="M41.36 31.16a10.14 10.14 0 0 1-2 2.91c-.34.39-.79.85-1.16 1.25s-.75 1.11-1.36.68a8.12 8.12 0 0 1 1.84-2.51c.74-.87 1.6-1.82 2.32-2.52.12.03.22.15.36.19z" fill="#f09021" fill-rule="evenodd" data-color="1"/>
            <path d="M42.13 32.71c.19.79-.69 1.34-1.16 1.84-1 1.08-2.11 2.1-3.09 3.29-.45.54-.78 1.52-1.65 1.35-.25-.71.52-1.31 1-1.84 1.27-1.46 3-3.34 4.35-4.64.07-.06.33.07.29-.09a.44.44 0 0 0 .26.09z" fill="#f09021" fill-rule="evenodd" data-color="1"/>
            <path d="M41.94 34.94c-.29 1.24-1.45 2.06-2.22 3s-1.33 2.24-2.52 2.41c0-1.08 1.14-2 1.84-2.8s1.5-1.72 2.22-2.52c0-.1.2-.06.2-.19a.63.63 0 0 1 .48.1z" fill="#f09021" fill-rule="evenodd" data-color="1"/>
            <path d="M41.84 37.45A6.23 6.23 0 0 1 40.1 40c-.56.65-1.24 1.94-2.22 1.54.9-1.64 2.32-2.77 3.48-4.16a.68.68 0 0 1 .48.07z" fill="#f09021" fill-rule="evenodd" data-color="1"/>
            <path d="M42.13 39.19c-.09.79-.9 1.34-1.45 1.94s-.91 1.68-1.74 1.16c.52-1.45 1.86-2.07 2.61-3.29.34-.08.45.11.58.19z" fill="#f09021" fill-rule="evenodd" data-color="1"/>
            <path d="M42.71 40.64c0 .6-.54 1-.87 1.36s-.7 1-1.35.87c-.15-1.14 1.21-1.55 1.64-2.42.34-.08.41.11.58.19z" fill="#f09021" fill-rule="evenodd" data-color="1"/>
            <path d="M43.78 41.22a2.75 2.75 0 0 1-1.94 1.84c-.09-.91 1.16-2.14 1.94-1.84z" fill="#f09021" fill-rule="evenodd" data-color="1"/>
            <path d="M44.55 41.8c.08.71-.77 1.71-1.64 1.45a1.6 1.6 0 0 1 1.64-1.45z" fill="#f09021" fill-rule="evenodd" data-color="1"/>
            <path d="M2.48 58.24c.32-1.06 1.28-2.41 2.23-2.24" fill="#f09021" fill-rule="evenodd" data-color="1"/>
            <path d="M90.78 56.12a3.62 3.62 0 0 1-1.93 3.09c-.34-1.11 1.12-2 1.45-3.09z" fill="#f09021" fill-rule="evenodd" data-color="1"/>
            <path d="M5.87 56.5a5.24 5.24 0 0 1-1.94 2.33" fill="#f09021" fill-rule="evenodd" data-color="1"/>
            <path d="M7.12 56.6c.24.68-.58 1.1-1 1.55s-.61 1.25-1.32 1.26" fill="#f09021" fill-rule="evenodd" data-color="1"/>
            <path d="M92.13 56.89c-.37 1-.93 2.69-2 2.32" fill="#f09021" fill-rule="evenodd" data-color="1"/>
            <path d="M93.29 57c.08.9-.55 2.38-1.64 2.13.4-.88.62-1.91 1.64-2.13z" fill="#f09021" fill-rule="evenodd" data-color="1"/>
            <path d="M8.09 57.37a3.6 3.6 0 0 1-2 2.42" fill="#f09021" fill-rule="evenodd" data-color="1"/>
            <path d="M94.74 57.47c-.24 1-.51 1.87-1.54 2-.08-.79.74-2.36 1.54-2z" fill="#f09021" fill-rule="evenodd" data-color="1"/>
            <path d="M96 57.66c-.25.72-.38 1.56-1.35 1.55-.08-.08-.06-.26-.2-.29" fill="#f09021" fill-rule="evenodd" data-color="1"/>
            <path d="M9.64 57.57A3.3 3.3 0 0 1 7.8 59.7c-.39-.93.89-2.23 1.84-2.13z" fill="#f09021" fill-rule="evenodd" data-color="1"/>
            <path d="M15.15 62.69c-.46-1.06 1.08-1.66 1.55-2.41" fill="#f09021" fill-rule="evenodd" data-color="1"/>
            <path d="M18 61a2.53 2.53 0 0 1-1.75 1.94A1.78 1.78 0 0 1 18 61z" fill="#f09021" fill-rule="evenodd" data-color="1"/>
            <path d="M18.92 61.34A2.07 2.07 0 0 1 17.47 63c-.47-.73.77-2.08 1.45-1.66z" fill="#f09021" fill-rule="evenodd" data-color="1"/>
            <path d="M20.28 61.73c-.09.77-.82 1.74-1.55 1.25.18-.69.76-1.48 1.55-1.25z" fill="#f09021" fill-rule="evenodd" data-color="1"/>
            <path d="M22.21 61.92c.07.8-.77 1.48-1.55 1.74-.45-.77.73-1.94 1.55-1.74z" fill="#f09021" fill-rule="evenodd" data-color="1"/>
            <path d="M21.82 63.85c.2-.84 1-2 1.84-1.54" fill="#f09021" fill-rule="evenodd" data-color="1"/>
        </g>
    </g>
</svg>
