<?xml version="1.0" encoding="UTF-8"?>
<svg data-bbox="-0.001 0.029 150.562 108.651" viewBox="0 0 150.57 108.64" xmlns="http://www.w3.org/2000/svg" data-type="color">
    <g>
        <g>
            <path d="M16 24.49c3.19-.73 3.23 4.39.29 4.35-2.62-.03-2.68-3.84-.29-4.35zm.1 2.22a1.24 1.24 0 0 0 1.06-.58c-.36-.8-1.56-.13-1.1.58z" fill="#f09021" fill-rule="evenodd" data-color="1"/>
            <path d="M89.94 26.23a17.68 17.68 0 0 1-2 5.9c-.24.48-.59 1.35-1.25 1.16" fill="#f09021" fill-rule="evenodd" data-color="1"/>
            <path d="M90.33 29.91c-.41 1-.67 2.43-1.74 2.8" fill="#f09021" fill-rule="evenodd" data-color="1"/>
            <path d="M87.33 30c-.36.85-.65 2-1.54 2.32" fill="#f09021" fill-rule="evenodd" data-color="1"/>
            <path d="M92.17 27.49c.38.49 0 1.53-.29 2.22s-.6 1.8-1.36 1.16" fill="#f09021" fill-rule="evenodd" data-color="1"/>
            <path d="M84.92 31.16c-.33-1 .65-2.28 1.06-3.19" fill="#f09021" fill-rule="evenodd" data-color="1"/>
            <path d="M21.76 34.74c.72.33.89 1.68.68 2.61" fill="#f09021" fill-rule="evenodd" data-color="1"/>
            <path d="M20.6 36.87c1-.59 1.16 1.54 1 2.42" fill="#f09021" fill-rule="evenodd" data-color="1"/>
            <path d="M106.48 40.93c.29-1.27.46-2.69.78-3.77" fill="#f09021" fill-rule="evenodd" data-color="1"/>
            <path d="M104.84 42.28c-.14-1.22.59-3.19.67-4.83" fill="#f09021" fill-rule="evenodd" data-color="1"/>
            <path d="M20.31 39.09c.21.59.91 2.23.1 2.61" fill="#f09021" fill-rule="evenodd" data-color="1"/>
            <path d="M109.29 39.29a8 8 0 0 1-.39 3.19" fill="#f09021" fill-rule="evenodd" data-color="1"/>
            <path d="M82.69 40.54c0 .65-.29 2.2-1.26 1.84" fill="#f09021" fill-rule="evenodd" data-color="1"/>
            <path d="M81.53 40.93c-.27 1-.38 2.14-1.45 2.32" fill="#f09021" fill-rule="evenodd" data-color="1"/>
            <path d="M79.89 41.12c.15.51-.56 3.25-1.65 2.62" fill="#f09021" fill-rule="evenodd" data-color="1"/>
            <path d="M19.63 44.51c-.85-.47-.58-2.07-.87-3.1" fill="#f09021" fill-rule="evenodd" data-color="1"/>
            <path d="M108.8 46.06c.23-.94.69-2.48 1-3.68" fill="#f09021" fill-rule="evenodd" data-color="1"/>
            <path d="M147 64.24a5 5 0 0 1-.19 2.13" fill="#f09021" fill-rule="evenodd" data-color="1"/>
            <path d="M143.91 70.43c-.15-1.42.58-3.52 1-5" fill="#f09021" fill-rule="evenodd" data-color="1"/>
            <path d="M54.74 66.75c-.11.9-1 1.36-1.55 1.84a4.94 4.94 0 0 1-2 1.35" fill="#f09021" fill-rule="evenodd" data-color="1"/>
            <path d="M142.94 69.85c-.24.9-.31 2.22-1.16 2.51" fill="#f09021" fill-rule="evenodd" data-color="1"/>
            <path d="M55.51 68.49c-.38.77-1.27 1.22-1.93 1.74s-1.25 1.38-2.13 1.36" fill="#f09021" fill-rule="evenodd" data-color="1"/>
            <path d="M139.17 74.68c-.29-.73.24-1.68.48-2.61" fill="#f09021" fill-rule="evenodd" data-color="1"/>
            <path d="M51.55 72.75c.58-.65 1.33-1.63 2.32-1.55" fill="#f09021" fill-rule="evenodd" data-color="1"/>
            <path d="M138.4 71.78c-.37 1-.09 2.62-1.26 2.81" fill="#f09021" fill-rule="evenodd" data-color="1"/>
            <path d="M12.48 96.06c.25-1 1.63-2.07 2.41-1.55" fill="#f09021" fill-rule="evenodd" data-color="1"/>
            <path d="M13.64 96.64a2.43 2.43 0 0 1 2.61-1.55" fill="#f09021" fill-rule="evenodd" data-color="1"/>
            <path d="M15.28 97.22c-.07-.52.69-.86 1.16-1.16.64-.42 1.18-1 2-.78" fill="#f09021" fill-rule="evenodd" data-color="1"/>
            <path d="M21 95.77c-.11.77-1.12 1.14-1.74 1.54s-1.33 1.23-2 .78" fill="#f09021" fill-rule="evenodd" data-color="1"/>
            <path d="M19.25 99.05c-.2-1 1-1.24 1.64-1.64s1.42-1 2-1.35" fill="#f09021" fill-rule="evenodd" data-color="1"/>
            <path d="M23.89 98.09c-.43.67-1.52 1.58-2.32 1.25" fill="#f09021" fill-rule="evenodd" data-color="1"/>
            <path d="M25 98.76a1.21 1.21 0 0 1-1.54 1.07A1.2 1.2 0 0 1 25 98.76" fill="#f09021" fill-rule="evenodd" data-color="1"/>
            <path d="M26.31 99.34a1 1 0 0 1-1.26 1 .9.9 0 0 1 1.26-1" fill="#f09021" fill-rule="evenodd" data-color="1"/>
            <path d="M55.32 29a6.12 6.12 0 0 0 2.42 2.33c.73.46 2.38 1.67 3.19 1.64s1.69-1.27 2.42-1.45c2.42-.62 5.21-.69 8-1.16a54.22 54.22 0 0 0 13.74-4.64c2.91-1.34 7.35-2.76 9.38-.29a21.67 21.67 0 0 1 12 1.83c2.73-4 10.8-4.75 14.7-1.06s5.09 10.62 8 15.38a17.28 17.28 0 0 0 3.42 4.42c.74.58 2.63 1 2.81 1.93.21 1.17-1.21 2.46-1.94 3.2-.94.95-1.78 1.77-2.61 2.51-2.06 1.86-3.54 3.61-6 4.25-5.47 1.44-5.47-6.49-6.19-10.83-.6-3.59-1.8-7-4.74-8.51a37.25 37.25 0 0 1 .19 7.06c-.15 1.34-.59 2.6-.58 3.68a10.51 10.51 0 0 0 1.74 4.83 14.1 14.1 0 0 0 3.29 3.68c3.2 2.14 6 3 7.93 6.48 1.73 3.17 2.51 6.15 4.06 10.35 3.9-2.81 7.14-6.09 10.93-9.48 1.1-1 2.46-2.7 3.68-3.19 3-1.21 6.41 1.41 5.12 4.74-.38 1-1.65 2.18-2.61 3.48-5.81 7.85-14.17 14.61-22.15 20.11a103.07 103.07 0 0 1-33.75 14.61 126 126 0 0 1-20.7 3.48c-18.09 1.26-37.15-1.53-51.64-6.87-1.27-.46-2.78-1.08-4.25-1.74-1.95-.87-4.44-1.52-5.13-3.29a3.32 3.32 0 0 1 1.64-4.35c1.64-.6 4.45-.1 6.19.19 5.76 1 11.29 2.49 16.54 3.49 1.43-7.88 2.64-16.81 3.88-25.29a12.32 12.32 0 0 0 .39-3.28c-.21-.92-1.62-2.1-2.13-3-1.81-3.17-2.42-7.73-2.32-12.86.15-7.94 2.06-17.72-4.45-20.31-.24 1.17-1.93 2-2.23 3.09a8.68 8.68 0 0 0 0 1.84c-.26 2.68-1.5 5.09-2.51 7.45-1.13 2.63-2.77 5.78-5 6.76a7 7 0 0 1-5.32-.29c-4.28-2.4-2.86-10.06-4.54-15.37-1.95-6.07-6.63-9.1-5.45-16.55a24.69 24.69 0 0 0-2.61-2.13C1.45 15.3.05 14.21 0 13.27-.06 12 2.44 9.81 3.19 9.11c1.38-1.27 2.67-2.4 4-3.38.45-.83-.44-4.41 1-4.84.85-.26 1.47.39 2.12.87a17.31 17.31 0 0 0 1.59 1.36c.08 0 2.22-1 2.61-1.16a32.51 32.51 0 0 1 16-1.55 28.13 28.13 0 0 1 10.3 4.06A35.57 35.57 0 0 1 52 14.53a48.8 48.8 0 0 1 5.52 8.7c1.24 2.77.17 4.68-2.2 5.77zM22.54 1.67c-.1 1.25.35 2.8.38 4.25a3.86 3.86 0 0 1 1.16-.1c.05-1.46-.17-2.66-.09-4.15a2.53 2.53 0 0 0-1.45 0zM25 5.73c.18.11.72-.07 1.16 0a30.39 30.39 0 0 1 0-4.16h-1.4c.02 1.43.06 2.84.24 4.16zm-3.53-4.06c-.2.22-.83 0-1.06.19.27 1.41.52 2.83.77 4.25.42.07.55-.16 1-.09-.34-1.38-.18-3.25-.71-4.35zm5.42 4.15a13.21 13.21 0 0 0 1.45.1c.2-1.32.27-2.76.38-4.16a9.76 9.76 0 0 0-1.83-.09zm2.22.29c.63 0 1 .23 1.65.2.17-1.38.26-2.83.48-4.16a11.27 11.27 0 0 0-1.74-.29 35.1 35.1 0 0 1-.39 4.25zm-9.38-4.06c-.32-.15-1 .09-1.45.1.37 1.47.84 2.83 1.16 4.35a2.11 2.11 0 0 1 .87-.1c-.01-1.63-.53-2.75-.58-4.35zm11.9 4.45a6.37 6.37 0 0 0 1.25.29c.32-1.33.69-2.6 1-4a6.14 6.14 0 0 0-1.93-.49c-.03 1.53-.35 2.7-.32 4.2zM16.44 2.63c.41 1.49 1 2.76 1.45 4.26.27 0 .51-.14.78-.2-.31-1.46-.81-2.69-1.07-4.25-.5-.05-.71.18-1.16.19zM8.51 8.14c.12 1.21 1.22 2.8 1.16 3.49s-1.11 1.53-1.54 2.12A9.27 9.27 0 0 0 6 19.17c-.35 5.15 2.83 8 4.64 12.09a25.09 25.09 0 0 1 1.84 6.58c.38 2.42.11 5.43.77 7.73a4.74 4.74 0 0 0 5.9 3.43c1.87-.57 3.32-3.76 4.26-5.81 1.1-2.41 2.41-5.19 2.61-7.54a18.62 18.62 0 0 1 0-2.13c.31-1 1.3-1.32 1.83-2.12a18.5 18.5 0 0 0 2.71-9.48c0-.56-.58-1.72.29-1.94 1.81-.44 1.27 3.63 1.07 4.94A25.25 25.25 0 0 1 30.27 30c6.45 2.24 6.19 11.4 5.61 19-.48 6.28.22 11.94 2.81 15.57.44.63 1 1.11 1.16 1.65.49 2.33-.31 5.45-.58 7.74C38.36 81.62 37.18 89.18 36 96c.57.14 1.23.19 1.84.29.45-7.28 3.59-13.47 4.73-20.5.39-2.38 1.07-5 .68-7.35-.17-1.08-.61-1.92-.77-2.9-.82-5.07 1.66-8.89 4.74-10.35a8.6 8.6 0 0 1 6.78-.33c1.18.45 3.33 1.56 2 2.51-1.31.28-1.66-.73-2.52-1.06a8.29 8.29 0 0 0-3.77-.39c-4 .51-6.82 5-6 9.87.15.85.54 1.43.68 2.12.52 2.55 0 5.15-.38 7.64a48.22 48.22 0 0 1-1.36 7.16c-1.33 4.45-3.44 9.09-3.09 13.73 1.58.22 3.37.24 5 .39 2.22-5.42 3.26-11.41 5.7-17.41 2.31-5.69 7.52-8.69 8.32-14.8.06-.47-.57-3.76.19-3.86 1-.14 1.21 2.83 1.07 4.15a13.81 13.81 0 0 1-.78 3c-.34.93-1.07 1.86-1 2.52 6.22 1 11.81-1.93 15.95-4.35.75-.44 4.12-2 4.35-2.71s-.32-3.25-.48-4.16c-.72-4.12-1.72-8-2.71-11.51-5.75 0-7-4.5-9.18-8-2.73-.92-6.16-1.64-5.81-5.32-4.72-1.63-7.49-5.19-9.76-9-4.68-7.78-9.72-15.54-20-17.51a26.46 26.46 0 0 0-12.09.29c-.87.23-2.9 1.23-3.68 1.07-.52-.11-.92-1.09-1.35-1.74-1.27-1.88-3-4-4.55-4.93a42.55 42.55 0 0 0-.24 5.58zm7-5.22a2.14 2.14 0 0 1-1.07.29c.53 1.47 1.3 2.7 1.74 4.26.42 0 .57-.27 1-.29-.57-1.46-.87-3.13-1.7-4.26zm18.15 4.16c.57 0 .85.37 1.45.39.27-1.31.67-2.49.87-3.87-.49-.12-.84-.38-1.36-.48-.36 1.27-.62 2.64-.96 3.96zM12.77 3.89c.77 1.39 1.79 2.53 2.61 3.87a15.45 15.45 0 0 0-1.84-4.16c-.34.01-.43.28-.77.29zm23.11 3.87a2 2 0 0 0 1.12.48c.3-1.21.78-2.25 1.07-3.48A6.22 6.22 0 0 0 36.75 4c-.33 1.21-.57 2.51-.87 3.76zm1.84 1c.36.15.6.42 1 .58.43-1.15.76-2.4 1.16-3.58-.32-.2-.63-.4-1-.58-.44 1.11-.77 2.35-1.16 3.55zm1.74 1.06c.28.2.48.49.87.58.41-1.23 1-2.27 1.45-3.48a6.36 6.36 0 0 0-1.26-.78c-.3 1.25-.79 2.34-1.06 3.65zM8.13 11.05a8.53 8.53 0 0 1-.88-3.68c-.48 0-1.06.73-1.45 1.16.81.74 1.61 2 2.33 2.52zM40.91 11c.39.09.52.45.87.58.47-1.24 1.09-2.32 1.64-3.48a1.83 1.83 0 0 0-1-.68c-.53 1.09-.96 2.37-1.51 3.58zm1.55 1.16c.18.3.53.44.77.68.61-1.2 1.41-2.2 2-3.39-.47-.23-.68-.74-1.25-.87-.45 1.18-1.14 2.21-1.52 3.53zM5.13 9c-.25.45-.8.62-1 1.16A16.13 16.13 0 0 1 7 13a2.18 2.18 0 0 0 .88-1c-1.03-.91-1.71-2.13-2.75-3zm38.68 4.25a1.55 1.55 0 0 0 .87.87c.7-1.11 1.62-2 2.32-3.09-.43-.31-.72-.76-1.16-1.07-.69 1.1-1.29 2.28-2.03 3.31zM3.48 10.66c-.25.33-.52.64-.77 1 1.11.94 2.1 2 3.29 2.9a4.88 4.88 0 0 0 .58-.87 26.62 26.62 0 0 0-3.1-3.03zm41.69 4.06c0 .42.48.36.48.77a12.85 12.85 0 0 0 2.8-2.9c-.29-.31-.48-.73-.87-1-.82 1.05-1.58 2.14-2.41 3.13zm-43-2.42c-.22.43-.61.69-.77 1.16a26.28 26.28 0 0 0 3.77 3c.19-.35.31-.78.48-1.16-1.33-.87-2.14-2.22-3.52-3zm46.81 1a20.45 20.45 0 0 1-2.61 2.81A2.38 2.38 0 0 0 47 17c.9-1 1.83-1.91 2.81-2.8a2.22 2.22 0 0 0-.87-.93zm-1.45 4.55a3.75 3.75 0 0 1 .77 1.06 37.34 37.34 0 0 0 2.9-3c-.36-.31-.44-.91-1-1.06-.74 1.15-1.98 1.8-2.71 2.97zm1.35 1.93c.26.1.26.45.48.58 1-.95 2.21-1.6 3-2.71a5.87 5.87 0 0 0-.77-1.06c-.93 1.05-1.94 2-2.75 3.16zm3.87-1.35c-.82 1.05-2.1 1.64-2.9 2.7a2.14 2.14 0 0 0 .68 1c.95-.95 2.18-1.62 3.09-2.61-.39-.35-.46-.93-.91-1.12zm1.16 1.83c-.89 1-2.19 1.61-3 2.71.35.36.45 1 .87 1.26a22.9 22.9 0 0 0 3.1-2.61c-.39-.46-.49-1.14-1.01-1.39zm-1.74 4.65c.07.51.46.69.58 1.16a16.4 16.4 0 0 0 3.19-2.52 4.91 4.91 0 0 0-.68-1.16 23.73 23.73 0 0 1-3.13 2.49zm1.16 1.93c.37.31.44.91 1 1.06 1.15-.71 3.07-1.72 1.93-3.57-.92.92-2.07 1.58-2.97 2.48zm66.73.48a9.52 9.52 0 0 0-9.48-1.45c-1.13.47-2.42 1.15-2.8 2.23.71-.06 1.33-.67 2.13-1a9.71 9.71 0 0 1 5.41-.39c4 1.07 6.44 6.1 8.71 9 .35.45.75 1.17 1.16 1.06-1.53-3.13-2.55-7.14-5.19-9.48zm-36.98 1.04a39.06 39.06 0 0 1-15 4 19.62 19.62 0 0 0-3.87.68c-1 .33-2.56.91-2.52 2.22 0 1 1.56 1.78 2.61 2.23a16.72 16.72 0 0 0 4 1c9.36 1.24 18.09-1.61 22.53-6 1-.94 3.28-3.62 2.61-5.61-.39-1.16-2.1-1.46-3.57-1.26-2.69.29-4.57 1.64-6.79 2.74zm28.24 29.4c-.61-.07-.6-.74-.49-1.74.56-5 2.58-10.86 1.65-16.44C111 30.87 105.2 26 95.17 26.52a10.83 10.83 0 0 1-4.07 7.74c-.63.53-1.5.84-1.83 1.45a8.74 8.74 0 0 0-.49 2.13c-.81 3.07-2.93 4.94-4.93 6.77 2.1 3.93 2.87 9.18 3.58 14.5.85-.28 1.88-.66 3.09-1.06.9-.3 2.41-1 3.39-.78.38.11 1.27 1.32 1.64 1.65.62.55 1.32 1.06 1.84 1.45 4 3.09 8.91 3.86 15.09 4.74 7.65 1.08 10.86 7.51 13.52 12.89a13.23 13.23 0 0 0 3.28-2.32c-2.24-5.2-2.84-10.86-7-13.93-2.11-1.57-4.73-2.37-6.38-4.35a28.14 28.14 0 0 1-3.1-5.12c-.41.91.13 5.66-1.48 5.48zm15.08-18.18c-4.64-3.19-5.92-9.75-11.41-12.09-2.48-.29-5 0-6.38 1.25.65.7 1.32-.31 2-.58a7.07 7.07 0 0 1 2.8-.38c4.33.34 6.39 4.5 8.42 7.64 2.28 3.52 4.5 6.69 7.25 8.9-.87-1.59-1.9-3.03-2.68-4.74zm-6.19-5c-1.54-3.41-6.17-8-10.54-4.94.06.37.34.5.49.78 4.61-1.75 8.57 1.81 10.05 4.13zm3.1 7c-1.86-3-3.36-6.38-5.61-8.61-1.3-1.28-4.77-3-7-1.74.33.75 1 .48 1.83.58 5 .59 7.62 5.43 9.87 9.09 2.51 4.09 4.84 8 8.51 10.45a2.78 2.78 0 0 0 1.35-1.55 19.78 19.78 0 0 1-8.95-8.29zm-11.12-8A8.56 8.56 0 0 1 117.6 36c4.69 4.63 6 13.31 11 17.41a5.72 5.72 0 0 0 1.54-1.36c-4-2.61-6.23-7-9-11.51-2-3.27-4.78-7.9-9.38-8-.06 0-.11 0-.1.09a5.27 5.27 0 0 1 .53.85zm5.41 3.78c-1.34-1.21-2.71-2.9-5-2.81.15 0 .09.23.1.39a9.14 9.14 0 0 1 4.9 2.32zm-1 1.06c2.66 2.66 3.39 8 4.25 13 .4 2.27.84 5.9 3.68 5.12-2-2.18-3.23-5.26-4.06-8.89-1.24-5.34-2.16-10.76-7.45-11.8.09.45.29.8.38 1.26a4.46 4.46 0 0 1 3.24 1.21zm-48.42 1.64c1.33 2.7 2.8 5.74 6.1 6.09 6.29.68 12.83-5 13.44-9.67-4.8 2.82-12.06 4.36-19.54 3.58zm54.07-2.22a5.07 5.07 0 0 0-.78-1.26 5.18 5.18 0 0 0 .78 1.26zm3.48 18c.74-.42 1.32-1 2-1.45-4.7-4-5.8-12.19-9.87-16.53 3.98 4.64 2.99 14.24 7.87 17.96zm6.09-7.64c.53.25 1.43 1.14 1.93.2-5.08-1.76-8.23-6-11-9.67 2.15 3.72 4.98 7.56 9.07 9.45zm-51 14.12A38.76 38.76 0 0 1 85.5 60c-.42-.68.37-.71.38-1.25-.3.14-.67.11-.67-.29s.76-.84.38-1.46c-.07.25-.31.34-.67.29 0-.19-.27-.12-.2-.38.26-.48.83-.66.78-1.45-.11-.18-.8.23-.87-.2.15-.77.88-.69.58-1.74-.35.19-.74.09-.78-.29.16-.32.75-.73.39-1.25-.17.25-.64 0-.58-.29s.52-.52.39-1.17c-.38.1-.8.34-.88-.19.08-.47.79-.72.49-1.26-.11-.22-.3.28-.58.2 0-.19-.27-.13-.2-.39-.06-.52.48-.42.49-.87 0-.13-.14-.18-.1-.39-.2-.14-.95.41-1-.29.1-.43.73-.57.49-1.06-.35 0-.36.36-.78.29 0-.19-.26-.12-.19-.39 0-.45.55-.42.58-.87a16.49 16.49 0 0 1-5.71 2.32c-.26.07-.79-.2-.77.39.27.26.4-.17.77-.1 0 .2.27.13.2.39 0 .47-.6.3-.58.77a.62.62 0 0 1 .09.49c.16.15.54-.14.68.19.17.59-.39.45-.39.87.15.08.14.31.2.49.39 0 .67 0 .67.38-.22.4-.48.56-.29 1.16.37-.08.75-.18.78.29s-.66.56-.39 1.26c.36-.07.72-.15.77.29s-.55.35-.48.87c.11 0 .11.15.1.29.21-.06.72-.24.77.1 0 .62-.89 1-.29 1.64.13-.27.48-.15.58.1-.06.67-.81.94-.19 1.55.09-.17.18-.34.48-.29.14.08.31.14.29.38-.09.43-.53.5-.67.87a.87.87 0 0 0 .19.68c.08-.21.19-.39.48-.39s.31.15.29.39c0 .63-.74.55-.67 1.26.14.2.33-.37.67-.29s.27.55.32.65zm40.33 10.35a16.26 16.26 0 0 0-5-4.83c-1.73-.95-4.08-1.23-6.28-1.55a44.34 44.34 0 0 1-6.68-1.29 21.31 21.31 0 0 1-7.54-4.35c-.8-.7-1.43-1.57-2.13-1.84-.5-.19-1.58.62-2.22.58a24 24 0 0 0 6.57 6c2.81 1.81 5.77 2.48 9.58 3 4.06.54 6.69 1.45 9 3.57a32.43 32.43 0 0 1 5.6 7.04 2.16 2.16 0 0 1 .49 1.36 6.06 6.06 0 0 0 2.12-1.45 20.7 20.7 0 0 0-3.48-6.26zM75.63 67c-4.74 2.78-11.16 6-18.18 4.45A30.55 30.55 0 0 0 50.68 83c-1.52 4.53-2.94 9.41-4.26 13.93 11.78-.27 22.67.42 32.4-1.16 3.2-.52 6.27-1.42 9.38-2.13a128.12 128.12 0 0 0 33.37-12.48c-1.08-1.7-2.35-3.5-3.68-5.22-1.2-1.57-3-3.88-4.83-4.64-4.46-1.9-9.39-1.19-13.45-3.1A22.2 22.2 0 0 1 95 65a22.08 22.08 0 0 1-4.83-5.22C85 61.5 80.29 64.31 75.63 67zm70.6-4c-8.38 7.19-15.12 14.24-24.85 19.92-2.28 1.33-4.92 2.44-7.55 3.68a77.32 77.32 0 0 1-7.83 3.46c-11.08 3.73-22.74 7.44-36.46 8.12s-28.15.82-40.43-1.93c-4.18-1-9-2.5-13.83-3-1.87-.19-3.88.14-4.16 1.26-.53 2.19 1.62 2.75 3.1 3.38 10 4.23 21.71 7 33.94 8.42a114.17 114.17 0 0 0 33-.78c3.42-.63 6.69-1.46 10-2.12a99.45 99.45 0 0 0 18.19-6 82.2 82.2 0 0 0 15.57-8.61c8.13-5.67 16-12.23 22-20.21.8-1.07 2.35-2.7 2.22-3.87a2.23 2.23 0 0 0-2.72-1.72c-.07 0-.19 0-.19.08z" fill="#f09021" fill-rule="evenodd" data-color="1"/>
        </g>
    </g>
</svg>
