<?xml version="1.0" encoding="UTF-8"?>
<svg data-bbox="0.001 0 79.456 80.821" viewBox="0 0 79.46 80.82" xmlns="http://www.w3.org/2000/svg" data-type="color">
    <g>
        <g>
            <path d="M16.41 13.44c-.66 1-2-.38-2-.87-.05-1.39 2.01-.11 2 .87z" fill="#f09021" fill-rule="evenodd" data-color="1"/>
            <path d="M14.67 16.63a2.73 2.73 0 0 1-.1 3c-.67.69-3 .62-3.1-.38s2.01-3.03 3.2-2.62zm-1.46 2c.37.07.48-.11.49-.39-.28.04-.36.26-.49.43z" fill="#f09021" fill-rule="evenodd" data-color="1"/>
            <path d="M9.06 17.5c.36.44 1.28 2.05.38 2.33s-1.94-2.3-.38-2.33z" fill="#f09021" fill-rule="evenodd" data-color="1"/>
            <path d="M22 5.61a18.06 18.06 0 0 1 9.47 2.71 7.37 7.37 0 0 1 4.26-.39c.88.14 1.72.66 2.32.68s1.52-.58 2.32-.78a16.5 16.5 0 0 1 2.71-.38A40.2 40.2 0 0 1 58.57 10c1.5-1.17 4.85-.25 6.68 1.35.92.82 2.2 2.39 1.45 3.68a9.72 9.72 0 0 1 .67.77c3.25-.95 6.7 3.23 6.29 6.19-.1.7-.6.93-.68 1.45a1.91 1.91 0 0 1 .39.58c3.67 0 5.4 3.56 4.55 7.74-.34.41-1 .49-1.36.87-.11 1.4 1.38 1.29 2.13 2.52 1.58 2.6.69 7.75-2.42 7.83a8.87 8.87 0 0 0 1 1.84 6.34 6.34 0 0 1 1 3.29c0 2.38-1.55 3.83-3.2 4.83C73 58 69.23 62 65.15 66.05a44.13 44.13 0 0 1-9.77 7.55 14.35 14.35 0 0 1-4 1.74c-.55.06-1.07-.26-1.55-.2s-.9.6-1.45.88a25.79 25.79 0 0 1-3 1.06c-.06 4.57-8.54 4.83-10.16 1.45-2.48 3.73-9.4 1.1-10.34-2.42-2.83 1.92-8-1.9-8-4.16a1.66 1.66 0 0 1 .58-1.25c-.27-.38-.74-.55-1-1-2.86.63-4.68-1.41-5.7-3.58-.71-1.49-1.45-4-.2-4.64-2.74-5.63-3.85-16.42-1.16-23A11.08 11.08 0 0 1 8 34.43a13.35 13.35 0 0 0 0-1.55 12.09 12.09 0 0 0-1-2.13 18 18 0 0 1-1.65-7.44c-1.6-1.1-2.81-3.24-3.84-5.31-.84-1.7-1.92-3.73-1.35-5.8 2.24-1 5.11.33 7.25.67A21.76 21.76 0 0 1 12 8.22c-.38-1.83-1.21-4.31-1-6.48C11.08 1 11.38 0 12.34 0c3.66 0 6.92 2.89 9.19 4.64a9.77 9.77 0 0 1 .47.97zm-9.46-4.26c-.56 2 .07 4.49.48 6.19a19.19 19.19 0 0 1 7.06-1.93 14.13 14.13 0 0 0-7.54-4.26zM21 7.06c-8.13.63-13.52 5.3-14.12 13.15a22.2 22.2 0 0 0 2 11.12c3.9-3.33 7.82-6.81 11.39-10.54a111.82 111.82 0 0 0 10.35-11.7A18.16 18.16 0 0 0 21 7.06zm18.62 2.32c.62.79 2 1.67 2.71 2.71a27 27 0 0 1 14.79 1.35 3.88 3.88 0 0 0 1.07-1.93c-4.88-1.87-12.45-3.63-18.57-2.13zm.09 2C38.06 10 35 8.24 32.07 9.28 26 17.49 18.33 25 10.8 31.92c-.55.49-1.53 1-1.65 1.35-.46 1.45.92 3.8 1.65 4.93.57.89 2.4 3.15 3.58 3.09.83 0 2.23-1.71 3-2.41 5.79-5.32 11.26-10.67 16.54-16.15a17.55 17.55 0 0 0 2.52-2.81 5.09 5.09 0 0 1-2-1.74c-.5-.75-1.51-2.52-1.06-3.38s2.5-.71 3.62-.8c1.53-.08 2.75.17 3.86 0 .69-.94-.35-1.89-1.15-2.59zm20.22-.68A9.76 9.76 0 0 1 57 15.28a5.67 5.67 0 0 0 5.41 3.77 18.47 18.47 0 0 0 3-4.93c-.27-.31-.32-.84-.77-1-.52.84-.8 1.91-1.65 2.42-.7-1.1 1-2.08 1.16-3.29-1.1-.55-.87 1.64-1.93 1.74a.46.46 0 0 1-.29-.29c.15-.85 1-1.46 1-2.22-.94-.2-.76 1.47-1.74 1.55-.57-.77.55-1.26.58-2-1.13-.36-.63 1.66-1.64 1.75a.52.52 0 0 1-.29-.29 9.36 9.36 0 0 1 .68-1.75zm-17 2.42c-.08.34.63.72.58 1.36a38.33 38.33 0 0 1 11.79 4.54 13.84 13.84 0 0 0 1.46 1 3.82 3.82 0 0 1 .87-.48c.65-.15 1 .1 1.45-.1-1.52-1.1-3.31-2.43-3.2-4.84a26.54 26.54 0 0 0-12.97-1.45zm-41.49 0c-.08 0-.12.08-.1.2a20.46 20.46 0 0 0 4 7.83 23.35 23.35 0 0 1 1.65-7.25c-1.78-.3-4.28-.9-5.57-.75zm33.07 2.32c.5 1.18 1.19 3 2.61 3.39a13.92 13.92 0 0 0 1.94 0 36 36 0 0 1 15 4.45c.53-.76 1.17-1.41 1.64-2.23-5.63-3.19-12.1-6.48-21.21-5.58zm31.24 1.45c.4 0 .79-.37.58-.67-.42.04-.33.53-.6.7zm2.42 0c-.78.28-4.07 2.53-4.26 3.29-.32 1.33.87 3.14 1.65 3.87 1.71 1.62 3.36.62 4.73-.48.8-.63 1.21-1.26 1.94-1.84a2.11 2.11 0 0 1-.1-.87c-.56.08-.61.68-1.25.68 0-.2-.27-.13-.2-.39.14-.7 1.28-.8 1-1.64-.42-.16-.62.64-1.26.58 0-.2-.26-.13-.19-.39.07-.57.79-.5.87-1.06-.07-.23-.32-.26-.39-.49-.73.13-1 1.71-1.84 1.07.1-.85.9-1 1.07-1.75-.25 0-.29-.28-.58-.29-.76.51-.94 1.58-2 1.75 0-.14-.16-.17-.2-.29.3-.74 1-1.11 1.36-1.75-.17.11-.29 0-.37.03zM38.46 20a300.12 300.12 0 0 1-22.54 21.88c2.89 3.36 7.24 5.27 13.16 5.61a3.23 3.23 0 0 1-.29-3.49c-2.18.13-2.22-2.94-.87-3.77a1.81 1.81 0 0 1 2.61-2.42c0-.58.44-.77.67-1.16-.63-.9 0-2.1.49-2.7-1.36-1.72.46-4.5 2.61-3.58a2.65 2.65 0 0 1 2.13-1.07c.53.05.91.64 1.35.29A2.57 2.57 0 0 1 40 27c.47 0 .76.49 1.16.1a2 2 0 0 1-.58-3.48A1.9 1.9 0 0 1 43.49 25c1.72-.29 2.93.65 2.7 2.61.4.16.66.45 1.07.58a18 18 0 0 0-1.74-6.77A56.64 56.64 0 0 0 38.46 20zm24.37 1.55a6 6 0 0 1-.1-1.16c-.42.06-1.09-.13-1.35.09.62.24.85.85 1.45 1.09zm-5.22-.68C56.28 22.43 55 24 53.74 25.63A6.67 6.67 0 0 0 59.25 30a14.48 14.48 0 0 0 2.22-2.42c.62-.75 1.94-1.65 1.65-2.61-.44.5-.71 1.16-1.45 1.35-.14-.08-.31-.14-.29-.38.32-.78 1.17-1 1.35-1.94-.67-.17-.86.93-1.55 1.07 0-.18-.31-.07-.29-.29.08-.86.94-.93 1.16-1.65 0-.22-.33-.18-.29-.48-.78.22-.71 1.28-1.54 1.45a.46.46 0 0 1-.29-.29c.19-.81.78-1.21 1.16-1.84-.41 0-.3-.47-.78-.38-.65.5-.82 1.49-1.74 1.74 0-.14-.16-.17-.19-.29.14-.9.93-1.14 1.16-1.94-1.42-.27-1.21 1.88-2.42 2.13 0-.18-.32-.07-.29-.29.24-.83.88-1.25 1.16-2zM48 36.27c3.23-1.88 9.66-1.4 13.25-.2a8.36 8.36 0 0 1-1.64-4.74 7.64 7.64 0 0 1-7.16-5.9c.06-.42.44-.53.48-1-1.89-.81-3.7-2.23-5.9-2.42 1.9 3.69 2.11 10.14.97 14.26zm23.15-11.51c.37-.14.87-.15 1.06-.49-.08 0-.11-.08-.1-.19a1.83 1.83 0 0 0-.96.68zM41.55 26c.7.09.8-.73.58-1.25-1.07-.52-1.13.81-.58 1.25zm22.92.29c0 .2.26.2.29.39a12.33 12.33 0 0 1 2.32-.39c-1-.12-1.55-.76-2.32-1.16.24.67-.47.87-.29 1.17zm4.06.68c1.89 1.08 2.93 3 3.1 5.81a13.77 13.77 0 0 0 4.83-1.65c-.07-.33.15-.37.1-.68-.44 0-1.24.33-1.26-.29.2-.45.89-.4 1.36-.58v-.67c-.47 0-1.37.52-1.45-.2.18-.43.82-.4 1.25-.58.09-.44-.16-.55-.19-.87-.49 0-1.21.61-1.35-.09 0-.52.65-.38.87-.68a.92.92 0 0 1-.39-.39c-.53.05-.79.37-1.35.39 0-.19-.27-.12-.2-.39 0-.5.64-.33.78-.68a14.5 14.5 0 0 0-6.1 1.58zm-23.69.68V26.5c-1.68-1.56-1.9 2.5 0 1.16zm18.57-.48c-.56 1.05-1.63 1.59-2.13 2.7a.26.26 0 0 1 .19.29 4.92 4.92 0 0 0 2.71-2.41c-.36-.08-.24-.65-.77-.57zm2.32.58c-1.13 1.77-2.4 3.4-4.84 3.86a6.09 6.09 0 0 0 3.78 5.32c1.5.52 2.61-.66 3.57-1.45.72-.58 1.56-1.09 1.84-1.93-.5.11-.55.67-1.16.68 0-.14-.16-.17-.19-.29.14-1 1.87-1.19 1.16-2.42-.54.72-1 1.55-1.94 1.84 0-.2-.26-.13-.19-.39.38-1 2.32-1.76 1.64-2.9-.63.62-.78 1.73-1.93 1.84 0-.14-.16-.17-.19-.3a12.78 12.78 0 0 0 1.64-2.41 1.79 1.79 0 0 0-.58-.58c-.36.73-.59 1.6-1.35 1.93-.1-.13-.26-.19-.29-.39.28-.78.83-1.29 1.06-2.12-.27 0-.4-.18-.68-.2-.52.64-.6 1.72-1.54 1.94 0-.14-.16-.17-.2-.29.19-.68.64-1.1.87-1.74zM39 29.3a2.31 2.31 0 0 0 .87.39c-.12-.52.21-1.34-.1-1.45-.26.32-.72.46-.77 1.06zm2.22.29c2.25 0-.35-2.58 0 0zm2.81 1.55a4.18 4.18 0 0 1 2.22-.39c1.21-2.75-3.25-2.13-2.18.39zm-3-.29a1.19 1.19 0 1 0 2.13 1c-.36-.29-.19-1.11-.58-1.36a1.87 1.87 0 0 1-1.51.36zm-4.55.39c.08-.21.24-.54.1-.68h-.87c.18.34.6.44.81.68zm1.65 1.45c.62 0 .85-.44 1.64-.29a7 7 0 0 1-.1-1.26 1.11 1.11 0 1 0-1.5 1.55zm-5.42.58c-.12-.86.55-1.45.58-1.84-.71.12-1.29 1.32-.54 1.84zm1.35-.68a3 3 0 0 1 1.74 0c-.18-1.01-1.4-.83-1.7 0zm10.45.87a1.52 1.52 0 0 0 1.74 0 1.77 1.77 0 0 0 0-1.16c-.9-.62-1.7.24-1.7 1.16zm-7.16 2c.08-.41-.08-1.36.2-1.83-.51 0-.6-.95-1.07-.68.83.4.7 1.88.91 2.54zm37.33-2.12h.78c.06-.49-.59-.13-.74.03zm-35.3 2.12a8.09 8.09 0 0 1 .39-1.83c-1.24-.32-1.77 2-.35 1.86zm3.49-1.35c.25 0 .68-.27.38-.48-.02.25-.46.1-.34.51zm-9 .29a1.07 1.07 0 1 0 1.88-.4 1.52 1.52 0 0 0-1.84.43zM41 35.69c2.44-.2-.78-2.79 0 0zm35.59 4.54c.06-.48 1.24.14 1.16-.48-.19-.26-1 .08-1.06-.29-.28-1 1.34-.14 1.26-1-.24-.11-1.25.21-1.17-.48s1.45.09 1.17-.87c-.63 0-1.42.13-1.26-.68.17-.25.9.06 1.06-.19-.32-.35-1.84.16-1.74-.87.29-.41.9.08 1.16-.1-.83-.84-2.77-.58-4.16-.87 1.99 1.19 3.07 3.19 3.55 5.83zm-30.4-5.41a1.87 1.87 0 0 0 .29.87c.06-.4.34-.57.29-1.07-.3-.04-.22.3-.58.2zm-13.73 1.74c.34 0 .37-.35.68-.39-.25-.37-.15-1.08-.58-1.26a1.2 1.2 0 0 0-.1 1.65zm11.32-1.36a2.78 2.78 0 0 0-.2 1.45 1.43 1.43 0 0 0 1.42-.19c.43-.93-.45-1.75-1.22-1.26zm23.4 2.71c1.57-.08 4.29-.79 2.9-2.32-.82.91-2.08 1.41-2.9 2.32zm-1.55 1a4.89 4.89 0 0 0 3.87 6.38c2.6.26 5.17-1.67 5.42-3.87-.29-.08-1 1.18-1.55.49.2-1.08 1.73-1.17 1.45-2.42-.42-.07-.95 1.42-1.64.77 0-1 1.66-1.22 1.16-2.22-.57.15-.75 1.16-1.36 1-.72-.8 1.22-1.39.68-2-.57.05-.75 1.31-1.74 1.26 0-.19-.26-.12-.19-.39.33-.63 1-.88 1.25-1.64-.32-.06-.47-.3-.77-.39-.3 2.75-3.52 3.54-6.58 3zM47.16 38a28.91 28.91 0 0 1-8.61 8.8C35 54 38.13 63.74 42.33 67.6a2.42 2.42 0 0 1 1.74-2.22c-2.19-.74-1.45-4.74 1-4.65-1.85-2.37 2-5.23 3.87-3.09-1.34-1.36-.94-4.56 1.22-4.64a2 2 0 0 1 3-2.52c-.13-1.8.41-2.94 2.22-2.8a2.06 2.06 0 0 1 2.52-2.23c.45-.31.66-.78 1.25-.87 1-.14 1.44.56 2.13.87 0-.61-.56-.72-.68-1.35a2 2 0 1 1 4-1c-.18-.87-.69-2.87-.19-4.16C60.36 36.7 51.67 35 47.16 38zM37 38.68c.41 0 .52-.25 1-.19-.32-.53.2-1.69-.09-1.84a1.43 1.43 0 0 0-.91 2.03zm2.22-.58c2.56.06-.3-2.81 0 0zm-5.42 1a3.26 3.26 0 0 1 1.84-.48c-.11-.57.19-1.23 0-1.55-1.58-.46-3.27.93-1.83 2zM44.65 38a1.9 1.9 0 0 0 .19.87c.23-.42.77-1 .77-1.36-.15.35-.61.34-.96.49zm-12.38 1.17a3.19 3.19 0 0 1-.2-1.45c-.77.11-.49 1.44.2 1.45zm11.22-.39c-.08-1.67-2.29-.39-1.26 1.26.71-.18 1.29-.54 1.26-1.26zm-14.32 1a.85.85 0 0 0 .78-.68c-.33-.89-1.43.05-.78.65zm10.74-.39c.41.2.37.85.77 1.06a8.23 8.23 0 0 0-.1-1.35c-.24.05-.58.07-.67.26zm-6 1.64a7 7 0 0 1 1.74 1.55 5.63 5.63 0 0 1 0-2.71A1.52 1.52 0 0 0 33.91 41zm4.55-1.16c-1.22-.34-2.11.9-1.65 2.33 1.77 1.86 3.62-1.79 1.65-2.36zm-26.6 21.64A4.09 4.09 0 0 0 14.47 59c-2-4.07-3.1-11.42-1.35-16.63a15.4 15.4 0 0 1-2.71-2.23c-1.94 6.64-.98 16 1.45 21.37zM31 42.46a2.33 2.33 0 0 1 1.26-1.17c-.47-1.75-2.38.07-1.26 1.17zm45.45-1.17a.76.76 0 0 0 .78-.48.88.88 0 0 1-.78-.19zm-35.38 1.94a11.73 11.73 0 0 0 1.06-1.06c.32-.35.94-.81.78-1.07-1.43-.2-2.54.84-1.84 2.13zm-12.38-.48a.83.83 0 0 0 .48-1.16c-.12-.14-.42-.1-.67-.1-.25.26-.36 1.25.19 1.26zm3.19.87a3.88 3.88 0 0 1 1.93.29c.11-.38.42-.55.49-1a1.3 1.3 0 0 0-2.42.71zm10.83 26.69c-.86-1-1.79-2-2.71-3-4 .92-8-.92-8.12-4.54-.34 0-.58-.07-.68-.29-2 1.56-3.92.64-5.32-.87-.69-.76-1.73-2.27-1.64-3 .05-.42.76-.85.68-1.16-.21-.79-1.16-.31-2.13-.39a5.32 5.32 0 0 1-4.16-6.87c-1.6-2.33-2.77-5.09-4.45-7.35C12.76 48 14 54.26 15.83 58.12c3.58.78 5.76 3 5.8 7.26a6.82 6.82 0 0 1 6.58 4c2.91-1.22 6.4 0 7.63 1.94 1.38-1.43 4.85-1.64 6.87-1.01zm19.92-25.82a1 1 0 0 0 .2-1.65c-1.33-.24-.91 1.54-.2 1.65zm-24.85-.39a3.38 3.38 0 0 1 0 1.55c.67-.24 3.23-1.69 1.93-2.23a2.57 2.57 0 0 1-1.93.68zm-1.94-.19c-1.05-.09-.94 1.23-.67 2.12 1.83.39 1.75-2.03.67-2.12zm29.41 1.45c.39.1.53 0 1.06 0-.23-.55-.74-.81-1.06-1.26a.84.84 0 0 0 0 1.26zm-45.36 4.06a5.8 5.8 0 0 0 1.84-2c-2-.59-3.61-2-5-2.81 1.12 1.5 1.9 3.39 3.16 4.81zm10.93-2.61a2.59 2.59 0 0 1 0-2.32c-1.73-.29-1.53 2.51 0 2.32zm1.06-1.45c-.14.45.21.8.39 1.16 2.42.12.15-2.85-.39-1.16zm40 1.35a2.17 2.17 0 0 0 2.13-1.35c-.41.64-1.89.77-2.09 1.35zm3.58-.58A6.59 6.59 0 0 1 71 48.36a5.42 5.42 0 0 1-3.38-1.16c-.74 6.36 8.09 6.35 9.09 1.45-.33-.41-.56.9-1.36.67-.3-1.14 1.27-1.24 1.26-2.41-.66-.1-1.32 1.82-2.13 1 .27-1 1.74-1.22 1.55-2.32 0-.07-.08-.11-.19-.1-.05.29-.37.3-.34.64zM59.64 47a.92.92 0 0 0 .48-.77c-.58-1.11-1.59.53-.48.77zm2.12.1c.3-.07.36.1.58.1a2.35 2.35 0 0 1 .29-1.2.89.89 0 0 0-.87 1.1zm1.84.39c2.09 0-.09-2.14 0 0zm7.16-.58c-.27-.32-1.44-.24-1.74-.2.38.16 1.37.67 1.74.2zm-14 .87c.06-.61.81-.54 1.06-1-.1-.22-.61 0-.87-.1-.21.22-.69.85-.21 1.1zm9.38.58c-.1-.35.22-1.13-.2-1.16a1 1 0 0 0 .18 1.16zM27 48.84a6.17 6.17 0 0 1 .49 5.41c.56 0 .79-.73 1.45-.87 2.69-.53 5.06 2.54 5.51 4.65.45-.13.78-.39 1.26-.49a22.1 22.1 0 0 1 1.06-9.76A20 20 0 0 1 27 48.84zM19.6 51a1.23 1.23 0 0 0-.2.87c1.1 0 1.28-.92 2.33-1 0 .1.07.12.09.19-.25 1-1.22 1.23-2.13 1.55a1 1 0 0 0 .39.77c.64-.26 1.05-.75 1.84-.87 0 .14.16.17.19.29-.23.7-.95.92-1.64 1.16 0 .35.34.24.29.58.65-.11.84-.7 1.45-.87 0 .19.32.07.29.29 0 .78-.81.68-1 1.26.75.53.79-.56 1.65-.48 0 .14.16.16.19.29.12.35-.65.61-.19.68a4 4 0 0 0 3.28-4.26c-.16-1.35-1.17-2.12-1.83-3.09-.58-.07-1-.32-1.55-.39-.81 1.32-1.57 2.72-3.45 3.03zm38-1a1.06 1.06 0 0 0 1.16-1.55c-.89-.7-1.48.74-1.15 1.55zm3.48-.39a.84.84 0 0 0 .92-1.16c-.18 0-.21-.11-.39-.09-.52.1-.54.64-.52 1.25zm-6.48.78c.69.33 1.21-.56.87-1.26-.75-.63-1.24.49-.86 1.26zm9-.1c1.9.38.34-2 0 0zm-2.8 1.93c.42-.34 1-.57.87-1.45-.66.3-1.24-.13-1.74-.29-.09.97.16 1.58.87 1.74zm9.2 1.26c-1.64-.39-2.37-1.69-3.38-2.71C60 58.06 54 65.85 44.07 69.83A10.51 10.51 0 0 0 51.71 74 49.73 49.73 0 0 0 72 55.32a2.24 2.24 0 0 1-2-1.84zm-18.2-.58a1.11 1.11 0 0 0 .39-1.55c-.99-.25-1.19 1.43-.39 1.55zm5.13-.1c.7 0 1.15-.33 1.06-1.16-.69-.64-1.17.36-1.06 1.16zm-2.32.78c.8-.12.7-1.93-.1-1.84-1.16.13-.69 1.95.1 1.84zm7.06.19A3.67 3.67 0 0 0 63.41 52a2.16 2.16 0 0 0-1.74 1.77zm10.73 0h-.87c0 .44.86.36.87 0zM57 55.9c0-.64-.13-1.48.19-1.84-2.19-1.31-2.25 3.58-.19 1.84zm2.64-1.9c-1.24-.5-1.63 1.51-.78 2a1.38 1.38 0 0 0 .78-2zm-9.77 2.71a1.33 1.33 0 0 0 1.06-1.93c-1.31-1.11-1.81 1.04-1.06 1.89zm3.19-1.74c.36.1.39-.47.1-.48a.63.63 0 0 0-.1.44zm-22.53 6.15a18 18 0 0 0 2.41-3.58c-.83-1.09-2.23-3.3-3.77-2.8-.67.22-1.45 1.58-1.93 2.13-.7.79-1.69 1.39-1.65 2.32.75-.12.83-1.43 1.75-1.07 0 .1.07.12.09.2-.19.8-1.06.93-1.26 1.74a1.53 1.53 0 0 1 .29.38c.75-.32.83-1.3 1.55-1.64a.92.92 0 0 1 .39.39c-.21.8-1.17 1.33-1.16 2 .11 0 .15.11.19.19 1.06-.13.86-1.52 1.84-1.74 0 .08.08.11.19.1.13 1.13-1 1.54-1 2.22 1.25.1.84-1.47 1.74-1.74.61.09.24.78.33.9zm-5-4.74c0 .13.12.14.09.29.43-.36 1.45-1.11 1.16-1.54-.33.53-.94.76-1.28 1.25zM53 58.9a1.22 1.22 0 0 0 1.16-1.74c-1.23-.81-1.88.84-1.16 1.74zm3.1.87a13.2 13.2 0 0 0 2.13-2c-1.35-.59-2.34.48-2.17 2zm-6-1.55a1.94 1.94 0 0 0-.1 2c1.31.16 1.53-2.44.06-2zM45.9 60c1.26.55 2.49-.79 1.65-1.74-1.17-.08-1.63.59-1.65 1.74zm-10.06-1.1a4.91 4.91 0 0 0-2.51 4.45c.21-.48.18-1.18.68-1.36 1 .51-1 2.95.58 3 .11-.86.13-1.8.77-2.13.09.17.36.16.39.39a10.16 10.16 0 0 0-.49 2.42c.36 0 .54.24.88.29.12-1 0-2.21.77-2.52.75.58-.33 1.84.1 2.71h.77a4.45 4.45 0 0 1 .29-2 14.72 14.72 0 0 1-1.93-5.22zm-15.76 6.48c.79-2.53-1.95-5.5-4.25-5.9-1.09 1.59-2.16 3.19-4.65 3.38a1.83 1.83 0 0 0 .1.78c1-.17 1.49-.77 2.42-1 0 .19.26.12.19.39-.45.8-1.51 1-2.42 1.35a6 6 0 0 0 .39 1c.78 0 .82-.73 1.64-.68.34.81-.59 1.13-1.16 1.35 0 .45.3.54.39.87.7-.07.75-.8 1.55-.77.05.14.14.25.19.39-.24.47-.76.66-1.06 1.06.71.94 1.33-.35 2-.58 0 .18.32.07.29.29.06.71-.67.62-.77 1.16 2.22-.08 4.72-1.71 5.15-3.09zm31.14-4.26c.31 0 .43.22.78.2a6.15 6.15 0 0 1 .77-1.26c-.31 0-.32-.26-.68-.2-.09.66-.61.81-.87 1.26zm2 1.45A20.81 20.81 0 0 0 55 60.93a1.24 1.24 0 0 0-1.75 1.64zM32 61.7a.5.5 0 0 1 .29.1c-.05-.25.34-.55.09-.68-.08.26-.38.24-.38.58zm16.53.78c.38 0 .7-1.28-.29-1.16-.44.4-.12 1.19.27 1.16zm-4.06 1.74c1 0 1.34-.67 1.55-1.45-.76-1.6-2.67.13-1.57 1.45zm7.64-.78c0-.26-.74-.77-1-.77-.79 0-1.39 1.36-1.26 2.42.53-.5 2.22-.97 2.24-1.65zm-4.16 1.84c-.16-1.06-1.93-.39-1.74.87.97.37 1.79-.15 1.72-.87zm-9.18.87c0-.14.23-.09.38-.1a2 2 0 0 0-.58-.87c0 .38-.09.82.18.97zm-21 3.1a1.73 1.73 0 0 0 .87.77c.93-.87 2.17-2 2.32-3.29a6.75 6.75 0 0 1-3.2 2.52zm.29 2.61c.22.1.17.47.39.58.76-.46 1.22-1.23 2-1.65.14.09.3.15.29.39-.32 1-1.36 1.22-1.84 2 .56.27.59-.75 1.35-.58.59.58-.64.93-.38 1.45.43-.21.57-.72 1.06-.87 0 .18.32.07.29.29.09.6-.73.71-.48 1.16.59 0 .32-1 1.16-.77.48.45-.55 1-.1 1.16.49-.06.4-.7 1-.68.32.23.16.69 0 1 2.2-.16 3.65-2.76 3.87-4.84s-2.46-3.5-4.27-3.77c-.64 2.51-2.4 3.87-4.35 5.13zm25.72-4.36a.31.31 0 0 1 .19.2c.54 0 .68-.29.68-.78-.34-.4-.94.01-.87.58zm2 .2c.22 0 .41-.1.48-.29a.52.52 0 0 1-.39-.1c0 .13-.1.19-.06.39zM34.39 72a4.87 4.87 0 0 0-5.12-1.45c.9 2.87-.79 5.31-2.32 6.68.91.09 1-1.41 2.13-1.46.3 1.06-.88 1.44-1.26 2.13.79.63.66-.9 1.45-.87.64.4-.2 1-.29 1.55.85.46.49-.94 1.26-.87.73.22-.3 1.08.19 1.26s.23-1 .77-1c.69.15-.05.93.39 1.16.54 0 .18-.91.77-.87.25.07.34.31.29.68 2.24-.62 2.12-4.39 1.74-6.94zm-8.12 3c.41 0 .47.38.87.39.55-1 1.48-2.55.87-4.06A7.76 7.76 0 0 1 26.27 75zm10.45-2.51c1 1.71.85 4.54.58 6.57.83-.46.12-2.45 1-2.9 1 .59-.15 2.5.1 3.29.49-.21 0-1.45.68-1.45s-.07 1.3.48 1.64c.72-.14-.17-1.31.58-1.35s.24 1.05.68 1.26c.52-.15-.19-1.54.58-1.45.49.06.38.71.39 1.25 1 0-.09-1.55.77-1.64.53 0 .32.78.58 1.06 1.9-1.51.34-5.1-.48-6.77-1.76-.78-4.77-.86-5.94.44zm8.8 3.48a14.64 14.64 0 0 0 2.61-1.36 17.31 17.31 0 0 1-3.77-2.51 19.9 19.9 0 0 1 1.16 3.82zM36 77.18c.51-.32.28-1.64.1-2.13.14.73-.47 1.72-.1 2.13z" fill="#f09021" fill-rule="evenodd" data-color="1"/>
        </g>
    </g>
</svg>
