<?xml version="1.0" encoding="UTF-8"?>
<svg data-bbox="0.011 0.001 69.519 83.478" viewBox="0 0 69.53 83.46" xmlns="http://www.w3.org/2000/svg" data-type="color">
    <g>
        <g>
            <path d="M33.53 69.72c4.24-3.82 10.59 1.07 7 5.51-1 1.22-3.39 2.59-4.84 3.87-.38.34-1.23 1.32-1.54 1.35-.6.06-1.23-.78-1.65-1.06-2-1.34-5.89-2.6-6.77-5-.82-2.27 1-5 2.71-5.61a5.36 5.36 0 0 1 5.09.94zm6.67 2.8c.35-2.87-4.06-3.91-5.8-1.84 0 2.49.25 4.65.19 7.16 1.41-1.39 5.28-2.64 5.61-5.32zM28.3 70.3a3.81 3.81 0 0 0-1.3 3.19 3.68 3.68 0 0 0 1.26 1.64c1.39 1.18 3.58 2 5.12 3 0-2.43-.17-4.67-.09-7.16a4 4 0 0 0-4.99-.67z" fill="#f09021" fill-rule="evenodd" data-color="1"/>
            <path d="M61.57 23.29c2.42.54 2.91 5.11.29 5.81a8.45 8.45 0 0 1-.38 5.51c.19.46 1.18 1.77.29 2.51 1.66.87.85 3.49-.68 4.07.39.7 1.35.83 1.06 2.22 4.27 1.13 7.74 4.41 7.35 9.77a9.31 9.31 0 0 1-9.38 8.51A9.15 9.15 0 0 1 53.35 59c-1 2.74-4.44 4.25-6.57 6.09-.55.47-1.31 1.63-1.94 1.65s-1.36-.86-2-1.26c-3.11-1.87-6.66-2.84-7.35-7.06-.47.47-.42 1.45-.87 1.93.41.64.88 1.74.19 2.42a2.16 2.16 0 0 1 .58 1.94c-.19.92-1.65 1-1.25 2.12 4.81-2 10 1.07 10.15 5.61.1 4.25-4.68 6.65-7.54 8.8-.66.5-2.06 2.15-2.61 2.23-1.06.15-2.75-1.59-3.58-2-3.51-1.86-8.12-3.47-8.61-8a6.61 6.61 0 0 1 0-1.26A7.15 7.15 0 0 1 33 67c.24-1.21-1.1-1.42-1.16-2.42a2.44 2.44 0 0 1 .62-1.58 2 2 0 0 1 .2-2.52c-1.19-2.56-1.94-7.25-.58-10.15-.66-.57-1.19-2.27-.29-3-1.18-.49-1.09-3 0-3.48a3 3 0 0 1-.68-1.45c0-.36.3-.75.29-1.16 0-.71-.59-1.37-.77-2.13a7.45 7.45 0 0 1 .87-5.81c-.91-2.1-1-6.34.09-8.31-2.84-.41-3.15-5.23-.77-6.58a3.41 3.41 0 0 1-.58-1.64 65.94 65.94 0 0 1-9.58-.58 3.41 3.41 0 0 1-.48 2.12 13.25 13.25 0 0 1-.18 7.6c2.07.85 1.88 5.26-.78 5.31-.35 1.3 1 1.62 1.07 2.61a2.6 2.6 0 0 1-.68 1.65 9.41 9.41 0 0 1 .48 3.09c0 1.21-.59 2.38-.58 3.39 0 1.67 1.36 3.26 1.55 4.93 1.06.32 2.06.64 3.39 1 1 .26 2.92.35 3.09 1.26s-1.16 1.65-1.74 2.12c-.84.68-1.43 1.2-2.13 1.74 0 2.41.54 4.75.39 7-1.54 1-2.27-1-3.1-2s-1.54-1.69-2-2.32a30.1 30.1 0 0 0-3.87 2.8 12.19 12.19 0 0 0-1.25 1c0 .07 1.33 2 1.45 2.22 2.62 5.4-1.08 12.52-6.39 13a11 11 0 0 1-7.15-1.84c-.26-.2-1-.93-1-1.35.06-1.14 2.06-.74 2.42-.77 4.5-.49 8.32-6.09 4.93-10.06-1.4-1.64-4.31-2.74-7.54-2.42-1.83-1.64 1.36-2.8 3.09-3-.36-.46-.59-2.1.2-2.61-.68-1-.13-2.32-.29-3.48C3.46 48.45 3 48 3 47.47s.34-.93.38-1.45a30.45 30.45 0 0 0-.48-3.09 11.13 11.13 0 0 1 .48-3.78c-.36-.6-1.2-1.24-.77-2.32-1.72-.74-1.72-4 .1-4.64a13.86 13.86 0 0 1 0-5.7 2.14 2.14 0 0 1-.2-3.58A9.58 9.58 0 0 1 2 19.33c0-.67.39-1.34.38-1.94 0-.21-.24-.49-.29-.77s.14-.74.1-.87c-.15-.57-.77-.88-.87-1.35A2.11 2.11 0 0 1 2.38 12c.13-1.6-.8-3.85.2-5.22C3.25 5.82 5.34 4.7 6.93 4 12.34 1.4 18.88.43 26.27.08c2.26-.1 5.92-.11 8.51 0 9.22.41 19.95 2.18 24.57 6.1a5.65 5.65 0 0 1 1.26 1.54C61 8.8 60.67 11 60.9 12c.79.48 1.1 2.1.09 2.61.95 1.44 1 4.62.29 6.38.32.5.78 1.58.29 2.3zM28.11 1.53C20.28 1.53 13.21 2.69 7.8 5c-1.7.72-4.31 1.81-4.25 3.67s3 2.81 5 3.48c13.23 4.38 32.19 3.66 45.46 0 1.8-.5 5.25-1.57 5.22-3.38 0-.94-1.26-1.81-2.32-2.42C54.28 4.85 49 3.56 46 3a76.8 76.8 0 0 0-17.7-1.47 1.21 1.21 0 0 1-.19 0zm18.38 13.83a2.19 2.19 0 0 1-.68 1.94 2.08 2.08 0 0 1 .19 2c2.34.69 2.49 5.11.49 6.29A12.15 12.15 0 0 1 46 31.9c1.63 1.16.56 3.78-1 4.26-.24.92.93 1.15 1.16 1.83.3.93-.2 1.52-.68 2.33a1.68 1.68 0 0 1 .39 1.74c2.34.78 2.05 3.92.48 5-.36.26-1.13.35-1.16.78s1.22 1 1.35 1.55a2.13 2.13 0 0 1-.09 1.35c-.27.57-1.21.58-1.16 1.45 1.35-.69 4.13-.56 5.31.48.53-5.3 3.11-8.56 8.32-9.18-.6-1.24.86-1.24 1-2.13s-1.21-1.16-1.26-2.32a2.53 2.53 0 0 1 .87-1.94c-.84-.62-.14-1.44-.09-2.12.09-1.5-1.08-4.35-.3-6-2.33-.56-2.31-4.72-.19-5.51-.67-.74-.06-1.93.39-2.42a13.32 13.32 0 0 1-.2-6.38 1.75 1.75 0 0 1-.58-1.84c.16-.62 1.18-.8 1.07-1.45 0-.08 0-.19-.1-.19-3.2 2.54-8.36 3.11-13.04 4.17zM5 13.33a2.68 2.68 0 0 1-.58 2.23c.54.45.23 1.61-.1 2a8.08 8.08 0 0 1 .48 4.93 2.44 2.44 0 0 1-.09 3.87 12.41 12.41 0 0 1 .19 5.44c2.24.32 2.08 4 .58 5A1.78 1.78 0 0 1 5 39c.84 1.67.63 4.72.19 6.67 1.27.34 1.4 2.76.29 3.39A3.78 3.78 0 0 1 6 51.24c0 .43-.33.93-.29 1.26s.53.73.58 1.06c.12.69-.28 1.23-.19 1.55a12 12 0 0 1 6.87 3.19c.42-1.93 1.24-3.46 1.54-5.51a14.6 14.6 0 0 1-2.8-1.26c-.76-.38-2.33-.87-2.13-1.93.15-.79 2.13-1.05 3-1.35 1.28-.46 2.25-.76 3.29-1.17.22-1.66 1.65-2.86 1.74-4.73.05-1.1-.49-2.38-.48-3.68a13.68 13.68 0 0 1 .48-3c-.36-.69-.7-.76-.77-1.35-.24-1.76 1.48-1.6 1.25-3.1-2.45-.62-2.56-4.62-.09-5.31-.48-2.14-1.08-5.77 0-7.74a2.9 2.9 0 0 1-.49-2.52c-5.22-.74-10.57-1.87-14-4.06.25.73 1.23.84 1.49 1.74zm54.83.39c.31.08.3-.15.49-.19 0-.34-.34-.31-.49-.49a.6.6 0 0 0 0 .68zm-57.35-.19a.94.94 0 0 0 .78 1.16.82.82 0 0 0 .19-1.36c-.45-.08-.64.13-.97.2zm57.93 5.89c.12-1.24.25-3-.29-3.86a7.84 7.84 0 0 0 .29 3.86zM44 15.75c-.19 1.26 1.47 1 1.26-.1-.56-.07-.78.16-1.26.1zm-9.86.87a3.54 3.54 0 0 1-.2 1.45c3.1.82 2.84 6.83-.77 6.87 1.07 2.14 1.49 6 .29 8.31 1 1.69 1.66 5.64.29 7.45.7.63 1.08 2.18.19 2.9a2.66 2.66 0 0 1 .39 3.58c.83.51.64 2.14.1 2.81.74 1.29.87 3.19 1.25 4.83a5.43 5.43 0 0 1 7-3.38c.61.21 1.05.9 1.54.77-.26-1.17-1.08-.8-1.25-1.74-.33-1.76 1.35-1.48 1.16-2.9-2.55-.32-3-4.21-.78-5.22-.49-.39-.3-1.6.1-1.94-.43-.57-.71-.74-.77-1.26-.22-1.77 1.69-1.66 1.25-3.09a2.08 2.08 0 0 1-1.74-2.23c.09-1 1-1.54 1.55-2.12a13.17 13.17 0 0 1-.19-6c-3-.46-2.3-5.78.19-6.29-.22-.35-.51-1.34-.1-1.74a9.38 9.38 0 0 1-1-1.74c-2.74.35-5.64.54-8.53.68zm-15.19-.29c-.73 0-.27 1.17.39 1 .16-.42.03-.96-.42-1zm12.48.48c-.06.78 1.42 1.13 1.45.2a2.23 2.23 0 0 0-1.48-.2zm13.54 1.84c.08-.37-.21-.37-.39-.48-.07.33 0 .55.36.48zM3.64 22a7.4 7.4 0 0 0-.29-3.68A6.73 6.73 0 0 0 3.64 22zm15.48 2.32c.25-1.67.67-4.58-.29-5.81-.35 1.85-.45 4.38.29 5.85zm13.44-5.23c-.61 1-2.25 2-1.93 3.29.79-1 1.61-2.06 2.32-3.19-.19.06-.22-.07-.39-.06zm1.06.58c-.74 1.2-2 2.41-2.41 3.58.75.12 1.24-.81 1.64-1.35a16.28 16.28 0 0 0 1.26-1.9c-.23 0-.18-.33-.49-.29zM45 24.65c2.1-.35 1.81-4.83-1-4.06-2 .56-1.66 4.5 1 4.06zm-12.48-1a2.07 2.07 0 0 0 1.93-2.8c-.52 1.04-1.34 1.8-1.89 2.83zm27.27-1a.6.6 0 0 0 .68 0c0-.39 0-.67-.39-.67-.08.28-.29.37-.25.73zM2.77 24.94a1.19 1.19 0 0 0 1.65-.1c.39-1.55-1.99-1.24-1.65.1zm55.9 1c.19-.5.95-.92.87-1.36-.36.28-1.04.8-.87 1.33zm1.94-1.26c-.42 1-1.9 1.71-1.65 2.71.89-.35 1.61-1.68 2.32-2.52-.28-.01-.28-.29-.67-.22zm-.68 3.19c1.1-.35 1.54-1.36 2.13-2.22-.13 0-.09-.17-.2-.2-.63.79-1.32 1.55-1.93 2.39zM44.65 26a9.19 9.19 0 0 0 .29 5 11.78 11.78 0 0 0 .48-5zm-12.09 5.8a8.17 8.17 0 0 0-.29-5.6c-.22 1.66-.47 4.35.29 5.6zM19 30c1.55-.22 1.3-3.39-.87-2.71-1.7.51-.51 2.87.87 2.71zm-15.18.77a9.06 9.06 0 0 0-.2-3.48 9.23 9.23 0 0 0 .22 3.45zm56.57 2.71a4.52 4.52 0 0 0 .1-4.16h-.19a10.05 10.05 0 0 0 .11 4.13zm-14.89.09c-.21-1-2.44-.8-2.13.78a1.19 1.19 0 0 0 2.15-.81zm-42.46 2c.76-.43.88-1.51 1.45-2.13a.26.26 0 0 0-.19-.29 12 12 0 0 0-1.24 2.43zm-.48-.87c.14-.54.52-.84.68-1.36a1 1 0 0 0-.66 1.37zm16-.1c.2-.18.49-.28.38-.78-.25-.13-.33-.44-.67-.48a.72.72 0 0 0 .27 1.27zM4.13 35.87a1.47 1.47 0 0 0 1-2c-.28.72-.79 1.21-1 2zM32.46 40c1.29-1.23.83-4.84-.09-6.1a7 7 0 0 0 .09 6.1zm28.34-3.55a.47.47 0 0 0-.39-.68c-.16.33-.09.73.39.68zm-42.17 4c.13-1.12.48-3-.09-4-.16 1.17-.42 2.96.09 3.96zM3.84 37.9c.07 0 .19 0 .19.09.27 0 .41-.16.39-.48a.37.37 0 0 0-.58.39zM43.78 39c.29.66 1.29.35 1.16-.48-.21-.12-.28-.37-.58-.39a1.13 1.13 0 0 0-.58.87zm16.44-.87c-.71.35-.2 1.78.48 1.74.45 0 .72-.53.68-1.26-.49-.22-.81-.69-1.16-.52zm-56 5.13a6.67 6.67 0 0 0 0-2.52 7.11 7.11 0 0 0 0 2.48zm40-1.45h.39c0-.19.11-.22.1-.39s-.18-.34-.49-.29c-.01.18-.15.45.04.64zm-11.47 1.02c.76-.13.28-1.21-.29-1.16-.13.33-.21 1.16.29 1.16zm27.37.39c.25.2.83.1.78-.29s-.9-.27-.78.29zm-42.26 2.32c.34-.73 1.44-1.45.68-2.42-.11.88-.7 1.75-.68 2.42zM43 45c.19 1.91 3.46 1.7 3.29-.39a1.61 1.61 0 0 0-1.74-1.35A1.57 1.57 0 0 0 43 45zm-9.47.48c-.22-1.41-2-.48-1.36.58a1.29 1.29 0 0 0 1 .39c.25-.35.43-.52.36-1.01zm24.75-.68c-2.07 2.18-4 4.51-6.09 6.68a8.59 8.59 0 0 0-.09 1.64c2.19-2.12 4.83-5 7-7.35.29-.29.75-.65.68-1.06a6.34 6.34 0 0 0-1.5.05zm2.91-.09c-3 3.26-6.07 6.44-8.9 9.86.19.3.2.76.39 1.07 3.27-3.46 6.49-7 9.57-10.64a2.75 2.75 0 0 1-1.06-.33zM16.7 48.34a12.58 12.58 0 0 0-1.94 3.1c1-.44 1.58-1.63 2.42-2.71s2.44-2.51 1.94-3.68c-.73 1.15-1.59 2.19-2.42 3.29zm36.17 1.16c1.24-1.47 2.61-2.8 3.87-4.25a7.24 7.24 0 0 0-3.87 4.25zm10.44-4.16H63c-3.19 3.84-6.66 7.4-9.76 11.32.7 1.38 1.23.22 2-.68 3-3.36 6.31-7.09 8.89-10.15a5.27 5.27 0 0 1-.82-.49zm1.26 3.29c1-1.1 1.75-1.69.29-2.32-3.36 4-6.88 7.82-10.15 11.9.34.2.54.55 1 .67 2.65-3.02 6.01-6.88 8.86-10.25zm-47.1 1.16c-.65.87-1.86 1.73-1.55 2.9a15.74 15.74 0 0 1 2-2.51c.67-.83 2.34-2.45 1.64-3.48a26.08 26.08 0 0 1-2.09 3.09zM4.61 48c.67-.16.38-1.25-.29-1.17-.32.28-.23 1.09.29 1.17zm51.93 11.5c.46.1.81.29 1.26.39 3-3.83 6.32-7.35 9.29-11.22-.26-.32-.4-.76-.78-1-3.17 4.01-6.55 7.82-9.77 11.79zM33 49.21c1-.15.59-1.27-.1-1.45a.85.85 0 0 0 .1 1.45zm-12.53-1.16a33.48 33.48 0 0 1-2.8 3.58c-1.05 1.33-2.48 3-2.71 4.64 1.93-2.8 4.12-5.35 6-8.22zm1.35.29c-1.76 2.36-3.48 4.77-5.22 7.16 2.51-1.75 3.79-4.72 5.8-7a2.47 2.47 0 0 1-.58-.16zm-8.51 2.52c1.15 0 1.4-1.62 2.23-2.23 0-.12.15-.2-.1-.19a7.65 7.65 0 0 0-2.13 2.42zm9.77-2c-.93 1.4-2.08 2.89-3.08 4.22-.29.4-.81.88-.68 1.35a3.38 3.38 0 0 0 1.16-1.16c1.08-1.44 2.17-3 3.1-4.44zm1.36.29c-1.36 2.06-3.25 4.1-4.26 6.19.87-.43 1.51-1.91 2.32-2.71a1.85 1.85 0 0 1 .1-.78 5.84 5.84 0 0 0 2.32-2.61c-.27.05-.25-.16-.48-.12zm-12.87.77c.08.37.58.32.87.48.37-.27.94-.86 1-1.16a9.1 9.1 0 0 1-1.87.65zm32.5.19c0 .65 1.31.71 1.26-.29-.47-.61-1.33-.28-1.26.26zM59 60.14h1.16c1.76-2 3.92-4.76 5.8-7.06.83-1 2.67-2.23 1.55-3.58-2.81 3.55-6.13 7.06-8.51 10.64zM33.72 59c.85-2.47.73-6.5-.48-8.51-1.14 2.34-.65 6.51.48 8.51zm28.53.1c-.23.28-.72.49-.58.87.27-.05.5-.14.77-.2 1.88-2.24 3.76-4.49 5.61-6.77-.06-.32.13-.89-.09-1.06-1.89 2.21-3.87 4.9-5.71 7.14zM48.9 61.88c1.2-.8 3.51-2.33 3.39-3.87 0-.62-.66-1-1-1.74-.21-.46-.32-1.15-.48-1.45a4.12 4.12 0 0 0-4.35-1.74c-.76.21-1.37 1.07-2.13 1-.47-.06-.6-.5-1-.78a4.21 4.21 0 0 0-6.67 2.91 6.67 6.67 0 0 0 1.35 4.54c1.8 2.33 4.6 2.33 6.77 4.26a32.15 32.15 0 0 1 4.12-3.13zM5 54.24c0-.47-.13-.71-.49-.77-.17.35-.08.88.49.77zm16.05 2a2 2 0 0 0 1.35-2.22c-.4.79-1.4 1.43-1.35 2.25zM64.38 59c1.37-.95 2.81-2.34 3.09-4.06A43.69 43.69 0 0 0 64.38 59zM22 57.24c0-.49.81-.66.48-1.16-.08.38-.93.83-.48 1.16zM7.7 73.1c5.11.12 8.36-5.89 6.39-10.64-1.44-3.47-6.34-7-11.22-5.9 4.22.71 7.57 2.63 8 6.87.54 5-3.56 7.31-7.26 8.7a14.67 14.67 0 0 0 4.09.97zm25.83-10.93a.51.51 0 0 0 .19-.77h-.39c-.07.36-.13.6.2.77zm-.29 2.71c1.19.08.92-1.33.19-1.55-.14.44-.68 1.09-.19 1.55zM28.3 67.1c-2.61.26-5.46 3.39-4.83 6.39 1 4.74 7.26 5.71 10.35 8.22 2.21-2.74 6.9-3.95 8.51-7.45 1.87-4.08-3.41-8.38-7.45-6.48-.6.28-.68.8-1.45 1.06a7 7 0 0 0-5.13-1.74z" fill="#f09021" fill-rule="evenodd" data-color="1"/>
        </g>
    </g>
</svg>
