<?xml version="1.0" encoding="UTF-8"?>
<svg data-bbox="0.002 -0.005 76.19 79.097" viewBox="0 0 76.16 79.1" xmlns="http://www.w3.org/2000/svg" data-type="color">
    <g>
        <g>
            <path d="M8.93 18.86c.66-4 1.85-8.67 6.7-12.16a4 4 0 0 1 1.29-5.37C18.64 0 22.24-.51 24.25.61c1.17.65 1.83 2 2.75 2.59.63.42 2.35.21 3.34.42 3.9.82 8.23 1.74 12 6.22a17.66 17.66 0 0 1 3.78 11 15.93 15.93 0 0 1-4 10.79 22.81 22.81 0 0 1-2.52 2.27 26.12 26.12 0 0 0 8.9 5.94c2.94 1.2 6.08 2.28 9.12 1.72 5.22-1 10.52-7.87 15.76-4 2.78 2.08 2.86 6.4 2.8 9.1A26.36 26.36 0 0 1 74.75 54a31.59 31.59 0 0 1-9.15 14.65 46 46 0 0 1-15 8.48 31.36 31.36 0 0 1-14.81 1.72 50.61 50.61 0 0 1-14.76-4c-4.92-2.33-10.45-7-13.19-12.27a22.43 22.43 0 0 1-2.1-14.85c1-5 3.89-9.59 9.5-14.56a34.07 34.07 0 0 1-4.42-4.48c-2.33 1.88-7.31 3-8.59-1A2.44 2.44 0 0 1 3 25C.85 22.34-.74 18.76.36 16.48s3.31-.05 4.91.8a15.24 15.24 0 0 0 3.66 1.58zm.24 1.38a7 7 0 0 0-1.77-.59 20.32 20.32 0 0 1-5.34-2.79c-1 .42-.45 2.07-.07 3.28a13.55 13.55 0 0 0 2.56 4.51c2.08 0 4.14.65 6.22.48-.48-1.54-.22-3.73-1.6-4.89zm9.64-15.11a6.94 6.94 0 0 1 1.11-.38c-1.05-1-2.47-1.87-3.33-1.1a7.11 7.11 0 0 1 2.22 1.48zm2.07-.63c.46-.23.92-.13 1.38-.38-1.47-1.58-3.33-2.12-4.62-1.47 1.09 0 2.17.83 3.24 1.85zM17 5.91a3.16 3.16 0 0 0 .9-.45 3.23 3.23 0 0 0-1.69-1.07A2.13 2.13 0 0 0 17 5.91zM23.35 4c.59-.31 1.87-.08 2-.44a6 6 0 0 0-5.64-2A7.6 7.6 0 0 1 23.35 4zM12.07 24.82c.11.88-.36 2.16-.06 2.87a9.13 9.13 0 0 0 1.73 1.95 23.12 23.12 0 0 0 6.19 4.66 17.43 17.43 0 0 0 13.53.7 22.28 22.28 0 0 0 4.9-2.15 14.59 14.59 0 0 0 6.21-11.28 15.92 15.92 0 0 0-5.92-13.2 19.17 19.17 0 0 0-7-3.1 18.72 18.72 0 0 0-2.38-.67 23.44 23.44 0 0 0-3.22.27 19.46 19.46 0 0 0-9.79 3.2c-4.84 3.4-5.2 7.8-5.87 11.77a14.18 14.18 0 0 1 1.68 4.98zm-4.82 1.53c-.72-.06-3-.61-3.49 0s.09 1.37.51 1.79c1.52 1.54 4.62.49 6.32-1.23a25.48 25.48 0 0 0-3.34-.56zM10 41.12a19.58 19.58 0 0 0-2.76 7.05c-.82 4.7-.64 9.4 2.14 14.28a29.6 29.6 0 0 0 13 11.55 44.12 44.12 0 0 0 14.15 3.47c4.46.26 9.3-.84 14.28-2.28C58.23 73 66.14 67.65 70.3 60.27c2.61-4.62 4.37-9.39 4.43-14.12 0-1.76-.06-5.34-2-7.16-2.14-2-5-.93-7.26.38-2.63 1.52-5 3.14-7.4 3.59-3.27.63-6.67-.3-9.81-1.59C44.9 40 42 37.88 38.53 34.59c-3.19 1.32-6.18 2.85-9.37 3.07a22 22 0 0 1-4.71-.59 19.43 19.43 0 0 1-4.76-1.2A37.11 37.11 0 0 0 16 33.94a45.07 45.07 0 0 0-6 7.18z" fill="#f09021" fill-rule="evenodd" data-color="1"/>
            <path d="M3.87 21.55c-1.42 0-1.53-2.42-1.63-3.25" fill="#f09021" fill-rule="evenodd" data-color="1"/>
            <path d="M3.79 19.09a1.69 1.69 0 0 1 .79 1.52c-.17.18-.32.1-.49.2-.41-.58-.86-1.16-.3-1.72z" fill="#f09021" fill-rule="evenodd" data-color="1"/>
            <path d="M5.39 20.77c-.62 0-1.08-1.36-.17-1.31.23.44.73.89.17 1.31" fill="#f09021" fill-rule="evenodd" data-color="1"/>
            <path d="M16.7 23.08c-2.2-2.47-2.87-5.37-1.06-7.55a3.62 3.62 0 0 1 5.42-.63c2.94 2.81.58 10.36-4.36 8.18zm3-7.39c-1.37-1-3.81.83-3.69 2.58 2.47-2.81 4.88 1 3.84 3 1.33-1.27 1.46-4.39-.18-5.58zm-1.26 4c.28-.29 0-1.11-.38-1 .07.31-.2.91.35 1.01z" fill="#f09021" fill-rule="evenodd" data-color="1"/>
            <path d="M19.58 49.75c1.37-2 3.29-2.09 5.33-2.82a28 28 0 0 1 19.28.58c2.55 1 7 3.09 8.54 6.28 1 2.1.4 5.12-2.48 7.05s-6.53 2.36-10 2.58c-4.92.32-9.7.32-14.87-1.84-2.66-1.12-5.38-3.15-6.38-5.69a7.59 7.59 0 0 1 .58-6.14zm23.63 1.63c-7.09-1.14-14.5-2.61-21.39-1a74.45 74.45 0 0 1 12 1.91c4.12 1 8.12 2.57 12 2.33.37 0 2.86-.92 3.08 0 .13.55-.57.72-1.32.86-4.08.76-8.43-.69-12.27-1.79a65.31 65.31 0 0 0-13.08-2.48c-.16 0-.51-.21-.61 0a33.37 33.37 0 0 0 14 5.72A31.05 31.05 0 0 0 48 57.1c.52-.11 1.38-.41 1.64.45-.9.94-2.35 1-3.52 1.08a27.24 27.24 0 0 1-3.69.19 37.48 37.48 0 0 1-21.86-7.34 6.49 6.49 0 0 0 2.37 4C27 59.11 33.64 60.13 38 60.22c.63 0 1.63-.23 2 .46-.28.91-1.39.65-2.07.64s-1.65 0-2.39-.12c-4.86-.6-12.14-2.47-15.35-8-.75 4.22 5.39 7 8.58 7.86a35.62 35.62 0 0 0 13.23.69c2.65-.34 6.43-.68 8.69-3.22 3.67-4.11-3.46-8.1-6.76-9.46C37 46.23 28.81 46 22.6 49.41c6.86-1.5 14.23.07 21 1 .79.11 2.33-.14 2.58 1-.88.68-2.01.13-2.97-.03z" fill="#f09021" fill-rule="evenodd" data-color="1"/>
        </g>
    </g>
</svg>
