<?xml version="1.0" encoding="UTF-8"?>
<svg data-bbox="-0.008 -0.04 291.71 389.785" viewBox="0 0 291.7 389.82" xmlns="http://www.w3.org/2000/svg" data-type="color">
    <g>
        <g>
            <path d="M58 260.71a.15.15 0 0 0 0 .3.15.15 0 0 0 0-.3Z" fill="#167767" data-color="1"/>
            <path d="M280.83 117.22a.5.5 0 0 0-.18-.65c-8.91-5.66-54.4-2.95-66.71-.8-7.2 1.25-14.94 1.84-16 10.42-.82 6.81 1.16 13.34-7.55 16.46-6.07 2.17-12.45 3.12-18.81 4a.31.31 0 0 0-.28-.1c-9.34 1.58-24.66-2.71-29.19 8.95-2 5.27-.46 11.26-.13 16.67.28 4.65.07 9.87-1.59 14.29-2.37 6.32-7 8.16-13.07 9.16-8.14 1.34-16.26 2.83-24.39 4.28-5.36 1-11 2.09-15.15 5.87-9.78 8.9-4.78 24.8-7.2 36.42-6.1.24-14.71.63-19.77 4.1-4.78 3.27-4.62 9-3.52 14.13.08.38 71.2 3.32 71.34 2.71 1.18-5.43 5.3-18.69-10.93-19.81-5.17-.36-18.29 1.12-18.44-5.27-.2-8.54-.78-20.11 3.14-23.28 5.27-4.27 15-3.4 21.36-4.44 8.85-1.44 21.77-.35 27.73-8.56 5.78-8 4.69-20.71 5.36-30 .46-6.48 1.82-10.11 9-11.1 3.73-.52 7.48-1 11.21-1.45 6-.78 12.1-1.47 18.12-2.35 9-1.32 16.17-4.62 17.75-14.33 1.16-7.15-1.71-13.65 8.37-15.64 6.75-1.34 55.87-1.59 59.46-4.16 2.24-1.56 2.48-4.74.07-5.52Z" fill="#167767" data-color="1"/>
            <path d="M184.79 34.62A113.46 113.46 0 0 0 182 11.45a.54.54 0 0 0-1.06.14c.31 7.69 1.15 15.33 1.28 23 .06 3.83.9 9.74-.45 13.42-1.51 4.09-5.57 5.57-9 7.36-8.9 4.63-8.27 14.26-8.23 23.39a35.61 35.61 0 0 1-3.16-7.64c-3-10.57-.94-20.93-1.31-31.62 0-.52-.82-.67-.94-.12-3.14 13.71-2.86 31.22 5.34 43.39a38.4 38.4 0 0 0 2.53 3.39c4.13 4.68 8.65 7.72 10.51 14.08 1.56 5.33 1.52 11.29 1.76 16.82a312.79 312.79 0 0 1-.44 33.82c-.09 1.28 1.89 1.27 2 0a298.41 298.41 0 0 0 .54-32.35c-.31-7.56 0-16.68-3.81-23.53-1.68-3-4.2-5.12-6.58-7.56a42.56 42.56 0 0 1-4.74-5.88c.15-8.86-1.19-21 8.08-24.72 3.43-1.38 7.29-2.3 9.25-5.76 2.5-4.54 1.43-11.52 1.22-16.46Z" fill="#167767" data-color="1"/>
            <path d="M276.28 53c-9 .16-18 .8-27 1.31-4.94.28-12.18-.56-15.73 3.84-2.67 3.31-2 7.79-2.08 11.72-.14 8.33-3.43 13.91-11.68 16.23a32.1 32.1 0 0 1-12.6 1.16c0-2.42-.09-4.83-.12-7.17-.13-8.53-.49-17.08-1-25.61-.06-1.1-1.79-1.11-1.72 0 .49 8.07 1.13 16.12 1.44 24.19.3 7.69 2.54 21.75-7 25-4.84 1.67-10.22-.71-14.83 2.17-3.42 2.13-4.7 5.62-4.72 9.41 0 .78 1.12.75 1.19 0 1.11-13 13.27-7.2 20.69-11.27 2.88-1.57 4.42-4.56 5.18-7.64a24.78 24.78 0 0 0 .87-6.74c10.5.48 23.71-1.23 25.42-13.25.5-3.51-.14-7 0-10.53.41-9.17 8.2-9.18 15.26-9.49 9.48-.41 19-.7 28.45-1.49 1.17-.04 1.21-1.84-.02-1.84Z" fill="#167767" data-color="1"/>
            <path d="M281.52 155.35c-15.47.33-31.42-.35-46.77 1.76-4 .55-7.76 1-9.59 5.09a14.45 14.45 0 0 0-.89 4.27c-.56 4.41.23 6.75-2.62 10.47a10.25 10.25 0 0 1-7.18 4.58 37.08 37.08 0 0 1-6-.36c-12.54-1.93-7.85-9.67-10.31-17.2a13.1 13.1 0 0 0-7.45-8.09.13.13 0 0 0-.13.23c5.25 4 6.81 8.65 7.13 15 .11 2.17-.14 4.56.73 6.63 1.16 2.78 3.26 4.07 6.11 4.66.29.06.59.08.89.13 5 6.79 2.75 15.22 6.49 22.61 2.43 4.81 7.23 6 12.25 6.8 8.37 1.29 17.12.42 25.56.46 10.4 0 20.81-.31 31.21-.21a.52.52 0 0 0 0-1c-16.82.31-34 .82-50.85 0-5.29-.26-13.4-.65-16.64-5.73-2.46-3.83-2-9.93-2.52-14.29-.45-3.55-1-6.24-3.09-8.28 6.25.53 13.19-.61 19.25-.8 9.08-.27 18.16-.53 27.24-.86.93 0 .93-1.47 0-1.44-7.65.2-15.29.44-22.94.68-3.69.11-7.76.59-11.81.89a9.81 9.81 0 0 0 3.8-3.06c5-6.53-.54-16.28 8.17-19 6.9-2.17 41.79-2.43 50-2.63a.63.63 0 0 0-.04-1.31Z" fill="#167767" data-color="1"/>
            <path d="M258 178.61a.15.15 0 0 0 0 .3.15.15 0 0 0 0-.3Z" fill="#167767" data-color="1"/>
            <path d="M168.41 39.27c.8-1.45-.49-2.62-1.8-2.58a8.16 8.16 0 0 0-2.47.24l.16-.3c.46-.9 1.21-2.22.9-3.27-.46-1.6-2.19-1.51-3.09-.55a8 8 0 0 0-1.59 1.92l-.09-.33c-.31-1-.72-2.42-1.68-2.95-1.45-.81-2.61.48-2.57 1.79a7.88 7.88 0 0 0 .23 2.48l-.3-.16c-.9-.47-2.21-1.21-3.27-.91-1.59.47-1.5 2.2-.55 3.1a7.86 7.86 0 0 0 1.93 1.58l-.34.1c-1 .31-2.42.71-2.95 1.67-.8 1.46.49 2.62 1.8 2.58a8.16 8.16 0 0 0 2.47-.24l-.16.31c-.46.89-1.21 2.21-.9 3.27.46 1.59 2.19 1.5 3.09.54a8 8 0 0 0 1.59-1.92c0 .11.06.24.09.34.31 1 .72 2.42 1.68 3 1.45.8 2.61-.49 2.57-1.8a7.88 7.88 0 0 0-.23-2.48l.3.16c.9.47 2.21 1.21 3.27.91 1.59-.46 1.5-2.19.55-3.09a7.88 7.88 0 0 0-1.93-1.68l.34-.1c.96-.26 2.42-.67 2.95-1.63Zm-8.74.92Z" fill="#167767" data-color="1"/>
            <path d="M188.89 5.28c.28-1.64-1.32-2.31-2.55-1.84a8 8 0 0 0-2.26 1l.06-.34c.14-1 .41-2.49-.23-3.39-1-1.35-2.57-.69-3.1.51A7.82 7.82 0 0 0 180 3.6l-.21-.29c-.6-.81-1.47-2-2.55-2.23-1.64-.28-2.31 1.32-1.84 2.54a8.07 8.07 0 0 0 1 2.26h-.34c-1-.14-2.49-.41-3.38.23-1.35 1-.7 2.56.5 3.1a7.93 7.93 0 0 0 2.34.86l-.28.2c-.81.61-2 1.47-2.24 2.56-.27 1.63 1.33 2.3 2.55 1.83a7.91 7.91 0 0 0 2.26-1c0 .12 0 .24-.05.34-.14 1-.41 2.49.22 3.39 1 1.35 2.57.7 3.1-.5a8.29 8.29 0 0 0 .87-2.35c.06.1.14.21.2.29.61.81 1.47 2 2.55 2.23 1.64.28 2.31-1.32 1.84-2.54a8.07 8.07 0 0 0-1-2.26l.34.05c1 .14 2.49.41 3.38-.23 1.36-1 .7-2.56-.5-3.1a8.11 8.11 0 0 0-2.39-.98l.29-.2c.8-.58 2.05-1.44 2.23-2.52ZM180.94 9Z" fill="#167767" data-color="1"/>
            <path d="M210.84 51.43c.2-1.2-1-1.69-1.87-1.35a5.65 5.65 0 0 0-1.65.77v-.25a3.66 3.66 0 0 0-.16-2.49 1.29 1.29 0 0 0-2.27.37 5.77 5.77 0 0 0-.64 1.72c-.05-.07-.1-.15-.15-.21-.44-.59-1.07-1.5-1.87-1.64-1.2-.2-1.69 1-1.35 1.87a6.1 6.1 0 0 0 .77 1.66h-.25a3.72 3.72 0 0 0-2.49.16 1.29 1.29 0 0 0 .37 2.28 6 6 0 0 0 1.72.63l-.21.15c-.59.45-1.5 1.08-1.64 1.87-.2 1.2 1 1.69 1.87 1.35a6 6 0 0 0 1.66-.76 2.17 2.17 0 0 0 0 .25 3.76 3.76 0 0 0 .16 2.48 1.29 1.29 0 0 0 2.28-.37 5.77 5.77 0 0 0 .63-1.72l.15.21c.45.6 1.08 1.51 1.87 1.64a1.29 1.29 0 0 0 1.35-1.87 6 6 0 0 0-.76-1.66h.25a3.7 3.7 0 0 0 2.48-.16 1.29 1.29 0 0 0-.37-2.28 6.06 6.06 0 0 0-1.72-.63l.21-.15c.59-.44 1.5-1.08 1.63-1.87ZM205 54.18Z" fill="#167767" data-color="1"/>
            <path d="M285.13 50.43c.28-1.63-1.32-2.3-2.54-1.83a7.79 7.79 0 0 0-2.26 1c0-.12 0-.24.05-.34.14-1 .41-2.49-.23-3.39-1-1.35-2.56-.7-3.1.5a8.29 8.29 0 0 0-.86 2.35l-.2-.29c-.61-.81-1.47-2-2.55-2.23-1.64-.28-2.31 1.32-1.84 2.54a7.79 7.79 0 0 0 1 2.26h-.34c-1-.14-2.49-.41-3.39.23-1.35 1-.69 2.56.51 3.1a8.11 8.11 0 0 0 2.34.86l-.29.2c-.81.61-2.05 1.47-2.23 2.55-.28 1.64 1.32 2.31 2.54 1.84a7.79 7.79 0 0 0 2.26-1c0 .12 0 .23-.05.34-.14 1-.41 2.49.23 3.39 1 1.35 2.56.69 3.1-.51a7.82 7.82 0 0 0 .86-2.34l.2.29c.61.81 1.47 2.05 2.56 2.23 1.63.28 2.3-1.32 1.83-2.54a7.79 7.79 0 0 0-1-2.26l.34.05c1 .14 2.49.41 3.39-.23 1.35-1 .7-2.56-.5-3.1a7.89 7.89 0 0 0-2.35-.86l.29-.2c.81-.66 2.1-1.52 2.23-2.61Zm-7.95 3.76Z" fill="#167767" data-color="1"/>
            <path d="M291.12 157.16c1.21-1.14.35-2.64-.92-3a7.93 7.93 0 0 0-2.43-.53 2.89 2.89 0 0 0 .25-.24c.72-.71 1.83-1.74 1.87-2.83.05-1.66-1.63-2.11-2.78-1.48a8.23 8.23 0 0 0-2.1 1.35v-.35c0-1 .07-2.52-.68-3.32-1.14-1.21-2.64-.35-3 .92a7.93 7.93 0 0 0-.53 2.43 2.89 2.89 0 0 0-.24-.25c-.71-.72-1.74-1.83-2.83-1.87-1.66 0-2.11 1.63-1.48 2.78a8.23 8.23 0 0 0 1.35 2.1h-.35c-1 0-2.52-.07-3.32.68-1.21 1.14-.35 2.64.92 3a7.93 7.93 0 0 0 2.43.53 2.89 2.89 0 0 0-.25.24c-.72.71-1.83 1.74-1.87 2.83-.05 1.66 1.63 2.11 2.78 1.48a8.41 8.41 0 0 0 2.1-1.35v.35c0 1-.07 2.53.68 3.32 1.14 1.21 2.64.35 3-.92a7.93 7.93 0 0 0 .53-2.42l.24.24c.71.72 1.74 1.83 2.83 1.87 1.66 0 2.11-1.63 1.48-2.78a8.41 8.41 0 0 0-1.35-2.1h.35c1.01.01 2.52.07 3.32-.68Zm-8.6-1.81Z" fill="#167767" data-color="1"/>
            <path d="M262.13 182.48a1.32 1.32 0 0 0-.69-2.25 6 6 0 0 0-1.82-.4l.19-.18c.53-.53 1.37-1.3 1.39-2.12a1.31 1.31 0 0 0-2.07-1.1 6.38 6.38 0 0 0-1.57 1v-.26a3.76 3.76 0 0 0-.52-2.49 1.31 1.31 0 0 0-2.24.69 6 6 0 0 0-.4 1.82l-.18-.19c-.53-.53-1.3-1.37-2.12-1.39a1.31 1.31 0 0 0-1.1 2.07 5.84 5.84 0 0 0 1 1.57h-.27a3.74 3.74 0 0 0-2.48.51A1.31 1.31 0 0 0 250 182a5.89 5.89 0 0 0 1.82.4l-.19.18c-.54.53-1.37 1.3-1.39 2.12a1.31 1.31 0 0 0 2.07 1.1 5.84 5.84 0 0 0 1.57-1v.27a3.8 3.8 0 0 0 .51 2.48 1.32 1.32 0 0 0 2.25-.69 5.89 5.89 0 0 0 .4-1.81l.18.18c.53.54 1.3 1.37 2.12 1.39a1.31 1.31 0 0 0 1.1-2.07 6.38 6.38 0 0 0-1-1.57h.26a3.82 3.82 0 0 0 2.43-.5Zm-6.43-1.36Z" fill="#167767" data-color="1"/>
            <path d="M290.33 214.37a1.67 1.67 0 0 0-.88-2.86 7.71 7.71 0 0 0-2.32-.51l.24-.23c.68-.68 1.74-1.66 1.78-2.7.05-1.59-1.55-2-2.65-1.41a7.53 7.53 0 0 0-2 1.28v-.33c0-1 .06-2.4-.65-3.17a1.68 1.68 0 0 0-2.87.88 7.64 7.64 0 0 0-.51 2.32c-.08-.08-.15-.17-.23-.24-.68-.68-1.65-1.75-2.7-1.78-1.58-.05-2 1.55-1.4 2.65a7.69 7.69 0 0 0 1.28 2h-.33c-1 0-2.41-.06-3.17.65a1.68 1.68 0 0 0 .88 2.87 7.57 7.57 0 0 0 2.31.51 2.5 2.5 0 0 0-.23.23c-.69.67-1.75 1.65-1.78 2.7-.05 1.58 1.55 2 2.64 1.4a7.73 7.73 0 0 0 2-1.28v.33c0 1-.07 2.41.65 3.17 1.08 1.15 2.51.32 2.86-.88a7.57 7.57 0 0 0 .51-2.31l.23.23c.68.69 1.66 1.75 2.7 1.78a1.67 1.67 0 0 0 1.41-2.64 7.57 7.57 0 0 0-1.28-2h.33c.97-.03 2.41.06 3.18-.66Zm-8.21-1.73Z" fill="#167767" data-color="1"/>
            <path d="M.14 258.84a.15.15 0 0 0 0 .3.15.15 0 0 0 0-.3Z" fill="#167767" data-color="1"/>
            <path d="M166 262.39c-.15-.82-15.21-2.13-36.53-3-20.85-.81-47.69-1.18-72.4-.23-16.33.63-31.73 1.84-43.86 3.87-.55.1-12.66 61.26 3 93.66 13.53 27.94 43.92 32.41 71.69 33 26.44.59 51.88-3.22 66.94-27.61 3.94-6.35 6.22-13.42 7.73-20.74 1.66-6.66 4.81-27.38 4.81-39.05l-.08.73c1.13-13.54 1.15-26.97-1.3-40.63Zm-10.65 95.29c-13.95 26.35-42 32.2-69.94 30.8-32-1.61-61.92-9.87-71.35-44.05C9 326.36 9.91 307 12 288l.33-2.9c.26-2.31.53-4.6.84-6.9 0-.46.09-.93.16-1.4.28-2.24.56-4.45.84-6.65 0-.49.12-1 .18-1.46.19-1.48.37-2.95.55-4.41 59.35-3.94 101.34-.86 149.08 1.1.24 1.42.47 3.24.68 5.42.05.59.11 1.22.16 1.87.14 1.69.28 3.54.39 5.53 0 .57 0 1.13.08 1.72.14 2.86.25 6 .29 9.28v2c.19 21.88-1.93 50.74-10.26 66.48Z" fill="#167767" data-color="1"/>
            <path d="M165.71 270.87c-50.11-2.44-102.18-6.27-152.25-2.08a.68.68 0 0 0 0 1.35c50.66 2.21 101.5-.09 152.25 2.59 1.2.07 1.2-1.81 0-1.86Z" fill="#167767" data-color="1"/>
            <path d="M166.23 278.25c-51.16-1.51-103.14-4.57-154.23-1.35a.66.66 0 0 0 0 1.31c51.42 1.1 102.82-.94 154.27 1.77 1.06.02 1.07-1.69-.04-1.73Z" fill="#167767" data-color="1"/>
            <path d="M166.21 291.2h-.64c-26.91-.9-53.8-1.26-80.72-1.86-13.56-.3-27.11-.55-40.68-.58-10.64 0-20-.68-32.2-.73h-1.09c.08-.57.19-2.28.24-2.85.39 0 .78-.05 1.18-.05 25-1 50.44 1.47 75.45 2.12 25.94.69 51.86 1.58 77.8 2h.66c1.26.01 1.26 1.99 0 1.95Z" fill="#167767" data-color="1"/>
            <path d="M140 364c-.9 1-2.28-.46-1.46-1.46C150 348.69 153.4 335.28 156.27 318c0-.24.34-.14.37.05 2.01 16.21-6.17 34.06-16.64 45.95Z" fill="#167767" data-color="1"/>
            <path d="M127.35 372.76c-3.63 3.52-10.43 7-15.6 6.6-.6-.06-1-.95-.34-1.27 2.23-1.07 4.71-1.54 7-2.4a88.33 88.33 0 0 0 8.11-4c.68-.32 1.41.52.83 1.07Z" fill="#167767" data-color="1"/>
        </g>
    </g>
</svg>
