<?xml version="1.0" encoding="UTF-8"?>
<svg data-bbox="-0.001 0.023 352.22 566.417" viewBox="0 0 352.22 566.44" xmlns="http://www.w3.org/2000/svg" data-type="color">
    <g>
        <g>
            <path d="M347.35 184.52c3.67 7.63 4.17 9.57 3.67 15.1-.73 7.62-5 15.39-12.73 23.08-7.19 7.19-16.68 11.64-29 13.66-7.19 1.23-13.3 3.23-21.7 7.33-11.8 5.68-20.29 7.63-26.6 6-4.54-1.15-11.15-7.55-16.47-16-2.66-4.17-5-7.54-5.33-7.54a11.38 11.38 0 0 0-2.94 1.29c-3.09 1.65-6.26.5-11.36-3.89l-4.1-3.66-8.05 2.51c-10.5 3.31-28.76 12.73-35.44 18.34-2.88 2.45-6.26 6.39-7.41 8.84-2 4.38-2 4.38 1.44 11.15a112.92 112.92 0 0 1 6.11 14.51 77.6 77.6 0 0 0 4.89 11.58c2.23 3.6 2.8 3.89 11.72 4.6 28 2.37 56.51 7.55 65.06 11.72l5.4 2.66 1.49 13.31c.79 7.27 2.09 29.91 2.81 50.33s2.37 50.89 3.52 67.64c1.8 25.74 2.95 64.5 2.95 98.29 0 13.94-5.76 19.48-27.18 25.66-15.16 4.39-30.19 5.53-72 5.4-32.93-.08-39.55-.44-56.3-3-23.73-3.59-40.19-6.82-48.67-9.71-6.25-2-6.61-2.37-7.34-7-.42-2.6-1.15-13-1.57-23.16S60.7 499.71 59.91 493c-1-8.34-1.43-32.78-1.36-78.08.07-68.08 1.15-89.43 4.82-97.2 5.1-10.64 35.44-20.56 75.2-24.58 16-1.59 15.67-1.3 17-13.38.57-5 .07-8-2.52-15.24-5-13.73-6.9-16.89-17.33-28.11-5.32-5.75-10.49-12.15-11.57-14.23s-2.09-3.89-2.23-4.1-2.08.5-4.46 1.44-5.17 1.51-6.47 1.15c-1.8-.43-2.66.36-3.73 3.38-.8 2.16-4 6.83-7 10.27-11.57 13.16-22.64 15.82-33.86 8.13-6-4.17-6-4.17-10-2.16-2.52 1.3-7.7 2.23-13.59 2.44-8.92.37-10 .16-15.1-3.08C20.59 235 17.86 229.24 18 219a78.89 78.89 0 0 1 1.3-13c1.14-5.11 1.14-5.18-2.59-6.75-9.56-4-14.45-11.15-16.25-23.59C-2.35 155.34 8 131.54 23 124.06c4.46-2.22 5.61-3.31 4.82-4.67a41.87 41.87 0 0 1-2.23-7.55c-1.8-7.91.21-18.19 6-30 14.66-30.2 45.15-48.75 69-41.91 2.24.64 2.74 0 4-5 2-8.12 6-14.38 13.73-21.78 21.21-20 48.46-17 73.19 8l7.12 7.19 5.24-4.82c9.71-9 25-13.94 36.17-11.78C259.78 15.5 275 32.9 276.75 53.61c.65 7.19 1 8.48 2.66 7.84a64 64 0 0 1 8.26-2c12.52-2.3 25.31 3 31.49 12.87 4.1 6.69 4.75 23.37 1.23 33.29-1.37 3.88-2.24 7.48-1.88 8s4 2.87 8.2 5.25c10 5.61 18.77 13.58 21.93 20 5.46 11.15 4.6 23.88-2.08 32.35l-3.56 4.54Zm-6-13.51c3.67-3 6.54-10.43 6.54-17 0-12.37-7.91-22.64-24.73-32.2a46.78 46.78 0 0 1-8.27-5.83c-2-2.23-2-2.66.64-9.78 4.11-10.93 4-23.86-.35-31.28-6-10.13-19-14.08-32.71-9.91-9.71 2.95-9.71 3-9.78-6.84 0-11.64-3.53-20.56-11.29-29-6.61-7.27-15.46-12.23-23.87-13.38-10.14-1.37-25.38 4.81-34 13.88-2 2-4 3.67-4.61 3.67s-5.89-4.54-11.71-10C173.08 10 164.09 5.51 150.42 4.79c-9-.5-10.48-.21-16.75 2.81-8 4-19.18 14.66-22.43 21.49a36.51 36.51 0 0 0-2.79 10.57c-.37 3.09-1 6-1.59 6.32s-3.52-.21-6.47-1.22c-15.75-5.32-34.65 1.58-50.9 18.55-19.41 20.34-26.67 50.4-13.94 57.38 4.88 2.72 4.09 4.17-2.74 4.88-11.81 1.3-21.35 11.72-26.67 29.19-3.23 10.49-2.66 22 1.51 30.34 2.45 4.89 4 6.33 9.92 9.2l7 3.38-.78 5.61c-2.38 18.05-2.3 21.07.36 26.38 2.94 5.68 9.7 9.64 16.68 9.71 5.53.07 14.23-2.3 15.89-4.31 2.15-2.52 4.16-2 10.13 2.52 10.42 8 18.4 6.6 29.33-5 6.33-6.69 9.57-12.65 9.57-17.75 0-3.6 2.37-4 3.23-.65.72 2.87 5.89 3.31 9.27.79 1.88-1.36 2.16-3.16 2-12.22A124.66 124.66 0 0 1 122 182c1.87-9.7 1.58-21.7-.51-21.7-.5 0-1.93 1.15-3.16 2.52-2.65 2.94-8.12 2.72-8.7-.44-.36-1.72.15-2 2.59-1.36 4.39 1.07 7.12-4.61 6.54-13.67l-.35-6.75 4.82-.72c6.89-.94 9.62-2.8 11.71-8 1.58-4 2.52-4.75 7.62-6.12 7.27-1.93 17.54-12.14 19.2-19 1.44-6.26 3.95-6.69 3.95-.65 0 8-10.2 19.56-20.78 23.58-3.38 1.3-5.82 3.09-6.32 4.68a17.49 17.49 0 0 1-4.25 5.74l-3.44 3.17 3.52 5.25c4.38 6.47 7.33 15.17 7.33 21.49V175l4-2.37a36.27 36.27 0 0 1 10.5-3.16c8.85-1.16 15.53-5.4 22-13.8 3-3.88 5.46-7.55 5.46-8s-1.72-1.09-3.81-1.16c-5.6-.22-9.56-5.32-9.12-11.58.5-6.61 3.37-7.47 3.37-1.07 0 2.8.8 5.61 1.87 6.68 2.59 2.6 8 2.38 11.65-.5 3.23-2.58 5.68-3.09 5.68-1.22s4.89 4 9.56 4.39a71.91 71.91 0 0 1 8 1.07c3 .65 5.11.08 9.27-2.37 6.41-3.74 10.94-8 12-11.43s4.25-3.1 4.25.29c0 4.09-2.95 7.55-11.22 13.15-7.62 5.18-12.3 6.12-20.13 4-3-.8-3.45-.44-6.9 6.83-7 14.59-16 23.72-25.38 25.37-4.89.86-23.23 8.27-25.89 10.43a29.86 29.86 0 0 0-4.16 6.19c-2.88 5.68-2.16 10.2 2.44 15.59 1.8 2.16 4.67 5.83 6.54 8.35 4.68 6.39 6.62 7.11 13.81 5.24 4.31-1.15 7.84-3.23 11.86-7 7-6.46 15.46-10.63 30.41-14.8s15.53-4.53 11.43-7.77c-6.68-5.31-8.7-13.51-4.24-17.47l2.59-2.3-.86 4.53c-.86 4.67.57 8.7 3.95 11.36 3.24 2.45 4.81 1.73 9.2-4.45 4.24-5.83 4.39-5.91 9.42-5.26s5.32.44 8.49-3.66c3.3-4.39 3.3-4.39 5.6-1.94a11.8 11.8 0 0 0 4.89 3.09c1.51.36 3.6 2.22 4.75 4.24 2.66 4.6 7 4.6 15.6.07 5.46-2.87 7.54-3.31 12.58-2.87 7.9.78 14.38-1.51 19.12-6.69 3.24-3.45 4-3.81 4.67-2.16 1.08 3-2.44 7.55-8.19 10.57-3.81 2-7.33 2.73-13.59 2.81-5.75.07-9.35.79-11.28 2.08-1.59 1.15-5.68 2.66-9.14 3.45-5.47 1.22-6.75 1.15-9.41-.65a14.26 14.26 0 0 1-4.46-5c-1.3-2.8-1.66-2.37-6.33 7.56-6.19 13-10.57 18.11-18.83 21.85-3.46 1.58-6.54 3.09-6.83 3.24s.5 1.43 1.65 2.73c2.58 2.87 7.26 3.16 8.26.57 1.22-3.17 5 0 11.36 9.35 11.87 17.61 16.33 18.54 38.18 8.12 8.7-4.17 15-6.26 21.42-7.26a67.18 67.18 0 0 0 14.38-3.66c6.83-2.88 16.61-12.09 21-19.7 4.46-7.84 4.46-13.45-.15-23.16-4.06-8.55-4.49-12.43-1.75-14.74Zm-71.29 358.11c1.58-6 .65-48.17-1.94-85.42-.93-13.16-2.3-39.9-3-59.31s-1.58-38.76-2-42.85l-.57-7.47-3.37 2.37a39.41 39.41 0 0 1-6.48 3.59c-4.59 1.73-4.31 7.55.65 14.31 3.38 4.67 3.6 5.39 2.16 7.69-6.4 9.92-6.76 13.3-2 18.48l2.43 2.72-3.3 3.46c-4 4.17-3.59 8.55 1.16 11.57 3.73 2.52 3.73 4.39-.08 8.2-4.45 4.46-3.88 8.63 1.94 14l5 4.53-2.59 3.24c-3.23 4.17-3.3 11.14-.06 15.16 2.79 3.6 3 6 .71 8a15.12 15.12 0 0 0-3.16 4.89c-1.22 3-1.08 4.1 1.3 8.2l2.66 4.82-2.6 3.23c-3.37 4.31-3.23 5.68 1.09 10.57s4.38 6 .57 10.57c-3.67 4.38-3.81 8.12-.36 15l2.73 5.4-2.54 1.93a32.49 32.49 0 0 0-4.46 5.11c-2.29 3.46-1.58 6.48 2.95 13.88l2.45 4 4.6-2.45c3.81-1.9 4.96-3.33 6.11-7.42Zm-1 14.66c2.29-4.68 1.22-5.9-2.95-3.17-5.39 3.46-19.71 8-34.51 11.15-18.26 3.73-54.06 5.1-75.71 2.87-15.38-1.58-62.4-8.91-73.83-11.5a64.25 64.25 0 0 0-11.21-1.8c-3.17 0-3.53.36-3.17 3.31.29 2.66 1.3 3.6 5.18 4.88 6.18 2.09 31.2 6.83 47.88 9.14 7.26 1 14.52 2 16.18 2.37s22.93.36 47.37.22c43.71-.29 44.5-.29 57.52-3.53 16.1-4.03 24.37-8.2 27.25-13.94Zm-9.43-230.27c1.66-2.38 1.66-2.89.08-4.68-2.3-2.51-7.19-3.89-26.89-7.62-15.24-2.88-39.62-5.75-40.62-4.82-.22.21 1.36 1.94 3.52 3.81 3.81 3.17 4.61 3.31 20.85 4 19.48.79 30.12 3.31 35.16 8.27 4.02 4.12 5.61 4.34 7.9 1.04Zm-2.87 175.27-3-3.24c-3.38-3.66-4-10.42-1.3-14.31 1.44-2.08 1.44-2.73 0-4.74-2.44-3.38-2.08-11.07.73-15l2.44-3.37-2.44-4a15.74 15.74 0 0 1-.65-15.24c1.65-3.16 1.58-3.52-1.72-6.69-4.9-4.6-5.61-9.13-2.6-15.24 2.45-5 2.45-5 .22-7.48-3.67-4-4.24-8.48-1.51-13 2-3.45 2.09-4.31.72-6.25-2.66-3.53-2-11.43 1.15-16.18l2.88-4.17-2.88-4.17a26.5 26.5 0 0 1-3.59-8.56c-.65-4.23-.8-4.38-4.1-3.23l-3.38 1.22-.36 19.34c-.8 40.27 0 135 1.29 150 2.31 28.19 2.73 30.77 4.39 30.12.86-.36 3.81-1.22 6.47-1.93s4.89-1.74 4.89-2.31-1.37-3.37-3-6.25c-4.17-7.26-4-12.51.71-17.33 3.67-3.73 3.67-3.88 1.59-7-3.09-4.68-2.87-12.8.36-17.26Zm-4.82-305.62c0-1.16-.93-.8-3.09 1.22-2.3 2.23-4.31 2.88-8.26 2.8-4.32-.07-5.47.36-6.76 2.81-.87 1.65-4.39 5.53-7.84 8.63-5.25 4.81-8.12 6.32-18.55 9.63-15.75 5-20.34 7.33-27.46 14-8.34 7.77-20.21 10.92-26 6.9-1.44-1-5.68-5.9-9.41-10.86-8.05-10.71-9.43-16.39-5.54-23.94a29.17 29.17 0 0 1 4.68-6.75c2.58-2.37 19.26-9.21 29.33-12.16 8-2.3 14.38-8.7 20.2-20.34l3.67-7.41-2.59-2.08c-1.51-1.22-3.24-1.94-3.89-1.72s-3.3 3.88-5.89 8.12a90.41 90.41 0 0 1-8.48 11.72c-4.61 4.88-14.38 9.7-19.7 9.78-2.16 0-6.61 1.43-9.92 3.3-6.69 3.67-8.28 2.95-8.34-4 0-9.7-8.92-28-13.59-28-1.94 0-2.09.65-1.36 5.1a20.29 20.29 0 0 0 1.93 6.47c2.3 2.81 2.52 17.61.5 29.62-2.29 13.44-1.72 24.88 1.66 32.57 1.15 2.66 6.18 9.13 11.07 14.45 10.14 10.79 13.87 16.61 18.33 28.32 4 10.65 3.82 17.19-.71 32.93-2 7-5.18 18.12-7 24.52l-3.31 11.57 2.52.51c4.82.94 17 .86 36-.36 10.49-.72 19.34-1.51 19.63-1.8.86-.86-2.23-13.88-4.17-17.69-.94-1.87-5.47-6.4-10-10.13-8.77-7.12-14.09-15.24-16.82-25.53a58.76 58.76 0 0 0-4.89-11.5c-2-3.52-3.45-7.91-3.45-10.28 0-5 4.6-11.93 11.58-17.4s27.67-15.53 38.31-18.4c13.81-3.74 23.52-8.49 27.11-13.23s10.5-18.8 10.5-21.39Zm-2.8 137.17c2.16-1.58 2.16-1.72 0-4.09-4.24-4.61-22.5-8.49-40.12-8.49-5.68-.07-6.32.21-5.53 2.09 1.51 3.52 4.17 13.87 4.17 16.25 0 2.15.65 2.3 9.06 1.57a164.34 164.34 0 0 0 19.7-3.23c5.75-1.36 11.49-3.23 12.72-4.1Zm-13.09 225.31c.44-.36.08-8.12-.72-17.18-2.72-31.63-3.73-72-3.08-122.51.28-28 .93-53 1.29-55.57.72-4.6.72-4.67-2.73-3.88-1.87.36-7.7 1.3-13 2.08s-10.71 1.51-12.07 1.73c-2.38.43-2.52 1.44-3.31 22.29-1.15 31.85-.93 107.41.43 131.64 2.52 45.93 2.59 46.73 4.67 46.66 1.08 0 7.77-1 14.89-2.31s13.27-2.51 13.63-2.95ZM200.83 551l-.83-14.7c-2.95-54.28-3.38-73.9-2.59-127.61l.79-57.88h-8.41c-8.34 0-8.34.08-9.13 3.67-.58 2.51-.08 5.17 1.87 9.13 2.37 5 2.51 6.12 1.22 10.5-3.31 11.21-3.38 12.29-1.66 17 2.88 7.55 3.1 10.71 1.09 14.59-2.89 5.39-2.45 10.93 1.22 16.33l3.16 4.67-3.74 6.82c-4.81 8.7-5 15-.64 22.43l3.08 5.32-2.8 3.82a13.17 13.17 0 0 0-.15 15.74c2.52 3.38 2.6 3.88.94 8.34-2.3 6.47-2.22 8.91.5 14.23 1.8 3.6 2 5.25 1.08 8.05-.86 2.45-.86 5.26.14 9.43s1.09 6.53.15 8.26c-1.94 3.67-1.51 11 1.08 16.69 2.23 5 2.44 5.1 7.91 5.1Zm-23.94.21c7.9.43 8.26.29 6.33-3.59-1.23-2.37-1.73-8.34-1.73-22 0-10.35-.58-19.78-1.16-21-2-3.89-2.51-9.42-1.43-14.24.86-3.81.57-5.89-1.51-11L174.8 473l2.74-6.46 2.65-6.48-2.44-4.6c-3.6-6.69-3.23-15 .93-22.64l3.39-6.11-2.81-4.1c-3.45-5-3.74-13.31-.58-18.48 2.09-3.45 2.09-3.74 0-8.41-2.73-6-2.73-14 .08-20.78 2-5 2-5.39-.08-9.56a24.57 24.57 0 0 1-2.23-9.49v-5.18l-7.33.36-7.4.36.21 24c.43 37.73 2.37 94.6 4.39 123.44 1.73 25.45 2.23 31.48 3.66 45.43l.65 6.54ZM165.67 550c0-.51-1.08-14.38-2.38-30.84-2.58-33.5-4.45-76.64-5.53-131.35L157 351.1l-6.18-.72c-18.62-2-27.1-2.22-27.1-.58 0 .87.58 7.84 1.15 15.39s1.94 31.35 3 52.77c2 41.04 3.87 76.04 4.88 88.04 2.15 28.18 3.3 40.75 3.81 41.26s19.62 3.31 25.22 3.52c2.16.12 3.89-.25 3.89-.78ZM150.5 299.26c.65-2.58.51-2.58-8.55-1.79-27.9 2.44-48.25 7.19-63.7 14.81-10.78 5.32-12.22 8.27-4.68 9.63.44.15 1.37-.57 2.09-1.44 2.52-3 17.47-9.05 28.54-11.5a238.35 238.35 0 0 1 25.74-3.74c16.89-1.51 19.56-2.3 20.56-5.97Zm-7.69 26.83c2.22-8.06 4.09-17.19 3.59-17.62-1.22-1-28.25 2.09-40 4.6-13.23 2.81-27 7.91-27 10 0 1.51 2.73 2.15 19.2 4.31 16.24 2.15 21.42 2.59 33.79 2.88l9.2.21Zm-12 219c.22-.94-.21-9.64-1-19.2s-1.57-20.12-1.86-23.43-1.66-27.82-3-54.57c-3.67-74.49-5.1-98.71-6-99.71-.43-.51-3.09-1-6-1.09-3.88-.14-5.6.36-6.83 2-2.51 3.37-2 12.22.86 16.24l2.52 3.53-2.73 5.61c-3.81 7.9-3.67 15.53.5 21.78 3.82 5.76 3.82 5.89.8 9.7-4.17 5.33-3.1 11 3.88 20.64 1.22 1.66 1 3-1.22 7.55-3.38 6.9-3.38 12.79 0 18.76 2.37 4.24 2.51 5 1 8.56a40 40 0 0 0-2.15 9.35c-.44 4.88-.08 6 3.44 10 3.24 3.74 3.67 4.81 2.45 6.47a63.34 63.34 0 0 0-3.88 7c-2.87 6.12-2.23 9.42 3.23 16.61 4.68 6.11 4.75 6.33 2 11-1.8 3.08-1.87 4.45-.51 11.78.79 4.6 1.87 9 2.37 9.78s3.31 1.94 6.26 2.44c4.35.76 5.5.61 5.86-.82Zm-18.55-24.73c1.51-2 1.3-2.88-2-7.62-5-7.26-5.83-16-2.08-22.57l2.66-4.68-3.17-4.6c-3.59-5.25-4-11.43-1.22-18.26 1.65-4.25 1.58-4.89-.64-9.28-3-6-3-12.94.07-19.69 2.37-5.25 2.37-5.32 0-7.77-5.18-5.54-6.33-14.52-2.67-20.49 2.16-3.52 2.16-3.74.08-6.76-1.23-1.65-2.74-5.6-3.45-8.7-1.08-4.67-.86-6.69 1.15-12.43 1.36-3.82 2.51-7.12 2.58-7.48s-.71-2.73-1.93-5.32c-2-4.6-2-7.62.06-16.4.65-2.87.36-3.15-4.46-3.88a70.76 70.76 0 0 1-8.11-1.51l-2.81-.79.79 23.8c3.17 89.3 4.46 118.84 6.19 137.24 2.15 24.09 3.66 37 4.45 37.75s10.07 2.52 13.51 2.73c2.45.15 2.45-.07.94-7.33-2.03-9.72-2.03-13.11.05-15.98ZM89.4 540c3.08.14 3.3-.14 2.72-3.16-2.8-13.73-6-65-7.9-124.31-.65-21.78-1.51-46.95-2-55.94l-.79-16.39-4.89-1.87a66.41 66.41 0 0 0-8.7-2.58l-3.76-.75-.93 31c-1.51 45.37-1 94.91 1.08 120.86 1 12.51 2.23 28.25 2.66 34.94s1.22 12.72 1.65 13.44c.86 1.35 14.67 4.51 20.86 4.76Z" fill="#ffb541" data-color="1"/>
            <path d="M294 124c2 2-.43 6.32-5.32 9.21a46.67 46.67 0 0 0-8.49 6.68c-4 4.24-8.84 4.81-11.86 1.51a9.62 9.62 0 0 1-2-5.4c0-4.3 3.31-4.23 3.81.08.58 4.67 3.52 4.6 8.63-.21a63.37 63.37 0 0 1 8-6.33c1.94-1.15 3.59-2.74 3.59-3.52-.03-2.02 2.35-3.32 3.64-2.02Z" fill="#ffb541" data-color="1"/>
            <path d="M238 196.67c1.86.65 1.07 4.24-1.8 8.27-2.09 2.88-5.83 4.6-5.83 2.66s6.47-11.36 7.63-10.93Z" fill="#ffb541" data-color="1"/>
            <path d="M229.3 525.16c.86 7.26-.94 13.73-3 10.49-.29-.51-.72-4.45-.87-8.7-.28-6.11.08-7.76 1.37-7.76s1.99 1.94 2.5 5.97Z" fill="#ffb541" data-color="1"/>
            <path d="M227.35 490.93c1.09 10.43-.28 15.53-3.38 12.51-.42-.42-.79-5.32-.79-10.78 0-7.77.37-10 1.73-10 1.15.01 1.87 2.34 2.44 8.27Z" fill="#ffb541" data-color="1"/>
            <path d="M226.13 427.75c.08 2.58-1.8 4.09-3.31 2.58-.42-.44-.78-4.74-.78-9.56 0-7 .36-8.85 1.79-8.85s1.8 1.66 2 6.62c.09 3.59.23 7.76.3 9.21Z" fill="#ffb541" data-color="1"/>
            <path d="M225 445.5c1.66 0 2.3 20.42.73 22-.8.79-1.45.58-2-.65-1.04-2.94-.05-21.35 1.27-21.35Z" fill="#ffb541" data-color="1"/>
            <path d="M225.63 393.31c0 6.32-.43 7.83-1.87 7.83s-1.8-1.37-1.51-7.33c.22-4.61.93-7.62 1.87-7.91s1.51 1.58 1.51 7.41Z" fill="#ffb541" data-color="1"/>
            <path d="M223.83 356.78c1.73.08 1.51 17.11-.21 17.69a1.54 1.54 0 0 1-1.87-.51c-.94-1.86.86-17.18 2.08-17.18Z" fill="#ffb541" data-color="1"/>
            <path d="M184.08 159.15c1.65 0 .71 4.45-1.44 6.39-2.59 2.38-5 2.59-5 .36.03-1.57 4.93-6.75 6.44-6.75Z" fill="#ffb541" data-color="1"/>
            <path d="M165.89 54.61c1.57 1.51-.8 3.09-8.41 5.47-8 2.51-8 2.51-10.94-.43s-3.37-10.79-.64-10.79c1.22 0 1.8 1.23 1.8 3.67 0 4.89 2.44 5.53 10.49 3 4.03-1.27 6.98-1.63 7.7-.92Z" fill="#ffb541" data-color="1"/>
            <path d="M162.94 298.12c2.8 0 1.22 14.3-1.66 15.24a1.69 1.69 0 0 1-1.93-.5c-1.09-1.86 2.08-14.74 3.59-14.74Z" fill="#ffb541" data-color="1"/>
            <path d="M160.42 536.44c.58 2.88.36 3.74-1.07 3.74a3.1 3.1 0 0 1-2.52-1.94c-.43-1-.72-4.24-.72-7.19 0-3.88.43-5.24 1.79-5.24 1.16 0 1.8 1.14 1.8 3.44a51.48 51.48 0 0 0 .72 7.19Z" fill="#ffb541" data-color="1"/>
            <path d="M156.68 497.05c1.37 0 1.8 1.51 1.8 6.54 0 6.11-.79 7.84-2.8 5.82-.44-.43-.79-3.37-.79-6.61 0-4.32.5-5.75 1.79-5.75Z" fill="#ffb541" data-color="1"/>
            <path d="M154.31 458.65c1.44 0 1.8 2.09 1.8 11.44 0 10.42-.64 12.72-2.8 10.57-.44-.44-.8-5.54-.8-11.36 0-8.64.36-10.65 1.8-10.65Z" fill="#ffb541" data-color="1"/>
            <path d="M154.38 427a67.13 67.13 0 0 1-.42 9.27c-.65 2.52-2.45 2.73-3.31.44-.36-.87-.51-5-.29-9.28.29-5.82.79-7.62 2.15-7.62s1.8 1.53 1.87 7.19Z" fill="#ffb541" data-color="1"/>
            <path d="M151.51 369.94c.21 6.75-.15 10.21-1 10.57a2 2 0 0 1-2.16-.87c-1.44-2.3-2-18.55-.71-20.41 2.15-3.23 3.43.28 3.87 10.71Z" fill="#ffb541" data-color="1"/>
            <path d="M150.21 392.16c2.3 0 2.45 17.54.21 18.32-.86.22-1.57.15-1.57-.21s-.15-4.6-.22-9.42c-.07-6.68.29-8.69 1.58-8.69Z" fill="#ffb541" data-color="1"/>
            <path d="M138.28 215.44c.57 0 1.08.79 1.08 1.8 0 2.66-3.24 2.15-5.32-.87s-2.45-6.39-.65-7.54c.65-.44 1.79.93 2.52 2.94s1.72 3.67 2.37 3.67Z" fill="#ffb541" data-color="1"/>
            <path d="M123.19 89.77c6-6.4 9.05-4.46 3.44 2.22-4.53 5.33-10.86 8.13-21.06 9.43-5 .57-10.64 2-12.73 3-5 2.66-9.35 2.44-12.22-.44-2.52-2.51-3.17-4.82-1.37-4.82a5.43 5.43 0 0 1 2.59 1.8c1.94 2.45 5.11 2.31 10.5-.43 2.45-1.22 7.83-2.52 11.94-2.94 9.34-.92 14.38-3 18.91-7.82Z" fill="#ffb541" data-color="1"/>
            <path d="M82.21 518.62c1.93 0 4.52 8.62 3.44 11.64-.57 1.8-2.23 2-3.16.43a32.74 32.74 0 0 1-1.44-6.61c-.64-4.53-.43-5.46 1.16-5.46Z" fill="#ffb541" data-color="1"/>
            <path d="M80.84 179.57c5-3.75 7.33-1.51 2.94 2.79-2.44 2.53-4.17 3.1-8.76 3.1a40.7 40.7 0 0 1-10.57-1.8c-2.66-.93-5.54-2.73-6.41-4-1.22-1.8-2.43-2.22-5.53-1.72-3.31.57-4.53 0-8.12-3.52-4.1-4.1-6.62-10-5-11.51.42-.43 1.43.29 2.15 1.59 3 5.31 9.13 10.49 11.29 9.63 5-2.08 6-1.95 6.83.5.93 3.1 5.89 5.75 12.58 6.83 4.06.62 5.57.26 8.6-1.89Z" fill="#ffb541" data-color="1"/>
            <path d="M82.56 497.55c.58 6.61.43 9.06-.58 9.06-.78 0-1.86-1.15-2.44-2.59-1.44-3.95-1.65-16.25-.29-17.11 1.87-1.15 2.52.94 3.31 10.64Z" fill="#ffb541" data-color="1"/>
            <path d="M80.33 461.46c.37 7.62.08 9.2-1.43 9.2S77 468.94 77 461c0-7.19.36-9.57 1.51-9.14.96.25 1.61 3.56 1.82 9.6Z" fill="#ffb541" data-color="1"/>
            <path d="M79.19 427.31c.28 8.91-.37 11.22-2.6 9-.42-.44-.79-5-.79-10.29 0-7 .44-9.34 1.51-9s1.69 3.82 1.88 10.29Z" fill="#ffb541" data-color="1"/>
            <path d="M77.74 390.93c.22 6.11-1.5 10.28-3.52 8.19-1.29-1.28-.86-14.51.51-15.38 2.08-1.29 2.72.26 3.01 7.19Z" fill="#ffb541" data-color="1"/>
            <path d="M74.73 357.43c.79 10.06.14 12.72-2.45 9.63-.86-1-1.58-5.46-1.66-10.49-.13-7.05.15-8.7 1.59-8.7s2.01 2.13 2.52 9.56Z" fill="#ffb541" data-color="1"/>
        </g>
    </g>
</svg>
