<?xml version="1.0" encoding="UTF-8"?>
<svg data-bbox="0 0 1533.412 3079" viewBox="0 0 1533.33 3078.96" xmlns="http://www.w3.org/2000/svg" data-type="color">
    <g>
        <g>
            <path d="M954.33 1899.35c-100.55-4.25-201.47-10.3-301.1-25.28-48.31-7.68-98.53-17.16-139.85-44.76-21.81-15.35-37-44.32-27.9-70.77 19.93-48.09 105.35-49.34 150.37-54 7.67-.3 15.42-.7 22.47 2.84 23.13 12.14 10.61 47-13.21 44.32-38.75 1.66-79.82 4.1-114.83 22.14 14 54.61 227 64.2 279.88 69.7 122.85 10 246.13 15.09 368.68.26 49.11-5.79 92.76-12.77 137.37-29.63 10.67-4.06 22.29-7.79 28.82-17.83-7.52-32.43-76.34-14.24-69.37-56.6 2.73-12.1 15.83-21.18 28.23-17.82 23.69 7.19 49 13.13 68.23 29.67 28.82 23.54 25.42 68.92-5 89.52-85.24 50.47-239.24 58.78-355.29 58.78-20.57.05-39.92-.21-57.5-.54Z" fill="#167767" data-color="1"/>
            <path d="M909.82 3077.71c-420.92-60.44-474.83-658.6-453.76-998 5.75-100.15 10.22-200.63 24-300.08.74-16.6 8.15-36.86 28.45-34.31 13.87 1.62 24 16 20 29.7-4 22-6 44.39-8.42 66.57-8.3 78.19-12.69 161.4-16.86 237.71-12.77 240.48 3.88 491.62 107.93 711.55 70.41 146.6 229.27 277.23 399.6 232.1 128.71-25.35 213.47-138.19 257.12-255a1502.56 1502.56 0 0 0 87.53-350.56c15.6-151.32 8.78-303.43 2.14-455.05-2.07-59.22-5.39-115.42-14.21-173.36-8.86-27.56 32-44 44.17-16.64 16 80.19 15.54 163.25 19.7 244.87 5.8 146.09 10.3 293.51-9 438.86-28.34 163.06-66.31 330.81-160.51 468.59C1170.17 3020.23 1056 3079 939.23 3079q-14.7 0-29.41-1.29Z" fill="#167767" data-color="1"/>
            <path d="M1130 1873.24c-29.82-5.2-19.12-36.9-14.39-57.45q11.3-56.34 23-112.62c32.88-147.34 61.81-299.67 137.16-432.32 41-74.69 159.74-234.21 230.15-101.81 17.15 35.42 20.92 75.42 24.64 114.1.37 17.6 6.5 36.45-.44 53.32-9.08 16.82-34.87 14.9-42.18-2.33-5.79-20.88-8.26-43.76-21-62.18-43.36-56.3-89.56 176.72-97.09 203.29-21.21 92.69-41.88 185.5-63.13 278.19-6.57 28.52-12.07 57.27-18.49 85.79-1.81 18-15.2 36.79-35.28 28.78-28-13.21-5.94-46-4.46-68.3 14.5-69.89 31.4-139.26 46.71-209 17.24-72.59 31.59-145.8 51.63-217.68 17.9-58.45 43.21-177.49 126.53-154.8-5.83-19.18-12.25-47.15-34.54-52.5l.26-.3c-43.18 7.16-77.6 63.84-102.33 96.35-89.07 136.71-118.08 301-153.35 457.67-9.23 44.24-18.42 88.53-27 132.92a24 24 0 0 1-23.49 21 20.74 20.74 0 0 1-2.91-.12Z" fill="#167767" data-color="1"/>
            <path d="M1040.63 1870.51c-14.93-2.68-21.2-18.75-19.07-32.84q-.18-56.3 1.29-112.54c3-99.6 9.59-199.74 28.3-297.75 20.52-99.85 54.06-196.86 96.72-289.37 21.84-46.13 46.23-91.48 76.23-132.81 23.29-29.52 44.65-63.72 77.12-83.87 56.35-27.38 81.37 47.19 91.37 89.33 4.57 17.64 8.67 35.43 13.28 53.07 3.29 12.43-3.61 25.61-16.16 29.22-12.18 3.47-26-3.76-29.22-16.2-11.26-38-15-80.14-37.46-113.61-75.61 70-120.11 163.72-159.19 256.79-59.26 140.22-85 291-91.55 442.43-2.51 61.18-4.09 122.47-3.5 183.73 1.25 13.53-10.77 24.89-23.68 24.89a21.31 21.31 0 0 1-4.48-.47Z" fill="#167767" data-color="1"/>
            <path d="M1115.87 1870.52c-12.51-1.52-22.58-13.55-20.62-26.28 7.26-47.82 16.9-95.13 26.86-142.47 20.66-98.15 39.56-196.68 61.59-294.5 11-49 22.43-97.86 33.1-146.9 10.7-49.22 20.36-99 37.52-146.49 9.45-25.13 20.19-51.63 40.67-69.82 36.6-30.33 69.63-10.29 96.12 21.29 26.46 23.54-11.7 59.12-34.13 32.51-23.1-25.13-28-30.44-46 3.29-26.9 57.49-36.64 120.84-50.92 182.25-34.13 147-64.65 294.68-94.83 442.58-9.19 42.43-16.68 81.69-23.06 123.91-1.74 11.82-11.79 20.82-23.37 20.82a24 24 0 0 1-2.93-.19Z" fill="#167767" data-color="1"/>
            <path d="M979.63 1869.06c-12.11-1.44-21.89-12.76-20.78-25-.41-22.88-.81-45.76-.63-68.6-.18-78.49.48-157 3.32-235.46 7.68-205.24 30.59-412.77 105.8-605.39 61.81-175.51 165.66-338.42 316.05-450.16 35.75-23.91 73.69-56.56 115.68-66.86 14.43-.7 27.42 13.43 24.87 27.79-1.84 11.66-11.22 20.07-18.63 28.59-104 110.34-183 241.07-252 375.39-35.35 71.51-52.88 149.67-74.94 225.9-18.31 61.55-32.51 124.25-45.87 187-8.27 29.67-52.69 18.52-45.68-12 14.17-66.57 29.44-133 49-198.23 21-71.66 37.49-145.35 70.11-212.91 51.18-102.91 109.7-202.8 178.34-295.09-150.11 120.7-239.49 295.83-297 476.16-49.41 150-67.53 308.19-75.91 465.31-5.83 106.27-6.53 212.81-6 319.19-1.45 23 9.86 64.39-23.91 64.4-.53.02-1.17 0-1.82-.03Z" fill="#167767" data-color="1"/>
            <path d="M916.49 1853.74c-2.25-52.21-14.14-103.58-19.85-155.5-12.62-101.36-23.55-203-39.08-303.94-19.78-149.89-31.29-300.85-58.42-449.78-21.62-119.37-35.31-241-68.3-357.9-31.18-84.24-100.88-146-156.93-213.87-48.34-58.12-93.29-118.93-139.23-179-29.59-37.82-56.09-78-84.94-116.42-.52-1.44-1.07-2.84-1.63-4.24-1.73-4.47-3.43-9-5.49-13.29-2.37-5-4.58-10.11-7.24-14.94-1.73-3.17-3.47-6.31-5.24-9.45 7.6-20.92 34.28-20.51 46.5-.77 26.79 34.09 50.11 70.74 76.64 105.05 56.09 73.4 110.29 148.45 170.48 218.64 64.5 74.79 140.59 148.34 162.1 248.41 41.22 199 74.47 400.22 97.75 602.18 9 101.88 24.54 203 38.3 304.24 6.61 51.14 12 102.43 18.34 153.61 6.61 62.48 20.48 124.17 23.47 186.94-.26 15.2-12.1 23.17-23.87 23.17-11.44.03-22.77-7.46-23.36-23.14Z" fill="#167767" data-color="1"/>
            <path d="M963.29 1460.33c-4.61-4.61-6.5-10.3-6.94-16.68-1.84-27.86-3.39-55.72-5.24-83.54-10.33-98-20.07-196.2-31.22-294.1-12.76-98.15-36.19-194.43-50.25-292.36-5-34.43-10.15-68.78-16.76-102.95C817.61 509.08 703.47 382.8 589.05 270 513.4 189.89 434.32 113 354 37.79 342 21.81 353.73 3 369.08 0c11.66 7.16 23.47 14 35.35 20.77 32 30 64.14 59.75 95.35 90.6 52.74 52.32 104 106.12 155.69 159.48 95.86 93.72 183 202.25 226.79 330.55 28.67 82.14 31.77 170.15 48.81 255 19.38 96.38 36.94 193.17 45.21 291.25 7.41 74.54 16.68 148.82 22.8 223.47q2.16 36.25 4.5 72.51c.78 13.76-12 23.5-24.5 23.5a20.91 20.91 0 0 1-15.79-6.8Z" fill="#167767" data-color="1"/>
            <path d="M732.1 1871.39C670 1787.3 599.77 1709 519 1642.5c-78.26-60.37-163.32-112-239.63-175-48.3-40-94.24-82.7-141.55-123.88-15.31-14.83-35.72-25.64-47.19-44-11.89-24.42 23.69-46.38 40-24.28 62.4 52.69 122.18 108.59 185 160.88 77.6 62.51 163.21 114.32 241.14 176.31 75.9 63.25 142.77 137 202 215.9 11.44 12.62 23.21 32.14 6.6 45.94a24.15 24.15 0 0 1-15.44 5.42c-6.83-.03-13.58-2.79-17.83-8.4Z" fill="#167767" data-color="1"/>
            <path d="M791 1869.47c-35.27-61.22-66.31-125.24-109.3-181.77-84.76-113-191-209.3-309.18-286.16-76.57-48.12-165.28-70.55-249.74-100.7-8.9-2.88-19.71-4.76-25.13-11.77a23.86 23.86 0 0 1 0-31.88c17.64-17.68 41.62 2.14 61.36 5.9 81.81 29.3 167.42 52 240.92 99.93 128.79 84 239.74 186.42 329 309.37 39.7 54 69.11 115.2 102 171.84 11.05 18.47-4.5 36.26-20.76 36.26-6.95 0-14-3.23-19.17-11.02Z" fill="#167767" data-color="1"/>
            <path d="M808 1842.86c-36.64-128-82.84-252.73-129.07-377.52-25.21-74.14-51.55-150.56-79.89-222.85-54-139.44-96.42-284-168.56-415.75-36.06-66.24-80.34-127.34-122.78-189.56-33.06-45.42-58.41-99-102.62-134.83-20.4 18.12-39.07 35.17-54.5 55.35-3.65 4.69-7 9.63-10.52 14.46-6.64 16-29.26 18.45-40 5.06-12.47-14.32-.19-32.29 9.85-44.1 18.93-25.24 41.92-47.19 65.72-67.75 61-51.62 130.18 90.45 160.88 130.08 27.42 41.1 56.35 81.22 83.44 122.58 104.9 154.1 157.3 335.24 223.17 507.53q41.51 107.2 77.67 216.27c29.34 85.61 64.25 168.49 91.41 254.46 14 44.17 27.15 88.56 41.07 132.77 5.06 17.77-9.32 30.31-23.53 30.31-8.92 0-17.74-4.9-21.74-16.51ZM133.13 544.05c-2.51-2.37-5.76-3.62-9-4.58-.37-.08-.77-.15-1.18-.22a25.4 25.4 0 0 1 10.18 4.8Z" fill="#167767" data-color="1"/>
            <path d="M868.8 1857.91c-29.19-111.44-55.94-223.4-81.66-335.69C744.08 1346 698.47 1170.34 660 993c-34.56-150-90.72-295.68-195.92-410.59C412 518.5 356 457.84 293.78 403.52c-13.8-11.37-28.08-22.62-45.13-28.67-51 48.37-86.79 115.57-115.75 176.79-7.68 13.72-7.2 35.09-26.61 37.93-12.43 2.1-25.46-6.64-27.19-19.37.14-27.31 18.78-51.29 29.33-75.69 22.77-45.05 48.71-88.67 82-126.86 13.17-13.54 24.83-30.7 42.51-38.45 39.85-9.3 74.06 24.8 102.47 48.05 57.82 50.92 109.74 108 158.67 167.45C561.27 621 617.8 706.65 651.6 803c38.27 97.6 59.38 200.48 82.29 302.44 28 126.78 61.33 248.19 91.48 373.87 28.56 124 58.15 247.67 90 370.81 2.6 16.8-10.73 27.17-23.91 27.17-9.95 0-19.8-5.9-22.66-19.38Z" fill="#167767" data-color="1"/>
            <path d="M777.1 1767.23c-133.88-186-274.76-366.46-430.07-534.91-71.66-81.25-160.23-146.57-224.76-234C88 949.85 57 899 22.41 850.7c-5.86-8.19-12.62-15.61-18.52-23.7-15.83-24.8 20.63-50.26 38.19-27.64C92 860.73 130.75 934 178.83 994.94c73.36 82.07 158.71 152.55 231 235.72 103.8 113.06 197.86 234.54 292.29 355.42 39.37 51.07 78.34 102.59 114.79 155.8 11.2 18.18-4.25 36.26-20.61 36.26-6.88 0-13.92-3.14-19.2-10.91Z" fill="#167767" data-color="1"/>
            <path d="M734.46 1638.67c-35.64-95.72-87-183.62-137.27-272.14-65.46-105.24-152.25-198.26-244.9-277.3-78.6-63.36-164.87-116.5-242.44-181.22-33.8-29.34-69.78-52.81-101.07-83.43A23.89 23.89 0 0 1 16.05 792c11.22-7.09 24.87-3 32.84 6.71 19.82 15.46 35.72 28 53.36 42.48 75.94 64 157.64 120.36 237.93 178.63 102.48 76.16 189.78 171.62 266 273.61 42.82 61.77 77.18 128.89 111.82 195.5 23.87 43.58 45.13 88.56 61.55 135.5 4.35 12.14-3.51 25.9-15.39 29.67a22.48 22.48 0 0 1-7 1.1 24.43 24.43 0 0 1-22.7-16.53Z" fill="#167767" data-color="1"/>
            <path d="M539.84 1947.47a23.62 23.62 0 1 1 23.69 23.53 23.83 23.83 0 0 1-23.69-23.53Z" fill="#167767" data-color="1"/>
            <path d="M670.75 1979.76a23.62 23.62 0 1 1 23.69 23.55 23.83 23.83 0 0 1-23.69-23.55Z" fill="#167767" data-color="1"/>
            <path d="M828.11 1987.32a23.62 23.62 0 1 1 23.68 23.54 23.83 23.83 0 0 1-23.68-23.54Z" fill="#167767" data-color="1"/>
            <path d="M1000.28 1991a23.62 23.62 0 1 1 23.69 23.54 23.83 23.83 0 0 1-23.69-23.54Z" fill="#167767" data-color="1"/>
            <path d="M1141.15 1976.1a23.62 23.62 0 1 1 23.69 23.54 23.83 23.83 0 0 1-23.69-23.54Z" fill="#167767" data-color="1"/>
            <path d="M1272.15 1953.94a23.62 23.62 0 1 1 23.69 23.54 23.83 23.83 0 0 1-23.69-23.54Z" fill="#167767" data-color="1"/>
            <path d="M793.87 2207.72c-108.38-9.19-213.65-38.19-316.64-71.92-12-4.76-16.83-20-11.7-31.26a23.65 23.65 0 0 1 29-12.58c18.56 5.5 36.86 11.59 55.46 17.16 249.19 83.32 520 65.39 770.59-.52 18.11-2.58 35.35-21.95 52.91-14.2a23.84 23.84 0 0 1 11.7 31.29c-12.81 21-41.66 23.69-63.06 31.55-135.63 33.93-275.67 55.24-415.7 55.24q-56.34 0-112.56-4.76Z" fill="#167767" data-color="1"/>
            <path d="M905.89 2313.39c-73.62-1.7-147.23-8.52-219.6-22.32-72.43-14.73-146.79-25.1-216.49-50.34-11.88-4.9-16.86-19.89-11.7-31.29 5.76-12.65 20.74-16.82 32.88-11a451.77 451.77 0 0 0 52.88 15.35c177.14 42.81 359.92 65.84 541.92 46.21 89.44-9.59 178.11-25.13 261.91-57.89 2.77-1.33 5.5-2.7 8.2-4.14 7.16-9.11 21.25-11 30.92-4.9 11.07 7 13.65 21 8.52 30.51-10.92 18.9-35.31 23.91-54.24 31.7-127 42.44-261.8 58.54-395.52 58.54q-19.87.03-39.68-.43Z" fill="#167767" data-color="1"/>
            <path d="M548.57 2473.05c-.63-12.36 9.55-24.72 22.43-24.72s24.1 9.11 24.72 22.43c.63 12.37-9.55 24.73-22.43 24.73s-24.1-9.12-24.72-22.44Z" fill="#167767" data-color="1"/>
            <path d="M684.89 2495.42c-.63-12.36 9.56-24.72 22.44-24.72s24.09 9.12 24.72 22.44c.63 12.36-9.56 24.72-22.44 24.72s-24.09-9.11-24.72-22.44Z" fill="#167767" data-color="1"/>
            <path d="M832.64 2501.26c-.63-12.36 9.55-24.72 22.43-24.72s24.1 9.12 24.72 22.44c.63 12.36-9.55 24.72-22.43 24.72s-24.1-9.11-24.72-22.44Z" fill="#167767" data-color="1"/>
            <path d="M992.2 2496.38c-.63-12.36 9.56-24.72 22.44-24.72s24.09 9.11 24.72 22.43c.63 12.36-9.56 24.72-22.44 24.72s-24.09-9.11-24.72-22.43Z" fill="#167767" data-color="1"/>
            <path d="M1147.09 2481.62c-.63-12.36 9.56-24.72 22.44-24.72s24.09 9.11 24.72 22.43c.63 12.36-9.56 24.72-22.44 24.72s-24.09-9.11-24.72-22.43Z" fill="#167767" data-color="1"/>
            <path d="M1282.51 2459.8c-.62-12.36 9.56-24.73 22.44-24.73s24.1 9.12 24.72 22.44c.63 12.36-9.55 24.72-22.43 24.72s-24.1-9.11-24.73-22.43Z" fill="#167767" data-color="1"/>
            <path d="M737.68 2705.18c-90.29-7.9-157.45-22.43-229.92-79.48-25.76-17.2-1.48-55.94 25.16-40 10.36 6.74 19.49 13.28 28.45 19.77 41.33 30.25 92.12 42.73 142.33 48.13a1230 1230 0 0 0 182.65 11.18c142.7-2.22 286.53.59 418.19-59.52 5.35-2 9-6.31 14.32-8.45 21.92-9 42.25 19.52 26.6 37.38-5.38 6.86-14.13 10.62-19.11 12.91-90 42.51-189.81 56.75-288.37 61.29-50.45 1.92-101.05 3.75-151.6 3.75-49.66 0-99.27-1.76-148.7-6.96Z" fill="#167767" data-color="1"/>
            <path d="M561.37 2605.47c-.47-.34-.94-.68-1.4-1 .92.67 1.4 1 2.47 1.81Z" fill="#167767" data-color="1"/>
            <path d="M754.87 2830.13c-68.34-7.9-137-28.12-197.78-60-27.57-13.69-8.86-55.35 19.7-42.91a369.58 369.58 0 0 0 51.66 23.43c130.41 50.26 274.5 42.1 411.07 29.34 79.45-9 154.46-17.27 227.75-47.42 8-3.25 14.61-8.67 22.14-12.66 11.95-4.76 25.94 1.7 30.59 13.58 10.77 34-45.17 45.68-68 55.28-68 21.95-139.08 30.85-209.82 38.45a1536.86 1536.86 0 0 1-163.63 9.24 1178.33 1178.33 0 0 1-123.68-6.33Z" fill="#167767" data-color="1"/>
        </g>
    </g>
</svg>
