<?xml version="1.0" encoding="UTF-8"?>
<svg data-bbox="-0.002 0.001 1813.084 3854.17" viewBox="0 0 1813.04 3854.23" xmlns="http://www.w3.org/2000/svg" data-type="color">
    <g>
        <path d="M1809.52 2987.88a10 10 0 0 1 3.09 10.69c-15.79 60.06-34.46 119.5-52.11 179q-10 33.93-20 67.85a14.39 14.39 0 0 1-3.54 11.87Q1702 3375.66 1667.24 3494q-23.28 78.72-46.55 157.49-11.64 39.36-23.27 78.77-6 20-11.86 40.06c-2.14 7.07-4 14.26-6.47 21.28a17 17 0 0 1-.79 2.06c4.5 5.85 2.81 16.77-5.9 19.33-13.88 4.07-28.45 5.85-42.78 8.19q-20.83 3.42-41.77 6.57-42.75 6.36-85.79 11.26a2351.63 2351.63 0 0 1-303.57 14.87q-75.63-1.17-151.16-7.24-38.12-3-76.06-7.3c-12.82-1.45-25.64-3-38.4-4.79-11-1.62-21.53-3.79-32.21-6.41a11.32 11.32 0 0 1-11.41-4.23c-9.11-12.87-12.82-29.14-17.94-43.84q-7.59-21.74-15.12-43.46-15.35-44-30.64-88.13-53.79-156-107.71-312-26.9-77.62-53.8-155.26-13.49-38.85-27-77.66c-4.55-13.14-9.11-26.29-13.49-39.49s-9.78-26.3-11.7-40.06a10.62 10.62 0 0 1 9.62-12 7.28 7.28 0 0 1 4.66-4c22.21-6.47 46.44-4.63 69.43-5.13 23.39-.61 46.77-1.11 70.16-1.67l49.13-1c-2-11.81-3.71-23.68-4.89-35.54a508.33 508.33 0 0 1 13-173.09c13-52.48 33.39-103.23 67.12-146.07 30-38 67.07-69.69 98.49-106.51 16.25-18.94 30.86-39.44 41.77-61.95 12.59-25.91 19-55.65 23.27-84 16.31-107.35 1.8-219.27-37.55-320.33-38.11-98-101.24-185.12-182-253a652.6 652.6 0 0 0-91.91-64.46 209.91 209.91 0 0 1 7.19 37.27c4.5 42.51-2.47 97.1-35.53 128-15.12 14.15-35.86 23.39-56.94 20.83a65 65 0 0 1-22.1-7 194.94 194.94 0 0 1-2.3 30.69 146.78 146.78 0 0 1-19 53.32c-16.07 26.62-41.15 48.57-71 58.49-29.29 9.8-62 6.69-89.27-7.63-28.5-15-47.73-42.56-53.35-73.87a171.93 171.93 0 0 1-2.36-22 142.68 142.68 0 0 1-41.88 38.72c-38.73 23.23-87.31 22.84-127.78 4.4-44.47-20.22-71.12-62.5-80.17-109.08-9.33-48.29-4.83-99.6 9.28-146.56a333.08 333.08 0 0 1 29.34-68.36 273.64 273.64 0 0 1 18.56-28.08 118.66 118.66 0 0 1-20.41-4.34c-23.39-7.3-43.06-21.78-57.68-41.17-27.29-36.26-31.62-84.62-22.29-127.79 9.56-44.18 32.1-88.35 61.17-123.12 28.55-34.09 71.5-60.16 117.55-57.82a101.09 101.09 0 0 1 56.94 21.39 99.24 99.24 0 0 1 8.44 7.3c.95-21 8.26-42.34 18.1-59.28 36.54-62.67 117.32-77.32 180.85-48.85 57.17 25.62 94.72 89.3 94.27 151.41 15.52-5.46 33.79-5.07 48.63-.67 47.5 14.21 67.63 64.85 68.7 110.08.67 27.3-5 54.6-9.28 81.45-4 24.29-6.63 49.3-12.48 73.31a603.8 603.8 0 0 1 32.83 13.87 556.086 556.086 0 0 1 33.06 16.49c1.51.84 3 1.73 4.55 2.57a10.16 10.16 0 0 0-.45-1.23 505.7 505.7 0 0 1-17.6-58.38 511.58 511.58 0 0 1-13.71-124c1-72.92 20.35-142.56 44.3-210.91 23.55-67.13 51.21-133.42 65.71-203.28 2.48-12.15 4.5-24.29 6-36.43a136.41 136.41 0 0 1-5 3.5 100.21 100.21 0 0 1-30.41 14.21c-39.35 11.14-82.75-4.62-108.22-35.82a109.66 109.66 0 0 1-24.23-59.39c-.16-1.67-.22-3.34-.28-5.06-1.4 1.56-2.81 3.11-4.27 4.62a150.62 150.62 0 0 1-56.55 35.49c-43.46 15.54-91.64 8.52-133.29-9-38.68-16.32-74.26-42.06-98.49-76.43-22.3-31.68-32.15-71.12-21.69-108.84a111.79 111.79 0 0 1 26.53-46.74c1.18-1.28 2.47-2.56 3.82-3.79-2-.28-4-.5-6.07-.83-27.54-4.4-54.47-15.49-77.52-31.09-44.36-30-74.15-76-90.85-126C148 547.68 142.47 488.18 155 434.31c11.47-49.47 42.9-97.49 91.13-118.27 22.94-9.92 48.46-13.37 73.14-8.58A115.67 115.67 0 0 1 352.05 319a175.09 175.09 0 0 1-6.86-30c-4.89-36.87 2.31-73.47 17.88-107.07C391.79 119.89 448 70 507.94 38.33 569.61 5.74 640.67-8.24 709.76 4.91 774.57 17.22 835.29 54 870.48 110.2a209.12 209.12 0 0 1 30.86 91.25 189.94 189.94 0 0 1-1.23 46.55v.11a198.25 198.25 0 0 1 53.74-31.75 185.87 185.87 0 0 1 149.25 5.18c46.9 22.36 84.22 63.19 104.45 110.46 21.25 49.58 22.6 106.74 4.11 157.49-9.67 26.52-23.56 49.91-40.93 72.14-2.58 3.29-5.28 6.52-8 9.7 11 4.79 20.8 13 29.35 20.77a168.7 168.7 0 0 1 31.53 39.39c31 53.09 32.55 120.5-3.2 171.75a172 172 0 0 1-71.68 58.72 217.1 217.1 0 0 1-44.07 13.92 19.07 19.07 0 0 1-2 .39 92.5 92.5 0 0 1 13.82 22.73c18.16 42.9-2 88.47-39.91 113-20.52 13.25-45.09 20-69.48 20.44a181 181 0 0 1-40.93-4.23c-5.45-1.17-12-2.51-18.38-4.52a474.25 474.25 0 0 1-1.86 65 731.06 731.06 0 0 1-27.6 138c-13.38 44.79-31.82 87.63-48 131.47-14.45 39.17-26.36 79.56-27.1 121.56-.73 42.56 9.06 84.18 29.8 121.5 41.77 75 114 126.12 184.22 173.25 15-19.22 29.8-38.49 44.81-57.65-10.29-1.68-21.09-6.8-28.73-10.53a158.54 158.54 0 0 1-41.49-29.47c-47-46.19-60-125.29-16.92-178.33 20.07-24.73 51.66-40.61 84-38.27a94.72 94.72 0 0 1 32 8.14 90.8 90.8 0 0 1 7.25-46.47c12.31-28.41 38.67-50.08 68.64-58.21 54-14.65 113.16 12.2 134.69 63.67a108.12 108.12 0 0 1 5 14.93c21.92-18.88 55.43-24.84 83.37-21.67 34 4 64.7 20.11 86 46.8 22 27.52 33.28 62.45 32.89 97.49-.45 36.54-13.38 69-35.64 97.71a191 191 0 0 1-38.23 37.16c-3.15 2.23-6.35 4.34-9.56 6.41 22.49 6.68 42.33 25.51 51.55 46 15.24 33.82 12.09 73.76 2 108.58-10.06 34.54-30.08 67.68-61.56 86.9-29.79 18.16-68.58 23.29-100.57 7.75a89.43 89.43 0 0 1-29.46-23.23c-4 9.69-10.23 18.38-17.42 24.17-20.52 16.66-50 19.78-75.22 14-26.87-6.07-50.37-25.51-68.87-44.9-14-14.65-26.53-32.26-32.27-51.81-5.84 18.72-9.1 38.11-8.48 57.83a126.94 126.94 0 0 0 9 44.28c5.51 13.49 14 25.46 21.64 37.78 7.93 12.86 15.24 26.57 18.1 41.5 3.15 16.82 1.41 33.7-2.36 50.25-6.86 30.19-17.37 59.22-23 89.8a520.76 520.76 0 0 0-8.32 85.18 545.05 545.05 0 0 0 24.68 171.13 520.82 520.82 0 0 0 32.49 80.61c6.41 12.76 13.38 25.24 20.8 37.44 3.94 6.46 8 12.87 12.14 19.28 16.42 14.37 32.5 29.08 47.51 45a594.13 594.13 0 0 1 79.77 107.24A623.24 623.24 0 0 1 1412 2863c12.71 39.11 23 81.11 25.86 122.45q179.37-3.58 358.72-7a12.51 12.51 0 0 1 12.94 9.43Zm-22.65 18.6q-134.08 2.34-268.1 4.52-248.34 4.08-496.67 8.07l-246.91 4q-62.48 1.1-124.85 2-30.87.42-61.73.78c-10.79.17-21.53.28-32.33.45a122.29 122.29 0 0 1-22.76-1.62c5.45 11.48 9.16 24 13.43 35.94 5.4 14.81 10.57 29.74 15.74 44.67q15.1 43.38 30.14 86.85 13.06 37.53 26.14 75.1c16.86-3.4 34.46-2.9 51.6-3.4q30.87-.84 61.73-1.73 61-1.76 122-3.45 218-6.1 436.07-12.09l218.74-6c69.71-1.84 139.42-4.51 209.13-5.4q12.48-42 25-84c14.28-48.26 28.11-96.72 43.63-144.69Zm-90.57 302.17q7-23.33 13.94-46.74c-75.89 2.84-151.89 3.9-227.79 5.85q-218.06 5.59-436.07 10.52-109.38 2.72-218.74 5.24-54.72 1.26-109.4 2.56-26.64.68-53.29 1.29c-13 .33-26.08 1-39-.17q37.93 109 75.95 218 27.32 78.21 54.64 156.48c9.05 25.85 17.93 51.75 26.93 77.66q6.82 19.73 13.66 39.5 3.61 10.52 7.25 21.05a60.27 60.27 0 0 1 2.47 9.14c11.58.56 23 1.45 34.63 2.67 14.06 1.51 28 3.23 42 4.68q42.07 4.44 84.26 7.3a2437.31 2437.31 0 0 0 301.21 1.73q75.55-4.18 150.72-13.26 36.93-4.42 73.7-10.08c19.68-3 39.41-7.41 59.2-10.2.33-4.12 1.85-8.47 3-12.42 2-7.13 4.22-14.21 6.35-21.34 4.39-14.65 8.72-29.36 13.1-44q13.32-44.7 26.65-89.35 47.15-158.12 94.63-316.11Zm-194.9-1666.13c30.13-49.59 31.93-120.39-8.1-165.35-18.77-21.11-45.53-33.09-73.81-34.15-26-.94-48.12 8.14-69.31 21.45 1 14.21-.9 28.63-6.52 41.45-2.48 5.68-6.81 13.2-14.12 12.59-6.52-.56-8.65-6.85-8.43-12.54.28-6.57 2.7-13.09 3.32-19.61a114.79 114.79 0 0 0 .22-18.16c-1.18-24.56-12.7-48.85-32.15-64.4-18.89-15-44.86-21.56-68.76-18.27a84 84 0 0 0-61.16 41 69.83 69.83 0 0 0-9.27 37.88 82.66 82.66 0 0 0 3.31 19.94c.4 1.34.85 2.62 1.24 3.9 5.62 6.91 8.6 15.1 4.55 24.35-1 2.17-3.88 2.78-6 2.39-14-3-21.58-17.32-33.73-24.29-11.63-6.68-25.63-10-39.12-8.3-26.2 3.46-48.35 21.56-59.87 44.63-12.93 25.73-12 55.76-3.66 82.67 7.25 23.34 21.93 43.95 40.2 60.16a135.71 135.71 0 0 0 31.65 20.78c7.25 3.46 15.91 5.8 22.88 10.08 8.43-10.58 16.92-21.11 25.58-31.47.11-.11.22-.17.33-.28a96 96 0 0 1-3.2-10.31 83.28 83.28 0 0 1-.79-35.76c2.14-10.7 5.85-22.56 16.08-28 3-1.67 7.14.39 7.08 4-.17 9.86-4.66 18.77-5.17 28.63a86.41 86.41 0 0 0 3.49 30.09c6 19.1 19.22 35 34.51 47.63 16.19 13.37 35.53 23.56 55.38 30.58a195.77 195.77 0 0 0 32.38 8.41c5.51 1 11.07 1.34 16.36 3.18 5 1.78 9 4.9 13.49 7.57a4 4 0 0 1 0 6.91c-5.4 3-10.06 5.85-16.36 6.63-6.75.78-13.21-.33-19.84-1.5a195.76 195.76 0 0 1-36.88-10.14 204.22 204.22 0 0 1-27.16-12.87c-9 14.71-20 28.13-30 42.23-4.83 6.74-9.5 13.65-13.94 20.61-1.4 3.17-1.68 6.52-3.43 10.08-2.19 4.57-5.17 8.64-6.85 13.48a52 52 0 0 0-1.64 28.25c5.12 21.78 19.12 39.72 34.52 55.48 15 15.38 32.1 28.47 52.79 35.27 19.06 6.24 41.6 4.79 56.67-9.7a46.5 46.5 0 0 0 12.59-22.5c2.13-9.08-.4-16.21-2.25-25-1-4.79 2.47-9.58 6.75-10.81l2.19-5c1.91-4.18 8.15-2.51 9.33 1.22a49.81 49.81 0 0 0 2.19 6.13 8 8 0 0 1 1.07 1.45 58.08 58.08 0 0 1 5.79 10.92 84.06 84.06 0 0 0 9.78 18.89 65.52 65.52 0 0 0 32.21 24c26.31 8.63 54.65-.84 75.9-17.11 24.17-18.49 38.28-47.18 45.42-76 6.91-27.8 10.06-60.61-2.08-87.46a64.94 64.94 0 0 0-26.48-29.47c-11.69-6.69-23.66-8.13-36.88-6.18a8.67 8.67 0 0 1-4.77-.73h-.79c-6.47-.17-10.51-8.36-5.45-13.09 6.63-6.18 15.46-8.58 23.33-13a142.09 142.09 0 0 0 21.86-15 154.47 154.47 0 0 0 33.53-38.46Zm-196.93 1345.69L1412 2986c-2.87-21-5.68-41.9-10.29-62.62a592.93 592.93 0 0 0-20.46-70.75c-29.68-83.17-78.48-159.1-141.22-221.55-6.41-6.35-13-12.54-19.62-18.66a12 12 0 0 1-3.65-2.29 28.09 28.09 0 0 1-3.88-4.62c-27.32-24.68-55.6-48.47-79.44-76.6-14.89-17.55-28.33-36.6-38.33-57.38-9.45-19.67-18.22-41.89-13.83-63.9.67-3.45 6.4-4.34 7.87-1 5.17 11.59 8.54 23.73 13 35.6a188.34 188.34 0 0 0 17.31 34c13.83 21.95 31.37 41.06 50.2 58.83 1.47 1.39 3 2.73 4.45 4.06-.85-1.72-1.8-3.39-2.59-5.12a565 565 0 0 1-54.7-272.75 546.32 546.32 0 0 1 12.09-90c3.26-15 7.31-29.8 11.86-44.51 5-16.15 10.79-32.64 11.75-49.69.9-15.76-3.21-29.64-10.85-43.34-7.53-13.37-16.75-25.85-23.56-39.66-14.28-28.81-17.48-61.06-13-92.59 4.56-32.26 17.32-62.67 34-90.53a461.26 461.26 0 0 1 28-40.78c9.16-12.09 18.49-24.06 29.12-34.81a188.54 188.54 0 0 1-22.15-17.89 143.28 143.28 0 0 1-24.23-29.58c-26 36.38-53.63 71.59-80.56 107.3-3.48 4.62-9.84 7.52-15.35 3.95q-14.42-9.19-28.78-18.55c-73.75-48.08-148.13-103-185.4-185.06a268.65 268.65 0 0 1-23.11-128.69c2.81-43.17 15.63-84.45 30.92-124.73 33.06-87.24 69.21-174.7 74.6-268.91a448.87 448.87 0 0 0-48.62-229.91C838.6 774.91 787.05 715 722.8 672.13a14 14 0 0 1-5-5.68c-3.66 6-7.48 11.81-11.7 17.43a228.21 228.21 0 0 1-29.85 32.43 40.5 40.5 0 0 1 7 3.56 110.35 110.35 0 0 1 10.8 8.36c7.25 6 14.22 12.42 20.85 19.1A343.34 343.34 0 0 1 752 790.9a369.62 369.62 0 0 1 49.87 99.27c21.81 66.63 20.91 136.49 5.73 204.4-15.79 70.52-44.58 137.15-68.64 205.11-24.4 68.92-42 139.5-40.08 213a484.37 484.37 0 0 0 33.22 163.56c6.86 17.39 15.58 34 22.49 51.37 4.84 12.2-13.77 18.16-20.24 8.41a173.16 173.16 0 0 1-12.25-21.84c-10.46-.78-20.63-9.75-29.46-14.71a497.064 497.064 0 0 0-32.72-17 534 534 0 0 0-66.84-26.57 560.11 560.11 0 0 0-70.5-17.72c-11.91-2.17-24-4-36-5.52-6.63-.83-13-1.44-19.23-2.73.68 4.41 1.24 8.75 1.63 13.21a175.85 175.85 0 0 1 .51 22.5c12.48 2.12 24.62 4.85 36.82 8.19 39.24 10.75 77.47 26.58 113.78 45.13a6.41 6.41 0 0 1 1.8.44 19.14 19.14 0 0 1 5.85 3.51c7.25 3.79 14.45 7.63 21.53 11.65a671.59 671.59 0 0 1 124.46 90.58 651.5 651.5 0 0 1 174.39 268 666 666 0 0 1 33.45 162.39c4.44 55.88 2.47 113.59-9.67 168.46-11.92 53.76-40.37 99.67-77.13 140.17-32.72 36.1-70.05 68.63-98 108.8-31.58 45.45-48.77 101.04-58.51 154.92a479.68 479.68 0 0 0 .22 171.81l64.76-1.34c9.17-.17 18.33-.39 27.44-.56-1.41-6.4-.79-13.37-.51-19.83.28-6.69.79-13.37 1.63-20.06 1.8-14.15 5.06-27.68 11.25-40.61 8.88-18.6 24.34-34.93 43.62-43 20.46-8.53 43.23-5.85 62.18 5.29 19.39 11.47 32.88 29.64 41.31 50.08a168.11 168.11 0 0 1 9.79 34.93c1.68 9.69 3.43 19.72 4.21 29.69 21.08-.44 42.22-.83 63.3-1.28-7-20.78-10.45-44-11.41-65.68-1-22.12 1-45.23 8.43-66.29 10.8-30.75 33-59.72 63.64-73 31.82-13.81 66.56-9.91 96.13 7.64 31.93 18.94 53.07 49.35 64.93 83.84 6.41 18.77 9.78 38.27 12 57.93 1.82 16.45 3.91 33.95 3.29 50.77Zm-218.57 4.4q96.64-1.92 193.33-3.9c-2-17-2.08-34.31-4.38-51.31-2.53-18.77-6.58-37.6-13.16-55.37-18.78-50.92-78.87-102.67-134.08-67.69-24.22 15.32-39.18 42.23-45.31 69.53-3.93 17.71-4 35.87-3 53.92.98 18.44 4.86 36.49 6.6 54.82Zm61-2155.14c47.73-26.07 78.93-75 76.23-129.63-1.29-26-10-51.37-24.06-73.26a147.15 147.15 0 0 0-25.3-29.75c-7.75-6.91-17-12.09-25-18.6-1.91 1.89-3.76 3.73-5.73 5.51a178.32 178.32 0 0 1-16.47 14c-6 4.35-10.74 6.19-18.1 5.57-2.93-.27-5.06-2.67-4.33-5.62 2-7.75 5.56-11.81 11.64-16.94q8.18-6.86 15.79-14.37c9.67-9.58 19-20.06 26.54-31.36a257.33 257.33 0 0 0 34.23-76.32c12.31-46.24 8.32-95.49-13.83-138.16-21.08-40.72-56.66-75.49-100.4-91.59-42.78-15.65-89.33-12-130 8.08a171.28 171.28 0 0 0-52.85 40.11 153.45 153.45 0 0 0-19 26.91c-2.81 5-5 10.19-7.48 15.26s-5.9 9.25-9.45 13.65c-3.93 4.85-10.28.17-11-4.51-1.91-14.6 4.5-27.86 11.47-40.45a155.18 155.18 0 0 1 18.89-26.9c1.46-9.86 3.49-19.67 3.93-29.7a188 188 0 0 0-3.82-47.68c-6.74-31.09-20.52-61.5-41-86.07C799.65 59.89 741.41 32.54 682.15 27 618.4 21 555 39.61 501 72.82c-51.78 31.75-100.46 78.66-121.21 136.59-9.44 26.41-13 54.93-8 82.62A139.55 139.55 0 0 0 385 331.75c3.59 6.91 6.07 14.2 9.33 21.22 1.4 3 3.77 5.18 5.45 7.91s2.92 6.08 4.39 9.09c2.36 4.73-2.31 8.91-7 6.9-8.72-3.79-13.95-9.8-21.2-15.54a43.24 43.24 0 0 1-6.74-6.85 7.75 7.75 0 0 1-2.2-.61c-10.62-4.91-19.84-12.26-30.75-16.61a103.42 103.42 0 0 0-34.57-7c-23.89-.78-46 7-65.44 20.67C198 377.82 179 424.5 174.91 469.52c-4.38 48.24 3.15 99.32 22.26 144 18 42 47.84 78.88 88.71 100.72 19.06 10.14 40.42 17.16 62 19.16 11.13 1 21.81.28 32.94-.17 5.57-.22 11.13-.27 16.76-.55a24 24 0 0 1 14.22 3.45 3.66 3.66 0 0 1 1.29 5c-5.79 12.59-23.67 16.43-36.54 17.66-1.63.17-3.26.22-4.95.33-2.08 1.4-4.16 2.84-6.18 4.46a96.27 96.27 0 0 0-17.32 17.38 100 100 0 0 0-18.43 46.63c-9.06 72.36 63.86 129 125.81 149.08 35.58 11.53 76.62 14 111.42-1.68a124.45 124.45 0 0 0 40.93-29.41A102.65 102.65 0 0 0 622.11 925c4-7.74 5.51-17.6 14.56-20.77 4.16-1.4 8.27 1.11 10.57 4.29a11.74 11.74 0 0 1 2.14 6.85c1.85 4.73.28 10-.51 15s-1.51 10.2-1.8 15.32a95.47 95.47 0 0 0 3.6 33.15c5.85 19.83 18.1 37.27 35.59 48.58 16.75 10.75 36.54 15.6 56.38 12.25a81.37 81.37 0 0 0 28.28-10.3 69.28 69.28 0 0 0 11-8c4.16-3.73 7.59-9.13 12.71-11.53C795.88 967.27 790 925 775.14 884a338.17 338.17 0 0 0-46.66-85.73 354.1 354.1 0 0 0-31.15-36.66q-9.2-9.27-19-17.88a132.18 132.18 0 0 1-15.51-16.27c-.4.28-.74.62-1.13.89a155.26 155.26 0 0 1-26.2 16.16c-7.64 3.68-18.72 10.25-27.15 6.24a4.59 4.59 0 0 1-2.13-5.13c2.3-7.91 13.66-12.53 20-16.82 7.76-5.29 15.35-11 22.65-16.88a223.57 223.57 0 0 0 38.85-41.11 208.17 208.17 0 0 0 27-49.42c3.32-9 5.85-18.16 9-27.18 3-8.75 7.7-16.77 11.47-25.24 1.29-2.84 5.9-2 6.57.89 2.36 10 4.16 19.78 2.76 30a131.17 131.17 0 0 1-8.27 29.47c-2.19 5.51-4.55 10.86-7.08 16.16a13 13 0 0 1 7.93 2.39q12.31 8.28 24.11 17.33a480.87 480.87 0 0 1 145 182.44 471.16 471.16 0 0 1 39.74 148.41c3.38 1.17 6.69 2.73 10.07 4a171.21 171.21 0 0 0 18.83 6.18 126.69 126.69 0 0 0 37.16 4.52c37.72-1.06 74.93-23.07 87-59.83a65.62 65.62 0 0 0-3.14-49.14c-4.56-9.36-11.13-16.38-18.5-22.78-7.87-.06-15.57-1.23-21.59-4.74-5.56-3.23-7.81-12.53-2.25-17a74.89 74.89 0 0 1 8.1-5.57 4.79 4.79 0 0 1 6.35 1.56c4.95-.06 10 .5 15 .39a158.88 158.88 0 0 0 22.32-1.56c14.71-2.2 28.56-7.43 41.71-14.62ZM848.78 2997.4q65.43-1.33 131-2.62c-3-19.94-4.38-39.83-12.59-58.82-12.65-29.42-46-56.44-78.36-37.38-14.62 8.63-24.74 23.45-30.08 39.21a154.14 154.14 0 0 0-7.2 31.37c-1.14 8.91-.3 19.44-2.77 28.24ZM628.41 1570.15c5-42.45 14.17-91.36-7.76-130.75-8.37-15.1-21.19-28.08-38.22-33-17.43-5-32-.94-46.66 8.8-10.85 7.25-21.09-5.34-17.6-15.32-.34-16.65-1.46-32.53-5.45-48.91a157.53 157.53 0 0 0-19-45.9c-31.2-50.58-94.45-77.55-152.24-57.72-26.31 9-46.94 29-59.59 53.26-13.1 25.13-12.7 51-9.22 78.33.62 5.07-4.05 7.69-8.43 7.3-2.47 1.83-5.79 2.22-8.32-.73-11.75-13.76-20-28.74-36.26-38.21-16.08-9.31-35.42-12.54-53.86-10.09-38.45 5.13-69.87 31.92-91.24 62.62-22.26 32-40 69.47-46.21 108-5.67 34.87.68 74.81 25.08 101.83a85.51 85.51 0 0 0 42.22 25.8 78.28 78.28 0 0 0 25.41 2.28c4.16-.28 8.2-1.11 12.31-1.56 4.49-.5 8 .22 12.31 1.5 5.34 1.62 8.43 8 5.34 12.93-4.22 6.68-10.85 10.58-18.55 12.7-2.93 4.46-6.07 8.86-9 13.43-6.75 10.25-13 20.89-18.72 31.75a319.12 319.12 0 0 0-26.82 68.86c-19.67 74.48-18.83 187.68 68 219.82 36 13.32 75.73 9.3 106.87-13.54 15-11 27-25.9 35.31-42.39a116.18 116.18 0 0 0 9.1-26.13c1-4.51 1.46-9 2-13.53.61-5.8 3-9.2 7.19-13.1a7.49 7.49 0 0 1 10.29 0 20.38 20.38 0 0 1 2.14 2.29c3.43.78 6.29 3.45 6.46 8.19.62 17.27-3.71 34.7-4.27 52-.56 16.77.17 33.42 5.11 49.58A79.48 79.48 0 0 0 379.6 2054c26 7.91 53.06 3.46 76.17-10.36 25.18-15 42.33-39.5 49.92-67.41a143.48 143.48 0 0 0 4.38-46.4c-.5-7.86-4.21-18-2.13-25.57a11.26 11.26 0 0 1 11.13-8.41 7.65 7.65 0 0 1 9.11 2.45c6.12 7.35 11.91 14.32 21.19 17.77a40.23 40.23 0 0 0 27.6.06c20.58-7.14 33.62-26.86 40.14-46.47 7.65-23.06 9.28-48.24 7.2-72.25a207.2 207.2 0 0 0-6.47-35c-1.52-5.46-3.2-10.92-5.17-16.27-1.07-2.89-2.42-5.74-3.37-8.63-.68-.34-1.35-.73-2-1.06-44.58-22.45-91.91-37.21-139.64-51.42a180.58 180.58 0 0 1-5.51 25.13 203.81 203.81 0 0 1-12.31 31.25C445 1751 439 1764.68 427.1 1766.8c-3.54.61-8.21-1-8.94-5.07-2.08-11.36 5.51-20.33 10.46-29.91a163.87 163.87 0 0 0 11.24-27.8 177.53 177.53 0 0 0 7.59-59.78 172.61 172.61 0 0 0-13.16-56.6 184.12 184.12 0 0 0-13.82-27.13c-2.53-4.12-5.23-8.24-7.76-12.42a31.2 31.2 0 0 1-2.93-5.57c-.9-2.51-.22-5.13-1.46-7.41-1-2 1.13-4.57 3.26-3.23 2.59 1.56 5.68 1.28 8.32 2.95a34.21 34.21 0 0 1 6.41 5.68 114.91 114.91 0 0 1 9.95 12.2 167.4 167.4 0 0 1 16.08 27.41 186.75 186.75 0 0 1 11 30.7c9.22-1.34 18.5-.39 28.11.5q18.72 1.76 37.22 5a558.85 558.85 0 0 1 72 17.15c6.64 2.07 13.27 4.29 19.79 6.58 1.2-23.38 5.2-46.84 7.95-69.9Z" fill="#ffb541" data-color="1"/>
    </g>
</svg>
