<?xml version="1.0" encoding="UTF-8"?>
<svg data-bbox="0.91 0.998 111.98 204.422" xmlns="http://www.w3.org/2000/svg" viewBox="0 0 113 206" height="206" width="113" data-type="ugc">
    <g>
        <path fill="url(#da1cc694-ec8c-4b28-a208-2a73d4694cd7)" d="m58.93 191.36 9.66-1.89-8.33-11.57 17.22-10.87 4.69 14.34 2.54-2.97 6.03 6.89 5.74-9.25 8.65 1.38 1.79 6.11 3.31-.55 2.66 3.58-.85 2-53.11 2.8z"/>
        <path fill="#9C1800" d="m58.93 191.36 9.66-1.89-3.41-5.6 6.94-6.56 6.02 11.41 9.89-1.77 10.3 1.11 11.9-5.08 2.66 3.58-.85 2-53.11 2.8z" opacity=".25"/>
        <path fill="#ffffff" d="m68.59 189.47-8.33-11.57 17.22-10.87 4.69 14.34 2.54-2.97 6.03 6.89 5.74-9.25 8.65 1.38-4.96.51-9.2 8.62-6.19-5.69-3.03 1.83-4.93-13.65-14.3 9.05 6.07 11.38z"/>
        <path fill="url(#288d84c4-4dbc-40a1-aa2a-fd4cb45ce721)" d="M35 47.16c-.28.55 8.59 3.83 27.34 4.67 14.25.64 29.39-.71 29.71-1.75.65-2.08-14.47-18.95-27.7-18.95-13.23 0-28.44 14.14-29.35 16.03z" clip-rule="evenodd" fill-rule="evenodd"/>
        <path fill="url(#aa2d1329-1da8-4a0b-803c-c61918e35f88)" d="M40.22 194.38s15.41.3 17.4-13.94h3.55s1.77 13.84 13.27 14v2.32H40.22v-2.38z" clip-rule="evenodd" fill-rule="evenodd"/>
        <path fill="url(#7deb8d4d-b916-43ef-9760-aa780f3a3957)" d="m57.63 180.44 3.78-135.41 2.08.08-2.32 135.33h-3.54z" clip-rule="evenodd" fill-rule="evenodd"/>
        <path fill="url(#f3ac1243-91f0-431e-aedc-dd63f7261267)" d="M85.18 47.49c.035-.46.035-.92 0-1.38a8.003 8.003 0 0 0-.38-1.74 7.462 7.462 0 0 0-.94-2.12 8.212 8.212 0 0 0-.8-1 7.361 7.361 0 0 0-1-.82 5.748 5.748 0 0 0-1-.58 2.792 2.792 0 0 0-.75-.21h-.32a1.921 1.921 0 0 0-1.51.54 3.29 3.29 0 0 0-.91 3.16c.066.194.156.38.27.55.09.15.17.32.27.47.083.117.156.241.22.37h-.21a.12.12 0 0 0-.06.06.987.987 0 0 0-.12.23c-.1.214-.16.444-.18.68a.85.85 0 0 1-.05.25.883.883 0 0 0-.1-.22 1.702 1.702 0 0 0-.38-.46 1.24 1.24 0 0 0-.68-.33.692.692 0 0 0-.31.09 2 2 0 0 0-.8 1 1.12 1.12 0 0 0-.07.16c-.05.114-.093.231-.13.35l-1.28-.17c.036-.117.052-.238.05-.36a.369.369 0 0 0 0-.11 2.46 2.46 0 0 0-.3-.82 2.002 2.002 0 0 0-.69-.78 1.571 1.571 0 0 0-2.44.78c-.06.17-.08.351-.06.53a1.385 1.385 0 0 0 0 .35c-4.37-.47-8.48-.69-12.25-.75v-.23c-.063-.3-.16-.592-.29-.87a1.89 1.89 0 0 0-.59-.78c-.11-.07-.27-.12-.32-.25a1.58 1.58 0 0 0-.85-.89 3.374 3.374 0 0 0-.8-.3.666.666 0 0 1-.15-.06c-.08-.06-.06-.2-.08-.29-.02-.09-.09-.11-.14-.15a.36.36 0 0 0-.26-.07 1 1 0 0 0-.52.16c-.136.093-.28.174-.43.24a.359.359 0 0 1-.31-.09 3.433 3.433 0 0 1-.55-.46 2.063 2.063 0 0 0-1.51-.49 5.31 5.31 0 0 0-3 1.44 12.16 12.16 0 0 0-2.15 2.27c-.07.08-.13.17-.19.25-.14.183-.262.381-.36.59 0 .06 0 .11-.09.1a.725.725 0 0 1-.19-.07.853.853 0 0 0-.31-.06 1.44 1.44 0 0 0-.72.38l-.15.1-.14.1c-4.17.41-7.12.92-8.49 1.19l-.84.17c.38-.31 4.5-3.58 5.41-5.11 5-8.24 10.1-37.1 10.1-37.1a41.17 41.17 0 0 1 25.62-.42A29.2 29.2 0 0 1 80 6s.24 1.36.65 3.59c.09.51.19 1.07.3 1.67.053.267.103.547.15.84.06.3.11.61.17.93.09.48.18 1 .27 1.48.09.48.13.73.21 1.1.08.37.1.56.16.84 1.57 8.18 3.86 19.23 5.86 25.54.13.42.26.82.4 1.2.07.21.15.41.22.6l.18.46c0 .09.08.2.14.31a53.047 53.047 0 0 0 3 5.09l.3.47a134.805 134.805 0 0 0-7-1.77 2.25 2.25 0 0 0 .08-.24v-.15c.042-.154.072-.311.09-.47z" clip-rule="evenodd" fill-rule="evenodd"/>
        <path fill="#47003C" d="m60.94 61.15 2.22 2.3.33-18.06-2.09-.09-.46 15.85z" clip-rule="evenodd" fill-rule="evenodd" opacity=".5"/>
        <path fill="url(#69245678-448e-4fe2-a43b-6f60ddc05b2e)" d="m50.49 4.93.85-2.26S66-2 79.81 4.36L80 6S66 .49 50.49 4.93z" clip-rule="evenodd" fill-rule="evenodd"/>
        <path fill="url(#36978e6e-b4a4-46db-9d86-8105436c2ed4)" d="M68.76 45.77v20.87h.79s-.13-18.34 0-20.79l-.79-.08z" clip-rule="evenodd" fill-rule="evenodd"/>
        <path fill="#FFE148" d="M53.26 4.24 54.5 1.9a33.92 33.92 0 0 1 8.17-.9l-.46 2.2a39.57 39.57 0 0 0-8.95 1.04z" clip-rule="evenodd" fill-rule="evenodd"/>
        <path fill="#FFE148" d="M59.56 147.41s.52-74.88 2-84c-.05.04-.86 78.08-2 84z" clip-rule="evenodd" fill-rule="evenodd"/>
        <path fill="url(#c88a90fb-859a-44d7-a2b7-dd3f135daa9a)" d="M43.24 35.31s16.92-8 43.16 1.66l-2.23-8.4s-19.36-6.07-39 .53l-1.93 6.21z" clip-rule="evenodd" fill-rule="evenodd"/>
        <path fill="#5A3471" d="M48.09 16.85s21-3.73 34.64 3.58l-.47-2.29a77.78 77.78 0 0 0-34-2.15l-.17.86z" clip-rule="evenodd" fill-rule="evenodd"/>
        <path fill="url(#9105a388-90d5-4d41-a02e-bdfd300e4321)" d="M35 47.15a56.655 56.655 0 0 1 11.46-2.75c-.07.08-.13.17-.19.25-.14.183-.262.381-.36.59 0 .06 0 .11-.09.1a.728.728 0 0 1-.19-.07.85.85 0 0 0-.31-.06 1.44 1.44 0 0 0-.72.38l-.15.1c-4.23.45-7.24 1-8.63 1.29l-.82.17z" clip-rule="evenodd" fill-rule="evenodd" opacity=".2" style="mix-blend-mode:multiply"/>
        <path fill="url(#b7d546f7-89ff-424c-b427-da1898fa2fdc)" d="M78.22 44.4c.083.117.156.241.22.37h-.21a.12.12 0 0 0-.06.06.987.987 0 0 0-.12.23c-.1.214-.16.444-.18.68a.85.85 0 0 1-.05.25.881.881 0 0 0-.1-.22 1.699 1.699 0 0 0-.38-.46 1.24 1.24 0 0 0-.68-.33.69.69 0 0 0-.31.09 2 2 0 0 0-.8 1 1.11 1.11 0 0 0-.07.16L74.12 46a.369.369 0 0 0 0-.11 2.46 2.46 0 0 0-.3-.82 2 2 0 0 0-.69-.78 1.57 1.57 0 0 0-2.44.78c-.06.17-.08.351-.06.53-4.35-.43-8.46-.61-12.24-.63a4 4 0 0 0-.29-.87 1.89 1.89 0 0 0-.59-.78 196.575 196.575 0 0 1 20.18 0c.066.194.156.38.27.55.04.21.16.38.26.53z" clip-rule="evenodd" fill-rule="evenodd" opacity=".2" style="mix-blend-mode:multiply"/>
        <path fill="url(#afc6f2d8-9116-42e5-b446-24d524d972c1)" d="m92 49.7-.3-.08a81.82 81.82 0 0 0-6.59-1.69c.034-.145.057-.292.07-.44.035-.46.035-.92 0-1.38a8.001 8.001 0 0 0-.38-1.74 7.46 7.46 0 0 0-.94-2.12 8.204 8.204 0 0 0-.8-1 7.346 7.346 0 0 0-1-.82 5.742 5.742 0 0 0-1-.58 2.792 2.792 0 0 0-.75-.21c1.42-17.72-2.57-30.58-4.3-35.17a29.73 29.73 0 0 0-.76-1.85c.67.2 4.45 1.69 4.45 1.69s.45 2.76 1.18 6.87c.053.267.103.547.15.84.06.3.11.61.17.93.09.48.18 1 .27 1.48.09.48.13.73.21 1.1.08.37.1.56.16.84 1.68 9 4.11 20.78 6.26 26.74.07.21.15.41.22.6l.18.46.14.31A59.066 59.066 0 0 0 92 49.7z" clip-rule="evenodd" fill-rule="evenodd" opacity=".2" style="mix-blend-mode:multiply"/>
        <path fill="url(#0c14ca6d-d6b2-4a1f-8df1-f147ee2aaaa7)" d="m40.22 194.38 26.23-.73a21 21 0 0 1-6.89-13.05c-.9-8.22 2.46-49.81 2.46-49.81l-.85 49.65s1.54 13.82 13.27 14v2.32H40.22v-2.38z" clip-rule="evenodd" fill-rule="evenodd" opacity=".2" style="mix-blend-mode:multiply"/>
        <path fill="#FFE148" d="m42.7 196.8.51-2.5 7.79-.22.65 2.72H42.7z" clip-rule="evenodd" fill-rule="evenodd"/>
        <path fill="#FFE148" d="M51.31 193.85s4.5-1.74 6.31-8.49h-.75S53 193.15 45 194.08l6.31-.23z" clip-rule="evenodd" fill-rule="evenodd"/>
        <path fill="#FFE6D4" d="M35 47.16s6.44-4.51 7.57-5.83c1.13-1.32 9-38.71 9-38.71h-.19l-.85 1.57s-8.71 33.58-10.44 36.5A26.722 26.722 0 0 1 35 47.16z" clip-rule="evenodd" fill-rule="evenodd"/>
        <path fill="url(#0add1333-b616-412c-ad53-7482fee2c758)" d="m4.54 198.31.06 5.12-3.69.07v1.65l29.54.15 23.77.12c1.54-3 1.13-5.07 0-8.61H.91v1.38l3.63.12z" clip-rule="evenodd" fill-rule="evenodd"/>
        <path fill="url(#21493c66-8f4b-4e85-990b-0a3285dcd2c7)" d="M4.54 198.32h23.92v6.18l-23.87-1.07-.05-5.11z" clip-rule="evenodd" fill-rule="evenodd"/>
        <path fill="#801E56" d="m4.54 198.31.06 5.12-3.69.07v1.65l29.54.15a13.25 13.25 0 0 0 0-8.49H.91v1.38l3.63.12z" clip-rule="evenodd" fill-rule="evenodd" opacity=".8"/>
        <path fill="url(#b5cdb60c-6411-490e-9bd9-2aece28e87f0)" d="m4.54 132 .06 5.12-3.69.06v1.66l29.54.14 23.77.13c1.54-3 1.13-5.07 0-8.61H.91v1.37l3.63.13z" clip-rule="evenodd" fill-rule="evenodd"/>
        <path fill="url(#3e3f5c0e-a081-464c-af2c-5c11c4f0fc8c)" d="M4.54 131.96h23.92v6.19l-23.87-1.07-.05-5.12z" clip-rule="evenodd" fill-rule="evenodd"/>
        <path fill="#801E56" d="m4.54 132 .06 5.12-3.69.06v1.66l29.54.14a13.22 13.22 0 0 0 0-8.48H.91v1.37l3.63.13z" clip-rule="evenodd" fill-rule="evenodd" opacity=".8"/>
        <path fill="url(#fc9c452e-6147-48c7-a5ec-d6a45b21a22d)" d="m7.39 190 .06 5.12-3.69.06v1.66l29.54.16 29 .13a12 12 0 0 0 0-8.62H3.76v1.38l3.63.11z" clip-rule="evenodd" fill-rule="evenodd"/>
        <path fill="url(#b4c7c2ae-716e-401b-98be-0f3241ace60f)" d="M7.39 190h23.92v5.01l-23.87.11-.05-5.12z" clip-rule="evenodd" fill-rule="evenodd"/>
        <path fill="#801E56" d="m7.39 190 .06 5.12-3.69.06v1.66l29.54.16c1.2-3.3.62-5.36 0-8.49H3.76v1.38l3.63.11z" clip-rule="evenodd" fill-rule="evenodd" opacity=".8"/>
        <path fill="#A9423A" d="m4.54 177.65.06 9.26-3.69.07v1.65l29.54.15 29 .12a25.83 25.83 0 0 0 0-12.75H.91v1.37l3.63.13z" clip-rule="evenodd" fill-rule="evenodd"/>
        <path fill="url(#ac5915d7-90ec-4f42-b77c-9b87769a07b8)" d="M4.54 177.65h23.92v9.16l-23.87.1-.05-9.26z" clip-rule="evenodd" fill-rule="evenodd"/>
        <path fill="url(#a049d9fa-83a6-4984-9819-344d8a7fabab)" d="M35.37 188.8a21.83 21.83 0 0 0-1-12.65h1.92a16.273 16.273 0 0 1 .84 12.64l-1.76.01z" clip-rule="evenodd" fill-rule="evenodd"/>
        <path fill="url(#bfdbdeb9-ad9b-43d4-8974-05c094b7c1b9)" d="M52.64 188.8a21.83 21.83 0 0 0-1-12.65h1.93a16.326 16.326 0 0 1 .84 12.64l-1.77.01z" clip-rule="evenodd" fill-rule="evenodd"/>
        <path fill="#801E56" d="m4.54 177.65.06 9.26-3.69.07v1.65l29.54.15c1.28-4.91 1.36-7.86 0-12.63H.91v1.37l3.63.13z" clip-rule="evenodd" fill-rule="evenodd" opacity=".8"/>
        <path fill="#82343A" d="m4.54 165.24.06 9.26-3.69.06v1.66l29.54.15 29 .12a25.87 25.87 0 0 0 0-12.76H.91v1.38l3.63.13z" clip-rule="evenodd" fill-rule="evenodd"/>
        <path fill="url(#463df9ab-a6f1-41db-b1c2-30ac9e268565)" d="M4.54 165.24h23.92v9.16l-23.87.1-.05-9.26z" clip-rule="evenodd" fill-rule="evenodd"/>
        <path fill="url(#5dafa955-4883-4136-a553-c826289d2333)" d="M35.37 176.39a21.87 21.87 0 0 0-1-12.66h1.92a16.281 16.281 0 0 1 .84 12.64l-1.76.02z" clip-rule="evenodd" fill-rule="evenodd"/>
        <path fill="url(#3de4077a-a96e-4221-aaba-0918033465dd)" d="M52.64 176.39a21.87 21.87 0 0 0-1-12.66h1.93a16.343 16.343 0 0 1 .84 12.64l-1.77.02z" clip-rule="evenodd" fill-rule="evenodd"/>
        <path fill="#801E56" d="m4.54 165.24.06 9.26-3.69.06v1.66l29.54.15c1.28-4.91 1.36-7.86 0-12.64H.91v1.38l3.63.13z" clip-rule="evenodd" fill-rule="evenodd" opacity=".8"/>
        <path fill="#49685C" d="M60 152.83v9.27l3.69.06v1.66l-29.58.18-29 .13a26 26 0 0 1 0-12.76H63.6v1.38l-3.6.08z" clip-rule="evenodd" fill-rule="evenodd"/>
        <path fill="url(#76bddde9-1861-4308-9654-5d6fbf261325)" d="M60 152.84H36.09c-1.34 3.37-1 6 0 9.16l23.87.1.04-9.26z" clip-rule="evenodd" fill-rule="evenodd"/>
        <path fill="url(#30081cb8-ffb4-4806-a0fb-de3fe1ee2204)" d="M25.48 155.33a20.49 20.49 0 0 0-.39 5.48h-18s-1.3-3.49 0-5.48h18.39z" clip-rule="evenodd" fill-rule="evenodd"/>
        <path fill="#82343A" d="m59.27 140.3-.06 9.27 3.69.06v1.66l-29.54.14-28.95.13a25.87 25.87 0 0 1 0-12.76H62.9v1.38l-3.63.12z" clip-rule="evenodd" fill-rule="evenodd"/>
        <path fill="url(#04d3a00d-bec9-4b4b-b9c5-cdc1a6a1c0bb)" d="M59.27 140.31H35.35c-1.34 3.37-1 6 0 9.16l23.86.1.06-9.26z" clip-rule="evenodd" fill-rule="evenodd"/>
        <path fill="url(#3b2dd223-5d87-4359-a898-6eb2b4297b74)" d="M26 142.8a20.284 20.284 0 0 0-.38 5.48h-18s-1.3-3.49 0-5.48H26z" clip-rule="evenodd" fill-rule="evenodd"/>
        <path fill="#801E56" d="M35.2 151.33S31.44 155 33 164l-27.8.12s-2.06-7 0-12.76l30-.03z" clip-rule="evenodd" fill-rule="evenodd" opacity=".8"/>
        <path fill="#801E56" d="M34.45 138.8s-3.75 3.66-2.24 12.64l-27.8.12s-2.07-7 0-12.76h30.04z" clip-rule="evenodd" fill-rule="evenodd" opacity=".8"/>
        <path fill="#E69624" d="M44.89 138.8s1.23-2.37 0-8.34h-7.51s1.49 2 .71 8.34h6.8z" clip-rule="evenodd" fill-rule="evenodd"/>
        <path fill="url(#00e86ea3-2f84-465f-a9e4-55b61abe0fee)" d="m4.54 123.67.06 5.12-3.69.06v1.66l29.54.14 23.77.13c1.54-3 1.13-5.07 0-8.61H.91v1.37l3.63.13z" clip-rule="evenodd" fill-rule="evenodd"/>
        <path fill="url(#cdcdd098-a761-4434-a085-4fbd5a2918af)" d="M4.54 123.67h23.92v6.19l-23.87-1.07-.05-5.12z" clip-rule="evenodd" fill-rule="evenodd"/>
        <path fill="#801E56" d="m4.54 123.67.06 5.12-3.69.06v1.66l29.54.14a13.22 13.22 0 0 0 0-8.48H.91v1.37l3.63.13z" clip-rule="evenodd" fill-rule="evenodd" opacity=".8"/>
        <path fill="#E69624" d="M44.89 130.51s1.23-2.37 0-8.34h-7.51s1.49 2 .71 8.34h6.8z" clip-rule="evenodd" fill-rule="evenodd"/>
        <defs fill="none">
            <linearGradient gradientUnits="userSpaceOnUse" y2="166.659" x2="84.75" y1="189.968" x1="85.963" id="da1cc694-ec8c-4b28-a208-2a73d4694cd7">
                <stop stop-color="#FFE07A" offset=".01"/>
                <stop stop-color="#FFE2BD" offset="1"/>
            </linearGradient>
            <linearGradient gradientUnits="userSpaceOnUse" y2="41.56" x2="92.02" y1="41.56" x1="34.95" id="288d84c4-4dbc-40a1-aa2a-fd4cb45ce721">
                <stop stop-color="#E0989A" offset=".01"/>
                <stop stop-color="#C2636D" offset="1"/>
            </linearGradient>
            <linearGradient gradientUnits="userSpaceOnUse" y2="180.44" x2="57.33" y1="196.8" x1="57.33" id="aa2d1329-1da8-4a0b-803c-c61918e35f88">
                <stop stop-color="#E26221"/>
                <stop stop-color="#B34F36" offset="1"/>
            </linearGradient>
            <linearGradient gradientUnits="userSpaceOnUse" y2="45.03" x2="60.56" y1="180.44" x1="60.56" id="7deb8d4d-b916-43ef-9760-aa780f3a3957">
                <stop stop-color="#B34F36"/>
                <stop stop-color="#E26221" offset="1"/>
            </linearGradient>
            <linearGradient gradientUnits="userSpaceOnUse" y2="13.374" x2="3858.46" y1="13.374" x1="2986.44" id="69245678-448e-4fe2-a43b-6f60ddc05b2e">
                <stop stop-color="#E26221"/>
                <stop stop-color="#B34F36" offset="1"/>
            </linearGradient>
            <linearGradient gradientUnits="userSpaceOnUse" y2="980.12" x2="162.107" y1="1415.68" x1="162.107" id="36978e6e-b4a4-46db-9d86-8105436c2ed4">
                <stop stop-color="#B34F36"/>
                <stop stop-color="#E26221" offset="1"/>
            </linearGradient>
            <linearGradient gradientUnits="userSpaceOnUse" y2="31.49" x2="86.4" y1="31.49" x1="43.24" id="c88a90fb-859a-44d7-a2b7-dd3f135daa9a">
                <stop stop-color="#F5821F"/>
                <stop stop-color="#F5821F" offset="1"/>
            </linearGradient>
            <linearGradient gradientUnits="userSpaceOnUse" y2="45.77" x2="46.46" y1="45.77" x1="34.98" id="9105a388-90d5-4d41-a02e-bdfd300e4321">
                <stop stop-color="#FF936A"/>
                <stop stop-color="#890041" offset="1"/>
            </linearGradient>
            <linearGradient gradientUnits="userSpaceOnUse" y2="181.392" x2="2724.83" y1="181.392" x1="2286.56" id="b7d546f7-89ff-424c-b427-da1898fa2fdc">
                <stop stop-color="#FF936A"/>
                <stop stop-color="#890041" offset="1"/>
            </linearGradient>
            <linearGradient gradientUnits="userSpaceOnUse" y2="1188.09" x2="2437" y1="1188.09" x1="2158.11" id="afc6f2d8-9116-42e5-b446-24d524d972c1">
                <stop stop-color="#FF936A"/>
                <stop stop-color="#890041" offset="1"/>
            </linearGradient>
            <linearGradient gradientUnits="userSpaceOnUse" y2="10870" x2="4264.34" y1="10870" x1="3093.33" id="0c14ca6d-d6b2-4a1f-8df1-f147ee2aaaa7">
                <stop stop-color="#FF936A"/>
                <stop stop-color="#890041" offset="1"/>
            </linearGradient>
            <linearGradient gradientUnits="userSpaceOnUse" y2="201.12" x2=".91" y1="201.12" x1="55.22" id="0add1333-b616-412c-ad53-7482fee2c758">
                <stop stop-color="#AE213F"/>
                <stop stop-color="#8B1126" offset="1"/>
            </linearGradient>
            <linearGradient gradientUnits="userSpaceOnUse" y2="201.41" x2="4.53" y1="201.41" x1="28.45" id="21493c66-8f4b-4e85-990b-0a3285dcd2c7">
                <stop stop-color="#EFC5C9"/>
                <stop stop-color="#F8E8B8" offset="1"/>
            </linearGradient>
            <linearGradient gradientUnits="userSpaceOnUse" y2="1282.17" x2="33543.9" y1="1282.17" x1="30593.9" id="b5cdb60c-6411-490e-9bd9-2aece28e87f0">
                <stop stop-color="#AE213F"/>
                <stop stop-color="#8B1126" offset="1"/>
            </linearGradient>
            <linearGradient gradientUnits="userSpaceOnUse" y2="961.79" x2="14689.5" y1="961.79" x1="14117.3" id="3e3f5c0e-a081-464c-af2c-5c11c4f0fc8c">
                <stop stop-color="#EFC5C9"/>
                <stop stop-color="#F8E8B8" offset="1"/>
            </linearGradient>
            <linearGradient gradientUnits="userSpaceOnUse" y2="192.8" x2="3.76" y1="192.8" x1="63.04" id="fc9c452e-6147-48c7-a5ec-d6a45b21a22d">
                <stop stop-color="#F0CA35"/>
                <stop stop-color="#EAAB38" offset="1"/>
            </linearGradient>
            <linearGradient gradientUnits="userSpaceOnUse" y2="1170.79" x2="14624.2" y1="1170.79" x1="14052" id="b4c7c2ae-716e-401b-98be-0f3241ace60f">
                <stop stop-color="#EFC5C9"/>
                <stop stop-color="#F8E8B8" offset="1"/>
            </linearGradient>
            <linearGradient gradientUnits="userSpaceOnUse" y2="1856.3" x2="14689.5" y1="1856.3" x1="14117.3" id="ac5915d7-90ec-4f42-b77c-9b87769a07b8">
                <stop stop-color="#EFC5C9"/>
                <stop stop-color="#F8E8B8" offset="1"/>
            </linearGradient>
            <linearGradient gradientUnits="userSpaceOnUse" y2="176.15" x2="36.14" y1="188.8" x1="36.14" id="a049d9fa-83a6-4984-9819-344d8a7fabab">
                <stop stop-color="#EBB02E" offset=".03"/>
                <stop stop-color="#C2611F" offset=".22"/>
                <stop stop-color="#EBB02F" offset="1"/>
            </linearGradient>
            <linearGradient gradientUnits="userSpaceOnUse" y2="2391.8" x2="2121.03" y1="2551.82" x1="2121.03" id="bfdbdeb9-ad9b-43d4-8974-05c094b7c1b9">
                <stop stop-color="#EBB02E" offset=".03"/>
                <stop stop-color="#C2611F" offset=".22"/>
                <stop stop-color="#EBB02F" offset="1"/>
            </linearGradient>
            <linearGradient gradientUnits="userSpaceOnUse" y2="1728.98" x2="14689.5" y1="1728.98" x1="14117.3" id="463df9ab-a6f1-41db-b1c2-30ac9e268565">
                <stop stop-color="#EFC5C9"/>
                <stop stop-color="#F8E8B8" offset="1"/>
            </linearGradient>
            <linearGradient gradientUnits="userSpaceOnUse" y2="2223.89" x2="2163.11" y1="2384.17" x1="2163.11" id="5dafa955-4883-4136-a553-c826289d2333">
                <stop stop-color="#EBB02E" offset=".03"/>
                <stop stop-color="#C2611F" offset=".22"/>
                <stop stop-color="#EBB02F" offset="1"/>
            </linearGradient>
            <linearGradient gradientUnits="userSpaceOnUse" y2="2223.89" x2="2120.09" y1="2384.17" x1="2120.09" id="3de4077a-a96e-4221-aaba-0918033465dd">
                <stop stop-color="#EBB02E" offset=".03"/>
                <stop stop-color="#C2611F" offset=".22"/>
                <stop stop-color="#EBB02F" offset="1"/>
            </linearGradient>
            <linearGradient gradientUnits="userSpaceOnUse" y2="1601.75" x2="3955.71" y1="1601.75" x1="3340.37" id="76bddde9-1861-4308-9654-5d6fbf261325">
                <stop stop-color="#EFC5C9"/>
                <stop stop-color="#F8E8B8" offset="1"/>
            </linearGradient>
            <linearGradient gradientUnits="userSpaceOnUse" y2="158.07" x2="6.51" y1="158.07" x1="25.48" id="30081cb8-ffb4-4806-a0fb-de3fe1ee2204">
                <stop stop-color="#C2611F"/>
                <stop stop-color="#EBB02F" offset="1"/>
            </linearGradient>
            <linearGradient gradientUnits="userSpaceOnUse" y2="1473.2" x2="3938.22" y1="1473.2" x1="3322.63" id="04d3a00d-bec9-4b4b-b9c5-cdc1a6a1c0bb">
                <stop stop-color="#EFC5C9"/>
                <stop stop-color="#F8E8B8" offset="1"/>
            </linearGradient>
            <linearGradient gradientUnits="userSpaceOnUse" y2="934.879" x2="11598.6" y1="934.879" x1="11239" id="3b2dd223-5d87-4359-a898-6eb2b4297b74">
                <stop stop-color="#C2611F"/>
                <stop stop-color="#EBB02F" offset="1"/>
            </linearGradient>
            <linearGradient gradientUnits="userSpaceOnUse" y2="1202.47" x2="33543.9" y1="1202.47" x1="30593.9" id="00e86ea3-2f84-465f-a9e4-55b61abe0fee">
                <stop stop-color="#AE213F"/>
                <stop stop-color="#8B1126" offset="1"/>
            </linearGradient>
            <linearGradient gradientUnits="userSpaceOnUse" y2="902.187" x2="14689.5" y1="902.187" x1="14117.3" id="cdcdd098-a761-4434-a085-4fbd5a2918af">
                <stop stop-color="#EFC5C9"/>
                <stop stop-color="#F8E8B8" offset="1"/>
            </linearGradient>
            <radialGradient gradientTransform="translate(47.24 21.49) scale(43.08)" gradientUnits="userSpaceOnUse" r="1" cy="0" cx="0" id="f3ac1243-91f0-431e-aedc-dd63f7261267">
                <stop stop-color="#FFEAB8"/>
                <stop stop-color="#EDC9CB" offset=".7"/>
            </radialGradient>
        </defs>
    </g>
</svg>
