<?xml version="1.0" encoding="UTF-8"?>
<svg data-bbox="0 0 31.53 14.22" viewBox="0 0 31.53 14.22" xmlns="http://www.w3.org/2000/svg" data-type="ugc">
    <g>
        <defs>
            <linearGradient gradientUnits="userSpaceOnUse" gradientTransform="rotate(-2.98 10.058 5.263)" y2=".05" x2="15.37" y1="13.69" x1="15.37" id="b32bac88-11cd-45cd-9fb5-907ce6d071cf">
                <stop stop-color="#ffe07a" offset=".01"/>
                <stop stop-color="#ffe2bd" offset="1"/>
            </linearGradient>
        </defs>
        <g>
            <g>
                <path fill="url(#b32bac88-11cd-45cd-9fb5-907ce6d071cf)" d="m0 14.22 5.64-1.1L.78 6.35 10.84 0l2.74 8.38 1.49-1.74 3.52 4.03 3.35-5.41 5.05.81 1.05 3.57 1.94-.32 1.55 2.09-.49 1.17L0 14.22z"/>
                <path style="mix-blend-mode:multiply" fill="#9c1800" opacity=".25" d="m0 14.22 5.64-1.1-1.99-3.28L7.71 6l3.51 6.67L17 11.64l6.02.65 6.96-2.97 1.55 2.09-.49 1.17L0 14.22z"/>
                <path fill="#ffffff" d="M5.64 13.12.78 6.35 10.84 0l2.74 8.38 1.49-1.74 3.52 4.03 3.35-5.41 5.05.81-2.89.3-5.38 5.03-3.61-3.32-1.77 1.07-2.89-7.98-8.36 5.29 3.55 6.66z"/>
            </g>
        </g>
    </g>
</svg>
