<?xml version="1.0" encoding="UTF-8"?>
<svg data-bbox="-0.002 -0.003 200.196 183.592" viewBox="0 0 200.19 183.43" xmlns="http://www.w3.org/2000/svg" data-type="color">
    <g>
        <g>
            <path d="M101.11 72a2.48 2.48 0 0 1 2.67 3.67c3.71 3.08 9.53 2.9 13.64-.12 5.42-4 7.39-12.71 2.18-17.75-6-5.76-13.71 1.81-17.92 6.16-.09.09-.17.15-.25.22a11.86 11.86 0 0 0-.32 7.82Zm93.61 28.11c4 4.78 7.18 11.76 4.46 18-1.87 4.25-7.41 9.25-12.52 11 .15 3.67 0 7.37-.16 10.95-.49 9.11-1.35 18.91-8.79 25.23-8 6.75-20.46 8.59-30.31 10.83a308.08 308.08 0 0 1-75.25 7.37c-9.54-.21-19.43-1.29-26.67-8.17s-10.31-16.72-10.58-26.5a65.86 65.86 0 0 1 .16-7.15l-.1-.05c-10.19-6.4-12.6-19.5-17.7-29.64-1.42-2.79-3.3-7-6.6-7.91-2.92-.84-5.59.31-8.29-1.57-3.32-2.5-2.91-6.23-.28-8.87 7.47-7.48 20.79-7.13 30.29-4.88a44.72 44.72 0 0 1 25.11 15.55 4.17 4.17 0 0 1 .7 0c1.5.08 2.76 1.31 3.8 2.31a4 4 0 0 1 .84 1.14 1.19 1.19 0 0 1 .12-1 99.5 99.5 0 0 1 34.64-33 13.29 13.29 0 0 1-.66-1.87c-2.11-8.06 5-20.6 13.94-20.59a1.75 1.75 0 0 1 1 .29c4.19-1.16 8.54-.31 12.18 4.17a15.22 15.22 0 0 1 1.85 16.11c6.27 1.5 12.42 5.25 17.81 8.45a114 114 0 0 1 18 12.83 3.28 3.28 0 0 1 .82 1.27c10.84-6.05 23.72-4.41 32.19 5.65Zm-2.81 16.65c3.34-4.53-.65-10.35-3.73-13.88-6.31-7.27-14.92-6.82-23.28-4.63a30.38 30.38 0 0 1 12 6.59c3.1-.46 6.24.22 8.3 3a8.41 8.41 0 0 1-.2 10.36q.47 1.6.78 3.27c2.22-1.34 4.56-2.62 6.13-4.76Zm-12.23 21.06c.52-9 .61-19.24-5.62-26.47-5.43-6.32-13.38-8.62-21.47-8.58a2.7 2.7 0 0 1-2.57-1.53 319.42 319.42 0 0 1-37.31 7A224.09 224.09 0 0 1 87.23 110c-6.58 0-13.61.39-20.22-.62-7.86 4.12-16.83 8.59-22.14 15.92-6.4 8.82-6.48 23.24-3.19 33.26 2.76 8.4 9 15.1 17.82 16.83s18.5.59 27.35.2c19.73-.87 39.56-2.86 58.9-7 8.3-1.77 18.85-3.2 26-8.07 7.36-4.95 7.47-14.75 7.93-22.75Zm-26.37-43.66a143.3 143.3 0 0 0-12.44-9.45c-5.33-3.55-11.48-6.16-16.73-9.82a17.23 17.23 0 0 1-5.6 5c-5.91 3.26-13.79 2.37-18.36-2.25a78.57 78.57 0 0 0-32.89 27.92c7-.69 14.33-.36 21.37-.84 7.57-.53 15.1-1 22.63-2a274.08 274.08 0 0 0 42.02-8.56Zm-96.43 17a17 17 0 0 1-1.07-1.59 10 10 0 0 1-.65-1.2 4.08 4.08 0 0 1-.12-2c0-.11 0-.21.06-.32A44.83 44.83 0 0 0 18 91.48a26 26 0 0 0-7.44 1.59c-2 .81-7.87 3.69-3.12 5.32 1.6.55 4.07-.35 5.92.19a12.2 12.2 0 0 1 4.4 2.47c2.85 2.46 4.5 6 6.2 9.25 2.32 4.52 4.27 9.16 6.29 13.81 1.5 3.44 3.23 7 6.05 9.57a29.37 29.37 0 0 1 6.62-12.81 42.26 42.26 0 0 1 13.96-9.66Z" fill="#e57885" data-color="1"/>
            <path d="M55.81 109.62a17 17 0 0 0 1.07 1.59 42.26 42.26 0 0 0-14 9.66 29.37 29.37 0 0 0-6.62 12.81c-2.82-2.53-4.55-6.13-6.05-9.57-2-4.65-4-9.29-6.29-13.81-1.7-3.29-3.35-6.79-6.2-9.25a12.2 12.2 0 0 0-4.4-2.47c-1.85-.54-4.32.36-5.92-.19-4.75-1.63 1.14-4.51 3.12-5.32A26 26 0 0 1 18 91.48a44.83 44.83 0 0 1 37.1 14.63c0 .11-.05.21-.06.32a4.08 4.08 0 0 0 .12 2 10 10 0 0 0 .65 1.19Z" fill="#e57885" data-color="1"/>
            <path d="M184.61 18.6a7.17 7.17 0 0 1 .3 5.19 9 9 0 0 1-7.26 5.63 6.71 6.71 0 0 1-4.57-1.34c-.66-.44-1.32-.94-2-1.35a4 4 0 0 0 .33-.47 4.76 4.76 0 0 0 .63-2.6c2.05.4 4.63.67 6.5-.33.81-.43.34-1.57-.38-1.75a8.25 8.25 0 0 0-3.28.14c-1 .16-2 .36-3 .6a10.71 10.71 0 0 0-1.28-3.16c.21-.23.41-.47.61-.72a.56.56 0 0 0 .57 0c1.62-.91 3-2.29 4.63-3.22 1.5-.85 3.56-1.85 5.27-1 1.51.78 2.32 2.9 2.93 4.38Z" fill="#e57885" data-color="1"/>
            <path d="M166.82 2.35a7 7 0 0 1 5.39 6.71 11.83 11.83 0 0 1-3.1 8.16l-.09-.09a6.06 6.06 0 0 0-3.85-1.67c.12-.5.18-1 .28-1.52a10 10 0 0 0 .3-3.52.61.61 0 0 0-1.15-.21 9.54 9.54 0 0 0-.87 3.41c-.09.63-.25 1.29-.28 1.94a9.38 9.38 0 0 0-3.53 1.44c-.49-1.4-1-2.78-1.59-4.15a8.5 8.5 0 0 1-.89-2.79 4.88 4.88 0 0 1 1-2.69c1.87-3.02 4.56-5.78 8.38-5.02Z" fill="#e57885" data-color="1"/>
            <path d="M170.58 29.27a6.59 6.59 0 0 1 1.13 6.26c-.9 2.62-3.46 4.3-6.05 5a5.85 5.85 0 0 1-4.28-.16 4.93 4.93 0 0 1-2.13-3c-.75-2.62.34-5.06 1.17-7.5a6.57 6.57 0 0 0 .77.16 10 10 0 0 0 2.57 0v.64a17.27 17.27 0 0 0 .15 2.69 1 1 0 0 0 2-.17 18.55 18.55 0 0 0-.48-2.66c-.05-.26-.09-.52-.14-.78a13.59 13.59 0 0 0 1.57-.48 17.34 17.34 0 0 0 2.15-.94 17.52 17.52 0 0 1 1.57.94Z" fill="#e57885" data-color="1"/>
            <path d="M168.89 25.93a2.85 2.85 0 0 0 1-2.86 10 10 0 0 0-1-3 1.21 1.21 0 0 1-.9-1.34c-1.58-1.87-3.76-1.79-5.88-1.13a.65.65 0 0 1 .16 1c-1.05 1.06-2.62 1.22-3.81 2.12a3.61 3.61 0 0 0-1.16 4.43c1.6 3.76 6.51 3.3 9.57 2l.84-.39a1.17 1.17 0 0 1 1.18-.83ZM186 16.05a11.64 11.64 0 0 1 1.66 6.69c-.49 4-4 7.52-7.84 8.62a9 9 0 0 1-5.77-.12l-.2-.09a8.18 8.18 0 0 1 0 4.92c-1.06 3.39-4.22 5.73-7.57 6.59-3.59.93-7.05.1-8.7-3.46a8.5 8.5 0 0 1-.76-3.56 8.8 8.8 0 0 1-2.08 1.5 7.7 7.7 0 0 1-8.5-1 6 6 0 0 1-1.09-8.12 8.69 8.69 0 0 1 4.57-3.38 9.87 9.87 0 0 1-2.75-2.93c-1.68-2.76-2.87-7-1.27-10.1 1.69-3.22 5.06-3.29 7.87-1.52a15.09 15.09 0 0 1 2.77 2.24c-.06-.19-.13-.38-.2-.57a6.2 6.2 0 0 1 1-5.67c2.26-3.55 5.33-6.53 9.86-6.04 4.11.45 6.89 4.12 7.5 8a12 12 0 0 1-1.39 7.45 20.73 20.73 0 0 1 3.22-2.25 7.37 7.37 0 0 1 5.76-1.07c1.91.59 3.01 2.21 3.91 3.87Zm-1.06 7.74a7.17 7.17 0 0 0-.3-5.19c-.58-1.48-1.42-3.58-2.93-4.34-1.71-.85-3.77.15-5.27 1-1.65.93-3 2.31-4.63 3.22a.56.56 0 0 1-.57 0c-.2.25-.4.49-.61.72a10.71 10.71 0 0 1 1.28 3.16c1-.24 2-.44 3-.6a8.25 8.25 0 0 1 3.28-.14c.72.18 1.19 1.32.38 1.75-1.87 1-4.45.73-6.5.33a4.76 4.76 0 0 1-.63 2.6 4 4 0 0 1-.33.47c.69.41 1.35.91 2 1.35a6.71 6.71 0 0 0 4.57 1.34 9 9 0 0 0 7.23-5.67ZM172.21 9.06a7 7 0 0 0-5.39-6.71c-3.86-.76-6.51 2-8.4 5a4.88 4.88 0 0 0-1 2.69 8.5 8.5 0 0 0 .89 2.79c.55 1.37 1.1 2.75 1.59 4.15a9.38 9.38 0 0 1 3.53-1.42c0-.65.19-1.31.28-1.94a9.54 9.54 0 0 1 .87-3.41.61.61 0 0 1 1.15.21 10 10 0 0 1-.3 3.52c-.1.49-.16 1-.28 1.52a6.06 6.06 0 0 1 3.85 1.67l.09.09a11.83 11.83 0 0 0 3.12-8.16Zm-.5 26.47a6.59 6.59 0 0 0-1.13-6.26 17.52 17.52 0 0 0-1.57-.93 17.34 17.34 0 0 1-2.15.94 13.59 13.59 0 0 1-1.57.48c.05.26.09.52.14.78a18.55 18.55 0 0 1 .48 2.66 1 1 0 0 1-2 .17 17.27 17.27 0 0 1-.15-2.69v-.64a10 10 0 0 1-2.57 0 6.57 6.57 0 0 1-.77-.16c-.83 2.44-1.92 4.88-1.17 7.5a4.93 4.93 0 0 0 2.13 3 5.85 5.85 0 0 0 4.28.16c2.59-.71 5.15-2.39 6.05-5.01ZM157.43 19v-.07a13.23 13.23 0 0 0-4-5.81c-1.72-1.43-4.54-2.89-5.66 0-.9 2.34.14 5.6 1.47 7.59a6.61 6.61 0 0 0 5.17 3.13h.59a4.85 4.85 0 0 1 0-.66 5 5 0 0 1 .51-1.94l.31-.56a6 6 0 0 1 1.51-1.6Zm-.3 13.61a17.83 17.83 0 0 1 1.23-3.61 7.71 7.71 0 0 1-1.71-1.35.55.55 0 0 1-.2.35c-.78.57-1.62 1.07-2.36 1.69s-1.21 1.53-2.09 1.84a.8.8 0 0 1-1.05-.89c.19-1.05 1.31-1.79 2.15-2.36a8 8 0 0 1 3-1.33 7 7 0 0 1-.51-.82 8.38 8.38 0 0 1-1.58 0c-2.48.15-5.05.68-6.69 2.67a3.92 3.92 0 0 0 .72 5.93c3.19 2.39 6.96.74 9.09-2.15Z" fill="#e57885" data-color="1"/>
            <path d="M157.4 18.9v.07l-.13.08a6 6 0 0 0-1.51 1.6.73.73 0 0 0-.41-.76l-2.45-1.25a7.31 7.31 0 0 0-2.39-1 .74.74 0 0 0-.61 1.27 7.24 7.24 0 0 0 2.28 1.25l2.51 1.15a.69.69 0 0 0 .76-.07 5 5 0 0 0-.51 1.94 4.85 4.85 0 0 0 0 .66h-.59a6.61 6.61 0 0 1-5.17-3.13c-1.33-2-2.37-5.25-1.47-7.59 1.12-2.91 3.94-1.45 5.66 0a13.23 13.23 0 0 1 4.03 5.78Z" fill="#e57885" data-color="1"/>
            <path d="M158.36 29a17.83 17.83 0 0 0-1.23 3.54c-2.1 2.89-5.9 4.54-9.11 2.24a3.92 3.92 0 0 1-.72-5.93c1.64-2 4.21-2.52 6.69-2.67a8.38 8.38 0 0 0 1.58 0 7 7 0 0 0 .51.82 8 8 0 0 0-3 1.33c-.84.57-2 1.31-2.15 2.36a.8.8 0 0 0 1.05.89c.88-.31 1.4-1.24 2.09-1.84s1.58-1.12 2.36-1.69a.55.55 0 0 0 .2-.35 7.71 7.71 0 0 0 1.73 1.3Z" fill="#e57885" data-color="1"/>
            <path d="M155.38 19.89a.73.73 0 0 1 .41.76l-.31.56a.69.69 0 0 1-.76.07l-2.51-1.15a7.24 7.24 0 0 1-2.28-1.25.74.74 0 0 1 .61-1.27 7.31 7.31 0 0 1 2.39 1Z" fill="#e57885" data-color="1"/>
            <path d="M66.36 41a7.14 7.14 0 0 0-12-7.43 7.14 7.14 0 0 0-10.61 9.37A7.14 7.14 0 0 0 48 56.16a6.2 6.2 0 0 0 1.14-.16 7.13 7.13 0 0 0 14.09-1.2 8.84 8.84 0 0 0 1.15 0 7.14 7.14 0 0 0 2-13.77Zm-5.31 4.12a5.75 5.75 0 0 1-3.68 5.71 5.83 5.83 0 0 1-3.13.27 5.76 5.76 0 0 1-3.14-1.77 5.66 5.66 0 0 1-1.45-3.23.57.57 0 0 1 0-.13 5.68 5.68 0 0 1 .76-3.39A5.81 5.81 0 0 1 53 40.23a6 6 0 0 1 1.82-.46 5.83 5.83 0 0 1 1.87.15A5.76 5.76 0 0 1 61 45a.53.53 0 0 0 .05.11Z" fill="#e57885" data-color="1"/>
        </g>
    </g>
</svg>
