<?xml version="1.0" encoding="UTF-8"?>
<svg data-bbox="0.04 0.016 309.728 414.52" viewBox="0 0 309.74 414.58" xmlns="http://www.w3.org/2000/svg" data-type="color">
    <g>
        <g>
            <path d="M8.75 350.83c4.72-.45 9.45-.86 14.18-1.13a4.94 4.94 0 0 1 4.46-3.3l2-.11c2.59-5.77 8.4-11.2 12.15-15.63 2.6-3.05 6.07-8.14 10-11.13a2 2 0 0 1-1.47-1.12c-7.5.7-14.69 2.54-19.43 7.67-7.4 8.09-14.57 16.51-21.89 24.75ZM58.62 318a1.77 1.77 0 0 1 .19.69c.11 6-7.49 12.1-11.05 16.54-2.41 3-4.82 7-7.54 10.55q10.67-.48 21.33-.79c2.38-4.12 5.13-8.11 7.65-12 3.37-5.23 6.36-11.62 11.18-15.71-3.88.13-7.77.28-11.64.46-3.12.16-6.57.16-10.12.26Zm-.06 63.07a2.52 2.52 0 0 1-2.9-1.37c-3.85.95-7.31 3.29-10.48 7a28.45 28.45 0 0 0-1.84 2.35c2.23-.56 4.62-.67 6.86-1.19a35.38 35.38 0 0 0 5.92-1.67c1-.57 2-1.14 3.07-1.7 1.66-1.29 1.45-2.49-.63-3.44Zm80.12-205-10.13-.07h-2.78l-15-.16-11.82-.13c1.15 6.6-.39 14.05-.31 20.62.06 5.16 1.65 11.59.85 17 3.72-.28 7.41-.55 11.12-.79h.3c5.86-.4 11.72-.77 17.59-1.06a.65.65 0 0 0 .19 0l10.28-.48a18.08 18.08 0 0 1-2.65-8.07c-.61-8.09-.15-18.55 2.36-26.86Zm16 .53a1 1 0 0 1 .19-.38H151l-9-.11c.77 5.92.45 12.06.89 18 .27 3.7.28 7.65 1.93 11 .84 1.71 2.08 3 2.64 4.88a1.91 1.91 0 0 1 .08.54c1.86-.09 3.71-.15 5.58-.23-2.37-2.37-2.2-6.83-1.93-10.2.72-7.9 1.35-15.88 3.53-23.5Zm2.44 0a99.25 99.25 0 0 1 1.5 17.4c.08 5 1.16 10.57.74 15.42a2.07 2.07 0 0 1-.12.62c2.41-.09 4.8-.15 7.19-.24-1.33-3.26-1.39-7.36-1.24-10.66.35-7.63 1.89-15.3 2.77-22.92h-11a1 1 0 0 1 .2.38Zm24.11-.31c-3.56-.07-7.13-.08-10.69-.08 1.89 5.23 1.37 10.79 1.25 16.37a39.27 39.27 0 0 0 1.21 11.89c.56 1.9 1.29 3.39 1.66 5.05 2.06-.07 4.12-.12 6.18-.18a16.48 16.48 0 0 1-2.2-7c-.3-5 .71-10.32 1.13-15.35a53.41 53.41 0 0 1 1.5-10.7Zm3.73.09c1.72 5.79 1.5 12.28 1.95 18.23.25 3.43.39 6.79 1.52 10a27.32 27.32 0 0 1 1.48 4.45l2.37-.06c-2.71-4.47-1.4-10.79-.94-15.94a53.84 53.84 0 0 1 3.46-16.22q-4.86-.32-9.8-.46Zm-3.12 151.31c2 3.89 5.32 7.84 6 12.2a5 5 0 0 1-.3 2.67l16.39-.17c-2-3.06-3.62-6.55-5.58-9.5-3.4-5.09-7.35-9.82-10.67-15-3.65-.08-7.3-.14-10.94-.23 1.98 3.24 3.44 6.76 5.14 10.03Zm16.56-150.55c1.23 5.65 1.35 11.47 1.64 17.24.25 5.13 1.67 10.13-.54 14.49h1.1l7-.1c-.24-4.07.65-8.26 1.26-12.36.83-5.6 1.29-11.57 3-17-.44-.22-.87-.45-1.31-.69a.73.73 0 0 0-.09-.08c-3.07-.51-6-.81-7.94-1-1.33-.23-2.73-.38-4.12-.5Zm44.39 168.57q-14.28.92-28.57 1.73a4.47 4.47 0 0 1-5.06.31q-28.95 1.63-58 3c-28.38 1.27-56.85 2.9-85.3 3.94-.62.78-1.26 1.54-1.91 2.26-2.06 2.27-6 .68-6.49-2-8.46.27-16.92.5-25.36.62q.34 17 .85 33.95v.62c1.29-5.6 7.52-12.2 11-14.82 7.8-5.8 20.1-8 26.3 1 1.18 1.72-.27 4.09-2.12 4.38a9.27 9.27 0 0 1-.23 6.63c-2.16 4.92-7.47 7.15-12.25 8.66s-11.81 3.85-17 2.44c-3.21-.87-4.94-2.37-5.63-4.22 0 1 .07 2 .09 3 .06 1.71.11 3.43.16 5.13a3.2 3.2 0 0 0 4.37 2.11c5.56 1.29 13.1.35 18.81.44 9.76.19 19.51.25 29.26.27a228.13 228.13 0 0 0-6.9-31.74c-.93-3 1.55-5.53 4.38-5.74 42.29-3.3 85.14-5.93 127.57-5.61a5.06 5.06 0 0 1 5 5 176.57 176.57 0 0 0 3.76 38.36c20-.58 39.91-1.77 59.78-4q-1.33-14.1-2.68-28.21c-.17-2-2.16-17.42-2.78-25.64a124.86 124.86 0 0 1-29-.81 3.81 3.81 0 0 1-2.05-1.06Zm-1-3.58c-4.17-3.11-8-6.63-12.1-9.94-5.32-4.35-11.7-8.27-15.94-13.75-5.05-.1-10.11-.19-15.16-.3a79.85 79.85 0 0 1 7.89 8.55c3.68 4.53 8.66 9.63 9.5 15.58q12.9-.1 25.81-.14ZM265.61 92c1.81-.26 3.39 1.35 2.43 3.16-1.74 3.27-5.16 4.89-8.17 6.9-3.18 2.11-6.33 4.22-9.57 6.2-1 .61-3.73 2.58-6 3.12a3.74 3.74 0 0 1-5.17 1.07c-5.25-3.63-10-8-14.91-12.08-2.88-2.35-5.81-4.67-8.65-7.09.26 4.13-.13 8.57 0 12.31.22 7 1 14.13 0 21.06a3.61 3.61 0 0 1-3.86 2.94 5.17 5.17 0 0 1-.68 0 3.78 3.78 0 0 1-3.4-2.9c-1.15-6-.78-12.28-.88-18.4 0-3.11-.09-6.2-.15-9.31 0-1.65.66-7.14-.46-8.24-.66-.63-2.87-.7-4.91-.66a3.19 3.19 0 0 1-3.62 1.42 13.16 13.16 0 0 1-2.61-1.43l-6.51-.25c-6.23-.21-12.47-.42-18.7-.58-24.18-.67-48.49-1.9-72.69-1.27 3 13.86 3.46 29 3.08 43a3.48 3.48 0 0 1-.1.67 478.5 478.5 0 0 1 54.73-3.74c18.51-.08 37.66-.19 56.22 2.06l.66.08q5.46.66 10.83 1.63c18.3 3.32 30.77 23.07 39.1 38.27 1.74 3.17.29 7.65-3.47 8.54a129.36 129.36 0 0 1-20.69 3.2c.89 4.63.51 9.86.71 14.51.16 4.16.34 8.3.51 12.47 9.87 0 20-.67 28.21 5.61 16.12 12.3 29.35 30.59 40.35 47.42 2.54 3.9-.78 9.48-5.36 9.33-11.55-.36-23.09-.4-34.64-.46h-6.44c-.08 13.35 0 26.7 0 40a97.78 97.78 0 0 1 47.54 23.83c2.67 2.41 1.4 7.58-2.19 8.3-7.77 1.56-15.85 3-24 4 .65 4.17.78 8.39 1 10.44q2.63 24 5.22 48c.27 2.53-2.19 4-4.31 4.31-54.44 6.61-109.61 5.39-164.32 4-13.88-.34-27.78-.74-41.67-1.12-14.29-.38-28.75.12-43-.69-10.86-.62-9.29-11.3-9.75-19.65q-1.08-19.47-2.37-38.93c-6.54 1.28-13.11 2.29-19.72 3.33a2.59 2.59 0 0 1-2.5-4.28c8.12-10.1 16.17-20.26 24.68-30.05 6.77-7.81 14.52-9.16 24.34-10.39-.25-7.69-.39-15.38-.38-23.09 0-5.92-.35-12.3.09-18.45-1.56.23-3.11.46-4.66.65-8.87 1.12-18 2.23-26.93.89-1.94-.28-3-3.15-1.9-4.7 7-9.67 12.44-20.33 19.73-29.86 5.87-7.65 12.63-19 22.86-20.76a156.12 156.12 0 0 1 18.37-1.77c-.63-11.3.76-22.52 1.76-33.75.09-1.09.19-2.13.3-3.1-7.62 2.33-15.69 2.72-23.82 2.62a4.09 4.09 0 0 1-3.5-6.09c5.46-10.6 10.51-21.57 16.45-31.91 4.5-7.82 11.24-8.07 19.63-9.21 2.27-.31 4.53-.59 6.8-.89a3.24 3.24 0 0 1-.17-.57c-2.41-13-4.3-27.26-3.86-40.74-4.83 3-9.94 5.7-14.87 8.46C69.3 103 62.73 107.3 56 109.88 46.73 113.41 38.44 103 35.68 94a10.76 10.76 0 0 1-4-4.78c-.88-1.94 1-4.21 3-3C47.78 93.6 57 82.45 66 73.87c8.47-8.08 16.69-16.41 25-24.63S107.75 33 116.64 25.4q6.56-5.59 13.57-10.63c5.49-3.93 12-6.86 14.75-13.41a1.94 1.94 0 0 1 3.48-.45 8.23 8.23 0 0 1 .83 1.69c.48.54.95 1.07 1.43 1.59l-1.09 1c-.22 3.05-2.48 5.9-5 8-5.78 4.89-12.25 9-18.14 13.82-12.08 9.84-23.3 20.62-34.39 31.54C81.35 69.13 70.92 80.8 58.86 89.82c-4 3-10.49 5.91-16.28 6a22.12 22.12 0 0 0 4.42 4.86c6.45 4.93 12.3-.2 18.32-3.41 7.13-3.83 14.45-8.08 22-11.42l.06-.08c8.12-10 19.23-18.2 29-26.6 10-8.59 20.05-17 30.25-25.31a4.35 4.35 0 0 1 5.91 0 312.42 312.42 0 0 1 29 26.38A190 190 0 0 1 194.8 75.4c1.63 2.12 3.4 4.1 4.75 6.28 2.11 0 4.22.15 6.3.31 3.9.31 7.22 1.36 8.65 5.31a134 134 0 0 1 29.59 18.83 2.86 2.86 0 0 1 .48.51c1-1 1.94-2 2.54-2.46 1.69-1.32 3.37-2.63 5.1-3.89 3.12-2.25 6.72-5.77 10.52-7.41l.42-.17.21-.08a9.71 9.71 0 0 1 2.25-.63Zm1.63 166.81c7.69 0 15.36 0 23.05-.05a225.85 225.85 0 0 0-17.59-21.72c-3.72-4-7.5-8.09-11.61-11.74-5.86-5.22-13-4.32-20.41-4.43-26.72-.42-53.44-.85-80.17-.66s-53.44.51-80.1 1.66c-6.89.29-15.81-.64-22.4 1.37-5.38 1.65-9.78 8.37-13.29 12.47-7.35 8.61-15.64 18.56-20.86 29.07 6.51-.59 13.09-.69 19.59-1.44 2.36-.27 4.71-.6 7.06-1 .06-.24.1-.51.17-.77.71-2.8 5.18-3 5.93-.18 4.59-.71 9.17-1.44 13.79-1.93a2.62 2.62 0 0 1 .75 0c27.13-3.85 55.06-4 82.26-4.26 30.54-.29 61.08.72 91.52 3.29 7.44.01 14.95.34 22.31.36Zm25.94 76.2a85.43 85.43 0 0 0-24.12-12 76.1 76.1 0 0 0-9.23-2.25c.9.6 1.74 1.19 2.49 1.75 4.61 3.35 9.19 6.85 11.45 12.2a3.69 3.69 0 0 1 .25.86 4.72 4.72 0 0 1 4.33 1.32q7.45-.64 14.83-1.84Zm-41 2.73c3.51-.07 7-.07 10.52-.09-2.24-2.27-4.28-4.72-6.66-7-3.28-3.16-8.26-6.13-10.45-10.16a2.58 2.58 0 0 1-.35-1.33c-4-.22-7.92-.31-11.92-.38l-3.58-.07c2.7 1.73 5.27 3.64 7.67 5.38 5.59 4.06 10.76 8.23 14.77 13.69Zm-4.35-28.84c-.09-12.2-.15-24.39-.31-36.59-23.74-1.6-47.48-3-71.26-4.1q-10.75-.5-21.53-.87c-7.35-.26-14.71-.4-22.09-.46-11.78-.12-23.57-.11-35.36-.29-9.65-.15-19.28-.4-28.88-1a89.11 89.11 0 0 1-11 3.08c.27 6.62-.52 13.51-.87 19.91-.4 7.53-.94 15-1.61 22.48q14.24-1.63 28.49-2.57l1.91-.12c12.47-.81 25-1.27 37.44-1.5 12.89-.23 25.78-.21 38.68-.05 9.89.09 19.77.28 29.66.5 18.69.47 37.99-.16 56.73 1.62Zm-.36-140.11A114.79 114.79 0 0 0 236 153.58c-2.8-3.08-5.84-6.83-9.61-8.7-4-2-9.14-2.21-13.53-2.81-19.37-2.59-38.44-5.16-58-5.4A470 470 0 0 0 96 139.52c-4.75.55-9.89.93-14.56 2.11-5.81 1.47-7 5.21-9.55 10.24Q66.8 162 61.74 172.17c6.4-.31 12.76-1 19.17-1.24 1.42-2.22 3.83-3.54 8.2-3.73C111 166.25 133 166 155 165.46c21.19-.57 44.33-3.44 65 2.52a63.52 63.52 0 0 1 6.56 2.23c1.95.12 3.89.2 5.81.16a103 103 0 0 0 15.1-1.54Zm-22.31 39.81c-.11-3.28-.21-6.55-.32-9.83-.12-3.73.62-9.35-.43-12.92a7.39 7.39 0 0 0-3.77-4.12c-1.1-.13-2.18-.31-3.24-.52.54 4.95.1 10.11 0 15-.06 3.92.21 8.35-.54 12.4 2.79.02 5.55-.01 8.3-.01Zm-15.4 197a256.64 256.64 0 0 1-3.68-33.42c-18.07.83-36.14 1.45-54.21 2 .73 6 .46 12 1.44 18 .77 4.62 2.72 8.83 2.12 13.43 18.1.29 36.23.39 54.33.02Zm-26.62-324h4.17c-.29-.4-.61-.8-.92-1.18-4-4.92-8-9.83-12.26-14.55a238.41 238.41 0 0 0-24.59-23.57q-8.78 7.56-17.65 15l-.41.34q-5 4.26-10.16 8.43c-6.47 5.29-13 11.21-19.88 16.4 13.25 0 26.5-.29 39.74-.52 13.98-.27 27.96-.49 41.96-.33Zm-4.45 261.06c-2.33-3.41-3.33-7.83-4.52-11.73-1.28-4.27-2.66-8.87-2.74-13.36l-15.77-.33a1.38 1.38 0 0 1 .08.29 113.41 113.41 0 0 1 1.35 13c.34 4.17.91 8.35.26 12.47l21.34-.32Zm-30.05-25.13a4.26 4.26 0 0 1 .11-.42c-5.16-.08-10.31-.18-15.46-.23a53.34 53.34 0 0 1-.9 7.26c-.89 6.21-1.16 13.65-4.7 19-.12.18-.26.32-.38.49q10.56-.18 21.1-.39c-.92-4.11-.53-8.43-.42-12.64a109.09 109.09 0 0 1 .65-13.05Zm-15.5 87.84 13.24.19c-1.82-4-1.78-8.81-1.86-13.28-.11-5.89.21-12.29 2.27-17.88-19.25.63-38.51 1.25-57.75 2.06a121.07 121.07 0 0 1 3.69 28.37v.31c13.45.05 26.93.05 40.41.25Zm-8.28-88.56q-8.61-.06-17.21 0a146.32 146.32 0 0 1-6.25 16.83c-1.41 3.28-2.55 7.21-4.38 10.48q11.87-.22 23.72-.4a5 5 0 0 1-1.2-2.8c-.5-5.09 1.58-10.16 2.8-15.05.66-2.79 1.9-5.97 2.52-9.04Zm-31.11 13.8c2.46-4.57 4.85-9.23 7.41-13.75-5.34.05-10.66.15-16 .29a1.89 1.89 0 0 1 .23 1.1c-.88 6.89-5.62 13-9 19-1.35 2.4-2.69 4.93-4.11 7.43 4.89-.14 9.78-.23 14.66-.33.64-4.91 4.52-9.43 6.81-13.74Zm.21-155h-2.22c-3.19 0-4.08-.57-4.83 2.74-1 4.16-1 8.77-1.48 13a176.52 176.52 0 0 1-3.71 23.11c3.4-.16 6.79-.34 10.14-.58-1.85-5.38-1.08-12.43-.9-17.58.21-6.46.16-14.57 3.04-20.73Z" fill="#e57885" data-color="1"/>
            <path d="M240.55 373.59a3.14 3.14 0 0 1-2.84-.51 14.47 14.47 0 0 0-1.81 1.44c-4.35 4.12-3.55 10.23 3.26 9.73 3.94-.28 12.2-1.57 13-6.52 1.11-6.97-7.95-5.31-11.61-4.14Zm19.22 0c3 10.09-7.06 16.47-15.61 17.64-4.81.67-10.31 1.27-14.26-2.18a10.37 10.37 0 0 1-3-9.91c1.11-5.25 4.76-8 9.18-9.7a2.8 2.8 0 0 1 1.06-1.78c7.38-5.79 19.7-4.06 22.63 5.93Z" fill="#e57885" data-color="1"/>
            <path d="M203.58 283.75a2.82 2.82 0 0 1-.71.23c-.28 0-.63.09-1 .13a8.37 8.37 0 0 1-2.53.95 3.15 3.15 0 0 1-2.1-.35 2.84 2.84 0 0 0-.35.13c-1.29-.46-1.67.06-1.15 1.52v1.58c0 2-.41 4.39-.06 6.32.47 2.47 1.37 2.43 3.7 2.46 1.28 0 5.05.21 6-.8.6-.68-.42-4.27-.6-5.35-.45-2.27-.78-4.57-1.2-6.82Zm8.6 6.52c.51 3.06 1.68 6.8-.11 9.67-3 4.88-12.8 5-17.57 3.71-7.32-2-6.17-9.77-6.07-15.71.06-3-.28-6.7 2.5-8.7 1.84-1.31 4.58-1.49 7.16-1.41a16.38 16.38 0 0 1 7.3-3.65c1.79-.44 4.21.6 4.56 2.61.79 4.49 1.5 8.98 2.23 13.48Z" fill="#e57885" data-color="1"/>
            <path d="M149 98.85c5.88-4.29 14.28-3.53 21.44-1.79a4.42 4.42 0 0 1 6.42 5.74c-1 2 .36 5.52.09 7.78-.34 2.8-1.5 5.35-4.17 6.62-3.69 1.79-9 .49-12.88.06s-9.71-.29-12.91-2.8c-5.24-4.16-2.65-12.2 2.01-15.61Zm19 10.61a30 30 0 0 0-.5-3.75 12.93 12.93 0 0 1 .65-5.57c-4.27-.29-8.69-.28-12.36 1-1.61.55-4.51 2-5.08 3.88.3 1.44.61 2.87.91 4.32.69 0 1.39-.06 2.08-.07 2.51.5 5.76-.2 8.34-.17 1.4 0 3.83-.29 5.22.1a4.55 4.55 0 0 1 .74.26Z" fill="#e57885" data-color="1"/>
            <path d="M169.44 296c.62-.05 2.31 0 3.69-.06 0-2.77-1-6.35-1.18-8.39-.31-3.27-.73-6.55-.89-9.85-2.31.72-4.64 1.38-6.91 2.15-1.8.6-4.75 1.15-5.68 3.09-.52 1.12.2 3.92.3 5.09.17 2.11 0 5.08 1 7s1.34 1.47 3.41 1.5 4.25-.39 6.26-.53Zm12.13-5.35c.34 3.76 2 9.11-1 12.23-2.58 2.71-7.78 2.12-11.12 2.39-2.3.18-5.2.69-8 .69a10.8 10.8 0 0 1-6-1.42c-3.47-2.3-3.67-6.66-3.94-10.4-.3-4.23-1-9.78.75-13.78 1.53-3.51 5.12-4.24 8.53-5.15a55.83 55.83 0 0 1 10.53-1.89 4.92 4.92 0 0 1 4.78-2.6 3.74 3.74 0 0 1 3.65 3.2c1.08 5.46 1.32 11.14 1.82 16.7Z" fill="#e57885" data-color="1"/>
            <path d="M256.43 91.29c2.75-.81 4.77-1 6.84 1a.28.28 0 0 1 .09.24v.07l-.21.08-.42.17c-4.22-2.54-9.65 4-14.29 3.91-5.18-.06-10.24-4.93-14.24-7.74a364.3 364.3 0 0 1-32.15-25.12c-10.83-9.63-21.61-19.63-31.12-30.57-7.77-8.94-14.39-18.63-21.32-28.18l1.09-1c8.3 9.3 17.47 17.66 26.3 26.45 9.76 9.73 19.39 19.51 29.7 28.67 10.55 9.37 21.19 18.67 32.3 27.39 2.57 2 6.89 6.69 10.18 6.9 2.46.15 4.97-1.56 7.25-2.27Z" fill="#e57885" data-color="1"/>
            <path d="M146.41 58.44a9.18 9.18 0 0 1 11.7 11c-1.66 7.66-9.5 11.86-16.94 11.86a19.5 19.5 0 0 1-3-.23c-8.77-1.37-10.92-13.55-6.16-19.91a7.92 7.92 0 0 1 1.27-1.33l.4-.33c3.61-2.77 9.82-3.98 12.73-1.06ZM148 62.1a2.36 2.36 0 0 1-2.34 2.34c-2.91.08-6.08-1.9-8.17 1.23a5.36 5.36 0 0 0 4.71 8.48c3.86-.19 8.34-1.82 9.47-6 .84-3-.86-6.6-3.88-7.22a5.56 5.56 0 0 1 .21 1.17Z" fill="#e57885" data-color="1"/>
            <path d="M131.69 203.37a2.3 2.3 0 0 1-.48 3.58 6.09 6.09 0 0 1-2.74.77c-7.82 0-4.13-23.92-2.7-31.8h2.78c.81 4.59 1.24 9.17 1.64 13.85.24 2.95-.88 11.52 1.5 13.6Z" fill="#e57885" data-color="1"/>
            <path d="m124.38 113.53.51-.22a37.1 37.1 0 0 1-.38-7.89c-3.5 1-7 1.88-10.63 2.67 0 1 .07 1.9.08 2.85 0 1.25.41 3.18 0 4.32v.12c1.3-.69 3.72-.66 5.15-.92s3.67-1.04 5.27-.93Zm8.26-10.66c1 4.08 1.75 11 0 15-2 4.59-9.36 4.13-13.55 4.78-4 .61-9.8 2.42-12.13-2.23-1-2-.7-4.4-.66-6.58q.09-4.31.31-8.62a3.74 3.74 0 0 1 3.61-3.62c4.93-.54 10-1.45 14.94-1a3 3 0 0 1 1.09.34c2.1-1.69 5.62-1.31 6.39 1.93Z" fill="#e57885" data-color="1"/>
            <path d="M111.41 275.1c3-6 15.34-4.93 20.8-6a2 2 0 0 1 .41 0 1.82 1.82 0 0 1 1.79 1.74c4.66.13 7 3.29 7.66 7.66a76.54 76.54 0 0 1 .27 18.83c-.61 5.47-4.39 6.88-9.41 7.47a86.45 86.45 0 0 1-10.18.69 46.9 46.9 0 0 1-8.37-.7 4.73 4.73 0 0 1-3.47-4.55c.3-5.3-.09-10.66-.24-16-.07-2.94-.67-6.41.74-9.14Zm8.28 20.21c4 0 8.19.15 12.06-.63.06-1.11.18-2.37.18-2.56v-4.66c0-2 1-7.59-.72-9a4 4 0 0 1-.69-5.29c-4.49 1.15-11.57 3-12.45 5.8-.74 2.28.72 7.31 1 9.82.21 2.21.38 4.35.62 6.52Z" fill="#e57885" data-color="1"/>
            <path d="M112.58 210.55a2.43 2.43 0 0 1-1.77 1.12h-.29A1.92 1.92 0 0 1 109 211c-3.49-4.31-2.47-9.66-2.14-15a127.79 127.79 0 0 1 2.73-18.56 1.11 1.11 0 0 1 1.13-.91 1.32 1.32 0 0 1 1.36 1.25c0 6.09.45 12.15.92 18.22.38 5 2.12 10-.42 14.55Z" fill="#e57885" data-color="1"/>
            <path d="M100.12 273.7a70.61 70.61 0 0 1 1.46 25.38c-.21 1.81-1.17 3.82-3.21 4.21a116.76 116.76 0 0 1-13.23 1.92l-1.91.11c-1.49.05-3 .05-4.43 0a4.11 4.11 0 0 1-4-4c.22-5 .19-10.07.3-15.09 0-2.7 0-5.55 1.48-7.93 3.62-5.81 14.24-7.51 20.32-8.92a2.45 2.45 0 0 1 .38 0 1.77 1.77 0 0 1 1.62 2.25 4.18 4.18 0 0 1 1.22 2.07Zm-7 21.68A85.65 85.65 0 0 0 91.93 276a7.06 7.06 0 0 1-.07-.78c-4.46 2.07-9.21 4.73-10.07 8.31-.59 2.42.31 6 .44 8.51.1 1.59.19 3.2.28 4.79 3.54-.47 7.08-.83 10.62-1.45Z" fill="#e57885" data-color="1"/>
        </g>
    </g>
</svg>
