<?xml version="1.0" encoding="UTF-8"?>
<svg data-bbox="0.001 -0.001 178.872 123.21" viewBox="0 0 178.89 123.24" xmlns="http://www.w3.org/2000/svg" data-type="color">
    <g>
        <g>
            <path d="M110.14 67.22c-.24 3-.55 5.9-.89 8.84 8.12-.2 16.23-.36 24.36-.42h3.25c.07-.29.13-.58.21-.87.7-2.85 1.28-5.81 2.16-8.63A3.31 3.31 0 0 1 138 66a269.42 269.42 0 0 1-27.86 1.22Zm-1.72 0c-7.46 0-14.94-.32-22.39-.69a70 70 0 0 1-.39 10.12l5.06-.13 15.64-.39c.66-2.98 1.32-5.96 2.08-8.91Zm-94.37 40.3c.92 2.58 1.59 3.33 4.32 3.89a47.57 47.57 0 0 0 6.43.43l4.64.27c-.29-3.21.28-6.68.38-9.76v-.57c-6.07-.42-12-1.43-18-2h-.12c.67 2.54 1.44 5.15 2.35 7.74Zm-2.76-9.35a.87.87 0 0 1 .51-.17c6.1-.41 12.11-1.22 18.22-1.48.1-2.78.19-5.57.28-8.35.07-2.05.08-4.16.1-6.29-2.1-.15-4.2-.3-6.29-.49-5.33-.47-10.92-.74-16.25-1.83a189 189 0 0 0 3.43 18.61Zm-4-22.55c6.1 0 12.31.81 18.37 1l4.81.18a46.16 46.16 0 0 1 2-13.26l-11.95-.66c-4.78-.27-10.18 0-15.13-.69.74 4.49 1.32 8.96 1.93 13.43Zm43.79 20.61h7c.07-1.71.15-3.43.2-5.14.08-2.74.1-5.49.11-8.23q-6-.08-12.08-.25c-3.76-.12-7.5-.26-11.25-.47.14 2.81.28 5.62.33 8.37 0 1.95.07 3.91.1 5.86 5.17-.09 10.39-.15 15.59-.14Zm126-18.83c2.16.74 2.61 4.31 0 4.83a16.44 16.44 0 0 1-1.85.25 102.49 102.49 0 0 1-4.88 15 3.43 3.43 0 0 1-1.46 3.8c-2.27 5.92-4.38 11.89-5.13 18.17-.24 2-1.54 3.73-3.74 3.74-15.84.06-31.7 0-47.53-.45q-15-.47-29.93-1.18a2.9 2.9 0 0 1-1.84-.08q-26.36-1.26-52.72-3.3c-4.72-.37-12 .39-15.91-2.71-4.19-3.29-4.84-10.62-5.94-15.41C3.31 87.63.86 74.25 1.72 61.45l-.66-.2c-1.3-.42-1.52-2.54 0-2.85 6.13-1.28 13.27.09 19.5.44L41.26 60q13.26.72 26.49 1.49a10.64 10.64 0 0 1-.31-2.75C65 58.28 62.8 57 60.59 56c-2.73-1.27-5.44-2.59-8-4.11A37.3 37.3 0 0 1 40 40.57c-2.88-4.33-4.7-9.28-6.43-14.17-2-5.67-4.47-10.89-6.9-16.35-1.54-3.49-.9-7.26 2.68-9.12 4.37-2.28 10 .16 14.24 1.67C59.6 8.34 77.19 21.42 80.11 39c4.69-2.15 9.83-3.12 13.85-2.37a14.09 14.09 0 0 1 3.63 1.21 19.88 19.88 0 0 1 4.61-7.41 162.55 162.55 0 0 1 12-11.51c8.13-7.19 17.37-13.25 28-16a2.52 2.52 0 0 1 3.14 2.39 49.79 49.79 0 0 1-10.08 37 50 50 0 0 1-13.92 12.14c-4.24 2.5-10.83 6.29-15.87 5.1a1.9 1.9 0 0 1-.89-.53 16.85 16.85 0 0 1-2.45 4.28c11.29.43 22.59.55 33.84-.08a2.45 2.45 0 0 1 2-2.5c9.05-2.45 19.57-4 29-3.15 7.73.72 9.28 8.46 9.41 15a40.52 40.52 0 0 1-.18 4.56 8.07 8.07 0 0 1 .9.27Zm-8-1.05a30.23 30.23 0 0 0 .18-5 20.53 20.53 0 0 0-.53-4c-.58-2.3-1.19-2.74-3.53-3.12-3.94-.64-8.61 0-12.56.31-3.42.28-6.85.73-10.26 1.21-.38 3.35-1.27 6.69-1.91 10 5.12 0 10.24.08 15.36.22 3.7.11 7.41.25 11.11.44Zm-5.47 18.93a119.2 119.2 0 0 0 4.34-13l-1-.06c-3.7-.16-7.41-.28-11.11-.37-5.51-.13-11-.18-16.55-.17-.52 2.62-1 5.22-1.58 7.83-.44 2.08-.85 4.16-1.28 6.24q13.57-.18 27.18-.47Zm-6.68 20.46a87.57 87.57 0 0 1 4.17-13.87q-13 .3-26 .5c-.12.58-.25 1.16-.36 1.75-.76 3.77-1.26 7.75-2.28 11.51q12.23.12 24.47.11Zm-26-76.43a45.19 45.19 0 0 0 9.67-30.78c-8.25 2.56-15.44 7.25-22.16 12.69-3.68 3-7.24 6.11-10.75 9.29-2.84 2.57-6.17 5.29-7.53 8.91a15.44 15.44 0 0 1 4 4.79c1.74-1.83 4-3.07 6.15-4.48q4.18-2.8 8.35-5.66c1.63-1.11 3.66 1.53 2.11 2.75q-3.94 3.12-7.85 6.29c-2.29 1.87-4.46 4.09-7.27 5.11a14.79 14.79 0 0 1 .34 2 16.78 16.78 0 0 1-.34 5.1 33.24 33.24 0 0 1 5.65-2.09 44.67 44.67 0 0 0 7.31-3.43 44.77 44.77 0 0 0 12.29-10.49Zm4.48 42.4h-1.77c-8.38.06-16.77.24-25.15.44-.45 3.3-.94 6.59-1.43 9.89-.21 1.34-.39 2.68-.59 4q12.84-.07 25.65-.25c.55-2.22 1.09-4.43 1.57-6.6.52-2.48 1.1-4.98 1.69-7.48Zm-7.29 33.86a96.93 96.93 0 0 1 2.37-13.13q-12.47.18-24.93.28c-.57 4.15-1.17 8.31-1.92 12.42q12.2.29 24.45.43Zm-23-33.34-15.18.38-4.6.11c-.14 3-.28 6.1-.37 9.14-.05 1.43-.06 2.85-.06 4.29h4.7q6.45 0 12.9-.06c.22-1.16.44-2.31.65-3.46q.92-5.21 1.92-10.4ZM93.91 62.91c2.23-4 6.11-6.27 6.07-11.53a9.89 9.89 0 0 0-8.33-9.89c-3-.43-7.2.32-11.13 1.95a30.94 30.94 0 0 1-.42 5.86c-.49 3-5.24 2.2-5.21-.7v-2l-.13.1a22.86 22.86 0 0 0-3.66 5c-1.75 3.55-1.13 6.57.31 10l10.33.58q6.06.33 12.17.63ZM99 115c.61-4.11 1.39-8.2 2.18-12.29-3.86 0-7.72.06-11.59.07h-4.67c0 4 .1 7.91-.06 11.83 4.7.17 9.42.3 14.14.39ZM81.55 76.71A71 71 0 0 1 83 66.37c-7.39-.38-14.78-.8-22.16-1.21.57 4 1 8 1.25 12 6.48-.08 13-.24 19.47-.4Zm-1.28 14.36c.21-2.76.45-5.52.7-8.28-6.19.1-12.37.15-18.56.11q.18 4.09.27 8.19c0 1.71 0 3.42.07 5.13l17.09-.06c.16-1.71.3-3.41.43-5.09Zm-1.45 23.38c-.06-3.85.15-7.75.45-11.65-5.51 0-11-.08-16.54-.14v2.79c-.05 2.72 0 5.59-.17 8.38 5.44.22 10.83.44 16.26.62Zm-11.5-60c0-4.73 3-9 7.2-12.16A38.36 38.36 0 0 0 61.7 18a59.38 59.38 0 0 0-14.85-9.59 79.43 79.43 0 0 0-8.05-3.22 19.42 19.42 0 0 0-5.1-1.34 2.17 2.17 0 0 0-2.27.52 28 28 0 0 1 8.71 8.14c.94 1.4-1 3.43-2.39 2.39a33.77 33.77 0 0 1-7.67-8.2 2.11 2.11 0 0 0 .65 2.44 118.74 118.74 0 0 1 6.16 13.72c1.88 5.1 3.67 10.34 6.72 14.88a36.5 36.5 0 0 0 12.25 11c3.4 2 8.01 3.42 11.46 5.74ZM58.35 65l-17.09-1-6.16-.34A87.17 87.17 0 0 0 34.78 77c4.36.12 8.71.21 13.07.24h10.51c-.02-4.1-.05-8.16-.01-12.24Zm-.64 37.58-7.43-.1c-4.9-.07-9.82-.19-14.73-.41l.05 2.63a62.91 62.91 0 0 1 .12 7.77h.33c6.89.39 13.8.73 20.69 1 .14-3.24.69-6.55.9-9.7.02-.33.04-.77.07-1.17Z" fill="#e57885" data-color="1"/>
            <path d="M90.83 46.85c.82-1.93 3.9-.52 3.33 1.41a10.73 10.73 0 0 1-3.54 5c-1.65 1.42-3.83 2.8-3.83 5.2 0 3.3-5 3.28-5.1 0a8.29 8.29 0 0 1 3.41-6.44c2.01-1.63 4.66-2.63 5.73-5.17Z" fill="#e57885" data-color="1"/>
            <path d="M70.5 44.12a2.24 2.24 0 0 1-1.65 2.16c-4.78 1.37-9.63-5.56-12.14-8.85-3.62-4.77-5.47-12.33-10.61-15.67a1.37 1.37 0 0 1 1.38-2.36c5.37 2.48 7.72 8 11.32 12.37a41.28 41.28 0 0 0 6.86 6.61c2.43 1.83 4.46 2.55 4.84 5.74Z" fill="#e57885" data-color="1"/>
        </g>
    </g>
</svg>
