<?xml version="1.0" encoding="UTF-8"?>
<svg data-bbox="0.035 -0.001 559.456 354.675" viewBox="0 0 559.48 354.68" xmlns="http://www.w3.org/2000/svg" data-type="color">
    <g>
        <g>
            <path d="M458.06 24.78a1.8 1.8 0 0 1-2.65.38 2.48 2.48 0 0 1-.9-3C462.22 4.64 483.16-2.2 501.15.61c18.59 2.92 34.07 16.52 44.85 31.23 12.35 16.88 17.44 37 10.08 57.16-6.63 18.13-21.91 31.88-39.94 38.29-15.43 5.5-37.21 5.39-48.36-8.08-18.75 19.32-58.33 20.8-71.51-4.37-20.11 12.55-53.53 9.32-56.77-17.66-3.2-26.57 21.06-41.27 44.08-39.56.84-9.15 6.76-16.63 13.41-23.1 7.95-7.74 17.26-14.57 28.44-16.46 10.69-1.8 21.11 1.31 29.87 7.27a57 57 0 0 1 22.12 30c1.51 5.08-5.11 7.52-8 3.65-10.48-14-20.8-32.12-41-31.5-9.44.28-17.86 5.83-24.85 11.77-6 5.06-12.29 11.38-14.4 19.11a43.06 43.06 0 0 1 13 4.7c1.89 1.06.73 4.41-1.42 3.64a63.85 63.85 0 0 0-12.51-3.14 2.38 2.38 0 0 1-4.46-.44 40.17 40.17 0 0 0-19.29 3.45c-10.72 5-18.28 15.55-17.52 27.64.43 7 3.73 13.42 10.87 15.38a41.4 41.4 0 0 0 15.76.82c10.69-1.28 19.22-7.5 27.64-13.69 4-2.92 9 2.37 6.77 6.38a31.09 31.09 0 0 1-6.42 7.84 37.11 37.11 0 0 0 28.85 10.44c14.42-.9 24.14-10.24 35.85-17.26a5.44 5.44 0 0 1 8 5.88c14.79 14.62 37.27 10.32 53.34-1.53 16.52-12.18 25.06-33.88 18.05-53.68-6.26-17.66-21.46-34.69-38.87-41.84-17.27-7.06-37.09-3.13-48.75 11.83Z" fill="#e57885" data-color="1"/>
            <path d="M371.66 268a.5.5 0 0 1 0-1 .5.5 0 0 1 0 1Z" fill="#e57885" data-color="1"/>
            <path d="M214.75 242.57c2.18 7 4.21 21.6 14.71 19.67 3.85-.7 6.42-3.74 8.58-6.72 4-5.43 7.67-11 11.5-16.54q8.45-12.15 16.89-24.28 13.2 19.17 28.18 37c2.5 3 8.17 1.1 8.78-2.59a229.08 229.08 0 0 0 3.06-39.47c1.19.94 2.41 1.84 2.85 2.2 2.79 2.25 5.52 4.54 8.23 6.88 5.11 4.42 10.06 9 14.91 13.72 8.21 8 16.25 15.63 27.54 18.81 4.86 1.36 8-3.4 7.21-7.63a301.08 301.08 0 0 1-4.26-34.59q22.49 26.94 45.28 53.65c11.71 13.7 23.81 27 37.24 39.11 10.45 9.38 21.46 18.05 32.67 26.5-59.07-1-118.07.92-177.14 2.56-62.43 1.73-124.89 3.07-187.33 5.39-17.45.65-34.92 1.17-52.38 2.16-8.22.47-16.41.82-24.58 1.43A198.49 198.49 0 0 0 61 326.62c18.14-11.46 34.81-25.47 50.93-39.57a654.17 654.17 0 0 0 47.59-46c2.73-2.91 5.43-5.88 8.12-8.86 14.06-3.49 27.1-10 39-18.17q3.67 14.37 8.11 28.55ZM371.66 268a.5.5 0 0 0 0-1 .5.5 0 0 0 0 1Z" fill="#e57885" data-color="1"/>
            <path d="M230.64 48.53c12.57 16.4 19.43 36 11.41 55.87-6.61 16.4-20.44 30.78-38.05 34.89-14.07 3.29-31.34-.47-40.09-12.46-6 7.59-14.75 13.19-23.93 14.37-16.59 2.15-32.53-10.86-38.75-25.48s-3.08-32.71 8.51-44a36.59 36.59 0 0 1 40.89-6.88c.51-7.34 5.43-14.82 9.91-20.07a54.61 54.61 0 0 1 23.6-15.88c19.55-6.73 34.99 4.65 46.5 19.64Zm-18.89 75c15.09-9.71 26.19-29.68 20.41-47.51-4.88-15.09-19.92-40-38.65-37.77-8.24 1-16.43 5.68-22.29 11.39a38.31 38.31 0 0 0-7.42 10c-1.81 3.54-2.35 7.54-4.42 10.93-1.9 3.09-7.22 3.17-8.32-.69-12.75-6-28.7-3.34-38.17 7.39a33.46 33.46 0 0 0-5.2 36c5.69 12.09 20 23.06 33.8 17.82 13.26-5 16.41-18.5 24.28-28.69 2-2.57 6.23-.54 6.27 2.39a33.67 33.67 0 0 1-5 17.46c13.77 8.65 30.41 10.52 44.71 1.32Z" fill="#e57885" data-color="1"/>
            <path d="M229.46 262.24c-10.5 1.93-12.53-12.69-14.71-19.67q-4.44-14.17-8.1-28.58c-11.87 8.21-24.91 14.68-39 18.17-2.69 3-5.39 6-8.12 8.86a654.17 654.17 0 0 1-47.59 46c-16.09 14.13-32.76 28.14-50.94 39.6a198.49 198.49 0 0 1-24.35 13.25c8.17-.61 16.36-1 24.58-1.43 17.46-1 34.93-1.51 52.38-2.16 62.44-2.32 124.9-3.66 187.33-5.39 59.07-1.64 118.07-3.53 177.14-2.56-11.21-8.45-22.22-17.12-32.67-26.5-13.43-12.06-25.53-25.41-37.24-39.11q-22.79-26.72-45.24-53.65a301.08 301.08 0 0 0 4.26 34.59c.78 4.23-2.35 9-7.21 7.63-11.29-3.18-19.33-10.84-27.54-18.81-4.85-4.72-9.8-9.3-14.91-13.72-2.71-2.34-5.44-4.63-8.23-6.88-.44-.36-1.66-1.26-2.85-2.2a229.08 229.08 0 0 1-3.06 39.47c-.61 3.69-6.28 5.58-8.78 2.59q-14.94-17.9-28.18-37Q258 226.82 249.54 239c-3.83 5.5-7.54 11.11-11.5 16.54-2.16 2.96-4.73 6-8.58 6.7Zm260.26 66.32c7.63.18 7.93 11.21.33 11.82-35.32 2.81-70.61 4.54-106 5.91-62.42 2.41-124.9 3.63-187.33 5.42-31.44.9-62.88 1.78-94.33 2.4-15.73.29-31.44.57-47.18.56-15.43 0-30.6.21-45.89-2.12a4.13 4.13 0 0 1-3.36-3.49c-.75 0-1.5 0-2.23-.11-3.77-.36-5-4.46-2.06-6.83 7.91-6.38 18.76-9.81 27.61-14.85 8.58-4.87 17-10 25.18-15.59a525.41 525.41 0 0 0 48.69-37.84q23.64-20.61 45.25-43.39 10.57-11.14 20.63-22.8c3.6-4.18 7.18-8.38 10.69-12.63 2.09-2.53 4.08-5.34 6.24-7.91a166.14 166.14 0 0 1 11.76-17.7c3.53-4.76 6.31-8.14 12.47-8.8 15-1.59 30.84-.1 45.86.89 15.76 1 31.54 2.29 47.28 3.62 7.65.64 15.29 1.37 22.94 2.09 2.3.21 4.8.2 7.15.53 1.49-2.25 4.48-3.31 6.67-.69q8.46 10.14 16.85 20.34a5.28 5.28 0 0 1 5.33 5.4v1.1c17.22 20.92 34.35 41.92 51.63 62.78 11.77 14.22 24 28.05 37.54 40.58 11.93 11 24.61 21.11 37.24 31.29Zm-139-134.16-15.63-18.8c-3.17.44-6.74-.21-9.87-.36-6.78-.32-13.57-.6-20.35-1-13.63-.69-27.22-1.65-40.85-2.39-14.1-.76-28.24-1.3-42.36-.94-3.13.09-7.27-.41-10.27.45-3.26.93-5 4.85-6.89 7.44-1.12 1.57-2.26 3.08-3.43 4.6a6.72 6.72 0 0 1 .38 7c-4.36 9.32-13.26 18-19.86 25.81l-.79.91a162.55 162.55 0 0 0 26.33-16.57c2.62-2 7.11-.13 7.85 2.95 2.16 8.85 4.4 17.66 6.92 26.43q2.08 7.16 4.32 14.24c.5 1.55.83 4.91 1.92 5.92.21 1.31.37 1.58.48.77l1.8-2.47c10.66-15.05 21-30.35 31.5-45.52 2.24-3.23 6.72-3.78 9.05-.25q11.21 16.74 23.72 32.51a220.76 220.76 0 0 0 1.15-32.64 5.14 5.14 0 0 1 2.46-4.59c5.76-2.73 9.85-.34 14.62 3.2q8.63 6.41 16.84 13.35c7.67 6.5 15.17 15.28 24.07 20.85a318.65 318.65 0 0 1-3.14-40.9Z" fill="#e57885" data-color="1"/>
        </g>
    </g>
</svg>
