<?xml version="1.0" encoding="UTF-8"?>
<svg data-bbox="0 0 127.35 127.57" viewBox="0 0 127.32 127.54" xmlns="http://www.w3.org/2000/svg" data-type="color">
    <g>
        <g>
            <path d="M69.77 74.71c-11.25 4.92-19.49-8.55-14.5-16.82-9.37-5.23-22.88-12.55-29.3-15C19.26 40.37 0 53.73 0 53.73l12.45 13.39-10.62 13s23.38 12.48 29.9 8.77C36.92 85.93 47.05 78.14 54.81 72c-7.35 7.47-16.7 17.25-20.44 22.35-4.24 5.78 3.48 27.92 3.48 27.92l16.23-8.42 9.67 13.72S82 108.36 80.21 101.08c-1.44-5.75-6.18-17.46-10-26.57-.21.07-.29.14-.44.2Z" fill="#dd9b9b" data-color="1"/>
            <path d="M55.4 57.7a11.94 11.94 0 0 1 11.81-5.06c1.92-10 4.41-23.85 4.63-30.23C72.1 14.92 50.19 0 50.19 0l-6.58 15.44L26 10.63s-2.88 23.26 2.47 28c5.12 4.6 17.94 13.2 26.93 19.07Z" fill="#dd9b9b" data-color="1"/>
            <path d="M121.39 28.53 104.67 27l-.85-18.27s-23 4.42-25.9 11-7.42 22.61-10.22 33c9 2.27 13 16.67 2.56 21.73 4.36 8.8 10 19.76 13.37 24.54 4.32 6.13 30.79 4.81 30.79 4.81l-4.07-16.28 17-6.8s-11.72-20.3-18.87-20.86c-6.37-.5-20.1.21-30.61.9 9.93-1.23 23-3.06 28.9-4.74 7.23-2.03 14.62-27.5 14.62-27.5Z" fill="#dd9b9b" data-color="1"/>
        </g>
    </g>
</svg>
