<?xml version="1.0" encoding="UTF-8"?>
<svg data-bbox="0 0 69.205 103.78" viewBox="0 0 69.21 103.76" xmlns="http://www.w3.org/2000/svg" data-type="color">
    <g>
        <g>
            <path d="M51.94 54.52c.54-.05.93-.26.9-.89-.47-.32-1.14.5-.9.89Z" fill="#f5ac3b" fill-rule="evenodd" data-color="1"/>
            <path d="M56.32 27.32c.46.32.94-.15 1-.56a.65.65 0 0 0-1 .56Z" fill="#f5ac3b" fill-rule="evenodd" data-color="1"/>
            <path d="M53.51 28.33a.9.9 0 0 0 1.24-.45c-.38-.21-1.36-.21-1.24.45Z" fill="#f5ac3b" fill-rule="evenodd" data-color="1"/>
            <path d="M48.34 29.12c.3.34 1.65.38 1.69-.23-.19-.58-1.7-.42-1.69.23Z" fill="#f5ac3b" fill-rule="evenodd" data-color="1"/>
            <path d="M46.21 29.12c.58-1.68-1.71-.23 0 0Z" fill="#f5ac3b" fill-rule="evenodd" data-color="1"/>
            <path d="M50 55.87c.47.06.69-.13.78-.45a.47.47 0 0 0-.78.45Z" fill="#f5ac3b" fill-rule="evenodd" data-color="1"/>
            <path d="M68.8 25.18c-.31-4.06-.07-8.65-1.35-11.58-.34-.78-1.33-1.4-1.8-2.25-.17-.31-.16-.79-.33-1.12s-.48-.46-.68-.79c-.49-.77-.53-1.48-1.12-1.91-2-1.43-4.85 0-6.75.11-2.3.11-4.53-.56-7-.22a8.55 8.55 0 0 0-2 .67c-2.87 1.37-5.57 4-6.3 6.19a5.45 5.45 0 0 0-.32 1.72c0 .64.38.73.45 1.35a19.93 19.93 0 0 1-.45 4.05c-1.25 9.85-1.45 19.47.67 29 1.66 7.46 3.23 14.93 4.84 22.26.56 2.58 1.36 4.81 2 7.09.22.76.22 1.57.45 2.36s.6 1.3.79 2c1.58 6.16 1.57 14.56 4.94 19.67.34-1.9 2.31-.39 3.71-.67 2.63-1.5 2.85-3.53 2.92-7.19v-4.39c0-2.85-.57-5.68-.67-8.09-.06-1.42-.31-3-.34-4.28a27.27 27.27 0 0 1 1.46-7.53c.71-2.4 1.41-4.7 2.14-7 1.55-4.81 2.67-9.69 3.71-14.39 1.67-7.43 1.69-16.54 1.03-25.06Zm-1 8.66c-.05.26-1.14-.82-1.24-1.24a9.27 9.27 0 0 1 .12-1.46c0-3.26.06-7.9-1-10.23-.48 2.8.27 7.23 0 11-.46.07-1.46-.75-2.13-1.24a23.28 23.28 0 0 1-2-1.69c0-4.49.5-8.94.23-13.37 1.73 1.45 3.93 2.44 5.28 4.27.27 4.6.56 9.22.73 13.96Zm-7.64 19c1.36.21 2.65 1.46 3.82 2.25a7.48 7.48 0 0 1-.23 1c-1.52-.77-2.99-1.58-3.6-3.25ZM63.52 57c-.37 2.4-1.32 4.22-1.8 6.52-1-.32-1.84-1.83-2.59-2.81.36-2.08.64-4.24.9-6.41a13.15 13.15 0 0 0 3.49 2.7Zm-3.26-5c0-.2.14-.24.11-.45a11.17 11.17 0 0 1 3.93 1.91c.09.43-.13.54-.11.9a30.75 30.75 0 0 1-3.93-2.31Zm.11-1.35c.22-1 .11-2.28.34-3.26 1.12 1 2.77 1.42 4 2.25a18.19 18.19 0 0 1-.11 2.81c-1.09-.4-2.77-1.26-4.23-1.75Zm.34-4.16a21.59 21.59 0 0 0 .11-2.47A46.64 46.64 0 0 0 65 46.43c-.2.7-.06 1.74-.23 2.47-1.4-.75-3.05-1.23-4.06-2.36Zm.22-3.26a22.37 22.37 0 0 1 .12-2.7 18 18 0 0 0 4.15 2.81c.09.88-.17 1.41-.11 2.25a14.81 14.81 0 0 1-4.16-2.31Zm.23-3.48c0-1.72.15-3.37.22-5.06a48.27 48.27 0 0 1 4.16 3.15 46.63 46.63 0 0 1-.22 4.83 15.24 15.24 0 0 1-4.16-2.87Zm2.36-4.27a19 19 0 0 1-2.14-1.69V29.9c1.4 1.08 2.83 2.12 4.27 3.15v3.71c-.48.09-1.46-.76-2.13-1.23ZM52.28 9.67a15.37 15.37 0 0 1 1.8 0 9.38 9.38 0 0 1-2 1c-.08-.51.25-.53.2-1Zm-1.58.22a1.42 1.42 0 0 0 .79-.22 1.87 1.87 0 0 1-1 1.91c-.16-.34.16-1.18.21-1.69Zm-1.46.57a1.83 1.83 0 0 0 .9-.34 9 9 0 0 1-.56 2H49c0-.65.44-1.12.24-1.66Zm-1.46.78a5.46 5.46 0 0 1 1-.56c.05.14-.24 1.84-1.12 1.8.07-.32.4-.95.12-1.24Zm-1.24.45c.27-.18.65-.25.9-.45.22.24-.3 1.63-1 1.69-.07-.51.19-.7.1-1.24Zm-1 .34c.39.34.14 1.91-.67 1.8.13-.69.06-1.57.66-1.83ZM44 13.27c.45 0-.12.81.22 1.12-.16 0-.32 0-.34.11-.32-.29-.1-1.03.12-1.23Zm-1.13 4.16c.05-.93-.4-2.25.12-2.93.18.79-.09 1.57.67 1.91 1.44-.51 1.44-2.46 3-2.81.34 0 .19.41.44.45.67-1.27 1.95-.68 3.15-.9.7-.12 1.32-.85 2.14-1.35a21.46 21.46 0 0 1 9.67-2.58c2.47 2.21 4.78 4.58 4.83 9.22-.39.06-.81-.47-1.24-.79-1.22-.92-2.86-2-4-3 0-1.24-.27-2.12-.23-3.37.86 0 1.78.45 2.59.11-.52-.9-2.32-.52-2.81-1.46-.2.1-.15.46-.57.34-4-.14-6.28 1.51-8.65 3 1 .13 2-.75 3.15-1.24a9.2 9.2 0 0 1 5.84-.79A308 308 0 0 1 58 62.73c.66-9.34 1.91-19.52 2.36-29.45.08-1.8-.26-5.36.45-6.64.06-.35-.56 0-.45-.45-.18-4.42.44-8.6.22-12.7-1 3.71-.58 8.65-.89 13.27-2.11 1.73-5.19 2.4-8.1 3.26a43.65 43.65 0 0 0-7.76 3.37c.13-2.27.09-4.71.34-6.86l1.14-.53c.47-.1 0 .74.45.67a2.28 2.28 0 0 0 .45-1.12c5.3-2 10.85-3.76 13.71-8.21-1.66 1-3.15 2.78-4.83 3.37 0-1.39 1.55-1.88 2.36-2.58a8.21 8.21 0 0 0 2.13-2.7c-1.41.66-2.61 2.48-4.16 3.37-.39.09-.37.32-.67 0-.34.54-1.17 1.48-1.8 1-1.58 1.61-4.76 2.21-6.52 3.26a3.77 3.77 0 0 0-.11-1.35c-.82 1.29-.21 4.05-2.14 4.29a12.18 12.18 0 0 0 0-2.7c-.9 1.92-1 5.44-1.12 8.43-.07 1.48.23 3-.9 3.15.29-5.22.59-10.43.67-15.85.86-.23 1.48-1.47 0-1.6ZM49 31.82c-.23 1.31-1.15 2.51-1 3.82 1.2-.76 1.08-2.82 1.69-4.16a7.48 7.48 0 0 1 1-.23c-.53 1.34-.86 2.89-1.46 4.16A26.59 26.59 0 0 0 46 37c.27-.78.52-1.73.79-2.59s.36-1.83 1.12-2.13a12.88 12.88 0 0 0-.9 3.82c1.49-.16.59-3.67 1.99-4.28Zm1.91-.68a4.33 4.33 0 0 1 1.23-.34c-.82 1.32-.69 3.58-2.13 4.28a16.87 16.87 0 0 0 .92-3.94Zm1.8-.56c.42.08.53-.14.89-.11-.81 1.32-.86 3.4-2.24 4.16.57-1.25.74-2.88 1.37-4.05Zm1.35-.23c.19-.13.65 0 .78-.22.25.89-.84 2.37-1 3.6a4.08 4.08 0 0 1-1.12.33 35.17 35.17 0 0 0 1.36-3.71Zm1.23-.22c.23-.18.74-.09.9-.34-.33 1.06-.41 3.34-1.8 3.71a32.46 32.46 0 0 0 .92-3.37Zm1.58-.56c.43-.24.92-.43 1.34-.68.33.75-.64 2.12-.78 3.15-.48.2-.86.49-1.35.67.19-1.14.66-1.98.81-3.14Zm2.47-1.35c.51.39.09 1.71.22 2.47a6.64 6.64 0 0 1-1.35.79 25.46 25.46 0 0 1 1.15-3.26Zm-15.5 6.07a2.92 2.92 0 0 0 .9-.56c.3.76-.64 2.19-.78 3.26a13 13 0 0 1-.12-2.7Zm3.26-9.78c0 .34-.59.15-.67.45-.22-.26 0-1 .11-1.35h.34c-.01.39-.04.78.22.9Zm.34-.11v-1.13a1.84 1.84 0 0 1 .79-.22v1.12c-.36-.02-.38.3-.79.23Zm1.35-.57v-1.12c.69-.29 1.22-.54 1 .67a4.42 4.42 0 0 1-1 .45Zm1.69-.78V22c.6-.31.94-.24.78.68-.26.12-.44.32-.78.37Zm1.35-1.58a1.18 1.18 0 0 0 .67-.33c.35 0 .19.56.23.89-.25.17-.61.22-.79.45-.26-.12-.04-.7-.11-1.01Zm1.46.23v-.9c.57-.28 1.37-1 1.23.34a7.29 7.29 0 0 1-1.23.56Zm-10 23.72c-.27-1.52-1.4-4.71-.45-5.85a22.23 22.23 0 0 1 .44 5.85Zm.12.78a7.42 7.42 0 0 1 .33 2.48 6.74 6.74 0 0 1-.34-2.48Zm2.92 15.41a2.59 2.59 0 0 1 .34 1.12 2.35 2.35 0 0 1-.35-1.12Zm.56-1.35a10.23 10.23 0 0 1-.79-2.7c.13-1.09 3-3.19 3.94-3.82 2.86-2 6.08-3.68 7.64-6.86a68.65 68.65 0 0 1-5.84 4.95 31.24 31.24 0 0 0-6 4.72c-1-3.32-1.19-7.43-1.58-11.36 4-4.37 11.16-5.55 14.73-10.34-4.83 3.15-10.33 5.76-14.81 9.33.26-1.91-.75-3.54-.34-5.06a1.27 1.27 0 0 1 .46-.58 11.35 11.35 0 0 0 0-1.55c.15-.12.38-.15.51-.28.3-1.12.6-2.25.84-3.43.25-.24.67-.31.9-.57.2 0 .23.11.12.12-.34 1.6-1.49 2.9-1.35 4.61a1.44 1.44 0 0 0-.39.2 4.92 4.92 0 0 1 0 .52c.67-.38 1.5-.7 2-.95 4.1-2.06 9.49-2.9 12.59-5.51a56.47 56.47 0 0 1-.22 5.74 18.26 18.26 0 0 1-.3 3.93c-.36 1.11-1.8 2.39-2.7 3.37a33 33 0 0 1-2.92 3C51.15 49.68 48.47 51 47 53.29c4.18-3.43 9.2-6 11.81-11 0 3.24-.6 6.45-.9 9.89a15.76 15.76 0 0 1-.34 3.26c-.5 1.41-3.4 3.31-4.61 4.16-1.78 1.25-3.64 2.16-5.28 3.38-.32-.91-.52-1.73-.8-2.72Zm5.61 21.81c-.75-2.14-1.12-4.65-1.91-6.75 1.64-2.4 4.09-4 5.62-6.52.14 4.13.28 8.62.11 12.7-1.02.44-2.62.31-3.82.57Zm2.14 1.68c-.26.54-1.09-.14-1.69 0a2.71 2.71 0 0 1 1.69 0Zm2.47-.56c.2.1.19.41.45.45.53-.4 1.34-.54 1.69-1.12.5.46 0 1.8-.57 1.91-.36 0-.23-.44-.56-.45s-.25.42-.34.67c-1.19 0-2.48 0-2.69-1a5.51 5.51 0 0 0 2.02-.46Zm-6.86-21.13c2.58-1.57 5.52-3.32 7.09-5.4.22.45-.22 1.2-.12 1.91-2.17 3.22-5.95 4.84-9.1 7.08-.93-2.05.81-2.79 2.13-3.59Zm-1.68 5.84c-.89-1.81.77-2.42 1.91-3.15 2.3-1.46 5.09-3.1 6.41-5 .47 1.64-.81 2.86-1.69 3.71a23.58 23.58 0 0 1-3.49 2.13c-1.25.75-2.14 1.67-3.14 2.31Zm1.12 9.22a1.42 1.42 0 0 1 .31 1.12 2.35 2.35 0 0 1-.31-1.12Zm-.9-8.12c1.77-3 6.12-3.47 7.87-6.52-.12 1.7.25 3.4-.23 4.83-.4 1.23-2 2.74-2.92 3.71a25.45 25.45 0 0 1-3.26 3.15c-.51-1.67-.86-3.53-1.46-5.17Zm1.69 10.9c.47.09.34.79.45 1.24a4.55 4.55 0 0 1-.45-1.21Zm1.46 5.73c.15 0 .18.2.34.23.61 4.67 1.63 8.93 2.13 13.71-1.41-4.06-1.7-9.21-2.47-13.91ZM56 101.52c-.72-1.11-.69-2.57-.9-3.94-.62-3.89-1.29-8.35-1.91-12.37v-.33a3.41 3.41 0 0 1 1.46.56 82.7 82.7 0 0 0 1 13.6 5.59 5.59 0 0 1 .35 2.48Zm.56-1.58A88.86 88.86 0 0 1 55.31 86v-.34a.55.55 0 0 0 .34.12c.22 5.44 1 10.88 1.57 15.62-.67-.09-.57-.99-.67-1.46ZM56.32 86c.59.25.41 1.08.45 1.58.34 3.86.82 8.53 1.13 12.7-.79-4.49-1.2-9.37-1.58-14.28Zm2.36 14.84c-.1 0-.2.1-.22.23.55-4.2-1-10.76-.79-15 .82.5.59 2.08.68 3.26a112.58 112.58 0 0 1 .33 11.51Zm1-5.39c-.43-3-.31-6.6-.9-9.45.24-.16.6-.22.78-.45a39.05 39.05 0 0 1 .14 9.9Zm-.21-18.55c-.13 1.77-.4 3.78-1.91 4.27 0-5 .33-9.71.79-14.28 1.16.83 1.76 2.21 2.58 3.37a41.5 41.5 0 0 0-1.46 6.64Zm1.69-7.2a8.25 8.25 0 0 0-2.7-3.48c0-1.55.39-2.76.45-4.28.87.82 1.64 1.74 2.47 2.59.13.56-.25 1 0 1.35s.44-.53.56-.79c.95 1.21-.68 3.03-.78 4.61Zm1.57-5c-.92-.81 0-2.31.34-3.48s.85-2.63 1.12-3.82v-.34h.56a77.44 77.44 0 0 1-2.02 7.69Zm2.14-7.87c-.57-.15-.47-.89-.23-1.34.2 0 .24.13.45.11.04.57-.22.8-.22 1.28Zm.33-1.57c-.53-.14-.24-.75-.22-1.24h.34c.24.38-.08.89-.12 1.29Zm.23-1.91a13.45 13.45 0 0 1 .22-3 3.18 3.18 0 0 1 .57.34c-.22.97-.22 2.12-.79 2.71Zm1-3.37c-1.17-.1-.69-1.86-.79-3 .63 0 .83.53 1.24.79-.12.78-.27 1.52-.44 2.23Zm.68-3a4.38 4.38 0 0 1-1.24-.79c-.15-.44.16-1.31.11-2 .6.11.63.79 1.24.9 0-.94-.62-1.33-1.13-1.8.24-1.37.16-3.07.34-4.49a8.16 8.16 0 0 1 1.35 1.57c-.06 2.36-.43 4.42-.66 6.63Zm.78-7.75c-.65-.37-1-1.08-1.46-1.58a24.79 24.79 0 0 0 .12-3.65c1.62.54 1.38 3 1.35 5.24Z" fill="#f5ac3b" fill-rule="evenodd" data-color="1"/>
            <path d="M55.31 50.59c-.92-.2-1.72 1.26-1.8 1.91.64-.6 1.86-.62 1.8-1.91Z" fill="#f5ac3b" fill-rule="evenodd" data-color="1"/>
            <path d="M47.55 57.56q.54.07.45-.45-.53-.11-.45.45Z" fill="#f5ac3b" fill-rule="evenodd" data-color="1"/>
            <path d="M44.92 37.64a3.4 3.4 0 0 0-.06-1 .34.34 0 0 1-.06.06c-.1.35-.19.71-.28 1.06a.9.9 0 0 0 .4-.12Z" fill="#f5ac3b" fill-rule="evenodd" data-color="1"/>
            <path d="M44.52 41.37c0-.82.25-2.11.36-3.21a3.64 3.64 0 0 0-.58.38 6.45 6.45 0 0 0 .22 2.83Z" fill="#f5ac3b" fill-rule="evenodd" data-color="1"/>
            <path d="M15.51 92c.13 0 .18.12.23.22.75 0 .93-.49 1-1.12a.85.85 0 0 0-1.23.9Z" fill="#f5ac3b" fill-rule="evenodd" data-color="1"/>
            <path d="M32.94 73c0-.09 0-.22.11-.22-.75-2.11-2.12.83-.11.22Z" fill="#f5ac3b" fill-rule="evenodd" data-color="1"/>
            <path d="M27.21 70.15a.59.59 0 0 0 .56.9.9.9 0 0 0 0-.9Z" fill="#f5ac3b" fill-rule="evenodd" data-color="1"/>
            <path d="M30 71.27c-.34.45.1.9.67.79.19-.39-.04-.86-.67-.79Z" fill="#f5ac3b" fill-rule="evenodd" data-color="1"/>
            <path d="M14.28 29.9c.83-.48 2.91-.68 3.6-1.68-1.38-.47-2.76.88-3.6 1.68Z" fill="#f5ac3b" fill-rule="evenodd" data-color="1"/>
            <path d="M38.79 62.39a25.19 25.19 0 0 0-.79-3.71c-1.47-6.38-3-12.88-4.84-18.77-1.07-3.48-2.47-6.61-3.71-9.78s-2.69-6.71-3.14-10.34c-.43-3.33 1-5.41 2-8.21a51.45 51.45 0 0 0 1.91-9.11c-2.86-1.34-4.69 1.53-7.17 2.7s-5.66 1.59-7.87.23a21.42 21.42 0 0 1-4.39-3.94C10.38 1 10.3.34 9.55 0a3.81 3.81 0 0 0-1.12 2.7 13 13 0 0 0 1.24 5.17c1.71 4.65 4.75 8.84 6.63 12.7-4.1 9.35-9.24 17.67-11.69 28.67a.54.54 0 0 1-.56.56c.41.45.33.58.33 1.35a18 18 0 0 1-1.57 7c-.51.15 0 .25 0 .11a9.06 9.06 0 0 1-.67 3.15A45.24 45.24 0 0 0 0 71.61a32.56 32.56 0 0 0 3.26 13.94 28.86 28.86 0 0 0 3.15 5.51c.75 1 3.13 4.11 4.27 4.39s2.16-.44 3.26-.12c.85.25.7 1.29 1.8 1.35.5-.18.31-.68.45-1 1.53.33 3.13 1 4.83 1.57a13.63 13.63 0 0 0 5.62.9c.47-.07 1-.45 1.58-.56 1.69-.31 3.74.17 5.17-.45 1-.44 1.76-1.83 2.47-2.92 2.22-3.41 4.37-6.41 4.5-11.69A88.44 88.44 0 0 0 40.13 72c-.34-3.49-1.13-6.7-1.34-9.61Zm.11 9.22c-.23.1-1-.56-1.58-.9a13.22 13.22 0 0 0-1.8-1c-.15-2-.47-3.8-.67-5.73a18.12 18.12 0 0 0 2 1c.1-1.12-1.81-1.18-2.24-2.14 1.13.4 1.93 1.14 3.14 1.47.54 2.29.76 4.88 1.15 7.3Zm-1.24-7.87c-.18.14-1-.46-1.57-.78s-1.19-.75-1.69-1c0-.67-.26-1-.23-1.68 1.12.64 2.06 1.47 3.27 2-.07.63.25.87.22 1.46Zm-15.29-4.49c3.89 1.31 8 2.4 11.47 4.16.13 2 .48 3.71.56 5.73-3.67-1.62-8.24-2.33-11.92-3.94a31 31 0 0 0-.11-5.95Zm0-.68v-.79c.1 0 .11 0 .11.12 2.88 1.05 6.06 1.78 8.77 3a5.45 5.45 0 0 1 2.36 1.58c-3.55-1.48-7.43-2.66-11.24-3.91Zm-.11-1.46a10.42 10.42 0 0 0-.11-2.11c3.44 1.8 7.54 3 11 4.73 0 .62.24 1 .23 1.68-3.33-1.83-7.38-2.86-11.12-4.3Zm12.25 13.15c-3.89-1.5-8.71-2.07-12-4.16a.66.66 0 0 1-.11-.45c3.52 2.04 8.8 2.35 12.11 4.61Zm1.13-9.66A19.89 19.89 0 0 0 34 59.47a10.65 10.65 0 0 1-.22-1.69c1.31 1.09 3.33 1.47 3.48 3.71-.39.07-1.06-.49-1.62-.89Zm.78-2.48c-.31.12-.94-.43-1.46-.79s-1.13-.81-1.57-1.12a109.85 109.85 0 0 0-2.59-10.79c.64-.23 1.2.6 1.8.78 1.17 4.08 2.47 8.03 3.82 11.92Zm-4.16-12.93c-.54-.27-1.13-.51-1.68-.78-.06-.32-.17-.59-.23-.9.7.49 1.92.49 1.91 1.68Zm-.56-1.91a6.22 6.22 0 0 1-1.57-.78c-.56-1.88-.9-4-1.8-5.51.14 1.5.93 3.34 1.12 5.17a45.59 45.59 0 0 1-8-3.82 103.21 103.21 0 0 1 .68-17.43c-.58.37-.5 1.38-.68 2.14-.25-.64.14-1.59.23-2.25.29-.17 1.53.07 1.91-.34.28.1 0 .78.22.9.49.1.82-.52 1-.34 2.34 7.41 4.81 14.64 6.89 22.26Zm-1.68.9a36.65 36.65 0 0 1-6.75-2.92c-.76-.45-2-.88-1.8-2 1.27.64 2.93 1.67 4.5 2.37s3.65.85 4.03 2.55ZM25.07 6.41c.11 0 .09.14.11.22a26 26 0 0 0-1.46 7.31c0 .2-.11.23-.11.11 0-2.37-.31-4.49-.34-6.85.62-.2 1.2-.53 1.8-.79Zm-3.26 1.35c.45.07.45-.3.9-.23.16 3.75.1 8.08 0 11.47 2.49-3 1.69-9.33 3.48-13l1.8-.9h.23c-.5 2.07-.92 4.34-1.58 6.52a38.53 38.53 0 0 1-2 6.07 3.45 3.45 0 0 1-2.25 1.8c.15-3.81-.79-7.94-.58-11.73Zm-1.13.45H21c.22 3.75.7 7.84.9 11.24-.59-3.61-1.08-7.31-1.57-11 .11-.12.33-.08.35-.24Zm.57 44.18c-.22.24-.07-.82-.12-1.13.22-.26.08.83.12 1.13Zm-11 14c-.39-.39.09-1.66 0-2.47 3.39-.92 7-2.24 10-3.15 0 1.39.18 2.66.33 3.93-2.88 2.11-6.83 3.14-10.57 4.39v-2.2c1.48-.4 2.85-.9 4.28-1.35a15.36 15.36 0 0 0-4.06.9ZM12 53.06c.45-1 1.94-1.15 3-1.46a33.21 33.21 0 0 0 3.49-1c.13 0 .2 0 .22-.11.1 1.42 1.07 3.34.68 4.61s-2.56 1.4-3.82 1.68a27.91 27.91 0 0 1-4.5.9c.31-1.26.47-2.67.79-3.93A25.15 25.15 0 0 1 17 51.94c-1.53-.36-3.41.8-5 1.12Zm2.36-13c1.3-.16 2.49-.43 3.82-.56-1.31.48-2.6 1-3.93 1.46-.05-.46.22-.52.14-.96Zm3.71-2.7c.52.23.12 1.36 0 1.69a35.24 35.24 0 0 0-3.6.56c0-.66.19-1.16.23-1.8 1.07-.26 2.36-.25 3.4-.49Zm-3.26-.22c.82-.65 2.37-.55 3.48-.9-.18 1.13-2.69.61-3.45.86Zm2.7 3.6a14.39 14.39 0 0 1-3.49 1.68c.5-1.16 2.43-1.14 3.52-1.72Zm.56.45a40.21 40.21 0 0 1 .34 4.94 49.06 49.06 0 0 1-5.18 1.24c.21-1.41.5-2.73.68-4.16a20.32 20.32 0 0 0 4.19-2.06Zm.22 5.62c.57.63.24 2.16.45 3.14-1.9.88-4.31 1.24-6.4 1.92a30.52 30.52 0 0 1 .78-3.94c1.79-.38 3.58-.69 5.2-1.16Zm.9-27.1a5.89 5.89 0 0 1 .57-1.12c.31.41-.21.92-.54 1.08Zm.23 37c.39.09.3.67.34 1.12a74.39 74.39 0 0 1-9 2.37 3.47 3.47 0 0 1 .24-1.29c2.79-.79 6.14-1 8.45-2.25Zm.45 2.14c-.29.59-1.5.66-2.36.9a18.65 18.65 0 0 1-2.7.67 34 34 0 0 1 5.09-1.62Zm-5.51 1.57c.2.14-1.21.49-1.8.67a16.42 16.42 0 0 1-2 .57c.88-.87 2.6-.83 3.83-1.29Zm.34.79c1.75-.42 3.57-.89 5.06-1.35H20a46.75 46.75 0 0 1-9.67 3.48c.34-1.7 2.79-1.81 4.4-2.18Zm5.73-19.79a89.85 89.85 0 0 1 0-20c.13 0 .2 0 .22.11-.65 6.17.01 13.09-.19 19.84Zm.45-22.48c.54.13.1 1-.11 1.12-.32-.37.11-.86.14-1.17ZM19.45 8.21c.09 3.4 1.42 6.74 1.23 9.67-.71-3-1.08-6.34-1.68-9.45-.4 3.29.66 6.09.79 9.22-.5-.12-.37.38-.79.34-.47-3.21-.76-6.59-1.24-9.78Zm-2.14 0c.1 2.52.51 4.74.68 7.19a53.8 53.8 0 0 0-2.14-7.31 3 3 0 0 1 1.46.12Zm-2-.34a77.73 77.73 0 0 1 2.59 10.34c-1.26-4.06-2.28-8.36-4.39-11.58.49.07 1.12.96 1.78 1.24Zm-2.36 3C11.54 8.41 10 5.82 9.78 2.25c3.34 4.08 5.57 9.27 7 15.29-1.18-2.21-2.56-4.32-3.85-6.64Zm4.61 10.8h1.68a26.36 26.36 0 0 0-.67 7.87c-1.51 1-3.85 1.17-5.17 2.36 1.03-3.26 2.9-6.71 4.14-10.2Zm.78 8.54c.38 1.25.06 3.72 0 5.28a20.92 20.92 0 0 1-3.34.71c.08-1.39.31-2.62.34-4.05-.48 1.25-.45 3-.9 4.27a17.31 17.31 0 0 0-3.15.57c.71-3.89 3.28-5.9 7.03-6.75Zm-4 6.86c-.81.65-2.49.44-3.37 1-.15-.98 2.32-1.02 3.31-.97Zm-3.71 1.57a17.32 17.32 0 0 1 3.6-.78c-.12.6-.22 1.21-.34 1.79-1.3.24-2.61.47-3.94.68a17 17 0 0 1 .62-1.66Zm-1 2.48a31.92 31.92 0 0 1 4.17-.9c.08.41-.2.48-.12.9A22.64 22.64 0 0 1 9 42.61a7.25 7.25 0 0 0 .55-1.46Zm3.71 1c.12 0 .09.13.12.22-1.19 1-3.29 1.14-5 1.69.7-1.49 3.35-1.03 4.8-1.87Zm-5 2.36A22.8 22.8 0 0 0 13 43.39c.36 1-.5 2.71-.56 4-2 .32-3.8.77-5.62 1.24.25-1.58 1-2.63 1.39-4.11Zm-1.6 4.87a24.9 24.9 0 0 1 5.51-1.23c-.2 1.37-.6 2.54-.78 3.93-2 1-4.23 1.77-5.85 3.15a32.44 32.44 0 0 1 1.12-5.85ZM11 53c.2 0 .23.11.11.11C10.44 54 9 54.3 8 54.86s-2 1.4-2.83 1.8C6.47 54.77 9 54.12 11 53Zm-.23 1.12c.2 1.22-.5 2.5-.56 3.83-1.9.57-4 .93-5.51 1.91-.06-3.62 4.01-4.01 6.09-5.79Zm-6.52 7.2A13.65 13.65 0 0 1 10 59.13a10.57 10.57 0 0 0-.22 1.35 21.54 21.54 0 0 0-5.73 2.81c-.23-.53.29-1.29.22-2.02Zm5.06.45c.13 0 .2 0 .22.11-1.45 1.81-4.28 2.24-6 3.82a13.36 13.36 0 0 1 5.8-3.98Zm-.11 1.35c.19 0 .21.09.22.22-.91.85-2.19 1.05-3.26 1.69s-2 1.37-2.92 2c1.05-1.85 4.09-2.63 5.98-3.96ZM2.9 67.5C5 66.35 6.77 65 9.22 64.31c0 .83-.26 1.46-.23 2.36a35.43 35.43 0 0 0-6.52 2.58c.05-.7.45-1.05.45-1.8Zm-.67 2.93a21.84 21.84 0 0 1 6.41-3c.5.28.09 1.48.22 2.14-2.29 1-4.76 2.43-6.63 3.48Zm0 3c2.25-1 4.11-2.33 6.41-3.26.25.08 0 .63.11.9a43.29 43.29 0 0 0-6.41 4.27c-.24-.43-.02-1.34-.09-1.93Zm6.52-1.35a.94.94 0 0 0-.11.68 19.59 19.59 0 0 0-2.81 1.12c.45-.27 1.76-1.57 2.94-1.82Zm-6.39 5.04a26.21 26.21 0 0 1 6.18-3.82c.23 2.25.18 4.77.45 7-1.85.55-3.36 2-4.61 2.81a49.61 49.61 0 0 1-2.02-5.99ZM8.77 90.5c-1.48-2-3.72-4.44-4.16-7 1.73-.5 2.84-2.3 4.61-2.45-.09 1.22-1.56 1.07-1.91 2 .9 0 1.24-.63 2-.79a49.08 49.08 0 0 0 3.15 10c-2.1.9-2.73-.5-3.69-1.76Zm2.81 3c.33-.23 1.08 0 1.46-.22.05.21.24.28.22.56a1.43 1.43 0 0 1-1.68-.31Zm2.59-1.23a34.76 34.76 0 0 1-3.6-10.8c3-1.5 6.66-2.32 9.89-3.59-.74-.55-1.78 0-2.58.22s-1.77.62-2.59.9a49.43 49.43 0 0 1-4.95 1.69c.23-.7 1.19-.9 1.8-1.13A29.55 29.55 0 0 0 18.21 77c-2.87.64-5.21 1.83-8 2.58a65.78 65.78 0 0 1-.34-6.74c3-1 6.34-1.83 9-3.26-1.33-.12-2.69 1-4.16 1.46s-3.23.78-4.84 1.24c-.26-1.37 1.32-1.59 2.14-1.91 2.72-1.09 6.26-2 8.32-3.83C17 68 13.47 69.27 9.89 70.49c-.05-1.11 1.36-1.38 2.14-1.69 2.82-1.11 5.87-1.85 8.32-3.37h.22c1.09 8.88-.2 20.06.79 28.67-2.25-.75-4.18-1.82-7.19-1.8Zm.56 1.57v-.56a11.86 11.86 0 0 1 4.16.79c1.06.38 2.37.63 2.81 1.46-1.96-.45-4.7-1.13-6.97-1.66Zm6.86-52.95c2.41 1.82 5.55 2.92 8.65 4 .71 3.57 1.74 6.8 2.25 10.57-3.16-2.09-7-3.47-10.57-5.18-.33-2.84.16-6.59-.33-9.36Zm.56 10.79c3.29 2.07 7.89 2.83 10.56 5.51.22.42.08 1.2.34 1.58a103 103 0 0 1-10.9-4.39 20.45 20.45 0 0 0-.23-2.58c.08-.1.2-.26.23-.09Zm.22 15.07c3.36 2.12 8.46 2.48 12.14 4.27a71.37 71.37 0 0 1-.22 10.68C30 79.41 26.61 76.14 22.15 74c-.05-2.54.04-4.93.22-7.22ZM32.83 84.2c.38.25 1.23.48 1.12 1.13-.53.22-1-.41-1.35-.68a76 76 0 0 0-10.34-6.86v-3.14c4.19 2.48 7.83 5.51 12 8a5.11 5.11 0 0 0-.12 1.46c-3.9-1.83-7-5.39-11.57-7 3.36 2.24 6.79 4.89 10.26 7.09Zm-10.57-5.73c4.44 2 7.64 5.25 11.58 7.76-.21 2-.59 3.91-.9 5.84-1.17.52-1.44 1.94-3.26 1.8-.14-.33.42-.76.78-1.12a6.85 6.85 0 0 0 1.8-2.14c-.66-.17-1.27.68-1.91.9a1 1 0 0 0-.67-.45c.42-.66 1.15-1 1.46-1.8-.9-.22-1.6 1.31-2.36 1.24-.38-.17-.36-.48-.11-.79-.4-.16-.68.36-.79.11a23 23 0 0 1-5.4-4.49c-.02-2.33-.25-4.47-.22-6.86Zm7 12.82a4.89 4.89 0 0 1 1 .44c-1.1.85-1.42 2.48-3.48 2.37a30.08 30.08 0 0 1 2.45-2.81Zm-4.39 3.26c-.22-.26.34-.65.57-.9.78-.89 1.82-2 2.58-2.93.21 0 .24.14.45.12-.86 1.16-1.99 2.98-3.63 3.71Zm-2.24-8.1a21 21 0 0 0 3.93 3.26 22.38 22.38 0 0 0-3.15 3.37c-.9-1.6-.65-4.32-.81-6.63Zm2.24 5.73c.68-.73 1.61-1.32 1.92-2.13.41-.12.32.28.67.22-1.19 1.43-2.4 2.85-3.6 4.28-.76-.86.43-1.76.98-2.37Zm-.67 3.71a.5.5 0 0 1-.23-.44h.57c.07.36-.4.15-.37.44Zm1.91.57a5.25 5.25 0 0 1-1.57-.23c.75-.7 1.34-1.58 2.92-1.46a7.72 7.72 0 0 1-1.38 1.69Zm1.46-.57a3 3 0 0 1 2.36-1.46c-.04.81-1.26 1.39-2.39 1.46Zm2.59-.33c.53-.6.89-1.36 2.25-1.13-.29.88-1.24 1.05-2.28 1.13Zm7-6.3a20.27 20.27 0 0 1-1.58 2.14c-1.18 1.57-1.36 2.38-3.59 2.36.61-.7 1.52-1.1 1.91-2-.16 0-.32 0-.34.12a18.86 18.86 0 0 0 1.58-4.72c-.06-.46.28 0 .44 0 0-.29-.7-.54-.33-1.35.87.24 1.33.91 2.36 1-.2-.71-1.56-1.22-2.25-1.8a15.15 15.15 0 0 0 .11-1.69c.92.32 1.72.76 2.7 1a6.49 6.49 0 0 0-2.59-1.69c.11-3.62.59-7.49.12-11 .53.11.9.38 1.46.45-.19-.71-1.05-.75-1.46-1.23.82-.18 2.12 1.09 3.26 1.34.53 6.13.58 12.55-1.86 17.07Z" fill="#f5ac3b" fill-rule="evenodd" data-color="1"/>
            <path d="M18.21 91.06a1 1 0 0 0-.33 1.46c1.06.35 1.23-1.46.33-1.46Z" fill="#f5ac3b" fill-rule="evenodd" data-color="1"/>
            <path d="M27.43 32.15a49.75 49.75 0 0 0-2.7-8.32 26 26 0 0 0 2.7 8.32Z" fill="#f5ac3b" fill-rule="evenodd" data-color="1"/>
            <path d="M25.52 37.21a.86.86 0 0 0 .79.23 1 1 0 0 0 .22-1c-.53-.3-1.14.02-1.01.77Z" fill="#f5ac3b" fill-rule="evenodd" data-color="1"/>
            <path d="M27.21 36.54c.12 0 .17.12.22.22.32 0 .48-.19.45-.56a.4.4 0 0 0-.67.34Z" fill="#f5ac3b" fill-rule="evenodd" data-color="1"/>
            <path d="M28.55 63.18a.4.4 0 1 0-.56.56c.4.03.59-.16.56-.56Z" fill="#f5ac3b" fill-rule="evenodd" data-color="1"/>
        </g>
    </g>
</svg>
