<?xml version="1.0" encoding="UTF-8"?>
<svg data-bbox="0 0.003 78.372 72.487" viewBox="0 0 78.37 72.49" xmlns="http://www.w3.org/2000/svg" data-type="color">
    <g>
        <g>
            <path d="M54.2 33.86c-.41 1-1.21 2.16-.93 3.34C57 28.32 60.7 19.42 64.69 10.8c-.15 0-.16-.15-.35-.12-2.73 3.53-4.11 8.63-6.11 13.15-1.5 3.37-2.71 6.66-4.03 10.03Z" fill="#f5ac3a" fill-rule="evenodd" data-color="1"/>
            <path d="M62.27 30.63c-1.6 3.93-3.68 8-4.73 12.11 1-1.84 1.74-4 2.65-6s2.13-4.09 2.08-6.11Z" fill="#f5ac3a" fill-rule="evenodd" data-color="1"/>
            <path d="M43.47 64.41a7.69 7.69 0 0 0 3.58-5.88h-.35c-.7 2.36-2.08 3.99-3.23 5.88Z" fill="#f5ac3a" fill-rule="evenodd" data-color="1"/>
            <path d="M58.35 47.92c1.14-.52 1.66-2.85 1.38-4a11.42 11.42 0 0 0-1.38 4Z" fill="#f5ac3a" fill-rule="evenodd" data-color="1"/>
            <path d="M78.18 48.5c-.39-1.22-2.2-2.83-2.31-3.8a18.52 18.52 0 0 1 .47-2.43 56.63 56.63 0 0 0 .8-11.76C76.37 19.23 73 9.57 64.8 5.84a57.1 57.1 0 0 0-13.37-4.5C49 .91 46.27 1 43.59.53a39.79 39.79 0 0 0-8.77-.46C27 .61 19.74 1.5 14 4a33.57 33.57 0 0 0-5.58 2.76c-4.17 2.87-6.23 7.75-7.27 13.49A50.42 50.42 0 0 0 0 29.13a45.81 45.81 0 0 0 2.19 12.8c.33 1.21 1.22 2.44 1.39 3.69a27.35 27.35 0 0 1-.35 4c-.22 4.62.32 8.79.23 12.69a4.1 4.1 0 0 0 3.46.92 43.52 43.52 0 0 0 7.15-1.5c2.32-.61 4.7-1.7 6.92-1.73a25.46 25.46 0 0 1 3.22.46c3.49.47 6.84.46 10.27 1a4.3 4.3 0 0 1 3 .12c.57-.15-.3-.59.23-.58a12.87 12.87 0 0 0 2.53-.35c-.1 1-1.46 1.34-1.61 2.54a20.2 20.2 0 0 0 .37 2.38c.21 2.45.08 5.58 1.27 6.92a33.53 33.53 0 0 0 8.07-1.16A78.38 78.38 0 0 0 56 69.49c2.49-.83 5-1.28 7.5-2 3-.83 7.18-1.69 9.22-3.35-.38-4 .52-8-.12-11.87.46-.74 1.09-1.3 1.5-2.08.89.84 1.4 2.06 2.54 2.65 1.14-1.18 2.17-2.34 1.54-4.34Zm-2.65-8.07c-.22 1.32-.2 2.83-1 3.8a87.5 87.5 0 0 0-.23-19.6 51.46 51.46 0 0 0-3.81-12.57c4.02 5.61 6.76 17.94 5.04 28.37ZM72 19.67c2.14 5.85 2.87 17.39 1 23.76-1.29-.09-.55-1.47-.46-2.19.84-6.58.32-15.4-.54-21.57Zm-1.5-4.84C69 13.07 68.13 10.7 66 9.64c2.19.53 3.71 2.78 4.45 5.19Zm-4.84-4.61c.33.33.28 1 .69 1.38a262.29 262.29 0 0 0-12.27 30.67c1-.6 1.12-2.27 1.62-3.57C59 30 63.14 20.78 67 12.41c.78.67 1.91 1.56 2 2.65a9.39 9.39 0 0 1-1.16 2.88c-1.19 2.55-3.1 5.51-3.46 8.54.87-.51 1-1.59 1.39-2.42 1.06-2.4 2.68-4.88 3.69-7.5a12.9 12.9 0 0 1 1 3.69 16.15 16.15 0 0 1 .46 4.15c-.15 1.25-1.23 2.89-1.84 4.27a15 15 0 0 0-1.61 4.5c1.58-1.81 2.32-4.45 3.45-6.69a65.33 65.33 0 0 1 .35 9.34c-2.2-.5-5.77-.73-7.49.46a2.42 2.42 0 0 0 .34 2.19 25.9 25.9 0 0 0 2.65 0c.32 1.81-.74 2.64-.23 4.5a16.19 16.19 0 0 1-4.72.11c-1 1-1.36 3.7-.35 4.73.85.87 2.45.4 3.92.58 1.07.12 2 .63 2.77.34-.12 1.16-1.07 1.66-1.85 2.42-.62.61-1.55 1.8-2.3 2a7.1 7.1 0 0 1-4.15-.8c-1.92-1-3.11-3.56-4.39-4.85.12-.69.53-1.09.46-2-.46-.41-.63.94-.92.7A33.72 33.72 0 0 1 52.35 31c.48-7.64 2.36-16.08 6.57-19.48-1.43 4.45-3.71 9-5.42 13.6.75-.15.79-1.05 1-1.61 1.79-3.93 3.71-8.68 5.54-12.8 1.47-.53 4.2-1.89 5.57-.49ZM51.2 54.15c-.83-1.4-2-2.48-2.42-4.27a6.47 6.47 0 0 1 2-.23A20 20 0 0 0 53 53.8c-.35.35-1.12.3-1.8.35Zm.34 1.85c-.27.19-.68-.47-1-.58 0-.25.4-.05.57-.12a1.1 1.1 0 0 0 .43.7Zm-8.18-1c-2.77 1.15-3.5-3.49-5-4.61.09 1.84 1.64 3.19 2.31 4.84H39c-1.15-1.5-2.16-3.14-3.22-4.73-.2 1.63 1.66 3.17 2.3 4.73h-2c-.9-1.44-1.84-2.84-2.77-4.27-.11 1.19 1.43 2.91 2.08 4.15a10.85 10.85 0 0 1-2.54.12c-1.13-1.29-1.77-3.07-2.76-4.5-.2 1.33 1.22 3 1.84 4.27-.54.34-1.22-.16-2 0-.93-1.71-1.93-3.32-2.72-5.12 4.72-.13 10.09.67 15.11.24.48 1.27 1.75 2.28 1.5 3.92a17.42 17.42 0 0 1-1.5-1.85c-.41-.61-.56-1.73-1.39-1.61.15 1.66 1.49 3.12 2.43 4.42Zm-1 2.3a2.08 2.08 0 0 1-.58 1 4.77 4.77 0 0 1-1.84-2h1.73c.18.36.43.7.65.96ZM4.73 24.75c-.37-.06-.41.21-.81.11a7.1 7.1 0 0 1 .35-2.65c1.59-.45.21 1.56.46 2.54ZM4.5 29c-.37 0-.49.21-.92.12.23-1 0-2.43.23-3.46h.8c.02 1.18-.2 2.11-.11 3.34Zm-.12-7.72c0-1 .35-1.58.35-2.54A4.21 4.21 0 0 1 6 18.41a12.52 12.52 0 0 0-.58 2.53 3.19 3.19 0 0 1-1.04.35ZM16.72 11c9.22-.91 20.74-3.09 30.9-1.27-.41 1-1.79 2-2.19 3.46a105 105 0 0 0-29.86 2.42c-.06-1.06.28-2.71 1.15-3.23-.36-.44-.09-.77 0-1.38Zm.46-.81A15.15 15.15 0 0 1 19 6.41c9-2.6 23.13-2.84 32.51-.34.19.29-.9 1-1.38 1.38a13.74 13.74 0 0 0-1.62 1.62c-9.69-2.42-22.22-.19-31.33 1.15Zm36.55.69c-.45 1-1.12 1.72-1.61 2.65a21.83 21.83 0 0 0-2.19-.11c.35-1.19 1.21-1.86 1.73-2.89.77.07 1.34.34 2.07.38Zm-1-1.27a15.5 15.5 0 0 1 3-2.3 1.43 1.43 0 0 0 1.15.57A28.65 28.65 0 0 1 54.66 10c-.66-.16-1.32-.24-1.96-.36Zm-1.16 4.84c-.41 1.33-1 2.44-1.5 3.69-.67-.05-1.26-.19-2-.23a27.12 27.12 0 0 1 1.27-3.69c.78.08 1.44.22 2.2.26Zm-2 5c-.3 1.08-.68 2.09-1 3.12h-1.52c.13-1.21.49-2.2.69-3.35a8.57 8.57 0 0 1 1.84.22Zm-4.25 20.06c.91-.2 2.07-.16 3-.35-.06 1.64.63 2.53.81 3.92-1.31-.07-2.67.39-3.69.23.03-1.45-.17-2.2-.12-3.8Zm-1-13.26h-1c-.09-.55.18-.75.12-1.27h1c.02.52-.25.72-.16 1.27Zm-.58-2.31a2.12 2.12 0 0 1 .12-.92c.37 0 .49.2.92.11.09.4-.17.45-.11.81Zm.46-2.07c-.08-.36.12-.43.12-.7.16.34.95 0 .81.7Zm.47-1.74c-.1-.32.16-.29.11-.57a2.38 2.38 0 0 1 .81.34c.03.46-.68.1-.96.23Zm3.22 12h-2.3c0-1.39.28-2.41.34-3.69a9.45 9.45 0 0 1 1.85.23c-.12 1.26.06 2.33.07 3.46Zm.19 5.87c-1-.09-1.79.13-2.76.11.06-1.63 0-3.33.23-4.84a5.93 5.93 0 0 0 2.3 0c.24 1.43.06 3.26.23 4.73Zm.23-14.3a31.28 31.28 0 0 0-.46 3.81c-.7.08-1-.19-1.73-.12.12-1.31.37-2.48.58-3.69Zm-3.22-5.07a1.79 1.79 0 0 1 .23-.81c.16.3.79.13.8.58-.24.19-.76.09-1.03.24Zm-.23-4.39c-.3 1.32-1 2.28-1.16 3.69-9.51-.16-20.48.19-29.17 1.62a14.81 14.81 0 0 1 .69-3.11 145.8 145.8 0 0 1 29.64-2.19Zm-1.62 5c-.27 1-.5 2-.81 3a213.74 213.74 0 0 0-28.36 1.15 11.49 11.49 0 0 1 .34-2.88 152.51 152.51 0 0 1 28.83-1.3Zm-1 4.15c-.3 1.24-.41 2.66-.8 3.81-2.16.13-5.5-.11-8-.12-6.63 0-13.49.8-19.72 1.16.07-1.32.14-2.64.23-3.92a219.08 219.08 0 0 1 28.25-.96Zm-29.63-3a3.73 3.73 0 0 0-1.15-.12c0-.51.23-.84.23-1.38.44-.06.56.2 1 .11.07.56-.2.79-.12 1.37Zm-.35 2.53a1.56 1.56 0 0 0-1.26-.48 4.18 4.18 0 0 0 .23-1.15h1.15c.01.63-.25.95-.16 1.61Zm-.34-5a3.92 3.92 0 0 1 .23-.8c.46.08.66-.11 1-.12.08.44-.15.55-.12.92Zm.46-1.73c.06-.32.17-.59.23-.92a2.55 2.55 0 0 0 1 .12c.06.41-.14.55-.23.8-.38-.13-.5.09-1.04.02Zm1.27 12.92c9.05-.41 18.06-1.19 27.56-.81-.2 1.34-.65 2.43-.81 3.81-9.1.06-18.71.16-27.1 1.27a35.47 35.47 0 0 0 .31-4.25Zm.11-14.88h-.81c.12-.69.51-1.11.58-1.84.79.25.47 1.22.19 1.86Zm-1.15-2.76a19.93 19.93 0 0 0-3.61.94c0-1 .76-2.08 1.16-3 1.29-.55 2.67-1 4-1.5-.3.95-1.16 2.34-1.59 3.58Zm-.58 1c.32 1-.65 2.72-1 3.8a22.28 22.28 0 0 0-3.46.58c.26-1.24.7-2.3 1-3.46 1.03-.33 2.33-.49 3.43-.86Zm-1.27 5a17.53 17.53 0 0 1-.76 2.78 15 15 0 0 0-3.46.58 9.28 9.28 0 0 1 .58-2.77c1.21-.2 2.32-.48 3.6-.58Zm-4.38-.23c-.33.21-.87.21-1.15.46a9.34 9.34 0 0 1 .92-3.57 5 5 0 0 1 1.15-.23c-.3 1.16-.6 2.28-.96 3.35Zm-.8 8.3a24.39 24.39 0 0 1 3.8-.46c-.25.94-.19 2.19-.35 3.23a33.26 33.26 0 0 0-3.8.58 12.21 12.21 0 0 1 .31-3.34Zm.23-1a10.91 10.91 0 0 1 .46-2.65 16.3 16.3 0 0 1 3.69-.58 17.6 17.6 0 0 1-.58 2.77c-1.38.01-2.32.39-3.61.44Zm4.61 18a43.11 43.11 0 0 1-5.31-.23c-.05-.94-.4-1.59-.46-2.53H9.8a14.94 14.94 0 0 1 .58 2.72Zm.34-18.33c.25-.56 1.2-.42 1.27-1.15.11 1.89-.35 5.9-.23 8.76a37 37 0 0 1 .35 4.38c-.14.9-1 1.44-1 2.19-1.15-3.89-1.09-9.94-.43-14.22Zm1.39 13.95c.83 1.07-.41 1.94-.69 2.89-.77-1.21.45-1.97.65-2.93Zm.34 2.19c.67.88-.32 1.84-.8 2.31-.26-.89.6-1.51.76-2.35Zm.35 2c.65.8-.56 1.44-.69 2.2-.38-.92.55-1.49.65-2.28Zm.23 2c.76.72-.12 1.6-.46 2.19-.45-.95.39-1.54.39-2.31Zm.46 2.54c.58.45 0 1.47-.46 1.62-.07-.89.31-1.16.42-1.74Zm.23-8a30.89 30.89 0 0 1-.34-4.61c8.28-1 17.5-1 26.63-1.15.32 1.3-.35 3.55-.11 5.53-8.44.39-17.58-.24-26.22.15Zm.58 4a31.38 31.38 0 0 1-.46-3.23c8.71-.15 17-.08 26.06-.11a29.8 29.8 0 0 0 .34 3.92c-8.74.67-17.62-.25-25.98-.62Zm-.12 8c-.78-.27-.33-1.41-.11-2a1.91 1.91 0 0 1 .07 1.92Zm26.25-6.19c.51 1.41.91 2.93 1.39 4.38-5.7.21-11.64-.26-17.18-.58-.39.08-.42-.19-.47-.46-1.58.74-4.06-.31-6-.35-.39.12-.38-.16-.35-.46-.5.59-1.38.18-2.3.23a12.11 12.11 0 0 1-.81-3.34c8.25.37 17.25 1.59 25.72.58Zm-22.83 4a31.54 31.54 0 0 0 2 5.19c-.32-.1-.71-.13-1-.23a40.69 40.69 0 0 1-2.08-5.19 3.56 3.56 0 0 1 1.08.26Zm.46.12c.44-.28 1.23.08 1.73.11A26.11 26.11 0 0 0 22 54.15c-.34.23-1.07-.15-1.61-.11a48 48 0 0 1-2.29-5.19Zm2.19.11c.35.19 1 .09 1.39.23a37.31 37.31 0 0 0 2.42 5.34c-.53.06-.72-.21-1.27-.12A23.52 23.52 0 0 1 20.29 49Zm2 .35c.71-.06 1.11.2 1.85.11a54.89 54.89 0 0 0 2.65 5.19c-.43.31-1.23 0-1.73 0a32.37 32.37 0 0 1-2.81-5.27Zm2.54.34c.38-.22 1.17.14 1.85 0a48 48 0 0 0 2.53 5.19 10.18 10.18 0 0 1-1.61-.11c-.99-1.64-1.89-3.35-2.81-5.05ZM43 27.05a1.26 1.26 0 0 0 1 0c-1.22 8.29-1.33 19 1.73 25.14-.45.3-1-.18-1.39.23C42.73 45 40.92 35.24 43 27.05Zm2.65 17.53c1.2-.23 2.6-.24 3.81-.46a19.13 19.13 0 0 0 1.84 4 28.92 28.92 0 0 1-4.84.8c-.28-1.4-.54-2.86-.8-4.34ZM52 49.42c.81 1.54 2 2.71 2.89 4.15-1 .48-1.82-1-2.42-1.84a9.39 9.39 0 0 1-1.27-2.31c.41.1.56-.26.8 0Zm-3.8.58c.07 2 1.65 3 2 4.38-2.33-.33-2.56-2.83-3.23-4.26.21-.22.81-.12 1.23-.12Zm5.3 4.84c.46.11.39.44.7.81a14.12 14.12 0 0 0 3.11 2.65A5.46 5.46 0 0 1 52 55.07c.59.13 1-.34 1.5-.23Zm1.27-.34c1.2-.38 2.41 1.07 3.35 1.84a6.51 6.51 0 0 0 3 1.62c-.53.23-1.38.15-1.84.46-1.83-.92-3.77-2.31-4.51-3.92ZM60 56.23a12.53 12.53 0 0 1-2.77-2.77c.94.34 1.39 1.29 2.43 1.84a9 9 0 0 0 8.64-.69 7.19 7.19 0 0 1-5.8 2.19c-.85-.11-1.6-.72-2.5-.57Zm6.46-12.46c.88.46 1.58-.42 2.65 0a8.13 8.13 0 0 1-.35 2.43 20.9 20.9 0 0 0-2.3-.12 22.1 22.1 0 0 1-.04-2.31Zm-1.66-6.34c0-.27-.19-.34-.11-.69 1.79-.14 4.7-.41 5.88.46-1.86.09-3.57.19-5.77.23Zm3.58 5.42h-.92v-1.73c.98-.12.92.88.92 1.73Zm-.12 4c.47.78-1.09.49-1.61.34.21-.46 1.22.19 1.61-.3Zm2 1.84h1.27a8.73 8.73 0 0 1-3.23 4.15c.37-1.12 1.7-2.33 1.92-4.11Zm-1.65-10.34c.81.11 1.89.24 2.42-.23.2 1.47-.38 3.16-.35 4.85-.48 0-.74.22-1.15 0 .14-1.92-1.28-2.87-.92-4.62ZM65 44.47v1.73a16.76 16.76 0 0 0-2.89.11 4.43 4.43 0 0 1 0-2.08 10.4 10.4 0 0 0 2.89.24Zm-.43-36.33c-1.09.62-2.22.13-3.69.46a13.9 13.9 0 0 0-3.46 2.08c-1.65 1.4-2.94 4.06-4 6.69a24.72 24.72 0 0 0-2.31 9.57c0 3.61-.4 6.77-.23 9.91.28 5.09 2.22 9.64 4.15 13.73a9.06 9.06 0 0 0 1.39 1.84c-1.7-1.35-3.15-3.93-4.39-7s-2.32-5.72-2.3-9.69c.16-.51-.39-.3-.35-.69 0-5.54.25-10.13 1.85-14.53a41.19 41.19 0 0 1 3.11-7.26c1.75-2.87 5.97-6.62 10.23-5.11ZM60.88 6c-.92.56-2.37 1.58-3.57.81 1-.49 2.34-1.37 3.57-.81Zm-2.53-1c-.3.53-.84.2-1.5.23A19.21 19.21 0 0 0 46.7 16.91c-.31.07-.91-.15-1 .11 1.07-5.48 6.06-10.29 11.07-12.34.4-.17 1.07.32 1.58.32Zm-36.9-1.58c10.18-2.2 23.55-2.18 33.21.46-.63 2.06-4.4.71-6.81.34-1.75-.22-3.54-.79-5.19-.92a64.91 64.91 0 0 0-22.6 2.08C19.87 5 21 4 21.45 3.42Zm-2.19.46c.09.5-.64 1.17-1.16 1.84a28.76 28.76 0 0 0-2.76 4.15c-.37.72-.55 1.68-1.39 2a13.86 13.86 0 0 1 3.23-6.22c.66-.81 1.16-1.53 2.08-1.77Zm-2.42.69C16 6.74 13.51 7.32 11.19 8c.99-2 3.25-2.8 5.65-3.43Zm-6.58 2.77a3.27 3.27 0 0 1-1.5 1.84c-.04-.7 1-1.3 1.5-1.84ZM8.07 10c.17-.07.6.13.58-.12-.39 1-.55 3.22-2.19 3.35A29.46 29.46 0 0 1 8.07 10ZM2.42 32.82c.08 1.55.58 3.12.23 4.73-.36-2.93-1.65-6-1.5-9.11.17-3.26 1.19-6.55 1.85-9.57A21.93 21.93 0 0 1 6.46 11C3.63 16.36 2 24.4 2.42 32.82Zm1.16-2.88c.2-.07.67.14.69-.12.44 0 .07.85.34 1 .34-.13.38-.55.35-1 1.36-.1 2.56-.36 4-.34-.08 1.46.13 2.63.12 4-1.95.05-3.44.55-5.42.58-.06-1.3-.12-2.66-.08-4.12Zm5.64 4.49c.18 1.4.38 2.78.47 4.27-1.7.11-3.48.14-5.19.23A17 17 0 0 1 3.81 35c1.98 0 3.55-.43 5.41-.57Zm-4 27c-.68-.53-.3-2.22-.35-3.23-.17-3.4-.27-7.5-.49-10.74V47h.23c.8.17.44 1.22.46 1.73.22 3.89.3 8.63.12 12.69Zm.55-16.73a1.82 1.82 0 0 1-.35-1.27c1.83.13 3.65.26 5.42.46.19 1 .45 1.93.58 3-.71-.22-1.57-.28-2.31-.47A1.42 1.42 0 0 1 9 44.93c-.32-1.16-2.45-.6-3.23-.23Zm2 16.72c-.69-.32-.42-1.29-.47-1.85-.28-3.68-.11-8.39-.11-12.11 0-.16 0-.32.11-.34h.47c.66 1.06.29 2.6.23 4-.15 3.14.13 6.32.11 9.11-.04.48.26 1.16-.38 1.19ZM9 61.19c-.77-3.53 0-8.64-.57-12.34.56.74.78 1.83 1.27 2.65a56.77 56.77 0 0 0-.47 7.84c.01.66.35 1.5-.23 1.85Zm2.77-13.5a20.5 20.5 0 0 0 2 4.85c-2.7.13-3-3.12-4-5.08a9.29 9.29 0 0 1 1.99.23ZM10.49 61c-.7-.73-.28-3.13-.23-4.38s0-2.57.12-3.8c1.31 1.18.01 5.67.11 8.18Zm1.16-.34c-.26-1.53.15-3.38.11-5.08a30.66 30.66 0 0 1-.11 5.03Zm1.26-6.92c.36-.23 1.19 0 1.62.11.08 1.93 2.25 2.37 2.54 3.7a17.57 17.57 0 0 1-4.16-3.86Zm3-5a.5.5 0 0 1-.11-.34c.13 0 .2 0 .23.11.69 1.57 1.4 3.75 2 5.07-1.36-1-1.54-3.12-2.12-4.85Zm2.19 5.65c1.18.6 1.44 2.1 2.19 3.12a7.52 7.52 0 0 1-2.19-3.13Zm1 .35c.19-.33.52.16.92 0 .6 1.06 1.27 2 1.85 3.11-1.71-.22-1.73-2.16-2.73-3.12ZM22.72 58c-.51-1.08-1.3-1.86-1.73-3 2.4-.25 2.23 2.06 3.46 3-.45.27-1.24 0-1.73 0Zm.69-2.66c2-.06 2.09 1.75 2.88 2.89-1.84-.12-2.04-1.85-2.88-2.93Zm3.92 2.89a21.32 21.32 0 0 1-1.73-2.66 9.47 9.47 0 0 0 1.73.12 15.19 15.19 0 0 0 1.61 2.42c-.31.23-1.11 0-1.61.08Zm2.67.07a16.46 16.46 0 0 1-1.61-2.53c.62-.09.89.18 1.5.11a19.82 19.82 0 0 0 1.61 2.31c-.29.26-1.06.04-1.5.11Zm2.42.12A15 15 0 0 1 30.79 56c.73-.08 1.11.19 1.84.11.37.87 1 1.44 1.39 2.31Zm2.54 0c-.48-.75-1-1.49-1.5-2.19.6-.14 1.83.09 2.77 0 .43.91 1.17 1.52 1.61 2.42a17.33 17.33 0 0 0-2.9-.23Zm5.65 12.45c-.53-1.89-.44-4.4-.81-6.46.27 0 .43.19.81.12-.01 1.67-.03 4.29-.02 6.34Zm-1.75-12.22A8.89 8.89 0 0 1 37 56.23c2.38-.34 2.72 1.35 3.7 2.42Zm2 4c1.18-1.55 2.12-3.34 3.34-4.84-.38-.48.07-1 .23-1.61.34 0 .36.26.7.23-.18-.89-.64-2 .11-3 .78 2.07-.47 4.66-1.73 6.46a8.1 8.1 0 0 1-2.69 2.79Zm9.46 6.81c.69-.08 1.23-.3 2-.35-.52.23-1.96.59-2.04.38Zm-7 .34c-.62-1.45-.11-4-.58-5.65 1.69-2.35 3.61-4.46 4-8.07a16.81 16.81 0 0 1 3.69 2.42c0 .39-.51.18-.35.69 1.33 2.27 5.94.77 8.88.93.13 2.06.52 3.86.81 5.76-5.7 1.18-11.25 2.42-16.53 3.95Zm21.22-5c-.59 0-.91.24-1.5.22-.13-1.75-.08-3.68-.35-5.3-.92 1-.35 4-.34 5.54a9.82 9.82 0 0 0-1.73.34c-.35-1.8-.62-3.68-.92-5.53a41.06 41.06 0 0 0 4.72-1.73c.58 1.89-.1 4.42.04 6.54Zm.69-.12c-.22-1.87.24-4.56-.11-6.57.21-.18.64-.13.8-.35.72 1.86.67 5.09 1.5 6.46a12.83 12.83 0 0 0-2.27.54Zm2.42-2c-.32-1.48-.61-3.56-.81-5.3a2.06 2.06 0 0 0 .47-.35c.52 2 .53 5.15.92 6.92-.48.05-.56-.69-.66-1.15Zm1-2.65c-.21-1.81-1-3.7.23-4.38.26 2.43 0 6 .23 8.07a20.32 20.32 0 0 1-.5-3.57ZM70 63.61c-.59-2.37-.18-5.74-.46-8.42.27-.08.31-.38.58-.46-.12 2.38-.12 6.36-.12 8.88Zm.81 0a39.16 39.16 0 0 0 .11-5.08c0-2.36-.41-4.58.58-5.42.14 2.69-.07 6.16.35 8.88-.67.23-.68 1.1-1.05 1.62ZM72 51.15c.49-.44.58-1.26.93-1.84.35.43-.44 1.59-.93 1.84Zm3.69-1.61c-1.2-1.58-3.09-2.5-6-2.08a8.31 8.31 0 0 1 .23-1 8.25 8.25 0 0 1 5.53 1.85c-.87-1.86-2.7-2.75-5.53-2.65.31-.43-.06-1 0-1.5h.69c.16.23.11.66.23.92.35-.11.48-.44.69-.69 2.24.8 4.11 2 5.08 4a8.66 8.66 0 0 1-.97 1.15Zm1 1.38c-.27 0-.13-.33-.34-.34.34-.28.57-.66 1-.81-.07.52-.52.69-.67 1.15Z" fill="#f5ac3a" fill-rule="evenodd" data-color="1"/>
        </g>
    </g>
</svg>
