<?xml version="1.0" encoding="UTF-8"?>
<svg data-bbox="0.001 0.081 805.891 166.719" viewBox="0 0 805.86 166.8" xmlns="http://www.w3.org/2000/svg" data-type="color">
    <g>
        <path d="M333.7 118.91h-1.17l.9.19Z" fill="#f5ac3a" data-color="1"/>
        <path d="M333.43 119.1c-.67.45-.83.39-1.61-.19h.71c-9.27-2-18.4-3.86-19.77-4.16-17.24-3.83-34.18-10.29-50.82-16.16-15.59-5.5-31.36-10.4-47.27-14.91-6.92-2-13.91-3.71-20.79-5.78-1.16-.35-16.26-3.5-15.91-2.4a4.23 4.23 0 0 0 2.05.87c1 .31 2.47.68 4.15 1.17l-.52-.66.52.66c21.85 6.31 43.59 13.31 65.59 19.25-.06-.09-.08-.2-.14-.29l1-.25c0 .19-.13.66-.39.68 14.32 3.92 28.66 9 42.73 13.73 14.76 5 29.72 7.78 44.79 11.58a3.14 3.14 0 0 1 1.67-.3l.7-1.22a10 10 0 0 1 1.8.35 1.78 1.78 0 0 1-1.09 1.92c1.36.3 12.27 2.54 12.72 1.1.18-.49-9.91-2.79-20.12-4.99Zm-116.6-32.94c.67-.3.91-.69.88-1.12a4.81 4.81 0 0 0-2.05-.79 4.6 4.6 0 0 0-.84 0 4.6 4.6 0 0 1 .84 0 4.81 4.81 0 0 1 2.05.79l1.83.64c-.43 1.47-2.27 2.62-2.71.48Z" fill="#f5ac3a" data-color="1"/>
        <path d="M134.61 70.48c.43-.14.86-.24 1.21-.36C131 67.93 73.37 54.8 73 57.2c-.3 2.19 27.87 7 30.8 7.6 6.2 1.3 12.31 2.2 18.4 3.8 1.93.52 15.41 3.43 14.69 2.27-.72-.11-1.44-.25-2.28-.39Zm-46.05-9.67a2.35 2.35 0 0 1-1.2-.44c1.31-.54.9-.58 2.4 0a3.65 3.65 0 0 1-1.2.44Zm27 5.75a2.76 2.76 0 0 1-.74-.18c-.15-1.18 2.91.14.77.18Z" fill="#f5ac3a" data-color="1"/>
        <path d="M146.46 73.57c-.21.72 5.66 2.18 6.09 2.3.51-.36 1.95.23 1.68.49 14.67 4.27 29.34 8.51 44.19 12.13a8.35 8.35 0 0 1 1.58-1.35c.7 0 2.89 1.08 1.19 2 8.39 1.94 16.45 4.78 24.7 7.16-.34-.65 2.35-.61 2.19-.6v-.53c-.74-.24-.74-.27 0-.52a2.56 2.56 0 0 0 .11-.24c-24-7.14-48-15.11-72.64-19.9-.55-.13-8.82-1.85-9.09-.94Z" fill="#f5ac3a" data-color="1"/>
        <path d="M300.59 118.32c-15.89-4.67-31-11.54-46.91-16.09-.48.08-1.3.26-1.5-.42-7-1.84-13.7-4.28-20.57-6.39-.05.64-.41 1.43-.76.07l.05.05a1.72 1.72 0 0 1 .17-.28l-1-.31c-.21.15-.38.31-.32.52s-.7.31-.94.31a.37.37 0 0 1-.15.19 15.56 15.56 0 0 1 2.45 1l-.46.26c0 .41-.37.45-.39 0l-2.14-.48a4 4 0 0 1-.47.11c20.92 5.92 41.29 13.18 62 19.83.34-.72 1.89.24 1.31.42 3.36 1.07 6.72 2.15 10.1 3.16a2 2 0 0 1-.47-1.95Zm-52.25-16.22a.82.82 0 0 1 .73-.16Zm45.48 15.42c-.05-.24.14-.42.6-.45.9-.07.25.77-.6.45Z" fill="#f5ac3a" data-color="1"/>
        <path d="m231.07 95.26.54.16c.04-.48-.09-.87-.54-.16Z" fill="#f5ac3a" data-color="1"/>
        <path d="M333.09 125.84s-2.95 1.84-3.54.74a3.2 3.2 0 0 1 1.72-1.06l-1.4-.25a1.64 1.64 0 0 1 .16.29c-1.62-.24-3 .3-4.48.38v-1.45c-7.81-1.51-15.84-3.54-23.49-5.73.07.21.14.41.22.62a8.94 8.94 0 0 1 1.25.18c1.37.45 1.4 1 .09 1.46a301.17 301.17 0 0 0 31.22 7.39c2.32.41 29.71 7.05 30.2 5.87 1.03-2.43-30.82-8.28-31.95-8.44Z" fill="#f5ac3a" data-color="1"/>
        <path d="M340.27 115.77c-2.74-.6-27.95-6.36-28.21-5.06a2.5 2.5 0 0 0 1.57 1.65c5.63 3.44 13.06 3.32 19.37 4.21 3.12.44 15 .6 17 3.21h.12a7.28 7.28 0 0 1 4-.83c-4-.78-7.87-1.86-11.83-2.74-.29.2-2.88.63-2.02-.44Z" fill="#f5ac3a" data-color="1"/>
        <path d="M350 119.81h.09-.3l.43.13-.09-.18Z" fill="#f5ac3a" data-color="1"/>
        <path d="M361.56 120.62c-1.37.44-2.94.64-3.64-.91l-3.64-.73a4.78 4.78 0 0 1 0 1.25.88.88 0 0 1-.51.73c1.08.29 10 3.54 10.66 1.6.41-1.02-2.43-1.79-2.87-1.94Z" fill="#f5ac3a" data-color="1"/>
        <path d="M317 73.12c1.21.22 2.41.47 3.61.7-1.23-.33-2.47-.65-3.71-1a.52.52 0 0 1 .1.3Z" fill="#f5ac3a" data-color="1"/>
        <path d="M362.4 86.42c1.5.39 3 .75 4.43 1.1 11.8 2.89 23.66 5.56 35.45 8.49l.06-.11v-.32a7.08 7.08 0 0 1 3.05.8 2.79 2.79 0 0 1 1.87 0c-.14.47-.51.64-1.13.52l2 .42a2 2 0 0 0 .22-.86c-15-2.79-29.75-7-44.49-10.74a3.91 3.91 0 0 1-1.46.7Z" fill="#f5ac3a" data-color="1"/>
        <path d="M409.29 96.63a1.65 1.65 0 0 1 .12.93c3.44.65 50.89 11.13 51.77 8.57-.24.65-48.13-8.82-51.89-9.5Z" fill="#f5ac3a" data-color="1"/>
        <path d="M360.06 84.67c-10.39-3-20.86-5.79-31.31-8.64h-.09l-.07-.08c-4.35-1.27-9-2.83-13.51-2.9a.71.71 0 0 1 .67-.51q-12-3-24.06-6c-3.92-1-7.81-2.11-11.79-2.9-.57-.11-8.16-.59-8.57-1.05 2 2.4 15 4.07 18.34 5 7.19 1.94 14.46 3.62 21.68 5.44 16.57 4.16 33.06 8.61 49.56 13a2.2 2.2 0 0 1-.85-1.36Zm-38.5-9.62c-1-.28-1-.56 0-.85.95.27.95.56 0 .85Z" fill="#f5ac3a" data-color="1"/>
        <path d="M178.82 45.79v.05h.16Z" fill="#f5ac3a" data-color="1"/>
        <path d="M179 45.87c.26.13.48.26-.1.41 0-.15 0-.3-.05-.45-10.94-2.09-19.45-3.63-19.48-3.4-.35 3.24 62.52 10.86 68.3 13.44a3.56 3.56 0 0 0-1.8-.62c-2.87-.73-28.31-5.83-46.87-9.38Zm4.32 1.46c-.08 0-.09-.11-.14-.16.21-.12.37-.09.47.11a1.65 1.65 0 0 1-.35.05Z" fill="#f5ac3a" data-color="1"/>
        <path d="M227.64 55.88a4.58 4.58 0 0 1 .42.35c.01-.1-.14-.23-.42-.35Z" fill="#f5ac3a" data-color="1"/>
        <path d="M466.56 110.21c-21.44-5.31-43.78-7.34-65.4-12-21.36-4.64-42.64-10.4-63.66-16.37-.45.27-3.94.36-2.86-.79-7.64-2.05-94.91-26.96-96.36-22.7.11-.31 54.07 12.95 60.16 14.39C319.3 77.66 340 83.63 360.72 89c19.85 5.13 39.63 9.92 59.75 13.89 5.67 1.12 53.56 11.52 54.31 9.88.22-.41-8.33-2.58-8.22-2.56ZM256.81 62.47l-1.19-.34c1.06-.47 2.59.11 1.19.34Z" fill="#f5ac3a" data-color="1"/>
        <path d="M378.72 61.41c-4.76-1.09-9.48-2.32-14.23-3.43-1.69-.39-10.54-.86-11.18-1.67 1.37 1.76 9.17 2.46 11.46 3.1a376.45 376.45 0 0 0 15.47 3.92c9.85 2.27 19.73 4.43 29.57 6.74a8.6 8.6 0 0 1 2.33-.79l-2.64-.65c-10.25-2.44-20.5-4.87-30.78-7.22Z" fill="#f5ac3a" data-color="1"/>
        <path d="M472.16 83.53c-9.88-2.46-19.86-4.62-29.77-6.93-5.76-1.34-11.47-2.91-17.24-4.21-3.31-.75-10.25-3.83-13.32-1.84 21 5 42.22 9.27 63.14 14.58 3.95 1 54.71 14.52 55.53 12.24a3.09 3.09 0 0 0-1.69-.68c-18.66-5.18-37.81-8.48-56.65-13.16Z" fill="#f5ac3a" data-color="1"/>
        <path d="M268.68 37.69a1.46 1.46 0 0 1-1.63-.41c-1.57-.4-17.31-4.55-17.49-3.48-.54 3.29 63.69 14 63.48 15.8.17-1.52-39.7-10.73-44.36-11.91Z" fill="#f5ac3a" data-color="1"/>
        <path d="M535.88 95.8a1 1 0 0 1 .33.63c-1.4-.24-1.58-.29-1-.78-3.75-.74-46.63-10.14-46.62-10.29-.26 2.67 51.82 12.25 51.91 11.94.16-.69-5.15-1.61-4.62-1.5Z" fill="#f5ac3a" data-color="1"/>
        <path d="M348.71 31.43a3 3 0 0 0 1 .12l-1-.16Z" fill="#f5ac3a" data-color="1"/>
        <path d="M330.15 27.42a4.7 4.7 0 0 0 2.43 1.06c1.63.46 8.09 1.58 16.14 2.91l.21-.75c1.1 0 1.5.32 1.56.81a3.22 3.22 0 0 1-.75.1c17.23 2.84 40.91 6.54 40.88 7 .19-2.5-60.52-10.79-60.47-11.13Z" fill="#f5ac3a" data-color="1"/>
        <path d="M399.56 40.4c0-.13 23 6.48 24.93 6.43l-.1.12c.12 0 6.82 1.53 6.81 1.69l4.18 1c.56-.81 1.65-.95 3.55-.65-4.52-1.24-38.75-10.49-39.37-8.59Z" fill="#f5ac3a" data-color="1"/>
        <path d="M440.25 49.87a6.91 6.91 0 0 1-1.48.62c15.77 4.19 31.57 8.2 47.26 12.66a6.2 6.2 0 0 1 1.56-.53l.15.05a3.81 3.81 0 0 1 .75 0c-16-4.66-32-8.93-48.07-13.28.12.13.06.31-.17.48Zm16.39 4.31c.15 0 .17.21.25.33-.5.26-.7.12-.95-.25a2.75 2.75 0 0 1 .7-.08Z" fill="#f5ac3a" data-color="1"/>
        <path d="M524.88 72.54c-.41.3-2.19-.22-1.76-.51-11.22-3.31-22.64-5.87-33.86-9.15a1.89 1.89 0 0 1 .55.5 3.18 3.18 0 0 1-2.07-.71l-.15-.05a6.2 6.2 0 0 0-1.56.53c19.92 5.67 40.08 10.9 60.23 15.68 6 1.42 59.46 14.66 60.42 11.29-.68 2.27-74.39-15.4-81.8-17.58Z" fill="#f5ac3a" data-color="1"/>
        <path d="M554.83 74.61C554.51 77.7 570.4 78 572 77.79l-2.74-.5c-.87-.18-14.36-3.39-14.43-2.68Z" fill="#f5ac3a" data-color="1"/>
        <path d="M567.82 78.43c2.55.44 35.61 7.09 35.92 5.72 0 0-29.23-5.9-31.48-6.31a13.34 13.34 0 0 1-4.44.59Z" fill="#f5ac3a" data-color="1"/>
        <path d="M402.27 21.34c-.21 2.54 54.54 7.51 58.48 9.47a2.65 2.65 0 0 0-1.65-.66c-4.21-1.15-56.75-9.81-56.83-8.81Z" fill="#f5ac3a" data-color="1"/>
        <path d="M460.75 30.81c.07.07.16.13.23.21s-.08-.13-.23-.21Z" fill="#f5ac3a" data-color="1"/>
        <path d="M638.22 73.43c-1-.27-2.18-.5-3.38-.71Z" fill="#f5ac3a" data-color="1"/>
        <path d="M555.22 53.56a1.46 1.46 0 0 1-1.94-.1.81.81 0 0 1 .45-.32c-10.54-3-21.1-6.07-31.73-8.7a1 1 0 0 1-.48.26 1 1 0 0 0 .48-.26c-5.52-1.36-51.6-14-52.34-11.68.29-.93 92.82 23.8 99.27 25.41.28-.65 2.39-.35 1.24.34 11.71 3 23.41 6.15 35.2 8.81 5.92 1.33 11.85 2.5 17.79 3.75 2.16.45 7.26.91 11.72 1.69-10.9-2.29-20.66-4.36-23-4.86-19.01-4.12-38-9.04-56.66-14.34Z" fill="#f5ac3a" data-color="1"/>
        <path d="M638.22 73.43a10.22 10.22 0 0 1 4 1.68v.07c2.17.42 27.87 5.91 28.29 4.63-.03.28-16.66-3.12-32.29-6.38Z" fill="#f5ac3a" data-color="1"/>
        <path d="M620.41 64.35c-.26 2.85 47.59 9.44 47.59 9.39.15-.65-47.58-9.55-47.59-9.39Z" fill="#f5ac3a" data-color="1"/>
        <path d="M270.89 124a16.12 16.12 0 0 0-2 2.63c.31.25-.13.47-.34.52a12.47 12.47 0 0 1-1.53 2.62.82.82 0 0 1 .13.38l-.43-.08c-2.07 1.87-14.46 21.08-12.7 22.1.87.5 11.27-15.12 13-17.19-.52 2.48-12 19.55-11.18 20.28 1.38 1.23 9.29-10.45 10.37-12 3.83-5.34 7.54-11 8.31-17.57.13-1.18-2.96-2.97-3.63-1.69Zm-14 24.06c-2.28-1.42.66-.91.79-.61Zm12.19-15.25a2.27 2.27 0 0 1-1.12-.49c-.79-.35-1.79-1-.1-1 0 .34.07.69.1 1a2.27 2.27 0 0 0 1.12.49 3.25 3.25 0 0 0 .44 0 3.25 3.25 0 0 1-.42.01Z" fill="#f5ac3a" data-color="1"/>
        <path d="M86.19 53.05c-9.38-2-19.91-5.79-29.56-5.73 3.76-.4 7.74-.84 11.9-1.32-.23-.25-.47-.51-.72-.8 3.55-1.56 1.76-1.91 3.45-4.06-16.73 2.27-34.61 3.1-50.8 8.08-.2-.41-.42-.68-.62-.62C17 47.34 6.08 48.79 3.33 50c-4.59 2-1.39 1.77 1.88 1.91 2.72.12 5.56-.27 8.34 0-2.3 1.86-7.22.87-9.73 2a9.32 9.32 0 0 0 3.35.18c2.84 1.41-4.53.27-4.33 0-2.4-.1-4.33.33-1.24 1.72 1.43.64 5.15.29 6.85.29 3.22 0 10 0 12-3.16a1.81 1.81 0 0 1-1.64.06c-.94-.66 3.34-1.27 3.52-1.24l-1.25-.26A4.66 4.66 0 0 0 21 51c11.54-1.42 23.11-2.4 34.68-3.61-.39.12 9 4 10 4.22.43-.32 4.49-.35 4.65.4l-1 .51c21.88 5.52 44.55 8.45 66.61 13.34-.55-1.12.2-1.31 1.67-1.51-16.06-2.91-31.89-7.11-47.84-10.54-.98.83-4.7 1.29-3.58-.76Z" fill="#f5ac3a" data-color="1"/>
        <path d="M376.52 67.17h1.72c.88.16-3.14-.66-1.72 0Z" fill="#f5ac3a" data-color="1"/>
        <path d="m383.77 11 .77-.1.08-.06-1 .09Z" fill="#f5ac3a" data-color="1"/>
        <path d="M569.48 80.48a7.27 7.27 0 0 1-.66-.53 7.27 7.27 0 0 0 .66.53Z" fill="#f5ac3a" data-color="1"/>
        <path d="M568.82 80a7.27 7.27 0 0 0 .66.53 7.27 7.27 0 0 1-.66-.53 5.37 5.37 0 0 1-.52-.57c-11.77-2.57-23.47-5.39-35.21-8a6.21 6.21 0 0 1-.89.66c4.13.91 61.22 16.17 62.2 12.85 0 .14-23.94-5-26.1-5.47a5.37 5.37 0 0 0 .52.53Z" fill="#f5ac3a" data-color="1"/>
        <path d="M436.8 52a1.53 1.53 0 0 0-.23.71c.8.17 1.31.22 1.46.11s-.24-.46-1.23-.82Z" fill="#f5ac3a" data-color="1"/>
        <path d="M588.24 37.81c.42.53.32 1-.3 1.49 5.57.93 11.16 1.74 16.74 2.65a6.49 6.49 0 0 1 2.37-1c-2-.35-4-.69-6-1-4.27-.68-8.54-1.4-12.81-2.14Z" fill="#f5ac3a" data-color="1"/>
        <path d="M139.07 66.54c.87.17 1.73.36 2.59.55a2.63 2.63 0 0 1-.27-.56 3.29 3.29 0 0 0-2.32.01Z" fill="#f5ac3a" data-color="1"/>
        <path d="M516.77 67.37a1.27 1.27 0 0 0 .61-.1l-1-.27a12.45 12.45 0 0 0-3.34 0c-.08-.3-.15-.6-.23-.9-6.16-1.58-12.2-3.54-18.35-5.13-1.12 1-2.07 1-2.6-.69-2.11-.56-4.22-1.16-6.31-1.8v.09c-.86.13-1.63.36-2.44.56 15.16 4.21 30.36 8.64 45.7 12.14 1.06-.06 2.12-.11 3.19-.15-4.93-1.1-9.76-2.52-14.63-3.83a1.27 1.27 0 0 1-.6.08Z" fill="#f5ac3a" data-color="1"/>
        <path d="M559.43 33.83c1.59 1.9 9.24 1.88 11.87 2.45 4.57 1 9.14 1.8 13.76 2.54a1.13 1.13 0 0 1 .9-1.4c-4.23-.73-8.46-1.38-12.68-2.14-1.75-.28-13.28-.83-13.85-1.45Z" fill="#f5ac3a" data-color="1"/>
        <path d="M199.7 122.35a1.5 1.5 0 0 1 .32-1.25c-.89.43-5.91 4-5.57 4.6.85 1.52 4.78-1.72 5.71-2.21a2.48 2.48 0 0 1-.73-.08c-.95-.27-.08-.83.27-1.06Z" fill="#f5ac3a" data-color="1"/>
        <path d="M527.29 67.54a3.21 3.21 0 0 1-2.89-.43 12 12 0 0 0 1.3-.37l-2.33-.62a1.15 1.15 0 0 1-1.12 0 1.63 1.63 0 0 1-.47-.41l-2.9-.78a3.3 3.3 0 0 0-1.91.62c2.65.76 29.91 9 30.57 7.28.09-.24-18.77-5.29-20.11-5.64a.67.67 0 0 1-.14.35Z" fill="#f5ac3a" data-color="1"/>
        <path d="M398 43.6a7.18 7.18 0 0 0-.92-.2Z" fill="#f5ac3a" data-color="1"/>
        <path d="M316.86 70.16a3.12 3.12 0 0 1-1.51.5c15 3.58 29.77 8.52 44.78 12.31a1.69 1.69 0 0 1-.57-1.2c-14.33-3.51-28.36-8.22-42.7-11.61Z" fill="#f5ac3a" data-color="1"/>
        <path d="M298.6 38.7c.19.13 1.17.53.87.92a4.31 4.31 0 0 1-1.64.38c35.83 8.66 72.3 15.93 107.78 25.91 0-.13.1-.29.18-.49-.07-.13-.17-.27-.26-.41-35.32-9.72-71.36-17.5-106.93-26.31Zm102 25.66.23-.08v.13Z" fill="#f5ac3a" data-color="1"/>
        <path d="m312.64 70 .65.16-.21-.17Z" fill="#f5ac3a" data-color="1"/>
        <path d="m439.86 73.75-.75.32c4.89 1.13 9.74 2.43 14.62 3.6a1.26 1.26 0 0 1 1 .07l-.13.14c2.17.52 25.6 7 26.13 5.6 0 .11-37.37-9.52-41-10.34.06.21.09.41.13.61Z" fill="#f5ac3a" data-color="1"/>
        <path d="M428.18 49.27c.58-.1-4.58.22-2.15-.59-1-.26-3.77-.49-4.73-1.19-1.5-.34-18.34-4.44-18.54-2.84 10.63 2.27 21.07 4.74 31.6 7.47v-.06l.36-.88c-2.17-.72-4.35-1.32-6.54-1.91Z" fill="#f5ac3a" data-color="1"/>
        <path d="M295.44 166.76a13.29 13.29 0 0 0 1.48-.82 17 17 0 0 1-2.3-.28c-.21.46.3 1.34.82 1.1Z" fill="#f5ac3a" data-color="1"/>
        <path d="M141.89 65.14a.42.42 0 0 1-.16.17c-.28.2-.73.63-.47 1 0 0 3.05.58 1.4 1 1.59.36 21.54 6.25 22 4.36.57-2.2-20.66-6.13-22.77-6.53Zm11.87 3a1.24 1.24 0 0 1 1.46.5c-.01 1.13-3.31-.2-1.46-.5Z" fill="#f5ac3a" data-color="1"/>
        <path d="M777.58 67.21c1.44-.23 5.18-.86 6.76-1-1.87-.16-5.04.7-6.76 1Z" fill="#f5ac3a" data-color="1"/>
        <path d="m186 68.22-.38-.1c0 .1.16.12.38.1Z" fill="#f5ac3a" data-color="1"/>
        <path d="M91.79 89.49a.92.92 0 0 0 .72-.25l-.94.17Z" fill="#f5ac3a" data-color="1"/>
        <path d="M425.62 16.89a6.39 6.39 0 0 1-1.56-.52 2.3 2.3 0 0 0 1.56.52Z" fill="#f5ac3a" data-color="1"/>
        <path d="m20.75 53.14-.23-.08c-.74.21-.41.2.23.08Z" fill="#f5ac3a" data-color="1"/>
        <path d="M607.67 42.44c17.76 2.9 35.76 5.24 53.72 7.83-18.11-2.69-36.12-6.18-54.16-9.3a8.55 8.55 0 0 0 .44 1.47Z" fill="#f5ac3a" data-color="1"/>
        <path d="M788.17 62.16c-1.34-.37-2.67-.64-4-1a1 1 0 0 1-1.6-.36L765.9 57c-1 3.17-3.4.33-5.66 1.14-.16.41-1.27 1.47-1.61.62s1.61-.83 1.73-.83c.68-1-1.87-1.27.36-2.12l-3.72-.88c1.36-.45 14.2-4 13.86-5-.2-.54-11.93 2.86-13.18 3.12 1.58-1.08 13.78-4.19 13.72-4.93-.14-1.8-18.24 4.74-19.71 5.57-11.69-2.69-23.44-5.31-35.17-7.8.87-.57 10-2.52 9.48-3.82-.13-.33-10.23 2.55-11.37 2.74 1.07-.76 11.79-3.87 11.68-4.54-.21-1.29-14.55 3.57-16.12 4.28l-2.37-.5c0 .22-2 1-2 .13a1 1 0 0 1 .74-.39l-14.87-3.14c.82-.36 1.76-.86 2.57-1.28a3.75 3.75 0 0 1-1.25-.53 3.68 3.68 0 0 1 2.25 0c2.51-1.16 7.35-4.31 8.77-4.82-3.2 1.16-6.36 2.4-9.6 3.48.9-1 10.16-4.71 10.12-5-.11-.7-15.8 3.23-15.58 7.53l-4.34-.92v.09h-.9l.35-.21c-12-2.6-24-5.43-36-8.17 1.35-.26 12-2.09 11.63-3.33-.09-.25-12.93 2.19-14.26 2.3 1.74-.84 15-3 14.89-4.11s-18.18 3-19.9 3.42c-4.78-1.07-9.56-2.12-14.35-3.12.43 2.77-1.83 5.5-3.24 2.09-2.31-.31-2.31-.31-.91-1.32 1.18-.09 1.21-.49 1-.94a1.75 1.75 0 0 0 .79-.31l-1.19-.25a9.1 9.1 0 0 1 1-.39c-.21-.24-.42-.48-.61-.73-1 .37-2.08.2-3.08.57l-2.29-.45c1.57-.52 3.27-.46 4.79-1.11a1.9 1.9 0 0 1-.12-.91c-3.23.14-6.5 1.14-9.74 1-11.4-.45-23.42-4.16-34.78-5.69 3.48-.38 6.93-.56 10.4-1.2-.93-1.38 2.46-.71 2.65-.54.51-.12 5-1.16 4.83-1.78-.06-.2-13.25 1.68-14.6 1.74 1.71-.72 15.27-3.75 15.21-3.81a4.87 4.87 0 0 1-.54 0v-.06c-2.59.34-23.55 1.85-23.12 5-13.07-1.66-26.17-3-39.25-4.45 1.2-.24 11.63-2.21 11.27-3.38-.11-.34-10.55 1.78-11.71 1.88 1.14-.68 12.22-3 12.17-3.65C545 6 530 9.78 528.34 10.4a.53.53 0 0 1-.12.32 7 7 0 0 1-.87.12 4.62 4.62 0 0 0-1 .8c-2.88-.35-5.76-.76-8.63-1.09h.24a8.92 8.92 0 0 0-4-.39c0-.07 0-.13-.05-.19-5.28-.8-10.52-1.78-15.76-2.8l.47.2c-.36.18-1.15.44-.48-.2l-2.82-.55c2.4-.43 26.41-3.2 26.05-4.5-.18-.68-8.5 1.06-9.49 1.16l.14.23c-.35.07-2.31.54-2.41 0-2.75 0-5.57.73-8.33.92 2-.7 21.18-2.87 21.31-4.08 0-.37-24.82 2.61-27.3 3.28.05.14.09.29.15.48-.79.67-1.72 1.19-2.33.05-.8.21-2.89.64-3.4 1.49-1.9-.34-3.82-.64-5.74-.89 1-.2 9.24-1.53 8.85-2.81-.09-.31-7.36 1.08-8.3 1.11.83-.64 8.58-2.25 8.5-2.82s-14.32.31-13.2 4.05a126.34 126.34 0 0 0-21 0 2.49 2.49 0 0 0 .94.52 1.59 1.59 0 0 0 .34.06 1.59 1.59 0 0 1-.34-.06 2.49 2.49 0 0 1-.94-.52c-24 1.72-47.86 4.28-71.8 6.32l.19.05 1.07 1c-1 .09-1.59.35-1.57.88 2 1.29-2.13 2.18-2.34 2.2-3 .31-3-2-4.4-3.51-10.56.89-20.87 1.82-30.87 2.74-3 2.38-13.45 1.25-17.49 1.62q-9.24.84-18.48 1.63c-.48 1.26 1.67 1.49 1.76 2.56.93.28 1.77 1.1.73 1.81l.86-.08a79.92 79.92 0 0 0 8.85 2.83 3 3 0 0 1 2.72-.46 1.74 1.74 0 0 1-1.33.83c6.15 1.6 89.38 16 89.31 16.25.21-.93-89.53-17.85-96.66-19.71l6.47-.6c16.83 5.63 34.88 6.66 52.3 9.68.22-1.29 2.65-1.35 3.45-.67-.1.42-.19.84-.29 1.26 19.33 3.89 37.78 8.89 56.65 14.64-1.12-.29-8.93-.74-9.38-1.37.87 1.22 6.16 1.75 7.48 2.11-.43-1.14 3.26 0 1.9.54 14.16 4.4 28.61 7.81 42.92 11.67.92-1.09-2.55-2.89-.85-4.42 1.07-1 4.73 2.51 5.68 2.92 0 .41-.06.82-.1 1.23 1.13.24 8 .65 8.67 1.8 5.91 1.18 11.66 2.37 17.48 4-.05-.07-.09-.14-.14-.2-1-.58-1.21-.69-.78-1.16l-1.4-.38 1.5.27.29-.28 1.78.24a2.49 2.49 0 0 1 2 .17c.6.06 3.34-.05 3.72 1.06a6.35 6.35 0 0 1 1.17.51l1.66.32a.34.34 0 0 1 0-.1l1.79.44c20.58 3.94 41.25 7.48 61.83 11.42 18 3.46 36 7.82 54.36 9q-15.78 2.42-31.53 4.94c-8.43 1.36-15.42-.18-23.76-1.69q-24-4.35-47.69-10.22c-6.19-1.55-85.44-26.31-86.74-23.58-.09.2 65.35 19 70.17 20.29 0 0 3.19-1 3.34.07.06.46-1 .49-1.21.48l11.11 2.9c-12.48-2.14-24.86-4.85-37.31-7.21 2.26 1.79-.14 4.39-.12 6.44-6.94-1.6-1.8-3-2.09-4a36 36 0 0 1-2.07-3.27c-22-4.11-43.59-8.57-65.16-14.63-22.17-6.22-44.1-13.74-66.51-19.07 9.67 1.53 19.39 2.89 29 4.79h.13c3.57.4 6.54 1.49 10.27 1.42-17.41-3.88-35-6.84-52.54-9.95s-34.46-7.48-52-9.76c6.32-.51 12.77-1 19.21-1.62a.71.71 0 0 1-.38-.79c-.58-.17-4-.9-4.32-1.57-.45-.85 1.45-1.5 1.72-2-24.72 2.06-49.48 3.53-74.2 5.49a2.67 2.67 0 0 1 .57 1.14h-1.83l-.88-.44h-4.44l.3-.2-27.15 2.17a5.43 5.43 0 0 0 2 .75c-.43 1.47-2.27 2.62-2.71.49.68-.3.91-.69.89-1.13l-.19-.11c-31 2.49-61.86 5.09-92.65 9.89-.35.87-2.27.73-2.89.45Q90.14 38.63 72.45 41a1.62 1.62 0 0 1 1 1.59c3 .23 4-1.54 6.65-1.89.15.11 2.21.81 2.19.93a8 8 0 0 1-4.22 1.24 2.85 2.85 0 0 0 1.2 1.44 2.13 2.13 0 0 0 .56.23 2.13 2.13 0 0 1-.56-.23 2.8 2.8 0 0 1-1.2-1.44l-4.47.43c-1.51 1.2 1.89 2.1-.08 3.06 1.73.5 15.13 2.46 15 2.3l-1-.71a3.22 3.22 0 0 1-2.47-.28l1.27-.54c2.59.05 2.59.05 3.72-1.22 1.61.07 2.15.91 1.63 2.54A2.77 2.77 0 0 0 90.52 50a95.83 95.83 0 0 1 11 2.1c-.06-.07-.09-.18-.14-.25.51-.29.84-.21 1 .25-.17 0-.36.07-.53.08C145.34 63.62 191 69.29 233.19 85.59c-.59-.4-2.28-1.06-.27-1.14 0 .34.07.68.11 1a2.66 2.66 0 0 0 1.56.52h-.37c6.46 2.38 69.63 24.46 70.39 22.5.54-1.43-41.79-15.28-46.35-16.63C264 93.47 270.82 96 276.82 96a12.36 12.36 0 0 0 2.06-.2h.08c.47.22.38.52.47.79 5.2 1.19 10.4 2.44 15.6 3.64.77-.11 3-.82 2.78.66 38.74 9.24 78.15 18.79 117.65 24.1-18.49 3.74-37.12 7-55.31 12.13-13-4.09-26.75-5.74-40-8.53a265.43 265.43 0 0 1-39-11.23c-22.76-8.52-45.9-16.35-69.32-22.86-.17.9-1.79.16-1.07-.3-1.16-.31-11.11-3.6-11.51-2.55-.95 2.42 34.3 12.35 37.13 13.15.3-.1 2.49-.2 2.17.66 7.28 2.31 14.64 4.68 21.87 7.17l-23.53-6.07a1.42 1.42 0 0 1-1.34-.35c-45.35-11.7-90.47-24.17-136-35.38a6.18 6.18 0 0 1-2.42-.17l-.59.15c.32-.1.36-.17.55-.17a1 1 0 0 1 .37-.32l-3.94-1a8.61 8.61 0 0 1-2.69.44 18.2 18.2 0 0 1 2.64-.45l-1.4-.31 5.62 1.24c.3-.09 2.11-.14 2 .41 14.73 3 29.52 5.72 44.12 9.37 6.64 1.66 13.37 2.75 20 4.36 3.16.76 20.91 7.94 22.69 5.83 1-1.22-16.79-6.59-18.5-7-7.17-1.69-14.48-2.5-21.62-4.25-15.58-3.81-31.12-7.63-46.77-11.2a1.28 1.28 0 0 1-2.53-.17 2 2 0 0 0 .51-.31c-3.23-.82-6.49-1.63-9.77-2.23a1.16 1.16 0 0 1-1-.19q-1.29-.23-2.58-.42c.75.26 1.06.41 1 .59a2.94 2.94 0 0 0-2-.75l-.49.14-4.61.91c0-.3-.09-.6-.13-.9l2.86-.43 1.83.42.49-.14c-3-.46-12.13-3.12-15.12-1.3C53 59.17 37.94 55.05 22.7 51.83c1.73.43-.71 1.09-1.95 1.31.88.32 1.86.67 3 1a2.72 2.72 0 0 1 2.53-.83c.59.06.81.32.65.78l-1.93.53q3.7 1.26 7.42 2.46c-4.42 2.59-14.8 2.65-17.67 7.73-1.62 2.87 4.46-.38 5.9-.9A56 56 0 0 1 29 61.37c-2.48 2.92-8.41 4-11.49 6.21-1.41 1-4.87 1.63-1.29 2.09a14.81 14.81 0 0 0 6.18-1.77c-.12-.37-.24-.75-.37-1.12a4.47 4.47 0 0 1 3.8 0c2.65-1.07 12.51-3.76 11.66-8 3 1 7.78.48 10.24 2a1.53 1.53 0 0 1-1 .9c6.54 2 13.62 5.22 20.54 5.47 2.16-1.16 3.11-.28 5.28 0 0 .18 0 .36.08.54l-3.37.14L69 68h-1l1.18.34c-1.92.52-12.83 4-8.45 4.85 2.88.54 8.26-2.42 11.52-2.64a3.14 3.14 0 0 1-1.55.66c.2.16 0 .34-.53.54 0-.13 0-.26-.08-.39-2.22 1-4.43 2-6.56 3-1.71.79-5.84 1.58-2.52 2.63 3.08 1 11.28-2.09 14.3-3.43a4.74 4.74 0 0 0-1-.7 17.34 17.34 0 0 1 2.19 0 12.1 12.1 0 0 0 2.45-1.78c6.42 1.92 13.12 3.72 20.32 5.68.47-.31 4-1.83 2.56.7l6 1.64c-3.33 1.16-21.54 2-22.46 6.57-.47 2.34 6.72-.87 8.1-1.19A64.16 64.16 0 0 1 103 83c-2.79 2.12-17.69 4-18.29 6.73-.17.77 3.31.34 6.88-.3l-1-.35a1.38 1.38 0 0 1 2 0 .25.25 0 0 1 0 .15c2.82-.53 5.49-1.13 6.22-1.3 3.13-.74 15.63-2.4 14.36-7.43q14.16 3.81 28.34 7.57c-4.19 2.84-10.42 6.16-13.22 10.56a2.48 2.48 0 0 1 1 .37 2.59 2.59 0 0 1-1.63.68c-3.5 4.74 2.63-.09 4-1.16a49.13 49.13 0 0 1 6.57-4.44c-.71 1.94-4.67 5.26-6.1 6.68-2.2 2.2-6.51 5.68-1 3.41 3.33-1.36 17-10.94 13.18-15.35q12.54 3.33 25 6.85c1-.32 2.1-.62 1.91.54l6.78 1.94c-2.81.77-5.84 1.34-8.67 2.3-2.06.7-7.17 2.24-3.4 3s10.18-2.16 14.38-2.43c-1.85 1.59-7.07 2.56-9.34 3.28-2.57.82-10.71 2.21-4.12 3.25 4.41.7 19-2.46 21.78-6.4q13.32 3.72 26.69 7.27c-2.73 1.14-24.05 10.87-21.64 13.84.13.16 15.78-8.31 17.79-9-2.06 2.33-8.43 6.43-11.16 7.65.64-.14 1.33.07 1.2.82a.9.9 0 0 0-.28.35 3.28 3.28 0 0 1-.58.15.92.92 0 0 1 .3.89c6.38-2 17-7.54 21-13 8.12 2.11 16.25 4.17 24.37 6.26-2.73.5-11.8 6.53-12.92 9.19-1.53 3.65 2.71 0 4.6-1.08a56.5 56.5 0 0 1 7.92-4.31c-1.44 2.62-6.56 5.42-8.84 7.26-5.37 4.32-2.22 2.38 1.9 1.3-2.45-.77 1-3.42 2.4-1.57 3.48-2.6 10.47-4.11 11.93-9 19.06 4.88 39.59 9.27 56.17 20.36a1.1 1.1 0 0 1 1.22.2.9.9 0 0 1-.58.24c3.68 2.6 6.92 5.75 10.83 8a67.7 67.7 0 0 0-26.55 14.64c.65.12.63.3.37 1.06 1 .55 10.79-6.41 12.42-7.19a75.84 75.84 0 0 1 13.13-5c-6.74 4.93-15.62 8.89-22.87 13.24 0 .6 0 1.19.05 1.79 11-4.48 21.68-10.57 32.88-15.11 8.49 1.45 16-1.67 23.82-4.36a263.25 263.25 0 0 1 25.43-7.1c19.25-4.51 38.71-8.17 58.08-12.08q27.92-5.61 55.89-10.85 14.65-2.76 29.31-5.44c2.76-.51 26.1-3.47 26.08-3.38a5.47 5.47 0 0 0-2.49-.87q17.73-3.15 35.48-6.21a1.87 1.87 0 0 1 2-.34q58.72-9.98 117.72-18.41c-1.57-.76-2.63-2.43 0-2.63a3.39 3.39 0 0 1 1.79 2l-1.16.6c4.86-.69 9.6-1.33 14.51-2l-.59-.32 1.8-.38a.77.77 0 0 1-.31.58c17.53-2.24 35.09-4.29 52.64-6.46 1.53-.19 26-.91 21.72-8 3.08-.75 6.32-.92 9.48-1.43.49-.08 3.46-.42 3.4-1-.1-.82-12.07.76-13.31.89 1.38-.74 14.18-2.23 14.22-2.53.21-1.77-16.13.9-17.72 1.48ZM653.47 27c-.08.26-.16.51-.23.77a2.66 2.66 0 0 1-2-.65 3.5 3.5 0 0 1 2.23-.12Zm-333.39-7.33c.66-.41 1.17-.36 1.55.15a1.16 1.16 0 0 1-1.55-.15Zm20.5 3.3-.24-.77a3.36 3.36 0 0 1 2.18.12 2.67 2.67 0 0 1-1.94.68Zm-39.79-1.38a1.49 1.49 0 0 0 .18.17l-.26.12c-.24-.13-.21-.23.08-.29ZM297 20.22c.27-.4 2.61-.93 2.61 0 0 .69-2.65.05-2.58.06l-.59.15ZM80.6 44.57a3.64 3.64 0 0 1 2.1.27Zm25.62.31-1.42-.37c-.32-.7 2 .11 2.25 0v-.07.07c-.05.24-.4.35-.83.37Zm124.62 56.45c-1.17 0-1-.38.36-.52Zm12 4.33c-.22.22-1.15-.18-.14-.19.09.07.22.15.18.19ZM71 69l.15.13Zm.27.08h-.07.07c.8.13 1.6.26 2.42.36-.79-.16-1.59-.29-2.39-.44Zm29.55 3.3c-.24-.13-.21-.23.07-.29l.19.17Zm65.42 19.16-1.17-.85-1.35.26 1.35-.26v-1a6.54 6.54 0 0 0-2.83-.73 6.54 6.54 0 0 1 2.83.73 4.38 4.38 0 0 1 2 .51 1.65 1.65 0 0 1-.8 1.29Zm5.38-.47c-.07 0 0-.12 0-.19.87-.2.47.33.03.12Zm5.69 8.78c-.42.35-5.75 2.9-5.27.83.18-.75 4.9-.84 5.27-.83h.06Zm7.23 1.33c-.29-1.22 1.51-.76 1.79.15Zm23.46 4.19a3.35 3.35 0 0 1-2.23-.07c-.17-.96 3.11-.17 2.23.07Zm61 14.34 2.06.23a12.61 12.61 0 0 1-2.06-.23ZM320.82 141l-.54-.21c.72-.3.89.15.54.21Zm7.4 3.43c-1.64-.19-2.21-.83-2.23-1.76a11.12 11.12 0 0 1 3.05 1.1c.34.4.24.77-.82.65Zm23.21-2.21c-.3 0-.09-.33.3 0Zm5.05-3.09c-1.11.06-3.27 1.27-4.27.39-5.33 1.67-11.12 4.94-16.76 5-.72-1-2.08-.55-3-.36-5.53-1.44-9.56-6.23-14.08-9.43a82.77 82.77 0 0 0-12.71-7.26c16.08 4.89 33.32 7.18 49.74 10.87.31-.09 1.9.74 1.08.78Zm3.87 1.59a3.3 3.3 0 0 1-3.08.39q-.51-1.6 2.43-1.17c.59.06.81.31.65.77Zm179.47-50.56a1.4 1.4 0 0 1-2 0 1.38 1.38 0 0 1 2 0Zm-1.73-7.37c.53 2.15-1.6 1.17-1.8-.44ZM520.6 77.6a1.25 1.25 0 0 1 .81 1c-1.58-.3-1.6-.33-.81-1Zm-11.5-2.1-.28.1v-.17Zm-6.93 4.71c.48 0 .79.1.81.36-.69.37-1.8-.29-.81-.36Zm-11.45.18c1.18-.55 7.49-2.74 8.64-1.07 1.77 2.58-10.02 1.68-8.64 1.07Zm-2.32-7.59-.06.17-.26-.12Zm-.81.2c-.11.74-1.39.42-1.3 0 .11-.58 1.16-.37 1.3 0Zm-4.95 6.84c-.65.64-1.25.65-1.79 0a1.29 1.29 0 0 1 1.79 0Zm-6.23-3.35a3.09 3.09 0 0 1 3.24.26c.16 1.14-3.8.01-3.24-.26Zm1.39 3.65c-1.58-.28-1.6-.31-.8-1a1.23 1.23 0 0 1 .8 1Zm-7.08-7.93c1.77-.49 3.91 0 4.55 2.2-.44-.07-6.27-.61-4.55-2.2Zm-14.42-7.55.22.31h-.69Zm-5.33 9c.93-.06 1.15.14.68.62-.65.2-3.04-.44-.65-.65Zm-12.84-11.7h1.67c.11.22.21.44.33.65A1.85 1.85 0 0 1 438 62Zm-10.38.36a1.74 1.74 0 0 1 2.14.14c.41 1.41-2.48 1-3 .37q.03-.73.86-.54Zm-5.95-.57c.36-1.31 2.79.6 2.82.67l-2.72-.06a1.45 1.45 0 0 1-.1-.64Zm-48.62-11.69a5 5 0 0 0 4.23 1l2.75 1.67c-2.29.13-4.09-.76-6.47-.36a2.52 2.52 0 0 1-.51-2.31Zm-9.76-11.58h.42-.42c-.71.41-1.26.68-1.31-.41Zm-.78 2.81c.33-.17.31-.51.44-.78H363h.09a6.38 6.38 0 0 1 4.22.24l-1.15.71c-1.45 0-2.06.67-1.86 1.93-.92.03-4.07-.84-1.66-2.1Zm-17.41 1.09c-.7 2-1.6 0-2-.07-1.08-.16 2.94-2.63 2 .07Zm-.85-2.48c-1.55.49-1.59.49-2.5-.17Zm-11.07-.9a4.74 4.74 0 0 1 4.24.27c-.77 1.77 1.72 1.93 1.56 2.38-.34.9-2.36.35-2.64 1.25a2.19 2.19 0 0 1 .71 1.09c-.78.61-3.24-.12-3.86-.59a9 9 0 0 1-.01-4.4ZM313 36.21h.05c.59.73-3 1-3.06-1.1Zm-2.14 2.65c-.15.45-2.1 1.93-2.27.39l1.12-.81ZM309 32.79a2.92 2.92 0 0 1 .46 0l-1.07.54c.07-.28.25-.46.61-.54Zm-3.28.34v.67c-.48-.17-1-.35-1.42-.54h.09a7.47 7.47 0 0 1-.81-1.53c1.84.18 2.16.75 2.17 1.4Zm-12.3-14.22a8.21 8.21 0 0 1-2.71.46 8.78 8.78 0 0 1 2.71-.46Zm-1.63 6.37a1.85 1.85 0 0 0 1.21-1.42c2.48.09 3.46 0 1.7 2.33-.4 0-2.91.56-3.32-.22-.29 0-.52-.12-.7-.47.07-.45.85-.41 1.11-.22Zm2.93 6a1 1 0 0 1-1.39-.07 1 1 0 0 1 1.39.03Zm-7-.54 1.14.16c.05.01-3.08.53-1.13-.2Zm-59.11-4.87.64-.44v-.91l.91-.92-.91.92a2.23 2.23 0 0 1 1.77.85l-.9 1.77-1.66-.4c.06-.29.12-.58.17-.87a12.3 12.3 0 0 1-2.49-.89 12.3 12.3 0 0 0 2.48.85Zm-9.9-.78c0 .35.07.69.1 1a6.39 6.39 0 0 0 1.56.52 2.28 2.28 0 0 1-1.56-.52c-.94-.44-1.68-.97-.09-1.04Zm-16.11 4.77c.28-.4 2.62-.93 2.62-.05 0 .7-2.65.06-2.58.07l-.59.14Zm-3.54-1.31a8.22 8.22 0 0 1-2.72.46 8.56 8.56 0 0 1 2.73-.5Zm-1.46 6.59c-.11.74-1.39.43-1.31 0s1.18-.4 1.32-.04Zm-9.77 4.53a1.34 1.34 0 0 1 1.6.19s-2.14.37-1.59-.23ZM180.71 36l.32.11-.32-.11-.46.27Zm-2.09-7.52a1.45 1.45 0 0 1 1.28.75c-.13 1.11-3 1.1-3.09 0a1.56 1.56 0 0 1 1.81-.72Zm-24.68 1.57-.14.15-.2-.14Zm9.72 5.53c-1.41 2.71-12.63-2-12.83-1.65.82-1.51 13.08 1.2 12.83 1.68Zm-48.83 6.94.48.19-.22.14c-.53-.04-.62-.15-.26-.3Zm.42 4.21-.34.07v-.16Zm-3.78-8.53h.31c.13.32 0 .44-.32.35-.12-.19-.12-.3.01-.32Zm2.22 14.47c-.57.13-5.28-1.54-5.33-2-.2-2.13 5.8-.38 6.3 1.33a1.26 1.26 0 0 1-.97.7Zm3-2a2.33 2.33 0 0 1-2.27-1.09c-.58-1.37 3.09.08 3.42.28-.01.42-.26.74-1.15.83Zm27.77 2.77a2.75 2.75 0 0 1-2.14-2.09c1.62.2 2.24.65 2.14 2.11Zm1.94.2a1.08 1.08 0 0 1 1.08-.54Zm.88.69.77.44h-.9c.04-.13.09-.28.13-.42Zm91 31.14L230.19 83a1.48 1.48 0 0 1 .17.49 1.46 1.46 0 0 1-.75.14c-.26 0-.91-.31-.67-.7a1.79 1.79 0 0 1 .4-.19c-27-8.24-53.92-16.43-81.4-23.17 12.64 2.19 25.23 5.1 37.66 8.51a.11.11 0 0 1 0-.08c0-.09.19-.16.45-.18l.58.22a3.44 3.44 0 0 1-.64.14c8 2.2 16 4.62 23.84 7.19-1.5-3.39 6.89 0 2.21.74q14.22 4.72 28.25 10ZM179 57a1.08 1.08 0 0 1 1.26.29l-.79.61c-1.05-.3-1.21-.6-.47-.9Zm3.48 8.65c.47-.26.79-.18 1 .25-.71.1-.71.21-1.05-.29Zm8.3-10.2c0 .05 3.18-1 3.33.06s-3.2.14-3.38-.1Zm1.48 3.45c-1.58-.28-1.6-.31-.8-1a1.27 1.27 0 0 1 .75.96Zm33.33 16.67a1.11 1.11 0 0 1 1.27.29l-.79.61q-1.56-.47-.53-.94Zm2.72-10.64.11-.34.53.23Zm16.27 0-.05-.36.64.15Zm15.09 18.69a6.72 6.72 0 0 0-2.06.83c-1 .1-10.22-.43-9.68-2.13a4.29 4.29 0 0 0 2.85.1 1.19 1.19 0 0 0-.68-1c-.05.11 9.05 1.47 10.38 1.7Zm-.81-1.81c-3.52-.72 1.65-3.35 1.67-.7a1.3 1.3 0 0 1-1.72.71Zm21-3.46c1.23-2.82 7.44 2.22 7.28 3.65-.96 1.57-7.75-2.6-7.3-3.64Zm13.68 2.24a2.05 2.05 0 0 1-1 .54c-.2-.52.19-.93 1-1.26a.55.55 0 0 1-.02.73Zm.14-1h-.07.05c.16-.37.33-.73.49-1.1-2.25.3.66-1.37.53-.32 1.33.34 1.14 1 1.31 1.64a12.25 12.25 0 0 0-2.33-.2Zm1.4 3.31c1.07-.74 1.65-.56 2.7 0Zm.93-3.09c1.21.23 1.66.71 1.76 1.3-1.24-.21-1.7-.68-1.77-1.28Zm6.74 2.09a1.8 1.8 0 0 1-.24.42h-1c-1.2-1.32 1.49-1.17 1.22-.4Zm9.62 7.47v-.87c1.28.43 1.28.5-.02.89Zm.91-3.08a3.52 3.52 0 0 1 2.67-.88c-.6 1.06-.6 1.06-2.69.9Zm19.3 12.81.28-.1v.17Zm5.09 7.69-.5.23c-.61-.59.1-.38.5-.23Zm6.55 3.18c-1.13-.52 0-1.4.92-.62a.71.71 0 0 1-.92.65Zm2.88.1c.63.27 1 .6.94 1-1.48-.27-1.48-.27-.94-1Zm7.41-12.7a5 5 0 0 0-2.93 2.62 2.42 2.42 0 0 1 .92 2.19c-2.65.51-6.35 1.72-5.36-2.2h.88a.94.94 0 0 0 0-1.28c-.43-.1-7.56-.88-6.51-1.68s6 .17 6.51 1.68c1.11-.47 7.13-1.63 6.49-1.33Zm5.18 5.78c-2-.44.15-.88.73-.55s.2.63-.73.55Zm20.58-.14c-1.12-.16-1.22-.42-.29-.79 1.07.13 1.17.4.29.78ZM382 115c-.55-.13-.07-.19.14-.14Zm1.92-5.6c.4-.18.57-.06.68.11h.1-.08c-.34.33-.57.29-.62-.11Zm0-7.07c.05-.09.34-.14.5-.21.72 0 1 .39.92 1-.62.27-1.1 0-1.34-.79Zm7.72 15.88c-.77 1.21-1.94-.83-2.08-1l-1.38-.08a3 3 0 0 1 1.61-1.44h.06l-1.67-.73a8.34 8.34 0 0 0-3.05.73c-2.24.83-.16-2.57 1.3-2.93-.1 1.27 2.15 1 1.75 2.2l1.67.73c.4.31 2.44 1.62 1.86 2.52Zm-1.55-10c.08 0 .16.07.25.1-.34.35-.54-.13-.18-.14Zm10.61 9.42h-.06.07Zm4.1-13c-.63.62-1.23 0-1-.64.55-.53 1-.52 1.35 0a1.81 1.81 0 0 1-.28.59Zm6.32 19.16c-.53-.25-.45-.6-.56-.91 1.33.26 1.33.26.63.86Zm-27.85 12.78c-.23.11-1 .06-1.11-.24-.05-.56 1.84-.15 1.18.19Zm30-5.42a2.69 2.69 0 0 1-1.77-1.67l-4.47.43c-3.07 2.45 4.33 3.65-4.74 3.12l-1.09-1.21c2.92-1.28 3.78-5.78 5.68-2.62 2.22.17 4.71-.86 6.66-1.9.15.12 2.2.82 2.18.94a8.07 8.07 0 0 1-4.22 1.24 2.69 2.69 0 0 0 1.83 1.62Zm2.4-19.75-1.59-.1c-2.31-1.79-2.83-1.92-5.64-2.62 1.78-1.31 3.42 0 5.41-.36 2.35-.47-.89-1.86.3-2.42.93-.44 3.86 3.11 4.76 3.58-1.09.52-2.91.88-3.18 1.87Zm7.53 10.87c-.7.49-1.22.45-3.17.28l-.33-.65c1.33-.79 3-.42 4.41-.42-.32.3-.6.52-.85.74Zm18.58.45c-1-.33-2.29-1-1.18-1.88a5.17 5.17 0 0 1 3.48 1.13 2.63 2.63 0 0 1-2.24.7Zm3.08 2.46c-.06-.43-.08-.32.32-.35.19.27.08.39-.26.3Zm7.55-6.28c-1.11-.55-2.37-1-2.71-1.87a33.64 33.64 0 0 1 4.56.53 4.41 4.41 0 0 1-1.79 1.29Zm28.59-3.64c-1.2-.05.2-.56.8-.33-.03.25-.38.35-.8.33Zm6.26 1.54-.21-.14h.35Zm-15.65-2.68c-15.06-4.06-30.81-5.8-46.17-8.42-16.44-2.81-32.52-6.59-48.65-10.7-6-1.54-79.47-24.33-80.91-21.35-.09.17 39.77 11.56 43.8 12.69 9.2 2.58 18.41 5 27.65 7.44 10.17 2.63 21.26 6.77 31.74 7.62 10.14 2.07 20.31 3.92 30.48 5.75l-.1-.3 1.77-.05c.05.16.09.32.14.48h-1c9.92 1.78 19.84 3.54 29.73 5.46a.36.36 0 0 0 0-.09c.46-.26.78-.18.95.25h-.06c2.71.52 5.42 1 8.11 1.67l-.75.14c-10.16-2.72-21-3.48-31.32-5.29-12.77-2.23-25.33-5.44-38.08-7.68A.89.89 0 0 0 399 103a2.18 2.18 0 0 1 1.2.84c-.15.43-.29.87-.43 1.31a14.14 14.14 0 0 0-5.07.53c-.06-3.56-1.06-1.71-2.88-3.92v-.5l2.05-.35c-25-4.58-49.78-10.6-74.44-17 1.9.8 4.42 2.2 2.19 2.82a4.77 4.77 0 0 1-4.78-1.23 2.29 2.29 0 0 1 .73-2.08c-31.25-8.21-62.37-17.06-93.73-24.51 9.56 1.94 19.11 3.94 28.68 5.82 5.07 1 10.11 2.15 15.13 3.37 2 .48 12.77 4.65 14.86 3.34-1.08.67-15.42-4.66-17.55-5.14-6.64-1.47-13.33-2.59-20-3.82-14.11-2.6-28.11-5.91-42.19-8.68l-7.23-1.39a.67.67 0 0 1 .28.24c0 1.13-3.48-.39-1.27-.43-24.12-4.58-48.34-8.59-72.43-13.35 4.27-.63 8.6-1.27 13-1.87a4.09 4.09 0 0 1-.17-1.2c.62-1.84 2.29-.73 2.8.85 1.2-.17 2.4-.32 3.61-.46 9.16 3.14 115.5 23.47 115.59 23.05.24-1.09-21-5-23.5-5.49-.59.35-1.47.49-1.7-.3-29.45-5.26-58.55-12.54-88-17.56 2.63-.32 5.28-.63 8-.9 15.88 5.94 34.51 8.83 51.19 11.67-.64-.72 1-.26 1.46.25l2.13.37c.54-.33 1.65-.06 2.17 0a1.19 1.19 0 0 1-.5.28c18.67 3.45 37.43 6.51 56 10.56 9.9 2.16 19.84 4.25 29.64 6.82 5.34 1.41 13.87 5.19 19.32 5.08.06-.23.11-.47.17-.7-8.2-2.06-16.27-4.62-24.48-6.63 9.06 1.73 18.08 4.08 27.17 5.6-.26-.79.55-.25.87 0v.38c25.92 6.25 52.11 11.42 78.08 17.55 22.77 5.38 45.2 11.37 67.74 17.61-3.68-.67-47.08-7.8-47.08-7.92-.16 2.84 25.73 5.17 28.08 5.5.53-.84 4.16 0 4.66.1q.12 0 0 0a.86.86 0 0 1 0 .16l-2.37.07c5.34.75 10.58 1.87 15.85 3 1 .22 4.16.54 6.66.84 0-.12.15-.29.5-.59a1.31 1.31 0 0 1 .74.74 10.38 10.38 0 0 1 2.11.39c6.51 1.6 13 3.52 19.71 4.34q-10.11 1.81-19.96 3.66ZM144.4 36.49c.43-.12 1.16-.27.43.26-.15-.08-.28-.17-.43-.26Zm61.8-5.17c0-.05.15-.09.23-.13l.19.17-.27.11s-.17-.1-.15-.15Zm10.45 4.77v.06c1.35-2.4.64 2.47 0-.06Zm16.68 13.41c.66 0 1.35 0 2-.09 1.13-.19 1.44 0 .94.71-.59.12-.92-.11-1-.7a3.39 3.39 0 0 1-1.94.08Zm6.81-1.2a1.63 1.63 0 0 1 1.94.12c-.59.5-2.63.16-1.94-.12Zm3.41-11.95 1 1.28 3.24.61-3.24-.61Zm17 8.55c.11-.58 1.17-.36 1.31 0-.09.74-1.37.43-1.29 0Zm25 9.58c1.57.07 2.47.88 4.1.88-.95.89-3.79.84-4.1-.88-.6-.5-1.8-1.27-1.93-2.11 1.35.29 1.33.84 1.11 1.43Zm25.19 4.08a.83.83 0 0 1 .64.43c-.51.1-.72.01-.59-.43Zm8.09 8.35c-.69.21-2.11.59-.75-.31a2.62 2.62 0 0 1 .7-.06c0 .12 0 .25.05.37l.31-.09-.31.1Zm28.74.94c.14-.19.31-.19.47 0l-.25.14c-.02-.05-.19-.11-.17-.14Zm19.24 8.84c1.4.37-1.82-.17-3.73-.45l-.53.09c-1.36-.34-.68-.27.53-.09a9 9 0 0 1 3.78.45Zm-2.63-6.42c.16-.08.36-.14.54-.22.35.21.22.34-.36.38-.02-.05-.16-.14-.13-.16Zm8 7.64c-.91.88-3.1-.31-2.33-.46-.25.06 2.88-.02 2.39.46Zm13.69-2.18a3.05 3.05 0 0 0 1 .9l-.89.69c-1.35-.49-.7-1 0-1.49Zm3.3 4.5c.27-.17.76-.48 1-.11a.78.78 0 0 1-.94.11Zm22.64-1.8c1.54 0 2.09.62 3.24 1.49-.37.44-6.92.25-7.64-.22-2.04-1.38 4.59-1.27 4.46-1.27Zm-1-.26a13.87 13.87 0 0 1 2-.38 5.71 5.71 0 0 1-1.95.38Zm4.42 8.93c.7.24 2 1 1.75-.43a3.78 3.78 0 0 1 1.85 1.09l.55 1A5.3 5.3 0 0 0 416 89a2.78 2.78 0 0 1-2.17-.71 2.54 2.54 0 0 1-1.43-.19l1.43.19a2.51 2.51 0 0 0 1.56-1Zm-5.7-9.5h-.37c-1.75 0-5.16 1.13-5.26-1.09a4.65 4.65 0 0 1 3.56.85 16.89 16.89 0 0 0 1.7.24h.37l.69.5-.69-.5ZM403 75.48l.93.66Zm18.4 12.94a3.05 3.05 0 0 1 .53 0h.07c0-.38.07-.76.14-1.14-.06.38-.11.77-.15 1.16a.64.64 0 0 1-.89.18 1.46 1.46 0 0 1 .3-.2Zm-.28-5c.73 0 1.46.12 2.19.11-.73.05-1.46-.04-2.19-.07Zm2.37 6.09c.75 0 1.35 1.37-2.27.62a5.26 5.26 0 0 1 2.27-.58Zm1.25 1.66c.05-1.65 1.47.48 1.6.64l-1.53-.2a3.35 3.35 0 0 1-.07-.4ZM438.82 84c-.5.24-7.78-.6-6.25-2 1.33-1.2 6.23.12 7 1.44a7.54 7.54 0 0 1-.75.56Zm1.12 3.12v.77c-1.16-.44-1.16-.47 0-.79Zm-2.46.72c-.23.07-.36 0-.41-.18.25-.18.38-.12.41.16Zm34.15 14.73c.14.94-3.14.17-3.33-.07.04.03 3.19-1.03 3.33.05Zm.5-3.33c.61 0 1.08.12 1.26.43.01 1.11-3.48-.41-1.26-.45Zm17.77-1.36a2.83 2.83 0 0 1 1.29.63c-1.51 0-6.54.5-7.25-1.09l-.89-.4c0-.25-.09-.5-.13-.76 1.72-.57 4.58.58 6.49.54v.64Zm17.1 3.63c.66-.18 1 0 .94.46a.66.66 0 0 1-.94-.46Zm6.45 4.84-.33-.1.38-.07Zm2.24 3.09q-1.78-.25-.48-.84c1.45.1 1.61.4.43.84Zm2.81-6.73c-.62 1.05-3.58 2.33-4.77 1.53-1.92-1.24 5.36-2.61 4.72-1.53Zm15.28.12c-4.05-1.4-8.17-2.51-12.33-3.53 4.81 1 9.55 2.26 14.38 3.18Zm20.65-3.55q-8.1 1.36-16.07 2.76c-35.62-8.26-71.18-17-106.87-24.94C422 75 323.65 48.82 322.52 51.91c-.09.24 34 9 37.76 9.8a1.63 1.63 0 0 1 1.82.42c2.48.58 6.07 1 9.65 1.5.33-.08.66-.17 1-.24-.35.07-.68.16-1 .24 4.2.64 8.39 1.51 10.78 3.21 7.53 1.75 15 3.68 22.56 5.39a5.47 5.47 0 0 1 .7-.18 2.92 2.92 0 0 1 .2.39c26.11 5.92 52.13 12.17 78.23 18.16-19.48-3.59-39.12-7.17-58.32-12-14.79-3.74-30.6-9.49-45.81-10.77a1.46 1.46 0 0 0-.66.43c4.25 1.41 8.57 2.54 12.9 3.65-4.53-1-9.08-1.86-13.57-3-1.18.61-3.81.15-4.86.12-.76-.78-.87-.89.27-1.33-3.59-.94-7.2-1.77-10.81-2.62a61.55 61.55 0 0 0-5.8-2.38.35.35 0 0 1 .05.18 2.28 2.28 0 0 1-1.54.21 1.16 1.16 0 0 0 .7.43 5.36 5.36 0 0 1-3.25-.13 2 2 0 0 1-2.74-.1c.7 1.06 2.14 2.07 1 3.41a4 4 0 0 1-.83-.56c-.24.2-1.48.86-1.69.15a1.07 1.07 0 0 1 .82-.89 3.93 3.93 0 0 0-2.35-.79c-.52 1.89-2.21.15-2.95-.62-.44 0-.89 0-1.32.09.43 0 .88-.06 1.32-.09a1.12 1.12 0 0 1 .1-.31c0-.29.38-.55.92-.81.9.07 2-.1 2.84-.11-.11-1.1-3.12-.44-3-1.6-12.27-2.22-24.29-5.5-36.28-8.89 12.16 3 24.39 5.62 36.56 8.57.72-.29 4.23.44 4.62.44a.36.36 0 0 1 .1-.42c-20.94-5.33-42.16-9.62-63.14-14.83-.86 1.53-4.57 1.2-5 3.2-1.43-.19-2.85-.44-4.26-.74.92-2.43 5.22-2.48 7-3-7.35-1.93-14.68-4-22.08-5.71-2.44-.58-17.68-2.29-18.3-3.52-6.33-1.43-12.72-2.84-19.14-3.78.14.31 0 .52-.55.65.51-.13.69-.34.54-.65-6.51-.95-13.35-.85-19.79-2L235.78 28c10.3 3.55 21.07 5.81 31.66 8.33a.9.9 0 0 0 .31-.76 5.38 5.38 0 0 0-.71-.39 7.29 7.29 0 0 0-1.57-.41 4 4 0 0 0-.61 0 3.16 3.16 0 0 1 .61 0 4.6 4.6 0 0 1 1.57.41c.89.33 1.77.76 2.54 1-.06.2-.1.4-.16.6 7.28 1.74 70.34 17 70.53 16.23.31-1.29-16.89-4.5-18.56-4.37a1.09 1.09 0 0 1 .21-.61c-27.6-6.41-54.91-13.7-82.41-20.43l6.58-.54c16 5.2 32.79 8.28 49.16 12.24a5.4 5.4 0 0 1 1.65-1.1c-2.37-.58-4.74-1.14-7.11-1.7-9-1.79-18-3.74-26.84-6.2-4.88-1.12-9.76-2.24-14.64-3.41l2.91-.23c3.86 1.34 7.78 2.54 11.73 3.64 8.95 2.05 17.91 4.07 26.84 6.2 11.45 2.26 22.95 4.26 34.2 6.71C351 49.16 378.78 55 405.48 63.43a1.68 1.68 0 0 1 .31-.19 30.28 30.28 0 0 0 4.47-.11c1.14-1.22 1-1.26 2.58-.7 2 .72-4 1.9-4.12 1.95 3.31.92 6.62 1.82 9.93 2.73.77-.39 1.07-.22 2.39.53h-.46L422 68c0-.11-.06-.22-.1-.33 1.09-.16 4.1-.51 4.57.89l.61.3-.61-.3h-2.26c24.89 6.43 50.14 11.86 75.66 15 11.18 1.38 22 2.92 32.92 5.79 9.42 2.49 18.32 6.64 27.83 8.8ZM244.62 30.21c.08-.16.16-.32.25-.48.78.27.3.38-.25.48Zm79.63 18.67.64.34c-.58.06-.82-.05-.64-.34ZM577.4 92.16c-1 2.43-7.52-1.29-8-2.93 1.15.1 9.18.06 8 2.93Zm4.6 2.44 2.23-.84 1.26.25Zm10.21-1.7a129.36 129.36 0 0 0-14.7-4.4c6.55 1.13 13 2.67 19.62 3.59Zm13.68-.37a1.43 1.43 0 0 1-.65-.21c1.76-1.17 1.29.22.6.21ZM757.09 61c1.15 0 1.35.39.6 1.22h.1-.2.1c-1.42-.32-1.62-.72-.6-1.22Zm-9.23-1.28c1.85.3-1.45 1.63-1.45.5a1.21 1.21 0 0 1 1.45-.48Zm-14.19 0c.58-.09 5.68-.12 5.46.59-.41 1.3-6.21-.46-5.46-.56Zm-11.45-11.25c1.12.08.81.48 0 1l-.79-.61a.72.72 0 0 1 .79-.39Zm-3.74 8.66a2.82 2.82 0 0 1 .72.08c-.34.5-.34.33-1 .25.12-.12.13-.3.28-.33Zm-10.12-10.49c1.36-.62 2.2-.5 2.54.37-1.04 1.31-4.57-.01-2.54-.37Zm1.06 3.81a1.24 1.24 0 0 1 .8-1c.78.7.78.73-.8 1Zm-39.6-8.7a5.88 5.88 0 0 0 1-.33c-.06-.71 1.5 0 .41.37-.12 2.13-2.01.05-1.41-.04Zm-17.43-.44c1.12.09.81.48 0 1l-.79-.6a.74.74 0 0 1 .79-.4ZM641 39.66c1 .5-3.37 1.25-3.23.26a3 3 0 0 1 3.23-.26Zm-1.38 3.64a1.24 1.24 0 0 1 .8-1c.77.7.75.7-.83 1ZM636 37a1.38 1.38 0 0 1 2 0 1.4 1.4 0 0 1-2 0Zm1.73-4.18a12.37 12.37 0 0 1-2.06.23Zm-51.06-2.73c.72-.3 1.11-.07 1.19.68-.96.64-1.36.41-1.21-.65Zm5.53 5.13c10.11.91 19.63 3.41 29.5 5.72-12-2-24.1-4.14-36.11-6.39 2.16.26 4.41.45 6.59.7ZM536.89 22.7c.27.13.29.39.45.63-3.34 6.29-6.82-3.33-.45-.63Zm-7.65-7.77c.17-.75 4.9-.83 5.26-.83h.06-.1c-.38.35-5.71 2.9-5.22.83Zm-2.62 8.5c.43.07.8.2.65.52a1.69 1.69 0 0 1-2.17-.31Zm-2.54-1.09c.15-.22 2.25 0 .57.44-.47-.06-.71-.22-.57-.44Zm-3.36 1.28c-.31.13-.45.07-.42-.17.41-.07.55-.01.42.17Zm-23.38-11.35.19.16-.27.12c-.26-.13-.21-.22.08-.28ZM487.65 6a6.28 6.28 0 0 1 .85-.23h.15a1.92 1.92 0 0 1 2.06.71 3.17 3.17 0 0 1-2.06-.71h-.15a6.15 6.15 0 0 0-.85.23 5.63 5.63 0 0 0-.76.33 5 5 0 0 1 .76-.33Zm.87 10.14c-.11.74-1.39.43-1.31 0 .12-.54 1.17-.33 1.31.04Zm-.36-6.82c1.08 0-2 2.2-3.08 1.23.22-.55 1.81-1.24 3.08-1.19ZM467 10.1c.23-.15.39-.11.49.11l-.37.07c-.02-.06-.12-.14-.12-.18Zm-6.3-1.18c.75-.38 3.35-1.31 4.26-.72s-4.23 2.5-3.93 2.37a1.31 1.31 0 0 1-1.31-.48Zm-4.19-.4c.62 0 1.07.12 1.17.45-.68.38-2.13-.42-1.14-.45Zm-3.88-2c.76-.77.92-.79 2.06-.36l-2.07.37Zm-29.35 5.11a.77.77 0 0 1 1.22-.41c.24.72 0 1-.74 1-.41-.22-.53-.42-.45-.63Zm.65 3.75c0 .35.07.69.1 1a6.39 6.39 0 0 0 1.56.52 2.3 2.3 0 0 1-1.56-.52c-.92-.44-1.66-.97-.03-1.04ZM422 12l-.2.12-.09-.16Zm-2 1.87c.36-.6 2.45.37.68.7-.29-.06-.94-.31-.68-.7Zm-8.72-.87c.3.47.2.68-.3.62-.36-.5-.26-.7.3-.62Zm-18.43-1a1 1 0 0 1 1.2.12c-.13.02-1.55.04-1.2-.12ZM384 31.36c-.48-.35-.37-.53.34-.55.12.12.36.26.31.35s-.42.13-.65.2Zm4.39-3.77a3.26 3.26 0 0 0-.34-.22 3.26 3.26 0 0 1 .34.22Zm-1.22-1.35c-1.21-.35-2-.88-1.19-1.64 1.77-.49 3.91 0 4.55 2.2a32.23 32.23 0 0 1-3.36-.56Zm14.37-.85c.12-.58 1.17-.36 1.31 0-.11.73-1.39.43-1.31 0Zm38.1 6.42c-.05.09-.43.12-.66.18-2.11-.28 1.2-1.06.66-.18Zm2.56-1.13a1.69 1.69 0 0 0 .54-.14 1.69 1.69 0 0 1-.54.14Zm10.72 15.83c-2.28-1.41.66-.91.79-.61Zm12 0a1.27 1.27 0 0 1 .8 1c-1.59-.28-1.61-.31-.81-.99Zm2.57-2.18c-.67.66-2.89.19-3.25-.28-1.07-1.31 3.89-.34 3.24.29Zm1.07-2.71-1.24-.43a1.38 1.38 0 0 1 2 0c0 .29-.32.42-.77.44Zm9.68 3.59c.88-.72 4.75-.63 4.54-.32-1.36 2.11-4.85.58-4.55.33Zm10.91 7.27c-.41.48-2-.31-.58-.71.43.1.9.32.57.72Zm3.31 4.88c-.31 0-.36-.06-.16-.21s.35.07.15.22Zm2.07-6.47a3.32 3.32 0 0 1-2.22-.07c-.15-.95 3.13-.16 2.21.08Zm3.25 7.68c-.92-.13-.91-.51-.93-.87.99.12 1.01.49.92.88Zm2.29-1.41c-.12.09-1.12 0 .35-.37a3.22 3.22 0 0 1-.36.38Zm10.65 3.24c-2.11.27-2.17.24-1.89-.85 1.79-.06 1.79-.06 2.29.77a2.57 2.57 0 0 1-.41.09Zm17.18 1.73c-.07 0 0-.12 0-.19.82-.14.42.4-.01.2ZM540.77 59c-.59-.14-.89-.43-.92-.86l1.8.39Zm29.57 8.89c-.67.16-3.85 1.24-4.38 0-.43-1 5.5-1 4.44-.91a2 2 0 0 1 0 .88 11.56 11.56 0 0 1 2.1.29 11.55 11.55 0 0 0-2.16-.26ZM593.4 67a1.38 1.38 0 0 1 2 0l-1.24.43c-.45-.09-.76-.22-.76-.43Zm3.6 6.24a1.25 1.25 0 0 1 .8-1c.81.69.79.76-.8 1Zm-1.85-3.39c.13-1 2.87-.15 3.28-.06 0 0 .06 0 0 0-.43.06-3.43 1.06-3.27.06Zm45 13.19-.11-.34.63.11Zm18.74 3c-1.11 2.69-7.1 2.36-7.27-.87-.16-3.5 8.62-2.39 7.28.89Zm4.22-4.22-.27-.1.46.07ZM666 84.9a1.43 1.43 0 0 1-1.69.59 1.12 1.12 0 0 1-.72-.61c-.15.12 2.75-1.56 2.41.02Zm15.11-2.43-.27-.12.19-.17c.25.06.27.15.04.29Zm3.71-1.64c.07 0-2.58.63-2.58-.07 0-.88 2.34-.35 2.61 0l.56.17Zm3.58-1.33a4.84 4.84 0 0 1 2.71.46 4.66 4.66 0 0 1-2.75-.46Zm1.11-1.5-5.07.72c-1.75 1.45-8.87 1.28-11 1.59a35.23 35.23 0 0 1-11.68 0 1.87 1.87 0 0 1-1.6 0c-.08-.13-.06-.22.05-.27-6.09-1-12-2.83-18-4.23a6.23 6.23 0 0 1-6.94.65c.52-.92 2.5-1.31 3.38-1.5-26.9-6.69-54.4-9.96-80.96-18.27-.41.11-3.75 0-2.21-.66-3.31-.93-36.49-10.89-37.13-9.5-.12.25 45.15 13.38 49.09 14.34l-9.28-1.68c.19.28-.14.35-1.27.55a1 1 0 0 1 .4-.7c-20.06-3.59-40-7.26-59.81-11.88-.11 0-3.1 0-1.59-.36-13.3-3.12-26.19-5.91-39-10.83a.14.14 0 0 1-.17-.06c-4.43-1.7-9-3-13.56-4.33 10.19 1.4 20.18 3.5 30.26 5.53 4.87 1 9.75 1.81 14.59 2.94 2.65.61 16.7 6.22 19 4.57-.54.38-14.39-4.63-16-5-5.54-1.28-11.14-2.15-16.73-3.21-11.28-2.12-22.34-4.62-33.66-6.41-13.6-2.16-27.3-4.12-40.82-6.67-12.25-2.31-27.63-6.75-40.11-6 12.84-1.24 25.69-2.36 38.53-3.54a10.29 10.29 0 0 0 1 .64c-.16 0-3.75-.53-3.77-.29 0 .07 12.17 3.5 12.59 3.6a3.38 3.38 0 0 1-.16-.7c.68-.3.91-.69.89-1.13a5.12 5.12 0 0 0-2.29-.8 5.91 5.91 0 0 0-.6 0 4.06 4.06 0 0 1 .6 0 4.72 4.72 0 0 1 1.59.42c.88.33 1.75.75 2.52 1a1.55 1.55 0 0 1-.81 1.56c12.5 2.51 25.09 4.78 37.64 7.06-11.43-1.79-22.84-3.71-34.27-5.53-2.63-.41-26.67-5.71-27.32-4.22-.19.45 9.45 2.47 16 3.75a6.74 6.74 0 0 1 2.54-.4 8.42 8.42 0 0 1-2.31.44c2.67.52 4.78.91 5.4 1l.45-.13c.28-.4 2.62-.93 2.62-.05 0 .7-2.65.06-2.58.07l-.48.12a1227.64 1227.64 0 0 1 134.18 27.71c2.69-.46 4.37.05 6.36-.29.39 1.22-3.48.82-3.87.94 4.22 1.11 8.42 2.29 12.64 3.41.31-.28 1.93.21 1.38.36 8.52 2.15 99.32 26.32 100.69 21.9-.27.87-58.75-12.41-63.08-13.35a.9.9 0 0 1-.83-.18c-9.93-2.21-19.67-5.24-29.5-7.8 10.43 1.57 20.48 3.93 30.71 6.45l.78-.2v.38c1.25.31 16 4.36 16.42 3.24a6.28 6.28 0 0 0-2.57-.94c15.63 2.82 31.26 5.37 46.81 8.57 13.42 2.77 27.33 5.66 41 6.38-3.15.43-6.21.85-9.08 1.22Zm-248-56.51c.8 0 3.22.61 2.28 2.23-1.97-.4-2.1-1.3-2.25-2.19Zm10.09-6.93c3-.09 5.23.43 6.56 1.79-3.09-.35-3.84-.03-6.53-1.75Zm10.16 1.85a2.9 2.9 0 0 1 3.63 0l-.87.67c-.25.05-.51.08-.77.11l-2-.82-2.72.31Zm-1.05-1.89.15-.15c.59.18.14.24-.12.19Zm6.5 2.48 1.06 1Zm6.51 1.21a3.26 3.26 0 0 1 .34.22 3.26 3.26 0 0 0-.34-.27Zm11.91 15.07c.27-.1 1.11.09.32.14Zm23 2.2c.62.7-.84.93-2 1.12-.54-.8-2.24-3.59.41-3.27 2.02.18.47.81 1.63 2.1Zm16.9.7.92-.92-.92.92a2.25 2.25 0 0 1 1.78.85c-.31.59-.61 1.18-.91 1.77l-1.65-.4c.05-.29.11-.58.16-.87a12.52 12.52 0 0 1-2.49-.89 12.52 12.52 0 0 0 2.49.89l.65-.45Zm6.27-.45-.88-.44h-4.44c.36-.29 1.24-.59 0-.86.19-.79 1.48-1 2.69-1.3.71-2.59 4.32 1.54 4.51 2.6h-1.83Zm-9.2-.52c-.2 0-5.56 0-5.83-.85-.2-.65 5.51-1.55 6.05-.4a1 1 0 0 0 .08.42Zm38.13 2.4c.49-.37-3.33 1.08-3.16-.11.16-.91 4.37-.82 3.2.06Zm-1.31 3.28a1.22 1.22 0 0 1 .8-1c.84.64.78.67-.76.95Zm6 7.32c.09-.2.25-.23.46-.11-.03.15-.19.18-.4.06Zm4.81-1.49v.5c-.48-.22-.32-.35.06-.55Zm1.16-7.44c.13-.3 3.07-.8.79.61Zm45.68 18.36c.88-1.78 10-6.15 10.4-3.38.53 3.41-8.62 4.08-10.34 3.33Zm20.94-2.77c-.41 0-.81-.09-1.16-.13-.43-.83 2.76.11 1.22.08Zm.45-4.28 8.56 1.37c-2.81-.44-5.65-.87-8.5-1.42Zm15.36 4.68c.91-1.19 4.75-1.91 4.67.1-.06 3.01-6.07 1.78-4.61-.15Zm20.94 12.2c.13-.3 3.07-.81.79.61Zm15-1.9c4.45-.53.37 2.67.27 2.27-.03-.13-3.94-1.84-.24-2.32ZM717 69.75l-3.25.61 3.25-.61 1-1.27Zm44.91-.65L746 71a33.77 33.77 0 0 0-5.7-2.45c-1.71-2.44-10.21-3.48-13-4.22-5.81-1.51-11.69-2.39-17.59-3.45-11.42-2.05-22.67-4-34.19-5.38 6.35 2.92-12 1-2.11-.27-22.47-3-45-7-67.29-11.08-2.57.53-2 2-3.38 2.45-1.94.65-3.78-.61-5.74.67v.06a.41.41 0 0 0 0-.11c-.87-.08-.84-.44-1-.75 2-1.11 4.09-1.73 5.95-3.13-35.9-7.2-72.25-11.66-108-19.61a1.74 1.74 0 0 1 .1.19c1.15.84-.06 1.52.12 2.58.44.68-1.26.78-1.4.79a.85.85 0 0 0-.46-.07c-1.11 1.42-4.56.33-1.71-1.19-.49-1.8-.73-2.6 1.43-2.72-6.03-1.31-11.78-2.9-17.6-4.51 6.48 1.4 72 13.93 72.25 12.64.14-.84-47.17-8.65-51.94-9.73-8.88-2-17.83-3.68-26.7-5.78-4-1-8-2-12-3.09-1.39-.37-9.51-3.68-10-3.43s2.07 2.34 2.32 2.47c-3.19-.55-6.37-.21-9.51-.81.27-.19.51-.35.72-.47l-3.23-.37q9.14-.86 18.28-1.68a74.18 74.18 0 0 0 8.53 3.08c-.42-.09-8.9-2.1-8.95-1.83-.12.66 9 3 9.95 3.21a.72.72 0 0 1 .84.08l-.18.08c2.65.67 5.3 1.3 7.95 1.92.13 0 1.48-.28 1.45.31 7.14 1.45 14.26 3 21.42 4.39 6.27 1.21 14.26 1.24 20.13 3.38.08.11.07.19 0 .23 13.23 2.11 28.64 8.13 41.87 7a13.07 13.07 0 0 1-1.68.21C568.6 32.65 680 54.43 681 51.26c0 0-41.25-7.32-46.26-8.09 20.73 1.69 41.19 4.22 61.28 9.8.16 0-7.56-1.31-7.57-.56s13 3.35 21.43 5l1.2.24c3.09.6 5.4 1.06 5.87 1.2C715 58.43 713 58 711 57.66l-1.2-.24c-14.69-2.8-29.69-4.47-44.46-6.57 16.72 2.45 33.38 5.16 49.73 8.79l.48-.18c.12 0 .72.24.31.35 13.55 2.95 27 6.69 40.76 8.31a2.4 2.4 0 0 1 .8-2 2.4 2.4 0 0 0-.8 2c2.61.31 5.23.59 7.86.67ZM596.67 43.66Zm167.48 18.9a3 3 0 0 1-2.87-1.1c-1.06-4.28 6 .69 5.73.62-1.01.18-1.94.35-2.86.48ZM785 66.34a3.31 3.31 0 0 0-.68-.12c-1.58.13-5.32.76-6.76 1l-.53.09.53-.09c1.72-.3 4.89-1.16 6.76-1h.72a.12.12 0 0 1-.04.12Z" fill="#f5ac3a" data-color="1"/>
        <path d="m663.56 50.6 1.82.25-4-.58Z" fill="#f5ac3a" data-color="1"/>
        <path d="m709.84 57.42 1.2.24Z" fill="#f5ac3a" data-color="1"/>
        <path d="m362.6 76.33.53-.09c-1.21-.18-1.89-.24-.53.09Z" fill="#f5ac3a" data-color="1"/>
        <path d="M488.52 5.8a6.28 6.28 0 0 0-.85.23 6.15 6.15 0 0 1 .85-.23Z" fill="#f5ac3a" data-color="1"/>
        <path d="m318.88 66.92.31-.1-.31.09Z" fill="#f5ac3a" data-color="1"/>
        <path d="m229.34 82.78.85.26a.62.62 0 0 0-.85-.26Z" fill="#f5ac3a" data-color="1"/>
        <path d="M107.08 44.46v.07s.02-.03 0-.07Z" fill="#f5ac3a" data-color="1"/>
        <path d="M289.47 36.5c-8.93-2.13-17.89-4.15-26.84-6.2 8.82 2.46 17.81 4.41 26.84 6.2Z" fill="#f5ac3a" data-color="1"/>
        <path d="M408.05 15.55a4.72 4.72 0 0 0-1.59-.42 6.81 6.81 0 0 1 1.59.42Z" fill="#f5ac3a" data-color="1"/>
        <path d="M598.44 69.79s.04-.01 0 0Z" fill="#f5ac3a" data-color="1"/>
        <path d="m413.78 88.27-1.43-.19a2.54 2.54 0 0 0 1.43.19Z" fill="#f5ac3a" data-color="1"/>
        <path fill="#f5ac3a" d="M290.71 19.37h-.01.01z" data-color="1"/>
        <path d="M220.38 26.6a6.39 6.39 0 0 1-1.56-.52 2.28 2.28 0 0 0 1.56.52Z" fill="#f5ac3a" data-color="1"/>
        <path d="M195.54 52.34a2 2 0 0 0-1-.19Z" fill="#f5ac3a" data-color="1"/>
        <path d="M469.79 105.93c0-.09-.05-.17-.07-.25l-1.24-.15c.03.16.41.24 1.31.4Z" fill="#f5ac3a" data-color="1"/>
        <path d="m317.58 83.35 1.86.49a10.07 10.07 0 0 0-1.71-.61Z" fill="#f5ac3a" data-color="1"/>
        <path d="m430.32 107.31-.78-.14v.14Z" fill="#f5ac3a" data-color="1"/>
        <path d="M233.33 49.5a3.39 3.39 0 0 0 2-.09c-.65.04-1.33.05-2 .09Z" fill="#f5ac3a" data-color="1"/>
        <path d="M267.06 35.06a4.6 4.6 0 0 0-1.57-.41 7.29 7.29 0 0 1 1.57.41Z" fill="#f5ac3a" data-color="1"/>
        <path d="M402 19.24h-.23l-.18.06Z" fill="#f5ac3a" data-color="1"/>
        <path d="M448.33 101.44q.12.05 0 0Z" fill="#f5ac3a" data-color="1"/>
        <path d="m180.71 36 .32.11Z" fill="#f5ac3a" data-color="1"/>
        <path d="M363.55 82.76a1.16 1.16 0 0 1-.56.94c4.15 1.08 43.39 12.72 44.25 10.38-.24.59-39.71-10.3-43.69-11.32Z" fill="#f5ac3a" data-color="1"/>
        <path d="M407 65.5c.12.31.25.61.37.91 1.07.3 2.66.22 3.49.93 8.39 2 16.75 4.19 25.17 6a4.12 4.12 0 0 1 1.31-.77c-10.13-2.16-20.3-4.42-30.28-7.18Z" fill="#f5ac3a" data-color="1"/>
    </g>
</svg>
