<?xml version="1.0" encoding="UTF-8"?>
<svg data-bbox="0.068 -0.008 251.716 579.379" viewBox="0 0 251.77 579.37" xmlns="http://www.w3.org/2000/svg" data-type="color">
    <g>
        <g>
            <path d="M105.82 171c26.92 2.73 62.37 1.45 83.85-17.42a1.3 1.3 0 0 0-1.26-2.16 194.24 194.24 0 0 1-75.87 12.05c-19.35-.66-49.59-3-65-16.67a.75.75 0 0 0-1.18.91c10.15 18.55 40.99 21.39 59.46 23.29Z" fill="#f5ac3a" data-color="1"/>
            <path d="M241 505.23a7.38 7.38 0 0 0-.52-1.17 21.27 21.27 0 0 0 2.13-5c4.32-16.26.75-37.2.53-53.9-.4-28.9-1-57.79-1.73-86.67-1.23-52.29-2.78-104.58-4-156.87-.9-36.58-2.09-82.76-45.27-91.16v-.34a7.47 7.47 0 0 0-.21-1.31v-.47c-3.75-25.51-5.25-51.3-8.56-76.87-2.21-17-17.92-23.78-33-27.69-19.48-5.07-46.53-6-65 3.17-18 8.88-17.51 31-19.24 48.68-1.38 14-6.31 37.43-4.07 54.58-36.25 6.51-45.56 41.66-46.21 74.55-1 48.35-2.51 96.7-3.74 145.05-1.35 52.85-2.71 105.73-2.79 158.6a41 41 0 0 0 2.9 15.92 8.17 8.17 0 0 0-.4.9c-8.31 25.29-25 51.66 7.42 63.74 31.88 11.88 69.26 10.83 102.69 9.84 35.41-1 72.46-4.06 106.55-14.24C263.93 554 251 535.59 241 505.23Zm-115.41 44.11c-9.52.2-105-.4-110.74-17 1.86-5.45 4.38-11 6.47-15.67 8.79 7.25 21.55 10.82 35.54 13.58 38 7.49 78.52 5.51 116.67.1 13.39-1.9 40.56-5.32 56.76-16 1.39 3.36 3.1 7.32 4.67 11.32 1.11 20.88-98.5 23.45-109.37 23.67Zm-45.67-499c.79-8 1.36-14.82 3.4-20.28a50.75 50.75 0 0 0 8 4.35C91 64.28 88.51 94.12 88 124c-6.93-3-11.48-7.88-11.27-17.53.42-18.75 1.36-37.47 3.19-56.14ZM96.65 36.4c.59.2 1.17.38 1.71.54 2.8.79 5.79 1.46 8.87 2-1.49 29.67-.16 59.63 0 89.33-3-.32-5.54-.66-7.22-1-2.35-.44-4.55-1-6.67-1.53.36-29.74 2.88-59.53 3.31-89.34Zm15.88 92.39c-.11-29.59-1.44-59.43 0-89a105.89 105.89 0 0 0 11.39.87c-1.52 13.59.46 28.24 1.17 41.66.83 15.69 2.28 31.42 2.65 47.14-5.48-.06-10.74-.32-15.21-.67Zm20.55.66c-.34-13.69-1.55-27.4-2.32-41-.86-15.24-3.54-32.4-1.51-47.77 3.08-.1 6.15-.38 9.19-.78 2.4 29.64 5.62 59.29 7.06 89-4.1.3-8.29.49-12.42.55Zm17.72-1.19c-1.47-29.8-4.71-59.55-7.1-89.28a69.91 69.91 0 0 0 10.07-2.79c2.79 7.88 3.57 16.85 4.59 24.92 2.71 21.29 4.55 42.7 6.51 64.07a74.55 74.55 0 0 1-14.07 3.08ZM170 123c-2-21.48-3.91-43-6.63-64.38-1-8.1-2-16.65-4.73-24.47a47.9 47.9 0 0 0 9.54-5.84c5.19 9 4 23.37 5 32.56 1.68 16.43 3.25 32.89 5.59 49.24.36 5.82-3.11 9.97-8.77 12.89ZM101.88 15.71c18.81-4.34 42.34-2.4 59.65 6.16a14.22 14.22 0 0 1 1.31.79c-12 9.48-29.79 9.49-44.53 8.93a82.14 82.14 0 0 1-19.23-2.77 70.41 70.41 0 0 1-11.56-5.72c3.06-3.33 7.55-5.81 14.36-7.39ZM22.75 462.09c.24-25.51.76-51 1.31-76.54 1.1-51 2.54-102 3.89-153 .89-33.58-9.39-103.83 38.09-109.59 7.41 12.8 24.76 16.58 38.23 18.58 18.4 2.73 71.51 4 84.8-18.25 43.83 7.51 34.75 71.46 35.6 103.91 1.32 50.75 2.74 101.5 3.89 152.25q.81 35.88 1.33 71.77c.16 11.82 5.68 39.27-3.26 48.15-21.57 21.45-72.55 20.83-100.19 21.9-30.66 1.14-70.44 2.14-97.56-14.67-11.94-7.41-6.24-32.71-6.13-44.51Zm214.75 84.43c-7.48 4.8-17.28 6.67-25.8 8.69-27.66 6.57-56.47 8.78-84.8 10.08s-57.25 1.08-85.18-3.95c-8.91-1.61-19.35-3.78-26.64-9.51-3.11-2.46-3.31-7.23-2.14-12.78 18.77 17.28 99.85 15.79 110.15 15.66 12.52-.15 98.45-.29 114.66-21.17 1.84 6.08 2.46 11.24-.25 12.98Z" fill="#f5ac3a" data-color="1"/>
            <path d="M137 462.53a7.17 7.17 0 0 0 1.79-.24c85-12.39 68.87-116.07 63.6-177.21-2.23-25.86-9-51.68-27.17-71-15.78-16.7-39.69-13.93-60.44-13.93-68.82 0-67 98-69.14 145.16-1.43 31-.29 70.68 23 94C88.28 458.85 111 462.53 137 462.53ZM59 345.35c.91-40.28-1.23-131.83 57.08-131.83 17.63 0 35.22-2.18 49.73 10 19 16 22 46.94 24 69.78 4.59 53.33 19.35 144.17-53.24 155.86-19 0-31.78-1.13-48.77-11.74-30.18-18.79-29.52-60.53-28.8-92.07Z" fill="#f5ac3a" data-color="1"/>
            <path d="M134.27 440.39a3.75 3.75 0 0 0 .77-.16 2.81 2.81 0 0 0 .29 0c63.61-10 50.53-97.09 47-141.75-1.67-20.83-3.78-46.31-18.47-62.72-13-14.51-28-13.45-46-13.45-52.94 0-49.06 87.19-50.35 121.66-.92 24.53-.79 56.53 15.88 76.29 13.84 16.49 30.75 20.13 50.88 20.13ZM75.44 344c.58-30.78-2.74-113.66 43.3-113.66 16.44 0 30.44-1.14 41.4 13.85 12.34 16.88 13.05 40.7 14.65 60.62C178 345.09 189.46 423 134 432.38c-16.93 0-28.29-2.67-41.62-14.39C73.32 401.28 75 367.14 75.44 344Z" fill="#f5ac3a" data-color="1"/>
            <path d="M108.58 511.82a1 1 0 0 0 0-1.92c-12-3.22-25-2.46-37.25-4.6-13.71-2.37-27-6.6-40.22-10.93-.55-.17-.85.63-.38.92 20.68 12.71 53.63 24.01 77.85 16.53Z" fill="#f5ac3a" data-color="1"/>
            <path d="M116.49 509.33a.67.67 0 0 0-.51 1.22c2 1.43 6.16 3.24 8.06.93a.91.91 0 0 0 0-1.24c-1.75-2.13-5.14-.51-7.55-.91Z" fill="#f5ac3a" data-color="1"/>
        </g>
    </g>
</svg>
