<?xml version="1.0" encoding="UTF-8"?>
<svg data-bbox="0.021 0 1119.435 457.88" viewBox="0 0 1119.51 457.92" xmlns="http://www.w3.org/2000/svg" data-type="color">
    <g>
        <path d="M712.9 217a27.9 27.9 0 0 0-9.26-1.54c-13.75 0-26.53 9.28-28.46 20.7-1.22 7.22.65 20.71 27 29.9a17.38 17.38 0 0 0 5.68 1c9.26 0 16.86-8.12 18.93-20.2 1.88-11.36-1.62-25.54-13.89-29.86Zm-1.18 27.29c-.9 5.21-3.19 7.52-3.91 7.52a2 2 0 0 1-.65-.14c-12.49-4.36-17.52-9.65-16.95-13 .61-3.62 6.74-8 13.43-8a12.63 12.63 0 0 1 4.2.68c3.59 1.29 4.79 7.58 3.88 12.94Z" fill="#f5ac3a" data-color="1"/>
        <path d="M688.06 116.07c-1.23 7.22.64 20.71 26.94 29.9a17.19 17.19 0 0 0 5.67 1c9.27 0 16.88-8.12 18.94-20.2 1.94-11.35-1.56-25.53-13.84-29.84a27.63 27.63 0 0 0-9.25-1.55c-13.76-.01-26.52 9.28-28.46 20.69Zm28.46-5.46a12.67 12.67 0 0 1 4.2.68c3.59 1.26 4.78 7.55 3.87 12.91-.89 5.21-3.19 7.52-3.92 7.52a2 2 0 0 1-.64-.14c-12.49-4.36-17.51-9.65-16.95-13 .61-3.58 6.75-7.97 13.44-7.97Z" fill="#f5ac3a" data-color="1"/>
        <path d="M686.91 61.46a3.81 3.81 0 1 0 6.16 4.48c4.86-6.67 8.22-10.56 8.25-10.6a3.81 3.81 0 0 0-5.75-5c-.15.17-3.57 4.15-8.66 11.12Z" fill="#f5ac3a" data-color="1"/>
        <path d="M682.16 75.06a3.81 3.81 0 0 0-5.25 1.2 241.92 241.92 0 0 0-17.47 33.18 3.81 3.81 0 0 0 2 5 3.76 3.76 0 0 0 1.49.31 3.82 3.82 0 0 0 3.51-2.32 232.13 232.13 0 0 1 16.92-32.12 3.8 3.8 0 0 0-1.2-5.25Z" fill="#f5ac3a" data-color="1"/>
        <path d="M658 123.5a3.81 3.81 0 0 0-4.79 2.45 152 152 0 0 0-7.03 34.05 3.81 3.81 0 0 0 3.48 4.11h.34a3.8 3.8 0 0 0 3.79-3.49 144.2 144.2 0 0 1 6.72-32.34 3.82 3.82 0 0 0-2.51-4.78Z" fill="#f5ac3a" data-color="1"/>
        <path d="M170.32 258.36a64.39 64.39 0 0 0 18.73-3.27c8.78-2.73 13.28-10.76 11.73-20.94-2-13-13.31-27-27-27a19.78 19.78 0 0 0-5.86.89c-13.43 4.14-23.45 19.4-21.45 32.65 1.26 8.55 8.2 17.67 23.85 17.67Zm2.06-35.75a4.65 4.65 0 0 1 1.37-.21c4.69 0 10.95 7.34 12 14 .54 3.57-.63 3.93-1.2 4.11a49.57 49.57 0 0 1-14.2 2.58c-8.1 0-8.64-3.53-8.81-4.69-.84-5.33 4.02-13.69 10.84-15.79Z" fill="#f5ac3a" data-color="1"/>
        <path d="M233.81 366.56a64.39 64.39 0 0 0 18.73-3.27c8.78-2.73 13.28-10.76 11.73-20.94-2-13-13.31-27-27-27a19.85 19.85 0 0 0-5.87.89c-13.42 4.14-23.45 19.4-21.45 32.66 1.27 8.54 8.22 17.66 23.86 17.66Zm2.06-35.75a4.67 4.67 0 0 1 1.38-.21c4.68 0 10.94 7.34 12 14 .54 3.57-.63 3.93-1.2 4.11a49.57 49.57 0 0 1-14.2 2.59c-8.1 0-8.63-3.53-8.81-4.7-.85-5.33 4.01-13.69 10.83-15.79Z" fill="#f5ac3a" data-color="1"/>
        <path d="M125.34 276.8a157.72 157.72 0 0 0 15.14 32.76 3.81 3.81 0 0 0 6.48-4 150.39 150.39 0 0 1-14.4-31.18 3.81 3.81 0 0 0-7.22 2.43Z" fill="#f5ac3a" data-color="1"/>
        <path d="M117.39 206a3.81 3.81 0 0 0 3.78-3.84c-.07-8.58.34-13.9.34-14a3.8 3.8 0 0 0-3.5-4.09 3.87 3.87 0 0 0-4.1 3.5c0 .22-.43 5.67-.36 14.61a3.81 3.81 0 0 0 3.84 3.82Z" fill="#f5ac3a" data-color="1"/>
        <path d="M117.89 216.63a3.81 3.81 0 0 0-3.5 4.09 248.87 248.87 0 0 0 5.92 38.47 3.82 3.82 0 0 0 3.7 2.93 3.87 3.87 0 0 0 .89-.11 3.8 3.8 0 0 0 2.82-4.59 241.06 241.06 0 0 1-5.72-37.29 3.78 3.78 0 0 0-4.11-3.5Z" fill="#f5ac3a" data-color="1"/>
        <path d="M422.56 163.07c2.38 0 4.93-.13 7.57-.38 9.7-.92 15.85-9.13 15.31-20.42-.66-14.1-10.94-29.49-25.84-28.06-14.54 1.35-27.21 15-26.57 28.6.22 4.75 2.97 20.26 29.53 20.26ZM421 129.39h.39c4 0 8.51 7 8.83 13.62 0 1.31 0 4.38-1.54 4.53-2.17.2-4.23.31-6.13.31-6.79 0-14.12-1.5-14.31-5.72-.24-4.93 6.05-12.13 12.76-12.74Z" fill="#f5ac3a" data-color="1"/>
        <path d="M430.8 255.3c.22 4.75 3 20.26 29.54 20.26 2.38 0 4.92-.13 7.57-.38 9.69-.92 15.85-9.13 15.31-20.43-.67-14.1-11-29.42-25.85-28.05-14.54 1.35-27.2 14.98-26.57 28.6Zm28-13.42h.39c4 0 8.51 7 8.83 13.62.06 1.31 0 4.38-1.54 4.53-2.16.21-4.22.31-6.12.31-6.79 0-14.13-1.5-14.32-5.72-.25-4.93 6.02-12.12 12.74-12.74Z" fill="#f5ac3a" data-color="1"/>
        <path d="M373.28 103.11a4 4 0 0 0 .76.08 3.81 3.81 0 0 0 3.73-3.07c1.6-7.94 3-12.78 3-12.83a3.81 3.81 0 0 0-7.31-2.15c-.06.21-1.51 5.18-3.18 13.48a3.81 3.81 0 0 0 3 4.49Z" fill="#f5ac3a" data-color="1"/>
        <path d="M370 165.81a3.8 3.8 0 0 0-3.3 4.19 149.59 149.59 0 0 0 7.67 33.31 3.82 3.82 0 0 0 3.59 2.51 3.62 3.62 0 0 0 1.29-.23 3.81 3.81 0 0 0 2.29-4.88 141.4 141.4 0 0 1-7.27-31.61 3.79 3.79 0 0 0-4.27-3.29Z" fill="#f5ac3a" data-color="1"/>
        <path d="M369.27 156.45h.1a3.82 3.82 0 0 0 3.71-3.92 227.84 227.84 0 0 1 1.93-35.6 3.82 3.82 0 0 0-3.29-4.27 3.77 3.77 0 0 0-4.27 3.28 237.08 237.08 0 0 0-2 36.8 3.81 3.81 0 0 0 3.82 3.71Z" fill="#f5ac3a" data-color="1"/>
        <path d="M986.63 211.82a16.26 16.26 0 0 0 8.75 2.61c10.32 0 17.77-9.77 20.58-19.46 3.4-11.73.23-22.71-8.07-28a29 29 0 0 0-15.53-4.31c-12.34 0-22.91 6.73-25.69 16.38-1.85 6.4-1.67 19.13 19.96 32.78Zm-5.33-28.53c.75-2.59 5.37-5.37 11.06-5.37a13.83 13.83 0 0 1 7.38 2c2.76 1.75 2.78 6.72 1.58 10.86-1.62 5.58-4.89 8.46-5.94 8.46a1.43 1.43 0 0 1-.63-.27c-10.5-6.66-14.32-12.66-13.45-15.68Z" fill="#f5ac3a" data-color="1"/>
        <path d="M969.11 279.15a28.88 28.88 0 0 0-15.53-4.32c-12.34 0-22.91 6.74-25.7 16.38-1.84 6.38-1.69 19.11 20 32.76a16.26 16.26 0 0 0 8.75 2.61c10.32 0 17.77-9.78 20.58-19.46 3.37-11.74.2-22.72-8.1-27.97Zm-6.57 23.72c-1.62 5.59-4.89 8.47-5.94 8.47a1.43 1.43 0 0 1-.63-.27c-10.5-6.61-14.32-12.61-13.45-15.63.75-2.59 5.38-5.37 11.06-5.37A13.83 13.83 0 0 1 961 292c2.72 1.77 2.74 6.73 1.54 10.87Z" fill="#f5ac3a" data-color="1"/>
        <path d="M937.14 177.59a3.82 3.82 0 0 0-5.23 1.31 150.1 150.1 0 0 0-14.27 31.1 3.81 3.81 0 0 0 2.47 4.79 4 4 0 0 0 1.16.18 3.82 3.82 0 0 0 3.64-2.65 141.12 141.12 0 0 1 13.54-29.46 3.82 3.82 0 0 0-1.31-5.27Z" fill="#f5ac3a" data-color="1"/>
        <path d="M942.33 169.77a3.8 3.8 0 0 0 5.32-.84 227.91 227.91 0 0 1 23.27-27 3.81 3.81 0 0 0-5.38-5.4 236.4 236.4 0 0 0-24 27.93 3.81 3.81 0 0 0 .79 5.31Z" fill="#f5ac3a" data-color="1"/>
        <path d="M980.87 131.23a3.77 3.77 0 0 0 2.5-.93c6.12-5.32 10.19-8.3 10.23-8.33a3.81 3.81 0 1 0-4.49-6.16c-.17.13-4.35 3.18-10.74 8.74a3.81 3.81 0 0 0 2.5 6.68Z" fill="#f5ac3a" data-color="1"/>
        <path d="M1050.23 102c-.57-1.25-1.13-2.48-1.73-3.75-7.11-15-14.13-25-25.34-25-7 0-13.32 3.87-22.06 9.21l-4.32 2.63c-.5.29-1 .58-1.46.88-63.22-31.44-213.44-53.81-238-57.31-2.26-3.05-4.58-6.12-7.07-9.27C741.1 7.75 733 0 723.53 0c-8.74 0-15 6.12-23.64 14.58q-1.74 1.71-3.69 3.59c-5 4.79-9.58 9.41-13.91 13.9-65 2.54-212.88 21.81-235.81 24.84A288.51 288.51 0 0 0 409.76 35c-10.94-5.58-18.18-8-24.18-8-13.64 0-18 11.31-23 24.41-.57 1.5-1.17 3.07-1.82 4.72-5 12.81-9 24.39-12.2 35.18C270.3 109.15 213 141 197.86 150.06c-15.76-8.37-34.52-15.64-57.59-21.89-8.91-2.41-15.49-3.54-20.69-3.54-19.12 0-21.49 14.79-24 30.45-.26 1.67-.55 3.44-.86 5.28-1.73 10.25-3 19.73-4 28.64-18.47 12.55-79.77 55.18-86.52 72.56-8.16 21-4.29 42 10.91 59.23 5.6 6.34 11.12 12.46 16.05 17.91 7.36 8.15 13.71 15.18 16.43 18.72a29.62 29.62 0 0 0 22.36 11.15h1.78c16.12 0 35-10.61 56.23-31.52q5.56 9.26 12 19.42c-13.75 7.42-39.62 22.59-46.33 35.17-8.22 15.42 5.24 30.66 12.47 38.85a55.36 55.36 0 0 1 3.63 4.34c.37.75 9.46 18.48 30.89 22.34a46.15 46.15 0 0 0 8.08.71c16.54 0 34.67-8.7 54.06-25.94a50.12 50.12 0 0 0 12.91 1.65 73 73 0 0 0 24.13-4.56c17.5-6.19 78.33-34 94-65.81 8.18-4.83 43.7-25 77.74-32.78a54.92 54.92 0 0 0 21 3.87 83.25 83.25 0 0 0 10.88-.76c19.77-2.65 96.62-20.28 105.94-54.25a271.3 271.3 0 0 1 66.44-6.4c3.3 14.36 13.5 28.92 38.86 36.7 13.54 4.21 43.64 10.4 70.75 10.4 28.63 0 46.62-6.91 53.45-20.56.66-1.32 1.29-2.69 1.9-4.07 16.57 3.9 61.74 15.1 83.87 26 2.67 11.66 10.56 23.68 28.09 33.81 16.34 9.43 60.16 28.9 91.37 28.9 13.74 0 23.85-3.8 30-11.3a91.66 91.66 0 0 0 5.78-7.83 51.81 51.81 0 0 0 15.31 2.61 30.79 30.79 0 0 0 13.45-2.9c13.95-6.66 19-22.75 23.85-38.31 2.48-8 5.06-16.2 8.7-22.57 6.23-10.91 4.75-19.51 2.4-24.81-4.71-10.67-16.43-16.66-24.49-19.65a334 334 0 0 0 9.07-33 47.9 47.9 0 0 0 5 .3 37.67 37.67 0 0 0 21.66-6.58c13.14-9 21.59-26.46 24.43-50.6 4.09-34.21-53.95-61.09-69.02-67.44Zm45.29 46.6c-2.16 7.94-6.71 19.21-14.38 23.43a14.62 14.62 0 0 1-9.65 1.52c-1.55-15.42-5.45-31.93-12.43-50.5 12.55 6.52 27.3 15.68 36.46 25.53ZM1009 95.46c5.87-3.58 11.41-7 14.12-7 1.44 0 4.86 2.12 11.57 16.27 35.78 75.45 22.73 113.28 1.12 176-5 14.53-10.68 31-16.12 49.2-.4 1.36-.86 2.72-1.33 4.09-9.37 9.79-28.56 22.09-60 8.61a621.63 621.63 0 0 0-79.55-28.26 37.85 37.85 0 0 1 1.74-14.69q4-13 7.47-24.65C920 169.45 927.57 144.37 1004.61 98.15c1.56-.93 3.03-1.83 4.39-2.69ZM892.88 209.18c-29.17-8.92-78-15.19-96.72-17.38 1.75-17.07 3.06-32.79 2.92-48 22.66 4.32 81 15.86 110.37 25.42-6 11.7-11.28 24.78-16.57 39.96Zm24.21-53.49c-31.52-10.78-98.4-23.74-118.71-27.56a170.14 170.14 0 0 0-2.38-17.82c51.51 11.68 93.59 14.54 122.47 14.54 9.77 0 18-.33 24.6-.75a158.35 158.35 0 0 0-25.98 31.59ZM794.57 207c18.41 2.18 66 8.33 93.46 16.67-3.52 10.82-7.15 22.63-11.09 35.63-9.1 5.49-32 11.27-86.69-4.74 1.15-17.3 2.75-32.73 4.32-47.56ZM979.93 95.63a294.39 294.39 0 0 0-27.44 20.06c-20.13 2-77.68 5.13-158.32-13.62C789.79 84.26 782 66 769.23 45.85c42.66 6.59 154.29 25.41 210.7 49.78ZM706.77 29.15c1.33-1.28 2.58-2.51 3.78-3.68 5.37-5.26 10.45-10.23 13-10.23 1.52 0 5.46 1.76 14.82 13.6 32.48 41.1 43.31 72.26 45.18 105.81v.18c1.06 19.36-.85 39.54-3.32 62.89-.18 1.81-.38 3.63-.58 5.47-1.65 15.55-3.52 33.18-4.76 52.48-.08 1.36-.22 2.74-.37 4.13-7 11.88-23.33 28.74-57.68 22.52a633.89 633.89 0 0 0-85.47-9.89 38.66 38.66 0 0 1-1.64-15c.64-9.19 1.23-17.89 1.79-26.15 1.18-17.49 2.22-32.9 3.38-46.7 1.74-20.62 3.78-37.6 7-52.55a7.74 7.74 0 0 0 .21-1c7.21-33 20.32-56.07 49-86.16l.08-.08c4.81-5.02 9.92-10.19 15.58-15.64ZM546.32 241.77a115.36 115.36 0 0 0-3.63-11.25c-4.4-11.44-8.15-22.06-11.67-32.31 17.33-4 59.37-12.46 88.13-7.87-.79 9.91-1.54 20.55-2.31 32-6.96 8.06-24.84 19.37-70.52 19.43Zm82.3-119.51c-53 .44-101.61 11.41-118.93 15.79-2.52-6.11-5.19-12-8.08-17.71C527.39 119.18 594.5 114 639.49 91a170.33 170.33 0 0 0-10.87 31.26Zm-3.26 15.28c-2.06 11.37-3.6 23.74-4.9 37.59-32.62-4.78-77.3 4.52-94.37 8.57-.15-.45-.31-.92-.46-1.38-3.55-10.53-6.91-20.48-10.38-29.93 17.69-4.34 62.25-14.01 110.11-14.85Zm42.38-89.45A207 207 0 0 0 646 78.5c-44.29 28.13-125 33.4-148.37 34.35a160.87 160.87 0 0 0-34.46-42.75c41.2-5.32 144.56-18.23 204.57-22.01ZM375 61.69q1-2.53 1.86-4.83c4.7-12.3 6.1-14.62 8.75-14.62 3.26 0 9.07 2.12 17.26 6.3 74.42 37.9 87.19 75.82 108.34 138.65 4.91 14.56 10.47 31.06 17.28 48.8.5 1.29 1 2.61 1.4 3.94-.16 1.52-.4 3.14-.75 4.83 0 .14-.09.25-.1.39s0 0 0 .06c-2.86 13.29-12.33 30.82-41.35 38.27a623.66 623.66 0 0 0-80.21 26.18 37.57 37.57 0 0 1-7.66-12.66c-3.19-8.47-6.23-16.47-9.12-24.07-11.49-30.2-20.39-53.62-26.43-73.8a1.74 1.74 0 0 1 0-.22c0-.07-.06-.13-.08-.2-10.92-36.59-12.34-62.47-2.4-98.35a9 9 0 0 0 .35-1.26c3.12-11.28 7.38-23.52 12.86-37.41Zm-38 282.22a106.62 106.62 0 0 0-4.67-17.25c26.83-7.08 42-22.6 49.77-33.47l3.47 9.17a53.22 53.22 0 0 0 9.74 16.64c-23.13 7-45.01 17.73-58.31 24.91Zm10.66-147.75c-19.94 7.08-58.64 23.27-73.57 29.57-4-6.35-8-12.44-12.16-18.26 41.51-6 66.86-27.78 79.39-42.12a221.22 221.22 0 0 0 6.34 30.81Zm4.34 14.62c3 9.42 6.49 19.45 10.49 30.36-17.21 7.05-48.24 22.56-61.64 29.34-3-5.12-6-10.19-9-15.15q-5-8.49-9.73-16.45c15.94-6.7 51.38-21.48 69.88-28.1Zm-43.25 72.78c17.94-9.08 44.54-22.16 59-28.13 2.72 7.24 5.6 14.83 8.67 22.9.76 2 1.55 4.07 2.32 6.11-5.62 9.38-20 27.61-49.27 35.06a122.34 122.34 0 0 0-9.51-18c-3.96-6.19-7.66-12.12-11.22-17.94ZM344.27 108a166.29 166.29 0 0 0-4 46.41c-9.4 12.33-35.8 40.57-83.55 46.07C244.64 184.63 231 170.86 213 159a548.39 548.39 0 0 1 131.27-51Zm-233.64 49.48c2.82-17.61 3.75-17.61 9-17.61 3.76 0 9.23 1 16.71 3 23.65 6.41 42.39 13.85 57.89 22.54.16.09.32.18.49.26 40.13 22.65 58.45 53.79 84.07 97.37 8.23 14 17.55 29.86 28.45 46.73.73 1.12 1.42 2.29 2.11 3.46 1.57 14.26-1.4 38.75-34.28 55-38.89 19.19-66.38 37-77.58 44.68a39.72 39.72 0 0 1-10.86-11.61q-7.71-12.11-14.67-22.93c-55.18-86.07-73.51-114.66-66.59-183.49 0-.15 0-.29.05-.44 1-9.63 2.45-20 4.38-31.51.27-1.93.56-3.73.83-5.45ZM26.51 310.71C15 297.6 12.22 282.93 18.38 267.08c3.22-8.29 36.53-34.65 70.78-58.52-1.17 25.77 1.64 46.72 8.71 67.66-.78 18.85-8.24 48.17-43.55 65.53-3.19-3.65-7.23-8.12-11.87-13.26-4.9-5.42-10.38-11.49-15.94-17.78Zm44.17 42.64c-6.58-.33-9.91-3.76-11-5.22-.09-.12-.22-.27-.31-.4 29.15-14.94 40.39-37.54 44.29-56.51A322.94 322.94 0 0 0 120 323.5c-26.15 26.62-42 30.22-49.32 29.85Zm36.37 45.51c4-7.42 24.65-20.61 41.06-29.44 3.5 5.49 7.15 11.18 11 17.14l4.3 6.71c-2.47 9.45-10.59 27.1-37.06 39a25.46 25.46 0 0 1-3-4.2c-1.16-2.3-3.12-4.53-5.84-7.61-5.51-6.19-13.71-15.52-10.46-21.6Zm36.24 43.35a28 28 0 0 1-10.81-4.42c22.17-10.77 31.94-25.37 36.22-36.2 1.67 2.6 3.31 5.17 5 7.87a56.24 56.24 0 0 0 14 15.29c-16.7 13.67-31.98 19.69-44.41 17.46Zm91.4-27.51a57.73 57.73 0 0 1-19.05 3.69 33.39 33.39 0 0 1-10.35-1.62 663.47 663.47 0 0 1 73.1-41.77c26.82-13.23 35.81-31.84 38-47.34a95.13 95.13 0 0 1 5.61 19 15.27 15.27 0 0 1-.91 7.79 7.79 7.79 0 0 0-.5 1.35c-9.35 21.85-58.23 49.11-85.9 58.9Zm206.62-96.21a67.75 67.75 0 0 1-8.85.62c-7.13 0-13-1.38-18-4.06a627.43 627.43 0 0 1 75.1-24.19c26.77-6.88 38.82-21.8 44.12-35.47a88.29 88.29 0 0 1 1.32 17.49c-.72 21.48-62.27 41.39-93.69 45.61ZM550 263.57a115.72 115.72 0 0 0-1.94-14.2c37.11-.31 57.19-8 68-16-.49 7.32-1 14.93-1.57 23 0 .42 0 .86-.06 1.29a285 285 0 0 0-64.43 5.91Zm175.39 41.22c-25.44 0-53.63-5.82-66.36-9.72-11.07-3.39-18.88-8.26-23.67-14.81a639.59 639.59 0 0 1 80.09 9.57 86.23 86.23 0 0 0 15.45 1.46c19.15 0 32.09-7.35 40.65-15.76a91.18 91.18 0 0 1-6.33 17.11c-3.9 7.83-18.05 12.15-39.81 12.15Zm64.18-42.55c26.51 7.65 46.14 10.42 60.53 10.42 10.41 0 18.09-1.43 23.8-3.42l-.41 1.37c-2.35 7.77-4.82 15.95-7.46 24.6a60.46 60.46 0 0 0-2 9.21c-24.25-10.19-61.7-19.6-78.14-23.49a119.79 119.79 0 0 0 3.7-18.69Zm194.5 106.65c-27.85 0-69.17-18.45-83.75-26.87-9.74-5.62-16.1-11.92-19.26-19.15a629.52 629.52 0 0 1 74.35 26.74c10.87 4.67 20.5 6.52 29 6.52a52.57 52.57 0 0 0 27.67-7.71 88.81 88.81 0 0 1-9.66 14.7c-3.2 3.88-9.35 5.77-18.33 5.77Zm85.61-83.71c.49 1.13 2 4.57-1.71 11.08-4.46 7.8-7.29 16.84-10 25.58-4.07 13-7.91 25.31-15.87 29.11-3.58 1.71-8.43 1.8-14.43.37a115.23 115.23 0 0 0 6.67-17.06c5.34-17.9 10.72-33.49 15.92-48.58q2.09-6 4.06-11.82c5.83 2.25 13.08 6.14 15.38 11.32Zm34.48-117.46c-2.28 19.35-8.63 33.48-17.89 39.79a23.23 23.23 0 0 1-15.47 3.82 161.54 161.54 0 0 0 1.28-30.06c.73.06 1.45.13 2.16.13a21.65 21.65 0 0 0 10.54-2.71c8.52-4.68 13.55-14.57 16.38-22.68 2.3 3.91 3.47 7.85 3.02 11.71Z" fill="#f5ac3a" data-color="1"/>
    </g>
</svg>
