<?xml version="1.0" encoding="UTF-8"?>
<svg data-bbox="0 -0.002 267.535 190.347" viewBox="0 0 267.51 190.3" xmlns="http://www.w3.org/2000/svg" data-type="color">
    <g>
        <g>
            <path d="M9.63 7.4C9 21 9.89 41 20.74 50.81c16.15 14.61 35.45-8.25 39.38-22.9 1.93-7.17 2.43-16.53-2.93-22.42C52.65.49 44-.7 38.66 3.73c-6.1 5.08-5.66 14.62-3.9 21.57 2.37 9.48 8.3 18.6 16.72 23.74 19.15 11.67 42.05-2.5 45.72-23.13 1.28-7.16.7-16.25-5.07-21.48-4.36-3.95-11.36-4.73-15 .51-4.22 6.08-2.57 15.51-.88 22.14 2.19 8.58 6.47 17.86 13.75 23.31 16.25 12.21 34.17-7.65 41.46-20.91 3.47-6.3 7.45-15 5.62-22.43-1.32-5.3-6.62-8.61-11.86-6.31-6.21 2.73-8.73 11-9.88 17.1-1.65 8.62-1.33 18.2 2.18 26.33 8 18.55 30.54 16.44 42.35 2.81a50 50 0 0 0 11.3-24.62c.87-5.71 1.26-13.86-3.71-18-4.77-3.9-10.54-1.43-12.91 3.64-3.43 7.37-2 17.22 0 24.76 4.39 16.5 20 32.92 36.71 19.11 7-5.79 11.44-14.48 14.19-23 2.26-6.87 4.55-16.43 1.36-23.41-2.18-4.78-7.76-6.95-11.81-2.93-5 4.93-5 14.71-4.74 21.13.58 14.67 7.89 39.41 27.53 32.78 15.11-5.1 26.49-27.71 24.57-43.06-.58-4.68-3.79-10-9.26-8.42-4.63 1.32-7.27 6.93-8.76 11-4.64 12.78-2.51 29 9.91 36.52 9.12 5.53 20.58 5.13 30.72 3.58 3.55-.55 3.36-6.19-.23-5.64-12.82 2-30.23 2-35.58-12.53-2.78-7.53-2-18.8 3.12-25.33 2-2.53 3.41-3.06 4.35.53 1.44 5.49-1.13 12.74-3.19 17.73-3.9 9.47-17.1 29-29 18C195.63 40.78 194.2 23 196.71 12c.69-3 3.09-9.12 5.29-3.41 1.87 4.89.11 11.67-1.21 16.46-2.92 10.58-12.23 30.28-26.39 26-12.57-3.81-16.92-23.52-16-34.83.24-2.93 2-11.4 6.09-6.73 3.09 3.51 1.36 11.36.41 15.29-3.09 12.8-12.86 28-27.66 27.55-15.16-.4-18.32-18.15-16.9-30.2.57-4.77 1.71-11.41 5.39-14.91 4-3.79 6.23.43 6 4.49-.7 12.49-11.13 26.94-21.38 33.48-13.94 8.88-23.68-3.86-27.78-16.51-1.75-5.41-3.45-12.35-1.83-18s7-4 9.47.41C97.46 23.84 86.7 42.33 74 46.36c-17 5.41-31.62-8.94-34.32-25-.83-4.95-1-13.14 5.27-14.6 7.1-1.67 10.6 5.07 10.83 11 .49 12.75-9.48 31.9-24.13 31.63-14.07-.26-15.76-22.71-16.28-32.88-.16-3.11-.24-6.24-.11-9.35.16-3.62-5.48-3.37-5.63.24Z" fill="#819ed2" data-color="1"/>
            <path d="M5.13 70.24c-.59 13.62.26 33.58 11.12 43.41 16.15 14.61 35.45-8.25 39.38-22.9 1.92-7.17 2.43-16.53-2.93-22.42-4.55-5-13.19-6.2-18.53-1.76-6.1 5.08-5.64 14.61-3.9 21.57 2.36 9.48 8.29 18.6 16.72 23.73 19.15 11.68 42.01-2.49 45.72-23.12 1.27-7.16.7-16.25-5.07-21.48-4.36-3.95-11.37-4.73-15 .51-4.23 6.08-2.58 15.51-.89 22.14 2.2 8.58 6.48 17.86 13.73 23.31 16.25 12.21 34.16-7.65 41.46-20.91 3.47-6.3 7.45-15 5.61-22.43-1.31-5.3-6.62-8.61-11.85-6.31-6.22 2.73-8.73 11-9.89 17.1-1.64 8.62-1.32 18.19 2.19 26.32 8 18.56 30.53 16.45 42.34 2.82a49.88 49.88 0 0 0 11.3-24.62c.88-5.71 1.27-13.86-3.71-18-4.74-3.92-10.5-1.45-12.88 3.66-3.42 7.37-2 17.22 0 24.76 4.39 16.5 20 32.92 36.71 19.11 7-5.79 11.43-14.49 14.19-23 2.22-6.88 4.52-16.46 1.33-23.44-2.19-4.78-7.76-6.95-11.83-2.93-5 4.93-5 14.71-4.74 21.13.57 14.67 7.88 39.41 27.53 32.78 15.1-5.1 26.49-27.71 24.57-43.06-.59-4.68-3.8-10-9.26-8.42-4.64 1.32-7.28 6.93-8.77 11-4.64 12.78-2.5 29 9.92 36.52 9.12 5.53 20.58 5.13 30.72 3.58 3.55-.55 3.36-6.19-.24-5.64-12.81 2-30.22 2-35.57-12.54-2.78-7.52-2-18.79 3.12-25.32 2-2.53 3.4-3.06 4.34.53 1.44 5.49-1.12 12.73-3.18 17.73-3.9 9.47-17.1 29-29 18-8.79-8.11-10.22-25.88-7.72-36.85.7-3.06 3.09-9.16 5.28-3.45 1.87 4.89.1 11.67-1.22 16.46-2.91 10.58-12.22 30.28-26.39 26-12.56-3.81-16.92-23.52-16-34.83.25-2.93 2-11.4 6.09-6.73 3.1 3.51 1.37 11.36.42 15.29-3.1 12.8-12.86 27.94-27.67 27.55-15.15-.4-18.32-18.15-16.89-30.2.56-4.77 1.71-11.41 5.38-14.91 4-3.79 6.24.43 6 4.49-.62 12.53-11.05 27.01-21.3 33.53-13.94 8.89-23.68-3.85-27.78-16.5-1.75-5.41-3.45-12.35-1.84-18s7-4 9.48.41C93 86.68 82.2 105.17 69.51 109.2c-17 5.41-31.62-8.94-34.32-25-.83-5-1-13.15 5.27-14.6 7.1-1.67 10.6 5.07 10.82 11 .49 12.75-9.48 31.89-24.12 31.63C13.08 112 11.4 89.52 10.87 79.35c-.16-3.11-.24-6.24-.1-9.35.15-3.62-5.48-3.37-5.64.24Z" fill="#819ed2" data-color="1"/>
            <path d="M.14 140.06c-.59 13.63.26 33.58 11.12 43.41 16.14 14.61 35.45-8.25 39.38-22.9 1.92-7.17 2.42-16.53-2.94-22.42-4.54-5-13.19-6.19-18.52-1.75-6.11 5.07-5.64 14.6-3.91 21.6 2.37 9.48 8.3 18.6 16.72 23.74 19.16 11.67 42.05-2.5 45.72-23.13 1.28-7.16.7-16.25-5.06-21.48-4.37-4-11.37-4.73-15 .51-4.23 6.08-2.58 15.51-.89 22.14 2.19 8.58 6.48 17.86 13.73 23.31 16.24 12.21 34.16-7.65 41.46-20.91 3.46-6.3 7.44-15 5.61-22.43-1.32-5.3-6.62-8.61-11.86-6.31-6.21 2.73-8.72 11-9.88 17.1-1.65 8.62-1.32 18.2 2.19 26.33 8 18.55 30.53 16.44 42.34 2.82a50 50 0 0 0 11.3-24.69c.88-5.7 1.26-13.86-3.71-18-4.74-3.92-10.51-1.45-12.88 3.66-3.43 7.37-2 17.22 0 24.76 4.38 16.5 20 32.92 36.7 19.11 7-5.79 11.44-14.48 14.19-23 2.23-6.88 4.52-16.46 1.33-23.44-2.18-4.78-7.75-7-11.82-2.93-5 4.93-5 14.71-4.74 21.13.57 14.67 7.88 39.42 27.52 32.78 15.11-5.1 26.49-27.71 24.57-43.06-.58-4.68-3.79-10-9.26-8.42-4.63 1.33-7.27 6.93-8.76 11-4.64 12.77-2.5 29 9.91 36.51 9.12 5.54 20.58 5.13 30.73 3.58 3.54-.55 3.35-6.19-.24-5.64-12.82 2-30.22 2-35.58-12.53-2.77-7.53-2-18.8 3.12-25.33 2-2.53 3.41-3.06 4.35.54 1.44 5.48-1.12 12.73-3.18 17.72-3.91 9.47-17.11 29-29 18.05-8.79-8.11-10.21-25.89-7.71-36.86.7-3.06 3.09-9.16 5.27-3.45 1.87 4.89.11 11.67-1.21 16.46-2.92 10.58-12.23 30.28-26.39 26-12.56-3.81-16.92-23.52-16-34.83.25-2.93 2-11.4 6.09-6.73 3.1 3.51 1.37 11.36.42 15.29-3.1 12.8-12.86 27.95-27.67 27.56-15.16-.4-18.32-18.16-16.9-30.2.57-4.78 1.71-11.42 5.39-14.92 4-3.79 6.24.43 6 4.49-.7 12.49-11.12 26.94-21.38 33.48-13.87 8.94-23.62-3.78-27.71-16.45-1.75-5.41-3.46-12.35-1.84-18s7-4 9.48.41C88 156.5 77.21 175 64.52 179c-17 5.41-31.62-8.94-34.32-25-.84-4.95-1-13.14 5.26-14.6 7.1-1.67 10.6 5.07 10.83 11 .49 12.75-9.48 31.9-24.13 31.63-14.07-.26-15.75-22.71-16.28-32.88-.16-3.11-.24-6.24-.11-9.35.16-3.62-5.47-3.37-5.63.24Z" fill="#819ed2" data-color="1"/>
        </g>
    </g>
</svg>
