<?xml version="1.0" encoding="UTF-8"?>
<svg data-bbox="0 0.051 284.563 253.471" viewBox="0 0 284.59 253.49" xmlns="http://www.w3.org/2000/svg" data-type="color">
    <g>
        <g>
            <path d="m18.72 71.08 26.79-7.49c10.46-2.92 6-19.25-4.5-16.31l-26.79 7.49C3.75 57.7 8.2 74 18.72 71.08Z" fill="#819ed2" data-color="1"/>
            <path d="M95.79 47.7a114.51 114.51 0 0 0 17.8-5.42c4.24-1.68 7.21-5.66 5.9-10.4-1.11-4-6.13-7.6-10.4-5.91a113.85 113.85 0 0 1-17.8 5.42c-4.46 1-7.07 6.17-5.91 10.4 1.27 4.61 5.93 6.88 10.41 5.91Z" fill="#819ed2" data-color="1"/>
            <path d="m168.54 25.8 22.5-9c4.24-1.7 7.22-5.64 5.91-10.41-1.11-4-6.14-7.62-10.4-5.9l-22.55 9c-4.23 1.7-7.21 5.64-5.9 10.4 1.1 4 6.14 7.62 10.4 5.91Z" fill="#819ed2" data-color="1"/>
            <path d="M153.64 80.4a87.26 87.26 0 0 1 18.68-9c10.26-3.46 5.86-19.8-4.49-16.31A106 106 0 0 0 145.1 65.8c-9.19 5.77-.71 20.41 8.54 14.6Z" fill="#819ed2" data-color="1"/>
            <path d="M80.29 99.29q10.13-3.93 20.55-6.94c10.44-3 6-19.33-4.49-16.31q-10.44 3-20.56 6.94c-4.25 1.66-7.2 5.68-5.9 10.41C71 97.45 76 101 80.29 99.29Z" fill="#819ed2" data-color="1"/>
            <path d="M8.46 142.43c7.34-.93 14.06-3.78 21-6.27 4.29-1.55 7.18-5.76 5.91-10.41-1.14-4.14-6.09-7.46-10.41-5.9-5.16 1.86-11 5-16.48 5.67C3.93 126.09 0 129 0 134c0 4.13 3.89 9 8.46 8.46Z" fill="#819ed2" data-color="1"/>
            <path d="M59.69 161.7a62.78 62.78 0 0 1 20.09-7c4.5-.79 7-6.29 5.9-10.4-1.3-4.75-5.89-6.7-10.4-5.91a76.71 76.71 0 0 0-24.13 8.73c-9.5 5.32-1 19.94 8.54 14.61Z" fill="#819ed2" data-color="1"/>
            <path d="m122.17 132.08 19.83-9.66c4.11-2 5.22-7.84 3-11.57-2.46-4.19-7.45-5-11.58-3l-19.83 9.65c-4.11 2-5.22 7.85-3 11.57 2.45 4.2 7.45 5.05 11.57 3Z" fill="#819ed2" data-color="1"/>
            <path d="M198.85 118.62a76.16 76.16 0 0 1 16.73-8.08 8.66 8.66 0 0 0 5.91-10.41c-1.16-4.23-6.05-7.36-10.4-5.9a94.13 94.13 0 0 0-20.77 9.77c-9.16 5.82-.69 20.47 8.53 14.6Z" fill="#819ed2" data-color="1"/>
            <path d="m225.63 67.43 20-11.19c9.5-5.32 1-19.94-8.54-14.61l-20 11.19c-9.5 5.32-1 19.94 8.53 14.61Z" fill="#819ed2" data-color="1"/>
            <path d="M14.07 217.52a79.27 79.27 0 0 0 12.81-7.78c3.54-2.63 5.7-7.44 3-11.57-2.25-3.5-7.77-5.86-11.57-3a79.27 79.27 0 0 1-12.81 7.78c-4 1.94-5.37 7.94-3 11.57 2.64 4.1 7.3 5.11 11.57 3Z" fill="#819ed2" data-color="1"/>
            <path d="M64.42 252.44a173.13 173.13 0 0 0 17.83-10.37c3.8-2.53 5.43-7.47 3-11.57-2.2-3.78-7.74-5.58-11.57-3a171.32 171.32 0 0 1-17.83 10.37c-4.08 2.06-5.24 7.81-3 11.58 2.42 4.14 7.47 5.09 11.57 3Z" fill="#819ed2" data-color="1"/>
            <path d="M102 192.23q11.53-6.53 23.09-13c9.48-5.36 1-20-8.54-14.61l-23.09 13c-9.48 5.35-1 20 8.54 14.61Z" fill="#819ed2" data-color="1"/>
            <path d="M152.61 231.83c9.4-2.34 18.57-8.29 27.26-12.52 9.79-4.76 1.23-19.35-8.53-14.6-7.35 3.57-15.31 8.84-23.23 10.81-10.56 2.63-6.09 18.95 4.5 16.31Z" fill="#819ed2" data-color="1"/>
            <path d="M184 173.14A251.91 251.91 0 0 1 207.29 160c9.74-4.86 1.18-19.46-8.54-14.61a255.09 255.09 0 0 0-23.29 13.18c-9.16 5.83-.68 20.48 8.53 14.61Z" fill="#819ed2" data-color="1"/>
            <path d="M255 192.31c4.43-.82 8-3.18 11.8-5.46a46.46 46.46 0 0 1 11.8-5c10.47-2.91 6-19.24-4.5-16.31a65.3 65.3 0 0 0-12.93 5.08c-3.55 1.88-6.65 4.68-10.66 5.42-4.5.83-7.05 6.27-5.91 10.4 1.3 4.72 5.9 6.74 10.4 5.91Z" fill="#819ed2" data-color="1"/>
        </g>
    </g>
</svg>
