<?xml version="1.0" encoding="UTF-8"?>
<svg data-bbox="-0.016 0.009 255.054 225.411" viewBox="0 0 255 225.45" xmlns="http://www.w3.org/2000/svg" data-type="color">
    <g>
        <g>
            <path d="M133.54 189.83c-.09 2.37-.2 4.87-.36 7.43-.08 1.28-.17 2.58-.29 3.88l-.09 1-.05.48s.06.28-.12.25a.43.43 0 0 1-.13-.05s0 .06-.14-.18c-.4-.54-.79-1.14-1.18-1.75a58.94 58.94 0 0 1-4.31-8.41 119.18 119.18 0 0 1-6.33-20.54q-1.23-5.52-2.11-11.32c-.3-1.93-.57-3.87-.81-5.84s-.49-4.08-.74-6.14c-.53-4.25-1.16-8.55-2.06-13-.46-2.3-.85-4-2-7.82-1.14-3.44-2.56-7-4.62-9.53a12.92 12.92 0 0 0-7.79-4.85 12.68 12.68 0 0 0-8.84 2.4 31.31 31.31 0 0 0-7.09 7.69c-.47.69-.84 1.31-1.26 2l-.6 1-.31.49-.21.38c-.54 1-1.11 2-1.61 3-2.06 4-3.84 7.92-5.48 11.85s-3.18 7.86-4.62 11.75q-1.05 2.79-2.09 5.57a60.03 60.03 0 0 1-2.24 5 26.53 26.53 0 0 1-5.58 7.82 8 8 0 0 1-2.94 1.75 5 5 0 0 1-2.86 0c-2.13-.58-4.58-2.51-6.57-4.89a42.9 42.9 0 0 1-5.23-8 74.18 74.18 0 0 1-3.79-8.7 109.15 109.15 0 0 1-4.55-16.88A157 157 0 0 1 32 109.78c-.14-6.26-.15-9.85-1-10s-2.2 3.24-3.45 9.65a102.82 102.82 0 0 0-1.15 27.47 104.2 104.2 0 0 0 3.3 18.86 77.66 77.66 0 0 0 3.59 10.3 51.57 51.57 0 0 0 6 10.59 31.69 31.69 0 0 0 4.8 5.13 21.28 21.28 0 0 0 7.25 4.11 17.83 17.83 0 0 0 4.75.84 17.61 17.61 0 0 0 4.92-.54 20.76 20.76 0 0 0 8-4.12 39.77 39.77 0 0 0 9.2-11.45c1.15-2 2.11-4 3-6.05l2.48-5.76a215.56 215.56 0 0 1 10.41-21.55l1.42-2.34.39-.58.2-.29.06-.07a2.39 2.39 0 0 1 .45-.41.51.51 0 0 1 .53-.09.9.9 0 0 1 .3.49 2 2 0 0 1 .06.26c0 .11 0 .07.08.41l.37 1.81c.19.9.34 1.86.51 2.81.62 3.8 1.07 7.77 1.44 11.73q.27 3.12.56 6.21c.22 2.13.43 4.25.72 6.36.55 4.21 1.2 8.39 2 12.5a132.17 132.17 0 0 0 6.89 23.81 74.08 74.08 0 0 0 5.63 11.13c.29.45.55.9.86 1.34l1 1.49c.48.68 1.06 1.35 1.59 2a19.44 19.44 0 0 0 1.67 1.93 25.28 25.28 0 0 0 7.47 5.78 17.68 17.68 0 0 0 8 1.88 14.33 14.33 0 0 0 7.46-2.2 14.14 14.14 0 0 0 4.69-5.65 30.82 30.82 0 0 0 2.37-8c.26-1.41.44-2.85.63-4.26q.13-1.31.27-2.58c.14-1.5.25-2.94.35-4.34.18-2.79.3-5.39.39-7.83.38-9.75.42-21.61.87-34.82.24-6.6.58-13.54 1.29-20.58.35-3.52.81-7.06 1.43-10.52a61.11 61.11 0 0 1 2.5-9.81 24.74 24.74 0 0 1 1.87-4 8.08 8.08 0 0 1 .55-.91l.5-.8.1-.15a.38.38 0 0 1 .53-.1 2.15 2.15 0 0 1 .34.34 21 21 0 0 1 1.33 1.75 36.93 36.93 0 0 1 2.6 4.41 85.59 85.59 0 0 1 4.42 10.49A163.54 163.54 0 0 1 176.9 149c.37 2.07.75 4.13 1.12 6.19s.87 4.33 1.38 6.48a124.32 124.32 0 0 0 3.71 12.74 77.26 77.26 0 0 0 5.53 12.37c.55 1 1.23 2 1.86 3s1.33 1.93 2.44 3.23l.76.88c.28.3.63.61.94.92a15.34 15.34 0 0 0 2 1.75 16.51 16.51 0 0 0 4.36 2.6 13.4 13.4 0 0 0 9.59.31 16.84 16.84 0 0 0 7.67-5.86 22.92 22.92 0 0 0 2.5-3.69 16.26 16.26 0 0 0 .82-1.58l.73-1.51 1.21-2.94 1-2.88c1.22-3.87 2-7.23 2.91-10.63l2.39-9.81c1.5-6.3 2.85-12.12 4.36-17.12s3.28-9.17 5.26-11.42a7.4 7.4 0 0 1 3-2.2 9.18 9.18 0 0 1 3.61-.54 42.43 42.43 0 0 1 6.31.84c1.55.32 2.48.35 2.65 0s-.42-1-1.74-2.08a20.55 20.55 0 0 0-6.56-3.11 13.06 13.06 0 0 0-5.44-.39 12.59 12.59 0 0 0-6.17 2.76c-3.82 3.16-6.38 8-8.63 13.17s-4.17 11-6.19 17.18q-1.52 4.6-3.11 9.48c-1.08 3.2-2.2 6.63-3.4 9.74-.32.77-.65 1.54-1 2.32s-.72 1.49-1.07 2.24-.8 1.4-1.18 2.11l-.54.78a6 6 0 0 1-.49.66 5.33 5.33 0 0 1-2 1.6 2.7 2.7 0 0 1-2.48-.23 6.23 6.23 0 0 1-1.83-1.79l-.49-.7-.65-1c-.43-.7-.84-1.46-1.24-2.23a64.51 64.51 0 0 1-4-10.28 110.45 110.45 0 0 1-2.89-11.36c-.37-1.94-.7-3.9-1-5.86s-.57-4.12-.85-6.19a174.64 174.64 0 0 0-5.67-25.72 99.19 99.19 0 0 0-4.79-12.76 59.85 59.85 0 0 0-3.4-6.37c-.69-1.07-1.38-2.13-2.22-3.2l-.63-.82-.89-1a16.23 16.23 0 0 0-2-1.9 17.08 17.08 0 0 0-10-4.58 15.2 15.2 0 0 0-10.26 3.2l-2.13 1.85a20.91 20.91 0 0 0-1.92 2.07c-.3.36-.61.74-.87 1.09l-.57.81-1.11 1.64c-.62 1.08-1.25 2.1-1.83 3.24s-1.1 2.27-1.56 3.39a73.85 73.85 0 0 0-3.75 12.8c-.86 4.11-1.45 8.08-1.94 12-1 7.73-1.43 15-1.79 21.93-.67 13.7-.81 25.7-1.19 35.21Z" fill="#819ed2" data-color="1"/>
            <path d="M118.83 77.52c.57 1.74 1.16 3.57 1.73 5.46.27.94.55 1.9.8 2.86l.19.72.08.36s.12.2 0 .2a.24.24 0 0 1-.12 0l-.18-.11c-.52-.31-1-.68-1.56-1a53.37 53.37 0 0 1-6.24-5.31A96 96 0 0 1 102 66.93c-1.75-2.52-3.44-5.13-5-7.82q-1.2-2-2.35-4.09l-2.36-4.32c-1.66-3-3.41-6-5.45-9a62 62 0 0 0-3.94-5.31 27.26 27.26 0 0 0-6.84-6.06 15 15 0 0 0-8.42-2.08 12.36 12.36 0 0 0-7.38 3.38 21.1 21.1 0 0 0-4.33 6.89c-.23.59-.39 1.11-.59 1.67l-.28.82-.15.41-.08.32c-.22.82-.47 1.65-.65 2.46a92 92 0 0 0-1.71 9.63c-.42 3.16-.73 6.29-1 9.38-.12 1.48-.24 3-.36 4.42a39.33 39.33 0 0 1-.66 4 16.57 16.57 0 0 1-2.92 6.71 6.6 6.6 0 0 1-2.19 1.82 5.52 5.52 0 0 1-2.6.54 17 17 0 0 1-7.32-2.32 42.64 42.64 0 0 1-7-4.84A65.12 65.12 0 0 1 22.65 68a85.57 85.57 0 0 1-8.8-11.41 109.48 109.48 0 0 1-9.43-18.35c-1.87-4.51-2.86-7.12-3.63-7.08S-.32 33.92.32 38.8A65.76 65.76 0 0 0 6.77 59 76.87 76.87 0 0 0 15 72a65.91 65.91 0 0 0 6.11 6.81 48.24 48.24 0 0 0 8.41 6.56 34.31 34.31 0 0 0 5.79 2.84A25.37 25.37 0 0 0 43 89.89a21.27 21.27 0 0 0 4.55-.27 19.3 19.3 0 0 0 4.33-1.31A17.39 17.39 0 0 0 58 83.85a25.26 25.26 0 0 0 5.21-10 42.35 42.35 0 0 0 1.11-5l.68-4.61a127.67 127.67 0 0 1 3.53-17.57l.65-2 .19-.5.1-.24a.32.32 0 0 1 0-.07 1.59 1.59 0 0 1 .29-.38.52.52 0 0 1 .46-.16.78.78 0 0 1 .4.3 1.55 1.55 0 0 1 .13.17 3.43 3.43 0 0 0 .19.29l.83 1.24c.43.62.83 1.29 1.24 2 1.62 2.64 3.12 5.44 4.55 8.25L79.78 60c.79 1.5 1.57 3 2.41 4.48 1.66 3 3.41 5.86 5.29 8.7a105.52 105.52 0 0 0 12.85 16 66.76 66.76 0 0 0 8.12 7c.39.28.75.55 1.15.82l1.34.89c.63.4 1.34.79 2 1.18a20.26 20.26 0 0 0 2.06 1.09 29.26 29.26 0 0 0 8.38 2.81 20.92 20.92 0 0 0 7.79-.12 13.75 13.75 0 0 0 6.17-3 9.2 9.2 0 0 0 2.71-5 18.19 18.19 0 0 0-.06-6.28c-.15-1.07-.39-2.15-.6-3.2-.16-.65-.31-1.29-.47-1.93-.28-1.11-.58-2.18-.88-3.21-.6-2.06-1.21-4-1.8-5.76-2.35-7.15-5.58-15.76-8.82-25.43-1.6-4.83-3.21-9.94-4.5-15.18-.65-2.62-1.21-5.27-1.6-7.9a36.13 36.13 0 0 1-.44-7.58 15.15 15.15 0 0 1 .59-3.28 4.52 4.52 0 0 1 .25-.76l.24-.67v-.13a.37.37 0 0 1 .46-.17 3.43 3.43 0 0 1 .4.18c.55.32 1.1.62 1.69 1a35.89 35.89 0 0 1 3.58 2.71 75 75 0 0 1 6.92 6.8A127.49 127.49 0 0 1 147 39.85l2.73 4.28c1 1.5 2 3 3 4.45a99.91 99.91 0 0 0 6.89 8.55 67.3 67.3 0 0 0 8.45 8c.77.63 1.68 1.24 2.53 1.86s1.73 1.16 3.11 1.89l.93.5 1.11.49a18.45 18.45 0 0 0 2.26.92 20.2 20.2 0 0 0 4.68 1.07 15.16 15.16 0 0 0 8.81-1.55 12.61 12.61 0 0 0 5.36-5.67 14.79 14.79 0 0 0 1.26-3.14 12 12 0 0 0 .31-1.31l.24-1.23c.1-.79.19-1.58.29-2.36s.07-1.51.11-2.27c0-3-.14-5.63-.29-8.26s-.36-5.11-.53-7.56c-.38-4.85-.75-9.32-.76-13.23S198 18 199.16 16a5.71 5.71 0 0 1 2.15-2.16 9.63 9.63 0 0 1 3.13-1.06 49 49 0 0 1 6-.56c1.5 0 2.35-.21 2.41-.5s-.67-.68-2.16-1.18a24.88 24.88 0 0 0-6.82-1 15.22 15.22 0 0 0-5.06.73 11.1 11.1 0 0 0-4.85 3.15c-2.6 3-3.6 7-4.22 11.16a129.37 129.37 0 0 0-.88 13.61c-.08 2.41-.15 4.9-.22 7.45s-.18 5.22-.4 7.7c-.09.62-.17 1.24-.26 1.87s-.24 1.22-.35 1.83-.34 1.16-.49 1.75l-.28.66a2.79 2.79 0 0 1-.27.57 3.85 3.85 0 0 1-1.41 1.54 3.12 3.12 0 0 1-2.32.3 7.07 7.07 0 0 1-2.15-1l-.71-.46-.88-.62c-.58-.43-1.17-.91-1.74-1.39a55.32 55.32 0 0 1-6.52-6.71 89.81 89.81 0 0 1-5.62-7.68q-1.31-2-2.53-4.07l-2.48-4.33A132.07 132.07 0 0 0 148 17.94a83.81 83.81 0 0 0-7.88-8.36 57.24 57.24 0 0 0-4.84-4c-.93-.64-1.84-1.29-2.91-1.91l-.8-.47-1.08-.56a17.78 17.78 0 0 0-2.32-1 20.58 20.58 0 0 0-10.35-1.5 14.46 14.46 0 0 0-8.51 4.22l-1.43 1.74a14.49 14.49 0 0 0-1.17 1.9c-.17.31-.35.65-.5 1l-.29.7-.55 1.3c-.27.9-.56 1.76-.78 2.69a26 26 0 0 0-.48 2.75 43.59 43.59 0 0 0 .12 10 88.45 88.45 0 0 0 1.54 9c1.26 5.8 2.84 11.19 4.42 16.25 3.17 10.12 6.36 18.86 8.64 25.83Z" fill="#819ed2" data-color="1"/>
        </g>
    </g>
</svg>
