<?xml version="1.0" encoding="UTF-8"?>
<svg data-bbox="0 -0.025 333.038 180.175" viewBox="0 0 333.09 180.18" xmlns="http://www.w3.org/2000/svg" data-type="color">
    <g>
        <g>
            <path d="m25.14 22.33-3.15-3-1.79-1.69-.11-.11s-.07.08-.1.12l-.18.27-.38.57-.77 1.14-3.22 4.89-3.33 5.28c-1.36 2.14-1.59 2.69-2.19 3.79s-1.08 2-1.62 3.07c-1.08 2.07-2.12 4.18-3.09 6.25C1.34 51.16-1.28 58.64.65 60S8.15 55.82 14 48.91c1.46-1.73 2.93-3.55 4.37-5.37l2.13-2.72 1-1.35.25-.33c0-.06 0 0 0 0a.15.15 0 0 1 .17.16l4 4 9.42 9.49C41.75 59 47.28 64.3 49.21 62.94s-.8-8.88-5.46-16.92a116.13 116.13 0 0 0-7.83-11.73c-.68-.9-1.36-1.76-2-2.58l-1-1.2-.48-.57c-.18-.21-.25-.31-.6-.69-2.5-2.7-4.84-5.09-6.7-6.92Z" fill="#819ed2" data-color="1"/>
            <path d="M121.21 53.54c-.87-.56-1.88-1.09-3-1.69l-.42-.23-.4-.1a7.18 7.18 0 0 0-.85-.14 7.72 7.72 0 0 0-2.08 0 5.4 5.4 0 0 0-1.51.47 6.66 6.66 0 0 0-1.54.83 13.89 13.89 0 0 0-3 3 36.86 36.86 0 0 0-4.49 6.83 69.37 69.37 0 0 0-3.84 9.93c-1.92 6.22-2.78 11.42-1 12.44s5.4-2.6 9.34-7.66c2-2.56 4-5.38 5.87-7.83l.71-.91.18-.21c.06-.08 0 0 0 0a.2.2 0 0 1 .14 0 .18.18 0 0 1 .11.12v.09l.19.22 3.55 3.84c2.56 2.72 5.44 5.71 8.23 8.41 5.59 5.4 10.83 9.68 12.67 8.21s-.64-8-4.46-15c-1.9-3.49-4.14-7.1-6.29-10.27-1.08-1.59-2.13-3.06-3.11-4.36-.13-.19-.78-1-1.22-1.52s-1-1.14-1.4-1.66Z" fill="#819ed2" data-color="1"/>
            <path d="M65.06 112.1a7.35 7.35 0 0 0-2.34-.72 7.53 7.53 0 0 0-3.16.22 6.49 6.49 0 0 0-.74.26l-.78.46-1.58 1a42.06 42.06 0 0 0-3.11 3.53l-1.5 2-.73 1c-.19.27-.27.41-.41.62-.49.78-1 1.58-1.44 2.4-1 1.63-1.83 3.3-2.61 5-3.16 6.62-4.56 12.84-2.58 14.09s6.3-2.88 11.05-7.68l3.61-3.7 1.78-1.85.22-.22c.08-.08.17-.17.15-.14h.08a.18.18 0 0 1 .13.2l.39.44 1.65 1.82c2.28 2.49 4.88 5.2 7.43 7.62 5.1 4.83 10 8.51 11.82 7s-.34-7.41-3.6-13.74a121.23 121.23 0 0 0-5.36-9.32c-.47-.72-.92-1.42-1.36-2.08l-.33-.49-.61-.83-1.13-1.87c-.88-1.12-1.7-2.25-2.51-3.18a8.5 8.5 0 0 0-2.43-1.84Z" fill="#819ed2" data-color="1"/>
            <path d="m184.24 6.87-1.34-1.35-.72-.72-.38-.37a1.62 1.62 0 0 0-.19-.18l-.18-.07-3.2-1.18a5.23 5.23 0 0 0-1.66-.09 6.85 6.85 0 0 0-2 .44 5.78 5.78 0 0 0-.79.38c-.25.17-.51.39-.77.59l-.78.62a2.58 2.58 0 0 0-.77.8L170 7.91c-.44.88-.83 1.85-1.24 2.76l-1.19 2.78-.57 1.37-.28.68-.15.43c-.7 2.11-1.36 4.25-1.92 6.34-2.29 8.35-3.14 15.82-1 16.73s6.26-5.09 10.6-12.23l3.26-5.5c.18-.33.16-.23.19-.26h.18a.33.33 0 0 1 .15 0 .28.28 0 0 1 .12.21v.07l.21.23.42.47 3.82 4.15c2.75 3 5.83 6.23 8.8 9.2 5.93 5.94 11.42 10.75 13.29 9.32s-.83-8.43-5-16c-2.09-3.77-4.54-7.68-6.9-11.11a111.41 111.41 0 0 0-3.42-4.71l-.39-.52c-.15-.18-.21-.28-.53-.65L187 9.92c-1-1.15-1.9-2.22-2.76-3.05Z" fill="#819ed2" data-color="1"/>
            <path d="M281.78 3a8.26 8.26 0 0 0-2.62-2.14 7.51 7.51 0 0 0-1.45-.57 7.3 7.3 0 0 0-1.56-.29 6.68 6.68 0 0 0-2 .13 7.22 7.22 0 0 0-.83.23c-.28.14-.57.31-.86.47a12.45 12.45 0 0 0-1.77 1.07l-1.78 2a64.71 64.71 0 0 0-5.36 7.78c-1 1.86-2.06 3.76-3 5.63-3.55 7.45-5.46 14.39-3.48 15.69s6.82-3.64 12.15-9.43c2.41-2.6 6.46-7.28 5.74-6.07a.21.21 0 0 1 .1.24s-.09-.14.27.32c1 1.29 2.17 2.73 3.4 4.23 2.47 3 5.28 6.29 8 9.24 5.5 5.92 10.77 10.54 12.65 9.13s-.52-8.14-4.11-15.46c-1.8-3.66-3.89-7.47-5.89-10.84-1-1.69-2-3.26-2.88-4.65l-.17-.26-.2-.45-.68-1-1.31-1.83c-.85-1.12-1.63-2.17-2.36-3.17Z" fill="#819ed2" data-color="1"/>
            <path d="m209.6 66.31-.52-.69a7.09 7.09 0 0 0-.62.68l-1.32 1.57c-.9 1.09-1.88 2.27-2.91 3.53s-2.06 2.6-3.14 4-2.1 2.93-3.15 4.44l-.37.57-.18.29-.1.17-.39.69c-.27.45-.52.93-.77 1.4-.5 1-1 1.93-1.45 2.91a61.24 61.24 0 0 0-2.46 6c-2.86 8-3.24 15.26-1.07 16.06s5.83-4.78 10.33-10.85c1.11-1.53 2.27-3.09 3.44-4.62l1.76-2.25.87-1.1.44-.54.08-.09c.2 0 .17.16.18.15a.12.12 0 0 1 0-.06.09.09 0 0 1 .06 0l.42.55c2.36 3.06 5 6.41 7.68 9.43 5.28 6 10.37 10.8 12.29 9.45s-.23-8.11-3.55-15.5c-1.66-3.7-3.61-7.55-5.49-11l-.35-.63-.7-1.13-1.45-2.3-2.69-4.44c-1.82-2.58-3.47-4.89-4.87-6.69Z" fill="#819ed2" data-color="1"/>
            <path d="m316.88 59.86-2.44-1.61a3.52 3.52 0 0 0-1.37-.57 7.62 7.62 0 0 0-1.63-.23 7 7 0 0 0-1.86.16 4.78 4.78 0 0 0-1.6.65l-1.66 1c-.55.54-1.1 1.19-1.66 1.79a18.17 18.17 0 0 0-1.59 2c-.52.72-1 1.45-1.51 2.15l-.72 1.06c-.21.32-.54.78-.61.93l-.74 1.3c-1 1.74-1.88 3.53-2.69 5.29-3.28 7-4.87 13.6-2.89 14.84s6.52-3.28 11.5-8.61l3.76-4.11.93-1c.11-.12.1-.1.12-.11h.26a.24.24 0 0 1 .11.25s0-.08.17.15l.06.06.32.4c.24.31.49.64.75 1l1.61 2c2.23 2.8 4.73 5.87 7.18 8.67 4.89 5.59 9.54 10.11 11.51 8.83s.28-7.77-2.73-14.82c-1.51-3.52-3.33-7.18-5.12-10.4L323 68.61l-.65-1.09-.34-.55-.6-.89c-.82-1.19-1.51-2.27-2.35-3.34s-1.49-2.15-2.18-2.88Z" fill="#819ed2" data-color="1"/>
            <path d="M175.6 135.86a8.14 8.14 0 0 0-2.62-.32 7 7 0 0 0-3.22.89l-1.64 1.22-.85.64-.21.16c-.07.08-.13.19-.2.28l-.4.56c-1.07 1.52-2.18 3.06-3.21 4.8l-1.53 2.49L161 148a129.28 129.28 0 0 0-5.69 12.26c-3.24 8.12-4.83 15.26-2.88 16.33s6.52-4.33 11.65-11c2.56-3.34 5.26-7 7.77-10.41l.93-1.26c.07-.07.06 0 .09 0a.11.11 0 0 1 .09 0 .12.12 0 0 1 .05.09.06.06 0 0 1 0-.05h.07a10 10 0 0 1 .6.87l.91 1.35c2.47 3.66 5.28 7.67 8 11.32a87.55 87.55 0 0 0 7.75 9.15c.57.56 1.11 1.05 1.61 1.46l.2.16.26.26c.18.16.36.31.55.45a6.2 6.2 0 0 0 1.24.75 3.74 3.74 0 0 0 2.87.24c.75-.33.87-.77.76-1s-.47-.42-.84-.69a1.9 1.9 0 0 1-.73-1.12 11.08 11.08 0 0 1-.22-1.55c-.1-.66-.24-1.39-.43-2.18a85.74 85.74 0 0 0-3.93-11.43c-1.75-4.26-3.8-8.73-5.77-12.71l-.73-1.47-.36-.72-.22-.4-.37-.67-2.93-5.1a11.68 11.68 0 0 0-3-3.65 8.15 8.15 0 0 0-2.7-1.42Z" fill="#819ed2" data-color="1"/>
            <path d="M276.15 131.66c-2.21-1.95-4.85-3.31-8.71-2.2a7.9 7.9 0 0 0-2.76 1.59 11.45 11.45 0 0 0-2.46 3c-.74 1.23-1.41 2.59-2.07 3.9l-.93 1.94-.45 1.19a58.54 58.54 0 0 0-2.7 9.44c-.52 2.85-.87 5.08-1.31 6.86s-.92 3.16-.4 4 2.2.83 4.33-.52 4.19-3.89 5.82-6.42l4.89-7.44.6-1c.07-.07.08 0 .12-.05h.15a.23.23 0 0 1 .15.12.2.2 0 0 1 0 .15l.19.2 3.46 3.65c2.49 2.59 5.29 5.44 8 8 5.43 5.14 10.52 9.23 12.36 7.76s-.49-7.79-4.19-14.55a112.43 112.43 0 0 0-6.12-9.92c-1.05-1.53-2.08-2.95-3-4.2-.13-.19-.74-.91-1.19-1.44l-1.37-1.59-1.28-1.47a7.57 7.57 0 0 0-1.13-1Z" fill="#819ed2" data-color="1"/>
        </g>
    </g>
</svg>
