<?xml version="1.0" encoding="UTF-8"?>
<svg data-bbox="-0.019 -0.008 277.187 290.128" viewBox="0 0 277.07 290.16" xmlns="http://www.w3.org/2000/svg" data-type="color">
    <g>
        <g>
            <path d="M97.89 83.25v.16c0 .04 0 .06-.2 0-1.13-1-2.24-2-3.37-3s-2.3-2.08-3.43-3.2C86.27 72.82 81.54 68 76.76 62.9L75 61l-1.53-1.7-1.71-1.93c-2.28-2.59-4.53-5.31-6.8-8l-13.59-16.8c-.19.67-.35 1.6-.52 2.48l-.5 2.62-1 5.24q-1 5.18-1.94 10.39t-1.88 10.3l-.91 5.11-.53 3.16a7.6 7.6 0 0 0-.17 1.35v.68l-.09 1.54-.24 3.79v.52c0 .14-.05 0-.08 0l-.1-.1-.45-.42-1-1c-.65-.73-1.39-1.57-2.17-2.55l-.57-.77-.3-.39-.15-.2-.33-.52c-.91-1.4-1.84-2.77-2.66-4.2-1.66-2.85-3.42-5.58-4.93-8.39-6.28-11.12-11.4-21.78-15.58-30.94C6.88 11.94 2.25-.37.57 0s.17 13.71 6.34 33.4a275.85 275.85 0 0 0 12.93 33.36c1.34 3 3 6.06 4.5 9.17.76 1.56 1.64 3.08 2.5 4.63l2.08 3.67c.77 1.4 1.61 2.67 2.43 4 3.35 5.11 6.83 10.06 10.38 15.26l5.6 7.85 2.84 4c.46.64 1 1.4 1.4 1.94l1.22 1.52c1.07-7.41 2.16-15.54 3.3-23 .54-3.81 1.24-7.33 1.9-11l1.95-9.92.51-2.43.08-.2.15-.34c.09-.18.15-.39.24-.39l.36.61.11.22.23.26 1.82 2.08c4.86 5.52 9.7 10.74 14.55 15.52 1.18 1.22 2.43 2.37 3.62 3.52s2.36 2.28 3.59 3.37l3.46 3.11 3.41 2.85 6.61 5c1.08.8 2.17 1.7 3.2 2.39l3.12 2.35 6 4.14 11 7.62c-.52-3.24-1-6.35-1.51-9.33q-.61-3.81-1.27-7.89c-.22-1.36-.44-2.73-.67-4.13s-.48-2.86-.62-4.16-.34-2.72-.51-4.1a40.17 40.17 0 0 1-.4-4.11c-.07-1.33-.13-2.68-.2-4 0-.68-.08-1.38-.09-2.06V83.1a75 75 0 0 1 .45-7.67c.13-1.31.32-2.63.55-3.91.11-.65.24-1.28.37-1.9l.21-.87.1-.4v-.17L103 71.84c1.31 1.28 2.47 2.36 3.74 3.52s2.51 2.26 3.8 3.4q3.87 3.4 8 6.8c5.53 4.53 11.44 9 17.66 13.4 1.54 1.12 3.12 2.19 4.72 3.26l2.39 1.61.6.41.32.21.56.35 2.22 1.39c3 1.85 5.92 3.74 8.89 5.55l9 5 2.23 1.24 2.18 1.13 4.34 2.26 8.78 4.55 4.47 2.32 2.23 1.15 1.11.57.52.26.3.14 2.36 1 .59.25 1.1.52 2.31 1.08-9.37-15.45c-1.44-2.4-2.89-4.79-4.33-7.18l-2.06-3.42-1-1.7-.51-.85c-.17-.28-.36-.59-.45-.79l-2.65-5.47-1.32-2.7c-.44-.91-.65-1.68-1-2.53l-1.84-4.92c-.31-.82-.59-1.63-.86-2.44l-.61-1.93c-.56-1.66-1.06-3.34-1.57-5-.26-.84-.49-1.67-.73-2.51 0-.14 0-.14-.05-.15V76l-.1-.23c-.25-.64-.51-1.37-.78-2.2l-.2-.65-.1-.33-.05-.17v-.09l1 .2L171 73l.64.16 2 .67 4.25 1.44L186 78c20.68 6.84 34.45 10.68 35.09 9s-12-8.36-31.75-17.59l-7.73-3.58-4.13-1.83-2.2-1-3.11-1.35c-4.2-1.8-8.78-3.82-13.28-5.53l-7-2.74c-.13 0-.33-.16-.42-.14l.06.44.12.89.25 1.78c.18 1.19.35 2.4.52 3.6.7 4.85 1.53 10 2.7 15.6.27 1.36.61 2.85.91 4.15.19.9.38 1.8.6 2.71.42 1.81.85 3.64 1.34 5.47.26 1.23.53 2.49.8 3.75a24.36 24.36 0 0 0 .68 2.4 7.15 7.15 0 0 0 .34.85c.1.14-.16-.08-.26-.14l-.39-.26-.73-.51c-1-.65-1.75-1.27-2.42-1.8l-1.99-1.6-.22-.19h-.06l-.22-.17-.56-.4-2.19-1.61a157.52 157.52 0 0 1-4.34-3.23c-5.72-4.33-11.17-8.78-16.28-13.21q-3.82-3.33-7.39-6.61l-3.47-3.26c-1.11-1.06-2.26-2.19-3.19-3.13l-10.61-10.83L101 62.29l-.31 1-.21.75c-.15.5-.25.95-.37 1.42-.22.92-.42 1.81-.59 2.69-.34 1.76-.61 3.46-.81 5.12a90.11 90.11 0 0 0-.7 9.53v.55-.06Z" fill="#819ed2" data-color="1"/>
            <path d="M120.34 160.09s.06.12 0 .16 0 .06-.23 0c-1.25-1-2.48-2-3.74-3s-2.55-2.08-3.82-3.2c-5.13-4.36-10.38-9.18-15.69-14.29l-2-1.93-1.7-1.7-1.9-1.93c-2.54-2.59-5-5.32-7.56-8l-15.06-16.85a24.85 24.85 0 0 0-.58 2.48l-.55 2.62c-.36 1.74-.72 3.49-1.09 5.23q-1.07 5.19-2.15 10.39t-2.08 10.3l-1 5.11-.57 3.17a6.84 6.84 0 0 0-.19 1.34v.69l-.1 1.53c-.08 1.27-.17 2.53-.26 3.79v.52c0 .14-.06 0-.09 0l-.12-.1-.56-.42-1.1-1c-.72-.74-1.54-1.58-2.4-2.55l-.64-.77-.33-.4-.17-.2-.37-.51c-1-1.41-2-2.78-3-4.21-1.84-2.85-3.8-5.58-5.48-8.4-7-11.12-12.68-21.79-17.34-31-9.24-18.3-14.39-30.61-16.27-30.24s.21 13.71 7.08 33.4a262.06 262.06 0 0 0 14.4 33.38c1.5 3.05 3.31 6.06 5 9.18.84 1.56 1.83 3.08 2.78 4.63l2.33 3.69c.85 1.4 1.79 2.67 2.7 4 3.72 5.11 7.59 10.06 11.54 15.27q3.09 3.92 6.22 7.85l3.16 4c.51.64 1.09 1.4 1.56 1.94l1.36 1.52c1.17-7.41 2.37-15.53 3.62-23 .6-3.81 1.37-7.33 2.1-11l2.16-9.92.56-2.42.09-.21.16-.34c.11-.18.17-.39.27-.39l.39.62.13.21v.11l.25.26c.68.7 1.35 1.4 2 2.09 5.4 5.52 10.78 10.75 16.17 15.54 1.31 1.22 2.69 2.37 4 3.52s2.63 2.29 4 3.38l3.84 3.11 3.79 2.85 7.35 5.06c1.19.8 2.41 1.71 3.55 2.4l3.42 2.13 6.65 4.14c4.3 2.69 8.4 5.24 12.26 7.64q-.89-4.86-1.68-9.33l-1.43-7.89q-.36-2-.75-4.14c-.25-1.39-.53-2.85-.69-4.16s-.38-2.71-.57-4.09a35.81 35.81 0 0 1-.45-4.11c-.08-1.34-.15-2.69-.23-4.06 0-.68-.1-1.37-.1-2.05V160a67.8 67.8 0 0 1 .48-7.68c.15-1.31.36-2.62.61-3.91.12-.65.27-1.28.41-1.89l.23-.88.12-.39c0-.07.09-.31 0-.17L126 148.69c1.45 1.28 2.75 2.36 4.15 3.52s2.79 2.27 4.23 3.41c2.86 2.27 5.84 4.53 8.91 6.81 6.15 4.53 12.71 9 19.62 13.42 1.71 1.12 3.46 2.2 5.24 3.27l2.66 1.61.67.41.35.21.62.35 2.47 1.4c3.29 1.85 6.58 3.75 9.87 5.56l10 5 2.49 1.24 2.42 1.1 4.82 2.26 9.76 4.56 5 2.32 2.48 1.16 1.23.57.58.27.33.13 2.62 1 .65.25 1.23.52 2.56 1.08-10.46-15.42c-1.6-2.4-3.21-4.79-4.81-7.18l-2.29-3.43-1.14-1.7-.57-.85a8.68 8.68 0 0 1-.5-.8l-2.95-5.46-1.46-2.71c-.5-.91-.73-1.68-1.11-2.53-.68-1.64-1.36-3.29-2-4.92-.35-.82-.66-1.63-1-2.44l-.68-1.93c-.62-1.66-1.19-3.34-1.75-5-.29-.83-.55-1.67-.81-2.51 0-.14-.05-.14-.06-.15v-.17l-.11-.23c-.27-.64-.56-1.37-.86-2.2l-.23-.64-.11-.34-.06-.17c0-.06-.05-.12 0-.09l1 .2 2.5.52.72.15 2.2.68 4.72 1.45 9 2.71c23 6.87 38.26 10.73 39 9.07s-13.34-8.38-35.27-17.64l-8.58-3.58-4.54-1.88-2.45-1-3.45-1.35c-4.66-1.8-9.75-3.83-14.75-5.55l-7.83-2.75c-.15 0-.37-.16-.46-.14l.06.44.14.89.28 1.78c.19 1.19.39 2.4.58 3.61.78 4.84 1.71 10 3 15.6.3 1.35.68 2.84 1 4.14.22.9.43 1.81.67 2.72.47 1.81 1 3.64 1.5 5.47l.89 3.75a22.63 22.63 0 0 0 .75 2.4 8.83 8.83 0 0 0 .38.85c.12.14-.17-.08-.28-.13l-.43-.27-.82-.51c-1.06-.66-1.94-1.27-2.69-1.81l-2.11-1.59-.26-.19h-.06l-.25-.17-.61-.4-2.44-1.61c-1.63-1.07-3.25-2.13-4.82-3.24-6.35-4.34-12.41-8.79-18.09-13.23a337.12 337.12 0 0 1-8.21-6.62l-3.85-3.26c-1.24-1.06-2.51-2.19-3.55-3.14l-11.89-10.84-5 14.35-.33 1-.24.76c-.16.5-.27.94-.4 1.41-.25.92-.47 1.82-.65 2.69-.38 1.76-.68 3.46-.9 5.12a79.18 79.18 0 0 0-.76 9.53v.55-.06Z" fill="#819ed2" data-color="1"/>
            <path d="M140.34 240.09s.06.12 0 .16 0 .06-.23 0c-1.25-1-2.48-2-3.74-3s-2.55-2.08-3.82-3.2c-5.13-4.36-10.38-9.18-15.69-14.29l-2-1.93-1.7-1.7-1.9-1.93c-2.54-2.59-5-5.32-7.56-8l-15.06-16.85a24.85 24.85 0 0 0-.58 2.48l-.55 2.62c-.36 1.74-.72 3.49-1.09 5.23q-1.07 5.19-2.15 10.39t-2.08 10.3l-1 5.11-.57 3.17a6.84 6.84 0 0 0-.19 1.34v.69l-.1 1.53c-.08 1.27-.17 2.53-.26 3.79v.52c0 .14-.06 0-.09 0l-.12-.1-.56-.42-1.1-1c-.72-.74-1.54-1.58-2.4-2.55l-.64-.77-.33-.4-.17-.2-.37-.51c-1-1.41-2.05-2.78-3-4.21-1.84-2.85-3.8-5.58-5.48-8.4-7-11.12-12.68-21.79-17.34-31-9.28-18.36-14.43-30.67-16.31-30.3s.21 13.71 7.08 33.4a262.06 262.06 0 0 0 14.4 33.38c1.5 3.05 3.31 6.06 5 9.18.84 1.56 1.83 3.08 2.78 4.63l2.37 3.75c.85 1.4 1.79 2.67 2.7 4 3.72 5.11 7.59 10.06 11.54 15.27q3.09 3.92 6.22 7.85l3.16 4c.51.64 1.09 1.4 1.56 1.94l1.36 1.52c1.17-7.41 2.37-15.53 3.62-23 .6-3.81 1.37-7.33 2.1-11l2.16-9.92.56-2.42.09-.21.16-.34c.11-.18.17-.39.27-.39l.39.62.13.21v.11l.25.26c.68.7 1.35 1.4 2 2.09 5.4 5.52 10.78 10.75 16.17 15.54 1.31 1.22 2.69 2.37 4 3.52s2.63 2.29 4 3.38l3.84 3.11 3.79 2.85 7.35 5.06c1.19.8 2.41 1.71 3.55 2.4l3.42 2.13 6.65 4.14c4.3 2.69 8.4 5.24 12.26 7.64q-.89-4.86-1.68-9.33l-1.43-7.89q-.36-2-.75-4.14c-.25-1.39-.53-2.85-.69-4.16s-.38-2.71-.57-4.09a35.81 35.81 0 0 1-.45-4.11c-.08-1.34-.15-2.69-.23-4.06 0-.68-.1-1.37-.1-2.05V240a67.8 67.8 0 0 1 .48-7.68c.15-1.31.36-2.62.61-3.91.12-.65.27-1.28.41-1.89l.23-.88.12-.39c0-.07.09-.31 0-.17L146 228.69c1.45 1.28 2.75 2.36 4.15 3.52s2.79 2.27 4.23 3.41c2.86 2.27 5.84 4.53 8.91 6.81 6.15 4.53 12.71 9 19.62 13.42 1.71 1.12 3.46 2.2 5.24 3.27l2.66 1.61.67.41.35.21.62.35 2.47 1.4c3.29 1.85 6.58 3.75 9.87 5.56l10 5 2.49 1.24 2.42 1.1 4.82 2.26 9.76 4.56 5 2.32 2.48 1.16 1.23.57.58.27.33.13 2.62 1 .65.25 1.23.52 2.56 1.08-10.46-15.42c-1.6-2.4-3.21-4.79-4.81-7.18l-2.29-3.43-1.14-1.7-.57-.85a8.68 8.68 0 0 1-.5-.8l-2.95-5.46-1.46-2.71c-.5-.91-.73-1.68-1.11-2.53-.68-1.64-1.36-3.29-2-4.92-.35-.82-.66-1.63-1-2.44l-.68-1.93c-.62-1.66-1.19-3.34-1.75-5-.29-.83-.55-1.67-.81-2.51 0-.14-.05-.14-.06-.15v-.17l-.11-.23c-.27-.64-.56-1.37-.86-2.2l-.23-.64-.11-.34-.06-.17c0-.06-.05-.12 0-.09l1 .2 2.5.52.72.15 2.2.68 4.72 1.45 9 2.71c23 6.87 38.26 10.73 39 9.07s-13.34-8.38-35.27-17.64l-8.58-3.58-4.54-1.88-2.45-1-3.45-1.35c-4.66-1.8-9.75-3.83-14.75-5.55l-7.83-2.75c-.15 0-.37-.16-.46-.14l.06.44.14.89.28 1.78c.19 1.19.39 2.4.58 3.61.78 4.84 1.71 10 3 15.6.3 1.35.68 2.84 1 4.14.22.9.43 1.81.67 2.72.47 1.81 1 3.64 1.5 5.47l.89 3.75a22.63 22.63 0 0 0 .75 2.4 8.83 8.83 0 0 0 .38.85c.12.14-.17-.08-.28-.13l-.43-.27-.82-.51c-1.06-.66-1.94-1.27-2.69-1.81l-2.11-1.59-.26-.19h-.06l-.25-.17-.61-.4-2.44-1.61c-1.63-1.07-3.25-2.13-4.82-3.24-6.35-4.34-12.41-8.79-18.09-13.23a337.12 337.12 0 0 1-8.21-6.62l-3.85-3.26c-1.24-1.06-2.51-2.19-3.55-3.14l-11.89-10.84-5 14.35-.33 1-.24.76c-.16.5-.27.94-.4 1.41-.25.92-.47 1.82-.65 2.69-.38 1.76-.68 3.46-.9 5.12a79.18 79.18 0 0 0-.76 9.53v.55-.06Z" fill="#819ed2" data-color="1"/>
        </g>
    </g>
</svg>
