<?xml version="1.0" encoding="UTF-8"?>
<svg data-bbox="0 -0.021 1391.437 627.059" viewBox="0 0 1391.48 627.03" xmlns="http://www.w3.org/2000/svg" data-type="color">
    <g>
        <g>
            <path d="M1281.57 511.77a18.86 18.86 0 0 0-.17 3q1.45 11.49 3 23c.3 2.27.66 4.53 1 6.78 1.29 7.45 2.73 14.87 3.88 22.34 1 6.82 1.82 13.67 2.64 20.52.27 2.26 0 4.57 2.69 5.82.8.37 1.34 1.85 1.53 2.9.5 2.74.75 5.52 1.07 8.28.48 4-.26 8.07 1.43 12.09.94 2.23.25 5.19.08 7.8a2.79 2.79 0 0 1-3 2.73c-2.57 0-5 .1-7.48-1.51-4-2.57-6.37-6-9.06-9.87-4.9-7-6.73-14.87-9.15-22.65-3.55-11.42-6.2-23.19-10.7-34.22-4.39-10.75-6.28-22.1-10-33-.37-1.08-.45-2.28-.87-3.34a8.62 8.62 0 0 0-8-5.55c-6.23.27-12.54 0-18.67 1-5.8.89-11.41.12-17.11 0-3.29-.08-6.71-.29-9.85.46-6.89 1.63-13.63 1.27-20.51.15-3-.49-6.18.08-9.28-.05-3.76-.16-7.52-.54-11.28-.86-.81-.07-1.72-.6-2.41-.38-5 1.57-10.1.6-15.11 1.12-5.38.55-10.69 1.84-16.07 2.4-3.39.35-6.86-.1-10.3-.1-3.28 0-6.56.15-9.83.14-12.35-.06-24.7-.19-37.05-.25-5.27 0-10.54.28-15.8.08-4.41-.17-8.8-.93-13.22-1.29a92.6 92.6 0 0 0-9.85-.41c-8.71.23-17.41.79-26.11 1a125.16 125.16 0 0 1-13.26-.69 155.52 155.52 0 0 0-26.52-.21c-5.84.48-11.77-.21-17.67-.2-5.58 0-11.23-.21-16.74.48-10.7 1.36-21.37.62-32.06.33-6.74-.19-13.48-.47-20.21-.93-5.4-.36-10.76-1.12-16.14-1.59-2.12-.19-4.27 0-6.39-.11-20.22-1.23-40.41-1.85-60.67-.13-8.8.75-17.73-.06-26.61 0-10.21 0-20.42.48-30.63.33-15-.23-30-.34-44.92-1.42-12.33-.9-24.58-.36-36.87-.12-6.56.13-13.13-.34-19.7-.29-16 .09-31.94.34-47.9.51-3.63 0-7.25-.11-10.87-.06a297.54 297.54 0 0 0-40.3 3.49 63.51 63.51 0 0 1-21.13-.09 17.56 17.56 0 0 0-3.9-.24 62.11 62.11 0 0 1-17.18-1.34c-3.13-.74-6.52-.5-9.79-.51q-14 0-28.09.08c-2.47 0-4.93.51-7.39.44-3.58-.09-7.15-.53-10.72-.75-2.94-.18-5.87-.33-8.81-.36-3.12 0-6.24.16-9.36.13-9.68-.11-19.37-.43-29.06-.38-5.91 0-11.83.85-17.74.88-9.37.05-18.74-.21-28.11-.42-8.7-.19-17.46-1.25-26.09-.55-13.34 1.08-26.61-.54-39.86 0a149.84 149.84 0 0 1-24.54-1.43c-4-.51-8.18-.08-12.24-.46-7.83-.75-15.64-1.78-23.27-2.67-.45.46-.87.7-.86.91.49 7.48-3.34 13.79-5.66 20.48-2.41 7-4.94 14-7.73 20.82-5 12.18-8.31 24.85-12.07 37.41-2 6.59-3.95 13.18-6.3 19.64-.71 2-2.7 3.46-3.75 4.75-2.23.47-4.16.54-5.78 1.29a4.75 4.75 0 0 1-6.18-1.36 15.48 15.48 0 0 1-3.21-15.14 46.23 46.23 0 0 0 2-11.09c.14-3.27.73-6.53 1.18-9.79 1.18-8.46 2.22-16.95 3.63-25.37 1.62-9.71 3.72-19.34 5.33-29a120.73 120.73 0 0 0 1-12.77c.13-2.31-.88-3.78-3.37-4-7.79-.59-14.43-4.27-21-8.08-2.51-1.47-4.66-3.58-7-5.36a73.21 73.21 0 0 0-5.91-4.37c-6.86-4.21-11.72-10.18-16.51-16.57-3.9-5.21-6.67-10.92-9.53-16.56-1.73-3.41-4.12-6.95-3.23-11.5.56-2.89-.43-6.43-3.24-7.81-5.87-2.86-8.6-8.45-12.44-13-5.62-6.71-9.67-14.45-13.64-22.22s-8.4-15.55-12.27-23.49c-2.88-5.89-5.21-12.05-7.76-18.1a46.25 46.25 0 0 0-2.24-5.48C51.54 346.52 49 336.22 45 326.5c-.68-1.67-1.64-3.23-2.27-4.92-1.9-5.07-3.85-10.13-5.53-15.28a278.68 278.68 0 0 0-13.06-33.58c-1.19-2.51-1.61-5.38-2.72-7.93-2.4-5.55-5-11-7.53-16.52-.81-1.79-1.53-3.64-2.18-5.49-4.63-13.22-7.64-26.88-10.52-40.55-1.68-7.95-1.88-16 1.37-23.71a9 9 0 0 1 1.19-2.65c4.27-4.55 8.56-9.08 13-13.49s8.7-8.49 13.14-12.64c6.48-6.06 13.07-12 19.55-18.09 2.37-2.23 4.4-4.85 6.83-7 5.17-4.56 10.5-8.93 15.78-13.38a9.43 9.43 0 0 0 1.56-1.19c4.53-6 11.23-9.43 17-14 5-4 9.88-8.16 14.78-12.29 3.75-3.16 7.23-6.69 11.23-9.48s7.8-6.61 12.08-8.82c5.33-2.76 9.65-7.54 16-8.41 1.14-.16 2.11-1.5 3.18-2.24a22.65 22.65 0 0 1 4.49-2.91 21.24 21.24 0 0 0 8.1-5.24c2-2.06 5.36-2.88 8.21-4 5.35-2.11 10.73-4.15 16.17-6a64.7 64.7 0 0 1 8.08-2c7.39-1.48 14.86-2.67 22.2-4.4 6.85-1.62 13.53-4 20.38-5.63 5.08-1.2 10.32-1.72 15.48-2.57a13.56 13.56 0 0 0 2.38-.58 84.48 84.48 0 0 1 19.13-4.31c6.49-.67 12.89-2.35 19.32-3.64 8.38-1.68 16.74-3.44 25.12-5.13a35.78 35.78 0 0 1 4.83-.69c4.38-.28 8.75.16 12.65-3 1.49-1.22 4.49-1.32 6.61-.91 6.16 1.2 12.11-.2 18.13-.8s11.74-1.81 17.63-1.89c7.19-.11 14.39.93 21.6 1 10.5.17 21-.11 31.51-.09 11.17 0 22.34.17 33.51.25 14.81.1 29.62.23 44.42.29 9.35 0 18.71.17 28.06-.14 10.5-.34 21-1.22 31.48-1.7 6.73-.3 13.47-.31 20.2-.42q6.16-.1 12.34-.14c7.18 0 14.35-.78 21.55.66 4.29.86 8.81.73 13.22.74A183.74 183.74 0 0 1 656.27 3c6.15.75 12.49 0 18.74-.06 11.69 0 23.38-.14 35.06 0q19.68.21 39.35.81c5.75.17 11.48.86 17.22 1.16 6.87.36 13.76.51 20.63.86 5.23.27 10.45.71 15.67 1.07a11.17 11.17 0 0 0 2.45 0c10.81-1.7 21.57-.46 32.37.32 8.69.62 17.42.72 26.14 1h2.47c9.17.6 18.34 1.38 27.53 1.74 5.41.2 10.86-.61 16.26-.36 16.93.79 33.9.68 50.75 3.1 10.91 1.57 22 2.23 33 3.12q14.5 1.19 29.06 2c9.51.52 19 .63 28.53 1.23 10 .63 19.93 1.67 29.89 2.44 2.78.21 5.6-.05 8.38.13 4.09.26 8.17.71 12.25 1.08a6.88 6.88 0 0 0 2.45.15c3.74-1.15 7 .4 10.55 1.25 3.93.95 8.11.93 12.19 1.15a27.57 27.57 0 0 1 8.94 2.26c5 2 10.37 3 15.61 4.25 3.33.82 6.71 1.45 10.08 2.11 6.27 1.22 12.55 2.37 18.81 3.64 2.57.52 5.09 1.25 7.61 1.94 5.83 1.57 11.69 3.06 17.46 4.82 4.39 1.33 8.65 3.09 13 4.55 5 1.67 10 3.18 15 4.83 5.93 2 11.79 4.15 17.77 5.95 8.3 2.5 16.69 4.72 25 7a9.17 9.17 0 0 1 1.44.33c7 3.48 14 7 21 10.46 1.31.65 2.72 1.52 4.11 1.57 7.32.25 11.64 5.43 16.38 9.81 6 5.53 10.19 12.41 14.19 19.41 5.06 8.86 10 17.76 15.1 26.63 4.55 8 9.39 15.83 13.62 24 4.06 7.85 7.45 16 11.22 24.06 3.13 6.67 6.4 13.27 9.61 19.9 3.33 6.91 7 13.49 6.69 21.77-.27 8.49 1.21 17 1.54 25.55a67.67 67.67 0 0 1-.81 13.26c-1.32 8.39-2.18 16.87-5.3 24.93-1.7 4.42-2.35 9.23-3.55 13.84s-2.43 9.21-3.75 13.79c-2.16 7.42-4.52 14.79-6.59 22.24a329.9 329.9 0 0 1-11.37 33.07c-2.17 5.5-3.53 11.3-5.39 16.92-4.71 14.18-9.06 28.5-14.42 42.43-2.91 7.58-5.17 15.71-10.65 22.09-3 3.45-6.31 6.57-9.39 9.93a6.53 6.53 0 0 0-1.54 3c-1.86 9-5.51 17.2-9.86 25.16a21.1 21.1 0 0 1-2.93 3.94c-5.17 5.76-10.68 11.14-17.74 14.59-1.98 1-4.16 1.65-6.53 2.55zM175.1 315c-5.24 5.06-11.16 8.33-15 14.07a105.35 105.35 0 0 1-10.24 12.66 93 93 0 0 0-15.61 22.73c-3.38 7-6.86 13.84-11.47 20.11A30 30 0 0 0 119 392a5.89 5.89 0 0 0 .08 4.22c.77 1.58 2.44.73 3.93.6 4.22-.38 8.48-.42 12.72-.39 5.07 0 10.13.41 15.2.41 8.19 0 16.39-.21 24.58-.25 5.07 0 10.14.19 15.21.14 10-.09 20-.34 30-.4 2.61 0 5.21.55 7.82.73 5.73.42 11.47.7 17.19 1.15 7.68.6 15.33 1.55 23 1.93 13.47.67 26.95 1 40.43 1.49 5.74.19 11.49.42 17.23.43 6.9 0 13.8-.27 20.7-.23 4.74 0 9.48.44 14.22.54 3.12.06 6.25-.25 9.38-.21 8.55.13 17.1.61 25.65.48 16.78-.25 33.55-.84 50.32.33 4.74.33 9.51.23 14.27.19 6.88-.06 13.75-.26 20.62-.38 7.89-.13 15.83.24 23.66-.49a118.63 118.63 0 0 1 18.18 0 16.46 16.46 0 0 0 2.95.18c8.72-1.27 17.36.49 26 .79 9.84.35 19.62.82 29.42-.5 3.56-.49 7.16-.79 10.62.91a9.05 9.05 0 0 0 3.81.73c10.62.15 21.25.66 31.84.2 7.76-.34 15.42.18 23.13.49 8.19.34 16.4.58 24.6.43 9.68-.18 19.36-.88 29-1.24 4.9-.18 9.82 0 14.73-.15 5.1-.15 10.19-.47 15.28-.73 2.9-.15 6 .26 8.64-.67 3.7-1.31 7.35-1.48 11.15-1.59 5.87-.17 11.73-.66 17.6-.92 4.93-.22 9.86-.41 14.78-.4 5.24 0 10.48.34 15.72.4 3.92 0 8 .54 11.73-.42a41.81 41.81 0 0 1 11.68-1.34 14.81 14.81 0 0 0 3.94-.05 33.44 33.44 0 0 1 11.25-.5c3.64.31 7.38-.63 11.08-.8 4.42-.2 8.87.07 13.28-.29 6.38-.51 12.71-1.79 19.09-2 7.31-.25 14.65.57 22 .43 8.85-.18 17.69-.93 26.54-1.31q7.39-.33 14.81-.26c9.68.1 19.37.63 29 .46 13.3-.24 26.59-1.08 39.89-1.44 5.92-.16 11.85.29 17.77.34 2.62 0 5.24-.43 7.85-.37 7.37.18 14.74.53 22.11.79 7.73.27 15.46.55 23.18.76 4.59.13 9.19.28 13.78.19 7.7-.17 15.4-1.24 23.07.39a8.11 8.11 0 0 0 2 .2c9.34-.36 18.69-.86 28-1.08 5.89-.14 11.8.21 17.69.18 5.07 0 10.15 1.37 15.22-.23a8.79 8.79 0 0 1 2.93.06c7.22.37 14.44.95 21.67 1 9 .12 18.1-.1 27.15-.29 3.59-.08 7.16-.49 10.75-.7a86.54 86.54 0 0 1 8.81-.38c8.36.37 16.71 1.18 25.08 1.36a81.53 81.53 0 0 0 13.74-1.24c1.58-.24 3.9-1.32 4.31-2.54 1.91-5.67 2.58-11.27-.64-17.05a253.25 253.25 0 0 1-11.7-23.79c-3.08-7.19-8.12-13-12.23-19.46a7.34 7.34 0 0 0-1.88-1.59c-9.4-7.14-18.69-14.44-28.26-21.34-5.83-4.2-12.13-7.73-18.16-11.66-2.46-1.6-4.7-3.49-7.81-3.82a6.91 6.91 0 0 1-2.58-1.35c-5.31-3.35-10.71-6.43-17.24-6.7a14.5 14.5 0 0 1-3.32-.9c-3.61-1.09-7.18-2.31-10.83-3.25-4.3-1.11-8.68-1.88-13-3-9-2.31-17.71-6-27.3-5.34a3.32 3.32 0 0 1-1-.18l-22.66-4.9c-1.12-.25-2.21-.67-3.33-.81-10.43-1.31-20.85-2.63-31.29-3.83-4.07-.47-8.18-.58-12.27-.92-2.76-.22-6 .27-8.18-1a17.56 17.56 0 0 0-14.2-1.91 11.35 11.35 0 0 1-3.45.19c-6.06-.31-12.13-.48-18.16-1.05-8.18-.79-16.33-1.92-24.49-2.87q-11.25-1.31-22.51-2.5c-.46-.06-1 .27-1.44.28a62.29 62.29 0 0 1-7.85 0 263.61 263.61 0 0 0-32.89-1.83c-13 .09-26-.62-39-1.15-10-.41-20-1.67-30-1.47-13.34.27-26.61-.64-39.91-1-12-.28-24-.24-36-.39-3.43 0-6.86-.25-10.29-.33-5.41-.11-10.83-.16-16.24-.27-3.28-.07-6.56-.19-9.84-.34-5.4-.24-10.8-.82-16.19-.74-9.21.13-18.42.67-27.63 1-1.78.07-3.63-.31-5.35 0a110.34 110.34 0 0 1-30.35 1.84c-3.54-.29-7.16.4-10.74.68-4.43.34-8.91 1.3-13.27.93-5-.44-10-1.08-15.11-.69-7.18.54-14.44.24-21.66.13-11.5-.19-23-.73-34.51-.07-12.63.73-25.33.14-38 .1-4.11 0-8.23-.25-12.34-.15-3.44.08-4.38 1.36-3.66 4.69s1.7 6.64 2.35 10c.51 2.58.67 5.15 2.8 7.18a4.67 4.67 0 0 1 1.15 3.6 33.17 33.17 0 0 0 .92 14.45 16.9 16.9 0 0 1 0 8.24c-.58 2.17-2.23 5-4.09 5.7a102.6 102.6 0 0 1-18.5 5.07c-5.13.86-10.49.37-15.74.56-8.55.31-17.14.29-25.65 1.11-14.58 1.4-29.11 3.3-43.65 5.07-4.39.54-8.76 1.32-13.13 2.09-13.92 2.45-27.81 5.05-41.76 7.38-8 1.33-16 2.09-24 3.42-6.32 1.06-12.56 2.64-18.85 3.88-12.42 2.46-24.94 4.45-37.11 8.08a74.87 74.87 0 0 1-8.7 1.76c-9.57 1.61-19.24 2.73-28.68 4.87a104.89 104.89 0 0 1-33.78 2.05 30.69 30.69 0 0 0-9.81.33c-7.08 1.68-13.16-1.23-19.35-3.58a35.5 35.5 0 0 1-7.65-4.47c-4-2.84-7.86-5.75-9.44-10.91-1.23-4.58-3.4-9.02-5.53-14.21zm189.42-165c5-1 9.29-1.87 13.61-2.7 9.34-1.79 18.67-3.62 28-5.31 4.35-.78 8.74-1.29 13.11-1.91 8.6-1.23 16.87-4 25.69-4.36 10.5-.39 21-1.79 31.44-2.67 6.22-.52 12.45-.81 18.67-1.31 4.91-.39 9.79-1.13 14.7-1.37s6.07.83 6.62 5.7c.09.81.06 1.64.08 2.47.19 9.67.47 19.35.56 29 .14 16.42 3.27 32.31 8.16 47.91 2.05 6.56 4.08 13.12 6 19.7a17.56 17.56 0 0 1 .64 4.38c.1 4.24.24 4.42 4.26 4.24 5-.22 10.11-.39 15.17-.59 2.29-.09 4.59-.36 6.86-.26 5.25.24 10.49.86 15.74 1 17.87.35 35.75-1.18 53.63.41 7 .62 14.1.13 21.16 0 14.12-.27 28.25-.5 42.37-1 14.45-.51 28.87-1.45 43.32-2 9-.33 18.09-.15 27.14-.32 5.58-.1 11.16-.52 16.74-.59 4.09-.06 8.19.15 12.27.37 6.38.36 12.74 1 19.12 1.19 3.58.13 7.18-.5 10.77-.43 14.44.25 28.88.64 43.32 1 7.21.17 14.42.27 21.63.47 10.86.3 21.74.27 32.56 1.07 17.72 1.32 35.45 1.88 53.2 2 4.59 0 9.18.43 13.75.87 3.73.36 7.43 1.2 11.17 1.53 4.72.42 9.47.42 14.19.84 6.71.6 13.39 1.52 20.1 2.1 4.06.34 8.2 0 12.24.47 9.79 1.22 19.54 2.52 29.44 2.22a11.88 11.88 0 0 1 2.89.38c2.38.52 4.72 1.31 7.13 1.63 9.58 1.27 19.18 2.41 28.77 3.59a45.11 45.11 0 0 0 4.9.57c.9 0 2.26-.24 2.64-.85 1.44-2.32 3.2-4.48 3-7.62a88.09 88.09 0 0 1 .25-11.25c.19-2.79.88-5.54 1.08-8.32.94-13.62 1.72-27.25 2.72-40.86.65-9 1.59-18 2.39-27 1-10.78 2.09-21.56 2.84-32.36.83-12 1.37-24 1.93-36 .38-8 .6-16.06.82-24.09a13.3 13.3 0 0 0-.56-2.91c-1.29-.25-2.4-.5-3.52-.68l-24.79-3.85c-3.89-.6-7.78-1.3-11.69-1.76-5.38-.63-10.78-1-16.17-1.61-7-.74-14-1.85-21.09-2.26-14.9-.86-29.82-1.39-44.74-2-10-.41-20-.76-30-1.12-11.67-.41-23.34-.9-35-1.19-6.22-.16-12.44.11-18.66 0-6.87-.09-13.74-.49-20.6-.5-8.85 0-17.7.55-26.53.31-13.12-.36-26.23-1.21-39.34-1.86-3.61-.19-7.22-.48-10.83-.66-9.16-.45-18.33-.86-27.42-1.28-.15-.81-.25-1.27-.34-1.73-1.44 3.2-4.33 2.69-7 2.56-5.22-.25-10.43-.89-15.65-1-12.45-.18-24.91-.18-37.36-.14-10 0-20 .29-30.08.33-2.71 0-5.7.59-7.69-2.2a1.36 1.36 0 0 0-1.06-.36c-4.27.28-8.33 2.18-12.8 1.16-2.15-.49-4.58.32-6.79 0-9.78-1.59-19.61-1.66-29.49-1.61-7.2 0-14.4-.63-21.6-1-3.26-.18-6.51-.57-9.77-.72-8.13-.37-16.36.61-24.38-1.67-.32-.1-.77.49-1.2.56a16.29 16.29 0 0 1-3.65.42c-5.6-.4-11.18.16-16.77.2-5 0-10.08-.43-15.1-.82-2.12-.16-4.2-.93-6.31-1-7.87-.32-15.75-.46-23.62-.68q-16.71-.47-33.41-1c-1.66 0-3.32-.27-5-.17-2.4.13-4.78.7-7.17.69-6.37 0-12.74-.37-19.11-.41-13.64-.09-27.29-.32-40.93 0-9 .21-18-.2-26.94 1.49-4.07.77-8.19 2.46-12.28 2s-8.13.34-12.22.15c-7.5-.35-15.07.46-22.6.86-1.61.08-3.21.42-5 .67a20.06 20.06 0 0 0 0 3.67c1.52 7.57 3.13 15.13 4.72 22.69.27 1.28.69 2.55.86 3.84 1.42 10.41 2.68 20.84 4.22 31.23 1.66 11.21 3.52 22.4 5.41 33.58.54 2.49 1.41 4.84 2.26 7.84zm954.61 301.82a30.52 30.52 0 0 0 9.38-13.31c.42-1.21 1.44-2.2 2-3.39.68-1.48 1.16-3.06 1.74-4.6 1.08-2.89 2-5.87 3.31-8.64 1.57-3.26 3.44-6.37 3.64-10.13a8.71 8.71 0 0 1 .72-2.33c2.27-6.17 4.7-12.29 6.81-18.51 3.1-9.17 5.88-18.44 9-27.61 2-5.92 4.46-11.67 6.32-17.61 3-9.55 5.64-19.22 8.52-28.81.8-2.67 2.47-5.2 2.76-7.9.81-7.61 3.76-14.62 5.42-22 2.06-9.12 4.7-18.3 5.17-27.55.69-13.37.43-26.95-4.53-39.79a36.64 36.64 0 0 0-4.68-9.13c-1.37-1.78-3.89-3-6.13-3.7-2.87-.93-4.26 0-5.07 3-1.51 5.71-2.64 11.53-4.1 17.25-2.11 8.27-4.28 16.53-6.61 24.74-1.31 4.58-3.43 9-4.44 13.58-2.73 12.43-7.85 24-11.8 36.05-2.87 8.73-5.64 17.5-8.19 26.32-2.09 7.23-3 14.78-6.61 21.6-2.16 4-4.32 8.42-4.93 12.86-1.06 7.76-4.56 14.77-5.91 22.34-.86 4.79-1.88 9.94-1 14.57 1.53 8-.4 15.33-2.09 22.82a4.88 4.88 0 0 1-4.1 3.84c-2.5-1.68-1.64-4.19-1.46-6.32.4-4.74 1.09-9.44 1.69-14.16a5 5 0 0 0-1.18-4.51c-3.73-4.09-3.93-4.27-9.24-2.41-1.24.43-2.4 1.11-3.65 1.51-3.17 1-6.28 1.77-9.35-.58a7.23 7.23 0 0 0-4.12-1.45c-7.35.09-14.79-1.35-22 1.11-1.16.4-2.6 0-3.9-.05-8.55-.06-17.13-.56-25.64 0a111.39 111.39 0 0 1-14.74-.23c-3-.2-5.92-.45-8.88-.39-3.77.06-7.54.68-11.31.58-9.87-.26-19.74-1-29.61-1.14-26-.29-52-.38-78.06-.48-12.35 0-24.7.05-37 .14-3 0-5.92.5-8.88.46-10-.15-20.07-.44-30.11-.69-14.34-.35-28.65-.17-42.92 1.59a24.35 24.35 0 0 1-5.91 0c-10.67-1.31-21.29-1.86-31.87.79a24 24 0 0 1-6.39.52c-7.55-.14-15.11-.83-22.63-.51-5.32.23-10.48.85-15.93.38-7.28-.64-14.8.33-22.09 1.41a87.3 87.3 0 0 1-15.27 1 242.35 242.35 0 0 0-34.78 1.1c-11.08 1.31-22.34 1.07-33.51 1.53-5.75.24-11.5.42-17.24.81-8.85.59-17.67 1.44-26.52 2q-17.24 1.11-34.5 1.94c-9.68.47-19.36.86-29.05 1.07-6.21.13-12.43-.13-18.65-.21l-9.84-.12c-3.94-.06-7.88-.18-11.81-.2-4.28 0-8.57 0-12.84.07-8.3.19-16.6-2.06-24.89.15a7.82 7.82 0 0 1-2.45-.09c-2.45-.15-4.9-.36-7.35-.47-6.91-.34-13.83-.5-20.72-1s-14-1.52-21.09-1.89c-13.77-.72-27.56-1.15-41.34-1.7-.82 0-1.64-.16-2.45-.13-6.35.25-12.66 1.21-19.07.76a126.69 126.69 0 0 0-13.78 0c-4.71.18-9.41 1-14.11.9-5.41-.09-10.8-.92-16.22-1.27a69.32 69.32 0 0 0-8.28 0c-4.27.23-8.53.7-12.8.93-3.1.17-6.21.1-9.32.18-2.8.07-5.6.38-8.4.29-8.72-.28-17.44-.71-26.16-1-3.62-.13-7.26.07-10.85-.28a201.64 201.64 0 0 0-35 .08 127.13 127.13 0 0 1-12.79.56c-10.14-.25-20.12-2.2-30.45-1-8.74 1.05-17.75 0-26.63-.26q-17-.44-34-1.05c-8.7-.32-17.4-.78-26.1-1.2-5.59-.27-11.18-.83-16.77-.79-9.52.06-19 .51-28.56.74-2.46.06-4.92-.19-7.38-.17-5.08 0-10.18 0-15.24.32-5.79.4-8.43 3.65-8.15 9.41.27 5.59 1.06 11.21.68 16.76a49.15 49.15 0 0 0 4 23.31c2.56 6 4.43 12.16 8.73 17.33 4.09 4.91 7.35 10.44 13 13.95s10.61 7.83 16.33 11a64.22 64.22 0 0 0 15.46 6c4.4 1.1 9.15.78 13.75 1.12 4.93.37 10 .27 14.76 1.27a129.33 129.33 0 0 0 22.49 2.85c2.14 0 4.29.15 6.41.41 6.53.82 13 1.78 19.56 2.59 4.88.61 9.77 1.35 14.67 1.52 8.05.28 16.11.17 24.17.19a48.36 48.36 0 0 1 5.37-.15c13.26 1.64 26.53.82 39.82.47a238.4 238.4 0 0 1 24.65.18 163.63 163.63 0 0 0 24.56-.39c4.57-.33 9.13-.92 13.7-1 7.9 0 15.8.29 23.69.42 3.44.06 6.94-.39 10.31.09a66.3 66.3 0 0 0 20.57.22c4.8-.81 9.77-.71 14.67-.76 5.71-.05 11.42.17 17.13.3 4.91.11 9.82.14 14.72.42 9.66.57 19.31 1.67 29 1.83s19.62-.61 29.43-.86 19.67-.24 29.49-.59 19.58-1.94 29.53-1.35c9 .53 18-.4 27-.38 10.33 0 20.63.6 31 0 8.48-.51 17 .35 25.56.69 6.06.24 12.12.72 18.18.92 2.62.09 5.45-1 7.83-.3 11.41 3.24 22.93.59 34.38 1.09 9.64.42 19.38-1 29-.43 8.32.49 16.33-1.26 24.5-1.52 5.56-.19 11.15-.4 16.7-.17 9.51.41 19 1.18 28.5 1.75 5.4.33 10.81.52 16.21.84 4.11.25 8.2.86 12.3.88 13.28.07 26.56-.05 39.84-.13 2 0 3.93-.17 5.89-.24 7.37-.25 14.74-.74 22.11-.66 8.69.1 17.36.78 26 1 4.27.12 8.54-.26 12.81-.23 10.36.08 20.72.29 31.08.4 7.4.08 14.89-.6 22.18.31 10.86 1.35 21.66.74 32.48.52 8.7-.17 17.35-.81 26.09-.19 6.84.48 13.78-.26 20.67-.42 2.46-.06 4.92.08 7.38 0 6.41-.19 12.81-.67 19.22-.65 14.21 0 28.49 2.17 42.57-1.57a1.63 1.63 0 0 1 .49 0c10.3.91 20.62-1.83 30.94.26 1.66.34 3.54-.46 5.33-.65a58.84 58.84 0 0 1 6.75-.54c2.78 0 5.64.88 8.33.49 7.45-1.09 14.84-2.56 22.22-4 4-.8 7.91-2 11.89-2.87 6.31-1.4 10.21-7 16.1-9.13.67-.25 1.18-1.15 1.59-1.85 3.39-5.77 7.15-11.38 9.94-17.44 1.79-3.9 3.93-8.42.65-12.8l7.56-11.08zm55.38-250.38c-1.32-2.72-2.64-5.12-3.67-7.64s-1.64-5.36-2.71-7.93c-6.81-16.26-15.09-31.78-23.66-47.15-6.89-12.36-14.11-24.55-20.89-37-5.11-9.36-13.64-14.19-22.84-18.23-4.79-2.11-9.94-3.16-14.53-6-4.42-2.75-9.47-4.48-14.24-6.64-.3-.13-.65-.13-1-.23-5.92-1.74-11.85-3.46-17.76-5.26-5-1.52-10-3-15-4.74-2.16-.74-4.09-2.16-6.27-2.85-4.37-1.39-9-2.18-13.25-3.76-13.48-4.93-27.37-8.34-41.36-11.36q-17.83-3.85-35.75-7.27c-3.67-.71-7.49-1.41-11.14-1a20.39 20.39 0 0 1-7.2-.53c-7.49-1.88-15-3.92-22.54-5.32-5.6-1-11.36-1.13-17-1.68-1.8-.18-3.58-.59-5.38-.69-5.58-.32-11.17-.39-16.73-.86-5.73-.49-11.41-1.63-17.14-2-10.83-.65-21.7-.64-32.52-1.45-14.1-1.06-28.16-2.69-42.24-4-4.91-.46-9.83-.66-14.75-1-4.43-.29-8.85-.74-13.29-.84-9-.19-18-.26-27.06-.26-10.31 0-20.57-1.12-30.91-1-11 .17-22.06-.35-33.08-.85-12.15-.56-24.26-1.4-36.47-1.22-12.78.19-25.59-.91-38.37-1.63-7.89-.44-15.74-1.36-23.63-1.81-8.85-.51-17.72-.67-26.58-1.1-9-.45-18.07-1.17-27.11-1.52-4.25-.16-8.52.4-12.78.39-6.2 0-12.41-.32-18.62-.34-7.7 0-15.42.39-23.12.15-10.68-.33-21.34-1.29-32-1.61-8.86-.27-17.73-.13-26.59.08-8.2.18-16.41.58-24.6 1.1-7.54.48-15.06 1.41-22.61 1.84-7.39.42-14.8.59-22.2.64-6.25 0-12.49-.38-18.74-.38s-12.47.46-18.7.37c-9.7-.15-19.4-.74-29.1-.87-7.73-.1-15.47.18-23.2.38-5.41.14-10.82.69-16.22.62-9.85-.13-19.68-.81-29.52-.82-7.24 0-14.47.69-21.71 1.06a60.51 60.51 0 0 0-17.35 3.26 28.69 28.69 0 0 1-6.8 1.51c-6.82.67-13.72.8-20.49 1.82-8.76 1.32-17.39 3.52-26.14 4.93s-17.39 5.25-26.66 4.63a7.41 7.41 0 0 0-2.37.66c-4.53 1.39-9 3.06-13.61 4.13-10.55 2.44-21.19 4.57-31.77 6.88-8 1.76-16.09 3.37-24 5.51-6.12 1.65-12.06 4-18.05 6.12a9.33 9.33 0 0 0-2.88 1.83c-7.91 6.88-17.53 10.82-26.6 15.71-5.16 2.78-10.17 5.85-15.22 8.78a16.43 16.43 0 0 0-1.45 1.33c-2.71 2.1-5.44 4.18-8.16 6.27-1.81 1.39-3.59 2.83-5.43 4.17C106.07 91 101.54 96.6 95 99.58c-.8.36-1.27 1.42-2 2.07-2.27 2.1-4.5 4.27-6.91 6.22-3.7 3-7.62 5.7-11.3 8.73-3.93 3.24-7.69 6.7-11.51 10.08-3.29 2.91-6.62 5.77-9.81 8.79-2.37 2.22-4.46 4.74-6.83 7-1.78 1.68-3.9 3-5.71 4.67-5.69 5.2-11.35 10.45-16.93 15.86a19.36 19.36 0 0 0-5.37 8.29l2.42.94c4 1.53 8 2.9 11.88 4.66 2.5 1.13 7.42 1 9.48-.76 4.2-3.65 8.34-7.37 12.6-11a30.81 30.81 0 0 1 4.99-3.26c1.41-.77 2.85-.81 3.89 1.49-7.13 7.3-15 14.19-21.05 21.89 3.76 7 7.05 13.25 10.44 19.43 2.3 4.18 4.94 8.17 7.06 12.43 3.36 6.75 5.89 14 9.71 20.42 7.06 12 10.78 25.3 16.23 37.91 3.69 8.56 5.08 18 9.13 26.47a27.6 27.6 0 0 1 2 5c3.59 14.3 10.77 27.17 16 40.8 2.59 6.68 6 13.05 9.09 19.53.3.62 1.07 1 1.63 1.52 2.25-3.6 4.39-6.85 6.36-10.2 1.16-2 1.75-4.36 3.14-6.13 5.49-7 11.07-13.86 16.86-20.56 3.3-3.82 7.05-7.26 10.67-10.8 3.06-3 6.25-5.83 9.31-8.81 2.55-2.48 2.8-5.06 1.11-8.41-2.36-4.67-3.87-9.77-6-14.55-2.3-5.09-4.53-10.29-7.55-15-6.82-10.56-13.38-21.2-14.7-34-1.05-10.13-1.45-20.33-2.3-30.48-.66-7.85 1.17-15.39 2.52-23 .34-1.89 1.69-3.66 1.8-5.53.25-4.51 1.73-8.12 5.31-11.08 1.25-1 2.23-1.74 3.8-1.62 4.75.36 9.53.47 14.23 1.15a79.32 79.32 0 0 1 12.87 2.88c3.3 1.06 6.32 2.63 10 1.43 1.09-.36 2.54.33 3.82.6s2.46.56 4.37 1c-.14-2.65.17-4.86-.43-6.78-2.32-7.28-4.9-14.54-7.32-21.87-.46-1.4-.8-2.85-1.16-4.29-.84-3.33-1.45-6.74-2.53-10-2.26-6.85-4.84-13.6-7.14-20.44s-4.29-13.45-6.52-20.15a29.83 29.83 0 0 0-2.26-4.12c-3.58 1.72-6.84 3.24-10.06 4.84a3.12 3.12 0 0 1-4.3-1.12 3.18 3.18 0 0 1 .22-4.49 16.05 16.05 0 0 1 4.17-2.57c9.8-4.54 19.15-10.07 29.68-13 3.29-.91 6.21-3.05 9.42-4.32q14-5.5 28-10.75c5.7-2.13 11.4-4.28 17.23-6 3.89-1.15 8-1.49 12-2.32 6.09-1.25 12.12-2.77 18.23-3.87a31.86 31.86 0 0 1 10-.57 42.19 42.19 0 0 0 8 0c7.69-.27 15.39-.37 23.08-.7 7.19-.31 14.42-.24 21.33-3 1.74-.68 3.87-.49 5.82-.47 4.41 0 8.82.4 13.23.35q10.83-.14 21.65-.63c5.39-.25 11 0 16.09-1.43a51.44 51.44 0 0 1 14-2c5.89 0 11.78 0 17.67-.1 14.89-.21 29.77-.51 44.65-.68 6.72-.08 13.46-.05 20.17.22 1.88.07 3.72 1.18 5.65 1.84.33-1.37 1.5-2.11 3.45-1.93 3.93.36 7.87.78 11.81.82 12 .12 24 0 36 .15 4.26.06 8.51.65 12.75 1.09 1.76.19 3.48.91 5.22.92 12.77.12 25.55-.07 38.32.21 9.5.22 19 1 28.49 1.51 5.4.28 10.81.52 16.21.61 7.55.13 15.15-.42 22.63.3 7.67.75 15.26 2.25 23 2 1.46-.06 2.94 1.27 4.43 1.3s3.19-1.07 4.78-1.06c7.84.08 15.69.13 23.51.65 7 .47 14-1.27 21 .54 4.43-1.55 9-.82 13.51-.7 7 .17 13.92.84 20.89 1 7.74.12 15.49-.17 23.24-.22 8.52-.05 17 .37 25.53 1 14.36 1.15 28.81 1.16 43.23 1.63 4.1.13 8.2.21 12.3.31s8.4.62 12.52.16c4-.43 7.9 0 11.8-.11 16.09-.37 32.2 0 48.3.3 9.35.16 18.7.68 28.06.94 9.2.26 18.29 1.66 27.57 1.47a361.35 361.35 0 0 1 53.48 3.34 159.84 159.84 0 0 0 20.07 1.54c7.07 0 13.62 1.94 20.24 3.82a5.66 5.66 0 0 1 1.7 1.21 52.43 52.43 0 0 1 6.37-.53c5.41.23 10.82.55 16.2 1.11 2 .21 4 1.2 5.91 1.84a41.85 41.85 0 0 0 5.13 1.64c2.41.45 4.89.59 7.33.85 6.68.72 13.47.53 20 2.59 3.73 1.18 7.66 1.82 11.24 3.32 7.71 3.22 15.25 6.84 22.86 10.3a3.25 3.25 0 0 0 .88.43c4.59.49 8.15 3.35 12.15 5.2a56.24 56.24 0 0 0 5.5 2.12c4.94 1.7 10 3.1 14.83 5.09 5.12 2.12 10 4.82 15 7.2.69.33 1.62.15 2.37.41 2.62.87 5.23 1.77 7.8 2.77 1.36.53 2.59 1.43 4 1.91a84.07 84.07 0 0 1 21.16 11.27c3.45 2.44 6.64 5.16 11.17 5.84 2 .29 4 2.17 5.36 3.85 3.74 4.58 6.8 9.75 10.77 14.09a52.79 52.79 0 0 1 9.52 14.79c2.23 5.07 5.28 9.79 7.88 14.71a21.48 21.48 0 0 1 1.13 3.6c-4.23-.05-4.47.15-6.18-1.94a56.58 56.58 0 0 1-6.43-9.29c-3.28-6.26-6.19-12.69-11.83-17.35a16.66 16.66 0 0 1-2.33-3.16c-1-1.4-2.05-2.79-3.59-4.88-.71 2.26-1.25 3.58-1.55 5-3.2 14.62-6.28 29.27-9.56 43.87-2.42 10.75-5 21.45-7.67 32.14-2.92 11.82-6 23.59-9 35.39-.6 2.39-.85 4.88-1.56 7.22-2.71 9-5.33 18-8.42 26.79-1.76 5-1.07 10.63-4.68 15.23-2.77 3.53-1.65 5.25 2.06 8a163.26 163.26 0 0 1 17.21 13.86c7.64 7.38 12.25 17 17.11 26.3 1.69 3.24 2.1 7.17 3 10.8.76 3.06.83 6.33 3.37 10.09.79-2.93 1.25-4.9 1.87-6.83 1.24-3.9 2.46-7.8 3.88-11.63 1.09-2.93 2.76-5.66 3.65-8.64 1.91-6.45 3.24-13.08 5.25-19.5 4.91-15.64 10.06-31.2 15.12-46.8 2.43-7.48 4.88-14.95 7.28-22.45.74-2.33 1.31-4.73 2-7.09 1.92-6.81 3.87-13.6 5.75-20.42 1-3.63 1.2-7.68 3-10.87 2.73-4.88 1.4-9-1.16-12.9-4.37-6.7-9.16-13.14-13.73-19.71a5.84 5.84 0 0 1-.57-1.71c3-2.63 4.58-2.9 6.84-.84a26 26 0 0 1 2.84 4c2.24 3 4.47 6.07 6.79 9a4.76 4.76 0 0 0 2.32 1.72c5.17 1.17 10.41 2.25 16.51 3.6zM1255.24 304c.81-1.89 1.63-3.46 2.18-5.11 2.21-6.67 4.33-13.37 6.5-20.05 3.1-9.51 6.5-18.93 9.27-28.54s4.8-19.14 7.19-28.71c3.14-12.58 6.32-25.15 9.45-37.73 1-4 2.41-8 2.76-12 .94-10.7 4.11-20.91 6.32-31.33.47-2.25.7-4.55 1-6.84A3.09 3.09 0 0 0 1298 130c-8.65-3.65-15.26-10.74-24.07-14.19-5-2-9.81-4.54-14.79-6.64-3-1.27-6.18-2.08-9.22-3.25q-11-4.25-21.92-8.63-12.51-5-25-10a3.31 3.31 0 0 1-.87-.47c-5.41-4.52-12.7-5-18.54-8.67-5.48-3.41-11.95-3.47-18-4.76-5-1.06-10.33-.47-15.51-.59a2.28 2.28 0 0 0-1 .25c-2 .9-3.77.43-5.52-.87-.67-.5-1.78-.39-3.2-.66-.33 3.23-.8 6.13-.91 9-.46 12.47-.58 25-1.29 37.4-.73 12.78-2 25.52-3 38.28-.92 11.81-1.71 23.63-2.65 35.43-.43 5.41-1.67 10.82-1.46 16.18.31 8.26-.51 16.37-1.31 24.53-.25 2.6-.06 5.25-.17 7.87-.15 3.92-.39 7.84-.6 11.76-.12 2.28-.35 4.56-.33 6.83s1.3 3.6 3.67 3.79 4.94.3 7.37.72c11.3 2 22.55 4.22 33.88 6 3.21.51 5.58 3 8.54 3.18 4.69.33 8.86 2.19 13.12 3.65 11.79 4 23.46 8.41 35.11 12.85a57.43 57.43 0 0 1 9.61 4.87c5.06 3.14 9.92 6.53 15.3 10.14zM339.85 48.4a10.35 10.35 0 0 0-1.68-.25c-15.15 1.18-30.22 4-45.54 1.75-4.84-.71-9.73.73-14.54 1.52-8.09 1.32-16.15 2.89-24.17 4.58A112.44 112.44 0 0 0 243 59.1c-2.34.75-4.58 1.83-6.92 2.59a267 267 0 0 0-39.18 15.86c-1.87.94-4.05 1.26-6 2-3.39 1.2-6.78 2.42-10.1 3.79-1.55.63-2.1 1.84-1.46 3.62 3.46 9.54 8 18.66 10.63 28.53 1.23 4.58 3.1 9 4.67 13.47q5.2 14.79 10.41 29.6c1 2.93 2.27 5.8 3.14 8.78 2.49 8.48 3.7 7.6 10.77 6.59 1-.14 1.9-.55 2.87-.73a20.38 20.38 0 0 1 2.91-.31c4.4-.14 8.81-.07 13.19-.37 11.14-.74 22-3.7 33.2-4.15 1.72-.07 3.4-1 5.12-1.37 4.48-1 8.92-2.36 13.46-2.77a32.33 32.33 0 0 0 9.49-1.94c2.24-.91 4.66-1.93 7-2a47.73 47.73 0 0 0 18.15-3.49c2.78-1.17 6-1.29 9.07-1.79 6.75-1.12 13.51-2.19 20.42-3.3.66-7.28 1.6-14.45-.66-21.57a13 13 0 0 1-.5-2.4c-1-7.64-1.88-15.31-3.08-22.93-2-13-4.25-25.95-6.46-38.91-1-5.8-2.14-11.58-3.29-17.5zM119.46 376.48c-4.51-2.31-4.43-2.33-5.73-7.6a63.64 63.64 0 0 0-2.66-8.41c-6.35-15.86-13.72-31.31-19-47.63-2.4-7.49-5.5-14.76-8.1-22.19-2.5-7.13-4.65-14.39-7.18-21.52a289.89 289.89 0 0 0-13.39-31.25c-3.84-7.78-7.29-15.72-12-23.07a115.39 115.39 0 0 1-7.25-13.91A44.11 44.11 0 0 0 30.43 184a27.67 27.67 0 0 0-13.55-6 4.76 4.76 0 0 0-5.08 2 23.1 23.1 0 0 0-3.89 19c1.79 8.51 3.69 17 5.22 25.55a66.77 66.77 0 0 0 5.74 18.29c2.77 5.59 5.34 11.29 7.76 17 1.13 2.68 1.48 5.7 2.6 8.39 2.08 5 4.75 9.78 6.67 14.85 2.61 6.9 4.49 14.07 7.15 21 5.55 14.41 11.16 28.82 17.22 43 5.36 12.53 11.16 24.89 17.14 37.14 3.88 7.94 8.17 15.72 12.76 23.28 4 6.58 8.68 12.76 13.08 19.1 1.18 1.7 2.6 3 5.54 2.11-.28-1.46-.63-3-.85-4.49-.91-6.46-2.59-13 1.2-19.18a3.1 3.1 0 0 0 .45-2.34c-1.06-2.67.24-4.86 1.23-7.08 2.78-6.27 5.66-12.54 8.64-19.14zm206.23-49.56c2.37-.36 4.64-.56 6.84-1.05 6.42-1.45 12.74-3.45 19.22-4.42 8.42-1.25 16.94-1.65 25.34-3.29 9.67-1.89 19.48-3.09 29.19-4.78 6.48-1.13 12.86-2.89 19.36-3.85 12.82-1.9 25.69-3.42 38.54-5.13 1.08-.14 2.13-.49 3.5-.82-1.33-3.37-.86-7.12-4.7-9-.87-.42-1-2.28-1.49-3.5-1.44-3.87-2.8-7.73-6.71-10a7.78 7.78 0 0 1-2-2.6c-1-1.49-1.74-3.11-2.8-4.52-4.43-5.9-8.92-11.75-13.41-17.61-3.1-4-6.45-7.92-9.33-12.12-3.41-5-6.56-10.16-9.6-15.39a103.92 103.92 0 0 0-7.73-11.93c-.93 2.75-1.82 4.47-2.07 6.28-1.28 9.27-2.61 18.55-3.49 27.87-.94 9.82-1.81 19.62-4.74 29.1a17.89 17.89 0 0 0-.69 2.87c-1 7.29-1.78 14.59-2.87 21.85a4.59 4.59 0 0 1-4.24 4.21c-2 .18-4.16-1.81-4.77-4.24-.31-1.25-.29-2.7-.95-3.73q-3.93-6.19-8.23-12.16c-2.21-3-4.78-5.85-7-8.91-6.33-8.8-12.48-17.74-18.87-26.5-4.15-5.69-8.49-11.27-13-16.69-2-2.46-4.64-4.44-7.87-7.46-.6 3.57-1.4 6-1.32 8.31.28 8 1.1 16.08 1.27 24.13a224.14 224.14 0 0 1-.47 23.16c-.58 7.17-2.38 14.24-3.07 21.41-.61 6.29.37 12.76-2.42 18.78-.11.24.19.63.58 1.73zm176.24-188.55c-6.26.45-12.16 1.36-18 1.17a106.83 106.83 0 0 0-15.71 1c-9.6 1.12-19.21 2.45-28.85 2.89a92.51 92.51 0 0 0-16 2c-7.05 1.56-14.19 2.79-21.28 4.2-6.62 1.32-13.22 2.71-19.84 4s-13.29 3.94-20.36 3.35a1 1 0 0 0-.48.09c-8.41 3.17-17.32 3.53-26.08 4.78-6.16.89-12.46 1.46-18.38 3.24-6.79 2-13.72 2.8-20.6 4.1-3.71.7-7.31 2-10.72 2.95 6.11 6.87 11.84 13.4 17.67 19.83a36.54 36.54 0 0 0 4.81 4.21c7 5.37 14.1 10.66 20 17.35.29.33.84.43 1.52.75 2.2-2.84 4.68-5.37 5.62-9a86.4 86.4 0 0 1 3.05-9.39c3.75-9.77 7.68-19.47 11.35-29.27.7-1.87 1.42-3.25 3.41-3.75s3.78-.28 5.26 1.59a30.53 30.53 0 0 0 4.05 3.52c2.57 2.28 5.26 4.45 7.65 6.91 5.86 6 11.35 12.38 18.36 17.18 4.17 2.86 8.35 5.76 12.22 9s6.78 3.09 9.57-1.33c1.05-1.66 1.89-3.45 2.9-5.14 3.19-5.34 6.94-10.42 9.51-16 3.12-6.85 5.22-14.17 7.85-21.25a23.76 23.76 0 0 1 2.57-5.26 4.41 4.41 0 0 1 7.14-.19c2 2.57 4 5.15 5.79 7.88 6.8 10.41 17.3 16.95 26.19 25.17a3.7 3.7 0 0 0 5.7-.24c6.83-8.19 12.94-16.78 14.25-27.59 5.01-3.5 10.28-13.33 9.86-18.75zM472.34 303c5.86-.2 11.4-.25 16.91-.61 5.22-.34 10.46-1.63 15.63-1.38 7.74.38 14.93-1.62 22.17-3.57 5.35-1.44 7.82-6 6-11a89.12 89.12 0 0 0-12.36-23.9c-1.33-1.79-2.57-3.65-3.85-5.49-4.27-6.13-6.41-13.57-12.3-18.79-2-1.74-4-4.11-4.42-7.36-.2-1.6-1.73-3.08-2.78-4.53-2-2.79-4.54-5.3-6.08-8.32-3-5.83-6.25-11.35-11.49-16a25.86 25.86 0 0 0-1.24 4.28c-.66 6.2-1.35 12.4-1.71 18.62-.43 7.22-.49 14.46-.77 21.69-.19 4.93-.56 9.85-.74 14.78-.38 10.48-1.82 20.9-1.26 31.45.22 3.32-1.05 6.71-1.71 10.13zm-212-55.09c-.24 2-.54 3.41-.56 4.83-.08 4.91 0 9.82-.08 14.73-.21 7.9-.54 15.79-.86 23.68-.16 4.11-.33 8.22-.64 12.31-.62 8-1.89 16.08-1.81 24.11 0 4.09-1 6.85-3.76 9.38-.29.26-.28.85-.52 1.64 4.91 1 9.51.19 14.17-.6 5-.85 10.08-1.32 15.14-1.88 3.76-.42 7.6-.42 11.29-1.16 6.42-1.29 12.77-3 19.13-4.58a41.09 41.09 0 0 0 4.7-1.84 43.5 43.5 0 0 0-1.51-6.1c-2.56-6.36-5.25-12.68-8-19a26.42 26.42 0 0 0-3.51-6.47c-7.79-9.28-15.86-18.33-23.65-27.61-4.11-4.9-7.82-10.13-11.76-15.18-1.89-2.44-3.76-4.98-7.75-6.27zm-45.94-49.43a18.3 18.3 0 0 0-1 2.24c-.94 4.84-1.75 9.7-2.81 14.52-2 9-4.09 17.9-6.13 26.85-.69 3-1.3 6.08-2 9.11-1.15 5-1.59 10.36.94 14.78 6.2 10.83 12.87 21.39 19.73 31.81 3.88 5.89 8.53 11.27 12.81 16.89 1.23 1.63 2.39 3.31 4.26 5.9a25.52 25.52 0 0 0 .16-4c-.4-2.38-1-4.72-1.43-7.09-.83-4.7-1.39-9.45-2.41-14.1-1.3-5.89-3.15-11.66-4.39-17.55-1.5-7.06-2.59-14.2-3.9-21.29-.62-3.4-1.4-6.77-2-10.16-1.47-8.06-1.52-16.41-5.06-24.05-.6-1.3-.53-2.9-.86-4.34-1.28-5.6-2.56-11.21-4-16.79-.09-.82-.92-1.45-1.89-2.74zM364 178.23l-.9.41c.35 3 .5 6.06 1.08 9 3.13 16 7.67 31.61 12.25 47.24 2.62 9 4 18.26 6.16 27.34a137.11 137.11 0 0 0 4.93 16.53c.83 2.19 2.78 4 2.79 6.84a29.52 29.52 0 0 0 3.22-8.28c1.72-8.87 3.17-17.79 4.74-26.69a53.45 53.45 0 0 0 1.09-5.81c.55-8.85.92-17.72 1.43-26.58.31-5.51-2.18-9.44-6.62-12.39a31.08 31.08 0 0 1-4.42-3.07c-7.57-7.23-15.06-14.55-22.59-21.83-1-.94-2.11-1.8-3.16-2.71zm-145.38 3.92a14.27 14.27 0 0 0 1.09 3.17c3.77 6 7.29 12.14 11.54 17.75 6.25 8.24 13 16.1 19.63 24 2.24 2.68 4 2.59 5.78-.46 2.07-3.5 3.72-7.25 5.51-10.91 1.35-2.78 2.29-5.83 4-8.36 7.16-10.52 11.17-22.32 14.75-34.76-4.44.57-8.78.64-12.81 1.79-3.51 1-6.75 2.4-10.48 1.24a3.51 3.51 0 0 0-2.37.44 33.25 33.25 0 0 1-15.67 3.38c-6.54 0-12.87 2.44-19.49 1.89-.38.01-.83.47-1.48.83zm-34.7 325.92c-.59 2.52-1 4.77-1.66 6.94-4 12.88-5.83 26.18-7.87 39.45-.43 2.75-.45 5.56-.81 8.32-1 8.15-2.29 16.28-3.18 24.45-.66 6-1 12.11-1.23 18.18-.07 1.61.6 3.26 1 5.11 3.22-.78 5.15-1.62 5.81-4.64.87-4 2.27-7.89 3.53-11.8C181.75 587 184 580 186.4 573q6.18-17.7 12.66-35.28c2.21-6 5.31-11.56 5.84-18.15.24-2.92 1.91-5.72 3-8.82zm-23.75-329.72c1.21 2.07 2 3.49 2.85 4.87 2.27 3.6 5 7 6.78 10.82 4.66 10.12 8.75 20.5 13.37 30.63 3.06 6.7 6.62 13.17 10.05 19.7.38.73 1.38 1.14 2.4 1.93a19.87 19.87 0 0 0 1.75-3.26c1.26-4 2.58-8.1 3.54-12.22 2.15-9.25 4.13-18.54 6.1-27.83a19 19 0 0 0 .34-4.88c-.29-4.87-1.21-9.77 1-14.49.1-.23-.16-.61-.31-1.16-.85-.11-1.79-.28-2.74-.36-5.47-.44-11 1.72-16.46-.52-.26-.11-.64.08-1 .06a42.79 42.79 0 0 1-5.68-.46c-2.42-.5-4.72-1.53-7.14-2-4.61-.85-9.23-2.18-14.85-.83zm281.91-10.54c.18 2.75.18 4.45.43 6.13s.77 3.19 1.07 4.81c1.79 9.69 3.48 19.4 5.36 29.07 1.72 8.87 3.88 17.66 5.39 26.55 2.21 12.92 2.95 26.1 7.37 38.59 1.05 3 2 6 5.61 8.21.74-11.74 1.63-22.87 2.09-34 .67-16.08.56-32.21 2.33-48.23.39-3.54-.9-5.65-3.13-7.68-4.11-3.75-8.3-7.43-12.48-11.12-4.38-3.89-8.79-7.73-14.04-12.33zM302.64 283.5c-.55-3.85-.81-6.76-1.4-9.6-3.34-15.88-6.76-31.75-10.15-47.61-2.21-10.29-4.39-20.58-6.67-30.85a36.13 36.13 0 0 0-2.13-5.15c-1.79 3.52-2.87 6.29-4.5 8.69-5.34 7.82-8.5 16.64-12 25.32-2.78 6.88-2.62 13.21 2.32 19.15 4.72 5.67 9.29 11.48 13.85 17.28 3.34 4.25 6.37 8.75 9.88 12.85 2.89 3.42 5.21 7.52 10.8 9.92zm-100.46-5.12c-1.22 5.69-2.68 11-3.42 16.46-.6 4.51-.36 9.14-.47 13.72 0 1.31 0 2.62.05 3.93 0 6.69.07 13.37.13 20.06 0 .48.24 1 .27 1.45.19 2.93 1.94 4.2 4.64 4.91 4.62 1.22 9.15 2.59 14 .95a9.83 9.83 0 0 1 3.91-.14c3.43.28 6.85.93 10.27 1 3.66.05 7.32-.41 11.89-.7-1.27-2.73-2-4.89-3.19-6.68-2.11-3.08-4.71-5.84-6.83-8.92-4.13-6-8-12.19-12.1-18.22-6.26-9.2-12.6-18.33-19.15-27.82zm48.18 42.5c.32-3.27.63-5.8.81-8.34.5-7.17 1-14.35 1.41-21.52.16-2.56.36-5.11.4-7.67.09-5.9.2-11.81.09-17.71-.08-4.58-1.16-9.23-.61-13.71 1-8.44-2-15-7.68-20.73a30.45 30.45 0 0 1-2.16-2.65l-18.15-23c1.21 7.11 2.3 13.36 3.35 19.62 1.45 8.72 3.08 17.41 4.28 26.17a206.34 206.34 0 0 0 7.26 33.66c1.36 4.35 2.43 8.8 3.52 13.24 1.17 4.77 2 9.63 3.39 14.33.78 2.64 2.41 4.98 4.09 8.31zm1041.41 295.2c-1.93-10.88-3.71-20.89-5.49-30.9-.06-.32-.2-.63-.29-.95-1-4-2.13-7.94-3-12s-1.48-8.09-2.21-12.14a105 105 0 0 1-1.88-10.62c-.8-10.44-.93-21-3.9-31.13-1-3.38-2.31-4.8-5.42-4.42q-5.62.7-11.2 1.79c-2.68.52-3.41 1.62-2.82 4.19 1.66 7.19 3.19 14.42 5.26 21.49 1.56 5.33 4.11 10.36 5.81 15.66 3 9.37 5.69 18.85 8.52 28.28.19.63.48 1.23.7 1.85 2.1 6 3.82 12.17 6.42 17.95 1.89 4.22 4.11 8.63 9.5 10.95zM166.92 277.17l1.22-.56c-4.91-21.22-10.47-42.26-17.16-62.91-3.41.41-4.35 2.25-3.92 4.94 1.07 6.65 2.46 13.26 2.16 20.06a2.7 2.7 0 0 0 .09.48c1.34 10.54 6.68 19.55 11.29 28.79 1.64 3.3 4.19 6.15 6.32 9.2zM186 260.72l-1.08.21c.28 2.9.43 5.83.88 8.71a55.05 55.05 0 0 0 2 9.12c.83 2.48-.48 5.89 3.49 8.11-.51-9.56-1.9-18.06-5.29-26.15zm1.65 58.48 1.2-.21c-1-5.9-1.7-11.88-4.52-17.34-.26-.5-1.3-.59-2.05-.9-1.27 2.84-.29 5 .79 7.3 1.18 2.49 2 5.12 3.06 7.68.45 1.17.99 2.27 1.5 3.47zm135.4-92c2-9.06-4.71-12.75-9.79-17.35 1.35 2.86 2.58 6.07 4.88 8 2.96 2.47 1.31 6.78 4.86 9.33zM173 275.26a35.87 35.87 0 0 0 4.51 11.37c-1.22-10.12-1.22-10.12-4.51-11.37zm344.23-56.91-1.17.48q1.85 5.31 3.7 10.61l1.14-.4c.86-4.25-2.71-7.04-3.68-10.69zm-161.5 10.93-3.25-8.58-1.08.44a9.79 9.79 0 0 0 4.33 8.14zm144.07-52.09h1.66l-1.12-7.47-1.1.12q.29 3.69.56 7.35zm-66.3 60c-.23 2.52.14 3.95 2.47 5.09.17-2.18.03-3.73-2.47-5.1zm68.6-18.28c.84-2 .62-3.3-2.45-3.56zM187.59 328.17l1.28-.08c-.08-1.37-.15-2.75-.23-4.12l-1.32.11zM495.28 208.6l1.31-.62c-.43-.82-.83-1.66-1.33-2.44a5.61 5.61 0 0 0-1.15.47zm-54.06 41 1-.66-1.42-2.3-1.12.75zm71.13-109.4.95-.8a3.64 3.64 0 0 0-.56-1.28 6.36 6.36 0 0 0-1.47-.83c-.21.23-.43.45-.64.67z" fill="#9e5b5d" data-color="1"/>
            <path d="M144.52 449.92c4.89 1.95 9.57 3.88 14.31 5.66a18.13 18.13 0 0 0 4.78 1.08c6.18.52 12.37.91 18.56 1.34 2 .13 3.93.1 5.87.34 4.21.5 8.39 1.31 12.6 1.66 7.51.62 15 .91 22.55 1.51 5.54.45 11.1-.35 16.52-.12 7.95.33 15.93-.55 23.91.94 4.77.89 9.85.26 14.78.05a89.74 89.74 0 0 1 17.09.75c6.46 1 13.08.95 19.63 1.26 10.8.52 21.61 1 32.41 1.38 8.38.26 16.78 0 25.15.43s17 1.41 25.46 2c3.44.26 7 .69 10.33.23 7.76-1.08 15.37.08 23 .62 5.73.4 11.52.08 17.25.47 9.32.63 18.64.45 28 .3 5.41-.09 10.82 0 16.22-.26 8.86-.38 17.71-1 26.57-1.43 13.13-.65 26.24-1.25 39.41-.54s26.61.81 39.92 1.06c6.78.13 13.58.16 20.37-.06 8.35-.28 16.69-1 25-1.27 10.32-.3 20.65-.28 31-.42 8.2-.11 16.4-.27 24.6-.38a50.85 50.85 0 0 1 5.38.11c17.4 1.47 34.8 2.62 52.28 1.33 4.75-.35 9.52-.18 14.28-.33 3.1-.1 6.19-.53 9.27-.46 3.93.07 7.84.71 11.76.73 6.7 0 13.39-.27 20.09-.35q5.67-.06 11.34.14c8.53.29 17.06 1 25.58.89 8.35-.15 16.68-1.18 25-1.83 2-.15 3.94-.41 5.91-.45 13.29-.28 26.59-.4 39.88-.82 3.88-.12 7.72-1.2 11.6-1.6a105.91 105.91 0 0 1 11.25-.64c10.51 0 21 .21 31.52.34 2 0 4 .09 5.93.16 4.75.17 9.51.38 14.26.53 6.41.2 12.81.28 19.21.54 8.54.33 17.07 1 25.62 1.13 10.81.12 21.66.15 32.45-.41 10.15-.53 20.23-2.34 30.37-2.69 7.72-.27 15.34-.75 23-1.65 7.44-.88 15.08 0 22.63.14 1.8 0 3.6-.16 5.41-.17 4.41-.05 8.85-.4 13.23 0a98.21 98.21 0 0 0 21.13-.13c6.15-.75 12.47-.15 18.71-.14 5.41 0 10.81.06 16.21 0 5.06 0 10.14.06 15.19-.2 3.1-.16 6.17-.89 9.25-1.33 3.91-.56 7.81-1.11 11.72-1.6s7.8-.95 11.71-1.32c1.76-.16 3.55 0 5.32-.1 1.45-.07 2.91-.2 4.36-.38 2.06-.25 4.1-.7 6.16-.85 3.54-.26 5.89-2.19 8-4.85 3.23-4 6.7-7.89 10.16-11.92 2.69 1.66 3.15 3.69 2 6-1.58 3.2-3.44 6.27-5 9.48-1.74 3.53-4.62 5.39-8.3 6.31-2.85.72-5.69 1.54-8.56 2.21a21.47 21.47 0 0 1-3.33.35c-2.91.24-5.82.45-8.73.73-.64.06-1.38.64-1.87.45-4.76-1.87-9.5-.07-14.19.19-7.45.42-14.85 1.63-22.28 2.43a11.16 11.16 0 0 1-3.87-.19 84.5 84.5 0 0 0-36.26-.75 75.07 75.07 0 0 1-17.13 1c-7.7-.32-15.45.21-23.17.38-1.48 0-3 .14-4.44.16-5.06 0-10.1-.47-15.14 1.15-2.36.75-5.19.26-7.78 0a72 72 0 0 0-22 1c-7.18 1.53-14.5 2.53-21.93 1.64-1.59-.19-3.25.41-4.88.5-4.58.24-9.16.53-13.74.56-8 .05-16.11-.07-24.16-.14a26 26 0 0 1-5.38-.25c-9.89-2.18-20-1.27-30-2.19a2.35 2.35 0 0 0-1 0c-7.53 3-15.44 1.27-23 .85-9.26-.51-18.4.48-27.6.27s-18.35.14-27.52.41c-5.21.15-10.4.74-15.61.94-4.24.17-8.5 0-12.74.09a74.16 74.16 0 0 0-7.73.66c-2.89.39-5.75 1.35-8.63 1.4-12.18.21-24.32.64-36.44 2-3.36.39-6.86-.61-10.3-.63q-17.77-.14-35.56 0a208 208 0 0 1-23.14-.68c-6.5-.68-13.14 0-19.71.09-3.62.07-7.24.41-10.86.31-8.2-.22-16.4-.72-24.61-.95-14.92-.41-29.84-1-44.76-1-17.59 0-35.17.47-52.75.9-4.09.1-8.15 1.2-12.23 1.22-9 0-18.09-.22-27.13-.53-11.81-.41-23.62-1.23-35.43-1.41-6.88-.11-13.77.75-20.66 1.07-6.4.29-12.8.38-19.19.68-8.69.41-17.37.95-26.06 1.39a292.32 292.32 0 0 1-35.52.05c-9.15-.64-18.34-.66-27.52-.9-6.08-.16-12.17-.07-18.24-.4a79.34 79.34 0 0 1-10.7-1.58 112.53 112.53 0 0 0-23-1.87c-9.22.13-18.45-.36-27.67-.6-8.69-.22-17.37-.52-26.06-.68-5.43-.11-10.86 0-16.28 0-1.65 0-3.43.22-4.91-.32-9-3.28-18.21-.56-27.3-.85-6.05-.2-12.09-.95-18.14-1.36-1.92-.13-3.86.07-5.8.08-4.76 0-9.52.25-14.27 0-4.92-.23-9.81-1-14.73-1.33-4.42-.26-8.88.11-13.28-.29-6.37-.57-12.7-1.74-19.07-2.37-4.88-.49-9.82-.37-14.7-.85a126.66 126.66 0 0 1-16-2.31c-2.39-.55-4.61-2.43-6.59-4.08s-1.19-3.31 2.12-6.86z" fill="#9e5b5d" data-color="1"/>
            <path d="M82.67 141.47a78 78 0 0 1 17.61-19.93 89.64 89.64 0 0 0 8.87-7.75c2-2.07 3.61-4.61 5.73-7.38 2-.25 4.54-.66 7.12-.87a3.72 3.72 0 0 1 4.19 2.71c.69 2.12-1 3.37-2.42 3.62-6.44 1.11-10.49 5.75-14.86 9.8-4.2 3.89-8 8.21-11.94 12.37-2.69 2.84-5.31 5.75-8 8.6-2.84 3.02-3.47 2.92-6.3-1.17z" fill="#9e5b5d" data-color="1"/>
        </g>
    </g>
</svg>
