<?xml version="1.0" encoding="UTF-8"?>
<svg data-bbox="-0.001 0.06 564.084 796.854" viewBox="0 0 564.01 796.84" xmlns="http://www.w3.org/2000/svg" data-type="color">
    <g>
        <path d="M.27 93.37c0 .1.11.18.16.28v1.67a3 3 0 0 0 3.79 2.89 14.29 14.29 0 0 0 2.13 1.33c4.5 2.32 9.33 4.29 14 6.18l2.41 1c3.65 1.49 6.76 3.27 4.75 8.54-7.45 19.62-7.54 40.08-8.18 60.68A253.92 253.92 0 0 0 41.38 287.3c5.43 12.11 13.14 22.09 19.17 33.86l3 5.89-1 .22c-1.58.36-3 .7-4.4 1-2.85.68-5.32 1.28-7.86 1.65-7.79 1.15-13.56 7.69-12.59 14.29 2 13.85 4.49 29.94 7.86 45.57.6 2.81 2.49 5.36 4.49 8.06a52.54 52.54 0 0 1 3 4.43l.59 1c1.11 1.84 2.37 3.91 2.27 6l-.57 11.41c-3.43 70-14.64 138.8-25.29 208.05-1.05 7.06-2.11 14.15-3.27 21.27-1 6.2-3.36 12.29-5.63 18.18-1.41 3.67-2.87 7.46-4 11.23a167.3 167.3 0 0 0-5.17 23c-.85 5.8 4.85 7.6 7.34 8.11l1.52.32c4.59 1 8.53 1.89 11-3.85 1.45-3.4 3.25-6.74 5-10a90 90 0 0 0 6.37-13.67c11-34.1 21.47-67.68 28.06-103 3.88-20.81 5-42.43 9.9-62.9 4.38-18.43 8.92-37.48 9.25-56.78a30.64 30.64 0 0 1 2-10.34c.86-2.22 3.1-4.88 5.38-5.49a86.28 86.28 0 0 1 10.86-1.89c1.71-.21 3.41-.43 5.1-.7a25.5 25.5 0 0 1 24.37 9.63c5.75 7.15 10 15.5 14.11 23.59.94 1.85 1.88 3.69 2.84 5.52a68.73 68.73 0 0 1 4.27 11.18c2 6.24 4 12.7 9.12 17.8a17.71 17.71 0 0 1 4.73 10.93c.48 10.07.17 20.34-.12 30.28v1.06q-1.76 58.54-2.66 117.13c-.48 29.54 2.89 62.07-4.39 90.88-1.67 6.59-1.9 13.62-2 19.69a16.14 16.14 0 0 0 5.48 12.72c4 3.49 9.81 4.95 15.86 4 1.61-.26 3.86-1.89 4.29-3.12 13.4-37.55 12.1-80.29 15.89-119.73 4.11-42.86 8.2-85.74 10.95-128.72.74-11.63 2.22-22.87 12.07-32.39a383 383 0 0 0 26.76-28.5c25.15-29.89 66.61-40.52 102.65-51 1.9-.55 3.9-1.13 6-1.76l1-.29v1c.06 3.47.15 6.79.23 10 .19 7.1.36 13.8.27 20.46-.48 37-1.52 74.49-5.65 111.29-.81 7.27-1.65 14.78-2.35 22.17-1.19 12.39-1.86 22.45-2.12 31.66-.19 6.55 1.28 7.95 8.7 8.33a37.08 37.08 0 0 0 3.94-.09l1.17-.07c8.94-.45 11.65-2.69 13.14-10.88l.59-3.25c1.08-5.9 2.2-12 3.06-18q1.25-8.73 2.52-17.45c2.71-18.59 5.5-37.8 7.72-56.74 3.74-32.12 6.58-65 3.63-97.26-.13-1.39-.26-2.78-.36-4.18l-.06-.77.77-.06c2.29-.19 4.58-.52 6.8-.83 5-.7 9.68-1.35 14.25-.67 13.26 2 26.57 4.19 39.27 8.72 4.1 1.46 22.15 6.17 22.94 11.35 1.69 11.07 3 22.38 4.2 33.32 0 20.13 3.91 41.15 6.4 61.11q4.25 34.13 10.1 68c6.63 38.51 17.65 76.26 24.19 114.68a130.5 130.5 0 0 0 2.91 14c3.35 11.66 6.92 14.1 20.07 13.37.12-.07.22-.16.35-.23a97 97 0 0 1 12.25-6c1-10.71-2.55-20-5.1-30.66-1-4-2-7.92-3-11.87-1.81-7.07-3.69-14.37-5.15-21.64-17.27-85.82-19.08-174.8-34.29-261.32-1.09-6.17-2.46-12.16-3.92-18.5-2.09-9.12-1.56-8.27 5.82-12.42 4.11-2.31 8.42-5.53 6.29-10.81a1.08 1.08 0 0 1 .14-1c7.88-13.85 7.38-39.2-7-48.4-2.74-1.75-5.34-3.77-7.86-5.73-11-8.55-24.35-11.61-36.89-17.49L457.41 298c-3-1.23-7-4.21-10.21-4.76a3.59 3.59 0 0 1-.86-.27v-.1c1.4-5.54-13.81-15.4-17.36-18.61-18-16.25-34.31-33.19-45.84-54.74-10.69-20-17.46-41.85-21.8-64-4.91-25-3.59-49.72-4.68-75-.19-4.26 1.21-5.83 5.54-6.21 9.82-.86 19.82-2.08 29.22-3.25 6-.76 8.15-3 8.05-8.48A139.27 139.27 0 0 0 398 44.47c-.21-1.44-2.09-3.58-3.29-3.76-17.36-2.59-35 3.86-52.19-.68-8.33-2.2-14.52-8.53-19.79-15.03a68.9 68.9 0 0 1-8.17-13.21c-1.1-1-2.26-1.87-3.44-2.73a156.85 156.85 0 0 0-33.38-9c-17.8 1.32-33 2.56-48.36 4.14C204.14 6.74 177 9.62 149.32 13c-19.28 2.38-38.86 5.06-57.79 7.65q-14.52 2-29 3.94c-3.08.41-6.16.79-9.24 1.17-14.2 1.75-28.88 3.55-42.64 8.56a15.63 15.63 0 0 0-4.24 2.79l-.53.43c-5.2 4.25-4.18 11.5-4.76 17.54A158.18 158.18 0 0 0 0 74.44C.15 79 2.3 89.3.43 93c-.06.13-.1.26-.16.37zm384.57-44.84c0-1.53 3-3.2 4.59-3.41a5.26 5.26 0 0 1 3.27 1.23 2.59 2.59 0 0 1 1.11 1.65 56.9 56.9 0 0 1 .09 13.47c-.19 1.32-1.58 2.25-3.52 3.53-.95.63-2 1.34-3.13 2.22l-1.14.9-.11-1.47c-.14-1.92-.29-3.72-.43-5.42-.39-4.66-.72-8.69-.73-12.7zM320.58 33l-2-1.12c-7.59-4.21-8.88-10.43-9.38-16.73a50.13 50.13 0 0 1 6.8 7.41zm-30 37c-11.33-.34-22.92.11-34.11.54-3 .12-6 .24-9 .34-14.81.5-30.61 1.07-46.53 2.08-13.18.83-25.18 1.94-36.68 3.38-19.27 2.42-38.82 5.21-57.73 7.92l-5.4.77c-4 .57-8 1.36-11.83 2.13q-2.69.54-5.32 1l-.59.11-.26-.55c-3.61-7.88-5.32-8.37-14.42-7.83a66.66 66.66 0 0 1-14.1-1.18c-1.92-.3-3.83-.6-5.75-.83-1.14-.13-2.27-.34-3.4-.54-1.29-.23-2.63-.47-3.94-.59-11.37-1.07-23-9.43-23.33-23.38 0-1.94-.09-3.46-.2-4.71l-3.69-5.53a6.18 6.18 0 0 1-.65-1.28c-.68-.42-1.45-.87-2.36-1.39l-1.63-.94 1.47-.6c1.07-.43 2.06-.9 3-1.35l.28-.13a6.14 6.14 0 0 1 5.81-2c9.56-1.39 19.28-2.67 28.69-3.91q8.91-1.17 17.82-2.37c8.57-1.16 17.12-2.4 25.67-3.6q17.14-2.41 34.28-4.74c7.41-1 15-1.87 22.26-2.72q6.31-.74 12.63-1.49 9.21-1.12 18.42-2.31c12.88-1.65 26.2-3.35 39.33-4.67 22.71-2.29 41.19-3.7 58.16-4.44 5.77-.25 11.59 1.1 17.23 2.4 1.44.33 2.88.66 4.31 1 1.72.36 3.77 3 3.78 4.9.05 12.11 6 21.15 17.79 26.87a61.23 61.23 0 0 0 32.7 6.06c6.36-.57 12.74-1.1 18.65-1.59l8.16-.69v.79c.14 1.83.24 3.59.34 5.29.21 3.66.41 7.11.93 10.47.37 2.37.1 4-.83 5.25s-2.82 2.06-6 2.39c-28.75 2.98-57.26 2.45-83.99 1.67zM61.77 118.47c.87-1 2.35-1.58 4.5-1.62.78 0 1.56-.11 2.34-.2s1.49-.17 2.24-.2c4.87-.17 8.21-1.39 10.2-3.73s2.58-5.51 2-10c-.23-1.8-.34-3.63-.45-5.4 0-.81-.1-1.62-.16-2.43v-.75l3.82-.4 1.54 20.57q1 13 1.86 25.93c1.48 20.9 3 42.52 4.94 63.73a189.31 189.31 0 0 0 3.21 19.65c1 5.14 2.09 10.46 2.78 15.75 1 7.48 1.66 15.12 2.32 22.51.6 6.68 1.22 13.6 2 20.36.94 7.64 2.25 15.17 3.62 23.15.63 3.64 1.27 7.34 1.89 11.14l.13.82-13.74 1.17-7.28 6.67-.53-.58a45 45 0 0 1-11.26-23.08c-2.86-15.95-5-29.38-6.42-43.1-.78-7.65-1-15.48-1.26-23-.18-5.62-.36-11.43-.76-17.12l-.52-7.72c-1-14.73-2-30-4.2-44.75a105.63 105.63 0 0 1-.81-13.31 98.11 98.11 0 0 0-.8-13.12c-.37-2.45-.63-4.95-.89-7.37-.3-2.83-.61-5.75-1.09-8.59-.36-2.33-.12-3.9.78-4.98zm.34 75.73c1 12.06 2.17 24.3 3.31 36.15q1.24 12.87 2.42 25.74c.66 7.47 1.2 14.94 1.76 22.84.26 3.74.54 7.57.83 11.52l.19 2.53-1.57-2c-18-22.84-40.61-114.64-23.05-175.22l.15-.53h.55c9.28-.55 9.68-.24 10.26 8.29l.21 3c1.52 22.19 3.09 45.14 4.94 67.68zm332.13 77.9c.06 0 .11.11.17.17a65.23 65.23 0 0 0 9.65 9.93l-.18.25-66.13 5.55-.24-3c-.13-1.59-.25-3.15-.33-4.71-.25-5.33-.35-10.77-.44-16-.21-11.5-.42-23.4-2.3-34.8-2.76-16.72-2.69-33.78-2.63-50.27 0-11.92.08-24.25-.94-36.31-1-11.51-.95-23.29-.92-34.69 0-5.41 0-11-.06-16.49 0-1.88-.16-3.81-.28-5.67-.12-1.69-.23-3.38-.28-5.07-.06-2.11.45-3.55 1.55-4.43s3.17-1.12 5.86-.41l.53.15v.55q.81 10.71 1.55 21.41c1.2 16.7 2.43 34 4 50.92 1 11.2 2.35 24.2 5.35 36.54 3.43 14.06 8.24 27.62 13.29 41.43 1.12 3.08 3.38 5.91 5.56 8.66 1 1.2 2 2.45 2.85 3.71 1.7 2.4 3.39 4.82 5.08 7.23 3.56 5.08 7.24 10.25 11 15.36a3.28 3.28 0 0 0 .62 1.2c.65.81 1.34 1.57 2 2.36s1 1.4 1.54 2.09a20.32 20.32 0 0 0 2.87 2.93c.42.46.85.9 1.28 1.36zm-60.95 16.07-27.51 2.33-2.5-33.6q-.87-12-1.78-23.89c-.15-2-.5-4.14-.84-6.18-.74-4.44-1.5-9-.39-13.25 1.32-5 .67-9.4 0-14.1-.29-2-.59-4.1-.72-6.2-.46-7.61-.6-15.35-.74-22.84-.13-7.18-.26-14.6-.68-21.87-.93-16.22-2.15-32.68-3.34-48.61q-.77-10.32-1.52-20.65l-.33-4.47L323.36 76l.09.65c.1.76.22 1.53.35 2.31a35.91 35.91 0 0 1 .62 5.34q.27 16.71.48 33.42.25 19.42.56 38.87c.07 3.59.12 7.18.18 10.78.24 15.34.49 31.21 1.28 46.78.46 9.09 1.46 18.32 2.42 27.24.55 5.1 1.12 10.36 1.59 15.55.61 6.85 1.09 13.59 1.6 20.73.22 3.22.46 6.47.7 9.77zM289.8 103.42a3.62 3.62 0 0 1 .48 3.27c-.44 1.7-3.31 3.44-5.27 3.62-20.24 1.84-40.82 3.58-60.72 5.25l-13.84 1.16h-.78v-.53c-2.85.24-5.7.46-8.55.68-6.74.51-13.7 1-20.51 1.83-22.56 2.59-45.48 5.39-67.65 8.09l-13.55 1.65a19.7 19.7 0 0 1-2.25.19 3.5 3.5 0 0 1-3.91-3.82v-.58c-.16-2.83-.37-6.34 5.09-6.79 11.12-.92 23-2 35-3.37 5.73-.68 11.54-1.52 17.15-2.33 7.46-1.07 15.17-2.18 22.79-2.93 14.87-1.47 30-2.7 44.65-3.89q11.28-.91 22.54-1.86c2-.17 4-.43 6.07-.69a92.13 92.13 0 0 1 10-.9c5.27-.09 10.63 0 15.81.12 4.21.09 8.55.18 12.86.15 2.16.09 3.79.59 4.59 1.68zm-5.44-6.93c-4.93.31-9.95.43-14.8.55-3.67.09-7.34.18-11 .34l-4.14.19c-10.13.44-20.61.91-30.87 1.77-21 1.76-41.79 3.83-61.35 5.8-3.21.32-6.47.89-9.62 1.44-2.27.39-4.53.79-6.81 1.1-12.34 1.7-24.68 3.36-37.3 5.06l-16 2.16-1.7-22.79.49-.22c19.74-9.17 171.77-22 196-16.6l.56.13v.57c.1 1.41.23 2.83.35 4.25.34 4 .69 8.15.69 12.27.04 1.6-2.86 3.88-4.5 3.98zm7.31 22.67a219.83 219.83 0 0 1 .33 22.64c-.06 1.74-2.69 4.4-4.61 4.67-4.18.58-8.45 1-12.58 1.34-4.52.42-9.19.84-13.73 1.51-6.67 1-13.43 2.17-20 3.31-8.34 1.45-17 3-25.49 4.08-12 1.58-24.27 2.81-36.13 4q-8.58.85-17.16 1.76c-4.49.48-9 1-13.46 1.5-7 .79-14.2 1.6-21.31 2.31-6.71.67-13.37 1.21-20.43 1.78l-9.67.8-.78.06L94 133l.71-.1c2.92-.44 5.76-.91 8.56-1.36 6-1 11.77-1.93 17.59-2.48 15.34-1.45 30.94-2.8 46-4.11q17.76-1.53 35.52-3.13c6.61-.6 13.32-1.33 19.82-2 7.78-.84 15.83-1.7 23.76-2.37 12-1 24.95-1.79 40.82-2.46 1.85-.08 4.77 2.44 4.89 4.17zm.71 33.16a4 4 0 0 1 1 3.45 10.52 10.52 0 0 0 .09 2.13c.2 1.83.43 4.16-1.63 5.46a3.31 3.31 0 0 0-1.14-.05c-7.62 1.14-15.25 2.18-22.88 3.18-6 .43-12 .82-17.9 1.2-9.23 2.63-20.07 2.27-29.34 3.75-14.42 2.31-29 3.2-43.44 5.56-11.72 1.91-23.35 3.28-35.17 4.54-6.58.7-13.11 1.65-19.7 2.14-3.17.23-16.44-1.08-18.59 1a3.06 3.06 0 0 1-4.35 0l-1 .14-.16-2.11a3.67 3.67 0 0 1 0-.46l-.73-9.8 27.42-2.32q9-.75 18-1.46c13.81-1.1 28.09-2.24 42.09-3.75 8.58-.92 17.27-2.29 25.67-3.61 5.94-.93 12.09-1.9 18.15-2.7 13.11-1.74 26.45-3.36 39.35-4.93l19.56-2.4c2.17-.28 3.75.1 4.7 1.04zm-190.27 66.36c-.71-6.73-1.18-13.52-1.68-20.71-.15-2.2-.31-4.5-.48-6.81 32.25-1.88 63.94-9 96.24-11.25 32.13-2.21 64.11-5.83 95.95-10.6.25 3.23.55 6.35.86 9.38.7 7.12 1.38 13.84 1.05 20.55a6.23 6.23 0 0 1-.13.65 3.11 3.11 0 0 1-.65 3.06 3.16 3.16 0 0 1-3 2.11 28.76 28.76 0 0 0-8.16.65 101.82 101.82 0 0 1-17.69 2.36 84.51 84.51 0 0 1-15.25 1.72 3.16 3.16 0 0 0-.28.72 558 558 0 0 1-67.49 8.27c-24.62 1.64-49.18 4-72.23 6.21q-.63.06-1.17.06c-5.21 0-5.63-3.95-5.89-6.37zm17.43 9.13c8.63-.74 17.17-1.47 25.72-2.16q11.88-1 23.76-1.81c17.06-1.27 34.7-2.57 52-4.41 12.06-1.29 24.24-3.51 36-5.65l3.29-.59c11.07-1.33 22.12-2.87 33.16-4.4a1.38 1.38 0 0 1 .4.4 13.15 13.15 0 0 1 1.53 7.61c-.14 1.62-3.5 3-4.95 3.22-30.41 3.88-60.31 7.56-88.08 11-6.59.81-13.18 1.58-19.77 2.35-8.11.95-16.21 1.9-24.31 2.92-9.52 1.19-19 2.45-28.55 3.71q-8.82 1.17-17.63 2.32a11.37 11.37 0 0 1-1.44.08h-3.2l-1-13.41zm181.19 64.61L117.09 315.5l-.75.09-2.77-18.2.79-.1q5.43-.71 10.85-1.44c7.83-1.05 15.92-2.14 23.91-3 12.55-1.29 25.11-2.5 37.68-3.71 14.51-1.4 29.52-2.84 44.27-4.4 7.67-.81 15.45-2 23-3.15 3.73-.56 7.45-1.13 11.19-1.66 7.4-1.05 14.81-2.08 22.53-3.16l11.68-1.63zm-187.88 3.37-.92.27-1-14.05c62-3.79 123.56-12.62 185-21.66 1.47.8 2.75 3.52 2.91 5 .17 1.64-1.21 4.93-2.87 5.27-9.06 1.88-19.33 4-29.44 5.22-11.9 1.45-24 2.7-35.74 3.91-8.11.84-16.21 1.68-24.31 2.58-12.5 1.4-26.15 3.06-41.72 5.1-13.23 1.72-27.59 3.71-43.9 6.08a30.57 30.57 0 0 0-5.06 1.37c-.94.28-1.9.6-2.95.91zm-2.47-19.94h-.12L108 245.78l.75-.08q11.56-1.22 23-2.38c17.46-1.79 35.52-3.65 53.15-5.69 10.13-1.18 20.41-2.62 30.35-4 7.29-1 14.82-2.08 22.25-3 6.89-.87 13.91-1.62 20.7-2.34 5.11-.55 10.21-1.09 15.3-1.69 4.82-.57 10-1.35 15.86-2.39 2.67-.47 4.48-.24 5.71.75a5.47 5.47 0 0 1 1.77 4.27c.33 7 .74 13.82 1.22 20.42a5.27 5.27 0 0 1-1.1 4 3.8 3.8 0 0 1-.48.42l-1.52.22a3 3 0 0 1-.43.25c-12.13 3.93-25.8 3.74-38.36 6-16.24 2.86-32.72 5.06-49.07 7.3-29.46 4.05-59.31 4.58-88.75 8.57-.07 0-.12.06-.2.06l-.65.07a2.58 2.58 0 0 1-2.09-.74 3 3 0 0 1-1-.17c-1.34.02-2.68.14-4.03.22zM75.7 107.58l-.25 1-1.53-.24c.14-2.42-.71-4.84-1.62-7.4-1.67-4.75-3.57-10.14 1.44-16l.72-.84.54 1c4.52 7.98 2.58 15.35.7 22.48zm357.5 183c-3.46-1.67-6.85-3.45-10.17-5.39a150.32 150.32 0 0 1-59.62-65.8c-14.3-30.8-15.8-67.6-19.68-100.89-1.37-11.71-1.92-23.53-2.45-35-.15-3.33 0-5.5 1.41-6.77 1.57-1.44 4.37-1.38 9.31-.73l.7.09v.71c-.06 1.59-.16 3.14-.26 4.68a75.77 75.77 0 0 0-.24 9.47c.29 5.22.56 10.45.84 15.67 1.15 21.86 2.19 43.32 7.65 64.63C366 192 374 211.93 383.6 231a61.15 61.15 0 0 0 7.88 12.1c7.07 8.37 14.47 16.45 21.89 24.51 3.43 3.71 6.69 7.54 10 11.39 1.24 1.45 2.8 3.84 4.47 6.1s3.59 4.6 5.36 5.46zm84.74 43.86-1.22.42c-1.5.51-2.87 1-4.18 1.5a66 66 0 0 1-7.43 2.43q-9.3 2.26-18.6 4.57c-19.39 4.79-39.43 9.74-59.29 14-8.9 1.9-18.11 3-27 4-5 .59-10.19 1.19-15.24 1.93-4.11.61-8.26 1.39-12.29 2.14s-8.47 1.57-12.69 2.19c-5.4.78-10.8 1.6-16.2 2.42-15.81 2.4-32.15 4.88-48.33 6.35-22.81 2.07-46.1 2.82-68.62 3.54l-1.5.05q-4.22.13-8.42.14c-21.75 0-43.41-2.58-63.76-5.42-8.62-1.21-17.06-3.14-25.68-5.17a9 9 0 0 1-4-2.39c-4.74-2-7.69-6.91-9.52-12-1.12-1.58-2.12-3.23-3.09-4.9a44.79 44.79 0 0 1-7.81-8.14c-1.2-1.48-2.45-3-3.72-4.39-1.62-1.75-3.06-3.61-4.58-5.58-.71-.92-1.44-1.86-2.2-2.81l-.53-.66.7-.47c8.86-6 18.74-7 28.29-8 3.64-.37 7.41-.76 11-1.43 20.62-3.79 41.15-6.55 65.63-9.52 10.41-1.26 21-2.23 31.28-3.15 9.88-.9 20.1-1.82 30.11-3 8.54-1 17.19-2.41 25.56-3.76 7.47-1.21 15.2-2.45 22.84-3.43 8.47-1.08 17.13-1.72 25.51-2.35 3.57-.26 7.14-.53 10.71-.83 4.89-.41 9.78-.79 14.68-1.17 10.27-.79 20.89-1.62 31.3-2.72 17.67-1.88 34.15 2.71 47.93 7.44 2.14.74 4.29 1.45 6.45 2.17 8.56 2.84 17.42 5.78 25.33 10 5 2.65 10.53 4.45 15.9 6.2 8.47 2.75 17.23 5.59 24.09 11.84l4.74 4.39zm-31.29 113.05 2.06-2.07.53.35c.87.59 1.78 1.16 2.68 1.73a42.56 42.56 0 0 1 6.13 4.36l.76.72c1.81 1.76 2.78 2.55 4.89 1.15a21.11 21.11 0 0 1 2.07-1.17c2.87-1.49 4.57-2.57 3.38-5.85a48.64 48.64 0 0 1-1.48-5.24c-.74-3.05-1.43-5.93-3-8.31-3.26-4.92-7.34-8.57-11.17-10-7.88-3-11.64-7.63-12.2-15.11a35.6 35.6 0 0 0-1.11-5.74c-.27-1.07-.55-2.2-.81-3.43l-.17-.8L507 393.7l.21.63c.11.35.26.73.41 1.13a16.3 16.3 0 0 1 1 3.52q5 34.62 9.85 69.27c.45 3.15.91 6.29 1.37 9.44 1.17 7.91 2.38 16.09 3.23 24.17.29 2.79.6 5.57.91 8.36 1.32 11.84 2.69 24.09 2.69 36.19 0 6.26.15 12.13.44 17.73q.2 2.93.35 5.85a210.5 210.5 0 0 0 3.8 28.16c1.74 8.36 3 17 4.22 25.26.78 5.31 1.58 10.79 2.5 16.16.78 4.49 1.73 9 2.64 13.42 1 4.57 2 9.29 2.74 14a71.07 71.07 0 0 1 .72 7.66 56.78 56.78 0 0 0 1 8.84c1.18 5.43 2.63 10.92 4 16.22s2.83 10.72 4 16.14c1.14 5.24 1.91 10.64 2.66 15.86.4 2.85.81 5.7 1.28 8.53a4.87 4.87 0 0 1-.63 3.8c-.79 1.08-2.15 1.7-4.4 2a33.7 33.7 0 0 1-4.86.41c-6.47 0-9.14-2.9-10.84-10.53q-2.59-11.7-5.1-23.44-2.43-11.34-4.93-22.69c-1.06-4.81-2.2-9.61-3.33-14.41-1.84-7.79-3.74-15.85-5.31-23.83-1.07-5.43-1.84-11-2.59-16.42-1.28-9.24-2.6-18.79-5.43-27.71-7.58-24-9.78-49-11.89-73.17-.67-7.56-1.35-15.38-2.19-23.05-1.52-13.9-3.69-28-5.78-41.57-1-6.37-2-12.74-2.88-19.11-.09-.62-.13-1.25-.16-1.87zm-120.9 122.36c1.38-17.22 2.2-34.77 3-51.74v-.3c1-21.33 1.74-39.26 2.12-57.41a199.49 199.49 0 0 0-1.38-24.07c-.23-2.29.07-3.79 1-4.87s2.41-1.7 4.82-1.91c3.73-.33 7.52-1 11.18-1.65l2.42-.43c1.85-.32 3.19-.11 4.13.64a4.78 4.78 0 0 1 1.46 3.74c.14 3.26.41 6.57.68 9.78.09 1.17.19 2.33.28 3.49l1.43.11-.06.77c-.53 7.33-1 14.66-1.5 22-1.09 16.4-2.21 33.36-3.82 50-2.49 25.82-5.88 52.07-8.87 74.64-1.14 8.67-2.95 17.4-4.7 25.85-.46 2.22-.92 4.43-1.37 6.65-.53 2.62-3.42 4.61-5.94 5.59a13.69 13.69 0 0 1-4.73.94 6.55 6.55 0 0 1-3.92-1.11c-1.48-1.08-1.79-3.88-1.64-5.51.68-7.14 1.42-14.28 2.17-21.42 1.13-11.07 2.33-22.51 3.24-33.78zM220.9 515.33l.11-2.17c.1-2 .19-3.95.28-6 .29-5.93.57-12.07 1.05-18.18.16-2 2-3.89 2.84-4.61 4.16-3.76 8.32-7.67 12.35-11.45 10.38-9.75 21.12-19.84 32.88-28.32 6.61-4.76 15.26-7.13 23.62-9.42 3.19-.87 6.48-1.77 9.58-2.78a176 176 0 0 1 18.19-4.68l1.67-.35c11.63-2.45 23.66-5 35.59-7 11.19-1.88 22.6-3.55 33.64-5.17 5.29-.78 10.59-1.55 15.88-2.35 2.21-.34 4.41-.69 6.62-1 3.79-.61 7.72-1.25 11.59-1.75l.5-.07c2.66-.34 5.68-.74 8.27-.06 4.46 1.16 9.1 2 13.58 2.91 9.65 1.86 19.63 3.78 28.6 8.49a88.4 88.4 0 0 0 8.15 3.6c2.07.84 4.22 1.71 6.28 2.68 7.29 3.43 10.1 8.73 8.58 16.21l-.19.91-13.95-5.64c-.82-.33-1.62-.71-2.43-1.09a20.11 20.11 0 0 0-5.24-1.9l-.38-.06c-3.9-.6-7.93-1.22-10.89-4.13q-2.26-1.09-4.48-2.25c-4.5-.13-8.53-1.69-12.43-3.22a45.6 45.6 0 0 0-8.53-2.72c-16.8-3.05-31-4.51-45.61-1.79-4.95.92-10 1.61-14.95 2.28a198.61 198.61 0 0 0-23 4.07c-11.19 2.91-22.33 6.8-33.1 10.55-4.22 1.47-8.45 2.94-12.68 4.36-4.82 1.62-9.74 3.42-15.05 5.5-17.88 7-33.21 17.9-46.87 33.29-6.55 7.39-13.28 14.81-19.79 22q-4.41 4.88-8.79 9.72zM449.5 407.9l-.45-.23-.86-2 26-6.37 3.12 15.1zm-161.21 24.19c-26.54 8.2-44.15 26.42-62.8 45.71l-2.77 2.86-1.08-46.38 66.36-5.61 1.09 3.18zM176 716.23a148.09 148.09 0 0 1-.14-20.42c.11-2.74.21-5.47.26-8.19.08-5 .2-10.08.32-15.12.18-7.75.36-15.77.42-23.65.08-10.13.1-20.25.12-30.38 0-14.78.05-30.06.27-45.09.14-9.81.61-19.78 1.06-29.42.26-5.63.52-11.25.73-16.88.08-2.19 0-4.44 0-6.61a75 75 0 0 1 .3-10.69c1.83-14.93.37-29.95-1-44.47-.55-5.74-1.13-11.67-1.5-17.53-.18-2.89-.4-5.78-.64-8.79l-.39-5.13 40.86-1 .22 12.36c.18 9.43.35 18.33.43 27.35a142.1 142.1 0 0 1-.49 15.17c-2.06 20.86-4.28 42.2-6.6 63.45-.68 6.24-1.46 12.57-2.21 18.69-1.35 10.94-2.75 22.26-3.61 33.4-.47 6.2-.4 12.54-.33 18.67s.14 12.71-.36 19.06c-.28 3.46-.74 6.94-1.27 10.4a4.89 4.89 0 0 1 .23 2.34q-.33 2.68-.67 5.36a6.26 6.26 0 0 1-.43 1.64c-.41 22.43-2.91 45-6.11 67.22-.25 6.55-1.11 13.14-2 19.58-.37 2.76-.74 5.52-1.06 8.27-.95 8.12-2.32 16.59-4.07 25.18-.1.47-.18.95-.27 1.45-.63 3.69-1.43 8.29-7.84 8.44h-.45c-3.38 0-6-.88-7.68-2.62s-2.52-4.22-2.42-7.44a186.15 186.15 0 0 1 2.55-24.11c.36-2.26.74-4.51 1.13-6.77 1.83-10.95 3.76-22.3 2.64-33.72zM75.52 450.56l-6.2 4 .85-2.23c.28-.72.51-1.48.74-2.24a14.42 14.42 0 0 1 2.23-5c.52-.64 1-1.3 1.54-2 2.91-3.7 5.91-7.53 9.88-9.9 1-.57 1.9-1.18 2.85-1.79 5.21-3.31 10.61-6.73 17.85-5.63a37.06 37.06 0 0 0 6.43.23 31.77 31.77 0 0 1 8.28.58c21.14 5.5 36.05 17.66 45.57 37.18 4.93 10.09 9.39 21.18 8.66 33.81-.08 1.42-.21 2.84-.34 4.26l-.22 2.65-3.63.6-.22-.61c-.91-2.57-1.74-5.16-2.58-7.76a119.9 119.9 0 0 0-6.28-16.66c-1.22-2.46-2.39-5-3.55-7.5-6.37-13.76-12.95-28-29.61-33.7-7-2.39-15.9-1.43-24.48 0-13.07 2.15-13.9 2.69-27.77 11.71zm73.57-18.51 1.65.07 4.16.19c3.62.17 7.73.36 11.77.45 3.57.07 5.17 1.69 5.35 5.4.26 5.62.7 11.11 1.16 16.92.18 2.27.37 4.55.54 6.85l.2 2.6zm-90.49 26q.42-7.17.85-14.34c.52-8.16 1-16.34 1.47-24.81l.73-12.41 32.27 10.17-.54.85c-.54.86-1 1.72-1.36 2.47-.82 1.62-1.47 2.9-2.68 3.4-5.16 2.12-8.13 6-11.27 10.17a46.52 46.52 0 0 1-6 6.95c-5.17 4.56-5.46 10.22-5 15.66.12 1.45.88 3.35 1.72 3.72s3.11 0 4.49-.88a76.9 76.9 0 0 0 6.6-4.82c.88-.7 1.77-1.39 2.66-2.07l.37-.28 2.39 1.08v.54c-.24 3.09-.39 6.24-.53 9.29a141.36 141.36 0 0 1-2 20.45c-2.4 12.34-5.26 24.81-8 36.88-2 8.58-4 17.46-5.86 26.21a65.81 65.81 0 0 0-1.06 16c.45 13.69-1.74 28.34-6.93 46.09-7.2 24.66-15 49.86-23.71 77-1.76 5.46-4.67 10.66-7.49 15.7-.57 1-1.15 2.07-1.72 3.1-.78 1.44-3.29 3.36-5 3.36a1.68 1.68 0 0 1-.5-.07c-2-.58-5.21-2.49-5.7-4.73a17 17 0 0 1 .73-9.92c7.66-17.86 13-34 16.34-49.4a64 64 0 0 0 1-7.41c.13-1.41.26-2.83.44-4.23.47-3.48.83-7 1.19-10.49.8-7.86 1.64-16 3.63-23.77 5.16-20.15 8.59-42.48 10.81-70.25a127.08 127.08 0 0 1 2.53-15.44 132 132 0 0 0 2.44-14.38c1.17-13.12 1.94-26.44 2.69-39.39zM42.77 349.2c3.1 1.13 6.06 2.19 8.9 3.21 6 2.16 11.69 4.19 17.19 6.4s11 4.64 16.36 7c3 1.29 5.9 2.59 8.86 3.86a3.72 3.72 0 0 0 1.84.25c9.51-1.22 18.22 1.34 26.65 3.81a124.6 124.6 0 0 0 12.61 3.27c9.39 1.72 19.06 2.92 28.42 4.09 2.59.32 5.17.64 7.75 1a356.24 356.24 0 0 0 62.29 2.29c5.79-.27 11.7-.16 17.41-.05a196.6 196.6 0 0 0 22.5-.41c14.13-1.35 28.44-3.46 42.27-5.5 6.25-.92 12.5-1.84 18.76-2.7 2.06-.28 4.12-.53 6.19-.77 2.65-.31 5.39-.63 8.07-1l13.47-2c13.13-1.95 26.7-4 40-6.3 17.71-3.12 36.31-6.75 55.29-10.81 14.43-3.09 29-6.61 43.15-10l8.37-2c2.73-.66 5.36-1.55 8.14-2.49 1.28-.43 2.58-.87 3.89-1.29l.79-.25.2.8c3.16 12.61 2.08 25.14-3.31 38.3a9.17 9.17 0 0 1-4.32 4.84l-2.27.94a149.6 149.6 0 0 1-19.78 7.11c-5.53 1.42-11.24 2.51-16.76 3.56-6.16 1.18-12.53 2.4-18.65 4.07-22.16 6.05-44.6 9.14-67.56 12-6.74.85-13.56 2.16-20.15 3.42-6.22 1.2-12.66 2.43-19 3.28-24.44 3.26-45.81 5.73-65.3 7.54-17.35 1.62-35.59 2.78-55.78 3.54-15.11.58-28.25.86-40.29.86-5.6 0-11-.06-16.17-.18a224.3 224.3 0 0 1-36-3.81 215.12 215.12 0 0 1-22.93-6.08c-3.32-1-6.63-2-10-3l-.34-.1-.15-.32c-.12-.25-.27-.44-.4-.67a29.56 29.56 0 0 1-9.98-3.05c-1.41-.48-2.78-1-4.14-1.65a13.85 13.85 0 0 1-3.75-.87 190.21 190.21 0 0 0-20.93-6.83c-8-2.25-12.82-7.43-14.62-15.84-1.71-8-3.4-16-5.19-24.42l-2.87-13.53zm21.57-19 .66-.2.29.63c.25.54.55 1 .83 1.54a4.14 4.14 0 0 1 1.56.85 4.24 4.24 0 0 1 1.32 1c1.59 1.8 3.15 3.62 4.72 5.44a162.14 162.14 0 0 0 11.7 11.3c.18.17.33.34.49.51 4.86 3.38 9.86 6.87 13.89 11.19l.39.41-1.38 2.47-.58-.14c-1.44-.36-3-.65-4.43-.93-3.32-.62-6.74-1.27-9.64-2.79l-3.08-1.63a5.26 5.26 0 0 1-4.35-1.4c-.35-.32-.68-.67-1-1a5.07 5.07 0 0 1-3-1.35c-.34-.32-.65-.68-1-1a130.73 130.73 0 0 0-21.29-8.44 15.61 15.61 0 0 1-4-2l-.64-.41c-2.58-1.61-3-3.18-2.93-4.21s.76-2.47 3.48-3.59c4.05-1.67 8.14-3 12.46-4.42 1.87-.62 3.69-1.22 5.53-1.85zM32 115.74c.36-1.2 1.66-2 2.92-2.77.5-.31 1-.62 1.44-1l.66-.52.46.7a14.43 14.43 0 0 0 1 1.23c.92 1.07 1.87 2.17 1.72 3.38-.35 2.76-.92 5.54-1.47 8.23a91.68 91.68 0 0 0-1.64 9.88c-1.18 13.16-2.33 27.27-2.69 41.28-.07 3.09 1 6.31 2 9.42.48 1.41 1 2.88 1.36 4.33a3 3 0 0 0 .29.62 2.31 2.31 0 0 1 .43 1.71c-3.17 11.81-.51 23.32 2.06 34.46.84 3.64 1.71 7.41 2.36 11.14a167.22 167.22 0 0 0 5.14 19.61c1 3.39 2.1 6.9 3 10.38 4.1 15.25 12.85 28.61 21.31 41.53 2.95 4.51 6 9.16 8.81 13.83C85.91 331 92.3 338 98.47 344.84c2.92 3.2 5.93 6.52 8.73 9.88a27.92 27.92 0 0 1 2.34 3.45c.31.52.63 1 1 1.56l.36.55-2.16 2-.47-.22c-.54-.26-1.11-.49-1.69-.72a11 11 0 0 1-3.71-2c-3.32-3.18-7-6.16-10.61-9-7.48-6-15.21-12.21-20.1-20.78-2.81-4.93-5.49-10-8.09-15-2.75-5.25-5.6-10.67-8.61-15.89-2.33-4.05-5.07-8-7.72-11.81-1.6-2.31-3.26-4.71-4.83-7.11l-.7-1.07c-1.41-2.11-2.86-4.29-3.35-6.71-.86-4.31-1.75-8.61-2.63-12.92-4.43-21.49-9-43.72-10.5-66.11l-.26-3.73c-1.14-16.77-2.33-34.11.92-51.22 1.32-7.16 3.2-14.06 5.61-22.25zM6.63 94.56c-.1-6.67 0-13.33.37-20a18.43 18.43 0 0 0 .38-3.18c.1-3.68 0-7.43 0-11.06-.05-3.06-.1-6.22-.05-9.34a4.76 4.76 0 0 1 1.3-2.69 11 11 0 0 0 .69-1l.6-1 .69.93c.23.32.49.62.76.93A8.51 8.51 0 0 1 13 50.64c.78 2.06 1.45 4.2 2.1 6.28a65.51 65.51 0 0 0 4.47 11.56c3.43 6.33 9.62 10.41 17.89 11.78 2.39.39 4.75 1 7 1.63a48.53 48.53 0 0 0 10.18 2c6.63.3 10.18 3.42 11.19 9.82.61 3.88.83 7.84 1.07 12 .11 1.92.22 3.89.38 5.94l.07.95-.94-.12c-1.37-.18-2.67-.29-3.91-.4a35.86 35.86 0 0 1-7.07-1.08l-5.8-1.72c-12.17-3.62-24.75-7.35-36.87-11.67a24.45 24.45 0 0 1-6.13-3.05z" fill="#ffffff" data-color="1"/>
    </g>
</svg>
