<?xml version="1.0" encoding="UTF-8"?>
<svg data-bbox="0.002 0.001 544.801 468.054" viewBox="0 0 544.83 468.04" xmlns="http://www.w3.org/2000/svg" data-type="color">
    <g>
        <path d="M470.23 56.77c-1.42-.07-2.84-.19-4.26-.21-1.81 0-3.62.11-5.43 0-4.6-.22-9.19-.6-13.79-.77-1.9-.06-3.83.47-5.72.36-3.79-.21-7.55-.77-11.34-1-1.88-.1-3.79.43-5.69.45-4.85 0-9.76.35-14.54-.29-2.84-.38-5.45.21-8.16.24-3.65 0-7.3.31-10.95.41-6.39.17-12.78.47-19.16.37s-12.46-.66-18.69-.93c-2.33-.1-4.68.07-7 .11h-.37c-2.72-1.38-5.67-.16-8.48-.77-2.19-.47-3 .46-3.06 2.67-.11 3.82-.16 7.64-.44 11.44-.23 3.1-1 6.17-1.12 9.28-.22 4.32-.64 8.73 0 13 .74 5 .35 10 .69 15 .16 2.33-.25 4.76 1.05 6.73 1.67 2.53 2 5.46 3.19 8.15a90.57 90.57 0 0 1 2.66 8.67c.35 1.12.85 2.19 1.18 3.31 1.11 3.64 2 7.37 3.31 10.92 1.4 3.73 3.76 7.16 4.74 11 1.25 4.84 3.81 9.06 5.42 13.69 1.09 3.13 2.84 6 4.26 9s2.87 6.26 4.34 9.38 3 6.05 4.42 9.1c2.31 5 4.57 9.94 6.83 14.93 1.8 4 3.54 8 5.34 11.95 1.49 3.25 3.06 6.47 4.54 9.73 1.35 3 2.54 6 4 8.92 1.15 2.36 2.59 4.59 3.82 6.92 2 3.67 3.79 7.41 5.8 11 1.1 2 2.58 3.77 3.7 5.75 2.31 4.08 4.47 8.25 6.74 12.36s4.5 7.85 6.58 11.86c1.3 2.49 2.2 5.19 3.41 7.74.95 2 2.18 3.87 3.16 5.86 1.5 3 2.81 6.15 4.34 9.17 2.28 4.5 4.78 8.9 7 13.43 1.67 3.41 3 7 4.58 10.44 1 2.14 2.12 4.2 3.15 6.31 1.31 2.66 2.53 5.35 3.86 8 .83 1.64 1.84 3.19 2.67 4.83 1.13 2.24 2.18 4.52 3.24 6.8 1.63 3.51 3.18 7.07 4.89 10.55a70 70 0 0 0 3.65 6.41 18.39 18.39 0 0 1 3.12 7.36c.44 3.05 1.69 6 2.69 9 .92 2.73 0 4.09-2.92 4.25a7.36 7.36 0 0 0-2.42.64c-3.59 1.54-9.66.9-12.2-3.21-2.75-4.45-6-8.6-9.11-12.83-1.48-2-3.26-3.8-4.66-5.86-1.69-2.47-3-5.24-4.68-7.67-3-4.23-6.19-8.32-9.34-12.44-5.15-6.77-10.37-13.48-15.49-20.28-2.27-3-4.34-6.18-6.52-9.26-3.41-4.79-6.92-9.5-10.21-14.37-1.83-2.7-3.3-5.65-4.94-8.48q-5.77-9.91-11.57-19.82c-3-5.11-6-10.19-8.95-15.32-1.6-2.79-3.05-5.65-4.63-8.45-.72-1.29-1.64-2.47-2.38-3.76-2.94-5.13-5.77-10.34-8.8-15.42-1.26-2.1-3-3.91-4.37-5.95-2.35-3.46-4.68-7-6.87-10.52q-3.75-6.14-7.24-12.42c-1.46-2.64-2.6-5.46-4.06-8.11-.78-1.43-2-2.63-2.87-4-1.56-2.52-3-5.14-4.51-7.69-1.09-1.84-2.17-3.71-3.42-5.45a97.08 97.08 0 0 1-9.92-16.86 35.1 35.1 0 0 0-1.9-3.19 23.57 23.57 0 0 0-.83 3.1c-.53 5.2-1.08 10.4-1.46 15.61-.33 4.73-.37 9.48-.69 14.21-.22 3.23-.8 6.44-1 9.67-.15 2 .08 4.05.08 6.07 0 3.2.09 6.4-.15 9.58a67.05 67.05 0 0 0-.22 9.19 109.51 109.51 0 0 1-.5 13.29c-.17 2.77-.54 5.52-.82 8.29a.87.87 0 0 0 0 .36c1.23 3.36-.24 6.59-.46 9.87-.29 4.28-.49 8.57-.78 12.84-.07 1-.44 2-.51 3.05-.55 8.61-1 17.22-1.63 25.81-.31 4.18-1.06 8.33-1.43 12.51-.28 3.19-.16 6.42-.42 9.61-.38 4.53-.82 9-1.5 13.54a3.92 3.92 0 0 1-2.89 3.45c-1.77.5-3.25 2-5.37 1.28-.24-.08-1.18.9-1.2 1.41-.17 4.5-.16 9-.29 13.51s-.36 9.13-.54 13.69c-.15 3.69-.26 7.38-.44 11.07-.17 3.51-.48 7-.58 10.52-.19 6.3-.16 12.61-.42 18.91-.14 3.51-.72 7-1 10.49-.1 1.08.21 2.21.13 3.29-.36 4.43-.82 8.84-1.18 13.26-.24 2.88-.39 5.76-.56 8.64a48.31 48.31 0 0 1-.43 6.27 23.39 23.39 0 0 1-2 5.72c-.74 1.5-3.21 1.25-4.11-.18-.29-.46-.86-1-1.31-1.06-2.66 0-5.22-3-5.32-5.74-.13-3.36-.37-6.71-.59-10.07-.12-1.72-.38-3.43-.42-5.16-.06-2.2.07-4.42.06-6.62 0-2.52-.1-5-.17-7.53 0-.25-.1-.49-.1-.74.05-3.75.2-7.51.14-11.26 0-2.27-.54-4.54-.58-6.81-.11-5.66 0-11.33-.1-17-.07-4.75-.32-9.5-.39-14.25-.1-7-.35-14-.1-21a251.54 251.54 0 0 0-.53-25.17c-.29-4.43-.74-8.85-1-13.29-.25-5-.35-10-.45-15-.15-7.41-.18-14.82-.39-22.23-.17-6.15-.65-12.3-.73-18.46 0-3.75.46-7.5.62-11.25.26-5.8.5-11.59.64-17.4.13-5.09 0-10.2.22-15.3.3-6.39 1-12.77 1.26-19.17.16-3.7-.16-7.41-.22-11.12q-.18-10.83-.33-21.67c0-.49.08-1 .12-1.47.12-1.6 1-3.21-.1-4.8-.09-.12 0-.36 0-.55 0-4.78 0-9.56.15-14.33.07-2.25.48-4.5.58-6.75a13.19 13.19 0 0 0-.54-2.87c-3 .67-3.94 3.36-5.44 5.46a67.83 67.83 0 0 1-4 5.72 75.35 75.35 0 0 0-9.06 12.58c-2 3.42-4.37 6.58-6.59 9.84-3.76 5.55-7.47 11.13-11.32 16.62-2.14 3.06-4.52 5.95-6.76 8.95-.48.64-.75 1.42-1.18 2.09-2.92 4.63-5.7 9.36-8.84 13.84-2.53 3.61-5.54 6.88-8.27 10.35-.71.91-1.14 2-1.8 3a27.3 27.3 0 0 1-2 2.35c-.2.22-.53.35-.67.59-2 3.42-3.79 6.92-5.9 10.24-1.54 2.42-3.45 4.59-5.19 6.88-1.45 1.9-3 3.76-4.33 5.72-3 4.32-5.87 8.74-8.92 13-3.26 4.55-6.86 8.87-10 13.53-2.47 3.74-4.36 7.85-6.6 11.74-.52.91-1.5 1.54-2.07 2.43-.82 1.28-1.41 2.71-2.18 4q-2 3.33-4 6.61c-1.36 2.18-2.78 4.33-4.16 6.5-2.21 3.47-4.71 6.8-6.56 10.46-4.22 8.37-10.31 15.49-15.21 23.39a84.72 84.72 0 0 1-5.35 7.57c-2 2.51-4.16 4.85-6.25 7.25-3 3.44-6 6.88-9 10.3-2.15 2.44-4.4 4.79-6.49 7.27a27 27 0 0 0-2.39 3.71c-1.38 2.32-2.73 4.67-4.08 7a15.72 15.72 0 0 1-2 3.34c-.87.88-2.21 1.9-3.28 1.83-1.6-.1-2.43-2.05-1.92-3.77.7-2.35 1.14-4.64 3.31-6.52 1.83-1.58 2.59-4.38 3.88-6.61a5.21 5.21 0 0 1 1.44-1.84c3.39-2.12 5.57-5.32 7.89-8.43 2.1-2.81 4.36-5.49 6.58-8.21a48 48 0 0 1 4.54-5.37 13.4 13.4 0 0 0 4-5.22c1.1-3 3.51-5 6-6.88a4.86 4.86 0 0 0 1.26-1.55c1.57-2.85 3-5.8 4.65-8.59 1.35-2.27 2.92-4.42 4.49-6.55 1.13-1.53 2.59-2.83 3.6-4.43a90 90 0 0 0 5.93-10.23c1.93-4.22 4.87-7.6 7.68-11.18a36.79 36.79 0 0 0 4.85-8.69 21.32 21.32 0 0 1 4.06-7c1.35-1.41 1.76-3.66 2.87-5.35 2.11-3.22 4.45-6.29 6.65-9.46 1.22-1.76 2.3-3.61 3.55-5.35 1-1.39 2.18-2.64 3.22-4 .66-.87 1.23-1.83 1.83-2.75 1.61-2.51 3-5.16 4.88-7.5 2.12-2.7 4.89-4.92 6.83-7.73 1.71-2.46 3.87-4.65 4.74-7.79.52-1.88 2.27-3.41 3.46-5.12 1-1.48 2-3 3.08-4.47s2.21-2.45 3.2-3.76c2.57-3.4 5.07-6.84 7.59-10.27a6.61 6.61 0 0 0 1.16-1.9c.84-2.95 3-5 4.66-7.43 2.23-3.18 4.18-6.56 6.28-9.83.55-.85 1.28-1.59 1.87-2.41q5.1-7 10.17-14.08c1.58-2.19 3.2-4.36 4.74-6.58.49-.7.7-1.57 1.13-2.32a8.86 8.86 0 0 1 1.73-2.57c3.81-3 6.17-7.24 9.11-11 .79-1 1.67-1.93 2.53-2.88a11 11 0 0 0 .89-.92c1.36-1.94 2.66-3.91 4-5.85 2.45-3.45 5-6.86 7.35-10.36a4.88 4.88 0 0 0 .44-2.33c.26-3.57.46-7.14.69-10.71 0-.19.13-.41.07-.55-1.1-2.38.25-4.71.09-7.08-.18-2.89.76-3.43 3.57-3.07a64.35 64.35 0 0 0 9.21.43c3 0 6-.43 9-.54.61 0 1.2.65 1.85.77a10.09 10.09 0 0 0 2.95.17c.84-.09 3.83 1.34 4.22 2.19a4.8 4.8 0 0 0 1.07 1.67 10.6 10.6 0 0 1 3.84 9.62c-.54 6.87-1.29 13.73-1.64 20.61-.08 1.6 1 3.3 1.68 4.88a36.15 36.15 0 0 0 2 3.67c2.55 4.41 5.14 8.8 7.65 13.23 2.87 5.07 5.56 10.25 8.52 15.27 2.82 4.78 6.45 9.17 8.67 14.19 1.64 3.72 5 6.14 6.19 10.1.73 2.39 2.62 4.41 3.88 6.66 1.34 2.4 2.48 4.9 3.83 7.29.87 1.55 2 2.95 2.95 4.46 3.08 4.88 5.73 10.1 9.31 14.57 2.95 3.68 4.43 8 6.91 11.85 2.13 3.31 4.33 6.56 6.4 9.9 1.38 2.23 2.53 4.6 3.88 6.86s3 4.66 4.42 7c.8 1.3 1.39 2.73 2.19 4 1.41 2.31 3 4.52 4.33 6.85a34.24 34.24 0 0 1 1.53 3.75 72.21 72.21 0 0 0 7.2 12.42c1 1.52 1.72 3.28 2.7 4.85 1.31 2.08 2.82 4 4.11 6.11s2.63 4.56 3.94 6.84a5.34 5.34 0 0 0 .7 1.09c3.69 3.75 6.22 8.35 9.26 12.58 1.8 2.5 3.58 5 5.41 7.5 1.57 2.13 3.14 4.27 4.84 6.3 1.84 2.21 3.85 4.27 5.74 6.44a28.42 28.42 0 0 1 2.09 2.78c1 1.53 1.94 3.16 3 4.65 1.64 2.22 3.4 4.35 5.08 6.53 1.2 1.56 2.42 3.11 3.54 4.73 2.7 3.94 5.25 8 8.06 11.85 3.07 4.22 6.33 8.3 9.58 12.38a4.13 4.13 0 0 0 4.89 1.38c-.7-2.63-1.22-5.27-2.11-7.77a51.89 51.89 0 0 0-2.87-5.91c-2.23-4.4-4.49-8.77-6.69-13.18-.61-1.21-1-2.51-1.61-3.74-.86-1.82-1.81-3.6-2.7-5.42q-2.47-5-4.9-10.09c-1.27-2.68-2.48-5.4-3.76-8.08-3.26-6.85-6.49-13.72-9.85-20.52-2.34-4.76-4.94-9.39-7.26-14.17a38.76 38.76 0 0 1-1.75-5.6 5.09 5.09 0 0 0-.28-1.07c-1.73-3-3.51-5.92-5.23-8.89s-3.55-6.22-5.31-9.33c-3.66-6.51-7.38-13-10.95-19.53-3.09-5.7-6.06-11.48-9-17.27-2.51-5-5-10-7.32-15-1.87-4-3.47-8.19-5.28-12.25-1.28-2.87-2.75-5.64-4-8.5-.5-1.1-.62-2.37-1.12-3.47-1.77-3.91-3.74-7.74-5.43-11.68-1.24-2.91-2.16-6-3.23-8.94-.08-.23-.07-.53-.22-.69-3.89-4.35-5.55-9.82-7.49-15.14-1.09-3-1.93-6.12-3.12-9.1-1-2.56-2.49-5-3.54-7.5-1.29-3.11-2.44-6.3-3.51-9.5-1.45-4.36-2.68-8.8-4.16-13.15-1.33-3.9-2.85-7.74-4.31-11.59-.31-.81-.74-1.57-1.06-2.37a44.82 44.82 0 0 1-1.69-4.43c-.44-1.56-1-2.27-2.92-2.16-3.79.22-7.61-.14-11.42-.22-4.38-.1-8.75-.21-13.12-.22-1.45 0-2.91.35-4.36.37-1.28 0-2.43-.87-2.13-2s-.36-3 2-3.62c3.09-.81 6.06-.49 9.12-.38 3.91.13 7.83 0 11.74.08a68.87 68.87 0 0 1 6.88.58c1.52.2 2-.23 2.18-1.78.27-2.38.81-4.72 1.1-7.09a76.4 76.4 0 0 0 .73-7.84c.09-4.11-.1-8.23-.07-12.34 0-4.81.2-9.62.25-14.43a11.11 11.11 0 0 0-.4-3.65 2.49 2.49 0 0 0-1.92-1.07c-3.57-.12-7.15.06-10.7-.15-6.69-.39-13.35-.46-19.95.93a2.84 2.84 0 0 1-1.08.08 38.49 38.49 0 0 1-5.16-1.12c-4.3-1.5-8.79-.92-13-.46-6.66.72-13.17-.68-19.76-.28-2.72.16-5.48-.5-8.23-.57s-5.67.22-8.5.17-5.41-.3-8.11-.52c-1-.09-1.53.36-1.61 1.31-.14 1.72-.2 3.44-.32 5.17s-.37 3.26-.35 4.9a34.91 34.91 0 0 0 .54 3.77c.07.53.2 1.29-.08 1.57-2 2-1.56 4.49-1.81 6.85-.49 4.66-1.05 9.32-1.32 14-.21 3.51-.91 7.16 1 10.16 3.54-.24 6.88-.62 10.22-.65a25.68 25.68 0 0 1 5.45.92c1.74.38 3.44.9 5.17 1.34s3.34.76 5 1.31c.36.13.63 1 .58 1.54 0 .28-.8.73-1.21.71-2.22-.11-4.43-.4-6.64-.53-3.46-.2-6.92-.39-10.38-.44a11.77 11.77 0 0 0-3 .72c-.35.09-.7.24-1 .35-2 .66-3.27.21-4.27-1.73-1.39 2.59-2.79 5-4 7.53q-3.2 6.56-6.21 13.2c-1.23 2.7-2.29 5.48-3.45 8.21a14.2 14.2 0 0 1-1.08 2.13c-3.22 5.07-5.31 10.7-7.92 16.06-1 2.09-1.71 4.33-2.64 6.46-1.64 3.72-3.28 7.45-5.06 11.11-2 4.05-4 8.09-6.16 12-1.54 2.78-3.46 5.34-5.13 8q-2.66 4.32-5.17 8.72c-1.61 2.82-3.18 5.68-4.73 8.53-1.4 2.59-2.74 5.21-4.15 7.79-.49.9-1.16 1.72-1.65 2.62-1.52 2.81-2.95 5.66-4.48 8.45-2.58 4.7-5 9.48-7.87 14-3.57 5.74-7.53 11.24-11.22 16.92-1.81 2.79-3.27 5.81-5.07 8.61-1.91 3-4.14 5.79-6 8.8-2.26 3.58-4.22 7.35-6.44 11-1.83 3-3.86 5.82-5.79 8.73-2.11 3.17-4.3 6.3-6.31 9.55-3 4.76-5.57 9.75-8.73 14.36-1.73 2.52-2.71 5.32-4.19 7.91-.89 1.55-1.71 3.16-2.73 4.61-2 2.79-4.27 5.36-6 8.26-2.45 4-4.47 8.32-6.79 12.44-1.87 3.33-3.88 6.57-5.85 9.85s-4.06 6.77-6.13 10.13c-2 3.19-4.21 6.24-5.93 9.55-1.28 2.46-3.5 4.44-3.71 7.51-.08 1.21-1.12 2.32-1.39 3.55a2.89 2.89 0 0 0 4.07 3.27c1.23-.59 2.23-.09 2.38.68s.61 2.06-.83 3c-2.21 1.49-4.56 1.31-6.92 1.46-2 .12-4.76-3.25-4.86-5.81a48.91 48.91 0 0 1 0-6.29 5 5 0 0 1 1.43-2.77 9.33 9.33 0 0 0 2.32-3.57c.81-2.19 2.5-4.05 3.66-6.13s2.08-4.45 3.33-6.56a23.8 23.8 0 0 1 3.13-3.78 15.85 15.85 0 0 0 3.88-6.83c.34-1.29 1.4-2.38 2.13-3.56q1.94-3.11 3.86-6.22a10.37 10.37 0 0 1 1.1-1.9c3.09-3.2 5-7.09 7-11 1.22-2.4 2.88-4.58 4.3-6.88 1.71-2.77 3.31-5.61 5.08-8.34 1-1.53 2.45-2.79 3.33-4.38 1.69-3 3-6.25 4.69-9.3a34.59 34.59 0 0 1 2.92-4 5.29 5.29 0 0 0 .53-.74c1.75-3.89 4.77-6.92 7.09-10.41.53-.81.79-1.79 1.26-2.64 1.22-2.16 2.48-4.3 3.75-6.43 1-1.69 2-3.4 3.08-5 1.49-2.23 3.17-4.34 4.61-6.6q3.57-5.61 6.91-11.38a32.68 32.68 0 0 0 1.69-4.29 1.2 1.2 0 0 1 .43-.59c3.55-1.83 4.61-5.62 6.64-8.6 2.51-3.69 4.6-7.67 6.87-11.53.94-1.59 2-3.15 2.82-4.79 2.09-4 4-8.11 6.15-12.11 1.81-3.4 3.84-6.68 5.68-10.05 1.26-2.3 2.27-4.74 3.58-7 .72-1.24 2-2.15 2.75-3.37s1.39-2.83 2.11-4.23q1.78-3.48 3.63-6.92c1.65-3.08 3.23-6.21 5-9.2 2.14-3.54 4.38-7 5.69-11 .68-2.11 2.31-3.9 3.41-5.89a43.61 43.61 0 0 0 2.16-4.46c1.63-3.92 3.16-7.87 4.8-11.78.68-1.64 1.19-3.12.31-5-.33-.68.51-2 .93-2.95s1-1.92 1.33-2.55c.81-.53 1.66-.79 1.95-1.33 1.58-3 3-6.07 4.51-9.09 2-4 4-7.91 6.12-11.79a27 27 0 0 0 3.51-9.77c0-.24 0-.56.14-.7 2.68-2.66.8-6.22 1.83-9.21.25-.72-.06-1.63.15-2.37 1.34-4.78.22-9.6.32-14.4.07-3.39.21-6.78.2-10.17s-.09-7-.3-10.42a2.12 2.12 0 0 0-1.5-1.36c-3.88-.13-7.77 0-11.65-.11-3.43-.07-6.86-.31-10.3-.37-2.72 0-5.44.1-8.16.1-4.12 0-8.24-.06-12.37-.07-2.77 0-5.55.19-8.32 0-4.93-.26-9.85-.78-14.78-1-1.52-.09-3.06.44-4.59.39-3.33-.11-6.64-.5-10-.61s-6.55.12-9.82 0c-2.46-.12-4.9-.61-7.35-.91-3.67-.45-7.33-1.05-11-1.26-5.22-.3-10.46-.18-15.68-.5-2.93-.19-5.82-1.08-8.76-1.37-4-.39-8.11-.49-12.16-.73-2-.11-3.93-.31-5.9-.35-.73 0-1.46.47-2.19.47-5.1 0-10.21.74-15.28-.62a22.24 22.24 0 0 0-4.71-.26l-16.63-.73c-3.45-.16-6.91-.18-10.35-.5-3.68-.34-7.35-.88-11-1.51-2.92-.51-3.82-3.1-4.49-5.42C4.17 32.79 3.59 29 2.72 25.19c-.61-2.63-1.5-5.19-2-7.84-.41-2.11-1.35-4.29-.07-6.45.12-.21.13-.59.29-.65 3.26-1.36 4.91-5.11 9.13-5.33 4.83-.25 9.59-1.6 14.41-2.26 2.75-.38 5.55-.35 8.32-.5 6.64-.36 13.29-.7 19.93-1.1a16.08 16.08 0 0 0 3.65-.59c3.13-.92 6.16-.28 9.26.17C67.3.88 69.05.4 70.76.41c3.88 0 7.77.18 11.65.2Q89 .64 95.57.49c4-.1 8-.43 12-.45 4.26 0 8.51.31 12.77.34 5 0 10.07-.16 15.11-.12 3.3 0 6.59.39 9.89.42 4.34 0 8.68-.22 13-.19s8.74.28 13.1.35c2.59 0 5.17-.13 7.76-.13 3.29 0 6.58.11 9.87.06 1.9 0 3.81-.42 5.71-.37 2.39.07 4.76.49 7.15.63 2.83.16 5.67.22 8.51.27 5.38.11 10.77.1 16.15.29 2.5.09 5 .74 7.49.8 3.88.09 7.78-.09 11.67-.19 3.74-.1 7.49-.25 11.23-.38 2.16-.08 4.32-.15 6.48-.29 2.41-.15 4.83-.6 7.23-.52 4.08.14 8.15.72 12.24.89 2.92.13 5.85-.2 8.78-.19 6.22 0 12.43.21 18.64.2 6.73 0 13.45-.28 20.17-.27 4.44 0 8.87.39 13.31.5 3.08.07 6.16-.06 9.24-.05 2.15 0 4.32.24 6.46.1 4.1-.27 8.15-.57 12.24.42 1.45.36 3.15-.46 4.73-.4a145.16 145.16 0 0 1 15.06 1c3.2.48 6.27 0 9.41.09 4.11.09 8.23.24 12.35.3 5.92.1 11.86 0 17.78.24 4.13.13 8.25.55 12.37.84 4.71.32 9.41.68 14.12 1 3.85.21 7.7.38 11.55.47 4.37.11 8.75 0 13.12.17 3.25.13 6.5.61 9.75.81 2.45.15 4.92.05 7.37.15 2.94.12 5.88.39 8.83.48a32.64 32.64 0 0 0 5.85-.16 25.71 25.71 0 0 1 10.3.18c2.07.51 4.3.31 6.39.74 1.85.39 3.86-.23 5.57 1.33 1.24 1.14 3.14 1.53 4.47 2.6a5.63 5.63 0 0 1 1.34 2.9c.87 3.32 1.77 6.65 2.38 10a37.26 37.26 0 0 1 .26 6.08c0 1.77 0 3.54-.06 5.31-.18 3.41.76 7-1 10.19A7 7 0 0 1 542 49a11.48 11.48 0 0 1-6.16 2.62c-2.25.23-4.44 1-6.68 1.35-3.6.54-7.23.92-10.84 1.35-.3 0-.74.09-.9-.07-1.54-1.54-3.37-.75-5.11-.72s-3.68 0-5.52.05c-3.44.09-6.88.2-10.32.35-5.48.24-11 .51-16.44.78a67.44 67.44 0 0 0-7.39.51c-.89.14-1.63 1.25-2.45 1.92zm59.56-32.33c-1 0-1.7-.05-2.41 0-3.15.24-6.29.66-9.43.73-4 .1-8.09 0-12.13-.11-3.51-.07-7-.11-10.53-.36-1.6-.11-3.23-1.32-4.6.53-.12.16-.6.05-.9.08-4.11.36-8.21.75-12.31 1.06-3.07.23-6.15.5-9.22.46-2.64 0-5.26-.55-7.9-.75a9.53 9.53 0 0 0-2 .39c-1.47.24-2.95.49-4.44.64-.72.07-1.48-.17-2.21-.13-3.44.19-6.88.51-10.33.65s-6.63.22-9.94.16q-4.32-.09-8.63-.54c-2.85-.29-5.69-.83-8.54-1.18-1.22-.14-2.46-.06-3.69-.09-4.11-.08-8.22-.33-12.33-.21-4.42.14-8.83.68-13.25.95-1.29.07-2.6-.27-3.9-.26-3.11 0-6.23.28-9.33.15-4.15-.17-8.28-.77-12.43-.91-7.27-.24-14.55-.24-21.82-.41-4.06-.1-8.11-.5-12.16-.52s-8.26.26-12.39.41c-2.65.1-5.3.17-7.95.3-3.88.2-7.75.58-11.63.63-6.21.07-12.43-.08-18.65-.1-4.63 0-9.31.47-13.86-.1-4.15-.52-8.15.21-12.22.2-3.78 0-7.56.5-11.32.37-6.78-.23-13.56-.78-20.34-1.18-3.32-.19-6.64-.3-10-.53-1.14-.08-2.25-.53-3.39-.59-2.54-.13-5.1-.06-7.64-.17-5.89-.26-11.78-.65-17.67-.87q-11.37-.41-22.75-.62c-6.23-.13-12.46-.12-18.69-.21-5.13-.08-10.26-.24-15.38-.33-1.24 0-2.47.2-3.71.17-4.5-.13-9-.4-13.51-.45-5.56-.06-11.12.21-16.67 0-4.78-.15-9.54-.8-14.31-1.13-5.66-.4-11.32-.68-17-1-2.65-.17-5.29-.46-7.94-.56a74.91 74.91 0 0 0-7.93 0c-2.33.17-4.49-.77-6.93-.44-3.39.47-6.91.13-10.37 0-4.9-.18-9.81-.48-14.71-.76-1.48-.09-1.93.58-1.56 1.92.26.95.64 1.87.89 2.82 1 3.63 1.83 7.29 2.86 10.89A4.71 4.71 0 0 0 14.43 37c2.59.46 5.23.67 7.85 1 1.39.16 2.79.25 4.18.37s2.78.38 4.17.39c3.82 0 7.65-.19 11.46 0 3.42.19 6.81 1 10.23 1.21a122.58 122.58 0 0 0 12.86-.14c3.13-.19 6.32.9 9.4-.43a2.62 2.62 0 0 1 1.28-.06c2.78.34 5.54.77 8.32 1.06 3.64.37 7.29.62 10.92 1 5 .48 10.06 1.07 15.1 1.5 5.81.5 11.64.9 17.46 1.29 4.17.28 8.35.49 12.53.71 3 .15 5.92.21 8.87.42 4.18.3 8.35.88 12.53 1 5 .15 10-.12 15-.09 2.58 0 5.17.38 7.76.42 1.58 0 3.16-.41 4.74-.43 3.07 0 6.14.12 9.22.15 6.1 0 12.21-.07 18.3.14 6.41.22 12.8.82 19.21 1.13 5.84.28 11.69.43 17.54.58 6.32.17 12.63.27 18.95.41 1.35 0 2.71 0 4.07.08 4.36.27 8.73.82 13.09.82 3.85 0 7.69-.71 11.54-.88 3.24-.15 6.5 0 9.75.08 2.81.1 5.61.49 8.42.51 3.13 0 6.25-.35 9.38-.34 3.8 0 7.61.24 11.41.4 2.89.12 5.78.25 8.67.42 4.76.29 9.51.77 14.27.89q9.7.26 19.43.05c6.17-.14 12.37-.28 18.51-.94a52.66 52.66 0 0 1 10.72-.19c1.89.17 3.8.29 5.7.28 3.58 0 7.16-.21 10.73-.21 2.19 0 4.37.31 6.56.36 4.33.09 8.67.13 13 .15h9.07c2.65 0 5.31 0 8 .12s5 .34 7.49.2c2.07-.12 4.1-.91 6.17-1 3.63-.22 7.29 0 10.92-.26 7.13-.56 14.24-1.35 21.36-2a4.2 4.2 0 0 1 1.11.09c3.64.72 7.26 0 10.88-.23a3.38 3.38 0 0 0 1.7-.89c1.54-1.33 3.85-1.73 4.88-.62 1.49 1.59 3.07 2.12 5.18 1.19s3.83-1.94 3.68-4.71a24 24 0 0 1 .38-4.55c.68-4.44 0-8.79-.6-13.16 0-.13-.26-.23-.59-.5-1.62 1.67-3.28 3.27-4.8 5-.78.89-1.21 1.07-2.22.21-1.54-1.29-.75-2.74-.38-4.56zM9.12 12a7.17 7.17 0 0 0 1.6.56c2.2.12 4.4.22 6.6.24 3 0 6-.13 9 0 4 .12 8 .48 12 .62 5 .17 10.07.21 15.11.35 3 .08 6 .21 9 .39s6.13.5 9.2.66c3.93.21 7.86.33 11.8.46 5.79.21 11.58.45 17.38.59 5.25.12 10.5.08 15.75.19 4.68.09 9.35.29 14 .4 3.81.09 7.62.07 11.42.17 6.52.17 13 .39 19.56.59 6.33.2 12.66.36 19 .6 5.53.21 11.06.53 16.59.78 3.26.14 6.53.13 9.78.36 2.93.21 5.82.84 8.75.94 4.6.17 9.21 0 13.82.07 3.58.05 7.15.35 10.73.34 3.81 0 7.62-.27 11.44-.35 3.45-.08 6.9-.05 10.35-.06h16.42c5.19 0 10.37.08 15.55.05 4.75 0 9.5-.08 14.25-.22 2.57-.08 5.14-.45 7.71-.52C320.34 19 324.66 19 329 19c2.59 0 5.19 0 7.77.2 3.17.21 6.33.57 9.49.85.91.08 1.82.16 2.73.15 3.16-.07 6.32-.33 9.48-.24 5.35.17 10.69.6 16 .82 3.81.15 7.62.14 11.42.19h1.67c3-.22 6-.57 9-.65 4.25-.12 8.52-.09 12.78 0 3.65.05 7.3.15 10.94.37 2.63.17 5.24.75 7.87.84 4.1.15 8.21.1 12.31 0 3.89-.08 7.77-.39 11.66-.48 4.09-.09 8.19.14 12.26-.1 9.35-.55 18.69-1.33 28-1.94 4.2-.27 8.42-.4 12.63-.47 5.64-.1 11.27-.69 16.93.12 1.93.28 4-.35 6.06-.57-.3-2.31-2.08-2.31-3.37-2.55-1.67-.3-3.44 0-5.15-.16s-3.5-.72-5.27-.8c-4.8-.23-9.6.17-14.39-1-2.51-.64-5.29-.21-7.94-.23-2.48 0-4.95.09-7.42 0-1.71-.06-3.41-.48-5.12-.55-2.71-.11-5.42 0-8.12-.09-4.33-.09-8.75.87-12.89-1.2-.14-.07-.36 0-.53 0a60.53 60.53 0 0 1-6.7.41c-4.1-.19-8.19-.64-12.28-1-5-.43-10.06-.87-15.09-1.26-.76-.06-1.54.21-2.3.17-2.55-.13-5.1-.46-7.65-.49-3.11 0-6.23.32-9.34.2-3.74-.14-7.46-.78-11.2-.89-5.47-.16-11 .1-16.41-.07-6.82-.2-13.62-.83-20.44-1-5.74-.11-11.48.33-17.22.37-4 0-8-.2-12-.36-2.65-.1-5.3-.44-7.94-.39-6.77.14-13.54.58-20.31.62-8 0-16-.2-24-.34L251.65 7a4.74 4.74 0 0 0-.92.13c-1.46.31-2.9.73-4.37.92A28.31 28.31 0 0 1 243 8c-3.95 0-7.91.22-11.85 0-2.62-.12-5.25-1.29-7.81-1.1-5 .37-9.91-1.57-15-.35-2.49.59-5.35-.34-8-.57-2-.17-3.94-.47-5.9-.46-2.75 0-5.49.36-8.23.4s-5.34-.19-8-.16c-2.95 0-5.9.29-8.85.36-3.19.06-6.38 0-9.58 0-4.08 0-8.16 0-12.24-.08-4.36-.12-8.72-.58-13.09-.58-5.18 0-10.36.49-15.53.47-3.83 0-7.65-.74-11.47-.76-5.28 0-10.57.38-15.85.53-3.56.11-7.13.17-10.69.1-2.18 0-4.36-.52-6.53-.48-3.42.06-6.83.42-10.25.6-4.06.22-8.13.37-12.2.56-3.07.15-6.15.51-9.21.42A85.82 85.82 0 0 0 25 8.16c-3.21.57-6.48.76-9.71 1.24-2.09.32-4.29.43-6.17 2.6zm258 445.25.52-.07c.48-5.26 1.05-10.52 1.42-15.79.26-3.62.16-7.26.37-10.88.33-5.54.88-11.07 1.17-16.61.32-6 .41-12.1.69-18.15.16-3.33.54-6.65.76-10 .17-2.7.25-5.41.33-8.12.11-3.39.16-6.78.26-10.18.15-5.66.2-11.33.51-17 .23-4.07 1-8.1 1.21-12.17.29-6.22.24-12.46.44-18.69.14-4.56.48-9.12.66-13.68.11-2.9 0-5.81.14-8.71.41-7.78 1-15.55 1.34-23.33.25-6 .19-12 .28-18 .12-8.41.21-16.81.41-25.21.09-4.07.31-8.14.62-12.2.57-7.51 1.23-15 1.9-22.53q.92-10.1 1.94-20.19c.61-6.15 1.27-12.29 1.92-18.43.37-3.5.74-7 1.13-10.5a10.49 10.49 0 0 0-1.74-7.67 7.82 7.82 0 0 1-.77-1.46c-1.17-2.69-2.21-5.43-3.51-8.05-1.39-2.81-3.11-5.44-4.49-8.24a3.42 3.42 0 0 0-5.62-1c-1.94 1.78-2.82 4.18-4.11 6.36-1.71 2.89-3.21 5.68-1.83 9.15a3.7 3.7 0 0 1 0 1.29c-.13 6.54-.31 13.08-.36 19.63 0 2.72.38 5.44.34 8.16-.09 5.92-.42 11.84-.5 17.77-.09 6.14.05 12.29 0 18.43-.07 6.42-.15 12.85-.42 19.26-.21 5.12-.82 10.23-1.05 15.35q-.6 13-.92 26.1c-.07 3.25.22 6.51.35 9.76.21 5.18.95 10.41.52 15.53-.56 6.75.4 13.39.51 20.08 0 3.14.32 6.28.45 9.42.06 1.29-.07 2.6 0 3.88.45 5.28 1.09 10.54 1.39 15.82.19 3.43-.21 6.89-.16 10.33.1 6.79.34 13.57.48 20.35 0 1.85-.14 3.7-.1 5.55.16 7.68.39 15.36.56 23 .1 4.43.07 8.86.21 13.29s.36 9.12.62 13.68c.14 2.51.8 5.05.57 7.52a93.79 93.79 0 0 0 .33 19.32c.34 2.65.82 5.21 1.22 7.79zm12.16-113 .59.32a9.2 9.2 0 0 0 1.55-2c.74-1.85 1.71-3.73.66-5.83-.13-.25.15-.7.2-1.07.38-2.86.86-5.71 1.09-8.58.24-3.12.11-6.26.37-9.37.33-4 .94-8 1.34-12 .64-6.51 1.18-13 1.82-19.53.35-3.56.9-7.09 1.21-10.65.35-4 .57-8 .79-12 .14-2.64.19-5.29.25-7.94.08-3.07.08-6.15.2-9.22.09-2.39.54-4.79.42-7.17a56 56 0 0 1 1-14.73 24 24 0 0 0 .44-3.69q.35-5.81.62-11.62c.17-3.46.29-6.91.42-10.37.1-2.67.13-5.35.31-8 .23-3.26.64-6.5.88-9.76.19-2.63.13-5.28.38-7.91.29-3.06.89-6.1 1.2-9.16.39-3.74-1.9-6.54-3.55-9.63a14.15 14.15 0 0 0-1.26 4.07c-.43 3.71-.67 7.45-1.07 11.17-.22 2.07-.69 4.12-.87 6.19-.42 4.83-.64 9.67-1.11 14.49-.71 7.25-1.57 14.48-2.35 21.73-.17 1.59-.35 3.2-.43 4.8-.21 4.36-.38 8.72-.54 13.08-.12 3-.21 5.94-.29 8.9-.09 3.5-.12 7-.24 10.48-.17 5.05-.47 10.09-.6 15.13-.07 2.78.21 5.56.11 8.34-.15 4.34-.52 8.68-.72 13-.24 5.28-.37 10.56-.62 15.83-.27 5.79-.61 11.57-.94 17.35q-.68 11.93-1.37 23.85a11.78 11.78 0 0 0 .1 1.5zm8.27-221.88A37.78 37.78 0 0 0 287 118c-.46-2.09-1.63-2.49-3.4-1.35-.56.36-1 .91-1.6 1.22-1.22.64-1.24 1.38-.68 2.56 1.35 2.83 2.52 5.74 3.82 8.6a6.12 6.12 0 0 0 1 1.23c.33-.46.89-.89 1-1.38.17-1.88.23-3.83.4-6.51zm-13.49-8.55c0-.22 0-.44-.05-.65a7.9 7.9 0 0 0-1.3-.31c-1.78-.1-3.57-.07-5.34-.25-4.6-.47-4-.56-3.94 3.82 0 .61.55 1.22.84 1.82a6.59 6.59 0 0 0 1.57-1.32 4.38 4.38 0 0 1 4.22-2.39 16.69 16.69 0 0 0 3.99-.72z" fill="#9e5b5d" data-color="1"/>
    </g>
</svg>
