<?xml version="1.0" encoding="UTF-8"?>
<svg data-bbox="-0.002 0.009 372.027 1319.193" viewBox="0 0 371.96 1319.29" xmlns="http://www.w3.org/2000/svg" data-type="color">
    <g>
        <path d="M.94 1283.36c-.09-1.82-.28-3.86-.28-5.9 0-3.46.17-6.92.15-10.38 0-3.31-.22-6.62-.31-9.93a4.88 4.88 0 0 1 .16-1.57c1.58-5.07 1.07-10.07-.57-15-.56-1.73 1.52-5.74 3.67-6.93 3.39-1.87 7-3.45 10.08-5.76 4.42-3.32 9.51-3.93 14.63-4.48 8.76-.94 17.55-1.54 26.32-2.39 12.22-1.18 24.42-2.59 36.65-3.64 6.8-.58 13.65-.52 20.47-1 4.59-.29 9.15-1.13 13.74-1.36 5.35-.26 10.72 0 16.07-.21 3.21-.12 6.39-.69 9.59-1 2.9-.25 5.82-.32 8.72-.58 1.81-.16 3.6-.62 5.42-.78 1-.09 2 .28 2.91.23a12.92 12.92 0 0 0 2.56-.57c.12 0 .19-.32.29-.33 3.51-.21 1.7-2.18 1.49-3.91a9 9 0 0 1 .75-4.59 11.52 11.52 0 0 0 .48-8.92 4.74 4.74 0 0 1 .18-3.28c1.26-2.48.2-4.93.28-7.38.16-5 .19-9.93.15-14.89-.07-8-.15-15.93-.42-23.89-.13-3.89-.77-7.76-1-11.65-.13-1.88.19-3.78.14-5.66-.27-8.88-.68-17.76-.87-26.65-.09-3.71.39-7.44.34-11.15s-.49-7.34-.62-11c-.14-4-.12-7.94-.16-11.92 0-2.6-.08-5.21 0-7.81.1-5.26.33-10.52.4-15.78 0-4.44-.16-8.89-.05-13.33.17-6.2.68-12.38.74-18.58 0-4-.71-8.06-.67-12.08.05-5.18.61-10.35.81-15.53.09-2.44-.18-4.89-.23-7.33-.1-4.32-.34-8.64-.21-13 .21-6.6.79-13.18 1-19.78.18-5.77 0-11.55.09-17.32 0-3.11.34-6.23.38-9.34s-.17-6.28-.16-9.42.18-6.27.23-9.41c.1-5.82.05-11.65.28-17.46.12-2.92.72-5.82 1.09-8.73a6.09 6.09 0 0 0 0-1.13c-.28-3.24-.71-6.48-.82-9.73-.1-2.79.24-5.6.23-8.4 0-9.24-.95-18.49.67-27.7.15-.84-.34-1.77-.37-2.66-.28-7.55-.63-15.11-.73-22.67 0-3.2.61-6.4.62-9.6 0-2.51-.64-5-.72-7.55-.29-8.19-1.28-16.36-.12-24.58.44-3.12-.24-6.39 0-9.57s.84-6.37 1.28-9.55c0-.37.18-.85 0-1.1-1.79-2.54-.7-5.34-.75-8 0-3.15.15-6.29.24-9.44.12-4.35.29-8.7.36-13 .14-7.46.15-14.92.34-22.38.11-4 .47-7.92.71-11.87a3.4 3.4 0 0 0 0-1.15c-1.15-4-.4-8-.19-12.09.16-3-.27-6.1-.32-9.16-.12-7.79-.27-15.59-.21-23.38 0-3.14.61-6.26.82-9.4.27-3.91.4-7.83.62-11.75.35-6.08.67-12.17 1.12-18.24q.91-12.64 2-25.25c.28-3.17.83-6.32 1.25-9.48a6.1 6.1 0 0 0 0-1.13 40.07 40.07 0 0 1-.3-6.36c.67-6.15 1.63-12.27 2.37-18.41.18-1.42-.13-2.9-.09-4.34.15-4.66.38-9.32.55-14a65.26 65.26 0 0 0 .15-7.26c-.22-2.74.76-5.22 1.12-7.79.45-3.16-.48-6.5-.81-9.77-.55-5.39-1.15-10.77-1.62-16.17-.64-7.37-.87-14.79-1.88-22.11a154.36 154.36 0 0 1-1.32-19.67c0-2.35.67-4.9 0-7-1.65-4.86-.09-9.73-.72-14.57a19.5 19.5 0 0 1 .54-6.87 59.61 59.61 0 0 0 1.39-13.91c0-3.35.9-6.69 1-10.05.21-6.13 2.08-12.3-.42-18.38a8 8 0 0 1-.19-2.52c-.13-2.42-1.05-3.27-3.54-3.21-5.05.1-10.1.27-15.15.3-5.83 0-11.67-.13-17.5-.06-7.44.08-14.88.37-22.32.48-4.54.07-9.09-.12-13.63 0-2 .05-4.08.72-6.12.75-8 .12-15.93.25-23.89.05-2.61-.07-5.2-1.1-7.78-1.72a13.46 13.46 0 0 0-3.08-.87c-2.6 0-4.52-.7-5-3.6a11.57 11.57 0 0 1-1.66.25c-4.85.05-7-2.61-6.24-7.38a54.63 54.63 0 0 0 .75-9.54 49.66 49.66 0 0 1 .38-10.61c.74-3.89.68-7.94 1-11.92.47-6.39 1-12.78 1.4-19.18.16-2.87-.26-5.77 0-8.63.28-3.65 1.08-7.25 1.4-10.9.47-5.25.69-10.52 1.05-15.78s.74-10.71 1.21-16.05c.53-5.89 1.18-11.76 1.78-17.64.69-6.78 1.18-13.6 2.16-20.34.64-4.37 2.11-8.61 3-12.94 1.38-6.5 2.53-13.05 3.94-19.54 1-4.86 2.36-9.67 3.56-14.51a6.4 6.4 0 0 0 .4-1.56c-.13-6.88 3.41-13 4-19.77a47.29 47.29 0 0 0 .21-5.45c-.11-3.33 1-6.32 2.18-9.34a14.19 14.19 0 0 0 .75-3.56 61.49 61.49 0 0 1 .57-6.42c1.1-4.86 2.57-9.62 3.66-14.48a20.19 20.19 0 0 0 .55-8.33 15 15 0 0 1 .91-7.21 9.52 9.52 0 0 0 .47-6.23c-.66-2.43.19-5.3.55-8 .52-3.92 1.17-7.83 1.8-11.73 1-5.93 2-11.85 2.92-17.79.43-2.63.32-5.43 1.19-7.91a37.32 37.32 0 0 0 1.6-14.55c-.26-5 3-6.79 7.84-5.69 3.35.76 6.93.65 10.42.69 3.66 0 7.33-.17 11-.3 1.74-.06 3.48-.27 5.23-.27 5 0 9.9.07 14.85.11 4.36 0 8.72 0 13.08.1 5.53.11 11.05.47 16.57.43 6.73 0 13.45-.38 20.17-.6 5.5-.19 11-.31 16.51-.61 6.4-.36 12.7-.86 19.05-1.34a86.44 86.44 0 0 1 18 .06c3.18.43 6.49-.17 9.73 0 7.25.35 14.5.87 21.74 1.33 2.36.15 4.72.31 7.06.57a5.59 5.59 0 0 1 2.33.81c1.57 1 4 7.11 4.11 9 .12 3.25.41 6.51.8 9.76.6 5.08 1.21 10.17 2 15.23 1.78 11 3.74 21.89 5.52 32.85.53 3.25.59 6.57 1.09 9.82.73 4.7 1.7 9.36 2.5 14q1.53 8.91 2.92 17.82c.77 5 1.57 10 2.11 15.08 1 9.07 1.67 18.18 2.67 27.25.64 5.88 1.44 11.75 2.46 17.57 1.35 7.7 3.18 15.31 4.43 23 1.05 6.43 1.56 13 2.32 19.44.67 5.71 1.44 11.42 2 17.15.72 7.4.79 14.91 2 22.22 1.5 8.79 2.17 17.61 2.84 26.46.1 1.37.46 2.73.55 4.1.15 2.26.19 4.53.25 6.8.13 5.21.35 10.43.34 15.64 0 5.59-.41 11.17-.35 16.75 0 3.58.63 7.15.86 10.73.09 1.27-.22 2.56-.24 3.84a22.05 22.05 0 0 0 .13 4.07c.33 2 .22 3.48-1.59 4.82-2.77 2-5.17 4.6-8 6.54-1.18.81-3.06.81-4.62.8-4.28-.06-8.55-.42-12.83-.42-1.39 0-2.76 1.05-4.17 1.11-2.93.12-5.88-.16-8.82-.15-3.91 0-7.81.23-11.71.2-2.75 0-5.49-.37-8.24-.44-9.42-.23-18.82.37-28.22.94-4.77.29-9.61-.69-14.42-.85-5.42-.18-10.53-3-16.09-1.73l-.91.18c-.5 3.48-1.12 6.78-1.39 10.11-.22 2.72 0 5.48 0 8.22-.07 3.05-.26 6.1-.39 9.16-.18 4.44-.32 8.89-.54 13.33-.17 3.52-.5 7-.64 10.56-.12 3.19-.15 6.4-.08 9.6s.48 6.53.44 9.79c0 3.09-.54 6.17-.67 9.26-.12 2.74 0 5.49 0 8.23 0 1.29-.24 2.58-.2 3.87.19 5.11.48 10.21.67 15.32.1 2.9 0 5.8.1 8.69 0 2.6.26 5.19.23 7.78-.06 6.41-.26 12.81-.31 19.21 0 3.26.3 6.52.21 9.78-.11 4.36-.48 8.72-.69 13.08-.09 2.06 0 4.13-.1 6.19a85.45 85.45 0 0 1-.73 10 114.11 114.11 0 0 0-1.07 14.41c-.15 3.14-.94 6.24-1.26 9.38a36.7 36.7 0 0 0 .24 4.3v6.57c-.12 3.54-.32 7.08-.48 10.62-.17 3.89-.39 7.79-.46 11.68-.07 4.66.06 9.31 0 14-.07 5.28.34 10.67-.54 15.83s-.19 10.39-.73 15.57c-.85 8.09-1.13 16.25-1.4 24.39-.2 6.33.07 12.67 0 19-.07 4.86-.49 9.71-.56 14.57 0 2.72.46 5.45.42 8.17-.06 4.25-.44 8.5-.55 12.76-.12 4.64-.31 9.31 0 13.94a102.54 102.54 0 0 1 .07 13c-.12 1.72.68 3.48.63 5.21-.06 2.1-.8 4.17-.86 6.27-.17 5.46-.06 10.93-.19 16.39-.12 4.66-.53 9.31-.6 14-.05 2.52.41 5 .5 7.57.16 4.24.2 8.49.31 12.74.08 2.85.25 5.7.28 8.56 0 2.06-.17 4.13-.16 6.2 0 2.51.2 5 .18 7.53-.06 6.94-.22 13.87-.26 20.81 0 3.88.07 7.77.14 11.65.1 6 1.19 12-.11 18.11-.6 2.8-.38 5.79-.42 8.69q-.19 11.8-.29 23.62c0 6.27 0 12.53-.08 18.79 0 2.44-.56 4.87-.62 7.3-.1 3.89.11 7.78 0 11.66-.09 3.18-.65 6.35-.68 9.52 0 2.19.76 4.39.73 6.58-.06 4.14-.47 8.28-.7 12.42-.11 1.89-.16 3.79-.17 5.68 0 1.07.21 2.15.17 3.22-.11 3.17-.41 6.35-.44 9.52-.06 6.45-.09 12.89.09 19.33.12 4.36.64 8.7.93 13 .08 1.15-.05 2.3 0 3.45.15 3 .45 5.93.49 8.9 0 3.51-.18 7-.15 10.53 0 2.58.34 5.17.38 7.75.09 6.57.17 13.14.13 19.71 0 5.24-.23 10.48-.41 15.72-.2 5.81-.63 11.62-.67 17.43-.06 7 .16 14.07.31 21.11.09 4.53.64 9.1.29 13.6-.34 4.27.31 8.33.79 12.51s-.27 8.29-.07 12.43c.28 5.73 1.08 11.42 1.41 17.15.25 4.28 0 8.58.15 12.87.12 3.81.44 7.62.68 11.42.09 1.39.6 1.72 2.19 1.76 6.49.14 13 .65 19.47 1 1.36.08 2.72.15 4.08.24l25.23 1.73c6.71.46 13.43.76 20.11 1.43 5 .5 10 1.47 15 2.23l16.38 2.49c3.15.49 6.27 1.19 9.44 1.46 3.57.31 7.18.14 10.76.35 2.82.17 5.63.56 8.43.93 3 .41 6.07.93 9.1 1.39 4.75.73 9.53 1.29 14.24 2.21a18.42 18.42 0 0 1 11.22 7.4c.8 1.06 1.43 2.37.12 3.72a2.81 2.81 0 0 0-.79 2.06c.77 4.9-1.62 9.21-2.49 13.79-.94 4.95-2.92 9.76-3.39 14.73s-2.23 9.8-2.8 14.78c-.29 2.54 0 5.16-.43 7.69a23.73 23.73 0 0 1-1.95 5.39c-.83 1.91-2.05 3.69-2.66 5.66a5.18 5.18 0 0 1-4.89 4 1.62 1.62 0 0 0-.88.18c-2.47 2.24-5.76 2.31-8.71 3.22-1.55.47-3.32.17-5 .46-4.64.82-9.23 2.3-13.89 2.51-5.53.24-10.91 1.67-16.58 1.12-4.83-.47-9.78.48-14.69.65-4 .14-8.05 0-12.08.07-1.71 0-3.43.06-5.14.22-8.15.72-16.28 1.61-24.44 2.17-3 .21-6.09-.42-9.15-.48-5.46-.12-10.94 0-16.41-.15a24.19 24.19 0 0 1-6.15-.58c-6.11-1.73-12.33-1-18.49-1a159.49 159.49 0 0 1-18.29-.65c-3.07-.32-6.25.19-9.3-.23-3.48-.48-6.85-1.71-10.31-2.36-3.3-.62-6.68-.84-10-1.38-2.68-.44-5.33-1.07-8-1.65-2-.44-4-1-6-1.4-4.6-.81-9.21-1.7-13.85-2.2-5.17-.55-10.39-.65-15.57-1.06-4.6-.36-9.19-.9-13.79-1.34-.52 0-1.05.06-1.58 0-1.89-.07-3.77-.17-5.66-.27-3.12-.16-6.23-.43-9.35-.47-7.78-.1-15.52-.48-23.1-2.48-2.72-.72-5.51-1.21-8.29-1.73-.47-.09-1 .25-1.54.31a14.15 14.15 0 0 1-3.58.34c-4-.54-7.91-1.37-11.89-1.9-6.45-.85-12.73-2.28-18.41-5.58-2.61-1.52-5.07-3.27-7.58-5a2.89 2.89 0 0 1-.71-.9zm322.5-938.52c.94-2.1 2.19-3.84 2.46-5.73a116.12 116.12 0 0 0 1.1-13.31c.15-5.71 0-11.43-.08-17.14 0-2.51-.21-5-.14-7.53.07-2.75.61-5.51.48-8.24-.37-7.69-.82-15.38-1.54-23-.48-5.16-1.64-10.25-2.22-15.4a173.54 173.54 0 0 1-1.4-17.46c-.09-9.35-1.5-18.51-2.83-27.71-.9-6.22-1.47-12.48-2.11-18.74-.24-2.42-.07-4.91-.49-7.3-.31-1.75-1.47-3.35-1.91-5.1-1-4.09-2.06-8.2-2.69-12.36-.56-3.62-.49-7.33-.85-11q-1-10.18-2.18-20.37c-1-8.46-1.87-16.94-3.12-25.36-1.1-7.36-2.85-14.61-3.94-22-1.65-11.13-3-22.3-5.4-33.3-1.16-5.23-2-10.55-2.82-15.85-1.22-7.71-2.34-15.45-3.48-23.17a5.92 5.92 0 0 0-3.8-4.8c-3.42-1.19-7.1-1.61-10.67-2.35h-.23c-2.18.11-4.38.39-6.56.3-4.88-.2-9.74-.78-14.61-.82-3.68 0-7.3.73-11.05.61-5.92-.18-11.87.46-17.8.72-2.75.12-5.49.15-8.23.25-3.42.13-6.85.24-10.26.45-3 .19-5.92.58-8.89.74s-5.78 0-8.65.22c-2.26.18-4.48.86-6.74 1a38 38 0 0 1-4.33-.42c-1.74-.08-4.18 1.59-4 3a13.27 13.27 0 0 1-2.15 8.49 4.75 4.75 0 0 0-.44 1.54c-.73 3.43-1.38 6.88-2.16 10.29-.47 2-1.25 4-1.69 6-1.11 5.08-2.11 10.18-3.15 15.27-.34 1.65-.71 3.29-1 4.94-.92 5.11-1.67 10.26-2.75 15.33-.63 3-1.91 5.76-2.63 8.69-.84 3.42-1.28 6.94-2.1 10.38-.88 3.71-2 7.36-3 11.07a17.53 17.53 0 0 0-.25 3.25l.78.26c.71-1.28 1.52-2.51 2.12-3.84 1.64-3.65 2.86-7.54 4.84-11 3.71-6.45 9-11.71 14.05-17.11a2.28 2.28 0 0 1 1.25-.46c1.81-.3 3.62-.62 5.45-.82 2.38-.26 4.59 0 6.19 2.16a6.84 6.84 0 0 0 1.55 1.38c4 2.92 7.11 6.61 8.43 11.43 1.7 6.19 3.19 12.46 4.54 18.74 1.45 6.83 2.69 13.7 3.91 20.57.44 2.48.16 5.13.87 7.5a30.78 30.78 0 0 1 1.11 10.57 44.13 44.13 0 0 0-.06 5.27c.39 5.42 1 10.82 1.28 16.24.28 6.42.34 12.85.32 19.28s-.24 12.74-.37 19.1c-.05 2.45-.14 4.89-.11 7.33.06 4 .88 8 .15 11.83-1.54 7.94-.6 15.91-1.17 23.85-.51 7.17.56 14.44.68 21.67.08 4.35-.39 8.72-.49 13.08a48.64 48.64 0 0 0 .2 9.51 49.39 49.39 0 0 1 .82 13.68 163.41 163.41 0 0 0-.77 16.85c0 2.69.15 5.31-.79 7.89a2 2 0 0 0 .07 1.55c1.7 2.52.93 5.38.87 8s1.28 2.73 3 2.92c4.16.44 8.31.95 12.48 1.25 4.88.35 9.78.53 14.67.73 2.57.1 5.15.18 7.72.11 1.42 0 2.82-.54 4.24-.58 3.65-.09 7.31-.07 11 0 3.15 0 6.17-1 9.45-.4s6.83.26 10.25.16q7.75-.23 15.51-.7c4.71-.3 9.42-.78 14.13-1.17 3.95-.29 7.96-.59 12.13-.91zM14.52 1284.19c.34 2.33 2 3.18 3.9 3.78 3.57 1.15 7.12 2.4 10.75 3.33a57.27 57.27 0 0 0 10.42 2c2.62.15 5.13.22 7.52 1.44a5.18 5.18 0 0 0 2 .36c3.56.16 7.13.27 10.69.43 1.21 0 2.43.15 3.64.32 4.8.68 9.59 1.55 14.42 2 6.11.63 12.25.88 18.37 1.41s12.5 1.28 18.76 1.84 12.55.91 18.8 1.57c3.84.4 7.68 1.06 11.47 1.84 4 .82 7.93 2.12 12 2.85 4.81.88 9.69 1.36 14.53 2.07 1.65.24 3.27.86 4.93 1 3.52.29 7.05.42 10.58.54 1.21 0 2.43-.28 3.63-.2 2.58.18 5.15.7 7.73.75 5.2.1 10.41-.13 15.61 0 4.94.13 9.87.61 14.81.85 8.94.44 17.88.83 26.82 1.22a10.75 10.75 0 0 0 1.38-.14c3.28-.3 6.56-.66 9.84-.88 6.43-.44 12.85-.79 19.28-1.22 3.6-.23 7.19-.6 10.79-.8 7.74-.43 15.55-.27 23.2-1.31 8.86-1.2 17.61-3.31 26.35-5.26 2.51-.55 5.06-1.46 5.57-4.85.31-2.06 1.73-3.93 2.12-6 .94-5 1.37-10.15 2.38-15.16 1.21-6.09 2.94-12.08 4.18-18.17a63.33 63.33 0 0 0 1-9.92c.06-1.1-.72-2.25-1.12-3.37-1.22.51-2.43 1-3.66 1.53a47.79 47.79 0 0 1-5.19 2c-1.27.36-2.7.14-4 .37-4.74.83-9.4 2.23-14.3 2a13.22 13.22 0 0 0-4.35 0c-6.52 1.93-13.08 3-19.93 2.23-2.39-.27-5.19-.29-7.23.73a9.34 9.34 0 0 1-5.89.87c-2.46-.38-4.82-.54-7.07.88-.38.24-1 0-1.57 0a38.92 38.92 0 0 0-5.69-.27c-3.59.36-7.15 1.16-10.75 1.49a64.76 64.76 0 0 1-7.37 0c-7.52-.17-15.05.89-22.57 0a1.34 1.34 0 0 0-.88.22c-2.92 2.26-6.43 1.72-9.72 1.86-4.19.17-8.4-.07-12.6-.16-2.67 0-5.36 0-8-.27-3.44-.39-6.82-1-10.15.6a3.9 3.9 0 0 1-2 .05c-2.94-.33-5.87-.82-8.82-1-2.09-.16-4.27.33-6.3 0-4.07-.73-8-1.52-12.1.08-1.88.72-4.24.32-6.37.2-4.6-.25-9-1.67-13.79-1.27a108.2 108.2 0 0 1-17.36-.07c-11.07-.87-22.12-1.65-33.22-1a3.46 3.46 0 0 1-1.56-.28 40.89 40.89 0 0 0-16.77-3.34 28 28 0 0 1-7.29-1 84.62 84.62 0 0 0-21.27-3.5c-3.62-.05-7.21-1.14-10.84-1.59-4.76-.59-9.53-1.14-14.32-1.49a62.85 62.85 0 0 1-16.75-3.74c-.52-.19-1.53-.27-1.66 0a4.48 4.48 0 0 0-.35 2.11c0 1 .28 1.92.25 2.87-.17 4.54-.46 9.08-.58 13.62-.09 3.21 0 6.43.07 9.64a22.82 22.82 0 0 0 .21 4.54c.43 1.94 1.41 3.75 1.82 5.68s1.36 3.15 3.57 3.09zm186.67-938.91c.13-2.79.33-5.81.4-8.84.06-3.19-.93-6.17.27-9.63 1.36-3.92 1-8.44 1.29-12.71.17-2.83.21-5.68.12-8.51-.17-5.81-.59-11.61-.69-17.42-.11-6.28.09-12.57 0-18.85 0-6-.43-11.94-.29-17.9.17-7.29.95-14.56 1.09-21.85.22-12.72.15-25.45.22-38.18 0-2.69.25-5.38.15-8.07-.21-5.67-.67-11.34-.83-17-.08-2.83.46-5.66.4-8.49-.05-2.41-.85-4.82-.8-7.22a82.54 82.54 0 0 0-1.81-18c-.68-3.47-1.23-7-1.75-10.45-.22-1.48-.05-3-.33-4.49-1.06-5.55-2.28-11.07-3.35-16.62-.73-3.81-.55-7.88-3.66-10.91-.41-.4-.33-1.28-.59-1.89-.8-1.83-.73-4.66-3.23-4.85-2.94-.22-6.09-.92-8.85 1.38-1.28 1.08-3.15 1.46-4.77 2.14a13.19 13.19 0 0 0-7.17 7.33 51.34 51.34 0 0 1-2.61 5.57c-.91 1.59-2.36 2.88-3.17 4.51-3.43 6.92-6.94 13.82-10 20.92a81.66 81.66 0 0 0-4.12 13.59c-1.37 5.88-2.33 11.85-3.4 17.8-.36 2-.51 4.07-.79 6.11-.71 5.22-1.29 10.47-2.2 15.66-1.18 6.63-2.78 13.19-3.92 19.82-1.11 6.47-1.58 13.06-2.87 19.49s-3.49 12.7-4.83 19.13c-.94 4.48-.91 9.15-1.67 13.68s-2.05 8.82-2.9 13.26a91.1 91.1 0 0 0-1.6 19.21c.08 3.32-.67 6.67-1.16 10-.26 1.74-.85 3.43-1.13 5.17q-.94 6-1.7 12c-.49 3.87-.82 7.76-1.27 11.63a16.79 16.79 0 0 1-.65 3.39c-1.8 5.46-3.69 10.89-5.53 16.34-.59 1.75 0 2.33 1.85 2.3 3 0 6 .16 9.08.14 4.74 0 9.57.35 14.18-.46a63.22 63.22 0 0 1 10-.78c7-.12 14-.08 21 0 5.72.09 11.45.19 17.16.62 5.41.42 10.8 1.26 16.43 1.93zm-10.05 6c-1.65 0-2.29 1.37-2.3 4 0 3.91-.08 7.82-.37 11.7-.34 4.59-1 9.15-1.43 13.73-.4 4.1-.39 8.27-1.15 12.3s-1.72 7.89.16 11.81a1.49 1.49 0 0 1 .06.67c-.18 2.58-.45 5.15-.53 7.72-.19 5.49-.4 11-.38 16.45a66.35 66.35 0 0 0 .85 6.83q.94 8.57 1.81 17.14c.74 7.45 1.59 14.88 2.09 22.34.25 3.71-.2 7.46-.27 11.2 0 2.51.11 5 0 7.52-.09 4.36-.24 8.71-.42 13-.18 4.12-.38 8.24-.66 12.36-.08 1.17-.57 2.32-.66 3.49-.12 1.6.09 3.22-.05 4.81-.62 7.26-1.36 14.52-1.95 21.78-.49 6-.76 12-1.25 17.93-.22 2.7-.75 5.37-1.1 8.06-.38 3-1.25 6-.32 9.07a4 4 0 0 1 0 1.38c-.33 6.18-.71 12.35-1 18.53-.26 5.51-.32 11-.67 16.53-.25 4-1.12 8.07-1.21 12.11-.13 5.89.24 11.8.29 17.7.07 7.9 0 15.81 0 23.71 0 2.9.29 5.8.28 8.7 0 4.44-.23 8.87-.26 13.3 0 3 .46 6.14.07 9.13-.63 4.81.85 9.65-1 14.53-1 2.64-.17 5.93-.17 8.93v8c-.07 6.89-.18 13.79-.25 20.69 0 2.65-.09 5.3 0 8 .07 2.22.43 4.44.46 6.65.07 3.65-.13 7.3 0 10.94s.43 7.21.65 10.82v1.14c-.1 3-.34 6.1-.25 9.14.14 5 .53 9.93.77 14.9 0 1-.17 2-.21 3-.19 5.28-.5 10.56-.48 15.84 0 4.12.8 8.26.65 12.37-.28 7.61-1.06 15.2-1.51 22.8-.2 3.37-.14 6.76-.18 10.14 0 4.83 0 9.67-.16 14.5-.24 8-.69 15.94-.87 23.92-.13 5.21.07 10.42.11 15.64q.06 11.28.09 22.55v10.79c0 4.48.14 9 0 13.45 0 2.6-.64 5.19-.6 7.78.05 3.66.73 7.32.66 11-.16 8.62-.61 17.24-.93 25.86 0 .53.05 1.07.07 1.61.08 2 .28 4 .21 6-.22 5.41-.69 10.82-.8 16.24-.09 4.11.25 8.24.37 12.36.2 6.8.33 13.6.6 20.39.18 4.41.64 8.82.83 13.23.12 2.69-.13 5.39 0 8.07.14 4.42.52 8.83.64 13.24.17 5.67-.7 11.32-.1 17 .37 3.54-.22 7.17-.15 10.76.16 8.35.47 16.69.68 25 0 1.52-.25 3.06-.15 4.57.18 2.66.58 5.31.83 8 .51 5.26 1 10.53 1.47 15.8.09 1 .75 2 .48 2.8-1.52 4.45-1.07 8.82 0 13.26a27.56 27.56 0 0 1 .2 4.91 4.92 4.92 0 0 0 .32 1.94c1.13 2.16 3.09 2.34 5.25 2.09a30 30 0 0 1 4.34-.17c1.89.08 3.8.54 5.65.34.73-.07 1.78-1.43 1.86-2.28a5.18 5.18 0 0 0-1.15-3.15c-1.92-2.6-3.71-5.12-1.86-8.52.15-.28-.08-.75-.07-1.14q.17-4.58.35-9.17a47.15 47.15 0 0 0 .21-5.3c-.23-3.22-.93-6.43-1-9.65-.06-3.5.58-7 .61-10.52.06-5.42-.09-10.85-.26-16.27-.22-7.11-.57-14.21-.8-21.32-.1-3 0-6-.09-9-.1-6.48-.3-13-.29-19.43 0-3 .53-6 .58-8.93.11-5.52 0-11 .07-16.57 0-4.21.48-8.43.19-12.61a41.47 41.47 0 0 1 .77-13.34 4.68 4.68 0 0 0 .08-1.35c-.22-4.28-.47-8.56-.67-12.84-.25-5.53-.46-11.06-.71-16.6-.22-4.84-.58-9.67-.67-14.51-.07-4.09.23-8.18.25-12.27 0-6.34 0-12.69-.06-19-.05-7.32-.14-14.65-.14-22 0-4.26.14-8.52.24-12.77a16.37 16.37 0 0 1 .18-1.84c.24-1.65.6-3.29.72-5 .33-4.18.54-8.36.83-12.54.1-1.43.45-2.85.45-4.27 0-4.34-.25-8.69-.2-13 .08-7.16.32-14.32.47-21.49 0-.45-.18-.9-.18-1.36-.06-3.33-.19-6.67-.11-10 .12-5.29.57-10.58.55-15.86 0-7.26-.52-14.51-.51-21.77 0-3.73.65-7.46 1-11.19a4.25 4.25 0 0 0 0-1.38c-1.85-7.19 0-14.5-.67-21.74-.3-3.22-.11-6.48-.14-9.72 0-3.73-.08-7.46-.14-11.19-.07-4 .73-8.06-.36-12.07a10.46 10.46 0 0 1 0-2.73 30.85 30.85 0 0 0 0-4.3c-.55-4.37.24-8.59 1-12.85a21.31 21.31 0 0 0 0-5.75c-.21-2.15-.89-4.27-1-6.42-.15-4 0-8.11 0-12.17 0-3.32-.25-6.65-.16-10 .07-2.29.78-4.56.76-6.84 0-5.76-.47-11.51-.52-17.27-.06-6 .13-12 .23-18 0-2.31.14-4.62.19-6.93.08-3.58.05-7.16.22-10.73.33-6.92.77-13.84 1.18-20.77.16-2.82.47-5.63.54-8.45.08-3.36 0-6.73-.07-10.09 0-1.44-.43-2.88-.33-4.3.2-2.88.68-5.73 1-8.61s1.06-5.63.51-8.22c-1-4.8-.06-9.43.16-14.13.2-4.19.46-8.38.71-12.57.11-1.79.2-3.6.41-5.38.18-1.55.71-3.07.74-4.62.06-2.69-.23-5.4-.2-8.1 0-1.62.51-3.24.51-4.86 0-2.5-.38-5-.33-7.5 0-2.35.51-4.69.66-7 .1-1.58-.13-3.18 0-4.76.32-3.88 1-7.75 1.1-11.64.19-5.81 0-11.64.05-17.46 0-2.45-.06-4.9.06-7.35.08-1.79.62-3.58.56-5.36-.18-5-.6-10-.86-15.05-.07-1.44.22-2.9.12-4.34-.3-4.17-2.36-8.38.34-12.49.17-.26 0-.75 0-1.13-.12-6.89-2.13-13.65-1-20.69.59-3.6-.11-7.44-.39-11.16-.37-4.85 1.79-9.72-.21-14.56-.24-.56.07-1.36.17-2 .42-3.07.92-6.14 1.24-9.22a21.49 21.49 0 0 0-.41-3.13 36.77 36.77 0 0 1-.09-6.29c.47-3.69 1.41-7.32 1.86-11 .25-2-.26-4.12-.14-6.17.09-1.5.85-3 1-4.47a60.32 60.32 0 0 0 .19-8.39c-.11-1.89-.28-4.25-1.42-5.46s-3.44-1.24-5.28-1.53c-1.33-.22-2.74.1-4.09 0-1.83-.08-3.63-.38-5.49-.6zM105.44 340c1.46-1.12 2.65-1.67 2.09-3.52a5.51 5.51 0 0 1 .23-2.38c.25-1.39.58-2.78.84-4.18s.32-2.57.66-3.81c1.08-3.87 2.61-7.64 3.31-11.57 1.29-7.18 2.11-14.45 3.12-21.68.64-4.59 1.58-9.16 1.8-13.77a61.92 61.92 0 0 1 1.91-11c.89-3.87.79-8 1.31-11.93.63-4.77 1.38-9.52 2.21-14.26.77-4.34 1.73-8.65 2.58-13 .19-1 .17-2 .42-2.95.9-3.47 2.1-6.88 2.77-10.39 1.1-5.8 1.84-11.68 2.8-17.51 1.1-6.73 2.29-13.44 3.4-20.17.89-5.4 1.73-10.82 2.58-16.23.26-1.67.45-3.35.72-5 .9-5.36 1.87-10.7 2.72-16.06.79-5 1.41-10.11 2.21-15.15.73-4.7 1.6-9.37 2.41-14.06.15-.91.32-1.82.48-2.73.64-3.61 1.26-7.23 1.92-10.85a20.43 20.43 0 0 1 .65-2.41c.76-2.49 1.63-5 2.28-7.48.51-2 .57-4.07 1.18-6 1.18-3.72 2.81-7.3 3.85-11 .69-2.48.63-5.15 1-7.73.68-5.22 2.77-10.27 1.85-15.68a2.14 2.14 0 0 1 .26-1.07c1-2.34 2.28-4.6 2.87-7 2.13-8.78 4-17.63 6-26.45.6-2.65-.08-3.22-2.83-3-3.71.27-7.44.29-11.17.37-4.19.09-8.39.13-12.58.21-4.35.08-8.71.34-13 .25-4-.09-7.94-.6-11.91-.75a2.37 2.37 0 0 0-1.79 1.43 61.56 61.56 0 0 1-2.08 10.31c-1.42 5.12-1.51 10.71-1.86 16.2-.28 4.8.24 9.66-.22 14.44-.92 9.69-1.93 19.33-2.1 29.11-.25 14.12-1.72 28.21-2.66 42.31-.31 4.74-.54 9.5-.85 14.24-.32 5-.71 10.1-1 15.15-.29 4.67-.65 9.35-.73 14-.12 6.51.14 13 0 19.54-.29 12.18-.88 24.36-1.1 36.54-.08 4.18.63 8.38.88 12.57.1 1.75-.1 3.52-.08 5.29.06 5.13.25 10.26.21 15.4 0 4.35-.42 8.69-.46 13 0 2.89.66 5.81.36 8.65a83.92 83.92 0 0 0 0 19 18.49 18.49 0 0 1-.22 4.32c-.6 5.41-1.52 10.76-.47 16.25.67 3.52.74 7.14 1.26 10.69s1.23 7.38 1.97 11.5zM37 1228.54c-4.79-.33-8.14-.1-11.09 2.07-.43.32-1.16.22-1.74.36-2.94.74-5.89 1.44-8.79 2.32-.54.16-.83 1.13-1.23 1.72a14.8 14.8 0 0 0 1.62 1 11.56 11.56 0 0 0 1.71.6c3.92 1.25 7.78 2.77 11.78 3.65a125.53 125.53 0 0 0 12.47 1.74c7.33.89 14.66 2 22 2.47a43.81 43.81 0 0 1 12 2.4 31.93 31.93 0 0 0 6.48 1.29c2.16.29 4.47 0 6.53.56 4.62 1.33 9.68.51 14.07 2.94a3.84 3.84 0 0 0 1.81.15c3.44-.1 6.87-.38 10.3-.29 5.72.16 11.44.53 17.15.86 6.33.37 12.65.85 19 1.16 4.62.23 9.25.29 13.88.36 10.15.16 20.31.28 30.46.43 5.43.08 10.86.32 16.29.28 8.61-.05 17.21-.17 25.8-.46 4-.14 7.92-.91 11.89-1.08 8-.34 16.06-.23 24.06-.73 9.06-.57 18.07-1.65 27.11-2.43 2.28-.19 4.6 0 6.87-.19 3.86-.41 7.68-1.16 11.55-1.54 4.87-.49 9.79-.64 14.66-1.17 3-.33 6-1.26 9-1.64 5.07-.64 10.15-1.13 14.82-3.47a33 33 0 0 0 3.92-1.91 2.8 2.8 0 0 0 1-2.11c0-.49-1-1.11-1.6-1.35-2.4-.86-4.82-1.67-7.27-2.35a78 78 0 0 0-7.69-1.8c-2.17-.37-4.41-.3-6.6-.59-3.76-.5-7.49-1.26-11.26-1.66-6.69-.7-13.41-1.14-20.1-1.86-1.7-.18-3.31-1.29-5-1.44-5.55-.47-11.13-.57-16.67-1.07-3.3-.3-6.54-1.32-9.84-1.59-5.23-.44-10.49-.51-15.74-.74-4.52-.2-9-.28-13.55-.65-3.24-.27-6.53-1.63-9.64-1.25-5.14.64-10.08 0-15.12-.48-4.56-.43-9.18-.23-13.78-.25a3.12 3.12 0 0 0-3.37 3.1 17.81 17.81 0 0 0 .1 5c.58 3-1.24 5.87-4.2 5.37a30.87 30.87 0 0 0-9.91-.43 2.66 2.66 0 0 1-1.8-.24c-2.58-1.91-5.06-.77-7.63 0s-4.38-.21-5-2.82-.82-5.19-1.27-7.78c-.53-3-1.41-3.9-4.56-3.86-4.07.06-8.13.38-12.19.58-5.61.27-11.21.61-16.82.78-2.71.07-5.45-.43-8.14-.23-7.24.52-14.47 1.28-21.71 2-1.75.16-3.49.46-5.24.51-3.42.11-6.84 0-10.26.15s-6.88.64-10.32.85c-3.12.18-6.26 0-9.36.33-3.76.38-7.48 1.2-11.25 1.61-7.14.79-14.31 1.42-21.46 2.12zm62.44-884.42-.32-.89c-.92-2.76-2.4-5.47-2.61-8.29-.26-3.29-.24-6.49-1.65-9.59a7.49 7.49 0 0 1-.21-3.39c.08-1.16.56-2.31.56-3.46 0-1.48-.38-3-.41-4.44-.06-3.41-.1-6.82 0-10.23.15-3.95.48-7.9.74-11.84a44 44 0 0 0 .3-4.57c-.07-1.88 1.1-3.89-.56-5.67-.28-.29-.18-1-.11-1.55.31-2 .78-4 1-6a32.72 32.72 0 0 0 0-5c-.22-3.79-1.21-7.69-.61-11.33.82-5 0-9.94 0-14.9 0-3.52-.39-7-.31-10.56.15-5.93.56-11.86.82-17.8.31-7 .54-14 .87-20.93.2-4.25.28-8.54.87-12.74.63-4.49-1.15-9.1.78-13.49.1-.23-.11-.59-.14-.9-.13-1.34-.33-2.68-.35-4 0-1.59.17-3.18.19-4.78 0-4.41-.53-8.94.24-13.23 1.38-7.62-.4-15.48 2.08-23v-.46c.49-5 1-10.1 1.49-15.15.17-1.74.56-3.47.63-5.21.11-2.4-.07-4.81 0-7.21.1-2.82.38-5.64.51-8.46.33-6.79.68-13.58.89-20.38.17-5.75.11-11.5.22-17.26.06-3 .29-5.94.41-8.92q.18-4.91.29-9.81a16.75 16.75 0 0 0-.19-1.86l-.64-.07a9.57 9.57 0 0 0-.78 2.21c-.29 3.09-.36 6.2-.72 9.28-.33 2.81-1 5.59-1.41 8.39C100.21 53.82 99 61 98 68.14c-.48 3.31-.64 6.66-1 10-.29 2.7-.56 5.41-1.05 8.08-1.09 6-2.34 12-3.47 18-1 5.31-1.88 10.64-2.92 15.94-.5 2.55-1.34 5-1.85 7.57-.91 4.49-1.68 9-2.53 13.51-.63 3.3-1.24 6.61-2 9.9-1 4.84-2.11 9.67-3.27 14.48-1 4-2.23 8-3.11 12-.95 4.33-1.58 8.72-2.43 13.07-.23 1.18-1 2.28-1.1 3.45-.57 7.9-.89 15.83-1.56 23.72-.76 8.91-1.9 17.78-2.67 26.68-.43 4.89-.28 9.82-.67 14.71s-1.27 10-1.74 15.07c-.37 4-.61 8.07-.62 12.11 0 4.51.36 9-1.42 13.33a4.61 4.61 0 0 0-.1 1.59c-.16 7-.36 13.94-.45 20.92 0 2.18.16 4.38.34 6.56.2 2.48 1.06 5.06.61 7.39-.68 3.58 1.2 5.34 5.08 4.89a7.16 7.16 0 0 1 2.36.46c3.16.79 6.28 1.73 9.47 2.35a41.54 41.54 0 0 0 6.32.49c3.44.12 6.9.15 10.35.19.3.01.55-.28.87-.48z" fill="#ffffff" data-color="1"/>
    </g>
</svg>
