<?xml version="1.0" encoding="UTF-8"?>
<svg data-bbox="0 0 134.53 112.59" viewBox="0 0 134.53 112.59" xmlns="http://www.w3.org/2000/svg" data-type="ugc">
    <g>
        <g>
            <path fill="#f5821f" d="M44.84 90.64 10.57 56.37 22.9 44.05l21.94 21.93 55.41-55.41 12.32 12.33-67.73 67.74z"/>
            <g style="mix-blend-mode:multiply" opacity=".2">
                <path fill="#ffffff" d="m16.23 67.76 40 40 73.46-73.46-18.05-18-55.42 55.34-21.94-21.93Zm40 44.83L11.38 67.76l22.9-22.9 21.94 21.93 55.41-55.41 22.9 22.9Z"/>
                <path fill="#f7f7f7" d="m15.87 67.39 40 40 73.46-73.45-18-18.05-55.48 55.39-21.93-21.94Zm40 44.83L11 67.39l22.9-22.9 21.95 21.94L111.26 11l22.9 22.9Z"/>
                <path fill="#efefef" d="m15.5 67 40 40 73.45-73.46-18-18-55.46 55.37L33.55 49Zm40 44.84L10.65 67l22.9-22.9 21.94 21.96 55.4-55.41 22.9 22.9Z"/>
                <path fill="#e6e6e6" d="m15.13 66.65 40 40 73.46-73.46-18.05-18-55.42 55.35-21.94-21.93Zm40 44.84L10.28 66.65l22.9-22.9 21.94 21.94 55.41-55.41 22.9 22.9Z"/>
                <path fill="#dedede" d="m14.77 66.29 40 40 73.46-73.46-18.05-18-55.43 55.34-21.93-21.93Zm40 44.83L9.91 66.29l22.91-22.9 21.93 21.93 55.41-55.41 22.9 22.9Z"/>
                <path fill="#d6d6d6" d="m14.4 65.92 40 40 73.46-73.46-18-18.05-55.48 55.4-21.93-21.94Zm40 44.84L9.55 65.92 32.45 43l21.93 22 55.41-55.45 22.9 22.9Z"/>
                <path fill="#cecece" d="m14 65.55 40 40 73.45-73.46-18-18L54 69.44 32.08 47.5Zm40 44.84L9.18 65.55l22.9-22.9L54 64.59l55.43-55.41 22.9 22.9Z"/>
                <path fill="#c5c5c5" d="m13.66 65.19 40 40 73.46-73.46-18-18-55.47 55.34-21.94-21.93Zm40 44.83L8.81 65.19l22.9-22.9 21.94 21.93 55.41-55.41L132 31.71Z"/>
                <path fill="#bdbdbd" d="m13.3 64.82 40 40 73.46-73.45-18-18-55.48 55.34-21.93-21.94Zm40 44.83L8.45 64.82l22.9-22.9 21.93 21.93 55.41-55.4 22.9 22.9Z"/>
                <path fill="#b5b5b5" d="m12.93 64.45 40 40L126.37 31l-18.05-18-55.41 55.34L31 46.4Zm40 44.84L8.08 64.45 31 41.55l21.91 21.94 55.41-55.41L131.22 31Z"/>
                <path fill="#adadad" d="m12.56 64.08 40 40L126 30.61l-18-18.05L52.55 68 30.61 46Zm40 44.84L7.71 64.08l22.9-22.9 21.94 21.94L108 7.71l22.9 22.9Z"/>
                <path fill="#a5a5a5" d="m12.2 63.72 40 40 73.46-73.46-18-18L52.18 67.6 30.24 45.67Zm40 44.83L7.34 63.72l22.9-22.9 21.94 21.93 55.41-55.41 22.9 22.9Z"/>
                <path fill="#9c9c9c" d="m11.83 63.35 40 40 73.46-73.45-18-18-55.48 55.34L29.88 45.3Zm40 44.84L7 63.35l22.9-22.9 21.91 21.94L107.22 7l22.9 22.9Z"/>
                <path fill="#949494" d="m11.46 63 40 40 73.44-73.49-18-18-55.45 55.36-21.94-21.94Zm40 44.84L6.61 63l22.9-22.9L51.45 62l55.41-55.39 22.9 22.9Z"/>
                <path fill="#8c8c8c" d="m11.09 62.61 40 40 73.46-73.46-18.05-18L51.08 66.5 29.14 44.57Zm40 44.84L6.24 62.61l22.9-22.89 21.94 21.93 55.41-55.41 22.9 22.9Z"/>
                <path fill="#848484" d="m10.73 62.25 40 40 73.46-73.46-18-18-55.48 55.34L28.78 44.2Zm40 44.83L5.88 62.25l22.9-22.9 21.93 21.93 55.41-55.4L129 28.77Z"/>
                <path fill="#7b7b7b" d="m10.36 61.88 40 40 73.44-73.47-18-18-55.46 55.36-21.93-21.94Zm40 44.84L5.51 61.88 28.41 39l21.93 21.92 55.41-55.41 22.9 22.9Z"/>
                <path fill="#737373" d="m10 61.51 40 40L123.44 28l-18-18L50 65.4 28 43.46Zm40 44.84L5.14 61.51 28 38.61l22 21.94 55.39-55.41L128.29 28Z"/>
                <path fill="#6b6b6b" d="m9.62 61.15 40 40 73.46-73.46L105 9.62 49.61 65 27.67 43.1Zm40 44.83L4.77 61.15l22.9-22.9 21.94 21.93L105 4.77l22.9 22.9Z"/>
                <path fill="#636363" d="m9.26 60.78 40 40 73.44-73.47-18-18-55.46 55.36-21.93-21.94Zm40 44.83L4.41 60.78l22.9-22.9 21.93 21.94 55.41-55.41 22.9 22.9Z"/>
                <path fill="#5a5a5a" d="m8.89 60.41 40 40 73.45-73.46-18-18L48.88 64.3 26.94 42.36Zm40 44.84L4 60.41l22.9-22.9 21.98 21.94L104.29 4l22.89 22.9Z"/>
                <path fill="#525252" d="m8.52 60 40 40L122 26.57l-18-18-55.49 55.36L26.57 42Zm40 44.84L3.67 60l22.9-22.9 21.94 21.98 55.41-55.41 22.9 22.9Z"/>
                <path fill="#4a4a4a" d="m8.16 59.68 40 40L121.6 26.2l-18-18-55.46 55.36-21.93-21.93Zm40 44.83L3.3 59.68l22.91-22.9 21.93 21.93L103.55 3.3l22.9 22.9Z"/>
                <path fill="#424242" d="m7.79 59.31 40 40 73.46-73.46-18-18L47.77 63.2 25.84 41.26Zm40 44.84L2.94 59.31l22.9-22.9 21.93 21.94 55.41-55.41 22.9 22.9Z"/>
                <path fill="#3a3a3a" d="m7.42 58.94 40 40 73.45-73.46-18-18-55.46 55.35-21.94-21.94Zm40 44.84L2.57 58.94 25.47 36l21.94 22 55.41-55.43 22.9 22.9Z"/>
                <path fill="#313131" d="m7.05 58.58 40 40L120.5 25.1l-18-18L47 62.46 25.1 40.53Zm40 44.83L2.2 58.58l22.9-22.9L47 57.61 102.45 2.2l22.9 22.9Z"/>
                <path fill="#292929" d="m6.69 58.21 40 40 73.46-73.45-18-18L46.67 62.1 24.74 40.16Zm40 44.83L1.84 58.21l22.9-22.9 21.93 21.93 55.41-55.4L125 24.74Z"/>
                <path fill="#212121" d="m6.32 57.84 40 40 73.45-73.46-18.05-18-55.41 55.35-21.94-21.94Zm40 44.84L1.47 57.84l22.9-22.9 21.94 21.94 55.4-55.41 22.9 22.9Z"/>
                <path fill="#191919" d="m6 57.47 40 40L119.4 24 101.35 6 45.94 61.36 24 39.43Zm40 44.84L1.1 57.47 24 34.57l21.94 21.94L101.35 1.1l22.9 22.9Z"/>
                <path fill="#101010" d="m5.59 57.11 40 40L119 23.63l-18-18L45.57 61 23.63 39.06Zm40 44.83L.73 57.11l22.9-22.9 21.94 21.93L101 .73l22.9 22.9Z"/>
                <path fill="#080808" d="m5.22 56.74 40 40 73.46-73.46-18-18L45.2 60.63 23.27 38.69Zm40 44.84L.37 56.74l22.9-22.9L45.2 55.78 100.61.37l22.9 22.9Z"/>
                <path d="m4.85 56.37 40 40 73.44-73.47-18-18-55.45 55.36L22.9 38.32Zm40 44.84L0 56.37l22.9-22.9 21.94 21.94L100.25 0l22.9 22.9Z"/>
            </g>
            <path fill="#ffffff" d="M44.84 101.21 0 56.37l22.9-22.9 21.94 21.94L100.25 0l22.9 22.9Zm-40-44.84 40 40 73.45-73.47-18-18-55.45 55.36L22.9 38.32Z"/>
        </g>
    </g>
</svg>
