<?xml version="1.0" encoding="UTF-8"?>
<svg data-bbox="0 0 110.16 110.16" viewBox="0 0 110.16 110.16" xmlns="http://www.w3.org/2000/svg" data-type="ugc">
    <g>
        <g>
            <path fill="#17479d" d="M88.81 22.9 76.48 10.57 49.69 37.36 22.9 10.57 10.57 22.9l26.8 26.79-26.8 26.79L22.9 88.81l26.79-26.79 26.79 26.79 12.33-12.33-26.79-26.79L88.81 22.9z"/>
            <g style="mix-blend-mode:multiply" opacity=".2">
                <path fill="#ffffff" d="m15.62 87.26 18.05 18 26.8-26.8 26.79 26.8 18-18-26.74-26.79 26.79-26.8-18-18.05-26.84 26.8-26.8-26.8-18.05 18.05 26.8 26.8Zm71.64 22.9L60.47 83.37l-26.8 26.79-22.9-22.9 26.8-26.79-26.8-26.8 22.9-22.9 26.8 26.8 26.79-26.8 22.9 22.9-26.79 26.8 26.79 26.79Z"/>
                <path fill="#f7f7f7" d="m15.28 86.91 18 18 26.84-26.74L86.91 105l18-18-26.74-26.88L105 33.33l-18-18-26.88 26.74-26.79-26.79-18 18 26.74 26.84Zm71.63 22.9L60.12 83l-26.79 26.81-22.9-22.9 26.79-26.79-26.79-26.79 22.9-22.9 26.79 26.79 26.79-26.79 22.9 22.9L83 60.12l26.79 26.79Z"/>
                <path fill="#efefef" d="m14.93 86.56 18 18 26.84-26.74 26.79 26.79 18-18-26.74-26.84L104.61 33l-18-18-26.84 26.72L33 14.93l-18 18 26.72 26.84Zm71.63 22.9L59.77 82.67 33 109.46l-22.9-22.9 26.77-26.79L10.08 33 33 10.08l26.77 26.79 26.79-26.79L109.46 33 82.67 59.77l26.79 26.79Z"/>
                <path fill="#e6e6e6" d="m14.58 86.22 18.05 18 26.79-26.75 26.8 26.79 18-18-26.75-26.84 26.79-26.79-18-18.05-26.84 26.79-26.79-26.79-18.05 18.05 26.79 26.79Zm71.64 22.89-26.8-26.79-26.79 26.79-22.9-22.89 26.79-26.8L9.73 32.63l22.9-22.9 26.79 26.79 26.8-26.79 22.9 22.9-26.8 26.79 26.8 26.8Z"/>
                <path fill="#dedede" d="m14.23 85.87 18.05 18 26.8-26.8 26.79 26.8 18-18-26.75-26.79 26.8-26.8-18-18L59.08 41l-26.8-26.8-18 18.05L41 59.08Zm71.64 22.9L59.08 82l-26.8 26.8-22.9-22.93 26.8-26.79-26.8-26.8 22.9-22.9 26.8 26.8 26.79-26.8 22.9 22.9L82 59.08l26.79 26.79Z"/>
                <path fill="#d6d6d6" d="m13.89 85.52 18.05 18 26.79-26.74 26.79 26.79 18-18-26.74-26.84 26.79-26.79-18-18-26.84 26.74-26.79-26.79-18 18.05 26.74 26.79Zm71.63 22.9L58.73 81.63l-26.79 26.79L9 85.52l26.83-26.79L9 31.94 31.94 9l26.79 26.83L85.52 9l22.9 22.9-26.79 26.83 26.79 26.79Z"/>
                <path fill="#cecece" d="m13.54 85.17 18.05 18 26.79-26.74 26.79 26.79 18-18-26.74-26.84 26.79-26.79-18-18-26.84 26.74-26.79-26.79-18 18.05 26.74 26.79Zm71.63 22.9L58.38 81.28l-26.79 26.79-22.9-22.9 26.79-26.79L8.69 31.59l22.9-22.9 26.79 26.79L85.17 8.69l22.9 22.9-26.79 26.79 26.79 26.79Z"/>
                <path fill="#c5c5c5" d="m13.19 84.82 18 18.05L58 76.08l26.8 26.79 18-18.05L76.08 58l26.79-26.79-18-18L58 40 31.24 13.19l-18 18L40 58Zm71.64 22.9L58 80.93l-26.76 26.79-22.9-22.9L35.13 58 8.34 31.24l22.9-22.9L58 35.13 84.83 8.34l22.9 22.9L80.93 58l26.8 26.79Z"/>
                <path fill="#bdbdbd" d="m12.84 84.48 18.05 18 26.8-26.8 26.79 26.8 18-18-26.75-26.79 26.8-26.8-18-18-26.84 26.75-26.8-26.8-18 18.05 26.8 26.8Zm71.64 22.9-26.79-26.8-26.8 26.8L8 84.48l26.8-26.79L8 30.89 30.89 8l26.8 26.8L84.48 8l22.9 22.9-26.79 26.79 26.79 26.79Z"/>
                <path fill="#b5b5b5" d="m12.5 84.13 18.05 18.05 26.79-26.79 26.79 26.79 18.05-18.05-26.79-26.79 26.79-26.79-18.05-18-26.79 26.74L30.55 12.5l-18 18.05 26.74 26.79ZM84.13 107 57.34 80.24 30.55 107 7.65 84.13l26.79-26.79L7.65 30.55l22.9-22.9 26.79 26.79L84.13 7.65 107 30.55 80.24 57.34 107 84.13Z"/>
                <path fill="#adadad" d="m12.15 83.78 18 18L57 75l26.79 26.79 18-18L75 57l26.83-26.8-18-18L57 38.94 30.2 12.15l-18 18L38.94 57Zm71.63 22.9L57 79.89l-26.8 26.79-22.9-22.9L34.09 57 7.3 30.2 30.2 7.3 57 34.09 83.78 7.3l22.9 22.9L79.89 57l26.79 26.79Z"/>
                <path fill="#a5a5a5" d="m11.8 83.43 18.05 18 26.79-26.74 26.8 26.79 18-18-26.75-26.84 26.79-26.79-18-18-26.84 26.74L29.85 11.8l-18 18.05 26.74 26.79Zm71.64 22.9-26.8-26.79-26.79 26.79L7 83.43l26.74-26.79L7 29.85 29.85 7l26.79 26.74L83.44 7l22.9 22.9-26.8 26.74 26.8 26.79Z"/>
                <path fill="#9c9c9c" d="m11.45 83.09 18.05 18 26.8-26.8 26.79 26.8 18-18L74.34 56.3l26.8-26.8-18-18L56.3 38.25l-26.8-26.8-18 18.05 26.8 26.8ZM83.09 106 56.3 79.19 29.5 106 6.6 83.09 33.4 56.3 6.6 29.5 29.5 6.6l26.8 26.8L83.09 6.6 106 29.5 79.2 56.3 106 83.09Z"/>
                <path fill="#949494" d="m11.11 82.74 18.05 18.05L56 74l26.79 26.79 18.05-18.05L74 56l26.79-26.79-18.05-18L56 37.9 29.16 11.11l-18 18.05L37.9 56Zm71.63 22.9L56 78.85l-26.84 26.79-22.9-22.9L33.05 56 6.26 29.16l22.9-22.9L56 33.05 82.74 6.26l22.9 22.9L78.85 56l26.79 26.79Z"/>
                <path fill="#8c8c8c" d="m10.76 82.39 18 18L55.6 73.65l26.79 26.79 18-18L73.65 55.6l26.79-26.79-18-18L55.6 37.55 28.81 10.76l-18 18L37.55 55.6Zm71.63 22.9L55.6 78.5l-26.79 26.79-22.9-22.9L32.7 55.6 5.91 28.81l22.9-22.9L55.6 32.7 82.39 5.91l22.9 22.9L78.5 55.6l26.79 26.79Z"/>
                <path fill="#848484" d="m10.41 82 18.05 18 26.79-26.7 26.8 26.79 18-18L73.3 55.25l26.79-26.79-18-18L55.25 37.2 28.46 10.41l-18 18.05L37.2 55.25Zm71.64 22.9-26.8-26.75-26.79 26.79L5.56 82l26.79-26.75L5.56 28.46l22.9-22.9 26.79 26.79 26.8-26.79 22.89 22.9-26.79 26.79L104.94 82Z"/>
                <path fill="#7b7b7b" d="m10.06 81.7 18 18L54.91 73 81.7 99.75l18-18L73 54.9l26.8-26.79-18-18-26.89 26.75-26.8-26.8-18 18L36.86 54.9Zm71.64 22.9L54.91 77.8l-26.8 26.8-22.9-22.9L32 54.9 5.21 28.11l22.9-22.9L54.91 32 81.7 5.21l22.9 22.9L77.81 54.9l26.79 26.8Z"/>
                <path fill="#737373" d="m9.72 81.35 18 18.05 26.84-26.79L81.35 99.4 99.4 81.35 72.61 54.56 99.4 27.77l-18.05-18-26.79 26.74L27.77 9.72l-18 18 26.74 26.84Zm71.63 22.9L54.56 77.46l-26.79 26.79-22.9-22.9 26.79-26.79L4.87 27.77l22.9-22.9 26.79 26.79L81.35 4.87l22.9 22.9-26.79 26.79 26.79 26.79Z"/>
                <path fill="#6b6b6b" d="m9.37 81 18.05 18 26.79-26.74L81 99.05l18-18-26.74-26.84 26.79-26.79L81 9.37 54.21 36.16 27.42 9.37 9.37 27.42l26.79 26.79ZM81 103.9 54.21 77.11 27.42 103.9 4.52 81l26.79-26.79L4.52 27.42l22.9-22.9 26.79 26.79L81 4.52l22.9 22.9-26.79 26.79L103.9 81Z"/>
                <path fill="#636363" d="m9 80.65 18.05 18 26.81-26.74 26.8 26.79 18-18-26.75-26.84L98.7 27.07l-18-18-26.84 26.74L27.07 9 9 27.07l26.81 26.79Zm71.64 22.9L53.86 76.76l-26.79 26.79-22.9-22.9L31 53.86 4.17 27.07l22.9-22.9L53.86 31l26.8-26.83 22.89 22.9-26.79 26.79 26.79 26.79Z"/>
                <path fill="#5a5a5a" d="m8.67 80.31 18 18 26.8-26.8 26.79 26.8 18-18-26.8-26.8 26.8-26.79-18-18-26.74 26.75-26.8-26.8-18 18 26.8 26.79Zm71.64 22.9-26.79-26.8-26.8 26.8-22.9-22.9 26.8-26.8-26.8-26.79 22.9-22.9 26.8 26.8 26.79-26.8 22.9 22.9-26.8 26.79 26.8 26.8Z"/>
                <path fill="#525252" d="m8.33 80 18.05 18 26.79-26.78L80 98l18-18-26.78-26.83L98 26.37 80 8.33 53.17 35.12 26.38 8.33l-18 18 26.79 26.8ZM80 102.86 53.17 76.07l-26.79 26.79L3.48 80l26.79-26.83-26.79-26.8 22.9-22.89 26.79 26.79L80 3.48l22.9 22.89-26.83 26.8L102.86 80Z"/>
                <path fill="#4a4a4a" d="m8 79.61 18 18.05 26.82-26.79 26.79 26.79 18-18-26.74-26.84L97.66 26l-18-18-26.84 26.77L26 8 8 26l26.77 26.82Zm71.63 22.9L52.82 75.72 26 102.51 3.13 79.61l26.79-26.79L3.13 26 26 3.13l26.82 26.79L79.61 3.13 102.51 26 75.72 52.82l26.79 26.79Z"/>
                <path fill="#424242" d="m7.63 79.26 18.05 18 26.79-26.74 26.79 26.79 18-18-26.74-26.84 26.79-26.79-18-18-26.84 26.74L25.68 7.63l-18 18.05 26.74 26.79Zm71.63 22.9L52.47 75.37l-26.79 26.79-22.9-22.9 26.79-26.79L2.78 25.68l22.9-22.9 26.79 26.79L79.26 2.78l22.9 22.9-26.79 26.79 26.79 26.79Z"/>
                <path fill="#3a3a3a" d="m7.28 78.92 18 18 26.8-26.8L78.92 97l18-18-26.8-26.8L97 25.33l-18-18-26.87 26.75-26.8-26.8-18 18 26.8 26.79Zm71.64 22.9L52.13 75l-26.8 26.8-22.9-22.88 26.79-26.8L2.43 25.33l22.9-22.9 26.8 26.79L78.92 2.43l22.9 22.9L75 52.12l26.8 26.8Z"/>
                <path fill="#313131" d="M6.94 78.57 25 96.62l26.78-26.79 26.79 26.79 18.05-18.05-26.79-26.79L96.62 25 78.57 7 51.78 33.73 25 6.94l-18 18 26.79 26.8Zm71.63 22.9L51.78 74.68 25 101.47 2.09 78.57l26.79-26.79L2.09 25 25 2.09l26.78 26.79L78.57 2.09 101.47 25 74.68 51.78l26.79 26.79Z"/>
                <path fill="#292929" d="m6.59 78.22 18.05 18 26.79-26.74 26.79 26.79 18-18-26.74-26.84 26.79-26.79-18-18-26.84 26.74L24.64 6.59l-18 18.05 26.74 26.79Zm71.63 22.9L51.43 74.33l-26.79 26.79-22.9-22.9 26.79-26.79L1.74 24.64l22.9-22.9 26.79 26.79L78.22 1.74l22.9 22.9-26.79 26.79 26.79 26.79Z"/>
                <path fill="#212121" d="m6.24 77.87 18 18 26.84-26.74 26.79 26.79 18-18-26.74-26.84 26.79-26.79-18-18L51.08 33 24.29 6.24l-18 18L33 51.08Zm71.63 22.9L51.08 74l-26.79 26.77-22.9-22.9 26.79-26.79L1.39 24.29l22.9-22.9 26.79 26.79L77.87 1.39l22.9 22.9L74 51.08l26.79 26.79Z"/>
                <path fill="#191919" d="m5.89 77.53 18.05 18 26.79-26.8 26.8 26.8 18-18-26.8-26.8 26.8-26.79-18-18-26.8 26.8L23.94 5.89l-18 18.05 26.8 26.79Zm71.64 22.9-26.8-26.8-26.79 26.8L1 77.53l26.79-26.8L1 23.94 23.94 1l26.79 26.83L77.53 1l22.9 22.9-26.8 26.83 26.8 26.8Z"/>
                <path fill="#101010" d="m5.55 77.18 18.05 18 26.79-26.74 26.79 26.79 18-18-26.74-26.84 26.79-26.8-18-18-26.84 26.75L23.6 5.55l-18 18 26.79 26.8Zm71.63 22.9L50.39 73.29 23.6 100.08.7 77.18l26.79-26.79L.7 23.59 23.6.7l26.79 26.79L77.18.7l22.9 22.89-26.79 26.8 26.79 26.79Z"/>
                <path fill="#080808" d="m5.2 76.83 18.05 18L50 68.09l26.83 26.79 18-18L68.09 50l26.79-26.75-18-18L50 32 23.25 5.2 5.2 23.25 32 50Zm71.63 22.9L50 72.94 23.25 99.73.35 76.83 27.14 50 .35 23.25 23.25.35 50 27.14 76.83.35l22.9 22.9L72.94 50l26.79 26.83Z"/>
                <path d="m4.85 76.48 18 18 26.84-26.74 26.79 26.79 18-18-26.74-26.84L94.53 22.9l-18-18-26.84 26.74L22.9 4.85l-18 18 26.74 26.84Zm71.63 22.9L49.69 72.59 22.9 99.38 0 76.48l26.79-26.79L0 22.9 22.9 0l26.79 26.79L76.48 0l22.9 22.9-26.79 26.79 26.79 26.79Z"/>
            </g>
            <path fill="#ffffff" d="m4.85 76.48 18 18 26.84-26.74 26.79 26.79 18-18-26.74-26.84L94.53 22.9l-18-18-26.84 26.74L22.9 4.85l-18 18 26.74 26.84Zm71.63 22.9L49.69 72.59 22.9 99.38 0 76.48l26.79-26.79L0 22.9 22.9 0l26.79 26.79L76.48 0l22.9 22.9-26.79 26.79 26.79 26.79Z"/>
        </g>
    </g>
</svg>
