<?xml version="1.0" encoding="UTF-8"?>
<svg data-bbox="0 0 99.38 99.38" viewBox="0 0 99.38 99.38" xmlns="http://www.w3.org/2000/svg" data-type="color">
    <g>
        <g>
            <path fill="#ffffff" d="M88.81 22.9 76.48 10.57 49.69 37.36 22.9 10.57 10.57 22.9l26.8 26.79-26.8 26.79L22.9 88.81l26.79-26.79 26.79 26.79 12.33-12.33-26.79-26.79L88.81 22.9z" data-color="1"/>
            <path fill="#ffffff" d="m4.85 76.48 18 18 26.84-26.74 26.79 26.79 18-18-26.74-26.84L94.53 22.9l-18-18-26.84 26.74L22.9 4.85l-18 18 26.74 26.84Zm71.63 22.9L49.69 72.59 22.9 99.38 0 76.48l26.79-26.79L0 22.9 22.9 0l26.79 26.79L76.48 0l22.9 22.9-26.79 26.79 26.79 26.79Z" data-color="1"/>
        </g>
    </g>
</svg>
