<?xml version="1.0" encoding="UTF-8"?>
<svg data-bbox="0.03 -0.03 86.97 200.47" viewBox="0 0 86.99 200.39" xmlns="http://www.w3.org/2000/svg" data-type="color">
    <g>
        <g>
            <path d="M46.28 10.56c-.77-1.81 1.58-4 3.33-5 .58 2.28-1.38 4.34-3.33 5zM47 9.45c1.05-.35 2.23-2 1.81-2.92-.55 1.06-1.43 1.76-1.81 2.92z" fill="#2b5849" fill-rule="evenodd" data-color="1"/>
            <path d="M35.58 35.85a6.17 6.17 0 0 0 1.25-1.25c.13 0 .1.17.14.28a5.14 5.14 0 0 1 3.47-1.81c-1.62.85-3.08 2.32-4.86 2.78z" fill="#2b5849" fill-rule="evenodd" data-color="1"/>
            <path d="M40.44 33.21c.33-.05.3.26.69.14a12 12 0 0 1 0 1.81c-1.03.05-1.06-1.38-.69-1.95z" fill="#2b5849" fill-rule="evenodd" data-color="1"/>
            <path d="M39.33 43.36c.16 0 .12.25.14.42-1.88 1.5-3.56 3.94-5.7 4.72 1.89-1.67 3.78-3.35 5.56-5.14z" fill="#2b5849" fill-rule="evenodd" data-color="1"/>
            <path d="M45.44 43.78a15.91 15.91 0 0 1 3.48 3.61c-1.45-.88-3.37-1.85-3.48-3.61z" fill="#2b5849" fill-rule="evenodd" data-color="1"/>
            <path d="M41 73a16.57 16.57 0 0 0-2.23 2.92c-.27 0-.17-.38-.55-.28C39 74.53 39.63 73.4 41 73z" fill="#2b5849" fill-rule="evenodd" data-color="1"/>
            <path d="M38.91 79.49c.44-1.74 1.81-2.55 2.64-3.89.23 0 .24.13.42.14a1.57 1.57 0 0 1-1.25 1.53c-.45.89-.72 1.95-1.81 2.22z" fill="#2b5849" fill-rule="evenodd" data-color="1"/>
            <path d="M36.13 79.77A6.07 6.07 0 0 1 32.8 83c-.2-.34-.34-.54-.14-1 1.81 0 1.98-2.35 3.47-2.23z" fill="#2b5849" fill-rule="evenodd" data-color="1"/>
            <path d="M45.16 86.3c.23 0 .24.13.42.14.64 2 2.55 3.24 3.34 4.72-1.59-1.16-3.44-2.84-3.76-4.86z" fill="#2b5849" fill-rule="evenodd" data-color="1"/>
            <path d="M44.47 91.16c-.88-1-1.07-2.73-1.67-4 1.28.08 1.56 3.1 1.67 4z" fill="#2b5849" fill-rule="evenodd" data-color="1"/>
            <path d="M44.33 87.13c1 .85 1.24 2.37 2 3.48a3.47 3.47 0 0 1-2-3.48z" fill="#2b5849" fill-rule="evenodd" data-color="1"/>
            <path d="M54.89 93.39c-1.85-1.63-5.12-2.57-5.83-4.87 0-.25.13-.28.13-.14 1.26 2.31 4.27 2.88 5.7 5.01z" fill="#2b5849" fill-rule="evenodd" data-color="1"/>
            <path d="M41.69 98.67c.37 0 .35.38.56.55a66.53 66.53 0 0 0-1.67 7.65c-.23-2.45.72-5.42 1.11-8.2z" fill="#2b5849" fill-rule="evenodd" data-color="1"/>
            <path d="M72 106.87a115.48 115.48 0 0 1-16-4.17c0-.16 0-.25.14-.28s0-.25.14-.28a66.21 66.21 0 0 0 11.54 3.34c1.36.27 3.12.43 4.18 1.39z" fill="#2b5849" fill-rule="evenodd" data-color="1"/>
            <path d="M68.51 106.87c-.48.15-.52-.25-1.39-.14v-.42c.45-.31 1.54-.21 1.39.56z" fill="#2b5849" fill-rule="evenodd" data-color="1"/>
            <path d="M87 108.53c-2.48 1.25-6.64.07-8.75-.83 2.54.3 5.51 1.09 8.75.83z" fill="#2b5849" fill-rule="evenodd" data-color="1"/>
            <path d="M43.91 138.69c.32.42.05 1.43.14 2.08-.38-.59-.13-1.17-.14-2.08z" fill="#2b5849" fill-rule="evenodd" data-color="1"/>
            <path d="M43.91 152.59c.6.47 0 1 .14 2.08-.88-.09-.68-1.75-.14-2.08z" fill="#2b5849" fill-rule="evenodd" data-color="1"/>
            <path d="M44.47 161.06c.16 0 .25 0 .28.14-.48 1.92.18 5-.14 6.53-.61-1.56-.5-4.31-.14-6.67z" fill="#2b5849" fill-rule="evenodd" data-color="1"/>
            <path d="M43.64 161.2c.26.55.16 1.93-.28 2.23a8.67 8.67 0 0 1 .28-2.23z" fill="#2b5849" fill-rule="evenodd" data-color="1"/>
            <path d="M44.75 169c.51 1.1-.24 2.51.14 3.89-.51-.81-1.08-2.95-.14-3.89z" fill="#2b5849" fill-rule="evenodd" data-color="1"/>
            <path d="M43.78 173c.11 0 .13 0 .13.13-.51 3.12.71 5.45-.13 8.62a49.85 49.85 0 0 1-.42-8.62c.2.04.39.05.42-.13z" fill="#2b5849" fill-rule="evenodd" data-color="1"/>
            <path d="M45.16 185.8c-.09 1.39.66 4.35.14 5.84-.06-2.3-1.05-4.18-.14-5.84z" fill="#2b5849" fill-rule="evenodd" data-color="1"/>
            <path d="M42.52 7.09a3.32 3.32 0 0 1 .84-.28c.59.83 0 2.19-.28 3.06.2 0 .76 0 .56.83a21.37 21.37 0 0 0 1.66-2.78c1.25.29-.08 4.23-1 2.78-.36.38-.5 1-.83 1.39 2-.1 4.17-2 5.42-2.92-.37 1.24-2.1 2.56-3.89 3.2 0 .31-.63 1.46-1.25 1.11 1.67 3 5.88 3.65 8.61 4-.2.49-1.43.54-1.94.28-.33.35.17.67-.28.83-.17-.15-.29-.12-.28.14-.88-1.2-2.52.28-3.75-1a1.23 1.23 0 0 0-.28 1c-.8.11-.76-.63-1.25-.83.1.47.64 1.51-.14 1.66 4.27 3.05 10.23 4.41 15.7 6.26.15.74 0 .48-.14 1.11-1.83-.65-4.32.5-6.39-.56-.58.32-1.46.68-1.94 0a1.83 1.83 0 0 1-1.12.84c-.72-.16-1.15-.61-2.08-.56 0 .51.72.3.56 1a.52.52 0 0 1-.7 0c2 1.72 5 3.81 8.06 3.34a.93.93 0 0 1 0 .83 14.4 14.4 0 0 1-6.81-2.36c-.2-.13-.18-.51-.42-.69s-1.4-.34-1.38-1.12c-.21.2-.3.45-.28-.13h-1c3 3.95 8.46 5.34 13.07 7.64-.31-.39-.49-.9-1-1.11a6.59 6.59 0 0 1 3.76 2.5A11.35 11.35 0 0 0 60 37c-1.82.41-3.32-.62-5-1-1.52-.33-2.93-.16-3.61-1.11-.16.13 0 .31-.28.56-1.9-.34-3.22-2.18-4.59-3.48 1.15 1.26.53 3.06 1.81 4 2.87 2.16 7.56 3.18 11.4 4.59 1.24.46 2.16 1.34 3.33 1.25.29 0 0 .61.42.56-.71 1.33-2.22 1.21-3.34.69-.63 2-4.12.63-5.69-.14 1.55.2 1.8.59 4.16.56a29 29 0 0 1-9.86-5.14c-.1-.38.27-.28.28-.56a48.53 48.53 0 0 1 4.3 3.06c1.18.26 1.87 1 3.06 1.25-.35-.63-1.85-1.3-2.64-2 2.28.92 4.8 2.9 8.48 2.5-4.9-2.81-12-3.61-16-7.36.43 1.14 1.36 3 1.94 4.44a49.62 49.62 0 0 0 6.26 4.59c2.53.84 5.24.77 7.36 1-1.18 1-4.61 0-5.84.56-3.57-1.57-7.12-3.16-9.58-5.84 0 .26.3 1.07-.14 1.39a8.31 8.31 0 0 1-2.09-1.67c.84 2 2.84 2.87 5 3.9 2 .94 4.16 2.38 6.54 2.91 2.5-.29 4.37.75 6 .56.08.54.84.54.28 1 .81.28 1.18 0 2-.27-.57-.66-1.17-.05-1.81-.28.4-1.74 3.59-.28 3.47.69-1.35.26-2.57.94-4.17.56-.22.18.52.59.42 1.11-1 .87-2.23.43-3.47.28-.24.15.41.59.27 1.11-1.1.13-1.51-.43-2.22-.7-.26.26.56.77.14 1.26a1.85 1.85 0 0 1-2.36-.28c-.27.19-.08.85-.28 1.11-.64.06-1.11.14-1.53-.28-.29.13.22.67-.14 1.11-.16 0-.25 0-.28.14a2.84 2.84 0 0 1-2.08-1.8c-.36.15.06 1.07-.28 1.25a2.16 2.16 0 0 1-1.53-1c1.22 1.84 3.5 2.62 5.42 3.76.32-.19-.67-.25-.41-.84 5 1.49 10.09 2.22 15.28-.14.89 1.6-1 2.3-2.36 2.5.11.45.92.2.83.84-1.18.83-2.06.76-3.61.41.5-.54 1-.26 1.81-.41-1.15-1-5.19.21-5.14-1.53a21.15 21.15 0 0 1-6.12-.83c.31.61 1.93.66 1.95 1.11-1.42.34-3.66-1.52-5.42-2.09 0-.39-.66-.17-.56-.69A3.49 3.49 0 0 1 47.81 53h-.7c-1.46-2-3.29-3.57-4.59-5.7-.22 1.3 1.25 3.69 2.64 5.7s2.69 3.21 3.9 5.14a29.86 29.86 0 0 1-6.26-8.34.9.9 0 0 0-.69-.14c-.85-1.7.16-3.2-.84-4.45a19.33 19.33 0 0 0-.69 7.23c.28.28.28-.06.42-.28 1.17.45.74 2.5 1.11 3.76.43.1.26-.39.69-.28-.1 1.71 1.14 2.82 2.36 3.61a9.43 9.43 0 0 0-1.11-1.81c.52-2.43-1.73-4.33-2.22-6.67.49-.24.34.1.83.14C44.1 54 45.14 56.92 47 59.48c.52-1.51-1.62-2.84-1-4 1.68.91 1.65 3.53 3.33 4.45-.13-.79.47-.84.28-1.67.78 1.08.69 2.2 1.67 3.33 1.44.93 2.91 1.82 4.45 2.64-.24-2-4.07-2.41-3.89-4.86.63 0 .74.55 1 1 1.9 1.7 4.29 2.53 6.67 3.48-.54-1.69-2.85-1.6-3.2-3.48 5.45-.71 9.59 4.64 15.43 3.2-4-.95-7.45-2.33-11.54-3.48-2.79-.78-6.06-1.35-7.36-3.33 3.06 1.94 6.83 2.45 10.28 3.61a7 7 0 0 0 3.61.14c-.42-.58-1.21 0-1.66-.42v-.69c1.74.16 2.23.26 3.75.42-.11 1.36-1.97 1.18-3.09 1.18 2 1.38 5.4 1.27 7.65 2.36-2.14 2.15-7.66.6-9.59-.7-.26.18.45.56.55.84-.91 1.1-3.34-.08-4.44-.5.22.52.58.9.83 1.39 0 .46-.59.33-.56.84-1-1.07-2.77-1.4-4.17-2.09-.16.56 1.31 1.2.84 2.09a12.07 12.07 0 0 1-3.61-1.53 36.59 36.59 0 0 1-5.29-3.89c.17.21.28 1.19 0 1.39A4.9 4.9 0 0 1 46 59.06c-.11.17.37 1-.28 1.25 4.78 2.82 8.67 6.53 14.31 8.48.09.84 1.3.55 1.53 1.25a55.16 55.16 0 0 0 17.1 3.2c.14 3-4.54 3.74-7.51 3.19 1.72-.5 6.16.08 6.81-2.64a79.84 79.84 0 0 1-10.28-1.39c0 .42.65.18.83.42a11.73 11.73 0 0 1-2.22-.42c-.05 0 .32-.24.41-.14-.2-.21-3.2-1-3.61-1.11a13.12 13.12 0 0 1-1.8-.83c.46.55-1.42-.74-1.95-1-.24.08-.82-.17-.83.13-.31 0-.3-.35-.28-.69a63.85 63.85 0 0 1-15.15-7.64c-.63 4.68 1.62 9.71 5.7 11.81a18.23 18.23 0 0 0-3.62-6v-.69c-.06-.3.2-.27.42-.28-.44-.88-2.13-1.18-1.8-2.36.75.12 1.1 1 1.66 1.53 1 .89 2.38 1.39 3.48 2.22.33-1.16-1.72-1.76-1.39-2.92A7.58 7.58 0 0 1 50 68c2.17 1.11 5 1.65 7.23 2.36a24.06 24.06 0 0 1-6.54-1.53 23.16 23.16 0 0 0 4.45 4.45c-.09-.47-.4-.72-.28-1.39 1.17 1.38 2.27 2.92 4.17 3.19-.41-1.53-2.07-1.82-2.5-3.33 2.88 1 3.67 4 7.37 4.17-.54-1.88-3.19-1.63-3.62-3.62 2.85.55 5.43 3.26 8.48 3.62-.19-1-2.77-1.56-2.92-2.64.92-.52 1.63.6 2.5 1 1.37.57 3 .53 4.73.83-1.35-1.08-2.76-1.36-4.45-1.94 2.32.15 4.34 1.59 7.23 1.39 0 .51.19.53 0 1a63 63 0 0 1-6.53-.28c.31.57 1.09.66 1.52 1.11-.44 1.33-3-.06-3.75-.55-.32.41-1.32.17-1.53-.14.74 0-1.26-.58-1.53-1-.11.34.8 1 1.12 1-.41 0 0 .64-.56 1A9.83 9.83 0 0 1 60 75c-.17.26.28.65-.13 1-1.79.21-2.64-1.07-3.76-1.81-1.61-1.07-3.74-1.95-4.72-3.61-.14.91 1.38 2.67.42 3.61-1.58-.6-2-2.36-3.34-3.2.26 1.18 1.43 1.44 1.53 2.78-.45.33-1-.32-.84.56-1.33-.1-2-.88-2.91-1.39 1.08 2.59 4.26 3.32 6.95 4.72 1.9 1 4 2.12 6.25 3.06a15 15 0 0 1 4 1.25c.43.07.37-.37.69-.42 3.56 1.82 7.28.57 10.15 1.39.56-.5 1.93-.19 2.92-.27.12.29.42.41.41.83a1.76 1.76 0 0 1 1.95.69c-.41 1.18-2.14.75-3.2 1-.22.22.13.58 0 1.11a4.41 4.41 0 0 1-2.5.69c.72.68 2.12.66 2.09 2.09-3 1.44-7.31-.72-10.29-1.53-.11.11-.07.49-.41.69a14.13 14.13 0 0 1-6.06-2.64c.38 1.38 2.28 1.45 3.2 2.92-2 .08-3.77-1.32-5.28-2.22.27 1.16 1.21 1.66 1.52 2.78-.34 0-.43.21-.55.42a23.47 23.47 0 0 1-7.78-5.42c-.85-.94-1.2-2.47-2.64-2.78-.24.09-.09.32.14.27-.16.62-1.13-.43-.84-.69-1.18-.44-1.95-1.29-3.06-1.81.86 3.11 3.18 5.54 6 7.37 0-1.7-1.44-3.1-2.22-4.45.79-.51 1.32 1.5 2.08 2 .25 1.57 1.16 3.64 2.92 4.17.33 0 .3-.26.69-.14 5.17 3.84 11.89 5.26 19.74 6.39.44.12.19-.46.55-.42 3.55.81 7.45-.55 10.43-1.11-.67 1.55-2.67 1.78-4.31 2.36-.39.41.45.36.28 1-.68 1-2.12.16-3.06.14-.33.11.38.34.14.83-1.3.73-2.64.24-4 .14-.51.21 0 .62-.42 1-1 .38-2.19-.06-3.2-.14-.27.15.52.4.42.84-1.92.4-3.62-1-5.56-.28-.64 0-.77-.43-1.25-.56.65 1.29 2.15 1.74 3.2 2.64-2 .54-3.68-.47-5.28-1-5.21-1.64-8.54-4.73-11.95-8.48.1-.25.25 0 .41 0-.35-.69-1.29-1.45-1-2.36.79.11.67.86 1 1.39 1.2 2.08 3.32 3.81 5 5.56.26-.06.11-.54.55-.42 1.7 1.22 2.94 2.9 5.28 3.48-1-1.62-1.7-2.7-2.64-4.17-.79.44-1.93-1-2.64-1.53a6.92 6.92 0 0 1 2.23 1.53c.38-.13-.25-.49.13-.7 1.23.17 1.82 1 2.64 1.53.31.08.2-.27.42-.28 1.77 1.84 4.68 2.55 7.64 3.2-.31-1.18-2.71-1.45-3.33-2.78-1.45-.49-4.06-.57-4.45-1.67.58-.3 1.11.48 1.95.7 1.79.46 3.89.84 5.14 1.25a.9.9 0 0 1-.14.69 8.38 8.38 0 0 0 4.73 1c-.1-.92-1.43-.61-1.39-1.66 1.77.14 2.93 1.29 5.69 1a4.23 4.23 0 0 0-.83-.69c-.39 0 .33.37-.28.27a9.14 9.14 0 0 0-4.58-1.25c1.8-.68 3.77.38 4.86-.14-9.23-1-17.88-3.2-24.32-7.36-.39.14 0 .59 0 .83-2.42.19-3.43-2.21-4.72-3.61-.19.09.06.37-.14.69-.2 0-.4 0-.42.14-.64-.15-.9-.68-1.25-1.11-.21 1-.57 2.16-1.81 1.67-.5 1.15.38 2.25-.28 2.78-1-.79-.44-2.69-.41-3.89a15.47 15.47 0 0 0-1.25-2.23c-.44.36-.34 1.24-.56 1.81.19.43.69-.59.83.14.3.31-.36.46-.41.83 1 .61.15 1.9.28 3.2.15.37.16-.56.69-.28.3.85.09 1.37.42 2.09.19.36.47-.78.83-.28-.7 2.72.77 4.49 2.5 5.56.19-.37.22-.9.56-1.12-.28-1.17-2.19-1.41-2-2.64 2.48 1.14 3.52 3.71 6.26 4.59-.2-2.49-2.47-2.91-2.92-5.14.79-.12 1.33 1.14 2.08 1.53 0 .33.26.3.14.69.92.88 1.84 2.21 3.2 2.78.65.27 1.62 0 1.94.7a6 6 0 0 1-4-1.39c0 .58.81 1.26.14 1.66a71.52 71.52 0 0 0 9.71 4.04A93 93 0 0 0 71 105.2a82.32 82.32 0 0 0 15.57 2.08c-.69.64-1.75.46-2.64.42a49.74 49.74 0 0 1-11-2c-6-.57-11.26-3.24-16.4-5-2.9-1-5.69-1.67-8.06-3.47-.14-.18-.14-.51-.28-.7a3 3 0 0 0-1.39-.69c2.19 3.72 7 6.82 11.68 8.89.37-.38-.55-.65-.7-1 .38-.19 1 .53 1.39.83-.37.53-1.24.33-1.81.14a40.71 40.71 0 0 1-5.36-2.84c-.46-.28-.81-.61-.83-1-1.88-.53-3.06-2.84-4.59-4.17a4.74 4.74 0 0 1 .14 1.53c-.53.11-.17-.66-.27-1-2.28-.37-2.86-2.43-4.45-3.48a1.63 1.63 0 0 0-.28-1.39c-1.89 1.79-.06 5-1 7-.76-.58-.74-1.94-.84-3.19-1.63 1.55-2.21 3.15-3.19 4.86 1.25-.27 1.87-2 3.33-2.22.38.65-.54.6-.55 1.25-5.89 4.47-13.68 7-21.13 9.59 0 .26-.44.59-.69 1 .8-.29 2.43-.46 3.89-.83 1-.26 1.78-.81 2.36-.56a2.67 2.67 0 0 0 .42-1 1.14 1.14 0 0 1 .83.27 31.17 31.17 0 0 1 3.76-1.25c.46-.31 1.14-1 1.66-.83 1.53-1.17 4-2 5.56-3.61 1.58-.42 2.24-2.48 3.89-2.37-.46.41-.31.55-.27 1.39-1.37 1.46-1.83 3.83-3.34 5.15.51 1.85-1.74 3-1.81 5.14a76.92 76.92 0 0 0 3.62-5.56c1.06.65-.49 1.66-.42 2.64-.67.18-.51 1.48-1.39 1.81.05.95-1.12 1.82-1.53 2.78.08.28.29.44.42.69.53.2 1-.36 1.25 0 3.27-3.13 6.36-8.88 6-14.45-.1-1.57-1.33-3.28.28-4.17v1.67c.2.4.48-.25.84-.14-.5 2.54-.28 3.66-.42 6.53-.18 0-.22-.25-.42-.28-1.18 4-2.41 9.15-6.11 11.12a25.49 25.49 0 0 0-2.92 5.7c1-.23 1.28-1.14 2.22-1.39-.78.84-1.27 2-2.64 2.22-.25-2.53 1.37-4.37 2.36-6.12-1.39-.34-1.76-1.38-1.66-2.91-1 1-1.37 2.7-2.92 3.19-.19-.18-.09-.65-.28-.83-1 .86-1.59 2.2-3.47 2.22-.12-.34-.27-1.08 0-1.39-1.28.39-3.27 2.6-5.15 2 .32-1.45 1.5-2 2.09-3.2-1.92.91-3.55 2.84-5.56 3.2.41-1.5 2.23-2.77 3.06-4.31-2.08 1.3-4.16 3.35-6.26 4.17.3-1.38 2.35-2.18 3.06-3.61-2.8 1.73-5.56 4.26-9.31 4.58.82-1.77 2.83-2.36 3.75-4a34.55 34.55 0 0 1-7.78 2.5c-1.42.27-3.49.52-4.31-.27a24.77 24.77 0 0 0 6.53-2.37c-2.18 0-7 1.51-7.5-1.11 1.16.5 2.18-.35 3.06-.14a5.88 5.88 0 0 1-2.09.49c3.11 1.44 6.41-.15 9-.56 1.14-.62 2.35-1.89 3.89-1.67-3.22 2.19-6.54 3.41-10.29 5 5.89-.4 10.5-2.1 13.34-6.26-4.54 1-9.15 1.91-13.75 2.92 1.06-.21 2.27-1 3.33-1.25.12 0 .14.28.14.28 3-.83 6.26-1.67 9.31-2.22.8-.15 1.63-.07 2.36-.28 2.39-.69 4.58-1.93 6.81-2.78 1.35-.52 2.89-.52 4-1.53 2.62-.77 5.36-2.14 6.67-3.75-1.79.53-3.85 2.81-6.81 3.06-.29.06-.26-.2-.27-.42-1.73-.09-3.31 1-5 .28 1.08-1.24 2.7-1 3.89-1.53 1.38-.56 2.58-1.69 4.38-2.22-1.43 1.76-4.29 2.31-6.67 3.34a13 13 0 0 0 3.75-.42c1.17-.37 2-1.53 3.2-1.39 0 .68-.52.78-1 1 1.68-.26 3.06-1.43 4.44-2.23a1.6 1.6 0 0 1 0-1.25c2-.41 2.83-3.08 4.17-4.58-.21-.59 0-1.43-.13-2.37-1.31 2.36-2 5.29-4.31 6.67-.3-.29.16-.54.27-.83-.59.33-.78 1.06-1.94.83 0-.57-.24-.87-.14-1.53-.88 0-1.07 2-2.64 1.81 0-.6-.08-1.29.28-1.53-1.56.85-2.59 2.23-4.31 2.92-1.93 2.47-4.89 3.91-7.37 5.84-2.05-.39-5.75 2.43-8.47.41 0-.27 0-.43.28-.41-.6-.39-3.17.27-3.06-1.25a14.46 14.46 0 0 0 6.25-.84c-.35-.16-1.65.06-1.67-.83 1.67-1.39 3.8-2.32 5.42-3.75-2.27.79-4.89 2-7.5 1.94-.3-.4.89-1.1 1.25-.83.71-1.2 1.93-.91 2.64-1.81-1-.42-5.21 1.53-5.42-1a1.55 1.55 0 0 1 1.25.69c3.67 0 6-.54 8.06-2.08-2.86.39-5.41 1.89-8.06 1.67 4.59-1.26 12.1-3.37 16-5.14.33-.15 1.09-1.13 1.39-.42.26 0 .09-.47.28-.56 3.33-1.26 6.7-2.54 9.28-4.54-.23-.31-1-.53-.55-1.11-.95.81-1.27 2.25-2.51 2.77-1.6-1.34.81-3.18.56-4.44-1.43 1.77-2.34 4-4.45 5.14-.53-.3-.52-1.47-.14-2-1 .65-1.92 2.53-3.19 3.34-1.37-1.29.15-4.16 1-5.7-.35-.18-.34.65-.56.14.05.67-2.53 2.67-3.61 4-.52.66-.56 1.31-1.67 1.39a6.86 6.86 0 0 1 .42-2.36c-1.18.91-2.11 2.88-3.61 2.64-.2-1.65 1.2-2.74 1.8-4-.23 0-.54.79-.55.14-.15.27-.28.55-.42.83-2.17 1.12-3.72 3.6-6.25 3.89-.49-1.16.76-1.72 1.25-2.36-1.46.44-2.66 1.34-4 .83-.38-.81.46-.7.69-1.25-2.43.53-4.94 1.73-7.78 1.39v-.41c.93-1.09 3.46-1.24 4.45-1.81-.94-.75-5.52.31-5.7-2.64a26.36 26.36 0 0 0 10.78.58.8.8 0 0 1 .14.56c4.43-.66 7-2.11 10.42-3.61a10.3 10.3 0 0 1-3.47 1.8c1.19.27 2-1 3.47-1 3.75-1.53 6.76-3.8 9.87-6a32.55 32.55 0 0 0 4.31-5.28 12.32 12.32 0 0 1-.14-2.64c-1.08 1.67-1.53 3.89-3.34 4.77a4.27 4.27 0 0 1-.28-2.78c-1.06.56-1.77 2.67-3.19 3.33-1-.29-.57-2.75-.14-3.33-1.51.76-2.7 3.05-4.73 3.75a2 2 0 0 1 0-2.08c-2.13 1-4.72 4.23-7.78 3.89.06-1.29.85-1.84 1.39-2.64-1.69.62-4.59 2.57-7 2.08 0-.22-.13-.24-.14-.41.58-1.58 2.08-1.72 3.2-2.51-.61-.09-1.42.81-2.5.7 0-.28-.38-.27-.42-.56-.13-.69.56-.55.7-1-1.23.18-3.06 1.2-3.62-.28a10.47 10.47 0 0 1 2.51-1c1-.3 2.61-.36 3.33-.56 1.57-.43 3.67-1.58 5.7-1.66a10.7 10.7 0 0 1 3.75-1.25 37 37 0 0 0 12.56-7.59 6.53 6.53 0 0 1-.14-2.08c-.88.88-1.08 2.44-2.64 2.64a3.41 3.41 0 0 1 0-2.23c-1.25.79-1.58 2.5-3.48 2.64a1.33 1.33 0 0 1-.14-1.11c-1.64.65-2.9 1.88-4.58 2.09-.09-.84.32-1.16.55-1.67-2.12.72-4.71 3.08-8.06 3.47.28-1.59 2.49-2.41 3.62-3.61-2.08.59-5 3.52-7.78 2.5 1.58-2.07 4.72-2.68 7.08-3.89-.4-.41-1.2.12-1.53-.14v-.83c-2.55.5-4.65 1.34-6.81.28 0-.22.07-.53-.13-.56 1.07-.86 2.91.19 4.16-.69 1 .25.89-.27 1.95-.28a1.08 1.08 0 0 1-1-1.25c2-.72 3.2-2.27 4.72-3.48-2.28.8-6.73 4.26-9.86 1.25-.16-.93.72-.85.83-1.53a3.16 3.16 0 0 1 1.39.42c6.77-1.23 11.64-4.23 16.57-7.22-1.45.31-3.45 1.27-5.7 1.25a3.32 3.32 0 0 1-.28-.84c4.68.2 7.64-1.81 10.28-4-1.75.16-4.82 3-7.22 1.81-2 .4-3.18 1.64-5.28 1.94-.31 0-.44-.11-.42-.41-.62.28-2.21.93-2.64-.14.17-.67 1.1-.57 1.53-1-1.45.14-4.22-.15-5-1.53 2.13-1.85 5.81-.4 8.89-.56 3.82-.19 8.42-.81 11.26-2.78-.38-.72-.54.62-1.25.42a2.18 2.18 0 0 1-.14-1.81c-.75.7-.95 1.68-2.09 1.67a1.71 1.71 0 0 1 0-1.25c-1.34.29-2.31 2.24-3.75 1.53.27-1 1.09-1.51 1.53-2.36-2.29 1.63-5.11 3.38-8.06 3.89 0-.23-.13-.24-.14-.42a13.62 13.62 0 0 1 2.5-1.67c-1.17.28-4.52 2.13-5.84.56.28-.57.72-.37 1.39-.7-.55-.23-1.27-.3-1.25-1.11.81-.1 1.45.61 1.67 0 .16 0 .12.25.14.42 1.31.11 1.84-.57 2.92-.7-.87-.45-1.47.57-2.5.42 2.38-1.21 6-2 8.47-2.92.15-.32.94-.72 1.12-.55a31.27 31.27 0 0 0 5.69-3.48c.83-.71 1.47-1.83 2.64-1.8a13.83 13.83 0 0 1-6.94 5c1 1.51-1.37 3.11-2.09 4.58 1.76-.05 2.89-2.88 4.86-3.61-.26 1.21-1.3 1.62-1.39 2.64.71-.24 1.54-2.25 2.51-2.22.45 1.17-1.13 1.45-.84 2.92 1.07-.93 1-3 2.37-3.62.23 1-1.79 2.73-.7 3.75 2.81-1.93 2.45-7.62 3.06-11a8.23 8.23 0 0 1-.84.83c-.53-.16-.75-.64-.83-1.25-1.21 2.67-3.55 3.82-5.14 5.84-.44-.23.28-.44.28-.7-1.82.51-3.4 3.13-5.56 1.95-1 .26-2.7 1-4.17.69v-.69c2.54-.75 4.7-1.87 5.83-4-.33-.18-.68 1.2-1.38.69a1.05 1.05 0 0 1 .27-1c-1.3.45-1.47 2.05-3.05 2.22a1.13 1.13 0 0 1 .27-1.32c-1.21.38-2.95 2.12-4.72 1.95 1.1-1.68 2.95-2.61 4.31-4-1.93.8-3.22 2.25-5.56 2.64-.26-.25-.62-.41-.56-1 1.79-1.84 5.52-2.12 7.23-3.62.35.11.44 0 .69.42 3.7-1.58 7.72-3.58 9.73-6.39 1.51.14 1.66-1.84 1.53-3.76-.63.95-.31 2.85-1.81 2.92-.37 0-.47-.36-.55-.69-.52.27-.43 1.15-1.11 1.25-.5 0-.69-.66-.42-1-1 .33-.66 2.26-1.95 2.64-.31-.34 0-.84.14-1.12-.91 1-2 2.52-3.19 2.78-.41-.34-.1-.46 0-1a9.41 9.41 0 0 1-2.92 1.81c-.37-.9.79-1.17 1-2-1.17.55-1.9 2.25-3.47 2-.19-1 .95-1.69 1.39-2.5-.44-.47-.76.52-1.26 0 0-.16 0-.25-.13-.28.21-.74 1.3-.31 1.66 0A7.61 7.61 0 0 0 31.68 21c.52.77 1.52-1.25 2.51-1.8.26-.15.54 0 .69-.14a17 17 0 0 0 4.59-4.45c-.72 1.17-2.15.83-3.2 1.53-1.94 0-4.54.44-5.28-1.67 1.33-.28 2.85.72 4.31 0 .84-1.06 2.46-1.34 3.06-2.64-1.28-.39-3.38 0-4-1-.06-.42.45-.29.69-.42-.75-.83-2.37-.77-2.64-2.08a4.4 4.4 0 0 1 2.08.55c-.76-1.09-2-2.33-1.8-3.61.83-.14.89.5 1.39.7.17-.64-.38-.55-.28-1.12 1.19-.21.81 1.06 1.67.84.24 2.63 2.32 3.42 3.89 4.72.38-.35-.77-.9-.28-1.39.65-.14.37.65 1 .56-1.3-1.31-.32-4.3-.55-6a.94.94 0 0 1 .69.14c.32-1-.27-1.94-.14-3.19.66.15.67-.36 1-.56.71.94.55 1.9.55 3.2.71-.62-.11-2.22 1-2.64-.21 1.38-.22 2.69-.41 4.44.11.34.57-.43.83 0a5.62 5.62 0 0 1-.53 2.12zM31.68 114.37a18.55 18.55 0 0 0 3.9-6.39c-.72.21-1.07.79-1.81 1-.06-.26-.4-.25-.28-.69 3-1 4.62-4.15 5.28-6.67-.35.21-.83 1.11-1.11.55-3.34 3.06-8.14 5.22-12.51 6.81-1.53 2.49-3.27 4.79-4.86 7.23.94-.76 2.19-1.09 3.2-1.81.42-.3.91-1.53 1.52-1 1.19-1.5 1.75-3.63 3.34-4.73.13.25.51.23.56.56-.88-.18-2.28 2.14-1.53 2.22-1.76 1.54-2.83 3.76-4.31 5.56a15.69 15.69 0 0 0 4-1.94c1.07-.86 1.18-2.4 2.36-3.2 1.43 1.32-1.64 2.38-1.39 4.31a3.37 3.37 0 0 0 2.09-1.67c1.54-.69 1.4-4.24 3.47-4.86-.29 1.81-2.04 2.92-1.92 4.72zm-9-28.63a28.9 28.9 0 0 1-6.11 1.81c-.47 1.43-4.1 1.53-4.31 3.2.89-.59 2.1-.54 3.06-1 1.28-.58 2.38-1.83 3.47-1.53-1.58 1-3.51 2.33-4.17 3.76a35.53 35.53 0 0 0 8.03-6.24zM41.83 11c.46-.89 1.19-2.24 1-3.34-.44.48-.45 1.4-1.11 1.67-.53-.15-.35-.57-.14-1a.59.59 0 0 1-.58-.27c.93-1.38.31-2.35.55-4-.54.1-.75.55-1 1 .12.59.94 2.39-.28 2.64-.07.51.53 1.61-.14 1.81a6.65 6.65 0 0 1 .7 3.06c.31-.21.71-1 1.11-.28.09-.38.84-.82.55-1.11-.02.25-.73.07-.66-.18zm-6.95-1.41a11.93 11.93 0 0 0 2.36.83c0 .19-.19.27-.14.56a2.52 2.52 0 0 0 1.53-.14c-1-1.1-2.34-1.83-3.05-3.2-.86.44-1.42-1.11-1.95-1 .49 1.15 2.28 1.81 1.25 2.95zM40 12c-1.7.61-2.36 2.27-4 2.92 1.36.7 1.64-.82 2.78-1.11.11.26.42.09.14.41a3 3 0 0 0 1.53-1.52c-.17-.27-.45-.34-.45-.7zm2.78 3.89c-.1 1 .71 1.65 1.25 2.36.11-1.22-1-3.22-.83-4-.53-.3-.78-.89-1.39-1.11-.08.86-.07 2.69.99 2.7zm2.23 1a1 1 0 0 1-.14-1.12c-.25-.12-.41-.33-.7-.41.2.45.51 1.56.83 1.46zM38.91 20a9.85 9.85 0 0 0 1.39-4c-1 1-2.5 1-3.47 2.22.55.68-.86 1.51-.14 1.95.31-.94.38-2.12 1.39-2.36.53.64-.6 1.4-.28 1.8.26-.33.29-.91.83-1 .75.09.04 1.61.28 1.39zm8.62-2.36a1.68 1.68 0 0 0-1.67-1 3.39 3.39 0 0 0 1.67 1.01zm-3.34 1.81c-.57-.63-.9-1.51-1.53-2.09a11.07 11.07 0 0 0-.55 3.89c.85 1 1.59 2.41 2.5 3.34.3.31 1.25.27.83 1-1.61-.89-2.58-2.42-3.75-3.75-.31.51.17 1.06-.14 1.67.83.78 1.77 1.47 2.64 2.22.06-.27.05-.6.42-.56.39.57 1.57 2.41 1.94 1.25.47.14 1 1 1.39.7-.83-.38-1.46-1.52-2.08-1.67.31-.78-1.71-1.16-1.11-2.22 1.23.73 2.29 2.73 3.47 2.64-.34-.18-1-.79-.55-1.25 1.16.47 1.81 2.15 3.33 1.8 0-1.3-2.13-1.2-1.67-2.5 1.4.56 1.94 2 3.62 2.23-.09-.61-1.35-.9-.56-1.53a6.07 6.07 0 0 0 3.34 1.67c0-1 1.86.31 2.22-.56a77.84 77.84 0 0 1-14.73-5.84c.19.64.81.86 1 1.53-.94-.82-2.21-1.77-1.53-2.78.68-.03 1.09.99 1.5.82zm-11.39 3.9c1.2-1.06 2.79-2.49 2.78-4.35a10.08 10.08 0 0 0-2.78 4.35zm-2.5.65a4.64 4.64 0 0 0 2.64-3.19A8.41 8.41 0 0 0 30.3 24zm7.5 0c1 2-1.37 3.92-1.53 6.12C38.19 28.5 39 25 39.75 22.65c-.54.59-.9 1.74-1.95 1.35zm-10.28.84c.71-.77 1.57-1.15 2.36-2.09-1.07.37-2.49 1.07-2.36 2.13zm11.39 4.3c1.41-1 1.68-3.87 1.53-6a19.1 19.1 0 0 0-1.53 6.04zM41 26.27v.83c1.22.3-.68 1.3.41 1.67.52-.69.16-1 .28-1.81a1.35 1.35 0 0 0 .83-.42c-.81-.12-.78-1.06-.41-1.66-.29-.09-.45-.3-.7-.42 0 .54.41 1.82-.41 1.81zM25.15 32.8c2.08-1 3.91-2.83 5.84-3.48.18.35-.41.58 0 .7.47-.67 1.19-.22 1.95-.56.33.15-.3.64.13.84a2.32 2.32 0 0 1 1.26-1.67c.52.91-1.08 1.81-1.12 3.05a17.07 17.07 0 0 0 4.31-7.08c-2.58 1.54-5.43 3.39-8.34 4.17-.56 1.5-3.29 2.7-4.03 4.03zm21.68 1.53c-.57-2.31-2.35-4.13-2.64-6.26a.39.39 0 0 0 .56 0c1.61 2.51 2.94 5.3 5.83 6.53-.45-1.12-2.69-1.77-1.94-3.19 1.25 1.06 2.11 2.52 3.75 3.19 0-.37-.08-.82.28-.83 2.17.95 4 3.11 6.25 1.81-5-2.53-11-4-13.89-8.62-.85-.26-1.32-.91-2.09-1.25-.19.55-.1 1.38-.55 1.67 0-.08-.12-.16-.14 0 1.26 2.62 2.49 5.2 4.58 6.95zM32.94 32.8c-.54-.12-.28-1-.56-1.39-.23.54-.23.42 0 1a38.3 38.3 0 0 1-4.73 3.06 14.26 14.26 0 0 0 5.29-1.95c.27 0 .17.38.55.28 1.72-1.09 5.09-2.67 4.59-5.28-.46 1.17-.88 2.36-2.23 2.64a.68.68 0 0 1-.41-.42c-.18-.56.39-1.07.14-1.25-.9 1.06-1.33 2.63-2.64 3.31zm9.17.14c.69-.11.08-.65.55-1a29.94 29.94 0 0 1-1 4.87c.53.86.76 2.75 1.67 2.78.1-.94-1.23-1.79-.7-2.64 1.52.51 1.75 3.06 3.2 3.19-1.09-2.32-1.77-4.27-3.2-6.11.19 0 .13-.25.28-.28 1.69 1.42 2.3 3.91 4.17 5.14-.33-1.32-1.39-3-1.25-3.89-1.28-.9-1.76-2.59-2.92-3.61 0 .16 0 .39-.14.41-.47-1.11.55-1.76-.28-2.5a21.06 21.06 0 0 1-.38 3.64zm-13.2-1.12c.43-.63 1.68-1.18 1.66-1.8-.4.66-1.65 1.21-1.66 1.8zm-6.4-.27a25.74 25.74 0 0 0 2.78-1.39 7.5 7.5 0 0 0-2.78 1.39zm9.31 4.86c-.11.39.2.36.14.69-.33-.05-.3.26-.69.14-1.06 1.63-3.65 2.47-4.59 3.76 2.91-1.27 6.2-2.89 7.23-5.56a4.94 4.94 0 0 1-2.09.97zm-1.94 1.25c.06 0 .74-.52.42-.69a23.11 23.11 0 0 1-4.17 1.25c-.09.53.57-.12.69.41-.91 1.13-3.1 1-4.17 1.95a15.66 15.66 0 0 0 7.23-2.92zM46 39.47c.25-.71-.89-1.74-1.11-1.95A21.84 21.84 0 0 0 46 39.47zm-4.17-.14c-.31-.41.19-1-.56-1.11 0 .62-.28 1-.14 1.66.17-.2.12-.62.56-.55 0 .08.11.16.14 0zm.28 1.25h.41a1.4 1.4 0 0 0-.41-.84c.15.44.01.32 0 .84zm10.42 2.92c-.86-.53-1.88-.9-2.36-1.81-1.14 0-1.76-1.89-2.64-1.25 1.61.98 3.23 2.7 5 3.06zm-3.47 8.2c-.19-.88-1.08-2.23-.56-2.92 1.46.85 1.37 3.26 3.06 3.89-.07-.93-1.36-2-.42-2.64.67.62 1.1 1.49 2.09 1.81-.65-1.36-1.12-2.87-2.37-3.62-.16-1.24-2-1.45-1.67-2.78.45-.16.73 1 .84.28a1.81 1.81 0 0 1-.42-1c-2-.64-3.48-1.89-5.14-2.92-.92.45-1.45-.68-1.95-1.11a36.66 36.66 0 0 1-.13 3.75c1.43 2.12 2.44 5.89 4.86 7 0-1.29-1.67-2.93-.7-3.89a11.45 11.45 0 0 1-2.91-4.31c-.42 0-.74-.92-.28-1 .94.71 1.18 2 1.8 2.91s1.44 1.74 2.09 2.65c.43.17 1 .21 1.11.69-.69.22-1.12-.54-1.39-.28.64 1.13.92 3.35 2.09 3.49zm-10.29-9.87c.51-.09.69-.51 1-.83-.54.09-.72.51-1 .83zm-2.08 3.33c0-.71 1.37-1.45 1.11-1.52-3.95 2.16-7 5.2-11.26 7.08-1.15 3-3.87 4.37-6 6.4a22.56 22.56 0 0 0 7.64-6c.2.08.72-.16.7.14-.61 2.32-3.26 3.33-3.34 5.7 1.48-1.17 2.71-2.57 4.17-3.76.48-1 1.19-3 2.36-2.5-.39 1.24-1.92 2.07-1.8 3.34.86-1.26 2.46-2.54 2.91-3.75-.05.19-.7.47-.83.14 1.95-1.53 4.57-2.39 5.7-4.73.35.18.43-.55.55-.14-.6 2.21-1.6 4.09-2.05 6.55a.75.75 0 0 1 .55.14c.34-1.42 1.84-2.47 2.09-4 .2-1.29-.76-2.51.14-3.33.6.58-.1 1.62.42 2.22.62-.7 0-4.35.55-5.56-1.24 1.26-3 3.53-4.72 4.31.36-.24.61-1.08 1.11-.73zm-1.39-3c-2.72 1.13-6.51.61-9.31 1.8a7.4 7.4 0 0 1-2.64 1.67c1.3.26 3.56-2.32 5.14-1.8-.63 1.13-2.33 1.19-3.34 1.94 2.53-.65 4.72-2.13 7-2.64.19.52-.58.8-.28 1 1.07-.53 3.63-1.31 3.43-2.02zm-16.12 1.48c2.39 1.69 5.34.28 7.22-.42a22.35 22.35 0 0 0-7.22.42zm36.55 7.64c-.27-1.4-1.8-1.54-2.23-2.78 1.2-.39 1.85.91 2.92 1.11 0-.4 0-.76.42-.69 1.53.27 2.4.79 4 .69a5.58 5.58 0 0 0-4.17-2.36 17.28 17.28 0 0 1-6.53-2c1.86 1.99 2.57 5.75 5.59 6.03zm-21.4-1.53c.29 1.32-1.61 2.38-1 4a44.55 44.55 0 0 0 3.48-5.56c0-.17 0-.33-.28-.28-.35 1.28-1.53 1.09-2.2 1.84zm5.42-1c.44.19.35-.83.13-.84.01.36-.24.44-.13.87zm-3.34 5.28c-.35 0-.43-.22-.7-.28-6.29 3.5-13.25 4.32-19.87 5.84 2.9.34 5.5-1.17 7.78-.84-.34.45-1.55.76-1.52 1.12 1.14-.11 2.19-1 3.33-.7-2.51 2.13-6.52 2.75-9 4.86 4.18-.87 7.19-3.11 10.28-5.55.16 0 .22.15.28.27-1.39 2.51-4.18 3.6-6 5.7 3.43-1.2 6.67-2.6 8.62-5.28.09.19.53 0 .56.28a18.48 18.48 0 0 1-2.09 3.19c1.49-.45 2.48-1.41 3.89-1.94.61-1.07 1.12-2.22 2.37-2.64 0 .2.22.23.27.42-.57 1.18-1.82 1.7-2.08 3.19a7.57 7.57 0 0 0 3.75-5.42c-.08 0-.89.63-1.11 0 1.45-.22 1.88-1.45 3.2-1.8-.09-.74 1.35-.68.69-1.53-1 .5-2.23 2.52-3.75 2.5 1.37-1.86 5.46-3.06 3.89-6.12-.95 1.6-1.2 3.8-2.79 4.76zm-2.22-.28c.58-.15.79-.69 1.52-.69a18.13 18.13 0 0 0 .42-2.51c-.57 1.01-1.77 2.79-1.94 3.23zM15.56 55c2.32 1.11 4-.21 5.7-1s3.35-1 3.89-2.09c0-.17 0-.33-.27-.27-2.38 1.9-6.38 2.11-9.32 3.36zm13.9.42c-.37-.14-.14-.88-.42-1.11-.68.84-1.56 1.49-2.22 2.36 1.61-.17 3.83-1.34 5.7-2.09-.5-.8.34-1.88 0-2.5-.92 1.25-1.68 2.62-3.06 3.37zm10.84-1.5c-.13.24-.46.28-.55.56.51 1.69-1.91 4.71-.84 6.53 1.54-2.06 3.1-6.16 1-8.48-.35.9.2.74.39 1.39zm-13.76-.28c-2 1.53-3.69 3.44-6.25 4.45 1.81-.13 2.4-.64 4.17-.84.27-1.44 2.03-2.87 2.08-3.61zm10.56 2c.33 1.76-1.36 3.62-1.11 5.56.67-.5.89-1.43 1.67-1.81.34-1 .78-2 1.11-3.2.14-.49.38-1.22.14-1.53-.54.25-1.46 1.34-1.81.93zm25.44 1.25a5.83 5.83 0 0 0 5.42-1c.21 0 0-.23-.14-.28-1.21.85-3.98.91-5.28 1.23zm-21 3.33c.38-.1.28.28.56.28-.08-1 .15-2.76-.28-2.64a8.42 8.42 0 0 1-.27 2.31zm13.06 7c.24 0 .35-.15 0-.14-2.36-1.8-5.19-3.14-7.36-5.14-1.93-.66-3-2.21-4.45-3.33v2.08a109 109 0 0 0 11.82 6.43zm-25.42 2.13c-.57-.33-1.59.56-2.22.83a90.62 90.62 0 0 0-10.28 4.72c-.78 1-2.37 1.16-2.92 2.37 3.11-.22 5-1.72 7.22-2.78.39-.79 1.4-1.11 2.09-1.67s1-1.62 1.94-1.25C23.55 74 20 74.94 19.59 78c2.95-1.43 5.78-2.93 7.79-5.28.62-.74.94-2.16 2.08-1.81-.54 1.73-2.6 2.68-2.36 4.73 2.34-2 4.83-3.88 6.11-6.95 1.1-.05 1.66-1.84 2.64-1.11a4.69 4.69 0 0 1-1.94 1.11c0 2.3-3.26 3.31-2.36 6.53C34 73.3 35 70 36.83 67.54c.38 2.21-2.21 3.8-1.81 6.95a19.09 19.09 0 0 0 4.17-7.79c-.06-.26-.4-.25-.28-.69.61-1 1.59-2.3 2.64-2.36-.52.82-1.31 1.37-1.8 2.22 1 1.43-1.87 4.47-.84 6.81.17-.25.73-.11 1-.28.07-1 .71-1.42.84-2.36-.7-.16-.92-2.3.41-2.22 0 .8-.38 1.09-.13 1.53a5.18 5.18 0 0 0 .27-2.78c-.3.2-.22.79-.69.83-.17-1.09.84-2.32 1.67-3.2-.37-1.79-.68-3.2-1.56-4.2a7.86 7.86 0 0 0-1.11 2.09c.56.38.7.11 1.39 0a2.66 2.66 0 0 1-.14 1.11c-1.55.54-2 2.87-3.48 3.06.56-1.67 2.87-2.09 2.5-3.89A68.66 68.66 0 0 1 26.26 71a14.84 14.84 0 0 1 2.92-1.65zm3.06-2.09c2.41-.74 3.59-2.88 6-4.17-.15-.47.6-.82 0-.55-5.11 5-13.22 7.59-20.71 9.72.32 0 .52 0 .56.28-1.06 1.07-3.25 1-4 2.36 2.35-.65 4.62-1.4 6.11-2.91 3.51-.82 6.69-2.75 9.59-3.34 0 .14-.11.17-.14.28.74-.6 2.35-1 2.59-1.67zm31.27-4.72A14.26 14.26 0 0 0 58 61c1.6.57 2.71 2.14 4.72 2.08C62 62.82 60.93 63 61 62c1-.07 1.9.68 2.51.54zm-21.12 7.64c0-1.14.69-3.5 0-4.86.25 1.68-1.15 4.09 0 4.86zm8.89 2.64c.2-3.49-2.65-5.48-5.28-6.39 1.89 2 3.27 4.51 5.28 6.39zm-6.53-1.67a22.12 22.12 0 0 0-1.25-2.22c-.07 2 0 5.16 2.5 5-.63-.71-1.76-1.67-1.53-2.78zm10 11.4c0 .39-.38-.33-.27.28 1.52 1.74 3.52 3.76 5.69 4.44-1-.47-1.41-1.7-2.22-2.36-.48-.39-1.65-.35-1.39-1.39 3.11.87 5 3.68 7.78 3.75-.63-.48-1.75-.47-2.22-1.11a2.89 2.89 0 0 0 1.25.42c-.37-1-2-.78-2.22-2 .44-.52 1.14.32 1.52.7 1.64.4 2.43 1.65 4.31 1.8.08.21.21.35.28.56 2.69.52 5.59 2 8.06 1-2-2.24-6.41-2-9-3.61C69.17 84.27 73 88 76 85.6c-2.08-.36-5.14.17-6.54-1.66.2 0 .16-.31.28-.42-4.19-.36-7-1.39-10.84-2.78a44.94 44.94 0 0 1-5.83-2.36c-2-1.09-4.05-1.82-5.42-2.78-1-.73-1.08-1.38-2.09-.7 6.84 4.61 15.27 7.27 22.65 9.18-.18.13-.27.37-.55.41-2.17-.72-4.37-1.55-6.67-2.22-5.66-1.65-11.1-3.71-15.71-7 0-.33.26-.3.14-.69a5.23 5.23 0 0 1-1.8-1.12 9 9 0 0 0 .14 2.09c1.94 1 3.68 2.82 5.55 4 1 .62 2.4.91 2.78 1.94-3-1.46-5.47-3.5-8.47-5.55-.07.37.64 1.82-.56 1.66-.17-1.75.09-4.41-.56-5.56-.37-.37-.34.36-.83.28-.33-.5-.29-1.37-.56-1.94-.59 1.72-1.19 3.44-2.91 4 0 .34-.26.43 0 .69A40.9 40.9 0 0 1 27 84.08c-.08 2.14-3.21 3.51-3.75 6.11 2.23-2.08 4.72-3.9 6.11-6.81.52.39.16 1.17-.28 1.39.43 1.79-2.32 3.37-1.52 6 1.16-1.06 1.93-2.52 3.19-3.48.48-.78 1.05-2.65 2.23-3.19-.68 1.82-1.84 3.16-2.23 5.28 2.68-1.45 4.16-5.3 5.84-8.2-.35 0-.44.26-.56-.14 2.44-2.34 3.26-6.29 6.12-8.2.35.43-.32 1.41-.7 1.11a50 50 0 0 1-3.47 5.42c-.16 1.83-1.87 2.86-1.81 4.45.43-.22.44-.86.84-1.11.1.35-.55.64-.14.83.21-.75.7-.56 1.11-.56.2-.49.17-1.22.69-1.39.79 1.65-1.32 3.48-.83 5.29 2.31-1.29 1.59-3.41 2.08-6.12.33.54.24 1.63.42 2 1.19-2 1.1-5.25 2.22-6.81.95 2.56-2.75 5.89-.13 8.33.39-.07-.06-.14.41-.27-.06.94 0 1.73.7 1.94 1.81-2-1.92-4-.7-5 1.26 1 1.33 3.12 2.78 3.89.21-1-.29-1.28-.69-1.67 0-.27.38-.17.27-.55-.66-.38-.87-1.27-1.25-2s-1.08-1.34-1-2.08c.63.18.44 0 .84-.28 1.42 1.18 2.72 1.63 4.16 2.78 0-.81-1.26-1-.55-1.67 1.91 1.89 3.11 4.48 5.84 5.56.1 2 2.7 2.67 4.3 3.61-.82-2.83-3.57-5.17-5.28-7.08a5.8 5.8 0 0 1 2.49 1.09zm-40.58-9.31c.83-.29 3-.67 2.09-.7-1.15 0-2.08.71-2.92.56-.29.54-1.31.35-1.67.83.84.21 1.69-.41 2.5-.69zM75.6 83.52a7.33 7.33 0 0 0-3.75-.14c1.21.17 2.68.62 3.75.14zm-40.86 5.14c1.06-.93 1.39-2.6 2.36-3.61-.15-.75 1-1.56.42-1.81-1.07 1.57-2.87 3.15-2.78 5.42zM69.9 83.8c.8-.1 1.08.72 1.81 1 2.09.73 5-.12 6.81-.56-2.63.04-6.09-.58-8.62-.44zm-47 2.64c-1.38 1.5-2.65 3.13-2.9 4.56a22 22 0 0 0 6-6.53 6 6 0 0 0-3.07 1.97zm27.38 1.39c-.3-1-1.83-1.6-2.37-2 .76.68 1.46 2.05 2.4 2zm-39.19 0c-3.35.57-5.34-.34-7.65-.7 1.65 1.35 5.56 1.38 7.68.7zm8.61 8.75c2.12 0 3.62-.78 5.84-1 1.36-.48 3.42-1.63 4.59-1.39-.1-.5.21-.43.41-.56 2.68-1.65 6-2.62 7.92-5.14.48-.08.65-.46 1.26-.41-.09-.34.17-1-.14-1.12-4.89 4.56-12.97 6.65-19.85 9.62zM5 90.89a25.31 25.31 0 0 0 9.17-2.65C10.86 89 7.73 89.38 5 90.89zm27.38 3.61c.75-1.12 2.76-1.89 3.47-3.06a37.94 37.94 0 0 1-11.25 4.73c-3.61 2.65-7.21 5.21-10.7 7.64 5.75-.27 9.24-4 13.34-6.39A5.2 5.2 0 0 1 30 95.33c-.14-.76.56-.53.69-.14a24.5 24.5 0 0 0-3.19 4.73c1.6-1 3.19-1.86 4.3-3.34.7-.93.81-2.2 2.09-2.36 0 .2.23.23.28.42-.8 1.34-2.29 2-2.51 3.89C34 97.58 34.11 94.38 36 93c0 .27.19.28.28.42-.76 1.6-2.14 2.58-1.94 5.14 1.86-1.3 3.83-4.63 4.86-7a4.09 4.09 0 0 0 .42-3.34c-2.27 2.17-4.33 5.26-7.24 6.28zM41 89.91c-.59.65-1 2.41-.28 3.2A3.76 3.76 0 0 0 41 89.5c-.06.19-.17.23 0 .41zM35.85 98c.48.13 1.09-1 1.53-1.8a7.49 7.49 0 0 0 1.11-2.64A41.56 41.56 0 0 1 35.85 98zm41.83-3.33a4.32 4.32 0 0 0 4.17-.84c-1.53.35-2.85.5-4.17.81zM64.2 99.78c-1.86-1.42-3.54-3.78-5.83-4.31 1.63 1.82 2.83 4.68 5.83 4.31zm13.48-4h-1.8c.33.32 1.24 0 1.8.14.41.07 1.42.48 1.53 0-.21-.37-1.21-.43-1.53-.17zm-61.56 8.34c-.94 1.42-3.48 1.24-5.14 1.94a23.25 23.25 0 0 0 2.64 0c1.13-.18 2.32-1.21 3.06-.41-1.31.78-4 .69-5 1.39 6.88 1.17 11.22-3.29 14.87-6.67.73-1.37 1.68-2.5 2.37-3.9.14 0 .1-.17-.14-.13-3.54 3.25-7.36 6.24-12.66 7.75zm3.89-7a22 22 0 0 1-3.75 1.94c-1.31.66-2.72 1.32-3.34 2.23 3.44-1 7.63-2.18 9.45-4.59-.66.4-1.86.3-2.37.44zm16 14c.25-.67 1.84-1.44.84-2.08-.09 1.11-1.09 1.17-.85 2.13zm-17.92 4c2.24-1.77 4.66-2.52 5.55-5.55-2.18.26-3.4 1.2-6.39 1.25-2.28 2.16-4.35 4.53-6.67 6.67a25.86 25.86 0 0 0 6.81-3.48c1.59-1.21 2.7-2.93 4.31-3.75-.7 2.12-2.85 3.46-3.63 4.94z" fill="#2b5849" fill-rule="evenodd" data-color="1"/>
            <path d="M63.23 43.08c.16 0 .08.14 0 .14.26.18.61.62.28 1-.44-.22-.74-.81-.28-1.14z" fill="#2b5849" fill-rule="evenodd" data-color="1"/>
            <path d="M56.84 111.45a18.76 18.76 0 0 1-5.42-7.78c1.17 1 2.14 2.09 3.33 3.06a18.32 18.32 0 0 0 4 2.36c-.13-.89-1.81-1.42-1.8-2.92.83 0 .92.75 1.25 1.25a15.1 15.1 0 0 0 8.47 3.48c-1-1.92-3.71-2.13-4.58-4.17-1.07-.46-2.27-.79-2.5-2.09a11.87 11.87 0 0 0 4.86 2.5 8.12 8.12 0 0 0 3.48.14 17.12 17.12 0 0 0 8.07 2.37c.37-.48-1.1-.3-1.12-.84 1.73-1 4.26.86 5.84.14.6.09 1.28.11 1.53.56a8.13 8.13 0 0 1-3.89-.14c-.33.26 1.26.31.69.83a24.11 24.11 0 0 1-7.64-.83c.32.65 1.31.64 1.39 1.53-1.67.77-3.76-.37-5.28-.42-.35.26.13.49-.14.83-2.32.36-4.9-.92-6.39-1.39-.13 1 2.07.9 2.36 2-.39 1.3-2.43.39-3.47.69 1.15 1.35 3.1 1.9 5.14 2.37-1.35 1.28-4.29-.79-5.84-1.11 1.48.67 3.16 2.69 5.28 3.19.83.2 1.81-.31 2.36.56-8.61-.17-13.57-2.61-18.06-7.09a18.64 18.64 0 0 0 3.75 5.7c-2 .36-3.86-2.07-5.42-3.06.54 1.87 3.42 2.6 4.31 4.59-3.62.23-5.16-2.81-7-4.87-.54 2.56.64 6 .83 8.76.42 5.73.38 11.78.56 17.79.21 7.07.45 16.2.56 24.31.16 12.27.21 25.29 1.25 36.69-1.52-.39-.91-2.3-1-3.19a18.31 18.31 0 0 1-.27-2.92c-.88.58-.43 3.68-.42 4.86-.43-.13-.46-.65-.56-1.11a2.3 2.3 0 0 1-1.39.42c0-.59 0-1.17.42-1.25s.23.6.69.55c.15-1 .75-3.06.28-3.75.5-.31.67-.23 1 .14-.41-3.87-.46-7.14-.56-10-.46.14-.07 1.14-.56 1.25-.3-1.19.49-2.17-.69-3.19v-2.78c.2-.12.54-.11.42-.56a29.24 29.24 0 0 0 .69 4.87c-.56-19.26.17-35.14-1.39-53.09 1-1.7 0-4.35 0-6-.56 1.83-.16 3.93-.14 5.84 0 2.48-.22 3.06-.14 6a101.87 101.87 0 0 1-.27-10.7 46.66 46.66 0 0 0 .27-7.51c0-.31-.34-.35-.41-.69-.38-1.7.31-4 .27-5.7-.54-.32-.2-.65-.41-1.25 1.15-1.59 0-4.3.41-6.25 1.09 1.22.26 4.37 1.81 5.14 1.68-2.7-1-4.48-1.25-7 1 0 1.21 1.92 2.08 2.5.63 2.52 2.49 3.81 4.17 5.28-.12-1-1.42-2.59-1.66-3.47-2.68-1.69-2.53-6.19-4.87-8.2 1.63.06 2.19 2 2.92 3.19 1.14 1.85 2.86 2.79 4.45 4-1.85-.48-2.5-1.44-3.75-2.36 1.46 4.27 4.8 6.59 9.1 7.94zm1.25.7c-.1.27-.78 0-.83.28 1.1.24 2.24 1.18 3.19 1.11-.65-.7-2-.72-2.08-2a12.22 12.22 0 0 0 4 .42 4.55 4.55 0 0 0-2.5-1.11c-.13-.25-.39-.36-.28-.84a30.44 30.44 0 0 1-6.26-3.61c.76 2.8 3.49 3.54 4.76 5.75zm9.45-4.45c-1.55 0-3.21-.51-3.61-.28 1.88 1.69 4.45 3.42 7.92 3.06-1.39-1.05-2.85-1.62-4.31-2.78zm-19.32 1c-.66-.17-.66-1-1.39-1.11 0 1.39-.21 2.57-1.39 2.78A22.34 22.34 0 0 0 51 115.2c-1.3-2.07-2.27-4.48-3.75-6.39.26-.53.8.07.97-.14zm5.7 2.64c0-.18.24-.12.28-.27-1.26-.65-2.46-1.35-3.62-2.09.28.7.87 1.08.84 2.09-.74.27-1-.62-1.39-.28a21.17 21.17 0 0 0 10.28 5.7c.28 0 .18-.38.56-.28.07.49 1.12.73 1.53.41a38 38 0 0 1-4.59-3.33 27.16 27.16 0 0 1-3.89-1.98zM50.31 117a20.54 20.54 0 0 1-5.31-6.38c-.11-.38.27-.28.27-.56-.47-.08-.49-.61-.83-.83-.3 3.77 2.88 6.9 5.87 7.77z" fill="#2b5849" fill-rule="evenodd" data-color="1"/>
            <path d="M55.87 102.28c-1.31-.79-3.33-1.41-4.31-2.08a9.83 9.83 0 0 1 4.31 2.08z" fill="#2b5849" fill-rule="evenodd" data-color="1"/>
            <path d="M42.8 121.74c-.5 1.25-.13 2.63-.28 3.89-1-1-.36-2.46-.27-4.31-.14-.42.31-.25.55-.28-.24-1.09.21-1.86 0-2.92-.64 1.17-1 2.61-1.67 3.76.18.33.09.93.56 1 .14.79-.3 2.15.28 2.5-.24.13-.28.57-.56.28.91 7.13.57 14.15.42 21.26s-.31 12.08.17 19.84c.24-.5.28-1.2.69-1.53.41 1-.11 2.17 0 3.2s.7 2 .14 2.78c-.62-1-.37-2.87-.69-4.17 0 8.18.69 17.17.55 25.43.18.39.29-.44.7-.28-.22.21-.12.72-.14 1.12.22-.2.34-.5.83-.42-.09.29-.36.62-.14.83.24-.18.18-.66.56-.69-.45-1.31-1.23-5.05-.14-6.81-.16 2.44-.39 5 .56 6.53-.67 1.37.07 1.89-.28 3.33-.56-.33-.46-.63-.56-1.25-.56.49-.48 0-.69-.41-.65.44.32 1.34.14 2.22-.5.05-.34.38-.84.14-.14 1.18.67 1.81-.14 2.64-1.09-.58-1-2.48-1-3.75 0-4.3.18-7 .14-10.7-.14-13.28-1.29-26.12-.83-38.08.3-7.85.21-15.72-.28-23.76-.47 0-.48.45-1 .41a8.07 8.07 0 0 1-.14-5.28c-1 .42-1.41 2.58-3.06 2.78-.51-.55-.23-2 .14-2.78-.2-.36-.37.46-.42.7-.45-.56.32-1.07.7-1.25.72-1.46.74-3.61 2.36-4.17-.38 2.07-1.92 3.94-2.36 6.39 1.19-.06 1.58-2.12 2.78-2.64a21 21 0 0 1 1.8-5.28c.33-.34.26.21.7.14-.1-1.17-.7-2.52-.56-3.48 2 1.29 1.58 5 1.53 7.92 0 1.26.73 2.72.14 3.48-.43 4.9.67 7.41.14 11.81 0-.08-.1.76-.14 0v-1.11c-.32-3.31-.25-5.67-.39-9.03zm-2.22-5.42c1.23-.21.11 3 .69 3.89.93-1.88 1.71-4.52.7-6.95-.25 1.23-1.07 1.9-1.39 3.06zm-.58 6.25c.85-1 .23-3.24 0-4.45-.18 1.23-.55 3.31 0 4.45z" fill="#2b5849" fill-rule="evenodd" data-color="1"/>
            <path d="M33.77 117.29c-1 1-2.22 3-3.75 3.89-.36-1.12.61-2.06 1-2.92-1.35.77-2.21 2.65-4 2.5-.08-.45.09-.64.14-1-1.05.36-2 1.52-3.34 1.11.17-1.61 2.2-2.51 3.76-3.19 0 .22.13.24.13.41-.74.62-2.51 1.24-3.19 2.37.47 0 1-.66 1.39-.28.25 0 .08-.47.28-.56 1.67-.09 2-2.2 4-2.36-.35 1.32-1.88 1.46-2.37 2.64 1.34-.2 2.56-2.11 3.76-2.5.7-1.08 1.46-2.77 2.78-2.78-1 1.83-2.7 3-3.34 5.14.69-.9 1.79-1.47 2.75-2.47z" fill="#2b5849" fill-rule="evenodd" data-color="1"/>
            <path d="M43.5 163.57c.19.6.38 2.42-.28 2.64.51.89.39 1.62.42 3-.84-1.31-.32-3.99-.14-5.64z" fill="#2b5849" fill-rule="evenodd" data-color="1"/>
            <path d="M42.94 161.76c-1.24-5.25 0-10.92-.28-17.65 0-1.14-.48-2.6.14-3.75a56.31 56.31 0 0 1 .14 6.25c.54-.1.22-1.08.56-1.39.29.09.13.86 0 1 .09.19.46-.15.55-.13-.13 1.38.14 2.84-.14 4.58-.5-.47 0-1.91-.83-2.08-.23 1.82-.21 4.19-.28 6.67a1.41 1.41 0 0 0 .84-.42 6.22 6.22 0 0 1-.56 2.92c-.59-.83.11 3.01-.14 4z" fill="#2b5849" fill-rule="evenodd" data-color="1"/>
        </g>
    </g>
</svg>
