<?xml version="1.0" encoding="UTF-8"?>
<svg data-bbox="-0.005 0 77.577 86.799" viewBox="0 0 77.51 86.75" xmlns="http://www.w3.org/2000/svg" data-type="color">
    <g>
        <g>
            <path d="M51.62 81.39c-.24 1.09.27 2-.63 2.71-.86-.24-1.19-1.06-1.57-1.75-.58-1.08-1-2.23-1.57-3.35-.17-.38-.38-.74-.57-1.11L47 78v1.25c.11 1.51.18 3 .39 4.53a4.41 4.41 0 0 1-.92 3c-.64.11-1-.27-1.31-.69a10 10 0 0 1-2.12-4.11c-.13-.64-.37-1.26-.56-1.89h-.26c-.11.64-.2 1.29-.34 1.92a24.2 24.2 0 0 1-.66 2.67 1.54 1.54 0 0 1-1.72 1.18c-.68 0-1.09-.41-1.34-1.3s-.36-1.56-.56-2.39c-.86.83-1 2.09-2.1 2.72-1.72-1-.92-2.76-1.09-4.42-.34.42-.56.68-.78.94L32.31 83a1.24 1.24 0 0 1-.26.25c-1.19.89-2.61.74-4 .79-.37 0-.76-.5-1.18-.8-.48.32-1 .7-1.53 1s-1.09.3-1.44-.43c-.2-.43-.35-.88-.54-1.38-.51.39-.92.75-1.38 1.06s-.87.44-1.2 0a1.51 1.51 0 0 1-.26-1.07 16.62 16.62 0 0 1 .49-2.14l-.79.56c-1.1.78-2.2 1.58-3.32 2.35a2.81 2.81 0 0 1-.86.4 1.19 1.19 0 0 1-1.57-1.45c.17-.77.48-1.5.81-2.51-.51.2-.82.3-1.11.45-1.18.6-2.33 1.25-3.51 1.81a3.58 3.58 0 0 1-1.49.38c-.9 0-1.18-.56-.76-1.35.11-.21.25-.4.54-.88-.61.16-1 .28-1.31.34-1.1.17-2.2.34-3.3.48a2 2 0 0 1-.83-.1c-.66-.17-.85-.58-.44-1.15a16 16 0 0 1 1.34-1.53l.7-.74-.11-.19c-.41.1-.82.16-1.22.3a4.33 4.33 0 0 1-2.71 0C.56 77.24.06 77 0 76.31s.47-.8.88-1 1.08-.5 1.62-.76a16.7 16.7 0 0 0 5.76-4.21c1.28-1.57 2.43-3.26 3.6-4.91A1.36 1.36 0 0 0 12 64a5.17 5.17 0 0 1 .14-2 3.55 3.55 0 0 0-.58.13 9.89 9.89 0 0 1-3.72.8 1.5 1.5 0 0 1-1.58-1c.32-.28.66-.6 1-.89 1.8-1.44 3.93-2.48 5.49-4.23a32.54 32.54 0 0 0 2.57-3.28c.63-.92 1.12-1.94 1.67-2.91 0-.07.12-.13.12-.2 0-1.28 1.17-1.78 1.85-2.61a4.08 4.08 0 0 0 .84-1.38c-.43.15-.85.32-1.28.45-1.49.44-3 .89-4.48 1.27a4.86 4.86 0 0 1-1.43.06 1.06 1.06 0 0 1-1.08-.81 11.71 11.71 0 0 1 2.68-2.85c1.37-1.16 2.8-2.27 4.1-3.5s2.55-2.64 3.78-4a3.3 3.3 0 0 0 .71-1.23c.31-1 .54-2.13.83-3.29-.21 0-.38 0-.49.1a11.09 11.09 0 0 1-4.6 1.59 2.4 2.4 0 0 1-2.51-.91 12.91 12.91 0 0 1 3.51-4 26.8 26.8 0 0 0 2.75-1.9 48.24 48.24 0 0 0 3.61-3.82 9.75 9.75 0 0 0 2-3.25c-.33.13-.54.2-.74.29l-3 1.27-.89.37c-1 .44-2 .92-3 1.33-.78.3-1.27.17-1.5-.26a1.49 1.49 0 0 1 .37-1.73c.92-.77 1.88-1.48 2.8-2.25s1.92-1.68 2.86-2.54c3.28-3 6.31-6.23 9.3-9.51a15.12 15.12 0 0 0 1.4-2.08c.86-1.38 1.7-2.79 2.57-4.17A10.38 10.38 0 0 1 38.9 0c.42.32.69.47.91.68 1 1 2.1 2.07 3.1 3.16 3.06 3.33 6.52 6.23 9.84 9.28.38.35.79.68 1.2 1a15.91 15.91 0 0 1 4.41 5.59c.42.78.31 1.05-.38 1.62a1.92 1.92 0 0 0-.55.71 2.14 2.14 0 0 1-1.13 1.38 13.64 13.64 0 0 0 1.82 2.89c1.71 2.15 3.46 4.29 5.13 6.47 1.06 1.38.84 1.89-.86 2.2a4.66 4.66 0 0 1-3.79-.62 1.84 1.84 0 0 0-1-.33 13.81 13.81 0 0 0 .82 1.74 30.17 30.17 0 0 0 5.27 6.32 35.49 35.49 0 0 0 3.67 2.45 5.43 5.43 0 0 1 1.2 1c.48.58.3 1-.44 1.24a4.48 4.48 0 0 1-3.46-.51c-.43-.24-.91-.4-1.59-.7.19.7.31 1.13.45 1.62l-.87.66a12.61 12.61 0 0 0 2 3.64c.76.87 1.47 1.79 2.28 2.61s2 1.84 3 2.74 1.82 1.56 2.69 2.39.72 1.38-.41 1.82a3.24 3.24 0 0 1-2.55-.21c-.53-.23-1.08-.41-1.81-.69.26.78.44 1.33.64 1.91-.91.5-1.47-.21-2.21-.51a3.53 3.53 0 0 0 .66 2 38.94 38.94 0 0 0 6 8.21c1.05 1.09 2.19 2.09 3.31 3.11a3.92 3.92 0 0 1 1.27 2.12c.18.85-.1 1.14-.95.89a8.22 8.22 0 0 1-1.57-.71c-.48-.25-.94-.57-1.53-.92-.07.4-.13.69-.19 1-.18 1-.41 1.12-1.39 1-.28 0-.55-.1-.81-.14-.22.3-.38.71-.67.85a3.58 3.58 0 0 1-1.24 0c-.14.41.26 1.19-.53 1.32a8.48 8.48 0 0 1-1.56-.07c.14.47.28.92.39 1.37.17.75 0 1-.77 1.14a3.84 3.84 0 0 1-3.32-.91c-1.2.3-1.2.3-2.63-.51-.19.23-.39.46-.57.71-.47.63-.73.7-1.36.21a9 9 0 0 0-1.51-1.12 13.84 13.84 0 0 1 .24 1.55c0 .46 0 1.19-.19 1.32-.58.31-1.27.77-2 .29a13.6 13.6 0 0 1-1.14-.86zM26.11 25.46c.17-.32.3-.67.44-1a3.08 3.08 0 0 0-.95.77 31.4 31.4 0 0 1-5.47 5.15A22.14 22.14 0 0 0 18 32.11a9.71 9.71 0 0 0-.76.81c1.2 0 1.77-.85 2.53-1.43a6.23 6.23 0 0 1 2.5-1.49l-1.77 1.45.15.2 1.35-.73-.74 1a2.66 2.66 0 0 0 2.3-1 2.94 2.94 0 0 1 1.58-1.12l-1 1.19c1 .3 1.15-.93 2-1-.43.63-.86 1.19-1.21 1.8s-.63 1.28-.93 1.92a9.25 9.25 0 0 0 1.58-1.54 6.76 6.76 0 0 1 1.56-1.46c-.4.65-.88 1.23-1.32 1.84s-1 1.06-.94 1.89a26.57 26.57 0 0 0 2.27-2.6c.82-1.06 1.6-2.16 2.39-3.24a11.48 11.48 0 0 1-.65 1.4c-.87 1.28-1.79 2.54-2.72 3.79-.44.6-.79 1.34-1.73 1.42a2.67 2.67 0 0 0 1.68-.37c.49-.27.92-.64 1.42-.89s.78-.93 1.51-.76c.15 1.16-.59 2.22-.3 3.52a7.21 7.21 0 0 0 1-.51 5.16 5.16 0 0 0 1.84-2.58c.92-2.68 1.76-5.38 2.61-8.08a2.64 2.64 0 0 0-.34-2.41 10.52 10.52 0 0 0-1 1.43c-.48 1.05-.87 2.14-1.32 3.2a3.76 3.76 0 0 1-.39.59 41.55 41.55 0 0 0 1.39-4.94c-.45 1.32-2.17.69-2.69 1.84h-.22c-.39-.23-.56.05-.77.3s-.63 1-1 1c-.95.06-1.32.77-1.88 1.29a2.32 2.32 0 0 1-1.85.9l1.29-2 .06-.06a5.26 5.26 0 0 0 .73-.57.39.39 0 0 0-.1-.65zm-1.5 22.72l-1 1.4c.75-.07.95-.36 1-1.43.11 0 .3.07.33 0 .66-.89 1.3-1.8 1.94-2.7l-.28-.19c-.69.99-1.34 1.95-1.99 2.92zM23 38.41c.43-.1.65-.36.44-.87l-.41.9c-.46.5-.91 1-1.37 1.49-.13.13-.39.32-.46.28-.53-.35-.71.16-1 .39-1.57 1.34-3.13 2.72-4.7 4.07-.73.62-1.5 1.19-2.23 1.81-.35.3-.49.61 0 .78 2.4-2.13 5.21-3.4 7.83-5a4.51 4.51 0 0 1-1 1.33c-1.1.81-2.1 1.51-3.2 2.21a1.71 1.71 0 0 1-1 .39c-.91-.1-1.27.52-1.92 1.15a3.34 3.34 0 0 0 .68 0c1.45-.43 2.9-.84 4.34-1.31a2.8 2.8 0 0 0 1-.68c1.13-1.13 2.22-2.29 3.35-3.41a5.88 5.88 0 0 1 .85-.6c-.8 1-1.56 2-2.43 2.9a1.2 1.2 0 0 0-.14 1.68c.47-.48.88-.89 1.27-1.32a13 13 0 0 1 1.26-1.4 7 7 0 0 0 2-3.63l-2 1.81a11.27 11.27 0 0 1 .65-1.12c.59-.8 1.18-1.6 1.84-2.35a2 2 0 0 0 .27-2.17c-1.46 2-2.82 3.76-4.17 5.58.48-2 2.38-3.2 3.12-5.07l-.2-.15-2.8 3.43c.05-.53.07-.81.13-1.12zm8.26 4.05a18.81 18.81 0 0 0 1-5l-2.37 4c-.55-1.41.53-2.51.66-4-1.23.92-1.21 2.4-2.16 3.29.11-.4.21-.81.31-1.22h-.13l-1.15 1.64-.19-.13 1.25-2.51c-.86-.48-1.45-.21-1.46.7a1.66 1.66 0 0 1-.24 1c-1 1.46-1.89 3-2.92 4.38C23 45.78 22 46.86 21.09 48c-.16.19-.52.44-.67.38-1-.41-1 .37-1.35.89a4.16 4.16 0 0 0 3.83-1.65c.71-.91 1.47-1.78 2.23-2.65a2.21 2.21 0 0 1 .58-.34l.11.17-2.54 2.91a1.28 1.28 0 0 0 1.38-.55 123.625 123.625 0 0 0 2.78-3.9 1.65 1.65 0 0 1 0 2.22c-.52.7-1 1.45-1.46 2.19-.27.41-.49.85-.74 1.28A6 6 0 0 0 28 47c.66-.64 1.13-1.57 2.22-1.64-.45 1-.9 1.93-1.36 2.89a4.24 4.24 0 0 0-.78 2.82 1.14 1.14 0 0 0 1.14-.91q1.72-5 3.48-9.91a2.09 2.09 0 0 0 0-1.64c-.32 1-.54 1.83-.82 2.61a10.43 10.43 0 0 1-.66 1.24zM56.88 30.2a8 8 0 0 1-.69-.75c-1.18-1.85-2.33-3.72-3.5-5.58-.18-.29-.35-.67-1-.4a10.73 10.73 0 0 0 .31 1.27c.45 1.16.94 2.31 1.42 3.46-1.18-1.33-1.59-3.07-2.7-4.44-.09 1.26.67 2.28.91 3.44-1.25-.49-1.25-.49-1.82-1.57a7.53 7.53 0 0 0-.41-.73 3.08 3.08 0 0 0-.39-.42l-.23.15 2 4.15-.28.14c-1.18-1.31-1.56-3.12-2.84-4.41L50 30a2.08 2.08 0 0 1-.69-.86c-.66-1.41-1.31-2.83-2-4.24-.26-.56-.26-.56-.93-.83 1.29 3.24 2.55 6.39 3.8 9.54a5.58 5.58 0 0 1-.82-1.16c-.27-.39-.73-.65-.94-1.06-.69-1.39-1.31-2.82-2-4.23l-1.2-2.58c.36 2.94 1.67 5.59 2.27 8.5l.74-.28c.51 1.6 1.82 2.3 3.23 2.94.38.17.64.28 1 .06s.35-.69.22-1.07c-.25-.71-.55-1.41-.82-2.12-.12-.31-.21-.63-.32-.94l.22-.13c.19.15.41.29.59.46.81.77 1.6 1.56 2.41 2.33a1.59 1.59 0 0 0 1.53.56c-.27-1.4-1.12-2.56-1.33-3.94.7-.16.85.36 1.17.62a5.82 5.82 0 0 0 1 .81 13.18 13.18 0 0 0 1.52.57l1.15.46a23.8 23.8 0 0 0-3.56-5.19l-.23.12c.32.58.6 1.22.87 1.86zm-34.35-8.65c1-.37 1.95-.69 2.9-1.11 1.75-.77 3.47-1.61 5.22-2.4a.91.91 0 0 1 .74 0c.13.1.08.48.06.73a2.16 2.16 0 0 1-.16.55c2.43-3.13 5.06-6.11 6.15-10A7.64 7.64 0 0 1 36.19 13c-.91 1.31-1.71 2.7-2.56 4.05-.14.24-.39.49-.38.73.09 1.28-.7 2.15-1.35 3.09a1.69 1.69 0 0 1-.3.26l-.75-.26c-.46.71-1.45.91-1.57 1.87.12.05.21.12.26.1l3.17-1.65a.41.41 0 0 0 .21-.28c.07-1.32 1.06-2.19 1.6-3.28.08-.17.27-.29.41-.44l.21.13-1.44 2.8c.83 0 .82 0 1-.46l1.3-2.77a.85.85 0 0 1 0 .74c-.26.75-.56 1.49-.82 2.24-.2.6 0 .93.68.85.6-1 .65-2.24 1.44-3.17a25.16 25.16 0 0 1-.36 3.45 3.77 3.77 0 0 0 .47 2.88C38 22.79 39 22 38.48 20.6a9.06 9.06 0 0 1-.15-2.45l-.61-.15c.28-2.7.56-5.32.85-8.11v.64c0 1.93-.47 3.87.16 5.78a1 1 0 0 1 0 .24c0 .68.08 1.35.13 2.1.33-.78-.07-1.63.53-2.46.38 1.36-.15 2.78 1 3.91-.14-1.32-.61-2.48-.24-3.69a2.26 2.26 0 0 1 .29.85 22.77 22.77 0 0 0 1.39 5.56 2 2 0 0 0 1.6 1.35c-.25-1.35-1-2.38-1.28-3.55s-.57-2.4-.83-3.61a10.16 10.16 0 0 1-.48-3.55 55.05 55.05 0 0 0 2 7.5c.85-1.14.45-2.16 0-3.2a8 8 0 0 1 1 1.37c.46.79.46.79 1 1-.28-1.22-1.45-2.11-1.42-3.5a.78.78 0 0 1 .41.39c.87 1.52 1.72 3 2.6 4.57a2.37 2.37 0 0 0 2.23 1.23c-1.38-2.1-2.79-4.22-4.18-6.35A2.62 2.62 0 0 1 44 15.3a5.59 5.59 0 0 0-.9-2.43 6.36 6.36 0 0 1-.27-.77c2.09 3.73 4.56 7.18 6.84 10.82.93-.8 0-1.41-.09-2.15l1-.09A45.09 45.09 0 0 1 45.21 13c1.75 2.3 3.29 4.76 5.51 6.67l-3.35-4.57c.4.14.54.14.59.21 1.17 1.51 2.34 3 3.48 4.56a.88.88 0 0 1 .1.54c0 .38-.08.76-.13 1.16.39.16.73.43 1.05.41.9 0 1.85 1 2.73-.07.06-.07.35.07.54.08s.41 0 .69 0a12.3 12.3 0 0 0-3.28-4.16 50.93 50.93 0 0 1-4.33-4.11c-1.39-1.48-2.62-3.11-3.93-4.67a6.51 6.51 0 0 0-.54-.51l-.17.16 4.29 5.8c-2.66-2.62-4.52-5.85-6.78-8.8l.57.52.32-.46c1.41 1.7 2.76 3.38 4.18 5 1.26 1.44 2.56 2.85 3.91 4.21 1.69 1.69 3.42 3.34 5.17 5a3.77 3.77 0 0 0 1 .46c.15-.95.19-1-.22-1.45-1.53-1.73-3-3.51-4.65-5.14-2.73-2.84-5.59-5.5-8.39-8.22-1.45-1.42-2.88-2.86-4.41-4.39-.58.83-1.43 1.34-1.41 2.45 0 .31-.31.63-.5.92s-.48.63-.67 1c-.52 1-1 2-1.56 3-.18-.22-.28-.36-.37-.48l-8.9 9.18 1.54-.73.13.21c-1.18.87-2.39 1.68-3.5 2.62s-2.56 1.38-3.54 2.46l.13.27zM47.88 55c.37 2.23.74 4.45 1.1 6.68-.93-2.11-1.19-4.39-1.91-6.56a42.39 42.39 0 0 0 1.64 8.09c-.28-.17-.39-.2-.41-.26q-.66-2.34-1.3-4.71c-.16-.61-.11-1.43-.49-1.8a2.32 2.32 0 0 1-.61-1.67c-.15-1.22-.22-2.46-.33-3.69-.06-.63-.07-.63-.68-.89 0 .86.1 1.76.15 2.65s.1 1.74.16 2.86c-.84-1-.43-2-.82-3-.62.91-.35 1.75-.41 2.64-1.06-.62-.22-1.65-.81-2.41 0 .71-.1 1.31-.15 1.9h-.28c-.08-.52-.13-1-.24-1.56s.11-1.18-.86-1.38c-.11 3.5 0 7 .22 10.4a4 4 0 0 1-.42-1.47c-.12-3-.22-5.9-.33-8.84 0-.36-.06-.7-.09-1.06h-.35v10.43a.73.73 0 0 1-.33-.59c-.08-2.55-.12-5.11-.21-7.66a13.16 13.16 0 0 0-.24-3.61c-.31 3.26-.6 6.23-.88 9.2h-.25v-2.33c0-.77.22-1.5.25-2.26a5.56 5.56 0 0 0 0-2.26c-.42 1.11-1.38 1.56-2.34 2.12-.07.87-.14 1.78-.23 2.69s-.2 1.75-.3 2.62h-.31c.33-2-.1-4 .57-6.07l-.55-.59c-1.3 3.07-1.55 6.33-2.66 9.34a.36.36 0 0 0 0 .23c0 .07.11.11.21.2.73-.18.31-1.2.95-1.43.13.39.13.91.39 1.13A1 1 0 0 1 35 63.2c-.15.54-.33 1.07-.46 1.62a5.18 5.18 0 0 0 0 .91 2.88 2.88 0 0 0 1.12-2.47c1.46-.6 1.61-.51 2 .93a14 14 0 0 0 .72 1.73A6 6 0 0 0 40 63.58a3.3 3.3 0 0 1 .29-.78c.14-.21.39-.47.6-.48s.42.28.57.49a4.41 4.41 0 0 1 .24.67 7.2 7.2 0 0 0 2.1 3.12c.77.59 1.15.43 1.42-.6A3.66 3.66 0 0 1 44 61.71c.86.21.72.92.77 1.6a2.65 2.65 0 0 0 .82 2.21 13.69 13.69 0 0 0-.17-3.14c-.06-.27 0-.78.13-.84.64-.27.42-.77.44-1.22s-.15-1.22.31-1.77a12 12 0 0 0 1 4.87 8.3 8.3 0 0 0 3.7 3.52 5.35 5.35 0 0 0 .29-1 6.59 6.59 0 0 0-1.18-4.14l.19-.15 1.23.48c-.09-.57-.16-1.05-.24-1.53 1 1.06 1 2.72 2.16 3.69l.24-.11c-.51-1.28-1-2.56-1.54-3.83l.26-.15.9 1.09v-1.36h.24c.27 1.42 1 2.71 1 4.2a1.73 1.73 0 0 0 .43 1c.6.62 1.61.09 2.27.69.09.08.36 0 .72-.09-.23-.41-.38-.72-.57-1-.76-1.13-1.52-2.24-2.3-3.35a.62.62 0 0 1 .08-.95 1 1 0 0 1 .85 0 3.84 3.84 0 0 1 .92.75 10.61 10.61 0 0 0 4.1 2.39 2 2 0 0 0 2-.14c0-.25 0-.5-.07-.8 1.18.6 1.26.6 1.94 0 .24.19.49.38.85.68a6 6 0 0 0-1.33-3.08c-.72-1.14-1.44-2.29-2.15-3.44v-.36l.58.33c.07-.24.13-.41.25-.8 1.35 1.9 2.33 3.85 4 5.2a1.61 1.61 0 0 0-.23-.9c-1-1.47-1.92-2.92-2.9-4.37a3.83 3.83 0 0 1-.81-1.8c.86 1.07 1.63 2.18 2.38 3.3 1.24 1.85 3.19 2.57 5.19 3.17a1.43 1.43 0 0 0 1.79-.56c-.26-.21-.54-.58-.71-.53-.57.16-.82-.23-1.1-.52-.66-.69-1.29-1.42-1.93-2.13a5.35 5.35 0 0 0-1.48-1.21l-.21.21 2.76 3.31a1.94 1.94 0 0 0-2 0l.24-1c-1.25-1.43-2.66-2.66-3.25-4.48 0-.1-.16-.17-.24-.26l-2.44-2.79h-.17c0 .24 0 .48-.05.8-1.1-.31-.78-1.68-1.8-2.09a3.09 3.09 0 0 0 1.15 2.3c-.55.56-.85-.29-1.36-.13.23.58.45 1.13.66 1.68l-.26.12c-.3-.54-.58-1.1-.92-1.62s-.36-1.31-1.34-1.41a64.36 64.36 0 0 0 2.81 6.22 13.46 13.46 0 0 1-2.2-3.57 13.22 13.22 0 0 0-2.19-3.44 35.2 35.2 0 0 0 1.66 4.44c.63 1.41 1.37 2.76 2.06 4.14a25.26 25.26 0 0 1-4.5-8.52c-.33 1-.67 1.79-.28 2.63.81 1.73 1.61 3.47 2.44 5.19.39.8.85 1.56 1.28 2.35l-.23.12c-.77-1.24-1.6-2.45-2.28-3.74s-1.31-2.82-2-4.23a5.7 5.7 0 0 0-.46-.67l-.28.16c.94 2.33 2.16 4.54 3 6.93a3.29 3.29 0 0 1-.6-.9c-.93-1.85-1.88-3.7-2.78-5.57a2 2 0 0 0-2-1.2 2.2 2.2 0 0 0 .63 2.19 1.71 1.71 0 0 1 .22.54c.35 1.23.7 2.46 1 3.69.09.34.15.68.26 1.16A5.31 5.31 0 0 1 52 55.46a10.88 10.88 0 0 0-1-2.92c-.59-.92-.08-2-.87-2.88a5.38 5.38 0 0 0-.13 1.11c0 .26 0 .67-.14.76-.57.33-.45.81-.34 1.26.21.89.49 1.77.73 2.65a5.68 5.68 0 0 1 .08.66c-.17-.1-.28-.1-.33-.1a9.16 9.16 0 0 1-1.16-3.62 1.92 1.92 0 0 0-.09-.59.32.32 0 0 0-.27-.18c-.13 0-.35.14-.35.22a5.58 5.58 0 0 0 .09 1.3c.51 2.1 1.06 4.18 1.59 6.27a2.87 2.87 0 0 1 0 .41.81.81 0 0 1-.51-.48c-.34-.94-.64-1.89-1-2.83-.17-.48-.37-.94-.54-1.42-.09-1.18-.18-2.35-.27-3.61l-1.32-.23c0 1.05-.46 2.05.56 2.74.22-.68-.49-1.38 0-2.16.48 1.06.81 2.18 1.15 3.18zM9.62 73.26a3.74 3.74 0 0 0-1 1.83 3 3 0 0 1-1.33 1.81c-.82.63-1.62 1.3-2.4 2-.35.3-.65.65-1 1 .16.18.21.27.27.29a1.35 1.35 0 0 0 1.46-.51A19.18 19.18 0 0 1 9 77.37l.1.14-2.9 2.28c2.29 0 3.82-1.46 5.6-2.56a1.4 1.4 0 0 1-.43 1.7c-.52.44-1 .88-1.52 1.36a7.6 7.6 0 0 0-.74 1c1.64.23 2.57-.74 3.63-1.32 0-.34-.08-.6-.11-.86a6.24 6.24 0 0 0 .89-.59c1.42-1.4 2.81-2.83 4.21-4.24l1.12-1.1.2.2c-.51.59-1 1.19-1.53 1.76s-1.2 1.26-1.78 1.86a5.8 5.8 0 0 0-1.39 1.76c.74-.36 1.37-.88 2.09-1.19a3 3 0 0 0 1.33-1.12c.81-1.19 1.63-2.37 2.45-3.54a2.88 2.88 0 0 1 .49-.41.53.53 0 0 1-.05.48c-1.41 2.26-2.84 4.52-4.21 6.81a10.12 10.12 0 0 0-.84 2.1 3 3 0 0 0 .08 1 6.52 6.52 0 0 0 .89-.34 23.28 23.28 0 0 0 4.71-3.47c.38-.38.74-.81 1.46-.71-.24 1.47-1 2.75-1 4.49a6.38 6.38 0 0 0 1.08-.86A1.91 1.91 0 0 1 25 81l3.45-6.94a.48.48 0 0 1 .1.51c-.83 2-1.65 4-2.52 6a8.94 8.94 0 0 1-.94 1.39c-.18.44-.41 1 .37 1.38.38-.34.76-.67 1.11-1-.35-.82-.37-1 0-1.72.6-1.08 1.23-2.14 1.85-3.21.17-.29.35-.56.63-1 0 .33.06.45.08.56-.37.74-.77 1.47-1.11 2.22s-1 1.35-.88 2.5a5.07 5.07 0 0 0 .7-.86c.38-.9.73-1.83 1.06-2.75a8.49 8.49 0 0 0 .21-1.14l.82-.62c.06.13.13.22.11.27a18.76 18.76 0 0 1-.94 2.32c-.39.73.09 1.73-.79 2.28-.08.06-.07.3-.08.45a2 2 0 0 0 .91 1.69 3.06 3.06 0 0 0 .61-.77c.1-.29.16-.79 0-.94a.84.84 0 0 1-.13-1.08c.43-1.08.87-2.15 1.31-3.22.05-.11.18-.18.4-.39-.05.61-.28 1.23-.09 1.42.61.6.2 1.08 0 1.63a4.65 4.65 0 0 0-.45 1.93c.9-.6 1.75-1.15 2.58-1.73s1.26-1.67 2.27-2v2.58c0 .83-.13 1.6-.21 2.63a8.29 8.29 0 0 0 2.06-2.74 24.17 24.17 0 0 0 1.2-3C39.89 78 40 78.07 40 79v5.13a2.54 2.54 0 0 0 .61-1c1-2.54 1.84-5.1 1.18-7.91a14.44 14.44 0 0 1-.26-2.37c-.14-1.87-.25-3.74-.36-5.61 0-.43 0-.84-.63-1-.46 3.12-.18 6.17-.42 9.21a25.71 25.71 0 0 1-.25-3.27c0-1.08.05-2.16 0-3.23s.38-2.18 0-3.28l-2.48 1.77a26.56 26.56 0 0 0 .07 4.23c.73-1 .16-2.25 1-3.09-.22 2.09-.45 4.18-.68 6.3-1.47-2.66-.58-5.57-1.22-8.3a6.7 6.7 0 0 0-.56 1.7c-.42 1.91-.8 3.82-1.22 5.73a7.88 7.88 0 0 1-.44 1.1l-.2-.11c.61-3.11 1.23-6.22 1.84-9.33a7.75 7.75 0 0 0-1.71 2.67c-.56 1.91-.87 3.89-1.3 5.84-.09.39-.24.77-.36 1.15a1.47 1.47 0 0 1-.11-1c.33-1.61.66-3.21 1-4.81s.37-1.73-1-2.75h-.24l-.42.39c0-.26 0-.53-.07-.8h-.12l-.34 1 .56-.21c-.24.87-.48 1.75-.73 2.63-1.08-1.54-.23-3 .13-4.65a2.8 2.8 0 0 0-1.15 1.81 24.7 24.7 0 0 1-.89 3.35 1.71 1.71 0 0 1-.29.43c-.24-1.24.29-2.33.38-3.5a3.87 3.87 0 0 0-.59 1c-.58 1.49-1.13 3-1.71 4.47a3.31 3.31 0 0 1-.37.55l-.25-.13c.6-1.73 1.21-3.45 1.82-5.21a1 1 0 0 0-1.14.72c-.71 1.73-1.42 3.47-2.14 5.2a4.25 4.25 0 0 1-.32.54l-.24-.08a6.16 6.16 0 0 1 .19-1c.21-.6.48-1.18.72-1.77.42-1 .85-2.06 1.26-3.1.18-.46.32-.93-.42-1.2a51.61 51.61 0 0 1-3.14 7c.73-2.25 1.79-4.39 2.15-6.77-.5 1.09-1 2.18-1.51 3.27-.21-.33-.13-.79-.27-.87-.53-.3-.32-.69-.22-1 .15-.54.37-1 .56-1.58a3.82 3.82 0 0 0 .47-1.74 5.09 5.09 0 0 0-2.06 2.21c-.4.92-.71 2-1.94 2.39a2.58 2.58 0 0 0-1.51 1.57 1.33 1.33 0 0 1-.31.37l-.21-.14 2.45-4.6-1-.8c-.52 1.1-1 2.1-1.45 3.11s-.87 2.06-1.31 3.09l-.3-.12c.52-1.8 1.38-3.48 1.88-5.3a2.93 2.93 0 0 0-.68 1.24c-.13.79-.58.69-1.07.47a16.09 16.09 0 0 1-2.93 3.81.85.85 0 0 1 .17-.4c.79-1.33 1.6-2.65 2.35-4a2.44 2.44 0 0 0-.2-2.18 11.06 11.06 0 0 0-1.62 3.24c-.14-.4-.29-.61-.26-.78a5.11 5.11 0 0 1 .37-.74A11.08 11.08 0 0 0 15.88 64c-.57.08-.79.33-.78.81a2.46 2.46 0 0 1-.07.91c-.54 1.19-1.12 2.36-1.66 3.49a2.33 2.33 0 0 0-.85 0c-.2.09-.32.35-.48.54.54-1.75 1.81-3.14 2.09-5a5 5 0 0 0-1.26 1.5 12.06 12.06 0 0 1-1.94 2.85c-.46.5-.67 1.31-1.62 1.21-.16 0-.38.26-.54.43a22.53 22.53 0 0 1-6.69 4.75 7.1 7.1 0 0 0-1.08.79l.08.26c.24 0 .53.12.7 0 1.18-.67 2.33-1.37 3.5-2.06l1.12-.65c-1 .92-2.09 1.63-3 2.64A3.28 3.28 0 0 0 4.68 76c.81-.52 1.58-1.08 2.37-1.63L6 75.68c.86-.35 1.78-.57 2.13-1.54l1.51-.85zM69.48 73l-.15.16a22.61 22.61 0 0 1-1.7-2.1c-1.1-1.71-2.11-3.47-3.15-5.21-.36-.61-.54-.68-1.38-.43.5 1.9 1.64 3.5 2.39 5.29A11.55 11.55 0 0 1 64.3 69c-.64-1.1-1.24-2.23-1.83-3.36-.25-.47-.5-.83-1.22-.36L63.88 70l-.17.12-3.11-4.62-.2.1c.57 1.4 1.15 2.8 1.73 4.21l-.22.09L59 64.35l-.29.1c.09.73.12 1.46.26 2.18a24.15 24.15 0 0 0 2.54 6.44c.2.4.38.81.58 1.21a26.53 26.53 0 0 1-3.84-7.6l-1 .18c.33 1.74 1.31 3.12 1.83 4.69a3 3 0 0 1-.71-.89c-.51-1-1-2.09-1.5-3.13-.19-.4-.24-.94-1-1-.07 1.84 1 3.22 1.63 4.77a6.41 6.41 0 0 1-2.2-5l-1.21-.37c.61 1.55 1.14 2.9 1.66 4.25l-.23.1a31.17 31.17 0 0 1-2.22-4.84l-.24.09 1.2 4-.27.11L52.55 67 51 68.1c.71 2.27 1.41 4.5 2.1 6.73-1.49-2-1.72-4.57-2.81-6.77a35 35 0 0 0 1.85 6.77c.83 2.16 1.79 4.26 2.69 6.4l-.24.13a4 4 0 0 1-.44-.57A44.16 44.16 0 0 1 51 73c-.55-1.66-1-3.37-1.44-5.06a1.37 1.37 0 0 0-1.47-1.16l2.53 7.78-.2.07Q49 70.7 47.54 66.77a4.1 4.1 0 0 0 0 1.6c.11.52.3 1 .45 1.53l-.25.07c-1.14-1.37-.91-3.13-1.22-4.76-.68 1.71-.08 3.37.25 5.06-.84.06-.59-.73-1-1-.21.78.37 1.48-.07 2.39-.32-1.42-.6-2.64-.85-3.78l-3.22-.65a5.66 5.66 0 0 0-.1.79c.1 2 .17 3.91.32 5.86a11.12 11.12 0 0 0 .6 3.12 12.63 12.63 0 0 1 .74 2.87A7.71 7.71 0 0 0 44.91 84a2.22 2.22 0 0 0 1.55 1.06 5.7 5.7 0 0 0 .19-2.62c-.17-2-.36-4-.52-6.08-.08-1.09.16-1.27 1.39-1.13.45 1.63.53 3.44 1.72 4.91.28-.53-.38-1.1.39-1.56.19 1 .43 1.92.52 2.85.05.45.18.63.59.74a5.8 5.8 0 0 1 .36-2.1c.49-.78-.42-1.46.13-2.22.16.23.26.56.45.63.91.32 1.16 1.17 1.58 1.87s.75 1.32 1.14 2a1.65 1.65 0 0 0 1.66.88c0-.55 0-1.06-.09-1.57-.1-.91-.23-1.82-.33-2.73a1.39 1.39 0 0 1 .42-1.43c.28.36.57.67.79 1 .39.6.71 1.25 1.12 1.83a1.66 1.66 0 0 0 1.43.9l-.23-1.35 1.26-.4c-.11-.2-.25-.46-.46-.87l1.06.15c.33.38.59.9.83.89.7 0 .94.48 1.34.85a9.64 9.64 0 0 0 1.8 1.38c.68.37 1 .06.88-.66a6.5 6.5 0 0 0-1.26-2.94 14.76 14.76 0 0 1-1-1.36c-.11-.19-.26-.54-.18-.64.47-.56.06-1-.17-1.4s-.42-1-.65-1.5a2.28 2.28 0 0 1 .3 0 5 5 0 0 1 .34.46c.93 1.43 1.55 3.08 3 4.19.13.1.17.33.22.5a1.5 1.5 0 0 0 2 1c0-.11 0-.26-.06-.34-.68-.87-1.36-1.73-2-2.58s-1.42-1.47-1.98-2.22c-.14-.17-.12-.45-.18-.68a23 23 0 0 1 2.15 2.44 4.47 4.47 0 0 0 2.85 1.59c-.92-1.16-2-1.91-2.37-3.22l1.85 2.2.62-.56c1 .24 1.57 1.26 2.85 1.29-.51-1-.92-1.87-1.37-2.7-.31-.56-.19-.89.43-1.09.79.46 1 2.06 2.36 1.25.89.65.89.65 1.62.78-.28-.36-.51-.68-.77-1-1.13-1.29-2.36-2.5-3.39-3.86-1.49-2-2.84-4-4.26-6.07-.18-.26-.28-.65-.92-.64a15.11 15.11 0 0 0 .74 1.46c1.36 2 2.75 4 4.12 6 .23.34.44.68.67 1l-.28.17c-2-2.86-4.28-5.53-5.9-8.72a1.24 1.24 0 0 0-.26 1.81c.38.75.78 1.49 1.23 2.2 1.04 1.67 2.15 3.32 3.25 4.96zM49.22 37.47c-.11 2.48 1.06 4.68 1.47 7.05a29.68 29.68 0 0 1-2.5-7.9 1.51 1.51 0 0 0-1.14-1.54 5.83 5.83 0 0 1 .59 2 5.17 5.17 0 0 0 .48 2.42c.47 1.4 1.05 2.76 1.45 4.18.56 2 1.85 3.65 2.91 5.39a2.73 2.73 0 0 0 .85.84 6.63 6.63 0 0 0 1.3.45c-.4-1.21-.74-2.09-1-3a7.4 7.4 0 0 1-.73-2.75c.82.15 1 .8 1.32 1.24s.79.88 1.15 1.35a2.11 2.11 0 0 0 1.47 1l-.73-1.33.79-.6h.11c1.36 1.67 1.36 1.67 2 1.59-.31-.67-1.07-1.12-1-2a2.71 2.71 0 0 1 .65.54c.17.16.35.3.66.56-.24-.76-.81-1.21-.56-2.08l.81 1.07c.73-.5.73-.5 1.35-.06.46.32.86.77 1.51.76 0-1-1.07-1.61-.76-2.56l1.63.11a3.21 3.21 0 0 0 3 1.24 4.78 4.78 0 0 0-.57-.45c-1.55-.95-3.23-1.72-4.23-3.36-.1-.16-.3-.38-.44-.38-.67 0-.86-.54-1.13-.92a42.91 42.91 0 0 1-2.33-3.63 1.81 1.81 0 0 0-2.14-1c1.24 2.52 2.85 4.74 3.54 7.4l-3.55-6.31-.21.1a26.86 26.86 0 0 1 1.89 4.54c-1.21-1.76-1.92-3.8-3.29-5.48.53 2.64 2.09 4.89 2.81 7.45a9.57 9.57 0 0 1-1-1.73Q54.5 39.32 53.41 37c-.18-.38-.42-.57-.85-.39s-.38.47-.26.8c.17.49.34 1 .55 1.45.44 1 .92 2 1.38 3l-.2.12a12.51 12.51 0 0 1-1.45-2.38c-.15-.32-.32-.87-.52-.89-.79-.07-.88-.68-1.14-1.19s-.48-.32-.82 0c.32.77.64 1.56 1 2.56-1.1-.72-1.1-1.92-1.88-2.61zM23.75 56l-.3-.12c.42-1.14 1.07-2.17 1.59-3.26a12.31 12.31 0 0 0 1.54-3.23 4 4 0 0 0-.85 1.12c-.68 1.22-1.3 2.47-2 3.65a5.4 5.4 0 0 1-1.42 2c-.62-.91-.13-1.59.34-2.23a3.23 3.23 0 0 1 .91-.71 3.38 3.38 0 0 0 1.33-2.55l-2.4.31-3.41 5.21c-.24-1 .31-1.49.65-2A17.07 17.07 0 0 0 21.38 51c-.92.85-1.56 1.93-2.53 2.76.18-.6.37-1.14-.12-1.53.23-.78 1.14-1.07.89-2-.18 0-.19.23-.28.35a11.9 11.9 0 0 1-1.75 2.1A12.12 12.12 0 0 0 15 55.37a18.44 18.44 0 0 1-1.44 1.76l-.64.78 2.07-.4-1.6 1.16c-1.22.9-2.45 1.79-3.66 2.7a2.75 2.75 0 0 0-.43.57l.16.21c1.08-.27 2.19-.38 3-1.41a22.71 22.71 0 0 1 2.16-2.23 7.37 7.37 0 0 1 1-.7l.24.3-2.42 2.06c.59.46.54.85.23 1.24a10.9 10.9 0 0 0-.74.94A1.33 1.33 0 0 0 12.7 64a12 12 0 0 1 2.15-3.26c.88-.92 1.65-2 2.63-2.79a10.85 10.85 0 0 1-1.13 1.77c-.39.53-1.06.88-1.16 1.85a18 18 0 0 0 4.49-4.8c-.79 2.1-2.42 3.57-3.8 5.23 1.06-.42 1.82-1.34 3.11-1.63-.64 1.73-2.11 3-1.92 5 .35-.17.7-.25.71-.37a5.16 5.16 0 0 0-.09-1.1c.35-.52.69-1.06 1.07-1.57s.53-1.18 1.33-1.64l-.62 3.11a17.54 17.54 0 0 0 3.17-3.48l.82.3c1-2.57 1.91-5.06 2.86-7.55a1.14 1.14 0 0 0-.14-1.35c-.84 1.45-1.64 2.85-2.43 4.28zm19.66-4.15a1.68 1.68 0 0 0 .24-1.58 27 27 0 0 1-1.28-6.44 2.29 2.29 0 0 1 .09-.5c.64 1.35.43 2.88 1.12 4.21a1.46 1.46 0 0 0 .42-1.89 18.29 18.29 0 0 1-.47-2.34 2.37 2.37 0 0 1 .21-.69 3 3 0 0 1 .26.44c.42 1.7.83 3.41 1.26 5.11a7.6 7.6 0 0 0 .42 1c.25.56.67.7 1.34.6l-1.87-4.31.22-.09c.24.41.49.81.7 1.23.56 1.1 1.09 2.22 1.65 3.32.17.33.31.75 1 .6-.54-.89-1.08-1.7-1.52-2.56a7 7 0 0 1-1.11-2.82c1.11 1.05 1.29 2.73 2.55 3.87-.42-3.11-1.76-5.81-2.42-8.7a8.48 8.48 0 0 1 1.1 2.46c.8 2.27 1.65 4.51 3.68 6 .19.14.41.27.62.4-.2-.83-.36-1.78-.91-2.19a2.61 2.61 0 0 1-.91-1.39c-.78-2.14-1.6-4.26-2.27-6.43a1.92 1.92 0 0 0-2-1.51l.48 1.2c-1.14 0-.81-1.13-1.53-1.38l.52 1.42-.58 1.55c-.57-1-.51-2.29-1.35-3.4-.12.57-.2 1-.3 1.46-.38-.35-.48-1.13-1.3-.58 0 .72.09 1.52.13 2.31-.77-.79-.5-1.9-1.19-2.74q.21 3.12.4 6.24l-.27.05a10.14 10.14 0 0 1-.23-1.2c-.16-1.75-.29-3.5-.46-5.25a1.92 1.92 0 0 0-.28-.6 1.33 1.33 0 0 0-.27.87q.24 4 .5 8c0 .2 0 .46.15.56.46.4.5 1 .7 1.48a25.51 25.51 0 0 0 1.29 2.82 2.73 2.73 0 0 0 1.47 1.36zm-10-6.5c-.14.36-.29.72-.42 1.08-.07.19-.2.47-.13.56.63.75.14 1.51.1 2.27a2.1 2.1 0 0 0 .41 1.89c.32-1.1.67-2 .85-3a10.69 10.69 0 0 1 1.18-3c.18 1.49-.63 2.61-.57 4l1.44-1.19c.23-1.11 0-2.26.64-3.25.71-.15.75.28.74.76 0 1.39 0 2.79-.06 4.19 0 .39-.08.85.5 1.14l.07-.68c.09-1.75.17-3.5.29-5.25a3.24 3.24 0 0 1 .29-1.62c.86-1.21.18-2.32 0-3.48l-.57 2.85h-.23c.13-1.18.29-2.36.39-3.55s.47-2.29-.1-3.44c-.43 1.33-.68 2.68-1 4s-.4 2.82-1.37 4a29.34 29.34 0 0 0 1.09-6.11 1.67 1.67 0 0 0-1.2 1.25c-.41 1-.81 2.08-1.23 3.11-.12.29-.27.75-.48.8-.81.21-.78.92-1 1.46s-.35.92-.53 1.39l-.29-.11.72-2.09c.47-1.4.93-2.8 1.42-4.19.14-.41.13-.69-.48-.76a104.65 104.65 0 0 0-3.55 11.23c1.89-.89 1.81-3.01 3.05-4.29zm-.77-12.84a2.3 2.3 0 0 0 1.07-1.68c.17-.78.4-1.55.64-2.3a3.9 3.9 0 0 1 .45-.76 18.74 18.74 0 0 1-.68 3.38c-.52 2-.53 2.45-.1 3.38.58-1.89.73-3.89 1.72-5.64a2.15 2.15 0 0 1-.05.88c-.43 1.78-.89 3.55-1.28 5.34a1.81 1.81 0 0 0 .52 2 27.12 27.12 0 0 1 1.41-7.4c-.22 2.41-.83 4.78-.72 7.24 1-1.05 1-2.62 2-3.88.31.51.5.85.7 1.17s.57 1 .9 1.41a.7.7 0 0 0 1.17.1c-.25-1.47-.51-3-.78-4.49h-.21v2.92h-.25c-.29-2.89-.25-5.8-.34-8.71a3.66 3.66 0 0 1-1.26.16 3.92 3.92 0 0 1-1-.68c-.5.22-1 .39-1.44.63a1.33 1.33 0 0 0-.62.62c-.65 2.03-1.24 4.09-1.88 6.28zm7.07-9.12c-.2.35-.3.45-.3.55 0 1.39-.06 2.79-.07 4.19 0 .18.06.47.18.54.65.39.49 1 .58 1.6.29 1.77.58 3.54.89 5.31a5.37 5.37 0 0 0 .3.85h.24c.11-.72.21-1.43.36-2.38l2.5 2.14a17.63 17.63 0 0 0-.75-2.55 6.8 6.8 0 0 1-.67-2.6l.63.08c-.2-1.1-.2-1.1 0-1.73a26 26 0 0 0 2.54 6.38 1.07 1.07 0 0 0 .21-1.34 15.78 15.78 0 0 1-.85-2.09c-.58-1.7-1.18-3.4-1.66-5.13A3 3 0 0 0 41 24.84c-.24 2.75.66 5.29 1.1 7.92a4.19 4.19 0 0 1-.75-1.45c-.57-2.56-1.09-5.14-1.67-7.95zM27.33 66.47a5 5 0 0 0 3.11-2.34c.82-1.54 1.49-3.17 2.24-4.75.08-.16.27-.38.4-.37.59 0 .61-.39.71-.78.54-2.2 1.09-4.41 1.62-6.61 0-.11 0-.24-.06-.36-.88 2-1.15 4.22-2.25 6.13.39-1.92 1-3.79 1.19-5.75-1 1-1 2.52-1.8 3.76l-.64-1.71c-.06.13-.11.28-.19.42-.37.66-.15 1.7-1.22 1.93-.07 0-.09.21-.15.32a11.29 11.29 0 0 0-.82 1.58c-.38 1.09-1.61 1.93-1 3.32.05.1-.1.29-.14.44-.36 1.31-.73 2.61-1.07 3.92a3.41 3.41 0 0 0 .07.85zm-3.7-2.17A3 3 0 0 0 26 62.61c.41-.59.86-1.14 1.27-1.72a14.15 14.15 0 0 0 1-1.49c.39-.79.71-1.61 1-2.43.42-1.07.76-2.18 1.21-3.23a6.42 6.42 0 0 0 .42-3.2 13.93 13.93 0 0 0-1.65 3.24c-.77-.8.46-1.31 0-2.12a18.28 18.28 0 0 0-1.45 3 .26.26 0 0 0 0 .23c.48.54.13 1-.09 1.54a30.35 30.35 0 0 1-3.56 6.88 8.09 8.09 0 0 0-.52.99zm4.8-12c-.73-.42-1.11-.33-1.34.24-.09.22-.2.44-.29.66-1.16 2.79-2.32 5.58-3.5 8.37a1.58 1.58 0 0 1-.47.62 4.56 4.56 0 0 0-1.51 3.52c1.11 0 2.13-.7 2.1-1.33l-.63-.38c.33-.65.62-1.3 1-1.92.69-1.26 1.42-2.49 2.12-3.74a2.11 2.11 0 0 0 .41-1.1 2.31 2.31 0 0 1 .45-1.42zM62.7 33.89A4.9 4.9 0 0 0 61.38 32c-2.14-2.25-4.43-4.38-6-7.15a13 13 0 0 0-.77-1.21 1 1 0 0 0-1.42-.44c.28.39.52.75.78 1.08a69.7 69.7 0 0 1 6 8.48c.64 1.09 1.47 1.31 2.73 1.13zm-16.2-.1l.22-.07c0-.48-.27-1-.09-1.43.38-.83 0-1.46-.25-2.16s-.47-1.44-.72-2.16c-.33-.92-.66-1.84-1-2.77-.81.36-.67.88-.52 1.39.66 2.21 1.33 4.43 2 6.64a3.06 3.06 0 0 0 .36.56zm-9.74 16.09c-.16.4-.42.74-.39 1a1.42 1.42 0 0 0 .89 1.47l.45-.64zm2.54 29.25a9 9 0 0 0-.12 4.12 8.09 8.09 0 0 0 .12-4.12zM44 32.72l-.22.1 1.62 3.91c.27-.73-.28-2.18-1.4-4.01zM26.34 63.86l-.23-.16a6.08 6.08 0 0 0-.89 1 .84.84 0 0 0 .24.76c.33.24.59 0 .67-.37s.14-.81.21-1.23zm6.94-4.24a4.71 4.71 0 0 0-1.21 3 7.59 7.59 0 0 0 1.21-3zm-4.94-35.15L28 24.2a5.91 5.91 0 0 0-1.47 2.66zm1.82-5c-1 .29-1.3.93-1.29 2.13zm1.93 16.93a3 3 0 0 0-1.15 2.51c.38-.84.76-1.67 1.15-2.51zm7.11 7.51a4.87 4.87 0 0 0-.33 2.68c.73-.9.41-1.8.33-2.68zm-18.57-11.1l.09.22c.51-.14 1-.21 1.35-.81zm14 7a1.25 1.25 0 0 0 .48-1.28 1.18 1.18 0 0 0-.47 1.26zm-3 42.68c.76-.29.76-.29.81-1zm1-48.56c-.48.43-.62.7 0 1.06zm11.24-12.09c.43-.47.43-.47.23-.86h-.23zM61.42 47l-.27.14.48.71.16-.1zM24.71 66.88l-.22-.12-.25.64.15.07c.11-.19.21-.39.32-.59z" fill="#fff" data-color="1"/>
            <path d="M12.63 79.12l-.66.11-.14-.23 5-5.58.17.15c-.72.88-1.45 1.74-2.15 2.63s-1.48 2-2.22 2.93z" fill="#fff" data-color="1"/>
            <path d="M25.44 26.76l-.4.35-.16-.11 1.26-1.49c-.23.39-.44.81-.64 1.22z" fill="#fff" data-color="1"/>
            <path d="M21.17 75.45c-.26.39-.54.77-.78 1.18s-.43.56-.22 1.06-.7 1.84-1.42 2.2c.13-.37.23-.64.35-1-.14 0-.26.06-.31.12-.47.6-.91 1.22-1.37 1.82-.23.29-.5.55-.93 1 .2-1.06 3.59-5.75 4.68-6.38z" fill="#fff" data-color="1"/>
            <path d="M39.43 66.78a43.46 43.46 0 0 1-.43 7.56 27.76 27.76 0 0 1 .43-7.56z" fill="#fff" data-color="1"/>
            <path d="M9.64 73.29c.17-.37.34-.75.5-1.12l.27.17c-.27.3-.53.61-.79.92z" fill="#fff" data-color="1"/>
            <path d="M8.15 74.17L7 74.4a3.66 3.66 0 0 1 .72-.4c.11-.06.28.1.43.17z" fill="#fff" data-color="1"/>
            <path d="M43.67 68.61c.13 2.6.27 5.2.4 7.8h.22c.08-.32.16-.63.26-1 .52 1.27 1.08 6.75.76 7.84-.27-2.08-.52-4-.77-5.94l-.5.19c0-.06-.13-.11-.14-.18-.22-2.41-.45-4.83-.64-7.25a8.44 8.44 0 0 1 .15-1.48z" fill="#fff" data-color="1"/>
            <path d="M57.08 74.49a10.72 10.72 0 0 1 2.16 3.41 8.53 8.53 0 0 1 .23 1.3 16.89 16.89 0 0 1-2.39-4.71z" fill="#fff" data-color="1"/>
            <path d="M63.91 78.46a9 9 0 0 1-3.23-4.35z" fill="#fff" data-color="1"/>
            <path d="M28.3 17.83c-1.07-.21-1.71.49-2.43 1.08-1.1.9-2.23 1.76-3.34 2.64a1.44 1.44 0 0 1 .79-1.22c1.15-.84 2.32-1.66 3.47-2.51.94-.69 1.86-1.41 3-2.3l-1.55 2.31z" fill="#fff" data-color="1"/>
            <path d="M53.6 20.65c-2.09-1.51-3-3.8-4.65-5.44l.19-.22a3.68 3.68 0 0 1 .76.57c1.22 1.52 2.41 3.07 3.6 4.61.06.07.05.2.1.48z" fill="#fff" data-color="1"/>
            <path d="M38.3 7.21c-.63-1.54.55-2.64.64-4.24.5.79.49.89 0 2.29-.18.65-.42 1.3-.64 1.95z" fill="#fff" data-color="1"/>
            <path d="M33.79 13.16a7 7 0 0 1-2.32 3.15l-.21-.16c.13-.18.23-.37.37-.53z" fill="#fff" data-color="1"/>
            <path d="M28.3 17.83c.56-.44 1.16-.88 1.77-1.31a6.46 6.46 0 0 1-2.38 2.26z" fill="#fff" data-color="1"/>
            <path d="M41.75 10l.39.72-.15.07c-.12-.24-.23-.49-.35-.74z" fill="#fff" data-color="1"/>
            <path d="M33.78 10.11l.45-.72.17.16-.65.53z" fill="#fff" data-color="1"/>
            <path d="M33.75 10.08c-.1.24-.21.47-.32.71l-.14-.1c.16-.19.33-.38.49-.58z" fill="#fff" data-color="1"/>
            <path d="M30.09 30.52l.51-1.28.21.09c-.18.42-.36.84-.55 1.26z" fill="#fff" data-color="1"/>
            <path d="M29.5 28.64l.57-1.43.26.14-.86 1.27z" fill="#fff" data-color="1"/>
            <path d="M23.16 29.68l.36-.39.13.11-.37.43z" fill="#fff" data-color="1"/>
            <path d="M42.79 50.65c-.7-.91-1.65-6.75-1.3-8h.11a.2.2 0 0 1 .09.07.71.71 0 0 1 .11.21c.37 2.52.74 5 1.1 7.55.01.04-.07.11-.11.17z" fill="#fff" data-color="1"/>
            <path d="M51.19 33.86l-1.58-2.67c1 .56 1.23 1.64 1.85 2.46z" fill="#fff" data-color="1"/>
            <path d="M56.88 30.2l.51.88c-.47-.16-.65-.45-.49-.91z" fill="#fff" data-color="1"/>
            <path d="M30.92 43.56a2.38 2.38 0 0 1-.74 1.85z" fill="#fff" data-color="1"/>
            <path d="M38 29.74v2.46a3.91 3.91 0 0 1-.25-2.43z" fill="#fff" data-color="1"/>
            <path d="M31.4 58.67a28.31 28.31 0 0 1-2.28 6c-.07.14-.28.2-.52.36l2.55-6.43z" fill="#fff" data-color="1"/>
        </g>
    </g>
</svg>
