<?xml version="1.0" encoding="UTF-8"?>
<svg data-bbox="0.027 0 59.184 99.405" viewBox="0 0 59.16 99.42" xmlns="http://www.w3.org/2000/svg" data-type="color">
    <g>
        <g>
            <path d="M15.64 47.94l-.75-.12c-.49-.09-.61-.44-.48-.86a3.33 3.33 0 0 1 .41-.9c1.67-2.45 2-5.47 3.47-8l-.79-.92a1.84 1.84 0 0 1 .16-.46c1.91-2.47 2.83-5.41 3.91-8.26.12-.31.2-.64.29-1 .41-1.39 1.09-2.69 1-4.25a12.14 12.14 0 0 1 .71-3.15c-1 .34-1.64 1.37-2.94.91.34-.62.62-1.14.92-1.65 1-1.64 2-3.23 2.89-4.93a77.46 77.46 0 0 0 4.93-12.74A9.82 9.82 0 0 1 30.22 0c.32.37.58.55.63.76 1.08 5 3.52 9.48 5.64 14.07.79 1.69 1.7 3.32 2.53 5a2.07 2.07 0 0 1 .2 2l-1.88-.42a11.25 11.25 0 0 0 .14 1.13c.23 1.07.52 2.13.73 3.21a13.83 13.83 0 0 0 2.94 6.29 9.1 9.1 0 0 1 1 1.43c.59 1.11.44 1.41-.91 1.84a13.65 13.65 0 0 0 1.25 4.32c.84 1.72 1.76 3.39 2.62 5.1a11.63 11.63 0 0 1 .51 1.33l-1.62.51c.79 2.86 2.53 5.13 4.3 7.51l-1.74.71c.49.64.9 1.2 1.33 1.75.23.3.53.56.73.88.41.65.15 1.11-.62 1.12h-1.89a6.36 6.36 0 0 1 2 3.32A11.5 11.5 0 0 0 51 66.15a3.34 3.34 0 0 1 1.27 2l-1.93.39a14.61 14.61 0 0 0 2.55 5.77c.54.74 1.11 1.44 1.62 2.2a3.13 3.13 0 0 1 .77 2.51 1.79 1.79 0 0 0 .5 1.23c.86 1 1.81 2 2.69 3a3.16 3.16 0 0 1 .62 1c.32.85 0 1.47-.87 1.57-1.41.16-2.84.15-4.39.22a5.3 5.3 0 0 1-1.06 1.08 2.3 2.3 0 0 1-2.12-.12l-1.24-.41.31 2.28c-2.44.24-4.45-.62-6.57-1.48 0 .36-.07.62-.13.88a1.67 1.67 0 0 1-1.9 1.53 6.76 6.76 0 0 1-5-1.76c-.17-.16-.37-.29-.72-.56-.49 3.73-.19 7.37-.92 10.93a17.85 17.85 0 0 1-1.06-4.58 14.11 14.11 0 0 0-1-4.17 5.51 5.51 0 0 0-.79 3.74c-.67-1.16-.71-2.54-.26-4.45-.14-.18-.31-.41-.5-.61a1.84 1.84 0 0 0-.64-.38c.55 1.2 1 2.35-.13 3.51l-.54-.78.28 7c0 .19.05.38.05.57 0 .41.2.9-.37 1.1s-.87-.31-1-.73a4.1 4.1 0 0 1-.19-1.39c0-1.67.09-3.34.18-5s0-3-1.72-3.88c-.34.32-.77.74-1.22 1.14-1.33 1.2-2.57.94-3.19-.75a13.47 13.47 0 0 1-.46-2.39c0-.23-.06-.46-.11-.88a4.78 4.78 0 0 0-.84.58c-1 1.13-2.05 2.28-3.07 3.41a2.6 2.6 0 0 1-.73.68c-.4.19-1 .45-1.27.3a1.64 1.64 0 0 1-.58-1.18 12.16 12.16 0 0 1 .16-2 13.72 13.72 0 0 0-1.19.69c-.39.27-.74.61-1.12.9s-1 1-1.74.7-.2-1.19-.26-1.81c0 0 0-.08-.11-.24-.32.16-.64.3-.94.47-.8.44-1.56.93-2.37 1.34a2.61 2.61 0 0 1-2.82-.1c.3-.61.6-1.22.89-1.83l-.15-.15-1.82 1.02a3 3 0 0 1-2.75.27 2.07 2.07 0 0 1-1-.85c-.26-.53.23-.87.65-1.12 2.25-1.35 3.43-3.64 4.78-5.77a2 2 0 0 0 .11-.53 7.55 7.55 0 0 1-1.56.23A2.1 2.1 0 0 1 2.81 80c-.43-.42 0-.86.24-1.27 1.57-2.51 3.13-5 4.71-7.6-.8-1.34-.36-2.5.33-3.74.95-1.7 1.72-3.5 2.53-5.18-1-1.25-1.08-1.28-.35-2.5.64-1.06 1.32-2.1 2-3.12a15 15 0 0 0 2-4.4c.48-1.37.92-2.78 1.37-4.25zm22 26.37c-.16-.45-.32-.89-.47-1.34-.41-1.18-.86-1.3-2.12-.45.47 1.79 1 3.63 1.44 5.48l-.3.09a8.29 8.29 0 0 1-.5-1.1c-.39-1.33-.76-2.66-1.1-4a1.76 1.76 0 0 0-1.07-1.48 4.53 4.53 0 0 0-.07.75c.12 1.23.26 2.46.38 3.7.08.78 0 .81-.92.74.76-1.56-.12-3-.16-4.61l-1.24.13v4.59h-.3a3.76 3.76 0 0 1-.2-.73c-.11-1-.2-2.09-.28-3.13s0-.93-1.16-1.15c0 1-.47 2 .46 2.81a1.08 1.08 0 0 1-.07 1c-.65.67-.27 1.18.07 1.77a2.31 2.31 0 0 1 .4 1.14c-.05 1 1 1.35 1.35 2.18.12.32.91.31 1.24-.15a3 3 0 0 0 .33-1.07c.09-.5 0-1.06.82-1.37.37.58.75 1.15 1.1 1.75a2.63 2.63 0 0 0 1.92 1.37 1.18 1.18 0 0 0 1-.34c.53-1.1.93-2.35.27-3.43a7.32 7.32 0 0 1-.82-3.26c.46.38 0 1.77 1.33 1.15.77 1.46.84 3.36 2.72 4l.79-.66c.13.2.22.32.29.45a.94.94 0 0 0 1.32.48 1.8 1.8 0 0 0 .67-1c.14-.35.1-.76.21-1.12.18-.61.61-.7 1-.23s.7.85 1.13 1.39c.42-.88.75-1.57 1.07-2.26l1.5.63v-.73c0-.43-.13-.89.43-1s.77.24 1 .61.66 1 1 1.55a.9.9 0 0 0 1.18.39c-.45-1.9-.55-3.92-2.93-4.53.28-1.24.07-1.53-.78-3.19v2.48c-.76.5-1 0-1.23-.4s-.47-1-1.24-.6c.16.47.32.94.61 1.77-1.24-1.28-2.43-.19-3.74-.84.29.72.48 1.15.63 1.58s.56.84.2 1.44a12 12 0 0 1-2.08-6c-.78.23-.85.25-.7.77.59 2 1.23 4 1.85 6 .07.23.11.48.2.93L43 76.52a.67.67 0 0 0 0-.28c-.66-2.18-1.63-4.28-1.78-6.61 0-.47-.45-.66-1-.61a1.47 1.47 0 0 0-.07.46c.56 1.87 1.09 3.75 1.74 5.6a6 6 0 0 0 1.09 1.42c.07.41.13.82.19 1.24-2.07-2.29-2.91-5.1-3.65-7.94l-.29.07.24 3.77h-.12l-.49-2.15c-.87.44-.27 1.15-.56 1.61a2 2 0 0 0-.81-1.1c.06.84.1 1.58.14 2.31zm3.82-14.07c-.21-.74-.43-1.46-.64-2.18-.64 1.23-.21 2.35.09 3.46a4.57 4.57 0 0 1-.18 3.83 4.87 4.87 0 0 0-.73-1.58 6.14 6.14 0 0 0-1.65-.86l.39-.5c-.05.37-.1.73-.16 1.12l-.78.21c-.91-2.52-.93-3.61 0-4.39l-.61-.57c-.54.71-1.06 1.31-1.47 2a1.92 1.92 0 0 0-.19 1.07c0 .67.17 1.34.27 2h-.36c-.12-.72-.3-1.44-.35-2.17s-.41-1.09-1.34-1.07c.13 1.7.25 3.35.38 5-1.24-2-.64-4.4-1.64-6.44a9.93 9.93 0 0 0 .35 4.31 1.79 1.79 0 0 1-.14 1.58c-.87-1.82-.67-3.86-1.21-6-.74 1.42-.77 2.93-2.05 4l-1.24-1.5c-.2.27-.36.48-.7.91-.14-.91-.24-1.57-.35-2.31a25 25 0 0 1-2.25 2.74c-.62.59-1 1-.66 1.92a1.23 1.23 0 0 1-.22 1 16.94 16.94 0 0 1-1.61 1.43 3.27 3.27 0 0 1 .32-1.3c.83-1.09.86-1.08-.32-1.85-.12-1.41.89-2.74.4-4.52l-1.24 3-.26-.08c.11-.67.22-1.34.37-2.23-.54.44-.88.76-1.26 1-.94.66-1.8.27-1.9-.87 0-.45 0-.89-.05-1.67-1.56 1.61-3.36 2.44-4 4.41a1.77 1.77 0 0 1-1.27 1.27c.38-.83.69-1.45 1-2.09.43-1 .42-1-.56-2-.66 1.6-1.3 3.18-2 4.93-.74-1.2.48-1.91.29-2.95-1.65 2-2.24 4.38-3.35 6.92a15.62 15.62 0 0 0 1.65-.79c1.19-.8 2.34-1.65 3.52-2.46a7.06 7.06 0 0 1 .87-.43c.19 1.83-1.36 3.22-1 5 2-.79 3.29-2.67 5.42-3.44.18 1.24-.63 2.3 0 3.58.82-.93 1.53-1.74 2.26-2.53.34-.37.74-.68 1.11-1-.06.56-.08 1.12-.18 1.66a2.7 2.7 0 0 0 .63 2.88 12.19 12.19 0 0 0 .85-1.18c.54-1 1-2 1.57-3.06.19-.35.44-.66.72-1.08.83 1.31.1 2.83 1.08 4 1-1.14 1.4-2.58 2.52-3.89.37 1.56 0 3.07 1.34 4.19l1.67-3.58c1.19-.08 1.19-.09 1.52.91a4.41 4.41 0 0 0 1.4 2.46c.29-.8.52-1.51.79-2.2a8.07 8.07 0 0 1 .71-2.11l.31.11c-.32 1.61-.63 3.22-1 4.83 1.43.33 2.17-.1 2.15-1.31s-.26-2.55-.39-3.83c0-.29 0-.58-.06-1.06 1 .38 1 1.23 1.44 1.73s.91 1.37 1.33 1.34c.7 0 1 1.39 1.86.34-.25-.91-.51-1.9-.86-3.17 1.49.66 2 2.39 3.74 2.15v-3.16a15.9 15.9 0 0 0 2.31 2.6 4.68 4.68 0 0 0 3.36.91c-1.37-1.66-2.56-3.09-3.74-4.53a1.73 1.73 0 0 0-.73-1.74l.75 1.72 1.5 3.2c-.76-.82-1.16-1.86-1.82-2.68s-.89-2.11-1.57-3-.13-2.21-1.36-3c-.06.86-.11 1.55-.16 2.25-.3-.31-.43-1-1.21-.38.26 1.57.54 3.22.82 4.87l-.28.05c-.28-1-.55-1.91-.86-2.85s-.21-1.92-1.16-2.64zM23.73 39.59l-1.73.08c-.6.73-.51 1.87-1.46 2.41a23.71 23.71 0 0 1 1-2.8 3.31 3.31 0 0 0 .34-.9c.05-.85 0-1.7 0-2.81-1.21 2.59-2.32 5-3.43 7.31l-.25-.12c.62-1.95 1.77-3.71 2.35-5.84a1.63 1.63 0 0 0-1.29 1.21c-1 2.13-1.89 4.29-2.81 6.44a4.17 4.17 0 0 0-.17.83c.85-.19 1.09-1.26 2.07-1.06 0 .6.06 1.16.09 1.73s.06 1.08.09 1.71c1.69-.39 2.34-2 3.78-2.6.25 1.37-.23 2.76.66 4a7.65 7.65 0 0 0 .63-.74c.68-1 1.34-2.09 2-3.14.3-.46.52-1.08 1.32-.84.56 1.23-.09 2.76.83 4 1.31-.67 1.13-2.72 2.73-3l1.05 1.71c1.12-.4.73-1.78 1.79-2.15.18.35.35.62.47.92.33.82.65 1.59 1.74 1.64.5 0 .66.48.73.93.11.71.2 1.42.34 2.12.29 1.42.62 2.84.93 4.26-1.39-2.09-1.42-4.56-2-6.94l-1.53.52c.26 1.68.51 3.27.76 4.85l.94.12c0 .68-.09 1.3-.15 2.1a11 11 0 0 1-1.76-4.34c-.11-1.19-.25-2.38-.41-3.56a2.73 2.73 0 0 0-.23-.66l-.35.02c-.69 2.39.35 4.76.27 7.16a5.9 5.9 0 0 1-.84-2.79 9.77 9.77 0 0 0-.74-3.24c-.47 1.86.16 3.39.13 5.24-1.36-2.24-.44-4.7-1.75-6.9a17.37 17.37 0 0 1-.87 1.71c-.36.52-.5 1.42-1.36 1.26s-.95-1-1.09-1.7a10.73 10.73 0 0 1-.08-1.14c0-.26-.06-.52-.14-1.15-.95 1.47-1.7 2.66-2.48 3.84a2.48 2.48 0 0 1-.82 1c-.32.14-.79-.06-1.22-.11l-1 2c-.19-1.82 1.3-3.37.55-5.3a3.44 3.44 0 0 0-1.91 2.71 18 18 0 0 1-1.7 4.74l-.37-.11c.55-1.72 1.09-3.44 1.64-5.15a6 6 0 0 0-.59-.24h-.61c-.67 2.28-1.21 4.57-2.71 6.43.47-1.49 1.1-2.91 1.58-4.38a9.46 9.46 0 0 0 .61-4.65c-.45 1-.83 2-1.19 3a15.85 15.85 0 0 0-.57 1.77 19 19 0 0 1-2.23 5.56c-.62 1.06-1.14 2.17-1.71 3.26 1.36-.66 2.17-1.94 3.58-2.46.08.89.17 1.7.25 2.54 1.91-.29 2.48-2.24 4.16-3v3.35a23.86 23.86 0 0 0 4.69-5.27c.67 1.12-.08 2-.15 2.93a7.38 7.38 0 0 0 .1 3.15c.47-.52.85-.86 1.15-1.27 1.05-1.43 2.51-2.63 2.67-4.61 0-.3.31-.59.53-1 .61.6.35 1.13.32 1.62-.08 1.19-.2 2.38-.24 3.57a3.63 3.63 0 0 0 .8 2.46c1.31-2 1.29-4.24 1.81-6.22-.34-.4-.61-.71-.89-1l.2-.25L32 55a9.6 9.6 0 0 0 .13 1.06 6.12 6.12 0 0 0 2.06 3.52c.78.64 1.39.46 1.81-.46a10.65 10.65 0 0 0 .4-1.12c.17-.52.33-1 .52-1.67.77.91 1.4 1.66 2.08 2.45l.78-2.78c.94.21 1 1.18 1.56 1.5a10.89 10.89 0 0 0 1.95.63c.06-.89.11-1.67.17-2.52.81.29 1.4.49 1.74 1.28s1.21 1 2.37.6c-2.65-2.78-4-6.23-5.65-9.62.17 1.06.34 2.13.53 3.36-.77-1-.4-2.18-1.28-2.91a16.58 16.58 0 0 0 .41 2.91c.24 1 .56 1.9.84 2.84l-.33.11c-.31-.78-.63-1.56-.91-2.36-.17-.45-.26-.94-.87-1a5.42 5.42 0 0 1-.34-1.5 3.1 3.1 0 0 0-1.54-3c-.16-.11-.18-.44-.33-.88l1.34.41.92-.89c.31-.54-.48-1.18.56-1.72.37.44.76 1 1.22 1.45s1 1 1.86.73a2.82 2.82 0 0 0-.18-.61 28.58 28.58 0 0 1-3.68-10.31c0-.21-.37-.38-.62-.62v4.65c-.33-.91 0-1.81-.77-2.56a6.23 6.23 0 0 0 .52 3.62c.07.18.46.25.5.41.13.63.17 1.28.25 1.94a8.05 8.05 0 0 1-2.19-3c-.23-1.27-.35-2.56-.54-4a1.72 1.72 0 0 0-.72 1.69c0 .33.19.85 0 1-.93.75-.35 1.64-.3 2.47a2.29 2.29 0 0 0 .39 1.21c.19.26.64.33 1 .49-1 .13-1 .79-1 1.62h1.94c-.16.62-.29 1.09-.45 1.72L37.57 44c-.27.3-.47.52-.61.69l-.91-.75c-.42.55-.77 1-1.28 1.68 0-.48-.06-.69 0-.84.32-.63.65-1.26 1-1.87a2.58 2.58 0 0 0-.15-2.91c-.11-.12-.41-.06-.74-.1 0 .5.06.87.11 1.24s.1.64.15 1h-.3a35.66 35.66 0 0 1-1.67-7.32c-.69 1.19.24 2.51-.4 3.72-.27-.25-.53-.64-.67-.6-.88.27-1.2-.39-1.6-.89-.28-.34-.49-.73-.8-1.19-.72 1.26-.8 2.6-1.88 3.48-1.35-.61-1-2.07-1.61-3.13zm9.13-17.14c-.41-1.67-.28-3.42-1.29-5.24v1.3c0 .3.06.64.09 1-.8-1.1-1.1-3.48-.61-4l1 .12a16.8 16.8 0 0 0 .65 2.29c.31.68 0 1.54.81 2.11.52.34-.07 1.51 1 1.95a5.85 5.85 0 0 1-.32-2 5.28 5.28 0 0 0-.42-3.19c-1-2.64-1.88-5.3-2.83-8a2.68 2.68 0 0 0-.38-.5V11c-1.34-.4-.16-1.51-.79-2.18-.55 1.93-1.53 3.74-1.16 6-1.3.84-.85 2.66-1.76 3.92.1-.8.19-1.59.29-2.38l-.3-.07c-.29.69-.56 1.39-.88 2.07a2.49 2.49 0 0 1-.68 1.06c-1.08.68-1.07 1.78-1.43 2.9 1.32-.19 1.73-1.65 3-1.71-.06.91-.2 1.59-1.14 1.84-.71.19-1.17.61-1 1.46a1.35 1.35 0 0 1-.13.7c-.84 2.59-1.69 5.17-2.55 7.76 0 .1-.18.17-.54.51.33-2.46 1.51-4.36 1.64-6.53-1.33 3.18-2.65 6.37-4 9.72 1.67-.27 2.09-2 3.48-2.42.6 1.7-.72 3.51.34 5.14.26-.1.44-.11.51-.21.89-1.23 1.78-2.47 2.62-3.73a1.33 1.33 0 0 0 .07-.8 6.93 6.93 0 0 1-.11-1.19c.2-1.37.43-2.73.7-4.09a1.6 1.6 0 0 1 .7-1.35c-.3 2.13-.57 4.06-.84 6l.3.07a2.12 2.12 0 0 0 .32-.56c.41-2.18 1-4.35.64-6.62-.1-.62-.19-1-.87-1.28-1-.37-1.12-1.14-.52-2 .26-.37.45-.79.73-1.28l1.59.25.75-1.09 1.3 1.37a17.14 17.14 0 0 0-.91 2.72 2.93 2.93 0 0 1-.81 2l-.2-.83c-.58 3.17-1.2 6.33-1.72 9.51a2.71 2.71 0 0 0 .8 2.63c.52-1.56 1-2.92 1.47-4.38 1.11.73.79 2.28 2 2.84a6 6 0 0 0 .65-4c-.1-.68-.43-.81-1.25-.65-.54-.58-1.07-1.15-.61-2h1.84A5.7 5.7 0 0 0 36 35.2l1.24-2.13 1.11 1.22c.25-.92-.5-1.72-.07-2.61 1.11.28 1.46 1.58 2.61 1.72a1.49 1.49 0 0 0-.11-.34 22.1 22.1 0 0 1-3.9-9.3 22.08 22.08 0 0 0-.64-2.2c-1.2 1 .06 2-.12 2.85-1.36-.09-.65-1.69-1.58-2.08-.06.09-.12.13-.11.16.34 2.4.67 4.8 1 7.19a1.66 1.66 0 0 1-.35 1.73c-.56-3.15-1.09-6.18-1.64-9.35zM11.77 79.58c1.4.11 1.89-1.29 3.25-1.64-.28 1.07-.5 1.93-.75 2.87a2.26 2.26 0 0 0 1.89-.81c.58-.57 1.16-1.15 1.71-1.74.38-.41.76-.57 1.26-.15.2 1-.67 2 .15 3 1.67-1 2.62-2.91 4.59-3.53.47 1.09-.31 2.15.33 3.44.68-1.35 1.25-2.45 1.81-3.56h.34l1.16 3.17c.4-.17.75-.35 1.11-.48a1.73 1.73 0 0 0 .88-2.27c-.44-1.16-.25-2.59-1.38-3.5-.16-.13-.14-.5-.2-.75l.93-.19c0-.4-.05-.8-.07-1.31-1.36.3-2.58.39-3.29-1.07a5.11 5.11 0 0 1-3.09 1.84c-.6.08-.91-.09-1.06-.64s-.29-1.08-.46-1.74c-.55.38-1 .7-1.4 1-.81.49-1.22.3-1.36-.64-.08-.59-.11-1.18-.19-2.12-.7.63-1.13 1-1.6 1.42A15.33 15.33 0 0 1 13.94 72c-.91.48-2 .61-2.69 1.62l1.64-5c-1.07.41-1 .43-1.16.84-.71 1.85-1.45 3.7-2.19 5.54 0 .11-.26.16-.56.32.74-2 1.4-3.74 2.07-5.51l-.29-.14c-.31.51-.64 1-.93 1.54-.7 1.31-1.37 2.63-2.08 3.93-.17.33-.31.78-1 .79.51-1 1-1.78 1.38-2.63A4.35 4.35 0 0 0 9 70.67c-.79 1.3-1.46 2.66-2.2 4a6.93 6.93 0 0 1-1.13 1.41 9.5 9.5 0 0 0-2 3.72 9.88 9.88 0 0 0 2.07-.59c1.59-.87 3.11-1.86 4.66-2.79.21-.13.44-.23.66-.35l.24.2c-.45.76-.9 1.52-1.36 2.28l.16.11 2.37-1.34zM14.25 84c-.49.45-.86.81-1.23 1.16l-.24-.2L14 82.78c-1.05-.46-1.07-1.37-1-2.27-.6 0-1.16.15-1.52 0s-.57-.76-.94-1.29a8.1 8.1 0 0 0-.95 1C9 81 8.52 81.89 8 82.71a1.84 1.84 0 0 1-1.15 1c.4-.72.69-1.2.94-1.7s.86-.94.09-1.68c-.37.6-.68 1.12-1 1.63s-.7 1-1.05 1.53c-.64 1-.64 1-1.21 1.14l.57-1.34-.23-.11-3 4 .21.25c1-.31 2.09-.55 3.1-1s1.8-1.35 3-1.57c.15 1.4-1.41 2-1.34 3.4l5.92-2.71c0 1.17-1.06 1.89-.64 3.17l4.74-3.57a9.54 9.54 0 0 1-.36 1.94 18.32 18.32 0 0 0-.2 2 16.64 16.64 0 0 0 4-3.29 1.88 1.88 0 0 0 .16-.39c.38-1.22.74-2.44 1.15-3.65a11.88 11.88 0 0 1 .7-1.49.87.87 0 0 0-.71.27c-.47.48-.89 1-1.38 1.45-1 .92-1.48.8-2-.42-.14-.32-.29-.63-.53-1.15L16 84.08c0-.7-.06-1.08-.09-1.72-.57 1-1 1.75-1.42 2.5l-.21-.09zm34.08 0c-.6-1.17-1.6-2-1.6-3.32a25.08 25.08 0 0 1 2.2 3.08 1.22 1.22 0 0 1 .16.54 2.53 2.53 0 0 0 3.7 2.05 3.31 3.31 0 0 0-.06-.54c-.32-1-1.5-1.82-1-3.13 0-.05-.12-.14-.16-.22a14.75 14.75 0 0 1-1-1.89 2.89 2.89 0 0 0-2.17-1.87c-.36 1.55 0 2.19 1.53 2.59V84a2.36 2.36 0 0 1-.78-.92 7.17 7.17 0 0 0-3.39-3.8l-1.32 2.22 1.47 2.87 1.25-.26.24.39-.95.43c.22.61.35 1 .49 1.35a.9.9 0 0 1-.63-.42c-.78-1.31-1.57-2.62-2.31-4-.24-.44-.43-.84-1.26-.58.89 1.65 1.72 3.22 2.61 4.89a6.35 6.35 0 0 1-2.28-2.85 24.31 24.31 0 0 0-1.22-2.58c-.12-.23-.48-.33-.73-.49l-.24.17c.2.46.38.92.59 1.37s.52 1 .76 1.54.64.78.42 1.52l-1.27-1.55c.89 3 4.93 5.4 7.57 4.76a28.34 28.34 0 0 0-1.07-2.93c-.29-.62-.01-.86.45-1.19zm-21-2.11a9.67 9.67 0 0 0 1 6.62c1.55-.23 1.28-2 2.57-2.48.33 1.34.78 2.52 2.37 2.89.33-.65.59-1.31 1-1.91s.08-1.38 1-1.77c.4-.17.43-1.18.68-2-.4-.75-.62-1.83-1.8-2.34-.46 1.13-1.49 1.23-2.51 1.46 0 .79-.07 1.52-.11 2.52-.79-1.26-.41-2.61-1.34-3.56v3.89c-1.16-1.36-.24-2.91-.9-4.44-1.08 1.79 0 3.44-.29 5.24-1.31-1.33-.37-3.18-1.69-4.18zm-4.69-.63l-1.27 3.06c1.28-.16 1.25.54 1.3 1.26a19.35 19.35 0 0 0 .33 2.78 1.15 1.15 0 0 0 1.59 1 3.68 3.68 0 0 0 2-3.34c-.08-1.19-.16-2.38-.27-3.57-.04-.78-.16-1.45-.32-2.45l-2.37 3zm13.29 5.66L37.29 88A4.9 4.9 0 0 0 41 89.06c.56-.06 1.16-.24 1.13-.87a8.11 8.11 0 0 0-.45-2.19 6.89 6.89 0 0 0-.88-1.3l-.8 1.93a2 2 0 0 1-1.66-1.94 6.86 6.86 0 0 0-.47-1.5c-.32-.89-.42-.93-1.7-.83.47 1.38.92 2.74 1.38 4.1l-.21.08-.73-1.33c-.26.56-.43.97-.7 1.65zm16.87-5c-.59 1-.55 1.37.19 2.21a3.32 3.32 0 0 0 4 .92c-.56-1-1.1-2.1-1.66-3.13s-1.1-2.43-2.64-2.74c-.34-.07-.62-.43-.94-.64s-.43-.22-.76-.39a4.46 4.46 0 0 1 .28 1.9zM33.28 13.59c1.09 3.78 1.64 4.71 3.91 6.59a1.5 1.5 0 0 0 1.53.53C36 17.05 35 12.71 32.81 8.9l-.26.1L34 13.4zM23.08 19a5.21 5.21 0 0 0 .69-.38c.34-.26.63-.72 1-.78.85-.14 1.14-.77 1.43-1.39a43.36 43.36 0 0 0 2.88-10.3c-1 2.13-1.82 4.3-2.79 6.41S24.2 16.74 23.08 19zm17.61 65a8.36 8.36 0 0 0-1.31-2.91 3.72 3.72 0 0 0 0 4.52zm3.7-34.41a6.09 6.09 0 0 0 1 3.6 1.09 1.09 0 0 0 1.7.42zM30.7 4.07a11.36 11.36 0 0 0 1 5.11 10.17 10.17 0 0 0-1-5.11zm8.64 58.75c.39-.33.71-.53.69-.59-.29-.71-.23-1.6-1.17-2 .14.77.29 1.55.48 2.59zm18.93 22.53c.09-1.46-.88-1.93-1.56-2.58.42.78.36 1.82 1.56 2.58zM44.65 68.4h-.33a2.53 2.53 0 0 0 .55 2.72c-.08-1.03-.15-1.88-.22-2.72zm-9.24-47.25c.83-1.12.83-1.13-.21-1.65.07.5.12.99.21 1.65zm-3.65 50l.37.2c.72-.28.76-.82.4-1.83-.34.71-.53 1.16-.77 1.61zm13.59-.58l.36-.06c-.1-.54-.21-1.07-.31-1.61l-.34.07c.1.51.19 1.03.29 1.58zm2.71-.73h.43l-.36-1.48h-.23zm-1.87-.31h.33c.15-.42.31-.84-.23-1.29-.03.42-.07.84-.1 1.27zm-2.49 2.36h.42c-.09-.53-.18-1.07-.26-1.61h-.31zM41.89 45.3l-.46.19c.14.28.28.56.44.82a1 1 0 0 0 .33-.14c-.09-.29-.2-.58-.31-.87zM25.18 69.72l-.18-.08-.41 1 .24.09zM23 63l.26.27c.15-.17.3-.34.43-.52 0 0-.1-.13-.15-.2zm26.12 6.82l.22-.07-.2-.79-.28.08zM37.91 62h.23a2.94 2.94 0 0 0 0-.51 1.06 1.06 0 0 0-.15-.35l-.16.07zM29.3 23h-.22c0 .26 0 .52-.09 1.1a6.21 6.21 0 0 0 .31-.65 2.16 2.16 0 0 0 0-.51z" fill="#2b5849" data-color="1"/>
            <path d="M32.57 92.93c.11 1.13.21 2.25.32 3.37a2.82 2.82 0 0 1-.32-3.37z" fill="#2b5849" data-color="1"/>
            <path d="M30.54 97.38v-2.82c.78.9.54 1.85.3 2.81z" fill="#2b5849" data-color="1"/>
            <path d="M31.33 96.76V94c.58.82.57 1.53 0 2.76z" fill="#2b5849" data-color="1"/>
            <path d="M40.31 50.81l-1.2.5 1.57 4a5.64 5.64 0 0 1-1.56-2.59c-.25-.81-.17-1.9-1.51-1.88-.11 0-.3-.25-.33-.41a6.82 6.82 0 0 1-.34-2.24c.07-.5.7-.93 1.05-1.35 1.18.33 1.18 1.22 1.23 2.06s.14 1.64 1.1 2c.01-.07-.01-.09-.01-.09z" fill="#2b5849" data-color="1"/>
            <path d="M28.25 51.48c.15-1.48.15-1.48 1.15-1.54v2.2z" fill="#2b5849" data-color="1"/>
            <path d="M25.75 38.23a4.09 4.09 0 0 1-.83 2.33 2.16 2.16 0 0 1 .83-2.33z" fill="#2b5849" data-color="1"/>
            <path d="M23.73 39.59a3.47 3.47 0 0 1-.94 2.8 4.59 4.59 0 0 1 .95-2.81l-.01.01z" fill="#2b5849" data-color="1"/>
            <path d="M32.26 41.51l-.08 1.37c-.53-.44-.65-.89-.34-1.38z" fill="#2b5849" data-color="1"/>
            <path d="M26.54 51.18a2.17 2.17 0 0 1 .34 1.52h-.34z" fill="#2b5849" data-color="1"/>
            <path d="M24.87 54.25c.06-.48.13-1 .21-1.55.29.76.29.76-.21 1.55z" fill="#2b5849" data-color="1"/>
            <path d="M34.05 56.64a2.7 2.7 0 0 1 .25.51c.05.27.06.54.1 1-.64-.41-.77-.75-.35-1.51z" fill="#2b5849" data-color="1"/>
            <path d="M34 44c0-.38-.09-.76-.13-1.15h.39c0 .38.09.76.13 1.14z" fill="#2b5849" data-color="1"/>
            <path d="M28.13 41l-.39.93-.36-.17.49-.89z" fill="#2b5849" data-color="1"/>
            <path d="M31.77 28.93l-1-.25c.26-.21.46-.39.71-.61a17.84 17.84 0 0 1-.29-5.46l1.68 1.25a23.66 23.66 0 0 1 .35 2.47A20.11 20.11 0 0 1 33 28.9c-1-1.5-.4-3.13-.85-4.6-.63 1.48.45 3.06-.38 4.63z" fill="#2b5849" data-color="1"/>
            <path d="M25.77 25.11c-.45 1.37-.89 2.74-1.32 4.06l.73.47-1 .64-.57 1.85A14 14 0 0 1 25.43 25z" fill="#2b5849" data-color="1"/>
            <path d="M36.44 26.27c-.26.59.63 1.42-.52 1.92.01-.73-.38-1.46.52-1.92z" fill="#2b5849" data-color="1"/>
            <path d="M33.39 31.41c-.83-.38-.83-.38 0-1.66z" fill="#2b5849" data-color="1"/>
            <path d="M23.64 35l.22-1.41h.09v1.43z" fill="#2b5849" data-color="1"/>
            <path d="M30.83 12.26c-.36.54-.75.69-1.46.16z" fill="#2b5849" data-color="1"/>
            <path d="M30 15.65l-.19.75-.27-.08c.08-.24.15-.49.23-.74z" fill="#2b5849" data-color="1"/>
            <path d="M27.15 63.55c-.88.42-1.34.91-1.21 1.87-.78-1-.61-1.35 1.09-2.47l1.47.72c.17.08.42.12.48.25a2.43 2.43 0 0 1 .12.73c-.21 0-.48 0-.63-.05-.47-.31-.87-.68-1.32-1.05z" fill="#2b5849" data-color="1"/>
            <path d="M41.45 60.24c.11.67.21 1.35.31 2h-.21c0-.68-.07-1.37-.1-2.05z" fill="#2b5849" data-color="1"/>
            <path d="M27.6 64.68a3.94 3.94 0 0 1-.36.45s-.14-.06-.21-.1l.4-.51z" fill="#2b5849" data-color="1"/>
            <path d="M25.53 76l-.72-.8-1.09.4a3 3 0 0 1-.25-.7c0-.46 0-1 .7-1.07v.83c1.49.22 1.49.22 1.36 1.34z" fill="#2b5849" data-color="1"/>
            <path d="M17.49 71c-.55 1.47-1.09 3-1.64 4.42l-.32-.12c.62-1.47.81-3.11 1.65-4.51z" fill="#2b5849" data-color="1"/>
            <path d="M13.54 75.09l1.71-3.58a3.82 3.82 0 0 1-1.71 3.58z" fill="#2b5849" data-color="1"/>
            <path d="M19.86 74.9c-.09 1.35-.27 1.59-1.4 1.76l1.41-1.76z" fill="#2b5849" data-color="1"/>
            <path d="M19.87 74.9c.59 0 1.32-.24 1.73.85l-1.73-.85z" fill="#2b5849" data-color="1"/>
            <path d="M22.21 76.28l.87-.27.07.23-.88.22z" fill="#2b5849" data-color="1"/>
            <path d="M19.34 62.85c0 .77-.06 1.42-.09 2.06-1.01-.58-1.02-.75.09-2.06z" fill="#2b5849" data-color="1"/>
            <path d="M10.79 81.79c-.58.89-1.15 1.78-1.72 2.67a5.52 5.52 0 0 1 1.44-2.89z" fill="#2b5849" data-color="1"/>
            <path d="M46.92 75.81l.18 1.81c-.78-.58-.51-1.19-.46-1.8z" fill="#2b5849" data-color="1"/>
            <path d="M47.16 73.65l.35.25-.3.36c-.1-.09-.26-.16-.28-.27s.13-.2.23-.34z" fill="#2b5849" data-color="1"/>
        </g>
    </g>
</svg>
