<?xml version="1.0" encoding="UTF-8"?>
<svg data-bbox="0 -0.229 129.98 148.938" viewBox="0 0 129.98 148.47" xmlns="http://www.w3.org/2000/svg" data-type="color">
    <g>
        <path d="M70.23 143.23V5.24a5.24 5.24 0 1 0-10.47 0v138a5.24 5.24 0 1 0 10.47 0z" fill="#ffffff" data-color="1"/>
        <path d="M87.22 13.85a5.25 5.25 0 0 0-7.41 0L65 28.68 50.17 13.85a5.24 5.24 0 1 0-7.4 7.41l18.32 18.32a5.78 5.78 0 0 0 7.81 0l18.32-18.32a5.25 5.25 0 0 0 0-7.41z" fill="#ffffff" data-color="1"/>
        <path d="M42.77 134.61a5.22 5.22 0 0 0 7.4 0L65 119.79l14.82 14.82a5.24 5.24 0 0 0 7.41-7.4L68.9 108.89a5.78 5.78 0 0 0-7.81 0l-18.32 18.32a5.22 5.22 0 0 0 0 7.4z" fill="#ffffff" data-color="1"/>
        <path d="M127.36 104.2L7.85 35.2a5.23 5.23 0 1 0-5.23 9.07l119.51 69a5.23 5.23 0 0 0 5.23-9.07z" fill="#ffffff" data-color="1"/>
        <path d="M23.81 24.8a5.24 5.24 0 0 0-3.7 6.41l5.43 20.24-20.25 5.43A5.23 5.23 0 1 0 8 67l25-6.7a5.76 5.76 0 0 0 3.9-6.77l-6.7-25a5.24 5.24 0 0 0-6.39-3.73z" fill="#ffffff" data-color="1"/>
        <path d="M106.17 123.67a5.24 5.24 0 0 0 3.7-6.41L104.45 97l20.24-5.42A5.24 5.24 0 0 0 122 81.47l-25 6.71a5.75 5.75 0 0 0-3.91 6.76l6.71 25a5.23 5.23 0 0 0 6.37 3.73z" fill="#ffffff" data-color="1"/>
        <path d="M122.13 35.2l-119.51 69a5.23 5.23 0 0 0 5.23 9.07l119.51-69a5.23 5.23 0 0 0-5.23-9.07z" fill="#ffffff" data-color="1"/>
        <path d="M1.59 85.18a5.24 5.24 0 0 0 3.7 6.41L25.54 97l-5.43 20.25A5.24 5.24 0 0 0 30.23 120l6.7-25A5.76 5.76 0 0 0 33 88.18L8 81.47a5.24 5.24 0 0 0-6.41 3.71z" fill="#ffffff" data-color="1"/>
        <path d="M128.39 63.29a5.24 5.24 0 0 0-3.7-6.41l-20.24-5.43 5.42-20.24a5.23 5.23 0 1 0-10.11-2.71l-6.71 25A5.76 5.76 0 0 0 97 60.29L122 67a5.23 5.23 0 0 0 6.39-3.71z" fill="#ffffff" data-color="1"/>
        <path d="M106 69.3l-18.4-8.12q1.09-10 2.17-20c.45-4.14-5.27-7.39-8.6-4.94L65 48.12q-8.09-5.92-16.19-11.84c-3.33-2.45-9.05.8-8.6 4.94q1.08 10 2.17 20L24 69.3c-3.75 1.65-3.75 8.22 0 9.87l18.4 8.12q-1.08 10-2.17 20c-.45 4.14 5.27 7.38 8.6 4.94L65 100.35l16.18 11.84c3.33 2.44 9-.8 8.6-4.94q-1.08-10-2.17-20L106 79.17c3.75-1.65 3.75-8.17 0-9.87zM62.1 88.36Q57.54 91.71 53 95l1.2-11.23a5.51 5.51 0 0 0-2.83-4.94L41 74.23l10.42-4.59a5.51 5.51 0 0 0 2.78-4.94L53 53.43q4.58 3.33 9.13 6.68a5.45 5.45 0 0 0 5.78 0q4.56-3.34 9.13-6.68L75.78 64.7a5.51 5.51 0 0 0 2.83 4.94L89 74.23l-10.42 4.6a5.51 5.51 0 0 0-2.83 4.94L77 95q-4.58-3.33-9.13-6.68a5.52 5.52 0 0 0-5.77.04z" fill="#ffffff" data-color="1"/>
    </g>
</svg>
