<?xml version="1.0" encoding="UTF-8"?>
<svg data-bbox="0.027 -0.001 324.473 213.014" viewBox="0 0 324.5 213.02" xmlns="http://www.w3.org/2000/svg" data-type="color">
    <g>
        <path d="M318.68 81.3a75.88 75.88 0 0 0-15.51-17.58c-6-5.14-13.19-9.49-21.14-10.5a30.43 30.43 0 0 0-8.68.14c6.79-11.28 11.94-25.4 5.37-37.94C272.58 3.71 257.73-1.43 245.3.34 231 2.39 219.18 12.31 210 23c-5.12 6-9.55 12.52-14.73 18.46a56.53 56.53 0 0 1-8.54 8.19 65.69 65.69 0 0 1-10 6c-7.33 3.68-15 6.74-22.51 10-7.8 3.41-15.59 6.84-23.41 10.22a134.8 134.8 0 0 1-21.17 7.65A53.74 53.74 0 0 1 88 84.57c-15.27-2.44-29.65-9.44-45.34-9.22a36.63 36.63 0 0 0-20.14 5.82 31.06 31.06 0 0 0-8 7.81A33.34 33.34 0 0 0 .05 114.49a32.32 32.32 0 0 0 5 18.51c3.44 5.72 8.06 10.58 12.24 15.74a66.9 66.9 0 0 1 10.36 17.66c.73 1.86 1.42 3.74 2.1 5.63 2.39 8 4.52 16.17 8.66 23.39a16.66 16.66 0 0 0 6 8.75 18.76 18.76 0 0 0 1.81 1.12 29 29 0 0 0 8.78 5.89 25.62 25.62 0 0 0 18.83.08 65.51 65.51 0 0 0 18.82-10.6c.92-.75 1.8-1.55 2.66-2.37 16.75-7.49 31.9-18.94 47.31-28.78A201.23 201.23 0 0 1 254.39 137c2.86.15 5.72.2 8.58.18 13.48.7 28 2.49 39.63-5.86a26.75 26.75 0 0 0 6.56-6.86 28.94 28.94 0 0 0 4.66-2.58 24.68 24.68 0 0 0 10.55-18.29c.72-7.95-1.59-15.59-5.69-22.29Zm-25.5 47.63Zm-151.81 19.48a3.07 3.07 0 0 0 .66.53l-.32.19a3.16 3.16 0 0 0-.36-.71ZM70.3 199l-.5.06.92-.23Zm61.36-30.43a3.24 3.24 0 0 0 1-.36c-2.32 1.54-4.63 3.1-7 4.66Zm32.26-19.22a3.69 3.69 0 0 0 .06.88c-4.12 1.93-8.2 4-12.19 6.19 4.02-2.37 8.05-4.74 12.13-7.04Zm63.93-18.7c.23 0 .46 0 .68-.06a3.49 3.49 0 0 0 .2 1.16l-.64.07a3.87 3.87 0 0 0-.24-1.14Zm40.15-7.49a3.43 3.43 0 0 0 .16-.45c.43.1.87.15 1.31.25 1.94.43 3.93.9 5.93 1.35-2.46-.43-4.92-.82-7.4-1.15Zm-49.33-2.32c-2 .35-3.93.75-5.89 1.16a2.73 2.73 0 0 0-.15-.56c0-.06-.09-.11-.13-.18q5.33-.8 10.68-1.24c-1.5.27-3.01.53-4.51.82Zm-24 5.33q-11.67 2.94-23.18 6.55a180.43 180.43 0 0 1 28.85-9.15c-1.89.87-3.79 1.71-5.67 2.6Zm-147.38 63-.09-.28.43.36Zm-13.75-53.83c.47.41 1 .79 1.41 1.21a22.55 22.55 0 0 1 3.2 3.49 13.39 13.39 0 0 1 2.1 4.14 20.09 20.09 0 0 1 .87 5.73 41.69 41.69 0 0 0-7.58-14.57Zm-10.21-8c-.26-.26-.53-.51-.78-.77a2.64 2.64 0 0 0-.13-.52l-.13-.23 1.62 1.5a3.75 3.75 0 0 0-.58-.01Zm293.58-19.5c-2.1 5.92-7.08 9.7-12.86 11.51-6.52 2-13.39 1.47-20 .21-7.19-1.37-14.24-3.38-21.46-4.58a159 159 0 0 0-19.23-2c-25.43-1.1-51.06 4-74.56 13.76a199.2 199.2 0 0 0-34.11 18.16c-11.14 7.41-21.17 16.08-30.93 25.24-9.23 8.66-20 18.58-33 19.56a28.1 28.1 0 0 1-15.83-3.21 17.27 17.27 0 0 1-8.69-11.6c-2.09-11 4.09-22.6-.17-33.71-2.6-6.8-8.47-11-13.86-15.39-4.63-3.79-9.3-7.79-12.46-12.67-3-4.59-4.24-9.78-2.58-15.25a16.7 16.7 0 0 1 1.92-4.11 21.8 21.8 0 0 1 4.2-2 3.15 3.15 0 0 0 1.82-4.42 29.49 29.49 0 0 1 3.33-2.15C40.49 78.66 55.6 82.85 68 86.37c7.44 2.11 14.92 4.36 22.64 5.13a61.94 61.94 0 0 0 21.89-1.87 140.09 140.09 0 0 0 20.3-7.42c7.65-3.31 15.27-6.67 22.91-10 7.44-3.25 15-6.37 22.3-9.88A65.07 65.07 0 0 0 197.16 49c5.45-5.6 9.89-12.08 14.77-18.16a92 92 0 0 1 13.89-14.41 46.16 46.16 0 0 1 17.63-9.16 30.37 30.37 0 0 1 16.89 1A23.22 23.22 0 0 1 272.71 18c3 5 3.14 11.23 1.75 17-1.44 6-4.4 11.53-7.66 16.75a3.14 3.14 0 0 0 .37 3.48 21.74 21.74 0 0 0-4.43 2.65 3.38 3.38 0 0 0-1 4.52 3.24 3.24 0 0 0 4.47 1c4.84-3.75 11-4.56 16.93-3.28 7.42 1.61 13.7 6.44 19.09 11.63 9.33 8.91 19.58 22.19 14.68 36.06Z" fill="#c32623" data-color="1"/>
    </g>
</svg>
