<?xml version="1.0" encoding="UTF-8"?>
<svg data-bbox="0.002 0.004 203.662 542.196" viewBox="0 0 203.7 542.2" xmlns="http://www.w3.org/2000/svg" data-type="color">
    <g>
        <g>
            <path d="M58.12 542.2c-1.51-2.1-3.08-3.76-4-5.73-2.76-5.69-5.2-11.53-7.89-17.26-4.19-8.93-5-17.94-.53-27 4.31-8.77 3.9-17-.77-25.74-2.6-4.85-3.84-10.62-4.8-16.13-1.87-10.71 1.28-19.76 10.46-26.24a35.64 35.64 0 0 0 3.1-2.53c8.51-7.57 9.73-14.57 4.12-24.81-2.08-3.79-4.61-7.33-6.68-11.13-8.09-14.87-7-26.54 3.66-39.64 1.89-2.33 3.85-4.6 5.63-7 6.37-8.59 7.36-17.62 2-27.1A9.34 9.34 0 0 0 62 311c-8.18-12.08-12.43-25-7.47-39.27-16.79-7.33-18.78-14.56-8.75-29.47 2.41-3.57 5.21-6.87 7.94-10.44-10.31-24.46-20.41-49-31-73.41-10.32-23.66-18.21-47.94-21.43-73.6C-.93 67.13-.5 49.58 4.31 32.29c.62-2.24 1.28-4.48 2.09-6.67C14 5.06 31.42-4 52.66 1.66 66.81 5.42 77.54 14.1 86 25.71c3.14 4.28 5.86 8.86 8.89 13.48 1-.39 2.16-.48 2.64-1.1 10.14-13 24.4-19.12 39.51-24a34.9 34.9 0 0 1 24.39 1.12c34.11 13.6 51.42 53.53 37.29 87.31a120.51 120.51 0 0 1-13.31 23.35 247.63 247.63 0 0 1-48.29 50.18c-20 15.82-38.05 34.21-57.1 51.3-4.83 4.33-6.12 8.93-4 15a94.22 94.22 0 0 1 3 12.62c1.81 8.94-.4 12.4-9.13 14.31-2.27.49-4.6.66-7.48 1.06-3.64 9.95-4.12 19.78 1.38 29.46.65 1.15 1.34 2.3 2 3.45 10.6 18.54 9.7 28.71-4 45.45C50.74 362.32 50.14 370 59 385c2.36 4 5 7.9 6.95 12.11 4.68 10.18 2.87 19.52-4.95 27.51-1.16 1.19-2.45 2.26-3.71 3.35-11.43 9.86-13.21 16.56-8.17 30.73a5.34 5.34 0 0 0 .4.92c7.67 12.66 8.61 25.38 1.62 38.87-2.91 5.51-1.14 11.72 1.36 17.37 2.84 6.39 5.7 12.77 8.63 19.11 1.27 2.75 1.57 5.11-3.01 7.23Zm1.82-312.91c6.47 2.34 10-.17 14-4 18.56-17.63 37.49-34.86 56.31-52.21a25.9 25.9 0 0 1 3.16-2.45c20-13.37 35-31.61 48.92-50.86 7.3-10.1 12.67-21.14 15.09-33.44 1.55-7.92 2.19-15.89-1-23.62-4.42-10.85-10.04-21.17-18.51-29.36-13.38-13-28.58-19.49-47.07-10.56-2.4 1.15-4.93 2-7.36 3.11-10.26 4.65-19 11-23.93 21.58-.71 1.53-1.22 3.15-1.83 4.73L94.62 51c-2.84-4.67-5.73-9.31-8.51-14-6.92-11.76-15.73-21.49-28.47-27.1C36.39.54 18.14 8.65 11.19 30.72A117.24 117.24 0 0 0 6.9 80.14a235.9 235.9 0 0 0 16.8 64.55c9.43 22.41 18.7 44.87 28.16 67.31 2.58 6 5.58 12 8.08 17.29Zm8.6 7.68c-11.24-.26-18.27 5.45-21.83 16.4-1.84 5.66-.12 9.27 5.76 10.2a40.42 40.42 0 0 0 21.58-2.17Z" fill="#c32623" data-color="1"/>
            <path d="M81.75 203.35c10.57-20.39 22.07-39.74 37.79-56.18 9.88-10.35 19.69-20.77 29.19-31.46 8.4-9.46 16.27-19.38 20.52-31.6a14.13 14.13 0 0 1 1.46-2.51l2.1 1c-1 3.19-1.44 6.72-3.12 9.49a187.67 187.67 0 0 1-13.89 20.65c-6.67 8.27-13.88 16.16-21.34 23.74-17.11 17.4-32.53 36-44.51 57.41a68 68 0 0 1-5.73 8.12c-.52.71-1.63.92-2.47 1.34Z" fill="#c32623" data-color="1"/>
            <path d="M54.63 26.14h-4.85c-10.71.25-17.46 5.56-19.77 16-2.63 11.89-1.39 23.75.9 35.56a10 10 0 0 1-.21 6.18c-.92-1.35-2.31-2.57-2.7-4.06-3.41-13-4.15-26.27-1.29-39.42a22.22 22.22 0 0 1 25.11-17.66c1.12.17 2.14 1.09 3.2 1.66Z" fill="#c32623" data-color="1"/>
            <path d="m141.37 31.12-27.27 28c1.09-8.77 13.9-22.5 27.27-28Z" fill="#c32623" data-color="1"/>
        </g>
    </g>
</svg>
