<?xml version="1.0" encoding="UTF-8"?>
<svg data-bbox="-0.002 0 839.392 452.801" viewBox="0 0 839.39 452.76" xmlns="http://www.w3.org/2000/svg" data-type="color">
    <g>
        <g>
            <path d="M13.74 72.43c5.3 2.83 4 6.45 3.21 9.47a170.27 170.27 0 0 1-6.42 19.94c-5.15 12.51-4 24 4 34.93 2.15 3 4.06 6.1 6 9.22 5.78 9.44 7.26 19.49 2.34 29.55-5.17 10.55-4.52 20.32 1 30.46 5.74 10.54 5 21.08-1.52 31.26a46.43 46.43 0 0 0-4.43 8.93c-4.38 11.84 1 18.77 8.93 24.33 20.92 14.71 44.52 16.8 68.53 17.12 28.78.39 57-5.07 85.15-10.32 19-3.53 38.06-7.1 57.25-8.37 35.1-2.34 69 4.4 101.27 18.42 6.1 2.66 12.18 5.42 18.11 8.42 24.5 12.39 49.8 13.74 75.66 5.34 12.34-4 24.61-8.32 36.63-13.19 49.81-20.2 100.67-23.5 152.81-10.76 26.23 6.41 52.65 11.76 79.89 11.46 20.55-.22 40.39-3.68 59.34-11.83 4-1.7 7.69-3.14 9.28-8.13.91-2.87 4-5.19 6.54-7.36 13.4-11.7 17.56-26.17 13.42-43.27-.86-3.56-1.76-7.12-2.43-10.72-2.53-13.73-1.23-27 8.45-37.63 12.8-14 15-28.65 7.16-45.85-6.65-14.58-3.53-28 8-39.29 1.89-1.87 3.56-4 5.39-5.9 7.06-7.51 10-16.34 8.67-26.59q-.84-6.43-1.67-12.87c-1.47-11.18-.5-22 5.37-31.89 1.18-2 2.32-4.18 4-5.65C834.86.58 837 .52 838.73 0c.23 1.76.49 3.51.66 5.27 0 .26-.3.58-.5.84-9.19 11.47-9.33 24.75-6.63 38.08 3.4 16.83-.62 30.92-12.89 42.85a69.28 69.28 0 0 0-7.12 8.35c-4.44 6-5.88 12.61-3.64 19.84q2.5 8.1 5.19 16.16c4.11 12.24 3.44 24.3-5.33 33.88-14.43 15.78-16.42 33-10.74 52.84 5.38 18.77-.79 34.73-15 47.81-2.64 2.44-5.47 4.44-5.28 9 .08 1.92-2.63 4.47-4.66 5.87-20.58 14.17-37 32.43-52.21 52-25.31 32.46-54.55 61.1-86.11 87.43-17.63 14.72-37.06 25.95-60 30.26-31.57 5.93-60.94.61-87.79-17.28-16-10.64-29.23-24.14-41.25-39-5-6.21-10-12.55-15.6-18.2-14.52-14.6-28.69-16.34-45.78-5.12a187.79 187.79 0 0 0-23.42 18.62c-35.72 32.68-78.94 45.77-126 48.46-23.76 1.36-46.37-4.11-67.59-14.76-38.12-19.15-70.7-45.2-95.31-80.28-12-17.15-25.09-33.59-34.48-52.59-2.85-5.77-9-10.49-14.7-14.17C10 268 5.92 258 11.18 243.84a77.78 77.78 0 0 1 5.76-11.6 22.61 22.61 0 0 0 1-22c-1-2.12-1.8-4.3-2.85-6.38-4.33-8.56-5-17.46-.74-26 6.34-12.57 4.35-23.72-4-34.44A72.74 72.74 0 0 1 5.12 135a35.43 35.43 0 0 1-3.21-29.83C5 95.66 7.77 86.08 10.83 76.59c.45-1.4 1.75-2.54 2.91-4.16Zm734.18 217c-19.36 5.13-37.15 7.23-55.2 6.42-23.05-1.05-45.59-5.4-68-10.67-24.39-5.74-48.94-9.85-74.16-8.36-27.53 1.63-53.89 8-79.49 18.09-13.3 5.25-26.79 10.12-40.46 14.25-25.24 7.61-50 5.87-73.88-5.7-5.7-2.75-11.46-5.35-17.22-8a219.26 219.26 0 0 0-90-19.69c-21.13-.18-41.7 3.71-62.37 7.35-21.95 3.88-43.91 8.13-66 10.41-24.81 2.55-49.78 2.06-76.64-5.42 4.33 7.7 7.14 13.56 10.73 18.91C62.59 318.08 70.3 329 78.1 339.74c24.53 33.92 56.23 59.31 93.6 77.73 19.12 9.42 39.48 14.15 60.88 13.22 46.59-2 89.09-14.91 124.14-47.33 4.64-4.29 9.47-8.41 14.47-12.29 27.9-21.62 48.07-19.51 70.71 7.3 3.87 4.58 7.55 9.31 11.35 13.94 10.2 12.42 21.42 23.8 34.67 32.95q47.31 32.67 101.67 13.55c16-5.62 29.41-15.31 42.47-25.79 43.94-35.26 78.4-79.4 115.86-123.61Z" fill="#f5ac3b" data-color="1"/>
            <path d="M107.58 317.65c8.24 0 16.57.79 24.7-.14 32.06-3.67 64.09-7.6 96.05-12 18.43-2.53 36.52-2.38 54.25 3.56q33.59 11.24 67 23c2.25.79 5.24 2.75 5.62 4.63s-1.78 4.95-3.68 6.12c-22.35 13.82-44.46 28.07-67.43 40.77-18.64 10.3-39.17 15.08-60.69 12.67-37.77-4.25-70.52-18.53-95.14-48.7-5.87-7.2-12.43-13.84-18.5-20.87-1.57-1.82-2.52-4.18-3.75-6.28Zm14.42 7.88c0 1.69-.14 2.13 0 2.34 3.23 4.21 6.55 8.35 9.76 12.58 21.35 28.18 50.86 41.91 84.75 47.91a92.67 92.67 0 0 0 46.27-3.76c29.76-9.93 54.7-28.29 80.82-45.38-1.31-1.18-1.92-2.14-2.77-2.44-21.06-7.28-42.06-14.75-63.25-21.61a86.67 86.67 0 0 0-38.45-3.65q-44.52 6-89.07 11.53c-9.14 1.15-18.41 1.65-28.06 2.48Z" fill="#f5ac3b" data-color="1"/>
            <path d="M456.07 344.3c2-1.05 3.05-2 4.2-2.15 19.55-2.14 36.13-11.1 51.51-22.59a63.31 63.31 0 0 1 47-12.57c9.57 1.14 19.06 3 28.58 4.55 23.3 3.82 46.55 7.89 69.9 11.38 6.51 1 13.26.24 19.91.34 2.64 0 5.38-.2 7.89.43 4.45 1.14 5.69 4.48 3.18 8.4a23.43 23.43 0 0 1-5.34 5.91c-18.72 14.41-37.07 29.36-56.45 42.82a115 115 0 0 1-56.74 20.31 95.11 95.11 0 0 1-50.44-9.26 56.63 56.63 0 0 1-21.16-17.92c-7.57-10.43-17.35-17.27-30-20-5.11-1.11-9.03-3.8-12.04-9.65Zm223.87-12.85c-3.5-.64-4.42-1-5.33-1-20.08.68-39.8-2.15-59.42-6-16.31-3.17-32.56-6.74-49-9.4-15-2.43-30-2.84-43.47 5.92-15.14 9.85-29.63 20.78-47.83 26.68 14.72 4 23.15 14.8 31.82 25.37 7 8.52 16.34 13.55 26.63 16.83 21.43 6.82 42.73 5.67 63.57-2.27 31.42-11.89 56.09-33.82 83.03-56.13Z" fill="#f5ac3b" data-color="1"/>
            <path d="M84.59 306.75c3.38-.63 6.73-1.62 10.14-1.82 28-1.67 55.43-7.06 83-11.71a253.56 253.56 0 0 1 83.55 0 12.55 12.55 0 0 1 6.69 2.94c-1.55.33-3.19 1.16-4.64.91-36.66-6.31-72.86-3.13-109.18 3.72-21.86 4.12-44.19 5.78-66.32 8.46-1 .12-2.15-.6-3.23-.92Z" fill="#f5ac3b" data-color="1"/>
            <path d="M465.12 316.56c38.57-16.35 78.8-20.93 120.26-16.83l.3 2.54c-3.63.06-7.28.35-10.9.13-27.08-1.64-53.79.61-80 7.7-7.35 2-14.52 4.67-21.78 7-2.37.77-4.74 1.56-7.11 2.34-.25-.94-.51-1.91-.77-2.88Z" fill="#f5ac3b" data-color="1"/>
        </g>
    </g>
</svg>
